<svg xmlns="http://www.w3.org/2000/svg" viewBox="0 0 1000 1000" width="1000" height="1000"><g fill="#cccccc" stroke="#222" stroke-width="2"><path d="M317.17,859.95 L315.07,855.50 L311.57,853.67 L312.33,848.46 L306.54,843.64 L305.01,841.03 L305.46,836.59 L303.23,832.38 L304.63,830.01 L304.38,826.64 L305.59,822.96 L304.06,820.44 L304.31,817.83 L301.70,815.38 L301.13,811.86 L296.55,812.01 L296.93,807.80 L300.18,805.81 L294.26,803.97 L291.52,797.77 L292.86,793.10 L300.18,789.73 L300.75,788.43 L299.54,786.90 L294.64,786.13 L294.00,783.91 L295.08,783.07 L297.31,785.06 L298.58,784.45 L298.97,781.39 L297.12,777.79 L298.01,776.03 L300.94,777.41 L301.83,779.40 L302.91,779.17 L304.06,776.72 L302.34,773.19 L306.41,773.88 L311.44,769.29 L312.14,766.53 L318.00,765.54 L323.09,769.06 L326.14,769.44 L332.51,763.93 L337.54,762.09 L338.68,755.58 L342.12,754.36 L342.12,751.75 L341.48,750.30 L343.97,746.47 L344.03,743.64 L348.17,739.04 L345.62,735.06 L345.56,731.39 L341.80,732.31 L340.91,729.86 L341.80,726.72 L338.30,724.65 L341.29,724.34 L335.88,724.73 L334.16,723.73 L333.72,719.44 L330.47,714.47 L317.87,704.97 L314.24,705.35 L310.74,700.00 L304.50,701.91 L301.00,699.15 L295.27,698.77 L292.73,699.23 L291.96,701.07 L290.31,701.45 L286.24,698.85 L280.25,691.50 L275.54,690.81 L274.78,686.83 L276.94,682.84 L280.89,680.24 L280.64,677.18 L278.53,675.03 L279.36,671.13 L285.03,667.99 L288.66,663.24 L297.31,659.18 L302.02,658.73 L304.19,657.19 L305.14,654.44 L305.33,646.01 L301.70,644.02 L301.96,631.77 L300.81,630.47 L297.06,630.09 L296.42,628.63 L298.01,622.81 L297.18,618.60 L295.59,617.46 L296.67,609.72 L294.89,607.58 L289.48,609.26 L287.89,608.73 L286.17,605.66 L287.19,603.44 L291.58,601.38 L292.86,599.39 L292.22,594.79 L288.34,591.04 L286.43,586.98 L290.76,575.11 L290.95,571.97 L284.20,562.48 L280.64,559.57 L281.08,553.52 L282.86,549.16 L288.40,543.80 L290.18,538.82 L289.36,534.84 L288.21,533.61 L285.09,534.30 L279.04,531.39 L276.50,531.62 L264.40,527.33 L262.81,528.18 L258.42,524.58 L255.56,519.83 L256.26,513.40 L253.84,506.89 L256.58,500.00 L259.82,495.71 L259.69,491.58 L263.07,493.11 L257.47,490.35 L255.37,486.22 L250.40,481.85 L248.30,482.47 L242.19,488.44 L237.74,490.35 L235.19,489.82 L233.85,492.04 L234.11,493.95 L232.52,494.72 L231.50,499.23 L226.98,499.16 L227.23,502.76 L224.50,501.61 L224.12,502.83 L225.32,503.60 L223.22,504.36 L221.82,506.58 L217.24,506.81 L215.78,505.82 L207.31,508.58 L202.47,507.35 L200.63,508.50 L186.50,506.20 L183.70,503.22 L176.51,505.13 L171.03,502.37 L149.20,499.00 L147.74,499.62 L144.30,497.40 L143.60,498.77 L142.58,495.87 L141.18,497.32 L137.04,494.33 L134.31,494.33 L131.51,492.42 L119.99,494.72 L116.99,492.57 L116.74,490.51 L115.40,490.51 L114.58,488.44 L106.17,491.50 L100.89,492.04 L97.71,495.18 L94.02,492.65 L92.94,489.28 L91.79,489.36 L91.73,490.43 L86.25,495.33 L79.12,494.56 L77.21,492.88 L67.48,494.87 L65.44,487.67 L63.66,488.29 L62.32,486.60 L62.19,481.70 L63.47,477.87 L61.30,476.34 L61.56,473.51 L57.93,474.43 L54.87,464.63 L49.85,461.18 L45.90,460.34 L45.07,454.37 L43.10,450.38 L36.16,447.17 L37.37,442.11 L36.22,437.98 L32.22,436.68 L28.21,431.40 L26.80,420.14 L24.00,418.61 L23.94,415.78 L27.00,411.18 L25.72,408.42 L26.36,405.97 L28.52,405.82 L30.43,401.99 L27.31,400.39 L26.04,398.62 L26.17,396.71 L24.58,396.40 L24.39,393.95 L26.36,391.66 L24.39,391.12 L25.02,386.30 L19.23,380.55 L19.29,377.72 L21.33,376.65 L19.80,373.59 L21.01,372.28 L20.76,367.69 L22.86,364.55 L20.89,361.95 L21.46,360.26 L24.58,358.50 L29.41,358.58 L31.71,356.67 L27.70,351.92 L26.87,349.08 L27.89,339.36 L23.24,336.60 L24.39,329.33 L23.50,326.04 L23.50,322.44 L25.53,320.91 L25.40,318.00 L39.66,273.28 L48.95,242.50 L56.78,216.78 L94.40,107.28 L96.88,105.06 L101.97,102.61 L102.86,99.24 L108.40,96.72 L111.14,97.33 L112.35,92.20 L117.57,91.51 L118.33,86.23 L121.58,88.68 L123.74,88.75 L124.31,75.81 L127.69,75.51 L129.22,72.68 L132.65,69.84 L137.68,70.45 L139.91,64.56 L146.40,59.58 L149.20,60.96 L150.60,56.21 L153.59,52.69 L159.07,51.08 L162.69,55.06 L164.60,52.08 L167.21,51.62 L169.44,55.29 L172.18,55.29 L175.11,57.82 L179.75,56.90 L182.11,59.20 L187.26,59.89 L189.05,58.59 L189.36,54.99 L191.78,55.91 L196.49,53.38 L195.79,56.67 L197.64,58.74 L199.61,55.37 L203.37,54.91 L204.38,52.92 L211.13,50.47 L212.21,48.40 L214.95,45.72 L219.85,46.26 L218.39,41.44 L220.42,39.06 L220.81,36.61 L222.52,37.15 L225.64,35.77 L230.67,37.38 L239.96,34.70 L244.86,31.48 L252.82,40.06 L268.61,36.76 L272.30,38.60 L275.03,43.43 L288.15,40.36 L291.14,43.04 L294.19,43.89 L296.74,47.33 L304.69,50.47 L307.94,50.32 L310.61,52.23 L311.57,50.85 L311.57,47.10 L315.07,46.72 L315.13,43.04 L316.91,42.89 L320.22,45.26 L320.86,46.87 L324.87,47.41 L327.93,45.11 L330.79,46.18 L332.57,44.19 L335.25,44.35 L334.74,38.99 L336.90,37.45 L340.27,37.91 L343.07,40.36 L345.88,39.14 L347.15,42.05 L353.19,46.41 L355.23,45.11 L356.70,42.51 L361.15,41.82 L364.40,35.62 L368.47,35.16 L370.06,29.72 L371.72,30.10 L373.24,32.40 L376.11,31.18 L377.57,26.43 L381.26,22.45 L383.49,23.37 L382.41,25.20 L383.75,26.12 L388.01,24.74 L388.39,26.96 L389.60,25.13 L391.38,24.74 L391.96,29.41 L393.68,32.17 L397.75,28.42 L398.58,31.94 L404.37,25.05 L407.55,25.97 L413.92,23.14 L415.25,24.44 L417.54,19.77 L419.13,19.23 L427.09,24.90 L429.76,23.21 L431.48,25.05 L433.65,24.82 L434.54,26.50 L436.57,26.81 L437.21,25.20 L439.06,26.05 L439.31,28.42 L441.16,28.34 L443.38,32.17 L443.96,31.10 L446.25,32.25 L447.27,30.79 L449.75,30.95 L452.49,35.16 L452.04,36.15 L455.48,38.37 L458.09,38.37 L458.28,41.05 L460.00,41.21 L460.38,44.35 L472.85,48.10 L476.61,52.31 L480.36,49.86 L482.85,56.21 L488.83,53.99 L497.55,53.46 L498.82,52.31 L501.69,56.29 L503.79,53.99 L511.87,55.29 L515.31,53.07 L526.26,61.57 L529.76,66.24 L530.84,69.84 L536.06,68.85 L546.81,73.29 L548.09,72.37 L550.19,74.28 L551.59,73.59 L553.75,75.43 L556.23,75.58 L557.82,77.81 L561.77,79.41 L568.07,78.42 L567.24,83.85 L571.83,85.69 L572.53,88.22 L571.70,90.29 L573.67,96.64 L577.68,97.02 L578.83,100.39 L580.99,100.78 L584.30,106.52 L582.07,107.13 L583.03,110.27 L581.82,112.03 L584.81,117.47 L585.13,124.05 L584.37,125.20 L585.26,126.96 L584.11,133.39 L587.10,133.78 L591.49,139.37 L594.55,141.36 L600.85,142.35 L605.12,138.75 L607.79,142.05 L608.74,148.48 L615.49,153.84 L613.07,155.60 L612.88,158.51 L614.60,163.33 L615.94,164.40 L613.07,166.32 L612.44,169.53 L613.01,173.97 L615.49,176.35 L616.83,186.76 L625.23,200.85 L627.65,201.54 L636.69,210.34 L642.41,213.79 L640.44,219.61 L640.82,224.13 L642.73,225.58 L642.86,230.10 L646.36,230.25 L644.64,234.23 L640.19,235.46 L638.21,241.35 L643.11,248.63 L648.01,247.56 L650.88,250.47 L656.48,252.23 L659.60,255.14 L660.94,258.12 L658.07,262.56 L663.35,265.93 L665.39,269.91 L665.39,273.51 L671.69,277.19 L673.79,280.17 L674.75,282.85 L676.47,282.01 L677.67,284.00 L676.78,286.45 L679.08,289.67 L676.08,292.04 L672.52,302.91 L674.17,307.51 L672.33,309.73 L673.79,311.80 L679.20,313.02 L684.42,312.18 L689.45,313.48 L708.74,323.05 L714.78,316.62 L723.82,315.55 L729.42,324.43 L733.18,324.35 L738.08,332.55 L740.94,330.17 L746.61,332.39 L747.69,330.94 L757.81,330.10 L761.31,335.84 L766.72,339.13 L770.67,336.07 L770.98,334.54 L772.13,334.69 L777.28,340.89 L775.31,343.50 L778.69,350.54 L781.42,352.22 L786.77,352.76 L787.72,353.99 L788.04,359.42 L795.93,364.32 L795.62,373.82 L793.07,377.95 L795.93,382.47 L799.24,381.63 L800.45,383.00 L799.75,379.87 L800.52,379.18 L801.47,380.25 L804.40,377.72 L804.78,372.82 L807.90,375.04 L813.56,374.58 L815.98,378.10 L820.76,377.49 L823.18,378.56 L822.98,379.56 L826.80,380.40 L826.93,385.38 L828.84,388.98 L831.13,390.13 L832.85,398.01 L837.62,402.30 L838.07,406.20 L839.41,408.50 L839.98,415.32 L842.65,416.01 L845.20,418.84 L846.60,422.13 L846.09,424.66 L847.93,431.62 L849.59,433.54 L849.78,436.37 L852.33,439.51 L854.55,439.43 L854.75,436.75 L857.35,436.91 L859.71,434.38 L861.68,435.45 L863.59,433.92 L866.33,434.08 L868.17,435.38 L867.22,437.06 L870.53,440.12 L873.59,439.13 L876.51,441.20 L877.47,443.72 L880.33,444.26 L881.67,446.71 L885.49,447.40 L888.54,449.77 L888.29,463.94 L891.66,469.68 L894.40,471.06 L895.80,470.52 L896.24,472.28 L897.52,472.59 L899.55,478.33 L903.75,478.56 L907.57,480.63 L911.71,478.10 L913.62,479.63 L921.13,480.93 L922.34,480.25 L927.37,484.69 L930.93,482.70 L944.11,483.46 L945.64,487.67 L945.95,488.97 L946.08,485.83 L948.63,487.14 L950.73,482.62 L953.97,483.46 L960.91,478.87 L966.26,479.33 L965.75,484.53 L967.08,487.83 L964.92,491.27 L967.72,491.65 L968.49,493.95 L965.81,498.39 L968.17,499.08 L967.66,501.30 L969.12,503.14 L971.35,501.45 L971.48,504.36 L973.64,503.90 L976.00,505.44 L976.00,509.65 L974.47,513.48 L978.16,520.67 L978.35,526.11 L976.44,528.56 L976.19,531.85 L973.70,533.92 L973.51,535.45 L975.68,547.09 L980.26,551.76 L979.75,554.67 L980.77,556.81 L979.11,558.57 L978.03,564.01 L974.53,565.24 L975.93,567.61 L975.17,570.83 L976.76,575.04 L973.77,576.34 L969.76,581.39 L965.24,580.47 L962.44,578.18 L960.47,579.78 L958.68,579.48 L951.17,576.18 L947.23,572.20 L938.76,579.55 L934.75,580.24 L932.08,583.69 L925.59,584.22 L921.83,585.91 L921.13,589.28 L929.34,597.85 L927.24,613.47 L924.89,615.00 L916.87,625.88 L913.49,626.87 L909.10,623.96 L904.07,625.11 L899.62,630.78 L895.61,639.74 L897.14,649.00 L900.19,651.83 L906.56,653.60 L909.67,659.03 L912.73,660.03 L915.02,659.49 L916.61,663.78 L915.66,669.29 L918.33,671.74 L913.75,686.37 L909.10,689.28 L903.05,700.61 L902.67,703.52 L906.24,710.33 L903.95,710.03 L902.86,711.10 L902.74,716.07 L898.98,718.75 L893.51,727.02 L906.30,736.67 L904.58,744.25 L900.70,746.32 L901.21,750.22 L899.55,754.97 L901.14,756.73 L896.63,756.81 L891.22,753.98 L887.91,753.52 L886.06,750.22 L879.82,749.30 L877.85,746.32 L878.30,744.71 L873.52,743.49 L869.38,740.19 L869.26,737.44 L865.50,733.84 L861.49,732.69 L859.14,736.14 L857.93,734.68 L856.02,736.06 L853.47,731.31 L854.68,727.79 L853.34,726.18 L852.71,722.89 L850.86,721.05 L845.90,719.75 L842.78,716.46 L836.35,717.99 L833.42,722.43 L829.92,722.28 L827.82,720.52 L825.28,722.81 L823.56,735.75 L818.91,737.97 L817.77,740.04 L806.69,736.06 L805.99,734.30 L802.55,733.00 L800.52,734.91 L800.33,736.75 L798.86,736.67 L794.02,740.73 L794.26,739.54 L792.24,743.41 L791.99,750.61 L784.29,759.56 L781.49,765.54 L781.68,767.07 L775.38,773.42 L775.31,776.18 L773.21,780.16 L776.71,783.45 L777.35,785.52 L779.83,785.60 L778.94,791.34 L775.44,795.93 L779.19,803.67 L783.46,805.35 L783.59,810.71 L781.68,812.78 L784.99,814.31 L785.94,818.14 L784.60,820.82 L784.80,824.80 L783.65,826.56 L781.93,826.64 L778.11,837.13 L778.56,840.50 L781.99,847.77 L781.99,854.36 L783.46,856.19 L779.96,859.49 L780.34,861.40 L778.11,864.39 L777.79,867.37 L775.25,870.05 L773.08,870.74 L772.70,873.42 L769.07,875.95 L762.20,877.86 L760.55,879.62 L758.00,878.02 L753.93,879.16 L752.72,880.62 L748.13,880.85 L747.05,882.46 L745.21,881.77 L741.39,888.28 L740.37,888.28 L739.35,886.28 L734.45,886.90 L733.49,887.82 L734.83,888.28 L727.00,891.72 L723.25,890.34 L721.91,887.36 L719.94,887.74 L721.85,885.98 L722.23,883.15 L718.22,885.29 L715.93,885.14 L716.25,882.84 L713.06,883.15 L712.87,880.62 L710.58,882.00 L711.09,880.77 L709.75,877.56 L706.76,880.16 L702.31,880.01 L700.97,877.56 L698.68,877.33 L697.34,880.16 L694.29,876.18 L692.63,875.95 L691.04,876.79 L688.43,881.15 L690.85,884.52 L690.60,886.13 L685.31,890.19 L678.76,888.89 L677.67,889.88 L675.89,889.35 L674.68,891.26 L672.65,891.64 L668.96,889.27 L668.57,887.66 L666.92,888.20 L664.56,884.52 L665.33,880.01 L661.95,875.03 L660.81,870.36 L659.41,868.98 L656.16,870.28 L655.78,867.14 L657.24,867.14 L655.27,866.53 L653.74,867.60 L653.42,871.89 L655.02,874.42 L652.72,873.80 L651.20,874.95 L649.41,873.88 L650.05,878.47 L647.63,883.22 L646.68,882.69 L646.04,877.86 L643.50,876.33 L644.26,882.92 L643.05,884.37 L644.20,886.59 L639.99,892.56 L638.28,892.95 L638.09,891.95 L639.10,887.05 L634.39,892.33 L634.01,894.55 L631.21,894.86 L630.00,890.80 L628.28,892.72 L627.90,898.08 L629.56,902.44 L627.33,902.29 L627.07,905.66 L624.91,906.65 L627.20,911.93 L625.55,912.55 L625.29,910.02 L623.26,908.72 L623.06,906.73 L620.52,905.27 L619.18,906.96 L619.05,911.25 L614.09,912.78 L610.08,917.29 L606.77,916.30 L601.81,918.14 L598.31,917.22 L593.85,919.21 L586.72,911.93 L584.37,912.09 L582.39,909.10 L577.43,910.10 L573.80,908.72 L570.62,910.63 L567.88,914.31 L565.72,913.08 L564.89,915.99 L563.49,914.00 L560.94,913.85 L559.93,916.53 L560.88,920.05 L559.16,923.57 L563.43,924.65 L563.62,928.86 L557.51,927.40 L556.74,929.32 L554.90,929.55 L551.59,932.38 L552.29,935.52 L545.54,936.59 L545.09,939.50 L538.22,944.32 L535.93,948.46 L535.04,944.17 L523.39,939.88 L521.29,942.79 L520.72,946.85 L512.44,950.45 L512.95,956.65 L508.05,959.02 L505.25,967.06 L506.52,969.51 L509.39,970.97 L509.01,972.58 L504.17,974.64 L504.04,977.17 L500.73,980.77 L499.71,980.00 L498.76,975.72 L498.82,969.21 L493.92,968.29 L492.33,963.69 L490.74,964.84 L489.59,971.96 L487.56,970.28 L487.75,966.53 L485.20,963.01 L480.68,967.22 L480.43,971.66 L477.31,973.11 L475.65,971.20 L473.04,971.20 L473.81,968.82 L472.66,967.98 L468.78,968.21 L468.40,971.27 L464.90,970.43 L464.77,966.45 L463.12,964.77 L463.18,962.85 L460.63,961.63 L459.11,962.55 L458.41,966.14 L456.94,966.22 L457.20,960.86 L454.14,959.25 L453.50,953.82 L452.36,953.13 L450.26,953.74 L444.78,959.64 L430.97,965.15 L425.56,969.67 L423.21,969.36 L419.07,962.62 L419.52,955.27 L418.05,951.98 L414.68,946.54 L408.51,942.56 L407.36,937.81 L404.43,935.82 L401.82,930.92 L400.29,923.80 L401.82,921.05 L400.87,917.60 L394.69,911.48 L389.98,900.22 L385.59,901.37 L384.64,899.22 L382.60,897.77 L380.37,900.45 L375.22,891.87 L375.22,885.83 L373.05,882.61 L363.82,882.99 L359.56,881.23 L358.73,875.34 L356.95,871.66 L349.95,877.10 L347.08,871.05 L345.62,870.51 L339.70,872.58 L334.61,876.33 L330.54,876.41 L329.96,873.73 L330.54,868.44 L327.42,864.23 L317.17,859.95 Z M659.48,860.35 L658.58,861.48 L657.24,867.14 L659.48,860.35 Z M470.18,111.04 L474.64,118.23 L472.85,115.09 L470.18,111.04 Z M462.86,103.76 L461.62,103.51 L465.66,107.21 L462.86,103.76 Z M457.90,102.77 L455.35,103.61 L459.97,103.18 L457.90,102.77 Z M444.26,178.33 L444.08,177.88 L443.32,177.19 L444.26,178.33 Z M466.23,167.39 L472.15,165.25 L465.10,167.30 L466.23,167.39 Z M416.08,236.91 L415.84,237.20 L417.54,237.83 L416.08,236.91 Z M415.63,235.92 L415.09,236.92 L415.51,237.08 L415.63,235.92 Z M414.81,237.45 L415.19,238.12 L415.07,236.97 L414.81,237.45 Z M431.96,264.60 L435.62,257.43 L432.76,262.26 L431.96,264.60 Z M438.04,250.31 L436.38,252.15 L435.43,253.30 L438.04,250.31 Z M466.30,246.41 L465.73,244.11 L465.90,244.09 L465.24,244.06 L466.30,246.41 Z M464.48,303.09 L469.86,305.59 L465.79,303.53 L464.48,303.09 Z M434.79,359.73 L433.02,363.06 L436.06,358.94 L434.79,359.73 Z M429.39,366.46 L430.85,366.01 L431.73,364.81 L429.39,366.46 Z M426.20,368.23 L425.91,368.92 L426.70,367.95 L426.20,368.23 Z M420.56,410.73 L421.36,410.95 L423.97,410.34 L420.56,410.73 Z M442.75,465.77 L444.78,464.93 L442.18,465.37 L442.75,465.77 Z M461.40,470.52 L462.76,470.13 L460.52,469.93 L461.40,470.52 Z M468.40,468.53 L466.43,468.84 L465.89,469.24 L468.40,468.53 Z M512.06,530.24 L512.76,529.85 L512.08,529.70 L512.06,530.24 Z M525.81,625.88 L526.13,633.46 L526.19,625.74 L525.81,625.88 Z M526.70,647.32 L525.81,639.97 L525.05,635.91 L526.70,647.32 Z M524.60,654.36 L525.36,653.14 L526.70,647.32 L524.60,654.36 Z M506.91,700.22 L506.46,695.09 L505.38,691.27 L506.91,700.22 Z M528.93,703.75 L528.07,701.89 L527.85,702.29 L528.93,703.75 Z M556.17,773.50 L563.49,771.20 L564.18,771.52 L563.55,770.82 L556.17,773.50 Z M538.59,781.88 L539.88,782.69 L541.15,782.61 L538.59,781.88 Z M572.28,863.72 L571.76,862.47 L568.07,859.10 L572.28,863.72 Z M321.43,55.22 L318.51,46.72 L318.70,49.25 L321.43,55.22 Z M336.96,102.84 L336.65,97.56 L336.33,101.01 L336.96,102.84 Z M375.98,229.87 L370.76,226.88 L370.77,226.87 L370.61,226.83 L375.98,229.87 Z M363.63,227.42 L367.53,226.11 L366.24,225.81 L363.63,227.42 Z M338.11,248.86 L336.84,246.18 L337.54,248.78 L338.11,248.86 Z M347.40,254.91 L342.88,253.91 L348.22,255.84 L347.40,254.91 Z M350.33,256.05 L349.57,256.33 L352.81,257.51 L350.33,256.05 Z M348.91,266.90 L350.33,264.94 L352.81,257.51 L348.91,266.90 Z M381.26,393.80 L382.98,387.83 L380.87,393.98 L381.26,393.80 Z M373.75,401.07 L375.47,396.40 L374.01,399.70 L373.75,401.07 Z M361.98,400.77 L363.58,400.38 L361.53,399.93 L361.98,400.77 Z M354.98,439.05 L355.49,434.76 L354.66,430.02 L355.36,435.45 L354.98,439.05 Z M356.00,470.37 L355.55,470.93 L356.89,471.52 L356.00,470.37 Z M361.49,472.45 L360.96,471.06 L360.77,472.21 L361.49,472.45 Z M362.42,471.98 L361.91,472.60 L362.90,472.94 L362.42,471.98 Z M363.19,473.51 L362.95,473.03 L361.09,475.35 L363.19,473.51 Z M359.12,475.13 L360.13,475.80 L359.69,474.73 L359.12,475.13 Z M357.33,477.64 L357.27,473.89 L356.70,474.50 L357.33,477.64 Z M363.59,495.05 L360.26,494.18 L363.19,495.02 L363.59,495.05 Z M387.12,555.59 L384.57,551.38 L386.85,555.89 L387.12,555.59 Z M373.66,564.89 L374.64,562.33 L373.43,564.01 L373.66,564.89 Z M374.20,572.66 L373.19,572.54 L373.19,572.54 L374.20,572.66 Z M374.45,580.32 L374.45,581.32 L374.58,575.65 L374.20,572.66 L374.45,580.32 Z M364.27,581.77 L367.86,581.32 L367.15,580.27 L367.13,581.24 L364.27,581.77 Z M372.94,594.22 L372.93,593.95 L372.03,593.18 L372.94,594.22 Z M381.52,612.58 L379.26,615.15 L379.99,615.00 L381.52,612.58 Z M384.57,609.11 L383.23,610.63 L387.76,607.65 L384.57,609.11 Z M416.90,610.97 L416.90,610.97 L417.48,612.02 L416.90,610.97 Z M436.26,647.78 L435.89,647.00 L438.36,657.27 L436.26,647.78 Z M440.39,658.95 L447.01,663.09 L438.36,657.27 L440.39,658.95 Z M455.54,720.67 L452.61,708.49 L453.76,716.07 L455.54,720.67 Z M459.23,728.02 L457.90,725.80 L459.24,728.71 L459.23,728.02 Z M454.65,757.80 L455.67,754.89 L451.40,762.24 L454.65,757.80 Z M449.62,772.43 L448.09,768.83 L449.15,772.91 L449.62,772.43 Z M447.14,774.95 L447.98,774.10 L444.21,775.80 L447.14,774.95 Z M434.28,813.62 L435.75,806.88 L433.31,815.56 L434.28,813.62 Z M430.97,820.21 L431.62,818.92 L426.39,825.34 L430.97,820.21 Z M418.88,836.06 L419.77,834.30 L414.68,839.27 L418.88,836.06 Z M403.67,839.65 L406.85,840.88 L405.26,839.88 L414.68,839.27 L403.67,839.65 Z M423.78,899.76 L423.65,897.54 L423.01,900.35 L423.78,899.76 Z M419.01,903.44 L421.83,901.26 L421.23,901.14 L419.01,903.44 Z M418.75,903.31 L419.77,905.81 L419.01,903.44 L418.75,903.31 Z M223.99,441.73 L228.51,444.87 L229.93,445.82 L229.33,444.72 L223.99,441.73 Z M243.15,422.44 L249.00,419.99 L249.28,419.32 L243.15,422.44 Z M260.45,409.01 L263.22,409.27 L261.86,408.88 L260.45,409.01 Z M304.76,433.46 L300.11,431.78 L299.97,431.73 L300.88,432.85 L304.76,433.46 Z M315.90,431.01 L321.43,424.96 L321.31,424.30 L315.90,431.01 Z M321.51,424.04 L322.92,424.41 L321.82,423.66 L321.51,424.04 Z M324.69,425.61 L327.67,429.02 L326.78,427.03 L324.69,425.61 Z M357.78,625.65 L359.81,630.62 L364.14,640.58 L357.78,625.65 Z M369.49,665.00 L370.13,670.44 L371.02,673.12 L369.49,665.00 Z M357.14,682.46 L357.27,678.86 L356.25,689.05 L357.14,682.46 Z M383.68,776.56 L381.14,777.10 L381.02,777.54 L383.68,776.56 Z M379.63,782.57 L379.04,784.76 L380.12,783.30 L379.63,782.57 Z M378.53,747.93 L377.57,748.92 L383.55,747.54 L378.53,747.93 Z M326.53,588.13 L324.49,587.06 L316.66,584.84 L326.53,588.13 Z M327.12,590.70 L328.56,592.11 L327.12,590.70 L327.12,590.70 Z M348.23,595.10 L349.57,597.70 L348.61,595.63 L350.01,594.41 L348.23,595.10 Z M361.09,590.12 L362.59,589.90 L351.09,587.29 L361.09,590.12 Z M353.13,780.16 L356.38,777.63 L362.81,771.20 L353.13,780.16 Z M325.00,616.54 L325.76,616.46 L328.05,613.01 L325.00,616.54 Z M344.28,632.92 L345.78,634.84 L345.43,633.38 L344.28,632.92 Z M346.08,635.22 L346.32,635.53 L350.46,635.22 L346.08,635.22 Z M332.70,653.37 L328.24,650.46 L325.70,649.31 L332.70,653.37 Z M296.45,526.09 L295.60,525.39 L295.78,525.88 L296.45,526.09 Z M304.16,528.99 L300.81,529.40 L302.59,529.56 L304.16,528.99 Z M311.89,522.97 L306.49,528.16 L307.30,527.87 L311.89,522.97 Z M352.15,502.94 L349.44,501.84 L350.78,503.06 L352.15,502.94 Z M339.70,568.99 L344.09,568.68 L336.90,568.22 L339.70,568.99 Z M324.92,532.49 L324.30,524.81 L324.36,529.94 L324.92,532.49 Z M288.85,485.15 L294.32,474.43 L296.67,468.68 L288.85,485.15 Z M316.51,490.73 L316.50,491.25 L316.72,490.76 L316.51,490.73 Z M333.27,460.11 L351.73,461.41 L353.43,460.73 L333.27,460.11 Z M316.48,491.75 L316.47,492.27 L315.58,493.34 L318.63,491.96 L316.48,491.75 Z M188.54,142.35 L190.59,141.96 L186.87,141.44 L188.54,142.35 Z M193.21,142.33 L193.61,142.58 L193.32,142.03 L193.37,142.35 L193.21,142.33 Z M187.90,153.45 L188.20,154.26 L188.34,151.39 L187.90,153.45 Z M188.92,156.21 L192.48,158.66 L188.68,155.57 L188.92,156.21 Z M193.37,162.34 L194.92,163.08 L194.84,162.72 L200.12,161.88 L193.37,162.34 Z M193.12,164.10 L195.09,163.79 L194.99,163.37 L193.12,164.10 Z M191.91,167.01 L192.48,167.33 L192.07,166.62 L191.91,167.01 Z M194.20,168.31 L196.43,165.63 L193.53,167.93 L194.20,168.31 Z M228.95,221.45 L227.55,221.91 L228.83,221.91 L230.79,219.62 L228.95,221.45 Z M339.57,175.97 L338.87,173.82 L339.07,179.21 L339.57,175.97 Z M118.67,282.70 L114.96,280.63 L116.23,282.16 L118.67,282.70 Z M130.19,284.49 L121.86,283.41 L127.31,284.61 L130.19,284.49 Z M147.23,283.77 L157.22,283.47 L142.45,283.39 L137.90,284.17 L147.23,283.77 Z M263.09,271.05 L249.64,272.90 L261.60,271.45 L263.09,271.05 Z M270.71,268.77 L269.11,269.43 L272.17,268.61 L270.71,268.77 Z M283.82,289.67 L284.33,290.43 L284.79,290.14 L284.18,289.36 L283.82,289.67 Z M342.81,268.81 L336.01,269.53 L340.40,269.84 L342.81,268.81 Z M347.91,268.28 L345.92,268.49 L347.34,269.07 L347.91,268.28 Z M316.41,377.49 L312.45,386.76 L312.91,386.07 L316.41,377.49 Z M354.34,397.78 L354.47,398.78 L356.57,399.54 L354.34,397.78 Z M330.44,318.03 L330.09,318.00 L319.91,326.57 L330.44,318.03 Z M295.46,293.75 L294.96,296.25 L295.78,294.26 L295.46,293.75 Z M70.27,190.64 L70.69,191.53 L70.98,190.90 L70.27,190.64 Z M159.36,188.01 L159.19,187.21 L159.00,187.60 L159.36,188.01 Z M177.52,183.77 L181.39,185.28 L180.45,184.16 L177.52,183.77 Z M181.90,185.48 L182.43,185.69 L186.94,179.49 L181.90,185.48 Z M242.32,208.97 L246.40,207.05 L244.23,207.36 L242.32,208.97 Z M270.71,265.93 L268.45,264.98 L270.71,266.54 L270.71,265.93 Z M257.98,256.97 L258.06,257.76 L259.38,256.51 L257.98,256.97 Z M255.75,257.89 L257.28,258.51 L257.66,258.14 L255.75,257.89 Z M246.46,250.31 L244.55,249.01 L246.69,251.14 L246.46,250.31 Z M214.31,170.00 L213.49,169.53 L210.94,170.91 L214.31,170.00 Z M221.57,176.04 L217.62,171.91 L215.52,170.70 L221.57,176.04 Z M190.19,136.92 L191.24,138.09 L190.45,136.60 L190.19,136.92 Z M422.83,783.91 L418.37,786.67 L424.08,784.02 L422.83,783.91 Z M404.18,775.64 L409.59,803.04 L409.65,802.75 L404.18,775.64 Z M387.82,680.32 L398.04,679.45 L397.37,679.17 L387.82,680.32 Z M400.99,683.07 L402.46,685.52 L403.80,686.21 L400.99,683.07 Z M441.60,702.29 L443.13,703.36 L445.35,703.08 L441.60,702.29 Z M399.02,667.38 L399.72,664.62 L396.22,671.74 L399.02,667.38 Z M403.48,286.53 L405.81,290.94 L405.39,288.98 L403.48,286.53 Z M407.61,291.28 L408.44,293.11 L407.49,294.11 L409.14,293.11 L410.99,294.87 L407.61,291.28 Z M436.76,471.32 L436.38,471.67 L435.24,478.18 L436.76,471.32 Z M421.86,494.33 L428.36,490.35 L425.12,491.50 L421.86,494.33 Z M421.11,517.30 L421.43,520.52 L422.00,522.05 L421.11,517.30 Z M437.21,534.38 L439.95,540.20 L436.45,532.08 L437.21,534.38 Z M438.60,527.59 L437.78,528.02 L436.45,532.08 L438.60,527.59 Z M452.42,556.12 L451.47,557.20 L452.72,555.96 L452.42,556.12 Z M444.91,558.96 L441.98,559.95 L451.47,557.20 L444.91,558.96 Z M441.48,596.17 L440.27,599.84 L440.30,600.79 L441.48,596.17 Z M391.13,535.60 L397.62,535.76 L400.10,537.37 L398.51,535.76 L391.13,535.60 Z M407.10,583.84 L402.27,583.31 L400.23,583.15 L407.10,583.84 Z M400.23,584.61 L403.54,591.19 L400.23,583.15 L400.23,584.61 Z M416.14,585.14 L410.41,586.83 L412.58,586.67 L416.14,585.14 Z M430.15,604.44 L438.48,604.36 L433.65,604.06 L430.15,604.44 Z M416.99,610.25 L419.58,606.66 L417.16,608.96 L416.99,610.25 Z M393.24,600.71 L393.10,600.84 L392.40,602.60 L393.24,600.71 Z M393.23,441.27 L394.18,440.85 L391.89,441.12 L386.48,441.35 L393.23,441.27 Z M416.02,459.27 L413.47,464.70 L411.75,469.76 L416.02,459.27 Z M364.72,472.67 L366.37,471.21 L364.49,472.60 L364.72,472.67 Z M388.14,474.20 L390.56,474.12 L387.09,473.76 L388.14,474.20 Z M404.94,375.42 L406.53,373.97 L409.26,368.52 L404.94,375.42 Z M414.03,360.91 L415.83,358.60 L415.44,358.66 L414.03,360.91 Z M400.08,413.29 L399.40,413.55 L398.00,421.14 L400.08,413.29 Z M404.25,412.39 L403.30,412.02 L401.87,412.58 L404.25,412.39 Z M408.82,412.02 L409.93,411.02 L405.64,412.28 L408.82,412.02 Z M383.49,398.85 L381.90,399.01 L386.93,400.16 L383.49,398.85 Z M396.09,397.25 L394.76,395.03 L397.75,402.91 L396.09,397.25 Z M421.87,354.83 L420.47,353.22 L418.49,352.52 L421.87,354.83 Z M414.68,234.77 L412.64,233.39 L412.58,233.74 L414.68,234.77 Z M401.19,169.30 L399.59,154.68 L400.79,173.35 L401.19,169.30 Z M407.04,115.48 L401.50,117.93 L407.04,116.17 L407.04,115.48 Z M465.73,739.66 L469.80,738.81 L463.75,739.12 L465.73,739.66 Z M494.49,742.18 L500.86,747.39 L494.13,741.18 L494.49,742.18 Z M428.68,920.05 L431.10,919.90 L427.09,919.67 L428.68,920.05 Z M457.64,769.06 L459.87,759.79 L457.83,767.30 L457.64,769.06 Z M469.67,649.77 L469.16,652.91 L471.00,647.68 L469.67,649.77 Z M471.96,646.17 L471.50,646.90 L473.43,646.63 L471.96,646.17 Z M478.39,654.13 L475.65,653.14 L480.75,655.74 L478.39,654.13 Z M503.55,641.63 L505.51,645.02 L504.68,642.65 L503.55,641.63 Z M501.45,640.03 L503.08,641.22 L501.69,639.97 L501.45,640.03 Z M498.50,641.42 L499.57,640.51 L496.28,641.34 L498.50,641.42 Z M487.49,637.06 L487.96,637.28 L486.54,634.38 L487.49,637.06 Z M502.45,614.62 L498.38,616.54 L504.91,614.51 L502.45,614.62 Z M513.02,608.11 L506.33,614.07 L506.78,613.93 L513.02,608.11 Z M474.83,543.57 L476.42,542.19 L474.29,543.94 L474.93,544.21 L474.83,543.57 Z M487.60,529.41 L487.75,531.47 L489.34,534.38 L492.20,542.57 L487.60,529.41 Z M494.43,612.48 L493.67,614.01 L491.82,620.06 L494.43,612.48 Z M489.05,525.04 L487.37,526.11 L487.43,527.07 L489.05,525.04 Z M443.89,517.23 L443.52,518.07 L458.72,515.01 L443.89,517.23 Z M477.88,119.99 L476.29,118.08 L478.02,120.77 L477.88,119.99 Z M483.16,122.83 L478.73,121.87 L478.90,122.14 L483.16,122.83 Z M499.23,149.40 L499.84,149.40 L499.20,145.11 L499.52,149.01 L499.23,149.40 Z M525.66,185.95 L525.61,183.25 L525.17,185.23 L525.66,185.95 Z M524.28,243.57 L525.05,247.71 L524.60,243.19 L520.72,242.35 L524.28,243.57 Z M524.43,289.39 L521.99,286.45 L522.88,288.37 L524.43,289.39 Z M529.95,293.50 L528.34,292.68 L531.99,296.26 L529.95,293.50 Z M537.58,303.83 L535.42,300.91 L535.68,302.15 L537.58,303.83 Z M523.77,342.73 L524.78,342.10 L524.78,342.10 L523.77,342.73 Z M528.42,377.57 L527.84,377.74 L528.74,379.87 L528.42,377.57 Z M540.26,401.23 L538.67,393.99 L538.92,397.55 L540.26,401.23 Z M561.20,382.39 L562.41,387.90 L562.72,388.28 L561.20,382.39 Z M568.71,388.67 L563.34,389.03 L563.43,389.13 L568.71,388.67 Z M604.22,395.26 L603.21,397.86 L602.93,402.59 L604.22,395.26 Z M640.95,552.76 L638.09,552.91 L641.50,553.61 L640.95,552.76 Z M643.90,552.44 L641.74,553.66 L642.54,553.83 L643.90,552.44 Z M639.87,573.96 L640.50,568.68 L639.76,572.18 L639.87,573.96 Z M614.93,581.84 L616.57,580.70 L615.36,581.24 L614.93,581.84 Z M614.79,587.90 L614.48,587.74 L614.62,588.51 L614.79,587.90 Z M606.34,638.61 L606.71,639.43 L607.41,636.60 L606.64,638.74 L606.34,638.61 Z M618.44,691.69 L618.42,691.04 L616.92,690.55 L616.89,691.04 L618.44,691.69 Z M656.29,844.02 L652.60,834.45 L654.12,839.73 L656.29,844.02 Z M665.01,849.69 L664.51,849.45 L664.54,850.29 L665.01,849.69 Z M665.59,856.81 L667.30,856.04 L665.52,856.12 L665.59,856.81 Z M664.51,857.29 L665.17,857.00 L664.69,856.73 L664.51,857.29 Z M660.47,859.10 L663.49,857.75 L661.51,857.80 L660.47,859.10 Z M527.53,394.26 L526.89,392.58 L526.13,389.74 L526.70,392.12 L527.53,394.26 Z M524.85,416.01 L525.36,418.07 L524.98,413.71 L523.20,419.22 L524.85,416.01 Z M524.12,435.35 L522.75,434.46 L524.54,436.45 L524.12,435.35 Z M527.27,455.05 L525.94,456.66 L529.12,454.52 L527.27,455.05 Z M519.51,454.60 L506.65,454.82 L517.47,454.98 L519.51,454.60 Z M487.56,390.58 L489.10,391.10 L488.32,390.20 L487.56,390.58 Z M491.88,392.04 L492.24,391.42 L490.93,391.72 L491.88,392.04 Z M514.29,379.25 L521.23,377.64 L519.83,382.32 L521.80,377.11 L514.29,379.25 Z M491.12,412.18 L479.73,413.48 L484.50,413.48 L491.12,412.18 Z M491.67,411.32 L491.67,411.32 L493.03,413.17 L491.67,411.32 Z M513.43,411.44 L508.37,412.48 L513.72,411.49 L513.43,411.44 Z M510.09,422.77 L512.57,416.54 L513.72,411.49 L510.09,422.77 Z M508.05,431.17 L507.69,430.22 L507.01,432.33 L508.05,431.17 Z M501.43,431.40 L506.33,434.92 L506.08,433.39 L506.18,433.27 L501.43,431.40 Z M512.83,434.23 L510.98,435.61 L513.02,434.63 L512.83,434.23 Z M480.43,442.88 L474.64,448.09 L470.69,453.75 L473.30,450.15 L480.43,442.88 Z M488.58,453.75 L488.64,453.91 L489.75,454.25 L488.58,453.75 Z M490.99,454.64 L500.48,457.58 L494.62,454.98 L490.99,454.64 Z M489.72,440.66 L488.58,440.05 L488.29,440.15 L489.72,440.66 Z M492.20,410.46 L496.40,405.75 L494.37,407.05 L492.20,410.46 Z M491.95,395.94 L491.51,395.77 L490.99,396.86 L497.04,391.58 L491.95,395.94 Z M495.95,149.40 L492.20,148.32 L493.16,149.40 L495.95,149.40 Z M520.44,341.86 L518.97,342.52 L518.94,342.73 L520.27,342.50 L520.44,341.86 Z M520.84,340.28 L519.13,337.06 L520.58,341.32 L520.84,340.28 Z M526.38,698.23 L526.81,694.81 L526.32,695.40 L526.38,698.23 Z M539.67,700.48 L539.04,699.38 L539.43,702.75 L539.37,700.53 L539.67,700.48 Z M539.82,700.46 L540.38,700.38 L539.37,697.62 L539.82,700.46 Z M569.85,691.11 L571.83,694.87 L572.43,694.57 L569.85,691.11 Z M572.82,694.38 L573.55,694.02 L574.25,690.19 L572.82,694.38 Z M596.65,678.40 L596.39,680.99 L597.54,680.01 L596.78,680.09 L596.65,678.40 Z M609.19,795.63 L615.55,794.02 L618.15,792.69 L609.19,795.63 Z M569.07,778.83 L569.66,779.70 L572.27,779.86 L569.07,778.83 Z M564.19,733.07 L563.62,734.68 L566.74,726.33 L564.19,733.07 Z M578.38,595.33 L576.35,595.40 L572.65,596.55 L578.38,595.33 Z M576.47,584.30 L575.84,582.77 L577.56,591.50 L576.47,584.30 Z M583.22,567.53 L575.46,555.05 L576.54,557.81 L583.22,567.53 Z M591.05,547.09 L591.16,546.85 L590.55,546.50 L591.05,547.09 Z M592.00,548.70 L592.13,547.40 L591.55,547.07 L592.00,548.70 Z M593.40,552.76 L594.42,551.30 L594.53,551.24 L593.79,551.15 L593.40,552.76 Z M605.75,636.83 L605.06,635.72 L605.71,637.18 L605.75,636.83 Z M530.16,611.66 L531.86,614.09 L529.76,610.56 L530.16,611.66 Z M560.75,582.54 L561.20,579.40 L560.56,579.63 L560.75,582.54 Z M592.13,604.59 L585.26,607.19 L599.77,602.29 L592.13,604.59 Z M569.35,628.33 L567.88,622.13 L568.07,624.35 L569.35,628.33 Z M569.85,633.92 L572.77,636.01 L567.88,631.08 L569.85,633.92 Z M543.06,530.86 L541.98,528.33 L542.21,528.08 L541.55,527.58 L543.06,530.86 Z M543.19,527.03 L543.89,518.45 L545.09,502.83 L542.84,527.40 L543.19,527.03 Z M560.37,488.93 L559.93,489.13 L560.25,489.99 L560.37,488.93 Z M566.23,480.86 L565.35,486.24 L565.97,485.99 L566.23,480.86 Z M572.53,466.00 L583.16,462.10 L592.19,447.32 L583.86,460.87 L582.46,462.33 L572.53,466.00 Z M563.65,553.64 L563.23,554.29 L564.83,557.27 L563.65,553.64 Z M543.06,545.10 L547.63,548.44 L546.05,546.86 L543.06,545.10 Z M589.20,539.13 L589.25,539.56 L589.44,539.39 L589.20,539.13 Z M544.62,475.04 L544.59,474.58 L542.17,472.82 L544.62,475.04 Z M575.35,410.20 L575.01,409.73 L560.88,400.84 L575.35,410.20 Z M583.03,443.57 L584.24,446.79 L582.34,436.82 L583.03,443.57 Z M600.97,287.49 L600.78,291.26 L601.85,288.43 L600.97,287.49 Z M602.03,288.61 L603.40,294.42 L602.44,289.06 L602.03,288.61 Z M667.17,290.05 L668.70,290.59 L672.26,289.29 L667.17,290.05 Z M649.86,322.52 L652.15,327.18 L651.90,325.66 L649.86,322.52 Z M653.81,337.14 L653.62,344.11 L653.74,354.52 L653.81,337.14 Z M625.67,380.63 L624.87,379.99 L624.85,380.17 L618.90,382.29 L625.67,380.63 Z M614.20,383.96 L613.45,384.23 L603.59,393.11 L614.20,383.96 Z M552.92,344.49 L552.61,348.47 L552.86,359.88 L552.92,344.49 Z M585.64,320.98 L580.61,324.74 L587.57,320.62 L585.64,320.98 Z M586.59,361.98 L587.36,361.18 L588.50,355.90 L586.59,361.98 Z M591.94,385.15 L594.74,388.90 L592.13,384.45 L591.94,385.15 Z M547.94,223.83 L548.82,224.39 L548.53,223.59 L547.94,223.83 Z M547.26,285.61 L550.78,288.35 L546.18,283.70 L547.26,285.61 Z M711.36,576.03 L710.20,577.10 L711.41,576.87 L711.36,576.03 Z M755.73,556.89 L756.28,556.44 L755.77,556.35 L755.73,556.89 Z M763.92,557.66 L757.32,556.60 L758.25,557.27 L764.28,557.78 L763.92,557.66 Z M817.29,559.61 L817.45,559.26 L813.82,553.60 L817.29,559.61 Z M831.20,513.17 L833.23,510.49 L830.92,513.32 L831.20,513.17 Z M846.51,527.51 L846.51,527.50 L830.05,505.90 L833.23,510.49 L846.51,527.51 Z M825.59,505.24 L826.04,505.67 L830.05,505.90 L825.59,505.24 Z M632.17,792.87 L628.73,790.50 L624.40,789.20 L632.17,792.87 Z M680.15,651.37 L675.07,648.69 L677.42,650.53 L680.15,651.37 Z M689.20,653.44 L685.52,653.01 L691.68,654.90 L689.20,653.44 Z M695.11,652.75 L695.62,652.25 L691.68,654.90 L695.11,652.75 Z M696.55,650.48 L696.08,651.79 L696.64,651.22 L696.55,650.48 Z M697.09,649.00 L696.96,649.34 L697.30,649.45 L697.09,649.00 Z M724.55,662.67 L716.31,658.80 L723.95,662.86 L724.55,662.67 Z M777.91,631.55 L777.28,631.31 L777.25,631.18 L777.24,631.80 L777.91,631.55 Z M776.08,625.95 L776.58,629.25 L775.72,629.15 L776.98,629.97 L776.08,625.95 Z M789.00,618.68 L785.24,617.84 L789.59,619.39 L789.00,618.68 Z M805.16,616.77 L801.92,614.78 L803.70,616.61 L805.16,616.77 Z M825.34,624.65 L825.62,624.89 L825.61,624.58 L821.46,625.26 L825.34,624.65 Z M779.60,632.19 L780.90,633.65 L780.72,632.62 L779.60,632.19 Z M794.41,687.90 L794.69,686.63 L790.14,691.57 L794.41,687.90 Z M685.06,695.71 L685.53,694.65 L683.15,696.40 L685.06,695.71 Z M704.14,591.23 L704.98,591.04 L707.27,589.74 L707.55,588.89 L704.14,591.23 Z M770.01,559.79 L775.18,562.40 L778.37,562.71 L770.01,559.79 Z M788.81,614.50 L789.34,616.61 L789.51,615.62 L788.81,614.50 Z M696.77,592.06 L698.49,592.49 L699.94,592.17 L696.77,592.06 Z M737.76,593.80 L735.09,593.49 L734.26,594.19 L737.76,593.80 Z M771.30,485.99 L769.46,486.22 L762.39,490.51 L771.30,485.99 Z M825.42,505.09 L828.27,501.07 L825.42,505.09 L825.42,505.09 Z M840.72,494.47 L840.11,494.41 L837.62,496.02 L840.72,494.47 Z M852.96,497.55 L848.44,496.78 L846.53,497.01 L852.96,497.55 Z M877.81,506.36 L874.92,505.74 L868.11,506.36 L877.81,506.36 Z M701.73,450.69 L702.01,450.09 L699.00,451.53 L701.73,450.69 Z M707.78,510.14 L707.97,509.72 L703.13,502.68 L707.78,510.14 Z M784.99,539.36 L783.08,530.32 L784.84,539.54 L784.99,539.36 Z M694.76,520.39 L692.76,519.07 L694.76,520.39 L694.76,520.39 Z M890.52,528.41 L887.27,528.33 L892.62,529.10 L890.52,528.41 Z M930.10,513.25 L928.58,515.85 L930.47,513.76 L930.10,513.25 Z M930.17,522.05 L931.89,515.77 L929.91,521.13 L930.17,522.05 Z M735.47,440.97 L731.09,439.97 L745.27,444.56 L735.47,440.97 Z M780.15,460.11 L778.11,457.12 L785.43,468.53 L780.15,460.11 Z M839.72,442.88 L837.43,446.66 L837.69,446.56 L839.72,442.88 Z M721.40,499.92 L721.91,503.14 L723.69,506.28 L721.40,499.92 Z M657.07,436.27 L658.33,429.71 L656.67,435.84 L657.07,436.27 Z M653.81,443.95 L655.02,442.50 L650.05,445.94 L652.22,445.10 L652.15,448.55 L652.60,444.18 L653.81,443.95 Z M664.75,378.95 L666.28,382.32 L664.62,377.90 L664.75,378.95 Z" /></g></svg>