<svg xmlns="http://www.w3.org/2000/svg" viewBox="0 0 1000 1000" width="1000" height="1000"><g fill="#cccccc" stroke="#222" stroke-width="2"><path d="M218.81,951.92 L220.81,950.93 L220.92,948.21 L219.02,945.32 L216.38,944.69 L216.59,939.26 L219.76,938.09 L217.86,937.54 L219.44,934.56 L221.77,933.56 L225.25,936.64 L234.02,928.41 L228.84,922.53 L229.48,917.83 L232.96,915.84 L232.86,913.31 L238.25,910.69 L238.78,903.90 L242.79,906.53 L241.21,901.10 L244.16,896.67 L246.81,894.14 L250.61,893.41 L252.30,894.59 L251.14,880.93 L243.53,875.51 L237.19,876.68 L230.01,873.79 L230.11,866.10 L224.41,858.87 L225.36,853.81 L218.49,847.48 L208.98,833.01 L208.66,827.31 L203.59,823.42 L197.47,822.79 L197.04,820.53 L191.65,818.90 L190.81,815.28 L188.71,814.06 L185.95,814.47 L181.09,813.20 L177.18,809.13 L174.01,808.77 L178.24,808.23 L175.38,806.15 L176.02,804.88 L174.22,804.70 L176.12,803.53 L173.17,801.99 L176.55,801.54 L175.17,799.91 L177.29,799.55 L178.34,797.02 L173.59,795.48 L174.86,791.05 L173.06,789.96 L174.33,788.33 L172.32,788.06 L172.95,785.98 L169.36,784.54 L172.32,782.55 L166.19,778.21 L164.61,773.23 L152.04,758.67 L143.90,753.97 L144.11,750.99 L135.76,748.18 L134.18,743.93 L134.71,746.83 L126.78,748.64 L124.25,747.64 L124.78,745.83 L122.35,744.30 L119.71,746.19 L115.06,744.48 L111.89,745.11 L114.00,739.50 L108.61,736.70 L109.46,734.26 L106.50,736.79 L108.61,738.87 L107.66,739.59 L101.11,737.33 L97.10,742.22 L95.51,737.69 L93.72,737.97 L92.76,741.76 L87.27,738.15 L84.84,741.49 L83.89,738.69 L78.18,737.88 L77.23,735.34 L75.65,737.06 L67.83,734.80 L64.98,730.19 L61.17,729.28 L57.69,730.37 L60.75,722.59 L57.58,718.34 L55.26,723.32 L53.88,723.04 L54.10,720.78 L51.45,720.33 L48.07,728.65 L44.90,727.84 L46.70,727.02 L45.86,724.85 L47.55,721.60 L45.33,719.88 L48.71,713.55 L45.75,705.50 L47.44,698.45 L43.64,675.84 L47.55,672.40 L46.17,664.45 L51.03,659.47 L54.94,650.34 L42.47,649.25 L40.78,642.56 L35.50,639.94 L43.74,631.62 L38.14,590.11 L19.23,486.57 L19.65,483.95 L21.87,482.68 L22.82,484.85 L24.72,483.32 L29.27,484.40 L33.92,482.95 L33.18,485.67 L35.18,486.75 L35.82,484.31 L37.93,486.66 L40.68,484.76 L44.16,486.48 L50.50,483.50 L51.77,481.33 L55.68,480.69 L54.94,479.34 L57.79,479.07 L58.22,476.35 L65.40,474.72 L66.14,472.10 L71.21,470.84 L73.01,469.03 L75.02,469.84 L75.86,468.30 L78.18,469.48 L85.05,459.80 L91.18,459.80 L98.47,462.61 L103.22,461.52 L105.87,458.54 L111.25,456.82 L121.08,456.82 L127.95,452.48 L131.22,455.37 L131.64,462.34 L136.50,463.06 L146.54,458.90 L158.16,458.54 L165.35,450.94 L167.25,451.85 L170.52,458.27 L176.76,463.15 L184.58,464.96 L188.27,470.84 L197.68,477.35 L201.16,481.51 L200.53,485.94 L206.23,487.02 L204.76,488.65 L206.76,493.17 L212.15,495.98 L209.51,501.49 L211.09,504.20 L210.25,508.73 L222.61,517.59 L222.51,521.93 L240.25,531.06 L241.63,535.76 L242.58,536.58 L243.42,533.59 L246.91,530.43 L259.17,531.42 L260.33,529.16 L262.55,520.39 L268.36,514.24 L264.34,508.36 L265.51,505.29 L270.47,501.31 L270.26,493.90 L273.32,490.55 L280.40,489.37 L274.49,490.19 L284.10,487.84 L290.76,484.22 L294.35,481.05 L294.98,474.45 L297.62,471.92 L341.36,456.46 L346.33,449.31 L352.25,446.15 L358.06,446.06 L359.01,440.36 L364.92,441.54 L366.83,440.36 L368.52,435.57 L375.91,436.47 L379.31,428.47 L379.50,426.76 L376.86,417.39 L384.68,413.87 L386.90,410.79 L386.16,409.34 L381.62,405.00 L375.28,392.34 L377.92,388.18 L375.38,380.68 L376.44,376.97 L382.25,375.16 L382.57,372.99 L384.15,372.54 L386.90,367.11 L387.43,361.42 L393.34,354.72 L395.67,348.76 L398.42,347.40 L400.95,342.97 L398.20,341.25 L398.63,338.09 L402.22,334.11 L398.52,328.41 L403.28,323.16 L409.61,320.99 L410.46,314.12 L412.89,311.23 L413.84,305.89 L406.87,302.28 L402.85,298.21 L403.70,295.40 L400.74,294.59 L402.54,290.52 L395.46,286.63 L395.67,281.57 L398.31,276.96 L405.71,274.42 L410.88,270.26 L411.52,268.45 L409.51,265.47 L409.93,263.48 L412.26,262.58 L411.94,260.04 L422.61,251.45 L424.09,248.56 L419.44,243.95 L419.55,241.60 L416.69,240.15 L413.31,228.30 L414.37,224.60 L416.90,223.60 L415.64,218.90 L420.39,213.02 L418.81,211.67 L419.86,208.05 L414.90,201.99 L418.91,199.55 L416.38,198.46 L415.21,193.85 L411.62,193.04 L412.68,190.14 L407.18,187.97 L405.60,185.53 L407.61,182.82 L404.86,179.47 L405.60,174.95 L402.64,172.69 L402.75,167.35 L405.60,167.17 L407.61,165.27 L402.64,160.21 L404.97,155.24 L404.12,150.17 L410.04,147.37 L410.57,141.40 L416.27,139.14 L414.16,136.88 L411.83,137.42 L412.57,134.80 L408.66,131.18 L407.29,127.38 L404.12,127.29 L403.17,125.12 L401.27,118.88 L395.67,116.53 L395.14,114.27 L392.82,113.55 L392.08,109.12 L392.29,105.23 L394.30,104.78 L400.95,95.28 L400.74,91.48 L396.09,85.97 L397.68,78.19 L392.92,78.46 L392.29,75.57 L391.65,65.08 L392.71,57.21 L395.25,53.77 L391.97,46.72 L392.71,42.56 L395.77,41.66 L393.45,34.60 L409.61,32.25 L412.78,34.24 L424.62,35.15 L433.70,29.36 L433.81,28.09 L435.71,28.00 L437.51,31.98 L443.63,34.97 L448.92,31.26 L457.69,30.62 L471.63,27.01 L473.01,29.45 L475.22,29.45 L475.65,31.89 L480.61,34.42 L499.74,31.71 L504.38,33.97 L508.93,33.97 L515.79,37.50 L518.12,35.78 L519.81,39.22 L520.97,37.59 L526.68,40.21 L529.11,39.49 L565.35,43.47 L574.43,46.72 L586.37,44.46 L591.02,47.99 L614.47,50.70 L617.54,49.34 L625.57,50.79 L641.73,47.81 L640.57,54.14 L642.05,48.71 L649.66,48.44 L651.98,45.82 L655.47,44.91 L653.46,44.01 L654.09,42.56 L658.64,43.92 L658.21,39.67 L665.72,39.76 L667.41,34.42 L670.05,33.52 L669.62,31.26 L671.84,28.64 L676.07,29.27 L683.46,27.01 L693.61,19.95 L697.09,19.23 L705.33,24.39 L713.26,32.25 L712.73,35.60 L707.34,40.66 L702.80,48.80 L706.81,56.49 L705.65,64.08 L710.41,69.69 L717.70,73.94 L720.34,72.95 L740.41,78.01 L744.64,77.74 L754.67,81.18 L759.85,80.36 L761.75,81.81 L763.13,86.51 L760.17,92.39 L750.98,98.72 L748.02,103.87 L747.28,111.02 L753.19,114.45 L765.03,127.57 L756.89,143.39 L760.06,148.18 L766.51,152.61 L767.56,158.04 L765.45,160.39 L758.16,162.83 L756.47,165.46 L759.32,169.07 L765.03,169.16 L770.94,167.72 L773.90,170.25 L772.11,179.38 L774.75,180.74 L776.12,185.71 L773.48,192.58 L774.54,194.30 L780.77,194.75 L782.67,196.29 L782.25,210.76 L788.27,213.11 L789.01,214.83 L786.37,226.31 L782.78,228.12 L768.73,230.20 L760.59,233.46 L754.57,239.07 L745.17,242.77 L743.79,247.38 L747.28,249.92 L747.70,253.53 L738.83,255.70 L744.11,254.89 L737.98,259.59 L738.83,266.01 L746.64,266.83 L758.27,276.14 L763.34,278.58 L766.08,278.13 L767.35,275.96 L781.09,275.87 L786.90,279.13 L797.25,276.86 L801.27,281.21 L803.06,283.19 L809.08,282.74 L830.00,293.96 L835.39,299.83 L836.13,304.90 L848.81,308.42 L847.33,312.13 L848.81,315.03 L855.04,313.94 L855.15,318.28 L859.38,322.98 L852.51,328.41 L852.40,331.76 L848.28,336.28 L849.34,338.00 L849.34,341.07 L843.63,342.52 L841.73,350.20 L833.38,352.37 L821.55,359.16 L809.30,354.27 L799.58,355.45 L798.41,358.70 L790.07,364.13 L783.45,363.61 L785.95,368.83 L782.46,370.64 L780.98,368.29 L776.12,366.66 L774.64,368.74 L777.71,372.99 L777.07,376.61 L774.96,377.33 L771.26,374.98 L769.47,375.98 L770.52,378.60 L778.66,379.50 L780.66,381.31 L779.71,382.85 L767.56,386.83 L765.34,392.34 L769.89,399.67 L779.71,401.84 L774.33,404.19 L773.16,406.90 L773.69,409.16 L781.30,408.98 L782.25,413.14 L784.78,414.23 L788.69,422.09 L786.69,426.44 L787.11,430.41 L784.78,433.22 L788.48,438.19 L787.74,443.44 L790.28,446.51 L796.51,449.40 L799.89,452.21 L798.63,458.36 L804.44,460.53 L807.92,465.77 L813.31,467.49 L827.26,472.55 L830.64,477.44 L829.16,482.05 L830.11,485.21 L836.87,485.12 L845.32,480.69 L855.15,478.25 L857.58,478.88 L862.33,486.03 L873.96,479.61 L876.91,483.95 L878.29,490.91 L885.37,492.99 L900.69,492.54 L904.28,496.34 L904.28,503.48 L911.78,513.07 L914.21,513.25 L916.53,510.44 L921.50,514.69 L928.79,513.34 L936.61,526.63 L946.85,533.87 L948.44,537.94 L945.90,541.19 L948.44,549.60 L952.77,555.39 L957.63,557.74 L959.53,563.35 L969.78,568.05 L977.81,578.36 L977.07,587.04 L974.64,591.38 L978.34,595.54 L977.18,603.14 L972.32,604.49 L974.85,608.02 L980.77,608.20 L977.60,611.82 L976.33,616.16 L978.44,621.13 L975.80,621.31 L975.06,618.87 L972.85,618.24 L970.94,619.86 L973.16,621.67 L969.46,622.94 L966.61,619.41 L966.72,625.38 L962.70,627.82 L965.03,630.63 L959.11,627.28 L960.48,625.20 L958.16,623.84 L954.46,628.46 L953.41,632.98 L939.35,628.64 L939.25,632.25 L940.73,633.70 L932.17,634.24 L928.26,633.25 L927.63,629.00 L924.67,630.90 L921.71,629.00 L917.27,630.17 L916.43,628.91 L918.22,629.00 L918.43,626.56 L916.11,623.84 L914.42,624.11 L915.37,626.29 L911.67,628.46 L903.22,628.46 L898.99,627.55 L899.31,625.47 L894.03,622.94 L890.44,628.36 L883.78,630.54 L880.93,629.99 L877.44,626.10 L876.81,632.43 L879.03,636.87 L877.12,639.04 L873.11,639.94 L872.16,642.02 L869.62,641.84 L865.82,646.27 L865.40,649.07 L862.86,647.08 L863.07,642.65 L859.59,642.56 L855.25,638.04 L856.42,642.83 L846.72,643.77 L848.81,647.36 L848.39,649.98 L845.53,652.15 L847.12,654.68 L841.63,653.96 L839.83,655.77 L842.26,656.67 L838.77,659.47 L841.10,662.19 L838.67,665.44 L841.20,670.41 L836.66,676.38 L838.98,678.10 L839.41,681.90 L837.82,682.17 L836.98,679.91 L832.86,682.62 L827.79,681.72 L830.85,686.06 L825.67,686.24 L824.40,688.68 L818.17,692.93 L818.91,695.01 L819.86,698.00 L824.30,696.64 L830.00,700.62 L829.26,703.51 L831.27,703.24 L831.59,704.78 L833.07,703.33 L835.39,706.04 L838.03,703.78 L842.47,703.33 L847.75,704.24 L847.33,706.59 L848.60,707.58 L848.92,706.41 L852.09,705.59 L852.61,707.58 L854.94,709.12 L856.52,707.76 L857.37,709.39 L864.02,706.32 L864.66,708.03 L865.71,706.04 L867.30,706.04 L867.51,707.85 L869.62,706.59 L870.36,709.48 L868.04,709.39 L867.62,712.01 L870.57,713.28 L871.42,716.81 L870.57,717.89 L867.30,715.90 L866.67,717.35 L869.94,721.69 L867.30,723.23 L870.36,725.40 L867.09,724.85 L864.55,731.55 L866.45,733.90 L868.67,732.63 L875.54,733.53 L877.12,735.25 L875.54,736.07 L880.08,737.78 L880.82,741.22 L883.68,741.13 L883.89,742.49 L881.46,742.94 L883.36,746.65 L881.98,750.54 L882.94,753.25 L886.95,755.42 L885.05,758.49 L885.68,759.58 L887.58,758.85 L886.84,762.47 L891.07,762.92 L891.70,765.37 L894.87,767.54 L900.16,767.90 L900.79,772.15 L906.18,774.95 L907.34,786.44 L910.30,787.70 L908.61,790.60 L909.88,791.59 L909.56,795.12 L907.55,795.21 L909.77,797.56 L905.97,798.82 L911.67,799.46 L912.41,800.18 L910.30,801.81 L911.78,802.62 L914.00,801.09 L913.79,803.53 L919.17,801.54 L921.39,805.43 L922.03,803.71 L924.14,804.88 L926.57,800.09 L930.58,800.54 L929.95,802.62 L933.75,805.70 L935.23,805.25 L935.02,808.95 L936.92,808.95 L937.66,812.21 L940.52,813.02 L939.14,815.19 L945.48,817.45 L943.37,821.97 L946.12,823.24 L945.48,825.05 L947.38,827.13 L946.96,834.09 L950.66,832.37 L952.88,833.46 L952.24,835.00 L955.41,833.10 L959.11,836.53 L969.57,838.16 L972.95,840.06 L975.59,844.76 L959.32,871.80 L947.17,880.12 L946.22,883.38 L935.76,894.50 L930.69,903.18 L928.15,904.08 L925.83,901.73 L920.23,899.83 L881.46,918.92 L881.14,922.26 L882.94,925.43 L879.03,923.44 L875.96,929.31 L865.29,928.23 L853.88,935.01 L842.68,934.56 L835.50,943.78 L829.90,943.15 L829.58,938.18 L824.93,936.19 L821.45,931.49 L822.19,928.68 L813.42,925.15 L814.79,920.63 L812.57,917.65 L804.01,919.64 L804.22,914.76 L802.53,913.49 L800.21,914.67 L799.47,917.92 L795.35,917.83 L793.13,919.28 L794.50,922.08 L792.92,924.25 L786.37,926.24 L785.84,922.53 L782.57,924.34 L778.87,929.04 L777.18,934.29 L778.66,936.55 L777.28,937.63 L772.85,936.91 L771.58,933.93 L759.11,931.85 L750.76,926.87 L748.97,922.80 L739.57,915.66 L742.10,911.23 L750.76,911.68 L749.18,909.78 L741.78,907.61 L741.89,902.73 L744.21,900.56 L742.52,894.86 L750.76,892.42 L753.41,889.07 L749.71,873.97 L745.38,870.72 L735.23,868.00 L729.11,869.45 L720.87,867.37 L716.96,869.27 L703.43,867.46 L697.94,871.35 L690.65,872.34 L687.48,871.17 L685.47,865.20 L679.03,864.75 L674.48,867.46 L670.89,877.68 L668.25,877.77 L663.71,873.97 L660.33,873.52 L655.68,879.40 L646.49,881.03 L639.83,879.94 L633.39,880.84 L627.47,886.54 L622.50,887.54 L618.38,890.43 L615.95,889.71 L612.78,885.55 L606.02,883.29 L604.97,880.48 L598.84,877.68 L596.72,874.97 L589.43,873.43 L577.39,867.10 L572.64,871.98 L569.47,871.26 L568.41,866.19 L574.75,863.39 L575.49,861.13 L569.15,855.61 L569.25,850.01 L565.56,846.03 L567.67,843.95 L573.69,844.22 L576.54,841.24 L574.64,835.09 L570.52,830.38 L565.66,829.93 L550.55,823.96 L547.07,825.14 L542.84,829.93 L529.64,826.13 L524.88,829.84 L512.94,832.01 L512.10,834.45 L514.74,837.26 L515.48,842.05 L510.93,848.29 L517.27,853.81 L511.89,857.15 L504.60,855.16 L501.00,856.07 L498.05,860.77 L498.89,864.75 L497.20,866.56 L492.87,865.65 L487.90,866.92 L477.44,875.24 L470.47,874.15 L466.14,876.05 L463.18,879.58 L462.76,886.45 L456.74,892.42 L455.78,899.29 L450.50,900.65 L446.17,898.66 L444.37,900.38 L440.89,900.29 L427.05,911.23 L423.14,910.60 L419.23,913.58 L412.26,915.39 L404.86,923.53 L394.82,929.77 L385.42,941.88 L380.35,943.69 L375.81,943.96 L371.16,938.81 L363.02,935.74 L346.96,934.92 L340.84,936.46 L338.19,935.83 L339.67,932.30 L337.03,931.03 L331.96,935.92 L323.09,936.82 L311.25,941.07 L306.29,945.95 L305.97,954.18 L301.64,960.78 L290.44,969.92 L281.46,972.99 L265.19,969.01 L258.74,965.40 L258.11,968.83 L252.83,970.73 L250.19,974.62 L241.95,980.77 L238.35,979.96 L235.39,976.70 L226.63,975.07 L221.13,965.67 L214.58,964.85 L219.44,961.15 L219.76,958.89 L221.55,958.70 L221.13,955.63 L223.14,955.36 L218.81,951.92 Z M436.55,356.33 L433.39,358.16 L430.01,362.95 L436.55,356.33 Z M442.47,353.86 L441.52,353.46 L439.96,354.36 L442.47,353.86 Z M468.25,398.79 L467.41,399.22 L467.41,406.90 L468.25,398.79 Z M612.26,498.42 L596.51,495.43 L598.63,496.61 L612.26,498.42 Z M575.91,627.96 L581.62,630.72 L575.91,627.96 L575.91,627.96 Z M702.27,763.01 L701.23,763.83 L705.12,764.19 L702.27,763.01 Z M702.27,761.57 L700.26,763.74 L701.16,763.82 L702.27,761.57 Z M620.50,770.88 L632.75,791.05 L629.69,785.53 L620.50,770.88 Z M240.15,553.31 L238.56,549.06 L241.31,557.74 L240.15,553.31 Z M474.59,755.06 L477.59,758.79 L479.98,752.52 L477.76,757.59 L474.59,755.06 Z M490.65,794.85 L489.80,794.30 L490.35,795.88 L490.65,794.85 Z M487.69,820.53 L485.79,819.80 L487.68,821.17 L487.69,820.53 Z M189.55,813.94 L198.94,814.02 L194.51,813.20 L189.55,813.94 Z M213.99,800.65 L215.88,798.77 L214.48,799.46 L213.99,800.65 Z M216.43,798.49 L218.17,799.82 L217.22,798.10 L216.43,798.49 Z M228.74,795.84 L230.64,796.29 L226.10,797.20 L229.90,797.29 L232.27,795.94 L228.74,795.84 Z M240.46,768.07 L240.68,767.01 L240.04,767.63 L240.46,768.07 Z M274.13,761.23 L277.13,762.02 L279.16,761.56 L274.13,761.23 Z M281.32,759.60 L280.86,761.17 L290.23,759.04 L281.99,760.66 L281.32,759.60 Z M298.15,770.88 L293.40,762.38 L290.23,759.04 L298.15,770.88 Z M323.30,803.62 L324.46,801.99 L318.86,806.42 L323.30,803.62 Z M353.46,848.95 L353.94,848.02 L350.66,841.69 L353.46,848.95 Z M440.25,864.66 L436.13,864.11 L418.81,862.85 L440.25,864.66 Z M293.08,862.67 L291.60,875.42 L292.34,869.72 L293.08,862.67 Z M352.32,851.18 L340.10,864.48 L350.56,854.62 L352.32,851.18 Z M299.42,850.10 L304.28,846.30 L306.39,843.41 L299.42,850.10 Z M404.22,833.25 L402.82,832.79 L403.28,833.28 L404.22,833.25 Z M309.25,738.69 L310.44,738.55 L294.88,737.15 L309.25,738.69 Z M367.88,727.39 L362.92,726.12 L353.62,725.67 L367.88,727.39 Z M138.72,738.60 L139.57,740.23 L140.03,736.92 L138.72,738.60 Z M140.84,735.89 L140.39,736.46 L145.48,737.06 L140.84,735.89 Z M149.42,731.17 L148.55,734.62 L149.71,732.63 L149.42,731.17 Z M203.91,634.88 L201.69,637.41 L205.71,633.70 L203.91,634.88 Z M246.17,648.98 L243.00,644.10 L247.76,653.14 L246.17,648.98 Z M251.88,695.73 L243.21,689.68 L245.75,692.03 L251.88,695.73 Z M234.90,742.03 L234.44,743.03 L234.76,746.10 L234.90,742.03 Z M238.78,755.15 L238.88,758.49 L239.87,758.28 L238.78,755.15 Z M432.75,621.76 L427.79,622.94 L441.52,622.22 L432.75,621.76 Z M536.82,526.27 L525.73,526.36 L537.20,526.44 L536.82,526.27 Z M470.75,529.70 L470.68,532.24 L471.93,534.22 L470.75,529.70 Z M475.19,544.64 L475.02,544.83 L475.22,544.90 L475.19,544.64 Z M464.55,512.89 L462.23,505.74 L459.80,502.58 L464.55,512.89 Z M346.96,545.53 L341.05,541.46 L347.01,545.93 L346.96,545.53 Z M349.93,542.51 L349.39,542.46 L346.96,545.53 L349.93,542.51 Z M378.76,535.04 L374.22,542.64 L380.04,534.67 L378.76,535.04 Z M386.79,532.69 L383.30,533.71 L391.76,532.96 L386.79,532.69 Z M582.88,739.86 L594.40,741.13 L582.60,739.63 L582.88,739.86 Z M526.99,721.60 L532.17,725.03 L523.82,718.98 L526.99,721.60 Z M531.34,729.16 L532.07,729.83 L531.76,728.75 L531.34,729.16 Z M529.53,748.35 L530.37,748.46 L529.53,746.19 L529.53,748.35 Z M571.47,629.90 L571.68,633.61 L572.30,629.54 L571.47,629.90 Z M544.43,533.78 L541.05,528.17 L539.53,527.49 L544.43,533.78 Z M639.09,66.03 L639.09,61.46 L638.35,64.36 L639.09,66.03 Z M698.68,191.68 L696.46,193.58 L696.90,194.29 L698.68,191.68 Z M700.16,193.13 L701.14,192.55 L698.68,191.68 L700.16,193.13 Z M628.95,228.58 L623.03,218.27 L625.25,224.14 L628.95,228.58 Z M643.63,286.27 L638.46,285.73 L644.58,287.16 L643.63,286.27 Z M653.22,307.88 L651.26,307.24 L651.45,307.61 L653.22,307.88 Z M658.53,307.88 L656.13,308.33 L662.02,309.24 L658.53,307.88 Z M683.01,309.38 L669.41,309.15 L682.41,309.51 L683.01,309.38 Z M684.63,325.81 L683.68,325.43 L676.49,329.04 L684.63,325.81 Z M664.45,329.13 L673.96,327.23 L663.34,328.86 L664.45,329.13 Z M568.29,441.23 L577.28,438.46 L568.29,441.23 L568.29,441.23 Z M612.68,212.21 L604.70,213.78 L608.35,213.84 L612.68,212.21 Z M465.82,349.30 L486.00,354.36 L473.96,350.57 L465.82,349.30 Z M540.09,244.88 L547.07,252.45 L540.83,244.76 L540.09,244.88 Z M575.81,294.05 L571.58,292.60 L570.21,293.05 L575.81,294.05 Z M499.10,361.87 L502.17,359.52 L498.66,361.49 L499.10,361.87 Z M531.11,350.75 L532.00,350.08 L528.21,350.88 L531.11,350.75 Z M537.24,346.13 L545.80,336.01 L534.91,347.89 L537.24,346.13 Z M598.84,348.67 L593.91,355.97 L593.91,355.97 L598.84,348.67 Z M492.76,369.83 L493.88,368.42 L490.12,370.46 L492.76,369.83 Z M591.97,207.51 L590.29,206.73 L593.28,208.50 L591.97,207.51 Z M604.24,213.78 L600.00,212.49 L602.11,213.74 L604.24,213.78 Z M660.32,552.30 L654.62,552.77 L659.80,553.22 L660.32,552.30 Z M786.48,511.87 L774.64,512.71 L784.57,512.89 L786.48,511.87 Z M834.55,561.72 L831.17,563.62 L831.69,563.98 L834.55,561.72 Z M871.35,570.26 L871.08,567.04 L870.36,566.69 L871.35,570.26 Z M871.74,574.83 L871.68,574.20 L870.81,575.16 L871.74,574.83 Z M859.69,579.08 L866.06,576.83 L865.61,576.37 L859.69,579.08 Z M790.81,908.61 L792.36,910.90 L792.60,909.69 L790.81,908.61 Z M782.78,785.17 L785.24,789.31 L785.63,788.43 L782.78,785.17 Z M751.29,697.27 L751.89,697.14 L747.28,692.93 L751.29,697.27 Z M697.71,329.73 L698.07,329.50 L697.83,329.31 L697.71,329.73 Z M798.52,323.07 L789.97,300.07 L790.07,302.73 L798.52,323.07 Z M789.80,295.29 L791.76,289.89 L789.75,293.78 L789.80,295.29 Z M650.08,234.45 L654.30,233.82 L648.80,234.00 L650.08,234.45 Z M654.62,230.20 L656.21,231.38 L656.51,231.02 L655.89,230.56 L654.62,230.20 Z M718.96,196.20 L716.43,196.65 L704.49,204.79 L718.96,196.20 Z M728.68,203.07 L724.25,199.55 L725.51,201.18 L728.68,203.07 Z M724.59,207.54 L725.20,207.32 L728.68,203.07 L724.59,207.54 Z M720.97,206.33 L723.40,207.96 L724.32,207.63 L720.97,206.33 Z M732.60,254.67 L732.80,254.62 L732.79,254.46 L732.60,254.67 Z M716.44,262.81 L710.62,272.34 L716.64,263.48 L716.44,262.81 Z M716.94,262.00 L718.01,261.94 L720.02,257.51 L719.07,256.61 L718.96,258.69 L716.94,262.00 Z M707.41,296.56 L735.55,297.21 L708.29,295.86 L707.41,296.56 Z M661.49,230.75 L661.28,232.83 L662.41,232.84 L661.49,230.75 Z M741.04,207.96 L734.39,196.31 L734.39,196.56 L733.33,195.39 L741.04,207.96 Z M707.25,188.00 L702.69,188.52 L706.18,189.06 L707.25,188.00 Z M712.31,187.43 L709.46,187.75 L710.72,188.42 L712.31,187.43 Z M716.32,189.06 L714.35,189.25 L715.05,189.87 L716.32,189.06 Z M734.39,194.58 L736.71,191.05 L734.39,193.13 L734.39,194.58 Z" /></g></svg>