<svg xmlns="http://www.w3.org/2000/svg" viewBox="0 0 1000 1000" width="1000" height="1000"><g fill="#cccccc" stroke="#222" stroke-width="2"><path d="M697.12,851.67 L689.56,866.99 L690.85,891.37 L687.35,910.75 L676.84,908.25 L673.34,911.69 L667.63,907.31 L665.23,893.87 L660.26,885.12 L660.44,875.43 L655.46,880.11 L640.54,871.36 L640.82,869.14 L634.82,882.30 L628.00,933.57 L618.97,934.19 L617.68,939.19 L610.31,941.70 L593.17,928.88 L586.53,916.69 L572.34,906.37 L568.10,896.06 L558.70,887.30 L543.04,908.56 L536.59,908.87 L529.03,923.56 L520.55,929.19 L515.94,952.64 L505.81,959.20 L482.77,956.07 L470.60,945.13 L469.13,931.38 L451.43,937.32 L440.38,935.76 L433.00,927.94 L417.89,934.19 L402.59,948.26 L393.01,943.57 L381.40,954.20 L372.55,967.95 L348.59,971.39 L343.80,980.77 L339.01,975.14 L326.84,976.39 L289.61,928.57 L263.44,880.74 L270.26,857.29 L275.79,854.79 L276.71,839.79 L274.13,831.66 L277.08,822.60 L304.72,791.02 L312.65,771.64 L321.50,762.27 L323.71,735.07 L322.79,706.00 L326.84,687.24 L302.88,664.11 L299.38,638.79 L285.37,623.16 L279.84,608.47 L284.27,523.76 L307.86,520.01 L273.76,525.01 L205.01,580.65 L175.89,618.47 L166.31,602.22 L160.78,599.40 L158.38,575.65 L150.09,576.27 L137.00,563.46 L128.53,563.14 L113.23,539.39 L103.64,531.26 L92.59,536.57 L85.40,532.51 L80.61,540.32 L75.63,535.01 L63.28,535.64 L51.12,545.64 L47.80,554.08 L30.47,548.76 L19.23,551.89 L23.10,544.70 L26.23,516.57 L33.79,505.31 L28.26,475.93 L38.58,441.86 L47.98,433.42 L49.46,420.60 L55.72,410.91 L91.48,368.71 L90.74,333.07 L99.41,300.88 L94.80,285.87 L99.04,270.24 L96.82,245.24 L110.46,232.11 L122.81,231.48 L125.95,226.79 L128.53,203.97 L126.31,186.47 L112.68,151.46 L113.78,147.71 L128.71,135.83 L129.45,123.95 L126.13,112.07 L140.32,100.19 L148.62,100.19 L154.14,80.19 L163.91,83.31 L179.76,67.37 L182.71,55.80 L193.77,50.49 L226.58,105.82 L236.16,113.63 L252.38,116.76 L275.05,133.01 L299.38,119.26 L317.07,91.75 L321.87,73.93 L335.14,55.80 L345.46,69.87 L367.21,83.00 L374.95,102.69 L384.71,117.39 L392.46,116.13 L427.29,128.95 L461.94,163.96 L467.65,162.71 L476.50,148.96 L485.90,153.65 L515.21,153.96 L526.82,160.84 L529.40,152.71 L541.38,140.83 L550.41,141.77 L561.47,153.96 L576.03,158.65 L606.99,128.64 L621.92,102.69 L634.82,95.50 L644.22,98.32 L646.62,80.19 L672.42,95.50 L684.22,81.44 L715.55,69.25 L714.63,102.38 L708.55,98.32 L700.44,97.38 L697.86,102.69 L687.53,99.57 L675.92,118.95 L660.44,118.32 L655.46,126.76 L643.85,130.83 L638.51,158.65 L640.72,186.47 L635.01,200.22 L636.66,207.72 L640.17,209.60 L640.35,218.04 L633.53,223.35 L629.11,219.92 L627.27,210.85 L622.10,208.98 L612.70,217.42 L609.39,228.04 L609.02,246.80 L613.63,272.43 L603.12,285.56 L591.51,278.06 L585.80,291.50 L584.14,307.75 L588.74,339.01 L598.14,354.64 L604.23,355.89 L600.36,358.40 L599.07,369.65 L629.11,427.79 L641.64,444.98 L671.87,476.56 L685.69,486.25 L699.70,493.12 L719.42,496.25 L727.90,494.69 L731.03,488.12 L735.27,478.12 L738.59,464.05 L738.59,446.86 L749.46,443.42 L753.15,424.66 L757.39,430.60 L761.99,425.92 L769.74,417.79 L768.08,388.72 L775.27,382.78 L778.58,407.47 L773.42,409.35 L773.97,412.47 L788.17,400.28 L789.09,404.03 L797.01,399.66 L794.25,393.41 L792.59,396.53 L794.80,390.28 L799.23,400.60 L790.01,406.22 L792.04,419.04 L789.64,428.10 L793.70,434.36 L797.38,423.41 L804.02,400.28 L800.88,380.59 L798.67,381.21 L802.91,372.46 L792.41,374.02 L786.14,362.46 L784.48,365.27 L778.03,358.40 L773.05,360.58 L764.76,352.77 L767.52,351.52 L765.50,346.83 L759.78,354.33 L762.73,355.27 L759.97,357.77 L761.07,364.96 L754.07,352.14 L751.67,355.27 L752.78,349.33 L750.20,352.46 L752.41,348.70 L749.09,345.27 L753.70,334.33 L763.65,336.51 L765.68,314.94 L771.39,303.38 L775.45,305.57 L778.03,301.19 L780.24,283.37 L784.30,278.68 L781.90,257.43 L789.27,263.99 L795.17,255.86 L799.04,258.68 L810.84,239.92 L816.18,238.67 L834.61,247.74 L841.62,271.49 L853.96,287.12 L852.67,291.19 L857.28,303.69 L864.84,308.38 L876.45,295.25 L887.14,296.50 L898.94,309.01 L910.18,334.01 L919.58,339.64 L929.35,332.45 L928.43,313.38 L933.59,300.57 L933.40,282.43 L942.80,273.68 L953.68,284.94 L969.53,329.32 L980.03,346.83 L980.77,356.52 L970.63,354.64 L960.86,364.33 L948.52,359.96 L940.22,372.15 L931.01,374.02 L926.77,393.09 L928.79,415.60 L922.53,424.98 L913.13,418.41 L908.70,398.41 L895.25,394.66 L884.93,400.28 L873.69,420.60 L860.97,415.91 L850.28,427.79 L844.75,408.72 L833.32,408.41 L824.66,421.85 L819.13,444.67 L813.79,476.87 L811.57,510.63 L813.97,547.51 L822.26,591.59 L841.43,665.99 L885.67,814.47 L866.31,833.85 L864.10,842.60 L851.38,841.04 L850.28,832.91 L837.01,838.85 L836.27,815.41 L826.50,810.09 L807.70,821.97 L804.39,831.35 L783.56,842.29 L779.69,847.60 L781.35,856.98 L770.66,862.30 L771.21,848.85 L766.23,879.49 L767.34,888.87 L761.26,893.24 L758.68,882.61 L755.54,883.24 L755.91,893.56 L745.41,903.56 L734.90,885.43 L736.01,866.67 L731.40,859.17 L735.09,843.23 L730.66,837.60 L726.05,838.54 L716.84,836.66 L716.65,840.73 L704.31,844.17 L700.99,842.92 L700.80,832.29 L691.96,833.22 L697.30,832.91 L697.12,851.67 Z M771.70,460.64 L769.74,447.17 L761.99,425.92 L771.70,460.64 Z M807.15,550.64 L793.51,558.14 L813.97,547.51 L807.15,550.64 Z M694.91,520.94 L715.71,519.63 L710.94,518.76 L694.91,520.94 Z M719.05,613.47 L703.02,551.89 L694.91,520.94 L719.05,613.47 Z M719.79,522.82 L712.78,523.44 L729.74,522.19 L719.66,520.35 L719.79,522.82 Z M737.67,547.51 L736.74,541.26 L730.11,518.76 L736.01,541.89 L729.74,522.19 L737.67,547.51 Z M744.42,512.45 L739.67,511.26 L740.80,512.82 L739.94,514.37 L744.12,512.50 L744.42,512.45 Z M750.20,540.64 L751.49,529.38 L751.05,517.97 L750.20,540.64 Z M745.04,560.96 L747.43,554.39 L749.09,550.02 L750.20,540.64 L745.04,560.96 Z M760.89,542.20 L761.40,540.73 L761.07,540.64 L750.20,540.64 L760.89,542.20 Z M761.81,532.20 L758.12,530.32 L751.49,529.38 L761.81,532.20 Z M744.20,599.02 L746.88,592.84 L746.51,586.90 L744.20,599.02 Z M750.85,712.88 L752.78,709.75 L754.81,680.99 L750.85,712.88 Z M745.22,739.13 L744.88,748.88 L746.45,735.59 L745.22,739.13 Z M743.56,791.02 L745.04,797.59 L743.01,780.40 L743.56,791.02 Z M448.13,498.66 L449.83,497.83 L449.96,493.44 L448.10,498.30 L448.13,498.66 Z M456.33,505.31 L456.25,505.35 L456.78,506.25 L456.33,505.31 Z M566.07,460.93 L558.33,479.68 L566.41,461.32 L566.07,460.93 Z M568.47,463.74 L567.81,462.96 L574.00,485.62 L568.47,463.74 Z M641.83,486.25 L634.08,462.49 L644.22,501.88 L647.35,521.26 L641.83,486.25 Z M711.65,649.01 L711.97,650.42 L716.65,658.17 L711.65,649.01 Z M686.61,530.95 L678.50,508.44 L686.40,531.19 L686.61,530.95 Z M451.80,685.99 L484.43,653.80 L478.71,657.55 L451.80,685.99 Z M490.88,669.74 L495.09,667.59 L494.81,665.29 L490.88,669.74 Z M636.11,613.16 L650.67,621.60 L647.54,619.72 L636.11,613.16 Z M660.70,606.29 L660.84,606.64 L665.80,596.86 L660.70,606.29 Z M638.98,793.15 L649.94,767.89 L638.88,792.28 L638.98,793.15 Z M667.63,745.39 L651.78,740.38 L659.89,744.76 L667.63,745.39 Z M536.40,732.26 L547.46,721.00 L532.58,732.40 L536.40,732.26 Z M546.54,740.07 L541.01,742.26 L552.07,743.20 L546.54,740.07 Z M533.64,746.95 L517.60,780.08 L533.85,747.12 L533.64,746.95 Z M651.96,800.09 L639.26,795.49 L639.61,798.53 L651.96,800.09 Z M591.69,712.56 L582.37,721.32 L585.43,721.94 L591.69,712.56 Z M606.07,715.38 L602.57,712.56 L591.69,712.56 L606.07,715.38 Z M704.12,664.11 L702.89,665.36 L707.62,666.30 L704.12,664.11 Z M673.71,581.27 L672.61,549.39 L671.88,584.88 L673.71,581.27 Z M577.32,365.27 L586.16,359.02 L564.97,372.15 L577.32,365.27 Z M589.48,447.48 L589.45,447.47 L598.70,460.30 L589.48,447.48 Z M518.89,280.25 L517.79,290.56 L518.15,287.12 L518.89,280.25 Z M775.82,553.45 L779.32,565.02 L775.63,548.76 L775.82,553.45 Z M725.76,508.23 L730.29,510.00 L733.99,505.53 L729.37,507.50 L725.76,508.23 Z M733.43,509.69 L735.03,505.08 L734.14,505.46 L733.43,509.69 Z M815.63,677.24 L811.39,682.87 L820.42,675.37 L815.63,677.24 Z M807.72,751.54 L807.33,754.45 L817.66,797.90 L807.72,751.54 Z M768.45,532.20 L775.58,538.55 L775.58,538.55 L768.45,532.20 Z M775.46,513.04 L775.45,510.63 L775.12,501.18 L775.46,513.04 Z M797.38,519.07 L797.54,523.14 L799.41,514.38 L797.38,519.07 Z M774.42,480.87 L774.34,478.74 L774.30,478.43 L774.42,480.87 Z M803.34,468.06 L804.20,460.93 L803.28,465.93 L798.67,463.43 L803.34,468.06 Z M801.06,434.96 L800.81,435.37 L804.57,440.29 L801.06,434.96 Z M733.98,19.23 L743.56,29.23 L745.96,38.30 L741.17,65.18 L739.14,68.93 L731.58,61.12 L727.90,63.62 L722.55,55.18 L725.50,34.86 L733.98,19.23 Z" /></g></svg>