<svg xmlns="http://www.w3.org/2000/svg" viewBox="0 0 1000 1000" width="1000" height="1000"><g fill="#cccccc" stroke="#222" stroke-width="2"><path d="M220.13,792.76 L127.70,770.90 L123.36,768.30 L78.96,709.13 L86.68,698.63 L81.13,706.04 L50.84,653.17 L42.64,631.93 L25.75,612.90 L19.23,605.49 L24.54,585.60 L20.44,577.70 L19.59,567.20 L78.35,564.85 L106.59,563.74 L128.67,562.50 L164.14,528.41 L175.36,509.02 L190.93,481.72 L209.27,449.97 L221.58,434.90 L232.44,422.18 L259.46,403.40 L278.77,391.17 L314.97,369.68 L381.48,330.94 L381.45,330.89 L405.22,316.93 L398.34,275.18 L393.76,267.89 L377.23,247.76 L364.20,242.45 L360.70,221.32 L365.40,222.93 L355.27,217.37 L357.32,195.75 L346.34,171.66 L328.00,128.80 L322.09,105.21 L336.45,99.77 L330.53,100.88 L331.14,99.65 L340.91,93.84 L337.05,81.86 L340.79,78.03 L350.92,75.44 L350.92,68.77 L348.15,62.96 L354.42,56.04 L367.46,47.89 L372.28,47.15 L382.05,50.85 L382.18,47.52 L383.38,28.37 L387.36,25.28 L402.08,25.78 L422.96,19.23 L427.30,20.96 L428.87,34.42 L425.25,45.30 L412.10,61.23 L408.38,67.47 L409.93,66.54 L411.50,70.49 L415.36,72.10 L446.25,69.26 L442.63,69.38 L469.65,66.67 L479.07,68.77 L505.49,81.12 L515.14,81.24 L510.32,99.65 L511.40,127.07 L516.23,151.28 L520.93,161.16 L523.35,163.51 L527.09,163.39 L539.40,158.20 L551.58,186.49 L559.18,198.84 L566.42,208.85 L572.82,213.42 L583.80,214.65 L593.81,216.38 L601.90,219.47 L602.62,229.35 L598.40,238.86 L598.64,245.29 L601.05,253.56 L609.98,260.60 L621.81,264.43 L640.15,264.68 L651.13,267.77 L653.18,270.24 L653.54,276.66 L648.59,284.82 L622.53,301.24 L619.03,307.67 L622.65,314.46 L642.20,322.37 L652.09,322.61 L664.16,319.77 L683.58,314.59 L693.36,314.09 L705.06,319.28 L709.77,327.18 L704.22,352.01 L694.44,375.73 L696.62,405.38 L698.43,415.75 L710.97,450.71 L731.12,494.94 L734.38,499.51 L739.45,501.73 L752.84,501.73 L761.65,504.82 L779.75,522.98 L787.47,527.55 L791.94,528.53 L824.51,524.71 L864.21,546.08 L868.56,545.83 L875.92,537.68 L891.60,533.23 L901.86,533.97 L905.84,531.87 L928.52,543.23 L933.47,547.43 L943.24,555.22 L950.60,563.62 L959.53,579.92 L974.98,616.36 L978.72,628.84 L980.77,654.90 L977.75,664.54 L979.20,678.00 L970.51,677.39 L956.03,671.09 L951.93,677.14 L948.55,677.01 L949.64,682.33 L946.02,688.13 L953.02,690.23 L952.90,693.07 L944.57,697.52 L937.69,697.15 L934.07,701.35 L928.28,703.33 L925.75,712.96 L918.63,713.33 L924.90,741.74 L923.58,745.08 L914.77,751.13 L915.25,758.67 L907.05,760.52 L900.05,767.68 L891.24,769.17 L887.02,775.10 L881.22,778.55 L878.57,784.11 L879.66,789.55 L875.07,794.24 L868.18,788.06 L884.36,805.73 L874.59,807.46 L871.33,816.72 L862.28,823.89 L831.27,827.10 L826.93,831.18 L821.50,829.32 L801.47,833.28 L800.26,830.44 L796.88,823.77 L819.33,874.41 L765.87,895.29 L738.48,903.69 L692.27,918.02 L667.17,876.02 L663.07,869.22 L656.44,875.40 L650.16,865.39 L633.51,883.80 L613.24,853.17 L635.20,886.52 L608.90,912.46 L601.54,903.81 L592.12,912.95 L565.70,949.64 L561.23,944.45 L535.29,980.77 L486.18,937.53 L463.26,917.03 L463.74,914.93 L457.35,912.95 L450.23,905.29 L438.16,894.42 L401.60,873.05 L319.55,824.38 L307.37,817.22 L309.66,813.88 L282.75,807.58 L220.13,792.76 Z M481.48,128.68 L482.74,131.68 L479.07,68.77 L481.48,128.68 Z M613.24,844.27 L613.01,854.17 L613.24,853.17 L613.24,844.27 Z M454.07,891.13 L451.92,895.29 L450.23,905.29 L454.07,891.13 Z M341.27,794.98 L343.49,790.72 L319.55,824.38 L341.27,794.98 Z M536.62,237.50 L535.90,257.02 L536.74,235.77 L536.62,237.50 Z M507.32,346.68 L530.59,358.44 L513.45,348.93 L507.32,346.68 Z M544.10,420.82 L542.29,428.97 L544.83,418.22 L547.24,396.61 L544.10,420.82 Z M570.41,481.96 L576.99,488.57 L569.52,480.87 L570.41,481.96 Z M528.90,534.59 L486.43,586.35 L522.02,543.48 L546.39,511.98 L528.90,534.59 Z M425.25,533.85 L423.44,532.36 L486.43,586.35 L425.25,533.85 Z M581.14,614.63 L604.31,606.48 L611.72,603.65 L513.33,638.97 L581.14,614.63 Z M480.63,716.54 L521.42,711.23 L606.00,700.24 L613.36,699.25 L545.79,708.02 L480.63,716.54 Z M438.52,746.19 L511.76,749.03 L621.32,753.73 L606.72,751.87 L524.19,749.28 L438.52,746.19 Z M511.52,855.02 L486.91,853.66 L533.48,856.25 L557.13,855.64 L612.85,854.90 L612.85,854.90 L583.32,855.02 L511.52,855.02 Z M527.45,927.53 L534.09,911.96 L541.45,894.05 L527.45,927.53 Z M493.80,498.73 L543.02,439.60 L496.20,495.80 L493.80,498.73 Z M428.39,668.00 L506.21,639.96 L425.61,667.75 L428.39,668.00 Z M424.04,669.73 L422.96,672.44 L425.61,667.75 L424.04,669.73 Z M396.90,356.58 L387.97,342.26 L413.79,383.88 L396.90,356.58 Z M379.99,507.89 L365.52,452.94 L376.75,495.68 L379.99,507.89 Z M433.80,779.36 L431.53,743.23 L428.27,715.43 L431.28,752.24 L433.80,779.36 Z M461.93,809.31 L435.63,799.05 L435.63,799.06 L461.93,809.31 Z M354.30,437.12 L316.17,386.73 L331.14,406.61 L354.30,437.12 Z M257.17,574.49 L310.26,585.73 L288.18,579.80 L257.17,574.49 Z M293.73,550.03 L291.74,546.17 L292.04,548.67 L293.73,550.03 Z M335.72,562.01 L326.19,562.79 L366.49,564.60 L335.72,562.01 Z M177.90,695.54 L143.99,652.93 L146.41,656.14 L177.90,695.54 Z M155.34,637.86 L148.87,643.15 L148.87,643.15 L155.34,637.86 Z M196.72,620.93 L196.77,620.69 L178.98,633.90 L196.72,620.93 Z M197.45,617.35 L196.22,616.77 L197.08,619.17 L197.45,617.35 Z M220.97,621.06 L223.70,621.06 L203.96,616.12 L220.97,621.06 Z M311.23,682.57 L313.20,682.08 L309.04,681.41 L311.23,682.57 Z M323.05,679.61 L352.61,667.26 L319.01,680.62 L323.05,679.61 Z M341.51,729.76 L338.38,746.56 L353.34,666.89 L298.80,633.78 L352.61,667.26 L341.51,729.76 Z M347.30,783.37 L346.34,782.79 L345.65,786.56 L347.30,783.37 Z M280.94,703.33 L281.20,703.49 L280.94,702.30 L280.94,703.33 Z M283.36,704.81 L320.40,696.53 L281.80,703.85 L283.36,704.81 Z M253.24,642.67 L253.43,643.04 L266.58,644.77 L253.24,642.67 Z M114.55,616.98 L70.39,618.59 L135.91,616.24 L114.55,616.98 Z M145.56,594.13 L143.53,597.43 L143.99,597.22 L145.56,594.13 Z M152.20,580.91 L164.46,568.00 L147.13,585.11 L144.23,589.06 L152.20,580.91 Z M173.54,559.04 L173.54,559.04 L176.33,572.14 L173.54,559.04 Z M223.75,497.90 L212.82,494.91 L214.10,495.80 L223.75,497.90 Z M264.89,485.55 L266.09,484.86 L259.22,485.67 L256.77,487.28 L264.89,485.55 Z M273.58,479.99 L268.49,483.49 L275.77,479.33 L273.58,479.99 Z M281.84,477.52 L276.85,479.01 L280.82,479.12 L281.84,477.52 Z M242.45,521.50 L242.45,518.53 L237.85,509.87 L242.45,521.50 Z M292.87,523.64 L292.62,534.87 L293.25,528.29 L292.87,523.64 Z M292.18,539.35 L291.08,540.76 L291.62,545.21 L292.18,539.35 Z M303.63,414.64 L297.59,418.22 L303.70,415.32 L303.63,414.64 Z M398.59,59.50 L403.05,56.41 L388.93,62.96 L398.59,59.50 Z M390.49,78.26 L396.15,74.85 L391.35,77.29 L390.49,78.26 Z M384.59,88.28 L387.25,81.93 L385.67,83.71 L384.59,88.28 Z M386.64,105.58 L387.25,106.94 L384.59,88.28 L386.64,105.58 Z M407.39,143.13 L404.19,137.78 L407.29,145.60 L407.39,143.13 Z M471.57,131.77 L471.57,131.77 L407.03,151.78 L402.21,154.62 L471.57,131.77 Z M386.28,151.78 L385.13,152.36 L402.21,154.62 L386.28,151.78 Z M383.99,171.54 L383.53,153.18 L382.66,153.63 L383.99,171.54 Z M404.74,205.14 L392.41,187.66 L393.16,189.08 L404.74,205.14 Z M404.74,262.21 L400.52,256.65 L387.73,246.52 L404.74,262.21 Z M354.91,114.47 L355.03,118.30 L357.50,124.74 L354.91,114.47 Z M387.97,208.10 L387.94,207.89 L386.40,217.86 L387.97,208.10 Z M458.55,882.44 L477.62,892.20 L471.83,889.11 L458.55,882.44 Z M506.33,827.84 L509.83,804.25 L508.86,804.17 L506.33,827.84 Z M474.24,340.53 L499.26,343.73 L496.92,342.87 L474.24,340.53 Z M461.09,337.07 L444.47,332.73 L448.78,334.35 L474.24,340.53 L461.09,337.07 Z M384.95,448.37 L413.31,419.09 L417.16,415.10 L384.95,448.37 Z M450.87,268.92 L449.99,260.73 L447.57,254.80 L450.87,268.92 Z M479.78,242.20 L479.78,242.20 L477.62,207.86 L475.57,183.89 L479.78,242.20 Z M508.27,167.96 L485.94,178.83 L475.57,183.89 L508.27,167.96 Z M492.65,262.03 L492.22,261.59 L491.61,264.43 L492.65,262.03 Z M493.70,263.11 L495.96,268.39 L495.40,263.92 L494.87,264.31 L493.70,263.11 Z M505.25,257.89 L515.02,249.36 L500.58,260.07 L505.25,257.89 Z M435.62,329.40 L425.01,318.54 L433.34,328.54 L435.62,329.40 Z M437.18,329.99 L437.18,329.99 L451.92,278.64 L451.69,276.57 L449.14,288.27 L437.18,329.99 Z M499.36,315.20 L493.91,315.20 L486.88,318.03 L499.30,315.24 L499.36,315.20 Z M470.57,298.23 L472.67,292.72 L472.19,289.51 L470.57,298.23 Z M697.58,469.86 L694.82,455.60 L694.82,455.60 L697.58,469.86 Z M691.43,482.46 L696.01,480.11 L684.43,484.81 L691.43,482.46 Z M681.17,538.79 L670.55,530.26 L662.23,524.21 L681.17,538.79 Z M697.24,614.62 L704.58,601.29 L697.24,614.62 L697.24,614.62 Z M723.64,776.33 L722.26,773.14 L722.26,773.14 L723.64,776.33 Z M588.38,500.00 L607.33,515.81 L579.01,490.60 L588.38,500.00 Z M651.25,689.49 L647.39,674.54 L652.70,695.17 L651.25,689.49 Z M717.25,777.32 L721.88,773.27 L719.90,773.98 L717.25,777.32 Z M648.21,589.69 L648.11,589.43 L656.68,585.36 L636.80,594.06 L648.21,589.69 Z M673.33,582.76 L670.91,581.53 L676.47,588.69 L673.33,582.76 Z M652.33,645.89 L651.97,640.08 L652.33,653.79 L652.33,645.89 Z M654.28,635.35 L655.59,632.67 L653.66,634.15 L654.28,635.35 Z M671.28,568.93 L669.57,567.30 L671.48,570.30 L671.28,568.93 Z M647.51,508.77 L631.46,508.65 L653.90,509.64 L647.51,508.77 Z M565.96,344.95 L565.94,344.85 L562.08,338.55 L565.96,344.95 Z M595.98,341.14 L605.83,329.87 L598.52,336.57 L595.98,341.14 Z M631.58,396.73 L616.14,408.10 L633.15,395.62 L649.92,382.90 L631.58,396.73 Z M579.09,408.34 L593.33,404.14 L567.03,411.55 L549.53,418.84 L579.09,408.34 Z M597.31,411.06 L591.76,400.93 L593.33,404.14 L597.31,411.06 Z M599.89,414.54 L599.24,409.58 L598.88,412.79 L599.89,414.54 Z M626.14,454.16 L613.96,433.91 L623.37,451.08 L626.14,454.16 Z M632.15,460.87 L640.87,470.60 L646.30,473.07 L641.23,469.37 L642.56,470.85 L632.15,460.87 Z M647.75,419.46 L664.04,451.70 L666.33,456.15 L647.75,419.46 Z M578.63,490.22 L578.63,490.22 L582.71,486.54 L578.63,490.22 Z M601.54,465.66 L602.01,465.56 L600.16,463.75 L601.54,465.66 Z M565.46,348.56 L567.27,351.15 L566.47,347.36 L565.46,348.56 Z M569.65,276.41 L562.80,274.56 L569.65,276.41 L569.65,276.41 Z M595.50,278.39 L585.53,288.98 L592.49,282.10 L595.50,278.39 Z M548.55,230.22 L550.62,230.22 L551.56,228.97 L548.55,230.22 Z M562.38,229.51 L577.89,248.37 L564.37,231.82 L562.38,229.51 Z M876.04,714.57 L888.95,715.18 L884.00,714.57 L876.04,714.57 Z M803.16,725.31 L813.53,718.52 L800.40,726.02 L803.16,725.31 Z M843.58,757.55 L851.18,768.30 L836.46,745.94 L843.58,757.55 Z M838.99,760.77 L838.70,762.28 L843.58,757.55 L838.99,760.77 Z M857.21,776.08 L859.26,778.32 L851.18,768.30 L857.21,776.08 Z M832.35,729.34 L832.96,734.33 L833.68,737.54 L836.46,745.94 L832.35,729.34 Z M823.76,728.70 L826.45,731.37 L832.96,734.33 L823.76,728.70 Z M754.65,796.59 L747.05,771.39 L768.41,843.78 L754.65,796.59 Z M767.80,774.23 L771.18,780.78 L776.25,790.04 L767.80,774.23 Z M709.06,836.48 L707.35,842.05 L709.41,837.48 L709.06,836.48 Z M798.09,782.63 L803.13,778.17 L803.13,778.17 L798.09,782.63 Z M818.12,731.61 L810.16,737.91 L815.71,734.08 L818.12,731.61 Z M814.62,746.68 L812.33,746.44 L817.52,747.06 L814.62,746.68 Z M803.91,752.43 L804.97,752.37 L812.33,746.44 L803.91,752.43 Z M827.12,741.41 L824.03,741.87 L821.98,744.34 L819.01,741.66 L820.17,744.34 L817.52,747.06 L827.12,741.41 Z M746.93,716.67 L742.92,718.63 L743.58,718.99 L746.93,716.67 Z M726.73,623.70 L730.40,619.45 L726.73,623.70 L726.73,623.70 Z M798.22,612.62 L798.21,612.53 L766.24,583.01 L798.22,612.62 Z M841.17,610.80 L827.17,587.70 L825.64,587.57 L841.17,610.80 Z M841.89,613.12 L843.22,606.85 L841.17,610.80 L841.89,613.12 Z M859.26,597.22 L859.26,597.19 L847.20,606.11 L859.26,597.22 Z M927.13,643.61 L924.66,634.77 L927.13,643.61 L927.13,643.61 Z M841.56,614.63 L837.30,625.26 L840.20,621.06 L841.56,614.63 Z M877.97,624.02 L871.45,617.60 L879.07,625.25 L877.97,624.02 Z M786.14,539.90 L772.51,537.80 L798.33,541.88 L786.14,539.90 Z M720.14,562.50 L738.73,576.59 L740.67,577.28 L719.87,561.79 L720.14,562.50 Z M754.29,582.15 L741.86,576.46 L749.83,567.82 L740.96,577.38 L754.29,582.15 Z M813.41,570.81 L813.41,570.04 L797.73,565.22 L813.41,570.81 Z M807.02,576.22 L813.41,572.88 L813.41,571.48 L807.02,576.22 Z" /></g></svg>