<svg xmlns="http://www.w3.org/2000/svg" viewBox="0 0 1000 1000" width="1000" height="1000"><g fill="#cccccc" stroke="#222" stroke-width="2"><path d="M148.60,811.97 L147.18,799.02 L147.76,776.34 L146.51,759.96 L148.60,745.86 L138.17,728.91 L129.25,720.90 L122.07,720.71 L118.90,720.71 L113.82,708.90 L112.23,711.38 L107.31,733.10 L111.65,754.05 L109.90,763.58 L104.14,767.96 L104.30,765.16 L102.06,772.53 L100.47,786.06 L96.97,787.78 L91.80,783.97 L88.96,774.25 L85.87,773.87 L83.37,780.54 L78.62,765.10 L70.19,768.91 L64.52,759.39 L67.44,742.43 L63.35,729.29 L59.27,713.86 L54.43,699.19 L53.68,682.42 L54.60,664.51 L61.27,654.03 L60.94,650.60 L57.40,647.49 L58.18,650.22 L54.85,652.32 L48.84,650.41 L47.92,646.41 L49.76,631.17 L47.76,624.12 L49.01,630.22 L44.42,636.70 L39.08,637.08 L33.24,627.36 L34.83,594.97 L33.49,589.26 L26.90,589.83 L19.23,571.16 L23.99,553.25 L31.91,558.96 L38.92,554.39 L42.42,543.53 L43.92,545.63 L41.58,541.25 L34.08,546.39 L31.58,543.53 L32.16,539.15 L35.58,534.20 L39.92,514.00 L43.00,498.76 L44.84,495.71 L49.42,502.57 L54.51,498.19 L65.69,504.67 L68.44,503.33 L71.61,489.62 L72.86,467.14 L69.03,457.99 L68.61,452.09 L70.44,447.89 L72.78,450.37 L79.79,437.42 L81.87,441.04 L81.12,448.66 L86.79,445.23 L84.37,446.18 L82.70,437.42 L80.62,425.22 L84.12,405.03 L83.29,389.02 L86.29,381.21 L89.71,382.36 L95.38,412.27 L98.39,413.60 L99.80,419.70 L106.06,429.41 L102.39,444.27 L107.56,423.51 L111.06,425.79 L110.90,430.94 L112.82,433.80 L115.57,434.94 L114.98,441.23 L119.32,441.42 L120.82,437.99 L124.05,439.83 L125.83,438.94 L129.58,445.04 L133.33,445.04 L135.42,458.94 L140.09,464.28 L140.17,460.47 L143.26,462.56 L141.93,456.47 L141.59,451.51 L143.68,446.94 L144.68,437.22 L147.35,434.56 L147.35,431.66 L145.43,424.46 L146.18,414.55 L144.59,402.17 L139.84,390.74 L145.35,377.97 L148.51,375.31 L150.77,377.59 L155.10,371.69 L157.27,370.16 L158.11,365.40 L159.69,365.78 L157.61,365.21 L159.61,354.35 L159.36,348.25 L160.78,345.97 L161.66,331.44 L158.94,331.11 L156.94,326.92 L155.10,328.82 L152.52,316.25 L152.60,311.86 L156.61,307.29 L158.61,294.72 L150.18,278.52 L154.52,262.14 L154.94,253.76 L156.61,243.47 L156.19,234.13 L153.60,232.80 L152.77,228.80 L155.85,224.61 L155.27,220.23 L158.19,201.75 L163.44,186.12 L162.11,184.03 L162.44,178.50 L160.78,172.79 L168.78,180.60 L161.78,172.98 L162.94,167.07 L163.61,169.74 L165.45,166.31 L162.36,159.45 L160.86,160.59 L158.69,147.83 L157.27,149.16 L152.85,143.64 L146.68,145.35 L144.01,141.73 L146.60,137.54 L145.43,133.54 L146.68,130.30 L146.35,123.82 L159.19,105.34 L162.86,89.15 L161.69,84.01 L166.11,63.62 L174.79,60.57 L177.04,51.62 L182.05,45.33 L185.21,33.33 L195.56,26.85 L197.06,22.28 L201.48,21.33 L203.40,27.42 L206.15,27.61 L208.07,26.85 L216.16,36.95 L224.58,38.66 L231.76,35.23 L237.18,25.33 L242.77,24.95 L251.69,19.23 L254.11,22.09 L263.70,51.24 L273.13,61.14 L267.29,67.24 L266.45,72.96 L259.62,78.67 L261.28,90.48 L258.11,112.01 L260.28,120.78 L258.70,144.21 L259.53,159.26 L261.20,165.55 L258.45,176.60 L258.20,182.12 L260.62,192.03 L258.53,219.27 L259.37,236.23 L264.12,242.33 L271.04,243.28 L279.22,248.99 L282.22,256.61 L290.31,259.47 L295.48,266.14 L302.90,265.76 L305.41,271.86 L307.33,268.43 L316.83,269.76 L320.34,285.76 L323.34,287.86 L322.09,292.24 L323.01,294.91 L326.84,284.05 L332.60,285.00 L338.10,275.86 L342.94,278.91 L347.36,271.86 L351.62,276.81 L358.71,276.43 L356.37,283.67 L356.95,288.05 L355.54,295.48 L356.45,300.05 L354.20,311.86 L357.54,314.72 L357.70,323.11 L355.62,333.39 L354.70,350.92 L354.54,351.04 L356.29,350.35 L360.54,343.87 L360.96,349.21 L359.04,355.49 L364.29,367.88 L365.38,368.45 L366.96,362.35 L367.88,361.40 L369.63,368.07 L373.80,369.97 L372.30,358.35 L377.22,351.68 L378.81,352.25 L382.23,366.35 L384.48,361.40 L391.74,359.49 L393.57,362.54 L393.07,372.64 L396.66,377.78 L396.66,383.31 L393.82,386.55 L394.24,391.50 L391.99,401.03 L389.48,403.31 L391.65,414.17 L388.98,423.89 L389.32,431.89 L393.32,435.32 L395.07,441.42 L398.16,442.94 L402.83,455.70 L403.83,451.89 L405.75,452.85 L407.83,448.47 L410.50,456.66 L409.21,458.11 L414.42,455.70 L420.18,458.37 L424.93,452.28 L427.52,457.42 L429.27,461.23 L434.27,461.80 L441.95,455.13 L448.37,440.27 L452.54,440.65 L453.21,438.37 L457.04,442.56 L462.13,439.70 L465.64,434.37 L465.22,421.03 L464.22,417.22 L458.88,412.65 L456.29,400.65 L457.29,394.74 L464.05,389.02 L466.89,379.31 L474.48,374.16 L479.90,377.97 L481.48,369.59 L484.32,367.11 L487.57,374.74 L488.41,380.83 L494.50,381.59 L496.66,375.31 L503.25,380.07 L507.17,379.31 L510.59,374.35 L513.01,359.68 L521.27,357.59 L523.27,339.87 L526.02,332.06 L525.52,322.91 L527.19,313.39 L529.61,309.39 L531.03,292.81 L541.45,287.29 L543.21,283.10 L543.71,285.19 L544.87,282.53 L553.47,260.62 L541.62,217.56 L542.96,209.94 L547.96,199.84 L551.30,199.27 L554.13,192.22 L557.80,174.69 L558.64,149.93 L561.47,140.40 L565.31,139.64 L570.90,126.11 L570.48,122.30 L572.40,114.11 L575.74,110.87 L579.41,102.11 L579.32,89.53 L583.66,80.39 L586.66,81.72 L590.25,77.53 L593.42,72.19 L594.75,64.57 L605.51,71.43 L615.86,70.86 L621.61,63.62 L627.28,61.53 L631.87,54.48 L639.13,58.48 L640.46,64.38 L648.63,67.81 L655.31,62.10 L657.14,56.95 L662.98,63.43 L666.15,63.24 L669.32,57.52 L671.82,60.38 L674.41,58.67 L677.74,52.76 L682.58,62.48 L688.92,64.95 L704.60,83.43 L704.35,103.63 L701.85,119.82 L703.02,124.97 L707.19,130.87 L711.02,144.02 L716.86,145.92 L718.45,150.12 L724.87,154.69 L730.46,166.69 L731.04,174.88 L738.72,180.79 L748.81,181.74 L751.73,175.26 L750.23,170.12 L752.65,170.12 L751.23,166.31 L752.90,164.02 L751.56,158.50 L754.23,156.78 L751.06,151.64 L751.98,147.45 L750.64,141.35 L748.98,142.69 L749.73,131.83 L756.32,121.35 L761.07,123.82 L774.67,112.58 L775.92,123.44 L781.09,134.30 L791.93,147.83 L802.69,140.78 L810.11,145.35 L809.78,142.69 L811.87,141.54 L822.04,146.11 L825.88,157.36 L828.13,180.98 L834.47,185.74 L840.23,196.22 L840.14,206.51 L836.22,216.61 L833.05,216.03 L830.72,210.70 L828.38,214.32 L827.63,229.37 L819.62,235.09 L818.87,248.80 L821.96,255.28 L821.46,268.05 L822.71,271.86 L828.71,261.95 L829.80,266.52 L831.72,267.28 L837.14,268.05 L842.31,264.62 L851.40,268.05 L860.33,277.19 L861.33,279.86 L859.83,288.62 L860.33,293.00 L862.58,295.86 L862.91,303.10 L870.92,312.82 L871.42,316.25 L868.33,329.39 L863.16,335.68 L861.99,345.40 L862.16,352.44 L866.17,366.16 L872.00,373.78 L878.34,391.69 L881.60,393.79 L883.68,391.69 L891.35,372.26 L893.44,374.16 L894.77,386.93 L893.19,396.07 L894.11,423.51 L893.44,401.41 L903.03,384.07 L908.62,386.74 L907.79,390.55 L913.12,405.60 L919.63,402.17 L926.72,381.59 L941.73,375.12 L945.24,381.02 L946.15,392.64 L948.24,393.22 L955.91,409.41 L954.83,413.60 L950.74,415.51 L946.24,422.94 L945.90,434.75 L940.82,446.37 L941.65,469.04 L946.82,486.95 L947.07,494.00 L945.24,502.19 L945.65,510.76 L942.23,523.15 L942.98,529.24 L950.83,534.39 L954.33,543.72 L959.25,546.39 L963.75,554.77 L967.76,555.54 L967.76,563.54 L971.84,572.49 L970.93,580.87 L979.43,593.07 L980.60,599.16 L980.77,612.50 L978.35,622.60 L974.68,627.36 L969.43,642.41 L965.84,642.98 L961.42,650.41 L958.33,648.89 L955.41,653.65 L952.33,649.65 L939.15,655.94 L930.18,670.76 L931.81,678.80 L931.31,688.90 L932.48,696.52 L935.56,702.42 L937.90,702.23 L939.40,706.81 L940.98,723.00 L937.65,733.10 L937.06,747.96 L933.73,756.15 L934.31,767.39 L932.89,774.44 L934.64,781.11 L929.97,785.11 L926.89,783.77 L921.55,811.97 L916.21,819.21 L915.54,850.07 L908.87,853.31 L907.54,869.89 L904.95,882.27 L900.70,884.75 L899.20,890.65 L892.02,882.84 L888.10,870.46 L883.01,861.12 L872.92,863.98 L863.16,871.60 L857.91,863.60 L854.40,863.22 L847.48,881.13 L838.47,878.27 L835.72,874.84 L833.39,853.89 L828.46,853.12 L825.46,855.98 L819.96,858.08 L807.11,853.89 L808.03,862.27 L807.20,867.03 L808.61,872.56 L808.11,900.94 L813.95,921.14 L802.11,914.66 L795.68,919.80 L789.93,917.90 L781.67,928.38 L760.24,921.90 L758.82,915.80 L746.06,914.66 L739.88,915.42 L730.13,905.32 L723.29,909.52 L720.62,903.99 L715.11,906.28 L707.94,891.61 L703.93,894.08 L699.51,887.80 L687.50,895.04 L685.75,888.75 L683.67,887.99 L678.75,888.56 L666.15,880.37 L662.81,881.70 L657.81,871.79 L653.22,868.36 L651.05,872.56 L652.81,880.75 L651.14,891.99 L647.80,885.51 L644.96,884.94 L635.62,884.37 L627.20,888.18 L626.36,877.70 L623.28,870.08 L609.77,873.13 L609.60,868.36 L611.52,862.27 L609.43,855.03 L604.68,847.79 L600.67,846.45 L589.75,852.93 L588.91,847.41 L585.08,844.93 L583.91,842.26 L575.07,848.55 L571.15,845.88 L559.55,787.59 L551.88,783.58 L545.46,790.44 L536.12,784.54 L534.70,779.20 L529.36,778.06 L528.69,775.58 L526.52,760.91 L525.19,776.73 L519.85,777.30 L514.26,773.49 L507.67,781.87 L501.00,775.58 L498.75,769.11 L496.00,773.30 L492.24,771.77 L488.74,776.54 L481.32,776.73 L478.65,771.77 L473.81,771.01 L472.73,773.30 L471.22,786.82 L467.47,786.82 L466.30,789.30 L463.05,815.97 L453.54,822.83 L452.12,827.21 L446.79,825.69 L445.37,831.21 L440.28,838.07 L433.52,837.88 L430.77,842.26 L430.27,851.79 L427.02,861.70 L427.60,867.98 L426.68,869.89 L425.43,867.22 L422.60,871.79 L423.26,880.37 L424.51,881.32 L419.51,885.70 L415.51,883.22 L412.67,887.03 L407.17,881.13 L406.58,885.51 L408.08,892.56 L407.00,897.70 L402.75,883.61 L400.49,884.75 L395.57,879.41 L394.49,866.84 L392.32,867.03 L387.90,860.55 L389.48,846.26 L379.81,844.93 L376.80,855.60 L377.39,872.17 L387.98,920.57 L386.90,939.62 L379.72,964.77 L373.22,971.43 L368.05,980.77 L365.96,972.39 L361.54,964.58 L355.37,960.38 L346.69,960.57 L341.69,937.90 L332.51,921.52 L331.76,908.37 L333.93,897.13 L331.18,886.46 L325.68,885.32 L318.75,892.37 L307.91,915.04 L303.74,917.52 L292.81,916.76 L291.56,914.09 L303.66,880.75 L301.32,875.41 L295.23,876.56 L282.72,865.32 L276.21,867.60 L273.46,876.37 L270.38,876.94 L261.53,868.17 L244.43,811.02 L231.84,799.78 L225.58,803.02 L222.75,812.35 L222.25,832.17 L218.58,834.83 L214.16,830.26 L191.64,818.83 L190.22,814.45 L191.22,802.06 L187.30,793.11 L180.38,799.59 L174.87,786.63 L163.95,778.06 L159.44,785.30 L154.10,803.40 L154.52,813.69 L158.02,823.97 L155.94,827.97 L153.10,827.59 L148.60,811.97 Z M103.79,456.55 L104.31,456.66 L102.39,444.27 L103.79,456.55 Z M696.51,114.68 L695.50,115.04 L701.85,119.82 L696.51,114.68 Z M396.16,841.69 L398.19,838.69 L389.48,846.26 L396.16,841.69 Z M253.44,252.23 L253.87,254.21 L254.86,245.18 L253.44,252.23 Z M258.20,274.14 L258.78,272.43 L257.61,271.44 L258.20,274.14 Z M261.78,287.23 L262.20,287.10 L262.02,286.28 L261.78,287.23 Z M277.21,343.49 L281.47,336.25 L278.55,340.82 L277.21,343.49 Z M271.29,358.35 L270.55,360.33 L277.13,353.59 L271.29,358.35 Z M269.87,359.30 L263.95,373.97 L269.12,361.78 L269.78,361.11 L269.87,359.30 Z M276.88,574.97 L279.13,563.35 L280.05,556.11 L276.88,574.97 Z M271.13,601.83 L276.26,609.69 L269.62,597.45 L271.13,601.83 Z M281.55,622.94 L281.30,618.98 L280.76,617.99 L281.55,622.94 Z M285.72,659.75 L283.80,659.18 L281.64,660.70 L285.72,659.75 Z M288.81,666.23 L288.16,667.22 L289.31,665.65 L285.97,666.23 L288.81,666.23 Z M293.65,671.94 L302.74,656.51 L293.81,670.23 L290.64,672.70 L293.65,671.94 Z M294.90,641.46 L287.97,630.60 L293.56,639.55 L294.90,641.46 Z M305.15,638.18 L303.82,634.98 L304.91,638.11 L305.15,638.18 Z M330.60,660.51 L331.15,660.31 L330.38,658.90 L330.60,660.51 Z M332.01,686.05 L332.01,686.04 L333.43,683.75 L332.01,686.05 Z M354.21,739.55 L354.87,738.62 L352.92,732.62 L354.21,739.55 Z M376.39,760.72 L379.89,759.77 L372.30,759.96 L376.39,760.72 Z M368.88,784.73 L367.30,797.11 L369.40,783.70 L368.88,784.73 Z M368.49,799.67 L368.49,799.67 L367.30,797.11 L368.49,799.67 Z M367.51,822.15 L368.21,820.74 L369.38,826.26 L367.71,814.64 L367.51,822.15 Z M364.72,856.73 L365.88,855.98 L369.55,838.07 L364.72,856.73 Z M346.86,860.36 L346.28,865.70 L347.47,859.27 L346.86,860.36 Z M348.70,870.46 L347.11,865.89 L346.28,865.70 L348.70,870.46 Z M264.96,481.51 L265.45,480.85 L265.27,480.33 L264.96,481.51 Z M187.55,63.43 L193.22,53.52 L186.88,63.19 L187.55,63.43 Z M205.48,187.27 L205.62,186.48 L205.22,187.10 L205.82,190.12 L205.48,187.27 Z M200.06,262.90 L200.42,256.13 L200.14,257.95 L200.06,262.90 Z M200.90,281.95 L201.14,280.56 L199.48,283.29 L200.90,281.95 Z M195.66,299.12 L197.56,295.10 L195.22,298.91 L195.66,299.12 Z M198.91,322.00 L199.81,315.48 L198.48,321.96 L198.91,322.00 Z M200.69,333.37 L202.48,331.68 L200.65,331.17 L200.90,331.68 L200.69,333.37 Z M190.87,354.55 L193.54,356.70 L191.64,353.59 L190.87,354.55 Z M184.13,376.26 L182.05,366.73 L180.54,365.21 L184.13,376.26 Z M177.62,434.18 L178.96,433.60 L175.71,432.65 L177.62,434.18 Z M181.86,455.97 L181.54,451.70 L178.63,442.75 L179.04,446.18 L181.86,455.97 Z M174.96,469.42 L173.12,475.14 L177.96,465.42 L172.12,469.61 L174.96,469.42 Z M178.12,514.57 L177.46,506.19 L177.37,524.10 L178.12,514.57 Z M174.27,527.89 L174.45,528.10 L177.37,524.10 L174.27,527.89 Z M204.32,525.62 L203.45,522.96 L203.87,526.55 L204.32,525.62 Z M205.15,531.72 L204.25,529.76 L204.82,534.58 L205.15,531.72 Z M206.90,594.02 L198.39,570.59 L202.65,584.68 L206.90,594.02 Z M193.81,599.55 L191.89,589.26 L190.05,579.73 L193.81,599.55 Z M188.22,631.74 L188.89,632.38 L188.37,628.92 L187.90,632.30 L188.22,631.74 Z M190.40,632.64 L189.83,633.27 L190.22,633.65 L190.40,632.64 Z M204.65,650.98 L202.48,651.37 L195.81,654.99 L204.65,650.98 Z M180.04,675.18 L184.83,676.27 L184.80,671.56 L184.63,676.13 L180.04,675.18 Z M197.98,715.76 L188.88,716.33 L190.64,717.09 L197.98,715.76 Z M218.55,674.15 L217.58,678.61 L218.55,674.15 L218.55,674.15 Z M239.01,685.85 L235.43,679.94 L236.76,682.99 L239.01,685.85 Z M270.12,713.86 L273.88,703.38 L270.21,711.00 L261.87,725.10 L271.13,709.85 L270.12,713.86 Z M271.46,715.95 L277.38,719.38 L270.12,713.86 L271.46,715.95 Z M290.23,810.83 L289.69,807.45 L289.69,807.45 L290.23,810.83 Z M64.86,530.01 L60.94,535.53 L68.78,526.39 L64.86,530.01 Z M77.45,537.63 L78.87,541.06 L77.74,536.57 L77.45,537.63 Z M81.45,531.91 L83.96,519.53 L83.37,518.99 L81.45,531.91 Z M82.70,503.52 L88.04,502.95 L82.47,503.25 L82.70,503.52 Z M102.76,499.03 L103.42,499.28 L103.15,497.95 L102.76,499.03 Z M115.57,483.90 L116.90,479.90 L119.91,470.37 L115.57,483.90 Z M123.74,488.09 L124.58,509.81 L124.49,493.05 L123.74,488.09 Z M138.59,525.62 L140.09,524.10 L140.05,522.11 L138.59,525.62 Z M140.95,519.94 L146.68,520.10 L141.68,518.19 L140.95,519.94 Z M152.10,487.52 L152.05,487.53 L152.76,487.78 L151.85,483.52 L152.10,487.52 Z M179.24,729.14 L178.78,729.58 L181.13,731.76 L179.24,729.14 Z M198.39,784.92 L198.75,787.94 L199.14,773.87 L198.39,784.92 Z M197.51,791.92 L195.56,794.63 L194.72,799.21 L197.51,791.92 Z M54.27,595.16 L55.35,591.54 L57.85,577.45 L57.58,576.50 L54.27,595.16 Z M74.55,597.74 L74.45,596.31 L71.95,596.12 L74.55,597.74 Z M82.06,602.42 L86.63,605.26 L91.45,605.95 L91.47,605.84 L82.06,602.42 Z M120.10,590.88 L124.16,583.16 L120.66,589.83 L118.07,587.17 L120.10,590.88 Z M139.30,599.71 L139.11,597.29 L138.77,598.89 L139.30,599.71 Z M141.51,621.84 L145.68,613.83 L143.26,618.22 L141.51,621.84 Z M186.05,635.55 L186.82,634.19 L185.52,634.15 L186.05,635.55 Z M142.34,701.14 L136.67,707.19 L142.01,701.85 L142.34,701.14 Z M171.54,664.51 L170.12,690.61 L171.12,673.47 L171.54,664.51 Z M170.03,658.80 L169.59,658.95 L171.54,664.51 L170.03,658.80 Z M175.29,736.15 L177.95,730.38 L176.12,732.14 L175.29,736.15 Z M85.79,688.59 L84.12,682.80 L85.29,689.09 L85.79,688.59 Z M106.39,696.52 L104.19,685.40 L104.47,691.18 L106.39,696.52 Z M139.92,635.74 L142.34,645.27 L141.42,638.79 L139.92,635.74 Z M55.10,645.46 L54.21,628.48 L53.51,631.36 L55.10,645.46 Z M81.34,626.59 L82.62,623.74 L79.45,625.65 L81.45,626.03 L81.34,626.59 Z M91.55,568.11 L87.04,560.87 L93.46,571.92 L91.55,568.11 Z M110.48,577.83 L107.31,554.20 L106.73,552.38 L107.89,558.96 L110.48,577.83 Z M123.74,553.06 L116.90,539.53 L119.57,547.34 L123.74,553.06 Z M146.76,566.59 L145.85,563.92 L146.76,566.62 L146.76,566.59 Z M164.86,558.77 L165.61,543.72 L164.53,561.06 L166.29,568.93 L164.86,558.77 Z M139.82,593.99 L140.42,593.45 L140.46,590.99 L139.82,593.99 Z M57.35,566.97 L54.93,570.21 L54.51,566.59 L54.16,571.81 L57.35,566.97 Z M53.76,537.82 L57.37,536.34 L55.10,535.72 L53.76,537.82 Z M58.98,539.90 L60.35,533.25 L59.14,535.62 L59.35,535.53 L58.98,539.90 Z M99.64,540.87 L98.36,527.67 L97.97,527.72 L99.64,540.87 Z M104.23,527.40 L103.89,526.96 L99.18,527.56 L100.22,529.05 L104.23,527.40 Z M103.31,503.33 L104.89,506.57 L103.77,501.00 L103.31,503.33 Z M165.20,534.58 L165.20,530.01 L164.78,530.20 L165.20,534.58 Z M98.80,456.09 L93.80,453.42 L98.47,457.62 L98.80,456.09 Z M99.64,455.70 L98.55,457.69 L99.30,458.37 L99.64,455.70 Z M150.03,456.29 L149.48,455.60 L148.93,459.52 L150.03,456.29 Z M75.80,499.03 L76.03,500.48 L78.37,498.57 L75.80,499.03 Z M84.96,454.18 L85.15,456.21 L85.74,452.19 L84.96,454.18 Z M166.44,423.21 L167.03,423.89 L167.30,423.59 L166.44,423.21 Z M169.85,424.70 L172.12,428.27 L170.62,425.03 L169.85,424.70 Z M162.44,418.74 L163.18,419.56 L161.86,412.08 L162.44,418.74 Z M179.58,169.15 L179.96,169.17 L180.63,163.45 L179.58,169.15 Z M194.81,236.61 L194.27,235.86 L194.52,238.83 L194.81,236.61 Z M214.07,749.29 L217.47,758.21 L217.58,757.86 L214.07,749.29 Z M238.57,745.77 L238.43,746.43 L237.01,768.53 L238.57,745.77 Z M246.45,784.24 L242.68,774.82 L245.94,784.16 L246.45,784.24 Z M239.82,739.93 L241.08,739.09 L240.10,738.62 L239.82,739.93 Z M257.95,731.38 L253.69,725.10 L257.45,732.14 L263.73,750.41 L257.95,731.38 Z M199.24,733.74 L197.73,735.76 L195.56,747.58 L195.39,753.67 L198.31,735.76 L198.89,737.86 L199.24,733.74 Z M235.34,703.38 L237.09,715.38 L235.63,702.33 L235.34,703.38 Z M215.49,298.53 L215.58,293.77 L215.33,304.05 L216.43,307.21 L215.49,298.53 Z M216.82,310.80 L216.58,311.29 L216.97,312.19 L216.82,310.80 Z M217.84,314.19 L218.66,316.06 L220.00,314.91 L217.84,314.19 Z M228.21,312.53 L229.50,309.96 L229.55,308.59 L228.21,312.53 Z M229.62,306.41 L229.67,304.62 L228.37,302.06 L229.62,306.41 Z M227.16,297.85 L228.17,296.05 L226.92,297.00 L227.16,297.85 Z M224.67,278.14 L225.10,270.71 L224.67,271.86 L224.67,278.14 Z M226.77,266.26 L230.42,261.95 L228.17,262.52 L226.77,266.26 Z M231.76,309.20 L231.76,308.63 L231.09,310.68 L233.76,307.86 L231.76,309.20 Z M253.61,348.06 L251.61,348.25 L257.11,348.25 L253.61,348.06 Z M273.54,686.99 L272.31,686.35 L277.30,701.47 L273.54,686.99 Z M184.05,470.18 L188.05,468.66 L191.05,469.04 L189.05,467.33 L184.05,470.18 Z M203.56,443.32 L205.73,436.27 L205.19,434.29 L203.56,443.32 Z M222.37,491.14 L224.75,494.76 L226.67,495.14 L222.47,491.03 L222.37,491.14 Z M249.34,490.25 L249.11,490.38 L248.46,493.74 L249.34,490.25 Z M243.68,478.76 L242.41,478.63 L249.11,490.38 L243.68,478.76 Z M254.44,491.71 L251.44,489.05 L250.71,489.47 L254.44,491.71 Z M218.74,662.99 L216.91,665.65 L216.24,670.80 L218.74,662.99 Z M248.86,613.07 L246.85,614.98 L246.19,616.78 L248.86,613.07 Z M259.70,679.75 L263.45,682.42 L267.37,685.66 L269.78,685.02 L259.70,679.75 Z M256.92,655.05 L256.61,653.84 L255.81,653.78 L256.92,655.05 Z M257.36,658.22 L258.20,660.13 L257.60,657.75 L257.36,658.22 Z M242.60,626.60 L243.31,627.27 L243.60,623.88 L242.60,626.60 Z M207.82,538.76 L208.65,539.91 L209.23,539.01 L207.82,538.76 Z M229.84,540.10 L225.50,544.49 L225.71,546.62 L226.50,544.10 L229.84,540.10 Z M226.84,558.01 L229.16,566.38 L229.00,562.78 L226.84,558.01 Z M200.31,385.02 L195.97,384.64 L200.65,387.19 L200.31,385.02 Z M200.65,390.36 L201.81,395.68 L201.90,395.12 L200.93,388.96 L200.65,390.36 Z M238.16,385.87 L230.42,389.40 L237.01,388.07 L238.16,385.87 Z M242.77,378.74 L242.39,379.44 L246.10,380.07 L242.77,378.74 Z M248.94,374.16 L248.05,376.01 L249.17,374.91 L248.94,374.16 Z M257.20,394.36 L258.86,399.31 L257.53,404.46 L259.11,401.60 L260.60,402.59 L257.20,394.36 Z M222.00,460.28 L223.67,455.32 L223.60,454.18 L222.00,460.28 Z M241.51,477.05 L241.06,474.44 L240.85,475.90 L241.51,477.05 Z M202.31,340.82 L204.32,348.44 L206.34,350.50 L202.31,340.82 Z M208.23,355.05 L208.43,358.39 L208.74,356.26 L208.23,355.05 Z M214.72,355.55 L215.49,357.40 L219.75,357.02 L214.72,355.55 Z M235.01,355.87 L232.76,361.59 L230.26,357.97 L232.77,362.87 L235.01,355.87 Z M239.51,366.54 L239.98,367.25 L239.35,360.07 L239.51,366.54 Z M202.23,369.59 L204.40,374.16 L201.40,364.07 L202.23,369.59 Z M207.81,362.76 L207.32,363.11 L206.23,373.78 L207.81,362.76 Z M254.07,330.09 L250.94,316.63 L253.28,329.39 L254.07,330.09 Z M203.90,162.69 L203.81,171.26 L206.82,167.64 L204.32,169.74 L203.90,162.69 Z M215.91,179.46 L210.82,172.41 L206.82,167.64 L215.91,179.46 Z M207.40,176.60 L205.73,183.46 L206.04,184.16 L207.40,176.60 Z M315.92,817.12 L315.23,801.86 L314.67,802.25 L315.92,817.12 Z M326.34,790.06 L323.03,784.27 L323.01,786.44 L326.34,790.06 Z M328.34,788.16 L338.44,777.87 L326.34,790.06 L328.34,788.16 Z M313.00,865.13 L313.75,860.55 L313.66,854.84 L313.00,865.13 Z M324.26,844.20 L324.92,844.84 L328.51,842.64 L324.26,844.20 Z M350.80,810.06 L343.61,796.73 L347.86,806.26 L350.80,810.06 Z M366.73,823.72 L360.96,823.21 L366.13,824.93 L366.73,823.72 Z M303.52,705.14 L304.25,708.69 L304.57,708.33 L303.52,705.14 Z M302.99,697.47 L303.49,684.71 L302.24,698.80 L302.53,700.23 L302.99,697.47 Z M309.08,697.47 L307.12,702.86 L307.41,702.81 L309.08,697.47 Z M328.63,687.05 L328.01,688.90 L328.19,702.05 L329.01,698.99 L328.76,689.28 L328.63,687.05 Z M297.82,762.44 L307.08,761.10 L307.91,759.82 L297.82,762.44 Z M292.40,754.05 L294.65,759.01 L297.82,762.44 L292.40,754.05 Z M308.97,758.17 L309.91,756.72 L310.41,744.15 L308.97,758.17 Z M319.92,745.86 L323.26,762.82 L321.92,755.96 L319.92,745.86 Z M330.64,734.03 L330.52,731.97 L330.35,732.91 L330.64,734.03 Z M330.89,730.05 L331.37,729.86 L332.60,721.09 L330.89,730.05 Z M340.02,731.57 L339.85,735.19 L340.77,723.19 L340.02,731.57 Z M346.69,737.86 L350.61,737.48 L339.85,735.19 L346.69,737.86 Z M282.14,689.47 L280.03,679.68 L276.88,684.52 L279.97,680.13 L282.14,689.47 Z M292.81,697.28 L292.73,693.85 L292.07,698.40 L292.81,697.28 Z M349.43,447.77 L348.70,453.42 L354.70,444.85 L349.45,451.89 L349.43,447.77 Z M354.65,451.70 L353.70,450.75 L348.70,453.42 L354.65,451.70 Z M358.56,500.36 L362.54,499.33 L363.14,497.18 L361.71,498.57 L359.12,498.38 L358.56,500.36 Z M365.04,495.33 L364.48,495.88 L365.45,496.80 L365.04,495.33 Z M381.48,542.39 L379.39,535.72 L381.05,543.29 L381.48,542.39 Z M428.86,612.95 L429.27,609.80 L428.44,611.55 L428.86,612.95 Z M429.10,618.03 L428.59,615.84 L428.24,616.40 L429.10,618.03 Z M464.72,586.40 L462.98,593.07 L462.98,593.07 L464.72,586.40 Z M471.72,567.16 L468.72,569.44 L474.06,567.35 L471.72,567.16 Z M480.40,562.78 L476.65,562.20 L482.15,563.54 L480.40,562.78 Z M480.72,577.34 L482.40,571.73 L480.15,576.87 L480.72,577.34 Z M490.91,581.57 L488.07,588.87 L488.99,588.50 L490.91,581.57 Z M493.66,568.87 L493.06,573.83 L496.33,562.01 L493.66,568.87 Z M528.10,550.82 L524.52,552.30 L527.44,552.49 L528.10,550.82 Z M548.31,523.95 L547.63,526.01 L548.79,525.05 L548.31,523.95 Z M561.06,542.96 L560.05,541.25 L558.27,541.44 L561.06,542.96 Z M565.39,550.39 L563.93,547.88 L567.06,558.96 L565.39,550.39 Z M586.75,512.48 L582.83,525.43 L586.08,517.81 L586.75,512.48 Z M596.53,518.23 L589.50,514.57 L594.25,518.00 L596.53,518.23 Z M622.36,524.29 L619.36,530.01 L616.86,538.77 L622.36,524.29 Z M627.14,580.33 L626.80,579.68 L626.11,579.54 L627.14,580.33 Z M629.62,584.88 L628.16,582.19 L631.95,599.35 L629.62,584.88 Z M381.64,553.82 L379.14,563.50 L380.47,560.68 L381.64,553.82 Z M357.67,503.53 L356.02,509.35 L356.62,510.57 L357.67,503.53 Z M346.86,539.72 L345.44,540.48 L345.21,543.00 L346.86,539.72 Z M354.20,543.15 L358.78,551.16 L358.29,549.06 L354.20,543.15 Z M362.63,582.02 L361.71,580.68 L365.46,594.02 L362.63,582.02 Z M357.12,586.88 L358.45,586.78 L361.71,580.68 L357.12,586.88 Z M354.85,587.05 L353.78,586.21 L353.96,587.12 L354.85,587.05 Z M350.78,600.31 L349.78,607.74 L349.78,620.12 L350.78,600.31 Z M313.58,445.61 L315.56,446.46 L312.66,442.56 L313.58,445.61 Z M316.67,446.94 L320.75,442.75 L316.17,446.72 L316.67,446.94 Z M336.18,457.61 L323.76,446.75 L321.25,445.80 L336.18,457.61 Z M283.80,558.58 L285.14,562.97 L284.41,556.20 L283.80,558.58 Z M305.91,546.39 L311.58,552.30 L305.24,545.06 L301.82,545.25 L305.91,546.39 Z M340.69,547.15 L339.35,549.82 L339.42,551.51 L340.69,547.15 Z M339.91,555.41 L339.55,554.99 L339.58,555.94 L339.91,555.41 Z M341.19,551.15 L340.93,553.80 L344.78,547.72 L341.19,551.15 Z M315.58,598.02 L309.99,581.83 L315.61,598.62 L317.92,593.45 L315.58,598.02 Z M333.18,604.13 L332.68,612.12 L333.93,605.26 L333.18,604.13 Z M336.02,614.98 L334.10,613.07 L334.42,612.76 L332.68,612.12 L336.02,614.98 Z M337.69,619.55 L337.29,620.00 L337.87,622.30 L337.69,619.55 Z M322.73,531.16 L322.95,529.62 L320.34,531.91 L322.73,531.16 Z M327.51,493.43 L326.76,473.80 L326.89,485.98 L326.93,485.81 L327.51,493.43 Z M281.58,469.13 L286.56,473.80 L282.72,469.04 L281.58,469.13 Z M290.26,471.79 L290.27,471.80 L291.48,471.14 L290.26,471.79 Z M318.00,470.76 L317.08,464.09 L317.29,472.68 L318.00,470.76 Z M284.89,345.21 L290.23,349.40 L285.81,345.78 L284.99,343.99 L284.89,345.21 Z M291.90,355.23 L291.90,355.23 L290.23,349.40 L291.90,355.23 Z M312.25,358.73 L310.81,356.61 L313.66,361.97 L312.25,358.73 Z M316.25,329.20 L312.66,345.78 L316.76,329.06 L316.25,329.20 Z M319.00,328.44 L317.65,328.82 L319.92,331.49 L319.00,328.44 Z M322.59,358.16 L316.50,344.06 L322.86,359.37 L322.59,358.16 Z M277.80,396.26 L279.30,396.26 L282.64,393.60 L277.80,396.26 Z M288.49,366.38 L286.39,364.83 L286.14,358.35 L285.72,363.69 L287.72,367.31 L288.49,366.38 Z M287.97,375.12 L279.47,369.40 L282.05,371.69 L287.97,375.12 Z M333.68,415.89 L332.60,427.70 L334.43,408.46 L333.68,415.89 Z M330.04,429.20 L329.68,428.84 L330.18,436.27 L330.04,429.20 Z M298.48,305.96 L297.46,304.81 L300.32,312.25 L302.65,317.58 L298.48,305.96 Z M311.47,308.16 L308.33,311.29 L311.08,309.39 L311.47,308.16 Z M370.38,796.73 L374.86,799.21 L373.30,796.92 L370.38,796.73 Z M376.49,801.61 L378.22,812.35 L377.06,802.45 L376.49,801.61 Z M406.16,832.36 L403.83,839.22 L405.41,836.36 L406.16,832.36 Z M399.99,836.02 L400.41,835.40 L399.99,834.71 L399.99,836.02 Z M370.13,669.08 L373.64,669.08 L358.87,666.42 L370.13,669.08 Z M400.66,662.99 L404.66,666.23 L412.50,667.75 L402.66,663.75 L400.66,662.99 Z M423.93,672.32 L431.52,666.04 L421.26,673.47 L423.93,672.32 Z M456.29,663.94 L458.30,648.13 L453.54,684.71 L456.29,663.94 Z M457.54,643.17 L454.63,624.88 L458.30,648.13 L457.54,643.17 Z M474.37,679.56 L473.14,675.94 L470.39,672.32 L474.37,679.56 Z M479.56,708.71 L477.40,688.52 L476.12,684.73 L479.56,708.71 Z M493.91,632.12 L488.91,628.12 L495.66,635.74 L493.91,632.12 Z M495.25,630.79 L496.06,626.50 L493.91,632.12 L495.25,630.79 Z M505.00,607.74 L500.50,609.26 L498.67,612.88 L505.00,607.74 Z M512.18,610.79 L514.93,597.45 L510.98,613.46 L512.18,610.79 Z M514.47,585.39 L513.68,586.78 L514.93,597.45 L514.47,585.39 Z M545.12,641.84 L545.10,639.92 L543.12,642.03 L545.12,641.84 Z M545.08,638.87 L545.04,635.74 L544.62,630.03 L544.46,638.60 L545.08,638.87 Z M568.48,619.17 L567.89,615.74 L567.23,626.60 L568.48,619.17 Z M360.12,711.76 L359.76,711.46 L360.79,716.33 L360.12,711.76 Z M367.63,709.09 L369.21,708.71 L368.85,714.52 L369.30,714.05 L369.30,708.53 L367.63,709.09 Z M368.96,718.43 L368.67,717.44 L368.55,719.38 L368.96,718.43 Z M376.47,742.24 L375.99,743.63 L377.06,744.27 L376.47,742.24 Z M381.89,741.67 L377.82,744.72 L378.14,744.91 L381.89,741.67 Z M391.99,757.86 L391.74,768.91 L391.15,800.54 L391.99,757.86 Z M424.50,694.42 L425.60,690.99 L424.01,694.23 L421.76,694.42 L424.50,694.42 Z M423.01,758.44 L428.27,762.63 L432.36,762.63 L423.01,758.44 Z M373.39,638.22 L370.55,638.41 L373.05,639.74 L380.22,634.22 L373.39,638.22 Z M395.24,610.21 L391.32,618.22 L396.02,610.08 L395.24,610.21 Z M426.18,619.74 L418.26,609.07 L428.27,622.79 L426.18,619.74 Z M463.97,602.21 L464.47,595.54 L463.45,602.12 L463.97,602.21 Z M464.89,628.93 L462.37,622.76 L462.80,624.88 L464.89,628.93 Z M470.22,634.79 L467.51,634.02 L468.30,635.55 L470.22,634.79 Z M450.20,610.98 L447.22,613.63 L447.62,614.79 L450.20,610.98 Z M570.23,577.45 L575.49,590.40 L579.16,598.59 L570.23,577.45 Z M591.83,610.60 L589.09,610.43 L589.50,611.93 L591.83,610.60 Z M603.51,632.69 L600.59,633.83 L601.01,634.22 L603.51,632.69 Z M515.85,582.97 L515.00,584.45 L521.02,586.02 L515.85,582.97 Z M535.49,604.29 L534.12,606.92 L535.12,606.40 L535.49,604.29 Z M362.63,611.55 L363.25,612.42 L362.93,609.82 L362.63,611.55 Z M363.71,633.84 L367.46,636.12 L363.04,631.17 L363.71,633.84 Z M562.36,567.23 L562.97,566.78 L561.72,559.92 L562.36,567.23 Z M554.88,544.87 L555.48,541.75 L554.88,541.82 L554.88,544.87 Z M598.17,175.07 L604.18,176.22 L604.95,174.65 L602.68,175.26 L593.58,172.98 L599.26,177.55 L598.17,175.07 Z M625.75,286.65 L610.87,281.20 L610.87,281.20 L624.86,287.10 L625.75,286.65 Z M621.75,372.43 L621.69,373.78 L622.70,377.20 L621.75,372.43 Z M625.51,386.78 L625.78,387.69 L627.03,385.79 L625.51,386.78 Z M611.30,465.65 L611.28,465.69 L611.40,465.78 L611.30,465.65 Z M616.03,471.91 L626.20,494.00 L618.61,475.33 L616.03,471.91 Z M629.60,494.68 L630.62,498.38 L630.03,494.76 L629.60,494.68 Z M626.28,506.00 L631.29,502.19 L629.45,501.81 L630.62,498.38 L626.28,506.00 Z M668.24,548.30 L676.91,563.92 L671.91,553.63 L668.24,548.30 Z M761.76,589.62 L762.91,587.54 L763.82,575.16 L761.76,589.62 Z M761.40,566.40 L759.40,565.82 L755.57,565.44 L761.40,566.40 Z M803.36,513.05 L808.11,534.77 L806.03,524.10 L803.36,513.05 Z M825.88,551.73 L821.29,554.20 L826.48,551.75 L825.88,551.73 Z M835.47,609.98 L837.72,613.07 L839.94,613.53 L835.47,609.98 Z M887.52,538.39 L894.04,528.84 L891.19,530.96 L887.52,538.39 Z M920.80,501.43 L918.45,492.99 L918.55,495.90 L920.80,501.43 Z M918.30,488.47 L918.34,489.85 L919.89,486.18 L916.00,488.21 L918.30,488.47 Z M567.08,438.25 L563.97,441.42 L566.98,438.56 L567.08,438.25 Z M570.90,434.37 L569.72,435.57 L577.74,437.80 L570.90,434.37 Z M590.25,438.56 L586.58,451.13 L588.16,446.75 L590.25,438.56 Z M593.58,464.09 L594.42,459.71 L590.50,469.80 L593.58,464.09 Z M600.14,494.07 L599.84,483.71 L599.51,494.76 L600.14,494.07 Z M607.69,473.04 L606.18,473.04 L607.01,474.95 L607.69,473.04 Z M609.77,317.20 L607.85,314.91 L603.84,311.48 L609.77,317.20 Z M557.47,301.58 L561.10,307.15 L554.97,295.86 L557.47,301.58 Z M563.81,311.29 L569.56,314.15 L561.51,307.77 L563.81,311.29 Z M689.94,809.19 L693.34,783.20 L689.76,806.45 L689.94,809.19 Z M773.53,741.46 L773.16,744.53 L774.50,749.48 L773.53,741.46 Z M780.25,655.75 L783.59,668.89 L786.93,679.75 L780.25,655.75 Z M834.55,685.66 L841.98,675.75 L830.63,688.71 L828.61,691.82 L834.55,685.66 Z M850.86,691.96 L841.89,693.47 L850.32,692.90 L850.86,691.96 Z M813.12,776.92 L818.46,787.20 L820.46,788.92 L813.12,776.92 Z M822.63,785.68 L824.67,781.29 L822.40,785.40 L822.63,785.74 L822.63,785.68 Z M822.99,788.21 L822.79,790.82 L825.29,804.16 L822.99,788.21 Z M778.93,754.28 L778.90,754.24 L778.35,772.10 L779.17,767.01 L778.93,754.28 Z M771.41,628.88 L769.24,624.69 L769.08,626.22 L771.41,628.88 Z M769.43,622.82 L770.21,621.78 L769.58,621.45 L769.43,622.82 Z M778.67,612.69 L783.51,613.52 L782.67,612.50 L778.67,612.69 Z M784.66,614.92 L785.46,617.47 L785.18,615.55 L784.66,614.92 Z M827.16,624.01 L828.63,628.69 L828.05,624.50 L827.16,624.01 Z M685.67,680.51 L687.08,687.61 L686.17,677.66 L685.67,680.51 Z M682.56,673.72 L676.58,667.18 L680.66,673.08 L682.56,673.72 Z M681.06,597.32 L683.42,591.35 L681.08,595.73 L681.06,597.32 Z M781.92,628.88 L782.22,629.57 L783.59,622.98 L781.92,628.88 Z M786.76,640.13 L785.26,634.60 L783.61,632.82 L786.76,640.13 Z M640.57,483.24 L639.88,482.95 L639.71,490.00 L640.57,483.24 Z M665.90,476.11 L665.32,475.52 L660.56,481.81 L665.90,476.11 Z M668.73,473.09 L668.65,473.04 L668.54,473.29 L668.73,473.09 Z M766.37,423.20 L765.41,415.89 L765.82,421.79 L766.37,423.20 Z M775.75,443.51 L773.33,440.27 L771.86,441.09 L775.75,443.51 Z M803.94,452.85 L804.78,434.56 L803.61,446.94 L803.94,452.85 Z M823.79,490.38 L820.87,496.09 L824.92,490.64 L823.79,490.38 Z M827.05,491.14 L826.08,490.91 L829.05,497.05 L827.05,491.14 Z M835.39,534.39 L833.22,533.44 L837.07,538.94 L835.39,534.39 Z M867.75,517.43 L862.58,516.10 L869.59,518.19 L867.75,517.43 Z M829.41,551.86 L833.05,556.49 L830.72,551.92 L829.41,551.86 Z M753.73,508.67 L745.64,511.34 L746.89,512.86 L753.73,508.67 Z M778.34,490.57 L769.58,483.71 L783.34,494.76 L778.34,490.57 Z M672.91,472.28 L672.27,473.20 L672.41,474.95 L672.91,472.28 Z M682.17,483.33 L681.47,483.33 L681.83,483.90 L682.17,483.33 Z M705.69,477.04 L702.60,476.28 L706.43,479.19 L705.69,477.04 Z M724.87,521.62 L717.70,523.53 L722.62,523.15 L724.87,521.62 Z M726.29,516.48 L728.04,496.09 L724.87,521.62 L726.29,516.48 Z M836.14,472.28 L832.97,474.76 L828.88,482.76 L836.14,472.28 Z M766.42,466.61 L766.32,467.71 L766.49,472.28 L766.42,466.61 Z M638.29,412.46 L689.42,414.55 L630.79,411.70 L638.29,412.46 Z M765.07,392.26 L737.88,401.03 L765.23,392.71 L765.07,392.26 Z M811.78,390.74 L775.00,393.98 L783.01,393.98 L811.78,390.74 Z M663.90,309.20 L663.40,313.20 L664.17,316.24 L663.90,309.20 Z M664.31,316.80 L665.20,320.26 L664.65,312.82 L664.31,316.80 Z M684.57,238.41 L694.01,241.56 L689.59,239.47 L684.57,238.41 Z M801.07,254.07 L797.02,250.33 L794.18,250.71 L801.07,254.07 Z M809.03,257.95 L815.87,256.04 L808.02,257.46 L809.03,257.95 Z M703.58,177.13 L704.35,176.03 L705.77,165.36 L703.58,177.13 Z M693.73,183.95 L700.52,181.55 L702.72,178.37 L693.73,183.95 Z M689.00,186.89 L688.42,192.22 L689.52,186.57 L689.00,186.89 Z M770.46,183.42 L771.16,187.65 L773.00,190.12 L770.46,183.42 Z M769.58,172.79 L769.24,176.03 L769.43,177.17 L769.58,172.79 Z" /></g></svg>