<svg xmlns="http://www.w3.org/2000/svg" viewBox="0 0 1000 1000" width="1000" height="1000"><g fill="#cccccc" stroke="#222" stroke-width="2"><path d="M176.20,973.42 L175.20,974.22 L174.19,974.61 L173.69,973.02 L176.20,973.42 Z M145.94,955.75 L144.10,942.84 L149.62,938.87 L146.28,926.75 L129.73,914.24 L127.05,911.66 L126.05,899.75 L129.39,886.84 L118.19,874.73 L118.36,860.03 L124.04,847.72 L131.23,848.91 L135.41,853.48 L143.77,854.47 L148.62,850.50 L153.97,843.35 L146.28,839.58 L157.31,837.39 L180.04,846.53 L182.38,841.56 L193.75,836.60 L198.43,830.04 L200.27,819.12 L205.12,807.60 L216.99,800.46 L221.10,793.82 L220.67,793.70 L223.01,789.34 L215.15,751.21 L181.21,753.79 L164.33,761.14 L157.48,757.96 L153.13,759.55 L129.06,736.91 L118.86,730.75 L111.34,721.62 L101.14,700.37 L95.79,693.62 L94.62,696.99 L94.96,692.23 L80.75,692.82 L68.21,691.83 L19.90,702.36 L22.57,666.41 L21.24,617.56 L25.92,609.82 L37.28,603.06 L46.48,583.21 L70.89,548.85 L71.22,540.31 L67.37,532.77 L50.16,528.79 L46.14,523.83 L43.47,509.13 L66.04,468.03 L70.72,452.54 L57.51,416.60 L46.48,405.28 L28.09,389.79 L19.23,372.51 L21.07,360.59 L31.27,351.86 L39.79,351.66 L46.65,360.79 L53.50,360.79 L47.65,339.15 L89.77,316.71 L89.61,314.52 L116.35,309.56 L132.57,312.14 L136.92,319.09 L176.70,319.89 L186.90,322.07 L194.09,307.77 L194.76,299.63 L204.28,296.06 L211.64,286.92 L220.67,285.53 L228.36,279.77 L230.70,267.66 L234.87,261.50 L247.58,258.32 L249.25,253.56 L249.75,237.08 L254.10,225.96 L254.93,211.86 L258.78,207.69 L258.95,190.41 L260.79,189.61 L258.28,171.54 L265.63,179.69 L268.81,174.32 L265.47,168.76 L270.15,167.37 L269.98,164.99 L266.64,162.01 L257.78,162.21 L257.94,144.34 L254.10,139.57 L263.63,136.59 L268.64,139.57 L283.85,138.78 L291.04,130.83 L299.07,128.25 L303.91,119.32 L304.25,121.90 L308.93,119.91 L316.45,106.61 L325.14,103.23 L330.33,91.32 L334.84,90.72 L342.03,83.77 L356.24,84.37 L371.28,78.61 L370.78,111.37 L378.30,110.58 L378.14,122.30 L382.48,122.10 L378.30,127.26 L385.49,121.30 L387.33,112.76 L395.35,113.36 L405.55,108.79 L405.22,101.05 L411.74,99.06 L421.43,106.21 L425.28,104.03 L429.62,108.79 L433.64,107.60 L433.30,114.75 L527.92,117.53 L524.24,134.21 L526.25,126.47 L534.10,128.85 L529.92,136.39 L533.43,166.58 L536.11,169.96 L532.60,170.95 L529.59,167.37 L533.43,176.11 L528.59,188.82 L535.94,200.74 L526.75,219.40 L536.44,228.34 L540.12,238.66 L533.10,244.42 L534.94,249.59 L526.08,253.96 L526.58,258.92 L544.13,275.01 L545.47,280.76 L551.82,286.72 L557.17,289.10 L564.02,286.13 L563.64,286.83 L573.72,274.01 L580.24,271.43 L590.60,269.64 L600.97,276.99 L614.00,269.64 L612.67,266.07 L612.00,257.73 L618.02,255.54 L609.83,249.79 L612.34,244.42 L610.16,241.84 L617.02,233.50 L614.68,231.52 L614.84,224.17 L607.32,215.23 L616.68,201.33 L623.54,198.55 L623.70,190.21 L626.97,187.21 L626.21,183.26 L629.72,176.51 L628.88,170.95 L641.26,160.82 L646.44,164.39 L645.94,158.44 L654.63,152.28 L657.97,143.15 L660.65,144.93 L661.48,132.42 L666.00,132.03 L666.00,124.88 L676.36,114.15 L680.20,116.54 L684.55,101.84 L689.90,101.64 L695.58,89.73 L703.78,86.95 L708.79,79.00 L726.34,85.76 L728.18,81.39 L726.51,79.60 L730.52,74.44 L728.85,72.85 L738.04,58.75 L738.21,52.59 L745.57,51.60 L751.75,41.67 L753.93,42.07 L752.75,39.68 L758.10,27.77 L768.80,19.23 L784.18,22.41 L791.54,35.91 L791.04,45.25 L813.94,40.88 L817.78,44.65 L822.46,65.50 L835.50,89.13 L855.56,92.91 L869.77,84.96 L865.59,101.25 L873.78,115.54 L871.61,135.00 L880.14,139.97 L882.14,146.52 L887.16,149.70 L887.82,157.05 L893.84,156.45 L901.37,165.19 L904.71,164.00 L908.55,179.09 L915.07,184.25 L919.92,184.25 L922.26,194.78 L924.94,194.78 L923.93,196.76 L927.94,201.33 L927.11,204.91 L929.28,204.51 L928.28,207.29 L935.47,214.83 L934.46,221.79 L936.47,224.17 L933.63,227.74 L939.14,237.47 L933.13,245.81 L934.80,248.20 L931.12,252.17 L932.79,255.74 L929.28,260.31 L929.11,266.67 L925.27,269.25 L927.61,277.39 L933.46,278.18 L936.47,283.35 L934.30,283.54 L936.64,286.52 L935.30,292.48 L938.98,297.05 L937.97,300.23 L943.16,301.22 L941.49,306.18 L947.00,318.30 L947.00,326.24 L955.53,335.77 L954.36,342.52 L961.04,350.86 L963.89,359.20 L966.06,359.20 L965.56,370.13 L975.59,387.60 L974.42,394.55 L967.40,387.60 L966.23,393.16 L978.26,410.24 L980.77,423.35 L975.09,453.93 L977.76,466.24 L972.08,470.01 L971.91,473.99 L979.60,488.09 L959.04,508.34 L924.10,561.56 L909.22,577.65 L887.66,617.56 L881.14,621.33 L842.36,629.08 L820.79,625.11 L811.43,627.69 L801.07,638.61 L789.70,653.50 L770.14,684.28 L765.29,688.06 L753.09,683.69 L721.33,690.04 L676.36,685.87 L650.28,687.07 L628.22,693.62 L614.34,705.33 L603.48,712.48 L596.96,714.67 L587.59,712.29 L582.58,718.84 L583.08,722.02 L569.04,725.59 L543.46,750.02 L534.77,733.93 L542.29,749.22 L505.01,790.53 L481.95,825.68 L472.25,832.82 L459.38,857.65 L453.03,862.41 L438.98,860.83 L430.96,867.18 L425.78,864.80 L396.86,826.07 L376.80,811.97 L395.69,811.97 L365.10,811.38 L329.66,822.30 L312.44,821.70 L303.25,822.90 L294.22,833.42 L288.20,846.33 L247.75,869.76 L225.18,887.83 L202.44,912.85 L195.42,923.38 L178.37,953.36 L171.69,973.02 L165.50,980.77 L159.98,967.27 L148.95,960.71 L145.94,955.75 Z M153.80,936.88 L159.15,931.92 L149.62,938.87 L153.80,936.88 Z M155.97,920.80 L154.80,916.83 L159.15,931.92 L155.97,920.80 Z M260.18,352.32 L259.45,350.47 L251.42,348.68 L260.18,352.32 Z M264.40,365.59 L264.46,363.18 L262.96,359.37 L264.40,365.59 Z M301.74,390.78 L302.13,386.80 L298.51,386.33 L301.74,390.78 Z M306.25,465.65 L312.77,460.88 L308.76,463.26 L306.25,465.65 Z M314.86,503.19 L315.95,500.79 L313.94,495.04 L314.86,503.19 Z M314.28,501.99 L312.77,505.56 L312.48,505.56 L313.34,506.52 L314.76,503.41 L314.28,501.99 Z M279.17,552.62 L292.38,564.34 L288.54,559.77 L279.17,552.62 Z M312.65,602.34 L312.38,599.97 L309.88,599.76 L312.65,602.34 Z M301.57,633.05 L307.76,618.36 L308.43,612.20 L301.57,633.05 Z M368.27,629.87 L383.82,634.44 L347.54,619.75 L368.27,629.87 Z M427.62,606.44 L428.66,605.09 L426.78,604.26 L421.60,605.25 L427.62,606.44 Z M436.19,598.18 L438.65,594.72 L435.54,598.35 L436.19,598.18 Z M453.58,709.35 L455.87,699.18 L456.54,692.63 L453.58,709.35 Z M465.06,714.47 L459.88,703.35 L455.87,699.18 L465.06,714.47 Z M443.50,732.54 L451.35,719.24 L451.79,717.30 L443.50,732.54 Z M262.12,527.80 L267.47,540.71 L272.99,552.82 L262.12,527.80 Z M265.63,787.35 L272.15,777.02 L263.37,788.00 L265.63,787.35 Z M255.94,790.13 L258.82,789.30 L240.73,790.13 L255.94,790.13 Z M152.56,852.46 L153.80,853.08 L159.65,851.49 L152.56,852.46 Z M138.09,902.33 L147.01,910.06 L147.37,909.17 L138.09,902.33 Z M164.80,883.57 L162.09,883.10 L176.03,891.21 L165.17,884.85 L164.80,883.57 Z M210.13,860.63 L192.08,875.12 L210.30,860.63 L217.16,856.06 L210.13,860.63 Z M250.09,700.17 L255.94,713.48 L257.63,713.89 L250.09,700.17 Z M259.40,714.33 L260.79,714.67 L261.34,713.06 L259.40,714.33 Z M172.02,426.52 L165.84,419.57 L162.04,418.42 L172.02,426.52 Z M202.78,480.94 L207.46,492.85 L197.26,466.04 L202.78,480.94 Z M215.13,513.22 L216.49,510.92 L215.91,510.29 L215.13,513.22 Z M226.52,517.87 L247.58,510.52 L224.34,517.67 L226.52,517.87 Z M201.94,526.01 L210.13,521.65 L212.01,518.48 L201.94,526.01 Z M113.59,470.43 L127.55,468.23 L115.02,469.42 L113.59,470.43 Z M358.91,780.60 L365.93,784.37 L367.63,784.31 L358.91,780.60 Z M290.88,677.73 L300.46,677.40 L298.73,676.14 L308.76,670.38 L290.88,677.73 Z M311.77,664.43 L312.77,657.08 L308.76,670.38 L311.77,664.43 Z M305.75,642.58 L302.74,640.80 L312.77,657.08 L305.75,642.58 Z M343.03,645.76 L318.12,635.04 L311.10,632.06 L343.03,645.76 Z M344.20,665.82 L352.39,663.63 L341.36,665.42 L344.20,665.82 Z M304.75,694.21 L326.15,702.55 L317.96,697.59 L304.75,694.21 Z M303.91,679.92 L302.64,678.99 L304.75,694.21 L303.91,679.92 Z M338.52,720.63 L337.51,715.86 L334.67,708.71 L338.52,720.63 Z M342.86,712.48 L341.97,706.71 L341.60,713.28 L342.86,712.48 Z M422.93,639.60 L422.93,639.60 L409.06,643.77 L422.93,639.60 Z M461.93,228.19 L461.56,227.28 L461.55,227.94 L461.93,228.19 Z M452.52,235.69 L475.76,237.87 L468.57,230.52 L464.73,230.02 L473.42,235.69 L452.52,235.69 Z M470.08,240.45 L479.94,238.27 L475.76,237.87 L470.08,240.45 Z M494.96,274.84 L493.86,272.18 L494.15,273.62 L494.96,274.84 Z M498.89,284.41 L498.81,284.22 L488.30,312.14 L498.89,284.41 Z M448.04,369.19 L448.51,369.32 L448.14,368.79 L448.04,369.19 Z M405.06,459.89 L406.39,456.71 L414.24,431.69 L405.06,459.89 Z M438.65,535.55 L437.48,543.89 L437.65,548.85 L438.65,535.55 Z M428.79,596.12 L433.30,577.84 L428.29,593.73 L428.79,596.12 Z M305.25,387.20 L305.42,378.67 L304.92,376.99 L305.25,387.20 Z M326.65,369.53 L332.00,375.09 L326.24,367.83 L326.65,369.53 Z M323.47,356.23 L338.18,326.84 L327.65,344.51 L323.47,356.23 Z M383.49,343.52 L370.78,325.64 L383.99,344.51 L380.81,326.24 L383.49,343.52 Z M316.95,517.87 L317.85,518.69 L317.45,511.12 L316.95,517.87 Z M321.07,521.60 L320.30,519.06 L319.14,519.85 L321.07,521.60 Z M327.97,534.91 L328.32,533.36 L323.97,531.18 L327.97,534.91 Z M357.32,517.41 L357.24,516.88 L356.28,517.60 L357.32,517.41 Z M379.31,523.43 L375.96,517.87 L372.87,517.09 L379.31,523.43 Z M310.94,597.90 L312.26,598.92 L311.77,594.53 L310.94,597.90 Z M321.80,585.79 L322.36,584.27 L311.77,594.53 L321.80,585.79 Z M346.05,594.91 L341.93,590.91 L342.53,592.74 L346.05,594.91 Z M332.65,548.77 L332.33,550.44 L334.17,562.16 L332.65,548.77 Z M432.30,363.77 L446.90,366.99 L445.50,364.96 L432.30,363.77 Z M303.48,247.95 L304.08,244.82 L300.91,226.35 L303.48,247.95 Z M385.32,168.96 L386.16,161.02 L384.15,170.75 L385.32,168.96 Z M331.16,244.03 L333.50,247.01 L347.71,249.79 L339.10,246.86 L338.85,247.80 L331.16,244.03 Z M293.63,273.60 L292.88,265.47 L292.21,271.03 L293.63,273.60 Z M351.39,236.88 L340.02,243.43 L339.38,245.84 L351.39,236.88 Z M486.46,572.28 L485.79,573.20 L487.71,572.50 L486.46,572.28 Z M515.55,560.96 L504.66,566.33 L506.85,565.53 L515.55,560.96 Z M502.17,679.72 L498.97,679.54 L498.87,679.72 L502.17,679.72 Z M544.80,647.55 L547.98,648.74 L559.18,651.52 L544.80,647.55 Z M607.26,642.79 L577.90,662.04 L606.48,645.16 L607.26,642.79 Z M613.34,638.81 L611.61,639.94 L615.18,638.45 L613.34,638.81 Z M655.63,627.49 L651.45,630.87 L651.60,631.38 L653.63,630.47 L655.63,627.49 Z M655.13,639.41 L654.82,637.59 L651.99,640.12 L655.13,639.41 Z M503.01,755.58 L494.99,759.15 L494.37,760.21 L503.01,755.58 Z M483.74,691.28 L487.13,690.24 L491.31,683.89 L483.74,691.28 Z M480.18,404.28 L481.61,405.28 L487.30,404.28 L480.18,404.28 Z M535.44,399.12 L539.87,400.54 L539.79,400.31 L535.44,399.12 Z M541.39,404.87 L541.29,406.47 L543.63,411.23 L541.39,404.87 Z M544.80,416.79 L541.12,415.21 L542.63,417.79 L544.80,416.79 Z M519.59,446.99 L519.39,446.98 L519.67,447.39 L519.59,446.99 Z M525.74,456.40 L527.39,458.85 L527.25,457.70 L525.74,456.40 Z M530.14,462.94 L537.45,473.79 L533.10,464.26 L530.14,462.94 Z M632.40,445.79 L632.12,449.62 L633.23,447.97 L635.40,440.62 L632.40,445.79 Z M716.80,446.67 L715.14,405.08 L715.63,441.02 L715.64,441.02 L716.76,446.68 L716.80,446.67 Z M756.27,457.11 L750.41,460.48 L755.10,457.90 L760.61,467.63 L756.27,457.11 Z M841.21,340.13 L866.76,328.23 L841.21,340.13 L841.21,340.13 Z M869.77,428.11 L868.43,422.16 L861.91,412.23 L869.77,428.11 Z M605.31,498.41 L608.16,495.23 L607.88,494.14 L605.31,498.41 Z M595.62,500.99 L596.92,503.43 L597.62,496.23 L595.62,500.99 Z M598.80,506.95 L604.31,508.34 L597.92,505.30 L598.80,506.95 Z M644.77,559.57 L646.59,563.07 L645.60,552.03 L644.77,559.57 Z M709.12,605.05 L700.43,599.89 L704.44,603.46 L709.12,605.05 Z M710.96,601.48 L714.31,588.37 L709.12,605.05 L710.96,601.48 Z M578.90,509.33 L572.88,520.06 L575.22,516.09 L578.90,509.33 Z M817.95,466.04 L814.10,479.94 L813.77,490.07 L817.95,466.04 Z M504.18,290.89 L510.03,291.29 L502.18,288.29 L504.18,290.89 Z M533.43,297.25 L528.42,297.25 L526.64,299.26 L533.43,297.25 Z M541.00,295.00 L539.79,294.67 L539.36,295.49 L541.00,295.00 Z M555.42,293.47 L554.66,293.47 L554.06,294.26 L555.42,293.47 Z M564.86,291.89 L562.21,289.44 L562.21,289.44 L564.86,291.89 Z M575.56,331.40 L576.93,332.01 L577.09,327.86 L575.56,331.40 Z M575.89,334.98 L576.06,353.84 L576.85,334.01 L575.89,334.98 Z M579.74,386.81 L581.41,392.17 L576.06,353.84 L579.74,386.81 Z M634.57,348.68 L635.34,347.10 L633.22,348.81 L634.57,348.68 Z M637.54,342.62 L634.57,333.98 L636.76,344.22 L637.54,342.62 Z M655.30,343.91 L659.41,342.01 L651.51,342.27 L655.30,343.91 Z M773.01,269.90 L703.94,269.05 L752.59,270.24 L773.01,269.90 Z M839.85,335.37 L841.19,340.04 L841.35,332.79 L839.85,335.37 Z M774.65,166.98 L774.99,219.40 L775.66,250.98 L774.65,166.98 Z M621.32,281.67 L620.69,281.96 L621.53,275.01 L618.52,286.52 L621.32,281.67 Z M186.73,809.19 L191.24,801.45 L200.94,794.90 L191.91,819.52 L191.24,827.86 L187.90,834.22 L176.37,833.62 L176.70,829.25 L186.06,815.15 L186.73,809.19 Z" /></g></svg>