<svg xmlns="http://www.w3.org/2000/svg" viewBox="0 0 1000 1000" width="1000" height="1000"><g fill="#cccccc" stroke="#222" stroke-width="2"><path d="M433.17,967.41 L430.80,965.55 L423.81,963.69 L417.81,959.80 L407.57,960.53 L400.95,959.07 L401.82,960.37 L396.83,962.15 L385.96,959.64 L377.97,963.12 L352.61,964.98 L351.11,961.66 L355.23,955.84 L347.74,950.25 L339.62,950.33 L338.24,945.88 L334.25,942.97 L331.50,937.14 L333.87,931.15 L331.75,924.75 L325.50,916.41 L318.76,913.74 L316.64,911.39 L316.14,908.72 L319.26,902.81 L314.26,899.41 L310.77,892.61 L307.64,891.08 L294.03,868.41 L292.90,863.15 L295.65,859.83 L295.65,855.13 L293.40,848.01 L290.65,846.55 L291.28,843.15 L285.16,834.17 L288.66,832.14 L294.90,831.66 L304.14,828.58 L309.14,823.89 L306.89,818.87 L300.90,813.93 L308.64,808.59 L310.14,804.46 L312.14,797.33 L309.14,796.04 L308.64,792.40 L310.62,787.17 L310.52,784.38 L303.40,781.95 L299.15,773.86 L298.02,769.97 L302.65,761.80 L301.52,756.05 L296.53,755.48 L295.78,751.52 L292.40,749.33 L284.41,747.06 L276.67,747.47 L269.05,744.31 L268.42,741.15 L262.93,738.16 L260.80,722.86 L264.42,722.21 L258.93,717.60 L260.80,714.12 L264.80,714.44 L264.80,713.55 L257.55,706.83 L254.18,705.37 L250.93,706.75 L245.19,704.81 L232.70,696.39 L221.46,680.85 L222.33,675.26 L215.84,673.48 L212.21,670.65 L203.84,669.11 L195.60,660.61 L201.72,657.45 L200.85,652.67 L198.22,641.91 L202.35,638.51 L203.59,630.74 L211.84,630.98 L209.71,625.88 L208.09,623.29 L214.09,612.93 L208.09,604.10 L222.58,593.90 L215.59,587.59 L208.59,573.18 L212.09,571.40 L214.59,567.27 L214.71,559.34 L209.96,553.75 L211.46,551.32 L207.72,550.59 L206.59,551.65 L184.98,545.66 L169.87,534.89 L166.12,529.47 L161.38,514.33 L154.26,506.31 L142.51,501.86 L142.64,499.19 L141.89,496.36 L133.15,495.06 L134.90,490.93 L121.41,481.14 L121.16,473.45 L113.66,467.46 L116.53,460.82 L107.42,458.47 L101.79,453.61 L103.29,450.38 L115.28,443.98 L110.79,440.10 L119.53,434.27 L120.66,427.14 L111.16,420.42 L114.41,413.63 L113.66,407.47 L105.92,406.91 L105.79,402.13 L99.92,399.05 L103.42,392.25 L100.42,389.10 L100.55,384.48 L92.30,382.46 L87.31,378.09 L88.43,374.93 L86.18,368.94 L94.05,361.33 L88.30,358.09 L87.18,353.96 L77.19,348.05 L76.31,341.42 L72.19,337.77 L77.31,330.25 L76.69,328.55 L68.19,323.12 L68.69,320.13 L63.95,314.14 L61.45,307.01 L48.21,300.78 L60.82,286.86 L58.83,283.29 L55.33,282.00 L50.21,276.25 L52.08,273.01 L40.84,257.07 L35.47,254.47 L40.09,250.67 L38.09,247.76 L32.10,244.44 L31.22,237.56 L34.47,232.62 L27.72,225.66 L24.48,224.36 L19.23,216.99 L24.85,217.72 L30.60,220.80 L34.47,219.02 L38.97,219.18 L44.21,224.44 L57.45,227.19 L66.32,223.88 L68.44,221.53 L67.94,211.65 L72.19,204.20 L64.20,199.59 L67.07,195.22 L57.83,186.23 L63.70,179.11 L58.70,174.98 L55.20,168.99 L61.70,163.24 L55.08,158.95 L51.83,145.68 L52.71,143.65 L59.95,142.03 L69.94,145.76 L72.44,137.26 L68.07,131.83 L76.69,128.35 L82.06,129.24 L93.43,122.52 L109.91,118.56 L114.29,115.40 L112.16,111.60 L118.41,105.77 L130.52,109.41 L140.39,106.17 L140.02,104.23 L145.76,99.05 L145.26,93.46 L149.01,91.52 L152.13,93.14 L149.88,95.57 L153.76,99.70 L163.37,102.12 L165.87,104.88 L171.24,106.90 L174.87,106.33 L178.24,108.20 L180.49,109.57 L184.23,112.00 L189.23,112.49 L192.85,110.62 L193.85,107.63 L197.97,110.30 L203.22,110.14 L213.34,107.95 L218.46,103.99 L222.46,103.58 L219.83,98.81 L219.33,90.71 L220.33,86.91 L225.33,85.53 L226.20,81.24 L223.33,72.90 L223.70,64.56 L217.46,49.10 L220.33,48.13 L223.58,44.41 L227.20,43.92 L228.95,41.01 L232.57,40.93 L244.81,46.84 L251.43,46.19 L266.42,48.05 L270.42,46.27 L276.79,47.56 L280.54,46.03 L284.41,46.75 L296.15,41.41 L300.27,42.22 L303.40,40.60 L311.89,29.75 L316.64,27.16 L320.26,28.22 L327.25,34.04 L325.13,35.34 L326.25,36.64 L332.25,35.74 L331.25,34.04 L335.12,29.19 L348.61,27.57 L355.86,30.32 L359.73,30.40 L361.10,33.07 L365.22,34.45 L379.59,36.88 L385.96,33.72 L399.57,32.99 L401.57,29.84 L414.69,27.08 L417.06,24.98 L424.56,22.79 L428.18,19.23 L426.80,22.39 L429.18,24.74 L432.43,23.93 L442.54,26.60 L445.67,30.64 L455.28,32.18 L455.41,34.45 L461.03,35.66 L461.28,37.53 L465.78,35.58 L466.77,33.32 L478.14,38.01 L484.64,42.54 L483.01,46.51 L484.64,44.41 L491.51,46.51 L510.62,43.60 L516.11,47.48 L521.23,48.37 L527.35,46.59 L535.35,50.07 L538.72,50.07 L539.60,54.77 L544.09,55.42 L552.34,62.62 L551.21,65.13 L555.33,65.78 L557.33,64.08 L560.58,64.32 L565.70,69.66 L562.33,70.07 L571.20,74.52 L574.94,79.86 L574.07,82.45 L570.45,83.34 L575.69,89.42 L573.32,93.46 L573.07,95.89 L577.19,96.94 L577.94,99.62 L584.69,99.94 L592.56,110.54 L595.80,110.30 L600.55,111.43 L609.79,117.83 L620.04,120.42 L606.30,120.34 L605.92,121.31 L614.17,122.93 L605.80,121.39 L603.67,123.09 L601.18,127.46 L602.80,135.31 L619.66,164.70 L626.91,175.14 L640.65,193.36 L666.38,221.93 L668.38,222.50 L670.12,227.11 L673.00,227.92 L670.62,233.75 L665.88,234.24 L666.25,240.39 L662.50,241.44 L661.38,244.84 L665.25,253.67 L676.62,268.80 L674.50,272.28 L671.00,273.26 L671.87,277.06 L668.25,281.03 L670.87,287.10 L684.49,304.10 L731.80,349.16 L732.20,349.03 L744.69,359.47 L749.82,360.20 L748.19,362.54 L743.82,362.79 L741.95,363.76 L740.45,367.40 L743.44,372.74 L754.19,383.75 L759.56,386.34 L764.68,400.11 L759.68,404.64 L754.19,402.29 L747.32,404.40 L744.32,409.25 L744.94,417.67 L752.94,432.49 L772.55,456.85 L794.03,476.36 L797.28,477.01 L800.65,475.71 L802.03,476.85 L798.90,479.92 L799.28,482.35 L794.41,485.59 L787.66,486.24 L784.79,485.02 L774.67,484.84 L780.04,485.75 L774.92,489.40 L773.42,496.28 L778.79,509.55 L796.53,534.73 L826.88,568.08 L833.00,570.27 L832.50,573.10 L834.63,575.12 L831.01,576.90 L830.88,578.77 L826.51,580.22 L825.88,582.08 L832.13,592.37 L837.50,594.63 L838.62,596.90 L835.63,600.70 L830.63,600.14 L828.76,603.13 L830.51,609.12 L835.50,615.68 L837.50,616.97 L841.87,617.06 L841.37,618.51 L837.75,619.24 L833.50,621.51 L829.88,620.78 L825.13,621.99 L820.14,625.39 L820.89,633.41 L829.38,647.01 L849.37,667.57 L853.86,671.21 L862.98,676.96 L874.35,680.04 L880.84,678.74 L880.09,676.15 L884.34,671.94 L884.34,674.21 L884.34,674.37 L884.34,675.10 L884.47,675.42 L882.34,677.53 L882.84,680.36 L887.46,681.41 L888.71,683.11 L889.84,687.89 L885.71,687.16 L882.34,691.21 L886.21,704.97 L882.59,708.21 L884.09,711.12 L891.21,716.22 L889.71,719.62 L887.21,721.00 L891.59,726.74 L889.96,731.36 L889.46,730.47 L887.46,732.90 L884.22,733.06 L879.97,735.73 L875.22,742.85 L875.22,750.95 L879.34,754.51 L878.72,757.59 L881.72,759.21 L880.72,760.66 L884.97,765.92 L883.34,767.54 L884.84,773.29 L882.97,772.81 L881.34,774.18 L883.84,776.77 L879.84,778.96 L878.10,782.44 L879.22,786.81 L875.85,787.05 L870.73,781.55 L867.98,780.66 L860.86,781.47 L852.11,784.95 L843.25,784.79 L830.88,781.63 L832.38,780.17 L829.88,774.59 L817.27,773.53 L808.90,775.64 L795.28,782.36 L785.91,793.04 L785.54,794.50 L790.54,799.68 L792.16,804.05 L790.04,809.23 L790.16,819.27 L795.03,821.13 L794.66,824.21 L801.15,838.78 L804.15,841.13 L806.65,840.24 L808.65,841.45 L806.40,843.40 L809.90,847.04 L809.27,855.54 L799.78,848.58 L789.04,846.15 L783.04,848.33 L776.80,847.04 L771.80,837.65 L766.93,835.06 L755.94,836.35 L745.57,844.69 L729.21,845.58 L723.46,849.63 L712.72,848.58 L713.22,854.40 L711.09,861.20 L706.60,867.19 L710.09,874.80 L708.72,884.03 L701.35,885.57 L699.85,888.08 L698.23,888.08 L692.73,884.52 L687.11,883.14 L682.86,878.93 L680.12,879.50 L670.62,876.34 L667.13,879.18 L665.38,884.28 L670.87,885.98 L675.99,891.88 L675.99,895.77 L668.13,896.90 L661.63,900.63 L661.63,906.05 L664.75,910.18 L659.01,915.28 L658.76,918.92 L664.75,923.70 L662.25,925.40 L652.51,921.51 L643.52,925.64 L640.52,930.34 L634.03,934.87 L621.78,935.19 L621.04,938.59 L582.81,937.46 L579.57,942.80 L572.95,945.80 L569.32,949.04 L567.57,954.14 L559.21,958.75 L558.58,963.04 L552.34,968.22 L540.35,972.19 L531.48,971.06 L526.98,973.97 L516.24,974.46 L510.49,979.64 L469.77,978.75 L465.65,980.77 L453.66,971.30 L448.54,971.78 L447.91,969.60 L442.92,969.76 L437.92,966.68 L433.80,965.79 L433.17,967.41 Z M796.03,775.07 L794.41,781.95 L790.94,780.79 L795.28,782.36 L796.03,775.07 Z M758.43,829.15 L757.97,827.10 L755.94,836.35 L758.43,829.15 Z M604.67,182.27 L598.05,191.74 L606.05,181.30 L604.67,182.27 Z M590.31,199.19 L595.93,197.32 L600.30,195.46 L590.31,199.19 Z M597.05,204.93 L606.80,209.71 L596.90,203.88 L597.05,204.93 Z M611.54,209.95 L612.16,209.37 L606.80,209.71 L611.54,209.95 Z M565.70,240.47 L569.20,239.50 L571.69,237.37 L565.70,240.47 Z M556.96,237.23 L554.80,237.13 L565.70,240.47 L556.96,237.23 Z M598.14,367.04 L600.43,366.59 L604.17,364.16 L598.14,367.04 Z M585.72,512.19 L595.43,517.08 L590.06,513.60 L585.72,512.19 Z M560.71,578.44 L561.95,579.19 L561.12,577.93 L560.71,578.44 Z M592.77,597.48 L594.98,599.32 L594.68,597.95 L601.30,597.55 L592.77,597.48 Z M600.08,603.56 L599.68,602.65 L596.52,600.60 L600.08,603.56 Z M602.67,605.72 L605.13,604.94 L604.05,604.59 L602.01,605.17 L602.67,605.72 Z M615.54,600.30 L617.54,601.27 L619.41,601.76 L615.66,599.42 L615.54,600.30 Z M620.66,613.25 L620.92,613.97 L622.03,609.45 L620.66,613.25 Z M677.49,637.94 L679.08,637.65 L676.87,636.73 L677.49,637.94 Z M714.34,631.30 L713.73,630.61 L712.59,632.27 L714.34,631.30 Z M711.22,627.74 L711.47,629.60 L713.12,629.91 L711.22,627.74 Z M730.83,655.26 L740.71,656.90 L740.20,656.24 L730.83,655.26 Z M746.19,664.82 L748.82,661.98 L752.56,663.36 L748.57,661.74 L746.19,664.82 Z M731.70,682.22 L732.69,681.86 L729.61,680.80 L731.70,682.22 Z M754.69,679.95 L754.80,679.35 L751.56,678.90 L754.69,679.95 Z M736.77,711.76 L738.20,712.09 L741.32,711.44 L736.77,711.76 Z M706.22,705.45 L712.01,705.20 L711.22,704.89 L706.22,705.45 Z M736.82,732.09 L737.83,727.76 L737.83,727.76 L736.82,732.09 Z M734.20,737.11 L734.08,737.15 L739.82,738.00 L734.20,737.11 Z M731.83,738.08 L732.26,739.10 L732.93,737.63 L731.83,738.08 Z M719.46,751.43 L721.34,750.22 L718.23,750.95 L719.46,751.43 Z M740.59,773.15 L740.95,772.81 L738.66,771.44 L740.59,773.15 Z M744.57,783.09 L744.82,777.66 L744.35,777.29 L744.57,783.09 Z M753.19,817.73 L759.06,822.19 L751.19,814.35 L753.19,817.73 Z M452.67,97.16 L452.16,96.13 L451.77,96.39 L452.67,97.16 Z M496.25,211.41 L496.00,210.67 L487.63,214.57 L496.25,211.41 Z M485.26,217.72 L481.26,229.22 L487.63,214.57 L485.26,217.72 Z M486.26,239.42 L480.64,237.23 L486.63,240.28 L486.26,239.42 Z M491.51,242.01 L489.53,241.75 L493.38,243.71 L491.51,242.01 Z M513.74,248.16 L505.37,244.92 L513.86,249.21 L513.74,248.16 Z M456.53,256.74 L471.40,253.34 L472.90,252.13 L467.40,254.23 L456.53,256.74 Z M437.17,279.17 L430.43,279.65 L430.03,279.96 L437.17,279.17 Z M475.68,284.05 L475.02,283.62 L474.36,283.82 L475.68,284.05 Z M476.27,304.18 L471.35,300.62 L471.15,301.10 L476.27,304.18 Z M503.12,455.56 L493.88,446.25 L503.77,456.95 L503.12,455.56 Z M514.35,493.00 L514.74,487.86 L513.24,491.26 L514.35,493.00 Z M518.74,514.49 L519.30,508.69 L518.61,510.04 L518.74,514.49 Z M497.63,547.28 L497.38,543.15 L497.75,549.54 L497.63,547.28 Z M452.16,565.33 L451.25,564.54 L454.66,589.61 L452.16,565.33 Z M487.38,626.12 L481.26,626.36 L492.63,627.34 L487.38,626.12 Z M496.25,629.36 L495.39,629.45 L498.13,631.55 L496.25,629.36 Z M494.50,635.67 L495.05,635.05 L492.26,636.24 L494.50,635.67 Z M503.00,636.81 L497.75,635.51 L494.50,635.67 L503.00,636.81 Z M520.05,664.34 L518.95,663.42 L518.49,663.76 L511.15,663.64 L513.24,664.17 L520.05,664.34 Z M524.86,676.72 L522.36,674.85 L524.94,678.73 L524.86,676.72 Z M529.98,683.35 L526.17,680.58 L527.10,681.98 L529.98,683.35 Z M568.57,673.32 L575.70,676.47 L577.47,676.91 L568.57,673.32 Z M605.05,690.64 L608.67,690.96 L592.81,689.43 L605.05,690.64 Z M608.54,741.40 L608.92,738.00 L607.89,741.94 L608.54,741.40 Z M663.88,784.95 L656.76,792.96 L655.26,795.07 L663.88,784.95 Z M640.02,888.55 L638.50,883.30 L638.02,884.44 L640.02,888.55 Z M169.62,269.29 L184.00,266.97 L180.99,267.10 L169.62,269.29 Z M192.14,266.63 L194.61,266.84 L194.23,266.54 L192.14,266.63 Z M196.58,268.36 L197.47,270.10 L201.22,271.96 L196.58,268.36 Z M216.08,274.22 L215.21,273.58 L201.22,271.96 L216.08,274.22 Z M235.32,292.85 L234.70,286.77 L234.45,292.04 L242.07,307.26 L235.32,292.85 Z M332.25,326.68 L335.12,327.01 L340.49,325.95 L332.25,326.68 Z M372.66,304.38 L373.34,303.21 L370.10,298.67 L372.66,304.38 Z M408.19,295.44 L419.68,302.64 L417.69,300.62 L408.19,295.44 Z M414.26,306.40 L418.44,304.58 L419.68,302.64 L414.26,306.40 Z M402.07,311.38 L402.57,312.92 L407.94,316.73 L402.07,311.38 Z M454.41,725.37 L453.10,725.57 L456.28,726.99 L454.41,725.37 Z M248.94,521.21 L252.81,529.47 L250.56,516.76 L252.06,525.99 L248.94,521.21 Z M253.43,507.37 L255.81,498.38 L250.56,516.76 L253.43,507.37 Z M279.58,536.36 L279.29,535.70 L273.78,535.57 L279.58,536.36 Z M278.66,543.39 L280.66,538.86 L280.25,537.92 L278.66,543.39 Z M283.66,564.68 L284.53,569.78 L284.53,563.06 L278.66,543.39 L283.66,564.68 Z M393.45,491.99 L392.20,488.59 L390.21,485.19 L393.45,491.99 Z M416.63,556.06 L416.56,554.24 L411.69,546.30 L416.63,556.06 Z M256.80,661.01 L255.68,662.23 L256.47,663.56 L256.80,661.01 Z M345.44,636.35 L344.93,637.29 L345.49,636.73 L345.44,636.35 Z M376.97,663.04 L377.27,664.11 L377.60,662.82 L376.97,663.04 Z M377.76,665.80 L377.97,666.52 L383.84,669.59 L377.76,665.80 Z M388.16,668.68 L392.70,669.51 L389.58,668.38 L388.16,668.68 Z M397.08,668.78 L397.30,668.20 L392.70,669.51 L397.08,668.78 Z M420.93,665.46 L424.06,670.32 L421.18,664.41 L420.93,665.46 Z M401.20,717.92 L397.95,718.89 L397.46,719.98 L401.20,717.92 Z M320.63,777.42 L316.89,779.61 L311.51,784.79 L320.63,777.42 Z M347.74,756.05 L343.74,759.93 L332.62,774.51 L347.74,756.05 Z M332.62,721.08 L331.00,715.65 L331.75,719.13 L332.62,721.08 Z M356.71,741.95 L356.25,740.44 L355.98,741.80 L356.71,741.95 Z M352.48,586.86 L354.10,584.52 L354.10,584.52 L352.48,586.86 Z M364.26,588.40 L365.72,588.97 L366.49,588.93 L364.26,588.40 Z M374.81,589.14 L393.45,597.71 L375.97,589.05 L374.81,589.14 Z M365.85,603.54 L366.22,602.57 L360.73,609.53 L365.85,603.54 Z M247.45,553.24 L247.06,552.86 L245.99,552.65 L247.45,553.24 Z M248.94,555.45 L251.85,557.48 L248.94,554.67 L248.94,555.45 Z M254.18,561.20 L257.30,562.74 L254.09,559.64 L254.18,561.20 Z M218.71,494.50 L217.10,494.49 L232.45,497.65 L218.71,494.50 Z M288.66,399.38 L285.78,403.26 L285.41,405.85 L288.66,399.38 Z M231.45,408.85 L222.51,403.86 L222.83,404.48 L231.45,408.85 Z M398.45,352.26 L388.71,361.25 L401.20,350.24 L398.45,352.26 Z M342.99,417.92 L336.50,427.14 L344.39,417.54 L342.99,417.92 Z M94.30,242.82 L100.42,244.63 L92.64,241.29 L94.30,242.82 Z M332.62,137.91 L333.91,137.67 L316.89,134.91 L332.62,137.91 Z M336.19,137.25 L340.14,136.52 L337.12,136.69 L337.33,136.33 L336.19,137.25 Z M351.24,123.17 L354.11,119.69 L348.11,126.65 L351.24,123.17 Z M353.36,118.07 L346.49,114.92 L354.11,119.69 L353.36,118.07 Z M397.20,94.03 L397.20,90.87 L396.83,97.75 L397.20,94.03 Z M257.98,199.23 L251.06,194.17 L255.93,198.78 L257.98,199.23 Z M345.36,191.17 L341.37,189.55 L347.74,193.68 L345.36,191.17 Z M352.28,185.03 L352.73,183.48 L355.86,179.75 L352.61,181.94 L352.25,185.03 L352.28,185.03 Z M405.20,171.01 L397.31,170.06 L397.40,170.09 L405.20,171.01 Z M415.19,229.70 L413.90,224.68 L413.44,225.49 L415.19,229.70 Z M420.31,233.75 L422.46,234.48 L415.19,229.70 L420.31,233.75 Z M436.80,217.32 L436.63,219.07 L442.54,208.17 L436.80,217.32 Z M369.25,279.68 L370.47,281.19 L371.84,281.46 L369.25,279.68 Z M375.00,282.09 L376.07,282.30 L378.34,281.67 L375.00,282.09 Z M388.71,283.21 L394.08,280.22 L394.52,279.31 L388.71,283.21 Z M413.19,274.15 L411.97,271.35 L411.07,272.20 L413.19,274.15 Z M397.73,244.30 L395.50,242.85 L395.70,243.71 L397.73,244.30 Z M441.33,247.23 L441.67,247.92 L444.92,248.97 L441.33,247.23 Z M375.64,287.83 L375.68,288.51 L375.84,287.99 L375.64,287.83 Z M372.47,284.43 L372.98,284.87 L373.13,284.10 L372.47,284.43 Z M198.10,154.66 L206.14,155.41 L205.97,154.99 L198.10,154.66 Z M232.49,174.43 L233.82,175.95 L238.44,177.25 L232.49,174.43 Z M517.49,776.93 L528.60,789.04 L528.60,788.35 L517.49,776.93 Z M576.19,755.89 L580.57,759.85 L570.45,749.17 L576.19,755.89 Z M570.45,896.90 L574.69,896.66 L607.17,889.54 L570.45,896.90 Z M628.03,858.45 L613.90,857.63 L614.91,858.37 L628.03,858.45 Z M508.37,252.37 L521.96,254.89 L523.54,254.43 L508.37,252.37 Z M492.13,199.67 L504.87,193.76 L506.61,192.26 L492.13,199.67 Z M566.20,153.85 L570.95,154.42 L575.94,153.53 L566.20,153.85 Z M585.18,665.37 L584.31,665.22 L567.70,670.16 L585.18,665.37 Z M588.50,418.55 L587.69,418.97 L588.18,422.61 L588.50,418.55 Z M601.67,414.92 L592.43,416.54 L591.15,417.19 L601.67,414.92 Z M546.47,656.40 L546.03,657.13 L549.09,656.64 L557.21,658.91 L543.97,654.86 L546.47,656.40 Z M523.11,664.41 L530.99,660.76 L520.64,664.35 L523.11,664.41 Z M544.36,657.40 L540.97,657.29 L537.46,658.51 L544.36,657.40 Z M543.34,619.32 L542.84,619.65 L543.56,619.97 L543.34,619.32 Z M553.09,619.00 L545.47,617.95 L544.39,618.65 L553.09,619.00 Z M566.70,453.61 L548.81,452.45 L550.96,457.58 L550.09,453.29 L566.70,453.61 Z M580.57,510.52 L578.69,511.25 L582.62,511.19 L580.57,510.52 Z M532.73,324.50 L540.47,336.40 L535.47,328.46 L532.73,324.50 Z M490.26,276.01 L490.41,275.12 L482.39,278.19 L490.26,276.01 Z M494.75,280.46 L495.88,284.75 L495.53,280.08 L494.75,280.46 Z M512.17,189.41 L515.86,188.26 L517.70,186.58 L512.17,189.41 Z M521.86,184.86 L526.61,182.02 L520.25,185.28 L532.23,186.40 L521.86,184.86 Z M560.71,192.30 L562.58,192.30 L565.61,189.58 L560.71,192.30 Z M548.96,223.88 L544.22,226.63 L552.02,222.99 L548.96,223.88 Z M584.73,162.51 L582.56,160.49 L580.84,160.51 L584.73,162.51 Z M585.31,165.75 L581.81,167.37 L588.84,165.59 L585.31,165.75 Z M574.82,119.04 L573.32,120.99 L573.70,123.66 L573.70,120.91 L574.82,119.04 Z M560.63,139.40 L559.43,141.64 L562.04,139.67 L560.63,139.40 Z M583.81,138.71 L590.43,136.37 L582.12,138.78 L583.81,138.71 Z M649.14,726.18 L649.94,725.19 L642.89,726.91 L649.14,726.18 Z M652.14,722.45 L651.34,721.30 L651.44,723.32 L652.14,722.45 Z M689.52,723.87 L689.11,723.26 L686.91,723.24 L689.52,723.87 Z M685.61,785.19 L686.37,786.10 L684.99,771.02 L682.89,756.48 L682.88,756.48 L685.61,785.19 Z M707.67,772.58 L710.09,772.81 L730.33,771.67 L707.67,772.58 Z M676.49,795.39 L679.62,795.63 L676.10,794.85 L676.49,795.39 Z M686.53,787.88 L686.53,787.88 L681.49,791.42 L686.53,787.88 Z M696.28,751.72 L693.73,747.06 L696.28,751.72 L696.28,751.72 Z M694.36,730.95 L693.58,729.82 L696.10,734.84 L694.36,730.95 Z M610.31,674.29 L608.48,673.70 L609.29,674.37 L610.31,674.29 Z M622.28,672.67 L615.89,673.87 L629.78,672.83 L622.28,672.67 Z M663.88,665.38 L668.38,664.98 L668.62,664.86 L663.88,665.38 Z M664.63,687.73 L671.50,689.75 L674.67,689.61 L664.63,687.73 Z M680.62,689.34 L687.24,691.04 L690.73,691.04 L680.62,689.34 Z M669.77,708.95 L668.88,708.37 L663.25,710.72 L669.77,708.95 Z M671.00,708.61 L673.87,702.62 L670.35,708.79 L671.00,708.61 Z M679.12,699.38 L679.49,696.63 L677.21,700.56 L679.12,699.38 Z M691.86,701.33 L686.49,698.17 L684.43,697.72 L691.86,701.33 Z M628.16,659.96 L630.52,655.45 L627.70,656.03 L629.28,656.32 L628.16,659.96 Z M633.98,651.57 L634.15,650.06 L633.53,651.05 L633.98,651.57 Z M635.31,648.23 L641.77,643.69 L636.02,647.09 L635.31,648.23 Z M692.23,652.51 L697.10,655.83 L691.48,650.81 L692.23,652.51 Z M669.62,644.34 L665.50,642.64 L664.56,642.99 L669.62,644.34 Z M685.99,525.66 L704.35,506.80 L691.48,519.83 L685.99,525.66 Z M706.72,534.73 L683.86,538.78 L683.63,538.88 L706.72,534.73 Z M791.41,610.74 L791.71,611.10 L789.66,604.35 L790.65,610.81 L791.41,610.74 Z M796.88,614.35 L793.61,613.40 L794.16,614.06 L796.88,614.35 Z M794.91,707.96 L826.01,722.13 L831.88,717.27 L826.38,721.81 L794.91,707.96 Z M787.61,705.87 L787.54,706.67 L794.91,707.96 L787.61,705.87 Z M690.98,389.66 L685.74,389.83 L680.49,390.72 L690.98,389.66 Z M654.14,491.18 L652.64,493.77 L657.34,489.46 L654.14,491.18 Z M667.13,545.90 L671.00,542.01 L668.13,544.36 L661.38,548.33 L667.13,545.90 Z M700.60,559.82 L689.73,551.40 L683.51,552.23 L690.23,552.05 L700.60,559.82 Z M625.57,457.54 L625.53,457.74 L614.91,456.85 L627.53,458.15 L625.57,457.54 Z M682.37,430.38 L685.74,432.08 L677.99,427.31 L682.37,430.38 Z M659.01,467.94 L658.02,468.07 L663.88,473.29 L659.01,467.94 Z M634.87,332.19 L636.77,332.75 L661.01,331.70 L634.87,332.19 Z M683.74,352.67 L650.51,320.37 L661.01,331.70 L683.74,352.67 Z M703.35,359.14 L691.48,361.41 L687.61,356.80 L691.45,361.95 L703.35,359.14 Z M627.41,316.32 L626.78,312.11 L626.70,316.66 L627.41,316.32 Z M627.54,319.49 L626.67,318.50 L626.66,318.99 L627.54,319.49 Z M613.79,207.85 L610.79,204.12 L612.96,208.62 L613.79,207.85 Z M648.14,206.79 L642.52,197.16 L638.34,193.91 L641.89,198.46 L640.77,196.11 L648.14,206.79 Z M762.89,765.62 L762.56,766.41 L763.80,767.14 L762.89,765.62 Z M795.48,765.47 L803.53,767.46 L791.91,763.98 L795.48,765.47 Z M781.04,776.29 L785.41,778.80 L790.74,780.72 L781.04,776.29 Z M744.57,725.77 L741.20,726.10 L741.23,726.71 L744.57,725.77 Z M751.69,715.57 L755.19,719.70 L751.69,713.71 L750.97,712.78 L751.69,715.57 Z M767.80,641.34 L765.43,648.22 L762.93,647.57 L766.13,648.46 L767.80,641.34 Z M764.80,633.57 L776.55,633.97 L766.43,633.49 L764.80,633.57 Z M773.05,648.71 L767.28,648.77 L769.68,649.44 L773.05,648.71 Z M742.07,615.68 L739.95,615.92 L737.57,617.95 L742.07,615.68 Z M789.91,616.33 L791.28,614.95 L784.79,617.46 L789.91,616.33 Z M760.18,626.93 L759.54,622.75 L758.56,622.88 L760.18,626.93 Z M861.91,758.17 L862.36,758.40 L864.36,755.97 L861.91,758.17 Z M816.27,856.27 L817.39,857.32 L816.39,857.08 L816.27,856.27 Z M827.38,848.25 L827.38,848.66 L826.88,847.93 L827.38,848.25 Z M826.63,847.20 L826.63,847.36 L826.13,847.04 L826.63,847.20 Z M824.76,845.58 L824.51,845.58 L824.14,845.34 L824.76,845.58 Z M823.89,845.10 L824.14,845.26 L823.89,845.26 L823.89,845.10 Z M814.64,843.64 L818.01,842.50 L818.76,845.50 L814.89,845.74 L814.64,843.64 Z M803.78,840.24 L803.78,840.32 L803.53,840.32 L803.78,840.24 Z M803.03,840.08 L802.78,840.00 L803.15,840.00 L803.03,840.08 Z M829.13,621.75 L830.13,622.48 L828.26,621.91 L829.13,621.75 Z M768.80,401.00 L766.55,399.78 L768.55,399.38 L769.80,400.43 L768.80,401.00 Z M780.42,389.50 L778.67,388.37 L780.17,388.69 L780.42,389.50 Z M776.67,385.70 L779.17,383.59 L780.29,384.32 L779.79,385.45 L776.67,385.70 Z M746.57,363.84 L746.19,364.16 L746.19,363.92 L746.57,363.84 Z M744.69,363.76 L745.07,363.44 L745.19,363.92 L744.69,363.76 Z M745.07,363.03 L745.69,362.95 L745.07,363.35 L745.07,363.03 Z M750.94,362.54 L751.06,362.79 L750.69,362.87 L750.94,362.54 Z M749.32,359.23 L749.57,359.14 L749.69,359.47 L749.32,359.23 Z M751.69,294.79 L751.44,295.36 L750.69,294.38 L751.69,294.79 Z M980.77,917.55 L980.14,917.47 L980.77,917.30 L980.77,917.55 Z M980.02,917.06 L979.65,917.87 L978.52,916.66 L980.02,917.06 Z M972.15,910.10 L971.15,909.69 L971.78,909.53 L972.15,910.10 Z M956.66,903.70 L951.67,902.57 L943.05,895.61 L939.18,890.10 L940.80,887.92 L939.67,884.28 L947.17,883.95 L956.91,896.26 L961.91,895.53 L969.78,901.44 L971.40,904.43 L969.15,908.24 L961.91,902.33 L959.04,902.00 L956.66,903.70 Z M836.75,848.66 L832.50,848.49 L830.38,846.88 L832.75,843.48 L836.75,848.66 Z M893.21,781.39 L887.21,777.91 L888.09,776.45 L890.46,778.07 L891.71,777.50 L893.46,779.36 L893.21,781.39 Z M887.46,774.34 L888.34,774.99 L887.59,776.04 L886.96,773.94 L887.46,774.34 Z M881.09,758.72 L881.09,757.99 L881.59,758.96 L881.09,758.72 Z M875.85,749.73 L876.10,749.82 L875.97,749.90 L875.85,749.73 Z M875.85,747.39 L876.22,747.22 L876.35,747.71 L875.85,747.39 Z M888.71,720.51 L888.59,720.35 L889.09,720.43 L888.96,720.59 L888.71,720.51 Z M891.84,716.71 L891.59,716.63 L891.46,715.90 L891.84,716.71 Z M886.21,711.20 L886.21,711.36 L885.84,711.28 L886.21,711.20 Z M885.71,702.22 L886.09,702.62 L885.59,702.54 L885.71,702.22 Z M885.09,698.09 L884.84,698.17 L884.59,697.93 L885.09,698.09 Z M896.33,687.97 L896.21,687.73 L896.71,687.97 L896.33,687.97 Z M894.83,687.81 L894.83,687.64 L895.08,687.81 L894.83,687.81 Z M897.08,687.56 L897.21,687.81 L896.83,687.56 L897.08,687.56 Z M895.33,686.84 L895.08,686.75 L895.21,686.67 L895.33,686.84 Z M898.95,685.94 L898.95,686.11 L898.70,685.94 L898.95,685.94 Z M896.71,686.67 L898.33,687.40 L895.83,687.08 L895.71,683.84 L897.83,683.27 L896.71,686.67 Z M898.70,682.06 L899.45,683.84 L897.33,682.38 L898.70,682.06 Z M889.84,682.30 L889.46,682.30 L889.46,681.98 L889.84,682.30 Z M890.21,681.90 L889.84,681.82 L890.09,681.74 L890.21,681.90 Z M887.84,681.01 L887.84,681.25 L887.34,681.01 L887.84,681.01 Z M886.84,680.93 L886.59,680.93 L886.59,680.68 L886.84,680.93 Z M885.96,680.36 L886.09,680.28 L886.34,680.60 L885.96,680.36 Z M885.59,680.52 L885.21,680.44 L885.59,680.36 L885.59,680.52 Z M885.21,680.28 L884.97,680.04 L885.34,680.12 L885.21,680.28 Z M883.47,679.39 L882.84,679.23 L882.84,678.74 L883.47,679.39 Z M884.47,679.06 L884.22,678.90 L884.59,678.98 L884.47,679.06 Z M884.22,678.25 L884.22,678.34 L883.97,678.25 L884.22,678.25 Z M884.59,674.13 L884.72,674.45 L884.34,674.37 L884.59,674.13 Z M884.59,672.43 L885.21,671.78 L884.97,672.83 L884.59,672.43 Z M890.96,477.33 L890.71,477.09 L890.96,476.93 L890.96,477.33 Z M882.59,477.74 L883.72,476.44 L885.84,476.85 L885.59,477.50 L882.59,477.74 Z M889.34,477.09 L889.84,476.77 L889.84,477.17 L889.34,477.09 Z M890.59,476.85 L890.21,476.85 L890.21,476.61 L890.59,476.85 Z" /></g></svg>