<svg xmlns="http://www.w3.org/2000/svg" viewBox="0 0 1000 1000" width="1000" height="1000"><g fill="#cccccc" stroke="#222" stroke-width="2"><path d="M126.84,905.13 L124.03,898.76 L124.09,896.97 L126.16,895.27 L125.19,889.70 L127.26,875.89 L126.35,869.96 L121.95,862.25 L122.38,859.74 L124.94,862.88 L125.37,859.74 L121.71,851.84 L121.89,846.91 L121.09,846.91 L120.06,843.14 L117.61,839.37 L118.04,836.32 L114.93,832.01 L114.93,828.42 L112.91,822.95 L113.52,820.71 L111.63,820.26 L112.00,818.82 L110.65,816.76 L111.14,814.07 L110.29,812.72 L111.08,812.63 L109.98,810.30 L107.84,809.94 L106.99,806.26 L108.39,805.10 L108.45,802.22 L109.74,800.16 L109.12,798.55 L110.47,796.75 L109.86,795.68 L112.06,791.91 L110.04,787.51 L111.08,785.90 L110.35,784.82 L110.71,781.68 L108.09,778.27 L108.45,777.01 L107.66,777.19 L107.96,775.58 L106.50,773.51 L106.87,772.62 L105.89,772.62 L105.03,767.86 L103.26,767.86 L100.88,765.53 L99.48,758.71 L98.25,759.25 L95.51,755.30 L93.31,755.57 L93.06,752.25 L91.23,750.81 L90.50,747.85 L87.38,745.61 L88.18,736.82 L85.19,730.36 L86.71,723.00 L97.09,721.12 L107.90,711.79 L111.81,706.85 L116.94,703.44 L123.17,694.29 L127.38,684.69 L128.73,684.78 L128.55,678.14 L130.74,668.00 L128.55,654.90 L120.12,636.87 L120.61,600.98 L120.42,574.78 L109.74,537.37 L106.25,538.00 L105.89,534.77 L104.42,532.70 L105.22,531.18 L104.79,529.02 L102.10,525.26 L102.59,524.00 L99.84,521.22 L98.32,522.12 L97.77,518.98 L95.45,516.10 L94.83,518.26 L92.82,514.85 L91.72,515.57 L91.96,514.31 L89.83,512.96 L88.48,508.48 L87.51,505.70 L84.03,503.90 L79.81,505.61 L79.57,506.86 L75.96,509.73 L72.54,510.45 L72.12,511.89 L67.90,511.80 L66.01,510.54 L62.35,503.63 L61.49,503.10 L60.88,504.62 L58.44,502.20 L57.09,502.92 L54.16,499.24 L52.70,499.15 L53.31,497.26 L52.45,497.08 L52.45,494.66 L51.48,492.42 L50.56,493.14 L48.97,491.97 L49.15,490.18 L46.71,489.91 L46.47,488.38 L45.12,489.82 L45.12,487.84 L43.17,488.47 L42.32,487.13 L41.34,489.10 L41.34,487.93 L39.81,488.02 L39.08,485.06 L35.23,484.61 L36.09,480.67 L30.28,480.40 L30.10,476.90 L26.31,479.41 L25.64,476.54 L24.18,475.82 L24.42,474.47 L22.28,472.68 L20.82,473.94 L19.23,473.13 L22.65,469.54 L28.09,472.41 L32.18,472.68 L33.83,467.21 L37.06,463.53 L38.53,459.13 L36.57,449.35 L37.31,448.01 L39.51,448.10 L42.13,443.88 L41.22,439.84 L45.73,438.32 L48.36,443.25 L49.28,437.06 L50.44,436.16 L52.70,428.72 L52.33,425.67 L53.98,420.01 L55.57,417.95 L53.37,414.09 L53.49,411.40 L50.93,407.99 L49.77,405.75 L46.53,405.30 L44.45,401.26 L43.78,395.43 L45.67,393.01 L48.79,392.74 L50.19,384.13 L52.64,386.28 L58.01,381.88 L55.99,374.62 L57.64,373.36 L60.57,367.44 L59.17,363.49 L59.66,359.36 L62.22,357.84 L62.83,355.95 L65.70,357.84 L65.58,355.06 L63.63,353.17 L66.38,351.11 L65.89,345.37 L67.90,344.20 L69.67,347.07 L71.38,347.07 L69.43,345.10 L67.29,338.91 L68.39,336.21 L70.28,336.04 L71.38,340.07 L74.01,334.33 L77.98,344.83 L73.58,333.16 L70.35,329.75 L73.09,328.95 L76.51,323.74 L75.05,320.78 L72.85,319.44 L74.80,319.26 L77.98,316.03 L80.42,319.71 L82.80,320.24 L79.57,316.12 L83.41,312.71 L81.22,306.52 L81.70,300.69 L84.09,300.33 L85.12,306.70 L88.48,305.08 L88.80,305.83 L89.28,299.43 L92.58,298.08 L93.92,292.07 L94.77,292.34 L95.57,295.48 L96.79,292.61 L98.44,291.98 L97.95,287.86 L98.99,283.82 L97.46,277.63 L98.13,273.59 L96.73,272.42 L96.18,266.95 L96.91,266.32 L94.90,263.00 L96.30,260.40 L95.75,258.52 L97.52,257.62 L97.64,250.26 L98.38,249.01 L97.03,245.51 L95.14,243.80 L94.47,240.21 L96.36,235.10 L98.19,234.38 L98.93,231.87 L102.22,231.06 L105.40,225.77 L105.40,218.95 L108.88,211.77 L109.25,204.41 L110.29,202.62 L110.16,194.99 L111.14,193.11 L110.41,189.07 L117.80,184.77 L124.33,175.35 L128.85,174.99 L130.19,175.52 L144.30,201.36 L146.99,201.81 L150.96,208.09 L152.79,208.09 L153.52,210.61 L166.71,215.18 L173.19,214.46 L179.78,219.94 L184.42,224.87 L188.21,226.93 L196.03,228.55 L201.40,225.77 L212.21,217.87 L216.06,213.21 L219.54,202.35 L219.05,196.43 L221.49,187.37 L221.25,193.92 L221.86,194.99 L222.96,193.83 L224.24,196.79 L225.34,194.64 L228.15,193.74 L228.88,188.89 L235.84,188.53 L254.10,185.12 L262.53,185.39 L264.79,184.05 L280.00,185.84 L332.94,191.76 L345.16,195.62 L349.62,198.49 L350.84,204.50 L352.91,206.66 L357.62,206.93 L363.48,203.61 L367.27,205.04 L373.31,210.25 L381.31,213.03 L385.10,212.40 L389.98,217.24 L390.66,219.94 L406.90,224.96 L405.68,233.75 L406.23,239.32 L408.49,244.70 L407.75,249.72 L412.27,265.42 L415.94,268.83 L414.96,284.89 L417.95,289.38 L419.54,295.66 L421.25,297.54 L421.37,301.94 L417.28,306.88 L418.26,309.39 L417.22,316.21 L418.32,316.92 L418.44,320.60 L416.79,323.12 L417.10,324.91 L416.51,326.05 L424.12,321.59 L425.04,317.46 L423.45,311.72 L423.39,305.71 L424.37,299.34 L436.21,287.94 L442.75,277.00 L445.56,277.00 L450.56,280.14 L453.31,277.18 L454.96,271.08 L457.65,269.28 L457.28,262.82 L459.91,255.11 L461.31,255.73 L464.12,266.23 L466.14,263.72 L467.91,258.43 L470.78,257.17 L472.12,254.66 L484.15,248.20 L492.82,247.39 L503.57,242.19 L507.66,235.73 L509.50,228.37 L516.82,223.44 L516.97,224.20 L523.11,219.13 L523.97,213.84 L528.73,206.84 L534.66,201.09 L541.68,195.26 L544.86,194.81 L546.87,192.75 L550.72,184.50 L558.29,172.92 L559.27,163.77 L567.39,158.75 L576.37,146.81 L575.51,145.11 L576.25,140.98 L574.11,138.20 L573.68,134.43 L571.42,134.07 L567.70,121.96 L563.24,116.49 L561.16,116.58 L558.54,123.31 L556.58,123.94 L552.79,115.77 L546.38,92.17 L546.81,90.38 L554.99,79.79 L551.15,72.26 L552.37,68.49 L559.88,56.20 L570.08,56.11 L574.54,51.98 L575.08,49.29 L577.04,47.40 L579.73,46.78 L583.88,42.20 L586.63,41.12 L587.79,41.75 L587.73,44.71 L590.54,49.83 L592.67,48.93 L593.47,46.86 L596.70,46.42 L596.52,45.07 L598.05,42.65 L599.82,46.33 L599.39,48.12 L601.28,49.38 L602.81,54.31 L602.51,60.86 L603.79,65.08 L605.25,65.26 L607.57,62.12 L610.63,63.73 L613.93,61.04 L617.59,60.95 L618.51,54.49 L622.17,47.40 L626.99,48.75 L630.72,53.23 L637.31,50.09 L642.38,44.80 L645.07,46.95 L649.16,54.85 L652.03,57.27 L654.66,57.09 L661.07,53.59 L673.90,53.68 L677.68,47.58 L684.28,46.78 L687.03,43.37 L691.54,42.65 L693.68,46.33 L697.71,46.24 L704.55,52.79 L704.92,56.64 L709.44,57.18 L709.38,60.23 L710.84,62.39 L718.96,64.54 L720.31,63.64 L721.90,59.34 L728.55,55.84 L730.87,48.30 L733.99,42.38 L734.54,35.83 L737.22,34.39 L737.71,29.19 L739.54,27.66 L738.26,24.79 L738.69,23.18 L743.33,19.23 L781.26,24.17 L791.45,65.80 L794.57,69.47 L803.91,93.97 L818.94,100.52 L821.50,103.93 L823.21,102.94 L824.00,104.47 L827.61,102.58 L831.70,97.56 L847.33,95.31 L854.11,96.48 L851.30,148.88 L867.36,164.85 L868.16,169.87 L878.17,174.81 L904.25,180.37 L905.41,190.87 L908.04,192.75 L912.86,200.02 L917.50,203.52 L919.76,200.74 L921.53,201.90 L924.59,200.29 L923.91,214.46 L921.65,218.32 L917.01,218.14 L915.49,219.49 L908.71,217.78 L904.74,220.21 L901.13,227.38 L897.47,228.46 L894.48,231.06 L891.67,231.24 L887.46,229.18 L883.18,233.84 L876.40,236.09 L873.10,235.37 L869.26,237.61 L866.33,242.90 L863.27,259.32 L860.10,258.70 L861.32,256.09 L857.71,260.94 L856.00,260.40 L852.77,262.02 L849.84,266.68 L848.49,272.42 L847.94,286.06 L844.22,300.69 L844.34,310.20 L840.98,319.80 L838.17,324.55 L836.77,330.38 L835.61,342.94 L834.69,352.63 L831.39,356.40 L823.76,360.44 L822.17,368.69 L819.12,370.49 L819.73,366.99 L817.90,362.59 L818.02,358.02 L813.44,353.26 L794.69,344.92 L784.13,345.10 L782.60,347.25 L777.84,347.34 L773.19,349.49 L769.59,353.08 L766.42,360.17 L764.83,359.63 L765.01,355.59 L763.18,354.07 L754.02,352.18 L749.01,353.08 L743.33,356.58 L737.71,363.22 L733.38,370.67 L732.44,366.75 L732.28,371.92 L722.63,373.90 L716.95,378.02 L715.36,380.81 L714.81,379.10 L712.92,378.92 L708.16,382.33 L701.62,391.75 L696.31,403.77 L684.89,440.74 L680.61,460.75 L678.66,473.04 L679.21,474.56 L678.23,473.94 L675.61,475.91 L669.68,482.64 L664.19,478.60 L661.38,474.92 L654.41,475.82 L648.25,482.01 L641.96,494.03 L640.55,492.96 L640.00,488.83 L628.89,489.10 L627.30,490.36 L625.65,489.01 L625.53,487.39 L623.21,486.68 L617.59,488.56 L613.86,493.67 L610.57,496.19 L606.66,503.10 L602.87,513.86 L598.78,530.37 L596.58,545.71 L596.76,555.49 L595.48,560.34 L594.57,561.59 L591.21,561.50 L589.56,558.90 L589.38,556.12 L586.75,553.70 L582.11,553.70 L578.69,555.94 L575.57,561.23 L571.24,572.54 L569.10,584.56 L568.61,593.35 L569.28,595.24 L565.44,596.32 L561.47,594.25 L560.18,590.84 L561.89,588.60 L560.61,572.72 L551.45,565.99 L535.39,559.71 L525.86,558.72 L514.02,565.27 L507.85,570.30 L504.79,574.69 L501.68,574.87 L496.43,575.32 L490.32,579.99 L484.40,580.70 L475.91,578.37 L472.98,580.17 L472.85,577.20 L473.83,576.22 L464.98,581.42 L460.58,584.47 L453.37,593.35 L453.57,589.41 L449.53,589.41 L450.69,589.50 L450.87,590.48 L446.53,591.74 L442.75,594.97 L442.32,593.98 L440.98,594.97 L437.37,600.35 L427.42,622.24 L427.42,620.90 L424.85,618.12 L425.22,614.98 L424.67,617.31 L423.75,616.14 L424.85,618.21 L426.08,619.91 L427.36,620.90 L427.30,622.60 L412.21,668.00 L406.11,696.08 L402.93,717.80 L398.41,750.28 L398.04,754.22 L394.20,757.99 L392.73,767.14 L389.01,775.85 L386.32,778.99 L385.34,786.88 L384.49,787.60 L380.27,783.47 L372.82,781.50 L370.01,782.49 L366.65,786.34 L365.07,782.22 L362.32,780.15 L349.13,772.71 L334.53,768.13 L335.69,767.68 L319.88,768.40 L309.74,774.41 L305.40,774.95 L294.17,783.74 L289.77,781.86 L282.99,784.19 L279.81,786.25 L274.26,793.07 L262.71,812.27 L254.90,825.37 L252.39,829.68 L251.29,830.85 L243.29,835.33 L245.31,834.52 L239.45,840.45 L229.37,844.30 L222.59,848.61 L213.68,847.89 L206.78,848.34 L201.89,850.94 L192.18,857.67 L186.68,863.86 L183.08,869.07 L152.85,885.67 L126.84,905.13 Z M96.06,505.25 L92.94,505.97 L88.48,508.48 L96.06,505.25 Z M861.01,253.13 L859.96,251.18 L861.32,256.09 L861.01,253.13 Z M456.37,582.59 L456.23,581.84 L455.87,582.40 L460.58,584.47 L456.37,582.59 Z M253.07,818.20 L252.64,823.85 L252.39,829.68 L253.07,818.20 Z M249.08,817.41 L249.52,818.20 L253.07,818.20 L249.08,817.41 Z M359.51,254.57 L359.70,253.77 L344.30,267.85 L359.51,254.57 Z M361.59,250.26 L360.24,245.06 L361.77,251.88 L361.59,250.26 Z M415.94,327.15 L418.20,327.78 L416.27,326.52 L415.94,327.15 Z M466.81,436.34 L467.72,431.05 L466.87,434.10 L466.81,436.34 Z M457.47,442.00 L462.59,443.25 L460.09,442.35 L457.47,442.00 Z M456.88,560.12 L457.65,561.06 L456.96,559.61 L456.88,560.12 Z M451.87,559.92 L449.85,562.26 L452.03,560.07 L451.87,559.92 Z M432.92,549.03 L435.54,550.47 L434.34,549.32 L432.92,549.03 Z M433.76,570.89 L433.71,573.89 L433.95,571.19 L433.76,570.89 Z M424.12,580.70 L426.38,581.42 L424.04,579.82 L424.12,580.70 Z M108.70,302.30 L108.31,302.72 L109.01,303.13 L108.70,302.30 Z M111.04,308.48 L110.02,305.80 L110.53,307.86 L111.04,308.48 Z M256.67,313.07 L269.62,288.21 L253.48,318.11 L256.67,313.07 Z M237.68,389.60 L235.84,391.03 L236.58,390.94 L237.68,389.60 Z M310.37,584.71 L302.29,579.18 L310.37,584.71 L310.37,584.71 Z M307.42,588.87 L306.87,588.42 L274.56,588.96 L307.42,588.87 Z M232.73,710.35 L251.78,705.15 L216.85,714.66 L232.73,710.35 Z M267.29,702.63 L280.97,700.39 L251.78,705.15 L267.29,702.63 Z M236.27,761.40 L237.00,757.90 L233.90,765.50 L236.27,761.40 Z M227.66,776.30 L231.57,769.54 L228.39,773.96 L227.66,776.30 Z M231.26,781.77 L232.18,782.76 L227.66,776.30 L231.26,781.77 Z M231.26,783.38 L234.93,783.74 L232.18,782.76 L231.26,783.38 Z M230.35,789.48 L230.62,787.70 L227.97,792.53 L230.35,789.48 Z M244.64,827.53 L242.93,827.26 L242.75,827.40 L244.64,827.53 Z M162.38,442.50 L162.13,445.23 L162.62,442.80 L162.38,442.50 Z M169.58,471.15 L170.57,472.33 L170.56,472.32 L169.58,471.15 Z M185.10,391.66 L185.37,391.97 L184.73,390.63 L185.10,391.66 Z M170.87,719.68 L156.15,721.30 L110.77,727.40 L170.87,719.68 Z M136.00,742.38 L126.84,743.64 L128.97,743.64 L136.00,742.38 Z M184.12,752.61 L184.76,752.66 L183.94,751.66 L184.12,752.61 Z M186.38,752.79 L188.21,750.99 L185.74,752.74 L186.38,752.79 Z M198.10,753.69 L198.61,753.36 L197.34,753.31 L198.10,753.69 Z M160.91,651.85 L160.42,653.56 L159.39,666.39 L160.91,651.85 Z M171.82,654.72 L171.66,654.01 L170.03,653.65 L171.82,654.72 Z M171.72,666.21 L172.58,658.04 L172.20,656.39 L171.72,666.21 Z M165.73,679.99 L165.73,679.99 L166.90,675.00 L165.73,679.99 Z M164.45,673.12 L162.85,671.64 L164.61,674.31 L164.45,673.12 Z M134.10,600.44 L162.56,595.96 L180.70,592.55 L134.10,600.44 Z M166.29,606.09 L167.57,607.37 L165.59,602.87 L166.29,606.09 Z M172.01,475.64 L172.03,475.82 L172.15,475.95 L172.01,475.64 Z M115.84,422.44 L111.08,395.70 L117.98,437.42 L115.84,422.44 Z M147.11,341.63 L145.70,341.67 L146.38,342.14 L147.11,341.63 Z M180.82,367.80 L175.87,359.81 L176.85,361.87 L180.82,367.80 Z M127.81,321.05 L128.07,321.48 L127.81,317.64 L127.81,321.05 Z M142.90,326.52 L145.40,328.68 L142.53,325.81 L142.90,326.52 Z M143.87,340.42 L145.28,341.38 L145.89,339.89 L143.87,340.42 Z M139.60,350.93 L140.07,350.67 L139.11,349.67 L139.72,353.26 L139.60,350.93 Z M135.35,401.59 L141.68,385.02 L136.24,397.67 L135.35,401.59 Z M245.84,283.20 L245.55,283.37 L238.47,297.28 L238.48,297.58 L245.84,283.20 Z M171.05,353.80 L170.87,347.52 L170.38,350.21 L169.03,347.97 L171.05,353.80 Z M187.72,329.31 L187.84,333.01 L188.21,332.45 L187.72,329.31 Z M243.29,205.85 L243.42,202.53 L243.11,204.06 L243.29,205.85 Z M219.65,259.25 L219.05,260.04 L218.14,263.62 L219.65,259.25 Z M324.58,645.57 L324.86,638.69 L324.21,641.98 L324.58,645.57 Z M396.40,648.89 L389.92,638.66 L385.65,633.64 L396.40,648.89 Z M417.83,609.86 L423.93,598.11 L422.84,599.19 L417.83,609.86 Z M244.82,795.32 L245.80,795.50 L244.58,794.17 L244.82,795.32 Z M248.55,812.00 L248.24,815.95 L248.50,816.40 L248.55,812.00 Z M242.93,802.85 L243.67,799.89 L242.94,801.11 L243.17,801.24 L242.93,802.85 Z M265.10,776.74 L266.56,784.37 L267.36,785.09 L265.10,776.74 Z M284.64,741.84 L284.39,741.27 L281.65,749.92 L281.91,751.24 L284.64,741.84 Z M282.44,753.87 L284.58,754.67 L282.19,752.63 L282.44,753.87 Z M282.01,490.36 L282.75,480.84 L281.83,487.13 L282.01,490.36 Z M283.97,521.31 L284.21,521.41 L281.77,517.36 L283.97,521.31 Z M312.55,502.11 L310.77,501.87 L311.33,502.74 L312.55,502.11 Z M313.83,510.45 L315.17,509.47 L315.66,507.58 L313.83,510.45 Z M323.87,563.35 L324.20,564.46 L324.64,563.84 L323.87,563.35 Z M323.42,561.86 L323.79,563.08 L323.85,556.93 L323.42,561.86 Z M397.80,558.27 L383.11,563.16 L387.36,562.58 L397.80,558.27 Z M332.80,574.25 L333.01,574.60 L333.42,574.38 L332.80,574.25 Z M335.43,573.33 L342.72,569.49 L336.06,572.54 L335.43,573.33 Z M402.78,546.68 L400.43,551.37 L402.99,547.60 L402.78,546.68 Z M399.57,541.85 L400.24,543.02 L400.72,542.50 L399.57,541.85 Z M401.28,542.82 L402.39,545.04 L401.95,543.20 L401.28,542.82 Z M395.97,520.77 L396.64,531.90 L397.31,534.68 L395.97,520.77 Z M335.69,392.74 L348.03,410.59 L368.61,438.05 L335.69,392.74 Z M393.83,347.25 L386.87,348.51 L392.91,348.15 L394.53,347.26 L393.83,347.25 Z M553.83,246.94 L542.11,254.93 L549.68,249.90 L553.83,246.94 Z M573.68,237.79 L563.97,237.79 L598.84,238.51 L573.68,237.79 Z M617.22,224.60 L616.41,223.98 L618.69,228.46 L617.22,224.60 Z M635.30,324.19 L634.99,323.03 L638.35,337.38 L635.30,324.19 Z M461.07,560.70 L458.50,568.59 L459.97,564.20 L461.07,560.70 Z M463.63,566.35 L463.69,566.36 L459.97,564.20 L463.63,566.35 Z M469.59,567.25 L473.16,567.78 L473.85,567.25 L469.59,567.25 Z M483.42,565.19 L500.82,554.06 L485.98,562.94 L483.42,565.19 Z M504.00,556.48 L503.58,559.84 L509.62,525.53 L504.00,556.48 Z M503.36,561.54 L503.36,561.54 L512.92,556.57 L503.36,561.54 Z M444.88,583.04 L444.82,587.34 L444.95,583.84 L446.05,581.24 L443.97,582.86 L444.88,583.04 Z M445.31,573.89 L444.82,575.50 L443.97,582.86 L445.31,573.89 Z M455.31,583.28 L453.92,585.46 L454.24,585.93 L455.31,583.28 Z M448.61,584.59 L449.74,584.39 L449.65,584.11 L448.61,584.59 Z M456.11,581.20 L455.57,578.28 L455.63,581.06 L456.11,581.20 Z M451.42,579.16 L451.36,579.72 L455.57,578.28 L451.42,579.16 Z M467.58,573.44 L466.63,572.36 L467.58,573.44 L467.58,573.44 Z M468.20,570.25 L468.34,569.58 L467.67,569.44 L468.20,570.25 Z M484.03,442.62 L482.90,439.57 L482.90,439.57 L484.03,442.62 Z M483.11,444.87 L482.32,457.61 L482.75,453.84 L484.03,442.62 L483.11,444.87 Z M571.34,520.46 L569.34,512.07 L570.32,518.26 L571.34,520.46 Z M571.73,521.30 L575.15,521.22 L586.20,519.87 L571.73,521.29 L571.73,521.30 Z M494.31,398.99 L491.30,397.94 L493.13,399.47 L494.31,398.99 Z M497.83,383.41 L499.48,390.85 L499.18,389.06 L497.83,383.41 Z M507.66,344.38 L507.24,346.53 L508.13,343.90 L507.66,344.38 Z M506.81,337.74 L508.10,338.35 L508.09,338.02 L506.81,337.74 Z M490.93,404.22 L491.54,402.25 L491.11,401.08 L490.93,404.22 Z M544.37,349.89 L548.70,351.68 L545.95,350.03 L544.37,349.89 Z M601.77,333.79 L600.12,292.43 L600.80,315.76 L601.77,333.79 Z M591.44,267.02 L591.27,265.19 L591.02,266.05 L591.44,267.02 Z M534.76,282.63 L534.66,284.89 L536.61,290.91 L534.76,282.63 Z M517.02,224.45 L517.13,225.05 L519.51,224.69 L517.02,224.45 Z M640.12,266.14 L642.44,272.33 L649.16,289.92 L640.12,266.14 Z M653.70,319.64 L655.09,316.48 L653.74,318.72 L653.70,319.64 Z M677.56,303.47 L679.45,302.75 L692.16,297.19 L677.56,303.47 Z M703.38,292.07 L703.33,292.34 L702.95,295.18 L703.76,293.69 L703.38,292.07 Z M718.44,310.58 L718.18,311.63 L728.61,311.45 L718.66,311.27 L718.44,310.58 Z M731.67,352.99 L730.63,356.76 L732.77,352.18 L731.67,352.99 Z M731.48,362.77 L728.55,355.86 L731.92,364.61 L731.48,362.77 Z M686.11,317.01 L686.37,315.73 L686.35,315.76 L685.69,317.37 L686.11,317.01 Z M681.85,318.05 L684.28,311.72 L681.59,317.46 L681.85,318.05 Z M807.82,324.55 L828.40,330.92 L810.45,324.55 L807.82,324.55 Z M691.29,274.47 L690.99,274.49 L691.24,274.75 L691.29,274.47 Z M833.23,303.11 L834.63,300.95 L830.78,306.52 L833.23,303.11 Z M838.78,269.37 L837.01,273.14 L834.39,279.51 L838.78,269.37 Z M783.61,191.71 L783.39,185.93 L783.33,191.49 L783.61,191.71 Z M824.37,195.17 L784.69,192.55 L785.11,192.87 L824.37,195.17 Z M268.70,831.47 L268.39,832.10 L268.03,831.20 L268.46,830.76 L268.70,831.47 Z M385.04,789.75 L385.22,791.73 L383.08,791.37 L383.63,789.57 L385.04,789.75 Z M573.50,598.11 L572.64,599.90 L571.60,598.20 L572.15,597.39 L573.50,598.11 Z M979.18,980.77 L978.82,980.14 L979.18,979.42 L979.49,980.23 L979.18,980.77 Z M976.68,979.78 L976.13,977.54 L977.90,976.01 L977.41,971.17 L978.75,970.00 L980.77,973.59 L978.08,979.87 L976.68,979.78 Z M977.47,966.23 L977.84,967.04 L976.92,967.58 L977.47,966.23 Z M976.74,965.97 L976.37,965.61 L976.98,965.34 L976.74,965.97 Z M979.55,959.68 L978.14,959.68 L977.90,961.12 L975.03,963.54 L971.91,962.56 L969.23,964.08 L961.90,957.44 L959.03,953.76 L957.81,954.12 L957.44,948.92 L955.91,944.07 L954.81,930.70 L953.10,928.91 L952.56,926.13 L952.31,925.05 L953.29,922.36 L957.26,918.50 L964.46,919.31 L965.32,918.14 L969.96,919.76 L972.46,925.14 L974.11,923.17 L971.85,927.39 L971.91,931.51 L973.93,935.73 L973.32,939.41 L974.91,947.30 L976.49,949.99 L979.85,951.61 L979.06,954.12 L979.98,957.80 L979.55,959.68 Z M962.08,951.56 L964.65,951.25 L961.78,950.98 L962.08,951.56 Z M968.56,945.87 L969.78,939.41 L970.14,937.34 L968.56,945.87 Z M974.48,917.25 L975.27,918.14 L973.99,920.21 L974.48,917.25 Z M973.69,916.89 L972.65,916.26 L973.44,915.54 L973.93,916.53 L973.69,916.89 Z M970.69,915.81 L970.51,915.09 L971.43,914.56 L971.55,915.63 L970.69,915.81 Z M895.46,318.90 L893.20,316.92 L890.08,316.57 L891.06,313.07 L896.31,312.53 L897.78,310.46 L898.08,313.96 L895.46,318.90 Z" /></g></svg>