<svg xmlns="http://www.w3.org/2000/svg" viewBox="0 0 1000 1000" width="1000" height="1000"><g fill="#cccccc" stroke="#222" stroke-width="2"><path d="M147.12,902.14 L139.26,898.08 L144.85,892.39 L146.17,885.16 L148.07,882.74 L147.31,871.17 L141.63,862.96 L142.10,860.26 L143.80,859.88 L146.27,853.51 L149.11,850.71 L155.27,847.14 L158.49,847.72 L164.65,842.32 L171.37,834.12 L172.03,831.32 L156.12,804.01 L154.13,810.38 L151.57,811.54 L149.96,815.79 L143.80,820.90 L140.30,820.42 L130.16,813.28 L125.81,808.45 L120.50,806.46 L118.61,807.39 L110.84,800.93 L106.01,800.06 L100.04,793.50 L93.31,791.57 L92.18,789.83 L88.20,791.47 L85.64,790.12 L80.52,793.59 L69.53,790.70 L59.40,791.57 L54.28,789.74 L49.07,790.89 L40.36,788.77 L35.15,792.73 L30.41,794.08 L29.27,783.27 L34.48,777.48 L35.15,774.20 L35.62,766.97 L33.44,757.90 L34.48,755.77 L40.36,754.42 L42.16,748.92 L46.61,744.77 L50.21,743.71 L52.20,743.91 L53.71,747.09 L57.03,746.51 L57.22,749.21 L59.97,749.50 L65.93,744.97 L70.29,748.25 L74.46,743.91 L77.21,745.45 L76.45,743.33 L79.01,742.07 L83.84,744.39 L88.29,740.82 L84.31,743.71 L84.22,735.61 L86.02,736.77 L85.73,734.35 L88.01,733.49 L86.11,731.56 L89.43,729.82 L91.61,723.45 L93.60,720.94 L91.99,716.22 L89.43,714.29 L90.47,712.65 L92.55,713.71 L93.88,712.45 L92.84,709.17 L90.66,708.21 L89.71,702.42 L86.40,696.05 L90.09,689.78 L85.73,686.89 L85.26,683.51 L80.14,682.83 L80.81,679.94 L73.70,679.55 L73.13,674.73 L68.49,670.77 L71.05,667.40 L69.82,664.60 L70.58,661.61 L66.60,660.16 L69.25,654.95 L63.47,649.35 L64.89,645.69 L64.04,643.76 L58.36,641.06 L60.34,637.39 L56.37,634.50 L57.31,632.18 L54.66,630.44 L57.12,628.51 L55.80,625.33 L56.74,624.27 L58.07,622.63 L58.64,605.74 L54.09,599.18 L50.68,597.93 L50.02,595.23 L48.50,595.52 L47.18,592.72 L44.43,591.66 L45.09,586.83 L43.58,584.04 L40.92,583.75 L40.55,581.67 L40.55,581.69 L40.55,581.62 L40.57,581.60 L41.21,577.96 L38.08,576.70 L37.80,573.42 L34.10,570.34 L34.20,565.61 L29.27,559.34 L29.56,553.55 L25.48,544.09 L26.90,543.22 L26.43,540.23 L23.02,539.08 L24.35,534.06 L21.50,532.61 L25.10,528.75 L23.30,525.47 L25.01,524.60 L26.34,519.59 L30.22,516.40 L37.89,501.06 L40.26,500.39 L40.17,492.38 L42.54,491.80 L43.29,488.42 L47.56,485.14 L46.51,482.73 L48.41,480.51 L49.83,481.57 L53.15,476.65 L49.83,467.68 L47.08,467.68 L43.86,461.21 L47.46,458.71 L45.95,457.74 L46.89,453.40 L44.52,449.54 L45.76,445.10 L47.08,443.37 L51.16,442.50 L51.44,439.80 L52.48,440.37 L51.44,439.12 L52.20,436.13 L60.34,436.61 L61.86,438.25 L66.03,437.29 L67.45,435.55 L71.43,435.65 L69.91,435.55 L70.01,435.07 L71.14,434.87 L69.72,430.24 L19.51,333.18 L25.01,341.38 L19.23,332.51 L24.25,332.41 L28.33,334.34 L32.78,332.89 L38.37,333.95 L40.45,332.89 L38.75,328.55 L42.25,326.43 L46.99,320.25 L49.45,319.68 L52.01,321.32 L59.59,317.84 L69.34,323.73 L73.61,332.89 L88.20,334.05 L97.29,337.33 L103.26,332.03 L109.70,329.90 L112.16,326.24 L121.35,325.56 L129.22,328.84 L134.24,328.07 L137.27,330.96 L132.82,331.83 L130.54,336.66 L137.97,336.94 L222.24,331.54 L224.71,334.34 L226.60,333.76 L226.74,335.23 L227.26,337.04 L225.46,340.23 L226.98,343.89 L231.34,344.57 L231.24,336.66 L232.66,337.14 L235.13,331.64 L238.54,331.45 L236.83,336.08 L239.58,337.24 L238.92,338.68 L242.04,339.94 L242.90,341.87 L244.88,339.36 L246.12,341.77 L248.39,340.23 L249.34,342.16 L250.47,339.55 L252.08,341.48 L253.98,340.52 L252.94,336.66 L249.05,335.02 L249.15,332.12 L246.78,331.93 L244.32,326.24 L247.82,322.28 L247.54,318.42 L249.15,319.00 L249.72,316.97 L251.99,319.87 L255.40,319.96 L256.92,322.76 L260.04,322.67 L261.18,326.62 L264.59,329.03 L268.47,327.68 L269.04,327.97 L270.18,329.32 L270.37,330.29 L270.46,333.28 L276.43,340.80 L283.82,341.96 L288.46,341.09 L290.45,337.43 L295.09,337.33 L295.66,339.36 L305.04,336.37 L306.08,333.95 L310.72,333.67 L324.84,380.56 L312.14,337.43 L313.00,332.51 L311.86,330.10 L314.99,330.48 L316.79,325.37 L321.14,322.09 L319.53,322.67 L323.80,319.87 L325.60,314.95 L329.29,311.76 L329.48,307.33 L332.32,304.72 L333.46,305.11 L333.08,306.94 L335.16,306.07 L334.03,302.50 L335.70,300.92 L337.53,295.65 L336.11,286.20 L341.80,285.81 L344.83,283.11 L344.16,280.21 L345.40,278.96 L348.43,279.35 L348.05,275.68 L346.15,275.20 L350.42,274.14 L349.28,271.24 L349.28,271.05 L350.80,269.99 L350.23,267.58 L355.91,266.42 L355.72,264.01 L358.09,264.20 L356.57,262.46 L356.76,259.66 L359.32,257.06 L359.42,254.65 L361.22,254.36 L370.03,243.36 L368.61,239.88 L369.46,236.70 L372.58,237.09 L373.91,233.23 L377.61,234.29 L380.16,226.96 L384.33,227.54 L386.13,225.99 L391.53,230.14 L397.78,230.33 L400.15,230.04 L401.48,226.57 L409.34,226.86 L413.60,228.79 L419.29,237.47 L430.18,235.54 L437.26,242.27 L439.47,242.97 L441.46,240.08 L442.21,241.04 L444.96,238.92 L448.56,239.11 L452.73,236.32 L459.45,237.57 L462.49,235.83 L466.28,237.76 L468.83,236.70 L478.87,243.26 L481.72,243.65 L487.50,241.43 L492.61,242.59 L497.06,247.22 L503.03,245.00 L507.10,245.96 L518.85,240.66 L524.54,241.81 L530.31,235.16 L566.69,225.12 L579.58,220.78 L591.23,204.28 L604.02,196.76 L608.18,184.79 L611.50,180.84 L615.95,179.29 L618.70,180.26 L619.93,177.36 L623.34,177.17 L621.83,173.51 L623.72,169.45 L628.27,169.55 L625.81,163.47 L628.46,164.44 L628.84,160.48 L632.44,157.78 L629.69,155.27 L632.34,154.98 L632.91,151.22 L635.18,152.09 L635.85,154.79 L639.64,151.41 L642.00,153.34 L646.46,148.81 L650.63,150.25 L650.91,146.68 L652.14,143.69 L648.54,141.96 L646.36,137.90 L642.48,136.46 L643.24,134.62 L646.08,133.66 L644.47,132.21 L646.93,129.51 L645.98,126.23 L648.07,125.26 L652.61,129.12 L655.36,127.29 L658.77,127.39 L657.73,132.02 L664.17,132.21 L667.20,126.33 L666.35,122.66 L669.19,122.27 L668.15,115.91 L672.98,112.24 L671.56,107.70 L676.49,105.39 L678.76,100.95 L681.13,100.08 L681.70,95.26 L684.35,95.26 L682.74,96.90 L685.20,98.35 L687.57,95.26 L690.79,95.35 L690.41,91.11 L693.07,93.04 L696.00,88.02 L699.13,90.72 L701.97,86.67 L707.65,85.03 L708.51,78.08 L706.90,78.86 L704.62,76.93 L706.80,76.25 L708.03,73.26 L705.76,72.39 L710.59,69.98 L708.13,67.28 L709.26,65.54 L714.10,65.54 L713.24,64.58 L714.85,61.49 L712.86,57.44 L717.22,57.15 L714.00,52.81 L718.36,49.62 L720.92,50.01 L720.25,46.92 L721.86,43.74 L719.69,42.68 L720.54,40.55 L722.91,41.23 L723.76,38.91 L727.17,37.85 L735.13,38.62 L742.04,36.40 L747.06,31.19 L749.72,33.80 L752.08,30.04 L751.61,27.14 L754.45,27.72 L755.87,25.50 L757.39,26.27 L757.01,22.32 L763.93,21.84 L767.90,19.23 L771.98,21.26 L788.75,132.40 L793.77,176.69 L786.38,185.57 L791.11,188.36 L792.63,195.50 L803.81,196.66 L800.30,206.41 L795.95,211.71 L797.18,220.20 L793.67,223.87 L797.08,247.99 L795.57,255.51 L798.22,264.10 L795.19,270.86 L797.18,272.69 L795.66,276.16 L796.42,278.48 L792.65,278.33 L796.23,280.60 L797.65,280.21 L800.68,271.34 L803.05,271.82 L802.86,274.23 L804.09,274.52 L802.77,284.07 L804.76,270.47 L806.18,269.22 L809.02,273.75 L806.27,282.05 L809.40,280.89 L812.81,281.85 L815.37,286.78 L822.38,289.19 L823.80,287.35 L824.65,290.06 L829.77,290.92 L830.62,293.91 L832.80,290.34 L837.72,294.20 L838.58,290.15 L840.19,289.86 L841.61,294.69 L845.21,289.48 L851.08,291.89 L851.93,291.12 L850.04,288.90 L852.69,286.20 L851.93,288.80 L856.76,291.79 L854.87,297.77 L857.71,297.10 L861.88,298.93 L864.25,296.91 L866.43,298.55 L865.95,300.48 L868.23,301.54 L875.33,299.61 L878.55,308.00 L876.28,301.05 L881.30,302.31 L883.76,304.05 L883.57,307.23 L890.87,312.25 L902.14,327.78 L902.52,331.16 L906.31,334.92 L905.84,335.98 L909.06,337.72 L906.40,339.84 L909.62,341.38 L909.06,343.60 L910.86,343.89 L909.72,345.63 L911.33,346.79 L910.19,351.51 L914.46,353.15 L913.51,355.86 L911.61,356.24 L912.85,357.98 L909.81,358.46 L912.47,360.10 L910.76,361.36 L912.37,361.55 L911.80,362.90 L914.36,365.12 L910.57,365.70 L913.41,366.08 L916.92,370.42 L924.59,371.68 L926.39,376.50 L931.22,378.24 L931.60,380.65 L937.10,381.33 L941.64,385.48 L941.93,391.55 L950.45,406.99 L956.61,413.75 L955.76,419.15 L960.88,426.87 L960.78,435.07 L967.22,438.16 L972.91,436.90 L977.74,439.89 L979.73,442.69 L980.77,457.26 L979.25,456.00 L975.84,456.78 L970.82,464.21 L972.24,469.99 L968.64,467.20 L968.17,474.43 L963.34,477.23 L963.43,479.93 L960.31,482.05 L959.74,487.07 L964.38,493.34 L956.52,502.12 L953.39,498.84 L951.31,499.90 L949.89,503.09 L951.59,503.67 L948.75,504.92 L948.56,510.71 L950.93,511.38 L952.63,514.47 L952.54,517.37 L950.74,518.43 L954.62,522.09 L952.82,522.38 L953.20,525.66 L951.59,525.86 L951.31,528.27 L946.95,532.22 L944.39,530.30 L944.49,527.40 L942.88,526.05 L930.66,528.08 L922.41,532.61 L920.52,537.43 L914.27,536.47 L914.17,541.39 L910.76,545.64 L905.55,547.66 L901.86,547.18 L894.37,550.27 L885.75,548.72 L875.05,557.50 L863.30,557.70 L860.93,559.14 L857.24,568.02 L850.80,567.73 L847.10,571.78 L845.40,593.88 L845.30,598.12 L840.19,604.01 L846.44,609.60 L839.71,614.33 L828.91,632.86 L828.06,636.71 L835.07,644.43 L830.90,651.28 L832.23,656.20 L834.60,658.42 L846.91,661.90 L851.08,665.08 L864.72,676.08 L861.22,686.50 L866.90,694.03 L858.00,706.66 L858.18,708.69 L861.22,714.77 L872.02,720.36 L869.93,723.65 L865.48,720.17 L862.26,721.04 L872.21,737.92 L891.53,737.15 L894.66,744.00 L715.61,784.24 L700.58,788.87 L698.47,792.73 L692.69,796.68 L692.97,798.71 L690.79,800.16 L690.98,804.21 L688.80,804.11 L688.80,805.65 L682.93,808.36 L674.12,807.78 L670.33,806.14 L669.19,808.07 L666.26,808.36 L667.77,813.28 L665.69,819.74 L660.76,822.83 L656.97,822.44 L654.51,825.63 L655.93,826.49 L655.55,828.13 L653.37,828.33 L651.00,830.84 L649.30,829.87 L649.96,832.57 L647.31,833.73 L647.12,831.90 L645.32,836.24 L643.71,835.18 L641.13,837.15 L642.19,839.81 L640.11,841.45 L640.20,846.18 L638.78,847.05 L640.77,849.55 L640.02,854.28 L641.25,855.92 L638.88,858.62 L640.58,859.01 L640.11,860.07 L643.90,859.11 L643.24,860.65 L646.17,863.45 L645.51,864.80 L648.45,866.25 L648.54,868.17 L646.74,870.88 L645.23,869.72 L644.75,871.55 L643.24,871.07 L640.77,874.35 L640.11,878.21 L641.91,878.50 L640.68,879.85 L642.19,880.62 L640.96,882.36 L639.73,881.59 L632.15,885.06 L630.73,886.89 L632.53,887.66 L629.69,889.01 L629.12,892.58 L630.83,894.51 L633.19,894.42 L633.67,899.53 L634.71,899.63 L629.59,904.93 L633.57,908.02 L627.42,908.60 L625.99,910.34 L626.37,912.56 L624.38,910.05 L621.64,910.92 L617.94,909.37 L617.85,907.64 L615.01,908.89 L616.90,909.86 L615.10,911.21 L616.62,912.27 L613.30,912.36 L612.92,913.71 L610.08,913.81 L610.36,915.35 L615.86,917.57 L610.17,918.54 L611.41,919.99 L610.84,922.78 L612.26,922.49 L612.64,923.84 L611.22,923.84 L610.84,925.58 L608.47,925.49 L609.32,927.13 L607.43,929.05 L606.01,927.61 L604.49,928.38 L605.63,931.47 L600.32,929.34 L595.96,932.34 L595.68,934.94 L593.97,932.62 L591.13,936.39 L589.62,935.62 L590.66,934.36 L586.02,935.33 L586.30,937.35 L584.88,937.74 L586.59,938.80 L586.11,941.12 L588.76,940.25 L589.71,942.95 L585.54,942.95 L581.47,947.00 L579.58,945.26 L580.14,947.19 L578.63,948.64 L579.67,950.86 L575.03,950.38 L577.11,952.50 L576.92,954.53 L574.18,952.60 L571.05,954.82 L572.57,957.13 L568.59,955.01 L570.10,950.96 L566.88,951.44 L562.81,954.43 L563.57,951.34 L555.70,951.25 L555.61,953.66 L558.73,954.24 L558.92,958.58 L559.97,957.61 L562.90,959.25 L559.87,962.53 L559.87,963.60 L562.90,962.82 L562.24,965.81 L558.83,967.07 L560.53,969.87 L557.60,969.38 L558.45,967.55 L557.50,966.97 L554.76,967.94 L552.48,966.10 L551.06,967.07 L550.59,964.75 L546.70,966.10 L545.38,964.75 L544.71,966.30 L546.04,967.84 L543.39,967.26 L541.68,969.19 L540.83,967.65 L538.46,969.67 L539.03,971.51 L536.09,972.76 L538.56,975.27 L535.81,975.95 L536.47,980.67 L535.05,979.23 L532.97,980.77 L530.41,980.00 L527.85,977.59 L527.66,974.69 L525.20,974.40 L525.29,976.62 L522.07,974.59 L521.98,972.95 L519.42,976.23 L517.72,974.50 L516.01,973.73 L518.76,972.66 L517.34,970.54 L520.84,970.45 L523.59,964.85 L526.53,964.95 L526.81,962.15 L530.13,961.47 L531.26,959.64 L531.83,954.82 L529.56,945.46 L525.39,941.02 L525.39,938.12 L521.60,936.77 L519.33,932.72 L513.17,929.83 L503.69,928.67 L501.23,930.79 L498.39,928.28 L495.64,928.38 L488.63,931.18 L485.03,936.58 L485.41,939.86 L481.91,943.24 L467.89,943.14 L455.67,955.97 L452.73,962.53 L455.38,965.62 L458.03,975.27 L452.54,971.70 L448.65,971.99 L449.51,968.03 L440.98,968.32 L439.37,954.33 L442.50,948.06 L445.24,948.16 L446.95,943.72 L445.05,939.47 L440.70,938.12 L444.30,934.94 L439.75,931.27 L440.70,926.35 L439.18,926.55 L438.42,923.75 L440.98,924.62 L442.40,923.27 L441.36,916.22 L439.56,915.26 L440.70,909.95 L438.61,908.41 L426.20,910.05 L419.38,904.74 L412.28,904.74 L410.67,901.46 L398.83,909.08 L388.69,904.74 L372.87,905.13 L373.63,886.99 L361.88,886.89 L357.81,878.11 L358.18,860.75 L371.92,858.43 L375.43,854.47 L383.38,844.73 L391.91,837.30 L394.37,826.78 L389.54,815.50 L389.73,807.20 L384.14,798.03 L378.27,797.16 L374.10,800.64 L369.74,800.83 L364.06,806.04 L357.05,806.04 L356.01,807.39 L355.91,808.93 L352.69,808.16 L343.22,812.02 L342.65,815.21 L339.62,821.19 L341.99,826.30 L341.89,831.32 L343.79,833.06 L345.77,834.70 L345.59,837.01 L340.85,842.22 L331.56,846.76 L331.56,853.41 L326.73,855.34 L317.83,854.57 L316.98,862.96 L314.70,864.03 L311.86,863.93 L308.83,865.18 L309.87,871.94 L301.06,880.04 L301.91,885.25 L296.13,889.40 L292.25,887.18 L289.88,882.94 L285.24,884.38 L284.77,887.09 L279.37,890.27 L275.96,886.60 L272.93,887.76 L271.69,883.71 L267.81,884.87 L272.55,900.30 L269.14,902.72 L261.46,897.99 L271.22,905.03 L272.26,909.66 L269.14,926.45 L267.43,929.83 L262.98,930.50 L249.43,927.32 L246.21,924.81 L228.59,925.68 L212.86,921.63 L210.12,908.89 L209.93,898.08 L196.95,898.95 L189.84,904.55 L186.15,903.58 L174.59,906.77 L171.47,908.89 L165.31,914.00 L161.52,915.07 L157.26,914.10 L152.61,911.59 L147.12,902.14 Z M68.87,635.36 L66.22,635.94 L60.34,637.39 L68.87,635.36 Z M944.11,466.23 L943.98,466.18 L963.34,477.23 L944.11,466.23 Z M447.90,318.90 L448.08,319.35 L448.65,318.71 L454.43,315.82 L447.90,318.90 Z M449.24,328.05 L450.17,327.49 L450.74,325.75 L449.24,328.05 Z M427.62,339.07 L425.54,343.31 L430.94,333.76 L427.62,339.07 Z M420.71,362.22 L420.69,362.62 L425.92,360.58 L420.71,362.22 Z M425.88,377.89 L426.68,376.70 L426.49,374.86 L425.88,377.89 Z M410.10,391.55 L408.54,393.50 L417.30,388.37 L420.23,386.34 L410.10,391.55 Z M424.62,437.34 L425.16,438.54 L425.54,437.29 L425.60,437.12 L424.62,437.34 Z M444.66,562.27 L444.77,561.46 L442.12,556.92 L444.66,562.27 Z M443.44,567.83 L444.20,565.61 L444.26,565.17 L443.44,567.83 Z M439.18,568.98 L438.90,569.91 L439.99,568.77 L439.18,568.98 Z M432.17,578.54 L438.23,573.39 L437.86,573.33 L432.17,578.54 Z M448.56,576.70 L445.43,574.68 L442.31,574.12 L448.56,576.70 Z M465.03,611.79 L464.76,608.83 L463.62,607.93 L465.03,611.79 Z M451.88,642.79 L445.15,643.08 L454.24,642.79 L451.12,641.64 L451.88,642.79 Z M414.27,648.87 L416.65,650.93 L416.65,650.93 L414.27,648.87 Z M365.01,687.85 L361.43,687.77 L363.49,688.72 L368.89,687.46 L365.01,687.85 Z M354.68,694.89 L359.89,700.59 L354.30,693.54 L354.68,694.89 Z M361.12,735.03 L372.02,736.28 L365.57,734.74 L361.12,735.03 Z M386.70,730.21 L381.49,725.57 L381.29,725.80 L386.70,730.21 Z M425.36,781.44 L432.74,780.57 L427.25,780.76 L425.36,781.44 Z M405.13,783.20 L406.40,783.56 L412.85,781.82 L405.13,783.20 Z M196.03,413.70 L189.94,407.76 L193.16,412.11 L196.03,413.70 Z M204.25,414.58 L197.17,414.34 L198.18,414.90 L204.25,414.58 Z M213.05,411.82 L208.86,414.33 L210.78,414.23 L213.05,411.82 Z M218.55,417.89 L218.93,396.57 L217.98,403.71 L218.55,417.89 Z M210.97,503.09 L210.12,495.85 L209.74,497.59 L210.97,503.09 Z M271.69,528.95 L271.60,528.90 L271.51,528.97 L271.69,528.95 Z M212.77,563.68 L212.11,560.30 L211.16,558.47 L212.77,563.68 Z M241.57,591.46 L241.28,588.57 L241.28,595.90 L241.57,591.46 Z M222.81,639.51 L229.44,638.07 L216.84,639.80 L222.81,639.51 Z M219.40,681.68 L221.37,679.96 L219.78,680.52 L219.40,681.68 Z M210.88,714.48 L214.76,714.29 L214.89,713.10 L213.53,714.29 L199.60,710.23 L210.88,714.48 Z M237.50,738.21 L230.30,736.28 L237.88,738.62 L237.50,738.21 Z M240.59,740.94 L240.56,741.02 L240.64,741.10 L240.59,740.94 Z M250.90,772.02 L250.85,771.02 L248.29,768.70 L250.37,772.00 L250.90,772.02 Z M258.80,785.97 L259.66,783.46 L258.05,785.97 L258.80,785.97 Z M258.15,788.96 L261.08,788.77 L257.86,788.67 L254.17,806.62 L258.15,788.96 Z M234.56,843.57 L235.03,825.92 L234.84,832.86 L234.56,843.57 Z M250.17,890.61 L246.40,882.07 L250.17,890.61 L250.17,890.61 Z M111.03,636.43 L119.77,635.60 L116.33,634.98 L111.03,636.43 Z M116.90,744.20 L120.12,743.71 L111.60,742.94 L116.90,744.20 Z M130.16,736.38 L133.57,733.78 L124.38,738.50 L130.16,736.38 Z M180.85,722.39 L181.33,721.65 L178.95,721.29 L180.85,722.39 Z M194.11,711.58 L194.49,697.79 L194.01,713.90 L194.11,711.58 Z M171.28,902.62 L181.89,887.86 L173.17,898.76 L171.28,902.62 Z M182.27,882.07 L179.90,878.40 L178.00,875.70 L182.27,882.07 Z M174.35,778.77 L173.65,779.70 L173.08,795.52 L173.65,781.34 L174.35,778.77 Z M206.14,660.84 L212.58,661.70 L215.68,661.88 L206.14,660.84 Z M177.15,683.22 L167.96,649.55 L174.21,673.18 L177.15,683.22 Z M156.78,684.96 L166.92,679.65 L168.73,678.04 L156.78,684.96 Z M137.65,527.59 L138.77,528.01 L137.27,526.15 L137.65,527.59 Z M141.34,528.97 L141.34,528.46 L139.59,528.32 L141.34,528.97 Z M145.23,534.06 L145.47,533.83 L145.07,533.70 L145.23,534.06 Z M186.62,545.25 L189.47,544.38 L184.13,544.66 L186.62,545.25 Z M211.44,510.81 L213.07,509.03 L198.18,520.07 L211.44,510.81 Z M93.54,600.15 L91.42,600.34 L93.60,601.02 L93.54,600.15 Z M100.62,598.38 L99.00,598.60 L98.99,598.31 L97.86,599.76 L100.62,598.38 Z M100.80,589.44 L101.27,592.00 L101.84,591.18 L100.80,589.44 Z M206.80,557.21 L204.15,557.31 L210.59,559.34 L206.80,557.21 Z M117.68,599.67 L106.10,597.64 L104.41,597.87 L112.54,599.67 L117.68,599.67 Z M142.00,611.63 L152.24,599.67 L140.49,612.11 L158.68,614.04 L142.00,611.63 Z M179.14,471.06 L175.45,470.19 L182.83,473.08 L179.14,471.06 Z M82.64,430.14 L83.50,430.39 L83.18,429.86 L82.64,430.14 Z M91.73,440.46 L91.80,439.99 L88.10,436.80 L89.14,438.44 L91.73,440.46 Z M92.99,441.44 L95.21,443.17 L94.16,441.53 L92.99,441.44 Z M309.07,592.23 L313.57,593.39 L309.68,591.95 L309.07,592.23 Z M323.89,602.56 L323.99,603.14 L324.37,603.00 L323.89,602.56 Z M325.32,602.66 L325.88,602.46 L325.63,601.99 L325.32,602.66 Z M326.14,600.85 L326.92,600.73 L326.64,599.76 L326.14,600.85 Z M331.25,600.26 L337.34,606.81 L331.36,598.44 L331.25,600.26 Z M331.41,597.68 L335.92,594.94 L331.47,596.77 L331.41,597.68 Z M353.83,558.08 L353.35,554.61 L353.22,554.37 L353.83,558.08 Z M289.41,754.33 L271.50,754.71 L282.97,754.52 L320.48,753.94 L289.41,754.33 Z M274.54,780.86 L273.30,761.47 L273.40,776.71 L274.54,780.86 Z M317.73,819.64 L305.51,819.16 L309.02,820.03 L317.73,819.64 Z M238.06,652.25 L237.15,654.10 L240.00,651.71 L238.06,652.25 Z M279.65,677.33 L272.45,673.86 L282.68,678.97 L279.65,677.33 Z M282.49,654.27 L282.68,664.02 L283.13,654.19 L282.49,654.27 Z M368.60,635.23 L367.47,633.34 L367.75,634.88 L365.29,634.98 L368.60,635.23 Z M369.27,636.33 L368.92,635.76 L368.17,637.25 L369.27,636.33 Z M285.15,686.31 L286.85,687.56 L282.11,682.93 L285.15,686.31 Z M338.67,429.38 L339.24,431.59 L337.72,423.97 L337.60,423.86 L338.67,429.38 Z M368.23,399.08 L369.84,399.08 L366.62,398.02 L368.23,399.08 Z M405.93,395.03 L407.36,394.19 L399.77,394.55 L405.93,395.03 Z M287.89,523.45 L293.67,525.18 L317.45,521.80 L292.82,524.51 L287.89,523.45 Z M344.92,518.85 L343.69,519.10 L342.08,520.94 L344.92,518.85 Z M346.63,504.53 L346.08,518.00 L346.82,517.46 L346.63,504.53 Z M403.18,436.90 L402.01,437.66 L406.03,438.16 L403.18,436.90 Z M408.53,437.05 L407.26,436.32 L407.82,437.77 L408.53,437.05 Z M418.15,436.32 L411.10,437.88 L411.24,437.96 L418.15,436.32 Z M280.13,456.87 L279.18,481.86 L280.03,461.50 L280.13,456.87 Z M282.21,466.13 L282.97,466.57 L280.03,461.50 L282.21,466.13 Z M284.69,467.55 L285.24,467.87 L296.61,463.63 L284.69,467.55 Z M350.04,472.89 L349.94,475.40 L350.80,468.45 L350.04,472.89 Z M333.27,415.39 L335.26,419.82 L331.56,406.99 L333.27,415.39 Z M370.50,333.28 L375.99,335.11 L392.48,339.55 L370.50,333.28 Z M457.65,491.51 L445.91,477.52 L463.43,498.94 L457.65,491.51 Z M519.27,378.70 L510.99,378.53 L518.38,379.49 L519.27,378.70 Z M521.19,375.78 L520.74,377.39 L521.41,376.79 L521.19,375.78 Z M521.54,333.73 L522.36,343.70 L522.07,333.86 L521.54,333.73 Z M543.74,305.70 L537.61,309.74 L540.45,308.87 L543.74,305.70 Z M634.90,304.72 L676.77,322.38 L616.52,296.91 L634.65,305.47 L634.90,304.72 Z M591.89,425.52 L591.13,424.36 L590.28,429.95 L591.89,425.52 Z M564.89,503.28 L565.65,500.68 L566.88,501.74 L565.27,500.23 L564.89,503.28 Z M546.80,516.88 L556.08,507.43 L546.33,517.05 L546.80,516.88 Z M541.21,517.95 L544.60,520.09 L544.46,518.89 L543.96,519.39 L541.21,517.95 Z M541.63,516.79 L529.56,521.61 L541.21,517.95 L541.63,516.79 Z M504.55,549.40 L508.62,547.28 L503.89,548.92 L504.55,549.40 Z M500.52,550.32 L501.16,549.87 L500.57,550.07 L500.52,550.32 Z M499.61,562.17 L500.76,559.82 L499.61,562.17 L499.61,562.17 Z M502.60,583.78 L504.64,569.95 L501.89,583.84 L502.60,583.78 Z M504.64,582.68 L503.00,583.75 L506.44,583.46 L504.64,582.68 Z M562.05,583.26 L565.56,583.65 L561.74,583.12 L562.77,585.13 L562.05,583.26 Z M566.50,594.84 L565.45,592.12 L565.83,600.07 L566.50,594.84 Z M566.69,603.91 L565.95,602.78 L566.11,606.13 L566.69,603.91 Z M564.51,612.21 L565.11,609.95 L560.72,615.87 L564.51,612.21 Z M558.54,629.67 L559.31,621.40 L558.36,625.14 L558.54,629.67 Z M565.74,648.87 L567.64,646.36 L565.46,648.29 L560.44,648.87 L565.74,648.87 Z M549.52,655.43 L555.61,656.69 L550.97,655.05 L549.52,655.43 Z M546.78,659.30 L547.27,659.68 L548.97,655.57 L548.41,655.72 L546.78,659.30 Z M544.24,659.48 L543.94,660.42 L545.28,659.02 L542.63,657.17 L544.24,659.48 Z M543.67,663.83 L543.17,662.85 L542.72,664.29 L543.67,663.83 Z M543.01,666.33 L542.32,665.53 L541.21,669.04 L543.01,666.33 Z M547.75,685.15 L547.75,685.15 L547.75,685.15 L547.75,685.15 Z M615.38,726.12 L614.91,726.15 L614.25,732.52 L615.38,726.12 Z M510.66,766.20 L511.37,766.77 L512.88,764.46 L511.75,766.10 L510.66,766.20 Z M502.37,793.11 L505.40,792.82 L502.51,792.32 L502.37,793.11 Z M501.60,793.05 L502.13,792.25 L500.99,792.06 L501.60,793.05 Z M495.07,810.96 L494.98,807.20 L494.18,811.52 L495.07,810.96 Z M510.42,814.24 L498.59,815.23 L500.00,815.79 L510.42,814.24 Z M645.41,825.14 L644.66,822.25 L645.13,827.75 L645.41,825.14 Z M556.84,462.85 L566.31,464.49 L567.07,465.85 L567.36,456.00 L566.79,464.01 L556.84,462.85 Z M504.45,720.46 L504.07,721.43 L506.73,717.47 L504.45,720.46 Z M544.90,686.21 L546.64,685.56 L545.66,684.96 L544.90,686.21 Z M448.94,783.56 L453.58,781.73 L448.65,783.13 L448.94,783.56 Z M494.13,786.45 L475.18,776.61 L474.90,776.58 L494.13,786.45 Z M431.22,864.80 L424.89,868.55 L426.49,868.46 L431.22,864.80 Z M457.28,896.76 L450.83,893.55 L457.32,896.93 L457.28,896.76 Z M457.38,896.96 L458.43,897.51 L458.77,897.51 L457.32,896.78 L457.38,896.96 Z M461.82,892.49 L459.92,897.51 L460.69,897.51 L461.82,892.49 Z M471.53,880.07 L471.72,880.11 L471.77,879.66 L471.53,880.07 Z M543.39,853.41 L537.14,853.61 L540.36,854.28 L543.39,853.41 Z M464.38,855.44 L462.30,856.02 L495.36,851.48 L461.73,855.25 L464.38,855.44 Z M451.68,854.55 L453.30,855.25 L462.30,856.02 L451.68,854.55 Z M398.88,837.47 L404.23,842.22 L400.06,837.49 L398.88,837.47 Z M474.23,833.54 L474.08,830.13 L473.19,830.06 L474.23,833.54 Z M474.74,830.18 L475.56,831.22 L478.31,830.45 L474.74,830.18 Z M483.61,753.26 L476.03,761.95 L479.63,758.19 L483.61,753.26 Z M518.58,495.76 L518.38,495.68 L512.32,498.75 L518.58,495.76 Z M489.48,639.42 L483.61,638.93 L481.87,639.49 L489.48,639.42 Z M476.32,556.92 L481.15,557.50 L481.32,557.45 L476.32,556.92 Z M483.46,556.75 L483.80,556.63 L484.24,555.79 L483.46,556.75 Z M486.69,551.08 L487.21,550.07 L487.68,547.07 L486.69,551.08 Z M520.14,496.39 L524.82,506.37 L520.46,496.53 L520.14,496.39 Z M488.63,566.48 L490.08,565.55 L486.36,565.99 L488.63,566.48 Z M503.79,430.15 L501.94,429.98 L506.63,432.85 L503.79,430.15 Z M519.33,451.76 L517.95,451.06 L521.50,457.93 L519.33,451.76 Z M516.67,469.42 L520.37,462.76 L521.50,457.93 L516.67,469.42 Z M519.54,428.74 L527.77,426.12 L525.86,426.00 L519.54,428.74 Z M533.39,426.47 L535.24,426.87 L538.84,425.32 L533.39,426.47 Z M558.90,235.58 L557.69,235.83 L557.57,237.27 L558.90,235.58 Z M557.48,238.25 L557.41,239.11 L559.87,239.79 L557.48,238.25 Z M563.38,236.51 L565.81,238.75 L566.22,237.86 L563.38,236.51 Z M565.30,239.88 L559.87,242.68 L564.99,240.56 L565.30,239.88 Z M587.96,510.53 L592.06,507.31 L589.52,508.49 L587.96,510.53 Z M595.75,505.58 L604.02,506.08 L596.34,505.31 L595.75,505.58 Z M650.91,497.59 L653.94,506.46 L649.54,489.82 L650.91,497.59 Z M780.31,511.48 L786.38,516.40 L782.40,512.64 L780.31,511.48 Z M758.43,542.36 L750.38,546.21 L751.71,546.02 L758.43,542.36 Z M844.73,519.20 L849.47,523.45 L846.63,520.65 L844.73,519.20 Z M863.87,546.02 L865.29,552.10 L864.72,547.37 L863.87,546.02 Z M580.56,643.80 L579.39,642.99 L576.96,643.62 L580.56,643.80 Z M597.13,652.45 L596.91,651.86 L591.61,651.48 L597.13,652.45 Z M626.85,630.15 L630.63,628.38 L626.37,628.22 L629.41,628.51 L626.85,630.15 Z M631.77,609.31 L627.89,611.82 L627.93,612.99 L631.77,609.31 Z M649.58,636.62 L650.14,636.63 L647.03,628.13 L649.58,636.62 Z M714.79,637.74 L714.38,636.62 L712.20,636.43 L714.79,637.74 Z M716.96,641.24 L718.55,645.98 L717.03,641.25 L720.86,637.88 L716.96,641.24 Z M726.89,658.04 L726.70,655.43 L725.27,651.38 L726.89,658.04 Z M712.49,716.60 L710.12,720.08 L714.29,714.38 L712.49,716.60 Z M821.14,675.02 L821.71,675.15 L820.90,674.80 L821.14,675.02 Z M826.01,676.19 L833.17,677.91 L830.24,676.37 L827.30,675.50 L826.01,676.19 Z M840.56,678.59 L838.86,677.62 L839.36,678.47 L840.56,678.59 Z M837.63,668.32 L837.44,668.55 L837.92,669.16 L837.63,668.32 Z M838.58,668.17 L838.50,667.23 L837.92,667.95 L838.58,668.17 Z M664.55,707.05 L665.42,707.26 L662.85,702.42 L664.55,707.05 Z M643.80,603.81 L643.33,606.61 L646.27,599.76 L643.80,603.81 Z M650.58,576.14 L651.38,577.67 L657.07,580.47 L650.58,576.14 Z M743.92,617.55 L740.53,607.29 L743.92,617.55 L743.92,617.55 Z M742.71,600.15 L744.00,617.48 L744.51,617.03 L742.71,600.15 Z M748.03,570.63 L749.34,572.55 L751.80,573.62 L748.03,570.63 Z M618.04,611.82 L617.47,611.45 L617.98,612.15 L618.04,611.82 Z M622.79,625.29 L617.18,616.55 L621.54,624.27 L622.79,625.29 Z M742.90,552.00 L741.92,551.31 L744.32,554.13 L743.37,551.09 L742.90,552.00 Z M647.48,536.40 L646.95,537.86 L647.59,537.53 L647.48,536.40 Z M648.19,565.62 L650.15,568.89 L648.45,565.90 L648.19,565.62 Z M649.39,573.91 L649.75,574.57 L650.15,568.89 L649.39,573.91 Z M738.92,547.76 L739.58,548.54 L739.30,545.15 L738.92,547.76 Z M649.96,458.61 L650.08,456.38 L648.41,459.81 L649.96,458.61 Z M785.62,395.03 L787.32,393.22 L782.68,391.46 L786.95,393.29 L785.62,395.03 Z M829.93,396.29 L829.39,396.86 L829.48,400.04 L829.93,396.29 Z M834.22,401.11 L830.03,396.18 L830.03,396.18 L834.22,401.11 Z M914.85,459.15 L909.44,461.41 L913.70,460.44 L914.85,459.15 Z M917.77,457.93 L916.98,458.26 L918.79,458.19 L917.77,457.93 Z M934.54,462.08 L927.90,460.44 L937.28,463.27 L934.54,462.08 Z M808.45,430.92 L808.92,426.96 L808.36,429.47 L808.45,430.92 Z M787.04,358.75 L784.01,356.72 L792.84,366.37 L787.04,358.75 Z M682.36,309.64 L682.93,311.47 L682.80,308.98 L682.36,309.64 Z M683.50,307.90 L683.26,308.27 L685.30,309.74 L683.50,307.90 Z M719.97,318.90 L715.42,316.67 L714.76,317.26 L719.97,318.90 Z M645.51,427.16 L646.55,403.81 L645.32,419.63 L645.51,427.16 Z M739.20,306.46 L741.15,302.15 L740.72,302.50 L739.20,306.46 Z M741.98,301.47 L743.84,300.96 L745.55,298.55 L741.98,301.47 Z M40.55,581.72 L40.55,581.69 L40.74,583.55 L40.55,581.72 Z M349.28,272.21 L349.28,271.24 L349.66,272.69 L349.28,272.21 Z" /></g></svg>