<svg xmlns="http://www.w3.org/2000/svg" viewBox="0 0 1000 1000" width="1000" height="1000"><g fill="#cccccc" stroke="#222" stroke-width="2"><path d="M400.52,980.77 L401.27,980.44 L401.60,980.61 L400.52,980.77 Z M368.36,951.28 L372.12,948.26 L378.55,949.89 L374.58,954.29 L370.19,955.35 L368.90,954.46 L368.36,951.28 Z M383.48,949.08 L381.98,948.75 L382.84,948.10 L384.12,948.18 L383.48,949.08 Z M361.50,922.60 L361.72,924.97 L365.36,927.33 L365.58,930.59 L362.25,933.76 L356.57,935.15 L358.82,944.19 L349.28,947.69 L341.67,947.78 L337.06,943.54 L347.89,934.82 L350.46,934.25 L351.64,929.93 L357.11,927.41 L361.50,922.60 Z M362.90,922.20 L362.79,921.54 L364.18,921.14 L362.90,922.20 Z M273.93,811.97 L265.89,809.45 L261.49,809.77 L241.87,804.80 L233.30,801.22 L232.76,798.20 L230.19,798.45 L228.26,796.41 L227.30,785.58 L223.33,776.13 L226.12,770.02 L231.26,765.37 L242.09,762.03 L254.95,765.62 L262.24,769.37 L263.85,774.17 L265.78,775.07 L271.25,769.69 L296.12,765.70 L313.05,760.08 L312.52,756.74 L312.09,753.48 L296.54,735.39 L294.51,730.26 L296.22,717.80 L302.55,706.72 L310.80,698.82 L336.74,693.28 L343.50,691.73 L348.10,692.95 L353.14,692.22 L380.48,685.95 L381.55,687.66 L381.76,685.54 L389.05,681.79 L389.27,677.07 L395.81,676.58 L399.34,673.64 L402.35,664.76 L404.49,664.44 L403.74,662.40 L409.10,660.61 L406.63,659.06 L409.85,654.91 L412.64,653.77 L421.00,651.32 L424.86,647.49 L426.79,640.49 L428.29,640.08 L426.36,639.75 L427.54,637.96 L425.50,634.95 L426.89,633.32 L424.96,632.91 L423.03,632.67 L420.78,638.86 L412.31,642.20 L380.80,649.77 L351.11,659.22 L334.92,662.16 L329.35,662.40 L323.45,660.61 L306.62,646.92 L296.54,631.69 L297.19,615.88 L305.23,592.10 L316.27,559.43 L320.02,527.25 L324.20,528.12 L324.41,527.33 L319.38,526.68 L321.95,492.87 L319.16,462.00 L321.84,454.01 L321.20,439.19 L322.70,437.80 L321.20,437.48 L322.59,436.42 L321.20,433.24 L322.91,429.57 L321.73,429.57 L328.92,427.62 L373.51,413.12 L323.02,428.60 L327.95,364.73 L326.45,331.08 L325.06,329.45 L332.67,307.78 L338.35,275.20 L340.92,273.73 L338.89,271.12 L339.64,253.28 L342.75,205.62 L345.10,197.31 L343.50,187.78 L348.10,170.84 L345.53,168.15 L347.03,165.95 L345.96,164.00 L348.32,162.20 L349.07,141.76 L350.36,140.61 L350.78,99.39 L354.86,44.57 L358.50,44.00 L365.90,45.54 L377.80,56.95 L400.52,71.61 L434.50,99.64 L403.85,74.30 L441.69,19.23 L473.09,42.77 L488.21,27.46 L491.64,23.96 L503.11,31.78 L523.37,37.72 L528.62,34.38 L534.52,21.84 L604.62,54.42 L649.75,74.95 L677.73,87.50 L726.50,110.64 L754.37,123.75 L812.26,151.53 L829.84,155.12 L831.98,153.32 L849.35,161.63 L801.32,198.70 L797.14,203.59 L797.68,208.72 L800.57,211.49 L799.60,212.23 L799.93,212.22 L815.26,227.13 L827.48,233.32 L846.35,249.05 L831.23,259.88 L816.76,266.07 L812.15,270.31 L807.76,272.10 L804.76,278.94 L797.79,283.51 L787.71,293.04 L783.85,294.18 L777.21,292.63 L780.85,294.10 L780.53,302.73 L788.25,306.40 L788.25,313.48 L789.86,314.05 L792.21,310.47 L795.75,311.45 L795.11,313.48 L802.29,314.95 L811.40,331.41 L815.05,332.06 L816.12,329.61 L822.01,329.21 L822.12,327.99 L825.12,328.23 L827.80,330.43 L827.59,332.30 L830.27,334.91 L831.77,344.28 L826.94,344.28 L807.54,348.60 L816.98,346.89 L817.94,348.11 L813.44,353.48 L812.15,361.55 L801.97,366.68 L797.25,376.95 L799.07,379.31 L795.97,384.93 L800.15,391.12 L793.82,394.95 L795.75,397.72 L802.40,400.82 L803.02,402.17 L813.33,399.84 L819.12,405.05 L825.02,407.82 L832.20,405.30 L846.99,403.02 L852.14,404.32 L862.64,412.14 L865.43,413.12 L870.68,414.58 L872.50,418.41 L878.93,418.82 L890.73,422.81 L896.51,417.92 L914.74,418.90 L915.92,421.10 L913.13,423.87 L914.74,425.66 L923.63,428.11 L931.67,427.05 L936.18,430.22 L942.82,425.26 L952.36,422.08 L954.94,426.88 L963.73,429.65 L971.55,435.44 L971.66,441.55 L980.77,447.66 L978.52,452.95 L977.55,463.63 L975.41,463.63 L962.65,472.75 L958.79,478.21 L954.72,480.16 L947.43,503.54 L947.43,512.02 L937.57,531.08 L929.21,541.18 L929.10,544.77 L925.03,549.16 L925.46,552.67 L924.38,555.76 L921.81,556.74 L922.24,560.49 L919.67,561.79 L912.49,576.29 L894.26,602.12 L888.69,608.96 L881.72,614.01 L882.26,615.64 L875.29,618.17 L871.43,619.55 L864.03,628.43 L848.71,639.92 L840.24,648.31 L819.33,664.03 L814.08,666.15 L781.71,674.62 L764.56,675.92 L738.94,683.58 L738.40,686.03 L735.94,685.13 L730.47,686.11 L727.90,689.45 L723.07,690.34 L716.86,700.53 L711.92,702.97 L702.06,714.38 L699.38,714.46 L691.34,719.43 L682.66,729.04 L680.09,734.50 L669.90,744.60 L670.65,752.58 L668.51,756.58 L658.43,764.89 L657.90,766.84 L651.68,768.31 L646.86,773.36 L625.95,777.43 L608.70,783.62 L599.80,784.36 L599.69,782.16 L588.01,784.84 L538.48,802.03 L531.73,803.66 L523.80,802.03 L513.51,802.03 L504.93,804.48 L498.71,807.98 L495.39,810.67 L488.64,812.30 L450.58,816.86 L406.53,825.82 L383.59,828.35 L370.83,829.73 L366.86,833.15 L357.54,834.29 L343.71,830.38 L334.92,824.19 L319.48,819.22 L273.93,811.97 Z M371.15,170.84 L382.94,170.76 L348.10,170.84 L371.15,170.84 Z M555.04,89.68 L555.04,89.68 L563.67,84.08 L555.04,89.68 Z M587.47,227.86 L591.45,234.87 L578.47,206.68 L587.47,227.86 Z M595.30,241.63 L600.55,250.51 L594.64,240.47 L595.30,241.63 Z M625.42,320.73 L624.13,312.91 L617.91,294.83 L625.42,320.73 Z M659.78,307.60 L658.97,307.21 L656.95,307.48 L659.78,307.60 Z M653.29,334.26 L653.61,335.37 L654.25,334.99 L649.32,331.08 L653.29,334.26 Z M624.28,413.22 L622.63,412.71 L618.66,413.52 L624.28,413.22 Z M625.02,415.26 L625.63,414.34 L627.75,414.29 L624.69,413.35 L625.02,415.26 Z M583.08,524.64 L585.76,536.21 L583.40,525.54 L584.47,521.06 L583.08,524.64 Z M581.58,581.02 L574.18,585.34 L583.29,580.53 L590.04,578.17 L581.58,581.02 Z M592.94,597.72 L595.65,598.94 L592.63,597.11 L592.94,597.72 Z M601.84,601.71 L617.23,601.15 L600.40,601.06 L601.84,601.71 Z M610.33,651.14 L614.70,654.01 L611.80,651.49 L613.17,650.81 L610.33,651.14 Z M596.80,755.60 L594.87,758.12 L600.01,754.46 L600.88,753.27 L596.80,755.60 Z M375.95,792.46 L376.08,791.85 L366.22,790.87 L375.95,792.46 Z M374.26,795.84 L373.08,805.54 L375.59,794.08 L374.26,795.84 Z M464.84,126.70 L445.87,111.53 L462.70,125.71 L464.84,126.70 Z M456.37,281.31 L457.05,243.95 L456.80,250.92 L456.37,281.31 Z M434.18,281.14 L522.62,281.79 L456.37,281.31 L434.18,281.14 Z M369.33,253.12 L352.50,254.01 L456.80,250.92 L369.33,253.12 Z M445.33,376.62 L442.65,373.04 L447.69,379.80 L445.33,376.62 Z M439.76,532.14 L451.87,530.35 L422.18,534.17 L439.76,532.14 Z M482.96,548.59 L482.42,552.75 L481.99,558.70 L482.96,548.59 Z M472.88,584.60 L457.01,581.67 L468.91,584.36 L472.88,584.60 Z M373.62,585.91 L395.06,576.21 L405.03,571.65 L373.62,585.91 Z M381.53,490.73 L375.98,490.84 L379.08,491.24 L381.53,490.73 Z M411.19,538.04 L418.96,516.58 L410.81,537.11 L411.19,538.04 Z M327.00,528.70 L356.57,534.83 L329.35,528.55 L327.00,528.70 Z M388.09,489.37 L388.54,488.43 L386.44,489.71 L388.09,489.37 Z M421.00,472.91 L412.21,476.58 L411.95,477.08 L421.00,472.91 Z M430.11,473.24 L430.90,472.84 L421.00,472.91 L430.11,473.24 Z M467.20,480.41 L471.70,481.06 L481.67,480.90 L467.20,480.41 Z M497.53,479.59 L505.47,482.44 L496.68,478.53 L497.53,479.59 Z M494.53,443.10 L503.64,448.23 L495.93,443.75 L494.53,443.10 Z M512.33,609.53 L513.48,608.98 L499.79,611.00 L512.33,609.53 Z M521.44,605.21 L526.37,600.65 L518.59,606.56 L521.44,605.21 Z M544.91,641.87 L547.06,639.10 L541.81,643.01 L544.91,641.87 Z M529.13,537.19 L529.13,537.19 L499.58,539.42 L499.82,540.02 L529.13,537.19 Z M494.32,427.45 L495.35,427.54 L495.71,425.42 L494.59,426.32 L494.32,427.45 Z M496.78,426.40 L495.65,427.57 L496.25,427.62 L496.78,426.40 Z M515.01,427.86 L514.90,428.14 L517.15,427.86 L515.01,427.86 Z M545.45,424.28 L528.62,428.68 L537.84,426.72 L545.45,424.28 Z M556.71,418.09 L552.10,422.00 L554.35,420.53 L556.71,418.09 Z M531.62,405.46 L551.78,392.75 L520.40,411.32 L531.62,405.46 Z M521.33,148.60 L525.00,146.43 L518.12,149.25 L521.33,148.60 Z M740.59,642.36 L731.86,642.87 L733.36,643.42 L740.59,642.36 Z M728.43,192.51 L720.79,192.19 L720.66,192.58 L728.43,192.51 Z M721.46,245.13 L722.00,241.22 L720.50,234.71 L717.50,227.13 L721.14,238.05 L721.46,245.13 Z M730.90,305.83 L726.82,304.12 L731.51,306.74 L730.90,305.83 Z M691.24,329.45 L710.10,320.57 L724.68,313.81 L712.14,319.51 L691.24,329.45 Z M702.38,301.75 L707.53,311.69 L712.14,319.51 L702.38,301.75 Z M718.36,324.48 L713.96,324.89 L713.95,325.07 L718.36,324.48 Z M697.35,336.38 L692.84,333.28 L690.38,331.90 L697.35,336.38 Z M699.68,386.80 L700.66,382.81 L699.60,384.03 L699.68,386.80 Z M667.71,365.72 L668.08,365.95 L699.60,384.03 L667.71,365.72 Z M710.53,463.79 L703.03,463.38 L691.66,463.54 L710.53,463.79 Z M702.71,523.42 L700.99,520.41 L702.33,524.09 L702.71,523.42 Z M696.38,527.66 L697.33,527.13 L681.05,526.52 L696.38,527.66 Z M699.06,564.40 L691.66,551.53 L700.78,567.41 L699.06,564.40 Z M795.11,598.94 L678.01,600.82 L699.06,600.90 L795.11,598.94 Z M800.57,604.15 L799.72,602.36 L793.29,596.50 L795.11,598.94 L800.57,604.15 Z M697.99,345.66 L698.95,349.33 L696.70,339.88 L697.99,345.66 Z M637.32,521.95 L640.85,517.88 L640.87,517.64 L637.32,521.95 Z M637.42,417.27 L630.45,415.12 L632.60,416.46 L637.42,417.27 Z M647.93,411.41 L645.03,414.58 L653.69,408.00 L647.93,411.41 Z M659.93,404.32 L658.39,405.23 L672.26,400.90 L659.93,404.32 Z M654.47,482.04 L654.25,484.40 L656.40,476.33 L654.47,482.04 Z M663.69,309.50 L662.08,316.82 L663.90,309.90 L669.05,312.10 L663.69,309.50 Z M685.14,331.14 L688.23,327.74 L691.13,324.81 L684.80,331.00 L685.14,331.14 Z M611.48,173.85 L631.85,165.46 L637.32,163.18 L611.48,173.85 Z M780.42,433.02 L770.02,431.28 L777.63,432.99 L780.42,433.02 Z M760.32,543.13 L760.38,540.69 L758.02,537.68 L760.32,543.13 Z M758.02,494.58 L753.62,497.19 L753.10,498.72 L758.02,494.58 Z M763.70,637.35 L766.81,634.05 L764.77,634.95 L763.70,637.35 Z M881.58,510.32 L881.19,502.89 L881.08,509.98 L881.58,510.32 Z M906.05,497.60 L905.55,497.96 L906.82,497.67 L906.05,497.60 Z M914.42,498.41 L910.52,498.03 L911.84,498.74 L914.42,498.41 Z M927.28,492.22 L919.02,494.09 L933.39,492.14 L927.28,492.22 Z M861.89,478.70 L860.72,476.45 L860.50,477.56 L861.89,478.70 Z M861.10,474.62 L865.11,469.82 L861.25,473.89 L861.10,474.62 Z M799.26,464.87 L798.86,466.07 L799.40,468.76 L799.26,464.87 Z M746.44,318.86 L746.14,306.39 L746.14,306.39 L746.44,318.86 Z M791.68,338.49 L799.50,341.59 L799.44,342.27 L799.98,341.53 L791.68,338.49 Z M811.08,336.78 L803.58,337.60 L803.31,337.96 L811.08,336.78 Z M773.56,376.05 L761.02,349.49 L768.74,367.09 L773.56,376.05 Z M795.32,402.04 L800.36,402.77 L802.05,402.39 L795.32,402.04 Z M742.26,369.78 L738.62,370.75 L735.94,372.71 L742.26,369.78 Z M747.73,336.13 L753.52,337.03 L747.79,335.52 L747.73,336.13 Z M781.60,229.74 L779.35,231.45 L760.81,254.83 L781.60,229.74 Z M778.06,203.02 L781.07,208.64 L782.10,208.79 L778.06,203.02 Z M58.79,572.38 L65.54,572.63 L60.39,573.28 L58.79,572.38 Z M23.84,522.93 L19.23,519.02 L21.70,513.97 L20.62,513.16 L22.45,512.18 L27.06,521.71 L25.88,523.50 L23.84,522.93 Z" /></g></svg>