<svg xmlns="http://www.w3.org/2000/svg" viewBox="0 0 1000 1000" width="1000" height="1000"><g fill="#cccccc" stroke="#222" stroke-width="2"><path d="M511.04,929.14 L496.58,980.77 L413.11,864.01 L318.29,729.96 L234.98,615.81 L223.01,594.26 L205.91,466.61 L217.26,551.39 L161.30,455.24 L151.04,470.40 L139.85,449.55 L183.84,378.98 L174.98,393.19 L131.92,461.40 L97.11,408.82 L79.39,387.27 L19.23,313.61 L27.94,295.14 L61.98,224.80 L74.10,207.28 L83.58,223.85 L106.43,189.75 L117.47,174.12 L115.29,168.91 L136.74,133.62 L144.82,152.80 L153.37,140.96 L191.24,234.39 L250.52,207.04 L265.29,199.93 L285.81,190.93 L336.48,160.38 L354.67,150.91 L331.66,72.04 L357.46,64.47 L364.46,68.02 L370.05,60.20 L410.00,54.05 L413.58,50.02 L421.66,40.31 L425.86,22.55 L438.45,19.23 L465.34,60.20 L511.04,96.44 L545.85,140.73 L599.95,223.38 L618.29,260.09 L626.68,283.54 L639.74,348.19 L658.55,375.43 L673.00,394.61 L689.48,431.32 L713.42,455.71 L770.46,511.84 L796.89,543.34 L811.19,557.31 L837.14,576.50 L858.13,604.44 L878.49,620.55 L894.66,640.92 L916.57,687.81 L932.27,716.70 L945.64,760.52 L952.48,776.86 L980.77,830.38 L972.06,840.80 L959.94,847.20 L941.13,872.54 L914.09,879.88 L878.34,889.83 L874.92,897.64 L870.41,895.27 L854.09,888.17 L848.96,889.35 L821.45,868.04 L813.83,859.75 L810.56,863.06 L802.48,860.22 L793.41,848.02 L792.07,856.43 L785.07,864.25 L777.61,886.04 L772.95,890.06 L762.53,887.69 L762.07,898.59 L747.15,896.46 L747.15,901.67 L723.83,913.75 L725.70,920.38 L722.28,923.93 L719.32,921.09 L710.62,932.93 L692.28,907.59 L711.08,882.96 L715.23,874.67 L706.73,869.22 L691.50,869.46 L692.12,858.09 L674.71,847.20 L673.00,838.67 L674.56,857.38 L671.76,873.72 L665.70,883.43 L661.50,884.14 L660.41,887.93 L652.33,885.33 L647.36,893.38 L645.80,908.54 L631.03,918.48 L574.92,828.25 L579.03,815.40 L561.24,803.38 L557.67,814.75 L553.78,827.78 L543.68,821.38 L533.57,855.72 L525.34,882.96 L532.64,887.69 L523.78,903.09 L518.81,924.40 L516.63,931.51 L511.04,929.14 Z M129.28,309.11 L148.09,278.80 L79.39,387.27 L129.28,309.11 Z M485.70,823.04 L462.23,809.55 L533.57,855.72 L485.70,823.04 Z M515.08,158.96 L532.64,180.75 L514.49,158.11 L515.08,158.96 Z M485.08,211.54 L498.91,219.35 L503.54,219.35 L494.56,215.09 L485.08,211.54 Z M506.45,223.72 L506.53,220.77 L505.54,220.31 L506.45,223.72 Z M504.98,257.58 L505.60,256.77 L505.99,241.64 L504.98,257.58 Z M484.92,582.18 L531.24,531.03 L572.59,485.08 L484.92,582.18 Z M541.23,576.34 L537.77,553.76 L531.24,531.03 L541.23,576.34 Z M513.99,653.23 L495.49,643.05 L496.56,641.27 L483.21,636.65 L513.99,653.23 Z M569.17,631.21 L552.84,613.29 L554.40,617.00 L566.53,628.36 L569.17,631.21 Z M585.96,581.71 L593.73,567.26 L584.09,583.13 L585.96,581.71 Z M591.71,554.47 L580.05,516.82 L593.73,567.26 L591.71,554.47 Z M647.16,612.87 L649.38,596.63 L647.04,612.50 L647.16,612.87 Z M642.07,693.97 L646.27,684.97 L646.33,684.74 L642.07,693.97 Z M693.05,674.07 L695.04,673.91 L673.31,661.52 L693.05,674.07 Z M708.44,675.97 L708.77,674.66 L706.00,675.02 L708.44,675.97 Z M766.58,684.97 L772.02,693.02 L773.33,692.02 L766.27,681.65 L765.02,670.52 L766.58,684.97 Z M791.29,781.83 L797.66,778.28 L788.04,780.85 L791.29,781.83 Z M813.67,815.70 L819.74,801.72 L824.09,793.44 L818.03,803.62 L813.67,815.70 Z M267.93,257.25 L265.29,250.38 L270.11,262.93 L267.93,257.25 Z M322.18,262.69 L312.85,276.90 L298.24,304.14 L322.18,262.69 Z M363.06,232.62 L352.02,216.99 L366.95,238.30 L372.85,246.35 L363.06,232.62 Z M427.41,245.41 L418.24,241.62 L375.34,241.14 L424.15,244.22 L427.41,245.41 Z M486.48,260.80 L481.50,271.22 L470.47,294.90 L486.48,260.80 Z M430.83,654.65 L437.05,648.26 L422.59,662.94 L430.83,654.65 Z M435.03,793.91 L458.03,721.44 L465.80,696.10 L425.60,823.39 L435.03,793.91 Z M188.97,392.24 L222.77,441.61 L222.77,441.61 L189.02,392.03 L188.97,392.24 Z M275.61,398.08 L276.64,399.82 L312.32,395.57 L312.32,395.56 L275.61,398.08 Z M325.29,592.60 L317.98,547.37 L320.78,568.92 L325.29,592.60 Z M360.91,617.98 L354.67,601.84 L354.66,601.84 L360.91,617.98 Z M425.79,566.79 L370.05,543.81 L423.68,566.08 L425.79,566.79 Z M189.90,387.98 L189.84,388.26 L241.04,308.64 L228.92,327.35 L189.90,387.98 Z M272.59,392.95 L273.16,393.91 L251.92,324.51 L272.59,392.95 Z M396.32,335.40 L397.58,332.06 L385.13,345.59 L396.32,335.40 Z M403.47,316.46 L404.41,305.56 L401.08,322.80 L403.47,316.46 Z M441.09,151.86 L438.89,158.74 L439.19,159.77 L440.16,155.65 L442.93,152.32 L441.09,151.86 Z M441.65,229.70 L441.65,229.70 L447.77,225.04 L441.65,229.70 Z M424.45,122.29 L432.07,115.86 L425.08,120.83 L422.13,103.07 L424.45,122.29 Z M708.75,733.75 L708.76,733.62 L707.82,738.25 L708.75,733.75 Z M728.47,762.20 L734.24,759.33 L729.00,759.98 L728.47,762.20 Z M648.60,775.91 L643.00,775.44 L632.90,774.73 L648.60,775.91 Z M651.24,788.70 L649.80,773.96 L648.60,775.91 L651.24,788.70 Z M706.58,802.67 L682.95,770.94 L701.60,798.41 L706.58,802.67 Z M530.15,758.62 L511.66,746.07 L504.35,741.57 L530.15,758.62 Z M525.34,291.11 L517.41,300.82 L522.85,294.90 L525.34,291.11 Z M747.55,578.58 L764.40,558.26 L749.48,573.89 L747.55,578.58 Z M754.26,598.17 L755.13,595.60 L754.30,596.63 L746.27,581.72 L745.59,583.36 L754.26,598.17 Z M595.66,485.88 L582.07,499.76 L568.55,514.92 L595.66,485.89 L595.66,485.88 Z M596.06,402.19 L613.31,442.21 L625.44,469.69 L611.14,437.00 L596.06,402.19 Z M536.31,615.17 L532.18,612.02 L536.22,617.00 L536.31,615.17 Z M652.33,573.18 L640.20,575.08 L644.09,574.60 L652.33,573.18 Z M676.89,552.10 L682.64,548.31 L670.52,552.58 L676.89,552.10 Z M705.80,591.89 L721.19,600.89 L690.10,579.10 L705.80,591.89 Z M641.29,502.61 L631.57,519.02 L649.38,494.79 L641.29,502.61 Z M877.09,821.62 L872.74,821.62 L872.42,821.97 L877.09,821.62 Z M866.99,838.43 L870.20,824.36 L869.01,825.64 L866.99,838.43 Z M838.53,675.71 L838.23,679.99 L847.09,686.15 L840.10,680.94 L838.53,675.71 Z M864.04,698.47 L853.62,718.83 L864.84,698.15 L864.04,698.47 Z M865.77,697.78 L865.72,697.80 L876.16,725.70 L872.43,712.20 L865.77,697.78 Z M880.67,719.78 L884.24,715.04 L884.82,714.09 L883.78,715.52 L876.16,725.70 L880.67,719.78 Z M869.94,687.10 L868.35,696.14 L876.94,693.49 L882.69,691.83 L870.10,693.49 L869.94,687.10 Z M895.74,711.02 L891.86,728.07 L899.63,704.15 L895.74,711.02 Z M826.09,713.70 L832.33,717.89 L826.09,713.70 L826.09,713.70 Z M838.08,737.78 L836.37,728.31 L832.33,717.89 L838.08,737.78 Z M837.76,751.37 L845.07,746.31 L838.08,750.09 L837.76,751.37 Z M853.47,728.78 L859.68,734.70 L862.33,730.20 L858.28,733.04 L853.47,728.78 Z M871.34,749.38 L871.65,742.99 L868.08,761.46 L871.34,749.38 Z M838.13,756.20 L837.15,753.79 L836.83,755.07 L838.13,756.20 Z M859.06,774.01 L843.52,769.51 L840.97,771.02 L859.06,774.01 Z M868.08,662.47 L872.12,656.07 L867.46,661.52 L839.79,619.84 L868.08,662.47 Z M877.40,676.91 L885.94,689.93 L885.94,689.93 L868.08,662.47 L877.40,676.91 Z M797.88,606.24 L797.97,596.63 L797.04,605.39 L797.88,606.24 Z M797.83,611.44 L797.85,609.15 L797.04,609.89 L797.83,611.44 Z M839.11,667.39 L843.21,652.99 L839.63,659.86 L839.11,667.39 Z" /></g></svg>