<svg xmlns="http://www.w3.org/2000/svg" viewBox="0 0 1000 1000" width="1000" height="1000"><g fill="#cccccc" stroke="#222" stroke-width="2"><path d="M54.88,442.78 L58.10,432.66 L58.24,425.63 L50.02,411.45 L54.67,408.68 L50.67,410.92 L47.24,402.72 L37.81,390.68 L36.66,391.95 L29.73,381.51 L23.52,374.69 L19.73,373.73 L19.23,371.82 L26.52,356.26 L28.88,353.81 L27.66,347.63 L30.38,346.78 L29.88,344.11 L31.16,342.83 L29.80,341.34 L25.23,336.97 L24.23,330.37 L28.66,323.01 L35.88,324.72 L42.66,331.86 L44.24,338.04 L45.81,339.21 L50.95,331.97 L52.31,322.38 L54.02,322.27 L55.88,324.40 L56.67,328.66 L55.59,333.99 L55.88,337.29 L59.17,337.83 L67.76,331.91 L65.38,332.50 L65.45,328.56 L63.60,323.97 L56.24,317.47 L56.88,314.49 L60.17,313.21 L63.02,315.34 L66.03,314.81 L70.03,305.11 L72.46,303.30 L78.74,307.46 L83.81,304.90 L91.42,295.14 L89.10,296.70 L86.17,295.84 L85.53,291.05 L89.24,282.31 L86.89,268.03 L79.89,254.18 L85.17,247.26 L90.17,245.12 L92.67,246.08 L93.46,250.13 L96.32,253.54 L101.67,238.73 L101.75,233.72 L100.17,230.95 L84.89,233.08 L82.24,231.59 L81.89,229.03 L86.96,219.34 L87.96,210.71 L78.53,200.05 L73.96,191.95 L78.31,185.45 L76.88,181.41 L78.46,179.91 L79.60,183.22 L83.46,182.58 L86.31,183.00 L88.96,189.93 L90.17,198.03 L92.03,196.75 L93.89,187.90 L95.53,186.41 L108.10,188.01 L107.03,198.56 L107.75,199.95 L110.03,199.63 L113.32,196.11 L115.89,183.22 L119.89,180.98 L123.99,182.24 L123.75,181.09 L127.68,175.86 L127.54,172.24 L125.04,170.22 L122.04,170.43 L124.82,164.57 L122.18,162.86 L120.04,163.93 L118.61,161.48 L119.32,157.43 L120.96,157.00 L121.68,154.98 L119.18,154.13 L120.04,150.50 L117.46,149.12 L119.18,147.52 L114.46,144.86 L114.11,141.77 L112.61,142.94 L112.82,140.70 L109.75,139.64 L110.68,138.04 L109.96,132.07 L111.53,131.11 L113.96,135.16 L115.61,129.51 L119.68,127.60 L122.61,133.35 L119.39,125.78 L121.96,124.40 L123.82,127.38 L125.11,125.46 L123.82,123.23 L120.61,122.59 L122.04,118.75 L120.18,114.70 L121.04,107.88 L120.75,101.28 L123.32,96.70 L124.61,97.97 L129.89,96.70 L130.04,111.93 L130.97,113.74 L134.40,113.00 L138.40,108.52 L139.40,103.51 L138.90,93.18 L140.83,92.54 L144.33,94.99 L146.61,100.53 L140.54,110.01 L141.75,113.74 L144.47,115.34 L148.18,113.32 L155.69,97.65 L156.54,91.15 L152.76,85.72 L151.11,81.99 L151.26,69.74 L148.83,67.71 L139.54,64.30 L136.97,61.64 L135.75,57.80 L130.25,49.49 L129.32,43.52 L132.04,33.08 L134.40,31.06 L137.04,20.40 L141.25,29.35 L143.90,29.03 L146.40,23.60 L154.83,25.52 L158.11,22.00 L163.26,23.49 L169.90,19.23 L172.97,19.98 L178.55,28.18 L187.26,28.61 L190.69,26.58 L195.41,20.51 L199.69,20.83 L214.98,29.35 L223.20,35.32 L239.42,42.03 L250.13,44.59 L261.99,42.14 L267.06,43.74 L273.78,49.81 L280.14,62.92 L282.35,71.76 L282.57,101.92 L284.21,129.09 L283.99,133.14 L281.64,141.98 L277.14,151.25 L272.42,160.41 L270.85,170.00 L274.21,185.88 L282.42,204.95 L290.92,215.93 L296.57,220.08 L310.57,221.04 L316.57,223.28 L322.22,229.35 L328.29,241.39 L355.01,219.66 L357.22,218.17 L358.58,222.85 L356.87,225.62 L357.94,224.88 L357.87,226.69 L358.15,224.35 L363.22,229.03 L365.22,234.04 L370.01,238.09 L372.73,244.17 L379.16,248.64 L378.58,253.44 L366.15,261.21 L363.30,261.21 L361.37,258.66 L360.08,259.62 L347.29,264.62 L343.86,263.88 L320.86,263.56 L288.35,259.51 L283.21,258.98 L280.57,263.34 L278.35,270.48 L278.49,276.56 L276.78,279.65 L276.71,281.35 L284.78,287.11 L287.42,302.45 L290.71,311.61 L294.71,325.57 L297.07,334.10 L299.14,336.97 L302.50,338.25 L305.57,336.76 L305.93,339.32 L304.00,342.62 L303.36,347.31 L298.50,358.60 L300.21,364.36 L303.36,365.53 L301.57,372.88 L301.86,377.36 L306.00,378.10 L307.64,382.05 L309.57,383.32 L310.93,386.63 L310.29,387.69 L308.21,389.08 L306.36,388.12 L305.36,385.35 L307.43,385.03 L307.29,383.22 L304.50,380.34 L301.78,380.13 L299.14,374.27 L300.14,370.00 L299.57,367.34 L293.85,364.78 L295.14,361.59 L294.00,359.14 L289.71,357.01 L287.00,357.75 L285.42,355.41 L286.00,352.21 L283.14,350.61 L280.83,345.09 L263.92,356.05 L256.78,363.08 L256.70,361.59 L256.28,364.25 L246.27,374.69 L238.77,376.08 L238.56,382.68 L239.20,400.05 L231.99,421.15 L226.20,432.55 L211.84,445.44 L202.19,454.08 L192.05,441.40 L186.62,437.88 L175.83,440.54 L170.19,438.41 L166.47,434.04 L162.72,424.64 L162.76,425.09 L155.76,429.67 L151.83,437.67 L143.33,443.31 L137.68,446.08 L134.32,440.65 L132.25,438.84 L125.18,437.88 L120.25,442.99 L120.18,440.76 L120.18,451.84 L118.89,458.34 L111.61,464.09 L104.25,464.73 L103.18,458.23 L101.46,455.14 L97.17,452.16 L91.67,450.77 L85.67,449.49 L82.17,458.87 L76.60,468.67 L70.03,469.21 L68.31,458.55 L65.35,450.16 L64.88,451.09 L55.09,446.30 L54.88,442.78 Z M276.23,238.18 L278.57,243.53 L288.35,259.51 L276.23,238.18 Z M263.92,281.67 L269.64,281.25 L276.78,279.65 L263.92,281.67 Z M73.53,439.90 L75.24,445.12 L82.17,458.87 L73.53,439.90 Z M221.84,52.69 L225.27,57.16 L219.70,49.49 L221.84,52.69 Z M241.53,60.76 L240.99,59.93 L231.99,56.74 L241.53,60.76 Z M238.03,93.27 L240.06,93.50 L247.35,91.58 L243.63,92.22 L238.03,93.27 Z M228.41,116.51 L228.06,120.78 L229.63,103.94 L228.41,116.51 Z M234.49,163.29 L235.03,163.51 L236.91,161.37 L234.49,163.29 Z M231.70,186.52 L231.34,184.81 L234.27,186.09 L237.06,186.84 L230.84,184.39 L231.70,186.52 Z M230.84,191.21 L237.77,194.19 L234.84,192.17 L230.84,191.21 Z M229.77,189.18 L230.77,191.31 L228.56,192.39 L229.06,192.70 L230.89,191.79 L230.84,191.21 L229.77,189.18 Z M225.84,193.87 L227.48,195.58 L230.17,198.87 L228.70,196.43 L225.84,193.87 Z M227.20,191.53 L227.98,192.02 L227.34,189.50 L225.54,194.23 L225.84,193.87 L227.20,191.53 Z M227.48,199.20 L228.56,203.67 L227.48,195.58 L227.48,199.20 Z M231.41,210.60 L228.41,211.67 L226.63,213.58 L227.91,212.31 L232.19,210.56 L230.77,206.13 L231.41,210.60 Z M228.06,213.80 L228.98,213.56 L227.91,212.31 L228.06,213.80 Z M230.21,215.00 L230.25,215.15 L230.27,215.08 L230.21,215.00 Z M229.41,223.17 L230.41,224.99 L228.98,221.26 L229.41,223.17 Z M233.97,225.86 L232.56,222.00 L232.84,224.35 L232.27,224.50 L233.97,225.86 Z M251.13,222.22 L248.92,222.32 L240.92,223.28 L251.13,222.22 Z M253.92,238.30 L260.35,229.14 L259.06,230.95 L253.92,238.30 Z M272.65,229.97 L271.97,226.67 L271.92,228.29 L272.65,229.97 Z M245.70,203.78 L242.70,205.70 L240.84,202.18 L241.42,203.89 L238.97,204.62 L241.56,204.31 L241.99,206.02 L239.92,207.08 L248.20,203.04 L245.70,203.78 Z M219.91,86.25 L229.56,92.33 L224.77,88.70 L219.91,86.25 Z M147.33,134.84 L138.82,133.14 L143.75,135.16 L147.33,134.84 Z M155.17,123.63 L156.23,122.21 L152.40,124.19 L155.04,123.23 L155.17,123.63 Z M165.19,148.37 L165.69,144.75 L163.97,152.10 L165.19,148.37 Z M195.12,140.60 L190.52,142.09 L191.19,142.09 L195.12,140.60 Z M199.05,168.09 L197.98,167.87 L196.21,167.95 L199.05,168.09 Z M205.05,186.52 L209.97,174.05 L209.97,174.04 L203.91,188.01 L205.05,186.52 Z M201.91,221.36 L201.11,220.25 L201.48,225.09 L201.91,221.36 Z M199.34,226.69 L202.08,226.04 L202.22,225.72 L201.48,225.09 L199.34,226.69 Z M199.19,239.58 L198.34,234.15 L199.34,240.76 L199.19,239.58 Z M195.62,241.08 L196.55,241.61 L199.34,240.76 L195.62,241.08 Z M196.91,287.11 L197.22,286.51 L196.19,286.94 L196.91,287.11 Z M192.83,288.07 L192.83,286.15 L192.62,279.86 L192.83,288.07 Z M209.41,324.40 L210.49,320.15 L207.91,323.33 L209.12,323.01 L209.41,324.40 Z M200.41,335.91 L202.41,331.01 L202.41,327.70 L202.19,330.05 L200.41,335.91 Z M196.91,355.73 L193.62,352.00 L197.12,357.31 L196.91,355.73 Z M198.98,371.07 L198.05,364.19 L198.19,366.60 L198.98,371.07 Z M184.69,381.51 L185.51,380.01 L185.48,380.02 L184.69,381.51 Z M195.55,404.31 L193.69,397.28 L195.12,403.25 L195.55,404.31 Z M193.98,406.02 L198.91,401.54 L204.77,396.54 L195.55,404.31 L193.98,406.02 Z M90.71,211.22 L95.46,216.99 L91.96,211.45 L90.71,211.22 Z M118.62,225.69 L119.89,225.73 L121.18,225.31 L118.62,225.69 Z M125.27,222.95 L124.39,222.85 L121.18,225.31 L125.27,222.95 Z M126.57,223.10 L128.82,227.01 L127.25,223.17 L126.57,223.10 Z M150.04,242.46 L150.53,242.70 L149.35,240.87 L149.61,247.15 L150.04,242.46 Z M150.11,265.58 L148.66,266.12 L153.47,266.54 L150.11,265.58 Z M145.32,272.40 L145.33,272.51 L145.36,272.57 L145.32,272.40 Z M146.02,275.28 L144.20,279.62 L146.33,276.56 L146.02,275.28 Z M156.90,302.77 L157.98,304.88 L157.41,302.16 L156.90,302.77 Z M142.05,329.63 L139.47,333.88 L138.18,337.51 L142.05,329.63 Z M139.18,341.87 L138.84,339.25 L138.18,337.51 L139.18,341.87 Z M148.76,355.73 L148.68,358.18 L150.36,362.07 L148.76,355.73 Z M160.26,411.03 L148.33,392.06 L143.04,385.77 L150.33,395.36 L160.26,411.03 Z M54.38,353.70 L58.45,354.66 L52.74,353.06 L52.18,352.93 L54.38,353.70 Z M63.78,369.62 L66.67,362.23 L64.31,367.02 L63.78,369.62 Z M75.67,356.58 L79.53,357.32 L72.46,354.55 L75.67,356.58 Z M92.25,352.33 L91.96,351.14 L90.24,351.67 L92.25,352.33 Z M95.33,353.34 L95.03,352.53 L94.03,352.91 L95.33,353.34 Z M100.10,366.80 L99.67,370.86 L99.46,388.55 L100.03,368.19 L100.10,366.80 Z M98.25,385.88 L97.25,385.77 L99.46,388.55 L98.25,385.88 Z M96.96,387.59 L97.89,400.27 L99.60,414.12 L97.25,385.77 L96.96,387.59 Z M97.10,420.19 L94.40,427.23 L99.60,414.12 L97.10,420.19 Z M130.23,372.38 L132.90,374.05 L130.29,371.95 L130.23,372.38 Z M127.39,346.67 L124.46,347.20 L126.25,346.99 L127.39,346.67 Z M68.45,398.03 L65.31,405.27 L67.45,401.33 L68.45,398.03 Z M65.24,392.27 L68.88,390.36 L70.24,389.09 L59.02,394.73 L49.02,400.05 L65.24,392.27 Z M85.60,392.59 L86.16,393.55 L86.56,393.55 L85.60,392.59 Z M126.89,384.82 L123.22,390.02 L123.96,389.29 L125.18,387.48 L126.39,385.67 L127.00,386.63 L126.89,384.82 Z M124.75,401.86 L125.75,391.85 L123.90,407.84 L124.75,401.86 Z M126.18,417.74 L133.95,416.85 L133.82,416.57 L122.54,417.42 L126.18,417.74 Z M126.18,418.81 L127.61,418.81 L126.18,417.74 L126.18,418.81 Z M80.10,426.69 L78.67,428.61 L76.81,431.38 L76.82,431.39 L80.10,426.69 Z M105.60,419.55 L111.96,419.98 L109.89,419.77 L105.60,419.55 Z M113.61,430.95 L112.61,425.84 L112.82,423.81 L112.39,427.65 L113.61,430.95 Z M125.18,419.99 L123.35,422.18 L125.04,421.26 L125.18,419.99 Z M71.74,446.83 L72.87,446.28 L66.95,445.02 L71.74,446.83 Z M107.46,455.46 L107.82,455.49 L107.62,454.64 L107.46,455.46 Z M81.51,406.53 L81.89,406.66 L81.56,406.40 L81.51,406.53 Z M47.02,375.55 L40.81,377.68 L38.92,376.47 L40.66,378.64 L47.02,375.55 Z M51.38,378.10 L53.81,390.14 L51.84,377.33 L51.38,378.10 Z M72.80,386.69 L73.88,385.67 L74.26,384.41 L72.80,386.69 Z M78.31,375.12 L86.34,369.09 L84.67,369.58 L78.31,375.12 Z M61.17,376.29 L61.87,374.50 L60.14,375.89 L61.17,376.29 Z M126.32,402.93 L127.47,394.62 L127.23,390.58 L126.32,402.93 Z M89.17,326.21 L88.74,334.42 L89.39,322.48 L89.03,313.85 L89.17,326.21 Z M98.82,323.55 L91.17,324.19 L92.17,324.61 L98.82,323.55 Z M99.93,345.12 L102.39,333.35 L104.39,323.44 L99.75,343.90 L99.93,345.12 Z M121.81,332.08 L122.89,331.43 L127.68,327.60 L121.81,332.08 Z M104.89,267.18 L106.18,265.90 L102.60,267.50 L104.89,267.18 Z M115.75,257.27 L119.75,273.57 L120.94,275.29 L115.75,257.27 Z M106.60,294.46 L96.25,291.90 L104.39,294.78 L116.32,294.35 L106.60,294.46 Z M105.29,291.93 L107.75,288.17 L104.89,291.16 L105.29,291.93 Z M128.54,251.41 L129.89,252.90 L127.47,246.83 L128.54,251.41 Z M129.75,235.85 L131.00,234.73 L125.61,237.35 L129.75,235.85 Z M164.20,335.64 L162.76,333.35 L153.47,324.19 L164.20,335.64 Z M138.43,144.15 L138.51,144.53 L138.47,144.22 L138.43,144.15 Z M139.47,148.80 L140.47,148.59 L139.25,147.81 L139.47,148.80 Z M142.40,157.75 L143.26,159.24 L140.47,148.59 L142.40,157.75 Z M146.33,177.68 L143.83,188.22 L149.54,182.58 L144.61,186.52 L146.33,177.68 Z M136.32,203.25 L147.54,200.62 L146.47,200.16 L143.04,201.33 L136.32,203.25 Z M149.14,204.27 L149.40,201.44 L148.72,201.14 L149.14,204.27 Z M150.85,216.82 L150.83,213.80 L149.96,210.28 L150.85,216.82 Z M152.04,225.52 L152.76,226.26 L151.82,223.89 L152.04,225.52 Z M132.04,193.45 L129.39,193.98 L127.19,196.28 L132.04,193.45 Z M123.66,213.74 L123.29,215.46 L123.75,214.86 L123.66,213.74 Z M153.11,274.85 L154.18,270.59 L153.95,269.25 L153.11,274.85 Z M150.47,281.46 L151.40,280.96 L150.25,280.48 L150.47,281.46 Z M153.26,279.97 L153.61,275.60 L152.55,280.34 L153.26,279.97 Z M168.62,283.16 L168.91,282.53 L162.47,282.63 L168.62,283.16 Z M169.40,281.46 L167.69,276.45 L169.18,281.95 L169.40,281.46 Z M171.69,280.39 L174.12,269.21 L172.19,274.96 L171.69,280.39 Z M171.05,394.73 L169.12,407.62 L170.62,398.13 L171.05,394.73 Z M166.26,338.93 L173.55,357.64 L168.12,341.87 L166.26,338.93 Z M185.69,322.16 L185.83,322.15 L180.19,313.74 L185.69,322.16 Z M187.51,322.03 L188.14,321.98 L187.98,321.84 L187.51,322.03 Z M195.17,319.75 L201.62,325.25 L195.33,319.35 L195.17,319.75 Z M165.34,337.46 L165.30,337.40 L162.69,340.92 L160.97,345.50 L165.34,337.46 Z M155.97,362.44 L159.11,355.19 L155.04,364.57 L155.97,362.44 Z M165.90,372.35 L166.97,367.66 L164.62,375.65 L165.90,372.35 Z M180.05,309.38 L185.91,306.82 L176.69,310.33 L180.05,309.38 Z M196.26,316.09 L194.62,317.90 L194.91,318.38 L196.26,316.09 Z M153.90,196.54 L154.33,199.09 L155.11,199.91 L153.90,196.54 Z M161.90,202.82 L156.51,201.38 L156.97,201.86 L161.90,202.82 Z M163.90,216.78 L159.61,213.48 L161.40,215.40 L163.90,216.78 Z M173.39,197.92 L174.40,200.27 L173.76,197.60 L173.39,197.92 Z M175.76,182.68 L176.25,189.32 L176.33,189.29 L175.76,182.68 Z M184.09,248.53 L184.76,248.53 L183.98,245.98 L184.09,248.53 Z M185.72,240.74 L187.26,237.88 L185.69,240.01 L185.72,240.74 Z M195.26,233.83 L194.76,235.96 L191.83,236.39 L195.20,236.47 L195.26,233.83 Z M193.26,230.63 L191.98,230.53 L195.26,233.83 L193.26,230.63 Z M165.33,248.85 L157.90,258.76 L173.33,239.16 L165.33,248.85 Z M178.77,239.36 L181.90,236.71 L177.69,239.58 L178.76,238.94 L178.77,239.36 Z M191.91,258.87 L189.55,249.17 L189.28,249.14 L191.91,258.87 Z M167.26,262.07 L167.62,263.66 L170.12,265.05 L167.26,262.07 Z M168.62,259.94 L168.27,259.54 L168.83,261.32 L168.62,259.94 Z M176.33,255.03 L177.62,253.86 L173.26,256.21 L176.33,255.03 Z M195.12,271.87 L184.33,261.75 L196.57,274.60 L195.12,271.87 Z M155.97,229.57 L166.40,231.91 L154.71,228.27 L155.97,229.57 Z M178.48,177.25 L178.55,167.13 L177.90,169.04 L178.48,177.25 Z M196.76,190.68 L194.91,187.59 L192.26,185.24 L196.76,190.68 Z M160.15,160.97 L159.61,161.91 L163.26,181.51 L160.15,160.97 Z M161.33,158.28 L161.35,157.67 L159.90,159.35 L161.33,158.28 Z M151.11,49.17 L147.46,51.15 L147.68,51.30 L151.11,49.17 Z M207.69,213.69 L203.98,208.68 L202.91,207.83 L209.65,217.18 L209.27,216.04 L207.69,213.69 Z M207.48,197.81 L208.98,197.28 L209.17,197.11 L207.48,197.81 Z M206.62,54.82 L205.91,60.04 L208.41,49.60 L206.62,54.82 Z M213.94,100.34 L211.34,102.98 L213.70,101.06 L213.94,100.34 Z M204.84,132.50 L207.19,134.84 L210.91,138.14 L204.84,132.50 Z M156.47,53.97 L154.83,54.39 L159.69,54.29 L156.47,53.97 Z M187.86,70.23 L192.98,61.64 L187.67,70.16 L187.86,70.23 Z M160.47,103.22 L163.26,108.84 L162.19,105.22 L160.47,103.22 Z M162.97,118.75 L163.76,123.33 L163.12,116.41 L163.26,108.84 L162.97,118.75 Z M166.78,112.18 L168.76,109.91 L172.19,102.98 L166.78,112.18 Z M172.87,98.84 L172.87,98.84 L172.19,102.98 L172.87,98.84 Z M178.62,94.14 L179.20,94.09 L177.26,88.81 L178.62,94.14 Z M190.91,91.58 L198.05,93.07 L188.98,89.88 L190.64,92.84 L190.91,91.58 Z M189.89,97.49 L189.69,98.08 L190.19,102.88 L189.89,97.49 Z M191.83,104.47 L196.91,105.65 L190.19,102.88 L191.83,104.47 Z M176.47,128.07 L176.12,126.96 L172.40,124.19 L176.47,128.07 Z M179.62,122.59 L180.11,121.62 L178.69,121.52 L179.62,122.59 Z M177.05,119.07 L180.13,121.58 L181.48,118.96 L179.69,121.20 L177.05,119.07 Z M187.25,70.83 L186.33,72.29 L185.76,78.15 L187.25,70.83 Z M158.04,77.52 L161.33,72.19 L156.11,79.22 L158.04,77.52 Z M161.26,84.23 L162.63,83.24 L160.76,83.19 L161.26,84.23 Z M170.08,83.39 L169.26,81.14 L167.33,79.86 L170.08,83.39 Z M170.38,87.02 L170.97,85.83 L170.75,85.21 L170.38,87.02 Z M154.94,41.27 L154.47,44.16 L155.54,41.71 L154.94,41.27 Z M209.50,196.81 L211.05,195.36 L211.77,194.19 L209.50,196.81 Z M214.41,192.70 L217.41,191.95 L217.63,190.73 L211.77,194.19 L214.41,192.70 Z M211.98,196.75 L215.10,196.22 L215.05,196.00 L211.98,196.75 Z M223.41,198.67 L219.63,195.68 L221.77,198.03 L222.91,200.69 L223.41,198.67 Z M223.13,197.07 L221.84,193.55 L223.41,198.67 L223.13,197.07 Z M225.27,188.97 L220.05,194.40 L221.84,193.55 L225.27,188.97 Z M218.05,188.44 L219.91,189.08 L221.05,189.50 L225.27,188.97 L218.05,188.44 Z M215.84,181.19 L217.93,189.09 L218.05,188.44 L215.84,181.19 Z M218.70,182.58 L220.61,181.85 L215.84,181.19 L218.70,182.58 Z M211.27,175.12 L210.66,174.61 L214.55,179.59 L215.84,181.19 L211.27,175.12 Z M215.77,199.20 L217.27,198.99 L221.77,198.03 L215.77,199.20 Z M209.98,199.31 L213.55,199.52 L215.77,199.20 L209.98,199.31 Z M215.74,207.48 L216.20,206.55 L217.05,201.01 L217.27,198.99 L215.74,207.48 Z M222.80,200.94 L225.41,201.65 L222.91,200.69 L222.80,200.94 Z M238.88,267.45 L238.83,267.95 L238.91,267.52 L238.88,267.45 Z M234.55,307.77 L234.27,308.31 L235.06,316.83 L234.55,307.77 Z M233.06,316.83 L232.68,317.94 L235.06,316.83 L233.06,316.83 Z M231.41,318.54 L231.73,318.39 L230.57,317.29 L231.91,322.87 L231.41,318.54 Z M232.52,328.23 L232.13,336.44 L232.70,329.83 L232.52,328.23 Z M234.34,344.01 L232.34,343.15 L235.26,345.26 L234.34,343.94 L234.34,344.01 Z M243.06,360.41 L241.99,365.58 L242.56,364.14 L243.06,360.41 Z M214.48,301.28 L216.05,296.48 L216.77,293.61 L214.48,301.28 Z M206.12,401.86 L218.20,416.46 L211.64,407.17 L211.41,407.83 L206.12,401.86 Z M215.41,321.95 L211.62,318.75 L211.17,319.32 L215.41,321.95 Z M220.77,351.14 L223.91,341.98 L221.20,349.55 L220.77,351.14 Z M209.48,306.29 L207.89,302.08 L207.27,302.45 L209.48,306.29 Z M221.48,310.65 L216.34,311.61 L221.78,311.52 L221.48,310.65 Z M229.20,315.98 L222.91,317.15 L229.91,316.66 L229.20,315.98 Z M221.63,309.16 L223.37,312.60 L223.56,312.47 L221.63,309.16 Z M211.48,205.81 L212.12,204.74 L209.48,205.88 L211.98,206.45 L215.63,207.70 L215.65,207.67 L214.13,206.11 L214.20,206.87 L211.48,205.81 Z M219.98,207.36 L219.91,203.46 L219.76,203.33 L219.97,207.35 L219.98,207.36 Z M220.91,208.15 L222.63,209.64 L221.44,207.70 L220.30,207.64 L220.91,208.15 Z M205.91,222.53 L209.90,217.92 L209.90,217.92 L205.91,222.53 Z M211.48,282.88 L209.48,272.93 L211.12,282.31 L211.48,282.88 Z M217.05,239.48 L214.67,240.01 L214.98,240.12 L217.05,239.48 Z M217.84,218.81 L214.91,214.33 L217.75,219.27 L218.10,218.78 L217.84,218.81 Z M224.27,224.67 L218.19,220.04 L218.34,220.30 L224.27,224.67 Z M227.68,223.68 L227.48,223.39 L224.27,224.67 L227.68,223.68 Z M226.34,203.89 L225.41,204.10 L224.27,205.26 L226.34,203.89 Z M210.91,120.99 L213.05,123.12 L216.70,124.08 L210.91,120.99 Z M219.20,131.96 L213.70,132.92 L217.41,133.24 L219.20,131.96 Z M219.77,141.77 L220.84,174.37 L220.27,142.62 L217.41,133.24 L219.77,141.77 Z M237.63,249.07 L250.89,274.74 L251.63,275.07 L237.63,249.07 Z M265.71,299.47 L271.35,309.27 L261.42,292.01 L251.63,275.07 L265.71,299.47 Z M234.21,341.74 L234.39,341.44 L234.20,341.55 L234.21,341.74 Z M244.81,325.98 L245.80,327.98 L245.34,325.79 L244.81,325.98 Z M247.14,330.69 L247.56,331.54 L248.85,331.54 L247.14,330.69 Z M249.67,331.54 L250.56,331.54 L252.77,326.21 L249.67,331.54 Z M261.99,338.57 L261.59,339.21 L265.99,337.93 L261.99,338.57 Z M276.57,327.60 L274.56,317.05 L274.56,317.03 L276.57,327.60 Z M294.00,357.86 L291.25,355.20 L291.78,355.94 L294.00,357.86 Z M292.35,348.80 L288.85,351.89 L289.30,352.50 L292.35,348.80 Z M292.71,342.94 L292.70,342.87 L291.71,347.31 L292.71,342.94 Z M259.56,343.69 L260.29,341.28 L257.63,345.50 L259.56,343.69 Z M238.84,306.71 L250.70,305.43 L238.78,306.66 L238.84,306.71 Z M257.42,323.23 L254.70,320.78 L257.32,324.49 L257.42,323.23 Z M341.36,252.58 L355.29,253.75 L358.29,253.01 L341.36,252.58 Z M358.22,250.13 L358.37,246.08 L357.58,248.32 L358.29,253.01 L358.22,250.13 Z M361.44,251.94 L363.65,251.62 L358.22,250.13 L361.44,251.94 Z M238.62,233.79 L238.70,234.26 L240.49,232.87 L238.62,233.79 Z M237.20,98.72 L242.20,100.42 L239.49,99.04 L237.20,98.72 Z M246.06,118.22 L243.34,103.62 L242.89,103.62 L246.06,118.22 Z M249.99,125.04 L248.99,123.01 L246.06,118.22 L249.99,125.04 Z M251.35,121.84 L253.49,112.89 L250.79,122.12 L251.35,121.84 Z M251.63,122.49 L252.06,119.92 L251.35,121.84 L251.63,122.49 Z M266.23,102.43 L266.13,100.74 L265.73,100.43 L266.23,102.43 Z M240.81,195.35 L240.77,195.36 L239.49,196.54 L240.81,195.35 Z M234.44,204.13 L235.20,205.06 L236.47,204.91 L234.44,204.13 Z M257.85,221.04 L257.99,212.73 L256.92,223.28 L257.85,221.04 Z M259.70,177.04 L267.13,170.11 L262.35,174.48 L259.70,177.04 Z M244.63,148.27 L246.13,151.04 L250.06,155.83 L244.63,148.27 Z M249.72,152.91 L248.58,151.26 L248.35,151.89 L249.72,152.91 Z M254.78,95.31 L264.85,96.16 L269.42,96.27 L254.78,95.31 Z M314.86,396.64 L314.00,394.73 L317.07,394.51 L317.43,396.11 L314.86,396.64 Z M333.65,282.63 L333.50,288.38 L330.22,286.68 L332.08,283.06 L331.79,279.97 L333.65,282.63 Z M391.80,253.12 L385.66,234.68 L387.80,234.89 L386.80,233.94 L391.87,226.90 L398.30,224.88 L398.73,229.03 L399.59,229.78 L401.02,230.21 L400.95,232.02 L402.73,235.11 L400.02,237.45 L400.73,242.46 L397.66,246.62 L397.37,253.33 L393.16,254.07 L391.80,253.12 Z M401.59,229.78 L403.30,230.21 L405.30,228.08 L406.23,228.71 L406.59,233.30 L405.45,234.58 L403.02,235.00 L401.16,232.02 L401.59,229.78 Z M402.45,223.60 L402.73,226.48 L404.30,228.61 L403.23,229.89 L399.73,229.57 L398.87,223.71 L401.02,221.79 L405.02,221.79 L405.95,223.39 L403.02,225.41 L402.45,223.60 Z M388.44,252.05 L389.16,250.35 L392.94,254.71 L400.59,256.84 L404.16,255.67 L401.02,256.42 L396.52,254.71 L398.23,252.05 L398.09,246.72 L401.16,242.14 L400.66,236.92 L402.95,235.53 L407.30,235.21 L408.45,238.52 L407.52,239.69 L408.09,243.74 L410.80,246.83 L409.23,239.37 L410.16,240.54 L410.95,239.37 L408.80,236.60 L410.23,237.13 L410.80,235.53 L409.30,235.53 L408.73,233.72 L410.80,232.66 L408.73,225.31 L410.88,222.32 L409.52,220.83 L408.59,221.68 L408.52,225.41 L406.73,228.71 L403.16,226.69 L406.88,224.24 L406.30,220.83 L410.66,219.02 L410.02,216.46 L412.95,207.40 L412.23,202.40 L411.02,207.08 L409.52,205.81 L410.59,204.95 L410.23,201.86 L411.95,201.54 L413.38,194.72 L412.30,193.87 L412.73,189.72 L411.16,189.82 L411.30,187.90 L407.73,188.97 L406.80,186.73 L407.45,183.64 L409.16,184.71 L410.02,181.72 L413.23,183.11 L413.23,181.19 L412.02,181.09 L412.88,178.32 L411.80,174.69 L412.80,174.27 L411.95,172.03 L413.09,170.64 L415.09,172.03 L414.66,175.54 L416.38,176.93 L415.31,178.74 L415.16,185.35 L412.73,188.33 L413.81,189.82 L415.52,189.29 L415.31,195.90 L417.31,194.83 L418.95,195.90 L418.52,204.31 L419.52,201.12 L420.74,200.58 L419.31,195.58 L421.81,197.07 L422.31,194.72 L425.31,195.47 L427.31,194.19 L430.38,201.01 L430.88,195.79 L432.38,196.22 L433.09,192.59 L433.95,195.58 L434.95,193.02 L435.24,195.58 L432.81,205.17 L436.10,204.31 L437.38,202.18 L436.88,200.05 L438.88,198.99 L436.95,196.96 L437.17,192.49 L438.60,193.34 L439.17,191.31 L445.53,194.94 L440.81,190.36 L440.95,188.86 L442.60,189.72 L443.74,188.44 L446.81,190.36 L448.31,193.45 L449.53,192.38 L450.96,195.68 L448.17,201.65 L447.88,207.08 L450.53,203.99 L450.17,201.54 L451.60,198.35 L455.10,211.35 L459.03,212.41 L458.60,210.71 L456.67,210.17 L455.24,206.23 L457.03,204.10 L453.31,199.41 L453.03,196.00 L455.67,194.72 L457.31,196.00 L453.96,193.34 L453.53,189.50 L455.67,188.76 L455.60,190.78 L457.96,190.04 L458.60,188.22 L459.31,191.21 L462.03,192.70 L462.60,191.95 L460.39,189.08 L461.10,188.22 L462.67,190.04 L463.74,188.01 L463.39,192.17 L466.10,194.19 L464.67,189.29 L465.39,187.27 L467.32,190.68 L467.46,187.90 L469.96,190.57 L472.46,188.01 L472.32,190.14 L473.67,191.53 L473.75,189.18 L474.39,190.78 L473.75,197.92 L475.53,195.58 L476.53,201.33 L478.53,200.27 L478.89,203.99 L480.89,202.93 L480.03,206.02 L480.67,211.13 L478.89,216.25 L478.60,225.09 L476.96,224.88 L477.39,226.58 L476.43,227.30 L478.60,226.90 L480.39,231.70 L479.89,236.92 L481.18,238.20 L484.89,240.54 L481.18,234.47 L487.03,229.67 L486.75,227.12 L485.32,228.08 L484.75,230.95 L482.96,228.08 L481.39,228.29 L480.53,221.58 L482.03,217.31 L483.60,216.99 L483.60,219.55 L482.32,219.87 L482.10,225.94 L483.10,227.12 L486.46,223.92 L486.39,220.62 L487.60,221.68 L488.39,218.59 L490.75,218.91 L491.03,222.11 L489.18,221.04 L487.89,223.28 L490.11,223.81 L491.25,226.37 L489.18,226.90 L488.39,231.17 L492.32,229.99 L489.39,232.44 L490.75,233.94 L490.53,236.28 L491.89,234.79 L494.46,235.75 L492.61,234.26 L492.61,232.87 L493.82,233.19 L492.82,230.95 L495.32,232.12 L497.25,236.28 L494.03,240.97 L496.75,240.97 L498.18,243.21 L498.89,241.61 L497.25,239.26 L500.04,233.51 L499.04,231.80 L502.18,230.74 L501.61,228.40 L502.89,229.03 L502.75,231.80 L503.82,230.21 L506.25,231.59 L504.39,232.55 L504.25,234.68 L505.47,232.98 L506.18,234.68 L507.97,233.62 L509.11,236.07 L512.25,236.49 L512.68,237.56 L511.40,237.77 L513.04,241.08 L513.32,246.72 L515.54,245.02 L514.18,243.63 L516.04,243.42 L520.04,247.15 L518.54,246.51 L517.90,247.47 L518.54,247.04 L518.75,250.13 L517.47,253.86 L519.90,250.66 L520.97,251.73 L519.83,253.44 L521.40,253.44 L521.83,248.21 L523.11,249.81 L523.40,253.75 L525.47,256.31 L525.61,260.89 L524.25,262.28 L525.90,263.03 L525.47,267.61 L524.25,267.93 L524.97,265.05 L523.97,263.56 L523.04,264.52 L523.11,261.53 L524.25,260.36 L523.33,259.19 L522.68,261.11 L520.18,261.64 L519.04,257.91 L517.75,259.30 L518.54,261.96 L517.04,262.39 L516.68,258.66 L512.54,256.21 L512.68,254.07 L510.61,254.50 L512.47,253.86 L510.54,252.16 L512.90,251.30 L512.18,248.53 L509.39,251.20 L507.47,250.45 L507.25,252.80 L505.11,250.45 L504.39,246.72 L503.18,248.43 L503.97,250.77 L505.61,251.09 L505.04,253.33 L507.89,254.50 L506.68,256.63 L508.89,255.99 L509.32,258.12 L513.40,260.79 L514.97,258.87 L514.40,261.53 L515.90,263.03 L515.61,264.94 L514.68,264.62 L514.97,266.43 L517.11,266.86 L515.32,269.74 L516.61,270.16 L518.54,275.49 L520.18,275.70 L520.25,278.16 L516.75,274.21 L515.61,275.07 L517.18,277.41 L516.04,278.37 L514.82,274.85 L513.47,275.70 L514.32,279.86 L511.82,275.92 L511.18,278.16 L510.68,276.98 L510.04,278.58 L508.18,278.26 L506.82,274.32 L508.82,273.15 L506.47,271.12 L508.47,270.38 L508.32,265.05 L507.25,268.89 L502.25,265.58 L503.61,268.46 L505.54,268.78 L505.32,270.59 L504.39,270.06 L506.04,271.55 L505.89,273.47 L504.18,271.23 L503.61,272.83 L505.75,275.60 L504.89,276.13 L502.82,272.72 L502.96,269.74 L500.75,267.39 L501.68,266.22 L501.04,262.71 L500.54,266.33 L499.46,265.80 L497.96,258.87 L496.61,258.23 L493.61,251.09 L495.18,250.13 L492.68,246.72 L492.68,238.20 L490.96,238.62 L489.75,236.28 L488.89,238.09 L489.75,239.80 L488.03,239.48 L488.60,238.09 L487.03,234.68 L488.25,233.30 L486.10,232.34 L485.39,235.21 L484.25,235.32 L487.60,239.58 L486.18,241.50 L488.60,244.59 L488.53,246.51 L490.18,246.40 L490.32,248.11 L491.89,248.64 L490.82,249.28 L492.68,251.94 L492.03,253.86 L494.39,255.46 L492.61,257.38 L494.68,260.79 L491.61,261.85 L496.39,261.11 L498.89,268.89 L500.89,269.74 L499.61,269.52 L500.39,271.55 L499.68,272.40 L498.39,270.70 L497.39,272.40 L494.96,270.80 L489.03,272.30 L488.03,269.95 L489.18,275.92 L487.75,276.98 L489.39,276.45 L490.53,272.72 L493.89,272.08 L493.82,275.28 L496.75,273.47 L497.46,275.07 L499.61,273.04 L501.18,276.13 L499.61,274.64 L497.61,275.39 L497.32,276.88 L499.39,276.02 L500.32,277.52 L497.04,280.18 L495.32,279.22 L495.75,280.93 L494.61,280.29 L494.18,282.10 L492.96,280.29 L496.18,277.73 L496.11,275.92 L492.39,277.52 L492.11,273.68 L491.03,274.64 L490.89,278.37 L489.25,278.37 L488.96,280.50 L485.25,281.35 L483.10,279.11 L483.82,278.26 L482.89,276.98 L482.96,280.82 L484.75,281.99 L482.82,281.46 L482.03,282.84 L480.75,281.57 L479.67,284.44 L478.03,282.95 L479.67,285.83 L479.17,287.21 L481.75,283.70 L484.46,285.19 L486.53,288.81 L487.53,287.64 L486.03,284.44 L487.89,286.04 L487.82,289.34 L488.75,289.77 L486.82,291.16 L484.68,290.09 L483.10,291.47 L482.75,294.46 L481.03,290.41 L480.32,294.46 L478.60,291.47 L480.10,288.70 L477.53,290.41 L477.53,284.55 L475.39,284.55 L473.39,278.58 L474.67,278.48 L476.67,281.67 L478.32,280.50 L472.82,276.02 L473.82,271.12 L472.67,271.12 L471.46,267.71 L465.10,262.39 L470.74,268.03 L471.96,280.07 L471.32,283.16 L472.89,283.80 L475.03,289.24 L474.75,291.37 L475.53,290.20 L477.10,291.26 L479.03,295.74 L478.67,297.87 L480.67,299.89 L482.39,301.17 L482.89,303.84 L484.10,302.66 L489.68,306.29 L491.11,304.79 L494.68,308.31 L494.68,310.33 L495.61,308.95 L498.18,310.76 L498.89,311.83 L497.61,314.81 L499.46,316.41 L499.04,319.82 L498.18,321.52 L494.39,322.38 L494.75,320.03 L492.82,319.82 L496.46,318.75 L493.53,315.13 L494.82,314.81 L493.96,312.36 L492.89,313.21 L490.68,310.23 L486.89,309.38 L487.18,314.49 L490.89,320.99 L489.89,325.25 L490.53,326.21 L489.25,326.74 L487.89,330.79 L490.32,332.82 L489.25,338.15 L490.03,340.28 L487.03,339.10 L487.32,343.26 L485.46,341.34 L485.53,345.60 L483.18,343.79 L481.96,345.82 L482.39,348.05 L480.60,347.84 L479.10,344.75 L482.10,343.79 L480.96,341.77 L483.89,340.28 L484.18,337.93 L480.96,332.92 L481.46,331.22 L477.75,330.47 L478.03,332.18 L479.96,333.03 L478.10,333.99 L479.03,336.76 L477.10,336.97 L476.03,333.99 L476.17,327.28 L474.67,330.37 L474.17,327.70 L469.67,326.96 L470.39,330.90 L471.74,328.02 L472.60,339.21 L470.39,337.93 L466.24,330.15 L464.96,336.76 L460.10,332.39 L457.74,326.74 L459.24,324.08 L461.74,324.83 L462.39,323.55 L462.31,326.64 L464.89,331.33 L463.89,325.25 L465.10,323.01 L470.46,324.08 L471.53,326.21 L472.67,322.91 L475.39,325.36 L477.67,321.95 L476.39,319.07 L472.32,321.42 L469.74,318.86 L468.53,319.50 L467.39,315.58 L467.82,318.01 L464.67,317.37 L464.10,318.97 L463.24,317.58 L462.89,319.60 L461.03,320.46 L458.89,319.39 L459.67,316.20 L461.96,316.09 L459.67,310.76 L460.10,308.63 L461.46,309.06 L460.96,307.67 L455.81,307.67 L456.96,309.48 L455.88,313.64 L455.10,312.15 L453.96,313.42 L452.53,312.47 L452.24,307.67 L450.60,308.42 L446.81,307.14 L444.67,311.19 L447.60,316.83 L445.10,318.97 L448.31,325.79 L447.88,330.37 L447.67,329.30 L446.81,330.37 L446.38,325.68 L445.24,325.15 L445.88,323.12 L444.81,322.91 L445.45,321.95 L443.10,317.47 L444.60,315.13 L443.17,312.47 L440.74,313.96 L442.45,316.20 L442.38,320.24 L440.02,317.26 L440.02,320.78 L438.95,320.88 L438.02,311.83 L436.02,314.38 L435.88,312.15 L433.67,310.12 L436.24,309.27 L435.09,307.14 L432.24,306.71 L431.59,308.31 L429.95,305.65 L428.45,305.65 L428.59,302.13 L426.95,302.88 L423.16,297.87 L425.52,296.27 L427.09,299.57 L428.38,299.89 L429.17,297.44 L430.59,299.04 L429.45,296.80 L429.74,290.20 L425.66,285.93 L429.02,287.21 L425.88,285.08 L427.31,283.06 L424.88,282.42 L424.66,277.62 L422.74,276.24 L421.16,279.01 L419.88,271.87 L414.38,264.62 L413.95,261.43 L389.23,256.63 L388.44,252.05 Z M424.05,232.41 L424.81,237.67 L424.88,233.62 L424.05,232.41 Z M465.89,306.93 L466.66,311.35 L466.96,309.80 L465.89,306.93 Z M466.67,306.18 L469.24,302.13 L465.89,306.93 L466.67,306.18 Z M405.38,221.04 L401.87,220.72 L401.52,219.23 L398.52,222.75 L395.66,211.77 L398.23,223.07 L397.02,224.56 L390.80,226.05 L387.09,231.70 L384.73,232.98 L380.44,225.84 L384.01,222.00 L390.30,205.17 L393.94,201.65 L397.59,201.44 L399.66,206.87 L400.80,207.30 L400.23,205.38 L401.87,205.70 L402.80,204.74 L403.16,207.62 L404.45,208.15 L403.73,204.63 L408.59,206.23 L408.02,209.54 L410.02,214.22 L409.16,217.31 L405.38,221.04 Z M401.95,203.99 L401.45,203.67 L401.95,203.57 L401.95,203.99 Z M407.52,199.95 L406.66,198.35 L407.73,198.77 L409.16,203.36 L409.30,205.27 L407.66,204.95 L406.45,200.90 L407.52,199.95 Z M406.02,198.24 L406.45,198.67 L406.45,199.20 L406.02,198.24 Z M408.45,190.68 L409.38,190.14 L409.16,191.21 L408.45,190.68 Z M404.73,179.49 L406.09,178.74 L406.52,176.93 L407.52,181.30 L407.95,182.79 L406.38,179.59 L404.73,179.49 Z M404.02,178.85 L404.02,178.21 L404.37,178.85 L404.02,178.85 Z M405.59,177.89 L405.59,178.74 L405.23,178.53 L405.59,177.89 Z M408.16,172.35 L407.88,172.13 L408.16,172.03 L408.16,172.35 Z M480.67,360.10 L480.82,361.91 L480.17,360.73 L480.67,360.10 Z M480.32,357.43 L479.03,356.69 L479.25,355.73 L480.32,357.43 Z M473.82,353.28 L473.24,350.51 L475.46,351.36 L475.96,352.74 L478.25,357.64 L473.82,353.28 Z M479.75,353.81 L480.82,353.06 L481.39,354.66 L479.75,353.81 Z M464.10,353.49 L464.03,354.55 L462.67,353.60 L464.03,352.10 L464.10,353.49 Z M467.53,352.42 L467.67,353.60 L467.03,352.64 L467.53,352.42 Z M477.17,352.32 L477.46,353.38 L476.53,353.06 L477.17,352.32 Z M476.10,351.78 L475.82,352.21 L475.82,351.89 L476.10,351.78 Z M466.96,350.08 L468.39,350.61 L467.67,352.32 L466.96,350.08 Z M460.60,350.19 L460.03,349.55 L460.81,349.55 L460.60,350.19 Z M480.46,349.12 L481.03,348.27 L481.39,350.72 L480.46,349.12 Z M478.96,347.95 L479.03,348.37 L478.67,348.16 L478.96,347.95 Z M483.96,347.74 L484.39,346.24 L485.96,349.76 L484.75,349.23 L483.96,347.74 Z M462.60,348.91 L461.67,350.83 L459.74,344.96 L463.17,344.01 L464.39,348.27 L465.96,349.44 L463.96,351.46 L462.60,348.91 Z M460.74,343.58 L459.10,343.15 L459.89,341.87 L460.81,343.05 L460.74,343.58 Z M488.96,341.98 L489.18,342.83 L488.75,342.41 L488.96,341.98 Z M468.89,338.46 L470.24,340.70 L468.89,341.55 L466.89,339.85 L468.89,338.46 Z M457.31,337.61 L458.67,341.34 L455.74,340.81 L455.03,336.87 L457.31,337.61 Z M468.17,335.37 L467.17,336.87 L467.17,335.69 L468.17,335.37 Z M455.38,335.80 L452.96,334.42 L453.81,333.67 L454.81,333.99 L455.38,335.80 Z M473.96,331.22 L474.39,330.90 L474.67,332.50 L473.96,331.22 Z M450.53,326.10 L450.24,325.68 L450.67,324.93 L450.53,326.10 Z M462.96,324.72 L463.53,324.61 L463.60,325.36 L462.96,324.72 Z M456.53,320.03 L457.24,317.58 L458.31,314.70 L460.03,315.34 L457.46,320.56 L456.53,320.03 Z M456.24,316.30 L455.46,315.24 L455.88,313.74 L456.31,314.81 L456.24,316.30 Z M489.53,302.56 L490.03,302.13 L490.03,302.66 L489.53,302.56 Z M487.03,296.06 L488.82,296.80 L487.53,298.08 L488.10,298.83 L491.32,299.25 L490.32,299.57 L490.39,300.32 L491.96,298.93 L492.32,300.64 L491.25,301.70 L489.03,300.53 L487.68,302.45 L486.39,297.76 L487.03,296.06 Z M484.32,296.38 L484.96,297.55 L483.25,297.97 L484.32,296.38 Z M484.39,295.95 L485.03,294.56 L486.32,296.06 L484.39,295.95 Z M488.96,296.16 L487.60,293.82 L487.89,292.75 L490.75,292.75 L488.96,296.16 Z M484.32,291.69 L486.32,292.75 L485.32,293.07 L484.96,293.93 L483.82,293.29 L484.32,291.69 Z M488.75,285.19 L488.18,285.51 L488.68,284.55 L488.75,285.19 Z M489.11,240.01 L488.68,241.39 L488.53,240.44 L489.11,240.01 Z M485.32,223.60 L483.82,223.07 L483.39,221.36 L485.75,221.90 L485.32,223.60 Z M484.96,211.77 L482.89,212.52 L482.96,207.40 L484.96,211.77 Z M435.81,203.36 L435.24,203.04 L435.74,202.18 L436.31,203.04 L435.81,203.36 Z M410.30,200.69 L409.95,199.31 L411.59,200.27 L410.30,200.69 Z M410.73,197.28 L411.09,197.60 L410.88,197.60 L410.73,197.28 Z M409.38,197.49 L410.02,195.90 L410.23,197.39 L409.38,197.49 Z M475.60,195.36 L474.89,194.51 L475.60,194.83 L475.60,195.36 Z M411.95,194.19 L411.38,193.87 L411.88,193.87 L411.95,194.19 Z M410.30,195.04 L409.23,194.40 L409.52,192.49 L410.30,195.04 Z M410.95,191.74 L412.23,190.78 L411.45,192.06 L410.95,191.74 Z M450.96,191.85 L449.60,191.95 L447.88,189.29 L447.67,187.80 L448.67,188.12 L450.60,190.36 L450.96,191.85 Z M420.09,189.72 L418.45,190.46 L418.95,191.85 L417.59,193.02 L415.95,191.63 L416.59,189.72 L415.66,185.99 L416.73,185.03 L418.23,187.48 L419.52,186.95 L420.09,189.72 Z M453.46,189.08 L453.24,188.86 L453.31,188.44 L453.46,189.08 Z M435.09,186.20 L435.24,182.90 L438.74,183.86 L438.52,185.56 L435.09,186.20 Z M429.95,182.36 L429.09,184.28 L431.24,185.24 L429.45,186.52 L430.74,187.48 L429.17,187.48 L427.45,190.36 L425.88,189.08 L425.95,186.84 L424.74,188.86 L423.88,188.01 L423.88,191.74 L421.45,190.99 L421.16,189.61 L422.16,189.18 L419.09,186.31 L422.16,184.18 L421.16,179.81 L422.81,180.34 L420.52,172.99 L420.16,176.08 L419.23,175.86 L418.02,171.28 L423.38,174.16 L422.45,176.61 L425.24,178.53 L425.45,176.29 L427.16,178.32 L427.88,177.46 L427.88,181.30 L430.88,178.63 L431.02,180.98 L429.09,181.51 L429.95,182.36 Z M417.95,177.46 L418.45,181.94 L420.81,182.15 L419.88,183.11 L417.45,184.92 L416.66,181.30 L417.95,177.46 Z M432.09,178.74 L432.74,179.06 L433.31,181.62 L432.02,180.87 L432.09,178.74 Z M410.02,179.27 L407.73,179.91 L408.80,179.27 L408.88,175.97 L409.45,175.01 L410.45,177.78 L410.02,179.27 Z M411.73,172.13 L411.45,173.09 L410.16,171.82 L410.73,170.22 L411.73,172.13 Z M410.38,170.11 L409.95,168.83 L410.45,169.26 L410.38,170.11 Z M497.25,364.14 L497.68,365.64 L496.96,364.89 L497.25,364.14 Z M496.54,363.08 L495.96,365.32 L496.11,363.40 L496.54,363.08 Z M502.61,356.05 L502.82,357.64 L501.18,358.39 L500.32,360.73 L501.04,355.83 L502.61,356.05 Z M499.54,355.51 L499.96,355.41 L500.61,356.58 L499.68,356.47 L499.54,355.51 Z M493.46,352.21 L492.96,353.06 L492.46,352.74 L493.46,352.21 Z M496.39,350.93 L496.89,351.78 L496.61,352.42 L495.89,351.78 L496.39,350.93 Z M496.25,349.01 L493.39,347.95 L494.61,343.47 L495.32,344.54 L494.18,346.46 L495.82,346.67 L496.25,349.01 Z M498.75,339.42 L499.89,339.00 L499.46,340.81 L498.75,339.42 Z M493.46,341.77 L492.75,335.48 L493.53,337.40 L495.25,338.36 L493.46,341.77 Z M493.03,334.20 L492.75,335.16 L492.03,334.52 L493.03,334.20 Z M496.68,332.18 L497.54,331.86 L498.54,334.84 L496.82,334.42 L496.68,332.18 Z M495.68,329.30 L496.18,326.74 L497.18,328.98 L496.03,329.94 L495.68,329.30 Z M494.61,326.10 L495.82,323.12 L497.54,322.38 L495.11,326.53 L494.89,330.15 L496.18,332.50 L495.03,332.82 L491.96,331.86 L491.61,330.37 L493.25,329.62 L492.11,328.77 L493.96,327.70 L491.11,324.40 L492.32,325.36 L493.25,323.87 L494.61,326.10 Z M496.25,324.93 L497.25,324.19 L497.61,325.04 L496.39,325.89 L496.25,324.93 Z M492.39,322.27 L492.18,323.97 L491.11,321.20 L491.82,320.78 L492.39,322.27 Z M492.46,319.29 L491.68,318.86 L491.89,318.11 L492.46,319.29 Z M489.89,317.47 L489.89,315.88 L490.96,316.83 L490.53,318.01 L489.89,317.47 Z M491.89,317.05 L491.25,317.05 L491.61,316.41 L491.89,317.05 Z M503.82,318.97 L500.75,314.92 L501.32,314.28 L504.61,316.94 L503.82,318.97 Z M493.11,315.56 L490.82,314.28 L489.68,315.56 L489.89,313.74 L491.46,313.53 L493.18,313.74 L493.11,315.56 Z M499.32,313.85 L499.82,313.11 L499.46,315.13 L498.11,313.74 L499.32,313.85 Z M491.11,303.30 L490.82,303.30 L491.11,303.09 L491.11,303.30 Z M502.39,306.07 L500.89,304.15 L499.25,305.01 L498.82,303.84 L499.75,303.30 L497.68,301.38 L498.82,300.00 L498.25,298.40 L500.18,298.83 L500.68,302.24 L502.82,303.09 L502.25,300.64 L503.39,300.53 L506.32,306.07 L504.61,307.24 L503.11,305.97 L504.68,305.33 L503.54,302.88 L502.39,306.07 Z M492.82,301.81 L493.53,302.66 L492.18,303.62 L491.89,302.98 L492.82,301.81 Z M493.68,301.28 L493.18,301.60 L493.53,300.75 L493.68,301.28 Z M492.61,299.36 L493.46,300.43 L492.61,300.53 L492.61,299.36 Z M500.54,300.21 L501.25,299.68 L501.32,299.89 L500.54,300.21 Z M497.46,299.79 L495.03,300.11 L493.68,296.27 L490.68,295.52 L495.61,294.56 L498.11,297.02 L494.11,296.70 L497.46,299.79 Z M500.96,296.70 L500.25,296.91 L500.46,296.16 L500.96,296.70 Z M502.75,294.99 L502.04,295.20 L502.61,294.46 L502.75,294.99 Z M498.68,294.35 L498.39,293.82 L498.68,293.93 L498.68,294.35 Z M498.96,293.82 L498.54,292.54 L500.32,292.86 L500.46,294.35 L498.96,293.82 Z M494.46,292.65 L493.32,292.86 L493.32,292.33 L494.46,292.65 Z M491.89,292.22 L492.18,292.65 L491.75,292.43 L491.89,292.22 Z M497.39,290.84 L496.96,290.41 L497.04,289.88 L497.39,290.84 Z M499.96,289.24 L499.68,288.92 L499.89,288.70 L499.96,289.24 Z M493.61,288.17 L494.18,289.66 L493.46,289.34 L493.61,288.17 Z M496.46,284.23 L496.68,280.93 L498.68,283.91 L498.18,285.72 L495.32,285.08 L496.46,284.23 Z M491.82,279.11 L495.11,286.36 L494.61,287.32 L490.75,280.50 L491.82,279.11 Z M498.75,281.89 L500.32,279.65 L501.68,281.67 L500.46,283.91 L501.68,286.04 L499.04,283.70 L498.75,281.89 Z M501.82,280.82 L503.46,283.06 L502.18,282.52 L501.82,280.82 Z M501.46,279.11 L501.89,278.80 L501.96,280.07 L501.46,279.11 Z M491.68,243.10 L490.82,240.33 L491.39,240.33 L491.82,241.61 L491.68,243.10 Z M499.39,232.87 L499.39,233.72 L499.11,233.08 L499.39,232.87 Z M497.75,231.91 L497.75,231.59 L497.89,231.49 L497.75,231.91 Z M497.46,231.49 L497.39,231.06 L497.61,231.17 L497.46,231.49 Z M498.25,228.29 L498.54,231.17 L497.32,230.63 L497.82,228.50 L498.25,228.29 Z M500.82,225.84 L501.11,227.01 L500.39,226.05 L495.11,230.31 L494.46,226.69 L496.11,228.40 L499.11,224.56 L500.82,225.84 Z M499.96,227.33 L499.61,227.33 L499.82,227.01 L499.96,227.33 Z M491.03,223.81 L492.39,224.99 L491.68,226.16 L491.03,223.81 Z M494.03,224.77 L493.25,221.26 L494.18,221.04 L495.11,223.49 L494.03,224.77 Z M495.89,222.32 L496.18,223.07 L495.68,222.85 L495.89,222.32 Z M497.32,222.00 L496.82,222.22 L497.11,221.90 L497.32,222.00 Z M494.68,221.47 L494.75,220.51 L495.46,221.26 L495.25,221.79 L494.68,221.47 Z M492.46,219.23 L492.25,220.30 L492.18,219.34 L492.46,219.23 Z M494.39,214.86 L494.53,215.50 L493.96,215.08 L494.39,214.86 Z M493.75,212.73 L493.89,214.33 L492.61,214.54 L493.75,212.73 Z M957.84,975.55 L953.19,974.38 L946.33,977.89 L942.55,975.12 L935.83,977.04 L932.76,975.34 L944.12,957.86 L949.83,955.52 L956.12,948.80 L962.19,944.86 L970.98,931.97 L977.70,931.01 L980.27,925.04 L980.77,928.88 L979.13,938.36 L975.70,947.31 L973.91,948.80 L972.34,953.70 L969.34,955.73 L970.34,967.56 L965.98,978.85 L961.98,980.77 L957.84,975.55 Z M563.69,454.08 L563.69,454.29 L563.62,454.18 L563.69,454.08 Z M564.41,452.80 L564.62,453.22 L564.26,453.12 L564.41,452.80 Z M566.69,452.26 L566.41,452.58 L566.62,451.94 L566.69,452.26 Z M571.12,451.52 L571.05,452.05 L570.83,451.62 L571.12,451.52 Z M552.83,453.12 L553.05,451.52 L554.62,449.81 L555.97,453.65 L552.83,453.12 Z M567.05,450.88 L567.55,450.13 L567.91,453.12 L567.05,450.88 Z M594.12,452.90 L593.91,450.88 L592.20,450.24 L593.77,448.53 L597.27,453.33 L594.12,452.90 Z M597.98,450.03 L598.34,450.99 L597.55,450.88 L597.98,450.03 Z M552.26,450.56 L552.33,450.35 L552.33,450.56 L552.26,450.56 Z M599.13,450.03 L599.27,450.67 L598.63,450.67 L599.13,450.03 Z M546.04,450.13 L545.47,450.35 L546.12,449.07 L546.04,450.13 Z M568.33,449.81 L569.62,450.77 L567.48,449.71 L567.33,448.53 L568.33,449.81 Z M540.47,448.43 L541.40,448.53 L541.04,450.56 L540.11,450.77 L540.47,448.43 Z M596.55,448.85 L596.48,449.71 L596.27,449.17 L596.55,448.85 Z M594.91,448.75 L595.34,448.43 L595.34,448.75 L594.91,448.75 Z M549.83,447.26 L549.83,448.75 L548.97,450.88 L547.90,446.62 L546.47,448.32 L545.26,446.40 L547.83,445.98 L549.83,447.26 Z M597.77,448.32 L596.91,448.53 L597.77,448.00 L597.77,448.32 Z M545.76,444.06 L546.69,445.34 L544.76,445.23 L545.76,444.06 Z M542.90,444.17 L542.83,443.95 L542.90,443.74 L542.90,444.17 Z M544.12,443.95 L543.83,441.29 L545.83,443.10 L544.54,442.35 L544.12,443.95 Z M592.41,442.35 L592.48,441.40 L592.62,442.14 L592.41,442.35 Z M560.83,439.37 L563.40,439.90 L560.33,442.25 L563.62,442.25 L562.26,446.30 L557.83,440.76 L559.76,436.28 L560.40,438.73 L558.62,439.80 L559.55,441.93 L560.83,439.37 Z M551.90,439.69 L552.12,439.90 L551.90,439.90 L551.90,439.69 Z M542.83,438.63 L543.54,437.77 L543.19,440.12 L542.83,438.63 Z M562.48,438.63 L561.83,437.67 L563.19,437.56 L562.62,437.67 L562.48,438.63 Z M542.54,413.05 L541.33,413.16 L542.54,412.09 L542.54,413.05 Z M541.90,411.24 L541.69,411.99 L541.47,411.13 L541.90,411.24 Z M545.04,409.00 L545.12,409.75 L544.90,409.43 L545.04,409.00 Z M506.61,340.38 L503.54,334.52 L503.97,334.10 L506.04,337.51 L506.61,340.38 Z M504.39,329.62 L505.89,335.48 L503.61,333.03 L503.68,329.73 L502.39,330.15 L504.97,326.74 L505.61,328.45 L504.39,329.62 Z M509.68,329.19 L508.68,329.19 L508.97,328.24 L509.68,329.19 Z M507.39,327.60 L504.39,322.80 L505.54,321.20 L507.97,324.40 L507.39,327.60 Z M503.89,322.70 L503.68,323.65 L503.61,322.80 L503.89,322.70 Z M506.39,309.91 L504.75,310.12 L504.04,307.67 L505.25,309.16 L506.68,308.31 L509.54,312.15 L506.04,311.40 L506.39,309.91 Z M503.97,299.68 L504.04,299.04 L504.39,298.72 L503.97,299.68 Z M511.04,298.51 L510.97,299.15 L510.75,298.83 L511.04,298.51 Z M504.11,297.02 L505.25,296.16 L506.04,298.29 L503.04,296.91 L504.11,297.02 Z M504.54,289.66 L510.11,295.52 L509.11,296.59 L510.39,298.93 L509.75,300.11 L507.11,297.97 L506.97,293.39 L504.54,289.66 Z M503.75,292.11 L504.68,293.82 L503.97,294.67 L501.68,292.43 L503.75,292.11 Z M517.18,289.45 L517.68,290.09 L517.11,290.84 L516.75,289.66 L517.18,289.45 Z M505.75,288.07 L501.39,290.41 L500.68,292.54 L501.75,286.79 L502.25,288.38 L505.75,288.07 Z M514.04,287.00 L511.97,287.43 L512.75,290.52 L516.11,287.21 L512.90,290.94 L514.47,291.58 L510.61,293.50 L507.25,290.52 L507.68,286.36 L504.25,281.67 L504.54,279.43 L505.89,281.35 L507.47,280.39 L509.04,281.67 L509.04,285.93 L510.25,287.53 L511.11,286.68 L509.61,285.72 L510.11,282.63 L512.47,284.34 L511.54,281.46 L513.47,281.35 L514.97,283.70 L512.75,284.87 L514.04,287.00 Z M517.68,284.66 L516.68,283.06 L519.54,281.99 L519.75,284.34 L517.54,288.70 L517.68,284.66 Z M522.47,285.93 L522.83,283.27 L523.33,285.08 L522.90,286.89 L522.47,285.93 Z M516.25,282.74 L515.32,282.84 L515.97,282.31 L516.25,282.74 Z M518.32,279.75 L518.54,280.39 L517.82,280.82 L517.75,279.86 L518.32,279.75 Z M516.97,279.97 L517.04,278.48 L517.54,279.43 L516.97,279.97 Z M503.11,278.37 L503.68,279.11 L502.89,278.58 L503.11,278.37 Z M519.54,271.34 L520.18,273.68 L518.97,272.51 L519.54,271.34 Z M522.18,269.63 L521.40,268.89 L521.97,268.25 L522.18,269.63 Z M521.68,267.39 L522.40,265.16 L522.68,266.54 L523.54,267.39 L521.68,267.39 Z M518.82,263.98 L519.97,262.60 L522.61,264.52 L519.97,265.48 L518.82,263.98 Z M516.18,260.57 L516.47,261.43 L515.47,260.68 L516.18,260.57 Z M521.90,247.89 L519.40,249.92 L521.11,246.30 L521.90,247.89 Z M519.18,239.48 L519.40,241.61 L520.83,241.71 L522.47,244.80 L518.97,242.57 L519.18,239.48 Z M512.61,234.68 L512.82,235.32 L512.61,235.75 L512.61,234.68 Z" /></g></svg>