<svg xmlns="http://www.w3.org/2000/svg" viewBox="0 0 1000 1000" width="1000" height="1000"><g fill="#cccccc" stroke="#222" stroke-width="2"><path d="M394.98,944.10 L408.44,944.10 L402.64,966.67 L381.98,980.77 L372.47,980.77 L361.79,952.00 L358.31,952.28 L351.12,942.69 L345.78,953.13 L328.37,952.56 L310.73,929.15 L311.89,921.25 L305.16,909.41 L293.79,907.72 L293.79,902.36 L281.03,886.56 L264.08,855.54 L250.16,848.77 L242.50,826.48 L237.63,824.23 L219.52,792.92 L214.65,751.46 L212.79,728.33 L212.79,655.84 L192.14,655.27 L187.26,648.50 L179.37,649.35 L174.03,639.20 L147.81,625.09 L137.83,609.58 L135.27,577.14 L109.74,597.73 L98.84,583.35 L97.91,568.40 L91.41,556.55 L80.04,561.63 L51.03,482.09 L30.14,456.14 L19.23,412.14 L79.81,403.39 L90.71,362.78 L93.73,332.60 L104.64,311.16 L108.35,293.39 L105.10,281.55 L121.12,262.37 L116.94,233.60 L122.05,216.95 L162.66,188.18 L169.39,173.23 L152.68,163.36 L134.58,141.36 L142.93,136.85 L142.93,130.08 L185.87,145.03 L184.01,152.08 L192.60,157.44 L196.78,151.80 L201.65,156.03 L217.67,180.85 L235.77,185.08 L279.17,189.31 L302.84,176.06 L314.91,164.77 L314.45,117.95 L330.23,129.23 L335.33,128.39 L335.80,128.60 L335.80,119.08 L365.52,104.24 L368.99,97.93 L424.69,80.72 L432.35,97.64 L431.88,119.64 L423.76,135.16 L428.17,156.59 L478.76,177.47 L502.20,182.26 L457.88,168.72 L455.79,152.36 L462.52,140.80 L479.23,129.23 L503.37,126.70 L505.22,104.13 L529.36,79.03 L542.59,83.54 L537.48,90.03 L543.05,93.98 L549.16,91.06 L541.66,77.05 L543.52,70.57 L537.02,70.28 L533.77,60.13 L550.48,51.67 L545.61,37.00 L561.85,25.72 L563.01,19.23 L580.19,22.62 L611.75,40.10 L635.66,81.00 L642.85,111.46 L636.58,153.21 L629.16,184.52 L630.55,198.34 L644.94,233.03 L661.18,254.47 L697.85,293.67 L719.21,302.42 L733.13,303.26 L747.75,295.37 L758.89,281.55 L779.32,266.88 L793.94,260.39 L816.45,268.57 L846.85,304.96 L853.12,317.65 L855.67,354.32 L857.07,370.39 L864.73,387.32 L879.58,397.19 L931.10,414.96 L953.85,450.50 L970.56,540.19 L969.63,589.27 L971.95,618.32 L980.77,636.66 L972.88,650.76 L967.77,651.32 L953.85,669.09 L920.89,671.35 L901.40,683.20 L893.74,681.79 L885.85,673.61 L877.26,640.32 L881.20,609.30 L868.44,607.89 L855.67,594.63 L849.18,601.96 L832.23,604.22 L820.63,604.22 L814.83,618.04 L802.29,623.68 L789.53,626.22 L786.98,632.14 L793.01,645.68 L786.51,647.94 L783.73,655.27 L796.72,674.45 L799.97,689.40 L788.60,720.71 L768.18,716.48 L754.25,692.51 L751.00,691.94 L745.90,701.53 L738.47,702.66 L729.19,683.76 L706.91,692.51 L693.68,673.89 L686.02,669.66 L657.94,676.15 L651.67,713.10 L653.99,734.25 L643.55,744.69 L624.51,745.53 L632.64,672.76 L622.19,749.48 L624.75,765.28 L611.05,792.92 L610.82,809.00 L601.54,831.56 L602.70,841.43 L611.52,847.36 L612.45,860.61 L621.03,870.77 L602.93,869.07 L588.31,877.54 L566.26,869.07 L559.76,886.28 L559.76,866.82 L553.73,868.79 L556.05,887.13 L544.91,889.10 L548.62,880.07 L545.37,875.84 L541.66,878.66 L537.95,866.54 L531.45,865.69 L530.98,846.79 L535.16,846.51 L533.54,825.35 L542.82,799.97 L540.73,792.92 L523.32,793.20 L522.40,786.71 L515.90,787.56 L512.65,762.46 L516.83,760.76 L504.06,759.35 L504.53,765.28 L500.81,766.40 L502.20,782.20 L494.55,810.41 L473.66,803.64 L459.27,820.28 L458.11,832.12 L451.38,834.10 L435.60,838.33 L435.83,843.97 L439.77,865.97 L420.97,880.92 L419.12,875.28 L396.84,882.89 L386.86,878.10 L378.73,887.69 L386.86,935.92 L394.98,944.10 Z M884.22,570.94 L883.99,546.68 L881.20,609.30 L884.22,570.94 Z M539.11,231.06 L529.82,220.06 L543.09,237.20 L538.18,221.47 L539.11,231.06 Z M465.30,231.34 L469.71,236.70 L475.05,238.95 L465.30,231.34 Z M451.61,343.88 L452.33,347.21 L455.79,337.68 L451.61,343.88 Z M459.73,381.39 L458.80,388.45 L461.90,380.91 L459.73,381.39 Z M452.54,466.58 L458.80,463.19 L480.39,442.60 L452.54,466.58 Z M462.52,491.68 L446.50,508.04 L456.95,499.01 L475.05,486.04 L462.52,491.68 Z M494.08,491.68 L497.10,486.60 L492.31,493.04 L494.08,491.68 Z M483.41,584.76 L484.09,585.59 L487.28,556.30 L483.41,584.76 Z M486.26,598.89 L494.55,599.71 L490.14,598.58 L492.23,595.48 L486.26,598.89 Z M456.48,658.66 L458.80,656.40 L458.07,652.57 L456.48,658.66 Z M454.13,689.98 L464.61,691.66 L458.80,687.99 L454.13,689.98 Z M374.56,306.08 L364.81,286.34 L376.71,314.26 L374.56,306.08 Z M375.25,404.52 L369.45,403.11 L364.81,405.09 L375.25,404.52 Z M354.86,398.65 L359.24,428.78 L358.31,419.75 L357.15,401.98 L354.86,398.65 Z M350.19,479.40 L348.80,480.40 L346.71,475.32 L350.19,496.11 L350.19,479.40 Z M363.65,550.35 L362.72,562.48 L367.83,611.55 L363.65,550.35 Z M343.92,686.58 L342.76,640.04 L342.06,624.81 L343.92,686.58 Z M326.51,695.04 L341.60,690.53 L339.05,698.99 L343.92,686.58 L326.51,695.04 Z M343.93,734.11 L344.62,722.12 L339.05,698.99 L343.93,734.11 Z M330.92,625.66 L304.00,628.76 L342.06,624.81 L330.92,625.66 Z M346.71,743.28 L345.15,742.87 L347.17,757.38 L346.71,743.28 Z M355.76,792.07 L359.13,795.62 L347.17,757.38 L355.76,792.07 Z M379.43,862.59 L371.54,860.33 L379.24,864.18 L379.43,862.59 Z M157.09,433.01 L147.81,536.81 L158.48,419.47 L157.09,433.01 Z M187.26,394.37 L188.24,391.71 L158.48,419.47 L187.26,394.37 Z M177.98,384.78 L191.21,383.65 L214.65,384.78 L207.22,381.68 L177.98,384.78 Z M209.08,396.63 L220.22,405.93 L227.88,408.47 L209.08,396.63 Z M252.48,385.34 L242.50,394.09 L227.88,408.47 L252.48,385.34 Z M290.77,371.24 L294.97,370.66 L295.93,367.35 L290.77,371.24 Z M248.30,613.25 L235.30,617.20 L217.90,627.63 L248.30,613.25 Z M292.63,572.63 L286.36,555.71 L284.68,554.68 L292.63,572.63 Z M304.23,584.76 L304.72,584.17 L292.63,572.63 L304.23,584.76 Z M258.75,599.43 L270.14,598.70 L269.19,598.02 L258.75,599.43 Z M272.52,600.41 L277.54,617.20 L274.29,601.68 L272.52,600.41 Z M293.79,619.45 L294.49,622.55 L296.30,621.74 L293.79,619.45 Z M244.59,459.24 L255.73,445.42 L235.30,467.70 L244.59,459.24 Z M345.55,398.32 L352.87,395.74 L351.35,393.52 L345.55,398.32 Z M176.82,266.88 L177.11,264.47 L175.71,266.30 L176.82,266.88 Z M242.50,257.85 L238.79,238.67 L240.41,249.11 L242.50,257.85 Z M338.46,299.41 L339.98,292.26 L338.35,299.32 L338.46,299.41 Z M199.91,362.21 L195.62,356.01 L198.17,362.21 L199.91,362.21 Z M235.54,331.19 L244.82,330.06 L248.77,333.73 L240.87,319.91 L245.98,328.93 L235.54,331.19 Z M297.50,361.93 L296.34,356.01 L297.16,363.13 L297.50,361.93 Z M227.41,304.96 L224.63,306.93 L233.68,301.57 L227.41,304.96 Z M337.89,268.01 L311.66,253.62 L324.89,262.37 L337.89,268.01 Z M197.01,211.31 L190.51,214.98 L190.05,219.21 L197.01,211.31 Z M310.94,190.28 L311.89,193.83 L317.46,201.72 L310.94,190.28 Z M351.88,478.19 L367.36,481.24 L352.74,477.58 L351.88,478.19 Z M356.32,467.49 L370.83,472.46 L369.89,470.64 L356.36,467.40 L356.32,467.49 Z M439.54,507.85 L439.08,493.37 L439.08,499.86 L439.53,507.85 L439.54,507.85 Z M445.11,549.22 L428.47,554.56 L428.47,554.56 L445.11,549.22 Z M397.88,653.32 L396.61,645.40 L397.07,653.02 L397.88,653.32 Z M389.41,707.74 L366.90,705.48 L384.77,709.15 L389.41,707.74 Z M423.30,736.22 L411.47,733.18 L411.23,735.10 L423.30,736.22 Z M362.78,799.42 L370.88,801.49 L370.96,798.50 L362.78,799.42 Z M364.34,500.99 L362.55,500.38 L361.56,502.96 L364.34,500.99 Z M368.52,499.58 L376.41,495.06 L361.56,502.96 L368.52,499.58 Z M369.66,486.01 L369.91,490.27 L376.41,495.06 L369.66,486.01 Z M388.48,498.73 L383.70,504.11 L383.84,504.09 L388.48,498.73 Z M427.47,545.55 L433.97,541.32 L416.56,552.04 L427.47,545.55 Z M368.06,498.73 L369.21,485.41 L367.43,483.03 L368.06,498.73 Z M391.96,393.80 L405.33,392.00 L380.59,394.93 L391.96,393.80 Z M436.06,344.16 L437.68,341.62 L417.49,371.24 L436.06,344.16 Z M428.47,457.49 L435.60,434.14 L429.33,451.63 L427.15,450.75 L428.47,457.49 Z M362.49,460.65 L368.84,464.26 L360.46,455.87 L360.39,456.06 L362.49,460.65 Z M366.24,209.85 L363.65,216.67 L366.24,209.85 L366.24,209.85 Z M360.10,198.31 L360.17,201.16 L366.00,208.77 L365.04,204.54 L360.10,198.31 Z M576.70,189.88 L591.79,152.93 L589.24,157.72 L576.70,189.88 Z M559.76,200.31 L565.56,191.00 L566.25,187.31 L559.76,200.31 Z M645.17,255.31 L631.65,260.12 L631.94,260.11 L645.17,255.31 Z M633.57,272.80 L631.51,270.17 L631.25,276.47 L633.57,272.80 Z M637.28,291.42 L634.73,289.16 L634.63,289.17 L637.28,291.42 Z M609.20,305.80 L628.26,289.97 L625.68,290.29 L609.20,305.80 Z M616.86,372.37 L612.39,370.74 L618.45,376.23 L616.86,372.37 Z M622.43,385.91 L621.53,383.74 L617.32,426.24 L622.43,385.91 Z M624.98,386.47 L643.31,368.42 L622.43,385.91 L624.98,386.47 Z M626.37,403.68 L643.78,437.24 L626.37,398.04 L624.98,386.47 L626.37,403.68 Z M632.41,459.24 L619.64,465.17 L620.60,468.99 L632.41,459.24 Z M633.80,585.60 L634.21,552.72 L634.03,557.96 L633.80,585.60 Z M633.94,598.42 L641.46,590.12 L634.03,595.76 L633.94,598.42 Z M632.64,643.43 L626.14,627.07 L628.00,632.71 L632.64,643.43 Z M586.68,361.37 L574.38,362.21 L564.40,363.34 L586.68,361.37 Z M552.80,482.37 L551.18,529.48 L553.26,502.40 L552.80,482.37 Z M544.68,531.45 L588.08,526.94 L551.18,529.48 L544.68,531.45 Z M597.59,485.19 L612.45,492.81 L606.41,489.70 L597.59,485.19 Z M503.37,621.99 L506.52,623.23 L500.12,609.86 L503.37,621.99 Z M530.02,668.93 L545.37,669.09 L530.52,668.81 L530.02,668.93 Z M578.10,689.40 L578.33,658.38 L576.94,669.38 L578.10,689.40 Z M475.64,687.08 L475.51,687.43 L475.75,692.51 L475.64,687.08 Z M528.89,741.87 L527.27,749.20 L531.48,740.95 L528.89,741.87 Z M534.58,735.09 L534.58,735.09 L543.75,734.81 L534.58,735.09 Z M548.32,739.40 L543.98,740.46 L548.16,740.74 L548.32,739.40 Z M567.07,734.84 L557.42,737.19 L567.19,737.63 L567.07,734.84 Z M585.29,731.71 L580.65,742.99 L581.23,743.79 L585.29,731.71 Z M478.03,680.30 L479.92,679.81 L479.69,675.58 L478.03,680.30 Z M510.10,673.61 L518.65,672.83 L518.81,671.56 L510.10,673.61 Z M518.92,607.89 L515.67,621.43 L518.92,614.66 L518.92,607.89 Z M530.98,601.96 L525.41,616.63 L530.52,606.20 L530.98,601.96 Z M542.59,604.22 L542.09,604.12 L543.52,608.45 L542.59,604.22 Z M512.72,325.56 L511.51,316.52 L511.02,318.50 L512.72,325.56 Z M512.36,313.09 L540.77,317.99 L540.96,315.39 L512.39,312.97 L512.36,313.09 Z M554.89,324.42 L559.99,324.70 L554.97,323.08 L554.89,324.42 Z M527.04,410.45 L530.06,403.68 L521.93,412.42 L490.14,431.04 L527.04,410.45 Z M543.28,413.55 L553.96,416.65 L530.06,403.68 L543.28,413.55 Z M560.46,390.14 L569.28,412.42 L569.30,412.45 L560.46,390.14 Z M537.69,378.59 L540.96,382.24 L560.46,390.14 L537.69,378.59 Z M518.45,389.29 L526.34,389.29 L526.12,386.89 L518.45,389.29 Z M521.00,359.96 L528.87,368.74 L519.50,353.69 L521.00,359.96 Z M534.46,182.54 L544.21,181.41 L554.89,180.00 L534.46,182.54 Z M544.44,238.95 L553.73,236.42 L543.54,237.79 L544.44,238.95 Z M574.62,268.29 L587.61,270.83 L594.66,268.29 L574.62,268.29 Z M550.60,93.76 L565.80,135.44 L557.21,106.10 L550.60,93.76 Z M678.29,505.77 L720.13,524.96 L686.95,507.19 L678.29,505.77 Z M766.50,500.72 L773.38,504.97 L770.50,501.55 L766.50,500.72 Z M793.28,469.18 L793.71,467.70 L775.14,436.11 L793.28,469.18 Z M852.19,439.22 L851.50,459.24 L854.05,411.01 L852.19,439.22 Z M879.81,469.96 L885.85,489.99 L887.70,493.94 L879.81,469.96 Z M692.52,565.58 L694.58,565.58 L686.25,550.63 L692.52,565.58 Z M695.53,619.73 L696.00,568.12 L695.98,568.08 L695.53,619.73 Z M780.25,558.53 L779.98,541.05 L779.55,546.12 L780.25,558.53 Z M823.65,568.40 L826.73,565.64 L811.79,567.49 L823.65,568.40 Z M682.07,631.86 L674.29,629.09 L674.62,630.53 L682.07,631.86 Z M731.51,619.73 L733.61,620.12 L732.05,618.38 L731.51,619.73 Z M734.47,612.32 L732.25,617.88 L734.31,617.21 L734.47,612.32 Z M903.72,570.09 L907.20,566.42 L894.98,568.82 L903.72,570.09 Z M907.55,558.69 L919.27,555.99 L907.66,557.96 L908.13,546.12 L907.55,558.69 Z M945.49,581.94 L946.66,582.92 L944.10,568.40 L945.49,581.94 Z M943.64,602.81 L947.58,588.14 L947.56,588.04 L943.64,602.81 Z M779.55,512.27 L777.28,509.58 L779.64,518.05 L779.55,512.27 Z M822.95,502.68 L829.22,498.45 L831.18,494.27 L822.95,502.68 Z M839.44,481.86 L847.55,479.55 L841.52,478.42 L839.44,481.86 Z M848.71,522.99 L850.10,535.68 L851.51,537.10 L848.71,522.99 Z M702.47,432.03 L699.94,427.93 L690.43,422.86 L702.47,432.03 Z M725.86,457.79 L730.11,443.17 L727.10,450.78 L725.86,457.79 Z M745.20,452.19 L747.20,451.05 L741.25,447.68 L745.20,452.19 Z M753.09,447.68 L756.34,436.40 L749.11,449.96 L753.09,447.68 Z M763.30,432.45 L760.75,431.60 L763.54,435.55 L763.30,432.45 Z M795.20,404.47 L793.71,401.98 L763.07,403.96 L795.20,404.47 Z M690.66,444.86 L707.14,447.11 L707.46,446.33 L690.66,444.86 Z M662.76,363.20 L654.69,369.27 L663.04,365.03 L662.76,363.20 Z M671.86,344.16 L672.32,356.01 L672.43,356.07 L671.86,344.16 Z M724.29,400.36 L731.97,393.80 L724.31,400.29 L724.29,400.36 Z M788.19,365.19 L785.82,366.73 L785.82,394.09 L788.19,365.19 Z M719.82,412.27 L721.99,411.57 L721.56,407.63 L719.82,412.27 Z M715.96,422.57 L718.51,422.29 L718.00,417.14 L715.96,422.57 Z" /></g></svg>