<svg xmlns="http://www.w3.org/2000/svg" viewBox="0 0 1000 1000" width="1000" height="1000"><g fill="#cccccc" stroke="#222" stroke-width="2"><path d="M346.68,723.30 L341.22,729.25 L333.59,730.80 L325.87,720.91 L327.09,714.72 L325.59,706.98 L320.22,702.93 L317.49,697.45 L306.37,696.50 L296.01,681.26 L292.45,679.37 L290.27,679.59 L289.61,676.73 L285.84,674.47 L278.31,672.92 L274.73,668.28 L273.04,661.37 L261.45,669.11 L259.57,663.99 L252.69,656.96 L247.33,655.65 L240.17,659.82 L233.01,660.30 L224.53,664.94 L223.22,676.02 L216.53,681.38 L212.20,677.09 L206.36,678.99 L202.22,677.09 L195.81,678.52 L182.44,662.92 L169.35,656.37 L167.28,656.60 L166.52,658.87 L160.87,657.08 L158.71,661.84 L156.07,661.01 L154.47,658.15 L158.89,647.79 L158.23,639.10 L150.14,635.29 L144.86,624.69 L138.74,619.92 L136.29,608.85 L142.13,596.70 L138.36,603.61 L135.54,595.15 L126.69,579.91 L123.39,576.34 L114.82,574.07 L109.17,571.45 L95.89,557.76 L89.86,553.83 L80.73,546.80 L74.51,545.97 L64.53,548.47 L59.26,552.76 L47.58,556.09 L40.80,556.57 L34.86,553.95 L28.84,567.64 L19.98,557.52 L24.13,527.51 L19.70,513.34 L21.40,511.55 L24.88,511.91 L31.47,507.15 L27.24,499.88 L23.56,497.74 L23.94,494.88 L21.40,487.97 L27.00,473.81 L19.23,469.75 L21.02,453.44 L30.06,446.17 L40.51,446.05 L46.26,439.38 L55.68,430.09 L62.36,430.09 L65.94,434.86 L70.46,437.36 L74.32,435.33 L76.49,441.88 L85.25,447.12 L89.39,445.10 L95.51,449.27 L101.54,459.03 L115.20,457.13 L122.26,467.13 L124.80,466.89 L126.03,461.18 L136.39,468.92 L142.04,470.11 L147.59,476.90 L159.74,483.80 L163.41,481.90 L177.64,481.42 L185.92,480.47 L190.54,477.73 L188.47,473.20 L186.21,472.61 L185.92,469.87 L186.02,462.25 L184.23,462.49 L183.38,459.39 L172.27,450.34 L166.80,450.22 L164.92,445.93 L166.24,438.67 L172.17,432.12 L178.67,412.59 L178.48,404.49 L188.28,411.40 L194.21,413.42 L184.98,409.01 L189.41,398.18 L196.69,389.31 L181.59,381.62 L175.28,374.95 L171.23,374.36 L171.33,370.31 L175.37,362.81 L174.90,355.42 L177.35,352.09 L176.69,347.80 L179.80,338.63 L171.04,335.89 L174.34,326.60 L174.15,323.51 L164.26,307.19 L164.73,299.45 L164.84,299.61 L161.34,292.90 L155.03,284.92 L150.42,261.58 L138.83,256.94 L134.13,251.22 L127.63,241.57 L116.33,234.07 L113.12,223.11 L97.96,192.75 L92.88,188.34 L81.95,179.29 L75.45,166.55 L69.99,141.89 L64.34,134.75 L61.61,127.13 L48.61,116.77 L46.35,104.26 L43.06,93.78 L40.33,90.33 L41.08,85.33 L35.99,71.87 L34.86,62.22 L38.91,59.25 L48.90,62.94 L53.61,52.10 L52.19,43.17 L57.18,35.78 L73.66,25.30 L82.52,22.33 L85.15,19.23 L90.62,19.95 L89.77,22.68 L95.42,41.74 L100.88,46.38 L103.80,52.93 L100.41,56.98 L99.19,63.77 L89.77,67.82 L89.67,73.54 L91.86,74.96 L99.94,73.54 L109.26,76.63 L109.17,79.25 L115.01,86.52 L122.54,86.99 L125.08,85.33 L132.24,85.56 L138.65,81.63 L141.66,82.83 L145.90,90.80 L155.79,91.64 L166.33,95.69 L165.77,98.07 L171.61,103.90 L180.65,106.64 L187.24,115.93 L189.03,115.69 L193.46,127.96 L191.10,132.49 L191.36,134.62 L199.20,127.60 L201.93,126.65 L206.45,130.58 L209.37,138.56 L214.27,141.89 L221.24,143.68 L225.29,140.82 L231.79,150.35 L236.97,151.42 L239.89,155.35 L239.98,160.71 L257.68,189.17 L257.40,193.82 L260.79,200.73 L271.15,205.49 L275.67,205.49 L278.59,207.99 L282.45,215.97 L288.76,222.76 L292.72,223.23 L297.71,227.04 L306.37,225.02 L310.14,226.45 L312.31,222.88 L325.21,225.26 L325.77,220.73 L340.37,218.83 L352.24,210.49 L354.31,202.75 L360.53,204.54 L367.87,211.92 L366.18,213.71 L364.76,222.04 L357.51,230.97 L356.00,236.93 L359.87,242.76 L357.98,247.65 L363.54,252.53 L369.38,251.34 L372.39,245.15 L378.61,242.64 L381.34,243.48 L381.34,240.62 L384.82,240.62 L380.87,237.17 L379.55,232.76 L382.84,229.19 L389.53,229.78 L391.41,228.47 L390.19,226.33 L403.19,222.28 L401.77,219.54 L406.11,218.11 L407.61,219.78 L408.93,218.11 L410.63,222.64 L418.73,229.31 L423.72,227.76 L424.38,223.23 L428.90,223.83 L428.52,230.38 L433.04,242.88 L436.15,243.00 L443.31,237.05 L446.41,236.81 L449.99,243.48 L467.98,243.60 L471.84,237.40 L471.09,230.02 L479.94,230.14 L482.01,226.09 L487.95,226.33 L490.86,223.11 L497.83,223.95 L488.70,185.72 L482.77,170.95 L481.54,153.80 L479.85,149.16 L475.70,142.73 L470.24,139.87 L476.36,135.82 L475.51,131.06 L476.64,130.10 L478.25,132.49 L479.28,127.84 L483.05,132.61 L481.07,133.92 L482.01,136.89 L479.56,141.06 L480.79,142.97 L486.95,143.65 L488.98,142.13 L487.57,141.18 L489.64,141.06 L492.37,137.13 L500.75,136.54 L503.11,140.47 L506.12,144.51 L517.05,139.04 L517.99,138.32 L526.84,136.06 L537.76,124.03 L537.86,129.75 L542.57,136.06 L542.57,146.18 L544.07,149.28 L553.02,155.59 L566.77,155.95 L571.01,172.74 L580.52,178.22 L587.49,190.84 L590.41,197.03 L591.26,205.73 L598.41,208.11 L608.11,217.04 L613.20,218.71 L615.27,216.33 L624.97,215.49 L635.24,231.81 L643.81,236.33 L646.44,235.50 L649.74,241.22 L655.96,245.86 L659.82,246.22 L664.71,246.46 L667.82,250.03 L680.44,239.55 L687.98,246.57 L694.00,240.14 L701.44,243.12 L706.34,240.02 L711.33,240.14 L714.25,236.81 L720.00,238.24 L720.75,244.31 L724.05,245.50 L721.60,248.72 L718.68,247.77 L720.56,250.98 L718.87,253.96 L712.18,256.10 L708.60,259.32 L707.56,268.37 L708.51,270.15 L704.36,274.56 L703.89,278.25 L702.01,275.75 L700.03,284.33 L697.58,285.16 L696.26,288.73 L685.90,294.21 L684.87,294.21 L684.93,301.68 L689.76,297.43 L692.03,297.78 L694.00,293.14 L695.60,296.95 L700.03,294.93 L700.78,296.95 L699.75,297.78 L702.01,301.59 L703.99,301.12 L711.61,309.69 L715.10,311.36 L715.19,314.93 L718.96,318.51 L718.02,320.05 L719.62,322.32 L721.97,321.01 L723.95,322.55 L724.05,333.87 L725.65,334.94 L724.80,337.80 L714.82,338.27 L725.55,338.63 L726.96,337.20 L726.31,340.18 L724.52,340.78 L725.55,343.16 L719.81,348.75 L719.24,359.59 L717.26,362.33 L714.53,364.95 L705.02,365.55 L701.35,367.93 L699.65,378.65 L696.26,384.36 L698.81,385.32 L698.99,387.22 L700.03,383.41 L705.87,384.01 L715.76,381.62 L722.82,377.34 L723.39,370.55 L727.25,366.86 L726.40,358.76 L728.09,354.47 L734.22,354.59 L736.48,351.26 L734.88,341.85 L738.83,342.56 L741.19,346.13 L746.65,346.02 L750.98,348.64 L753.62,353.64 L756.72,353.52 L755.03,355.30 L762.94,352.68 L767.18,356.50 L769.16,356.02 L768.59,346.61 L772.64,344.71 L771.51,351.97 L772.73,354.83 L778.01,358.64 L776.41,364.59 L774.52,361.97 L766.99,366.50 L768.50,367.69 L767.46,370.91 L763.88,372.81 L767.08,372.57 L767.18,374.72 L768.50,374.84 L767.18,378.53 L768.87,380.43 L769.06,387.82 L770.94,389.13 L767.65,394.72 L769.63,396.39 L767.18,399.25 L783.66,399.01 L783.85,410.32 L785.07,437.36 L792.79,461.41 L800.99,469.99 L796.37,482.73 L799.39,490.00 L812.95,510.00 L815.87,511.79 L816.90,515.01 L817.37,519.89 L813.89,530.25 L810.69,531.08 L808.62,534.18 L807.30,532.75 L803.91,534.89 L803.81,539.30 L807.77,545.97 L806.36,548.71 L807.77,552.52 L809.18,553.95 L810.97,552.16 L811.25,544.18 L813.14,549.07 L811.82,550.49 L814.27,555.62 L812.38,557.88 L814.08,563.24 L813.23,564.90 L814.93,567.41 L812.95,575.62 L816.15,581.82 L820.10,584.67 L817.00,587.77 L818.32,590.39 L812.19,595.75 L811.35,594.20 L807.49,594.92 L806.26,591.46 L804.66,591.58 L803.15,595.15 L800.42,594.08 L798.54,596.11 L801.74,601.70 L800.52,603.85 L801.46,609.44 L806.92,610.16 L808.80,608.73 L810.88,610.52 L815.68,607.90 L816.43,610.28 L820.20,610.52 L824.72,603.37 L829.43,606.59 L831.69,603.61 L833.76,604.09 L837.81,618.97 L836.40,626.59 L840.64,631.60 L847.89,634.45 L840.35,631.12 L852.97,634.33 L858.15,624.21 L862.30,629.57 L873.97,631.71 L877.27,639.10 L882.54,642.91 L884.43,647.43 L893.94,658.87 L897.52,671.97 L899.87,683.76 L901.94,690.55 L910.42,701.50 L912.21,705.91 L922.19,735.09 L926.81,732.94 L929.44,737.94 L929.82,744.26 L934.25,750.33 L944.61,741.64 L945.64,755.33 L949.69,761.88 L960.33,767.84 L962.50,772.12 L965.70,771.77 L967.68,774.62 L976.06,774.86 L975.31,793.44 L977.85,829.29 L980.77,836.31 L972.58,836.67 L967.87,843.22 L959.67,842.15 L955.62,843.70 L954.78,847.03 L952.14,845.72 L949.97,846.91 L944.61,839.77 L934.34,833.22 L926.99,823.21 L921.06,812.02 L918.61,794.03 L919.37,803.44 L914.85,804.51 L916.07,811.06 L910.14,824.40 L904.96,825.00 L901.10,817.14 L891.58,820.23 L886.88,818.21 L881.23,821.54 L877.36,800.82 L874.63,793.61 L877.55,805.23 L886.03,846.91 L888.38,848.34 L888.19,850.60 L882.17,852.39 L882.83,856.44 L881.60,859.30 L885.84,870.73 L883.20,870.85 L884.80,875.25 L883.96,881.45 L886.59,883.35 L888.85,893.83 L885.65,902.41 L885.93,906.93 L876.23,907.53 L875.01,901.81 L876.05,889.31 L871.52,886.57 L861.35,885.14 L861.07,877.87 L863.80,869.30 L858.81,868.47 L859.28,865.49 L856.36,865.61 L850.81,859.06 L843.46,857.99 L837.72,853.70 L833.29,856.08 L829.90,853.70 L819.07,854.77 L818.79,859.77 L822.27,865.49 L825.10,863.46 L826.23,865.61 L827.64,864.66 L830.18,871.09 L831.78,871.09 L829.15,876.56 L826.13,875.37 L825.38,876.80 L830.09,880.97 L827.45,882.28 L828.49,885.38 L832.63,887.40 L833.38,890.97 L837.15,893.59 L836.40,898.36 L839.98,904.19 L844.59,908.12 L842.24,915.27 L846.10,918.13 L846.76,921.70 L850.05,924.92 L851.09,929.80 L856.17,937.42 L860.69,940.75 L860.04,944.80 L858.53,944.92 L858.34,948.02 L854.95,952.31 L833.76,961.95 L828.30,972.91 L819.45,980.77 L810.50,979.82 L807.67,976.48 L805.41,976.24 L797.41,965.29 L785.64,954.21 L782.43,948.14 L780.08,946.71 L778.48,941.23 L775.65,940.52 L770.76,934.68 L764.54,931.35 L762.28,928.25 L760.77,930.75 L756.63,929.20 L743.54,914.67 L723.57,905.38 L720.47,903.72 L711.05,916.10 L703.33,918.13 L684.40,913.01 L682.51,905.98 L672.25,901.57 L667.92,905.27 L667.07,911.58 L664.15,915.75 L644.56,913.96 L629.68,903.60 L622.15,897.41 L607.08,897.41 L602.37,893.83 L593.42,890.97 L581.84,884.78 L577.88,884.78 L584.57,886.45 L578.73,888.71 L575.53,887.76 L570.26,893.95 L555.85,900.50 L550.20,897.17 L536.82,893.48 L530.14,887.64 L521.00,885.50 L519.12,881.33 L509.79,877.64 L505.93,880.49 L498.78,878.95 L495.76,872.04 L485.87,864.89 L483.52,865.37 L480.41,862.15 L478.06,863.35 L458.47,842.62 L456.77,848.46 L452.82,848.46 L437.56,837.38 L433.89,830.48 L430.22,833.57 L427.39,833.45 L416.65,827.14 L422.21,814.64 L424.83,802.89 L422.40,802.25 L420.52,801.06 L421.55,797.73 L420.23,789.99 L403.38,780.10 L402.53,777.72 L400.27,777.72 L398.95,773.19 L403.66,762.95 L399.51,759.02 L399.51,756.76 L395.46,756.05 L390.47,752.00 L391.04,744.97 L376.54,738.18 L373.62,733.18 L367.02,728.65 L362.88,726.87 L352.80,728.54 L346.68,723.30 Z M503.01,263.37 L501.98,251.10 L497.83,223.95 L503.01,263.37 Z M498.81,280.98 L500.38,276.35 L503.01,263.37 L498.81,280.98 Z M693.11,382.04 L693.91,383.65 L696.26,384.36 L693.11,382.04 Z M493.22,304.45 L492.86,308.68 L493.90,301.60 L493.22,304.45 Z M491.81,320.89 L492.24,321.45 L491.94,319.34 L491.81,320.89 Z M497.74,328.63 L504.80,336.01 L497.55,328.38 L497.74,328.63 Z M497.17,343.75 L495.39,350.30 L498.21,340.42 L497.17,343.75 Z M489.92,342.09 L495.67,343.51 L497.17,343.75 L489.92,342.09 Z M500.00,371.86 L502.07,372.93 L499.18,370.40 L500.00,371.86 Z M498.54,397.45 L498.87,396.51 L498.23,396.04 L498.54,397.45 Z M479.85,492.74 L481.64,494.16 L479.28,490.47 L479.85,492.74 Z M509.14,527.63 L515.44,527.27 L505.46,527.27 L509.14,527.63 Z M554.62,523.70 L555.40,524.69 L556.88,509.29 L554.62,523.70 Z M559.99,530.49 L566.58,533.58 L557.70,527.60 L559.99,530.49 Z M566.02,543.35 L567.81,530.96 L566.58,533.58 L566.02,543.35 Z M576.38,523.46 L577.41,521.44 L574.12,527.03 L576.38,523.46 Z M603.78,522.98 L587.49,520.25 L583.91,519.65 L603.78,522.98 Z M625.98,569.05 L626.01,567.05 L624.78,564.63 L625.98,569.05 Z M625.11,583.73 L628.17,580.86 L625.82,582.05 L625.87,577.77 L625.11,583.73 Z M622.15,584.79 L623.46,585.27 L624.62,584.19 L622.15,584.79 Z M636.65,653.27 L641.92,651.01 L626.01,655.18 L636.65,653.27 Z M620.26,684.59 L612.54,696.26 L627.61,674.83 L620.26,684.59 Z M596.72,713.53 L605.10,707.46 L610.94,701.38 L596.72,713.53 Z M605.56,737.71 L611.88,737.47 L608.30,736.99 L605.56,737.71 Z M584.10,774.15 L584.53,774.99 L587.02,765.81 L584.10,774.15 Z M583.72,783.32 L585.22,783.85 L582.78,781.41 L583.72,783.32 Z M592.10,786.29 L594.46,795.82 L592.01,784.86 L591.35,784.20 L591.35,786.03 L592.10,786.29 Z M593.14,801.89 L596.81,802.37 L591.95,800.59 L593.14,801.89 Z M391.51,250.86 L387.37,251.22 L373.71,254.43 L391.51,250.86 Z M353.56,348.99 L349.88,353.16 L346.68,356.85 L353.56,348.99 Z M357.53,350.05 L355.53,348.99 L353.56,348.99 L357.53,350.05 Z M372.30,571.93 L368.91,568.36 L364.94,564.97 L372.30,571.93 Z M365.05,605.04 L351.77,587.65 L357.42,596.23 L365.05,605.04 Z M393.02,643.39 L389.91,640.17 L393.27,644.99 L393.02,643.39 Z M418.44,663.99 L418.91,654.46 L416.94,677.09 L418.44,663.99 Z M427.39,684.35 L421.65,682.92 L424.66,684.23 L427.39,684.35 Z M474.33,621.84 L475.99,630.52 L475.33,624.45 L474.33,621.84 Z M488.54,758.30 L485.40,753.31 L487.66,758.90 L488.54,758.30 Z M440.49,804.69 L441.05,804.16 L441.99,801.06 L440.49,804.69 Z M437.84,807.25 L438.61,806.51 L429.68,804.16 L437.84,807.25 Z M343.29,700.19 L345.08,704.84 L348.00,708.05 L343.29,700.19 Z M379.08,713.65 L377.29,714.72 L372.39,720.68 L368.44,724.01 L367.79,726.14 L379.08,713.65 Z M244.97,465.46 L249.77,467.37 L242.99,464.27 L244.97,465.46 Z M248.93,472.49 L249.24,473.24 L253.73,469.75 L248.93,472.49 Z M316.45,631.95 L323.70,628.50 L315.51,632.19 L306.28,635.88 L316.45,631.95 Z M322.76,645.05 L325.66,658.20 L326.34,657.20 L322.76,645.05 Z M324.10,660.48 L322.79,661.12 L323.42,661.49 L324.10,660.48 Z M165.49,552.40 L166.58,551.82 L159.08,550.26 L165.49,552.40 Z M172.17,548.83 L174.62,546.56 L170.83,549.54 L172.17,548.83 Z M277.82,534.20 L278.69,534.30 L280.19,539.30 L278.87,531.08 L277.82,534.20 Z M298.37,542.04 L283.77,525.59 L284.15,526.08 L298.37,542.04 Z M279.76,520.34 L277.56,514.17 L277.02,513.44 L278.69,518.94 L279.76,520.34 Z M357.74,558.82 L353.84,555.50 L353.17,555.52 L357.74,558.82 Z M209.84,622.19 L202.91,625.74 L202.97,626.36 L209.84,622.19 Z M243.94,605.87 L249.68,613.61 L247.98,609.92 L243.94,605.87 Z M263.92,595.38 L261.22,597.89 L263.15,597.30 L263.92,595.38 Z M293.53,597.07 L295.42,599.56 L294.04,597.42 L293.53,597.07 Z M241.58,568.83 L242.71,569.91 L243.46,569.10 L241.58,568.83 Z M244.04,568.47 L247.23,565.02 L243.94,567.52 L244.04,568.47 Z M243.18,601.70 L238.94,600.75 L243.36,602.71 L243.18,601.70 Z M110.11,497.02 L113.88,498.33 L114.82,497.95 L110.11,497.02 Z M117.09,497.04 L118.30,496.55 L121.60,492.26 L128.85,487.85 L120.47,492.85 L117.09,497.04 Z M216.91,509.05 L202.40,510.96 L220.63,509.68 L216.91,509.05 Z M275.11,510.84 L265.50,509.05 L275.65,511.57 L275.11,510.84 Z M304.37,487.29 L305.15,487.61 L307.03,485.71 L304.37,487.29 Z M334.82,486.66 L321.25,485.11 L338.39,487.97 L334.82,486.66 Z M294.41,485.71 L293.22,486.86 L298.75,484.99 L294.41,485.71 Z M289.14,459.63 L292.10,461.53 L287.65,457.11 L289.14,459.63 Z M105.59,487.14 L104.78,486.56 L106.16,490.95 L105.59,487.14 Z M120.09,134.99 L120.27,134.08 L110.68,142.73 L120.09,134.99 Z M122.64,121.65 L124.05,101.88 L121.39,128.19 L122.64,121.65 Z M175.09,176.91 L176.98,160.23 L175.09,171.43 L175.09,176.91 Z M172.21,309.19 L170.24,308.04 L170.76,308.86 L172.21,309.19 Z M233.95,293.97 L234.05,292.19 L235.65,288.97 L231.32,297.31 L233.95,293.97 Z M241.39,314.81 L239.70,313.86 L241.55,316.25 L241.39,314.81 Z M253.16,331.25 L250.81,326.84 L253.18,331.30 L253.16,331.25 Z M270.11,337.92 L265.40,336.06 L266.91,337.92 L270.11,337.92 Z M298.50,314.77 L294.77,315.74 L296.96,315.65 L298.50,314.77 Z M310.42,302.55 L310.68,300.35 L310.42,300.88 L309.10,303.63 L310.42,302.55 Z M266.25,386.86 L251.37,374.95 L231.13,361.50 L266.25,386.86 Z M253.55,339.03 L254.77,336.13 L254.31,334.74 L253.55,339.03 Z M293.46,284.42 L294.17,287.16 L295.07,278.25 L293.85,284.92 L293.46,284.42 Z M250.54,271.36 L249.11,271.46 L248.98,272.59 L250.54,271.36 Z M256.84,274.20 L254.11,271.11 L252.37,271.23 L256.84,274.20 Z M463.57,775.32 L461.67,773.19 L463.46,771.17 L460.03,772.90 L463.57,775.32 Z M462.14,739.13 L465.63,741.87 L461.65,737.81 L462.14,739.13 Z M460.63,735.09 L460.83,735.62 L460.91,734.77 L460.63,735.09 Z M464.59,730.56 L462.71,732.71 L472.97,727.70 L464.59,730.56 Z M466.01,710.41 L467.32,714.48 L466.38,711.03 L466.01,710.41 Z M387.65,312.79 L377.19,320.41 L390.28,311.72 L391.67,309.28 L387.65,312.79 Z M432.41,293.30 L433.82,291.87 L432.57,292.31 L432.41,293.30 Z M451.12,295.64 L450.87,302.06 L453.01,288.74 L451.12,295.64 Z M450.78,304.24 L450.75,305.05 L453.19,307.07 L450.78,304.24 Z M468.07,364.83 L459.41,370.31 L441.80,381.27 L438.69,384.60 L468.07,364.83 Z M437.28,391.98 L432.85,407.82 L438.69,389.60 L438.69,384.60 L437.28,391.98 Z M424.00,387.46 L420.78,387.04 L437.28,391.98 L424.00,387.46 Z M473.63,350.54 L479.75,342.92 L483.33,338.04 L473.63,350.54 Z M517.61,546.45 L518.74,550.49 L520.25,552.52 L517.61,546.45 Z M491.15,581.70 L490.49,579.91 L493.97,612.54 L491.15,581.70 Z M492.00,576.22 L491.26,575.40 L490.49,579.91 L492.00,576.22 Z M484.27,521.91 L489.36,519.41 L479.38,523.10 L484.27,521.91 Z M372.96,576.58 L369.57,575.38 L375.31,578.84 L372.96,576.58 Z M392.26,587.65 L383.98,587.33 L385.29,588.13 L392.26,587.65 Z M405.38,595.34 L401.75,595.47 L402.06,595.87 L405.38,595.34 Z M409.67,617.78 L406.48,610.28 L408.08,616.59 L409.67,617.78 Z M411.29,621.59 L411.07,621.07 L411.00,625.40 L411.29,621.59 Z M423.81,610.04 L424.75,614.21 L425.79,616.35 L423.81,610.04 Z M471.94,609.33 L466.19,595.75 L469.86,605.63 L471.94,609.33 Z M382.56,612.18 L384.46,617.56 L384.73,615.88 L382.56,612.18 Z M414.89,593.83 L415.52,593.72 L416.94,590.63 L414.89,593.83 Z M471.28,540.01 L470.24,553.71 L472.01,539.09 L471.28,540.01 Z M472.72,538.19 L480.60,539.30 L473.54,537.16 L472.72,538.19 Z M431.40,556.64 L430.50,549.66 L427.86,541.80 L431.40,556.64 Z M429.32,534.31 L429.32,534.31 L427.67,529.53 L429.32,534.31 Z M344.80,435.93 L355.78,427.29 L354.40,427.24 L341.66,437.03 L344.80,435.93 Z M391.79,410.21 L389.82,412.17 L392.55,410.71 L391.79,410.21 Z M483.41,390.98 L484.27,388.05 L484.71,388.05 L483.35,386.58 L483.41,390.98 Z M489.17,384.01 L489.01,388.05 L489.92,388.05 L489.17,384.01 Z M393.66,452.61 L393.68,452.96 L399.70,456.06 L393.66,452.61 Z M454.70,450.93 L456.68,447.84 L456.67,446.06 L454.70,450.93 Z M456.60,434.29 L456.59,432.27 L455.74,432.83 L456.60,434.29 Z M457.64,431.57 L466.94,430.93 L459.32,430.45 L457.64,431.57 Z M482.80,393.01 L477.87,398.30 L482.29,394.72 L482.80,393.01 Z M372.20,357.81 L385.39,359.47 L379.83,357.69 L372.20,357.81 Z M395.75,359.23 L402.81,373.05 L407.84,379.99 L395.75,359.23 Z M456.40,276.35 L454.74,282.42 L456.11,280.75 L457.47,275.34 L456.40,276.35 Z M516.58,781.65 L516.87,781.46 L515.16,780.46 L516.58,781.65 Z M544.36,775.93 L542.57,772.48 L545.11,783.56 L544.36,775.93 Z M546.62,773.19 L547.75,766.29 L551.23,759.98 L547.09,767.48 L546.62,773.19 Z M567.81,787.31 L567.24,785.46 L558.58,775.10 L567.81,787.31 Z M577.13,799.16 L577.04,796.65 L576.55,796.59 L577.13,799.16 Z M580.71,836.43 L575.06,833.81 L570.43,831.72 L572.99,833.45 L580.71,836.43 Z M566.87,799.75 L570.07,805.47 L567.70,799.49 L566.87,799.75 Z M527.90,705.53 L520.44,710.55 L527.22,706.62 L527.90,705.53 Z M549.73,693.88 L545.39,677.56 L546.05,683.28 L549.73,693.88 Z M564.79,698.29 L553.96,697.93 L557.45,698.76 L564.79,698.29 Z M520.06,769.26 L515.92,765.45 L515.07,765.80 L520.06,769.26 Z M557.54,764.86 L558.39,762.71 L558.35,762.00 L557.54,764.86 Z M558.15,758.69 L557.89,754.43 L557.45,758.07 L558.15,758.69 Z M558.30,751.03 L559.43,749.61 L559.52,741.04 L558.30,751.03 Z M557.85,736.09 L551.51,740.80 L557.73,737.35 L559.52,741.04 L557.85,736.09 Z M559.05,735.20 L559.05,731.87 L557.45,729.01 L559.05,735.20 Z M581.94,742.68 L582.50,743.78 L586.92,746.76 L581.94,742.68 Z M546.52,619.69 L560.84,621.59 L554.06,619.81 L546.52,619.69 Z M549.88,607.71 L550.57,606.35 L548.69,601.11 L549.88,607.71 Z M550.20,609.44 L552.36,610.04 L549.97,608.20 L550.20,609.44 Z M550.76,592.53 L549.91,589.54 L549.91,589.68 L550.38,594.12 L550.76,592.53 Z M499.91,181.08 L497.08,184.77 L500.65,181.34 L499.91,181.08 Z M498.78,150.11 L485.40,152.14 L489.64,152.61 L498.78,150.11 Z M624.78,365.90 L620.12,360.67 L620.17,361.50 L624.78,365.90 Z M611.60,449.98 L609.62,439.38 L610.47,445.22 L611.60,449.98 Z M617.37,463.77 L617.54,461.57 L617.16,462.61 L617.37,463.77 Z M619.89,470.70 L617.85,466.48 L618.38,469.39 L619.89,470.70 Z M622.42,469.79 L621.30,469.16 L619.89,470.70 L622.42,469.79 Z M648.89,453.67 L648.27,453.72 L649.33,453.98 L648.89,453.67 Z M665.75,459.51 L662.74,457.48 L666.35,460.74 L665.75,459.51 Z M676.11,457.96 L669.50,467.02 L669.50,467.02 L676.11,457.96 Z M708.69,450.93 L686.28,441.41 L720.65,456.41 L708.69,450.93 Z M725.93,466.06 L723.67,460.10 L720.65,456.41 L725.93,466.06 Z M742.13,489.40 L734.12,486.07 L728.94,486.07 L739.96,488.57 L742.13,489.40 Z M705.96,531.92 L707.66,529.53 L706.72,530.73 L705.96,531.92 Z M707.66,585.39 L705.68,581.82 L701.91,578.96 L707.66,585.39 Z M705.68,594.56 L705.96,596.70 L707.66,585.39 L705.68,594.56 Z M709.82,600.87 L711.00,601.01 L705.96,596.70 L709.82,600.87 Z M721.03,630.21 L721.06,630.19 L719.11,626.04 L719.34,627.31 L721.03,630.21 Z M754.57,743.34 L754.65,740.21 L753.33,738.26 L754.49,743.36 L754.57,743.34 Z M718.73,752.07 L732.62,745.80 L718.96,751.52 L718.73,752.07 Z M718.39,759.86 L717.94,753.94 L717.36,755.33 L718.39,759.86 Z M713.20,778.40 L712.27,775.58 L712.18,777.72 L713.20,778.40 Z M713.87,780.46 L713.74,780.04 L713.31,782.13 L713.87,780.46 Z M752.77,839.65 L742.45,819.02 L744.67,824.76 L752.77,839.65 Z M752.22,848.53 L752.77,846.67 L752.77,839.65 L752.22,848.53 Z M750.79,853.34 L751.08,852.37 L746.18,855.37 L750.79,853.34 Z M529.67,355.07 L527.82,345.10 L527.59,347.09 L529.67,355.07 Z M530.70,331.61 L526.56,336.25 L526.83,337.26 L530.70,331.61 Z M584.92,326.12 L588.24,319.46 L585.98,323.27 L584.92,326.12 Z M608.21,381.15 L604.54,379.48 L599.64,379.36 L608.21,381.15 Z M588.43,453.20 L584.48,453.67 L593.23,455.34 L588.43,453.20 Z M487.38,440.45 L489.17,448.08 L492.47,454.03 L487.38,440.45 Z M529.85,382.81 L527.41,389.84 L530.10,382.28 L529.85,382.81 Z M498.21,404.37 L500.30,403.74 L496.99,403.57 L498.21,404.37 Z M539.08,364.95 L539.27,362.21 L535.61,370.22 L539.08,364.95 Z M513.15,249.74 L510.54,250.06 L512.62,250.86 L513.15,249.74 Z M516.83,239.34 L514.69,246.53 L515.63,244.55 L516.83,239.34 Z M572.23,226.21 L571.10,234.90 L570.73,238.48 L572.23,226.21 Z M589.95,300.28 L591.45,297.90 L593.14,289.45 L589.95,300.28 Z M591.07,279.56 L591.10,279.53 L589.18,278.97 L591.07,279.56 Z M510.41,300.60 L508.38,297.55 L509.23,300.40 L510.41,300.60 Z M569.03,261.70 L567.90,258.60 L568.47,267.42 L569.03,261.70 Z M510.74,182.27 L514.54,178.95 L513.94,178.34 L510.74,182.27 Z M518.36,182.86 L526.17,184.72 L525.24,183.58 L518.36,182.86 Z M532.40,200.25 L530.69,200.97 L537.58,200.49 L532.40,200.25 Z M534.37,194.41 L535.46,190.30 L534.75,191.20 L534.37,194.41 Z M522.98,215.73 L524.30,203.70 L521.28,222.15 L522.98,215.73 Z M638.53,875.49 L638.72,873.94 L637.97,874.07 L638.53,875.49 Z M636.84,832.14 L637.59,831.84 L631.00,832.74 L636.84,832.14 Z M642.94,829.67 L644.18,829.17 L646.63,825.59 L642.94,829.67 Z M665.66,829.40 L660.01,822.50 L666.32,830.36 L670.36,830.36 L665.66,829.40 Z M694.94,822.26 L703.51,827.02 L709.64,828.33 L694.94,822.26 Z M664.01,601.90 L664.01,601.90 L652.66,598.96 L664.01,601.90 Z M669.75,778.07 L667.35,779.39 L665.37,782.72 L669.75,778.07 Z M617.38,819.37 L616.97,820.12 L609.24,818.45 L619.59,820.96 L617.38,819.37 Z M625.91,809.52 L626.29,813.09 L626.01,806.06 L625.91,809.52 Z M648.04,802.13 L650.82,804.15 L650.78,803.80 L648.04,802.13 Z M650.94,805.21 L650.40,807.25 L652.47,818.57 L650.94,805.21 Z M622.73,824.34 L622.71,823.21 L621.67,822.46 L622.73,824.34 Z M621.96,827.50 L622.81,828.69 L622.77,826.34 L621.96,827.50 Z M691.92,741.57 L687.98,740.21 L684.21,739.13 L690.52,742.23 L691.92,741.57 Z M686.28,715.67 L685.86,710.49 L685.34,711.98 L686.28,715.67 Z M701.63,689.59 L704.17,691.74 L701.33,688.34 L701.63,689.59 Z M645.51,539.82 L638.91,528.58 L645.51,539.82 L645.51,539.82 Z M698.66,555.19 L698.52,554.66 L701.91,554.19 L694.66,553.38 L698.66,555.19 Z M702.48,552.04 L702.76,535.97 L701.91,554.19 L702.48,552.04 Z M700.88,535.73 L697.02,536.56 L702.76,535.97 L700.88,535.73 Z M701.63,531.08 L701.37,532.69 L703.04,530.98 L701.63,531.08 Z M633.92,570.62 L636.84,569.43 L637.97,567.29 L633.92,570.62 Z M670.84,551.21 L675.36,581.22 L672.72,561.69 L670.84,551.21 Z M679.87,557.49 L688.35,567.76 L680.35,556.45 L679.87,557.49 Z M648.70,487.73 L653.70,485.23 L647.20,487.97 L651.15,488.21 L648.70,487.73 Z M651.62,495.83 L652.19,502.62 L653.79,512.39 L651.62,495.83 Z M675.92,478.92 L669.86,467.93 L671.31,471.54 L675.92,478.92 Z M682.44,488.64 L682.70,486.42 L680.35,479.87 L682.44,488.64 Z M755.78,377.46 L759.17,382.81 L755.78,377.46 L755.78,377.46 Z M760.30,397.70 L757.29,422.83 L759.36,408.06 L760.30,397.70 Z M628.36,326.72 L622.59,320.16 L623.18,321.13 L628.36,326.72 Z M657.51,357.78 L658.31,343.40 L656.99,356.85 L657.51,357.78 Z M647.76,390.20 L657.27,390.32 L650.68,389.48 L647.76,390.20 Z M690.03,410.28 L685.34,411.16 L689.48,411.28 L690.03,410.28 Z M690.80,402.23 L690.46,409.49 L691.37,407.82 L690.80,402.23 Z M709.63,334.68 L710.95,335.89 L713.31,335.77 L709.63,334.68 Z M638.16,304.10 L639.29,308.03 L639.47,308.06 L638.16,304.10 Z M674.84,312.21 L679.12,315.89 L676.77,312.79 L674.84,312.21 Z M685.81,316.84 L705.30,319.10 L679.12,315.89 L685.81,316.84 Z M707.38,325.17 L706.53,331.84 L707.30,332.55 L707.38,325.17 Z M769.16,760.33 L776.53,764.31 L774.81,762.71 L769.16,760.33 Z M781.90,769.25 L782.77,770.67 L782.81,770.10 L781.90,769.25 Z M871.71,774.24 L871.71,782.01 L872.73,786.05 L872.00,777.96 L871.71,774.24 Z M896.20,776.89 L897.06,778.30 L896.20,776.23 L896.20,776.89 Z M900.23,783.53 L900.53,784.03 L907.41,788.32 L900.23,783.53 Z M914.08,788.99 L915.34,789.45 L906.46,777.01 L914.08,788.99 Z M760.33,841.11 L757.24,841.17 L759.08,841.79 L760.33,841.11 Z M773.86,856.80 L770.29,853.34 L775.69,860.90 L773.86,856.80 Z M804.66,862.63 L803.67,864.25 L808.52,860.61 L804.66,862.63 Z M795.05,900.70 L783.66,914.44 L794.68,902.53 L795.05,900.70 Z M817.39,900.45 L818.32,900.14 L819.73,898.48 L817.39,900.45 Z M816.62,822.38 L812.38,827.86 L818.60,821.19 L816.62,822.38 Z M821.33,825.36 L829.77,825.36 L829.43,824.76 L821.33,825.36 Z M737.79,436.88 L740.62,439.14 L735.63,432.12 L737.79,436.88 Z M759.64,630.52 L761.90,633.62 L759.11,628.41 L759.64,630.52 Z M767.55,635.76 L768.57,635.25 L761.90,633.62 L767.55,635.76 Z M800.33,645.89 L800.40,651.66 L807.58,646.72 L801.27,650.17 L800.33,645.89 Z M834.61,639.34 L840.26,634.33 L829.90,641.60 L834.61,639.34 Z M850.90,729.13 L851.09,742.23 L851.38,744.49 L850.90,729.13 Z M848.73,725.68 L844.87,721.15 L850.90,729.13 L848.73,725.68 Z M852.41,727.11 L853.37,726.75 L848.73,725.68 L852.41,727.11 Z M854.76,722.91 L854.44,726.36 L855.33,726.03 L854.76,722.91 Z M893.00,732.23 L885.56,723.65 L890.17,730.08 L893.00,732.23 Z M898.27,738.30 L896.98,736.81 L902.70,748.90 L898.27,738.30 Z M918.92,758.90 L919.55,759.62 L921.44,759.62 L918.92,758.90 Z M850.71,765.12 L850.43,766.53 L851.75,775.58 L850.71,765.12 Z M888.76,737.23 L873.03,745.09 L872.79,745.46 L888.76,737.23 Z M806.17,710.91 L810.40,712.58 L810.90,711.71 L806.17,710.91 Z M812.14,709.50 L813.23,707.58 L812.65,705.78 L812.14,709.50 Z M732.90,646.72 L736.74,650.39 L735.25,647.67 L732.90,646.72 Z M738.03,652.74 L736.29,659.34 L738.45,653.51 L738.03,652.74 Z M739.77,666.01 L741.28,667.32 L736.29,659.34 L739.77,666.01 Z M744.48,665.30 L748.06,673.75 L746.46,667.56 L744.48,665.30 Z M759.17,674.47 L768.55,680.07 L768.59,679.71 L759.17,674.47 Z M790.53,720.20 L790.65,719.45 L789.09,720.15 L790.53,720.20 Z M790.91,717.70 L786.30,715.55 L790.72,718.96 L790.91,717.70 Z M804.85,662.08 L805.74,662.62 L804.34,659.93 L804.85,662.08 Z M800.42,653.03 L801.22,653.92 L800.41,652.37 L800.42,653.03 Z M746.21,528.23 L751.36,537.87 L748.25,530.01 L746.21,528.23 Z M821.67,625.41 L819.54,627.90 L813.51,641.96 L821.67,625.41 Z M826.04,623.26 L824.63,621.95 L823.87,622.83 L826.04,623.26 Z M782.96,552.15 L782.92,552.04 L780.27,551.57 L782.96,552.15 Z M794.46,554.11 L795.81,547.52 L794.39,554.07 L794.46,554.11 Z M769.44,406.16 L767.27,403.77 L766.54,404.46 L769.44,406.16 Z" /></g></svg>