<svg xmlns="http://www.w3.org/2000/svg" viewBox="0 0 1000 1000" width="1000" height="1000"><g fill="#cccccc" stroke="#222" stroke-width="2"><path d="M207.16,648.60 L204.85,630.04 L205.36,609.34 L209.48,584.83 L206.65,577.93 L195.83,565.79 L178.59,559.61 L126.84,551.99 L103.93,545.09 L94.40,538.19 L80.24,518.92 L72.78,501.07 L60.42,461.57 L59.65,448.48 L63.25,429.21 L79.47,408.75 L112.94,393.04 L123.49,378.77 L124.27,359.02 L121.69,349.02 L111.14,335.94 L94.66,326.18 L68.92,312.62 L55.01,306.19 L26.18,295.96 L19.23,288.35 L19.75,271.22 L29.79,262.17 L64.54,239.09 L72.52,228.62 L72.26,223.86 L62.74,215.06 L53.99,211.25 L69.69,186.03 L69.43,180.32 L68.66,185.32 L62.22,182.94 L57.85,174.37 L39.83,162.00 L66.34,102.27 L69.69,102.27 L71.23,95.61 L90.28,96.80 L93.63,94.18 L108.31,101.80 L113.71,99.42 L129.42,109.17 L129.93,113.22 L155.67,108.94 L156.19,113.46 L172.67,112.27 L174.47,117.26 L176.78,113.70 L176.27,117.26 L182.71,117.26 L186.57,122.98 L196.61,123.45 L196.97,124.53 L198.41,101.80 L189.66,93.71 L194.03,83.48 L190.94,80.38 L199.44,72.05 L196.61,73.24 L189.66,64.20 L196.86,58.97 L203.04,57.78 L208.71,63.49 L216.94,60.87 L218.23,65.39 L213.86,47.78 L230.59,37.79 L249.90,43.98 L262.25,40.41 L267.15,33.98 L280.02,40.65 L272.55,35.89 L274.10,33.03 L287.74,38.03 L291.09,35.65 L298.55,32.56 L302.67,39.69 L317.09,39.22 L319.92,30.89 L330.73,31.84 L335.11,42.55 L339.49,42.31 L343.61,49.45 L351.59,45.64 L361.37,52.78 L369.61,46.36 L384.28,39.93 L396.12,27.80 L398.70,32.08 L402.05,31.58 L398.70,29.70 L417.49,28.03 L414.14,23.75 L419.55,19.71 L425.99,23.75 L430.11,21.37 L428.30,25.89 L437.57,35.41 L461.00,34.46 L486.23,47.07 L487.51,43.74 L494.21,45.40 L500.39,40.41 L503.99,25.66 L508.62,23.28 L514.02,26.12 L519.18,19.23 L550.84,42.79 L569.12,37.08 L585.86,46.36 L584.57,75.86 L596.93,72.29 L615.98,75.15 L618.55,82.52 L622.41,80.86 L629.36,85.38 L628.59,88.47 L631.68,86.57 L643.01,97.51 L629.88,110.84 L635.80,131.07 L652.28,130.83 L662.57,135.59 L670.55,135.59 L673.90,131.07 L675.70,140.58 L682.91,139.16 L697.07,152.24 L693.47,160.81 L675.96,168.90 L675.70,174.61 L681.11,175.09 L680.08,194.60 L674.67,195.55 L670.30,206.73 L672.10,212.92 L679.56,219.34 L684.71,218.15 L688.06,233.14 L655.88,246.71 L658.45,249.56 L652.53,257.89 L639.66,264.08 L645.32,288.82 L657.68,293.34 L665.41,301.20 L665.92,314.76 L656.65,326.66 L656.91,332.84 L652.28,370.68 L639.15,391.14 L629.11,390.66 L613.14,397.80 L621.64,409.70 L606.45,399.47 L619.58,409.94 L619.32,423.50 L609.03,433.26 L611.60,443.25 L624.21,443.96 L643.01,459.91 L648.16,477.99 L643.01,487.75 L624.73,495.36 L646.61,512.49 L649.44,517.96 L652.53,516.78 L654.34,529.39 L673.90,551.28 L693.21,560.56 L701.96,552.94 L714.06,548.42 L730.54,567.46 L740.84,566.98 L742.64,571.74 L736.97,578.40 L755.51,600.06 L747.53,601.48 L762.46,600.53 L769.67,591.97 L784.86,593.87 L801.59,620.04 L812.15,626.47 L843.30,631.94 L851.79,662.40 L850.50,673.82 L833.51,675.01 L835.06,680.24 L852.31,691.90 L864.66,708.56 L866.72,722.60 L875.22,738.78 L890.15,743.54 L917.18,761.86 L927.99,781.13 L948.33,782.80 L952.19,779.23 L964.29,786.37 L980.77,785.65 L980.51,791.36 L961.98,801.83 L930.57,811.59 L905.34,825.87 L891.69,842.05 L883.71,849.19 L845.87,858.47 L865.69,881.31 L866.21,888.21 L855.40,890.11 L811.63,884.40 L775.33,864.65 L747.01,851.09 L732.34,851.33 L726.42,862.03 L723.07,878.69 L714.83,881.55 L706.08,880.12 L665.15,848.71 L655.62,846.33 L650.99,846.33 L636.06,850.61 L623.70,864.41 L604.91,877.26 L578.13,881.07 L571.95,888.45 L573.76,895.58 L581.99,898.20 L596.15,902.49 L617.01,916.05 L615.98,922.00 L552.65,944.60 L536.43,950.07 L513.77,962.45 L501.42,974.11 L485.20,980.77 L469.75,980.06 L446.07,972.68 L405.39,939.60 L380.68,912.00 L371.41,892.25 L372.18,868.70 L374.50,862.27 L383.77,836.57 L383.51,806.83 L360.34,769.71 L344.89,754.96 L299.58,741.40 L289.29,740.92 L253.24,742.43 L257.88,744.01 L234.45,752.82 L222.09,751.39 L214.63,745.68 L201.50,726.41 L190.17,694.52 L191.20,685.48 L199.70,678.82 L199.95,674.53 L211.02,667.87 L207.16,648.60 Z M620.07,137.30 L625.24,157.00 L621.38,137.01 L635.80,131.07 L620.07,137.30 Z M813.95,738.06 L862.86,739.25 L869.78,745.96 L867.24,740.68 L875.22,738.78 L813.95,738.06 Z M796.96,724.98 L796.36,724.75 L813.95,738.06 L796.96,724.98 Z M472.33,920.33 L479.53,928.66 L472.33,918.19 L469.75,980.06 L472.33,920.33 Z M488.54,931.99 L502.70,934.37 L479.53,928.66 L488.54,931.99 Z M508.11,929.61 L533.85,934.13 L498.07,926.28 L506.31,930.09 L502.70,934.37 L508.11,929.61 Z M363.17,65.39 L380.93,72.77 L362.91,63.59 L363.17,65.39 Z M362.40,108.70 L362.62,115.16 L363.69,114.17 L369.35,89.66 L362.40,108.70 Z M367.03,144.63 L371.15,146.06 L382.22,149.86 L367.03,144.63 Z M387.09,184.59 L382.48,180.56 L371.15,177.23 L387.09,184.59 Z M366.52,223.39 L375.53,223.39 L375.76,220.94 L371.92,223.15 L366.52,223.39 Z M384.85,218.67 L380.68,214.58 L380.11,216.67 L384.85,218.67 Z M393.29,231.24 L397.67,220.29 L394.06,227.67 L391.99,225.65 L393.29,231.24 Z M376.81,279.07 L377.29,280.69 L404.88,254.08 L376.81,279.07 Z M378.62,285.25 L379.15,285.46 L378.55,285.02 L378.62,285.25 Z M416.53,341.24 L417.23,340.22 L416.71,339.95 L416.53,341.24 Z M411.57,344.50 L411.05,339.27 L410.02,350.69 L414.73,343.85 L411.57,344.50 Z M436.03,363.54 L453.53,354.73 L419.04,369.72 L436.03,363.54 Z M380.42,470.14 L386.86,482.27 L374.76,459.19 L380.42,470.14 Z M392.26,490.60 L407.19,478.70 L387.11,493.22 L392.26,490.60 Z M425.21,561.27 L422.38,552.23 L423.67,556.75 L425.21,561.27 Z M377.33,574.12 L360.34,597.44 L364.97,591.25 L373.73,579.12 L377.33,574.12 Z M474.64,595.30 L457.91,590.78 L458.04,590.54 L455.92,590.73 L474.64,595.30 Z M465.12,578.17 L460.74,581.97 L460.74,585.82 L465.12,578.17 Z M454.82,551.75 L452.50,551.63 L465.12,578.17 L454.82,551.75 Z M511.97,596.72 L505.53,591.97 L498.33,586.97 L511.97,596.72 Z M527.30,616.35 L527.36,616.62 L532.82,614.09 L534.37,608.62 L532.82,611.24 L527.30,616.35 Z M495.14,630.59 L496.27,631.46 L495.95,632.07 L505.79,629.80 L495.14,630.59 Z M493.18,637.41 L494.03,639.30 L493.76,636.29 L493.18,637.41 Z M493.95,646.46 L496.27,664.30 L494.66,646.35 L493.95,646.46 Z M502.19,699.28 L500.90,686.67 L514.55,688.57 L498.84,683.58 L502.19,699.28 Z M477.47,697.61 L489.83,699.28 L502.19,699.28 L477.47,697.61 Z M487.23,722.51 L489.07,722.17 L489.83,699.28 L487.23,722.51 Z M485.97,733.78 L489.32,748.77 L486.97,724.88 L485.97,733.78 Z M492.21,762.47 L499.87,780.18 L493.95,762.34 L492.21,762.47 Z M465.40,764.49 L465.99,765.20 L465.63,764.48 L465.40,764.49 Z M466.92,772.80 L472.58,781.13 L477.73,789.22 L469.64,772.68 L466.92,772.80 Z M457.06,828.76 L458.17,834.19 L458.17,829.20 L483.17,830.05 L477.99,828.25 L457.06,828.76 Z M517.29,867.28 L521.75,868.93 L517.89,865.13 L517.29,867.28 Z M475.16,901.30 L481.85,902.01 L475.29,899.61 L475.16,901.30 Z M532.01,900.27 L537.71,898.20 L520.87,899.84 L532.01,900.27 Z M529.48,912.24 L542.09,907.96 L540.03,910.10 L545.18,905.10 L529.48,912.24 Z M430.88,640.51 L401.01,624.33 L432.94,642.41 L430.88,640.51 Z M281.30,598.39 L311.94,603.86 L309.88,614.09 L312.66,602.65 L281.30,598.39 Z M326.43,590.56 L326.87,604.58 L328.15,591.32 L326.43,590.56 Z M346.95,590.06 L346.51,591.69 L348.75,593.39 L346.95,590.06 Z M410.80,699.52 L424.44,688.10 L426.24,681.20 L419.29,692.14 L410.80,699.52 Z M419.72,737.09 L418.78,735.45 L417.25,734.31 L419.72,737.09 Z M435.00,778.99 L431.13,777.80 L430.06,779.46 L435.00,778.99 Z M276.96,656.21 L274.87,655.02 L286.15,645.71 L285.94,645.74 L270.69,658.01 L276.96,656.21 Z M257.43,628.04 L272.04,630.28 L257.88,625.99 L257.43,628.04 Z M318.63,731.88 L300.87,730.69 L324.81,732.83 L318.63,731.88 Z M352.36,670.01 L386.34,675.48 L361.37,670.73 L352.36,670.01 Z M297.52,650.26 L312.45,644.08 L297.55,644.45 L307.05,645.98 L297.52,650.26 Z M354.68,638.60 L348.99,636.55 L348.99,636.55 L354.68,638.60 Z M230.75,76.92 L226.21,67.06 L230.07,77.29 L230.75,76.92 Z M248.78,88.52 L240.11,86.57 L247.32,90.14 L248.78,88.52 Z M262.77,91.33 L261.55,90.51 L258.39,91.80 L262.77,91.33 Z M280.02,148.20 L247.07,117.98 L234.97,111.32 L280.02,148.20 Z M287.48,169.37 L284.65,159.86 L280.02,148.20 L287.48,169.37 Z M240.63,211.73 L237.28,202.21 L225.18,187.93 L240.63,211.73 Z M247.32,223.63 L244.29,216.93 L243.98,219.82 L247.32,223.63 Z M253.24,236.71 L241.92,236.48 L221.84,240.76 L253.24,236.71 Z M276.67,276.21 L284.65,267.88 L270.23,282.40 L276.67,276.21 Z M280.53,279.78 L285.13,279.34 L276.67,276.21 L280.53,279.78 Z M289.54,280.97 L288.31,280.52 L289.54,286.21 L289.54,280.97 Z M294.43,289.30 L295.72,286.44 L274.35,297.87 L294.43,289.30 Z M320.44,346.41 L301.13,330.94 L311.94,339.74 L320.44,346.41 Z M307.32,352.16 L311.17,347.36 L307.32,352.16 L307.32,352.16 Z M356.99,366.39 L332.54,381.86 L332.31,382.07 L356.99,366.39 Z M341.72,397.68 L331.59,382.70 L330.81,383.41 L341.72,397.68 Z M324.81,390.43 L326.44,387.33 L305.76,405.89 L324.81,390.43 Z M281.82,422.31 L286.71,406.84 L281.82,418.27 L281.82,422.31 Z M286.71,445.63 L281.32,440.65 L281.56,441.82 L286.71,445.63 Z M226.73,460.39 L226.73,460.38 L194.80,428.26 L226.73,460.39 Z M231.88,482.99 L227.45,463.56 L226.47,463.71 L231.88,482.99 Z M229.82,509.40 L224.41,503.45 L224.77,503.21 L221.75,501.36 L229.82,509.40 Z M230.62,525.21 L227.24,524.87 L225.96,516.78 L227.21,525.51 L230.62,525.21 Z M228.53,569.36 L228.57,569.27 L218.23,568.89 L228.53,569.36 Z M142.80,285.49 L149.24,302.39 L149.50,307.62 L152.15,307.43 L142.80,285.49 Z M159.02,323.56 L155.67,325.23 L172.41,316.90 L159.02,323.56 Z M177.30,322.85 L196.35,314.76 L204.33,307.38 L177.30,322.85 Z M181.93,349.26 L192.75,328.80 L196.35,314.76 L181.93,349.26 Z M192.49,295.96 L197.38,285.97 L195.44,284.85 L192.49,295.96 Z M102.90,442.06 L118.86,449.91 L112.94,443.49 L116.03,448.25 L102.90,442.06 Z M124.78,442.54 L115.00,436.83 L115.69,438.73 L124.78,442.54 Z M139.20,485.37 L138.94,507.50 L139.20,512.97 L139.20,485.37 Z M115.77,452.05 L135.08,480.37 L139.20,485.37 L115.77,452.05 Z M152.07,521.06 L147.18,517.96 L139.20,512.97 L152.07,521.06 Z M195.83,523.44 L189.14,512.25 L197.64,528.91 L195.83,523.44 Z M169.06,390.90 L172.92,373.29 L175.75,360.92 L171.38,378.53 L169.06,390.90 Z M181.93,392.09 L192.75,392.81 L169.06,390.90 L181.93,392.09 Z M265.86,390.43 L268.69,413.98 L268.18,389.47 L256.59,378.77 L265.86,390.43 Z M306.53,350.21 L306.57,350.30 L305.76,341.17 L306.53,350.21 Z M71.92,140.35 L70.72,140.35 L74.58,143.68 L71.92,140.35 Z M157.99,154.86 L154.13,143.91 L157.24,155.64 L157.99,154.86 Z M202.12,139.65 L202.36,139.66 L203.04,136.30 L200.03,133.51 L202.12,139.65 Z M143.57,200.55 L108.05,211.25 L140.74,201.50 L143.57,200.55 Z M136.93,222.22 L139.13,220.78 L137.91,221.01 L136.93,222.22 Z M142.29,239.33 L133.27,226.73 L132.50,227.67 L142.29,239.33 Z M199.95,267.88 L165.60,262.70 L165.71,264.08 L199.95,267.88 Z M195.69,283.93 L196.61,284.06 L199.95,267.88 L195.69,283.93 Z M312.71,172.47 L341.29,191.50 L330.99,184.37 L312.71,172.47 Z M336.14,223.86 L352.46,239.86 L352.46,239.86 L336.14,223.86 Z M310.20,452.85 L306.28,443.25 L302.93,437.30 L310.20,452.85 Z M321.47,522.25 L329.19,526.06 L319.66,518.44 L314.26,545.09 L321.47,522.25 Z M320.18,566.51 L311.68,554.85 L318.43,567.45 L328.67,565.32 L320.18,566.51 Z M332.54,591.25 L326.36,588.16 L326.43,590.38 L332.54,591.25 Z M359.05,532.96 L339.74,530.58 L349.27,533.19 L359.05,532.96 Z M310.65,504.40 L311.17,516.06 L294.95,515.82 L311.57,517.58 L310.65,504.40 Z M291.34,460.38 L312.41,458.27 L312.40,458.26 L288.62,460.08 L293.15,494.41 L291.34,460.38 Z M324.30,334.03 L329.19,338.79 L332.02,341.41 L324.30,334.03 Z M356.04,345.41 L355.45,328.56 L353.39,335.70 L346.69,325.70 L356.04,345.41 Z M361.88,317.14 L362.52,323.25 L363.69,322.37 L361.88,317.14 Z M321.72,99.18 L289.54,99.18 L314.51,100.85 L321.72,99.18 Z M329.96,97.28 L337.17,97.28 L325.60,95.49 L327.55,97.83 L329.96,97.28 Z M296.61,139.99 L293.40,136.54 L293.28,138.68 L296.61,139.99 Z M326.10,113.46 L340.52,109.41 L331.51,110.60 L326.10,113.46 Z M353.95,115.71 L359.31,118.22 L361.46,116.23 L353.95,115.71 Z M445.19,897.20 L446.32,897.73 L461.00,897.01 L445.19,897.20 Z M438.86,829.20 L440.92,808.26 L439.12,823.25 L438.86,829.20 Z M454.05,829.67 L454.77,828.81 L438.86,829.20 L454.05,829.67 Z M415.17,865.37 L422.12,866.56 L422.01,865.74 L415.17,865.37 Z M462.03,833.96 L459.97,864.18 L456.06,863.37 L461.70,865.24 L462.03,833.96 Z M453.27,688.81 L459.45,692.14 L477.73,693.33 L453.27,688.81 Z M493.14,629.03 L494.21,620.76 L491.38,627.66 L493.14,629.03 Z M509.91,53.73 L505.28,37.79 L505.79,45.17 L509.91,53.73 Z M501.16,97.75 L522.78,68.25 L502.70,93.47 L501.16,97.75 Z M510.43,95.85 L507.59,99.66 L504.76,105.37 L510.43,95.85 Z M543.12,104.42 L537.97,112.98 L538.98,116.85 L543.12,104.42 Z M550.84,119.64 L539.77,119.85 L539.77,119.88 L550.84,119.64 Z M478.76,162.00 L482.78,155.65 L482.03,155.50 L478.76,162.00 Z M510.24,182.34 L508.11,178.18 L478.76,162.00 L510.24,182.34 Z M532.05,211.49 L526.44,204.64 L525.10,205.07 L523.37,203.39 L524.59,206.49 L532.05,211.49 Z M506.81,315.98 L502.96,309.76 L506.81,315.98 L506.81,315.98 Z M491.12,325.23 L502.18,318.71 L481.08,328.56 L491.12,325.23 Z M483.91,342.84 L483.02,338.34 L476.96,351.88 L483.91,342.84 Z M498.07,410.41 L495.75,404.94 L500.64,423.98 L498.07,410.41 Z M541.32,415.89 L528.70,415.65 L543.74,416.93 L541.32,415.89 Z M547.84,382.66 L549.81,385.43 L552.68,385.68 L547.84,382.66 Z M574.53,382.10 L556.83,386.03 L560.88,386.38 L574.53,382.10 Z M577.25,498.41 L605.94,510.35 L584.83,498.22 L587.40,501.78 L577.25,498.41 Z M604.91,526.77 L613.14,531.53 L604.13,525.58 L608.77,519.15 L600.79,529.86 L604.91,526.77 Z M613.40,565.55 L610.06,556.04 L611.72,566.84 L613.40,565.55 Z M605.94,571.26 L607.72,569.90 L581.22,573.17 L605.94,571.26 Z M612.63,576.74 L613.30,576.74 L605.94,571.26 L612.63,576.74 Z M614.95,601.72 L614.94,601.80 L615.15,601.51 L585.34,604.82 L614.95,601.72 Z M617.01,627.42 L614.24,613.27 L613.66,622.66 L617.01,627.42 Z M616.89,627.49 L625.76,625.75 L635.03,618.38 L617.01,627.42 L616.89,627.49 Z M583.80,645.74 L607.48,635.03 L610.16,631.39 L597.70,638.60 L583.80,645.74 Z M637.34,657.16 L587.14,674.77 L591.78,673.58 L637.34,657.16 Z M540.29,684.29 L526.90,687.38 L587.14,674.77 L540.29,684.29 Z M623.96,708.80 L592.29,698.33 L584.83,696.42 L623.96,708.80 Z M647.13,737.35 L647.25,737.86 L644.81,713.08 L645.07,724.98 L647.13,737.35 Z M580.96,760.67 L576.33,741.16 L579.42,756.62 L580.96,760.67 Z M560.88,764.00 L566.03,762.10 L579.42,756.62 L560.88,764.00 Z M652.28,738.30 L651.82,736.48 L647.55,739.15 L647.57,739.22 L652.28,738.30 Z M592.03,807.54 L604.81,796.83 L601.30,798.74 L592.03,807.54 Z M592.29,824.20 L590.69,822.11 L590.18,827.65 L592.29,824.20 Z M585.60,835.15 L587.75,831.62 L580.71,837.05 L585.60,835.15 Z M498.58,455.62 L488.80,454.91 L458.17,450.39 L481.85,454.43 L498.58,455.62 Z M435.25,455.62 L481.59,456.10 L480.31,466.57 L481.85,454.43 L435.25,455.62 Z M481.08,506.54 L474.64,502.02 L475.81,504.19 L481.08,506.54 Z M473.61,514.16 L475.02,515.46 L474.50,511.87 L467.95,516.30 L468.47,517.18 L473.61,514.16 Z M476.36,516.69 L477.22,517.49 L482.11,507.50 L476.36,516.69 Z M524.07,525.34 L513.96,514.73 L511.36,517.39 L514.29,517.25 L524.07,525.34 Z M503.17,545.95 L500.90,551.28 L504.76,571.03 L503.17,545.95 Z M453.27,202.45 L453.53,211.49 L455.59,206.26 L459.95,215.04 L462.03,214.58 L453.27,202.45 Z M440.98,198.66 L440.88,198.70 L453.27,202.45 L440.98,198.66 Z M467.69,384.72 L452.24,406.84 L452.27,406.98 L467.69,384.72 Z M453.27,428.97 L454.82,444.20 L457.14,444.20 L454.58,428.79 L453.27,428.97 Z M456.62,524.15 L461.86,521.07 L455.74,522.80 L456.62,524.15 Z M420.58,457.53 L421.13,471.70 L422.90,471.09 L420.58,457.53 Z M457.39,295.49 L474.90,285.97 L450.68,297.06 L457.39,295.49 Z M481.95,281.43 L426.50,263.36 L481.58,281.71 L481.95,281.43 Z M420.39,146.18 L421.09,142.25 L419.55,134.87 L418.52,140.35 L420.39,146.18 Z M450.19,100.61 L464.86,101.08 L457.39,100.37 L450.19,100.61 Z M448.38,69.20 L448.64,89.42 L450.19,100.61 L448.38,69.20 Z M506.54,197.13 L508.83,196.56 L506.82,196.50 L506.54,197.13 Z M445.55,177.70 L440.40,173.18 L448.13,181.99 L445.55,177.70 Z M420.62,146.92 L421.87,150.81 L432.42,162.24 L420.62,146.92 Z M463.31,153.67 L472.33,158.43 L458.17,148.20 L463.31,153.67 Z M417.15,47.48 L413.10,44.64 L415.43,47.07 L417.15,47.48 Z M410.24,41.67 L413.11,37.79 L409.25,40.65 L410.24,41.67 Z M407.33,34.54 L410.02,38.74 L413.11,37.79 L407.33,34.54 Z M528.19,732.83 L537.20,741.87 L535.42,736.61 L533.85,737.11 L528.19,732.83 Z M547.50,889.16 L552.65,888.45 L546.66,887.23 L547.50,889.16 Z M530.51,890.11 L529.86,889.96 L532.05,896.77 L530.51,890.11 Z M527.65,787.28 L527.62,789.36 L528.45,787.32 L527.65,787.28 Z M528.10,619.64 L529.48,625.28 L537.71,637.41 L528.10,619.64 Z M554.43,486.51 L553.93,487.27 L554.93,487.27 L554.43,486.51 Z M560.88,501.31 L553.16,515.59 L562.23,501.62 L560.88,501.31 Z M584.95,426.40 L581.99,426.83 L557.80,451.10 L584.95,426.40 Z M603.20,244.86 L597.93,248.13 L600.27,247.66 L603.20,244.86 Z M592.03,249.32 L593.86,248.96 L585.34,239.81 L594.09,254.08 L592.03,249.32 Z M582.51,283.83 L561.14,298.10 L562.94,299.49 L582.51,283.83 Z M583.30,343.39 L574.27,342.12 L583.28,344.98 L586.89,356.88 L583.30,343.39 Z M541.58,199.83 L529.07,203.81 L535.40,204.11 L541.58,199.83 Z M542.76,375.52 L542.61,373.77 L529.48,356.88 L542.76,375.52 Z M553.16,188.17 L564.23,191.98 L564.75,197.45 L565.52,191.74 L553.16,188.17 Z M584.64,204.33 L583.02,202.45 L567.06,196.50 L584.64,204.33 Z M727.19,760.67 L727.44,760.60 L725.90,757.34 L727.19,760.67 Z M736.20,758.29 L742.38,765.90 L745.73,769.95 L736.20,758.29 Z M781.25,789.94 L777.91,784.94 L782.80,795.89 L786.14,803.98 L781.25,789.94 Z M799.79,785.18 L836.86,773.04 L844.58,770.19 L799.79,785.18 Z M878.57,754.48 L874.96,748.77 L873.85,749.91 L878.57,754.48 Z M873.42,807.31 L868.01,814.21 L877.54,803.26 L869.81,807.31 L873.42,807.31 Z M666.43,807.07 L671.07,808.73 L675.96,810.40 L666.43,807.07 Z M710.46,825.00 L698.61,822.77 L710.20,825.39 L710.46,825.00 Z M741.09,684.53 L726.48,661.31 L725.48,662.05 L741.09,684.53 Z M731.82,624.33 L730.54,613.14 L734.40,655.50 L731.82,624.33 Z M782.03,650.26 L784.55,650.11 L781.07,648.65 L782.03,650.26 Z M664.12,728.78 L657.36,733.01 L678.79,724.98 L664.12,728.78 Z M744.18,698.57 L712.00,714.75 L748.56,697.38 L744.18,698.57 Z M726.16,749.25 L733.37,756.62 L731.57,751.63 L726.16,749.25 Z M670.55,578.88 L686.00,579.12 L682.14,578.88 L670.55,578.88 Z M670.34,610.60 L671.58,609.57 L673.64,596.49 L670.34,610.60 Z" /></g></svg>