<svg xmlns="http://www.w3.org/2000/svg" viewBox="0 0 1000 1000" width="1000" height="1000"><g fill="#cccccc" stroke="#222" stroke-width="2"><path d="M105.67,932.53 L105.64,932.60 L100.17,933.11 L96.52,934.85 L93.35,931.89 L88.84,934.40 L80.11,934.98 L76.63,937.23 L71.87,937.23 L68.70,935.17 L65.69,936.72 L60.14,937.55 L50.78,929.90 L43.73,922.37 L37.62,920.25 L37.23,912.92 L42.70,910.54 L43.81,908.55 L42.30,898.32 L44.04,894.85 L43.01,890.60 L48.40,885.78 L47.29,881.21 L49.99,877.10 L45.00,877.16 L37.31,869.06 L32.95,867.84 L31.99,865.78 L29.54,865.97 L27.00,862.05 L21.45,862.56 L19.23,860.83 L24.07,845.78 L27.79,842.75 L28.98,839.80 L34.45,834.52 L34.37,830.86 L38.42,829.63 L41.67,826.10 L38.26,822.17 L46.03,815.23 L53.08,815.55 L55.06,811.24 L56.73,810.21 L56.57,807.32 L60.30,802.11 L61.48,798.19 L63.31,795.68 L66.72,795.23 L68.94,786.35 L77.34,779.41 L71.16,770.60 L73.14,766.48 L77.58,763.20 L78.69,760.63 L78.45,751.75 L75.52,746.54 L76.31,738.89 L75.04,736.96 L68.86,733.17 L68.70,730.34 L64.02,727.76 L63.70,721.85 L64.74,719.92 L70.44,716.77 L72.98,710.53 L77.66,707.95 L79.56,701.52 L77.82,697.15 L80.75,698.12 L83.05,697.66 L93.67,688.53 L98.19,685.83 L102.07,685.90 L102.79,685.12 L103.74,678.18 L105.88,676.31 L103.18,675.93 L107.70,671.81 L110.48,661.71 L111.75,661.91 L113.09,664.35 L117.30,665.44 L118.96,669.75 L124.59,670.52 L130.14,668.15 L132.04,670.07 L136.56,671.30 L141.55,668.98 L142.66,664.61 L141.71,662.61 L142.90,660.56 L142.43,657.41 L142.27,658.50 L142.03,655.09 L144.80,651.42 L147.26,651.49 L148.61,650.33 L152.81,638.63 L155.29,636.24 L154.79,636.25 L151.70,633.67 L151.38,631.36 L153.76,628.40 L155.27,618.88 L158.36,616.18 L158.28,611.81 L161.45,610.59 L161.21,608.01 L158.60,607.43 L155.98,604.41 L159.47,602.22 L162.32,602.10 L167.24,597.85 L168.75,593.29 L167.95,590.91 L170.73,589.11 L170.49,587.43 L172.55,585.63 L171.60,581.90 L175.80,579.52 L173.82,577.34 L175.64,575.47 L175.56,573.61 L173.98,571.93 L170.17,570.45 L170.89,569.17 L168.19,566.98 L169.38,562.35 L167.71,557.53 L163.75,554.70 L167.95,552.64 L167.79,550.13 L170.17,546.21 L177.23,546.02 L181.35,542.29 L185.23,540.61 L185.95,538.23 L187.38,539.84 L184.92,534.95 L188.33,533.54 L191.10,533.80 L197.52,530.45 L195.70,528.46 L196.97,526.79 L196.10,522.93 L193.24,519.26 L190.94,518.68 L191.34,512.64 L189.75,511.35 L188.72,507.69 L188.80,506.72 L193.56,506.78 L193.72,501.64 L190.94,499.65 L189.59,495.34 L194.99,490.13 L197.92,484.34 L197.36,478.23 L193.88,473.15 L194.83,467.30 L186.98,467.30 L178.34,464.66 L169.22,466.33 L167.16,462.73 L171.44,458.87 L180.87,454.31 L180.32,452.70 L183.65,448.45 L181.27,445.17 L178.18,443.24 L177.23,438.94 L174.29,437.71 L175.01,435.53 L174.06,434.30 L171.84,433.79 L170.49,431.86 L166.05,431.99 L162.64,426.39 L158.04,426.91 L154.87,425.37 L157.25,422.66 L156.46,421.44 L157.73,419.13 L162.64,416.81 L163.75,415.14 L165.65,415.27 L169.54,413.08 L168.03,407.55 L172.95,407.49 L179.29,404.59 L181.98,404.66 L182.86,399.64 L189.67,396.23 L199.35,391.54 L202.28,388.00 L203.07,385.04 L206.00,382.92 L213.69,381.18 L213.77,379.45 L219.40,375.78 L227.01,374.24 L221.86,374.82 L221.23,371.60 L222.81,369.03 L219.64,367.29 L220.59,365.23 L218.05,362.85 L217.58,357.19 L212.51,356.23 L208.07,357.39 L199.35,350.51 L193.40,351.08 L190.86,349.41 L185.31,348.51 L176.36,341.76 L173.74,337.77 L174.29,334.04 L162.17,332.11 L154.95,333.53 L149.64,328.32 L150.91,327.80 L150.04,324.46 L142.82,323.94 L137.11,319.12 L133.31,314.04 L136.32,306.64 L129.58,302.72 L127.36,298.41 L124.35,297.45 L124.75,295.71 L132.67,295.97 L132.83,292.11 L128.95,291.47 L126.89,289.15 L127.20,287.35 L124.98,282.66 L129.35,274.74 L142.90,272.17 L147.74,274.68 L150.67,273.84 L153.92,271.14 L162.24,268.19 L162.56,266.96 L165.65,265.36 L165.65,262.72 L169.46,262.85 L174.61,261.43 L182.46,256.03 L192.61,258.86 L200.46,264.39 L204.10,265.42 L205.77,264.65 L210.44,266.71 L211.63,268.64 L219.72,269.09 L221.15,262.53 L225.51,258.22 L224.08,255.52 L226.06,254.74 L233.04,257.19 L233.91,258.35 L238.75,257.19 L241.04,258.47 L246.04,255.07 L241.52,248.06 L241.44,245.16 L238.11,244.58 L232.80,238.67 L231.69,234.94 L228.04,231.78 L238.90,222.97 L244.53,221.75 L247.70,219.69 L247.70,217.44 L244.77,213.45 L244.45,210.95 L237.72,206.06 L235.81,202.33 L239.38,203.36 L247.70,200.85 L249.61,197.63 L248.58,193.39 L251.03,191.65 L243.11,188.18 L237.79,177.63 L235.18,175.96 L230.10,168.24 L228.20,168.95 L227.57,166.38 L226.14,165.09 L224.16,165.09 L219.64,161.04 L216.31,161.30 L216.87,158.79 L219.96,158.40 L222.42,156.09 L224.32,156.73 L225.03,155.77 L223.76,153.26 L225.11,152.23 L226.93,152.42 L228.84,155.32 L231.21,156.60 L238.67,151.52 L243.34,150.75 L245.09,151.65 L246.67,150.04 L244.45,146.18 L245.88,141.87 L250.24,142.26 L255.24,139.75 L254.36,138.79 L249.53,138.98 L248.02,133.26 L245.01,129.78 L246.04,128.18 L244.77,123.55 L246.12,116.92 L244.22,115.76 L243.82,113.45 L241.92,113.32 L242.87,108.75 L241.36,102.77 L244.22,98.98 L246.83,97.82 L245.56,94.16 L248.34,87.98 L254.05,87.98 L256.42,86.24 L257.30,82.45 L250.72,77.18 L249.69,73.77 L246.91,73.70 L245.64,75.31 L242.79,75.25 L240.73,73.19 L237.32,72.48 L236.76,70.62 L237.72,69.65 L235.34,66.82 L236.21,61.10 L233.67,60.84 L233.36,58.40 L234.54,57.56 L234.15,54.54 L236.53,51.52 L232.64,48.94 L232.17,46.82 L229.31,46.24 L225.90,42.06 L233.99,37.82 L236.45,34.92 L239.70,34.41 L242.79,26.76 L246.04,22.96 L254.68,19.23 L259.67,20.52 L263.08,26.43 L273.07,32.29 L274.18,35.50 L277.35,37.95 L278.46,40.52 L276.88,47.85 L280.76,54.92 L279.02,57.75 L279.73,60.07 L284.09,63.93 L284.25,65.60 L290.59,66.95 L292.57,69.46 L292.26,72.67 L297.89,77.24 L301.37,78.21 L303.36,83.54 L310.25,87.66 L313.98,91.71 L314.93,92.61 L321.19,89.85 L332.93,89.52 L333.48,91.52 L330.86,92.74 L332.61,97.37 L330.31,102.00 L331.50,103.61 L332.77,113.64 L330.31,115.57 L331.90,115.83 L332.45,118.72 L334.27,119.49 L334.35,124.57 L335.86,124.96 L336.49,126.76 L336.73,132.42 L338.32,134.80 L339.74,135.06 L337.76,137.63 L336.73,136.28 L335.62,136.79 L335.62,138.66 L339.43,140.46 L342.68,139.50 L346.01,139.88 L352.98,135.64 L365.27,140.01 L365.11,144.38 L366.62,145.54 L371.22,147.53 L377.95,146.96 L385.96,148.18 L395.16,151.26 L399.83,150.36 L402.77,148.56 L411.25,153.32 L417.43,154.22 L420.53,153.71 L425.92,154.80 L428.69,152.81 L430.83,152.49 L433.45,153.26 L437.09,152.23 L445.58,152.62 L453.35,161.04 L460.72,163.61 L467.46,155.57 L474.83,154.80 L478.95,151.39 L489.26,152.94 L491.72,154.54 L492.27,157.31 L494.25,158.72 L493.94,162.20 L496.79,165.03 L505.91,167.79 L507.33,175.12 L516.29,176.73 L519.62,178.92 L532.15,180.59 L536.98,185.80 L546.42,187.28 L546.89,191.65 L550.06,195.96 L547.29,201.24 L547.37,204.13 L545.31,205.61 L545.78,208.76 L548.56,209.40 L548.24,211.01 L543.80,213.65 L541.42,216.67 L537.70,223.87 L537.70,226.38 L534.84,228.63 L534.21,231.21 L531.20,232.75 L527.40,232.88 L529.77,236.54 L527.07,240.02 L527.63,243.30 L518.35,245.74 L511.06,250.18 L509.47,252.62 L509.87,256.61 L514.55,260.15 L513.99,262.91 L514.55,266.19 L519.07,274.42 L524.69,278.93 L524.54,280.08 L533.02,282.85 L538.81,288.70 L549.27,286.45 L553.47,289.47 L560.37,286.51 L565.76,289.09 L584.31,292.82 L596.84,307.93 L601.35,308.96 L605.87,307.87 L612.45,309.41 L615.70,311.79 L615.23,316.23 L616.81,318.99 L621.89,318.09 L631.64,318.99 L640.28,313.98 L645.91,313.40 L652.33,314.43 L655.98,312.37 L664.93,311.92 L675.24,304.59 L672.94,301.11 L669.85,289.79 L665.57,286.58 L667.31,281.76 L664.93,273.46 L667.79,269.86 L665.41,266.64 L666.92,263.55 L662.71,259.31 L662.63,258.35 L664.54,257.70 L664.85,255.39 L671.04,252.62 L672.86,249.66 L675.24,248.44 L677.86,249.41 L682.14,247.99 L692.13,251.66 L698.71,256.42 L700.77,261.75 L704.73,259.37 L711.87,263.68 L714.40,266.96 L717.73,266.83 L721.30,268.64 L723.36,267.99 L724.71,268.76 L729.23,266.96 L735.89,267.16 L741.36,268.64 L745.08,270.95 L743.89,273.97 L746.27,273.59 L748.25,275.26 L745.72,278.02 L748.41,284.01 L752.14,285.23 L755.55,289.22 L756.42,294.87 L760.06,299.25 L763.32,298.80 L764.82,300.08 L764.50,301.37 L767.75,302.98 L769.97,302.08 L772.04,304.84 L771.80,310.25 L785.04,316.48 L787.65,319.70 L794.39,322.59 L797.40,327.93 L795.34,329.54 L797.56,329.86 L798.28,332.56 L799.07,334.23 L800.65,333.21 L801.68,333.91 L799.39,335.71 L801.53,337.45 L799.47,340.47 L801.21,341.57 L801.61,347.55 L802.08,344.78 L811.67,346.65 L814.45,352.31 L823.80,353.98 L824.83,355.20 L823.80,361.05 L824.99,364.85 L828.64,366.07 L834.51,363.43 L836.88,365.68 L839.34,371.02 L838.47,373.40 L840.77,374.88 L840.13,376.74 L843.86,381.63 L845.37,387.36 L849.01,388.39 L851.95,393.79 L855.20,394.50 L859.48,399.19 L870.65,404.59 L876.84,405.69 L887.22,405.49 L888.17,409.80 L891.98,411.15 L889.21,415.54 L891.82,412.76 L896.90,414.75 L902.21,414.82 L905.77,416.04 L907.36,420.48 L909.74,422.79 L914.10,422.79 L938.59,416.30 L938.52,419.77 L943.59,422.86 L944.38,424.72 L943.51,427.74 L944.94,430.51 L956.19,433.73 L960.47,443.95 L962.62,444.66 L964.83,452.83 L958.65,459.97 L956.67,466.01 L957.70,467.49 L953.42,470.64 L952.78,473.34 L946.20,475.53 L944.46,479.26 L940.50,481.19 L941.21,483.25 L944.78,484.98 L946.52,487.88 L952.78,489.29 L950.80,495.79 L947.71,498.87 L948.11,501.90 L945.02,502.28 L941.45,508.07 L935.58,514.18 L936.45,516.11 L935.66,516.95 L931.38,516.82 L930.35,517.72 L927.97,527.49 L931.38,530.32 L934.39,530.39 L934.63,531.74 L940.97,531.87 L945.73,529.55 L949.14,532.90 L952.47,531.29 L955.00,531.93 L958.18,530.64 L964.44,530.71 L965.15,534.50 L968.24,537.72 L970.30,543.12 L974.35,547.62 L980.77,552.06 L968.64,559.39 L966.66,564.92 L967.85,566.85 L966.50,570.39 L965.39,573.73 L953.66,576.82 L947.16,580.49 L934.31,580.94 L910.06,575.28 L893.88,573.67 L885.24,567.56 L876.05,563.77 L871.13,551.68 L865.82,546.79 L858.84,543.44 L857.50,544.99 L852.58,543.57 L849.96,546.02 L843.86,544.41 L837.68,554.25 L830.62,557.78 L829.67,564.41 L831.57,567.11 L831.49,568.91 L838.07,573.03 L843.07,578.04 L842.75,582.87 L841.16,585.57 L846.24,591.03 L850.28,592.51 L850.52,596.18 L847.90,600.42 L838.55,607.43 L835.22,612.64 L809.85,633.10 L808.50,635.80 L805.65,636.50 L803.75,639.20 L803.19,646.67 L797.56,651.62 L794.39,652.97 L789.40,659.59 L782.58,662.68 L777.90,669.95 L781.15,673.68 L781.79,678.76 L773.54,681.27 L769.58,680.82 L765.14,682.62 L760.70,681.33 L758.00,682.36 L752.69,679.98 L746.83,680.04 L739.37,675.28 L736.12,678.56 L730.89,680.49 L728.43,678.82 L725.18,679.85 L721.54,679.40 L716.07,682.23 L712.66,682.17 L710.44,684.48 L708.61,686.02 L707.58,689.88 L703.94,688.66 L704.10,690.98 L699.02,690.65 L697.04,693.61 L695.30,694.19 L690.94,693.29 L686.18,695.09 L681.26,694.06 L678.25,696.44 L676.27,696.38 L675.48,698.12 L673.81,697.34 L669.85,703.45 L666.92,703.58 L666.84,705.13 L668.66,706.35 L664.54,706.48 L663.19,707.38 L659.38,703.52 L662.63,701.78 L663.98,702.10 L665.09,699.14 L657.32,699.21 L657.24,701.33 L653.36,702.36 L646.38,701.14 L640.44,697.41 L638.22,697.21 L632.67,703.52 L635.60,708.66 L634.02,709.37 L631.48,708.79 L629.58,709.88 L629.42,713.74 L622.92,715.54 L611.66,715.93 L609.28,716.64 L608.49,718.70 L610.55,720.56 L616.02,722.43 L615.15,728.15 L615.94,726.48 L617.13,728.47 L613.72,729.56 L610.95,729.18 L611.03,731.30 L604.53,734.45 L604.68,737.54 L602.86,738.89 L603.73,741.46 L600.48,745.58 L599.77,747.25 L601.12,748.54 L593.19,758.63 L594.22,760.11 L582.88,755.29 L580.74,752.78 L578.13,752.91 L574.24,754.90 L573.92,758.12 L570.12,761.53 L565.44,767.57 L560.53,770.47 L559.10,774.90 L556.40,776.13 L552.44,776.64 L547.05,773.23 L538.25,772.72 L530.80,774.45 L525.17,778.31 L506.54,774.58 L500.36,775.87 L492.43,775.42 L482.68,763.71 L478.08,761.91 L469.68,754.26 L465.08,751.94 L448.99,749.24 L445.81,753.23 L441.93,752.91 L437.89,754.52 L435.91,755.10 L432.10,753.55 L427.82,753.75 L426.95,755.35 L418.54,757.54 L416.01,760.82 L418.07,779.99 L415.45,781.79 L410.54,781.08 L409.19,784.68 L406.73,786.61 L405.15,786.29 L403.88,788.22 L404.67,790.73 L401.98,793.43 L393.57,794.13 L388.89,790.53 L383.42,788.28 L379.94,788.73 L377.88,786.55 L375.18,785.84 L371.06,791.82 L366.94,789.95 L364.40,792.72 L359.40,793.75 L359.25,799.47 L356.47,800.82 L346.80,797.61 L340.93,796.96 L327.38,792.14 L321.19,793.56 L314.45,791.43 L308.43,792.27 L302.33,789.05 L299.15,788.67 L295.82,798.12 L291.54,802.24 L291.54,809.70 L285.68,817.80 L279.10,821.40 L275.85,825.65 L277.83,829.44 L277.59,835.94 L281.24,842.37 L277.99,846.81 L277.35,853.49 L275.61,856.90 L275.21,864.36 L269.51,865.33 L268.00,867.13 L268.40,868.87 L274.98,875.23 L274.50,877.74 L269.90,881.92 L269.19,888.09 L262.77,890.54 L256.03,896.33 L249.92,894.91 L242.39,889.90 L240.65,890.09 L239.70,896.39 L230.74,901.41 L230.10,912.08 L223.52,916.52 L213.06,918.51 L206.08,918.64 L202.36,916.91 L195.78,917.16 L192.29,914.72 L190.78,914.72 L186.58,916.91 L185.23,922.31 L180.64,924.05 L169.38,921.60 L167.08,922.18 L167.08,927.33 L171.36,940.19 L170.65,942.18 L160.10,941.09 L151.86,949.64 L149.56,949.83 L141.71,954.98 L131.72,957.23 L126.73,960.32 L125.54,961.93 L126.89,972.34 L119.75,976.20 L117.61,980.77 L116.74,979.61 L113.17,975.30 L115.23,955.49 L115.15,944.05 L112.54,943.27 L107.15,938.32 L105.67,932.53 Z M147.19,659.14 L145.68,657.92 L142.43,657.41 L147.19,659.14 Z M471.90,289.86 L472.53,289.15 L474.83,282.01 L471.90,289.86 Z M463.02,325.49 L464.76,334.30 L464.21,331.08 L463.02,325.49 Z M498.81,373.27 L499.72,371.21 L499.17,367.16 L498.81,373.27 Z M494.33,383.95 L497.42,379.06 L497.58,378.39 L494.33,383.95 Z M468.09,408.84 L472.85,405.69 L477.53,402.08 L468.09,408.84 Z M475.31,427.04 L476.14,425.52 L476.04,425.13 L475.31,427.04 Z M477.76,462.60 L499.41,455.40 L495.20,456.24 L477.76,462.60 Z M474.91,465.30 L472.37,470.00 L477.76,462.60 L474.91,465.30 Z M447.40,561.06 L447.08,562.93 L448.11,559.59 L447.40,561.06 Z M437.79,592.02 L438.28,588.78 L437.73,579.07 L437.79,592.02 Z M525.41,553.73 L523.82,553.28 L521.21,553.09 L525.41,553.73 Z M522.16,565.18 L524.30,559.26 L525.41,553.73 L522.16,565.18 Z M485.14,585.31 L480.85,590.01 L488.15,583.19 L485.14,585.31 Z M510.35,607.63 L511.14,607.37 L499.72,607.37 L510.35,607.63 Z M518.59,611.81 L514.15,607.37 L513.33,607.37 L518.59,611.81 Z M474.04,686.02 L473.17,687.83 L474.74,685.46 L474.04,686.02 Z M472.85,693.36 L473.68,695.48 L473.50,692.86 L472.85,693.36 Z M510.90,733.62 L507.17,730.72 L503.61,729.18 L510.90,733.62 Z M266.02,139.56 L265.26,139.57 L266.13,140.25 L266.02,139.56 Z M266.41,141.94 L266.32,141.40 L266.11,142.10 L266.41,141.94 Z M288.93,165.80 L294.32,166.25 L288.10,165.35 L288.93,167.86 L288.93,165.80 Z M379.06,216.28 L378.30,215.56 L379.22,220.66 L379.06,216.28 Z M393.10,283.04 L393.25,281.37 L392.07,286.90 L393.10,283.04 Z M373.42,305.90 L372.88,305.04 L372.00,305.24 L373.42,305.90 Z M326.27,483.83 L326.19,482.35 L325.77,482.22 L326.27,483.83 Z M353.70,534.25 L348.38,531.55 L354.96,535.98 L353.70,534.25 Z M351.00,537.46 L354.25,536.69 L354.96,535.98 L351.00,537.46 Z M376.37,568.85 L374.39,566.47 L381.60,576.44 L376.37,568.85 Z M408.56,643.19 L403.72,644.74 L399.27,647.52 L408.56,643.19 Z M384.46,659.85 L384.61,657.02 L384.53,655.93 L384.46,659.85 Z M390.00,668.40 L391.11,669.15 L384.46,659.85 L390.00,668.40 Z M378.54,654.07 L382.95,653.87 L379.62,653.55 L378.54,654.07 Z M365.90,665.25 L367.01,659.27 L365.67,663.00 L365.90,665.25 Z M369.12,671.26 L367.73,666.22 L368.52,670.98 L369.12,671.26 Z M382.24,678.89 L381.84,678.45 L382.74,681.14 L382.24,678.89 Z M383.58,684.87 L383.28,683.54 L382.79,688.34 L383.58,684.87 Z M389.45,688.98 L388.26,690.59 L385.25,690.65 L388.80,690.91 L389.45,688.98 Z M391.59,689.63 L391.88,689.38 L389.45,688.98 L391.59,689.63 Z M393.57,685.83 L392.43,688.90 L392.62,688.73 L393.57,685.83 Z M397.30,693.36 L396.89,693.07 L397.62,694.71 L397.30,693.36 Z M404.19,720.56 L403.09,710.66 L403.09,716.44 L404.19,720.56 Z M263.96,488.65 L263.40,498.04 L263.64,495.08 L263.96,488.65 Z M298.68,486.20 L297.09,486.59 L299.46,486.35 L298.12,484.79 L298.68,486.20 Z M299.72,486.32 L300.90,486.20 L301.22,485.11 L299.72,486.32 Z M311.60,640.17 L307.24,634.19 L305.65,632.13 L311.60,640.17 Z M388.58,691.56 L388.79,690.93 L383.11,694.26 L388.58,691.56 Z M100.85,869.34 L101.04,862.95 L100.41,868.48 L100.85,869.34 Z M323.88,721.21 L325.87,721.72 L332.93,721.65 L323.88,721.21 Z M292.65,555.73 L290.59,554.70 L290.62,554.24 L289.09,554.44 L292.65,555.73 Z M306.76,551.87 L300.74,554.89 L307.73,551.87 L306.76,551.87 Z M309.94,551.87 L308.24,551.87 L310.76,552.31 L309.94,551.87 Z M322.30,555.98 L317.81,555.42 L318.66,555.86 L322.30,555.98 Z M330.31,553.86 L335.62,552.38 L322.30,555.98 L330.31,553.86 Z M334.63,634.77 L335.52,634.40 L335.15,634.19 L334.63,634.77 Z M215.76,533.02 L220.81,531.66 L220.67,531.61 L215.76,533.02 Z M290.77,551.71 L290.12,552.77 L290.66,553.57 L290.77,551.71 Z M269.64,374.04 L268.79,373.72 L264.11,374.04 L269.64,374.04 Z M275.69,379.83 L272.52,375.14 L271.21,374.64 L275.69,379.83 Z M323.17,339.44 L321.53,338.51 L324.13,341.05 L323.17,339.44 Z M340.54,322.08 L335.46,320.28 L333.07,320.22 L340.54,322.08 Z M312.39,455.85 L308.83,459.32 L309.70,458.61 L312.39,455.85 Z M316.83,444.40 L309.22,446.40 L310.41,442.86 L308.43,447.30 L316.83,444.40 Z M322.12,481.07 L322.22,481.32 L323.05,481.37 L322.12,481.07 Z M271.33,273.33 L263.08,275.84 L266.89,275.07 L271.33,273.33 Z M300.66,265.10 L298.92,265.48 L305.18,264.97 L300.66,265.10 Z M349.97,293.72 L347.12,292.30 L350.00,294.53 L349.97,293.72 Z M273.39,302.85 L276.64,300.84 L276.64,300.84 L273.39,302.85 Z M312.47,193.26 L314.07,188.35 L313.58,188.63 L312.47,193.26 Z M400.15,521.06 L406.00,522.18 L405.62,521.83 L400.15,521.06 Z M406.76,522.86 L404.99,529.68 L406.97,523.06 L406.76,522.86 Z M420.37,541.00 L418.94,535.85 L420.37,542.41 L421.95,544.02 L420.37,541.00 Z M402.38,680.50 L402.09,680.33 L401.99,680.59 L402.38,680.50 Z M402.41,679.46 L402.75,679.26 L402.53,678.69 L402.45,679.34 L402.41,679.46 Z M433.77,661.24 L433.05,661.14 L432.12,661.80 L433.77,661.24 Z M438.20,661.91 L442.33,658.95 L439.08,665.77 L442.88,657.79 L438.20,661.91 Z M406.57,681.91 L405.61,681.99 L416.32,688.47 L406.57,681.91 Z M453.99,715.07 L451.75,713.93 L452.16,714.90 L453.99,715.07 Z M458.42,715.22 L457.32,715.37 L459.75,715.60 L458.42,715.22 Z M454.35,699.95 L454.61,699.27 L454.42,699.14 L454.35,699.95 Z M450.65,645.64 L451.21,650.46 L450.41,635.41 L450.65,645.64 Z M455.10,631.47 L451.76,633.48 L450.41,635.41 L455.10,631.47 Z M458.48,625.28 L458.03,629.00 L458.90,628.27 L458.48,625.28 Z M458.74,613.67 L459.93,616.57 L459.09,613.25 L458.74,613.67 Z M458.14,610.69 L458.60,611.29 L458.50,610.91 L458.14,610.69 Z M454.59,617.41 L452.24,616.50 L446.29,616.37 L454.59,617.41 Z M423.10,551.93 L418.54,546.68 L417.99,547.11 L421.48,551.10 L423.10,551.93 Z M414.98,461.25 L415.85,462.02 L414.10,459.26 L414.98,461.25 Z M419.89,460.03 L436.70,448.58 L415.85,462.02 L419.89,460.03 Z M392.04,491.01 L390.56,488.07 L391.35,491.22 L392.04,491.01 Z M419.97,489.48 L414.29,492.40 L415.85,492.38 L419.97,489.48 Z M449.22,502.80 L452.88,507.02 L453.03,506.08 L449.22,502.80 Z M440.74,318.61 L457.06,313.71 L457.06,313.71 L440.74,318.61 Z M463.18,299.63 L469.32,292.75 L467.30,294.30 L463.18,299.63 Z M475.01,179.17 L472.29,172.17 L473.48,177.18 L475.01,179.17 Z M475.94,181.56 L475.61,180.71 L474.12,183.36 L475.94,181.56 Z M591.68,511.25 L590.62,511.52 L591.44,511.67 L591.68,511.25 Z M593.59,506.72 L593.09,508.78 L596.28,503.18 L593.59,506.72 Z M596.20,497.72 L596.03,497.37 L596.28,503.18 L596.20,497.72 Z M550.96,638.98 L554.03,632.58 L550.78,638.24 L550.96,638.98 Z M543.42,643.52 L545.86,643.96 L543.72,643.00 L543.42,643.52 Z M542.23,644.36 L541.83,643.64 L540.95,643.51 L542.23,644.36 Z M542.77,645.31 L542.50,644.84 L541.66,646.60 L542.77,645.31 Z M530.09,653.35 L533.81,651.36 L524.38,655.54 L530.09,653.35 Z M539.08,662.59 L537.06,658.37 L538.09,661.91 L539.08,662.59 Z M540.47,665.51 L540.01,664.54 L540.87,669.56 L540.47,665.51 Z M534.03,682.71 L534.76,681.27 L536.27,679.91 L533.65,682.04 L534.03,682.71 Z M562.24,682.83 L560.84,681.39 L562.75,685.25 L562.19,682.81 L562.24,682.83 Z M568.85,696.70 L570.20,689.43 L568.22,698.44 L568.85,696.70 Z M563.84,712.19 L567.82,711.36 L565.52,711.36 L563.84,712.19 Z M561.00,715.16 L561.71,713.24 L561.08,713.55 L561.00,715.16 Z M537.70,701.72 L531.51,703.71 L538.28,702.10 L537.76,700.24 L537.70,701.72 Z M538.01,694.64 L537.94,696.33 L539.40,692.32 L539.38,692.31 L538.01,694.64 Z M532.94,683.90 L532.07,686.60 L533.91,682.95 L532.70,683.36 L532.94,683.90 Z M513.12,730.72 L519.22,727.25 L512.62,730.72 L513.12,730.72 Z M531.59,718.76 L531.83,717.15 L530.18,719.78 L531.59,718.76 Z M536.67,708.41 L537.11,708.98 L536.84,708.14 L536.67,708.41 Z M540.79,713.68 L539.36,710.98 L538.38,710.60 L540.79,713.68 Z M552.28,702.55 L550.89,706.14 L551.09,705.83 L553.23,700.37 L553.35,700.02 L552.28,702.55 Z M528.50,723.19 L535.95,724.87 L531.59,723.58 L528.50,723.16 L528.50,723.19 Z M531.71,731.81 L532.38,731.75 L532.54,730.46 L531.71,731.81 Z M530.03,734.54 L530.80,734.32 L530.87,733.17 L530.03,734.54 Z M528.90,736.38 L528.18,739.73 L529.12,736.02 L528.90,736.38 Z M545.62,737.80 L545.46,733.94 L544.43,743.58 L545.62,737.80 Z M554.50,696.64 L553.98,696.60 L554.19,697.55 L554.50,696.64 Z M543.40,613.48 L543.88,611.04 L542.53,615.41 L543.40,613.48 Z M533.89,582.55 L534.13,575.41 L533.57,585.12 L533.89,582.55 Z M493.42,673.79 L490.92,671.94 L492.51,673.68 L493.42,673.79 Z M495.20,673.55 L494.23,673.90 L497.00,674.26 L495.20,673.55 Z M531.12,679.85 L532.47,682.86 L532.78,682.29 L531.12,679.85 Z M511.10,695.21 L511.30,694.38 L508.60,692.46 L511.10,695.21 Z M518.11,628.91 L525.16,633.42 L524.06,631.94 L518.11,628.91 Z M533.34,348.58 L531.45,346.98 L531.45,346.98 L533.34,348.58 Z M567.27,392.03 L562.91,390.31 L565.36,391.99 L567.27,392.03 Z M570.44,393.27 L569.00,392.71 L570.18,393.95 L570.44,393.27 Z M569.56,399.83 L568.61,398.16 L569.14,400.33 L569.56,399.83 Z M559.34,410.70 L558.78,412.95 L559.10,414.75 L559.34,410.70 Z M553.79,417.71 L554.77,417.16 L546.50,419.32 L553.79,417.71 Z M531.51,346.93 L533.57,345.75 L536.27,341.95 L531.51,346.93 Z M613.56,578.04 L615.94,577.59 L616.53,576.70 L613.56,578.04 Z M618.64,575.75 L619.98,575.60 L623.23,573.67 L618.64,575.75 Z M705.96,544.12 L707.98,544.21 L706.24,543.76 L705.96,544.12 Z M717.81,555.74 L719.32,556.76 L721.30,556.88 L717.81,555.74 Z M714.32,568.89 L712.10,569.04 L714.32,569.10 L714.32,568.89 Z M654.61,622.15 L653.60,621.26 L650.58,620.49 L654.61,622.15 Z M656.61,627.05 L655.58,623.00 L655.55,622.97 L656.61,627.05 Z M575.19,692.13 L578.09,692.33 L577.41,691.88 L575.19,692.13 Z M601.57,663.08 L596.76,661.07 L601.04,663.32 L601.57,663.08 Z M693.00,616.44 L692.64,616.29 L691.97,625.89 L693.00,616.44 Z M727.18,597.23 L726.89,598.15 L727.72,597.66 L727.18,597.23 Z M725.18,592.77 L724.39,595.02 L725.66,592.70 L725.18,592.77 Z M734.14,610.23 L731.29,608.33 L733.82,610.20 L734.14,610.23 Z M713.31,667.31 L723.04,660.69 L713.69,666.28 L713.31,667.31 Z M711.18,668.76 L712.80,667.66 L710.91,668.08 L711.18,668.76 Z M728.43,462.09 L727.40,459.90 L725.50,458.36 L728.43,462.09 Z M761.57,464.92 L760.86,463.12 L760.81,467.68 L761.57,464.92 Z M765.22,455.98 L764.88,455.29 L762.36,462.47 L765.22,455.98 Z M763.63,452.70 L761.10,451.67 L764.21,453.90 L763.63,452.70 Z M762.60,444.79 L769.18,442.22 L761.40,444.82 L762.60,444.79 Z M773.07,439.06 L777.43,435.08 L769.18,442.22 L773.07,439.06 Z M844.33,483.44 L845.05,487.17 L845.49,489.75 L844.73,483.76 L844.33,483.44 Z M845.83,491.74 L846.55,489.61 L845.83,491.74 L845.83,491.74 Z M880.45,457.55 L877.87,458.55 L876.64,460.03 L880.45,457.55 Z M886.59,455.85 L887.14,454.95 L884.99,455.79 L886.59,455.85 Z M729.02,490.21 L729.31,480.03 L728.75,489.55 L729.02,490.21 Z M734.14,501.58 L731.48,496.26 L734.31,503.21 L734.14,501.58 Z M738.98,515.21 L738.77,514.76 L736.76,519.00 L738.98,515.21 Z M845.93,492.38 L846.32,494.63 L849.73,502.28 L845.93,492.38 Z M577.33,365.75 L577.10,367.55 L578.30,364.85 L577.33,365.75 Z M667.55,411.92 L667.09,412.02 L668.90,413.70 L667.55,411.92 Z M687.10,415.63 L682.85,416.36 L686.10,416.36 L687.10,415.63 Z M728.44,388.57 L727.64,387.87 L728.44,388.57 L728.44,388.57 Z M729.31,395.97 L727.64,389.61 L728.04,392.50 L729.31,395.97 Z M779.09,377.07 L777.51,378.22 L776.77,380.52 L779.09,377.07 Z M778.54,406.52 L782.98,412.12 L780.12,407.61 L778.54,406.52 Z M782.02,413.53 L782.30,417.90 L782.90,417.33 L782.02,413.53 Z M721.93,326.32 L730.34,328.64 L730.79,328.33 L721.93,326.32 Z M742.09,324.31 L742.47,324.07 L741.12,320.73 L742.09,324.31 Z M745.78,320.23 L746.83,320.54 L754.36,319.31 L745.78,320.23 Z M700.85,319.12 L703.70,321.76 L705.40,322.78 L700.85,319.12 Z M729.86,386.71 L728.28,381.89 L729.29,387.45 L729.86,386.71 Z M726.28,351.77 L726.61,352.76 L727.20,353.49 L726.28,351.77 Z" /></g></svg>