<svg xmlns="http://www.w3.org/2000/svg" viewBox="0 0 1000 1000" width="1000" height="1000"><g fill="#cccccc" stroke="#222" stroke-width="2"><path d="M238.43,860.73 L234.94,856.20 L233.17,850.97 L228.77,845.91 L222.46,835.60 L216.94,835.45 L209.91,844.60 L201.96,848.79 L201.24,853.41 L196.37,858.55 L189.93,848.35 L189.47,845.21 L185.60,845.13 L183.63,840.24 L181.72,833.01 L176.99,834.05 L172.59,832.57 L171.27,831.00 L170.68,822.63 L165.95,822.02 L165.49,822.98 L165.23,820.37 L163.45,818.97 L164.83,818.28 L163.52,815.14 L164.37,810.52 L163.45,808.95 L164.70,809.38 L165.16,802.15 L164.37,801.80 L165.69,797.70 L165.36,795.87 L164.18,795.52 L164.31,793.95 L162.34,792.99 L159.45,792.65 L156.69,787.94 L157.00,787.10 L145.78,792.73 L142.76,791.69 L141.71,798.14 L144.14,799.88 L142.63,802.15 L136.19,802.50 L136.12,799.18 L138.42,795.17 L135.27,791.86 L131.92,792.73 L127.45,797.88 L126.99,793.52 L128.04,790.38 L126.46,787.68 L127.45,784.54 L129.88,782.45 L131.19,782.80 L134.28,779.13 L137.57,778.17 L139.41,773.99 L139.47,770.59 L141.12,768.15 L148.54,764.40 L147.55,756.82 L150.58,752.20 L154.65,753.24 L154.91,751.50 L153.80,749.93 L146.96,740.69 L143.74,739.64 L142.43,730.93 L134.81,723.78 L134.81,718.02 L131.78,721.69 L128.83,721.51 L129.09,718.90 L127.45,715.84 L124.69,717.33 L120.75,722.64 L115.42,716.11 L114.04,707.82 L108.59,706.43 L106.36,709.05 L98.60,709.74 L97.88,714.45 L93.68,715.67 L90.26,719.33 L85.79,716.80 L91.84,711.22 L91.18,704.42 L93.68,695.27 L92.69,692.48 L90.19,684.20 L88.88,681.85 L86.64,681.41 L86.58,683.33 L89.54,688.30 L87.76,689.95 L84.87,686.21 L81.39,684.37 L82.18,681.93 L85.53,679.67 L81.91,672.87 L82.83,670.17 L85.40,668.60 L83.43,666.16 L81.91,661.10 L79.55,662.58 L79.09,670.08 L78.37,674.70 L79.22,678.80 L77.77,683.76 L74.36,684.46 L73.04,686.12 L72.06,694.31 L67.06,693.96 L65.42,691.35 L63.98,686.03 L59.77,684.72 L49.85,685.86 L48.40,684.29 L42.95,670.60 L45.18,669.82 L48.27,672.95 L49.72,669.99 L42.23,664.93 L39.99,657.61 L43.15,651.42 L46.17,646.19 L42.23,639.39 L44.66,629.98 L32.31,617.16 L23.76,614.02 L22.12,612.02 L21.20,607.57 L24.09,601.38 L19.23,594.41 L19.82,590.92 L27.31,574.19 L31.98,569.91 L27.64,564.86 L31.19,559.54 L32.44,535.74 L35.00,532.08 L39.47,532.34 L42.03,524.32 L43.67,523.01 L51.82,522.84 L59.25,514.91 L65.22,516.30 L70.42,513.51 L72.98,513.95 L76.59,512.12 L78.96,508.28 L79.02,503.84 L83.36,504.71 L84.67,500.35 L90.39,496.25 L98.87,494.42 L99.98,495.64 L99.92,498.26 L101.69,500.00 L105.77,500.78 L108.33,508.80 L110.82,510.55 L114.64,511.42 L116.48,514.56 L118.71,515.34 L123.83,509.41 L125.48,505.67 L128.76,503.84 L129.16,500.52 L133.16,504.01 L140.66,507.58 L143.28,507.85 L148.87,504.88 L155.83,496.08 L158.53,489.71 L158.72,481.78 L161.81,477.07 L169.17,472.98 L174.69,472.10 L176.86,468.27 L178.83,467.57 L179.49,468.62 L178.57,472.02 L180.21,472.63 L184.02,471.15 L194.01,471.93 L199.07,474.89 L201.96,479.86 L204.78,479.60 L207.94,477.86 L213.79,466.18 L220.03,460.16 L224.63,452.32 L228.96,450.57 L231.39,447.70 L233.83,448.31 L240.79,440.72 L242.43,437.76 L244.60,437.84 L245.72,436.19 L248.41,438.11 L251.70,436.80 L252.29,430.17 L256.03,424.42 L256.30,417.79 L258.14,414.39 L260.83,412.56 L265.17,413.61 L271.67,405.59 L278.18,404.81 L277.98,399.66 L279.82,395.13 L282.05,394.26 L286.59,396.17 L289.94,392.95 L286.00,387.63 L288.82,381.62 L288.36,377.00 L286.72,374.29 L287.24,371.94 L294.67,369.85 L297.63,366.27 L305.84,369.94 L308.47,365.31 L310.64,364.18 L320.03,369.94 L323.05,370.37 L325.62,374.90 L326.80,380.83 L325.03,383.71 L321.28,383.45 L319.97,385.45 L322.27,389.29 L322.20,394.69 L326.14,400.01 L325.68,402.19 L321.74,404.89 L322.40,409.77 L324.37,410.47 L327.33,405.76 L334.82,411.87 L339.35,413.35 L340.66,415.96 L344.47,418.67 L345.13,421.37 L349.34,423.55 L351.31,427.56 L352.82,428.26 L355.38,425.47 L358.47,424.51 L362.15,419.01 L366.16,418.14 L370.30,419.19 L376.01,417.62 L378.90,411.95 L381.01,412.39 L383.83,416.05 L385.47,415.96 L387.71,406.11 L390.53,403.50 L394.54,403.93 L395.79,409.69 L397.76,410.82 L402.30,409.86 L405.71,406.11 L414.12,407.86 L416.55,406.03 L421.68,408.03 L425.49,406.64 L431.80,409.25 L434.49,412.39 L436.79,426.95 L435.15,430.17 L430.02,432.53 L431.07,438.02 L429.30,442.99 L430.61,446.21 L435.08,447.87 L434.49,449.44 L429.76,448.31 L428.18,452.58 L434.03,459.46 L435.15,463.39 L440.34,468.18 L448.09,470.19 L448.88,473.06 L451.64,473.76 L452.49,472.71 L451.57,470.53 L452.63,465.48 L454.93,460.95 L456.96,459.20 L457.29,462.78 L461.36,460.86 L462.35,458.77 L461.50,456.06 L462.88,454.67 L465.44,454.76 L465.90,451.62 L467.34,450.48 L468.40,451.71 L468.26,456.41 L473.59,454.49 L474.97,457.37 L474.11,461.73 L479.57,465.13 L479.11,467.83 L481.27,472.37 L484.16,474.28 L484.36,479.08 L487.84,479.69 L492.31,470.80 L499.28,471.23 L506.37,464.69 L513.01,465.74 L514.92,460.07 L517.35,461.99 L516.23,458.94 L516.43,455.72 L540.54,437.32 L544.02,439.15 L545.47,441.42 L547.05,440.55 L550.20,432.18 L556.70,421.46 L557.30,418.32 L562.42,411.87 L563.93,411.52 L567.35,404.81 L569.85,395.91 L572.67,391.99 L574.97,384.23 L573.33,379.70 L571.23,377.87 L567.74,377.52 L564.72,376.30 L562.42,372.99 L560.45,374.82 L560.84,373.33 L559.46,372.29 L557.16,373.95 L557.43,367.23 L556.24,365.23 L556.64,363.48 L554.93,362.26 L556.24,357.91 L552.30,355.73 L553.16,353.63 L551.38,352.85 L550.92,349.71 L549.74,349.71 L549.87,346.14 L548.95,346.57 L546.59,343.61 L546.98,341.60 L544.48,341.17 L542.97,345.79 L541.66,344.65 L541.26,346.31 L539.88,342.56 L536.53,344.48 L536.66,342.13 L535.28,343.61 L534.36,342.82 L535.68,341.25 L535.22,340.56 L531.67,339.95 L534.04,338.73 L532.66,336.46 L533.90,336.37 L534.10,332.97 L533.31,332.01 L534.36,329.22 L532.52,328.00 L531.80,316.93 L528.45,314.23 L528.06,310.13 L524.77,309.78 L522.73,306.82 L521.35,304.47 L519.78,304.90 L520.24,301.42 L519.05,302.11 L518.66,301.07 L519.84,298.10 L517.35,296.01 L516.75,293.40 L517.61,289.65 L516.43,286.07 L517.94,285.64 L517.81,284.33 L516.03,284.42 L515.57,281.10 L512.75,279.45 L513.73,278.66 L512.75,277.01 L508.48,276.14 L507.10,277.36 L505.91,275.09 L507.49,268.64 L509.53,269.16 L507.62,267.07 L509.26,265.59 L507.23,261.40 L507.62,260.01 L509.66,261.93 L510.18,260.88 L509.66,257.48 L507.82,256.26 L508.08,253.73 L509.53,253.82 L509.07,251.03 L507.75,252.25 L507.62,250.51 L506.64,250.51 L505.98,252.42 L505.58,250.77 L501.45,253.73 L500.92,252.16 L499.93,253.47 L498.49,251.99 L498.16,250.07 L496.19,250.85 L495.99,251.99 L495.20,251.03 L495.47,248.76 L492.18,247.89 L489.42,248.33 L487.78,250.51 L486.33,247.89 L485.41,249.29 L485.22,247.80 L483.97,248.06 L484.43,245.28 L480.88,241.44 L478.12,242.75 L477.07,237.87 L480.95,233.77 L481.73,231.41 L484.95,231.24 L483.05,227.06 L486.20,227.93 L488.76,225.31 L489.29,227.49 L490.28,227.23 L490.01,223.57 L488.57,221.91 L491.39,216.16 L489.82,211.36 L491.33,208.23 L489.88,205.61 L492.05,202.91 L490.54,202.04 L491.66,200.29 L495.07,200.99 L494.09,198.55 L495.86,196.46 L496.12,193.93 L494.48,190.53 L500.85,189.57 L500.13,184.95 L502.83,189.31 L504.99,189.40 L504.86,193.67 L506.44,195.59 L506.70,192.88 L509.07,188.61 L510.64,188.79 L511.24,186.78 L513.73,185.91 L514.92,183.82 L513.54,179.55 L513.93,173.44 L516.10,177.19 L517.87,177.71 L522.01,175.62 L524.25,170.39 L527.53,172.83 L527.33,174.84 L529.96,175.71 L535.22,175.71 L537.52,173.62 L536.93,171.53 L537.98,171.26 L539.42,173.88 L539.29,176.23 L538.18,176.15 L538.70,177.37 L541.46,176.23 L543.30,178.06 L545.14,176.23 L545.53,180.33 L547.97,181.29 L554.14,180.85 L552.37,179.37 L552.43,175.88 L561.17,180.07 L561.83,175.71 L564.13,171.26 L565.57,172.57 L564.72,174.58 L568.40,177.80 L566.95,175.10 L569.45,172.75 L569.39,166.99 L571.16,170.39 L573.46,169.17 L572.08,167.43 L573.26,165.86 L574.64,166.47 L575.10,168.82 L576.74,168.65 L575.43,163.85 L576.22,159.67 L578.19,156.18 L574.51,156.01 L572.93,152.61 L575.96,151.30 L576.68,143.98 L574.38,139.97 L575.89,135.78 L580.16,143.45 L582.59,143.80 L588.18,138.66 L602.44,132.38 L608.09,125.67 L610.25,124.97 L611.44,125.76 L612.09,131.95 L615.25,133.78 L614.99,139.88 L616.50,139.79 L617.22,135.70 L618.80,134.65 L621.42,136.05 L621.36,138.22 L623.07,140.14 L623.20,144.68 L626.81,145.63 L627.21,142.15 L632.40,142.84 L631.61,145.55 L633.05,146.07 L634.30,145.55 L636.01,147.73 L639.23,146.07 L639.49,141.01 L644.16,136.22 L646.79,140.23 L646.59,144.50 L647.64,146.07 L648.69,146.42 L650.53,137.18 L652.63,139.01 L653.16,142.23 L658.22,143.28 L658.15,150.69 L659.53,156.36 L661.57,157.84 L660.19,156.44 L663.61,152.35 L663.74,149.47 L668.73,147.12 L669.13,145.29 L666.17,143.63 L664.86,140.84 L667.75,131.69 L672.81,128.98 L672.28,121.92 L680.82,117.83 L681.41,113.21 L683.58,109.89 L695.61,114.77 L696.53,119.66 L698.89,114.95 L705.99,109.46 L706.45,106.14 L713.41,104.92 L712.69,101.35 L716.11,98.12 L718.01,97.86 L718.80,95.68 L725.11,97.34 L725.83,98.47 L724.91,92.54 L720.51,91.32 L722.28,87.31 L721.30,83.30 L722.35,80.25 L724.98,80.43 L726.42,82.69 L727.28,79.38 L729.51,80.78 L732.34,76.59 L735.62,74.41 L739.37,75.98 L744.49,74.85 L746.53,78.25 L748.96,78.07 L756.32,86.36 L760.92,84.09 L764.53,85.13 L769.66,83.04 L773.07,84.18 L777.21,79.03 L782.34,77.29 L782.47,72.41 L783.85,70.49 L786.48,72.15 L786.67,74.41 L788.78,75.89 L789.04,78.77 L790.75,78.07 L788.38,72.06 L790.62,70.93 L790.88,67.09 L793.18,67.26 L791.47,62.30 L792.65,54.36 L793.64,54.01 L794.89,58.63 L797.78,58.29 L798.17,55.76 L803.04,49.74 L801.98,55.32 L802.18,56.45 L803.95,56.02 L808.29,49.22 L807.11,46.69 L808.36,45.03 L807.57,37.54 L810.20,39.28 L810.85,44.77 L811.84,45.38 L814.34,39.98 L813.68,34.75 L815.52,35.97 L817.10,34.66 L819.46,35.36 L817.42,30.13 L818.15,27.60 L820.25,27.08 L820.64,30.65 L824.00,29.17 L825.44,30.74 L826.62,36.06 L830.11,41.72 L829.32,46.87 L830.30,49.31 L831.75,51.05 L833.46,50.44 L835.89,54.36 L839.76,54.54 L841.01,52.36 L842.85,52.97 L843.97,51.83 L850.74,53.32 L855.27,49.74 L856.45,46.87 L853.96,43.03 L856.65,38.06 L858.29,37.10 L860.00,37.36 L863.16,41.90 L864.54,38.67 L866.90,38.93 L868.28,41.72 L872.88,41.90 L875.97,38.93 L877.35,42.59 L876.82,43.99 L879.19,42.42 L879.39,45.30 L882.67,44.95 L882.34,47.56 L884.71,47.74 L888.85,45.30 L888.45,48.52 L886.48,50.53 L888.52,50.09 L889.90,53.49 L893.77,55.06 L901.86,51.14 L900.48,50.61 L901.46,49.57 L906.52,48.87 L907.57,51.14 L908.62,51.14 L912.57,43.73 L914.47,44.51 L915.59,42.68 L920.32,42.42 L921.57,40.76 L925.77,39.46 L928.40,41.29 L930.11,39.28 L937.21,37.10 L938.26,35.36 L939.57,35.79 L940.95,34.22 L941.35,31.17 L943.58,30.39 L946.21,27.34 L946.54,23.94 L950.28,19.23 L953.90,22.46 L954.03,25.42 L956.98,23.94 L958.04,26.64 L961.19,26.81 L966.51,35.18 L963.69,37.19 L964.34,40.15 L962.57,42.77 L962.24,45.64 L963.36,49.04 L962.96,57.24 L965.72,61.68 L963.29,65.96 L965.46,74.59 L961.25,82.87 L963.29,89.84 L966.38,94.20 L970.52,96.47 L972.16,99.52 L974.13,100.48 L975.97,106.49 L973.67,110.07 L973.67,114.43 L969.53,122.71 L967.96,131.42 L970.78,132.30 L972.82,135.52 L972.56,137.00 L974.59,139.88 L973.74,142.50 L974.53,144.85 L977.62,147.99 L978.27,151.56 L980.77,155.22 L979.59,159.41 L976.43,159.84 L975.78,162.02 L972.88,160.98 L966.05,161.67 L964.34,165.77 L957.71,169.00 L959.55,175.10 L957.18,183.21 L955.41,184.34 L952.19,183.90 L947.52,190.27 L944.83,189.48 L944.30,190.79 L944.89,192.80 L950.02,196.20 L957.31,205.78 L958.95,209.53 L961.25,211.02 L962.11,214.59 L964.67,216.25 L963.62,222.09 L967.43,227.67 L966.58,234.20 L968.75,237.17 L968.35,239.96 L969.73,243.10 L969.01,248.76 L964.93,259.14 L961.05,258.87 L963.69,259.83 L960.86,259.22 L957.97,260.88 L956.13,269.60 L951.20,276.31 L950.81,280.41 L948.31,286.60 L950.94,297.32 L949.36,309.52 L939.05,324.69 L936.81,329.31 L935.63,337.51 L938.72,342.91 L938.78,350.76 L936.29,360.61 L937.86,371.24 L935.37,380.13 L933.00,382.05 L931.23,388.59 L932.48,396.17 L929.39,414.66 L931.42,422.41 L930.70,432.53 L925.97,440.37 L922.09,444.38 L915.92,444.38 L912.96,458.68 L908.69,462.69 L908.76,467.66 L918.87,475.50 L921.57,476.90 L932.08,477.25 L934.12,479.60 L937.93,481.17 L940.89,480.73 L943.78,486.31 L937.47,503.14 L940.10,516.21 L955.60,528.68 L955.14,534.00 L958.43,542.89 L958.30,548.21 L962.24,558.32 L956.79,559.98 L953.37,568.43 L952.58,573.84 L947.59,584.65 L941.28,589.88 L937.99,587.17 L932.94,587.35 L913.03,597.98 L911.12,601.56 L907.97,600.34 L898.05,603.30 L894.17,602.43 L889.83,604.44 L886.09,608.97 L882.21,609.23 L880.11,610.80 L871.28,608.37 L869.73,610.28 L868.15,614.55 L865.19,617.08 L865.59,628.93 L864.27,635.38 L866.11,640.61 L864.47,644.01 L874.13,661.71 L877.87,664.85 L881.22,675.74 L884.25,680.80 L884.58,684.03 L881.03,684.46 L877.94,687.60 L877.48,689.17 L878.86,691.96 L876.89,693.44 L876.36,698.50 L873.47,699.89 L872.88,706.26 L869.53,712.01 L867.03,719.33 L859.87,722.73 L858.16,726.92 L856.72,727.79 L847.98,725.70 L846.40,723.60 L846.47,720.64 L841.60,720.12 L841.21,716.37 L833.85,710.00 L829.51,710.09 L827.21,706.52 L822.35,707.21 L819.40,710.53 L812.30,711.31 L808.23,717.24 L794.43,717.15 L784.70,720.73 L781.61,718.37 L777.21,710.70 L774.32,708.61 L768.87,713.75 L761.77,716.80 L757.76,712.45 L752.57,711.14 L748.63,718.02 L747.65,724.30 L743.70,724.39 L740.15,727.00 L736.87,725.43 L734.37,728.49 L732.80,728.31 L731.42,724.21 L731.74,717.85 L730.10,713.06 L728.06,711.83 L728.52,710.09 L726.62,706.52 L724.98,708.87 L725.17,710.18 L721.69,710.61 L720.84,712.62 L718.54,713.49 L715.51,708.52 L715.58,705.65 L714.33,705.04 L701.91,712.97 L701.32,715.58 L696.53,719.59 L685.55,719.68 L684.57,720.73 L676.16,735.28 L680.17,743.13 L671.49,752.89 L671.03,754.64 L681.09,784.97 L684.11,784.89 L685.82,779.31 L689.17,778.26 L693.96,783.58 L697.97,795.35 L700.40,795.70 L700.86,799.36 L703.16,802.06 L702.37,806.07 L703.29,807.73 L693.63,819.32 L684.90,824.20 L683.84,833.10 L675.70,844.34 L671.56,852.36 L669.39,854.37 L665.97,854.80 L658.42,860.47 L652.04,866.05 L646.92,872.85 L646.00,877.99 L631.35,886.97 L629.37,894.12 L624.97,900.39 L613.41,905.45 L604.08,906.23 L591.13,912.51 L589.69,914.95 L586.60,916.17 L584.69,921.32 L582.53,923.76 L579.50,913.56 L577.99,912.95 L575.17,920.44 L575.56,926.72 L572.67,928.46 L570.31,935.79 L567.94,937.27 L562.55,934.22 L559.53,934.22 L552.50,944.85 L539.75,955.92 L540.21,950.08 L538.70,962.11 L538.77,967.95 L540.47,973.53 L539.49,977.54 L531.93,980.77 L531.60,979.03 L533.38,976.58 L533.25,973.01 L532.06,972.31 L533.18,965.69 L532.13,963.25 L536.53,958.45 L536.40,954.18 L534.56,952.35 L532.85,946.25 L529.63,941.89 L530.68,926.28 L526.74,922.97 L521.88,907.72 L522.67,902.83 L520.24,897.60 L519.65,892.20 L520.96,883.66 L503.48,878.77 L502.76,876.16 L497.50,871.45 L493.43,872.06 L487.06,869.97 L474.24,862.91 L467.94,866.13 L462.88,865.87 L460.64,863.78 L459.33,857.94 L454.53,855.15 L441.39,851.40 L373.06,844.78 L368.06,843.90 L365.63,845.21 L356.56,844.95 L329.43,848.61 L328.64,853.32 L325.62,854.19 L324.43,856.28 L323.05,853.41 L321.87,854.54 L321.21,853.49 L321.48,847.13 L318.85,855.93 L319.37,861.69 L318.06,867.53 L315.63,872.24 L311.49,876.77 L294.08,887.14 L285.67,885.57 L281.59,883.57 L276.60,878.77 L269.50,873.46 L262.54,874.15 L248.35,869.71 L247.56,867.27 L245.59,867.27 L241.32,861.17 L238.43,860.73 Z M596.78,421.37 L597.46,420.70 L596.51,421.25 L596.78,421.37 Z M621.03,466.70 L623.07,469.49 L621.01,466.31 L621.03,466.70 Z M570.17,531.38 L570.08,532.48 L573.39,529.81 L570.17,531.38 Z M568.93,532.69 L567.95,534.20 L569.67,532.81 L568.93,532.69 Z M566.03,537.14 L565.64,539.66 L566.87,535.85 L566.03,537.14 Z M564.36,546.87 L566.41,546.59 L566.03,546.29 L564.36,546.87 Z M560.97,548.03 L560.62,548.78 L562.07,547.66 L560.97,548.03 Z M559.40,548.82 L555.65,552.65 L560.03,549.24 L559.40,548.82 Z M553.22,558.76 L558.48,563.03 L552.28,557.12 L553.22,558.76 Z M557.43,572.79 L555.59,570.79 L557.95,574.27 L557.82,571.78 L557.43,572.79 Z M582.59,589.44 L584.63,587.70 L581.21,590.57 L582.59,589.44 Z M565.90,644.45 L567.68,644.45 L569.85,642.71 L565.90,644.45 Z M571.29,807.29 L572.64,809.29 L571.37,806.04 L571.29,807.29 Z M536.73,804.07 L545.67,821.24 L540.74,810.60 L536.73,804.07 Z M277.32,529.29 L276.60,531.21 L277.91,529.17 L277.32,529.29 Z M279.03,528.94 L278.29,529.09 L279.48,530.67 L279.03,528.94 Z M278.90,546.86 L280.87,536.00 L278.77,545.51 L278.90,546.86 Z M279.57,548.99 L279.04,548.36 L279.10,548.91 L279.57,548.99 Z M343.09,474.20 L338.46,489.33 L338.69,489.28 L343.09,474.20 Z M363.79,532.95 L362.61,533.30 L365.24,533.21 L363.79,532.95 Z M359.13,564.95 L359.32,563.03 L358.34,568.26 L359.13,564.95 Z M321.44,625.11 L321.61,620.82 L321.02,625.10 L321.44,625.11 Z M340.14,684.99 L347.50,679.23 L346.38,679.67 L340.14,684.99 Z M337.25,691.09 L339.15,689.87 L333.37,692.31 L337.25,691.09 Z M159.51,679.32 L159.64,678.45 L159.37,677.59 L159.51,679.32 Z M158.94,675.25 L162.60,673.30 L158.00,674.70 L158.94,675.25 Z M180.56,689.40 L181.14,689.79 L181.32,689.10 L180.56,689.40 Z M192.86,697.28 L193.09,695.79 L192.62,695.16 L192.86,697.28 Z M263.92,606.53 L265.56,606.44 L266.12,605.07 L263.92,606.53 Z M284.42,664.93 L286.00,673.04 L292.17,693.62 L284.42,664.93 Z M169.96,727.70 L170.16,726.57 L168.58,728.28 L169.96,727.70 Z M182.05,722.47 L180.87,720.90 L180.75,720.83 L182.05,722.47 Z M186.39,733.82 L185.73,731.19 L184.22,729.79 L186.39,733.82 Z M220.21,797.38 L219.87,801.76 L221.42,800.71 L220.55,800.75 L220.21,797.38 Z M223.38,801.28 L226.29,800.49 L222.87,800.65 L223.38,801.28 Z M234.94,799.62 L235.75,798.57 L234.23,799.69 L234.94,799.62 Z M261.54,810.17 L261.69,809.21 L260.11,790.12 L261.54,810.17 Z M314.91,761.09 L307.02,735.20 L313.53,758.39 L314.91,761.09 Z M183.04,802.41 L175.35,802.58 L195.78,803.63 L183.04,802.41 Z M261.25,812.02 L260.37,813.74 L259.12,823.85 L260.34,824.81 L259.52,823.33 L261.25,812.02 Z M261.75,827.34 L261.23,826.40 L261.70,828.05 L261.75,827.34 Z M252.42,859.86 L252.29,857.68 L265.56,851.05 L252.16,856.98 L252.42,859.86 Z M161.55,780.18 L161.55,776.84 L160.65,781.51 L161.55,780.18 Z M174.56,756.51 L171.54,756.12 L169.89,757.17 L174.56,756.51 Z M179.59,755.80 L178.50,755.16 L177.09,756.15 L179.59,755.80 Z M204.98,707.21 L204.39,706.52 L205.10,708.87 L204.98,707.21 Z M191.31,701.11 L192.56,699.19 L192.66,698.57 L190.99,700.93 L191.31,701.11 Z M113.19,690.56 L110.30,695.18 L113.12,691.44 L113.19,690.56 Z M105.98,700.95 L105.50,701.64 L105.17,703.64 L105.98,700.95 Z M67.92,638.96 L69.14,638.96 L66.80,637.65 L67.92,638.96 Z M131.46,618.30 L131.79,616.31 L131.06,617.25 L131.46,618.30 Z M135.92,611.85 L139.21,606.70 L133.97,613.49 L135.92,611.85 Z M148.87,577.93 L148.18,577.55 L149.13,579.59 L148.87,577.93 Z M147.69,575.23 L146.17,573.23 L147.46,575.99 L147.69,575.23 Z M148.61,566.95 L146.77,570.79 L149.39,565.38 L148.34,566.17 L136.38,552.04 L148.61,566.95 Z M165.69,558.49 L163.41,553.77 L162.47,552.92 L165.69,558.49 Z M95.60,681.26 L94.46,680.28 L94.79,681.41 L95.60,681.26 Z M96.40,680.52 L95.93,681.20 L96.63,681.06 L96.40,680.52 Z M97.62,678.27 L98.14,679.14 L98.28,677.92 L97.62,678.27 Z M143.61,610.10 L143.81,604.24 L142.34,614.63 L143.61,610.10 Z M266.48,604.17 L266.13,604.39 L266.29,604.65 L266.48,604.17 Z M268.58,595.27 L268.11,595.10 L267.66,597.20 L268.58,595.27 Z M220.59,572.34 L219.17,571.05 L220.03,572.70 L220.59,572.34 Z M183.63,684.29 L183.10,681.67 L183.14,685.43 L183.63,684.29 Z M101.89,601.21 L98.42,610.67 L98.42,610.67 L101.89,601.21 Z M374.04,675.13 L376.87,674.09 L379.56,671.47 L374.04,675.13 Z M373.52,694.40 L373.37,694.50 L376.93,694.84 L373.52,694.40 Z M384.16,685.51 L386.33,689.69 L387.71,693.44 L387.25,690.74 L384.16,685.51 Z M427.00,663.37 L426.87,665.81 L427.44,662.76 L427.00,663.37 Z M427.99,666.24 L428.35,665.68 L426.87,665.81 L427.99,666.24 Z M462.89,691.73 L465.50,692.31 L467.67,691.61 L462.89,691.73 Z M465.96,718.29 L459.53,722.03 L459.16,722.54 L465.96,718.29 Z M457.91,724.23 L456.96,725.52 L457.59,725.66 L457.91,724.23 Z M460.66,726.33 L462.15,726.65 L464.52,726.57 L460.66,726.33 Z M486.20,715.41 L491.52,713.84 L489.55,713.84 L486.20,715.41 Z M499.21,719.86 L499.57,720.14 L499.41,719.94 L499.21,719.86 Z M484.76,635.12 L487.84,633.12 L493.30,634.16 L487.91,633.03 L484.76,635.12 Z M525.76,657.96 L524.18,664.32 L528.12,651.34 L525.76,657.96 Z M532.52,676.79 L527.60,676.79 L532.59,684.20 L528.19,677.58 L532.52,676.79 Z M374.62,714.92 L375.31,715.57 L374.90,712.53 L374.90,714.71 L374.62,714.92 Z M398.09,726.92 L400.92,731.97 L400.74,729.53 L399.60,729.53 L398.09,726.92 Z M402.86,733.44 L402.16,731.97 L400.92,731.97 L402.86,733.44 Z M433.70,728.22 L433.85,728.31 L433.72,728.00 L433.70,728.22 Z M434.69,728.83 L434.95,726.31 L434.22,728.54 L434.69,728.83 Z M440.54,745.57 L445.60,755.42 L441.59,747.40 L442.34,747.43 L440.54,745.57 Z M456.83,740.08 L455.39,740.52 L454.27,742.43 L456.83,740.08 Z M460.45,737.99 L460.05,734.06 L460.00,739.03 L460.45,737.99 Z M500.53,725.35 L501.25,722.21 L500.92,721.81 L500.53,725.35 Z M497.76,750.82 L498.42,749.84 L497.81,748.97 L497.76,750.82 Z M497.70,753.07 L498.68,753.67 L497.72,752.39 L497.70,753.07 Z M499.41,754.11 L501.18,752.89 L499.12,753.94 L499.41,754.11 Z M512.09,775.04 L515.11,778.00 L509.13,770.59 L512.09,775.04 Z M515.77,751.85 L516.10,754.03 L516.86,755.22 L515.77,751.85 Z M384.62,807.47 L382.91,813.13 L385.96,805.51 L384.62,807.47 Z M388.37,797.88 L387.70,801.14 L389.81,795.87 L388.37,797.88 Z M395.72,797.79 L391.45,795.96 L389.81,795.87 L395.72,797.79 Z M407.30,785.07 L402.49,795.52 L407.30,785.07 L407.30,785.07 Z M424.37,786.81 L423.20,786.10 L423.39,786.63 L420.23,790.38 L424.37,786.81 Z M403.27,734.28 L401.84,742.78 L403.41,734.59 L403.27,734.28 Z M358.93,710.88 L360.39,713.98 L360.38,712.88 L358.12,706.68 L358.93,710.88 Z M366.87,698.04 L365.04,699.37 L367.24,698.54 L366.87,698.04 Z M369.53,697.15 L367.90,698.29 L368.72,697.97 L369.53,697.15 Z M367.41,618.30 L369.11,621.78 L367.14,615.77 L367.41,618.30 Z M429.30,648.55 L431.75,650.14 L433.57,648.20 L431.80,650.03 L429.30,648.55 Z M466.88,595.54 L465.87,590.68 L465.50,591.10 L466.88,595.54 Z M484.42,622.94 L484.10,622.22 L468.92,620.48 L484.42,622.94 Z M481.47,628.15 L484.95,624.14 L484.60,623.34 L481.47,628.15 Z M375.75,666.16 L376.71,667.49 L375.46,664.21 L375.75,666.16 Z M375.07,646.97 L375.42,647.15 L378.12,646.37 L375.07,646.97 Z M382.26,671.21 L385.28,679.49 L383.18,672.26 L382.26,671.21 Z M462.38,640.30 L461.69,642.23 L462.55,641.83 L462.38,640.30 Z M458.34,615.77 L459.72,620.04 L458.80,615.22 L458.34,615.77 Z M346.41,613.89 L347.77,614.09 L347.50,613.68 L346.41,613.89 Z M348.45,615.11 L353.48,625.27 L350.45,618.12 L348.45,615.11 Z M362.61,634.77 L362.48,636.81 L363.20,635.73 L362.61,634.77 Z M362.43,637.59 L362.41,637.91 L363.02,638.62 L362.43,637.59 Z M364.42,640.25 L366.22,642.36 L372.18,645.46 L364.42,640.25 Z M331.13,598.56 L334.62,600.43 L331.99,598.42 L331.13,598.56 Z M494.42,623.88 L493.56,624.75 L492.31,626.23 L494.42,623.88 Z M520.63,611.06 L516.69,613.07 L516.67,613.30 L520.63,611.06 Z M536.80,613.76 L539.69,607.14 L536.04,614.15 L536.80,613.76 Z M363.20,565.38 L363.00,565.50 L363.26,565.78 L363.20,565.38 Z M367.66,574.41 L366.65,572.89 L366.81,573.75 L367.66,574.41 Z M402.23,522.40 L402.34,525.77 L402.89,524.32 L402.23,522.40 Z M505.52,534.70 L507.03,535.04 L510.71,534.87 L505.52,534.70 Z M437.65,491.37 L438.89,494.74 L439.35,494.33 L437.65,491.37 Z M457.64,531.00 L461.00,531.85 L459.26,531.12 L457.64,531.00 Z M468.26,534.87 L468.59,538.97 L469.08,539.64 L468.26,534.87 Z M363.53,528.85 L368.26,524.67 L366.42,525.72 L363.53,528.85 Z M504.87,530.86 L504.80,530.42 L503.22,527.72 L504.87,530.86 Z M712.62,135.78 L717.95,130.20 L706.97,140.93 L712.62,135.78 Z M679.44,163.33 L684.80,153.45 L683.98,153.92 L679.44,163.33 Z M738.97,206.05 L735.88,203.69 L739.69,207.01 L738.97,206.05 Z M747.65,230.37 L748.17,228.45 L746.79,232.11 L747.65,230.37 Z M711.90,268.38 L712.21,266.68 L712.21,266.68 L711.90,268.38 Z M683.71,324.43 L684.27,323.73 L682.01,324.43 L683.71,324.43 Z M714.52,335.08 L713.61,336.55 L717.29,334.02 L714.52,335.08 Z M719.52,318.85 L718.73,326.17 L720.27,317.73 L719.52,318.85 Z M723.14,315.63 L721.69,313.45 L722.02,315.10 L721.46,315.94 L728.79,314.93 L723.14,315.63 Z M775.31,335.24 L773.95,334.57 L773.93,335.33 L775.31,335.24 Z M786.74,344.04 L785.16,347.01 L784.97,348.58 L786.74,344.04 Z M787.20,349.88 L787.67,349.77 L784.97,348.58 L787.20,349.88 Z M778.20,354.07 L781.22,348.05 L777.26,354.22 L778.20,354.07 Z M729.16,444.82 L730.04,440.81 L728.79,444.21 L729.16,444.82 Z M759.41,505.67 L759.43,505.54 L758.49,507.06 L759.41,505.67 Z M762.15,514.78 L761.71,510.03 L761.04,508.76 L761.44,513.42 L762.15,514.78 Z M761.20,557.51 L765.32,549.60 L761.71,555.97 L761.20,557.51 Z M761.31,631.37 L761.41,630.93 L756.25,631.72 L761.31,631.37 Z M740.61,679.06 L743.37,673.04 L741.53,675.66 L740.61,679.06 Z M593.24,217.55 L597.34,210.90 L596.32,211.45 L593.24,217.55 Z M662.69,527.29 L663.15,531.21 L663.59,531.47 L662.69,527.29 Z M666.63,531.05 L666.76,530.25 L666.63,528.24 L666.63,531.05 Z M678.39,517.26 L679.38,519.61 L678.46,517.19 L678.39,517.26 Z M680.95,520.05 L681.31,519.84 L679.38,519.61 L680.95,520.05 Z M711.05,494.96 L711.24,495.99 L713.61,496.51 L711.05,494.96 Z M715.65,493.37 L719.39,482.04 L713.61,496.51 L715.65,493.37 Z M730.60,485.62 L730.10,486.58 L729.31,491.63 L729.66,494.98 L730.60,485.62 Z M729.35,498.07 L728.07,499.64 L729.25,499.04 L729.35,498.07 Z M726.55,500.42 L725.57,500.00 L725.21,501.10 L726.55,500.42 Z M632.28,584.76 L630.82,584.39 L630.19,585.48 L632.28,584.76 Z M636.47,589.35 L634.24,585.26 L633.18,584.99 L636.47,589.35 Z M639.43,590.84 L644.29,592.65 L643.57,591.80 L636.47,589.35 L639.43,590.84 Z M644.83,593.28 L645.08,599.12 L645.14,593.97 L645.59,594.17 L644.83,593.28 Z M647.58,595.02 L651.12,591.97 L646.94,594.75 L647.58,595.02 Z M655.46,570.18 L654.15,574.27 L653.95,578.89 L655.46,570.18 Z M663.48,562.16 L661.64,563.29 L658.35,568.43 L663.48,562.16 Z M666.61,555.06 L666.24,555.09 L665.82,556.16 L666.61,555.06 Z M652.34,671.69 L651.58,669.47 L651.65,671.56 L652.34,671.69 Z M653.62,675.48 L652.86,673.24 L652.70,674.61 L653.62,675.48 Z M652.90,676.44 L653.03,676.52 L653.62,675.48 L652.90,676.44 Z M656.58,687.95 L654.21,683.14 L654.21,684.64 L656.58,687.95 Z M610.91,810.26 L611.26,810.50 L611.06,809.16 L610.91,810.26 Z M620.11,816.71 L619.78,814.44 L619.50,814.43 L620.11,816.71 Z M700.14,674.96 L702.31,672.78 L702.54,671.94 L700.14,674.96 Z M701.65,670.08 L702.83,668.33 L703.29,665.81 L701.65,670.08 Z M702.09,644.17 L703.56,638.87 L701.85,643.66 L702.09,644.17 Z M608.48,531.56 L606.95,532.04 L610.58,532.52 L608.48,531.56 Z M649.41,554.57 L643.96,550.82 L646.46,553.35 L649.41,554.57 Z M658.75,554.66 L656.12,549.95 L655.05,549.51 L656.38,551.08 L658.75,554.66 Z M653.88,548.12 L654.32,548.64 L659.73,544.81 L653.88,548.12 Z M666.13,534.11 L662.42,540.10 L665.91,535.48 L666.13,534.11 Z M698.06,574.54 L699.29,574.01 L702.70,570.35 L698.06,574.54 Z M617.48,412.56 L619.12,409.34 L616.93,412.76 L617.48,412.56 Z M625.70,414.74 L620.37,409.51 L619.12,409.34 L625.70,414.74 Z M650.40,410.30 L650.66,409.53 L645.01,413.44 L650.40,410.30 Z M651.12,408.12 L649.28,404.63 L650.89,408.82 L651.12,408.12 Z M655.59,380.13 L655.46,374.47 L655.33,379.44 L653.55,375.25 L655.59,380.13 Z M676.09,448.65 L673.73,445.17 L670.11,441.59 L676.09,448.65 Z M725.57,380.74 L723.73,377.61 L722.28,376.12 L725.57,380.74 Z M650.18,470.07 L648.30,464.26 L649.48,469.66 L650.18,470.07 Z M651.76,469.44 L650.46,470.24 L651.90,471.08 L651.76,469.44 Z M652.24,469.14 L651.99,469.30 L654.87,472.80 L652.24,469.14 Z M710.23,459.56 L710.23,459.56 L710.85,457.02 L710.23,459.56 Z M708.88,416.05 L710.59,417.18 L702.64,411.52 L708.88,416.05 Z M711.11,461.47 L712.80,461.25 L710.76,460.71 L711.11,461.47 Z M727.15,447.34 L726.62,447.08 L725.99,448.38 L727.15,447.34 Z M652.77,366.36 L651.58,369.50 L653.76,365.75 L652.77,366.36 Z M658.15,363.05 L655.27,364.82 L664.46,361.22 L658.15,363.05 Z M597.41,210.86 L603.82,215.11 L597.77,210.67 L597.41,210.86 Z M608.77,185.21 L607.95,182.95 L607.25,183.22 L608.77,185.21 Z M607.02,182.92 L607.20,182.46 L606.90,182.77 L607.02,182.92 Z M608.63,180.94 L609.86,180.42 L609.86,179.65 L608.63,180.94 Z M669.72,252.77 L667.02,255.30 L669.84,252.71 L669.72,252.77 Z M673.07,250.87 L674.78,250.59 L677.41,248.41 L673.07,250.87 Z M655.66,281.19 L656.48,280.44 L655.35,281.22 L655.66,281.19 Z M661.24,276.14 L667.09,267.42 L659.87,277.38 L661.24,276.14 Z M744.16,158.80 L744.16,161.24 L744.76,163.49 L744.16,158.80 Z M757.17,168.74 L757.21,168.96 L758.55,157.49 L757.17,168.74 Z M757.45,170.56 L757.96,173.97 L758.03,170.13 L757.45,170.56 Z M820.78,409.51 L822.55,412.56 L823.10,412.60 L820.78,409.51 Z M827.35,408.42 L824.78,414.83 L829.45,406.46 L827.41,408.64 L827.35,408.42 Z M867.76,375.43 L879.18,369.33 L879.18,369.33 L867.76,375.43 Z M879.49,370.20 L881.03,374.64 L881.18,374.92 L879.49,370.20 Z M882.77,377.78 L883.26,378.65 L884.57,378.26 L882.77,377.78 Z M788.45,518.48 L780.89,518.05 L782.01,518.74 L788.45,518.48 Z M813.15,525.37 L815.26,525.28 L813.07,525.33 L813.15,525.37 Z M828.99,520.54 L829.65,520.57 L831.49,523.45 L828.99,519.53 L828.99,520.54 Z M835.01,501.25 L833.65,503.66 L832.73,508.63 L835.01,501.25 Z M836.81,499.91 L835.95,499.56 L835.47,500.43 L836.81,499.91 Z M865.26,494.77 L864.67,492.76 L863.45,492.37 L865.26,494.77 Z M903.19,518.15 L902.05,517.87 L896.40,518.48 L903.19,518.15 Z M915.19,529.81 L906.72,519.00 L905.92,518.81 L915.19,529.81 Z M815.65,599.12 L804.94,593.02 L805.86,594.06 L815.65,599.12 Z M834.90,586.39 L833.19,587.35 L833.19,583.86 L832.54,587.93 L834.90,586.39 Z M853.63,576.02 L852.87,577.27 L858.56,573.75 L853.63,576.02 Z M802.31,638.35 L803.95,637.39 L804.23,635.89 L802.31,638.35 Z M841.25,534.24 L842.56,534.01 L841.74,533.91 L841.25,534.24 Z M822.00,472.52 L822.22,473.67 L824.26,476.55 L822.00,472.52 Z M833.79,459.55 L826.36,451.27 L829.32,455.63 L833.79,459.55 Z M816.11,473.15 L819.25,468.04 L818.41,468.88 L816.11,473.15 Z M783.59,331.23 L782.60,331.40 L780.24,332.01 L783.59,331.23 Z M785.13,335.85 L787.20,334.63 L786.48,334.54 L785.43,335.68 L783.59,331.23 L785.13,335.85 Z M796.60,340.56 L799.09,339.51 L802.05,334.80 L798.96,339.42 L796.60,340.56 Z M832.67,333.76 L828.00,331.58 L824.19,330.36 L832.67,333.76 Z M835.32,340.88 L835.30,339.95 L832.67,333.76 L835.32,340.88 Z M922.16,331.93 L922.93,331.40 L908.82,329.22 L922.16,331.93 Z M789.50,349.01 L789.33,349.39 L790.02,349.23 L789.50,349.01 Z M787.07,398.27 L789.61,406.94 L789.76,406.46 L787.07,398.27 Z M800.17,356.92 L800.08,355.99 L799.49,354.68 L800.17,356.92 Z M835.36,342.30 L835.34,341.62 L833.26,342.65 L835.36,342.30 Z M788.61,342.67 L788.25,342.74 L788.28,343.25 L788.61,342.67 Z M833.39,308.48 L826.33,303.68 L827.48,305.34 L833.39,308.48 Z M824.78,302.64 L822.19,302.91 L825.39,303.05 L824.78,302.64 Z M774.06,273.87 L775.33,277.24 L774.26,272.09 L774.06,273.87 Z M773.01,268.29 L773.79,269.83 L770.84,255.56 L773.01,268.29 Z M803.30,274.91 L802.90,274.20 L802.90,280.67 L803.30,274.91 Z M801.00,287.29 L800.14,286.07 L800.76,287.91 L801.00,287.29 Z M800.14,289.47 L800.30,289.07 L791.73,297.84 L800.14,289.47 Z M813.21,306.85 L819.40,303.20 L818.08,303.33 L813.55,306.30 L813.21,306.85 Z M808.23,322.16 L810.00,321.29 L809.73,321.13 L808.23,322.16 Z M810.63,317.67 L810.85,317.46 L810.07,312.84 L810.63,317.67 Z M805.89,141.94 L818.67,150.17 L805.89,141.94 L805.89,141.94 Z M839.96,197.85 L824.52,203.87 L834.05,200.64 L839.96,197.85 Z M890.10,241.88 L906.19,246.23 L894.50,243.01 L890.10,241.88 Z M894.14,206.37 L894.30,206.13 L894.08,204.82 L894.14,206.37 Z M890.42,208.49 L892.79,208.31 L893.32,207.54 L890.42,208.49 Z M892.66,238.91 L892.92,239.51 L893.10,238.16 L892.66,238.91 Z M838.06,78.25 L838.32,73.98 L837.41,79.08 L838.06,78.25 Z M842.39,67.61 L842.13,67.17 L842.06,67.80 L842.39,67.61 Z" /></g></svg>