<svg xmlns="http://www.w3.org/2000/svg" viewBox="0 0 1000 1000" width="1000" height="1000"><g fill="#cccccc" stroke="#222" stroke-width="2"><path d="M279.65,591.29 L276.50,586.33 L274.66,585.24 L270.37,578.99 L264.24,573.53 L261.17,573.33 L256.18,567.08 L243.48,556.26 L236.73,557.45 L235.77,555.97 L232.96,556.16 L232.70,552.49 L230.07,549.91 L220.96,547.63 L229.29,538.50 L231.39,532.94 L227.97,527.59 L231.65,524.11 L239.01,521.83 L235.15,517.07 L238.40,512.40 L236.99,510.32 L225.78,504.07 L225.08,486.60 L227.27,480.25 L224.82,474.30 L224.56,469.54 L211.59,457.33 L208.17,451.87 L201.78,447.11 L196.17,446.22 L194.28,443.96 L194.51,444.63 L191.18,444.93 L187.76,447.71 L184.09,445.82 L180.67,446.42 L177.43,451.48 L173.75,451.08 L168.06,454.55 L164.29,451.48 L146.16,456.44 L142.30,455.05 L132.58,456.83 L120.05,455.45 L114.89,459.32 L102.80,463.68 L83.00,449.49 L82.91,435.70 L79.23,432.62 L69.51,431.43 L69.60,423.99 L63.29,421.41 L59.88,413.47 L54.97,412.98 L52.17,407.22 L52.34,403.15 L43.93,397.30 L41.66,397.30 L41.92,393.33 L40.43,389.66 L47.87,380.73 L49.98,375.76 L54.88,371.30 L59.44,369.91 L64.52,362.27 L69.16,353.83 L66.88,351.85 L67.41,349.37 L75.82,334.98 L70.39,330.42 L66.18,329.72 L62.24,315.53 L63.03,311.36 L57.86,306.40 L50.24,292.81 L55.85,284.08 L55.41,282.59 L50.06,282.09 L47.44,278.12 L34.12,272.86 L21.16,277.13 L19.23,268.60 L33.42,248.15 L31.93,243.09 L37.19,234.56 L38.41,224.44 L47.70,222.16 L50.85,219.08 L54.71,219.58 L55.15,214.22 L58.21,208.96 L58.12,205.19 L60.14,204.79 L59.79,201.22 L62.07,197.55 L60.84,190.90 L57.69,189.31 L56.90,186.04 L51.47,182.36 L52.25,179.98 L49.10,173.63 L50.06,169.17 L48.75,163.11 L50.33,157.36 L56.37,150.41 L59.44,141.58 L62.07,139.40 L65.48,139.20 L64.69,135.23 L68.55,130.37 L72.75,128.09 L74.94,123.03 L77.48,121.44 L78.80,119.55 L78.80,115.29 L80.55,113.20 L83.53,113.50 L85.37,105.66 L87.82,107.15 L88.43,106.26 L87.29,98.91 L91.23,95.94 L92.46,91.87 L97.10,90.08 L95.00,80.46 L95.88,77.38 L100.43,77.18 L106.91,71.33 L106.91,75.89 L112.96,76.39 L110.07,72.12 L114.27,71.72 L113.13,67.16 L115.76,64.98 L117.16,67.26 L114.80,69.04 L115.41,70.43 L121.19,68.45 L124.17,72.12 L127.15,71.62 L131.18,73.31 L135.73,80.36 L137.31,90.48 L139.67,95.54 L150.54,100.50 L153.08,108.84 L158.07,114.09 L169.63,117.67 L201.17,150.21 L202.39,152.79 L199.42,156.17 L199.77,161.33 L208.96,167.08 L210.63,173.14 L213.26,174.62 L218.16,174.92 L224.38,172.14 L226.22,173.14 L230.86,180.48 L235.07,182.86 L239.10,191.59 L242.86,195.76 L249.17,199.63 L256.35,209.36 L258.54,216.00 L265.64,222.75 L273.43,240.22 L277.64,245.87 L290.78,255.89 L295.51,265.42 L304.27,271.47 L312.15,278.92 L320.30,294.00 L327.22,297.07 L330.28,291.02 L333.17,291.22 L351.48,312.36 L355.69,317.02 L354.37,324.36 L355.25,325.85 L359.28,327.34 L363.04,321.88 L365.50,321.49 L368.12,324.66 L370.75,332.90 L376.53,334.68 L376.45,334.80 L381.53,335.58 L385.64,340.93 L386.52,344.01 L390.20,349.57 L398.88,355.00 L399.66,351.65 L402.64,349.27 L404.91,349.67 L406.05,353.93 L411.48,354.23 L413.41,352.94 L415.43,347.98 L420.16,345.80 L421.47,341.43 L423.22,340.54 L426.73,342.13 L429.79,341.13 L435.49,343.71 L435.75,340.64 L438.20,340.24 L441.18,337.06 L438.64,331.61 L438.55,327.44 L434.87,322.68 L438.29,317.32 L443.28,317.62 L443.46,316.23 L440.30,313.25 L443.02,310.87 L442.32,306.90 L439.08,303.52 L441.09,300.94 L438.81,298.46 L444.33,297.37 L444.42,295.78 L442.41,294.89 L443.37,293.50 L441.18,290.23 L437.68,289.33 L434.87,285.46 L438.46,282.69 L440.83,283.58 L442.67,282.39 L442.14,278.32 L443.98,274.85 L442.49,274.35 L442.76,270.48 L447.75,265.02 L448.63,255.50 L450.55,253.91 L453.79,245.67 L452.13,241.70 L452.13,239.22 L455.98,235.85 L456.51,229.10 L454.49,225.73 L457.56,219.48 L456.51,210.84 L458.79,207.47 L458.52,198.34 L464.83,185.04 L465.09,180.88 L458.35,177.90 L455.37,172.64 L461.59,158.45 L461.24,154.58 L464.83,145.55 L464.57,138.70 L469.91,132.15 L471.31,127.19 L475.17,124.61 L476.22,121.24 L483.23,114.00 L487.78,105.36 L491.55,105.26 L497.24,100.00 L511.69,106.55 L499.17,100.70 L498.91,96.93 L503.46,95.74 L508.80,90.48 L513.36,73.61 L518.26,68.85 L521.94,61.60 L526.41,59.92 L530.88,51.38 L538.59,50.09 L544.28,52.47 L544.72,51.48 L547.52,58.43 L553.30,56.94 L558.73,52.67 L564.25,52.77 L566.18,49.00 L572.14,47.31 L574.76,41.06 L583.79,42.95 L585.36,42.05 L585.01,40.66 L590.71,37.09 L596.92,42.45 L598.76,39.37 L603.23,36.89 L613.31,35.01 L619.00,31.44 L631.17,39.77 L629.69,37.99 L623.29,34.31 L631.09,29.55 L634.24,25.28 L641.07,22.31 L640.99,19.63 L643.61,19.43 L650.18,23.70 L655.35,19.23 L662.10,23.50 L663.76,23.00 L664.90,23.99 L665.16,30.25 L667.26,33.12 L662.88,43.44 L663.15,51.38 L663.41,54.85 L656.23,74.60 L654.91,83.33 L651.06,86.31 L653.42,85.32 L657.28,91.57 L656.58,96.63 L659.03,100.40 L663.32,103.18 L667.18,109.23 L667.96,112.90 L666.39,120.94 L657.10,127.99 L665.60,121.83 L673.48,122.43 L689.69,132.25 L690.56,129.97 L694.59,132.25 L700.20,132.65 L704.49,130.67 L710.97,130.37 L716.49,134.24 L723.85,139.20 L727.62,139.99 L729.46,145.75 L729.11,158.65 L724.20,165.50 L724.99,167.58 L723.06,171.25 L723.68,172.34 L728.76,175.52 L738.74,185.44 L747.41,188.81 L750.48,189.21 L763.09,185.54 L768.35,182.17 L772.64,183.06 L779.12,181.57 L789.64,202.51 L789.81,203.90 L785.69,207.67 L789.37,212.73 L791.04,219.87 L791.04,222.95 L794.10,227.12 L810.13,240.81 L822.40,245.67 L835.01,248.35 L833.26,250.83 L832.29,257.28 L836.50,263.53 L835.27,266.51 L835.62,272.17 L838.69,286.46 L832.91,288.74 L827.04,288.54 L824.67,285.96 L817.23,284.77 L798.92,288.04 L801.99,288.04 L802.16,296.68 L798.92,302.43 L801.11,310.87 L799.62,315.93 L794.10,324.46 L793.58,333.19 L796.03,335.58 L810.83,338.45 L815.83,353.24 L823.89,360.28 L828.18,365.64 L831.86,365.74 L834.66,368.82 L842.28,371.10 L843.42,375.27 L845.26,376.95 L839.56,381.22 L836.59,384.20 L836.24,388.47 L829.58,396.11 L824.76,397.89 L823.27,400.27 L823.45,410.40 L824.94,413.07 L831.51,423.59 L834.31,424.29 L839.21,435.80 L849.64,439.57 L860.15,440.36 L859.80,446.71 L865.58,455.05 L873.38,455.15 L882.22,462.79 L887.04,464.28 L894.49,470.93 L894.93,472.91 L900.01,472.61 L902.20,475.09 L911.92,479.36 L915.51,486.50 L909.03,497.52 L914.90,504.86 L917.35,506.35 L928.82,504.17 L934.34,506.15 L938.20,509.63 L939.16,513.89 L936.27,516.87 L932.50,517.86 L924.97,528.68 L931.45,534.23 L931.98,538.01 L936.97,543.46 L938.29,552.99 L936.10,557.55 L928.56,562.12 L925.50,566.88 L925.58,569.66 L919.71,574.92 L913.76,574.72 L906.05,581.37 L905.61,584.05 L907.98,587.62 L909.82,591.59 L911.22,602.41 L910.25,608.66 L913.23,616.50 L933.56,613.22 L937.23,606.77 L943.45,607.37 L944.50,609.25 L943.10,615.60 L944.33,621.16 L941.70,627.21 L944.59,630.39 L943.54,634.06 L948.36,639.12 L953.53,640.61 L956.68,636.94 L960.80,636.84 L967.98,633.07 L973.94,634.75 L976.21,637.93 L980.77,639.32 L975.60,644.88 L970.08,646.46 L971.22,649.64 L969.47,650.83 L969.03,654.50 L970.35,662.34 L972.71,665.42 L973.85,673.55 L977.35,679.51 L977.09,683.28 L979.46,686.75 L972.97,680.50 L969.82,682.98 L965.53,681.99 L960.27,683.18 L958.08,681.69 L955.98,675.64 L948.27,677.22 L948.52,674.25 L947.83,676.03 L941.35,680.80 L941.53,691.32 L946.17,697.86 L944.24,700.44 L939.07,702.83 L942.84,713.94 L938.72,719.30 L939.42,729.72 L937.23,738.75 L940.83,744.90 L933.56,747.88 L930.05,754.82 L931.28,759.29 L928.56,761.27 L922.87,771.10 L917.61,767.33 L911.39,765.44 L907.80,757.40 L904.21,755.81 L897.90,748.77 L892.91,747.28 L886.87,734.68 L878.11,730.61 L862.51,717.12 L857.35,714.83 L854.89,712.85 L851.30,706.00 L846.22,702.63 L843.68,695.88 L832.29,690.42 L830.63,687.54 L829.93,676.33 L827.39,672.56 L825.90,673.35 L815.39,672.36 L811.62,664.92 L801.64,658.87 L795.59,658.07 L797.87,654.10 L790.25,664.92 L784.73,667.00 L785.61,670.77 L786.74,671.07 L780.44,674.15 L778.25,680.60 L766.86,682.58 L771.15,688.44 L773.52,697.96 L775.09,697.47 L779.65,700.05 L780.09,705.41 L782.63,708.38 L780.61,718.50 L777.37,719.79 L783.33,728.13 L786.39,740.83 L783.68,741.72 L781.14,740.04 L781.05,741.92 L777.02,744.11 L777.46,747.18 L771.77,754.52 L771.77,762.26 L762.74,766.23 L761.96,775.36 L763.01,785.98 L761.25,790.25 L765.46,791.44 L770.45,795.80 L773.69,803.15 L774.22,808.70 L778.42,809.20 L781.49,812.38 L787.97,824.88 L790.42,824.78 L794.54,831.83 L795.33,839.17 L797.34,842.94 L795.24,846.41 L799.45,852.76 L800.06,865.76 L803.30,867.94 L804.26,876.97 L806.80,882.43 L805.23,891.36 L806.54,896.03 L804.35,900.59 L807.86,905.65 L808.73,910.71 L804.70,920.44 L794.80,926.39 L784.73,935.72 L778.07,936.31 L769.31,944.15 L767.82,956.76 L756.79,968.17 L747.94,971.84 L746.63,976.01 L740.06,980.77 L737.17,976.11 L726.83,969.75 L726.13,963.60 L719.38,957.25 L715.00,942.96 L715.35,937.80 L704.76,935.72 L701.25,933.04 L696.26,932.35 L695.65,930.46 L687.32,929.17 L678.91,916.17 L674.62,919.84 L670.24,922.42 L661.40,924.11 L653.60,924.51 L640.63,915.18 L634.42,914.48 L625.83,908.53 L616.46,906.64 L612.87,910.51 L613.22,914.98 L623.73,921.73 L628.63,930.56 L632.58,932.94 L629.60,944.65 L632.23,954.27 L617.16,964.59 L609.80,964.10 L601.13,968.37 L587.99,965.29 L572.66,964.00 L563.20,959.83 L559.61,960.92 L553.74,959.93 L544.81,953.98 L541.48,949.41 L534.47,946.14 L530.61,947.13 L512.22,939.79 L507.31,942.07 L502.23,950.60 L497.68,951.69 L491.28,950.60 L486.47,946.73 L484.63,947.23 L473.06,941.67 L468.42,941.57 L466.58,939.49 L461.85,942.17 L456.77,939.09 L444.95,936.81 L439.16,937.90 L427.78,929.27 L425.24,921.93 L421.82,918.65 L421.56,916.27 L424.89,913.19 L426.73,911.80 L427.60,906.35 L425.85,899.30 L422.08,892.85 L407.02,880.25 L406.14,875.49 L401.94,868.44 L390.29,856.93 L396.33,852.76 L399.83,844.13 L389.06,830.83 L391.60,824.09 L392.74,808.31 L390.90,805.23 L389.59,795.41 L384.68,788.46 L384.07,784.49 L380.83,782.41 L380.48,777.45 L376.18,775.96 L376.36,769.71 L381.09,758.99 L381.35,751.65 L374.26,735.27 L377.06,731.50 L375.57,728.03 L376.10,720.79 L374.87,716.62 L369.79,717.71 L355.69,713.64 L349.29,702.33 L343.16,701.64 L341.76,700.15 L339.83,697.17 L339.74,693.20 L331.95,683.87 L317.93,681.79 L314.95,679.80 L312.15,675.54 L313.99,672.16 L318.37,668.99 L318.90,659.16 L314.69,655.29 L305.06,652.71 L300.15,638.62 L294.89,635.65 L292.09,632.67 L291.83,627.81 L293.84,622.45 L289.55,610.54 L286.22,608.46 L280.44,598.83 L279.65,591.29 Z M231.39,481.74 L243.65,482.54 L227.27,480.25 L231.39,481.74 Z M629.60,44.63 L630.82,42.95 L631.17,39.77 L629.60,44.63 Z M808.02,249.67 L808.73,248.55 L810.13,240.81 L808.02,249.67 Z M790.60,275.94 L797.08,286.26 L798.92,288.04 L790.60,275.94 Z M507.49,194.53 L507.31,194.37 L501.09,196.46 L507.49,194.53 Z M521.07,200.03 L516.69,196.26 L514.50,195.66 L521.07,200.03 Z M546.38,202.31 L550.41,200.62 L553.48,195.86 L550.85,199.73 L546.38,202.31 Z M539.02,248.45 L545.59,235.65 L545.67,235.38 L539.02,248.45 Z M505.83,277.23 L507.93,276.14 L508.03,275.85 L505.83,277.23 Z M503.02,287.15 L503.46,284.67 L502.76,280.01 L503.02,287.15 Z M481.41,334.16 L482.26,334.29 L488.74,329.23 L481.41,334.16 Z M473.95,331.54 L475.60,333.29 L477.98,333.65 L473.95,331.54 Z M498.16,385.66 L497.85,384.99 L491.81,377.65 L498.16,385.66 Z M482.17,391.05 L479.70,389.20 L485.68,395.91 L482.17,391.05 Z M474.58,382.29 L474.82,383.70 L475.68,384.67 L474.58,382.29 Z M454.23,407.62 L458.70,414.07 L453.09,404.74 L454.23,407.62 Z M469.65,432.92 L476.04,436.49 L464.66,429.05 L469.65,432.92 Z M465.09,434.81 L464.64,436.05 L469.65,432.92 L465.09,434.81 Z M527.29,488.89 L529.11,488.76 L524.40,487.20 L527.29,488.89 Z M619.40,537.36 L619.40,537.36 L616.72,533.24 L619.40,537.36 Z M620.05,547.83 L621.82,548.48 L619.98,546.64 L620.05,547.83 Z M631.26,575.71 L648.29,582.67 L648.08,582.46 L636.26,576.80 L631.26,575.71 Z M619.26,614.81 L620.53,615.27 L618.92,613.63 L619.26,614.81 Z M638.53,614.41 L643.96,621.66 L633.98,606.18 L638.53,614.41 Z M654.77,632.08 L653.34,628.01 L649.83,623.74 L654.77,632.08 Z M655.34,636.29 L655.88,635.25 L655.70,634.74 L655.34,636.29 Z M639.23,706.89 L640.63,705.90 L642.12,701.14 L639.23,706.89 Z M630.91,713.94 L629.42,715.23 L639.23,710.57 L630.91,713.94 Z M613.31,899.50 L614.79,905.85 L614.62,902.97 L613.31,899.50 Z M495.23,277.82 L501.01,276.24 L494.74,277.25 L495.23,277.82 Z M372.85,452.37 L378.81,443.84 L371.32,453.21 L372.85,452.37 Z M363.13,469.44 L369.31,455.95 L367.86,457.93 L363.13,469.44 Z M341.32,524.31 L340.27,510.92 L340.79,525.97 L341.32,524.31 Z M347.10,537.71 L339.57,529.77 L342.98,533.64 L347.10,537.71 Z M400.27,582.56 L386.66,573.95 L387.83,575.32 L400.27,582.56 Z M413.54,599.10 L412.89,593.28 L412.45,600.62 L413.54,599.10 Z M417.86,604.24 L416.92,603.00 L412.45,600.62 L417.86,604.24 Z M418.67,588.02 L419.46,589.60 L419.11,585.35 L418.67,588.02 Z M419.73,578.22 L420.24,578.49 L419.60,582.39 L421.47,576.41 L419.73,578.22 Z M461.43,548.14 L452.39,554.28 L461.43,548.14 L461.43,548.14 Z M465.44,554.77 L462.26,549.51 L465.28,556.22 L465.44,554.77 Z M480.95,577.80 L478.06,575.71 L483.01,581.04 L480.95,577.80 Z M484.54,583.45 L483.42,581.69 L485.85,588.91 L484.54,583.45 Z M491.55,592.09 L490.40,591.77 L492.95,593.38 L491.55,592.09 Z M499.17,657.87 L496.36,647.75 L499.17,658.31 L499.17,657.87 Z M547.70,734.08 L547.84,733.27 L544.10,739.44 L547.70,734.08 Z M102.36,337.16 L106.91,340.74 L113.54,343.53 L102.36,337.16 Z M166.22,331.21 L163.06,329.32 L168.06,333.00 L166.11,330.65 L166.22,331.21 Z M176.45,329.96 L177.17,329.13 L176.72,327.42 L176.45,329.96 Z M206.95,302.63 L216.79,293.38 L210.36,298.66 L206.95,302.63 Z M234.02,315.73 L234.93,320.54 L235.07,320.20 L234.02,315.73 Z M263.18,347.09 L263.61,347.61 L263.00,346.61 L263.18,347.09 Z M289.36,356.16 L300.15,357.11 L289.55,356.12 L289.36,356.16 Z M369.44,577.80 L377.50,587.02 L368.65,576.80 L361.82,574.03 L369.44,577.80 Z M349.30,585.43 L348.68,585.24 L340.18,589.80 L349.30,585.43 Z M243.48,372.29 L244.79,364.25 L244.09,368.02 L243.48,372.29 Z M273.20,519.78 L267.92,512.80 L271.42,518.46 L273.20,519.78 Z M299.89,542.07 L296.65,537.41 L300.03,544.14 L299.89,542.07 Z M327.22,553.78 L322.57,561.42 L331.25,549.91 L331.45,550.17 L331.75,549.40 L327.22,553.78 Z M332.45,551.41 L336.41,556.36 L333.44,551.80 L332.45,551.41 Z M352.27,564.10 L347.45,564.30 L343.60,562.81 L346.58,564.50 L352.27,564.10 Z M276.59,490.77 L282.54,492.76 L288.68,492.66 L280.18,491.76 L268.00,486.21 L276.59,490.77 Z M161.84,353.64 L166.74,350.02 L165.95,349.77 L161.06,353.67 L161.84,353.64 Z M174.54,352.54 L167.49,350.26 L167.88,350.76 L174.54,352.54 Z M191.62,346.49 L190.31,352.84 L190.71,353.64 L191.62,346.49 Z M197.80,372.81 L199.06,370.80 L199.15,366.28 L197.77,372.77 L197.80,372.81 Z M210.55,393.21 L199.85,380.73 L210.01,393.03 L210.55,393.21 Z M220.88,397.40 L215.36,396.60 L210.10,396.21 L220.88,397.40 Z M207.30,398.39 L207.18,398.84 L210.10,396.21 L207.30,398.39 Z M157.46,381.52 L157.46,389.06 L157.72,390.25 L157.46,381.52 Z M250.22,361.38 L248.13,362.49 L257.93,359.69 L250.22,361.38 Z M341.00,367.49 L337.38,369.41 L341.00,367.49 L341.00,367.49 Z M340.18,374.57 L340.82,369.06 L339.74,371.50 L340.18,374.57 Z M98.86,178.30 L100.34,183.75 L102.10,184.94 L99.91,181.57 L98.86,178.30 Z M120.32,180.98 L124.52,176.01 L115.85,184.35 L120.32,180.98 Z M133.15,189.35 L133.28,188.22 L125.31,181.97 L133.15,189.35 Z M132.82,192.22 L132.23,193.97 L136.52,214.02 L132.75,192.78 L132.82,192.22 Z M125.93,196.88 L129.25,196.16 L132.23,193.97 L125.93,196.88 Z M280.00,302.33 L276.06,305.41 L287.71,297.77 L280.00,302.33 Z M264.24,333.29 L261.52,342.72 L261.81,343.47 L264.24,333.29 Z M108.58,268.30 L104.11,265.52 L125.57,281.50 L108.58,268.30 Z M152.90,295.78 L140.29,304.32 L151.33,297.17 L152.90,295.78 Z M200.20,300.85 L187.33,292.71 L197.40,300.25 L200.20,300.85 Z M146.68,250.04 L155.62,251.03 L156.07,250.91 L146.68,250.04 Z M121.89,197.75 L122.25,197.67 L120.85,197.51 L121.89,197.75 Z M97.28,149.96 L97.72,155.87 L97.72,151.01 L97.28,149.96 Z M105.34,181.77 L105.34,179.39 L97.72,155.87 L105.34,181.77 Z M408.24,706.89 L400.18,707.89 L404.48,707.69 L408.24,706.89 Z M410.61,702.53 L413.76,692.21 L408.24,706.89 L410.61,702.53 Z M432.02,719.13 L426.46,717.71 L430.58,719.40 L432.02,719.13 Z M420.02,607.09 L418.93,617.79 L420.16,607.27 L420.02,607.09 Z M424.71,665.12 L421.73,668.39 L428.39,661.45 L424.71,665.12 Z M428.32,657.65 L427.60,658.97 L428.39,661.45 L428.32,657.65 Z M429.14,656.16 L454.67,640.01 L429.88,654.80 L429.14,656.16 Z M469.74,686.35 L466.49,687.15 L462.55,689.43 L469.74,686.35 Z M465.12,613.30 L464.92,609.35 L464.30,612.82 L465.12,613.30 Z M450.99,588.51 L452.22,589.70 L450.24,586.95 L450.99,588.51 Z M448.19,582.66 L449.81,586.04 L448.28,580.42 L448.19,582.66 Z M402.91,358.25 L405.70,371.20 L403.34,358.60 L402.91,358.25 Z M399.40,373.48 L396.16,375.86 L405.70,371.20 L399.40,373.48 Z M395.28,375.11 L401.85,383.31 L396.16,375.86 L395.28,375.11 Z M402.29,385.79 L401.87,386.25 L403.86,390.05 L401.85,383.31 L402.29,385.79 Z M409.10,357.47 L417.09,355.92 L411.13,356.12 L409.10,357.47 Z M422.00,350.86 L424.42,349.62 L424.01,349.27 L422.00,350.86 Z M424.76,349.91 L424.89,351.06 L425.92,350.90 L424.76,349.91 Z M507.84,521.14 L506.88,525.50 L506.70,527.88 L507.84,521.14 Z M498.16,569.70 L497.07,569.76 L496.74,571.25 L498.16,569.70 Z M496.35,572.98 L496.01,574.52 L497.42,580.28 L496.35,572.98 Z M441.92,436.71 L441.00,436.10 L442.06,439.67 L441.92,436.71 Z M447.92,436.89 L444.86,433.62 L446.17,435.50 L447.92,436.89 Z M438.62,404.97 L437.21,404.91 L437.76,405.14 L438.62,404.97 Z M452.83,473.60 L447.22,473.21 L442.23,473.21 L452.83,473.60 Z M456.77,478.67 L456.25,477.57 L452.83,473.60 L456.77,478.67 Z M457.30,480.15 L456.60,486.41 L456.60,493.95 L457.30,480.15 Z M435.74,520.49 L435.92,520.64 L442.76,523.52 L435.74,520.49 Z M416.92,576.70 L418.24,577.41 L411.57,569.26 L416.92,576.70 Z M466.76,510.82 L466.58,504.37 L466.23,518.85 L466.76,510.82 Z M435.84,446.22 L438.29,448.60 L444.16,450.68 L435.84,446.22 Z M455.11,447.11 L466.23,451.58 L463.25,449.29 L455.11,447.11 Z M469.03,446.32 L472.98,450.09 L463.25,439.87 L469.03,446.32 Z M464.39,438.78 L464.07,437.62 L463.25,439.87 L464.39,438.78 Z M397.33,396.41 L397.21,396.60 L398.08,400.67 L397.33,396.41 Z M431.63,398.49 L434.43,403.75 L435.37,404.14 L431.63,398.49 Z M464.57,321.58 L471.06,328.48 L469.74,325.95 L464.57,321.58 Z M580.27,717.33 L579.67,718.01 L579.41,720.38 L580.27,717.33 Z M520.59,863.91 L527.11,869.43 L522.38,864.47 L520.59,863.91 Z M553.36,847.31 L553.83,836.09 L552.51,845.92 L553.36,847.31 Z M540.95,806.62 L541.30,803.25 L540.61,802.21 L540.95,806.62 Z M591.37,883.36 L590.88,882.83 L585.36,879.46 L591.37,883.36 Z M486.99,791.14 L488.27,790.24 L484.32,791.26 L486.99,791.14 Z M492.51,787.27 L492.40,785.79 L490.59,788.62 L492.51,787.27 Z M533.77,577.70 L527.02,583.75 L538.24,574.22 L533.77,577.70 Z M576.78,565.89 L573.01,570.16 L573.45,570.45 L576.78,565.89 Z M570.05,554.60 L573.27,561.82 L571.61,556.56 L570.05,554.60 Z M622.74,685.57 L631.70,700.84 L623.73,686.45 L622.74,685.57 Z M592.28,545.84 L602.50,550.00 L601.74,549.22 L592.28,545.84 Z M604.33,551.89 L610.15,562.32 L605.86,553.48 L604.33,551.89 Z M646.68,742.91 L634.50,747.08 L647.11,743.73 L646.68,742.91 Z M601.60,69.30 L602.46,68.87 L601.92,68.65 L601.60,69.30 Z M600.25,76.49 L600.59,71.32 L599.99,72.52 L600.25,76.49 Z M586.75,87.04 L594.73,86.01 L588.25,86.01 L586.75,87.04 Z M582.65,83.53 L583.00,91.17 L584.69,88.44 L583.43,89.29 L582.65,83.53 Z M594.30,117.37 L588.25,108.24 L591.93,115.19 L594.30,117.37 Z M600.14,125.33 L595.87,122.43 L600.14,125.33 L600.14,125.33 Z M602.36,123.22 L601.97,123.80 L603.33,123.16 L602.36,123.22 Z M625.48,134.64 L622.15,130.67 L608.56,122.04 L608.14,122.83 L607.01,122.90 L620.58,129.87 L625.48,134.64 Z M639.32,189.81 L631.08,196.81 L631.96,196.46 L639.32,189.81 Z M650.80,212.43 L650.06,212.37 L653.42,216.70 L650.80,212.43 Z M651.50,225.83 L656.58,217.89 L653.86,221.86 L648.43,228.01 L651.50,225.83 Z M711.33,191.33 L711.33,191.33 L712.03,194.67 L711.33,191.33 Z M698.05,246.01 L700.33,239.41 L698.36,242.90 L698.05,246.01 Z M697.48,254.49 L697.48,251.74 L697.31,253.51 L697.48,254.49 Z M702.83,278.22 L710.01,271.37 L709.05,271.89 L709.22,271.97 L702.83,278.22 Z M694.07,306.20 L691.88,305.31 L688.70,305.68 L694.07,306.20 Z M694.24,311.66 L694.51,308.78 L694.07,306.20 L694.24,311.66 Z M689.51,341.33 L695.73,338.06 L701.25,336.87 L696.78,336.97 L689.51,341.33 Z M704.67,342.22 L703.18,341.53 L705.39,342.92 L704.67,342.22 Z M703.27,363.46 L708.78,356.91 L700.11,365.44 L703.27,363.46 Z M729.19,364.55 L728.41,368.22 L728.41,370.41 L729.19,364.55 Z M730.07,413.37 L730.31,412.50 L728.72,413.64 L730.07,413.37 Z M700.75,468.65 L702.21,467.95 L699.36,467.73 L700.75,468.65 Z M662.97,469.93 L663.32,449.79 L662.53,451.28 L662.97,469.93 Z M688.90,545.55 L687.29,541.13 L687.29,541.13 L688.90,545.55 Z M720.61,584.15 L709.13,576.70 L727.00,588.41 L720.61,584.15 Z M745.05,592.58 L734.19,586.93 L746.54,594.27 L745.05,592.58 Z M713.12,628.56 L713.86,627.91 L713.34,627.81 L713.12,628.56 Z M717.19,639.12 L712.72,629.91 L712.55,630.49 L717.19,639.12 Z M710.01,650.13 L709.40,646.17 L707.47,643.09 L710.01,650.13 Z M732.44,695.78 L735.94,694.09 L731.17,695.36 L733.34,696.74 L732.44,695.78 Z M741.98,705.90 L737.77,701.44 L739.18,704.02 L741.98,705.90 Z M739.30,748.42 L739.39,745.82 L738.83,747.98 L739.30,748.42 Z M682.42,760.58 L685.48,752.54 L685.22,750.26 L677.16,748.97 L685.31,751.05 L682.42,760.58 Z M713.16,791.14 L709.84,789.95 L713.29,791.78 L713.16,791.14 Z M714.30,796.80 L713.91,794.83 L714.01,796.97 L714.30,796.80 Z M599.82,240.61 L599.11,245.48 L599.38,247.96 L599.82,240.61 Z M611.99,275.74 L610.55,281.09 L611.99,278.32 L611.99,275.74 Z M608.98,284.13 L597.28,299.46 L607.61,286.75 L608.98,284.13 Z M596.66,302.43 L596.93,303.33 L597.28,299.46 L596.66,302.43 Z M598.58,308.80 L599.55,312.06 L602.45,316.00 L598.58,308.80 Z M656.05,324.36 L657.28,328.43 L655.00,336.47 L657.63,327.84 L656.05,324.36 Z M663.94,349.77 L662.27,348.58 L665.87,353.77 L663.94,349.77 Z M655.61,348.97 L654.39,346.99 L652.34,346.71 L655.61,348.97 Z M649.59,346.33 L648.61,346.19 L646.35,347.92 L649.59,346.33 Z M638.95,353.56 L636.26,355.62 L635.48,356.71 L638.95,353.56 Z M633.89,467.65 L641.34,470.93 L638.01,468.64 L633.89,467.65 Z M593.51,496.22 L593.25,496.23 L591.84,498.71 L593.51,496.22 Z M590.53,189.91 L582.82,175.52 L585.54,182.36 L590.53,189.91 Z M591.67,407.72 L600.60,405.53 L589.83,407.91 L591.67,407.72 Z M594.27,477.63 L594.21,476.48 L592.02,473.31 L594.27,477.63 Z M591.76,480.35 L594.38,479.96 L594.34,479.13 L591.76,480.35 Z M519.58,371.70 L519.65,370.06 L518.70,372.44 L519.58,371.70 Z M533.58,270.97 L532.28,273.85 L532.70,276.99 L533.58,270.97 Z M533.21,280.72 L533.51,282.88 L536.40,289.14 L533.21,280.72 Z M599.55,230.89 L596.57,224.14 L599.60,232.58 L599.55,230.89 Z M551.29,153.99 L552.78,150.61 L547.89,157.25 L551.29,153.99 Z M669.15,875.54 L666.65,879.55 L668.75,876.68 L669.15,875.54 Z M670.68,864.97 L670.47,871.75 L671.38,869.14 L670.68,864.97 Z M653.86,846.71 L655.44,847.30 L653.56,845.52 L653.86,846.71 Z M653.16,843.93 L653.37,844.76 L653.82,843.10 L653.16,843.93 Z M683.38,404.64 L687.68,402.07 L671.82,408.51 L683.38,404.64 Z M694.51,402.06 L692.58,400.08 L691.66,400.45 L694.51,402.06 Z M672.60,668.05 L664.64,654.80 L669.10,663.73 L672.60,668.05 Z M667.46,549.26 L669.54,547.93 L667.44,548.62 L667.46,549.26 Z M672.08,542.57 L680.40,540.68 L674.97,541.08 L672.08,542.57 Z M653.25,594.47 L650.71,585.04 L649.82,584.17 L653.25,594.47 Z M676.95,314.82 L676.11,314.84 L676.37,313.89 L673.48,318.51 L676.95,314.82 Z M674.97,307.30 L676.84,312.14 L677.07,311.26 L674.97,307.30 Z M667.82,357.80 L667.86,358.30 L667.96,358.10 L667.82,357.80 Z M666.83,366.83 L665.34,369.51 L665.78,370.40 L666.83,366.83 Z M645.89,247.86 L648.96,242.50 L649.35,241.61 L645.89,247.86 Z M658.24,241.85 L666.74,243.49 L658.85,241.80 L658.24,241.85 Z M672.80,247.20 L676.46,251.13 L673.40,247.56 L672.80,247.20 Z M652.78,233.84 L653.16,232.97 L652.72,231.48 L652.78,233.84 Z M638.55,156.66 L637.14,156.66 L638.09,157.36 L638.55,156.66 Z M649.83,174.43 L649.41,173.97 L650.25,176.01 L649.83,174.43 Z M666.04,168.87 L664.90,169.34 L667.53,170.36 L666.04,168.87 Z M670.15,190.60 L668.98,193.75 L670.34,191.52 L670.15,190.60 Z M670.36,191.61 L669.28,195.56 L670.68,193.18 L670.36,191.61 Z M666.48,200.42 L657.63,212.13 L657.36,213.58 L666.48,200.42 Z M609.66,119.98 L612.52,116.28 L614.44,111.02 L609.66,119.98 Z M600.17,89.78 L604.02,88.39 L599.16,89.08 L600.17,89.78 Z M619.79,83.33 L615.67,83.43 L614.36,84.13 L619.79,83.33 Z M789.90,638.53 L793.55,642.27 L793.40,641.01 L789.90,638.53 Z M806.89,629.69 L811.45,627.31 L813.37,625.23 L806.89,629.69 Z M833.40,613.85 L834.05,611.34 L833.08,602.11 L833.40,613.85 Z M860.09,619.34 L860.68,618.88 L859.87,615.84 L860.09,619.34 Z M859.47,609.54 L859.89,606.77 L858.75,598.02 L859.47,609.54 Z M858.67,596.74 L862.78,600.42 L858.67,596.74 L858.67,596.74 Z M903.92,590.03 L904.12,590.20 L904.46,589.98 L903.92,590.03 Z M737.25,828.05 L744.87,818.53 L735.58,828.79 L737.25,828.05 Z M854.11,643.88 L855.05,643.26 L849.81,643.39 L844.03,643.19 L854.11,643.88 Z M858.22,643.19 L857.64,643.20 L863.04,646.66 L858.22,643.19 Z M886.34,645.27 L880.85,645.01 L889.58,646.66 L886.34,645.27 Z M908.96,642.04 L909.11,640.34 L908.59,641.11 L908.96,642.04 Z M833.26,620.27 L833.92,621.60 L833.29,619.24 L833.26,620.27 Z M858.92,620.27 L859.38,619.91 L856.12,617.98 L858.92,620.27 Z M877.53,644.24 L870.92,633.86 L876.44,643.98 L877.53,644.24 Z M811.10,534.23 L802.07,524.81 L814.42,538.20 L811.10,534.23 Z M822.75,518.56 L823.18,520.44 L823.32,518.52 L822.75,518.56 Z M832.46,518.03 L829.70,518.18 L832.03,518.26 L832.46,518.03 Z M835.62,523.52 L835.24,522.05 L835.45,543.07 L835.62,523.52 Z M773.52,589.90 L776.41,595.56 L777.40,595.77 L773.52,589.90 Z M771.80,392.64 L771.07,395.21 L771.77,393.97 L771.80,392.64 Z M764.06,263.44 L763.62,266.02 L764.41,268.69 L764.06,263.44 Z M768.00,269.39 L768.86,268.46 L764.41,268.69 L768.00,269.39 Z M775.44,258.38 L771.70,265.40 L773.43,263.53 L775.44,258.38 Z M770.66,386.17 L771.87,390.14 L771.94,387.47 L770.66,386.17 Z M773.69,390.55 L782.01,386.38 L779.04,387.57 L773.69,390.55 Z M805.58,253.51 L806.30,252.37 L802.75,253.99 L805.58,253.51 Z" /></g></svg>