<svg xmlns="http://www.w3.org/2000/svg" viewBox="0 0 1000 1000" width="1000" height="1000"><g fill="#cccccc" stroke="#222" stroke-width="2"><path d="M470.65,597.27 L463.12,581.13 L442.69,576.68 L427.17,567.78 L425.94,563.70 L401.82,545.53 L391.98,545.53 L386.30,542.00 L379.39,542.37 L374.01,533.29 L365.71,532.55 L350.50,529.58 L323.61,517.90 L325.92,513.82 L318.85,501.58 L311.16,499.72 L308.09,491.56 L295.03,484.52 L262.46,457.07 L250.17,450.95 L254.47,443.72 L251.55,433.15 L238.03,427.77 L228.35,412.75 L228.81,404.03 L215.13,400.88 L213.44,396.61 L216.21,393.09 L215.29,390.68 L185.63,355.07 L169.96,346.17 L161.66,346.54 L139.23,338.57 L126.94,325.22 L123.56,318.54 L124.48,310.75 L107.12,282.94 L97.75,279.04 L86.38,283.12 L75.16,282.94 L62.41,270.88 L55.03,275.52 L50.27,272.74 L53.49,259.38 L42.59,250.30 L36.44,253.26 L28.30,240.47 L30.29,218.96 L23.38,208.94 L19.23,189.84 L50.11,197.82 L62.71,194.66 L78.08,175.38 L105.89,186.32 L115.72,192.44 L137.08,215.06 L143.84,217.47 L146.30,213.58 L168.12,232.68 L172.73,233.79 L175.34,242.32 L179.18,244.55 L184.40,254.01 L200.69,267.54 L216.67,288.31 L220.36,288.68 L224.97,293.88 L239.56,295.36 L249.09,285.72 L254.01,283.12 L262.92,266.06 L280.13,259.38 L297.49,251.04 L303.02,244.36 L303.33,239.54 L310.55,234.90 L306.71,235.46 L291.19,215.99 L283.05,197.82 L276.75,193.36 L280.59,182.24 L273.06,176.12 L267.22,167.03 L268.45,159.61 L262.30,155.53 L261.08,149.97 L254.31,146.82 L252.62,142.00 L256.93,139.96 L249.24,133.47 L250.47,131.24 L255.39,133.09 L259.69,124.56 L257.08,124.56 L252.93,114.55 L250.63,116.03 L248.78,112.70 L244.17,115.85 L238.95,109.73 L238.95,99.16 L256.62,97.49 L262.15,101.20 L269.37,97.49 L278.74,104.17 L290.73,105.83 L299.79,116.03 L304.56,115.85 L303.79,120.48 L311.93,121.78 L307.48,135.13 L307.94,146.45 L324.53,148.67 L331.91,152.94 L330.22,172.41 L332.21,181.31 L348.04,180.38 L347.58,173.34 L352.80,159.98 L351.11,154.24 L349.12,143.67 L344.81,140.70 L346.20,131.05 L343.58,124.19 L347.89,124.01 L340.97,106.21 L342.97,101.75 L341.89,95.45 L351.73,92.67 L352.04,89.14 L348.19,86.92 L340.36,47.42 L349.58,42.23 L357.26,45.38 L372.78,40.56 L379.08,52.80 L387.53,51.87 L397.21,31.10 L395.21,20.90 L402.59,19.23 L405.35,32.58 L415.03,50.01 L427.02,65.59 L443.76,75.79 L446.68,80.80 L450.22,86.18 L460.36,87.10 L461.74,81.91 L468.35,79.50 L481.72,81.17 L489.40,70.97 L502.77,70.41 L511.52,85.44 L514.75,86.92 L519.82,101.57 L529.04,106.02 L540.26,126.42 L548.71,136.80 L548.91,140.36 L556.24,141.44 L560.69,149.23 L559.92,154.42 L571.60,169.81 L583.12,170.18 L586.66,163.32 L591.42,169.63 L593.73,169.44 L600.79,188.36 L607.09,188.36 L615.08,181.31 L623.53,180.20 L625.38,198.74 L631.52,202.64 L649.19,202.27 L651.65,206.90 L649.35,218.77 L641.82,235.46 L625.22,249.00 L624.30,254.75 L657.95,272.74 L671.17,281.45 L696.52,315.94 L700.67,329.30 L700.36,340.61 L696.21,355.44 L695.44,357.67 L692.98,365.83 L694.37,373.62 L706.50,384.00 L721.41,392.16 L738.00,396.80 L758.75,397.73 L769.96,395.32 L784.56,387.53 L788.71,388.45 L794.55,394.57 L798.08,408.11 L795.93,412.56 L790.24,415.16 L771.34,414.97 L767.50,418.68 L767.66,429.07 L779.49,446.50 L795.62,458.18 L811.56,458.36 L812.06,457.07 L830.50,443.53 L837.88,436.11 L842.95,428.88 L853.55,396.43 L857.08,391.42 L867.22,388.83 L871.52,396.98 L879.21,442.05 L884.74,458.55 L892.27,460.41 L946.81,439.08 L954.80,440.94 L971.24,517.15 L972.32,555.73 L977.08,589.48 L980.77,609.14 L978.16,624.90 L971.55,632.13 L963.71,641.59 L957.88,654.94 L946.20,686.47 L944.35,700.19 L942.66,724.67 L937.75,741.73 L931.76,749.70 L924.53,754.34 L915.93,757.12 L912.40,758.42 L906.71,762.50 L901.95,766.58 L898.11,774.74 L895.80,796.81 L895.03,808.86 L892.11,830.56 L883.36,861.16 L871.52,900.47 L868.30,916.05 L867.84,927.18 L862.20,926.38 L862.61,928.29 L845.86,972.80 L835.72,980.77 L830.35,980.58 L823.74,975.76 L789.01,934.96 L779.80,924.02 L768.58,911.41 L767.81,906.22 L759.36,906.78 L758.75,894.72 L761.05,881.00 L766.89,868.76 L774.42,861.16 L781.64,859.12 L793.93,858.93 L803.30,852.26 L816.06,827.59 L826.97,784.01 L834.80,766.21 L838.49,744.88 L832.19,737.65 L782.72,746.74 L776.42,750.45 L771.81,748.59 L752.75,751.19 L748.76,749.89 L742.77,740.99 L738.31,739.69 L717.87,735.24 L712.04,737.65 L710.50,733.94 L695.29,734.68 L683.30,738.76 L659.95,738.02 L648.27,723.93 L640.44,723.00 L632.14,708.72 L614.47,693.33 L606.48,674.41 L601.87,673.30 L600.33,668.85 L594.49,665.33 L585.58,666.99 L582.20,664.03 L555.47,639.55 L544.71,639.73 L534.88,632.32 L529.35,634.17 L523.35,631.76 L495.54,604.68 L482.48,597.82 L470.65,597.27 Z M319.62,242.88 L324.42,244.36 L310.55,234.90 L319.62,242.88 Z M620.50,215.01 L621.84,214.88 L631.52,202.64 L620.50,215.01 Z M610.17,259.94 L601.26,264.58 L624.30,254.75 L610.17,259.94 Z M689.30,357.48 L674.29,362.90 L695.44,357.67 L689.30,357.48 Z M689.76,381.41 L683.61,396.98 L694.37,373.62 L689.76,381.41 Z M856.01,462.63 L854.01,453.73 L842.95,428.88 L856.01,462.63 Z M920.92,539.25 L927.15,552.57 L938.36,572.23 L971.55,632.13 L920.92,539.25 Z M922.69,583.54 L927.30,580.58 L938.36,572.23 L922.69,583.54 Z M913.01,609.51 L898.72,578.72 L946.20,686.47 L913.01,609.51 Z M800.84,890.09 L800.69,889.90 L779.80,924.02 L800.84,890.09 Z M542.29,162.61 L543.79,162.58 L544.24,163.24 L544.72,159.29 L542.29,162.61 Z M585.58,212.47 L586.26,212.49 L585.18,211.98 L585.58,212.47 Z M590.81,212.65 L589.12,206.53 L589.61,212.61 L590.81,212.65 Z M655.03,315.94 L652.73,306.12 L668.86,302.04 L652.23,304.55 L655.03,315.94 Z M653.11,316.13 L653.34,316.69 L655.03,315.94 L653.11,316.13 Z M669.78,325.77 L666.86,319.65 L665.49,319.50 L669.78,325.77 Z M658.57,330.97 L677.16,322.81 L669.78,325.77 L658.57,330.97 Z M669.01,437.78 L666.25,437.97 L672.55,438.15 L669.01,437.78 Z M665.20,437.34 L669.48,449.65 L666.25,437.97 L665.20,437.34 Z M651.04,475.06 L656.26,474.87 L660.76,472.61 L658.26,472.83 L651.04,475.06 Z M693.60,605.98 L697.54,608.43 L687.15,596.15 L693.60,605.98 Z M668.86,625.64 L672.39,632.50 L668.25,622.30 L668.86,625.64 Z M660.06,399.40 L682.46,399.95 L682.46,399.95 L660.10,399.40 L660.06,399.40 Z M658.26,391.05 L653.34,370.47 L646.53,342.68 L646.52,342.68 L660.10,399.40 L658.26,391.05 Z M522.13,490.26 L494.47,460.04 L529.50,499.91 L522.13,490.26 Z M562.54,586.70 L550.86,588.55 L505.22,597.45 L562.54,586.70 Z M487.55,242.69 L495.39,233.05 L502.00,218.77 L500.92,221.00 L487.55,242.69 Z M489.24,247.89 L489.09,245.10 L498.46,246.22 L487.55,242.69 L489.24,247.89 Z M472.32,327.77 L474.80,315.94 L471.57,323.92 L472.32,327.77 Z M488.17,332.63 L483.87,326.89 L490.78,338.20 L488.17,332.63 Z M535.80,420.17 L535.10,419.85 L533.34,427.03 L535.80,420.17 Z M534.15,436.81 L536.26,429.81 L533.19,435.74 L534.15,436.81 Z M482.79,445.76 L483.46,443.94 L481.61,446.56 L482.79,445.76 Z M475.70,461.57 L471.42,453.55 L475.70,461.57 L475.70,461.57 Z M281.82,264.21 L294.57,276.82 L294.76,276.89 L281.82,264.21 Z M301.18,279.41 L301.93,285.37 L303.02,284.98 L301.18,279.41 Z M311.87,289.55 L313.78,290.54 L314.51,290.07 L311.87,289.55 Z M365.71,270.88 L369.83,262.07 L368.78,262.35 L365.71,270.88 Z M375.70,265.32 L372.62,272.92 L373.25,277.46 L375.70,265.32 Z M438.69,259.01 L438.08,259.68 L442.38,264.39 L443.49,264.81 L438.69,259.01 Z M452.68,291.47 L455.75,301.48 L454.21,294.99 L452.68,291.47 Z M337.75,386.60 L341.89,374.55 L346.35,366.94 L341.89,371.76 L337.75,386.60 Z M370.56,334.61 L391.37,361.19 L371.70,335.79 L393.98,334.30 L370.56,334.61 Z M411.53,370.43 L411.82,367.84 L411.04,369.72 L411.53,370.43 Z M420.10,358.23 L414.88,360.45 L414.01,362.55 L420.10,358.23 Z M435.19,328.72 L438.69,330.04 L444.84,331.15 L436.54,328.18 L435.19,328.72 Z M421.18,435.93 L405.66,442.60 L394.75,447.61 L421.18,435.93 Z M431.39,437.30 L430.86,436.30 L421.18,435.93 L431.39,437.30 Z M443.93,544.91 L445.15,543.49 L444.99,533.84 L443.93,544.91 Z M377.62,492.39 L376.16,497.31 L376.35,498.57 L377.62,492.39 Z M440.47,377.62 L440.69,376.96 L439.77,365.27 L440.47,377.62 Z M426.56,386.04 L428.30,386.10 L414.65,374.86 L417.95,379.55 L426.56,386.04 Z M430.40,311.31 L431.17,321.14 L431.63,323.55 L430.40,311.31 Z M365.56,310.38 L358.49,293.88 L366.32,315.39 L365.56,310.38 Z M361.32,320.57 L360.64,319.84 L354.65,317.43 L361.32,320.57 Z M364.63,324.10 L363.57,322.97 L362.79,330.22 L364.63,324.10 Z M329.03,333.84 L330.83,335.05 L330.38,334.20 L329.03,333.84 Z M413.34,204.86 L411.78,205.15 L412.75,207.43 L429.26,183.57 L423.02,190.77 L413.34,204.86 Z M414.11,210.61 L421.58,214.12 L412.78,207.50 L414.11,210.61 Z M432.70,247.33 L431.63,239.36 L431.33,238.67 L432.70,247.33 Z M461.28,255.12 L457.59,253.45 L469.88,261.98 L461.28,255.12 Z M339.22,248.88 L338.98,249.55 L340.67,255.67 L339.22,248.88 Z M391.11,270.02 L389.99,266.62 L385.22,260.50 L391.11,270.02 Z M404.11,187.84 L398.90,188.54 L402.28,189.66 L404.11,187.84 Z M382.77,154.98 L383.23,159.06 L384.46,157.57 L382.77,154.98 Z M389.68,144.04 L389.32,144.41 L395.06,144.41 L389.68,144.04 Z M463.59,147.93 L459.60,150.18 L461.28,150.90 L463.59,147.93 Z M470.50,207.83 L470.50,210.80 L472.58,194.95 L470.50,207.83 Z M636.59,387.53 L639.51,395.50 L641.09,395.12 L636.59,387.53 Z M613.85,560.73 L625.84,554.43 L613.60,560.81 L613.85,560.73 Z M654.26,547.75 L656.88,549.42 L649.19,550.72 L658.95,549.10 L654.26,547.75 Z M605.56,591.70 L604.08,592.01 L614.78,601.53 L605.56,591.70 Z M568.53,598.19 L566.38,604.31 L566.96,606.31 L568.53,598.19 Z M555.47,460.59 L552.14,458.11 L560.37,469.01 L555.47,460.59 Z M634.29,539.05 L635.37,538.48 L636.59,529.39 L634.29,539.05 Z M596.18,502.13 L589.58,501.21 L597.57,504.54 L605.14,508.66 L596.18,502.13 Z M571.83,484.18 L575.44,488.97 L584.66,493.97 L571.83,484.18 Z M624.30,440.56 L620.77,441.86 L629.53,438.71 L624.30,440.56 Z M652.27,447.43 L655.34,447.06 L658.41,444.64 L652.27,447.43 Z M658.11,439.45 L663.73,436.45 L662.87,435.93 L658.11,439.45 Z M538.12,326.26 L537.80,322.99 L534.67,319.54 L538.12,326.26 Z M541.79,324.85 L544.56,324.01 L537.80,322.99 L541.79,324.85 Z M551.63,321.88 L555.15,318.17 L548.50,322.82 L551.63,321.88 Z M563.92,289.61 L566.22,286.27 L554.85,301.67 L563.92,289.61 Z M566.99,305.75 L581.74,273.48 L571.29,295.17 L566.99,305.75 Z M594.03,268.28 L587.12,269.77 L581.74,273.48 L594.03,268.28 Z M633.21,314.28 L632.14,307.79 L630.83,308.31 L633.21,314.28 Z M621.54,351.18 L619.23,362.12 L623.59,348.47 L621.54,351.18 Z M626.45,337.09 L625.68,341.94 L628.30,333.75 L626.45,337.09 Z M639.67,346.17 L636.75,350.44 L645.07,343.42 L639.67,346.17 Z M548.55,250.11 L549.48,258.64 L548.86,249.93 L544.10,251.78 L548.55,250.11 Z M560.23,271.99 L566.07,277.19 L552.70,261.05 L549.48,258.64 L560.23,271.99 Z M606.79,240.10 L609.44,240.95 L606.48,237.87 L604.94,232.68 L606.79,240.10 Z M612.01,243.62 L611.47,243.05 L611.54,244.64 L612.01,243.62 Z M641.76,287.71 L646.74,284.42 L641.97,286.46 L641.76,287.71 Z M612.32,225.08 L613.87,222.46 L613.85,222.48 L612.32,225.08 Z M714.78,660.44 L706.66,663.10 L714.80,660.69 L714.78,660.44 Z M862.92,887.12 L859.43,892.14 L864.61,887.49 L862.92,887.12 Z M858.00,906.78 L861.69,923.96 L862.15,921.61 L858.00,906.78 Z M832.04,927.73 L841.56,924.02 L830.19,927.55 L832.04,927.73 Z M836.69,459.95 L830.96,452.62 L834.96,459.11 L836.69,459.95 Z M839.57,459.67 L838.98,461.07 L843.71,463.37 L839.57,459.67 Z M843.10,473.76 L844.17,467.27 L843.71,463.37 L843.10,473.76 Z M839.95,524.63 L839.41,524.20 L827.27,517.52 L839.95,524.63 Z M846.82,530.10 L844.76,528.46 L845.25,530.69 L846.82,530.10 Z M834.19,550.35 L836.34,548.12 L845.25,530.69 L834.19,550.35 Z M802.38,589.29 L814.05,567.84 L808.53,575.75 L802.38,589.29 Z M829.26,633.21 L829.26,633.21 L823.59,636.77 L829.26,633.21 Z M858.77,751.56 L841.26,725.97 L866.08,763.37 L864.78,760.26 L804.24,654.65 L804.23,654.66 L858.77,751.56 Z M691.60,546.08 L703.12,544.04 L706.97,543.12 L691.60,546.08 Z M707.89,536.81 L708.66,530.69 L706.97,543.12 L707.89,536.81 Z M738.31,531.80 L735.96,540.79 L736.93,540.71 L735.85,547.75 L738.31,531.80 Z M751.13,523.62 L743.38,527.17 L738.31,531.80 L751.13,523.62 Z M741.38,556.47 L757.82,551.46 L788.40,537.74 L741.38,556.47 Z M799.16,541.45 L791.01,538.48 L769.19,530.51 L788.40,537.74 L799.16,541.45 Z M799.31,559.81 L799.62,580.76 L799.16,541.45 L799.31,559.81 Z M769.65,517.52 L768.91,516.41 L769.19,530.51 L769.65,517.52 Z M783.20,694.83 L784.87,688.32 L783.18,694.81 L783.20,694.83 Z M793.95,691.71 L777.49,680.53 L784.41,687.21 L793.95,691.71 Z M812.98,704.64 L808.19,701.38 L823.12,714.84 L812.98,704.64 Z M706.07,612.71 L704.33,612.63 L705.28,613.21 L706.07,612.71 Z M720.49,610.99 L715.42,606.72 L720.78,611.73 L720.49,610.99 Z M758.28,612.47 L754.60,604.13 L757.41,613.08 L758.28,612.47 Z M721.69,655.39 L723.56,655.68 L724.36,654.17 L721.69,655.39 Z M726.33,650.46 L727.09,649.01 L726.33,648.00 L726.33,650.46 Z M709.99,560.18 L703.74,555.73 L706.97,559.62 L709.99,560.18 Z M716.49,564.81 L715.32,563.98 L716.89,566.13 L716.49,564.81 Z M688.89,465.24 L687.61,465.41 L681.31,470.79 L688.89,465.24 Z M697.29,469.86 L699.13,470.75 L694.37,464.49 L697.29,469.86 Z M719.50,499.05 L719.52,499.05 L746.73,457.07 L742.15,463.19 L719.50,499.05 Z M754.90,448.17 L759.13,440.48 L753.88,447.50 L754.90,448.17 Z M801.00,528.47 L801.18,529.32 L805.30,526.61 L801.00,528.47 Z M749.83,498.61 L748.65,498.95 L757.52,499.91 L749.83,498.61 Z M773.96,460.96 L761.36,483.77 L767.04,474.87 L773.96,460.96 Z M701.43,414.79 L693.60,424.62 L699.59,418.87 L701.43,414.79 Z M728.94,409.78 L721.30,409.38 L723.41,409.97 L728.94,409.78 Z M749.83,416.46 L749.71,416.78 L757.67,406.07 L749.83,416.46 Z M747.88,421.43 L745.69,427.03 L748.91,422.39 L747.88,421.43 Z M831.27,631.94 L849.55,674.60 L852.71,681.79 L831.27,631.94 Z M858.26,620.84 L863.13,619.01 L862.61,619.15 L858.26,620.84 Z M863.98,618.69 L865.22,618.22 L862.77,611.73 L863.98,618.69 Z M880.74,588.55 L858.16,600.05 L861.84,598.19 L870.30,593.93 L880.74,588.55 Z M888.58,584.47 L893.75,581.54 L880.74,588.55 L888.58,584.47 Z M844.33,685.54 L839.87,687.02 L853.53,683.69 L853.53,683.69 L844.33,685.54 Z M877.98,740.99 L859.04,696.35 L858.93,696.48 L877.98,740.99 Z M891.35,793.47 L880.59,804.60 L890.58,796.44 L891.35,793.47 Z M973.86,590.96 L930.06,532.36 L925.46,526.43 L973.86,590.96 Z M875.09,552.60 L877.06,554.24 L882.74,558.69 L875.09,552.60 Z M903.48,549.61 L915.62,544.79 L907.63,547.20 L903.48,549.61 Z" /></g></svg>