<svg xmlns="http://www.w3.org/2000/svg" viewBox="0 0 1000 1000" width="1000" height="1000"><g fill="#cccccc" stroke="#222" stroke-width="2"><path d="M466.78,928.98 L461.56,932.46 L450.84,928.09 L439.70,919.01 L433.64,916.65 L430.96,903.54 L370.73,896.59 L347.60,890.42 L343.36,863.18 L345.76,884.14 L308.67,864.19 L315.15,798.73 L299.50,797.27 L263.39,800.07 L248.16,808.48 L243.78,806.80 L239.83,808.03 L233.91,803.77 L199.21,795.59 L177.63,764.99 L170.44,760.39 L146.88,708.38 L62.82,702.55 L62.11,698.41 L55.62,691.90 L48.43,677.89 L40.39,673.86 L19.65,651.10 L23.18,646.73 L19.23,640.00 L22.05,631.71 L20.50,618.59 L34.18,605.26 L53.22,608.39 L57.74,606.38 L66.06,606.04 L74.10,600.21 L83.41,597.63 L91.73,598.75 L113.03,594.94 L119.80,596.51 L123.89,591.92 L166.63,578.24 L177.49,578.02 L184.54,581.49 L198.08,574.77 L204.99,566.70 L217.83,543.04 L229.54,540.91 L222.48,531.39 L221.36,521.07 L216.70,512.89 L214.30,509.64 L216.14,506.61 L214.30,501.68 L190.61,492.15 L182.00,486.77 L176.36,469.96 L189.90,448.32 L183.70,441.15 L177.35,441.71 L169.17,439.69 L164.79,436.67 L142.23,436.22 L136.44,434.43 L114.72,424.34 L114.58,417.95 L123.75,412.79 L130.10,394.41 L143.35,394.41 L151.68,389.25 L161.83,379.16 L163.38,366.16 L159.01,356.18 L165.64,332.42 L162.96,322.67 L166.77,314.26 L171.85,311.79 L177.21,300.36 L173.82,286.69 L179.18,274.02 L179.04,263.93 L172.41,256.98 L174.95,246.44 L187.64,232.43 L200.34,222.23 L205.28,205.31 L199.63,191.52 L204.99,183.56 L205.84,178.29 L216.42,169.66 L220.37,158.45 L226.57,156.32 L235.32,156.21 L244.06,142.87 L245.62,135.58 L242.65,131.55 L243.50,127.96 L238.85,124.15 L240.68,115.74 L232.50,108.57 L234.76,101.06 L229.25,98.93 L227.42,94.33 L222.48,92.43 L218.96,87.61 L203.30,75.28 L192.30,70.91 L192.16,66.65 L197.94,67.66 L207.96,59.47 L214.87,60.03 L218.68,58.58 L223.75,48.15 L219.80,40.30 L234.05,36.16 L237.72,30.89 L252.39,29.99 L258.59,31.34 L260.00,28.53 L266.77,27.97 L269.31,22.59 L276.65,26.63 L289.76,28.87 L307.54,30.10 L313.04,27.41 L317.69,27.41 L322.21,32.79 L325.03,32.46 L329.54,27.75 L328.84,24.05 L336.03,19.23 L340.82,19.23 L347.74,25.73 L356.20,25.51 L346.04,64.29 L348.44,66.20 L348.16,69.34 L353.24,72.25 L354.22,76.96 L359.02,78.98 L360.15,89.96 L364.66,91.76 L365.37,96.35 L360.15,99.38 L361.84,105.88 L368.61,109.69 L367.91,112.16 L372.56,118.21 L370.45,124.71 L375.24,128.75 L380.60,138.72 L376.37,141.97 L375.38,146.34 L372.14,147.02 L368.89,154.42 L375.81,153.29 L380.74,157.11 L396.40,160.24 L400.49,169.44 L419.81,179.19 L447.04,184.57 L445.48,188.49 L449.72,194.55 L451.41,202.17 L450.14,211.58 L435.05,223.47 L432.93,226.60 L437.30,230.53 L438.43,235.01 L436.74,241.06 L441.68,244.88 L461.14,240.17 L468.33,245.21 L471.30,250.93 L479.62,247.23 L483.43,252.05 L492.31,256.42 L495.42,261.91 L500.92,263.71 L505.57,261.58 L513.75,261.02 L517.28,260.01 L520.95,262.47 L523.91,259.45 L532.23,257.77 L537.73,261.46 L539.85,266.62 L547.18,270.66 L552.68,270.77 L558.04,274.80 L563.40,273.57 L566.93,276.04 L575.39,273.91 L585.26,280.52 L588.23,287.47 L598.66,288.48 L606.70,294.42 L612.21,296.44 L622.22,296.55 L624.62,298.90 L635.34,299.24 L640.42,294.76 L658.33,289.60 L678.92,303.95 L700.64,304.85 L717.99,317.62 L727.44,333.54 L733.51,359.66 L758.19,389.14 L777.23,399.34 L781.32,409.43 L801.21,417.50 L804.03,422.66 L811.37,420.53 L816.73,421.65 L831.12,423.44 L914.90,414.14 L926.75,415.93 L924.91,417.50 L918.14,415.48 L913.35,420.53 L913.63,433.98 L916.87,439.13 L915.89,441.15 L918.99,442.27 L918.14,444.07 L900.51,451.91 L894.62,455.95 L922.23,443.17 L936.34,451.13 L935.21,453.26 L938.74,456.06 L944.10,456.62 L950.87,460.54 L950.87,464.58 L954.11,468.84 L949.46,472.31 L950.44,474.78 L954.82,476.68 L956.79,475.45 L960.60,479.37 L963.84,477.36 L963.42,479.49 L965.25,480.05 L969.77,476.80 L972.87,478.03 L972.17,482.29 L966.66,483.41 L963.00,487.33 L969.77,489.69 L973.43,487.00 L977.53,487.22 L977.24,497.98 L980.77,509.53 L973.72,516.93 L966.24,517.49 L963.28,521.75 L959.33,521.30 L957.50,518.38 L953.26,518.05 L949.46,519.17 L948.47,522.08 L944.52,521.63 L942.12,524.44 L939.58,522.53 L939.86,518.61 L933.24,514.46 L932.95,511.10 L929.29,511.43 L929.99,517.71 L934.22,519.28 L932.11,523.65 L935.63,526.12 L933.38,528.14 L938.31,532.51 L937.18,534.19 L931.54,534.30 L928.16,541.70 L926.75,540.47 L923.36,542.15 L924.63,546.97 L922.37,549.10 L916.45,550.22 L918.57,559.30 L907.85,566.58 L907.28,565.35 L901.22,567.14 L901.36,572.75 L895.57,581.49 L894.87,593.37 L896.99,598.19 L894.16,600.55 L888.10,614.90 L885.98,628.46 L877.24,625.10 L866.24,630.25 L859.18,640.45 L858.06,647.63 L849.31,664.55 L848.04,670.83 L841.55,673.30 L835.35,666.35 L840.14,672.51 L834.92,676.66 L832.67,680.25 L833.94,683.72 L831.26,685.63 L835.35,686.19 L834.36,692.80 L831.54,694.15 L831.12,689.55 L825.47,682.94 L810.94,677.22 L801.35,675.54 L788.66,668.81 L778.79,666.68 L761.44,668.03 L746.20,672.96 L730.41,669.71 L727.30,670.83 L727.87,673.07 L726.03,667.58 L722.51,665.67 L720.67,667.24 L725.47,674.87 L719.26,665.34 L703.89,665.67 L696.55,669.71 L688.23,680.36 L686.40,693.70 L690.91,702.78 L695.28,707.04 L700.64,709.05 L692.89,722.06 L688.37,724.64 L689.08,725.87 L677.65,731.14 L669.19,747.17 L667.64,765.10 L672.01,798.39 L669.19,816.89 L662.70,828.43 L668.20,834.38 L670.18,849.40 L667.50,858.48 L660.30,863.63 L659.32,872.04 L661.71,876.86 L659.88,884.59 L667.50,906.00 L673.00,907.91 L673.14,910.93 L678.22,910.15 L680.61,911.94 L678.36,916.43 L680.76,918.11 L671.87,926.29 L664.25,928.65 L662.28,926.52 L658.61,926.63 L656.50,929.65 L653.53,929.43 L653.67,934.25 L651.28,935.37 L647.19,932.79 L642.53,933.80 L641.12,939.63 L637.74,940.64 L635.90,947.48 L632.52,951.40 L626.17,955.55 L616.44,957.12 L611.08,963.39 L600.22,970.57 L594.43,971.58 L581.03,974.27 L578.21,972.36 L567.92,975.95 L563.54,975.84 L559.45,980.10 L556.07,980.77 L544.64,977.07 L537.31,980.43 L535.47,978.08 L536.88,974.94 L531.95,968.78 L524.90,965.75 L523.34,967.54 L524.75,964.85 L510.09,958.91 L507.41,954.20 L490.34,948.49 L481.31,946.80 L474.68,949.16 L473.41,952.41 L459.45,952.19 L460.44,950.73 L471.16,950.95 L476.37,946.13 L477.93,928.42 L470.87,930.44 L466.78,928.98 Z M714.25,656.12 L716.30,660.18 L722.51,665.67 L714.25,656.12 Z M551.73,644.43 L553.95,643.59 L558.61,636.64 L551.73,644.43 Z M543.23,640.57 L549.10,647.22 L548.31,645.72 L543.23,640.57 Z M553.11,651.77 L555.73,651.34 L551.65,650.12 L553.11,651.77 Z M563.40,659.73 L568.48,660.85 L568.37,660.52 L563.40,659.73 Z M510.97,654.60 L513.47,655.92 L527.58,659.40 L510.97,654.60 Z M504.37,651.81 L502.61,656.71 L504.37,651.81 L504.37,651.81 Z M523.91,706.81 L528.84,699.75 L525.60,704.35 L525.60,700.31 L523.91,706.81 Z M535.33,701.43 L548.31,701.10 L532.51,700.76 L535.33,701.43 Z M641.78,692.48 L640.98,688.21 L652.83,693.81 L648.60,691.34 L638.87,686.97 L638.87,686.98 L641.78,692.48 Z M660.01,701.71 L659.18,700.65 L653.67,699.41 L660.01,701.71 Z M629.70,696.95 L630.40,691.23 L628.57,704.68 L629.70,696.95 Z M653.53,717.24 L659.88,718.02 L649.58,715.56 L653.53,717.24 Z M297.10,457.18 L287.93,458.97 L292.02,458.19 L297.10,457.18 Z M366.21,421.65 L363.39,436.44 L363.25,439.69 L366.21,421.65 Z M391.74,469.29 L391.01,468.38 L389.06,471.64 L391.74,469.29 Z M445.48,352.37 L438.71,362.01 L448.41,350.51 L445.48,352.37 Z M523.06,754.12 L522.94,752.01 L519.96,758.26 L523.06,754.12 Z M551.84,824.40 L542.39,826.19 L554.43,825.28 L551.84,824.40 Z M491.47,901.18 L494.05,899.85 L484.98,902.08 L491.47,901.18 Z M488.93,658.95 L490.06,655.92 L491.04,652.00 L488.93,658.95 Z M489.21,649.87 L493.02,650.21 L487.80,649.53 L491.04,652.00 L489.21,649.87 Z M488.93,644.38 L487.80,643.70 L487.80,649.53 L488.93,644.38 Z M495.70,647.96 L503.05,650.65 L501.90,649.64 L495.70,647.96 Z M401.32,762.75 L398.80,760.95 L396.71,761.04 L401.32,762.75 Z M416.15,768.24 L417.77,768.09 L411.83,766.64 L416.15,768.24 Z M422.00,826.76 L422.00,826.76 L439.42,821.37 L422.00,826.76 Z M451.55,786.17 L444.64,787.41 L444.19,787.89 L451.55,786.17 Z M442.19,790.03 L440.97,791.33 L440.35,793.06 L442.19,790.03 Z M509.10,709.05 L509.03,709.38 L518.55,709.17 L509.10,709.05 Z M475.25,600.32 L470.73,609.40 L468.18,618.63 L469.15,617.73 L475.25,600.32 Z M377.50,529.93 L383.00,531.61 L374.36,527.33 L377.50,529.93 Z M322.74,367.89 L320.09,366.38 L314.03,365.71 L322.74,367.89 Z M329.57,372.90 L329.54,371.76 L325.95,369.72 L329.57,372.90 Z M385.26,266.06 L385.05,263.99 L383.00,267.74 L385.26,266.06 Z M384.84,261.90 L380.06,263.37 L384.92,262.71 L384.84,261.90 Z M360.20,409.56 L357.42,403.96 L358.74,408.31 L360.20,409.56 Z M321.22,268.75 L355.21,266.73 L369.30,264.83 L321.22,268.75 Z M571.02,828.99 L577.65,823.61 L579.08,821.52 L571.02,828.99 Z M580.63,819.25 L582.02,817.22 L583.01,810.61 L580.63,819.25 Z M593.73,800.19 L600.36,789.76 L594.57,798.17 L583.01,810.61 L593.73,800.19 Z M629.41,772.61 L629.89,775.06 L633.36,765.21 L635.76,757.82 L629.41,772.61 Z M568.48,910.93 L580.25,932.31 L574.40,920.24 L568.48,910.93 Z M577.65,741.67 L560.30,759.05 L560.47,760.37 L577.65,741.67 Z M561.02,764.76 L561.44,768.13 L561.57,765.77 L561.02,764.76 Z M635.62,700.54 L637.17,695.94 L634.07,703.67 L635.62,700.54 Z M640.78,442.45 L636.32,446.42 L636.75,447.87 L640.78,442.45 Z M672.57,535.42 L663.83,535.09 L646.86,535.94 L646.87,535.96 L672.57,535.42 Z M655.23,598.19 L664.96,592.93 L644.51,603.35 L655.23,598.19 Z M656.35,648.52 L649.02,641.80 L642.67,636.08 L656.35,648.52 Z M661.85,674.64 L651.84,677.78 L648.88,679.80 L661.85,674.64 Z M574.48,660.95 L575.39,661.53 L577.51,661.75 L574.48,660.95 Z M584.88,659.20 L586.08,659.34 L585.69,657.27 L584.88,659.20 Z M604.49,625.74 L605.43,625.21 L605.29,620.72 L604.49,625.74 Z M705.02,584.29 L701.63,586.98 L706.38,584.12 L705.02,584.29 Z M707.99,583.15 L709.81,582.05 L709.40,579.24 L707.99,583.15 Z M722.64,561.61 L723.49,560.87 L724.34,556.38 L722.64,561.61 Z M719.69,553.47 L722.38,553.70 L721.80,552.91 L728.15,543.16 L719.69,553.47 Z M732.10,550.33 L732.86,555.93 L733.09,554.93 L732.10,550.33 Z M732.27,558.51 L727.02,564.34 L732.10,559.30 L732.27,558.51 Z M771.16,604.56 L771.13,604.61 L771.17,604.59 L771.16,604.56 Z M806.26,621.56 L807.98,621.85 L824.20,614.00 L806.26,621.56 Z M833.37,619.72 L843.67,624.87 L824.20,614.00 L833.37,619.72 Z M825.47,613.21 L829.56,610.41 L824.20,614.00 L825.47,613.21 Z M665.06,650.03 L668.63,650.65 L683.86,648.75 L665.06,650.03 Z M767.72,606.08 L765.67,605.82 L757.91,610.30 L767.72,606.08 Z M722.63,627.19 L716.72,629.58 L722.51,627.79 L722.63,627.19 Z M828.72,509.08 L798.53,468.17 L811.37,487.11 L828.72,509.08 Z M875.77,464.68 L863.13,469.40 L854.67,474.44 L875.77,464.68 Z M857.35,672.40 L859.04,676.77 L856.65,676.44 L853.40,671.62 L857.35,672.40 Z M901.78,596.85 L901.22,598.98 L898.40,599.76 L899.81,596.74 L901.78,596.85 Z M964.27,523.99 L963.42,524.10 L962.01,523.20 L963.56,522.19 L964.27,523.99 Z" /></g></svg>