<svg xmlns="http://www.w3.org/2000/svg" viewBox="0 0 1000 1000" width="1000" height="1000"><g fill="#cccccc" stroke="#222" stroke-width="2"><path d="M224.56,419.67 L219.34,404.88 L215.53,390.31 L213.24,362.79 L223.54,341.00 L229.01,338.60 L223.54,340.78 L228.88,315.32 L218.96,307.18 L201.80,306.03 L168.62,313.48 L158.19,313.25 L137.60,305.91 L133.78,299.61 L137.47,293.64 L144.97,288.37 L164.93,278.39 L170.14,270.82 L169.76,264.86 L164.68,260.96 L129.84,258.10 L114.84,249.38 L112.04,235.73 L116.49,226.90 L115.73,217.73 L96.66,213.26 L88.90,212.57 L85.09,212.11 L78.35,207.87 L62.71,187.11 L50.29,161.71 L32.96,165.78 L25.46,154.43 L19.23,122.21 L19.23,106.50 L24.32,89.41 L34.87,89.87 L55.72,100.76 L88.90,112.12 L80.77,109.02 L86.99,111.20 L120.30,106.61 L121.70,109.36 L132.76,116.13 L145.99,117.28 L152.72,121.98 L196.97,141.13 L207.58,146.70 L211.74,148.51 L212.99,148.58 L212.73,143.42 L216.29,140.21 L224.05,139.64 L233.71,126.68 L240.70,125.76 L240.70,117.96 L252.15,116.36 L252.91,106.73 L255.96,105.12 L258.88,98.47 L264.73,100.42 L267.40,99.50 L265.62,96.52 L267.66,95.14 L267.78,91.02 L271.22,90.33 L272.87,83.56 L277.45,79.32 L281.51,78.75 L283.42,75.31 L288.00,75.65 L288.13,71.87 L291.43,72.67 L299.08,68.66 L299.06,68.66 L299.31,68.54 L299.31,68.54 L299.31,68.54 L302.37,67.16 L300.33,65.10 L300.84,62.12 L306.69,57.88 L306.18,52.83 L326.65,19.46 L334.15,19.23 L346.99,34.14 L357.67,39.87 L363.14,38.73 L374.20,29.44 L381.06,30.58 L385.51,28.75 L397.85,36.78 L397.21,41.36 L399.12,43.43 L414.25,47.78 L415.39,42.85 L418.44,42.28 L439.93,77.26 L479.47,91.59 L524.22,112.23 L531.97,125.65 L562.49,180.92 L541.13,182.53 L551.94,191.13 L626.06,253.16 L649.96,273.35 L762.47,368.18 L775.95,379.54 L810.66,385.50 L844.73,403.04 L926.86,501.20 L940.47,517.37 L980.77,519.78 L980.64,568.06 L959.28,588.24 L902.07,642.71 L876.26,667.37 L857.32,715.07 L846.13,711.40 L820.58,710.25 L824.90,741.22 L824.64,755.21 L821.97,765.53 L839.14,770.34 L829.22,775.39 L827.95,780.55 L846.13,785.14 L847.66,792.25 L820.19,794.20 L858.72,792.70 L881.09,796.03 L894.44,800.50 L919.49,818.51 L905.50,830.55 L895.55,831.38 L898.89,831.92 L905.38,840.64 L908.17,839.26 L907.41,844.08 L910.21,845.68 L914.15,852.91 L917.07,855.20 L930.17,854.05 L929.28,866.44 L943.26,874.81 L952.80,892.36 L950.26,899.47 L944.54,914.37 L927.24,915.06 L921.65,922.29 L914.15,918.50 L910.21,920.68 L906.52,918.39 L897.49,918.04 L898.89,925.96 L889.74,941.32 L895.08,944.30 L890.25,957.83 L886.18,956.46 L885.03,958.41 L880.33,957.38 L866.22,951.41 L868.25,943.84 L863.04,962.77 L824.14,963.57 L820.32,959.78 L802.01,956.69 L776.46,927.33 L768.58,918.27 L778.24,908.64 L757.13,929.40 L748.11,925.15 L734.12,909.21 L708.82,900.27 L728.40,872.86 L708.95,900.04 L654.92,970.45 L654.54,973.09 L656.95,975.49 L650.98,980.77 L618.68,961.50 L605.21,943.73 L598.09,938.00 L578.00,921.25 L567.32,889.95 L560.45,878.60 L545.45,860.82 L493.96,815.52 L472.73,799.36 L461.92,793.74 L435.35,781.81 L413.36,761.97 L409.54,757.84 L403.57,751.31 L408.40,746.95 L407.89,738.81 L416.15,733.53 L418.19,730.09 L420.60,728.03 L429.88,726.65 L437.26,720.00 L445.90,718.28 L445.39,711.29 L450.61,708.30 L456.07,702.57 L449.46,676.20 L456.96,675.85 L459.63,666.91 L465.74,665.07 L469.55,661.17 L476.80,661.52 L485.57,657.39 L485.70,654.75 L478.32,652.80 L482.14,647.41 L480.99,642.48 L484.55,642.60 L488.88,636.98 L504.13,642.83 L513.29,643.40 L511.76,630.90 L514.94,621.96 L512.78,597.76 L508.84,586.18 L492.56,552.35 L486.84,542.49 L475.40,529.41 L459.89,518.29 L435.99,507.74 L431.79,509.69 L420.98,509.00 L404.86,513.03 L402.93,516.34 L396.70,520.70 L392.12,520.93 L350.30,501.09 L341.78,501.32 L315.97,504.64 L311.26,503.73 L303.13,499.48 L284.06,482.63 L274.78,479.76 L260.66,479.76 L255.32,477.70 L251.89,473.45 L224.56,419.67 Z M464.85,167.73 L470.95,182.18 L446.41,123.13 L444.12,117.62 L464.85,167.73 Z M518.24,357.75 L518.22,357.80 L525.11,350.06 L518.24,357.75 Z M588.93,496.73 L590.72,498.31 L588.55,491.46 L588.93,496.73 Z M603.24,526.11 L639.02,527.01 L603.81,525.74 L604.57,523.57 L603.24,526.11 Z M602.54,527.46 L605.59,529.76 L602.98,526.62 L602.54,527.46 Z M595.54,553.38 L595.08,555.63 L599.61,542.26 L595.54,553.38 Z M589.44,594.78 L593.00,595.12 L583.34,592.48 L589.44,594.78 Z M575.46,633.19 L575.07,627.12 L596.18,623.10 L576.09,626.89 L573.93,614.96 L575.46,633.19 Z M597.66,623.59 L595.29,621.92 L596.18,623.10 L597.66,623.59 Z M572.84,642.88 L585.88,661.75 L575.96,645.35 L572.84,642.88 Z M603.68,706.58 L610.39,714.34 L609.91,713.58 L593.89,694.31 L603.68,706.58 Z M603.81,791.90 L608.51,790.30 L609.67,788.69 L603.81,791.90 Z M605.97,811.85 L604.82,814.10 L608.51,810.82 L600.25,813.00 L605.97,811.85 Z M585.63,842.13 L582.83,847.63 L583.97,850.16 L583.72,845.91 L585.63,842.13 Z M581.81,839.26 L562.23,830.20 L585.63,842.13 L581.81,839.26 Z M436.11,176.68 L423.27,159.94 L431.16,171.40 L436.11,176.68 Z M382.46,228.97 L404.33,222.89 L355.76,235.05 L305.29,247.89 L382.46,228.97 Z M370.26,311.19 L416.03,302.59 L360.28,312.36 L370.26,311.19 Z M363.52,391.23 L356.90,383.99 L360.34,388.14 L363.52,391.23 Z M413.10,443.52 L418.20,439.66 L417.81,439.39 L413.10,443.52 Z M386.78,465.31 L398.99,450.17 L390.22,460.72 L386.78,465.31 Z M379.16,479.19 L387.67,472.42 L377.38,480.56 L379.16,479.19 Z M339.49,201.56 L294.77,150.54 L338.45,201.66 L339.49,201.56 Z M153.36,237.34 L194.81,243.19 L181.20,240.32 L153.36,237.34 Z M211.97,242.96 L211.21,243.99 L224.30,242.27 L194.81,243.19 L211.97,242.96 Z M231.32,256.64 L230.02,251.79 L218.07,230.12 L224.30,242.27 L231.32,256.64 Z M211.97,214.41 L209.56,208.56 L218.07,230.12 L211.97,214.41 Z M305.04,346.39 L304.42,343.34 L304.68,347.87 L305.04,346.39 Z M306.15,334.68 L304.02,336.30 L304.04,336.78 L306.15,334.68 Z M329.19,318.30 L324.87,320.36 L320.43,323.76 L329.19,318.30 Z M343.45,314.32 L340.61,313.35 L342.79,314.40 L343.45,314.32 Z M252.53,390.66 L256.09,396.85 L261.81,405.22 L252.53,390.66 Z M296.02,415.38 L281.51,420.24 L296.02,415.38 L296.02,415.38 Z M357.54,424.95 L358.18,428.85 L362.25,436.76 L357.54,424.95 Z M269.44,448.57 L274.27,445.13 L276.43,442.03 L269.44,448.57 Z M285.46,454.41 L290.03,458.20 L303.26,464.97 L285.46,454.41 Z M292.79,408.35 L281.24,383.18 L289.14,402.36 L292.79,408.35 Z M336.51,311.38 L331.23,305.91 L333.26,309.81 L336.51,311.38 Z M192.39,270.25 L195.70,274.61 L208.16,289.63 L192.39,270.25 Z M199.71,253.65 L194.55,254.89 L197.60,255.11 L199.71,253.65 Z M319.40,277.13 L318.47,277.79 L326.90,280.92 L319.40,277.13 Z M326.52,297.20 L327.32,294.80 L326.01,295.48 L326.52,297.20 Z M329.83,300.53 L329.57,297.43 L329.83,303.62 L329.83,300.53 Z M108.51,135.13 L109.37,134.25 L110.13,137.12 L109.12,127.25 L108.51,135.13 Z M214.89,179.09 L218.33,176.45 L218.56,174.13 L214.89,179.09 Z M238.08,198.20 L240.03,197.08 L238.03,197.78 L238.08,198.20 Z M238.22,199.60 L238.29,200.30 L246.76,210.23 L246.77,210.23 L238.22,199.60 Z M160.10,195.25 L133.91,213.95 L161.36,195.05 L160.10,195.25 Z M218.63,173.41 L218.96,170.03 L217.63,167.07 L218.63,173.41 Z M229.52,154.32 L230.15,155.12 L230.68,153.85 L229.52,154.32 Z M243.03,167.66 L243.25,167.39 L242.43,165.20 L243.03,167.66 Z M234.73,169.22 L241.72,169.34 L242.29,168.61 L234.73,169.22 Z M243.22,195.27 L244.26,194.68 L244.00,192.64 L243.22,195.27 Z M524.22,579.07 L541.38,588.70 L541.98,588.77 L524.22,579.07 Z M543.04,584.23 L548.62,574.88 L548.50,575.05 L543.04,584.23 Z M468.03,722.41 L547.23,742.71 L450.73,717.94 L468.03,722.41 Z M520.15,763.46 L513.29,769.08 L547.23,742.71 L520.15,763.46 Z M554.73,710.48 L553.97,713.12 L554.17,713.46 L554.73,710.48 Z M563.38,708.42 L560.96,707.96 L554.73,710.48 L563.38,708.42 Z M501.33,794.31 L501.21,799.01 L502.51,793.66 L501.33,794.31 Z M549.27,768.16 L541.20,773.57 L541.38,773.55 L549.27,768.16 Z M569.33,640.11 L566.81,638.12 L548.88,629.87 L569.33,640.11 Z M532.53,546.49 L533.12,546.39 L543.42,542.95 L532.53,546.49 Z M438.40,499.60 L435.10,505.45 L439.14,498.88 L438.40,499.60 Z M523.33,197.89 L464.55,210.98 L501.72,203.63 L523.33,197.89 Z M488.43,226.18 L483.28,220.37 L486.33,224.27 L488.43,226.18 Z M707.81,447.19 L705.01,442.03 L717.60,467.26 L707.81,447.19 Z M712.77,685.49 L715.69,683.08 L712.77,685.49 L712.77,685.49 Z M755.61,774.47 L742.90,746.84 L750.91,764.38 L755.61,774.47 Z M761.33,784.45 L769.98,795.69 L755.61,774.47 L761.33,784.45 Z M719.50,766.44 L721.42,767.45 L712.76,762.43 L719.50,766.44 Z M693.72,766.67 L695.35,769.43 L694.96,766.56 L712.76,762.43 L693.72,766.67 Z M695.73,821.14 L693.18,821.37 L694.96,817.02 L692.58,822.40 L695.73,821.14 Z M670.43,421.96 L668.90,422.42 L666.74,423.23 L670.43,421.96 Z M662.42,660.60 L658.39,648.39 L658.99,652.69 L662.42,660.60 Z M675.85,651.77 L681.62,653.49 L677.42,652.11 L675.85,651.77 Z M617.67,787.77 L615.00,786.40 L612.07,785.37 L617.67,787.77 Z M644.62,795.69 L656.06,798.55 L624.79,789.72 L644.62,795.69 Z M670.05,777.34 L664.58,775.85 L664.24,776.82 L670.05,777.34 Z M697.13,773.32 L693.38,772.43 L691.79,772.64 L697.13,773.32 Z M597.96,886.85 L619.32,863.34 L658.73,822.29 L668.27,811.74 L617.41,865.29 L597.96,886.85 Z M646.14,885.02 L635.08,892.93 L613.34,908.87 L646.14,885.02 Z M620.46,952.33 L622.57,949.51 L621.61,949.81 L620.46,952.33 Z M659.49,754.06 L654.03,757.27 L661.53,754.40 L642.84,751.08 L659.49,754.06 Z M693.69,739.73 L690.50,737.28 L696.62,744.43 L693.69,739.73 Z M704.75,749.86 L701.58,747.98 L703.99,750.05 L704.75,749.86 Z M628.22,695.81 L646.27,705.67 L629.62,696.49 L628.22,695.81 Z M614.23,585.72 L610.67,589.04 L611.15,590.06 L614.23,585.72 Z M620.76,584.25 L621.74,583.02 L620.59,582.85 L613.47,577.00 L620.76,584.25 Z M625.68,586.87 L623.77,583.31 L622.84,583.18 L625.68,586.87 Z M645.89,618.17 L647.67,614.16 L649.07,610.14 L645.89,618.17 Z M671.60,610.86 L674.02,613.14 L672.21,610.37 L693.18,586.87 L671.60,610.86 Z M641.44,626.20 L629.23,626.31 L647.42,626.31 L641.44,626.20 Z M652.50,630.15 L655.15,634.76 L654.41,631.59 L652.50,630.15 Z M592.98,618.82 L592.98,618.82 L595.16,616.68 L592.98,618.82 Z M672.20,552.37 L664.71,551.89 L644.49,552.69 L642.81,553.53 L672.20,552.37 Z M622.73,380.07 L622.73,380.07 L611.05,426.32 L622.73,380.07 Z M664.91,406.63 L665.34,404.88 L663.31,400.29 L664.91,406.63 Z M748.24,796.60 L733.49,805.89 L739.70,802.45 L739.34,802.45 L748.24,796.60 Z M780.02,802.08 L780.78,802.57 L793.88,805.20 L780.02,802.08 Z M769.05,824.79 L769.05,824.79 L763.87,821.60 L769.05,824.79 Z M756.50,838.00 L767.43,827.45 L768.97,824.94 L756.50,838.00 Z M750.02,880.20 L763.36,871.49 L758.53,874.01 L750.02,880.20 Z M811.66,891.89 L812.29,891.06 L809.64,890.87 L811.66,891.89 Z M821.47,892.81 L830.24,892.36 L820.90,891.68 L821.47,892.81 Z M846.72,860.47 L837.99,850.96 L846.26,860.59 L846.72,860.47 Z M904.36,858.30 L905.28,858.12 L903.97,856.38 L904.36,858.30 Z M811.61,891.95 L800.78,901.00 L809.13,895.22 L811.61,891.95 Z M864.50,880.14 L862.80,877.42 L862.66,878.48 L864.50,880.14 Z M868.89,882.49 L866.27,881.73 L869.65,884.79 L868.89,882.49 Z M904.74,886.39 L900.80,871.83 L905.13,893.43 L904.74,886.39 Z M847.02,812.77 L863.29,813.92 L856.94,812.43 L847.02,812.77 Z M815.67,819.43 L818.80,819.19 L847.02,812.77 L815.67,819.43 Z M773.79,815.98 L769.38,824.25 L776.46,812.66 L773.79,815.98 Z M761.71,531.59 L759.68,573.33 L757.39,595.81 L761.96,552.72 L761.08,552.69 L761.71,531.59 Z M829.39,597.18 L829.98,589.62 L829.48,595.92 L829.39,597.18 Z M786.12,743.97 L780.54,747.03 L780.54,747.03 L786.12,743.97 Z M792.22,622.18 L807.86,621.84 L822.10,621.50 L792.22,622.18 Z M788.54,753.49 L808.37,763.92 L784.79,750.47 L788.54,753.49 Z M744.04,631.70 L740.99,630.56 L771.48,659.55 L771.48,659.55 L744.04,631.70 Z M836.39,512.55 L834.56,534.23 L836.47,512.56 L836.39,512.55 Z M832.40,555.10 L878.93,592.25 L848.67,567.83 L832.40,555.10 Z M775.57,451.32 L775.95,470.24 L775.57,449.72 L775.57,451.32 Z M841.81,428.04 L823.63,430.57 L832.15,441.23 L824.39,431.48 L841.81,428.04 Z" /></g></svg>