<svg xmlns="http://www.w3.org/2000/svg" viewBox="0 0 1000 1000" width="1000" height="1000"><g fill="#cccccc" stroke="#222" stroke-width="2"><path d="M169.28,760.11 L167.63,751.85 L165.24,749.69 L168.08,746.34 L166.73,739.64 L157.02,738.08 L146.71,732.33 L143.87,729.70 L144.32,725.51 L120.41,720.36 L106.06,713.06 L105.01,707.67 L93.80,705.27 L90.67,706.95 L81.40,701.80 L77.37,696.41 L82.60,682.17 L85.88,679.17 L86.78,670.31 L75.12,665.76 L85.58,655.11 L95.00,629.25 L90.37,628.05 L87.53,620.87 L78.11,613.44 L64.96,610.09 L71.99,605.06 L71.69,600.87 L81.70,600.99 L77.51,596.32 L72.13,582.07 L73.03,571.90 L68.10,571.30 L59.13,563.88 L63.32,553.70 L61.08,543.52 L63.17,509.16 L34.32,500.30 L21.32,489.88 L19.23,481.74 L27.45,476.23 L37.31,475.28 L51.21,477.55 L71.84,475.52 L73.48,473.36 L69.15,468.81 L65.56,459.71 L79.91,459.71 L78.71,450.73 L80.95,446.54 L79.01,444.39 L92.76,443.43 L99.48,450.37 L101.13,457.68 L110.39,465.46 L122.65,471.56 L144.32,467.85 L148.80,458.75 L138.94,444.27 L123.84,434.09 L125.49,426.43 L121.30,421.16 L125.19,417.69 L122.80,413.50 L128.18,410.14 L140.73,410.62 L151.64,391.59 L159.86,385.12 L160.31,378.54 L156.87,368.48 L165.39,362.49 L165.84,345.13 L143.57,319.03 L143.57,313.76 L139.83,311.49 L137.74,307.54 L139.39,301.67 L129.67,290.30 L125.79,281.80 L125.79,276.05 L122.20,272.10 L122.65,259.65 L126.68,256.05 L115.77,239.77 L101.28,231.99 L100.23,224.09 L106.51,216.06 L114.13,215.59 L122.35,211.99 L130.12,213.31 L144.17,206.49 L146.54,204.16 L144.77,185.05 L136.25,167.45 L137.74,166.02 L135.50,160.75 L138.79,157.52 L129.82,148.42 L130.57,147.34 L134.90,151.53 L142.97,152.73 L151.64,150.09 L156.12,151.53 L153.73,136.09 L155.08,131.06 L158.96,125.31 L168.53,119.56 L181.98,114.18 L199.16,111.66 L203.80,107.23 L204.84,101.24 L213.51,99.45 L220.39,95.02 L223.37,96.46 L230.55,90.47 L234.43,90.23 L236.82,96.22 L228.61,103.88 L238.47,95.14 L239.66,99.21 L243.55,99.21 L254.99,107.67 L257.15,103.88 L253.11,101.60 L257.45,94.30 L262.23,94.18 L265.97,91.19 L276.58,88.19 L277.47,81.25 L267.91,75.26 L278.22,73.35 L285.39,68.20 L298.85,67.60 L300.94,61.97 L295.86,59.34 L297.05,57.78 L303.93,56.11 L327.24,57.06 L328.88,52.87 L331.87,52.04 L329.48,51.68 L328.44,47.37 L335.31,52.04 L334.71,47.97 L339.79,46.77 L343.83,41.62 L346.67,41.62 L356.08,45.93 L363.70,54.31 L377.30,57.30 L378.95,59.34 L385.82,59.94 L389.26,54.79 L406.89,65.09 L413.62,65.45 L421.84,63.53 L421.39,62.09 L435.29,64.85 L436.63,66.88 L434.69,68.44 L433.82,68.73 L438.88,69.04 L441.72,65.21 L443.72,68.72 L447.69,60.54 L447.54,55.63 L440.52,47.85 L441.42,42.34 L428.12,40.90 L428.12,36.83 L434.84,27.61 L426.47,21.15 L435.44,19.23 L445.75,22.82 L450.08,21.63 L462.79,35.87 L459.95,38.51 L466.82,34.92 L487.89,39.35 L497.76,46.89 L519.43,42.70 L522.27,43.30 L523.16,52.52 L531.53,57.54 L530.64,65.21 L545.13,56.83 L548.42,56.71 L555.74,59.22 L564.71,58.86 L567.25,66.28 L573.68,67.12 L574.42,70.12 L585.18,70.71 L587.87,72.63 L585.63,74.07 L588.02,74.90 L588.92,79.33 L593.85,81.01 L608.05,89.15 L622.99,88.07 L630.92,90.83 L649.15,92.62 L653.78,105.20 L653.03,111.06 L645.71,119.32 L633.75,126.63 L645.99,141.45 L666.93,143.51 L670.67,148.90 L673.66,159.19 L672.91,159.67 L671.56,157.76 L669.32,158.83 L668.73,162.07 L665.29,161.35 L662.15,165.66 L667.98,169.73 L669.17,180.15 L676.35,189.01 L707.58,209.84 L708.33,213.07 L696.97,224.33 L698.17,227.80 L702.80,230.67 L727.16,233.78 L742.25,242.76 L738.67,254.02 L740.01,262.16 L746.74,270.54 L755.40,272.10 L767.51,267.43 L776.33,266.83 L782.15,269.70 L783.80,273.65 L779.76,288.86 L792.62,299.99 L794.41,305.74 L803.08,328.85 L811.60,348.60 L808.01,373.51 L813.09,380.09 L824.90,381.05 L835.81,370.03 L854.04,364.29 L859.42,362.13 L865.40,362.61 L874.81,366.32 L883.63,372.67 L888.71,379.85 L894.54,390.27 L893.04,398.77 L883.03,419.60 L884.23,436.84 L884.68,444.98 L897.98,461.99 L927.42,476.47 L949.39,482.58 L965.82,492.28 L976.88,505.33 L980.77,513.35 L977.18,520.65 L970.31,522.45 L969.11,527.12 L975.54,530.11 L973.45,539.57 L970.31,543.76 L968.07,563.16 L962.54,563.99 L960.85,558.11 L942.81,552.62 L926.97,540.41 L917.25,531.79 L909.93,526.28 L904.25,522.93 L886.62,517.90 L881.24,518.02 L875.86,520.05 L863.75,531.19 L857.48,534.42 L838.05,541.37 L830.87,548.07 L829.83,569.50 L817.72,609.49 L809.95,615.60 L795.16,625.42 L783.80,635.95 L771.25,643.73 L752.27,652.95 L741.80,660.62 L735.38,669.48 L729.85,677.14 L728.35,684.56 L730.30,691.15 L738.37,704.20 L754.66,716.05 L761.68,726.59 L775.58,744.78 L776.77,749.45 L771.99,770.05 L765.72,774.60 L757.94,781.90 L745.69,801.18 L740.31,810.99 L737.17,815.54 L738.37,826.68 L745.99,846.31 L769.00,867.51 L777.67,870.38 L784.25,876.85 L786.94,881.51 L788.88,898.76 L805.32,928.93 L812.79,952.03 L801.73,951.20 L797.10,954.43 L787.68,954.19 L784.40,958.26 L771.25,958.15 L771.54,965.56 L765.42,971.79 L736.87,971.67 L731.19,964.97 L726.26,965.20 L714.90,971.19 L709.97,971.07 L702.80,958.50 L703.40,951.91 L696.22,951.32 L695.18,955.87 L687.26,957.42 L674.40,950.72 L671.71,946.17 L669.62,947.84 L667.23,946.17 L660.36,947.60 L662.60,950.36 L641.97,954.43 L643.92,956.58 L640.93,957.90 L630.32,957.30 L624.79,962.09 L633.46,968.80 L627.93,968.80 L627.93,971.67 L623.59,970.83 L613.73,973.35 L610.44,979.33 L599.68,980.77 L590.86,975.86 L593.85,970.95 L587.73,965.08 L590.12,959.10 L601.62,950.12 L603.57,946.41 L603.87,941.74 L606.56,939.94 L594.90,932.52 L585.04,930.72 L581.75,938.51 L562.92,946.89 L539.75,948.80 L538.86,953.35 L518.38,950.96 L514.94,954.55 L508.97,953.11 L495.22,955.15 L487.30,951.32 L481.02,950.84 L460.25,933.48 L453.07,933.48 L434.69,927.61 L431.25,921.74 L431.70,917.07 L420.20,907.26 L402.11,884.75 L406.60,882.23 L403.46,883.07 L398.82,879.12 L390.61,878.04 L380.29,868.46 L373.87,871.34 L355.04,866.19 L352.50,862.60 L350.40,858.17 L343.23,854.22 L325.60,862.72 L329.78,855.53 L322.76,843.20 L319.92,843.44 L309.46,834.10 L295.11,831.35 L285.84,825.48 L286.74,823.09 L270.00,819.02 L254.31,818.18 L247.58,810.16 L242.80,808.96 L232.64,812.91 L205.29,813.87 L192.74,802.61 L185.86,802.85 L181.38,800.82 L169.42,802.61 L165.09,800.82 L165.24,795.07 L180.18,791.00 L182.13,784.18 L187.51,780.10 L185.42,776.63 L174.21,768.85 L169.28,760.11 Z M878.10,448.34 L878.78,449.51 L884.68,444.98 L878.10,448.34 Z M889.16,506.17 L885.27,510.12 L881.24,518.02 L889.16,506.17 Z M846.87,500.54 L847.31,504.01 L857.48,534.42 L846.87,500.54 Z M827.59,522.57 L830.13,543.28 L830.87,548.07 L827.59,522.57 Z M749.73,731.38 L750.27,732.31 L761.68,726.59 L749.73,731.38 Z M553.35,94.78 L549.47,92.15 L534.82,85.68 L553.35,94.78 Z M555.74,143.39 L554.55,149.38 L556.79,141.47 L555.74,143.39 Z M570.54,166.86 L574.25,166.80 L557.24,162.31 L570.54,166.86 Z M587.43,172.96 L590.80,169.63 L588.62,168.41 L587.43,172.96 Z M588.77,182.90 L590.42,187.17 L589.67,174.88 L588.77,182.90 Z M578.91,235.10 L588.02,232.71 L594.30,229.23 L578.91,235.10 Z M532.88,232.71 L537.06,232.95 L546.48,229.71 L532.88,232.71 Z M525.41,222.77 L528.39,227.44 L532.88,232.71 L525.41,222.77 Z M556.94,289.46 L548.42,281.68 L556.71,290.44 L566.50,277.37 L570.09,271.74 L566.95,275.33 L556.94,289.46 Z M559.18,293.05 L562.92,295.44 L559.18,293.05 L559.18,293.05 Z M557.84,327.77 L562.77,328.73 L555.74,325.97 L557.84,327.77 Z M548.42,331.96 L546.33,336.99 L549.33,331.56 L548.42,331.96 Z M550.36,365.60 L555.67,364.28 L554.70,363.81 L550.36,365.60 Z M560.38,367.52 L565.46,369.08 L558.83,365.83 L560.38,367.52 Z M563.07,388.95 L570.69,387.40 L570.94,386.23 L563.07,388.95 Z M564.56,439.24 L570.91,449.25 L569.79,445.58 L564.56,439.24 Z M584.59,499.70 L593.85,510.48 L593.25,507.96 L584.59,499.70 Z M576.07,500.18 L573.83,503.29 L576.81,500.14 L576.07,500.18 Z M573.52,525.37 L573.83,524.36 L572.33,518.50 L573.52,525.37 Z M571.14,528.53 L572.48,528.79 L572.83,527.64 L571.14,528.53 Z M543.19,553.10 L549.32,545.08 L549.32,541.37 L548.12,546.63 L543.19,553.10 Z M540.95,588.42 L546.18,592.85 L538.89,584.09 L540.95,588.42 Z M535.28,662.50 L536.91,666.36 L535.87,642.78 L535.28,662.50 Z M565.74,709.66 L564.71,707.67 L551.56,697.01 L565.74,709.66 Z M562.77,714.13 L567.25,712.58 L566.73,711.57 L562.77,714.13 Z M550.51,728.14 L553.50,734.01 L550.34,725.38 L550.51,728.14 Z M582.05,763.34 L586.53,767.17 L569.19,751.85 L582.05,763.34 Z M541.27,828.67 L541.40,828.59 L545.28,820.69 L541.27,828.67 Z M466.52,86.88 L464.28,81.25 L474.00,107.47 L466.52,86.88 Z M562.32,456.60 L572.42,454.18 L572.41,454.15 L561.42,456.54 L562.32,456.60 Z M379.55,92.27 L371.03,82.69 L375.51,89.03 L379.55,92.27 Z M389.11,172.72 L383.58,167.69 L390.46,174.04 L389.11,172.72 Z M341.59,243.48 L335.91,239.17 L334.38,238.41 L341.59,243.48 Z M358.47,277.60 L348.91,271.86 L338.00,263.00 L343.68,268.98 L358.47,277.60 Z M384.48,291.97 L386.26,292.18 L365.80,285.87 L364.58,284.49 L362.21,284.79 L384.48,291.97 Z M358.03,297.12 L361.91,294.13 L359.22,295.32 L358.03,297.12 Z M364.32,306.27 L361.91,302.99 L363.79,306.45 L364.32,306.27 Z M369.53,305.62 L368.95,305.80 L375.81,315.80 L369.53,305.62 Z M392.17,347.09 L391.35,346.33 L390.28,346.28 L392.17,347.09 Z M406.15,338.07 L398.68,353.15 L403.91,344.65 L406.15,338.07 Z M454.42,358.06 L455.62,353.90 L453.97,354.71 L454.42,358.06 Z M460.31,359.15 L456.97,359.96 L459.35,360.58 L460.31,359.15 Z M480.12,361.77 L474.99,361.77 L476.39,362.37 L480.12,361.77 Z M486.70,366.92 L496.86,362.25 L483.86,365.37 L489.84,364.53 L486.70,366.92 Z M489.15,377.95 L486.10,378.06 L465.63,383.92 L489.15,377.95 Z M471.20,411.73 L472.35,406.19 L471.20,411.73 L471.20,411.73 Z M466.08,412.30 L467.64,411.61 L459.69,410.87 L466.08,412.30 Z M463.39,415.53 L462.15,414.90 L459.13,419.92 L463.39,415.53 Z M495.37,512.99 L492.06,503.58 L491.93,504.25 L495.37,512.99 Z M471.02,508.51 L488.64,507.96 L471.75,507.96 L471.02,508.51 Z M458.15,536.34 L457.41,528.32 L457.05,537.96 L458.15,536.34 Z M448.44,550.59 L454.09,542.30 L452.18,543.64 L448.44,550.59 Z M441.42,552.50 L435.59,554.78 L448.44,550.59 L441.42,552.50 Z M454.27,557.77 L455.29,557.94 L448.44,550.59 L454.27,557.77 Z M465.47,558.52 L459.15,558.58 L462.94,559.21 L465.47,558.52 Z M510.91,606.86 L505.89,603.19 L513.25,610.08 L510.91,606.86 Z M519.43,618.59 L515.80,613.60 L515.99,615.72 L519.43,618.59 Z M475.34,666.60 L468.02,666.60 L459.35,667.68 L475.34,666.60 Z M468.77,713.54 L463.39,705.27 L468.35,714.00 L468.77,713.54 Z M466.82,715.69 L467.54,714.90 L460.85,715.81 L466.82,715.69 Z M471.61,794.95 L466.37,783.46 L472.95,799.98 L471.61,794.95 Z M451.13,830.51 L446.35,821.17 L445.36,820.84 L451.13,830.51 Z M451.97,839.05 L447.39,832.90 L449.79,838.17 L451.97,839.05 Z M452.92,840.33 L452.62,839.93 L450.83,846.55 L452.92,840.33 Z M146.79,203.92 L155.53,195.35 L148.95,200.02 L146.79,203.92 Z M192.14,180.86 L188.85,172.60 L191.09,180.27 L198.42,188.65 L192.14,180.86 Z M196.41,179.82 L195.58,179.19 L201.85,173.92 L192.14,180.86 L196.41,179.82 Z M199.46,182.15 L203.95,188.17 L201.85,183.98 L199.46,182.15 Z M261.33,184.46 L265.82,187.81 L254.91,179.31 L261.33,184.46 Z M252.97,173.08 L250.29,170.75 L254.91,179.31 L252.97,173.08 Z M298.82,191.12 L300.94,191.76 L302.75,191.22 L298.82,191.12 Z M305.74,190.34 L306.62,190.08 L306.44,189.63 L305.74,190.34 Z M387.09,346.12 L369.53,345.25 L386.27,346.45 L383.57,349.80 L387.09,346.12 Z M377.56,357.25 L377.01,357.94 L377.05,358.33 L377.56,357.25 Z M368.34,412.78 L370.13,415.17 L374.61,420.68 L368.34,412.78 Z M354.15,463.55 L353.84,464.98 L361.46,469.41 L354.15,463.55 Z M338.15,468.45 L330.83,471.56 L353.84,464.98 L338.15,468.45 Z M346.07,534.42 L338.14,534.60 L339.54,535.31 L346.07,534.42 Z M304.97,570.58 L306.06,583.45 L306.62,582.79 L304.97,570.58 Z M336.97,615.60 L337.25,615.72 L341.59,615.60 L336.97,615.60 Z M326.64,657.14 L314.85,665.22 L314.85,665.22 L326.64,657.14 Z M352.20,817.46 L355.63,829.19 L357.47,830.83 L352.20,817.46 Z M343.53,399.37 L329.03,383.68 L317.08,374.46 L335.61,391.47 L343.53,399.37 Z M185.56,393.02 L186.95,392.56 L173.91,391.83 L185.56,393.02 Z M189.90,391.59 L187.36,385.48 L188.58,392.02 L189.90,391.59 Z M204.84,396.26 L208.58,378.18 L206.79,386.20 L204.84,396.26 Z M254.61,371.47 L255.78,370.84 L249.38,370.63 L254.61,371.47 Z M306.02,371.47 L290.15,358.31 L290.18,358.66 L306.02,371.47 Z M223.37,570.22 L217.42,565.80 L219.19,568.42 L223.37,570.22 Z M238.88,595.96 L226.06,585.31 L234.73,593.81 L238.88,595.96 Z M254.95,634.11 L246.09,626.37 L249.98,631.28 L254.95,634.11 Z M152.99,660.62 L154.33,651.76 L153.43,645.77 L152.99,660.62 Z M271.05,645.17 L261.93,637.39 L257.76,635.72 L263.43,638.94 L271.05,645.17 Z M223.23,668.64 L222.18,663.25 L222.33,673.43 L223.23,668.64 Z M192.74,583.39 L190.79,583.09 L201.70,589.26 L192.74,583.39 Z M291.02,461.52 L291.82,462.94 L297.95,465.22 L291.02,461.52 Z M207.41,517.52 L207.83,516.46 L205.29,506.88 L207.41,517.52 Z M286.29,533.22 L285.69,511.79 L285.39,532.15 L279.72,532.51 L300.04,535.14 L286.29,533.22 Z M268.81,489.28 L269.85,490.20 L271.80,482.10 L268.81,489.28 Z M195.28,255.93 L194.21,255.55 L203.80,267.79 L195.28,255.93 Z M220.47,284.55 L209.33,288.62 L219.04,286.23 L220.47,284.55 Z M222.78,283.71 L221.83,284.06 L223.19,284.23 L222.78,283.71 Z M285.39,285.75 L281.13,285.05 L289.13,288.50 L285.39,285.75 Z M309.90,283.95 L307.21,287.18 L314.54,282.51 L309.90,283.95 Z M336.48,326.75 L336.66,326.81 L346.07,327.89 L336.48,326.75 Z M327.39,329.45 L326.94,330.64 L332.77,337.95 L327.39,329.45 Z M253.26,227.80 L261.04,233.90 L249.38,222.89 L253.26,227.80 Z M264.47,232.11 L268.06,228.52 L261.04,233.90 L264.47,232.11 Z M309.10,222.45 L310.50,225.40 L312.07,226.55 L309.10,222.45 Z M273.89,269.94 L275.38,262.76 L275.83,251.62 L273.89,269.94 Z M323.50,232.97 L315.22,228.84 L317.08,230.19 L323.50,232.97 Z M196.32,120.52 L196.03,127.11 L196.32,130.46 L196.32,120.52 Z M233.32,141.14 L234.73,136.92 L232.49,128.06 L233.84,133.45 L233.32,141.14 Z M281.66,114.18 L280.01,116.33 L286.35,113.21 L281.66,114.18 Z M176.98,152.15 L178.39,152.37 L180.13,150.21 L176.98,152.15 Z M228.90,143.63 L232.49,143.63 L232.86,142.54 L228.90,143.63 Z M319.17,100.65 L324.40,100.89 L328.88,99.45 L319.17,100.65 Z M438.98,818.70 L432.45,816.50 L429.43,816.96 L438.98,818.70 Z M394.34,777.59 L387.32,777.11 L391.95,777.95 L394.34,777.59 Z M444.26,780.22 L443.62,780.27 L446.20,784.77 L444.26,780.22 Z M442.56,793.84 L443.51,793.15 L446.20,784.77 L442.56,793.84 Z M374.46,667.20 L381.49,663.61 L372.34,667.64 L374.46,667.20 Z M416.56,663.66 L415.26,661.69 L411.53,660.26 L416.56,663.66 Z M418.10,682.05 L419.45,668.04 L418.24,666.21 L418.10,682.05 Z M355.34,503.53 L351.90,500.18 L346.22,498.46 L355.34,503.53 Z M352.80,540.65 L341.63,536.37 L371.63,551.54 L352.80,540.65 Z M380.07,403.52 L382.39,402.12 L388.21,397.09 L380.07,403.52 Z M394.04,378.66 L389.86,389.19 L388.21,397.09 L394.04,378.66 Z M427.32,360.57 L434.09,375.30 L429.76,363.81 L427.32,360.57 Z M434.69,362.37 L452.63,367.16 L442.46,363.93 L434.69,362.37 Z M455.91,372.43 L461.47,375.84 L460.40,373.75 L455.91,372.43 Z M419.19,397.02 L415.41,397.33 L403.91,400.21 L419.19,397.02 Z M452.99,412.68 L448.29,413.14 L452.18,413.98 L452.99,412.68 Z M442.61,334.24 L435.67,325.61 L435.89,327.77 L442.61,334.24 Z M458.15,152.01 L453.42,161.66 L454.87,161.23 L458.15,152.01 Z M451.44,162.24 L438.73,163.50 L447.99,163.26 L451.44,162.24 Z M449.64,216.42 L446.49,221.46 L446.95,221.69 L449.64,216.42 Z M440.31,218.28 L428.27,209.36 L438.58,217.38 L440.31,218.28 Z M430.96,221.93 L430.03,223.38 L438.58,217.38 L430.96,221.93 Z M423.33,228.07 L420.35,229.35 L418.25,231.63 L423.33,228.07 Z M427.66,250.43 L430.21,251.74 L434.99,251.62 L427.66,250.43 Z M462.49,235.22 L466.82,240.25 L463.09,233.90 L456.21,239.53 L455.29,242.14 L462.49,235.22 Z M485.65,248.39 L478.63,249.11 L494.92,247.67 L485.65,248.39 Z M473.40,278.80 L467.87,265.63 L465.33,272.10 L467.87,268.98 L473.40,278.80 Z M467.63,289.64 L466.31,288.50 L466.52,289.92 L466.97,289.46 L467.63,289.64 Z M479.82,309.33 L475.34,311.49 L481.28,310.13 L479.82,309.33 Z M478.93,326.45 L475.64,312.73 L471.46,314.60 L475.19,313.40 L478.93,326.45 Z M483.26,330.40 L479.98,334.74 L481.31,334.77 L483.26,330.40 Z M390.36,292.65 L394.64,287.30 L391.80,290.54 L390.31,292.65 L390.36,292.65 Z M428.42,292.45 L422.87,291.48 L422.87,291.48 L428.42,292.45 Z M453.67,304.78 L449.64,308.61 L455.51,303.57 L448.29,305.74 L453.67,304.78 Z M461.14,295.32 L457.37,301.98 L460.10,299.63 L461.14,295.32 Z M417.21,314.84 L411.38,309.09 L409.59,309.47 L417.21,314.84 Z M408.34,308.59 L408.10,307.22 L407.19,307.78 L408.34,308.59 Z M409.17,306.57 L410.48,306.82 L414.07,303.59 L409.17,306.57 Z M458.11,310.38 L464.88,310.17 L458.45,309.81 L458.11,310.38 Z M359.22,259.65 L359.67,256.41 L357.28,249.59 L359.22,259.65 Z M373.42,269.22 L375.96,264.31 L373.72,268.03 L369.98,270.54 L373.42,269.22 Z M451.78,245.51 L449.49,246.59 L447.54,249.59 L451.78,245.51 Z M448.59,253.06 L444.85,258.09 L445.29,260.08 L448.59,253.06 Z M387.77,143.39 L407.50,150.97 L404.06,149.14 L387.77,143.39 Z M414.37,155.96 L426.32,160.99 L414.37,154.63 L414.37,155.96 Z M554.28,456.60 L553.49,456.55 L553.50,456.84 L544.24,460.79 L554.28,456.60 Z M525.70,503.89 L530.79,512.51 L530.04,510.48 L525.70,503.89 Z M490.88,561.00 L510.16,559.68 L483.71,560.76 L490.88,561.00 Z M522.27,325.02 L519.28,327.77 L519.05,330.23 L522.27,325.02 Z M538.26,326.81 L531.83,325.97 L522.27,325.02 L538.26,326.81 Z M497.48,414.14 L496.26,412.30 L496.56,414.09 L497.48,414.14 Z M502.09,415.29 L500.72,415.00 L495.67,425.47 L502.09,415.29 Z M529.74,409.43 L527.20,406.19 L532.13,413.02 L529.74,409.43 Z M536.32,421.28 L547.37,430.50 L550.80,432.24 L539.01,423.19 L532.13,413.02 L536.32,421.28 Z M526.75,449.30 L526.90,450.73 L528.69,444.98 L526.75,449.30 Z M513.00,444.51 L522.60,444.40 L522.42,443.55 L513.00,444.51 Z M523.39,448.14 L523.31,452.17 L523.76,449.89 L523.39,448.14 Z M550.21,421.04 L550.96,420.66 L549.62,420.73 L550.21,421.04 Z M508.38,392.71 L507.47,392.54 L506.98,393.19 L508.38,392.71 Z M483.26,223.01 L482.27,223.36 L486.25,224.68 L483.26,223.01 Z M499.55,208.88 L488.79,223.73 L496.41,214.75 L499.55,208.88 Z M529.59,200.74 L540.05,212.71 L529.29,200.38 L516.74,190.56 L529.59,200.74 Z M487.30,293.38 L488.34,293.77 L489.06,292.92 L487.30,293.38 Z M493.42,291.73 L486.85,289.22 L490.04,291.77 L490.58,291.13 L493.42,291.73 Z M500.00,253.66 L501.20,253.77 L495.67,250.79 L500.00,253.66 Z M510.76,258.93 L514.05,265.51 L516.81,267.11 L510.76,258.93 Z M519.13,268.03 L520.79,265.57 L517.88,267.73 L520.55,269.27 L519.13,268.03 Z M534.52,278.68 L520.47,285.27 L536.61,278.08 L534.52,278.68 Z M509.87,291.93 L508.67,289.10 L508.03,291.99 L508.97,291.49 L509.87,291.93 Z M522.27,212.35 L525.85,216.06 L522.31,211.30 L520.97,213.24 L522.27,212.35 Z M474.56,150.78 L482.96,154.04 L475.79,150.57 L474.56,150.78 Z M508.14,157.91 L512.13,160.34 L511.36,159.31 L508.14,157.91 Z M515.50,164.76 L517.34,169.25 L519.73,170.33 L515.50,164.76 Z M499.25,136.68 L496.71,140.16 L495.52,144.71 L499.25,136.68 Z M550.08,133.04 L545.58,124.83 L546.63,129.02 L550.08,133.04 Z M522.12,118.37 L512.11,109.75 L500.30,97.29 L512.55,111.90 L522.12,118.37 Z M487.15,788.13 L482.81,788.37 L481.91,788.90 L487.15,788.13 Z M497.76,788.61 L503.74,780.22 L496.78,789.04 L497.76,788.61 Z M626.96,841.20 L606.70,828.12 L623.59,839.97 L626.96,841.20 Z M601.18,778.31 L590.27,777.59 L603.47,779.64 L601.18,778.31 Z M647.35,194.99 L642.57,189.84 L626.88,179.79 L647.35,194.99 Z M681.73,239.53 L681.31,238.28 L678.14,242.28 L681.73,239.53 Z M655.72,335.31 L655.57,335.07 L655.57,335.57 L655.72,335.31 Z M656.77,341.78 L655.57,340.18 L655.57,345.01 L656.77,341.78 Z M673.56,367.09 L670.07,360.94 L673.56,367.09 L673.56,367.09 Z M649.03,405.95 L649.04,405.95 L652.60,396.02 L651.24,396.26 L649.03,405.95 Z M661.40,409.31 L651.76,406.79 L654.08,407.51 L661.40,409.31 Z M640.18,438.40 L638.29,435.57 L639.12,439.44 L640.18,438.40 Z M648.66,461.50 L651.99,465.22 L646.76,457.68 L649.00,461.51 L648.66,461.50 Z M666.78,474.32 L684.72,485.21 L651.99,465.22 L666.78,474.32 Z M647.06,506.05 L643.92,500.06 L646.16,508.44 L647.06,506.05 Z M638.69,527.48 L644.07,525.68 L634.95,526.76 L638.69,527.48 Z M652.29,539.21 L650.79,538.05 L651.59,539.40 L652.29,539.21 Z M629.12,558.25 L634.20,548.67 L628.06,558.73 L629.12,558.25 Z M692.19,570.46 L685.76,573.33 L685.39,573.85 L692.19,570.46 Z M697.57,564.47 L694.88,563.64 L699.71,568.23 L697.57,564.47 Z M710.94,576.54 L702.95,573.93 L709.37,576.33 L710.94,576.54 Z M716.42,584.57 L715.95,582.31 L709.37,576.33 L716.42,584.57 Z M722.08,589.26 L718.55,587.06 L718.79,587.34 L722.08,589.26 Z M731.14,596.53 L725.37,592.01 L730.45,596.92 L731.14,596.53 Z M739.41,596.32 L738.14,591.34 L733.94,594.94 L738.07,592.61 L739.41,596.32 Z M750.03,599.79 L753.01,596.92 L749.73,599.19 L750.03,599.79 Z M751.41,602.76 L750.42,601.71 L737.47,599.43 L751.41,602.76 Z M758.24,613.68 L754.51,609.37 L758.84,616.44 L758.24,613.68 Z M753.46,620.22 L754.48,620.20 L754.36,620.15 L758.84,616.44 L753.46,620.22 Z M766.16,625.30 L762.45,623.67 L767.07,626.69 L766.16,625.30 Z M725.66,764.66 L740.61,757.24 L747.63,754.72 L738.07,757.95 L725.66,764.66 Z M755.12,913.98 L769.90,909.77 L755.12,913.98 L755.12,913.98 Z M766.31,933.48 L762.73,927.01 L770.80,946.89 L766.31,933.48 Z M615.52,295.44 L617.61,297.24 L615.40,295.06 L615.52,295.44 Z M684.33,575.34 L681.13,579.83 L684.42,576.69 L684.33,575.34 Z M676.85,583.92 L672.61,587.10 L675.90,584.83 L676.85,583.92 Z M641.34,616.83 L648.70,631.04 L645.41,621.70 L641.34,616.83 Z M665.74,682.77 L637.49,685.28 L647.66,685.28 L647.06,684.68 L665.74,682.77 Z M687.11,744.55 L688.60,747.78 L692.04,752.09 L687.11,744.55 Z M664.68,790.18 L665.89,792.44 L668.31,792.57 L664.68,790.18 Z M682.03,805.85 L680.68,807.52 L699.36,800.10 L682.03,805.85 Z M619.71,680.25 L616.27,686.24 L616.48,686.94 L619.71,680.25 Z M637.96,848.32 L646.51,855.10 L646.91,854.10 L637.96,848.32 Z M633.90,869.96 L623.14,872.89 L633.61,870.14 L633.90,869.96 Z M636.15,742.39 L633.46,740.47 L630.92,740.23 L636.15,742.39 Z M618.96,576.81 L621.26,573.98 L621.26,573.98 L618.96,576.81 Z M612.08,627.33 L598.78,637.51 L613.13,626.73 L612.52,626.17 L612.08,627.33 Z M604.55,558.32 L604.61,557.89 L601.77,554.06 L604.55,558.32 Z M625.68,559.80 L626.49,559.44 L614.63,556.45 L625.68,559.80 Z M591.64,526.43 L585.18,526.52 L588.47,527.00 L591.64,526.43 Z M598.49,520.77 L602.37,526.28 L608.95,532.75 L598.49,520.77 Z M602.22,399.61 L602.44,399.44 L592.81,400.81 L587.13,401.76 L602.22,399.61 Z M605.81,403.68 L597.59,403.20 L605.37,404.62 L605.81,403.68 Z M611.79,406.91 L611.34,408.83 L614.03,410.38 L611.79,407.87 L613.13,408.59 L611.79,406.91 Z M631.06,407.27 L630.83,407.56 L645.56,404.88 L631.06,407.27 Z M618.21,460.79 L622.67,463.98 L621.80,461.75 L618.21,460.79 Z M616.84,452.24 L616.12,453.37 L618.08,470.19 L618.21,460.79 L616.84,452.24 Z M624.81,465.51 L625.24,465.82 L630.22,465.28 L624.81,465.51 Z M624.37,440.82 L624.47,443.61 L625.24,442.83 L624.37,440.82 Z M623.34,444.75 L621.05,445.70 L618.54,449.61 L623.34,444.75 Z M629.27,399.01 L630.68,397.47 L624.19,399.85 L629.27,399.01 Z M631.93,397.02 L639.73,400.92 L632.71,396.73 L631.93,397.02 Z M579.36,381.65 L595.50,379.25 L591.61,378.66 L579.36,381.65 Z M600.94,383.74 L601.42,383.66 L595.50,379.25 L600.94,383.74 Z M602.44,364.59 L600.58,364.17 L594.30,366.20 L602.44,364.59 Z M608.70,363.34 L606.41,362.97 L605.34,364.01 L608.70,363.34 Z M616.57,361.77 L616.80,361.27 L614.63,362.16 L616.57,361.77 Z M619.86,364.29 L624.10,367.14 L618.81,361.89 L619.86,364.29 Z M624.12,350.47 L622.70,352.08 L625.68,351.12 L624.12,350.47 Z M642.76,235.40 L640.78,232.23 L633.16,227.92 L642.76,235.40 Z M628.52,222.89 L628.21,223.73 L636.44,220.37 L628.52,222.89 Z M626.28,164.70 L633.74,164.90 L615.22,162.55 L626.28,164.70 Z M710.57,840.69 L717.30,852.90 L732.99,871.82 L725.37,862.12 L710.57,840.69 Z M725.22,874.93 L742.10,870.62 L732.99,871.82 L725.22,874.93 Z M724.36,877.57 L727.46,878.28 L725.22,874.93 L724.36,877.57 Z M748.80,897.74 L752.56,903.07 L748.98,897.80 L748.80,897.74 Z M712.96,718.20 L712.81,709.94 L712.06,718.80 L714.61,723.59 L712.96,718.20 Z M673.21,792.61 L687.46,789.64 L683.37,789.44 L673.21,792.61 Z M688.91,789.34 L691.29,788.84 L693.42,786.80 L688.91,789.34 Z M711.17,780.58 L717.44,776.99 L708.18,781.90 L718.04,781.18 L711.17,780.58 Z M682.47,647.92 L693.83,655.47 L687.26,649.48 L682.47,647.92 Z M705.34,657.62 L709.82,657.86 L693.83,655.47 L705.34,657.62 Z M710.12,664.21 L704.74,672.95 L707.88,670.43 L710.12,664.21 Z M730.89,637.99 L731.46,636.96 L723.27,637.27 L730.89,637.99 Z M693.68,600.03 L691.74,603.27 L695.86,600.03 L693.68,600.03 Z M710.90,593.49 L699.06,597.52 L709.37,595.36 L710.90,593.49 Z M759.29,275.93 L754.06,282.21 L756.45,280.48 L759.29,275.93 Z M734.78,291.49 L737.77,288.74 L737.62,285.51 L735.36,288.09 L737.02,287.06 L734.78,291.49 Z M761.08,331.60 L755.55,338.19 L762.30,331.35 L761.08,331.60 Z M752.42,361.65 L752.12,359.02 L751.22,361.29 L756.90,364.05 L752.42,361.65 Z M750.62,374.69 L749.43,374.46 L747.76,375.96 L750.62,374.69 Z M726.11,388.95 L728.43,393.70 L728.35,390.87 L726.11,388.95 Z M740.16,470.37 L732.09,452.77 L739.27,471.50 L740.16,470.37 Z M733.62,478.73 L735.86,475.87 L732.99,478.27 L729.85,476.71 L733.62,478.73 Z M742.72,485.06 L750.62,493.83 L746.59,487.37 L742.72,485.06 Z M746.59,492.64 L752.45,495.11 L750.62,493.83 L746.59,492.64 Z M760.95,498.70 L777.22,505.57 L765.27,499.46 L760.95,498.70 Z M783.81,506.24 L783.80,506.29 L781.41,510.24 L784.55,507.36 L783.81,506.24 Z M770.95,521.09 L770.35,519.93 L769.45,522.21 L770.95,521.09 Z M787.39,540.89 L789.93,542.68 L782.01,534.30 L787.39,540.89 Z M728.45,394.41 L717.44,392.90 L716.05,394.08 L728.45,394.45 L728.45,394.41 Z M676.02,422.45 L674.85,421.40 L672.31,422.84 L676.02,422.45 Z M699.96,423.91 L701.45,416.22 L699.81,419.36 L699.96,423.91 Z M712.51,393.98 L709.37,400.21 L707.73,407.27 L712.51,393.98 Z M703.67,494.18 L705.49,487.24 L703.25,492.76 L703.67,494.18 Z M730.89,515.27 L726.71,517.06 L731.54,515.22 L730.89,515.27 Z M670.97,550.82 L679.63,543.76 L668.71,551.48 L670.97,550.82 Z M674.85,440.44 L675.72,439.80 L675.72,439.80 L674.85,440.44 Z M689.44,459.47 L695.18,468.45 L691.74,461.63 L689.44,459.47 Z M722.38,453.84 L725.07,448.82 L724.45,445.28 L722.38,453.84 Z M732.54,435.17 L726.11,438.40 L735.08,434.57 L727.76,432.53 L732.54,435.17 Z M696.97,238.21 L696.52,241.45 L699.46,236.41 L696.97,238.21 Z M665.14,328.85 L671.86,331.24 L673.26,330.74 L665.14,328.85 Z M677.05,329.36 L678.14,328.97 L682.18,323.34 L677.05,329.36 Z M688.60,337.23 L698.46,337.47 L692.34,336.15 L688.60,337.23 Z M718.04,336.51 L716.25,343.10 L714.07,342.32 L716.67,344.12 L718.04,336.51 Z M720.49,336.00 L720.24,335.63 L718.04,336.51 L720.49,336.00 Z M716.70,352.08 L721.33,348.84 L720.31,347.98 L716.70,352.08 Z M742.70,336.03 L741.61,336.05 L743.17,336.73 L742.70,336.03 Z M693.68,297.96 L696.67,296.76 L681.43,299.63 L693.68,297.96 Z M692.34,269.70 L701.60,271.14 L693.38,266.35 L699.51,270.18 L692.34,269.70 Z M688.43,263.76 L688.00,264.67 L690.69,268.03 L688.43,263.76 Z M792.62,600.51 L804.57,606.62 L797.55,602.19 L792.62,600.51 Z M804.27,583.15 L815.33,577.76 L803.59,583.25 L804.27,583.15 Z M800.09,464.62 L803.32,461.84 L801.88,461.99 L800.09,464.62 Z M805.67,461.86 L805.32,461.63 L805.19,461.64 L805.67,461.86 Z M861.17,477.45 L863.60,478.39 L861.60,475.95 L861.21,477.43 L861.17,477.45 Z M873.80,477.74 L874.49,475.89 L873.32,477.67 L873.80,477.74 Z M878.60,469.67 L879.89,469.29 L878.53,468.13 L878.85,469.29 L878.60,469.67 Z M957.46,517.54 L948.34,520.65 L958.63,518.51 L957.46,517.54 Z M934.44,496.11 L937.88,499.10 L942.66,501.62 L934.44,496.11 Z M945.95,516.58 L945.31,516.51 L946.37,517.16 L945.97,516.46 L945.95,516.58 Z M920.69,518.74 L932.80,515.03 L925.32,516.58 L920.69,518.74 Z M939.37,516.58 L940.92,515.99 L932.80,515.03 L939.37,516.58 Z M910.93,514.88 L910.38,515.03 L910.36,515.92 L910.93,514.88 Z M839.99,498.86 L843.28,498.02 L846.12,495.03 L839.99,498.86 Z M866.15,493.99 L856.58,493.36 L865.99,494.07 L866.15,493.99 Z M873.77,495.87 L867.52,499.47 L867.79,500.42 L873.77,495.87 Z M804.66,385.65 L803.97,385.84 L802.48,383.92 L803.99,386.61 L804.66,385.65 Z M796.69,448.92 L796.35,446.42 L782.01,447.98 L795.90,447.74 L796.69,448.92 Z M805.86,433.52 L805.77,433.56 L812.04,440.20 L814.67,441.33 L805.86,433.52 Z M836.55,453.96 L836.77,451.08 L828.78,453.84 L835.96,451.69 L836.55,453.96 Z M838.33,445.92 L850.30,443.31 L838.50,444.98 L838.33,445.92 Z M867.64,444.51 L873.17,447.86 L871.82,445.70 L867.64,444.51 Z M875.90,449.52 L877.50,450.49 L878.38,449.82 L875.90,449.52 Z M863.90,453.25 L863.28,453.19 L867.04,455.88 L863.90,453.25 Z M873.77,428.58 L864.16,432.53 L867.34,432.41 L873.77,428.58 Z M860.40,432.68 L854.19,431.46 L857.92,432.77 L860.40,432.68 Z M811.94,430.76 L808.95,432.12 L812.19,431.58 L811.94,430.76 Z M862.86,389.91 L857.48,392.90 L856.72,394.54 L862.86,389.91 Z M849.70,381.88 L848.96,374.82 L848.36,378.30 L849.70,381.88 Z M753.41,378.86 L753.01,380.09 L756.75,382.13 L753.41,378.86 Z M796.05,358.90 L795.86,351.29 L795.31,353.39 L796.05,358.90 Z M795.75,346.93 L795.04,347.42 L795.80,348.59 L795.75,346.93 Z M784.96,333.57 L783.20,333.64 L782.63,336.95 L784.96,333.57 Z M767.63,299.44 L768.46,299.22 L767.66,299.04 L767.63,299.44 Z M773.78,300.47 L777.07,302.27 L780.96,302.15 L773.78,300.47 Z" /></g></svg>