<svg xmlns="http://www.w3.org/2000/svg" viewBox="0 0 1000 1000" width="1000" height="1000"><g fill="#cccccc" stroke="#222" stroke-width="2"><path d="M400.30,942.60 L405.07,939.98 L405.56,935.80 L409.23,932.70 L408.86,925.80 L401.77,916.67 L404.70,911.82 L404.70,906.48 L400.18,904.53 L396.02,905.12 L395.77,901.43 L391.49,903.56 L388.68,901.23 L389.66,898.42 L385.13,897.54 L390.27,891.91 L388.80,889.00 L383.42,888.51 L387.58,884.14 L385.01,879.96 L385.99,873.36 L375.71,872.78 L362.38,878.60 L356.14,877.54 L353.69,882.78 L347.21,881.61 L346.35,883.95 L343.41,878.60 L318.09,877.63 L311.24,880.16 L301.58,874.53 L299.25,875.40 L284.82,873.75 L281.15,871.81 L273.19,875.01 L265.85,872.39 L257.78,872.10 L253.87,864.81 L251.42,864.43 L250.56,862.19 L247.87,862.87 L242.61,861.12 L236.13,853.84 L235.15,850.44 L236.62,835.87 L230.74,832.86 L223.40,831.99 L220.84,828.88 L215.33,828.20 L211.42,823.35 L207.87,822.37 L202.00,823.64 L195.64,819.75 L197.47,817.62 L193.92,815.96 L188.66,815.77 L184.99,817.71 L181.20,816.35 L176.67,819.56 L171.66,819.36 L171.29,822.76 L167.01,822.86 L162.12,818.88 L161.75,815.28 L158.57,812.86 L155.02,804.02 L156.00,800.81 L153.31,796.64 L148.41,793.05 L143.28,792.17 L142.18,783.53 L139.61,780.61 L138.75,775.66 L129.58,770.22 L126.27,760.22 L121.87,758.76 L118.20,754.20 L117.95,747.89 L110.61,746.82 L110.98,745.56 L106.33,744.20 L97.16,744.97 L92.51,740.51 L81.62,741.09 L75.63,738.27 L74.89,744.49 L69.27,747.69 L67.43,746.33 L65.96,747.21 L67.31,751.19 L64.98,749.44 L58.62,750.51 L53.12,744.78 L58.01,739.53 L58.62,727.49 L43.45,721.28 L42.84,714.38 L41.01,712.83 L30.73,712.15 L25.47,710.01 L20.21,703.70 L19.23,699.52 L30.36,694.96 L30.12,693.31 L35.01,690.59 L43.70,677.96 L70.12,677.38 L108.04,666.99 L140.34,659.61 L119.18,663.69 L121.99,661.55 L112.69,605.13 L121.26,595.51 L122.48,594.93 L125.91,582.69 L137.04,578.13 L134.47,575.31 L125.66,572.21 L128.11,563.17 L131.17,561.62 L136.18,564.05 L146.95,560.55 L145.97,551.62 L151.47,552.01 L153.67,555.70 L157.96,556.96 L163.71,551.03 L165.91,556.08 L169.46,557.15 L171.29,546.37 L179.24,546.96 L179.98,552.78 L184.38,544.92 L191.23,539.96 L200.04,541.81 L202.24,544.92 L215.21,550.55 L203.71,545.21 L208.11,534.43 L211.66,533.65 L221.69,537.05 L226.46,534.23 L224.73,531.09 L224.14,531.42 L222.06,528.60 L227.56,524.91 L228.42,518.79 L231.36,516.56 L235.03,519.47 L234.05,509.66 L242.00,506.07 L233.31,497.43 L233.68,494.42 L237.23,491.79 L236.01,483.54 L241.14,482.76 L245.30,477.61 L263.90,473.83 L252.64,475.67 L260.96,455.57 L261.70,448.29 L257.78,440.52 L261.82,433.91 L262.06,426.73 L264.14,423.23 L257.41,414.10 L249.09,415.85 L245.42,411.58 L239.19,409.73 L230.13,392.25 L227.07,389.73 L223.77,380.50 L207.62,368.17 L207.38,363.60 L204.44,360.59 L200.65,360.30 L191.48,354.08 L191.60,350.88 L187.19,350.49 L184.75,347.58 L187.19,345.64 L182.55,339.23 L183.16,331.26 L180.34,325.53 L179.36,315.63 L183.77,312.52 L183.16,305.92 L183.16,301.93 L180.83,299.70 L182.79,297.08 L179.73,287.46 L181.69,283.29 L180.22,275.13 L181.81,271.92 L176.06,266.78 L174.84,261.14 L170.43,260.17 L170.43,255.12 L162.85,253.96 L165.66,249.98 L165.79,245.12 L168.48,245.12 L169.82,242.98 L169.21,235.99 L167.50,234.83 L165.42,234.83 L161.99,239.39 L150.49,241.62 L148.17,239.29 L147.31,240.85 L129.94,244.34 L126.64,242.98 L121.87,249.01 L116.36,245.12 L110.74,249.59 L106.21,250.95 L94.95,250.56 L84.31,244.34 L81.38,245.70 L68.65,244.15 L67.80,241.33 L70.73,235.02 L65.23,232.50 L56.30,222.30 L62.66,216.08 L63.52,210.45 L67.67,208.99 L69.75,191.51 L85.17,189.86 L85.78,186.27 L92.39,180.83 L94.59,173.84 L92.02,170.83 L96.67,161.89 L101.07,159.37 L100.58,156.36 L103.15,153.44 L111.10,154.22 L110.86,145.97 L112.57,143.83 L124.68,148.10 L135.69,148.98 L143.40,140.43 L150.86,141.79 L150.86,138.88 L155.63,136.93 L154.16,135.57 L156.86,133.34 L192.82,134.60 L200.16,143.25 L205.05,143.64 L208.60,146.16 L229.64,146.74 L237.35,141.69 L245.30,157.52 L253.25,157.43 L260.59,164.13 L256.56,171.12 L258.03,175.10 L282.86,172.87 L290.69,168.69 L301.33,171.70 L306.22,169.57 L305.37,168.01 L311.85,169.76 L321.88,168.89 L327.75,173.55 L334.61,175.78 L336.93,178.01 L337.54,176.07 L341.58,177.14 L346.47,180.83 L351.37,180.64 L351.98,183.26 L356.99,182.68 L358.22,183.84 L368.74,194.04 L372.77,191.61 L412.65,192.68 L418.28,186.46 L428.80,185.88 L433.21,182.38 L441.89,183.74 L453.64,178.99 L459.75,172.77 L460.36,167.62 L468.56,162.09 L470.27,155.97 L480.30,148.49 L483.49,142.08 L520.92,143.44 L521.65,139.36 L533.64,138.97 L540.00,133.54 L542.94,127.90 L551.75,122.95 L561.29,127.61 L563.74,125.57 L557.86,119.84 L558.11,115.47 L563.74,109.35 L560.68,104.40 L560.68,97.89 L567.04,93.43 L573.83,92.23 L574.75,87.41 L569.73,80.32 L564.35,78.28 L566.06,72.16 L569.49,68.76 L578.78,72.55 L581.47,71.87 L585.63,76.92 L591.14,78.57 L596.52,82.84 L598.11,82.84 L599.58,79.83 L606.80,77.99 L608.14,66.91 L604.72,57.79 L609.12,50.60 L611.20,42.44 L610.71,35.45 L621.23,36.71 L626.86,31.86 L642.89,30.79 L646.92,25.83 L653.04,20.78 L663.80,19.23 L668.58,22.34 L673.47,33.60 L679.59,35.16 L685.46,32.54 L695.98,35.45 L705.28,43.80 L703.44,43.51 L703.07,47.10 L701.12,47.59 L704.66,60.21 L701.85,59.44 L698.91,61.09 L701.12,66.82 L695.98,68.18 L695.86,71.77 L710.29,95.17 L730.96,118.19 L756.65,135.77 L769.62,138.68 L772.56,137.52 L772.56,134.22 L776.84,138.20 L781.86,138.88 L784.79,143.25 L777.57,141.79 L774.64,142.76 L772.07,145.87 L774.52,147.81 L774.27,149.85 L772.56,151.50 L769.38,151.40 L767.79,153.74 L761.92,153.54 L759.84,158.40 L761.67,159.76 L757.88,163.06 L761.30,176.95 L768.40,177.43 L773.17,181.70 L781.49,183.16 L781.49,184.52 L787.24,186.95 L786.14,188.79 L786.87,190.25 L789.20,190.15 L787.24,193.46 L787.73,201.13 L789.56,202.20 L786.63,202.20 L784.67,197.44 L780.27,197.24 L774.52,201.42 L771.46,208.31 L771.70,212.78 L777.57,225.31 L784.42,234.54 L790.54,239.68 L800.21,243.47 L810.24,240.94 L809.26,237.84 L813.42,234.73 L813.30,232.69 L817.58,235.12 L819.66,234.73 L819.90,237.06 L823.33,238.91 L822.10,240.94 L823.33,245.51 L819.04,245.99 L817.45,242.79 L813.66,242.69 L809.50,244.93 L806.32,249.30 L805.83,255.71 L810.85,262.99 L802.53,265.52 L799.35,268.91 L801.31,275.03 L799.84,277.75 L801.43,279.99 L798.74,285.13 L799.96,287.07 L798.25,288.82 L799.23,290.47 L800.94,290.67 L799.96,293.10 L790.05,290.28 L789.32,291.93 L792.01,293.97 L788.46,292.90 L786.26,293.97 L785.40,298.83 L786.99,299.51 L784.42,301.35 L778.19,298.92 L777.57,295.04 L779.78,293.19 L775.74,289.31 L772.80,289.02 L773.41,290.96 L771.46,292.22 L769.74,290.86 L765.46,291.93 L753.11,290.67 L750.05,292.61 L749.56,293.97 L744.67,291.15 L744.54,286.88 L746.13,285.81 L746.38,287.56 L746.62,285.91 L738.92,282.41 L736.23,278.63 L740.14,274.16 L744.67,272.02 L752.50,273.77 L758.61,272.22 L758.98,267.94 L762.04,264.25 L766.20,264.54 L766.81,259.11 L770.97,262.21 L775.86,259.88 L778.55,256.48 L777.70,252.02 L770.48,244.93 L766.93,243.86 L763.87,246.19 L760.20,244.34 L755.55,237.35 L746.13,228.81 L728.27,225.02 L723.87,219.68 L722.28,214.72 L717.14,213.66 L713.72,214.82 L713.23,218.32 L715.92,221.13 L711.46,220.44 L704.30,222.49 L698.67,228.13 L700.14,230.55 L704.05,231.23 L705.28,235.80 L693.73,249.03 L695.12,248.62 L696.22,251.53 L691.82,260.85 L691.82,265.61 L697.45,269.98 L698.06,274.94 L703.56,276.68 L708.21,275.13 L711.64,276.88 L711.15,278.72 L705.64,280.76 L704.66,283.09 L699.77,280.47 L696.71,280.96 L695.73,286.20 L688.39,288.05 L688.27,291.04 L691.94,292.22 L698.18,291.54 L702.34,292.51 L702.95,294.55 L700.99,296.11 L700.75,301.16 L696.83,305.24 L698.67,308.54 L690.96,309.80 L689.25,308.93 L687.29,311.94 L695.73,315.53 L707.48,312.32 L709.31,315.82 L711.39,316.21 L712.00,314.27 L718.98,317.08 L720.81,329.90 L724.60,337.67 L730.84,343.40 L742.83,348.45 L750.54,344.47 L749.44,340.20 L757.02,338.93 L766.20,341.46 L772.07,339.03 L779.65,340.20 L779.04,343.60 L782.10,348.65 L775.62,351.37 L775.13,353.89 L780.14,361.66 L783.94,362.63 L785.04,369.33 L778.43,370.21 L772.80,367.39 L768.03,370.79 L765.34,379.53 L767.05,387.98 L783.81,414.98 L794.09,424.20 L797.39,424.98 L807.55,447.12 L798.13,450.91 L790.42,451.78 L789.20,460.62 L792.62,469.65 L796.54,471.89 L793.72,474.41 L790.42,473.83 L785.89,475.77 L780.88,481.79 L778.43,484.51 L778.55,488.88 L783.94,502.19 L789.56,509.37 L794.46,512.38 L788.34,512.48 L780.02,527.92 L777.33,544.43 L783.69,562.79 L792.01,576.38 L803.14,588.71 L815.13,600.47 L821.61,606.10 L838.13,631.74 L845.59,642.32 L872.02,677.28 L901.74,708.17 L942.11,744.78 L947.74,746.14 L947.25,747.30 L948.11,748.96 L947.13,751.29 L944.56,751.77 L944.68,754.39 L961.56,773.43 L963.64,773.33 L964.62,775.76 L968.78,774.98 L972.21,777.80 L977.34,778.58 L971.72,792.07 L974.65,794.11 L980.28,793.73 L980.65,796.35 L975.14,802.37 L980.77,809.55 L964.16,806.62 L980.16,810.14 L976.00,809.94 L972.08,812.27 L971.47,819.46 L974.04,823.15 L973.67,829.85 L971.84,831.41 L955.94,832.96 L948.96,836.65 L944.07,842.48 L933.55,841.80 L933.18,840.15 L939.42,833.15 L949.57,827.04 L955.32,821.11 L955.08,810.62 L953.00,809.46 L945.41,809.55 L936.61,814.31 L933.67,813.44 L932.08,815.38 L934.77,817.42 L926.94,819.17 L925.47,821.31 L917.52,821.89 L917.89,823.83 L916.91,822.08 L909.82,824.12 L912.63,831.21 L908.96,836.16 L900.40,838.69 L897.46,842.77 L897.83,845.58 L894.65,846.65 L878.99,835.00 L877.03,831.31 L866.39,821.79 L862.60,825.87 L861.98,830.53 L857.46,832.38 L846.57,833.45 L840.45,837.52 L836.29,842.96 L833.36,840.83 L822.35,841.70 L818.92,848.98 L812.56,850.83 L810.11,854.13 L805.22,851.12 L804.61,846.94 L795.43,850.73 L790.17,850.83 L786.63,848.60 L780.75,853.16 L765.95,857.24 L758.61,855.30 L748.95,857.34 L735.86,851.41 L731.21,851.51 L727.05,853.65 L728.52,856.56 L700.99,872.49 L698.30,876.18 L688.64,872.00 L680.44,861.71 L672.86,859.47 L663.68,860.54 L659.28,858.50 L642.64,862.58 L637.62,860.64 L634.81,863.45 L627.23,862.39 L621.60,863.55 L617.44,866.95 L614.87,874.53 L610.96,875.59 L607.29,884.72 L589.55,906.77 L571.81,892.98 L562.15,890.35 L561.04,898.22 L556.27,900.36 L551.14,909.20 L550.52,915.02 L544.90,917.55 L545.14,920.46 L530.34,926.68 L532.30,936.29 L528.01,941.34 L519.08,944.45 L508.81,940.85 L507.83,938.14 L501.47,934.35 L495.72,938.14 L492.42,942.99 L487.52,940.47 L484.71,941.63 L476.51,940.27 L471.50,943.19 L467.34,941.44 L465.14,943.48 L466.24,950.47 L460.36,950.66 L458.04,952.22 L449.35,950.95 L442.75,955.62 L435.78,957.27 L435.29,960.57 L443.12,963.77 L436.75,965.33 L435.53,967.95 L429.05,967.46 L424.40,972.13 L408.62,980.77 L410.70,973.87 L413.88,971.64 L411.92,968.92 L412.90,965.23 L404.09,959.31 L399.93,944.55 L400.30,942.60 Z M712.98,121.30 L716.51,131.24 L716.41,130.14 L716.16,127.81 L712.98,121.30 Z M703.82,114.94 L705.28,117.03 L712.98,121.30 L703.82,114.94 Z M718.73,137.52 L723.87,144.80 L718.44,136.71 L718.73,137.52 Z M696.22,171.70 L695.37,168.11 L693.32,166.86 L696.22,171.70 Z M664.91,206.66 L666.62,208.41 L665.01,204.59 L664.91,206.66 Z M677.75,221.23 L680.95,221.32 L671.51,218.90 L677.75,221.23 Z M756.82,410.87 L751.64,427.70 L752.00,431.10 L756.86,410.91 L756.82,410.87 Z M793.23,593.86 L794.24,595.33 L794.12,593.40 L793.23,593.86 Z M781.12,597.07 L786.38,598.81 L798.74,601.92 L781.12,597.07 Z M787.24,602.41 L788.95,606.78 L786.38,598.81 L787.24,602.41 Z M786.01,607.65 L788.97,606.80 L788.95,606.78 L786.01,607.65 Z M787.61,609.79 L792.99,614.35 L786.01,607.65 L787.61,609.79 Z M786.14,618.14 L794.82,613.38 L792.99,614.35 L786.14,618.14 Z M771.21,613.77 L771.46,611.83 L770.24,613.47 L771.21,613.77 Z M747.48,693.70 L756.65,691.95 L762.40,690.69 L747.48,693.70 Z M777.19,750.43 L771.70,751.97 L765.10,755.46 L777.19,750.43 Z M808.89,795.47 L818.19,797.42 L802.16,793.34 L808.89,795.47 Z M566.43,213.36 L568.38,203.17 L563.86,222.59 L566.43,213.36 Z M536.07,244.51 L530.09,241.72 L528.27,241.87 L536.07,244.51 Z M541.35,246.97 L538.79,245.78 L542.88,248.12 L541.35,246.97 Z M550.77,251.82 L549.51,251.91 L554.44,254.74 L550.77,251.82 Z M552.97,430.90 L552.95,430.86 L554.07,439.84 L552.97,430.90 Z M511.69,528.00 L510.77,528.31 L511.18,527.68 L507.43,530.42 L511.69,528.00 Z M528.38,522.39 L518.82,525.60 L521.29,525.40 L528.38,522.39 Z M579.39,568.13 L580.50,566.67 L579.31,566.61 L579.39,568.13 Z M547.71,608.43 L559.09,588.91 L556.15,592.21 L547.71,608.43 Z M557.86,661.45 L557.13,664.76 L558.84,672.23 L557.86,661.45 Z M696.10,642.61 L692.16,642.89 L694.02,643.68 L696.10,642.61 Z M702.09,646.01 L700.38,646.01 L702.47,647.67 L702.09,646.01 Z M692.87,667.72 L692.92,665.44 L690.84,661.07 L692.87,667.72 Z M724.84,669.45 L724.84,669.45 L730.11,673.30 L724.84,669.45 Z M737.94,694.86 L735.98,691.17 L738.67,697.58 L737.94,694.86 Z M724.11,712.44 L724.78,711.74 L709.92,704.86 L724.11,712.44 Z M701.12,706.22 L703.26,705.37 L694.63,706.03 L701.12,706.22 Z M411.55,551.42 L418.43,549.96 L417.18,549.87 L411.55,551.42 Z M500.78,547.83 L498.29,542.29 L499.39,547.25 L500.78,547.83 Z M499.88,533.07 L504.65,532.00 L506.29,531.07 L499.88,533.07 Z M557.50,678.64 L561.04,689.42 L563.74,692.63 L557.50,678.64 Z M569.49,695.06 L584.29,699.91 L563.74,692.63 L569.49,695.06 Z M561.46,750.53 L560.43,754.68 L561.46,750.53 L561.46,750.53 Z M535.11,779.74 L533.76,788.97 L534.50,792.56 L535.11,779.74 Z M562.02,823.15 L557.25,829.35 L558.11,829.17 L562.02,823.15 Z M226.34,721.67 L223.77,717.78 L214.60,705.35 L226.34,721.67 Z M231.97,701.56 L228.18,702.53 L225.44,704.85 L231.97,701.56 Z M328.77,689.81 L324.21,687.29 L321.23,686.94 L328.77,689.81 Z M393.94,668.45 L395.57,668.88 L387.51,662.93 L393.94,668.45 Z M505.26,662.43 L509.42,658.83 L497.56,665.91 L505.26,662.43 Z M517.62,671.26 L509.56,658.38 L509.42,658.83 L517.62,671.26 Z M515.46,648.43 L512.48,648.93 L512.15,650.00 L515.46,648.43 Z M160.45,779.26 L159.55,783.33 L161.01,779.74 L160.45,779.26 Z M128.82,687.62 L132.76,690.43 L131.78,689.42 L128.82,687.62 Z M111.84,675.54 L114.04,677.11 L107.19,669.51 L111.84,675.54 Z M373.02,759.64 L368.00,758.38 L373.60,760.52 L373.02,759.64 Z M375.59,763.52 L375.40,763.23 L378.77,777.12 L375.59,763.52 Z M420.85,805.77 L422.32,807.81 L420.97,803.44 L420.24,787.90 L420.85,805.77 Z M418.89,820.04 L420.61,817.71 L422.32,807.81 L418.89,820.04 Z M505.14,833.93 L515.05,840.24 L516.95,840.15 L505.14,833.93 Z M295.35,834.27 L292.65,834.42 L284.94,839.37 L295.35,834.27 Z M335.95,845.20 L337.22,844.81 L334.61,843.45 L335.95,845.20 Z M339.13,844.23 L340.36,841.02 L338.15,844.53 L339.13,844.23 Z M428.80,771.49 L426.25,763.55 L425.87,765.56 L428.80,771.49 Z M428.44,752.26 L427.75,743.22 L426.97,745.26 L428.44,752.26 Z M429.55,738.52 L431.37,736.23 L432.84,729.92 L429.55,738.52 Z M328.12,610.37 L325.43,618.92 L330.81,606.10 L328.12,610.37 Z M188.23,643.80 L190.01,643.58 L193.43,640.48 L188.23,643.80 Z M369.59,653.19 L381.86,658.75 L378.16,656.02 L369.59,653.19 Z M409.40,603.57 L409.23,605.52 L410.19,605.87 L409.40,603.57 Z M411.75,608.55 L411.80,608.82 L415.59,609.21 L411.75,608.55 Z M432.70,618.13 L433.08,619.21 L434.66,619.60 L432.70,618.13 Z M462.81,623.48 L466.60,625.52 L469.00,625.36 L462.81,623.48 Z M427.58,617.95 L421.95,623.29 L421.04,625.30 L427.58,617.95 Z M500.12,548.99 L502.45,551.52 L501.04,548.40 L500.12,548.99 Z M237.11,334.66 L243.22,336.41 L198.82,321.65 L237.11,334.66 Z M416.23,293.00 L415.59,290.68 L414.73,291.44 L416.23,293.00 Z M269.52,467.90 L267.44,468.29 L283.35,467.42 L269.52,467.90 Z M302.92,471.01 L303.60,470.67 L283.35,467.42 L302.92,471.01 Z M317.60,457.51 L305.69,469.62 L306.59,469.17 L317.60,457.51 Z M445.39,512.05 L445.19,512.87 L447.27,517.34 L445.39,512.05 Z M454.13,363.50 L459.02,359.13 L457.43,359.91 L454.13,363.50 Z M420.68,303.93 L421.58,306.69 L429.41,318.54 L420.68,303.93 Z M501.18,310.02 L501.18,310.02 L512.48,315.72 L501.18,310.02 Z M491.44,315.82 L473.31,306.14 L474.68,307.47 L491.44,315.82 Z M591.14,752.26 L586.12,752.74 L593.04,753.13 L591.14,752.26 Z M681.58,717.51 L680.93,716.23 L680.93,717.49 L681.58,717.51 Z M665.33,741.85 L667.88,739.70 L667.47,739.53 L665.33,741.85 Z M726.32,710.11 L731.09,716.91 L728.03,711.18 L726.32,710.11 Z M713.35,341.65 L722.65,340.68 L716.65,340.59 L704.54,343.69 L713.35,341.65 Z M699.89,354.57 L693.43,362.72 L694.14,361.95 L699.89,354.57 Z M735.83,378.42 L741.97,379.04 L737.94,378.27 L735.83,378.42 Z M753.56,456.40 L751.88,459.94 L753.72,458.00 L753.56,456.40 Z M746.59,461.46 L746.13,461.59 L745.62,463.28 L746.59,461.46 Z M742.88,468.39 L739.65,469.36 L742.46,469.17 L742.88,468.39 Z M714.28,499.46 L713.96,500.34 L720.86,504.95 L714.28,499.46 Z M724.06,507.63 L725.46,509.48 L725.34,508.69 L724.06,507.63 Z M725.93,512.64 L724.69,515.14 L726.19,514.42 L725.93,512.64 Z M705.81,600.88 L706.50,607.07 L706.87,602.80 L705.81,600.88 Z M707.75,618.96 L707.60,619.50 L709.31,625.23 L707.75,618.96 Z M648.15,511.12 L640.71,517.03 L642.52,516.36 L648.15,511.12 Z M665.27,480.24 L665.39,496.07 L665.52,487.71 L665.27,480.24 Z M588.48,580.95 L590.16,585.12 L589.67,582.21 L588.48,580.95 Z M609.61,606.20 L609.12,603.77 L605.57,597.36 L609.61,606.20 Z M574.50,496.26 L592.38,521.72 L576.83,498.01 L574.50,496.26 Z M674.08,435.56 L676.53,436.34 L685.70,435.66 L674.08,435.56 Z M607.90,441.97 L607.75,443.29 L608.85,441.20 L607.90,441.97 Z M632.98,303.29 L631.59,302.60 L635.30,309.02 L632.98,303.29 Z M637.62,380.50 L640.68,381.76 L636.00,379.05 L637.62,380.50 Z M635.42,375.16 L635.06,372.05 L631.02,363.70 L635.42,375.16 Z M680.10,300.22 L681.07,291.61 L679.95,296.30 L680.10,300.22 Z M682.21,286.79 L686.19,290.38 L682.21,286.79 L682.21,286.79 Z M687.05,92.46 L695.49,103.04 L695.86,103.57 L691.70,96.92 L687.05,92.46 Z M747.48,741.57 L746.99,732.06 L747.24,739.34 L747.48,741.57 Z M742.10,750.61 L741.61,756.53 L742.88,750.53 L742.10,750.61 Z M755.19,502.86 L753.11,503.35 L767.30,502.48 L755.19,502.86 Z M724.73,171.70 L705.03,172.09 L719.95,172.67 L724.73,171.70 Z M740.26,177.92 L734.76,175.20 L724.73,171.70 L740.26,177.92 Z M768.15,194.43 L759.62,193.78 L760.94,194.33 L768.15,194.43 Z M785.28,186.56 L785.53,186.85 L785.53,186.66 L785.28,186.56 Z M766.44,177.53 L766.69,177.63 L766.69,177.43 L766.44,177.53 Z M805.22,702.53 L807.43,702.32 L803.58,701.92 L805.22,702.53 Z M787.49,726.51 L786.38,722.44 L785.77,724.48 L787.49,726.51 Z M796.05,732.83 L788.87,728.14 L790.54,730.11 L796.05,732.83 Z M821.61,676.99 L814.27,680.49 L811.09,681.95 L807.42,683.98 L821.61,676.99 Z M782.96,613.09 L783.32,616.78 L783.08,611.44 L782.96,613.09 Z M812.72,702.60 L817.33,709.14 L813.91,702.63 L812.72,702.60 Z M844.61,712.34 L852.46,713.88 L851.95,713.61 L844.61,712.34 Z M847.43,710.89 L841.31,692.92 L840.70,691.17 L847.43,710.89 Z M873.18,732.07 L869.72,729.42 L869.81,730.70 L873.18,732.07 Z M889.75,734.39 L877.64,733.89 L878.38,734.19 L889.75,734.39 Z M835.32,781.49 L839.23,782.56 L840.54,781.62 L835.32,781.49 Z M907.31,792.48 L908.59,793.73 L910.92,794.60 L907.31,792.48 Z M954.97,803.95 L957.16,805.09 L958.77,805.44 L954.97,803.95 Z M853.67,714.53 L847.05,720.88 L847.30,720.89 L854.64,715.06 L853.67,714.53 Z M804.85,622.71 L798.24,627.49 L798.37,627.46 L804.85,622.71 Z M809.47,614.80 L808.65,615.23 L804.85,622.71 L809.47,614.80 Z M805.02,633.28 L805.02,633.28 L802.65,635.82 L805.02,633.28 Z M803.14,607.26 L804.21,609.08 L803.63,606.10 L803.14,607.26 Z M699.77,289.21 L698.06,287.27 L698.67,286.01 L700.26,286.49 L699.77,289.21 Z M763.99,324.27 L763.99,325.24 L762.04,325.82 L762.04,324.37 L763.99,324.27 Z M764.48,324.56 L764.61,324.56 L764.61,324.95 L764.48,324.56 Z M764.73,323.98 L764.85,323.69 L764.97,324.08 L764.73,323.98 Z M716.28,311.55 L714.21,311.55 L715.31,309.51 L721.79,308.25 L716.28,311.55 Z M750.42,293.00 L750.42,293.19 L750.17,293.10 L750.42,293.00 Z M751.03,293.10 L750.66,293.10 L750.66,292.90 L751.03,293.10 Z M751.52,292.71 L752.01,292.61 L752.25,292.80 L751.52,292.71 Z M765.22,292.61 L765.59,292.51 L765.59,292.71 L765.22,292.61 Z M744.05,291.74 L744.30,291.64 L744.54,291.83 L744.05,291.74 Z M744.05,291.25 L743.81,291.35 L743.69,291.06 L744.05,291.25 Z M743.57,290.86 L743.44,290.86 L743.32,290.57 L743.57,290.86 Z M724.36,258.52 L725.34,256.09 L729.74,251.72 L729.01,254.83 L730.72,256.19 L725.95,258.72 L724.36,258.52 Z M753.72,252.50 L751.27,251.53 L750.54,248.23 L752.50,246.38 L755.19,250.17 L753.72,252.50 Z M739.16,239.49 L739.90,238.42 L740.63,239.10 L739.65,240.56 L739.16,239.49 Z M722.28,226.86 L723.99,226.67 L723.26,227.64 L722.28,226.86 Z M784.30,370.69 L783.81,370.89 L782.71,370.79 L784.30,370.69 Z M786.50,368.36 L786.38,368.65 L786.14,368.17 L786.50,368.36 Z M785.04,363.60 L785.16,363.41 L785.16,363.80 L785.04,363.60 Z M785.04,363.02 L785.16,363.21 L784.91,363.12 L785.04,363.02 Z M781.49,350.10 L781.49,350.20 L781.12,350.10 L781.49,350.10 Z M781.61,349.62 L781.98,349.71 L781.98,349.81 L781.61,349.62 Z M782.22,347.67 L782.71,348.16 L782.59,348.65 L782.22,347.67 Z M781.24,346.61 L781.37,347.19 L781.24,347.09 L781.24,346.61 Z M782.47,346.80 L782.22,346.51 L782.47,346.22 L782.47,346.80 Z M766.32,292.51 L766.56,292.61 L766.32,292.61 L766.32,292.51 Z M767.42,291.93 L767.30,291.83 L767.54,291.64 L767.42,291.93 Z M775.37,292.22 L774.39,292.51 L773.78,291.06 L775.13,291.35 L775.37,292.22 Z M787.73,203.26 L787.61,203.26 L787.48,203.17 L787.73,203.26 Z M787.85,203.17 L788.09,203.17 L788.09,203.26 L787.85,203.17 Z M788.09,197.44 L787.97,197.44 L787.97,197.34 L788.09,197.44 Z M787.97,197.05 L788.09,197.05 L788.09,197.15 L787.97,197.05 Z M788.71,192.00 L788.95,191.51 L789.07,192.00 L788.71,192.00 Z M788.83,191.51 L788.46,191.80 L788.58,191.42 L788.83,191.51 Z M786.87,189.67 L786.99,189.57 L787.12,189.86 L786.87,189.67 Z M787.36,187.24 L787.61,187.34 L787.36,187.43 L787.36,187.24 Z M768.89,177.53 L769.01,177.82 L768.77,177.53 L768.89,177.53 Z M769.01,154.12 L768.77,154.03 L768.89,154.03 L769.01,154.12 Z M768.64,153.93 L768.77,153.93 L768.52,154.03 L768.64,153.93 Z M767.91,153.74 L768.52,153.83 L768.15,154.03 L767.91,153.74 Z M769.87,152.86 L769.87,153.15 L769.62,153.15 L769.87,152.86 Z M784.91,142.57 L785.04,142.37 L785.16,142.57 L784.91,142.57 Z M784.42,142.18 L784.91,142.28 L784.79,142.37 L784.42,142.18 Z M771.09,132.47 L770.60,132.18 L770.85,131.79 L771.09,132.47 Z M770.97,131.50 L770.97,131.11 L771.21,131.59 L770.97,131.50 Z M898.81,864.23 L898.56,864.62 L898.56,864.04 L898.81,864.23 Z M898.81,863.75 L897.95,860.25 L900.40,855.59 L905.66,857.53 L898.81,863.75 Z M960.34,723.03 L959.97,722.83 L960.46,722.73 L960.34,723.03 Z M958.38,723.32 L958.26,722.44 L959.73,722.44 L959.48,723.32 L958.38,723.32 Z M956.06,721.28 L955.45,721.08 L956.06,720.89 L956.06,721.28 Z M955.69,720.11 L955.94,720.60 L955.57,720.60 L955.69,720.11 Z M811.83,532.10 L812.93,530.35 L815.25,530.83 L815.25,531.90 L811.83,532.10 Z M810.97,527.05 L811.34,527.73 L810.48,527.63 L810.97,527.05 Z M810.36,526.66 L810.24,527.34 L809.63,527.05 L810.36,526.66 Z M799.35,519.37 L803.02,519.57 L801.80,522.87 L803.26,525.40 L800.82,525.88 L797.39,522.97 L798.49,522.19 L799.35,519.37 Z M797.51,474.12 L797.64,475.87 L795.19,474.80 L797.51,474.12 Z M795.43,474.02 L795.43,474.31 L794.70,473.92 L795.43,474.02 Z M821.12,416.24 L825.65,413.13 L827.24,416.04 L832.01,417.40 L833.36,420.61 L835.19,418.76 L837.27,420.12 L838.50,419.05 L837.39,425.08 L832.50,425.27 L832.87,426.92 L823.82,426.05 L821.12,416.24 Z M800.82,293.19 L800.69,293.19 L800.57,293.00 L800.82,293.19 Z M798.74,289.02 L798.98,289.11 L798.86,289.41 L798.74,289.02 Z M800.82,285.91 L800.45,285.91 L800.57,285.81 L800.82,285.91 Z M800.33,285.52 L800.45,285.81 L800.21,285.81 L800.33,285.52 Z" /></g></svg>