<svg xmlns="http://www.w3.org/2000/svg" viewBox="0 0 1000 1000" width="1000" height="1000"><g fill="#cccccc" stroke="#222" stroke-width="2"><path d="M403.24,751.47 L403.12,753.46 L401.67,752.51 L399.34,754.92 L395.63,756.13 L388.33,751.99 L381.98,750.35 L376.63,751.13 L372.98,748.46 L371.79,746.91 L373.04,735.19 L371.91,741.05 L362.16,735.19 L356.62,740.88 L353.98,740.36 L351.40,741.66 L348.38,739.24 L348.38,736.75 L349.26,736.06 L350.08,737.87 L351.65,734.42 L350.52,734.08 L349.26,730.89 L349.08,723.31 L348.57,720.90 L347.38,720.38 L347.31,713.57 L345.87,712.54 L345.43,708.66 L344.17,708.32 L346.12,705.74 L345.11,692.30 L344.17,690.15 L345.99,683.94 L344.61,677.74 L346.68,676.11 L346.56,674.21 L336.93,673.87 L331.96,677.57 L328.25,670.94 L322.78,665.42 L321.21,658.28 L318.44,656.98 L313.97,650.87 L314.22,646.56 L312.65,643.20 L307.62,641.39 L307.49,639.15 L304.03,633.98 L303.46,630.88 L304.85,627.09 L304.47,623.91 L301.77,617.62 L302.58,606.59 L302.72,606.18 L299.63,601.08 L298.75,596.77 L290.82,588.94 L288.11,581.01 L284.15,579.29 L283.02,580.92 L279.24,582.04 L277.73,579.12 L271.32,579.29 L270.00,577.22 L266.35,575.84 L263.52,581.70 L261.63,583.25 L256.60,583.77 L249.68,592.04 L247.85,596.34 L239.48,599.01 L230.61,591.26 L230.42,589.37 L226.40,588.50 L224.45,590.31 L222.50,589.11 L220.48,590.14 L218.53,585.49 L215.58,583.68 L212.75,578.86 L213.38,573.00 L215.20,571.02 L216.08,565.85 L218.28,562.23 L217.46,560.34 L218.35,558.01 L215.39,554.65 L215.26,545.09 L212.81,542.16 L211.11,542.34 L212.49,539.15 L210.73,537.60 L210.04,530.79 L203.50,529.85 L199.98,529.07 L198.47,526.66 L196.39,526.14 L189.78,528.04 L187.39,527.09 L187.33,523.82 L189.47,523.13 L190.35,519.77 L189.53,515.98 L187.33,515.55 L182.93,511.07 L182.74,508.83 L176.01,509.17 L172.36,505.30 L167.39,504.69 L166.76,506.76 L159.46,505.21 L156.82,508.92 L157.95,515.63 L154.93,516.75 L152.16,513.82 L149.90,516.06 L148.26,516.32 L148.45,513.74 L147.44,512.19 L144.74,515.55 L143.48,512.96 L137.25,514.43 L135.49,512.71 L133.60,513.31 L133.67,511.84 L129.89,512.79 L129.39,514.43 L126.81,514.00 L127.00,510.12 L125.11,507.19 L126.12,501.34 L124.29,497.37 L124.80,492.81 L122.85,489.53 L122.85,482.82 L120.96,475.75 L118.51,474.72 L118.69,471.96 L116.24,467.31 L117.12,465.76 L115.55,458.53 L117.12,455.77 L116.18,448.02 L114.16,446.90 L112.91,445.69 L111.46,447.76 L108.31,448.71 L107.24,445.26 L105.92,444.40 L103.78,445.43 L102.40,442.93 L104.85,439.58 L103.47,438.54 L104.66,435.35 L109.07,431.91 L109.01,428.46 L106.17,420.28 L102.15,418.99 L102.78,410.20 L99.88,407.96 L98.81,405.47 L97.12,402.80 L92.21,401.16 L90.51,402.02 L85.85,399.35 L82.77,400.81 L77.55,400.04 L75.98,401.42 L70.00,401.85 L66.29,399.52 L64.72,396.34 L60.25,392.29 L60.50,386.17 L59.18,384.10 L61.70,379.88 L60.88,375.75 L59.24,377.13 L57.36,375.66 L54.78,375.92 L53.27,375.15 L52.70,371.87 L55.40,362.66 L54.71,361.54 L56.85,359.99 L60.12,352.23 L60.19,349.48 L58.55,346.20 L61.13,338.80 L60.63,336.21 L57.92,334.49 L60.25,332.25 L61.07,329.67 L59.43,328.80 L57.73,330.61 L56.22,327.60 L54.52,326.74 L54.27,318.04 L52.01,318.90 L49.05,316.66 L45.21,317.09 L43.70,314.08 L44.40,307.96 L46.28,305.72 L46.66,302.71 L42.38,297.02 L27.03,299.09 L24.01,302.10 L22.57,300.81 L20.93,302.27 L19.80,286.77 L23.32,284.01 L24.45,269.54 L27.91,265.15 L31.06,263.86 L28.60,249.30 L30.55,245.68 L28.60,244.48 L26.03,239.65 L22.88,230.78 L19.23,227.25 L22.57,224.15 L23.76,225.01 L25.33,223.72 L26.09,218.98 L29.11,218.55 L30.81,216.74 L32.51,217.09 L33.70,212.18 L41.94,217.52 L48.74,208.04 L57.23,205.72 L57.23,199.08 L59.93,196.84 L61.26,199.77 L65.03,200.20 L69.25,193.40 L72.14,192.97 L74.40,190.73 L76.73,194.00 L80.38,191.59 L83.59,191.24 L86.36,180.31 L90.89,180.22 L93.84,174.45 L96.74,174.19 L99.57,171.69 L102.21,172.04 L105.80,169.19 L114.35,170.74 L118.82,169.28 L120.08,172.04 L123.73,174.88 L127.12,176.77 L129.26,174.53 L133.79,174.71 L136.75,171.69 L139.08,165.92 L142.35,162.65 L144.11,155.58 L148.26,153.00 L150.34,141.37 L152.73,140.94 L155.31,138.10 L156.19,134.74 L155.12,132.16 L158.14,121.13 L158.71,114.24 L159.77,114.41 L160.34,111.31 L162.61,108.47 L163.36,103.30 L167.89,93.05 L165.37,86.50 L170.47,86.50 L173.43,78.23 L173.68,72.98 L178.71,64.37 L179.65,57.91 L186.39,47.23 L188.15,46.19 L189.66,47.57 L191.48,46.54 L193.37,42.40 L195.26,42.14 L199.41,44.64 L200.35,48.00 L202.74,49.12 L205.01,58.34 L207.97,62.90 L213.25,65.14 L215.26,63.25 L218.85,63.85 L230.17,68.50 L232.50,67.64 L233.38,64.71 L235.83,64.54 L239.48,58.85 L238.16,55.92 L239.29,51.27 L237.47,49.46 L234.83,43.00 L234.58,39.73 L246.22,30.17 L261.38,29.22 L276.35,22.76 L279.31,28.71 L280.12,34.13 L279.87,37.92 L276.92,44.64 L277.04,49.55 L284.97,51.27 L294.09,57.39 L296.10,61.01 L299.69,60.75 L304.35,61.61 L309.69,67.29 L310.20,71.95 L312.34,73.84 L312.52,77.80 L314.29,79.10 L324.23,81.94 L331.84,81.51 L334.10,77.98 L342.60,70.57 L344.80,61.44 L344.55,56.79 L343.35,54.81 L343.98,51.10 L355.18,41.71 L360.71,39.39 L362.98,40.08 L366.38,34.48 L370.78,33.44 L371.79,29.39 L374.49,25.00 L373.67,19.92 L378.20,23.62 L381.98,19.23 L386.57,23.54 L391.04,25.69 L394.43,31.63 L398.71,32.07 L400.16,30.69 L402.49,43.69 L400.54,29.91 L404.37,29.05 L410.29,30.51 L411.42,28.19 L415.57,25.43 L419.79,25.26 L421.49,26.72 L423.12,24.57 L425.58,25.69 L429.35,24.23 L432.62,26.47 L437.84,33.01 L440.74,33.10 L445.20,36.63 L448.04,36.46 L448.85,43.00 L450.74,43.78 L454.01,48.26 L463.95,37.84 L477.41,28.19 L490.31,21.73 L491.32,25.35 L489.56,35.60 L489.49,45.50 L491.38,49.55 L496.16,53.86 L497.36,60.83 L505.54,67.21 L504.15,72.38 L504.47,80.39 L503.71,87.88 L500.69,90.47 L497.99,95.81 L488.55,104.51 L487.54,107.00 L488.42,109.24 L488.11,113.38 L486.22,114.07 L483.89,120.53 L492.83,133.71 L505.54,146.88 L509.69,146.54 L511.32,148.09 L512.96,145.51 L516.42,145.51 L521.14,144.56 L524.16,140.77 L528.12,137.84 L531.39,139.13 L536.61,135.26 L541.77,133.53 L544.29,135.69 L548.06,136.12 L554.10,134.48 L554.61,138.27 L558.76,141.29 L572.29,141.37 L569.01,140.51 L571.03,138.27 L571.66,133.88 L574.55,132.33 L577.13,128.28 L579.33,128.19 L584.68,122.34 L587.89,124.75 L589.33,127.59 L594.18,130.43 L596.44,133.79 L602.29,137.32 L606.57,134.91 L608.33,135.08 L610.66,120.96 L612.61,117.94 L617.71,120.35 L619.41,119.06 L619.34,121.73 L621.04,124.14 L621.86,127.85 L623.81,129.05 L625.01,128.11 L628.59,128.80 L629.79,123.46 L629.35,116.74 L631.93,112.52 L631.99,107.35 L633.18,107.18 L633.25,110.10 L634.38,110.45 L640.04,108.21 L640.29,109.50 L643.38,108.64 L644.89,110.19 L643.63,114.58 L645.20,116.65 L644.82,121.82 L648.41,126.81 L651.99,124.06 L651.87,121.22 L652.94,121.04 L653.82,123.97 L660.36,120.87 L655.89,122.77 L655.52,120.18 L657.03,115.44 L660.68,113.98 L660.11,111.40 L661.43,109.93 L668.54,106.92 L669.67,104.33 L676.09,101.06 L679.42,102.52 L679.68,108.98 L684.20,107.35 L684.58,109.59 L687.54,110.36 L696.28,102.27 L701.76,114.33 L710.75,130.17 L723.27,145.51 L743.03,162.22 L758.63,174.79 L763.16,184.01 L764.67,185.13 L771.40,187.71 L770.14,199.34 L775.43,233.45 L782.09,256.19 L803.86,306.24 L825.88,354.65 L839.47,383.41 L866.65,434.58 L880.74,458.96 L895.96,482.39 L904.84,495.39 L909.81,500.47 L918.49,506.50 L925.28,509.86 L935.85,508.57 L938.68,506.42 L940.25,503.23 L940.88,500.22 L939.31,496.77 L940.19,495.13 L943.09,498.32 L944.78,503.14 L943.02,503.06 L941.76,505.04 L939.94,514.94 L940.07,519.94 L942.46,525.37 L944.91,526.66 L945.41,524.68 L946.61,521.66 L949.69,520.80 L949.69,522.18 L951.39,523.56 L950.13,528.47 L953.78,532.69 L956.99,544.83 L955.16,546.38 L954.41,549.66 L954.72,553.10 L953.53,555.95 L954.28,559.65 L966.80,578.34 L980.77,595.14 L969.70,616.07 L964.85,619.60 L960.20,619.26 L956.99,617.45 L955.35,620.29 L950.19,621.84 L948.50,620.89 L944.60,623.13 L942.64,620.89 L938.87,625.20 L934.47,623.65 L932.26,620.46 L930.38,623.91 L928.55,623.48 L927.92,616.76 L927.80,621.32 L924.02,622.79 L919.75,622.01 L918.30,625.20 L914.84,626.40 L912.57,630.97 L907.98,630.88 L902.76,634.50 L894.96,635.28 L898.42,623.65 L894.45,636.83 L894.90,641.05 L890.74,642.43 L888.10,640.01 L885.40,643.29 L882.06,641.91 L878.03,642.51 L877.28,644.15 L876.77,642.36 L876.71,643.46 L868.47,650.78 L866.21,650.87 L863.75,649.23 L861.55,650.26 L858.34,649.58 L857.71,651.82 L852.05,655.26 L847.08,663.10 L842.11,660.60 L840.10,661.63 L834.81,658.28 L830.35,659.40 L827.33,667.41 L822.55,672.14 L819.34,673.61 L816.95,672.57 L816.38,669.73 L814.37,671.63 L806.25,672.23 L799.21,671.63 L797.26,669.82 L791.91,670.16 L789.96,666.11 L789.83,658.19 L785.42,658.69 L784.30,666.98 L781.72,669.21 L779.45,666.63 L774.80,666.54 L773.73,669.47 L769.39,672.92 L769.32,680.24 L762.91,681.62 L756.30,677.57 L751.96,678.86 L746.30,682.39 L745.04,685.32 L731.33,681.88 L727.93,683.51 L723.34,680.58 L716.60,679.46 L713.46,682.14 L711.26,688.34 L708.43,689.97 L704.21,698.59 L707.42,700.48 L708.43,707.89 L706.35,716.68 L700.50,720.98 L698.74,726.58 L692.76,729.17 L694.40,734.68 L697.98,737.61 L695.70,743.31 L695.72,743.29 L702.70,742.34 L707.92,744.24 L709.94,748.80 L707.42,758.28 L702.64,763.62 L700.12,764.48 L699.18,768.19 L700.56,770.86 L706.10,772.66 L706.73,776.80 L704.59,779.12 L704.46,782.31 L708.68,788.94 L707.48,791.61 L703.08,792.39 L700.69,795.23 L697.73,800.83 L697.79,803.33 L695.91,804.62 L695.97,806.52 L693.96,807.12 L694.46,810.31 L692.57,813.41 L692.82,815.04 L690.62,814.27 L689.87,816.42 L691.50,818.32 L690.94,820.90 L688.55,821.24 L689.36,822.71 L688.99,826.07 L687.92,828.14 L685.97,828.14 L685.40,829.77 L681.50,832.27 L680.81,835.97 L679.61,837.01 L677.60,839.59 L679.61,849.50 L678.67,851.82 L679.05,855.10 L677.10,858.46 L677.72,860.87 L675.15,864.83 L663.76,871.55 L668.23,883.00 L665.58,895.84 L665.90,898.51 L668.79,903.42 L667.41,909.53 L666.02,911.34 L660.74,911.09 L657.15,913.50 L656.08,912.46 L654.45,913.32 L651.62,910.91 L648.97,911.09 L646.96,906.69 L641.30,900.92 L638.15,904.11 L636.52,896.96 L627.08,887.14 L623.37,885.67 L619.97,887.57 L617.90,886.28 L616.01,887.91 L614.56,891.88 L609.65,895.58 L609.40,898.68 L607.89,899.54 L611.29,906.52 L610.10,910.65 L611.98,914.96 L609.72,919.78 L611.60,930.90 L610.22,937.36 L613.62,941.66 L616.07,956.82 L617.90,961.47 L609.72,971.29 L602.61,971.90 L599.71,974.65 L593.05,973.10 L590.15,974.05 L583.29,980.77 L575.56,979.56 L571.53,980.77 L570.27,977.07 L570.65,971.12 L568.07,967.93 L562.85,965.87 L559.26,967.33 L555.68,965.95 L545.74,945.71 L531.02,940.72 L526.74,937.27 L521.26,941.23 L517.93,937.18 L509.63,940.20 L505.03,932.36 L498.30,928.66 L498.43,927.11 L493.96,921.08 L490.37,910.05 L490.37,901.95 L486.66,897.22 L486.35,891.88 L487.61,888.60 L493.39,882.66 L500.75,879.39 L500.31,874.99 L502.45,870.34 L500.50,865.26 L505.28,864.31 L506.48,859.75 L508.74,856.73 L508.74,853.37 L511.70,843.73 L513.59,839.68 L517.11,836.15 L517.36,833.99 L515.16,833.13 L514.78,828.91 L516.42,826.93 L516.36,823.05 L518.56,815.99 L516.04,810.22 L515.66,804.36 L508.18,802.38 L504.34,795.40 L497.80,794.46 L494.40,793.16 L491.76,790.24 L484.65,788.08 L483.52,778.26 L476.28,774.56 L474.02,770.77 L474.27,766.12 L472.70,764.22 L472.26,760.52 L470.31,758.37 L462.13,756.30 L461.18,758.71 L458.86,760.86 L453.01,761.90 L447.66,772.66 L441.81,769.22 L434.89,757.59 L422.24,758.19 L420.04,760.86 L408.40,758.88 L403.87,754.58 L403.24,751.47 Z M742.24,166.53 L742.24,166.53 L743.03,162.22 L742.24,166.53 Z M645.51,161.44 L645.45,163.51 L645.55,161.03 L641.24,163.16 L645.51,161.44 Z M651.43,159.37 L650.55,155.50 L651.74,160.84 L652.75,161.36 L651.43,159.37 Z M644.03,141.78 L643.82,144.56 L644.31,144.56 L644.03,141.78 Z M665.08,137.24 L665.08,131.29 L665.02,134.48 L665.08,137.24 Z M656.84,141.29 L668.29,141.54 L670.93,141.37 L656.84,141.29 Z M665.21,154.46 L665.90,157.48 L665.65,152.14 L665.21,154.46 Z M672.19,166.27 L672.25,164.11 L671.56,157.74 L672.19,166.27 Z M671.56,166.11 L673.01,167.39 L677.28,168.07 L672.19,166.27 L671.56,166.11 Z M669.80,165.66 L669.35,166.33 L670.32,165.79 L669.80,165.66 Z M663.83,180.18 L664.20,179.79 L667.22,175.05 L668.98,172.12 L663.83,180.18 Z M658.35,227.94 L666.97,227.85 L674.71,228.37 L672.19,227.51 L658.35,227.94 Z M681.54,238.24 L680.37,238.19 L679.55,239.83 L681.54,238.24 Z M687.22,233.71 L689.11,231.13 L687.06,233.84 L687.22,233.71 Z M678.26,281.29 L680.05,279.28 L680.43,277.81 L678.26,281.29 Z M679.93,292.63 L678.17,303.82 L681.12,289.10 L679.93,292.63 Z M665.53,335.71 L665.58,335.61 L665.77,330.87 L665.53,335.71 Z M659.73,362.91 L667.95,363.99 L667.09,363.43 L659.73,362.91 Z M671.94,370.58 L670.11,365.41 L669.26,364.85 L671.94,370.58 Z M685.40,411.41 L690.31,405.47 L690.34,404.48 L685.40,411.41 Z M674.96,430.27 L673.14,431.49 L680.68,429.15 L688.99,423.30 L687.66,423.55 L682.51,427.86 L674.96,430.27 Z M665.08,436.91 L665.02,437.22 L666.32,436.07 L665.08,436.91 Z M691.63,455.42 L694.59,455.51 L688.23,454.82 L691.63,455.42 Z M689.99,479.20 L691.00,476.11 L690.68,476.36 L689.99,479.20 Z M681.63,477.30 L688.86,479.80 L689.99,479.20 L681.63,477.30 Z M650.74,491.16 L650.74,491.16 L656.65,493.41 L650.74,491.16 Z M677.41,548.45 L682.25,548.71 L683.64,548.11 L677.41,548.45 Z M690.51,563.58 L690.62,563.09 L687.41,562.41 L690.51,563.58 Z M692.82,575.50 L691.94,571.45 L690.18,564.99 L692.82,575.50 Z M663.44,673.18 L663.89,674.29 L662.81,669.30 L663.44,673.18 Z M669.11,688.34 L664.70,690.15 L666.90,689.97 L670.66,688.54 L666.53,687.04 L669.11,688.34 Z M658.16,684.03 L661.37,687.99 L664.70,690.15 L658.16,684.03 Z M686.15,670.33 L682.55,671.55 L682.55,671.55 L686.15,670.33 Z M651.61,812.30 L652.25,810.39 L652.56,806.26 L651.61,812.30 Z M426.39,90.81 L426.97,87.35 L424.57,94.17 L426.39,90.81 Z M433.38,136.29 L432.81,127.76 L432.56,133.28 L433.38,136.29 Z M455.61,151.02 L450.99,148.26 L454.14,150.93 L455.61,151.02 Z M472.00,152.40 L467.39,153.15 L468.67,153.43 L472.00,152.40 Z M477.98,178.93 L477.83,178.80 L472.51,189.61 L477.98,178.93 Z M456.65,217.52 L463.39,216.14 L458.16,216.48 L456.65,217.52 Z M452.50,222.68 L455.62,221.19 L455.21,221.22 L450.24,222.43 L452.50,222.68 Z M467.98,223.52 L464.52,224.84 L459.55,228.54 L467.98,223.52 Z M475.21,290.90 L475.27,289.84 L474.08,293.14 L475.21,290.90 Z M451.70,296.52 L460.30,300.81 L451.75,296.42 L451.70,296.52 Z M423.25,345.26 L428.66,339.14 L422.28,345.39 L423.25,345.26 Z M414.57,351.90 L413.69,350.94 L409.72,348.62 L414.57,351.90 Z M419.22,356.97 L418.52,356.21 L422.49,362.23 L419.22,356.97 Z M432.63,379.63 L429.16,372.39 L432.24,379.62 L432.63,379.63 Z M448.85,377.82 L435.98,379.69 L437.21,379.71 L448.85,377.82 Z M511.20,375.23 L508.81,372.99 L513.59,377.99 L511.20,375.23 Z M587.06,429.56 L586.50,428.98 L585.66,429.01 L587.06,429.56 Z M600.55,440.12 L595.19,433.20 L600.55,440.12 L600.55,440.12 Z M599.34,505.99 L597.64,500.65 L599.33,506.31 L599.34,505.99 Z M610.72,529.76 L610.27,529.42 L610.62,530.29 L610.72,529.76 Z M587.64,563.09 L592.54,569.99 L585.56,559.56 L587.64,563.09 Z M575.75,585.06 L576.86,579.05 L576.50,579.20 L575.75,585.06 Z M586.06,600.31 L578.01,591.50 L578.26,592.21 L586.06,600.31 Z M602.67,654.49 L602.20,652.07 L602.36,657.33 L602.67,654.49 Z M596.99,692.53 L596.88,689.28 L596.99,692.53 L596.99,692.53 Z M595.31,694.28 L596.21,693.34 L594.45,693.93 L595.31,694.28 Z M574.86,750.53 L575.30,744.07 L574.87,743.09 L574.86,743.21 L574.86,750.53 Z M571.91,886.79 L574.17,883.00 L570.84,888.00 L571.91,886.79 Z M592.23,449.05 L587.25,445.05 L588.58,446.98 L592.23,449.05 Z M227.34,185.13 L229.04,185.73 L230.88,184.84 L227.34,185.13 Z M238.04,184.27 L239.61,183.06 L239.56,182.52 L238.04,184.27 Z M238.66,175.60 L238.98,176.43 L243.20,183.06 L240.74,177.89 L238.66,175.60 Z M288.07,161.21 L284.97,166.70 L288.05,161.53 L288.07,161.21 Z M324.54,176.77 L328.94,170.24 L326.55,172.73 L324.54,176.77 Z M336.04,162.13 L336.49,162.39 L334.63,164.33 L341.46,159.34 L339.01,160.24 L336.04,162.13 Z M358.51,175.65 L358.13,177.20 L360.40,189.69 L358.51,175.65 Z M367.26,236.21 L366.33,236.68 L370.30,235.83 L367.26,236.21 Z M375.91,234.63 L376.57,234.49 L377.45,232.59 L375.91,234.63 Z M456.15,476.79 L456.28,473.25 L455.46,479.20 L457.27,475.51 L456.15,476.79 Z M476.89,604.03 L474.96,601.77 L475.65,603.66 L472.82,604.78 L476.89,604.03 Z M477.59,604.85 L477.97,608.00 L478.04,605.39 L477.59,604.85 Z M489.80,665.55 L488.08,667.99 L489.31,666.98 L489.80,665.55 Z M456.69,746.23 L459.86,747.17 L458.73,745.96 L456.69,746.23 Z M158.77,393.92 L155.94,394.96 L155.81,395.60 L158.77,393.92 Z M167.51,384.28 L165.69,385.83 L165.31,387.64 L167.51,384.28 Z M171.54,378.16 L173.62,372.39 L169.77,380.85 L171.54,378.16 Z M250.55,350.21 L252.93,352.57 L248.54,344.57 L251.50,350.60 L250.55,350.21 Z M255.02,354.65 L256.45,353.98 L253.97,353.60 L255.02,354.65 Z M276.22,376.35 L276.91,376.80 L276.35,370.75 L276.22,376.35 Z M274.15,378.42 L277.04,378.16 L276.97,377.42 L274.15,378.42 Z M266.10,375.23 L265.65,378.25 L266.54,375.19 L266.10,375.23 Z M285.98,419.42 L286.25,419.27 L280.82,418.90 L285.98,419.42 Z M294.53,416.23 L297.24,413.22 L291.32,418.56 L294.53,416.23 Z M297.43,409.51 L295.41,403.48 L297.41,409.84 L297.43,409.51 Z M361.09,443.02 L359.08,443.71 L358.16,445.51 L361.09,443.02 Z M408.72,448.19 L412.43,447.33 L408.39,447.56 L408.72,448.19 Z M303.28,602.63 L303.13,604.95 L305.60,597.55 L303.28,602.63 Z M374.11,584.46 L373.16,584.89 L375.19,584.64 L374.11,584.46 Z M382.61,585.92 L381.96,585.81 L384.24,588.07 L382.61,585.92 Z M371.91,546.47 L372.73,548.97 L368.52,532.95 L371.91,546.47 Z M392.45,520.71 L381.22,517.79 L390.47,520.97 L392.45,520.71 Z M394.12,521.15 L393.44,520.97 L396.01,523.20 L394.12,521.15 Z M400.54,528.12 L399.83,527.35 L400.66,531.05 L400.54,528.12 Z M409.16,560.60 L405.82,561.80 L403.49,563.53 L409.16,560.60 Z M411.36,556.98 L411.48,555.43 L409.16,560.60 L411.36,556.98 Z M465.29,606.13 L463.45,606.68 L464.33,606.85 L465.29,606.13 Z M320.20,601.83 L319.63,602.20 L316.65,615.50 L316.99,615.03 L320.20,601.83 Z M347.88,611.24 L353.48,612.36 L354.79,611.76 L347.88,611.24 Z M410.41,659.48 L409.41,662.58 L411.80,657.33 L410.41,659.48 Z M394.62,696.26 L395.00,695.95 L393.78,695.44 L394.62,696.26 Z M366.84,707.00 L365.31,719.09 L366.88,709.78 L366.84,707.00 Z M366.25,700.83 L366.78,703.17 L366.69,696.78 L366.25,700.83 Z M402.80,574.12 L402.58,566.38 L402.36,567.06 L402.80,574.12 Z M184.00,448.79 L177.83,450.60 L168.96,453.62 L184.00,448.79 Z M225.68,424.31 L221.49,427.34 L224.89,425.71 L225.68,424.31 Z M174.75,400.99 L173.63,400.94 L180.98,404.52 L174.75,400.99 Z M99.57,294.26 L98.69,293.32 L99.57,294.93 L99.57,294.26 Z M139.71,298.14 L139.71,299.78 L139.89,299.91 L139.71,298.14 Z M402.56,339.66 L402.49,340.52 L403.24,341.20 L402.56,339.66 Z M300.70,313.30 L304.09,315.88 L297.80,309.85 L300.70,313.30 Z M296.48,291.42 L296.98,305.12 L297.80,309.85 L296.48,291.42 Z M138.83,338.02 L139.64,340.00 L139.35,336.84 L138.83,338.02 Z M131.24,201.48 L131.72,199.08 L131.15,195.98 L131.24,201.48 Z M127.88,211.83 L129.95,207.96 L130.38,205.80 L127.88,211.83 Z M124.17,223.55 L124.54,224.45 L124.67,221.31 L124.17,223.55 Z M139.56,296.77 L139.33,294.52 L137.00,287.63 L139.56,296.77 Z M268.42,209.42 L270.52,212.15 L265.59,202.44 L268.42,209.42 Z M271.84,215.44 L271.76,214.59 L271.27,213.62 L271.84,215.44 Z M269.05,223.03 L272.13,218.72 L272.03,217.55 L269.05,223.03 Z M270.44,120.35 L270.85,121.65 L270.82,119.63 L270.44,120.35 Z M394.50,110.10 L389.90,101.92 L390.35,104.07 L394.50,110.10 Z M401.29,146.80 L404.77,136.12 L404.31,136.46 L401.29,146.80 Z M296.32,156.33 L297.65,156.29 L297.24,155.76 L296.32,156.33 Z M330.20,151.71 L333.98,160.92 L334.81,161.41 L330.20,151.71 Z M235.46,167.41 L234.56,164.37 L234.51,164.97 L235.46,167.41 Z M386.16,81.21 L385.77,80.07 L385.69,80.56 L386.16,81.21 Z M390.91,86.07 L387.91,83.66 L389.21,85.47 L390.91,86.07 Z M566.70,832.16 L558.44,827.36 L562.79,830.72 L566.70,832.16 Z M574.49,833.39 L571.06,833.76 L572.16,834.17 L574.49,833.39 Z M480.56,453.36 L479.05,454.24 L483.52,454.05 L480.56,453.36 Z M516.99,503.75 L512.20,499.35 L517.15,504.59 L516.99,503.75 Z M555.68,480.49 L556.28,481.67 L555.68,479.89 L561.78,480.32 L555.02,479.06 L555.68,480.49 Z M530.45,576.96 L532.15,580.24 L530.13,574.38 L530.45,576.96 Z M533.03,675.67 L534.60,677.41 L531.90,672.32 L533.03,675.67 Z M537.24,680.33 L541.14,679.81 L536.84,679.88 L537.24,680.33 Z M556.24,672.14 L556.90,672.50 L555.87,670.68 L556.24,672.14 Z M510.25,732.01 L509.88,733.82 L514.85,724.51 L510.25,732.01 Z M518.75,714.61 L518.06,717.97 L519.44,714.26 L518.75,714.61 Z M523.83,707.10 L522.96,709.18 L523.97,707.98 L523.83,707.10 Z M524.98,704.36 L524.63,705.18 L526.55,703.58 L524.98,704.36 Z M576.63,438.46 L578.83,438.28 L581.91,436.99 L576.63,438.46 Z M584.99,431.31 L584.73,429.05 L584.36,429.07 L584.99,431.31 Z M490.50,453.44 L497.42,447.50 L498.03,446.50 L490.50,453.44 Z M500.42,442.55 L501.70,440.44 L504.28,433.55 L500.42,442.55 Z M557.69,423.98 L559.70,436.99 L558.44,426.40 L557.69,423.98 Z M559.58,449.39 L557.12,446.55 L563.98,455.17 L559.58,449.39 Z M554.87,478.72 L554.95,476.59 L554.42,477.73 L554.87,478.72 Z M527.62,379.71 L525.54,380.06 L523.59,380.66 L527.62,379.71 Z M610.64,136.33 L611.79,140.08 L611.23,136.20 L610.64,136.33 Z M608.84,145.76 L610.91,142.49 L611.79,140.08 L608.84,145.76 Z M599.71,151.28 L600.16,154.72 L601.42,156.67 L599.71,151.28 Z M603.05,169.71 L599.78,168.33 L599.23,168.93 L603.05,169.71 Z M579.83,223.12 L587.95,213.30 L580.90,221.74 L574.74,228.63 L579.83,223.12 Z M581.68,307.12 L581.38,307.21 L581.60,307.18 L581.68,307.12 Z M570.71,319.33 L569.89,327.08 L570.90,320.62 L570.71,319.33 Z M495.22,198.74 L497.23,199.43 L495.47,200.03 L497.74,199.34 L495.22,198.74 Z M523.97,208.82 L524.67,208.31 L522.99,208.91 L523.97,208.82 Z M538.06,201.84 L537.69,200.56 L537.94,203.99 L538.06,201.84 Z M554.34,189.60 L554.10,188.57 L554.03,189.87 L554.34,189.60 Z M566.62,194.69 L564.92,189.78 L562.91,186.85 L566.62,194.69 Z M552.97,244.82 L552.85,240.86 L552.53,243.87 L551.53,243.81 L552.97,244.82 Z M560.77,236.12 L558.95,239.81 L559.95,238.96 L560.77,236.12 Z M557.19,249.30 L558.89,244.30 L559.95,238.96 L557.19,249.30 Z M570.83,306.74 L573.61,308.30 L574.99,308.11 L570.83,306.74 Z M525.04,316.31 L519.75,309.42 L517.62,307.53 L525.04,316.31 Z M566.62,249.56 L566.88,249.73 L566.35,248.90 L566.62,249.56 Z M568.70,250.94 L578.14,246.11 L568.45,250.77 L568.70,250.94 Z M566.56,215.10 L567.63,220.27 L566.37,212.52 L566.56,215.10 Z M471.51,221.42 L472.57,220.79 L477.79,215.45 L471.51,221.42 Z M551.34,212.86 L551.34,212.88 L553.29,203.82 L551.34,212.86 Z M556.62,199.60 L555.84,196.17 L555.80,198.82 L556.62,199.60 Z M577.82,148.87 L577.57,155.33 L578.01,147.40 L577.82,148.87 Z M584.74,148.52 L579.52,146.97 L578.01,147.40 L584.74,148.52 Z M532.84,189.78 L533.83,191.84 L531.52,184.10 L532.84,189.78 Z M627.58,861.04 L630.73,865.09 L626.53,858.79 L628.78,864.31 L627.58,861.04 Z M645.44,870.34 L644.91,869.63 L645.20,870.26 L645.44,870.34 Z M648.34,870.72 L647.15,870.97 L647.78,871.20 L648.34,870.72 Z M650.48,862.07 L649.39,869.82 L649.98,869.31 L650.48,862.07 Z M629.03,692.39 L640.86,687.30 L631.36,691.18 L629.03,692.39 Z M629.43,781.39 L627.52,778.69 L628.53,781.11 L629.43,781.39 Z M635.21,789.55 L634.72,788.86 L634.76,790.06 L635.21,789.55 Z M638.77,783.99 L636.73,787.86 L638.47,785.93 L638.77,783.99 Z M647.30,774.86 L645.85,776.38 L647.09,775.59 L647.30,774.86 Z M628.15,645.70 L629.09,643.20 L626.01,648.97 L628.15,645.70 Z M641.30,652.76 L641.96,653.06 L640.73,649.32 L641.30,652.76 Z M643.44,653.71 L647.65,650.09 L642.68,653.38 L643.44,653.71 Z M657.87,650.26 L655.77,649.40 L653.75,650.19 L657.87,650.26 Z M639.85,294.95 L641.11,292.20 L636.83,297.88 L639.85,294.95 Z M652.69,402.62 L644.64,403.26 L647.09,403.74 L652.69,402.62 Z M644.76,460.33 L644.44,461.63 L645.26,459.83 L644.76,460.33 Z M645.43,512.24 L645.43,512.24 L643.06,517.61 L645.43,512.24 Z M655.96,569.73 L655.52,570.02 L657.27,570.96 L655.96,569.73 Z M603.62,438.03 L603.87,437.18 L600.97,439.84 L603.62,438.03 Z M635.01,432.00 L641.49,424.42 L633.06,433.72 L635.01,432.00 Z M646.65,458.44 L646.06,459.03 L649.04,458.44 L646.65,458.44 Z M638.73,371.98 L637.96,374.63 L638.97,373.16 L638.73,371.98 Z M644.44,366.62 L646.42,364.89 L645.01,365.24 L644.44,366.62 Z M648.82,364.29 L650.74,364.64 L653.32,363.17 L648.82,364.29 Z M654.26,365.64 L654.32,364.64 L653.32,363.17 L654.26,365.64 Z M639.29,336.56 L640.17,337.64 L638.80,333.69 L639.29,336.56 Z M640.91,338.54 L645.14,336.56 L640.91,338.54 L640.91,338.54 Z M649.86,188.75 L648.91,189.16 L657.66,193.48 L649.86,188.75 Z M657.59,196.59 L659.23,186.85 L657.66,193.48 L657.59,196.59 Z M659.26,186.69 L653.50,185.56 L659.23,186.85 L659.26,186.69 Z M608.40,205.72 L611.57,205.00 L610.79,204.51 L608.40,205.72 Z M616.57,241.55 L620.16,247.41 L619.34,245.42 L616.57,241.55 Z M621.14,242.90 L622.11,242.24 L626.64,235.17 L621.14,242.90 Z M644.13,220.88 L634.99,221.97 L635.83,222.08 L648.53,220.62 L644.13,220.88 Z M613.81,206.40 L613.04,205.92 L618.84,213.64 L613.81,206.40 Z M657.59,177.48 L657.87,177.64 L657.84,177.38 L657.59,177.48 Z M661.12,149.04 L661.19,149.59 L663.19,147.14 L661.12,149.04 Z M718.30,158.25 L723.40,156.19 L719.81,157.31 L716.16,157.74 L718.30,158.25 Z M739.21,164.54 L732.27,159.55 L733.97,161.10 L739.21,164.54 Z M727.05,183.06 L730.26,181.51 L725.35,183.84 L727.05,183.06 Z M734.05,195.99 L732.84,196.33 L730.44,198.39 L734.05,195.99 Z M720.00,205.46 L717.04,202.87 L715.59,201.86 L720.00,205.46 Z M708.68,217.09 L711.65,218.74 L711.79,218.01 L711.26,218.38 L708.68,217.09 Z M738.69,220.27 L738.62,218.12 L738.09,220.63 L738.69,220.27 Z M733.81,225.26 L734.22,222.94 L733.40,224.67 L733.81,225.26 Z M734.63,277.90 L737.99,272.73 L734.63,277.90 L734.63,277.90 Z M724.84,303.84 L723.12,301.19 L722.98,301.69 L724.84,303.84 Z M720.26,307.44 L722.13,303.29 L721.26,304.17 L720.26,307.44 Z M711.75,337.46 L715.85,336.04 L712.39,336.56 L711.75,337.46 Z M712.39,338.80 L711.42,337.93 L711.42,337.93 L712.39,338.80 Z M716.67,355.42 L714.78,357.32 L713.46,358.78 L716.67,355.42 Z M723.84,359.73 L722.45,358.52 L716.67,355.42 L723.84,359.73 Z M730.59,365.82 L730.07,367.13 L728.58,367.05 L730.28,368.11 L730.59,365.82 Z M749.23,348.12 L748.70,348.38 L749.19,348.70 L749.23,348.12 Z M749.45,344.18 L748.94,347.41 L749.26,347.65 L749.47,344.38 L749.45,344.18 Z M759.65,359.45 L757.81,358.61 L759.65,359.45 L759.65,359.45 Z M759.13,360.16 L759.61,359.50 L756.80,360.59 L759.13,360.16 Z M781.48,369.20 L777.88,371.44 L780.90,370.15 L781.48,369.20 Z M797.13,374.11 L794.74,372.30 L797.12,374.67 L797.13,374.11 Z M796.82,390.91 L797.12,374.90 L796.50,375.32 L796.82,390.91 Z M794.24,395.04 L795.12,394.01 L796.82,390.91 L794.24,395.04 Z M800.59,409.94 L796.47,401.71 L797.07,404.00 L800.59,409.94 Z M811.16,422.69 L809.21,423.12 L807.70,424.16 L811.16,422.69 Z M808.39,465.67 L805.62,465.42 L803.74,466.36 L808.39,465.67 Z M811.66,472.74 L811.16,468.69 L812.23,481.87 L811.66,472.74 Z M806.02,480.45 L809.04,480.77 L807.70,480.32 L806.02,480.45 Z M798.82,482.23 L803.76,480.64 L801.28,480.83 L798.82,482.23 Z M809.19,594.84 L805.44,591.52 L809.19,594.84 L809.19,594.84 Z M809.21,596.17 L809.20,595.34 L807.95,598.76 L809.21,596.17 Z M719.94,188.49 L714.84,184.96 L712.96,183.66 L719.94,188.49 Z M685.49,182.21 L685.71,181.94 L685.26,181.63 L685.49,182.21 Z M684.10,178.63 L683.83,175.91 L683.58,177.29 L684.10,178.63 Z M685.59,174.28 L685.59,174.16 L684.58,174.36 L685.59,174.28 Z M695.03,172.90 L698.30,175.69 L698.11,175.48 L695.03,172.90 Z M743.28,392.29 L742.71,393.75 L741.88,393.04 L743.28,395.65 L742.59,394.27 L743.28,392.29 Z M746.05,392.63 L746.62,391.92 L743.28,392.29 L746.05,392.63 Z M734.33,506.96 L733.90,507.11 L730.73,508.08 L732.39,508.31 L734.33,506.96 Z M727.86,508.95 L727.42,509.09 L723.02,515.29 L727.86,508.95 Z M723.96,517.96 L725.29,519.17 L723.02,515.29 L723.96,517.96 Z M732.58,529.07 L732.54,529.48 L735.29,528.73 L732.58,529.07 Z M729.52,555.95 L730.30,557.29 L730.13,555.77 L729.52,555.95 Z M733.97,627.09 L729.94,625.72 L732.52,627.09 L733.97,627.09 Z M692.61,420.75 L691.38,421.14 L690.97,421.90 L692.61,420.75 Z M699.62,419.25 L700.30,418.29 L695.72,419.75 L699.62,419.25 Z M713.27,593.24 L711.82,594.19 L711.65,595.12 L713.27,593.24 Z M710.19,602.80 L710.69,605.30 L711.12,597.88 L710.19,602.80 Z M692.17,475.17 L695.97,474.55 L692.95,474.55 L692.17,475.17 Z M696.03,512.36 L697.04,510.64 L695.70,512.27 L696.03,512.36 Z M699.63,512.44 L699.12,510.42 L699.05,511.59 L699.63,512.44 Z M711.70,526.66 L713.45,528.03 L710.25,522.96 L711.70,526.66 Z M706.10,436.13 L703.47,434.83 L704.34,436.04 L706.10,436.13 Z M699.37,286.77 L707.73,297.02 L697.73,283.84 L694.71,279.10 L699.37,286.77 Z M695.65,355.33 L697.98,351.11 L694.59,356.63 L695.65,355.33 Z M699.18,225.35 L698.42,222.51 L694.96,216.65 L699.18,225.35 Z M717.69,238.51 L717.86,237.84 L716.98,232.68 L717.69,238.51 Z M716.92,272.13 L717.99,270.58 L714.56,273.03 L716.92,272.13 Z M711.95,274.02 L713.19,273.55 L716.90,269.18 L711.95,274.02 Z M710.72,198.47 L709.62,197.70 L706.22,198.39 L710.72,198.47 Z M711.43,189.30 L709.68,191.93 L711.07,190.64 L711.43,189.30 Z M676.66,161.36 L679.05,159.98 L676.34,161.10 L674.26,160.49 L676.66,161.36 Z M700.86,163.44 L706.79,157.91 L700.94,162.73 L700.86,163.44 Z M713.33,171.43 L702.39,163.51 L715.32,173.71 L713.33,171.43 Z M716.08,183.81 L716.42,183.49 L715.22,178.24 L716.08,183.81 Z M717.67,175.57 L723.34,178.50 L716.23,174.43 L717.67,175.57 Z M692.19,129.74 L693.64,130.43 L691.77,129.12 L692.13,130.40 L692.19,129.74 Z M693.62,131.81 L696.72,124.49 L693.64,130.43 L693.62,131.81 Z M680.74,144.47 L680.45,143.74 L677.41,145.76 L680.74,144.47 Z M693.58,134.83 L694.65,137.84 L693.58,134.63 L693.58,134.83 Z M756.93,553.10 L751.33,550.43 L746.63,549.79 L756.93,553.10 Z M754.95,557.42 L758.82,551.04 L756.93,553.10 L754.95,557.42 Z M762.53,540.53 L763.10,534.93 L761.59,543.37 L762.53,540.53 Z M747.18,465.67 L743.72,468.38 L744.22,468.60 L747.18,465.67 Z M759.45,450.06 L756.55,450.60 L759.97,450.70 L759.45,450.06 Z M767.67,455.20 L765.11,450.86 L767.12,455.08 L767.67,455.20 Z M776.68,453.96 L773.11,455.30 L775.87,455.08 L776.68,453.96 Z M783.88,460.40 L785.18,457.15 L783.60,459.82 L780.65,458.27 L783.88,460.40 Z M795.62,461.20 L790.21,457.06 L799.08,464.81 L795.62,461.20 Z M798.50,453.35 L798.12,455.36 L798.58,454.30 L798.50,453.35 Z M749.94,489.33 L751.39,490.91 L755.42,492.55 L749.94,489.33 Z M752.85,500.99 L753.03,501.08 L755.42,492.55 L752.85,500.99 Z M788.64,485.14 L786.88,485.06 L786.22,486.16 L788.64,485.14 Z M736.48,506.85 L737.46,505.86 L735.51,506.54 L736.48,506.85 Z M751.65,500.44 L749.63,498.58 L746.86,498.23 L751.65,500.44 Z M755.42,507.80 L756.09,508.71 L755.61,505.13 L755.42,507.80 Z M756.49,515.38 L757.06,516.05 L756.61,512.63 L756.49,515.38 Z M735.89,417.87 L738.70,416.99 L738.06,416.84 L735.89,417.87 Z M759.57,426.91 L759.76,424.50 L758.88,424.77 L759.32,425.02 L759.57,426.91 Z M769.82,420.25 L774.29,418.39 L769.89,419.51 L769.82,420.25 Z M778.82,424.50 L781.47,422.78 L780.27,422.69 L780.40,422.95 L778.82,424.50 Z M786.25,434.75 L780.27,436.39 L779.20,437.16 L786.25,434.75 Z M761.59,400.21 L761.54,400.10 L761.50,400.63 L768.69,395.04 L761.59,400.21 Z M790.90,313.04 L788.45,311.99 L793.17,315.11 L790.90,313.04 Z M816.38,351.37 L819.02,354.82 L821.73,358.00 L816.38,351.37 Z M811.41,358.95 L809.64,363.48 L810.28,362.91 L811.41,358.95 Z M739.00,186.34 L734.35,182.98 L735.79,184.78 L739.00,186.34 Z M740.27,196.40 L740.27,196.40 L742.96,191.24 L740.27,196.40 Z M744.35,198.74 L748.00,198.48 L740.20,203.39 L750.58,197.45 L744.35,198.74 Z M763.03,188.06 L760.14,188.14 L756.74,190.04 L763.03,188.06 Z M747.12,327.43 L749.01,340.39 L748.31,334.32 L747.12,327.43 Z M753.16,331.39 L752.65,330.10 L751.39,327.60 L753.16,331.39 Z M770.14,321.14 L779.70,335.26 L772.66,324.67 L770.14,321.14 Z M789.58,344.48 L798.20,352.15 L779.70,335.26 L789.58,344.48 Z M748.81,294.09 L747.30,293.57 L745.86,293.40 L748.81,294.09 Z M735.03,279.27 L735.29,280.14 L735.97,280.55 L735.03,279.27 Z M739.88,227.59 L740.51,226.65 L738.57,227.08 L740.95,229.83 L739.88,227.59 Z M763.98,227.34 L762.87,225.45 L763.16,226.22 L763.75,227.77 L763.98,227.34 Z M836.14,516.06 L838.53,516.32 L834.37,515.72 L836.14,516.06 Z M850.88,522.63 L850.98,522.52 L852.68,513.91 L850.88,522.63 Z M878.54,561.63 L881.35,564.80 L881.35,564.80 L878.54,561.63 Z M896.59,532.95 L894.27,530.97 L888.29,528.64 L896.59,532.95 Z M922.20,529.93 L918.30,551.29 L918.37,551.93 L922.20,529.93 Z M930.44,559.99 L933.65,568.95 L932.89,565.08 L930.44,559.99 Z M942.83,549.57 L939.37,552.24 L942.08,551.04 L940.69,555.86 L942.83,549.57 Z M913.83,575.24 L914.90,573.60 L912.01,576.19 L914.71,575.50 L913.83,575.24 Z M925.22,575.76 L927.61,576.10 L929.12,575.41 L925.22,575.76 Z M917.51,602.57 L917.54,601.34 L915.72,597.20 L917.51,602.57 Z M917.12,610.07 L917.29,610.04 L917.33,608.72 L917.12,610.07 Z M857.90,600.65 L857.76,599.76 L857.81,600.78 L857.90,600.65 Z M876.07,639.88 L871.49,623.65 L875.27,638.55 L876.07,639.88 Z M881.43,565.17 L879.29,564.65 L881.56,565.76 L881.43,565.17 Z M859.24,526.16 L858.15,525.37 L854.38,525.54 L859.24,526.16 Z M833.87,459.04 L828.52,453.62 L827.62,452.79 L833.87,459.04 Z M833.78,461.24 L838.90,462.75 L834.19,461.11 L833.78,461.24 Z M866.84,517.36 L861.10,526.40 L861.74,526.49 L866.84,517.36 Z M887.60,493.07 L883.63,494.62 L889.86,493.15 L887.60,493.07 Z M941.70,532.00 L934.91,535.36 L945.66,530.10 L941.70,532.00 Z M940.38,544.14 L935.65,542.72 L935.85,543.11 L940.38,544.14 Z M815.82,488.16 L815.44,485.74 L815.44,489.27 L815.82,488.16 Z M813.05,496.34 L814.25,492.77 L813.49,493.76 L813.05,496.34 Z M829.78,504.95 L829.32,505.39 L831.29,507.88 L829.78,504.95 Z M834.25,403.05 L823.68,419.16 L827.52,413.82 L834.25,403.05 Z M814.05,445.78 L819.28,444.83 L821.23,443.80 L814.05,445.78 Z M831.73,450.69 L829.09,451.12 L836.58,450.95 L831.73,450.69 Z M693.19,745.38 L675.65,751.73 L691.44,746.82 L693.19,745.38 Z M758.94,174.88 L763.03,173.93 L767.12,176.17 L769.76,179.27 L770.20,181.94 L765.80,176.17 L758.94,174.88 Z M779.01,100.63 L778.76,101.40 L778.01,101.58 L779.01,100.63 Z M781.47,100.11 L782.54,100.80 L782.47,101.58 L780.52,100.46 L781.47,100.11 Z M799.40,95.12 L800.59,98.65 L799.27,102.27 L797.57,105.45 L795.75,103.82 L794.61,102.01 L799.40,95.12 Z M958.81,544.23 L958.12,544.23 L958.18,542.59 L958.81,544.23 Z M948.06,510.12 L948.31,508.23 L949.94,507.45 L951.08,509.09 L950.13,508.40 L948.06,510.12 Z M947.17,503.40 L947.80,502.89 L948.37,504.26 L947.74,504.44 L947.17,503.40 Z M955.16,237.93 L955.16,239.31 L952.33,240.26 L950.51,239.22 L950.51,237.50 L951.89,234.57 L955.16,237.93 Z M856.77,160.15 L857.65,160.58 L853.31,161.44 L851.42,160.58 L851.11,157.74 L857.46,151.71 L857.84,153.17 L856.14,156.10 L856.77,160.15 Z M814.18,134.83 L815.82,136.03 L813.74,136.81 L812.67,135.43 L814.18,134.83 Z M821.35,122.94 L817.70,130.86 L815.94,125.78 L818.27,122.08 L820.79,121.73 L821.35,122.94 Z M852.43,144.21 L848.21,135.51 L845.95,135.60 L843.24,130.09 L839.60,130.35 L838.65,126.73 L835.57,125.44 L836.51,124.14 L836.39,120.44 L835.13,114.33 L832.55,113.55 L833.37,111.40 L832.17,112.60 L828.84,111.74 L827.89,115.10 L826.07,115.44 L824.12,109.24 L822.36,110.02 L820.47,107.86 L820.53,106.31 L824.75,105.19 L826.57,100.03 L833.43,95.72 L837.08,100.11 L836.32,103.30 L837.71,107.43 L840.79,109.76 L853.12,113.64 L854.63,115.19 L853.44,120.27 L853.56,125.35 L856.02,131.64 L853.88,137.15 L856.08,143.70 L852.43,144.21 Z" /></g></svg>