<svg xmlns="http://www.w3.org/2000/svg" viewBox="0 0 1000 1000" width="1000" height="1000"><g fill="#cccccc" stroke="#222" stroke-width="2"><path d="M481.10,700.16 L476.14,702.30 L470.98,707.24 L464.70,708.97 L463.17,715.31 L460.24,710.54 L453.33,709.96 L435.96,694.40 L429.13,691.02 L409.11,670.60 L403.73,669.37 L403.60,666.49 L402.34,665.17 L394.32,659.65 L390.48,658.91 L388.53,656.11 L390.27,653.64 L387.97,651.25 L388.46,648.04 L383.71,644.75 L382.81,640.39 L381.13,638.57 L366.07,627.54 L364.25,624.33 L361.60,624.17 L353.58,619.55 L267.22,500.99 L192.51,399.47 L181.35,399.22 L178.56,393.21 L175.07,388.35 L171.93,387.94 L171.23,381.93 L167.88,378.47 L163.77,376.99 L161.95,373.04 L158.33,373.28 L154.84,376.74 L152.26,370.32 L147.17,370.48 L143.40,364.14 L138.31,363.90 L135.24,349.08 L137.26,360.11 L136.49,360.52 L136.49,359.12 L133.08,361.10 L128.05,360.60 L120.10,365.30 L115.78,364.97 L110.61,321.82 L104.47,319.76 L100.85,316.47 L98.68,301.81 L93.94,295.80 L93.66,293.50 L89.06,293.09 L87.31,291.19 L82.64,290.37 L80.13,285.76 L74.90,283.78 L73.92,272.01 L70.43,264.68 L69.74,259.90 L65.48,252.08 L69.60,237.51 L69.11,229.77 L68.90,231.83 L65.34,233.47 L61.71,224.42 L56.48,220.63 L55.02,217.66 L50.62,213.79 L43.86,213.14 L40.65,208.44 L36.81,207.13 L26.28,199.06 L23.77,196.50 L21.95,189.59 L19.23,186.87 L25.09,180.53 L28.09,172.13 L28.30,159.45 L30.88,151.05 L29.42,145.54 L30.53,140.10 L29.42,134.01 L34.65,125.20 L39.25,123.55 L39.95,118.28 L39.18,116.22 L40.58,112.60 L40.23,99.10 L47.62,98.19 L84.38,98.52 L88.85,93.83 L89.20,90.37 L95.96,87.08 L94.85,75.80 L97.78,70.53 L100.36,68.30 L101.82,64.85 L107.75,62.46 L113.89,64.68 L120.24,71.76 L127.84,73.74 L134.12,79.01 L141.86,72.59 L147.65,73.33 L151.91,71.43 L155.89,71.84 L157.07,70.69 L154.91,66.90 L161.33,62.05 L164.26,65.26 L169.56,67.07 L173.53,62.29 L174.51,59.33 L173.53,55.62 L158.89,49.12 L163.77,42.86 L166.56,43.19 L170.81,40.23 L173.40,41.13 L177.30,38.25 L181.21,38.33 L183.86,39.98 L186.02,37.26 L199.14,38.00 L210.92,23.10 L213.37,22.44 L215.53,19.23 L224.04,19.72 L228.15,21.29 L232.69,26.64 L241.83,19.40 L243.64,20.71 L247.41,28.70 L251.66,32.49 L252.43,36.36 L254.52,38.74 L254.03,44.18 L255.29,45.33 L262.89,44.10 L266.59,47.47 L272.38,41.13 L279.71,40.14 L284.24,45.58 L286.61,50.52 L300.42,64.43 L302.17,70.28 L305.66,73.00 L324.42,74.48 L329.37,79.17 L337.60,94.16 L343.60,102.72 L341.02,102.31 L338.02,104.12 L334.81,109.31 L330.91,111.78 L327.00,116.22 L326.37,118.53 L322.89,121.08 L323.65,127.59 L321.21,136.56 L325.82,138.04 L331.54,143.40 L334.05,143.89 L338.44,145.04 L343.88,148.01 L355.18,148.67 L366.62,152.70 L372.20,152.45 L374.85,154.43 L380.64,157.97 L385.25,157.31 L386.78,159.29 L403.66,161.02 L406.25,162.50 L409.73,163.07 L413.22,159.70 L416.29,157.56 L419.64,158.22 L422.29,155.83 L424.66,157.39 L425.36,160.03 L428.36,161.59 L434.78,153.85 L443.15,152.29 L444.96,150.31 L454.10,152.54 L456.96,149.90 L458.08,152.04 L460.31,152.21 L460.80,153.69 L462.47,154.02 L465.89,158.30 L469.73,159.53 L470.28,161.84 L472.79,163.32 L477.61,159.37 L481.17,158.88 L487.23,166.45 L492.40,158.30 L488.00,147.02 L488.35,145.29 L489.47,145.78 L491.07,139.61 L496.02,137.47 L497.07,130.55 L499.93,128.90 L502.58,123.63 L515.28,122.98 L519.18,110.13 L524.28,103.87 L525.67,100.17 L532.51,101.40 L541.65,100.42 L551.06,104.37 L554.76,104.12 L558.53,106.84 L568.57,107.83 L575.34,115.07 L580.43,113.75 L584.34,117.62 L592.92,115.07 L595.50,117.38 L599.20,118.28 L599.40,132.12 L603.45,134.17 L608.89,130.63 L616.01,128.66 L623.68,131.05 L632.33,126.02 L641.05,124.29 L645.79,125.69 L642.31,126.76 L642.24,132.69 L646.07,139.94 L649.14,140.76 L643.91,145.78 L639.31,155.58 L636.10,157.39 L634.21,155.99 L627.10,156.90 L624.80,162.42 L618.73,169.33 L616.43,175.43 L615.73,180.28 L613.50,182.09 L610.78,189.67 L608.33,192.39 L608.33,192.39 L608.68,192.63 L603.24,201.86 L600.73,211.00 L599.40,222.85 L600.45,239.15 L609.17,278.35 L616.63,300.58 L630.38,330.80 L633.03,334.58 L634.98,337.38 L637.98,349.57 L641.61,358.71 L651.79,377.07 L663.09,397.41 L666.72,403.34 L670.00,403.83 L671.60,405.97 L671.74,407.37 L686.25,440.72 L692.04,451.26 L706.48,477.52 L707.81,479.50 L723.57,503.38 L726.92,508.48 L727.83,513.34 L729.15,513.59 L733.06,523.14 L746.59,544.79 L768.71,573.94 L805.40,617.50 L829.88,644.01 L847.81,661.46 L870.20,682.87 L909.13,716.79 L942.75,747.26 L980.77,779.95 L975.68,787.28 L967.72,796.74 L960.19,809.01 L956.08,812.72 L954.54,816.92 L951.61,817.99 L950.22,820.87 L926.50,832.07 L920.22,838.00 L913.45,842.28 L911.57,843.92 L910.66,846.97 L903.06,850.02 L900.62,849.61 L890.85,852.32 L887.36,855.70 L887.78,858.83 L893.43,862.94 L899.78,871.10 L887.85,887.32 L885.97,886.74 L883.18,889.79 L879.27,889.21 L877.88,887.23 L871.11,887.89 L862.81,884.35 L861.20,882.46 L858.69,883.45 L857.44,887.32 L855.21,887.40 L854.16,889.87 L854.37,894.40 L849.83,899.42 L853.74,914.16 L850.74,922.06 L845.23,924.53 L841.95,927.50 L836.65,927.09 L835.19,929.23 L834.28,933.84 L833.02,934.91 L834.56,940.75 L833.65,943.88 L829.19,946.11 L828.21,948.08 L828.91,950.22 L831.56,951.13 L829.67,954.09 L830.79,960.51 L827.51,962.57 L826.54,965.78 L828.07,973.03 L822.91,975.33 L819.00,974.84 L814.40,979.62 L812.51,977.48 L808.19,980.77 L800.24,975.01 L793.96,973.52 L792.56,971.30 L792.91,969.24 L788.80,964.14 L786.29,963.07 L779.03,964.71 L778.40,962.33 L774.84,958.62 L772.68,952.61 L767.80,952.12 L764.17,955.57 L754.96,959.28 L750.08,968.25 L742.83,968.58 L738.78,966.03 L728.80,964.38 L725.25,966.77 L712.90,966.11 L707.74,960.02 L707.81,952.03 L703.27,949.97 L702.37,944.62 L700.83,941.25 L698.60,939.60 L698.81,934.74 L703.62,931.28 L702.79,926.59 L697.13,924.37 L681.72,926.43 L679.97,922.14 L674.81,921.07 L672.86,917.86 L672.51,911.44 L671.60,908.64 L669.79,909.96 L667.91,920.00 L664.14,921.73 L659.33,934.08 L649.28,939.93 L642.58,938.37 L639.72,935.15 L637.07,934.08 L633.38,934.91 L629.19,931.37 L623.47,931.53 L621.10,930.05 L617.89,930.05 L613.01,924.94 L611.75,921.49 L612.24,918.44 L610.43,915.39 L595.71,920.17 L592.01,913.99 L587.55,911.36 L587.55,900.74 L584.69,893.00 L584.55,889.62 L578.41,885.01 L569.90,873.40 L573.38,864.67 L577.85,858.66 L578.20,854.38 L580.29,852.40 L575.55,849.36 L573.52,843.10 L563.97,835.11 L561.25,830.75 L552.60,828.20 L549.39,824.90 L546.88,812.72 L543.95,809.10 L538.37,805.88 L535.93,796.25 L532.93,794.69 L537.18,788.10 L536.69,784.89 L533.62,783.49 L529.58,779.04 L524.48,777.23 L520.30,769.24 L517.44,767.51 L516.04,760.76 L513.53,758.05 L516.46,753.27 L500.77,744.95 L503.91,737.21 L508.02,735.49 L515.90,738.37 L518.63,730.87 L521.90,729.47 L522.04,723.30 L521.97,722.15 L518.14,723.05 L514.79,720.75 L510.74,722.31 L508.02,719.84 L504.05,719.84 L504.12,717.29 L509.77,715.56 L510.53,709.22 L505.16,708.56 L504.81,705.76 L501.60,704.11 L503.14,702.55 L502.51,696.38 L503.77,693.66 L503.84,687.89 L501.88,675.30 L500.14,673.16 L498.12,673.98 L490.51,671.76 L480.82,672.50 L480.54,680.81 L484.72,688.88 L483.33,695.80 L481.10,700.16 Z M648.83,377.45 L649.41,377.86 L649.49,377.40 L651.79,377.07 L648.83,377.45 Z M569.53,168.01 L569.62,167.36 L568.37,164.08 L569.53,168.01 Z M567.87,171.56 L569.13,171.14 L569.32,169.67 L567.87,171.56 Z M568.85,236.60 L570.59,237.18 L578.13,239.57 L568.85,236.60 Z M565.71,253.32 L573.94,247.31 L570.66,248.87 L565.71,253.32 Z M579.94,261.39 L574.92,248.54 L573.94,247.31 L579.94,261.39 Z M566.48,285.35 L575.34,289.96 L569.55,286.83 L566.48,285.35 Z M567.18,314.33 L569.90,313.09 L569.94,312.75 L567.18,314.33 Z M580.57,317.70 L579.76,318.12 L583.80,319.10 L579.31,316.22 L577.36,315.73 L580.57,317.70 Z M583.99,364.06 L577.15,349.32 L579.04,354.02 L583.99,364.06 Z M602.19,330.63 L606.38,331.62 L595.99,327.83 L602.19,330.63 Z M622.70,335.49 L627.80,336.23 L606.38,331.62 L622.70,335.49 Z M648.17,433.97 L651.79,439.15 L655.42,444.26 L648.17,433.97 Z M648.79,473.92 L649.00,473.49 L647.05,461.47 L648.79,473.92 Z M640.98,485.18 L648.51,476.20 L649.91,477.52 L648.09,475.53 L640.98,485.18 Z M635.16,490.18 L639.38,496.79 L636.86,492.51 L635.16,490.18 Z M655.68,505.50 L655.28,504.86 L649.84,504.69 L655.68,505.50 Z M658.91,507.46 L658.70,506.75 L658.01,506.64 L658.91,507.46 Z M662.19,512.02 L662.29,512.34 L664.06,510.77 L660.30,512.10 L662.19,512.02 Z M668.81,518.69 L666.09,516.63 L663.23,515.31 L668.81,518.69 Z M663.93,615.11 L668.88,615.44 L662.32,614.00 L663.93,615.11 Z M646.56,816.26 L645.77,816.38 L653.12,819.72 L646.56,816.26 Z M736.83,858.33 L737.37,858.23 L732.78,855.04 L736.83,858.33 Z M426.87,194.20 L431.78,196.83 L427.87,194.12 L426.87,194.20 Z M426.06,196.75 L425.43,194.94 L426.10,194.26 L424.75,194.37 L426.06,196.75 Z M412.64,237.33 L412.71,235.92 L412.11,236.60 L412.64,237.33 Z M417.80,243.83 L416.14,242.07 L417.27,243.60 L417.80,243.83 Z M418.17,250.02 L417.90,249.53 L414.97,257.93 L418.17,250.02 Z M406.11,253.40 L422.22,261.80 L414.97,257.93 L406.11,253.40 Z M394.64,249.57 L395.50,250.68 L406.11,253.40 L394.64,249.57 Z M467.53,308.05 L460.31,301.90 L467.07,308.07 L467.53,308.05 Z M476.32,337.82 L475.15,337.84 L475.79,337.96 L476.32,337.82 Z M536.66,344.82 L529.44,343.23 L534.81,345.21 L536.66,344.82 Z M584.49,377.71 L580.15,375.18 L582.87,377.40 L584.49,377.71 Z M590.89,394.36 L592.36,391.07 L589.50,397.08 L590.89,394.36 Z M559.89,428.57 L559.78,427.79 L558.87,428.17 L559.89,428.57 Z M556.50,503.62 L560.34,501.24 L557.69,502.55 L556.50,503.62 Z M572.90,561.92 L570.04,553.03 L571.22,558.30 L572.90,561.92 Z M580.15,569.99 L575.34,563.48 L572.90,561.92 L580.15,569.99 Z M489.57,640.25 L492.61,630.01 L489.26,638.99 L489.57,640.25 Z M92.27,240.47 L93.66,241.30 L95.06,241.11 L92.27,240.47 Z M168.01,227.59 L165.30,219.31 L162.79,215.03 L168.01,227.59 Z M145.90,199.52 L145.67,199.10 L145.49,199.47 L145.90,199.52 Z M180.66,167.83 L185.18,163.57 L181.56,166.37 L180.66,167.83 Z M186.79,169.99 L185.04,162.00 L185.18,163.57 L186.79,169.99 Z M296.52,225.16 L304.21,230.87 L302.10,228.94 L296.52,225.16 Z M350.16,217.42 L351.35,215.36 L352.81,209.68 L350.16,217.42 Z M470.28,355.00 L473.21,356.32 L482.84,358.54 L470.28,355.00 Z M470.49,365.98 L469.93,366.94 L470.49,369.41 L470.49,365.98 Z M464.91,403.67 L461.86,395.35 L455.70,402.51 L462.05,396.01 L464.91,403.67 Z M437.64,494.40 L434.64,498.68 L434.85,499.67 L437.64,494.40 Z M417.83,592.05 L421.52,593.95 L432.40,596.25 L417.83,592.05 Z M464.70,594.85 L474.61,602.10 L468.89,596.91 L464.70,594.85 Z M263.80,268.80 L260.66,263.36 L264.14,269.77 L263.80,268.80 Z M286.47,252.08 L286.12,253.15 L288.43,264.19 L286.47,252.08 Z M303.77,249.78 L306.97,246.82 L306.14,246.73 L303.77,249.78 Z M320.72,245.91 L310.40,236.51 L312.70,239.07 L320.72,245.91 Z M356.86,262.21 L363.83,264.51 L355.22,260.94 L356.86,262.21 Z M389.09,250.27 L389.22,249.50 L385.88,252.00 L389.09,250.27 Z M392.10,248.72 L390.83,248.29 L390.34,248.66 L392.10,248.72 Z M270.99,283.04 L270.38,282.07 L271.61,286.17 L270.99,283.04 Z M370.27,321.20 L369.76,321.33 L369.34,321.91 L370.27,321.20 Z M376.11,319.76 L372.81,320.58 L384.06,320.50 L376.11,319.76 Z M224.25,341.50 L225.64,343.72 L224.00,337.89 L224.25,341.50 Z M344.59,341.21 L344.23,341.91 L345.00,344.46 L344.59,341.21 Z M432.94,403.71 L433.10,403.91 L433.37,403.74 L432.94,403.71 Z M311.38,399.71 L318.07,393.46 L310.56,399.91 L311.38,399.71 Z M314.38,275.71 L311.08,273.16 L314.86,277.28 L314.38,275.71 Z M309.28,271.76 L309.26,272.17 L309.95,272.27 L309.28,271.76 Z M258.99,244.01 L263.87,250.02 L261.85,246.48 L258.99,244.01 Z M263.59,238.83 L267.92,238.91 L264.43,238.50 L263.59,238.83 Z M75.17,156.60 L74.90,156.41 L68.48,155.01 L75.17,156.60 Z M184.49,129.56 L180.79,128.16 L180.43,128.21 L184.49,129.56 Z M211.74,109.21 L211.55,109.23 L211.61,109.46 L211.74,109.21 Z M216.99,106.10 L218.95,102.97 L215.11,108.57 L216.99,106.10 Z M219.78,97.95 L219.27,97.58 L218.95,102.97 L219.78,97.95 Z M218.39,96.96 L216.09,98.11 L218.83,97.27 L218.39,96.96 Z M214.97,93.91 L216.05,91.47 L211.13,99.26 L214.97,93.91 Z M218.04,86.99 L218.46,84.36 L216.99,89.36 L218.04,86.99 Z M305.66,173.28 L309.91,181.52 L311.43,183.00 L305.66,173.28 Z M212.46,145.37 L210.23,147.76 L214.55,143.64 L212.46,145.37 Z M247.06,174.68 L246.55,174.47 L252.43,178.97 L247.06,174.68 Z M282.71,188.02 L279.50,185.88 L283.62,189.87 L282.71,188.02 Z M284.87,192.39 L284.61,191.86 L285.01,196.83 L284.87,192.39 Z M335.93,180.12 L336.07,185.31 L337.05,176.15 L335.93,180.12 Z M337.11,171.30 L337.37,173.20 L337.53,171.64 L337.11,171.30 Z M319.54,114.25 L315.42,113.42 L319.26,114.41 L319.54,114.25 Z M544.23,493.00 L529.70,490.58 L531.95,491.60 L544.23,493.00 Z M552.64,384.68 L555.04,381.85 L552.67,384.32 L552.64,384.68 Z M562.56,381.06 L562.92,381.02 L565.15,377.73 L562.56,381.06 Z M528.73,389.06 L529.44,389.34 L530.76,388.43 L528.73,389.06 Z M552.53,386.21 L555.60,390.82 L552.57,385.68 L552.53,386.21 Z M467.14,214.29 L471.44,215.05 L471.26,214.95 L467.14,214.29 Z M496.23,250.93 L490.86,254.14 L501.95,247.96 L496.23,250.93 Z M518.83,245.74 L519.95,247.14 L522.25,249.12 L518.83,245.74 Z M472.38,273.24 L465.95,272.50 L467.07,273.24 L472.38,273.24 Z M493.30,274.07 L485.49,267.81 L483.98,267.61 L493.30,274.07 Z M496.02,287.32 L494.63,279.99 L493.30,274.07 L496.02,287.32 Z M518.35,282.84 L522.39,284.69 L533.34,290.45 L519.60,283.12 L518.35,282.84 Z M552.88,292.59 L543.04,288.80 L542.77,288.93 L552.88,292.59 Z M496.93,302.39 L495.02,302.26 L505.72,305.35 L496.93,302.39 Z M516.18,310.62 L511.02,310.21 L516.73,311.12 L516.18,310.62 Z M548.20,298.36 L559.57,302.80 L552.25,299.18 L536.76,294.65 L548.20,298.36 Z M525.44,318.33 L527.00,319.76 L527.36,319.60 L525.44,318.33 Z M534.60,316.33 L538.85,314.41 L542.06,312.19 L534.60,316.33 Z M541.72,308.98 L541.72,309.06 L542.06,312.19 L541.72,308.98 Z M544.58,305.68 L541.78,304.53 L541.78,305.11 L542.62,305.11 L544.58,305.68 Z M543.18,321.25 L543.80,321.23 L539.83,317.70 L543.18,321.25 Z M535.82,305.08 L535.72,304.78 L535.52,304.97 L535.82,305.08 Z M523.30,266.82 L523.58,271.27 L523.58,268.55 L523.30,266.82 Z M549.32,281.89 L544.16,278.76 L544.45,281.20 L544.78,279.42 L549.32,281.89 Z M530.98,272.68 L530.83,272.50 L530.47,272.30 L530.98,272.68 Z M451.87,260.56 L449.47,258.93 L455.77,265.83 L451.87,260.56 Z M444.30,248.78 L443.85,248.87 L443.29,251.83 L444.30,248.78 Z M477.12,207.70 L478.51,204.49 L478.33,204.03 L477.12,207.70 Z M479.63,193.62 L490.02,193.54 L477.54,193.46 L479.63,193.62 Z M493.30,188.76 L493.90,187.13 L493.23,187.45 L490.02,193.54 L493.30,188.76 Z M496.37,185.96 L496.10,179.38 L495.68,179.54 L496.37,185.96 Z M510.46,180.45 L511.72,179.21 L512.91,177.81 L510.46,180.45 Z M556.69,175.41 L555.88,175.75 L555.32,180.12 L556.69,175.41 Z M486.96,170.07 L487.02,169.28 L482.84,170.73 L486.96,170.07 Z M604.99,440.72 L609.17,435.69 L606.17,438.58 L604.99,440.72 Z M636.86,822.76 L636.28,821.29 L636.66,832.40 L636.86,822.76 Z M630.87,483.45 L632.10,485.39 L630.66,480.40 L630.87,483.45 Z M615.87,400.62 L619.98,402.43 L618.73,401.85 L613.08,397.57 L615.87,400.62 Z M639.10,401.61 L629.82,402.10 L633.59,401.94 L639.10,401.61 Z M647.53,405.87 L645.86,404.74 L647.53,405.87 L647.53,405.87 Z M647.75,402.35 L647.73,403.12 L652.07,390.66 L647.75,402.35 Z M653.33,428.78 L654.72,426.88 L655.35,424.50 L653.33,428.78 Z M597.73,373.94 L599.75,378.47 L597.53,373.09 L597.73,373.94 Z M605.47,377.48 L622.84,380.20 L615.87,378.47 L605.47,377.48 Z M643.91,376.25 L647.96,373.69 L645.51,374.68 L643.91,376.25 Z M625.84,394.61 L625.21,390.16 L625.08,397.74 L625.84,394.61 Z M597.38,336.89 L597.28,337.16 L597.52,336.81 L597.38,336.89 Z M602.33,334.01 L598.57,336.20 L599.40,336.56 L602.33,334.01 Z M602.26,194.86 L596.96,192.22 L600.10,193.79 L602.26,194.86 Z M605.12,194.12 L606.33,193.20 L602.26,194.86 L605.12,194.12 Z M589.64,290.12 L589.71,292.92 L590.20,296.46 L589.64,290.12 Z M588.52,296.76 L586.92,297.04 L588.52,297.53 L588.52,296.76 Z M595.22,276.37 L596.89,286.17 L596.34,282.30 L595.22,276.37 Z M594.03,238.83 L593.06,240.14 L592.50,241.62 L594.03,238.83 Z M583.64,175.59 L585.66,181.85 L588.94,191.56 L583.64,175.59 Z M677.11,509.72 L668.12,513.75 L678.18,509.69 L677.11,509.72 Z M686.25,499.42 L680.94,508.57 L681.58,508.32 L686.25,499.42 Z M684.37,515.48 L684.02,514.57 L681.58,508.32 L684.37,515.48 Z M714.16,511.33 L711.09,508.89 L713.81,511.61 L714.16,511.33 Z M718.27,510.70 L715.55,512.43 L712.48,515.40 L718.27,510.70 Z M718.95,505.00 L720.27,507.78 L719.60,505.93 L718.95,505.00 Z M760.24,576.65 L760.50,576.65 L759.13,575.17 L760.24,576.65 Z M743.44,568.83 L744.01,568.74 L743.73,568.50 L743.44,568.83 Z M741.78,574.52 L743.38,580.03 L740.94,571.55 L739.03,568.13 L741.78,574.52 Z M741.75,584.16 L742.62,583.41 L743.38,580.03 L741.75,584.16 Z M734.32,590.57 L739.49,586.11 L737.39,587.20 L734.32,590.57 Z M750.29,608.03 L745.62,604.57 L748.96,607.62 L750.29,608.03 Z M766.06,632.89 L762.50,628.36 L762.43,628.32 L766.06,632.89 Z M749.10,630.01 L758.24,625.48 L743.59,631.74 L749.10,630.01 Z M756.64,648.54 L761.45,648.62 L755.03,648.29 L744.85,651.09 L756.64,648.54 Z M775.68,651.75 L775.40,656.61 L775.12,666.32 L775.68,651.75 Z M736.41,692.26 L748.06,683.86 L737.59,691.27 L736.41,692.26 Z M734.04,712.27 L732.71,703.46 L732.99,707.82 L734.04,712.27 Z M746.40,712.16 L746.40,712.16 L743.38,720.01 L746.40,712.16 Z M762.14,791.68 L762.78,788.59 L762.01,789.17 L762.14,791.68 Z M761.03,797.06 L761.38,795.35 L760.89,796.66 L761.03,797.06 Z M671.53,617.83 L678.58,618.65 L688.14,618.81 L671.53,617.83 Z M692.53,617.33 L701.25,612.23 L688.14,618.81 L692.53,617.33 Z M725.32,659.19 L725.32,659.49 L726.72,664.17 L725.32,659.19 Z M679.97,521.16 L680.95,524.70 L679.70,517.54 L679.97,521.16 Z M679.90,538.29 L684.72,536.15 L688.69,534.01 L679.90,538.29 Z M696.09,543.64 L694.97,543.23 L686.53,543.31 L696.09,543.64 Z M699.93,552.86 L701.25,552.37 L702.37,550.31 L699.93,552.86 Z M716.88,567.60 L723.36,565.62 L721.62,565.95 L716.88,567.60 Z M725.25,559.28 L724.62,559.94 L725.25,563.73 L725.25,559.28 Z M726.01,629.60 L726.79,627.46 L726.08,627.54 L726.01,629.60 Z M700.92,539.21 L698.39,537.46 L700.69,539.44 L700.92,539.21 Z M707.12,539.91 L707.53,540.43 L712.06,544.13 L712.45,543.47 L709.20,541.58 L707.12,539.91 Z M713.53,533.02 L716.11,535.98 L715.13,534.42 L713.53,533.02 Z M721.02,537.65 L720.15,535.24 L720.29,537.38 L721.02,537.65 Z M726.92,527.01 L729.22,534.01 L733.48,543.56 L726.92,527.01 Z M727.37,520.31 L726.50,522.73 L726.92,527.01 L727.37,520.31 Z M721.67,520.54 L720.85,520.17 L723.42,528.12 L723.43,528.12 L721.67,520.54 Z M675.93,468.38 L676.42,463.03 L675.48,468.46 L675.93,468.38 Z M693.30,461.80 L688.90,463.44 L694.41,461.55 L693.30,461.80 Z M699.79,490.53 L707.81,485.76 L704.25,487.48 L699.79,490.53 Z M674.60,445.25 L659.49,446.12 L659.68,446.48 L663.02,446.65 L674.60,445.25 Z M796.94,779.37 L800.17,781.18 L800.79,780.80 L796.94,779.37 Z M801.33,780.47 L802.05,780.03 L801.78,779.31 L801.33,780.47 Z M805.05,774.84 L808.82,784.15 L803.72,768.59 L805.05,774.84 Z M812.23,788.92 L816.77,792.13 L813.63,789.66 L808.82,784.15 L812.23,788.92 Z M813.63,786.62 L812.51,780.69 L813.63,789.66 L813.63,786.62 Z M788.52,736.39 L794.38,734.25 L799.75,732.11 L788.52,736.39 Z M822.70,746.11 L822.42,746.75 L823.54,746.68 L826.74,748.66 L822.70,746.11 Z M829.53,739.27 L832.05,730.79 L826.74,748.66 L829.53,739.27 Z M827.86,726.76 L825.00,724.21 L832.05,730.79 L827.86,726.76 Z M834.91,750.47 L839.30,746.68 L837.56,747.92 L834.91,750.47 Z M838.81,749.48 L840.98,737.13 L839.30,746.68 L838.81,749.48 Z M842.72,736.47 L843.60,735.66 L840.98,737.13 L842.72,736.47 Z M846.21,741.00 L856.39,746.27 L852.76,744.21 L846.21,741.00 Z M853.60,726.43 L861.48,729.80 L860.09,732.69 L861.76,729.89 L857.30,727.99 L853.60,726.43 Z M848.30,819.31 L842.16,816.01 L838.74,814.69 L848.30,819.31 Z M871.74,836.68 L866.51,830.75 L864.06,828.61 L871.74,836.68 Z M882.90,766.28 L884.71,766.61 L882.06,764.92 L883.53,768.59 L882.90,766.28 Z M901.99,783.00 L900.27,784.56 L901.87,783.16 L901.99,783.00 Z M850.81,783.74 L845.30,776.41 L850.91,784.52 L850.81,783.74 Z M871.39,803.83 L868.39,794.77 L867.82,794.01 L869.16,798.14 L871.39,803.83 Z M866.79,787.28 L866.16,780.03 L866.30,789.33 L866.66,790.44 L866.79,787.28 Z M850.35,793.79 L850.56,793.22 L843.49,789.00 L850.35,793.79 Z M851.20,791.48 L851.65,790.24 L851.37,788.08 L851.20,791.48 Z M862.46,753.60 L863.11,754.08 L861.62,750.88 L862.46,753.60 Z M804.63,688.39 L793.96,683.37 L801.98,687.81 L804.63,688.39 Z M776.54,739.93 L777.70,735.40 L776.17,739.44 L776.54,739.93 Z M835.43,732.03 L836.79,725.85 L835.37,732.00 L835.43,732.03 Z M841.67,729.39 L840.21,730.46 L842.02,729.23 L842.93,730.87 L841.39,727.50 L841.67,729.39 Z M819.77,698.27 L817.05,697.86 L831.98,704.61 L819.77,698.27 Z M788.10,676.86 L790.19,672.33 L788.24,675.54 L788.10,676.86 Z M616.63,198.56 L613.84,195.52 L616.84,190.74 L618.66,190.33 L617.33,189.01 L619.42,185.64 L620.61,191.65 L616.63,198.56 Z M634.84,162.83 L636.79,167.60 L634.77,168.67 L635.26,167.60 L633.03,164.80 L634.84,162.83 Z M654.23,138.87 L655.21,140.43 L654.65,142.16 L653.33,141.26 L651.51,140.68 L654.23,138.87 Z M662.60,145.12 L661.77,149.08 L658.77,149.24 L656.40,148.01 L657.58,145.70 L655.98,144.47 L657.23,143.73 L660.02,145.45 L662.60,145.12 Z" /></g></svg>