<svg xmlns="http://www.w3.org/2000/svg" viewBox="0 0 1000 1000" width="1000" height="1000"><g fill="#cccccc" stroke="#222" stroke-width="2"><path d="M221.85,700.10 L203.91,693.38 L193.61,684.07 L187.25,681.00 L177.23,672.28 L161.98,653.18 L157.46,636.44 L163.96,619.94 L158.17,612.52 L159.30,602.02 L157.32,597.90 L152.94,601.91 L144.47,595.54 L138.26,594.83 L132.05,597.43 L114.11,597.19 L102.25,603.91 L98.02,601.67 L96.75,597.07 L97.93,595.02 L97.03,595.19 L106.63,581.63 L106.63,573.97 L101.69,567.49 L101.55,562.42 L103.67,557.23 L115.10,546.27 L116.94,540.26 L116.23,523.75 L125.41,511.26 L123.43,503.24 L105.08,495.70 L107.62,486.74 L116.80,476.72 L110.16,458.80 L121.60,455.15 L126.54,451.14 L127.26,448.67 L127.25,448.66 L128.09,445.83 L133.03,441.83 L134.16,436.05 L149.13,430.51 L148.28,425.09 L152.10,416.48 L151.53,409.88 L146.73,409.06 L147.58,404.58 L141.22,405.87 L137.69,403.75 L129.22,405.52 L126.54,401.04 L122.30,401.63 L118.91,399.74 L117.50,391.96 L113.97,395.38 L111.01,392.20 L114.68,383.71 L118.07,382.53 L117.93,379.35 L114.96,377.46 L118.77,367.45 L122.73,368.39 L125.13,366.74 L124.56,355.19 L120.61,352.59 L116.66,345.28 L119.76,343.99 L117.50,335.97 L120.47,333.73 L122.16,335.74 L124.42,334.91 L121.60,330.78 L125.97,323.95 L124.99,318.41 L142.49,315.11 L126.12,316.99 L124.70,314.75 L126.68,310.27 L122.02,306.62 L124.42,303.20 L120.89,297.78 L118.21,296.84 L119.48,293.54 L111.29,286.93 L107.34,286.46 L109.74,282.69 L103.10,282.10 L103.95,280.92 L97.88,277.50 L100.42,276.09 L99.57,273.61 L94.35,274.56 L92.93,269.25 L88.56,271.37 L87.57,269.61 L85.73,269.84 L86.44,271.49 L80.23,271.14 L80.09,274.09 L77.40,275.85 L74.44,272.32 L70.48,275.38 L69.64,271.37 L63.85,274.20 L63.71,270.55 L60.74,272.43 L53.26,271.37 L55.66,270.43 L53.96,265.36 L51.71,267.13 L51.99,270.20 L45.63,271.14 L43.38,271.02 L38.43,264.42 L33.77,264.89 L34.48,267.96 L30.10,266.07 L28.83,263.95 L30.95,264.18 L31.94,261.71 L26.43,258.88 L30.53,251.22 L21.07,243.67 L22.34,239.66 L20.22,231.29 L20.08,225.99 L22.34,224.34 L20.78,222.57 L24.88,219.15 L22.76,218.56 L21.77,210.19 L19.23,207.48 L45.63,205.48 L51.28,200.17 L56.22,190.74 L58.06,173.65 L64.98,172.12 L72.74,161.98 L84.32,153.38 L102.39,146.54 L111.15,145.83 L117.22,141.59 L128.09,138.52 L135.72,140.88 L149.41,152.55 L178.92,169.88 L208.29,179.55 L222.41,181.55 L221.56,183.67 L252.06,154.91 L261.80,149.84 L261.24,135.46 L256.16,128.98 L263.78,120.37 L279.88,109.64 L292.16,106.93 L299.64,88.54 L309.25,79.82 L310.09,68.98 L302.61,51.65 L308.82,34.91 L321.11,24.42 L334.24,23.12 L347.37,19.23 L359.37,23.95 L382.53,21.35 L404.13,29.60 L418.67,37.15 L421.07,44.93 L430.67,47.05 L433.36,54.24 L448.75,60.49 L447.05,60.49 L454.68,61.31 L459.34,58.96 L471.76,57.90 L485.46,61.90 L501.13,67.91 L505.79,67.91 L513.84,64.02 L522.87,56.36 L543.06,55.54 L548.85,49.41 L557.47,48.23 L561.84,53.06 L563.40,63.32 L582.89,75.36 L594.74,78.29 L608.30,74.40 L629.33,80.29 L640.49,78.29 L664.07,87.48 L668.59,94.56 L673.11,96.09 L669.43,104.93 L683.41,112.94 L709.96,133.81 L706.99,139.70 L709.53,150.31 L708.26,142.65 L732.83,141.35 L742.71,134.63 L750.20,132.16 L753.59,126.85 L759.09,128.62 L761.07,133.46 L767.14,133.57 L781.54,127.80 L793.40,120.25 L809.08,115.89 L802.30,117.31 L809.92,115.30 L831.67,115.54 L840.56,120.14 L852.28,121.79 L874.87,137.93 L889.84,137.93 L892.24,140.06 L892.10,143.59 L901.14,147.01 L909.61,147.95 L925.70,145.60 L924.01,146.89 L925.99,150.78 L922.31,153.14 L926.27,155.26 L924.86,158.09 L930.79,161.63 L927.82,166.11 L936.29,169.41 L937.56,171.77 L935.45,176.25 L944.06,183.08 L940.11,189.45 L946.04,191.22 L944.91,194.87 L946.74,198.29 L942.93,202.41 L949.85,207.25 L950.69,213.14 L961.28,213.61 L960.30,217.15 L967.92,217.97 L968.63,222.10 L975.12,225.64 L969.61,233.30 L970.04,235.66 L974.56,241.08 L975.97,248.15 L979.22,249.33 L980.77,253.34 L978.79,254.87 L975.69,253.57 L974.13,255.58 L977.95,257.94 L980.35,263.71 L976.82,270.31 L974.27,271.02 L974.13,274.56 L969.19,276.68 L972.02,279.04 L968.63,280.10 L969.05,283.04 L966.37,281.63 L965.80,292.36 L958.60,289.53 L954.79,291.06 L955.92,293.65 L951.82,291.77 L945.61,297.07 L939.12,293.06 L930.22,298.60 L926.13,298.25 L925.84,294.95 L920.90,295.66 L918.64,291.77 L915.68,291.53 L910.31,292.83 L903.68,297.90 L900.99,304.62 L892.24,306.27 L890.69,308.86 L893.93,319.94 L893.23,328.78 L892.24,332.79 L884.47,339.86 L885.18,357.78 L877.27,365.21 L869.65,379.35 L855.95,388.19 L824.18,397.74 L816.98,401.51 L805.12,417.66 L800.89,433.58 L799.62,437.82 L783.10,492.75 L761.35,512.08 L755.42,520.45 L756.41,531.89 L773.35,551.45 L773.92,560.41 L767.99,573.62 L762.06,582.57 L761.63,588.11 L765.31,592.36 L768.27,592.83 L765.31,587.64 L768.27,585.40 L775.19,590.24 L769.40,590.71 L769.54,600.14 L775.61,603.56 L774.20,599.67 L778.58,595.42 L785.07,597.07 L785.92,599.67 L789.59,597.07 L789.73,599.20 L791.14,601.91 L787.05,603.20 L789.73,606.74 L788.18,615.11 L786.20,623.24 L782.95,626.90 L794.67,629.25 L799.90,626.66 L802.58,629.96 L798.20,631.61 L797.64,635.27 L791.43,635.86 L784.93,640.57 L783.94,643.75 L790.16,645.76 L794.67,654.36 L798.91,656.13 L812.18,648.35 L820.80,658.49 L822.35,666.62 L828.14,666.50 L829.97,668.39 L824.61,680.30 L837.60,686.43 L833.93,697.98 L830.96,700.34 L829.97,709.65 L834.07,713.18 L835.90,718.13 L845.50,719.31 L850.87,722.85 L859.20,720.14 L858.49,715.78 L860.05,715.07 L864.14,719.90 L867.81,720.37 L866.89,734.59 L867.67,733.93 L875.44,731.34 L888.85,735.93 L894.64,730.75 L898.73,733.93 L899.58,742.30 L905.09,750.43 L903.82,754.32 L894.92,761.63 L904.38,771.18 L917.37,776.72 L921.04,782.50 L915.96,787.33 L912.57,800.30 L906.08,804.54 L900.43,818.69 L897.32,820.93 L896.19,828.23 L889.42,828.82 L890.12,837.66 L889.42,844.97 L891.39,849.57 L889.13,858.29 L881.93,860.06 L881.93,864.78 L884.19,867.13 L881.65,868.19 L881.79,874.32 L887.02,880.45 L884.62,881.87 L885.74,883.28 L881.09,894.13 L871.48,899.20 L865.27,910.40 L865.55,919.47 L870.78,926.31 L861.60,929.49 L860.19,932.32 L841.41,937.04 L825.45,938.69 L820.65,936.33 L806.11,938.33 L800.89,939.51 L791.57,946.70 L775.90,929.49 L783.66,938.10 L775.90,943.05 L772.08,935.15 L764.03,930.20 L728.74,913.34 L712.36,910.04 L707.27,906.39 L699.65,906.86 L698.94,909.22 L693.72,907.80 L694.57,910.98 L689.20,910.63 L682.00,918.18 L675.03,911.69 L670.70,917.47 L670.42,921.24 L687.51,931.61 L692.59,946.23 L684.68,954.95 L673.53,959.20 L658.00,954.72 L649.38,954.95 L643.60,952.24 L626.23,951.77 L622.98,954.48 L599.26,962.97 L577.80,965.80 L568.76,970.99 L561.14,970.99 L553.37,977.82 L539.25,980.77 L524.99,980.18 L519.06,971.34 L519.34,962.38 L514.68,961.79 L528.80,962.38 L542.78,967.80 L557.04,970.16 L574.27,967.33 L578.93,962.97 L565.23,943.76 L561.28,934.44 L561.14,927.61 L556.76,913.93 L555.21,898.37 L552.95,876.45 L547.30,869.85 L514.12,825.76 L503.81,816.80 L491.25,817.86 L478.40,825.64 L459.19,832.24 L446.20,843.56 L441.40,852.63 L438.72,853.22 L429.12,848.63 L427.00,844.74 L429.12,834.60 L410.34,816.68 L397.92,821.16 L391.99,819.75 L381.96,804.78 L371.37,797.11 L349.34,783.68 L320.54,771.30 L313.06,759.16 L307.69,719.08 L304.73,713.54 L303.03,712.01 L282.42,711.06 L262.09,706.58 L252.91,702.57 L238.65,705.99 L221.85,700.10 Z M445.64,67.56 L445.92,76.87 L449.73,210.31 L447.05,114.95 L447.05,60.49 L445.64,67.56 Z M563.68,274.56 L565.66,275.62 L560.86,271.02 L563.68,274.56 Z M561.28,280.33 L560.15,289.41 L563.68,274.56 L561.28,280.33 Z M507.77,279.74 L508.15,281.50 L509.46,274.32 L507.77,279.74 Z M551.82,324.54 L549.28,329.61 L557.89,319.11 L551.82,324.54 Z M457.04,413.29 L458.49,411.41 L459.46,399.24 L457.04,413.29 Z M451.78,419.29 L452.56,419.08 L453.87,417.39 L451.78,419.29 Z M519.48,427.68 L521.37,428.47 L518.21,421.79 L519.48,427.68 Z M535.30,434.28 L529.93,430.86 L525.33,430.12 L535.30,434.28 Z M542.36,461.39 L543.49,457.03 L543.46,456.87 L542.36,461.39 Z M537.08,520.35 L542.50,522.69 L537.70,520.33 L537.08,520.35 Z M525.98,521.28 L525.39,522.44 L530.64,518.80 L525.98,521.28 Z M512.28,535.78 L518.21,534.13 L519.15,532.21 L512.28,535.78 Z M511.15,593.65 L515.25,593.07 L505.93,593.89 L511.15,593.65 Z M500.45,603.65 L501.29,604.23 L504.94,598.72 L500.45,603.65 Z M497.89,649.36 L500.56,648.82 L506.78,643.16 L497.89,649.36 Z M493.93,652.12 L490.96,662.85 L496.06,650.64 L493.93,652.12 Z M478.26,654.36 L486.23,665.58 L485.88,664.97 L478.26,654.36 Z M474.30,755.62 L465.12,772.60 L465.11,773.29 L478.54,749.73 L474.30,755.62 Z M181.86,205.40 L191.77,202.89 L182.88,203.95 L181.86,205.40 Z M344.26,242.26 L316.45,242.02 L275.22,242.85 L270.13,243.55 L344.26,242.26 Z M325.06,206.42 L321.67,213.61 L323.93,210.43 L325.06,206.42 Z M441.53,425.00 L447.17,420.90 L444.23,421.43 L441.53,425.00 Z M427.89,471.62 L430.81,463.87 L427.57,469.17 L427.89,471.62 Z M396.22,451.85 L412.58,462.37 L410.20,459.86 L396.22,451.85 Z M402.43,580.22 L395.23,579.75 L391.70,579.75 L402.43,580.22 Z M371.22,650.93 L370.81,646.94 L368.93,646.10 L371.22,650.93 Z M378.00,661.09 L373.77,656.32 L375.47,659.90 L378.00,661.09 Z M392.07,666.05 L384.43,664.09 L389.59,666.50 L392.07,666.05 Z M397.07,726.58 L395.23,722.14 L396.22,725.80 L397.07,726.58 Z M411.05,736.41 L402.22,731.36 L403.85,732.87 L411.05,736.41 Z M174.71,514.70 L181.34,504.34 L180.05,504.54 L173.56,514.32 L174.71,514.70 Z M180.62,515.85 L177.92,515.76 L182.88,517.39 L195.16,524.46 L180.62,515.85 Z M211.66,527.80 L213.66,528.59 L217.47,528.23 L211.66,527.80 Z M237.09,480.61 L247.83,478.96 L236.14,480.18 L237.09,480.61 Z M321.81,503.12 L320.54,498.29 L318.14,490.04 L321.81,503.12 Z M330.14,544.50 L345.11,549.33 L320.12,541.20 L330.14,544.50 Z M336.48,572.62 L335.79,579.63 L335.79,581.87 L336.48,572.62 L336.48,572.62 Z M279.74,591.18 L256.30,593.54 L281.88,591.83 L279.74,591.18 Z M286.37,593.18 L285.04,592.78 L285.98,594.92 L286.37,593.18 Z M305.33,613.24 L298.51,612.75 L304.44,613.46 L305.33,613.24 Z M324.07,610.16 L318.19,611.40 L319.27,611.57 L324.07,610.16 Z M366.57,645.05 L356.55,648.00 L367.59,645.50 L366.57,645.05 Z M102.76,594.12 L99.28,594.77 L100.28,595.54 L102.76,594.12 Z M110.16,586.70 L103.85,593.50 L106.07,592.24 L110.16,586.70 Z M241.88,384.27 L240.63,385.24 L241.28,385.72 L241.88,384.27 Z M234.19,379.68 L233.28,379.82 L234.27,380.55 L234.19,379.68 Z M257.43,348.58 L257.24,347.70 L254.18,353.18 L257.43,348.58 Z M364.97,318.06 L364.59,317.58 L360.78,317.58 L364.97,318.06 Z M409.73,341.77 L409.49,340.80 L406.67,341.44 L409.73,341.77 Z M264.49,408.35 L250.37,402.46 L267.95,410.70 L264.49,408.35 Z M252.91,426.74 L255.31,427.92 L255.55,427.36 L252.91,426.74 Z M255.87,427.43 L255.87,427.98 L256.44,427.56 L255.87,427.43 Z M260.82,383.71 L244.86,381.94 L243.99,382.62 L260.82,383.71 Z M401.01,371.10 L399.75,371.45 L397.07,372.87 L401.01,371.10 Z M199.54,296.36 L149.70,309.45 L218.60,292.59 L199.54,296.36 Z M426.58,585.17 L423.90,590.24 L424.39,592.35 L426.58,585.17 Z M435.32,585.31 L438.02,589.06 L435.32,585.31 L435.32,585.31 Z M464.84,610.87 L480.37,609.69 L475.43,610.04 L464.84,610.87 Z M482.35,629.96 L484.75,652.12 L480.80,613.93 L480.37,609.69 L482.35,629.96 Z M396.65,665.21 L404.55,659.67 L394.79,665.55 L396.65,665.21 Z M415.71,702.22 L422.48,692.91 L407.28,710.43 L415.71,702.22 Z M425.68,632.64 L423.33,632.79 L422.25,634.19 L425.68,632.64 Z M428.84,630.43 L428.78,631.23 L435.19,628.31 L428.84,630.43 Z M418.53,639.04 L420.79,638.33 L420.88,635.98 L418.53,639.04 Z M421.70,539.14 L428.13,541.55 L428.74,540.06 L428.27,540.49 L421.70,539.14 Z M437.19,539.78 L437.03,539.55 L436.71,539.62 L437.19,539.78 Z M440.13,544.50 L440.81,544.88 L439.88,543.56 L440.13,544.50 Z M434.34,550.51 L424.78,566.49 L424.81,566.50 L439.14,545.56 L441.07,546.92 L440.13,544.50 L434.34,550.51 Z M464.42,558.41 L462.02,554.75 L457.08,550.98 L464.42,558.41 Z M470.77,577.03 L475.26,576.89 L450.30,573.13 L450.30,573.16 L470.77,577.03 Z M409.78,568.78 L409.92,570.79 L414.29,563.36 L409.78,568.78 Z M487.01,469.41 L464.98,487.45 L485.74,470.59 L487.01,469.41 Z M533.60,505.13 L531.84,505.86 L538.83,504.89 L533.60,505.13 Z M432.65,537.54 L436.32,533.18 L431.57,537.50 L432.65,537.54 Z M472.04,462.69 L473.98,463.56 L468.37,456.09 L472.04,462.69 Z M577.52,362.61 L567.77,352.00 L587.96,376.29 L577.52,362.61 Z M596.58,381.12 L613.80,387.72 L587.96,376.29 L596.58,381.12 Z M595.16,172.12 L594.55,171.35 L594.46,171.88 L595.16,172.12 Z M600.81,173.06 L598.21,173.13 L600.26,173.81 L600.81,173.06 Z M601.66,173.53 L600.81,173.99 L604.77,175.30 L601.66,173.53 Z M604.22,194.45 L603.07,194.28 L598.27,199.82 L604.22,194.45 Z M650.37,190.98 L649.52,191.95 L651.34,191.31 L650.37,190.98 Z M668.59,179.55 L655.09,190.01 L657.71,189.09 L668.59,179.55 Z M712.50,294.71 L693.57,284.97 L694.00,285.28 L712.50,294.71 Z M637.08,361.16 L639.50,353.18 L636.82,357.90 L637.08,361.16 Z M548.57,222.69 L553.23,224.93 L555.07,225.06 L548.57,222.69 Z M568.72,252.29 L567.91,253.22 L569.33,255.46 L568.72,252.29 Z M565.27,263.02 L565.66,266.07 L568.62,269.13 L565.27,263.02 Z M565.23,293.77 L562.48,300.24 L563.40,300.14 L565.23,293.77 Z M622.13,506.66 L646.28,496.05 L639.78,498.64 L622.13,506.66 Z M618.04,522.46 L613.38,540.61 L622.13,506.66 L618.04,522.46 Z M592.91,561.71 L605.33,549.10 L613.38,540.61 L592.91,561.71 Z M642.89,584.44 L643.17,581.16 L642.04,583.16 L642.89,584.44 Z M727.60,618.43 L727.60,618.43 L682.57,588.59 L693.72,596.01 L727.60,618.43 Z M675.35,610.53 L678.94,608.10 L677.91,607.33 L675.35,610.53 Z M673.81,611.57 L674.87,610.86 L672.26,610.75 L673.81,611.57 Z M621.00,665.44 L619.03,664.15 L610.56,663.67 L621.00,665.44 Z M722.10,691.73 L694.57,714.60 L688.35,720.02 L722.10,691.73 Z M661.22,814.18 L660.26,813.62 L657.29,812.79 L661.22,814.18 Z M666.89,854.05 L652.91,829.65 L666.96,854.34 L666.89,854.05 Z M680.87,888.82 L680.28,888.42 L680.24,890.19 L680.87,888.82 Z M550.69,666.74 L553.21,668.21 L553.21,668.21 L550.69,666.74 Z M555.07,665.19 L560.57,656.25 L568.20,638.21 L555.07,665.19 Z M574.72,629.03 L574.69,629.02 L567.35,628.43 L574.72,629.03 Z M582.93,616.74 L583.87,619.04 L583.87,615.34 L582.93,616.74 Z M622.92,780.56 L622.98,780.02 L613.10,762.22 L622.92,780.56 Z M619.03,790.75 L622.13,787.45 L622.45,784.70 L619.03,790.75 Z M611.98,819.14 L612.39,819.51 L624.26,824.85 L622.98,823.87 L611.98,819.14 Z M610.56,873.38 L623.26,874.91 L577.52,866.54 L571.44,865.60 L610.56,873.38 Z M612.67,915.82 L612.96,915.31 L609.70,915.80 L612.67,915.82 Z M569.47,494.99 L560.57,493.46 L558.26,493.76 L569.47,494.99 Z M566.50,113.38 L566.64,111.53 L562.55,106.70 L566.50,113.38 Z M672.27,818.09 L678.61,820.34 L684.82,821.51 L672.27,818.09 Z M751.61,750.08 L726.76,770.71 L753.02,750.08 L765.02,743.95 L751.61,750.08 Z M819.08,788.10 L819.08,788.10 L832.37,778.61 L819.08,788.10 Z M858.78,741.47 L865.42,735.84 L863.01,736.29 L858.78,741.47 Z M788.29,783.37 L786.34,785.09 L790.01,782.50 L788.29,783.37 Z M678.33,873.15 L691.74,868.19 L699.36,865.43 L694.85,865.96 L678.33,873.15 Z M704.73,863.48 L706.57,860.18 L701.64,864.60 L704.73,863.48 Z M750.20,874.21 L753.02,871.61 L755.56,866.43 L750.20,874.21 Z M778.86,892.71 L782.39,890.36 L780.13,891.77 L778.86,892.71 Z M784.96,900.44 L783.24,896.60 L778.86,892.71 L784.96,900.44 Z M809.73,900.54 L809.73,900.54 L803.15,898.14 L809.73,900.54 Z M830.96,869.14 L831.24,866.66 L829.50,870.31 L830.96,869.14 Z M789.17,909.81 L782.81,911.46 L790.31,909.91 L789.17,909.81 Z M804.42,911.22 L793.28,910.19 L793.40,910.87 L804.42,911.22 Z M758.67,570.08 L756.98,571.26 L757.00,572.21 L758.67,570.08 Z M748.79,664.85 L743.28,662.61 L747.51,664.62 L752.62,669.32 L748.79,664.85 Z M668.98,623.61 L669.15,624.77 L674.80,632.20 L668.98,623.61 Z M740.74,298.25 L737.35,309.92 L736.08,318.64 L740.74,298.25 Z M790.86,368.39 L786.38,366.02 L794.96,371.34 L790.86,368.39 Z M708.40,137.58 L708.40,137.82 L708.12,138.41 L708.40,137.58 Z" /></g></svg>