<svg xmlns="http://www.w3.org/2000/svg" viewBox="0 0 1000 1000" width="1000" height="1000"><g fill="#cccccc" stroke="#222" stroke-width="2"><path d="M288.58,893.39 L283.03,901.23 L279.85,902.64 L278.38,902.64 L278.22,899.69 L275.20,897.38 L273.41,886.45 L270.47,883.24 L266.47,884.27 L262.88,878.74 L262.06,873.60 L257.25,869.49 L252.43,854.46 L247.38,847.39 L242.97,831.84 L240.25,826.98 L240.03,827.99 L237.26,821.31 L233.18,824.52 L227.71,824.39 L222.33,810.77 L222.90,808.71 L220.45,798.82 L214.17,799.97 L208.78,792.39 L208.21,787.51 L205.92,784.04 L200.38,784.81 L192.05,790.59 L188.95,797.79 L186.26,792.52 L181.69,792.14 L176.22,786.23 L168.31,788.80 L164.88,787.77 L149.95,770.68 L146.52,762.07 L135.59,755.52 L133.22,738.68 L128.08,732.00 L127.59,725.70 L128.65,721.34 L128.16,716.71 L126.29,714.14 L127.10,705.53 L126.20,702.19 L124.57,702.32 L124.00,699.23 L125.96,689.60 L132.90,677.52 L130.86,672.63 L128.16,671.09 L127.92,668.39 L131.18,663.90 L132.57,656.44 L131.51,649.51 L134.20,644.75 L125.71,629.46 L129.55,629.33 L126.29,628.43 L83.86,580.37 L84.12,578.54 L83.45,580.12 L80.59,577.80 L77.65,573.44 L72.27,572.02 L65.74,578.06 L63.54,583.72 L48.03,579.99 L44.77,587.44 L42.24,588.08 L27.47,572.15 L24.21,561.87 L25.02,558.92 L23.80,554.55 L25.76,545.81 L24.21,530.39 L25.43,526.41 L23.31,524.22 L25.76,517.67 L22.98,517.28 L23.07,514.58 L21.27,514.33 L19.23,510.09 L30.65,498.14 L35.79,496.47 L38.08,499.42 L43.30,484.90 L47.22,482.85 L49.58,477.83 L51.05,478.35 L50.89,473.72 L53.91,464.86 L52.28,462.41 L57.74,453.42 L56.36,450.21 L59.05,446.87 L54.07,442.24 L47.14,427.34 L46.89,417.70 L52.20,409.35 L52.69,400.61 L54.56,398.04 L79.12,397.14 L91.69,408.96 L107.68,405.62 L116.98,389.17 L111.19,362.06 L103.77,348.70 L92.59,338.42 L90.14,337.39 L87.85,343.17 L86.47,343.04 L83.45,331.35 L83.77,325.95 L80.10,326.08 L78.23,328.26 L73.08,327.24 L72.02,322.87 L69.33,323.51 L66.96,318.11 L64.44,320.17 L61.17,318.11 L53.91,307.71 L51.79,301.15 L56.77,283.80 L55.22,275.20 L56.19,272.37 L66.80,277.25 L68.76,272.37 L77.25,272.88 L81.49,266.71 L85.41,266.97 L89.00,264.14 L95.85,266.46 L100.34,264.14 L105.48,265.82 L107.68,257.08 L106.70,253.99 L108.33,250.65 L117.64,243.84 L120.90,239.47 L131.67,235.62 L134.20,237.42 L145.05,231.12 L148.81,231.12 L151.99,234.08 L156.15,228.04 L160.39,229.71 L162.35,227.14 L171.49,225.47 L174.43,230.22 L179.57,229.84 L183.57,232.28 L188.22,228.94 L192.46,229.71 L196.13,225.47 L201.11,225.34 L205.92,219.69 L207.72,220.46 L208.70,227.27 L211.55,233.05 L215.15,237.16 L223.55,240.89 L227.30,246.67 L237.50,234.98 L241.50,233.31 L247.95,223.41 L253.25,221.36 L264.67,211.20 L265.08,207.99 L271.77,199.13 L270.79,197.97 L274.22,192.32 L267.78,176.90 L259.70,170.73 L264.10,154.54 L263.70,150.94 L261.74,150.55 L262.31,155.57 L260.84,157.75 L257.98,155.95 L256.84,151.33 L265.74,136.29 L269.90,134.88 L271.94,141.69 L272.26,150.55 L274.38,151.71 L275.85,145.41 L274.79,139.25 L271.04,129.99 L269.33,130.64 L266.71,126.91 L266.14,123.44 L269.65,119.59 L274.71,119.33 L276.42,117.15 L278.08,118.46 L276.67,115.73 L271.45,115.22 L270.79,113.42 L278.71,106.22 L281.16,95.69 L285.24,91.19 L286.79,86.56 L290.30,84.51 L290.95,81.55 L294.78,76.67 L298.05,75.90 L298.21,70.12 L292.83,63.95 L295.68,61.12 L296.82,62.28 L308.25,30.92 L321.06,22.70 L323.51,19.23 L344.07,43.13 L357.21,59.96 L375.40,82.19 L384.95,93.76 L418.32,136.29 L440.11,161.86 L472.01,197.46 L492.66,218.27 L512.40,235.10 L547.90,260.93 L573.60,286.63 L585.84,300.00 L629.90,353.32 L656.42,387.63 L671.03,407.42 L697.55,445.07 L716.23,471.15 L735.00,495.82 L742.18,503.28 L744.63,501.86 L755.89,516.38 L759.15,517.41 L772.78,532.06 L776.61,532.32 L778.33,528.08 L782.98,533.22 L784.94,531.55 L785.67,540.03 L797.09,559.30 L806.31,567.01 L824.35,571.89 L829.81,570.87 L838.55,563.67 L842.63,554.68 L841.32,551.33 L836.91,547.74 L835.36,539.64 L837.48,533.47 L841.16,532.96 L845.07,542.21 L850.21,543.11 L849.89,549.54 L852.34,553.26 L854.95,567.65 L856.33,568.55 L852.66,573.05 L852.91,577.03 L864.25,606.97 L895.91,682.40 L898.19,680.22 L908.96,693.84 L911.17,692.17 L918.84,701.42 L923.65,696.02 L925.28,697.69 L931.48,694.99 L932.95,698.72 L934.83,698.21 L936.38,700.78 L938.83,699.23 L939.97,693.07 L943.15,690.11 L948.78,697.43 L951.64,696.79 L959.72,705.92 L961.84,705.92 L964.94,701.80 L970.24,701.29 L971.14,697.43 L980.77,704.76 L966.90,709.77 L961.68,715.55 L950.25,709.26 L949.19,716.71 L945.03,715.55 L939.32,718.51 L932.71,729.17 L919.00,741.51 L912.55,739.58 L907.66,734.57 L903.66,734.18 L898.36,739.07 L897.21,742.41 L892.07,739.58 L879.10,739.45 L874.94,737.53 L871.02,743.18 L868.49,743.69 L853.15,729.30 L837.73,724.03 L834.30,724.55 L829.98,718.51 L826.55,710.41 L816.92,705.02 L812.35,699.23 L806.48,706.69 L804.36,714.01 L796.52,725.32 L785.75,730.97 L775.72,724.29 L768.54,723.01 L764.29,719.79 L749.77,697.05 L744.87,699.23 L743.57,703.99 L736.55,710.54 L732.22,709.26 L729.78,717.48 L726.11,717.48 L719.82,722.36 L721.29,727.25 L720.96,732.13 L713.87,738.55 L719.90,752.95 L720.88,760.14 L719.74,769.52 L718.35,771.45 L712.89,771.71 L706.85,777.10 L707.83,787.38 L705.95,793.81 L707.99,799.97 L704.16,813.21 L704.48,827.86 L688.65,845.21 L685.88,849.19 L685.23,854.46 L681.06,857.93 L676.49,871.93 L678.94,884.01 L675.60,888.64 L674.21,900.20 L671.27,905.73 L664.58,905.73 L660.17,896.86 L654.38,893.65 L648.42,887.22 L643.53,893.78 L637.65,888.25 L638.71,895.83 L635.21,902.39 L633.90,908.43 L628.19,909.97 L623.78,918.32 L620.85,917.29 L617.83,918.96 L605.34,927.70 L601.75,933.61 L599.14,934.77 L598.32,940.29 L599.87,943.25 L600.20,950.19 L597.35,963.81 L586.33,974.86 L583.39,980.13 L573.52,980.77 L560.63,976.53 L558.34,974.60 L558.10,968.69 L555.32,965.86 L554.67,958.92 L547.73,950.44 L541.70,949.16 L537.05,949.54 L534.43,944.15 L522.60,935.02 L512.32,932.45 L512.16,925.13 L515.99,915.11 L516.32,909.45 L515.26,901.36 L511.42,892.49 L494.78,901.36 L474.13,904.06 L472.34,903.54 L465.89,908.04 L461.40,914.98 L457.24,917.81 L457.57,922.69 L463.44,936.44 L461.89,941.96 L463.61,946.33 L458.88,954.81 L455.69,955.07 L454.55,959.44 L451.53,960.72 L436.84,953.78 L430.97,953.91 L429.58,955.71 L422.73,952.37 L418.89,945.56 L415.96,931.81 L412.85,930.14 L411.63,925.13 L406.25,921.40 L403.80,921.79 L401.35,927.96 L398.98,929.50 L397.02,927.44 L394.74,928.99 L387.56,942.09 L383.64,937.21 L380.62,937.59 L377.44,928.86 L370.10,923.59 L369.20,905.21 L371.48,899.95 L371.97,894.29 L374.75,892.36 L376.30,887.74 L383.64,877.20 L379.73,874.12 L376.22,861.52 L373.04,860.24 L372.30,856.90 L370.34,857.16 L369.93,847.00 L370.26,856.90 L367.24,867.05 L364.88,868.46 L360.22,866.92 L355.41,873.35 L349.21,872.96 L346.92,869.36 L340.72,866.41 L335.34,872.45 L334.85,880.54 L331.99,892.75 L323.59,892.88 L312.82,874.57 L314.45,878.36 L310.61,881.70 L307.76,890.56 L305.31,893.39 L300.99,894.16 L297.48,891.59 L293.40,894.16 L288.58,893.39 Z M381.52,109.05 L381.99,109.43 L384.95,93.76 L381.52,109.05 Z M481.44,249.77 L481.56,249.62 L481.31,245.13 L481.44,249.77 Z M468.10,295.24 L472.61,294.55 L472.09,293.96 L468.10,295.24 Z M474.89,298.94 L475.94,294.93 L474.87,297.17 L474.89,298.94 Z M474.95,304.49 L478.46,314.13 L474.92,301.58 L474.95,304.49 Z M477.89,338.03 L465.89,352.29 L466.22,349.34 L464.75,353.45 L460.02,358.72 L470.03,348.63 L478.21,338.29 L476.34,330.58 L477.89,338.03 Z M480.42,354.35 L480.99,353.32 L478.46,347.80 L480.42,354.35 Z M475.11,344.07 L482.70,360.26 L485.39,365.40 L480.42,354.35 L475.11,344.07 Z M470.42,348.42 L461.24,359.49 L468.18,351.65 L471.85,348.18 L475.11,344.07 L470.42,348.42 Z M471.77,381.08 L467.44,371.44 L461.24,359.49 L471.77,381.08 Z M473.80,364.23 L474.13,363.86 L475.93,367.33 L471.44,358.33 L468.18,351.65 L473.80,364.23 Z M488.17,368.87 L483.60,358.59 L480.99,353.32 L488.17,368.87 Z M484.64,374.34 L485.97,372.72 L487.05,374.78 L486.54,371.70 L488.17,368.87 L484.64,374.34 Z M495.92,387.12 L495.58,387.31 L496.90,387.12 L495.19,383.90 L486.54,371.70 L495.92,387.12 Z M492.17,365.66 L488.74,367.97 L489.88,345.35 L481.48,344.97 L489.31,346.64 L488.66,354.99 L488.17,368.87 L492.17,365.66 Z M480.31,373.06 L480.66,373.62 L484.33,370.03 L480.31,373.06 Z M471.60,383.65 L461.24,389.94 L452.35,394.83 L457.73,392.51 L475.68,381.98 L480.17,379.79 L481.83,377.77 L471.60,383.65 Z M449.33,393.93 L448.41,394.39 L452.35,394.83 L449.33,393.93 Z M474.79,388.53 L479.85,407.93 L477.15,396.88 L474.79,388.53 Z M482.21,437.62 L484.82,438.13 L486.13,446.74 L485.52,437.83 L482.21,437.62 Z M488.09,448.79 L493.96,452.14 L486.13,446.74 L488.09,448.79 Z M468.01,428.23 L465.06,425.13 L466.46,427.85 L472.26,429.78 L468.01,428.23 Z M466.38,431.58 L467.36,443.40 L466.46,427.85 L466.38,431.58 Z M500.41,507.26 L501.41,513.31 L500.82,498.01 L500.41,507.26 Z M502.53,520.11 L504.65,523.07 L502.24,518.38 L502.53,520.11 Z M500.57,523.84 L501.48,523.76 L500.82,521.39 L500.57,523.84 Z M453.90,558.14 L452.30,559.83 L455.12,559.04 L453.90,558.14 Z M416.93,656.96 L417.69,657.89 L417.32,656.48 L416.93,656.96 Z M419.22,659.79 L419.84,658.97 L418.77,659.23 L419.22,659.79 Z M426.97,666.34 L427.53,667.50 L427.46,661.71 L426.97,666.34 Z M431.70,776.85 L431.54,773.12 L431.21,769.14 L431.70,776.85 Z M428.28,779.29 L427.79,780.96 L431.70,776.85 L428.28,779.29 Z M360.78,92.40 L362.92,87.59 L361.37,90.03 L360.78,92.40 Z M365.94,170.99 L368.14,142.72 L369.53,129.99 L366.02,159.55 L365.94,170.99 Z M373.44,280.72 L381.36,272.24 L377.85,274.94 L373.44,280.72 Z M365.12,290.74 L367.24,288.43 L367.45,291.05 L367.81,289.20 L373.44,280.72 L365.12,290.74 Z M385.44,386.60 L379.64,369.90 L377.20,359.49 L378.83,369.64 L385.44,386.60 Z M381.44,383.65 L390.74,393.28 L385.44,386.60 L381.44,383.65 Z M354.99,458.63 L355.16,452.63 L354.51,457.02 L354.99,458.63 Z M367.65,469.74 L355.65,468.45 L357.61,469.61 L367.65,469.74 Z M383.00,515.23 L380.05,513.81 L378.87,514.81 L383.00,515.23 Z M430.81,494.28 L431.62,489.40 L430.09,495.15 L430.81,494.28 Z M386.66,640.37 L386.25,640.51 L381.11,647.19 L386.66,640.37 Z M360.47,200.54 L343.50,190.39 L348.15,193.60 L360.47,200.54 Z M138.83,518.56 L139.42,519.21 L140.01,517.85 L138.83,518.56 Z M144.60,495.69 L151.58,501.48 L145.38,495.31 L144.60,495.69 Z M175.46,531.13 L176.39,531.42 L177.88,530.51 L175.46,531.13 Z M275.53,524.22 L273.73,519.60 L276.42,528.20 L277.22,528.59 L275.53,524.22 Z M371.03,647.00 L371.16,647.19 L371.34,647.08 L371.03,647.00 Z M373.63,645.73 L375.73,644.49 L377.36,641.54 L373.63,645.73 Z M132.57,670.45 L133.22,668.01 L132.17,670.07 L132.57,670.45 Z M176.88,644.75 L178.26,631.90 L176.55,640.77 L176.88,644.75 Z M191.32,668.91 L190.50,666.21 L188.22,662.61 L191.32,668.91 Z M211.23,672.89 L197.68,656.19 L201.60,661.07 L211.23,672.89 Z M228.61,679.06 L226.41,671.99 L224.37,669.42 L228.61,679.06 Z M275.20,650.79 L271.02,650.08 L271.69,651.18 L275.20,650.79 Z M317.63,697.05 L309.39,677.52 L311.76,683.17 L317.63,697.05 Z M241.01,823.49 L240.61,825.33 L241.80,823.33 L241.01,823.49 Z M276.42,778.77 L268.43,784.68 L271.12,783.66 L276.42,778.77 Z M313.31,709.26 L313.34,709.75 L314.86,707.46 L310.04,711.70 L313.31,709.26 Z M285.34,853.58 L286.62,857.03 L287.86,857.03 L285.34,853.58 Z M288.90,857.03 L290.05,857.03 L292.91,850.60 L288.90,857.03 Z M304.90,844.05 L305.72,846.49 L300.82,831.33 L304.90,844.05 Z M148.89,587.70 L145.46,587.70 L150.00,588.43 L148.89,587.70 Z M166.84,595.67 L162.92,596.95 L171.16,596.18 L166.84,595.67 Z M185.04,626.38 L182.53,628.55 L182.83,629.07 L185.04,626.38 Z M196.95,647.32 L196.05,633.96 L200.54,632.67 L195.81,632.89 L196.95,647.32 Z M209.35,603.38 L209.08,605.18 L210.11,602.52 L209.35,603.38 Z M228.88,669.73 L234.16,670.58 L229.91,668.78 L228.88,669.73 Z M213.35,598.88 L212.53,588.98 L211.99,588.19 L213.35,598.88 Z M152.73,572.62 L151.58,572.92 L151.19,575.07 L152.73,572.62 Z M160.39,560.46 L154.36,569.32 L154.26,570.20 L160.39,560.46 Z M280.08,275.10 L280.34,274.17 L279.20,266.46 L280.08,275.10 Z M278.30,291.64 L278.87,286.76 L278.46,280.85 L278.30,291.64 Z M297.46,281.31 L299.37,279.30 L298.62,278.92 L301.56,268.77 L297.46,281.31 Z M340.64,259.26 L322.93,241.02 L328.65,247.05 L340.64,259.26 Z M294.13,457.15 L296.42,458.82 L294.08,456.11 L294.13,457.15 Z M293.97,454.06 L294.00,454.76 L294.87,452.78 L293.97,454.06 Z M300.96,458.48 L299.62,458.16 L300.09,458.69 L300.96,458.48 Z M306.29,455.86 L302.81,458.05 L304.49,457.66 L306.29,455.86 Z M310.99,470.07 L309.06,463.70 L309.80,469.10 L310.99,470.07 Z M379.56,520.37 L377.39,519.16 L377.69,520.24 L379.56,520.37 Z M377.05,517.89 L377.61,515.88 L376.71,516.64 L377.05,517.89 Z M89.56,477.13 L92.87,477.56 L90.06,476.16 L89.56,477.13 Z M156.62,465.78 L162.68,466.01 L158.27,464.86 L156.62,465.78 Z M188.79,421.04 L204.95,403.18 L194.83,413.84 L188.79,421.04 Z M322.26,292.28 L323.93,294.43 L323.51,292.93 L322.26,292.28 Z M324.41,295.05 L325.06,295.88 L326.44,293.57 L324.41,295.05 Z M280.18,118.82 L279.32,119.45 L283.69,122.93 L280.18,118.82 Z M292.66,187.05 L307.41,200.84 L306.45,199.13 L292.66,187.05 Z M309.96,205.42 L305.72,204.01 L312.73,206.96 L309.96,205.42 Z M285.40,248.08 L289.07,250.01 L285.69,247.68 L285.40,248.08 Z M323.31,200.08 L322.93,201.05 L324.87,218.97 L323.31,200.08 Z M348.98,123.54 L346.68,119.71 L347.90,122.16 L347.72,123.17 L348.98,123.54 Z M320.81,90.80 L324.57,103.91 L325.69,104.68 L320.81,90.80 Z M426.97,478.86 L432.36,471.54 L432.34,470.29 L426.97,478.86 Z M425.34,326.72 L427.46,325.69 L427.98,323.69 L425.34,326.72 Z M442.61,334.60 L442.15,342.40 L442.77,334.51 L442.61,334.60 Z M453.08,338.80 L453.06,335.42 L452.35,336.10 L453.08,338.80 Z M453.47,327.40 L455.61,322.87 L453.41,326.08 L453.47,327.40 Z M462.14,348.82 L456.92,325.44 L455.61,322.87 L462.14,348.82 Z M415.22,394.95 L410.65,390.33 L409.02,389.43 L415.22,394.95 Z M437.01,451.88 L430.81,454.32 L434.56,453.03 L437.01,451.88 Z M437.27,400.01 L436.60,400.35 L436.67,401.19 L437.27,400.01 Z M442.47,414.23 L464.09,424.12 L462.87,422.84 L442.47,414.23 Z M448.51,355.12 L449.82,353.06 L446.47,356.79 L448.51,355.12 Z M440.43,344.84 L441.58,352.04 L441.01,346.25 L440.43,344.84 Z M446.93,345.80 L445.82,344.97 L441.01,346.25 L446.93,345.80 Z M390.42,272.63 L391.12,272.27 L388.78,271.60 L390.42,272.63 Z M422.81,263.50 L426.73,260.68 L422.04,263.25 L422.81,263.50 Z M436.19,259.13 L436.77,260.49 L437.52,256.28 L437.33,256.31 L436.19,259.13 Z M445.74,279.05 L450.55,288.82 L449.47,283.70 L449.41,284.96 L445.74,279.05 Z M446.64,289.59 L455.12,290.36 L450.55,288.82 L446.64,289.59 Z M450.55,277.38 L449.78,277.03 L449.55,282.02 L450.55,277.38 Z M457.98,273.53 L461.00,268.26 L456.53,274.17 L457.98,273.53 Z M428.20,311.10 L423.95,309.76 L427.38,311.56 L428.20,311.10 Z M428.32,322.38 L429.26,318.76 L428.19,319.66 L428.32,322.38 Z M461.52,297.15 L461.89,296.91 L463.77,292.67 L461.52,297.15 Z M428.60,306.55 L431.21,296.27 L428.93,302.95 L428.60,306.55 Z M433.62,296.17 L432.76,295.50 L431.21,296.27 L433.62,296.17 Z M416.12,144.51 L414.89,143.10 L392.62,121.26 L416.12,144.51 Z M389.60,115.86 L387.65,114.44 L392.62,121.26 L389.60,115.86 Z M486.21,406.52 L482.62,412.82 L488.09,404.21 L486.21,406.52 Z M488.69,404.26 L487.92,398.04 L488.09,404.21 L488.69,404.26 Z M482.67,389.60 L479.68,387.24 L482.21,389.69 L482.67,389.60 Z M555.81,293.44 L565.11,300.38 L548.79,287.27 L555.81,293.44 Z M557.20,353.45 L552.78,357.17 L555.57,355.76 L557.20,353.45 Z M573.44,358.20 L571.97,357.56 L575.95,361.23 L573.44,358.20 Z M585.92,373.24 L584.19,371.15 L586.12,374.20 L585.92,373.24 Z M606.81,369.51 L591.63,385.70 L587.55,390.84 L606.81,369.51 Z M548.71,450.08 L549.86,435.82 L548.96,437.36 L548.71,450.08 Z M551.32,524.99 L549.76,513.20 L549.69,513.81 L551.32,524.99 Z M573.60,556.35 L572.13,550.56 L573.53,556.78 L573.60,556.35 Z M571.83,567.72 L572.55,563.08 L571.56,566.37 L571.83,567.72 Z M570.58,575.75 L571.55,569.51 L570.58,570.87 L570.58,575.75 Z M567.89,585.13 L568.01,582.72 L563.16,594.00 L567.89,585.13 Z M536.40,619.59 L537.13,613.91 L535.74,618.41 L536.40,619.59 Z M543.55,646.76 L540.88,641.80 L542.92,646.55 L543.55,646.76 Z M558.26,689.85 L555.73,695.89 L559.17,690.02 L558.26,689.85 Z M561.12,690.37 L560.13,690.19 L561.36,692.68 L561.12,690.37 Z M563.05,743.84 L562.78,742.18 L562.58,743.05 L563.05,743.84 Z M565.01,746.75 L564.58,746.43 L564.71,746.65 L565.01,746.75 Z M567.16,774.44 L567.64,770.55 L567.07,773.38 L567.16,774.44 Z M557.17,824.09 L563.56,816.94 L557.28,823.88 L557.17,824.09 Z M552.55,841.99 L552.87,832.23 L552.03,830.60 L552.55,841.99 Z M549.94,854.97 L551.64,853.10 L543.65,857.80 L549.94,854.97 Z M497.63,369.33 L498.37,369.64 L499.54,368.03 L497.63,369.33 Z M501.55,365.27 L508.65,366.94 L509.92,366.54 L501.55,365.27 Z M528.74,391.33 L531.74,399.32 L531.49,394.28 L528.74,391.33 Z M538.86,401.80 L540.15,393.28 L539.55,389.42 L538.86,401.80 Z M503.84,470.00 L506.94,454.19 L504.81,462.03 L503.84,470.00 Z M512.50,474.67 L515.59,470.77 L512.73,473.08 L512.50,474.67 Z M500.00,737.91 L498.84,738.88 L506.28,739.20 L500.00,737.91 Z M525.13,538.61 L521.87,530.77 L523.91,536.30 L526.85,549.66 L525.13,538.61 Z M512.81,494.15 L513.79,497.37 L512.67,492.74 L512.81,494.15 Z M539.32,516.62 L542.59,523.19 L541.21,519.34 L539.32,516.62 Z M511.99,478.22 L513.95,483.49 L512.19,476.86 L511.99,478.22 Z M540.15,463.85 L540.42,468.91 L540.55,466.01 L540.15,463.85 Z M489.23,387.76 L486.72,388.81 L490.34,388.12 L489.23,387.76 Z M489.15,407.93 L491.43,409.09 L501.96,408.70 L489.15,407.93 Z M505.30,375.17 L505.97,369.84 L505.39,369.90 L505.30,375.17 Z M495.19,351.52 L496.99,351.83 L493.15,349.47 L495.19,351.52 Z M499.92,352.34 L500.41,352.42 L499.55,353.93 L502.69,350.88 L499.92,352.34 Z M507.83,344.99 L507.85,344.98 L508.89,315.16 L507.83,321.33 L507.83,344.99 Z M528.97,352.29 L536.47,355.51 L525.78,349.05 L528.97,352.29 Z M538.76,358.98 L537.73,363.10 L538.51,362.70 L538.76,358.98 Z M535.55,364.19 L532.15,364.76 L531.50,366.23 L535.55,364.19 Z M498.50,355.77 L498.20,356.28 L498.86,361.67 L498.50,355.77 Z M499.92,291.26 L499.18,288.43 L499.87,292.69 L499.92,291.26 Z M508.49,294.08 L512.08,290.49 L513.33,294.32 L513.38,294.26 L512.24,289.20 L508.49,294.08 Z M516.32,289.84 L514.61,293.02 L519.50,288.05 L516.32,289.84 Z M489.76,322.44 L490.13,321.97 L491.19,319.01 L489.76,322.44 Z M477.61,291.44 L485.64,281.62 L478.87,288.82 L477.61,291.44 Z M543.63,286.70 L542.19,270.31 L543.00,286.63 L543.63,286.70 Z M621.99,501.22 L624.45,502.02 L624.11,501.48 L621.99,501.22 Z M670.70,728.79 L674.62,730.72 L670.48,727.86 L670.70,728.79 Z M696.46,716.87 L696.24,718.38 L696.73,726.60 L696.46,716.87 Z M744.22,600.81 L747.16,604.66 L737.86,588.47 L744.22,600.81 Z M778.49,571.51 L784.24,576.15 L783.96,574.98 L778.29,570.63 L778.49,571.51 Z M792.69,592.84 L794.29,591.58 L788.28,593.10 L792.69,592.84 Z M583.24,751.30 L574.18,749.85 L578.01,751.15 L583.24,751.30 Z M586.82,751.40 L585.35,750.63 L584.37,746.01 L584.69,751.34 L586.82,751.40 Z M593.02,762.45 L593.18,764.25 L593.90,765.10 L593.02,762.45 Z M597.75,762.33 L602.24,760.65 L593.02,762.45 L597.75,762.33 Z M581.67,794.72 L582.00,794.58 L584.62,790.72 L581.67,794.72 Z M591.47,777.62 L594.90,768.11 L594.55,767.07 L591.47,777.62 Z M606.73,788.15 L612.11,789.95 L612.54,789.51 L606.73,788.15 Z M845.97,592.97 L845.37,593.01 L848.60,598.73 L845.97,592.97 Z M776.53,559.82 L774.82,555.32 L776.24,561.58 L776.53,559.82 Z M583.31,595.54 L581.60,596.31 L584.94,595.28 L583.31,595.54 Z M587.80,595.92 L587.26,603.86 L587.72,606.07 L587.80,595.92 Z M628.35,607.49 L620.27,613.66 L626.80,610.06 L628.35,607.49 Z M614.48,470.38 L608.28,466.78 L602.89,465.24 L614.48,470.38 Z M641.74,446.20 L634.80,434.15 L629.66,427.72 L641.74,446.20 Z M706.36,513.68 L705.87,521.44 L706.20,520.75 L706.36,513.68 Z M581.35,466.78 L580.53,469.03 L582.55,466.25 L581.35,466.78 Z M687.18,465.50 L700.40,488.63 L693.30,474.49 L687.18,465.50 Z M643.61,428.11 L665.07,467.04 L650.06,439.16 L643.61,428.11 Z" /></g></svg>