<svg xmlns="http://www.w3.org/2000/svg" viewBox="0 0 1000 1000" width="1000" height="1000"><g fill="#cccccc" stroke="#222" stroke-width="2"><path d="M74.72,736.26 L54.76,722.42 L39.57,718.77 L38.43,703.72 L24.77,694.01 L25.73,683.08 L33.17,672.40 L20.28,662.20 L21.71,644.96 L22.48,610.72 L19.23,545.16 L38.43,547.59 L46.83,555.36 L47.98,547.11 L61.06,454.35 L80.45,402.15 L87.23,414.04 L80.83,401.42 L123.43,286.81 L139.47,244.08 L139.57,141.85 L196.68,152.05 L239.94,162.98 L280.82,173.66 L295.23,175.43 L293.04,175.12 L291.90,46.43 L325.42,42.30 L372.60,36.47 L390.74,38.17 L416.82,31.86 L457.60,21.90 L468.48,19.23 L491.69,71.19 L499.62,58.81 L502.10,62.69 L516.24,108.34 L525.79,125.34 L521.87,133.84 L527.89,121.70 L526.74,128.50 L528.65,132.38 L527.22,160.55 L530.47,160.79 L530.85,166.13 L535.15,175.84 L538.01,176.82 L540.21,173.17 L548.04,186.77 L545.27,203.53 L550.14,214.70 L549.66,226.84 L547.37,235.33 L543.84,230.96 L552.81,244.56 L549.09,260.34 L557.11,271.76 L557.78,278.80 L562.17,280.74 L566.66,289.72 L567.14,287.30 L566.92,293.71 L567.33,287.30 L570.67,284.87 L573.44,265.20 L577.55,268.11 L580.70,246.75 L581.18,250.63 L584.71,249.90 L586.81,256.22 L591.02,257.92 L593.50,259.37 L593.88,274.18 L600.09,282.44 L602.00,294.09 L606.11,293.85 L610.12,306.72 L611.45,304.54 L614.99,312.55 L616.42,310.85 L617.47,313.03 L616.90,331.00 L627.69,343.87 L628.64,349.21 L622.63,348.97 L617.95,365.48 L615.08,363.05 L611.17,378.35 L603.62,384.18 L603.34,390.98 L594.36,388.79 L591.97,392.19 L591.40,398.99 L597.51,406.03 L596.65,418.90 L600.57,433.95 L602.48,438.57 L600.85,445.85 L603.91,449.49 L607.16,436.87 L614.70,444.88 L615.94,436.63 L624.25,446.10 L626.83,440.75 L634.76,461.39 L629.41,471.59 L623.96,462.61 L623.87,477.18 L628.84,472.56 L630.94,486.40 L633.89,487.94 L633.52,485.19 L637.72,472.32 L642.11,481.79 L646.69,476.45 L653.76,481.30 L655.39,461.64 L659.59,465.03 L659.87,452.17 L665.99,439.78 L669.71,438.08 L670.19,432.74 L672.10,436.63 L677.16,417.69 L680.79,418.17 L683.37,403.85 L686.33,405.30 L686.62,410.64 L692.82,413.80 L691.87,411.86 L696.83,396.32 L701.32,392.43 L708.39,423.27 L716.80,401.66 L719.47,413.07 L728.45,413.80 L727.87,433.95 L729.12,441.48 L737.04,437.35 L740.86,444.15 L745.45,438.57 L757.96,428.61 L756.14,410.64 L752.99,394.38 L754.23,386.36 L757.00,383.69 L763.31,385.88 L769.42,381.75 L779.45,363.54 L795.11,346.30 L799.98,329.06 L805.52,280.74 L813.83,269.81 L819.18,272.00 L821.85,277.83 L825.67,297.01 L826.05,356.74 L830.16,372.28 L836.56,379.81 L846.68,376.65 L852.98,364.02 L865.11,311.58 L898.06,235.09 L905.80,230.48 L907.14,258.64 L913.73,297.49 L924.14,345.81 L932.83,375.19 L937.98,392.92 L963.48,464.55 L973.70,494.42 L980.77,528.17 L942.75,533.18 L941.71,677.50 L940.75,688.67 L942.57,695.95 L942.66,719.75 L940.94,739.66 L928.24,776.32 L917.07,797.69 L940.37,840.42 L938.84,853.05 L936.84,869.08 L940.08,886.56 L941.13,904.28 L937.31,915.45 L917.83,945.56 L915.64,980.77 L908.09,974.70 L876.67,934.39 L874.09,930.51 L855.37,883.89 L842.57,869.80 L822.42,859.36 L808.77,860.33 L759.10,835.57 L706.86,794.05 L691.96,763.21 L670.48,737.23 L650.99,700.08 L631.99,696.68 L623.39,700.32 L619.76,695.22 L591.40,650.54 L575.64,628.21 L565.33,619.71 L552.53,618.01 L538.30,625.78 L513.75,646.66 L486.25,669.48 L481.85,668.51 L470.30,641.80 L438.59,663.66 L433.15,666.33 L406.79,673.37 L391.60,682.11 L351.40,733.59 L331.72,754.71 L294.28,755.68 L287.31,769.28 L279.96,773.89 L268.50,768.79 L261.91,760.78 L228.29,719.02 L206.42,676.52 L187.61,642.05 L179.01,640.35 L171.27,645.93 L153.99,689.39 L135.36,728.24 L125.43,755.68 L103.66,776.56 L98.88,779.23 L93.53,774.38 L74.72,736.26 Z M419.01,135.54 L377.62,170.55 L414.52,139.67 L470.11,90.86 L491.69,71.19 L419.01,135.54 Z M390.84,661.47 L391.12,672.64 L391.60,682.11 L390.84,661.47 Z M410.61,261.56 L424.84,244.08 L441.36,218.09 L410.61,261.56 Z M445.47,387.82 L454.54,373.98 L455.78,372.04 L445.47,387.82 Z M423.62,398.16 L423.62,398.16 L445.47,387.82 L423.62,398.16 Z M389.12,339.74 L402.59,418.90 L393.32,362.57 L389.12,339.74 Z M400.10,504.13 L399.72,492.72 L397.81,472.08 L400.10,504.13 Z M426.37,491.74 L426.10,491.70 L426.09,491.91 L426.37,491.74 Z M437.25,474.99 L432.10,472.56 L420.92,470.13 L437.25,474.99 Z M447.85,513.11 L441.61,479.48 L441.65,479.85 L447.85,513.11 Z M447.72,475.70 L440.88,473.05 L440.95,473.67 L447.72,475.70 Z M486.72,492.96 L491.31,495.63 L476.51,486.89 L475.92,486.66 L486.72,492.96 Z M508.12,481.06 L513.75,482.27 L506.58,478.24 L508.12,481.06 Z M517.57,490.77 L521.58,500.97 L518.15,490.77 L513.75,482.27 L517.57,490.77 Z M540.02,547.35 L539.16,543.46 L538.14,543.72 L540.02,547.35 Z M537.92,553.66 L536.39,577.46 L536.01,600.28 L538.11,558.28 L540.02,547.35 L537.92,553.66 Z M264.49,433.47 L266.00,430.00 L253.03,448.77 L264.49,433.47 Z M275.56,491.74 L279.29,491.02 L275.18,490.04 L275.76,499.76 L275.56,491.74 Z M291.24,584.93 L292.18,568.96 L290.46,584.74 L291.24,584.93 Z M294.76,591.54 L293.52,585.47 L297.05,603.92 L294.76,591.54 Z M347.86,555.60 L347.48,550.51 L346.91,539.58 L346.72,553.42 L347.86,555.60 Z M374.03,525.29 L372.69,526.95 L374.03,526.95 L374.03,525.29 Z M384.84,552.77 L381.96,551.72 L380.43,553.66 L384.84,552.77 Z M394.92,545.21 L394.92,545.19 L388.84,551.96 L391.22,551.48 L394.92,545.21 Z M408.22,561.67 L408.19,561.66 L408.03,569.69 L408.22,561.67 Z M402.87,618.98 L407.46,612.67 L405.16,614.36 L402.87,618.98 Z M56.10,556.09 L56.09,556.19 L58.29,541.52 L56.10,556.09 Z M92.48,499.51 L92.29,503.89 L95.46,442.03 L92.48,499.51 Z M98.79,506.31 L116.74,513.60 L109.96,508.50 L92.29,503.89 L98.79,506.31 Z M115.79,509.23 L126.77,494.17 L120.27,502.67 L115.79,509.23 Z M134.60,473.78 L138.04,536.66 L136.89,514.81 L134.60,473.78 Z M135.49,430.93 L135.36,436.63 L134.60,473.78 L135.49,430.93 Z M168.79,459.21 L166.12,480.82 L166.38,482.69 L170.31,454.63 L168.79,459.21 Z M211.67,458.72 L213.30,465.52 L203.65,418.41 L211.67,458.72 Z M240.04,484.46 L239.65,487.86 L234.40,544.19 L242.14,464.55 L240.04,484.46 Z M291.13,614.85 L287.12,624.32 L294.67,609.02 L291.13,614.85 Z M253.89,673.61 L252.07,670.94 L263.91,691.58 L253.89,673.61 Z M100.60,645.44 L100.42,620.07 L100.31,620.44 L100.60,645.44 Z M99.36,575.27 L110.25,586.20 L118.52,600.14 L117.03,596.64 L111.77,586.68 L99.36,575.27 Z M125.15,620.19 L122.18,608.78 L120.39,604.55 L125.15,620.19 Z M121.71,631.18 L124.67,623.83 L125.15,620.19 L121.71,631.18 Z M159.24,646.66 L144.91,603.44 L158.00,643.99 L159.24,646.66 Z M169.85,642.20 L169.85,642.20 L159.24,646.66 L169.85,642.20 Z M106.81,674.58 L104.61,671.91 L107.95,677.01 L106.81,674.58 Z M120.94,652.24 L120.14,669.78 L120.14,669.78 L120.94,652.24 Z M119.99,636.70 L121.16,638.44 L120.49,635.10 L119.99,636.70 Z M108.05,713.19 L109.22,710.42 L107.09,712.22 L110.92,724.60 L108.05,713.19 Z M213.80,640.31 L213.74,640.33 L213.77,640.35 L213.80,640.31 Z M218.36,633.79 L218.18,632.24 L217.27,635.35 L218.36,633.79 Z M228.67,586.93 L227.91,572.84 L228.48,594.21 L228.67,586.93 Z M234.78,599.07 L234.88,597.61 L234.88,594.21 L234.78,599.07 Z M227.81,653.70 L229.05,636.46 L228.96,627.48 L227.81,653.70 Z M196.13,562.29 L194.48,562.89 L196.63,565.28 L196.13,562.29 Z M206.42,558.52 L203.24,559.68 L213.58,556.09 L206.42,558.52 Z M207.09,637.67 L204.08,644.66 L204.51,645.69 L207.09,637.67 Z M198.30,582.80 L199.07,579.64 L197.81,572.25 L198.30,582.80 Z M137.41,589.09 L136.61,582.31 L136.22,587.66 L137.41,589.09 Z M156.13,571.01 L152.75,566.77 L147.68,566.53 L156.13,571.01 Z M160.10,579.40 L159.53,575.27 L159.17,574.82 L160.10,579.40 Z M259.23,331.49 L253.69,338.29 L248.15,347.76 L259.23,331.49 Z M194.19,379.08 L188.94,399.72 L194.31,379.25 L194.19,379.08 Z M195.34,380.78 L195.13,380.46 L202.12,420.36 L195.34,380.78 Z M197.06,353.10 L196.75,358.07 L203.46,329.30 L229.44,424.00 L209.28,350.43 L203.21,328.33 L197.06,353.10 Z M173.37,445.37 L170.89,452.86 L185.31,422.54 L173.37,445.37 Z M146.63,326.63 L146.63,326.40 L137.73,325.91 L137.73,325.91 L146.63,326.63 Z M318.64,617.52 L307.08,703.48 L316.06,641.56 L318.64,617.52 Z M338.79,647.39 L320.07,648.60 L329.52,649.33 L338.79,647.39 Z M352.08,637.66 L349.58,640.10 L351.78,639.13 L352.08,637.66 Z M360.37,629.18 L356.65,631.60 L355.98,614.36 L356.51,631.88 L360.37,629.18 Z M366.30,624.81 L359.32,623.35 L365.63,626.02 L366.30,624.81 Z M370.22,614.02 L368.49,620.89 L369.83,618.49 L370.22,614.02 Z M345.86,697.41 L331.91,698.86 L353.40,700.08 L345.86,697.41 Z M371.89,607.42 L372.83,605.04 L372.41,605.38 L371.89,607.42 Z M395.80,518.45 L393.61,536.91 L394.06,539.71 L395.80,518.45 Z M365.34,293.61 L332.77,272.73 L365.82,294.09 L361.61,261.56 L365.34,293.61 Z M388.07,280.50 L387.40,276.37 L387.90,280.85 L399.62,263.01 L388.07,280.50 Z M288.01,439.54 L286.83,439.54 L286.42,442.19 L288.01,439.54 Z M304.02,398.99 L295.14,406.76 L289.51,412.59 L304.02,398.99 Z M305.53,417.92 L306.70,432.74 L306.99,424.97 L308.32,425.21 L305.53,417.92 Z M332.77,393.65 L337.17,388.65 L337.16,388.65 L319.59,406.52 L332.77,393.65 Z M373.27,463.40 L373.28,463.40 L366.69,430.34 L366.20,432.26 L373.27,463.40 Z M380.91,482.02 L380.62,472.56 L380.62,482.03 L380.91,482.02 Z M294.95,456.29 L292.76,445.37 L296.10,464.79 L294.95,456.29 Z M339.17,490.53 L336.21,494.17 L350.63,487.13 L339.17,490.53 Z M300.49,494.17 L300.76,491.88 L300.20,490.77 L300.49,494.17 Z M308.61,461.15 L306.51,457.26 L306.59,456.17 L306.32,459.21 L308.61,461.15 Z M313.67,452.65 L325.42,445.61 L326.56,444.88 L313.67,452.65 Z M371.55,333.43 L367.92,333.19 L373.00,335.85 L371.55,333.43 Z M376.80,342.17 L375.77,340.46 L376.81,343.42 L376.80,342.17 Z M336.60,386.57 L336.60,386.57 L339.36,367.42 L336.60,386.57 Z M367.66,426.49 L369.20,424.37 L368.11,424.73 L367.66,426.49 Z M380.81,420.60 L371.20,423.72 L376.13,424.49 L380.81,420.60 Z M388.13,282.82 L388.55,286.57 L390.55,288.02 L388.13,282.82 Z M426.65,598.34 L427.07,598.19 L425.60,593.48 L426.65,598.34 Z M428.09,604.65 L429.54,606.11 L428.04,601.29 L428.09,604.65 Z M431.24,607.81 L431.55,605.60 L430.44,607.01 L431.24,607.81 Z M444.40,566.06 L444.32,563.13 L443.60,567.09 L444.40,566.06 Z M479.18,564.83 L470.97,561.43 L466.00,559.73 L479.18,564.83 Z M494.76,624.55 L494.76,624.55 L488.16,586.20 L494.76,624.55 Z M520.44,571.39 L516.33,571.14 L520.49,572.15 L521.20,549.29 L520.53,561.43 L520.44,571.39 Z M527.22,537.88 L524.07,542.25 L521.20,549.29 L527.22,537.88 Z M441.87,638.63 L446.14,633.55 L443.17,635.25 L441.87,638.63 Z M437.83,654.19 L441.07,640.71 L439.16,645.69 L437.83,654.19 Z M514.80,510.44 L512.70,521.37 L515.40,510.76 L507.07,505.34 L514.80,510.44 Z M540.97,569.93 L541.07,560.46 L540.11,593.24 L540.97,569.93 Z M548.04,566.05 L545.75,559.73 L548.33,561.92 L544.22,556.09 L548.04,566.05 Z M547.75,570.90 L547.27,580.37 L548.04,566.05 L547.75,570.90 Z M559.58,589.92 L559.58,589.90 L550.71,582.07 L547.27,580.37 L559.58,589.92 Z M545.27,539.58 L544.44,538.53 L544.22,556.09 L545.27,539.58 Z M546.70,328.82 L547.79,313.62 L547.18,318.13 L546.70,328.82 Z M539.10,339.49 L543.74,336.59 L540.30,336.83 L539.10,339.49 Z M526.84,370.82 L526.31,376.96 L527.50,370.03 L525.50,368.15 L525.62,367.28 L524.07,368.35 L526.84,370.82 Z M527.12,388.06 L525.63,384.98 L525.40,387.58 L527.12,388.06 Z M574.24,484.60 L565.52,477.66 L574.02,485.43 L574.24,484.60 Z M588.15,500.49 L586.91,504.61 L582.23,525.50 L588.15,500.49 Z M595.03,484.95 L592.67,491.53 L593.50,490.53 L595.03,484.95 Z M598.47,451.92 L602.58,456.44 L603.43,455.57 L598.47,451.92 Z M642.02,583.77 L647.94,582.56 L640.68,582.56 L667.42,520.40 L696.57,451.90 L696.55,451.92 L665.89,523.80 L640.62,582.56 L642.02,583.77 Z M716.60,444.40 L715.44,444.53 L718.90,455.32 L716.60,444.40 Z M712.88,495.87 L716.41,490.77 L713.93,492.47 L714.92,486.37 L713.83,488.59 L712.88,495.87 Z M712.88,495.87 L712.88,495.87 L712.88,495.87 L712.88,495.87 Z M709.73,519.91 L709.54,532.54 L712.88,495.87 L709.73,519.91 Z M733.60,503.40 L727.40,498.06 L719.95,499.27 L725.68,498.54 L733.60,503.40 Z M752.70,452.65 L747.17,447.55 L752.52,454.35 L756.14,447.80 L752.70,452.65 Z M759.46,459.40 L759.29,456.29 L756.14,447.80 L759.46,459.40 Z M776.77,533.99 L777.73,522.34 L775.72,542.01 L776.77,533.99 Z M747.45,745.97 L761.09,746.52 L741.25,743.72 L747.45,745.97 Z M803.61,815.17 L769.51,801.33 L810.02,820.12 L803.61,815.17 Z M526.07,344.84 L519.10,331.49 L523.69,343.39 L526.07,344.84 Z M530.85,433.95 L531.80,424.73 L528.17,441.48 L525.50,450.95 L530.85,433.95 Z M524.50,470.43 L525.57,467.58 L524.74,467.22 L525.50,450.95 L524.50,470.43 Z M518.43,222.47 L506.11,212.51 L511.46,216.88 L518.43,222.47 Z M527.70,228.29 L533.52,231.45 L532.66,257.19 L533.59,230.55 L527.70,228.29 Z M521.89,290.81 L521.87,290.94 L520.72,290.45 L523.02,299.92 L521.89,290.81 Z M518.72,302.84 L516.52,330.52 L516.93,330.67 L520.72,290.45 L518.72,302.84 Z M481.76,371.07 L469.63,376.65 L488.92,367.91 L481.76,371.07 Z M504.99,439.30 L501.24,413.80 L504.99,439.30 L504.99,439.30 Z M526.09,467.81 L526.26,469.89 L528.65,468.92 L526.09,467.81 Z M496.56,463.58 L499.34,448.82 L498.76,449.74 L496.56,463.58 Z M498.09,129.71 L496.33,128.45 L502.29,140.88 L498.09,129.71 Z M724.15,665.84 L724.63,672.15 L724.82,660.01 L722.53,668.03 L724.15,665.84 Z M735.61,640.35 L732.27,650.30 L736.47,638.16 L736.09,627.96 L735.61,640.35 Z M740.96,633.06 L753.59,639.25 L753.62,638.25 L740.96,633.06 Z M730.74,739.90 L733.47,740.89 L728.59,737.48 L730.74,739.90 Z M551.76,567.50 L549.38,557.79 L553.77,578.67 L551.76,567.50 Z M556.16,572.60 L560.65,562.65 L568.76,548.81 L565.13,552.45 L556.16,572.60 Z M559.21,599.31 L577.17,622.86 L567.33,607.81 L559.21,599.31 Z M630.52,598.95 L629.22,598.58 L627.82,599.58 L630.52,598.95 Z M639.15,573.09 L633.71,572.84 L633.51,573.95 L639.15,573.09 Z M653.57,587.41 L654.05,590.44 L654.62,580.37 L653.57,587.41 Z M653.77,595.30 L652.71,597.85 L646.98,611.45 L653.57,598.79 L653.77,595.30 Z M641.82,604.65 L651.57,619.22 L646.98,611.45 L641.82,604.65 Z M699.41,552.20 L699.42,551.94 L690.44,560.22 L699.41,552.20 Z M757.11,577.38 L751.85,577.46 L743.27,577.85 L757.11,577.38 Z M666.08,664.14 L674.10,651.27 L665.28,663.28 L666.08,664.14 Z M654.05,645.69 L659.78,657.34 L662.32,660.08 L654.05,645.69 Z M737.90,612.91 L737.71,601.50 L736.95,594.70 L737.90,612.91 Z M599.04,490.77 L597.32,489.32 L603.43,497.81 L599.04,490.77 Z M604.80,505.98 L604.39,505.58 L598.85,508.50 L604.80,505.98 Z M609.26,510.20 L607.32,508.36 L610.67,514.20 L609.26,510.20 Z M619.29,520.15 L612.60,517.57 L614.22,520.40 L619.29,520.15 Z M588.15,558.03 L590.35,595.18 L590.06,579.64 L588.15,558.03 Z M599.52,567.50 L598.18,594.45 L598.66,602.71 L599.52,567.50 Z M608.97,546.13 L608.58,545.46 L607.54,565.07 L608.97,546.13 Z M631.03,500.24 L634.47,492.23 L634.16,489.97 L631.03,500.24 Z M675.16,518.45 L673.15,514.81 L675.78,522.26 L675.16,518.45 Z M678.56,539.29 L676.29,525.39 L675.82,527.92 L678.56,539.29 Z M792.34,469.65 L793.33,481.33 L794.06,479.60 L792.34,469.65 Z M794.44,648.12 L794.54,651.52 L794.63,612.42 L794.44,648.12 Z M803.51,644.72 L816.79,632.34 L794.54,651.52 L803.51,644.72 Z M817.30,597.28 L817.36,631.81 L817.36,631.80 L818.22,616.06 L817.30,597.28 Z M849.26,578.91 L851.46,588.63 L856.14,605.14 L846.49,566.53 L849.26,578.91 Z M856.59,607.06 L875.69,575.04 L856.14,605.14 L856.59,607.06 Z M849.91,557.93 L844.20,569.93 L846.49,566.53 L849.91,557.93 Z M915.72,646.91 L932.06,659.29 L923.28,650.54 L915.72,646.91 Z M888.61,782.63 L896.83,789.31 L896.06,788.46 L886.84,780.85 L888.61,782.63 Z M804.28,766.12 L812.39,773.16 L792.63,752.28 L804.28,766.12 Z M852.51,652.97 L855.94,646.90 L853.46,651.27 L852.51,652.97 Z M860.95,645.42 L865.02,646.42 L861.39,644.72 L860.95,645.42 Z M868.84,666.33 L873.80,683.57 L874.06,683.46 L868.84,666.33 Z M875.04,686.65 L875.24,694.98 L876.10,690.12 L875.04,686.65 Z M886.98,652.73 L888.89,656.13 L882.21,642.05 L886.98,652.73 Z M832.45,574.30 L837.80,565.80 L826.91,578.19 L832.45,574.30 Z M839.23,557.06 L842.19,552.20 L838.47,556.82 L837.80,565.80 L839.23,557.06 Z M788.14,547.59 L790.81,546.86 L785.75,546.62 L788.14,547.59 Z M812.75,574.21 L812.76,574.21 L801.79,526.95 L799.98,521.61 L812.75,574.21 Z M813.19,512.33 L809.72,515.30 L801.79,526.95 L813.19,512.33 Z M822.42,500.49 L822.71,495.63 L821.02,502.28 L822.42,500.49 Z M825.46,505.36 L825.48,503.89 L822.42,500.49 L825.46,505.36 Z M831.30,528.89 L829.49,525.25 L825.29,517.00 L831.30,528.89 Z M833.21,539.09 L835.51,540.31 L833.33,537.84 L833.21,539.09 Z M836.23,544.32 L837.51,539.34 L836.23,544.32 L836.23,544.32 Z M866.64,544.19 L860.82,507.77 L863.30,524.28 L866.64,544.19 Z M877.43,567.60 L877.43,567.60 L866.64,544.19 L877.43,567.60 Z M802.37,498.30 L801.22,493.93 L802.34,503.88 L802.37,498.30 Z M802.27,517.24 L802.31,508.63 L801.51,510.68 L802.27,517.24 Z M806.86,441.00 L815.36,452.17 L812.49,447.31 L806.86,441.00 Z M863.59,419.04 L862.06,418.17 L861.77,419.44 L863.59,419.04 Z M861.58,424.24 L861.23,421.85 L860.53,425.01 L861.58,424.24 Z M859.48,433.23 L859.53,429.47 L858.83,432.59 L859.48,433.23 Z M858.91,470.86 L857.28,478.63 L857.89,480.57 L860.72,470.13 L858.91,473.78 L858.91,470.86 Z M898.60,424.29 L897.33,485.85 L899.02,437.84 L898.60,424.29 Z M914.58,413.56 L907.90,419.87 L915.54,413.07 L907.61,402.63 L914.58,413.56 Z M906.16,429.49 L908.38,425.94 L905.89,428.13 L906.16,429.49 Z M907.33,431.04 L906.34,430.42 L907.50,436.30 L907.33,431.04 Z M849.32,489.97 L850.92,487.93 L849.55,488.34 L849.32,489.97 Z M856.71,484.95 L857.44,482.24 L855.82,485.40 L856.71,484.95 Z M892.33,523.31 L896.82,500.49 L897.08,492.99 L892.33,523.31 Z M880.39,396.32 L887.84,419.87 L878.68,389.52 L880.39,396.32 Z M544.22,369.12 L534.29,376.41 L540.68,373.25 L544.22,369.12 Z M567.75,409.68 L565.53,412.17 L566.76,412.83 L567.75,409.68 Z M567.14,431.28 L567.90,426.67 L566.76,412.83 L567.14,431.28 Z M564.08,310.85 L566.38,302.11 L566.78,295.85 L560.66,320.75 L564.08,310.85 Z M585.38,324.93 L583.20,338.54 L584.70,339.00 L585.38,324.93 Z M951.35,902.83 L955.27,914.00 L960.62,938.52 L959.85,942.65 L949.73,956.00 L946.67,954.79 L945.72,949.45 L948.30,942.40 L950.21,926.62 L948.78,914.72 L944.38,902.83 L947.06,899.18 L951.35,902.83 Z" /></g></svg>