<svg xmlns="http://www.w3.org/2000/svg" viewBox="0 0 1000 1000" width="1000" height="1000"><g fill="#cccccc" stroke="#222" stroke-width="2"><path d="M384.51,821.26 L371.55,814.93 L357.96,813.25 L354.49,813.89 L343.59,804.36 L339.87,805.16 L331.02,802.75 L323.33,804.04 L319.48,799.23 L311.53,800.99 L307.42,795.38 L311.01,792.82 L310.50,790.02 L299.86,786.49 L297.16,783.85 L287.29,782.16 L285.23,780.24 L287.67,778.96 L291.52,779.52 L294.98,777.60 L301.39,777.28 L305.37,772.95 L309.09,771.67 L310.63,767.26 L316.66,761.98 L304.47,754.36 L312.17,749.48 L316.40,748.52 L326.02,733.29 L334.61,729.85 L341.54,728.89 L341.90,729.17 L340.64,726.97 L338.59,724.32 L331.28,721.20 L326.92,715.91 L311.91,714.31 L302.16,707.18 L291.78,698.52 L288.31,692.04 L279.98,691.31 L271.64,687.31 L265.74,679.46 L267.54,676.17 L266.25,670.08 L261.12,668.00 L260.35,665.36 L254.84,664.40 L246.12,664.96 L241.50,662.79 L236.63,663.11 L230.73,658.95 L232.65,656.30 L231.24,652.62 L240.60,645.49 L242.27,638.92 L237.14,636.84 L237.52,629.79 L225.47,628.58 L209.82,635.39 L199.69,633.39 L195.58,629.23 L200.20,619.05 L204.69,616.57 L206.87,608.88 L203.28,600.70 L212.64,587.89 L207.25,583.48 L200.97,583.32 L203.54,581.00 L199.69,576.19 L208.28,566.42 L203.41,563.69 L203.02,561.93 L206.10,556.64 L204.95,552.23 L209.95,543.90 L213.41,544.54 L200.20,542.06 L192.12,544.38 L178.91,545.59 L176.22,546.47 L171.34,553.20 L164.67,555.04 L159.93,551.35 L144.28,549.67 L136.71,542.86 L137.35,535.73 L129.15,531.32 L120.68,528.84 L118.37,529.24 L107.86,531.24 L100.80,525.88 L94.90,527.72 L88.49,527.08 L78.49,520.75 L74.25,520.11 L67.33,521.39 L61.56,520.27 L60.27,518.19 L51.04,513.94 L50.40,510.41 L47.58,508.89 L48.09,504.73 L39.62,500.88 L39.62,488.30 L32.95,477.33 L35.78,472.36 L33.21,469.56 L37.96,464.11 L36.16,459.94 L33.08,459.62 L31.67,455.62 L25.64,452.17 L27.57,441.92 L24.10,440.96 L21.67,438.31 L19.23,429.90 L26.41,426.37 L29.49,419.16 L34.11,420.53 L38.85,416.12 L52.96,417.16 L54.37,420.37 L51.94,421.41 L57.96,429.26 L62.32,430.46 L64.76,428.94 L67.33,430.06 L70.66,429.18 L76.43,431.82 L80.67,428.94 L77.84,426.05 L83.74,416.04 L85.80,414.12 L89.77,413.88 L88.75,409.07 L91.57,406.99 L98.36,408.99 L102.60,405.14 L99.78,400.98 L101.83,396.97 L99.01,396.49 L100.03,389.36 L102.98,386.96 L107.98,385.60 L105.55,380.71 L94.77,376.70 L91.18,369.41 L74.12,361.88 L73.87,359.24 L77.97,356.99 L91.70,357.56 L95.54,352.91 L98.36,351.55 L99.39,347.30 L102.73,345.30 L109.52,346.66 L111.96,345.54 L111.19,343.62 L103.88,340.25 L106.96,334.08 L97.72,327.27 L80.15,324.87 L78.49,321.82 L73.10,318.46 L80.67,313.81 L79.51,307.16 L84.26,303.24 L84.13,298.51 L93.49,298.35 L98.36,301.07 L99.78,305.56 L109.40,311.17 L120.68,310.93 L123.37,312.13 L134.79,311.33 L139.28,316.22 L148.77,321.18 L155.18,321.26 L159.42,322.95 L169.80,322.71 L187.63,317.74 L192.51,319.10 L197.64,324.71 L204.56,326.15 L206.23,329.52 L205.07,331.44 L208.15,336.33 L219.95,338.89 L224.06,342.09 L220.59,344.90 L219.95,349.86 L217.52,350.83 L222.52,353.63 L225.21,367.97 L225.47,363.88 L230.98,364.37 L234.70,363.08 L239.45,356.99 L247.27,354.67 L252.79,350.99 L274.59,346.98 L276.51,342.49 L275.74,336.97 L273.82,334.40 L269.46,333.04 L271.25,331.60 L270.10,328.63 L277.80,326.95 L289.85,327.67 L288.83,319.66 L291.13,317.02 L290.11,314.37 L292.55,313.97 L287.67,311.01 L279.46,309.17 L275.87,302.60 L271.13,298.11 L265.35,296.99 L265.87,295.39 L274.97,291.86 L281.90,292.90 L286.77,291.86 L305.11,295.07 L307.94,294.51 L326.53,298.75 L316.27,295.95 L319.74,294.67 L321.40,285.61 L317.56,280.33 L306.40,271.99 L307.29,267.91 L309.73,266.95 L309.73,262.86 L312.55,261.02 L317.68,260.30 L328.33,261.98 L331.28,259.66 L331.15,256.21 L336.54,254.61 L342.44,246.12 L341.15,240.75 L336.28,234.26 L328.59,231.05 L324.61,226.49 L342.18,222.00 L348.98,217.43 L362.32,214.23 L364.11,212.39 L363.47,209.34 L355.52,205.66 L355.90,201.17 L353.85,198.45 L357.57,190.36 L350.65,185.15 L367.45,166.16 L376.42,149.18 L373.99,140.52 L367.32,132.91 L368.60,127.15 L367.06,123.78 L358.98,117.61 L363.21,115.29 L369.11,114.49 L371.55,109.68 L383.74,106.48 L384.63,104.31 L379.37,102.07 L375.53,93.66 L383.74,88.93 L391.56,87.01 L392.97,80.44 L396.30,77.15 L405.54,80.36 L408.36,82.60 L417.72,79.80 L415.54,76.43 L410.16,74.19 L414.00,71.87 L404.38,63.85 L402.46,57.21 L392.46,52.72 L391.94,46.31 L380.14,41.50 L386.56,39.98 L385.79,37.10 L390.66,28.12 L400.41,23.40 L403.36,19.23 L418.75,24.52 L429.91,25.32 L436.06,30.77 L449.92,32.13 L461.20,35.17 L476.85,35.49 L482.11,40.06 L484.29,45.19 L492.37,48.31 L508.53,47.19 L523.79,53.04 L526.74,58.65 L521.61,64.50 L528.92,56.88 L534.82,54.40 L548.93,58.81 L560.09,58.33 L573.56,68.10 L578.43,71.55 L579.07,75.31 L574.84,82.20 L579.07,83.56 L593.05,83.48 L611.78,85.41 L613.96,90.45 L616.14,90.29 L618.44,81.32 L625.88,78.60 L623.19,75.63 L628.06,72.91 L622.81,68.90 L629.09,67.06 L629.99,65.30 L635.50,64.34 L672.57,65.70 L677.06,68.90 L681.29,68.26 L705.02,74.99 L717.33,72.91 L723.23,74.03 L730.28,77.87 L738.75,86.45 L753.50,88.13 L767.86,91.41 L771.45,93.50 L771.40,93.51 L774.79,93.90 L773.64,90.61 L780.05,89.57 L780.56,94.38 L785.82,91.57 L784.15,90.13 L785.69,87.65 L789.41,87.41 L788.13,89.25 L791.85,89.25 L790.82,91.73 L803.39,90.21 L807.62,87.01 L820.32,84.28 L824.94,81.08 L836.61,82.76 L846.48,77.55 L852.64,70.58 L856.75,69.62 L862.65,70.26 L872.26,68.26 L894.71,70.98 L891.25,82.20 L895.48,83.32 L905.87,91.98 L917.03,98.14 L914.46,103.51 L914.08,107.92 L920.62,116.81 L924.08,117.77 L929.59,119.37 L935.62,125.54 L935.49,129.47 L945.63,127.95 L954.22,130.27 L960.38,134.92 L963.71,135.72 L971.41,144.61 L969.85,149.09 L971.92,146.93 L976.02,151.58 L976.28,157.11 L980.77,159.91 L979.49,163.84 L975.38,165.60 L971.79,171.13 L977.56,175.05 L974.23,178.50 L975.00,182.50 L980.26,186.51 L968.84,189.80 L961.02,194.12 L957.43,194.44 L945.11,199.89 L935.88,207.02 L931.13,207.34 L928.57,214.63 L930.24,217.43 L926.26,220.00 L924.59,224.49 L926.39,226.49 L916.51,227.77 L924.72,234.82 L918.69,241.31 L921.90,248.12 L930.36,249.64 L938.57,244.35 L945.50,242.35 L940.50,246.28 L935.88,253.25 L930.88,255.89 L924.72,255.89 L900.35,251.64 L895.74,254.21 L882.52,254.85 L877.65,257.49 L879.70,260.62 L877.39,262.22 L879.83,265.98 L878.68,268.47 L875.21,269.83 L871.62,276.64 L872.26,280.97 L875.86,284.57 L874.32,290.26 L871.11,292.66 L872.26,298.91 L869.44,300.83 L860.21,300.99 L849.43,304.92 L851.87,311.33 L849.95,319.34 L851.10,321.82 L844.18,323.35 L837.51,322.55 L831.99,324.39 L827.12,331.28 L828.02,334.64 L836.10,340.01 L843.79,343.06 L838.66,343.46 L816.99,349.86 L803.01,350.91 L819.29,359.72 L806.47,366.29 L794.93,363.40 L791.72,366.05 L782.61,366.37 L771.71,370.93 L775.69,374.22 L773.89,375.98 L775.05,382.31 L772.10,386.40 L776.84,388.08 L778.89,393.61 L775.94,393.45 L771.58,395.77 L770.43,404.10 L767.99,405.30 L765.87,405.08 L768.63,409.71 L782.23,417.56 L790.31,425.41 L797.36,428.22 L802.88,426.37 L803.26,429.34 L808.26,432.94 L804.80,435.59 L805.96,442.56 L815.45,449.61 L823.40,447.20 L845.20,451.53 L845.84,457.46 L841.48,457.54 L831.22,461.22 L821.73,468.35 L823.91,474.28 L822.37,476.93 L814.93,478.13 L814.29,479.81 L809.55,481.73 L810.32,483.98 L806.98,485.74 L808.91,488.46 L807.49,491.43 L809.16,494.95 L816.09,495.75 L818.52,500.00 L821.99,500.24 L813.39,506.73 L814.93,513.38 L802.24,520.51 L806.73,518.67 L812.75,519.95 L815.19,523.39 L820.06,523.47 L822.24,531.65 L831.09,536.29 L831.99,538.13 L838.15,540.14 L840.07,542.62 L838.79,545.99 L842.25,547.99 L840.84,554.32 L842.89,555.44 L847.51,569.70 L861.36,571.86 L860.59,584.20 L868.54,586.52 L869.57,590.69 L872.65,590.85 L875.34,588.69 L886.12,593.09 L895.48,603.99 L901.89,604.63 L906.64,607.11 L920.23,608.07 L925.62,612.32 L917.15,620.25 L920.62,623.46 L919.21,640.68 L922.67,643.65 L922.03,651.58 L911.90,655.18 L914.33,660.95 L911.25,664.64 L907.41,666.08 L900.10,666.16 L895.61,668.08 L886.12,668.08 L879.96,671.93 L877.78,677.69 L883.17,682.42 L891.12,699.97 L890.09,710.54 L879.83,713.83 L875.73,717.11 L872.91,716.71 L868.03,712.30 L850.08,712.95 L846.23,715.91 L847.90,724.56 L845.33,734.90 L846.48,736.34 L848.02,740.91 L851.49,744.03 L845.72,754.85 L847.64,759.17 L854.56,762.14 L874.70,759.17 L887.27,764.30 L886.12,766.70 L878.04,773.67 L871.49,774.87 L865.72,778.24 L868.67,783.05 L875.09,786.57 L874.44,789.45 L865.34,793.78 L859.57,794.74 L853.41,800.19 L854.69,804.60 L846.74,805.80 L841.74,815.57 L833.79,816.93 L825.32,820.94 L838.66,827.67 L837.64,834.00 L830.71,835.68 L827.63,839.37 L831.09,841.21 L833.15,850.90 L839.17,857.47 L841.74,863.72 L851.10,867.73 L854.56,874.70 L849.82,883.99 L854.56,887.28 L861.36,888.80 L867.52,894.97 L872.26,896.49 L878.68,901.86 L888.42,912.67 L900.22,913.63 L908.69,919.72 L904.97,921.96 L902.40,926.77 L893.30,932.14 L889.96,940.39 L886.24,943.04 L881.88,950.57 L877.39,951.61 L871.24,949.68 L861.49,954.09 L860.59,956.81 L855.85,956.41 L854.82,957.94 L850.85,958.66 L849.54,957.02 L846.10,956.09 L842.51,962.50 L836.35,964.75 L820.71,959.62 L818.91,962.90 L814.16,964.67 L807.75,965.87 L801.08,963.95 L797.11,970.03 L783.00,971.64 L778.64,970.92 L764.02,974.20 L756.06,980.77 L750.93,976.04 L749.39,972.20 L744.78,971.24 L741.44,968.59 L734.13,969.31 L729.64,967.95 L722.08,970.51 L711.94,969.31 L708.87,963.06 L702.32,960.66 L688.86,959.14 L682.70,960.74 L680.91,959.78 L677.57,962.98 L674.11,963.70 L654.36,964.11 L653.84,966.59 L647.17,968.83 L645.12,972.44 L649.61,976.04 L629.99,973.00 L628.58,970.35 L623.58,968.43 L616.01,968.83 L605.62,971.96 L598.18,970.92 L592.41,965.31 L591.25,959.86 L594.72,954.01 L592.67,951.05 L581.38,946.32 L560.47,944.24 L556.50,942.31 L555.47,939.99 L562.01,935.26 L565.22,932.46 L564.58,930.30 L548.29,922.61 L537.77,916.36 L531.62,910.43 L530.59,903.46 L525.59,900.73 L528.28,897.85 L531.23,898.33 L531.74,896.17 L533.67,895.45 L535.46,896.41 L529.69,885.91 L539.57,885.83 L511.74,884.55 L501.22,874.62 L511.48,869.73 L517.76,864.20 L518.40,860.28 L514.43,851.86 L498.78,850.66 L491.98,848.82 L479.16,849.54 L471.85,847.22 L468.64,844.25 L462.74,842.97 L461.97,840.01 L459.92,839.45 L461.84,838.49 L459.54,837.20 L450.30,836.80 L449.66,834.80 L444.14,834.24 L441.96,829.27 L434.27,829.51 L425.16,827.91 L412.72,833.52 L413.49,828.39 L406.31,825.03 L405.28,816.21 L405.54,818.86 L384.51,821.26 Z M616.43,954.16 L611.26,947.92 L615.88,953.69 L594.72,954.01 L616.43,954.16 Z M443.25,214.31 L448.38,215.91 L442.23,212.98 L443.25,214.31 Z M480.57,236.11 L486.34,234.90 L478.57,235.32 L480.57,236.11 Z M563.56,369.73 L564.96,369.41 L569.07,365.73 L563.56,369.73 Z M557.43,369.41 L560.34,370.45 L561.79,370.13 L557.43,369.41 Z M552.14,368.53 L548.03,370.13 L554.08,368.85 L552.14,368.53 Z M501.71,397.68 L504.94,400.34 L501.71,397.68 L501.71,397.68 Z M516.48,436.71 L516.93,436.49 L515.84,436.44 L516.48,436.71 Z M553.42,446.16 L544.44,443.20 L554.96,442.56 L542.26,443.04 L553.42,446.16 Z M569.19,455.46 L570.72,457.06 L569.71,453.61 L569.19,455.46 Z M578.17,464.91 L576.25,461.79 L574.23,460.75 L578.17,464.91 Z M568.70,470.12 L570.09,469.32 L568.80,469.86 L568.70,470.12 Z M579.84,483.42 L588.05,482.45 L592.59,481.42 L579.84,483.42 Z M582.53,526.52 L585.44,525.56 L583.56,525.72 L582.53,526.52 Z M534.95,571.62 L536.02,572.26 L536.75,566.74 L534.95,571.62 Z M543.80,576.91 L545.99,577.04 L538.26,573.60 L543.80,576.91 Z M542.39,602.23 L552.65,599.82 L540.93,601.78 L542.39,602.23 Z M549.62,641.15 L556.37,640.92 L550.98,641.00 L549.62,641.15 Z M541.62,642.04 L541.03,642.50 L542.88,641.90 L541.62,642.04 Z M538.16,644.69 L538.58,645.49 L538.93,644.10 L538.16,644.69 Z M557.91,703.49 L559.16,701.30 L558.16,702.05 L557.91,703.49 Z M531.86,734.67 L530.46,733.13 L524.95,731.05 L531.86,734.67 Z M581.12,754.78 L578.56,753.88 L550.98,748.68 L581.12,754.78 Z M589.07,759.17 L587.02,756.85 L585.28,756.24 L589.07,759.17 Z M541.23,766.22 L542.86,768.29 L542.00,763.82 L541.23,766.22 Z M543.41,811.33 L542.07,812.28 L555.21,809.56 L543.41,811.33 Z M537.64,815.41 L532.64,822.46 L532.97,823.05 L539.87,813.84 L537.64,815.41 Z M536.23,828.95 L538.83,830.45 L534.73,826.23 L536.23,828.95 Z M495.83,739.62 L507.89,736.02 L520.59,731.05 L500.19,737.86 L495.83,739.62 Z M452.22,758.29 L454.40,757.65 L445.56,759.49 L452.22,758.29 Z M431.83,785.45 L430.81,783.77 L431.70,787.61 L431.83,785.45 Z M421.65,792.33 L424.26,791.54 L431.70,787.61 L421.65,792.33 Z M403.75,813.23 L416.06,807.96 L405.67,811.73 L403.75,813.23 Z M394.00,269.99 L395.66,270.42 L393.61,268.79 L395.54,263.66 L391.43,272.79 L394.00,269.99 Z M468.90,336.49 L461.97,330.64 L463.90,333.20 L468.90,336.49 Z M435.29,332.56 L438.28,332.80 L427.86,329.03 L435.29,332.56 Z M400.59,410.09 L411.57,400.42 L400.67,409.15 L400.59,410.09 Z M396.95,435.83 L395.28,431.98 L393.87,430.06 L396.95,435.83 Z M471.85,477.17 L468.26,475.65 L472.27,478.59 L471.85,477.17 Z M489.93,498.48 L481.51,490.85 L482.62,492.55 L489.93,498.48 Z M478.26,521.55 L488.65,512.82 L483.90,516.18 L478.26,521.55 Z M479.33,523.58 L479.29,522.99 L478.26,521.55 L479.33,523.58 Z M470.69,531.65 L474.95,529.65 L472.87,530.04 L470.69,531.65 Z M453.89,596.14 L454.64,595.49 L446.58,600.14 L453.89,596.14 Z M431.32,614.16 L439.27,608.88 L429.14,614.96 L431.32,614.16 Z M453.51,696.84 L453.51,691.79 L452.87,698.36 L453.51,696.84 Z M445.04,721.04 L445.09,720.64 L437.73,723.36 L445.04,721.04 Z M458.12,722.16 L460.16,721.82 L445.04,721.04 L458.12,722.16 Z M440.20,731.11 L436.96,727.29 L438.89,731.05 L440.20,731.11 Z M448.25,730.25 L442.42,731.22 L445.56,731.37 L448.25,730.25 Z M413.62,618.49 L400.79,612.16 L403.10,613.68 L413.62,618.49 Z M276.00,575.71 L278.44,574.11 L279.85,572.10 L276.00,575.71 Z M283.65,554.27 L287.54,553.36 L284.08,553.84 L283.65,554.27 Z M283.95,544.94 L290.49,537.09 L290.48,536.25 L283.95,544.94 Z M324.35,530.52 L341.92,544.62 L329.23,533.57 L324.35,530.52 Z M391.17,557.92 L397.46,560.47 L396.43,559.12 L391.17,557.92 Z M398.18,561.42 L397.32,562.88 L398.87,562.33 L398.18,561.42 Z M333.17,683.50 L328.71,685.63 L325.76,689.07 L333.17,683.50 Z M341.64,682.92 L336.92,681.70 L336.00,682.14 L341.64,682.92 Z M411.57,679.22 L413.23,678.42 L410.93,678.99 L411.57,679.22 Z M392.07,750.68 L380.66,745.63 L383.35,747.31 L392.07,750.68 Z M400.49,747.42 L399.64,748.36 L400.20,752.31 L400.49,747.42 Z M413.75,734.90 L410.28,741.87 L416.57,732.57 L413.75,734.90 Z M423.20,732.04 L421.06,731.85 L416.57,732.57 L423.20,732.04 Z M436.45,733.21 L428.23,732.49 L430.29,733.37 L436.45,733.21 Z M346.41,736.90 L347.05,733.21 L345.39,738.42 L346.41,736.90 Z M379.37,786.49 L369.76,782.57 L366.93,787.85 L370.40,783.37 L379.37,786.49 Z M401.18,759.24 L401.64,762.49 L402.59,761.25 L401.18,759.24 Z M407.21,701.09 L407.73,701.17 L407.82,698.11 L407.21,701.09 Z M405.84,692.27 L403.23,691.88 L401.56,692.76 L405.84,692.27 Z M407.96,693.22 L407.98,692.60 L407.48,692.52 L407.96,693.22 Z M315.89,624.66 L314.01,625.06 L316.73,624.90 L315.89,624.66 Z M350.13,613.52 L342.18,615.69 L359.75,611.92 L350.13,613.52 Z M341.92,627.94 L338.33,636.20 L338.78,636.62 L341.92,627.94 Z M252.02,587.00 L253.46,585.93 L250.01,587.58 L252.02,587.00 Z M238.81,590.77 L248.29,588.07 L243.42,588.61 L238.81,590.77 Z M322.04,590.95 L321.66,592.69 L323.11,593.00 L322.04,590.95 Z M316.79,594.46 L315.57,595.55 L321.66,592.69 L316.79,594.46 Z M384.12,569.70 L384.48,570.68 L387.20,566.50 L384.12,569.70 Z M393.74,575.39 L396.30,588.37 L395.66,580.44 L393.74,575.39 Z M314.06,596.89 L312.94,597.90 L314.58,599.99 L314.06,596.89 Z M197.96,459.23 L193.53,457.06 L179.94,452.89 L197.96,459.23 Z M219.72,403.05 L219.31,403.38 L218.16,408.83 L219.72,403.05 Z M228.29,399.14 L222.52,400.74 L221.42,401.64 L228.29,399.14 Z M307.81,397.93 L312.68,387.12 L308.96,395.29 L307.81,397.93 Z M341.15,429.34 L348.08,428.94 L349.23,427.98 L341.15,429.34 Z M372.64,437.84 L372.58,437.43 L366.04,434.15 L372.64,437.84 Z M286.65,461.38 L294.73,466.59 L302.16,469.64 L286.65,461.38 Z M335.13,505.13 L331.41,503.69 L335.22,505.78 L335.13,505.13 Z M403.51,512.99 L396.05,516.10 L402.85,513.62 L403.51,512.99 Z M252.14,511.62 L253.17,518.59 L254.59,519.31 L252.14,511.62 Z M389.51,555.92 L391.33,549.31 L390.02,549.43 L389.51,555.92 Z M145.44,442.88 L144.27,436.38 L143.64,436.95 L145.44,442.88 Z M372.83,438.93 L368.86,444.24 L372.96,439.75 L372.83,438.93 Z M324.10,444.32 L331.15,442.16 L331.38,441.68 L324.10,444.32 Z M144.70,404.19 L144.92,404.10 L144.91,403.73 L144.70,404.19 Z M463.73,721.22 L465.67,720.90 L465.80,720.34 L463.73,721.22 Z M479.93,717.03 L484.16,721.28 L479.82,716.45 L479.93,717.03 Z M479.52,714.85 L480.40,714.02 L479.41,714.31 L479.52,714.85 Z M497.68,714.51 L500.58,716.39 L499.29,714.79 L497.68,714.51 Z M500.32,719.43 L495.96,723.52 L489.29,730.97 L500.32,719.43 Z M525.20,771.99 L525.59,770.95 L516.48,774.39 L525.20,771.99 Z M488.39,816.13 L490.12,816.98 L491.38,816.37 L488.39,816.13 Z M495.58,816.69 L493.11,816.50 L498.14,817.98 L495.58,816.69 Z M497.86,818.40 L503.91,814.21 L498.14,817.98 L497.86,818.40 Z M525.08,825.28 L522.89,824.71 L523.66,825.75 L525.08,825.28 Z M526.87,825.75 L525.79,825.46 L525.59,826.95 L526.87,825.75 Z M476.46,779.04 L486.85,778.72 L483.26,778.08 L476.46,779.04 Z M465.56,746.03 L464.01,746.87 L467.65,746.55 L465.56,746.03 Z M524.82,755.12 L523.66,761.82 L525.20,756.13 L524.82,755.12 Z M525.99,769.88 L526.48,768.54 L523.66,761.82 L525.99,769.88 Z M512.76,740.91 L521.48,742.83 L505.71,739.30 L512.76,740.91 Z M467.33,721.03 L467.87,723.20 L467.74,720.96 L467.33,721.03 Z M474.54,727.05 L477.40,726.65 L477.40,726.65 L474.54,727.05 Z M497.76,593.81 L511.45,593.75 L509.43,593.17 L497.76,593.81 Z M489.93,607.75 L493.14,603.59 L492.75,601.75 L489.93,607.75 Z M489.02,577.14 L487.62,578.43 L486.21,585.16 L489.02,577.14 Z M526.87,474.04 L526.54,474.30 L528.24,474.48 L524.69,472.20 L526.87,474.04 Z M533.92,463.31 L541.49,466.35 L533.62,462.33 L533.92,463.31 Z M564.58,470.52 L566.50,471.40 L567.16,471.02 L564.58,470.52 Z M466.46,398.17 L477.06,399.40 L475.95,398.90 L466.46,398.17 Z M559.83,874.46 L560.47,871.89 L560.22,868.13 L559.83,874.46 Z M548.03,879.50 L551.88,876.86 L552.43,878.07 L552.52,875.66 L548.03,879.50 Z M559.24,897.30 L562.14,894.17 L563.33,894.32 L562.78,892.80 L559.07,897.20 L559.24,897.30 Z M513.92,182.99 L508.53,180.82 L505.32,180.50 L513.92,182.99 Z M676.42,323.81 L685.14,320.62 L677.83,322.79 L676.42,323.81 Z M744.65,309.65 L742.51,312.39 L743.75,311.65 L744.65,309.65 Z M665.90,377.34 L665.67,376.58 L663.31,379.33 L665.90,377.34 Z M731.13,437.23 L730.66,437.04 L730.27,437.28 L731.13,437.23 Z M723.49,449.85 L725.28,447.52 L715.72,456.24 L723.49,449.85 Z M711.76,461.43 L712.81,458.89 L711.30,460.26 L711.76,461.43 Z M714.77,466.99 L713.23,465.21 L715.79,471.80 L714.77,466.99 Z M716.82,502.40 L715.90,498.27 L715.15,498.56 L716.82,502.40 Z M686.81,494.47 L695.40,493.59 L684.89,494.12 L686.81,494.47 Z M678.93,494.35 L679.40,494.26 L678.21,492.63 L678.93,494.35 Z M658.08,500.82 L663.85,497.28 L658.33,500.00 L658.08,500.82 Z M660.00,508.89 L657.25,503.49 L656.79,504.97 L660.00,508.89 Z M652.82,516.26 L653.93,513.18 L653.20,513.70 L652.82,516.26 Z M735.29,623.06 L724.51,625.54 L718.74,627.46 L735.29,623.06 Z M736.57,621.53 L736.40,621.09 L735.29,623.06 L736.57,621.53 Z M695.42,688.52 L694.24,683.14 L694.50,688.43 L695.42,688.52 Z M705.27,687.71 L704.63,689.39 L704.89,691.31 L705.27,687.71 Z M747.21,716.15 L742.73,713.19 L749.65,719.67 L747.21,716.15 Z M718.48,741.47 L718.70,741.09 L717.83,741.63 L718.48,741.47 Z M714.12,742.59 L715.35,742.27 L706.69,741.79 L714.12,742.59 Z M699.63,776.80 L704.25,777.44 L697.45,775.27 L691.04,768.95 L700.14,778.72 L699.63,776.80 Z M740.07,791.05 L740.43,790.46 L739.78,790.90 L740.07,791.05 Z M744.65,796.83 L742.21,797.47 L744.39,793.30 L738.36,800.67 L744.65,796.83 Z M735.29,807.72 L737.89,809.68 L738.36,808.92 L734.17,806.67 L734.52,808.44 L735.29,807.72 Z M733.49,809.40 L734.15,808.78 L730.67,806.68 L733.49,809.40 Z M689.44,819.33 L687.19,818.94 L685.65,819.90 L689.44,819.33 Z M715.53,843.85 L715.40,843.66 L715.20,844.32 L715.53,843.85 Z M713.48,846.74 L713.85,846.22 L706.81,846.66 L713.48,846.74 Z M737.15,875.06 L741.70,869.73 L737.10,874.70 L737.15,875.06 Z M712.59,877.74 L713.88,877.30 L706.04,875.74 L712.59,877.74 Z M694.12,876.46 L701.55,876.54 L706.04,875.74 L694.12,876.46 Z M661.67,925.57 L665.64,919.32 L658.97,928.05 L661.67,925.57 Z M601.13,790.34 L601.40,790.54 L601.40,790.22 L601.13,790.34 Z M660.20,781.46 L661.15,782.26 L661.15,781.36 L660.20,781.46 Z M661.15,783.36 L657.18,786.81 L661.15,783.93 L661.15,783.36 Z M660.90,792.74 L662.18,796.42 L662.31,794.34 L660.90,792.74 Z M574.45,914.59 L576.26,915.62 L571.50,908.19 L574.45,914.59 Z M576.53,915.77 L577.66,914.43 L576.45,915.72 L576.53,915.77 Z M599.72,922.05 L599.33,921.32 L598.51,922.19 L599.72,922.05 Z M615.24,919.16 L616.21,914.54 L614.07,919.40 L615.24,919.16 Z M640.76,943.92 L633.12,957.00 L634.73,956.17 L640.76,943.92 Z M650.64,925.01 L650.08,925.59 L651.64,925.38 L650.64,925.01 Z M584.84,936.23 L585.67,936.59 L592.54,931.10 L584.84,936.23 Z M591.39,939.12 L591.13,938.15 L587.53,937.42 L591.39,939.12 Z M622.68,861.72 L622.91,862.36 L625.50,858.99 L622.68,861.72 Z M629.60,880.63 L622.68,885.83 L622.58,886.50 L629.60,880.63 Z M601.65,881.21 L618.70,883.19 L607.93,881.43 L601.65,881.21 Z M542.01,832.28 L542.77,832.72 L543.09,832.46 L542.01,832.28 Z M586.69,834.01 L589.07,833.60 L590.42,832.71 L586.69,834.01 Z M604.46,827.19 L607.54,825.67 L610.36,822.86 L604.46,827.19 Z M567.53,735.54 L564.45,736.42 L570.17,735.96 L567.53,735.54 Z M577.68,734.32 L573.70,735.68 L576.50,735.46 L577.68,734.32 Z M612.03,714.87 L612.20,715.34 L621.78,711.02 L612.03,714.87 Z M637.94,725.68 L645.89,728.57 L637.93,725.68 L637.94,725.68 Z M670.13,745.31 L675.52,748.04 L675.91,747.92 L670.13,745.31 Z M617.93,680.98 L619.09,684.74 L617.03,677.37 L617.93,680.98 Z M560.64,698.70 L563.94,692.92 L560.34,698.20 L560.64,698.70 Z M629.73,626.26 L620.11,626.90 L613.57,628.50 L629.73,626.26 Z M667.34,337.79 L662.63,338.99 L664.62,339.05 L667.34,337.79 Z M665.13,334.56 L668.69,337.16 L669.11,336.97 L665.13,334.56 Z M769.10,93.94 L760.30,95.58 L767.74,94.94 L769.10,93.94 Z M726.64,173.92 L724.00,177.22 L726.56,175.05 L726.64,173.92 Z M658.46,133.80 L656.15,133.88 L673.85,135.00 L658.46,133.80 Z M589.20,198.37 L593.18,187.55 L585.71,203.35 L589.20,198.37 Z M816.27,187.79 L811.33,186.82 L814.04,187.63 L816.27,187.79 Z M724.77,276.72 L728.23,274.96 L728.76,273.39 L724.77,276.72 Z M770.61,260.32 L765.30,260.70 L751.06,263.34 L762.73,261.74 L770.61,260.32 Z M778.83,259.73 L788.00,259.58 L789.55,258.96 L778.83,259.73 Z M792.71,257.70 L794.03,257.17 L795.82,252.12 L792.71,257.70 Z M827.37,150.70 L819.04,154.79 L831.61,148.78 L827.37,150.70 Z M737.34,876.22 L743.49,875.66 L737.26,875.73 L737.34,876.22 Z M754.56,880.27 L754.27,879.82 L744.78,878.78 L754.56,880.27 Z M782.61,912.67 L784.73,913.00 L777.23,908.91 L782.61,912.67 Z M793.39,910.67 L797.11,907.30 L792.01,911.11 L793.39,910.67 Z M811.36,892.74 L810.96,892.80 L810.73,893.17 L811.36,892.74 Z M840.56,882.80 L827.12,877.42 L839.82,882.71 L840.56,882.80 Z M743.88,914.43 L747.09,917.32 L748.71,918.03 L743.88,914.43 Z M757.09,920.84 L753.11,919.97 L760.94,923.41 L757.09,920.84 Z M803.39,949.04 L802.84,948.62 L803.12,949.09 L803.39,949.04 Z M791.46,919.80 L794.28,921.24 L789.80,918.20 L791.46,919.80 Z M825.58,933.97 L827.19,934.81 L827.29,934.11 L825.58,933.97 Z M834.81,938.79 L836.61,944.40 L836.99,942.87 L834.81,938.79 Z M844.24,953.64 L849.32,956.75 L847.64,954.65 L844.24,953.64 Z M768.50,791.86 L764.79,803.15 L764.53,805.00 L768.50,791.86 Z M756.45,779.04 L769.15,773.59 L765.68,774.79 L756.45,779.04 Z M805.83,763.82 L811.86,767.82 L813.26,768.07 L805.83,763.82 Z M756.06,757.73 L752.34,757.01 L750.31,757.85 L756.06,757.73 Z M759.78,756.05 L759.97,755.47 L756.06,757.73 L759.78,756.05 Z M768.52,748.74 L764.26,747.78 L767.09,748.84 L768.52,748.74 Z M779.66,747.96 L772.74,748.12 L771.60,748.52 L779.66,747.96 Z M764.27,736.42 L760.55,733.94 L765.92,739.46 L764.27,736.42 Z M767.22,741.87 L766.97,741.40 L764.18,743.23 L767.22,741.87 Z M760.16,746.25 L760.24,745.81 L759.78,746.11 L760.16,746.25 Z M806.21,686.99 L806.93,687.51 L804.67,683.70 L806.21,686.99 Z" /></g></svg>