<svg xmlns="http://www.w3.org/2000/svg" viewBox="0 0 1000 1000" width="1000" height="1000"><g fill="#cccccc" stroke="#222" stroke-width="2"><path d="M283.26,725.95 L288.65,719.53 L280.56,725.72 L283.67,688.60 L290.73,666.37 L290.93,662.47 L282.02,656.74 L283.67,647.81 L287.41,651.70 L286.16,648.26 L296.33,640.01 L297.36,624.89 L272.06,584.56 L254.64,571.50 L233.90,561.64 L224.15,559.81 L183.29,532.08 L168.36,509.40 L164.83,499.54 L162.55,450.96 L165.25,437.44 L176.45,411.09 L178.52,394.82 L170.43,374.88 L163.38,361.13 L151.14,348.99 L138.07,341.88 L129.78,340.97 L122.31,345.09 L116.71,348.07 L97.01,356.09 L81.87,377.17 L65.48,375.34 L58.43,362.74 L63.82,323.78 L60.30,306.36 L51.59,277.26 L46.61,255.72 L37.07,222.03 L19.23,200.72 L24.83,171.62 L56.56,180.33 L49.30,170.02 L52.62,159.70 L63.41,153.29 L64.24,146.18 L96.18,145.04 L101.78,142.97 L107.17,133.81 L110.07,136.56 L120.03,131.98 L141.81,136.33 L152.39,143.20 L157.36,161.08 L173.75,164.52 L185.99,157.18 L193.25,161.08 L205.07,159.02 L210.46,166.58 L217.93,169.33 L228.71,199.81 L228.71,193.85 L241.57,175.06 L265.22,165.66 L272.27,167.72 L295.08,163.14 L301.51,145.72 L312.30,151.22 L322.67,147.79 L330.34,142.75 L333.24,133.35 L358.55,148.02 L363.11,146.87 L368.50,141.60 L374.31,123.27 L380.53,126.25 L379.70,135.87 L381.99,130.60 L388.42,128.54 L390.07,124.18 L397.75,125.33 L399.20,117.54 L414.96,104.94 L424.92,110.43 L432.18,107.46 L439.23,85.92 L445.24,78.35 L450.64,54.75 L465.36,39.40 L469.51,25.65 L475.53,19.23 L502.90,25.88 L519.50,57.50 L559.73,96.69 L561.39,108.14 L593.75,114.33 L603.70,123.50 L610.13,136.10 L609.10,148.70 L618.64,160.39 L619.05,175.29 L630.67,183.08 L633.16,191.56 L613.66,196.83 L633.98,191.79 L642.49,191.10 L668.00,204.85 L663.02,214.93 L659.70,236.24 L686.04,257.09 L690.81,269.01 L703.88,286.20 L733.13,280.24 L738.93,285.05 L750.13,284.36 L756.98,289.41 L776.06,319.43 L797.01,328.13 L811.53,324.24 L827.70,347.15 L833.72,348.99 L849.90,342.11 L853.21,343.94 L854.46,354.49 L845.54,381.07 L858.40,392.98 L867.32,396.42 L885.78,383.13 L895.73,381.07 L917.51,393.67 L933.07,418.42 L938.25,441.11 L931.61,450.27 L926.22,467.69 L944.06,475.48 L947.38,485.10 L953.60,485.10 L957.54,493.13 L958.16,507.56 L977.66,509.85 L980.77,521.31 L974.34,523.37 L978.90,548.35 L974.75,548.35 L960.24,561.64 L951.52,588.23 L942.40,604.72 L931.41,615.95 L920.41,645.51 L911.91,652.85 L912.74,658.35 L904.86,656.06 L896.77,659.26 L895.73,665.22 L891.79,662.93 L891.17,669.12 L887.02,668.20 L890.75,671.87 L889.30,675.99 L884.53,674.62 L884.12,677.37 L881.42,673.93 L877.69,677.14 L878.93,679.43 L875.20,682.64 L877.07,693.64 L871.67,693.87 L869.81,703.95 L862.55,701.89 L860.06,708.76 L855.50,707.84 L855.91,712.89 L862.75,717.47 L854.87,723.66 L849.48,724.34 L852.80,751.38 L850.73,759.63 L862.75,763.76 L854.25,778.88 L861.51,782.55 L873.33,780.26 L877.27,783.92 L878.52,794.92 L864.41,788.05 L874.99,800.42 L852.59,817.84 L843.05,807.07 L840.56,809.82 L843.05,818.99 L838.90,823.34 L828.95,811.42 L834.55,819.21 L821.27,830.44 L809.04,827.01 L806.13,833.19 L803.64,828.61 L796.80,833.19 L798.46,845.34 L788.71,826.55 L782.07,830.44 L778.13,825.40 L773.36,815.55 L775.85,805.92 L766.10,806.61 L767.97,802.94 L778.75,801.34 L778.75,797.44 L771.70,794.69 L763.61,796.30 L759.26,808.90 L753.66,814.17 L742.87,806.15 L751.17,797.44 L750.13,792.86 L747.64,791.94 L743.29,799.74 L737.48,799.74 L733.75,785.07 L722.76,795.61 L712.59,796.30 L702.43,788.51 L686.67,798.59 L688.95,813.71 L702.01,816.69 L707.82,812.57 L717.16,822.65 L715.50,829.07 L688.33,840.07 L670.86,835.50 L668.83,839.61 L676.71,848.78 L675.05,859.09 L655.14,851.30 L647.88,853.82 L638.76,862.30 L629.84,855.88 L626.31,858.40 L629.21,870.09 L634.74,873.93 L636.47,872.38 L642.07,876.04 L639.79,887.73 L646.01,893.69 L648.71,906.52 L656.59,912.25 L653.07,920.04 L645.39,920.04 L650.16,926.69 L648.30,931.96 L630.67,923.71 L605.16,934.25 L599.56,939.98 L594.78,945.48 L544.80,957.40 L545.21,961.52 L538.79,963.12 L526.13,967.71 L498.76,972.06 L466.40,978.71 L445.04,980.77 L403.14,972.75 L358.76,960.60 L339.26,942.50 L335.73,938.60 L321.01,915.23 L315.20,851.75 L305.45,814.40 L288.24,788.74 L275.79,747.49 L272.89,727.32 L283.26,725.95 Z M294.67,723.89 L294.49,721.50 L288.65,719.53 L294.67,723.89 Z M172.71,506.65 L172.23,505.26 L168.36,509.40 L172.71,506.65 Z M356.27,177.81 L372.44,194.31 L361.87,183.31 L356.27,177.81 Z M307.21,220.31 L299.23,213.78 L293.42,213.33 L307.21,220.31 Z M404.64,213.59 L398.37,209.43 L401.90,212.64 L390.70,215.16 L404.64,213.59 Z M464.12,305.45 L462.87,301.55 L450.43,289.63 L464.12,305.45 Z M433.84,344.40 L433.76,344.87 L456.03,325.61 L433.84,344.40 Z M432.59,351.74 L438.40,366.63 L433.04,349.08 L432.59,351.74 Z M447.73,406.05 L458.73,410.40 L484.03,417.00 L481.33,415.44 L447.45,405.09 L447.73,406.05 Z M461.84,597.62 L462.96,599.83 L469.51,581.35 L461.84,597.62 Z M465.57,604.95 L465.67,604.97 L465.53,604.87 L465.57,604.95 Z M463.52,610.70 L463.52,610.70 L465.57,604.95 L463.52,610.70 Z M470.13,614.35 L464.74,610.45 L464.19,611.06 L470.13,614.35 Z M458.93,683.78 L458.79,680.68 L453.96,673.70 L458.93,683.78 Z M439.85,735.34 L443.84,738.88 L440.55,732.02 L439.85,735.34 Z M460.46,745.75 L458.31,745.66 L455.61,749.32 L460.46,745.75 Z M472.83,750.01 L473.04,760.78 L474.76,746.48 L472.77,750.03 L472.83,750.01 Z M475.93,875.19 L476.56,873.52 L472.83,863.21 L471.48,863.00 L475.93,875.19 Z M462.46,898.73 L491.29,885.67 L481.33,890.02 L462.46,898.73 Z M448.15,912.71 L448.31,913.05 L455.82,907.44 L448.15,912.71 Z M343.62,265.89 L334.49,258.24 L342.99,265.57 L343.62,265.89 Z M344.65,272.22 L348.80,272.68 L342.86,269.50 L342.68,275.15 L344.65,272.22 Z M369.13,364.57 L358.34,366.86 L361.45,368.24 L369.13,364.57 Z M321.84,394.82 L333.45,393.21 L326.40,394.13 L321.84,394.82 Z M307.22,419.22 L309.19,425.75 L308.98,401.92 L308.56,419.57 L307.22,419.22 Z M339.67,451.65 L326.82,432.63 L339.67,455.28 L339.67,451.65 Z M334.70,464.48 L342.70,459.79 L341.96,459.31 L342.16,459.67 L334.70,464.48 Z M332.65,478.71 L335.32,473.88 L334.70,464.48 L332.65,478.71 Z M329.51,484.42 L330.26,483.06 L314.99,481.21 L329.51,484.42 Z M331.38,516.27 L336.56,501.60 L335.91,500.00 L333.45,505.04 L331.38,516.27 Z M353.03,523.74 L352.74,523.83 L354.61,529.33 L353.03,523.74 Z M368.09,552.25 L371.82,547.44 L365.60,552.71 L368.09,552.25 Z M342.58,628.33 L355.64,617.79 L341.31,629.26 L342.58,628.33 Z M336.36,644.83 L333.38,635.61 L333.38,635.61 L336.36,644.83 Z M329.30,698.91 L321.42,684.01 L324.12,689.74 L329.30,698.91 Z M379.50,731.22 L352.95,706.24 L361.66,715.86 L379.50,731.22 Z M392.77,730.53 L393.00,730.25 L379.50,731.22 L392.77,730.53 Z M332.62,750.24 L329.21,750.06 L329.02,750.15 L332.62,750.24 Z M326.61,795.61 L324.50,790.22 L323.96,790.43 L326.61,795.61 Z M324.12,813.26 L319.76,804.78 L321.63,808.90 L324.12,813.26 Z M338.50,828.60 L337.81,822.42 L337.81,828.38 L338.50,828.60 Z M343.20,841.21 L340.09,842.82 L339.85,843.41 L343.20,841.21 Z M363.94,562.56 L359.49,560.52 L359.59,562.56 L363.94,562.56 Z M332.21,859.32 L323.50,852.67 L321.35,852.43 L332.21,859.32 Z M214.40,450.27 L213.53,449.11 L215.65,453.25 L216.35,442.49 L214.40,450.27 Z M217.56,437.65 L228.92,440.42 L218.13,435.38 L217.56,437.65 Z M291.94,425.13 L300.47,417.50 L291.94,425.13 L291.94,425.13 Z M311.47,776.59 L323.08,750.01 L323.52,750.02 L314.99,744.51 L322.25,750.93 L311.47,776.59 Z M301.72,695.24 L293.42,719.07 L294.40,720.15 L294.25,718.16 L301.72,695.24 Z M303.17,679.20 L310.22,681.49 L310.18,682.80 L312.50,681.03 L303.17,679.20 Z M233.69,514.21 L239.70,516.73 L234.33,513.02 L233.69,514.21 Z M279.53,547.44 L273.76,533.14 L273.30,535.06 L279.53,547.44 Z M293.63,554.77 L291.91,553.87 L306.07,563.93 L293.63,554.77 Z M301.30,539.87 L296.15,549.87 L299.85,546.98 L301.30,539.87 Z M204.03,479.61 L209.94,482.08 L208.18,479.38 L204.03,479.61 Z M212.49,484.09 L216.89,491.29 L209.42,474.11 L212.49,484.09 Z M278.58,481.43 L281.81,481.90 L284.71,477.54 L278.58,481.43 Z M289.69,483.04 L295.15,484.32 L284.56,476.77 L284.71,477.54 L289.69,483.04 Z M281.60,461.50 L273.74,463.62 L274.55,464.71 L281.60,461.50 Z M171.05,354.20 L183.91,342.57 L171.67,345.55 L178.10,345.78 L171.05,354.20 Z M224.36,316.68 L224.36,316.68 L216.89,325.61 L224.36,316.68 Z M237.37,295.50 L233.66,291.26 L234.31,294.45 L237.37,295.50 Z M280.77,357.92 L286.79,358.15 L252.36,345.09 L280.77,357.92 Z M289.48,371.67 L291.76,373.05 L280.77,357.92 L289.48,371.67 Z M271.85,389.78 L278.07,389.55 L275.17,387.71 L289.48,371.67 L271.85,389.78 Z M287.41,352.88 L283.88,351.05 L284.42,352.36 L287.41,352.88 Z M217.04,383.27 L216.68,378.32 L215.44,382.44 L217.04,383.27 Z M264.39,389.19 L258.37,384.96 L263.76,389.55 L264.39,389.19 Z M113.60,297.66 L117.75,313.24 L118.58,306.80 L117.33,307.97 L113.60,297.66 Z M306.68,268.23 L308.15,285.51 L308.36,271.76 L306.68,268.23 Z M114.02,254.34 L106.96,268.32 L111.32,259.84 L114.02,254.34 Z M239.29,216.08 L240.53,231.66 L242.87,239.50 L239.29,216.08 Z M250.50,254.45 L246.10,250.34 L246.55,251.82 L250.50,254.45 Z M277.70,270.28 L268.70,266.54 L275.17,270.84 L277.70,270.28 Z M292.80,266.95 L294.22,265.32 L285.33,266.26 L282.22,269.29 L292.80,266.95 Z M303.79,262.14 L302.94,262.61 L304.18,262.94 L303.79,262.14 Z M172.09,291.47 L176.86,286.43 L176.65,276.57 L176.24,284.14 L172.09,291.47 Z M120.02,305.44 L132.47,307.74 L121.48,304.07 L120.02,305.44 Z M80.21,203.24 L116.08,228.04 L114.22,224.33 L80.21,203.24 Z M174.37,173.91 L174.24,171.87 L164.42,201.87 L174.37,173.91 Z M397.33,689.74 L374.73,697.99 L384.27,695.01 L384.81,696.31 L397.33,689.74 Z M393.81,833.65 L372.24,824.26 L357.72,819.90 L393.81,833.65 Z M391.94,836.86 L380.33,834.34 L384.68,836.51 L384.68,835.94 L391.94,836.86 Z M401.90,845.11 L405.52,843.77 L393.21,840.77 L401.90,845.11 Z M426.98,827.84 L453.54,830.21 L438.61,828.38 L426.95,827.78 L426.98,827.84 Z M382.60,884.86 L380.12,883.38 L381.98,884.93 L382.60,884.86 Z M403.36,881.44 L401.27,882.69 L401.69,885.67 L403.36,881.44 Z M403.56,924.86 L408.87,927.37 L408.87,927.37 L403.56,924.86 Z M416.00,847.07 L410.40,857.94 L416.42,848.55 L416.00,847.07 Z M353.36,770.86 L388.52,800.05 L388.21,793.78 L388.00,798.36 L373.90,787.36 L353.36,770.86 Z M408.27,770.39 L406.25,778.42 L406.46,783.01 L408.27,770.39 Z M448.77,799.97 L430.10,794.69 L449.25,801.02 L448.77,799.97 Z M447.32,814.40 L449.81,806.38 L451.50,806.01 L449.95,802.57 L447.32,814.40 Z M463.50,793.32 L454.10,805.43 L454.99,805.24 L463.50,793.32 Z M379.91,802.49 L384.22,808.55 L385.55,805.60 L379.91,802.49 Z M385.83,810.81 L386.76,812.11 L400.86,814.17 L385.83,810.81 Z M388.58,805.92 L388.83,806.15 L388.79,805.29 L388.58,805.92 Z M415.79,740.93 L415.65,740.94 L413.44,749.76 L415.79,748.41 L415.79,740.93 Z M382.40,711.28 L383.67,712.68 L381.16,698.22 L382.40,711.28 Z M356.17,516.55 L354.40,518.79 L357.10,522.46 L356.17,516.55 Z M362.88,442.91 L362.90,442.71 L367.05,437.21 L362.90,440.65 L362.88,442.91 Z M423.78,479.18 L423.88,476.86 L405.42,486.71 L423.78,479.18 Z M417.45,498.85 L423.05,495.42 L423.09,494.58 L417.45,498.85 Z M379.08,626.72 L372.44,625.12 L379.75,627.87 L379.08,626.72 Z M400.18,641.54 L398.36,643.05 L399.41,642.54 L400.18,641.54 Z M427.81,606.51 L424.09,610.45 L429.07,607.70 L427.81,606.51 Z M462.46,608.16 L444.41,600.14 L462.66,610.22 L462.46,608.16 Z M396.09,558.62 L397.75,558.43 L398.33,557.61 L396.09,558.62 Z M392.36,568.06 L412.27,577.45 L403.76,573.33 L392.36,568.06 Z M402.93,566.16 L409.78,565.77 L402.73,564.39 L402.93,566.16 Z M426.63,605.38 L424.50,603.35 L417.66,606.10 L426.63,605.38 Z M382.40,371.44 L370.99,369.61 L382.51,371.50 L382.40,371.44 Z M393.60,392.98 L390.07,375.57 L390.90,387.94 L393.60,392.98 Z M430.03,445.32 L426.99,441.79 L430.03,445.32 L430.03,445.32 Z M353.21,430.35 L354.61,434.00 L363.11,438.82 L353.21,430.35 Z M353.58,427.58 L352.33,428.05 L352.61,428.80 L353.58,427.58 Z M398.79,358.61 L400.20,359.25 L387.59,313.24 L398.79,358.61 Z M398.75,311.28 L393.19,310.03 L387.59,313.24 L398.75,311.28 Z M407.76,309.71 L429.48,305.90 L411.85,307.28 L407.76,309.71 Z M426.55,332.89 L425.75,334.55 L427.35,336.50 L426.55,332.89 Z M411.44,364.34 L412.87,362.76 L405.46,361.63 L411.44,364.34 Z M391.94,266.03 L382.21,262.96 L382.21,262.96 L391.94,266.03 Z M498.34,796.76 L501.35,792.56 L484.86,794.47 L498.96,792.86 L498.34,796.76 Z M451.46,207.63 L442.34,193.85 L428.65,178.49 L446.90,201.87 L451.46,207.63 Z M529.66,318.74 L508.30,345.32 L511.61,341.42 L529.66,318.74 Z M585.66,429.65 L583.15,426.42 L586.02,434.87 L585.66,429.65 Z M636.82,558.43 L635.44,551.10 L616.56,522.69 L631.08,545.14 L636.82,558.43 Z M623.61,543.77 L623.46,545.04 L627.76,545.37 L631.08,545.14 L623.61,543.77 Z M619.58,568.99 L621.96,564.39 L622.48,555.16 L620.71,558.43 L619.58,568.99 Z M616.98,574.02 L618.02,572.01 L612.21,572.26 L616.98,574.02 Z M616.98,634.97 L617.21,629.39 L616.02,636.22 L616.98,634.97 Z M619.05,645.28 L614.28,646.20 L608.68,651.70 L619.05,645.28 Z M600.80,724.11 L622.37,725.95 L618.22,720.45 L619.47,724.34 L600.80,724.11 Z M604.12,786.67 L601.44,776.42 L601.01,777.05 L604.12,786.67 Z M615.42,820.40 L597.90,811.42 L594.57,811.19 L615.42,820.40 Z M579.02,826.09 L576.74,814.63 L574.04,806.61 L579.02,826.09 Z M601.42,883.38 L600.91,871.98 L600.80,872.15 L601.42,883.38 Z M479.67,647.35 L493.78,642.54 L490.46,643.45 L479.67,647.35 Z M506.48,706.09 L498.34,703.72 L500.00,693.41 L496.55,704.62 L505.60,706.47 L506.48,706.09 Z M491.29,728.24 L487.76,734.88 L505.60,706.47 L491.29,728.24 Z M546.04,689.74 L555.17,684.24 L555.64,683.59 L546.04,689.74 Z M558.30,692.58 L558.70,693.64 L566.16,692.03 L558.30,692.58 Z M509.96,903.09 L507.05,894.84 L500.21,886.59 L509.96,903.09 Z M521.78,875.82 L523.44,875.72 L513.91,864.42 L515.14,868.94 L521.78,875.82 Z M530.49,877.88 L531.28,877.39 L530.32,877.36 L530.49,877.88 Z M545.84,868.48 L542.10,868.48 L534.10,875.67 L545.84,868.48 Z M569.45,912.68 L571.35,912.48 L581.72,900.11 L570.52,911.56 L569.45,912.68 Z M562.64,882.00 L564.54,879.56 L561.41,881.37 L565.96,889.79 L562.64,882.00 Z M518.82,790.94 L521.78,795.61 L531.94,803.86 L534.26,803.41 L519.52,790.90 L518.82,790.94 Z M510.37,860.69 L510.67,860.57 L502.07,850.38 L510.37,860.69 Z M519.29,727.32 L523.44,735.80 L530.07,743.13 L519.29,727.32 Z M473.66,606.10 L475.73,603.12 L470.56,605.66 L473.66,606.10 Z M499.17,611.37 L498.56,609.20 L493.78,615.95 L499.17,611.37 Z M499.99,607.18 L511.20,604.04 L502.90,606.33 L503.05,602.87 L499.99,607.18 Z M511.82,596.47 L504.98,600.14 L504.84,600.33 L511.82,596.47 Z M549.99,612.52 L538.99,584.33 L537.75,581.58 L549.99,612.52 Z M545.01,633.37 L548.12,623.06 L549.99,612.52 L545.01,633.37 Z M581.93,617.56 L591.88,622.14 L578.61,615.04 L564.30,607.24 L581.93,617.56 Z M592.71,633.37 L591.88,615.95 L591.88,622.14 L592.71,633.37 Z M546.87,433.77 L535.26,424.84 L522.40,403.53 L530.07,419.57 L537.96,429.42 L546.87,433.77 Z M507.47,557.06 L508.36,562.16 L509.54,560.73 L507.47,557.06 Z M499.79,575.85 L500.00,585.70 L501.11,574.12 L499.79,575.85 Z M498.75,428.87 L501.97,427.39 L495.05,423.38 L500.00,427.36 L498.75,428.87 Z M479.88,451.65 L479.88,455.77 L481.74,460.24 L479.88,451.65 Z M494.40,436.07 L495.22,433.13 L479.88,451.65 L494.40,436.07 Z M494.40,300.63 L497.51,288.95 L490.25,304.07 L494.40,300.63 Z M636.06,701.66 L649.36,706.71 L645.39,703.95 L636.06,701.66 Z M644.45,678.40 L644.15,678.97 L645.39,703.95 L644.45,678.40 Z M663.85,714.72 L663.32,713.65 L663.11,714.66 L667.58,717.93 L669.12,717.36 L663.85,714.72 Z M734.16,668.20 L732.89,668.20 L732.71,672.10 L730.43,685.16 L733.33,679.43 L734.16,668.20 Z M733.54,702.57 L735.68,707.16 L736.24,703.49 L733.54,702.57 Z M735.91,707.64 L736.86,709.68 L744.74,708.53 L735.91,707.64 Z M740.28,741.36 L742.87,749.09 L742.67,741.76 L740.28,741.36 Z M772.95,749.78 L774.81,762.84 L774.30,747.59 L772.95,749.78 Z M834.75,711.51 L832.17,712.20 L835.49,713.45 L836.83,703.95 L834.75,711.51 Z M836.47,713.81 L838.28,714.49 L845.95,709.91 L836.47,713.81 Z M802.81,803.17 L810.71,798.57 L808.62,798.82 L810.70,796.30 L802.81,803.17 Z M697.24,761.70 L691.44,743.82 L694.34,757.34 L690.40,757.11 L697.24,761.70 Z M807.81,784.83 L799.50,783.92 L805.72,785.99 L807.81,784.83 Z M823.97,773.38 L824.80,778.42 L829.36,784.15 L823.97,773.38 Z M838.70,749.09 L828.12,757.80 L831.85,756.43 L832.10,759.97 L838.70,749.09 Z M673.39,720.45 L679.41,722.51 L672.99,719.29 L673.39,720.45 Z M641.87,570.12 L653.69,587.54 L640.29,566.47 L641.87,570.12 Z M743.50,605.41 L738.93,609.77 L734.99,620.31 L743.50,605.41 Z M777.93,553.62 L747.64,542.39 L761.75,548.81 L777.93,553.62 Z M796.18,559.58 L806.34,577.00 L806.52,571.71 L804.68,574.02 L796.18,559.58 Z M804.67,598.14 L805.93,598.08 L807.28,600.52 L806.96,596.25 L804.67,598.14 Z M844.30,624.89 L836.22,630.22 L844.92,626.49 L863.58,659.72 L844.30,624.89 Z M676.09,647.12 L677.75,643.91 L668.00,655.60 L676.09,647.12 Z M769.42,679.43 L770.46,672.78 L767.76,684.01 L769.42,679.43 Z M646.84,673.93 L646.44,674.69 L650.58,672.55 L646.96,671.93 L646.84,673.93 Z M828.33,635.43 L826.46,640.01 L833.99,631.69 L828.33,635.43 Z M807.58,604.72 L807.45,602.92 L800.95,609.08 L807.58,604.72 Z M695.38,315.76 L698.34,305.45 L692.73,319.97 L695.38,315.76 Z M677.54,313.24 L667.35,313.44 L668.21,314.15 L677.54,313.24 Z" /></g></svg>