<svg xmlns="http://www.w3.org/2000/svg" viewBox="0 0 1000 1000" width="1000" height="1000"><g fill="#cccccc" stroke="#222" stroke-width="2"><path d="M275.68,768.00 L260.96,743.72 L239.91,704.60 L226.29,664.84 L203.02,625.73 L197.80,616.48 L199.54,555.02 L200.49,503.44 L201.76,448.21 L203.02,389.32 L207.30,396.84 L230.09,402.64 L234.84,409.73 L250.35,411.24 L283.28,408.23 L287.24,386.95 L310.67,400.06 L312.09,396.41 L333.94,409.31 L317.16,398.99 L323.17,373.63 L316.53,368.04 L327.92,339.24 L326.18,324.41 L337.42,325.06 L342.01,329.36 L346.92,325.27 L356.26,332.36 L363.23,318.83 L384.75,317.54 L391.88,289.60 L395.04,276.27 L387.29,256.93 L383.17,243.39 L365.76,227.70 L366.87,204.49 L361.96,203.63 L348.50,205.99 L342.01,188.80 L338.53,185.79 L339.48,176.76 L336.00,179.34 L327.92,163.01 L339.64,157.21 L353.57,137.86 L362.43,142.16 L384.44,132.49 L406.44,121.32 L431.30,88.22 L453.78,62.64 L473.56,33.20 L482.43,24.17 L495.25,19.23 L509.50,20.74 L561.74,74.89 L576.94,88.86 L568.39,108.42 L571.08,113.58 L566.96,121.10 L569.50,132.28 L566.65,143.88 L577.41,146.03 L577.41,156.78 L582.48,173.76 L576.46,180.42 L582.16,196.54 L596.25,202.77 L620.79,206.85 L685.53,215.45 L690.60,217.60 L710.23,228.77 L720.52,239.52 L745.53,268.75 L750.12,292.18 L763.10,310.01 L771.33,315.39 L785.42,327.21 L801.73,357.51 L819.30,349.13 L845.26,376.42 L882.62,431.01 L906.05,481.95 L933.91,526.43 L948.95,551.37 L980.77,623.79 L933.44,571.78 L901.93,556.74 L891.64,564.90 L890.54,573.50 L882.94,579.95 L882.46,585.54 L884.84,588.12 L882.62,594.35 L882.15,601.87 L884.68,604.23 L866.47,613.69 L878.50,608.10 L880.56,628.09 L874.23,637.55 L887.84,641.20 L889.90,680.32 L873.60,697.72 L861.88,699.66 L855.39,712.77 L851.75,711.05 L851.91,706.11 L848.90,705.89 L845.74,710.62 L836.40,698.80 L830.86,677.95 L827.53,676.88 L822.62,674.51 L794.45,683.32 L760.73,693.21 L718.46,669.14 L674.13,642.70 L670.18,640.56 L735.56,679.46 L735.08,720.29 L731.28,740.71 L728.91,750.16 L733.50,771.66 L730.65,813.35 L722.42,828.82 L700.57,863.42 L684.27,840.86 L626.17,786.27 L600.68,763.27 L658.94,817.65 L643.58,849.45 L622.21,843.87 L621.42,847.95 L610.97,845.37 L610.18,855.04 L594.67,863.85 L589.60,870.30 L589.28,875.03 L585.01,877.61 L583.74,885.13 L580.58,886.64 L565.85,886.42 L564.75,882.12 L554.14,875.25 L549.55,887.28 L543.06,893.51 L546.86,902.97 L545.91,910.06 L539.73,916.94 L524.54,927.04 L517.10,933.92 L509.97,931.98 L500.95,943.80 L488.92,924.46 L464.38,898.03 L446.97,897.60 L439.69,885.56 L484.33,961.00 L491.13,980.77 L477.52,970.67 L459.63,941.65 L438.10,924.03 L397.74,881.05 L388.87,876.96 L373.36,877.18 L365.28,869.44 L327.13,835.92 L275.68,768.00 Z M384.30,319.27 L403.53,328.27 L384.75,317.54 L384.30,319.27 Z M733.81,611.76 L734.29,609.61 L718.46,669.14 L733.81,611.76 Z M469.13,173.54 L477.20,172.04 L461.53,172.04 L469.13,173.54 Z M473.09,189.23 L478.00,198.47 L469.13,173.54 L473.09,189.23 Z M477.77,199.97 L487.89,188.21 L487.88,188.20 L478.00,198.47 L477.77,199.97 Z M496.52,201.27 L489.47,190.61 L510.61,232.43 L527.39,267.46 L520.10,250.48 L505.70,220.61 L496.52,201.27 Z M506.71,239.76 L509.66,237.80 L510.61,232.43 L506.71,239.76 Z M525.01,279.93 L530.87,285.30 L523.75,276.06 L525.01,279.93 Z M503.96,302.06 L515.36,286.80 L519.79,280.78 L503.96,302.06 Z M470.71,367.83 L465.65,378.36 L481.48,346.33 L470.71,367.83 Z M459.32,374.49 L492.40,405.22 L465.65,378.36 L459.32,374.49 Z M507.46,448.59 L508.07,450.35 L515.51,449.28 L507.46,448.59 Z M517.41,504.30 L521.37,506.66 L499.21,489.25 L517.41,504.30 Z M516.98,565.13 L516.15,563.19 L504.91,557.17 L516.98,565.13 Z M519.95,574.15 L520.92,577.61 L521.03,570.83 L519.95,574.15 Z M477.52,648.51 L478.95,664.63 L478.63,657.32 L477.52,648.51 Z M512.19,797.87 L512.82,784.76 L512.82,779.39 L512.19,797.87 Z M484.33,854.83 L482.74,850.53 L480.85,845.80 L484.33,854.83 Z M386.65,803.68 L393.72,785.44 L391.88,787.34 L386.65,803.68 Z M376.52,794.65 L361.69,786.60 L362.59,787.34 L386.65,803.68 L376.52,794.65 Z M367.73,406.56 L365.28,405.22 L350.56,401.35 L367.73,406.56 Z M411.67,513.79 L409.29,512.04 L402.96,509.89 L411.67,513.79 Z M400.27,524.29 L395.20,524.29 L399.16,525.58 L392.99,544.06 L402.64,519.13 L402.96,509.89 L400.27,524.29 Z M361.33,531.81 L367.75,538.95 L367.75,538.95 L361.33,531.81 Z M368.61,524.72 L378.42,528.15 L381.27,528.15 L368.61,524.72 Z M210.46,616.48 L210.30,599.08 L211.77,598.00 L209.04,598.22 L210.46,616.48 Z M219.77,599.56 L217.27,597.57 L213.47,597.87 L219.77,599.56 Z M299.75,556.74 L261.78,576.14 L278.69,567.70 L299.75,556.74 Z M341.70,615.63 L333.94,618.63 L325.87,624.65 L341.70,615.63 Z M283.60,735.55 L280.58,735.40 L310.67,749.73 L283.60,735.55 Z M336.47,764.13 L341.06,769.51 L342.69,770.86 L336.47,764.13 Z M323.81,748.23 L345.81,756.83 L336.00,751.67 L323.81,748.23 Z M260.64,668.92 L268.43,680.16 L265.55,673.87 L260.64,668.92 Z M353.89,661.62 L351.94,685.60 L351.94,685.60 L353.89,661.62 Z M260.64,576.71 L255.58,556.31 L260.64,576.71 L260.64,576.71 Z M309.56,452.29 L305.44,467.76 L304.34,472.06 L309.56,452.29 Z M354.04,488.18 L343.73,501.99 L357.94,486.42 L354.04,488.18 Z M399.16,225.12 L391.40,227.46 L391.72,227.49 L399.16,225.12 Z M404.48,210.48 L404.48,210.48 L399.16,225.12 L404.48,210.48 Z M476.36,868.46 L468.97,874.17 L476.25,868.80 L476.36,868.46 Z M476.73,865.14 L477.21,865.80 L479.42,858.91 L476.73,865.14 Z M439.84,209.86 L423.06,209.86 L421.48,210.09 L439.84,209.86 Z M440.16,213.52 L443.80,202.13 L439.84,209.86 L440.16,213.52 Z M451.24,205.13 L451.65,204.02 L449.55,204.45 L451.24,205.13 Z M461.37,212.23 L465.49,211.15 L454.88,212.87 L461.37,212.23 Z M477.20,203.63 L489.24,209.22 L477.36,202.61 L477.20,203.63 Z M483.85,230.06 L494.73,232.52 L494.64,232.33 L483.85,230.06 Z M504.25,686.39 L503.32,688.70 L505.50,686.18 L504.25,686.39 Z M558.26,434.45 L530.39,443.69 L539.89,441.76 L558.26,434.45 Z M465.98,84.95 L464.40,85.83 L465.65,86.50 L465.98,84.95 Z M472.42,78.55 L467.23,79.19 L470.71,80.48 L472.42,78.55 Z M484.64,77.04 L480.88,77.51 L490.44,79.50 L484.64,77.04 Z M514.25,96.82 L512.82,103.05 L509.97,117.23 L514.25,96.82 Z M457.26,94.24 L444.28,94.24 L457.55,94.43 L457.26,94.24 Z M527.07,237.16 L526.88,238.57 L527.62,238.53 L527.07,237.16 Z M678.77,270.76 L684.27,261.01 L679.20,269.39 L678.77,270.76 Z M675.72,282.50 L675.82,280.23 L674.81,283.49 L675.72,282.50 Z M635.52,333.16 L639.62,319.68 L634.89,332.75 L635.52,333.16 Z M650.84,371.92 L650.39,367.83 L650.84,371.92 L650.84,371.92 Z M628.70,400.06 L629.49,397.70 L627.33,400.75 L628.70,400.06 Z M657.20,482.59 L646.25,471.15 L646.43,473.35 L657.20,482.59 Z M641.94,550.68 L632.98,534.82 L638.36,546.21 L641.94,550.68 Z M621.26,533.10 L607.49,532.45 L632.98,534.82 L621.26,533.10 Z M673.50,570.06 L654.98,564.26 L649.32,559.91 L652.29,563.62 L673.50,570.06 Z M668.12,611.33 L668.82,590.37 L667.01,598.22 L668.12,611.33 Z M641.21,752.10 L655.30,702.67 L669.39,659.47 L658.94,689.56 L641.21,752.10 Z M680.34,723.36 L680.78,721.36 L655.30,702.67 L680.34,723.36 Z M551.77,518.05 L554.50,466.94 L552.24,486.46 L551.77,518.05 Z M554.74,464.86 L597.04,499.57 L554.74,464.86 L554.74,464.86 Z M580.74,688.27 L586.75,690.63 L569.02,680.75 L580.74,688.27 Z M571.08,726.74 L567.60,720.93 L567.75,724.59 L576.30,731.47 L571.08,726.74 Z M562.59,773.27 L558.73,785.84 L562.59,773.27 L562.59,773.27 Z M547.17,758.76 L544.85,748.67 L544.34,757.50 L545.27,754.68 L547.17,758.76 Z M554.77,761.55 L554.82,761.36 L547.17,758.76 L554.77,761.55 Z M555.25,565.12 L536.09,603.80 L546.70,582.53 L555.25,565.12 Z M548.42,583.16 L548.92,582.10 L546.70,582.53 L548.42,583.16 Z M591.50,588.33 L553.31,584.95 L560.79,587.69 L591.50,588.33 Z M660.84,604.88 L658.73,605.29 L659.25,606.81 L660.84,604.88 Z M571.26,547.41 L570.60,544.92 L569.46,546.42 L571.26,547.41 Z M555.19,331.98 L555.09,331.72 L554.96,331.81 L555.19,331.98 Z M558.89,321.19 L558.62,317.75 L555.09,331.72 L558.89,321.19 Z M558.60,390.59 L568.07,367.18 L558.60,390.59 L558.60,390.59 Z M621.52,403.68 L615.40,404.58 L613.35,407.80 L621.52,403.68 Z M622.53,308.51 L614.45,306.36 L619.36,290.03 L614.15,307.30 L622.53,308.51 Z M633.29,331.72 L633.79,332.04 L622.53,308.51 L633.29,331.72 Z M663.69,251.56 L654.63,249.00 L674.29,257.57 L663.69,251.56 Z M545.12,299.48 L545.14,297.96 L544.90,299.40 L545.12,299.48 Z M556.51,267.03 L550.18,270.47 L545.43,276.27 L556.51,267.03 Z M680.87,723.79 L681.57,724.37 L707.22,736.84 L680.87,723.79 Z M701.05,505.59 L705.42,517.65 L724.63,513.32 L705.64,517.19 L701.05,505.59 Z M799.35,549.00 L800.75,560.90 L801.09,556.09 L799.35,549.00 Z M820.25,550.38 L823.10,551.15 L830.90,547.19 L820.25,550.38 Z M847.79,593.70 L854.84,589.54 L853.65,589.62 L833.70,596.50 L847.79,593.70 Z M800.13,569.64 L799.35,569.85 L799.67,576.08 L800.13,569.64 Z M685.06,431.23 L679.83,425.21 L685.30,432.12 L685.06,431.23 Z M707.85,428.65 L709.12,435.10 L701.36,446.27 L709.82,434.52 L707.85,428.65 Z M750.28,419.84 L750.50,418.25 L745.05,429.94 L750.28,419.84 Z M793.84,390.44 L792.39,385.88 L786.21,374.92 L793.84,390.44 Z M821.04,445.84 L805.37,411.67 L801.34,405.72 L821.04,445.84 Z M853.38,492.39 L852.23,469.70 L853.38,492.39 L853.38,492.39 Z M759.82,478.44 L759.30,477.43 L760.88,474.21 L754.24,481.09 L759.82,478.44 Z M771.95,491.17 L762.94,484.53 L770.70,490.97 L771.95,491.17 Z M780.51,492.48 L787.95,495.06 L781.46,491.40 L777.73,492.05 L780.51,492.48 Z M809.80,512.25 L793.18,512.25 L800.94,513.32 L809.80,512.25 Z M714.19,350.20 L707.72,355.39 L711.81,353.21 L714.19,350.20 Z M716.24,335.16 L713.87,336.66 L725.11,337.52 L716.24,335.16 Z M175.48,580.38 L171.52,577.59 L150.78,562.97 L129.41,537.61 L99.02,517.41 L59.28,477.00 L19.23,441.97 L26.67,432.09 L23.66,427.57 L24.14,422.63 L63.40,345.69 L91.26,291.10 L122.76,307.86 L140.18,337.74 L151.41,345.69 L165.66,324.84 L175.48,341.82 L176.58,343.54 L203.02,389.32 L200.65,489.47 L197.80,616.48 L187.98,596.07 L175.48,580.38 Z M146.89,523.40 L139.54,515.04 L134.95,512.68 L146.89,523.40 Z M76.97,445.14 L75.75,444.77 L71.63,449.49 L76.97,445.14 Z M97.91,445.20 L99.82,442.28 L95.88,443.93 L97.91,445.20 Z M124.82,466.90 L101.07,434.24 L103.13,437.24 L124.82,466.90 Z M108.67,497.21 L123.87,470.34 L127.04,460.89 L124.82,466.90 L108.67,497.21 Z M126.72,368.04 L123.08,379.65 L119.60,394.91 L126.72,368.04 Z M88.73,380.08 L81.05,396.83 L86.35,388.24 L88.73,380.08 Z" /></g></svg>