<svg xmlns="http://www.w3.org/2000/svg" viewBox="0 0 800 1400">
  <path d="M 295.65,382.13 L 295.68,382.14 L 295.74,382.16 L 295.80,382.18 L 295.86,382.21 L 295.89,382.22 L 296.03,382.29 L 296.16,382.35 L 296.31,382.43 L 296.36,382.45 L 296.38,382.47 L 296.43,382.49 L 296.47,382.52 L 296.56,382.58 L 296.62,382.63 L 296.66,382.65 L 296.71,382.68 L 296.76,382.71 L 296.79,382.73 L 296.84,382.75 L 296.87,382.76 L 296.90,382.78 L 296.92,382.78 L 296.94,382.79 L 296.97,382.80 L 296.99,382.81 L 297.02,382.82 L 297.09,382.84 L 297.18,382.87 L 297.23,382.88 L 297.24,382.89 L 297.38,382.93 L 297.44,382.95 L 297.56,382.99 L 297.62,383.01 L 297.70,383.03 L 297.78,383.05 L 297.86,383.07 L 297.95,383.09 L 298.01,383.10 L 298.07,383.12 L 298.13,383.14 L 298.19,383.16 L 298.25,383.18 L 298.32,383.21 L 298.39,383.24 L 298.41,383.25 L 298.43,383.25 L 298.46,383.26 L 298.48,383.27 L 298.50,383.28 L 298.52,383.28 L 298.54,383.29 L 298.57,383.29 L 298.59,383.30 L 298.61,383.30 L 298.66,383.30 L 298.70,383.31 L 298.75,383.31 L 298.81,383.31 L 298.83,383.31 L 298.88,383.32 L 298.90,383.32 L 298.94,383.32 L 298.96,383.33 L 298.98,383.33 L 299.05,383.35 L 299.08,383.36 L 299.11,383.36 L 299.14,383.37 L 299.17,383.37 L 299.19,383.37 L 299.22,383.38 L 299.25,383.38 L 299.28,383.38 L 299.31,383.38 L 299.34,383.39 L 299.37,383.39 L 299.40,383.39 L 299.42,383.38 L 299.45,383.38 L 299.50,383.38 L 299.54,383.38 L 299.62,383.37 L 299.71,383.36 L 299.81,383.35 L 299.91,383.34 L 300.01,383.34 L 300.05,383.34 L 300.13,383.34 L 300.18,383.34 L 300.21,383.34 L 300.24,383.35 L 300.26,383.35 L 300.29,383.35 L 300.32,383.36 L 300.35,383.36 L 300.37,383.36 L 300.40,383.37 L 300.43,383.38 L 300.45,383.38 L 300.48,383.39 L 300.51,383.40 L 300.53,383.41 L 300.56,383.41 L 300.59,383.42 L 300.61,383.43 L 300.64,383.44 L 300.66,383.45 L 300.69,383.47 L 300.72,383.48 L 300.74,383.49 L 300.77,383.51 L 300.81,383.52 L 300.84,383.54 L 300.87,383.56 L 300.91,383.58 L 300.94,383.60 L 300.97,383.62 L 301.00,383.64 L 301.03,383.66 L 301.07,383.68 L 301.10,383.71 L 301.13,383.73 L 301.17,383.76 L 301.21,383.80 L 301.24,383.82 L 301.27,383.84 L 301.29,383.86 L 301.32,383.89 L 301.34,383.91 L 301.37,383.94 L 301.39,383.96 L 301.42,383.98 L 301.44,384.01 L 301.46,384.04 L 301.49,384.06 L 301.51,384.09 L 301.53,384.12 L 301.55,384.14 L 301.57,384.17 L 301.60,384.20 L 301.62,384.23 L 301.64,384.26 L 301.65,384.28 L 301.67,384.31 L 301.69,384.34 L 301.71,384.37 L 301.73,384.40 L 301.74,384.43 L 301.76,384.46 L 301.78,384.49 L 301.80,384.54 L 301.81,384.59 L 301.83,384.64 L 301.85,384.70 L 301.85,384.72 L 301.87,384.81 L 301.89,384.90 L 301.91,384.99 L 301.91,385.04 L 301.92,385.09 L 301.93,385.15 L 301.94,385.20 L 301.94,385.25 L 301.95,385.30 L 301.95,385.35 L 301.96,385.45 L 301.96,385.49 L 301.97,385.53 L 301.97,385.67 L 301.98,385.77 L 301.98,385.86 L 301.98,385.96 L 301.98,386.06 L 301.98,386.15 L 301.99,386.25 L 301.99,386.35 L 301.99,386.45 L 301.98,386.54 L 301.99,386.70 L 301.99,386.77 L 301.99,386.85 L 301.99,386.93 L 302.00,387.16 L 302.00,387.24 L 302.01,387.39 L 302.02,387.54 L 302.03,387.59 L 302.03,387.64 L 302.03,387.69 L 302.03,387.74 L 302.03,387.79 L 302.03,387.84 L 302.03,387.88 L 302.03,387.93 L 302.03,387.98 L 302.03,388.03 L 302.03,388.08 L 302.02,388.13 L 302.02,388.22 L 302.01,388.28 L 302.00,388.32 L 302.00,388.37 L 301.99,388.42 L 301.98,388.47 L 301.98,388.52 L 301.97,388.57 L 301.96,388.64 L 301.94,388.69 L 301.94,388.72 L 301.93,388.75 L 301.92,388.78 L 301.91,388.81 L 301.90,388.84 L 301.89,388.86 L 301.88,388.89 L 301.87,388.92 L 301.86,388.95 L 301.85,388.98 L 301.84,389.00 L 301.82,389.03 L 301.81,389.06 L 301.79,389.08 L 301.78,389.11 L 301.76,389.13 L 301.75,389.16 L 301.73,389.19 L 301.72,389.21 L 301.70,389.24 L 301.68,389.26 L 301.66,389.28 L 301.62,389.34 L 301.57,389.40 L 301.54,389.43 L 301.49,389.49 L 301.46,389.52 L 301.44,389.55 L 301.42,389.57 L 301.40,389.60 L 301.37,389.63 L 301.35,389.66 L 301.33,389.69 L 301.31,389.71 L 301.29,389.74 L 301.27,389.77 L 301.25,389.80 L 301.23,389.83 L 301.22,389.86 L 301.20,389.89 L 301.18,389.93 L 301.16,389.97 L 301.14,390.01 L 301.13,390.03 L 301.12,390.06 L 301.11,390.08 L 301.10,390.10 L 301.09,390.13 L 301.08,390.15 L 301.08,390.18 L 301.07,390.20 L 301.06,390.23 L 301.06,390.25 L 301.05,390.27 L 301.05,390.30 L 301.04,390.32 L 301.04,390.35 L 301.04,390.37 L 301.03,390.42 L 301.03,390.44 L 301.03,390.49 L 301.03,390.54 L 301.04,390.56 L 301.04,390.61 L 301.05,390.65 L 301.06,390.70 L 301.07,390.74 L 301.08,390.79 L 301.10,390.83 L 301.12,390.89 L 301.13,390.92 L 301.14,390.95 L 301.15,390.99 L 301.16,391.02 L 301.17,391.05 L 301.18,391.09 L 301.19,391.12 L 301.20,391.16 L 301.20,391.19 L 301.21,391.22 L 301.22,391.26 L 301.22,391.29 L 301.24,391.36 L 301.25,391.42 L 301.27,391.49 L 301.29,391.55 L 301.30,391.58 L 301.32,391.65 L 301.33,391.68 L 301.36,391.74 L 301.39,391.81 L 301.40,391.85 L 301.42,391.88 L 301.44,391.92 L 301.46,391.96 L 301.48,391.99 L 301.50,392.03 L 301.52,392.06 L 301.54,392.10 L 301.56,392.13 L 301.58,392.17 L 301.60,392.20 L 301.63,392.24 L 301.65,392.27 L 301.67,392.30 L 301.70,392.34 L 301.72,392.37 L 301.75,392.40 L 301.78,392.43 L 301.83,392.47 L 301.85,392.49 L 301.88,392.51 L 301.91,392.54 L 301.94,392.56 L 301.97,392.58 L 302.00,392.60 L 302.03,392.63 L 302.37,392.86 L 302.67,393.06 L 302.80,393.13 L 303.06,393.28 L 303.26,393.36 L 303.51,393.43 L 303.74,393.46 L 304.60,393.46 L 304.63,393.47 L 304.65,393.47 L 304.68,393.47 L 304.70,393.47 L 304.72,393.48 L 304.75,393.48 L 304.77,393.49 L 304.80,393.49 L 304.82,393.50 L 304.84,393.50 L 304.87,393.51 L 304.89,393.52 L 304.91,393.52 L 304.94,393.53 L 304.96,393.54 L 304.98,393.55 L 305.00,393.56 L 305.02,393.57 L 305.04,393.58 L 305.07,393.59 L 305.09,393.60 L 305.11,393.61 L 305.13,393.63 L 305.14,393.63 L 305.16,393.64 L 305.17,393.65 L 305.18,393.66 L 305.20,393.67 L 305.21,393.68 L 305.22,393.69 L 305.23,393.70 L 305.25,393.71 L 305.26,393.72 L 305.27,393.74 L 305.28,393.75 L 305.30,393.76 L 305.31,393.78 L 305.32,393.79 L 305.33,393.80 L 305.35,393.84 L 305.38,393.88 L 305.40,393.91 L 305.42,393.95 L 305.45,393.99 L 305.47,394.03 L 305.49,394.06 L 305.51,394.10 L 305.53,394.14 L 305.55,394.18 L 305.57,394.22 L 305.59,394.26 L 305.61,394.30 L 305.63,394.34 L 305.65,394.38 L 305.66,394.42 L 305.68,394.45 L 305.70,394.50 L 306.50,394.05 L 306.51,393.91 L 306.50,393.85 L 306.50,393.81 L 306.48,393.71 L 306.48,393.68 L 306.49,393.66 L 306.52,393.64 L 306.55,393.63 L 306.67,393.62 L 306.72,393.60 L 306.75,393.57 L 306.77,393.52 L 306.79,393.46 L 306.80,393.40 L 306.80,393.36 L 306.81,393.32 L 306.83,393.29 L 306.90,393.22 L 306.93,393.21 L 306.97,393.19 L 307.01,393.18 L 307.11,393.14 L 307.14,393.13 L 307.17,393.13 L 307.19,393.14 L 307.22,393.15 L 307.26,393.18 L 307.32,393.19 L 307.34,393.19 L 307.37,393.20 L 307.39,393.20 L 307.41,393.22 L 307.43,393.23 L 307.47,393.30 L 307.50,393.33 L 307.54,393.37 L 307.65,393.42 L 307.66,393.42 L 308.06,393.19 L 308.21,393.39 L 308.55,393.65 L 309.09,394.16 L 309.28,393.99 L 309.35,393.88 L 309.36,393.73 L 309.39,393.64 L 309.45,393.51 L 309.54,393.41 L 309.69,393.29 L 309.87,393.12 L 309.95,393.02 L 310.02,392.95 L 310.13,392.80 L 310.23,392.68 L 310.28,392.61 L 310.44,392.37 L 310.52,392.27 L 310.63,392.12 L 310.67,392.06 L 310.75,391.94 L 310.87,391.75 L 310.92,391.66 L 310.96,391.60 L 311.05,391.46 L 311.07,391.43 L 311.15,391.34 L 311.21,391.26 L 311.29,391.18 L 311.37,391.10 L 311.53,390.93 L 311.57,390.88 L 311.64,390.80 L 311.73,390.68 L 311.78,390.60 L 311.83,390.53 L 311.86,390.50 L 311.91,390.47 L 311.97,390.46 L 312.02,390.44 L 312.08,390.44 L 312.16,390.45 L 312.25,390.45 L 312.33,390.46 L 312.41,390.47 L 312.46,390.48 L 312.54,390.48 L 312.60,390.49 L 312.71,390.54 L 312.75,390.56 L 312.82,390.59 L 312.88,390.61 L 312.95,390.65 L 313.00,390.71 L 313.05,390.74 L 313.14,390.78 L 313.26,390.85 L 313.36,390.87 L 313.49,390.90 L 313.61,390.95 L 313.69,390.99 L 313.80,391.02 L 313.88,391.07 L 313.95,391.12 L 314.05,391.15 L 314.11,391.18 L 314.21,391.22 L 314.28,391.25 L 314.37,391.30 L 314.47,391.35 L 314.57,391.40 L 314.65,391.45 L 314.75,391.50 L 314.83,391.53 L 314.91,391.55 L 314.99,391.54 L 315.05,391.53 L 315.12,391.52 L 315.24,391.54 L 315.33,391.56 L 315.42,391.58 L 315.47,391.58 L 315.55,391.57 L 315.68,391.55 L 315.84,391.54 L 315.98,391.53 L 316.09,391.52 L 316.22,391.50 L 316.38,391.49 L 316.42,391.47 L 316.48,391.47 L 316.54,391.48 L 316.59,391.48 L 316.63,391.46 L 316.70,391.45 L 316.78,391.46 L 316.87,391.48 L 316.94,391.50 L 317.01,391.53 L 317.07,391.55 L 317.13,391.56 L 317.18,391.57 L 317.22,391.60 L 317.26,391.64 L 317.29,391.70 L 317.32,391.78 L 317.32,391.89 L 317.33,391.98 L 317.40,392.09 L 317.47,392.17 L 317.53,392.22 L 317.57,392.28 L 317.64,392.35 L 317.72,392.41 L 317.77,392.47 L 317.86,392.57 L 317.93,392.60 L 318.01,392.66 L 318.08,392.70 L 318.16,392.75 L 318.24,392.81 L 318.32,392.87 L 318.39,392.93 L 318.44,392.99 L 318.48,393.04 L 318.50,393.11 L 318.55,393.15 L 318.61,393.18 L 318.66,393.20 L 318.71,393.23 L 318.75,393.26 L 318.81,393.29 L 318.89,393.32 L 318.96,393.34 L 319.04,393.37 L 319.11,393.42 L 319.19,393.47 L 319.29,393.53 L 319.41,393.61 L 319.51,393.69 L 319.61,393.78 L 319.72,393.89 L 319.87,394.00 L 319.94,394.06 L 320.08,394.15 L 320.14,394.17 L 320.19,394.18 L 320.22,394.19 L 320.25,394.24 L 320.29,394.26 L 320.36,394.28 L 320.43,394.33 L 320.49,394.36 L 320.55,394.41 L 320.62,394.42 L 320.70,394.41 L 320.78,394.39 L 320.84,394.39 L 320.91,394.40 L 320.94,394.42 L 320.98,394.48 L 321.01,394.53 L 321.01,394.58 L 321.03,394.63 L 321.05,394.68 L 321.08,394.82 L 321.10,394.94 L 321.13,395.06 L 321.17,395.15 L 321.23,395.24 L 321.29,395.32 L 321.33,395.41 L 321.35,395.50 L 321.36,395.63 L 321.37,395.80 L 321.40,395.96 L 321.41,396.05 L 321.41,396.15 L 321.39,396.24 L 321.37,396.35 L 321.36,396.47 L 321.35,396.55 L 321.35,396.67 L 321.35,396.75 L 321.39,396.96 L 321.41,397.07 L 321.41,397.38 L 321.45,397.67 L 321.53,398.46 L 321.53,400.32 L 336.32,415.65 L 345.68,411.45 L 345.75,411.42 L 345.83,411.38 L 345.91,411.35 L 345.98,411.31 L 346.06,411.27 L 346.13,411.24 L 346.21,411.20 L 346.29,411.16 L 346.36,411.12 L 346.44,411.08 L 346.51,411.04 L 346.58,411.00 L 346.66,410.96 L 346.73,410.92 L 346.81,410.88 L 346.88,410.83 L 346.95,410.79 L 347.02,410.75 L 347.10,410.70 L 347.17,410.66 L 347.24,410.61 L 347.31,410.56 L 347.38,410.52 L 347.45,410.47 L 347.52,410.42 L 347.59,410.38 L 348.15,410.00 L 348.22,409.95 L 348.29,409.90 L 348.36,409.85 L 348.43,409.80 L 348.49,409.75 L 348.56,409.70 L 348.63,409.65 L 348.70,409.60 L 369.01,393.77 L 369.08,393.72 L 369.15,393.67 L 369.21,393.61 L 369.28,393.56 L 369.35,393.50 L 369.41,393.45 L 369.48,393.40 L 369.54,393.34 L 369.60,393.28 L 369.67,393.23 L 369.73,393.17 L 369.79,393.11 L 369.85,393.06 L 369.92,393.00 L 369.98,392.94 L 370.04,392.88 L 370.10,392.82 L 370.16,392.76 L 370.22,392.70 L 370.28,392.64 L 370.34,392.58 L 370.40,392.52 L 372.69,390.10 L 372.75,390.04 L 372.81,389.98 L 372.86,389.91 L 372.92,389.85 L 382.00,379.63 L 383.47,370.49 L 380.70,367.85 L 379.28,366.49 L 378.20,361.28 L 377.06,355.75 L 376.98,355.50 L 377.00,355.41 L 377.18,355.22 L 377.28,355.04 L 377.34,354.84 L 377.38,354.66 L 377.33,354.46 L 377.18,354.17 L 377.09,353.99 L 376.93,353.76 L 376.71,353.54 L 376.49,353.32 L 376.21,353.11 L 375.96,352.89 L 375.81,352.79 L 375.68,352.69 L 375.57,352.59 L 375.45,352.45 L 375.11,351.89 L 375.01,351.69 L 374.90,351.44 L 374.79,351.15 L 374.54,350.80 L 374.48,350.72 L 374.46,350.70 L 374.35,350.55 L 374.35,350.55 L 374.07,350.33 L 374.07,350.33 L 374.02,350.29 L 373.78,350.16 L 373.77,350.16 L 373.72,350.05 L 373.71,350.03 L 373.68,350.01 L 373.63,349.98 L 373.56,349.96 L 373.15,349.90 L 372.95,349.90 L 372.91,349.90 L 372.86,349.91 L 372.80,349.92 L 372.69,349.95 L 372.58,349.97 L 372.52,349.98 L 372.43,349.98 L 372.40,349.99 L 372.38,349.99 L 372.31,350.00 L 372.26,350.01 L 372.23,350.02 L 372.18,350.01 L 372.14,349.97 L 372.09,349.91 L 372.04,349.89 L 372.00,349.88 L 371.96,349.88 L 371.95,349.88 L 371.90,349.89 L 371.85,349.91 L 371.80,349.94 L 371.76,349.95 L 371.65,349.96 L 371.59,349.98 L 371.56,349.99 L 371.48,350.01 L 371.30,350.02 L 371.25,350.02 L 371.20,350.02 L 371.17,350.03 L 371.10,350.08 L 371.01,350.13 L 370.90,350.17 L 370.85,350.19 L 370.77,350.17 L 370.61,350.14 L 370.57,350.13 L 370.49,350.12 L 370.47,350.12 L 370.44,350.15 L 370.41,350.20 L 370.39,350.24 L 370.38,350.28 L 370.38,350.31 L 370.35,350.35 L 370.30,350.39 L 370.26,350.42 L 370.20,350.43 L 370.20,350.43 L 370.18,350.43 L 370.16,350.43 L 370.12,350.41 L 370.03,350.36 L 369.99,350.37 L 369.97,350.38 L 369.95,350.41 L 369.91,350.53 L 369.87,350.57 L 369.82,350.62 L 369.79,350.63 L 369.77,350.64 L 369.75,350.65 L 369.70,350.64 L 369.59,350.58 L 369.55,350.57 L 369.44,350.57 L 369.34,350.59 L 369.24,350.62 L 369.17,350.62 L 369.09,350.60 L 369.04,350.56 L 368.98,350.49 L 368.90,350.35 L 368.82,350.14 L 368.75,349.89 L 368.62,349.55 L 368.51,349.20 L 368.43,349.02 L 368.39,348.89 L 368.39,348.81 L 368.39,348.78 L 368.43,348.70 L 368.43,348.64 L 368.41,348.59 L 368.25,348.44 L 368.03,348.29 L 367.83,348.20 L 367.67,348.13 L 367.65,348.10 L 367.64,348.09 L 367.66,348.05 L 367.66,348.01 L 367.60,347.93 L 367.52,347.84 L 367.45,347.76 L 367.40,347.72 L 367.36,347.67 L 367.33,347.64 L 367.33,347.62 L 367.33,347.60 L 367.35,347.55 L 367.40,347.49 L 367.41,347.46 L 367.41,347.43 L 367.34,347.40 L 367.30,347.40 L 367.25,347.41 L 367.18,347.43 L 367.06,347.49 L 366.96,347.55 L 366.90,347.57 L 366.86,347.58 L 366.84,347.57 L 366.78,347.54 L 366.77,347.51 L 366.73,347.49 L 366.67,347.46 L 366.64,347.45 L 366.62,347.45 L 366.60,347.46 L 366.58,347.47 L 366.55,347.46 L 366.50,347.44 L 366.45,347.41 L 366.30,347.29 L 366.25,347.30 L 366.20,347.33 L 366.19,347.36 L 366.19,347.39 L 366.19,347.48 L 366.19,347.51 L 366.17,347.54 L 366.14,347.56 L 366.10,347.56 L 366.06,347.55 L 366.01,347.53 L 365.96,347.49 L 365.93,347.44 L 365.91,347.41 L 365.92,347.36 L 365.95,347.33 L 365.96,347.27 L 365.97,347.21 L 365.96,347.17 L 365.92,347.11 L 365.88,347.06 L 365.78,346.98 L 365.72,346.97 L 365.65,346.96 L 365.58,346.94 L 365.53,346.91 L 365.46,346.84 L 365.44,346.81 L 365.45,346.76 L 365.49,346.72 L 365.57,346.67 L 365.59,346.65 L 365.61,346.61 L 365.59,346.56 L 365.57,346.51 L 365.58,346.45 L 365.58,346.42 L 365.58,346.41 L 365.56,346.38 L 365.53,346.36 L 365.50,346.35 L 365.47,346.35 L 365.42,346.36 L 365.36,346.36 L 365.25,346.37 L 365.20,346.36 L 365.12,346.33 L 365.10,346.32 L 365.08,346.28 L 365.08,346.27 L 365.03,346.19 L 365.02,346.13 L 365.03,346.09 L 365.05,346.04 L 365.09,346.01 L 365.14,346.00 L 365.22,346.00 L 365.35,345.96 L 365.38,345.95 L 365.43,345.91 L 365.46,345.87 L 365.47,345.82 L 365.47,345.76 L 365.46,345.72 L 365.44,345.68 L 365.41,345.64 L 365.36,345.61 L 365.32,345.61 L 365.24,345.58 L 365.19,345.55 L 365.17,345.51 L 365.17,345.47 L 365.23,345.41 L 365.26,345.37 L 365.28,345.35 L 365.34,345.25 L 365.34,345.21 L 365.32,345.18 L 365.29,345.15 L 365.24,345.12 L 365.19,345.08 L 365.15,345.04 L 365.11,345.00 L 365.04,344.96 L 364.99,344.95 L 364.91,344.96 L 364.85,344.96 L 364.82,344.93 L 364.79,344.90 L 364.77,344.86 L 364.75,344.79 L 364.76,344.74 L 364.77,344.71 L 364.78,344.66 L 364.79,344.60 L 364.79,344.57 L 364.78,344.51 L 364.78,344.46 L 364.78,344.37 L 364.76,344.33 L 364.75,344.31 L 364.72,344.29 L 364.67,344.28 L 364.63,344.26 L 364.59,344.25 L 364.55,344.23 L 364.47,344.24 L 364.38,344.18 L 364.35,344.14 L 364.36,344.09 L 364.37,344.03 L 364.38,343.99 L 364.39,343.94 L 364.40,343.90 L 364.36,343.85 L 364.26,343.78 L 364.18,343.76 L 364.14,343.74 L 364.12,343.74 L 364.08,343.76 L 364.04,343.78 L 363.99,343.79 L 363.95,343.78 L 363.84,343.76 L 363.77,343.73 L 363.74,343.71 L 363.73,343.68 L 363.73,343.62 L 363.74,343.53 L 363.67,343.44 L 363.58,343.41 L 363.53,343.41 L 363.40,343.57 L 363.35,343.64 L 363.22,343.68 L 363.15,343.70 L 363.05,343.71 L 362.96,343.74 L 362.91,343.77 L 362.88,343.80 L 362.88,343.86 L 362.90,343.93 L 362.91,343.97 L 362.91,344.02 L 362.88,344.15 L 362.84,344.20 L 362.82,344.21 L 362.79,344.23 L 362.76,344.24 L 362.72,344.25 L 362.68,344.25 L 362.64,344.23 L 362.62,344.22 L 362.58,344.16 L 362.51,344.11 L 362.48,344.10 L 362.43,344.09 L 362.36,344.13 L 362.31,344.13 L 362.27,344.12 L 362.24,344.10 L 362.19,344.04 L 362.17,343.99 L 362.15,343.93 L 362.10,343.83 L 362.09,343.80 L 362.08,343.76 L 362.06,343.71 L 362.03,343.67 L 361.99,343.63 L 361.95,343.58 L 361.91,343.54 L 361.85,343.50 L 361.79,343.48 L 361.75,343.48 L 361.71,343.48 L 361.67,343.50 L 361.63,343.51 L 361.58,343.50 L 361.55,343.48 L 361.48,343.43 L 361.45,343.40 L 361.40,343.36 L 361.36,343.33 L 361.31,343.29 L 361.24,343.23 L 361.19,343.18 L 361.11,343.19 L 361.00,343.22 L 360.89,343.25 L 360.88,343.25 L 360.81,343.22 L 360.72,343.24 L 360.65,343.23 L 360.63,343.21 L 360.61,343.18 L 360.59,343.17 L 360.56,343.20 L 360.54,343.24 L 360.55,343.32 L 360.53,343.37 L 360.48,343.40 L 360.35,343.43 L 360.28,343.44 L 360.21,343.46 L 360.16,343.47 L 360.09,343.47 L 359.98,343.42 L 359.95,343.40 L 359.94,343.38 L 359.92,343.36 L 359.89,343.36 L 359.86,343.38 L 359.83,343.40 L 359.79,343.43 L 359.77,343.43 L 359.75,343.42 L 359.70,343.35 L 359.66,343.32 L 359.61,343.32 L 359.45,343.37 L 359.35,343.38 L 359.32,343.40 L 359.29,343.43 L 359.25,343.46 L 359.23,343.49 L 359.22,343.52 L 359.21,343.56 L 359.19,343.64 L 359.20,343.66 L 359.24,343.70 L 359.24,343.73 L 359.23,343.75 L 359.20,343.77 L 359.14,343.83 L 359.06,343.83 L 358.98,343.81 L 358.91,343.81 L 358.89,343.81 L 358.83,343.82 L 358.79,343.83 L 358.75,343.89 L 358.74,343.95 L 358.73,343.99 L 358.70,344.01 L 358.66,344.03 L 358.63,344.04 L 358.60,344.04 L 358.57,344.05 L 358.50,344.06 L 358.46,344.06 L 358.40,344.08 L 358.34,344.12 L 358.31,344.14 L 358.25,344.15 L 358.16,344.15 L 358.07,344.16 L 357.99,344.17 L 357.92,344.18 L 357.83,344.20 L 357.78,344.18 L 357.74,344.17 L 357.68,344.14 L 357.65,344.13 L 357.63,344.14 L 357.58,344.17 L 357.54,344.20 L 357.51,344.23 L 357.47,344.26 L 357.41,344.26 L 357.40,344.26 L 357.33,344.27 L 357.25,344.29 L 357.18,344.32 L 357.10,344.34 L 357.03,344.37 L 356.98,344.39 L 356.94,344.47 L 356.90,344.51 L 356.85,344.55 L 356.76,344.62 L 356.72,344.67 L 356.67,344.70 L 356.65,344.74 L 356.61,344.77 L 356.59,344.79 L 356.52,344.80 L 356.48,344.85 L 356.44,344.87 L 356.40,344.90 L 356.35,344.91 L 356.30,344.93 L 356.24,344.93 L 356.14,344.95 L 356.07,344.96 L 356.04,344.95 L 355.98,344.96 L 355.94,344.97 L 355.89,344.98 L 355.87,345.01 L 355.82,345.09 L 355.81,345.12 L 355.80,345.16 L 355.79,345.17 L 355.77,345.17 L 355.71,345.18 L 355.69,345.18 L 355.66,345.24 L 355.65,345.26 L 355.64,345.32 L 355.63,345.40 L 355.60,345.44 L 355.54,345.45 L 355.45,345.46 L 355.40,345.47 L 355.29,345.52 L 355.24,345.55 L 355.16,345.59 L 355.12,345.60 L 355.04,345.61 L 355.00,345.62 L 354.98,345.63 L 354.95,345.67 L 354.92,345.69 L 354.89,345.71 L 354.86,345.73 L 354.83,345.75 L 354.81,345.75 L 354.78,345.75 L 354.76,345.74 L 354.74,345.74 L 354.71,345.75 L 354.63,345.80 L 354.59,345.82 L 354.56,345.82 L 354.53,345.80 L 354.49,345.76 L 354.48,345.76 L 354.44,345.78 L 354.41,345.76 L 354.37,345.77 L 354.34,345.80 L 354.31,345.82 L 354.29,345.84 L 354.26,345.86 L 354.23,345.89 L 354.21,345.89 L 354.19,345.88 L 354.17,345.86 L 354.14,345.86 L 354.13,345.86 L 354.09,345.90 L 354.07,345.91 L 354.05,345.94 L 354.03,345.96 L 354.04,346.02 L 354.03,346.04 L 354.01,346.06 L 354.00,346.08 L 353.97,346.07 L 353.92,346.06 L 353.88,346.06 L 353.77,346.06 L 353.72,346.09 L 353.69,346.10 L 353.64,346.12 L 353.62,346.09 L 353.59,346.08 L 353.57,346.09 L 353.56,346.08 L 353.55,346.08 L 353.52,346.10 L 353.48,346.09 L 353.45,346.08 L 353.42,346.12 L 353.38,346.16 L 353.34,346.20 L 353.31,346.22 L 353.30,346.22 L 353.27,346.20 L 353.24,346.19 L 353.18,346.15 L 353.12,346.09 L 353.00,346.00 L 352.91,345.95 L 352.80,345.99 L 352.73,345.94 L 352.69,345.94 L 352.63,345.97 L 352.51,346.07 L 352.43,346.14 L 352.28,346.20 L 352.11,346.26 L 351.94,346.33 L 351.90,346.32 L 351.83,346.32 L 351.63,346.32 L 351.45,346.32 L 351.07,346.32 L 350.76,346.32 L 350.63,346.30 L 350.60,346.29 L 350.31,346.22 L 350.23,346.22 L 350.05,346.24 L 349.78,346.25 L 349.68,346.26 L 349.32,346.46 L 349.23,346.50 L 349.18,346.54 L 349.06,346.52 L 348.65,346.46 L 348.61,346.48 L 348.59,346.49 L 348.58,346.45 L 348.58,346.43 L 348.55,346.37 L 348.43,346.35 L 348.41,346.28 L 348.33,346.23 L 348.30,346.20 L 348.22,346.10 L 348.16,346.10 L 348.12,346.03 L 348.07,345.94 L 348.04,345.86 L 348.03,345.80 L 348.01,345.76 L 347.99,345.73 L 347.97,345.72 L 347.89,345.72 L 347.84,345.71 L 347.80,345.67 L 347.74,345.64 L 347.69,345.65 L 347.64,345.66 L 347.55,345.69 L 347.50,345.70 L 347.45,345.73 L 347.42,345.75 L 347.39,345.78 L 347.36,345.84 L 347.34,345.89 L 347.33,345.92 L 347.31,345.96 L 347.28,346.00 L 347.24,346.02 L 347.19,346.03 L 347.14,346.02 L 347.05,345.99 L 346.95,345.98 L 346.90,345.98 L 346.82,345.98 L 346.77,345.96 L 346.74,345.95 L 346.71,345.95 L 346.68,345.98 L 346.66,346.03 L 346.64,346.05 L 346.62,346.07 L 346.60,346.09 L 346.58,346.12 L 346.57,346.15 L 346.56,346.18 L 346.54,346.21 L 346.47,346.27 L 346.44,346.29 L 346.42,346.34 L 346.42,346.38 L 346.37,346.44 L 346.28,346.48 L 346.26,346.50 L 346.23,346.52 L 346.23,346.57 L 346.22,346.60 L 346.20,346.65 L 346.19,346.70 L 346.17,346.73 L 346.15,346.75 L 346.11,346.78 L 346.08,346.80 L 346.07,346.83 L 346.07,346.85 L 346.07,346.89 L 346.07,346.96 L 346.04,347.01 L 346.01,347.05 L 346.00,347.08 L 345.97,347.14 L 345.96,347.16 L 345.93,347.19 L 345.91,347.22 L 345.88,347.25 L 345.85,347.29 L 345.83,347.32 L 345.81,347.34 L 345.80,347.36 L 345.79,347.38 L 345.78,347.40 L 345.74,347.40 L 345.69,347.38 L 345.65,347.36 L 345.62,347.33 L 345.58,347.31 L 345.55,347.29 L 345.54,347.25 L 345.52,347.21 L 345.50,347.19 L 345.48,347.14 L 345.47,347.12 L 345.45,347.11 L 345.41,347.11 L 345.39,347.13 L 345.29,347.15 L 345.22,347.17 L 345.20,347.18 L 345.20,347.21 L 345.19,347.26 L 345.16,347.30 L 345.14,347.31 L 345.11,347.32 L 345.08,347.33 L 344.96,347.34 L 344.91,347.35 L 344.84,347.34 L 344.78,347.35 L 344.73,347.35 L 344.68,347.34 L 344.63,347.31 L 344.57,347.28 L 344.52,347.23 L 344.48,347.18 L 344.45,347.15 L 344.42,347.14 L 344.32,347.14 L 344.26,347.14 L 344.15,347.08 L 344.08,347.04 L 344.01,347.04 L 343.89,346.97 L 343.74,346.93 L 343.64,346.91 L 343.60,346.91 L 343.56,346.93 L 343.52,346.95 L 343.46,346.98 L 343.34,347.05 L 343.27,347.05 L 343.21,347.02 L 343.09,346.96 L 342.99,346.98 L 342.92,346.96 L 342.91,346.95 L 342.90,346.92 L 342.80,346.84 L 342.73,346.83 L 342.66,346.83 L 342.59,346.82 L 342.55,346.81 L 342.47,346.82 L 342.39,346.84 L 342.35,346.83 L 342.44,346.79 L 342.48,346.78 L 342.67,346.67 L 342.74,346.59 L 342.82,346.52 L 342.89,346.51 L 342.93,346.49 L 342.98,346.46 L 343.03,346.30 L 343.00,346.24 L 342.99,346.20 L 343.01,346.16 L 343.06,346.10 L 343.07,346.08 L 343.09,346.01 L 343.15,345.98 L 343.17,345.96 L 343.20,345.89 L 343.21,345.87 L 343.17,345.75 L 343.16,345.71 L 343.11,345.63 L 343.08,345.55 L 343.04,345.54 L 343.01,345.53 L 343.00,345.51 L 343.00,345.45 L 342.93,345.39 L 342.92,345.36 L 342.90,345.30 L 342.91,345.28 L 342.94,345.25 L 342.94,345.24 L 342.93,345.22 L 342.90,345.24 L 342.85,345.24 L 342.79,345.26 L 342.74,345.30 L 342.69,345.29 L 342.66,345.27 L 342.65,345.25 L 342.66,345.19 L 342.64,345.15 L 342.62,345.14 L 342.58,345.18 L 342.55,345.16 L 342.55,345.11 L 342.50,345.09 L 342.51,345.03 L 342.47,344.99 L 342.46,344.91 L 342.43,344.88 L 342.44,344.86 L 342.51,344.85 L 342.50,344.83 L 342.48,344.81 L 342.45,344.80 L 342.45,344.75 L 342.44,344.70 L 342.46,344.69 L 342.49,344.68 L 342.48,344.64 L 342.48,344.60 L 342.45,344.59 L 342.44,344.56 L 342.47,344.54 L 342.51,344.51 L 342.48,344.44 L 342.49,344.40 L 342.48,344.38 L 342.45,344.37 L 342.47,344.32 L 342.47,344.28 L 342.49,344.21 L 342.50,344.18 L 342.51,344.17 L 342.54,344.12 L 342.54,344.11 L 342.53,344.09 L 342.50,344.10 L 342.46,344.11 L 342.44,344.10 L 342.45,344.05 L 342.41,344.01 L 342.40,343.97 L 342.44,343.94 L 342.43,343.92 L 342.43,343.90 L 342.42,343.87 L 342.44,343.85 L 342.45,343.84 L 342.43,343.79 L 342.39,343.75 L 342.34,343.70 L 342.29,343.65 L 342.28,343.62 L 342.26,343.59 L 342.27,343.55 L 342.25,343.48 L 342.25,343.45 L 342.34,343.27 L 342.33,343.25 L 342.31,343.23 L 342.31,343.23 L 342.23,343.16 L 342.19,343.14 L 342.16,343.15 L 342.07,343.12 L 342.07,343.12 L 342.02,343.11 L 341.97,343.10 L 341.91,343.00 L 341.86,342.95 L 341.80,342.92 L 341.72,342.90 L 341.66,342.92 L 341.64,342.95 L 341.60,342.97 L 341.54,342.97 L 341.43,342.90 L 341.37,342.88 L 341.27,342.89 L 341.15,342.93 L 341.05,342.98 L 340.84,343.14 L 340.73,343.19 L 340.64,343.23 L 340.51,343.24 L 340.45,343.27 L 340.39,343.32 L 340.22,343.42 L 340.19,343.46 L 340.05,343.45 L 339.98,343.46 L 339.93,343.50 L 339.87,343.64 L 339.82,343.67 L 339.72,343.70 L 339.61,343.66 L 339.44,343.73 L 339.36,343.79 L 339.30,343.87 L 339.18,343.98 L 339.01,344.13 L 338.83,344.25 L 338.75,344.29 L 338.66,344.32 L 338.58,344.42 L 338.57,344.46 L 338.58,344.56 L 338.62,344.67 L 338.66,344.74 L 338.64,344.78 L 338.50,344.91 L 338.41,344.95 L 338.26,345.07 L 338.16,345.17 L 338.15,345.32 L 338.14,345.34 L 338.06,345.39 L 337.96,345.41 L 337.90,345.45 L 337.86,345.46 L 337.80,345.49 L 337.74,345.54 L 337.64,345.55 L 337.54,345.62 L 337.42,345.70 L 337.37,345.78 L 337.37,345.83 L 337.46,346.00 L 337.50,346.09 L 337.56,346.16 L 337.54,346.17 L 337.34,346.24 L 337.26,346.35 L 337.23,346.43 L 337.20,346.52 L 337.15,346.59 L 337.08,346.61 L 337.02,346.65 L 336.78,346.85 L 336.77,346.90 L 336.77,346.93 L 336.76,346.97 L 336.69,347.05 L 336.55,346.98 L 336.46,346.95 L 336.32,346.84 L 336.19,346.82 L 336.05,346.73 L 335.98,346.66 L 335.96,346.63 L 335.89,346.64 L 335.86,346.65 L 335.83,346.67 L 335.75,346.72 L 335.67,346.79 L 335.63,346.80 L 335.57,346.79 L 335.52,346.77 L 335.49,346.83 L 335.39,347.05 L 335.07,347.11 L 334.73,347.09 L 334.49,347.24 L 334.47,347.37 L 334.28,347.41 L 334.31,347.51 L 334.12,347.52 L 334.05,347.54 L 333.90,347.49 L 333.75,347.55 L 333.63,347.46 L 333.63,347.41 L 333.62,347.35 L 333.59,347.29 L 333.57,347.26 L 333.56,347.25 L 333.54,347.24 L 333.49,347.24 L 333.43,347.24 L 333.41,347.23 L 333.35,347.18 L 333.32,347.15 L 333.27,347.14 L 333.19,347.13 L 333.13,347.13 L 332.98,347.21 L 332.86,347.31 L 332.79,347.38 L 332.72,347.31 L 332.68,347.28 L 332.62,347.24 L 332.61,347.20 L 332.60,347.09 L 332.60,347.04 L 332.56,346.98 L 332.50,346.99 L 332.40,347.04 L 332.34,347.05 L 332.29,347.07 L 332.23,347.08 L 332.17,347.10 L 332.10,347.12 L 331.97,347.14 L 331.91,347.14 L 331.86,347.15 L 331.81,347.17 L 331.76,347.18 L 331.72,347.21 L 331.65,347.23 L 331.59,347.26 L 331.59,347.32 L 331.58,347.35 L 331.58,347.40 L 331.54,347.46 L 331.51,347.50 L 331.48,347.56 L 331.46,347.62 L 331.43,347.68 L 331.43,347.74 L 331.43,347.79 L 331.43,347.83 L 331.42,347.87 L 331.40,347.90 L 331.38,347.92 L 331.34,347.93 L 331.30,347.93 L 331.25,347.95 L 331.22,347.96 L 331.20,347.99 L 331.17,348.01 L 331.15,348.03 L 331.11,348.06 L 331.09,348.08 L 331.06,348.11 L 331.07,348.17 L 331.06,348.21 L 331.06,348.27 L 331.06,348.31 L 331.05,348.42 L 331.05,348.50 L 331.06,348.55 L 331.08,348.58 L 331.08,348.61 L 331.07,348.63 L 331.05,348.67 L 331.00,348.70 L 330.96,348.74 L 330.93,348.78 L 330.91,348.83 L 330.87,348.87 L 330.84,348.90 L 330.80,348.92 L 330.75,348.96 L 330.71,348.99 L 330.65,349.01 L 330.60,349.02 L 330.54,349.04 L 330.49,349.05 L 330.44,349.04 L 330.38,349.00 L 330.28,348.98 L 330.24,348.96 L 330.12,348.95 L 330.06,348.94 L 329.95,348.97 L 329.91,348.98 L 329.85,348.98 L 329.77,348.98 L 329.73,348.98 L 329.64,349.01 L 329.53,349.09 L 329.44,349.16 L 329.36,349.24 L 329.30,349.30 L 329.24,349.34 L 329.20,349.35 L 329.15,349.40 L 329.10,349.48 L 329.08,349.56 L 329.08,349.64 L 329.04,349.76 L 329.01,349.84 L 328.97,349.87 L 328.95,349.86 L 328.93,349.84 L 328.90,349.83 L 328.86,349.81 L 328.80,349.79 L 328.73,349.75 L 328.58,349.69 L 328.55,349.67 L 328.51,349.65 L 328.48,349.64 L 328.43,349.64 L 328.37,349.64 L 328.33,349.62 L 328.30,349.59 L 328.27,349.56 L 328.24,349.53 L 328.22,349.50 L 328.21,349.50 L 328.18,349.50 L 328.16,349.51 L 328.13,349.53 L 328.08,349.57 L 328.04,349.61 L 327.99,349.65 L 327.95,349.67 L 327.87,349.68 L 327.81,349.70 L 327.77,349.69 L 327.74,349.67 L 327.71,349.64 L 327.66,349.61 L 327.61,349.58 L 327.58,349.57 L 327.55,349.56 L 327.54,349.57 L 327.50,349.60 L 327.45,349.61 L 327.39,349.63 L 327.35,349.64 L 327.28,349.66 L 327.25,349.67 L 327.23,349.68 L 327.22,349.71 L 327.21,349.73 L 327.20,349.75 L 327.18,349.79 L 327.16,349.81 L 327.14,349.86 L 327.13,349.89 L 327.12,349.92 L 327.11,349.95 L 327.10,349.97 L 327.08,349.98 L 327.06,349.99 L 327.03,349.99 L 327.00,349.99 L 326.97,349.99 L 326.95,350.00 L 326.94,350.02 L 326.93,350.05 L 326.91,350.06 L 326.89,350.07 L 326.86,350.07 L 326.83,350.07 L 326.78,350.08 L 326.75,350.09 L 326.72,350.13 L 326.71,350.16 L 326.69,350.18 L 326.68,350.20 L 326.66,350.22 L 326.64,350.23 L 326.62,350.24 L 326.61,350.25 L 326.60,350.26 L 326.59,350.27 L 326.59,350.28 L 326.59,350.30 L 326.59,350.33 L 326.60,350.35 L 326.61,350.38 L 326.62,350.40 L 326.65,350.43 L 326.69,350.47 L 326.71,350.49 L 326.72,350.52 L 326.73,350.56 L 326.74,350.59 L 326.77,350.61 L 326.81,350.65 L 326.84,350.68 L 326.86,350.71 L 326.89,350.76 L 326.91,350.81 L 326.94,350.86 L 326.97,350.90 L 326.98,350.91 L 326.99,350.93 L 327.00,350.94 L 327.01,350.94 L 327.03,350.94 L 327.04,350.94 L 327.06,350.92 L 327.08,350.89 L 327.10,350.88 L 327.13,350.89 L 327.15,350.89 L 327.22,350.89 L 327.26,350.89 L 327.29,350.89 L 327.31,350.91 L 327.33,350.94 L 327.34,350.98 L 327.36,351.01 L 327.37,351.04 L 327.40,351.06 L 327.46,351.09 L 327.50,351.13 L 327.54,351.17 L 327.57,351.21 L 327.59,351.26 L 327.60,351.31 L 327.62,351.38 L 327.62,351.44 L 327.63,351.51 L 327.63,351.58 L 327.64,351.62 L 327.65,351.64 L 327.67,351.64 L 327.77,351.63 L 327.84,351.63 L 327.89,351.62 L 327.95,351.60 L 328.02,351.58 L 328.11,351.50 L 328.13,351.53 L 328.16,351.56 L 328.18,351.59 L 328.20,351.62 L 328.23,351.64 L 328.26,351.67 L 328.27,351.70 L 328.26,351.74 L 328.24,351.79 L 328.23,351.83 L 328.24,351.87 L 328.24,351.92 L 328.26,351.96 L 328.28,351.98 L 328.30,352.01 L 328.34,352.04 L 328.37,352.07 L 328.39,352.10 L 328.41,352.14 L 328.42,352.17 L 328.42,352.24 L 328.44,352.28 L 328.46,352.32 L 328.49,352.37 L 328.51,352.42 L 328.52,352.45 L 328.52,352.50 L 328.51,352.51 L 328.47,352.57 L 328.42,352.64 L 328.39,352.67 L 328.39,352.69 L 328.39,352.70 L 328.41,352.75 L 328.42,352.79 L 328.42,352.86 L 328.42,352.90 L 328.43,352.95 L 328.41,353.02 L 328.41,353.05 L 328.41,353.08 L 328.43,353.11 L 328.45,353.17 L 328.46,353.19 L 328.48,353.23 L 328.51,353.29 L 328.52,353.31 L 328.59,353.39 L 328.63,353.43 L 328.69,353.48 L 328.72,353.51 L 328.75,353.56 L 328.78,353.64 L 328.83,353.70 L 328.87,353.76 L 328.90,353.80 L 328.94,353.83 L 328.95,353.84 L 328.96,353.89 L 328.97,353.92 L 328.97,353.93 L 328.94,354.01 L 328.90,354.17 L 328.89,354.20 L 328.87,354.22 L 328.84,354.26 L 328.83,354.27 L 328.81,354.29 L 328.75,354.33 L 328.71,354.34 L 328.70,354.36 L 328.68,354.38 L 328.66,354.42 L 328.65,354.44 L 328.61,354.47 L 328.60,354.49 L 328.59,354.49 L 328.60,354.50 L 328.61,354.51 L 328.63,354.53 L 328.66,354.58 L 328.68,354.61 L 328.70,354.68 L 328.71,354.72 L 328.72,354.76 L 328.72,354.85 L 328.73,354.91 L 328.73,354.93 L 328.73,354.95 L 328.72,354.95 L 328.68,354.97 L 328.64,355.00 L 328.62,355.06 L 328.62,355.09 L 328.61,355.10 L 328.60,355.13 L 328.59,355.15 L 328.57,355.16 L 328.55,355.18 L 328.53,355.21 L 328.53,355.23 L 328.53,355.27 L 328.52,355.32 L 328.52,355.33 L 328.54,355.35 L 328.58,355.40 L 328.60,355.43 L 328.63,355.47 L 328.64,355.49 L 328.66,355.54 L 328.67,355.57 L 328.67,355.61 L 328.66,355.66 L 328.64,355.71 L 328.63,355.72 L 328.63,355.74 L 328.64,355.76 L 328.65,355.77 L 328.68,355.79 L 328.69,355.81 L 328.71,355.84 L 328.71,355.87 L 328.70,355.91 L 328.67,355.98 L 328.64,356.04 L 328.64,356.06 L 328.64,356.08 L 328.67,356.12 L 328.69,356.14 L 328.71,356.15 L 328.84,356.21 L 328.86,356.21 L 328.87,356.22 L 328.90,356.26 L 328.92,356.27 L 328.92,356.28 L 328.93,356.33 L 328.93,356.37 L 328.93,356.41 L 328.92,356.42 L 328.91,356.44 L 328.90,356.48 L 328.91,356.51 L 328.91,356.54 L 328.90,356.55 L 328.89,356.57 L 328.85,356.60 L 328.82,356.63 L 328.79,356.69 L 328.76,356.75 L 328.72,356.79 L 328.71,356.81 L 328.71,356.84 L 328.72,356.85 L 328.74,356.87 L 328.76,356.89 L 328.82,356.92 L 328.85,356.93 L 328.87,356.95 L 328.93,357.05 L 328.94,357.08 L 328.95,357.12 L 328.96,357.13 L 328.97,357.14 L 328.98,357.14 L 329.03,357.12 L 329.05,357.12 L 329.06,357.13 L 329.05,357.21 L 329.06,357.27 L 329.04,357.35 L 329.04,357.37 L 329.03,357.39 L 329.08,357.49 L 329.10,357.51 L 329.13,357.53 L 329.19,357.54 L 329.27,357.54 L 329.31,357.54 L 329.35,357.55 L 329.40,357.60 L 329.52,357.80 L 329.56,357.89 L 329.58,357.92 L 329.58,357.95 L 329.55,358.00 L 329.53,358.04 L 329.53,358.13 L 329.54,358.24 L 329.55,358.34 L 329.56,358.39 L 329.59,358.44 L 329.63,358.47 L 329.65,358.50 L 329.65,358.53 L 329.61,358.63 L 329.62,358.66 L 329.63,358.70 L 329.66,358.74 L 329.70,358.77 L 329.76,358.80 L 329.78,358.81 L 329.82,358.84 L 329.85,358.87 L 329.94,358.89 L 330.01,358.90 L 330.02,358.91 L 330.02,358.93 L 329.95,359.12 L 329.90,359.19 L 329.85,359.25 L 329.80,359.38 L 329.80,359.43 L 329.82,359.60 L 329.83,359.70 L 329.82,359.74 L 329.80,359.77 L 329.74,359.83 L 329.71,359.88 L 329.68,359.98 L 329.68,360.00 L 329.69,360.03 L 329.74,360.16 L 329.69,360.22 L 329.68,360.28 L 329.67,360.37 L 329.65,360.47 L 329.62,360.52 L 329.57,360.57 L 329.51,360.68 L 329.50,360.73 L 329.47,360.80 L 329.43,360.85 L 329.39,360.91 L 329.34,360.96 L 329.33,360.97 L 329.32,360.98 L 329.30,360.98 L 329.25,360.94 L 329.24,360.93 L 329.20,360.93 L 329.17,360.92 L 329.14,360.91 L 329.10,360.91 L 328.99,360.92 L 328.95,360.93 L 328.88,360.97 L 328.82,360.99 L 328.80,361.00 L 328.74,361.04 L 328.68,361.10 L 328.65,361.10 L 328.65,361.06 L 328.60,360.95 L 328.56,360.90 L 328.53,360.82 L 328.52,360.80 L 328.47,360.75 L 328.46,360.74 L 328.43,360.74 L 328.39,360.74 L 328.37,360.73 L 328.36,360.69 L 328.35,360.67 L 328.35,360.65 L 328.36,360.60 L 328.36,360.53 L 328.34,360.52 L 328.32,360.51 L 328.30,360.50 L 328.24,360.46 L 328.19,360.43 L 328.13,360.43 L 328.12,360.42 L 328.08,360.38 L 328.05,360.37 L 327.99,360.35 L 327.90,360.30 L 327.90,360.28 L 327.91,360.26 L 327.93,360.22 L 327.94,360.20 L 327.94,360.17 L 327.94,360.15 L 327.94,360.14 L 327.93,360.12 L 327.90,360.10 L 327.82,360.08 L 327.79,360.04 L 327.73,359.97 L 327.65,359.86 L 327.63,359.84 L 327.62,359.82 L 327.59,359.81 L 327.54,359.81 L 327.51,359.80 L 327.49,359.80 L 327.43,359.76 L 327.40,359.73 L 327.32,359.63 L 327.30,359.61 L 327.28,359.60 L 327.26,359.62 L 327.22,359.66 L 327.17,359.68 L 327.15,359.69 L 327.11,359.69 L 327.00,359.70 L 326.94,359.73 L 326.92,359.73 L 326.89,359.74 L 326.88,359.74 L 326.86,359.75 L 326.78,359.89 L 326.76,359.93 L 326.75,359.95 L 326.73,360.00 L 326.71,360.03 L 326.63,360.11 L 326.60,360.14 L 326.58,360.16 L 326.56,360.21 L 326.53,360.22 L 326.51,360.22 L 326.46,360.22 L 326.41,360.26 L 326.38,360.27 L 326.34,360.28 L 326.32,360.29 L 326.31,360.29 L 326.21,360.27 L 326.16,360.26 L 326.06,360.21 L 326.01,360.20 L 325.97,360.21 L 325.96,360.22 L 325.96,360.23 L 325.96,360.28 L 325.95,360.30 L 325.91,360.37 L 325.89,360.42 L 325.88,360.42 L 325.83,360.41 L 325.77,360.40 L 325.61,360.40 L 325.57,360.40 L 325.56,360.40 L 325.54,360.41 L 325.50,360.46 L 325.48,360.49 L 325.46,360.51 L 325.41,360.58 L 325.41,360.60 L 325.40,360.64 L 325.40,360.65 L 325.39,360.67 L 325.36,360.68 L 325.34,360.68 L 325.30,360.69 L 325.21,360.72 L 325.17,360.75 L 325.06,360.81 L 325.03,360.83 L 325.02,360.84 L 325.01,360.87 L 324.96,360.93 L 324.90,360.99 L 324.77,361.10 L 324.72,361.13 L 324.71,361.14 L 324.66,361.15 L 324.64,361.15 L 324.61,361.15 L 324.58,361.16 L 324.54,361.16 L 324.53,361.17 L 324.51,361.16 L 324.49,361.15 L 324.47,361.13 L 324.44,361.11 L 324.40,361.09 L 324.33,361.04 L 324.28,361.01 L 324.20,361.00 L 324.07,360.96 L 324.02,360.92 L 323.99,360.90 L 323.97,360.87 L 323.95,360.86 L 323.93,360.85 L 323.90,360.85 L 323.86,360.86 L 323.82,360.87 L 323.78,360.89 L 323.74,360.90 L 323.66,360.93 L 323.63,360.95 L 323.55,360.99 L 323.52,361.00 L 323.48,361.00 L 323.46,361.01 L 323.40,361.05 L 323.35,361.09 L 323.34,361.09 L 323.33,361.09 L 323.32,361.08 L 323.29,361.06 L 323.25,361.04 L 323.19,361.02 L 323.12,361.01 L 323.10,361.00 L 323.08,360.99 L 323.05,360.98 L 323.05,360.96 L 323.11,360.87 L 323.14,360.80 L 323.13,360.79 L 323.08,360.79 L 323.05,360.79 L 323.01,360.77 L 322.99,360.76 L 322.95,360.75 L 322.91,360.73 L 322.90,360.73 L 322.84,360.72 L 322.81,360.71 L 322.72,360.70 L 322.63,360.69 L 322.63,360.69 L 322.60,360.70 L 322.58,360.71 L 322.51,360.71 L 322.41,360.75 L 322.33,360.76 L 322.27,360.79 L 322.20,360.80 L 322.15,360.78 L 322.11,360.75 L 322.07,360.73 L 322.05,360.73 L 322.00,360.73 L 321.99,360.72 L 321.95,360.68 L 321.90,360.66 L 321.88,360.65 L 321.84,360.64 L 321.69,360.53 L 321.63,360.51 L 321.58,360.51 L 321.49,360.49 L 321.43,360.46 L 321.40,360.45 L 321.35,360.41 L 321.30,360.38 L 321.28,360.38 L 321.21,360.39 L 321.13,360.40 L 321.05,360.43 L 321.02,360.43 L 321.00,360.43 L 320.93,360.39 L 320.87,360.33 L 320.82,360.34 L 320.76,360.35 L 320.69,360.40 L 320.67,360.42 L 320.64,360.45 L 320.53,360.50 L 320.52,360.52 L 320.51,360.53 L 320.50,360.59 L 320.49,360.61 L 320.49,360.62 L 320.49,360.74 L 320.49,360.75 L 320.48,360.76 L 320.47,360.76 L 320.45,360.78 L 320.43,360.84 L 320.42,360.87 L 320.41,360.90 L 320.41,360.93 L 320.40,361.06 L 320.39,361.11 L 320.38,361.21 L 320.37,361.24 L 320.37,361.26 L 320.41,361.33 L 320.41,361.35 L 320.40,361.38 L 320.38,361.41 L 320.36,361.44 L 320.28,361.51 L 320.21,361.55 L 320.11,361.58 L 320.03,361.61 L 319.95,361.63 L 319.92,361.64 L 319.88,361.64 L 319.85,361.64 L 319.83,361.66 L 319.82,361.67 L 319.77,361.72 L 319.76,361.73 L 319.73,361.75 L 319.72,361.76 L 319.71,361.77 L 319.71,361.79 L 319.73,361.84 L 319.73,361.86 L 319.73,361.91 L 319.72,361.93 L 319.71,361.93 L 319.67,361.94 L 319.64,361.96 L 319.62,361.97 L 319.59,362.00 L 319.57,362.02 L 319.55,362.04 L 319.53,362.11 L 319.50,362.14 L 319.49,362.18 L 319.48,362.19 L 319.47,362.20 L 319.45,362.20 L 319.41,362.20 L 319.38,362.21 L 319.33,362.21 L 319.31,362.21 L 319.29,362.17 L 319.26,362.14 L 319.22,362.12 L 319.19,362.11 L 319.10,362.12 L 319.08,362.13 L 319.05,362.14 L 319.02,362.15 L 319.00,362.16 L 318.97,362.15 L 318.94,362.15 L 318.89,362.14 L 318.70,362.08 L 318.64,362.08 L 318.60,362.07 L 318.59,362.07 L 318.55,362.11 L 318.53,362.13 L 318.48,362.17 L 318.40,362.21 L 318.38,362.24 L 318.37,362.27 L 318.36,362.32 L 318.36,362.33 L 318.32,362.37 L 318.31,362.39 L 318.30,362.41 L 318.29,362.45 L 318.29,362.53 L 318.29,362.55 L 318.28,362.55 L 318.24,362.59 L 318.23,362.60 L 318.22,362.63 L 318.18,362.68 L 318.16,362.71 L 318.10,362.75 L 317.98,362.83 L 317.96,362.85 L 317.95,362.88 L 317.94,362.97 L 317.95,363.07 L 317.96,363.13 L 317.97,363.17 L 317.96,363.20 L 317.93,363.22 L 317.87,363.24 L 317.71,363.26 L 317.65,363.26 L 317.62,363.28 L 317.56,363.33 L 317.52,363.35 L 317.50,363.35 L 317.48,363.35 L 317.45,363.33 L 317.41,363.32 L 317.36,363.33 L 317.34,363.34 L 317.24,363.41 L 317.07,363.44 L 316.93,363.48 L 316.85,363.47 L 316.83,363.47 L 316.83,363.47 L 316.84,363.48 L 316.84,363.49 L 316.84,363.50 L 316.84,363.52 L 316.85,363.53 L 316.85,363.55 L 316.86,363.57 L 316.86,363.57 L 316.88,363.62 L 316.89,363.63 L 316.89,363.63 L 316.90,363.65 L 316.91,363.66 L 316.91,363.67 L 316.91,363.68 L 316.91,363.69 L 316.91,363.70 L 316.90,363.70 L 316.89,363.72 L 316.88,363.73 L 316.88,363.73 L 316.88,363.74 L 316.88,363.75 L 316.88,363.75 L 316.91,363.78 L 316.92,363.78 L 316.92,363.79 L 316.92,363.79 L 316.92,363.80 L 316.92,363.81 L 316.92,363.81 L 316.92,363.82 L 316.90,363.84 L 316.89,363.85 L 316.89,363.86 L 316.89,363.87 L 316.89,363.89 L 316.89,363.89 L 316.89,363.92 L 316.89,363.92 L 316.89,363.94 L 316.88,363.95 L 316.88,363.97 L 316.87,363.98 L 316.87,363.99 L 316.88,364.02 L 316.88,364.04 L 316.90,364.08 L 316.87,364.15 L 316.84,364.17 L 316.83,364.23 L 316.79,364.29 L 316.79,364.30 L 316.78,364.32 L 316.77,364.33 L 316.77,364.35 L 316.76,364.37 L 316.76,364.38 L 316.75,364.39 L 316.74,364.40 L 316.74,364.41 L 316.72,364.43 L 316.71,364.45 L 316.70,364.46 L 316.59,364.51 L 316.50,364.53 L 316.47,364.62 L 316.47,364.64 L 316.47,364.66 L 316.47,364.69 L 316.47,364.71 L 316.48,364.73 L 316.48,364.74 L 316.47,364.76 L 316.46,364.76 L 316.43,364.76 L 316.40,364.76 L 316.39,364.76 L 316.37,364.79 L 316.36,364.80 L 316.35,364.82 L 316.34,364.82 L 316.34,364.83 L 316.33,364.83 L 316.32,364.84 L 316.31,364.84 L 316.29,364.87 L 316.25,364.89 L 316.24,364.91 L 316.22,364.93 L 316.21,364.95 L 316.19,364.97 L 316.18,364.99 L 316.17,365.01 L 316.16,365.04 L 316.16,365.04 L 316.16,365.04 L 316.15,365.04 L 316.15,365.04 L 316.14,365.04 L 316.08,365.03 L 316.08,365.03 L 316.07,365.03 L 316.05,365.02 L 316.05,365.01 L 316.03,365.01 L 315.97,365.05 L 315.94,365.07 L 315.88,365.11 L 315.87,365.12 L 315.86,365.12 L 315.85,365.13 L 315.84,365.13 L 315.82,365.13 L 315.76,365.15 L 315.73,365.19 L 315.70,365.24 L 315.68,365.26 L 315.68,365.27 L 315.68,365.28 L 315.67,365.29 L 315.67,365.29 L 315.67,365.30 L 315.66,365.30 L 315.66,365.30 L 315.65,365.31 L 315.64,365.31 L 315.63,365.32 L 315.62,365.32 L 315.61,365.32 L 315.60,365.32 L 315.58,365.32 L 315.58,365.32 L 315.54,365.31 L 315.48,365.30 L 315.39,365.26 L 315.36,365.31 L 315.35,365.32 L 315.35,365.32 L 315.34,365.33 L 315.27,365.38 L 315.27,365.39 L 315.27,365.40 L 315.27,365.40 L 315.27,365.41 L 315.26,365.42 L 315.26,365.42 L 315.25,365.42 L 315.24,365.42 L 315.24,365.42 L 315.13,365.36 L 315.10,365.37 L 315.08,365.36 L 315.08,365.36 L 315.08,365.36 L 315.07,365.36 L 315.06,365.36 L 315.06,365.36 L 315.05,365.37 L 315.02,365.33 L 315.01,365.33 L 315.01,365.32 L 315.00,365.32 L 315.00,365.32 L 314.99,365.32 L 314.97,365.33 L 314.96,365.34 L 314.95,365.35 L 314.94,365.35 L 314.93,365.35 L 314.86,365.36 L 314.84,365.37 L 314.82,365.37 L 314.78,365.39 L 314.76,365.40 L 314.73,365.39 L 314.71,365.39 L 314.70,365.40 L 314.68,365.40 L 314.66,365.41 L 314.65,365.41 L 314.60,365.44 L 314.59,365.44 L 314.59,365.44 L 314.58,365.44 L 314.57,365.44 L 314.57,365.43 L 314.55,365.42 L 314.55,365.41 L 314.54,365.40 L 314.53,365.39 L 314.52,365.39 L 314.52,365.38 L 314.45,365.40 L 314.33,365.42 L 314.26,365.45 L 314.21,365.45 L 314.15,365.46 L 314.15,365.46 L 314.14,365.46 L 314.13,365.46 L 314.13,365.47 L 314.09,365.47 L 314.08,365.50 L 313.99,365.55 L 313.98,365.58 L 313.98,365.59 L 313.98,365.60 L 313.95,365.64 L 313.94,365.65 L 313.94,365.65 L 313.93,365.66 L 313.92,365.66 L 313.90,365.67 L 313.87,365.70 L 313.70,365.73 L 313.68,365.78 L 313.67,365.79 L 313.66,365.80 L 313.65,365.81 L 313.64,365.81 L 313.64,365.82 L 313.63,365.82 L 313.63,365.82 L 313.62,365.83 L 313.61,365.84 L 313.61,365.87 L 313.59,365.88 L 313.58,365.89 L 313.57,365.90 L 313.55,365.92 L 313.53,365.94 L 313.45,365.98 L 313.47,366.00 L 313.48,366.02 L 313.49,366.03 L 313.51,366.04 L 313.53,366.07 L 313.55,366.09 L 313.56,366.11 L 313.56,366.12 L 313.57,366.14 L 313.58,366.15 L 313.58,366.16 L 313.59,366.20 L 313.59,366.21 L 313.60,366.22 L 313.60,366.23 L 313.60,366.24 L 313.60,366.24 L 313.60,366.25 L 313.60,366.25 L 313.60,366.26 L 313.60,366.29 L 313.60,366.38 L 313.60,366.41 L 313.59,366.43 L 313.57,366.47 L 313.57,366.49 L 313.57,366.52 L 313.63,366.63 L 313.64,366.69 L 313.68,366.80 L 313.74,366.87 L 313.86,366.96 L 313.89,366.97 L 313.92,366.98 L 313.97,366.97 L 313.99,366.97 L 314.00,366.97 L 314.01,366.99 L 314.10,367.09 L 314.10,367.12 L 314.10,367.15 L 314.10,367.18 L 314.10,367.20 L 314.10,367.23 L 314.14,367.29 L 314.16,367.34 L 314.17,367.38 L 314.18,367.45 L 314.19,367.52 L 314.19,367.59 L 314.18,367.62 L 314.16,367.64 L 314.14,367.67 L 314.14,367.70 L 314.14,367.73 L 314.12,367.76 L 314.07,367.81 L 314.02,367.91 L 313.99,367.97 L 313.97,368.07 L 313.97,368.15 L 313.97,368.22 L 313.97,368.33 L 313.96,368.41 L 313.93,368.44 L 313.85,368.55 L 313.79,368.63 L 313.76,368.67 L 313.73,368.69 L 313.73,368.72 L 313.73,368.76 L 313.76,368.86 L 313.79,368.98 L 313.79,369.04 L 313.78,369.06 L 313.76,369.10 L 313.70,369.20 L 313.69,369.22 L 313.69,369.25 L 313.69,369.27 L 313.70,369.29 L 313.76,369.37 L 313.80,369.43 L 313.80,369.45 L 313.79,369.46 L 313.71,369.48 L 313.67,369.49 L 313.64,369.50 L 313.62,369.52 L 313.55,369.57 L 313.50,369.59 L 313.44,369.59 L 313.34,369.57 L 313.31,369.56 L 313.28,369.56 L 313.27,369.57 L 313.27,369.59 L 313.26,369.61 L 313.25,369.64 L 313.25,369.68 L 313.19,369.84 L 313.18,369.87 L 313.16,369.90 L 313.13,369.92 L 313.11,369.95 L 313.11,369.97 L 313.11,370.00 L 313.11,370.03 L 313.11,370.06 L 313.10,370.08 L 313.09,370.09 L 313.07,370.11 L 313.05,370.14 L 313.04,370.16 L 312.98,370.28 L 312.91,370.41 L 312.89,370.45 L 312.87,370.47 L 312.84,370.48 L 312.80,370.49 L 312.76,370.51 L 312.70,370.54 L 312.65,370.58 L 312.58,370.67 L 312.55,370.72 L 312.55,370.74 L 312.55,370.77 L 312.55,370.80 L 312.55,370.84 L 312.55,370.87 L 312.54,370.92 L 312.53,370.96 L 312.51,371.01 L 312.51,371.04 L 312.51,371.07 L 312.54,371.16 L 312.57,371.21 L 312.56,371.24 L 312.55,371.27 L 312.53,371.30 L 312.51,371.33 L 312.50,371.35 L 312.49,371.43 L 312.49,371.46 L 312.50,371.50 L 312.52,371.60 L 312.51,371.62 L 312.50,371.64 L 312.48,371.66 L 312.45,371.69 L 312.29,371.75 L 312.25,371.75 L 312.21,371.76 L 312.16,371.76 L 312.11,371.76 L 312.07,371.78 L 312.06,371.79 L 312.06,371.81 L 312.06,371.83 L 312.06,371.88 L 312.04,371.94 L 311.99,372.03 L 311.95,372.12 L 311.94,372.16 L 311.95,372.19 L 311.95,372.23 L 311.95,372.27 L 311.95,372.30 L 311.94,372.35 L 311.88,372.48 L 311.80,372.65 L 311.75,372.72 L 311.71,372.75 L 311.68,372.76 L 311.67,372.76 L 311.63,372.76 L 311.58,372.74 L 311.55,372.74 L 311.53,372.75 L 311.51,372.78 L 311.48,372.81 L 311.47,372.84 L 311.46,372.88 L 311.45,372.92 L 311.42,372.95 L 311.40,372.97 L 311.39,372.97 L 311.36,372.97 L 311.30,372.94 L 311.19,372.89 L 311.08,372.83 L 310.96,372.73 L 310.87,372.68 L 310.86,372.67 L 310.79,372.61 L 310.74,372.53 L 310.72,372.52 L 310.69,372.48 L 310.67,372.40 L 310.66,372.38 L 310.63,372.34 L 310.42,372.15 L 310.35,372.07 L 310.34,372.05 L 310.28,372.04 L 310.28,372.04 L 310.27,372.04 L 310.25,372.04 L 310.23,372.05 L 310.21,372.07 L 310.18,372.08 L 310.14,372.08 L 310.11,372.08 L 310.07,372.08 L 310.02,372.07 L 309.99,372.07 L 309.84,372.07 L 309.73,372.09 L 309.63,372.11 L 309.59,372.12 L 309.50,372.17 L 309.43,372.20 L 309.23,372.26 L 309.20,372.27 L 309.14,372.27 L 309.11,372.27 L 309.07,372.29 L 309.03,372.31 L 308.98,372.33 L 308.94,372.34 L 308.94,372.35 L 308.81,372.26 L 308.65,372.15 L 308.55,372.10 L 308.45,372.08 L 308.42,372.08 L 308.39,372.08 L 308.34,372.10 L 308.28,372.12 L 308.24,372.15 L 308.20,372.21 L 308.14,372.29 L 308.07,372.37 L 307.94,372.56 L 307.91,372.62 L 307.88,372.65 L 307.86,372.67 L 307.84,372.67 L 307.70,372.66 L 307.66,372.64 L 307.63,372.63 L 307.55,372.57 L 307.52,372.57 L 307.50,372.57 L 307.48,372.57 L 307.42,372.58 L 307.38,372.58 L 307.29,372.57 L 307.24,372.56 L 307.22,372.55 L 307.18,372.53 L 307.16,372.52 L 307.05,372.37 L 307.04,372.34 L 307.03,372.31 L 307.02,372.23 L 307.00,372.02 L 307.00,371.98 L 306.99,371.94 L 306.99,371.92 L 306.98,371.89 L 306.96,371.87 L 306.95,371.84 L 306.93,371.83 L 306.90,371.81 L 306.85,371.78 L 306.83,371.77 L 306.75,371.76 L 306.62,371.77 L 306.56,371.78 L 306.51,371.79 L 306.48,371.80 L 306.46,371.82 L 306.43,371.85 L 306.40,371.87 L 306.37,371.88 L 306.33,371.90 L 306.25,371.92 L 306.17,371.93 L 306.11,371.93 L 305.95,371.91 L 305.86,371.89 L 305.83,371.89 L 305.80,371.89 L 305.77,371.89 L 305.72,371.89 L 305.64,371.89 L 305.50,371.88 L 305.42,371.86 L 305.28,371.83 L 305.23,371.80 L 305.20,371.79 L 305.19,371.79 L 305.19,371.81 L 305.20,371.83 L 305.21,371.87 L 305.22,371.91 L 305.20,372.01 L 305.19,372.04 L 305.17,372.07 L 305.15,372.12 L 305.14,372.14 L 305.14,372.17 L 305.14,372.19 L 305.14,372.21 L 305.15,372.25 L 305.19,372.30 L 305.21,372.36 L 305.22,372.45 L 305.22,372.50 L 305.22,372.54 L 305.18,372.64 L 305.17,372.66 L 305.17,372.68 L 305.17,372.74 L 305.17,372.81 L 305.18,372.91 L 305.17,373.12 L 305.18,373.18 L 305.18,373.22 L 305.18,373.26 L 305.18,373.29 L 305.19,373.32 L 305.21,373.34 L 305.24,373.41 L 305.28,373.49 L 305.33,373.57 L 305.37,373.64 L 305.39,373.68 L 305.44,373.75 L 305.53,373.85 L 305.59,373.91 L 305.60,373.93 L 305.60,373.95 L 305.60,373.96 L 305.56,373.97 L 305.54,373.97 L 305.53,373.97 L 305.51,373.97 L 305.49,373.97 L 305.48,373.96 L 305.46,373.96 L 305.43,373.93 L 305.42,373.92 L 305.41,373.91 L 305.40,373.91 L 305.39,373.90 L 305.38,373.90 L 305.37,373.90 L 305.36,373.90 L 305.36,373.90 L 305.34,373.89 L 305.33,373.89 L 305.30,373.86 L 305.29,373.85 L 305.28,373.85 L 305.26,373.84 L 305.26,373.84 L 305.24,373.84 L 305.17,373.85 L 305.15,373.84 L 305.14,373.83 L 305.12,373.83 L 305.10,373.81 L 305.10,373.81 L 305.09,373.81 L 305.08,373.80 L 305.07,373.80 L 305.06,373.81 L 305.06,373.81 L 305.05,373.82 L 305.05,373.82 L 305.04,373.82 L 305.03,373.82 L 305.02,373.82 L 305.02,373.82 L 305.01,373.81 L 305.00,373.80 L 304.98,373.79 L 304.97,373.79 L 304.96,373.78 L 304.95,373.78 L 304.94,373.78 L 304.93,373.77 L 304.88,373.77 L 304.86,373.75 L 304.84,373.74 L 304.82,373.73 L 304.80,373.72 L 304.79,373.73 L 304.77,373.73 L 304.76,373.73 L 304.75,373.74 L 304.73,373.74 L 304.72,373.75 L 304.71,373.75 L 304.69,373.76 L 304.67,373.77 L 304.65,373.78 L 304.64,373.79 L 304.53,373.84 L 304.43,373.87 L 304.41,373.88 L 304.40,373.88 L 304.38,373.88 L 304.36,373.88 L 304.35,373.88 L 304.33,373.88 L 304.32,373.87 L 304.24,373.85 L 304.14,373.83 L 304.11,373.82 L 304.07,373.82 L 304.03,373.82 L 304.00,373.81 L 303.93,373.81 L 303.91,373.83 L 303.90,373.83 L 303.89,373.85 L 303.88,373.86 L 303.86,373.88 L 303.86,373.89 L 303.84,373.91 L 303.83,373.92 L 303.81,373.95 L 303.80,373.96 L 303.78,373.97 L 303.77,373.98 L 303.74,374.00 L 303.73,374.01 L 303.61,374.07 L 303.60,374.08 L 303.56,374.09 L 303.55,374.09 L 303.51,374.10 L 303.49,374.11 L 303.48,374.11 L 303.46,374.11 L 303.44,374.12 L 303.42,374.12 L 303.22,374.12 L 303.21,374.12 L 303.17,374.12 L 303.13,374.12 L 303.11,374.12 L 303.09,374.11 L 303.07,374.11 L 303.06,374.10 L 302.93,374.06 L 302.89,374.06 L 302.84,374.06 L 302.82,374.05 L 302.78,374.05 L 302.67,374.04 L 302.61,374.03 L 302.55,374.02 L 302.49,374.01 L 302.46,374.01 L 302.40,374.00 L 302.33,374.00 L 302.28,373.99 L 302.23,373.98 L 302.17,373.98 L 302.13,373.98 L 302.12,373.98 L 302.09,373.97 L 302.07,373.97 L 302.05,373.96 L 302.03,373.96 L 302.00,373.95 L 301.98,373.94 L 301.95,373.93 L 301.90,373.81 L 301.89,373.80 L 301.88,373.79 L 301.87,373.78 L 301.86,373.77 L 301.86,373.77 L 301.85,373.76 L 301.84,373.76 L 301.83,373.75 L 301.83,373.75 L 301.81,373.76 L 301.80,373.76 L 301.79,373.77 L 301.78,373.76 L 301.77,373.76 L 301.76,373.76 L 301.73,373.74 L 301.69,373.73 L 301.67,373.73 L 301.66,373.73 L 301.64,373.74 L 301.61,373.74 L 301.60,373.74 L 301.57,373.74 L 301.55,373.74 L 301.53,373.74 L 301.50,373.73 L 301.49,373.73 L 301.47,373.73 L 301.43,373.73 L 301.27,373.80 L 301.25,373.79 L 301.22,373.78 L 301.20,373.78 L 301.20,373.77 L 301.18,373.77 L 301.11,373.76 L 301.01,373.72 L 301.00,373.72 L 300.99,373.72 L 300.98,373.73 L 300.94,373.76 L 300.93,373.76 L 300.92,373.76 L 300.92,373.76 L 300.91,373.76 L 300.90,373.75 L 300.90,373.75 L 300.87,373.73 L 300.86,373.72 L 300.85,373.72 L 300.84,373.72 L 300.82,373.72 L 300.80,373.72 L 300.78,373.72 L 300.76,373.74 L 300.75,373.74 L 300.74,373.75 L 300.73,373.75 L 300.72,373.75 L 300.71,373.75 L 300.70,373.74 L 300.70,373.73 L 300.69,373.72 L 300.68,373.72 L 300.67,373.71 L 300.66,373.71 L 300.65,373.70 L 300.64,373.70 L 300.63,373.70 L 300.62,373.70 L 300.61,373.70 L 300.60,373.70 L 300.59,373.71 L 300.58,373.71 L 300.57,373.72 L 300.57,373.72 L 300.53,373.77 L 300.53,373.77 L 300.52,373.78 L 300.52,373.78 L 300.51,373.78 L 300.50,373.77 L 300.50,373.77 L 300.46,373.68 L 300.45,373.68 L 300.45,373.67 L 300.45,373.67 L 300.44,373.67 L 300.43,373.67 L 300.41,373.67 L 300.41,373.66 L 300.40,373.66 L 300.39,373.66 L 300.38,373.65 L 300.36,373.65 L 300.30,373.62 L 300.30,373.62 L 300.29,373.62 L 300.27,373.61 L 300.26,373.61 L 300.25,373.61 L 300.24,373.60 L 300.22,373.60 L 300.21,373.59 L 300.21,373.58 L 300.20,373.57 L 300.20,373.57 L 300.18,373.56 L 300.17,373.56 L 300.16,373.56 L 300.13,373.55 L 300.12,373.55 L 300.11,373.55 L 300.11,373.55 L 299.99,373.49 L 299.98,373.48 L 299.97,373.48 L 299.96,373.47 L 299.96,373.46 L 299.95,373.46 L 299.95,373.44 L 299.93,373.43 L 299.92,373.43 L 299.91,373.42 L 299.90,373.42 L 299.89,373.42 L 299.88,373.42 L 299.87,373.42 L 299.86,373.42 L 299.81,373.45 L 299.76,373.44 L 299.73,373.46 L 299.71,373.46 L 299.68,373.48 L 299.66,373.49 L 299.51,373.53 L 299.47,373.55 L 299.45,373.56 L 299.44,373.56 L 299.43,373.56 L 299.42,373.57 L 299.40,373.57 L 299.38,373.56 L 299.38,373.56 L 299.36,373.56 L 299.35,373.55 L 299.34,373.55 L 299.33,373.55 L 299.32,373.55 L 299.31,373.55 L 299.25,373.55 L 299.25,373.54 L 299.24,373.54 L 299.24,373.53 L 299.23,373.53 L 299.22,373.52 L 299.21,373.51 L 299.19,373.48 L 299.19,373.48 L 299.19,373.48 L 299.19,373.47 L 299.19,373.47 L 299.19,373.46 L 299.19,373.46 L 299.19,373.45 L 299.22,373.42 L 299.24,373.39 L 299.21,373.39 L 299.18,373.39 L 299.04,373.40 L 298.98,373.43 L 298.91,373.45 L 298.90,373.45 L 298.89,373.46 L 298.87,373.47 L 298.84,373.43 L 298.84,373.43 L 298.83,373.42 L 298.83,373.42 L 298.83,373.41 L 298.83,373.41 L 298.83,373.40 L 298.82,373.39 L 298.82,373.39 L 298.82,373.38 L 298.81,373.38 L 298.80,373.37 L 298.79,373.37 L 298.78,373.37 L 298.77,373.37 L 298.77,373.37 L 298.74,373.37 L 298.74,373.36 L 298.73,373.36 L 298.73,373.35 L 298.72,373.34 L 298.71,373.33 L 298.71,373.33 L 298.69,373.32 L 298.66,373.29 L 298.62,373.26 L 298.60,373.24 L 298.59,373.23 L 298.58,373.21 L 298.57,373.20 L 298.56,373.18 L 298.51,373.15 L 298.50,373.10 L 298.47,373.06 L 298.43,373.02 L 298.43,373.02 L 298.42,373.02 L 298.42,373.01 L 298.41,373.01 L 298.41,373.01 L 298.40,373.00 L 298.40,373.00 L 298.39,373.01 L 298.37,373.01 L 298.36,373.02 L 298.35,373.02 L 298.35,373.03 L 298.34,373.03 L 298.33,373.03 L 298.33,373.03 L 298.32,373.04 L 298.32,373.04 L 298.31,373.04 L 298.30,373.05 L 298.30,373.05 L 298.29,373.05 L 298.28,373.05 L 298.28,373.06 L 298.27,373.06 L 298.26,373.06 L 298.26,373.06 L 298.25,373.06 L 298.24,373.07 L 298.23,373.08 L 298.22,373.08 L 298.22,373.08 L 298.21,373.09 L 298.21,373.09 L 298.20,373.09 L 298.20,373.09 L 298.19,373.09 L 298.19,373.10 L 298.15,373.10 L 298.15,373.10 L 298.14,373.09 L 298.14,373.09 L 298.14,373.09 L 298.13,373.09 L 298.13,373.09 L 298.13,373.08 L 298.12,373.08 L 298.12,373.08 L 298.11,373.08 L 298.11,373.08 L 298.10,373.08 L 298.10,373.08 L 298.09,373.08 L 298.07,373.09 L 298.05,373.09 L 298.04,373.08 L 298.04,373.07 L 298.04,373.07 L 298.04,373.06 L 298.03,373.06 L 298.03,373.05 L 298.03,373.04 L 298.03,373.04 L 298.02,373.03 L 298.02,373.03 L 298.01,373.02 L 298.01,373.02 L 298.00,373.02 L 298.00,373.01 L 297.99,373.01 L 297.99,373.01 L 297.98,373.00 L 297.98,373.00 L 297.98,372.99 L 297.98,372.99 L 297.97,372.99 L 297.97,372.98 L 297.97,372.98 L 297.97,372.98 L 297.97,372.97 L 297.97,372.97 L 297.97,372.97 L 297.96,372.97 L 297.96,372.97 L 297.94,372.96 L 297.94,372.96 L 297.93,372.96 L 297.93,372.95 L 297.93,372.95 L 297.92,372.95 L 297.92,372.95 L 297.92,372.94 L 297.92,372.93 L 297.91,372.93 L 297.91,372.92 L 297.91,372.92 L 297.90,372.92 L 297.90,372.91 L 297.90,372.91 L 297.89,372.91 L 297.89,372.91 L 297.88,372.90 L 297.88,372.90 L 297.87,372.90 L 297.87,372.90 L 297.86,372.90 L 297.85,372.90 L 297.84,372.91 L 297.83,372.91 L 297.82,372.91 L 297.80,372.91 L 297.79,372.92 L 297.78,372.92 L 297.77,372.92 L 297.76,372.93 L 297.75,372.93 L 297.74,372.93 L 297.74,372.93 L 297.73,372.93 L 297.72,372.93 L 297.71,372.93 L 297.70,372.93 L 297.70,372.94 L 297.69,372.94 L 297.68,372.94 L 297.68,372.94 L 297.64,372.96 L 297.61,372.97 L 297.61,372.98 L 297.60,372.98 L 297.59,372.99 L 297.59,373.00 L 297.57,373.02 L 297.55,373.02 L 297.54,373.02 L 297.52,373.03 L 297.51,373.03 L 297.50,373.04 L 297.45,373.04 L 297.43,373.04 L 297.41,373.04 L 297.39,373.04 L 297.38,373.05 L 297.36,373.05 L 297.35,373.05 L 297.34,373.05 L 297.33,373.05 L 297.33,373.04 L 297.32,373.04 L 297.32,373.04 L 297.32,373.04 L 297.32,373.04 L 297.31,373.04 L 297.31,373.04 L 297.31,373.04 L 297.31,373.04 L 297.30,373.04 L 297.29,373.04 L 297.28,373.04 L 297.27,373.04 L 297.27,373.02 L 297.27,373.01 L 297.27,373.01 L 297.27,373.00 L 297.27,373.00 L 297.27,373.00 L 297.27,372.99 L 297.27,372.99 L 297.27,372.99 L 297.27,372.98 L 297.26,372.98 L 297.26,372.98 L 297.26,372.98 L 297.26,372.98 L 297.25,372.98 L 297.25,372.98 L 297.25,372.98 L 297.24,372.99 L 297.23,373.00 L 297.22,373.01 L 297.21,373.01 L 297.21,373.01 L 297.20,373.02 L 297.19,373.02 L 297.18,373.02 L 297.17,373.02 L 297.12,373.03 L 297.11,373.03 L 297.11,373.04 L 297.10,373.04 L 297.09,373.05 L 297.08,373.06 L 297.07,373.07 L 297.07,373.07 L 297.04,373.12 L 297.04,373.12 L 297.04,373.12 L 297.03,373.12 L 297.03,373.12 L 297.02,373.12 L 297.02,373.12 L 297.01,373.12 L 297.01,373.12 L 297.00,373.11 L 297.00,373.11 L 297.00,373.11 L 296.99,373.11 L 296.99,373.09 L 296.98,373.08 L 296.98,373.07 L 296.97,373.06 L 296.96,373.05 L 296.96,373.05 L 296.95,373.04 L 296.94,373.03 L 296.94,373.02 L 296.93,373.01 L 296.93,372.99 L 296.92,372.98 L 296.92,372.95 L 296.92,372.95 L 296.92,372.94 L 296.91,372.94 L 296.91,372.93 L 296.91,372.93 L 296.91,372.92 L 296.90,372.92 L 296.90,372.91 L 296.89,372.91 L 296.89,372.91 L 296.89,372.90 L 296.88,372.90 L 296.87,372.90 L 296.87,372.90 L 296.86,372.89 L 296.86,372.89 L 296.86,372.88 L 296.85,372.88 L 296.85,372.88 L 296.85,372.88 L 296.84,372.87 L 296.84,372.87 L 296.83,372.87 L 296.83,372.87 L 296.82,372.87 L 296.82,372.87 L 296.80,372.87 L 296.79,372.87 L 296.78,372.88 L 296.77,372.88 L 296.76,372.88 L 296.74,372.89 L 296.73,372.89 L 296.72,372.90 L 296.70,372.90 L 296.69,372.90 L 296.68,372.90 L 296.66,372.90 L 296.64,372.90 L 296.57,372.90 L 296.56,372.90 L 296.54,372.89 L 296.52,372.89 L 296.51,372.89 L 296.48,372.89 L 296.43,372.90 L 296.40,372.90 L 296.39,372.90 L 296.39,372.90 L 296.38,372.90 L 296.37,372.89 L 296.32,372.84 L 296.28,372.84 L 296.25,372.83 L 296.21,372.83 L 296.19,372.82 L 296.15,372.81 L 296.12,372.80 L 296.11,372.79 L 296.10,372.79 L 296.09,372.79 L 296.06,372.80 L 296.03,372.80 L 295.99,372.80 L 295.98,372.78 L 295.90,372.78 L 295.89,372.78 L 295.88,372.77 L 295.86,372.76 L 295.82,372.72 L 295.81,372.71 L 295.80,372.71 L 295.79,372.70 L 295.77,372.70 L 295.76,372.70 L 295.71,372.71 L 295.69,372.70 L 295.67,372.70 L 295.65,372.69 L 295.64,372.69 L 295.62,372.67 L 295.60,372.66 L 295.58,372.66 L 295.56,372.65 L 295.54,372.63 L 295.53,372.63 L 295.53,372.63 L 295.52,372.63 L 295.49,372.64 L 295.46,372.65 L 295.43,372.67 L 295.41,372.68 L 295.36,372.68 L 295.34,372.68 L 295.31,372.67 L 295.27,372.65 L 295.26,372.65 L 295.25,372.64 L 295.24,372.63 L 295.23,372.62 L 295.22,372.62 L 295.21,372.61 L 295.20,372.61 L 295.19,372.60 L 295.18,372.59 L 295.17,372.58 L 295.16,372.57 L 295.12,372.56 L 295.10,372.55 L 295.08,372.54 L 295.07,372.53 L 295.06,372.52 L 295.04,372.49 L 295.02,372.47 L 295.00,372.45 L 294.98,372.42 L 294.97,372.40 L 294.97,372.38 L 294.97,372.36 L 294.97,372.34 L 294.96,372.33 L 294.96,372.33 L 294.95,372.33 L 294.94,372.33 L 294.92,372.34 L 294.82,372.34 L 294.80,372.32 L 294.79,372.30 L 294.78,372.30 L 294.77,372.29 L 294.71,372.27 L 294.67,372.22 L 294.66,372.23 L 294.66,372.24 L 294.65,372.26 L 294.64,372.27 L 294.63,372.28 L 294.62,372.29 L 294.62,372.29 L 294.52,372.34 L 294.50,372.36 L 294.47,372.37 L 294.52,372.40 L 294.53,372.44 L 294.60,372.51 L 294.61,372.53 L 294.62,372.54 L 294.62,372.56 L 294.62,372.62 L 294.63,372.65 L 294.63,372.69 L 294.64,372.71 L 294.63,372.80 L 294.63,372.83 L 294.62,372.86 L 294.56,372.97 L 294.55,372.99 L 294.54,373.00 L 294.53,373.02 L 294.53,373.03 L 294.52,373.03 L 294.49,373.04 L 294.46,373.00 L 294.44,372.97 L 294.40,372.93 L 294.35,372.88 L 294.30,372.83 L 294.23,372.82 L 294.18,372.79 L 294.15,372.77 L 294.12,372.76 L 294.10,372.76 L 294.09,372.76 L 294.08,372.77 L 294.06,372.78 L 294.04,372.81 L 294.03,372.82 L 294.02,372.83 L 294.01,372.83 L 294.00,372.84 L 293.99,372.84 L 293.98,372.84 L 293.97,372.84 L 293.93,372.83 L 293.91,372.83 L 293.89,372.83 L 293.87,372.84 L 293.82,372.84 L 293.78,372.84 L 293.77,372.85 L 293.76,372.84 L 293.71,372.83 L 293.69,372.83 L 293.67,372.83 L 293.64,372.82 L 293.53,372.80 L 293.53,372.78 L 293.48,372.77 L 293.46,372.77 L 293.45,372.78 L 293.43,372.78 L 293.42,372.78 L 293.40,372.79 L 293.35,372.82 L 293.34,372.82 L 293.33,372.83 L 293.32,372.83 L 293.31,372.83 L 293.29,372.82 L 293.26,372.82 L 293.25,372.82 L 293.23,372.81 L 293.22,372.81 L 293.17,372.81 L 293.15,372.81 L 293.13,372.80 L 293.12,372.80 L 293.11,372.80 L 293.10,372.81 L 293.09,372.81 L 293.07,372.83 L 293.05,372.83 L 293.04,372.84 L 293.02,372.84 L 293.02,372.83 L 293.01,372.82 L 293.00,372.81 L 292.99,372.80 L 292.93,372.77 L 292.86,372.74 L 292.83,372.63 L 292.84,372.61 L 292.85,372.60 L 292.86,372.59 L 292.82,372.53 L 292.81,372.47 L 292.81,372.46 L 292.81,372.45 L 292.80,372.44 L 292.80,372.43 L 292.75,372.40 L 292.75,372.40 L 292.74,372.39 L 292.73,372.38 L 292.72,372.34 L 292.71,372.33 L 292.70,372.32 L 292.69,372.31 L 292.66,372.30 L 292.63,372.30 L 292.59,372.30 L 292.54,372.30 L 292.51,372.31 L 292.47,372.33 L 292.42,372.34 L 292.34,372.35 L 292.29,372.35 L 292.22,372.35 L 292.12,372.35 L 292.05,372.35 L 292.00,372.36 L 291.93,372.37 L 291.89,372.38 L 291.82,372.40 L 291.75,372.40 L 291.74,372.40 L 291.73,372.38 L 291.72,372.37 L 291.72,372.33 L 291.72,372.30 L 291.72,372.26 L 291.74,372.23 L 291.77,372.18 L 291.82,372.13 L 291.84,372.10 L 291.85,372.08 L 291.85,372.07 L 291.84,372.04 L 291.82,372.01 L 291.79,371.96 L 291.75,371.91 L 291.72,371.86 L 291.69,371.81 L 291.67,371.79 L 291.64,371.76 L 291.59,371.73 L 291.57,371.73 L 291.54,371.73 L 291.49,371.72 L 291.48,371.72 L 291.46,371.71 L 291.45,371.69 L 291.43,371.64 L 291.42,371.62 L 291.41,371.60 L 291.39,371.59 L 291.36,371.57 L 291.31,371.56 L 291.26,371.54 L 291.23,371.54 L 291.20,371.54 L 291.17,371.54 L 291.11,371.56 L 291.06,371.57 L 291.03,371.58 L 290.99,371.61 L 290.92,371.65 L 290.87,371.66 L 290.81,371.68 L 290.79,371.68 L 290.72,371.69 L 290.70,371.69 L 290.68,371.69 L 290.67,371.70 L 290.63,371.72 L 290.53,371.76 L 290.52,371.77 L 290.50,371.77 L 290.46,371.77 L 290.43,371.77 L 290.41,371.76 L 290.39,371.75 L 290.37,371.74 L 290.36,371.72 L 290.35,371.69 L 290.34,371.65 L 290.33,371.63 L 290.32,371.62 L 290.30,371.60 L 290.28,371.58 L 290.23,371.55 L 290.20,371.52 L 290.18,371.51 L 290.17,371.50 L 290.15,371.51 L 290.13,371.51 L 290.10,371.51 L 290.08,371.51 L 290.06,371.50 L 290.03,371.47 L 290.03,371.47 L 290.01,371.45 L 289.99,371.43 L 289.97,371.43 L 289.96,371.42 L 289.94,371.42 L 289.91,371.42 L 289.85,371.43 L 289.80,371.45 L 289.67,371.49 L 289.62,371.50 L 289.55,371.52 L 289.48,371.54 L 289.47,371.55 L 289.44,371.56 L 289.42,371.58 L 289.40,371.61 L 289.38,371.63 L 289.37,371.63 L 289.35,371.63 L 289.27,371.62 L 289.20,371.59 L 289.15,371.57 L 289.12,371.55 L 289.08,371.51 L 289.07,371.49 L 289.06,371.45 L 289.06,371.39 L 289.05,371.34 L 289.04,371.30 L 289.02,371.26 L 289.00,371.22 L 288.98,371.19 L 288.93,371.13 L 288.92,371.09 L 288.91,371.05 L 288.89,370.99 L 288.89,370.96 L 288.88,370.94 L 288.86,370.91 L 288.83,370.87 L 288.80,370.84 L 288.77,370.80 L 288.73,370.71 L 288.72,370.66 L 288.69,370.56 L 288.67,370.51 L 288.65,370.41 L 288.64,370.37 L 288.63,370.32 L 288.61,370.26 L 288.60,370.21 L 288.59,370.17 L 288.57,370.13 L 288.55,370.11 L 288.52,370.09 L 288.48,370.07 L 288.46,370.05 L 288.44,370.02 L 288.43,369.99 L 288.43,369.96 L 288.43,369.93 L 288.43,369.91 L 288.42,369.88 L 288.41,369.85 L 288.39,369.81 L 288.36,369.77 L 288.35,369.74 L 288.33,369.72 L 288.31,369.70 L 288.26,369.67 L 288.21,369.64 L 288.15,369.61 L 288.07,369.58 L 288.01,369.56 L 287.96,369.55 L 287.88,369.54 L 287.84,369.54 L 287.82,369.54 L 287.75,369.55 L 287.69,369.56 L 287.65,369.58 L 287.60,369.60 L 287.56,369.62 L 287.54,369.63 L 287.48,369.69 L 287.44,369.72 L 287.41,369.75 L 287.38,369.75 L 287.36,369.75 L 287.34,369.75 L 287.31,369.74 L 287.29,369.74 L 287.27,369.74 L 287.25,369.75 L 287.20,369.77 L 287.17,369.78 L 287.15,369.78 L 287.14,369.78 L 287.12,369.77 L 287.10,369.75 L 287.06,369.71 L 287.02,369.69 L 286.99,369.67 L 286.92,369.65 L 286.87,369.63 L 286.81,369.60 L 286.80,369.63 L 286.78,369.68 L 286.78,369.70 L 286.75,369.78 L 286.75,369.78 L 286.73,369.85 L 286.71,369.93 L 286.70,369.99 L 286.69,370.04 L 286.70,370.11 L 286.70,370.15 L 286.70,370.23 L 286.70,370.26 L 286.69,370.28 L 286.66,370.31 L 286.63,370.34 L 286.62,370.36 L 286.61,370.39 L 286.60,370.41 L 286.62,370.49 L 286.66,370.61 L 286.68,370.68 L 286.71,370.79 L 286.73,370.87 L 286.74,370.90 L 286.74,370.93 L 286.74,370.94 L 286.74,370.97 L 286.74,370.99 L 286.73,371.02 L 286.71,371.03 L 286.59,371.06 L 286.53,371.07 L 286.44,371.10 L 286.42,371.11 L 286.40,371.12 L 286.38,371.15 L 286.38,371.18 L 286.44,371.47 L 286.45,371.56 L 286.46,371.61 L 286.46,371.68 L 286.47,371.77 L 286.48,371.94 L 286.48,371.99 L 286.48,372.01 L 286.47,372.02 L 286.34,372.07 L 286.29,372.10 L 286.27,372.12 L 286.26,372.14 L 286.25,372.16 L 286.22,372.18 L 286.16,372.21 L 286.12,372.22 L 286.12,372.23 L 286.10,372.25 L 286.11,372.29 L 286.11,372.34 L 286.12,372.40 L 286.11,372.44 L 286.05,372.52 L 285.96,372.65 L 285.94,372.71 L 285.98,372.76 L 286.04,372.81 L 286.07,372.85 L 286.09,372.92 L 286.12,373.02 L 286.14,373.07 L 286.14,373.10 L 286.14,373.12 L 286.12,373.14 L 286.09,373.17 L 286.05,373.20 L 286.03,373.22 L 286.00,373.25 L 285.98,373.29 L 285.94,373.35 L 285.91,373.38 L 285.88,373.41 L 285.85,373.43 L 285.81,373.46 L 285.78,373.48 L 285.76,373.51 L 285.73,373.58 L 285.72,373.60 L 285.72,373.61 L 285.72,373.63 L 285.72,373.70 L 285.73,373.74 L 285.72,373.76 L 285.72,373.77 L 285.70,373.79 L 285.67,373.83 L 285.66,373.84 L 285.65,373.90 L 285.64,373.98 L 285.63,374.04 L 285.61,374.14 L 285.60,374.20 L 285.59,374.28 L 285.56,374.34 L 285.54,374.39 L 285.60,374.40 L 285.64,374.40 L 285.68,374.41 L 285.72,374.41 L 285.75,374.43 L 285.77,374.45 L 285.78,374.48 L 285.79,374.53 L 285.81,374.66 L 285.81,374.78 L 285.80,374.83 L 285.79,374.87 L 285.76,374.94 L 285.69,375.05 L 285.72,375.10 L 285.78,375.19 L 285.81,375.25 L 285.81,375.26 L 285.81,375.28 L 285.81,375.29 L 285.81,375.29 L 285.81,375.30 L 285.81,375.31 L 285.81,375.34 L 285.81,375.35 L 285.80,375.36 L 285.79,375.37 L 285.78,375.38 L 285.78,375.39 L 285.77,375.40 L 285.77,375.43 L 285.77,375.44 L 285.77,375.44 L 285.77,375.45 L 285.76,375.45 L 285.76,375.45 L 285.75,375.44 L 285.74,375.41 L 285.74,375.40 L 285.73,375.39 L 285.72,375.39 L 285.71,375.38 L 285.70,375.38 L 285.69,375.39 L 285.68,375.39 L 285.66,375.40 L 285.65,375.42 L 285.64,375.43 L 285.63,375.44 L 285.63,375.44 L 285.63,375.45 L 285.64,375.46 L 285.64,375.47 L 285.65,375.47 L 285.66,375.48 L 285.67,375.48 L 285.68,375.49 L 285.69,375.49 L 285.69,375.49 L 285.70,375.50 L 285.71,375.51 L 285.71,375.51 L 285.71,375.52 L 285.71,375.53 L 285.70,375.54 L 285.69,375.55 L 285.68,375.56 L 285.67,375.56 L 285.66,375.56 L 285.65,375.56 L 285.65,375.56 L 285.64,375.56 L 285.63,375.56 L 285.60,375.55 L 285.56,375.56 L 285.55,375.56 L 285.54,375.56 L 285.54,375.56 L 285.54,375.56 L 285.53,375.57 L 285.52,375.58 L 285.52,375.59 L 285.51,375.60 L 285.51,375.61 L 285.50,375.62 L 285.49,375.62 L 285.48,375.63 L 285.47,375.63 L 285.46,375.63 L 285.46,375.64 L 285.45,375.64 L 285.44,375.65 L 285.43,375.65 L 285.42,375.65 L 285.42,375.66 L 285.42,375.68 L 285.41,375.71 L 285.41,375.73 L 285.40,375.74 L 285.39,375.75 L 285.38,375.76 L 285.38,375.76 L 285.37,375.76 L 285.37,375.75 L 285.36,375.73 L 285.35,375.71 L 285.34,375.70 L 285.32,375.70 L 285.31,375.70 L 285.30,375.71 L 285.29,375.71 L 285.28,375.72 L 285.28,375.74 L 285.28,375.77 L 285.28,375.79 L 285.28,375.80 L 285.27,375.81 L 285.27,375.81 L 285.26,375.81 L 285.25,375.80 L 285.23,375.78 L 285.22,375.78 L 285.21,375.78 L 285.20,375.78 L 285.18,375.78 L 285.17,375.79 L 285.16,375.81 L 285.16,375.81 L 285.16,375.82 L 285.16,375.82 L 285.16,375.83 L 285.19,375.83 L 285.21,375.83 L 285.22,375.83 L 285.22,375.84 L 285.23,375.84 L 285.23,375.84 L 285.23,375.85 L 285.23,375.86 L 285.22,375.86 L 285.21,375.87 L 285.19,375.87 L 285.19,375.88 L 285.18,375.88 L 285.18,375.89 L 285.17,375.89 L 285.17,375.91 L 285.16,375.92 L 285.16,375.94 L 285.15,375.95 L 285.16,375.96 L 285.15,375.99 L 285.15,376.00 L 285.15,376.01 L 285.14,376.01 L 285.13,376.02 L 285.10,376.04 L 285.09,376.04 L 285.06,376.06 L 285.04,376.07 L 285.03,376.07 L 285.02,376.07 L 285.01,376.07 L 285.00,376.06 L 285.00,376.05 L 284.99,376.05 L 284.98,376.05 L 284.98,376.05 L 284.96,376.07 L 284.95,376.08 L 284.94,376.08 L 284.94,376.08 L 284.92,376.08 L 284.90,376.07 L 284.88,376.07 L 284.86,376.07 L 284.85,376.08 L 284.83,376.08 L 284.82,376.09 L 284.80,376.09 L 284.78,376.08 L 284.77,376.08 L 284.76,376.08 L 284.76,376.08 L 284.74,376.10 L 284.73,376.12 L 284.71,376.15 L 284.71,376.16 L 284.70,376.16 L 284.69,376.16 L 284.66,376.16 L 284.64,376.16 L 284.63,376.16 L 284.61,376.16 L 284.60,376.17 L 284.58,376.18 L 284.56,376.19 L 284.55,376.19 L 284.53,376.18 L 284.52,376.18 L 284.51,376.18 L 284.51,376.19 L 284.51,376.19 L 284.51,376.20 L 284.51,376.20 L 284.51,376.21 L 284.52,376.22 L 284.53,376.23 L 284.53,376.23 L 284.53,376.23 L 284.52,376.24 L 284.52,376.24 L 284.51,376.24 L 284.49,376.24 L 284.44,376.22 L 284.39,376.20 L 284.38,376.19 L 284.38,376.18 L 284.38,376.15 L 284.38,376.12 L 284.37,376.10 L 284.37,376.10 L 284.36,376.09 L 284.35,376.08 L 284.35,376.07 L 284.34,376.07 L 284.34,376.06 L 284.34,376.04 L 284.33,376.03 L 284.33,376.01 L 284.32,375.99 L 284.32,375.98 L 284.31,375.97 L 284.31,375.97 L 284.30,375.97 L 284.29,375.98 L 284.28,376.01 L 284.27,376.04 L 284.26,376.06 L 284.24,376.08 L 284.23,376.09 L 284.21,376.10 L 284.17,376.10 L 284.15,376.09 L 284.13,376.07 L 284.11,376.05 L 284.09,376.04 L 284.08,376.04 L 284.06,376.04 L 284.04,376.04 L 284.01,376.04 L 283.99,376.04 L 283.98,376.04 L 283.98,376.04 L 283.98,376.05 L 283.98,376.06 L 283.98,376.06 L 284.01,376.08 L 284.02,376.08 L 284.02,376.09 L 284.02,376.10 L 284.02,376.10 L 284.02,376.11 L 284.02,376.11 L 284.01,376.12 L 284.01,376.12 L 284.00,376.12 L 283.99,376.12 L 283.97,376.11 L 283.93,376.08 L 283.90,376.07 L 283.88,376.07 L 283.86,376.07 L 283.82,376.08 L 283.79,376.08 L 283.76,376.08 L 283.74,376.08 L 283.70,376.05 L 283.67,376.04 L 283.65,376.04 L 283.64,376.04 L 283.64,376.04 L 283.63,376.04 L 283.63,376.05 L 283.62,376.06 L 283.62,376.07 L 283.63,376.09 L 283.64,376.12 L 283.65,376.14 L 283.65,376.15 L 283.64,376.15 L 283.64,376.16 L 283.63,376.16 L 283.62,376.16 L 283.60,376.14 L 283.57,376.10 L 283.55,376.08 L 283.53,376.08 L 283.52,376.08 L 283.51,376.09 L 283.51,376.11 L 283.49,376.13 L 283.48,376.14 L 283.46,376.14 L 283.45,376.13 L 283.43,376.12 L 283.40,376.10 L 283.38,376.11 L 283.37,376.15 L 283.35,376.23 L 283.34,376.26 L 283.35,376.28 L 283.36,376.30 L 283.39,376.34 L 283.40,376.35 L 283.40,376.36 L 283.43,376.44 L 283.43,376.47 L 283.43,376.49 L 283.43,376.51 L 283.41,376.54 L 283.35,376.58 L 283.29,376.64 L 283.27,376.67 L 283.26,376.69 L 283.26,376.71 L 283.26,376.73 L 283.26,376.75 L 283.27,376.77 L 283.29,376.80 L 283.33,376.87 L 283.50,377.09 L 283.53,377.13 L 283.56,377.17 L 283.60,377.20 L 283.69,377.26 L 283.81,377.33 L 283.87,377.37 L 283.89,377.38 L 283.90,377.41 L 283.91,377.42 L 283.91,377.45 L 283.92,377.49 L 283.91,377.53 L 283.90,377.56 L 283.88,377.59 L 283.85,377.61 L 283.78,377.66 L 283.72,377.70 L 283.68,377.73 L 283.65,377.77 L 283.62,377.80 L 283.60,377.84 L 283.58,377.88 L 283.57,377.94 L 283.56,378.04 L 283.54,378.13 L 283.53,378.16 L 283.51,378.19 L 283.47,378.25 L 283.41,378.30 L 283.34,378.36 L 283.33,378.38 L 283.33,378.39 L 283.33,378.41 L 283.35,378.45 L 283.36,378.49 L 283.38,378.51 L 283.40,378.53 L 283.41,378.55 L 283.44,378.56 L 283.47,378.57 L 283.50,378.58 L 283.56,378.60 L 283.60,378.62 L 283.62,378.63 L 283.64,378.65 L 283.66,378.68 L 283.68,378.71 L 283.68,378.74 L 283.69,378.77 L 283.69,378.84 L 283.69,378.89 L 283.69,378.94 L 283.71,378.96 L 283.72,378.98 L 283.74,379.00 L 283.75,379.00 L 283.77,379.01 L 283.80,379.01 L 283.84,379.01 L 283.90,379.01 L 283.97,379.00 L 284.06,378.99 L 284.11,378.99 L 284.13,379.01 L 284.15,379.02 L 284.16,379.05 L 284.17,379.09 L 284.17,379.15 L 284.16,379.18 L 284.16,379.19 L 284.14,379.24 L 284.21,379.27 L 284.26,379.28 L 284.35,379.28 L 284.43,379.27 L 284.57,379.24 L 284.72,379.21 L 284.75,379.19 L 284.84,379.18 L 284.92,379.15 L 285.05,379.10 L 285.18,379.05 L 285.27,379.02 L 285.32,379.02 L 285.42,379.02 L 285.64,379.04 L 285.79,379.06 L 285.87,379.07 L 285.97,379.10 L 285.98,379.10 L 286.01,379.12 L 286.05,379.15 L 286.33,379.34 L 286.49,379.45 L 286.58,379.53 L 286.63,379.59 L 286.66,379.63 L 286.71,379.75 L 286.80,379.77 L 286.87,379.78 L 286.92,379.79 L 287.04,379.71 L 287.16,379.68 L 287.23,379.66 L 287.30,379.66 L 287.39,379.70 L 287.44,379.69 L 287.46,379.67 L 287.53,379.61 L 287.57,379.58 L 287.60,379.56 L 287.62,379.56 L 287.64,379.57 L 287.66,379.59 L 287.68,379.61 L 287.67,379.65 L 287.64,379.77 L 287.62,379.83 L 287.62,379.85 L 287.62,379.88 L 287.64,379.90 L 287.66,379.92 L 287.69,379.93 L 287.73,379.93 L 287.76,379.94 L 287.79,379.95 L 287.79,379.96 L 287.79,379.97 L 287.78,379.99 L 287.75,380.00 L 287.72,380.02 L 287.70,380.03 L 287.66,380.08 L 287.59,380.21 L 287.56,380.27 L 287.55,380.32 L 287.55,380.35 L 287.55,380.38 L 287.57,380.40 L 287.59,380.42 L 287.61,380.42 L 287.63,380.41 L 287.65,380.40 L 287.67,380.39 L 287.70,380.36 L 287.75,380.31 L 287.76,380.30 L 287.79,380.30 L 287.81,380.30 L 287.83,380.30 L 287.87,380.31 L 287.94,380.36 L 287.98,380.42 L 288.00,380.44 L 288.01,380.43 L 288.03,380.43 L 288.04,380.41 L 288.05,380.39 L 288.05,380.36 L 288.04,380.32 L 288.04,380.31 L 288.04,380.27 L 288.04,380.23 L 288.05,380.21 L 288.08,380.18 L 288.11,380.16 L 288.14,380.16 L 288.16,380.16 L 288.17,380.17 L 288.20,380.20 L 288.22,380.23 L 288.24,380.26 L 288.26,380.27 L 288.28,380.28 L 288.32,380.29 L 288.36,380.29 L 288.46,380.32 L 288.52,380.34 L 288.55,380.33 L 288.58,380.33 L 288.60,380.31 L 288.65,380.27 L 288.79,380.15 L 288.82,380.10 L 288.82,380.08 L 288.83,380.07 L 288.83,380.06 L 288.84,380.05 L 288.85,380.04 L 288.86,380.04 L 288.88,380.03 L 288.91,380.03 L 288.95,380.02 L 289.00,380.00 L 289.06,379.98 L 289.13,379.95 L 289.17,379.93 L 289.23,379.92 L 289.28,379.91 L 289.31,379.91 L 289.33,379.91 L 289.35,379.91 L 289.38,379.92 L 289.41,379.93 L 289.46,379.94 L 289.52,379.96 L 289.58,379.99 L 289.64,380.01 L 289.69,380.02 L 289.73,380.02 L 289.76,380.02 L 289.79,380.01 L 289.84,380.00 L 289.87,379.99 L 289.90,379.97 L 289.94,379.94 L 289.98,379.90 L 290.03,379.86 L 290.07,379.83 L 290.09,379.82 L 290.11,379.81 L 290.14,379.81 L 290.16,379.81 L 290.19,379.82 L 290.23,379.83 L 290.26,379.84 L 290.29,379.85 L 290.31,379.86 L 290.34,379.89 L 290.36,379.91 L 290.39,379.93 L 290.43,379.96 L 290.44,379.97 L 290.47,379.99 L 290.50,380.00 L 290.53,380.00 L 290.55,380.00 L 290.58,380.00 L 290.61,379.99 L 290.64,379.97 L 290.67,379.94 L 290.70,379.91 L 290.73,379.87 L 290.76,379.83 L 290.81,379.80 L 290.83,379.78 L 290.85,379.77 L 290.91,379.75 L 290.95,379.74 L 290.98,379.74 L 290.99,379.74 L 291.01,379.75 L 291.03,379.76 L 291.06,379.78 L 291.10,379.81 L 291.14,379.84 L 291.18,379.88 L 291.21,379.92 L 291.25,379.95 L 291.30,380.00 L 291.36,380.07 L 291.42,380.11 L 291.48,380.15 L 291.55,380.20 L 291.60,380.24 L 291.66,380.29 L 291.72,380.33 L 291.78,380.38 L 291.84,380.44 L 291.92,380.50 L 291.95,380.53 L 291.98,380.56 L 292.01,380.60 L 292.04,380.64 L 292.07,380.67 L 292.10,380.70 L 292.13,380.75 L 292.16,380.77 L 292.21,380.78 L 292.27,380.81 L 292.33,380.85 L 292.37,380.87 L 292.40,380.89 L 292.44,380.91 L 292.47,380.93 L 292.51,380.95 L 292.55,380.98 L 292.58,381.01 L 292.62,381.05 L 292.67,381.11 L 292.70,381.17 L 292.73,381.21 L 292.76,381.25 L 292.77,381.27 L 292.79,381.30 L 292.81,381.34 L 292.83,381.38 L 292.83,381.42 L 292.84,381.46 L 292.84,381.50 L 292.83,381.56 L 292.83,381.59 L 292.83,381.63 L 292.84,381.66 L 292.85,381.70 L 292.89,381.79 L 292.91,381.81 L 292.92,381.83 L 292.93,381.85 L 292.94,381.86 L 292.95,381.88 L 292.95,381.89 L 292.96,381.90 L 292.96,381.91 L 292.96,381.91 L 292.97,381.92 L 292.97,381.93 L 292.97,381.95 L 292.98,381.97 L 292.98,381.98 L 292.99,382.00 L 293.00,381.99 L 293.01,381.99 L 293.02,381.99 L 293.03,381.99 L 293.04,382.00 L 293.05,382.00 L 293.08,382.00 L 293.10,382.01 L 293.12,382.01 L 293.13,382.02 L 293.15,382.02 L 293.17,382.03 L 293.18,382.04 L 293.22,382.05 L 293.25,382.07 L 293.28,382.09 L 293.29,382.10 L 293.32,382.12 L 293.33,382.13 L 293.40,382.19 L 293.45,382.24 L 293.49,382.27 L 293.52,382.30 L 293.56,382.34 L 293.60,382.38 L 293.62,382.40 L 293.63,382.41 L 293.64,382.42 L 293.66,382.43 L 293.67,382.44 L 293.68,382.45 L 293.70,382.46 L 293.71,382.47 L 293.72,382.48 L 293.74,382.48 L 293.75,382.49 L 293.77,382.50 L 293.78,382.50 L 293.80,382.51 L 293.81,382.51 L 293.83,382.52 L 293.85,382.52 L 293.86,382.53 L 293.88,382.53 L 293.89,382.53 L 293.91,382.53 L 293.93,382.54 L 293.94,382.54 L 294.01,382.54 L 294.05,382.54 L 294.14,382.53 L 294.23,382.53 L 294.29,382.53 L 294.32,382.52 L 294.34,382.52 L 294.36,382.52 L 294.40,382.51 L 294.42,382.51 L 294.46,382.50 L 294.48,382.49 L 294.52,382.48 L 294.54,382.47 L 294.57,382.46 L 294.59,382.44 L 294.61,382.44 L 294.62,382.43 L 294.64,382.42 L 294.65,382.41 L 294.66,382.40 L 294.68,382.39 L 294.69,382.38 L 294.70,382.37 L 294.71,382.36 L 294.72,382.35 L 294.73,382.33 L 294.76,382.30 L 294.77,382.28 L 294.80,382.24 L 294.82,382.22 L 294.84,382.18 L 294.85,382.17 L 294.87,382.15 L 294.88,382.14 L 294.89,382.12 L 294.90,382.12 L 294.92,382.10 L 294.94,382.09 L 294.97,382.08 L 294.98,382.07 L 295.01,382.06 L 295.02,382.06 L 295.04,382.05 L 295.06,382.05 L 295.07,382.04 L 295.09,382.04 L 295.11,382.04 L 295.13,382.04 L 295.14,382.04 L 295.16,382.04 L 295.18,382.04 L 295.20,382.04 L 295.25,382.04 L 295.27,382.05 L 295.35,382.06 L 295.37,382.06 L 295.44,382.08 L 295.52,382.09 L 295.56,382.10 L 295.59,382.11 L 295.65,382.13 Z" fill="#E5E7EB" stroke="#374151" stroke-width="1" fill-rule="evenodd"/>
</svg>