<svg xmlns="http://www.w3.org/2000/svg" viewBox="0 0 800 1400">
  <path d="M 231.85,254.25 L 231.83,254.26 L 231.81,254.28 L 231.75,254.30 L 231.71,254.34 L 231.68,254.41 L 231.67,254.47 L 231.68,254.56 L 231.67,254.60 L 231.64,254.65 L 231.62,254.67 L 231.60,254.68 L 231.56,254.73 L 231.55,254.76 L 231.52,254.79 L 231.49,254.82 L 231.48,254.88 L 231.48,254.95 L 231.48,255.00 L 231.42,255.18 L 231.36,255.29 L 231.31,255.38 L 231.28,255.44 L 231.27,255.52 L 231.24,255.61 L 231.22,255.65 L 231.15,255.75 L 231.10,255.82 L 231.08,255.87 L 231.07,255.92 L 231.08,255.94 L 231.10,255.97 L 231.12,255.98 L 231.15,256.01 L 231.18,256.07 L 231.21,256.13 L 231.23,256.21 L 231.24,256.29 L 231.24,256.35 L 231.23,256.40 L 231.21,256.44 L 231.19,256.48 L 231.12,256.52 L 230.98,256.65 L 230.89,256.72 L 230.84,256.77 L 230.83,256.81 L 230.83,256.89 L 230.82,256.95 L 230.81,256.98 L 230.76,257.03 L 230.73,257.09 L 230.69,257.15 L 230.62,257.23 L 230.57,257.28 L 230.52,257.38 L 230.51,257.48 L 230.53,257.62 L 230.56,257.77 L 230.56,257.85 L 230.54,257.89 L 230.51,257.91 L 230.44,257.92 L 230.40,257.94 L 230.37,257.97 L 230.35,258.03 L 230.34,258.12 L 230.33,258.21 L 230.32,258.28 L 230.32,258.36 L 230.31,258.41 L 230.28,258.46 L 230.22,258.49 L 230.05,258.56 L 229.97,258.62 L 229.92,258.67 L 229.90,258.71 L 229.89,258.76 L 229.89,258.81 L 229.89,258.86 L 229.87,258.89 L 229.83,258.93 L 229.78,258.97 L 229.76,259.01 L 229.75,259.06 L 229.75,259.10 L 229.76,259.16 L 229.76,259.21 L 229.75,259.25 L 229.73,259.28 L 229.68,259.31 L 229.65,259.33 L 229.64,259.36 L 229.63,259.40 L 229.63,259.46 L 229.62,259.54 L 229.60,259.58 L 229.59,259.62 L 229.58,259.66 L 229.57,259.71 L 229.58,259.76 L 229.59,259.85 L 229.60,259.90 L 229.60,259.94 L 229.59,259.98 L 229.53,260.11 L 229.51,260.28 L 229.40,260.45 L 229.36,260.50 L 229.30,260.53 L 229.20,260.53 L 229.00,260.56 L 228.89,260.58 L 228.77,260.63 L 228.63,260.66 L 228.52,260.64 L 228.40,260.59 L 228.34,260.59 L 228.28,260.64 L 228.20,260.67 L 228.09,260.85 L 228.01,260.89 L 227.95,260.89 L 227.87,260.84 L 227.77,260.81 L 227.66,260.84 L 227.54,260.88 L 227.42,260.95 L 227.40,261.03 L 227.37,261.04 L 227.28,261.06 L 227.26,261.08 L 227.24,261.13 L 227.19,261.15 L 227.09,261.15 L 227.05,261.13 L 227.03,261.12 L 227.01,261.08 L 226.94,261.04 L 226.92,261.02 L 226.91,261.00 L 226.91,260.94 L 226.88,260.90 L 226.84,260.87 L 226.79,260.86 L 226.76,260.86 L 226.65,260.90 L 226.52,260.93 L 226.40,260.94 L 226.25,260.99 L 226.21,261.02 L 226.19,261.02 L 226.16,261.05 L 226.12,261.07 L 226.07,261.09 L 226.01,261.14 L 225.96,261.17 L 225.91,261.17 L 225.86,261.17 L 225.74,261.11 L 225.62,261.06 L 225.57,261.04 L 225.54,261.02 L 225.47,260.99 L 225.46,261.01 L 225.43,261.05 L 225.38,261.10 L 225.34,261.12 L 225.27,261.19 L 225.25,261.22 L 225.23,261.27 L 225.21,261.33 L 225.18,261.37 L 225.10,261.39 L 225.02,261.40 L 224.93,261.39 L 224.86,261.37 L 224.79,261.38 L 224.70,261.40 L 224.56,261.45 L 224.49,261.50 L 224.41,261.59 L 224.35,261.62 L 224.24,261.61 L 224.09,261.55 L 224.00,261.55 L 223.92,261.55 L 223.88,261.57 L 223.83,261.61 L 223.73,261.67 L 223.64,261.70 L 223.54,261.71 L 223.21,261.71 L 223.07,261.69 L 222.98,261.69 L 222.94,261.76 L 222.89,261.82 L 222.87,261.88 L 222.83,261.94 L 222.78,261.99 L 222.74,262.04 L 222.69,262.08 L 222.64,262.10 L 222.60,262.10 L 222.55,262.11 L 222.52,262.13 L 222.47,262.21 L 222.43,262.24 L 222.38,262.27 L 222.33,262.29 L 222.29,262.31 L 222.25,262.34 L 222.23,262.35 L 222.24,262.47 L 222.23,262.50 L 222.24,262.56 L 222.23,262.62 L 222.17,262.75 L 222.16,262.82 L 222.22,262.87 L 222.27,262.92 L 222.32,262.98 L 222.38,263.03 L 222.42,263.15 L 222.42,263.19 L 222.42,263.23 L 222.40,263.27 L 222.33,263.35 L 222.29,263.39 L 222.27,263.43 L 222.24,263.47 L 222.24,263.51 L 222.24,263.55 L 222.26,263.59 L 222.25,263.64 L 222.23,263.68 L 222.22,263.72 L 222.31,263.91 L 222.35,263.97 L 222.37,263.99 L 222.37,264.03 L 222.37,264.06 L 222.35,264.10 L 222.30,264.19 L 222.28,264.23 L 222.29,264.26 L 222.29,264.30 L 222.31,264.36 L 222.31,264.40 L 222.32,264.44 L 222.32,264.48 L 222.31,264.53 L 222.27,264.58 L 222.27,264.65 L 222.26,264.73 L 222.25,264.77 L 222.21,264.83 L 222.15,264.88 L 222.10,264.93 L 222.04,264.98 L 221.99,265.02 L 221.96,265.03 L 221.83,265.00 L 221.73,265.01 L 221.61,265.04 L 221.54,265.06 L 221.48,265.10 L 221.43,265.15 L 221.36,265.18 L 221.31,265.19 L 221.27,265.19 L 221.14,265.16 L 221.09,265.16 L 221.03,265.15 L 220.92,265.15 L 220.86,265.15 L 220.79,265.16 L 220.73,265.16 L 220.65,265.13 L 220.60,265.12 L 220.58,265.14 L 220.55,265.18 L 220.54,265.23 L 220.54,265.27 L 220.55,265.30 L 220.58,265.33 L 220.61,265.36 L 220.61,265.40 L 220.62,265.46 L 220.60,265.50 L 220.53,265.57 L 220.49,265.64 L 220.48,265.69 L 220.47,265.72 L 220.45,265.76 L 220.40,265.80 L 220.30,265.85 L 220.22,265.86 L 220.18,265.91 L 220.14,265.98 L 220.07,266.17 L 220.04,266.24 L 220.00,266.27 L 219.96,266.29 L 219.87,266.30 L 219.80,266.29 L 219.72,266.29 L 219.60,266.30 L 219.56,266.30 L 219.49,266.29 L 219.46,266.27 L 219.43,266.28 L 219.41,266.32 L 219.41,266.37 L 219.38,266.41 L 219.36,266.43 L 219.29,266.44 L 219.23,266.45 L 219.18,266.47 L 219.15,266.51 L 219.15,266.56 L 219.17,266.62 L 219.21,266.70 L 219.17,266.76 L 219.12,266.81 L 219.05,266.91 L 219.00,267.05 L 219.00,267.12 L 218.99,267.17 L 219.00,267.18 L 219.01,267.21 L 219.04,267.24 L 219.06,267.27 L 219.06,267.32 L 219.06,267.34 L 219.09,267.36 L 219.09,267.40 L 219.06,267.43 L 219.03,267.49 L 219.05,267.56 L 219.07,267.61 L 219.07,267.65 L 219.07,267.71 L 219.06,267.76 L 219.07,267.79 L 219.10,267.84 L 219.11,267.87 L 219.12,267.90 L 219.03,268.05 L 219.00,268.08 L 218.97,268.15 L 218.95,268.20 L 218.94,268.26 L 218.94,268.35 L 218.95,268.41 L 218.96,268.47 L 218.97,268.53 L 218.96,268.60 L 218.94,268.66 L 218.92,268.68 L 218.85,268.72 L 218.75,268.74 L 218.67,268.74 L 218.58,268.73 L 218.52,268.70 L 218.46,268.68 L 218.25,268.67 L 218.17,268.62 L 218.11,268.58 L 218.05,268.55 L 217.99,268.52 L 217.91,268.53 L 217.82,268.53 L 217.77,268.58 L 217.75,268.59 L 217.69,268.61 L 217.61,268.59 L 217.54,268.53 L 217.49,268.52 L 217.35,268.52 L 217.25,268.52 L 217.10,268.46 L 216.89,268.37 L 216.94,268.50 L 216.96,268.61 L 216.96,268.72 L 216.91,269.05 L 216.86,269.27 L 216.97,269.31 L 217.08,269.34 L 217.20,269.35 L 217.26,269.38 L 217.28,269.42 L 217.29,269.51 L 217.35,269.54 L 217.43,269.59 L 217.48,269.65 L 217.57,269.79 L 217.62,269.82 L 217.67,269.87 L 217.74,269.89 L 217.82,269.92 L 217.86,269.92 L 217.91,269.89 L 217.98,269.88 L 218.05,269.90 L 218.12,269.93 L 218.20,269.94 L 218.29,269.94 L 218.39,269.92 L 218.49,269.91 L 218.56,269.91 L 218.60,269.93 L 218.67,269.94 L 218.78,269.89 L 218.82,269.90 L 218.85,269.93 L 218.88,270.00 L 219.02,270.07 L 219.12,270.15 L 219.26,270.30 L 219.47,270.29 L 219.54,270.31 L 219.62,270.33 L 219.69,270.37 L 219.78,270.44 L 219.82,270.48 L 219.84,270.52 L 219.89,270.57 L 219.95,270.58 L 220.02,270.59 L 220.11,270.58 L 220.14,270.61 L 220.17,270.70 L 220.17,270.76 L 220.17,270.83 L 220.16,270.87 L 220.17,270.94 L 220.19,271.01 L 220.25,271.16 L 220.28,271.22 L 220.31,271.27 L 220.35,271.29 L 220.40,271.33 L 220.50,271.37 L 220.59,271.39 L 220.69,271.40 L 220.77,271.44 L 220.86,271.49 L 220.97,271.53 L 221.03,271.53 L 221.09,271.51 L 221.14,271.52 L 221.19,271.55 L 221.25,271.66 L 221.26,271.71 L 221.26,271.76 L 221.27,271.86 L 221.27,271.93 L 221.27,272.00 L 221.27,272.08 L 221.28,272.15 L 221.30,272.22 L 221.34,272.29 L 221.38,272.35 L 221.41,272.40 L 221.46,272.49 L 221.51,272.52 L 221.55,272.50 L 221.64,272.42 L 221.70,272.40 L 221.76,272.41 L 221.82,272.38 L 221.86,272.34 L 221.92,272.31 L 221.99,272.29 L 222.07,272.30 L 222.15,272.31 L 222.24,272.35 L 222.35,272.41 L 222.44,272.46 L 222.54,272.50 L 222.67,272.57 L 222.73,272.59 L 222.81,272.61 L 222.87,272.61 L 222.96,272.62 L 223.05,272.61 L 223.14,272.58 L 223.21,272.57 L 223.27,272.57 L 223.33,272.59 L 223.38,272.57 L 223.43,272.58 L 223.49,272.64 L 223.56,272.67 L 223.64,272.69 L 223.74,272.76 L 223.79,272.82 L 223.84,272.88 L 223.89,272.94 L 223.92,273.00 L 223.95,273.06 L 224.01,273.12 L 224.06,273.16 L 224.11,273.22 L 224.11,273.35 L 224.14,273.41 L 224.19,273.47 L 224.23,273.53 L 224.32,273.60 L 224.40,273.65 L 224.46,273.63 L 224.54,273.60 L 224.59,273.60 L 224.63,273.62 L 224.74,273.67 L 224.87,273.73 L 224.93,273.81 L 224.98,273.87 L 224.99,273.97 L 225.09,274.06 L 225.13,274.08 L 225.19,274.13 L 225.30,274.21 L 225.40,274.23 L 225.53,274.23 L 225.62,274.25 L 225.69,274.26 L 225.74,274.28 L 225.72,274.30 L 225.70,274.36 L 225.68,274.42 L 225.68,274.46 L 225.65,274.53 L 225.67,274.57 L 225.70,274.60 L 225.74,274.64 L 225.77,274.75 L 225.80,274.79 L 225.86,274.80 L 225.91,274.80 L 225.98,274.76 L 226.05,274.75 L 226.12,274.77 L 226.19,274.79 L 226.30,274.85 L 226.41,274.90 L 226.48,274.93 L 226.57,274.93 L 226.64,274.94 L 226.71,274.94 L 226.83,274.99 L 226.94,275.06 L 227.02,275.15 L 227.08,275.27 L 227.11,275.31 L 227.13,275.38 L 227.14,275.52 L 227.16,275.63 L 227.25,275.84 L 227.40,275.90 L 227.55,275.95 L 227.71,275.97 L 227.82,275.97 L 227.92,275.99 L 227.98,276.03 L 228.02,276.06 L 228.06,276.08 L 228.13,276.08 L 228.19,276.06 L 228.24,276.05 L 228.30,276.05 L 228.35,276.05 L 228.39,276.09 L 228.42,276.11 L 228.43,276.12 L 228.36,276.32 L 228.34,276.39 L 228.35,276.45 L 228.41,276.51 L 228.50,276.56 L 228.55,276.62 L 228.68,276.80 L 228.73,276.88 L 228.80,276.94 L 228.85,277.00 L 228.88,277.08 L 228.89,277.13 L 228.87,277.18 L 228.81,277.25 L 228.78,277.35 L 228.77,277.43 L 228.77,277.47 L 228.78,277.53 L 228.78,277.60 L 228.77,277.65 L 228.75,277.68 L 228.70,277.71 L 228.68,277.76 L 228.70,277.81 L 228.71,277.88 L 228.71,277.94 L 228.73,278.03 L 228.73,278.09 L 228.74,278.17 L 228.74,278.25 L 228.75,278.31 L 228.75,278.37 L 228.78,278.41 L 228.81,278.46 L 228.86,278.52 L 228.91,278.56 L 228.96,278.62 L 229.02,278.69 L 229.05,278.77 L 229.06,278.92 L 229.12,278.94 L 229.16,278.95 L 229.20,278.99 L 229.26,279.02 L 229.37,279.02 L 229.50,278.99 L 229.57,278.99 L 229.62,279.03 L 229.66,279.08 L 229.79,279.26 L 229.87,279.30 L 229.93,279.31 L 230.04,279.38 L 230.10,279.41 L 230.13,279.46 L 230.14,279.52 L 230.17,279.59 L 230.18,279.67 L 230.18,279.74 L 230.13,279.85 L 230.11,279.91 L 230.01,279.97 L 229.94,280.04 L 229.87,280.13 L 229.82,280.22 L 229.78,280.33 L 229.74,280.51 L 229.69,280.58 L 229.61,280.68 L 229.46,280.89 L 229.42,280.99 L 229.38,281.13 L 229.39,281.20 L 229.44,281.29 L 229.56,281.39 L 229.65,281.48 L 229.72,281.56 L 229.77,281.64 L 229.80,281.73 L 229.82,281.82 L 229.84,281.90 L 229.87,281.96 L 229.90,282.01 L 229.92,282.08 L 229.94,282.16 L 229.95,282.23 L 229.91,282.28 L 229.82,282.33 L 229.78,282.36 L 229.76,282.41 L 229.75,282.50 L 229.73,282.61 L 229.74,282.68 L 229.71,282.77 L 229.71,282.88 L 229.72,282.92 L 229.75,283.03 L 229.78,283.10 L 229.83,283.17 L 229.84,283.18 L 229.88,283.23 L 229.91,283.29 L 229.95,283.36 L 229.99,283.44 L 230.00,283.55 L 230.18,283.49 L 230.32,283.52 L 230.44,283.54 L 230.54,283.52 L 230.64,283.46 L 230.71,283.42 L 230.87,283.40 L 231.03,283.44 L 231.16,283.48 L 231.25,283.49 L 231.35,283.49 L 231.45,283.53 L 231.52,283.53 L 231.59,283.49 L 231.69,283.56 L 231.74,283.58 L 231.86,283.59 L 232.06,283.57 L 232.32,283.51 L 232.40,283.12 L 232.41,282.62 L 232.54,282.36 L 232.72,282.23 L 232.91,282.11 L 233.13,282.14 L 233.34,282.11 L 233.44,282.10 L 233.55,282.07 L 233.62,281.94 L 233.63,281.78 L 233.65,281.68 L 233.71,281.60 L 233.80,281.56 L 233.99,281.59 L 234.16,281.63 L 234.36,281.70 L 234.45,281.62 L 234.49,281.57 L 234.53,281.51 L 234.61,281.43 L 234.73,281.38 L 234.78,281.42 L 234.85,281.44 L 234.99,281.50 L 235.07,281.52 L 235.21,281.52 L 235.30,281.51 L 235.35,281.53 L 235.42,281.55 L 235.57,281.57 L 235.65,281.56 L 235.73,281.50 L 235.91,281.49 L 235.88,281.38 L 235.86,281.25 L 235.83,281.13 L 235.80,281.04 L 235.74,280.94 L 235.71,280.84 L 235.75,280.80 L 235.80,280.78 L 235.84,280.77 L 235.85,280.63 L 235.84,280.58 L 235.81,280.54 L 235.78,280.46 L 235.86,280.40 L 235.98,280.33 L 236.09,280.24 L 236.14,280.16 L 236.19,280.12 L 236.20,280.05 L 236.26,280.01 L 236.33,279.99 L 236.44,279.89 L 236.40,279.81 L 236.39,279.77 L 236.48,279.69 L 236.57,279.62 L 236.68,279.54 L 236.70,279.46 L 236.71,279.39 L 236.74,279.34 L 236.79,279.32 L 236.87,279.32 L 236.91,279.37 L 236.94,279.48 L 237.01,279.52 L 237.05,279.49 L 237.10,279.49 L 237.15,279.53 L 237.21,279.50 L 237.26,279.52 L 237.36,279.53 L 237.44,279.54 L 237.46,279.47 L 237.50,279.44 L 237.56,279.46 L 237.65,279.42 L 237.72,279.43 L 237.72,279.47 L 237.75,279.50 L 237.80,279.54 L 237.88,279.53 L 238.02,279.54 L 238.16,279.52 L 238.24,279.52 L 238.36,279.58 L 238.32,279.45 L 238.38,279.35 L 238.38,279.26 L 238.49,279.17 L 238.60,279.09 L 238.67,279.03 L 238.68,278.97 L 238.75,278.97 L 238.76,278.89 L 238.79,278.86 L 238.85,278.84 L 238.86,278.77 L 238.81,278.71 L 238.82,278.64 L 238.83,278.58 L 238.85,278.51 L 238.89,278.47 L 238.97,278.44 L 239.06,278.40 L 239.13,278.35 L 239.18,278.30 L 239.21,278.20 L 239.23,278.11 L 239.28,278.05 L 239.35,278.02 L 239.36,277.97 L 239.40,277.97 L 239.48,277.96 L 239.55,277.95 L 239.61,278.05 L 239.65,278.02 L 239.70,278.00 L 239.71,277.95 L 239.74,277.90 L 239.79,277.89 L 239.88,277.90 L 239.91,277.94 L 240.03,278.06 L 240.16,278.10 L 240.23,278.17 L 240.29,278.18 L 240.36,278.25 L 240.44,278.27 L 240.54,278.31 L 240.63,278.37 L 240.71,278.32 L 240.78,278.33 L 240.90,278.37 L 240.90,278.29 L 240.93,278.21 L 240.98,278.11 L 241.00,278.00 L 241.05,277.85 L 241.10,277.75 L 241.18,277.70 L 241.30,278.00 L 241.43,278.26 L 241.51,278.13 L 241.56,278.05 L 241.60,277.98 L 241.64,277.91 L 241.71,277.84 L 241.78,277.79 L 241.86,277.77 L 241.92,277.77 L 241.93,277.64 L 241.96,277.53 L 242.06,277.49 L 242.18,277.44 L 242.33,277.48 L 242.47,277.50 L 242.60,277.56 L 242.68,277.56 L 242.73,277.52 L 242.78,277.43 L 242.78,277.31 L 242.80,277.24 L 242.86,277.13 L 242.89,277.11 L 242.96,277.11 L 243.05,277.09 L 243.10,277.06 L 243.18,277.05 L 243.26,276.97 L 243.30,277.00 L 243.34,277.06 L 243.41,277.06 L 243.44,277.04 L 243.51,277.01 L 243.57,276.98 L 243.62,276.95 L 243.67,276.96 L 243.76,277.06 L 243.81,277.08 L 243.87,277.19 L 243.94,277.28 L 243.99,277.40 L 244.00,277.50 L 244.02,277.54 L 244.06,277.67 L 244.11,277.66 L 244.17,277.67 L 244.18,277.68 L 244.26,277.84 L 244.32,277.86 L 244.38,277.84 L 244.43,277.82 L 244.47,277.79 L 244.49,277.76 L 244.52,277.77 L 244.56,277.78 L 244.61,277.82 L 244.64,277.85 L 244.67,277.89 L 244.69,277.94 L 244.71,278.05 L 244.74,278.17 L 244.75,278.23 L 244.74,278.26 L 244.67,278.34 L 244.57,278.45 L 244.56,278.48 L 244.51,278.55 L 244.46,278.59 L 244.41,278.64 L 244.33,278.69 L 244.32,278.72 L 244.33,278.78 L 244.34,278.85 L 244.37,278.91 L 244.41,278.99 L 244.48,279.12 L 244.52,279.23 L 244.56,279.33 L 244.62,279.46 L 244.73,279.57 L 244.81,279.65 L 244.89,279.72 L 244.97,279.75 L 245.05,279.74 L 245.14,279.73 L 245.24,279.85 L 245.28,279.88 L 245.38,279.88 L 245.48,279.90 L 245.59,279.95 L 245.75,279.99 L 245.66,280.10 L 245.63,280.16 L 245.63,280.24 L 245.58,280.31 L 245.58,280.39 L 245.57,280.42 L 245.52,280.45 L 245.47,280.46 L 245.42,280.48 L 245.35,280.58 L 245.31,280.66 L 245.28,280.73 L 245.24,280.79 L 245.16,280.83 L 245.10,280.86 L 245.04,280.92 L 244.97,280.99 L 244.90,281.03 L 244.86,281.07 L 244.83,281.12 L 244.83,281.18 L 244.80,281.24 L 244.76,281.27 L 244.62,281.34 L 244.51,281.39 L 244.47,281.43 L 244.42,281.50 L 244.38,281.55 L 244.31,281.58 L 244.26,281.62 L 244.21,281.70 L 244.17,281.82 L 244.14,281.98 L 244.14,282.02 L 244.08,282.09 L 244.03,282.15 L 243.99,282.22 L 243.93,282.32 L 243.89,282.38 L 243.83,282.43 L 243.74,282.50 L 243.70,282.55 L 243.69,282.59 L 243.68,282.66 L 243.67,282.78 L 243.67,282.83 L 243.68,282.89 L 243.67,282.95 L 243.63,283.01 L 243.53,283.06 L 243.44,283.09 L 243.35,283.10 L 243.28,283.09 L 243.22,283.08 L 243.17,283.10 L 243.07,283.17 L 243.01,283.24 L 242.92,283.36 L 242.91,283.45 L 242.97,283.42 L 243.00,283.41 L 243.02,283.41 L 243.04,283.41 L 243.04,283.43 L 243.03,283.44 L 243.03,283.47 L 243.04,283.51 L 243.06,283.55 L 243.07,283.59 L 243.06,283.63 L 243.03,283.68 L 243.00,283.71 L 243.00,283.74 L 243.03,283.76 L 243.09,283.76 L 243.15,283.73 L 243.21,283.72 L 243.27,283.72 L 243.35,283.75 L 243.42,283.79 L 243.49,283.85 L 243.53,283.87 L 243.58,283.88 L 243.61,283.89 L 243.65,283.92 L 243.67,283.96 L 243.69,284.03 L 243.71,284.09 L 243.73,284.16 L 243.74,284.18 L 243.73,284.22 L 243.73,284.25 L 243.71,284.27 L 243.70,284.28 L 243.69,284.29 L 243.69,284.30 L 243.69,284.32 L 243.70,284.32 L 243.72,284.33 L 243.73,284.34 L 243.74,284.36 L 243.75,284.38 L 243.77,284.39 L 243.81,284.42 L 243.84,284.43 L 243.86,284.43 L 243.88,284.43 L 243.90,284.43 L 243.93,284.44 L 243.94,284.45 L 243.96,284.45 L 243.97,284.47 L 243.99,284.49 L 244.02,284.51 L 244.03,284.52 L 244.05,284.54 L 244.06,284.57 L 244.08,284.60 L 244.10,284.63 L 244.12,284.65 L 244.14,284.68 L 244.17,284.72 L 244.19,284.74 L 244.22,284.77 L 244.24,284.79 L 244.25,284.84 L 244.27,284.93 L 244.27,284.96 L 244.27,285.01 L 244.28,285.04 L 244.29,285.06 L 244.31,285.08 L 244.33,285.09 L 244.36,285.10 L 244.38,285.10 L 244.40,285.10 L 244.41,285.11 L 244.41,285.13 L 244.41,285.16 L 244.43,285.20 L 244.44,285.23 L 244.45,285.26 L 244.44,285.28 L 244.43,285.30 L 244.41,285.32 L 244.39,285.33 L 244.37,285.35 L 244.38,285.39 L 244.39,285.42 L 244.38,285.44 L 244.36,285.47 L 244.35,285.48 L 244.33,285.48 L 244.29,285.49 L 244.26,285.50 L 244.22,285.54 L 244.20,285.56 L 244.15,285.59 L 244.11,285.63 L 244.06,285.66 L 244.04,285.68 L 244.02,285.71 L 244.01,285.73 L 244.01,285.74 L 244.03,285.77 L 244.04,285.79 L 244.05,285.84 L 244.05,285.87 L 244.05,285.88 L 244.04,285.90 L 244.02,285.90 L 244.01,285.90 L 243.99,285.91 L 243.98,285.93 L 243.97,285.95 L 243.97,285.98 L 243.98,285.99 L 243.99,286.01 L 244.01,286.02 L 244.03,286.02 L 244.04,286.01 L 244.06,286.00 L 244.08,285.99 L 244.11,285.99 L 244.13,286.00 L 244.14,286.02 L 244.15,286.03 L 244.15,286.06 L 244.16,286.08 L 244.17,286.09 L 244.20,286.10 L 244.23,286.12 L 244.24,286.14 L 244.25,286.15 L 244.26,286.21 L 244.26,286.24 L 244.27,286.26 L 244.28,286.28 L 244.30,286.29 L 244.32,286.30 L 244.34,286.31 L 244.35,286.33 L 244.34,286.37 L 244.33,286.39 L 244.31,286.40 L 244.28,286.41 L 244.27,286.43 L 244.27,286.44 L 244.27,286.46 L 244.29,286.48 L 244.31,286.49 L 244.33,286.48 L 244.35,286.47 L 244.37,286.46 L 244.39,286.45 L 244.41,286.45 L 244.42,286.46 L 244.45,286.47 L 244.48,286.49 L 244.51,286.50 L 244.55,286.50 L 244.58,286.49 L 244.60,286.48 L 244.61,286.46 L 244.62,286.44 L 244.64,286.43 L 244.66,286.42 L 244.70,286.43 L 244.76,286.46 L 244.81,286.49 L 244.84,286.50 L 244.87,286.50 L 244.91,286.48 L 244.94,286.46 L 244.96,286.43 L 245.00,286.39 L 245.05,286.37 L 245.09,286.37 L 245.13,286.37 L 245.16,286.40 L 245.20,286.45 L 245.23,286.50 L 245.26,286.54 L 245.27,286.56 L 245.30,286.57 L 245.33,286.59 L 245.42,286.69 L 245.46,286.74 L 245.48,286.77 L 245.50,286.80 L 245.51,286.82 L 245.53,286.84 L 245.55,286.85 L 245.57,286.86 L 245.61,286.89 L 245.63,286.90 L 245.66,286.93 L 245.69,286.96 L 245.72,287.00 L 245.76,287.03 L 245.78,287.06 L 245.80,287.09 L 245.80,287.12 L 245.80,287.15 L 245.78,287.16 L 245.77,287.17 L 245.76,287.19 L 245.76,287.21 L 245.76,287.23 L 245.77,287.24 L 245.79,287.25 L 245.82,287.26 L 245.85,287.27 L 245.87,287.28 L 245.87,287.30 L 245.87,287.33 L 245.86,287.36 L 245.84,287.39 L 245.80,287.43 L 245.76,287.46 L 245.73,287.47 L 245.71,287.49 L 245.69,287.53 L 245.65,287.60 L 245.64,287.63 L 245.62,287.66 L 245.61,287.68 L 245.61,287.70 L 245.61,287.72 L 245.60,287.72 L 245.58,287.73 L 245.55,287.72 L 245.51,287.71 L 245.48,287.70 L 245.45,287.70 L 245.43,287.70 L 245.41,287.72 L 245.40,287.73 L 245.39,287.78 L 245.39,287.80 L 245.40,287.84 L 245.41,287.86 L 245.42,287.88 L 245.43,287.90 L 245.44,287.92 L 245.45,287.94 L 245.47,287.95 L 245.50,287.95 L 245.51,287.96 L 245.52,287.97 L 245.52,287.98 L 245.52,288.00 L 245.52,288.02 L 245.53,288.04 L 245.54,288.07 L 245.56,288.10 L 245.56,288.12 L 245.56,288.14 L 245.56,288.17 L 245.55,288.19 L 245.53,288.20 L 245.52,288.21 L 245.50,288.22 L 245.47,288.22 L 245.43,288.22 L 245.37,288.24 L 245.31,288.27 L 245.25,288.28 L 245.23,288.29 L 245.23,288.32 L 245.23,288.34 L 245.24,288.36 L 245.29,288.38 L 245.33,288.39 L 245.36,288.40 L 245.37,288.40 L 245.38,288.40 L 245.39,288.38 L 245.40,288.37 L 245.42,288.37 L 245.43,288.37 L 245.47,288.39 L 245.51,288.41 L 245.54,288.42 L 245.56,288.42 L 245.58,288.43 L 245.59,288.44 L 245.60,288.45 L 245.60,288.47 L 245.59,288.49 L 245.59,288.51 L 245.60,288.53 L 245.61,288.56 L 245.62,288.58 L 245.61,288.61 L 245.60,288.62 L 245.59,288.63 L 245.56,288.63 L 245.55,288.62 L 245.54,288.61 L 245.52,288.59 L 245.51,288.58 L 245.48,288.58 L 245.47,288.59 L 245.46,288.60 L 245.46,288.61 L 245.46,288.64 L 245.45,288.67 L 245.45,288.69 L 245.46,288.70 L 245.48,288.71 L 245.56,288.72 L 245.61,288.72 L 245.65,288.71 L 245.67,288.69 L 245.69,288.68 L 245.70,288.67 L 245.72,288.68 L 245.74,288.69 L 245.76,288.70 L 245.77,288.72 L 245.78,288.74 L 245.79,288.76 L 245.81,288.77 L 245.83,288.78 L 245.86,288.78 L 245.87,288.78 L 245.88,288.77 L 245.89,288.76 L 245.92,288.75 L 245.95,288.74 L 245.98,288.75 L 246.02,288.76 L 246.05,288.76 L 246.07,288.75 L 246.08,288.74 L 246.09,288.71 L 246.10,288.66 L 246.11,288.64 L 246.14,288.62 L 246.18,288.62 L 246.24,288.62 L 246.28,288.63 L 246.33,288.65 L 246.35,288.67 L 246.36,288.69 L 246.36,288.74 L 246.36,288.76 L 246.34,288.79 L 246.34,288.82 L 246.35,288.85 L 246.37,288.86 L 246.39,288.87 L 246.43,288.87 L 246.48,288.88 L 246.51,288.90 L 246.53,288.91 L 246.55,288.93 L 246.56,288.96 L 246.56,288.99 L 246.56,289.02 L 246.57,289.05 L 246.59,289.08 L 246.60,289.11 L 246.62,289.13 L 246.64,289.14 L 246.65,289.17 L 246.66,289.19 L 246.67,289.21 L 246.67,289.23 L 246.67,289.26 L 246.65,289.29 L 246.65,289.30 L 246.66,289.35 L 246.67,289.37 L 246.71,289.42 L 246.72,289.46 L 246.73,289.51 L 246.75,289.58 L 246.77,289.62 L 246.81,289.66 L 246.84,289.70 L 246.86,289.71 L 246.89,289.71 L 246.93,289.72 L 246.96,289.74 L 246.96,289.77 L 246.97,289.80 L 246.98,289.84 L 247.03,289.88 L 247.07,289.92 L 247.10,289.98 L 247.13,290.07 L 247.15,290.16 L 247.17,290.20 L 247.20,290.22 L 247.24,290.24 L 247.26,290.26 L 247.29,290.28 L 247.31,290.31 L 247.31,290.31 L 247.45,290.35 L 247.57,290.36 L 247.68,290.39 L 247.74,290.40 L 247.81,290.42 L 247.89,290.47 L 247.97,290.47 L 248.08,290.47 L 248.13,290.47 L 248.20,290.49 L 248.28,290.52 L 248.33,290.53 L 248.40,290.50 L 248.49,290.42 L 248.57,290.38 L 248.62,290.35 L 248.68,290.32 L 248.73,290.32 L 248.75,290.30 L 248.78,290.27 L 248.83,290.22 L 248.87,290.18 L 248.90,290.17 L 248.93,290.16 L 248.96,290.17 L 249.00,290.21 L 249.03,290.26 L 249.04,290.30 L 249.05,290.34 L 249.06,290.39 L 249.05,290.43 L 249.00,290.55 L 248.97,290.66 L 248.99,290.78 L 249.02,290.80 L 249.13,290.79 L 249.19,290.80 L 249.26,290.82 L 249.32,290.81 L 249.37,290.81 L 249.43,290.82 L 249.57,290.79 L 249.68,290.74 L 249.77,290.68 L 249.82,290.62 L 249.85,290.58 L 249.92,290.56 L 250.01,290.56 L 250.08,290.56 L 250.13,290.53 L 250.21,290.49 L 250.30,290.45 L 250.40,290.45 L 250.63,290.48 L 250.84,290.53 L 250.97,290.60 L 251.00,290.66 L 251.07,290.72 L 251.13,290.74 L 251.16,290.71 L 251.19,290.71 L 251.22,290.73 L 251.24,290.80 L 251.30,290.84 L 251.35,290.86 L 251.41,290.89 L 251.46,290.89 L 251.52,290.89 L 251.57,290.89 L 251.65,290.93 L 251.72,290.94 L 251.80,290.96 L 251.98,291.03 L 252.15,291.08 L 252.40,291.23 L 252.54,291.30 L 252.66,291.35 L 252.62,291.42 L 252.62,291.49 L 252.64,291.56 L 252.71,291.64 L 252.76,291.72 L 252.83,291.81 L 252.87,291.88 L 252.89,291.93 L 252.92,291.97 L 252.93,292.02 L 252.95,292.07 L 253.05,292.06 L 253.10,292.04 L 253.15,292.02 L 253.22,292.00 L 253.33,292.02 L 253.40,292.01 L 253.47,291.96 L 253.47,291.87 L 253.48,291.83 L 253.51,291.78 L 253.57,291.69 L 253.64,291.59 L 253.69,291.51 L 253.74,291.46 L 253.78,291.39 L 253.83,291.34 L 253.88,291.26 L 253.90,291.22 L 253.90,291.18 L 253.91,291.13 L 253.95,291.06 L 254.01,290.95 L 254.07,290.85 L 254.07,290.77 L 254.08,290.69 L 254.08,290.61 L 254.07,290.56 L 254.07,290.52 L 254.09,290.48 L 254.12,290.45 L 254.20,290.40 L 254.30,290.32 L 254.34,290.25 L 254.43,290.18 L 254.49,290.13 L 254.52,290.09 L 254.58,290.06 L 254.61,290.05 L 254.68,290.05 L 254.75,290.06 L 254.82,290.06 L 254.87,290.07 L 254.93,290.11 L 254.97,290.10 L 255.01,290.08 L 255.04,290.08 L 255.10,290.08 L 255.16,290.07 L 255.28,290.04 L 255.38,290.02 L 255.42,290.06 L 255.43,290.10 L 255.46,290.17 L 255.50,290.19 L 255.63,290.29 L 255.66,290.35 L 255.71,290.38 L 255.77,290.38 L 255.81,290.36 L 255.88,290.32 L 255.92,290.32 L 255.97,290.31 L 256.00,290.29 L 256.05,290.23 L 256.07,290.18 L 256.11,290.13 L 256.17,290.07 L 256.22,290.09 L 256.25,290.08 L 256.27,290.09 L 256.30,290.07 L 256.34,290.07 L 256.35,290.08 L 256.40,290.06 L 256.43,290.04 L 256.48,289.98 L 256.50,289.92 L 256.54,289.84 L 256.56,289.81 L 256.60,289.73 L 256.62,289.66 L 256.63,289.61 L 256.70,289.58 L 256.72,289.55 L 256.76,289.53 L 256.81,289.50 L 256.84,289.49 L 256.88,289.51 L 256.91,289.51 L 256.94,289.50 L 256.99,289.50 L 257.06,289.53 L 257.11,289.53 L 257.23,289.42 L 257.31,289.39 L 257.40,289.36 L 257.46,289.33 L 257.52,289.27 L 257.54,289.23 L 257.55,289.20 L 257.55,289.16 L 257.56,289.13 L 257.59,289.10 L 257.62,289.08 L 257.64,289.09 L 257.74,289.13 L 257.80,289.13 L 257.90,289.14 L 257.96,289.05 L 258.01,289.01 L 258.07,288.98 L 258.23,288.95 L 258.44,288.88 L 258.54,288.83 L 258.55,288.80 L 258.56,288.77 L 258.56,288.64 L 258.60,288.53 L 258.63,288.50 L 258.67,288.46 L 258.77,288.40 L 258.89,288.39 L 259.01,288.37 L 259.07,288.34 L 259.14,288.33 L 259.21,288.29 L 259.31,288.22 L 259.37,288.18 L 259.42,288.14 L 259.49,288.12 L 259.59,288.09 L 259.67,288.08 L 259.71,288.11 L 259.78,288.18 L 259.85,288.23 L 259.87,288.24 L 259.97,288.20 L 260.08,288.15 L 260.14,288.12 L 260.28,288.08 L 260.34,288.06 L 260.44,288.01 L 260.49,288.00 L 260.58,287.91 L 260.63,287.87 L 260.69,287.84 L 260.74,287.81 L 260.77,287.77 L 260.76,287.64 L 260.88,287.47 L 260.98,287.29 L 260.98,287.21 L 260.99,287.15 L 261.02,287.09 L 261.06,287.04 L 261.08,287.02 L 261.12,287.02 L 261.16,287.04 L 261.21,287.09 L 261.25,287.15 L 261.28,287.18 L 261.36,287.20 L 261.42,287.24 L 261.50,287.31 L 261.62,287.40 L 261.70,287.46 L 261.75,287.47 L 261.88,287.48 L 261.94,287.48 L 261.98,287.49 L 262.01,287.50 L 262.10,287.53 L 262.16,287.53 L 262.22,287.52 L 262.40,287.33 L 262.45,287.33 L 262.55,287.35 L 262.66,287.34 L 262.74,287.32 L 262.82,287.29 L 262.89,287.25 L 262.95,287.26 L 263.00,287.29 L 263.05,287.35 L 263.06,287.38 L 263.05,287.45 L 263.03,287.51 L 263.03,287.57 L 263.06,287.62 L 263.05,287.66 L 263.02,287.71 L 262.96,287.73 L 262.91,287.73 L 262.87,287.75 L 262.77,287.84 L 262.69,287.92 L 262.66,287.96 L 262.61,288.05 L 262.60,288.13 L 262.59,288.23 L 262.57,288.31 L 262.53,288.43 L 262.56,288.44 L 262.63,288.44 L 262.75,288.53 L 262.85,288.55 L 262.95,288.56 L 263.08,288.57 L 263.13,288.57 L 263.19,288.55 L 263.26,288.54 L 263.32,288.54 L 263.35,288.57 L 263.42,288.63 L 263.40,288.66 L 263.46,288.75 L 263.50,288.79 L 263.53,288.82 L 263.58,288.84 L 263.63,288.85 L 263.71,288.85 L 263.77,288.89 L 263.79,288.94 L 263.77,289.03 L 263.74,289.11 L 263.70,289.15 L 263.68,289.18 L 263.64,289.24 L 263.61,289.32 L 263.61,289.38 L 263.60,289.43 L 263.64,289.49 L 263.64,289.53 L 263.66,289.61 L 263.71,289.69 L 263.73,289.74 L 263.76,289.77 L 263.78,289.78 L 263.81,289.77 L 263.86,289.75 L 263.91,289.71 L 263.99,289.66 L 264.04,289.64 L 264.10,289.60 L 264.08,289.68 L 264.04,289.76 L 264.00,289.79 L 263.96,289.81 L 263.86,289.85 L 263.81,289.88 L 263.79,289.98 L 263.76,290.06 L 263.78,290.09 L 263.81,290.12 L 263.84,290.14 L 263.88,290.15 L 263.92,290.18 L 263.95,290.22 L 263.98,290.28 L 264.01,290.31 L 264.18,290.41 L 264.18,290.44 L 264.17,290.47 L 264.14,290.52 L 264.09,290.57 L 264.07,290.61 L 264.07,290.65 L 264.07,290.68 L 264.10,290.72 L 264.18,290.78 L 264.37,290.79 L 264.51,290.87 L 264.61,290.89 L 264.73,290.93 L 264.83,290.97 L 264.95,290.99 L 265.10,291.02 L 265.11,291.06 L 265.12,291.10 L 265.12,291.17 L 265.11,291.23 L 265.11,291.28 L 265.08,291.36 L 265.06,291.42 L 265.06,291.49 L 265.07,291.54 L 265.09,291.61 L 265.12,291.68 L 265.09,291.83 L 265.04,291.94 L 264.99,292.03 L 264.98,292.08 L 264.98,292.23 L 264.98,292.41 L 264.98,292.47 L 264.95,292.55 L 264.91,292.62 L 264.88,292.68 L 264.88,292.75 L 264.89,292.82 L 264.90,292.86 L 264.92,292.90 L 264.95,292.95 L 264.98,292.99 L 265.00,293.05 L 265.02,293.12 L 265.05,293.20 L 265.09,293.27 L 265.13,293.33 L 265.14,293.37 L 265.16,293.44 L 265.16,293.47 L 265.11,293.51 L 265.06,293.54 L 265.00,293.55 L 264.95,293.57 L 264.93,293.57 L 264.91,293.66 L 264.84,293.73 L 264.72,293.87 L 264.66,293.96 L 264.60,293.99 L 264.56,294.13 L 264.55,294.15 L 264.48,294.24 L 264.45,294.32 L 264.41,294.44 L 264.39,294.47 L 264.35,294.50 L 264.33,294.53 L 264.32,294.59 L 264.29,294.66 L 264.22,294.72 L 264.18,294.77 L 264.14,294.78 L 264.09,294.81 L 264.05,294.83 L 264.03,294.86 L 264.00,294.92 L 263.97,294.96 L 263.90,295.01 L 263.85,295.04 L 263.80,295.07 L 263.73,295.09 L 263.72,295.14 L 263.72,295.28 L 263.73,295.35 L 263.75,295.38 L 263.81,295.40 L 263.90,295.43 L 263.96,295.47 L 264.02,295.56 L 264.07,295.60 L 264.15,295.69 L 264.15,295.79 L 264.12,295.87 L 264.11,295.90 L 264.10,295.96 L 264.08,296.00 L 264.06,296.03 L 264.04,296.08 L 264.06,296.14 L 264.07,296.18 L 264.08,296.21 L 264.12,296.25 L 264.14,296.28 L 264.15,296.32 L 264.15,296.36 L 264.14,296.41 L 264.16,296.46 L 264.16,296.54 L 264.14,296.60 L 264.13,296.63 L 264.12,296.67 L 264.12,296.78 L 264.09,296.83 L 264.04,296.88 L 264.00,296.94 L 264.01,296.99 L 264.09,297.04 L 264.14,297.10 L 264.24,297.19 L 264.37,297.28 L 264.37,297.33 L 264.36,297.43 L 264.38,297.49 L 264.41,297.53 L 264.41,297.56 L 264.41,297.63 L 264.32,297.68 L 264.29,297.72 L 264.30,297.74 L 264.48,297.83 L 264.64,297.91 L 264.70,297.93 L 264.75,297.92 L 264.81,297.89 L 264.91,297.83 L 264.93,297.77 L 264.97,297.75 L 265.03,297.73 L 265.08,297.73 L 265.18,297.70 L 265.29,297.71 L 265.33,297.72 L 265.31,297.75 L 265.30,297.81 L 265.30,297.90 L 265.35,297.90 L 265.43,297.89 L 265.55,297.88 L 265.57,297.87 L 265.64,297.85 L 265.79,297.90 L 265.88,297.93 L 265.93,297.98 L 266.02,298.16 L 266.09,298.17 L 266.15,298.17 L 266.24,298.19 L 266.29,298.21 L 266.33,298.21 L 266.40,298.14 L 266.46,298.06 L 266.59,297.94 L 266.75,297.79 L 266.83,297.78 L 266.88,297.75 L 266.92,297.69 L 266.95,297.63 L 266.99,297.60 L 267.04,297.59 L 267.12,297.55 L 267.20,297.40 L 267.21,297.33 L 267.22,297.30 L 267.25,297.26 L 267.28,297.25 L 267.31,297.26 L 267.39,297.30 L 267.46,297.31 L 267.69,297.32 L 267.76,297.34 L 267.80,297.34 L 267.83,297.33 L 267.91,297.34 L 267.92,297.36 L 267.88,297.40 L 267.85,297.45 L 267.85,297.53 L 267.87,297.55 L 267.90,297.56 L 267.90,297.59 L 267.89,297.63 L 267.88,297.66 L 267.91,297.68 L 267.95,297.69 L 268.00,297.67 L 268.05,297.65 L 268.09,297.66 L 268.12,297.64 L 268.15,297.65 L 268.17,297.69 L 268.22,297.69 L 268.26,297.73 L 268.31,297.74 L 268.37,297.73 L 268.43,297.77 L 268.43,297.84 L 268.43,297.88 L 268.41,297.89 L 268.39,297.90 L 268.36,297.90 L 268.36,297.91 L 268.36,297.94 L 268.35,297.97 L 268.36,297.99 L 268.37,298.02 L 268.36,298.05 L 268.35,298.07 L 268.34,298.09 L 268.35,298.13 L 268.37,298.17 L 268.45,298.27 L 268.47,298.32 L 268.49,298.42 L 268.55,298.44 L 268.59,298.43 L 268.63,298.44 L 268.67,298.45 L 268.72,298.46 L 268.75,298.46 L 268.79,298.47 L 268.81,298.49 L 268.83,298.53 L 268.84,298.60 L 268.85,298.68 L 268.87,298.65 L 268.91,298.60 L 268.92,298.58 L 268.93,298.54 L 268.95,298.50 L 268.95,298.47 L 268.94,298.40 L 268.94,298.38 L 268.95,298.37 L 268.97,298.34 L 268.98,298.32 L 268.98,298.29 L 268.97,298.24 L 268.97,298.20 L 268.97,298.18 L 269.01,298.13 L 269.01,298.11 L 269.01,298.09 L 268.98,298.01 L 268.97,297.96 L 268.97,297.92 L 268.98,297.87 L 268.99,297.86 L 269.00,297.85 L 269.05,297.81 L 269.07,297.79 L 269.13,297.67 L 269.17,297.58 L 269.19,297.57 L 269.26,297.53 L 269.29,297.51 L 269.30,297.49 L 269.32,297.46 L 269.34,297.43 L 269.35,297.41 L 269.35,297.38 L 269.35,297.37 L 269.31,297.26 L 269.29,297.21 L 269.28,297.17 L 269.29,297.16 L 269.30,297.12 L 269.31,297.08 L 269.32,297.05 L 269.32,297.03 L 269.32,297.01 L 269.31,296.96 L 269.31,296.94 L 269.32,296.93 L 269.33,296.90 L 269.43,296.78 L 269.48,296.74 L 269.58,296.66 L 269.62,296.63 L 269.66,296.57 L 269.70,296.51 L 269.71,296.49 L 269.72,296.46 L 269.72,296.41 L 269.71,296.39 L 269.67,296.29 L 269.67,296.26 L 269.67,296.24 L 269.72,296.16 L 269.74,296.12 L 269.75,296.09 L 269.76,295.98 L 269.77,295.94 L 269.78,295.91 L 269.80,295.89 L 269.95,295.79 L 270.05,295.70 L 270.06,295.69 L 270.07,295.67 L 270.07,295.65 L 270.06,295.64 L 270.04,295.62 L 270.02,295.59 L 270.02,295.56 L 270.03,295.54 L 270.05,295.52 L 270.08,295.51 L 270.16,295.49 L 270.20,295.48 L 270.23,295.46 L 270.27,295.43 L 270.30,295.41 L 270.32,295.38 L 270.33,295.36 L 270.34,295.34 L 270.37,295.24 L 270.41,295.14 L 270.42,295.11 L 270.45,294.98 L 270.46,294.96 L 270.51,294.92 L 270.52,294.90 L 270.56,294.81 L 270.59,294.77 L 270.63,294.73 L 270.65,294.71 L 270.70,294.68 L 270.78,294.66 L 270.80,294.65 L 270.83,294.63 L 270.90,294.54 L 270.92,294.52 L 270.94,294.51 L 270.98,294.51 L 271.06,294.53 L 271.25,294.52 L 271.38,294.53 L 271.42,294.53 L 271.44,294.52 L 271.49,294.51 L 271.52,294.49 L 271.53,294.48 L 271.55,294.46 L 271.57,294.43 L 271.58,294.41 L 271.59,294.34 L 271.59,294.32 L 271.61,294.30 L 271.62,294.28 L 271.66,294.26 L 271.73,294.24 L 271.76,294.23 L 271.82,294.22 L 271.84,294.21 L 271.85,294.20 L 271.90,294.14 L 271.93,294.13 L 271.94,294.12 L 271.97,294.13 L 271.99,294.13 L 272.09,294.18 L 272.18,294.23 L 272.21,294.24 L 272.32,294.26 L 272.37,294.29 L 272.39,294.30 L 272.45,294.30 L 272.48,294.31 L 272.52,294.33 L 272.65,294.42 L 272.69,294.46 L 272.75,294.53 L 272.78,294.55 L 272.80,294.56 L 272.83,294.55 L 272.88,294.55 L 272.90,294.55 L 272.92,294.57 L 272.95,294.60 L 272.96,294.64 L 272.98,294.69 L 273.02,294.76 L 273.05,294.79 L 273.10,294.80 L 273.16,294.81 L 273.20,294.80 L 273.23,294.78 L 273.26,294.75 L 273.29,294.70 L 273.31,294.65 L 273.34,294.62 L 273.35,294.61 L 273.36,294.62 L 273.37,294.63 L 273.41,294.68 L 273.44,294.69 L 273.52,294.72 L 273.56,294.74 L 273.59,294.77 L 273.62,294.77 L 273.63,294.77 L 273.65,294.76 L 273.69,294.75 L 273.73,294.75 L 273.76,294.76 L 273.79,294.78 L 273.82,294.81 L 273.83,294.85 L 273.86,294.91 L 273.87,294.92 L 273.87,294.93 L 273.89,294.94 L 274.00,294.94 L 274.04,294.94 L 274.06,294.95 L 274.11,295.01 L 274.19,295.08 L 274.23,295.13 L 274.25,295.17 L 274.28,295.20 L 274.31,295.25 L 274.32,295.37 L 274.33,295.42 L 274.35,295.45 L 274.37,295.47 L 274.40,295.49 L 274.48,295.52 L 274.50,295.54 L 274.55,295.63 L 274.59,295.74 L 274.60,295.83 L 274.61,295.90 L 274.62,295.96 L 274.63,296.07 L 274.63,296.13 L 274.64,296.18 L 274.66,296.21 L 274.68,296.25 L 274.72,296.28 L 274.78,296.31 L 274.88,296.34 L 274.92,296.34 L 274.98,296.34 L 275.03,296.32 L 275.08,296.31 L 275.13,296.31 L 275.15,296.31 L 275.17,296.33 L 275.19,296.35 L 275.21,296.37 L 275.26,296.40 L 275.29,296.43 L 275.33,296.47 L 275.35,296.51 L 275.38,296.59 L 275.39,296.60 L 275.41,296.61 L 275.44,296.62 L 275.46,296.63 L 275.51,296.65 L 275.54,296.66 L 275.58,296.69 L 275.60,296.74 L 275.67,296.83 L 275.71,296.88 L 275.78,296.94 L 275.83,296.99 L 275.90,297.04 L 275.94,297.07 L 276.00,297.17 L 276.04,297.22 L 276.06,297.24 L 276.11,297.28 L 276.17,297.30 L 276.44,297.40 L 276.49,297.41 L 276.54,297.40 L 276.60,297.39 L 276.67,297.36 L 276.76,297.32 L 276.84,297.24 L 276.87,297.21 L 276.89,297.17 L 276.94,297.12 L 276.97,297.11 L 276.99,297.10 L 277.02,297.10 L 277.05,297.11 L 277.11,297.15 L 277.18,297.19 L 277.27,297.27 L 277.29,297.29 L 277.30,297.32 L 277.31,297.33 L 277.31,297.35 L 277.30,297.38 L 277.28,297.43 L 277.27,297.47 L 277.25,297.57 L 277.23,297.63 L 277.23,297.68 L 277.23,297.70 L 277.27,297.78 L 277.31,297.82 L 277.38,297.87 L 277.41,297.89 L 277.45,297.92 L 277.50,297.96 L 277.55,298.01 L 277.59,298.07 L 277.62,298.12 L 277.64,298.17 L 277.69,298.25 L 277.70,298.27 L 277.73,298.30 L 277.77,298.33 L 277.79,298.34 L 277.85,298.34 L 277.86,298.34 L 277.89,298.37 L 277.89,298.39 L 277.89,298.41 L 277.87,298.53 L 277.84,298.61 L 277.83,298.65 L 277.83,298.66 L 277.83,298.71 L 277.84,298.76 L 277.85,298.80 L 277.89,298.85 L 277.90,298.90 L 277.90,298.96 L 277.87,299.08 L 277.86,299.15 L 277.85,299.20 L 277.83,299.24 L 277.74,299.32 L 277.70,299.38 L 277.71,299.39 L 277.76,299.46 L 277.84,299.54 L 277.86,299.56 L 277.89,299.57 L 277.92,299.58 L 277.94,299.59 L 277.96,299.61 L 277.98,299.65 L 277.99,299.70 L 278.00,299.72 L 278.04,299.74 L 278.12,299.77 L 278.16,299.79 L 278.18,299.80 L 278.19,299.82 L 278.22,299.92 L 278.27,299.98 L 278.28,300.00 L 278.30,300.04 L 278.31,300.09 L 278.33,300.14 L 278.34,300.15 L 278.39,300.20 L 278.46,300.23 L 278.53,300.25 L 278.61,300.30 L 278.71,300.34 L 278.73,300.38 L 278.76,300.45 L 278.77,300.47 L 278.80,300.49 L 278.82,300.50 L 278.89,300.52 L 278.97,300.52 L 279.03,300.51 L 279.11,300.47 L 279.19,300.44 L 279.21,300.44 L 279.80,300.38 L 279.82,300.36 L 279.86,300.21 L 279.88,300.19 L 280.03,300.16 L 280.06,300.16 L 280.09,300.14 L 280.19,300.07 L 280.20,300.06 L 280.21,300.06 L 280.27,300.06 L 280.29,300.05 L 280.32,300.03 L 280.35,299.99 L 280.37,299.92 L 280.43,299.85 L 280.49,299.80 L 280.59,299.73 L 280.66,299.65 L 280.75,299.52 L 280.78,299.50 L 280.82,299.49 L 280.86,299.50 L 280.88,299.51 L 280.90,299.53 L 280.92,299.56 L 280.98,299.64 L 281.02,299.69 L 281.08,299.71 L 281.18,299.73 L 281.31,299.75 L 281.55,299.73 L 281.69,299.71 L 281.76,299.70 L 281.80,299.70 L 281.85,299.73 L 281.89,299.77 L 281.91,299.81 L 281.93,299.85 L 281.96,299.89 L 282.00,299.92 L 282.06,299.99 L 282.11,300.06 L 282.25,300.25 L 282.30,300.31 L 282.38,300.36 L 282.47,300.38 L 282.55,300.39 L 282.67,300.40 L 282.72,300.35 L 282.81,300.24 L 282.92,300.16 L 283.02,300.12 L 283.08,300.11 L 283.11,300.11 L 283.18,300.14 L 283.20,300.16 L 283.22,300.17 L 283.26,300.15 L 283.30,300.13 L 283.31,300.13 L 283.33,300.15 L 283.38,300.25 L 283.38,300.25 L 283.39,300.26 L 283.46,300.34 L 283.49,300.37 L 283.57,300.40 L 283.64,300.41 L 283.72,300.41 L 283.80,300.45 L 283.90,300.51 L 283.95,300.52 L 284.05,300.53 L 284.19,300.44 L 284.25,300.41 L 284.28,300.40 L 284.44,300.42 L 284.45,300.41 L 284.49,300.37 L 284.53,300.31 L 284.55,300.30 L 284.58,300.30 L 284.59,300.31 L 284.67,300.35 L 284.71,300.37 L 284.76,300.38 L 284.80,300.38 L 284.81,300.38 L 284.83,300.37 L 284.85,300.33 L 284.89,300.25 L 284.91,300.20 L 284.92,300.19 L 284.93,300.19 L 285.07,300.19 L 285.10,300.18 L 285.19,300.13 L 285.22,300.11 L 285.28,300.10 L 285.33,300.12 L 285.36,300.12 L 285.68,299.88 L 285.75,299.86 L 285.87,299.84 L 285.94,299.83 L 285.96,299.83 L 285.99,299.79 L 286.01,299.70 L 286.01,299.63 L 286.07,299.49 L 286.08,299.46 L 286.10,299.43 L 286.08,299.38 L 286.07,299.36 L 286.05,299.34 L 285.98,299.32 L 285.88,299.33 L 285.81,299.33 L 285.71,299.32 L 285.63,299.29 L 285.59,299.27 L 285.53,299.18 L 285.52,299.16 L 285.52,299.15 L 285.54,299.14 L 285.55,299.14 L 285.63,299.14 L 285.69,299.13 L 285.91,299.03 L 286.08,298.94 L 286.12,298.91 L 286.16,298.84 L 286.15,298.70 L 286.15,298.66 L 286.13,298.62 L 286.08,298.59 L 285.92,298.55 L 285.82,298.53 L 285.78,298.52 L 285.77,298.51 L 285.77,298.48 L 285.78,298.44 L 285.80,298.40 L 285.83,298.37 L 285.86,298.35 L 285.90,298.34 L 286.10,298.31 L 286.19,298.28 L 286.26,298.24 L 286.33,298.19 L 286.36,298.07 L 286.36,298.04 L 286.35,298.01 L 286.33,297.99 L 286.31,297.98 L 286.17,297.98 L 286.16,297.96 L 286.14,297.93 L 286.14,297.86 L 286.14,297.83 L 286.18,297.78 L 286.23,297.76 L 286.30,297.74 L 286.35,297.74 L 286.40,297.73 L 286.42,297.70 L 286.51,297.60 L 286.55,297.59 L 286.58,297.59 L 286.63,297.60 L 286.72,297.63 L 286.76,297.63 L 286.81,297.63 L 286.85,297.62 L 286.93,297.57 L 286.95,297.56 L 286.96,297.56 L 286.97,297.57 L 287.03,297.62 L 287.09,297.66 L 287.12,297.69 L 287.16,297.74 L 287.19,297.75 L 287.28,297.76 L 287.33,297.75 L 287.37,297.74 L 287.38,297.74 L 287.39,297.75 L 287.40,297.79 L 287.41,297.81 L 287.52,297.87 L 287.55,297.89 L 287.59,297.95 L 287.60,297.96 L 287.71,297.96 L 287.73,297.96 L 287.77,297.99 L 287.78,298.00 L 287.82,297.99 L 287.85,297.96 L 287.88,297.93 L 287.90,297.86 L 287.96,297.74 L 288.05,297.62 L 288.08,297.61 L 288.13,297.60 L 288.20,297.61 L 288.23,297.60 L 288.27,297.57 L 288.31,297.52 L 288.36,297.44 L 288.39,297.40 L 288.41,297.39 L 288.45,297.38 L 288.49,297.39 L 288.52,297.40 L 288.53,297.40 L 288.52,297.31 L 288.49,297.26 L 288.44,297.20 L 288.38,297.13 L 288.36,297.12 L 288.31,297.10 L 288.31,297.09 L 288.32,297.08 L 288.44,297.03 L 288.47,297.01 L 288.56,297.00 L 288.59,296.98 L 288.62,296.95 L 288.64,296.91 L 288.66,296.85 L 288.68,296.78 L 288.69,296.74 L 288.70,296.72 L 288.71,296.71 L 288.73,296.71 L 288.80,296.74 L 288.82,296.74 L 288.85,296.71 L 288.89,296.69 L 288.94,296.68 L 289.18,296.67 L 289.25,296.66 L 289.34,296.66 L 289.40,296.65 L 289.45,296.62 L 289.54,296.60 L 289.59,296.60 L 289.63,296.61 L 289.70,296.65 L 289.76,296.67 L 289.81,296.66 L 289.84,296.66 L 289.86,296.64 L 289.90,296.59 L 289.91,296.57 L 289.93,296.56 L 289.95,296.56 L 290.04,296.56 L 290.13,296.53 L 290.13,296.51 L 290.15,296.48 L 290.16,296.46 L 290.22,296.44 L 290.31,296.44 L 290.33,296.43 L 290.34,296.38 L 290.37,296.32 L 290.39,296.23 L 290.52,296.06 L 290.53,295.98 L 290.51,295.97 L 290.41,295.92 L 290.40,295.89 L 290.44,295.71 L 290.44,295.68 L 290.40,295.65 L 290.36,295.62 L 290.36,295.60 L 290.47,295.46 L 290.52,295.40 L 290.46,295.30 L 290.44,295.25 L 290.39,295.21 L 290.37,295.09 L 290.25,294.98 L 290.04,295.01 L 290.01,294.82 L 290.05,294.72 L 290.11,294.65 L 290.14,294.58 L 290.12,294.50 L 290.10,294.42 L 290.03,294.41 L 289.98,294.37 L 289.96,294.32 L 289.96,294.29 L 289.98,294.26 L 290.03,294.21 L 290.07,294.16 L 290.09,294.10 L 290.06,294.08 L 290.03,294.02 L 290.04,293.86 L 290.13,293.77 L 290.20,293.79 L 290.27,293.85 L 290.38,293.77 L 290.49,293.54 L 290.53,293.41 L 290.60,293.39 L 290.64,293.39 L 290.68,293.32 L 290.82,293.24 L 290.93,293.23 L 290.94,293.23 L 290.87,293.37 L 290.85,293.44 L 290.86,293.49 L 290.90,293.54 L 290.94,293.57 L 290.99,293.62 L 291.03,293.65 L 291.07,293.65 L 291.14,293.64 L 291.14,293.62 L 291.13,293.56 L 291.18,293.42 L 291.22,293.38 L 291.26,293.37 L 291.28,293.37 L 291.32,293.38 L 291.35,293.39 L 291.39,293.37 L 291.42,293.34 L 291.47,293.29 L 291.51,293.20 L 291.51,293.16 L 291.46,293.06 L 291.46,293.02 L 291.46,292.98 L 291.46,292.94 L 291.46,292.91 L 291.41,292.89 L 291.37,292.83 L 291.37,292.74 L 291.40,292.61 L 291.40,292.50 L 291.35,292.28 L 291.36,292.24 L 291.43,292.15 L 291.43,292.04 L 291.32,291.81 L 291.33,291.74 L 291.32,291.62 L 291.33,291.50 L 291.31,291.40 L 291.31,291.35 L 291.37,291.12 L 291.38,291.01 L 291.38,290.90 L 291.37,290.79 L 291.36,290.70 L 291.38,290.61 L 291.40,290.54 L 291.43,290.44 L 291.52,290.34 L 291.59,290.27 L 291.61,290.18 L 291.64,290.13 L 291.65,290.08 L 291.68,290.03 L 291.70,289.97 L 291.75,289.86 L 291.76,289.78 L 291.77,289.70 L 291.82,289.65 L 291.86,289.54 L 291.84,289.34 L 291.86,289.23 L 291.86,289.05 L 291.87,289.01 L 291.88,288.97 L 291.90,288.95 L 291.91,288.93 L 291.86,288.81 L 291.83,288.75 L 291.83,288.73 L 291.86,288.70 L 291.89,288.67 L 291.93,288.65 L 291.99,288.65 L 292.06,288.65 L 292.11,288.62 L 292.22,288.64 L 292.37,288.60 L 292.42,288.53 L 292.40,288.41 L 292.38,288.35 L 292.38,288.31 L 292.40,288.26 L 292.45,288.23 L 292.47,288.18 L 292.47,288.13 L 292.52,288.07 L 292.51,288.00 L 292.55,287.94 L 292.59,287.87 L 292.60,287.78 L 292.58,287.70 L 292.54,287.66 L 292.51,287.52 L 292.48,287.44 L 292.47,287.39 L 292.46,287.36 L 292.46,287.23 L 292.46,287.16 L 292.44,287.10 L 292.47,287.05 L 292.58,286.97 L 292.68,286.92 L 292.72,286.89 L 292.87,286.83 L 292.92,286.73 L 292.89,286.57 L 292.85,286.46 L 292.77,286.43 L 292.72,286.42 L 292.66,286.37 L 292.63,286.37 L 292.61,286.36 L 292.60,286.23 L 292.62,286.18 L 292.64,286.14 L 292.71,286.04 L 292.73,285.97 L 292.76,285.93 L 292.76,285.91 L 292.71,285.91 L 292.72,285.85 L 292.76,285.73 L 292.78,285.65 L 292.79,285.61 L 292.85,285.52 L 292.86,285.50 L 292.93,285.43 L 292.99,285.31 L 293.06,285.35 L 293.13,285.38 L 293.22,285.36 L 293.37,285.35 L 293.41,285.33 L 293.45,285.31 L 293.48,285.32 L 293.51,285.34 L 293.53,285.34 L 293.55,285.34 L 293.57,285.33 L 293.59,285.31 L 293.60,285.28 L 293.60,285.20 L 293.61,285.19 L 293.63,285.19 L 293.70,285.24 L 293.75,285.25 L 293.78,285.29 L 293.81,285.35 L 293.84,285.36 L 293.89,285.33 L 293.93,285.31 L 293.97,285.31 L 294.01,285.30 L 294.06,285.30 L 294.09,285.32 L 294.13,285.34 L 294.18,285.37 L 294.21,285.42 L 294.22,285.48 L 294.24,285.51 L 294.27,285.56 L 294.28,285.60 L 294.27,285.64 L 294.23,285.71 L 294.20,285.77 L 294.19,285.81 L 294.19,285.84 L 294.19,285.87 L 294.21,285.91 L 294.25,285.96 L 294.29,286.00 L 294.29,286.03 L 294.30,286.06 L 294.29,286.15 L 294.29,286.16 L 294.34,286.18 L 294.38,286.19 L 294.40,286.20 L 294.44,286.21 L 294.48,286.23 L 294.52,286.27 L 294.54,286.32 L 294.53,286.38 L 294.55,286.46 L 294.58,286.51 L 294.62,286.52 L 294.74,286.55 L 294.77,286.55 L 294.81,286.56 L 294.87,286.58 L 294.94,286.63 L 294.98,286.70 L 295.00,286.77 L 295.02,286.86 L 295.02,286.93 L 295.04,286.98 L 295.06,287.02 L 295.10,287.06 L 295.19,287.07 L 295.31,287.06 L 295.39,287.10 L 295.50,287.08 L 295.62,287.12 L 295.82,287.11 L 295.96,287.13 L 295.98,287.11 L 296.01,287.07 L 296.03,287.07 L 296.04,287.05 L 296.05,287.02 L 296.08,287.00 L 296.12,286.99 L 296.15,286.99 L 296.19,287.00 L 296.36,286.92 L 296.43,286.89 L 296.51,286.90 L 296.59,286.93 L 296.61,286.96 L 296.66,286.87 L 296.69,286.79 L 296.76,286.74 L 296.94,286.77 L 297.04,286.86 L 297.14,286.87 L 297.25,286.85 L 297.31,286.77 L 297.34,286.73 L 297.39,286.70 L 297.43,286.69 L 297.58,286.69 L 297.61,286.67 L 297.65,286.58 L 297.66,286.57 L 297.69,286.57 L 297.81,286.65 L 297.85,286.66 L 297.94,286.69 L 298.00,286.71 L 298.08,286.77 L 298.22,286.82 L 298.28,286.86 L 298.34,286.89 L 298.43,286.93 L 298.51,286.97 L 298.52,286.97 L 298.53,286.95 L 298.56,286.90 L 298.66,286.83 L 298.82,286.73 L 298.89,286.70 L 298.94,286.66 L 299.03,286.59 L 299.10,286.53 L 299.16,286.49 L 299.18,286.48 L 299.22,286.46 L 299.30,286.43 L 299.35,286.38 L 299.34,286.33 L 299.34,286.29 L 299.34,286.29 L 299.31,286.29 L 299.30,286.28 L 299.28,286.27 L 299.27,286.25 L 299.27,286.23 L 299.29,286.16 L 299.31,286.13 L 299.34,286.10 L 299.37,286.08 L 299.42,286.04 L 299.47,286.00 L 299.50,285.99 L 299.56,285.99 L 299.62,286.00 L 299.64,285.99 L 299.64,285.97 L 299.63,285.94 L 299.62,285.91 L 299.66,285.83 L 299.66,285.81 L 299.68,285.78 L 299.68,285.78 L 299.63,285.73 L 299.63,285.71 L 299.63,285.67 L 299.70,285.60 L 299.71,285.57 L 299.74,285.55 L 299.79,285.54 L 299.77,285.51 L 299.67,285.43 L 299.53,285.32 L 299.49,285.30 L 299.47,285.24 L 299.44,285.22 L 299.35,285.22 L 299.32,285.21 L 299.30,285.18 L 299.31,285.14 L 299.31,285.11 L 299.31,285.08 L 299.30,285.08 L 299.27,285.09 L 299.22,285.11 L 299.18,285.15 L 299.14,285.19 L 299.11,285.19 L 299.07,285.18 L 299.04,285.17 L 299.01,285.12 L 298.99,285.05 L 298.99,284.99 L 298.93,284.96 L 298.91,284.92 L 298.90,284.88 L 298.87,284.81 L 298.85,284.76 L 298.87,284.72 L 298.92,284.67 L 298.96,284.64 L 299.06,284.59 L 299.15,284.57 L 299.22,284.53 L 299.31,284.57 L 299.35,284.56 L 299.38,284.52 L 299.36,284.43 L 299.36,284.41 L 299.39,284.35 L 299.40,284.25 L 299.44,284.16 L 299.48,284.09 L 299.51,283.97 L 299.55,283.91 L 299.61,283.86 L 299.64,283.81 L 299.67,283.77 L 299.67,283.70 L 299.67,283.63 L 299.65,283.59 L 299.63,283.57 L 299.57,283.50 L 299.51,283.43 L 299.45,283.41 L 299.40,283.40 L 299.36,283.39 L 299.32,283.38 L 299.31,283.36 L 299.28,283.32 L 299.29,283.29 L 299.37,283.19 L 299.36,283.14 L 299.36,283.11 L 299.41,283.08 L 299.48,283.05 L 299.46,282.88 L 299.47,282.85 L 299.52,282.84 L 299.61,282.82 L 299.71,282.72 L 299.83,282.65 L 299.86,282.62 L 299.88,282.57 L 299.86,282.53 L 299.86,282.49 L 299.81,282.41 L 299.77,282.30 L 299.77,282.25 L 299.78,282.21 L 299.80,282.19 L 299.84,282.18 L 299.99,282.19 L 300.02,282.18 L 300.03,282.18 L 300.05,282.16 L 300.05,282.13 L 300.05,282.06 L 300.06,282.01 L 300.07,281.94 L 300.08,281.90 L 300.10,281.87 L 300.14,281.83 L 300.13,281.77 L 300.12,281.70 L 300.14,281.66 L 300.23,281.61 L 300.29,281.59 L 300.35,281.47 L 300.35,281.39 L 300.38,281.32 L 300.41,281.30 L 300.48,281.29 L 300.70,281.29 L 300.77,281.27 L 300.80,281.25 L 300.82,281.20 L 300.92,281.10 L 301.02,281.10 L 301.14,281.17 L 301.26,281.07 L 301.30,281.00 L 301.30,280.93 L 301.34,280.69 L 301.36,280.65 L 301.44,280.61 L 301.46,280.58 L 301.42,280.51 L 301.42,280.47 L 301.45,280.38 L 301.44,280.34 L 301.41,280.32 L 301.31,280.27 L 301.25,280.19 L 301.21,280.14 L 301.22,280.07 L 301.16,280.07 L 301.10,280.08 L 301.08,280.06 L 301.10,280.00 L 301.02,279.94 L 301.02,279.91 L 301.05,279.74 L 301.11,279.64 L 301.15,279.64 L 301.32,279.63 L 301.50,279.58 L 301.54,279.57 L 301.57,279.51 L 301.63,279.43 L 301.65,279.44 L 301.71,279.43 L 301.72,279.38 L 301.74,279.36 L 301.83,279.33 L 301.83,279.29 L 301.71,279.19 L 301.86,279.11 L 301.98,279.06 L 302.02,279.04 L 302.36,279.04 L 302.43,279.03 L 302.51,278.99 L 302.54,278.94 L 302.49,278.85 L 302.44,278.81 L 302.37,278.78 L 302.30,278.75 L 302.15,278.67 L 302.10,278.63 L 302.04,278.57 L 301.99,278.56 L 301.97,278.54 L 301.95,278.49 L 301.95,278.43 L 301.95,278.40 L 301.91,278.39 L 301.80,278.40 L 301.74,278.39 L 301.70,278.37 L 301.70,278.35 L 301.74,278.33 L 301.76,278.30 L 301.76,278.25 L 301.68,278.15 L 301.68,278.14 L 301.73,278.10 L 301.76,278.04 L 301.74,277.94 L 301.68,277.78 L 301.56,277.66 L 301.49,277.63 L 301.54,277.46 L 301.67,277.48 L 301.68,277.43 L 301.75,277.37 L 301.81,277.30 L 301.93,277.26 L 301.98,277.14 L 301.70,276.94 L 301.77,276.84 L 301.89,276.73 L 301.99,276.73 L 302.08,276.72 L 302.21,276.75 L 302.28,276.74 L 302.32,276.70 L 302.39,276.61 L 302.42,276.53 L 302.36,276.43 L 302.37,276.42 L 302.54,276.29 L 302.70,276.29 L 302.74,276.18 L 302.79,276.14 L 302.87,276.16 L 302.96,276.15 L 303.03,276.16 L 303.01,276.00 L 303.04,275.94 L 303.02,275.84 L 303.07,275.82 L 303.15,275.78 L 303.02,275.58 L 302.95,275.51 L 302.82,275.47 L 302.82,275.45 L 302.83,275.42 L 302.88,275.37 L 302.91,275.35 L 302.95,275.37 L 302.99,275.38 L 303.14,275.43 L 303.27,275.49 L 303.33,275.48 L 303.37,275.44 L 303.37,275.33 L 303.30,275.24 L 303.29,275.21 L 303.34,275.20 L 303.44,275.18 L 303.49,275.13 L 303.55,275.12 L 303.61,275.15 L 303.67,275.22 L 303.78,275.26 L 303.86,275.18 L 304.07,275.22 L 304.18,275.21 L 304.26,275.17 L 304.31,275.07 L 304.39,275.09 L 304.44,275.13 L 304.48,275.10 L 304.64,275.08 L 304.72,275.07 L 304.74,274.98 L 304.82,274.93 L 304.94,274.78 L 305.06,274.62 L 304.98,274.54 L 304.97,274.46 L 304.93,274.40 L 304.93,274.35 L 304.97,274.28 L 305.02,274.21 L 305.06,274.14 L 305.07,274.10 L 305.07,274.07 L 305.04,274.03 L 305.07,273.99 L 305.11,273.96 L 305.19,273.94 L 305.26,273.90 L 305.32,273.87 L 305.34,273.79 L 305.40,273.75 L 305.44,273.68 L 305.46,273.64 L 305.54,273.58 L 305.55,273.54 L 305.51,273.44 L 305.49,273.39 L 305.49,273.32 L 305.55,273.30 L 305.64,273.28 L 305.71,273.22 L 305.77,273.20 L 305.82,273.18 L 305.82,273.14 L 305.75,273.07 L 305.74,272.99 L 305.69,272.97 L 305.58,272.96 L 305.56,272.93 L 305.56,272.87 L 305.55,272.84 L 305.39,272.84 L 305.34,272.75 L 305.27,272.67 L 305.30,272.57 L 305.27,272.51 L 305.19,272.51 L 305.13,272.54 L 305.05,272.58 L 305.01,272.56 L 304.97,272.50 L 304.97,272.38 L 304.94,272.36 L 304.95,272.33 L 304.96,272.30 L 304.97,272.29 L 304.94,272.28 L 304.90,272.25 L 304.87,272.22 L 304.82,272.22 L 304.80,272.17 L 304.75,272.13 L 304.69,272.12 L 304.58,272.14 L 304.49,272.13 L 304.43,272.10 L 304.38,272.16 L 304.35,272.11 L 304.20,272.07 L 304.11,272.05 L 304.00,272.08 L 303.91,272.11 L 303.84,272.15 L 303.80,272.19 L 303.75,272.12 L 303.72,272.13 L 303.62,272.18 L 303.58,272.19 L 303.51,272.24 L 303.46,272.33 L 303.41,272.37 L 303.36,272.39 L 303.32,272.40 L 303.23,272.42 L 303.14,272.41 L 303.05,272.42 L 302.97,272.46 L 302.91,272.47 L 302.85,272.49 L 302.80,272.47 L 302.77,272.46 L 302.73,272.47 L 302.63,272.41 L 302.60,272.37 L 302.53,272.35 L 302.48,272.32 L 302.36,272.34 L 302.32,272.33 L 302.28,272.30 L 302.23,272.29 L 302.20,272.30 L 302.14,272.34 L 302.08,272.37 L 302.05,272.41 L 302.02,272.46 L 302.00,272.50 L 301.98,272.52 L 301.91,272.59 L 301.89,272.61 L 301.87,272.61 L 301.83,272.64 L 301.80,272.67 L 301.79,272.69 L 301.76,272.70 L 301.73,272.69 L 301.70,272.67 L 301.69,272.60 L 301.72,272.48 L 301.73,272.42 L 301.74,272.38 L 301.76,272.35 L 301.79,272.31 L 301.81,272.25 L 301.83,272.20 L 301.85,272.16 L 301.86,272.10 L 301.85,272.04 L 301.85,272.00 L 301.88,271.90 L 301.91,271.83 L 301.91,271.79 L 301.93,271.72 L 301.92,271.71 L 301.91,271.68 L 301.88,271.67 L 301.82,271.68 L 301.77,271.66 L 301.71,271.64 L 301.66,271.62 L 301.57,271.57 L 301.52,271.54 L 301.43,271.50 L 301.39,271.48 L 301.34,271.46 L 301.28,271.44 L 301.25,271.43 L 301.18,271.42 L 301.12,271.40 L 301.08,271.38 L 301.04,271.34 L 301.03,271.30 L 301.02,271.26 L 300.98,271.18 L 300.96,271.16 L 300.89,271.12 L 300.78,271.07 L 300.70,271.04 L 300.66,271.01 L 300.55,270.97 L 300.47,270.91 L 300.46,270.88 L 300.45,270.83 L 300.46,270.76 L 300.47,270.72 L 300.44,270.67 L 300.36,270.62 L 300.23,270.59 L 300.18,270.52 L 300.15,270.47 L 300.14,270.40 L 300.08,270.38 L 299.90,270.33 L 299.81,270.26 L 299.70,270.22 L 299.63,270.16 L 299.58,270.10 L 299.53,270.06 L 299.53,270.06 L 299.48,270.03 L 299.47,270.01 L 299.45,270.00 L 299.43,269.99 L 299.41,269.97 L 299.34,269.93 L 299.32,269.92 L 299.30,269.90 L 299.27,269.88 L 299.26,269.89 L 299.24,269.91 L 299.20,269.90 L 299.20,269.90 L 299.18,269.85 L 299.15,269.83 L 299.09,269.72 L 299.06,269.70 L 299.05,269.69 L 299.02,269.67 L 299.01,269.66 L 298.99,269.64 L 298.98,269.63 L 298.96,269.61 L 298.94,269.61 L 298.93,269.59 L 298.91,269.53 L 298.91,269.51 L 298.91,269.49 L 298.90,269.48 L 298.88,269.47 L 298.86,269.47 L 298.81,269.48 L 298.79,269.47 L 298.78,269.47 L 298.77,269.46 L 298.76,269.44 L 298.72,269.43 L 298.69,269.42 L 298.67,269.42 L 298.61,269.39 L 298.56,269.35 L 298.50,269.28 L 298.47,269.23 L 298.43,269.21 L 298.39,269.15 L 298.45,269.14 L 298.52,269.12 L 298.60,269.08 L 298.67,269.03 L 298.74,268.98 L 298.77,268.98 L 298.80,269.01 L 298.83,269.04 L 298.84,269.04 L 298.88,269.04 L 298.96,269.01 L 299.03,268.88 L 298.99,268.80 L 298.99,268.74 L 299.04,268.70 L 299.04,268.64 L 298.96,268.50 L 298.86,268.50 L 298.78,268.53 L 298.75,268.53 L 298.72,268.53 L 298.70,268.50 L 298.69,268.46 L 298.67,268.40 L 298.62,268.36 L 298.56,268.30 L 298.46,268.09 L 298.39,267.89 L 298.30,267.91 L 298.24,267.92 L 298.19,267.90 L 298.16,267.94 L 298.14,267.95 L 297.91,267.88 L 297.54,267.72 L 297.40,267.82 L 297.29,267.80 L 297.29,267.85 L 297.10,267.96 L 297.06,267.92 L 296.88,268.03 L 296.85,268.01 L 296.78,267.98 L 296.74,267.97 L 296.72,267.95 L 296.71,267.91 L 296.74,267.86 L 296.78,267.82 L 296.79,267.78 L 296.76,267.71 L 296.66,267.68 L 296.63,267.68 L 296.53,267.77 L 296.50,267.76 L 296.43,267.70 L 296.31,267.66 L 296.28,267.66 L 296.23,267.72 L 296.20,267.76 L 296.18,267.80 L 296.16,267.82 L 296.10,267.91 L 296.07,267.97 L 296.07,267.99 L 296.13,268.03 L 296.15,268.08 L 296.16,268.17 L 296.17,268.23 L 296.15,268.37 L 296.08,268.41 L 296.10,268.47 L 296.10,268.59 L 296.14,268.64 L 296.15,268.68 L 296.07,268.72 L 295.97,268.75 L 295.95,268.81 L 295.93,268.87 L 295.88,268.91 L 295.82,268.96 L 295.79,268.97 L 295.76,268.97 L 295.69,268.97 L 295.66,268.97 L 295.63,269.01 L 295.62,269.03 L 295.62,269.06 L 295.59,269.11 L 295.57,269.12 L 295.53,269.13 L 295.50,269.15 L 295.47,269.22 L 295.46,269.26 L 295.44,269.31 L 295.42,269.33 L 295.39,269.34 L 295.37,269.32 L 295.34,269.31 L 295.29,269.28 L 295.24,269.25 L 295.20,269.24 L 295.12,269.23 L 295.08,269.19 L 295.06,269.14 L 295.01,269.10 L 294.98,269.07 L 294.93,268.97 L 294.91,268.91 L 294.91,268.87 L 294.90,268.83 L 294.88,268.81 L 294.86,268.76 L 294.78,268.75 L 294.69,268.69 L 294.61,268.71 L 294.56,268.73 L 294.49,268.72 L 294.45,268.66 L 294.44,268.61 L 294.50,268.52 L 294.66,268.42 L 294.66,268.34 L 294.57,268.20 L 294.53,268.06 L 294.42,268.01 L 294.33,267.96 L 294.28,267.99 L 294.24,268.08 L 294.15,268.02 L 294.03,268.02 L 294.04,267.91 L 294.04,267.83 L 294.06,267.79 L 294.08,267.76 L 294.09,267.74 L 294.07,267.71 L 294.02,267.68 L 293.72,267.50 L 293.46,267.36 L 293.36,267.25 L 293.30,267.17 L 293.23,267.08 L 293.17,267.00 L 293.15,266.96 L 293.11,266.90 L 293.10,266.80 L 293.09,266.72 L 293.06,266.68 L 293.00,266.68 L 292.97,266.67 L 292.94,266.65 L 292.92,266.62 L 292.90,266.47 L 292.89,266.42 L 292.90,266.40 L 292.99,266.34 L 293.02,266.29 L 293.01,266.26 L 292.90,266.25 L 292.87,266.20 L 292.87,266.16 L 292.87,266.09 L 292.87,265.98 L 292.84,265.93 L 292.81,265.91 L 292.77,265.90 L 292.71,265.89 L 292.68,265.89 L 292.66,265.88 L 292.64,265.86 L 292.65,265.82 L 292.65,265.75 L 292.65,265.71 L 292.65,265.59 L 292.64,265.56 L 292.61,265.56 L 292.52,265.56 L 292.49,265.55 L 292.48,265.45 L 292.46,265.42 L 292.43,265.41 L 292.38,265.42 L 292.27,265.46 L 292.21,265.47 L 292.17,265.47 L 292.14,265.46 L 292.12,265.44 L 292.09,265.41 L 292.07,265.37 L 292.00,265.30 L 291.97,265.24 L 291.96,265.19 L 291.91,265.19 L 291.74,265.24 L 291.69,265.24 L 291.65,265.25 L 291.61,265.29 L 291.56,265.33 L 291.53,265.36 L 291.46,265.44 L 291.45,265.47 L 291.41,265.56 L 291.38,265.59 L 291.30,265.65 L 291.27,265.68 L 291.25,265.69 L 291.23,265.69 L 291.21,265.67 L 291.18,265.64 L 291.14,265.61 L 291.10,265.61 L 291.06,265.62 L 291.02,265.64 L 290.99,265.67 L 290.90,265.67 L 290.79,265.70 L 290.77,265.72 L 290.73,265.74 L 290.69,265.82 L 290.65,265.88 L 290.57,265.95 L 290.55,265.99 L 290.52,266.01 L 290.50,266.03 L 290.47,266.05 L 290.44,266.05 L 290.42,266.05 L 290.39,266.04 L 290.37,266.02 L 290.33,265.97 L 290.32,265.94 L 290.29,265.90 L 290.27,265.88 L 290.21,265.85 L 290.18,265.85 L 290.15,265.83 L 290.14,265.80 L 290.15,265.79 L 290.12,265.76 L 290.10,265.76 L 290.06,265.81 L 290.04,265.82 L 290.00,265.83 L 289.96,265.81 L 289.93,265.79 L 289.88,265.75 L 289.71,265.70 L 289.67,265.69 L 289.63,265.71 L 289.60,265.70 L 289.56,265.68 L 289.53,265.64 L 289.49,265.61 L 289.44,265.59 L 289.42,265.56 L 289.41,265.53 L 289.40,265.47 L 289.39,265.41 L 289.34,265.43 L 289.27,265.44 L 289.21,265.43 L 289.19,265.41 L 289.17,265.37 L 289.15,265.34 L 289.14,265.31 L 289.12,265.23 L 289.14,265.13 L 289.06,265.09 L 289.03,265.04 L 289.02,265.01 L 289.03,264.93 L 289.02,264.91 L 289.01,264.87 L 289.01,264.82 L 289.03,264.77 L 289.04,264.74 L 289.07,264.69 L 289.09,264.65 L 289.13,264.58 L 289.07,264.58 L 289.02,264.59 L 288.87,264.62 L 288.69,264.62 L 288.67,264.61 L 288.64,264.59 L 288.60,264.62 L 288.58,264.72 L 288.51,264.68 L 288.40,264.66 L 288.37,264.65 L 288.38,264.53 L 288.36,264.47 L 288.31,264.45 L 288.26,264.44 L 288.20,264.39 L 288.18,264.34 L 288.21,264.26 L 288.20,264.24 L 288.16,264.22 L 288.09,264.26 L 287.92,264.21 L 287.88,264.23 L 287.81,264.28 L 287.78,264.34 L 287.74,264.33 L 287.74,264.33 L 287.69,264.32 L 287.63,264.22 L 287.59,264.21 L 287.54,264.21 L 287.44,264.23 L 287.39,264.24 L 287.36,264.26 L 287.33,264.28 L 287.31,264.29 L 287.27,264.34 L 287.27,264.36 L 287.27,264.40 L 287.28,264.45 L 287.30,264.48 L 287.31,264.51 L 287.31,264.57 L 287.29,264.58 L 287.23,264.60 L 287.19,264.64 L 287.20,264.67 L 287.21,264.68 L 287.25,264.72 L 287.26,264.74 L 287.26,264.76 L 287.25,264.79 L 287.23,264.82 L 287.20,264.85 L 287.16,264.86 L 287.12,264.87 L 287.04,264.87 L 287.01,264.88 L 286.99,264.89 L 286.91,264.98 L 286.88,265.04 L 286.86,265.07 L 286.85,265.11 L 286.86,265.17 L 286.87,265.20 L 286.88,265.25 L 286.92,265.29 L 286.94,265.34 L 286.95,265.37 L 286.94,265.39 L 286.94,265.41 L 286.93,265.45 L 286.92,265.46 L 286.87,265.46 L 286.84,265.45 L 286.77,265.42 L 286.74,265.42 L 286.71,265.43 L 286.70,265.47 L 286.69,265.51 L 286.69,265.56 L 286.70,265.61 L 286.73,265.68 L 286.75,265.71 L 286.78,265.74 L 286.82,265.80 L 286.83,265.83 L 286.83,265.85 L 286.82,265.88 L 286.76,265.94 L 286.73,265.96 L 286.70,265.98 L 286.69,266.00 L 286.68,266.02 L 286.67,266.07 L 286.63,266.11 L 286.64,266.17 L 286.66,266.22 L 286.68,266.29 L 286.68,266.30 L 286.69,266.36 L 286.70,266.43 L 286.71,266.46 L 286.72,266.49 L 286.72,266.52 L 286.72,266.55 L 286.73,266.59 L 286.74,266.64 L 286.74,266.69 L 286.74,266.74 L 286.73,266.76 L 286.71,266.79 L 286.69,266.79 L 286.61,266.89 L 286.53,266.96 L 286.47,266.94 L 286.44,266.85 L 286.39,266.76 L 286.11,266.86 L 286.09,266.88 L 286.10,266.91 L 286.12,266.99 L 286.11,267.03 L 285.99,267.10 L 285.92,267.12 L 285.87,267.11 L 285.82,267.04 L 285.78,267.01 L 285.64,267.02 L 285.59,266.96 L 285.56,266.83 L 285.51,266.72 L 285.41,266.70 L 285.35,266.67 L 285.29,266.63 L 285.25,266.63 L 285.22,266.64 L 285.18,266.72 L 285.11,266.83 L 285.07,266.87 L 285.07,266.90 L 285.07,266.93 L 285.10,267.01 L 285.12,267.08 L 285.10,267.17 L 285.04,267.20 L 284.99,267.22 L 284.82,267.16 L 284.73,267.16 L 284.70,267.17 L 284.68,267.19 L 284.68,267.28 L 284.68,267.32 L 284.70,267.36 L 284.69,267.40 L 284.64,267.45 L 284.62,267.52 L 284.58,267.55 L 284.53,267.55 L 284.47,267.49 L 284.44,267.48 L 284.40,267.45 L 284.34,267.30 L 284.30,267.25 L 284.23,267.21 L 284.18,267.10 L 284.16,267.03 L 284.14,267.01 L 284.09,266.92 L 284.02,266.95 L 283.93,266.99 L 283.86,267.01 L 283.80,267.02 L 283.72,267.04 L 283.71,267.17 L 283.70,267.22 L 283.65,267.29 L 283.63,267.33 L 283.60,267.38 L 283.53,267.45 L 283.54,267.48 L 283.54,267.55 L 283.51,267.59 L 283.49,267.67 L 283.39,267.73 L 283.37,267.78 L 283.33,267.84 L 283.25,267.85 L 283.16,267.87 L 283.05,267.88 L 282.95,267.89 L 282.86,267.93 L 282.81,267.96 L 282.76,267.99 L 282.74,268.02 L 282.72,268.05 L 282.68,268.07 L 282.66,268.07 L 282.61,268.05 L 282.59,268.00 L 282.58,267.95 L 282.58,267.89 L 282.56,267.86 L 282.52,267.83 L 282.46,267.76 L 282.43,267.69 L 282.42,267.61 L 282.37,267.52 L 282.35,267.50 L 282.30,267.50 L 282.25,267.52 L 282.17,267.57 L 282.15,267.62 L 282.11,267.69 L 282.08,267.74 L 281.98,267.80 L 281.94,267.83 L 281.90,267.87 L 281.83,267.89 L 281.78,267.91 L 281.69,267.98 L 281.58,268.05 L 281.54,268.06 L 281.52,268.07 L 281.52,268.10 L 281.53,268.17 L 281.56,268.21 L 281.62,268.25 L 281.68,268.27 L 281.82,268.40 L 281.87,268.43 L 281.88,268.46 L 281.88,268.51 L 281.90,268.60 L 281.91,268.65 L 281.90,268.70 L 281.87,268.73 L 281.83,268.75 L 281.76,268.75 L 281.62,268.73 L 281.57,268.71 L 281.53,268.72 L 281.50,268.74 L 281.46,268.81 L 281.44,268.82 L 281.41,268.82 L 281.37,268.81 L 281.35,268.79 L 281.30,268.63 L 281.28,268.55 L 281.25,268.49 L 281.16,268.42 L 281.10,268.40 L 281.05,268.39 L 280.97,268.38 L 280.92,268.40 L 280.89,268.44 L 280.86,268.45 L 280.81,268.46 L 280.73,268.46 L 280.65,268.43 L 280.61,268.39 L 280.48,268.19 L 280.42,268.24 L 280.37,268.27 L 280.26,268.22 L 280.17,268.26 L 280.10,268.24 L 280.07,268.24 L 279.98,268.27 L 279.89,268.24 L 279.80,268.18 L 279.71,268.19 L 279.52,268.21 L 279.40,268.27 L 279.34,268.33 L 279.24,268.32 L 279.18,268.42 L 279.12,268.47 L 279.03,268.51 L 279.00,268.55 L 278.98,268.60 L 278.98,268.65 L 279.02,268.73 L 279.02,268.77 L 278.99,268.82 L 278.91,268.93 L 278.88,268.98 L 278.87,269.01 L 278.91,269.07 L 278.94,269.10 L 278.95,269.15 L 278.97,269.19 L 278.97,269.24 L 278.95,269.29 L 278.89,269.35 L 278.88,269.39 L 278.87,269.41 L 278.85,269.45 L 278.80,269.46 L 278.77,269.49 L 278.73,269.52 L 278.72,269.56 L 278.69,269.58 L 278.66,269.59 L 278.58,269.60 L 278.53,269.66 L 278.50,269.74 L 278.45,269.80 L 278.31,269.92 L 278.13,269.93 L 277.95,269.91 L 277.89,269.85 L 277.90,269.78 L 277.86,269.67 L 277.83,269.65 L 277.78,269.65 L 277.73,269.59 L 277.71,269.57 L 277.68,269.57 L 277.65,269.57 L 277.66,269.46 L 277.65,269.45 L 277.55,269.43 L 277.45,269.39 L 277.35,269.30 L 277.29,269.22 L 277.27,269.18 L 277.25,269.15 L 277.22,269.09 L 277.18,269.07 L 277.13,269.08 L 277.09,269.00 L 277.01,268.92 L 276.97,268.80 L 276.88,268.78 L 276.84,268.78 L 276.81,268.79 L 276.78,268.80 L 276.76,268.80 L 276.73,268.83 L 276.73,268.84 L 276.73,268.84 L 276.72,268.84 L 276.72,268.84 L 276.73,268.86 L 276.69,268.98 L 276.66,269.10 L 276.62,269.18 L 276.57,269.19 L 276.53,269.14 L 276.50,269.14 L 276.48,269.16 L 276.44,269.19 L 276.43,269.22 L 276.41,269.23 L 276.38,269.26 L 276.34,269.30 L 276.30,269.30 L 276.28,269.30 L 276.24,269.25 L 276.21,269.24 L 276.16,269.24 L 276.14,269.24 L 276.12,269.26 L 276.10,269.27 L 276.08,269.27 L 276.05,269.31 L 276.05,269.34 L 276.05,269.35 L 276.05,269.38 L 276.02,269.42 L 275.99,269.43 L 275.95,269.44 L 275.88,269.43 L 275.79,269.39 L 275.74,269.34 L 275.72,269.31 L 275.71,269.26 L 275.68,269.18 L 275.65,269.12 L 275.60,269.07 L 275.54,269.03 L 275.50,268.99 L 275.37,268.90 L 275.32,268.87 L 275.27,268.85 L 275.24,268.83 L 275.19,268.83 L 275.16,268.82 L 275.11,268.82 L 275.05,268.81 L 275.01,268.78 L 274.97,268.77 L 274.91,268.79 L 274.87,268.80 L 274.84,268.83 L 274.83,268.86 L 274.82,268.90 L 274.84,268.95 L 274.86,269.02 L 274.86,269.07 L 274.86,269.11 L 274.84,269.14 L 274.81,269.15 L 274.76,269.16 L 274.69,269.18 L 274.65,269.20 L 274.61,269.21 L 274.56,269.21 L 274.52,269.18 L 274.47,269.14 L 274.45,269.11 L 274.39,269.12 L 274.34,269.10 L 274.29,269.07 L 274.24,269.02 L 274.20,268.97 L 274.16,268.93 L 274.11,268.92 L 274.05,268.93 L 273.97,268.93 L 273.92,268.91 L 273.88,268.87 L 273.85,268.82 L 273.82,268.78 L 273.72,268.75 L 273.66,268.75 L 273.60,268.76 L 273.56,268.79 L 273.50,268.82 L 273.47,268.80 L 273.41,268.77 L 273.37,268.77 L 273.34,268.79 L 273.31,268.76 L 273.20,268.70 L 273.10,268.65 L 273.05,268.64 L 273.00,268.61 L 272.94,268.54 L 272.93,268.51 L 272.96,268.47 L 272.99,268.45 L 273.04,268.44 L 273.13,268.39 L 273.19,268.35 L 273.26,268.37 L 273.29,268.34 L 273.31,268.32 L 273.32,268.26 L 273.32,268.19 L 273.26,268.17 L 273.20,268.17 L 273.03,268.15 L 272.93,268.10 L 272.90,268.05 L 272.87,268.02 L 272.83,267.93 L 272.72,267.94 L 272.60,267.88 L 272.57,267.75 L 272.50,267.59 L 272.66,267.46 L 272.77,267.46 L 272.89,267.40 L 272.96,267.42 L 273.03,267.42 L 273.07,267.35 L 273.07,267.23 L 273.16,267.17 L 273.21,267.13 L 273.22,267.09 L 273.18,266.99 L 273.18,266.94 L 273.22,266.89 L 273.27,266.86 L 273.31,266.83 L 273.34,266.80 L 273.35,266.72 L 273.34,266.63 L 273.34,266.58 L 273.20,266.28 L 273.05,266.03 L 273.01,265.98 L 272.93,265.93 L 272.89,265.89 L 272.86,265.88 L 272.83,265.87 L 272.76,265.90 L 272.68,265.89 L 272.63,265.88 L 272.61,265.82 L 272.59,265.76 L 272.56,265.72 L 272.54,265.70 L 272.50,265.67 L 272.44,265.66 L 272.44,265.54 L 272.41,265.51 L 272.40,265.37 L 272.34,265.28 L 272.33,265.24 L 272.36,265.16 L 272.37,265.04 L 272.23,265.06 L 272.08,265.04 L 272.04,264.86 L 272.10,264.72 L 272.10,264.67 L 272.07,264.64 L 272.01,264.63 L 271.92,264.57 L 271.80,264.58 L 271.61,264.49 L 271.79,264.27 L 271.72,264.11 L 271.77,264.07 L 271.87,264.05 L 271.84,264.01 L 271.74,263.87 L 271.66,263.84 L 271.59,263.78 L 271.39,263.66 L 271.27,263.66 L 271.09,263.61 L 271.06,263.59 L 271.05,263.53 L 271.06,263.41 L 271.08,263.33 L 271.10,263.27 L 271.08,263.23 L 271.06,263.21 L 270.97,263.18 L 270.93,263.20 L 270.90,263.26 L 270.84,263.28 L 270.79,263.27 L 270.74,263.20 L 270.73,263.16 L 270.71,263.10 L 270.70,263.02 L 270.71,262.97 L 270.70,262.93 L 270.67,262.89 L 270.62,262.86 L 270.57,262.85 L 270.49,262.86 L 270.43,262.86 L 270.40,262.85 L 270.37,262.82 L 270.36,262.79 L 270.35,262.75 L 270.33,262.69 L 270.22,262.60 L 270.18,262.54 L 270.15,262.48 L 270.12,262.44 L 270.07,262.39 L 270.06,262.37 L 270.07,262.32 L 270.07,262.26 L 269.98,262.15 L 269.83,262.05 L 269.82,261.98 L 269.75,261.90 L 269.71,261.88 L 269.59,261.99 L 269.51,261.99 L 269.39,262.00 L 269.27,261.97 L 269.18,261.90 L 269.12,261.78 L 269.04,261.75 L 268.98,261.73 L 268.85,261.72 L 268.78,261.91 L 268.75,261.93 L 268.65,261.96 L 268.62,262.04 L 268.55,262.06 L 268.38,261.98 L 268.31,262.02 L 268.20,262.09 L 268.14,262.07 L 268.06,262.02 L 267.98,262.03 L 267.95,262.02 L 267.88,261.99 L 267.83,262.05 L 267.77,262.05 L 267.74,262.02 L 267.73,261.95 L 267.69,261.93 L 267.65,261.89 L 267.59,261.83 L 267.50,261.80 L 267.44,261.78 L 267.38,261.79 L 267.31,261.80 L 267.25,261.78 L 267.22,261.72 L 267.19,261.64 L 267.17,261.59 L 267.00,261.51 L 266.82,261.46 L 266.75,261.46 L 266.71,261.44 L 266.67,261.32 L 266.58,261.30 L 266.50,261.31 L 266.41,261.30 L 266.33,261.35 L 266.29,261.33 L 266.22,261.30 L 266.15,261.29 L 266.09,261.27 L 266.03,261.24 L 266.01,261.27 L 265.99,261.32 L 265.95,261.37 L 265.87,261.40 L 265.79,261.44 L 265.79,261.47 L 265.85,261.54 L 265.85,261.61 L 265.77,261.68 L 265.71,261.66 L 265.63,261.67 L 265.47,261.79 L 265.30,261.78 L 265.17,261.79 L 265.10,261.90 L 265.04,262.00 L 264.74,261.75 L 264.61,261.62 L 264.54,261.62 L 264.43,261.72 L 264.34,261.77 L 264.31,261.82 L 264.15,261.86 L 264.10,261.87 L 264.05,261.86 L 264.03,261.73 L 263.99,261.65 L 263.92,261.50 L 263.87,261.49 L 263.83,261.37 L 263.83,261.31 L 263.83,261.30 L 263.73,261.32 L 263.66,261.26 L 263.61,261.33 L 263.58,261.46 L 263.50,261.48 L 263.47,261.48 L 263.45,261.48 L 263.44,261.47 L 263.44,261.41 L 263.45,261.35 L 263.43,261.29 L 263.38,261.24 L 263.29,261.21 L 263.26,261.10 L 263.26,261.01 L 263.21,261.00 L 263.08,260.98 L 262.98,261.11 L 262.88,261.10 L 262.80,261.10 L 262.72,261.14 L 262.63,261.13 L 262.47,261.29 L 262.42,261.35 L 262.37,261.39 L 262.33,261.41 L 262.21,261.44 L 262.13,261.47 L 262.10,261.51 L 262.03,261.52 L 261.97,261.57 L 261.95,261.57 L 261.88,261.55 L 261.77,261.54 L 261.71,261.54 L 261.56,261.62 L 261.53,261.62 L 261.47,261.46 L 261.37,261.45 L 261.28,261.41 L 261.18,261.44 L 261.15,261.48 L 261.16,261.57 L 261.14,261.61 L 261.10,261.62 L 260.97,261.55 L 260.92,261.58 L 260.85,261.68 L 260.82,261.69 L 260.79,261.69 L 260.74,261.68 L 260.70,261.65 L 260.66,261.61 L 260.64,261.58 L 260.63,261.53 L 260.60,261.43 L 260.58,261.42 L 260.49,261.46 L 260.40,261.47 L 260.34,261.51 L 260.32,261.53 L 260.26,261.57 L 260.21,261.56 L 260.17,261.58 L 260.15,261.58 L 260.13,261.57 L 260.00,261.43 L 259.94,261.46 L 259.88,261.50 L 259.84,261.52 L 259.78,261.55 L 259.74,261.55 L 259.72,261.55 L 259.70,261.54 L 259.69,261.53 L 259.63,261.52 L 259.46,261.60 L 259.42,261.60 L 259.32,261.53 L 259.25,261.53 L 259.18,261.50 L 259.13,261.48 L 259.09,261.49 L 259.05,261.51 L 259.02,261.52 L 258.99,261.54 L 258.97,261.54 L 258.92,261.54 L 258.87,261.54 L 258.75,261.52 L 258.68,261.51 L 258.64,261.50 L 258.61,261.50 L 258.58,261.50 L 258.53,261.50 L 258.49,261.51 L 258.45,261.54 L 258.43,261.63 L 258.43,261.69 L 258.45,261.72 L 258.46,261.76 L 258.47,261.81 L 258.49,261.85 L 258.49,261.90 L 258.49,261.96 L 258.48,262.02 L 258.48,262.08 L 258.47,262.13 L 258.44,262.19 L 258.37,262.23 L 258.46,262.31 L 258.57,262.38 L 258.64,262.56 L 258.68,262.65 L 258.71,262.76 L 258.73,262.89 L 258.78,262.99 L 258.81,263.06 L 258.80,263.15 L 258.78,263.22 L 258.70,263.42 L 258.69,263.50 L 258.70,263.59 L 258.69,263.67 L 258.67,263.77 L 258.68,263.86 L 258.66,263.95 L 258.54,264.01 L 258.52,264.07 L 258.48,264.12 L 258.49,264.14 L 258.55,264.29 L 258.49,264.38 L 258.34,264.47 L 258.31,264.64 L 258.23,264.69 L 258.20,264.67 L 258.16,264.62 L 258.11,264.59 L 258.09,264.59 L 258.08,264.60 L 258.08,264.62 L 258.07,264.68 L 258.06,264.70 L 258.06,264.71 L 258.06,264.72 L 258.07,264.74 L 258.05,264.75 L 257.96,264.73 L 257.84,264.72 L 257.76,264.70 L 257.70,264.68 L 257.66,264.60 L 257.58,264.59 L 257.50,264.53 L 257.39,264.41 L 257.33,264.34 L 257.25,264.30 L 257.11,264.30 L 257.04,264.26 L 256.86,264.19 L 256.62,264.18 L 256.50,264.14 L 256.36,264.10 L 256.23,264.08 L 256.11,264.11 L 256.03,264.08 L 255.93,264.05 L 255.91,264.11 L 255.88,264.19 L 255.90,264.37 L 255.88,264.47 L 255.87,264.57 L 255.84,264.73 L 255.80,264.74 L 255.70,264.74 L 255.55,264.79 L 255.37,264.89 L 255.25,264.78 L 255.14,264.82 L 254.91,264.84 L 254.86,264.78 L 254.77,264.77 L 254.70,264.69 L 254.58,264.74 L 254.53,264.70 L 254.41,264.61 L 254.36,264.56 L 254.31,264.50 L 254.20,264.44 L 254.12,264.43 L 254.06,264.42 L 254.01,264.40 L 253.96,264.35 L 253.90,264.40 L 253.82,264.42 L 253.76,264.51 L 253.60,264.55 L 253.39,264.68 L 253.35,264.68 L 253.25,264.78 L 253.11,264.76 L 253.01,264.79 L 252.90,264.68 L 252.79,264.71 L 252.70,264.73 L 252.51,264.85 L 252.48,264.86 L 252.40,264.79 L 252.17,264.79 L 252.07,264.91 L 252.04,265.04 L 252.02,265.12 L 252.03,265.21 L 252.02,265.30 L 251.99,265.33 L 251.95,265.40 L 251.84,265.52 L 251.77,265.53 L 251.79,265.64 L 251.89,265.71 L 251.84,265.82 L 251.95,265.89 L 251.97,265.99 L 251.87,266.11 L 251.57,266.07 L 251.53,266.17 L 251.35,266.18 L 251.32,266.07 L 251.20,265.99 L 251.02,265.72 L 251.04,265.64 L 251.02,265.55 L 251.02,265.46 L 251.11,265.39 L 251.10,265.31 L 251.15,265.15 L 251.02,265.07 L 250.97,264.94 L 250.92,264.90 L 250.88,264.85 L 250.85,264.81 L 250.81,264.75 L 250.74,264.72 L 250.54,264.68 L 250.42,264.65 L 250.36,264.62 L 250.29,264.59 L 250.25,264.55 L 250.12,264.50 L 250.08,264.41 L 250.09,264.33 L 250.07,264.28 L 250.04,264.23 L 250.07,264.19 L 250.16,264.16 L 250.14,264.11 L 250.13,264.08 L 250.11,264.06 L 249.93,263.90 L 249.76,263.80 L 249.72,263.75 L 249.68,263.67 L 249.65,263.59 L 249.71,263.44 L 249.95,263.52 L 249.94,263.39 L 249.90,263.27 L 249.93,263.24 L 250.10,263.19 L 250.18,263.04 L 250.18,262.91 L 249.97,262.74 L 249.88,262.80 L 249.80,262.81 L 249.76,262.86 L 249.66,262.90 L 249.62,262.95 L 249.49,262.89 L 249.44,262.96 L 249.38,262.97 L 249.24,262.85 L 249.24,262.80 L 249.22,262.72 L 249.53,262.57 L 249.51,262.52 L 249.49,262.48 L 249.48,262.41 L 249.39,262.39 L 249.19,262.23 L 249.24,262.13 L 249.21,262.09 L 249.17,262.02 L 249.13,261.93 L 249.17,261.80 L 248.70,261.45 L 248.69,261.35 L 248.66,261.33 L 248.55,261.35 L 248.48,261.28 L 248.32,261.28 L 248.11,261.31 L 248.09,261.35 L 248.10,261.40 L 248.09,261.51 L 248.15,261.58 L 247.96,261.67 L 247.94,261.76 L 247.82,261.72 L 247.73,261.74 L 247.65,261.68 L 247.42,261.66 L 247.39,261.60 L 247.25,261.61 L 247.25,261.58 L 247.29,261.49 L 247.24,261.43 L 247.14,261.34 L 246.94,261.18 L 246.81,261.06 L 246.57,260.81 L 246.43,260.52 L 246.41,260.49 L 246.24,260.18 L 246.18,260.00 L 246.11,259.90 L 246.00,259.73 L 245.88,259.61 L 245.69,259.57 L 245.50,259.46 L 245.40,259.47 L 245.33,259.41 L 245.22,259.41 L 245.18,259.37 L 245.02,259.37 L 244.96,259.29 L 244.83,259.34 L 244.72,259.30 L 244.68,259.22 L 244.74,259.09 L 244.56,259.03 L 244.29,258.98 L 244.09,258.91 L 243.79,259.10 L 243.54,258.96 L 243.49,258.82 L 243.38,258.79 L 243.20,258.83 L 243.20,258.69 L 242.98,258.42 L 243.05,258.37 L 243.09,258.33 L 243.10,258.19 L 243.09,258.04 L 243.09,257.98 L 243.08,257.87 L 243.08,257.80 L 243.09,257.72 L 242.85,257.79 L 242.76,257.65 L 242.75,257.57 L 242.66,257.51 L 242.78,257.32 L 242.64,257.30 L 242.65,257.13 L 242.57,257.10 L 242.52,257.08 L 242.49,257.07 L 242.40,257.08 L 242.32,257.07 L 242.27,257.04 L 242.24,257.01 L 242.13,256.87 L 242.03,256.70 L 241.95,256.71 L 241.92,256.78 L 241.92,256.87 L 242.01,257.05 L 242.07,257.24 L 241.90,257.14 L 241.86,257.14 L 241.81,257.14 L 241.72,257.13 L 241.66,257.12 L 241.60,257.12 L 241.47,257.14 L 241.41,257.19 L 241.37,257.26 L 241.23,257.19 L 241.16,257.20 L 241.07,257.20 L 240.95,257.19 L 240.68,257.19 L 240.49,257.15 L 240.30,257.11 L 240.22,257.11 L 240.19,257.15 L 240.13,257.16 L 240.07,257.16 L 240.03,257.14 L 239.99,257.10 L 239.94,257.05 L 239.82,256.92 L 239.24,256.56 L 239.15,256.46 L 239.11,256.44 L 239.06,256.43 L 238.97,256.43 L 238.97,256.43 L 238.75,256.43 L 238.72,256.43 L 238.69,256.43 L 238.67,256.43 L 238.66,256.41 L 238.64,256.37 L 238.64,256.34 L 238.63,256.26 L 238.61,256.20 L 238.58,256.16 L 238.54,256.13 L 238.47,256.11 L 238.42,256.08 L 238.40,256.06 L 238.36,256.01 L 238.32,255.97 L 238.29,255.95 L 238.25,255.95 L 238.23,255.94 L 238.19,255.94 L 238.16,255.95 L 238.10,255.99 L 237.98,256.03 L 237.87,256.03 L 237.83,256.02 L 237.78,256.01 L 237.73,256.02 L 237.69,256.02 L 237.65,256.05 L 237.62,256.06 L 237.51,256.10 L 237.46,256.12 L 237.43,256.15 L 237.41,256.19 L 237.40,256.25 L 237.42,256.35 L 237.40,256.44 L 237.25,256.65 L 237.09,256.74 L 236.87,256.86 L 236.79,257.01 L 236.70,256.90 L 236.29,256.62 L 236.09,256.36 L 236.04,256.34 L 235.97,256.35 L 235.85,256.32 L 235.77,256.35 L 235.41,256.37 L 235.22,256.60 L 235.18,256.74 L 234.88,256.79 L 234.75,256.90 L 234.44,256.80 L 234.15,256.61 L 234.06,256.49 L 233.99,256.42 L 233.96,256.31 L 233.93,256.20 L 233.87,256.13 L 233.79,256.08 L 233.76,255.96 L 233.81,255.88 L 233.67,255.81 L 233.47,255.66 L 233.59,255.51 L 233.66,255.31 L 233.62,255.06 L 233.74,254.99 L 233.82,254.83 L 233.81,254.73 L 233.69,254.74 L 233.73,254.51 L 233.66,254.40 L 233.77,254.20 L 233.77,254.10 L 233.73,254.03 L 233.66,254.09 L 233.55,253.97 L 233.52,253.94 L 233.62,253.91 L 233.72,253.81 L 233.72,253.74 L 233.52,253.75 L 233.41,253.78 L 233.19,253.97 L 233.14,254.15 L 232.95,254.25 L 232.69,254.33 L 232.36,254.34 L 232.22,254.28 L 232.06,254.28 L 231.85,254.25 Z" fill="#E5E7EB" stroke="#374151" stroke-width="1" fill-rule="evenodd"/>
</svg>