<svg xmlns="http://www.w3.org/2000/svg" viewBox="0 0 800 1400">
  <path d="M 347.02,427.29 L 346.45,427.95 L 345.92,428.65 L 345.44,429.38 L 345.01,430.14 L 344.63,430.93 L 344.31,431.74 L 344.05,432.58 L 343.84,433.43 L 343.70,434.29 L 343.61,435.16 L 343.58,436.04 L 343.62,436.91 L 343.71,437.78 L 343.87,438.64 L 344.08,439.49 L 344.35,440.32 L 344.68,441.13 L 345.06,441.92 L 345.50,442.68 L 345.99,443.40 L 346.53,444.09 L 347.11,444.75 L 347.74,445.36 L 348.40,445.92 L 349.11,446.44 L 349.85,446.91 L 350.62,447.32 L 351.41,447.69 L 352.23,447.99 L 353.07,448.24 L 353.93,448.43 L 354.79,448.56 L 355.66,448.63 L 356.54,448.64 L 357.41,448.59 L 358.28,448.49 L 359.14,448.32 L 359.98,448.09 L 360.81,447.80 L 361.61,447.46 L 362.39,447.06 L 363.14,446.61 L 363.86,446.11 L 364.54,445.56 L 365.19,444.97 L 365.78,444.33 L 366.34,443.65 L 366.84,442.94 L 367.30,442.19 L 367.70,441.42 L 368.05,440.61 L 368.34,439.79 L 368.58,438.95 L 368.75,438.09 L 368.87,437.22 L 368.93,436.35 L 368.92,435.47 L 368.86,434.60 L 368.73,433.74 L 368.55,432.88 L 368.30,432.04 L 368.00,431.22 L 367.65,430.42 L 367.24,429.65 L 366.78,428.90 L 366.26,428.20 L 365.70,427.52 L 365.10,426.89 L 364.45,426.30 L 363.76,425.76 L 363.04,425.27 L 362.29,424.83 L 361.50,424.44 L 360.69,424.10 L 359.86,423.82 L 359.02,423.60 L 358.16,423.44 L 357.29,423.34 L 356.41,423.30 L 355.54,423.32 L 354.67,423.40 L 353.80,423.54 L 352.95,423.74 L 352.12,424.00 L 351.30,424.31 L 350.51,424.68 L 349.74,425.10 L 349.01,425.58 L 348.31,426.10 L 347.64,426.68 L 347.02,427.29 Z M 276.36,375.00 L 276.16,375.25 L 276.09,375.32 L 276.07,375.34 L 276.03,375.37 L 275.97,375.42 L 275.92,375.45 L 275.88,375.47 L 275.78,375.49 L 275.68,375.53 L 275.51,375.67 L 275.33,375.83 L 275.28,375.91 L 275.25,375.97 L 275.21,376.05 L 275.19,376.11 L 275.17,376.18 L 275.15,376.25 L 275.12,376.39 L 275.10,376.51 L 275.10,376.61 L 275.10,376.65 L 275.12,376.74 L 275.17,376.93 L 275.24,377.13 L 275.29,377.30 L 275.34,377.42 L 275.40,377.61 L 275.44,377.72 L 275.48,377.83 L 275.49,377.88 L 275.50,377.92 L 275.51,378.03 L 275.52,378.16 L 275.52,378.34 L 275.52,378.42 L 275.53,378.51 L 275.54,378.58 L 275.56,378.71 L 275.61,378.86 L 275.68,379.01 L 275.72,379.07 L 275.78,379.19 L 275.84,379.32 L 275.90,379.39 L 275.98,379.55 L 275.98,379.60 L 275.96,379.65 L 275.96,379.65 L 275.93,379.81 L 275.81,379.96 L 275.63,380.12 L 275.36,380.41 L 275.27,380.52 L 275.16,380.67 L 275.09,380.76 L 275.04,380.84 L 275.01,380.90 L 275.00,380.95 L 274.98,380.99 L 274.97,381.09 L 274.96,381.13 L 274.96,381.18 L 274.98,381.27 L 275.03,381.41 L 275.06,381.55 L 275.07,381.57 L 275.10,381.73 L 275.10,381.82 L 275.09,381.88 L 275.07,381.98 L 275.02,382.06 L 274.94,382.13 L 274.80,382.23 L 274.65,382.33 L 274.53,382.42 L 274.24,382.63 L 274.22,382.64 L 274.17,382.68 L 274.08,382.75 L 274.02,382.81 L 273.97,382.86 L 273.90,382.96 L 273.84,383.07 L 273.81,383.15 L 273.79,383.21 L 273.79,383.26 L 273.79,383.29 L 273.80,383.45 L 273.81,383.58 L 273.82,383.65 L 273.84,383.72 L 273.81,383.72 L 273.77,383.72 L 273.75,383.73 L 273.73,383.74 L 273.68,383.78 L 273.64,383.84 L 273.59,383.89 L 273.56,383.92 L 273.52,383.95 L 273.50,383.96 L 273.48,383.96 L 273.44,383.96 L 273.38,383.94 L 273.35,383.94 L 273.32,383.93 L 273.31,383.93 L 273.30,383.92 L 273.28,383.91 L 273.27,383.90 L 273.25,383.88 L 273.24,383.86 L 273.23,383.83 L 273.22,383.82 L 273.21,383.81 L 273.20,383.81 L 273.19,383.81 L 273.16,383.81 L 273.14,383.82 L 273.12,383.83 L 273.10,383.83 L 273.09,383.83 L 273.07,383.82 L 273.05,383.81 L 273.04,383.80 L 273.02,383.79 L 273.01,383.77 L 273.01,383.75 L 273.01,383.72 L 273.01,383.69 L 273.00,383.69 L 273.00,383.68 L 273.00,383.67 L 272.99,383.66 L 272.98,383.66 L 272.93,383.65 L 272.83,383.56 L 272.75,383.50 L 272.74,383.49 L 272.73,383.46 L 272.71,383.44 L 272.70,383.43 L 272.68,383.43 L 272.67,383.43 L 272.62,383.43 L 272.58,383.45 L 272.55,383.46 L 272.53,383.46 L 272.51,383.45 L 272.50,383.45 L 272.48,383.44 L 272.46,383.42 L 272.44,383.41 L 272.42,383.39 L 272.40,383.38 L 272.38,383.37 L 272.35,383.37 L 272.33,383.36 L 272.32,383.43 L 272.30,383.51 L 272.29,383.58 L 272.28,383.64 L 272.27,383.69 L 272.26,383.75 L 272.25,383.79 L 272.24,383.77 L 272.22,383.74 L 272.21,383.73 L 272.20,383.71 L 272.18,383.70 L 272.17,383.69 L 272.16,383.69 L 272.14,383.68 L 272.12,383.68 L 272.10,383.68 L 272.09,383.69 L 272.08,383.70 L 272.07,383.73 L 272.06,383.74 L 272.04,383.75 L 272.02,383.75 L 272.01,383.75 L 272.01,383.74 L 271.99,383.73 L 271.98,383.72 L 271.98,383.71 L 271.96,383.69 L 271.95,383.67 L 271.94,383.65 L 271.93,383.64 L 271.91,383.63 L 271.90,383.62 L 271.88,383.61 L 271.87,383.61 L 271.86,383.62 L 271.85,383.63 L 271.83,383.64 L 271.81,383.65 L 271.80,383.64 L 271.79,383.63 L 271.79,383.62 L 271.79,383.61 L 271.79,383.60 L 271.78,383.59 L 271.78,383.57 L 271.77,383.56 L 271.76,383.56 L 271.74,383.55 L 271.71,383.55 L 271.70,383.55 L 271.67,383.54 L 271.66,383.53 L 271.64,383.51 L 271.62,383.50 L 271.60,383.50 L 271.58,383.50 L 271.57,383.50 L 271.55,383.51 L 271.54,383.52 L 271.54,383.52 L 271.53,383.54 L 271.53,383.57 L 271.52,383.59 L 271.52,383.61 L 271.51,383.63 L 271.49,383.65 L 271.47,383.66 L 271.46,383.67 L 271.44,383.67 L 271.42,383.66 L 271.41,383.66 L 271.40,383.65 L 271.40,383.64 L 271.39,383.63 L 271.39,383.61 L 271.38,383.58 L 271.38,383.57 L 271.37,383.55 L 271.36,383.55 L 271.35,383.55 L 271.34,383.55 L 271.32,383.56 L 271.31,383.57 L 271.30,383.58 L 271.28,383.58 L 271.26,383.58 L 271.24,383.58 L 271.21,383.58 L 271.18,383.58 L 271.16,383.58 L 271.14,383.57 L 271.12,383.56 L 271.10,383.54 L 271.09,383.53 L 271.08,383.52 L 271.06,383.52 L 271.05,383.52 L 271.03,383.51 L 271.01,383.51 L 270.99,383.50 L 270.97,383.49 L 270.96,383.49 L 270.94,383.48 L 270.93,383.48 L 270.91,383.48 L 270.90,383.48 L 270.88,383.48 L 270.87,383.49 L 270.86,383.50 L 270.86,383.51 L 270.86,383.52 L 270.86,383.54 L 270.87,383.56 L 270.88,383.58 L 270.89,383.60 L 270.89,383.62 L 270.89,383.64 L 270.89,383.66 L 270.88,383.68 L 270.87,383.70 L 270.87,383.72 L 270.86,383.73 L 270.86,383.74 L 270.87,383.76 L 270.88,383.77 L 270.89,383.78 L 270.90,383.80 L 270.91,383.81 L 270.90,383.83 L 270.89,383.84 L 270.88,383.84 L 270.86,383.85 L 270.84,383.85 L 270.81,383.85 L 270.78,383.85 L 270.76,383.85 L 270.74,383.85 L 270.72,383.86 L 270.71,383.88 L 270.68,383.89 L 270.66,383.90 L 270.65,383.91 L 270.63,383.91 L 270.61,383.91 L 270.59,383.91 L 270.58,383.90 L 270.57,383.90 L 270.55,383.91 L 270.54,383.92 L 270.53,383.94 L 270.51,383.97 L 270.50,383.99 L 270.48,384.01 L 270.47,384.03 L 270.46,384.05 L 270.44,384.05 L 270.42,384.06 L 270.40,384.06 L 270.37,384.06 L 270.35,384.07 L 270.34,384.08 L 270.32,384.09 L 270.31,384.11 L 270.30,384.12 L 270.28,384.14 L 270.27,384.15 L 270.24,384.15 L 270.22,384.16 L 270.19,384.16 L 270.16,384.17 L 270.14,384.18 L 270.12,384.19 L 270.10,384.20 L 270.08,384.21 L 270.06,384.22 L 270.04,384.23 L 270.02,384.23 L 270.00,384.24 L 269.98,384.24 L 269.96,384.24 L 269.94,384.24 L 269.92,384.23 L 269.90,384.24 L 269.86,384.24 L 269.85,384.26 L 269.83,384.29 L 269.81,384.30 L 269.80,384.30 L 269.79,384.30 L 269.77,384.30 L 269.75,384.30 L 269.74,384.31 L 269.72,384.32 L 269.70,384.34 L 269.68,384.35 L 269.65,384.36 L 269.63,384.38 L 269.60,384.39 L 269.58,384.40 L 269.55,384.41 L 269.52,384.42 L 269.49,384.43 L 269.47,384.44 L 269.44,384.44 L 269.41,384.46 L 269.38,384.46 L 269.35,384.47 L 269.31,384.49 L 269.28,384.49 L 269.25,384.50 L 269.23,384.50 L 269.21,384.50 L 269.20,384.50 L 269.18,384.49 L 269.16,384.49 L 269.14,384.47 L 269.12,384.46 L 269.10,384.44 L 269.08,384.43 L 269.06,384.41 L 269.04,384.40 L 269.03,384.39 L 269.02,384.38 L 269.01,384.38 L 269.00,384.39 L 269.00,384.40 L 269.00,384.41 L 269.00,384.43 L 269.00,384.45 L 268.99,384.46 L 268.98,384.47 L 268.97,384.47 L 268.96,384.48 L 268.94,384.49 L 268.93,384.50 L 268.92,384.51 L 268.91,384.52 L 268.89,384.53 L 268.86,384.53 L 268.84,384.53 L 268.80,384.52 L 268.77,384.52 L 268.74,384.52 L 268.73,384.52 L 268.71,384.52 L 268.69,384.53 L 268.68,384.54 L 268.67,384.55 L 268.66,384.57 L 268.65,384.58 L 268.63,384.59 L 268.61,384.59 L 268.60,384.59 L 268.58,384.60 L 268.56,384.61 L 268.55,384.62 L 268.53,384.63 L 268.52,384.65 L 268.50,384.66 L 268.49,384.67 L 268.47,384.68 L 268.46,384.69 L 268.45,384.71 L 268.44,384.72 L 268.43,384.72 L 268.41,384.73 L 268.40,384.72 L 268.39,384.71 L 268.38,384.71 L 268.37,384.71 L 268.36,384.71 L 268.34,384.71 L 268.32,384.72 L 268.30,384.73 L 268.29,384.74 L 268.28,384.75 L 268.26,384.77 L 268.23,384.79 L 268.22,384.80 L 268.21,384.82 L 268.20,384.83 L 268.19,384.84 L 268.17,384.85 L 268.15,384.87 L 268.12,384.88 L 268.10,384.90 L 268.07,384.93 L 268.05,384.94 L 268.03,384.96 L 268.02,384.98 L 268.01,384.99 L 267.99,385.00 L 267.98,385.01 L 267.96,385.02 L 267.95,385.03 L 267.95,385.04 L 267.95,385.05 L 267.94,385.06 L 267.93,385.06 L 267.91,385.06 L 267.89,385.08 L 267.88,385.09 L 267.86,385.08 L 267.85,385.07 L 267.85,385.06 L 267.84,385.05 L 267.83,385.03 L 267.83,385.01 L 267.84,384.99 L 267.85,384.99 L 267.85,384.97 L 267.85,384.96 L 267.84,384.94 L 267.83,384.93 L 267.80,384.90 L 267.78,384.88 L 267.74,384.84 L 267.72,384.82 L 267.69,384.77 L 267.66,384.74 L 267.63,384.71 L 267.66,384.67 L 267.70,384.63 L 267.73,384.59 L 267.88,384.34 L 267.94,384.24 L 267.99,384.15 L 267.96,384.07 L 267.94,384.04 L 267.90,383.99 L 267.90,383.98 L 267.79,383.91 L 267.72,383.99 L 267.69,383.96 L 267.63,383.93 L 267.49,383.83 L 267.47,383.86 L 267.41,383.82 L 267.39,383.82 L 267.36,383.83 L 267.35,383.83 L 267.35,383.85 L 267.34,383.86 L 267.34,383.87 L 267.33,383.89 L 267.32,383.91 L 267.31,383.92 L 267.29,383.93 L 267.28,383.94 L 267.26,383.93 L 267.24,383.92 L 267.21,383.92 L 267.19,383.92 L 267.16,383.92 L 267.12,383.92 L 267.07,383.92 L 267.03,383.92 L 266.98,383.91 L 266.94,383.91 L 266.92,383.90 L 266.90,383.88 L 266.88,383.85 L 266.86,383.82 L 266.84,383.78 L 266.84,383.75 L 266.84,383.72 L 266.83,383.71 L 266.80,383.67 L 266.76,383.64 L 266.70,383.60 L 266.66,383.56 L 266.64,383.56 L 266.61,383.56 L 266.56,383.56 L 266.52,383.55 L 266.52,383.55 L 266.52,383.53 L 266.51,383.49 L 266.51,383.47 L 266.49,383.46 L 266.47,383.45 L 266.47,383.41 L 266.47,383.37 L 266.45,383.36 L 266.39,383.34 L 266.36,383.33 L 266.30,383.31 L 266.28,383.31 L 266.27,383.29 L 266.19,383.15 L 265.86,383.28 L 265.88,383.35 L 265.88,383.40 L 265.87,383.42 L 265.86,383.46 L 265.85,383.49 L 265.84,383.52 L 265.82,383.56 L 265.81,383.58 L 265.79,383.60 L 265.78,383.62 L 265.75,383.64 L 265.73,383.65 L 265.71,383.65 L 265.69,383.65 L 265.69,383.66 L 265.70,383.68 L 265.71,383.71 L 265.72,383.74 L 265.71,383.76 L 265.70,383.81 L 265.69,383.86 L 265.69,383.88 L 265.69,383.91 L 265.70,383.94 L 265.71,383.96 L 265.72,383.98 L 265.71,383.99 L 265.70,384.01 L 265.68,384.03 L 265.67,384.06 L 265.65,384.10 L 265.63,384.13 L 265.61,384.18 L 265.59,384.23 L 265.62,384.23 L 265.61,384.30 L 265.63,384.30 L 265.65,384.38 L 265.71,384.36 L 265.71,384.36 L 265.72,384.36 L 265.73,384.35 L 265.77,384.34 L 265.77,384.34 L 265.77,384.35 L 265.77,384.35 L 265.77,384.36 L 265.77,384.36 L 265.78,384.38 L 265.81,384.44 L 265.82,384.43 L 265.84,384.42 L 265.86,384.45 L 265.88,384.44 L 265.88,384.44 L 265.88,384.45 L 265.85,384.46 L 265.83,384.47 L 265.83,384.48 L 265.83,384.48 L 265.84,384.50 L 265.85,384.50 L 265.85,384.50 L 265.86,384.49 L 265.87,384.50 L 265.88,384.50 L 265.88,384.50 L 265.87,384.51 L 265.87,384.52 L 265.90,384.50 L 265.92,384.49 L 265.92,384.49 L 265.93,384.48 L 265.94,384.48 L 265.97,384.51 L 266.01,384.55 L 266.06,384.61 L 266.11,384.65 L 266.21,384.74 L 266.18,384.80 L 266.17,384.84 L 266.15,384.86 L 266.12,384.89 L 266.07,384.95 L 266.06,384.97 L 265.98,385.05 L 265.95,385.08 L 265.97,385.10 L 265.97,385.11 L 265.97,385.12 L 265.96,385.23 L 265.96,385.25 L 265.97,385.26 L 265.97,385.29 L 265.92,385.29 L 265.92,385.32 L 266.03,385.63 L 266.08,385.66 L 266.11,385.66 L 266.14,385.66 L 266.19,385.66 L 266.25,385.65 L 266.31,385.65 L 266.34,385.65 L 266.38,385.65 L 266.40,385.66 L 266.44,385.68 L 266.47,385.69 L 266.51,385.70 L 266.55,385.70 L 266.61,385.71 L 266.64,385.71 L 266.64,385.73 L 266.64,385.76 L 266.68,385.75 L 266.71,385.75 L 266.75,385.75 L 266.79,385.76 L 266.80,385.75 L 266.80,385.73 L 266.80,385.71 L 266.80,385.67 L 266.80,385.64 L 266.85,385.64 L 266.87,385.64 L 266.88,385.65 L 266.88,385.70 L 266.89,385.77 L 266.91,385.86 L 266.91,385.90 L 266.92,385.90 L 267.04,385.88 L 267.05,385.90 L 267.07,385.94 L 267.10,385.97 L 267.13,386.00 L 267.17,386.04 L 267.20,386.07 L 267.25,386.12 L 267.28,386.15 L 267.34,386.20 L 267.34,386.22 L 267.33,386.26 L 267.32,386.32 L 267.30,386.37 L 267.24,386.39 L 267.23,386.41 L 267.19,386.41 L 267.14,386.42 L 267.14,386.48 L 267.14,386.52 L 267.13,386.52 L 267.08,386.52 L 267.03,386.52 L 266.99,386.52 L 266.99,386.56 L 266.99,386.59 L 266.98,386.61 L 266.95,386.60 L 266.90,386.60 L 266.89,386.63 L 266.89,386.71 L 266.89,386.76 L 266.95,386.77 L 266.99,386.77 L 267.03,386.77 L 267.03,386.80 L 267.02,386.84 L 267.00,386.93 L 266.98,387.01 L 266.97,387.07 L 266.97,387.11 L 266.97,387.14 L 266.98,387.17 L 267.00,387.19 L 267.01,387.21 L 267.03,387.22 L 266.99,387.25 L 266.99,387.25 L 266.98,387.25 L 266.99,387.27 L 266.90,387.29 L 266.90,387.28 L 266.90,387.27 L 266.88,387.28 L 266.88,387.29 L 266.87,387.29 L 266.87,387.41 L 266.85,387.41 L 266.78,387.52 L 266.84,387.71 L 266.86,387.80 L 266.95,387.81 L 266.97,387.81 L 266.98,387.82 L 266.99,387.89 L 267.06,387.87 L 267.06,387.86 L 267.12,387.84 L 267.12,387.86 L 267.15,387.85 L 267.13,387.89 L 267.15,387.90 L 267.16,387.93 L 267.17,387.98 L 267.13,387.99 L 267.14,388.04 L 267.12,388.03 L 267.11,388.04 L 267.12,388.05 L 267.13,388.11 L 267.14,388.12 L 267.15,388.14 L 267.13,388.15 L 267.14,388.15 L 267.14,388.15 L 267.15,388.16 L 267.15,388.16 L 267.15,388.17 L 267.15,388.17 L 267.15,388.19 L 267.16,388.21 L 267.17,388.25 L 267.15,388.25 L 267.10,388.26 L 267.06,388.27 L 267.01,388.29 L 266.97,388.31 L 266.94,388.34 L 266.92,388.35 L 266.86,388.38 L 266.84,388.39 L 266.80,388.41 L 266.74,388.45 L 266.69,388.50 L 266.67,388.48 L 266.64,388.50 L 266.63,388.47 L 266.65,388.46 L 266.64,388.44 L 266.62,388.46 L 266.62,388.45 L 266.59,388.47 L 266.60,388.48 L 266.57,388.50 L 266.53,388.54 L 266.51,388.55 L 266.50,388.56 L 266.52,388.58 L 266.53,388.60 L 266.52,388.61 L 266.54,388.63 L 266.53,388.64 L 266.55,388.67 L 266.51,388.74 L 266.51,388.74 L 266.49,388.78 L 266.47,388.81 L 266.44,388.85 L 266.42,388.87 L 266.39,388.90 L 266.36,388.92 L 266.32,388.93 L 266.28,388.95 L 266.22,388.96 L 266.17,388.98 L 266.14,389.00 L 266.12,389.02 L 266.10,389.05 L 266.10,389.07 L 266.10,389.10 L 266.11,389.14 L 266.11,389.17 L 266.12,389.20 L 266.14,389.23 L 266.15,389.24 L 266.17,389.28 L 266.19,389.32 L 266.21,389.34 L 266.21,389.37 L 266.22,389.40 L 266.22,389.44 L 266.22,389.49 L 266.22,389.54 L 266.23,389.59 L 266.23,389.63 L 266.23,389.67 L 266.25,389.69 L 266.27,389.71 L 266.29,389.72 L 266.36,389.73 L 266.43,389.75 L 266.47,389.76 L 266.52,389.77 L 266.55,389.77 L 266.58,389.78 L 266.60,389.81 L 266.64,389.89 L 266.70,389.95 L 266.72,389.98 L 266.73,390.01 L 266.73,390.05 L 266.72,390.11 L 266.73,390.18 L 266.73,390.19 L 266.72,390.27 L 266.73,390.34 L 266.71,390.40 L 266.69,390.45 L 266.65,390.50 L 266.60,390.53 L 266.53,390.60 L 266.51,390.64 L 266.52,390.71 L 266.52,390.80 L 266.53,390.83 L 266.52,390.87 L 266.50,390.90 L 266.49,390.92 L 266.50,390.96 L 266.50,390.98 L 266.51,391.01 L 266.51,391.04 L 266.50,391.06 L 266.48,391.08 L 266.46,391.10 L 266.44,391.12 L 266.44,391.14 L 266.43,391.18 L 266.43,391.23 L 266.44,391.32 L 266.44,391.39 L 266.43,391.52 L 266.43,391.59 L 266.44,391.66 L 266.43,391.74 L 266.43,391.78 L 266.42,391.83 L 266.39,391.88 L 266.31,391.99 L 266.26,392.05 L 266.24,392.08 L 266.21,392.12 L 266.19,392.16 L 266.17,392.20 L 266.17,392.21 L 266.14,392.30 L 265.91,392.29 L 265.90,392.29 L 265.87,392.30 L 265.75,392.34 L 265.68,392.36 L 265.67,392.36 L 265.66,392.37 L 265.65,392.38 L 265.63,392.39 L 265.61,392.42 L 265.60,392.42 L 265.53,392.45 L 265.60,392.51 L 265.70,392.59 L 265.72,392.79 L 265.71,392.80 L 265.71,392.81 L 265.71,393.04 L 265.70,393.04 L 265.70,393.08 L 265.68,393.08 L 265.68,393.12 L 265.47,393.36 L 265.44,393.33 L 265.42,393.35 L 265.44,393.39 L 265.45,393.41 L 265.45,393.44 L 265.45,393.45 L 265.46,393.51 L 265.45,393.51 L 265.47,393.54 L 265.46,393.55 L 265.48,393.59 L 265.53,393.57 L 265.56,393.56 L 265.60,393.55 L 265.62,393.55 L 265.65,393.54 L 265.67,393.54 L 265.70,393.55 L 265.73,393.56 L 265.76,393.58 L 265.79,393.60 L 265.81,393.62 L 265.84,393.65 L 265.86,393.68 L 265.87,393.71 L 265.89,393.73 L 265.90,393.76 L 265.92,393.78 L 265.93,393.80 L 265.95,393.83 L 265.97,393.85 L 266.00,393.86 L 266.03,393.88 L 266.06,393.89 L 266.08,393.91 L 266.11,393.93 L 266.14,393.95 L 266.17,393.97 L 266.22,394.02 L 266.24,394.05 L 266.26,394.08 L 266.29,394.11 L 266.30,394.14 L 266.32,394.18 L 266.33,394.22 L 266.34,394.25 L 266.34,394.28 L 266.35,394.31 L 266.35,394.33 L 266.35,394.36 L 266.35,394.39 L 266.34,394.42 L 266.33,394.48 L 266.32,394.50 L 266.31,394.53 L 266.30,394.55 L 266.29,394.57 L 266.28,394.59 L 266.27,394.61 L 266.26,394.63 L 266.25,394.66 L 266.24,394.69 L 266.23,394.72 L 266.21,394.74 L 266.20,394.75 L 266.18,394.77 L 266.16,394.78 L 266.13,394.79 L 266.11,394.79 L 266.08,394.79 L 266.04,394.79 L 266.01,394.78 L 265.99,394.78 L 265.97,394.79 L 265.93,394.81 L 265.89,394.83 L 265.86,394.86 L 265.84,394.88 L 265.82,394.90 L 265.81,394.92 L 265.81,394.93 L 265.81,394.95 L 265.82,394.96 L 265.85,394.98 L 265.87,395.00 L 265.90,395.02 L 265.93,395.04 L 265.96,395.06 L 265.98,395.08 L 266.01,395.10 L 266.05,395.14 L 266.08,395.17 L 266.11,395.21 L 266.14,395.24 L 266.17,395.27 L 266.19,395.28 L 266.23,395.29 L 266.24,395.33 L 266.27,395.39 L 266.30,395.42 L 266.35,395.52 L 266.43,395.48 L 266.43,395.51 L 266.43,395.62 L 266.43,395.65 L 266.43,395.70 L 266.43,395.72 L 266.44,395.74 L 266.46,395.77 L 266.48,395.80 L 266.51,395.83 L 266.58,395.91 L 266.61,395.95 L 266.64,395.98 L 266.66,396.03 L 266.67,396.09 L 266.69,396.12 L 266.70,396.16 L 266.73,396.19 L 266.74,396.22 L 266.77,396.25 L 266.80,396.28 L 266.84,396.31 L 266.86,396.33 L 266.86,396.34 L 266.87,396.34 L 266.89,396.36 L 266.94,396.40 L 266.98,396.43 L 267.01,396.45 L 267.05,396.48 L 267.09,396.50 L 267.13,396.52 L 267.17,396.54 L 267.21,396.56 L 267.25,396.56 L 267.28,396.57 L 267.32,396.56 L 267.36,396.55 L 267.40,396.53 L 267.43,396.51 L 267.44,396.49 L 267.46,396.46 L 267.47,396.42 L 267.48,396.38 L 267.48,396.38 L 267.49,396.35 L 267.51,396.32 L 267.53,396.31 L 267.57,396.29 L 267.60,396.28 L 267.66,396.27 L 267.69,396.26 L 267.74,396.26 L 267.76,396.26 L 267.79,396.28 L 267.81,396.30 L 267.85,396.34 L 267.89,396.38 L 267.92,396.42 L 267.94,396.45 L 267.95,396.48 L 267.97,396.50 L 268.00,396.54 L 268.02,396.58 L 268.04,396.60 L 268.05,396.62 L 268.06,396.66 L 268.07,396.69 L 268.10,396.74 L 268.11,396.76 L 268.12,396.76 L 268.14,396.76 L 268.16,396.75 L 268.18,396.74 L 268.20,396.72 L 268.21,396.70 L 268.24,396.69 L 268.25,396.69 L 268.27,396.69 L 268.29,396.69 L 268.31,396.71 L 268.34,396.74 L 268.37,396.77 L 268.38,396.80 L 268.39,396.82 L 268.39,396.84 L 268.39,396.86 L 268.37,396.88 L 268.34,396.90 L 268.31,396.92 L 268.29,396.93 L 268.28,396.94 L 268.26,396.96 L 268.26,396.98 L 268.25,397.00 L 268.26,397.03 L 268.29,397.07 L 268.32,397.11 L 268.35,397.15 L 268.38,397.19 L 268.42,397.24 L 268.44,397.27 L 268.46,397.30 L 268.47,397.34 L 268.49,397.39 L 268.50,397.42 L 268.52,397.45 L 268.54,397.48 L 268.57,397.51 L 268.60,397.54 L 268.64,397.57 L 268.66,397.59 L 268.66,397.59 L 268.69,397.59 L 268.73,397.60 L 268.77,397.61 L 268.79,397.61 L 268.82,397.60 L 268.84,397.59 L 268.86,397.56 L 268.88,397.52 L 268.90,397.49 L 268.93,397.44 L 268.96,397.41 L 268.99,397.39 L 269.00,397.38 L 269.03,397.37 L 269.05,397.36 L 269.08,397.37 L 269.10,397.38 L 269.12,397.39 L 269.15,397.41 L 269.18,397.42 L 269.21,397.43 L 269.27,397.42 L 269.31,397.42 L 269.32,397.44 L 269.33,397.46 L 269.34,397.48 L 269.34,397.50 L 269.34,397.53 L 269.35,397.54 L 269.36,397.56 L 269.37,397.59 L 269.38,397.59 L 269.39,397.61 L 269.42,397.63 L 269.43,397.65 L 269.45,397.67 L 269.47,397.69 L 269.48,397.71 L 269.48,397.73 L 269.49,397.75 L 269.49,397.78 L 269.49,397.79 L 269.50,397.81 L 269.50,397.83 L 269.51,397.85 L 269.51,397.87 L 269.52,397.88 L 269.54,397.92 L 269.55,397.94 L 269.57,397.95 L 269.58,397.97 L 269.60,398.00 L 269.62,398.03 L 269.63,398.04 L 269.64,398.06 L 269.66,398.07 L 269.67,398.09 L 269.68,398.09 L 269.70,398.10 L 269.72,398.12 L 269.75,398.13 L 269.78,398.15 L 269.81,398.18 L 269.83,398.19 L 269.84,398.21 L 269.87,398.23 L 269.88,398.24 L 269.89,398.25 L 269.91,398.27 L 269.92,398.27 L 269.94,398.28 L 269.97,398.28 L 269.98,398.28 L 270.01,398.28 L 270.05,398.28 L 270.10,398.28 L 270.12,398.28 L 270.15,398.28 L 270.18,398.28 L 270.20,398.28 L 270.23,398.29 L 270.27,398.29 L 270.29,398.29 L 270.32,398.30 L 270.34,398.31 L 270.38,398.31 L 270.43,398.33 L 270.46,398.33 L 270.48,398.34 L 270.50,398.34 L 270.52,398.34 L 270.56,398.35 L 270.58,398.36 L 270.59,398.39 L 270.61,398.43 L 270.62,398.44 L 270.63,398.45 L 270.63,398.47 L 270.64,398.48 L 270.66,398.51 L 270.66,398.51 L 270.67,398.53 L 270.67,398.53 L 270.67,398.56 L 270.67,398.58 L 270.67,398.60 L 270.67,398.61 L 270.67,398.62 L 270.67,398.64 L 270.68,398.67 L 270.70,398.72 L 270.71,398.77 L 270.73,398.83 L 270.74,398.86 L 270.75,398.89 L 270.76,398.93 L 270.76,398.95 L 270.77,399.02 L 270.78,399.07 L 270.78,399.12 L 270.78,399.17 L 270.78,399.17 L 270.78,399.22 L 270.78,399.27 L 270.77,399.32 L 270.77,399.36 L 270.76,399.44 L 270.76,399.45 L 270.75,399.45 L 270.75,399.46 L 270.74,399.46 L 270.73,399.46 L 270.69,399.45 L 270.66,399.44 L 270.62,399.44 L 270.58,399.43 L 270.55,399.43 L 270.52,399.42 L 270.50,399.42 L 270.49,399.42 L 270.47,399.43 L 270.46,399.43 L 270.46,399.44 L 270.44,399.46 L 270.43,399.46 L 270.41,399.48 L 270.38,399.49 L 270.37,399.50 L 270.37,399.51 L 270.37,399.52 L 270.38,399.54 L 270.40,399.58 L 270.42,399.63 L 270.43,399.65 L 270.45,399.68 L 270.47,399.70 L 270.48,399.71 L 270.53,399.75 L 270.57,399.77 L 270.61,399.79 L 270.64,399.81 L 270.67,399.82 L 270.68,399.83 L 270.70,399.85 L 270.72,399.87 L 270.75,399.88 L 270.76,399.90 L 270.78,399.91 L 270.79,399.94 L 270.81,399.97 L 270.82,399.99 L 270.83,400.02 L 270.84,400.05 L 270.86,400.08 L 270.88,400.12 L 270.89,400.13 L 270.89,400.14 L 270.91,400.17 L 270.94,400.19 L 270.95,400.22 L 270.98,400.24 L 271.01,400.26 L 271.03,400.28 L 271.05,400.31 L 271.07,400.33 L 271.09,400.37 L 271.09,400.39 L 271.10,400.41 L 271.09,400.45 L 271.10,400.55 L 271.10,400.64 L 271.12,400.70 L 271.12,400.72 L 271.12,400.73 L 271.14,400.77 L 271.16,400.80 L 271.18,400.85 L 271.19,400.89 L 271.23,400.98 L 271.25,401.02 L 271.26,401.03 L 271.27,401.07 L 271.27,401.08 L 271.28,401.09 L 271.29,401.10 L 271.30,401.11 L 271.31,401.12 L 271.32,401.13 L 271.36,401.13 L 271.38,401.14 L 271.40,401.14 L 271.43,401.15 L 271.45,401.15 L 271.48,401.17 L 271.52,401.18 L 271.55,401.19 L 271.60,401.22 L 271.63,401.23 L 271.65,401.25 L 271.67,401.26 L 271.69,401.28 L 271.71,401.29 L 271.73,401.31 L 271.80,401.37 L 271.88,401.42 L 271.91,401.44 L 271.95,401.47 L 271.99,401.50 L 272.03,401.53 L 272.07,401.56 L 272.09,401.57 L 272.10,401.58 L 272.10,401.59 L 272.11,401.60 L 272.13,401.62 L 272.17,401.63 L 272.19,401.65 L 272.21,401.67 L 272.22,401.69 L 272.22,401.69 L 272.24,401.71 L 272.24,401.73 L 272.26,401.80 L 272.29,401.79 L 272.29,401.81 L 272.30,401.83 L 272.34,401.83 L 272.36,401.84 L 272.35,401.87 L 272.35,401.88 L 272.36,401.88 L 272.36,401.88 L 272.38,401.89 L 272.34,402.01 L 272.44,402.07 L 272.43,402.12 L 272.44,402.14 L 272.44,402.14 L 272.45,402.16 L 272.46,402.17 L 272.46,402.17 L 272.47,402.18 L 272.45,402.19 L 272.46,402.21 L 272.46,402.22 L 272.48,402.23 L 272.52,402.20 L 272.62,402.24 L 272.66,402.22 L 272.66,402.22 L 272.72,402.19 L 272.72,402.19 L 272.74,402.22 L 272.79,402.14 L 272.80,402.14 L 272.82,402.15 L 272.83,402.15 L 272.89,402.18 L 272.94,402.21 L 272.95,402.20 L 272.99,402.14 L 272.99,402.14 L 272.99,402.14 L 273.02,402.17 L 273.04,402.19 L 273.08,402.22 L 273.13,402.26 L 273.15,402.28 L 273.17,402.30 L 273.16,402.31 L 273.18,402.32 L 273.17,402.33 L 273.20,402.35 L 273.24,402.36 L 273.26,402.38 L 273.27,402.38 L 273.29,402.38 L 273.30,402.38 L 273.32,402.38 L 273.35,402.39 L 273.36,402.40 L 273.37,402.40 L 273.38,402.38 L 273.46,402.37 L 273.53,402.36 L 273.65,402.33 L 273.65,402.29 L 273.64,402.26 L 273.64,402.25 L 273.63,402.23 L 273.61,402.18 L 273.59,402.17 L 273.58,402.15 L 273.56,402.14 L 273.55,402.14 L 273.54,402.13 L 273.52,402.13 L 273.51,402.12 L 273.47,402.12 L 273.37,402.12 L 273.29,402.12 L 273.21,402.11 L 273.11,402.10 L 273.05,402.09 L 273.04,402.08 L 273.02,402.08 L 272.94,402.06 L 272.89,402.04 L 272.82,402.01 L 272.79,401.99 L 272.73,401.95 L 272.65,401.89 L 272.60,401.83 L 272.56,401.78 L 272.52,401.75 L 272.50,401.73 L 272.49,401.71 L 272.48,401.69 L 272.48,401.68 L 272.47,401.66 L 272.48,401.64 L 272.49,401.62 L 272.50,401.60 L 272.53,401.55 L 272.56,401.52 L 272.65,401.47 L 272.86,401.35 L 272.98,401.29 L 273.07,401.24 L 273.14,401.20 L 273.19,401.18 L 273.27,401.16 L 273.30,401.15 L 273.37,401.15 L 273.41,401.15 L 273.46,401.17 L 273.50,401.19 L 273.53,401.22 L 273.59,401.31 L 273.65,401.45 L 273.69,401.53 L 273.72,401.60 L 273.76,401.64 L 273.77,401.66 L 273.79,401.68 L 273.81,401.70 L 273.86,401.75 L 273.91,401.80 L 273.98,401.84 L 274.00,401.85 L 274.04,401.86 L 274.10,401.87 L 274.15,401.87 L 274.20,401.87 L 274.28,401.86 L 274.37,401.85 L 274.42,401.85 L 274.47,401.84 L 274.53,401.83 L 274.59,401.81 L 274.65,401.79 L 274.73,401.74 L 274.71,401.68 L 274.71,401.63 L 274.72,401.58 L 274.71,401.55 L 274.71,401.52 L 274.70,401.47 L 274.68,401.45 L 274.66,401.42 L 274.64,401.38 L 274.62,401.36 L 274.59,401.34 L 274.55,401.32 L 274.53,401.31 L 274.54,401.29 L 274.52,401.28 L 274.48,401.25 L 274.46,401.23 L 274.45,401.22 L 274.44,401.20 L 274.44,401.18 L 274.43,401.17 L 274.43,401.16 L 274.42,401.13 L 274.41,401.13 L 274.40,401.10 L 274.40,401.03 L 274.40,400.93 L 274.40,400.89 L 274.40,400.85 L 274.41,400.81 L 274.43,400.77 L 274.44,400.77 L 274.47,400.73 L 274.49,400.72 L 274.50,400.71 L 274.55,400.70 L 274.57,400.71 L 274.62,400.71 L 274.65,400.72 L 274.68,400.74 L 274.72,400.76 L 274.74,400.77 L 274.79,400.81 L 274.82,400.84 L 275.04,400.99 L 275.06,401.01 L 275.06,401.03 L 275.07,401.05 L 275.07,401.07 L 275.07,401.11 L 275.08,401.14 L 275.07,401.21 L 275.01,401.45 L 275.03,401.45 L 275.03,401.47 L 274.99,401.46 L 274.98,401.54 L 274.99,401.61 L 275.04,401.62 L 275.08,401.64 L 275.12,401.68 L 275.18,401.75 L 275.22,401.80 L 275.30,401.89 L 275.35,401.94 L 275.38,401.97 L 275.41,401.99 L 275.43,402.01 L 275.45,402.02 L 275.47,402.03 L 275.49,402.03 L 275.50,402.04 L 275.52,402.04 L 275.53,402.04 L 275.54,402.03 L 275.55,402.03 L 275.56,402.03 L 275.58,402.02 L 275.59,402.01 L 275.60,402.00 L 275.68,401.93 L 275.77,401.85 L 275.85,401.79 L 275.90,401.76 L 275.96,401.73 L 276.05,401.69 L 276.13,401.65 L 276.20,401.62 L 276.26,401.60 L 276.35,401.56 L 276.49,401.48 L 276.62,401.39 L 276.73,401.31 L 276.82,401.22 L 276.86,401.19 L 276.89,401.14 L 276.97,401.04 L 277.04,400.95 L 277.10,400.87 L 277.15,400.82 L 277.19,400.79 L 277.21,400.78 L 277.23,400.76 L 277.25,400.76 L 277.27,400.75 L 277.33,400.73 L 277.39,400.72 L 277.46,400.71 L 277.50,400.70 L 277.54,400.70 L 277.59,400.71 L 277.62,400.72 L 277.66,400.73 L 277.70,400.75 L 277.72,400.77 L 277.74,400.80 L 277.77,400.85 L 277.80,400.91 L 277.83,400.97 L 277.87,401.04 L 277.89,401.08 L 277.91,401.11 L 277.93,401.14 L 277.97,401.18 L 278.00,401.22 L 278.04,401.25 L 278.06,401.27 L 278.11,401.30 L 278.15,401.32 L 278.19,401.34 L 278.22,401.35 L 278.24,401.36 L 278.26,401.36 L 278.27,401.36 L 278.33,401.37 L 278.40,401.37 L 278.46,401.37 L 278.53,401.36 L 278.56,401.36 L 278.60,401.35 L 278.66,401.34 L 278.72,401.32 L 278.78,401.30 L 278.82,401.28 L 278.86,401.25 L 278.92,401.21 L 278.97,401.17 L 279.03,401.12 L 279.09,401.06 L 279.19,400.98 L 279.27,400.92 L 279.32,400.89 L 279.39,400.84 L 279.46,400.80 L 279.47,400.80 L 279.52,400.78 L 279.55,400.76 L 279.62,400.75 L 279.66,400.74 L 279.71,400.73 L 279.74,400.72 L 279.81,400.71 L 279.85,400.71 L 280.07,400.70 L 280.05,400.63 L 280.06,400.62 L 280.07,400.61 L 280.12,400.61 L 280.11,400.59 L 280.16,400.56 L 280.15,400.54 L 280.16,400.54 L 280.17,400.55 L 280.22,400.52 L 280.26,400.50 L 280.28,400.49 L 280.31,400.47 L 280.33,400.46 L 280.32,400.44 L 280.43,400.36 L 280.44,400.35 L 280.56,400.22 L 280.67,400.11 L 280.69,400.09 L 280.67,400.06 L 280.73,400.02 L 280.73,400.02 L 280.75,400.00 L 280.74,399.99 L 280.76,399.98 L 280.78,399.96 L 280.79,399.96 L 280.79,399.96 L 280.79,399.96 L 280.80,399.98 L 280.80,399.98 L 280.81,399.98 L 280.84,399.97 L 280.86,399.96 L 280.86,399.95 L 280.87,399.93 L 280.88,399.92 L 280.88,399.90 L 280.89,399.89 L 280.91,399.89 L 280.95,399.87 L 280.97,399.87 L 281.03,399.86 L 281.03,399.84 L 281.04,399.81 L 281.04,399.81 L 281.05,399.79 L 281.09,399.70 L 281.11,399.69 L 281.11,399.68 L 281.12,399.67 L 281.13,399.66 L 281.15,399.65 L 281.16,399.65 L 281.18,399.65 L 281.22,399.65 L 281.30,399.67 L 281.45,399.69 L 281.47,399.72 L 281.48,399.74 L 281.49,399.76 L 281.49,399.78 L 281.51,399.90 L 281.52,399.99 L 281.53,400.03 L 281.55,400.06 L 281.58,400.09 L 281.63,400.13 L 281.68,400.16 L 281.78,400.21 L 281.90,400.30 L 281.91,400.31 L 281.99,400.37 L 281.90,400.44 L 281.95,400.62 L 281.73,400.66 L 281.77,400.78 L 281.79,400.88 L 281.83,401.01 L 281.77,401.06 L 281.72,401.10 L 281.67,401.13 L 281.65,401.16 L 281.64,401.16 L 281.64,401.17 L 281.62,401.19 L 281.58,401.25 L 281.55,401.30 L 281.53,401.35 L 281.51,401.38 L 281.48,401.42 L 281.45,401.46 L 281.41,401.52 L 281.34,401.59 L 281.31,401.62 L 281.27,401.67 L 281.21,401.75 L 281.17,401.80 L 281.13,401.86 L 281.11,401.92 L 281.09,401.96 L 281.07,402.02 L 281.07,402.02 L 281.07,402.04 L 281.07,402.08 L 281.07,402.11 L 281.09,402.13 L 281.11,402.14 L 281.13,402.15 L 281.16,402.15 L 281.20,402.15 L 281.25,402.15 L 281.31,402.16 L 281.35,402.17 L 281.37,402.18 L 281.40,402.19 L 281.43,402.21 L 281.46,402.23 L 281.50,402.26 L 281.56,402.32 L 281.59,402.34 L 281.64,402.39 L 281.66,402.40 L 281.70,402.44 L 281.76,402.49 L 281.80,402.52 L 281.85,402.55 L 281.89,402.58 L 281.89,402.58 L 281.97,402.65 L 282.03,402.69 L 282.07,402.72 L 282.12,402.76 L 282.18,402.81 L 282.22,402.84 L 282.25,402.88 L 282.29,402.93 L 282.33,402.98 L 282.36,403.03 L 282.38,403.06 L 282.41,403.11 L 282.43,403.15 L 282.50,403.27 L 282.57,403.36 L 282.63,403.45 L 282.70,403.52 L 282.76,403.58 L 282.85,403.64 L 283.06,403.78 L 283.15,403.83 L 283.23,403.92 L 283.32,404.00 L 283.36,404.04 L 283.46,404.20 L 283.51,404.29 L 283.52,404.29 L 283.52,404.29 L 283.56,404.36 L 283.60,404.42 L 283.61,404.43 L 283.65,404.49 L 283.68,404.53 L 283.72,404.59 L 283.78,404.66 L 283.82,404.71 L 283.87,404.76 L 283.93,404.83 L 283.97,404.86 L 284.00,404.90 L 284.04,404.94 L 284.08,404.99 L 284.11,405.02 L 284.13,405.06 L 284.14,405.08 L 284.15,405.10 L 284.15,405.13 L 284.16,405.15 L 284.16,405.19 L 284.16,405.24 L 284.16,405.28 L 284.16,405.31 L 284.16,405.34 L 284.16,405.38 L 284.15,405.44 L 284.15,405.48 L 284.14,405.51 L 284.13,405.55 L 284.11,405.60 L 284.10,405.65 L 284.09,405.68 L 284.07,405.72 L 284.05,405.75 L 284.02,405.80 L 284.01,405.83 L 283.99,405.86 L 283.97,405.90 L 283.96,405.93 L 283.94,405.97 L 283.93,406.00 L 283.91,406.05 L 283.89,406.10 L 283.88,406.14 L 283.87,406.16 L 283.87,406.19 L 283.87,406.21 L 283.87,406.24 L 283.89,406.26 L 283.91,406.27 L 283.95,406.29 L 283.99,406.30 L 284.03,406.31 L 284.06,406.31 L 284.10,406.32 L 284.15,406.33 L 284.22,406.35 L 284.25,406.35 L 284.28,406.35 L 284.34,406.37 L 284.38,406.38 L 284.47,406.42 L 284.51,406.43 L 284.53,406.45 L 284.56,406.46 L 284.59,406.48 L 284.62,406.50 L 284.65,406.52 L 284.67,406.54 L 284.68,406.55 L 284.72,406.58 L 284.75,406.61 L 284.78,406.64 L 284.80,406.67 L 284.83,406.70 L 284.85,406.73 L 284.87,406.77 L 284.89,406.82 L 284.93,406.89 L 284.94,406.93 L 284.96,406.97 L 284.97,407.01 L 284.98,407.05 L 284.98,407.08 L 284.99,407.12 L 284.99,407.17 L 285.00,407.22 L 285.00,407.29 L 285.00,407.35 L 285.00,407.38 L 285.02,407.45 L 285.02,407.49 L 285.04,407.52 L 285.05,407.54 L 285.10,407.57 L 285.12,407.58 L 285.17,407.58 L 285.30,407.58 L 285.42,407.56 L 285.46,407.56 L 285.51,407.56 L 285.57,407.55 L 285.61,407.53 L 285.64,407.52 L 285.67,407.49 L 285.70,407.46 L 285.72,407.44 L 285.74,407.42 L 285.76,407.39 L 285.83,407.31 L 285.87,407.26 L 285.89,407.24 L 285.92,407.20 L 286.03,407.04 L 286.06,406.99 L 286.08,406.97 L 286.10,406.93 L 286.12,406.88 L 286.13,406.83 L 286.15,406.78 L 286.16,406.74 L 286.17,406.70 L 286.19,406.65 L 286.20,406.62 L 286.21,406.60 L 286.22,406.58 L 286.23,406.55 L 286.25,406.51 L 286.26,406.49 L 286.28,406.47 L 286.29,406.46 L 286.31,406.45 L 286.34,406.45 L 286.35,406.46 L 286.38,406.47 L 286.40,406.47 L 286.47,406.49 L 286.49,406.49 L 286.52,406.49 L 286.57,406.50 L 286.64,406.51 L 286.71,406.51 L 286.73,406.52 L 286.79,406.52 L 286.82,406.52 L 286.93,406.53 L 287.04,406.55 L 287.14,406.57 L 287.19,406.58 L 287.27,406.60 L 287.32,406.62 L 287.37,406.64 L 287.42,406.66 L 287.48,406.70 L 287.51,406.72 L 287.56,406.74 L 287.59,406.77 L 287.62,406.79 L 287.64,406.82 L 287.67,406.84 L 287.70,406.89 L 287.71,406.92 L 287.74,406.95 L 287.75,406.99 L 287.76,407.01 L 287.76,407.05 L 287.76,407.07 L 287.77,407.13 L 287.77,407.19 L 287.79,407.27 L 287.79,407.29 L 287.80,407.31 L 287.82,407.31 L 287.83,407.31 L 287.85,407.31 L 287.87,407.30 L 287.90,407.30 L 287.92,407.30 L 287.94,407.30 L 288.01,407.30 L 288.10,407.31 L 288.15,407.31 L 288.21,407.31 L 288.27,407.30 L 288.33,407.29 L 288.38,407.28 L 288.39,407.28 L 288.50,407.23 L 288.53,407.22 L 288.57,407.20 L 288.62,407.17 L 288.67,407.14 L 288.73,407.11 L 288.77,407.09 L 288.80,407.08 L 288.85,407.04 L 288.92,407.00 L 288.95,406.98 L 288.97,406.95 L 288.99,406.92 L 289.01,406.88 L 289.03,406.82 L 289.05,406.75 L 289.06,406.69 L 289.07,406.63 L 289.08,406.56 L 289.07,406.50 L 289.07,406.44 L 289.07,406.39 L 289.07,406.34 L 289.06,406.30 L 289.05,406.27 L 289.05,406.24 L 289.05,406.14 L 289.06,406.09 L 289.10,406.06 L 289.14,406.04 L 289.16,406.02 L 289.18,406.00 L 289.21,405.96 L 289.23,405.92 L 289.26,405.89 L 289.29,405.86 L 289.33,405.84 L 289.37,405.82 L 289.40,405.80 L 289.43,405.80 L 289.48,405.79 L 289.52,405.79 L 289.59,405.79 L 289.62,405.79 L 289.64,405.79 L 289.66,405.80 L 289.70,405.81 L 289.75,405.81 L 289.85,405.82 L 289.89,405.82 L 289.93,405.82 L 289.97,405.83 L 290.00,405.84 L 290.06,405.85 L 290.11,405.87 L 290.16,405.91 L 290.21,405.95 L 290.25,406.01 L 290.26,406.02 L 290.28,406.05 L 290.31,406.09 L 290.35,406.14 L 290.37,406.17 L 290.42,406.22 L 290.44,406.24 L 290.46,406.24 L 290.48,406.25 L 290.51,406.25 L 290.53,406.26 L 290.56,406.26 L 290.59,406.26 L 290.61,406.25 L 290.62,406.25 L 290.68,406.23 L 290.73,406.21 L 290.74,406.20 L 290.78,406.18 L 290.82,406.16 L 290.88,406.12 L 290.90,406.10 L 290.96,406.08 L 291.03,406.03 L 291.07,406.01 L 291.12,405.99 L 291.16,405.97 L 291.36,405.90 L 291.40,405.88 L 291.46,405.85 L 291.53,405.81 L 291.58,405.77 L 291.64,405.71 L 291.71,405.59 L 291.74,405.55 L 291.76,405.51 L 291.78,405.48 L 291.79,405.45 L 291.81,405.43 L 291.83,405.39 L 291.86,405.37 L 291.87,405.34 L 291.89,405.32 L 291.96,405.26 L 292.02,405.22 L 292.10,405.17 L 292.19,405.13 L 292.27,405.11 L 292.38,405.07 L 292.44,405.05 L 292.49,405.11 L 292.52,405.16 L 292.58,405.26 L 292.62,405.34 L 292.67,405.44 L 292.71,405.50 L 292.75,405.56 L 292.81,405.65 L 292.87,405.72 L 292.93,405.77 L 292.99,405.81 L 293.04,405.84 L 293.11,405.87 L 293.21,405.90 L 293.31,405.93 L 293.44,405.95 L 293.53,405.95 L 293.62,405.94 L 293.70,405.91 L 293.78,405.88 L 293.85,405.86 L 293.94,405.82 L 294.03,405.80 L 294.12,405.79 L 294.32,405.80 L 294.40,405.82 L 294.58,405.90 L 294.82,406.04 L 295.33,406.51 L 295.59,406.80 L 295.89,407.26 L 296.40,407.70 L 321.77,429.25 L 333.83,416.76 L 336.32,415.65 L 321.53,400.32 L 321.53,398.46 L 321.45,397.67 L 321.41,397.38 L 321.41,397.07 L 321.39,396.96 L 321.35,396.75 L 321.35,396.67 L 321.35,396.55 L 321.36,396.47 L 321.37,396.35 L 321.39,396.24 L 321.41,396.15 L 321.41,396.05 L 321.40,395.96 L 321.37,395.80 L 321.36,395.63 L 321.35,395.50 L 321.33,395.41 L 321.29,395.32 L 321.23,395.24 L 321.17,395.15 L 321.13,395.06 L 321.10,394.94 L 321.08,394.82 L 321.05,394.68 L 321.03,394.63 L 321.01,394.58 L 321.01,394.53 L 320.98,394.48 L 320.94,394.42 L 320.91,394.40 L 320.84,394.39 L 320.78,394.39 L 320.70,394.41 L 320.62,394.42 L 320.55,394.41 L 320.49,394.36 L 320.43,394.33 L 320.36,394.28 L 320.29,394.26 L 320.25,394.24 L 320.22,394.19 L 320.19,394.18 L 320.14,394.17 L 320.08,394.15 L 319.94,394.06 L 319.87,394.00 L 319.72,393.89 L 319.61,393.78 L 319.51,393.69 L 319.41,393.61 L 319.29,393.53 L 319.19,393.47 L 319.11,393.42 L 319.04,393.37 L 318.96,393.34 L 318.89,393.32 L 318.81,393.29 L 318.75,393.26 L 318.71,393.23 L 318.66,393.20 L 318.61,393.18 L 318.55,393.15 L 318.50,393.11 L 318.48,393.04 L 318.44,392.99 L 318.39,392.93 L 318.32,392.87 L 318.24,392.81 L 318.16,392.75 L 318.08,392.70 L 318.01,392.66 L 317.93,392.60 L 317.86,392.57 L 317.77,392.47 L 317.72,392.41 L 317.64,392.35 L 317.57,392.28 L 317.53,392.22 L 317.47,392.17 L 317.40,392.09 L 317.33,391.98 L 317.32,391.89 L 317.32,391.78 L 317.29,391.70 L 317.26,391.64 L 317.22,391.60 L 317.18,391.57 L 317.13,391.56 L 317.07,391.55 L 317.01,391.53 L 316.94,391.50 L 316.87,391.48 L 316.78,391.46 L 316.70,391.45 L 316.63,391.46 L 316.59,391.48 L 316.54,391.48 L 316.48,391.47 L 316.42,391.47 L 316.38,391.49 L 316.22,391.50 L 316.09,391.52 L 315.98,391.53 L 315.84,391.54 L 315.68,391.55 L 315.55,391.57 L 315.47,391.58 L 315.42,391.58 L 315.33,391.56 L 315.24,391.54 L 315.12,391.52 L 315.05,391.53 L 314.99,391.54 L 314.91,391.55 L 314.83,391.53 L 314.75,391.50 L 314.65,391.45 L 314.57,391.40 L 314.47,391.35 L 314.37,391.30 L 314.28,391.25 L 314.21,391.22 L 314.11,391.18 L 314.05,391.15 L 313.95,391.12 L 313.88,391.07 L 313.80,391.02 L 313.69,390.99 L 313.61,390.95 L 313.49,390.90 L 313.36,390.87 L 313.26,390.85 L 313.14,390.78 L 313.05,390.74 L 313.00,390.71 L 312.95,390.65 L 312.88,390.61 L 312.82,390.59 L 312.75,390.56 L 312.71,390.54 L 312.60,390.49 L 312.54,390.48 L 312.46,390.48 L 312.41,390.47 L 312.33,390.46 L 312.25,390.45 L 312.16,390.45 L 312.08,390.44 L 312.02,390.44 L 311.97,390.46 L 311.91,390.47 L 311.86,390.50 L 311.83,390.53 L 311.78,390.60 L 311.73,390.68 L 311.64,390.80 L 311.57,390.88 L 311.53,390.93 L 311.37,391.10 L 311.29,391.18 L 311.21,391.26 L 311.15,391.34 L 311.07,391.43 L 311.05,391.46 L 310.96,391.60 L 310.92,391.66 L 310.87,391.75 L 310.75,391.94 L 310.67,392.06 L 310.63,392.12 L 310.52,392.27 L 310.44,392.37 L 310.28,392.61 L 310.23,392.68 L 310.13,392.80 L 310.02,392.95 L 309.95,393.02 L 309.87,393.12 L 309.69,393.29 L 309.54,393.41 L 309.45,393.51 L 309.39,393.64 L 309.36,393.73 L 309.35,393.88 L 309.28,393.99 L 309.09,394.16 L 308.55,393.65 L 308.21,393.39 L 308.06,393.19 L 307.66,393.42 L 307.65,393.42 L 307.54,393.37 L 307.50,393.33 L 307.47,393.30 L 307.43,393.23 L 307.41,393.22 L 307.39,393.20 L 307.37,393.20 L 307.34,393.19 L 307.32,393.19 L 307.26,393.18 L 307.22,393.15 L 307.19,393.14 L 307.17,393.13 L 307.14,393.13 L 307.11,393.14 L 307.01,393.18 L 306.97,393.19 L 306.93,393.21 L 306.90,393.22 L 306.83,393.29 L 306.81,393.32 L 306.80,393.36 L 306.80,393.40 L 306.79,393.46 L 306.77,393.52 L 306.75,393.57 L 306.72,393.60 L 306.67,393.62 L 306.55,393.63 L 306.52,393.64 L 306.49,393.66 L 306.48,393.68 L 306.48,393.71 L 306.50,393.81 L 306.50,393.85 L 306.51,393.91 L 306.50,394.05 L 305.70,394.50 L 305.68,394.45 L 305.66,394.42 L 305.65,394.38 L 305.63,394.34 L 305.61,394.30 L 305.59,394.26 L 305.57,394.22 L 305.55,394.18 L 305.53,394.14 L 305.51,394.10 L 305.49,394.06 L 305.47,394.03 L 305.45,393.99 L 305.42,393.95 L 305.40,393.91 L 305.38,393.88 L 305.35,393.84 L 305.33,393.80 L 305.32,393.79 L 305.31,393.78 L 305.30,393.76 L 305.28,393.75 L 305.27,393.74 L 305.26,393.72 L 305.25,393.71 L 305.23,393.70 L 305.22,393.69 L 305.21,393.68 L 305.20,393.67 L 305.18,393.66 L 305.17,393.65 L 305.16,393.64 L 305.14,393.63 L 305.13,393.63 L 305.11,393.61 L 305.09,393.60 L 305.07,393.59 L 305.04,393.58 L 305.02,393.57 L 305.00,393.56 L 304.98,393.55 L 304.96,393.54 L 304.94,393.53 L 304.91,393.52 L 304.89,393.52 L 304.87,393.51 L 304.84,393.50 L 304.82,393.50 L 304.80,393.49 L 304.77,393.49 L 304.75,393.48 L 304.72,393.48 L 304.70,393.47 L 304.68,393.47 L 304.65,393.47 L 304.63,393.47 L 304.60,393.46 L 303.74,393.46 L 303.51,393.43 L 303.26,393.36 L 303.06,393.28 L 302.80,393.13 L 302.67,393.06 L 302.37,392.86 L 302.03,392.63 L 302.00,392.60 L 301.97,392.58 L 301.94,392.56 L 301.91,392.54 L 301.88,392.51 L 301.85,392.49 L 301.83,392.47 L 301.78,392.43 L 301.75,392.40 L 301.72,392.37 L 301.70,392.34 L 301.67,392.30 L 301.65,392.27 L 301.63,392.24 L 301.60,392.20 L 301.58,392.17 L 301.56,392.13 L 301.54,392.10 L 301.52,392.06 L 301.50,392.03 L 301.48,391.99 L 301.46,391.96 L 301.44,391.92 L 301.42,391.88 L 301.40,391.85 L 301.39,391.81 L 301.36,391.74 L 301.33,391.68 L 301.32,391.65 L 301.30,391.58 L 301.29,391.55 L 301.27,391.49 L 301.25,391.42 L 301.24,391.36 L 301.22,391.29 L 301.22,391.26 L 301.21,391.22 L 301.20,391.19 L 301.20,391.16 L 301.19,391.12 L 301.18,391.09 L 301.17,391.05 L 301.16,391.02 L 301.15,390.99 L 301.14,390.95 L 301.13,390.92 L 301.12,390.89 L 301.10,390.83 L 301.08,390.79 L 301.07,390.74 L 301.06,390.70 L 301.05,390.65 L 301.04,390.61 L 301.04,390.56 L 301.03,390.54 L 301.03,390.49 L 301.03,390.44 L 301.03,390.42 L 301.04,390.37 L 301.04,390.35 L 301.04,390.32 L 301.05,390.30 L 301.05,390.27 L 301.06,390.25 L 301.06,390.23 L 301.07,390.20 L 301.08,390.18 L 301.08,390.15 L 301.09,390.13 L 301.10,390.10 L 301.11,390.08 L 301.12,390.06 L 301.13,390.03 L 301.14,390.01 L 301.16,389.97 L 301.18,389.93 L 301.20,389.89 L 301.22,389.86 L 301.23,389.83 L 301.25,389.80 L 301.27,389.77 L 301.29,389.74 L 301.31,389.71 L 301.33,389.69 L 301.35,389.66 L 301.37,389.63 L 301.40,389.60 L 301.42,389.57 L 301.44,389.55 L 301.46,389.52 L 301.49,389.49 L 301.54,389.43 L 301.57,389.40 L 301.62,389.34 L 301.66,389.28 L 301.68,389.26 L 301.70,389.24 L 301.72,389.21 L 301.73,389.19 L 301.75,389.16 L 301.76,389.13 L 301.78,389.11 L 301.79,389.08 L 301.81,389.06 L 301.82,389.03 L 301.84,389.00 L 301.85,388.98 L 301.86,388.95 L 301.87,388.92 L 301.88,388.89 L 301.89,388.86 L 301.90,388.84 L 301.91,388.81 L 301.92,388.78 L 301.93,388.75 L 301.94,388.72 L 301.94,388.69 L 301.96,388.64 L 301.97,388.57 L 301.98,388.52 L 301.98,388.47 L 301.99,388.42 L 302.00,388.37 L 302.00,388.32 L 302.01,388.28 L 302.02,388.22 L 302.02,388.13 L 302.03,388.08 L 302.03,388.03 L 302.03,387.98 L 302.03,387.93 L 302.03,387.88 L 302.03,387.84 L 302.03,387.79 L 302.03,387.74 L 302.03,387.69 L 302.03,387.64 L 302.03,387.59 L 302.02,387.54 L 302.01,387.39 L 302.00,387.24 L 302.00,387.16 L 301.99,386.93 L 301.99,386.85 L 301.99,386.77 L 301.99,386.70 L 301.98,386.54 L 301.99,386.45 L 301.99,386.35 L 301.99,386.25 L 301.98,386.15 L 301.98,386.06 L 301.98,385.96 L 301.98,385.86 L 301.98,385.77 L 301.97,385.67 L 301.97,385.53 L 301.96,385.49 L 301.96,385.45 L 301.95,385.35 L 301.95,385.30 L 301.94,385.25 L 301.94,385.20 L 301.93,385.15 L 301.92,385.09 L 301.91,385.04 L 301.91,384.99 L 301.89,384.90 L 301.87,384.81 L 301.85,384.72 L 301.85,384.70 L 301.83,384.64 L 301.81,384.59 L 301.80,384.54 L 301.78,384.49 L 301.76,384.46 L 301.74,384.43 L 301.73,384.40 L 301.71,384.37 L 301.69,384.34 L 301.67,384.31 L 301.65,384.28 L 301.64,384.26 L 301.62,384.23 L 301.60,384.20 L 301.57,384.17 L 301.55,384.14 L 301.53,384.12 L 301.51,384.09 L 301.49,384.06 L 301.46,384.04 L 301.44,384.01 L 301.42,383.98 L 301.39,383.96 L 301.37,383.94 L 301.34,383.91 L 301.32,383.89 L 301.29,383.86 L 301.27,383.84 L 301.24,383.82 L 301.21,383.80 L 301.17,383.76 L 301.13,383.73 L 301.10,383.71 L 301.07,383.68 L 301.03,383.66 L 301.00,383.64 L 300.97,383.62 L 300.94,383.60 L 300.91,383.58 L 300.87,383.56 L 300.84,383.54 L 300.81,383.52 L 300.77,383.51 L 300.74,383.49 L 300.72,383.48 L 300.69,383.47 L 300.66,383.45 L 300.64,383.44 L 300.61,383.43 L 300.59,383.42 L 300.56,383.41 L 300.53,383.41 L 300.51,383.40 L 300.48,383.39 L 300.45,383.38 L 300.43,383.38 L 300.40,383.37 L 300.37,383.36 L 300.35,383.36 L 300.32,383.36 L 300.29,383.35 L 300.26,383.35 L 300.24,383.35 L 300.21,383.34 L 300.18,383.34 L 300.13,383.34 L 300.05,383.34 L 300.01,383.34 L 299.91,383.34 L 299.81,383.35 L 299.71,383.36 L 299.62,383.37 L 299.54,383.38 L 299.50,383.38 L 299.45,383.38 L 299.42,383.38 L 299.40,383.39 L 299.37,383.39 L 299.34,383.39 L 299.31,383.38 L 299.28,383.38 L 299.25,383.38 L 299.22,383.38 L 299.19,383.37 L 299.17,383.37 L 299.14,383.37 L 299.11,383.36 L 299.08,383.36 L 299.05,383.35 L 298.98,383.33 L 298.96,383.33 L 298.94,383.32 L 298.90,383.32 L 298.88,383.32 L 298.83,383.31 L 298.81,383.31 L 298.75,383.31 L 298.70,383.31 L 298.66,383.30 L 298.61,383.30 L 298.59,383.30 L 298.57,383.29 L 298.54,383.29 L 298.52,383.28 L 298.50,383.28 L 298.48,383.27 L 298.46,383.26 L 298.43,383.25 L 298.41,383.25 L 298.39,383.24 L 298.32,383.21 L 298.25,383.18 L 298.19,383.16 L 298.13,383.14 L 298.07,383.12 L 298.01,383.10 L 297.95,383.09 L 297.86,383.07 L 297.78,383.05 L 297.70,383.03 L 297.62,383.01 L 297.56,382.99 L 297.44,382.95 L 297.38,382.93 L 297.24,382.89 L 297.23,382.88 L 297.18,382.87 L 297.09,382.84 L 297.02,382.82 L 296.99,382.81 L 296.97,382.80 L 296.94,382.79 L 296.92,382.78 L 296.90,382.78 L 296.87,382.76 L 296.84,382.75 L 296.79,382.73 L 296.76,382.71 L 296.71,382.68 L 296.66,382.65 L 296.62,382.63 L 296.56,382.58 L 296.47,382.52 L 296.43,382.49 L 296.38,382.47 L 296.36,382.45 L 296.31,382.43 L 296.16,382.35 L 296.03,382.29 L 295.89,382.22 L 295.86,382.21 L 295.80,382.18 L 295.74,382.16 L 295.68,382.14 L 295.65,382.13 L 295.59,382.11 L 295.56,382.10 L 295.52,382.09 L 295.44,382.08 L 295.37,382.06 L 295.35,382.06 L 295.27,382.05 L 295.25,382.04 L 295.20,382.04 L 295.18,382.04 L 295.16,382.04 L 295.14,382.04 L 295.13,382.04 L 295.11,382.04 L 295.09,382.04 L 295.07,382.04 L 295.06,382.05 L 295.04,382.05 L 295.02,382.06 L 295.01,382.06 L 294.98,382.07 L 294.97,382.08 L 294.94,382.09 L 294.92,382.10 L 294.90,382.12 L 294.89,382.12 L 294.88,382.14 L 294.87,382.15 L 294.85,382.17 L 294.84,382.18 L 294.82,382.22 L 294.80,382.24 L 294.77,382.28 L 294.76,382.30 L 294.73,382.33 L 294.72,382.35 L 294.71,382.36 L 294.70,382.37 L 294.69,382.38 L 294.68,382.39 L 294.66,382.40 L 294.65,382.41 L 294.64,382.42 L 294.62,382.43 L 294.61,382.44 L 294.59,382.44 L 294.57,382.46 L 294.54,382.47 L 294.52,382.48 L 294.48,382.49 L 294.46,382.50 L 294.42,382.51 L 294.40,382.51 L 294.36,382.52 L 294.34,382.52 L 294.32,382.52 L 294.29,382.53 L 294.23,382.53 L 294.14,382.53 L 294.05,382.54 L 294.01,382.54 L 293.94,382.54 L 293.93,382.54 L 293.91,382.53 L 293.89,382.53 L 293.88,382.53 L 293.86,382.53 L 293.85,382.52 L 293.83,382.52 L 293.81,382.51 L 293.80,382.51 L 293.78,382.50 L 293.77,382.50 L 293.75,382.49 L 293.74,382.48 L 293.72,382.48 L 293.71,382.47 L 293.70,382.46 L 293.68,382.45 L 293.67,382.44 L 293.66,382.43 L 293.64,382.42 L 293.63,382.41 L 293.62,382.40 L 293.60,382.38 L 293.56,382.34 L 293.52,382.30 L 293.49,382.27 L 293.45,382.24 L 293.40,382.19 L 293.33,382.13 L 293.32,382.12 L 293.29,382.10 L 293.28,382.09 L 293.25,382.07 L 293.22,382.05 L 293.18,382.04 L 293.17,382.03 L 293.15,382.02 L 293.13,382.02 L 293.12,382.01 L 293.10,382.01 L 293.08,382.00 L 293.05,382.00 L 293.04,382.00 L 293.03,381.99 L 293.02,381.99 L 293.01,381.99 L 293.00,381.99 L 292.99,382.00 L 292.98,381.98 L 292.98,381.97 L 292.97,381.95 L 292.97,381.93 L 292.97,381.92 L 292.96,381.91 L 292.96,381.91 L 292.96,381.90 L 292.95,381.89 L 292.95,381.88 L 292.94,381.86 L 292.93,381.85 L 292.92,381.83 L 292.91,381.81 L 292.89,381.79 L 292.85,381.70 L 292.84,381.66 L 292.83,381.63 L 292.83,381.59 L 292.83,381.56 L 292.84,381.50 L 292.84,381.46 L 292.83,381.42 L 292.83,381.38 L 292.81,381.34 L 292.79,381.30 L 292.77,381.27 L 292.76,381.25 L 292.73,381.21 L 292.70,381.17 L 292.67,381.11 L 292.62,381.05 L 292.58,381.01 L 292.55,380.98 L 292.51,380.95 L 292.47,380.93 L 292.44,380.91 L 292.40,380.89 L 292.37,380.87 L 292.33,380.85 L 292.27,380.81 L 292.21,380.78 L 292.16,380.77 L 292.13,380.75 L 292.10,380.70 L 292.07,380.67 L 292.04,380.64 L 292.01,380.60 L 291.98,380.56 L 291.95,380.53 L 291.92,380.50 L 291.84,380.44 L 291.78,380.38 L 291.72,380.33 L 291.66,380.29 L 291.60,380.24 L 291.55,380.20 L 291.48,380.15 L 291.42,380.11 L 291.36,380.07 L 291.30,380.00 L 291.25,379.95 L 291.21,379.92 L 291.18,379.88 L 291.14,379.84 L 291.10,379.81 L 291.06,379.78 L 291.03,379.76 L 291.01,379.75 L 290.99,379.74 L 290.98,379.74 L 290.95,379.74 L 290.91,379.75 L 290.85,379.77 L 290.83,379.78 L 290.81,379.80 L 290.76,379.83 L 290.73,379.87 L 290.70,379.91 L 290.67,379.94 L 290.64,379.97 L 290.61,379.99 L 290.58,380.00 L 290.55,380.00 L 290.53,380.00 L 290.50,380.00 L 290.47,379.99 L 290.44,379.97 L 290.43,379.96 L 290.39,379.93 L 290.36,379.91 L 290.34,379.89 L 290.31,379.86 L 290.29,379.85 L 290.26,379.84 L 290.23,379.83 L 290.19,379.82 L 290.16,379.81 L 290.14,379.81 L 290.11,379.81 L 290.09,379.82 L 290.07,379.83 L 290.03,379.86 L 289.98,379.90 L 289.94,379.94 L 289.90,379.97 L 289.87,379.99 L 289.84,380.00 L 289.79,380.01 L 289.76,380.02 L 289.73,380.02 L 289.69,380.02 L 289.64,380.01 L 289.58,379.99 L 289.52,379.96 L 289.46,379.94 L 289.41,379.93 L 289.38,379.92 L 289.35,379.91 L 289.33,379.91 L 289.31,379.91 L 289.28,379.91 L 289.23,379.92 L 289.17,379.93 L 289.13,379.95 L 289.06,379.98 L 289.00,380.00 L 288.95,380.02 L 288.91,380.03 L 288.88,380.03 L 288.86,380.04 L 288.85,380.04 L 288.84,380.05 L 288.83,380.06 L 288.83,380.07 L 288.82,380.08 L 288.82,380.10 L 288.79,380.15 L 288.65,380.27 L 288.60,380.31 L 288.58,380.33 L 288.55,380.33 L 288.52,380.34 L 288.46,380.32 L 288.36,380.29 L 288.32,380.29 L 288.28,380.28 L 288.26,380.27 L 288.24,380.26 L 288.22,380.23 L 288.20,380.20 L 288.17,380.17 L 288.16,380.16 L 288.14,380.16 L 288.11,380.16 L 288.08,380.18 L 288.05,380.21 L 288.04,380.23 L 288.04,380.27 L 288.04,380.31 L 288.04,380.32 L 288.05,380.36 L 288.05,380.39 L 288.04,380.41 L 288.03,380.43 L 288.01,380.43 L 288.00,380.44 L 287.98,380.42 L 287.94,380.36 L 287.87,380.31 L 287.83,380.30 L 287.81,380.30 L 287.79,380.30 L 287.76,380.30 L 287.75,380.31 L 287.70,380.36 L 287.67,380.39 L 287.65,380.40 L 287.63,380.41 L 287.61,380.42 L 287.59,380.42 L 287.57,380.40 L 287.55,380.38 L 287.55,380.35 L 287.55,380.32 L 287.56,380.27 L 287.59,380.21 L 287.66,380.08 L 287.70,380.03 L 287.72,380.02 L 287.75,380.00 L 287.78,379.99 L 287.79,379.97 L 287.79,379.96 L 287.79,379.95 L 287.76,379.94 L 287.73,379.93 L 287.69,379.93 L 287.66,379.92 L 287.64,379.90 L 287.62,379.88 L 287.62,379.85 L 287.62,379.83 L 287.64,379.77 L 287.67,379.65 L 287.68,379.61 L 287.66,379.59 L 287.64,379.57 L 287.62,379.56 L 287.60,379.56 L 287.57,379.58 L 287.53,379.61 L 287.46,379.67 L 287.44,379.69 L 287.39,379.70 L 287.30,379.66 L 287.23,379.66 L 287.16,379.68 L 287.04,379.71 L 286.92,379.79 L 286.87,379.78 L 286.80,379.77 L 286.71,379.75 L 286.66,379.63 L 286.63,379.59 L 286.58,379.53 L 286.49,379.45 L 286.33,379.34 L 286.05,379.15 L 286.01,379.12 L 285.98,379.10 L 285.97,379.10 L 285.87,379.07 L 285.79,379.06 L 285.64,379.04 L 285.42,379.02 L 285.32,379.02 L 285.27,379.02 L 285.18,379.05 L 285.05,379.10 L 284.92,379.15 L 284.84,379.18 L 284.75,379.19 L 284.72,379.21 L 284.57,379.24 L 284.43,379.27 L 284.35,379.28 L 284.26,379.28 L 284.21,379.27 L 284.14,379.24 L 284.16,379.19 L 284.16,379.18 L 284.17,379.15 L 284.17,379.09 L 284.16,379.05 L 284.15,379.02 L 284.13,379.01 L 284.11,378.99 L 284.06,378.99 L 283.97,379.00 L 283.90,379.01 L 283.84,379.01 L 283.80,379.01 L 283.77,379.01 L 283.75,379.00 L 283.74,379.00 L 283.72,378.98 L 283.71,378.96 L 283.69,378.94 L 283.69,378.89 L 283.69,378.84 L 283.69,378.77 L 283.68,378.74 L 283.68,378.71 L 283.66,378.68 L 283.64,378.65 L 283.62,378.63 L 283.60,378.62 L 283.56,378.60 L 283.50,378.58 L 283.47,378.57 L 283.44,378.56 L 283.41,378.55 L 283.40,378.53 L 283.38,378.51 L 283.36,378.49 L 283.35,378.45 L 283.33,378.41 L 283.33,378.39 L 283.33,378.38 L 283.34,378.36 L 283.41,378.30 L 283.47,378.25 L 283.51,378.19 L 283.53,378.16 L 283.54,378.13 L 283.56,378.04 L 283.57,377.94 L 283.58,377.88 L 283.60,377.84 L 283.62,377.80 L 283.65,377.77 L 283.68,377.73 L 283.72,377.70 L 283.78,377.66 L 283.85,377.61 L 283.88,377.59 L 283.90,377.56 L 283.91,377.53 L 283.92,377.49 L 283.91,377.45 L 283.91,377.42 L 283.90,377.41 L 283.89,377.38 L 283.87,377.37 L 283.81,377.33 L 283.69,377.26 L 283.60,377.20 L 283.56,377.17 L 283.53,377.13 L 283.50,377.09 L 283.33,376.87 L 283.29,376.80 L 283.27,376.77 L 283.26,376.75 L 283.26,376.73 L 283.26,376.71 L 283.26,376.69 L 283.27,376.67 L 283.29,376.64 L 283.35,376.58 L 283.41,376.54 L 283.43,376.51 L 283.43,376.49 L 283.43,376.47 L 283.43,376.44 L 283.40,376.36 L 283.40,376.35 L 283.39,376.34 L 283.36,376.30 L 283.35,376.28 L 283.34,376.26 L 283.35,376.23 L 283.37,376.15 L 283.38,376.11 L 283.40,376.10 L 283.43,376.12 L 283.45,376.13 L 283.46,376.14 L 283.48,376.14 L 283.49,376.13 L 283.51,376.11 L 283.51,376.09 L 283.52,376.08 L 283.53,376.08 L 283.55,376.08 L 283.57,376.10 L 283.60,376.14 L 283.62,376.16 L 283.63,376.16 L 283.64,376.16 L 283.64,376.15 L 283.65,376.15 L 283.65,376.14 L 283.64,376.12 L 283.63,376.09 L 283.62,376.07 L 283.62,376.06 L 283.63,376.05 L 283.63,376.04 L 283.64,376.04 L 283.64,376.04 L 283.65,376.04 L 283.67,376.04 L 283.70,376.05 L 283.74,376.08 L 283.76,376.08 L 283.79,376.08 L 283.82,376.08 L 283.86,376.07 L 283.88,376.07 L 283.90,376.07 L 283.93,376.08 L 283.97,376.11 L 283.99,376.12 L 284.00,376.12 L 284.01,376.12 L 284.01,376.12 L 284.02,376.11 L 284.02,376.11 L 284.02,376.10 L 284.02,376.10 L 284.02,376.09 L 284.02,376.08 L 284.01,376.08 L 283.98,376.06 L 283.98,376.06 L 283.98,376.05 L 283.98,376.04 L 283.98,376.04 L 283.99,376.04 L 284.01,376.04 L 284.04,376.04 L 284.06,376.04 L 284.08,376.04 L 284.09,376.04 L 284.11,376.05 L 284.13,376.07 L 284.15,376.09 L 284.17,376.10 L 284.21,376.10 L 284.23,376.09 L 284.24,376.08 L 284.26,376.06 L 284.27,376.04 L 284.28,376.01 L 284.29,375.98 L 284.30,375.97 L 284.31,375.97 L 284.31,375.97 L 284.32,375.98 L 284.32,375.99 L 284.33,376.01 L 284.33,376.03 L 284.34,376.04 L 284.34,376.06 L 284.34,376.07 L 284.35,376.07 L 284.35,376.08 L 284.36,376.09 L 284.37,376.10 L 284.37,376.10 L 284.38,376.12 L 284.38,376.15 L 284.38,376.18 L 284.38,376.19 L 284.39,376.20 L 284.44,376.22 L 284.49,376.24 L 284.51,376.24 L 284.52,376.24 L 284.52,376.24 L 284.53,376.23 L 284.53,376.23 L 284.53,376.23 L 284.52,376.22 L 284.51,376.21 L 284.51,376.20 L 284.51,376.20 L 284.51,376.19 L 284.51,376.19 L 284.51,376.18 L 284.52,376.18 L 284.53,376.18 L 284.55,376.19 L 284.56,376.19 L 284.58,376.18 L 284.60,376.17 L 284.61,376.16 L 284.63,376.16 L 284.64,376.16 L 284.66,376.16 L 284.69,376.16 L 284.70,376.16 L 284.71,376.16 L 284.71,376.15 L 284.73,376.12 L 284.74,376.10 L 284.76,376.08 L 284.76,376.08 L 284.77,376.08 L 284.78,376.08 L 284.80,376.09 L 284.82,376.09 L 284.83,376.08 L 284.85,376.08 L 284.86,376.07 L 284.88,376.07 L 284.90,376.07 L 284.92,376.08 L 284.94,376.08 L 284.94,376.08 L 284.95,376.08 L 284.96,376.07 L 284.98,376.05 L 284.98,376.05 L 284.99,376.05 L 285.00,376.05 L 285.00,376.06 L 285.01,376.07 L 285.02,376.07 L 285.03,376.07 L 285.04,376.07 L 285.06,376.06 L 285.09,376.04 L 285.10,376.04 L 285.13,376.02 L 285.14,376.01 L 285.15,376.01 L 285.15,376.00 L 285.15,375.99 L 285.16,375.96 L 285.15,375.95 L 285.16,375.94 L 285.16,375.92 L 285.17,375.91 L 285.17,375.89 L 285.18,375.89 L 285.18,375.88 L 285.19,375.88 L 285.19,375.87 L 285.21,375.87 L 285.22,375.86 L 285.23,375.86 L 285.23,375.85 L 285.23,375.84 L 285.23,375.84 L 285.22,375.84 L 285.22,375.83 L 285.21,375.83 L 285.19,375.83 L 285.16,375.83 L 285.16,375.82 L 285.16,375.82 L 285.16,375.81 L 285.16,375.81 L 285.17,375.79 L 285.18,375.78 L 285.20,375.78 L 285.21,375.78 L 285.22,375.78 L 285.23,375.78 L 285.25,375.80 L 285.26,375.81 L 285.27,375.81 L 285.27,375.81 L 285.28,375.80 L 285.28,375.79 L 285.28,375.77 L 285.28,375.74 L 285.28,375.72 L 285.29,375.71 L 285.30,375.71 L 285.31,375.70 L 285.32,375.70 L 285.34,375.70 L 285.35,375.71 L 285.36,375.73 L 285.37,375.75 L 285.37,375.76 L 285.38,375.76 L 285.38,375.76 L 285.39,375.75 L 285.40,375.74 L 285.41,375.73 L 285.41,375.71 L 285.42,375.68 L 285.42,375.66 L 285.42,375.65 L 285.43,375.65 L 285.44,375.65 L 285.45,375.64 L 285.46,375.64 L 285.46,375.63 L 285.47,375.63 L 285.48,375.63 L 285.49,375.62 L 285.50,375.62 L 285.51,375.61 L 285.51,375.60 L 285.52,375.59 L 285.52,375.58 L 285.53,375.57 L 285.54,375.56 L 285.54,375.56 L 285.54,375.56 L 285.55,375.56 L 285.56,375.56 L 285.60,375.55 L 285.63,375.56 L 285.64,375.56 L 285.65,375.56 L 285.65,375.56 L 285.66,375.56 L 285.67,375.56 L 285.68,375.56 L 285.69,375.55 L 285.70,375.54 L 285.71,375.53 L 285.71,375.52 L 285.71,375.51 L 285.71,375.51 L 285.70,375.50 L 285.69,375.49 L 285.69,375.49 L 285.68,375.49 L 285.67,375.48 L 285.66,375.48 L 285.65,375.47 L 285.64,375.47 L 285.64,375.46 L 285.63,375.45 L 285.63,375.44 L 285.63,375.44 L 285.64,375.43 L 285.65,375.42 L 285.66,375.40 L 285.68,375.39 L 285.69,375.39 L 285.70,375.38 L 285.71,375.38 L 285.72,375.39 L 285.73,375.39 L 285.74,375.40 L 285.74,375.41 L 285.75,375.44 L 285.76,375.45 L 285.76,375.45 L 285.77,375.45 L 285.77,375.44 L 285.77,375.44 L 285.77,375.43 L 285.77,375.40 L 285.78,375.39 L 285.78,375.38 L 285.79,375.37 L 285.80,375.36 L 285.81,375.35 L 285.81,375.34 L 285.81,375.31 L 285.81,375.30 L 285.81,375.29 L 285.81,375.29 L 285.81,375.28 L 285.81,375.26 L 285.81,375.25 L 285.78,375.19 L 285.72,375.10 L 285.69,375.05 L 285.76,374.94 L 285.79,374.87 L 285.80,374.83 L 285.81,374.78 L 285.81,374.66 L 285.79,374.53 L 285.78,374.48 L 285.77,374.45 L 285.75,374.43 L 285.72,374.41 L 285.68,374.41 L 285.64,374.40 L 285.60,374.40 L 285.54,374.39 L 285.56,374.34 L 285.59,374.28 L 285.60,374.20 L 285.61,374.14 L 285.63,374.04 L 285.64,373.98 L 285.65,373.90 L 285.66,373.84 L 285.67,373.83 L 285.70,373.79 L 285.72,373.77 L 285.72,373.76 L 285.73,373.74 L 285.72,373.70 L 285.72,373.63 L 285.72,373.61 L 285.72,373.60 L 285.73,373.58 L 285.76,373.51 L 285.78,373.48 L 285.81,373.46 L 285.85,373.43 L 285.88,373.41 L 285.91,373.38 L 285.94,373.35 L 285.98,373.29 L 286.00,373.25 L 286.03,373.22 L 286.05,373.20 L 286.09,373.17 L 286.12,373.14 L 286.14,373.12 L 286.14,373.10 L 286.14,373.07 L 286.12,373.02 L 286.09,372.92 L 286.07,372.85 L 286.04,372.81 L 285.98,372.76 L 285.94,372.71 L 285.96,372.65 L 286.05,372.52 L 286.11,372.44 L 286.12,372.40 L 286.11,372.34 L 286.11,372.29 L 286.10,372.25 L 286.12,372.23 L 286.12,372.22 L 286.16,372.21 L 286.22,372.18 L 286.25,372.16 L 286.26,372.14 L 286.27,372.12 L 286.29,372.10 L 286.34,372.07 L 286.47,372.02 L 286.48,372.01 L 286.48,371.99 L 286.48,371.94 L 286.47,371.77 L 286.46,371.68 L 286.46,371.61 L 286.45,371.56 L 286.44,371.47 L 286.38,371.18 L 286.38,371.15 L 286.40,371.12 L 286.42,371.11 L 286.44,371.10 L 286.53,371.07 L 286.59,371.06 L 286.71,371.03 L 286.73,371.02 L 286.74,370.99 L 286.74,370.97 L 286.74,370.94 L 286.74,370.93 L 286.74,370.90 L 286.73,370.87 L 286.71,370.79 L 286.68,370.68 L 286.66,370.61 L 286.62,370.49 L 286.60,370.41 L 286.61,370.39 L 286.62,370.36 L 286.63,370.34 L 286.66,370.31 L 286.69,370.28 L 286.70,370.26 L 286.70,370.23 L 286.70,370.15 L 286.70,370.11 L 286.69,370.04 L 286.70,369.99 L 286.71,369.93 L 286.73,369.85 L 286.75,369.78 L 286.75,369.78 L 286.78,369.70 L 286.78,369.68 L 286.80,369.63 L 286.81,369.60 L 286.75,369.60 L 286.72,369.58 L 286.71,369.57 L 286.69,369.54 L 286.68,369.51 L 286.68,369.49 L 286.67,369.46 L 286.66,369.45 L 286.63,369.43 L 286.61,369.41 L 286.57,369.40 L 286.49,369.38 L 286.43,369.37 L 286.40,369.37 L 286.32,369.38 L 286.28,369.38 L 286.24,369.34 L 286.24,369.34 L 286.21,369.28 L 286.16,369.23 L 286.14,369.20 L 286.13,369.18 L 286.13,369.14 L 286.12,369.08 L 286.12,368.99 L 286.12,368.91 L 286.12,368.89 L 286.11,368.87 L 286.10,368.85 L 286.09,368.84 L 286.08,368.84 L 286.07,368.84 L 286.07,368.85 L 286.05,368.89 L 286.05,369.04 L 286.04,369.14 L 286.04,369.19 L 286.04,369.21 L 286.02,369.25 L 286.00,369.29 L 285.98,369.30 L 285.97,369.32 L 285.95,369.33 L 285.92,369.34 L 285.86,369.35 L 285.78,369.35 L 285.65,369.35 L 285.58,369.35 L 285.53,369.34 L 285.45,369.32 L 285.41,369.31 L 285.33,369.27 L 285.26,369.25 L 285.24,369.25 L 285.23,369.25 L 285.21,369.27 L 285.18,369.31 L 285.14,369.34 L 285.09,369.37 L 285.06,369.37 L 285.04,369.37 L 285.02,369.37 L 285.00,369.37 L 284.90,369.43 L 284.86,369.46 L 284.82,369.49 L 284.80,369.50 L 284.77,369.50 L 284.76,369.49 L 284.72,369.45 L 284.68,369.43 L 284.65,369.42 L 284.61,369.43 L 284.58,369.43 L 284.53,369.38 L 284.46,369.33 L 284.43,369.32 L 284.40,369.32 L 284.38,369.32 L 284.35,369.30 L 284.34,369.29 L 284.31,369.25 L 284.28,369.19 L 284.22,369.12 L 284.19,369.09 L 284.17,369.09 L 284.16,369.09 L 284.14,369.10 L 284.10,369.15 L 284.02,369.22 L 283.99,369.23 L 283.97,369.23 L 283.95,369.23 L 283.89,369.21 L 283.80,369.18 L 283.77,369.18 L 283.73,369.17 L 283.72,369.17 L 283.67,369.18 L 283.63,369.20 L 283.60,369.22 L 283.54,369.29 L 283.50,369.31 L 283.48,369.32 L 283.44,369.33 L 283.38,369.33 L 283.32,369.33 L 283.30,369.33 L 283.27,369.34 L 283.23,369.36 L 283.21,369.36 L 283.20,369.36 L 283.12,369.36 L 283.07,369.36 L 283.02,369.35 L 282.98,369.32 L 282.95,369.30 L 282.92,369.28 L 282.88,369.23 L 282.85,369.19 L 282.82,369.18 L 282.81,369.18 L 282.79,369.19 L 282.76,369.21 L 282.72,369.22 L 282.70,369.23 L 282.67,369.22 L 282.65,369.21 L 282.59,369.19 L 282.56,369.18 L 282.52,369.18 L 282.50,369.18 L 282.48,369.19 L 282.45,369.21 L 282.38,369.22 L 282.40,369.26 L 282.39,369.31 L 282.36,369.40 L 282.36,369.44 L 282.36,369.50 L 282.35,369.54 L 282.34,369.58 L 282.32,369.65 L 282.27,369.64 L 282.23,369.64 L 282.20,369.65 L 282.14,369.66 L 282.11,369.67 L 282.07,369.66 L 282.04,369.67 L 282.03,369.68 L 282.01,369.69 L 282.00,369.71 L 281.99,369.74 L 281.98,369.78 L 281.97,369.82 L 281.97,369.89 L 281.96,369.93 L 281.95,369.99 L 281.94,370.06 L 281.92,370.13 L 281.90,370.20 L 281.88,370.27 L 281.86,370.34 L 281.82,370.45 L 281.79,370.56 L 281.77,370.61 L 281.76,370.62 L 281.75,370.62 L 281.73,370.61 L 281.69,370.59 L 281.67,370.58 L 281.65,370.59 L 281.63,370.60 L 281.60,370.62 L 281.56,370.66 L 281.51,370.69 L 281.49,370.71 L 281.46,370.72 L 281.43,370.72 L 281.36,370.73 L 281.30,370.74 L 281.25,370.75 L 281.20,370.77 L 281.13,370.80 L 281.11,370.81 L 281.10,370.82 L 281.09,370.85 L 281.07,370.88 L 281.07,370.90 L 281.07,370.92 L 281.06,370.94 L 281.04,370.96 L 281.01,370.94 L 281.00,370.93 L 280.97,370.92 L 280.87,370.92 L 280.74,370.91 L 280.66,370.90 L 280.63,370.98 L 280.61,371.02 L 280.59,371.05 L 280.57,371.08 L 280.53,371.11 L 280.48,371.14 L 280.44,371.17 L 280.39,371.20 L 280.31,371.23 L 280.27,371.26 L 280.22,371.30 L 280.19,371.30 L 280.10,371.33 L 280.04,371.34 L 279.99,371.33 L 279.91,371.32 L 279.86,371.30 L 279.83,371.29 L 279.80,371.29 L 279.76,371.29 L 279.69,371.31 L 279.57,371.36 L 279.58,371.41 L 279.58,371.45 L 279.58,371.46 L 279.58,371.49 L 279.57,371.53 L 279.56,371.58 L 279.56,371.65 L 279.55,371.70 L 279.54,371.74 L 279.52,371.79 L 279.50,371.83 L 279.48,371.85 L 279.44,371.89 L 279.41,371.92 L 279.39,371.96 L 279.37,371.99 L 279.36,372.04 L 279.35,372.04 L 279.33,372.05 L 279.31,372.05 L 279.31,372.06 L 279.31,372.08 L 279.33,372.11 L 279.35,372.13 L 279.36,372.14 L 279.35,372.18 L 279.40,372.21 L 279.30,372.32 L 279.25,372.28 L 279.19,372.22 L 279.10,372.31 L 279.07,372.33 L 279.03,372.35 L 279.03,372.42 L 279.03,372.45 L 279.04,372.48 L 279.06,372.50 L 279.07,372.53 L 279.08,372.56 L 279.07,372.61 L 279.06,372.64 L 279.07,372.65 L 279.07,372.65 L 279.09,372.65 L 279.12,372.66 L 279.15,372.67 L 279.16,372.69 L 279.12,372.70 L 279.05,372.73 L 279.02,372.73 L 279.00,372.73 L 278.98,372.73 L 278.97,372.74 L 278.94,372.77 L 278.89,372.80 L 278.88,372.81 L 278.86,372.81 L 278.84,372.80 L 278.80,372.79 L 278.78,372.79 L 278.75,372.78 L 278.70,372.78 L 278.68,372.77 L 278.66,372.76 L 278.63,372.74 L 278.61,372.72 L 278.59,372.72 L 278.58,372.72 L 278.56,372.72 L 278.54,372.73 L 278.51,372.75 L 278.44,372.79 L 278.41,372.81 L 278.38,372.82 L 278.34,372.82 L 278.31,372.81 L 278.29,372.81 L 278.24,372.78 L 278.18,372.74 L 278.12,372.71 L 278.10,372.71 L 278.07,372.71 L 278.04,372.72 L 278.01,372.72 L 277.98,372.71 L 277.96,372.70 L 277.94,372.69 L 277.92,372.69 L 277.90,372.70 L 277.89,372.71 L 277.88,372.72 L 277.88,372.74 L 277.88,372.75 L 277.88,372.76 L 277.89,372.78 L 277.90,372.79 L 277.92,372.82 L 277.95,372.84 L 277.97,372.85 L 277.98,372.87 L 277.99,372.92 L 278.01,372.96 L 278.03,372.98 L 278.06,373.01 L 278.07,373.02 L 278.07,373.03 L 278.07,373.04 L 278.07,373.05 L 278.05,373.05 L 278.04,373.07 L 278.02,373.08 L 277.99,373.15 L 277.96,373.20 L 277.94,373.17 L 277.97,373.12 L 277.94,373.08 L 277.79,372.87 L 277.70,372.75 L 277.60,372.75 L 277.57,372.77 L 277.56,372.79 L 277.55,372.79 L 277.52,372.79 L 277.44,372.76 L 277.41,372.74 L 277.38,372.71 L 277.37,372.67 L 277.36,372.65 L 277.32,372.64 L 277.21,372.63 L 277.19,372.52 L 277.18,372.48 L 277.15,372.44 L 277.15,372.43 L 277.15,372.40 L 277.15,372.37 L 277.13,372.33 L 277.13,372.31 L 277.13,372.29 L 277.12,372.26 L 277.12,372.24 L 277.12,372.22 L 277.04,372.23 L 276.98,372.22 L 276.96,372.19 L 276.95,372.16 L 276.91,372.16 L 276.89,372.12 L 276.87,372.09 L 276.82,372.06 L 276.76,372.03 L 276.68,371.98 L 276.71,371.88 L 276.72,371.83 L 276.73,371.80 L 276.74,371.77 L 276.77,371.66 L 276.77,371.66 L 276.78,371.63 L 276.80,371.54 L 276.30,371.51 L 276.14,371.51 L 276.13,371.52 L 276.11,371.53 L 276.05,371.59 L 275.97,371.73 L 275.93,371.85 L 275.91,371.97 L 275.91,372.11 L 275.92,372.31 L 275.96,372.40 L 275.99,372.48 L 276.07,372.73 L 276.16,372.91 L 276.24,373.01 L 276.33,373.10 L 276.42,373.29 L 276.51,373.44 L 276.58,373.61 L 276.66,373.83 L 276.69,373.95 L 276.69,373.99 L 276.68,374.09 L 276.67,374.21 L 276.65,374.30 L 276.54,374.60 L 276.51,374.70 L 276.36,375.00 Z" fill="#E5E7EB" stroke="#374151" stroke-width="1" fill-rule="evenodd"/>
</svg>