<?xml version="1.0" encoding="UTF-8"?>
<!DOCTYPE svg PUBLIC "-//W3C//DTD SVG 1.1//EN" "http://www.w3.org/Graphics/SVG/1.1/DTD/svg11.dtd">
<!-- Creator: CorelDRAW 2021 (64-Bit) -->
<svg xmlns="http://www.w3.org/2000/svg" xml:space="preserve" width="0.666067in" height="0.508846in" version="1.1" shape-rendering="geometricPrecision" text-rendering="geometricPrecision" image-rendering="optimizeQuality" fill-rule="evenodd" clip-rule="evenodd"
viewBox="0 0 91.09 69.59"
 xmlns:xlink="http://www.w3.org/1999/xlink"
 xmlns:xodm="http://www.corel.com/coreldraw/odm/2003">
 <g id="Layer_x0020_1">
  <metadata id="CorelCorpID_0Corel-Layer"/>
  <path fill="none" fill-rule="nonzero" stroke="#336666" stroke-width="0.41" stroke-miterlimit="2.61313" d="M77.21 25.38c-0.12,-0.25 -0.24,-0.51 -0.36,-0.85 -0.36,0 -0.59,0 -0.87,0.01 -1.39,0.35 -3.01,0.96 -4.08,0.46 -3.41,-0.66 -4.13,-2.44 -2.95,-5.44 0.32,-0.34 0.31,-1.45 -0.13,-2.73 -0.2,-0.77 -0.4,-1.45 -0.56,-2.22 -0,-0.68 -0.4,-1.19 -1.39,-1.7 -0.48,0 -0.87,0.01 -1.27,0.01 -0.08,-0.08 -0.16,-0.17 -0.2,-0.34 -0.36,0 -0.63,-0.08 -0.91,-0.25 0,0.17 0,0.26 0,0.34 -0.12,0 -0.24,0 -0.32,0 -0.64,-0.68 -1.23,-1.27 -1.87,-1.86 -0.36,-0.34 -0.72,-1.62 -1.28,-3.92 -0.08,-0.43 -0.16,-0.94 -0.2,-1.53 -0.08,-0.85 -1.36,-2.38 -3.86,-4.41 -1.63,-1.01 -2.7,-1 -3.73,0.12 -0.28,0.69 -0.55,1.2 -0.87,1.8 -0.23,1.03 -0.43,1.97 -0.62,2.82 0.05,1.88 -0.94,3.08 -2.84,3.95 -0.47,0.35 -0.95,0.69 -1.42,0.95 -0.47,0.35 -0.91,0.78 -1.34,1.12 -0.4,0.35 -0.35,1.2 -0.82,3 -0.23,0.77 -0.47,1.54 -0.67,2.23 -0.4,0.43 -0.71,0.94 -1.03,1.29 -0.47,0.26 -0.95,0.52 -1.38,0.78 -1.58,0.87 -2.25,1.56 -2.61,2.41 -0.31,0.69 -1.38,1.29 -2.97,0.79 -1.03,0.01 -2.1,-0.24 -3.69,-1.42 -0.4,-0.34 -0.76,-0.68 -1.11,-1.02 -0.24,-0.51 -0.44,-1.02 -0.6,-1.62 -0.52,-1.02 -1,-2.04 -1.52,-2.98 -0.4,-1.36 -1.12,-2.13 -2.19,-2.8 -0.32,-0.08 -0.6,-0.17 -0.87,-0.33 -0.08,-0.08 -0.16,-0.17 -0.24,-0.42 -0.32,-0.08 -0.59,-0.08 -0.87,-0.25 -0.67,0.01 -1.55,-0.41 -1.79,-1.69 0,-0.09 -0,-0.17 -0,-0.34 -0.24,-0.25 -0.48,-0.51 -0.72,-0.85 -0.36,0 -0.63,-0.08 -0.91,-0.25 -0.12,0 -0.24,0 -0.36,0 -0.12,-0.17 -0.28,-0.43 -0.4,-0.68 -0.72,-0.51 -1.47,-0.93 -2.19,-1.26 -0.08,0 -0.2,0 -0.32,0 -0.32,-0.08 -0.59,-0.17 -0.87,-0.33 -0.28,-0.34 -0.52,-0.59 -0.76,-0.85 -0.32,-0.08 -0.71,-0.08 -1.03,-0.25 -0.24,-0.08 -0.48,-0.17 -0.71,-0.34 -0.79,0.01 -1.59,0.01 -2.34,0.1 -0.12,-0.08 -0.2,-0.17 -0.32,-0.42 -0,-0.08 -0,-0.17 -0,-0.34 -0.56,-0.42 -0.72,-0.42 -1.83,-0.75 -0.44,-0.17 -0.87,-0.25 -1.27,-0.5 -1.07,0.01 -1.86,0.95 -2.33,2.49 -0.2,0.26 -0.35,0.52 -0.51,0.77 -0.12,0.26 -0.24,0.43 -0.32,0.51 -0.24,0.43 -0.47,0.86 -0.67,1.2 -0.36,0.52 0,0.85 0.36,1.53 0,0.17 0,0.34 0,0.43 0.08,0.68 -0.31,1.11 -1.34,1.55 -0.24,0.34 -0.47,0.69 -0.67,0.94 -0.2,0.26 -0.35,0.6 -0.55,0.77 -0.08,0.17 -0.12,0.26 -0.16,0.34 -0.2,0.26 -0.32,0.52 -0.47,0.69 -0.12,0.17 -0.68,0.43 -0.79,0.51 -0.24,0.26 -0.47,0.35 -0.67,0.43 -0.44,0 -0.95,0.01 -1.39,0.01 0,0.34 0,0.6 0,0.85 0.12,0.34 0.24,0.6 0.4,0.85 0.24,1.28 0.56,2.39 0.85,3.58 0.28,0.25 0.24,0.68 0.59,1.01 0.12,0.26 0.24,0.51 0.36,0.68 0.2,0.17 0.36,0.34 0.56,0.51 0.04,-0 0.08,-0 0.16,-0 0,0.94 0.45,1.88 0.53,2.73 0.16,0.26 0.8,0.59 1,0.76 0.24,0.34 0.52,0.68 0.76,1.02 0.12,0.17 0.24,0.34 0.36,0.42 0.08,-0 0.2,-0 0.36,-0 0,0.34 0,0.68 0.04,0.94 0.36,0.77 0.76,1.1 1.12,1.44 0.4,0.25 0.79,0.42 1.27,0.67 0.48,0.76 1.12,1.44 1.71,2.12 0.4,0.51 0.76,0.93 1.12,1.44 0.2,0.25 0.4,0.51 0.6,0.68 0.08,0.17 0.2,0.25 0.32,0.34 0,0.17 0,0.26 0.04,0.34 0.48,-0 0.95,0.87 1.43,0.87 0.08,-0.17 0.2,-0.43 0.27,-0.69 0.2,-0.26 0.43,-0.52 0.71,-0.77 0,0.51 0,0.94 0.04,1.37 0.12,0.43 0.24,0.77 0.36,1.02 0.2,0.17 0.36,0.25 0.56,0.34 0.04,-0 0.12,-0 0.2,-0 0.16,0.17 0.32,0.25 0.52,0.34 0,0.43 0.4,1.19 1.08,1.44 0.59,-0 1.19,-0.89 1.78,-0.89 0.36,-0.34 0.67,-0.69 1.03,-1.12 -0,-0.43 -0,-0.77 -0,-1.11 -0.12,-0.26 -0.2,-0.6 -0.24,-1.02 0.52,0.42 0.99,0.68 1.43,0.93 0.36,0.25 0.28,0.51 0.63,0.67 -0.12,0.51 -0.23,0.86 -0.31,1.2 0,0.26 0,0.51 0,0.77 0.08,1.28 1.24,2.04 2.87,3.14 0.72,0.68 1.43,1.35 2.15,1.95 0.24,0.26 0.52,0.51 0.76,0.68 0.92,1.53 1.63,2.21 2.7,1.77 0.24,-0.09 0.44,-0.17 0.67,-0.35 0.59,-0.6 1.26,-1.29 1.9,-1.89 0.2,-0 0.44,-0 0.67,-0.09 1.23,1.27 2.51,2.37 3.82,3.47 0.12,-0 0.28,-0 0.4,-0 0.2,0.17 0.44,0.25 0.68,0.34 0.63,-0.09 1.27,-0.18 1.9,-0.44 0.43,-0.43 0.95,-0.86 1.42,-1.38 0.2,-0.09 0.44,-0.17 0.67,-0.35 0.12,-0.09 0.28,-0.17 0.47,-0.35 -0,-0.26 -0,-0.51 -0,-0.85 0.08,-0.09 0.2,-0.17 0.32,-0.35 0.04,0 0.12,0 0.2,-0.09 0.67,0.17 1.31,0.25 1.98,0.33 1.15,0.67 2.26,1.18 3.42,1.85 0.12,-0 0.24,-0 0.36,-0 0.2,0.17 0.48,0.25 0.71,0.34 0.16,0.17 0.36,0.34 0.56,0.51 0.2,0.17 0.48,0.25 0.68,0.34 0.36,-0 0.71,-0.01 1.07,-0.01 1.07,-0.09 2.18,-0.44 2.18,-1.81 0.16,-0.34 0.31,-0.69 0.47,-1.03 -0,-0.51 -0,-1.03 -0.01,-1.54 -0.04,-1.37 0.31,-1.71 0.98,-1.72 0.99,-0.01 1.58,-0.1 2.57,-0.11 0.28,0.34 0.6,0.68 0.92,1.02 0.12,0.94 0.32,1.71 0.56,2.56 0,0.17 0,0.26 0,0.34 0.12,0.26 0.24,0.43 0.36,0.68 0.24,0.17 0.48,0.25 0.71,0.34 0.16,0.26 0.28,0.43 0.4,0.59 0.4,0.68 0.84,1.27 1.32,1.87 0,1.11 0.36,2.05 1.12,1.96 0.99,-0.01 1.35,-0.17 1.7,-0.51 0.16,-0.09 0.32,-0.17 0.51,-0.35 0.36,-0.43 0.51,-0.77 1.43,-0.52 0.63,-0.01 1.39,0.42 2.62,1 0.28,0.25 0.52,0.42 0.76,0.59 1.07,0.76 2.15,1 2.55,1.76 0.28,0.25 0.56,0.51 0.87,0.68 0.12,0.43 0.28,0.94 0.4,1.36 0.12,0.17 0.24,0.25 0.36,0.34 0.12,-0 0.24,-0 0.36,-0 0,0.26 0,0.51 0,0.68 -0.12,0.34 -0.24,0.6 -0.31,0.86 -0.12,0.17 -0.24,0.26 -0.36,0.34 0,0.6 0,1.2 0.05,1.71 0.12,0.34 -0.16,0.68 -0.04,1.11 0.12,0.26 0.24,0.51 0.36,0.77 0.24,0.17 0.48,0.25 0.71,0.25 0.28,0.51 0.08,0.85 0.32,1.19 1.23,0.5 2.39,1.27 2.79,2.03 0.12,0.17 0.24,0.43 0.36,0.6 0.12,0.51 0.24,0.85 0.36,1.19 0.12,0.34 0.24,0.6 0.36,0.94 0.68,0.59 1.75,1.63 2.47,2.3 0.36,0.59 1.55,1.03 2.58,0.68 0.4,-0.34 0.79,-1.22 1.22,-1.56 0.35,-0.51 1.03,-0.86 1.7,-1.21 0.28,-0.26 0.51,-0.43 0.75,-0.6 0.2,-0 0.44,-0 0.67,-0 0.28,-0.09 0.59,-0.26 0.87,-0.44 0.2,-0.26 0.43,-0.52 0.67,-0.77 0,-0.09 -0,-0.17 -0,-0.43 -0,-0.68 -0.36,-1.89 -0.76,-2.31 -0.16,-0.17 -0.28,-0.43 -0.4,-0.77 -0,-0.26 -0,-0.51 -0,-0.85 -0.2,-0.17 -0.36,-0.42 -0.52,-0.68 -0.12,-0.08 -0.28,-0.17 -0.4,-0.34 -0.12,-0.26 -0.24,-0.51 -0.36,-0.85 -0.2,-0.17 -0.44,-0.42 -0.68,-0.68 -0.28,-0.51 -0.52,-1.11 -0.76,-1.7 -0,-0.09 -0,-0.17 -0,-0.34 -0.12,0 -0.24,-0.08 -0.36,-0.25 0.32,-0.43 1.07,-0.86 1.39,-1.29 0.24,-0.09 0.48,-0.17 0.75,-0.35 0.2,-0.26 0.43,-0.6 0.67,-1.03 0.28,-0.09 0.55,-0.18 0.87,-0.35 0.08,-0 0.2,-0 0.36,-0 0.12,-0.09 -0.2,-0.26 -0.09,-0.43 0,-0.09 -0,-0.17 -0,-0.34 0.08,-0.26 -0.24,-0.51 -0.13,-0.86 -0,-0.17 -0,-0.43 -0,-0.68 0.31,-1.37 -0.09,-2.39 -2.08,-3.83 -0.12,-0.08 -0.24,-0.17 -0.36,-0.42 -0.36,-0.34 -0.4,-1.28 -0.05,-2.39 0.08,-0.34 0.2,-0.68 0.31,-1.2 -0,-0.68 -0.76,-1.7 -2.19,-2.63 -0.12,-0.08 -0.24,-0.17 -0.36,-0.42 -2.03,-1.01 -2.75,-3.05 -2.8,-5.36 -0.44,-1.36 -1.48,-2.38 -4.14,-3.47 -0.16,-0.08 -0.28,-0.17 -0.4,-0.34 -0.36,-0.34 -0.96,-1.27 -0.96,-2.81 -0.08,-0.6 -0.16,-1.28 -0.24,-1.88z"/>
 </g>
</svg>
