<?xml version="1.0" encoding="UTF-8"?>
<!DOCTYPE svg PUBLIC "-//W3C//DTD SVG 1.1//EN" "http://www.w3.org/Graphics/SVG/1.1/DTD/svg11.dtd">
<!-- Creator: CorelDRAW 2021 (64-Bit) -->
<svg xmlns="http://www.w3.org/2000/svg" xml:space="preserve" width="0.623646in" height="0.408165in" version="1.1" shape-rendering="geometricPrecision" text-rendering="geometricPrecision" image-rendering="optimizeQuality" fill-rule="evenodd" clip-rule="evenodd"
viewBox="0 0 399.96 261.77"
 xmlns:xlink="http://www.w3.org/1999/xlink"
 xmlns:xodm="http://www.corel.com/coreldraw/odm/2003">
 <g id="Layer_x0020_1">
  <metadata id="CorelCorpID_0Corel-Layer"/>
  <path fill="none" fill-rule="nonzero" stroke="#336666" stroke-width="1.92" stroke-miterlimit="2.61313" d="M351.04 4.84c-0.56,0.01 -1.12,0.01 -1.67,0.01 -1.11,0.81 -2.23,1.22 -3.34,1.63 -1.86,0.82 -3.72,1.24 -5.76,1.65 -2.41,1.22 -4.64,2.85 -6.68,3.67 -0.55,0.81 -1.29,2.02 -1.85,2.42 -1.12,0.01 -2.23,0.02 -3.16,0.03 -1.11,0.81 -2.23,1.22 -3.53,1.63 -3.53,0.83 -7.06,1.66 -10.59,2.09 -12.46,0.5 -24.92,0.59 -37,1.09 -1.12,-0.8 -2.24,-1.99 -3.36,-3.19 -0.56,-1.6 -1.13,-2.8 -1.69,-4 -0,-0.81 -0.01,-2.01 -0.01,-3.21 -0.56,0.01 -1.11,0.41 -1.67,0.41 -0.93,-1.2 -1.68,-2.8 -2.43,-4 -3.72,0.03 -7.06,0.06 -10.41,0.08 0,0.81 0.01,2.01 0.01,2.41 -1.11,1.21 -2.22,2.43 -3.15,3.63 -0.56,0.01 -1.12,0.01 -1.86,0.02 -2.41,2.43 -4.82,5.26 -7.23,7.28 -2.23,0.02 -6.53,0.03 -8.75,0.45 -0.05,-0.11 -0.07,-0.21 -0.08,-0.32l-0.01 0.01 -0 0 -0.01 0.01 -0.01 0.01 -0 0 -0.02 0.01 -0.01 0.01 -0.01 0 -0.02 0.01 -0.01 0 -0.01 0.01 -0.02 0.01 -0.01 0.01 -0.05 0.04 0 0 -0.01 0.01 -0.01 0.01 -0 0.01 -0.02 0.01 -0.01 0.01 -0.01 0.01 -0.02 0.02 -0.01 0.01 -0.01 0.01 -0.01 0 -0.01 0.01 -0.02 0.01 0 0 -0.02 0.01 -0.01 0.01 0 0 -0.02 0.01 -0.01 0.01 -0.01 0 -0.01 0.01 -0.01 0 -0.01 0.01 -0.01 0.01 -0.01 0 -0.01 0.01 -0.02 0.01 -0 0 -0.01 0.01 -0.01 0.01c0,0.81 0,1.21 0.19,1.6 -0.56,0.01 -1.11,0.01 -1.67,0.02 -2.23,1.62 -4.64,2.84 -6.68,4.07 -0.55,1.21 -1.11,2.01 -1.48,2.42 -0.56,0 -1.11,0.01 -1.86,0.02 -1.85,2.02 -3.71,3.64 -5.56,5.26 -1.3,0.81 -2.41,1.22 -3.53,1.63 -1.67,1.62 -3.34,2.84 -5,4.05 -1.11,0.82 -2.23,1.63 -3.16,2.04 -1.11,0.01 -1.86,0.01 -2.6,0.02 -1.3,0.81 -2.41,1.22 -3.34,1.63 -0.56,0.81 -1.11,1.21 -1.67,1.62l0.05 0.09 0.03 0.06 0.02 0.03 0.05 0.09 0.02 0.03 0.03 0.06 0.05 0.09 0.01 0.01 0.04 0.08 0.04 0.06 0.01 0.03 0.05 0.08 0.02 0.04 0.03 0.05 0.05 0.09 0.01 0.01 0.04 0.07 0.04 0.07 0.01 0.01 0.05 0.08 0.03 0.05 0.02 0.04 0.05 0.08 0.01 0.02 0.04 0.07 0.04 0.07 0.01 0.01 0.05 0.08 0.03 0.05 0.02 0.04 0.05 0.08 0.01 0.02 0.03 0.06 0.05 0.08 0 0.01 0.05 0.08 0.03 0.05 0.02 0.03 0.05 0.08 0.02 0.03 0.03 0.05 0.05 0.08 0 0 0.05 0.08 0.03 0.05 0.02 0.03 0.05 0.08 0.02 0.03 0.03 0.05 0.05 0.08 0.01 0.01 0.04 0.07 0.04 0.06 0.01 0.02 0.05 0.08 0.02 0.03 0.03 0.04 0.05 0.07 0.01 0.01 0.08 0.13 0.01 0.01 0.05 0.08 0.03 0.04 0.02 0.04 0.05 0.08 0.01 0.02 0.04 0.06 0.09 0.15 0.03 0.04 0.02 0.03 0.05 0.07 0.01 0.02 0.04 0.05 0.04 0.07 0 0 0.05 0.07 0.1 0.14 0.02 0.03 0.03 0.05 0.05 0.07 0 0 0.05 0.07 0.03 0.05 0.01 0.02 0.05 0.07 0.02 0.03 0.03 0.04 0.05 0.07 0.01 0.01 0.04 0.06 0.04 0.06 0.01 0.02 0.05 0.07 0.02 0.04 0.03 0.04 0.05 0.07c1.09,1.03 2.12,2.01 2.8,2.98 1.87,1.99 3.55,3.99 5.41,5.18 1.68,3.2 3.38,8 5.06,11.2 0.57,2.81 0.95,6.02 1.7,8.82 1.7,6.41 1.89,9.62 -3.12,11.26 -1.3,0.82 -2.41,1.22 -3.34,2.03 -0.56,0.81 -1.11,1.61 -1.48,2.02 -0.56,0.01 -1.12,0.01 -1.67,0.01l0 -0.01 -0.01 -2 -0.18 0 -0.18 0 -0.18 0 -0.18 0 -0.18 0 -0.18 0 -0.18 0.01 -0.18 0 -0.18 0 -0.18 0 -0.18 0 -0.08 0 -0.1 0 -0.18 0 -0.18 0 -0.18 0 -0.18 0 -0.17 0.01 -0.18 0 -0.17 0 -0.17 0 -0.17 0 -0.18 0 -0.17 0 -0.17 0 -0.17 0 -0.17 0 -0.17 0 -0.17 0 -0.17 0.01 -0.17 0 -0.17 0 -0.17 0 -0.17 0 -0.17 0 -0.17 0 -0.17 0 -0.17 0 -0.17 0 -0.17 0 -0.17 0 -0.17 0.01 -0.17 0 -0.17 0 -0.17 0 -0.17 0 -0.17 0 -0.17 0 -0.17 0 -0.17 0 -0.17 0 -0.17 0 -0.17 0.01 -0.17 0 -0.17 0 -0.17 0 -0.17 0 -0.17 0 -0.17 0 -0.17 0 -0.17 0 -0.17 0 -0.18 0 -0.17 0 -0.17 0.01c-1.11,0.81 -2.22,2.02 -3.34,2.43 -1.11,0.01 -2.23,0.02 -3.16,0.02l-0.05 0.03 -0.03 0.02 -0.02 0.01 -0.05 0.02 -0.01 0.01 -0.04 0.02 -0.04 0.02 -0.01 0 -0.05 0.03 -0.03 0.01 -0.02 0.01 -0.05 0.03 -0.01 0.01 -0.04 0.02 -0.04 0.02 -0.01 0.01 -0.05 0.02 -0.02 0.01 -0.03 0.01 -0.05 0.02 -0 0 -0.04 0.03 -0.04 0.02 -0.01 0.01 -0.05 0.03 -0.02 0.01 -0.03 0.02 -0.05 0.03 -0 0 -0.05 0.02 -0.03 0.02 -0.02 0.01 -0.05 0.02 -0.01 0.01 -0.04 0.02 -0.04 0.02 -0.01 0.01 -0.05 0.03 -0.02 0.01 -0.02 0.01 -0.05 0.03 -0.01 0 -0.04 0.02 -0.03 0.02 -0.01 0.01 -0.04 0.02 -0.02 0.01 -0.03 0.02 -0.05 0.02 0 0 -0.04 0.02 -0.03 0.02 -0.02 0.01 -0.05 0.02 -0.01 0.01 -0.07 0.04 -0 0 -0.04 0.03 -0.03 0.01 -0.02 0.01 -0.04 0.03 -0.01 0 -0.04 0.02 -0.04 0.02 -0.01 0.01 -0.04 0.02 -0.02 0.01 -0.02 0.01 -0.04 0.03 -0.01 0 -0.04 0.02 -0.03 0.02 -0.01 0.01 -0.04 0.02 -0.02 0.01 -0.03 0.01 -0.05 0.02 -0.04 0.02 -0.03 0.02 -0.02 0.01 -0.04 0.02 -0.01 0 -0.03 0.02 -0.04 0.02 -0.01 0 -0.04 0.02 -0.02 0.01 -0.02 0.01 -0.04 0.02 -0.01 0.01 -0.04 0.02 -0.03 0.02 -0.01 0 -0.04 0.02 -0.02 0.01 -0.02 0.01 -0.04 0.02 -0.01 0 -0.04 0.02 -0.03 0.02 -0.01 0.01c-0.09,0.26 -0.23,0.47 -0.67,0.63l-0.93 0.01 -0.07 0 -0.09 0 -0.08 0 -0.08 0 -0.16 0 -0.1 0 -0.06 0 -0.14 0 -0.02 0c-3.01,0.03 -6.1,0.11 -9.07,0.47 -1.12,-0.39 -2.23,-1.19 -3.35,-1.98l-0.07 0 -0.04 0 -0.03 0 -0.07 0 -0 0 -0.05 0 -0.01 0 -0.04 0.01 -0.03 0 -0.03 0 -0.05 0 -0.01 0 -0.05 0 -0.01 0 -0.05 0 -0.02 0 -0.03 0 -0.04 0 -0.02 0 -0.05 0 -0 0 -0.06 0 -0.01 0 -0.05 0 -0.03 0 -0.03 0 -0.04 0 -0.02 0 -0.05 0 -0 0 -0.06 0 -0.01 0 -0.05 0 -0.03 0 -0.03 0 -0.04 0 -0.02 0 -0.05 0 -0.01 0 -0.06 0 -0.01 0 -0.05 0 -0.02 0 -0.04 0 -0.03 0 -0.03 0 -0.05 0 -0.01 0 -0.06 0 0 0 -0.07 0 -0.05 0 -0.02 0 -0.03 0 -0.04 0 -0.02 0 -0.05 0 -0.01 0 -0.06 0 -0.06 0 -0.01 0 -0.04 0 -0.03 0 -0.03 0 -0.04 0 -0.02 0 -0.05 0 -0.01 0.01 -0.06 0 0 0 -0.06 0 -0.01 0 -0.04 0 -0.02 0 -0.04 0 -0.03 0 -0.02 0 -0.04 0 -0.01 0 -0.06 0 -0.06 0 -0.01 0 -0.05 0 -0.02 0 -0.03 0 -0.03 0 -0.02 0 -0.04 0 -0.07 0 -0.06 0 -0.01 0 -0.04 0 -0.02 0 -0.03 0 -0.03 0 -0.07 0 -0.01 0 -0.05 0 -0 0 -0.06 0 -0.04 0 -0.03 0 -0.06 0 -0.02 0 -0.05 0 -0.01 0 -0.06 0 -0.06 0 -0.06 0 -0.06 0 -0.06 0 -0.06 0 -0.06 0 -0.06 0 -0.06 0 -0.06 0 -0.06 0 -0.06 0 -0.01 -0.01 -0.01 -0.02 -0.02 -0.01 -0.01 -0.02 -0.01 -0.01 -0.01 -0.02 -0.01 -0.01 -0.01 -0.01 -0.01 -0.01 -0.01 -0.01 -0.01 -0.02 -0.01 -0.01 -0.01 -0.01 -0.01 -0.02 -0.01 -0.01 -0.01 -0.01 -0.01 -0.01 -0.01 -0.01 -0.01 -0.02 -0.02 -0.01 -0.01 -0 -0.01 -0.01 -0.01 -0.01 -0.01 -0.01 -0.01 -0.01 -0.02 -0.01 -0.01 -0.01 -0.02 -0.01 0 0 -0.01 -0.01 -0.01 -0.01 -0.01 -0.01 -0.02 -0.01 -0.01 -0.01 -0.01 -0.01 -0.01 -0.01 -0.01 -0.01 -0.01 -0.01 -0.02 -0.01 -0.01 -0.01 -0.02 -0.01 -0.01 -0.01 -0.02 -0.01 0 -0 -0.01 -0.01 -0.02 -0.01 -0.01 -0.01 -0.02 -0.01 -0.01 -0.01 -0.02 -0.01 -0.01 0 -0.01 -0.01 -0.02 -0.01 -0.02 -0.01 -0.02 -0.01 -0.01 -0.01 -0.02 -0.01 -0.01 -0.01 -0 0 -0.01 -0.01 -0.02 -0.01 -0.02 -0.01 -0.01 -0.01 -0.02 -0.01 -0.02 -0.01 -0.01 -0.01 -0.01 -0 -0.02 -0.01 -0.02 -0.01 -0.01 -0 -0.02 -0.01 -0.01 -0.01 0 0c-0.94,-0.17 -1.87,-0.01 -2.77,0.4l-0.05 0.03 -0.05 0.03 -0.01 0 -0.05 0.03 -0.05 0.03 -0.01 0 -0.05 0.03 -0.05 0.03 -0.02 0.02 -0.04 0.02 -0.05 0.03 -0.03 0.02 -0.02 0.02 -0.05 0.03 -0.04 0.02 -0.01 0.01 -0.05 0.03 -0.05 0.04 0 0 -0.05 0.04 -0.05 0.03 -0.01 0.01 -0.04 0.03 -0.05 0.04 -0.02 0.02 -0.03 0.02 -0.05 0.04 -0.03 0.03 -0.02 0.02 -0.05 0.04 -0.04 0.03 -0.01 0.01 -0.05 0.04 -0.05 0.04 -0 0 -0.05 0.04 -0.05 0.04 -0.02 0.01 -0.04 0.03 -0.05 0.04 -0.03 0.02 -0.02 0.02 -0.05 0.04 -0.04 0.03 -0.01 0.01 -0.05 0.05 -0.05 0.04 -0 0 -0.05 0.04 -0.05 0.05 -0.01 0.01 -0.04 0.04 -0.05 0.05 -0.02 0.02 -0.03 0.03 -0.05 0.05 -0.03 0.03 -0.02 0.02 -0.05 0.05 -0.04 0.04 -0.01 0.01 -0.05 0.05 -0.05 0.05 0 0 -0.05 0.05 -0.05 0.05 -0.01 0.01 -0.04 0.04 -0.04 0.05 -0.02 0.03 -0.02 0.02 -0.04 0.05 -0.03 0.04 -0.02 0.01 -0.04 0.05 -0.04 0.05 -0 0 -0.04 0.05 -0.04 0.05 -0.01 0 -0.04 0.05 -0.04 0.05 -0.02 0.02 -0.03 0.03 -0.04 0.05 -0.02 0.03 -0.02 0.02 -0.04 0.06 -0.03 0.04 -0.01 0.02 -0.04 0.05 -0.04 0.05c-0.56,0.81 -1.11,1.21 -1.48,1.62 -0.56,0.81 -1.11,1.21 -1.67,1.62 0,0.81 0.01,1.21 0.01,1.61 -0.56,0.81 -1.11,1.21 -1.48,2.02 -4.64,2.84 -9.09,5.28 -13.54,8.13 -0.93,0.01 -1.67,0.02 -2.42,0.02 -0.17,4.82 -0.15,9.23 0.05,13.65 -1.66,4.43 -3.32,9.26 -4.79,13.68 -3.13,9.65 -7.95,14.11 -15.57,14.16 -1.67,0.01 -3.53,0.03 -5.02,0.44 -4.1,-1.17 -8.38,-2.75 -12.47,-3.92 -0.55,1.21 -1.1,2.82 -1.47,4.02 -0.56,0.81 -1.11,1.61 -1.66,2.02 -1.3,0.81 -2.41,1.22 -3.34,1.63 -7.62,0.06 -15.06,0.52 -22.5,0.57 -2.05,-0.38 -4.09,-0.77 -5.96,-1.56 -5.77,-0.76 -11.72,-1.92 -17.49,-2.68 -2.23,-0.38 -4.46,-0.37 -6.51,-0.35 -4.28,-0.77 -8.37,-1.94 -12.65,-2.72 -4.47,-2.37 -8.94,-4.74 -13.42,-7.93 -5.95,-1.16 -7.63,-2.75 -9.49,-2.74l-0.27 0.81 0.02 0 0.09 0 0.09 0 0.09 0c-0.55,1.61 -1.11,3.21 -1.47,5.22l0 0 0 0.09 0 0.02 0 0.08c0.02,1.81 0.05,3.42 0.2,5.03l-0.41 0.92 0 0 -0 0c-0.95,2.51 -0.62,4.98 -1.77,7.13 -2.95,7.65 -4.79,12.48 -4.78,14.08 0.2,4.73 3.08,7.5 11.86,11.34l0.01 0 0.03 0.02 0.39 0.17c8.19,2.75 16.38,5.9 24.58,8.65 1.49,-0.01 3.16,-0.03 4.83,-0.04 1.31,0.79 2.61,1.19 4.28,1.57 1.49,-0.01 3.16,-0.02 4.83,-0.03 2.05,0.38 4.47,0.77 6.7,1.15 1.86,-0.01 3.72,-0.02 5.76,-0.04 5.01,-1.65 10.04,-0.47 11.72,1.12 1.12,1.19 2.24,2.39 3.36,3.59 2.61,1.98 5.96,3.57 7.64,3.56 1.11,-0.41 2.42,-0.42 3.53,-0.43l-0 0 0.75 -0.01c-3.73,1.78 -5.34,2.01 -5.68,3.12l0 0 -0.02 0.06 0 0 -0.01 0.06 -0 0 -0.01 0.06 -0 0 -0.01 0.06 0 0 -0.01 0.07 -0.01 0.07 -0 0.07 -0 0.07c0.01,1.2 0.01,2.41 0.02,4.01 0.56,1.06 0.77,2.17 0.73,3.24 0.1,2.63 -1.04,4.84 -2.38,6 -0.55,1.21 -1.11,1.61 -1.48,2.02 -0.74,2.01 -1.29,3.62 -1.84,5.23 0.56,1.2 1.12,2.4 1.87,3.2 3.54,3.59 7.09,6.37 11,9.15 1.12,1.6 2.24,2.79 3.36,3.59 0.56,1.2 1.12,2.4 1.69,3.6 0,0.8 0.01,1.2 0.01,1.61 0.56,-0.01 1.11,-0.01 1.67,-0.02 0.56,0.8 1.12,1.19 1.68,1.59 0.56,1.6 1.13,2.8 1.69,3.6 1.68,2 1.69,3.6 3.37,5.59 1.87,1.19 3.91,1.58 5.96,1.96 0.37,-0.4 0.93,-0.81 1.48,-2.01 1.12,-0.01 2.23,-0.02 3.35,-0.03 -0.19,-1.2 -0.2,-2.4 -0.2,-4.01 0.74,-1.21 1.29,-2.42 1.85,-3.63 -0,-0.4 -0,-0.8 -0.01,-2 -0.56,-0.8 -1.12,-2 -1.69,-3.2 0,-0.4 0,-0.8 -0.01,-1.61 -0.56,-0.4 -1.12,-1.19 -1.68,-1.99 -0.75,-2.4 -1.32,-5.21 -1.89,-8.01 0.56,-0.81 1.11,-2.01 1.66,-3.22 0.37,-1.61 0.92,-3.62 1.66,-5.23 0.37,-1.21 0.92,-2.41 1.47,-3.62 -0.2,-4.41 -0.22,-8.43 -0.23,-12.84 1.49,0.79 3.35,0.78 5.02,1.17 0.56,0.8 1.12,1.2 1.68,1.59 0.74,-0.01 1.67,-0.02 2.6,-0.02 0.93,0.8 2.05,1.19 3.17,1.58 9.11,-0.46 18.22,-0.54 27.7,-1 7.44,-0.05 7.43,-3.26 -0.04,-10.43 -1.12,-0.39 -2.42,-0.78 -3.54,-1.58 -0.56,0.01 -1.12,0.01 -1.67,0.01 -0.56,-0.8 -1.12,-1.2 -1.68,-1.99 0.92,-2.01 2.03,-3.23 3.33,-4.44 5.21,-0.04 10.6,-0.08 15.8,-0.52 0.57,3.61 1.14,6.82 1.71,9.62 0,0.81 0.01,1.61 0.01,2.01 0.56,0.8 1.12,1.6 1.68,1.99 0,0.81 0.01,1.2 0.01,1.6 0.56,0.8 1.12,1.2 1.68,1.6 0.56,-0.01 1.11,-0.01 1.67,-0.02 0.56,0.8 1.12,1.19 1.68,1.59 3.72,-0.03 7.25,-0.45 10.78,-0.48 1.86,-0.01 5.01,-1.64 6.68,-4.87 0.37,-0.4 0.93,-1.21 1.67,-2.02 1.49,-0.41 2.78,-1.22 4.45,-2.44 1.49,-0.41 3.16,-0.83 5.01,-1.64 2.6,-0.42 5.39,-0.85 8.36,-1.67 2.97,-0.42 5.95,-0.45 9.11,-0.47 0.37,-0.81 0.93,-1.61 1.48,-2.42 2.97,-0.02 5.95,-0.04 9.11,-0.46 1.49,-0.41 3.16,-0.83 4.83,-2.04 0.56,-0.41 1.11,-1.22 1.85,-2.02 -0,-0.8 -0.01,-2.01 -0.01,-3.21 0.37,-0.4 0.93,-0.81 1.48,-1.62 -0,-0.4 -0,-0.8 -0.01,-1.61 1.11,-0.01 2.23,-0.02 3.35,-0.02 0.93,0.8 2.23,1.19 3.35,1.58 1.3,-0.41 2.6,-0.42 4.09,-0.43 0.56,-0.41 1.11,-0.81 1.67,-1.62 2.23,-1.62 4.45,-2.84 6.68,-4.07 0.93,-0.01 2.05,-0.02 3.35,-0.03 0.56,-0.81 1.11,-1.21 1.67,-2.01 0.37,-1.21 0.92,-2.42 1.47,-4.03 1.85,-1.62 3.89,-3.64 5.74,-5.66 2.04,-1.62 4.64,-3.24 6.86,-5.67 0.93,-0.81 2.04,-2.43 3.34,-3.64 1.3,-0.41 2.6,-0.82 4.08,-1.64 2.78,-2.43 5.38,-4.86 8.34,-8.49 4.82,-5.25 6.66,-10.49 6.46,-14.9 1.66,-5.23 -1.7,-8.82 -6.73,-8.78 -4.46,0.44 -8.55,0.47 -12.64,0.5 -1.12,-0.79 -2.24,-2.39 -3.36,-3.59 -0.19,-2.01 -0.2,-4.01 -0.21,-6.02 -0.56,-0.39 -1.12,-1.2 -1.49,-1.99 -1.67,-0.39 -3.35,-1.58 -5.22,-2.77 -0.56,-0.4 -1.12,-0.79 -1.68,-1.59 1.12,-0.01 2.42,-0.02 3.53,-0.03 1.49,-0.41 3.34,-1.63 5.01,-2.44 0.93,-0.81 2.04,-2.43 3.15,-3.64 0,0.8 0.01,1.2 0.01,1.61 1.3,-0.01 2.79,-0.03 4.28,-0.03 0.56,1.2 1.12,1.6 1.68,1.99 -0.56,0.81 -1.11,1.62 -1.67,2.02 -0.17,3.62 -0.16,7.63 0.04,11.24 1.12,-0.01 2.23,-0.02 3.35,-0.03 0.56,0.8 1.12,1.2 1.68,1.6 1.12,-0.01 2.23,-0.42 3.53,-0.43 0.56,0.8 1.12,1.19 1.68,1.59 2.97,-0.03 6.14,-0.05 9.11,-0.07 0.56,-0.41 1.11,-0.81 1.67,-1.62 -0.19,-0.8 -0.19,-2.01 -0.2,-3.21 0.56,-1.21 1.29,-2.82 1.84,-5.23 -0,-0.41 -0.01,-0.81 -0.01,-1.61 -1.12,-0.39 -2.24,-1.59 -3.36,-2.78 -0.93,0.01 -1.86,0.02 -2.6,0.02 -0,-0.4 -0.01,-1.2 0.18,-2.01 1.3,-0.82 2.59,-2.43 3.89,-3.64 0.55,-1.21 1.11,-2.42 1.66,-3.62 1.67,-1.22 3.15,-2.84 4.82,-4.86 1.11,-0.81 2.41,-2.03 3.52,-3.24 0.36,-1.61 0.92,-3.22 1.47,-5.63 1.3,-0.81 2.78,-2.03 4.26,-3.65 -0,-0.4 -0.01,-0.81 -0.01,-1.61 2.6,-0.02 5.58,-0.04 8.37,-0.06 2.97,-0.42 6.13,-0.85 9.29,-2.08 0.56,-0.81 1.11,-1.61 1.66,-3.23 0.37,-0 1.11,-0.01 1.67,-0.01 0.56,-0.41 1.11,-0.82 1.67,-1.62 0.37,-1.61 0.92,-3.22 1.47,-4.83 1.67,-2.02 3.34,-3.64 5,-5.66 -0.2,-2.81 -0.02,-6.42 -0.04,-9.64 -0.56,-0.4 -1.12,-0.8 -1.68,-1.6 -0.56,-1.6 -1.13,-3.61 -1.69,-5.61 0.56,-0 1.12,-0.01 1.67,-0.02 0.56,1.2 1.13,2.81 1.69,4 0.56,0.8 1.12,0.8 1.68,1.19 0.93,0.8 2.05,1.19 3.16,1.59 3.72,-0.03 7.25,-0.06 10.97,-0.09 1.48,-2.02 3.15,-3.64 4.82,-6.06 0.01,2.41 0.01,4.01 0.2,5.62 0.38,0.8 0.93,1.2 1.49,1.6 0.01,1.6 0.02,3.61 0.2,4.82 0.75,0.8 1.49,1.2 2.42,1.59 1.11,-0.01 2.23,-0.02 3.53,-0.03 0.93,-0.41 2.04,-0.82 3.15,-1.63 0.93,-0.01 2.05,-0.42 3.16,-0.43 -0.01,-1.2 0.17,-3.21 0.17,-4.82 0.93,-0.41 2.04,-0.82 3.16,-1.63 1.3,-0.01 2.6,-0.02 4.27,-0.04 0.56,-0.81 1.11,-2.02 1.66,-3.22 -0.19,-2.41 -0.2,-4.82 -0.21,-7.23 -0.56,0 -1.12,0.01 -1.67,0.01 -5.23,-5.58 -10.45,-10.76 -15.86,-16.34 -0.19,-0.8 -0.19,-2.01 -0.01,-3.21 -3.36,-3.18 -6.35,-6.38 -9.33,-9.56 -1.69,-5.61 -5.05,-8.4 -8.22,-10.78 -1.68,-2.4 -7.62,0.06 -12.63,2.91zm-107.37 136.12c0,0 0,0 0,0 -1.12,-2.4 -2.25,-5.2 -3.38,-8 -0.2,-5.21 -0.22,-10.83 -0.24,-16.86 3.16,-0.42 6.69,-1.25 10.03,-2.08 2.98,0.78 6.14,1.16 9.12,1.54 0.01,2.01 0.01,3.61 0.02,4.82 -0.55,2.82 -1.09,6.03 -1.45,8.84 -1.11,2.42 -2.22,4.43 -3.14,6.85 -1.11,0.81 -1.85,1.62 -2.6,2.02 0,0.8 0.01,1.6 0.01,2.41 -1.11,1.21 -2.22,2.43 -3.15,3.23 -0.18,1.61 -0.18,2.81 -0.17,4.02 1.69,4.8 1.9,12.83 -3.09,18.89 -0.55,1.21 -1.11,2.42 -1.48,3.22 -0.56,0.81 -1.11,1.21 -1.67,1.62 -0.01,-1.6 -0.01,-3.21 -0.02,-4.82 0.37,-1.61 0.92,-3.62 1.47,-5.63 3.33,-6.05 4.8,-10.07 3.11,-14.88 -1.12,-2 -2.24,-3.6 -3.37,-5.2z"/>
 </g>
</svg>
