<svg xmlns="http://www.w3.org/2000/svg" viewBox="0 0 800 1400">
  <path d="M 249.76,418.07 L 249.72,418.12 L 249.66,418.18 L 249.62,418.21 L 249.58,418.25 L 249.54,418.27 L 249.48,418.30 L 249.43,418.31 L 249.37,418.31 L 249.32,418.30 L 249.26,418.30 L 249.20,418.30 L 249.19,418.30 L 249.12,418.25 L 249.08,418.24 L 249.05,418.24 L 249.04,418.26 L 249.02,418.30 L 249.00,418.31 L 248.97,418.31 L 248.90,418.32 L 248.85,418.31 L 248.81,418.31 L 248.80,418.32 L 248.79,418.33 L 248.78,418.37 L 248.78,418.44 L 248.76,418.47 L 248.75,418.48 L 248.73,418.48 L 248.69,418.46 L 248.65,418.44 L 248.59,418.42 L 248.56,418.42 L 248.50,418.45 L 248.44,418.49 L 248.39,418.48 L 248.35,418.45 L 248.33,418.44 L 248.32,418.43 L 248.29,418.39 L 248.26,418.32 L 248.24,418.28 L 248.23,418.27 L 248.23,418.26 L 248.22,418.23 L 248.20,418.17 L 248.17,418.14 L 248.16,418.12 L 248.14,418.10 L 248.11,418.09 L 248.08,418.08 L 248.05,418.08 L 248.02,418.08 L 247.98,418.08 L 247.96,418.07 L 247.93,418.06 L 247.89,418.04 L 247.82,418.00 L 247.73,417.93 L 247.61,417.86 L 247.52,417.79 L 247.50,417.77 L 247.47,417.75 L 247.45,417.72 L 247.39,417.65 L 247.34,417.59 L 247.31,417.57 L 247.24,417.48 L 247.18,417.42 L 247.16,417.40 L 247.12,417.35 L 247.07,417.29 L 247.05,417.26 L 247.02,417.22 L 246.98,417.15 L 246.95,417.09 L 246.93,417.05 L 246.90,416.98 L 246.86,416.91 L 246.82,416.86 L 246.81,416.83 L 246.77,416.77 L 246.74,416.73 L 246.72,416.70 L 246.70,416.68 L 246.69,416.64 L 246.68,416.56 L 246.65,416.44 L 246.63,416.32 L 246.63,416.26 L 246.62,416.24 L 246.59,416.26 L 246.52,416.28 L 246.48,416.30 L 246.45,416.30 L 246.40,416.30 L 246.39,416.30 L 246.38,416.31 L 246.38,416.31 L 246.37,416.33 L 246.36,416.35 L 246.36,416.37 L 246.36,416.39 L 246.37,416.44 L 246.38,416.48 L 246.38,416.51 L 246.39,416.53 L 246.39,416.56 L 246.40,416.59 L 246.42,416.62 L 246.42,416.63 L 246.43,416.64 L 246.42,416.65 L 246.42,416.66 L 246.39,416.71 L 246.36,416.74 L 246.35,416.76 L 246.33,416.80 L 246.29,416.87 L 246.26,416.95 L 246.21,417.04 L 246.18,417.11 L 246.15,417.15 L 246.13,417.18 L 246.11,417.22 L 246.10,417.28 L 246.09,417.30 L 246.09,417.31 L 246.08,417.32 L 246.04,417.34 L 245.97,417.36 L 245.90,417.37 L 245.86,417.38 L 245.85,417.38 L 245.70,417.39 L 245.63,417.41 L 245.60,417.39 L 245.58,417.36 L 245.58,417.34 L 245.58,417.31 L 245.58,417.28 L 245.57,417.25 L 245.56,417.19 L 245.58,417.13 L 245.58,417.09 L 245.58,417.05 L 245.56,417.01 L 245.54,416.99 L 245.52,416.98 L 245.50,416.98 L 245.43,417.00 L 245.31,417.04 L 245.21,417.07 L 245.15,417.08 L 245.06,417.10 L 245.00,417.12 L 244.94,417.12 L 244.93,417.12 L 244.91,417.12 L 244.87,417.09 L 244.86,417.08 L 244.85,417.05 L 244.84,417.03 L 244.81,417.02 L 244.80,417.02 L 244.73,417.01 L 244.65,417.00 L 244.58,417.01 L 244.53,417.02 L 244.52,417.03 L 244.50,417.05 L 244.48,417.09 L 244.44,417.12 L 244.41,417.15 L 244.38,417.17 L 244.33,417.18 L 244.30,417.20 L 244.33,417.27 L 244.34,417.30 L 244.36,417.37 L 244.37,417.41 L 244.38,417.47 L 244.39,417.57 L 244.40,417.65 L 244.41,417.71 L 244.43,417.75 L 244.48,417.86 L 244.50,417.94 L 244.51,418.01 L 244.52,418.06 L 244.54,418.15 L 244.57,418.28 L 244.58,418.33 L 244.60,418.41 L 244.63,418.52 L 244.74,418.55 L 244.75,418.58 L 244.74,418.74 L 244.62,418.74 L 244.57,418.74 L 244.50,418.74 L 244.41,418.73 L 244.39,418.74 L 244.38,418.75 L 244.38,418.77 L 244.38,418.78 L 244.38,418.81 L 244.41,418.91 L 244.41,418.94 L 244.42,418.96 L 244.41,418.98 L 244.40,419.01 L 244.36,419.08 L 244.35,419.11 L 244.35,419.14 L 244.35,419.16 L 244.37,419.21 L 244.41,419.27 L 244.45,419.31 L 244.48,419.34 L 244.49,419.35 L 244.51,419.39 L 244.54,419.48 L 244.56,419.54 L 244.56,419.55 L 244.53,419.57 L 244.46,419.57 L 244.41,419.59 L 244.40,419.61 L 244.41,419.66 L 244.42,419.73 L 244.43,419.79 L 244.45,419.82 L 244.49,419.86 L 244.51,419.89 L 244.51,419.94 L 244.51,419.97 L 244.49,419.99 L 244.48,420.03 L 244.48,420.06 L 244.48,420.10 L 244.48,420.14 L 244.48,420.18 L 244.49,420.23 L 244.52,420.26 L 244.57,420.28 L 244.63,420.33 L 244.63,420.39 L 244.63,420.45 L 244.63,420.49 L 244.64,420.52 L 244.64,420.53 L 244.67,420.56 L 244.69,420.60 L 244.71,420.65 L 244.74,420.69 L 244.76,420.75 L 244.77,420.77 L 244.78,420.82 L 244.79,420.83 L 244.78,420.86 L 244.78,420.89 L 244.71,421.03 L 244.67,421.11 L 244.62,421.23 L 244.61,421.26 L 244.61,421.32 L 244.60,421.36 L 244.61,421.41 L 244.61,421.47 L 244.61,421.53 L 244.33,421.56 L 244.03,421.58 L 244.01,421.57 L 243.96,421.41 L 243.95,421.33 L 243.94,421.27 L 243.94,421.25 L 243.96,421.21 L 243.96,421.14 L 243.97,421.09 L 243.98,421.06 L 243.99,421.04 L 243.99,421.02 L 243.98,420.96 L 243.98,420.90 L 243.99,420.82 L 244.00,420.75 L 243.99,420.64 L 243.98,420.61 L 243.86,420.54 L 243.77,420.50 L 243.63,420.50 L 243.53,420.51 L 243.44,420.50 L 243.42,420.49 L 243.39,420.47 L 243.24,420.46 L 243.17,420.42 L 243.12,420.40 L 243.12,420.39 L 243.11,420.24 L 243.11,420.15 L 243.12,420.02 L 243.14,419.91 L 243.19,419.78 L 243.21,419.68 L 243.22,419.65 L 243.22,419.64 L 243.21,419.63 L 243.20,419.61 L 243.11,419.60 L 243.04,419.58 L 243.01,419.57 L 242.99,419.55 L 242.99,419.50 L 242.99,419.46 L 242.98,419.44 L 242.86,419.44 L 242.85,419.43 L 242.72,419.32 L 242.62,419.22 L 242.50,419.10 L 242.47,419.07 L 242.18,419.07 L 242.09,419.06 L 242.02,419.03 L 241.97,418.98 L 241.92,418.92 L 241.81,418.85 L 241.75,418.82 L 241.73,418.83 L 241.62,418.91 L 241.55,418.94 L 241.47,418.96 L 241.45,418.96 L 241.35,418.90 L 241.28,418.85 L 241.25,418.84 L 241.13,418.83 L 241.02,418.83 L 240.95,418.84 L 240.87,418.87 L 240.80,418.90 L 240.76,418.91 L 240.73,418.91 L 240.66,418.91 L 240.62,418.91 L 240.57,418.92 L 240.57,418.99 L 240.55,419.07 L 240.54,419.12 L 240.54,419.15 L 240.54,419.18 L 240.60,419.25 L 240.69,419.36 L 240.71,419.38 L 240.74,419.40 L 240.76,419.41 L 240.79,419.41 L 240.83,419.39 L 240.89,419.34 L 240.91,419.32 L 240.92,419.32 L 240.93,419.32 L 240.94,419.33 L 240.98,419.39 L 240.99,419.41 L 241.00,419.41 L 241.01,419.41 L 241.03,419.41 L 241.05,419.39 L 241.06,419.38 L 241.07,419.38 L 241.08,419.38 L 241.09,419.39 L 241.12,419.46 L 241.13,419.50 L 241.16,419.57 L 241.18,419.63 L 241.21,419.68 L 241.22,419.70 L 241.23,419.70 L 241.24,419.70 L 241.28,419.69 L 241.29,419.69 L 241.30,419.69 L 241.31,419.70 L 241.31,419.72 L 241.31,419.75 L 241.30,419.77 L 241.29,419.78 L 241.28,419.79 L 241.24,419.79 L 241.22,419.80 L 241.21,419.81 L 241.19,419.82 L 241.18,419.91 L 241.17,419.94 L 241.16,419.96 L 241.15,419.97 L 241.12,419.97 L 241.07,419.94 L 241.03,419.92 L 241.00,419.92 L 240.97,419.92 L 240.96,419.93 L 240.94,419.95 L 240.94,419.98 L 240.95,420.01 L 240.97,420.04 L 240.99,420.06 L 241.03,420.08 L 241.10,420.11 L 241.12,420.12 L 241.15,420.15 L 241.16,420.17 L 241.19,420.19 L 241.21,420.20 L 241.21,420.21 L 241.21,420.22 L 241.20,420.24 L 241.16,420.25 L 241.12,420.26 L 241.07,420.25 L 241.07,420.25 L 241.06,420.26 L 241.06,420.26 L 241.05,420.27 L 241.05,420.28 L 241.06,420.29 L 241.08,420.30 L 241.10,420.31 L 241.10,420.32 L 241.10,420.34 L 241.11,420.39 L 241.11,420.40 L 241.12,420.41 L 241.13,420.42 L 241.17,420.42 L 241.18,420.43 L 241.19,420.45 L 241.21,420.47 L 241.22,420.49 L 241.23,420.50 L 241.28,420.51 L 241.32,420.51 L 241.34,420.51 L 241.35,420.52 L 241.37,420.53 L 241.38,420.55 L 241.39,420.57 L 241.40,420.62 L 241.40,420.65 L 241.40,420.67 L 241.41,420.70 L 241.44,420.72 L 241.50,420.77 L 241.59,420.82 L 241.61,420.83 L 241.63,420.84 L 241.63,420.85 L 241.63,420.86 L 241.63,420.86 L 241.62,420.89 L 241.60,420.92 L 241.60,420.93 L 241.60,420.95 L 241.62,420.98 L 241.62,421.00 L 241.62,421.09 L 241.63,421.11 L 241.68,421.15 L 241.70,421.17 L 241.70,421.17 L 241.71,421.20 L 241.76,421.28 L 241.78,421.33 L 241.80,421.36 L 241.86,421.43 L 241.91,421.49 L 241.94,421.53 L 241.96,421.55 L 241.98,421.56 L 241.99,421.56 L 242.01,421.56 L 242.03,421.54 L 242.04,421.54 L 242.06,421.55 L 242.07,421.56 L 242.08,421.58 L 242.09,421.61 L 242.09,421.64 L 242.09,421.67 L 242.07,421.70 L 242.05,421.75 L 242.01,421.79 L 241.99,421.82 L 241.94,421.90 L 241.93,421.91 L 241.94,421.94 L 241.94,421.95 L 241.96,421.96 L 241.98,421.96 L 242.00,421.96 L 242.02,421.97 L 242.03,421.97 L 242.04,421.99 L 242.06,422.03 L 242.07,422.04 L 242.09,422.05 L 242.13,422.06 L 242.14,422.06 L 242.16,422.07 L 242.17,422.10 L 242.19,422.13 L 242.19,422.17 L 242.20,422.23 L 242.21,422.29 L 242.23,422.33 L 242.24,422.35 L 242.25,422.36 L 242.27,422.38 L 242.30,422.40 L 242.32,422.41 L 242.34,422.41 L 242.37,422.41 L 242.38,422.41 L 242.39,422.41 L 242.40,422.43 L 242.42,422.45 L 242.43,422.52 L 242.44,422.57 L 242.46,422.64 L 242.47,422.67 L 242.49,422.70 L 242.50,422.70 L 242.55,422.76 L 242.57,422.78 L 242.61,422.80 L 242.63,422.82 L 242.67,422.87 L 242.70,422.90 L 242.72,422.96 L 242.74,423.00 L 242.75,423.03 L 242.76,423.05 L 242.78,423.07 L 242.81,423.08 L 242.85,423.10 L 242.87,423.11 L 242.89,423.12 L 242.93,423.18 L 242.95,423.19 L 242.97,423.20 L 243.00,423.22 L 243.05,423.23 L 243.07,423.23 L 243.05,423.29 L 243.04,423.31 L 243.04,423.34 L 243.03,423.39 L 243.02,423.42 L 243.01,423.43 L 242.99,423.43 L 242.97,423.44 L 242.95,423.44 L 242.95,423.45 L 242.94,423.47 L 242.94,423.53 L 242.94,423.59 L 242.90,423.64 L 242.85,423.68 L 242.84,423.69 L 242.83,423.71 L 242.82,423.73 L 242.81,423.76 L 242.80,423.79 L 242.79,423.81 L 242.69,423.86 L 242.52,423.93 L 242.45,423.96 L 242.43,423.96 L 242.38,423.98 L 242.29,424.01 L 242.16,424.05 L 242.09,424.09 L 242.06,424.10 L 241.94,424.13 L 241.71,424.22 L 241.58,424.28 L 241.50,424.31 L 241.48,424.32 L 241.45,424.33 L 241.44,424.34 L 241.42,424.37 L 241.38,424.44 L 241.28,424.60 L 241.22,424.70 L 241.20,424.74 L 241.19,424.77 L 241.17,424.83 L 241.16,424.85 L 241.15,424.87 L 241.13,424.89 L 241.09,424.91 L 241.01,424.95 L 240.98,424.96 L 240.98,424.96 L 240.94,424.98 L 240.91,425.01 L 240.87,425.05 L 240.80,425.14 L 240.73,425.22 L 240.71,425.24 L 240.68,425.25 L 240.65,425.26 L 240.61,425.27 L 240.48,425.27 L 240.12,425.23 L 240.05,425.21 L 240.01,425.19 L 239.98,425.13 L 239.94,425.08 L 239.90,425.05 L 239.87,425.04 L 239.83,425.04 L 239.79,425.04 L 239.76,425.04 L 239.72,425.02 L 239.64,424.95 L 239.56,424.86 L 239.50,424.80 L 239.47,424.75 L 239.45,424.71 L 239.42,424.61 L 239.41,424.58 L 239.31,424.51 L 239.29,424.48 L 239.21,424.40 L 239.15,424.34 L 239.02,424.25 L 238.94,424.20 L 238.88,424.13 L 238.85,424.11 L 238.76,424.07 L 238.71,424.04 L 238.62,423.97 L 238.53,423.86 L 238.48,423.77 L 238.43,423.67 L 238.40,423.64 L 238.28,423.57 L 238.24,423.53 L 238.22,423.52 L 238.22,423.51 L 238.25,423.46 L 238.25,423.45 L 238.25,423.43 L 238.24,423.42 L 238.19,423.38 L 238.17,423.34 L 238.14,423.27 L 238.13,423.27 L 238.02,423.26 L 237.99,423.25 L 237.95,423.22 L 237.89,423.16 L 237.83,423.06 L 237.78,423.01 L 237.74,422.97 L 237.67,422.93 L 237.66,422.93 L 237.35,422.78 L 237.24,422.69 L 237.20,422.65 L 237.18,422.64 L 237.17,422.63 L 237.14,422.64 L 237.12,422.66 L 237.07,422.71 L 237.05,422.73 L 237.02,422.73 L 236.97,422.71 L 236.76,422.62 L 236.70,422.58 L 236.67,422.52 L 236.63,422.50 L 236.48,422.38 L 236.43,422.33 L 236.39,422.29 L 236.31,422.21 L 236.26,422.17 L 236.18,422.11 L 236.14,422.07 L 236.12,422.04 L 236.09,421.96 L 236.08,421.94 L 236.04,421.91 L 235.98,421.89 L 235.81,421.82 L 235.74,421.76 L 235.68,421.72 L 235.66,421.72 L 235.63,421.72 L 235.58,421.73 L 235.55,421.72 L 235.33,421.66 L 235.24,421.62 L 234.95,421.51 L 234.85,421.45 L 234.70,421.38 L 234.66,421.38 L 234.64,421.38 L 234.62,421.40 L 234.58,421.44 L 234.44,421.65 L 234.39,421.72 L 234.29,421.81 L 234.15,421.95 L 234.09,421.99 L 234.05,422.01 L 234.02,422.01 L 233.98,422.01 L 233.88,422.00 L 233.82,422.02 L 233.68,422.08 L 233.63,422.09 L 233.59,422.08 L 233.53,422.07 L 233.46,422.05 L 233.38,422.06 L 233.28,422.06 L 233.25,422.04 L 233.18,421.96 L 233.14,421.93 L 233.10,421.92 L 233.00,421.92 L 232.96,421.92 L 232.88,421.90 L 232.78,421.87 L 232.72,421.84 L 232.66,421.82 L 232.43,421.74 L 232.49,421.84 L 232.53,421.96 L 232.55,422.17 L 232.59,422.38 L 232.64,422.47 L 232.72,422.56 L 232.74,422.60 L 232.81,422.67 L 232.91,422.76 L 232.89,422.90 L 232.85,423.28 L 232.83,423.48 L 232.84,423.51 L 232.87,423.55 L 232.96,423.64 L 233.00,423.69 L 233.04,423.78 L 233.04,423.79 L 233.09,423.87 L 233.13,423.90 L 233.16,423.91 L 233.19,423.90 L 233.20,423.89 L 233.25,423.87 L 233.29,423.83 L 233.31,423.82 L 233.32,423.82 L 233.34,423.82 L 233.37,423.83 L 233.39,423.84 L 233.42,423.87 L 233.47,423.92 L 233.51,423.94 L 233.52,423.95 L 233.55,423.94 L 233.57,423.94 L 233.60,423.95 L 233.62,423.97 L 233.72,424.06 L 233.74,424.10 L 233.75,424.12 L 233.75,424.14 L 233.74,424.17 L 233.74,424.19 L 233.68,424.30 L 233.66,424.36 L 233.63,424.45 L 233.62,424.49 L 233.62,424.52 L 233.64,424.55 L 233.68,424.59 L 233.72,424.62 L 233.76,424.63 L 233.80,424.64 L 233.81,424.64 L 233.87,424.61 L 233.94,424.56 L 234.00,424.54 L 234.03,424.53 L 234.07,424.53 L 234.11,424.54 L 234.14,424.55 L 234.17,424.57 L 234.20,424.58 L 234.30,424.66 L 234.45,424.78 L 234.55,424.87 L 234.58,424.88 L 234.59,424.88 L 234.62,424.88 L 234.70,424.87 L 234.83,424.86 L 234.91,424.88 L 234.97,424.88 L 235.02,424.87 L 235.09,424.84 L 235.28,424.78 L 235.30,424.78 L 235.32,424.77 L 235.35,424.75 L 235.37,424.74 L 235.39,424.74 L 235.42,424.74 L 235.46,424.75 L 235.49,424.76 L 235.52,424.77 L 235.63,424.82 L 235.69,424.86 L 235.72,424.89 L 235.74,424.91 L 235.77,424.96 L 235.80,424.99 L 235.83,425.02 L 235.86,425.05 L 235.89,425.06 L 235.90,425.07 L 235.94,425.11 L 236.00,425.23 L 236.08,425.35 L 236.13,425.44 L 236.18,425.50 L 236.20,425.55 L 236.21,425.59 L 236.22,425.64 L 236.25,425.68 L 236.28,425.71 L 236.33,425.75 L 236.35,425.76 L 236.36,425.78 L 236.37,425.80 L 236.37,425.86 L 236.35,425.97 L 236.34,426.01 L 236.34,426.05 L 236.34,426.08 L 236.34,426.10 L 236.36,426.12 L 236.41,426.18 L 236.49,426.28 L 236.57,426.36 L 236.68,426.45 L 236.78,426.54 L 236.83,426.62 L 236.88,426.66 L 236.91,426.68 L 236.93,426.69 L 236.98,426.69 L 237.05,426.68 L 237.09,426.68 L 237.12,426.69 L 237.15,426.70 L 237.16,426.71 L 237.18,426.73 L 237.25,426.79 L 237.32,426.84 L 237.38,426.86 L 237.45,426.87 L 237.48,426.87 L 237.65,426.90 L 237.74,426.95 L 237.76,426.94 L 237.77,426.94 L 237.83,426.91 L 237.85,426.91 L 237.87,426.92 L 237.90,426.95 L 237.94,426.96 L 237.95,426.96 L 238.00,426.93 L 238.04,426.93 L 238.06,426.93 L 238.07,426.93 L 238.07,426.93 L 238.09,426.95 L 238.12,426.98 L 238.18,427.02 L 238.23,427.03 L 238.26,427.04 L 238.30,427.05 L 238.38,427.09 L 238.46,427.12 L 238.50,427.14 L 238.57,427.18 L 238.61,427.22 L 238.61,427.23 L 238.61,427.27 L 238.62,427.28 L 238.63,427.30 L 238.66,427.32 L 238.69,427.34 L 238.70,427.36 L 238.71,427.37 L 238.75,427.42 L 238.80,427.46 L 238.89,427.52 L 238.94,427.56 L 239.01,427.66 L 239.12,427.76 L 239.26,427.88 L 239.46,428.08 L 239.56,428.19 L 239.59,428.22 L 239.62,428.26 L 239.73,428.40 L 239.68,428.46 L 239.65,428.51 L 239.64,428.57 L 239.64,428.58 L 239.65,428.61 L 239.67,428.65 L 239.68,428.67 L 239.70,428.70 L 239.72,428.72 L 239.74,428.74 L 239.76,428.75 L 239.78,428.75 L 239.81,428.74 L 239.89,428.72 L 239.94,428.72 L 239.98,428.72 L 239.99,428.72 L 240.11,428.77 L 240.18,428.80 L 240.20,428.81 L 240.21,428.85 L 240.20,429.10 L 240.22,429.14 L 240.27,429.22 L 240.34,429.28 L 240.36,429.33 L 240.40,429.41 L 240.42,429.46 L 240.43,429.49 L 240.45,429.52 L 240.47,429.53 L 240.53,429.56 L 240.59,429.59 L 240.60,429.59 L 240.63,429.58 L 240.66,429.58 L 240.67,429.58 L 240.70,429.59 L 240.74,429.61 L 240.76,429.64 L 240.77,429.67 L 240.77,429.67 L 240.80,429.70 L 240.82,429.71 L 240.92,429.73 L 241.03,429.76 L 241.04,429.76 L 241.07,429.77 L 241.07,429.77 L 241.07,429.82 L 241.09,429.95 L 241.10,430.02 L 241.12,430.05 L 241.18,430.10 L 241.18,430.11 L 241.12,430.18 L 241.02,430.29 L 241.01,430.31 L 241.01,430.32 L 241.02,430.32 L 241.03,430.33 L 241.09,430.35 L 241.16,430.39 L 241.24,430.42 L 241.31,430.45 L 241.36,430.47 L 241.42,430.49 L 241.45,430.52 L 241.47,430.55 L 241.49,430.59 L 241.51,430.62 L 241.54,430.64 L 241.62,430.70 L 241.70,430.75 L 241.81,430.80 L 241.93,430.88 L 241.97,430.90 L 242.01,430.94 L 242.06,430.99 L 242.12,431.05 L 242.16,431.09 L 242.18,431.10 L 242.20,431.11 L 242.24,431.12 L 242.28,431.12 L 242.29,431.12 L 242.33,431.12 L 242.36,431.14 L 242.37,431.17 L 242.40,431.23 L 242.43,431.25 L 242.50,431.31 L 242.58,431.36 L 242.64,431.41 L 242.72,431.46 L 242.77,431.49 L 242.82,431.53 L 242.90,431.57 L 243.02,431.62 L 243.08,431.64 L 243.11,431.65 L 243.12,431.66 L 243.14,431.68 L 243.17,431.73 L 243.21,431.84 L 243.25,431.91 L 243.28,431.95 L 243.32,431.96 L 243.39,431.97 L 243.51,431.96 L 243.53,431.97 L 243.54,431.97 L 243.57,432.01 L 243.59,432.04 L 243.62,432.09 L 243.67,432.17 L 243.71,432.20 L 243.74,432.23 L 243.78,432.33 L 243.78,432.37 L 243.76,432.40 L 243.74,432.42 L 243.69,432.48 L 243.69,432.49 L 243.69,432.50 L 243.72,432.51 L 243.88,432.58 L 244.00,432.63 L 244.13,432.69 L 244.25,432.74 L 244.33,432.77 L 244.37,432.78 L 244.43,432.80 L 244.49,432.83 L 244.58,432.86 L 244.64,432.89 L 244.68,432.91 L 244.73,432.93 L 244.77,432.93 L 244.83,432.93 L 245.02,432.95 L 245.10,432.97 L 245.15,432.97 L 245.20,432.99 L 245.24,433.01 L 245.27,433.02 L 245.34,433.04 L 245.40,433.06 L 245.43,433.07 L 245.47,433.06 L 245.49,433.04 L 245.51,433.03 L 245.53,433.02 L 245.56,433.03 L 245.61,433.06 L 245.65,433.08 L 245.66,433.11 L 245.66,433.16 L 245.67,433.18 L 245.68,433.20 L 245.70,433.21 L 245.72,433.22 L 245.74,433.23 L 245.74,433.25 L 245.74,433.28 L 245.75,433.31 L 245.76,433.31 L 245.80,433.32 L 245.87,433.30 L 245.97,433.28 L 246.00,433.26 L 246.04,433.27 L 246.07,433.27 L 246.09,433.29 L 246.12,433.32 L 246.15,433.35 L 246.22,433.36 L 246.32,433.39 L 246.36,433.40 L 246.38,433.41 L 246.41,433.41 L 246.52,433.41 L 246.61,433.42 L 246.65,433.42 L 246.68,433.43 L 246.71,433.47 L 246.76,433.54 L 246.79,433.58 L 246.83,433.62 L 246.86,433.63 L 246.93,433.63 L 246.95,433.65 L 246.99,433.71 L 247.08,433.82 L 247.15,433.86 L 247.33,433.92 L 247.39,433.95 L 247.48,434.04 L 247.56,434.11 L 247.61,434.11 L 247.67,434.12 L 247.73,434.13 L 247.91,434.27 L 247.94,434.29 L 248.04,434.35 L 248.13,434.40 L 248.24,434.43 L 248.33,434.47 L 248.46,434.48 L 248.54,434.49 L 248.56,434.52 L 248.60,434.54 L 248.68,434.54 L 248.80,434.56 L 248.87,434.61 L 248.92,434.70 L 248.93,434.79 L 248.95,434.87 L 249.00,434.97 L 249.07,435.06 L 249.12,435.09 L 249.19,435.09 L 249.28,435.11 L 249.36,435.10 L 249.43,435.10 L 249.52,435.14 L 249.58,435.20 L 249.61,435.23 L 249.70,435.24 L 249.78,435.26 L 249.83,435.28 L 250.02,435.33 L 250.07,435.36 L 250.10,435.39 L 250.19,435.45 L 250.26,435.52 L 250.35,435.61 L 250.43,435.66 L 250.49,435.71 L 250.51,435.74 L 250.53,435.75 L 250.55,435.78 L 250.60,435.82 L 250.65,435.83 L 250.69,435.86 L 250.70,435.92 L 250.70,435.96 L 250.73,435.98 L 250.78,436.00 L 250.83,436.05 L 250.89,436.12 L 250.93,436.16 L 250.97,436.18 L 251.03,436.21 L 251.10,436.22 L 251.16,436.26 L 251.24,436.33 L 251.30,436.35 L 251.36,436.36 L 251.47,436.33 L 251.53,436.32 L 251.57,436.33 L 251.64,436.38 L 251.71,436.42 L 251.77,436.45 L 251.81,436.46 L 251.92,436.48 L 252.06,436.48 L 252.15,436.48 L 252.23,436.48 L 252.27,436.49 L 252.29,436.52 L 252.34,436.53 L 252.40,436.55 L 252.49,436.61 L 252.55,436.71 L 252.62,436.79 L 252.70,436.86 L 252.77,436.89 L 252.83,436.91 L 252.87,436.95 L 252.94,437.03 L 253.04,437.10 L 253.10,437.18 L 253.13,437.24 L 253.15,437.27 L 253.19,437.27 L 253.22,437.26 L 253.27,437.29 L 253.28,437.32 L 253.30,437.35 L 253.32,437.35 L 253.37,437.34 L 253.41,437.32 L 253.46,437.30 L 253.50,437.29 L 253.59,437.30 L 253.63,437.30 L 253.69,437.32 L 253.77,437.36 L 253.83,437.38 L 253.88,437.42 L 253.91,437.47 L 253.93,437.51 L 253.96,437.51 L 254.01,437.51 L 254.09,437.53 L 254.19,437.78 L 254.31,438.03 L 254.36,438.16 L 254.41,438.24 L 254.51,438.30 L 254.68,438.44 L 254.80,438.53 L 255.04,438.63 L 255.13,438.86 L 255.33,439.15 L 255.38,439.20 L 255.46,439.20 L 255.57,439.19 L 255.64,439.20 L 255.68,439.25 L 255.75,439.33 L 255.81,439.37 L 255.91,439.47 L 255.99,439.58 L 256.06,439.65 L 256.18,439.72 L 256.25,439.73 L 256.35,439.71 L 256.50,439.70 L 256.57,439.71 L 256.69,439.72 L 256.74,439.72 L 256.77,439.72 L 256.80,439.70 L 256.84,439.67 L 256.91,439.63 L 256.96,439.62 L 257.01,439.62 L 257.06,439.64 L 257.12,439.66 L 257.14,439.69 L 257.17,439.71 L 257.20,439.69 L 257.41,439.59 L 257.55,439.58 L 257.77,439.59 L 257.91,439.55 L 257.97,439.55 L 257.98,439.55 L 258.00,439.58 L 258.00,439.61 L 258.01,439.66 L 258.03,439.67 L 258.06,439.66 L 258.10,439.64 L 258.15,439.60 L 258.21,439.57 L 258.24,439.59 L 258.30,439.62 L 258.40,439.67 L 258.49,439.67 L 258.55,439.68 L 258.58,439.68 L 258.59,439.68 L 258.62,439.68 L 258.65,439.67 L 258.66,439.67 L 258.67,439.67 L 258.69,439.67 L 258.70,439.68 L 258.72,439.68 L 258.73,439.68 L 258.75,439.69 L 258.81,439.69 L 258.85,439.68 L 258.86,439.69 L 258.88,439.69 L 258.89,439.70 L 258.92,439.71 L 258.96,439.72 L 258.99,439.73 L 258.99,439.73 L 259.06,439.77 L 259.18,439.84 L 259.20,439.86 L 259.22,439.87 L 259.23,439.90 L 259.24,439.92 L 259.25,439.94 L 259.26,439.95 L 259.28,439.97 L 259.33,440.01 L 259.36,440.06 L 259.39,440.08 L 259.40,440.08 L 259.41,440.09 L 259.42,440.08 L 259.43,440.07 L 259.43,440.07 L 259.44,440.07 L 259.45,440.07 L 259.48,440.09 L 259.54,440.11 L 259.54,440.12 L 259.57,440.12 L 259.66,440.12 L 259.70,440.13 L 259.71,440.13 L 259.72,440.12 L 259.73,440.12 L 259.77,440.10 L 259.80,440.08 L 259.85,440.07 L 259.87,440.06 L 259.88,440.06 L 259.89,440.06 L 259.90,440.06 L 259.91,440.06 L 259.93,440.08 L 259.98,440.10 L 259.99,440.10 L 260.01,440.10 L 260.03,440.10 L 260.04,440.09 L 260.07,440.08 L 260.12,440.06 L 260.21,440.02 L 260.22,440.02 L 260.24,440.02 L 260.26,440.03 L 260.28,440.03 L 260.31,440.04 L 260.32,440.05 L 260.38,440.08 L 260.39,440.08 L 260.40,440.08 L 260.41,440.08 L 260.43,440.07 L 260.47,440.05 L 260.55,440.01 L 260.61,439.97 L 260.62,439.97 L 260.63,439.96 L 260.65,439.96 L 260.69,439.96 L 260.72,439.96 L 260.78,439.95 L 260.80,439.94 L 260.80,439.94 L 260.80,439.94 L 260.86,439.94 L 260.91,439.93 L 261.04,439.90 L 261.32,439.86 L 261.47,439.84 L 261.73,439.80 L 261.81,439.78 L 261.88,439.77 L 262.03,439.75 L 262.22,439.71 L 262.23,439.71 L 262.47,439.67 L 262.64,439.87 L 262.66,439.89 L 262.67,439.90 L 262.68,439.90 L 262.69,439.90 L 262.69,439.91 L 262.69,439.93 L 262.69,439.95 L 262.68,439.98 L 262.67,440.00 L 262.66,440.07 L 262.66,440.10 L 262.66,440.12 L 262.66,440.14 L 262.65,440.16 L 262.65,440.19 L 262.64,440.22 L 262.63,440.25 L 262.63,440.28 L 262.62,440.32 L 262.61,440.35 L 262.60,440.37 L 262.60,440.40 L 262.59,440.44 L 262.59,440.47 L 262.58,440.51 L 262.57,440.54 L 262.56,440.57 L 262.56,440.59 L 262.55,440.60 L 262.55,440.61 L 262.54,440.62 L 262.53,440.64 L 262.51,440.66 L 262.49,440.70 L 262.46,440.74 L 262.44,440.77 L 262.43,440.79 L 262.42,440.81 L 262.41,440.83 L 262.39,440.86 L 262.37,440.89 L 262.36,440.93 L 262.34,440.96 L 262.33,441.01 L 262.32,441.02 L 262.31,441.05 L 262.30,441.08 L 262.28,441.13 L 262.26,441.18 L 262.24,441.24 L 262.20,441.32 L 262.17,441.39 L 262.15,441.43 L 262.14,441.45 L 262.14,441.50 L 262.14,441.54 L 262.15,441.58 L 262.14,441.63 L 262.15,441.67 L 262.14,441.70 L 262.14,441.72 L 262.12,441.77 L 262.10,441.83 L 262.09,441.87 L 262.07,441.93 L 262.05,442.00 L 262.03,442.05 L 262.03,442.07 L 262.02,442.08 L 262.02,442.11 L 262.01,442.13 L 262.00,442.17 L 261.98,442.22 L 261.97,442.26 L 261.96,442.30 L 261.94,442.35 L 261.93,442.39 L 261.92,442.42 L 261.91,442.46 L 261.90,442.51 L 261.89,442.54 L 261.88,442.57 L 261.85,442.62 L 261.85,442.63 L 261.83,442.66 L 261.82,442.68 L 261.81,442.71 L 261.80,442.73 L 261.76,442.78 L 261.73,442.83 L 261.72,442.86 L 261.70,442.87 L 261.67,442.92 L 261.65,442.95 L 261.63,442.99 L 261.61,443.02 L 261.59,443.06 L 261.57,443.10 L 261.53,443.17 L 261.50,443.23 L 261.47,443.29 L 261.45,443.34 L 261.40,443.39 L 261.37,443.42 L 261.34,443.45 L 261.32,443.47 L 261.31,443.48 L 261.29,443.49 L 261.27,443.50 L 261.23,443.53 L 261.17,443.56 L 261.12,443.58 L 261.12,443.58 L 261.08,443.60 L 261.03,443.62 L 261.01,443.63 L 260.99,443.63 L 260.97,443.64 L 260.93,443.64 L 260.88,443.64 L 260.82,443.63 L 260.74,443.62 L 260.65,443.62 L 260.60,443.62 L 260.58,443.62 L 260.56,443.62 L 260.53,443.62 L 260.51,443.63 L 260.46,443.64 L 260.41,443.65 L 260.34,443.68 L 260.31,443.69 L 260.25,443.73 L 260.22,443.75 L 260.17,443.80 L 260.07,443.90 L 260.01,443.99 L 259.96,444.07 L 259.91,444.17 L 259.86,444.26 L 259.83,444.35 L 259.78,444.58 L 259.76,444.68 L 259.75,444.78 L 259.76,444.80 L 259.76,444.83 L 259.76,444.85 L 259.76,444.89 L 259.77,445.02 L 259.77,445.27 L 259.77,445.33 L 259.79,445.49 L 259.81,445.67 L 259.94,450.65 L 273.62,479.12 L 278.20,474.37 L 312.32,439.04 L 292.53,429.38 L 292.17,429.18 L 291.90,429.01 L 291.69,428.80 L 291.68,428.77 L 291.67,428.73 L 291.66,428.69 L 291.65,428.65 L 291.64,428.61 L 291.63,428.57 L 291.62,428.54 L 291.60,428.50 L 291.59,428.46 L 291.58,428.42 L 291.56,428.39 L 291.55,428.35 L 291.53,428.31 L 291.52,428.27 L 291.50,428.24 L 291.49,428.20 L 291.47,428.16 L 291.45,428.13 L 291.43,428.09 L 291.41,428.06 L 291.39,428.02 L 291.37,427.99 L 291.35,427.95 L 291.33,427.92 L 290.92,427.42 L 290.68,427.20 L 290.47,427.00 L 290.40,426.93 L 290.34,426.86 L 290.27,426.79 L 290.21,426.72 L 290.15,426.64 L 290.09,426.58 L 290.03,426.51 L 289.98,426.45 L 289.92,426.38 L 289.86,426.31 L 289.81,426.24 L 289.78,426.21 L 289.75,426.17 L 289.72,426.14 L 289.69,426.10 L 289.66,426.07 L 289.63,426.03 L 289.60,426.00 L 289.57,425.97 L 289.54,425.94 L 289.51,425.90 L 289.48,425.87 L 289.45,425.84 L 289.34,425.74 L 289.11,425.55 L 289.06,425.52 L 289.05,425.51 L 288.98,425.45 L 288.82,425.29 L 288.77,425.24 L 288.71,425.18 L 288.60,425.00 L 288.52,424.85 L 288.46,424.77 L 288.32,424.64 L 288.16,424.60 L 288.12,424.60 L 287.98,424.67 L 287.88,424.74 L 287.73,424.83 L 287.56,424.96 L 287.42,425.03 L 287.30,425.08 L 287.19,425.09 L 287.12,425.08 L 287.00,425.07 L 286.81,425.04 L 286.75,425.04 L 286.71,425.05 L 286.65,425.06 L 286.59,425.09 L 286.52,425.13 L 286.46,425.16 L 286.42,425.20 L 286.35,425.27 L 286.25,425.40 L 286.14,425.55 L 286.04,425.67 L 285.97,425.74 L 285.94,425.79 L 285.90,425.83 L 285.82,425.90 L 285.77,425.93 L 285.71,425.97 L 285.61,426.01 L 285.38,426.10 L 285.24,426.14 L 285.06,426.19 L 284.96,426.22 L 284.77,426.25 L 284.53,426.25 L 284.38,426.24 L 284.13,426.20 L 284.11,426.20 L 283.98,426.18 L 283.95,426.17 L 283.91,426.15 L 283.86,426.13 L 283.80,426.10 L 283.68,426.06 L 283.55,426.02 L 283.45,425.98 L 283.30,425.90 L 283.22,425.85 L 283.20,425.83 L 283.09,425.76 L 282.93,425.64 L 282.92,425.63 L 282.85,425.57 L 282.71,425.46 L 282.56,425.27 L 282.44,425.10 L 282.33,424.96 L 282.26,424.88 L 282.12,424.70 L 281.97,424.52 L 281.84,424.33 L 281.73,424.10 L 281.61,423.89 L 281.52,423.74 L 281.47,423.68 L 281.39,423.62 L 281.34,423.59 L 281.19,423.47 L 281.13,423.43 L 281.09,423.40 L 281.04,423.36 L 281.00,423.33 L 280.95,423.29 L 280.88,423.24 L 280.81,423.20 L 280.77,423.16 L 280.72,423.12 L 280.63,423.06 L 280.60,423.04 L 280.54,423.00 L 280.49,422.97 L 280.41,422.94 L 280.37,422.93 L 280.33,422.91 L 280.29,422.91 L 280.24,422.90 L 280.19,422.90 L 280.08,422.89 L 279.97,422.90 L 279.90,422.90 L 279.82,422.91 L 279.75,422.91 L 279.70,422.91 L 279.66,422.90 L 279.60,422.89 L 279.56,422.89 L 279.52,422.88 L 279.47,422.86 L 279.41,422.85 L 279.36,422.83 L 279.30,422.81 L 279.22,422.78 L 279.14,422.75 L 279.06,422.70 L 279.01,422.67 L 278.97,422.65 L 278.86,422.59 L 278.81,422.56 L 278.75,422.52 L 278.70,422.49 L 278.65,422.45 L 278.60,422.41 L 278.56,422.38 L 278.53,422.35 L 278.49,422.30 L 278.47,422.28 L 278.44,422.25 L 278.42,422.21 L 278.40,422.18 L 278.38,422.15 L 278.35,422.10 L 278.31,422.02 L 278.27,421.98 L 278.23,421.92 L 278.19,421.88 L 278.17,421.85 L 278.15,421.83 L 278.13,421.79 L 278.09,421.67 L 277.97,421.36 L 277.85,421.11 L 277.81,421.05 L 277.76,420.99 L 277.70,420.94 L 277.60,420.92 L 277.53,420.92 L 277.48,420.94 L 277.40,420.99 L 277.11,421.29 L 276.87,421.55 L 276.82,421.61 L 276.79,421.66 L 276.76,421.69 L 276.75,421.70 L 276.74,421.72 L 276.72,421.75 L 276.66,421.81 L 276.62,421.84 L 276.57,421.88 L 276.57,421.88 L 276.54,421.91 L 276.49,421.95 L 276.45,421.98 L 276.38,422.03 L 276.33,422.07 L 276.25,422.12 L 276.15,422.17 L 276.08,422.22 L 276.04,422.25 L 275.97,422.31 L 275.91,422.36 L 275.87,422.39 L 275.80,422.46 L 275.78,422.48 L 275.70,422.56 L 275.59,422.68 L 275.52,422.75 L 275.44,422.83 L 275.38,422.89 L 275.31,422.97 L 275.23,423.04 L 275.15,423.12 L 275.11,423.15 L 275.06,423.19 L 275.01,423.23 L 274.96,423.26 L 274.88,423.30 L 274.81,423.36 L 274.73,423.42 L 274.60,423.52 L 274.51,423.58 L 273.99,423.88 L 273.77,423.95 L 273.70,423.96 L 273.57,423.98 L 273.50,423.98 L 273.43,423.98 L 273.38,423.97 L 273.24,423.91 L 273.14,423.86 L 273.07,423.81 L 273.00,423.74 L 272.96,423.69 L 272.90,423.59 L 272.83,423.45 L 272.81,423.40 L 272.77,423.32 L 272.73,423.20 L 272.71,423.12 L 272.68,423.00 L 272.67,422.93 L 272.66,422.83 L 272.66,422.73 L 272.68,422.65 L 272.69,422.56 L 272.71,422.46 L 272.73,422.38 L 272.75,422.32 L 272.77,422.27 L 272.78,422.22 L 272.79,422.19 L 272.84,422.11 L 272.88,422.06 L 272.91,422.02 L 272.92,422.01 L 272.96,421.96 L 273.02,421.91 L 273.10,421.83 L 273.16,421.78 L 273.37,421.63 L 273.44,421.57 L 273.68,421.38 L 273.77,421.32 L 273.83,421.28 L 273.89,421.23 L 273.91,421.22 L 274.00,421.15 L 274.07,421.10 L 274.13,421.06 L 274.17,421.02 L 274.21,420.99 L 274.30,420.91 L 274.37,420.83 L 274.44,420.75 L 274.50,420.65 L 274.55,420.54 L 274.58,420.44 L 274.60,420.36 L 274.61,420.29 L 274.61,420.21 L 274.61,420.20 L 274.60,420.13 L 274.59,420.07 L 274.57,420.00 L 274.54,419.90 L 274.50,419.82 L 274.45,419.76 L 274.34,419.62 L 274.27,419.56 L 274.20,419.51 L 274.15,419.47 L 274.10,419.43 L 274.04,419.40 L 273.97,419.37 L 273.91,419.35 L 273.84,419.33 L 273.75,419.32 L 273.66,419.30 L 273.56,419.27 L 273.49,419.25 L 273.42,419.22 L 273.36,419.21 L 273.28,419.19 L 273.17,419.18 L 273.06,419.17 L 273.05,419.17 L 273.04,419.17 L 272.86,419.17 L 272.80,419.17 L 272.77,419.18 L 272.65,419.19 L 272.32,419.20 L 272.21,419.21 L 272.08,419.21 L 271.86,419.19 L 271.77,419.18 L 271.66,419.16 L 271.51,419.14 L 271.36,419.11 L 271.28,419.10 L 271.22,419.08 L 271.15,419.06 L 271.10,419.04 L 271.04,419.01 L 270.97,418.99 L 270.91,418.94 L 270.86,418.90 L 270.82,418.88 L 270.78,418.84 L 270.74,418.80 L 270.71,418.77 L 270.67,418.72 L 270.63,418.66 L 270.60,418.61 L 270.56,418.55 L 270.53,418.50 L 270.49,418.43 L 270.46,418.39 L 270.40,418.29 L 270.35,418.19 L 270.32,418.11 L 270.29,418.03 L 270.26,417.97 L 270.26,417.93 L 270.26,417.90 L 270.26,417.84 L 270.26,417.79 L 270.27,417.76 L 270.28,417.72 L 270.35,417.62 L 270.43,417.49 L 270.55,417.30 L 270.66,417.13 L 270.73,417.00 L 270.87,416.77 L 270.96,416.56 L 271.02,416.38 L 271.05,416.32 L 271.07,416.25 L 271.13,416.07 L 271.15,416.00 L 271.17,415.93 L 271.18,415.82 L 271.18,415.74 L 271.18,415.68 L 271.17,415.63 L 271.15,415.54 L 271.12,415.46 L 271.06,415.34 L 271.04,415.31 L 270.99,415.25 L 270.91,415.15 L 270.87,415.12 L 270.80,415.08 L 270.67,415.00 L 270.52,414.92 L 270.16,414.76 L 269.91,414.73 L 269.57,414.74 L 269.31,414.75 L 269.26,414.74 L 269.13,414.71 L 269.07,414.69 L 269.02,414.66 L 268.88,414.56 L 268.82,414.49 L 268.76,414.43 L 268.70,414.33 L 268.67,414.27 L 268.64,414.20 L 268.60,414.12 L 268.57,414.04 L 268.54,413.96 L 268.51,413.87 L 268.50,413.79 L 268.49,413.14 L 268.51,413.04 L 268.52,412.94 L 268.54,412.85 L 268.55,412.76 L 268.56,412.65 L 268.56,412.54 L 268.56,412.41 L 268.56,412.35 L 268.53,412.18 L 268.49,412.01 L 268.48,411.96 L 268.46,411.84 L 268.43,411.67 L 268.40,411.53 L 268.38,411.48 L 268.37,411.42 L 268.35,411.37 L 268.28,411.13 L 268.22,410.95 L 268.16,410.80 L 268.12,410.70 L 268.05,410.55 L 268.02,410.51 L 268.01,410.49 L 267.94,410.39 L 267.79,410.21 L 267.72,410.12 L 267.66,410.04 L 267.60,409.97 L 267.58,409.94 L 267.57,409.91 L 267.55,409.89 L 267.54,409.84 L 267.52,409.79 L 267.50,409.75 L 267.46,409.69 L 267.44,409.65 L 267.43,409.64 L 267.39,409.59 L 267.35,409.56 L 267.30,409.52 L 267.25,409.49 L 267.14,409.43 L 267.02,409.39 L 266.93,409.37 L 266.81,409.36 L 266.69,409.34 L 266.67,409.34 L 266.44,409.31 L 266.36,409.30 L 266.30,409.28 L 266.17,409.23 L 266.09,409.19 L 266.04,409.16 L 265.97,409.12 L 265.93,409.06 L 265.87,408.99 L 265.84,408.93 L 265.81,408.83 L 265.77,408.73 L 265.74,408.64 L 265.72,408.56 L 265.71,408.45 L 265.71,408.37 L 265.71,408.26 L 265.71,408.15 L 265.72,408.08 L 265.72,408.02 L 265.72,408.00 L 265.73,407.94 L 265.76,407.81 L 265.78,407.75 L 265.79,407.71 L 265.79,407.68 L 265.79,407.65 L 265.79,407.60 L 265.79,407.51 L 265.78,407.40 L 265.78,407.36 L 265.78,407.31 L 265.79,407.18 L 265.80,407.11 L 265.80,407.09 L 265.79,407.07 L 265.79,407.05 L 265.79,407.04 L 265.78,407.02 L 265.74,406.93 L 265.69,406.84 L 265.66,406.79 L 265.61,406.73 L 265.49,406.62 L 265.40,406.54 L 265.39,406.52 L 265.37,406.50 L 265.37,406.50 L 265.35,406.48 L 265.33,406.47 L 265.31,406.45 L 265.29,406.44 L 265.26,406.43 L 265.23,406.42 L 264.82,406.35 L 264.68,406.34 L 264.56,406.33 L 264.48,406.34 L 264.42,406.35 L 264.39,406.36 L 264.28,406.38 L 264.04,406.46 L 263.86,406.53 L 263.71,406.60 L 263.54,406.71 L 263.30,406.88 L 263.20,406.97 L 263.06,407.09 L 262.96,407.17 L 262.89,407.21 L 262.84,407.24 L 262.72,407.27 L 262.55,407.26 L 262.37,407.24 L 262.37,407.24 L 262.20,407.20 L 262.11,407.18 L 262.00,407.14 L 261.86,407.09 L 261.77,407.04 L 261.64,406.96 L 261.56,406.88 L 261.48,406.80 L 261.39,406.72 L 261.35,406.67 L 261.31,406.61 L 261.30,406.58 L 261.28,406.55 L 261.27,406.53 L 261.20,406.45 L 261.14,406.37 L 261.04,406.28 L 260.94,406.18 L 260.85,406.07 L 260.73,405.94 L 260.63,405.83 L 260.59,405.77 L 260.54,405.69 L 260.48,405.57 L 260.47,405.54 L 260.46,405.54 L 260.41,405.42 L 260.37,405.31 L 260.34,405.22 L 260.30,405.07 L 260.27,404.98 L 260.26,404.96 L 260.22,404.83 L 260.17,404.72 L 260.16,404.66 L 260.23,404.40 L 260.26,404.30 L 260.29,404.21 L 260.39,403.97 L 260.44,403.84 L 260.47,403.71 L 260.49,403.54 L 260.52,403.31 L 260.52,403.10 L 260.48,402.89 L 260.40,402.64 L 260.29,402.37 L 260.21,402.25 L 260.15,402.14 L 260.10,402.06 L 260.04,401.98 L 259.99,401.91 L 259.97,401.90 L 259.97,401.89 L 259.91,401.82 L 259.85,401.75 L 259.80,401.69 L 259.73,401.62 L 259.62,401.52 L 259.53,401.46 L 259.46,401.41 L 259.36,401.36 L 259.20,401.30 L 259.07,401.25 L 258.89,401.19 L 258.82,401.17 L 258.80,401.16 L 258.77,401.16 L 258.74,401.16 L 258.63,401.14 L 258.61,401.14 L 258.52,401.29 L 258.48,401.34 L 258.47,401.35 L 258.44,401.37 L 258.33,401.43 L 258.22,401.50 L 258.14,401.56 L 258.27,401.81 L 258.25,401.82 L 258.27,401.87 L 257.98,402.01 L 257.99,402.03 L 257.92,402.06 L 257.95,402.14 L 258.03,402.37 L 258.07,402.35 L 258.05,402.43 L 258.10,402.46 L 258.14,402.50 L 258.16,402.53 L 258.24,402.72 L 258.08,402.79 L 257.95,402.70 L 258.09,402.52 L 258.02,402.47 L 257.97,402.54 L 257.89,402.48 L 257.85,402.45 L 257.86,402.43 L 257.85,402.42 L 257.86,402.41 L 257.86,402.40 L 257.85,402.38 L 257.82,402.34 L 257.81,402.35 L 257.81,402.37 L 257.80,402.38 L 257.78,402.42 L 257.76,402.44 L 257.74,402.46 L 257.66,402.52 L 257.60,402.56 L 257.58,402.58 L 257.52,402.58 L 257.49,402.63 L 257.46,402.66 L 257.45,402.67 L 257.43,402.70 L 257.40,402.73 L 257.37,402.75 L 257.33,402.80 L 257.31,402.82 L 257.28,402.85 L 257.26,402.88 L 257.23,402.91 L 257.21,402.94 L 257.18,402.97 L 257.17,402.99 L 257.16,403.01 L 257.16,403.02 L 257.17,403.05 L 257.19,403.08 L 257.19,403.10 L 257.19,403.12 L 257.18,403.24 L 257.15,403.38 L 257.14,403.43 L 257.11,403.48 L 257.09,403.48 L 257.01,403.49 L 256.94,403.50 L 256.75,403.50 L 256.65,403.51 L 256.53,403.53 L 256.47,403.55 L 256.42,403.57 L 256.39,403.59 L 256.36,403.60 L 256.31,403.63 L 256.21,403.70 L 256.13,403.76 L 256.03,403.88 L 256.00,403.91 L 255.97,403.98 L 255.95,404.03 L 255.95,404.06 L 255.95,404.11 L 255.95,404.14 L 255.98,404.23 L 256.02,404.33 L 256.02,404.34 L 256.01,404.39 L 255.98,404.37 L 255.93,404.36 L 255.78,404.32 L 255.50,404.26 L 255.36,404.18 L 255.28,404.12 L 255.25,404.07 L 255.19,403.95 L 255.17,403.89 L 255.15,403.76 L 255.16,403.70 L 255.17,403.60 L 255.23,403.55 L 255.31,403.48 L 255.36,403.41 L 255.37,403.36 L 255.37,403.30 L 255.37,402.84 L 255.33,402.70 L 255.30,402.64 L 255.23,402.54 L 255.19,402.51 L 255.17,402.50 L 255.11,402.50 L 255.06,402.53 L 254.97,402.56 L 254.91,402.59 L 254.69,402.61 L 254.55,402.61 L 254.45,402.65 L 254.02,402.82 L 253.89,402.86 L 253.85,402.86 L 253.82,402.92 L 253.75,403.02 L 253.71,402.96 L 253.55,403.06 L 253.55,403.08 L 253.46,403.12 L 253.19,403.28 L 253.15,403.30 L 253.14,403.29 L 253.03,403.32 L 253.04,403.55 L 252.91,403.55 L 252.75,403.42 L 252.71,403.37 L 252.65,403.33 L 252.60,403.30 L 252.56,403.29 L 252.50,403.29 L 252.50,403.34 L 252.48,403.43 L 252.48,403.48 L 252.48,403.60 L 252.50,403.72 L 252.50,403.99 L 252.50,404.09 L 252.50,404.22 L 252.50,404.32 L 252.46,404.36 L 252.40,404.41 L 252.30,404.50 L 252.23,404.54 L 252.22,404.55 L 252.21,404.56 L 252.13,404.61 L 252.03,404.66 L 251.91,404.72 L 251.75,404.79 L 251.68,404.81 L 251.59,404.84 L 251.50,404.86 L 251.42,404.86 L 251.30,404.85 L 251.22,404.84 L 251.11,404.81 L 251.01,404.76 L 250.97,404.75 L 250.89,404.73 L 250.82,404.72 L 250.78,404.71 L 250.74,404.72 L 250.68,404.73 L 250.63,404.75 L 250.62,404.75 L 250.57,404.76 L 250.50,404.76 L 250.43,404.75 L 250.39,404.75 L 250.34,404.74 L 250.27,404.72 L 250.21,404.69 L 250.17,404.66 L 250.15,404.65 L 250.12,404.62 L 250.09,404.59 L 250.05,404.55 L 250.01,404.50 L 249.98,404.46 L 249.95,404.41 L 249.93,404.38 L 249.84,404.24 L 249.80,404.28 L 249.67,404.18 L 249.66,404.18 L 249.62,404.15 L 249.61,404.15 L 249.56,404.11 L 249.50,404.06 L 249.49,404.07 L 249.34,404.00 L 249.36,403.92 L 249.34,403.92 L 249.35,403.88 L 249.29,403.87 L 249.30,403.85 L 248.97,403.73 L 248.95,403.79 L 248.89,403.76 L 248.86,403.76 L 248.85,403.75 L 248.84,403.74 L 248.82,403.74 L 248.83,403.69 L 248.69,403.65 L 248.69,403.62 L 248.54,403.57 L 248.54,403.60 L 248.39,403.56 L 248.36,403.56 L 248.36,403.70 L 248.35,403.70 L 248.33,403.70 L 248.32,403.70 L 248.30,403.70 L 248.30,403.70 L 248.18,403.76 L 248.19,403.76 L 248.18,403.77 L 248.17,403.77 L 248.16,403.78 L 248.28,403.91 L 248.34,403.97 L 248.42,404.09 L 248.45,404.14 L 248.49,404.20 L 248.56,404.26 L 248.59,404.29 L 248.65,404.33 L 248.71,404.35 L 248.72,404.35 L 248.81,404.39 L 248.91,404.43 L 248.95,404.45 L 248.96,404.47 L 248.98,404.50 L 248.99,404.55 L 248.98,404.58 L 248.96,404.62 L 248.95,404.65 L 248.91,404.71 L 248.88,404.74 L 248.85,404.77 L 248.80,404.80 L 248.57,404.94 L 248.56,404.95 L 248.53,404.97 L 248.50,404.98 L 248.46,405.00 L 248.28,405.11 L 248.26,405.12 L 248.23,405.12 L 248.23,405.14 L 248.21,405.15 L 248.19,405.15 L 248.17,405.16 L 248.16,405.17 L 248.11,405.20 L 248.09,405.22 L 248.01,405.29 L 247.98,405.31 L 247.94,405.35 L 247.92,405.37 L 247.90,405.39 L 247.86,405.42 L 247.85,405.43 L 247.83,405.44 L 247.81,405.44 L 247.80,405.47 L 247.79,405.49 L 247.72,405.62 L 247.71,405.65 L 247.70,405.68 L 247.70,405.69 L 247.69,405.71 L 247.69,405.72 L 247.69,405.74 L 247.69,405.76 L 247.72,405.75 L 247.74,405.90 L 247.80,405.89 L 247.80,405.93 L 247.87,405.94 L 247.88,405.95 L 247.90,405.95 L 247.89,405.96 L 247.89,405.97 L 247.89,405.98 L 247.88,405.98 L 247.88,405.99 L 247.87,405.99 L 247.86,405.99 L 247.85,406.00 L 247.83,406.00 L 247.83,406.01 L 247.82,406.01 L 247.82,406.01 L 247.82,406.02 L 247.81,406.02 L 247.81,406.03 L 247.81,406.05 L 247.82,406.07 L 247.81,406.08 L 247.81,406.08 L 247.81,406.09 L 247.81,406.10 L 247.81,406.12 L 247.82,406.12 L 247.82,406.13 L 247.83,406.14 L 247.83,406.15 L 247.84,406.16 L 247.83,406.16 L 247.83,406.16 L 247.83,406.17 L 247.83,406.18 L 247.83,406.18 L 247.83,406.18 L 247.84,406.19 L 247.84,406.20 L 247.85,406.20 L 247.86,406.21 L 247.86,406.22 L 247.88,406.24 L 247.88,406.24 L 247.89,406.25 L 247.89,406.26 L 247.90,406.28 L 247.90,406.29 L 247.91,406.30 L 247.91,406.31 L 247.91,406.31 L 247.90,406.32 L 247.90,406.33 L 247.90,406.34 L 247.89,406.33 L 247.89,406.33 L 247.88,406.33 L 247.87,406.33 L 247.87,406.32 L 247.87,406.32 L 247.86,406.32 L 247.86,406.31 L 247.85,406.31 L 247.85,406.31 L 247.84,406.31 L 247.84,406.32 L 247.83,406.32 L 247.83,406.32 L 247.83,406.32 L 247.82,406.33 L 247.81,406.33 L 247.81,406.33 L 247.80,406.33 L 247.79,406.33 L 247.78,406.33 L 247.78,406.34 L 247.78,406.34 L 247.78,406.35 L 247.79,406.36 L 247.79,406.37 L 247.79,406.37 L 247.79,406.38 L 247.79,406.39 L 247.79,406.40 L 247.79,406.40 L 247.79,406.41 L 247.79,406.42 L 247.79,406.43 L 247.78,406.43 L 247.78,406.44 L 247.77,406.45 L 247.77,406.46 L 247.76,406.48 L 247.75,406.49 L 247.74,406.50 L 247.73,406.51 L 247.73,406.52 L 247.72,406.52 L 247.71,406.53 L 247.70,406.54 L 247.69,406.55 L 247.58,406.62 L 247.49,406.68 L 247.43,406.75 L 247.41,406.77 L 247.39,406.81 L 247.38,406.86 L 247.38,406.89 L 247.38,406.92 L 247.40,406.95 L 247.44,407.03 L 247.47,407.06 L 247.52,407.10 L 247.55,407.13 L 247.62,407.15 L 247.68,407.17 L 247.72,407.19 L 247.64,407.26 L 247.61,407.28 L 247.53,407.32 L 247.45,407.42 L 247.45,407.44 L 247.54,407.52 L 247.50,407.62 L 247.46,407.61 L 247.45,407.60 L 247.44,407.58 L 247.44,407.55 L 247.43,407.52 L 247.42,407.51 L 247.39,407.49 L 247.37,407.49 L 247.31,407.58 L 247.23,407.72 L 247.17,407.82 L 247.14,407.84 L 247.13,407.87 L 247.12,407.90 L 247.11,407.95 L 247.12,408.03 L 247.12,408.05 L 247.11,408.10 L 247.11,408.14 L 247.10,408.19 L 247.12,408.23 L 247.14,408.28 L 247.16,408.33 L 247.16,408.36 L 247.16,408.39 L 247.14,408.44 L 247.10,408.48 L 247.08,408.51 L 247.06,408.53 L 247.05,408.54 L 247.04,408.56 L 247.03,408.56 L 247.03,408.57 L 247.01,408.65 L 246.98,408.76 L 246.97,408.80 L 246.95,408.87 L 246.93,408.94 L 246.92,408.98 L 246.90,409.04 L 246.89,409.07 L 246.88,409.10 L 246.88,409.14 L 246.87,409.19 L 246.87,409.25 L 246.85,409.32 L 246.83,409.35 L 246.80,409.40 L 246.77,409.43 L 246.76,409.43 L 246.73,409.43 L 246.61,409.45 L 246.55,409.48 L 246.51,409.48 L 246.48,409.49 L 246.34,409.48 L 246.25,409.48 L 246.19,409.49 L 246.14,409.52 L 246.10,409.54 L 246.07,409.57 L 246.05,409.58 L 246.02,409.58 L 245.93,409.51 L 245.91,409.50 L 245.90,409.50 L 245.89,409.51 L 245.86,409.53 L 245.79,409.60 L 245.76,409.61 L 245.39,409.59 L 245.30,409.58 L 245.31,409.62 L 245.32,409.66 L 245.34,409.74 L 245.35,409.82 L 245.38,409.90 L 245.40,409.96 L 245.41,409.98 L 245.43,410.03 L 245.44,410.06 L 245.44,410.09 L 245.44,410.14 L 245.45,410.18 L 245.45,410.20 L 245.47,410.23 L 245.48,410.26 L 245.49,410.28 L 245.49,410.30 L 245.49,410.32 L 245.49,410.34 L 245.51,410.38 L 245.54,410.44 L 245.54,410.46 L 245.56,410.50 L 245.59,410.55 L 245.64,410.62 L 245.70,410.67 L 245.78,410.73 L 245.79,410.75 L 245.80,410.77 L 245.81,410.80 L 245.85,410.85 L 245.93,410.92 L 245.96,410.94 L 246.00,411.00 L 246.08,411.09 L 246.13,411.14 L 246.14,411.16 L 246.15,411.19 L 246.16,411.22 L 246.17,411.25 L 246.19,411.30 L 246.21,411.33 L 246.22,411.35 L 246.24,411.38 L 246.25,411.49 L 246.26,411.52 L 246.26,411.55 L 246.26,411.58 L 246.27,411.60 L 246.29,411.62 L 246.33,411.68 L 246.36,411.74 L 246.40,411.84 L 246.43,411.90 L 246.46,411.95 L 246.47,411.98 L 246.49,412.04 L 246.50,412.06 L 246.54,412.05 L 246.55,412.11 L 246.59,412.17 L 246.61,412.20 L 246.62,412.25 L 246.63,412.29 L 246.63,412.32 L 246.65,412.35 L 246.66,412.44 L 246.67,412.44 L 246.68,412.46 L 246.71,412.52 L 246.75,412.66 L 246.76,412.72 L 246.78,412.80 L 246.82,412.81 L 246.83,412.80 L 246.86,412.80 L 246.92,412.77 L 247.05,412.72 L 247.07,412.71 L 247.08,412.71 L 247.11,412.72 L 247.12,412.73 L 247.13,412.75 L 247.15,412.81 L 247.18,412.88 L 247.21,412.94 L 247.22,412.95 L 247.23,412.96 L 247.24,412.97 L 247.24,412.98 L 247.25,413.03 L 247.25,413.10 L 247.26,413.15 L 247.26,413.18 L 247.27,413.24 L 247.27,413.25 L 247.27,413.26 L 247.27,413.28 L 247.29,413.33 L 247.32,413.41 L 247.35,413.47 L 247.44,413.56 L 247.46,413.58 L 247.48,413.59 L 247.51,413.59 L 247.54,413.59 L 247.58,413.59 L 247.60,413.58 L 247.63,413.57 L 247.62,413.52 L 247.61,413.42 L 247.74,413.36 L 247.79,413.34 L 247.82,413.32 L 247.84,413.31 L 247.86,413.30 L 247.90,413.29 L 247.95,413.26 L 248.17,413.16 L 248.18,413.28 L 248.17,413.36 L 248.15,413.48 L 248.14,413.50 L 248.14,413.52 L 248.16,413.53 L 248.19,413.59 L 248.20,413.66 L 248.19,413.70 L 248.19,413.72 L 248.19,413.78 L 248.20,413.81 L 248.20,413.84 L 248.21,413.88 L 248.22,413.90 L 248.27,413.97 L 248.43,414.14 L 248.47,414.18 L 248.49,414.19 L 248.51,414.20 L 248.58,414.21 L 248.64,414.22 L 248.67,414.23 L 248.72,414.25 L 248.76,414.27 L 248.80,414.30 L 248.85,414.35 L 248.91,414.40 L 248.95,414.42 L 248.97,414.43 L 249.01,414.43 L 249.05,414.44 L 249.11,414.45 L 249.11,414.47 L 249.11,414.51 L 249.19,414.67 L 249.21,414.70 L 249.22,414.71 L 249.23,414.71 L 249.26,414.70 L 249.43,414.66 L 249.55,414.84 L 249.63,414.83 L 249.75,414.81 L 249.83,414.81 L 249.89,414.81 L 249.94,414.82 L 249.98,414.83 L 250.01,414.84 L 250.00,414.98 L 249.98,415.22 L 249.98,415.36 L 249.97,415.53 L 249.97,415.61 L 249.97,415.72 L 249.99,416.01 L 250.00,416.10 L 250.01,416.21 L 250.02,416.32 L 250.03,416.39 L 250.04,416.45 L 250.05,416.51 L 250.05,416.58 L 250.05,416.67 L 250.05,416.73 L 250.07,416.80 L 250.08,416.87 L 250.12,417.05 L 250.13,417.11 L 250.14,417.18 L 250.14,417.22 L 250.13,417.25 L 250.12,417.30 L 250.11,417.38 L 250.11,417.40 L 250.12,417.45 L 250.12,417.53 L 250.13,417.62 L 250.15,417.68 L 250.18,417.76 L 250.22,417.84 L 250.26,417.89 L 250.30,417.94 L 250.27,417.94 L 250.24,417.94 L 250.19,417.95 L 250.13,417.97 L 250.02,417.97 L 249.97,417.97 L 249.90,417.97 L 249.84,417.97 L 249.81,417.97 L 249.79,418.02 L 249.76,418.07 Z" fill="#E5E7EB" stroke="#374151" stroke-width="1" fill-rule="evenodd"/>
</svg>