<?xml version="1.0" encoding="UTF-8"?>
<!DOCTYPE svg PUBLIC "-//W3C//DTD SVG 1.1//EN" "http://www.w3.org/Graphics/SVG/1.1/DTD/svg11.dtd">
<!-- Creator: CorelDRAW 2021 (64-Bit) -->
<svg xmlns="http://www.w3.org/2000/svg" xml:space="preserve" width="0.382484in" height="0.358728in" version="1.1" shape-rendering="geometricPrecision" text-rendering="geometricPrecision" image-rendering="optimizeQuality" fill-rule="evenodd" clip-rule="evenodd"
viewBox="0 0 65.72 61.64"
 xmlns:xlink="http://www.w3.org/1999/xlink"
 xmlns:xodm="http://www.corel.com/coreldraw/odm/2003">
 <g id="Layer_x0020_1">
  <metadata id="CorelCorpID_0Corel-Layer"/>
  <path fill="none" fill-rule="nonzero" stroke="#336666" stroke-width="0.52" stroke-miterlimit="2.61313" d="M37.06 15.11l-0.38 0c0.1,-0.43 0.25,-0.86 0.39,-1.4 -0.05,-0.54 -0.05,-1.07 -0.06,-1.72 0.44,-0.86 -0.01,-1.72 -0.46,-2.25 0,-0.11 -0,-0.21 -0,-0.43 -0.55,-1.18 -1.1,-2.25 -1.61,-3.54 -0.05,-0.43 -0.05,-0.86 -0.05,-1.4 -0.37,-0.35 -0.74,-0.78 -1.08,-1.27 -0.1,-0.03 -0.19,-0.21 -0.27,-0.33 -0.13,0 -0.27,0.02 -0.44,0.11 -0,-0.11 0.05,-0.32 0.05,-0.54 -0.04,-0.04 -0.08,-0.09 -0.11,-0.14 -0.24,0.01 -0.48,0.02 -0.72,0.02 -0.16,-0.11 -0.31,-0.22 -0.47,-0.44l-0 -0.6 -0.21 -0.06 -0.93 0.01c-0.93,-0.66 -1.87,0.01 -2.27,1.69 -0.15,0.22 -0.31,0.34 -0.47,0.45 0,0.22 0,0.56 0,0.67 -0.15,0 -0.31,0 -0.52,0 -0.41,0 -0.88,-0.66 -1.61,-1.55 -0.16,-0.11 -0.31,-0.22 -0.47,-0.44 -0,-0.34 -0,-0.78 -0.01,-1.34 -0.16,-0.11 -0.31,-0.22 -0.47,-0.44l0 -0c-0.25,0.31 -0.51,0.6 -0.77,0.85 -0.14,0.19 -0.27,0.38 -0.39,0.54 -0.81,0.01 -0.09,0.03 -1.24,0.87 -0.82,0.01 -0.07,-0.02 -1.54,0.44 -0.75,0.01 -1.49,0.12 -2.24,0.12 -0.48,-0.36 0,0.1 -0.45,-0.43 -0.26,0.29 -0.63,0.7 -0.84,1.08 -1.1,0.01 -2.24,0.12 -3.34,0.13 -0.15,0.22 -0.3,0.32 -0.4,0.43 0,0.32 0,0.64 -0.05,0.86 -0.3,0.32 -0.6,0.65 -0.84,0.97 0,0.43 0,0.86 0,1.18 -0.2,0.32 -0.4,0.65 -0.59,0.86 -0.15,0.22 -0.35,0.43 -0.5,0.54 -0.35,0.22 -0.65,0.33 -0.94,0.54 0,0.21 0,0.43 0,0.64 0.2,-0 0.35,-0.11 0.5,-0.11 0.8,0.42 1.55,0.74 2.29,0.95 0.35,0.75 0.7,1.5 1.1,2.25 0,0.32 0,0.54 0.05,0.64 0.1,0.21 0.25,0.32 0.4,0.43 0.15,0.43 0.3,0.75 0.55,0.96 1.3,1.57 0.82,1.22 1.01,1.67 0,0.43 0.29,0.68 0.35,1.11 0,0.32 0,0.64 0,0.97 0,0.97 -0.89,1.4 -3.28,1.53 -0.5,0.54 -1.34,0.01 -2.74,-0.3 -0.5,-0.21 -1,-0.64 -1.4,-0.96 0,0.75 0,1.4 0.01,1.93 -0.2,0.54 -0.39,1.08 -0.59,1.51 -0.56,0.3 -0.97,0.75 -1.78,1 -0.45,0 -0.87,-0.18 -1.3,-0.33 -0.14,-0.05 -0.32,0.05 -0.45,0 0,1.07 0.01,2.15 0.01,3.33 -0.15,0.43 -0.3,0.75 -0.4,1.08 0,0.43 -0.42,0.11 -1.51,0.66 -0.95,0.01 -2.38,0.44 -3.22,0.45l0.02 0.05c0.18,0.07 0.36,0.13 0.54,0.17 0.22,0.69 0.6,1.11 0.98,1.43 0.34,0.19 0.65,0.33 0.82,0.49 0.09,0.1 0.19,0.25 0.31,0.42 0.48,0.47 1.39,1.4 2.64,2.89 1.4,0.63 2.84,1.48 4.24,2.23 0.95,0.42 1.4,0.85 2.05,1.17 0.55,1.29 1.4,1.82 2.8,1.81 0.4,-0 1.3,0.42 1.95,1.28 0.15,0.32 0.3,0.64 0.5,0.86 0.1,0.32 0.25,0.43 0.4,0.54 1.16,0.62 2.3,1.18 3.44,1.72 0.36,0.12 0.72,0.36 1.09,0.51 2.24,1.19 0.66,-0.23 2.36,1.59 1.44,-0.12 2.84,-0.13 4.23,-0.14 0.68,1.92 0.51,3.11 0.52,4.83 -0.15,0.32 -0.3,0.76 -0.4,0.97 -0.15,0 -0.3,0 -0.45,0 -0.15,0.54 -0.29,1.08 -0.39,1.61 -0.5,0.86 -0.49,1.29 -0.89,1.83 -0.55,0.22 -1.04,0.44 -1.54,0.65 -0.15,0.22 -0.3,0.32 -0.4,0.43 -0.15,0 -0.35,0 -0.5,0 -0.15,0.32 -0.25,0.65 -0.35,0.86 -0.05,-0.11 -0.05,-0.21 -0.05,-0.43l-0.01 -0.01c-0.06,0.08 -0.12,0.16 -0.18,0.23 0,0.22 0,0.43 0,0.65 0.2,0.32 0.45,0.75 0.65,1.07 0.25,0.21 0.55,0.32 0.85,0.42 0.2,-0.11 0.35,-0.11 0.5,-0.11 0.3,-0.11 0.6,-0.22 0.89,-0.44 0.1,-0.11 0.25,-0.22 0.4,-0.54 0.15,-0 0.3,-0 0.45,-0 0.07,-0.03 0.15,-0.07 0.23,-0.12 0.14,0.48 0.28,0.78 0.42,1.08 0,0.32 0,0.65 0.05,0.86 0.15,0.32 0.3,0.64 0.45,0.96 0.3,0.32 0.6,0.75 0.95,0.96 0.25,-0 0.55,-0.11 0.85,-0.11 0.8,-0.11 1.59,-0.23 2.44,-0.55 0.15,-0.22 0.3,-0.54 0.45,-0.86 0.1,-0 0.25,-0 0.4,-0 0,-0.11 -0,-0.32 -0,-0.54 0.15,-0.11 0.3,-0.22 0.45,-0.43 -0.05,-0.64 -0.05,-1.4 -0.06,-2.15 -0.15,-0.11 -0.3,-0.21 -0.45,-0.43 0,-0.11 -0,-0.21 -0,-0.43 0.25,-0.43 0.54,-0.86 0.89,-1.51 0.64,-0.76 1.29,-1.41 1.94,-2.05 0.1,-0.32 0.25,-0.65 0.44,-0.97 0.15,-0.11 0.3,-0.22 0.45,-0.43 0.25,-0 0.55,-0 0.85,-0.01 0.15,-0.22 0.3,-0.32 0.45,-0.54 0.25,-0.22 0.55,-0.33 0.84,-0.54 0.15,-0.11 0.35,-0.32 0.5,-0.54 0.74,-0.65 1.59,-1.3 2.43,-2.06 0.15,-0.32 0.3,-0.65 0.45,-0.97 1.49,-1.84 3.02,-3.68 4.56,-5.41 0.1,-0 0.25,-0.11 0.4,-0.11 0.15,-0.22 0.3,-0.65 0.45,-0.97 0.3,-0.43 0.6,-0.97 0.94,-1.51 0.25,-0.32 0.55,-0.65 0.84,-1.08 0.5,-0.43 0.99,-0.76 1.49,-1.08 0.35,-0.11 0.65,-0.33 0.94,-0.54 0.25,-0 0.55,-0 0.85,-0.01 0.15,-0.11 0.3,-0.22 0.45,-0.43 0,0.64 0,1.29 0.01,1.93 0.15,0.21 0.3,0.43 0.45,0.64 0,0.22 0,0.32 0.05,0.43 0.1,0 0.25,-0 0.4,-0 0.15,0.21 0.3,0.32 0.45,0.43 0.35,0.21 0.75,0.43 1.15,0.53 1.35,-0.12 2.79,-0.13 4.18,-0.14 0.89,-0.65 1.79,-1.09 2.24,-1.52 0.84,-0.65 1.29,-1.3 1.73,-2.59 0.2,-0.32 0.4,-0.65 0.64,-0.97 -0.05,-0.22 -0.05,-0.65 -0.05,-0.97 -0.25,-0.21 -0.45,-0.53 -0.65,-0.86 -0.15,-0.21 -0.3,-0.43 -0.45,-0.75 -0,-0.22 -0,-0.54 -0,-0.86 -0.2,-0.54 -0.35,-0.96 -0.5,-1.5 -0.45,0 -0.9,0 -1.3,0.01 -0.5,0.54 -1.34,0.12 -2.5,-1.38 -0.15,-0.11 -0.3,-0.21 -0.45,-0.53 -0.3,0 -0.6,0 -0.85,0 -0.5,0.33 -0.95,0.44 -1.34,0.55 -0.7,0 -1.34,0.12 -2.04,0.12 -1.3,0.01 -3.04,-1.05 -4.64,-2.22 -0.34,-0.37 -0.65,-0.68 -0.95,-0.92 -0.63,-0.4 -1.25,-0.63 -1.85,-0.67 -0.27,0.03 -0.54,0.1 -0.84,0.22 -0.32,0 -0.75,0.34 -1.11,0.69 -0.09,0.14 -0.2,0.27 -0.38,0.39 -0.89,0.87 -1.79,1.3 -2.63,1.42 -0.42,0.13 -0.76,0.19 -1.05,0.17 -0.97,0.04 -1.55,-0.36 -1.89,-1.01 -0.45,-0.43 -0.45,-0.86 -0.51,-1.93 0.25,-0.54 0.54,-1.08 0.84,-1.62 0.25,-0.22 0.55,-0.54 0.89,-0.97 -0,-0.11 -0,-0.22 -0,-0.43 -0.43,-0.82 -1.31,-1.34 -2.51,-1.38l-0 0 -0.06 -0 -0 0 -0.06 -0 -0.06 0 -0.02 -0.02c-0.43,-0.32 -0.86,-1.24 -0.88,-2.75l-0 -0.06 0 -0.01 -0 -0.06c-0.05,-0.22 -0.05,-0.54 -0.05,-0.86 -0.15,-0.11 -0.3,-0.32 -0.45,-0.53l-0.01 0 -0.01 0 -0.01 0zm-9.02 42.29l-0.01 0 -0 0 0.01 -0z"/>
 </g>
</svg>
