<?xml version="1.0" encoding="UTF-8"?>
<!DOCTYPE svg PUBLIC "-//W3C//DTD SVG 1.1//EN" "http://www.w3.org/Graphics/SVG/1.1/DTD/svg11.dtd">
<!-- Creator: CorelDRAW 2021 (64-Bit) -->
<svg xmlns="http://www.w3.org/2000/svg" xml:space="preserve" width="0.62802in" height="0.676268in" version="1.1" shape-rendering="geometricPrecision" text-rendering="geometricPrecision" image-rendering="optimizeQuality" fill-rule="evenodd" clip-rule="evenodd"
viewBox="0 0 100.33 108.04"
 xmlns:xlink="http://www.w3.org/1999/xlink"
 xmlns:xodm="http://www.corel.com/coreldraw/odm/2003">
 <g id="Layer_x0020_1">
  <metadata id="CorelCorpID_0Corel-Layer"/>
  <path fill="none" fill-rule="nonzero" stroke="#336666" stroke-width="0.48" stroke-miterlimit="2.61313" d="M92.4 62.81c0.36,-1.6 -0.06,-2.4 -0.94,-2.79 -0.42,-0.1 -0.83,-0.19 -1.21,-0.49 -0.37,-0.1 -0.74,-0.29 -1.07,-0.39 -0.42,-0.4 -1.25,-0.79 -1.72,-1.19 -0.56,-0.69 -1.12,-1.29 -1.63,-1.98 -1.11,-0.79 -1.53,-1.68 -1.54,-2.18 -0.06,-2.4 -0.11,-4.89 -0.12,-7.39 -0.14,0 -0.32,0 -0.46,0 -1.2,0.41 -2.5,0.12 -4.41,-2.06 -0.14,-0.1 -0.28,-0.3 -0.42,-0.5 -2.09,-1.78 -4.14,-3.66 -6.23,-5.54 -0.42,-0.1 -0.83,-0.19 -1.21,-0.39 -0.55,0.01 -1.44,0.01 -2.07,0.08l-0.07 -2.15c-1.58,-1.68 -3.21,-3.27 -4.79,-4.85 -0.05,-0.1 -0.05,-0.3 -0.05,-0.5 -0.28,-0.1 -0.6,-0.19 -0.84,-0.39 -1.07,-2.09 -2.19,-4.27 -3.27,-6.46 -0.19,-0.6 -0.33,-1.2 -0.47,-1.79 0.14,-0.1 0.28,-0.3 0.41,-0.5 -0.14,-0.1 -0.28,-0.2 -0.42,-0.4 0.14,-0 0.28,-0 0.42,-0 0.09,-0.1 0.23,-0.3 0.37,-0.5 1.25,-0.61 1.85,-1.11 1.85,-1.51 -0.23,-0.3 -0.42,-0.59 -0.61,-0.89 -0.14,-0.5 -0.28,-0.9 -0.47,-1.29 -1.11,-0.49 -2.27,-1.08 -3.34,-1.47 -0.42,-0.5 -0.79,-1.19 -1.12,-1.79 -0.14,-0.1 -0.28,-0.2 -0.37,-0.4 -0.05,-0.1 -0.05,-0.2 -0.05,-0.4 -0.19,-0.1 -0.33,-0.3 -0.47,-0.5 -0.14,0.2 -0.28,0.4 -0.37,0.5 -0.14,0 -0.28,0 -0.42,0 -0,-0.1 -0,-0.3 -0,-0.5 -0.14,0 -0.28,-0.1 -0.42,-0.3 -0.33,-0.6 -0.61,-1.29 -0.89,-1.99 -0,-0.4 -0.88,-0.89 -2.32,-1.38 -0.46,0 -0.93,-0.09 -1.3,-0.29 -0.88,-0.39 -1.3,-0.79 -0.89,-1.79 -0.05,-0.4 -0.05,-0.9 -0.05,-1.5 0.14,-0.3 0.28,-0.6 0.41,-0.9 0.23,-0.2 0.55,-0.51 0.83,-0.91 0,-0.1 -0,-0.2 -0,-0.4 -0.14,-0.1 -0.33,-0.3 -0.47,-0.5 -0.19,-0.3 -0.33,-0.7 -0.47,-1.09 -0.28,-0.1 -0.56,-0.19 -0.79,-0.39 -0.46,-0.4 -1.49,-0.79 -1.95,-0.28 -0.28,0 -0.56,0.01 -0.79,0.01 -0.55,0.31 -1.16,0.61 -1.66,0.81 -0.74,0.31 -1.48,0.51 -2.22,0.82 -0.6,0.3 -1.16,0.61 -1.66,0.91 -0.14,0.2 -0.28,0.3 -0.37,0.4 -0.56,0.11 -0.97,0.11 -1.44,0.11 -0.14,0.2 -0.28,0.3 -0.37,0.5 -0.32,0.2 -0.6,0.3 -0.88,0.41 -0.55,0.5 -1.06,0.91 -1.62,1.51 -0.14,0.4 -0.28,0.7 -0.41,1 -0.14,0 -0.28,0 -0.37,0 0,0.2 0,0.3 0,0.4 -0.32,0.7 -0.64,1.3 -0.97,1.81 -0.46,0.6 -0.88,1.01 -1.2,1.41 -0.41,0.8 -0.83,1.7 -1.24,2.5 -1.15,1.31 -1.75,2.71 -1.7,5.1 0.01,1.6 0.01,3.19 0.06,4.69 -0.55,0.31 -1.06,0.61 -1.62,0.81 -0.14,0.2 -0.28,0.4 -0.42,0.5 -4.93,-4.65 -9.81,-9.5 -14.64,-14.35 -2.74,-2.67 -4.46,-3.95 -5.11,-4.35 -0.09,-0.1 -0.14,-0.2 -0.19,-0.4 -0.37,0.2 -0.69,0.31 -1.06,0.41 -0.14,0.2 -0.28,0.3 -0.42,0.4 -0.28,0.2 -0.55,0.4 -0.79,0.51 -0.14,0.2 -0.28,0.3 -0.42,0.5 -0.14,0.1 -0.28,0.1 -0.42,0.1 -0.6,0.7 -1.2,1.31 -1.75,2.01 -0.14,0.3 -0.28,0.6 -0.41,0.8 -0.41,0.8 -0.36,1.8 0.06,2.59 -0.14,0.9 -0.23,1.7 -0.32,2.5 0,0.3 0,0.6 0,0.9 -0.14,0.2 -0.28,0.3 -0.41,0.4 -0.14,0 -0.28,0 -0.37,0 -0.28,0.4 -0.6,0.7 -0.88,1.01 -0.28,0.5 -0.55,1 -0.78,1.6 0.28,0.2 0.56,0.29 0.88,0.29 0.14,0.2 0.28,0.3 0.42,0.4 0.37,-0 0.79,-0.01 1.25,-0.01 1.39,0.39 1.86,0.98 1.86,1.78 0,0.5 0,1.1 0.05,1.5 0.14,0.4 0.28,0.9 0.42,1.3 0.47,1.29 0.52,2.59 0.11,3.39 -1.38,3.1 -0.3,5.39 3.73,6.16 1.21,0.39 2.87,-0.02 4.72,-0.54 0.19,-0 0.42,-0 0.6,-0.01 0.65,-0.01 0.65,0.39 0.65,0.79 0.14,0.7 0.28,1.5 0.47,2.19 0.05,1.99 0.47,2.89 0.89,3.29 0.14,0.2 0.28,0.3 0.42,0.4 3.16,1.47 4.41,2.76 4.83,4.05 0.1,2.89 1.18,5.08 3.31,6.26 0.14,0.3 0.28,0.5 0.42,0.7 1.9,1.08 2.79,2.07 2.79,2.87 0,0.2 0,0.3 0.05,0.5 -0.14,0.4 -0.27,0.8 -0.41,1.1 -0.37,1.3 -0.36,2.2 0.06,2.59 0.14,0.3 0.28,0.4 0.42,0.49 2.14,1.88 2.61,3.17 2.19,4.47 -0.23,0.96 -0.3,1.84 -0.2,2.5 -0.11,0.16 -0.23,0.31 -0.34,0.4 -0.18,0 -0.32,0 -0.42,0 -0.28,0.2 -0.55,0.4 -0.83,0.61 -0.28,0.3 -0.55,0.6 -0.78,0.8 -0.28,0.2 -0.6,0.3 -0.83,0.41 -0.41,0.5 -0.88,1.01 -1.34,1.51 0.14,0.2 0.28,0.4 0.42,0.5 0,0.2 0,0.3 0,0.4 0.33,0.7 0.65,1.29 1.07,1.79 0.28,0.3 0.56,0.59 0.79,0.79 0.14,0.4 0.28,0.7 0.42,0.99 0.19,0.2 0.33,0.3 0.46,0.4 0.14,0.4 0.28,0.7 0.42,1.09 0,0.3 0,0.6 0.05,0.9 0.14,0.3 0.28,0.6 0.42,0.69 0.47,0.5 0.89,1.39 0.89,2.49 0,0.5 0,0.9 0.05,1.3 0.09,-0 0.23,-0 0.37,-0 0.19,0.2 0.46,0.3 0.7,0.39 0.51,0.49 1.07,0.89 1.67,1.18 0.14,0.2 0.28,0.4 0.42,0.5 1.11,0.49 2.32,1.08 3.53,1.37 1.39,-0.31 2.82,-0.62 4.3,-1.23 0.42,-0 0.83,-0.01 1.25,-0.01 0.51,-0.3 1.06,-0.61 1.57,-0.91 0.46,-0.2 0.93,-0.61 1.48,-0.91 1.99,-1.41 3.24,-1.82 4.72,-1.03 2.92,1.57 4.83,3.56 4.88,4.95 0.47,0.79 0.01,1.7 -0.36,2.6 -0.14,0.8 -0.79,1.7 -0.88,2.4 -0.14,0.3 -0.28,0.6 -0.41,0.8 0,0.2 0,0.4 0.05,0.6 -0.23,0.2 -0.42,0.3 -0.6,0.4 -0.14,0.4 0.24,0.7 0.1,1 0,0.3 0,0.6 0.05,1 -1.14,4.1 -0.67,7.31 0.58,8.5 0.65,1.19 1.86,1.58 3.16,1.47 0.88,0.39 1.81,0.78 2.69,1.18 0.14,0.2 0.28,0.4 0.47,0.59 0.14,-0 0.28,-0.1 0.42,-0.1 1.2,-0.01 1.57,-0.61 2.03,-1.01 1.8,-1.81 3.42,-2.92 4.67,-2.93 0.6,-0 1.2,-0.01 1.81,-0.11 0.42,-0.1 0.83,-0.21 1.25,-0.41 0.42,0.2 0.84,0.29 1.3,0.39 0.33,0.4 0.65,0.69 1.02,0.89 0.09,-0.2 0.23,-0.4 0.37,-0.6 0.42,-0 0.88,-0.01 1.3,-0.01 2.04,-0.81 3.47,-0.93 4.35,-0.13 0.28,0.5 0.56,1.09 0.84,1.59 0.14,0.4 0.28,0.8 0.42,1.19 0.33,0.3 0.6,0.69 0.88,0.89 0.19,0.3 0.37,0.6 0.61,0.79 0,0.2 0,0.4 0,0.6 0.14,0 0.28,-0 0.42,-0 0.14,0.2 0.33,0.5 0.46,0.6 1.2,-0.01 2.09,-0.13 2.5,0.17 0,0.4 0.42,0.79 0.84,0.79 0.32,-0 0.65,-0.01 1.07,-0.01 1.99,-0.52 2.82,-1.72 2.81,-3.32 0.32,-0.8 0.64,-1.7 0.96,-2.6 -0.05,-0.5 -0.05,-1.1 -0.05,-1.6 -0,-0.4 -0.66,-1.79 -1.08,-2.99 -0.14,-0.6 -0.28,-1.3 -0.47,-1.99 -0.05,-0.8 0.41,-1.8 0.78,-2.2 1.38,-1.41 1.84,-2.41 1.84,-2.81 -0.05,-0.3 -0.05,-0.7 -0.05,-1 0.09,-0.5 0.23,-1 0.36,-1.7 0.28,-0.1 0.56,-0.3 0.83,-0.51 0.37,-0.2 0.83,-0.31 1.25,-0.51 0.32,-0.2 0.65,-0.4 1.02,-0.61 0.23,-0.4 0.55,-0.9 0.83,-1.4 0.23,-0.2 0.46,-0.5 0.74,-0.8 0.51,-0.2 1.11,-0.31 1.66,-0.51 0.09,-0.1 0.23,-0.3 0.37,-0.5 0.19,-0 0.37,-0 0.6,-0 0,-0.1 -0,-0.3 -0,-0.5 -0.23,-0.2 -0.42,-0.5 -0.61,-0.79 -0.05,-0.5 -0.05,-1.1 -0.05,-1.6 0.18,-0.5 0.37,-1 0.6,-1.7 -0.05,-0.3 -0.05,-0.6 -0.05,-0.9 0.23,-0.3 0.55,-0.6 0.83,-1.1 -0,-0.5 -0,-1.1 -0.01,-1.7 -0.28,-0.6 -0.61,-1.19 -0.89,-1.79 -0.65,-0.99 -1.3,-1.89 -1.96,-2.88 -0.14,-0.1 -0.28,-0.4 -0.42,-0.69 -0.14,-0.1 -0.28,-0.2 -0.42,-0.4 -0,-0.5 -0.79,-1.99 -2.1,-3.38 -1.48,-0.29 -1.9,-1.08 -1.91,-1.68 -0,-0.2 -0,-0.5 -0,-0.8z"/>
 </g>
</svg>
