<?xml version="1.0" encoding="UTF-8"?>
<!DOCTYPE svg PUBLIC "-//W3C//DTD SVG 1.1//EN" "http://www.w3.org/Graphics/SVG/1.1/DTD/svg11.dtd">
<!-- Creator: CorelDRAW 2021 (64-Bit) -->
<svg xmlns="http://www.w3.org/2000/svg" xml:space="preserve" width="0.67561in" height="0.606701in" version="1.1" shape-rendering="geometricPrecision" text-rendering="geometricPrecision" image-rendering="optimizeQuality" fill-rule="evenodd" clip-rule="evenodd"
viewBox="0 0 141.23 126.83"
 xmlns:xlink="http://www.w3.org/1999/xlink"
 xmlns:xodm="http://www.corel.com/coreldraw/odm/2003">
 <g id="Layer_x0020_1">
  <metadata id="CorelCorpID_0Corel-Layer"/>
  <path fill="none" fill-rule="nonzero" stroke="#336666" stroke-width="0.63" stroke-miterlimit="2.61313" d="M125.46 48.91c-0.79,-1.04 -1.88,-1.56 -2.37,-1.55 -1.7,0.01 -2.73,-0.64 -3.4,-2.2 -0.79,-0.39 -1.34,-0.91 -2.49,-1.42 -1.7,-0.9 -3.46,-1.94 -5.16,-2.71 -1.64,-1.95 -2.8,-3.12 -3.35,-3.64 -0.55,-0.65 -1.88,-1.03 -2.43,-2.73 -0.55,-0.13 -1.09,-0.38 -1.64,-0.64 -0.55,-0.39 -1.09,-0.78 -1.64,-1.3 -0.36,-0.26 -0.73,-0.52 -1.09,-0.91 -1.4,-0.77 -2.49,-2.33 -4.14,-4.94 -0.55,-1.7 -2.49,-1.55 -4,-0.89 -0.18,0 -0.36,0 -0.54,0 0,0.26 0,0.39 0,0.52 -0.61,0 -1.15,0.01 -1.64,0.01 -0.55,-0.39 -1.58,-0.38 -2.37,-0.38 -0.61,0 -1.15,0.01 -1.7,0.01 -1.03,0.01 -2.18,-0.51 -2.73,-1.55 -0.18,-0.13 -0.36,-0.39 -0.55,-0.65 -0.79,-0.52 -1.34,-0.51 -1.88,-0.51 -0.55,-0.13 -1.15,-0.38 -1.64,-0.64 -0.55,0.13 -1.09,0.14 -1.58,0.14 -0.67,-0.52 -1.28,-1.17 -1.95,-1.82 -1.27,0.01 -2.54,0.15 -3.82,0.16 -0.55,-0.65 -1.1,-1.82 -0.56,-3.39 -0.06,-0.13 -0.06,-0.26 -0.06,-0.52 -0.67,-0.91 -1.28,-1.69 -1.89,-2.6 -0.55,-0.65 -1.16,-1.17 -2.19,-1.68 -0.36,-0.13 -0.73,-0.26 -1.09,-0.52 -0.61,-0.13 -1.27,-0.25 -1.88,-0.51 -0.55,0 -1.09,-0.52 -1.64,-1.04 -0.55,-1.3 -1.16,-1.95 -2.19,-2.6 -0.67,-0.13 -1.27,-0.25 -1.88,-0.51 -1.15,-0.52 -2.18,0.15 -3.75,1.99 -0.24,0.26 -0.42,0.39 -0.54,0.53 -0.54,0.79 -1.88,0.01 -2.43,-0.51 -0.36,-0.13 -0.79,-0.26 -1.15,-0.51 -0.55,-0.39 -1.09,-0.78 -1.58,-1.17 -0.18,-0.26 -0.37,-0.65 -0.55,-1.04 -0.18,0 -0.36,0 -0.55,0 -0,-0.26 -0,-0.65 -0,-1.18 -0.25,-0.91 -0.49,-1.96 -0.68,-3 -0.79,-1.3 -1.4,-2.21 -3.04,-2.72 -1.15,0.01 -2.3,0.02 -3.51,0.15 0,0.26 0,0.39 0,0.52 0,0.52 -0.48,1.57 -2.05,2.89 -0.54,0.53 -1.09,0.92 -1.63,1.32 -2.36,1.58 -4.78,2.91 -7.2,4.23 -0.79,0 -1.58,0.01 -2.36,0.02 -0.54,0.27 -1.15,0.53 -1.63,0.66 -1.09,0.01 -3.03,-0.5 -4.61,-2.06 -1.09,-0.51 -2.25,-1.03 -3.28,-1.67 -0.49,-0.39 -0.97,-0.78 -1.46,-1.3 0,0.26 0,0.52 0.06,0.78 -0.18,0 -0.36,0 -0.54,0 -0.66,0.79 -1.39,1.71 -2.05,2.37 -0.48,0.66 -1.09,1.18 -2.9,1.72 -0.36,0.26 -0.73,0.53 -1.03,0.66 -1.15,0.4 -2.18,1.06 -3.21,1.33 -0.18,0 -0.36,0 -0.55,0 -1.03,1.05 -1.99,2.1 -2.9,3.03 -0.73,0.53 -1.51,1.06 -2.18,1.32 -0.18,0 -0.36,0 -0.48,0 -0.3,0.26 -0.54,0.53 -0.79,0.66 -0.36,0.26 -0.73,0.4 -1.09,0.53 0.01,1.44 0.07,2.87 0.14,4.18 0.18,0.39 0.37,0.78 0.55,1.17 0.43,1.3 0.92,2.47 1.47,3.65 0,0.52 0.55,1.17 1.58,1.56 0.55,0.65 1.7,0.64 2.73,-0.02 0.79,-0.14 1.57,-0.27 2.36,-0.54 0.42,-0.27 0.79,-0.4 1.15,-0.79 0.48,-0 1.03,-0.01 1.58,-0.01 0.79,-0.27 1.57,-0.66 2.36,-1.06 0.3,-0.39 0.66,-0.92 1.03,-1.31 0.3,-0.26 0.66,-0.53 1.03,-0.79 1.81,-1.19 3.63,-2.25 5.56,-3.57 0.48,-0.53 1.03,-1.05 1.57,-1.84 0,0.26 0,0.65 0,0.78 0.18,0 0.36,-0 0.54,-0 0,0.39 0,0.79 0,1.05 0.85,0.39 1.64,0.77 2.49,0.9 -0.18,0.78 -0.36,1.7 -0.48,2.35 -0.79,0.66 -1.57,1.06 -2.42,1.45 -0.72,0.79 -1.39,1.58 -2.05,2.36 0,0.26 0,0.39 0,0.52 -0.18,0.39 -0.36,0.79 -0.54,1.18 -0.18,0.26 -0.36,0.39 -0.48,0.53 0.01,1.7 0.01,3.27 0.08,4.83 -0.48,1.18 -0.48,2.49 0.07,3.66 0.37,0.52 0.73,0.91 1.1,1.17 0.55,0.78 1.16,1.56 1.71,2.21 0.37,0.52 0.73,1.04 1.1,1.43 0.42,0.26 0.85,0.39 1.33,0.51 0.73,-0 1.45,-0.01 2.18,-0.01 0.18,0.26 0.37,0.39 0.55,0.52 1.15,-0.01 2.36,-0.15 3.51,-0.15 0.18,0.26 0.37,0.39 0.55,0.52 0.49,0.26 1.03,0.39 1.64,0.51 0.36,-0 0.73,-0 1.09,-0.01 0.79,0.39 1.58,0.64 2.43,1.16 0.18,0.39 0.37,0.78 0.55,1.04 0.18,0.26 0.36,0.39 0.55,0.52 0.18,-0 0.36,-0 0.55,-0 0.18,0.26 0.36,0.39 0.55,0.52 1.52,-0.01 3.03,-0.15 4.54,-0.16 -0,-0.13 -0,-0.26 -0,-0.52 1.64,-0.01 3.28,1.42 4.44,3.11 0,0.39 0,0.78 0,1.18 -0.24,0.39 -0.42,0.79 -0.54,1.05 0,0.39 0,0.92 0,1.18 -0.36,0.52 -0.72,1.05 -1.03,1.44 -0.18,0.39 -0.36,0.92 -0.48,1.18 0,0.92 0.01,1.96 0.07,2.87 -0.54,1.18 -1.08,2.49 -1.56,3.67 -0.18,0.26 -0.72,0.79 -0.84,0.92 0.37,1.07 1.59,1.3 2.55,1.81 0.36,-0 0.73,-0 1.09,-0.01 0.36,0.39 0.79,0.78 1.16,1.17 0.49,0.39 1.03,0.78 1.58,1.03l0.27 0.25 0.03 0.01 0.09 0.09c0.3,0.26 0.61,0.5 0.94,0.68 0.36,0.13 0.79,0.52 1.15,0.65 0.85,0.26 1.76,0.38 2.67,0.5 0.36,-0 0.73,-0 1.15,-0.01 0.43,0.26 0.85,0.39 1.27,0.38 1.21,-0.01 2.42,-0.02 3.76,-0.02l0.81 0.57c0.16,0.07 0.32,0.13 0.47,0.18 0.05,-0 0.09,-0 0.14,0 0.22,-0.03 0.44,0.06 0.61,0.28 0.25,0.26 0.4,0.69 0.4,1.29 0,0.04 -0,0.08 -0.01,0.13 0,0.08 0.01,0.17 0.01,0.27 0,0.15 -0.1,0.34 -0.26,0.58 -0.27,0.57 -0.76,1.26 -1.55,2.05 -0.18,0.26 -0.36,0.39 -0.48,0.53 0,0.52 0,1.05 0.01,1.44 -0.18,0.26 -0.36,0.53 -0.54,0.66 0,0.26 0,0.39 0.06,0.52 -0.6,0.53 -1.15,1.05 -1.08,2.88l0 0.25 0 0.01 0 0.03 0 0 0 0.04 0 0 0 0.03 0 0.01 0 0.03 0 0.01 0 0.03c0.01,1.63 -0.04,4.34 1.23,5.43 0.36,0.39 0.73,0.78 1.09,1.04l0.04 0.1c0.07,0.06 0.13,0.11 0.2,0.16 0.14,0.38 0.27,0.77 0.41,1.15 0.38,0.72 0.71,1.26 0.75,1.59 0.67,0.78 1.4,1.56 2.19,2.34 0.8,0.5 1.63,1 2.47,1.44 0.35,0.14 0.64,0.47 1,0.59l0.34 0.19c0.09,0.04 0.18,0.08 0.27,0.12 1.09,0.52 1.64,1.56 1.7,2.21 0.01,1.44 0.01,2.88 0.08,4.05 -0.18,0.65 -0.36,1.18 -0.54,1.7 -0.18,0.39 -0.42,0.79 -0.54,1.18 0,0.26 0,0.39 0,0.52 0.18,0.65 0.43,1.3 0.67,2.09 0.55,1.04 1.58,1.56 2.13,1.56 0.3,-0.13 0.66,-0.4 1.03,-0.66 0.18,0 0.3,-0 0.48,-0 0.42,-0.26 0.91,-0.66 1.39,-1.06 0.48,-0.53 1.03,-1.05 1.57,-1.58 0.48,-0.53 0.97,-1.05 1.51,-1.58 0.01,1.44 0.07,2.74 0.14,4.18 0.55,1.57 1.95,2.08 2.98,2.6 0.36,0.26 0.73,0.39 1.09,0.52 1.64,0.64 2.73,1.42 3.27,0.5 1.09,-0.27 2.24,-0.8 3.45,-1.2 0.55,-0 1.09,-0.14 1.64,-0.14 0.12,-0.13 0.3,-0.26 0.48,-0.53 0,0.26 0,0.39 0,0.52 0.01,0.01 0.53,0.38 0.85,0.52 0.37,0.78 0.73,1.43 1.1,2.08 0,0.26 0,0.39 0,0.52 0.55,1.7 1.7,2.21 2.25,2.21 2.3,-0.15 3.4,0.5 3.94,1.54 0.18,0.52 0.37,1.04 0.55,1.43 0.24,0.26 0.43,0.39 0.61,0.52 0,0.26 0,0.39 0,0.52 0.18,0.26 0.36,0.39 0.55,0.52 0,0.39 0,0.92 0,1.31 0.36,0.13 0.73,0.26 1.09,0.38 0.18,0.26 0.37,0.39 0.55,0.52 1.34,1.17 2.43,1.94 2.92,1.94l0.05 -0 0.01 0 0.05 -0 0.01 0 0.04 0 0.02 -0 0.03 -0c1.02,-0.02 2.05,-0.14 3.07,-0.15 0,0.58 0.42,0.86 0.79,1.17 0.36,0.26 0.73,0.39 1.09,0.52 1.09,-0.01 2.18,-0.14 3.33,-0.15 0.61,-0.13 1.21,-0.27 1.82,-0.53 -0.14,0.2 -0.28,0.32 -0.39,0.43 0.13,-0.05 0.26,-0.11 0.39,-0.17 0.18,-0.13 0.36,-0.26 0.6,-0.66 -0,-0.26 -0,-0.52 -0,-0.78 0.48,-0.53 -0.07,-1.18 -0.62,-2.74 -0.25,-0.91 -0.43,-2.09 -0.62,-3.13 -0,-0.65 -0.01,-1.44 -0.01,-2.22 0.12,-0.13 0.3,-0.26 0.48,-0.53l0.2 -0.43 -0.4 -1.85 -3.22 -1.78 1.33 -2 1.78 -6.12 0.22 -9.9 5.89 -7.67 0.11 -6 5.23 -10.23 2.11 2.71 0.77 -1.93c0.36,-1.31 0.72,-2.49 1.08,-3.67 0,-0.13 -0,-0.39 -0,-0.65 0.12,-0 0.3,-0 0.48,-0 0.18,0.26 0.37,0.52 0.55,0.65 0,0.26 0,0.39 0,0.52 0.18,0.26 0.37,0.39 0.55,0.52 0,0.26 0,0.39 0.06,0.52 0.12,-0.26 0.24,-0.65 0.42,-1.05 0.18,-0 0.42,-0 0.61,-0 0.12,-0.13 0.3,-0.26 0.48,-0.53 0.61,-0.27 1.21,-0.53 1.88,-0.8 0.48,-0.66 0.48,-1.18 1.08,-2.23 0.12,-0.66 0.3,-1.31 0.48,-1.96 0.18,-0 0.36,-0 0.55,-0 0.12,-0.26 0.3,-0.79 0.48,-1.18 -0,-0.39 -0,-0.78 -0,-1.18 0.54,-1.57 -0.07,-3.14 -0.62,-4.7 -1.7,0.01 -3.39,0.02 -5.15,0.16 -0.36,-0.39 -0.67,-0.78 -0.97,-1.17 -0.55,-0.26 -1.09,-0.38 -1.64,-0.64 -1.94,-0.9 -3.82,-1.8 -5.77,-2.84 -0.18,-0.13 -0.36,-0.26 -0.49,-0.65 -0.24,-0.26 -0.43,-0.65 -0.61,-1.04z"/>
 </g>
</svg>
