<?xml version="1.0" encoding="UTF-8"?>
<!DOCTYPE svg PUBLIC "-//W3C//DTD SVG 1.1//EN" "http://www.w3.org/Graphics/SVG/1.1/DTD/svg11.dtd">
<!-- Creator: CorelDRAW 2021 (64-Bit) -->
<svg xmlns="http://www.w3.org/2000/svg" xml:space="preserve" width="0.752835in" height="0.60526in" version="1.1" shape-rendering="geometricPrecision" text-rendering="geometricPrecision" image-rendering="optimizeQuality" fill-rule="evenodd" clip-rule="evenodd"
viewBox="0 0 157.45 126.58"
 xmlns:xlink="http://www.w3.org/1999/xlink"
 xmlns:xodm="http://www.corel.com/coreldraw/odm/2003">
 <g id="Layer_x0020_1">
  <metadata id="CorelCorpID_0Corel-Layer"/>
  <path fill="none" fill-rule="nonzero" stroke="#336666" stroke-width="0.63" stroke-miterlimit="2.61313" d="M132.8 48.47c-0.3,-0.13 -0.33,-0.32 -0.57,-0.58 -0,-0.13 -0.28,-0.2 -0.28,-0.46 -0.18,0.26 -0.36,0.4 -0.48,0.53 -0.55,0 -1.09,0.14 -1.64,0.14 -1.21,0.4 -2.36,0.93 -3.45,1.2 -0.54,0.92 -1.64,0.14 -3.28,-0.5 -0.36,-0.13 -0.73,-0.26 -1.09,-0.52 -1.03,-0.52 -2.43,-1.03 -2.98,-2.6 -0.07,-1.44 -0.13,-2.75 -0.14,-4.18 -0.54,0.53 -1.03,1.05 -1.51,1.58 -0.54,0.53 -1.09,1.05 -1.57,1.58 -0.48,0.4 -0.97,0.79 -1.39,1.06 -0.18,0 -0.3,0 -0.48,0 -0.36,0.26 -0.73,0.53 -1.03,0.66 -0.55,0 -1.58,-0.51 -2.13,-1.56 -0.25,-0.78 -0.49,-1.44 -0.67,-2.09 -0,-0.13 -0,-0.26 -0,-0.52 0.12,-0.39 0.36,-0.79 0.54,-1.18 0.18,-0.52 0.36,-1.05 0.54,-1.7 -0.07,-1.18 -0.07,-2.62 -0.08,-4.05 -0.06,-0.65 -0.61,-1.7 -1.71,-2.21 -0.3,-0.13 -0.61,-0.26 -0.85,-0.52 -1.09,-0.52 -2.19,-1.16 -3.22,-1.81 -0.79,-0.78 -1.52,-1.56 -2.19,-2.34 -0.06,-0.52 -0.85,-1.56 -1.4,-3 -0.36,-0.26 -0.73,-0.65 -1.1,-1.04 -0.61,-0.52 -1.16,-1.69 -1.16,-3.39 -0.06,-0.78 -0.07,-1.57 -0.07,-2.48 -0.07,-1.83 0.48,-2.36 1.08,-2.88 -0.06,-0.13 -0.06,-0.26 -0.06,-0.52 0.18,-0.13 0.36,-0.39 0.54,-0.66 -0,-0.39 -0,-0.92 -0.01,-1.44 0.12,-0.13 0.3,-0.26 0.48,-0.53 1.33,-1.32 1.81,-2.37 1.81,-3.02 -0,-1.18 -0.55,-1.7 -1.34,-1.56 -0.36,-0.26 -0.73,-0.52 -1.09,-0.78 -1.33,0.01 -2.55,0.02 -3.76,0.02 -0.42,0 -0.85,-0.13 -1.28,-0.38 -0.42,0 -0.79,0 -1.15,0.01 -0.91,-0.13 -1.82,-0.25 -2.67,-0.5 -0.36,-0.13 -0.79,-0.52 -1.15,-0.65 -0.49,-0.26 -0.91,-0.65 -1.34,-1.04 -0.55,-0.26 -1.09,-0.65 -1.58,-1.03 -0.36,-0.39 -0.79,-0.78 -1.16,-1.17 -0.36,0 -0.73,0 -1.09,0.01 -0.49,-0.26 -0.97,-0.52 -1.4,-0.78 -0.18,0 -0.36,0 -0.49,0 -0.06,-0.13 -0.06,-0.26 -0.06,-0.52 -0.18,-0.13 -0.43,-0.26 -0.61,-0.52 -0.18,0.26 -0.36,0.4 -0.48,0.53 -0.18,0 -0.36,0 -0.55,0 -0.55,0 -1.57,0.53 -2.12,1.58 -0.42,0.26 -0.91,0.4 -1.33,0.53 -0.36,0.4 -0.72,0.79 -1.03,1.18 0,0.39 0,0.79 0,1.05 -0.18,0.39 -0.36,0.79 -0.54,1.31 -0.36,0.26 -0.73,0.4 -1.03,0.53 -0.18,0.52 -0.36,0.92 -0.48,1.31 0.37,0.78 0.73,1.56 1.1,2.34 0,0.65 0,1.18 0.01,1.7 -0.36,1.44 -0.66,2.88 -0.96,4.19 -0.18,0.26 -0.36,0.4 -0.54,0.53 -0.18,0 -0.36,0 -0.48,0 -1.21,0.53 -2.36,0.93 -3.51,1.33 -0.73,0.53 -1.51,0.93 -2.18,1.19 -0.61,0.4 -1.21,0.53 -1.82,0.67 -0.36,0 -0.73,0 -1.09,0.01 -1.09,0.01 -1.57,1.45 -2.11,3.67 -0.18,0.66 -0.36,1.18 -0.48,1.7 0,0.65 0,1.44 0.07,2.09 -0.18,0.52 -0.36,1.05 -0.54,1.57 -0.6,0.79 -1.21,1.31 -1.81,1.84 -1.57,1.71 -3.02,2.63 -4.11,3.29 -2.55,-0.64 -5.04,-1.27 -7.58,-1.78 -2.49,-1.68 -4.92,-3.24 -7.42,-4.92 -0.55,-0.91 -2.12,0.14 -5.09,0.82 -0.91,0.4 -1.76,0.8 -2.6,1.19 -1.39,0.01 -2.73,0.02 -4.06,0.03 -0.36,-0.13 -0.79,-0.26 -1.09,-0.52 -0.36,0.13 -0.73,0.14 -1.09,0.14 -1.34,-0.51 -3.46,0.02 -7.45,1.75 -0.73,0 -1.45,0.01 -2.12,0.01 -0.36,0.26 -0.73,0.53 -1.03,0.79 -1.15,0.01 -2.36,0.01 -3.52,0.02 -0.55,0 -1.09,0.53 -0.48,2.22 0.18,0.65 0.37,1.3 0.55,1.96 0,0.52 0,1.05 0.01,1.57 0.18,0.39 0.37,0.91 0.67,1.3 0.01,1.44 0.01,3.01 0.08,4.57 0.18,0.39 0.37,0.78 0.55,1.17 -0.36,0.39 -0.72,0.79 -1.03,1.05 -0.54,0.92 -1.08,1.71 -1.57,2.62 -0.42,0.52 -0.42,1.05 -0.41,2.75 -0.36,0.92 -0.66,1.83 -0.96,2.62 -0.42,0.39 -0.85,0.53 -1.33,0.66 -0.18,0 -0.36,0 -0.55,0 -0.18,0.26 -0.36,0.39 -0.54,0.53 -0.36,0.66 -0.72,1.18 -1.02,1.7 -0.18,0.26 -0.36,0.39 -0.48,0.53 -0.18,0 -0.36,0 -0.55,0 -0.36,0.26 -0.73,0.4 -1.03,0.53 -0.55,0 -1.94,0.8 -2.42,1.71 -0.54,0.4 -1.09,0.79 -1.57,1.06 -2.12,1.06 -2.05,2.89 -0.47,4.58 0.36,0.26 0.79,0.52 1.16,0.78 0,0.52 0,1.05 0.07,1.57 0.12,0.26 0.3,0.52 0.49,0.78 0.79,-0 1.58,-0.01 2.42,-0.15 0.12,-0.26 0.3,-0.52 0.48,-0.79 0.24,0.26 0.43,0.52 0.61,0.78 0,0.39 0,0.78 0.07,1.04 0,0.52 0.55,0.52 1.58,1.04 0.97,-0.01 1.94,-0.01 2.97,-0.15 0.12,0.26 0.31,0.52 0.49,0.65 0.18,-0 0.36,-0 0.55,-0 0.55,0.26 1.09,0.51 1.64,0.77 0.12,-0 0.3,-0 0.48,-0 0.18,-0.26 0.36,-0.52 0.54,-0.79 0.18,-0 0.36,-0 0.61,-0 0.12,0.26 0.31,0.52 0.49,0.65 0.24,-0 0.48,-0 0.79,-0 0.18,0.26 0.37,0.39 0.55,0.52 1.03,-0.01 2.06,-0.01 3.21,-0.02 0.18,0.26 0.37,0.39 0.55,0.52 0.79,0.39 1.58,0.77 2.43,1.16 0.18,0.26 0.37,0.39 0.55,0.52 0,1.18 0.07,2.35 0.13,3.66 1.03,0.65 2.13,1.16 3.16,1.55 0.12,-0 0.3,-0 0.48,-0 0.61,-0.14 1.27,-0.4 1.94,-0.67 0.3,-0 0.67,-0 1.03,-0.01 0.55,0.26 1.09,0.52 1.64,0.64 0.61,0.26 1.28,0.65 1.94,0.9 0.55,0.52 1.1,1.04 1.64,1.56 0,0.65 0,1.18 0.01,1.57 0.18,-0 0.36,-0 0.55,-0 0.49,0.39 1.03,0.78 1.64,1.04 0.18,0.26 0.36,0.39 0.55,0.52 0,0.39 0,0.78 0.06,1.04 0.12,0 0.3,-0 0.48,-0 0.24,0.26 0.55,0.39 0.85,0.52 0.48,-0 1.03,-0.01 1.58,-0.01 0.36,0.39 0.73,0.91 1.16,1.17 0.55,0.65 1.1,1.43 2.67,1.29 0.24,-0 0.48,-0 0.79,-0 0.18,0.26 0.37,0.39 0.55,0.52 0.36,0.26 0.73,0.39 1.15,0.51 0.12,0 0.3,-0 0.48,-0 0.36,0.26 0.73,0.52 1.09,0.65 0.48,-0.13 1.03,-0.14 1.58,-0.14 0,0.39 0,0.78 0.07,1.05 0.24,0.52 0.49,0.91 0.79,1.17 0.36,-0 0.73,-0 1.15,-0.01 0.49,0.52 1.03,1.17 1.58,1.95 0.97,0.78 1.95,1.69 3.04,2.73 0,0.26 0,0.39 0,0.52 0.36,0.39 0.73,0.78 1.1,1.04 0.18,0.39 0.37,0.78 0.55,1.17 0.36,0.26 0.73,0.52 1.09,0.78 0.36,-0 0.67,-0.14 1.03,-0.14 0,0.26 0,0.39 0,0.52 0.18,0.26 0.36,0.39 0.55,0.65 0.55,0.65 1.94,1.17 2.43,1.16 0.36,0.26 0.73,0.39 1.09,0.51 0.36,0.39 0.73,0.78 1.1,1.04 0.67,0.26 1.4,0.64 2.19,1.03 0.24,-0 0.48,-0 0.79,-0 0,0.26 0,0.52 0.06,0.78 0.12,0.39 0.3,0.52 0.49,0.65 0,0.26 0,0.39 0.06,0.52 0.85,-0 1.7,-0.01 2.61,-0.15 0.18,0.26 0.37,0.52 0.55,0.65 0.18,-0 0.36,-0 0.55,-0 0.24,0.26 0.43,0.39 0.61,0.52 0.43,0.26 0.85,0.39 1.34,0.52 0.67,-0 1.39,-0.01 2.12,-0.01 0.3,-0.26 0.67,-0.4 1.03,-0.66 0.18,-0 0.36,-0 0.55,-0 0.36,0.26 0.79,0.39 1.15,0.52 0.79,0.26 1.58,0.38 2.37,0.51 0.18,-0 0.36,-0 0.55,-0 0.36,0.39 0.73,0.65 1.1,1.04 0.36,0.26 0.73,0.39 1.09,0.52 0.67,-0 1.27,-0.01 1.88,-0.01 0.18,0.26 0.37,0.65 0.55,0.91 0,0.26 0,0.39 0,0.52 0.37,0.39 0.73,0.78 1.1,1.17 0.55,-0.13 1.09,-0.14 1.64,-0.14 0.12,0.26 0.3,0.39 0.49,0.52 0.18,-0 0.36,-0 0.55,-0 0.85,0.39 1.64,0.78 2.49,1.03 0.3,-0 0.67,-0 1.03,-0.01 0.18,0.13 0.36,0.26 0.55,0.39 0.36,0.26 0.73,0.52 1.09,0.65 0.18,0.26 0.36,0.39 0.55,0.52 0.18,-0 0.36,-0 0.55,-0 0.49,0.26 0.91,0.39 1.4,0.51 0.12,0 0.24,0 0.42,-0 0.55,0.65 1.1,1.43 1.64,1.95 0.36,0.26 0.73,0.39 1.09,0.52 0.36,0.39 0.73,0.78 1.1,1.04 0,0.65 0,1.18 0.01,1.7 -0.18,0.26 -0.36,0.39 -0.48,0.53 0.79,-0.01 1.58,-0.01 2.43,-0.01 0.36,0.26 0.73,0.52 1.09,0.78 1.03,-0.14 2.12,-0.14 2.6,-0.93 2.42,-2.24 4.54,-2.9 6.18,-1.21 0.43,0.26 0.85,0.39 1.34,0.51 0.55,0.65 1.1,1.3 1.7,1.82 0.67,0.26 1.4,0.78 2.13,1.16 1.82,0.51 3.4,1.03 5.04,0.89 0.36,-0 0.73,-0 1.09,-0.01 0.61,-0.13 1.21,-0.27 1.82,-0.53 0.36,-0.13 0.73,-0.27 1.09,-0.53 0.85,-0.27 1.76,-0.4 2.66,-0.8 0.18,0.52 0.37,0.91 0.55,1.17 0.79,0.39 1.58,0.77 2.43,1.03 2.67,-0.15 5.46,-0.16 8.24,-0.31 1.88,-0.01 2.97,-0.54 3.45,-1.07 0.12,-0.66 0.3,-1.57 0.48,-2.36 -0,-0.52 -0,-1.18 -0.01,-1.83 -0,-1.18 0.48,-1.83 1.57,-2.36 0.36,-0.13 0.73,-0.27 1.09,-0.53 0.24,-0 0.48,-0 0.79,-0 -0.07,-2.35 -0.14,-4.71 -0.15,-7.06 -0.07,-1.96 1.02,-2.62 2.72,-2.63 0.18,-0 0.36,-0.13 0.55,-0.13 -0.36,-0.13 -0.73,-0.52 -1.09,-0.91 -0.18,-0.65 -0.37,-1.44 -0.55,-2.22 -0.49,-0.91 -0.86,-1.7 -1.22,-2.61 -0,-0.52 -1.4,-1.04 -3.04,-2.73 -1.58,-1.82 -2.68,-2.99 -3.23,-4.03 -1.4,-1.82 -1.95,-4.17 -2.03,-7.57 0.3,-1.18 0.6,-2.36 0.96,-3.67 0.24,-0.26 0.48,-0.79 0.78,-1.18 0.18,-0.13 0.36,-0.26 0.54,-0.53 0.91,-0.01 1.82,-0.01 2.73,-0.15 0.48,-0 0.48,-0.53 1.03,-1.18 -0.06,-0.52 -0.06,-1.18 -0.07,-1.83 -0.25,-1.18 -0.43,-2.22 -0.62,-3.4 -0.49,-0.65 -0.55,-1.17 -0.01,-2.22 0.12,-0.39 0.3,-1.05 0.54,-1.57 0.79,-0.53 1.57,-1.06 2.36,-1.58 0.48,-0 1.03,-0.01 1.58,-0.01 0.18,-0.13 0.42,-0.4 0.6,-0.66 0.24,-0 0.42,-0 0.61,-0 0.3,-0.13 0.67,-0.4 1.03,-0.66 0.79,-0.53 0.78,-1.05 1.26,-2.49 0.54,-0.66 0.48,-1.7 -0.01,-2.22 -0.18,-0.39 -0.37,-0.78 -0.55,-1.17 0.12,-0.13 0.3,-0.26 0.48,-0.53 -0.61,0.27 -1.21,0.4 -1.82,0.53 -1.15,0.01 -2.24,0.14 -3.33,0.15 -0.36,-0.13 -0.73,-0.26 -1.09,-0.52 -0.21,-0.48 -0.68,-0.38 -0.68,-1.22 -1.09,0.01 -2.29,0.2 -3.38,0.2 -0.48,0 -1.58,-0.78 -2.92,-1.94 -0.18,-0.13 -0.36,-0.26 -0.55,-0.52 -0.36,-0.13 -0.73,-0.26 -1.09,-0.38 -0,-0.39 -0,-0.91 -0,-1.31 -0.18,-0.13 -0.36,-0.26 -0.55,-0.52 0,-0.13 -0,-0.26 -0,-0.52 -0.18,-0.13 -0.36,-0.26 -0.61,-0.52 -0.18,-0.39 -0.37,-0.91 -0.55,-1.44 -0.55,-1.04 -1.64,-1.69 -3.95,-1.54 -0.55,0 -1.7,-0.51 -2.25,-2.21 -0,-0.13 -0,-0.26 -0,-0.52 -0.37,-0.65 -0.73,-1.3 -1.1,-2.09z"/>
 </g>
</svg>
