<?xml version="1.0" encoding="UTF-8"?>
<!DOCTYPE svg PUBLIC "-//W3C//DTD SVG 1.1//EN" "http://www.w3.org/Graphics/SVG/1.1/DTD/svg11.dtd">
<!-- Creator: CorelDRAW 2021 (64-Bit) -->
<svg xmlns="http://www.w3.org/2000/svg" xml:space="preserve" width="0.585004in" height="0.400917in" version="1.1" shape-rendering="geometricPrecision" text-rendering="geometricPrecision" image-rendering="optimizeQuality" fill-rule="evenodd" clip-rule="evenodd"
viewBox="0 0 128.29 87.92"
 xmlns:xlink="http://www.w3.org/1999/xlink"
 xmlns:xodm="http://www.corel.com/coreldraw/odm/2003">
 <g id="Layer_x0020_1">
  <metadata id="CorelCorpID_0Corel-Layer"/>
  <path fill="none" fill-rule="nonzero" stroke="#336666" stroke-width="0.66" stroke-miterlimit="2.61313" d="M121.75 69.25c-0.38,-0.14 -0.76,-0.27 -1.08,-0.54 -0.07,-1.78 -0.14,-3.43 -0.08,-5.08 -0.19,-0.27 -0.38,-0.68 -0.58,-1.09 -0.38,-0.27 -0.77,-0.68 -1.08,-1.09 -0.38,0.28 -0.63,0.41 -0.89,0.55 -0.57,0 -1.21,0.14 -1.78,0.15 -0.38,0.28 -0.76,0.42 -1.08,0.55 -0.57,0.69 -1.14,1.38 -1.64,2.07 -0.38,0 -0.76,0.01 -1.08,0.01 -0.07,-0.41 -0.07,-0.96 -0.07,-1.51 -0.51,-0.68 -0.96,-1.5 -1.41,-2.33 -0.38,0 -0.76,-0.13 -1.15,-0.4 -3.7,-3.55 -7.27,-6.82 -10.84,-10.37 -0.38,-0.13 -0.76,-0.27 -1.15,-0.4 -0.38,0 -0.76,0 -1.08,0.01 -0.44,-0.13 -0.83,-0.41 -1.21,-0.68 -0.57,0 -1.14,0.01 -1.65,0.01 -0.89,0.28 -1.71,0.56 -2.54,0.84 -0.19,0 -0.38,0 -0.57,0 -0.19,-0.14 -0.38,-0.41 -0.58,-0.68 0,-0.14 -0,-0.27 -0,-0.55 -1.85,-1.5 -3.63,-3.13 -5.42,-4.77 -0.38,-0.55 -0.77,-1.09 -1.09,-1.78 -0.57,-0.54 -1.15,-1.09 -1.66,-1.77 -0.51,-0.82 -1.02,-1.64 -1.47,-2.46 -0.96,-1.23 -1.91,-2.18 -2.94,-3.41 -0.38,-0.41 -0.77,-0.96 -1.15,-1.5 -0.19,-0.27 -0.38,-0.68 -0.58,-1.09 -0,-0.14 -0,-0.41 -0,-0.68 -0.51,-0.27 -0.96,-0.82 -1.4,-1.23 -0.38,-0.14 -0.76,-0.27 -1.15,-0.54 -0.19,-0.14 -0.38,-0.27 -0.57,-0.54 -0.19,-0.55 -0.38,-0.96 -0.58,-1.64 -3.33,-5.88 -6.59,-11.76 -9.92,-17.63 -0.64,-2.46 -1.23,-4.79 -1.81,-7.26 -0,-0.41 -0,-0.96 -0.01,-1.51 -0.19,0 -0.38,0 -0.57,0 -0.19,-0.14 -0.38,-0.27 -0.57,-0.54 -1.78,0.01 -2.92,0.7 -2.85,2.76 0.01,2.47 0.08,4.94 0.15,7.4 -0.32,0 -0.57,0 -0.83,0.01 -0.38,0.28 -0.76,0.41 -1.14,0.55 -1.14,0.56 -1.65,1.24 -1.64,2.48 0,0.69 0,1.37 0.01,1.92 -0.19,0.82 -0.37,1.78 -0.5,2.47 -0.51,0.55 -1.65,1.11 -3.62,1.12 -2.92,0.15 -5.85,0.17 -8.64,0.32 -0.89,-0.27 -1.72,-0.67 -2.55,-1.08 -0.19,-0.27 -0.38,-0.68 -0.58,-1.23 -0.95,0.42 -1.9,0.56 -2.79,0.84 -0.38,0.28 -0.76,0.42 -1.14,0.55 -0.63,0.28 -1.27,0.42 -1.91,0.56 -0.38,0 -0.76,0 -1.14,0.01 -1.72,0.15 -3.37,-0.39 -5.28,-0.93 -0.76,-0.41 -1.53,-0.95 -2.23,-1.22 -0.64,-0.54 -1.21,-1.23 -1.79,-1.91 -0.51,-0.13 -0.95,-0.27 -1.4,-0.54 -1.72,-1.77 -3.95,-1.07 -6.48,1.27 -0.51,0.83 -1.65,0.83 -2.73,0.98 -0.38,-0.27 -0.76,-0.54 -1.15,-0.82 -0.89,0.01 -1.72,0.01 -2.54,0.02 0,0.27 0,0.55 0,0.82 -0.38,0.69 -0.76,1.24 -1.07,1.92 -0.19,0.28 -0.38,0.41 -0.57,0.55 -0.19,0 -0.38,0 -0.51,0.14 -0.19,0.41 -0.38,0.82 -0.57,1.1 -0.38,0.28 -0.7,0.55 -1.01,0.69 0,0.68 0.01,1.37 0.01,1.92 -0.19,0 -0.38,0 -0.51,0 -0.57,0.41 -1.01,0.83 -1.46,1.24 -0.19,0.41 -0.38,0.83 -0.51,1.1 0.39,0.96 0.77,1.78 1.15,2.46 0.01,2.74 0.08,5.48 0.16,8.09 0.45,0.96 1.02,1.91 1.54,2.87 0,0.41 0,0.82 0,1.23 0.19,0.27 0.38,0.41 0.58,0.68 0,0.27 0,0.41 0,0.55 0.25,-0 0.64,-0.14 1.02,-0.14 0.38,0.55 0.77,0.95 1.15,1.37 0.19,0.41 0.38,0.82 0.58,1.23 0.64,0.82 1.34,1.64 2.04,2.32 0.38,0.41 0.77,0.82 1.15,1.09 0,0.82 0.01,1.51 0.01,2.19 0.38,0.41 0.76,0.68 1.15,0.95 0.19,-0 0.38,-0 0.64,-0 0.19,0.41 0.38,0.82 0.58,1.09 0,0.68 0,1.23 0.01,1.78 0.57,0.27 1.15,0.41 1.72,0.54 1.02,-0.01 2.03,-0.01 3.05,-0.15 0.38,0.27 0.76,0.54 1.15,0.82 0.13,0.27 0.32,0.55 0.51,0.68 0.19,0.55 0.39,0.96 0.64,1.23 0.13,0.27 0.32,0.41 0.51,0.55 0,0.96 0.01,1.92 0.07,2.88 0.19,-0 0.38,-0 0.57,-0 0.45,0.54 0.89,1.09 1.47,1.5 0,0.55 0,1.1 0.07,1.65 0,0.68 1.15,1.36 2.8,1.22 0.51,-0 1.08,-0.01 1.65,-0.01 0.25,-0.41 0.51,-0.83 0.82,-1.38 0.7,-0.69 1.39,-1.52 2.15,-2.48 -0,-0.27 -0,-0.55 -0,-0.82 0.57,-0 1.14,-0.01 1.72,-0.01 0.19,0.27 0.38,0.54 0.58,0.82 0.19,-0 0.38,-0 0.57,-0 0,0.27 0,0.55 0,0.69 0.19,-0 0.38,-0 0.57,-0 0,0.82 0.01,1.51 0.07,2.33 0.25,-0 0.51,-0 0.83,-0.01 0.64,0.82 1.4,1.64 2.17,2.18 0.19,0.55 0.39,1.09 0.64,1.5 0.13,0.27 0.32,0.41 0.51,0.55 0.19,0.41 0.38,0.82 0.64,1.09 0,0.41 0,0.82 0,1.23 0.19,0.41 0.39,0.96 0.58,1.23 0,0.28 0,0.41 0,0.55 0.83,0.96 1.66,1.77 2.55,2.59 0.19,-0 0.38,-0 0.57,-0 0,0.28 0,0.41 0,0.55 0.19,0.27 0.38,0.41 0.57,0.55 0.19,0.27 0.38,0.68 0.58,1.09 0.38,0.41 0.77,0.82 1.15,1.09 0.45,0.27 0.83,0.41 1.21,0.54 0.13,0.55 0.32,0.82 0.51,1.09 0,0.41 0,0.82 0,1.1 1.53,-0.01 3.11,-0.15 4.7,-0.16 1.98,1.77 3.12,1.08 3.62,-0.57 0.06,-2.19 -0.01,-3.29 0.56,-3.29 0.19,-0 0.38,-0.14 0.57,-0.14 1.27,0.54 2.48,1.08 3.69,1.76 2.67,-0.15 5.4,-0.17 8.2,-0.18 0.19,-0.14 0.38,-0.41 0.57,-0.69 0.32,-0.27 0.7,-0.41 1.08,-0.69 2.48,-0.56 3.68,-1.12 3.61,-2.35 0,-0.14 -0,-0.28 -0,-0.55 -0.58,-2.05 -0.58,-2.6 -0.07,-2.61 0.19,-0 0.38,-0 0.57,-0 0.38,0.55 0.77,1.09 1.15,1.36 0.57,0.55 1.72,1.09 2.55,1.63 0.38,0.27 0.76,0.41 1.15,0.54 0.51,0.68 1.09,1.23 1.66,1.77 0.38,-0 0.76,-0 1.14,-0.14 1.65,-0.01 3.12,0.53 3.12,1.22 0,0.41 0,0.69 0.07,0.96 -0.63,1.65 -0.05,3.43 0.52,3.98 0.19,0.55 0.39,1.09 0.64,1.64 0.58,1.09 1.09,1.64 1.6,1.64 1.97,0.26 4.01,0.67 5.98,0.93 0.51,-0 1.08,-0.14 1.65,-0.15 0.64,0.27 1.27,0.41 2.04,0.54 0.89,-0.01 1.78,-0.01 2.73,-0.01 1.15,0.54 3.18,1.08 4.83,1.07 2.22,-0.56 3.62,-1.39 4.12,-2.49 0.19,-0.27 0.38,-0.69 0.63,-1.1 -0.06,-0.41 -0.07,-1.1 -0.07,-1.65 0.19,-0.27 0.38,-0.69 0.57,-1.1 0.32,-0.14 0.7,-0.28 1.08,-0.56 1.21,-0.01 2.41,-0.15 3.62,-0.16 0.19,0.27 0.38,0.41 0.57,0.55 0.32,0.27 0.7,0.41 1.08,0.54 1.4,0.4 2.86,0.81 4.33,0.94 0.7,-0.14 1.46,-0.28 2.22,-0.56 1.4,-0.01 2.8,-0.02 4.2,-0.16 0.19,0.27 0.38,0.41 0.57,0.55 0.51,-0.55 1.14,-1.11 1.71,-1.66 -0.06,-0.14 -0.06,-0.27 -0.07,-0.55 -0,-1.24 -0.58,-2.33 -1.15,-2.88 -1.15,-1.5 -1.73,-2.74 -1.73,-3.28 0,-0.14 -0,-0.27 -0,-0.55 -0.32,-0.41 -0.64,-0.82 -0.89,-1.23 -0.38,-0.13 -0.76,-0.54 -1.08,-0.95 -0.45,-0.68 -0.83,-1.37 -1.21,-2.05z"/>
 </g>
</svg>
