<svg xmlns="http://www.w3.org/2000/svg" viewBox="0 0 800 1400">
  <path d="M 244.95,517.90 L 244.91,517.97 L 244.90,517.98 L 244.90,517.99 L 244.89,518.00 L 244.88,518.01 L 244.87,518.02 L 244.86,518.03 L 244.86,518.04 L 244.85,518.05 L 244.84,518.06 L 244.83,518.07 L 244.81,518.08 L 244.80,518.08 L 244.79,518.09 L 244.78,518.10 L 244.77,518.10 L 244.76,518.11 L 244.72,518.12 L 244.69,518.13 L 244.66,518.15 L 244.63,518.16 L 244.60,518.17 L 244.58,518.18 L 244.55,518.20 L 244.52,518.21 L 244.50,518.22 L 244.45,518.25 L 244.40,518.28 L 244.35,518.31 L 244.31,518.34 L 244.26,518.37 L 244.21,518.40 L 244.19,518.41 L 244.17,518.43 L 244.15,518.44 L 244.13,518.46 L 244.12,518.48 L 244.10,518.49 L 244.08,518.51 L 244.06,518.53 L 244.04,518.54 L 244.02,518.56 L 244.01,518.58 L 243.99,518.60 L 243.97,518.62 L 243.96,518.64 L 243.94,518.65 L 243.93,518.67 L 243.91,518.70 L 243.90,518.72 L 243.88,518.74 L 243.87,518.76 L 243.86,518.78 L 243.84,518.80 L 243.83,518.83 L 243.82,518.85 L 243.81,518.87 L 243.80,518.89 L 243.78,518.94 L 243.77,518.95 L 243.77,518.97 L 243.77,518.99 L 243.76,519.01 L 243.76,519.03 L 243.76,519.05 L 243.76,519.06 L 243.76,519.08 L 243.76,519.10 L 243.76,519.12 L 243.76,519.14 L 243.76,519.16 L 243.76,519.18 L 243.76,519.19 L 243.76,519.21 L 243.77,519.22 L 243.77,519.25 L 243.78,519.27 L 243.78,519.29 L 243.79,519.32 L 243.79,519.34 L 243.80,519.36 L 243.81,519.39 L 243.81,519.41 L 243.82,519.43 L 243.83,519.46 L 243.84,519.48 L 243.85,519.50 L 243.86,519.52 L 243.87,519.55 L 243.88,519.57 L 243.89,519.59 L 244.00,519.78 L 244.03,519.82 L 244.05,519.87 L 244.08,519.91 L 244.10,519.96 L 244.12,520.01 L 244.15,520.05 L 244.17,520.10 L 244.19,520.14 L 244.21,520.19 L 244.23,520.24 L 244.25,520.29 L 244.27,520.34 L 244.29,520.39 L 244.31,520.44 L 244.33,520.49 L 244.35,520.54 L 244.37,520.59 L 244.39,520.64 L 244.40,520.69 L 244.42,520.74 L 244.44,520.79 L 244.45,520.84 L 244.49,520.98 L 244.50,521.04 L 244.53,521.13 L 244.55,521.22 L 244.57,521.31 L 244.59,521.41 L 244.60,521.43 L 244.61,521.45 L 244.61,521.47 L 244.62,521.50 L 244.63,521.52 L 244.64,521.54 L 244.65,521.56 L 244.66,521.58 L 244.67,521.60 L 244.67,521.62 L 244.68,521.64 L 244.69,521.66 L 244.71,521.67 L 244.72,521.69 L 244.98,522.10 L 245.05,522.22 L 245.06,522.24 L 245.17,522.45 L 245.17,522.46 L 245.26,522.76 L 245.29,522.93 L 245.30,523.06 L 245.29,523.15 L 245.29,523.17 L 245.25,523.25 L 245.20,523.32 L 245.15,523.37 L 245.10,523.42 L 245.00,523.48 L 244.88,523.52 L 244.33,523.65 L 244.29,523.66 L 244.17,523.66 L 244.06,523.65 L 243.91,523.64 L 243.70,523.59 L 243.27,523.41 L 243.16,523.39 L 243.05,523.37 L 242.96,523.37 L 242.88,523.38 L 242.75,523.42 L 242.62,523.47 L 242.54,523.50 L 242.46,523.55 L 242.35,523.65 L 242.25,523.75 L 242.21,523.80 L 242.18,523.85 L 242.15,523.91 L 242.06,524.41 L 241.99,524.70 L 241.83,525.07 L 241.78,525.18 L 241.77,525.25 L 241.76,525.31 L 241.75,525.35 L 241.73,525.40 L 241.67,525.52 L 241.54,525.74 L 241.53,525.75 L 241.52,525.75 L 241.49,525.78 L 241.45,525.78 L 241.34,525.76 L 241.26,525.76 L 241.15,525.78 L 241.05,525.81 L 240.94,525.90 L 240.88,525.97 L 240.85,526.04 L 240.80,526.26 L 240.76,526.44 L 240.75,526.52 L 240.75,526.60 L 240.75,526.62 L 240.77,526.71 L 240.77,526.79 L 240.79,526.87 L 240.79,526.98 L 240.79,527.07 L 240.79,527.14 L 240.79,527.36 L 240.79,527.48 L 240.81,527.83 L 240.80,527.94 L 240.78,528.01 L 240.76,528.07 L 240.70,528.23 L 240.36,528.90 L 240.13,528.93 L 240.05,528.92 L 239.84,528.88 L 239.62,528.73 L 239.45,528.66 L 239.27,528.64 L 238.99,528.75 L 238.85,528.82 L 238.75,528.87 L 238.70,528.89 L 238.56,528.95 L 238.24,529.08 L 237.94,529.21 L 237.53,529.43 L 237.36,529.54 L 237.21,529.63 L 236.79,529.49 L 236.67,529.28 L 236.66,529.06 L 236.43,529.08 L 236.40,529.08 L 236.25,529.09 L 236.22,529.09 L 236.13,529.10 L 236.11,529.09 L 236.09,529.07 L 235.95,529.10 L 235.80,529.13 L 235.70,529.15 L 235.70,529.13 L 235.72,529.09 L 235.72,529.08 L 235.71,529.07 L 235.70,529.07 L 235.66,529.09 L 235.62,529.12 L 235.59,529.16 L 235.58,529.17 L 235.55,529.18 L 235.53,529.19 L 235.50,529.21 L 235.50,529.22 L 235.49,529.24 L 235.50,529.26 L 235.50,529.28 L 235.50,529.29 L 235.50,529.29 L 235.48,529.30 L 235.47,529.30 L 235.45,529.30 L 235.43,529.32 L 235.39,529.34 L 235.37,529.36 L 235.35,529.36 L 235.35,529.36 L 235.33,529.36 L 235.29,529.34 L 235.27,529.34 L 235.24,529.34 L 235.21,529.33 L 235.18,529.33 L 235.15,529.33 L 235.13,529.43 L 235.10,529.58 L 235.09,529.59 L 235.07,529.63 L 235.05,529.64 L 235.04,529.64 L 235.03,529.64 L 235.02,529.64 L 235.01,529.64 L 235.01,529.65 L 235.00,529.65 L 235.00,529.67 L 234.98,529.69 L 234.97,529.71 L 234.93,529.75 L 234.93,529.77 L 234.94,529.81 L 234.94,529.84 L 234.89,529.89 L 234.92,529.91 L 234.92,529.93 L 234.91,529.97 L 234.91,529.99 L 234.91,529.99 L 234.91,530.00 L 234.89,530.03 L 234.89,530.04 L 234.87,530.10 L 234.87,530.11 L 234.86,530.12 L 234.85,530.12 L 234.84,530.13 L 234.83,530.13 L 234.82,530.14 L 234.81,530.16 L 234.77,530.17 L 234.76,530.17 L 234.73,530.17 L 234.66,530.15 L 234.58,530.11 L 234.55,530.10 L 234.53,530.09 L 234.52,530.09 L 234.50,530.09 L 234.47,530.10 L 234.46,530.10 L 234.42,530.13 L 234.39,530.15 L 234.36,530.16 L 234.31,530.21 L 234.28,530.19 L 234.25,530.19 L 234.19,530.20 L 234.18,530.06 L 233.84,530.08 L 233.65,530.11 L 233.51,530.12 L 233.47,530.13 L 233.39,530.16 L 233.36,530.18 L 233.33,530.19 L 233.31,530.20 L 233.25,530.21 L 233.22,530.21 L 233.20,530.21 L 233.18,530.22 L 233.14,530.22 L 233.12,530.22 L 233.02,530.26 L 233.00,530.32 L 232.99,530.35 L 232.96,530.42 L 232.93,530.45 L 232.91,530.46 L 232.88,530.48 L 232.86,530.49 L 232.85,530.48 L 232.82,530.47 L 232.79,530.47 L 232.77,530.47 L 232.74,530.49 L 232.71,530.52 L 232.68,530.56 L 232.64,530.52 L 232.61,530.50 L 232.59,530.50 L 232.56,530.50 L 232.55,530.50 L 232.54,530.49 L 232.52,530.48 L 232.49,530.43 L 232.47,530.42 L 232.43,530.41 L 232.41,530.38 L 232.31,530.27 L 232.29,530.25 L 232.28,530.23 L 232.29,530.22 L 232.29,530.20 L 232.28,530.19 L 232.24,530.17 L 232.10,530.15 L 232.09,530.14 L 231.96,530.09 L 231.95,530.08 L 231.94,530.07 L 231.93,530.06 L 231.89,530.06 L 231.84,530.04 L 231.82,530.03 L 231.79,529.97 L 231.79,529.96 L 231.82,529.91 L 231.83,529.88 L 231.82,529.87 L 231.80,529.85 L 231.79,529.83 L 231.79,529.82 L 231.80,529.80 L 231.79,529.78 L 231.80,529.77 L 231.80,529.74 L 231.80,529.69 L 231.79,529.66 L 231.78,529.65 L 231.76,529.62 L 231.75,529.61 L 231.73,529.60 L 231.72,529.59 L 231.71,529.57 L 231.70,529.55 L 231.67,529.51 L 231.67,529.49 L 231.67,529.46 L 231.66,529.44 L 231.65,529.42 L 231.63,529.40 L 231.62,529.39 L 231.61,529.37 L 231.61,529.31 L 231.61,529.28 L 231.61,529.25 L 231.60,529.24 L 231.58,529.23 L 231.58,529.17 L 231.57,529.13 L 231.53,529.13 L 231.51,529.13 L 231.51,529.13 L 231.51,529.09 L 231.50,529.06 L 231.50,529.03 L 231.49,529.01 L 231.47,528.99 L 231.46,528.98 L 231.44,528.99 L 231.40,529.02 L 231.39,529.00 L 231.38,528.98 L 231.34,528.96 L 231.30,528.92 L 231.29,528.90 L 231.28,528.86 L 231.27,528.85 L 231.26,528.84 L 231.23,528.82 L 231.22,528.81 L 231.18,528.75 L 231.13,528.70 L 231.10,528.65 L 231.09,528.62 L 231.09,528.59 L 231.08,528.54 L 231.07,528.51 L 231.06,528.46 L 231.02,528.39 L 230.99,528.32 L 230.95,528.26 L 230.96,528.19 L 230.97,528.15 L 230.96,528.12 L 230.95,528.08 L 230.94,528.03 L 230.95,527.99 L 230.98,527.91 L 230.95,527.80 L 230.93,527.75 L 230.85,527.72 L 230.81,527.70 L 230.77,527.66 L 230.72,527.61 L 230.71,527.59 L 230.69,527.55 L 230.67,527.53 L 230.63,527.51 L 230.61,527.51 L 230.59,527.51 L 230.57,527.52 L 230.57,527.52 L 230.56,527.52 L 230.56,527.51 L 230.56,527.50 L 230.55,527.45 L 230.53,527.41 L 230.51,527.36 L 230.50,527.33 L 230.49,527.32 L 230.48,527.32 L 230.45,527.31 L 230.41,527.29 L 230.40,527.29 L 230.40,527.29 L 230.40,527.28 L 230.40,527.27 L 230.40,527.26 L 230.41,527.25 L 230.42,527.23 L 230.43,527.20 L 230.43,527.19 L 230.42,527.18 L 230.41,527.17 L 230.38,527.16 L 230.35,527.12 L 230.31,527.08 L 230.30,527.08 L 230.22,527.07 L 230.20,527.07 L 230.17,527.05 L 230.07,527.05 L 229.96,527.05 L 229.83,527.06 L 229.72,527.06 L 229.62,527.07 L 229.44,527.02 L 229.33,526.96 L 229.30,526.94 L 229.28,526.94 L 229.20,526.92 L 229.15,526.91 L 229.12,526.90 L 229.10,526.90 L 229.07,526.91 L 229.05,526.92 L 228.96,526.88 L 228.93,526.87 L 228.84,526.84 L 228.74,526.86 L 228.73,526.97 L 228.73,527.07 L 228.75,527.13 L 228.74,527.24 L 228.70,527.25 L 228.61,527.25 L 228.54,527.26 L 228.48,527.28 L 228.28,527.37 L 228.22,527.38 L 228.09,527.38 L 227.99,527.49 L 227.78,527.52 L 227.76,527.56 L 227.77,527.63 L 227.58,527.63 L 227.44,527.61 L 227.29,527.61 L 227.22,527.59 L 227.20,527.58 L 227.18,527.57 L 227.16,527.59 L 227.15,527.60 L 227.15,527.62 L 227.14,527.63 L 227.14,527.64 L 227.14,527.65 L 227.12,527.66 L 227.11,527.68 L 227.10,527.68 L 227.09,527.69 L 227.08,527.69 L 227.07,527.69 L 227.06,527.69 L 227.05,527.69 L 227.03,527.68 L 227.02,527.68 L 226.99,527.68 L 226.96,527.69 L 226.92,527.69 L 226.88,527.71 L 226.86,527.72 L 226.84,527.72 L 226.83,527.73 L 226.79,527.77 L 226.77,527.79 L 226.76,527.79 L 226.75,527.78 L 226.72,527.79 L 226.70,527.81 L 226.68,527.83 L 226.66,527.85 L 226.66,527.87 L 226.66,527.93 L 226.65,527.97 L 226.64,528.01 L 226.63,528.05 L 226.58,528.17 L 226.51,528.21 L 226.46,528.32 L 226.38,528.44 L 226.30,528.47 L 226.19,528.42 L 226.07,528.43 L 225.98,528.46 L 225.90,528.43 L 225.87,528.42 L 225.81,528.39 L 225.80,528.41 L 225.75,528.50 L 225.74,528.51 L 225.70,528.54 L 225.66,528.55 L 225.64,528.56 L 225.63,528.57 L 225.62,528.57 L 225.62,528.57 L 225.61,528.56 L 225.61,528.56 L 225.61,528.56 L 225.59,528.54 L 225.58,528.51 L 225.57,528.50 L 225.57,528.48 L 225.56,528.47 L 225.56,528.46 L 225.56,528.45 L 225.55,528.41 L 225.53,528.36 L 225.52,528.34 L 225.52,528.34 L 225.52,528.32 L 225.51,528.30 L 225.51,528.29 L 225.51,528.28 L 225.51,528.27 L 225.49,528.26 L 225.48,528.25 L 225.47,528.25 L 225.46,528.25 L 225.45,528.25 L 225.44,528.25 L 225.43,528.25 L 225.42,528.25 L 225.41,528.26 L 225.40,528.26 L 225.38,528.27 L 225.36,528.29 L 225.18,528.46 L 225.08,528.55 L 224.98,528.61 L 224.96,528.62 L 224.95,528.63 L 224.95,528.63 L 224.94,528.63 L 224.92,528.63 L 224.90,528.62 L 224.89,528.60 L 224.85,528.58 L 224.84,528.56 L 224.83,528.54 L 224.82,528.53 L 224.80,528.51 L 224.79,528.51 L 224.78,528.51 L 224.76,528.51 L 224.75,528.51 L 224.71,528.54 L 224.67,528.56 L 224.62,528.59 L 224.56,528.63 L 224.51,528.64 L 224.44,528.67 L 224.34,528.69 L 224.33,528.70 L 224.33,528.70 L 224.32,528.72 L 224.29,528.77 L 224.29,528.79 L 224.28,528.83 L 224.28,528.85 L 224.28,528.88 L 224.27,528.89 L 224.27,528.90 L 224.26,528.90 L 224.26,528.91 L 224.25,528.91 L 224.24,528.91 L 224.17,528.90 L 224.10,528.90 L 224.04,528.89 L 224.01,528.88 L 224.00,528.88 L 223.98,528.88 L 223.96,528.87 L 223.93,528.87 L 223.92,528.87 L 223.91,528.87 L 223.91,528.87 L 223.89,528.86 L 223.88,528.86 L 223.87,528.85 L 223.86,528.84 L 223.84,528.84 L 223.82,528.84 L 223.80,528.83 L 223.79,528.83 L 223.78,528.83 L 223.76,528.83 L 223.74,528.84 L 223.70,528.84 L 223.63,528.84 L 223.62,528.84 L 223.61,528.84 L 223.60,528.84 L 223.59,528.84 L 223.58,528.85 L 223.57,528.85 L 223.55,528.86 L 223.54,528.87 L 223.53,528.87 L 223.53,528.87 L 223.46,528.85 L 223.46,528.86 L 223.45,528.86 L 223.44,528.86 L 223.43,528.87 L 223.41,528.89 L 223.38,528.91 L 223.34,528.92 L 223.33,528.92 L 223.33,528.92 L 223.30,528.92 L 223.29,528.93 L 223.28,528.93 L 223.23,528.95 L 223.20,528.95 L 223.18,528.96 L 223.13,528.98 L 223.12,528.99 L 223.11,528.99 L 223.07,528.98 L 223.04,528.96 L 223.01,528.93 L 222.98,528.90 L 222.96,528.88 L 222.94,528.87 L 222.86,528.84 L 222.83,528.84 L 222.80,528.84 L 222.72,528.86 L 222.67,528.87 L 222.61,528.89 L 222.59,528.89 L 222.56,528.89 L 222.54,528.89 L 222.53,528.88 L 222.49,528.88 L 222.46,528.87 L 222.41,528.85 L 222.35,528.84 L 222.31,528.81 L 222.28,528.81 L 222.25,528.83 L 222.23,528.84 L 222.20,528.83 L 222.17,528.82 L 222.12,528.80 L 222.09,528.78 L 222.08,528.76 L 222.05,528.70 L 222.02,528.66 L 222.00,528.64 L 221.97,528.62 L 221.94,528.60 L 221.91,528.58 L 221.85,528.53 L 221.82,528.52 L 221.77,528.52 L 221.74,528.52 L 221.72,528.52 L 221.53,528.45 L 221.48,528.41 L 221.47,528.38 L 221.46,528.37 L 221.44,528.37 L 221.42,528.37 L 221.40,528.37 L 221.37,528.35 L 221.31,528.33 L 221.28,528.31 L 221.25,528.30 L 221.21,528.28 L 221.18,528.26 L 221.16,528.26 L 221.14,528.26 L 221.10,528.25 L 221.06,528.25 L 221.02,528.25 L 220.95,528.27 L 220.94,528.27 L 220.92,528.25 L 220.91,528.22 L 220.91,528.20 L 220.88,528.14 L 220.87,528.11 L 220.83,528.06 L 220.81,528.04 L 220.80,528.04 L 220.78,528.04 L 220.73,528.00 L 220.68,527.97 L 220.65,527.92 L 220.64,527.90 L 220.63,527.88 L 220.61,527.83 L 220.58,527.80 L 220.55,527.77 L 220.53,527.74 L 220.51,527.71 L 220.50,527.67 L 220.48,527.64 L 220.47,527.60 L 220.45,527.59 L 220.44,527.59 L 220.40,527.58 L 220.38,527.58 L 220.34,527.58 L 220.30,527.59 L 220.25,527.59 L 220.22,527.59 L 220.19,527.60 L 220.15,527.59 L 220.11,527.58 L 220.08,527.56 L 220.04,527.53 L 220.01,527.51 L 219.98,527.48 L 219.95,527.48 L 219.92,527.48 L 219.91,527.49 L 219.90,527.49 L 219.89,527.49 L 219.86,527.47 L 219.83,527.45 L 219.80,527.46 L 219.78,527.49 L 219.78,527.49 L 219.73,527.48 L 219.69,527.46 L 219.67,527.44 L 219.65,527.42 L 219.61,527.40 L 219.57,527.38 L 219.53,527.38 L 219.46,527.37 L 219.42,527.36 L 219.34,527.33 L 219.30,527.31 L 219.27,527.31 L 219.22,527.31 L 219.19,527.31 L 219.13,527.30 L 219.11,527.30 L 219.08,527.30 L 219.02,527.27 L 219.00,527.25 L 218.98,527.21 L 218.94,527.15 L 218.91,527.07 L 218.88,526.99 L 218.87,526.91 L 218.86,526.89 L 218.84,526.87 L 218.80,526.83 L 218.76,526.78 L 218.71,526.74 L 218.68,526.72 L 218.65,526.67 L 218.60,526.59 L 218.59,526.57 L 218.49,526.39 L 218.47,526.38 L 218.43,526.36 L 218.40,526.36 L 218.37,526.37 L 218.27,526.41 L 218.23,526.43 L 218.22,526.45 L 218.13,526.52 L 218.07,526.52 L 217.97,526.46 L 217.80,526.30 L 217.70,526.28 L 217.53,526.38 L 217.38,526.40 L 217.24,526.38 L 217.13,526.52 L 217.05,526.60 L 217.01,526.61 L 216.81,526.65 L 216.64,526.63 L 216.38,526.77 L 216.19,526.92 L 216.11,527.03 L 216.02,527.09 L 215.98,527.11 L 215.95,527.12 L 215.92,527.14 L 215.86,527.17 L 215.78,527.19 L 215.76,527.20 L 215.74,527.21 L 215.72,527.23 L 215.69,527.26 L 215.66,527.31 L 215.53,527.37 L 215.50,527.38 L 215.47,527.40 L 215.39,527.43 L 215.34,527.49 L 215.31,527.53 L 215.28,527.59 L 215.27,527.65 L 215.24,527.68 L 215.20,527.72 L 215.19,527.74 L 215.17,527.78 L 215.14,527.80 L 215.10,527.82 L 215.05,527.83 L 215.01,527.86 L 214.99,527.88 L 214.97,527.92 L 214.95,527.98 L 214.93,528.06 L 214.93,528.09 L 214.93,528.15 L 214.92,528.20 L 214.90,528.24 L 214.90,528.29 L 214.87,528.34 L 214.85,528.36 L 214.83,528.37 L 214.80,528.39 L 214.78,528.40 L 214.75,528.41 L 214.71,528.42 L 214.69,528.43 L 214.67,528.42 L 214.65,528.42 L 214.64,528.42 L 214.63,528.41 L 214.61,528.38 L 214.58,528.35 L 214.51,528.30 L 214.46,528.24 L 214.42,528.17 L 214.33,528.06 L 214.30,528.02 L 214.27,527.97 L 214.19,527.91 L 214.17,527.90 L 214.12,527.86 L 214.09,527.84 L 214.08,527.84 L 214.06,527.84 L 214.02,527.83 L 213.96,527.81 L 213.86,527.78 L 213.83,527.76 L 213.80,527.75 L 213.74,527.74 L 213.73,527.74 L 213.71,527.74 L 213.69,527.74 L 213.65,527.77 L 213.61,527.79 L 213.58,527.79 L 213.56,527.79 L 213.53,527.79 L 213.46,527.77 L 213.32,527.76 L 213.30,527.77 L 213.26,527.78 L 213.25,527.78 L 213.23,527.77 L 213.18,527.76 L 213.11,527.71 L 213.03,527.66 L 212.95,527.62 L 212.92,527.60 L 212.91,527.60 L 212.90,527.60 L 212.89,527.60 L 212.83,527.61 L 212.78,527.62 L 212.75,527.63 L 212.71,527.64 L 212.64,527.67 L 212.57,527.70 L 212.54,527.70 L 212.53,527.69 L 212.50,527.69 L 212.47,527.67 L 212.36,527.44 L 212.34,527.50 L 212.30,527.57 L 212.27,527.57 L 212.20,527.55 L 212.17,527.55 L 212.09,527.56 L 212.05,527.56 L 212.04,527.56 L 212.01,527.55 L 211.99,527.54 L 211.98,527.54 L 211.94,527.49 L 211.90,527.45 L 211.87,527.41 L 211.85,527.39 L 211.79,527.35 L 211.79,527.35 L 211.78,527.34 L 211.75,527.35 L 211.70,527.37 L 211.64,527.37 L 211.59,527.36 L 211.56,527.34 L 211.49,527.28 L 211.44,527.21 L 211.41,527.16 L 211.40,527.15 L 211.38,527.13 L 211.35,527.12 L 211.24,527.05 L 211.19,527.02 L 211.13,527.00 L 211.07,527.00 L 211.00,526.99 L 210.97,526.97 L 210.91,526.92 L 210.87,526.89 L 210.84,526.89 L 210.81,526.89 L 210.78,526.90 L 210.73,526.93 L 210.71,526.97 L 210.69,527.01 L 210.68,527.05 L 210.66,527.09 L 210.65,527.14 L 210.66,527.18 L 210.65,527.22 L 210.64,527.25 L 210.63,527.27 L 210.62,527.29 L 210.61,527.31 L 210.59,527.32 L 210.54,527.33 L 210.35,527.36 L 210.30,527.36 L 210.26,527.39 L 210.25,527.41 L 210.23,527.43 L 210.19,527.47 L 210.17,527.51 L 210.14,527.52 L 210.11,527.56 L 210.07,527.60 L 210.04,527.66 L 210.01,527.68 L 209.99,527.69 L 209.96,527.70 L 209.90,527.74 L 209.89,527.75 L 209.86,527.79 L 209.77,527.87 L 209.73,527.90 L 209.65,527.97 L 209.61,527.99 L 209.58,528.02 L 209.53,528.05 L 209.45,528.11 L 209.41,528.16 L 209.40,528.19 L 209.39,528.21 L 209.38,528.23 L 209.38,528.26 L 209.39,528.30 L 209.40,528.33 L 209.42,528.37 L 209.43,528.39 L 209.43,528.42 L 209.43,528.46 L 209.43,528.50 L 209.44,528.52 L 209.45,528.53 L 209.55,528.58 L 209.57,528.60 L 209.59,528.62 L 209.60,528.65 L 209.61,528.67 L 209.60,528.67 L 209.60,528.68 L 209.59,528.69 L 209.49,528.75 L 209.45,528.77 L 209.45,528.77 L 209.45,528.77 L 209.45,528.77 L 209.45,528.77 L 209.44,528.78 L 209.42,529.00 L 209.40,529.17 L 209.39,529.22 L 209.39,529.25 L 209.40,529.30 L 209.40,529.34 L 209.38,529.38 L 209.36,529.42 L 209.34,529.45 L 209.34,529.46 L 209.34,529.47 L 209.34,529.48 L 209.35,529.50 L 209.37,529.54 L 209.44,529.61 L 209.54,529.71 L 209.63,529.81 L 209.68,529.88 L 209.69,529.93 L 209.69,529.95 L 209.69,529.96 L 209.68,529.98 L 209.66,529.99 L 209.60,530.01 L 209.50,530.07 L 209.44,530.12 L 209.41,530.13 L 209.39,530.13 L 209.34,530.13 L 209.26,530.14 L 209.19,530.21 L 209.14,530.26 L 209.07,530.30 L 209.03,530.32 L 209.02,530.34 L 209.01,530.36 L 209.00,530.46 L 209.00,530.55 L 209.01,530.63 L 209.03,530.69 L 209.06,530.72 L 209.06,530.74 L 209.06,530.76 L 209.06,530.77 L 209.04,530.79 L 209.00,530.83 L 208.96,530.87 L 208.90,530.99 L 208.80,531.07 L 208.76,531.13 L 208.70,531.20 L 208.66,531.24 L 208.55,531.26 L 208.49,531.26 L 208.35,531.30 L 208.29,531.33 L 208.27,531.35 L 208.28,531.39 L 208.30,531.42 L 208.31,531.52 L 208.31,531.60 L 208.31,531.63 L 208.30,531.64 L 208.29,531.66 L 208.27,531.70 L 208.26,531.73 L 208.25,531.79 L 208.27,531.85 L 208.29,532.02 L 208.30,532.06 L 208.31,532.08 L 208.32,532.09 L 208.32,532.09 L 208.39,532.15 L 208.46,532.17 L 208.51,532.19 L 208.55,532.23 L 208.56,532.27 L 208.56,532.30 L 208.55,532.33 L 208.50,532.37 L 208.46,532.42 L 208.42,532.45 L 208.34,532.47 L 208.29,532.51 L 208.26,532.58 L 208.26,532.61 L 208.26,532.72 L 208.24,532.76 L 208.22,532.80 L 208.19,532.82 L 208.16,532.84 L 208.14,532.84 L 208.12,532.85 L 208.08,532.90 L 208.04,532.94 L 208.04,532.96 L 208.06,532.99 L 208.08,533.02 L 208.09,533.03 L 208.10,533.05 L 208.10,533.08 L 208.10,533.09 L 208.10,533.09 L 208.09,533.12 L 208.08,533.13 L 208.06,533.19 L 208.03,533.31 L 208.02,533.37 L 208.01,533.43 L 207.99,533.50 L 207.99,533.53 L 208.03,533.65 L 208.09,533.70 L 208.12,533.72 L 208.13,533.73 L 208.13,533.77 L 208.13,533.80 L 208.15,533.83 L 208.15,533.86 L 208.15,533.87 L 208.14,533.89 L 208.12,533.95 L 208.09,533.99 L 208.07,534.00 L 208.03,534.02 L 208.01,534.03 L 208.00,534.04 L 208.00,534.05 L 208.03,534.07 L 208.09,534.08 L 208.15,534.11 L 208.18,534.13 L 208.19,534.16 L 208.19,534.20 L 208.17,534.24 L 208.14,534.28 L 208.04,534.41 L 208.01,534.46 L 207.98,534.49 L 207.96,534.52 L 207.95,534.55 L 207.94,534.59 L 207.93,534.69 L 207.93,534.72 L 207.96,534.75 L 207.97,534.89 L 207.96,534.93 L 207.95,534.97 L 207.94,534.99 L 207.91,535.00 L 207.88,535.03 L 207.85,535.04 L 207.83,535.08 L 207.83,535.10 L 207.83,535.11 L 207.84,535.13 L 207.86,535.15 L 207.87,535.18 L 207.88,535.21 L 207.89,535.22 L 207.89,535.26 L 207.89,535.29 L 207.87,535.32 L 207.87,535.34 L 207.85,535.39 L 207.87,535.47 L 207.87,535.50 L 207.87,535.54 L 207.87,535.58 L 207.86,535.61 L 207.87,535.64 L 207.87,535.65 L 207.90,535.70 L 207.90,535.71 L 207.90,535.76 L 207.89,535.79 L 207.86,535.84 L 207.81,535.88 L 207.78,535.90 L 207.75,535.92 L 207.73,535.94 L 207.71,535.96 L 207.70,535.99 L 207.69,536.01 L 207.70,536.05 L 207.72,536.13 L 207.72,536.15 L 207.73,536.17 L 207.75,536.20 L 207.81,536.21 L 207.86,536.27 L 207.88,536.35 L 207.81,536.40 L 207.77,536.47 L 207.73,536.55 L 207.70,536.64 L 207.69,536.66 L 207.68,536.70 L 207.67,536.73 L 207.67,536.75 L 207.65,536.76 L 207.63,536.78 L 207.61,536.80 L 207.61,536.82 L 207.62,536.84 L 207.63,536.86 L 207.65,536.87 L 207.65,536.91 L 207.75,537.03 L 207.78,537.07 L 207.78,537.13 L 207.79,537.19 L 207.79,537.24 L 207.82,537.31 L 207.87,537.38 L 207.92,537.45 L 207.97,537.57 L 208.06,537.62 L 208.13,537.62 L 208.21,537.62 L 208.27,537.63 L 208.41,537.67 L 208.45,537.69 L 208.47,537.71 L 208.48,537.75 L 208.49,537.79 L 208.48,537.83 L 208.47,537.87 L 208.47,537.92 L 208.47,537.99 L 208.50,538.08 L 208.54,538.14 L 208.59,538.27 L 208.59,538.30 L 208.59,538.37 L 208.55,538.43 L 208.57,538.46 L 208.59,538.50 L 208.67,538.54 L 208.74,538.54 L 208.76,538.56 L 208.77,538.59 L 208.84,538.62 L 208.99,538.66 L 209.07,538.70 L 209.09,538.72 L 209.12,538.72 L 209.13,538.73 L 209.15,538.72 L 209.17,538.67 L 209.19,538.65 L 209.32,538.67 L 209.36,538.69 L 209.39,538.69 L 209.41,538.68 L 209.44,538.66 L 209.47,538.63 L 209.52,538.61 L 209.54,538.59 L 209.55,538.57 L 209.57,538.53 L 209.60,538.49 L 209.63,538.47 L 209.65,538.46 L 209.67,538.46 L 209.68,538.46 L 209.69,538.47 L 209.70,538.49 L 209.69,538.51 L 209.69,538.55 L 209.68,538.58 L 209.67,538.60 L 209.68,538.65 L 209.68,538.69 L 209.68,538.71 L 209.69,538.75 L 209.70,538.78 L 209.70,538.83 L 209.71,538.85 L 209.71,538.86 L 209.71,538.87 L 209.70,538.89 L 209.69,538.91 L 209.69,538.91 L 209.65,538.92 L 209.62,538.92 L 209.60,538.92 L 209.56,538.91 L 209.53,538.93 L 209.51,538.97 L 209.52,539.01 L 209.53,539.06 L 209.54,539.10 L 209.56,539.12 L 209.56,539.15 L 209.57,539.16 L 209.63,539.19 L 209.68,539.20 L 209.74,539.21 L 209.80,539.22 L 209.85,539.24 L 209.89,539.25 L 209.93,539.27 L 209.98,539.32 L 210.02,539.36 L 210.10,539.43 L 210.01,539.57 L 209.98,539.61 L 210.02,539.70 L 210.07,539.74 L 210.06,539.79 L 210.06,539.83 L 210.08,539.88 L 210.15,539.94 L 210.23,540.10 L 210.29,540.13 L 210.30,540.21 L 210.25,540.29 L 210.28,540.32 L 210.34,540.37 L 210.43,540.35 L 210.61,540.38 L 210.70,540.45 L 210.78,540.43 L 210.78,540.43 L 210.86,540.45 L 210.93,540.43 L 211.04,540.42 L 211.11,540.41 L 211.15,540.40 L 211.17,540.39 L 211.18,540.38 L 211.18,540.36 L 211.18,540.34 L 211.18,540.31 L 211.19,540.20 L 211.20,540.17 L 211.21,540.14 L 211.22,540.12 L 211.23,540.11 L 211.28,540.15 L 211.32,540.16 L 211.38,540.15 L 211.43,540.12 L 211.45,540.11 L 211.47,540.11 L 211.54,540.11 L 211.58,540.12 L 211.61,540.16 L 211.64,540.20 L 211.68,540.22 L 211.71,540.23 L 211.73,540.23 L 211.80,540.25 L 211.87,540.30 L 211.93,540.23 L 211.96,540.28 L 212.00,540.32 L 212.07,540.38 L 212.07,540.39 L 212.10,540.40 L 212.16,540.42 L 212.21,540.46 L 212.21,540.48 L 212.21,540.49 L 212.21,540.52 L 212.21,540.55 L 212.20,540.59 L 212.19,540.61 L 212.18,540.62 L 212.17,540.64 L 212.16,540.64 L 212.12,540.68 L 212.08,540.73 L 212.07,540.81 L 212.06,540.83 L 212.05,540.85 L 212.04,540.88 L 212.03,540.90 L 212.03,540.93 L 212.04,541.05 L 212.04,541.09 L 212.03,541.12 L 212.00,541.16 L 211.92,541.24 L 211.89,541.29 L 211.87,541.33 L 211.86,541.35 L 211.86,541.36 L 211.86,541.37 L 211.87,541.40 L 211.88,541.42 L 211.89,541.44 L 211.90,541.46 L 211.92,541.49 L 211.94,541.51 L 211.98,541.54 L 212.01,541.58 L 212.06,541.62 L 212.11,541.71 L 212.14,541.78 L 212.14,541.82 L 212.14,541.84 L 212.14,541.92 L 212.18,541.96 L 212.23,541.97 L 212.28,541.97 L 212.30,542.04 L 212.30,542.05 L 212.30,542.07 L 212.27,542.13 L 212.27,542.15 L 212.27,542.16 L 212.27,542.19 L 212.28,542.22 L 212.30,542.25 L 212.32,542.28 L 212.35,542.32 L 212.42,542.37 L 212.43,542.39 L 212.45,542.43 L 212.46,542.46 L 212.45,542.56 L 212.44,542.62 L 212.45,542.69 L 212.46,542.72 L 212.48,542.75 L 212.50,542.80 L 212.52,542.83 L 212.53,542.85 L 212.50,542.88 L 212.47,542.91 L 212.45,542.94 L 212.42,543.06 L 212.39,543.12 L 212.38,543.15 L 212.37,543.18 L 212.36,543.20 L 212.36,543.22 L 212.35,543.24 L 212.35,543.26 L 212.35,543.28 L 212.34,543.41 L 212.33,543.44 L 212.31,543.51 L 212.30,543.54 L 212.29,543.57 L 212.27,543.60 L 212.25,543.63 L 212.20,543.76 L 212.19,543.79 L 212.19,543.81 L 212.20,543.83 L 212.21,543.85 L 212.22,543.88 L 212.23,543.90 L 212.23,543.92 L 212.23,543.96 L 212.19,544.13 L 212.21,544.13 L 212.23,544.13 L 212.25,544.13 L 212.27,544.15 L 212.30,544.17 L 212.33,544.18 L 212.36,544.20 L 212.42,544.23 L 212.46,544.26 L 212.53,544.29 L 212.56,544.32 L 212.58,544.37 L 212.60,544.41 L 212.61,544.42 L 212.62,544.45 L 212.63,544.46 L 212.64,544.48 L 212.65,544.49 L 212.67,544.51 L 212.69,544.52 L 212.70,544.53 L 212.74,544.53 L 212.78,544.53 L 212.82,544.55 L 212.86,544.58 L 212.87,544.59 L 212.92,544.60 L 212.95,544.61 L 212.99,544.61 L 213.01,544.61 L 213.04,544.62 L 213.09,544.64 L 213.18,544.67 L 213.22,544.69 L 213.25,544.69 L 213.28,544.68 L 213.31,544.68 L 213.33,544.68 L 213.34,544.69 L 213.40,544.73 L 213.44,544.74 L 213.46,544.74 L 213.49,544.75 L 213.49,544.75 L 213.52,544.75 L 213.56,544.76 L 213.60,544.79 L 213.68,544.87 L 213.74,544.96 L 213.78,545.00 L 213.82,545.03 L 213.85,545.07 L 213.88,545.11 L 213.94,545.14 L 213.96,545.17 L 213.98,545.20 L 214.03,545.31 L 214.06,545.38 L 214.07,545.44 L 214.13,545.44 L 214.18,545.43 L 214.22,545.37 L 214.25,545.36 L 214.29,545.35 L 214.34,545.34 L 214.39,545.35 L 214.45,545.36 L 214.49,545.43 L 214.53,545.44 L 214.54,545.44 L 214.62,545.44 L 214.66,545.44 L 214.83,545.44 L 214.85,545.46 L 214.92,545.56 L 214.92,545.57 L 214.94,545.58 L 214.95,545.58 L 214.98,545.60 L 215.00,545.61 L 215.02,545.63 L 215.04,545.65 L 215.06,545.67 L 215.08,545.69 L 215.13,545.73 L 215.15,545.74 L 215.17,545.75 L 215.19,545.75 L 215.21,545.75 L 215.24,545.76 L 215.30,545.77 L 215.32,545.78 L 215.35,545.78 L 215.40,545.79 L 215.44,545.80 L 215.47,545.81 L 215.50,545.81 L 215.52,545.83 L 215.54,545.88 L 215.57,545.95 L 215.61,546.03 L 215.63,546.08 L 215.65,546.17 L 215.66,546.24 L 215.67,546.28 L 215.68,546.30 L 215.70,546.33 L 215.71,546.35 L 215.73,546.37 L 215.74,546.38 L 215.77,546.42 L 215.79,546.44 L 215.81,546.48 L 215.84,546.55 L 215.85,546.59 L 215.87,546.62 L 215.90,546.64 L 215.96,546.70 L 215.98,546.74 L 215.99,546.78 L 216.01,546.83 L 216.02,546.83 L 216.02,546.86 L 216.04,546.88 L 216.05,546.95 L 216.07,546.98 L 216.09,547.01 L 216.10,547.05 L 216.11,547.07 L 216.11,547.10 L 216.13,547.13 L 216.15,547.14 L 216.20,547.14 L 216.21,547.14 L 216.23,547.16 L 216.24,547.18 L 216.26,547.22 L 216.27,547.26 L 216.28,547.31 L 216.30,547.36 L 216.33,547.39 L 216.35,547.41 L 216.36,547.43 L 216.36,547.45 L 216.37,547.47 L 216.37,547.51 L 216.37,547.53 L 216.38,547.59 L 216.36,547.62 L 216.33,547.66 L 216.28,547.69 L 216.26,547.71 L 216.25,547.73 L 216.25,547.75 L 216.24,547.77 L 216.25,547.81 L 216.25,547.85 L 216.25,547.89 L 216.25,547.94 L 216.25,547.96 L 216.25,548.03 L 216.24,548.14 L 216.21,548.25 L 216.21,548.29 L 216.22,548.30 L 216.25,548.29 L 216.37,548.21 L 216.43,548.16 L 216.56,548.10 L 216.61,548.11 L 216.64,548.10 L 216.70,548.12 L 216.74,548.12 L 216.75,548.12 L 216.80,548.12 L 216.88,548.12 L 216.89,548.12 L 216.92,548.10 L 216.96,548.07 L 217.00,548.03 L 217.03,548.01 L 217.05,548.01 L 217.09,548.01 L 217.11,548.02 L 217.14,548.02 L 217.18,548.03 L 217.20,548.05 L 217.22,548.08 L 217.23,548.13 L 217.24,548.17 L 217.25,548.20 L 217.26,548.23 L 217.27,548.25 L 217.30,548.30 L 217.32,548.32 L 217.35,548.34 L 217.37,548.35 L 217.39,548.36 L 217.42,548.36 L 217.44,548.35 L 217.47,548.34 L 217.50,548.31 L 217.53,548.29 L 217.57,548.25 L 217.62,548.20 L 217.65,548.17 L 217.67,548.14 L 217.68,548.13 L 217.67,548.10 L 217.66,548.05 L 217.65,548.02 L 217.65,548.00 L 217.66,547.99 L 217.67,547.97 L 217.69,547.95 L 217.71,547.95 L 217.77,547.95 L 217.82,547.96 L 217.86,547.97 L 217.90,547.99 L 217.94,548.02 L 217.97,548.04 L 218.00,548.05 L 218.03,548.06 L 218.04,548.10 L 218.05,548.14 L 218.05,548.19 L 218.05,548.23 L 218.06,548.26 L 218.06,548.28 L 218.07,548.30 L 218.09,548.30 L 218.11,548.30 L 218.13,548.27 L 218.16,548.24 L 218.19,548.22 L 218.21,548.21 L 218.22,548.21 L 218.24,548.22 L 218.25,548.24 L 218.26,548.27 L 218.27,548.28 L 218.29,548.29 L 218.30,548.30 L 218.32,548.30 L 218.33,548.30 L 218.34,548.28 L 218.34,548.27 L 218.35,548.26 L 218.36,548.25 L 218.37,548.25 L 218.39,548.25 L 218.40,548.25 L 218.41,548.26 L 218.43,548.28 L 218.44,548.28 L 218.45,548.29 L 218.46,548.29 L 218.47,548.29 L 218.48,548.29 L 218.49,548.28 L 218.49,548.27 L 218.50,548.25 L 218.51,548.24 L 218.51,548.23 L 218.52,548.23 L 218.52,548.23 L 218.55,548.22 L 218.57,548.22 L 218.59,548.23 L 218.61,548.24 L 218.63,548.25 L 218.66,548.27 L 218.68,548.29 L 218.70,548.30 L 218.71,548.31 L 218.72,548.32 L 218.71,548.33 L 218.71,548.34 L 218.69,548.35 L 218.68,548.37 L 218.67,548.38 L 218.66,548.40 L 218.65,548.42 L 218.64,548.44 L 218.64,548.48 L 218.64,548.51 L 218.62,548.57 L 218.60,548.61 L 218.57,548.63 L 218.56,548.65 L 218.53,548.72 L 218.51,548.78 L 218.50,548.84 L 218.50,548.94 L 218.51,549.00 L 218.51,549.07 L 218.52,549.11 L 218.55,549.16 L 218.62,549.25 L 218.67,549.31 L 218.69,549.38 L 218.71,549.40 L 218.72,549.41 L 218.74,549.41 L 218.76,549.41 L 218.77,549.40 L 218.79,549.37 L 218.84,549.31 L 218.86,549.29 L 218.88,549.27 L 218.90,549.25 L 218.93,549.18 L 218.94,549.12 L 218.95,549.08 L 218.95,549.04 L 218.93,549.01 L 218.92,548.97 L 218.91,548.96 L 218.91,548.93 L 218.93,548.90 L 218.97,548.82 L 219.00,548.77 L 219.03,548.71 L 219.07,548.65 L 219.08,548.62 L 219.09,548.60 L 219.10,548.58 L 219.12,548.53 L 219.12,548.50 L 219.13,548.48 L 219.13,548.38 L 219.12,548.34 L 219.10,548.31 L 219.07,548.29 L 219.05,548.26 L 219.03,548.22 L 219.04,548.19 L 219.06,548.15 L 219.09,548.11 L 219.11,548.07 L 219.12,548.04 L 219.15,547.97 L 219.17,547.94 L 219.20,547.91 L 219.23,547.87 L 219.25,547.83 L 219.28,547.76 L 219.30,547.70 L 219.32,547.67 L 219.33,547.63 L 219.33,547.63 L 219.37,547.66 L 219.38,547.67 L 219.41,547.68 L 219.43,547.71 L 219.45,547.72 L 219.49,547.72 L 219.52,547.72 L 219.55,547.72 L 219.61,547.74 L 219.68,547.73 L 219.80,547.67 L 219.84,547.63 L 219.86,547.61 L 219.88,547.60 L 219.89,547.61 L 219.91,547.61 L 219.93,547.63 L 219.95,547.66 L 219.98,547.70 L 219.99,547.71 L 220.00,547.71 L 220.03,547.71 L 220.05,547.70 L 220.06,547.71 L 220.08,547.72 L 220.10,547.73 L 220.13,547.74 L 220.16,547.73 L 220.19,547.73 L 220.21,547.74 L 220.24,547.73 L 220.27,547.71 L 220.29,547.70 L 220.31,547.70 L 220.33,547.70 L 220.36,547.72 L 220.38,547.75 L 220.41,547.78 L 220.42,547.82 L 220.44,547.85 L 220.44,547.86 L 220.44,547.87 L 220.43,547.89 L 220.41,547.91 L 220.38,547.96 L 220.37,548.00 L 220.36,548.05 L 220.36,548.10 L 220.38,548.13 L 220.41,548.18 L 220.45,548.20 L 220.47,548.22 L 220.48,548.25 L 220.48,548.27 L 220.49,548.29 L 220.49,548.32 L 220.49,548.35 L 220.52,548.40 L 220.52,548.41 L 220.51,548.43 L 220.49,548.47 L 220.46,548.52 L 220.45,548.55 L 220.43,548.58 L 220.43,548.62 L 220.43,548.64 L 220.43,548.71 L 220.42,548.80 L 220.40,548.86 L 220.36,548.94 L 220.35,549.04 L 220.34,549.09 L 220.33,549.13 L 220.28,549.21 L 220.24,549.26 L 220.16,549.33 L 220.15,549.35 L 220.16,549.42 L 220.17,549.51 L 220.18,549.61 L 220.11,549.80 L 220.06,549.90 L 220.06,549.92 L 220.08,549.97 L 220.09,550.00 L 220.09,550.01 L 220.09,550.06 L 220.07,550.17 L 220.07,550.20 L 220.10,550.25 L 220.14,550.31 L 220.19,550.35 L 220.16,550.53 L 220.16,550.60 L 220.15,550.67 L 220.16,550.70 L 220.20,550.76 L 220.20,550.77 L 220.20,550.91 L 220.21,550.94 L 220.21,550.96 L 220.21,550.99 L 220.20,551.04 L 220.19,551.06 L 220.17,551.09 L 220.13,551.11 L 220.07,551.13 L 219.97,551.27 L 219.85,551.49 L 219.87,551.55 L 220.00,551.67 L 220.06,551.71 L 220.11,551.77 L 220.17,551.85 L 220.19,551.87 L 220.25,551.94 L 220.41,551.96 L 220.38,552.06 L 220.45,552.06 L 220.54,552.06 L 220.67,552.07 L 220.76,552.08 L 220.84,552.09 L 220.87,552.10 L 220.88,552.12 L 220.90,552.17 L 220.91,552.23 L 220.91,552.29 L 220.89,552.35 L 220.88,552.42 L 220.86,552.49 L 220.85,552.55 L 220.79,552.62 L 220.86,552.60 L 220.91,552.59 L 220.99,552.59 L 221.11,552.61 L 221.19,552.62 L 221.23,552.61 L 221.29,552.60 L 221.32,552.59 L 221.38,552.59 L 221.44,552.58 L 221.50,552.58 L 221.54,552.59 L 221.59,552.50 L 221.68,552.51 L 221.71,552.57 L 221.74,552.58 L 221.77,552.60 L 221.79,552.62 L 221.80,552.65 L 221.80,552.69 L 221.80,552.74 L 221.81,552.75 L 221.86,552.77 L 221.91,552.80 L 221.95,552.84 L 221.99,552.90 L 222.07,553.03 L 222.12,553.14 L 222.15,553.20 L 222.17,553.23 L 222.21,553.28 L 222.23,553.31 L 222.25,553.35 L 222.26,553.38 L 222.28,553.47 L 222.32,553.56 L 222.33,553.61 L 222.34,553.68 L 222.34,553.72 L 222.40,553.74 L 222.45,553.76 L 222.47,553.77 L 222.56,553.89 L 222.59,553.90 L 222.61,553.90 L 222.64,553.89 L 222.67,553.89 L 222.73,553.91 L 222.74,553.91 L 222.85,553.91 L 222.98,553.92 L 223.03,553.93 L 223.07,553.94 L 223.09,553.85 L 223.08,553.82 L 223.07,553.79 L 223.07,553.73 L 223.07,553.67 L 223.07,553.65 L 223.07,553.64 L 223.06,553.63 L 223.07,553.62 L 223.11,553.61 L 223.23,553.55 L 223.30,553.52 L 223.32,553.50 L 223.33,553.47 L 223.34,553.42 L 223.35,553.40 L 223.37,553.39 L 223.44,553.36 L 223.47,553.36 L 223.49,553.37 L 223.51,553.40 L 223.56,553.47 L 223.59,553.53 L 223.62,553.57 L 223.63,553.60 L 223.67,553.67 L 223.70,553.70 L 223.73,553.73 L 223.79,553.77 L 223.83,553.80 L 223.89,553.84 L 223.92,553.87 L 223.95,553.93 L 223.96,553.98 L 224.04,554.01 L 224.18,554.00 L 224.35,553.93 L 224.40,553.92 L 224.44,553.93 L 224.47,553.98 L 224.49,554.00 L 224.51,554.00 L 224.54,553.98 L 224.59,554.00 L 224.62,554.01 L 224.62,554.02 L 224.64,554.13 L 224.66,554.16 L 224.76,554.20 L 224.80,554.23 L 224.84,554.26 L 224.88,554.29 L 224.91,554.31 L 224.93,554.31 L 224.97,554.27 L 225.09,554.17 L 225.11,554.13 L 225.12,554.09 L 225.15,553.98 L 225.17,553.91 L 225.18,553.87 L 225.20,553.81 L 225.21,553.77 L 225.22,553.75 L 225.23,553.72 L 225.25,553.67 L 225.27,553.61 L 225.27,553.55 L 225.26,553.53 L 225.21,553.44 L 225.20,553.41 L 225.20,553.39 L 225.21,553.36 L 225.22,553.32 L 225.22,553.27 L 225.22,553.22 L 225.24,553.15 L 225.27,553.08 L 225.28,553.06 L 225.35,552.99 L 225.39,552.94 L 225.41,552.89 L 225.46,552.83 L 225.48,552.79 L 225.48,552.77 L 225.49,552.69 L 225.51,552.63 L 225.55,552.57 L 225.56,552.55 L 225.59,552.54 L 225.64,552.53 L 225.66,552.54 L 225.73,552.58 L 225.77,552.59 L 225.80,552.59 L 225.89,552.55 L 225.90,552.55 L 225.94,552.59 L 225.95,552.60 L 226.00,552.62 L 226.02,552.63 L 226.03,552.64 L 226.06,552.68 L 226.07,552.71 L 226.09,552.75 L 226.12,552.78 L 226.16,552.80 L 226.18,552.81 L 226.36,552.78 L 226.57,552.74 L 226.65,552.63 L 226.63,552.57 L 226.73,552.48 L 226.74,552.46 L 226.75,552.38 L 226.76,552.32 L 226.76,552.25 L 226.79,552.22 L 226.81,552.18 L 226.83,552.13 L 226.86,552.07 L 226.86,552.06 L 226.87,552.06 L 226.90,552.05 L 226.93,552.04 L 226.95,552.02 L 227.05,551.92 L 227.05,551.91 L 227.02,551.85 L 227.02,551.82 L 227.02,551.81 L 227.05,551.77 L 227.07,551.75 L 227.08,551.70 L 227.08,551.66 L 227.07,551.63 L 227.04,551.60 L 226.96,551.55 L 226.92,551.53 L 226.89,551.52 L 226.85,551.52 L 226.83,551.52 L 226.82,551.51 L 226.79,551.48 L 226.78,551.46 L 226.79,551.42 L 226.81,551.39 L 226.82,551.36 L 226.81,551.32 L 226.83,551.31 L 226.87,551.31 L 226.90,551.31 L 226.95,551.33 L 227.03,551.34 L 227.08,551.36 L 227.14,551.40 L 227.22,551.37 L 227.27,551.37 L 227.38,551.28 L 227.39,551.33 L 227.40,551.36 L 227.41,551.39 L 227.42,551.39 L 227.47,551.40 L 227.49,551.39 L 227.51,551.31 L 227.52,551.30 L 227.55,551.29 L 227.66,551.29 L 227.70,551.26 L 227.76,551.24 L 227.79,551.23 L 227.81,551.23 L 227.85,551.27 L 227.87,551.30 L 227.91,551.38 L 227.95,551.40 L 228.02,551.42 L 228.17,551.46 L 228.20,551.46 L 228.22,551.46 L 228.24,551.48 L 228.30,551.55 L 228.35,551.60 L 228.37,551.61 L 228.44,551.62 L 228.50,551.63 L 228.58,551.64 L 228.64,551.63 L 228.65,551.63 L 228.70,551.65 L 228.76,551.69 L 228.83,551.74 L 228.87,551.76 L 228.94,551.81 L 228.97,551.81 L 228.98,551.81 L 229.00,551.80 L 229.09,551.76 L 229.14,551.72 L 229.19,551.67 L 229.23,551.59 L 229.26,551.54 L 229.31,551.53 L 229.37,551.50 L 229.47,551.48 L 229.52,551.46 L 229.55,551.43 L 229.57,551.40 L 229.60,551.45 L 229.67,551.51 L 229.71,551.55 L 229.71,551.59 L 229.70,551.65 L 229.67,551.75 L 229.63,551.80 L 229.56,551.93 L 229.52,551.98 L 229.45,552.04 L 229.45,552.06 L 229.45,552.10 L 229.45,552.13 L 229.45,552.15 L 229.44,552.16 L 229.39,552.22 L 229.39,552.23 L 229.39,552.27 L 229.39,552.29 L 229.38,552.30 L 229.33,552.43 L 229.33,552.44 L 229.35,552.48 L 229.35,552.52 L 229.36,552.58 L 229.36,552.63 L 229.36,552.66 L 229.34,552.70 L 229.34,552.71 L 229.35,552.73 L 229.37,552.77 L 229.40,552.83 L 229.42,552.89 L 229.43,552.93 L 229.42,552.95 L 229.41,552.96 L 229.45,553.01 L 229.58,553.00 L 229.61,553.00 L 229.65,552.98 L 229.67,552.98 L 229.71,552.97 L 229.71,552.96 L 229.73,552.92 L 229.72,552.90 L 229.71,552.87 L 229.71,552.85 L 229.71,552.82 L 229.73,552.76 L 229.75,552.74 L 229.82,552.69 L 229.83,552.67 L 229.83,552.60 L 229.84,552.58 L 229.87,552.55 L 229.89,552.54 L 229.92,552.54 L 229.96,552.49 L 229.92,552.44 L 229.92,552.42 L 229.93,552.38 L 229.95,552.32 L 229.98,552.27 L 230.01,552.24 L 230.03,552.23 L 230.02,552.16 L 230.04,552.17 L 230.07,552.19 L 230.10,552.22 L 230.13,552.24 L 230.15,552.27 L 230.17,552.33 L 230.21,552.40 L 230.23,552.48 L 230.28,552.60 L 230.30,552.66 L 230.32,552.73 L 230.34,552.77 L 230.36,552.82 L 230.36,552.93 L 230.39,553.01 L 230.41,553.04 L 230.42,553.05 L 230.40,553.08 L 230.38,553.11 L 230.36,553.14 L 230.33,553.18 L 230.32,553.20 L 230.32,553.22 L 230.33,553.23 L 230.42,553.32 L 230.48,553.40 L 230.52,553.47 L 230.53,553.57 L 230.54,553.67 L 230.56,553.73 L 230.59,553.81 L 230.63,553.86 L 230.66,553.92 L 230.67,553.98 L 230.67,553.99 L 230.65,554.11 L 230.64,554.17 L 230.62,554.24 L 230.62,554.30 L 230.63,554.37 L 230.71,554.47 L 230.75,554.52 L 230.78,554.58 L 230.77,554.63 L 230.73,554.68 L 230.68,554.72 L 230.62,554.77 L 230.51,554.80 L 230.43,554.84 L 230.39,554.92 L 230.37,554.98 L 230.34,555.04 L 230.30,555.10 L 230.32,555.14 L 230.32,555.16 L 230.30,555.18 L 230.29,555.21 L 230.28,555.24 L 230.30,555.29 L 230.34,555.34 L 230.38,555.39 L 230.42,555.44 L 230.43,555.46 L 230.42,555.47 L 230.31,555.49 L 230.26,555.49 L 230.25,555.52 L 230.27,555.58 L 230.29,555.64 L 230.28,555.71 L 230.28,555.78 L 230.29,555.82 L 230.35,555.91 L 230.37,555.94 L 230.37,555.97 L 230.40,556.08 L 230.44,556.12 L 230.50,556.16 L 230.56,556.17 L 230.58,556.18 L 230.60,556.21 L 230.64,556.25 L 230.68,556.34 L 230.69,556.35 L 230.71,556.35 L 230.72,556.33 L 230.73,556.29 L 230.75,556.26 L 230.78,556.21 L 230.78,556.19 L 230.78,556.15 L 230.79,556.10 L 230.80,556.08 L 230.81,556.07 L 230.84,556.06 L 230.87,556.07 L 230.89,556.07 L 230.91,556.05 L 230.93,556.03 L 230.96,556.02 L 230.99,556.01 L 231.04,555.99 L 231.09,555.98 L 231.14,555.97 L 231.25,555.98 L 231.33,555.99 L 231.35,556.01 L 231.37,556.03 L 231.43,556.07 L 231.48,556.11 L 231.51,556.14 L 231.54,556.18 L 231.57,556.23 L 231.60,556.31 L 231.62,556.37 L 231.63,556.39 L 231.64,556.40 L 231.67,556.40 L 231.73,556.41 L 231.75,556.43 L 231.77,556.46 L 231.79,556.48 L 231.81,556.50 L 231.84,556.50 L 231.88,556.51 L 231.94,556.52 L 231.98,556.54 L 232.05,556.58 L 232.06,556.59 L 232.08,556.61 L 232.09,556.64 L 232.09,556.72 L 232.08,556.79 L 232.08,556.82 L 232.09,556.85 L 232.11,556.88 L 232.12,556.90 L 232.13,556.92 L 232.13,556.96 L 232.12,557.00 L 232.12,557.01 L 232.17,557.06 L 232.24,557.12 L 232.25,557.12 L 232.30,557.18 L 232.31,557.23 L 232.31,557.26 L 232.28,557.33 L 232.25,557.38 L 232.27,557.45 L 232.29,557.59 L 232.30,557.61 L 232.31,557.67 L 232.26,557.88 L 232.29,558.03 L 232.31,558.27 L 232.31,558.41 L 232.30,558.47 L 232.32,558.57 L 232.34,558.61 L 232.38,558.62 L 232.43,558.63 L 232.49,558.62 L 232.53,558.63 L 232.54,558.63 L 232.63,558.68 L 232.71,558.68 L 232.88,558.65 L 232.97,558.59 L 233.02,558.61 L 233.09,558.64 L 233.16,558.68 L 233.17,558.67 L 233.18,558.67 L 233.21,558.65 L 233.24,558.63 L 233.27,558.63 L 233.29,558.65 L 233.31,558.68 L 233.36,558.69 L 233.44,558.68 L 233.59,558.63 L 233.66,558.61 L 233.72,558.56 L 233.80,558.49 L 233.83,558.47 L 233.90,558.42 L 233.94,558.38 L 233.96,558.36 L 234.03,558.43 L 234.09,558.49 L 234.09,558.56 L 234.08,558.66 L 234.11,558.70 L 234.13,558.76 L 234.21,558.95 L 234.22,559.15 L 234.28,559.23 L 234.31,559.27 L 234.34,559.28 L 234.36,559.30 L 234.39,559.31 L 234.40,559.33 L 234.40,559.36 L 234.40,559.41 L 234.39,559.43 L 234.37,559.44 L 234.31,559.45 L 234.25,559.49 L 234.19,559.51 L 234.18,559.52 L 234.20,559.66 L 234.23,559.75 L 234.28,559.80 L 234.34,559.84 L 234.40,559.85 L 234.43,559.84 L 234.50,559.85 L 234.53,559.84 L 234.61,559.81 L 234.62,559.81 L 234.63,559.84 L 234.69,560.04 L 234.73,560.21 L 234.72,560.44 L 234.73,560.56 L 234.73,560.58 L 234.72,560.60 L 234.72,560.61 L 234.73,560.62 L 234.76,560.64 L 234.78,560.66 L 234.79,560.67 L 234.79,560.67 L 234.80,560.72 L 234.82,560.81 L 234.86,560.85 L 234.89,560.91 L 234.89,560.95 L 234.89,560.97 L 234.87,561.03 L 234.85,561.08 L 234.84,561.12 L 234.84,561.14 L 234.85,561.18 L 234.87,561.21 L 234.87,561.24 L 234.85,561.26 L 234.80,561.29 L 234.78,561.32 L 234.76,561.38 L 234.75,561.39 L 234.72,561.44 L 234.72,561.53 L 234.71,561.64 L 234.71,561.69 L 234.71,561.72 L 234.69,561.75 L 234.66,561.79 L 234.63,561.84 L 234.59,561.87 L 234.56,561.90 L 234.57,561.93 L 234.62,562.02 L 234.63,562.04 L 234.64,562.09 L 234.67,562.15 L 234.78,562.26 L 234.81,562.28 L 234.82,562.31 L 234.82,562.33 L 234.77,562.41 L 234.77,562.43 L 234.75,562.44 L 234.74,562.50 L 234.72,562.54 L 234.70,562.58 L 234.67,562.62 L 234.66,562.64 L 234.67,562.65 L 234.70,562.67 L 234.73,562.69 L 234.75,562.71 L 234.78,562.74 L 234.80,562.79 L 234.82,562.84 L 234.84,562.87 L 234.84,562.87 L 234.87,562.86 L 234.95,562.82 L 234.98,562.80 L 234.99,562.80 L 235.01,562.81 L 235.04,562.82 L 235.10,562.84 L 235.12,562.87 L 235.13,562.89 L 235.13,562.91 L 235.14,562.93 L 235.15,562.93 L 235.21,562.92 L 235.25,562.91 L 235.26,562.91 L 235.30,562.92 L 235.35,562.96 L 235.40,562.99 L 235.41,563.07 L 235.41,563.14 L 235.42,563.19 L 235.47,563.26 L 235.52,563.30 L 235.62,563.35 L 235.64,563.35 L 235.65,563.34 L 235.66,563.30 L 235.68,563.22 L 235.72,563.18 L 235.77,563.13 L 235.81,563.09 L 235.87,563.07 L 235.91,563.06 L 235.96,562.95 L 236.00,562.91 L 236.05,562.90 L 236.13,562.87 L 236.19,562.85 L 236.32,562.82 L 236.40,562.79 L 236.48,562.78 L 236.50,562.79 L 236.56,562.83 L 236.59,562.86 L 236.62,562.90 L 236.63,562.94 L 236.63,563.03 L 236.64,563.08 L 236.68,563.13 L 236.79,563.25 L 236.81,563.27 L 236.88,563.35 L 236.92,563.40 L 236.95,563.48 L 237.07,563.55 L 237.09,563.56 L 237.10,563.57 L 237.13,563.59 L 237.15,563.61 L 237.17,563.64 L 237.21,563.68 L 237.24,563.71 L 237.27,563.74 L 237.31,563.77 L 237.36,563.81 L 237.46,563.85 L 237.50,563.89 L 237.53,563.92 L 237.55,563.93 L 237.57,563.94 L 237.59,563.96 L 237.61,563.97 L 237.65,563.97 L 237.68,563.97 L 237.71,563.97 L 237.73,563.97 L 237.76,563.97 L 237.79,563.97 L 237.83,563.96 L 237.89,563.94 L 237.98,563.89 L 238.08,563.86 L 238.13,563.86 L 238.20,563.94 L 238.57,563.90 L 238.85,563.87 L 239.30,563.88 L 239.61,563.89 L 240.07,563.91 L 240.35,563.91 L 240.56,563.93 L 240.99,563.94 L 241.51,563.94 L 241.70,563.94 L 241.76,563.92 L 241.81,563.84 L 241.82,563.79 L 241.91,563.74 L 242.00,563.71 L 242.05,563.65 L 242.11,563.59 L 242.14,563.54 L 242.12,563.47 L 242.10,563.39 L 242.11,563.37 L 242.18,563.33 L 242.23,563.26 L 242.25,563.23 L 242.32,563.23 L 242.39,563.23 L 242.44,563.21 L 242.51,563.17 L 242.55,563.14 L 242.59,563.08 L 242.65,563.01 L 242.62,562.98 L 242.58,562.94 L 242.55,562.90 L 242.56,562.87 L 242.59,562.82 L 242.60,562.78 L 242.60,562.73 L 242.57,562.68 L 242.54,562.62 L 242.53,562.56 L 242.52,562.48 L 242.52,562.40 L 242.51,562.34 L 242.52,562.29 L 242.56,562.22 L 242.61,562.17 L 242.68,562.12 L 242.72,562.09 L 242.76,562.05 L 242.77,561.96 L 242.80,561.89 L 242.88,561.82 L 242.94,561.79 L 243.00,561.76 L 243.03,561.71 L 243.04,561.59 L 243.08,561.52 L 243.08,561.52 L 243.09,561.52 L 243.14,561.45 L 243.27,561.40 L 243.31,561.39 L 243.35,561.36 L 243.39,561.36 L 243.45,561.37 L 243.53,561.33 L 243.58,561.30 L 243.64,561.30 L 243.71,561.33 L 243.79,561.38 L 243.92,561.39 L 243.99,561.40 L 244.14,561.45 L 244.23,561.47 L 244.26,561.50 L 244.27,561.55 L 244.32,561.58 L 244.38,561.61 L 244.42,561.71 L 244.43,561.76 L 244.50,561.84 L 244.60,561.90 L 244.68,561.96 L 244.76,561.99 L 244.92,562.01 L 245.12,562.03 L 245.29,562.06 L 245.35,562.08 L 245.47,562.21 L 245.59,562.34 L 245.64,562.40 L 245.69,562.44 L 245.72,562.46 L 245.78,562.47 L 245.86,562.45 L 245.95,562.40 L 246.02,562.35 L 246.10,562.25 L 246.19,562.14 L 246.27,562.06 L 246.34,562.01 L 246.41,561.98 L 246.46,561.98 L 246.52,561.99 L 246.58,562.01 L 246.66,562.00 L 246.71,562.00 L 246.79,562.04 L 246.85,562.06 L 246.90,562.08 L 246.94,562.06 L 247.05,562.01 L 247.13,561.95 L 247.23,561.93 L 247.37,561.94 L 247.48,561.95 L 247.56,561.95 L 247.62,561.94 L 247.65,561.90 L 247.67,561.88 L 247.66,561.86 L 247.58,561.75 L 247.53,561.67 L 247.50,561.63 L 247.50,561.60 L 247.52,561.58 L 247.65,561.50 L 247.74,561.45 L 247.86,561.38 L 247.91,561.34 L 247.95,561.30 L 248.00,561.23 L 248.01,561.23 L 248.06,561.24 L 248.13,561.30 L 248.16,561.35 L 248.20,561.43 L 248.23,561.46 L 248.35,561.49 L 248.44,561.52 L 248.52,561.57 L 248.57,561.59 L 248.63,561.60 L 248.68,561.59 L 248.77,561.52 L 248.86,561.39 L 248.96,561.26 L 249.01,561.16 L 249.05,561.07 L 249.04,560.99 L 249.00,560.88 L 248.96,560.80 L 248.86,560.75 L 248.75,560.71 L 248.57,560.66 L 248.46,560.64 L 248.29,560.50 L 248.10,560.42 L 247.88,560.36 L 247.79,560.34 L 248.01,560.07 L 248.18,559.87 L 248.23,559.96 L 248.30,559.95 L 248.37,559.91 L 248.37,559.91 L 248.43,559.86 L 248.51,559.79 L 248.59,559.73 L 248.63,559.70 L 248.67,559.69 L 248.76,559.69 L 248.88,559.72 L 248.94,559.74 L 248.98,559.78 L 249.00,559.77 L 249.10,559.70 L 249.28,559.55 L 249.39,559.55 L 249.50,559.56 L 249.61,559.59 L 249.68,559.65 L 249.81,559.66 L 249.88,559.52 L 249.89,559.50 L 249.90,559.50 L 249.92,559.49 L 249.94,559.48 L 249.95,559.47 L 249.96,559.46 L 250.08,559.46 L 250.34,559.49 L 250.76,559.52 L 250.79,559.52 L 250.83,559.53 L 250.88,559.53 L 250.91,559.54 L 250.93,559.54 L 250.94,559.54 L 250.96,559.54 L 250.98,559.54 L 251.00,559.54 L 251.02,559.53 L 251.03,559.53 L 251.06,559.52 L 251.07,559.51 L 251.10,559.50 L 251.13,559.49 L 251.16,559.47 L 251.18,559.45 L 251.20,559.45 L 251.22,559.43 L 251.23,559.42 L 251.25,559.39 L 251.26,559.38 L 251.28,559.36 L 251.29,559.35 L 251.30,559.32 L 251.31,559.31 L 251.32,559.28 L 251.33,559.25 L 251.34,559.23 L 251.34,559.21 L 251.35,559.19 L 251.35,559.17 L 251.36,559.16 L 251.36,559.16 L 251.36,559.15 L 251.37,559.14 L 251.38,559.13 L 251.59,558.98 L 251.60,558.97 L 251.61,558.96 L 251.61,558.95 L 251.63,558.93 L 251.63,558.92 L 251.64,558.90 L 251.65,558.88 L 251.66,558.85 L 251.66,558.83 L 251.67,558.80 L 251.69,558.78 L 251.69,558.77 L 251.71,558.75 L 251.72,558.73 L 251.74,558.71 L 251.92,558.55 L 251.94,558.52 L 251.96,558.50 L 251.98,558.47 L 252.01,558.44 L 252.04,558.41 L 252.04,558.41 L 252.05,558.41 L 252.06,558.41 L 252.07,558.40 L 252.17,558.41 L 252.18,558.41 L 252.19,558.40 L 252.19,558.40 L 252.20,558.40 L 252.20,558.40 L 252.20,558.39 L 252.25,558.30 L 252.27,558.28 L 252.28,558.26 L 252.30,558.24 L 252.31,558.23 L 252.34,558.20 L 252.35,558.19 L 252.36,558.18 L 252.38,558.17 L 252.39,558.16 L 252.41,558.15 L 252.42,558.14 L 252.43,558.14 L 252.43,558.13 L 252.44,558.13 L 252.45,558.13 L 252.67,558.15 L 253.07,558.19 L 253.38,558.29 L 253.41,558.31 L 253.44,558.32 L 253.46,558.34 L 253.49,558.35 L 253.50,558.36 L 253.52,558.38 L 253.55,558.41 L 253.57,558.43 L 253.69,558.60 L 253.71,558.61 L 253.71,558.62 L 253.73,558.64 L 253.74,558.64 L 253.75,558.65 L 253.77,558.67 L 253.78,558.67 L 253.79,558.67 L 253.80,558.67 L 253.80,558.67 L 253.81,558.67 L 253.82,558.67 L 253.83,558.66 L 253.84,558.66 L 253.84,558.65 L 253.84,558.64 L 253.85,558.63 L 253.85,558.62 L 253.85,558.61 L 253.85,558.60 L 253.86,558.59 L 253.86,558.59 L 253.87,558.58 L 253.87,558.58 L 254.01,558.49 L 254.02,558.48 L 254.04,558.47 L 254.05,558.46 L 254.07,558.44 L 254.08,558.43 L 254.11,558.42 L 254.12,558.41 L 254.24,558.35 L 254.27,558.34 L 254.30,558.31 L 254.32,558.30 L 254.34,558.29 L 254.36,558.28 L 254.37,558.26 L 254.43,558.22 L 254.53,558.18 L 254.54,558.18 L 254.54,558.18 L 254.55,558.18 L 254.56,558.18 L 254.58,558.19 L 254.58,558.19 L 254.59,558.20 L 254.66,558.26 L 254.67,558.27 L 254.69,558.29 L 254.70,558.30 L 254.70,558.32 L 254.71,558.34 L 254.71,558.35 L 254.74,558.49 L 254.74,558.50 L 254.75,558.51 L 254.75,558.51 L 254.76,558.52 L 254.77,558.53 L 254.77,558.53 L 254.79,558.55 L 254.83,558.57 L 254.84,558.58 L 254.86,558.61 L 254.87,558.62 L 254.89,558.65 L 254.90,558.67 L 254.90,558.69 L 254.91,558.70 L 254.92,558.72 L 254.92,558.74 L 254.93,558.75 L 255.06,558.87 L 255.15,558.96 L 255.15,558.97 L 255.17,558.99 L 255.19,559.00 L 255.21,559.01 L 255.26,559.03 L 255.27,559.04 L 255.29,559.05 L 255.29,559.05 L 255.30,559.06 L 255.30,559.07 L 255.31,559.07 L 255.32,559.09 L 255.32,559.10 L 255.33,559.12 L 255.33,559.13 L 255.33,559.13 L 255.33,559.14 L 255.32,559.22 L 255.37,559.26 L 255.38,559.27 L 255.39,559.28 L 255.39,559.29 L 255.39,559.30 L 255.40,559.31 L 255.40,559.32 L 255.40,559.34 L 255.40,559.35 L 255.40,559.36 L 255.40,559.37 L 255.40,559.37 L 255.40,559.38 L 255.41,559.38 L 255.41,559.39 L 255.42,559.39 L 255.50,559.46 L 255.57,559.54 L 255.58,559.55 L 255.58,559.56 L 255.59,559.57 L 255.59,559.59 L 255.59,559.59 L 255.59,559.61 L 255.59,559.61 L 255.55,559.91 L 255.55,559.92 L 255.55,559.93 L 255.55,559.94 L 255.55,559.96 L 255.56,559.96 L 255.56,559.98 L 255.57,559.99 L 255.58,559.99 L 255.59,560.00 L 255.64,560.03 L 255.66,560.04 L 255.68,560.04 L 255.70,560.04 L 255.72,560.04 L 255.74,560.04 L 255.75,560.04 L 255.77,560.04 L 255.80,560.03 L 255.82,560.02 L 255.87,560.01 L 255.90,560.00 L 255.94,559.98 L 255.98,559.97 L 256.01,559.96 L 256.03,559.96 L 256.04,559.96 L 256.13,559.95 L 256.21,559.94 L 256.22,559.93 L 256.24,559.93 L 256.25,559.94 L 256.27,559.94 L 256.28,559.94 L 256.29,559.95 L 256.29,559.95 L 256.30,559.96 L 256.31,559.96 L 256.31,559.97 L 256.32,559.97 L 256.33,559.99 L 256.34,560.01 L 256.36,560.03 L 256.37,560.04 L 256.38,560.05 L 256.50,560.16 L 256.52,560.17 L 256.53,560.17 L 256.54,560.16 L 256.56,560.16 L 256.58,560.16 L 256.60,560.15 L 256.62,560.14 L 256.64,560.13 L 256.65,560.13 L 256.78,560.02 L 256.95,559.79 L 256.96,559.78 L 256.97,559.77 L 256.99,559.76 L 257.01,559.75 L 257.02,559.74 L 257.04,559.73 L 257.05,559.73 L 257.07,559.73 L 257.08,559.72 L 257.11,559.72 L 257.14,559.71 L 257.20,559.71 L 257.25,559.70 L 257.27,559.69 L 257.32,559.68 L 257.36,559.67 L 257.38,559.67 L 257.41,559.67 L 257.45,559.67 L 257.48,559.67 L 257.50,559.67 L 257.54,559.67 L 257.61,559.71 L 257.61,559.72 L 257.61,559.73 L 257.62,559.74 L 257.62,559.77 L 257.63,559.79 L 257.64,559.80 L 257.65,559.81 L 257.79,559.87 L 257.82,559.90 L 257.85,559.93 L 257.88,559.96 L 257.91,559.99 L 257.94,560.03 L 257.95,560.04 L 257.98,560.08 L 257.99,560.10 L 258.02,560.16 L 258.05,560.23 L 258.08,560.30 L 258.09,560.33 L 258.11,560.41 L 258.26,560.51 L 258.39,560.63 L 258.41,560.64 L 258.42,560.66 L 258.43,560.67 L 258.45,560.69 L 258.47,560.72 L 258.48,560.73 L 258.50,560.76 L 258.53,560.77 L 258.56,560.78 L 258.59,560.80 L 258.62,560.81 L 258.65,560.83 L 258.67,560.85 L 258.76,560.91 L 258.78,560.94 L 258.79,560.95 L 258.82,560.98 L 258.83,560.99 L 258.85,561.02 L 258.86,561.04 L 258.89,561.07 L 258.89,561.08 L 258.90,561.09 L 258.91,561.10 L 258.92,561.11 L 258.93,561.12 L 258.95,561.14 L 258.96,561.15 L 258.98,561.17 L 259.00,561.19 L 259.04,561.24 L 259.05,561.26 L 259.07,561.28 L 259.09,561.29 L 259.10,561.30 L 259.18,561.37 L 259.22,561.41 L 259.23,561.42 L 259.23,561.42 L 259.24,561.43 L 259.25,561.43 L 259.26,561.43 L 259.26,561.44 L 259.27,561.44 L 259.28,561.44 L 259.28,561.45 L 259.29,561.46 L 259.29,561.47 L 259.29,561.47 L 259.29,561.48 L 259.29,561.49 L 259.29,561.50 L 259.29,561.51 L 259.29,561.52 L 259.29,561.53 L 259.29,561.54 L 259.29,561.54 L 259.28,561.60 L 259.28,561.61 L 259.28,561.62 L 259.28,561.62 L 259.28,561.63 L 259.28,561.64 L 259.28,561.65 L 259.28,561.66 L 259.28,561.67 L 259.33,561.73 L 259.35,561.79 L 259.36,561.81 L 259.37,561.82 L 259.37,561.83 L 259.38,561.83 L 259.39,561.84 L 259.40,561.85 L 259.49,561.92 L 259.50,561.93 L 259.51,561.94 L 259.52,561.95 L 259.53,561.96 L 259.54,561.98 L 259.55,561.99 L 259.56,562.00 L 259.58,562.01 L 259.67,562.05 L 259.69,562.06 L 259.71,562.07 L 259.74,562.08 L 259.75,562.08 L 259.77,562.08 L 259.86,562.10 L 259.93,562.11 L 259.96,562.12 L 260.03,562.14 L 260.07,562.14 L 260.10,562.16 L 260.12,562.17 L 260.16,562.20 L 260.18,562.20 L 260.19,562.21 L 260.20,562.21 L 260.21,562.21 L 260.22,562.21 L 260.23,562.21 L 260.25,562.21 L 260.28,562.21 L 260.31,562.21 L 260.33,562.20 L 260.36,562.20 L 260.36,562.19 L 260.37,562.17 L 260.37,562.15 L 260.37,562.13 L 260.37,562.11 L 260.38,562.09 L 260.39,562.07 L 260.44,561.96 L 260.47,561.94 L 260.63,561.96 L 260.77,562.01 L 260.77,562.01 L 260.78,562.01 L 260.78,562.01 L 260.79,562.01 L 260.79,562.01 L 260.79,562.01 L 260.80,562.01 L 260.80,562.01 L 260.81,562.01 L 260.81,562.00 L 260.82,562.00 L 260.86,561.97 L 260.86,561.96 L 260.87,561.96 L 260.87,561.96 L 260.88,561.96 L 260.88,561.96 L 260.89,561.96 L 260.89,561.96 L 260.90,561.96 L 260.90,561.96 L 260.91,561.97 L 260.91,561.97 L 260.92,561.97 L 260.93,561.98 L 260.93,561.98 L 260.94,561.99 L 260.94,561.99 L 260.95,562.00 L 260.95,562.01 L 260.96,562.01 L 260.96,562.02 L 260.98,562.07 L 260.99,562.08 L 260.99,562.08 L 261.00,562.08 L 261.01,562.09 L 261.02,562.09 L 261.02,562.09 L 261.03,562.09 L 261.04,562.10 L 261.05,562.10 L 261.07,562.10 L 261.08,562.11 L 261.09,562.11 L 261.11,562.12 L 261.13,562.13 L 261.18,562.15 L 261.18,562.16 L 261.18,562.16 L 261.18,562.17 L 261.18,562.17 L 261.18,562.17 L 261.18,562.18 L 261.18,562.18 L 261.18,562.23 L 261.18,562.24 L 261.18,562.24 L 261.18,562.25 L 261.19,562.25 L 261.19,562.26 L 261.19,562.26 L 261.19,562.27 L 261.20,562.27 L 261.20,562.27 L 261.23,562.30 L 261.23,562.30 L 261.23,562.30 L 261.24,562.31 L 261.24,562.31 L 261.24,562.31 L 261.24,562.32 L 261.24,562.32 L 261.24,562.32 L 261.24,562.37 L 261.24,562.38 L 261.25,562.39 L 261.25,562.39 L 261.25,562.40 L 261.25,562.40 L 261.26,562.41 L 261.26,562.41 L 261.26,562.42 L 261.32,562.44 L 261.38,562.47 L 261.39,562.47 L 261.40,562.47 L 261.41,562.47 L 261.41,562.47 L 261.42,562.48 L 261.43,562.48 L 261.44,562.47 L 261.44,562.47 L 261.45,562.47 L 261.46,562.47 L 261.46,562.47 L 261.47,562.47 L 261.48,562.46 L 261.49,562.46 L 261.50,562.46 L 261.51,562.46 L 261.52,562.46 L 261.53,562.46 L 261.60,562.47 L 261.61,562.47 L 261.61,562.48 L 261.62,562.49 L 261.63,562.49 L 261.63,562.50 L 261.64,562.51 L 261.65,562.52 L 261.65,562.53 L 261.70,562.60 L 261.71,562.60 L 261.71,562.61 L 261.72,562.62 L 261.72,562.62 L 261.73,562.63 L 261.74,562.64 L 261.74,562.64 L 261.75,562.65 L 261.76,562.65 L 261.80,562.67 L 261.81,562.67 L 261.81,562.68 L 261.81,562.68 L 261.82,562.69 L 261.82,562.69 L 261.82,562.70 L 261.82,562.70 L 261.82,562.71 L 261.83,562.71 L 261.82,562.72 L 261.82,562.73 L 261.82,562.74 L 261.82,562.75 L 261.82,562.76 L 261.82,562.77 L 261.81,562.78 L 261.80,562.80 L 261.79,562.81 L 261.79,562.81 L 261.78,562.82 L 261.78,562.82 L 261.77,562.83 L 261.77,562.84 L 261.76,562.84 L 261.76,562.85 L 261.76,562.86 L 261.76,562.86 L 261.75,562.87 L 261.75,562.88 L 261.75,562.88 L 261.75,562.89 L 261.71,562.97 L 261.71,562.97 L 261.71,562.98 L 261.71,562.98 L 261.71,562.98 L 261.71,562.99 L 261.71,562.99 L 261.71,563.00 L 261.71,563.00 L 261.71,563.00 L 261.72,563.01 L 261.72,563.01 L 261.72,563.01 L 261.72,563.02 L 261.73,563.02 L 261.73,563.02 L 261.74,563.02 L 261.75,563.03 L 261.76,563.03 L 261.77,563.04 L 261.78,563.04 L 261.78,563.05 L 261.79,563.05 L 261.80,563.06 L 261.81,563.07 L 261.82,563.07 L 261.82,563.08 L 261.83,563.09 L 261.91,563.19 L 261.92,563.20 L 261.92,563.21 L 261.93,563.22 L 261.94,563.23 L 261.95,563.23 L 261.96,563.24 L 261.97,563.25 L 261.98,563.26 L 262.07,563.23 L 262.13,563.26 L 262.17,563.32 L 262.18,563.33 L 262.18,563.33 L 262.18,563.34 L 262.18,563.35 L 262.18,563.36 L 262.18,563.37 L 262.17,563.38 L 262.17,563.42 L 262.16,563.52 L 262.16,563.53 L 262.16,563.53 L 262.16,563.54 L 262.17,563.55 L 262.17,563.56 L 262.22,563.56 L 262.23,563.55 L 262.24,563.55 L 262.25,563.55 L 262.26,563.55 L 262.27,563.55 L 262.29,563.55 L 262.30,563.55 L 262.34,563.60 L 262.35,563.61 L 262.35,563.62 L 262.35,563.62 L 262.36,563.63 L 262.36,563.64 L 262.36,563.65 L 262.37,563.66 L 262.37,563.67 L 262.37,563.68 L 262.37,563.69 L 262.37,563.70 L 262.38,563.71 L 262.39,563.72 L 262.39,563.74 L 262.40,563.75 L 262.41,563.76 L 262.42,563.77 L 262.42,563.78 L 262.42,563.82 L 262.39,563.88 L 262.34,563.93 L 262.22,563.99 L 262.20,564.04 L 262.19,564.13 L 262.14,564.19 L 262.10,564.20 L 262.05,564.21 L 262.03,564.23 L 262.04,564.28 L 261.98,564.32 L 261.91,564.36 L 261.89,564.39 L 261.87,564.45 L 261.89,564.51 L 261.88,564.58 L 261.86,564.61 L 261.84,564.69 L 261.76,564.79 L 261.75,564.86 L 261.73,564.93 L 261.70,565.00 L 261.60,565.13 L 261.56,565.15 L 261.51,565.15 L 261.47,565.15 L 261.44,565.20 L 261.43,565.29 L 261.41,565.35 L 261.39,565.36 L 261.32,565.37 L 261.28,565.38 L 261.17,565.48 L 261.10,565.56 L 261.07,565.65 L 261.09,565.68 L 261.15,565.73 L 261.17,565.80 L 261.18,565.91 L 261.17,566.01 L 261.13,566.13 L 261.08,566.23 L 261.04,566.37 L 261.04,566.46 L 261.04,566.51 L 261.02,566.57 L 260.97,566.63 L 260.96,566.68 L 261.00,566.69 L 261.07,566.68 L 261.13,566.69 L 261.17,566.71 L 261.22,566.75 L 261.27,566.76 L 261.35,566.78 L 261.42,566.80 L 261.48,566.83 L 261.52,566.85 L 261.56,566.89 L 261.61,566.94 L 261.65,566.97 L 261.69,567.00 L 261.72,567.03 L 261.74,567.07 L 261.75,567.09 L 261.80,567.10 L 261.86,567.11 L 261.95,567.16 L 262.00,567.18 L 262.04,567.20 L 262.18,567.20 L 262.32,567.23 L 262.37,567.25 L 262.47,567.29 L 262.65,567.41 L 262.74,567.46 L 262.89,567.49 L 262.97,567.49 L 263.08,567.50 L 263.27,567.51 L 263.50,567.51 L 263.62,567.51 L 263.74,567.54 L 263.85,567.59 L 263.98,567.64 L 264.10,567.66 L 264.19,567.69 L 264.26,567.71 L 264.36,567.75 L 264.40,567.79 L 264.50,567.80 L 264.63,567.78 L 264.69,567.79 L 264.78,567.84 L 264.88,567.83 L 265.01,567.80 L 265.11,567.79 L 265.17,567.82 L 265.22,567.88 L 265.27,567.93 L 265.36,567.96 L 265.53,568.02 L 265.68,568.11 L 265.79,568.20 L 265.88,568.22 L 265.98,568.20 L 266.08,568.17 L 266.15,568.17 L 266.20,568.18 L 266.22,568.20 L 266.24,568.26 L 266.25,568.30 L 266.27,568.32 L 266.50,568.34 L 266.65,568.35 L 266.78,568.31 L 266.92,568.30 L 267.04,568.38 L 267.21,568.44 L 267.38,568.44 L 267.60,568.41 L 267.67,568.44 L 267.74,568.46 L 267.86,568.54 L 267.95,568.58 L 268.10,568.58 L 268.19,568.55 L 268.30,568.49 L 268.37,568.42 L 268.46,568.34 L 268.53,568.33 L 268.60,568.26 L 268.69,568.20 L 268.77,568.19 L 268.83,568.19 L 268.90,568.20 L 268.98,568.20 L 269.03,568.17 L 269.08,568.11 L 269.13,568.07 L 269.20,568.06 L 269.29,568.08 L 269.35,568.13 L 269.38,568.21 L 269.43,568.33 L 269.46,568.37 L 269.55,568.43 L 269.64,568.47 L 269.70,568.46 L 269.77,568.41 L 269.81,568.38 L 269.89,568.31 L 269.98,568.14 L 270.05,568.03 L 270.12,567.95 L 270.23,567.90 L 270.38,567.90 L 270.50,567.87 L 270.63,567.81 L 270.74,567.79 L 270.81,567.81 L 270.86,567.80 L 270.93,567.73 L 271.00,567.67 L 271.06,567.65 L 271.14,567.68 L 271.26,567.72 L 271.43,567.70 L 271.55,567.71 L 271.58,567.72 L 271.64,567.74 L 271.70,567.80 L 271.75,567.82 L 271.80,567.82 L 271.83,567.80 L 271.86,567.77 L 271.98,567.64 L 272.02,567.64 L 272.04,567.65 L 272.06,567.67 L 272.12,567.75 L 272.14,567.79 L 272.18,567.81 L 272.22,567.85 L 272.29,567.89 L 272.35,567.91 L 272.42,567.93 L 272.46,567.95 L 272.48,567.97 L 272.49,568.00 L 272.51,568.04 L 272.51,568.06 L 272.56,568.09 L 272.62,568.14 L 272.67,568.20 L 272.83,568.28 L 272.98,568.32 L 273.03,568.41 L 273.10,568.51 L 273.18,568.52 L 273.20,568.51 L 273.31,568.60 L 273.36,568.57 L 273.44,568.46 L 273.59,568.35 L 273.72,568.27 L 273.90,568.26 L 273.98,568.29 L 274.08,568.38 L 274.17,568.49 L 274.25,568.49 L 274.30,568.51 L 274.35,568.57 L 274.37,568.69 L 274.40,568.79 L 274.44,568.87 L 274.45,568.80 L 274.51,568.72 L 274.55,568.64 L 274.61,568.51 L 274.71,568.40 L 274.79,568.30 L 274.88,568.17 L 274.84,568.09 L 274.75,568.00 L 274.64,567.80 L 274.58,567.69 L 274.49,567.37 L 274.55,567.20 L 274.58,567.09 L 274.66,566.94 L 274.75,566.88 L 274.92,566.87 L 275.03,566.84 L 275.11,566.79 L 275.16,566.75 L 275.18,566.72 L 275.20,566.60 L 275.23,566.46 L 275.23,566.31 L 275.25,566.24 L 275.28,566.22 L 275.34,566.21 L 275.45,566.13 L 275.55,566.02 L 275.63,565.90 L 275.67,565.77 L 275.69,565.72 L 275.71,565.70 L 275.73,565.70 L 275.87,565.72 L 276.01,565.72 L 276.12,565.69 L 276.26,565.65 L 276.45,565.67 L 276.68,565.70 L 276.78,565.69 L 276.81,565.61 L 276.80,565.46 L 276.79,565.35 L 276.81,565.30 L 276.85,565.21 L 276.85,565.20 L 276.94,564.91 L 276.95,564.90 L 277.00,564.76 L 277.03,564.69 L 277.16,564.54 L 277.30,564.41 L 277.40,564.35 L 277.42,564.33 L 277.44,564.31 L 277.46,564.28 L 277.48,564.25 L 277.49,564.20 L 277.50,564.16 L 277.51,564.11 L 277.52,564.06 L 277.53,564.03 L 277.55,564.02 L 277.55,563.99 L 277.61,563.97 L 277.63,563.98 L 277.67,563.98 L 277.73,563.99 L 277.75,563.99 L 277.95,564.07 L 278.07,564.11 L 278.17,564.12 L 278.19,564.12 L 278.28,564.11 L 278.32,564.10 L 278.40,564.09 L 278.46,564.07 L 278.56,564.04 L 278.69,564.02 L 278.81,564.03 L 278.82,564.04 L 278.89,564.07 L 278.98,564.14 L 278.98,564.15 L 279.00,564.16 L 279.04,564.17 L 279.08,564.18 L 279.18,564.21 L 279.23,564.21 L 279.30,564.22 L 279.37,564.23 L 279.43,564.25 L 279.48,564.27 L 279.52,564.29 L 279.56,564.31 L 279.57,564.32 L 279.66,564.35 L 279.67,564.35 L 279.70,564.34 L 279.73,564.34 L 279.85,564.31 L 279.86,564.31 L 279.93,564.31 L 279.94,564.31 L 280.14,564.45 L 280.37,564.53 L 280.79,564.58 L 280.98,564.58 L 280.99,564.58 L 281.02,564.58 L 281.06,564.64 L 281.07,564.67 L 281.13,564.73 L 281.36,564.93 L 281.58,565.10 L 281.58,565.10 L 281.58,565.10 L 281.59,565.10 L 281.83,565.04 L 281.93,565.01 L 282.00,565.02 L 282.09,565.11 L 282.16,565.20 L 282.23,565.25 L 282.27,565.28 L 282.31,565.30 L 282.35,565.30 L 282.39,565.29 L 282.39,565.29 L 282.43,565.29 L 282.61,565.22 L 282.69,565.19 L 282.79,565.16 L 282.93,565.12 L 282.96,565.11 L 283.03,565.11 L 283.06,565.13 L 283.10,565.16 L 283.22,565.28 L 283.40,565.32 L 283.50,565.33 L 283.50,565.34 L 283.50,565.35 L 283.53,565.87 L 283.55,566.35 L 283.59,566.36 L 283.70,566.38 L 283.80,566.42 L 283.89,566.50 L 284.02,566.42 L 284.20,566.33 L 284.30,566.26 L 284.37,566.21 L 284.43,566.19 L 284.50,566.18 L 284.64,566.16 L 284.80,566.13 L 284.96,566.10 L 284.98,566.10 L 285.12,566.10 L 285.28,566.14 L 285.37,566.20 L 285.48,566.25 L 285.53,566.27 L 285.60,566.25 L 285.85,566.12 L 286.07,565.99 L 286.47,565.59 L 288.20,564.29 L 301.07,555.65 L 295.68,549.36 L 273.37,517.72 L 245.17,517.72 L 245.16,517.72 L 245.15,517.72 L 245.14,517.72 L 245.13,517.72 L 245.12,517.72 L 245.11,517.73 L 245.10,517.73 L 245.09,517.73 L 245.08,517.74 L 245.07,517.74 L 245.06,517.75 L 245.05,517.75 L 245.05,517.76 L 245.04,517.77 L 245.03,517.77 L 245.02,517.78 L 245.02,517.79 L 245.01,517.79 L 245.01,517.80 L 245.00,517.81 L 244.99,517.82 L 244.95,517.90 Z" fill="#E5E7EB" stroke="#374151" stroke-width="1" fill-rule="evenodd"/>
</svg>