<?xml version="1.0" encoding="UTF-8"?>
<!DOCTYPE svg PUBLIC "-//W3C//DTD SVG 1.1//EN" "http://www.w3.org/Graphics/SVG/1.1/DTD/svg11.dtd">
<!-- Creator: CorelDRAW 2021 (64-Bit) -->
<svg xmlns="http://www.w3.org/2000/svg" xml:space="preserve" width="0.727937in" height="0.760165in" version="1.1" shape-rendering="geometricPrecision" text-rendering="geometricPrecision" image-rendering="optimizeQuality" fill-rule="evenodd" clip-rule="evenodd"
viewBox="0 0 233.03 243.34"
 xmlns:xlink="http://www.w3.org/1999/xlink"
 xmlns:xodm="http://www.corel.com/coreldraw/odm/2003">
 <g id="Layer_x0020_1">
  <metadata id="CorelCorpID_0Corel-Layer"/>
  <path fill="none" fill-rule="nonzero" stroke="#336666" stroke-width="0.96" stroke-miterlimit="2.61313" d="M185.21 119.9l-0 -0.8c-4.28,-3.38 -8.56,-6.37 -12.84,-9.55 -11.55,-11.96 -23.19,-23.92 -34.65,-36.28 -2.42,-3.39 -4.94,-6.98 -7.28,-10.78 -0.84,-2.6 -2.53,-5.99 -5.88,-9.38 -1.02,-1.2 -1.96,-2.39 -2.89,-3.79 -0.66,-1.8 -1.13,-3.4 -1.69,-5 -0,-0.6 -0,-1.2 -0.01,-2.2 -0.28,-0.4 -0.56,-1 -0.84,-1.6 -0.28,-0.2 -0.56,-0.4 -0.84,-0.8 -0.66,-1.8 -1.22,-3.8 -1.79,-5.8 -0.1,-1.2 -0.1,-2.6 -0.11,-4 0.27,-1 0.55,-2.21 0.92,-3.41 0.46,-0.4 1.02,-1.01 1.57,-1.61 0.46,-1.2 1.01,-2.21 1.57,-3.21 0.93,-0.41 1.85,-1.01 2.78,-1.62 0.28,-0.2 0.56,-0.4 0.83,-0.8 -0,-1 -0.01,-3.43 -0.01,-4.63 -0.14,0.16 -0.29,0.3 -0.43,0.45 0.01,0.06 0.03,0.12 0.06,0.18 -0.83,0.8 -1.76,1.61 -2.5,2.42 -0.28,-0.2 -0.56,-0.4 -0.84,-0.8 -2.04,0.21 -4.08,0.22 -6.12,0.24 -1.11,0.41 -2.22,0.61 -3.24,0.82 -2.13,-0.19 -4.27,-0.78 -6.32,-1.37 -0.56,-0.2 -1.11,-0.39 -1.58,-0.79 -0.28,-0.2 -0.56,-0.4 -0.84,-0.8 -1.76,0.01 -3.52,0.22 -5.29,0.23 -0.55,0.4 -1.11,0.61 -1.57,0.81 -0.27,0.6 -0.55,1.19 -0.82,1.6 0.01,0.47 0.03,0.97 0.09,1.38l-0.08 0.13c0.02,0.34 0.04,0.66 0.08,0.9 -0.37,0.6 -0.65,1.21 -0.92,1.61 -0.74,1.61 -2.77,2.82 -6.02,3.64 -2.41,0.01 -5.38,-0.77 -7.06,-1.57 -1.39,0.01 -2.69,0.02 -3.99,0.02 -1.11,-0.19 -2.04,-0.39 -2.97,-0.79 -0.84,0.01 -1.67,0.21 -2.41,0.21 -2.88,-0.38 -5.85,-0.97 -8.73,-1.35 -0.74,0 -1.49,-0.8 -2.33,-2.39 -0.37,-0.8 -0.66,-1.6 -0.94,-2.4 -0.84,-0.8 -1.68,-3.39 -0.76,-5.8 -0.09,-0.4 -0.09,-0.8 -0.1,-1.4 -0.01,-1 -2.14,-1.79 -4.55,-1.78 -0.56,0.2 -1.11,0.21 -1.67,0.21 -0.84,-0.8 -1.68,-1.59 -2.42,-2.59 -0.56,-0.2 -1.11,-0.4 -1.67,-0.79 -1.21,-0.8 -2.88,-1.59 -3.72,-2.38 -0.56,-0.4 -1.12,-1.19 -1.68,-1.99 -0.28,0 -0.56,0 -0.84,0 -0.74,0.01 -0.74,0.81 0.11,3.8 0,0.4 0,0.6 0,0.8 0.1,1.8 -1.66,2.61 -5.28,3.43 -0.55,0.4 -1.11,0.61 -1.57,1.01 -0.28,0.4 -0.55,0.8 -0.83,1 -4.08,0.02 -8.07,0.04 -11.97,0.27 -1.77,-0.99 -3.53,-1.78 -5.39,-2.57 -0.28,0 -0.56,0.2 -0.84,0.2 -0.84,0.01 -0.74,1.61 -0.82,4.81 -0.73,2.41 -2.4,3.42 -5.29,0.83 -2.22,0.01 -4.44,0.21 -6.58,0.24 -0.51,1.31 -0.95,2.45 -1.38,3.58 -0.28,0.4 -0.55,1.63 -0.83,1.84 0,0.6 0.01,1.2 0.01,1.8 -0.28,0.8 -0.55,1.8 -0.73,2.61 0,0.4 0,0.6 0,0.8 0.56,-0.2 1.11,-0.4 1.67,-0.81 0.19,-0 0.46,-0 0.74,-0.01 0,0.4 0,0.6 0,0.8 0.47,0.6 1.02,1.2 1.58,1.79 0.28,0.8 0.56,1.4 0.94,2 1.49,1.19 2.98,2.19 4.56,3.18 0.84,0.8 1.68,3.39 1.69,6.4 0,0.6 0.01,1.2 0.01,1.8 -0.28,0.6 -0.55,1.2 -0.74,1.6 0.56,0.6 1.12,1.2 1.67,1.59 0.19,0 0.47,-0 0.74,-0 0.28,0.4 0.56,0.8 0.84,1 -0.27,0.8 -0.55,1.41 -0.73,2.01 0.28,0.6 0.56,1.2 0.84,1.6 1.49,1.39 3.07,2.58 4.75,4.18 0,0.4 0,0.8 0,1 0.28,-0 0.56,-0 0.83,-0.01 1.12,1.2 2.24,2.39 3.35,3.58 0.28,0.6 0.56,1.2 0.84,1.8 0.65,0.4 1.3,0.59 2.04,0.79 0.28,0.4 0.56,0.59 0.84,0.59 0.28,-0 0.56,-0 0.84,-0.01 0.47,0.4 1.02,0.6 1.58,0.79 0.28,0.4 0.56,0.8 0.84,1 0.28,-0 0.56,-0 0.84,-0 0,0.8 0.01,1.4 0.01,2 0.28,0.4 0.65,0.6 0.93,0.8 1.77,0.99 3.53,1.78 5.39,2.57 0.75,0.8 1.58,1.59 2.42,2.39 0,0.6 0,1.2 0.1,1.8 0.19,0.4 0.47,0.6 0.74,0.8 0.28,0.8 0.56,1.4 0.94,2 1.21,0.59 2.42,1.19 3.63,1.78 0.28,0.4 0.56,0.6 0.84,0.8 -0.28,0.4 -0.55,0.6 -0.74,0.8 0,0.4 0,0.6 0,0.8 0.28,0.4 0.56,0.8 0.84,1 0.47,0.2 1.02,0.4 1.58,0.59 0.28,-0 0.56,-0 0.83,-0.01 1.49,1.59 2.98,3.39 4.56,4.78 0.28,0.6 0.56,1.2 0.84,1.6 0.56,0.4 1.12,0.6 1.67,0.79 0.84,0.8 0.84,1.6 0.84,2.4 0.28,0.8 0.56,1.4 0.84,2 0.56,0.4 1.12,0.8 1.67,0.99 0.28,-0 0.56,-0 0.83,-0 0.28,0.6 0.56,1.2 0.84,1.6 0,0.6 0,1.2 0.01,1.6 1.21,-0 2.41,-0.01 3.62,-0.02 0.74,-0.01 1.58,0.79 2.42,1.59 0.56,1 1.12,2 1.68,2.8 1.21,1.4 2.42,2.59 3.72,3.59 0,0.4 0,0.6 0,0.8 -0.28,0.4 -0.55,0.8 -0.74,1.01 0.28,0.4 0.56,0.6 0.84,0.8 0.46,-0 1.02,-0 1.67,-0.01 0.56,0.6 1.12,1.2 1.68,1.39 0,0.4 0,0.8 0,1.2 0.28,0.6 0.56,1.2 0.84,1.8 0.28,0.4 0.56,0.6 0.84,0.8 0.28,-0 0.56,-0 0.84,-0.01 0.28,0.4 0.56,0.6 0.84,0.8 0.93,-0.01 1.86,-0.01 2.88,-0.02 0.47,0.4 1.02,0.59 1.58,0.79 1.02,-0.01 2.13,-0.21 3.25,-0.22 0.65,-0.2 1.3,-0.41 2.04,-0.81 -0,-0.4 -0,-1 -0.01,-1.6 -0.47,-0.6 -0.93,-1.2 -1.31,-1.8 -0,-0.4 -0,-0.8 -0.01,-1.2 0.37,-0 0.84,-0.01 1.3,-0.01 0.56,0.4 1.12,0.79 1.67,1.19 0.19,0.6 0.47,1.2 0.75,1.8 0.84,0.8 1.68,2.39 1.69,5 0,0.8 0.01,1.4 0.1,2 0.28,1 0.56,1.8 0.84,2.6 0.84,2 1.68,3.39 2.52,4.99 2.05,2.39 2.98,3.99 2.99,5.59 1.12,1.19 2.24,2.39 3.35,3.39 0.75,1.8 1.59,3.6 2.43,5.4 0.28,0.4 0.56,0.4 0.84,0.6 0,1.2 0.01,2 0.01,2.8 0.37,-0 0.74,-0 1.21,-0.01 0,0.4 0,0.6 0.1,0.8 0.74,1 1.58,1.99 2.42,2.99 0.56,0.4 1.12,0.59 1.67,0.79 0.28,0.4 0.56,0.6 0.84,0.8 1.46,-0.01 3,-0.1 4.54,-0.17 0.01,0.88 0.03,1.69 0.1,2.5 -0.28,0.8 -0.55,1.61 -0.73,2.41 0,1 0.01,1.8 -0.08,2.6 0.28,0.8 0.56,1.6 0.94,2.4 0.01,1.6 0.01,3.2 0.02,4.61 0.65,1.2 1.4,2.4 2.15,3.39 0,0.4 0,0.6 0,0.8 -0.46,0.6 -0.83,1.01 -1.2,1.21 0,1.2 0.01,2.4 0.01,3.6 0.38,1 0.75,1.8 1.22,2.6 -0.46,0.4 -0.83,0.6 -1.2,0.81 0,1.4 0.01,2.6 0.11,3.81 0.37,0.6 0.84,1.2 1.31,1.6 0.28,0.4 0.56,0.6 0.84,0.8 0.01,2.6 0.02,5.21 0.03,7.81 0.56,0.6 1.12,1.19 1.68,1.79 0,0.8 0.1,1.6 0.1,2.4 0.84,1 1.68,2 2.52,3 0.28,0.6 0.56,1.2 0.84,1.6 1.21,1.2 9.78,6.21 11.08,7.2 0.56,-0 1.11,-0 1.67,-0.21 0.01,1.8 -0.08,3.41 0.02,4.81 0.28,0.4 0.56,1.2 0.84,1.6 0.28,0.4 0.56,0.8 0.84,1 0.01,1.8 0.01,3.41 0.11,5.01 0.56,0.8 1.12,1.4 1.68,1.99 0,0.6 0.01,1.2 0.01,1.8 0.47,0.6 1.02,1.2 1.58,1.59 0.93,0.4 1.86,0.59 2.79,0.79 0.56,0.4 1.12,0.6 1.67,0.79 2.04,-0.21 4.08,-0.22 6.12,-0.23 1.58,-0.81 2.41,-1.61 3.23,-4.22 0.28,-0.2 0.56,-0.4 0.83,-0.81 0.46,-1.4 0.92,-3.21 1.47,-4.81 0.92,-1.01 1.85,-2.21 2.77,-3.42 0.28,-0.2 0.56,-0.4 0.83,-0.8 0.28,-0 0.56,-0 0.84,-0.01 0.47,0.6 1.02,1.2 1.58,1.8 0.56,0.8 1.12,1.6 1.68,2.39 0.01,1.6 0.01,3.21 0.11,4.61 0.28,0.6 0.56,1.2 0.84,1.8 -0.09,0.8 -0.09,1.6 0.01,2.4 0.56,1.4 1.12,2.4 1.68,3.6 0,0.4 0,0.6 0,0.8 0.93,1.8 1.96,3.4 2.99,4.99 0.47,0.4 1.02,0.8 1.49,1 0.28,0.4 0.56,0.6 0.84,0.8 0,0.8 0.01,1.4 0.1,2 0.28,0.4 0.56,0.6 0.84,0.8 0.28,0.6 0.56,1.2 0.84,1.8 0.74,0.8 1.58,1.6 2.42,2.39 0.65,-0.2 1.3,-0.21 2.04,-0.21 1.12,0.4 2.23,0.79 3.34,0.99 1.02,-0.01 2.23,-0.01 3.34,-0.02 1.48,0.4 2.97,0.39 4.46,0.58 0.74,0.4 1.58,0.59 2.42,0.79l0.83 -0 0.01 0 0.01 0 0.04 0 0.01 0 0.01 0 0 0 0.01 0 0.01 0 0 0 0.01 0 0.01 0 0.01 0 0 0 0.01 0 0.01 0 0 -0 0.01 0 0.01 0 0.01 0 0.01 0 0.01 0 0.01 0 0.01 0 0.01 0 0 0 0.01 0 0.01 0 0.02 0 0.01 0 0 0 0.01 0 0.01 0 0.01 0 0.01 0 0 0 0.01 0 0.01 0 0 0 0.01 0 0.01 0 0.01 -0 0.01 0 0.01 0 0.01 0 0.01 0 0.01 0 0.01 0 0 0 0.01 0 0.01 0 0 0 0.01 0 0.03 0 0.01 0 0 0 0.01 0 0.01 0 0 0 0.01 0 0.01 0 0.01 0 0.03 0 0.01 0 0.01 0 0.01 0 0 0 0.01 0 0.01 0 0.01 0 0.02 0 0 -0 0.01 0 0.01 0 0.03 0c1.02,-0.2 1.95,-0.41 2.87,-0.81 0.28,-0.6 0.55,-1.41 0.83,-2.01 -0,-0.2 -0,-0.4 -0.01,-0.8 -0.37,-0.8 -0.65,-1.4 -0.93,-2.2 -0,-0.6 -0.01,-1.4 -0.01,-2.2 -1.02,0.01 -1.95,0.01 -2.88,0.02 -0.28,-0.2 -0.56,-0.4 -0.84,-0.8 -0,-0.4 -0,-1 -0.01,-1.6 0.46,-0.6 1.11,-1.21 1.66,-1.81 0.37,-0 0.74,-0 1.21,-0 0.28,0.4 0.56,0.6 0.74,0.6 0.56,-0 1.11,-0.01 1.67,-0.01 0.84,-0 2.5,-0.81 4.17,-2.42 0.65,-0.6 1.29,-1.21 2.04,-1.81 -0.1,-1.2 -0.1,-2.4 -0.11,-3.61 -0.1,-2.6 -1.22,-3.4 -2.79,-3.39 -0.37,-0.2 -0.65,-0.4 -0.93,-0.8 -0.28,-0.6 -0.56,-1.4 -0.84,-2.2 -0.28,-0.2 -0.56,-0.4 -0.84,-0.8 -0.28,0 -0.56,0 -0.84,0.01 -0.28,-0.2 -0.56,-0.4 -0.84,-0.8 -0,-0.6 -0,-1.2 -0.01,-1.8 -0.28,-0.2 -0.56,-0.4 -0.84,-0.8 -0.1,-1 -0.1,-2.2 -0.11,-3.41 -0.74,0 -1.39,0.01 -2.04,0.21 0.37,-0.2 0.74,-0.6 1.3,-1.01 0.46,-0.4 1.02,-0.8 1.57,-1.21 3.06,-0.01 6.31,-0.03 9.46,-0.24 0.73,-0.79 1.55,-1.58 2.36,-2.76l0.04 -0.06c0.74,-0 1.58,-0.01 2.41,-0.01 0.65,-0.2 1.3,-0.41 2.04,-0.81 0.46,-0.4 1.02,-1.21 1.57,-1.81 0.28,-0 0.56,-0 0.83,-0.01 0.46,-0.2 1.02,-0.41 1.57,-0.81 0.28,-0.2 0.56,-0.6 0.83,-1.01 0,-0.2 -0,-0.4 -0,-0.8l0.83 -1.2 0 -0.08 0 -0.01 0 -0.02 0 -0.01 0 -0.01 0 -0.02 0 -0.09 0 -0 0 -0.02 0 -0.01 0 -0.01 0 -0.08 0 -0.01 0 -0.02 0 -0 0 -0.02 0 -0.02 -0 -0.07 0 -0.01 0 -0.02 0 -0 0 -0.02 0 -0.01 0 -0.02 0 -0.07 0 -0.03 0 -0.01 0 -0.02 0 -0.01 0 -0.02 -0 -0.08 0 -0 0 -0.02 0 -0.01 0 -0.02 0 -0.01 0 -0.01 0 -0.05 0 -0.03 0 -0 0 -0.02 0 -0.01 0 -0.01 0 -0.02 0 -0.01 0 -0.06 0 -0 0 -0.02 0 -0.01 0 -0.02 0 -0.02 0 -0.01 -0 -0.06 0 -0 0 -0.02 0 -0.01 0 -0.02 0 -0.02 0 -0.01 0 -0.03 0 -0 0 -0.03 0 -0.01 0 -0.02 0 -0.01 0 -0.02 0 -0.02 0 -0.01 0 -0.03 0 -0 0 -0.03 -0 -0.01 0 -0.02 0 -0.02 0 -0.01 0 -0.03c0.46,-0.2 1.02,-0.61 1.57,-1.01 -0,-0.8 -0.01,-1.6 -0.01,-2.41 0.65,-0.4 1.3,-1 1.94,-1.61 0.28,-0.2 0.56,-0.2 0.83,-0.2l0.01 -0.03 0.01 -0.03 0 -0 0.01 -0.03 0 0c0.17,-0.56 0.42,-1.28 0.75,-2 0.02,-0.12 0.05,-0.27 0.05,-0.47l0 -0.01 0 -0 0 -0.01 0 -0.01 0 -0.01 0 -0.01 0 -0 -0 -0.4c0.27,-0.19 0.54,-0.39 0.81,-0.77l0 -0 0.01 -0.02 0.01 -0.02c0.28,-0 0.56,-0 0.84,-0.01 -0.1,-1.4 -0.1,-2.81 -0.11,-4.21 0.46,-0.6 1.02,-1.21 1.57,-1.81 0.46,-0.81 1.11,-1.81 1.66,-2.81 1.2,-1.01 1.2,-1.81 1.2,-2.61 -0.47,-0.8 -0.93,-1.6 -1.31,-2.4 -0,-0.2 -0,-0.6 -0,-1 -0.56,-0.4 -1.12,-1 -1.68,-1.6 -0.28,-0.6 -0.56,-1.2 -0.75,-2 -0.56,-0.6 -1.12,-1.2 -1.68,-1.79 -0.56,-0.2 -1.11,-0.4 -1.67,-0.79 -0.28,0 -0.56,0 -0.74,0 -0.74,-0.2 -1.4,-0.39 -2.04,-0.59 -1.96,-1.79 -3.91,-3.79 -5.87,-5.58 -4.56,-3.99 -6.15,-6.58 -6.15,-7.38 -0.28,-0.6 -0.56,-1.4 -0.84,-2.2 -2.42,-2.19 -4.75,-4.38 -7.08,-6.58 -0.56,-1.4 -1.03,-2.8 -1.59,-4.4 -0.1,-2.6 -0.21,-5.41 -0.22,-8.21 0.08,-2.8 -1.59,-3.4 -4,-3.39 -4,-2.58 -7.9,-5.17 -11.72,-7.95z"/>
 </g>
</svg>
