<?xml version="1.0" encoding="UTF-8"?>
<!DOCTYPE svg PUBLIC "-//W3C//DTD SVG 1.1//EN" "http://www.w3.org/Graphics/SVG/1.1/DTD/svg11.dtd">
<!-- Creator: CorelDRAW 2021 (64-Bit) -->
<svg xmlns="http://www.w3.org/2000/svg" xml:space="preserve" width="0.44485in" height="0.336567in" version="1.1" shape-rendering="geometricPrecision" text-rendering="geometricPrecision" image-rendering="optimizeQuality" fill-rule="evenodd" clip-rule="evenodd"
viewBox="0 0 187.22 141.65"
 xmlns:xlink="http://www.w3.org/1999/xlink"
 xmlns:xodm="http://www.corel.com/coreldraw/odm/2003">
 <g id="Layer_x0020_1">
  <metadata id="CorelCorpID_0Corel-Layer"/>
  <path fill="none" fill-rule="nonzero" stroke="#336666" stroke-width="1.26" stroke-miterlimit="2.61313" d="M133.43 64.87c-2.44,-1.31 -4.77,-2.88 -7.09,-4.45 -1.35,-1.84 -2.82,-3.94 -4.17,-6.04 -1.71,-1.05 -3.3,-1.83 -4.89,-3.14 -1.47,-0.52 -2.93,-1.3 -4.28,-2.09 -3.06,-3.15 -6.12,-6.3 -9.18,-9.18 -1.84,-1.31 -3.67,-2.62 -5.51,-4.46 -0.97,-0.26 -1.83,-0.78 -2.69,-1.31 -1.1,0.01 -2.19,0.01 -3.17,0.28 0,0.53 0,1.05 0,1.32 -0.36,0.53 -0.73,0.8 -1.09,1.06 -1.58,1.06 -2.92,1.86 -4.26,2.39 -0.36,0 -0.73,0 -1.1,0 -0,-0.53 -0.01,-1.58 -0.01,-2.37 0.24,-0 0.73,-0 1.1,-0.01 0.37,-0.26 0.73,-0.53 1.1,-1.06 0.37,-0 0.73,-0 1.1,-0 0,-0.26 0,-0.79 -0,-1.32 0.24,-0.26 0.61,-0.53 0.97,-1.06 -0.37,-0.79 -0.74,-1.58 -1.11,-2.63 -1.71,-1.31 -3.3,-2.88 -4.9,-4.46 -1.1,-0.52 -2.32,-1.31 -3.3,-2.09 -8.32,-6.28 -16.76,-12.57 -24.95,-19.38 -1.47,-1.31 -2.94,-2.62 -4.29,-4.2 -1.34,0.27 -2.56,0.28 -3.78,0.28 0.49,1.05 1.11,2.1 1.72,3.15 0,1.06 0.01,2.11 -1.57,3.43 -0.73,1.32 -1.58,2.64 -2.18,3.7 -0.73,0.8 -1.46,1.59 -2.07,2.38 0.01,1.84 0.01,3.69 0.14,5.53 -0.37,0 -0.73,0 -1.1,0 -0.36,0.53 -0.73,0.79 -1.09,1.06 0,0.53 0,0.79 0,1.05 -0.48,1.06 -0.85,2.11 -1.09,2.9 -0.37,0 -0.73,0 -1.1,0.27 -0.85,0.8 -1.7,1.59 -2.55,2.12 0,1.06 0.01,2.11 0.01,3.16 -0.73,0.53 -1.46,1.06 -2.07,1.33 0,0.79 0.01,1.58 0.01,2.11 -0.36,0.53 -0.73,1.06 -1.09,1.58 0,0.53 0,0.79 0,1.05 -0.36,0.53 -0.73,1.06 -1.09,1.32 -0.73,0.53 -1.46,0.8 -2.07,1.06 -0.37,0 -0.73,0 -1.1,0 -0.73,0.79 -1.45,1.85 -2.06,2.38 -0.97,0.53 -1.83,0.8 -2.68,1.07 -1.1,0 -2.2,0.01 -3.17,0.01 -1.1,1.59 -2.19,2.65 -3.16,3.71 -4.15,0.28 -8.42,0.3 -12.45,0.32 -0.73,0.53 -1.46,1.06 -2.07,1.59 -0.73,0.53 -1.22,1.06 -1.7,1.33 0.85,-0.27 1.71,-0.28 2.68,-0.28 0.01,1.58 0.01,3.16 0.14,4.48 0.37,0.53 0.74,0.79 1.1,1.05 0,0.79 0.01,1.58 0.01,2.37 0.37,0.52 0.74,0.78 1.1,1.05 0.37,0 0.73,-0 1.1,-0 0.37,0.53 0.74,0.79 1.1,1.05 0.37,1.05 0.74,2.1 1.11,2.89 0.37,0.53 0.74,0.79 1.22,1.05 2.07,-0.01 3.54,1.04 3.68,4.46 0.01,1.58 0.01,3.16 0.14,4.74 -0.97,0.8 -1.83,1.59 -2.68,2.38 -2.19,2.12 -4.38,3.18 -5.48,3.18 -0.73,0 -1.46,0.01 -2.19,0.01 -0.25,0 -0.61,-0.26 -0.98,-0.78 -0.61,0 -1.1,0 -1.59,0.01 -0.73,0.79 -1.58,1.59 -2.18,2.38 0,0.79 0,1.58 0.01,2.1 0.37,0.53 0.73,0.79 1.1,1.05 1.22,-0.01 2.44,-0.01 3.78,-0.02 0,1.05 0.01,2.11 0.01,2.89 0.37,1.05 0.73,1.84 1.23,2.89 0,0.52 0,0.79 0.01,1.05 -0.36,0.79 -0.73,1.84 -1.09,2.64 -1.22,0.53 -2.44,0.8 -3.78,1.07 -0.37,0 -0.73,0 -0.98,0 0.61,0.53 1.34,0.79 2.08,1.05 0.49,1.05 0.98,2.1 1.6,2.89 3.3,0.77 4.41,3.93 4.42,7.35 0,1.32 -0.11,2.64 0.01,3.96 0.73,1.05 1.47,2.1 2.21,3.15 0.74,1.58 1.47,3.15 2.21,4.47 1.59,1.84 3.18,3.41 4.78,4.98 0.36,-0.26 0.73,-0.53 1.09,-1.06 2.44,-0.28 4.88,-0.28 7.44,-0.3 0.49,0.53 0.98,0.79 1.59,1.05 0.37,0 0.73,-0 1.1,-0 0,0.53 0,0.79 0,1.05 0.37,0.79 0.74,1.58 1.11,2.1 0,0.53 0,0.79 0,1.05 0.37,0.53 0.74,1.05 1.1,1.31 0.37,-0 0.73,-0 1.1,-0.01 1.84,2.1 3.67,3.94 5.39,5.78 1.95,-0.01 3.9,-0.02 5.85,-0.03 0.97,-0.53 2.07,-1.06 3.16,-1.85 1.22,-0.01 2.44,-0.28 3.78,-0.28 0.98,-0.53 2.07,-1.33 3.17,-2.12 0.61,-0.53 1.46,-1.32 2.31,-2.12 0.74,0.79 1.35,1.57 2.08,2.1 0.98,1.05 0.01,3.95 -0.96,5.01l0 0.51c3.11,2.12 3.45,7.35 5.39,6.85 1.56,-0.27 3.12,-0.28 4.8,-0.28l0.01 0 0.07 0 0.1 0.04 0.1 0.05 0.1 0.05 0.1 0.04 0 0 0.1 0.04 0 0 0.1 0.04 0 0 0.1 0.04 0 0 0.1 0.04 0 0 0.1 0.04 0.1 0.03 0 0c0.7,0.23 1.41,0.36 2.16,0.36l0.03 0 0.02 0c1.06,-0 2.12,-0.28 3.14,-0.8 1.58,-0.53 3.17,-1.6 4.75,-2.39 2.19,-1.07 4.26,-1.07 5.37,-0.03 0.99,1.11 2.02,2.01 3.13,2.73 2.01,1.06 4.48,1.45 7.13,1.44 0.61,-0 1.35,-0 2.08,-0 6.1,1.02 9.39,-0.31 10.36,-1.63 0.73,-0.53 1.46,-1.32 2.19,-2.11 1.97,-2.02 4.5,-3.32 6.52,-3.68l0 0 0.09 -0.01 0 0 0.1 -0.01 0.1 -0.02c5.86,-0.02 9.03,-0.83 10.11,-4 1.09,-3.43 2.05,-7.12 3.01,-10.81 -0.13,-1.84 -0.01,-3.42 -0.02,-5.53 -0,-0.78 0.15,-1.45 0.47,-1.99 0.47,-0.91 1.39,-1.44 2.69,-1.45 7.33,-0.29 14.77,-0.33 22.21,-0.61l0.01 0 0.35 -0.01 0 0 0 0c1.86,0.64 3.56,0.96 5.19,0.96 1.59,-0.01 3.15,-0.31 4.63,-0.89l0 0 0.14 -0.06 0 0 0.15 -0.06c2.31,-0.8 4.75,-1.34 7.07,-1.87 0.96,-0.52 2.03,-1.3 3.11,-2.08l0 -0 0.05 -0.03 0.1 0 0.01 0 0.09 -0 0.02 0 0.07 0 0.03 0 0.07 -0c1.96,-0.04 4.01,-0.28 6.07,-0.29 2.68,-0.01 3.78,-1.07 3.77,-2.39l0.12 0 0.01 0 0 0 0.01 0 0.01 0 0 0 0.01 0 0 0 0.01 0 0.01 0 0 0 0.01 0 0 0 0.01 0 0.01 0 0.01 0 0.01 0 0 0 0.01 0 0.01 0 0.01 0 0.01 0 0.01 0 0.01 0 0.01 0 0 0 0.01 0 0 0 0.01 -0 0 0 0.01 0 0.01 0 0.01 0 0.01 0 0.01 0 0.01 0 0 0 0.01 0 0 0 0.01 0 0 0 0.01 0 0 0 0.01 0 0.01 0 0.01 0 0.01 0 0.01 0 0.01 0 0 0 0.01 0 0 0 0.01 0 0 0 0.02 0 0 0 0.01 0 0 0 0.01 0 0 0 0.01 0 0.01 0 0.01 0 0.01 0 0.01 0 0.01 0 0.01 0 0.01 0 0.01 0 0.01 0 0.01 0 0.01 0 0 0 0.01 0 0 0 0.01 0 0 0 0.01 0 0.01 0 0.01 0 0 0 0.02 0 0 0 0.01 0 0 0 0.02 0 0 0 0.01 0 0 0 0.01 0 0 0 0.01 0 0 0 0.01 0 0 0 0.02 0 0 0 0.02 0 0 0 0.02 0 0.02 0 0.02 0 0.02 0 0.02 0 0.02 0 0.02 0 0.02 0 0.02 0 0.02 0 0.02 0c-0.13,-1.05 -0.13,-2.11 -0.14,-3.16l0.01 0.01c-0.01,-0.19 -0.01,-0.37 -0.01,-0.54 -0.61,-0.79 -1.35,-1.58 -2.08,-2.36 -1.47,-0.52 -2.93,-1.3 -4.27,-2.09 -2.44,-0.52 -4.76,-1.03 -7.08,-1.81 -1.47,0.01 -2.93,0.01 -4.27,0.02 -0.37,-0.53 -0.74,-1.05 -1.11,-1.84 -0.49,-0.52 -1.1,-1.31 -1.59,-2.1 -0,-0.26 -0,-0.53 -0.01,-1.06 -1.47,-3.15 -3.07,-6.31 -4.42,-9.2 -1.1,-1.05 -3.3,-2.09 -4.4,-2.09 -1.59,0.01 -3.17,0.02 -4.76,0.02 -0.37,0.53 -0.73,0.79 -1.1,1.06 -0.36,1.06 -0.73,1.85 -0.97,2.64 -0.36,0 -0.73,0 -1.1,0.27 -0.37,-0.79 -0.74,-1.58 -1.11,-2.63 -0.74,-0.52 -1.47,-1.31 -2.21,-2.1 -1.95,0.01 -3.9,0.02 -5.98,0.03 -0.73,-0.26 -1.46,-0.78 -2.2,-1.3 0.36,-0.27 0.73,-0.53 1.09,-1.06 -0,-1.05 0.11,-2.11 0.11,-3.16 -0.37,-0.26 -0.73,-0.79 -1.1,-1.31 -0.73,-0.52 -1.47,-1.05 -2.2,-1.57 -0.74,-0.53 -1.47,-1.05 -2.21,-1.83zm-4.72 11.61c0,0 0,0 0,0 0.37,0.52 0.74,0.79 1.1,1.05 1.59,-0.01 3.17,-0.02 4.88,-0.02 0.01,1.84 0.01,3.42 -0.1,5.01 -0.37,0.53 -0.73,0.79 -0.97,1.06 -1.71,0.01 -3.29,0.02 -4.88,0.03 -1.1,-0.26 -2.2,-0.52 -3.18,-1.04 -1.46,0.01 -2.93,0.28 -4.27,0.28 -1.22,-0.78 -2.45,-1.57 -3.67,-2.35 -0.49,-1.58 -0.86,-3.16 -1.24,-4.74 1.1,-0 2.2,-0.01 3.3,-0.01 -0,-0.26 -0,-0.79 -0.01,-1.32 0.49,-0.53 0.97,-1.33 1.45,-2.12 0.37,-0.26 0.73,-0.53 1.22,-1.32 -0.12,0.79 -0.11,1.85 -0.11,2.37 1.1,0.79 2.2,0.78 3.3,2.09 0.74,0.52 1.47,0.78 2.2,1.04 0.25,0 0.61,-0 0.97,-0z"/>
 </g>
</svg>
