<?xml version="1.0" encoding="UTF-8"?>
<!DOCTYPE svg PUBLIC "-//W3C//DTD SVG 1.1//EN" "http://www.w3.org/Graphics/SVG/1.1/DTD/svg11.dtd">
<!-- Creator: CorelDRAW 2021 (64-Bit) -->
<svg xmlns="http://www.w3.org/2000/svg" xml:space="preserve" width="0.703417in" height="0.638453in" version="1.1" shape-rendering="geometricPrecision" text-rendering="geometricPrecision" image-rendering="optimizeQuality" fill-rule="evenodd" clip-rule="evenodd"
viewBox="0 0 564.71 512.56"
 xmlns:xlink="http://www.w3.org/1999/xlink"
 xmlns:xodm="http://www.corel.com/coreldraw/odm/2003">
 <g id="Layer_x0020_1">
  <metadata id="CorelCorpID_0Corel-Layer"/>
  <path fill="none" fill-rule="nonzero" stroke="#336666" stroke-width="2.41" stroke-miterlimit="2.61313" d="M513.78 73.47c1.16,-1.51 2.55,-3.02 3.94,-4.54 0.69,-1.51 1.39,-3.02 2.08,-4.53 2.07,-7.55 -2.13,-11.56 -13.53,-11.01 -0.7,0 -1.4,0 -2.1,0.01 -1.17,-1 -2.57,-2.5 -3.97,-4 -0.25,-4.53 -0.27,-9.05 -0.05,-13.58 -1.4,-2.01 -2.81,-4.01 -4.21,-6.01 0.22,-4.53 -2.12,-8.54 -6.32,-10.54 -3.02,0.01 -5.14,-5.51 -4.93,-11.55 -0.25,-4.52 -4.21,-6.02 -14.21,-5.98 -2.55,2.53 -4.87,4.55 -7.19,6.57 -0.7,0 -1.4,0 -2.1,0 -0.7,-0.5 -3.98,-4.08 -4.92,-5.09 -1.16,-0.5 -2.56,-0.99 -3.96,-1.49 0,0.4 -0,0.78 -0.01,1.15 0.56,0.65 1.11,1.04 1.67,1.44 0.01,2.52 -0.22,4.53 -0.21,6.54 0.94,1.51 2.11,3.01 3.27,4.01 -1.86,2.53 -3.48,4.55 -5.1,6.56 -0.58,0.84 -1.16,1.68 -1.6,2.53l-1.18 0.51 -0.03 0 -0.02 0 -0.02 0 -0.03 0 -0.02 0 -0.02 0 -0.03 0 -0.02 0 -0.08 0 -0.03 0 -0.02 0 -0.02 0 -0.03 0 -0.02 0 -0.02 0 -0.03 0 -0.02 0 -0.02 0 -0.03 0 -0.02 0 -0.08 0 -0.03 0 -0.02 0 -0.02 0 -0.03 0 -0.02 0 -0.02 0 -0.03 0 -0.02 0 -0.01 0 -0.04 0 -0.02 0 -0.02 0 -0.07 0 -0.03 0 -0.02 0 -0.02 0 -0.03 0 -0.02 0 -0.01 0 -0.03 0 -0.02 0 -0.02 0 -0.03 0 -0.02 0 -0.01 0 -0.03 0 -0.02 0 -0.02 0 -0.03 0 -0.02 0 -0.01 0 -0.03 0 -0.02 0 -0.01 0 -0.03 0 -0.02 0 -0.01 0 -0.03 0 -0.02 0 -0.01 0 -0.03 0 -0.02 0 -0.01 0 -0.03 0 -0.02 0 -0.01 0 -0.03 0 -0.02 0 -0.01 0 -0.03 0 -0.02 0 -0.02 0 -0.03 0 -0.02 0 -0.01 0 -0.03 0 -0.02 0 -0.01 0 -0.03 0 -0.02 0 -0.02 0 -0.03 0 -0.02 0 -0.02 0 -0.03 0 -0.02 0 -0.01 0 -1.16 0c-0.7,1.01 -1.39,1.51 -1.85,2.02 -1.59,0.99 -2.96,1.49 -4.32,1.99l-0.02 0.01 -0.01 0 -0.07 0.02c-2.09,1.01 -4.18,2.03 -6.04,3.04l-0.06 0 -0.07 0 -0.04 0 -0.02 0 -0.07 0 -0.06 0 -0.07 0 -0.06 0 -0.06 0 -0 0 -0.06 0 -0.07 0 -0.07 0 -0.07 0 -0.06 0 -0.01 0 -0.06 0 -0.06 0 -0.06 0 -0.07 0 -0.06 0 -0.02 0 -0.05 0 -0.06 0 -0.07 0 -0.06 0 -0.09 0 -0.04 0 -0.04 0 -0.03 0 -0.06 0 -0.07 0 -0.06 0 -0.06 0 -0.04 0.01 -0.03 0 -0.06 0 -0.07 0 -0.06 0 -0.06 0 -0.04 0 -0.02 0 -0.06 0 -0.06 0 -0.06 0 -0.06 0 -0.04 0 -0.02 0 -0.05 0 -0 0 -0.06 0 -0.06 0 -0.06 0 -0.06 0 -0.06 0 -0.01 0 -0.06 0 -0.06 0 -0.06 0 -0.06 0 -0.05 0 -0 0 -0.06 0 -0.06 0 -0.06 0 -0.06 0 -0.06 0 -0.05 0 -0.06 0 -0.05 0 -0.06 0 -0.06 0 -0 0 -0.05 0 -0.06 0 -0.05 0c-3.25,1.51 -6.27,3.04 -9.29,4.06 -6.28,1.53 -12.55,3.57 -18.37,4.6 -7.9,3.55 -15.8,6.6 -23.47,10.15 -6.89,1.59 -12.07,3.17 -17,3.1l-0.04 0 -0.02 0 -0.07 -0 -0.06 0 -0.07 0 -0.07 -0 -0.02 0 -0.05 -0.01 -0.07 0 -0.07 -0 -0.07 -0 -0.05 0 -0.02 0 -0.07 -0 -0.07 -0 -0.06 -0.01 -0.07 -0 -0.02 -0 -0.05 0 -0.06 -0 -0.06 -0 -0.07 -0.01 -0.05 0 -0.01 -0 -0.07 -0 -0.06 -0.01 -0.07 -0.01 -0.07 -0 -0.02 0 -0.05 -0.01 -0.06 -0 -0.07 -0 -0.07 -0.01 -0.05 -0.01 -0.01 0 -0.06 -0 -0.06 -0.01 -0.07 -0.01 -0.06 -0 -0.02 -0 -0.04 -0.01 -0.07 -0.01 -0.07 -0.01 -0.07 -0 -0.05 -0.01 -0.01 -0.01 -0.07 -0.01 -0.07 -0.01 -0.06 -0.01 -0.07 -0.01 -0.03 -0.01 -0.04 -0.01 -0.06 -0.01 -0.07 -0.01 -0.06 -0.01 -0.06 -0.01 -0.01 0 -0.07 -0.01 -0.07 -0.01 -0.06 -0.01 -0.07 -0.01 -0.03 -0.01 -0.03 -0 -0.07 -0.02 -0.06 -0.01 -0.07 -0.01 -0.06 -0.02 -0.07 -0.01 -0.06 -0.01 -0.07 -0.02 -0.07 -0.02 -0.03 -0 -0.04 -0.01 -0.06 -0.02 -0.06 -0.02 -0.07 -0.02 -0.07 -0.02 -0.12 0 -0.12 0 -0.12 0 -0.12 0 -0.12 0 -0.12 0 -0.12 0.01 -0.12 0 -0.12 0 -0.1 0 -0.02 0 -0.12 0 -0.12 0 -0.04 0 -0.08 0 -0.11 0 -0.01 0 -0.11 0 -0.09 0 -0.03 0 -0.11 0 -0.05 0 -0.07 0 -0.11 0 -0.11 0 -0 0 -0.1 0 -0.01 0 -0.12 0 -0.11 0 -0.05 0 -0.06 0 -0.12 0 -0.11 0 -0 0 -0.1 0 -0.01 0 -0.11 0 -0.11 0 -0.11 0 -0.11 0 -0.11 0 -0.01 0 -0.09 0 -0.01 0 -0.11 0 -0.11 0 -0.11 0 -0.11 0 -0.11 0 -0.01 0 -0.09 0 -0.01 0 -0.11 0 -0.11 0 -0.11 0.01 -0.11 0 -0.11 0 -0.01 0 -0.09 0 -0.01 0 -0.11 0 -0.11 0 -0.11 0 -0.11 0 -0.11 0 -0.09 0 -0.02 0 -0.11 0 -0.11 0 -0.11 0 -0.11 0 -0.01 0 -0.09 0 -0.02 0 -0.11 0 -0.11 0 -0.11 0 -0.02 0 -0.09 0 -0 0 -0.11 0 -0.11 0 -0.11 0 -0.11 0 -0.1 0.09 -0.05 0.04 -0.05 0.04c-1.13,0.91 -3.16,1.37 -6.24,1.35l-0.1 0 -0.04 0 -0.15 0 -0.11 0 -0.04 0 -0.27 -0.01 -0.03 0 -0.29 -0.01 -0.03 0 -0.16 -0 -0.14 -0.01 -0.03 0 -0.16 -0.01 -0.15 -0 -0.02 0 -0.17 -0.01 -0.16 -0 -0.01 -0 -0.17 -0.01 -0.17 -0.01 -0 0 -0.17 -0.01 -0.18 -0.01 -0.01 0 -0.17 -0.01 -0.18 -0.02 -0.01 0 -0.16 -0.01 -0.18 -0.02 -0.02 0 -0.16 -0.02 -0.19 -0.02 -0.03 0 -0.16 -0.02 -0.19 -0.02 -0.04 -0 -0.15 -0.01 -0.19 -0.02 -0.05 -0 -0.15 -0.02 -0.2 -0.02 -0.05 -0 -0.14 -0.02 -0.2 -0.02 -0.07 -0.01 -0.13 -0.02 -0.21 -0.02 -0.07 -0.01 -0.13 -0.01 -0.2 -0.03 -0.09 -0.01 -0.12 -0.01 -0.21 -0.03 -0.1 -0.01 -0.11 -0.02 -0.21 -0.03 -0.11 -0.01 -0.1 -0.02 -0.22 -0.03 -0.11 -0.02 -0.1 -0.02 -0.22 -0.03 -0.13 -0.02 -0.09 -0.01 -0.22 -0.03 -0.14 -0.02 -0.09 -0.01 -0.23 -0.03 -0.15 -0.02 -0.08 -0.01 -0.23 -0.04 -0.16 -0.02 -0.07 -0.01 -0.23 -0.03 -0.18 -0.03 -0.06 -0.01 -0.24 -0.03 -0.19 -0.03 -0.05 -0.01 -0.24 -0.03 -0.2 -0.03 -0.04 -0.01 -0.24 -0.03 -0.21 -0.03 -0.03 -0.01 -0.25 -0.04 -0.23 -0.03 -0.02 -0 -0.25 -0.04 -0.24 -0.04 -0.01 -0 -0.25 -0.05 -0.26 -0.04 -0.16 0 -0.16 0 -0.02 0 -0.14 0 -0.03 0 -0.13 -0.01 -0.04 0 -0.12 -0.01 -0.05 0 -0.1 -0 -0.15 -0 -0.01 0 -0.14 0 -0.03 0 -0.11 -0 -0.05 -0 -0.16 -0.01 -0.09 -0 -0.08 0 -0.07 -0 -0.09 -0.01 -0.06 0 -0.1 -0.01 -0.04 0 -0.12 -0.01 -0.02 0 -0.14 -0.01 -0.01 0 -0.15 -0.01 -0 0 -0.14 -0.02 -0.02 0 -0.12 -0.01 -0.03 -0 -0.11 -0 -0.05 -0.01 -0.09 -0.01 -0.07 -0 -0.08 -0.01 -0.08 -0.01 -0.06 -0 -0.1 -0.01 -0.04 -0 -0.11 -0.02 -0.03 -0 -0.12 -0.01 -0.02 0 -0.14 -0.01 -0 0 -0.15 -0.02 -0.01 -0 -0.13 -0.01 -0.03 -0.01 -0.12 -0.01 -0.04 -0.01 -0.1 -0.01 -0.05 -0.01 -0.09 -0.01 -0.07 -0.01 -0.07 -0.01 -0.09 -0.01 -0.06 -0.01 -0.1 -0.02 -0.04 -0 -0.11 -0.02 -0.03 -0 -0.13 -0.02 -0.02 -0 -0.14 -0.03 -0.16 -0.03 -0.13 -0.02 -0.03 -0.01 -0.11 -0.02 -0.04 -0.01 -0.1 -0.02 -0.06 -0.01 -0.08 -0.02 -0.08 -0.02 -0.07 -0.01 -0.09 -0.02 -0.05 -0.01 -0.11 -0.02 -0.04 -0 -0.12 -0.02 -0.03 -0.01 -0.13 -0.03 -0.01 0 -0.15 -0.03 -0 -0 -0.14 -0.02 -0.02 -0.01 -0.12 -0.03 -0.04 -0 -0.11 -0.03 -0.05 -0.01 -0.09 -0.02 -0.07 -0.02 -0.08 -0.02 -0.08 -0.02 -0.07 -0.02 -0.09 -0.02 -0.05 -0.01 -0.11 -0.03 -0.03 -0.01 -0.12 -0.03 -0.03 -0.01 -0.14 -0.03 -0 -0 -0.15 -0.04 -0.01 0 -0.14 -0.03 -0.03 -0.01 -0.12 -0.03 -0.04 -0.01 -0.1 -0.03 -0.06 -0.01 -0.09 -0.02 -0.07 -0.02 -0.07 -0.02 -0.09 -0.03 -0.06 -0.01 -0.1 -0.03 -0.05 -0.01 -0.12 -0.03 -0.03 -0.01 -0.13 -0.04 -0.02 -0 -0.15 -0.04 -0.01 0 -0.01 0 -0.02 0 -0.01 0 -0.01 0 -0.01 0 -0.01 0 -0.01 0 -0.01 0 -0.02 0 -0.01 0 -0.01 0 -0.01 0 -0.01 0 -0.01 0 -0.01 0 -0.01 0 -0.02 0 -0.01 0 -0.01 0 -0.01 0 -0.01 0 -0.01 0 -0.02 0 -0.01 0 -0.01 0 -0.01 0 -0.01 0 -0.01 0 -0.01 0 -0.01 0 -0.02 0 -0.01 0.01 -0.01 0 -0.01 0 -0.01 0 -0.01 0 -0.01 0 -0.02 0 -0.01 0 -0.01 0 -0.01 0 -0.01 0 -0.01 0 -0.01 0 -0.01 0 -0 0 -0.01 0 -0.01 0 -0.01 0 -0.01 0 -0.01 0 -0.01 0 -0.02 0 -0.01 0 -0.01 0 -0.01 0 -0.01 0 -0.01 0 -0.01 0.01 -0.02 0 -0.01 0 -0.01 0 -0.01 0 -0.01 0c-2.15,0.2 -4.59,0.85 -6.28,2.69 -2.74,2.98 -4.19,8.53 -4.26,16.29l-0 0.63c-1.38,3.02 -2.77,5.04 -4.16,7.05 -0.7,1.01 -1.39,1.51 -1.86,2.02 1.17,1.5 2.57,3.01 3.97,4 0.7,1.51 1.41,3.02 2.34,4.01 0.42,0.39 0.75,0.78 1.04,1.18l0.03 0.04 0.01 0.01 0.04 0.05 0 0.01 0.03 0.04 0.02 0.03 0.02 0.03 0.03 0.04 0.01 0.01 0.04 0.05 0.01 0.01 0.03 0.04 0.02 0.03 0.05 0.07 0.01 0.01 0.07 0.1 0.02 0.03 0.02 0.03 0.03 0.04 0 0 0.03 0.05 0.01 0.02 0.03 0.04 0.02 0.03 0.02 0.03 0.03 0.04 0 0 0.04 0.05 0.01 0.01 0.03 0.04 0.02 0.03 0.02 0.02 0.03 0.05 0 0 0.03 0.04 0.01 0.02 0.02 0.03 0.03 0.03 0.01 0.02 0.03 0.04 0 0 0.03 0.05 0.01 0.02 0.02 0.03 0.02 0.04 0.01 0.02 0.04 0.04 0 0.01 0.03 0.04 0.01 0.02 0.03 0.03 0.03 0.04 0.01 0.01 0.03 0.05 0 0 0.03 0.04 0.02 0.02 0.02 0.03 0.03 0.03 0.01 0.02 0.03 0.05 0 0 0.03 0.04 0.02 0.02 0.02 0.03 0.03 0.03 0.01 0.01 0.04 0.04 0 0.01 0.03 0.04 0.02 0.03 0.03 0.02 0.03 0.03 0.01 0.01 0.04 0.04 0.01 0.01 0.03 0.03 0.02 0.03 0.03 0.02 0.03 0.04 0.01 0 0.04 0.04 0.01 0.01 0.03 0.04 0.03 0.02 0.02 0.02 0.04 0.03 0.01 0.01 0.05 0.04 0.01 0.01 0.03 0.03 0.03 0.02 0.03 0.02 0.04 0.04 0.01 0 0.05 0.04 0.02 0.01 0.03 0.03 0.03 0.02 0.02 0.02 0.05 0.04 0.06 0.03 0.02 0.02 0.04 0.02 0.03 0.02 0.02 0.01 0.06 0.04c0.01,2.51 0.02,4.52 0.02,6.53 -0.69,1.01 -1.39,1.51 -1.85,2.02 -2.97,4.31 -3.65,4.69 -3.88,5.52 -0.22,0.81 -0.54,1.81 -1.43,5.34l-0 0.01c-0.87,1.8 -1.24,0.73 -2.29,1.64l0 0 -0.04 0.03 -0 0 -0.04 0.04 -0 0 -0.04 0.05 -0.04 0.04c-1.39,3.02 -3.84,6.4 -4.99,8.92 -1.39,1.01 -4.89,2.95 -6.05,3.46 0.01,1.51 1.54,3.61 1.54,4.62l0.01 0.01 0.01 0.01 0.01 0.02 0.01 0.02 0.01 0.01 0.01 0.01 0.01 0.01 0.01 0.02 0.01 0.01 0.01 0.02 0.01 0.02 0.01 0.01 0 0 0.01 0.02 0.01 0.01 0.01 0.02 0.01 0.01 0.01 0.02 0.01 0.01 0.01 0.02 0.01 0.01 0.01 0.01 0.01 0.01 0.01 0.02 0 0 0.01 0.01 0.01 0.01 0.03 0.04 0.01 0.02 0.01 0.02 0.01 0.01 0.01 0.01 0.01 0.02 0.01 0.01 0.01 0.01 0 0 0.01 0.02 0.01 0.02 0.01 0.01 0.01 0.01 0.01 0.02 0.01 0.02 0.01 0.02 0.01 0.01 0.01 0.02 0.01 0.01 0 0.01 0.01 0 0 0.01 0.01 0 0.01 0.02 0.01 0.02 0.01 0.01 0.01 0.02 0.01 0.01 0.01 0.01 0.01 0.02 0.01 0.02 0.01 0.01 0.01 0.01 0.02 0.03 0.01 0.01 0.01 0.02 0.02 0.03 0.01 0.01 0 0.53c0.01,2.51 0.02,6.53 -2.07,8.55 -1.38,2.52 -2.77,4.54 -3.93,6.05 -3.49,0.52 -6.98,1.04 -10.47,1.55 -1.63,0.01 -3.26,0.02 -4.88,0.03 -3.96,0.01 -6.27,2.03 -6.04,4.04 0.01,2.51 0.02,4.52 0.03,6.54 -0.69,2.52 -1.38,4.53 -1.84,6.54 -2.07,7.55 -6.48,11.59 -13.45,14.12 -3.95,2.03 -7.91,2.04 -12.11,-1.97 -1.4,-0.5 -2.8,-0.99 -3.96,-1.99 -1.86,-1 -3.73,-2.5 -5.36,-4 -5.84,-5.51 -10.04,-7.51 -14.23,-9.5 -1.4,-0.5 -2.79,-0.5 -3.96,-1.5 -3.03,-2 -7,-4.5 -9.11,-8.51 -2.1,-2 -2.12,-7.03 -0.03,-9.05 0.7,-0.51 1.39,-1.01 2.09,-2.02 -0.27,-9.55 -0.3,-19.1 -0.56,-28.65 -0.02,-4.02 -6.09,-10.04 -21.71,-19.52 -6.3,-3.5 -17.47,-5.46 -31.66,-3.4 -1.86,0.01 -3.95,0.02 -5.82,0.02 -11.41,-1.46 -17.48,-7.47 -21.71,-18.52 -0.01,-4.52 -3.28,-8.53 -9.34,-10.52 -1.4,0.01 -2.79,0.01 -3.96,0.02 -4.2,-3.5 -6.3,-5.51 -6.56,-11.03 0,-0.5 -0.01,-1.51 -0.01,-2.52 -1.64,-2 -3.27,-4 -4.91,-6.01 -1.4,-1.5 -2.8,-3 -4.2,-4.01 -0.7,-1.5 -1.41,-3.01 -2.11,-5.02 -0.01,-1.01 -0.01,-2.51 0.21,-4.02 -0.7,-1.5 -1.41,-3.01 -2.11,-4.52 -0.7,-0.5 -1.4,-1 -2.11,-1.99 -0.23,-0.51 -0.24,-1.01 -0.24,-2.01 -0.7,0 -1.4,0 -1.86,0.01 -1.39,1.51 -2.78,3.02 -3.94,4.03 0.02,5.52 -0.19,11.06 0.06,16.08 0.7,1.01 1.4,1.5 2.1,2 0.01,1.51 0.01,3.02 0.02,4.02 0.7,1.01 1.4,1.5 2.1,2 -0.69,3.02 -1.37,6.04 -2.06,8.05 0.02,5.53 0.03,11.06 0.29,16.08 -0.7,1 -1.39,1.51 -2.09,2.01 0,1.01 0.01,1.51 0.24,2.01 0.47,1.01 1.17,1.5 1.87,2 1.17,1 2.57,1.5 3.96,2 0.7,-0.01 1.39,-0.01 2.09,-0.01 0,1.51 0.01,2.52 0.02,3.52 -0.7,0 -1.4,0.01 -2.1,0.01 -1.39,1.01 -2.79,1.52 -3.95,2.03 -2.09,2.01 -4.18,3.53 -6.03,5.55 0.71,3.02 1.42,6.02 2.36,8.54 0,1 0,1.5 0.01,2.01 0.48,2.51 1.18,5.02 1.89,7.53 0.7,1 1.4,1.5 2.1,2 0,1.51 0.01,3.02 0.01,4.02 -0.7,0 -1.4,0 -1.86,0 -0.7,1.01 -1.39,2.02 -2.09,2.52 0.01,4.02 0.03,8.04 0.04,11.56 2.11,6.02 0.03,8.04 -1.82,10.56 -1.86,1.51 -3.48,2.02 -5.35,2.53 -2.79,0.01 -5.58,0.02 -8.14,0.03 -1.4,-0.49 -2.79,-0.99 -4.19,-1.99 -2.33,0.01 -4.66,0.02 -6.75,0.02 -0.7,-0.5 -1.4,-1.5 -2.11,-2.51 -0.7,0.51 -1.39,0.51 -2.09,0.51 -1.39,1.51 -2.78,3.02 -3.94,4.54 0.01,1.01 0.01,1.51 0.01,2.02 -0.7,1 -1.39,1.51 -1.86,2.01 -1.62,2.02 -3.01,4.54 -4.17,7.05 -2.08,4.03 -2.06,8.55 2.14,12.56 0.7,1.5 1.41,3.01 2.11,4.01 -0.23,2.01 -0.22,4.02 0.02,5.53 0.7,1.5 1.41,3.01 2.11,4.01 1.4,1 2.8,1.5 4.2,1.99 1.16,0 2.56,-0.01 3.96,-0.02 0,1.01 0.01,2.02 0.01,2.52 0.94,1 1.86,1 3.03,1.5 -0.23,1.01 -0.23,1.51 0.01,2.01 1.17,1.5 2.57,3.01 3.97,4.01 4.18,-0.02 6.29,1.99 8.39,4.99 2.1,2 1.88,6.02 0.03,8.54 -0.7,1.01 -1.39,1.51 -2.08,2.02 -0.7,0 -1.4,0.01 -2.1,0.01 -1.39,1.51 -2.78,3.02 -3.94,4.03 -0.7,0 -1.4,0.01 -2.1,0.01 -0.7,1.51 -1.38,3.53 -1.84,5.03 -1.86,2.52 -3.48,5.04 -5.1,7.05 -3.94,4.53 -1.83,8.55 5.16,10.53 0.7,1.51 1.41,3.01 2.11,4.01 4.21,6.52 6.32,11.03 4.47,13.05 -0.21,6.02 -0.19,12.06 0.06,17.59 -1.38,3.02 -2.77,5.03 -3.93,7.05 -0.7,1.01 -1.39,1.51 -2.09,2.01 0,1.01 0,1.51 0.24,1.51 -2.08,3.53 -3.7,6.55 -5.32,9.57 0.01,2.51 0.02,4.52 0.26,6.53 -0.68,4.52 -1.36,9.05 -1.81,13.57 -0.22,2.02 -0.22,4.03 0.02,5.53 -0.69,1.01 -1.39,2.01 -2.09,2.52 0.01,1.51 0.01,3.01 0.02,4.02 -0.7,1.01 -1.39,1.51 -1.86,2.01 -2.08,4.53 -3.93,9.06 -5.77,14.09 -0.7,1 -1.39,2.01 -2.08,2.52 0,1.01 0.01,1.51 0.01,2.02 -3.02,0 -6.05,0.02 -9.07,0.03 -2.09,2.02 -4.41,4.04 -6.26,6.06 -0.7,1 -1.39,2.51 -1.85,4.02 -0.69,1.01 -1.39,2.02 -2.08,3.02 0,1.01 0,1.51 0.01,2.02 -0.69,3.02 -1.61,6.54 -2.06,9.05 -0.69,1.51 -1.38,3.02 -1.85,4.03 -0.69,2.51 -1.38,5.03 -2.07,7.55 -0.93,1 -1.86,1.51 -2.78,2.02 0.01,4.02 0.03,8.04 0.04,12.06 1.4,2.51 3.27,4.51 5.14,6.51 0.7,0 1.4,0 2.1,-0 0.01,4.52 0.03,9.05 0.28,13.56 -0.93,1.51 -1.62,3.03 -2.31,4.53 0,1.01 0.01,2.52 0.24,3.52 -0.69,2.01 -1.38,3.52 -2.08,5.03 -2.32,2.52 -4.64,4.54 -6.96,6.56 0.01,1.5 0.01,3.01 0.02,4.02 -2.09,2.52 -3.94,4.53 -5.79,6.55 -0.69,2.01 -1.38,3.52 -2.08,5.03 0.01,3.02 0.02,7.04 0.04,10.55 0.7,0.5 1.4,1.51 2.1,2 0.7,0 1.4,-0 2.1,-0.01 1.17,1.5 2.57,3.01 3.97,4.01 -0.7,0 -1.4,0.01 -1.86,0.01 -0.7,1.01 -1.39,1.51 -2.09,2.02 -0.69,2.01 -1.38,4.03 -1.84,5.53 0.01,3.02 0.02,5.03 -0.21,8.04 -0.69,1.51 -1.39,3.02 -1.85,4.53 -1.85,4.03 -1.83,9.55 2.37,13.56 3.02,-0.51 6.28,-0.52 9.77,-0.53 4.89,-0.01 6.99,1.99 9.33,6 0.7,0 1.39,-0 2.09,-0 0,1.01 0,1.51 -0.22,2.01 0.7,1.01 1.4,1.5 2.1,2 2.56,-0.01 5.35,-0.02 8.14,-0.52 0.7,1 1.63,1.5 2.34,2 0,1.01 0,1.51 0.01,2.01 0.93,-0.01 1.86,-0.01 3.03,-0.01 6.06,3.5 10,-0.03 13.94,-6.07 0.7,-1 1.39,-2.51 2.08,-4.02 2.32,-2.52 4.63,-5.54 6.95,-8.57 -0.24,-1.5 -0.24,-3.51 -0.02,-5.53 0.7,-0.5 1.39,-1.01 2.09,-2.01 1.86,-0.51 3.72,-1.01 5.81,-2.03 4.42,-0.01 8.84,-0.03 13.27,-0.04 6.05,-0.52 9.98,-7.07 15.99,-18.15 0.46,-1 1.15,-2.51 1.85,-4.02 0.92,-3.52 1.83,-7.05 2.75,-10.57 -0.01,-3.01 -0.02,-7.03 -0.03,-11.05 2.07,-4.53 3.92,-9.06 10.2,-11.09 11.63,-0.03 23.04,-0.57 34.67,-0.61 2.09,-2.01 5.81,-2.03 7.9,-4.55 0.7,-0.5 1.39,-1.01 2.09,-2.01 1.16,-1.01 2.55,-2.02 3.94,-3.53 2.32,-1.51 4.64,-3.53 7.19,-6.06 2.33,-0.01 5.12,-0.01 7.91,-0.03 1.63,1 3.03,2 4.43,2.5 1.86,1 3.96,1.5 6.06,1.99 0.7,0.5 1.63,1 2.8,0.99 2.1,1 4.2,1.99 6.29,3 3.26,-0.01 6.75,-0.03 10.24,-0.03 1.63,-1.01 3.25,-2.03 4.65,-2.53 1.4,-0.01 2.79,-0.02 4.19,-0.52 2.09,-0.01 3.94,-2.02 6.03,-4.05 1.85,-4.53 2.07,-6.54 3.93,-6.55 1.16,-0.51 2.56,-1.01 3.95,-2.02 5.8,-6.05 11.36,-12.61 17.15,-18.65 2.32,-2.02 6.26,-5.55 9.28,-10.09 0.46,-1.51 1.15,-3.02 1.84,-5.03 1.39,-1.51 2.78,-3.02 4.17,-4.54 1.4,-0.51 2.79,-1.52 4.18,-2.53 0.46,-0 1.16,-0 1.86,-0 0.7,-0.51 1.39,-1.01 2.09,-2.02 1.16,-0.51 2.56,-1.01 3.95,-2.03 2.32,-0.51 4.65,-1.02 7.21,-2.03 3.26,-0.01 6.75,-0.02 10.23,-0.54 3.95,-0.02 9.07,-2.54 10.92,-4.56 1.85,-3.02 4.17,-5.54 6.48,-9.07 2.09,-2.02 3.94,-4.04 6.03,-6.56 1.16,-2.02 2.54,-4.03 3.94,-6.55 3.02,-2.02 4.87,-5.04 6.95,-7.06 0.46,-1.51 1.15,-3.03 1.85,-4.53 0,-0.51 -0,-1.01 -0.01,-2.02 0.7,-0.5 1.39,-1.01 2.32,-2.02 0.46,-1.51 1.15,-3.52 1.84,-6.04 -0.24,-2.01 -0.25,-4.53 -0.26,-7.04 0.7,-0.51 1.39,-1.52 2.09,-2.52 -0.01,-2.01 0.21,-4.03 0.21,-6.03 0.94,1.5 2.34,2.5 3.74,3.51 2.34,3.51 4.91,6.52 7.24,9.53 1.17,1 2.57,1.5 3.96,1.99 0.7,-0 1.4,-0.01 2.1,-0.01 2.1,1 4.19,1.49 6.52,1.99 3.96,2.5 6.05,-0.02 9.06,-2.54 0,-0.5 -0,-1.01 -0.01,-2.01 2.56,-0.51 5.12,-1.03 7.9,-2.04 2.1,-0 4.18,-0.01 6.28,-0.02 0.46,-1.01 1.16,-2.01 2.09,-3.02 2.32,-1.51 4.64,-3.03 7.2,-4.55 -0.22,-1.79 -0.24,-3.98 -0.25,-5.86 0.05,3.29 0.33,5.84 0.84,7.87 1.37,1.67 2.77,3.34 4.33,5.01l0 1.38c0.37,0.23 0.76,0.44 1.16,0.63l0 0 0.08 0 0.15 -0 0.08 0 0.05 0 0.03 0 0.08 0 0.08 0 0.04 0 0.04 0 0.08 0 0.08 0 0.03 0 0.05 0 0.08 0 0.08 0 0.01 0 0.06 0 0.08 0 0.08 0 0.08 0 0.08 0 0.06 0 0.01 0 0.08 0 0.08 0 0.05 0 0.03 0 0.08 0 0.08 0 0.03 0 0.04 0 0.08 -0 0.08 0 0.02 0 0.06 0 0.07 0 0.08 0 0.01 0 0.07 0 0.08 0 0.07 0 0.01 0 0.08 0 0.08 0 0.05 0 0.02 0 0.08 0 0.08 0 0.04 0 0.03 0 0.08 0 0.08 -0 0.03 0 0.05 0 0.08 0 0.08 0 0.02 0 0.06 0 0.08 0 0.08 0 0 0 0.08 0 0.08 0 0.06 0 0.01 0 0.07 -0.01 0.08 0 0.05 0 0.02 0 0.08 0 0.08 0 0.15 0 0.08 0 0.03 0 0.05 0 0.08 0 0.08 0 0.02 0 0.06 0 0.08 0 0.08 0 8.14 -0.03 0.02 0.05c1.85,-0.55 1.8,0.7 4.18,-0.07 0.46,-0.5 3.25,-3.03 3.94,-4.04 11.14,-7.08 17.18,-10.11 21.38,-7.11 8.86,6 13.28,5.99 15.35,-0.56 0.93,-1.01 1.62,-2.02 2.32,-3.02 1.85,-4.03 3.92,-8.57 1.82,-12.08 -2.11,-4.52 0.2,-8.55 2.06,-10.57 -0.01,-2.02 -0.25,-5.03 -0.26,-7.54 5.12,-0.02 10.23,-0.54 15.36,-0.56 1.17,1 2.56,1.5 3.96,2 4.89,-0.02 10.01,-0.03 15.12,-0.56 1.16,-0.5 2.55,-1.01 3.95,-2.02 0.7,-0.01 1.4,-0.01 2.09,-0.01 1.16,-0.51 2.79,-1.01 4.18,-2.03 4.42,-0.02 9.07,-0.03 13.5,-0.04 3.26,3.01 6.76,7.51 10.27,11.01 0,1.01 0.01,1.02 -0.22,2.03 0.7,1 1.4,1.5 2.1,2 2.33,1.5 4.67,3 7.23,4.5 2.1,1.5 3.97,3.51 6.07,5.52 1.16,-0 2.56,-0.01 3.96,-0.02 4.41,-2.53 7.43,-4.55 7.19,-6.06 1.39,-0.51 2.79,-1.02 4.18,-2.03 -1.4,0 -2.79,0.01 -4.19,0.01 -0.02,-5.03 -0.03,-10.57 -0.05,-16.09 0.7,-0.01 1.39,-0.01 2.09,-0.01 1.17,-0.5 2.56,-1.01 3.95,-2.03 -0.01,-2.51 -0.02,-5.53 -0.03,-8.55 -3.28,-5.52 -6.09,-11.05 -9.13,-17.07 -0.94,-2.01 -1.64,-4.02 -2.35,-6.54 -1.4,-2.51 -2.81,-5.02 -3.98,-7.53 -1.87,-2.01 -4.21,-6.02 -10.05,-12.03 -3.26,-2 -6.3,-4.51 -9.33,-7.01 1.17,-0 2.56,-0.01 3.96,-0.02 0.93,-0.5 1.86,-1.51 3.01,-2.53 0.22,-2.01 0.22,-4.53 0.21,-7.55 -2.56,-2 -5.13,-4 -7.23,-6.51 -0.71,-2.52 -1.42,-5.02 -2.12,-7.54 -1.4,-2 -2.8,-4.01 -3.98,-6.02 -1.65,-6.03 -2.84,-12.06 -4.25,-18.09 -1.43,-9.55 -3.09,-19.61 -4.29,-29.66 -0.02,-6.54 -1.9,-12.06 -7.02,-12.04 -2.33,-0.5 -4.42,-0.99 -6.52,-1.99 -0.7,-0.5 -1.4,-1 -2.1,-2 -0,-1.01 -0.01,-2.51 -0.01,-4.02 0.7,-0 1.4,-0.01 2.1,-0.01 0.7,-0.5 1.62,-0.51 2.32,-1.52 0.46,0 1.16,0 1.86,-0.01 0.7,-0.51 1.39,-1.52 2.09,-2.52 -0.25,-5.03 -0.27,-10.06 -0.06,-15.59 -0.7,-0.5 -1.4,-1 -2.1,-2 -0,-0.5 -0.01,-1 -0.01,-2.01 3.26,-0.01 6.29,-0.02 9.31,-0.04zm-122.6 212.9c0.51,0.42 1,0.83 1.41,1.28 -0.49,-0.39 -0.95,-0.82 -1.41,-1.28z"/>
 </g>
</svg>
