<?xml version="1.0" encoding="UTF-8"?>
<!DOCTYPE svg PUBLIC "-//W3C//DTD SVG 1.1//EN" "http://www.w3.org/Graphics/SVG/1.1/DTD/svg11.dtd">
<!-- Creator: CorelDRAW 2021 (64-Bit) -->
<svg xmlns="http://www.w3.org/2000/svg" xml:space="preserve" width="0.766827in" height="0.706953in" version="1.1" shape-rendering="geometricPrecision" text-rendering="geometricPrecision" image-rendering="optimizeQuality" fill-rule="evenodd" clip-rule="evenodd"
viewBox="0 0 722.93 666.49"
 xmlns:xlink="http://www.w3.org/1999/xlink"
 xmlns:xodm="http://www.corel.com/coreldraw/odm/2003">
 <g id="Layer_x0020_1">
  <metadata id="CorelCorpID_0Corel-Layer"/>
  <path fill="none" fill-rule="nonzero" stroke="#336666" stroke-width="2.83" stroke-miterlimit="2.61313" d="M716.56 313.45c-0.28,-2.95 -0.29,-5.9 -0.3,-9.45 -1.65,-3.54 -3.03,-7.08 -4.69,-11.21 -3.83,-2.94 -7.13,-6.48 -10.69,-9.42 -0.28,-2.95 -0.3,-6.49 -0.04,-10.04 0.82,-1.18 1.63,-2.37 2.45,-3.55 0.54,-1.18 1.35,-2.95 2.17,-4.74 0,-0.59 -0,-1.77 -0.01,-2.95 -0.82,-1.18 -1.65,-2.94 -2.2,-4.71 -0.83,-2.96 -1.66,-5.91 -2.49,-9.45 -1.09,-1.77 -1.92,-3.54 -2.48,-5.9 0,-0.59 -0,-1.19 -0.01,-2.36 -0.82,-1.77 -1.65,-3.54 -2.48,-5.31 -4.11,-4.13 -8.23,-8.25 -12.06,-11.78 -0.27,-0.59 -0.27,-1.18 -0,-1.77 2.18,-3.55 4.62,-6.51 7.07,-9.47 2.45,-2.38 2.44,-4.74 -0.04,-12.41 -0.82,-0.59 -1.64,-1.17 -2.47,-2.36 -0.83,-1.77 -1.65,-3.54 -2.48,-5.9 -2.2,-2.36 -3.84,-4.12 -5.76,-7.07 -0.29,-2.95 -0.3,-6.49 -0.31,-10.04 6.27,-4.75 5.98,-10.66 -0.06,-15.95 -0,-0.59 0.27,-1.18 0.27,-2.36 -0.82,0 -1.64,0.01 -2.46,0.01 -0.82,-1.18 -1.65,-2.96 -2.75,-4.72 -1.64,-1.76 -3.29,-2.94 -4.66,-4.12 -2.48,-5.31 -4.96,-10.62 -7.16,-15.93 -0.28,-2.95 -0.29,-6.5 -0.31,-10.04 -0.82,-1.18 -1.37,-2.95 -2.2,-4.72 -0.83,-2.95 -1.66,-5.9 -2.49,-8.86 -2.19,-2.36 -3.84,-5.3 -5.77,-8.84 -1.93,-5.31 -3.31,-10.63 -4.97,-16.52 -0.82,-1.18 -1.65,-2.95 -2.48,-4.72 -0,-0.59 0.27,-1.18 0.27,-2.36 -0.82,-0.58 -1.64,-1.17 -2.47,-2.35 -1.64,0 -3.56,0.01 -5.19,0.02 -0.82,-0.59 -1.65,-1.77 -2.47,-2.95 -0.01,-2.37 -0.01,-4.14 0.25,-6.5 0.54,-1.18 1.36,-2.36 2.17,-4.13 -0.01,-2.37 -0.01,-4.73 -0.02,-7.09 -0.82,-1.18 -1.65,-2.95 -2.2,-4.72 -0.29,-4.13 -0.3,-8.27 -0.32,-12.4 -0.82,-1.18 -1.64,-2.36 -2.2,-4.13 -0.29,-2.95 -0.29,-5.32 -0.3,-8.85 -0.82,0 -1.64,0 -2.19,0.01 -2.18,1.19 -4.09,1.79 -6,2.38 0.01,1.77 -2.17,4.15 -7.35,7.12 -1.64,0 -3.28,0.01 -4.65,0.02 -2.47,-2.36 -4.66,-4.71 -7.13,-6.48 -3.01,-1.76 -5.75,-3.52 -8.49,-5.28 -0.82,-0.59 -1.64,-1.18 -2.47,-2.35 0.27,-0.59 0.27,-1.18 0.27,-2.36 -4.11,-4.12 -8.23,-8.84 -12.07,-12.95 -5.2,0.02 -10.66,0.03 -15.85,0.05 -1.64,1.19 -3.54,1.79 -4.91,2.38 -0.82,0 -1.64,0 -2.46,0.01 -1.64,1.18 -3.27,1.78 -4.64,2.37 -6.01,0.62 -12.02,0.64 -17.76,0.66 -1.64,-0.59 -3.28,-1.18 -4.65,-2.35 -6.02,0.02 -12.03,0.63 -18.03,0.65 0.01,2.95 0.02,5.91 0.3,8.86 -2.45,2.37 -4.9,7.1 -2.42,12.41 2.47,4.12 0.04,10.63 -2.13,15.36 -1.09,1.19 -1.91,1.78 -2.73,2.37 -2.43,7.69 -8.71,7.71 -18.03,0.66 -4.93,-2.35 -12.02,0.03 -25.11,8.35 -1.63,1.78 -3.27,3.56 -4.63,4.74 -1.64,0 -3.28,0.01 -4.92,0.02 -6.01,0.02 -14.23,-6.04 -19.7,-6.01 0,-0.59 -0,-1.18 -0.01,-2.36 -0.99,-1.07 -1.93,-2.13 -2.84,-3.2 0.03,0.35 0.06,0.69 0.1,1.02 -3,1.78 -5.73,3.57 -8.45,5.34 -1.09,1.19 -1.9,2.36 -2.45,3.55 -2.46,0.01 -4.91,0.02 -7.38,0.02 -3.27,1.19 -6.28,1.8 -9.28,2.4 0,1.18 0.01,1.77 0.01,2.36 -3.54,2.96 -5.99,5.92 -10.65,2.98 -2.74,-0.58 -5.2,-1.16 -7.66,-2.33 -0.82,0 -1.64,0 -2.46,0.01 -1.64,-0.58 -3.28,-1.17 -4.65,-2.34 -2.74,-3.53 -5.76,-7.07 -8.51,-11.19 -1.64,-1.18 -3.29,-2.35 -4.39,-4.12 0.01,2.36 -0.26,4.72 -0.24,7.09 -0.82,1.18 -1.63,2.36 -2.45,2.96 0.01,2.95 0.02,5.91 0.3,8.27 -0.81,2.95 -1.62,5.32 -2.16,7.09 -1.09,1.19 -1.9,1.78 -2.72,2.37 0,1.18 0.01,1.77 0.01,2.37 -0.81,1.77 -1.63,3.55 -2.17,5.32 -2.45,2.36 -4.62,5.91 -8.17,8.29 -1.63,2.96 -3.26,5.33 -4.62,7.69 -2.45,2.96 -4.62,5.33 -7.08,7.7 -2.72,4.14 -5.44,7.1 -7.61,10.65 -2.18,2.37 -8.18,5.34 -12.83,5.36 -4.09,0.6 -8.2,0.62 -12.02,0.63 -3,1.19 -5.73,1.79 -8.46,2.39 -1.64,1.19 -3.27,1.79 -4.64,2.38 -0.81,1.18 -1.63,1.78 -2.45,2.37 -0.82,0 -1.64,0 -2.19,0 -1.64,1.19 -3.27,2.38 -4.91,2.97 -1.63,1.77 -3.27,3.55 -4.9,5.33 -0.81,2.36 -1.63,4.13 -2.16,5.91 -3.54,5.33 -8.17,9.48 -10.89,11.85 -6.8,7.1 -13.34,14.8 -20.14,21.91 -1.63,1.18 -3.27,1.78 -4.64,2.38 -2.18,0.01 -2.45,2.37 -4.62,7.69 -2.45,2.38 -4.63,4.74 -7.09,4.75 -1.64,0.59 -3.28,0.59 -4.92,0.61 -1.64,0.59 -3.54,1.78 -5.46,2.97 -4.1,0.01 -8.2,0.03 -12.02,0.04 -2.46,-1.18 -4.93,-2.35 -7.39,-3.52 -1.37,0 -2.46,-0.58 -3.28,-1.17 -2.46,-0.59 -4.92,-1.17 -7.11,-2.34 -1.64,-0.58 -3.28,-1.76 -5.2,-2.94 -3.28,0.01 -6.56,0.02 -9.29,0.03 -3,2.96 -5.72,5.33 -8.45,7.11 -1.63,1.78 -3.27,2.96 -4.63,4.15 -0.82,1.18 -1.63,1.77 -2.45,2.36 -2.45,2.96 -6.82,2.98 -9.27,5.34 -13.66,0.05 -27.05,0.68 -40.71,0.72 -7.37,2.39 -9.54,7.71 -11.97,13.03 0.01,4.72 0.03,9.44 0.04,12.98 -1.08,4.13 -2.16,8.27 -3.23,12.41 -0.81,1.78 -1.63,3.55 -2.17,4.72 -7.06,13.01 -11.68,20.7 -18.78,21.31 -5.19,0.01 -10.38,0.03 -15.58,0.04 -2.45,1.19 -4.64,1.79 -6.82,2.38 -0.81,1.18 -1.63,1.77 -2.45,2.36 -0.26,2.37 -0.26,4.73 0.02,6.49 -2.72,3.56 -5.44,7.1 -8.16,10.07 -0.81,1.77 -1.63,3.54 -2.45,4.72 -4.62,7.1 -9.25,11.24 -16.36,7.13 -1.37,0 -2.46,0.01 -3.56,0.01 -0,-0.59 -0,-1.18 -0.01,-2.36 -0.82,-0.59 -1.92,-1.17 -2.74,-2.35 -3.27,0.6 -6.55,0.61 -9.56,0.62 -0.55,-0.4 -1.1,-0.79 -1.65,-1.35l0 1.19c0.83,2.95 1.66,5.89 2.49,8.84 0.83,1.76 4.41,9.6 5.24,10.78 2.76,7.66 2.78,14.15 0.63,23.01 -0.81,1.77 -1.63,3.54 -2.44,5.32 -0.25,5.9 0.04,11.8 0.33,16.52 2.47,3.54 4.67,5.89 9.32,5.88 1.64,0.58 3.28,1.76 4.92,2.34 6.86,7.07 13.71,14.12 20.3,20.6 0.82,1.17 1.65,2.94 2.75,4.12 2.2,2.94 2.48,5.3 2.49,7.66 0.03,7.68 2.23,12.39 6.06,15.33 6.86,7.06 12.1,19.44 14.33,32.41 4.94,7.07 7.45,20.04 5.32,37.75 -0.26,4.13 -0.24,8.86 0.04,12.99 0.82,1.17 1.65,1.76 2.47,2.35 0.01,4.13 -0.24,11.29 0.04,14.83 0.31,11.22 -2.13,15.95 -6.77,16.55 -1.63,4.14 -3.25,8.27 -4.6,11.82 0.01,1.18 0.01,1.77 0.01,2.36 0.09,0.36 0.18,0.7 0.28,1.04 4.01,3.79 8.82,5.88 11.5,4.17 4.92,-0.02 10.65,-2.4 15.27,-8.9 1.36,-1.18 3,-2.96 4.63,-4.74 3.82,-1.19 7.64,-2.97 12,-4.75 3.55,-0.01 7.1,-0.02 10.93,-0.03 2.73,-0.59 6,-1.78 9.28,-2.97 1.37,0 3,-0.01 4.64,-0.01 2.73,-0.59 5.46,-1.78 8.46,-2.97 9,-4.75 16.09,-8.9 24.57,-4.79 3.01,1.17 6.02,1.16 9.3,1.74 9.56,-0.02 18.58,-0.05 27.87,-0.07 7.1,-0.61 17.75,-3.01 27.02,-9.52 7.1,-2.97 15.28,-5.36 19.94,-3 5.19,-0.02 10.39,-0.04 15.3,-0.05 9.58,4.11 18.61,8.8 27.91,12.91 2.47,2.36 9.57,2.34 16.96,4.68 1.09,-0.01 2.73,-0.01 4.37,-0.01 15.31,2.32 25.15,4.06 28.99,8.19 0.37,2.71 0.85,5.17 1.38,7.53 0.27,0.72 0.55,1.39 0.83,1.99l0 1.64 0.01 0.04c2.21,7.68 4.97,14.16 9.62,16.51 1.37,2.36 3.02,4.71 4.67,6.48 0.83,1.76 1.65,3.53 2.48,4.71 0.26,0.91 0.48,1.69 0.71,2.42 0.22,0.22 0.44,0.42 0.66,0.61 0.29,1.55 0.66,2.78 1.07,3.93l0.06 0.13c1.92,2.36 3.84,4.71 6.04,7.07 1.65,2.36 3.3,4.72 4.94,6.48 0.83,1.76 1.66,3.53 2.48,4.72 1.65,1.76 3.02,2.94 4.66,4.71 0.83,1.77 1.65,3.54 2.48,4.72 0.01,2.25 0.56,3.95 1.42,5.51l0.05 0.09 0.08 0.14 0 0c0.93,1.62 2.16,3.1 3.4,4.87 1.92,1.17 3.83,1.76 6.02,2.35 0.01,1.18 0.01,1.77 0.01,2.36 1.37,1.18 3.02,2.95 4.66,4.71 0.01,1.18 0.01,1.77 0.01,2.36 0.83,1.77 1.65,3.54 2.48,4.72 2.21,7.66 4.97,12.98 7.16,15.33 9.83,-0.02 19.39,-0.64 29.5,-0.67 3.01,1.18 5.47,2.35 8.48,2.94 1.37,1.17 3.01,1.76 4.65,2.35 2.46,-0.01 4.92,-0.01 7.12,2.34 0.82,1.18 1.64,1.77 2.46,1.77 0.82,-0.01 1.64,-0.01 2.46,-0.01l0.56 0.99c1.54,-0.48 3.26,-1 5.17,-1 1.64,-0 3.27,-0.01 4.64,-0.01 1.37,-0.59 3.01,-1.19 4.64,-2.37 3,-0.01 6.28,-0.02 9.83,-0.03 13.11,-0.62 18.02,-5.36 20.44,-14.82 -0.32,-13.58 2.1,-23.03 8.1,-27.77 2.18,-2.96 4.35,-6.51 6.8,-9.47 1.63,0 3.27,-0 4.91,-0.01 6.28,-2.97 13.09,-6.52 19.91,-9.5 2.45,-2.36 2.7,-10.04 2.38,-23.63 -0.01,-5.31 -0.03,-10.63 -0.05,-15.95 0.54,-2.36 1.35,-4.73 2.16,-6.5 2.71,-5.32 2.7,-10.04 -0.04,-12.4 -5.21,-7.07 -10.7,-13.55 -15.64,-20.04 -1.64,-1.17 -3.29,-2.94 -4.66,-4.71 -0.83,-1.77 -1.65,-3.53 -2.48,-5.3 -0.29,-5.32 -0.03,-10.04 -0.05,-15.36 2.17,-4.73 2.15,-10.05 -0.07,-17.72 -7.13,-7.66 -12.06,-10.01 -17.79,-9.99 -2.46,0.01 -7.38,2.39 -12.01,4.76 -1.9,1.19 -3.54,2.97 -4.9,3.56 -0.55,-0.59 -1.37,-1.77 -2.2,-2.95 1.36,-1.18 3,-2.95 4.62,-5.33 0.54,-1.18 1.63,-2.96 2.45,-4.73 0.82,-0.59 1.63,-1.77 2.45,-2.96 4.37,-0.01 8.74,-0.02 12.84,-0.03 0.82,-0.6 1.64,-1.19 2.45,-2.37 -0,-1.18 -0.01,-2.95 -0.02,-5.32 -0.01,-2.36 2.45,-2.36 7.1,-2.38 2.12,-0.47 4.57,-0.58 7.1,-0.6 1.29,1.51 2.99,3.14 3.97,4.91 1.34,2.42 3.9,3.41 5.62,5.1 3.56,1.77 7.12,3.53 10.68,5.29 4.1,1.17 8.2,1.75 12.3,1.73 7.11,2.34 15.31,2.32 20.22,-0.05 2.19,-0.6 4.64,-1.2 7.1,-2.39 8.99,-5.93 18.27,-10.69 27.27,-16.03 10.64,-3.57 18.01,-5.95 22.64,-10.69 6.8,-8.29 9.24,-13.02 9.22,-20.7 -0.3,-6.5 -0.04,-12.99 -0.07,-20.67 0.82,-0.6 1.91,-1.78 2.72,-2.96 3.54,-2.38 8.18,-4.75 15.28,-4.77 7.38,-0.02 9.83,-2.39 13.37,-5.35 0.82,-0.6 1.63,-1.78 2.45,-2.38 0.55,-1.77 1.35,-3.55 2.17,-5.91 1.36,-1.19 3,-2.96 4.63,-4.74 -0.82,0 -1.64,0.01 -2.46,0.01 0,-0.59 -0,-1.77 -0.01,-2.96 -0.83,-2.95 -1.38,-5.9 -2.22,-9.44 0.55,-0.59 1.36,-1.18 2.18,-2.37 0.82,1.18 1.64,1.77 2.47,2.35 0.82,0 1.64,-0 2.46,-0.01 0.82,1.18 1.37,1.77 2.19,2.36 5.47,-0.01 10.66,-0.03 15.85,-0.64 2.45,-2.37 4.9,-7.1 4.87,-15.37 -1.11,-2.95 -1.94,-6.49 -2.77,-10.03 0.54,-1.19 1.35,-2.96 2.44,-4.74 0.82,-0.59 1.64,-1.77 2.72,-2.96 -0.01,-2.36 -0.01,-5.31 -0.03,-7.68 -1.64,-1.77 -3.56,-3.53 -4.94,-5.3z"/>
 </g>
</svg>
