<?xml version="1.0" encoding="UTF-8"?>
<!DOCTYPE svg PUBLIC "-//W3C//DTD SVG 1.1//EN" "http://www.w3.org/Graphics/SVG/1.1/DTD/svg11.dtd">
<!-- Creator: CorelDRAW 2021 (64-Bit) -->
<svg xmlns="http://www.w3.org/2000/svg" xml:space="preserve" width="0.817811in" height="0.636618in" version="1.1" shape-rendering="geometricPrecision" text-rendering="geometricPrecision" image-rendering="optimizeQuality" fill-rule="evenodd" clip-rule="evenodd"
viewBox="0 0 839.9 653.81"
 xmlns:xlink="http://www.w3.org/1999/xlink"
 xmlns:xodm="http://www.corel.com/coreldraw/odm/2003">
 <g id="Layer_x0020_1">
  <metadata id="CorelCorpID_0Corel-Layer"/>
  <path fill="none" fill-rule="nonzero" stroke="#336666" stroke-width="3.08" stroke-miterlimit="2.61313" d="M770.49 69.17c0.59,-1.93 1.47,-4.51 2.36,-6.44 0,-0.65 -0,-1.29 -0.01,-2.58 -0.61,-2.57 -1.51,-5.14 -2.41,-8.35 -2.09,-1.29 -3.88,-3.21 -5.67,-5.13 -2.39,-1.28 -5.07,-3.2 -7.46,-5.13 -9.56,-8.98 -12.26,-14.12 -11.97,-17.34 -0.32,-7.08 -0.35,-14.16 -0.08,-21.88l-0.36 -0.27c-1.03,1.09 -2.02,2.08 -2.9,2.85 -0.89,2.57 -1.77,4.5 -2.36,6.44 -0.89,0.65 -1.78,1.94 -2.66,2.59 -3.86,3.23 -6.53,5.81 -14.57,5.83 -7.74,0.02 -12.79,2.61 -16.65,5.2 -0.89,1.29 -2.07,2.58 -2.97,3.23 0.03,8.36 -0.24,15.44 0.08,22.52 0.03,8.37 -2.63,13.52 -10.04,22.55 -5.05,5.16 -13.08,7.76 -24.67,11.65 -9.8,5.82 -19.91,10.99 -29.7,17.46 -2.68,1.29 -5.35,1.94 -7.73,2.6 -5.35,2.58 -14.28,2.61 -22.02,0.06 -4.47,0.02 -8.93,-0.61 -13.4,-1.89 -3.87,-1.92 -7.75,-3.84 -11.63,-5.77 -0.82,-0.8 -1.69,-1.64 -2.56,-2.52l-1.6 -0.76c-1.34,-1.2 -2.17,-2.49 -2.88,-3.83 -1.17,-1.25 -2.32,-2.51 -3.4,-3.78 -2.75,0.04 -5.43,0.16 -7.74,0.66 -5.06,0.02 -7.74,0.02 -7.73,2.6 0.01,2.58 0.02,4.51 0.02,5.79 -0.89,1.29 -1.78,1.93 -2.67,2.58l-5.35 0.02 -0.21 0 -0 0 -0.21 0 -0.01 0 -0.2 0 -0.24 0 -0.18 0 -0.04 0 -0.17 0 -0.04 0 -0.16 0 -0.06 0 -0.15 0 -0.07 0 -0.14 0 -0.08 0 -0.13 0 -0.09 0 -0.11 0 -0.33 0 -0.09 0 -0.13 0 -0.07 0 -0.37 0 -0.05 0 -0.17 0 -0.04 0 -0.19 0 -0.02 0 -0.2 0 -0.01 0 -0.2 0 -0.01 0 -0.19 0 -0.03 0 -0.18 0 -0.04 0 -0.17 0 -0.06 0 -0.15 0 -0.07 0 -0.13 0 -0.09 0 -0.11 0 -0.11 0 -0.1 0 -0.13 0 -0.08 0 -0.37 0 -0.04 0 -0.18 0 -0.02 0 -0.2 0 -0.21 0 -0.02 0 -0.19 0 -0.04 0 -0.16 0 -0.06 0 -0.13 0 -0.09 0 -0.11 0 -0.34 0 -0.06 0 -0.16 0 -0.04 0 -0.39 0 -0.01 0c-0.89,1.29 -1.78,2.58 -2.67,3.23 -0.89,1.93 -2.07,3.87 -2.66,5.16 -1.78,2.58 -3.55,4.52 -5.04,5.8 0.9,1.29 1.79,2.57 2.39,3.21 0.23,-0.1 0.46,-0.23 0.7,-0.38l0.17 -0.18 0.27 -0.12c1.23,-0.88 2.63,-2.22 4.2,-3.2 5.05,-2.58 10.4,-5.18 13.08,-5.18 6.25,-0.02 11.62,2.54 19.38,10.88 2.41,8.36 2.43,14.15 0.07,19.31 0.02,5.79 -0.26,10.94 0.05,16.73 0.9,1.93 1.8,3.85 2.7,5.78 1.5,1.93 3.29,3.86 5.08,5.14 5.38,7.06 11.36,14.12 17.04,21.83 2.99,2.57 3,7.71 0.05,13.51 -0.89,1.93 -1.77,4.51 -2.36,7.08 0.02,5.79 0.04,11.58 0.06,17.37 0.35,14.8 0.08,23.17 -2.59,25.74 -7.43,3.24 -14.86,7.11 -21.69,10.35l-4.77 0.02 -0.02 0 -0.06 0 -0.02 0 -0.06 0 -0.02 0 -0.05 0 -0.03 0 -0.3 0c-2.67,3.23 -5.04,7.09 -7.41,10.32 -6.53,5.16 -9.17,15.46 -8.82,30.25 -2.64,10.31 -7.98,15.47 -22.27,16.14l-4.16 0.02 -0.06 0 -0.11 0 -0.06 0 -0.11 0 -0.07 0 -0.1 0 -0.06 0 -0.1 0 -0.07 0 -0.1 0 -0.07 0 -0.1 0 -0.07 0 -0.09 0 -0.08 0 -0.09 0 -0.08 0 -0.09 0 -0.07 0 -0.09 0 -0.08 0 -0.09 0 -0.08 0 -0.09 0 -0.07 0 -0.09 0 -0.07 0 -0.1 0 -0.07 0 -0.09 0 -0.07 0 -0.1 0 -0.06 0 -0.11 0 -0.06 0 -0.11 0 -0.06 0 -0.11 0 -0.06 0 -0.11 0 -0.05 0 -0.11 0 -0.05 0 -0.12 0 -0.04 0 -0.12 0 -0.04 0 -0.13 0 -0.03 0 -0.13 0 -0.03 0 -0.14 0 -0.02 0 -0.14 0 -0.02 0 -0.15 0 -0.01 0 -0.15 0 -0.01 0 -0.15 0 -0.16 0 -0.01 0 -0.15 0 -0.02 0 -0.15 0 -0.02 0 -0.13 0 -0.03 0 -0.13 0 -0.04 0 -0.12 0 -0.04 0 -0.11 0 -0.06 0 -0.1 0.01 -0.06 0 -0.1 0 -0.07 0 -0.08 0c-1.78,1.28 -3.57,1.94 -5.06,2.58l-4.16 0.02 -0.06 0 -0.08 0 -0.04 0 -0.04 0 -0.08 0 -0.06 0 -0.02 0 -0.09 0 -0.16 0 -0.08 0 -0.08 0 -0.08 0 -0.02 0 -0.08 0 -0.09 0 -0.01 0c-2,0.03 -3.81,0.58 -5.44,1.09l-0.61 -1.08c-0.9,0 -1.79,0 -2.68,0.01 -0.89,0 -1.79,-0.64 -2.68,-1.92 -2.39,-2.57 -5.07,-2.56 -7.75,-2.55 -1.79,-0.64 -3.58,-1.28 -5.07,-2.56 -3.28,-0.64 -5.96,-1.92 -9.24,-3.2 -11.01,0.03 -21.43,0.71 -32.14,0.73 -2.39,-2.57 -5.39,-8.35 -7.8,-16.7 -0.9,-1.29 -1.8,-3.21 -2.7,-5.14 0,-0.64 -0,-1.29 -0.01,-2.57 -1.79,-1.92 -3.58,-3.85 -5.08,-5.14 0,-0.65 0,-1.29 -0.01,-2.58 -2.38,-0.64 -4.46,-1.28 -6.55,-2.56 -2.69,-3.85 -5.38,-6.42 -5.4,-11.56 -0.9,-1.29 -1.8,-3.21 -2.7,-5.14 -1.79,-1.92 -3.28,-3.21 -5.08,-5.13 -0.89,-1.29 -1.8,-3.22 -2.7,-5.14 -1.79,-1.92 -3.59,-4.49 -5.38,-7.06 -2.39,-2.56 -4.48,-5.13 -6.57,-7.7 -1.2,-2.57 -1.8,-4.5 -2.71,-7.72 -0.9,-1.28 -1.8,-3.21 -2.7,-5.13 -1.79,-1.93 -3.59,-4.5 -5.08,-7.06 -5.07,-2.56 -8.07,-9.63 -10.48,-17.99 -0.91,-3.86 -1.82,-7.71 -2.43,-12.21 -4.18,-4.49 -14.9,-6.39 -31.58,-8.92 -1.78,0 -3.57,0.01 -4.76,0.02 -8.05,-2.56 -15.79,-2.54 -18.48,-5.1 -10.13,-4.47 -19.97,-9.59 -30.41,-14.06 -5.36,0.01 -11.01,0.03 -16.67,0.05 -5.07,-2.57 -13.99,0.03 -21.72,3.27 -10.1,7.1 -21.69,9.7 -29.43,10.37 -10.12,0.02 -19.94,0.05 -30.36,0.08 -3.57,-0.63 -6.85,-0.63 -10.13,-1.9 -9.24,-4.48 -16.97,0.04 -26.77,5.22 -3.27,1.29 -6.24,2.59 -9.21,3.23 -1.79,0 -3.57,0.02 -5.06,0.02 -3.57,1.3 -7.14,2.59 -10.11,3.24 -4.17,0.02 -8.04,0.02 -11.91,0.04 -4.75,1.94 -8.92,3.88 -13.08,5.18 -1.78,1.93 -3.56,3.87 -5.04,5.16 -5.04,7.08 -11.28,9.68 -16.63,9.7 -5.05,3.22 -17.03,-5.94 -19.44,-15.58 -0.88,3.21 -1.76,6.43 -2.35,9.65 -0.29,2.58 -0.28,5.15 -0.27,7.72 -1.18,1.93 -2.37,3.22 -3.55,5.15 -0.89,2.58 -1.77,5.15 -2.65,7.72 -1.78,3.22 -3.55,6.45 -5.33,9.66 -0.89,1.93 -1.77,3.86 -2.36,5.15 -2.67,2.58 -5.34,5.16 -7.71,8.37 -0.89,0.01 -1.79,0.01 -2.68,0.02 0.02,4.5 0.03,8.36 0.34,12.21 -1.78,1.93 -3.56,3.87 -5.04,5.16 -2.96,5.16 -5.92,10.3 -8.88,15.45 0.02,5.14 -0.26,10.29 0.05,14.15 -0.89,1.93 -1.78,3.86 -2.36,5.79 0,1.29 0,1.93 0.01,2.58 -0.89,1.93 -1.77,3.85 -2.66,5.15 -1.78,1.29 3.04,9.19 1.55,9.83 -0.89,1.29 -8.39,-4.67 -9.28,-4.02 0.01,2.57 6.62,10.46 6.93,12.39 0.89,1.29 1.79,1.92 2.68,2.56 0.9,1.93 1.8,3.86 2.41,5.79 0.9,1.28 1.79,1.92 2.69,2.56 0.01,3.22 0.02,5.79 0.03,8.36 0.9,1.29 1.79,1.92 2.69,2.56 1.79,0.64 3.58,1.92 5.07,3.2 0.9,1.29 1.79,1.92 2.69,2.57 2.08,1.27 4.17,1.91 6.55,2.56 1.79,1.92 3.29,3.85 5.08,5.77 8.04,-0.02 16.37,-0.68 24.41,-0.7 1.79,1.28 3.87,1.92 5.66,2.55 3.29,3.86 6.57,7.7 10.16,10.27 2.69,2.57 8.95,6.41 14.33,11.54 2.4,5.14 7.76,7.7 13.12,7.68 2.97,-0 5.95,-0.01 8.93,-0.02 1.79,1.28 3.58,1.92 5.37,2.56 2.38,-0 5.06,-0.01 7.74,-0.02 1.79,1.29 3.28,2.57 5.07,4.49 0,1.29 0.01,1.93 0.01,2.58 3.88,2.56 7.76,4.48 11.63,6.4 0.6,-0 1.49,-0 2.38,-0 2.69,3.21 5.38,5.77 7.77,8.34 0.02,4.5 3.01,10.93 5.4,13.48 0.9,1.29 1.8,2.57 2.39,3.86 0.89,-0.01 1.79,-0.01 2.68,-0.01 0.02,6.42 0.04,12.21 0.36,18 0.9,1.28 1.5,2.57 2.39,3.2 4.18,2.57 6.87,7.7 4.22,14.14 -1.48,1.93 -2.67,3.87 -3.85,5.16 0,1.29 0.01,1.93 0.3,2.57 -2.66,2.58 -5.33,7.73 -2.94,10.3 0.01,2.57 0.02,4.5 0.32,6.42 0.02,5.79 2.42,10.93 8.98,12.84 2.09,1.28 3.88,2.56 5.66,3.2 2.39,2.57 5.09,5.77 7.77,8.34 1.49,0 3.28,-0 5.06,-0 2.39,-0.01 6.26,2.55 6.59,10.27 -0.25,13.5 0.09,25.72 0.13,38.58 0.91,3.85 1.82,7.71 3.02,11.57 2.39,2.57 5.08,7.71 10.47,15.41 1.2,1.29 2.99,1.92 4.78,2.56 7.77,9.63 14.33,11.54 22.07,13.45 7.74,-0.02 12.51,2.55 19.36,5.11 2.4,3.21 4.79,5.78 7.47,8.34 0,1.29 0.01,1.93 0.01,2.57 0.9,1.29 1.79,1.29 2.69,1.92 1.8,3.21 3.29,6.43 5.09,9.64 1.79,1.29 3.58,3.21 5.37,4.49 6.57,5.13 12.23,7.69 17.29,7.68 0.62,0.54 1.3,1.54 2.01,2.57l6.93 -0.02c0,1.29 0.01,1.93 0.31,2.57 0.59,0 1.19,0 2.08,-0 9.26,8.34 14.31,7.69 22.04,5.11 1.78,-0 3.57,-0.01 5.35,-0.01 2.68,-0.65 5.65,-1.95 8.62,-3.24 1.19,-0.64 2.08,-1.29 2.97,-2.58 1.48,-0.65 3.56,-1.3 5.35,-2.59 2.38,-1.29 5.05,-3.87 7.72,-5.8 1.48,-1.93 3.26,-3.23 5.04,-5.16 0.89,-1.29 1.77,-3.22 2.66,-5.16 5.35,-3.23 10.69,-6.46 16.34,-9.68 0.59,-0.64 1.48,-0.64 2.37,-1.93 0.69,0 1.37,-0.1 2.05,-0.22 0.82,-0.25 1.71,-0.36 2.63,-0.41l0.03 -0c0.21,-0.01 0.43,-0.02 0.64,-0.02 5.65,-0.66 11.01,-1.31 16.95,-2.6 7.14,-2.59 14.27,-5.18 21.7,-9.05 0.6,-0.65 1.49,-1.29 2.38,-2.58l1.67 0 0.23 0 0.61 0 0.23 0 0.6 -0 0.23 0 0.61 0 0.23 0 0.61 -0 0.23 0 0.19 0 0.23 0 0.19 0 0.23 0 0.18 0 0.23 0 0.19 0 0.23 0 0.19 -0.01 0.23 0 0.19 0 0.23 0 0.19 0 0.23 0 0.19 -0 0.23 0 0.19 0 0.23 0 0.19 0 0.23 0 0.19 0 0.23 0 0.19 0 0.23 0 0.19 0 0.23 0 0.19 0 0.23 0 0.19 0 0.22 0 0.2 0 0.23 0 0.19 0 0.23 -0 0.2 0 0.22 0 0.2 0 0.22 0 0.2 0 0.22 0 0.2 0 0.22 0 0.2 0 0.22 0 0.2 -0 0.22 0 0.2 0 0.22 0 0.2 0 0.22 0 0.21 0 0.22 -0.01 0.21 0 0.21 0 0.21 0 0.22 0 0.21 0 0.21 0 0.21 0 0.22 0 0.21 0 0.21 0 0.21 -0 0.21 0 0.21 0 0.21 0 0.21 0 0.21 0 0.21 0 0.21 0 0.21 0 0.21 0 0.22 -0 0.21 0 0.21 0 0.21 0 0.22 0 0.21 0 0.22 0 0.2 0 0.22 0 0.21 0 0.22 0 0.21 0 0.23 0 0.2 0 0.66 0 0.2 0 0.66 -0 0.2 0 0.67 0 0.2 0 0.66 -0 0.19 0 0.24 0 0.01 0 1.48 0c5.83,0.84 11.36,1.31 16.39,1.33 5.72,-0.06 10.73,-0.72 14.86,-2.05l1.43 -0.01 0.01 0 0.03 0 0.01 0 0.03 0 0.02 0 0.02 0 0.02 0 0.02 0 0.01 0 0.03 0 0.02 0 0.02 0 0.02 0 0.02 0 0.02 0 0.03 0 0.02 0 0.02 0 0.02 0 0.02 0 0.02 0 0.02 0 0.02 0 0.02 0 0.02 0 0.02 0 0.02 0 0.02 0 0.02 0 0.02 0 0.02 0 0.02 0 0.02 0 0.02 0 0.02 0 0.02 0 0.02 0 0.02 0 0.02 0 0.02 0 0.02 0 0.02 0 0.02 0 0.02 0 0.02 0 0.02 0c-0,-0.64 -0,-1.29 -0.01,-2.58 1.79,0 3.57,-0 5.06,-0.01 0.59,-1.29 1.48,-1.93 2.37,-3.87 1.78,0 3.57,-0.01 5.36,-0.01 2.97,-1.93 5.94,-3.87 8.91,-5.81l0 1.9 1.19 -0.61c2.37,-2.58 5.04,-5.8 7.7,-9.02 0.89,-1.93 1.78,-3.87 2.66,-5.16 2.67,-2.58 2.65,-7.73 2.63,-13.51 -1.2,-2.57 -2.1,-5.79 -3,-8.36 -0.01,-2.57 -0.02,-5.15 -0.03,-8.36 -0.6,-1.29 -1.5,-3.22 -2.4,-5.14 -0.33,-8.36 -0.36,-18.01 -0.39,-27.01 6.84,-0.66 13.69,-0.68 19.94,-0.69 0.59,-0.65 1.48,-1.29 2.37,-2.58 1.78,-0.64 3.57,-1.94 5.35,-3.23 2.38,0 5.06,-0.01 7.73,-0.02 3.57,1.28 7.45,3.2 11.63,5.12 2.38,-0.01 4.76,-0.02 7.44,-0.02 1.79,0.64 3.57,1.27 5.37,1.92 8.93,-0.02 16.65,-4.54 24.33,-19.99 -0.32,-7.08 -0.35,-14.8 -0.08,-22.52 1.19,-0.65 2.08,-0.66 2.97,-1.94 0.59,-1.93 1.47,-3.87 2.36,-5.79 -0.31,-3.85 -0.33,-8.36 -0.04,-12.87 -0.9,-1.28 -1.8,-3.86 -2.7,-6.42 -0.9,-0.64 -1.79,-1.28 -2.69,-2.57 -0,-0.64 -0,-1.28 -0.01,-2.57 0.89,-0 1.78,-0 2.68,-0.01 0.59,-1.93 1.48,-3.86 2.36,-5.79 2.08,-1.29 4.16,-3.23 6.53,-4.52 2.37,-1.29 5.05,-3.87 7.71,-5.81 0.59,-0.64 1.48,-1.93 2.37,-3.23 0.89,0 1.79,-0 2.68,-0 1.78,-0.65 3.57,-1.29 5.35,-2.59 2.37,-4.51 8.9,-7.1 11.58,-7.1 7.74,-0.02 12.78,-5.82 15.41,-19.34l-0.51 0.74 0.51 -2.03c0.89,0 1.79,-0 2.68,-0 0.59,-0.64 1.78,-1.29 2.67,-2.57 2.38,-0.66 5.05,-1.3 7.72,-2.6l2.44 -0.34c2.36,-0.66 4.72,-1.25 7.08,-1.61 20.54,-0.7 41.67,-1.39 62.2,-1.44l0.04 0 4.43 -0.02c4.17,1.28 8.94,1.27 13.4,1.9 1.78,-0.65 3.57,-0.65 5.35,-0.66 -0.44,0.43 -0.87,0.86 -1.3,1.31 1.03,-0.02 2.06,-0.02 3.09,-0.02 -0.01,-1.3 -0.01,-1.94 -0.01,-3.23 8.63,-0.02 17.86,-0.04 27.39,-0.06 0.9,1.28 1.79,1.92 2.68,2.57 2.08,-0.01 4.17,-0.02 6.55,-0.02 0.9,1.28 1.79,1.92 2.39,2.57 3.27,-0 6.85,-0.02 10.42,-0.02 0.9,1.28 1.79,1.93 2.69,2.57 0.59,0 1.49,0 2.08,-0 -0.6,-1.29 -1.5,-3.22 -2.4,-5.15 0.89,-1.29 1.78,-1.94 2.67,-3.22 0.59,-2.58 1.47,-5.16 2.35,-8.38 0.89,-0.64 1.78,-1.29 2.66,-2.58 -0.02,-5.15 -0.03,-10.3 -0.05,-15.45 4.74,-7.73 -0.04,-12.87 -2.74,-17.37 -0.6,-1.93 -1.5,-3.86 -2.4,-5.79 -2.68,-1.93 -5.37,-4.5 -7.77,-8.35 -0.9,-0.65 -1.79,-1.93 -2.69,-3.22 -0.89,0 -1.79,0 -2.68,0.01 -0,-1.28 -0.01,-3.21 0.28,-5.14 -0.9,-2.57 -1.8,-5.14 -2.71,-8.36 -5.68,-7.71 -11.07,-16.06 -17.35,-24.41 -3.28,-2.56 -6.86,-4.49 -10.44,-7.69 -0.6,-0.64 -1.49,-1.29 -2.39,-2.57 -1.49,0 -2.68,0.64 -3.87,0.65 1.18,-0.65 2.37,-1.94 3.86,-3.22 -0.32,-4.5 -0.33,-9.66 -0.05,-14.81 -0.01,-2.58 -3.9,-7.71 -6.59,-12.85 -1.8,-1.92 -3.59,-3.86 -5.08,-6.42 0.59,-0.64 1.48,-1.29 2.66,-3.23 0.89,-1.29 1.78,-3.22 2.66,-5.16 -0.31,-2.58 -0.32,-6.44 -0.34,-10.3 -0.89,-0.64 -1.79,-1.28 -2.39,-2.57 -0.31,-3.86 -0.32,-7.71 -0.34,-12.22 2.98,-0 5.96,-0.02 9.23,-0.03 0.89,-0.64 1.78,-1.29 2.67,-1.93 -0.3,-0.64 -0.3,-1.93 -0.31,-3.21 0.58,-3.22 1.46,-6.45 2.64,-10.31 -0.03,-7.08 -5.39,-9.64 -14.02,-9.61 -1.79,-0.64 -3.58,-1.28 -5.37,-2.56 -0.9,-0.64 -1.8,-2.57 -2.69,-4.5 0.89,-0.64 2.07,-1.94 2.96,-3.23 -0.32,-6.44 -0.64,-12.87 -0.36,-19.3 -0.9,-0.65 -2.09,-1.29 -2.69,-2.57 -0.3,-0.64 -0.3,-1.29 -0.3,-2.58 0.89,0 2.08,-0 2.98,-0.01 1.48,-3.22 3.25,-7.09 5.02,-10.95 0.89,-0.64 1.78,-1.29 2.67,-2.58 0.59,-1.93 1.77,-4.51 2.66,-7.08 -0,-0.65 -0.01,-2.58 -0.02,-4.51 -1.2,-3.22 -2.11,-7.08 -2.72,-10.94 -0.03,-8.37 -0.04,-11.58 -2.43,-14.15 -1.79,-0.63 -3.57,-1.27 -5.37,-2.56 -2.09,-1.92 -3.88,-3.85 -5.37,-5.77 -0,-1.29 -0.02,-3.22 -0.02,-5.16 1.49,-1.29 3.26,-3.22 5.34,-5.16z"/>
 </g>
</svg>
