<svg xmlns="http://www.w3.org/2000/svg" viewBox="0 0 1200 1800">
  <path d="M 310.1,236.5 309.9,236.6 309.8,236.7 309.6,236.7 309.5,236.8 309.5,236.8 309.5,236.8 309.3,236.8 309.1,236.8 309.0,236.8 309.0,236.8 309.0,236.8 308.8,236.7 308.6,236.6 308.3,236.5 308.3,236.5 308.3,236.5 308.2,236.5 308.1,236.4 307.9,236.2 307.7,236.1 307.3,235.6 307.2,235.6 307.0,235.3 307.0,235.3 306.9,235.2 306.8,235.0 306.5,234.6 306.3,234.4 306.3,234.4 306.2,234.2 306.1,233.8 306.1,233.8 306.0,233.6 306.0,233.5 306.0,233.2 306.0,232.9 306.0,232.8 306.1,232.6 306.1,232.6 306.2,232.3 306.2,232.2 306.2,232.1 306.3,231.7 306.4,231.3 306.4,231.1 306.4,231.0 306.4,230.8 306.4,230.8 306.3,230.5 306.2,230.3 305.9,229.8 305.9,229.7 305.6,229.3 305.5,229.1 305.3,228.9 305.1,228.8 304.9,228.6 304.4,228.4 304.2,228.4 304.1,228.3 303.8,228.3 303.8,228.3 303.8,228.3 303.7,228.3 303.7,228.3 303.7,228.3 303.6,228.3 303.6,228.3 303.6,228.3 303.5,228.3 303.4,228.3 303.2,228.3 303.2,228.3 302.9,228.3 302.7,228.3 302.5,228.4 302.4,228.4 302.4,228.5 302.3,228.5 302.1,228.6 302.1,228.6 302.1,228.6 302.0,228.6 302.0,228.6 301.8,228.7 301.7,228.7 301.6,228.7 301.5,228.7 301.5,228.6 301.4,228.6 301.4,228.6 301.4,228.6 301.4,228.6 301.3,228.6 301.3,228.5 301.3,228.5 301.3,228.4 301.3,228.4 301.3,228.4 301.3,228.4 301.3,228.4 301.3,228.3 301.2,228.3 301.2,228.3 301.2,228.3 301.2,228.3 301.2,228.3 301.2,228.2 301.2,228.2 301.2,228.1 301.2,228.1 301.2,228.1 301.1,228.0 301.1,228.0 301.1,228.0 301.1,227.9 301.1,227.9 301.1,227.8 301.1,227.8 301.1,227.8 301.0,227.7 301.0,227.7 301.0,227.7 301.0,227.6 301.0,227.6 301.0,227.6 301.0,227.6 301.0,227.5 301.0,227.5 301.0,227.5 301.0,227.5 300.9,227.4 300.9,227.4 300.9,227.4 300.9,227.4 300.9,227.4 300.9,227.3 300.9,227.3 300.9,227.3 300.9,227.3 300.9,227.2 300.9,227.2 300.8,227.2 300.8,227.1 300.8,227.1 300.8,227.1 300.8,227.1 300.8,227.0 300.8,227.0 300.8,227.0 300.8,226.9 300.7,226.9 300.7,226.8 300.7,226.8 300.7,226.8 300.7,226.8 300.7,226.7 300.7,226.7 300.7,226.7 300.7,226.6 300.7,226.6 300.6,226.6 300.6,226.5 300.6,226.5 300.6,226.5 300.6,226.5 300.6,226.5 300.6,226.5 300.7,226.4 300.7,226.3 300.9,225.9 300.9,225.8 300.8,225.1 300.8,225.1 300.8,225.1 300.8,225.1 300.9,224.5 300.9,224.3 300.9,223.8 300.9,223.5 300.9,223.4 301.0,223.1 301.0,222.9 301.0,222.8 301.0,222.8 300.9,222.6 300.9,222.6 300.9,222.5 300.9,222.4 300.7,222.2 300.6,222.1 300.4,222.0 300.1,221.9 300.1,221.9 300.0,221.9 299.9,221.9 299.7,221.8 299.7,221.8 298.8,221.7 298.3,221.6 298.0,221.5 297.8,221.4 297.8,221.4 297.6,221.3 297.5,221.2 297.5,221.2 297.4,221.0 297.3,221.0 297.3,220.9 297.2,220.8 297.2,220.7 297.0,220.4 296.9,220.1 296.9,219.9 296.7,219.6 296.7,219.4 296.6,219.1 296.5,218.7 296.5,218.6 296.5,218.5 296.4,218.3 296.4,218.0 296.5,217.7 296.5,217.4 296.6,217.2 296.6,217.1 296.6,217.1 296.7,217.0 296.8,216.7 296.9,216.7 297.1,216.5 297.4,216.3 297.7,216.2 297.8,216.1 298.0,216.1 298.0,216.0 298.0,216.0 298.1,216.0 298.2,215.8 298.3,215.6 298.4,215.5 298.4,215.2 298.4,215.0 298.4,214.8 298.4,214.7 298.4,214.7 298.3,214.6 298.2,214.4 298.2,214.4 298.1,214.3 298.0,214.1 297.8,214.0 297.8,213.9 297.7,213.8 297.6,213.7 297.5,213.6 297.5,213.6 297.5,213.6 297.0,213.3 296.9,213.2 296.4,213.0 296.3,213.0 296.2,212.9 296.1,212.8 295.7,212.7 295.5,212.6 295.5,212.6 295.4,212.5 295.3,212.4 295.2,212.3 295.1,212.2 295.1,212.2 295.1,212.2 295.1,212.1 295.1,212.1 295.1,212.1 295.1,212.0 295.1,212.0 295.1,211.9 295.1,211.9 295.1,211.8 295.1,211.7 295.2,211.7 295.2,211.7 295.3,211.6 295.4,211.5 295.5,211.4 295.5,211.4 295.5,211.3 295.6,211.3 295.6,211.3 295.6,211.3 295.7,211.2 295.7,211.2 295.7,211.2 295.8,211.2 295.8,211.1 295.9,211.1 295.9,211.0 295.9,211.0 295.9,211.0 296.0,211.0 296.0,211.0 296.0,210.9 296.1,210.9 296.1,210.9 296.2,210.9 296.2,210.8 296.2,210.8 296.4,210.7 296.4,210.7 296.4,210.7 296.5,210.6 296.5,210.6 296.6,210.6 296.6,210.5 296.6,210.5 296.7,210.5 296.7,210.5 296.7,210.4 296.7,210.4 296.7,210.4 296.7,210.4 296.7,210.4 296.7,210.3 296.7,210.3 296.8,210.3 296.8,210.3 296.8,210.3 296.8,210.3 296.8,210.2 296.8,210.2 296.8,210.2 296.8,210.1 296.8,210.1 296.8,210.1 296.8,210.1 296.8,210.0 296.7,210.0 296.7,210.0 296.7,209.9 296.6,209.9 296.6,209.8 296.5,209.7 296.5,209.7 296.4,209.7 296.3,209.6 296.3,209.6 296.2,209.6 296.2,209.6 296.3,209.5 296.3,209.5 296.3,209.5 296.3,209.4 296.3,209.4 296.3,209.4 296.3,209.4 296.4,209.3 296.4,209.3 296.4,209.3 296.4,209.3 296.4,209.3 296.4,209.3 296.4,209.3 296.4,209.3 296.4,209.3 296.4,209.3 296.4,209.2 296.4,209.2 296.4,209.2 296.5,209.2 296.5,209.1 296.5,209.1 296.5,209.1 296.5,209.1 296.5,209.1 296.5,209.0 296.5,209.0 296.6,209.0 296.6,209.0 296.6,208.9 296.6,208.9 296.6,208.9 296.6,208.9 296.6,208.9 296.6,208.8 296.7,208.8 296.7,208.8 296.7,208.8 296.7,208.8 296.7,208.7 296.7,208.7 296.7,208.7 296.7,208.7 296.7,208.7 296.7,208.7 296.7,208.7 296.7,208.7 296.7,208.7 296.7,208.7 296.7,208.7 296.7,208.7 296.7,208.7 296.7,208.7 296.7,208.6 296.7,208.6 296.7,208.6 296.7,208.6 296.6,208.6 296.6,208.6 296.6,208.6 296.6,208.6 296.6,208.6 296.6,208.6 296.6,208.6 296.6,208.6 296.5,208.6 296.5,208.6 296.5,208.6 296.5,208.6 296.5,208.6 296.5,208.5 296.5,208.5 296.5,208.5 296.5,208.5 296.5,208.5 296.5,208.5 296.5,208.5 296.5,208.5 296.5,208.5 296.5,208.5 296.4,208.4 296.4,208.4 296.4,208.3 296.4,208.3 296.4,208.2 296.3,208.2 296.3,208.2 296.2,208.1 296.2,208.1 296.1,208.1 296.1,208.1 296.1,208.1 296.0,207.9 295.8,207.8 295.8,207.8 295.8,207.8 295.8,207.8 295.9,207.7 295.9,207.7 295.9,207.6 295.9,207.6 295.9,207.6 295.9,207.6 295.9,207.6 296.0,207.6 296.0,207.5 296.0,207.5 296.0,207.5 296.0,207.5 296.0,207.5 296.0,207.5 296.0,207.4 296.0,207.4 296.0,207.4 296.0,207.4 296.0,207.4 296.0,207.3 296.0,207.3 296.0,207.3 296.0,207.3 296.0,207.3 296.0,207.3 296.0,207.3 296.0,207.3 296.0,207.3 296.0,207.3 296.0,207.3 296.0,207.3 296.0,207.3 296.0,207.2 296.0,207.2 296.1,207.1 296.1,207.1 296.1,207.1 296.1,207.1 296.1,207.0 296.1,207.0 296.1,207.0 296.1,207.0 296.1,207.0 296.1,207.0 296.1,206.9 296.1,206.9 296.1,206.9 296.1,206.9 296.1,206.9 296.1,206.9 296.1,206.9 296.1,206.9 296.1,206.9 296.1,206.9 296.2,206.9 296.2,206.8 296.2,206.7 296.2,206.7 296.2,206.7 296.2,206.7 296.2,206.7 296.2,206.6 296.2,206.6 296.2,206.6 296.2,206.6 296.2,206.5 296.2,206.5 296.3,206.5 296.3,206.4 296.3,206.4 296.4,206.2 296.4,206.2 296.5,206.1 296.5,206.1 296.5,206.1 296.5,206.0 296.5,206.0 296.5,206.0 296.5,205.9 296.5,205.9 296.5,205.9 296.5,205.8 296.6,205.8 296.6,205.8 296.6,205.8 296.6,205.8 296.6,205.8 296.6,205.8 296.6,205.8 296.6,205.8 296.6,205.8 296.6,205.7 296.6,205.7 296.6,205.7 296.6,205.7 296.6,205.6 296.6,205.6 296.6,205.6 296.6,205.6 296.6,205.6 296.6,205.6 296.6,205.6 296.6,205.6 296.7,205.6 296.7,205.6 296.7,205.6 296.7,205.6 296.7,205.6 296.7,205.5 296.7,205.5 296.7,205.5 296.7,205.5 296.7,205.5 296.7,205.5 296.7,205.5 296.7,205.5 296.7,205.5 296.8,205.5 296.8,205.5 296.8,205.5 296.8,205.5 296.8,205.5 296.8,205.5 296.8,205.5 296.8,205.5 296.8,205.5 296.8,205.5 296.8,205.5 296.8,205.5 296.8,205.5 296.9,205.5 296.9,205.5 296.9,205.5 297.0,205.5 297.0,205.5 297.0,205.5 297.0,205.5 297.0,205.4 297.0,205.4 297.0,205.4 297.0,205.4 297.0,205.4 297.0,205.4 297.1,205.4 297.1,205.4 297.1,205.4 297.1,205.4 297.1,205.5 297.1,205.5 297.1,205.5 297.2,205.5 297.2,205.5 297.2,205.5 297.2,205.5 297.3,205.5 297.3,205.5 297.3,205.5 297.3,205.5 297.3,205.5 297.3,205.5 297.3,205.5 297.3,205.5 297.3,205.5 297.3,205.5 297.3,205.5 297.3,205.5 297.3,205.5 297.3,205.5 297.3,205.4 297.3,205.4 297.3,205.4 297.4,205.4 297.4,205.4 297.4,205.4 297.5,205.4 297.5,205.4 297.5,205.4 297.5,205.4 297.5,205.4 297.5,205.5 297.5,205.5 297.5,205.5 297.5,205.5 297.5,205.5 297.5,205.5 297.5,205.5 297.5,205.5 297.5,205.5 297.6,205.5 297.6,205.5 297.6,205.5 297.6,205.5 297.6,205.6 297.6,205.6 297.6,205.6 297.6,205.6 297.7,205.6 297.7,205.6 297.7,205.6 297.7,205.6 297.7,205.6 297.7,205.6 297.7,205.6 297.7,205.6 297.7,205.6 297.8,205.6 297.8,205.6 297.8,205.6 297.8,205.6 297.8,205.6 297.8,205.6 297.8,205.6 297.8,205.6 297.8,205.6 297.8,205.6 297.8,205.6 297.9,205.6 297.9,205.7 297.9,205.7 297.9,205.7 297.9,205.7 298.0,205.7 298.0,205.7 298.0,205.7 298.0,205.7 298.0,205.7 298.0,205.6 298.0,205.6 298.0,205.6 298.1,205.6 298.1,205.6 298.1,205.6 298.1,205.6 298.1,205.6 298.1,205.6 298.1,205.6 298.1,205.6 298.1,205.6 298.1,205.6 298.1,205.6 298.2,205.7 298.2,205.7 298.2,205.7 298.3,205.8 298.3,205.8 298.4,205.8 298.4,205.9 298.4,205.9 298.5,205.9 298.5,205.9 298.5,205.9 298.5,205.9 298.5,205.9 298.5,205.9 298.6,205.9 298.6,205.9 298.6,205.9 298.6,205.9 298.6,205.9 298.6,206.0 298.6,206.0 298.6,206.0 298.6,206.0 298.6,206.0 298.6,206.0 298.6,206.0 298.6,206.0 298.6,206.0 298.7,206.0 298.7,206.0 298.7,206.0 298.7,206.0 298.7,206.0 298.7,206.0 298.7,206.0 298.7,206.0 298.7,206.0 298.7,206.0 298.7,206.0 298.7,206.1 298.7,206.1 298.7,206.1 298.7,206.1 298.7,206.1 298.8,206.1 298.8,206.1 299.0,206.0 299.0,206.0 299.1,206.0 299.1,206.0 299.2,206.0 299.3,206.0 299.3,206.0 299.3,206.0 299.3,206.0 299.3,206.0 299.3,206.0 299.3,206.0 299.3,206.0 299.4,206.0 299.4,206.0 299.4,206.0 299.4,206.0 299.4,206.0 299.4,206.0 299.4,206.0 299.4,206.0 299.4,206.0 299.4,206.0 299.4,206.0 299.4,206.1 299.4,206.1 299.4,206.1 299.4,206.1 299.4,206.1 299.4,206.1 299.4,206.1 299.4,206.1 299.4,206.1 299.4,206.1 299.4,206.1 299.4,206.1 299.4,206.1 299.4,206.1 299.4,206.1 299.4,206.1 299.4,206.1 299.4,206.1 299.4,206.1 299.4,206.1 299.4,206.1 299.4,206.1 299.4,206.1 299.4,206.1 299.4,206.2 299.4,206.2 299.4,206.2 299.4,206.2 299.4,206.2 299.4,206.2 299.4,206.2 299.4,206.2 299.4,206.1 299.4,206.1 299.4,206.1 299.4,206.1 299.5,206.2 299.5,206.2 299.5,206.2 299.5,206.2 299.5,206.2 299.5,206.2 299.5,206.2 299.5,206.2 299.5,206.2 299.5,206.2 299.5,206.2 299.5,206.2 299.5,206.2 299.5,206.2 299.5,206.2 299.5,206.2 299.5,206.2 299.5,206.2 299.5,206.2 299.5,206.2 299.5,206.2 299.5,206.2 299.5,206.2 299.5,206.2 299.5,206.2 299.6,206.2 299.6,206.2 299.6,206.2 299.6,206.2 299.6,206.2 299.6,206.2 299.6,206.2 299.6,206.2 299.6,206.2 299.6,206.2 299.7,206.2 299.7,206.2 299.7,206.2 299.7,206.2 299.7,206.2 299.7,206.2 299.7,206.2 299.7,206.1 299.7,206.1 299.7,206.1 299.7,206.1 299.7,206.1 299.7,206.1 299.7,206.1 299.7,206.1 299.7,206.1 299.7,206.1 299.7,206.1 299.7,206.1 299.8,206.1 299.8,206.1 299.8,206.1 299.8,206.1 299.8,206.1 299.8,206.1 299.8,206.1 299.8,206.1 299.8,206.1 299.8,206.1 299.8,206.1 299.8,206.1 299.8,206.1 299.8,206.1 299.8,206.1 299.8,206.1 299.8,206.1 299.8,206.1 299.8,206.1 299.8,206.1 299.8,206.1 299.8,206.1 299.8,206.1 299.8,206.1 299.8,206.1 299.8,206.1 299.8,206.1 299.8,206.1 299.8,206.1 299.9,206.1 299.9,206.1 299.9,206.1 299.9,206.1 299.9,206.1 299.9,206.1 299.9,206.1 299.9,206.1 299.9,206.1 299.9,206.1 299.9,206.1 299.9,206.1 299.9,206.1 299.9,206.1 299.9,206.1 299.9,206.1 299.9,206.1 299.9,206.1 299.9,206.1 299.9,206.1 299.9,206.1 299.9,206.1 299.9,206.1 299.9,206.1 300.0,206.1 300.0,206.1 300.0,206.1 300.0,206.1 300.0,206.1 300.0,206.1 300.0,206.1 300.0,206.1 300.0,206.1 300.0,206.1 300.0,206.1 300.0,206.1 300.0,206.1 300.0,206.1 300.0,206.1 300.0,206.1 300.0,206.1 300.0,206.1 300.0,206.1 300.0,206.1 300.0,206.1 300.0,206.1 300.0,206.2 300.0,206.2 300.0,206.2 300.0,206.2 300.0,206.2 300.0,206.2 300.0,206.2 300.1,206.2 300.1,206.2 300.1,206.2 300.1,206.2 300.1,206.2 300.1,206.2 300.1,206.2 300.2,206.2 300.2,206.2 300.2,206.2 300.2,206.2 300.2,206.2 300.2,206.3 300.2,206.3 300.2,206.3 300.2,206.3 300.2,206.3 300.2,206.3 300.2,206.3 300.2,206.3 300.2,206.4 300.2,206.4 300.2,206.4 300.2,206.4 300.2,206.4 300.2,206.4 300.2,206.4 300.2,206.4 300.2,206.4 300.2,206.4 300.2,206.4 300.2,206.4 300.2,206.4 300.2,206.4 300.2,206.4 300.2,206.4 300.3,206.4 300.3,206.4 300.3,206.4 300.3,206.4 300.3,206.4 300.4,206.5 300.4,206.5 300.4,206.5 300.4,206.5 300.4,206.4 300.4,206.4 300.4,206.4 300.4,206.4 300.5,206.4 300.5,206.4 300.5,206.4 300.5,206.4 300.5,206.4 300.5,206.4 300.5,206.4 300.5,206.4 300.6,206.5 300.6,206.5 300.6,206.4 300.6,206.4 300.6,206.4 300.6,206.4 300.6,206.4 300.7,206.2 300.6,206.2 300.6,206.2 300.6,206.2 300.6,206.1 300.6,206.1 300.6,206.1 300.6,206.1 300.7,206.1 300.7,206.1 300.7,206.1 300.7,206.0 300.7,206.0 300.7,206.0 300.7,206.0 300.7,206.0 300.7,206.0 300.7,206.0 300.7,205.9 300.7,205.9 300.7,205.9 300.7,205.9 300.7,205.8 300.7,205.8 300.7,205.8 300.7,205.7 300.7,205.7 300.7,205.7 300.7,205.7 300.7,205.7 300.6,205.7 300.6,205.7 300.6,205.7 300.6,205.6 300.5,205.6 300.5,205.6 300.5,205.6 300.5,205.6 300.5,205.6 300.5,205.6 300.5,205.5 300.5,205.5 300.5,205.5 300.5,205.5 300.5,205.5 300.5,205.5 300.5,205.5 300.5,205.4 300.4,205.4 300.4,205.4 300.4,205.4 300.4,205.4 300.4,205.4 300.4,205.3 300.4,205.3 300.5,205.3 300.5,205.2 300.5,205.2 300.5,205.1 300.5,205.1 300.5,205.1 300.5,205.0 300.5,205.0 300.5,205.0 300.5,205.0 300.5,205.0 300.5,205.0 300.5,205.0 300.5,205.0 300.5,205.0 300.5,205.0 300.5,205.0 300.5,205.0 300.5,205.0 300.5,205.0 300.5,205.0 300.5,205.0 300.5,205.0 300.5,205.0 300.5,205.0 300.5,204.9 300.5,204.9 300.4,204.9 300.4,204.9 300.4,204.9 300.5,204.9 300.5,204.9 300.5,204.9 300.5,204.9 300.5,204.8 300.5,204.8 300.6,204.8 300.7,204.7 300.7,204.7 300.7,204.7 300.7,204.7 300.7,204.7 300.7,204.7 300.7,204.7 300.7,204.7 300.7,204.7 300.7,204.7 300.7,204.7 300.7,204.7 300.7,204.7 300.7,204.7 300.7,204.7 300.7,204.7 300.7,204.7 300.7,204.7 300.7,204.6 300.7,204.6 300.7,204.6 300.7,204.6 300.7,204.6 300.7,204.6 300.7,204.6 300.7,204.6 300.7,204.6 300.7,204.6 300.7,204.6 300.7,204.6 300.6,204.7 300.6,204.7 300.6,204.7 300.6,204.7 300.6,204.6 300.6,204.6 300.6,204.6 300.6,204.6 300.6,204.6 300.6,204.6 300.6,204.6 300.6,204.6 300.6,204.6 300.6,204.5 300.6,204.5 300.6,204.5 300.6,204.5 300.6,204.5 300.5,204.5 300.5,204.5 300.5,204.5 300.5,204.5 300.5,204.5 300.5,204.4 300.5,204.4 300.4,204.4 300.4,204.4 300.4,204.4 300.4,204.4 300.4,204.3 300.4,204.3 300.4,204.3 300.4,204.3 300.4,204.3 300.4,204.3 300.5,204.3 300.5,204.3 300.5,204.3 300.5,204.2 300.5,204.2 300.6,204.2 300.6,204.2 300.6,204.2 300.6,204.2 300.6,204.2 300.6,204.2 300.6,204.2 300.7,204.2 300.7,204.1 300.7,204.1 300.7,204.1 300.7,204.1 300.7,204.1 300.7,204.1 300.7,204.1 300.7,204.1 300.7,204.1 300.7,204.1 300.7,204.2 300.7,204.2 300.7,204.2 300.7,204.2 300.8,204.1 300.8,204.1 301.0,204.3 301.0,204.3 301.0,204.3 301.0,204.3 301.0,204.3 301.0,204.3 301.0,204.3 301.0,204.3 301.0,204.3 301.0,204.3 301.0,204.3 301.1,204.3 301.2,204.3 301.2,204.3 301.2,204.2 301.3,204.2 301.3,204.2 301.3,204.2 301.3,204.2 301.3,204.2 301.3,204.2 301.3,204.2 301.3,204.2 301.3,204.1 301.3,204.1 301.3,204.1 301.3,204.0 301.3,204.0 301.3,204.0 301.3,204.0 301.3,204.0 301.3,204.0 301.3,204.0 301.3,204.0 301.3,203.9 301.3,203.9 301.3,203.9 301.2,203.9 301.2,203.9 301.2,203.9 301.2,203.8 301.2,203.8 301.2,203.8 301.2,203.8 301.2,203.8 301.2,203.8 301.2,203.8 301.2,203.8 301.2,203.8 301.2,203.7 301.2,203.7 301.2,203.7 301.2,203.7 301.2,203.7 301.2,203.7 301.2,203.7 301.2,203.7 301.2,203.7 301.2,203.6 301.2,203.6 301.2,203.6 301.2,203.6 301.3,203.6 301.3,203.6 301.3,203.6 301.3,203.6 301.3,203.6 301.3,203.6 301.3,203.6 301.3,203.6 301.3,203.6 301.3,203.6 301.3,203.6 301.3,203.7 301.3,203.7 301.3,203.7 301.3,203.7 301.3,203.7 301.3,203.7 301.3,203.7 301.3,203.7 301.3,203.7 301.3,203.7 301.4,203.7 301.4,203.7 301.4,203.7 301.4,203.7 301.4,203.7 301.4,203.6 301.4,203.6 301.4,203.6 301.4,203.6 301.4,203.6 301.4,203.6 301.4,203.6 301.5,203.6 301.5,203.6 301.5,203.6 301.5,203.6 301.5,203.6 301.5,203.6 301.5,203.6 301.5,203.5 301.5,203.5 301.5,203.5 301.5,203.5 301.5,203.5 301.5,203.5 301.5,203.5 301.5,203.5 301.5,203.5 301.6,203.5 301.6,203.5 301.6,203.6 301.6,203.6 301.6,203.6 301.6,203.5 301.6,203.5 301.6,203.5 301.6,203.5 301.6,203.5 301.6,203.5 301.6,203.5 301.6,203.5 301.6,203.5 301.6,203.5 301.6,203.5 301.6,203.5 301.6,203.5 301.6,203.5 301.6,203.5 301.6,203.5 301.6,203.5 301.6,203.5 301.6,203.5 301.6,203.5 301.6,203.5 301.6,203.5 301.6,203.5 301.6,203.4 301.6,203.4 301.7,203.4 301.7,203.4 301.7,203.5 301.7,203.5 301.8,203.5 301.8,203.5 301.8,203.5 301.8,203.5 301.8,203.5 301.8,203.5 301.8,203.5 301.8,203.5 301.9,203.5 301.9,203.5 302.0,203.6 302.0,203.6 302.0,203.6 302.0,203.6 302.0,203.6 302.1,203.6 302.1,203.6 302.1,203.6 302.2,203.6 302.2,203.6 302.2,203.6 302.2,203.6 302.2,203.6 302.3,203.6 302.3,203.6 302.3,203.6 302.4,203.6 302.4,203.6 302.5,203.5 302.6,203.5 302.6,203.5 302.6,203.5 302.6,203.5 302.7,203.4 302.7,203.4 302.7,203.4 302.7,203.3 302.8,203.3 302.8,203.3 302.8,203.3 302.9,203.3 302.9,203.3 302.9,203.3 302.9,203.3 303.0,203.4 303.0,203.4 303.0,203.4 303.0,203.3 303.0,203.3 303.0,203.3 303.0,203.3 303.0,203.3 303.0,203.3 303.0,203.3 303.0,203.3 303.1,203.3 303.1,203.3 303.1,203.3 303.1,203.3 303.1,203.3 303.1,203.3 303.1,203.3 303.1,203.3 303.1,203.3 303.2,203.3 303.2,203.3 303.2,203.3 303.2,203.3 303.2,203.4 303.3,203.4 303.3,203.4 303.3,203.4 303.4,203.4 303.4,203.4 303.4,203.4 303.4,203.4 303.4,203.4 303.4,203.4 303.4,203.4 303.4,203.4 303.4,203.4 303.4,203.4 303.4,203.4 303.4,203.4 303.4,203.4 303.4,203.4 303.4,203.4 303.4,203.4 303.4,203.4 303.4,203.4 303.4,203.3 303.5,203.3 303.5,203.3 303.5,203.3 303.5,203.3 303.5,203.3 303.5,203.3 303.5,203.3 303.5,203.3 303.5,203.3 303.5,203.3 303.5,203.3 303.5,203.3 303.5,203.3 303.5,203.3 303.5,203.3 303.5,203.3 303.5,203.3 303.5,203.3 303.5,203.3 303.5,203.3 303.5,203.3 303.5,203.3 303.5,203.3 303.5,203.3 303.5,203.3 303.5,203.3 303.5,203.3 303.5,203.3 303.5,203.3 303.5,203.3 303.5,203.3 303.5,203.3 303.6,203.3 303.6,203.3 303.6,203.3 303.6,203.3 303.6,203.3 303.5,203.3 303.6,203.3 303.6,203.3 303.6,203.3 303.6,203.3 303.6,203.3 303.6,203.3 303.6,203.3 303.6,203.3 303.6,203.3 303.6,203.3 303.6,203.3 303.6,203.3 303.6,203.3 303.6,203.3 303.6,203.3 303.6,203.3 303.7,203.3 303.8,203.3 303.8,203.3 303.8,203.3 303.9,203.3 303.9,203.5 303.9,203.5 303.8,203.5 304.0,203.5 304.1,203.5 304.2,203.5 304.2,203.5 304.2,203.5 304.3,203.5 304.3,203.5 304.3,203.5 304.3,203.5 304.3,203.5 304.3,203.5 304.3,203.4 304.3,203.4 304.4,203.3 304.4,203.3 304.4,203.3 304.4,203.3 304.4,203.2 304.4,203.2 304.4,203.2 304.4,203.2 304.4,203.2 304.5,203.2 304.5,203.2 304.5,203.2 304.5,203.2 304.5,203.2 304.5,203.2 304.5,203.2 304.5,203.2 304.6,203.2 304.6,203.2 304.6,203.2 304.6,203.2 304.6,203.2 304.6,203.2 304.7,203.2 304.7,203.2 304.7,203.2 304.7,203.2 304.7,203.2 304.8,203.2 304.8,203.2 304.8,203.2 304.8,203.2 304.8,203.2 304.8,203.3 304.8,203.3 304.8,203.3 304.8,203.3 304.8,203.3 304.8,203.4 304.8,203.4 304.8,203.4 304.8,203.4 304.8,203.4 304.8,203.5 304.8,203.5 304.8,203.5 304.8,203.5 304.9,203.5 304.9,203.5 304.9,203.5 304.9,203.6 304.9,203.6 304.9,203.6 304.9,203.5 304.9,203.6 304.9,203.6 305.0,203.6 305.0,203.6 305.0,203.6 305.0,203.6 305.0,203.6 305.0,203.6 305.0,203.6 305.0,203.7 305.0,203.7 305.0,203.7 305.0,203.7 305.0,203.7 305.0,203.7 305.0,203.7 305.0,203.7 305.0,203.7 305.0,203.7 305.0,203.7 305.0,203.7 305.0,203.7 305.1,203.7 305.1,203.7 305.1,203.8 305.1,203.8 305.1,203.8 305.2,203.8 305.2,203.8 305.2,203.8 305.2,203.8 305.3,203.8 305.3,203.8 305.4,203.7 305.5,203.8 305.5,203.8 305.5,203.9 305.6,203.9 305.6,203.9 305.6,203.9 305.6,203.9 305.6,203.9 305.6,203.9 305.7,204.0 305.7,204.0 305.7,204.0 305.7,204.0 305.7,203.9 305.7,203.9 305.7,203.9 305.7,203.9 305.8,203.9 305.8,203.9 305.8,203.9 305.8,203.9 305.8,203.9 305.8,203.9 305.8,203.9 305.8,203.9 305.8,203.9 305.8,203.9 305.8,203.9 305.8,203.9 305.8,203.9 305.8,203.9 305.8,203.9 305.8,203.9 305.8,203.8 305.9,203.8 305.9,203.7 305.9,203.8 305.9,203.7 305.9,203.7 306.0,203.7 306.0,203.7 306.0,203.7 306.0,203.6 306.0,203.6 306.0,203.6 306.0,203.6 306.0,203.6 306.0,203.6 306.0,203.6 306.0,203.6 306.0,203.6 306.0,203.6 306.0,203.6 306.0,203.6 306.0,203.6 306.0,203.6 306.0,203.6 306.1,203.6 306.1,203.6 306.1,203.6 306.1,203.6 306.1,203.6 306.1,203.6 306.2,203.6 306.2,203.6 306.2,203.6 306.2,203.6 306.2,203.6 306.2,203.6 306.3,203.5 306.3,203.5 306.4,203.5 306.4,203.5 306.4,203.5 306.4,203.5 306.4,203.5 306.4,203.4 306.5,203.3 306.5,203.3 306.5,203.3 306.6,203.3 306.6,203.3 306.6,203.3 306.6,203.3 306.6,203.2 306.6,203.2 306.7,203.2 306.7,203.2 306.7,203.2 306.7,203.2 306.7,203.2 306.7,203.2 306.8,203.2 306.8,203.2 306.8,203.2 306.8,203.2 306.8,203.2 306.8,203.2 306.8,203.2 306.8,203.2 306.8,203.2 306.8,203.2 306.8,203.2 306.8,203.2 306.8,203.2 306.8,203.2 306.8,203.2 306.8,203.2 306.9,203.2 306.9,203.1 306.9,203.1 306.9,203.1 306.9,203.1 306.9,203.1 306.9,203.1 306.9,203.1 306.9,203.1 306.9,203.1 306.9,203.1 306.9,203.1 306.9,203.1 306.9,203.1 306.9,203.1 306.9,203.1 307.0,203.1 307.1,203.1 307.1,203.1 307.1,203.1 307.2,203.1 307.2,203.1 307.3,203.1 307.4,203.0 307.4,203.0 307.4,203.0 307.3,203.0 307.3,203.0 307.3,203.0 307.3,202.9 307.3,202.9 307.3,202.9 307.4,202.9 307.4,202.8 307.5,202.8 307.5,202.8 307.5,202.8 307.5,202.8 307.5,202.8 307.5,202.9 307.6,202.8 307.6,202.9 307.6,202.9 307.6,202.9 307.6,202.9 307.6,202.9 307.6,202.9 307.6,202.9 307.6,202.8 307.6,202.8 307.6,202.8 307.8,202.8 307.8,202.8 307.8,202.8 307.8,202.8 307.8,202.8 307.8,202.8 307.8,202.9 307.8,202.9 307.8,202.9 307.8,202.9 307.8,202.9 307.8,202.9 307.8,202.9 307.8,202.9 307.8,202.9 307.8,202.9 307.8,202.9 307.8,202.9 307.8,202.9 307.8,202.9 307.8,202.9 307.8,203.0 307.8,203.0 307.7,203.0 307.7,203.0 307.7,203.0 307.7,203.0 307.7,203.0 307.7,203.0 307.8,203.0 307.8,203.0 307.8,203.0 307.8,203.1 307.8,203.1 307.8,203.1 307.8,203.1 307.8,203.1 307.8,203.1 307.8,203.1 307.8,203.1 307.8,203.1 307.9,203.1 307.9,203.1 307.9,203.1 307.9,203.1 307.9,203.1 307.9,203.1 307.9,203.2 307.9,203.2 307.9,203.2 307.9,203.2 307.9,203.2 307.9,203.2 307.9,203.2 307.9,203.3 307.9,203.3 307.9,203.3 307.9,203.3 307.9,203.3 308.0,203.3 308.0,203.3 308.0,203.3 308.0,203.3 308.0,203.3 308.0,203.3 308.0,203.3 308.0,203.3 308.0,203.3 308.1,203.3 308.1,203.3 308.1,203.3 308.1,203.3 308.1,203.3 308.1,203.3 308.2,203.3 308.2,203.3 308.2,203.3 308.3,203.3 308.3,203.3 308.3,203.3 308.3,203.3 308.3,203.3 308.3,203.3 308.3,203.3 308.3,203.3 308.3,203.3 308.3,203.3 308.3,203.3 308.3,203.3 308.3,203.3 308.4,203.3 308.4,203.3 308.4,203.3 308.4,203.3 308.4,203.3 308.4,203.3 308.4,203.3 308.5,203.3 308.5,203.3 308.6,203.3 308.6,203.3 308.6,203.3 308.6,203.3 308.7,203.3 308.7,203.3 308.7,203.3 308.7,203.3 308.7,203.3 308.7,203.3 308.7,203.3 308.7,203.3 308.8,203.3 308.8,203.3 308.8,203.3 308.8,203.3 308.8,203.3 308.8,203.3 308.8,203.3 308.8,203.3 308.8,203.3 308.8,203.3 308.8,203.4 308.8,203.4 308.9,203.4 308.9,203.4 308.9,203.5 308.9,203.5 308.9,203.5 308.8,203.5 308.9,203.5 309.0,203.6 309.2,203.7 309.3,203.6 309.3,203.6 309.3,203.6 309.3,203.6 309.4,203.7 309.3,203.7 309.4,203.7 309.4,203.7 309.3,203.7 309.4,203.8 309.4,203.8 309.4,203.8 309.4,203.8 309.5,203.8 309.5,203.8 309.5,203.7 309.5,203.7 309.5,203.7 309.5,203.7 309.5,203.7 309.5,203.7 309.5,203.7 309.5,203.7 309.6,203.7 309.6,203.7 309.6,203.7 309.6,203.7 309.6,203.7 309.6,203.7 309.6,203.7 309.6,203.7 309.6,203.7 309.6,203.7 309.6,203.7 309.6,203.7 309.6,203.7 309.6,203.7 309.7,203.7 309.7,203.7 309.7,203.7 309.7,203.7 309.7,203.7 309.7,203.7 309.7,203.7 309.7,203.7 309.7,203.7 309.7,203.7 309.7,203.7 309.7,203.7 309.7,203.7 309.7,203.7 309.7,203.7 309.7,203.7 309.8,203.7 309.8,203.6 309.8,203.6 309.8,203.5 309.8,203.5 309.8,203.5 309.8,203.5 309.9,203.5 309.9,203.5 309.9,203.5 309.9,203.5 309.9,203.5 309.9,203.5 309.9,203.5 309.9,203.5 309.9,203.5 309.9,203.5 309.9,203.5 309.9,203.5 309.9,203.4 309.9,203.4 309.9,203.4 309.9,203.4 309.9,203.4 309.9,203.4 309.9,203.4 309.9,203.4 309.9,203.4 310.0,203.4 310.0,203.4 310.0,203.4 310.0,203.4 310.0,203.4 310.0,203.4 310.0,203.4 310.0,203.4 310.0,203.4 310.0,203.4 310.0,203.4 309.9,203.4 309.9,203.4 309.9,203.4 309.9,203.3 310.0,203.2 310.0,203.1 310.0,203.0 310.0,203.0 310.0,203.0 310.1,203.0 310.1,203.0 310.1,203.0 310.1,203.0 310.1,203.0 310.1,203.0 310.1,202.9 310.1,203.0 310.2,202.9 310.2,202.9 310.4,203.0 310.4,203.0 310.4,203.0 310.4,202.9 310.5,202.9 310.5,202.9 310.5,202.9 310.5,202.9 310.5,202.9 310.5,202.9 310.5,202.9 310.5,202.9 310.5,202.9 310.5,202.9 310.5,202.9 310.5,202.9 310.5,202.8 310.6,202.8 310.6,202.8 310.6,202.9 310.6,202.8 310.6,202.8 310.6,202.8 310.7,202.9 310.7,202.9 310.7,202.9 310.7,203.0 310.7,203.0 310.7,203.0 310.7,202.9 310.8,202.9 310.8,202.9 310.8,202.9 310.8,202.9 310.8,203.0 310.8,203.0 310.8,203.0 310.8,203.0 310.9,203.0 310.9,203.1 311.0,203.1 311.0,203.1 311.0,203.1 311.0,203.1 311.0,203.1 311.0,203.2 311.0,203.2 311.0,203.2 311.0,203.2 311.0,203.2 311.1,203.3 311.1,203.2 311.1,203.2 311.2,203.3 311.2,203.3 311.2,203.3 311.3,203.4 311.4,203.4 311.4,203.5 311.4,203.5 311.4,203.5 311.4,203.6 311.5,203.6 311.5,203.6 311.5,203.6 311.6,203.6 311.7,203.5 311.7,203.5 311.8,203.5 311.9,203.5 311.9,203.4 311.9,203.4 311.9,203.4 311.9,203.4 311.9,203.4 311.9,203.4 312.0,203.4 312.0,203.4 312.0,203.4 312.0,203.4 312.0,203.4 312.0,203.4 312.1,203.4 312.1,203.4 312.1,203.4 312.1,203.4 312.1,203.5 312.2,203.5 312.2,203.5 312.2,203.6 312.2,203.6 312.3,203.6 312.3,203.6 312.3,203.6 312.3,203.7 312.3,203.7 312.3,203.7 312.4,203.7 312.5,203.7 312.5,203.7 312.5,203.7 312.5,203.7 312.5,203.9 312.5,203.9 312.6,204.0 312.6,204.2 312.6,204.2 312.6,204.2 312.6,204.2 312.6,204.2 312.6,204.2 312.6,204.2 312.5,204.3 312.5,204.3 312.5,204.3 312.5,204.4 312.5,204.4 312.5,204.4 312.5,204.6 312.5,204.8 312.5,204.8 312.5,204.8 312.5,204.8 312.5,204.8 312.5,204.7 312.6,204.7 312.6,204.7 312.6,204.7 312.6,204.7 312.6,204.7 312.6,204.7 312.6,204.7 312.6,204.8 312.6,204.8 312.6,204.8 312.6,204.8 312.6,204.7 312.6,204.7 312.7,204.7 312.7,204.7 312.7,204.7 312.7,204.7 312.8,204.7 312.8,204.6 312.9,204.7 313.0,204.7 313.1,204.7 313.2,204.7 313.3,204.7 313.3,204.7 313.3,204.7 313.3,204.7 313.3,204.7 313.4,204.8 313.4,204.8 313.4,204.8 313.4,204.8 313.4,204.8 313.5,204.8 313.5,204.8 313.5,204.8 313.5,204.8 313.5,204.8 313.5,204.8 313.5,204.8 313.5,204.8 313.5,204.8 313.5,204.8 313.5,204.8 313.5,204.8 313.5,204.8 313.5,204.8 313.5,204.8 313.5,204.8 313.5,204.9 313.5,204.9 313.5,204.9 313.5,205.0 313.5,205.0 313.5,205.0 313.5,205.0 313.6,204.9 313.6,204.9 313.6,204.9 313.7,204.9 313.7,204.9 313.7,204.9 313.7,204.9 313.7,205.0 313.7,205.0 313.8,205.1 313.8,205.0 313.8,205.0 313.8,205.1 313.8,205.1 313.8,205.1 313.8,205.1 313.8,205.1 313.8,205.1 313.8,205.1 313.8,205.2 313.8,205.2 313.8,205.2 313.9,205.1 313.9,205.1 313.9,205.1 313.9,205.1 314.0,205.1 314.0,205.2 314.0,205.2 314.0,205.2 314.0,205.2 314.0,205.2 314.0,205.2 314.0,205.2 314.0,205.2 314.1,205.3 314.1,205.3 314.1,205.3 314.2,205.3 314.2,205.4 314.2,205.4 314.2,205.4 314.2,205.4 314.2,205.4 314.3,205.4 314.3,205.4 314.3,205.4 314.3,205.4 314.3,205.5 314.3,205.5 314.3,205.5 314.3,205.5 314.3,205.6 314.3,205.6 314.2,205.6 314.2,205.7 314.2,205.7 314.2,205.7 314.1,205.8 314.1,205.8 314.1,205.8 314.0,205.9 314.0,205.9 314.0,205.9 314.0,206.0 314.0,206.0 314.0,206.1 314.0,206.1 314.0,206.2 314.0,206.2 314.0,206.2 314.0,206.2 314.0,206.2 314.0,206.2 314.0,206.2 314.0,206.3 313.9,206.3 313.9,206.3 313.9,206.3 313.9,206.3 313.9,206.3 313.9,206.3 313.9,206.3 313.9,206.3 313.9,206.4 314.0,206.4 314.0,206.5 314.0,206.5 314.0,206.6 314.0,206.6 314.1,206.7 314.1,206.7 314.1,206.7 314.1,206.7 314.1,206.7 314.1,206.7 314.2,206.7 314.2,206.7 314.2,206.7 314.3,206.7 314.3,206.7 314.3,206.7 314.3,206.7 314.3,206.7 314.3,206.7 314.3,206.7 314.3,206.7 314.3,206.8 314.3,206.8 314.3,206.8 314.3,206.7 314.3,206.7 314.3,206.7 314.4,206.7 314.4,206.7 314.4,206.7 314.4,206.7 314.5,206.7 314.5,206.7 314.5,206.7 314.6,206.7 314.6,206.7 314.6,206.7 314.6,206.7 314.6,206.7 314.6,206.7 314.7,206.8 314.7,206.8 314.7,206.8 314.7,206.8 314.7,206.8 314.7,206.8 314.7,206.8 314.7,206.8 314.7,206.8 314.8,206.8 314.9,206.8 314.9,206.9 314.9,206.9 314.9,206.9 314.9,206.9 314.9,206.9 315.0,206.9 315.1,206.9 315.2,206.9 315.2,206.9 315.2,206.7 315.3,206.7 315.3,206.7 315.3,206.7 315.3,206.7 315.3,206.8 315.3,206.8 315.3,206.8 315.3,206.9 315.3,207.0 315.3,207.0 315.3,207.0 315.3,207.1 315.4,207.0 315.4,207.0 315.5,207.0 315.5,207.0 315.5,207.0 315.5,207.1 315.5,207.1 315.6,207.1 315.6,207.1 315.6,207.2 315.6,207.2 315.6,207.2 315.6,207.2 315.6,207.2 315.7,207.3 315.9,207.4 315.9,207.4 315.9,207.4 315.9,207.5 316.0,207.5 316.0,207.5 315.9,207.5 315.9,207.5 315.9,207.5 315.9,207.6 315.9,207.6 315.9,207.6 315.9,207.6 315.8,207.6 315.8,207.6 315.8,207.6 315.9,207.7 315.9,207.7 315.8,207.8 315.8,207.8 315.8,207.7 315.8,207.8 315.8,207.8 315.6,207.8 315.6,207.9 315.6,207.9 315.6,207.9 315.4,208.0 315.4,208.0 315.4,208.1 315.3,208.0 315.3,208.0 315.3,208.0 315.3,208.0 315.3,208.2 315.3,208.3 315.3,208.3 315.4,208.3 315.4,208.3 315.4,208.3 315.4,208.3 315.4,208.3 315.4,208.3 315.4,208.4 315.4,208.5 315.4,208.5 315.4,208.5 315.4,208.6 315.4,208.6 315.4,208.7 315.4,208.8 315.4,208.8 315.4,208.8 315.4,208.8 315.4,208.8 315.4,208.8 315.4,208.8 315.4,208.9 315.4,208.9 315.4,208.9 315.4,208.9 315.4,208.9 315.4,208.9 315.4,209.0 315.4,209.0 315.4,209.0 315.4,209.0 315.4,209.0 315.4,209.0 315.4,209.0 315.4,209.0 315.4,209.0 315.4,209.0 315.3,209.0 315.3,209.0 315.3,209.0 315.3,209.0 315.3,209.0 315.3,209.0 315.2,209.0 315.2,209.0 315.2,209.0 315.2,209.1 315.2,209.1 315.2,209.2 315.2,209.2 315.2,209.2 315.2,209.2 315.2,209.2 315.2,209.2 315.2,209.2 315.1,209.3 315.1,209.3 315.1,209.3 315.1,209.3 315.1,209.4 315.1,209.5 315.2,209.5 315.2,209.6 315.2,209.6 315.2,209.6 315.2,209.7 315.2,209.7 315.3,209.7 315.3,209.7 315.3,209.7 315.4,209.8 315.4,209.8 315.4,209.8 315.4,209.8 315.4,209.8 315.4,209.8 315.4,209.9 315.4,209.8 315.4,209.8 315.4,209.8 315.5,209.8 315.5,209.8 315.5,209.8 315.5,209.8 315.6,209.8 315.6,209.8 315.6,209.8 315.6,209.8 315.6,209.8 315.6,209.8 315.6,209.8 315.6,209.8 315.6,209.9 315.6,209.9 315.6,209.9 315.7,210.0 315.6,210.0 315.6,210.0 315.6,210.1 315.6,210.1 315.6,210.1 315.6,210.0 315.6,210.1 315.6,210.1 315.6,210.1 315.6,210.2 315.6,210.2 315.6,210.2 315.6,210.2 315.6,210.2 315.6,210.2 315.6,210.2 315.6,210.2 315.6,210.2 315.6,210.2 315.6,210.2 315.6,210.2 315.6,210.2 315.6,210.2 315.6,210.3 315.6,210.3 315.6,210.3 315.6,210.3 315.6,210.3 315.6,210.3 315.6,210.3 315.6,210.3 315.7,210.3 315.6,210.3 315.6,210.4 315.5,210.4 315.5,210.4 315.4,210.5 315.3,210.5 315.3,210.5 315.3,210.5 315.3,210.5 315.3,210.5 315.3,210.5 315.2,210.6 315.1,210.6 315.0,210.6 315.0,210.7 315.0,210.7 315.0,210.7 314.9,210.7 314.9,210.7 314.9,210.7 314.9,210.7 314.9,210.6 314.9,210.6 314.9,210.6 314.9,210.6 314.9,210.6 314.9,210.6 314.8,210.7 314.8,210.7 314.8,210.7 314.8,210.7 314.7,210.8 314.7,210.8 314.7,210.8 314.7,210.8 314.7,210.8 314.7,210.8 314.8,210.8 314.8,210.8 314.8,210.9 314.8,210.9 314.8,210.9 314.8,210.9 314.8,210.9 314.8,210.9 314.8,210.9 314.8,210.9 314.8,211.0 314.8,211.0 314.8,211.0 314.8,211.0 314.8,211.0 314.8,211.0 314.7,211.0 314.7,211.0 314.7,211.1 314.7,211.1 314.7,211.1 314.7,211.2 314.6,211.2 314.6,211.2 314.6,211.2 314.6,211.2 314.6,211.3 314.5,211.3 314.5,211.3 314.5,211.3 314.4,211.3 314.4,211.3 314.4,211.3 314.4,211.3 314.4,211.3 314.3,211.3 314.3,211.4 314.3,211.4 314.2,211.4 314.2,211.4 314.2,211.4 314.2,211.5 314.2,211.5 314.2,211.5 314.2,211.6 314.2,211.6 314.2,211.6 314.2,211.6 314.2,211.7 314.2,211.7 314.2,211.7 314.2,211.7 314.2,211.7 314.2,211.8 314.3,211.8 314.3,211.8 314.3,211.8 314.3,211.8 314.3,211.9 314.3,211.9 314.3,211.9 314.3,211.9 314.3,212.0 314.3,212.0 314.3,212.0 314.3,212.0 314.3,212.1 314.3,212.1 314.3,212.1 314.3,212.2 314.3,212.2 314.3,212.2 314.3,212.2 314.3,212.3 314.3,212.3 314.4,212.3 314.4,212.3 314.4,212.3 314.4,212.3 314.4,212.3 314.4,212.3 314.4,212.3 314.4,212.3 314.4,212.4 314.4,212.4 314.4,212.4 314.4,212.4 314.5,212.4 314.5,212.4 314.5,212.4 314.6,212.4 314.6,212.4 314.6,212.4 314.6,212.4 314.6,212.4 314.6,212.4 314.7,212.5 314.7,212.5 314.7,212.5 314.7,212.5 314.7,212.5 314.7,212.5 314.8,212.5 314.8,212.5 314.8,212.5 314.8,212.5 314.8,212.5 314.8,212.5 314.9,212.5 314.9,212.6 314.9,212.6 314.9,212.6 314.9,212.6 314.9,212.6 315.0,212.7 315.0,212.7 315.0,212.7 315.0,212.7 315.0,212.7 315.0,212.7 315.0,212.8 315.0,212.8 315.0,212.8 315.0,212.8 315.0,212.9 315.0,212.9 315.0,213.0 315.0,213.0 315.0,213.0 315.0,213.0 315.0,213.0 315.0,213.1 315.0,213.1 315.0,213.1 315.0,213.1 315.0,213.2 315.0,213.2 315.0,213.3 315.0,213.3 315.0,213.4 315.0,213.4 315.0,213.4 315.0,213.4 314.9,213.5 314.9,213.5 314.9,213.5 314.8,213.6 314.8,213.6 314.8,213.6 314.8,213.6 314.8,213.7 314.7,213.7 314.7,213.7 314.7,213.8 314.7,213.8 314.7,213.8 314.8,213.8 314.8,213.8 314.8,213.8 314.8,213.9 314.8,213.9 314.8,213.9 314.8,214.0 314.8,214.0 314.8,214.0 314.8,214.0 314.7,214.0 314.7,214.1 314.7,214.1 314.7,214.1 314.7,214.1 314.7,214.2 314.7,214.2 314.7,214.2 314.7,214.2 314.7,214.2 314.7,214.3 314.7,214.3 314.7,214.3 314.7,214.3 314.6,214.3 314.6,214.4 314.6,214.4 314.6,214.4 314.6,214.4 314.6,214.5 314.6,214.5 314.6,214.6 314.6,214.7 314.6,214.7 314.6,214.9 314.6,215.0 314.6,215.1 314.6,215.1 314.6,215.2 314.6,215.2 314.6,215.3 314.6,215.3 314.6,215.3 314.6,215.4 314.6,215.4 314.6,215.4 314.5,215.5 314.4,215.6 314.3,215.7 314.3,215.8 314.3,215.8 314.3,215.8 314.2,215.9 314.2,216.0 314.2,216.0 313.9,216.0 313.9,216.0 313.9,216.0 313.7,216.0 313.7,216.0 313.7,216.0 313.6,216.1 313.6,216.1 313.6,216.1 313.6,216.1 313.5,216.1 313.5,216.1 313.5,216.1 313.5,216.1 313.5,216.1 313.5,216.1 313.4,216.2 313.4,216.2 313.4,216.2 313.5,216.3 313.6,216.3 313.6,216.4 313.6,216.4 313.6,216.4 313.6,216.4 313.6,216.4 313.6,216.5 313.6,216.5 313.6,216.5 313.6,216.7 313.6,216.7 313.6,216.7 313.6,216.7 313.6,217.0 313.6,217.0 313.6,217.0 313.6,217.0 313.6,217.1 313.6,217.1 313.6,217.1 313.6,217.1 313.6,217.1 313.6,217.1 313.5,217.2 313.5,217.2 313.5,217.2 313.5,217.3 313.4,217.3 313.4,217.4 313.3,217.4 313.3,217.4 313.3,217.4 313.3,217.4 313.2,217.4 313.2,217.4 313.2,217.5 313.2,217.5 313.2,217.5 313.2,217.5 313.2,217.5 313.3,217.5 313.3,217.5 313.3,217.5 313.3,217.5 313.3,217.5 313.3,217.5 313.3,217.6 313.3,217.6 313.3,217.6 313.3,217.6 313.3,217.6 313.3,217.6 313.3,217.7 313.3,217.7 313.3,217.7 313.3,217.7 313.3,217.7 313.3,217.7 313.3,217.7 313.3,217.7 313.3,217.7 313.3,217.7 313.3,217.8 313.3,217.8 313.3,217.8 313.3,217.8 313.3,217.8 313.3,217.8 313.3,217.8 313.4,217.7 313.4,217.7 313.4,217.7 313.4,217.7 313.5,217.7 313.6,217.7 313.6,217.7 313.7,217.7 313.7,217.8 313.8,217.8 313.8,217.8 313.9,217.9 313.9,218.0 313.9,218.0 313.9,218.0 313.9,218.1 314.0,218.1 314.0,218.1 314.0,218.2 314.1,218.2 314.1,218.2 314.2,218.3 314.3,218.3 314.3,218.3 314.3,218.3 314.3,218.3 314.4,218.4 314.4,218.4 314.4,218.5 314.4,218.5 314.4,218.5 314.4,218.5 314.5,218.6 314.5,218.6 314.5,218.6 314.5,218.7 314.5,218.8 314.5,218.8 314.5,218.8 314.5,218.9 314.5,219.0 314.5,219.0 314.5,219.0 314.5,219.1 314.5,219.1 314.4,219.1 314.4,219.2 314.4,219.2 314.4,219.2 314.4,219.3 314.3,219.3 314.3,219.4 314.3,219.4 314.3,219.4 314.3,219.4 314.2,219.4 314.2,219.4 314.2,219.4 314.1,219.4 314.0,219.4 314.0,219.4 314.0,219.4 314.0,219.4 314.0,219.4 313.9,219.5 313.8,219.5 313.8,219.6 313.8,219.6 313.8,219.6 313.8,219.6 313.8,219.6 313.8,219.7 313.8,219.7 313.8,219.7 313.8,219.7 313.9,219.7 313.9,219.7 313.9,219.8 314.0,219.8 314.0,219.8 314.0,219.9 314.0,219.9 314.1,219.9 314.1,219.9 314.1,220.0 314.2,220.0 314.2,220.0 314.2,220.1 314.3,220.1 314.3,220.1 314.3,220.1 314.3,220.1 314.4,220.2 314.5,220.4 314.5,220.4 314.6,220.4 314.6,220.4 314.6,220.5 314.6,220.6 314.6,220.7 314.6,220.7 314.6,220.7 314.6,220.8 314.7,220.8 314.7,220.8 314.7,220.8 314.7,220.8 314.7,220.9 314.8,220.9 314.8,220.9 314.9,221.0 314.9,221.1 314.9,221.2 315.0,221.2 315.0,221.3 315.0,221.4 315.1,221.4 315.1,221.5 315.1,221.5 315.3,221.6 315.3,221.7 315.4,221.7 315.4,221.7 315.5,221.8 315.5,221.8 315.6,221.8 315.7,221.9 315.7,221.9 315.8,221.9 315.8,221.9 315.9,221.9 315.9,221.9 316.0,221.9 316.0,221.9 316.0,221.9 316.0,221.8 316.1,221.8 316.1,221.8 316.1,221.7 316.1,221.7 316.1,221.6 316.1,221.6 316.1,221.6 316.2,221.6 316.2,221.5 316.3,221.5 316.3,221.5 316.4,221.5 316.4,221.5 316.4,221.5 316.5,221.5 316.5,221.5 316.5,221.5 316.6,221.6 316.7,221.7 316.8,221.8 316.9,222.0 316.9,222.0 316.9,222.0 317.0,222.1 317.0,222.2 317.0,222.2 317.0,222.2 317.0,222.2 317.1,222.1 317.1,222.1 317.2,222.1 317.2,222.1 317.2,222.1 317.3,222.1 317.3,222.2 317.3,222.2 317.3,222.3 317.3,222.3 317.3,222.3 317.3,222.3 317.3,222.3 317.3,222.4 317.2,222.4 317.2,222.4 317.2,222.5 317.2,222.5 317.2,222.5 317.2,222.5 317.2,222.5 317.2,222.6 317.2,222.6 317.3,222.7 317.4,222.8 317.4,222.9 317.5,223.0 317.5,223.0 317.5,223.0 317.5,223.1 317.5,223.1 317.5,223.1 317.6,223.2 317.7,223.3 317.7,223.3 317.7,223.3 317.7,223.3 317.7,223.3 317.8,223.3 317.9,223.4 317.9,223.4 317.9,223.4 318.0,223.3 318.0,223.3 318.0,223.3 318.1,223.2 318.1,223.1 318.1,223.1 318.2,223.0 318.2,223.0 318.3,223.0 318.3,223.0 318.3,223.0 318.3,223.0 318.4,223.0 318.4,223.1 318.4,223.1 318.4,223.1 318.5,223.1 318.5,223.1 318.6,223.1 318.6,223.1 318.6,223.1 318.6,223.1 318.7,223.2 318.7,223.2 318.7,223.2 318.7,223.2 318.7,223.2 318.7,223.3 318.7,223.3 318.7,223.3 318.7,223.3 318.7,223.3 318.8,223.4 318.8,223.4 318.8,223.4 318.9,223.5 318.9,223.5 318.9,223.7 318.9,223.7 318.9,223.7 319.0,223.8 319.0,223.9 319.1,224.0 319.1,224.0 319.1,224.0 319.2,224.0 319.3,224.1 319.3,224.1 319.4,224.2 319.4,224.2 319.4,224.2 319.5,224.3 319.5,224.3 319.5,224.3 319.6,224.3 319.6,224.3 319.7,224.3 319.8,224.3 319.9,224.3 319.9,224.3 320.0,224.3 320.1,224.3 320.2,224.3 320.2,224.4 320.3,224.4 320.3,224.4 320.3,224.4 320.4,224.4 320.4,224.4 320.4,224.4 320.4,224.4 320.4,224.5 320.4,224.5 320.4,224.5 320.5,224.5 320.5,224.5 320.5,224.6 320.5,224.6 320.5,224.6 320.5,224.7 320.5,224.7 320.5,224.7 320.5,224.7 320.5,224.8 320.5,224.8 320.5,224.9 320.6,225.1 320.6,225.2 320.7,225.3 320.7,225.3 320.7,225.5 320.7,225.5 320.7,225.5 320.7,225.5 320.7,225.6 320.7,225.6 320.7,225.7 320.7,225.7 320.7,225.7 320.7,225.8 320.7,225.8 320.7,225.9 320.7,225.9 320.6,225.9 320.6,225.9 320.6,225.9 320.6,225.9 320.6,225.9 320.6,225.9 320.5,225.9 320.5,225.9 320.4,225.9 320.3,225.9 320.3,225.9 320.3,225.9 320.2,225.9 320.2,225.9 320.1,225.9 320.1,225.9 320.1,226.0 320.1,226.0 320.1,226.0 320.1,226.0 320.1,226.0 320.1,226.0 320.1,226.0 320.1,226.0 320.1,226.0 320.1,226.1 320.1,226.1 320.1,226.1 320.1,226.2 320.2,226.2 320.2,226.2 320.2,226.2 320.2,226.2 320.2,226.3 320.2,226.3 320.2,226.3 320.2,226.3 320.2,226.3 320.3,226.3 320.3,226.3 320.3,226.3 320.4,226.4 320.5,226.4 320.5,226.4 320.5,226.4 320.5,226.4 320.5,226.4 320.6,226.5 320.6,226.5 320.7,226.5 320.7,226.6 320.7,226.6 320.7,226.6 320.7,226.7 320.7,226.7 320.7,226.7 320.8,226.8 320.8,226.8 320.8,226.8 320.9,226.9 320.9,226.9 320.9,227.0 321.0,227.0 321.0,227.1 321.0,227.1 321.1,227.1 321.1,227.2 321.1,227.2 321.1,227.2 321.1,227.2 321.1,227.3 321.1,227.3 321.1,227.4 321.1,227.5 321.1,227.6 321.1,227.6 321.1,227.7 321.2,227.7 321.2,227.8 321.2,227.9 321.2,227.9 321.2,227.9 321.3,228.0 321.3,228.0 321.3,228.0 321.3,228.1 321.3,228.1 321.3,228.1 321.3,228.2 321.3,228.2 321.4,228.2 321.4,228.2 321.4,228.2 321.4,228.2 321.4,228.2 321.4,228.2 321.4,228.2 321.4,228.3 321.5,228.3 321.6,228.3 321.6,228.3 321.7,228.3 321.8,228.4 321.8,228.4 321.9,228.4 322.1,228.6 322.2,228.6 322.3,228.8 322.5,228.8 322.5,228.9 322.5,228.9 322.5,228.9 322.6,228.9 322.6,228.9 322.6,229.0 322.7,229.0 322.7,229.0 322.7,229.0 322.7,229.1 322.7,229.1 322.7,229.1 322.7,229.1 322.7,229.2 322.7,229.2 322.8,229.2 322.8,229.2 322.8,229.2 322.8,229.2 322.8,229.2 322.8,229.2 322.8,229.2 322.8,229.2 322.8,229.2 322.8,229.2 322.9,229.2 322.9,229.3 322.9,229.3 322.9,229.3 322.9,229.3 322.9,229.3 322.9,229.3 322.9,229.3 322.9,229.3 322.9,229.3 322.8,229.3 322.9,229.3 322.9,229.3 322.9,229.4 322.9,229.4 322.9,229.4 322.8,229.4 322.8,229.4 322.8,229.4 322.8,229.4 322.8,229.4 322.8,229.4 322.8,229.4 322.8,229.4 322.8,229.5 322.8,229.5 322.8,229.5 322.8,229.5 322.8,229.5 322.9,229.5 323.0,229.6 323.0,229.6 323.0,229.6 323.0,229.7 323.0,229.7 323.0,229.8 323.0,229.8 323.1,229.7 323.1,229.7 323.1,229.7 323.1,229.7 323.1,229.8 323.1,229.8 323.2,229.8 323.2,229.8 323.3,229.8 323.4,229.7 323.4,229.8 323.5,229.6 323.5,229.7 323.5,229.7 323.5,229.7 323.5,229.7 323.5,229.7 323.5,229.7 323.5,229.7 323.6,229.7 323.6,229.7 323.6,229.7 323.7,229.8 323.7,229.7 323.7,229.7 323.7,229.7 323.7,229.7 323.7,229.7 323.7,229.7 323.7,229.7 323.7,229.7 323.8,229.7 323.8,229.7 323.8,229.7 323.9,229.8 323.9,229.8 323.9,229.8 324.0,229.8 324.0,229.9 324.0,229.9 324.0,229.9 324.0,229.9 324.0,229.9 324.0,229.9 324.0,229.9 324.1,229.9 324.1,229.9 324.1,229.9 324.1,229.9 324.1,229.9 324.1,229.9 324.2,229.9 324.2,229.9 324.3,229.9 324.3,229.9 324.3,230.0 324.3,230.0 324.3,230.0 324.3,230.0 324.3,229.9 324.3,229.9 324.3,229.9 324.4,229.9 324.4,229.9 324.4,229.9 324.4,229.9 324.5,229.9 324.5,230.0 324.5,230.0 324.5,230.0 324.5,230.0 324.6,230.0 324.6,230.0 324.6,229.9 324.6,229.9 324.6,229.8 324.6,229.8 324.6,229.8 324.6,229.7 324.6,229.7 324.5,229.7 324.5,229.7 324.5,229.7 324.5,229.7 324.5,229.6 324.4,229.6 324.4,229.6 324.3,229.6 324.2,229.6 324.0,229.6 324.0,229.6 323.9,229.6 323.9,229.6 323.9,229.6 323.8,229.6 323.6,229.5 323.5,229.5 323.4,229.5 323.3,229.4 323.3,229.4 323.3,229.4 323.2,229.3 323.2,229.3 323.1,229.1 323.1,229.1 323.1,229.0 323.1,229.0 323.1,228.9 323.1,228.9 323.1,228.9 323.1,228.8 323.2,228.8 323.2,228.7 323.3,228.7 323.3,228.7 323.4,228.6 323.5,228.6 323.5,228.6 323.6,228.5 323.7,228.5 323.9,228.4 324.0,228.3 324.1,228.3 324.1,228.3 324.2,228.3 324.2,228.3 324.3,228.3 324.3,228.3 324.3,228.3 324.3,228.3 324.4,228.3 324.4,228.3 324.5,228.4 324.5,228.4 324.5,228.5 324.5,228.5 324.6,228.5 324.6,228.6 324.6,228.6 324.6,228.7 324.7,228.8 324.8,228.9 324.9,229.0 324.9,229.1 325.0,229.1 325.1,229.2 325.1,229.2 325.1,229.2 325.2,229.2 325.3,229.2 325.4,229.2 325.6,229.2 325.7,229.2 325.8,229.2 325.9,229.2 325.9,229.2 326.0,229.2 326.1,229.1 326.1,229.1 326.1,229.1 326.1,229.0 326.1,228.9 326.1,228.8 326.1,228.7 326.1,228.7 326.1,228.6 326.1,228.6 326.1,228.6 326.0,228.6 326.0,228.6 326.0,228.5 325.9,228.5 325.9,228.5 325.8,228.4 325.8,228.4 325.8,228.4 325.7,228.4 325.7,228.3 325.7,228.3 325.7,228.2 325.7,228.0 325.7,227.9 325.7,227.8 325.8,227.8 325.8,227.7 325.8,227.7 325.9,227.7 325.9,227.7 325.9,227.7 326.0,227.7 326.1,227.7 326.3,227.9 326.6,228.0 326.6,228.1 326.6,228.1 326.6,228.1 326.6,228.2 326.6,228.4 326.6,228.6 326.5,228.7 326.5,228.7 326.5,228.8 326.5,228.8 326.5,228.9 326.6,228.9 326.6,229.0 326.8,229.2 327.0,229.4 327.0,229.4 327.0,229.4 327.1,229.5 327.1,229.5 327.1,229.5 327.2,229.5 327.2,229.5 327.2,229.5 327.3,229.5 327.3,229.5 327.4,229.4 327.5,229.3 327.5,229.3 327.5,229.3 327.6,229.3 327.6,229.3 327.6,229.2 327.7,229.2 327.7,229.2 327.8,229.1 327.8,229.1 327.8,229.1 327.8,229.1 327.8,229.1 327.9,229.0 328.0,229.0 328.0,229.0 328.1,229.0 328.2,228.9 328.4,228.8 328.6,228.7 328.6,228.7 328.7,228.7 328.7,228.6 328.8,228.6 328.9,228.5 328.9,228.4 329.0,228.4 329.1,228.4 329.1,228.3 329.1,228.2 329.2,228.1 329.3,228.1 329.3,228.0 329.4,228.0 329.4,228.0 329.4,227.9 329.5,227.9 329.5,227.8 329.5,227.8 329.6,227.8 329.6,227.8 329.7,227.7 329.8,227.7 329.9,227.7 329.9,227.7 330.0,227.7 330.0,227.7 330.0,227.7 330.1,227.7 330.1,227.7 330.2,227.7 330.3,227.7 330.3,227.8 330.3,227.8 330.4,227.9 330.4,227.9 330.4,227.9 330.4,228.0 330.4,228.0 330.4,228.0 330.5,228.1 330.5,228.2 330.6,228.3 330.6,228.3 330.6,228.3 330.6,228.4 330.7,228.4 330.8,228.5 330.8,228.5 330.8,228.5 330.9,228.5 330.9,228.5 331.0,228.6 331.1,228.6 331.1,228.6 331.2,228.6 331.3,228.6 331.3,228.6 331.4,228.6 331.5,228.6 331.5,228.6 331.6,228.5 331.6,228.5 331.7,228.5 331.8,228.5 331.9,228.5 331.9,228.4 331.9,228.4 332.0,228.3 332.1,228.3 332.1,228.3 332.1,228.2 332.1,228.2 332.2,228.2 332.2,228.1 332.3,228.1 332.3,228.1 332.4,228.0 332.5,227.9 332.6,227.9 332.7,227.8 332.7,227.8 332.7,227.8 332.8,227.8 332.8,227.8 332.8,227.8 332.9,227.7 333.0,227.7 333.0,227.7 333.0,227.7 333.0,227.7 333.1,227.7 333.2,227.7 333.4,227.7 333.4,227.7 333.6,227.6 333.5,227.6 333.5,227.6 333.5,227.6 333.5,227.6 333.6,227.5 333.6,227.5 333.6,227.5 333.6,227.5 333.6,227.5 333.6,227.5 333.6,227.5 333.6,227.5 333.6,227.5 333.6,227.5 333.6,227.5 333.6,227.5 333.6,227.5 333.6,227.5 333.6,227.5 333.6,227.5 333.6,227.5 333.7,227.5 333.8,227.4 333.8,227.4 333.9,227.4 333.9,227.3 333.9,227.3 333.9,227.3 334.0,227.3 334.1,227.2 334.1,227.2 334.1,227.1 334.1,227.1 334.2,227.1 334.2,227.0 334.2,227.0 334.2,227.0 334.3,227.0 334.3,227.0 334.3,226.9 334.3,226.9 334.4,226.9 334.4,226.8 334.4,226.8 334.4,226.8 334.4,226.8 334.4,226.8 334.4,226.8 334.4,226.8 334.5,226.7 334.5,226.7 334.5,226.7 334.5,226.7 334.5,226.7 334.5,226.7 334.5,226.7 334.5,226.6 334.6,226.6 334.6,226.6 334.6,226.6 334.6,226.6 334.6,226.6 334.6,226.6 334.6,226.7 334.6,226.7 334.6,226.7 334.6,226.7 334.6,226.7 334.6,226.6 334.6,226.6 334.7,226.6 334.7,226.6 334.7,226.6 334.7,226.6 334.7,226.6 334.7,226.6 334.7,226.6 334.7,226.5 334.7,226.5 334.7,226.5 334.7,226.5 334.8,226.5 334.8,226.5 334.8,226.5 334.8,226.5 334.8,226.5 334.8,226.5 334.8,226.5 334.9,226.5 334.9,226.5 334.9,226.4 334.9,226.4 335.0,226.4 335.0,226.3 335.0,226.3 335.1,226.2 335.1,226.2 335.1,226.2 335.2,226.2 335.4,226.2 335.4,226.2 335.5,226.3 335.5,226.3 335.5,226.3 335.5,226.3 335.5,226.3 335.5,226.3 335.6,226.4 335.6,226.4 335.6,226.5 335.6,226.6 335.6,226.6 335.6,226.7 335.6,226.7 335.6,226.8 335.6,226.8 335.7,226.8 335.7,226.9 335.8,226.9 335.9,226.9 335.9,227.0 336.0,227.0 336.1,227.1 336.1,227.1 336.2,227.2 336.3,227.2 336.3,227.2 336.3,227.2 336.2,227.2 336.2,227.2 336.2,227.2 336.2,227.2 336.2,227.2 336.2,227.2 336.2,227.2 336.2,227.3 336.1,227.3 336.2,227.5 336.2,227.5 336.2,227.5 336.2,227.5 336.1,227.5 336.1,227.5 336.1,227.5 336.1,227.5 336.1,227.6 336.0,227.6 335.9,227.6 335.9,227.6 335.9,227.7 335.9,227.8 336.0,227.9 336.0,228.0 336.0,228.0 336.0,228.0 336.0,228.1 336.0,228.1 336.0,228.1 336.0,228.1 336.0,228.1 336.0,228.1 336.0,228.1 335.9,228.1 335.9,228.2 335.9,228.2 335.8,228.2 335.8,228.3 335.8,228.3 335.7,228.3 335.7,228.4 335.7,228.4 335.6,228.5 335.6,228.5 335.5,228.6 335.5,228.7 335.5,228.7 335.5,228.7 335.4,228.8 335.4,228.8 335.4,228.9 335.3,229.0 335.2,229.1 335.1,229.1 335.1,229.2 335.1,229.2 335.0,229.3 335.0,229.3 335.0,229.4 335.0,229.5 335.0,229.5 335.0,229.5 335.0,229.5 335.0,229.6 335.0,229.6 335.0,229.6 335.0,229.6 335.0,229.6 335.0,229.7 335.0,229.7 335.0,229.7 335.0,229.7 335.1,229.7 335.1,229.7 335.2,229.7 335.2,229.7 335.3,229.7 335.3,229.7 335.4,229.7 335.4,229.7 335.4,229.7 335.5,229.7 335.5,229.8 335.5,229.8 335.5,229.8 335.7,229.9 335.8,230.0 335.8,230.0 335.9,230.1 336.0,230.2 336.1,230.3 336.1,230.3 336.2,230.3 336.3,230.4 336.5,230.6 336.5,230.6 336.6,230.7 336.6,230.7 336.7,230.8 336.7,230.9 336.8,230.9 336.8,231.0 336.9,231.1 336.9,231.1 336.9,231.2 336.9,231.2 337.0,231.2 337.0,231.2 337.0,231.2 337.1,231.1 337.1,231.1 337.1,231.1 337.1,231.1 337.1,231.1 337.1,231.1 337.1,231.1 337.1,231.2 337.1,231.2 337.2,231.2 337.2,231.2 337.2,231.2 337.2,231.2 337.2,231.2 337.3,231.3 337.3,231.3 337.3,231.3 337.4,231.4 337.4,231.4 337.4,231.4 337.5,231.4 337.5,231.5 337.5,231.5 337.5,231.5 337.5,231.5 337.5,231.5 337.5,231.5 337.6,231.6 337.6,231.6 337.6,231.6 337.6,231.6 337.6,231.6 337.7,231.7 337.8,231.8 337.8,231.9 337.9,231.8 337.9,231.8 337.9,231.8 338.0,231.8 338.0,231.9 338.0,231.9 338.0,231.9 338.0,232.0 338.1,232.0 338.1,232.0 338.1,232.0 338.1,232.0 338.1,232.0 338.1,232.0 338.1,232.0 338.1,232.0 338.1,232.0 338.1,232.1 338.1,232.1 338.2,232.1 338.2,232.1 338.2,232.2 338.2,232.2 338.2,232.2 338.2,232.2 338.2,232.2 338.3,232.3 338.3,232.3 338.3,232.3 338.3,232.4 338.3,232.4 338.4,232.5 338.4,232.5 338.4,232.6 338.4,232.6 338.4,232.6 338.4,232.6 338.4,232.6 338.4,232.6 338.4,232.6 338.4,232.6 338.4,232.7 338.5,232.8 338.5,232.8 338.6,233.0 338.7,233.1 338.8,233.2 338.9,233.3 339.0,233.4 339.1,233.5 339.1,233.6 339.2,233.7 339.2,233.7 339.2,233.7 339.3,233.8 339.3,233.8 339.3,233.8 339.3,233.9 339.3,233.9 339.3,233.9 339.3,234.0 339.3,234.1 339.3,234.2 339.2,234.3 339.2,234.4 339.2,234.5 339.2,234.5 339.2,234.5 339.2,234.6 339.1,234.7 339.1,234.7 339.1,234.8 339.0,234.9 339.0,235.0 338.9,235.0 338.9,235.1 338.9,235.2 338.9,235.2 338.9,235.3 338.9,235.3 338.9,235.3 338.9,235.3 338.9,235.4 338.9,235.4 338.9,235.4 339.0,235.4 339.0,235.4 339.1,235.4 339.1,235.4 339.2,235.5 339.3,235.5 339.5,235.5 339.6,235.6 339.7,235.6 339.7,235.6 339.8,235.6 339.9,235.7 340.0,235.8 340.0,235.8 340.0,235.8 340.0,235.8 340.1,235.8 340.1,235.9 340.1,235.9 340.2,236.0 340.2,236.0 340.2,236.1 340.3,236.1 340.3,236.2 340.4,236.4 340.4,236.4 340.4,236.5 340.4,236.6 340.4,236.7 340.4,236.9 340.4,237.0 340.4,237.0 340.5,237.1 340.5,237.1 340.5,237.1 340.5,237.2 340.5,237.2 340.6,237.2 340.6,237.2 340.7,237.2 340.7,237.2 340.9,237.2 341.0,237.2 341.0,237.2 341.2,237.2 341.2,237.2 341.3,237.1 341.4,237.1 341.4,237.1 341.4,237.1 341.4,237.0 341.4,237.0 341.5,237.0 341.5,237.0 341.5,236.9 341.6,236.9 341.7,236.7 341.7,236.7 341.7,236.6 341.9,236.5 341.9,236.5 341.9,236.4 341.9,236.4 342.0,236.3 342.0,236.2 342.0,236.1 342.1,236.0 342.1,235.9 342.1,235.8 342.2,235.7 342.2,235.7 342.3,235.6 342.3,235.6 342.3,235.6 342.4,235.7 342.5,235.7 342.5,235.7 342.5,235.7 342.5,235.7 342.7,235.7 342.9,235.7 342.9,235.7 343.1,235.8 343.3,235.8 343.5,235.8 343.6,235.9 343.7,235.9 343.9,236.0 344.0,236.1 344.0,236.1 344.1,236.2 344.2,236.2 344.2,236.3 344.2,236.4 344.2,236.4 344.3,236.5 344.3,236.7 344.3,236.8 344.3,236.8 344.3,236.8 344.3,236.8 344.4,236.9 344.4,236.8 344.4,236.8 344.5,236.8 344.5,236.8 344.6,236.8 344.8,236.8 344.9,236.8 345.0,236.8 345.0,236.8 345.0,236.8 345.1,236.8 345.2,236.8 345.3,236.8 345.4,236.7 345.7,236.5 345.8,236.4 345.9,236.4 346.0,236.3 346.0,236.2 346.1,236.0 346.1,235.8 346.1,235.7 346.1,235.5 346.0,235.4 346.0,235.3 346.0,235.2 346.1,235.1 346.1,235.1 346.1,235.1 346.2,235.1 346.2,235.1 346.2,235.0 346.3,234.9 346.4,234.9 346.4,234.8 346.4,234.8 346.5,234.8 346.6,234.7 346.6,234.7 346.7,234.7 346.8,234.7 346.8,234.7 346.9,234.7 346.9,234.7 346.9,234.8 347.0,234.8 347.1,234.8 347.3,234.8 347.4,234.8 347.4,234.8 347.5,234.8 347.5,234.9 347.6,234.9 347.6,234.9 347.6,234.9 347.7,235.0 347.7,235.0 347.8,235.1 347.8,235.2 347.9,235.3 347.9,235.3 348.0,235.3 348.0,235.4 348.0,235.4 348.1,235.4 348.1,235.4 348.2,235.4 348.3,235.4 348.4,235.3 348.4,235.3 348.5,235.2 348.6,235.2 348.6,235.2 348.7,235.1 348.9,235.0 349.0,235.0 349.0,235.0 349.1,234.9 349.3,234.9 349.4,234.8 349.5,234.8 349.5,234.7 349.6,234.7 349.6,234.6 349.7,234.6 349.8,234.4 349.9,234.2 349.9,234.2 350.0,234.1 350.1,234.0 350.2,233.9 350.3,233.9 350.5,233.8 350.6,233.8 350.6,233.7 350.7,233.7 350.7,233.7 350.7,233.7 350.7,233.7 350.8,233.7 350.8,233.8 350.9,233.9 351.0,234.1 351.1,234.3 351.2,234.4 351.3,234.5 351.4,234.7 351.5,234.7 351.5,234.8 351.6,234.8 351.8,234.9 352.1,234.9 352.2,234.9 352.3,234.9 352.4,234.9 352.5,234.9 352.7,234.8 352.8,234.8 352.8,234.8 352.9,234.7 353.1,234.7 353.2,234.7 353.3,234.7 353.4,234.7 353.5,234.7 353.6,234.8 353.7,234.8 353.9,234.9 354.0,235.0 354.4,235.3 354.5,235.4 354.5,235.5 354.6,235.5 354.6,235.6 354.6,235.6 354.6,235.6 354.6,235.6 354.6,235.6 354.6,235.6 354.7,235.6 354.7,235.6 354.7,235.6 354.7,235.6 354.7,235.6 354.7,235.6 354.7,235.7 354.8,235.7 354.8,235.7 354.8,235.8 354.8,235.8 354.8,235.8 354.8,235.9 354.8,235.9 354.8,235.9 354.8,236.0 354.9,236.1 354.9,236.1 354.9,236.1 355.0,236.1 355.0,236.2 355.0,236.2 355.0,236.2 355.0,236.2 355.1,236.2 355.1,236.2 355.1,236.1 355.1,236.1 355.1,236.1 355.1,236.2 355.2,236.2 355.2,236.2 355.2,236.2 355.2,236.2 355.2,236.2 355.3,236.2 355.3,236.2 355.3,236.2 355.3,236.2 355.3,236.2 355.3,236.2 355.3,236.3 355.3,236.3 355.3,236.3 355.3,236.4 355.3,236.4 355.3,236.5 355.3,236.6 355.3,236.7 355.2,236.7 355.2,236.7 355.1,236.8 355.1,236.8 355.1,236.8 355.1,236.8 355.1,236.8 355.0,236.8 355.0,236.8 355.0,236.8 355.0,236.8 355.0,236.8 355.0,236.8 355.0,236.8 355.0,236.8 354.9,236.8 354.9,236.9 354.9,236.9 354.9,236.9 354.9,236.9 354.9,236.9 354.9,236.9 354.8,236.9 354.8,237.0 354.8,237.0 354.8,237.0 354.8,237.0 354.7,237.1 354.7,237.1 354.7,237.1 354.7,237.1 354.7,237.1 354.7,237.1 354.6,237.1 354.6,237.2 354.6,237.2 354.6,237.2 354.6,237.2 354.6,237.2 354.5,237.2 354.5,237.2 354.5,237.2 354.5,237.2 354.5,237.2 354.5,237.2 354.5,237.2 354.4,237.2 354.4,237.3 354.3,237.3 354.3,237.3 354.3,237.3 354.3,237.3 354.3,237.3 354.4,237.3 354.4,237.3 354.4,237.3 354.4,237.3 354.4,237.3 354.4,237.3 354.4,237.3 354.4,237.3 354.3,237.4 354.3,237.4 354.3,237.4 354.3,237.4 354.2,237.4 354.2,237.4 354.1,237.5 354.1,237.5 354.1,237.5 354.1,237.5 354.1,237.6 354.1,237.6 354.1,237.6 354.1,237.6 354.0,237.6 354.0,237.6 354.0,237.6 354.0,237.5 354.0,237.5 354.0,237.5 353.9,237.5 353.9,237.5 353.9,237.5 353.9,237.5 353.9,237.5 353.9,237.5 353.9,237.5 353.9,237.5 353.9,237.5 353.9,237.4 353.9,237.4 353.9,237.4 353.9,237.5 353.9,237.5 353.8,237.5 353.8,237.5 353.8,237.5 353.8,237.5 353.8,237.6 353.8,237.6 353.8,237.6 353.7,237.6 353.7,237.6 353.7,237.7 353.7,237.7 353.7,237.7 353.7,237.7 353.7,237.7 353.7,237.7 353.7,237.7 353.7,237.7 353.7,237.7 353.8,237.7 353.8,237.7 353.8,237.7 353.8,237.7 353.8,237.7 353.8,237.7 353.8,237.7 353.9,237.7 353.9,237.7 353.8,237.8 353.8,237.8 353.8,237.8 353.7,237.9 353.7,237.9 353.7,237.9 353.7,237.9 353.6,238.0 353.6,238.0 353.5,238.1 353.4,238.2 353.3,238.2 353.0,238.4 352.9,238.5 352.9,238.5 352.8,238.5 352.8,238.6 352.8,238.6 352.8,238.6 352.4,238.8 352.3,238.8 352.2,238.8 352.1,238.8 352.0,238.7 352.0,238.7 351.9,238.6 351.8,238.5 351.7,238.4 351.7,238.4 351.6,238.4 351.6,238.4 351.5,238.3 351.5,238.3 351.4,238.2 351.4,238.1 351.4,238.1 351.4,238.1 351.4,238.1 351.4,238.1 351.3,238.1 351.3,238.1 351.3,238.1 351.3,238.1 351.3,238.1 351.3,238.1 351.3,238.1 351.3,238.2 351.4,238.2 351.4,238.2 351.4,238.3 351.4,238.4 351.5,238.4 351.5,238.4 351.5,238.5 351.5,238.5 351.5,238.5 351.5,238.6 351.6,238.6 351.6,238.6 351.6,238.7 351.5,238.7 351.5,238.7 351.5,238.7 351.4,238.7 351.4,238.6 351.4,238.6 351.4,238.6 351.4,238.7 351.3,238.7 351.3,238.7 351.3,238.7 351.3,238.7 351.2,238.6 351.2,238.6 351.2,238.6 351.2,238.6 351.1,238.5 351.1,238.5 351.1,238.5 351.1,238.5 351.1,238.5 351.1,238.5 351.1,238.5 351.1,238.5 351.0,238.5 351.0,238.5 351.0,238.6 351.0,238.6 351.0,238.6 350.9,238.6 350.9,238.7 350.9,238.7 350.9,238.7 350.9,238.7 350.9,238.7 350.9,238.7 350.9,238.7 350.9,238.6 350.9,238.6 351.0,238.6 351.0,238.6 351.0,238.6 351.0,238.6 351.1,238.5 351.1,238.5 351.1,238.5 351.1,238.5 351.1,238.5 351.1,238.5 351.1,238.5 351.1,238.6 351.2,238.6 351.2,238.6 351.2,238.6 351.3,238.7 351.3,238.7 351.3,238.7 351.3,238.7 351.3,238.7 351.3,238.7 351.4,238.7 351.4,238.8 351.3,238.9 351.3,238.9 351.3,239.0 351.3,239.0 351.2,239.0 351.2,239.0 351.2,239.1 351.2,239.1 351.2,239.1 351.2,239.2 351.2,239.2 351.2,239.3 351.1,239.3 351.1,239.3 351.1,239.4 351.1,239.4 351.1,239.4 351.1,239.4 351.1,239.5 351.0,239.5 351.0,239.5 351.0,239.5 351.0,239.5 351.0,239.5 350.9,239.5 350.9,239.4 350.9,239.4 350.9,239.5 350.9,239.5 350.9,239.5 350.9,239.5 350.9,239.6 350.9,239.6 350.8,239.7 350.7,239.7 350.6,239.8 350.6,239.8 350.5,239.9 350.5,239.9 350.5,239.9 350.5,239.9 350.4,239.9 350.4,239.9 350.4,239.9 350.4,239.9 350.4,239.9 350.4,239.8 350.4,239.8 350.4,239.8 350.3,239.8 350.3,239.8 350.3,239.9 350.3,239.9 350.3,239.9 350.3,239.9 350.3,239.9 350.3,239.9 350.3,240.0 350.4,240.0 350.3,240.1 350.3,240.1 350.3,240.1 350.3,240.1 350.3,240.1 350.3,240.1 350.3,240.1 350.2,240.1 350.2,240.1 350.2,240.1 350.2,240.1 350.3,240.2 350.3,240.2 350.3,240.2 350.2,240.3 350.2,240.3 350.2,240.4 350.1,240.4 350.1,240.4 350.1,240.5 350.0,240.5 350.0,240.5 350.0,240.5 350.0,240.5 349.9,240.5 349.9,240.5 349.9,240.5 349.9,240.5 349.9,240.5 349.9,240.5 349.9,240.5 349.9,240.5 349.9,240.5 349.9,240.5 349.9,240.6 349.9,240.6 349.9,240.6 349.9,240.6 349.9,240.7 349.9,240.7 349.9,240.8 349.9,240.8 349.9,240.9 349.8,240.9 349.8,240.9 349.8,240.9 349.7,240.9 349.6,240.9 349.6,240.9 349.6,240.9 349.5,240.9 349.5,240.9 349.5,240.8 349.4,240.8 349.4,240.8 349.4,240.8 349.4,240.8 349.4,240.8 349.3,240.7 349.3,240.7 349.3,240.6 349.2,240.6 349.2,240.5 349.2,240.6 349.1,240.6 349.2,240.7 349.2,240.7 349.2,240.8 349.3,240.9 349.3,240.9 349.4,240.9 349.4,240.9 349.5,241.1 349.5,241.1 349.5,241.1 349.5,241.2 349.5,241.2 349.5,241.2 349.5,241.4 349.6,241.4 349.6,241.4 349.6,241.5 349.6,241.5 349.6,241.5 349.6,241.5 349.6,241.6 349.7,241.6 349.7,241.7 349.7,241.8 349.7,241.8 349.7,241.8 349.7,241.8 349.7,241.9 349.7,241.9 349.7,241.9 349.6,241.9 349.6,241.9 349.6,241.9 349.6,242.0 349.6,242.0 349.6,242.0 349.6,242.0 349.5,242.0 349.5,242.0 349.4,242.0 349.4,242.0 349.3,242.1 349.3,242.1 349.3,242.1 349.3,242.1 349.3,242.1 349.2,242.1 349.2,242.2 349.2,242.2 349.2,242.2 349.2,242.2 349.2,242.2 349.2,242.2 349.1,242.1 349.1,242.1 349.1,242.1 349.1,242.1 349.1,242.1 349.1,242.0 349.1,242.0 349.1,242.0 349.1,242.0 349.1,242.0 349.1,242.0 349.1,242.0 349.1,242.0 349.1,242.0 349.1,242.0 349.1,241.9 349.1,241.9 349.1,241.9 349.1,241.9 349.1,241.9 349.1,241.9 349.1,241.9 349.1,241.9 349.1,241.9 349.1,241.9 349.1,241.9 349.1,241.9 349.1,242.0 349.1,242.0 349.1,242.0 349.1,242.0 349.1,242.0 349.1,242.0 349.1,242.0 349.1,242.0 349.1,242.0 349.1,242.0 349.1,242.1 349.1,242.1 349.1,242.1 349.1,242.1 349.1,242.1 349.1,242.2 349.2,242.2 349.2,242.2 349.2,242.2 349.2,242.2 349.2,242.2 349.2,242.2 349.2,242.2 349.3,242.1 349.3,242.1 349.3,242.1 349.3,242.1 349.3,242.1 349.3,242.1 349.4,242.1 349.5,242.0 349.5,242.0 349.6,242.0 349.6,242.0 349.6,242.0 349.6,242.0 349.6,242.0 349.6,241.9 349.6,241.9 349.7,241.9 349.7,241.9 349.7,241.8 349.7,241.8 349.7,241.8 349.7,241.8 349.8,241.8 349.8,241.9 349.8,241.9 349.8,242.0 349.9,242.0 349.9,242.1 349.8,242.1 349.8,242.2 349.8,242.2 349.7,242.2 349.6,242.3 349.5,242.3 349.5,242.3 349.5,242.3 349.5,242.3 349.4,242.3 349.4,242.3 349.4,242.3 349.4,242.4 349.4,242.4 349.4,242.4 349.5,242.4 349.5,242.4 349.5,242.5 349.5,242.5 349.6,242.5 349.6,242.6 349.6,242.6 349.6,242.6 349.6,242.6 349.6,242.7 349.6,242.7 349.5,242.7 349.4,242.7 349.4,242.6 349.4,242.6 349.3,242.6 349.3,242.6 349.3,242.6 349.2,242.6 349.2,242.6 349.1,242.6 349.0,242.6 349.0,242.6 349.0,242.6 349.0,242.6 349.1,242.6 349.2,242.6 349.3,242.6 349.4,242.6 349.4,242.7 349.5,242.7 349.7,242.7 349.7,242.7 349.7,242.7 349.7,242.8 349.6,242.8 349.6,242.9 349.5,243.1 349.5,243.2 349.5,243.2 349.5,243.3 349.4,243.4 349.4,243.5 349.4,243.5 349.3,243.5 349.3,243.5 349.2,243.6 349.2,243.6 349.2,243.6 349.1,243.6 349.1,243.6 349.0,243.6 349.0,243.6 349.0,243.6 348.9,243.6 348.9,243.5 348.9,243.5 348.9,243.5 348.9,243.6 348.8,243.5 348.8,243.5 348.8,243.5 348.8,243.5 348.8,243.5 348.8,243.5 348.8,243.5 348.8,243.5 348.8,243.5 348.8,243.4 348.8,243.4 348.8,243.4 348.8,243.4 348.8,243.4 348.8,243.3 348.8,243.3 348.8,243.3 348.8,243.2 348.9,243.2 348.9,243.2 348.9,243.2 348.9,243.2 348.8,243.2 348.8,243.2 348.8,243.2 348.8,243.2 348.8,243.2 348.8,243.2 348.9,243.2 348.9,243.2 348.9,243.2 348.8,243.2 348.8,243.2 348.8,243.2 348.8,243.3 348.8,243.3 348.8,243.3 348.8,243.4 348.8,243.4 348.8,243.4 348.8,243.4 348.8,243.4 348.8,243.4 348.8,243.5 348.8,243.5 348.8,243.5 348.8,243.5 348.8,243.5 348.8,243.5 348.8,243.5 348.8,243.5 348.8,243.5 348.8,243.6 348.8,243.6 348.9,243.6 348.9,243.6 348.9,243.6 348.9,243.6 348.9,243.6 348.9,243.6 348.8,243.6 348.8,243.6 348.8,243.6 348.8,243.6 348.8,243.6 348.8,243.6 348.8,243.6 348.8,243.6 348.9,243.6 348.9,243.6 348.9,243.6 348.9,243.6 349.0,243.6 349.1,243.6 349.2,243.6 349.2,243.6 349.2,243.6 349.2,243.6 349.2,243.6 349.2,243.6 349.3,243.6 349.3,243.6 349.4,243.6 349.4,243.6 349.5,243.7 349.5,243.7 349.5,243.8 349.5,243.9 349.4,243.9 349.4,243.9 349.4,244.0 349.3,244.0 349.2,244.0 349.1,244.0 349.0,244.0 348.9,244.0 348.9,244.0 348.9,244.0 348.9,244.1 348.9,244.1 348.9,244.1 349.0,244.1 349.0,244.0 349.2,244.0 349.3,244.0 349.4,244.1 349.4,244.1 349.4,244.2 349.5,244.2 349.5,244.3 349.5,244.3 349.5,244.4 349.6,244.4 349.7,244.5 349.7,244.5 349.8,244.7 349.9,244.8 349.9,244.9 350.0,244.9 350.0,245.0 350.1,245.0 350.1,245.1 350.2,245.2 350.2,245.3 350.3,245.3 350.4,245.3 350.4,245.3 350.4,245.3 350.4,245.3 350.5,245.4 350.5,245.4 350.5,245.4 350.5,245.5 350.5,245.5 350.5,245.5 350.5,245.5 350.5,245.5 350.5,245.6 350.5,245.6 350.5,245.7 350.5,245.7 350.5,245.7 350.5,245.7 350.5,245.7 350.5,245.7 350.5,245.7 350.5,245.7 350.4,245.7 350.4,245.6 350.4,245.6 350.4,245.6 350.3,245.6 350.3,245.6 350.3,245.7 350.2,245.7 350.2,245.7 350.2,245.8 350.2,245.8 350.1,245.8 350.1,245.8 350.0,245.8 350.0,245.8 349.9,245.8 349.9,245.8 349.9,245.8 349.9,245.8 349.8,245.8 349.8,245.8 349.8,245.8 349.8,245.8 349.8,245.8 349.7,245.7 349.7,245.7 349.7,245.7 349.6,245.7 349.5,245.7 349.5,245.7 349.4,245.7 349.4,245.7 349.4,245.7 349.4,245.7 349.4,245.7 349.4,245.7 349.3,245.6 349.3,245.6 349.3,245.5 349.3,245.5 349.3,245.5 349.3,245.5 349.3,245.5 349.3,245.5 349.3,245.5 349.3,245.5 349.3,245.4 349.3,245.4 349.3,245.4 349.3,245.4 349.3,245.4 349.3,245.4 349.3,245.4 349.3,245.4 349.3,245.4 349.3,245.5 349.3,245.5 349.3,245.5 349.3,245.5 349.3,245.5 349.3,245.5 349.3,245.5 349.3,245.5 349.3,245.5 349.4,245.7 349.4,245.7 349.4,245.8 349.4,245.8 349.4,245.7 349.4,245.7 349.4,245.7 349.4,245.7 349.5,245.7 349.5,245.7 349.6,245.7 349.6,245.7 349.7,245.7 349.7,245.7 349.7,245.7 349.7,245.7 349.7,245.8 349.8,245.8 349.8,245.8 349.8,245.9 349.8,245.9 349.9,246.0 349.9,246.0 349.9,246.0 349.9,246.0 349.9,245.9 349.9,245.9 349.9,246.0 350.0,246.0 350.0,246.0 350.0,246.1 350.1,246.1 350.1,246.1 350.1,246.2 350.1,246.2 350.1,246.2 350.1,246.2 350.1,246.2 350.1,246.2 350.2,246.2 350.2,246.2 350.2,246.2 350.2,246.2 350.2,246.3 350.2,246.3 350.2,246.5 350.2,246.5 350.3,246.5 350.3,246.5 350.4,246.5 350.4,246.5 350.4,246.5 350.4,246.5 350.4,246.4 350.5,246.4 350.5,246.4 350.5,246.4 350.5,246.5 350.5,246.5 350.5,246.5 350.5,246.5 350.5,246.5 350.5,246.6 350.5,246.6 350.5,246.7 350.5,246.7 350.5,246.8 350.5,246.9 350.5,246.9 350.5,246.9 350.5,246.9 350.6,247.1 350.6,247.1 350.6,247.2 350.6,247.2 350.6,247.2 350.6,247.2 350.6,247.2 350.6,247.2 350.6,247.2 350.6,247.1 350.6,247.1 350.6,247.1 350.6,247.1 350.6,247.1 350.6,247.1 350.6,247.1 350.6,247.1 350.6,247.1 350.6,247.1 350.6,247.1 350.6,247.1 350.6,247.1 350.6,247.1 350.6,247.1 350.6,247.1 350.6,247.1 350.6,247.1 350.6,247.0 350.6,247.0 350.6,247.0 350.6,247.0 350.6,247.0 350.6,247.0 350.6,247.0 350.6,247.0 350.6,247.0 350.6,247.0 350.6,247.0 350.6,247.0 350.6,247.0 350.6,247.0 350.6,247.0 350.6,247.0 350.6,247.0 350.6,247.0 350.6,247.0 350.6,247.0 350.6,247.0 350.6,247.0 350.6,247.0 350.6,246.9 350.6,246.9 350.6,246.9 350.6,246.9 350.6,246.9 350.6,246.9 350.6,246.9 350.6,246.9 350.6,246.9 350.6,246.9 350.6,246.9 350.6,246.9 350.6,246.9 350.6,246.9 350.6,246.9 350.6,246.9 350.6,246.9 350.6,246.9 350.7,246.9 350.7,246.9 350.7,246.9 350.7,246.9 350.7,246.9 350.7,246.9 350.7,246.9 350.7,246.9 350.8,247.0 350.8,247.0 350.8,247.0 350.8,247.0 350.8,247.1 350.8,247.1 350.8,247.1 350.8,247.1 350.8,247.1 350.8,247.2 350.8,247.2 350.8,247.2 350.8,247.3 350.8,247.3 350.8,247.3 350.8,247.3 350.8,247.3 350.8,247.3 350.8,247.3 350.8,247.3 350.8,247.3 350.8,247.3 350.8,247.3 350.8,247.3 350.8,247.3 350.8,247.3 350.7,247.3 350.7,247.3 350.7,247.3 350.7,247.3 350.7,247.3 350.7,247.3 350.7,247.3 350.7,247.2 350.7,247.2 350.7,247.2 350.7,247.2 350.7,247.2 350.7,247.2 350.7,247.2 350.7,247.2 350.7,247.2 350.7,247.2 350.7,247.2 350.7,247.2 350.7,247.2 350.6,247.2 350.6,247.2 350.6,247.2 350.6,247.2 350.6,247.2 350.6,247.2 350.6,247.2 350.7,247.2 350.7,247.2 350.7,247.2 350.7,247.2 350.7,247.3 350.7,247.4 350.7,247.4 350.7,247.4 350.7,247.5 350.7,247.5 350.7,247.5 350.7,247.5 350.6,247.5 350.6,247.5 350.6,247.5 350.6,247.5 350.5,247.5 350.5,247.5 350.5,247.5 350.5,247.6 350.5,247.6 350.4,247.6 350.4,247.6 350.4,247.6 350.4,247.6 350.4,247.6 350.4,247.6 350.4,247.6 350.4,247.6 350.4,247.6 350.4,247.7 350.4,247.7 350.4,247.7 350.4,247.7 350.4,247.7 350.4,247.8 350.3,248.0 350.4,248.0 350.4,248.0 350.4,248.0 350.5,248.0 350.5,248.0 350.6,248.1 350.6,248.1 350.6,248.1 350.6,248.1 350.6,248.2 350.7,248.2 350.7,248.4 350.8,248.5 350.8,248.5 350.8,248.6 350.8,248.7 350.8,248.8 350.8,248.8 350.8,248.8 350.7,248.8 350.7,248.8 350.6,248.8 350.6,248.8 350.6,248.8 350.5,248.8 350.5,248.8 350.4,248.8 350.4,248.8 350.4,248.8 350.4,248.9 350.3,248.9 350.3,248.9 350.3,248.9 350.3,248.9 350.3,248.9 350.2,248.9 350.2,248.9 350.2,248.9 350.2,249.0 350.2,249.0 350.3,249.0 350.3,249.0 350.3,249.0 350.3,249.0 350.3,249.0 350.3,249.0 350.4,249.0 350.4,248.9 350.4,248.9 350.4,248.9 350.4,248.9 350.4,248.9 350.4,248.9 350.4,248.9 350.4,248.9 350.4,248.9 350.4,248.9 350.4,248.8 350.4,248.8 350.5,248.8 350.5,248.8 350.5,248.8 350.6,248.8 350.6,248.8 350.6,248.9 350.6,248.9 350.5,248.9 350.5,248.9 350.6,248.9 350.6,248.9 350.6,249.0 350.7,249.0 350.7,249.1 350.8,249.2 350.8,249.2 350.8,249.2 350.9,249.3 350.9,249.3 351.0,249.4 351.0,249.4 351.0,249.4 351.0,249.5 351.1,249.6 351.1,249.7 351.1,249.7 351.1,249.7 351.1,249.7 351.0,249.8 350.9,249.8 350.8,249.8 350.8,249.9 350.8,249.9 350.8,249.9 350.8,250.0 350.8,250.0 350.7,250.0 350.7,250.0 350.7,250.0 350.7,250.0 350.7,250.0 350.7,250.0 350.8,250.0 350.8,250.0 350.8,250.0 350.8,250.0 350.8,250.0 350.8,250.1 350.8,250.1 350.7,250.1 350.7,250.1 350.6,250.1 350.6,250.1 350.6,250.2 350.6,250.2 350.6,250.2 350.6,250.2 350.6,250.2 350.7,250.2 350.7,250.2 350.8,250.2 350.8,250.2 350.8,250.1 350.8,250.1 350.8,250.1 350.8,250.1 350.9,250.2 350.9,250.2 350.9,250.2 350.9,250.2 350.9,250.4 350.9,250.4 350.9,250.4 350.9,250.4 350.9,250.4 350.9,250.5 350.9,250.5 350.9,250.6 350.9,250.6 350.9,250.6 350.9,250.7 350.8,250.7 350.8,250.7 350.8,250.7 350.8,250.7 350.8,250.7 350.5,250.7 350.5,250.7 350.5,250.7 350.5,250.7 350.5,250.7 350.5,250.7 350.5,250.7 350.5,250.7 350.6,250.8 350.6,250.8 350.8,250.8 350.8,250.8 351.0,250.8 351.0,250.8 351.0,250.8 351.0,250.8 351.0,250.8 351.0,250.8 351.1,250.8 351.2,250.8 351.2,250.8 351.2,250.8 351.2,250.9 351.2,251.0 351.2,251.0 351.2,251.1 351.2,251.1 351.2,251.1 351.2,251.1 351.2,251.2 351.2,251.2 351.2,251.2 351.1,251.2 351.1,251.2 351.1,251.2 351.1,251.3 351.0,251.3 351.0,251.4 351.0,251.4 351.0,251.4 351.0,251.4 351.0,251.4 351.0,251.4 351.0,251.4 351.0,251.3 351.1,251.3 351.1,251.3 351.1,251.3 351.1,251.3 351.1,251.3 351.1,251.2 351.1,251.2 351.1,251.2 351.1,251.2 351.1,251.2 351.1,251.2 351.1,251.2 351.2,251.2 351.2,251.2 351.2,251.2 351.2,251.2 351.2,251.2 351.2,251.2 351.2,251.2 351.2,251.2 351.2,251.2 351.2,251.2 351.2,251.2 351.2,251.2 351.2,251.2 351.2,251.2 351.3,251.2 351.3,251.2 351.3,251.2 351.3,251.2 351.3,251.2 351.2,251.2 351.2,251.3 351.2,251.3 351.2,251.3 351.2,251.3 351.2,251.3 351.2,251.3 351.2,251.3 351.2,251.3 351.1,251.3 351.1,251.3 351.1,251.3 351.1,251.4 351.1,251.4 351.1,251.4 351.1,251.5 351.1,251.5 351.1,251.5 351.1,251.5 351.1,251.5 351.1,251.5 351.1,251.6 351.1,251.6 351.1,251.6 351.0,251.5 351.0,251.5 351.0,251.5 351.0,251.5 351.0,251.6 351.0,251.6 351.0,251.7 351.0,251.8 351.0,251.8 351.0,251.8 351.0,251.8 351.0,251.8 351.0,251.8 351.0,251.7 351.0,251.7 351.1,251.7 351.1,251.7 351.1,251.7 351.1,251.7 351.1,251.7 351.1,251.6 351.1,251.6 351.1,251.6 351.1,251.6 351.1,251.6 351.1,251.6 351.1,251.6 351.1,251.6 351.1,251.6 351.1,251.6 351.1,251.5 351.1,251.5 351.2,251.5 351.2,251.5 351.2,251.4 351.2,251.4 351.2,251.4 351.2,251.4 351.2,251.3 351.2,251.3 351.2,251.3 351.2,251.3 351.2,251.3 351.3,251.3 351.3,251.2 351.3,251.2 351.3,251.2 351.3,251.2 351.3,251.2 351.3,251.2 351.3,251.1 351.3,251.1 351.3,251.1 351.3,251.1 351.3,251.1 351.3,251.0 351.3,251.0 351.3,251.0 351.3,250.9 351.3,250.9 351.3,250.9 351.3,250.9 351.2,250.8 351.2,250.8 351.2,250.8 351.2,250.8 351.1,250.8 351.1,250.8 351.0,250.8 351.0,250.8 351.0,250.8 351.0,250.7 351.0,250.7 351.0,250.7 351.0,250.6 351.0,250.5 351.0,250.4 351.0,250.4 351.0,250.3 351.0,250.3 351.0,250.3 351.0,250.2 351.0,250.2 350.9,250.1 350.9,250.1 350.9,250.0 350.9,250.0 350.9,250.0 350.9,249.9 350.9,249.9 351.0,249.8 351.1,249.8 351.1,249.8 351.2,249.8 351.2,249.8 351.3,249.9 351.4,249.9 351.6,250.1 351.6,250.2 351.7,250.3 351.7,250.4 351.8,250.4 351.8,250.4 351.8,250.3 351.7,250.3 351.7,250.2 351.6,250.0 351.5,249.9 351.4,249.9 351.4,249.9 351.4,249.8 351.4,249.8 351.4,249.8 351.5,249.9 351.6,250.0 351.8,250.1 351.8,250.1 351.8,250.1 351.8,250.1 351.6,249.9 351.5,249.8 351.4,249.7 351.3,249.7 351.3,249.6 351.2,249.4 351.2,249.3 351.2,249.3 351.2,249.3 351.2,249.3 351.2,249.3 351.3,249.2 351.3,249.3 351.4,249.3 351.4,249.3 351.5,249.3 351.8,249.5 351.8,249.5 351.9,249.6 352.0,249.7 352.0,249.8 352.1,250.1 352.1,250.2 352.2,250.2 352.2,250.3 352.2,250.3 352.2,250.4 352.2,250.4 352.2,250.4 352.2,250.4 352.1,250.5 352.1,250.6 352.1,250.6 352.1,250.7 352.0,250.7 352.0,250.9 351.9,251.1 351.9,251.1 351.8,251.3 351.6,251.6 351.6,251.7 351.6,251.7 351.5,251.9 351.5,252.0 351.4,252.2 351.2,252.5 351.2,252.5 350.9,253.0 350.7,253.4 350.6,253.6 350.5,253.7 350.4,253.8 350.3,253.9 350.2,253.9 350.2,253.9 350.2,253.9 350.2,253.9 350.2,253.9 350.2,253.9 350.1,253.9 350.1,253.8 350.1,253.8 350.1,253.7 350.1,253.7 350.1,253.7 350.1,253.7 350.1,253.6 350.1,253.6 350.1,253.6 350.1,253.6 350.1,253.5 350.1,253.5 350.1,253.5 350.1,253.5 350.1,253.4 350.1,253.4 350.1,253.4 350.1,253.4 350.1,253.3 350.1,253.3 350.1,253.3 350.1,253.3 350.1,253.2 350.1,253.2 350.1,253.2 350.1,253.2 350.2,253.2 350.2,253.2 350.2,253.2 350.3,253.2 350.3,253.2 350.3,253.2 350.3,253.2 350.3,253.1 350.3,253.1 350.4,253.1 350.4,253.1 350.4,253.0 350.5,253.0 350.5,253.0 350.5,253.0 350.5,253.0 350.5,253.0 350.5,253.0 350.5,253.0 350.6,253.0 350.6,253.0 350.6,253.0 350.6,253.0 350.6,253.0 350.6,252.9 350.6,252.9 350.6,252.9 350.6,252.9 350.6,252.9 350.5,252.9 350.5,252.9 350.5,252.9 350.5,252.8 350.5,252.8 350.4,252.8 350.4,252.8 350.4,252.8 350.4,252.7 350.4,252.7 350.4,252.7 350.3,252.6 350.3,252.6 350.3,252.5 350.3,252.5 350.3,252.5 350.3,252.4 350.3,252.4 350.3,252.4 350.3,252.3 350.3,252.3 350.4,252.3 350.4,252.3 350.4,252.3 350.4,252.2 350.5,252.2 350.5,252.2 350.5,252.2 350.5,252.2 350.5,252.2 350.5,252.1 350.5,252.1 350.5,252.1 350.5,252.1 350.5,252.1 350.5,252.1 350.5,252.1 350.5,252.0 350.5,252.0 350.5,252.0 350.5,252.0 350.6,252.0 350.6,252.0 350.6,252.0 350.7,252.0 350.7,252.0 350.7,252.0 350.7,252.0 350.7,251.9 350.7,251.9 350.7,251.9 350.8,251.9 350.8,251.9 350.8,251.9 350.8,251.8 350.8,251.8 350.8,251.8 350.8,251.8 350.8,251.8 350.8,251.8 350.8,251.9 350.8,251.9 350.8,251.9 350.7,251.9 350.7,252.0 350.7,252.0 350.6,252.0 350.6,252.0 350.6,252.0 350.6,252.0 350.5,252.0 350.5,252.0 350.5,251.9 350.5,251.9 350.5,251.9 350.5,251.9 350.5,251.9 350.5,251.8 350.5,251.8 350.5,251.8 350.5,251.8 350.4,251.8 350.4,251.8 350.4,251.8 350.4,251.8 350.5,251.9 350.5,251.9 350.5,251.9 350.5,251.9 350.5,251.9 350.5,251.9 350.5,252.0 350.5,252.0 350.5,252.0 350.5,252.0 350.5,252.0 350.5,252.1 350.5,252.1 350.4,252.1 350.4,252.1 350.4,252.1 350.4,252.2 350.4,252.2 350.4,252.2 350.4,252.2 350.4,252.3 350.3,252.3 350.3,252.3 350.3,252.3 350.3,252.3 350.3,252.3 350.3,252.3 350.3,252.3 350.3,252.4 350.3,252.4 350.3,252.4 350.3,252.4 350.3,252.4 350.3,252.4 350.3,252.4 350.3,252.5 350.3,252.5 350.3,252.5 350.3,252.5 350.3,252.5 350.2,252.5 350.2,252.5 350.2,252.5 350.2,252.5 350.2,252.5 350.2,252.5 350.2,252.5 350.1,252.5 350.1,252.5 350.1,252.5 350.1,252.5 350.1,252.5 350.1,252.5 350.2,252.5 350.2,252.5 350.2,252.5 350.2,252.5 350.2,252.5 350.2,252.5 350.2,252.5 350.2,252.5 350.2,252.5 350.3,252.5 350.3,252.5 350.3,252.5 350.3,252.5 350.3,252.5 350.3,252.5 350.3,252.6 350.3,252.6 350.3,252.6 350.3,252.7 350.3,252.7 350.4,252.7 350.4,252.7 350.4,252.7 350.4,252.7 350.4,252.8 350.4,252.8 350.5,252.8 350.5,252.9 350.5,252.9 350.5,252.9 350.5,252.9 350.5,252.9 350.5,252.9 350.6,253.0 350.6,253.0 350.5,253.0 350.5,253.0 350.5,253.0 350.5,253.0 350.5,253.0 350.5,253.0 350.5,253.0 350.4,253.0 350.4,253.0 350.4,253.0 350.4,253.0 350.4,253.0 350.4,253.0 350.3,253.1 350.3,253.1 350.3,253.1 350.2,253.2 350.2,253.2 350.2,253.2 350.2,253.2 350.1,253.2 350.1,253.2 350.1,253.2 350.0,253.2 350.0,253.2 350.0,253.3 350.0,253.3 350.0,253.4 350.0,253.4 350.0,253.4 350.0,253.5 350.0,253.5 350.0,253.5 350.0,253.6 350.0,253.6 350.1,253.7 350.1,253.7 350.1,253.8 350.1,253.8 350.1,253.9 350.1,253.9 350.1,253.9 350.1,253.9 350.1,253.9 350.2,254.0 350.2,254.0 350.2,254.0 350.2,254.0 350.2,254.0 350.2,254.1 350.2,254.1 350.3,254.1 350.4,254.1 350.4,254.1 350.4,254.2 350.4,254.2 350.4,254.4 350.4,254.4 350.3,254.4 350.3,254.4 350.3,254.4 350.3,254.4 350.1,254.5 350.0,254.5 349.9,254.5 349.8,254.5 349.7,254.5 349.6,254.5 349.5,254.5 349.5,254.5 349.5,254.5 349.5,254.5 349.5,254.5 349.4,254.5 349.4,254.6 349.4,254.6 349.4,254.6 349.4,254.6 349.5,254.5 349.5,254.5 349.5,254.5 349.6,254.5 349.7,254.5 350.0,254.5 350.2,254.5 350.3,254.5 350.3,254.5 350.4,254.5 350.4,254.5 350.5,254.6 350.7,254.7 350.7,254.7 350.8,254.7 350.9,254.7 351.0,254.7 351.1,254.7 351.3,254.8 351.3,254.9 351.4,255.0 351.5,255.1 351.5,255.1 351.5,255.1 351.5,255.2 351.6,255.2 351.7,255.5 351.9,256.0 351.9,256.2 351.9,256.4 351.9,256.5 352.0,256.7 352.1,256.9 352.1,257.1 352.1,257.4 352.1,257.5 352.1,257.6 352.1,257.6 352.0,257.7 351.9,257.7 351.8,257.8 351.8,257.8 351.7,257.8 351.7,257.9 351.7,257.9 351.7,257.9 351.7,257.9 351.6,257.9 351.6,257.9 351.5,257.9 351.5,257.9 351.5,257.9 351.4,257.9 351.4,258.0 351.3,258.0 351.3,258.0 351.3,258.0 351.3,258.0 351.4,258.0 351.4,258.0 351.5,258.0 351.5,258.0 351.6,258.0 351.6,258.0 351.6,258.0 351.7,258.0 351.7,258.0 351.8,257.9 351.9,257.8 352.0,257.8 352.1,257.7 352.1,257.7 352.1,257.7 352.1,257.7 352.1,257.7 352.1,257.8 352.1,257.8 352.1,257.9 352.1,257.9 352.2,258.1 352.2,258.3 352.2,258.5 352.1,258.7 352.1,258.8 352.1,258.9 352.1,258.9 352.1,259.0 352.1,259.1 352.0,259.1 352.0,259.1 352.0,259.1 351.9,259.1 351.9,259.1 351.9,259.0 351.9,259.0 351.8,259.1 351.8,259.2 351.9,259.2 351.9,259.2 351.9,259.2 352.0,259.3 352.0,259.3 352.1,259.3 352.1,259.4 352.1,259.4 352.1,259.4 352.1,259.4 352.1,259.4 352.1,259.5 352.1,259.6 352.1,259.7 352.1,259.8 352.1,259.8 352.1,259.8 352.1,259.8 352.0,259.8 352.0,259.8 352.0,259.8 352.0,259.8 351.9,259.8 351.9,259.8 351.9,259.9 351.9,259.9 351.8,259.9 351.8,259.9 351.7,259.9 351.7,259.9 351.6,260.0 351.6,260.0 351.6,260.0 351.7,260.0 351.7,260.0 351.7,260.0 351.7,260.0 351.8,260.0 351.8,260.0 351.8,259.9 351.9,259.9 351.9,259.9 352.0,259.9 352.0,259.8 352.0,259.8 352.0,259.8 352.1,259.9 352.1,259.9 352.0,259.9 352.0,260.0 352.0,260.0 352.0,260.1 352.0,260.1 352.0,260.2 352.0,260.3 352.0,260.4 352.0,260.6 351.9,260.6 351.9,260.7 351.9,260.8 351.9,260.9 351.8,261.1 351.8,261.3 351.8,261.5 351.7,261.7 351.7,261.8 351.6,262.0 351.6,262.0 351.6,262.3 351.5,262.4 351.5,262.4 351.5,262.5 351.5,262.5 351.4,262.6 351.4,262.9 351.4,263.0 351.4,263.0 351.4,263.0 351.4,263.1 351.3,263.2 351.3,263.3 351.3,263.5 351.3,263.5 351.2,263.7 351.2,263.9 351.2,264.0 351.2,264.1 351.2,264.2 351.2,264.2 351.2,264.2 351.2,264.2 351.2,264.2 351.1,264.3 351.1,264.3 351.1,264.3 351.1,264.3 351.1,264.4 351.1,264.5 351.1,264.5 351.0,264.5 351.0,264.7 351.0,264.8 350.9,264.9 350.8,265.4 350.7,265.8 350.5,266.2 350.4,266.4 350.2,266.5 350.0,266.5 350.0,266.5 350.0,266.4 349.9,266.1 349.9,266.1 349.8,266.1 349.8,266.1 349.8,266.1 349.8,266.1 349.8,266.1 349.8,266.1 349.8,266.1 349.8,266.0 349.8,266.0 349.8,266.0 349.8,266.0 349.8,266.0 349.8,266.0 349.8,266.0 349.8,265.9 349.8,265.9 349.8,265.9 349.8,265.9 349.8,265.8 349.7,265.8 349.7,265.8 349.7,265.8 349.7,265.8 349.7,265.7 349.7,265.7 349.7,265.7 349.7,265.7 349.7,265.7 349.7,265.7 349.7,265.7 349.7,265.7 349.7,265.6 349.6,265.6 349.6,265.6 349.6,265.6 349.6,265.6 349.6,265.6 349.6,265.6 349.6,265.6 349.6,265.6 349.6,265.5 349.6,265.5 349.6,265.5 349.6,265.5 349.6,265.5 349.6,265.5 349.6,265.5 349.6,265.5 349.5,265.5 349.5,265.5 349.5,265.5 349.5,265.4 349.5,265.4 349.5,265.4 349.5,265.4 349.5,265.4 349.5,265.4 349.5,265.3 349.5,265.3 349.5,265.3 349.5,265.3 349.5,265.3 349.5,265.3 349.5,265.3 349.5,265.3 349.5,265.3 349.4,265.2 349.4,265.2 349.4,265.2 349.4,265.2 349.4,265.2 349.4,265.2 349.4,265.2 349.4,265.2 349.4,265.2 349.4,265.1 349.4,265.1 349.4,265.1 349.4,265.1 349.3,265.1 349.3,265.0 349.3,265.0 349.3,265.0 349.3,265.0 349.3,265.0 349.3,265.0 349.3,265.0 349.3,265.0 349.3,265.0 349.3,265.0 349.3,265.0 349.3,265.0 349.3,264.9 349.2,264.9 349.2,264.9 349.2,264.9 349.2,264.9 349.2,264.9 349.2,264.9 349.2,264.9 349.2,264.9 349.2,264.9 349.2,264.9 349.2,264.8 349.2,264.8 349.2,264.8 349.2,264.8 349.2,264.8 349.2,264.8 349.2,264.8 349.2,264.8 349.2,264.8 349.1,264.8 349.1,264.8 349.1,264.8 349.1,264.8 349.1,264.8 349.1,264.8 349.1,264.8 349.1,264.8 349.1,264.8 349.1,264.8 349.1,264.7 349.1,264.7 349.1,264.7 349.1,264.7 349.0,264.7 349.0,264.7 349.0,264.7 349.0,264.7 348.8,264.9 348.7,264.8 348.7,264.8 348.6,264.7 348.5,264.6 348.4,264.5 348.2,264.4 348.2,264.4 348.1,264.2 348.0,264.2 347.9,264.1 347.8,264.0 347.7,263.9 347.5,263.6 347.4,263.5 347.3,263.4 347.3,263.3 347.2,263.2 346.8,262.9 346.7,262.8 346.6,262.7 346.6,262.6 346.4,262.5 346.2,262.3 346.1,262.2 346.1,262.2 346.1,262.2 346.0,262.1 345.9,262.0 345.8,261.9 345.7,261.8 345.7,261.8 345.7,261.7 345.6,261.7 345.5,261.4 345.4,261.3 345.3,261.2 345.3,261.1 345.2,261.0 345.1,261.0 345.1,260.9 345.1,260.9 345.0,260.9 345.0,260.9 345.0,260.9 344.9,260.9 344.9,260.9 344.8,260.9 344.8,260.9 344.7,260.9 344.6,261.0 344.5,261.0 344.4,261.1 344.3,261.2 344.3,261.2 344.1,261.3 344.0,261.4 343.9,261.4 343.8,261.5 343.8,261.5 343.7,261.5 343.6,261.5 343.5,261.5 343.4,261.5 343.3,261.5 342.9,261.5 342.9,261.5 342.8,261.5 342.8,261.5 342.7,261.5 342.6,261.5 342.5,261.6 342.4,261.7 342.4,261.7 342.3,261.8 342.2,261.9 342.2,262.0 342.0,262.3 341.8,262.4 341.7,262.5 341.5,262.7 341.3,262.8 341.1,262.9 340.9,263.0 340.6,263.1 340.5,263.1 340.4,263.1 340.3,263.1 340.2,263.1 339.9,263.2 339.7,263.2 339.4,263.1 339.2,263.1 339.0,263.1 338.8,263.0 338.5,262.9 338.2,262.8 338.1,262.7 337.9,262.6 337.9,262.6 337.7,262.5 337.5,262.3 337.5,262.3 337.4,262.2 337.2,262.0 337.1,261.9 337.0,261.7 336.7,261.4 336.7,261.3 336.7,261.3 336.5,261.1 336.4,261.0 336.1,260.6 336.1,260.5 336.0,260.4 335.9,260.2 335.7,259.9 335.6,259.7 335.4,259.5 335.3,259.4 335.1,259.2 334.8,259.0 334.8,259.0 334.7,258.9 334.6,258.9 334.6,258.8 334.4,258.8 334.3,258.7 334.0,258.6 333.8,258.5 333.7,258.5 333.5,258.5 333.1,258.5 333.0,258.5 332.9,258.5 332.9,258.5 332.9,258.5 332.6,258.4 332.2,258.2 332.2,258.2 332.0,258.2 331.9,258.1 331.7,257.9 331.6,257.8 331.5,257.8 331.4,257.7 331.3,257.5 331.2,257.5 331.1,257.3 331.0,257.1 330.9,257.0 330.8,256.8 330.7,256.6 330.7,256.5 330.7,256.3 330.6,256.2 330.6,256.1 330.5,256.1 330.5,256.1 330.5,256.0 330.5,256.0 330.5,256.0 330.5,255.9 330.4,255.9 330.3,255.8 330.3,255.8 330.2,255.8 330.1,255.8 329.9,255.8 329.9,255.8 329.7,256.0 329.7,256.0 329.6,256.1 329.4,256.4 329.3,256.4 329.0,256.8 328.9,256.9 328.8,257.0 328.8,257.1 328.7,257.1 328.6,257.2 328.5,257.2 328.5,257.2 328.1,257.5 327.7,257.8 327.7,257.8 327.7,257.9 327.5,258.0 327.5,258.0 327.4,258.2 327.1,258.4 327.1,258.5 327.0,258.6 326.9,258.7 326.8,258.8 326.6,258.9 326.5,259.0 326.4,259.0 326.4,259.0 326.4,259.1 326.3,259.1 326.0,259.3 325.9,259.5 325.7,259.5 325.7,259.5 325.5,259.6 325.5,259.6 325.4,259.7 325.1,259.9 324.9,260.0 324.8,260.0 324.7,260.0 324.7,260.0 324.6,260.0 324.5,260.0 324.4,260.0 324.4,260.0 324.3,260.0 324.2,260.0 324.2,260.0 324.1,259.9 324.0,259.9 324.0,259.9 323.9,259.8 323.8,259.7 323.7,259.6 323.7,259.6 323.7,259.6 323.7,259.6 323.6,259.5 323.6,259.5 323.6,259.5 323.6,259.5 323.6,259.4 323.5,259.4 323.5,259.3 323.5,259.2 323.4,259.1 323.4,258.9 323.3,258.9 323.3,258.8 323.3,258.8 323.3,258.7 323.3,258.6 323.3,258.5 323.3,258.4 323.3,258.3 323.3,258.2 323.3,258.2 323.3,258.0 323.4,257.8 323.4,257.8 323.4,257.7 323.4,257.6 323.5,257.5 323.5,257.5 323.6,257.4 323.6,257.4 323.7,257.3 323.7,257.3 323.7,257.2 323.8,257.2 323.9,257.1 324.1,256.9 324.2,256.8 324.3,256.7 324.3,256.7 324.4,256.6 324.5,256.6 324.6,256.5 324.7,256.4 324.7,256.4 324.8,256.3 325.0,256.2 325.0,256.2 325.1,256.1 325.2,256.0 325.2,256.0 325.2,256.0 325.3,256.0 325.3,256.0 325.4,255.9 325.5,255.8 325.7,255.7 325.7,255.6 325.9,255.4 325.9,255.3 326.0,255.1 326.0,254.9 326.0,254.8 326.0,254.7 326.0,254.6 326.0,254.5 325.9,254.4 325.9,254.3 325.9,254.2 325.8,254.0 325.7,253.9 325.7,253.8 325.6,253.7 325.4,253.6 325.3,253.6 325.1,253.6 325.0,253.5 325.0,253.5 324.7,253.5 324.5,253.4 324.2,253.3 324.0,253.3 323.8,253.3 323.8,253.3 323.5,253.3 323.5,253.3 323.3,253.4 323.0,253.4 323.0,253.4 322.9,253.4 322.8,253.4 322.4,253.4 322.0,253.4 321.8,253.3 321.4,253.2 321.3,253.2 320.9,253.0 320.7,252.8 320.5,252.6 320.4,252.6 320.4,252.5 320.2,252.3 320.2,252.2 320.2,252.2 320.1,252.0 319.9,251.8 319.9,251.6 319.9,251.5 320.0,251.3 320.0,251.2 320.2,250.9 320.2,250.9 320.4,250.5 320.6,250.3 320.7,250.2 320.7,250.2 320.8,250.0 321.0,249.5 321.0,249.4 321.0,249.4 321.1,249.2 321.1,249.1 321.2,249.0 321.2,249.0 321.2,248.8 321.2,248.7 321.2,248.6 321.2,248.4 321.1,248.1 321.0,248.0 321.0,247.8 320.8,247.6 320.6,247.5 320.3,247.3 319.8,247.2 319.3,247.1 319.2,247.1 319.1,247.1 319.0,247.1 319.0,247.1 318.8,247.2 318.7,247.2 318.5,247.2 318.4,247.2 318.3,247.1 318.1,246.9 318.0,246.9 317.9,246.8 317.9,246.7 317.8,246.7 317.7,246.4 317.6,246.1 317.5,245.8 317.5,245.6 317.5,245.5 317.5,245.5 317.5,245.4 317.5,245.4 317.5,245.3 317.5,244.9 317.6,244.6 317.6,244.4 317.6,244.1 317.6,243.9 317.6,243.8 317.6,243.7 317.5,243.2 317.4,242.9 317.4,242.9 317.4,242.7 317.2,242.5 317.2,242.2 317.1,241.8 317.1,241.7 317.1,241.6 317.0,241.4 316.9,241.2 316.9,241.2 316.8,241.0 316.8,240.9 316.7,240.8 316.6,240.6 316.5,240.5 316.5,240.5 316.4,240.4 316.3,240.4 316.2,240.3 316.1,240.2 316.0,240.2 315.9,240.1 315.8,240.0 315.5,239.9 315.2,239.8 314.6,239.6 314.5,239.6 314.5,239.6 314.3,239.5 314.2,239.4 314.0,239.3 313.9,239.3 313.9,239.3 313.9,239.2 313.8,239.1 313.8,238.9 313.7,238.8 313.7,238.6 313.7,238.5 313.7,238.4 313.7,238.3 313.7,237.8 313.7,237.4 313.6,237.0 313.6,236.9 313.6,236.9 313.6,236.8 313.6,236.7 313.6,236.7 313.6,236.6 313.6,236.5 313.5,236.4 313.5,236.4 313.5,236.3 313.5,236.2 313.4,236.1 313.4,236.1 313.4,236.0 313.4,236.0 313.4,236.0 313.4,236.0 313.4,236.0 313.4,236.0 313.4,235.9 313.4,235.9 313.4,235.9 313.4,235.9 313.4,235.9 313.4,235.9 313.4,235.9 313.3,235.9 313.3,235.9 313.3,235.9 313.3,235.9 313.3,235.9 313.3,235.9 313.3,235.9 313.3,235.9 313.3,235.9 313.3,235.8 313.3,235.8 313.3,235.8 313.3,235.8 313.3,235.8 313.3,235.8 313.3,235.8 313.3,235.8 313.3,235.8 313.3,235.8 313.3,235.7 313.3,235.7 313.3,235.7 313.3,235.7 313.3,235.7 313.3,235.7 313.3,235.7 313.3,235.7 313.3,235.7 313.3,235.7 313.2,235.7 313.2,235.7 313.2,235.7 313.2,235.7 313.2,235.7 313.2,235.7 313.2,235.7 313.2,235.7 313.2,235.7 313.2,235.7 313.2,235.7 313.2,235.7 313.2,235.7 313.2,235.7 313.2,235.7 313.2,235.7 313.2,235.7 313.2,235.7 313.2,235.7 313.2,235.7 313.2,235.7 313.2,235.6 313.2,235.6 313.2,235.6 313.2,235.6 313.2,235.6 313.2,235.6 313.2,235.6 313.2,235.6 313.2,235.6 313.1,235.6 313.1,235.6 313.1,235.6 313.1,235.6 313.1,235.6 313.1,235.6 313.1,235.6 313.1,235.6 313.1,235.6 313.0,235.6 313.0,235.5 313.0,235.5 313.0,235.6 313.0,235.6 312.9,235.6 312.8,235.6 312.8,235.6 312.1,235.6 312.0,235.6 311.9,235.5 311.7,235.5 311.6,235.5 311.0,235.7 311.0,235.7 310.9,235.8 310.7,235.9 310.4,236.1 310.3,236.2 310.1,236.4 310.1,236.5 Z M 350.9,250.7 350.9,250.6 350.9,250.6 350.9,250.6 350.9,250.5 350.9,250.5 350.9,250.5 350.9,250.4 350.9,250.4 350.9,250.4 350.9,250.4 350.9,250.3 350.9,250.3 350.9,250.3 350.9,250.2 350.9,250.2 350.9,250.3 350.9,250.3 351.0,250.3 351.0,250.3 351.0,250.3 351.0,250.3 351.0,250.4 351.0,250.5 351.0,250.5 351.0,250.5 351.0,250.6 351.0,250.6 351.0,250.7 351.0,250.7 351.0,250.7 351.0,250.8 351.0,250.8 351.0,250.8 351.0,250.8 350.9,250.8 350.9,250.8 350.9,250.8 350.9,250.8 350.9,250.7 350.9,250.7 Z M 350.7,247.6 350.7,247.5 350.7,247.5 350.7,247.5 350.7,247.5 350.7,247.5 350.7,247.6 350.7,247.6 350.7,247.6 350.7,247.6 350.7,247.6 350.7,247.6 350.7,247.6 350.7,247.6 350.7,247.6 350.7,247.6 350.8,247.6 350.8,247.6 350.8,247.6 350.8,247.6 350.8,247.6 350.8,247.6 350.8,247.6 350.7,247.6 350.7,247.7 350.7,247.7 350.7,247.7 350.7,247.7 350.6,247.8 350.6,247.8 350.6,247.7 350.6,247.7 350.6,247.7 350.5,247.7 350.5,247.7 350.5,247.7 350.4,247.7 350.4,247.7 350.4,247.7 350.4,247.6 350.4,247.6 350.4,247.6 350.4,247.6 350.4,247.6 350.4,247.6 350.4,247.6 350.4,247.6 350.5,247.6 350.5,247.6 350.5,247.6 350.5,247.6 350.5,247.6 350.5,247.6 350.5,247.6 350.5,247.6 350.5,247.6 350.5,247.5 350.6,247.5 350.6,247.5 350.6,247.5 350.6,247.5 350.6,247.5 350.6,247.6 350.6,247.6 350.6,247.6 350.6,247.6 350.6,247.6 350.6,247.6 350.6,247.6 350.6,247.6 350.6,247.6 350.6,247.6 350.7,247.6 350.7,247.6 350.7,247.6 350.7,247.6 350.7,247.6 350.7,247.6 Z M 350.7,247.6 350.7,247.5 350.7,247.5 350.7,247.5 350.7,247.5 350.7,247.5 350.7,247.5 350.7,247.5 350.7,247.5 350.7,247.5 350.7,247.5 350.7,247.5 350.7,247.5 350.7,247.5 350.7,247.5 350.7,247.5 350.7,247.5 350.7,247.5 350.7,247.5 350.7,247.5 350.7,247.5 350.7,247.5 350.7,247.5 350.7,247.4 350.7,247.4 350.7,247.4 350.7,247.4 350.7,247.4 350.7,247.4 350.7,247.4 350.7,247.3 350.7,247.3 350.7,247.3 350.7,247.3 350.7,247.3 350.7,247.3 350.7,247.3 350.7,247.3 350.7,247.3 350.7,247.3 350.7,247.3 350.7,247.3 350.8,247.3 350.8,247.3 350.8,247.3 350.8,247.3 350.8,247.3 350.8,247.3 350.8,247.3 350.8,247.3 350.8,247.3 350.8,247.4 350.8,247.5 350.8,247.5 350.8,247.5 350.8,247.6 350.8,247.6 350.8,247.6 350.8,247.6 350.8,247.6 350.8,247.6 350.7,247.6 Z M 350.7,246.4 350.7,246.4 350.7,246.4 350.7,246.5 350.7,246.5 350.7,246.5 350.7,246.5 350.7,246.5 350.7,246.5 350.7,246.5 350.7,246.6 350.7,246.6 350.7,246.7 350.7,246.7 350.7,246.7 350.7,246.7 350.7,246.7 350.7,246.7 350.7,246.7 350.7,246.8 350.7,246.8 350.7,246.8 350.7,246.8 350.7,246.8 350.7,246.8 350.7,246.8 350.7,246.8 350.7,246.8 350.7,246.8 350.7,246.8 350.7,246.8 350.7,246.9 350.7,246.9 350.7,246.9 350.7,246.9 350.7,246.9 350.7,246.9 350.7,246.9 350.7,246.9 350.6,246.9 350.6,246.9 350.6,246.9 350.6,246.9 350.6,246.9 350.5,246.9 350.5,246.9 350.5,246.9 350.5,246.9 350.5,246.9 350.5,246.9 350.5,246.9 350.5,246.9 350.6,246.9 350.6,246.9 350.6,246.9 350.5,246.9 350.5,246.9 350.5,246.8 350.5,246.8 350.5,246.8 350.5,246.8 350.5,246.8 350.5,246.8 350.5,246.8 350.5,246.8 350.5,246.8 350.5,246.8 350.5,246.7 350.5,246.7 350.5,246.7 350.5,246.7 350.5,246.7 350.5,246.7 350.5,246.7 350.5,246.7 350.5,246.7 350.5,246.7 350.5,246.7 350.5,246.7 350.5,246.7 350.5,246.7 350.5,246.6 350.5,246.6 350.5,246.6 350.5,246.6 350.5,246.6 350.5,246.6 350.5,246.6 350.5,246.6 350.5,246.6 350.5,246.6 350.5,246.6 350.5,246.6 350.5,246.6 350.5,246.6 350.5,246.6 350.5,246.6 350.5,246.5 350.5,246.5 350.5,246.5 350.5,246.5 350.5,246.5 350.5,246.5 350.5,246.5 350.5,246.5 350.5,246.5 350.5,246.5 350.5,246.5 350.5,246.4 350.5,246.4 350.5,246.4 350.5,246.4 350.5,246.4 350.5,246.4 350.5,246.4 350.5,246.4 350.5,246.4 350.5,246.4 350.5,246.4 350.6,246.4 350.6,246.4 350.6,246.4 350.6,246.4 350.6,246.4 350.6,246.4 350.6,246.4 350.6,246.4 350.6,246.4 350.6,246.4 350.6,246.4 350.6,246.4 350.6,246.4 350.6,246.4 350.7,246.4 350.7,246.4 350.7,246.4 Z M 350.4,246.2 350.4,246.2 350.5,246.2 350.5,246.2 350.5,246.2 350.5,246.2 350.5,246.2 350.5,246.2 350.5,246.2 350.5,246.2 350.6,246.2 350.6,246.3 350.6,246.3 350.6,246.3 350.6,246.3 350.6,246.3 350.6,246.3 350.6,246.2 350.6,246.2 350.7,246.2 350.7,246.2 350.7,246.2 350.7,246.3 350.7,246.3 350.7,246.3 350.7,246.3 350.7,246.3 350.7,246.4 350.7,246.4 350.7,246.4 350.7,246.4 350.6,246.4 350.6,246.4 350.6,246.4 350.6,246.4 350.6,246.4 350.6,246.4 350.6,246.4 350.6,246.4 350.5,246.4 350.5,246.4 350.5,246.4 350.5,246.4 350.5,246.4 350.5,246.4 350.5,246.4 350.5,246.4 350.5,246.4 350.5,246.4 350.5,246.4 350.5,246.4 350.5,246.4 350.5,246.4 350.5,246.4 350.4,246.4 350.4,246.4 350.4,246.4 350.4,246.4 350.4,246.4 350.4,246.5 350.3,246.5 350.3,246.5 350.3,246.5 350.3,246.5 350.3,246.5 350.3,246.5 350.3,246.5 350.3,246.5 350.3,246.5 350.3,246.4 350.3,246.4 350.3,246.4 350.2,246.4 350.2,246.4 350.2,246.4 350.2,246.4 350.2,246.4 350.2,246.3 350.2,246.3 350.2,246.3 350.2,246.3 350.2,246.3 350.2,246.3 350.2,246.3 350.2,246.3 350.2,246.3 350.2,246.3 350.2,246.3 350.2,246.3 350.2,246.3 350.2,246.3 350.2,246.3 350.2,246.3 350.2,246.3 350.2,246.3 350.2,246.3 350.2,246.3 350.2,246.3 350.2,246.3 350.2,246.3 350.2,246.2 350.2,246.2 350.2,246.2 350.2,246.2 350.2,246.2 350.2,246.2 350.2,246.2 350.2,246.2 350.2,246.2 350.2,246.2 350.2,246.2 350.1,246.2 350.1,246.2 350.1,246.2 350.1,246.2 350.1,246.2 350.1,246.2 350.1,246.2 350.1,246.2 350.1,246.2 350.1,246.2 350.1,246.2 350.1,246.2 350.1,246.2 350.2,246.2 350.2,246.2 350.2,246.2 350.2,246.2 350.2,246.2 350.2,246.2 350.2,246.2 350.2,246.2 350.2,246.2 350.2,246.2 350.2,246.2 350.3,246.2 350.3,246.2 350.3,246.2 350.3,246.2 350.3,246.2 350.3,246.2 350.3,246.2 350.3,246.2 350.3,246.2 350.3,246.2 350.3,246.2 350.3,246.2 350.4,246.2 350.4,246.2 350.4,246.2 350.4,246.2 350.4,246.2 350.4,246.2 350.4,246.2 350.4,246.2 350.4,246.2 Z M 350.6,246.2 350.6,246.2 350.6,246.2 350.5,246.2 350.5,246.2 350.5,246.2 350.5,246.2 350.5,246.2 350.5,246.2 350.4,246.2 350.4,246.2 350.4,246.2 350.4,246.2 350.4,246.2 350.4,246.2 350.4,246.2 350.3,246.2 350.3,246.2 350.3,246.2 350.3,246.2 350.3,246.2 350.2,246.2 350.2,246.2 350.2,246.2 350.2,246.2 350.2,246.2 350.2,246.2 350.1,246.2 350.1,246.2 350.1,246.2 350.1,246.2 350.1,246.1 350.1,246.1 350.1,246.1 350.1,246.1 350.1,246.1 350.1,246.1 350.1,246.1 350.1,246.1 350.1,246.1 350.1,246.1 350.0,246.1 350.0,246.1 350.0,246.0 350.0,246.0 350.0,246.0 350.0,246.0 350.0,246.0 350.1,246.0 350.1,246.0 350.1,246.0 350.1,246.0 350.1,245.9 350.1,245.9 350.1,245.9 350.2,245.9 350.2,245.9 350.2,245.9 350.2,245.9 350.2,245.9 350.3,245.9 350.3,245.8 350.3,245.8 350.3,245.8 350.3,245.8 350.3,245.7 350.3,245.7 350.3,245.7 350.3,245.7 350.3,245.7 350.3,245.7 350.3,245.7 350.3,245.7 350.3,245.6 350.4,245.6 350.4,245.6 350.4,245.6 350.4,245.6 350.4,245.7 350.4,245.7 350.4,245.7 350.5,245.7 350.5,245.7 350.5,245.7 350.5,245.7 350.5,245.8 350.5,245.8 350.6,245.8 350.6,245.9 350.6,246.0 350.6,246.0 350.6,246.1 350.7,246.2 350.7,246.2 350.6,246.2 350.6,246.2 350.6,246.2 350.6,246.2 350.6,246.2 Z M 350.1,245.9 350.1,246.0 350.1,246.0 350.0,246.0 350.0,246.0 350.0,246.0 350.0,246.0 350.0,246.0 350.0,246.0 350.0,246.0 350.0,246.0 350.0,246.0 350.0,246.0 350.0,246.0 350.0,246.0 350.0,245.9 349.9,245.9 349.9,245.9 349.9,245.9 349.9,245.9 349.9,245.9 349.9,245.9 349.9,245.9 349.9,245.9 349.9,245.9 349.9,245.9 349.9,245.9 349.9,245.9 349.9,245.9 349.8,245.9 349.8,245.9 349.8,245.9 349.8,245.9 349.8,245.9 349.8,245.8 349.8,245.8 349.8,245.8 349.9,245.8 349.9,245.8 349.9,245.8 349.9,245.8 349.9,245.8 349.9,245.8 349.9,245.8 349.9,245.8 349.9,245.8 349.9,245.8 349.9,245.8 350.0,245.8 350.0,245.8 350.0,245.8 350.0,245.8 350.1,245.8 350.1,245.8 350.2,245.8 350.2,245.8 350.2,245.8 350.2,245.7 350.3,245.7 350.3,245.7 350.3,245.7 350.3,245.7 350.3,245.7 350.3,245.7 350.3,245.7 350.3,245.7 350.3,245.8 350.3,245.8 350.3,245.8 350.3,245.8 350.3,245.8 350.2,245.8 350.2,245.9 350.2,245.9 350.2,245.9 350.2,245.9 350.1,245.9 350.1,245.9 Z" fill="#ffffff" stroke="#334155" stroke-width="1"/>
</svg>
