<?xml version="1.0" encoding="UTF-8"?>
<!DOCTYPE svg PUBLIC "-//W3C//DTD SVG 1.1//EN" "http://www.w3.org/Graphics/SVG/1.1/DTD/svg11.dtd">
<!-- Creator: CorelDRAW 2021 (64-Bit) -->
<svg xmlns="http://www.w3.org/2000/svg" xml:space="preserve" width="0.31172in" height="0.60913in" version="1.1" shape-rendering="geometricPrecision" text-rendering="geometricPrecision" image-rendering="optimizeQuality" fill-rule="evenodd" clip-rule="evenodd"
viewBox="0 0 714.23 1395.68"
 xmlns:xlink="http://www.w3.org/1999/xlink"
 xmlns:xodm="http://www.corel.com/coreldraw/odm/2003">
 <g id="Layer_x0020_1">
  <metadata id="CorelCorpID_0Corel-Layer"/>
  <path fill="none" fill-rule="nonzero" stroke="#336666" stroke-width="6.87" stroke-miterlimit="2.61313" d="M710.66 293.26c-1.99,1.43 -3.97,1.43 -5.97,1.45 -3.33,-1.44 -7.31,-2.87 -10.64,-4.29 -5.99,-5.73 -11.98,-11.46 -17.32,-18.64 1.33,-1.43 3.3,-2.86 5.29,-5.75 -0.03,-7.18 -0.05,-15.8 -0.07,-22.97 0.64,-8.62 -11.34,-14.33 -44.61,-32.93 -9.33,-10.02 -19.32,-18.62 -27.99,-28.65 -0.68,-4.3 -0.7,-8.61 -0.72,-14.35 2,0 3.99,0 5.98,0 0,-1.44 -0.01,-2.89 -0.02,-5.75 1.32,-4.31 3.29,-8.61 5.29,-11.5 5.93,-11.5 5.89,-22.98 -11.4,-30.12 -4.66,-2.87 -9.31,-5.72 -13.97,-8.59 -6,-5.73 -11.99,-8.59 -5.39,-22.97 1.32,-2.86 3.3,-7.17 5.28,-11.48 1.98,-2.89 3.97,-4.32 5.94,-7.19 7.96,-5.77 16.56,-10.09 25.19,-17.29 5.28,-8.62 11.88,-17.26 17.82,-27.32 5.96,-5.76 11.91,-12.94 17.87,-18.72 -3.99,0.03 -7.97,0.03 -11.94,1.47 -9.97,-1.42 -20.59,-1.38 -29.9,-4.24 -45.82,0.11 -92.96,1.67 -138.77,3.21 -10.62,1.46 -20.58,2.93 -31.2,4.38 -5.95,2.9 -11.93,4.34 -17.23,5.8 -1.98,2.86 -4.65,4.31 -5.96,5.74 -1.99,0 -3.99,0.01 -5.98,0.01 -0.36,1.57 -0.75,3.08 -1.13,4.55l1.14 -1.67c-5.86,30.17 -17.11,43.11 -34.38,43.16 -5.98,0.01 -20.56,5.78 -25.84,15.84 -3.98,2.89 -7.96,4.33 -11.93,5.77 -1.99,0 -3.99,0.01 -5.98,0.01 -1.98,2.89 -3.96,5.76 -5.29,7.2 -5.95,4.33 -11.92,10.08 -17.21,12.96 -5.3,2.89 -9.94,7.2 -14.58,10.09 -1.89,4.1 -3.77,8.21 -5.08,12.32l-0.06 0.2 -0.06 0.21 -0.06 0.2c-1.99,0.01 -3.98,0.01 -5.97,0.02 0.01,2.87 0.01,4.3 0.02,5.73 2,2.89 4,4.3 6,5.74 2,4.29 4.01,8.61 6.02,11.47l-0.15 2.63 0.16 0.23c-0.3,4.71 -0.45,9.44 -0.45,13.98l0 0.47c0.05,4.87 0.23,9.72 0.54,14.26 -1.98,4.3 -3.94,8.61 -5.26,12.93 -1.98,2.88 -3.98,2.89 -6.63,4.34 -0.6,17.21 -0.55,34.43 0.17,50.24 -17.14,34.49 -34.37,44.57 -54.29,44.61 -4,-1.43 -7.98,-2.85 -11.97,-4.28 -5.98,0.01 -11.29,0.02 -16.6,0.05 -9.32,-4.29 -17.97,-8.57 -25.94,-11.43 -5.97,0.02 -11.95,0.04 -17.26,0.04 -3.98,2.89 -7.96,5.77 -11.93,7.21 -1.98,2.88 -3.97,4.31 -5.29,5.76 -13.96,0.03 -29.23,0.06 -44.49,1.54l0.01 0.89 0 0.04 0 0.92 0 0.02 0.01 0.93 0 0.03 0 0.94 0 0.01 0 0.93 0 0.01 0.01 0.97 0 0.95 0.01 0.97 0 0.95 0 0.02 0 0.95 0 0 0.01 0.95 0 0.02 0 0.95 0.01 0.01 0 0.96 0 0.02 0.01 1.9 0 0.02c0.09,14.77 0.28,29.67 0.8,43.08 2,4.31 4.01,8.61 6.02,11.47 -0.42,7.69 -0.54,15.36 -0.37,22.19 1.52,4.38 3.05,9.52 4.87,14.19 0.51,0.32 1.04,0.63 1.6,0.92l0.01 2.88 0 0.13c0.05,12.87 0.07,24.28 -5.86,30.02 -1.93,2.79 -3.83,6.91 -5.76,11.1l-0.09 0.2 -0.1 0.21c-5.94,7.19 -11.9,14.38 -17.18,20.13l-2.66 1.37 0.04 8.68 0.11 0.68c1.35,8.38 3.34,16.77 5.95,25.16 4,4.28 7.99,8.58 11.33,11.46 2.01,4.3 4.01,8.6 6.02,10.04 0.01,4.3 0.03,8.61 0.05,12.9 0.06,20.1 6.75,31.57 17.39,37.29l-0.06 0.08c1.51,0.7 3.04,1.29 4.61,1.72l1.43 1.04c-1.98,2.9 -3.97,4.32 -5.29,5.76 -1.98,4.31 -3.96,8.61 -5.94,12.94 0.03,10.05 0.07,21.52 0.11,31.56 2.01,4.3 4.02,8.61 6.01,11.47 0.06,15.8 -0.54,33.02 0.18,47.37 -1.98,4.3 -3.96,8.62 -5.28,11.49 0.02,4.29 0.03,8.61 -0.62,11.48 -1.97,7.19 -3.94,12.93 -5.24,18.66 0.02,5.74 0.04,12.92 0.73,20.1 -5.96,5.75 -10.58,11.51 -15.21,18.68 -9.85,31.59 -19.04,63.19 -28.23,94.79 -1.96,5.75 -3.93,11.48 -5.24,15.79 0.01,2.89 0.01,4.31 0.02,5.75 4.01,8.61 8.02,15.77 11.37,22.95 3.99,2.85 7.98,4.29 11.97,5.71 4,4.29 7.33,8.59 11.33,11.47 7.32,5.73 13.98,11.47 20.63,14.31 28.6,15.75 34.65,34.39 17.46,54.51 -5.92,18.68 -16.52,24.43 -31.1,28.77 -6.64,2.88 -12.59,5.76 -17.92,7.21 -3.96,4.32 -7.93,8.62 -11.24,11.51 -9.92,10.06 -19.19,20.13 -27.79,27.31 -27.21,5.79 -38.46,17.29 -43.74,24.48 -11.93,5.76 -11.24,15.8 5.44,37.31 2,2.85 4.01,4.29 6,5.73l0.07 20.61 0.67 -0.53c2.66,0 6.63,0 10.62,-0.01 18.59,-0.04 29.25,5.68 35.26,20.04 3.35,7.15 7.34,11.47 11.35,17.19 2.68,4.3 6.01,8.61 8.68,11.47 6,7.18 11.98,11.47 17.98,17.2 4.98,4.01 10.03,8.59 15.63,12.61 3.9,1.31 10.18,0.26 14.23,0.23l1.68 0.01 0.25 0 0.02 0 2.76 -0.01 0.29 0.19c1.97,1.52 2.61,2.59 6.09,3.56 2.63,1.42 5.34,2.62 8.26,3.42 -0.66,2.86 -0.65,4.29 -0.65,5.75 -1.98,2.86 -3.97,4.3 -5.96,5.74 -3.3,4.31 -5.94,8.62 -8.59,11.5 0.02,4.31 0.05,10.04 0.73,15.78 -5.23,25.85 8.76,37.3 43.28,37.26 5.32,-0.01 11.29,-0.01 16.61,-0.03l18.26 2.04c5.91,-0.04 10.75,0.42 14.98,1.7l4.62 0.51c3.32,0 7.97,-0.01 11.96,-0.02 0.85,0.92 1.71,1.87 2.6,2.88l0.73 0 1.97 3.12c3.75,4.47 7.7,9.79 11.67,16.34 1.03,1.24 1.23,3.42 2.22,4.5 2.79,2.99 6.39,4.97 9.18,7.49 6.05,6.58 5.42,11.43 8.99,21.6l-0.46 0 0.47 1.43c6.64,-0.02 13.29,-0.02 20.59,-0.03 0.67,2.87 2.67,4.3 4.66,4.3 5.99,2.85 11.97,5.71 17.28,7.15 7.31,-0.01 15.27,-0.04 23.25,-0.05 13.95,-0.02 25.87,-7.22 32.47,-17.28 -0.67,-1.43 -0.67,-2.85 -0.69,-5.74 5.97,0 11.95,-0.01 17.92,-1.47 1.33,-2.85 3.31,-5.74 5.28,-10.04 1.99,-0.01 3.99,-0.01 5.98,-0.01 4.63,-5.76 9.26,-11.5 13.88,-15.81 5.94,-11.51 11.2,-24.43 11.19,-30.17 -0.7,-10.04 -0.06,-20.1 -0.11,-31.59 1.98,-1.43 3.97,-2.88 5.95,-5.74 -0.11,-30.16 -0.88,-61.74 -1,-94.75 1.99,-1.43 3.97,-4.31 5.94,-10.07 -0.68,-2.86 -0.69,-7.17 -0.7,-11.47 -1.35,-7.19 -3.37,-15.79 -5.39,-22.97 -0.01,-1.43 -0.01,-2.86 -0.02,-5.74 7.3,-0.03 15.27,-0.04 23.24,-0.05 1.99,2.88 3.34,4.3 5.33,5.73 7.32,2.87 13.96,7.16 20.62,11.46 3.34,4.3 7.33,8.61 11.33,11.47 4,2.87 7.98,4.29 11.3,5.72 2.66,0 4.65,0 6.65,-0.01 11.91,-11.5 24.48,-24.44 37.05,-35.95 9.24,-18.67 19.14,-35.93 29.03,-56.05 5.25,-17.23 10.5,-35.92 16.41,-57.46 2.64,-1.43 5.3,-2.87 8.61,-4.32 -0.01,-1.43 -0.01,-2.86 -0.02,-5.74 5.93,-12.93 11.19,-25.86 17.8,-37.36 -2.68,-5.74 -4.69,-11.47 -6.04,-18.65 -6.02,-11.47 -12.01,-17.2 -20.66,-21.5 -6.02,-10.04 -11.37,-21.51 -11.38,-27.27l-2.86 0.01c-0.37,-11.78 0.1,-28.99 0.06,-41.63 -0.69,-5.74 -6.02,-11.47 -17.32,-15.77 -5.98,-1.42 -12.63,-2.84 -18.6,-4.27 0,2.89 0.01,4.31 0.67,5.75 -5.3,2.89 -9.93,4.34 -13.92,4.35 -5.96,4.31 -11.93,8.62 -17.23,11.51 -2.65,0 -4.64,0 -6.64,0 1.98,-2.86 3.95,-7.18 6.6,-11.49 1.33,0 3.31,-1.43 5.3,-4.32 -0.01,-1.43 -0.01,-2.86 -0.02,-5.74 1.99,0 3.99,0 5.98,0 11.9,-12.94 24.46,-27.33 37.71,-40.28 0.03,10.05 -0.6,21.53 0.11,31.59 3.33,4.28 7.33,8.59 10.67,12.89 3.99,2.87 7.98,4.29 11.96,4.28 6.66,7.17 12.66,12.9 19.98,18.63 2,0 4,0 5.99,-0.01 3.31,-1.45 7.29,-4.32 11.92,-7.2 5.31,-0.01 11.29,-0.02 17.92,-0.05 8.63,-2.89 17.26,-4.33 25.88,-7.22 5.3,-5.76 11.24,-15.81 5.2,-34.48 -4.02,-11.47 -8.06,-24.39 -11.42,-37.31 -0.7,-10.04 -0.73,-18.65 -0.76,-28.7 -4.66,-2.87 -9.32,-5.73 -13.98,-8.6 -2,-4.3 -4.01,-8.6 -5.35,-12.9 -2,-1.44 -4.66,-2.88 -6.67,-5.73 -8,-10.04 -16.01,-21.51 -24.01,-34.42 -6.68,-10.03 -14.04,-21.5 -20.05,-34.41 -2,-1.43 -4.01,-4.31 -5.34,-7.17 -0.69,-8.61 -0.06,-20.11 -0.11,-31.58 4.64,-2.89 9.27,-8.64 13.9,-12.96 3.3,-4.31 7.27,-10.06 11.23,-17.25 -0.02,-5.74 -5.38,-17.22 -11.38,-22.95 -5.32,-5.73 -9.34,-12.89 -14,-20.07 -0.69,-7.17 -0.72,-15.79 -0.75,-24.4 -4.03,-12.92 -8.06,-27.27 -11.44,-43.05 0,0 -0.01,-1.43 -0.02,-4.31 1.31,-5.74 3.28,-11.47 5.25,-18.66 3.29,-5.76 7.26,-11.5 11.23,-17.27 4.63,-2.88 9.28,-4.32 14.58,-8.64 1.98,-2.88 3.96,-7.19 6.59,-11.5 5.3,-5.75 -0.69,-11.47 -6.72,-24.39 -2,-2.86 -3.34,-5.74 -5.35,-10.04 -5.32,-4.29 -9.99,-10.03 -14.66,-15.77 -1.34,-2.85 -3.35,-7.15 -5.36,-11.46 -0.69,-10.05 -0.73,-18.66 -0.09,-28.71 3.33,2.86 7.32,4.28 11.3,5.71 0.03,7.19 0.04,11.49 0.06,17.23 4.01,10.04 9.35,18.65 14.7,27.25 3.33,2.86 6.66,4.28 10.64,5.71 2.01,4.3 4.01,7.18 6.02,10.03 3.99,0 8.63,-0.01 13.27,-1.44 4.65,-1.45 10.63,-2.9 16.58,-5.8 2.66,-1.44 5.3,-5.75 8.61,-10.06 7.31,-0.02 15.27,-0.04 23.24,-0.05 5.98,-0.01 11.26,-10.08 11.21,-21.55 -0.68,-2.88 -0.69,-7.19 -0.7,-11.5 1.98,-1.43 3.98,-2.87 5.95,-5.75 -0.04,-12.92 -0.08,-25.85 -0.14,-40.2zm-570.07 286.9c4.51,-0.26 8.8,-0.32 12.85,-0.23 -2.26,0.01 -4.56,0.07 -6.88,0.23 -1.98,0 -3.98,0.01 -5.97,0.01zm449.59 319.23l0.09 -0.02 0.1 0 0.09 0 -0.28 0.02z"/>
 </g>
</svg>
