<?xml version="1.0" encoding="UTF-8"?>
<!DOCTYPE svg PUBLIC "-//W3C//DTD SVG 1.1//EN" "http://www.w3.org/Graphics/SVG/1.1/DTD/svg11.dtd">
<!-- Creator: CorelDRAW 2021 (64-Bit) -->
<svg xmlns="http://www.w3.org/2000/svg" xml:space="preserve" width="0.682685in" height="0.97387in" version="1.1" shape-rendering="geometricPrecision" text-rendering="geometricPrecision" image-rendering="optimizeQuality" fill-rule="evenodd" clip-rule="evenodd"
viewBox="0 0 479.26 683.68"
 xmlns:xlink="http://www.w3.org/1999/xlink"
 xmlns:xodm="http://www.corel.com/coreldraw/odm/2003">
 <g id="Layer_x0020_1">
  <metadata id="CorelCorpID_0Corel-Layer"/>
  <path fill="none" fill-rule="nonzero" stroke="#336666" stroke-width="2.11" stroke-miterlimit="2.61313" d="M436.95 411.35c0,-0.44 -0,-0.88 0.2,-1.76 -1.63,-0.44 -3.06,-1.32 -4.49,-2.2 -1.83,0.01 -3.46,0.01 -5.29,0.01 -1.84,-1.32 -3.67,-2.63 -5.3,-3.95 -1.84,-1.76 -3.67,-3.07 -5.51,-5.27 -0.82,-0.88 -1.84,-2.19 -2.66,-3.51 -1.23,-1.76 -2.45,-3.08 -3.48,-5.27 -1.84,-4.4 -5.11,-6.15 -10.8,-6.14 -0.75,0 -2.36,-0.85 -3.67,-1.51l0.21 -0.27 -0.01 -4.36c-0.61,-0.44 -1.22,-0.88 -1.84,-1.76 -5.11,-6.59 -5.32,-9.67 -1.67,-11.43 1.56,-2.12 4.81,-5.46 12.47,-7.29 0.37,-0.13 0.75,-0.27 1.15,-0.39 2.57,-2.19 5.34,-5.19 8.3,-8.18 1.01,-0.88 2.23,-2.2 3.44,-3.53 1.63,-0.44 3.45,-1.33 5.49,-2.21 4.47,-1.33 7.72,-3.09 9.53,-8.81 5.27,-6.17 3.42,-11.88 -5.35,-16.7 -2.04,-0.87 -4.08,-2.63 -6.32,-4.38 -1.22,-0.88 -2.25,-2.2 -3.47,-3.51 -1.22,-0.43 -2.45,-0.88 -3.67,-1.75 -1.03,-2.2 -2.25,-4.39 -3.48,-7.03 -0,-0.44 -0,-0.88 -0.01,-1.76 0.4,-1.32 1.01,-3.08 1.61,-4.84 2.82,-9.68 5.63,-19.36 8.65,-29.04 1.05,-1.63 2.1,-3.01 3.31,-4.34 0.42,-0.71 0.85,-1.42 1.28,-2.18 -0.14,-1.93 -0.15,-3.81 -0.15,-5.36 0.4,-1.76 1,-3.52 1.61,-5.72 0.2,-0.88 0.2,-2.2 0.19,-3.52 0.4,-0.88 1.01,-2.2 1.62,-3.52 -0.22,-4.4 -0.04,-9.67 -0.06,-14.51 -0.61,-0.88 -1.22,-2.2 -1.84,-3.52 -0.01,-3.08 -0.02,-6.59 -0.03,-9.67l0.43 -0.93 -0 -0.39c0.31,-0.45 0.62,-1.02 0.94,-1.65l0 0 0.02 -0.06 0 -0.01 0.43 -0.93 0.04 -0.05 0.38 -0.83c0.27,-0.29 0.63,-0.59 1.02,-1.01l-0.27 -0.2c-0.48,-0.13 -0.95,-0.31 -1.41,-0.53l0.02 -0.02c-3.26,-1.75 -5.31,-5.27 -5.33,-11.43 -0.01,-1.32 -0.01,-2.63 -0.01,-3.95 -0.61,-0.44 -1.23,-1.76 -1.84,-3.08 -1.02,-0.88 -2.25,-2.2 -3.47,-3.51l-0.04 -0.12 -0 -0 -0.03 -0.12 -0.01 -0.01 -0.03 -0.12 -0 -0.01 -0.03 -0.11 -0 -0.02 -0.03 -0.11 -0.01 -0.02 -0.03 -0.1 -0.01 -0.02 -0.03 -0.1 -0.01 -0.02 -0.03 -0.1 -0.01 -0.02 -0.03 -0.09 -0.01 -0.03 -0.02 -0.09 -0.01 -0.03 -0.03 -0.09 -0.01 -0.04 -0.02 -0.08 -0.01 -0.04 -0.02 -0.08 -0.01 -0.04 -0.02 -0.07 -0.01 -0.05 -0.02 -0.07 -0.01 -0.05 -0.02 -0.07 -0.01 -0.05 -0.02 -0.07 -0.01 -0.05 -0.02 -0.07 -0.01 -0.06 -0.02 -0.06 -0.02 -0.07 -0.02 -0.05 -0.02 -0.06 -0.01 -0.06 -0.02 -0.07 -0.01 -0.05 -0.02 -0.07 -0.01 -0.05 -0.02 -0.07 -0.01 -0.05 -0.02 -0.08 -0.01 -0.04 -0.02 -0.08 -0.01 -0.04 -0.02 -0.08 -0.01 -0.04 -0.02 -0.09 -0.01 -0.03 -0.02 -0.09 -0.01 -0.03 -0.02 -0.1 -0.01 -0.02 -0.02 -0.1 -0.01 -0.03 -0.02 -0.1 -0.01 -0.02 -0.03 -0.1 -0 -0.02 -0.02 -0.11 -0 -0.02 -0.02 -0.11 0 -0.01 -0.03 -0.11 -0 -0.01 -0.02 -0.11 -0 -0.01 -0.02 -0.12 0 0 -0.03 -0.12 -0 -0 -0.02 -0.12 -0 -0.01 -0.02 -0.12 0 -0.01 -0.02 -0.11 -0.01 -0.01 -0.02 -0.11 -0.01 -0.02 -0.02 -0.1 -0.01 -0.02 -0.02 -0.11 -0.01 -0.02 -0.02 -0.1 -0.01 -0.02 -0.02 -0.1 -0.01 -0.03 -0.02 -0.09 -0.01 -0.03 -0.02 -0.09 -0.01 -0.03 -0.02 -0.09 -0.01 -0.04 -0.02 -0.08 -0.01 -0.04 -0.01 -0.08 -0.01 -0.04 -0.01 -0.08 -0.01 -0.05 -0.02 -0.07 -0.01 -0.05 -0.01 -0.07 -0.01 -0.06 -0.01 -0.07 -0.01 -0.06 -0.01 -0.06 -0.01 -0.06 -0.01 -0.06 -0.01 -0.07 -0.01 -0.06 -0.01 -0.07 -0.01 -0.06 -0.01 -0.07 -0.01 -0.05 -0.02 -0.07 -0.01 -0.05 -0.01 -0.07 -0.01 -0.04 -0.01 -0.08 -0.01 -0.04 -0.01 -0.08 -0.02 -0.12 0 -0.06 0 -0.06 -0 -0.06 0 -0.06 0 -0.06 0 -0.06 0 -0.06 0 -0.06 0 -0.06 0 -0.06 0 -0.06 0 -0.06 0 -0.07 -0 -0.06 0 -0.06 0 -0.07 0 -0.06 0 -0.06 0 -0.06 0 -0.06 0 -0.06 0 -0.06 0 -0.07 0 -0.06 0 -0.06 0 -0.06 0 -0.06 0 -0.06 0 -0.06 -0 -0.06 0 -0.06 0 -0.06 0 -0.07 0 -0.06 0 -0.06 0 -0.06 0 -0.06 0 -0.06 0 -0.06 -0 -0.06 0 -0.06 0 -0.06 0 -0.06 -0 -1.3c-2.03,1.33 -4.06,2.65 -6.09,3.97 -1.22,0 -2.44,0.01 -3.66,0.01 -0.61,1.32 -1.22,1.77 -1.62,2.65 -1.02,0 -2.24,0.01 -3.46,0.01 0.01,0.88 0.01,1.32 0.01,1.76 -0.61,0 -1.22,0.01 -1.63,0.01 -5.49,1.77 -13.22,1.79 -22.38,0.49 -6.31,0.01 -12.41,0.02 -18.52,0.04 -0.61,0.88 -1.22,1.32 -1.63,1.77 -5.08,2.65 -9.95,4.42 -14.83,6.19 -4.06,0.88 -7.73,1.33 -11.59,1.78 -1.22,0 -2.44,0.45 -3.66,0.45 -0.61,0.88 -1.22,0.88 -1.62,1.32 -3.86,2.21 -7.52,4.41 -11.17,6.62 -0.61,1.32 -1.21,2.64 -1.82,3.52 -1.22,1.32 -2.43,2.2 -3.45,3.52 -1.83,1.32 -3.65,3.08 -5.28,3.97 -1.22,0.88 -2.64,1.32 -3.65,1.77 -0.61,0.88 -1.22,1.32 -2.03,1.76 -2.03,0.88 -4.06,1.77 -5.89,2.21 -1.22,0 -2.44,0 -3.66,0.01 -5.28,1.77 -8.74,2.21 -15.07,-3.49 -0.61,0 -1.02,0 -1.42,0 -0.2,-0.44 -0.21,-0.87 -0.21,-1.76l-4.27 0.01c-0.61,-0.44 -1.22,-0.88 -1.84,-1.76 -3.46,0.01 -7.33,-1.74 -11.82,-5.25 -1.22,-0.88 -2.45,-2.19 -3.67,-3.07 -1.23,-2.19 -2.25,-4.39 -3.48,-6.59 -0.61,-0.43 -1.22,-0.43 -1.84,-1.32 0,-0.44 -0,-0.88 -0.01,-1.76 -1.84,-1.75 -3.47,-3.51 -5.11,-5.7 -3.66,-1.75 -7.94,-3.5 -13.24,-3.49 -5.29,-1.3 -8.96,-3.49 -15.09,-9.2 -1.22,-0.44 -2.45,-0.87 -3.26,-1.75 -3.68,-5.27 -5.53,-8.78 -7.16,-11.41 -0.82,-2.19 -1.44,-4.83 -2.06,-7.03 -0.03,-8.79 -0.26,-17.14 -0.09,-26.37 -0.22,-6.15 -2.67,-7.91 -4.51,-7.9 -1.22,0 -2.44,0.01 -3.46,0.01 -1.83,-1.76 -3.67,-3.51 -5.31,-4.83 -1.22,-0.44 -2.44,-1.32 -3.87,-2.19 -3.46,-1.31 -6.12,-4.82 -6.14,-9.66 -0.21,-0.88 -0.21,-2.19 -0.22,-3.51 -1.63,-1.76 0.19,-5.27 2.62,-7.04 0,-0.44 0.2,-0.88 0.2,-1.76 0.4,-0.88 1.01,-2.2 1.62,-3.52 1.81,-4.84 -0.03,-7.91 -1.87,-9.66 -1.02,-0.43 -1.84,-1.32 -2.65,-2.19 -0.22,-4.39 -0.23,-8.36 -0.25,-13.19 -0.61,0 -1.22,0 -1.63,0 -0.61,-0.44 -1.22,-0.87 -1.84,-1.76 -1.63,-1.75 -3.68,-6.14 -3.69,-9.22 -1.64,-2.19 -3.48,-4.39 -5.31,-6.58 -0.61,0 -1.22,0 -1.63,0 -2.65,-0.87 -5.3,-2.19 -7.95,-3.49 0,-0.44 -0,-0.88 -0.01,-1.76 -1.23,-1.32 -2.24,-2.19 -3.47,-3.07 -1.83,0.01 -3.66,0.01 -5.29,0.02 -1.22,-0.44 -2.44,-0.87 -3.67,-1.75 -2.03,0.01 -4.07,0.01 -6.1,0.01 -3.66,0.01 -7.33,-1.74 -8.97,-5.25 -3.68,-4.38 -7.96,-6.13 -9.8,-7.89 -2.45,-1.75 -4.7,-4.38 -6.94,-7.02 -1.22,-0.43 -2.65,-0.87 -3.87,-1.74 -5.49,0.01 -11.19,0.47 -16.69,0.48 -1.22,-1.32 -2.25,-2.63 -3.47,-3.94 -1.22,-0.88 -2.45,-1.75 -3.67,-2.63 -1.02,-0.44 -1.83,-0.87 -2.65,-1.75 -1.02,-0.44 -2.24,-0.88 -3.46,-1.31 0.01,3.08 -0.18,6.59 0.03,9.67 -0.59,3.96 -1.19,7.48 -1.59,10.56 0.01,3.51 0.02,7.03 0.04,10.11 1.22,1.31 2.45,2.63 3.67,3.5 1.43,0.88 2.85,1.31 4.48,1.75 0.41,0.87 1.02,1.31 1.63,1.76 0.01,3.51 0.02,7.03 0.24,10.1 -0.61,1.32 -1.21,2.64 -1.82,3.52 0,1.32 0.01,2.64 0.21,3.51 0.41,0 1.02,-0 1.63,-0 -0.19,4.83 0.04,9.67 0.25,13.62 0.61,1.32 1.23,2.64 1.84,3.51 -0.2,0.88 -0.2,1.32 -0.2,1.76 0.61,0.88 1.23,1.75 1.84,2.19 0.01,3.52 0.02,6.59 0.23,9.67 -0.6,1.76 -1.21,3.52 -1.81,5.28 -1.22,1.32 -2.43,2.64 -3.44,3.96 0.04,11.87 0.08,23.73 0.33,35.59 -1.01,0.88 -1.82,1.77 -2.64,2.2 -1.22,1.76 -2.43,3.52 -3.44,5.28 -5.28,3.53 -5.05,9.68 -1.57,15.38 1.84,1.32 3.67,3.07 5.51,4.83 0,0.87 0.01,1.76 0.01,2.19 -1.21,2.2 -2.43,4.4 -3.44,6.16 -0.61,1.32 -1.21,2.2 -1.61,3.52 -4.47,1.77 -8.94,3.54 -13.41,5.74 -0.61,1.32 -1.21,2.64 -1.61,3.96 -0.61,0 -1.22,0 -1.63,0 -0.01,-1.76 -0.01,-3.52 -0.02,-5.71 -3.67,-1.75 -7.13,-3.5 -10.6,-5.25 -2.85,-0.43 -5.5,-0.87 -7.94,-1.74 -2.65,0.01 -5.09,0.01 -7.32,0.45 -4.27,0.89 -8.74,1.34 -13.01,1.79 -2.44,0 -4.68,0.01 -6.92,-0.43 -2.64,1.33 -5.28,3.08 -7.92,4.41 -1.22,1.32 -2.43,2.64 -3.65,3.52 1.25,7.03 2.69,13.62 3.94,20.2 0.01,3.96 0.62,8.34 2.27,13.61 1.84,3.52 1.85,7.03 1.86,9.22 0.03,8.35 0.26,15.82 0.49,24.17 -0.18,7.03 5.75,10.54 10.85,12.29 2.03,-0 4.07,-0.01 6.31,-0.01 5.09,1.75 6.31,4.69 8.56,8.2 1.43,2.19 3.89,3.2 5.73,4.95 3.74,2.5 6.46,6.7 6.67,9.34 0.01,3.52 3.14,5.15 4.98,6.9 0.41,-0.01 1.02,-0.01 1.63,-0.01 7.13,3.5 8.99,9.21 7.17,14.92 0.01,3.08 -0.18,6.15 0.03,8.79 -0.61,1.32 -3.47,2.64 -4.07,3.96 -1.48,1.78 -6.56,7 -8.7,7.93l-0.86 0.01 -0.01 0 -0.33 0 -0.02 0 -0.07 0 -0.02 0 -0.06 0 -0.02 0 -0.06 0 -0.03 0 -0.06 0 -0.03 0 -0.06 0 -0.03 0 -0.05 0c-1.45,0.01 -2.98,0.06 -4.18,0.34 -3.03,1.7 -5.89,3.74 -8.94,5.4 -3.24,3.08 -6.08,6.16 -8.92,9.24 0.01,1.32 0.01,2.63 0.01,3.51 -0.28,0.4 -0.55,0.8 -0.81,1.16l0 0.16c-0.28,0.4 -0.55,0.71 -0.81,0.97l0.02 4.31c-0.61,0.87 -1.21,2.2 -1.61,3.52 -1.02,0.88 -1.83,1.32 -2.64,1.77 -0.6,2.19 -1.2,4.39 -1.61,6.15l0 0.04 0 0.02 0 0.04 0 0.03 0 0.03 0 0.09 0 0.01 0 0.05 0 0.01 0 0.05 0 0.05 0 0.01 0 0.05 0 0.01 0 0.04 0 0.02 0 0.04 0 0.02 0 0.03 0 0.02 0 0.03 0 0.03 0 0.02 0 0.03 0 0.02 0 0.15 0 0.01 0 0.04 0 0.01 0 0.05 0 0.01 0 0.05 0 0.01 0 0.15 0 0.05 0 0.05 0 0.05 0 0.16 0 0 0 0.05 0 0.01 0 0.05 0 0.01 0 0.05 0 0.01 0 0.04 0 0.02 0 0.09 0 0.02 0 0.03 0 0.03 0 0.02 0 0.03 0 0.02 0 0.03 0 0.02 0 0.04 0 0.01 0 0.04 0 0.01 0 0.04 0 0.01 0 0.05 0 0.05 0 0.01 0 0.04 0 0.01 0 0.1 0 0.02 0 0.03 0 0.03 0 0.02 0 0.04c0.61,0.88 1.23,1.31 1.84,1.75 0,0.3 0,0.59 -0.01,0.88l0.01 0.01c0.01,2.02 -0.16,3.68 -0.18,5.3l0 0.08 0 0.02 0 0.06 0 0.04 0 0.04 0 0.06 0 0.02 0 0.08c0.82,1.32 1.84,2.63 2.86,3.06 0.01,1.76 0.01,3.52 0.02,5.28 0.62,1.32 1.23,2.64 1.64,3.95 0.56,2.41 1.13,4.82 1.86,7.24 0.63,0.34 1.33,0.55 2.12,0.63 2.11,-0.07 4.31,-0.23 6.45,-0.33l0.02 0 0.01 0c0.67,-0.05 1.33,-0.08 1.97,-0.08 1.22,-0.44 2.43,-1.32 3.65,-2.21 0.4,-0.44 0.81,-0.88 1.42,-1.76l1.02 -0 0.01 0 0.01 0 0.02 0 0 0 0.02 0 0.01 0 0.01 0 0.02 0 0.02 0 0.01 0 0.01 0 0.02 0 0.01 0 0.02 0 0 0 0.02 0 0.01 0 0.29 -0 0.02 0 0.01 0 0.02 0 0.02 0 0 0 0.02 0 0.01 0 0.02 0 0.01 0 0.02 0 0.01 0 0.02 0 0.01 0 0.01 0 0.02 0 0.01 0 0.02 0 0.01 0 0.02 0 0 0 0.02 0 0.82 0c0.01,1.32 0.01,2.63 0.22,3.95 1.84,3.51 1.85,5.27 3.48,7.03 0.61,0.44 1.22,1.32 1.84,1.76 1.22,0.88 2.45,1.76 3.67,2.63l0.07 0 0.02 0 0.05 0 0.04 0 0.03 0 0.05 0 0.02 0 0.07 0 0.01 -0 0.06 0 0.02 0 0.04 0 0.04 0 0.03 0 0.06 0 0.01 0 0.07 0 0.07 0 0.02 0 0.06 0 0.03 0 0.04 0 0.14 0 0.01 0 0.08 0 0.07 0 0.01 0 0.06 0 0.03 0 0.05 0 0.04 0 0.04 0 0.06 0 0.02 0 0.16 0 0.07 0 0.02 0 0.06 0 0.03 0 0.05 0 0.04 0 0.04 0 0.06 0 0.02 0 0.07 0 0.01 0 0.17 -0.01 0.07 0 0.02 0 0.06 0 0.03 0 0.05 0 0.04 0 0.04 0 0.05 0 0.03 0 0.06 0 0.02 0 0.07 0 0.01 0 0.08 0 0.08 0 0.01 0 0.07 0 0.02 0 0.06 0 0.03 0 0.05 0 0.04 0 0.04 0 0.05 0 0.03 0 0.06 0 0.02 0 0.07 -0 0.01 0 0.08 0 0 0 0.08 0 0.01 0 0.08 0 0.02 0 0.07 0 0.02 0 0.06 0 0.03 0 0.05 0 0.04 0 0.04 0 0.05 0 0.03 0 0.06 0 0.02 0 0.07 0 0.01 0 0.08 0 0.01 0 0.09 0 0 0 0.08 0 0.01 0 0.16 0 0.03 0 0.06 0 0.04 0 0.04 0c0.89,-0.06 1.72,-0.08 2.49,-0.07 5.83,-0.09 8.91,1.52 8.92,3.13 0,0.88 0.01,1.32 0.01,1.76 -0.61,1.32 -1.21,2.64 -1.61,3.52 0,1.32 0.01,2.64 0.01,3.51 -0.56,0.82 -1.13,1.26 -1.7,1.67 -0.1,0.17 -0.2,0.32 -0.3,0.47 -0.55,1.2 -1.07,2.39 -1.44,3.58 -1.79,9.67 0.05,12.75 6.96,12.73l0.12 0 0.12 0 0.04 0 0.09 0 0.12 0 0.07 0 0.05 0 0.12 0 0.12 0 0.01 0 0.12 0 0.12 -0 0.03 0 0.09 0 0.12 0 0.07 0 0.06 0 0.12 0 0.11 0 0.01 0 0.12 0 0.13 0 0.02 0 0.1 0 0.12 0 0.07 0 0.06 -0 0.13 0 0.11 0 0.02 0 0.12 0 0.13 0 0.02 0 0.1 0 0.12 0 0.06 0 0.06 0 0.12 0 0.11 0 0.02 0 0.12 0 0.25 0 0.12 0 0.06 0 0.06 0 0.12 0 0.11 0 0.02 -0.01 0.13 0 0.12 0 0.02 0 0.1 0 0.12 0 0.06 0 0.06 0 0.13 0 0.11 0 0.02 0 0.12 0 0.12 0 0.02 0 0.1 0 0.25 -0 0.12 0 0.11 0 0.02 0 0.12 0 0.25 0 0.12 0 0.07 0 0.06 0 0.12 0 0.11 0 0.01 0 0.13 0 0.12 0 0.03 0 0.09 0 0.12 0 0.07 0 0.05 0 0.25 -0 0.12 0c5.49,-1.77 8.94,-1.77 10.58,-0.02 1.43,0.88 2.85,0.87 4.48,1.32l-0.48 1.35 0.12 0.08c-1.29,3.69 -2.58,7.65 -3.88,10.88 -1.21,2.2 -2.22,4.84 -3.23,7.47 -0.81,0.88 -1.42,1.76 -2.03,2.2 0.01,1.76 0.01,3.08 0.02,4.83 -2.02,4.84 -3.63,9.24 -5.24,13.63 -0.61,0.88 -1.21,1.32 -1.62,1.76 0,0.88 0.01,1.32 0.01,1.76 -0.6,0.88 -1.21,0.88 -1.62,1.32 -0.8,2.64 -1.4,5.28 -1.8,7.47 -0.61,1.32 -1.21,2.64 -1.62,3.08 0.02,6.59 -2.4,10.55 -4.23,12.31 -1.22,0.88 -2.44,1.32 -3.45,1.77 -1.62,1.76 -3.45,3.52 -3.24,5.27 0.41,1.76 1.03,3.96 1.65,6.15 0.01,1.32 0.01,2.64 0.01,3.52 -0.61,1.32 -1.21,2.19 -1.61,3.51 -1.22,0.88 -2.43,1.32 -3.65,1.77 3.07,4.83 5.93,8.78 9,13.17 1.63,2.2 3.47,3.95 7.95,5.26 2.03,-0.44 4.48,-0.45 6.92,-0.45 3.46,-0 5.3,1.75 7.14,5.27 1.65,6.15 4.52,13.62 4.56,23.28 0.62,3.96 1.25,8.36 1.87,12.3 1.86,7.91 0.25,13.18 -1.57,15.82 -2.64,2.64 -6.08,6.16 -9.53,8.8 -1.83,1.76 -3.45,3.08 -5.07,3.96 1.64,3.07 3.48,6.59 5.33,9.66 3.68,4.39 6.93,10.64 11.01,15.47 0.42,1.76 1.46,2.53 2.28,3.85 0.61,1.32 1.2,2.57 1.81,3.89 -0.19,4.83 -0.14,9.29 0.08,13.69 0.62,2.2 1.24,4.4 1.65,6.59 0.01,2.2 0.02,4.83 0.23,7.03 -0.61,0.88 -1.22,1.32 -1.82,1.76 0.01,1.76 0.01,2.64 0.22,3.96 1.02,1.32 2.24,2.19 3.27,3.07 0.61,0 1.22,0 1.83,0 0.61,0.87 1.22,1.76 1.84,2.63 1.01,-1.76 2.23,-3.51 3.44,-5.72 4.25,-5.72 13.18,-11.44 29.64,-17.61 7.11,-2.2 14.43,-4.85 21.74,-7.49 5.48,-3.53 10.76,-6.61 16.64,-11.01 1.22,-0.88 2.23,-1.76 3.45,-3.08 0.4,-0.44 1.01,-0.44 1.62,-1.32 1.42,-0.44 2.84,-0.88 4.47,-1.77 1.63,-0.44 3.45,-0.88 5.08,-1.76 7.73,-0.01 15.66,-0.45 23.6,-0.47 1.63,0.88 3.46,1.31 5.3,1.75 6.11,1.75 9.56,-0.01 13.01,-3.97 0.61,0 1.02,0 1.63,0 1.62,-2.2 5.26,-7.04 8.07,-18.47 2.61,-8.36 5.44,-16.71 8.46,-25.51 0.4,-1.76 1.01,-3.52 1.61,-4.84 1.82,-1.76 3.65,-3.52 9.55,-3.53 1.22,-0.44 2.44,-0.88 3.66,-1.77 1.63,-0 3.46,-0.01 5.29,-0.01 9.76,-2.21 19.72,-3.98 29.89,-5.75 0,0.88 -0.19,2.2 -0.19,3.52 0.61,1.32 1.23,2.64 2.05,3.52 0.02,5.27 3.49,7.91 8.76,3.07 1.63,-0.88 3.45,-2.21 5.07,-3.53 -0.01,-1.76 -0.02,-3.52 -0.02,-5.72 0.81,-0.44 1.63,-0.44 2.64,-1.32 0.61,-0.88 1.21,-2.2 1.82,-3.52 0.41,-0 1.02,-0 1.43,-0 0.61,-0.44 1.22,-0.88 1.82,-1.76 3.45,-3.08 5.27,-6.17 6.89,-7.92 -0.21,-3.08 -0.02,-6.6 -0.03,-9.24 -0.62,-1.31 -1.23,-3.07 -1.85,-4.39 1.82,-3.96 5.47,-5.28 9.95,-5.29 3.87,-0 8.14,-0.01 12.21,-0.02 2.64,-0.88 5.28,-2.21 7.92,-3.97 1.83,-2.2 3.44,-5.72 3.42,-11.88 0,-0.44 -0,-0.88 -0.01,-1.76 0.4,-0.88 1.01,-2.2 1.62,-3.08 1.01,-0.44 2.24,-0.88 3.45,-1.76 1.62,-1.76 3.45,-3.52 5.27,-5.72 4.46,-6.16 9.74,-8.37 18.28,-8.38 2.03,-0 4.07,-0 6.31,-0.01 1.02,-0.44 2.24,-0.88 3.25,-1.77 5.28,-3.97 10.77,-5.74 15.04,-3.98 1.22,-0 2.64,-0 3.86,-0.01 0.62,1.32 1.03,2.63 1.64,3.52 1.22,0.88 2.45,1.32 3.67,1.75 0.4,0 1.01,0 1.63,-0 1.63,-0.01 6.09,-3.52 11.15,-11.01 1.19,-7.92 2.18,-15.84 3.58,-24.2 3.05,-0 6.3,-0.01 9.56,-0.01 0.4,-0.88 1.01,-1.76 1.62,-2.2 2.65,-0.44 5.9,-1.33 9.15,-2.21 3.45,-1.77 6.9,-3.54 9.33,-7.5 0.61,-0.44 1.22,-0.88 1.83,-1.32 0.61,0 1.22,0 1.83,-0 -0.62,-1.76 -1.03,-3.51 -1.65,-5.72 -1.63,-1.32 -3.26,-2.63 -4.49,-4.39 -1.84,-3.07 -3.68,-5.27 -5.31,-7.03 -1.22,0 -2.65,0.01 -3.66,0.01 -3.87,-0.43 -7.73,-0.86 -11.6,-1.3 -1.63,0.01 -3.46,0.01 -5.09,0.01 -10.58,0.01 -14.86,-3.49 -13.26,-11.41 -0.21,-1.76 -0.22,-3.51 -0.22,-4.83 0.81,-0.88 1.62,-2.2 2.63,-3.52 0.61,-0.44 1.22,-0.88 1.83,-1.76z"/>
 </g>
</svg>
