<?xml version="1.0" encoding="UTF-8"?>
<!DOCTYPE svg PUBLIC "-//W3C//DTD SVG 1.1//EN" "http://www.w3.org/Graphics/SVG/1.1/DTD/svg11.dtd">
<!-- Creator: CorelDRAW 2021 (64-Bit) -->
<svg xmlns="http://www.w3.org/2000/svg" xml:space="preserve" width="0.504831in" height="0.577945in" version="1.1" shape-rendering="geometricPrecision" text-rendering="geometricPrecision" image-rendering="optimizeQuality" fill-rule="evenodd" clip-rule="evenodd"
viewBox="0 0 109.09 124.89"
 xmlns:xlink="http://www.w3.org/1999/xlink"
 xmlns:xodm="http://www.corel.com/coreldraw/odm/2003">
 <g id="Layer_x0020_1">
  <metadata id="CorelCorpID_0Corel-Layer"/>
  <path fill="none" fill-rule="nonzero" stroke="#336666" stroke-width="0.65" stroke-miterlimit="2.61313" d="M89.72 81.43c0,-0.14 -0,-0.27 -0,-0.41 0.19,-0.14 0.37,-0.27 0.56,-0.54 -0.06,-0.54 -0.57,-0.54 -2.2,-1.08 -0.82,-0.4 -1.63,-0.81 -2.38,-1.21 -2.07,-1.21 -4.14,-3.53 -6.28,-5.01 -0.45,-0.48 -0.94,-0.96 -1.49,-1.53 0.21,-0.25 0.43,-0.5 0.66,-0.75 1.5,-1.62 2.93,-3.11 4.49,-4.74 -0.07,-0.54 -0.07,-1.08 -0.07,-1.62 0.49,-1.89 0.49,-2.98 0.99,-4.19 0.19,-0.27 0.37,-0.68 0.56,-1.08 -0,-0.14 -0,-0.41 -0,-0.68 -0.19,0.27 -0.37,0.54 -0.56,0.68 -0,-0.4 -0,-0.81 -0,-1.08 -0.25,-0.54 -0.44,-1.22 -0.57,-1.89 -0,-0.4 -0,-0.81 -0,-1.08 -0.38,-0.13 -0.75,-0.54 -1.13,-0.95 -0.31,-0.4 -0.57,-0.81 -0.76,-1.21 -1.51,-2.02 -3.02,-4.18 -4.47,-6.21 -0.5,-0.27 -0.94,-0.67 -1.38,-1.08 -0.19,-0.27 -0.38,-0.81 -0.51,-1.35 -0.06,-0.27 -0.07,-0.68 -0.07,-1.08 -0.19,-0.14 -0.38,-0.27 -0.57,-0.54 0.37,-0.41 0.75,-0.68 1.12,-1.08 0.25,-0.54 0.5,-1.08 0.68,-1.62 0.19,-0.4 0.37,-0.95 0.56,-1.35 -0.06,-0.54 -0,-1.08 -0.01,-1.62 -0,-0.54 0.5,-1.22 2.13,-1.22 0.25,0 0.44,0 0.63,0 0.31,-0.27 0.69,-0.68 1.06,-0.95 0.06,-0.27 0.25,-0.68 0.43,-1.08 -0,-0.95 -0.01,-2.03 -0.01,-2.97 0.44,-0.14 0.81,-0.41 1.31,-0.68 0.56,-0 1.13,-0 1.63,-0.54 0.31,-0.27 0.69,-0.68 1.06,-1.08 -0.19,-0.13 -0.38,-0.27 -0.56,-0.54 -0.38,-0.27 -0.75,-0.4 -1.07,-0.81 -1.07,-0.54 -1.63,-1.08 -1.14,-2.7 -0,-0.81 -0.01,-1.76 -0.01,-2.71 0.13,0 0.31,-0 0.5,-0 -0,-0.4 -0,-0.95 -0.01,-1.49 -0,-0.41 0.5,-1.49 1.06,-2.71 0.31,-0.54 0.68,-1.08 1.06,-1.49 -0.07,-0.95 -0.63,-2.03 -1.2,-3.11 -0.13,-0.27 -0.31,-0.68 -0.5,-1.08 -0.19,-0.14 -0.38,-0.27 -0.57,-0.54 0,-0.14 -0,-0.27 -0,-0.54 -0.19,-0.14 -0.38,-0.27 -0.57,-0.54 -0.19,-0.41 -0.38,-0.95 -0.51,-1.35 -0,-0.27 -0,-0.68 -0,-1.08 -0.31,-0.4 -0.63,-0.81 -0.88,-1.21 0,0.27 0,0.54 0,0.68 -0.19,0 -0.38,0 -0.5,0 -0.25,0.4 -0.44,0.54 -0.62,0.68 -0.38,0 -0.75,0 -1,0 -0.19,-0.14 -0.38,-0.27 -0.56,-0.54 -1,0 -2,0 -2.94,0.01 -0.19,0.27 -0.37,0.41 -0.56,0.54 -1.63,0.54 -2.69,0.68 -4.33,-1.08 -0.5,-0.13 -0.88,-0.27 -1.32,-0.54 -0.57,-0.54 -1.13,-0.94 -1.7,-1.48 -1.06,0 -2.13,-0.67 -2.7,-1.48 -0.19,-0.13 -0.38,-0.27 -0.56,-0.54 -0.25,0 -0.5,0 -0.75,0.14 -0.19,0.27 -0.37,0.41 -0.56,0.54 -0.75,0 -1.5,0 -2.13,0 -0.19,-0.14 -0.38,-0.27 -0.57,-0.54 -0.38,0 -0.75,0 -1.07,0 -0.5,-0.13 -0.94,-0.27 -1.32,-0.54 -0.56,0 -1.13,0 -1.69,0 -0.57,-0.54 -1.13,-0.81 -1.57,-1.48 -1.06,0 -2.07,0 -3,0.01 -0.38,-0.13 -0.75,-0.27 -1.07,-0.54 -1.69,-0.54 -3.26,0.01 -4.57,1.77 -0.68,2.16 -1.36,4.19 -2.04,6.36 -0.56,1.49 -1.56,2.43 -3.5,1.49 -0.69,0 -1.44,0 -2.13,0.14 -0.75,-0.13 -1.5,-0.27 -2.13,-0.4 -1.94,-0.54 -2.94,0.01 -4,1.36 -1.12,0.54 -1.62,2.17 -1.55,4.33 0,0.54 0,1.08 0.01,1.62 0.57,0.81 1.13,1.35 2.7,1.35 0.38,0.27 0.75,0.4 1.13,0.54 1.32,1.21 1.95,2.7 1.4,5.27 0.01,1.76 0.08,3.51 0.14,5.14 -0.18,0.81 -0.37,1.76 -0.49,2.57 -0.31,0.27 -0.56,0.41 -0.81,0.54 -0.37,0.95 -0.75,1.76 -1.06,2.57 -0.19,0.27 -0.37,0.41 -0.5,0.54 0,0.27 0,0.68 0,0.95 -0.19,0.27 -0.37,0.54 -0.56,0.68 -0.5,1.08 -0.43,2.97 0.14,5.14 0.57,0.54 1.13,1.08 2.95,1.08 0.19,-0 0.38,-0 0.56,-0 0.38,0.54 0.69,1.08 1.07,1.62 0.76,1.49 1.51,3.11 2.27,4.59 0.13,0.27 0.32,0.4 0.5,0.54 0.38,0.54 0.76,1.22 1.13,1.89 0.56,0.41 1.26,0.95 1.95,1.49 0.69,0.4 1.38,0.81 2.13,1.21 1.51,1.49 3.08,3.11 4.65,4.32 0.31,0.27 0.69,0.54 1.07,0.67 0.38,0 0.69,-0 1.07,-0 0,0.27 0,0.4 0,0.54 0.19,0 0.38,0 0.56,-0 0,0.27 0,0.41 0,0.54 0.44,-0 0.88,-0 1.38,-0 0.19,0.27 0.31,0.41 0.5,0.54 0.88,-0 1.82,-0 2.69,-0 1.63,0.4 2.95,0.94 3.52,2.83 0.38,0.41 0.75,0.81 1.13,1.08 0.5,0.54 1.07,2.16 0.58,4.6 0,0.37 -0.14,1.14 0.27,1.29 -0.36,0.47 -0.47,0.47 -1.01,0.47 -0.38,0.41 -0.75,0.81 -1.12,1.22 -0.19,0.68 -0.37,1.22 -0.49,1.76 -0.43,1.49 0.07,3.24 1.28,6.22 0,0.27 0,0.41 0,0.54 0.5,0.4 0.51,1.62 1.07,2.84 0,1.22 0.01,2.43 0.08,3.51 -0.19,0 -0.38,0 -0.56,0 -0.19,-0.27 -0.38,-0.54 -0.56,-0.67 -0.75,0 -1.44,0 -2.13,0 -0.5,0 -0.94,-0.13 -1.38,-0.4 -1.06,0.27 -2.13,0.41 -3.13,0.54 -2.94,0 -5.2,-0.94 -6.28,-3.37 -0.19,-0.13 -0.38,-0.27 -0.57,-0.54 -0,-0.54 -0,-1.08 -0.01,-1.62 -0.44,-0.27 -0.88,-0.67 -1.32,-1.08 -0.56,0 -1.13,0 -1.63,0 -0.37,0.27 -0.75,0.41 -1.06,0.54 -0.38,0 -0.75,0 -1.06,0 -0.19,0.27 -0.38,0.41 -0.56,0.41 -0.5,0 -0.5,0.54 -1.31,1.35 -0.19,0.68 -0.37,1.35 -0.5,1.76 -0.38,0 -0.75,0 -1.06,0 -0.5,-0.4 -1.07,-1.08 -1.63,-1.75 -0.37,0 -0.75,0 -1.13,0 -0.13,-0.41 -0.32,-0.81 -0.51,-1.22 -0.31,-0.4 -0.57,-0.94 -0.82,-1.48 -0.19,-0.14 -0.38,-0.41 -0.57,-0.68 -0.37,0.27 -0.69,0.54 -1.06,0.68 -0,-0.68 -0.01,-1.35 -0.01,-1.89 -0.19,-0.27 -0.38,-0.68 -0.57,-1.08 -0.19,-0.54 -0.38,-1.08 -0.57,-1.76 -0.19,0 -0.38,-0.13 -0.5,-0.27 -0.07,-0.95 -0.07,-2.03 -0.07,-3.11 -0.19,-0.27 -0.38,-0.67 -0.57,-1.08 -0.19,-0.14 -0.38,-0.27 -0.57,-0.54 -0.19,-0.27 -0.38,-0.68 -0.5,-1.08 -0,-0.14 -0,-0.27 -0,-0.54 -0.25,-0.4 -0.57,-0.95 -0.82,-1.62 -1.13,-1.89 -2.7,-1.89 -4.32,0.01 -1.5,0 -3.07,0.14 -4.57,0.14 -0.56,0.68 -1.06,1.22 -1.56,1.62 -0.63,0.41 -1.25,0.81 -1.88,1.08 -0.19,0 -0.38,0 -0.5,0 0,0.27 0,0.41 0,0.54 -0.38,0.27 -0.75,0.41 -1.06,0.54 -0.38,0 -0.75,0.14 -1.06,0.14 -0.81,0.27 -1.56,0.54 -2.38,0.68 -1.13,0 -2.19,0 -3.26,0 -1,0.27 -1.94,0.27 -2.94,0.55 -0.56,0 -1.13,0 -1.57,0 -0.19,0.54 -0.37,0.95 -0.5,1.35 -0.88,0.02 -2.76,0.93 -3.26,1.47 0,0.4 1.95,1.69 3.33,1.77 0.13,0.27 0.25,0.54 0.44,0.67 0,0.41 -0.03,1.11 0.04,1.38 0.31,-0 0.57,-0.05 0.95,-0.05 0.44,0.13 0.83,0.25 1.27,0.52 0.57,0.67 1.32,0.97 1.88,1.51 0.19,0.4 0.38,0.81 0.57,0.95 0,0.67 -0.06,1.22 0.01,1.76 0.01,1.76 1.14,3.51 2.77,5 0.57,1.22 2.45,3.1 5.15,4.59 0.82,0.54 1.63,1.21 2.45,1.89 0.56,0.27 1.64,2.16 3.9,4.19 0.38,0.4 0.82,0.81 1.32,1.08 1.64,1.76 2.77,2.43 3.77,2.43 0.38,-0 0.75,-0 1.13,-0 1.25,-0 2.32,-0 2.88,0.54 0.19,0.27 0.38,0.4 0.57,0.54 0.19,-0 0.31,-0.14 0.5,-0.14 0,0.41 0,0.81 0,0.95 0.57,1.21 1.14,2.43 1.7,3.51 0.13,0.27 0.31,0.54 0.5,0.68 0.25,0.4 0.14,1.53 0.45,1.8 0.57,2.43 2.07,2.52 3.64,2.52 1.69,-0 3.38,-0.14 5.07,-0.14 0.88,0.13 1.82,0.4 2.7,0.67 1.37,-0.68 2.38,-0.68 4.07,-0.14 0.75,0.27 1.57,0.54 2.45,0.67 2.63,-0 4.19,-0.68 4.19,-2.17 -0.07,-1.22 -0.01,-2.3 -0.01,-3.51 3.32,-0.14 6.7,-0.14 10.14,-0.15 0.38,0.4 0.69,0.81 1.07,0.94 0.82,0.54 1.57,1.08 2.45,1.62 1.57,-0 2.7,0.81 2.7,1.62 0.07,1.89 1.14,3.38 3.02,4.05 0.56,0.4 1.13,0.68 1.69,0.95 0.5,0.54 1.07,1.21 1.63,1.89 0,0.27 0,0.41 0,0.54 -0.49,2.7 0.58,3.78 3.52,4.19 0.69,-0 1.38,-0 2.13,-0 0.5,-0.14 1.06,-0.27 1.63,-0.54 0.19,-0.14 0.44,-0.27 0.75,-0.54 1.25,-0 2.5,-0 3.82,-0 0.75,0.27 1.57,0.4 2.38,0.54 2.13,-0.14 3.69,-0.68 4.25,-1.22 0.44,-0.41 0.87,-0.81 1.31,-1.22 0.19,-0.27 0.37,-0.54 0.56,-0.95 0.12,-0.14 0.31,-0.27 0.5,-0.54 0,-0.14 -0,-0.27 -0,-0.54 0.63,-0 1.38,-0 2.13,-0 0.19,0.27 0.38,0.41 0.57,0.54 0.31,0 0.69,0 1.06,-0 0.81,-0.54 1.62,-0.95 2.38,-1.35 0.19,0 0.38,0 0.56,0 -0.06,-0.54 -0.07,-1.08 -0.07,-1.76 0.19,-0.14 0.38,-0.27 0.56,-0.54 -0.06,-0.54 -0.07,-1.08 -0.07,-1.62 -0.32,-1.08 -0.7,-2.16 -1.08,-3.24 -0.25,-0.95 -0.45,-2.03 -0.57,-2.97 -0.07,-0.95 -0.07,-1.89 -0.07,-2.97 -0.19,-0.13 -0.38,-0.27 -0.57,-0.54 -0.44,-0.68 -0.88,-2.05 -1.32,-2.86 -0.19,0.27 -0.38,0.41 -0.56,0.54 -0.19,0 -0.38,0.13 -0.56,0.13 -0.19,0.27 -0.09,-0.31 -0.15,-0.31 -0.56,0.95 -1.98,1.42 -2.98,1.01 -0.88,-0.27 -1.72,-1.16 -2.47,-1.57 -1.5,0 -2.88,0 -4.32,0.14 -2.38,0 -3.98,-0.72 -4.56,-3.16 -0.01,-2.03 -0.58,-3.94 -2.45,-3.94 -1.07,0 -1.63,-0.66 -1.65,-4.17 -0.06,-0.4 -0.06,-0.81 -0.07,-1.08 0.19,-0.41 0.37,-0.68 0.56,-0.95 0,-0.13 -0,-0.27 -0,-0.54 0.13,0 0.31,0 0.5,0 1.06,-2.17 2.18,-4.46 3.36,-6.9z"/>
 </g>
</svg>
