<?xml version="1.0" encoding="UTF-8"?>
<!DOCTYPE svg PUBLIC "-//W3C//DTD SVG 1.1//EN" "http://www.w3.org/Graphics/SVG/1.1/DTD/svg11.dtd">
<!-- Creator: CorelDRAW 2021 (64-Bit) -->
<svg xmlns="http://www.w3.org/2000/svg" xml:space="preserve" width="0.456453in" height="0.710224in" version="1.1" shape-rendering="geometricPrecision" text-rendering="geometricPrecision" image-rendering="optimizeQuality" fill-rule="evenodd" clip-rule="evenodd"
viewBox="0 0 129.77 201.92"
 xmlns:xlink="http://www.w3.org/1999/xlink"
 xmlns:xodm="http://www.corel.com/coreldraw/odm/2003">
 <g id="Layer_x0020_1">
  <metadata id="CorelCorpID_0Corel-Layer"/>
  <path fill="none" fill-rule="nonzero" stroke="#336666" stroke-width="0.85" stroke-miterlimit="2.61313" d="M117.57 94.66c0.16,-0.36 0.41,-0.89 0.65,-1.43 0,-0.18 -0,-0.35 -0,-0.71 -0,-0.71 -1.49,-1.42 -4.29,-1.24 -0.82,0 -1.65,0 -2.39,0.01 -0.5,-0.36 -0.99,-0.71 -1.49,-1.07 -0.25,-0.18 -0.5,-0.53 -0.74,-0.71 -0.66,-0.71 -0.66,-1.42 -1.41,-2.85 -0.08,-0.53 -0.09,-1.07 -0.09,-1.6 -0.25,0 -0.85,-0.25 -1.02,-0.25 -0.25,0.36 -0.49,0.54 -0.74,0.71 -0.41,0.36 -0.9,0.71 -1.32,0.89 -1.48,0 -2.54,0.14 -4.03,0.15l-0.25 0.23c-0.32,-1.05 -0.57,-2.1 -0.82,-3.14 -0.17,-0.53 -0.42,-1.07 -0.67,-1.6 -0,-0.71 -0,-1.42 -0.01,-2.14 -0.41,-0.18 -0.83,-0.71 -1.16,-1.24 -0,-0.89 0.07,-1.78 0.07,-2.67 -0.25,-0.18 -0.5,-0.35 -0.74,-0.71 -0,-0.53 -0,-0.89 -0,-1.42 0.16,-0.71 0.41,-1.42 0.65,-2.13 0.33,-0.18 0.66,-0.36 1.07,-0.72 0.16,-0.53 0.41,-1.07 0.65,-1.42 -0,-0.53 -0,-1.07 -0.01,-1.78 0.17,-0.18 0.41,-0.53 0.66,-0.89 -0,-0.36 -0,-0.89 -0.01,-1.42 1.15,-1.25 2.3,-2.5 3.61,-3.74 1.32,-0.72 2.55,-1.61 3.86,-2.32 0.66,-0 1.4,-0 2.14,-0.01 0.41,-0.18 0.91,-0.54 1.4,-1.07 0.17,-0.18 0.41,-0.36 0.66,-0.71 0.41,-0.18 0.9,-0.36 1.4,-0.72 0.33,-0.18 0.58,-0.36 0.99,-0.71 0.25,-0.54 0.49,-1.07 0.74,-1.6 -0.09,-1.07 -0.01,-2.49 0.07,-3.91 0.65,-1.96 -0.1,-4.27 -3.32,-6.05 -0.25,0 -0.49,0 -0.74,0 -0.75,-0.53 -1.41,-1.42 -1.41,-2.84 -0,-0.71 -0.75,-2.31 -2.9,-3.38 -0.91,-0.89 -1.74,-1.78 -2.48,-2.66 -0.83,-1.42 -1.57,-1.95 -3.64,-2.66 -0.74,0 -1.48,0 -2.22,0.01 -2.39,-0.71 -3.88,-2.13 -3.89,-5.33 -0.09,-3.2 -0.19,-6.23 -0.12,-9.43 -0,-0.89 -0.09,-2.31 -0.84,-4.09 -0.67,-2.13 -1.41,-3.55 -1.42,-5.16 -0.5,-2.67 -1.09,-5.33 -1.6,-8.18 -0.33,0.36 -0.66,0.54 -0.99,0.72 -0.25,0 -0.49,0 -0.66,0 -0.25,0.54 -0.49,1.07 -0.74,1.6 -0.49,0.54 -0.98,1.25 -1.39,1.96 -3.86,4.81 -7.71,9.45 -11.57,14.08 -0.9,0.36 -1.73,1.07 -2.55,1.43 -0.25,0.35 -0.49,0.54 -0.66,0.71 -0.49,0 -0.99,0 -1.4,0 -2.55,0.72 -4.94,1.43 -7.41,2.15 -2.31,0.01 -4.53,0.01 -6.76,0.01 -0.41,-0.35 -0.91,-0.71 -1.4,-1.06 -0.25,-0.18 -0.5,-0.53 -0.75,-0.89 -0.49,0 -1.07,0 -1.56,0.18 -0.25,0.36 -0.49,0.71 -0.66,0.89 -0.58,0 -1.15,0 -1.73,0 -1.48,-0.53 -2.89,-1.06 -4.29,-1.59 -3.87,1.61 -5.92,4.1 -5.9,7.66 -0.08,0.53 -0.08,1.07 0,1.42 -0.24,0.71 -0.49,1.25 -0.73,1.78 -0.25,0.36 -0.49,0.54 -0.66,0.71 -0.16,0 -0.41,0 -0.66,0 0,0.35 0,0.53 0,0.71 -0.25,0.35 -0.49,0.71 -0.66,0.89 -1.15,0 -1.81,0.01 -3.3,-0.88 -0.66,-0.71 -2.8,0.18 -4.94,1.79 -0.58,0.36 -0.99,0.89 -1.56,1.25 -0.74,0.71 -2.22,0 -4.29,-0.7 -0.25,-0.18 -0.5,-0.18 -0.74,-0.53 -0.74,-0.71 -2.56,-0.53 -3.13,0.18 -0.25,0.36 -0.49,0.36 -0.74,0.54 -0.25,0 -0.49,0 -0.74,0 -0.49,-0.18 -0.99,-0.71 -1.49,-1.24 -0.25,0 -0.49,0 -0.66,0 -0.25,0.36 -0.49,0.54 -0.74,0.71 -0.58,0.36 -1.15,0.36 -1.73,0.54 -0.49,0 -0.99,0 -1.4,0 -0.25,-0.18 -0.5,-0.18 -0.74,-0.53 -0.49,0 -0.91,0.18 -1.4,0.18 -0.25,-0.18 -0.5,-0.35 -0.74,-0.71 -0.49,0 -0.99,0 -1.4,0 -2.56,-0.88 -3.21,0.01 -3.21,1.96 0.5,1.6 1.17,3.2 1.83,4.62 0.83,1.6 0.75,3.73 0.1,6.22 -0.98,2.31 -1.71,4.27 -3.11,5.88 -0.9,2.67 -1.88,5.16 -2.77,7.83 0.75,2.13 1.5,4.27 2.33,6.4 0.25,0.54 0.5,1.07 0.75,1.6 0,0.71 0,1.24 0.01,1.78 0.17,0.36 0.09,1.24 0.34,1.78 0.25,0.36 0.5,0.53 0.74,0.71 0,0.35 0,0.53 0,0.71 0.25,0.35 0.5,0.53 0.74,0.71 0.33,0.53 0.75,1.06 1.08,1.42 0.75,1.42 1.49,3.2 1.5,4.09 -0.49,0.71 -0.98,1.25 -1.39,1.96 -1.07,1.43 -1.39,2.67 -1.39,3.38 0,0.53 0,1.07 0.01,1.6 -0.25,0 -0.49,0 -0.66,0 0.01,1.24 0.01,2.49 0.01,3.56 -0.65,2.31 -0.21,3.38 1.2,4.09 0.58,0.53 1.31,1.07 1.97,1.6 0.74,0.71 2.04,0.98 2.87,0.98 1.81,-0 3.38,0.01 5.2,-0.17 -0.82,1.42 -1.31,2.74 -2.13,4.16 0.1,5.16 0.77,7.29 3.24,7.11 2.39,0.71 4.87,1.41 7.42,1.77 0.16,0 0.41,-0 0.66,-0 0.5,0.36 0.99,0.53 1.49,0.71 1.56,-0.18 3.05,-0.18 4.61,-0.18 0.66,-0.71 2.06,-1.43 2.71,-3.21 0.41,-0.71 0.9,-1.42 1.39,-2.31 0.41,-0.36 0.9,-0.71 1.4,-1.25 0.58,-0.18 1.15,-0.54 1.81,-0.89 0.16,-0.53 0.41,-1.07 0.65,-1.6 -0,-0.18 -0,-0.35 -0,-0.71 1.56,-1.6 3.2,-3.21 4.84,-5.17 0,0.36 0,0.54 0.08,0.71 -2.87,2.85 -3.52,5.16 -2.03,6.76 0.67,1.96 2.9,3.55 5.29,4.26 2.14,-0.18 2.89,0.53 2.89,1.6 0.1,4.45 1.59,6.4 4.06,5.68 0.58,-0.35 1.32,-0.71 2.06,-1.25 0.9,-0.54 1.89,-1.07 2.88,-1.6 0.17,0.35 0.41,0.53 0.66,0.71 -0.24,0.89 -0.16,2.85 -0.32,3.91 -0.57,1.07 -1.15,1.96 -1.72,2.85 -2.04,5.52 -3.27,8.32 -1.79,9.21 0.17,0.36 0.41,0.53 0.58,0.71 3.97,3.91 6.45,6.13 6.54,7.55 -0.73,1.96 -1.14,2.98 -1.88,3.69 -0.74,0.54 -1.56,1.07 -2.38,1.43 -0.25,0.54 -0.49,1.07 -0.74,1.42 -0.74,0.71 -1.4,1.43 -2.05,2.14 -0.25,0 -0.49,0 -0.74,0 -0.66,-0.35 -1.4,-0.89 -2.15,-1.42 -1.73,-1.24 -3.22,-1.95 -3.96,-1.95 -0.91,0 -1.9,0 -2.8,0 -0.74,0 -0.74,0.71 -1.48,1.42 -0.74,0.71 -1.84,1.58 -2.67,2.29 0,0.71 -0.07,1.52 0.01,2.05 0.74,0.71 1.53,1.25 2.44,1.96 0,0.35 0,0.53 0,0.71 -1.07,0 -1.75,-0.25 -2.73,-0.25 -0.49,0.53 -1.15,1.15 -1.65,1.69 -0.65,1.25 -0.7,4.26 0.79,7.81 0.75,2.31 2.05,2.95 4.52,2.95 0.41,0 0.91,-0 1.4,-0 0.5,0.53 0.99,1.07 1.49,1.6 0.25,0.53 0.5,1.07 0.75,1.42 0,0.35 0,0.89 0,1.42 0.5,0.53 0.99,1.06 1.49,1.42 0.66,0.71 1,2.13 1,2.84 0,1.07 0.01,1.96 0.09,2.85 -0.25,0.35 -0.49,0.71 -0.66,1.07 -0.25,0 -0.47,-0.39 -0.71,-0.39 -0.25,-0.35 -0.52,-0.32 -0.77,-0.68 -0.64,0 -1.75,-0.31 -2.65,0.05 -0.49,0.35 -1.21,1.73 -1.62,2.09 -0.99,0.54 -2.47,1.43 -3.54,1.96 -0.74,0.71 -2.71,1.96 -3.45,2.67 -0.25,0.35 0.17,0.71 0,1.24 0.25,1.42 0.42,2.67 0.67,3.91 0.83,2.67 2.24,4.98 2.99,5.69 2.48,2.31 4.73,3.14 7.03,3.13 0.66,-0.18 1.54,-0.83 2.28,-1.19 1.73,-0.72 2.3,0.22 3.79,0.93 0.66,0.89 1.57,0.98 2.32,1.69 2.48,2.13 4.79,3.95 7.02,4.66 1.65,-0 3.87,-0.01 5.6,-0.18 0,-0.18 -0,-0.36 -0,-0.71 0.25,-0.54 0.68,-0.89 0.92,-1.43 0.66,-0.36 1.32,-0.89 2.06,-1.43 0.41,-0.53 0.9,-1.07 1.39,-1.6 0.66,-0.54 2.47,-1.25 4.53,-1.25 1.2,-0.06 2.46,0.08 3.36,-0.18 1.76,-0.51 2.69,-1.73 3.12,-3.03 -0.01,-2.85 -0.1,-5.69 -0.11,-8.72 -0.17,-0.36 -0.42,-0.53 -0.66,-1.07 -0,-0.89 0.66,-0.89 1.32,-0.89 2.72,-0 5.44,-0.18 8.16,-0.19 3.46,-0.54 5.35,-0.01 5.44,0.88 -0.25,0.36 -0.49,0.53 -0.74,0.71 -1.8,2.32 -1.87,4.2 -0.06,4.91 0.5,0.36 0.99,0.53 1.49,0.71 0.25,0.18 0.41,0.36 0.66,0.53 0.75,1.24 2.15,1.42 2.81,1.42 0.82,-0 1.65,-0 2.55,-0 0.82,-0.53 1.73,-1.07 2.71,-1.61 0.9,-0.71 1.89,-1.61 2.88,-2.67 0.73,-1.96 1.99,-4.71 2.8,-6.84 0.25,-0.18 0.49,-0.36 0.74,-0.71 -0.09,-0.54 -0.45,-1.1 -0.45,-1.63 2.88,-0 4.95,0.03 7.62,0.02 0.33,-0.36 1.35,-1.64 1.84,-2.17 0.66,-0.54 1.39,-1.25 2.13,-1.96 0.41,-0.53 1.23,-0.89 1.72,-1.6 1.07,-0.71 1.39,-3.56 0.64,-6.41 -0.34,-1.78 -0.07,-3.52 -0.49,-5.3 -0.01,-3.56 -1.45,-6.98 -2.11,-9.11 -0.75,-1.42 -1.49,-2.13 -2.89,-2.13 -1.07,0 -2.14,0 -3.13,0.18 -1.48,-0.53 -2.23,-1.24 -2.89,-2.13 -1.24,-1.78 -2.4,-3.38 -3.64,-5.33 0.49,-0.18 0.99,-0.36 1.48,-0.72 0.16,-0.53 0.41,-0.89 0.65,-1.42 -0,-0.54 -0,-1.07 -0.01,-1.78 -0.25,-0.71 -0.5,-1.42 -0.67,-2.14 -0.09,-0.71 0.65,-1.42 1.31,-2.14 0.41,-0.18 0.9,-0.36 1.4,-0.72 0.74,-0.71 1.8,-2.67 1.71,-4.98 0.25,-0.18 0.49,-0.71 0.74,-1.25 0.33,-0.89 0.24,-1.96 0.65,-3.03 0.17,-0.18 0.41,-0.54 0.66,-0.89 0,-0.18 -0,-0.36 0.08,-0.71 0.08,-0.18 0.33,-0.36 0.57,-0.71 0.65,-1.78 1.39,-3.38 2.12,-5.16 -0,-0.71 0.32,-1.23 0.31,-2.12 0.16,-0.18 0.41,-0.54 0.74,-0.89 0.41,-0.89 0.58,-1.97 1.07,-2.86 0.57,-1.6 1.14,-3.38 1.71,-4.98 -0.66,-0.18 -1.24,-0.18 -1.81,-0.53 -0.66,-0.71 -2.06,-0.71 -4.28,0.01 -1.07,0 -2.14,0 -3.21,0.01 -2.8,0.01 -3.55,-1.24 -2.82,-5.16 0.16,-0.54 0.41,-1.07 0.65,-1.6 0.25,-0.18 0.49,-0.36 0.74,-0.72 -0,-0.35 -0,-0.89 -0,-1.42z"/>
 </g>
</svg>
