<?xml version="1.0" encoding="UTF-8"?>
<!DOCTYPE svg PUBLIC "-//W3C//DTD SVG 1.1//EN" "http://www.w3.org/Graphics/SVG/1.1/DTD/svg11.dtd">
<!-- Creator: CorelDRAW 2021 (64-Bit) -->
<svg xmlns="http://www.w3.org/2000/svg" xml:space="preserve" width="0.618748in" height="0.364157in" version="1.1" shape-rendering="geometricPrecision" text-rendering="geometricPrecision" image-rendering="optimizeQuality" fill-rule="evenodd" clip-rule="evenodd"
viewBox="0 0 149.84 88.19"
 xmlns:xlink="http://www.w3.org/1999/xlink"
 xmlns:xodm="http://www.corel.com/coreldraw/odm/2003">
 <g id="Layer_x0020_1">
  <metadata id="CorelCorpID_0Corel-Layer"/>
  <path fill="none" fill-rule="nonzero" stroke="#336666" stroke-width="0.73" stroke-miterlimit="2.61313" d="M142.79 32.7c-0.42,-0.45 -0.85,-0.9 -1.27,-1.66 -0.21,0 -0.42,0 -0.63,0 -0,-0.15 -0,-0.3 -0,-0.61 -0.64,-1.36 -2.25,-1.34 -4.15,-0.57 -0.42,0 -0.84,0.01 -1.26,0.01 -0.21,-0.15 -0.42,-0.3 -0.63,-0.6 -0.42,-0.15 -0.91,-0.3 -1.27,-0.75 -0.77,-0.6 -1.55,-1.05 -2.25,-1.65 -0.43,-1.06 -0.92,-1.96 -1.35,-3.02 -0.63,-0.9 -2.53,-1.49 -6.61,-1.31 -1.9,0.02 -2.52,0.78 -2.45,3.2 -0.21,0.31 -0.49,0.46 -0.7,0.61 -0.21,0 -0.42,0 -0.63,0.01 -0.21,0.46 -0.42,0.76 -0.56,0.91 -0.56,0.31 -1.12,0.46 -1.61,0.62 -0.63,0.31 -1.26,0.47 -1.96,0.62 -0.42,0.16 -0.84,0.16 -1.26,0.16 -0.21,0.31 -0.42,0.46 -0.56,0.61 -0.49,0 -0.91,0.01 -1.33,0.01 -0.7,0.46 -1.4,0.62 -2.17,0.78 -3.23,0.18 -6.11,-0.55 -8.01,-0.99 -1.27,-0.59 -2.6,-1.19 -3.87,-2.7 -0.57,-1.06 -1.13,-2.26 -1.63,-3.47 -0,-0.3 -0,-0.76 -0,-1.36 -0.42,-0.45 -0.92,-0.9 -1.34,-1.35 -0.42,-0.6 -0.85,-1.51 -1.27,-2.26 -0.21,-0.15 -0.42,-0.45 -0.63,-0.75 -0.42,0 -0.91,0.01 -1.26,0.01 -0.98,0.01 -1.9,-0.29 -2.88,-0.58 -0.42,0.31 -0.84,0.61 -1.19,0.77 -0.21,-0.15 -0.49,-0.45 -0.7,-0.75 -0.21,0 -0.42,0 -0.63,0.01 -0.21,-0.15 -0.42,-0.3 -0.63,-0.6 -1.9,-0.44 -3.44,-0.43 -5.41,-0.41 -1.12,0.16 -2.11,0.17 -3.09,0.18 -0.98,0.46 -1.89,0.92 -2.87,1.23 -0.21,0.31 -0.42,0.61 -0.63,0.92 -1.82,1.53 -3.5,3.06 -5.25,4.44 -0.42,0.46 -0.84,0.76 -1.33,0.92 -0.63,0.01 -1.26,0.01 -1.83,0.02 -0.21,0.31 -0.42,0.46 -0.63,0.61 -0.42,0.31 -0.84,0.46 -1.19,0.62 -0.77,0.01 -1.61,0.16 -2.32,0.17 -0.42,0.31 -0.84,0.46 -1.26,0.62 -1.19,0.92 -3.16,-0.58 -5.42,-2.98 -0.92,-0.9 -1.76,-1.95 -2.61,-3.01 -0,-0.45 -0,-0.91 -0,-1.52 -1.06,-0.75 -1.97,-1.35 -2.89,-2.4 -0.92,-0.6 -1.76,-1.2 -2.6,-1.95 -0.56,0.01 -1.9,-0.89 -2.54,-2.25 -0.63,-0.75 -1.34,-1.35 -2.89,-1.94 -1.12,0.01 -2.18,0.17 -3.23,0.18 -1.13,-0.14 -2.25,-0.28 -3.44,-0.58 -0.21,0 -0.42,0 -0.63,0.01 -0,-0.61 -0,-1.06 -0.01,-1.52 -0.21,-0.15 -0.42,-0.3 -0.63,-0.45 -0.21,-0.45 -0.42,-1.06 -0.71,-1.66 -0.07,-0.76 -0.01,-1.82 -0.01,-2.73 -0.28,-0.45 -0.49,-0.9 -0.71,-1.36 -0.21,-0.3 -0.42,-0.45 -0.63,-0.75 -0.84,0.46 -1.75,1.08 -2.52,1.54 -2.17,0.78 -3.37,1.39 -4.06,3.52 -0.21,1.06 -0.41,1.97 -0.55,2.88 0,0.3 0,0.76 0,0.91 -0.63,1.37 -1.25,2.74 -1.81,3.95 -0.91,1.22 -2.17,1.23 -4,1.25 -1.62,0.01 -3.23,0.18 -4.7,0.19 -1.89,0.62 -4.42,2.16 -6.59,4.15 -1.05,1.37 -2.1,2.59 -3.08,3.96 0,0.3 0,0.45 0,0.61 -0.42,0.31 -0.91,0.61 -1.26,0.77 -0.49,1.22 -0.98,2.28 -1.46,3.19 -1.25,2.43 -1.25,5.16 0.17,8.48 0.28,0.3 0.56,0.75 0.92,1.05 0.35,-0 0.77,-0.01 1.19,-0.01 0.21,0.3 0.49,0.45 0.7,0.6 0.21,-0 0.42,-0 0.63,-0.16 0.21,0.3 0.42,0.45 0.63,0.6 0.21,-0 0.42,-0 0.63,-0 0.49,0.45 0.92,1.05 1.34,1.5 0.64,1.21 2.25,1.8 4.08,2.54 0.49,-0 0.91,-0.01 1.33,-0.01 0.63,0.6 1.9,0.59 3.44,0.43 0.56,-0 1.26,-0.01 1.9,-0.02 1.97,-0.02 3.17,3 3.89,7.99 0,0.76 0,1.36 0.01,2.12 1.12,-0.16 2.32,-0.17 3.44,-0.18 0.49,0.3 0.91,0.45 1.34,0.59 0.42,-0 0.84,-0.01 1.26,-0.16 1.2,0.59 2.32,1.19 3.52,1.79l0.05 -0.04 -0 -0 -0 -0.01 -0 -0.01 -0 -0.01 -0 -0.01 -0 -0.01 -0 -0 -0 -0 -0 -0.01 -0 -0.01 -0 -0.01 -0 -0.01 -0 -0.01 0 -0.01 -0 -0 -0 -0.01 -0 -0.01 -0 -0.01 -0 -0.01 -0 -0.01 -0 -0.01 -0 -0.01 -0 -0.01c0.2,-0.15 0.41,-0.31 0.61,-0.61 0.77,-0.31 1.54,-0.93 2.45,-1.4 0.7,-0.16 1.4,-0.32 2.24,-0.79 0.56,-0.47 1.19,-0.93 1.82,-1.4 0.84,-0.47 1.61,-1.09 2.45,-1.86 1.19,-0.16 2.32,-0.33 3.51,-0.64 1.82,-0.94 2.52,-1.56 3.16,-0.95 0.28,0.31 0.56,0.61 0.92,0.76 0.21,0.61 0.42,1.07 0.64,1.69 -0.18,0.18 -0.36,0.36 -0.54,0.55 -1.32,1.45 -2.7,3.02 -4.08,4.45l0 0.01 0 0.02 0 0.01 0 0.05 0 0.02 0 0.01 0 0.02 0 0.01 0 0.02 0 0.06 0 0.01 0 0.02 0 0 0 0.1 0 0.08 0 0.02 0 0 0 0.02 0 0.2 0 0 0 0.2 0 0.02 0 0.2 0 0.01 0 0.07 0 0.02 0 0 0 0.02 0 0.07 0 0 0 0.02 0 0 0 0.02 0 0c0.33,0.2 0.63,0.34 0.92,0.5 0.14,0.03 0.28,0.06 0.42,0.11 0.45,1.27 0.89,2.38 1.34,3.51l0.01 0.02 0 0 0.57 1.37c1.5,3.25 2.67,5.31 3.85,6.05 0.16,0.09 0.31,0.16 0.46,0.21l0.27 0.19c1.59,1.03 3.13,1.87 4.66,2.51 2.35,0.94 4.77,1.4 7.23,1.29 1.26,-0.01 2.46,-0.02 4.28,-0.64 0.98,-0.77 1.89,-1.23 2.87,-1.84 0.06,-0.04 0.12,-0.08 0.17,-0.13 0.15,-0.17 0.3,-0.39 0.45,-0.61 0.35,-0.16 0.77,-0.31 1.19,-0.78 0.42,-0.31 0.84,-0.78 1.26,-1.24 0.42,-0.31 0.84,-0.47 1.26,-0.78l0.06 -0.12c0.42,-0.96 0.88,-1.5 1.37,-1.66 1.01,-0.48 2.05,0.68 3.35,2.97 0.36,0.69 0.52,1.77 0.72,2.94l0 0.01 0.02 0.09 0 0.01c0.15,0.85 0.32,1.73 0.62,2.56l0.01 2.7c0.21,0.77 0.43,1.68 0.64,2.45 0.98,0.61 2.25,1.21 3.52,2.12 0.42,0.3 0.92,0.45 1.34,0.45 0.35,-0 0.77,-0.01 1.19,-0.01 0.7,0.3 2.26,0.45 3.03,0.6l0.97 -0.01c0.97,-0.64 1.61,-1.75 1.96,-3.1 0.28,-0.31 0.49,-0.61 0.7,-0.92 0.35,-0 0.77,-0.01 1.19,-0.01 0.21,0.6 0.43,1.21 0.64,1.81 0.21,0.3 0.42,0.45 0.63,0.6 1.62,0.74 3.17,1.64 4.85,2.54 1.97,0.59 2.88,1.04 3.03,2.7 0.01,1.97 1.27,2.72 4.36,2.69 1.83,0.29 3.58,0.73 5.41,1.02 0.42,-0 0.84,-0.01 1.26,-0.01 1.34,0.59 1.97,-0.17 2.88,-0.78 0.21,-0.61 0.42,-1.37 0.63,-1.97 0.42,-0.16 0.84,-0.31 1.26,-0.62 0.14,-0.46 0.42,-1.06 0.63,-1.82 0.21,-0.15 0.42,-0.31 0.63,-0.61 0.35,-0.16 0.77,-0.16 1.19,-0.16 0.42,-0.15 0.84,-0.31 1.26,-0.62 1.12,-0.01 2.32,-0.02 3.51,-0.18 -0.07,-0.76 -0.08,-1.82 -0.08,-2.73 -0.21,-0.15 -0.42,-0.6 -0.64,-1.06 -0.21,-0.15 -0.42,-0.6 -0.63,-0.9 -0.08,-1.36 -0.08,-2.88 -0.09,-4.24 0.14,-0.3 0.42,-0.76 0.63,-1.37 0,-0.15 -0,-0.3 -0,-0.61 0.21,-0.46 0.42,-1.06 0.63,-1.52 0.14,-0.76 0.35,-1.52 0.62,-2.28 -0.07,-0.76 -0.08,-1.82 -0.08,-2.73 0.35,-0.15 0.77,-0.31 1.19,-0.62 0.21,-0.46 0.42,-1.06 0.7,-1.52 0.21,-0 0.42,-0 0.63,-0.01 0.49,-0.31 0.98,-0.61 1.47,-0.92 0.84,-0.16 1.68,-0.17 2.53,-0.17 0.63,-0.16 1.26,-0.31 1.89,-0.62 0.98,-0.61 1.89,-1.08 2.8,-1.69 0.21,-0.15 0.49,-0.31 0.7,-0.61 0,-0.15 -0,-0.3 -0,-0.61 0.35,-0.46 0.77,-0.92 1.19,-1.37 0.21,-0.46 0.49,-0.91 0.7,-1.37 0.14,-0.31 0.35,-0.76 0.56,-1.07 -0,-0.15 -0,-0.3 -0,-0.61 0.14,-0.76 0.34,-1.82 0.55,-2.73 -0,-0.3 0.07,-0.76 0.07,-1.21 0.14,-0.61 0.35,-1.06 0.56,-1.52 -0,-0.45 -0,-0.91 -0.01,-1.67 0.14,-0.76 0.35,-1.37 0.55,-2.13 0.35,-0.15 0.63,-0.31 0.98,-0.61 -0,-0.3 -0,-0.45 -0,-0.76 0.14,-0.15 0.35,-0.31 0.56,-0.61 0.42,-0.15 0.91,-0.46 1.33,-0.77 0.56,-0.61 1.19,-1.37 1.19,-2.28 -0,-0.45 -0,-0.91 -0.01,-1.52 -0.21,-0.15 -0.49,-0.3 -0.7,-0.6 -0.63,0.01 -1.26,0.01 -1.83,0.02 -0.21,-0.3 -0.42,-0.76 -0.64,-1.21 -0.63,-0.15 -1.12,-0.29 -1.62,-0.75 -0.21,0 -0.42,-0.3 -0.63,-0.6 -0.42,-0.15 -0.84,-0.3 -1.27,-0.59z"/>
 </g>
</svg>
