<?xml version="1.0" encoding="UTF-8"?>
<!DOCTYPE svg PUBLIC "-//W3C//DTD SVG 1.1//EN" "http://www.w3.org/Graphics/SVG/1.1/DTD/svg11.dtd">
<!-- Creator: CorelDRAW 2021 (64-Bit) -->
<svg xmlns="http://www.w3.org/2000/svg" xml:space="preserve" width="0.452039in" height="0.638161in" version="1.1" shape-rendering="geometricPrecision" text-rendering="geometricPrecision" image-rendering="optimizeQuality" fill-rule="evenodd" clip-rule="evenodd"
viewBox="0 0 64.12 90.51"
 xmlns:xlink="http://www.w3.org/1999/xlink"
 xmlns:xodm="http://www.corel.com/coreldraw/odm/2003">
 <g id="Layer_x0020_1">
  <metadata id="CorelCorpID_0Corel-Layer"/>
  <path fill="none" fill-rule="nonzero" stroke="#336666" stroke-width="0.43" stroke-miterlimit="2.61313" d="M19.45 25.76c0.08,-0.32 0.19,-0.65 0.3,-1.05 -0.49,0 -0.99,0 -1.4,0 -1.27,-0.09 -2.51,-0.26 -3.66,-0.53 -0.9,0 -1.77,0 -2.67,0 -1.03,0.09 -2.42,0.71 -3.98,2.31 -0.12,0.18 -0.25,0.27 -0.33,0.36 -0.37,0.27 -0.74,0.53 -1.03,0.62 -0.49,0.62 -0.94,1.24 -1.35,1.77 -0.41,0.44 -0.82,0.98 -1.19,1.42 -0.33,0.36 -1.03,0.36 -1.4,0 -0.25,-0.09 -0.49,-0.18 -0.66,-0.35 -0.12,0.18 -0.25,0.27 -0.37,0.35 -0.33,0.18 -0.61,0.27 -0.9,0.36 -0.29,0.44 -0.66,0.62 -0.61,1.77 0,0.36 0,0.53 0,0.8 0.12,0.44 0.25,0.8 0.37,1.15 0.13,0.26 0.25,0.44 0.33,0.62 0.41,0.44 0.82,0.8 1.28,1.15 0.49,0.18 0.95,0.35 1.44,0.44 0.2,0 0.45,0 0.7,0 0,0.44 0,0.8 0.05,1.15 0.12,0.35 0.17,0.62 0.29,0.97 0,0.62 0.01,1.15 0.05,1.59 0.12,0.18 0.25,0.27 0.37,0.35 0.29,-0 0.58,-0.09 0.86,-0.09 1.03,-0 1.73,0.44 2.1,1.15 0,0.71 0.01,1.42 0.05,2.04 0.21,0.36 0.45,0.71 0.7,0.97 0,0.18 0,0.27 0,0.36 -0.49,0.27 -0.9,0.44 -1.35,0.62 -0.12,0.45 -0.24,0.89 -0.32,1.33 0.12,0.18 0.25,0.36 0.37,0.44 0.12,0.18 0.25,0.36 0.37,0.53 0.2,0 0.45,-0 0.66,-0 0,0.18 0,0.27 0.04,0.36 0.08,0.18 0.21,0.35 0.33,0.44 0.66,0 1.27,-0 1.93,-0 0.25,0.18 0.49,0.35 0.74,0.53 0.49,0.18 1.03,0.27 1.6,0.35 0.21,0 0.41,0 0.66,-0 0.37,0 0.7,-0.62 0.69,-2.31 -0.04,-0.09 -0.04,-0.27 -0.04,-0.44 0.25,-0.27 0.45,-0.62 0.7,-0.98 0.08,-0.18 0.2,-0.44 0.33,-0.62 0.49,-0.18 0.98,-0.45 1.52,-0.71 0.12,-0.18 0.24,-0.35 0.37,-0.53 1.03,-0 2.1,0.8 3.71,2.12 1.07,1.06 1.78,2.75 2.57,4.87 0.37,1.15 1.24,1.51 2.64,1.51 0.78,-0.09 1.52,-0.18 2.3,-0.36 0.57,-0.09 1.15,-0.09 1.73,-0.09 0.74,0.35 1.52,0.62 2.26,0.97 1.44,1.15 2.14,1.77 2.19,2.75 0.37,0.18 0.01,0.97 -0.32,1.33 -0.12,0.35 -0.24,0.71 -0.37,0.89 -0.2,0.18 -0.45,0.36 -0.66,0.53 -0.37,0.36 -0.74,0.71 -1.02,0.98 -0.41,0.44 -0.82,0.89 -1.23,1.33 -0.12,0.27 -0.2,0.44 -0.29,0.71 -0.49,0.18 -0.94,0.27 -1.4,0.36 -0.2,0.18 -0.45,0.35 -0.65,0.53 -0.33,0.09 -0.62,0.09 -0.9,0.09 -0.58,0.09 -1.19,0.18 -1.72,0.18 -1.07,0.53 -1.88,1.86 -2.91,3.64 -0.32,0.98 -0.28,2.39 -0.6,4.34 -0.07,3.55 -0.1,7 -0.13,10.46 0.12,0.35 0.25,0.71 0.37,0.97 0.33,0.18 0.7,0.27 1.03,0.35 0.25,0.09 0.5,0.18 0.74,0.27 1.23,0.71 2.26,0.71 2.63,-0.27 -0.04,-0.09 -0.04,-0.18 -0.04,-0.35 0.25,-0.27 0.49,-0.62 0.74,-0.98 0.08,0.18 0.21,0.18 0.29,0.27 0.29,0.27 0.62,0.44 0.95,0.62 0.12,0.18 0.25,0.26 0.37,0.35 1.19,0 2.34,-0 3.58,-0 0.25,-0.27 0.49,-0.62 0.74,-0.98 0.12,0.27 0.21,0.44 0.33,0.62 0.21,0.09 0.45,0.18 0.7,0.27 0.37,0.27 0.7,0.62 1.07,0.97 1.24,0.71 2.31,1.42 3.38,2.21 0.62,0.26 1.28,0.44 1.93,0.71 0.7,0.62 1.4,1.15 2.14,1.77 1.98,1.06 3.01,1.95 3.38,1.86 0.16,0 0.41,0 0.66,0 0.17,-0.09 0.33,-0.18 0.53,-0.35 0.12,-0 0.25,-0 0.33,-0 -0,-0.89 -0.01,-1.77 -0.01,-2.66 0.08,-0.18 0.16,-0.44 0.29,-0.71 0.12,-0.09 0.25,-0.18 0.37,-0.36 0.2,-0.8 0.41,-1.77 0.65,-2.66 0.2,-0.44 0.37,-0.89 0.61,-1.33 0.2,-0.27 0.45,-0.62 0.7,-0.98 0,0 0,-0.09 -0,-0.18 -0.25,-0.18 -0.49,-0.44 -0.74,-0.8 -0.33,-0.44 -0.66,-1.07 -1.03,-1.42 -0.01,-1.24 0.28,-2.13 0.98,-2.75 0.7,0 1.07,0.62 1.57,1.15 0.37,0 0.74,0 1.11,-0 0.12,0.18 0.25,0.18 0.33,0.27 0.74,-0 1.48,-0 2.26,-0 -0,-0.18 -0,-0.44 -0,-0.71 -0.21,-0.44 -0.41,-0.89 -0.58,-1.42 -0,-0.71 -0.33,-1.24 -0.7,-1.42 -0.12,0 -0.25,0 -0.37,0 -0.12,-0.18 -0.25,-0.35 -0.37,-0.53 -0,-0.18 -0,-0.44 -0,-0.71 0.12,0 0.25,-0.09 0.37,-0.27 0.49,-0.8 1.02,-1.51 1.51,-2.4 0.33,-0.53 0.65,-1.33 1.31,-1.78 0.33,-0.18 0.7,-0.44 1.07,-0.62 0.37,-0.71 1.19,-1.33 1.56,-1.42 0.66,-0.27 1.4,-0.62 1.72,-1.78 0.33,-0.27 0.66,-0.62 0.98,-0.98 0.29,-0.71 0.57,-1.51 0.85,-2.31 -0.04,-0.62 -0.05,-1.42 -0.05,-2.13 -3.88,-3.72 -7.75,-7.53 -11.55,-11.34 -0.45,-0.53 -0.87,-0.97 -1.28,-1.6 -0.33,-0.18 -0.7,-0.44 -1.07,-0.71 -0.37,-0.26 -0.7,-0.62 -1.07,-0.97 -0.1,-0.22 -0.21,-0.5 -0.31,-0.79 0.28,-0.23 0.5,-0.49 0.63,-0.81 0.33,-0.35 0.66,-0.71 1.02,-1.15 0.33,-0.09 0.7,-0.09 1.03,-0.27 0.25,0.27 0.5,0.53 0.74,0.8 0.54,0.18 0.87,0.62 1.61,0.62 0.94,-0.09 1.97,-0.09 2.92,-0.09 0.58,-0.09 1.15,-0.27 1.77,-0.45 0.21,-0 0.45,-0 0.7,-0 0.49,-0.18 1.02,-0.53 1.56,-0.8 0.37,-0.62 0.65,-0.98 0.65,-1.42 0,-0.09 0,-0.18 -0,-0.36 0.7,-0.62 1.35,-1.33 2.05,-2.04 -0.25,-0.27 -0.45,-0.53 -0.7,-0.89 -0.33,-0.8 -0.37,-1.6 -0.05,-2.66 0.08,-0.36 0.2,-0.71 0.32,-1.06 0.29,-0.09 0.53,-0.27 0.86,-0.45 0.2,-0.18 0.45,-0.36 0.7,-0.62 0,-0.18 -0,-0.35 -0,-0.53 0.08,-0.09 0.2,-0.18 0.33,-0.36 -0.04,-0.62 -0.05,-1.15 -0.05,-1.77 0.08,-0.8 0.2,-1.77 0.32,-2.75 -0,-0.44 -0.75,-1.42 -2.35,-2.04 -0.12,-0.09 -0.25,-0.18 -0.37,-0.35 -0.53,0 -1.15,0 -1.73,0 -0.49,-0.27 -1.03,-0.44 -1.56,-0.71 -0.45,0 -0.95,0 -1.4,0 -0.37,-0.18 -0.7,-0.35 -1.07,-0.53 -0.25,-0.09 -0.49,-0.09 -0.74,-0.27 -1.52,-0.35 -2.59,-1.42 -2.97,-3.37 -0.05,-1.33 -0.09,-2.66 -0.1,-3.99 -0.25,-0.09 -0.45,-0.18 -0.7,-0.35 -0.45,0 -0.86,-0.09 -1.28,-0.18 -0.7,-0.97 -1.08,-1.95 -1.08,-3.28 -0.04,0 -0.04,-0.09 -0.04,-0.27 -0.25,-0.09 -0.49,-0.18 -0.66,-0.35 -0.12,-0.09 -0.25,-0.26 -0.37,-0.44 -0.33,0 -0.62,0.09 -0.9,0.09 -0.25,-0.18 -0.45,-0.44 -0.7,-0.71 -0.37,-0.44 -0.74,-0.98 -1.12,-1.59 -0.7,-0.62 -1.07,-1.77 -1.08,-2.75 -0.04,-0.27 -0.04,-0.62 -0.04,-0.97 0.12,-0.36 0.24,-0.71 0.37,-0.98 -0.04,-0.44 -0.04,-0.98 -0.05,-1.51 -0.25,-0.09 -0.49,-0.18 -0.74,-0.35 -0.7,-0.44 -1.48,-0.97 -2.22,-1.5 -0.49,0 -0.99,0 -1.44,0 -0.29,0.18 -0.57,0.27 -0.86,0.36 -0.12,0.18 -0.25,0.27 -0.37,0.35 -0.49,0 -0.95,0 -1.4,0 -0.37,0 -1.07,0.62 -1.72,1.33 -0.2,0.18 -0.37,0.27 -0.53,0.35 0,0.53 0,1.06 0.05,1.42 -0.12,0.18 -0.25,0.27 -0.37,0.36 0,0.62 0,1.15 0.05,1.68 0.12,0.18 0.25,0.44 0.37,0.62 0.41,0.27 0.78,0.53 1.24,0.71 0.12,0.18 0.25,0.27 0.37,0.35 0,0.71 0.01,1.51 0.05,2.22 0.12,0.53 0.25,1.06 0.38,1.51 0,0.27 0,0.53 0.04,0.8 0.08,0.09 0.21,0.18 0.33,0.18 0.12,0.36 0.21,0.71 0.37,0.97 0,0.18 0,0.18 0,0.27 -0.45,0 -0.95,0 -1.4,0 -0.74,0.53 -1.52,0.98 -2.3,1.42 -1.03,0 -1.72,0.53 -2.54,1.77 -0.74,0.71 -1.39,1.42 -2.09,2.22 0,0.18 0,0.35 0,0.44 -0.12,0.18 -0.24,0.36 -0.33,0.53 0,0.18 0,0.36 0,0.44 -0.08,0.18 -0.2,0.36 -0.29,0.53 -0.29,0.18 -0.57,0.27 -0.86,0.36 -0.37,0.44 -0.74,0.97 -1.02,1.42 -0.61,0.62 -1.19,1.33 -1.72,1.95 -1.77,0.09 -3.53,0.09 -5.26,0.09 -0.11,0.32 -0.22,0.57 -0.3,0.87zm4.58 30.26c-0.23,-0.02 -0.43,0.09 -0.63,0.33 -0.12,0.18 -0.25,0.27 -0.29,0.27 -0.12,0 -0.25,0 -0.37,0.09 0,0.53 0,0.98 0.05,1.42 0,0.58 0.33,0.93 0.64,0.97l0 0 0.02 0 0.02 0 0.02 0 0 0 0.02 0 0.02 0c0.53,0 1.07,0 1.56,0 0.37,-0.36 0.37,-0.53 0.33,-0.98 -0,-0.44 -0,-0.97 -0.01,-1.51l-0.02 0 0 -0 -0.06 -0 -0.01 0 -0 -0 -0.01 0 -0 0 -0.02 -0 -0 -0 -0 0 -0.01 -0 -0 0 -0.01 -0 -0 0 -0 -0 -0.01 0 -0 -0 -0 0 -0 -0 -0 0 -0.01 -0 -0 0 -0.01 -0 -0 0 -0.01 -0 -0 0 -0.01 -0 -0 0 -0.01 -0 -0 0 -0.01 -0 -0 0 -0.01 -0c-0.17,-0.04 -0.32,-0.13 -0.46,-0.24 -0.23,-0.19 -0.43,-0.3 -0.62,-0.32l-0.01 -0 -0.01 -0 -0 -0 -0.02 -0 -0.01 0zm-11.08 8.58c-0.2,0.18 -0.45,0.27 -0.66,0.35 -0.37,0 -0.74,0 -1.07,0 -0.25,0.18 -0.49,0.27 -0.7,0.27 -0.24,0.44 -0.49,0.89 -0.65,1.24 0,0.27 0,0.44 0,0.62 0.08,0.26 0.21,0.44 0.33,0.53 0.33,0.31 0.66,0.63 0.99,0.7l0 0 0.02 0 0 0 0.03 0.01 0 0 0.02 0 0 0 0.02 0 0 0 0.02 0 0 0 0.03 0c0.21,0 0.41,0 0.66,0 0.12,-0.09 0.25,-0.18 0.37,-0.36 0.25,0 0.49,0 0.7,0 0.29,-0.09 0.57,-0.18 0.86,-0.35 0.12,0 0.25,0 0.37,0 0.08,-0.27 0.16,-0.62 0.29,-0.89 -0,-0.44 -0,-0.97 -0.01,-1.51 -0.53,-0.09 -1.07,-0.35 -1.61,-0.62l-0 0.01 -0.01 -0.01zm-6.7 -11.34c0,0.53 0,1.15 0.05,1.77 0.12,0.09 0.25,0.18 0.37,0.27 0.24,0.23 0.49,0.54 0.69,0.57l0 0 0 0 0.01 0 0 0c0.11,0.02 0.21,-0.04 0.29,-0.22 0.25,-0 0.49,-0 0.74,-0 0.2,-0.18 0.45,-0.44 0.66,-0.62 -0,-0.09 -0,-0.18 -0,-0.36 -0.08,-0.27 -0.21,-0.53 -0.33,-0.8 -0.04,-0.18 -0.04,-0.44 -0.04,-0.62 -0.12,-0.09 -0.25,-0.18 -0.37,-0.35l-0.01 0 -0 -0c-0.61,0 -1.11,0 -1.68,0 -0.12,0.18 -0.25,0.27 -0.37,0.36z"/>
 </g>
</svg>
