<?xml version="1.0" encoding="UTF-8"?>
<!DOCTYPE svg PUBLIC "-//W3C//DTD SVG 1.1//EN" "http://www.w3.org/Graphics/SVG/1.1/DTD/svg11.dtd">
<!-- Creator: CorelDRAW 2021 (64-Bit) -->
<svg xmlns="http://www.w3.org/2000/svg" xml:space="preserve" width="0.661283in" height="0.34739in" version="1.1" shape-rendering="geometricPrecision" text-rendering="geometricPrecision" image-rendering="optimizeQuality" fill-rule="evenodd" clip-rule="evenodd"
viewBox="0 0 169.85 89.22"
 xmlns:xlink="http://www.w3.org/1999/xlink"
 xmlns:xodm="http://www.corel.com/coreldraw/odm/2003">
 <g id="Layer_x0020_1">
  <metadata id="CorelCorpID_0Corel-Layer"/>
  <path fill="none" fill-rule="nonzero" stroke="#336666" stroke-width="0.77" stroke-miterlimit="2.61313" d="M159.6 55.81c-0.22,-0.16 -0.45,-0.16 -0.67,-0.48 0,0.32 0,0.32 0,0.48 -0.22,0 -0.45,0 -0.67,0 -0.89,0.64 -1.86,1.29 -2.82,1.93 -0.45,0 -0.82,0 -1.19,0 -0.22,-0.32 -0.45,-0.64 -0.67,-1.12 -0.89,0 -1.71,0 -2.53,0 0,0.48 0,0.8 0.01,1.12 -0.22,0.16 -0.44,0.32 -0.67,0.32 -0.3,0.64 -0.59,1.12 -0.89,1.44 -0.44,0.48 -0.89,0.96 -1.33,1.45 -0.59,0.64 -2.45,1.29 -5.35,1.45 -0.89,-0.16 -1.71,-0.32 -2.53,-0.64 -1.64,0 -3.2,0 -4.76,0.01 -0.22,0.32 -0.44,0.48 -0.59,0.8 -0.67,0.32 -1.34,0.32 -1.93,0.49 -0.82,0 -1.71,0 -2.53,0 -2.23,-0.48 -2.86,-1.05 -3.46,-2.5 -0.08,-0.96 -0.08,-2.25 -0.09,-3.54 -0,-0.64 -1.39,-1.19 -2.58,-1.83 -0.82,-0.32 -1.57,-0.8 -2.24,-1.28 -2.09,-0.64 -2.27,-2.73 -2.27,-4.66 -0.08,-1.28 -2.37,-1.93 -4.37,-1.92 -0.9,-0.8 -2.24,-1.28 -2.84,-1.92 -0.45,-0.32 -0.82,-0.96 -1.27,-1.61 -4.09,0.01 -8.19,0.01 -12.13,0.17 0.01,1.61 0.01,2.89 0.02,4.34 0.08,0.64 -0.52,1.29 -1.78,2.09 -1.19,0.16 -2.31,0.32 -3.5,0.33 -0.89,0 -1.71,-0.16 -2.61,-0.16 -1.86,-0.8 -3.2,-0.8 -4.76,0.01 -1.04,-0.32 -2.16,-0.48 -3.13,-0.8 -0.67,0 -1.34,0 -1.94,0 0,0.21 -0.03,0.46 -0.07,0.72l-0.01 -1.04c-0.45,0 -0.82,0.16 -1.19,0.16 -0.44,0.32 -0.89,0.48 -1.26,0.64 -0.45,0 -0.89,0 -1.34,0 -1.86,0 -3.43,-0.96 -4.18,-3.85 -0.22,-0.32 -0.45,-0.8 -0.67,-1.28 -0.22,-0.16 -0.45,-0.48 -0.6,-0.8 -0.67,-1.28 -1.35,-2.73 -2.02,-4.17 0,-0.16 -0,-0.64 -0.01,-1.12 -0.22,0 -0.37,0.16 -0.59,0.16 -0.22,-0.16 -0.45,-0.32 -0.67,-0.64 -0.67,-0.64 -2.23,-0.64 -3.43,-0.64 -0.45,0 -0.89,0 -1.34,0 -1.19,0 -2.53,-0.8 -4.77,-2.88 -0.45,-0.32 -0.9,-0.8 -1.27,-1.28 -2.69,-2.41 -4.26,-4.65 -4.93,-4.97 -0.82,-0.8 -1.72,-1.61 -2.61,-2.25 -3.21,-1.76 -5.45,-4.01 -6.12,-5.45 -1.94,-1.76 -3.29,-3.85 -3.3,-5.94 -0.08,-0.64 -0.01,-1.29 -0.01,-2.09 -0.22,-0.16 -0.45,-0.64 -0.67,-1.12 -0.82,-0.64 -1.57,-1.28 -2.24,-2.09 -0.45,0 -0.89,-0.16 -1.34,-0.48 -0.45,0 -0.89,0 -1.27,0 -0.07,-0.32 -0.08,-0.8 -0.08,-1.44 -0.22,-0.16 -0.38,-0.48 -0.52,-0.8 -4.77,-1.28 -4.85,-2.4 -0.09,-3.85 0.15,-0.48 0.37,-0.96 0.59,-1.61 -0.45,-0.16 -0.89,-0.16 -1.34,-0.48 -0.59,0 -1.12,0 -1.64,0 -0.82,-0.16 -1.71,-0.48 -2.46,-0.8 -1.26,0 -2.53,0 -3.79,0.17 -0.74,0.32 -1.49,0.64 -2.23,0.81 -0.67,0.64 -1.34,1.44 -1.85,2.09 -0.22,0.48 -0.44,0.96 -0.59,1.44 0,0.32 0,0.48 0,0.48 -0.96,0.96 -1.93,1.93 -2.89,2.73 -0.15,0.64 -0.37,1.12 -0.52,1.44 -0.52,0.64 -1.86,1.45 -2.53,1.45 -0.37,0 -0.82,0 -1.19,0 -0.22,-0.16 -0.45,-0.32 -0.67,-0.64 -1.04,-0.48 -1.94,-0.96 -2.91,-1.44 -0.22,0 -0.45,0 -0.67,0 -0.22,-0.16 -0.45,-0.32 -0.6,-0.64 -0.67,0 -1.26,0 -1.94,0 -0.67,-0.64 -1.34,-1.12 -1.94,-1.92 -0.52,0 -1.04,0 -1.56,0 -0.22,0.32 -0.45,0.48 -0.67,0.64 -0.45,0 -0.89,0 -1.26,0 -0.37,-0.16 -0.82,-0.32 -1.27,-0.64 0,0.96 0.01,1.93 0.08,2.73 -0.22,0.64 -0.44,1.45 -0.66,2.09 0,0.48 0,0.96 0.08,1.44 0.01,1.77 0.68,3.85 1.95,5.3 0.67,0.96 1.35,1.93 2.02,2.57 0.52,0.48 0.97,0.96 1.57,1.28 0.45,0 0.89,-0.16 1.34,-0.16 0.22,0.32 0.45,0.64 0.67,0.8 0.3,0.32 0.75,0.48 1.19,0.64 0,0.32 0,0.48 0.08,0.8 0.01,2.09 0.68,3.85 1.95,5.62 0.75,0.16 1.49,0.32 2.31,0.32 0.45,0.32 0.82,0.64 1.27,0.8 0.01,2.57 0.09,4.98 0.17,7.39 0.68,3.21 2.62,5.13 5.38,5.77 0.45,0.32 0.89,0.48 1.34,0.8 0.67,0.32 1.27,0.48 1.94,0.64 0.82,0 1.71,-0 2.53,-0 0.97,0.48 1.94,0.8 2.83,1.28 1.04,-0 2.16,-0 3.13,-0 0.22,0.32 0.45,0.48 0.67,0.64 2.91,1.12 4.25,2.88 4.26,3.69 -0.22,1.77 -0.43,3.53 -0.58,4.98 0.01,1.29 0.01,2.41 0.09,3.53 -0.22,0.32 -0.44,0.48 -0.59,0.64 0,0.32 0,0.48 0,0.64 -0.44,0.48 -0.89,0.8 -1.26,1.13 -0.59,0.48 -1.04,0.8 -1.56,1.13 -0.22,0.64 -0.44,1.12 -0.59,1.61 -0.59,2.25 -0.51,3.37 0.09,4.82 0.45,0.64 0.82,1.12 1.27,1.61 1.19,0.64 2.31,1.28 3.5,1.92 1.12,0.96 2.16,1.44 3.28,2.25 2.24,2.41 4.48,4.65 6.72,6.74 0.97,1.6 1.95,2.89 2.99,4.17 0,0.64 0.67,1.28 1.86,1.28 0.45,-0 0.89,-0 1.34,-0 1.34,-0.81 2.67,-1.61 4.09,-2.41 0.6,0.48 1.27,0.8 1.94,1.12 0.37,0.32 0.82,0.48 1.19,0.48 1.19,-0 2.38,-0 3.5,-0 0.22,0.48 0.45,0.8 0.75,1.12 0.82,0.48 1.64,0.96 2.46,1.28 1.56,-0 3.2,-0 4.76,-0.16 0.59,-0.32 1.19,-0.8 1.86,-1.29 0.74,-0.48 1.41,-1.13 2.23,-1.77 -0.08,-0.32 -0.08,-0.64 -0.08,-1.12 0.44,-0.32 0.89,-0.81 1.33,-1.13 -0.08,-1.12 -0.08,-2.25 -0.09,-3.21 -0.22,-0.32 -0.45,-0.8 -0.67,-1.28 -0.22,-0.16 -0.45,-0.48 -0.6,-0.8 -0,-0.32 -0,-0.64 -0,-0.96 0.15,-0.16 0.3,-0.16 0.52,-0.48l-0.09 -0.06c0.55,0.02 1.15,-0.07 1.73,-0.26 0.6,0 1.19,-0 1.86,-0 -0,-0.16 -0,-0.32 -0,-0.64 0.22,-0.16 0.44,-0.48 0.67,-0.8 0.52,-0.64 1.04,-1.45 1.56,-2.25 0.22,-0.16 0.45,-0.32 0.59,-0.64 0.15,0 0.37,-0 0.59,-0 0.22,-0.16 0.45,-0.32 0.67,-0.48 0.37,-0.32 0.82,-0.64 1.26,-0.97 0.22,0.32 0.45,0.64 0.6,0.96 0,0.16 0,0.32 0,0.48 0.22,0.32 0.45,0.48 0.67,0.64 0.22,0 0.45,0 0.67,0 0.52,0.32 1.04,0.48 1.56,0.64 0.22,0.32 0.45,0.48 0.67,0.8 1.94,1.44 4.47,1.92 6.71,1.92 1.64,-0 3.35,-0 5.06,-0 2.23,-0.81 4.17,-0.81 5.43,-1.61 0.15,0 0.37,-0 0.59,-0 0.22,-0.16 0.45,-0.32 0.67,-0.64 0.52,-0 0.97,-0 1.56,-0 0.15,-0.32 0.37,-0.48 0.59,-0.8 1.93,-0.64 4.46,-1.45 7.96,-1.46 4.84,-0.49 8.04,-0.65 9.9,1.12 1.42,0.96 2.76,1.92 4.18,2.89 4.25,2.4 6.79,3.69 8.05,4.17 0.37,0 0.82,-0 1.26,-0 0.22,0.32 0.45,0.64 0.67,0.96 2.24,0.8 4.1,1.44 6.63,0.64 1.41,-0 2.75,-0 4.17,-0 0.67,-0.81 2.53,-0 4.77,1.12 3.81,3.21 6.71,4.01 7.97,2.56 0.3,0 0.52,0 0.74,0 -0,-0.16 -0,-0.32 -0,-0.64 0.15,-0.48 0.37,-0.97 0.59,-1.45 0.59,-0.64 1.26,-1.13 1.85,-1.93 0.59,-1.77 -0.01,-2.57 -0.68,-3.37 -0.22,0 -0.45,0 -0.59,0 -0.3,-0.48 -0.52,-0.96 -0.68,-1.45 -0.22,-0.48 -0.45,-1.12 -0.68,-1.77 -0.08,-0.48 -0.08,-0.96 -0.08,-1.45 0.22,-0.48 0.44,-1.29 0.66,-2.09 0.22,-0.48 0.44,-0.97 0.67,-1.61 -0.08,-2.09 -0.16,-4.34 -0.1,-6.75 -0.45,0 -0.97,0.16 -1.41,0.16 -0.22,-0.16 -0.45,-0.16 -0.67,-0.48 -0.67,-0.16 -1.42,-0.32 -2.16,-0.64 -0.67,-0.64 -1.27,-1.28 -1.94,-2.09 -0.45,-0.48 -0.9,-1.12 -1.27,-1.77 -0.22,-0.48 -0.45,-1.12 -0.68,-1.77z"/>
 </g>
</svg>
