<svg xmlns="http://www.w3.org/2000/svg" viewBox="0 0 800 1400">
  <path d="M 221.12,989.28 L 221.14,989.29 L 221.32,989.40 L 221.43,989.51 L 221.49,989.58 L 221.54,989.65 L 221.69,989.85 L 221.64,989.98 L 221.62,990.05 L 221.57,990.18 L 221.53,990.31 L 221.49,990.44 L 221.45,990.57 L 221.41,990.70 L 221.38,990.83 L 221.36,990.89 L 221.34,990.96 L 221.33,991.03 L 221.31,991.10 L 221.29,991.16 L 221.26,991.23 L 221.25,991.26 L 221.24,991.30 L 221.22,991.33 L 221.21,991.37 L 221.19,991.40 L 221.11,991.57 L 221.02,991.76 L 220.96,991.99 L 220.93,992.18 L 220.94,992.31 L 220.95,992.44 L 220.95,992.58 L 220.94,992.72 L 220.95,992.86 L 220.96,993.01 L 220.98,993.17 L 220.99,993.33 L 221.00,993.47 L 221.03,993.67 L 221.07,993.85 L 221.13,994.01 L 221.15,994.08 L 221.17,994.15 L 221.18,994.19 L 221.22,994.33 L 221.27,994.52 L 221.30,994.62 L 221.33,994.74 L 221.38,994.89 L 221.44,995.05 L 221.54,995.30 L 221.67,995.60 L 221.85,995.94 L 221.94,996.14 L 222.09,996.48 L 222.14,996.62 L 222.32,997.02 L 222.36,997.11 L 222.52,997.47 L 222.55,997.55 L 222.56,997.57 L 222.62,997.71 L 222.79,997.87 L 222.92,997.94 L 223.01,997.96 L 223.12,997.95 L 223.21,997.95 L 223.38,997.94 L 223.46,997.95 L 223.56,997.96 L 223.67,997.98 L 223.81,998.01 L 223.97,998.08 L 224.08,998.13 L 224.18,998.19 L 224.26,998.27 L 224.37,998.38 L 224.61,998.63 L 224.68,998.71 L 224.73,998.77 L 224.79,998.85 L 224.87,998.93 L 224.94,999.00 L 225.07,999.09 L 225.19,999.13 L 225.29,999.17 L 225.37,999.20 L 225.43,999.21 L 225.49,999.20 L 225.63,999.19 L 225.76,999.17 L 226.21,999.10 L 226.63,999.05 L 226.78,999.03 L 226.89,999.02 L 227.02,999.00 L 227.13,999.10 L 227.26,999.20 L 227.56,999.35 L 227.89,999.54 L 228.06,999.64 L 228.19,999.72 L 228.36,999.80 L 228.46,999.84 L 228.58,999.88 L 228.69,999.92 L 228.77,999.96 L 228.89,1000.01 L 228.93,1000.02 L 229.25,1000.13 L 229.34,999.88 L 229.38,999.72 L 229.41,999.63 L 229.79,999.53 L 229.85,999.52 L 229.95,999.49 L 230.00,999.48 L 230.03,999.55 L 230.06,999.53 L 230.09,999.52 L 230.14,999.50 L 230.17,999.48 L 230.21,999.47 L 230.22,999.47 L 230.24,999.46 L 230.26,999.44 L 230.29,999.44 L 230.30,999.43 L 230.32,999.42 L 230.33,999.42 L 230.35,999.41 L 230.37,999.41 L 230.39,999.41 L 230.41,999.41 L 230.46,999.42 L 230.50,999.43 L 230.55,999.44 L 230.59,999.46 L 230.62,999.47 L 230.63,999.47 L 230.64,999.47 L 230.67,999.44 L 230.68,999.41 L 230.70,999.38 L 230.72,999.33 L 230.78,999.35 L 230.82,999.36 L 230.91,999.40 L 231.05,999.46 L 231.15,999.51 L 231.26,999.56 L 231.39,999.63 L 231.50,999.69 L 231.68,999.79 L 231.82,999.88 L 231.91,999.93 L 232.06,1000.05 L 232.16,1000.12 L 232.23,1000.17 L 232.27,1000.20 L 232.35,1000.27 L 232.49,1000.41 L 232.65,1000.56 L 232.82,1000.74 L 232.92,1000.87 L 232.99,1000.99 L 233.08,1001.12 L 233.16,1001.25 L 233.24,1001.39 L 233.28,1001.47 L 233.34,1001.59 L 233.41,1001.77 L 233.48,1001.93 L 233.52,1002.03 L 233.55,1002.10 L 233.59,1002.22 L 233.66,1002.38 L 233.73,1002.57 L 233.84,1002.81 L 233.93,1003.02 L 234.00,1003.15 L 234.03,1003.20 L 234.06,1003.26 L 234.07,1003.30 L 234.07,1003.31 L 234.09,1003.37 L 234.09,1003.42 L 234.10,1003.49 L 234.13,1003.59 L 234.18,1003.89 L 234.20,1004.01 L 234.21,1004.09 L 234.22,1004.15 L 234.23,1004.21 L 234.24,1004.33 L 234.25,1004.48 L 234.25,1004.54 L 234.26,1004.62 L 234.28,1004.70 L 234.30,1004.80 L 234.32,1004.89 L 234.34,1005.05 L 234.35,1005.12 L 234.35,1005.18 L 234.35,1005.27 L 234.32,1005.43 L 234.29,1005.63 L 234.28,1005.71 L 234.27,1005.84 L 234.27,1005.91 L 234.26,1006.01 L 234.27,1006.09 L 234.27,1006.14 L 234.13,1006.17 L 234.01,1006.16 L 233.91,1006.14 L 233.86,1006.14 L 233.79,1006.13 L 233.74,1006.11 L 233.68,1006.10 L 233.57,1006.06 L 233.44,1006.00 L 233.30,1005.93 L 233.17,1005.86 L 233.17,1005.87 L 233.14,1005.90 L 233.11,1005.92 L 233.08,1005.94 L 233.06,1005.96 L 233.03,1005.97 L 233.02,1005.99 L 233.01,1006.01 L 233.00,1006.03 L 233.00,1006.04 L 232.99,1006.06 L 232.99,1006.07 L 232.98,1006.11 L 232.98,1006.14 L 232.97,1006.14 L 232.95,1006.14 L 232.93,1006.12 L 232.92,1006.12 L 232.89,1006.11 L 232.88,1006.12 L 232.87,1006.12 L 232.85,1006.12 L 232.84,1006.12 L 232.83,1006.13 L 232.82,1006.14 L 232.81,1006.15 L 232.81,1006.17 L 232.81,1006.18 L 232.81,1006.21 L 232.82,1006.24 L 232.82,1006.27 L 232.84,1006.31 L 232.85,1006.34 L 232.86,1006.36 L 232.86,1006.38 L 232.87,1006.39 L 232.87,1006.41 L 232.86,1006.42 L 232.86,1006.43 L 232.83,1006.47 L 232.80,1006.50 L 232.77,1006.53 L 232.73,1006.58 L 232.72,1006.59 L 232.71,1006.61 L 232.70,1006.62 L 232.70,1006.63 L 232.70,1006.65 L 232.70,1006.66 L 232.72,1006.67 L 232.74,1006.69 L 232.81,1006.70 L 232.86,1006.71 L 232.89,1006.71 L 232.92,1006.72 L 232.94,1006.72 L 232.97,1006.72 L 232.99,1006.73 L 233.01,1006.74 L 233.03,1006.75 L 233.05,1006.77 L 233.06,1006.79 L 233.06,1006.81 L 233.06,1006.83 L 233.06,1006.85 L 233.04,1006.87 L 233.01,1006.89 L 232.99,1006.91 L 232.96,1006.92 L 232.92,1006.93 L 232.87,1006.95 L 232.84,1006.95 L 232.81,1006.97 L 232.77,1006.98 L 232.74,1007.01 L 232.71,1007.03 L 232.69,1007.06 L 232.66,1007.08 L 232.64,1007.09 L 232.62,1007.10 L 232.61,1007.10 L 232.59,1007.10 L 232.57,1007.09 L 232.53,1007.09 L 232.51,1007.08 L 232.45,1007.06 L 232.39,1007.06 L 232.37,1007.06 L 232.34,1007.06 L 232.31,1007.07 L 232.30,1007.08 L 232.28,1007.09 L 232.26,1007.11 L 232.24,1007.14 L 232.21,1007.17 L 232.17,1007.24 L 232.15,1007.26 L 232.12,1007.28 L 232.08,1007.30 L 232.05,1007.31 L 232.01,1007.32 L 231.97,1007.32 L 231.95,1007.32 L 231.92,1007.33 L 231.90,1007.34 L 231.88,1007.35 L 231.87,1007.36 L 231.86,1007.38 L 231.85,1007.39 L 231.85,1007.41 L 231.85,1007.43 L 231.85,1007.46 L 231.86,1007.48 L 231.86,1007.52 L 231.86,1007.54 L 231.86,1007.56 L 231.86,1007.58 L 231.83,1007.63 L 231.81,1007.67 L 231.78,1007.73 L 231.77,1007.76 L 231.76,1007.79 L 231.74,1007.81 L 231.73,1007.82 L 231.70,1007.82 L 231.68,1007.82 L 231.65,1007.81 L 231.59,1007.80 L 231.55,1007.79 L 231.51,1007.78 L 231.49,1007.78 L 231.48,1007.78 L 231.46,1007.78 L 231.44,1007.79 L 231.43,1007.81 L 231.42,1007.82 L 231.41,1007.83 L 231.41,1007.86 L 231.42,1007.88 L 231.44,1007.92 L 231.47,1008.00 L 231.50,1008.08 L 231.51,1008.15 L 231.53,1008.21 L 231.55,1008.26 L 231.57,1008.31 L 231.57,1008.35 L 231.58,1008.40 L 231.58,1008.44 L 231.58,1008.48 L 231.57,1008.57 L 231.56,1008.62 L 231.57,1008.67 L 231.57,1008.70 L 231.58,1008.73 L 231.59,1008.78 L 231.60,1008.81 L 231.62,1008.85 L 231.65,1008.91 L 231.67,1008.96 L 231.68,1008.99 L 231.70,1009.03 L 231.70,1009.05 L 231.71,1009.08 L 231.71,1009.11 L 231.71,1009.14 L 231.71,1009.15 L 231.71,1009.16 L 231.70,1009.19 L 231.70,1009.21 L 231.69,1009.24 L 231.67,1009.26 L 231.65,1009.29 L 231.62,1009.33 L 231.57,1009.38 L 231.54,1009.40 L 231.47,1009.44 L 231.40,1009.48 L 231.33,1009.51 L 231.29,1009.53 L 231.27,1009.54 L 231.25,1009.56 L 231.24,1009.58 L 231.23,1009.60 L 231.22,1009.63 L 231.22,1009.67 L 231.21,1009.70 L 231.22,1009.75 L 231.22,1009.79 L 231.23,1009.84 L 231.25,1009.90 L 231.26,1009.94 L 231.25,1009.94 L 231.24,1009.96 L 231.21,1009.97 L 231.17,1009.97 L 231.15,1009.97 L 231.10,1009.97 L 231.05,1009.98 L 230.99,1009.99 L 230.91,1010.01 L 230.87,1010.03 L 230.82,1010.06 L 230.77,1010.10 L 230.73,1010.14 L 230.68,1010.19 L 230.65,1010.24 L 230.62,1010.29 L 230.58,1010.32 L 230.55,1010.35 L 230.50,1010.38 L 230.48,1010.39 L 230.44,1010.40 L 230.38,1010.41 L 230.33,1010.42 L 230.27,1010.42 L 230.22,1010.42 L 230.18,1010.42 L 230.17,1010.42 L 230.14,1010.43 L 230.09,1010.44 L 230.07,1010.46 L 230.05,1010.49 L 230.04,1010.49 L 230.02,1010.53 L 229.99,1010.61 L 229.95,1010.68 L 229.91,1010.72 L 229.86,1010.75 L 229.79,1010.79 L 229.72,1010.81 L 229.69,1010.84 L 229.66,1010.85 L 229.65,1010.87 L 229.62,1010.90 L 229.59,1010.94 L 229.55,1011.00 L 229.53,1011.04 L 229.53,1011.08 L 229.53,1011.13 L 229.55,1011.17 L 229.58,1011.25 L 229.59,1011.28 L 229.59,1011.31 L 229.59,1011.35 L 229.57,1011.42 L 229.52,1011.49 L 229.39,1011.62 L 229.63,1011.90 L 229.85,1012.14 L 230.18,1012.49 L 230.35,1012.66 L 230.65,1012.97 L 230.68,1013.00 L 230.91,1013.23 L 231.09,1013.30 L 231.29,1013.40 L 231.56,1013.54 L 231.82,1013.68 L 231.98,1013.77 L 232.09,1013.83 L 232.38,1014.01 L 232.62,1014.18 L 232.95,1014.40 L 233.38,1014.78 L 233.52,1014.92 L 233.75,1015.12 L 233.89,1015.25 L 233.94,1015.29 L 234.14,1015.48 L 234.27,1015.63 L 234.46,1015.82 L 234.56,1015.92 L 234.79,1016.15 L 234.92,1016.28 L 235.18,1016.53 L 235.37,1016.73 L 235.55,1016.91 L 235.70,1017.08 L 235.73,1017.12 L 235.79,1017.19 L 235.89,1017.33 L 235.97,1017.44 L 236.06,1017.56 L 236.18,1017.73 L 236.25,1017.83 L 236.33,1017.94 L 236.44,1018.12 L 236.58,1018.35 L 236.66,1018.51 L 236.71,1018.60 L 236.77,1018.79 L 236.83,1018.99 L 236.89,1019.20 L 236.96,1019.45 L 237.05,1019.78 L 237.11,1020.06 L 237.13,1020.13 L 237.30,1020.29 L 237.48,1020.45 L 237.83,1020.78 L 238.08,1020.99 L 238.22,1021.12 L 238.33,1021.25 L 238.42,1021.36 L 238.48,1021.47 L 238.54,1021.55 L 238.62,1021.67 L 238.69,1021.77 L 238.77,1021.87 L 238.95,1022.10 L 238.98,1022.13 L 239.06,1022.20 L 239.18,1022.31 L 239.32,1022.43 L 239.52,1022.57 L 239.74,1022.70 L 239.83,1022.74 L 239.91,1022.79 L 240.10,1022.91 L 240.37,1023.10 L 240.53,1022.96 L 240.59,1022.90 L 240.64,1022.86 L 240.64,1022.85 L 240.64,1022.84 L 240.63,1022.84 L 240.57,1022.76 L 240.54,1022.73 L 240.55,1022.67 L 240.56,1022.63 L 240.56,1022.61 L 240.57,1022.59 L 240.62,1022.51 L 240.82,1022.23 L 240.94,1022.06 L 241.01,1021.96 L 241.09,1021.85 L 241.17,1021.74 L 241.21,1021.68 L 241.31,1021.53 L 241.36,1021.45 L 241.51,1021.23 L 241.65,1021.02 L 241.72,1020.92 L 241.90,1020.65 L 241.97,1020.54 L 242.16,1020.26 L 242.26,1020.12 L 242.45,1019.84 L 242.56,1019.67 L 242.70,1019.48 L 242.82,1019.29 L 242.97,1019.06 L 243.14,1019.13 L 243.61,1019.31 L 243.78,1019.37 L 244.11,1019.51 L 244.26,1019.67 L 244.39,1019.85 L 244.48,1019.96 L 244.59,1020.12 L 244.70,1020.27 L 244.76,1020.34 L 244.81,1020.38 L 244.83,1020.40 L 245.07,1020.61 L 245.27,1020.37 L 245.40,1020.23 L 245.59,1020.03 L 245.61,1020.01 L 245.64,1019.98 L 245.84,1020.25 L 245.99,1020.44 L 246.04,1020.50 L 246.21,1020.72 L 246.34,1020.89 L 246.36,1020.92 L 246.59,1021.21 L 246.66,1021.29 L 246.96,1021.69 L 246.97,1021.70 L 246.98,1021.70 L 246.98,1021.71 L 247.08,1021.83 L 247.14,1021.90 L 247.15,1021.90 L 247.18,1021.90 L 247.30,1021.94 L 247.38,1021.96 L 247.55,1021.99 L 247.93,1022.07 L 248.02,1022.17 L 248.10,1022.25 L 248.21,1022.26 L 248.48,1022.29 L 248.55,1022.28 L 248.60,1022.27 L 248.63,1022.27 L 248.64,1022.27 L 248.64,1022.27 L 248.64,1022.28 L 248.65,1022.29 L 248.66,1022.29 L 248.67,1022.30 L 248.68,1022.29 L 248.69,1022.28 L 248.71,1022.27 L 248.72,1022.26 L 248.73,1022.26 L 248.75,1022.26 L 248.77,1022.26 L 248.78,1022.26 L 248.79,1022.27 L 248.80,1022.28 L 248.80,1022.28 L 248.81,1022.27 L 248.81,1022.27 L 248.82,1022.26 L 248.83,1022.26 L 248.87,1022.25 L 248.90,1022.25 L 248.96,1022.25 L 249.04,1022.24 L 249.32,1022.23 L 249.50,1022.23 L 249.76,1022.23 L 249.84,1022.22 L 249.86,1022.12 L 249.89,1021.99 L 249.95,1021.75 L 249.98,1021.64 L 250.55,1021.90 L 250.61,1021.94 L 250.68,1021.96 L 250.68,1021.95 L 250.72,1021.96 L 250.84,1022.00 L 250.85,1021.96 L 250.88,1021.89 L 251.05,1021.97 L 251.12,1021.74 L 251.26,1021.29 L 251.03,1021.15 L 251.13,1020.93 L 251.18,1020.85 L 251.19,1020.81 L 251.20,1020.79 L 251.21,1020.76 L 251.22,1020.75 L 251.23,1020.73 L 251.24,1020.71 L 251.25,1020.69 L 251.28,1020.62 L 251.29,1020.59 L 251.31,1020.55 L 251.34,1020.48 L 251.37,1020.41 L 251.38,1020.40 L 251.39,1020.38 L 251.40,1020.38 L 251.42,1020.37 L 251.44,1020.37 L 251.43,1020.34 L 251.41,1020.31 L 251.39,1020.27 L 251.38,1020.24 L 251.37,1020.24 L 251.37,1020.23 L 251.36,1020.22 L 251.36,1020.22 L 251.36,1020.17 L 251.37,1020.07 L 251.37,1019.97 L 251.73,1020.00 L 251.74,1020.00 L 251.75,1020.00 L 251.78,1019.99 L 251.86,1020.06 L 251.89,1020.07 L 251.91,1020.09 L 251.93,1020.10 L 251.94,1020.10 L 251.96,1020.09 L 252.02,1020.06 L 252.06,1020.05 L 252.08,1020.04 L 252.09,1020.03 L 252.10,1020.02 L 252.10,1020.01 L 252.10,1019.99 L 252.11,1019.99 L 252.12,1020.00 L 252.13,1020.00 L 252.13,1020.01 L 252.13,1020.02 L 252.13,1020.02 L 252.19,1020.07 L 252.23,1020.09 L 252.25,1020.09 L 252.28,1020.09 L 252.33,1020.10 L 252.37,1020.11 L 252.39,1020.13 L 252.44,1020.18 L 252.53,1020.05 L 252.59,1019.96 L 252.69,1019.83 L 252.96,1019.81 L 253.35,1019.79 L 253.47,1019.78 L 253.57,1019.48 L 253.72,1019.04 L 253.83,1018.72 L 253.79,1018.64 L 253.78,1018.61 L 253.76,1018.58 L 253.76,1018.56 L 253.75,1018.55 L 253.74,1018.54 L 253.62,1018.31 L 253.61,1018.29 L 253.61,1018.28 L 253.62,1018.27 L 253.60,1018.26 L 253.55,1018.16 L 253.49,1018.00 L 253.46,1017.94 L 253.46,1017.92 L 253.45,1017.90 L 253.45,1017.89 L 253.45,1017.87 L 253.44,1017.87 L 253.42,1017.82 L 253.35,1017.77 L 253.07,1017.57 L 252.88,1017.44 L 252.82,1017.40 L 252.80,1017.38 L 252.79,1017.37 L 252.81,1017.11 L 252.84,1016.76 L 252.81,1016.76 L 252.71,1016.74 L 252.68,1016.74 L 252.65,1016.74 L 252.53,1016.76 L 252.48,1016.78 L 252.39,1016.79 L 252.36,1016.79 L 252.35,1016.79 L 252.35,1016.79 L 252.34,1016.79 L 252.34,1016.79 L 252.33,1016.79 L 252.33,1016.79 L 252.32,1016.79 L 252.32,1016.79 L 252.31,1016.79 L 252.30,1016.80 L 252.30,1016.80 L 252.30,1016.80 L 252.29,1016.80 L 252.27,1016.78 L 252.26,1016.82 L 252.24,1016.81 L 252.22,1016.81 L 252.20,1016.80 L 252.18,1016.80 L 252.17,1016.80 L 252.18,1016.77 L 252.15,1016.72 L 252.12,1016.70 L 252.09,1016.67 L 252.06,1016.63 L 252.03,1016.58 L 252.01,1016.55 L 252.00,1016.52 L 251.98,1016.51 L 251.97,1016.50 L 251.97,1016.49 L 251.98,1016.47 L 251.99,1016.47 L 251.99,1016.46 L 251.98,1016.43 L 251.97,1016.40 L 251.96,1016.36 L 251.95,1016.35 L 251.93,1016.32 L 251.91,1016.29 L 251.89,1016.27 L 251.89,1016.26 L 251.88,1016.25 L 251.87,1016.24 L 251.87,1016.24 L 251.86,1016.25 L 251.86,1016.26 L 251.85,1016.26 L 251.83,1016.26 L 251.82,1016.26 L 251.84,1016.22 L 251.84,1016.21 L 251.84,1016.19 L 251.84,1016.19 L 251.82,1016.17 L 251.82,1016.16 L 251.82,1016.15 L 251.84,1016.07 L 251.85,1016.02 L 251.85,1016.01 L 251.85,1016.01 L 251.84,1016.01 L 251.84,1016.01 L 251.82,1016.01 L 251.80,1016.01 L 251.80,1016.02 L 251.79,1016.02 L 251.79,1016.02 L 251.77,1016.06 L 251.75,1016.08 L 251.74,1016.08 L 251.74,1016.09 L 251.73,1016.09 L 251.72,1016.08 L 251.72,1016.08 L 251.71,1016.07 L 251.70,1016.03 L 251.70,1016.02 L 251.69,1016.01 L 251.68,1016.00 L 251.68,1016.00 L 251.68,1015.98 L 251.67,1015.97 L 251.66,1015.95 L 251.66,1015.94 L 251.65,1015.94 L 251.65,1015.94 L 251.64,1015.94 L 251.64,1015.93 L 251.64,1015.93 L 251.64,1015.91 L 251.64,1015.90 L 251.64,1015.90 L 251.64,1015.89 L 251.60,1015.88 L 251.59,1015.87 L 251.58,1015.85 L 251.54,1015.81 L 251.52,1015.80 L 251.51,1015.79 L 251.50,1015.78 L 251.50,1015.78 L 251.50,1015.76 L 251.50,1015.75 L 251.49,1015.74 L 251.48,1015.74 L 251.46,1015.72 L 251.45,1015.71 L 251.45,1015.70 L 251.45,1015.69 L 251.45,1015.65 L 251.57,1015.62 L 251.67,1015.59 L 251.79,1015.53 L 252.06,1015.31 L 252.39,1014.98 L 252.40,1014.99 L 252.42,1015.00 L 252.43,1015.01 L 252.45,1015.02 L 252.46,1015.03 L 252.48,1015.03 L 252.50,1015.04 L 252.51,1015.05 L 252.53,1015.05 L 252.55,1015.06 L 252.57,1015.06 L 252.58,1015.07 L 252.60,1015.07 L 252.62,1015.07 L 252.64,1015.08 L 252.65,1015.08 L 252.67,1015.08 L 252.69,1015.08 L 252.71,1015.08 L 252.73,1015.08 L 252.75,1015.08 L 252.77,1015.08 L 252.79,1015.08 L 252.80,1015.08 L 252.81,1015.08 L 252.83,1015.08 L 252.84,1015.07 L 252.85,1015.07 L 252.87,1015.07 L 252.88,1015.06 L 252.90,1015.06 L 252.91,1015.06 L 252.92,1015.05 L 253.48,1014.83 L 253.55,1014.81 L 253.58,1014.80 L 253.62,1014.78 L 253.65,1014.77 L 253.69,1014.76 L 253.72,1014.74 L 253.75,1014.73 L 253.79,1014.71 L 253.82,1014.70 L 253.85,1014.68 L 253.89,1014.66 L 253.92,1014.65 L 253.95,1014.63 L 253.99,1014.61 L 254.02,1014.59 L 254.05,1014.58 L 254.08,1014.56 L 254.11,1014.54 L 254.14,1014.52 L 254.17,1014.50 L 254.19,1014.48 L 254.21,1014.47 L 254.30,1014.40 L 254.39,1014.33 L 254.48,1014.25 L 254.57,1014.18 L 254.66,1014.10 L 254.75,1014.03 L 254.76,1014.02 L 254.84,1013.95 L 254.93,1013.88 L 255.02,1013.80 L 255.11,1013.72 L 255.17,1013.67 L 255.20,1013.64 L 255.29,1013.57 L 255.30,1013.56 L 255.39,1013.48 L 255.42,1013.45 L 255.48,1013.39 L 255.57,1013.32 L 255.58,1013.31 L 255.65,1013.24 L 255.67,1013.22 L 255.76,1013.14 L 255.80,1013.11 L 255.85,1013.05 L 255.95,1012.97 L 256.07,1012.84 L 256.08,1012.83 L 256.13,1012.79 L 256.17,1012.74 L 256.22,1012.69 L 256.26,1012.65 L 256.29,1012.62 L 256.31,1012.60 L 256.35,1012.56 L 256.40,1012.51 L 256.45,1012.47 L 256.50,1012.43 L 256.55,1012.38 L 256.60,1012.34 L 256.65,1012.29 L 256.70,1012.25 L 256.75,1012.20 L 256.80,1012.16 L 256.82,1012.15 L 256.85,1012.12 L 256.90,1012.08 L 256.92,1012.06 L 256.94,1012.05 L 256.95,1012.04 L 256.97,1012.02 L 256.99,1012.01 L 257.00,1012.00 L 257.02,1011.99 L 257.04,1011.98 L 257.06,1011.97 L 257.09,1011.95 L 257.11,1011.94 L 257.14,1011.93 L 257.17,1011.92 L 257.19,1011.90 L 257.20,1011.90 L 257.22,1011.89 L 257.25,1011.88 L 257.28,1011.87 L 257.30,1011.86 L 257.33,1011.85 L 257.36,1011.84 L 257.38,1011.84 L 257.39,1011.83 L 257.41,1011.83 L 257.44,1011.82 L 257.47,1011.81 L 257.50,1011.80 L 257.53,1011.80 L 257.56,1011.79 L 257.56,1011.79 L 257.58,1011.79 L 257.60,1011.78 L 257.62,1011.78 L 257.64,1011.78 L 257.65,1011.78 L 257.67,1011.78 L 257.69,1011.78 L 257.71,1011.78 L 257.71,1011.78 L 257.72,1011.78 L 257.74,1011.78 L 257.76,1011.78 L 257.78,1011.78 L 257.79,1011.79 L 257.81,1011.79 L 257.82,1011.79 L 257.83,1011.79 L 257.84,1011.80 L 257.86,1011.80 L 257.88,1011.81 L 257.89,1011.81 L 257.91,1011.82 L 257.93,1011.83 L 257.94,1011.83 L 257.96,1011.84 L 257.97,1011.85 L 257.99,1011.86 L 258.00,1011.87 L 258.02,1011.88 L 258.03,1011.89 L 258.05,1011.90 L 258.06,1011.91 L 258.11,1011.95 L 258.30,1012.08 L 258.50,1012.24 L 258.76,1012.42 L 259.06,1012.65 L 259.07,1012.65 L 259.16,1012.73 L 259.22,1012.79 L 259.28,1012.84 L 259.34,1012.89 L 259.40,1012.95 L 259.41,1012.95 L 259.46,1013.00 L 259.52,1013.05 L 259.58,1013.10 L 259.65,1013.15 L 259.71,1013.20 L 259.74,1013.23 L 259.77,1013.25 L 259.84,1013.30 L 259.88,1013.34 L 259.90,1013.35 L 259.97,1013.40 L 260.03,1013.45 L 260.09,1013.50 L 260.16,1013.54 L 260.22,1013.59 L 260.28,1013.63 L 260.35,1013.67 L 260.41,1013.70 L 260.46,1013.73 L 260.56,1013.78 L 260.67,1013.83 L 260.78,1013.88 L 260.89,1013.93 L 261.00,1013.98 L 261.11,1014.03 L 261.21,1014.09 L 261.32,1014.14 L 261.43,1014.19 L 261.54,1014.25 L 261.64,1014.30 L 261.75,1014.36 L 261.86,1014.42 L 261.97,1014.47 L 262.07,1014.53 L 262.18,1014.59 L 262.24,1014.62 L 262.28,1014.64 L 262.33,1014.67 L 262.36,1014.68 L 262.40,1014.70 L 262.44,1014.72 L 262.47,1014.74 L 262.51,1014.76 L 262.55,1014.78 L 262.59,1014.79 L 262.63,1014.81 L 262.67,1014.83 L 262.71,1014.84 L 262.75,1014.86 L 262.79,1014.87 L 262.83,1014.89 L 262.87,1014.90 L 262.91,1014.91 L 262.95,1014.93 L 262.98,1014.94 L 263.01,1014.95 L 263.04,1014.95 L 263.06,1014.96 L 263.09,1014.96 L 263.11,1014.97 L 263.14,1014.97 L 263.16,1014.97 L 263.19,1014.97 L 263.22,1014.98 L 263.24,1014.98 L 263.27,1014.98 L 263.29,1014.98 L 263.32,1014.98 L 263.35,1014.98 L 263.37,1014.98 L 263.40,1014.97 L 263.42,1014.97 L 263.45,1014.97 L 263.48,1014.97 L 263.50,1014.96 L 263.53,1014.96 L 263.55,1014.95 L 263.58,1014.95 L 263.61,1014.94 L 263.63,1014.93 L 263.66,1014.93 L 263.68,1014.92 L 263.71,1014.91 L 263.73,1014.90 L 263.76,1014.89 L 263.78,1014.88 L 263.80,1014.87 L 263.82,1014.86 L 263.84,1014.85 L 263.85,1014.84 L 263.87,1014.83 L 263.90,1014.81 L 263.93,1014.79 L 263.97,1014.77 L 264.00,1014.75 L 264.03,1014.74 L 264.06,1014.72 L 264.10,1014.70 L 264.13,1014.68 L 264.17,1014.67 L 264.20,1014.65 L 264.24,1014.64 L 264.27,1014.62 L 264.31,1014.61 L 264.35,1014.59 L 264.38,1014.58 L 264.42,1014.56 L 264.45,1014.55 L 264.47,1014.55 L 264.48,1014.54 L 264.49,1014.54 L 264.50,1014.54 L 264.59,1014.53 L 264.64,1014.53 L 264.69,1014.52 L 264.74,1014.52 L 264.80,1014.51 L 264.85,1014.51 L 264.90,1014.51 L 264.95,1014.50 L 265.01,1014.50 L 265.06,1014.50 L 265.11,1014.50 L 265.16,1014.50 L 265.22,1014.50 L 265.27,1014.50 L 265.33,1014.50 L 265.39,1014.50 L 265.44,1014.50 L 265.50,1014.51 L 265.55,1014.51 L 265.61,1014.51 L 265.66,1014.52 L 265.70,1014.52 L 265.74,1014.53 L 265.78,1014.53 L 265.81,1014.53 L 265.85,1014.54 L 265.89,1014.54 L 265.92,1014.54 L 265.96,1014.54 L 266.00,1014.55 L 266.04,1014.55 L 266.07,1014.55 L 266.11,1014.55 L 266.15,1014.55 L 266.19,1014.54 L 266.22,1014.54 L 266.26,1014.54 L 266.30,1014.54 L 266.34,1014.53 L 266.37,1014.53 L 266.41,1014.53 L 266.45,1014.52 L 266.49,1014.52 L 266.53,1014.51 L 266.57,1014.50 L 266.60,1014.48 L 266.64,1014.47 L 266.68,1014.46 L 266.72,1014.45 L 266.76,1014.44 L 266.80,1014.42 L 266.84,1014.41 L 266.87,1014.40 L 266.91,1014.38 L 266.95,1014.37 L 266.99,1014.35 L 267.02,1014.33 L 267.06,1014.32 L 267.10,1014.30 L 267.13,1014.28 L 267.42,1014.16 L 267.49,1014.13 L 267.56,1014.10 L 267.63,1014.07 L 267.70,1014.04 L 267.77,1014.01 L 267.84,1013.97 L 267.91,1013.94 L 267.97,1013.91 L 268.04,1013.87 L 268.11,1013.84 L 268.18,1013.81 L 268.25,1013.77 L 268.31,1013.73 L 268.38,1013.70 L 268.45,1013.66 L 268.52,1013.62 L 268.58,1013.59 L 268.65,1013.55 L 268.72,1013.51 L 268.78,1013.47 L 268.85,1013.43 L 268.92,1013.39 L 268.98,1013.35 L 269.05,1013.31 L 269.11,1013.26 L 269.18,1013.22 L 269.24,1013.18 L 269.31,1013.14 L 269.34,1013.11 L 269.38,1013.09 L 269.42,1013.07 L 269.46,1013.05 L 269.50,1013.03 L 269.54,1013.01 L 269.58,1012.99 L 269.62,1012.97 L 269.66,1012.95 L 269.70,1012.93 L 269.75,1012.91 L 269.79,1012.89 L 269.83,1012.87 L 269.88,1012.85 L 269.92,1012.83 L 269.96,1012.82 L 270.01,1012.80 L 270.05,1012.78 L 270.71,1012.62 L 270.97,1012.57 L 271.33,1012.51 L 272.19,1012.43 L 272.50,1012.41 L 272.56,1012.40 L 272.57,1012.40 L 272.74,1012.36 L 272.84,1012.34 L 273.15,1012.27 L 273.59,1012.16 L 274.05,1012.01 L 274.67,1011.82 L 274.69,1011.83 L 274.71,1011.84 L 274.73,1011.86 L 274.75,1011.87 L 274.77,1011.88 L 274.79,1011.90 L 274.80,1011.91 L 274.82,1011.93 L 274.84,1011.94 L 274.86,1011.96 L 274.87,1011.97 L 274.89,1011.99 L 274.92,1012.02 L 274.95,1012.05 L 274.98,1012.08 L 275.20,1012.31 L 275.21,1012.32 L 275.22,1012.33 L 275.24,1012.34 L 275.25,1012.36 L 275.27,1012.37 L 275.28,1012.38 L 275.30,1012.39 L 275.31,1012.40 L 275.33,1012.41 L 275.35,1012.41 L 275.36,1012.42 L 275.38,1012.43 L 275.40,1012.44 L 275.42,1012.44 L 275.43,1012.45 L 275.45,1012.46 L 275.47,1012.46 L 275.49,1012.47 L 275.50,1012.47 L 275.52,1012.47 L 275.54,1012.48 L 275.56,1012.48 L 275.57,1012.48 L 275.59,1012.48 L 275.61,1012.48 L 275.63,1012.48 L 275.65,1012.48 L 275.66,1012.48 L 275.68,1012.48 L 275.70,1012.48 L 275.72,1012.48 L 275.74,1012.47 L 275.75,1012.47 L 275.77,1012.47 L 275.79,1012.46 L 275.80,1012.46 L 276.04,1012.38 L 276.06,1012.37 L 276.09,1012.36 L 276.11,1012.35 L 276.14,1012.34 L 276.17,1012.33 L 276.19,1012.32 L 276.22,1012.31 L 276.24,1012.30 L 276.27,1012.28 L 276.30,1012.27 L 276.33,1012.25 L 276.38,1012.24 L 276.42,1012.22 L 276.46,1012.21 L 276.50,1012.19 L 276.54,1012.18 L 276.59,1012.16 L 276.63,1012.15 L 276.67,1012.14 L 276.71,1012.12 L 276.75,1012.11 L 276.79,1012.10 L 276.84,1012.09 L 276.88,1012.08 L 276.92,1012.07 L 277.70,1011.88 L 277.71,1011.87 L 277.71,1011.85 L 277.72,1011.84 L 277.72,1011.83 L 277.73,1011.82 L 277.74,1011.81 L 277.74,1011.80 L 277.75,1011.79 L 277.76,1011.78 L 277.77,1011.78 L 277.78,1011.77 L 277.79,1011.76 L 277.80,1011.75 L 277.81,1011.74 L 277.82,1011.74 L 277.83,1011.73 L 277.84,1011.73 L 277.85,1011.72 L 277.86,1011.72 L 277.87,1011.71 L 278.15,1011.62 L 278.44,1011.53 L 278.76,1011.43 L 279.04,1011.34 L 279.06,1011.33 L 279.09,1011.32 L 279.11,1011.31 L 279.14,1011.31 L 279.17,1011.30 L 279.19,1011.30 L 279.22,1011.29 L 279.24,1011.29 L 279.27,1011.28 L 279.29,1011.28 L 279.32,1011.28 L 279.35,1011.27 L 279.37,1011.27 L 279.40,1011.27 L 279.43,1011.27 L 279.45,1011.27 L 279.48,1011.27 L 279.50,1011.27 L 279.53,1011.27 L 279.56,1011.28 L 279.58,1011.28 L 279.61,1011.28 L 279.73,1011.30 L 279.83,1011.31 L 279.97,1011.34 L 280.12,1011.36 L 280.30,1011.40 L 280.63,1011.46 L 280.96,1011.54 L 281.00,1011.56 L 281.05,1011.58 L 281.09,1011.59 L 281.13,1011.61 L 281.18,1011.64 L 281.22,1011.66 L 281.27,1011.68 L 281.31,1011.70 L 281.35,1011.72 L 281.39,1011.74 L 281.43,1011.76 L 281.47,1011.78 L 281.51,1011.80 L 281.54,1011.82 L 281.58,1011.85 L 281.64,1011.88 L 281.70,1011.92 L 281.76,1011.96 L 281.82,1011.99 L 281.88,1012.03 L 281.94,1012.07 L 281.99,1012.11 L 282.05,1012.15 L 282.11,1012.19 L 282.17,1012.23 L 282.23,1012.27 L 282.28,1012.31 L 282.34,1012.35 L 282.40,1012.39 L 282.53,1012.49 L 282.68,1012.60 L 282.75,1012.65 L 282.81,1012.69 L 282.88,1012.73 L 282.95,1012.77 L 283.01,1012.81 L 283.08,1012.85 L 283.14,1012.89 L 283.20,1012.93 L 283.26,1012.96 L 283.32,1013.00 L 283.38,1013.03 L 283.44,1013.06 L 283.50,1013.10 L 283.53,1013.11 L 283.56,1013.13 L 283.59,1013.14 L 283.62,1013.16 L 283.65,1013.17 L 283.68,1013.18 L 283.71,1013.19 L 283.74,1013.21 L 283.77,1013.22 L 283.80,1013.21 L 283.84,1013.20 L 283.87,1013.20 L 283.90,1013.19 L 283.93,1013.19 L 283.97,1013.18 L 284.00,1013.18 L 284.03,1013.17 L 284.06,1013.17 L 284.10,1013.17 L 284.13,1013.17 L 284.16,1013.16 L 284.19,1013.16 L 284.23,1013.16 L 284.26,1013.16 L 284.29,1013.16 L 284.42,1013.17 L 284.51,1013.17 L 284.59,1013.18 L 284.68,1013.18 L 284.76,1013.18 L 284.85,1013.18 L 284.93,1013.19 L 285.02,1013.19 L 285.10,1013.19 L 285.19,1013.19 L 285.23,1013.19 L 285.27,1013.18 L 285.33,1013.18 L 285.38,1013.18 L 285.40,1013.20 L 285.42,1013.22 L 285.44,1013.24 L 285.46,1013.26 L 285.48,1013.28 L 285.50,1013.30 L 285.52,1013.32 L 285.54,1013.34 L 285.56,1013.36 L 285.59,1013.37 L 285.61,1013.39 L 285.63,1013.41 L 285.65,1013.42 L 285.67,1013.44 L 285.69,1013.45 L 285.73,1013.48 L 285.78,1013.51 L 285.82,1013.54 L 285.86,1013.57 L 285.91,1013.60 L 285.95,1013.63 L 285.99,1013.66 L 286.03,1013.69 L 286.07,1013.72 L 286.11,1013.75 L 286.16,1013.79 L 286.21,1013.82 L 286.26,1013.86 L 286.30,1013.89 L 286.35,1013.92 L 286.40,1013.95 L 286.44,1013.99 L 286.49,1014.02 L 286.54,1014.05 L 286.59,1014.08 L 286.64,1014.11 L 286.69,1014.14 L 286.75,1014.17 L 286.80,1014.20 L 286.86,1014.23 L 286.91,1014.26 L 286.97,1014.28 L 287.02,1014.31 L 287.08,1014.34 L 287.13,1014.36 L 287.18,1014.39 L 287.24,1014.41 L 287.29,1014.43 L 287.34,1014.46 L 287.39,1014.48 L 287.45,1014.50 L 287.50,1014.52 L 287.52,1014.53 L 287.53,1014.54 L 287.55,1014.54 L 287.57,1014.55 L 287.59,1014.55 L 287.60,1014.56 L 287.65,1014.60 L 287.70,1014.63 L 287.75,1014.67 L 287.79,1014.71 L 287.84,1014.74 L 287.88,1014.78 L 287.93,1014.82 L 287.97,1014.86 L 288.08,1014.95 L 288.12,1014.97 L 288.15,1015.00 L 288.19,1015.03 L 288.22,1015.06 L 288.26,1015.09 L 288.29,1015.13 L 288.33,1015.16 L 288.36,1015.19 L 288.40,1015.22 L 288.43,1015.25 L 288.46,1015.28 L 288.48,1015.30 L 288.51,1015.32 L 288.54,1015.34 L 288.56,1015.36 L 288.58,1015.38 L 288.61,1015.40 L 288.63,1015.41 L 288.66,1015.43 L 288.68,1015.44 L 288.70,1015.46 L 288.72,1015.47 L 288.74,1015.48 L 288.76,1015.49 L 288.78,1015.50 L 288.81,1015.52 L 288.83,1015.53 L 288.85,1015.54 L 288.88,1015.55 L 288.90,1015.56 L 288.93,1015.57 L 288.95,1015.58 L 288.97,1015.58 L 289.00,1015.59 L 289.08,1015.61 L 289.17,1015.63 L 289.26,1015.65 L 289.34,1015.67 L 289.43,1015.69 L 289.51,1015.71 L 289.60,1015.73 L 289.77,1015.76 L 289.86,1015.78 L 289.94,1015.80 L 290.03,1015.82 L 290.11,1015.84 L 290.20,1015.86 L 290.28,1015.89 L 290.45,1015.93 L 290.58,1015.97 L 290.61,1015.98 L 290.77,1016.03 L 290.90,1016.07 L 291.04,1016.11 L 291.17,1016.15 L 291.25,1016.18 L 291.32,1016.20 L 291.39,1016.23 L 291.44,1016.25 L 291.48,1016.27 L 291.53,1016.28 L 291.57,1016.30 L 291.62,1016.32 L 291.66,1016.33 L 291.71,1016.35 L 291.75,1016.36 L 291.80,1016.38 L 291.84,1016.39 L 291.89,1016.41 L 291.94,1016.42 L 291.98,1016.44 L 292.03,1016.45 L 292.08,1016.46 L 292.13,1016.47 L 292.18,1016.48 L 292.23,1016.49 L 292.27,1016.50 L 292.31,1016.51 L 292.35,1016.52 L 292.39,1016.52 L 292.45,1016.53 L 292.52,1016.53 L 292.58,1016.54 L 292.65,1016.55 L 292.71,1016.56 L 292.78,1016.57 L 292.84,1016.57 L 292.90,1016.58 L 292.96,1016.59 L 293.02,1016.60 L 293.08,1016.61 L 293.14,1016.63 L 293.20,1016.64 L 293.26,1016.65 L 293.33,1016.66 L 293.40,1016.68 L 293.47,1016.70 L 293.54,1016.71 L 293.61,1016.73 L 293.68,1016.75 L 293.75,1016.77 L 293.81,1016.79 L 293.88,1016.80 L 293.94,1016.82 L 294.01,1016.84 L 294.07,1016.86 L 294.14,1016.88 L 294.17,1016.89 L 294.20,1016.90 L 294.23,1016.91 L 294.26,1016.91 L 294.28,1016.92 L 294.31,1016.92 L 294.34,1016.93 L 294.36,1016.93 L 294.39,1016.94 L 294.45,1016.94 L 294.51,1016.95 L 294.58,1016.95 L 294.64,1016.96 L 294.70,1016.96 L 294.76,1016.97 L 294.82,1016.97 L 294.88,1016.97 L 294.94,1016.97 L 295.00,1016.97 L 295.06,1016.98 L 295.13,1016.98 L 295.19,1016.98 L 295.25,1016.97 L 295.31,1016.97 L 295.37,1016.97 L 295.43,1016.97 L 295.49,1016.97 L 295.53,1016.96 L 295.57,1016.96 L 295.60,1016.97 L 295.66,1016.97 L 295.71,1016.97 L 295.77,1016.98 L 295.82,1016.99 L 295.87,1016.99 L 295.93,1017.00 L 295.98,1017.01 L 296.04,1017.01 L 296.09,1017.02 L 296.14,1017.03 L 296.20,1017.04 L 296.25,1017.05 L 296.30,1017.06 L 296.35,1017.07 L 296.41,1017.08 L 296.46,1017.10 L 296.51,1017.11 L 296.56,1017.12 L 296.59,1017.13 L 296.62,1017.14 L 296.64,1017.14 L 296.67,1017.15 L 296.71,1017.17 L 296.75,1017.18 L 296.78,1017.20 L 296.82,1017.21 L 296.86,1017.23 L 296.90,1017.24 L 296.94,1017.26 L 296.98,1017.28 L 297.01,1017.30 L 297.05,1017.32 L 297.09,1017.34 L 297.13,1017.36 L 297.16,1017.38 L 297.20,1017.40 L 297.24,1017.42 L 297.27,1017.44 L 297.31,1017.46 L 297.34,1017.48 L 297.38,1017.51 L 297.41,1017.53 L 297.45,1017.55 L 297.48,1017.58 L 297.52,1017.60 L 297.55,1017.63 L 297.58,1017.65 L 297.62,1017.68 L 297.65,1017.71 L 297.68,1017.73 L 297.71,1017.76 L 297.75,1017.80 L 297.79,1017.83 L 297.83,1017.87 L 297.87,1017.90 L 297.91,1017.94 L 297.95,1017.98 L 297.99,1018.02 L 298.03,1018.05 L 298.06,1018.09 L 298.10,1018.13 L 298.14,1018.17 L 298.18,1018.21 L 298.22,1018.25 L 298.26,1018.29 L 298.30,1018.34 L 298.34,1018.38 L 298.38,1018.42 L 298.42,1018.46 L 298.46,1018.50 L 298.50,1018.55 L 298.55,1018.59 L 298.59,1018.63 L 298.60,1018.64 L 298.62,1018.65 L 298.64,1018.66 L 298.65,1018.68 L 298.67,1018.69 L 298.69,1018.71 L 298.71,1018.72 L 298.75,1018.75 L 298.79,1018.78 L 298.82,1018.80 L 298.86,1018.83 L 298.90,1018.86 L 298.94,1018.89 L 298.97,1018.91 L 299.01,1018.94 L 299.05,1018.96 L 299.09,1018.99 L 299.13,1019.01 L 299.17,1019.04 L 299.21,1019.06 L 299.25,1019.08 L 299.29,1019.11 L 299.33,1019.13 L 299.38,1019.15 L 299.42,1019.17 L 299.49,1019.21 L 299.57,1019.25 L 299.65,1019.29 L 299.72,1019.33 L 299.80,1019.37 L 299.87,1019.41 L 299.95,1019.44 L 300.02,1019.48 L 300.10,1019.52 L 300.18,1019.55 L 300.25,1019.59 L 300.33,1019.62 L 300.40,1019.65 L 314.64,1022.80 L 306.58,1012.03 L 304.27,1008.62 L 303.39,1007.00 L 303.27,1006.78 L 302.42,1005.86 L 302.08,1005.48 L 301.49,1004.74 L 301.33,1004.52 L 301.21,1004.33 L 301.07,1003.96 L 300.93,1003.50 L 300.88,1003.31 L 300.59,1002.20 L 299.72,1002.45 L 299.45,1002.68 L 299.30,1002.80 L 299.17,1002.95 L 299.05,1003.06 L 298.94,1003.16 L 298.83,1003.24 L 298.54,1003.47 L 298.37,1003.66 L 298.32,1003.72 L 298.16,1003.93 L 298.01,1004.15 L 297.91,1004.32 L 297.82,1004.49 L 297.74,1004.62 L 297.73,1004.63 L 297.68,1004.73 L 297.57,1004.95 L 297.47,1005.12 L 297.43,1005.18 L 297.39,1005.23 L 297.34,1005.30 L 297.22,1005.42 L 297.03,1005.53 L 296.88,1005.57 L 296.77,1005.60 L 296.73,1005.61 L 296.60,1005.61 L 296.50,1005.61 L 296.43,1005.60 L 296.37,1005.60 L 296.31,1005.58 L 296.25,1005.57 L 296.19,1005.56 L 296.10,1005.52 L 296.01,1005.47 L 295.95,1005.41 L 295.88,1005.30 L 295.79,1005.11 L 295.76,1004.97 L 295.75,1004.90 L 295.75,1004.74 L 295.77,1004.21 L 295.79,1003.99 L 295.78,1003.85 L 295.73,1003.64 L 295.69,1003.49 L 295.63,1003.35 L 295.52,1003.19 L 295.40,1003.08 L 295.29,1003.03 L 295.18,1003.01 L 295.05,1003.00 L 294.94,1003.02 L 294.80,1003.06 L 294.67,1003.15 L 294.59,1003.23 L 294.53,1003.34 L 294.46,1003.48 L 294.41,1003.61 L 294.39,1003.70 L 294.36,1003.78 L 294.35,1003.90 L 294.34,1003.98 L 294.31,1004.15 L 294.28,1004.33 L 294.27,1004.34 L 294.25,1004.44 L 294.24,1004.47 L 294.22,1004.50 L 294.17,1004.58 L 294.11,1004.65 L 294.02,1004.75 L 293.94,1004.82 L 293.92,1004.83 L 293.80,1004.89 L 293.69,1004.94 L 293.59,1004.97 L 293.44,1005.02 L 293.29,1005.09 L 293.10,1005.18 L 292.95,1005.26 L 292.85,1005.33 L 292.72,1005.44 L 292.58,1005.54 L 292.46,1005.62 L 292.33,1005.69 L 292.21,1005.73 L 292.09,1005.75 L 291.98,1005.76 L 291.88,1005.74 L 291.80,1005.70 L 291.70,1005.64 L 291.59,1005.73 L 291.52,1005.81 L 291.48,1005.87 L 291.47,1005.91 L 291.46,1005.97 L 291.48,1006.04 L 291.50,1006.13 L 291.57,1006.24 L 291.65,1006.34 L 291.66,1006.39 L 291.66,1006.43 L 291.66,1006.48 L 291.66,1006.54 L 291.67,1006.56 L 291.67,1006.58 L 291.68,1006.59 L 291.70,1006.62 L 291.72,1006.65 L 291.75,1006.69 L 291.75,1006.71 L 291.76,1006.72 L 291.76,1006.73 L 291.76,1006.75 L 291.75,1006.76 L 291.74,1006.77 L 291.73,1006.78 L 291.71,1006.79 L 291.68,1006.80 L 291.65,1006.81 L 291.61,1006.81 L 291.54,1006.83 L 291.51,1006.83 L 291.48,1006.84 L 291.44,1006.86 L 291.35,1006.90 L 291.31,1006.92 L 291.27,1006.94 L 291.23,1006.96 L 291.18,1006.98 L 291.16,1006.99 L 291.13,1006.99 L 291.10,1006.99 L 291.05,1007.00 L 291.00,1007.00 L 290.96,1007.00 L 290.94,1007.01 L 290.91,1007.02 L 290.90,1007.03 L 290.89,1007.04 L 290.88,1007.05 L 290.86,1007.07 L 290.84,1007.09 L 290.83,1007.10 L 290.81,1007.12 L 290.78,1007.13 L 290.76,1007.13 L 290.74,1007.13 L 290.72,1007.13 L 290.70,1007.12 L 290.68,1007.10 L 290.60,1007.03 L 290.58,1007.01 L 290.56,1006.99 L 290.53,1006.99 L 290.51,1006.98 L 290.48,1006.98 L 290.45,1006.98 L 290.42,1006.98 L 290.38,1006.99 L 290.35,1007.00 L 290.32,1007.01 L 290.26,1007.03 L 290.21,1007.06 L 290.16,1007.08 L 290.13,1007.08 L 290.10,1007.09 L 290.06,1007.09 L 290.05,1007.09 L 290.03,1007.08 L 290.01,1007.08 L 290.01,1007.07 L 290.00,1007.07 L 289.99,1007.05 L 289.98,1007.04 L 289.98,1007.03 L 289.98,1007.02 L 289.97,1006.98 L 289.97,1006.97 L 289.97,1006.95 L 289.98,1006.89 L 289.98,1006.86 L 289.99,1006.83 L 290.04,1006.60 L 290.05,1006.56 L 290.05,1006.51 L 290.04,1006.48 L 290.03,1006.45 L 290.01,1006.43 L 289.99,1006.40 L 289.96,1006.38 L 289.93,1006.37 L 289.90,1006.37 L 289.86,1006.37 L 289.82,1006.37 L 289.77,1006.37 L 289.73,1006.37 L 289.60,1006.40 L 289.56,1006.41 L 289.52,1006.41 L 289.49,1006.40 L 289.47,1006.39 L 289.45,1006.37 L 289.43,1006.36 L 289.42,1006.33 L 289.41,1006.30 L 289.39,1006.23 L 289.38,1006.20 L 289.38,1006.18 L 289.37,1006.17 L 289.36,1006.15 L 289.34,1006.14 L 289.32,1006.13 L 289.29,1006.13 L 289.27,1006.14 L 289.25,1006.15 L 289.21,1006.17 L 289.17,1006.20 L 289.12,1006.24 L 289.08,1006.29 L 289.04,1006.35 L 289.00,1006.41 L 288.97,1006.46 L 288.92,1006.56 L 288.90,1006.60 L 288.87,1006.63 L 288.83,1006.67 L 288.80,1006.64 L 288.78,1006.61 L 288.77,1006.57 L 288.71,1006.43 L 288.68,1006.34 L 288.65,1006.26 L 288.62,1006.21 L 288.58,1006.15 L 288.56,1006.12 L 288.53,1006.09 L 288.47,1006.03 L 288.43,1005.98 L 288.39,1005.92 L 288.38,1005.91 L 288.37,1005.90 L 288.36,1005.90 L 288.35,1005.90 L 288.33,1005.91 L 288.31,1005.92 L 288.27,1005.95 L 288.21,1005.97 L 288.17,1005.99 L 288.14,1006.00 L 288.11,1006.02 L 288.08,1006.04 L 288.05,1006.06 L 288.03,1006.09 L 288.00,1006.13 L 287.98,1006.15 L 287.96,1006.17 L 287.93,1006.20 L 287.91,1006.22 L 287.89,1006.24 L 287.87,1006.27 L 287.86,1006.29 L 287.85,1006.31 L 287.84,1006.34 L 287.84,1006.35 L 287.83,1006.38 L 287.82,1006.40 L 287.80,1006.41 L 287.79,1006.42 L 287.77,1006.43 L 287.75,1006.43 L 287.74,1006.43 L 287.72,1006.42 L 287.70,1006.41 L 287.66,1006.39 L 287.63,1006.38 L 287.62,1006.37 L 287.59,1006.37 L 287.56,1006.36 L 287.54,1006.35 L 287.52,1006.34 L 287.51,1006.32 L 287.50,1006.31 L 287.50,1006.29 L 287.50,1006.27 L 287.51,1006.24 L 287.51,1006.22 L 287.51,1006.21 L 287.50,1006.20 L 287.49,1006.19 L 287.48,1006.18 L 287.46,1006.17 L 287.44,1006.16 L 287.42,1006.16 L 287.40,1006.16 L 287.37,1006.17 L 287.31,1006.18 L 287.29,1006.19 L 287.27,1006.20 L 287.26,1006.22 L 287.25,1006.23 L 287.24,1006.25 L 287.23,1006.28 L 287.22,1006.32 L 287.21,1006.36 L 287.20,1006.40 L 287.20,1006.45 L 287.20,1006.47 L 287.18,1006.51 L 287.18,1006.52 L 287.17,1006.52 L 287.16,1006.53 L 287.15,1006.54 L 287.13,1006.54 L 287.12,1006.54 L 287.10,1006.54 L 287.08,1006.54 L 287.07,1006.53 L 287.02,1006.50 L 287.01,1006.49 L 286.99,1006.49 L 286.98,1006.49 L 286.97,1006.50 L 286.96,1006.51 L 286.95,1006.52 L 286.94,1006.54 L 286.94,1006.55 L 286.94,1006.57 L 286.94,1006.60 L 286.94,1006.61 L 286.93,1006.63 L 286.93,1006.63 L 286.92,1006.64 L 286.91,1006.64 L 286.89,1006.64 L 286.87,1006.65 L 286.85,1006.65 L 286.84,1006.65 L 286.83,1006.65 L 286.82,1006.66 L 286.81,1006.67 L 286.81,1006.68 L 286.80,1006.69 L 286.80,1006.71 L 286.80,1006.75 L 286.79,1006.76 L 286.79,1006.77 L 286.78,1006.78 L 286.77,1006.79 L 286.76,1006.80 L 286.73,1006.81 L 286.72,1006.81 L 286.71,1006.82 L 286.70,1006.83 L 286.69,1006.84 L 286.69,1006.85 L 286.68,1006.88 L 286.68,1006.91 L 286.67,1006.93 L 286.67,1006.95 L 286.66,1006.96 L 286.65,1006.96 L 286.64,1006.96 L 286.63,1006.96 L 286.62,1006.96 L 286.61,1006.95 L 286.61,1006.93 L 286.60,1006.90 L 286.59,1006.89 L 286.58,1006.88 L 286.58,1006.87 L 286.56,1006.87 L 286.56,1006.87 L 286.55,1006.87 L 286.54,1006.87 L 286.54,1006.88 L 286.53,1006.89 L 286.53,1006.90 L 286.53,1006.91 L 286.54,1006.92 L 286.54,1006.94 L 286.54,1006.95 L 286.54,1006.96 L 286.54,1006.97 L 286.53,1006.98 L 286.52,1006.99 L 286.51,1007.00 L 286.50,1007.00 L 286.49,1007.00 L 286.48,1007.00 L 286.47,1007.00 L 286.45,1006.98 L 286.44,1006.97 L 286.43,1006.97 L 286.42,1006.97 L 286.42,1006.98 L 286.41,1006.98 L 286.40,1007.00 L 286.39,1007.01 L 286.39,1007.02 L 286.38,1007.02 L 286.37,1007.02 L 286.36,1007.02 L 286.33,1007.02 L 286.32,1007.02 L 286.31,1007.02 L 286.30,1007.03 L 286.28,1007.04 L 286.26,1007.05 L 286.25,1007.06 L 286.25,1007.08 L 286.24,1007.09 L 286.23,1007.11 L 286.23,1007.13 L 286.22,1007.14 L 286.22,1007.16 L 286.20,1007.16 L 286.13,1007.21 L 286.12,1007.22 L 286.11,1007.22 L 286.09,1007.24 L 286.08,1007.25 L 286.07,1007.26 L 286.05,1007.27 L 286.03,1007.27 L 286.02,1007.28 L 286.01,1007.29 L 286.01,1007.29 L 286.00,1007.30 L 286.00,1007.31 L 285.99,1007.32 L 285.99,1007.33 L 285.99,1007.33 L 285.98,1007.33 L 285.98,1007.33 L 285.96,1007.32 L 285.96,1007.32 L 285.95,1007.32 L 285.95,1007.32 L 285.94,1007.33 L 285.94,1007.33 L 285.93,1007.34 L 285.93,1007.34 L 285.93,1007.36 L 285.93,1007.37 L 285.93,1007.38 L 285.91,1007.41 L 285.91,1007.41 L 285.91,1007.42 L 285.91,1007.43 L 285.91,1007.44 L 285.91,1007.45 L 285.91,1007.46 L 285.94,1007.48 L 285.95,1007.48 L 285.96,1007.49 L 285.96,1007.50 L 285.96,1007.50 L 285.95,1007.51 L 285.95,1007.52 L 285.94,1007.53 L 285.93,1007.53 L 285.90,1007.54 L 285.89,1007.54 L 285.89,1007.55 L 285.89,1007.56 L 285.89,1007.56 L 285.89,1007.57 L 285.91,1007.58 L 285.92,1007.59 L 285.93,1007.60 L 285.93,1007.60 L 285.93,1007.61 L 285.93,1007.61 L 285.93,1007.62 L 285.92,1007.63 L 285.92,1007.63 L 285.91,1007.63 L 285.91,1007.63 L 285.90,1007.63 L 285.89,1007.62 L 285.88,1007.62 L 285.87,1007.62 L 285.87,1007.62 L 285.87,1007.63 L 285.87,1007.64 L 285.86,1007.65 L 285.86,1007.66 L 285.85,1007.66 L 285.84,1007.66 L 285.84,1007.66 L 285.82,1007.64 L 285.81,1007.63 L 285.79,1007.62 L 285.77,1007.62 L 285.77,1007.61 L 285.75,1007.60 L 285.74,1007.59 L 285.72,1007.59 L 285.71,1007.58 L 285.70,1007.58 L 285.69,1007.58 L 285.69,1007.58 L 285.68,1007.57 L 285.68,1007.56 L 285.68,1007.56 L 285.67,1007.56 L 285.65,1007.56 L 285.65,1007.59 L 285.65,1007.61 L 285.64,1007.64 L 285.64,1007.66 L 285.64,1007.68 L 285.63,1007.70 L 285.63,1007.72 L 285.62,1007.73 L 285.62,1007.74 L 285.63,1007.75 L 285.63,1007.75 L 285.62,1007.76 L 285.62,1007.77 L 285.62,1007.78 L 285.62,1007.79 L 285.61,1007.80 L 285.61,1007.81 L 285.61,1007.82 L 285.60,1007.83 L 285.60,1007.83 L 285.60,1007.84 L 285.60,1007.85 L 285.60,1007.85 L 285.60,1007.86 L 285.61,1007.88 L 285.61,1007.89 L 285.61,1007.90 L 285.61,1007.90 L 285.60,1007.91 L 285.59,1007.92 L 285.59,1007.94 L 285.58,1007.95 L 285.58,1007.96 L 285.59,1007.97 L 285.59,1007.98 L 285.59,1007.99 L 285.59,1008.00 L 285.59,1008.01 L 285.58,1008.02 L 285.58,1008.02 L 285.57,1008.02 L 285.56,1008.02 L 285.53,1008.00 L 285.51,1007.99 L 285.48,1007.98 L 285.41,1007.97 L 285.36,1007.96 L 285.35,1007.96 L 285.34,1007.95 L 285.33,1007.95 L 285.31,1007.94 L 285.28,1007.93 L 285.27,1007.93 L 285.26,1007.93 L 285.23,1007.92 L 285.20,1007.92 L 285.18,1007.92 L 285.18,1007.91 L 285.17,1007.90 L 285.16,1007.90 L 285.14,1007.90 L 285.13,1007.90 L 285.13,1007.91 L 285.12,1007.91 L 285.12,1007.91 L 285.11,1007.92 L 285.11,1007.92 L 285.08,1007.94 L 285.01,1007.97 L 285.00,1007.97 L 284.99,1007.98 L 284.99,1008.00 L 284.98,1008.01 L 284.97,1008.01 L 284.97,1008.02 L 284.96,1008.02 L 284.95,1008.02 L 284.95,1008.02 L 284.91,1008.03 L 284.90,1008.03 L 284.89,1008.03 L 284.87,1008.03 L 284.86,1008.03 L 284.86,1008.03 L 284.85,1008.02 L 284.84,1008.02 L 284.84,1008.01 L 284.83,1008.01 L 284.82,1008.00 L 284.82,1008.00 L 284.81,1008.00 L 284.81,1007.98 L 284.80,1007.97 L 284.80,1007.95 L 284.80,1007.94 L 284.79,1007.93 L 284.78,1007.90 L 284.77,1007.90 L 284.76,1007.89 L 284.75,1007.88 L 284.74,1007.88 L 284.74,1007.88 L 284.74,1007.87 L 284.73,1007.86 L 284.73,1007.86 L 284.72,1007.86 L 284.72,1007.86 L 284.70,1007.83 L 284.70,1007.82 L 284.69,1007.82 L 284.68,1007.81 L 284.67,1007.81 L 284.63,1007.80 L 284.62,1007.80 L 284.60,1007.81 L 284.58,1007.82 L 284.54,1007.85 L 284.54,1007.85 L 284.54,1007.86 L 284.54,1007.87 L 284.53,1007.88 L 284.52,1007.90 L 284.51,1007.90 L 284.51,1007.91 L 284.50,1007.93 L 284.49,1007.94 L 284.48,1007.96 L 284.47,1007.97 L 284.46,1007.98 L 284.45,1008.00 L 284.45,1008.01 L 284.42,1008.05 L 284.41,1008.06 L 284.38,1008.09 L 284.37,1008.10 L 284.35,1008.10 L 284.33,1008.10 L 284.31,1008.11 L 284.29,1008.11 L 284.27,1008.12 L 284.24,1008.13 L 284.22,1008.13 L 284.21,1008.12 L 284.20,1008.12 L 284.20,1008.11 L 284.20,1008.10 L 284.18,1008.08 L 284.17,1008.06 L 284.16,1008.03 L 284.16,1008.00 L 284.16,1008.00 L 284.15,1007.97 L 284.14,1007.94 L 284.13,1007.92 L 284.12,1007.89 L 284.11,1007.84 L 284.11,1007.84 L 284.10,1007.82 L 284.07,1007.84 L 284.03,1007.86 L 283.98,1007.89 L 283.95,1007.90 L 283.94,1007.91 L 283.91,1007.92 L 283.90,1007.93 L 283.89,1007.93 L 283.87,1007.94 L 283.86,1007.94 L 283.85,1007.93 L 283.82,1007.93 L 283.80,1007.92 L 283.79,1007.92 L 283.78,1007.92 L 283.76,1007.91 L 283.76,1007.89 L 283.77,1007.87 L 283.78,1007.82 L 283.78,1007.81 L 283.79,1007.78 L 283.81,1007.73 L 283.76,1007.71 L 283.78,1007.67 L 283.79,1007.63 L 283.81,1007.58 L 283.88,1007.59 L 283.91,1007.62 L 283.93,1007.64 L 283.96,1007.66 L 283.97,1007.66 L 283.99,1007.68 L 284.00,1007.69 L 284.01,1007.69 L 284.02,1007.70 L 284.05,1007.72 L 284.06,1007.73 L 284.06,1007.74 L 284.07,1007.74 L 284.07,1007.75 L 284.08,1007.75 L 284.10,1007.76 L 284.11,1007.78 L 284.12,1007.78 L 284.13,1007.78 L 284.14,1007.77 L 284.15,1007.76 L 284.16,1007.76 L 284.17,1007.74 L 284.18,1007.73 L 284.19,1007.73 L 284.19,1007.72 L 284.21,1007.71 L 284.22,1007.70 L 284.25,1007.69 L 284.30,1007.65 L 284.35,1007.62 L 284.40,1007.58 L 284.42,1007.56 L 284.39,1007.53 L 284.38,1007.52 L 284.36,1007.50 L 284.33,1007.48 L 284.30,1007.45 L 284.27,1007.42 L 284.25,1007.39 L 284.22,1007.33 L 284.17,1007.28 L 284.16,1007.26 L 284.15,1007.25 L 284.13,1007.22 L 284.08,1007.16 L 284.04,1007.12 L 284.00,1007.09 L 283.99,1007.08 L 283.98,1007.08 L 283.98,1007.07 L 283.94,1007.09 L 283.82,1007.19 L 283.80,1007.18 L 283.78,1007.17 L 283.75,1007.16 L 283.73,1007.15 L 283.72,1007.15 L 283.71,1007.15 L 283.70,1007.15 L 283.69,1007.15 L 283.66,1007.13 L 283.66,1007.13 L 283.66,1007.11 L 283.65,1007.09 L 283.65,1007.05 L 283.59,1007.04 L 283.57,1007.03 L 283.49,1007.01 L 283.44,1007.00 L 283.39,1006.99 L 283.36,1006.99 L 283.33,1006.98 L 283.32,1007.00 L 283.31,1007.02 L 283.31,1007.03 L 283.31,1007.04 L 283.30,1007.07 L 283.28,1007.10 L 283.27,1007.12 L 283.27,1007.14 L 283.27,1007.16 L 283.26,1007.16 L 283.26,1007.16 L 283.23,1007.15 L 283.11,1007.10 L 282.98,1007.06 L 282.94,1007.05 L 282.92,1007.04 L 282.89,1007.03 L 282.87,1007.01 L 282.86,1007.01 L 282.85,1007.00 L 282.85,1006.99 L 282.83,1006.95 L 282.78,1006.96 L 282.77,1006.97 L 282.76,1006.97 L 282.75,1006.99 L 282.74,1007.00 L 282.73,1007.00 L 282.72,1007.02 L 282.71,1007.04 L 282.71,1007.08 L 282.70,1007.11 L 282.69,1007.15 L 282.69,1007.16 L 282.67,1007.18 L 282.66,1007.21 L 282.64,1007.23 L 282.62,1007.26 L 282.61,1007.27 L 282.55,1007.24 L 282.50,1007.22 L 282.46,1007.20 L 282.44,1007.18 L 282.44,1007.18 L 282.44,1007.17 L 282.45,1007.15 L 282.46,1007.14 L 282.46,1007.13 L 282.48,1007.10 L 282.50,1007.06 L 282.52,1007.03 L 282.53,1007.00 L 282.50,1006.98 L 282.45,1006.93 L 282.41,1006.90 L 282.39,1006.87 L 282.35,1006.81 L 282.33,1006.78 L 282.32,1006.76 L 282.29,1006.70 L 282.26,1006.63 L 282.25,1006.61 L 282.25,1006.60 L 282.24,1006.60 L 282.21,1006.59 L 282.21,1006.57 L 282.20,1006.56 L 282.19,1006.56 L 282.19,1006.55 L 282.19,1006.55 L 282.19,1006.54 L 282.19,1006.50 L 282.20,1006.48 L 282.20,1006.45 L 282.20,1006.43 L 282.19,1006.41 L 282.17,1006.39 L 282.19,1006.36 L 282.22,1006.31 L 282.24,1006.24 L 282.17,1006.22 L 282.16,1006.20 L 282.14,1006.19 L 282.13,1006.18 L 282.13,1006.17 L 282.10,1006.15 L 282.07,1006.12 L 282.04,1006.12 L 282.02,1006.12 L 281.97,1006.12 L 281.88,1006.12 L 281.87,1006.10 L 281.87,1006.08 L 281.87,1006.05 L 281.87,1006.02 L 281.88,1006.00 L 281.88,1005.99 L 281.91,1005.91 L 281.93,1005.89 L 281.96,1005.88 L 281.98,1005.87 L 282.00,1005.86 L 282.02,1005.84 L 282.03,1005.84 L 282.04,1005.84 L 282.05,1005.84 L 282.11,1005.83 L 282.13,1005.83 L 282.15,1005.83 L 282.17,1005.83 L 282.20,1005.84 L 282.21,1005.83 L 282.25,1005.84 L 282.28,1005.84 L 282.32,1005.85 L 282.38,1005.87 L 282.47,1005.88 L 282.52,1005.89 L 282.59,1005.89 L 282.59,1005.82 L 282.60,1005.73 L 282.67,1005.72 L 282.72,1005.72 L 282.74,1005.72 L 282.79,1005.73 L 282.80,1005.71 L 282.81,1005.70 L 282.82,1005.69 L 282.83,1005.69 L 282.84,1005.68 L 282.86,1005.67 L 282.92,1005.62 L 282.93,1005.62 L 282.97,1005.60 L 283.00,1005.59 L 283.03,1005.59 L 283.04,1005.59 L 283.05,1005.57 L 283.06,1005.55 L 283.06,1005.54 L 283.06,1005.54 L 283.07,1005.52 L 283.06,1005.49 L 283.07,1005.47 L 283.08,1005.44 L 283.08,1005.44 L 283.10,1005.44 L 283.12,1005.45 L 283.13,1005.45 L 283.14,1005.45 L 283.16,1005.47 L 283.17,1005.46 L 283.18,1005.42 L 283.19,1005.40 L 283.19,1005.39 L 283.20,1005.34 L 283.22,1005.34 L 283.23,1005.32 L 283.24,1005.30 L 283.25,1005.28 L 283.25,1005.27 L 283.27,1005.24 L 283.28,1005.22 L 283.31,1005.23 L 283.34,1005.24 L 283.38,1005.25 L 283.41,1005.26 L 283.43,1005.27 L 283.44,1005.27 L 283.48,1005.20 L 283.51,1005.14 L 283.53,1005.12 L 283.54,1005.10 L 283.57,1005.07 L 283.61,1005.01 L 283.63,1004.99 L 283.64,1004.98 L 283.66,1004.97 L 283.67,1004.96 L 283.70,1004.95 L 283.71,1004.94 L 283.71,1004.93 L 283.72,1004.93 L 283.73,1004.89 L 283.77,1004.90 L 283.79,1004.90 L 283.81,1004.91 L 283.83,1004.91 L 283.85,1004.92 L 283.87,1004.93 L 283.90,1004.94 L 283.91,1004.94 L 283.94,1004.94 L 283.96,1004.93 L 283.99,1004.92 L 284.01,1004.92 L 284.04,1004.92 L 284.07,1004.93 L 284.10,1004.90 L 284.09,1004.87 L 284.08,1004.85 L 284.07,1004.83 L 284.05,1004.81 L 284.05,1004.80 L 284.04,1004.78 L 284.04,1004.77 L 284.03,1004.76 L 284.03,1004.76 L 284.02,1004.76 L 284.00,1004.76 L 284.00,1004.76 L 283.99,1004.76 L 283.98,1004.75 L 283.97,1004.75 L 283.96,1004.75 L 283.93,1004.75 L 283.92,1004.75 L 283.91,1004.75 L 283.89,1004.74 L 283.86,1004.72 L 283.84,1004.71 L 283.79,1004.69 L 283.75,1004.68 L 283.73,1004.66 L 283.71,1004.63 L 283.70,1004.62 L 283.69,1004.62 L 283.69,1004.62 L 283.68,1004.62 L 283.67,1004.63 L 283.66,1004.63 L 283.66,1004.63 L 283.65,1004.63 L 283.65,1004.62 L 283.65,1004.61 L 283.65,1004.59 L 283.66,1004.57 L 283.66,1004.56 L 283.66,1004.56 L 283.66,1004.55 L 283.65,1004.55 L 283.63,1004.54 L 283.60,1004.54 L 283.60,1004.54 L 283.59,1004.54 L 283.59,1004.53 L 283.57,1004.51 L 283.56,1004.50 L 283.55,1004.49 L 283.53,1004.49 L 283.52,1004.49 L 283.51,1004.49 L 283.50,1004.49 L 283.50,1004.49 L 283.47,1004.49 L 283.45,1004.49 L 283.44,1004.49 L 283.43,1004.48 L 283.43,1004.48 L 283.42,1004.47 L 283.42,1004.46 L 283.41,1004.42 L 283.41,1004.40 L 283.41,1004.39 L 283.42,1004.39 L 283.43,1004.37 L 283.43,1004.36 L 283.43,1004.35 L 283.43,1004.29 L 283.43,1004.19 L 283.42,1004.13 L 283.43,1004.05 L 283.43,1004.04 L 283.42,1004.02 L 283.41,1004.00 L 283.39,1003.99 L 283.38,1003.98 L 283.36,1003.98 L 283.34,1003.98 L 283.33,1003.99 L 283.31,1004.00 L 283.30,1004.01 L 283.29,1004.02 L 283.28,1004.02 L 283.28,1004.02 L 283.27,1004.01 L 283.26,1003.99 L 283.25,1003.98 L 283.23,1003.98 L 283.20,1003.94 L 283.19,1003.94 L 283.18,1003.93 L 283.15,1003.92 L 283.13,1003.91 L 283.12,1003.90 L 283.11,1003.87 L 283.08,1003.84 L 283.08,1003.83 L 283.07,1003.83 L 283.06,1003.83 L 283.05,1003.83 L 283.04,1003.83 L 283.04,1003.83 L 283.03,1003.84 L 283.02,1003.86 L 283.01,1003.88 L 283.00,1003.88 L 282.99,1003.88 L 282.99,1003.88 L 282.95,1003.83 L 282.93,1003.81 L 282.88,1003.76 L 282.85,1003.72 L 282.80,1003.65 L 282.77,1003.61 L 282.76,1003.58 L 282.75,1003.57 L 282.73,1003.57 L 282.72,1003.57 L 282.69,1003.57 L 282.63,1003.60 L 282.60,1003.61 L 282.59,1003.61 L 282.58,1003.61 L 282.57,1003.60 L 282.56,1003.60 L 282.53,1003.58 L 282.50,1003.58 L 282.49,1003.57 L 282.49,1003.57 L 282.48,1003.56 L 282.48,1003.54 L 282.47,1003.48 L 282.46,1003.43 L 282.46,1003.41 L 282.45,1003.40 L 282.42,1003.36 L 282.41,1003.32 L 282.40,1003.31 L 282.38,1003.29 L 282.32,1003.26 L 282.27,1003.26 L 282.24,1003.25 L 282.21,1003.24 L 282.18,1003.22 L 282.14,1003.20 L 282.11,1003.17 L 282.09,1003.14 L 282.06,1003.13 L 282.04,1003.12 L 282.02,1003.11 L 282.03,1003.09 L 282.03,1003.08 L 282.03,1003.08 L 282.03,1003.08 L 282.03,1003.07 L 282.04,1003.07 L 282.05,1003.05 L 282.04,1003.04 L 282.05,1003.03 L 282.04,1003.03 L 282.03,1003.02 L 282.03,1003.00 L 282.02,1002.99 L 282.02,1002.97 L 281.99,1002.92 L 281.98,1002.91 L 281.98,1002.87 L 281.99,1002.81 L 282.00,1002.75 L 281.96,1002.73 L 281.94,1002.73 L 281.92,1002.72 L 281.91,1002.72 L 281.90,1002.71 L 281.89,1002.71 L 281.88,1002.71 L 281.85,1002.73 L 281.85,1002.73 L 281.84,1002.73 L 281.83,1002.73 L 281.83,1002.73 L 281.82,1002.74 L 281.82,1002.74 L 281.81,1002.74 L 281.81,1002.74 L 281.80,1002.74 L 281.80,1002.73 L 281.78,1002.72 L 281.77,1002.72 L 281.76,1002.70 L 281.75,1002.68 L 281.74,1002.67 L 281.74,1002.65 L 281.74,1002.65 L 281.74,1002.64 L 281.67,1002.62 L 281.66,1002.63 L 281.66,1002.64 L 281.67,1002.65 L 281.67,1002.66 L 281.67,1002.66 L 281.66,1002.67 L 281.64,1002.68 L 281.62,1002.68 L 281.61,1002.68 L 281.60,1002.67 L 281.60,1002.67 L 281.60,1002.66 L 281.59,1002.63 L 281.59,1002.61 L 281.59,1002.60 L 281.59,1002.60 L 281.57,1002.60 L 281.55,1002.58 L 281.52,1002.57 L 281.51,1002.55 L 281.50,1002.54 L 281.49,1002.54 L 281.48,1002.53 L 281.48,1002.54 L 281.47,1002.55 L 281.45,1002.57 L 281.43,1002.58 L 281.42,1002.58 L 281.40,1002.59 L 281.39,1002.58 L 281.38,1002.58 L 281.38,1002.57 L 281.38,1002.56 L 281.38,1002.55 L 281.38,1002.54 L 281.38,1002.53 L 281.37,1002.53 L 281.36,1002.53 L 281.36,1002.53 L 281.34,1002.55 L 281.33,1002.55 L 281.32,1002.56 L 281.31,1002.56 L 281.28,1002.56 L 281.28,1002.56 L 281.27,1002.55 L 281.26,1002.54 L 281.27,1002.53 L 281.27,1002.52 L 281.27,1002.50 L 281.26,1002.50 L 281.25,1002.47 L 281.22,1002.53 L 281.19,1002.61 L 281.14,1002.74 L 281.09,1002.87 L 281.08,1002.88 L 281.09,1002.89 L 281.09,1002.91 L 281.07,1002.91 L 281.06,1002.96 L 281.04,1002.96 L 281.02,1002.95 L 281.00,1002.93 L 280.96,1002.89 L 280.94,1002.88 L 280.92,1002.87 L 280.90,1002.86 L 280.88,1002.86 L 280.86,1002.87 L 280.84,1002.89 L 280.83,1002.91 L 280.82,1002.94 L 280.82,1002.96 L 280.82,1002.96 L 280.81,1002.99 L 280.80,1003.01 L 280.79,1003.01 L 280.78,1003.04 L 280.79,1003.05 L 280.75,1003.15 L 280.71,1003.20 L 280.71,1003.25 L 280.69,1003.30 L 280.68,1003.33 L 280.66,1003.37 L 280.63,1003.39 L 280.54,1003.35 L 280.54,1003.35 L 280.53,1003.35 L 280.52,1003.35 L 280.52,1003.36 L 280.51,1003.37 L 280.52,1003.38 L 280.52,1003.39 L 280.51,1003.40 L 280.51,1003.40 L 280.50,1003.40 L 280.49,1003.40 L 280.48,1003.40 L 280.48,1003.40 L 280.48,1003.40 L 280.47,1003.41 L 280.46,1003.42 L 280.45,1003.42 L 280.45,1003.41 L 280.44,1003.42 L 280.43,1003.43 L 280.43,1003.45 L 280.43,1003.46 L 280.43,1003.47 L 280.42,1003.48 L 280.42,1003.48 L 280.41,1003.48 L 280.40,1003.47 L 280.39,1003.47 L 280.38,1003.45 L 280.37,1003.44 L 280.36,1003.43 L 280.35,1003.42 L 280.31,1003.41 L 280.24,1003.39 L 280.23,1003.39 L 280.22,1003.38 L 280.21,1003.37 L 280.19,1003.33 L 280.18,1003.30 L 280.16,1003.28 L 280.15,1003.27 L 280.12,1003.26 L 280.08,1003.25 L 280.04,1003.24 L 280.02,1003.24 L 280.00,1003.22 L 279.99,1003.21 L 279.97,1003.21 L 279.94,1003.22 L 279.92,1003.22 L 279.90,1003.22 L 279.89,1003.22 L 279.87,1003.21 L 279.87,1003.19 L 279.86,1003.18 L 279.86,1003.17 L 279.87,1003.16 L 279.90,1003.15 L 279.91,1003.14 L 279.91,1003.13 L 279.92,1003.13 L 279.92,1003.12 L 279.91,1003.11 L 279.89,1003.09 L 279.87,1003.08 L 279.85,1003.06 L 279.84,1003.05 L 279.83,1003.04 L 279.78,1003.02 L 279.74,1002.99 L 279.72,1002.97 L 279.70,1002.94 L 279.69,1002.93 L 279.67,1002.92 L 279.65,1002.92 L 279.63,1002.90 L 279.61,1002.88 L 279.59,1002.87 L 279.57,1002.86 L 279.54,1002.86 L 279.50,1002.85 L 279.47,1002.84 L 279.44,1002.82 L 279.42,1002.80 L 279.40,1002.79 L 279.37,1002.78 L 279.45,1002.66 L 279.50,1002.52 L 279.53,1002.46 L 279.57,1002.40 L 279.49,1002.35 L 279.38,1002.28 L 279.36,1002.26 L 279.34,1002.25 L 279.31,1002.23 L 279.30,1002.22 L 279.29,1002.21 L 279.26,1002.19 L 279.30,1002.13 L 279.35,1002.06 L 279.39,1002.00 L 279.40,1001.96 L 279.41,1001.92 L 279.41,1001.90 L 279.41,1001.88 L 279.41,1001.87 L 279.42,1001.84 L 279.42,1001.80 L 279.42,1001.77 L 279.42,1001.76 L 279.43,1001.75 L 279.43,1001.73 L 279.44,1001.71 L 279.35,1001.62 L 279.31,1001.58 L 279.26,1001.53 L 279.21,1001.50 L 279.20,1001.49 L 279.19,1001.48 L 279.16,1001.45 L 279.16,1001.45 L 279.15,1001.44 L 279.14,1001.43 L 279.16,1001.39 L 279.30,1001.07 L 279.31,1001.04 L 279.28,1001.02 L 279.21,1000.98 L 279.07,1000.88 L 279.03,1000.85 L 279.00,1000.83 L 278.99,1000.81 L 278.95,1000.80 L 278.90,1000.78 L 278.84,1000.75 L 278.81,1000.73 L 278.77,1000.75 L 278.75,1000.77 L 278.75,1000.78 L 278.74,1000.80 L 278.75,1000.81 L 278.74,1000.83 L 278.74,1000.84 L 278.73,1000.84 L 278.73,1000.84 L 278.70,1000.84 L 278.70,1000.84 L 278.70,1000.83 L 278.65,1000.81 L 278.63,1000.80 L 278.63,1000.79 L 278.62,1000.77 L 278.62,1000.77 L 278.61,1000.77 L 278.61,1000.77 L 278.56,1000.77 L 278.55,1000.77 L 278.54,1000.77 L 278.53,1000.77 L 278.51,1000.75 L 278.49,1000.72 L 278.47,1000.70 L 278.41,1000.62 L 278.40,1000.60 L 278.37,1000.58 L 278.35,1000.57 L 278.34,1000.55 L 278.31,1000.48 L 278.28,1000.44 L 278.27,1000.43 L 278.26,1000.42 L 278.25,1000.42 L 278.23,1000.42 L 278.18,1000.43 L 278.16,1000.44 L 278.14,1000.44 L 278.12,1000.44 L 278.10,1000.43 L 278.09,1000.43 L 278.07,1000.41 L 278.08,1000.37 L 278.08,1000.35 L 278.08,1000.18 L 278.09,1000.07 L 278.09,999.97 L 278.10,999.88 L 278.11,999.85 L 278.12,999.81 L 278.14,999.78 L 278.15,999.76 L 278.15,999.74 L 278.15,999.73 L 278.13,999.71 L 278.11,999.70 L 278.10,999.70 L 278.07,999.70 L 278.06,999.69 L 278.05,999.68 L 278.04,999.67 L 278.04,999.65 L 278.05,999.64 L 278.06,999.63 L 278.08,999.62 L 278.10,999.60 L 278.11,999.58 L 278.12,999.56 L 278.13,999.54 L 278.12,999.52 L 278.10,999.50 L 278.05,999.54 L 278.01,999.57 L 277.99,999.58 L 277.94,999.57 L 277.90,999.55 L 277.87,999.53 L 277.84,999.50 L 277.81,999.47 L 277.80,999.46 L 277.79,999.45 L 277.78,999.45 L 277.76,999.44 L 277.75,999.43 L 277.74,999.42 L 277.72,999.40 L 277.71,999.39 L 277.71,999.38 L 277.70,999.38 L 277.69,999.39 L 277.68,999.40 L 277.66,999.42 L 277.65,999.40 L 277.64,999.40 L 277.64,999.39 L 277.64,999.38 L 277.65,999.37 L 277.66,999.37 L 277.66,999.37 L 277.65,999.36 L 277.65,999.36 L 277.65,999.36 L 277.65,999.35 L 277.65,999.34 L 277.66,999.34 L 277.66,999.33 L 277.66,999.33 L 277.66,999.32 L 277.65,999.31 L 277.64,999.29 L 277.63,999.29 L 277.63,999.29 L 277.62,999.29 L 277.60,999.29 L 277.59,999.29 L 277.59,999.29 L 277.58,999.30 L 277.57,999.30 L 277.56,999.28 L 277.56,999.29 L 277.55,999.29 L 277.54,999.28 L 277.54,999.29 L 277.51,999.25 L 277.45,999.19 L 277.44,999.19 L 277.38,999.14 L 277.39,999.12 L 277.40,999.10 L 277.36,999.05 L 277.33,999.00 L 277.29,998.94 L 277.28,998.92 L 277.19,998.81 L 277.14,998.78 L 277.10,998.72 L 277.08,998.69 L 277.06,998.67 L 277.04,998.65 L 277.01,998.63 L 276.96,998.59 L 276.91,998.55 L 276.90,998.53 L 276.88,998.50 L 276.86,998.48 L 276.84,998.46 L 276.84,998.44 L 276.81,998.41 L 276.78,998.36 L 276.76,998.34 L 276.74,998.32 L 276.72,998.31 L 276.69,998.28 L 276.69,998.27 L 276.68,998.26 L 276.67,998.25 L 276.65,998.21 L 276.64,998.19 L 276.63,998.16 L 276.58,998.09 L 276.56,998.08 L 276.42,998.00 L 276.38,998.03 L 276.29,998.09 L 276.05,998.26 L 275.96,998.30 L 275.93,998.25 L 275.73,998.10 L 275.56,997.97 L 275.43,997.87 L 275.39,997.83 L 275.26,997.72 L 275.16,997.64 L 275.13,997.60 L 275.06,997.51 L 274.93,997.37 L 274.85,997.30 L 274.59,997.06 L 274.44,997.08 L 274.23,997.10 L 273.94,997.13 L 273.82,997.14 L 273.70,997.15 L 273.62,997.16 L 273.45,997.18 L 273.21,997.19 L 273.04,997.21 L 272.93,997.23 L 272.66,997.26 L 272.44,997.27 L 272.10,997.31 L 271.88,997.33 L 271.82,997.34 L 271.64,997.35 L 271.51,997.37 L 271.41,997.38 L 271.33,997.38 L 271.04,997.41 L 270.77,997.43 L 270.58,997.46 L 270.18,997.49 L 269.99,997.51 L 269.96,997.51 L 269.81,997.48 L 269.62,997.45 L 269.60,997.45 L 269.56,997.44 L 269.39,997.45 L 269.13,997.46 L 268.90,997.48 L 268.84,997.48 L 268.75,997.48 L 268.56,997.49 L 268.53,997.49 L 268.50,997.50 L 268.45,997.50 L 268.40,997.50 L 268.29,997.51 L 268.18,997.51 L 268.15,997.51 L 267.69,997.53 L 267.42,997.55 L 267.31,997.56 L 266.97,997.57 L 266.60,997.59 L 266.24,997.60 L 266.12,997.61 L 265.99,997.62 L 265.91,997.62 L 265.44,997.65 L 265.31,997.65 L 265.13,997.66 L 264.71,997.68 L 264.40,997.69 L 264.17,997.71 L 264.15,997.71 L 264.13,997.71 L 264.17,999.64 L 264.18,1000.21 L 264.19,1000.67 L 264.19,1000.76 L 264.12,1000.76 L 264.05,1000.75 L 263.97,1000.75 L 263.91,1000.75 L 263.84,1000.75 L 263.82,1000.75 L 263.80,1000.75 L 263.77,1000.75 L 263.75,1000.75 L 263.72,1000.75 L 263.70,1000.75 L 263.67,1000.75 L 263.64,1000.75 L 263.46,1000.73 L 262.86,1000.66 L 262.25,1000.60 L 261.04,1000.48 L 260.74,1000.44 L 260.59,1000.43 L 258.46,1000.21 L 258.22,1000.19 L 257.96,1000.17 L 257.94,1000.17 L 256.01,1000.04 L 255.93,1000.03 L 255.64,1000.01 L 255.61,1000.01 L 255.08,999.97 L 254.77,999.95 L 254.23,999.91 L 254.07,999.90 L 253.76,999.89 L 253.71,999.88 L 253.61,999.87 L 253.42,999.86 L 253.31,999.85 L 253.29,999.85 L 253.28,999.85 L 253.11,999.64 L 252.93,999.40 L 252.88,999.32 L 252.82,999.23 L 252.67,999.03 L 252.55,998.88 L 252.42,998.70 L 252.25,998.48 L 251.98,998.12 L 251.84,997.95 L 251.65,997.70 L 251.39,997.36 L 251.19,997.09 L 251.15,997.03 L 251.12,996.99 L 250.95,996.76 L 250.55,996.22 L 250.33,995.91 L 250.18,995.69 L 250.10,995.58 L 250.00,995.43 L 249.72,995.05 L 249.51,994.77 L 249.44,994.67 L 249.26,994.42 L 249.16,994.29 L 249.13,994.25 L 249.10,994.22 L 249.02,994.11 L 249.01,994.10 L 248.65,993.89 L 248.47,993.77 L 248.13,993.58 L 247.88,993.46 L 247.59,993.33 L 247.51,993.22 L 246.81,993.09 L 246.26,992.98 L 246.19,992.97 L 245.96,992.93 L 245.69,992.66 L 245.36,992.35 L 245.25,992.25 L 244.39,991.44 L 244.12,991.17 L 244.09,991.14 L 244.08,991.13 L 244.04,991.09 L 243.96,991.03 L 243.53,990.63 L 243.25,990.36 L 243.01,990.12 L 242.55,989.69 L 242.36,989.50 L 242.12,989.27 L 242.00,989.17 L 241.84,989.02 L 241.70,988.87 L 241.56,988.74 L 241.42,988.61 L 241.22,988.42 L 241.00,988.21 L 240.86,988.07 L 240.73,987.94 L 240.58,987.80 L 240.39,987.63 L 240.34,987.59 L 240.27,987.52 L 240.16,987.41 L 239.93,987.19 L 239.67,986.95 L 239.60,986.88 L 239.32,986.61 L 239.14,986.44 L 239.05,986.37 L 238.81,986.14 L 238.76,986.08 L 238.62,985.96 L 238.50,985.84 L 238.45,985.79 L 238.30,985.64 L 238.19,985.55 L 237.99,985.36 L 237.93,985.30 L 237.77,985.16 L 237.63,985.02 L 237.57,984.97 L 237.36,984.76 L 237.08,984.49 L 236.82,984.23 L 236.53,983.97 L 236.27,983.72 L 236.11,983.58 L 236.09,983.55 L 235.97,983.44 L 235.69,983.18 L 235.50,983.02 L 235.87,982.99 L 236.43,982.94 L 236.37,982.79 L 236.37,982.78 L 236.36,982.77 L 236.36,982.76 L 236.33,982.71 L 236.33,982.70 L 236.33,982.70 L 236.31,982.67 L 236.28,982.62 L 236.20,982.45 L 236.11,982.25 L 236.05,982.14 L 236.04,982.14 L 236.03,982.09 L 236.02,982.06 L 236.01,982.04 L 235.78,981.58 L 235.63,981.27 L 235.50,980.99 L 235.48,980.97 L 235.46,980.93 L 235.39,980.77 L 235.29,980.55 L 235.22,980.43 L 235.15,980.28 L 235.12,980.22 L 235.09,980.17 L 235.09,980.16 L 235.06,980.10 L 235.04,980.05 L 234.96,979.90 L 234.93,979.83 L 234.90,979.77 L 234.87,979.71 L 234.87,979.71 L 234.83,979.64 L 234.81,979.59 L 234.79,979.56 L 234.79,979.56 L 234.78,979.53 L 234.75,979.48 L 234.72,979.46 L 234.63,979.41 L 234.62,979.41 L 234.61,979.40 L 234.61,979.40 L 234.61,979.40 L 234.60,979.40 L 234.60,979.39 L 234.57,979.40 L 234.57,979.39 L 234.57,979.38 L 234.57,979.38 L 234.57,979.37 L 234.57,979.36 L 234.55,979.38 L 234.50,979.34 L 234.14,979.16 L 234.11,979.18 L 234.11,979.17 L 234.10,979.16 L 234.07,979.13 L 234.03,979.15 L 234.03,979.14 L 234.03,979.13 L 234.03,979.13 L 234.01,979.11 L 234.01,979.11 L 234.00,979.12 L 233.98,979.09 L 233.97,979.11 L 233.96,979.09 L 233.93,979.12 L 233.87,979.07 L 233.87,979.07 L 233.85,979.06 L 233.57,978.94 L 233.28,978.79 L 233.27,978.80 L 233.27,978.80 L 233.27,978.80 L 233.26,978.80 L 233.26,978.80 L 233.25,978.79 L 233.23,978.79 L 233.19,978.77 L 233.19,978.73 L 233.07,978.72 L 233.07,978.69 L 233.07,978.69 L 232.96,978.63 L 232.95,978.64 L 232.86,978.61 L 232.87,978.60 L 232.69,978.52 L 232.57,978.44 L 232.54,978.47 L 232.53,978.47 L 232.50,978.42 L 232.45,978.45 L 232.44,978.41 L 232.40,978.42 L 232.39,978.38 L 232.35,978.39 L 232.35,978.37 L 232.35,978.37 L 232.34,978.36 L 232.34,978.35 L 232.33,978.35 L 232.28,978.31 L 232.25,978.33 L 232.24,978.30 L 232.22,978.31 L 232.19,978.26 L 232.17,978.27 L 232.16,978.25 L 232.13,978.27 L 232.11,978.24 L 232.09,978.25 L 232.08,978.22 L 232.06,978.22 L 232.06,978.22 L 232.05,978.22 L 232.05,978.22 L 232.04,978.22 L 232.03,978.22 L 232.02,978.22 L 232.01,978.22 L 231.99,978.17 L 231.94,978.20 L 231.90,978.15 L 231.90,978.14 L 231.88,978.15 L 231.87,978.16 L 231.85,978.13 L 231.83,978.14 L 231.81,978.10 L 231.77,978.12 L 231.75,978.08 L 231.73,978.09 L 231.72,978.07 L 231.70,978.08 L 231.68,978.05 L 231.62,978.08 L 231.60,978.02 L 231.58,978.04 L 231.54,977.98 L 231.51,977.99 L 231.48,977.94 L 231.46,977.95 L 231.45,977.93 L 231.42,977.95 L 231.40,977.94 L 231.37,977.96 L 231.32,977.90 L 231.30,977.91 L 231.27,977.87 L 231.26,977.86 L 231.25,977.85 L 231.21,977.87 L 231.18,977.81 L 231.17,977.81 L 231.16,977.78 L 231.13,977.78 L 231.11,977.78 L 231.09,977.77 L 231.08,977.77 L 231.06,977.76 L 230.94,977.71 L 230.95,977.69 L 230.93,977.68 L 230.93,977.66 L 230.93,977.66 L 230.94,977.65 L 230.94,977.64 L 230.95,977.64 L 230.95,977.62 L 230.94,977.60 L 230.91,977.60 L 230.89,977.60 L 230.89,977.59 L 230.91,977.59 L 230.92,977.59 L 230.92,977.58 L 230.92,977.58 L 230.92,977.57 L 230.91,977.57 L 230.91,977.56 L 230.89,977.51 L 230.91,977.50 L 230.91,977.49 L 230.90,977.50 L 230.88,977.46 L 230.86,977.44 L 230.85,977.42 L 230.85,977.42 L 230.83,977.40 L 230.82,977.41 L 230.82,977.40 L 230.80,977.43 L 230.76,977.41 L 230.78,977.38 L 230.73,977.35 L 230.72,977.34 L 230.76,977.31 L 230.68,977.23 L 230.70,977.22 L 230.68,977.20 L 230.69,977.20 L 230.66,977.17 L 230.68,977.15 L 230.65,977.12 L 230.57,977.04 L 230.62,976.95 L 230.59,976.96 L 230.59,976.93 L 230.58,976.93 L 230.58,976.92 L 230.37,976.56 L 230.36,976.53 L 230.34,976.48 L 230.33,976.46 L 230.27,976.40 L 230.29,976.35 L 230.24,976.34 L 230.23,976.32 L 230.26,976.31 L 230.23,976.30 L 230.24,976.29 L 230.22,976.28 L 230.22,976.24 L 230.17,976.24 L 230.16,976.21 L 230.16,976.20 L 230.16,976.18 L 230.16,976.16 L 230.16,976.15 L 230.16,976.14 L 230.15,976.14 L 230.15,976.13 L 230.14,976.12 L 230.13,976.12 L 230.13,976.11 L 230.12,976.11 L 230.11,976.09 L 230.11,976.07 L 230.10,976.06 L 230.10,976.05 L 230.09,976.04 L 230.09,976.04 L 230.11,976.01 L 230.07,975.99 L 230.02,975.95 L 229.98,975.95 L 229.97,975.96 L 229.95,975.96 L 229.94,975.97 L 229.94,975.97 L 229.93,975.98 L 229.92,975.99 L 229.92,976.01 L 229.91,976.02 L 229.91,976.03 L 229.91,976.10 L 229.90,976.14 L 229.90,976.16 L 229.90,976.19 L 229.89,976.22 L 229.87,976.30 L 229.86,976.29 L 229.85,976.27 L 229.84,976.25 L 229.83,976.23 L 229.82,976.22 L 229.82,976.21 L 229.82,976.21 L 229.81,976.21 L 229.81,976.21 L 229.80,976.21 L 229.80,976.21 L 229.79,976.21 L 229.78,976.21 L 229.76,976.21 L 229.75,976.21 L 229.74,976.21 L 229.73,976.21 L 229.72,976.21 L 229.71,976.21 L 229.70,976.21 L 229.69,976.21 L 229.69,976.20 L 229.68,976.20 L 229.67,976.19 L 229.65,976.18 L 229.63,976.17 L 229.62,976.16 L 229.61,976.16 L 229.60,976.15 L 229.59,976.15 L 229.58,976.15 L 229.49,976.14 L 229.48,976.14 L 229.47,976.14 L 229.45,976.13 L 229.43,976.12 L 229.41,976.12 L 229.39,976.11 L 229.31,976.05 L 229.30,976.05 L 229.29,976.04 L 229.27,976.04 L 229.26,976.04 L 229.22,976.03 L 229.20,976.03 L 229.18,976.03 L 229.17,976.02 L 229.16,976.02 L 229.15,976.01 L 229.13,976.00 L 229.13,976.00 L 229.12,975.99 L 229.11,975.98 L 229.10,975.97 L 229.10,975.96 L 229.09,975.95 L 229.07,975.88 L 229.07,975.86 L 229.07,975.86 L 229.07,975.84 L 229.07,975.83 L 229.08,975.82 L 229.08,975.82 L 229.10,975.75 L 229.11,975.73 L 229.12,975.72 L 229.13,975.70 L 229.13,975.70 L 229.13,975.69 L 229.13,975.68 L 229.13,975.68 L 229.13,975.67 L 229.12,975.66 L 229.11,975.65 L 229.10,975.65 L 229.08,975.64 L 229.07,975.64 L 229.06,975.63 L 228.98,975.61 L 228.97,975.61 L 228.96,975.61 L 228.95,975.60 L 228.94,975.59 L 228.93,975.58 L 228.92,975.58 L 228.92,975.57 L 228.91,975.56 L 228.91,975.56 L 228.90,975.55 L 228.88,975.48 L 228.88,975.47 L 228.87,975.46 L 228.86,975.45 L 228.85,975.44 L 228.85,975.44 L 228.84,975.43 L 228.84,975.43 L 228.83,975.43 L 228.82,975.42 L 228.81,975.42 L 228.80,975.42 L 228.78,975.41 L 228.75,975.42 L 228.73,975.41 L 228.66,975.41 L 228.65,975.40 L 228.64,975.40 L 228.63,975.39 L 228.63,975.39 L 228.62,975.38 L 228.62,975.38 L 228.61,975.37 L 228.61,975.36 L 228.60,975.35 L 228.59,975.31 L 228.59,975.31 L 228.59,975.30 L 228.58,975.30 L 228.58,975.29 L 228.57,975.29 L 228.57,975.29 L 228.56,975.29 L 228.56,975.29 L 228.55,975.29 L 228.54,975.29 L 228.53,975.30 L 228.51,975.31 L 228.49,975.33 L 228.48,975.34 L 228.44,975.37 L 228.44,975.38 L 228.43,975.38 L 228.43,975.38 L 228.42,975.38 L 228.41,975.39 L 228.40,975.38 L 228.39,975.38 L 228.38,975.38 L 228.37,975.38 L 228.36,975.37 L 228.35,975.37 L 228.32,975.36 L 228.30,975.35 L 228.29,975.35 L 228.27,975.34 L 228.25,975.32 L 228.23,975.31 L 228.22,975.31 L 228.20,975.30 L 228.19,975.30 L 228.18,975.30 L 228.18,975.30 L 228.17,975.30 L 228.10,975.31 L 228.09,975.31 L 228.08,975.31 L 228.08,975.31 L 228.06,975.31 L 228.05,975.32 L 228.05,975.32 L 228.04,975.33 L 228.03,975.34 L 228.02,975.35 L 228.01,975.36 L 228.00,975.37 L 227.98,975.39 L 227.96,975.40 L 227.94,975.42 L 227.89,975.45 L 227.87,975.46 L 227.83,975.49 L 227.81,975.51 L 227.80,975.52 L 227.78,975.53 L 227.77,975.54 L 227.76,975.56 L 227.74,975.57 L 227.73,975.58 L 227.72,975.60 L 227.70,975.61 L 227.68,975.63 L 227.67,975.63 L 227.67,975.64 L 227.66,975.65 L 227.66,975.66 L 227.65,975.66 L 227.65,975.67 L 227.64,975.68 L 227.64,975.69 L 227.64,975.70 L 227.64,975.70 L 227.62,975.74 L 227.62,975.75 L 227.62,975.76 L 227.61,975.76 L 227.61,975.77 L 227.60,975.77 L 227.60,975.78 L 227.56,975.80 L 227.54,975.81 L 227.53,975.81 L 227.52,975.81 L 227.50,975.81 L 227.45,975.81 L 227.44,975.81 L 227.42,975.82 L 227.41,975.82 L 227.40,975.82 L 227.39,975.83 L 227.38,975.83 L 227.36,975.85 L 227.35,975.86 L 227.34,975.86 L 227.34,975.86 L 227.33,975.86 L 227.32,975.86 L 227.32,975.86 L 227.32,975.85 L 227.31,975.85 L 227.31,975.85 L 227.31,975.84 L 227.30,975.84 L 227.27,975.78 L 227.27,975.77 L 227.26,975.76 L 227.25,975.75 L 227.24,975.74 L 227.23,975.74 L 227.22,975.73 L 227.21,975.72 L 227.20,975.72 L 227.19,975.71 L 227.18,975.71 L 227.17,975.70 L 227.15,975.70 L 227.11,975.69 L 227.10,975.69 L 227.10,975.69 L 227.09,975.68 L 227.08,975.67 L 227.07,975.67 L 227.06,975.66 L 227.05,975.65 L 227.04,975.64 L 227.03,975.63 L 227.02,975.62 L 227.01,975.61 L 227.00,975.61 L 226.97,975.59 L 226.95,975.59 L 226.93,975.58 L 226.92,975.58 L 226.84,975.56 L 226.83,975.55 L 226.82,975.55 L 226.82,975.55 L 226.81,975.54 L 226.81,975.54 L 226.80,975.53 L 226.79,975.53 L 226.78,975.52 L 226.78,975.50 L 226.77,975.49 L 226.75,975.47 L 226.74,975.45 L 226.71,975.43 L 226.71,975.42 L 226.70,975.41 L 226.69,975.39 L 226.69,975.39 L 226.69,975.38 L 226.69,975.37 L 226.69,975.35 L 226.69,975.33 L 226.69,975.31 L 226.69,975.29 L 226.69,975.28 L 226.69,975.28 L 226.69,975.27 L 226.69,975.26 L 226.68,975.25 L 226.68,975.24 L 226.67,975.23 L 226.63,975.19 L 226.62,975.19 L 226.60,975.17 L 226.58,975.16 L 226.57,975.15 L 226.54,975.15 L 226.52,975.14 L 226.50,975.13 L 226.49,975.13 L 226.48,975.13 L 226.48,975.12 L 226.47,975.12 L 226.47,975.12 L 226.46,975.11 L 226.45,975.10 L 226.45,975.10 L 226.44,975.09 L 226.43,975.06 L 226.42,975.05 L 226.42,975.04 L 226.41,975.03 L 226.40,975.02 L 226.39,975.01 L 226.37,974.98 L 226.36,974.98 L 226.35,974.97 L 226.35,974.96 L 226.35,974.96 L 226.34,974.94 L 226.34,974.94 L 226.33,974.91 L 226.33,974.89 L 226.32,974.88 L 226.31,974.84 L 226.30,974.83 L 226.30,974.82 L 226.29,974.81 L 226.28,974.80 L 226.27,974.80 L 226.27,974.80 L 226.26,974.79 L 226.25,974.79 L 226.24,974.79 L 226.15,974.78 L 226.14,974.78 L 226.14,974.79 L 226.13,974.79 L 226.13,974.79 L 226.11,974.79 L 226.11,974.80 L 226.10,974.80 L 226.08,974.83 L 226.07,974.83 L 226.07,974.84 L 226.06,974.84 L 226.05,974.84 L 226.04,974.84 L 226.04,974.84 L 226.01,974.84 L 225.99,974.84 L 225.95,974.83 L 225.95,974.83 L 225.93,974.82 L 225.92,974.82 L 225.92,974.82 L 225.91,974.82 L 225.90,974.82 L 225.90,974.82 L 225.89,974.82 L 225.89,974.82 L 225.88,974.82 L 225.88,974.83 L 225.87,974.83 L 225.87,974.83 L 225.86,974.84 L 225.86,974.84 L 225.85,974.85 L 225.85,974.86 L 225.85,974.86 L 225.84,974.87 L 225.84,974.88 L 225.84,974.89 L 225.84,974.90 L 225.85,974.94 L 225.85,974.95 L 225.85,974.96 L 225.85,974.97 L 225.85,974.98 L 225.85,975.00 L 225.84,975.01 L 225.84,975.02 L 225.81,975.06 L 225.80,975.08 L 225.80,975.09 L 225.80,975.10 L 225.79,975.12 L 225.77,975.18 L 225.77,975.20 L 225.76,975.23 L 225.75,975.24 L 225.74,975.27 L 225.72,975.29 L 225.72,975.30 L 225.70,975.33 L 225.68,975.35 L 225.59,975.47 L 225.57,975.49 L 225.56,975.51 L 225.55,975.53 L 225.51,975.59 L 225.50,975.60 L 225.50,975.61 L 225.49,975.63 L 225.48,975.65 L 225.48,975.66 L 225.48,975.68 L 225.47,975.70 L 225.47,975.72 L 225.46,975.73 L 225.45,975.76 L 225.44,975.77 L 225.44,975.78 L 225.43,975.81 L 225.43,975.82 L 225.42,975.85 L 225.42,975.86 L 225.41,975.87 L 225.41,975.89 L 225.40,975.89 L 225.40,975.90 L 225.39,975.90 L 225.39,975.90 L 225.38,975.91 L 225.36,975.91 L 225.35,975.91 L 225.35,975.92 L 225.34,975.92 L 225.34,975.93 L 225.33,975.93 L 225.33,975.94 L 225.33,975.95 L 225.33,976.00 L 225.32,976.01 L 225.32,976.02 L 225.31,976.03 L 225.31,976.04 L 225.29,976.05 L 225.29,976.06 L 225.28,976.07 L 225.27,976.08 L 225.27,976.09 L 225.27,976.09 L 225.26,976.13 L 225.25,976.14 L 225.25,976.14 L 225.24,976.15 L 225.24,976.16 L 225.24,976.16 L 225.22,976.18 L 225.21,976.19 L 225.20,976.20 L 225.19,976.21 L 225.19,976.22 L 225.18,976.22 L 225.18,976.23 L 225.17,976.24 L 225.15,976.29 L 225.15,976.30 L 225.14,976.31 L 225.12,976.35 L 225.10,976.38 L 225.06,976.43 L 225.05,976.46 L 225.02,976.50 L 225.01,976.51 L 225.01,976.51 L 225.01,976.52 L 225.00,976.53 L 225.00,976.54 L 225.00,976.54 L 225.00,976.55 L 225.01,976.62 L 225.01,976.63 L 225.01,976.63 L 225.01,976.64 L 225.01,976.65 L 225.02,976.66 L 225.02,976.66 L 225.04,976.71 L 225.05,976.71 L 225.05,976.72 L 225.05,976.73 L 225.05,976.73 L 225.04,976.74 L 225.04,976.74 L 225.04,976.75 L 225.03,976.75 L 225.03,976.75 L 225.02,976.75 L 224.98,976.76 L 224.97,976.76 L 224.96,976.76 L 224.95,976.77 L 224.94,976.77 L 224.93,976.78 L 224.92,976.79 L 224.91,976.80 L 224.87,976.86 L 224.86,976.88 L 224.85,976.89 L 224.85,976.89 L 224.80,976.93 L 224.79,976.94 L 224.78,976.95 L 224.78,976.95 L 224.77,976.97 L 224.76,976.97 L 224.76,976.98 L 224.76,976.99 L 224.75,977.00 L 224.75,977.02 L 224.75,977.03 L 224.75,977.04 L 224.75,977.05 L 224.75,977.10 L 224.75,977.11 L 224.76,977.12 L 224.76,977.12 L 224.76,977.12 L 224.76,977.13 L 224.77,977.13 L 224.78,977.14 L 224.80,977.14 L 224.81,977.15 L 224.82,977.15 L 224.85,977.16 L 224.86,977.16 L 224.86,977.17 L 224.87,977.18 L 224.87,977.18 L 224.87,977.18 L 224.87,977.19 L 224.87,977.19 L 224.87,977.19 L 224.86,977.21 L 224.85,977.22 L 224.84,977.23 L 224.83,977.24 L 224.82,977.24 L 224.81,977.25 L 224.77,977.27 L 224.76,977.28 L 224.74,977.28 L 224.73,977.28 L 224.72,977.28 L 224.67,977.28 L 224.65,977.28 L 224.65,977.28 L 224.63,977.29 L 224.62,977.29 L 224.62,977.30 L 224.61,977.30 L 224.60,977.31 L 224.58,977.33 L 224.57,977.34 L 224.56,977.35 L 224.55,977.36 L 224.54,977.39 L 224.53,977.39 L 224.53,977.39 L 224.53,977.40 L 224.52,977.40 L 224.52,977.40 L 224.51,977.40 L 224.50,977.40 L 224.49,977.40 L 224.48,977.40 L 224.47,977.40 L 224.46,977.40 L 224.45,977.39 L 224.42,977.37 L 224.42,977.37 L 224.41,977.37 L 224.41,977.37 L 224.40,977.37 L 224.40,977.37 L 224.39,977.38 L 224.39,977.38 L 224.39,977.39 L 224.38,977.39 L 224.38,977.42 L 224.38,977.43 L 224.38,977.45 L 224.37,977.47 L 224.37,977.48 L 224.37,977.49 L 224.37,977.49 L 224.36,977.50 L 224.36,977.50 L 224.35,977.50 L 224.35,977.50 L 224.34,977.50 L 224.33,977.49 L 224.32,977.49 L 224.31,977.48 L 224.24,977.43 L 224.23,977.42 L 224.23,977.42 L 224.22,977.42 L 224.21,977.42 L 224.21,977.42 L 224.20,977.42 L 224.20,977.42 L 224.20,977.43 L 224.19,977.44 L 224.19,977.45 L 224.19,977.46 L 224.19,977.47 L 224.19,977.48 L 224.19,977.49 L 224.20,977.49 L 224.20,977.52 L 224.21,977.54 L 224.22,977.56 L 224.22,977.58 L 224.22,977.59 L 224.22,977.61 L 224.22,977.61 L 224.21,977.62 L 224.21,977.62 L 224.21,977.63 L 224.20,977.64 L 224.19,977.64 L 224.19,977.64 L 224.19,977.64 L 224.17,977.64 L 224.15,977.63 L 224.14,977.63 L 224.13,977.62 L 224.12,977.62 L 224.08,977.60 L 224.07,977.59 L 224.06,977.59 L 224.05,977.59 L 224.05,977.60 L 224.04,977.60 L 224.03,977.60 L 224.00,977.63 L 223.99,977.64 L 223.98,977.65 L 223.97,977.66 L 223.97,977.67 L 223.96,977.68 L 223.95,977.70 L 223.95,977.71 L 223.95,977.72 L 223.95,977.72 L 223.94,977.73 L 223.93,977.80 L 223.93,977.81 L 223.93,977.81 L 223.93,977.82 L 223.93,977.82 L 223.92,977.82 L 223.92,977.83 L 223.92,977.83 L 223.91,977.83 L 223.90,977.84 L 223.90,977.84 L 223.89,977.84 L 223.88,977.83 L 223.85,977.82 L 223.83,977.81 L 223.82,977.81 L 223.81,977.81 L 223.80,977.81 L 223.79,977.81 L 223.78,977.82 L 223.77,977.82 L 223.76,977.82 L 223.74,977.84 L 223.73,977.85 L 223.71,977.88 L 223.69,977.90 L 223.68,977.92 L 223.67,977.93 L 223.66,977.95 L 223.65,977.97 L 223.65,977.98 L 223.64,977.98 L 223.64,977.99 L 223.64,977.99 L 223.63,977.99 L 223.63,978.00 L 223.62,978.00 L 223.62,978.00 L 223.60,978.01 L 223.59,978.01 L 223.58,978.02 L 223.56,978.02 L 223.55,978.03 L 223.55,978.03 L 223.54,978.04 L 223.53,978.05 L 223.53,978.06 L 223.51,978.09 L 223.50,978.11 L 223.50,978.13 L 223.49,978.15 L 223.49,978.18 L 223.48,978.20 L 223.47,978.23 L 223.47,978.24 L 223.46,978.27 L 223.45,978.29 L 223.45,978.30 L 223.45,978.31 L 223.45,978.32 L 223.45,978.32 L 223.45,978.33 L 223.46,978.36 L 223.46,978.37 L 223.46,978.38 L 223.46,978.39 L 223.46,978.40 L 223.46,978.41 L 223.45,978.41 L 223.45,978.42 L 223.45,978.42 L 223.44,978.43 L 223.43,978.43 L 223.42,978.43 L 223.42,978.43 L 223.41,978.43 L 223.40,978.43 L 223.39,978.43 L 223.39,978.43 L 223.38,978.42 L 223.34,978.39 L 223.34,978.39 L 223.33,978.39 L 223.33,978.39 L 223.32,978.39 L 223.32,978.39 L 223.31,978.39 L 223.31,978.40 L 223.30,978.40 L 223.29,978.42 L 223.29,978.44 L 223.29,978.44 L 223.28,978.46 L 223.28,978.47 L 223.28,978.54 L 223.28,978.55 L 223.28,978.57 L 223.29,978.58 L 223.31,978.62 L 223.31,978.62 L 223.31,978.63 L 223.32,978.63 L 223.31,978.64 L 223.31,978.65 L 223.31,978.66 L 223.30,978.66 L 223.29,978.67 L 223.28,978.67 L 223.27,978.67 L 223.26,978.67 L 223.24,978.67 L 223.24,978.67 L 223.23,978.67 L 223.22,978.68 L 223.22,978.68 L 223.21,978.69 L 223.21,978.69 L 223.21,978.69 L 223.21,978.70 L 223.21,978.71 L 223.21,978.72 L 223.21,978.73 L 223.21,978.74 L 223.22,978.75 L 223.22,978.75 L 223.23,978.76 L 223.24,978.77 L 223.25,978.77 L 223.25,978.78 L 223.28,978.78 L 223.28,978.78 L 223.29,978.79 L 223.29,978.79 L 223.30,978.80 L 223.30,978.81 L 223.30,978.81 L 223.31,978.82 L 223.30,978.82 L 223.30,978.83 L 223.30,978.84 L 223.29,978.85 L 223.29,978.86 L 223.28,978.86 L 223.28,978.87 L 223.27,978.87 L 223.26,978.88 L 223.25,978.88 L 223.24,978.89 L 223.22,978.89 L 223.21,978.89 L 223.20,978.90 L 223.19,978.90 L 223.17,978.90 L 223.16,978.89 L 223.15,978.89 L 223.13,978.89 L 223.05,978.86 L 223.04,978.86 L 223.04,978.85 L 223.03,978.85 L 223.02,978.84 L 223.01,978.83 L 223.01,978.82 L 223.00,978.82 L 223.00,978.82 L 223.00,978.81 L 222.99,978.81 L 222.99,978.80 L 222.99,978.80 L 222.98,978.80 L 222.98,978.80 L 222.97,978.80 L 222.96,978.79 L 222.95,978.79 L 222.93,978.79 L 222.92,978.79 L 222.91,978.80 L 222.90,978.80 L 222.89,978.81 L 222.88,978.82 L 222.87,978.83 L 222.86,978.84 L 222.86,978.85 L 222.84,978.89 L 222.83,978.91 L 222.82,978.92 L 222.82,978.93 L 222.79,978.97 L 222.79,978.98 L 222.78,978.99 L 222.78,979.00 L 222.78,979.01 L 222.78,979.02 L 222.78,979.02 L 222.78,979.03 L 222.78,979.04 L 222.79,979.05 L 222.79,979.06 L 222.80,979.07 L 222.80,979.09 L 222.80,979.10 L 222.80,979.11 L 222.80,979.12 L 222.80,979.12 L 222.80,979.13 L 222.80,979.14 L 222.79,979.14 L 222.79,979.15 L 222.78,979.15 L 222.77,979.16 L 222.76,979.17 L 222.74,979.17 L 222.73,979.18 L 222.67,979.19 L 222.67,979.20 L 222.66,979.20 L 222.65,979.20 L 222.65,979.21 L 222.65,979.21 L 222.65,979.22 L 222.65,979.23 L 222.65,979.24 L 222.65,979.26 L 222.66,979.26 L 222.66,979.27 L 222.68,979.31 L 222.69,979.33 L 222.69,979.35 L 222.69,979.36 L 222.70,979.37 L 222.70,979.38 L 222.70,979.40 L 222.70,979.41 L 222.70,979.43 L 222.69,979.44 L 222.69,979.46 L 222.68,979.48 L 222.66,979.53 L 222.65,979.56 L 222.65,979.57 L 222.64,979.60 L 222.64,979.62 L 222.63,979.63 L 222.63,979.68 L 222.63,979.69 L 222.62,979.70 L 222.62,979.70 L 222.61,979.71 L 222.61,979.72 L 222.60,979.72 L 222.60,979.73 L 222.60,979.73 L 222.58,979.74 L 222.57,979.74 L 222.55,979.75 L 222.51,979.76 L 222.45,979.78 L 222.43,979.78 L 222.42,979.78 L 222.40,979.79 L 222.39,979.79 L 222.37,979.79 L 222.35,979.78 L 222.31,979.78 L 222.30,979.77 L 222.27,979.77 L 222.24,979.77 L 222.17,979.77 L 222.15,979.77 L 222.14,979.77 L 222.13,979.78 L 222.12,979.78 L 222.12,979.78 L 222.11,979.79 L 222.10,979.79 L 222.10,979.80 L 222.10,979.81 L 222.10,979.81 L 222.10,979.82 L 222.10,979.82 L 222.10,979.85 L 222.11,979.88 L 222.12,979.90 L 222.12,979.92 L 222.15,980.01 L 222.16,980.03 L 222.16,980.04 L 222.16,980.06 L 222.16,980.07 L 222.16,980.08 L 222.15,980.09 L 222.15,980.11 L 222.15,980.11 L 222.14,980.12 L 222.13,980.14 L 222.12,980.15 L 222.11,980.16 L 222.10,980.17 L 222.09,980.17 L 222.08,980.18 L 222.07,980.18 L 222.05,980.19 L 222.04,980.19 L 222.02,980.19 L 222.02,980.19 L 222.00,980.19 L 221.99,980.18 L 221.98,980.18 L 221.97,980.18 L 221.92,980.15 L 221.92,980.15 L 221.91,980.15 L 221.90,980.14 L 221.89,980.14 L 221.88,980.14 L 221.87,980.14 L 221.86,980.15 L 221.86,980.15 L 221.85,980.15 L 221.84,980.16 L 221.83,980.17 L 221.82,980.18 L 221.81,980.20 L 221.81,980.20 L 221.80,980.22 L 221.78,980.21 L 221.72,980.30 L 221.61,980.44 L 221.54,980.54 L 221.54,980.60 L 221.54,980.60 L 221.54,980.61 L 221.55,980.61 L 221.55,980.61 L 221.55,980.62 L 221.55,980.63 L 221.54,980.63 L 221.54,980.64 L 221.54,980.64 L 221.54,980.65 L 221.54,980.66 L 221.53,980.67 L 221.52,980.70 L 221.52,980.71 L 221.52,980.71 L 221.52,980.72 L 221.52,980.72 L 221.51,980.73 L 221.37,980.78 L 221.25,980.82 L 221.15,980.85 L 221.12,980.91 L 221.08,980.97 L 221.06,981.02 L 221.02,981.06 L 220.98,981.12 L 220.98,981.13 L 220.98,981.14 L 220.98,981.14 L 220.97,981.15 L 220.96,981.19 L 220.96,981.22 L 220.94,981.24 L 220.93,981.30 L 220.90,981.34 L 220.88,981.33 L 220.86,981.32 L 220.83,981.31 L 220.73,981.27 L 220.72,981.27 L 220.69,981.26 L 220.67,981.24 L 220.66,981.24 L 220.64,981.22 L 220.62,981.21 L 220.60,981.19 L 220.59,981.18 L 220.58,981.18 L 220.56,981.16 L 220.56,981.16 L 220.48,981.12 L 220.47,981.11 L 220.45,981.10 L 220.42,981.08 L 220.41,981.07 L 220.39,981.05 L 220.37,981.04 L 220.31,980.98 L 220.30,980.98 L 220.29,980.97 L 220.28,980.97 L 220.27,980.96 L 220.26,980.96 L 220.24,980.96 L 220.24,980.96 L 220.18,980.95 L 220.17,980.95 L 220.15,980.95 L 220.14,980.95 L 220.12,980.94 L 220.11,980.94 L 220.11,980.93 L 220.10,980.93 L 220.09,980.92 L 220.08,980.92 L 220.07,980.91 L 220.06,980.90 L 220.04,980.88 L 220.02,980.87 L 220.01,980.86 L 219.98,980.84 L 219.95,980.83 L 219.89,980.80 L 219.80,980.76 L 219.72,980.71 L 219.63,980.67 L 219.53,980.62 L 219.42,980.56 L 219.36,980.53 L 219.25,980.48 L 219.01,980.37 L 218.95,980.35 L 218.90,980.32 L 218.85,980.30 L 218.80,980.27 L 218.78,980.26 L 218.72,980.22 L 218.70,980.21 L 218.67,980.20 L 218.62,980.17 L 218.59,980.16 L 218.54,980.13 L 218.48,980.10 L 218.43,980.08 L 218.39,980.07 L 218.37,980.06 L 218.34,980.04 L 218.30,980.02 L 218.25,979.99 L 218.20,979.96 L 218.15,979.92 L 218.12,979.90 L 218.10,979.88 L 218.07,979.86 L 218.04,979.84 L 217.95,979.76 L 217.94,979.76 L 217.93,979.75 L 217.92,979.74 L 217.90,979.74 L 217.89,979.73 L 217.87,979.72 L 217.85,979.72 L 217.83,979.71 L 217.80,979.71 L 217.78,979.71 L 217.63,979.71 L 217.61,979.71 L 217.58,979.71 L 217.52,979.71 L 217.50,979.70 L 217.45,979.70 L 217.44,979.70 L 217.42,979.69 L 217.40,979.69 L 217.39,979.69 L 217.37,979.68 L 217.36,979.68 L 217.34,979.67 L 217.33,979.67 L 217.30,979.65 L 217.29,979.65 L 217.27,979.63 L 217.25,979.62 L 217.23,979.60 L 217.13,979.51 L 217.12,979.50 L 217.09,979.48 L 217.06,979.46 L 217.03,979.44 L 217.00,979.43 L 216.90,979.38 L 216.88,979.37 L 216.86,979.36 L 216.83,979.34 L 216.81,979.33 L 216.81,979.32 L 216.80,979.31 L 216.79,979.30 L 216.78,979.29 L 216.77,979.28 L 216.77,979.27 L 216.77,979.27 L 216.77,979.26 L 216.76,979.24 L 216.76,979.23 L 216.72,979.23 L 216.43,979.29 L 216.16,979.33 L 215.83,979.40 L 215.82,979.40 L 215.33,979.49 L 214.95,979.37 L 214.44,979.20 L 213.96,979.05 L 213.85,978.97 L 213.57,978.77 L 213.15,978.47 L 213.03,978.38 L 212.95,978.38 L 212.36,978.36 L 212.33,978.95 L 212.31,979.27 L 212.26,980.01 L 212.28,980.14 L 212.31,980.33 L 212.33,980.49 L 212.36,980.63 L 212.43,980.76 L 212.62,980.92 L 212.64,980.94 L 212.65,980.95 L 212.67,980.97 L 212.69,980.98 L 212.71,981.00 L 212.72,981.01 L 212.74,981.02 L 212.76,981.03 L 212.77,981.03 L 212.78,981.04 L 212.80,981.06 L 212.82,981.07 L 212.83,981.09 L 212.85,981.10 L 212.87,981.11 L 212.88,981.12 L 212.92,981.16 L 212.97,981.19 L 213.01,981.23 L 213.05,981.26 L 213.10,981.29 L 213.14,981.33 L 213.19,981.36 L 213.24,981.40 L 213.25,981.41 L 213.27,981.42 L 213.28,981.44 L 213.29,981.45 L 213.31,981.46 L 213.32,981.48 L 213.34,981.50 L 213.39,981.57 L 213.53,981.78 L 213.62,981.98 L 213.78,982.32 L 213.95,982.68 L 214.04,982.91 L 214.14,983.15 L 214.22,983.34 L 214.35,983.63 L 214.47,983.88 L 214.50,983.94 L 214.73,984.32 L 214.85,984.39 L 214.99,984.46 L 215.15,984.50 L 215.36,984.54 L 215.71,984.54 L 215.93,984.54 L 216.10,984.55 L 216.35,984.60 L 216.43,984.63 L 216.45,984.65 L 216.53,984.80 L 216.61,984.97 L 216.63,985.10 L 216.60,985.25 L 216.55,985.35 L 216.52,985.44 L 216.46,985.54 L 216.40,985.64 L 216.38,985.70 L 216.37,985.80 L 216.41,986.05 L 216.45,986.24 L 216.51,986.38 L 216.57,986.46 L 216.63,986.52 L 216.73,986.59 L 216.79,986.63 L 216.87,986.68 L 216.93,986.71 L 216.98,986.74 L 217.13,986.81 L 217.24,986.84 L 217.36,986.87 L 217.47,986.89 L 217.72,986.89 L 217.98,986.89 L 218.24,986.89 L 218.47,986.90 L 218.66,986.94 L 218.76,986.99 L 218.89,987.07 L 218.95,987.14 L 218.98,987.23 L 218.99,987.33 L 218.98,987.41 L 218.97,987.45 L 218.96,987.52 L 218.92,987.64 L 218.87,987.72 L 218.81,987.79 L 218.73,987.85 L 218.64,987.91 L 218.20,988.15 L 217.90,988.31 L 217.77,988.39 L 217.55,988.56 L 217.44,988.70 L 217.38,988.82 L 217.36,988.94 L 217.36,989.00 L 217.43,989.12 L 217.52,989.22 L 217.62,989.29 L 217.76,989.37 L 218.03,989.48 L 218.25,989.56 L 218.43,989.59 L 218.57,989.62 L 218.68,989.63 L 218.79,989.62 L 218.89,989.62 L 219.09,989.60 L 219.23,989.56 L 219.39,989.51 L 219.47,989.48 L 219.53,989.47 L 219.79,989.38 L 219.98,989.31 L 220.17,989.27 L 220.40,989.23 L 220.66,989.22 L 220.97,989.24 L 221.12,989.28 Z" fill="#E5E7EB" stroke="#374151" stroke-width="1" fill-rule="evenodd"/>
</svg>