<?xml version="1.0" encoding="UTF-8"?>
<!DOCTYPE svg PUBLIC "-//W3C//DTD SVG 1.1//EN" "http://www.w3.org/Graphics/SVG/1.1/DTD/svg11.dtd">
<!-- Creator: CorelDRAW 2021 (64-Bit) -->
<svg xmlns="http://www.w3.org/2000/svg" xml:space="preserve" width="0.434319in" height="0.328902in" version="1.1" shape-rendering="geometricPrecision" text-rendering="geometricPrecision" image-rendering="optimizeQuality" fill-rule="evenodd" clip-rule="evenodd"
viewBox="0 0 88.84 67.28"
 xmlns:xlink="http://www.w3.org/1999/xlink"
 xmlns:xodm="http://www.corel.com/coreldraw/odm/2003">
 <g id="Layer_x0020_1">
  <metadata id="CorelCorpID_0Corel-Layer"/>
  <path fill="none" fill-rule="nonzero" stroke="#336666" stroke-width="0.61" stroke-miterlimit="2.61313" d="M88.51 16.65c-0.06,-0.25 -0.06,-0.64 -0.06,-0.9 -0.18,-0.77 -0.36,-1.54 -0.54,-2.43 -0.36,-0.13 -1.31,-1.04 -1.67,-1.3 0,0.13 0,0.25 0,0.25 -0.18,0 -0.36,0 -0.48,0 -1.36,1.15 -2.72,0.39 -6.05,-2.04 -1.48,-0.89 -3.03,-1.4 -3.5,-0.89 -1.13,0 -2.19,0 -3.32,0 -2.01,0.64 -3.79,0.13 -5.34,-0.38 -0.12,-0.13 -0.3,-0.38 -0.48,-0.64 -0.36,0 -0.71,0 -1.07,0 -1.01,-0.51 -3.27,-1.66 -6.36,-3.58 -1.13,-0.64 -2.26,-1.41 -3.33,-2.17 -1.55,-1.79 -4.33,-1.66 -7.95,-1.02 -2.73,0 -4.8,0.9 -6.28,1.29 -0.3,0.25 -0.53,0.38 -0.77,0.51 -0.36,0 -0.65,0 -1.01,0 -0.18,0.26 -0.35,0.51 -0.47,0.64 -0.18,0 -0.36,0 -0.53,0 -1.01,0.51 -2.55,0.51 -4.26,1.16 -1.42,0 -2.73,0 -4.03,0 -1.84,0 -3.85,0.28 -5.34,-0.87l-0.26 -0.11c0.08,-0.13 0.17,-0.26 0.27,-0.4 -0.18,-0.13 -2.33,-1.44 -2.45,-1.7 -0.18,0 -0.36,0 -0.53,0 0,-0.13 -0,-0.26 -0,-0.51 -0.36,-0.38 -0.71,-0.77 -1.01,-1.15 -0.36,0.26 -0.71,1.17 -1.06,1.3 -0.18,0.26 -0.36,0.38 -0.47,0.51 -0.3,0 -0.53,0 -0.77,0 -0.18,0.26 -0.3,0.38 -0.47,0.51 -0.35,0.51 -0.71,1.15 -1,1.66 -0.18,0.26 -0.35,0.38 -0.47,0.51 0,0.26 0,0.51 0,0.77 -1.07,0 -2.19,0 -3.32,0 -0.12,0.13 -0.29,0.26 -0.47,0.38 0,0.25 0,0.38 0,0.51 0.18,0.25 0.3,0.51 0.48,0.64 0.24,0.38 0.54,0.77 0.83,1.02 0,0.77 0.66,2.32 0.73,3.22 -0.47,0.38 -0.89,0.77 -1.3,1.15 0,0.26 0,0.51 0,0.64 -0.53,0.64 -0.94,0.49 -1.42,1.01 -0.53,0.26 -1.06,0.51 -1.54,0.77 -1.24,0.13 -2.55,0.79 -3.79,0.79 -0.65,-0.25 -1.12,-0.66 -1.77,-0.91 -0.24,-0.38 -0.6,-0.49 -0.78,-1 -0.71,0 -1.48,0 -2.25,0 -0.36,-0.13 -0.65,-0.25 -1.01,-0.38 -0.18,0 -0.36,0 -0.47,0 -0.36,-0.13 -0.71,-0.38 -1.07,-0.64 0.18,0.64 0.36,1.15 0.54,1.66 0.18,0.25 0.36,0.64 0.54,0.89 1.01,0.38 2.08,1.53 3.33,2.68 0.36,0.64 0.72,1.15 1.07,1.54 0.18,0 0.36,-0 0.47,-0 0.36,0.38 0.71,0.77 1.01,1.02 0.54,0.89 1.01,1.66 1.55,2.3 0.36,0.9 0.72,1.79 1.02,2.56 0.24,0.26 0.48,0.38 0.77,0.51 0,0.26 0,0.38 0,0.51 -0.23,1.02 -0.47,1.92 -0.7,2.82 0,0.26 0,0.51 0,0.64 0.24,0.25 0.54,0.64 0.83,0.89 0.54,0.77 1.49,0.89 2.55,0.89 0.24,-0 0.59,-0 0.95,-0l0 0c0,0.25 0.01,0.44 0.06,0.64 0.12,0.13 0.3,0.25 0.48,0.38 1.31,2.05 3.93,4.86 8.74,7.54 2.5,2.43 5,4.73 7.43,6.9 1.84,1.41 2.86,2.81 3.87,4.86 0.36,0.89 0.72,1.53 1.08,2.3 0.48,1.02 2.26,2.3 4.81,3.45 0.95,0.51 1.84,1.15 2.85,1.79 0.77,0.38 1.66,0.77 2.49,1.02 1.07,0.38 1.54,1.02 1.55,1.54 0,0.51 0,0.9 0,1.41 0.18,0.64 0.36,1.28 0.6,1.79 0.59,0.51 1.19,1.02 1.84,1.53 4.51,-0 9.01,-0.13 13.57,-0.14 1.78,-0 3.31,-1.67 4.25,-4.99 0.12,-0.64 0.29,-1.41 0.47,-2.05 0.65,-1.54 1.23,-2.95 1.94,-4.35 0.77,-1.02 -0.01,-2.82 -0.61,-5.25 -0,-0.38 -0,-0.77 -0,-1.15 -0.18,-0.26 -0.36,-0.64 -0.48,-0.9 -0.18,-0.26 -0.36,-0.51 -0.54,-0.9 -0.72,-1.15 -1.37,-2.3 -2.09,-3.58 -0.18,0 -0.36,-0.13 -0.48,-0.38 0.3,0 0.65,0 1.01,0 0.12,0.26 0.3,0.38 0.48,0.38 0.89,-0 1.84,-0 2.85,-0 0.24,0 0.59,-0.13 0.95,-0.38 0.65,-0.13 1.36,-0.26 2.01,-0.51 1.01,-0.13 2.25,-0.64 2.72,-2.44 0,-0.13 -0,-0.25 -0,-0.51 0.18,0 0.36,-0.13 0.53,-0.26 0.47,-0 1.01,-0 1.48,-0 0.53,-0.77 1,-1.28 0.52,-2.82 -0.18,-0.51 -0.36,-1.15 -0.54,-1.79 -0.6,-1.53 -1.08,-2.56 -2.09,-3.07 -0.18,0 -0.36,0 -0.53,0 -1.48,-1.02 -2.91,-2.05 -4.34,-3.07 1.6,-0.13 3.2,-0.13 4.86,-0.13 0.41,-0.13 0.95,-0.38 1.48,-0.64 0.47,0 1.01,-0.51 1.47,-1.92 0.18,-0.38 0.35,-0.77 0.53,-1.15 -0.06,-0.64 -0.06,-1.15 -0.07,-1.92 0.89,-0 1.84,-0.13 2.79,-0.13 0.3,-0.26 0.65,-0.51 1,-0.9 0.12,-0.26 0.29,-0.64 0.47,-0.9 0.65,0 1.36,-0 2.02,-0 0.83,-0.51 1.36,-1.15 1.83,-2.18 -0,-0.26 -0,-0.51 -0,-0.64 0.12,-0.13 0.3,-0.26 0.47,-0.51 -0,-0.13 -0,-0.38 -0,-0.64 0.18,-0.13 0.35,-0.26 0.53,-0.51zm-22.43 26.64c-0.18,0 -0.36,0 -0.53,0 -0,-0.13 -0,-0.25 -0,-0.51 0.18,0.26 0.36,0.38 0.54,0.51zm-35.81 -36.31c0.13,0.09 0.26,0.21 0.4,0.34 -0.13,-0.11 -0.27,-0.22 -0.4,-0.34z"/>
 </g>
</svg>
