<svg xmlns="http://www.w3.org/2000/svg" viewBox="0 0 800 1400">
  <path d="M 246.80,1027.72 L 246.90,1027.86 L 246.98,1027.98 L 247.11,1028.16 L 247.25,1028.35 L 247.27,1028.38 L 247.32,1028.44 L 247.37,1028.50 L 247.60,1028.81 L 247.68,1028.93 L 247.79,1029.07 L 247.91,1029.27 L 247.98,1029.40 L 248.04,1029.51 L 248.13,1029.73 L 248.18,1029.85 L 248.29,1030.03 L 248.36,1030.15 L 248.37,1030.16 L 248.37,1030.17 L 248.49,1030.37 L 248.58,1030.50 L 248.68,1030.65 L 248.76,1030.78 L 249.11,1031.17 L 249.41,1031.57 L 249.54,1031.73 L 249.63,1031.85 L 249.79,1032.04 L 249.81,1032.07 L 249.91,1032.19 L 250.22,1032.50 L 250.31,1032.59 L 250.44,1032.72 L 250.44,1032.72 L 250.75,1032.97 L 250.80,1033.02 L 250.94,1033.17 L 251.20,1033.43 L 251.35,1033.55 L 251.48,1033.67 L 251.72,1033.84 L 252.10,1034.09 L 252.54,1034.41 L 252.70,1034.51 L 252.82,1034.60 L 252.88,1034.64 L 252.91,1034.66 L 253.04,1034.74 L 253.13,1034.75 L 253.24,1034.75 L 253.36,1034.75 L 253.48,1034.77 L 253.58,1034.78 L 253.68,1034.80 L 253.78,1034.82 L 253.86,1034.85 L 253.96,1034.89 L 254.03,1034.94 L 254.09,1034.98 L 254.20,1035.07 L 254.50,1035.33 L 254.52,1035.36 L 254.60,1035.43 L 254.75,1035.55 L 254.87,1035.63 L 255.08,1035.79 L 255.14,1035.83 L 255.31,1035.96 L 255.55,1036.12 L 255.80,1036.25 L 255.85,1036.29 L 255.94,1036.34 L 256.06,1036.42 L 256.16,1036.49 L 256.23,1036.55 L 256.32,1036.62 L 256.41,1036.71 L 256.45,1036.75 L 256.52,1036.84 L 256.61,1036.96 L 256.69,1037.07 L 256.78,1037.18 L 256.86,1037.27 L 256.93,1037.35 L 257.07,1037.46 L 257.19,1037.53 L 257.38,1037.58 L 257.44,1037.72 L 257.54,1037.85 L 257.64,1037.99 L 257.82,1038.20 L 257.99,1038.38 L 258.07,1038.47 L 258.13,1038.57 L 258.17,1038.66 L 258.20,1038.75 L 258.23,1038.86 L 258.26,1038.98 L 258.30,1039.09 L 258.31,1039.10 L 258.32,1039.14 L 258.32,1039.14 L 258.36,1039.21 L 258.41,1039.29 L 258.46,1039.37 L 258.56,1039.49 L 258.62,1039.56 L 258.67,1039.63 L 258.77,1039.75 L 258.90,1039.90 L 259.09,1040.12 L 259.22,1040.26 L 259.29,1040.34 L 259.36,1040.40 L 259.42,1040.46 L 259.61,1040.65 L 259.80,1040.87 L 259.99,1041.05 L 260.12,1041.16 L 260.15,1041.19 L 260.19,1041.22 L 260.41,1041.43 L 260.70,1041.69 L 261.00,1041.96 L 261.15,1042.08 L 261.21,1042.14 L 261.28,1042.21 L 261.44,1042.41 L 261.60,1042.65 L 261.73,1042.81 L 261.80,1042.89 L 261.97,1043.13 L 262.10,1043.32 L 262.29,1043.58 L 262.36,1043.65 L 262.55,1043.82 L 262.72,1043.92 L 262.83,1043.98 L 262.94,1044.03 L 263.02,1044.06 L 263.16,1044.10 L 263.32,1044.18 L 263.55,1044.30 L 263.64,1044.36 L 263.68,1044.38 L 264.00,1044.61 L 264.33,1044.85 L 264.44,1044.93 L 264.68,1045.14 L 264.82,1045.27 L 264.90,1045.37 L 265.01,1045.52 L 265.03,1045.54 L 265.21,1045.79 L 265.38,1046.00 L 265.61,1046.26 L 265.99,1046.66 L 266.03,1046.69 L 266.07,1046.72 L 266.11,1046.75 L 266.15,1046.78 L 266.19,1046.81 L 266.22,1046.84 L 266.26,1046.87 L 266.30,1046.90 L 266.34,1046.94 L 266.37,1046.97 L 266.41,1047.00 L 266.45,1047.04 L 266.48,1047.07 L 266.52,1047.10 L 266.55,1047.14 L 266.59,1047.17 L 266.62,1047.21 L 266.65,1047.24 L 266.69,1047.28 L 266.72,1047.31 L 266.75,1047.35 L 266.78,1047.38 L 266.81,1047.42 L 266.84,1047.46 L 266.90,1047.53 L 266.96,1047.60 L 267.01,1047.67 L 267.07,1047.74 L 267.12,1047.81 L 267.18,1047.88 L 267.24,1047.95 L 267.30,1048.02 L 267.36,1048.09 L 267.41,1048.15 L 267.47,1048.22 L 267.53,1048.29 L 267.59,1048.36 L 267.65,1048.42 L 267.71,1048.49 L 267.78,1048.56 L 267.84,1048.62 L 267.90,1048.69 L 267.96,1048.75 L 268.03,1048.82 L 268.09,1048.88 L 268.16,1048.95 L 268.22,1049.01 L 268.29,1049.08 L 268.35,1049.14 L 268.42,1049.21 L 268.48,1049.27 L 268.55,1049.33 L 268.62,1049.39 L 268.68,1049.46 L 268.75,1049.52 L 268.82,1049.58 L 268.89,1049.64 L 268.96,1049.70 L 269.03,1049.76 L 269.09,1049.82 L 269.16,1049.88 L 269.23,1049.94 L 269.30,1050.00 L 269.36,1050.06 L 269.43,1050.12 L 269.49,1050.19 L 269.56,1050.25 L 269.62,1050.31 L 269.68,1050.37 L 269.74,1050.43 L 269.80,1050.49 L 269.86,1050.55 L 269.92,1050.61 L 269.98,1050.67 L 270.04,1050.74 L 270.10,1050.80 L 270.16,1050.86 L 270.32,1051.01 L 270.47,1051.15 L 270.63,1051.29 L 270.79,1051.43 L 270.95,1051.57 L 271.11,1051.71 L 271.27,1051.85 L 271.41,1051.97 L 271.55,1052.09 L 271.68,1052.21 L 271.82,1052.33 L 271.96,1052.45 L 272.10,1052.57 L 272.24,1052.69 L 272.28,1052.72 L 272.31,1052.74 L 272.33,1052.77 L 272.36,1052.79 L 272.38,1052.81 L 272.42,1052.84 L 272.45,1052.86 L 272.49,1052.90 L 272.54,1052.93 L 272.58,1052.96 L 272.63,1053.00 L 272.68,1053.03 L 272.72,1053.06 L 272.77,1053.09 L 272.83,1053.13 L 272.88,1053.16 L 272.93,1053.20 L 272.98,1053.23 L 273.03,1053.26 L 273.09,1053.29 L 273.14,1053.32 L 273.19,1053.36 L 273.25,1053.39 L 273.30,1053.42 L 273.35,1053.45 L 273.41,1053.48 L 273.47,1053.51 L 273.52,1053.54 L 273.58,1053.57 L 273.64,1053.61 L 273.80,1053.70 L 273.87,1053.73 L 273.95,1053.77 L 274.02,1053.81 L 274.09,1053.85 L 274.16,1053.89 L 274.23,1053.93 L 274.29,1053.97 L 274.36,1054.02 L 274.43,1054.06 L 274.50,1054.10 L 274.57,1054.14 L 274.64,1054.19 L 274.71,1054.23 L 274.77,1054.27 L 274.84,1054.32 L 274.91,1054.36 L 274.98,1054.41 L 275.04,1054.46 L 275.11,1054.50 L 275.17,1054.55 L 275.24,1054.60 L 275.31,1054.65 L 275.37,1054.69 L 275.44,1054.74 L 275.50,1054.79 L 275.55,1054.84 L 275.60,1054.88 L 275.65,1054.92 L 275.70,1054.97 L 275.75,1055.02 L 275.80,1055.06 L 275.85,1055.11 L 275.89,1055.15 L 275.94,1055.20 L 275.99,1055.25 L 276.04,1055.30 L 276.08,1055.34 L 276.13,1055.39 L 276.17,1055.44 L 276.22,1055.49 L 276.26,1055.54 L 276.31,1055.59 L 276.35,1055.64 L 276.40,1055.69 L 276.44,1055.74 L 276.48,1055.79 L 276.53,1055.85 L 276.57,1055.90 L 276.61,1055.95 L 276.65,1056.00 L 276.69,1056.06 L 276.73,1056.11 L 276.77,1056.16 L 276.81,1056.22 L 276.85,1056.27 L 276.89,1056.33 L 276.93,1056.38 L 276.96,1056.44 L 277.00,1056.49 L 277.04,1056.55 L 277.08,1056.60 L 277.11,1056.66 L 277.15,1056.72 L 277.18,1056.77 L 277.22,1056.83 L 277.25,1056.89 L 277.28,1056.95 L 277.32,1057.01 L 277.35,1057.06 L 277.38,1057.12 L 277.42,1057.18 L 277.45,1057.24 L 277.48,1057.30 L 277.51,1057.36 L 277.54,1057.42 L 277.57,1057.48 L 277.60,1057.54 L 277.63,1057.60 L 277.65,1057.66 L 277.68,1057.73 L 277.71,1057.79 L 277.73,1057.85 L 277.76,1057.91 L 277.79,1057.97 L 277.81,1058.03 L 277.84,1058.10 L 277.86,1058.16 L 277.88,1058.22 L 277.91,1058.29 L 277.93,1058.35 L 277.95,1058.41 L 277.97,1058.48 L 277.99,1058.54 L 278.01,1058.60 L 278.03,1058.67 L 278.05,1058.73 L 284.09,1083.68 L 307.78,1063.76 L 314.64,1022.80 L 300.40,1019.65 L 300.33,1019.62 L 300.25,1019.59 L 300.18,1019.55 L 300.10,1019.52 L 300.02,1019.48 L 299.95,1019.44 L 299.87,1019.41 L 299.80,1019.37 L 299.72,1019.33 L 299.65,1019.29 L 299.57,1019.25 L 299.49,1019.21 L 299.42,1019.17 L 299.38,1019.15 L 299.33,1019.13 L 299.29,1019.11 L 299.25,1019.08 L 299.21,1019.06 L 299.17,1019.04 L 299.13,1019.01 L 299.09,1018.99 L 299.05,1018.96 L 299.01,1018.94 L 298.97,1018.91 L 298.94,1018.89 L 298.90,1018.86 L 298.86,1018.83 L 298.82,1018.80 L 298.79,1018.78 L 298.75,1018.75 L 298.71,1018.72 L 298.69,1018.71 L 298.67,1018.69 L 298.65,1018.68 L 298.64,1018.66 L 298.62,1018.65 L 298.60,1018.64 L 298.59,1018.63 L 298.55,1018.59 L 298.50,1018.55 L 298.46,1018.50 L 298.42,1018.46 L 298.38,1018.42 L 298.34,1018.38 L 298.30,1018.34 L 298.26,1018.29 L 298.22,1018.25 L 298.18,1018.21 L 298.14,1018.17 L 298.10,1018.13 L 298.06,1018.09 L 298.03,1018.05 L 297.99,1018.02 L 297.95,1017.98 L 297.91,1017.94 L 297.87,1017.90 L 297.83,1017.87 L 297.79,1017.83 L 297.75,1017.80 L 297.71,1017.76 L 297.68,1017.73 L 297.65,1017.71 L 297.62,1017.68 L 297.58,1017.65 L 297.55,1017.63 L 297.52,1017.60 L 297.48,1017.58 L 297.45,1017.55 L 297.41,1017.53 L 297.38,1017.51 L 297.34,1017.48 L 297.31,1017.46 L 297.27,1017.44 L 297.24,1017.42 L 297.20,1017.40 L 297.16,1017.38 L 297.13,1017.36 L 297.09,1017.34 L 297.05,1017.32 L 297.01,1017.30 L 296.98,1017.28 L 296.94,1017.26 L 296.90,1017.24 L 296.86,1017.23 L 296.82,1017.21 L 296.78,1017.20 L 296.75,1017.18 L 296.71,1017.17 L 296.67,1017.15 L 296.64,1017.14 L 296.62,1017.14 L 296.59,1017.13 L 296.56,1017.12 L 296.51,1017.11 L 296.46,1017.10 L 296.41,1017.08 L 296.35,1017.07 L 296.30,1017.06 L 296.25,1017.05 L 296.20,1017.04 L 296.14,1017.03 L 296.09,1017.02 L 296.04,1017.01 L 295.98,1017.01 L 295.93,1017.00 L 295.87,1016.99 L 295.82,1016.99 L 295.77,1016.98 L 295.71,1016.97 L 295.66,1016.97 L 295.60,1016.97 L 295.57,1016.96 L 295.53,1016.96 L 295.49,1016.97 L 295.43,1016.97 L 295.37,1016.97 L 295.31,1016.97 L 295.25,1016.97 L 295.19,1016.98 L 295.13,1016.98 L 295.06,1016.98 L 295.00,1016.97 L 294.94,1016.97 L 294.88,1016.97 L 294.82,1016.97 L 294.76,1016.97 L 294.70,1016.96 L 294.64,1016.96 L 294.58,1016.95 L 294.51,1016.95 L 294.45,1016.94 L 294.39,1016.94 L 294.36,1016.93 L 294.34,1016.93 L 294.31,1016.92 L 294.28,1016.92 L 294.26,1016.91 L 294.23,1016.91 L 294.20,1016.90 L 294.17,1016.89 L 294.14,1016.88 L 294.07,1016.86 L 294.01,1016.84 L 293.94,1016.82 L 293.88,1016.80 L 293.81,1016.79 L 293.75,1016.77 L 293.68,1016.75 L 293.61,1016.73 L 293.54,1016.71 L 293.47,1016.70 L 293.40,1016.68 L 293.33,1016.66 L 293.26,1016.65 L 293.20,1016.64 L 293.14,1016.63 L 293.08,1016.61 L 293.02,1016.60 L 292.96,1016.59 L 292.90,1016.58 L 292.84,1016.57 L 292.78,1016.57 L 292.71,1016.56 L 292.65,1016.55 L 292.58,1016.54 L 292.52,1016.53 L 292.45,1016.53 L 292.39,1016.52 L 292.35,1016.52 L 292.31,1016.51 L 292.27,1016.50 L 292.23,1016.49 L 292.18,1016.48 L 292.13,1016.47 L 292.08,1016.46 L 292.03,1016.45 L 291.98,1016.44 L 291.94,1016.42 L 291.89,1016.41 L 291.84,1016.39 L 291.80,1016.38 L 291.75,1016.36 L 291.71,1016.35 L 291.66,1016.33 L 291.62,1016.32 L 291.57,1016.30 L 291.53,1016.28 L 291.48,1016.27 L 291.44,1016.25 L 291.39,1016.23 L 291.32,1016.20 L 291.25,1016.18 L 291.17,1016.15 L 291.04,1016.11 L 290.90,1016.07 L 290.77,1016.03 L 290.61,1015.98 L 290.58,1015.97 L 290.45,1015.93 L 290.28,1015.89 L 290.20,1015.86 L 290.11,1015.84 L 290.03,1015.82 L 289.94,1015.80 L 289.86,1015.78 L 289.77,1015.76 L 289.60,1015.73 L 289.51,1015.71 L 289.43,1015.69 L 289.34,1015.67 L 289.26,1015.65 L 289.17,1015.63 L 289.08,1015.61 L 289.00,1015.59 L 288.97,1015.58 L 288.95,1015.58 L 288.93,1015.57 L 288.90,1015.56 L 288.88,1015.55 L 288.85,1015.54 L 288.83,1015.53 L 288.81,1015.52 L 288.78,1015.50 L 288.76,1015.49 L 288.74,1015.48 L 288.72,1015.47 L 288.70,1015.46 L 288.68,1015.44 L 288.66,1015.43 L 288.63,1015.41 L 288.61,1015.40 L 288.58,1015.38 L 288.56,1015.36 L 288.54,1015.34 L 288.51,1015.32 L 288.48,1015.30 L 288.46,1015.28 L 288.43,1015.25 L 288.40,1015.22 L 288.36,1015.19 L 288.33,1015.16 L 288.29,1015.13 L 288.26,1015.09 L 288.22,1015.06 L 288.19,1015.03 L 288.15,1015.00 L 288.12,1014.97 L 288.08,1014.95 L 287.97,1014.86 L 287.93,1014.82 L 287.88,1014.78 L 287.84,1014.74 L 287.79,1014.71 L 287.75,1014.67 L 287.70,1014.63 L 287.65,1014.60 L 287.60,1014.56 L 287.59,1014.55 L 287.57,1014.55 L 287.55,1014.54 L 287.53,1014.54 L 287.52,1014.53 L 287.50,1014.52 L 287.45,1014.50 L 287.39,1014.48 L 287.34,1014.46 L 287.29,1014.43 L 287.24,1014.41 L 287.18,1014.39 L 287.13,1014.36 L 287.08,1014.34 L 287.02,1014.31 L 286.97,1014.28 L 286.91,1014.26 L 286.86,1014.23 L 286.80,1014.20 L 286.75,1014.17 L 286.69,1014.14 L 286.64,1014.11 L 286.59,1014.08 L 286.54,1014.05 L 286.49,1014.02 L 286.44,1013.99 L 286.40,1013.95 L 286.35,1013.92 L 286.30,1013.89 L 286.26,1013.86 L 286.21,1013.82 L 286.16,1013.79 L 286.11,1013.75 L 286.07,1013.72 L 286.03,1013.69 L 285.99,1013.66 L 285.95,1013.63 L 285.91,1013.60 L 285.86,1013.57 L 285.82,1013.54 L 285.78,1013.51 L 285.73,1013.48 L 285.69,1013.45 L 285.67,1013.44 L 285.65,1013.42 L 285.63,1013.41 L 285.61,1013.39 L 285.59,1013.37 L 285.56,1013.36 L 285.54,1013.34 L 285.52,1013.32 L 285.50,1013.30 L 285.48,1013.28 L 285.46,1013.26 L 285.44,1013.24 L 285.42,1013.22 L 285.40,1013.20 L 285.38,1013.18 L 285.33,1013.18 L 285.27,1013.18 L 285.23,1013.19 L 285.19,1013.19 L 285.10,1013.19 L 285.02,1013.19 L 284.93,1013.19 L 284.85,1013.18 L 284.76,1013.18 L 284.68,1013.18 L 284.59,1013.18 L 284.51,1013.17 L 284.42,1013.17 L 284.29,1013.16 L 284.26,1013.16 L 284.23,1013.16 L 284.19,1013.16 L 284.16,1013.16 L 284.13,1013.17 L 284.10,1013.17 L 284.06,1013.17 L 284.03,1013.17 L 284.00,1013.18 L 283.97,1013.18 L 283.93,1013.19 L 283.90,1013.19 L 283.87,1013.20 L 283.84,1013.20 L 283.80,1013.21 L 283.77,1013.22 L 283.74,1013.21 L 283.71,1013.19 L 283.68,1013.18 L 283.65,1013.17 L 283.62,1013.16 L 283.59,1013.14 L 283.56,1013.13 L 283.53,1013.11 L 283.50,1013.10 L 283.44,1013.06 L 283.38,1013.03 L 283.32,1013.00 L 283.26,1012.96 L 283.20,1012.93 L 283.14,1012.89 L 283.08,1012.85 L 283.01,1012.81 L 282.95,1012.77 L 282.88,1012.73 L 282.81,1012.69 L 282.75,1012.65 L 282.68,1012.60 L 282.53,1012.49 L 282.40,1012.39 L 282.34,1012.35 L 282.28,1012.31 L 282.23,1012.27 L 282.17,1012.23 L 282.11,1012.19 L 282.05,1012.15 L 281.99,1012.11 L 281.94,1012.07 L 281.88,1012.03 L 281.82,1011.99 L 281.76,1011.96 L 281.70,1011.92 L 281.64,1011.88 L 281.58,1011.85 L 281.54,1011.82 L 281.51,1011.80 L 281.47,1011.78 L 281.43,1011.76 L 281.39,1011.74 L 281.35,1011.72 L 281.31,1011.70 L 281.27,1011.68 L 281.22,1011.66 L 281.18,1011.64 L 281.13,1011.61 L 281.09,1011.59 L 281.05,1011.58 L 281.00,1011.56 L 280.96,1011.54 L 280.63,1011.46 L 280.30,1011.40 L 280.12,1011.36 L 279.97,1011.34 L 279.83,1011.31 L 279.73,1011.30 L 279.61,1011.28 L 279.58,1011.28 L 279.56,1011.28 L 279.53,1011.27 L 279.50,1011.27 L 279.48,1011.27 L 279.45,1011.27 L 279.43,1011.27 L 279.40,1011.27 L 279.37,1011.27 L 279.35,1011.27 L 279.32,1011.28 L 279.29,1011.28 L 279.27,1011.28 L 279.24,1011.29 L 279.22,1011.29 L 279.19,1011.30 L 279.17,1011.30 L 279.14,1011.31 L 279.11,1011.31 L 279.09,1011.32 L 279.06,1011.33 L 279.04,1011.34 L 278.76,1011.43 L 278.44,1011.53 L 278.15,1011.62 L 277.87,1011.71 L 277.86,1011.72 L 277.85,1011.72 L 277.84,1011.73 L 277.83,1011.73 L 277.82,1011.74 L 277.81,1011.74 L 277.80,1011.75 L 277.79,1011.76 L 277.78,1011.77 L 277.77,1011.78 L 277.76,1011.78 L 277.75,1011.79 L 277.74,1011.80 L 277.74,1011.81 L 277.73,1011.82 L 277.72,1011.83 L 277.72,1011.84 L 277.71,1011.85 L 277.71,1011.87 L 277.70,1011.88 L 276.92,1012.07 L 276.88,1012.08 L 276.84,1012.09 L 276.79,1012.10 L 276.75,1012.11 L 276.71,1012.12 L 276.67,1012.14 L 276.63,1012.15 L 276.59,1012.16 L 276.54,1012.18 L 276.50,1012.19 L 276.46,1012.21 L 276.42,1012.22 L 276.38,1012.24 L 276.33,1012.25 L 276.30,1012.27 L 276.27,1012.28 L 276.24,1012.30 L 276.22,1012.31 L 276.19,1012.32 L 276.17,1012.33 L 276.14,1012.34 L 276.11,1012.35 L 276.09,1012.36 L 276.06,1012.37 L 276.04,1012.38 L 275.80,1012.46 L 275.79,1012.46 L 275.77,1012.47 L 275.75,1012.47 L 275.74,1012.47 L 275.72,1012.48 L 275.70,1012.48 L 275.68,1012.48 L 275.66,1012.48 L 275.65,1012.48 L 275.63,1012.48 L 275.61,1012.48 L 275.59,1012.48 L 275.57,1012.48 L 275.56,1012.48 L 275.54,1012.48 L 275.52,1012.47 L 275.50,1012.47 L 275.49,1012.47 L 275.47,1012.46 L 275.45,1012.46 L 275.43,1012.45 L 275.42,1012.44 L 275.40,1012.44 L 275.38,1012.43 L 275.36,1012.42 L 275.35,1012.41 L 275.33,1012.41 L 275.31,1012.40 L 275.30,1012.39 L 275.28,1012.38 L 275.27,1012.37 L 275.25,1012.36 L 275.24,1012.34 L 275.22,1012.33 L 275.21,1012.32 L 275.20,1012.31 L 274.98,1012.08 L 274.95,1012.05 L 274.92,1012.02 L 274.89,1011.99 L 274.87,1011.97 L 274.86,1011.96 L 274.84,1011.94 L 274.82,1011.93 L 274.80,1011.91 L 274.79,1011.90 L 274.77,1011.88 L 274.75,1011.87 L 274.73,1011.86 L 274.71,1011.84 L 274.69,1011.83 L 274.67,1011.82 L 274.05,1012.01 L 273.59,1012.16 L 273.15,1012.27 L 272.84,1012.34 L 272.74,1012.36 L 272.57,1012.40 L 272.56,1012.40 L 272.50,1012.41 L 272.19,1012.43 L 271.33,1012.51 L 270.97,1012.57 L 270.71,1012.62 L 270.05,1012.78 L 270.01,1012.80 L 269.96,1012.82 L 269.92,1012.83 L 269.88,1012.85 L 269.83,1012.87 L 269.79,1012.89 L 269.75,1012.91 L 269.70,1012.93 L 269.66,1012.95 L 269.62,1012.97 L 269.58,1012.99 L 269.54,1013.01 L 269.50,1013.03 L 269.46,1013.05 L 269.42,1013.07 L 269.38,1013.09 L 269.34,1013.11 L 269.31,1013.14 L 269.24,1013.18 L 269.18,1013.22 L 269.11,1013.26 L 269.05,1013.31 L 268.98,1013.35 L 268.92,1013.39 L 268.85,1013.43 L 268.78,1013.47 L 268.72,1013.51 L 268.65,1013.55 L 268.58,1013.59 L 268.52,1013.62 L 268.45,1013.66 L 268.38,1013.70 L 268.31,1013.73 L 268.25,1013.77 L 268.18,1013.81 L 268.11,1013.84 L 268.04,1013.87 L 267.97,1013.91 L 267.91,1013.94 L 267.84,1013.97 L 267.77,1014.01 L 267.70,1014.04 L 267.63,1014.07 L 267.56,1014.10 L 267.49,1014.13 L 267.42,1014.16 L 267.13,1014.28 L 267.10,1014.30 L 267.06,1014.32 L 267.02,1014.33 L 266.99,1014.35 L 266.95,1014.37 L 266.91,1014.38 L 266.87,1014.40 L 266.84,1014.41 L 266.80,1014.42 L 266.76,1014.44 L 266.72,1014.45 L 266.68,1014.46 L 266.64,1014.47 L 266.60,1014.48 L 266.57,1014.50 L 266.53,1014.51 L 266.49,1014.52 L 266.45,1014.52 L 266.41,1014.53 L 266.37,1014.53 L 266.34,1014.53 L 266.30,1014.54 L 266.26,1014.54 L 266.22,1014.54 L 266.19,1014.54 L 266.15,1014.55 L 266.11,1014.55 L 266.07,1014.55 L 266.04,1014.55 L 266.00,1014.55 L 265.96,1014.54 L 265.92,1014.54 L 265.89,1014.54 L 265.85,1014.54 L 265.81,1014.53 L 265.78,1014.53 L 265.74,1014.53 L 265.70,1014.52 L 265.66,1014.52 L 265.61,1014.51 L 265.55,1014.51 L 265.50,1014.51 L 265.44,1014.50 L 265.39,1014.50 L 265.33,1014.50 L 265.27,1014.50 L 265.22,1014.50 L 265.16,1014.50 L 265.11,1014.50 L 265.06,1014.50 L 265.01,1014.50 L 264.95,1014.50 L 264.90,1014.51 L 264.85,1014.51 L 264.80,1014.51 L 264.74,1014.52 L 264.69,1014.52 L 264.64,1014.53 L 264.59,1014.53 L 264.50,1014.54 L 264.49,1014.54 L 264.48,1014.54 L 264.47,1014.55 L 264.45,1014.55 L 264.42,1014.56 L 264.38,1014.58 L 264.35,1014.59 L 264.31,1014.61 L 264.27,1014.62 L 264.24,1014.64 L 264.20,1014.65 L 264.17,1014.67 L 264.13,1014.68 L 264.10,1014.70 L 264.06,1014.72 L 264.03,1014.74 L 264.00,1014.75 L 263.97,1014.77 L 263.93,1014.79 L 263.90,1014.81 L 263.87,1014.83 L 263.85,1014.84 L 263.84,1014.85 L 263.82,1014.86 L 263.80,1014.87 L 263.78,1014.88 L 263.76,1014.89 L 263.73,1014.90 L 263.71,1014.91 L 263.68,1014.92 L 263.66,1014.93 L 263.63,1014.93 L 263.61,1014.94 L 263.58,1014.95 L 263.55,1014.95 L 263.53,1014.96 L 263.50,1014.96 L 263.48,1014.97 L 263.45,1014.97 L 263.42,1014.97 L 263.40,1014.97 L 263.37,1014.98 L 263.35,1014.98 L 263.32,1014.98 L 263.29,1014.98 L 263.27,1014.98 L 263.24,1014.98 L 263.22,1014.98 L 263.19,1014.97 L 263.16,1014.97 L 263.14,1014.97 L 263.11,1014.97 L 263.09,1014.96 L 263.06,1014.96 L 263.04,1014.95 L 263.01,1014.95 L 262.98,1014.94 L 262.95,1014.93 L 262.91,1014.91 L 262.87,1014.90 L 262.83,1014.89 L 262.79,1014.87 L 262.75,1014.86 L 262.71,1014.84 L 262.67,1014.83 L 262.63,1014.81 L 262.59,1014.79 L 262.55,1014.78 L 262.51,1014.76 L 262.47,1014.74 L 262.44,1014.72 L 262.40,1014.70 L 262.36,1014.68 L 262.33,1014.67 L 262.28,1014.64 L 262.24,1014.62 L 262.18,1014.59 L 262.07,1014.53 L 261.97,1014.47 L 261.86,1014.42 L 261.75,1014.36 L 261.64,1014.30 L 261.54,1014.25 L 261.43,1014.19 L 261.32,1014.14 L 261.21,1014.09 L 261.11,1014.03 L 261.00,1013.98 L 260.89,1013.93 L 260.78,1013.88 L 260.67,1013.83 L 260.56,1013.78 L 260.46,1013.73 L 260.41,1013.70 L 260.35,1013.67 L 260.28,1013.63 L 260.22,1013.59 L 260.16,1013.54 L 260.09,1013.50 L 260.03,1013.45 L 259.97,1013.40 L 259.90,1013.35 L 259.88,1013.34 L 259.84,1013.30 L 259.77,1013.25 L 259.74,1013.23 L 259.71,1013.20 L 259.65,1013.15 L 259.58,1013.10 L 259.52,1013.05 L 259.46,1013.00 L 259.41,1012.95 L 259.40,1012.95 L 259.34,1012.89 L 259.28,1012.84 L 259.22,1012.79 L 259.16,1012.73 L 259.07,1012.65 L 259.06,1012.65 L 258.76,1012.42 L 258.50,1012.24 L 258.30,1012.08 L 258.11,1011.95 L 258.06,1011.91 L 258.05,1011.90 L 258.03,1011.89 L 258.02,1011.88 L 258.00,1011.87 L 257.99,1011.86 L 257.97,1011.85 L 257.96,1011.84 L 257.94,1011.83 L 257.93,1011.83 L 257.91,1011.82 L 257.89,1011.81 L 257.88,1011.81 L 257.86,1011.80 L 257.84,1011.80 L 257.83,1011.79 L 257.82,1011.79 L 257.81,1011.79 L 257.79,1011.79 L 257.78,1011.78 L 257.76,1011.78 L 257.74,1011.78 L 257.72,1011.78 L 257.71,1011.78 L 257.71,1011.78 L 257.69,1011.78 L 257.67,1011.78 L 257.65,1011.78 L 257.64,1011.78 L 257.62,1011.78 L 257.60,1011.78 L 257.58,1011.79 L 257.56,1011.79 L 257.56,1011.79 L 257.53,1011.80 L 257.50,1011.80 L 257.47,1011.81 L 257.44,1011.82 L 257.41,1011.83 L 257.39,1011.83 L 257.38,1011.84 L 257.36,1011.84 L 257.33,1011.85 L 257.30,1011.86 L 257.28,1011.87 L 257.25,1011.88 L 257.22,1011.89 L 257.20,1011.90 L 257.19,1011.90 L 257.17,1011.92 L 257.14,1011.93 L 257.11,1011.94 L 257.09,1011.95 L 257.06,1011.97 L 257.04,1011.98 L 257.02,1011.99 L 257.00,1012.00 L 256.99,1012.01 L 256.97,1012.02 L 256.95,1012.04 L 256.94,1012.05 L 256.92,1012.06 L 256.90,1012.08 L 256.85,1012.12 L 256.82,1012.15 L 256.80,1012.16 L 256.75,1012.20 L 256.70,1012.25 L 256.65,1012.29 L 256.60,1012.34 L 256.55,1012.38 L 256.50,1012.43 L 256.45,1012.47 L 256.40,1012.51 L 256.35,1012.56 L 256.31,1012.60 L 256.29,1012.62 L 256.26,1012.65 L 256.22,1012.69 L 256.17,1012.74 L 256.13,1012.79 L 256.08,1012.83 L 256.07,1012.84 L 255.95,1012.97 L 255.85,1013.05 L 255.80,1013.11 L 255.76,1013.14 L 255.67,1013.22 L 255.65,1013.24 L 255.58,1013.31 L 255.57,1013.32 L 255.48,1013.39 L 255.42,1013.45 L 255.39,1013.48 L 255.30,1013.56 L 255.29,1013.57 L 255.20,1013.64 L 255.17,1013.67 L 255.11,1013.72 L 255.02,1013.80 L 254.93,1013.88 L 254.84,1013.95 L 254.76,1014.02 L 254.75,1014.03 L 254.66,1014.10 L 254.57,1014.18 L 254.48,1014.25 L 254.39,1014.33 L 254.30,1014.40 L 254.21,1014.47 L 254.19,1014.48 L 254.17,1014.50 L 254.14,1014.52 L 254.11,1014.54 L 254.08,1014.56 L 254.05,1014.58 L 254.02,1014.59 L 253.99,1014.61 L 253.95,1014.63 L 253.92,1014.65 L 253.89,1014.66 L 253.85,1014.68 L 253.82,1014.70 L 253.79,1014.71 L 253.75,1014.73 L 253.72,1014.74 L 253.69,1014.76 L 253.65,1014.77 L 253.62,1014.78 L 253.58,1014.80 L 253.55,1014.81 L 253.48,1014.83 L 252.92,1015.05 L 252.91,1015.06 L 252.90,1015.06 L 252.88,1015.06 L 252.87,1015.07 L 252.85,1015.07 L 252.84,1015.07 L 252.83,1015.08 L 252.81,1015.08 L 252.80,1015.08 L 252.79,1015.08 L 252.77,1015.08 L 252.75,1015.08 L 252.73,1015.08 L 252.71,1015.08 L 252.69,1015.08 L 252.67,1015.08 L 252.65,1015.08 L 252.64,1015.08 L 252.62,1015.07 L 252.60,1015.07 L 252.58,1015.07 L 252.57,1015.06 L 252.55,1015.06 L 252.53,1015.05 L 252.51,1015.05 L 252.50,1015.04 L 252.48,1015.03 L 252.46,1015.03 L 252.45,1015.02 L 252.43,1015.01 L 252.42,1015.00 L 252.40,1014.99 L 252.39,1014.98 L 252.06,1015.31 L 251.79,1015.53 L 251.67,1015.59 L 251.57,1015.62 L 251.45,1015.65 L 251.45,1015.69 L 251.45,1015.70 L 251.45,1015.71 L 251.46,1015.72 L 251.48,1015.74 L 251.49,1015.74 L 251.50,1015.75 L 251.50,1015.76 L 251.50,1015.78 L 251.50,1015.78 L 251.51,1015.79 L 251.52,1015.80 L 251.54,1015.81 L 251.58,1015.85 L 251.59,1015.87 L 251.60,1015.88 L 251.64,1015.89 L 251.64,1015.90 L 251.64,1015.90 L 251.64,1015.91 L 251.64,1015.93 L 251.64,1015.93 L 251.64,1015.94 L 251.65,1015.94 L 251.65,1015.94 L 251.66,1015.94 L 251.66,1015.95 L 251.67,1015.97 L 251.68,1015.98 L 251.68,1016.00 L 251.68,1016.00 L 251.69,1016.01 L 251.70,1016.02 L 251.70,1016.03 L 251.71,1016.07 L 251.72,1016.08 L 251.72,1016.08 L 251.73,1016.09 L 251.74,1016.09 L 251.74,1016.08 L 251.75,1016.08 L 251.77,1016.06 L 251.79,1016.02 L 251.79,1016.02 L 251.80,1016.02 L 251.80,1016.01 L 251.82,1016.01 L 251.84,1016.01 L 251.84,1016.01 L 251.85,1016.01 L 251.85,1016.01 L 251.85,1016.02 L 251.84,1016.07 L 251.82,1016.15 L 251.82,1016.16 L 251.82,1016.17 L 251.84,1016.19 L 251.84,1016.19 L 251.84,1016.21 L 251.84,1016.22 L 251.82,1016.26 L 251.83,1016.26 L 251.85,1016.26 L 251.86,1016.26 L 251.86,1016.25 L 251.87,1016.24 L 251.87,1016.24 L 251.88,1016.25 L 251.89,1016.26 L 251.89,1016.27 L 251.91,1016.29 L 251.93,1016.32 L 251.95,1016.35 L 251.96,1016.36 L 251.97,1016.40 L 251.98,1016.43 L 251.99,1016.46 L 251.99,1016.47 L 251.98,1016.47 L 251.97,1016.49 L 251.97,1016.50 L 251.98,1016.51 L 252.00,1016.52 L 252.01,1016.55 L 252.03,1016.58 L 252.06,1016.63 L 252.09,1016.67 L 252.12,1016.70 L 252.15,1016.72 L 252.18,1016.77 L 252.17,1016.80 L 252.18,1016.80 L 252.20,1016.80 L 252.22,1016.81 L 252.24,1016.81 L 252.26,1016.82 L 252.27,1016.78 L 252.29,1016.80 L 252.30,1016.80 L 252.30,1016.80 L 252.30,1016.80 L 252.31,1016.79 L 252.32,1016.79 L 252.32,1016.79 L 252.33,1016.79 L 252.33,1016.79 L 252.34,1016.79 L 252.34,1016.79 L 252.35,1016.79 L 252.35,1016.79 L 252.36,1016.79 L 252.39,1016.79 L 252.48,1016.78 L 252.53,1016.76 L 252.65,1016.74 L 252.68,1016.74 L 252.71,1016.74 L 252.81,1016.76 L 252.84,1016.76 L 252.81,1017.11 L 252.79,1017.37 L 252.80,1017.38 L 252.82,1017.40 L 252.88,1017.44 L 253.07,1017.57 L 253.35,1017.77 L 253.42,1017.82 L 253.44,1017.87 L 253.45,1017.87 L 253.45,1017.89 L 253.45,1017.90 L 253.46,1017.92 L 253.46,1017.94 L 253.49,1018.00 L 253.55,1018.16 L 253.60,1018.26 L 253.62,1018.27 L 253.61,1018.28 L 253.61,1018.29 L 253.62,1018.31 L 253.74,1018.54 L 253.75,1018.55 L 253.76,1018.56 L 253.76,1018.58 L 253.78,1018.61 L 253.79,1018.64 L 253.83,1018.72 L 253.72,1019.04 L 253.57,1019.48 L 253.47,1019.78 L 253.35,1019.79 L 252.96,1019.81 L 252.69,1019.83 L 252.59,1019.96 L 252.53,1020.05 L 252.44,1020.18 L 252.39,1020.13 L 252.37,1020.11 L 252.33,1020.10 L 252.28,1020.09 L 252.25,1020.09 L 252.23,1020.09 L 252.19,1020.07 L 252.13,1020.02 L 252.13,1020.02 L 252.13,1020.01 L 252.13,1020.00 L 252.12,1020.00 L 252.11,1019.99 L 252.10,1019.99 L 252.10,1020.01 L 252.10,1020.02 L 252.09,1020.03 L 252.08,1020.04 L 252.06,1020.05 L 252.02,1020.06 L 251.96,1020.09 L 251.94,1020.10 L 251.93,1020.10 L 251.91,1020.09 L 251.89,1020.07 L 251.86,1020.06 L 251.78,1019.99 L 251.75,1020.00 L 251.74,1020.00 L 251.73,1020.00 L 251.37,1019.97 L 251.37,1020.07 L 251.36,1020.17 L 251.36,1020.22 L 251.36,1020.22 L 251.37,1020.23 L 251.37,1020.24 L 251.38,1020.24 L 251.39,1020.27 L 251.41,1020.31 L 251.43,1020.34 L 251.44,1020.37 L 251.42,1020.37 L 251.40,1020.38 L 251.39,1020.38 L 251.38,1020.40 L 251.37,1020.41 L 251.34,1020.48 L 251.31,1020.55 L 251.29,1020.59 L 251.28,1020.62 L 251.25,1020.69 L 251.24,1020.71 L 251.23,1020.73 L 251.22,1020.75 L 251.21,1020.76 L 251.20,1020.79 L 251.19,1020.81 L 251.18,1020.85 L 251.13,1020.93 L 251.03,1021.15 L 251.26,1021.29 L 251.12,1021.74 L 251.05,1021.97 L 250.88,1021.89 L 250.85,1021.96 L 250.84,1022.00 L 250.72,1021.96 L 250.68,1021.95 L 250.68,1021.96 L 250.61,1021.94 L 250.55,1021.90 L 249.98,1021.64 L 249.95,1021.75 L 249.89,1021.99 L 249.86,1022.12 L 249.84,1022.22 L 249.76,1022.23 L 249.50,1022.23 L 249.32,1022.23 L 249.04,1022.24 L 248.96,1022.25 L 248.90,1022.25 L 248.87,1022.25 L 248.83,1022.26 L 248.82,1022.26 L 248.81,1022.27 L 248.81,1022.27 L 248.80,1022.28 L 248.80,1022.28 L 248.79,1022.27 L 248.78,1022.26 L 248.77,1022.26 L 248.75,1022.26 L 248.73,1022.26 L 248.72,1022.26 L 248.71,1022.27 L 248.69,1022.28 L 248.68,1022.29 L 248.67,1022.30 L 248.66,1022.29 L 248.65,1022.29 L 248.64,1022.28 L 248.64,1022.27 L 248.64,1022.27 L 248.63,1022.27 L 248.60,1022.27 L 248.55,1022.28 L 248.48,1022.29 L 248.21,1022.26 L 248.10,1022.25 L 248.02,1022.17 L 247.93,1022.07 L 247.55,1021.99 L 247.38,1021.96 L 247.30,1021.94 L 247.18,1021.90 L 247.15,1021.90 L 247.14,1021.90 L 247.08,1021.83 L 246.98,1021.71 L 246.98,1021.70 L 246.97,1021.70 L 246.96,1021.69 L 246.66,1021.29 L 246.59,1021.21 L 246.36,1020.92 L 246.34,1020.89 L 246.21,1020.72 L 246.04,1020.50 L 245.99,1020.44 L 245.84,1020.25 L 245.64,1019.98 L 245.61,1020.01 L 245.59,1020.03 L 245.40,1020.23 L 245.27,1020.37 L 245.07,1020.61 L 244.83,1020.40 L 244.81,1020.38 L 244.76,1020.34 L 244.70,1020.27 L 244.59,1020.12 L 244.48,1019.96 L 244.39,1019.85 L 244.26,1019.67 L 244.11,1019.51 L 243.78,1019.37 L 243.61,1019.31 L 243.14,1019.13 L 242.97,1019.06 L 242.82,1019.29 L 242.70,1019.48 L 242.56,1019.67 L 242.45,1019.84 L 242.26,1020.12 L 242.16,1020.26 L 241.97,1020.54 L 241.90,1020.65 L 241.72,1020.92 L 241.65,1021.02 L 241.51,1021.23 L 241.36,1021.45 L 241.31,1021.53 L 241.21,1021.68 L 241.17,1021.74 L 241.09,1021.85 L 241.01,1021.96 L 240.94,1022.06 L 240.82,1022.23 L 240.62,1022.51 L 240.57,1022.59 L 240.56,1022.61 L 240.56,1022.63 L 240.55,1022.67 L 240.54,1022.73 L 240.57,1022.76 L 240.63,1022.84 L 240.64,1022.84 L 240.64,1022.85 L 240.64,1022.86 L 240.59,1022.90 L 240.53,1022.96 L 240.37,1023.10 L 240.56,1023.22 L 240.92,1023.44 L 241.29,1023.69 L 241.71,1023.96 L 241.83,1024.03 L 241.89,1024.07 L 242.03,1024.16 L 242.16,1024.25 L 242.26,1024.31 L 242.39,1024.40 L 242.58,1024.57 L 242.90,1024.84 L 243.03,1024.95 L 243.18,1025.06 L 243.31,1025.15 L 243.40,1025.19 L 243.47,1025.23 L 243.60,1025.29 L 243.74,1025.36 L 243.92,1025.45 L 244.20,1025.59 L 244.25,1025.62 L 244.52,1025.79 L 244.68,1025.92 L 244.82,1026.05 L 244.85,1026.08 L 244.90,1026.13 L 244.95,1026.17 L 244.98,1026.20 L 245.07,1026.27 L 245.16,1026.33 L 245.24,1026.38 L 245.50,1026.51 L 245.58,1026.56 L 245.71,1026.63 L 245.85,1026.72 L 245.99,1026.80 L 246.01,1026.81 L 246.05,1026.85 L 246.21,1026.97 L 246.36,1027.15 L 246.60,1027.45 L 246.72,1027.62 L 246.80,1027.72 Z" fill="#E5E7EB" stroke="#374151" stroke-width="1" fill-rule="evenodd"/>
</svg>