<?xml version="1.0" encoding="UTF-8"?>
<!DOCTYPE svg PUBLIC "-//W3C//DTD SVG 1.1//EN" "http://www.w3.org/Graphics/SVG/1.1/DTD/svg11.dtd">
<!-- Creator: CorelDRAW 2021 (64-Bit) -->
<svg xmlns="http://www.w3.org/2000/svg" xml:space="preserve" width="0.720496in" height="0.637425in" version="1.1" shape-rendering="geometricPrecision" text-rendering="geometricPrecision" image-rendering="optimizeQuality" fill-rule="evenodd" clip-rule="evenodd"
viewBox="0 0 125.33 110.88"
 xmlns:xlink="http://www.w3.org/1999/xlink"
 xmlns:xodm="http://www.corel.com/coreldraw/odm/2003">
 <g id="Layer_x0020_1">
  <metadata id="CorelCorpID_0Corel-Layer"/>
  <path fill="none" fill-rule="nonzero" stroke="#336666" stroke-width="0.52" stroke-miterlimit="2.61313" d="M99.53 43.88c-0.45,0 -0.96,0.01 -1.41,0.01 -0.25,0.22 -0.45,0.33 -0.65,0.55 -0.3,-0.22 -0.61,-0.54 -0.86,-0.86 -0.51,-0.43 -0.96,-0.43 -1.41,-0.42 -1.11,0.23 -2.27,0.45 -3.33,0.57 -1.36,0.01 -3.12,1 -5.08,3.19 -0.45,0.44 -0.9,1.09 -2.21,1.1 -0.15,0 -0.3,0.11 -0.45,0.11 -0.2,-0.11 -0.35,-0.43 -0.51,-0.65 -0.96,-0.43 -1.97,-0.96 -2.93,-1.5 -1.41,0.12 -2.98,-0.3 -3.43,-1.39 -1.37,-1.29 -1.88,-4.44 -0.64,-8.91 -0.05,-0.43 -0.05,-0.76 -0.05,-1.09 0.15,-0.22 0.3,-0.55 0.45,-0.87 0.1,-0.11 0.25,-0.22 0.4,-0.44 0,-0.11 -0,-0.43 -0,-0.65 0.15,-0.22 0.3,-0.55 0.45,-0.87 0.2,-0.76 0.4,-1.74 0.6,-2.61 0.45,-0.98 0.9,-2.52 0.39,-3.39 -0.06,-1.74 -2.13,-3.57 -5.32,-5.39 -1.62,-1.07 -2.98,-0.63 -5.14,1.13 -0.6,0.33 -1.11,0.77 -1.61,1.1 -0.55,0.33 -1.16,0.66 -1.71,0.99 -0.45,0 -0.91,0.01 -1.31,0.01 -1.61,0.45 -3.22,0.79 -4.74,1.01 -0.5,0.55 -2.02,0.12 -3.84,-1.28 -0.15,-0.11 -0.3,-0.22 -0.46,-0.43 -0.76,-0.32 -1.41,-0.75 -2.07,-1.4 -0.2,-0.11 -0.35,-0.21 -0.51,-0.43 -0.15,0 -0.3,0 -0.4,0 -0.05,-0.33 -0.05,-0.76 -0.06,-1.2 -0.3,0.44 -0.6,0.87 -0.85,1.2 -0.25,0.22 -0.6,1 -0.86,1.11 -0.3,0 -0.61,0 -0.91,0.01 -0.4,0.33 -0.75,0.44 -1.16,0.55 -0.86,0.44 -1.71,0.99 -2.16,1.54 -0.5,0.44 -0.95,0.99 -1.36,1.42 -1.51,0.45 -2.47,0.45 -2.93,-0.3 -0.81,-0.86 -1.57,-1.62 -2.28,-2.37 -0.3,-0.22 -0.56,-0.65 -0.76,-0.97 -0.15,-0.54 -0.31,-1.08 -0.46,-1.63 -0.15,-0.33 -0.31,-0.65 -0.46,-0.87 -0.51,-0.97 -1.42,-1.94 -2.78,-2.37 -0.36,-0.54 -0.76,-1.08 -1.17,-1.73 -0.3,0 -0.61,-0.1 -0.86,-0.32 -0.2,-0.22 -0.35,-0.54 -0.51,-0.87 -0.15,-0.43 -0.36,-0.97 -0.51,-1.52 -0,-0.65 -0.01,-1.3 -0.01,-2.17 0.1,-0.11 0.25,-0.22 0.4,-0.44 0.15,-0.22 0.3,-0.55 0.45,-0.87 -0.05,-0.43 -0.05,-0.76 -0.05,-1.09 -0.15,0 -0.3,0 -0.45,0 -0.15,-0.11 -0.3,-0.22 -0.4,-0.43 -0.2,-0.54 -0.36,-1.08 -0.56,-1.73 -0.3,-0.22 -0.61,-0.54 -0.91,-0.86 -0.46,-0.87 -2.07,-1.83 -3.44,-2.69 -0.3,-0.11 -0.61,-0.32 -0.91,-0.54 -1.42,-1.08 -2.58,-1.5 -3.39,-1.49 -0.96,-0.54 -1.36,0.12 -1.81,0.56 -0.15,0.22 -0.3,0.33 -0.45,0.44 0,0.33 0,0.54 0.05,0.76 -0.15,0 -0.3,0 -0.45,0 -0.25,0.22 -0.45,0.44 -0.7,0.55 0,0.33 0.05,0.65 0.05,0.87 -0.1,0.33 -0.15,0.65 -0.15,0.98 -0.2,0.55 -0.45,0.98 -0.65,1.42 0,0.54 0.05,1.2 0.06,1.74 1.17,3.47 2.4,6.93 3.57,10.29 0.2,0.87 0.36,1.63 0.56,2.39 0.15,0.22 0.3,0.32 0.46,0.54 0.01,2.06 0.12,4.24 0.17,6.41 -0.15,0.22 -0.3,0.55 -0.45,0.76 0,0.33 0,0.65 0.05,0.87 -0.15,0.33 -0.3,0.65 -0.45,0.98 -0.15,0.33 -0.3,0.44 -0.4,0.55 0,0.33 0,0.65 0,0.87 -0.15,0.22 -0.3,0.33 -0.4,0.44 0,0.87 0.01,1.52 0.06,2.17 0.06,2.39 -0.34,4.57 -0.79,5 -1.51,1.1 -2.87,0.66 -4.03,0.01 -0.1,0.33 -0.2,0.55 -0.25,0.65 -0.15,0 -0.3,0 -0.4,0 0,0.22 0,0.33 0,0.43 -0.8,1.64 -1.6,3.72 -2.35,5.25 -0.6,0.33 -1.16,0.66 -1.71,0.88 -0.25,0 -0.55,0 -0.86,0.01 -0.4,0.22 -0.76,0.33 -1.16,0.55 0,0.22 0,0.33 0,0.43 0.25,0.11 0.51,0.43 0.76,0.54 0,0.54 0,1.09 0.01,1.52 0.15,0.22 0.3,0.32 0.46,0.43 0,0.87 0.01,1.63 0.11,2.39 0.05,-0 0.1,-0 0.2,-0 0.51,0.21 0.96,0.43 1.46,0.53 0.3,0.32 0.66,0.43 0.96,0.54 0.15,0.33 0.3,0.65 0.46,0.98 0.35,0.21 0.71,0.32 1.16,0.43 0,0.87 0.01,1.63 0.06,2.39 -0.25,0.55 -0.45,1.09 -0.65,1.53 -0.15,0.43 -0.3,0.76 -0.4,1.09 0,0.33 0,0.65 0,1.09 -0.15,0.22 -0.3,0.33 -0.4,0.44 0,0.65 0,1.3 0.01,1.96 0.15,0.43 0.31,0.76 0.46,1.08 -0.15,0.22 -0.3,0.33 -0.4,0.44 -0.8,1.09 -1.25,2.07 -1.2,3.49 0.31,0.98 0.66,1.95 0.92,3.04 0.11,2.39 -0.29,3.48 -1.86,2.95 -0.45,-0.1 -0.91,-0.21 -1.36,-0.42 -0.3,0 -0.61,0 -0.86,0.01 -0.51,-0.43 -0.96,-0.75 -1.42,-0.97 -0.15,-0.11 -0.3,-0.22 -0.46,-0.43 -0.35,-0.11 -0.66,-0.21 -0.91,-0.43 -0.25,-0.11 -0.51,-0.21 -0.71,-0.43 -0.1,0 -0.15,0 -0.2,0 0,1.2 0.01,2.39 0.06,3.48 0.06,1.52 0.11,2.39 -0.59,2.83 -0.15,0.33 -0.3,0.65 -0.4,0.98 -0.15,0.22 -0.3,0.44 -0.45,0.55 -0.3,0.22 -0.6,0.44 -0.85,0.66 -0.3,0 -0.6,0.11 -0.91,0.12 -0.71,0.22 -1.31,0.34 -1.91,0.45 -0.3,0.33 -0.6,0.66 -0.85,0.98 0,0.43 0,0.76 0,0.98 0.97,2.38 1.03,4.45 0.17,5 0.15,0 0.3,-0 0.45,-0 0.35,0.22 0.71,0.32 1.11,0.43 0.41,0.54 0.86,0.97 1.32,1.3 0.3,0.65 0.56,1.19 0.86,1.73 0.2,0.22 0.35,0.32 0.51,0.43 0.3,-0 0.61,-0 0.91,-0.01 0.15,0.22 0.3,0.32 0.46,0.43 0.2,-0 0.4,-0 0.71,-0.01 0.05,0.22 0.1,0.33 0.2,0.43 0.2,-0 0.45,-0.11 0.71,-0.12 0.1,0.33 0.25,0.43 0.41,0.54 0.3,-0 0.61,-0 0.91,-0.01 0.35,0.22 0.66,0.43 0.96,0.54 0.15,0.22 0.3,0.32 0.46,0.43 0.71,-0.01 1.46,-0.12 2.22,-0.12 0.35,-0.11 0.66,-0.22 1.06,-0.44 0.15,-0 0.3,-0 0.45,-0 -0,-0.11 -0,-0.33 -0,-0.54 0.45,-0 0.91,-0.01 1.36,-0.01 0,0.54 0,0.98 0.01,1.41 0.81,-0.11 1.76,-0.12 2.67,-0.13 0.2,0.22 0.4,0.32 0.66,0.43 0,0.87 0.01,1.52 0.11,2.17 0.3,0.22 0.61,0.32 0.91,0.43 0.5,0.11 1.01,0.32 1.56,0.42 0.05,0 0.15,-0 0.25,-0 0,0.33 0,0.54 0,0.65 0.2,0.33 0.41,0.65 0.66,0.86 0.3,0.32 0.61,0.65 0.96,0.86 0.15,-0.11 0.3,-0.22 0.45,-0.44 0.1,-0 0.25,-0 0.4,-0 0.1,-0.11 0.25,-0.22 0.4,-0.44 0.4,-0.11 0.86,-0.12 1.31,-0.12 0,0.22 0,0.33 0.05,0.43 0.25,0.43 0.46,0.97 0.71,1.3 0,0.22 0,0.33 0,0.43 0.4,-0 0.86,-0.01 1.31,-0.01 0.15,-0.11 0.3,-0.22 0.45,-0.44 -0,-0.54 -0,-1.19 -0.01,-1.74 0.1,-0 0.25,-0 0.4,-0 0,0.22 0,0.33 0,0.43 0.2,0.43 0.36,0.98 0.56,1.19 0.66,0.65 1.32,1.19 2.07,1.72 0,0.33 0,0.54 0,0.65 0.15,0.22 0.3,0.32 0.45,0.43 0.25,-0 0.56,-0 0.86,-0.01 0.05,0.22 0.15,0.32 0.25,0.43 0.55,-0.11 1.06,-0.12 1.56,-0.12 0.3,-0.22 0.6,-0.55 0.9,-0.88 -0.05,-0.33 -0.05,-0.76 -0.05,-1.09 0.25,-0.22 0.5,-0.55 0.8,-0.88 0.2,-0 0.45,-0 0.76,-0.01 -0.11,-2.17 -0.22,-4.56 -0.28,-6.84 0.15,-0.11 0.3,-0.22 0.45,-0.44 -0,-0.22 -0,-0.54 -0,-0.87 0.86,-0.01 1.76,-0.12 2.67,-0.13 0.35,-0.11 0.7,-0.33 1.11,-0.55 0.4,-0.44 0.4,-0.98 -0.06,-1.85 -0,-0.11 -0,-0.33 -0,-0.54 0.15,-0 0.3,-0 0.45,-0 0.15,0.22 0.3,0.43 0.46,0.54 0.3,-0.11 0.6,-0.33 0.91,-0.55 -0,-0.43 -0,-1.09 -0.01,-1.63 0.4,-0.98 0.85,-1.53 1.25,-2.07 2.02,-0.01 3.98,-0.03 6.05,-0.04 0,0.22 0,0.33 0,0.43 0.66,-0 1.36,-0.01 2.07,-0.02 -0,-0.11 -0,-0.22 -0,-0.43 0.25,0.11 0.56,0.21 0.86,0.32 0.6,-0 1.21,-0.01 1.81,-0.01 0.35,-0.22 0.7,-0.66 1.06,-0.99 0,-0.11 -0,-0.22 -0,-0.43 0.15,-0 0.3,-0 0.45,-0 0.15,0.22 0.3,0.32 0.45,0.32 0.3,-0 0.61,-0 0.91,-0.01 0.25,-0.11 0.55,-0.22 0.86,-0.44 0.15,-0.33 0.3,-0.76 0.45,-1.2 -0,-0.11 -0,-0.22 -0,-0.43 0.71,-0 1.36,-0.01 2.02,-0.02 0.25,-0.11 0.55,-0.44 0.8,-0.66 0.15,-0.11 0.35,-0.22 0.5,-0.44 0.25,-0 0.55,-0 0.86,-0.01 0.45,-0.55 1.31,-0.55 2.92,-0.13 0.61,0.32 1.21,0.64 1.82,0.96 0.15,0.43 0.3,0.76 0.46,1.08 0.51,0.32 1.01,0.65 1.62,0.97 0.3,0.22 0.61,0.65 0.91,0.86 0.56,0.32 1.21,0.64 1.82,0.97 0.96,0.32 1.97,0.53 2.93,0.74 0.61,0.54 1.21,0.86 1.87,1.18 0.25,0.32 0.56,0.65 0.86,0.97 0.51,0.1 1.01,0.21 1.62,0.32 1.11,1.3 2.23,2.38 3.29,3.56 0.51,0.54 1.01,1.19 1.62,1.73 1.31,1.08 2.68,1.94 4.04,2.8 0.2,0.43 0.41,0.65 0.66,0.86 0.2,-0 0.35,-0 0.5,-0 0,0.33 0,0.65 0,0.87 0.3,0.32 0.61,0.65 0.91,0.86 0.15,-0 0.3,-0 0.45,-0 0.25,0.32 0.56,0.54 0.91,0.54 0.15,0.22 0.3,0.32 0.46,0.43 0.3,0.22 0.61,0.32 0.86,0.43 0.15,-0 0.3,-0 0.45,-0 0.35,0.22 0.71,0.32 1.16,0.43 0.3,0.43 0.61,0.97 0.91,1.3 -0.45,0.44 -0.9,0.88 -1.31,1.31 0,0.54 0,1.09 0.01,1.52 -0.25,0.22 -0.5,0.33 -0.7,0.44 0.4,0.32 0.81,0.65 1.21,0.86 0.86,0.54 1.82,1.07 2.73,1.61 1.57,1.29 2.93,1.72 3.84,1.71 0.4,-0.11 0.91,-0.33 1.36,-0.55 0.66,-0 1.31,0.55 1.97,0.55 2.42,-1.54 4.88,-3.19 7.35,-4.62 1.51,-1.1 2.01,-2.64 2.01,-3.07 0.1,-0.65 0.25,-1.42 0.4,-2.18 -0.05,-0.22 -0.05,-0.54 -0.05,-0.87 -0.15,-0.33 -0.31,-0.2 -0.51,-0.42 0.2,-0.11 0.35,-0.11 0.5,-0.11 0.3,0.22 0.61,-0.24 0.91,-0.13 0.86,0.65 2.27,1.07 3.78,0.52 0.15,-0 0.3,-0 0.5,-0 2.22,-0.67 3.78,-1.22 4.18,-2.53 -0,-0.33 -0,-0.87 -0,-1.41 0.25,-1.74 0.49,-3.59 0.79,-5.44 -0.05,-0.22 -0.05,-0.54 -0.05,-0.87 -0.15,-0.11 -0.3,-0.32 -0.46,-0.54 -0.15,-0.22 -0.3,-0.54 -0.46,-0.98 -0.41,-0.43 -0.76,-0.75 -1.11,-1.3 -0.36,-0.65 -0.66,-1.41 -0.97,-2.06 -0.61,-0.87 -1.22,-1.95 -1.83,-2.92 -1.37,-2.49 -2.74,-5.2 -4.01,-7.91 -0.15,-0.11 -0.3,-0.22 -0.46,-0.43 0.15,-0 0.3,-0 0.45,-0 -0.15,-0.11 -0.3,-0.22 -0.46,-0.43 -0.05,-0.22 -0.05,-0.54 -0.05,-0.98 0.15,-0.54 0.3,-1.09 0.45,-1.63 0.1,-0.33 0.25,-0.76 0.4,-1.09 -0.05,-0.43 -0.05,-0.87 -0.05,-1.3 -0,-0.98 -0.46,-2.17 -1.43,-3.69 -0.15,0.11 -0.3,0.11 -0.45,0.11 -0.31,-0.98 -0.61,-2.06 -0.92,-3.26 -0.2,-0.32 -0.36,-0.65 -0.51,-1.08 -0.06,-1.52 -0.06,-3.04 -0.07,-4.57 -0.25,-0.22 -0.56,-0.54 -0.76,-0.86 -0.15,-0.22 -0.3,-0.43 -0.41,-0.65 -0.05,-0.76 -0.06,-1.74 -0.06,-2.61 -0.39,-0.23 -0.91,-0.21 -0.91,-0.86 -0.45,-0.32 -1.41,-0.75 -2.73,-0.74 -0.3,-0.11 -0.51,-0.43 -0.71,-0.65 -0.15,0 -0.3,0 -0.45,0 -0,-0.11 -0,-0.22 -0,-0.44 -0.15,-0.22 -0.3,-0.54 -0.46,-0.87 -0.3,-0.22 -0.61,-0.54 -0.96,-0.97 -0.15,-0.43 -0.31,-0.98 -0.46,-1.52 -0.3,-0.43 -0.61,-0.97 -0.91,-1.52 -0.96,-0.86 -2.52,-0.74 -4.74,0.15z"/>
 </g>
</svg>
