<?xml version="1.0" encoding="UTF-8"?>
<!DOCTYPE svg PUBLIC "-//W3C//DTD SVG 1.1//EN" "http://www.w3.org/Graphics/SVG/1.1/DTD/svg11.dtd">
<!-- Creator: CorelDRAW 2021 (64-Bit) -->
<svg xmlns="http://www.w3.org/2000/svg" xml:space="preserve" width="0.485559in" height="0.309098in" version="1.1" shape-rendering="geometricPrecision" text-rendering="geometricPrecision" image-rendering="optimizeQuality" fill-rule="evenodd" clip-rule="evenodd"
viewBox="0 0 113.95 72.54"
 xmlns:xlink="http://www.w3.org/1999/xlink"
 xmlns:xodm="http://www.corel.com/coreldraw/odm/2003">
 <g id="Layer_x0020_1">
  <metadata id="CorelCorpID_0Corel-Layer"/>
  <path fill="none" fill-rule="nonzero" stroke="#336666" stroke-width="0.7" stroke-miterlimit="2.61313" d="M98.94 16.72c-0.41,-0.29 -0.82,-0.73 -1.23,-1.16 -1.77,-0.57 -2.45,-1.3 -2.39,-2.48 -0.07,-0.29 -0.07,-0.73 -0.07,-1.17 0.2,-0.15 0.41,-0.59 0.61,-1.03 0.34,-0.3 0.75,-0.59 1.15,-0.89 -0,-0.15 -0,-0.29 -0,-0.59 -0.41,0 -0.82,0.01 -1.22,0.01 -0.55,0 -1.02,-0.14 -1.5,-0.43 -1.09,-0.73 -2.11,-1.75 -3.07,-2.62 -0.21,-0.29 -0.41,-0.73 -0.62,-1.17 -0.21,-0.15 -0.41,-0.44 -0.62,-0.88 0,1.03 -0.31,2.05 -0.24,2.79 -0.47,0.44 -0.57,0.89 -0.97,1.48 -0.47,0.59 -0.95,1.18 -1.49,1.77 -0.54,0.88 -1.83,0.89 -3.74,-0.56 -1.77,-1.01 -2.73,-2.48 -2.73,-3.06 -0,-1.18 -1.3,-2.05 -3.07,-2.62 -1.91,-0.72 -5.24,0.19 -8.84,1.83 -2.72,0.61 -3.87,1.94 -3.86,5.17 0.01,2.35 -1.14,5 -4.46,8.55 -2.58,1.78 -5.09,3.56 -7.53,5.34 -1.83,1.78 -3.67,0.91 -6.47,-1.57 -0.21,-0.58 -0.41,-1.02 -0.62,-1.46 -1.91,-0.57 -3.14,-3.5 -4.79,-6.57 -0.41,-0.14 -0.89,-0.29 -1.3,-0.58 -0.41,0 -0.82,0.01 -1.16,0.01 -0.81,0.3 -1.7,0.45 -2.45,0.61 -2.72,0.17 -4.56,-0.99 -6.48,-3.77 -1.24,-3.22 -1.31,-5.86 0.52,-8.08 0.2,-0 0.41,-0 0.61,-0 0.13,-0.3 0.34,-0.59 0.54,-0.89 0.48,-0.15 0.88,-0.3 1.29,-0.6 -0.07,-0.15 -0.07,-0.29 -0.07,-0.59 -0.2,0.29 -0.41,0.44 -0.54,0.59 -0.88,0.01 -1.7,0.01 -2.45,0.17 -0.41,-0.14 -0.82,-0.29 -1.23,-0.58 -0.61,0 -1.09,0.01 -1.57,0.01 -1.43,-0.28 -2.86,-0.71 -4.22,-0.99 -1.57,-0.87 -2.79,0.02 -3.33,0.61 -0.68,0.59 -1.22,1.92 -1.21,2.8 0.01,1.91 0.01,3.96 0.09,5.87 -0.2,0.88 -0.4,1.47 -0.54,2.06 0.01,2.94 -0.6,4.7 -1.14,5.59 -0.2,0.44 -0.41,0.88 -0.61,1.18 -0.41,0.3 -0.68,0.45 -0.95,0.6 -0.2,0.59 -0.4,1.32 -0.54,1.77 -0.2,0.29 -0.41,0.44 -0.61,0.59 -0.41,-0.44 -0.82,-0.87 -1.16,-1.31 -0.48,-0.29 -0.89,-0.58 -1.3,-0.87 -0.61,-0.58 -1.16,0.01 -2.38,0.9 -0.68,0.59 -1.36,1.04 -2.04,1.48 0,0.29 0,0.44 0,0.59 -1.08,1.18 -2.03,2.36 -2.98,3.4 -1.22,0.6 -2.1,2.36 -2.1,3.54 0,0.44 0,0.88 0.07,1.18 -0.41,0 -0.88,0.15 -1.29,0.16 0.21,0.29 0.41,0.44 0.61,0.58 0,0.29 0,0.59 0,0.73 0.27,-0 0.48,-0 0.68,-0.01 0.89,0.58 2.11,1.75 2.74,4.09 0.41,1.32 0.83,2.64 1.31,3.81 0,0.29 0,0.44 0,0.58 0.01,1.61 0.01,3.08 0.08,4.7 0.21,0.29 0.41,0.58 0.62,0.88 0,1.47 0.01,3.08 0.08,4.4 0.21,0.73 0.41,1.46 0.62,2.05 0,1.03 0.01,1.91 0.08,2.94 0,0.59 0.62,2.36 2.53,2.94 0.68,-0.01 1.36,-0.01 1.97,-0.02 0.61,0.29 1.29,0.58 1.91,0.72 1.16,0.58 1.85,1.29 1.85,1.87 0,0.73 0,1.47 0.01,2.05 -0.2,0.44 -0.4,0.88 -0.54,1.18 0.01,2.02 -0.15,2.44 0.7,4.25 0.34,0.29 0.75,0.44 1.16,0.58 0.21,0.44 0.41,0.59 0.62,0.73 1.57,-0.01 2.79,0.42 3.41,1 0.61,0.58 2.45,0.57 4.56,1.29 1.43,-0.16 2.79,-0.17 4.22,-0.18 2.18,-0.16 4.01,-0.91 5.17,-1.51 0.54,-0 1.16,-0.01 1.77,-0.01 0.27,-0.15 0.48,-0.3 0.68,-0.59 0.27,-0 0.54,-0.15 0.88,-0.15 -0,-0.15 -0,-0.29 -0,-0.59 0.95,-1.18 1.96,-2.22 3.05,-3.25 0.13,-0.74 0.33,-1.62 0.53,-2.36 0,-0.15 -0,-0.29 -0,-0.59 0.2,-0.29 0.41,-0.74 0.61,-1.18 0.33,-1.62 0.74,-3.23 1.14,-5.15 -0.07,-0.59 -0.07,-1.17 -0.01,-1.76 -0.21,0 -0.38,-0.08 -0.54,-0.26 0.18,-0.17 0.38,-0.45 0.54,-0.91 0,-0.15 -0,-0.29 -0,-0.59 0.27,-0.3 0.33,-0.91 0.67,-1.35 -0.07,-0.14 0.13,-0.12 0.14,-0.4l0 -0.01 0 -0 0 -0.01 0 -0 -0 -0.29c0.03,-0.36 0.06,-0.72 0.1,-1.09 0.09,-1.34 0.18,-2.82 0.37,-4.11 0.11,0.14 0.22,0.29 0.34,0.44 0.6,0.68 1.15,1.45 1.7,2.1l0.08 0.03 0.08 0.03c1.09,0.35 2.09,0.63 2.82,0.64 0.36,-0.01 0.68,-0.1 0.96,-0.28 0.95,-0.59 1.97,-1.19 2.99,-1.93 0.36,-0.5 0.91,-1.06 1.41,-1.59l0.01 -0.01 0 0c0.23,-0.26 0.46,-0.52 0.68,-0.76l0.03 0 0.01 0 0.02 0 0.01 0 0.01 -0 0.02 0 0.01 0 0.02 0 1.64 -0.01 0.03 0 0.03 0 0.03 0 0.03 0 0.03 0.01 0.03 0 0.03 0 0.03 0 0 0 0.03 0 0.01 0 0.02 0.01 0.01 0 0.02 0 0.01 0 0.01 0 0.02 0 0.01 0 0.02 0.01 0.01 0 0.03 0.01 0 0 0.03 0.01 0.03 0.01 0 0 0.03 0.01 0.01 0 0.02 0.01 0.01 0 0.02 0.01 0.01 0.01 0.02 0.01 0.02 0.01 0.01 0 0.02 0.01 0.01 0 0.03 0.01 0 0 0.03 0.01 0 0 0.04 0.01 0 0 0.03 0.01 0.01 0 0.03 0.01 0.01 0 0.02 0.01 0.02 0.01 0.02 0.01 0.02 0.01 0.02 0.01 0.03 0.01 0.01 0 0.03 0.01 0.01 0 0.04 0.02 0 0 0.04 0.02 0 0 0.04 0.02 0.01 0 0.04 0.01 0.01 0 0.03 0.01 0.02 0.01 0.03 0.01 0.03 0.01 0.02 0.01 0.03 0.01 0.02 0 0.04 0.02 0.01 0 0.05 0.02 0 0 0.05 0.02 0 0 0.05 0.02 0.01 0 0.04 0.02 0.01 0.01 0.04 0.01 0.02 0.01 0.03 0.01 0.03 0.01 0.03 0.01 0.04 0.01 0.02 0.01 0.05 0.01 0.01 0.01 0.06 0.02 0.01 0 0.12 0.04 0 0 0.01 0 0.05 0.02 0.02 0.01 0.05 0.01 0.03 0.01 0.04 0.01 0.04 0.01 0.03 0.01 0.04 0.01 0.02 0.01 0.05 0.01 0.02 0 0.07 0.02 0.01 0 0.07 0.02 0 0 0.07 0.02 0.01 0 0.07 0.02 0.02 0 0.06 0.01 0.03 0.01 0.05 0.01 0.04 0.01 0.04 0.01 0.05 0.01 0.03 0.01 0.06 0.01 0.02 0 0.08 0.02 0.01 0 0.09 0.02c1.64,1.16 3.27,2.03 4.91,2.9 1.57,0.28 3.07,0.71 4.63,0.99 0.75,-0.01 1.57,-0.01 2.38,0.13 2.11,0.28 4.29,0.7 6.4,0.98l0.03 0.01 0.03 0.01 0.03 0.01 0.03 0.01 0.03 0.01 0.03 0.01 0.03 0.01 0 0 0.03 0.01 0 0 0.03 0.01 0 0 0.03 0.01 0.03 0.01 0 0 0.03 0.01 0 0 0.03 0.01 0.03 0.01 0.03 0.01 0 0 0.03 0.01 0 0 0.03 0.01 0.03 0.01 0 0 0.03 0.01 0 0 0.03 0.01 0 0 0.03 0.01 0 0 0.03 0.01 0 0 0.03 0.01 0 0 0.03 0.01 0 0 0.03 0.01 0 0 0.03 0.01 0 0 0.03 0.01 0 0 0.03 0.01 0 0 0.03 0.01 0 0 0.03 0.01 0 0 0.03 0.01 0 0 0.03 0.01 0 0 0.03 0.01 0 0 0.03 0.01 0 0 0.03 0.01 0 0 0.03 0.01 0 0 0.03 0.01 0 0 0.03 0.01 0 0 0.03 0.01 0 0 0.03 0.01 0 0 0.03 0.01 0 0 0.03 0.01 0 0 0.03 0.01 0 0 0.03 0.01 0 0 0.03 0.01 0 0 0.03 0.01 0 0 0.03 0.01 0 0 0.03 0.01 0 0 0.03 0.01 0 0 0.03 0.01 0 0 0.03 0.01 0 0 0.03 0.01 0 0 0.03 0.01 0 0 0.03 0.01 0 0 0.03 0.01 0 0 0.03 0.01 0 0 0.03 0.01 0 0 0.03 0.01 0 0 0.03 0.01 0 0 0.03 0.01 0 0 0.03 0.01 0 0 0.03 0.01 0 0 0.03 0.01 0 0 0.03 0.01 0 0c2.26,-0.03 4.61,-0.14 6.93,-0.19l0.09 -0 0.04 -0 0.1 -0 0.03 0 0.1 -0 0.03 0 0.11 -0 0.02 0 0.11 -0 0.02 0 0.12 -0 0.01 0 0.12 -0 0.01 0 0.12 -0 0.01 0 0.13 0 0 0 0.13 -0c0.34,-0.15 0.75,-0.3 1.22,-0.6 0.2,-0.15 0.41,-0.44 0.61,-0.74 0.13,-0.44 0.34,-1.03 0.54,-1.47 1.5,0.43 3.07,1 4.56,1.43 0.54,-0.15 1.23,-0.16 1.84,-0.16l0.06 -0 0.06 0c0.58,-0.02 1.29,-0.15 2.04,-0.42 1.33,-0.57 2.34,-1.75 3.11,-3.58 0.1,-0.38 0.23,-0.78 0.44,-1.18 0.54,-1.62 1.14,-3.39 1.75,-5.01 -0.07,-1.62 -0.08,-3.23 -0.02,-4.99l0.01 0 0 0 0.01 0 0.01 0 0 -0 0.01 0 0.01 0 0 0 0.01 0 0.01 0 0 0 0.01 0 0.01 0 0 0 0.01 0 0.01 0 0 0 0.01 0 0.01 0 0 0 0.01 0 0.01 0 0 0 0.01 0 0 0 0.01 0 0 0 0.01 0 0.01 0 0 0 0.01 0 0 0 0.01 0 0.01 0 0 0 0.01 0 0 0 0.01 0 0 0 0.01 0 0.01 0 0 0 0.01 0 0 0 0.01 0 0 0 0.01 0 0.01 0 0 -0 0.01 0 0.01 0 0 0 0.01 0 0.01 0 0 0 0.01 0 0 0 0.01 0 0 0 0 0 0.01 0 0 0 0.01 0 0 0 0.01 -0 0 0 0.01 0 0 0 0.01 0 0.01 0 0 0 0.01 0 0.01 0 0 0 0.01 0 0.01 0 0 0 0.01 0 0 0 0.01 0 0.01 0 0 0 0.01 0 0 0 0.01 0 0.01 0 0 0 0.01 0 0 0 0.01 -0 0 0 0.01 0 0.01 0 0 0 0 0 0.01 0 0.01 0 0 0 0.01 0 0.01 0 0 0c0.47,-0.25 0.94,-0.48 1.41,-0.71l0 -0 0.01 -0 0.05 -0.03 0.02 -0.01 0.04 -0.02 0.04 -0.03 0.08 -0.05 0 0 0.06 -0.03 0.02 -0.01 0.04 -0.02 0.04 -0.02 0.02 -0.01 0.05 -0.03 0 -0 0.06 -0.04 0.01 -0.01 0.04 -0.03 0.03 -0.02 0.03 -0.02 0.05 -0.03 0.01 -0.01 0.06 -0.03 0.01 -0.01 0.05 -0.03 0.03 -0.01 0.03 -0.02 0.04 -0.02 0.01 -0.01 0.06 -0.03 0 -0 0.06 -0.03 0.02 -0.01 0.04 -0.02 0.04 -0.02 0.02 -0.01 0.06 -0.03 0 0 0.06 -0.04 0.02 -0.01 0.04 -0.03 0.03 -0.02 0.03 -0.01 0.05 -0.03 0.01 -0 0.06 -0.04 0.01 -0.01 0.05 -0.03 0.03 -0.02 0.03 -0.02 0.05 -0.03 0.01 -0.01 0.06 -0.03 0.01 -0 0.05 -0.03 0.02 -0.01 0.04 -0.02 0.04 -0.02 0.02 -0.01 0.06 -0.04 0 0 0.06 -0.03 0.02 -0.01 0.04 -0.02 0.04 -0.02 0.02 -0.01 0.05 -0.03 0 -0 0.06 -0.04 0.01 -0.01 0.05 -0.03 0.03 -0.02 0.03 -0.02 0.05 -0.03 0.01 -0.01 0.06 -0.04 0.01 -0 0.05 -0.03 0.03 -0.02 0.03 -0.02 0.04 -0.03 0.02 -0.01 0.06 -0.04 0 -0 0.06 -0.03 0.02 -0.01 0.04 -0.02 0.04 -0.02 0.02 -0.01 0.06 -0.04 0 -0 0.06 -0.04 0.02 -0.01 0.04 -0.03 0.03 -0.02 0.03 -0.01 0.05 -0.03 0.01 -0.01 0.06 -0.04 0.01 -0.01 0.05 -0.03 0.03 -0.02 0.03 -0.02 0.05 -0.03 0.01 -0.01 0.06 -0.04 0.01 -0 0.06 -0.03 0.02 -0.02 0.04 -0.02 0.04 -0.03 0.02 -0.01 0.06 -0.04c0.13,-0.29 0.34,-0.44 0.54,-0.74 0,-0.15 -0,-0.29 -0,-0.59 0.2,-0.15 0.41,-0.3 0.61,-0.59l0.04 -0.06c-0.42,0.02 -1.47,0.66 -1.81,0.66 -1.9,0.6 -2.52,-0.57 -3.41,-3.06 -0.48,-0.73 -0.96,-1.61 -1.37,-2.64 -0.21,-0.29 -0.41,-0.58 -0.62,-0.88 -0.41,-0.58 -0.82,-1.17 -1.23,-1.75 -0.48,-0.14 -0.89,-0.58 -1.23,-0.87 -0.41,0 -0.82,0.01 -1.22,0.01 -0.95,-0.43 -1.91,-1.01 -2.8,-1.59 -0.21,-0.44 -0.19,-0.91 -0.39,-1.49 -0,-0.29 -0.23,-0.56 -0.23,-0.85zm-55.93 38.01l0 -0 0 -0 0 -0 0 -0 0 -0 0 -0 0 0 0 -0 -0.01 0m0.11 -0.1l0.01 -0 -0 0 -0 0z"/>
 </g>
</svg>
