<svg xmlns="http://www.w3.org/2000/svg" viewBox="0 0 800 1400">
  <path d="M 192.51,1057.81 L 180.90,1061.03 L 115.79,1088.59 L 188.58,1133.59 L 190.36,1134.48 L 192.26,1135.06 L 194.24,1135.29 L 196.23,1135.18 L 239.91,1128.87 L 261.52,1125.76 L 257.08,1105.32 L 252.71,1085.19 L 248.59,1074.22 L 248.58,1074.19 L 248.56,1074.11 L 248.53,1074.00 L 248.51,1073.93 L 248.47,1073.79 L 248.45,1073.73 L 248.43,1073.64 L 248.41,1073.56 L 248.37,1073.45 L 248.33,1073.29 L 248.32,1073.25 L 248.31,1073.24 L 248.30,1073.21 L 248.29,1073.15 L 248.27,1073.08 L 248.21,1072.89 L 248.18,1072.79 L 248.16,1072.71 L 248.14,1072.64 L 248.15,1072.64 L 248.19,1072.62 L 248.21,1072.62 L 248.22,1072.61 L 248.24,1072.60 L 248.26,1072.59 L 248.36,1072.54 L 248.40,1072.52 L 248.39,1072.48 L 248.45,1072.45 L 248.51,1072.42 L 248.52,1072.41 L 248.51,1072.35 L 248.49,1072.18 L 248.48,1072.16 L 248.46,1072.07 L 248.42,1071.90 L 248.39,1071.72 L 248.35,1071.53 L 248.32,1071.39 L 248.31,1071.34 L 248.29,1071.23 L 248.25,1071.08 L 248.24,1071.04 L 248.23,1070.99 L 248.22,1070.88 L 248.21,1070.85 L 248.19,1070.74 L 248.18,1070.68 L 248.16,1070.56 L 248.13,1070.42 L 248.11,1070.32 L 248.07,1070.13 L 248.04,1070.00 L 248.00,1069.79 L 247.94,1069.53 L 247.93,1069.47 L 247.90,1069.32 L 247.89,1069.27 L 247.88,1069.21 L 247.85,1069.14 L 247.82,1069.05 L 247.77,1068.89 L 247.76,1068.86 L 247.74,1068.81 L 247.78,1068.79 L 247.88,1068.73 L 247.93,1068.70 L 247.98,1068.67 L 248.07,1068.62 L 248.16,1068.57 L 248.26,1068.51 L 248.30,1068.49 L 248.34,1068.47 L 248.39,1068.45 L 248.42,1068.44 L 248.44,1068.43 L 248.50,1068.40 L 248.56,1068.37 L 248.60,1068.35 L 248.66,1068.32 L 248.74,1068.29 L 248.77,1068.28 L 248.81,1068.26 L 248.89,1068.24 L 248.99,1068.21 L 249.07,1068.19 L 249.13,1068.16 L 249.20,1068.13 L 249.24,1068.11 L 249.26,1068.10 L 249.27,1068.10 L 249.29,1068.09 L 249.32,1068.08 L 249.38,1068.06 L 249.48,1068.02 L 249.55,1068.00 L 249.59,1067.99 L 249.63,1067.98 L 249.70,1067.96 L 249.74,1067.95 L 249.78,1067.93 L 249.83,1067.92 L 249.87,1067.90 L 249.91,1067.87 L 249.95,1067.85 L 249.99,1067.82 L 250.02,1067.78 L 250.05,1067.74 L 250.09,1067.69 L 250.12,1067.65 L 250.15,1067.62 L 250.18,1067.60 L 250.21,1067.59 L 250.25,1067.59 L 250.28,1067.59 L 250.31,1067.59 L 250.34,1067.60 L 250.37,1067.62 L 250.39,1067.63 L 250.40,1067.61 L 250.42,1067.56 L 250.44,1067.52 L 250.44,1067.51 L 250.45,1067.50 L 250.47,1067.45 L 250.47,1067.43 L 250.48,1067.42 L 250.48,1067.40 L 250.48,1067.39 L 250.48,1067.38 L 250.48,1067.37 L 250.48,1067.36 L 250.48,1067.35 L 250.47,1067.34 L 250.46,1067.33 L 250.45,1067.32 L 250.43,1067.32 L 250.42,1067.31 L 250.37,1067.30 L 250.35,1067.30 L 250.33,1067.29 L 250.31,1067.28 L 250.30,1067.27 L 250.29,1067.26 L 250.29,1067.25 L 250.28,1067.23 L 250.28,1067.22 L 250.27,1067.20 L 250.27,1067.19 L 250.27,1067.17 L 250.27,1067.16 L 250.27,1067.14 L 250.27,1067.12 L 250.28,1067.09 L 250.30,1067.01 L 250.30,1066.98 L 250.31,1066.95 L 250.30,1066.92 L 250.30,1066.90 L 250.30,1066.89 L 250.29,1066.87 L 250.28,1066.86 L 250.27,1066.84 L 250.26,1066.84 L 250.25,1066.83 L 250.22,1066.81 L 250.20,1066.81 L 250.19,1066.80 L 250.18,1066.79 L 250.16,1066.78 L 250.14,1066.76 L 250.13,1066.75 L 250.12,1066.74 L 250.12,1066.72 L 250.11,1066.70 L 250.10,1066.69 L 250.10,1066.68 L 250.08,1066.60 L 250.06,1066.53 L 250.06,1066.51 L 250.05,1066.49 L 250.05,1066.47 L 250.05,1066.46 L 250.05,1066.45 L 250.05,1066.43 L 250.06,1066.42 L 250.06,1066.41 L 250.07,1066.40 L 250.08,1066.40 L 250.10,1066.39 L 250.11,1066.38 L 250.13,1066.38 L 250.15,1066.38 L 250.21,1066.37 L 250.24,1066.37 L 250.26,1066.36 L 250.28,1066.35 L 250.29,1066.34 L 250.29,1066.33 L 250.30,1066.32 L 250.30,1066.31 L 250.30,1066.29 L 250.30,1066.28 L 250.29,1066.26 L 250.29,1066.25 L 250.28,1066.24 L 250.26,1066.22 L 250.25,1066.21 L 250.23,1066.20 L 250.22,1066.19 L 250.21,1066.19 L 250.19,1066.19 L 250.18,1066.19 L 250.16,1066.20 L 250.14,1066.20 L 250.12,1066.21 L 250.09,1066.22 L 250.08,1066.22 L 250.06,1066.22 L 250.05,1066.22 L 250.04,1066.22 L 250.04,1066.21 L 250.03,1066.21 L 250.02,1066.20 L 250.02,1066.19 L 250.02,1066.18 L 250.02,1066.17 L 250.02,1066.16 L 250.02,1066.14 L 250.05,1066.10 L 250.06,1066.08 L 250.06,1066.06 L 250.07,1066.05 L 250.07,1066.04 L 250.07,1066.03 L 250.07,1066.02 L 250.06,1066.01 L 250.06,1066.00 L 250.06,1065.99 L 250.05,1065.98 L 250.04,1065.98 L 250.03,1065.98 L 250.02,1065.98 L 250.00,1065.98 L 249.99,1065.98 L 249.97,1065.99 L 249.93,1066.01 L 249.91,1066.01 L 249.90,1066.01 L 249.89,1066.01 L 249.88,1066.01 L 249.87,1066.00 L 249.86,1066.00 L 249.85,1065.99 L 249.84,1065.98 L 249.82,1065.96 L 249.81,1065.95 L 249.79,1065.92 L 249.78,1065.90 L 249.78,1065.89 L 249.78,1065.88 L 249.77,1065.86 L 249.77,1065.84 L 249.77,1065.82 L 249.78,1065.81 L 249.79,1065.77 L 249.79,1065.74 L 249.81,1065.68 L 249.81,1065.66 L 249.81,1065.64 L 249.81,1065.63 L 249.81,1065.61 L 249.81,1065.60 L 249.80,1065.58 L 249.79,1065.53 L 249.76,1065.47 L 249.73,1065.41 L 249.72,1065.39 L 249.71,1065.38 L 249.70,1065.36 L 249.68,1065.35 L 249.68,1065.35 L 249.67,1065.35 L 249.66,1065.35 L 249.65,1065.35 L 249.64,1065.35 L 249.62,1065.35 L 249.58,1065.36 L 249.53,1065.37 L 249.52,1065.37 L 249.50,1065.37 L 249.49,1065.37 L 249.48,1065.36 L 249.47,1065.36 L 249.46,1065.35 L 249.46,1065.34 L 249.45,1065.32 L 249.45,1065.31 L 249.45,1065.30 L 249.45,1065.29 L 249.45,1065.28 L 249.45,1065.27 L 249.45,1065.26 L 249.46,1065.25 L 249.47,1065.22 L 249.49,1065.18 L 249.51,1065.15 L 249.51,1065.13 L 249.51,1065.12 L 249.51,1065.11 L 249.51,1065.09 L 249.50,1065.08 L 249.49,1065.07 L 249.47,1065.06 L 249.46,1065.05 L 249.44,1065.05 L 249.43,1065.06 L 249.41,1065.06 L 249.39,1065.06 L 249.37,1065.07 L 249.35,1065.08 L 249.33,1065.09 L 249.31,1065.11 L 249.29,1065.13 L 249.28,1065.14 L 249.26,1065.16 L 249.25,1065.18 L 249.24,1065.19 L 249.20,1065.24 L 249.19,1065.25 L 249.18,1065.26 L 249.17,1065.26 L 249.16,1065.27 L 249.15,1065.27 L 249.14,1065.28 L 249.12,1065.27 L 249.11,1065.27 L 249.09,1065.27 L 249.07,1065.27 L 249.04,1065.26 L 248.98,1065.25 L 248.92,1065.24 L 248.90,1065.24 L 248.88,1065.24 L 248.86,1065.24 L 248.85,1065.24 L 248.83,1065.26 L 248.81,1065.28 L 248.80,1065.30 L 248.80,1065.30 L 248.80,1065.32 L 248.80,1065.33 L 248.81,1065.35 L 248.81,1065.37 L 248.82,1065.38 L 248.83,1065.38 L 248.84,1065.39 L 248.86,1065.39 L 248.87,1065.39 L 248.88,1065.39 L 248.90,1065.39 L 248.91,1065.38 L 248.93,1065.37 L 248.95,1065.35 L 248.97,1065.34 L 248.99,1065.33 L 249.00,1065.33 L 249.02,1065.33 L 249.03,1065.34 L 249.04,1065.35 L 249.05,1065.36 L 249.06,1065.37 L 249.06,1065.39 L 249.06,1065.40 L 249.05,1065.42 L 249.02,1065.49 L 249.02,1065.51 L 249.01,1065.56 L 249.00,1065.66 L 249.00,1065.68 L 248.99,1065.69 L 248.99,1065.71 L 248.99,1065.72 L 248.98,1065.74 L 248.97,1065.75 L 248.97,1065.76 L 248.96,1065.77 L 248.95,1065.77 L 248.95,1065.78 L 248.94,1065.78 L 248.91,1065.79 L 248.89,1065.80 L 248.85,1065.82 L 248.72,1065.87 L 248.71,1065.88 L 248.70,1065.88 L 248.69,1065.88 L 248.68,1065.88 L 248.67,1065.88 L 248.66,1065.88 L 248.65,1065.88 L 248.65,1065.87 L 248.64,1065.87 L 248.63,1065.86 L 248.63,1065.85 L 248.62,1065.83 L 248.61,1065.81 L 248.61,1065.79 L 248.60,1065.78 L 248.60,1065.77 L 248.59,1065.77 L 248.59,1065.76 L 248.58,1065.76 L 248.57,1065.75 L 248.56,1065.75 L 248.55,1065.75 L 248.51,1065.74 L 248.50,1065.74 L 248.48,1065.74 L 248.47,1065.74 L 248.44,1065.73 L 248.40,1065.71 L 248.37,1065.70 L 248.32,1065.67 L 248.29,1065.66 L 248.28,1065.65 L 248.26,1065.65 L 248.25,1065.66 L 248.24,1065.66 L 248.23,1065.67 L 248.23,1065.69 L 248.23,1065.70 L 248.23,1065.72 L 248.23,1065.75 L 248.23,1065.80 L 248.24,1065.83 L 248.24,1065.85 L 248.24,1065.88 L 248.25,1065.92 L 248.26,1065.95 L 248.28,1066.00 L 248.30,1066.05 L 248.32,1066.09 L 248.32,1066.10 L 248.32,1066.12 L 248.33,1066.13 L 248.32,1066.14 L 248.32,1066.15 L 248.32,1066.16 L 248.31,1066.17 L 248.30,1066.18 L 248.26,1066.22 L 248.22,1066.25 L 248.21,1066.27 L 248.20,1066.28 L 248.20,1066.30 L 248.19,1066.31 L 248.18,1066.36 L 248.18,1066.38 L 248.17,1066.45 L 248.17,1066.47 L 248.17,1066.48 L 248.16,1066.50 L 248.15,1066.51 L 248.14,1066.52 L 248.13,1066.54 L 248.12,1066.55 L 248.11,1066.56 L 248.10,1066.56 L 248.08,1066.57 L 248.07,1066.57 L 248.05,1066.57 L 247.97,1066.58 L 247.90,1066.59 L 247.88,1066.60 L 247.87,1066.60 L 247.86,1066.61 L 247.85,1066.62 L 247.84,1066.63 L 247.83,1066.64 L 247.82,1066.65 L 247.82,1066.67 L 247.82,1066.68 L 247.82,1066.70 L 247.83,1066.73 L 247.84,1066.75 L 247.86,1066.77 L 247.87,1066.78 L 247.88,1066.80 L 247.90,1066.81 L 247.92,1066.82 L 247.94,1066.82 L 247.95,1066.83 L 247.97,1066.83 L 247.98,1066.83 L 248.01,1066.84 L 248.02,1066.84 L 248.03,1066.84 L 248.04,1066.84 L 248.05,1066.85 L 248.06,1066.86 L 248.06,1066.87 L 248.07,1066.88 L 248.08,1066.90 L 248.08,1066.91 L 248.08,1066.93 L 248.08,1066.94 L 248.08,1066.95 L 248.07,1066.97 L 248.06,1066.98 L 248.06,1067.00 L 248.05,1067.01 L 248.04,1067.02 L 248.02,1067.03 L 248.01,1067.03 L 248.00,1067.04 L 247.99,1067.04 L 247.99,1067.04 L 247.98,1067.04 L 247.97,1067.04 L 247.95,1067.04 L 247.92,1067.04 L 247.89,1067.04 L 247.84,1067.03 L 247.79,1067.03 L 247.75,1067.02 L 247.73,1067.02 L 247.71,1067.02 L 247.68,1067.01 L 247.66,1067.00 L 247.64,1066.99 L 247.62,1066.99 L 247.59,1066.97 L 247.56,1066.96 L 247.54,1066.94 L 247.51,1066.92 L 247.50,1066.90 L 247.48,1066.88 L 247.47,1066.86 L 247.45,1066.83 L 247.44,1066.81 L 247.42,1066.76 L 247.42,1066.74 L 247.41,1066.73 L 247.40,1066.72 L 247.40,1066.71 L 247.39,1066.70 L 247.38,1066.70 L 247.38,1066.70 L 247.37,1066.70 L 247.37,1066.70 L 247.36,1066.70 L 247.35,1066.70 L 247.35,1066.70 L 247.34,1066.71 L 247.30,1066.72 L 247.29,1066.73 L 247.28,1066.73 L 247.27,1066.73 L 247.25,1066.74 L 247.24,1066.74 L 247.17,1066.76 L 247.13,1066.77 L 247.08,1066.78 L 247.06,1066.78 L 247.04,1066.79 L 247.02,1066.79 L 247.01,1066.79 L 247.00,1066.79 L 246.99,1066.79 L 246.97,1066.78 L 246.96,1066.78 L 246.95,1066.77 L 246.95,1066.77 L 246.94,1066.76 L 246.93,1066.75 L 246.92,1066.72 L 246.90,1066.68 L 246.88,1066.67 L 246.87,1066.65 L 246.86,1066.64 L 246.86,1066.63 L 246.85,1066.63 L 246.84,1066.62 L 246.83,1066.62 L 246.82,1066.62 L 246.81,1066.62 L 246.79,1066.63 L 246.77,1066.63 L 246.75,1066.64 L 246.74,1066.64 L 246.72,1066.64 L 246.70,1066.64 L 246.68,1066.64 L 246.66,1066.63 L 246.64,1066.62 L 246.62,1066.60 L 246.57,1066.55 L 246.54,1066.52 L 246.52,1066.49 L 246.51,1066.48 L 246.50,1066.47 L 246.50,1066.45 L 246.49,1066.44 L 246.49,1066.44 L 246.49,1066.43 L 246.49,1066.42 L 246.49,1066.41 L 246.50,1066.39 L 246.50,1066.38 L 246.51,1066.36 L 246.53,1066.32 L 246.54,1066.31 L 246.54,1066.30 L 246.54,1066.30 L 246.54,1066.29 L 246.54,1066.28 L 246.54,1066.27 L 246.53,1066.26 L 246.53,1066.25 L 246.52,1066.24 L 246.51,1066.24 L 246.50,1066.23 L 246.49,1066.23 L 246.47,1066.23 L 246.46,1066.23 L 246.45,1066.23 L 246.43,1066.24 L 246.37,1066.27 L 246.36,1066.28 L 246.34,1066.29 L 246.32,1066.29 L 246.31,1066.30 L 246.29,1066.30 L 246.27,1066.31 L 246.24,1066.31 L 246.22,1066.29 L 246.22,1066.28 L 246.22,1066.27 L 246.21,1066.26 L 246.20,1066.24 L 246.19,1066.23 L 246.18,1066.21 L 246.18,1066.21 L 246.18,1066.20 L 246.18,1066.20 L 246.18,1066.19 L 246.18,1066.19 L 246.18,1066.16 L 246.18,1066.16 L 246.18,1066.15 L 246.18,1066.15 L 246.18,1066.14 L 246.17,1066.14 L 246.17,1066.13 L 246.16,1066.13 L 246.13,1066.13 L 246.12,1066.13 L 246.11,1066.13 L 246.10,1066.13 L 246.09,1066.12 L 246.09,1066.12 L 246.08,1066.11 L 246.07,1066.11 L 246.07,1066.10 L 246.07,1066.10 L 246.07,1066.09 L 246.07,1066.08 L 246.07,1066.08 L 246.07,1066.07 L 246.05,1066.06 L 246.04,1066.04 L 246.03,1066.04 L 246.02,1066.02 L 246.00,1066.01 L 246.00,1066.00 L 245.99,1065.99 L 245.99,1065.98 L 245.98,1065.98 L 245.98,1065.98 L 245.97,1065.98 L 245.97,1065.97 L 245.95,1065.96 L 245.93,1065.95 L 245.93,1065.95 L 245.92,1065.94 L 245.91,1065.93 L 245.91,1065.93 L 245.91,1065.92 L 245.91,1065.91 L 245.91,1065.90 L 245.91,1065.90 L 245.91,1065.89 L 245.91,1065.89 L 245.90,1065.88 L 245.89,1065.88 L 245.87,1065.88 L 245.86,1065.88 L 245.84,1065.88 L 245.83,1065.87 L 245.82,1065.87 L 245.81,1065.87 L 245.81,1065.86 L 245.81,1065.86 L 245.82,1065.85 L 245.83,1065.83 L 245.84,1065.81 L 245.84,1065.79 L 245.84,1065.78 L 245.85,1065.76 L 245.85,1065.75 L 245.85,1065.74 L 245.85,1065.73 L 245.84,1065.73 L 245.84,1065.72 L 245.84,1065.72 L 245.83,1065.72 L 245.83,1065.72 L 245.81,1065.72 L 245.79,1065.72 L 245.76,1065.71 L 245.77,1065.69 L 245.81,1065.65 L 245.90,1065.56 L 245.92,1065.54 L 245.99,1065.47 L 246.08,1065.38 L 246.11,1065.36 L 246.13,1065.34 L 246.14,1065.32 L 246.14,1065.32 L 246.15,1065.32 L 246.16,1065.32 L 246.20,1065.31 L 246.21,1065.31 L 246.22,1065.30 L 246.23,1065.29 L 246.24,1065.30 L 246.29,1065.29 L 246.29,1065.28 L 246.28,1065.25 L 246.28,1065.24 L 246.27,1065.22 L 246.27,1065.21 L 246.26,1065.16 L 246.26,1065.16 L 246.26,1065.15 L 246.25,1065.15 L 246.23,1065.14 L 246.22,1065.14 L 246.22,1065.13 L 246.19,1065.10 L 246.18,1065.10 L 246.17,1065.09 L 246.16,1065.09 L 246.15,1065.07 L 246.12,1065.05 L 246.11,1065.03 L 246.08,1064.99 L 246.07,1064.98 L 246.07,1064.97 L 246.05,1064.95 L 246.04,1064.95 L 246.04,1064.93 L 246.04,1064.92 L 246.03,1064.91 L 246.02,1064.91 L 246.01,1064.90 L 245.93,1064.94 L 245.87,1064.97 L 245.79,1065.01 L 245.72,1065.04 L 245.68,1064.99 L 245.66,1064.96 L 245.64,1064.93 L 245.58,1064.84 L 245.58,1064.83 L 245.58,1064.83 L 245.57,1064.83 L 245.57,1064.83 L 245.56,1064.83 L 245.56,1064.83 L 245.54,1064.79 L 245.51,1064.75 L 245.49,1064.70 L 245.47,1064.68 L 245.46,1064.67 L 245.37,1064.75 L 245.33,1064.78 L 245.32,1064.79 L 245.30,1064.81 L 245.26,1064.78 L 245.23,1064.76 L 245.21,1064.74 L 245.21,1064.74 L 245.20,1064.73 L 245.19,1064.71 L 245.19,1064.70 L 245.18,1064.69 L 245.17,1064.71 L 245.16,1064.73 L 245.15,1064.74 L 245.14,1064.75 L 245.13,1064.76 L 245.12,1064.76 L 245.10,1064.76 L 245.09,1064.76 L 245.08,1064.75 L 245.06,1064.74 L 245.01,1064.71 L 244.98,1064.69 L 244.96,1064.68 L 244.94,1064.66 L 244.94,1064.65 L 244.94,1064.64 L 244.94,1064.64 L 244.93,1064.63 L 244.93,1064.62 L 244.92,1064.61 L 244.92,1064.61 L 244.92,1064.60 L 244.92,1064.57 L 244.91,1064.56 L 244.91,1064.56 L 244.91,1064.55 L 244.90,1064.54 L 244.90,1064.54 L 244.90,1064.53 L 244.89,1064.53 L 244.89,1064.53 L 244.87,1064.53 L 244.86,1064.53 L 244.85,1064.53 L 244.85,1064.54 L 244.84,1064.54 L 244.84,1064.54 L 244.84,1064.55 L 244.83,1064.56 L 244.83,1064.57 L 244.84,1064.57 L 244.84,1064.58 L 244.84,1064.59 L 244.85,1064.62 L 244.86,1064.63 L 244.86,1064.63 L 244.86,1064.64 L 244.86,1064.65 L 244.85,1064.66 L 244.85,1064.66 L 244.84,1064.67 L 244.84,1064.67 L 244.80,1064.68 L 244.79,1064.68 L 244.79,1064.69 L 244.78,1064.69 L 244.75,1064.72 L 244.73,1064.72 L 244.72,1064.72 L 244.71,1064.73 L 244.70,1064.73 L 244.70,1064.74 L 244.69,1064.74 L 244.68,1064.75 L 244.68,1064.76 L 244.67,1064.77 L 244.66,1064.77 L 244.66,1064.77 L 244.65,1064.77 L 244.64,1064.78 L 244.63,1064.78 L 244.62,1064.77 L 244.61,1064.77 L 244.61,1064.76 L 244.60,1064.75 L 244.59,1064.73 L 244.59,1064.72 L 244.59,1064.71 L 244.58,1064.70 L 244.58,1064.70 L 244.57,1064.70 L 244.57,1064.70 L 244.56,1064.70 L 244.56,1064.70 L 244.55,1064.70 L 244.53,1064.72 L 244.52,1064.73 L 244.52,1064.73 L 244.52,1064.74 L 244.51,1064.74 L 244.51,1064.74 L 244.51,1064.76 L 244.51,1064.77 L 244.51,1064.78 L 244.51,1064.78 L 244.51,1064.79 L 244.50,1064.79 L 244.50,1064.80 L 244.48,1064.81 L 244.47,1064.82 L 244.44,1064.83 L 244.43,1064.83 L 244.43,1064.83 L 244.42,1064.83 L 244.42,1064.83 L 244.41,1064.83 L 244.41,1064.82 L 244.40,1064.81 L 244.38,1064.79 L 244.37,1064.78 L 244.37,1064.78 L 244.36,1064.77 L 244.35,1064.77 L 244.34,1064.76 L 244.34,1064.76 L 244.33,1064.75 L 244.33,1064.74 L 244.33,1064.74 L 244.33,1064.71 L 244.33,1064.69 L 244.31,1064.69 L 244.31,1064.69 L 244.30,1064.69 L 244.29,1064.70 L 244.28,1064.70 L 244.27,1064.71 L 244.26,1064.72 L 244.26,1064.72 L 244.26,1064.73 L 244.26,1064.73 L 244.26,1064.74 L 244.26,1064.74 L 244.26,1064.75 L 244.26,1064.75 L 244.27,1064.76 L 244.29,1064.78 L 244.29,1064.78 L 244.30,1064.78 L 244.30,1064.79 L 244.32,1064.83 L 244.34,1064.85 L 244.34,1064.86 L 244.34,1064.86 L 244.34,1064.86 L 244.34,1064.87 L 244.33,1064.90 L 244.32,1064.93 L 244.32,1064.94 L 244.32,1064.95 L 244.31,1064.95 L 244.31,1064.95 L 244.30,1064.96 L 244.29,1064.96 L 244.28,1064.96 L 244.26,1064.96 L 244.25,1064.96 L 244.25,1064.95 L 244.24,1064.95 L 244.24,1064.95 L 244.23,1064.95 L 244.22,1064.95 L 244.20,1064.95 L 244.19,1064.94 L 244.17,1064.94 L 244.17,1064.94 L 244.16,1064.93 L 244.15,1064.93 L 244.14,1064.92 L 244.13,1064.92 L 244.12,1064.91 L 244.11,1064.91 L 244.10,1064.92 L 244.09,1064.92 L 244.08,1064.93 L 244.07,1064.94 L 244.06,1064.95 L 244.04,1064.97 L 244.04,1064.97 L 244.03,1064.97 L 244.02,1064.97 L 244.01,1064.97 L 243.99,1064.97 L 243.98,1064.97 L 243.98,1064.98 L 243.97,1064.98 L 243.97,1064.98 L 243.97,1064.99 L 243.97,1065.00 L 243.97,1065.00 L 243.97,1065.03 L 243.97,1065.05 L 243.97,1065.05 L 243.98,1065.06 L 243.98,1065.06 L 243.99,1065.07 L 244.01,1065.07 L 244.01,1065.08 L 244.02,1065.08 L 244.03,1065.09 L 244.03,1065.10 L 244.03,1065.11 L 244.03,1065.12 L 244.02,1065.12 L 244.01,1065.13 L 244.00,1065.13 L 243.98,1065.14 L 243.97,1065.14 L 243.95,1065.14 L 243.94,1065.14 L 243.94,1065.13 L 243.93,1065.13 L 243.91,1065.12 L 243.91,1065.12 L 243.90,1065.12 L 243.89,1065.13 L 243.88,1065.13 L 243.87,1065.14 L 243.86,1065.15 L 243.82,1065.18 L 243.82,1065.18 L 243.81,1065.19 L 243.81,1065.20 L 243.80,1065.23 L 243.79,1065.26 L 243.78,1065.27 L 243.78,1065.28 L 243.77,1065.29 L 243.76,1065.30 L 243.75,1065.31 L 243.75,1065.32 L 243.73,1065.32 L 243.72,1065.32 L 243.70,1065.32 L 243.69,1065.32 L 243.68,1065.31 L 243.67,1065.31 L 243.66,1065.30 L 243.66,1065.28 L 243.65,1065.24 L 243.65,1065.23 L 243.64,1065.22 L 243.64,1065.22 L 243.63,1065.21 L 243.62,1065.21 L 243.61,1065.21 L 243.59,1065.22 L 243.57,1065.23 L 243.57,1065.23 L 243.56,1065.23 L 243.55,1065.23 L 243.51,1065.23 L 243.50,1065.23 L 243.49,1065.23 L 243.49,1065.26 L 243.49,1065.27 L 243.49,1065.28 L 243.50,1065.28 L 243.51,1065.30 L 243.52,1065.31 L 243.52,1065.31 L 243.52,1065.32 L 243.52,1065.32 L 243.53,1065.35 L 243.53,1065.39 L 243.53,1065.41 L 243.53,1065.42 L 243.53,1065.43 L 243.52,1065.46 L 243.52,1065.48 L 243.51,1065.53 L 243.51,1065.53 L 243.51,1065.54 L 243.51,1065.55 L 243.52,1065.57 L 243.52,1065.59 L 243.51,1065.60 L 243.50,1065.61 L 243.48,1065.61 L 243.46,1065.62 L 243.45,1065.62 L 243.44,1065.62 L 243.43,1065.61 L 243.41,1065.61 L 243.40,1065.60 L 243.39,1065.59 L 243.38,1065.59 L 243.37,1065.58 L 243.37,1065.58 L 243.36,1065.58 L 243.35,1065.58 L 243.35,1065.58 L 243.34,1065.59 L 243.33,1065.59 L 243.33,1065.59 L 243.32,1065.59 L 243.31,1065.59 L 243.30,1065.59 L 243.30,1065.59 L 243.29,1065.59 L 243.29,1065.59 L 243.28,1065.60 L 243.28,1065.60 L 243.28,1065.61 L 243.27,1065.62 L 243.27,1065.62 L 243.27,1065.63 L 243.25,1065.65 L 243.24,1065.66 L 243.23,1065.67 L 243.22,1065.67 L 243.22,1065.67 L 243.21,1065.67 L 243.21,1065.67 L 243.20,1065.67 L 243.20,1065.67 L 243.19,1065.67 L 243.18,1065.67 L 243.17,1065.67 L 243.17,1065.67 L 243.17,1065.67 L 243.16,1065.66 L 243.16,1065.66 L 243.15,1065.66 L 243.15,1065.66 L 243.15,1065.66 L 243.14,1065.66 L 243.13,1065.66 L 243.13,1065.66 L 243.13,1065.66 L 243.12,1065.65 L 243.12,1065.65 L 243.13,1065.64 L 243.13,1065.64 L 243.13,1065.64 L 243.12,1065.64 L 243.11,1065.63 L 243.10,1065.62 L 243.06,1065.60 L 243.05,1065.60 L 243.02,1065.58 L 242.99,1065.57 L 242.99,1065.57 L 242.99,1065.58 L 242.98,1065.58 L 242.98,1065.59 L 242.97,1065.60 L 242.97,1065.60 L 242.96,1065.62 L 242.95,1065.62 L 242.94,1065.64 L 242.92,1065.65 L 242.92,1065.66 L 242.92,1065.66 L 242.92,1065.66 L 242.92,1065.67 L 242.92,1065.70 L 242.92,1065.71 L 242.92,1065.72 L 242.92,1065.74 L 242.89,1065.74 L 242.84,1065.73 L 242.78,1065.72 L 242.76,1065.79 L 242.73,1065.88 L 242.64,1065.83 L 242.56,1065.77 L 242.55,1065.79 L 242.55,1065.81 L 242.54,1065.82 L 242.54,1065.83 L 242.43,1065.83 L 242.36,1065.83 L 242.31,1065.85 L 242.30,1065.84 L 242.29,1065.84 L 242.29,1065.83 L 242.28,1065.82 L 242.28,1065.82 L 242.27,1065.81 L 242.26,1065.80 L 242.26,1065.79 L 242.25,1065.78 L 242.24,1065.75 L 242.24,1065.73 L 242.23,1065.71 L 242.23,1065.70 L 242.23,1065.69 L 242.22,1065.69 L 242.21,1065.68 L 242.21,1065.68 L 242.16,1065.65 L 242.15,1065.65 L 242.14,1065.65 L 242.14,1065.65 L 242.13,1065.65 L 242.13,1065.65 L 242.10,1065.67 L 242.09,1065.68 L 242.08,1065.68 L 242.07,1065.68 L 242.07,1065.68 L 242.06,1065.68 L 242.06,1065.67 L 242.04,1065.66 L 242.03,1065.64 L 242.00,1065.61 L 241.98,1065.58 L 241.97,1065.57 L 241.96,1065.55 L 241.95,1065.54 L 241.95,1065.52 L 241.95,1065.50 L 241.95,1065.49 L 241.95,1065.47 L 241.93,1065.47 L 241.91,1065.48 L 241.89,1065.48 L 241.77,1065.51 L 241.73,1065.52 L 241.68,1065.53 L 241.72,1065.55 L 241.80,1065.61 L 241.84,1065.64 L 241.82,1065.76 L 241.81,1065.77 L 241.80,1065.82 L 241.80,1065.84 L 241.80,1065.98 L 241.80,1066.09 L 241.79,1066.19 L 241.80,1066.23 L 241.80,1066.27 L 241.79,1066.27 L 241.78,1066.27 L 241.77,1066.26 L 241.75,1066.39 L 241.72,1066.50 L 241.70,1066.59 L 241.70,1066.59 L 241.70,1066.60 L 241.70,1066.60 L 241.69,1066.60 L 241.69,1066.60 L 241.67,1066.60 L 241.66,1066.60 L 241.65,1066.60 L 241.64,1066.60 L 241.62,1066.61 L 241.61,1066.61 L 241.60,1066.61 L 241.59,1066.62 L 241.55,1066.62 L 241.54,1066.62 L 241.51,1066.62 L 241.50,1066.62 L 241.49,1066.62 L 241.48,1066.62 L 241.47,1066.62 L 241.47,1066.62 L 241.45,1066.61 L 241.43,1066.61 L 241.41,1066.60 L 241.41,1066.60 L 241.39,1066.60 L 241.38,1066.60 L 241.37,1066.60 L 241.34,1066.57 L 241.33,1066.57 L 241.32,1066.57 L 241.30,1066.56 L 241.27,1066.55 L 241.27,1066.54 L 241.26,1066.54 L 241.25,1066.54 L 241.24,1066.54 L 241.23,1066.53 L 241.22,1066.52 L 241.21,1066.52 L 241.20,1066.52 L 241.20,1066.52 L 241.19,1066.52 L 241.18,1066.52 L 241.13,1066.52 L 241.12,1066.52 L 241.11,1066.52 L 241.10,1066.51 L 241.08,1066.50 L 241.07,1066.50 L 241.07,1066.49 L 241.07,1066.49 L 241.06,1066.49 L 241.00,1066.49 L 240.97,1066.49 L 240.93,1066.49 L 240.91,1066.49 L 240.85,1066.50 L 240.72,1066.53 L 240.71,1066.53 L 240.61,1066.55 L 240.56,1066.56 L 240.52,1066.48 L 240.45,1066.32 L 240.40,1066.22 L 240.38,1066.22 L 240.36,1066.23 L 240.32,1066.25 L 240.30,1066.26 L 240.29,1066.26 L 240.26,1066.28 L 240.25,1066.28 L 240.25,1066.28 L 240.23,1066.28 L 240.21,1066.27 L 240.20,1066.27 L 240.17,1066.26 L 240.13,1066.24 L 240.11,1066.23 L 240.11,1066.22 L 240.11,1066.22 L 240.11,1066.21 L 240.11,1066.21 L 240.11,1066.20 L 240.09,1066.18 L 240.07,1066.15 L 239.95,1065.98 L 239.88,1065.86 L 239.87,1065.85 L 239.84,1065.87 L 239.76,1065.92 L 239.72,1065.94 L 239.71,1065.92 L 239.70,1065.93 L 239.60,1065.96 L 239.62,1065.99 L 239.59,1066.02 L 239.58,1066.02 L 239.57,1066.03 L 239.52,1065.95 L 239.50,1065.97 L 239.49,1065.95 L 239.45,1065.95 L 239.41,1065.96 L 239.38,1065.96 L 239.36,1065.97 L 239.31,1065.99 L 239.27,1066.00 L 239.26,1066.00 L 239.21,1066.02 L 239.18,1066.04 L 239.18,1066.05 L 239.13,1066.05 L 239.08,1066.06 L 239.03,1066.07 L 239.03,1066.09 L 239.03,1066.09 L 239.02,1066.09 L 239.02,1066.09 L 239.01,1066.09 L 239.01,1066.10 L 239.00,1066.11 L 239.00,1066.12 L 238.96,1066.12 L 238.93,1066.13 L 238.91,1066.13 L 238.91,1066.13 L 238.89,1066.13 L 238.88,1066.13 L 238.88,1066.13 L 238.87,1066.14 L 238.86,1066.14 L 238.84,1066.10 L 238.78,1066.14 L 238.71,1066.01 L 238.56,1066.05 L 238.56,1065.90 L 238.56,1065.86 L 238.56,1065.83 L 238.57,1065.80 L 238.57,1065.80 L 238.57,1065.79 L 238.58,1065.78 L 238.57,1065.77 L 238.56,1065.77 L 238.56,1065.76 L 238.55,1065.76 L 238.54,1065.75 L 238.53,1065.75 L 238.52,1065.75 L 238.50,1065.73 L 238.47,1065.67 L 238.44,1065.62 L 238.42,1065.63 L 238.41,1065.62 L 238.38,1065.61 L 238.38,1065.60 L 238.34,1065.61 L 238.32,1065.61 L 238.30,1065.62 L 238.28,1065.63 L 238.28,1065.64 L 238.26,1065.65 L 238.25,1065.65 L 238.22,1065.67 L 238.22,1065.68 L 238.21,1065.69 L 238.21,1065.69 L 238.19,1065.69 L 238.16,1065.69 L 238.15,1065.69 L 238.11,1065.68 L 238.08,1065.67 L 238.05,1065.65 L 238.03,1065.64 L 237.99,1065.64 L 237.97,1065.64 L 237.95,1065.63 L 237.94,1065.63 L 237.93,1065.62 L 237.92,1065.61 L 237.91,1065.60 L 237.90,1065.54 L 237.82,1065.54 L 237.81,1065.54 L 237.86,1065.47 L 237.97,1065.30 L 238.00,1065.25 L 238.02,1065.24 L 238.04,1065.24 L 238.03,1065.22 L 238.04,1065.22 L 238.04,1065.20 L 238.04,1065.20 L 238.05,1065.18 L 238.04,1065.18 L 238.06,1065.13 L 238.06,1065.13 L 238.06,1065.12 L 238.03,1065.06 L 238.04,1065.04 L 238.01,1065.03 L 238.04,1064.94 L 237.90,1064.89 L 237.92,1064.81 L 237.89,1064.79 L 237.72,1064.74 L 237.69,1064.73 L 237.51,1064.68 L 237.53,1064.58 L 237.56,1064.44 L 237.52,1064.43 L 237.51,1064.45 L 237.48,1064.44 L 237.48,1064.43 L 237.48,1064.42 L 237.48,1064.41 L 237.48,1064.40 L 237.48,1064.39 L 237.48,1064.39 L 237.47,1064.37 L 237.47,1064.37 L 237.47,1064.36 L 237.47,1064.34 L 237.46,1064.33 L 237.46,1064.32 L 237.47,1064.32 L 237.47,1064.31 L 237.48,1064.30 L 237.47,1064.30 L 237.45,1064.30 L 237.44,1064.30 L 237.43,1064.30 L 237.42,1064.30 L 237.42,1064.30 L 237.40,1064.28 L 237.39,1064.27 L 237.38,1064.26 L 237.37,1064.26 L 237.35,1064.25 L 237.34,1064.25 L 237.32,1064.25 L 237.30,1064.25 L 237.29,1064.26 L 237.25,1064.27 L 237.22,1064.28 L 237.20,1064.29 L 237.19,1064.29 L 237.18,1064.29 L 237.16,1064.29 L 237.11,1064.29 L 237.10,1064.29 L 237.09,1064.29 L 237.08,1064.30 L 237.07,1064.30 L 237.06,1064.31 L 237.05,1064.32 L 237.05,1064.33 L 237.02,1064.44 L 237.02,1064.45 L 237.01,1064.46 L 237.00,1064.47 L 237.00,1064.47 L 236.98,1064.49 L 236.97,1064.50 L 236.96,1064.50 L 236.96,1064.50 L 236.95,1064.50 L 236.94,1064.50 L 236.91,1064.49 L 236.90,1064.48 L 236.89,1064.48 L 236.88,1064.48 L 236.88,1064.48 L 236.87,1064.48 L 236.87,1064.48 L 236.87,1064.48 L 236.86,1064.49 L 236.85,1064.47 L 236.85,1064.46 L 236.84,1064.45 L 236.76,1064.60 L 236.70,1064.72 L 236.68,1064.74 L 236.69,1064.76 L 236.70,1064.77 L 236.68,1064.78 L 236.70,1064.83 L 236.70,1064.85 L 236.71,1064.86 L 236.71,1064.87 L 236.71,1064.88 L 236.70,1064.89 L 236.69,1064.91 L 236.67,1064.91 L 236.67,1064.93 L 236.61,1064.96 L 236.58,1064.88 L 236.51,1064.90 L 236.50,1064.88 L 236.47,1064.81 L 236.42,1064.66 L 236.40,1064.62 L 236.36,1064.62 L 236.32,1064.62 L 236.29,1064.62 L 236.20,1064.60 L 236.18,1064.59 L 236.17,1064.59 L 236.16,1064.58 L 236.12,1064.56 L 236.11,1064.55 L 236.11,1064.55 L 236.10,1064.55 L 236.09,1064.54 L 236.08,1064.52 L 236.06,1064.50 L 236.03,1064.48 L 235.99,1064.44 L 235.98,1064.45 L 235.97,1064.44 L 235.97,1064.43 L 235.96,1064.42 L 235.95,1064.41 L 235.94,1064.41 L 235.87,1064.37 L 235.86,1064.36 L 235.85,1064.36 L 235.85,1064.35 L 235.83,1064.33 L 235.83,1064.32 L 235.84,1064.29 L 235.84,1064.27 L 235.84,1064.26 L 235.84,1064.25 L 235.87,1064.19 L 235.89,1064.14 L 235.90,1064.11 L 235.75,1063.97 L 235.72,1063.93 L 235.68,1063.94 L 235.55,1064.16 L 235.56,1064.17 L 235.48,1064.21 L 235.40,1064.17 L 235.38,1064.17 L 235.31,1064.13 L 235.25,1064.09 L 235.18,1064.06 L 235.08,1064.00 L 235.03,1063.97 L 234.97,1064.08 L 234.78,1064.42 L 234.71,1064.54 L 234.68,1064.61 L 234.66,1064.64 L 234.66,1064.64 L 234.65,1064.65 L 234.63,1064.67 L 234.52,1064.56 L 234.48,1064.51 L 234.40,1064.42 L 234.36,1064.38 L 234.31,1064.32 L 234.28,1064.28 L 234.24,1064.24 L 234.20,1064.19 L 234.16,1064.14 L 234.12,1064.10 L 234.00,1063.96 L 233.92,1063.87 L 233.88,1063.82 L 233.84,1063.78 L 233.81,1063.74 L 233.77,1063.70 L 233.74,1063.66 L 233.70,1063.62 L 233.66,1063.58 L 233.63,1063.54 L 233.59,1063.50 L 233.55,1063.45 L 233.51,1063.41 L 233.47,1063.36 L 233.42,1063.32 L 233.38,1063.27 L 233.35,1063.23 L 233.31,1063.18 L 233.26,1063.13 L 233.22,1063.09 L 233.19,1063.05 L 233.15,1063.01 L 233.06,1062.90 L 233.04,1062.89 L 232.88,1062.72 L 232.73,1062.54 L 232.63,1062.42 L 232.62,1062.01 L 232.59,1061.52 L 232.58,1061.35 L 232.66,1061.36 L 232.68,1061.33 L 232.69,1061.30 L 232.68,1061.30 L 232.66,1061.29 L 232.63,1061.28 L 232.56,1061.25 L 232.57,1061.22 L 232.61,1061.04 L 232.65,1060.84 L 232.67,1060.75 L 232.70,1060.67 L 232.71,1060.64 L 232.71,1060.63 L 232.75,1060.24 L 232.74,1060.23 L 232.74,1060.20 L 232.75,1060.18 L 232.74,1060.11 L 232.74,1060.07 L 232.75,1060.04 L 232.76,1059.89 L 232.77,1059.75 L 232.79,1059.62 L 232.80,1059.58 L 232.80,1059.49 L 232.84,1059.17 L 232.86,1058.92 L 232.90,1058.57 L 232.91,1058.50 L 232.92,1058.42 L 232.92,1058.37 L 232.93,1058.27 L 232.95,1058.08 L 232.96,1057.92 L 233.00,1057.62 L 233.07,1056.94 L 233.09,1056.78 L 233.10,1056.78 L 233.11,1056.78 L 233.13,1056.78 L 233.15,1056.60 L 233.20,1056.25 L 233.21,1056.15 L 233.21,1056.12 L 233.20,1056.10 L 233.18,1056.04 L 233.18,1056.02 L 233.17,1056.01 L 233.16,1055.99 L 233.15,1055.98 L 233.15,1055.96 L 233.15,1055.95 L 233.15,1055.93 L 233.16,1055.91 L 233.17,1055.89 L 233.17,1055.89 L 233.18,1055.88 L 233.18,1055.88 L 233.19,1055.87 L 233.19,1055.87 L 233.19,1055.86 L 233.18,1055.84 L 233.17,1055.83 L 233.17,1055.81 L 233.17,1055.75 L 233.17,1055.74 L 233.17,1055.74 L 233.18,1055.73 L 233.18,1055.71 L 233.18,1055.71 L 233.18,1055.70 L 233.18,1055.69 L 233.17,1055.67 L 233.16,1055.64 L 233.16,1055.62 L 233.15,1055.60 L 233.15,1055.58 L 233.14,1055.56 L 233.13,1055.55 L 233.12,1055.54 L 233.11,1055.52 L 233.10,1055.50 L 233.08,1055.48 L 233.07,1055.46 L 233.06,1055.45 L 233.06,1055.44 L 233.05,1055.43 L 233.04,1055.43 L 233.03,1055.43 L 233.03,1055.43 L 233.01,1055.43 L 233.01,1055.43 L 233.00,1055.43 L 233.00,1055.43 L 232.98,1055.42 L 232.98,1055.41 L 232.96,1055.39 L 232.94,1055.37 L 232.94,1055.36 L 232.94,1055.36 L 232.93,1055.35 L 232.94,1055.34 L 232.95,1055.29 L 232.95,1055.24 L 232.95,1055.23 L 232.95,1055.20 L 232.94,1055.14 L 232.93,1055.12 L 232.92,1055.10 L 232.92,1055.09 L 232.91,1055.08 L 232.88,1055.03 L 232.87,1055.02 L 232.86,1055.01 L 232.85,1054.99 L 232.84,1054.97 L 232.83,1054.95 L 232.82,1054.94 L 232.81,1054.93 L 232.81,1054.92 L 232.81,1054.91 L 232.81,1054.90 L 232.81,1054.88 L 232.81,1054.86 L 232.80,1054.85 L 232.79,1054.80 L 232.79,1054.79 L 232.78,1054.78 L 232.75,1054.72 L 232.69,1054.65 L 232.67,1054.64 L 232.66,1054.67 L 232.64,1054.68 L 232.63,1054.70 L 232.61,1054.70 L 232.58,1054.70 L 232.55,1054.68 L 232.54,1054.66 L 232.53,1054.61 L 232.51,1054.56 L 232.48,1054.52 L 232.42,1054.46 L 232.37,1054.42 L 232.21,1054.33 L 232.17,1054.30 L 232.16,1054.28 L 232.16,1054.26 L 232.16,1054.21 L 232.16,1054.17 L 232.16,1054.14 L 232.14,1054.07 L 232.12,1054.03 L 232.09,1054.01 L 232.06,1054.00 L 232.03,1054.00 L 232.01,1054.01 L 231.94,1054.08 L 231.93,1054.08 L 231.91,1054.10 L 231.87,1054.11 L 231.78,1054.12 L 231.72,1054.11 L 231.54,1054.12 L 231.34,1054.13 L 231.30,1054.14 L 231.28,1054.15 L 231.27,1054.16 L 231.27,1054.18 L 231.28,1054.26 L 231.30,1054.31 L 231.31,1054.39 L 231.30,1054.43 L 231.27,1054.48 L 231.24,1054.50 L 231.19,1054.51 L 231.15,1054.51 L 231.04,1054.44 L 230.99,1054.42 L 230.95,1054.41 L 230.90,1054.43 L 230.88,1054.44 L 230.86,1054.46 L 230.85,1054.50 L 230.85,1054.64 L 230.85,1054.67 L 230.83,1054.72 L 230.81,1054.73 L 230.80,1054.74 L 230.78,1054.75 L 230.75,1054.76 L 230.71,1054.76 L 230.69,1054.75 L 230.66,1054.75 L 230.44,1054.67 L 230.34,1054.65 L 230.32,1054.63 L 230.31,1054.61 L 230.31,1054.60 L 230.31,1054.56 L 230.36,1054.47 L 230.37,1054.43 L 230.37,1054.40 L 230.35,1054.37 L 230.34,1054.35 L 230.31,1054.34 L 230.26,1054.34 L 230.09,1054.40 L 229.94,1054.42 L 229.84,1054.40 L 229.75,1054.37 L 229.69,1054.36 L 229.66,1054.38 L 229.64,1054.40 L 229.64,1054.43 L 229.66,1054.49 L 229.69,1054.56 L 229.69,1054.60 L 229.68,1054.64 L 229.60,1054.76 L 229.51,1054.84 L 229.45,1054.87 L 229.41,1054.86 L 229.40,1054.86 L 229.39,1054.85 L 229.38,1054.84 L 229.37,1054.84 L 229.37,1054.83 L 229.36,1054.82 L 229.35,1054.81 L 229.34,1054.80 L 229.34,1054.80 L 229.33,1054.79 L 229.32,1054.78 L 229.32,1054.77 L 229.31,1054.76 L 229.31,1054.75 L 229.30,1054.75 L 229.29,1054.74 L 229.29,1054.73 L 229.28,1054.73 L 229.27,1054.72 L 229.26,1054.72 L 229.25,1054.72 L 229.24,1054.71 L 229.24,1054.71 L 229.23,1054.71 L 229.22,1054.71 L 229.21,1054.70 L 229.20,1054.70 L 229.19,1054.70 L 229.18,1054.70 L 229.16,1054.71 L 229.14,1054.71 L 229.09,1054.71 L 229.07,1054.71 L 229.05,1054.71 L 229.03,1054.71 L 229.01,1054.71 L 228.99,1054.71 L 228.98,1054.71 L 228.97,1054.71 L 228.95,1054.71 L 228.93,1054.71 L 228.91,1054.71 L 228.89,1054.71 L 228.87,1054.72 L 228.85,1054.72 L 228.82,1054.72 L 228.74,1054.74 L 228.68,1054.73 L 228.67,1054.70 L 228.66,1054.66 L 228.68,1054.60 L 228.75,1054.53 L 228.80,1054.45 L 228.82,1054.41 L 228.80,1054.35 L 228.76,1054.30 L 228.71,1054.28 L 228.61,1054.21 L 228.47,1054.06 L 228.41,1054.01 L 228.36,1054.01 L 228.32,1054.04 L 228.31,1054.08 L 228.32,1054.17 L 228.32,1054.22 L 228.31,1054.30 L 228.26,1054.37 L 228.18,1054.41 L 228.09,1054.44 L 228.01,1054.52 L 228.00,1054.53 L 227.94,1054.60 L 227.90,1054.61 L 227.86,1054.59 L 227.82,1054.53 L 227.76,1054.45 L 227.69,1054.41 L 227.62,1054.40 L 227.56,1054.40 L 227.49,1054.44 L 227.33,1054.55 L 227.25,1054.59 L 227.20,1054.59 L 227.16,1054.56 L 227.14,1054.51 L 227.14,1054.45 L 227.15,1054.39 L 227.16,1054.28 L 227.14,1054.16 L 227.09,1054.06 L 227.04,1054.02 L 227.00,1054.02 L 226.96,1054.03 L 226.91,1054.07 L 226.83,1054.13 L 226.77,1054.15 L 226.70,1054.14 L 226.60,1054.05 L 226.49,1053.98 L 226.36,1053.94 L 226.25,1053.88 L 226.20,1053.84 L 226.18,1053.83 L 226.17,1053.82 L 226.12,1053.80 L 226.09,1053.80 L 226.07,1053.83 L 226.06,1053.87 L 226.08,1053.97 L 226.08,1054.07 L 226.05,1054.10 L 226.00,1054.14 L 225.86,1054.12 L 225.71,1054.10 L 225.65,1054.12 L 225.56,1054.20 L 225.47,1054.26 L 225.41,1054.26 L 225.41,1054.26 L 225.36,1054.21 L 225.34,1054.15 L 225.36,1054.09 L 225.43,1053.92 L 225.41,1053.82 L 225.35,1053.75 L 225.28,1053.73 L 225.28,1053.74 L 225.24,1053.75 L 225.17,1053.83 L 225.10,1053.92 L 225.01,1053.96 L 224.95,1053.98 L 224.93,1053.98 L 224.79,1053.96 L 224.76,1053.96 L 224.60,1053.96 L 224.44,1053.93 L 224.37,1053.93 L 224.34,1053.94 L 224.32,1053.97 L 224.33,1054.02 L 224.36,1054.08 L 224.38,1054.15 L 224.38,1054.19 L 224.36,1054.23 L 224.29,1054.29 L 224.25,1054.32 L 224.23,1054.33 L 224.22,1054.35 L 224.21,1054.37 L 224.21,1054.38 L 224.20,1054.43 L 224.19,1054.46 L 224.18,1054.48 L 224.17,1054.50 L 224.16,1054.51 L 224.14,1054.52 L 224.12,1054.53 L 224.09,1054.53 L 224.07,1054.52 L 224.05,1054.51 L 224.03,1054.49 L 223.96,1054.43 L 223.94,1054.41 L 223.91,1054.40 L 223.89,1054.39 L 223.87,1054.39 L 223.85,1054.39 L 223.82,1054.39 L 223.80,1054.40 L 223.77,1054.42 L 223.74,1054.45 L 223.68,1054.52 L 223.62,1054.57 L 223.58,1054.60 L 223.54,1054.62 L 223.49,1054.64 L 223.41,1054.66 L 223.36,1054.66 L 223.33,1054.67 L 223.28,1054.67 L 223.25,1054.66 L 223.21,1054.65 L 223.18,1054.63 L 223.15,1054.61 L 223.13,1054.59 L 223.12,1054.55 L 223.11,1054.52 L 223.11,1054.48 L 223.12,1054.40 L 223.12,1054.35 L 223.11,1054.32 L 223.11,1054.30 L 223.10,1054.28 L 223.09,1054.25 L 223.07,1054.23 L 223.03,1054.18 L 222.94,1054.09 L 222.91,1054.05 L 222.87,1054.03 L 222.84,1054.02 L 222.81,1054.02 L 222.78,1054.03 L 222.77,1054.04 L 222.75,1054.06 L 222.74,1054.10 L 222.74,1054.14 L 222.74,1054.18 L 222.76,1054.22 L 222.79,1054.27 L 222.81,1054.34 L 222.82,1054.37 L 222.82,1054.43 L 222.80,1054.47 L 222.78,1054.51 L 222.75,1054.53 L 222.71,1054.55 L 222.68,1054.55 L 222.64,1054.54 L 222.61,1054.53 L 222.58,1054.51 L 222.57,1054.49 L 222.55,1054.46 L 222.53,1054.42 L 222.51,1054.38 L 222.48,1054.35 L 222.46,1054.33 L 222.43,1054.31 L 222.41,1054.29 L 222.37,1054.28 L 222.33,1054.27 L 222.29,1054.27 L 222.26,1054.26 L 222.24,1054.26 L 222.11,1054.25 L 222.01,1054.24 L 221.96,1054.23 L 221.91,1054.22 L 221.86,1054.22 L 221.81,1054.21 L 221.76,1054.20 L 221.72,1054.19 L 221.67,1054.19 L 221.62,1054.19 L 221.58,1054.19 L 221.54,1054.20 L 221.51,1054.21 L 221.49,1054.23 L 221.46,1054.24 L 221.42,1054.27 L 221.39,1054.28 L 221.37,1054.28 L 221.35,1054.28 L 221.33,1054.27 L 221.31,1054.26 L 221.29,1054.23 L 221.28,1054.21 L 221.28,1054.18 L 221.29,1054.16 L 221.30,1054.13 L 221.32,1054.09 L 221.35,1054.07 L 221.37,1054.05 L 221.39,1054.03 L 221.42,1054.00 L 221.45,1053.96 L 221.46,1053.94 L 221.47,1053.92 L 221.47,1053.89 L 221.46,1053.86 L 221.45,1053.84 L 221.44,1053.82 L 221.41,1053.80 L 221.39,1053.78 L 221.36,1053.77 L 221.31,1053.75 L 221.27,1053.74 L 221.23,1053.71 L 221.20,1053.69 L 221.17,1053.65 L 221.15,1053.61 L 221.13,1053.57 L 221.11,1053.53 L 221.10,1053.50 L 221.09,1053.47 L 221.09,1053.45 L 221.09,1053.42 L 221.09,1053.40 L 221.10,1053.36 L 221.12,1053.32 L 221.14,1053.30 L 221.15,1053.28 L 221.16,1053.25 L 221.16,1053.24 L 221.16,1053.22 L 221.16,1053.20 L 221.16,1053.18 L 221.15,1053.16 L 221.14,1053.14 L 221.12,1053.13 L 221.09,1053.12 L 221.07,1053.12 L 221.04,1053.12 L 221.01,1053.14 L 220.99,1053.16 L 220.97,1053.18 L 220.96,1053.21 L 220.96,1053.23 L 220.96,1053.27 L 220.96,1053.31 L 220.96,1053.36 L 220.96,1053.40 L 220.96,1053.42 L 220.95,1053.45 L 220.92,1053.49 L 220.90,1053.51 L 220.87,1053.54 L 220.83,1053.56 L 220.79,1053.57 L 220.74,1053.58 L 220.72,1053.58 L 220.67,1053.58 L 220.63,1053.58 L 220.60,1053.58 L 220.56,1053.59 L 220.54,1053.60 L 220.53,1053.62 L 220.51,1053.65 L 220.50,1053.68 L 220.50,1053.71 L 220.49,1053.74 L 220.49,1053.77 L 220.48,1053.81 L 220.47,1053.83 L 220.45,1053.85 L 220.43,1053.86 L 220.41,1053.88 L 220.38,1053.88 L 220.36,1053.88 L 220.33,1053.87 L 220.28,1053.85 L 220.26,1053.83 L 220.23,1053.80 L 220.22,1053.77 L 220.21,1053.74 L 220.20,1053.70 L 220.18,1053.67 L 220.16,1053.66 L 220.14,1053.64 L 220.11,1053.62 L 220.08,1053.61 L 220.04,1053.61 L 220.00,1053.61 L 219.96,1053.60 L 219.92,1053.60 L 219.89,1053.59 L 219.84,1053.58 L 219.81,1053.56 L 219.77,1053.54 L 219.71,1053.51 L 219.66,1053.48 L 219.62,1053.46 L 219.59,1053.45 L 219.55,1053.44 L 219.51,1053.44 L 219.46,1053.45 L 219.40,1053.45 L 219.37,1053.45 L 219.33,1053.44 L 219.30,1053.44 L 219.27,1053.42 L 219.23,1053.41 L 219.20,1053.39 L 219.18,1053.36 L 219.15,1053.33 L 219.14,1053.31 L 219.13,1053.28 L 219.12,1053.26 L 219.11,1053.21 L 219.09,1053.17 L 219.08,1053.12 L 219.07,1053.06 L 219.06,1053.03 L 219.05,1052.98 L 219.04,1052.94 L 219.03,1052.91 L 219.02,1052.88 L 219.01,1052.86 L 219.00,1052.84 L 218.98,1052.81 L 218.95,1052.77 L 218.94,1052.74 L 218.93,1052.70 L 218.92,1052.67 L 218.91,1052.64 L 218.91,1052.62 L 218.91,1052.58 L 218.91,1052.55 L 218.91,1052.51 L 218.92,1052.47 L 218.94,1052.43 L 218.95,1052.40 L 218.96,1052.37 L 218.96,1052.34 L 218.96,1052.32 L 218.96,1052.30 L 218.96,1052.27 L 218.96,1052.25 L 218.95,1052.23 L 218.94,1052.22 L 218.92,1052.19 L 218.88,1052.17 L 218.84,1052.15 L 218.82,1052.15 L 218.80,1052.16 L 218.77,1052.16 L 218.72,1052.17 L 218.68,1052.17 L 218.65,1052.16 L 218.62,1052.16 L 218.60,1052.15 L 218.57,1052.12 L 218.56,1052.10 L 218.54,1052.06 L 218.53,1052.03 L 218.52,1051.98 L 218.51,1051.93 L 218.50,1051.88 L 218.48,1051.81 L 218.47,1051.77 L 218.47,1051.75 L 218.46,1051.72 L 218.44,1051.70 L 218.43,1051.69 L 218.42,1051.69 L 218.40,1051.68 L 218.38,1051.68 L 218.35,1051.69 L 218.33,1051.70 L 218.31,1051.72 L 218.30,1051.74 L 218.29,1051.76 L 218.28,1051.80 L 218.27,1051.84 L 218.26,1051.88 L 218.25,1051.93 L 218.24,1051.98 L 218.23,1052.02 L 218.22,1052.05 L 218.21,1052.08 L 218.19,1052.12 L 218.17,1052.15 L 218.16,1052.17 L 218.14,1052.18 L 218.11,1052.20 L 218.08,1052.22 L 218.06,1052.25 L 218.04,1052.27 L 218.02,1052.31 L 218.00,1052.34 L 217.98,1052.37 L 217.98,1052.41 L 217.97,1052.44 L 217.97,1052.47 L 217.97,1052.51 L 217.97,1052.54 L 217.98,1052.58 L 217.99,1052.61 L 218.00,1052.64 L 218.02,1052.70 L 218.04,1052.74 L 218.06,1052.78 L 218.08,1052.84 L 218.10,1052.88 L 218.11,1052.93 L 218.12,1052.98 L 218.12,1053.01 L 218.12,1053.05 L 218.12,1053.08 L 218.11,1053.12 L 218.11,1053.15 L 218.09,1053.19 L 218.08,1053.25 L 218.06,1053.29 L 218.06,1053.34 L 218.06,1053.38 L 218.06,1053.42 L 218.06,1053.44 L 218.06,1053.47 L 218.07,1053.51 L 218.07,1053.54 L 218.06,1053.57 L 218.05,1053.61 L 218.03,1053.64 L 218.01,1053.67 L 218.00,1053.70 L 217.99,1053.71 L 217.98,1053.73 L 217.97,1053.75 L 217.96,1053.78 L 217.96,1053.81 L 217.97,1053.83 L 217.97,1053.85 L 217.99,1053.87 L 218.01,1053.90 L 218.04,1053.92 L 218.06,1053.94 L 218.09,1053.96 L 218.12,1053.98 L 218.14,1054.00 L 218.15,1054.02 L 218.18,1054.05 L 218.19,1054.08 L 218.22,1054.11 L 218.24,1054.15 L 218.24,1054.17 L 218.26,1054.21 L 218.29,1054.27 L 218.31,1054.31 L 218.33,1054.34 L 218.35,1054.39 L 218.36,1054.42 L 218.37,1054.45 L 218.37,1054.47 L 218.38,1054.49 L 218.38,1054.53 L 218.39,1054.57 L 218.40,1054.61 L 218.42,1054.64 L 218.44,1054.68 L 218.46,1054.72 L 218.49,1054.75 L 218.52,1054.78 L 218.54,1054.80 L 218.58,1054.82 L 218.62,1054.84 L 218.66,1054.86 L 218.71,1054.87 L 218.74,1054.89 L 218.77,1054.91 L 218.79,1054.93 L 218.83,1054.96 L 218.86,1054.99 L 218.89,1055.02 L 218.92,1055.05 L 218.95,1055.07 L 218.97,1055.09 L 219.00,1055.11 L 219.02,1055.13 L 219.05,1055.15 L 219.10,1055.19 L 219.20,1055.24 L 219.25,1055.27 L 219.30,1055.30 L 219.35,1055.34 L 219.40,1055.37 L 219.43,1055.39 L 219.45,1055.41 L 219.46,1055.43 L 219.47,1055.45 L 219.47,1055.48 L 219.47,1055.51 L 219.47,1055.54 L 219.46,1055.56 L 219.45,1055.58 L 219.44,1055.60 L 219.43,1055.62 L 219.41,1055.64 L 219.38,1055.67 L 219.35,1055.70 L 219.32,1055.72 L 219.30,1055.75 L 219.28,1055.78 L 219.26,1055.81 L 219.23,1055.86 L 219.22,1055.90 L 219.21,1055.93 L 219.20,1055.96 L 219.19,1056.01 L 219.18,1056.05 L 219.17,1056.11 L 219.17,1056.12 L 219.16,1056.15 L 219.16,1056.18 L 219.16,1056.22 L 219.16,1056.26 L 219.16,1056.27 L 219.16,1056.29 L 219.16,1056.31 L 219.17,1056.32 L 219.17,1056.34 L 219.18,1056.36 L 219.20,1056.37 L 219.21,1056.39 L 219.23,1056.40 L 219.26,1056.40 L 219.28,1056.40 L 219.30,1056.40 L 219.31,1056.39 L 219.33,1056.38 L 219.35,1056.37 L 219.38,1056.36 L 219.40,1056.34 L 219.44,1056.32 L 219.50,1056.28 L 219.52,1056.26 L 219.54,1056.24 L 219.57,1056.21 L 219.62,1056.18 L 219.66,1056.16 L 219.70,1056.14 L 219.73,1056.13 L 219.76,1056.12 L 219.80,1056.11 L 219.83,1056.11 L 219.85,1056.11 L 219.94,1056.12 L 219.95,1056.12 L 219.98,1056.13 L 220.02,1056.14 L 220.05,1056.16 L 220.08,1056.18 L 220.10,1056.22 L 220.11,1056.25 L 220.12,1056.28 L 220.12,1056.30 L 220.12,1056.32 L 220.12,1056.35 L 220.12,1056.37 L 220.11,1056.41 L 220.10,1056.45 L 220.09,1056.50 L 220.08,1056.54 L 220.07,1056.57 L 220.05,1056.61 L 220.04,1056.65 L 220.04,1056.67 L 220.03,1056.71 L 220.02,1056.74 L 220.02,1056.78 L 220.02,1056.85 L 220.01,1056.89 L 220.02,1056.94 L 220.02,1056.99 L 220.03,1057.03 L 220.05,1057.07 L 220.07,1057.12 L 220.09,1057.16 L 220.11,1057.19 L 220.14,1057.22 L 220.17,1057.25 L 220.19,1057.27 L 220.22,1057.29 L 220.24,1057.31 L 220.25,1057.32 L 220.25,1057.32 L 220.25,1057.33 L 220.25,1057.36 L 220.24,1057.41 L 220.23,1057.48 L 220.22,1057.51 L 220.22,1057.56 L 220.21,1057.62 L 220.21,1057.65 L 220.22,1057.68 L 220.22,1057.71 L 220.23,1057.75 L 220.26,1057.79 L 220.28,1057.83 L 220.31,1057.87 L 220.33,1057.89 L 220.36,1057.91 L 220.38,1057.93 L 220.40,1057.94 L 220.42,1057.96 L 220.43,1057.98 L 220.44,1057.99 L 220.43,1057.99 L 220.43,1058.00 L 220.43,1058.00 L 220.43,1058.02 L 220.42,1058.04 L 220.40,1058.07 L 220.40,1058.07 L 220.38,1058.09 L 220.35,1058.11 L 220.34,1058.12 L 220.33,1058.13 L 220.31,1058.14 L 220.30,1058.14 L 220.27,1058.15 L 220.26,1058.16 L 220.24,1058.16 L 220.22,1058.17 L 220.21,1058.17 L 220.19,1058.17 L 220.17,1058.17 L 220.16,1058.17 L 220.14,1058.16 L 220.13,1058.16 L 220.09,1058.15 L 220.06,1058.14 L 220.06,1058.14 L 220.03,1058.12 L 220.01,1058.11 L 219.99,1058.10 L 219.98,1058.09 L 219.97,1058.09 L 219.96,1058.08 L 219.95,1058.08 L 219.95,1058.08 L 219.93,1058.09 L 219.91,1058.11 L 219.89,1058.13 L 219.88,1058.15 L 219.87,1058.17 L 219.87,1058.21 L 219.87,1058.25 L 219.87,1058.26 L 219.88,1058.28 L 219.89,1058.32 L 219.90,1058.37 L 219.92,1058.41 L 219.93,1058.44 L 219.95,1058.47 L 219.97,1058.50 L 220.00,1058.53 L 220.02,1058.55 L 220.04,1058.56 L 220.06,1058.57 L 220.07,1058.58 L 220.08,1058.60 L 220.08,1058.61 L 220.08,1058.62 L 220.07,1058.62 L 220.06,1058.64 L 220.04,1058.68 L 220.01,1058.72 L 219.97,1058.77 L 219.93,1058.82 L 219.91,1058.84 L 219.89,1058.85 L 219.89,1058.85 L 219.84,1058.89 L 219.81,1058.92 L 219.78,1058.93 L 219.77,1058.93 L 219.75,1058.94 L 219.72,1058.94 L 219.70,1058.95 L 219.68,1058.96 L 219.67,1058.96 L 219.66,1058.97 L 219.65,1058.98 L 219.64,1059.00 L 219.64,1059.00 L 219.64,1059.02 L 219.63,1059.06 L 219.63,1059.09 L 219.63,1059.13 L 219.63,1059.16 L 219.64,1059.18 L 219.66,1059.20 L 219.68,1059.23 L 219.71,1059.26 L 219.71,1059.27 L 219.71,1059.28 L 219.71,1059.28 L 219.71,1059.30 L 219.71,1059.30 L 219.70,1059.34 L 219.68,1059.37 L 219.66,1059.41 L 219.65,1059.43 L 219.63,1059.45 L 219.61,1059.46 L 219.59,1059.46 L 219.58,1059.46 L 219.57,1059.46 L 219.56,1059.45 L 219.53,1059.43 L 219.49,1059.41 L 219.45,1059.37 L 219.41,1059.33 L 219.39,1059.31 L 219.38,1059.29 L 219.37,1059.26 L 219.36,1059.24 L 219.35,1059.22 L 219.35,1059.21 L 219.34,1059.19 L 219.33,1059.18 L 219.32,1059.18 L 219.30,1059.18 L 219.29,1059.18 L 219.26,1059.18 L 219.23,1059.20 L 219.20,1059.22 L 219.16,1059.24 L 219.15,1059.24 L 219.13,1059.26 L 219.11,1059.28 L 219.10,1059.29 L 219.10,1059.31 L 219.10,1059.33 L 219.09,1059.35 L 219.09,1059.37 L 219.08,1059.38 L 219.06,1059.39 L 219.05,1059.39 L 219.03,1059.39 L 219.00,1059.37 L 218.96,1059.35 L 218.93,1059.33 L 218.91,1059.31 L 218.90,1059.29 L 218.89,1059.28 L 218.88,1059.27 L 218.85,1059.24 L 218.82,1059.22 L 218.80,1059.21 L 218.79,1059.20 L 218.78,1059.21 L 218.77,1059.21 L 218.76,1059.21 L 218.74,1059.23 L 218.72,1059.25 L 218.70,1059.28 L 218.69,1059.30 L 218.68,1059.33 L 218.67,1059.36 L 218.66,1059.40 L 218.66,1059.44 L 218.65,1059.47 L 218.65,1059.49 L 218.64,1059.51 L 218.64,1059.53 L 218.64,1059.56 L 218.64,1059.58 L 218.65,1059.60 L 218.65,1059.61 L 218.66,1059.63 L 218.66,1059.64 L 218.67,1059.66 L 218.67,1059.67 L 218.67,1059.69 L 218.66,1059.71 L 218.66,1059.75 L 218.66,1059.77 L 218.66,1059.82 L 218.65,1059.84 L 218.65,1059.88 L 218.65,1059.90 L 218.64,1059.91 L 218.64,1059.93 L 218.63,1059.95 L 218.61,1059.96 L 218.60,1059.97 L 218.59,1059.98 L 218.58,1059.99 L 218.57,1060.02 L 218.56,1060.04 L 218.55,1060.05 L 218.55,1060.06 L 218.54,1060.08 L 218.53,1060.09 L 218.52,1060.11 L 218.51,1060.11 L 218.50,1060.12 L 218.49,1060.12 L 218.47,1060.12 L 218.46,1060.12 L 218.45,1060.13 L 218.43,1060.13 L 218.42,1060.13 L 218.41,1060.14 L 218.41,1060.16 L 218.41,1060.17 L 218.41,1060.18 L 218.41,1060.18 L 218.41,1060.21 L 218.42,1060.23 L 218.43,1060.24 L 218.43,1060.25 L 218.44,1060.26 L 218.44,1060.27 L 218.45,1060.28 L 218.45,1060.30 L 218.44,1060.32 L 218.44,1060.34 L 218.44,1060.36 L 218.44,1060.38 L 218.44,1060.39 L 218.44,1060.40 L 218.43,1060.42 L 218.42,1060.44 L 218.42,1060.47 L 218.42,1060.49 L 218.42,1060.50 L 218.42,1060.50 L 218.43,1060.51 L 218.43,1060.51 L 218.43,1060.51 L 218.45,1060.51 L 218.45,1060.51 L 218.46,1060.52 L 218.47,1060.52 L 218.48,1060.53 L 218.49,1060.55 L 218.50,1060.57 L 218.51,1060.59 L 218.51,1060.61 L 218.51,1060.63 L 218.51,1060.65 L 218.50,1060.67 L 218.48,1060.70 L 218.46,1060.72 L 218.46,1060.73 L 218.44,1060.74 L 218.43,1060.76 L 218.41,1060.78 L 218.40,1060.79 L 218.39,1060.80 L 218.38,1060.82 L 218.37,1060.83 L 218.36,1060.84 L 218.35,1060.85 L 218.35,1060.87 L 218.34,1060.90 L 218.34,1060.92 L 218.34,1060.95 L 218.35,1060.96 L 218.34,1060.98 L 218.34,1061.00 L 218.34,1061.04 L 218.33,1061.09 L 218.33,1061.13 L 218.33,1061.16 L 218.32,1061.19 L 218.32,1061.21 L 218.32,1061.23 L 218.31,1061.26 L 218.31,1061.28 L 218.30,1061.31 L 218.28,1061.35 L 218.27,1061.38 L 218.26,1061.41 L 218.26,1061.44 L 218.25,1061.48 L 218.26,1061.52 L 218.26,1061.56 L 218.27,1061.59 L 218.26,1061.63 L 218.26,1061.67 L 218.25,1061.71 L 218.24,1061.76 L 218.24,1061.80 L 218.24,1061.83 L 218.25,1061.85 L 218.25,1061.87 L 218.26,1061.89 L 218.26,1061.91 L 218.25,1061.93 L 218.25,1061.96 L 218.25,1061.99 L 218.25,1062.04 L 218.25,1062.09 L 218.25,1062.13 L 218.26,1062.15 L 218.27,1062.17 L 218.27,1062.20 L 218.27,1062.23 L 218.28,1062.26 L 218.29,1062.29 L 218.29,1062.31 L 218.29,1062.34 L 218.30,1062.36 L 218.30,1062.38 L 218.30,1062.41 L 218.30,1062.43 L 218.30,1062.45 L 218.31,1062.48 L 218.31,1062.51 L 218.33,1062.63 L 218.34,1062.69 L 218.35,1062.73 L 218.36,1062.80 L 218.36,1062.84 L 218.36,1062.86 L 218.37,1062.90 L 218.37,1062.94 L 218.38,1063.01 L 218.39,1063.05 L 218.41,1063.12 L 218.41,1063.19 L 218.42,1063.22 L 218.43,1063.29 L 218.44,1063.33 L 218.45,1063.37 L 218.46,1063.40 L 218.47,1063.44 L 218.49,1063.47 L 218.51,1063.48 L 218.53,1063.51 L 218.55,1063.52 L 218.56,1063.54 L 218.59,1063.56 L 218.60,1063.58 L 218.62,1063.61 L 218.64,1063.63 L 218.66,1063.64 L 218.67,1063.66 L 218.69,1063.68 L 218.71,1063.70 L 218.73,1063.72 L 218.75,1063.74 L 218.76,1063.76 L 218.78,1063.78 L 218.80,1063.80 L 218.82,1063.82 L 218.84,1063.84 L 218.85,1063.86 L 218.87,1063.89 L 218.88,1063.91 L 218.88,1063.93 L 218.89,1063.94 L 218.90,1063.95 L 218.92,1063.96 L 218.92,1063.97 L 218.93,1063.98 L 218.93,1063.99 L 218.94,1064.00 L 218.95,1064.02 L 218.95,1064.03 L 218.95,1064.04 L 218.95,1064.05 L 218.95,1064.06 L 218.96,1064.07 L 218.96,1064.08 L 218.97,1064.09 L 218.97,1064.10 L 218.98,1064.12 L 218.99,1064.12 L 218.99,1064.13 L 219.01,1064.15 L 219.02,1064.16 L 219.03,1064.17 L 219.04,1064.18 L 219.04,1064.18 L 219.05,1064.19 L 219.07,1064.19 L 219.08,1064.19 L 219.09,1064.20 L 219.11,1064.20 L 219.13,1064.19 L 219.14,1064.19 L 219.14,1064.19 L 219.14,1064.20 L 219.15,1064.20 L 219.15,1064.20 L 219.15,1064.20 L 219.16,1064.20 L 219.16,1064.21 L 219.17,1064.21 L 219.18,1064.22 L 219.19,1064.23 L 219.20,1064.24 L 219.21,1064.24 L 219.21,1064.25 L 219.21,1064.25 L 219.22,1064.25 L 219.22,1064.25 L 219.22,1064.26 L 219.22,1064.26 L 219.23,1064.27 L 219.23,1064.28 L 219.23,1064.28 L 219.23,1064.29 L 219.23,1064.29 L 219.23,1064.30 L 219.23,1064.30 L 219.23,1064.31 L 219.24,1064.32 L 219.25,1064.33 L 219.26,1064.34 L 219.27,1064.34 L 219.29,1064.35 L 219.30,1064.35 L 219.32,1064.36 L 219.33,1064.37 L 219.34,1064.38 L 219.34,1064.38 L 219.35,1064.39 L 219.35,1064.40 L 219.35,1064.42 L 219.35,1064.44 L 219.35,1064.46 L 219.35,1064.48 L 219.35,1064.49 L 219.35,1064.51 L 219.35,1064.52 L 219.35,1064.54 L 219.34,1064.56 L 219.34,1064.57 L 219.34,1064.59 L 219.34,1064.62 L 219.34,1064.64 L 219.34,1064.65 L 219.35,1064.66 L 219.35,1064.66 L 219.36,1064.67 L 219.36,1064.69 L 219.37,1064.70 L 219.37,1064.71 L 219.37,1064.72 L 219.37,1064.73 L 219.37,1064.75 L 219.37,1064.76 L 219.36,1064.77 L 219.36,1064.78 L 219.37,1064.80 L 219.37,1064.81 L 219.37,1064.82 L 219.37,1064.83 L 219.37,1064.84 L 219.37,1064.85 L 219.37,1064.87 L 219.37,1064.88 L 219.37,1064.90 L 219.37,1064.92 L 219.37,1064.93 L 219.38,1064.94 L 219.38,1064.95 L 219.39,1064.97 L 219.40,1064.98 L 219.41,1065.00 L 219.42,1065.01 L 219.43,1065.03 L 219.44,1065.06 L 219.45,1065.08 L 219.45,1065.10 L 219.57,1065.44 L 219.58,1065.46 L 219.59,1065.49 L 219.60,1065.51 L 219.60,1065.53 L 219.61,1065.54 L 219.61,1065.56 L 219.62,1065.59 L 219.62,1065.62 L 219.63,1065.65 L 219.64,1065.67 L 219.64,1065.70 L 219.65,1065.72 L 219.67,1065.77 L 219.68,1065.81 L 219.69,1065.85 L 219.70,1065.88 L 219.71,1065.91 L 219.83,1066.29 L 219.59,1066.29 L 219.60,1066.25 L 219.44,1066.24 L 219.44,1066.17 L 219.41,1066.17 L 219.41,1066.15 L 219.28,1066.14 L 219.28,1066.11 L 219.17,1066.11 L 219.11,1066.07 L 219.16,1065.98 L 219.13,1065.95 L 219.07,1065.92 L 219.05,1065.97 L 219.00,1065.94 L 218.78,1065.87 L 218.76,1065.92 L 218.64,1065.87 L 218.65,1065.86 L 218.62,1065.84 L 218.62,1065.84 L 218.62,1065.85 L 218.61,1065.85 L 218.61,1065.85 L 218.61,1065.85 L 218.61,1065.86 L 218.56,1065.83 L 218.45,1066.01 L 218.38,1065.97 L 218.35,1065.95 L 218.27,1065.90 L 218.19,1065.85 L 218.17,1065.84 L 218.14,1065.81 L 218.11,1065.79 L 218.05,1065.76 L 218.02,1065.74 L 217.94,1065.68 L 217.84,1065.62 L 217.77,1065.58 L 217.74,1065.56 L 217.70,1065.53 L 217.49,1065.39 L 217.32,1065.61 L 217.26,1065.55 L 217.24,1065.57 L 217.14,1065.54 L 217.04,1065.51 L 216.94,1065.47 L 216.84,1065.44 L 216.74,1065.41 L 216.61,1065.37 L 216.61,1065.37 L 216.48,1065.29 L 216.37,1065.22 L 216.26,1065.15 L 216.03,1065.00 L 215.80,1064.85 L 215.57,1064.71 L 215.11,1064.42 L 214.65,1064.12 L 214.62,1064.10 L 214.26,1063.87 L 214.19,1063.82 L 213.84,1063.60 L 213.69,1063.51 L 213.66,1063.49 L 213.62,1063.46 L 213.59,1063.44 L 213.55,1063.42 L 213.52,1063.40 L 213.48,1063.37 L 213.41,1063.33 L 213.35,1063.29 L 213.28,1063.24 L 213.21,1063.20 L 213.15,1063.16 L 212.74,1062.90 L 212.58,1062.79 L 212.57,1062.79 L 212.57,1062.79 L 212.56,1062.78 L 212.56,1062.78 L 212.55,1062.78 L 212.54,1062.77 L 212.53,1062.77 L 212.53,1062.76 L 212.52,1062.76 L 212.51,1062.75 L 212.51,1062.75 L 212.50,1062.74 L 212.50,1062.74 L 212.49,1062.73 L 212.48,1062.73 L 212.45,1062.71 L 212.41,1062.68 L 212.38,1062.66 L 212.34,1062.64 L 212.31,1062.62 L 212.09,1062.48 L 212.06,1062.46 L 211.95,1062.39 L 211.83,1062.32 L 211.72,1062.25 L 211.61,1062.18 L 211.50,1062.11 L 211.38,1062.03 L 211.05,1061.82 L 210.72,1061.61 L 210.52,1061.49 L 210.33,1061.36 L 210.13,1061.23 L 209.92,1061.11 L 209.72,1060.98 L 209.51,1060.85 L 209.51,1060.85 L 208.02,1059.98 L 207.99,1059.96 L 207.32,1059.53 L 206.65,1059.10 L 206.35,1058.94 L 206.05,1058.76 L 205.64,1058.49 L 205.61,1058.47 L 204.98,1058.09 L 204.96,1058.07 L 204.94,1058.06 L 204.91,1058.05 L 204.89,1058.04 L 204.86,1058.03 L 204.84,1058.01 L 204.82,1058.00 L 204.80,1057.99 L 204.77,1057.97 L 204.74,1057.95 L 204.72,1057.94 L 204.69,1057.92 L 204.65,1057.90 L 204.62,1057.88 L 204.58,1057.86 L 204.54,1057.83 L 204.45,1057.78 L 204.37,1057.73 L 204.28,1057.68 L 204.20,1057.62 L 204.11,1057.57 L 204.02,1057.52 L 203.94,1057.47 L 203.90,1057.44 L 203.85,1057.41 L 203.81,1057.39 L 203.77,1057.36 L 203.73,1057.34 L 203.69,1057.31 L 203.65,1057.29 L 203.61,1057.26 L 203.33,1057.09 L 203.05,1056.92 L 202.76,1056.74 L 202.48,1056.57 L 202.20,1056.40 L 201.92,1056.22 L 201.89,1056.34 L 201.85,1056.46 L 201.82,1056.58 L 201.78,1056.70 L 201.77,1056.74 L 201.76,1056.77 L 201.75,1056.79 L 201.74,1056.82 L 201.73,1056.85 L 201.72,1056.87 L 201.71,1056.90 L 201.70,1056.92 L 201.69,1056.95 L 201.68,1056.97 L 201.67,1056.99 L 201.66,1057.01 L 201.65,1057.03 L 201.64,1057.05 L 201.62,1057.09 L 201.62,1057.10 L 201.61,1057.12 L 201.60,1057.13 L 201.59,1057.14 L 201.58,1057.15 L 201.58,1057.17 L 201.56,1057.19 L 201.56,1057.19 L 201.55,1057.20 L 201.54,1057.21 L 201.54,1057.22 L 201.53,1057.22 L 201.52,1057.23 L 201.52,1057.24 L 201.51,1057.24 L 201.50,1057.25 L 201.49,1057.26 L 201.48,1057.26 L 201.48,1057.27 L 201.47,1057.28 L 201.46,1057.28 L 201.44,1057.29 L 201.33,1057.35 L 201.33,1057.34 L 201.32,1057.33 L 201.32,1057.32 L 201.31,1057.31 L 201.30,1057.30 L 201.29,1057.30 L 201.29,1057.29 L 201.28,1057.28 L 201.27,1057.27 L 201.26,1057.27 L 201.25,1057.26 L 201.24,1057.26 L 201.23,1057.25 L 201.22,1057.25 L 201.21,1057.24 L 201.20,1057.24 L 201.19,1057.24 L 201.18,1057.23 L 201.17,1057.23 L 201.15,1057.23 L 201.12,1057.22 L 201.10,1057.22 L 201.08,1057.22 L 201.05,1057.22 L 201.03,1057.22 L 201.01,1057.21 L 200.99,1057.21 L 200.98,1057.21 L 200.96,1057.21 L 200.94,1057.21 L 200.92,1057.21 L 200.90,1057.21 L 200.89,1057.20 L 200.87,1057.20 L 200.85,1057.20 L 200.83,1057.19 L 200.81,1057.19 L 200.79,1057.18 L 200.78,1057.18 L 200.76,1057.17 L 200.74,1057.16 L 200.72,1057.16 L 200.70,1057.15 L 200.68,1057.14 L 200.66,1057.14 L 200.65,1057.13 L 200.63,1057.12 L 200.60,1057.11 L 200.57,1057.09 L 200.54,1057.08 L 200.51,1057.06 L 200.48,1057.05 L 200.45,1057.03 L 200.42,1057.02 L 200.39,1057.00 L 200.36,1056.98 L 200.33,1056.96 L 200.30,1056.94 L 200.27,1056.93 L 200.24,1056.91 L 200.21,1056.89 L 200.18,1056.86 L 200.15,1056.84 L 200.12,1056.82 L 200.09,1056.79 L 200.05,1056.77 L 200.02,1056.74 L 199.99,1056.71 L 199.95,1056.69 L 199.92,1056.66 L 199.89,1056.63 L 199.87,1056.61 L 199.85,1056.60 L 199.83,1056.58 L 199.81,1056.56 L 199.80,1056.54 L 199.78,1056.52 L 199.76,1056.51 L 199.74,1056.48 L 199.73,1056.46 L 199.71,1056.44 L 199.69,1056.42 L 199.68,1056.40 L 199.66,1056.38 L 199.61,1056.44 L 199.57,1056.50 L 199.52,1056.56 L 199.50,1056.60 L 199.45,1056.66 L 199.43,1056.69 L 199.40,1056.72 L 199.38,1056.75 L 199.35,1056.79 L 199.33,1056.82 L 199.28,1056.89 L 199.22,1056.98 L 199.15,1057.07 L 199.08,1057.15 L 198.99,1057.29 L 198.89,1057.43 L 198.79,1057.57 L 198.69,1057.70 L 198.69,1057.70 L 198.69,1057.71 L 198.68,1057.71 L 198.68,1057.71 L 198.68,1057.71 L 198.68,1057.70 L 198.68,1057.70 L 198.57,1057.60 L 198.47,1057.50 L 198.36,1057.40 L 198.26,1057.29 L 198.15,1057.19 L 198.05,1057.09 L 197.95,1056.98 L 197.85,1056.88 L 197.74,1056.77 L 197.64,1056.67 L 197.53,1056.57 L 197.43,1056.46 L 197.32,1056.36 L 197.22,1056.25 L 197.12,1056.15 L 197.02,1056.06 L 197.01,1056.07 L 196.96,1056.16 L 196.91,1056.27 L 196.80,1056.49 L 196.68,1056.70 L 196.57,1056.92 L 196.49,1057.08 L 196.41,1057.23 L 196.33,1057.39 L 196.25,1057.54 L 196.18,1057.69 L 196.10,1057.84 L 195.64,1058.74 L 195.41,1059.19 L 195.35,1059.30 L 195.30,1059.41 L 195.24,1059.52 L 195.18,1059.64 L 195.14,1059.71 L 195.11,1059.78 L 195.07,1059.85 L 195.03,1059.92 L 194.99,1059.88 L 194.96,1059.84 L 194.94,1059.82 L 194.92,1059.80 L 194.89,1059.77 L 194.87,1059.75 L 194.85,1059.73 L 194.83,1059.71 L 194.81,1059.69 L 194.79,1059.67 L 194.77,1059.65 L 194.75,1059.62 L 194.73,1059.60 L 194.71,1059.58 L 194.68,1059.56 L 194.65,1059.53 L 194.62,1059.50 L 194.59,1059.48 L 194.57,1059.45 L 194.54,1059.42 L 194.51,1059.40 L 194.48,1059.38 L 194.45,1059.35 L 194.38,1059.30 L 194.31,1059.24 L 194.26,1059.20 L 194.21,1059.16 L 194.16,1059.12 L 194.13,1059.10 L 194.11,1059.08 L 194.08,1059.06 L 194.05,1059.04 L 194.02,1059.02 L 193.99,1058.99 L 193.97,1058.97 L 193.94,1058.94 L 193.88,1058.90 L 193.83,1058.85 L 193.77,1058.80 L 193.71,1058.75 L 193.68,1058.72 L 193.66,1058.70 L 193.63,1058.68 L 193.60,1058.65 L 193.58,1058.63 L 193.56,1058.60 L 193.53,1058.58 L 193.51,1058.55 L 193.49,1058.53 L 193.47,1058.50 L 193.44,1058.48 L 193.42,1058.45 L 193.40,1058.42 L 193.38,1058.40 L 193.36,1058.37 L 193.35,1058.35 L 193.34,1058.34 L 193.33,1058.33 L 193.32,1058.32 L 193.31,1058.31 L 193.30,1058.30 L 193.28,1058.29 L 193.27,1058.27 L 193.27,1058.26 L 193.25,1058.25 L 193.24,1058.23 L 193.23,1058.22 L 193.22,1058.21 L 193.22,1058.20 L 193.21,1058.19 L 193.20,1058.18 L 193.20,1058.16 L 193.19,1058.15 L 193.18,1058.14 L 193.18,1058.13 L 193.17,1058.11 L 193.16,1058.10 L 193.15,1058.08 L 193.14,1058.06 L 193.12,1058.04 L 193.11,1058.02 L 193.09,1058.00 L 193.08,1057.98 L 193.06,1057.96 L 193.05,1057.93 L 193.03,1057.91 L 193.03,1057.90 L 193.03,1057.90 L 193.02,1057.90 L 193.02,1057.89 L 193.02,1057.89 L 193.01,1057.89 L 192.97,1057.88 L 192.94,1057.87 L 192.91,1057.85 L 192.87,1057.84 L 192.83,1057.83 L 192.80,1057.82 L 192.76,1057.81 L 192.75,1057.81 L 192.73,1057.80 L 192.72,1057.80 L 192.71,1057.80 L 192.69,1057.80 L 192.68,1057.80 L 192.67,1057.79 L 192.66,1057.79 L 192.65,1057.79 L 192.63,1057.79 L 192.62,1057.78 L 192.61,1057.81 L 192.61,1057.81 L 192.61,1057.81 L 192.61,1057.81 L 192.60,1057.82 L 192.60,1057.82 L 192.60,1057.82 L 192.60,1057.82 L 192.59,1057.82 L 192.58,1057.82 L 192.57,1057.82 L 192.56,1057.82 L 192.55,1057.82 L 192.54,1057.82 L 192.52,1057.82 L 192.51,1057.81 Z" fill="#E5E7EB" stroke="#374151" stroke-width="1" fill-rule="evenodd"/>
</svg>