<?xml version="1.0" encoding="UTF-8"?>
<!DOCTYPE svg PUBLIC "-//W3C//DTD SVG 1.1//EN" "http://www.w3.org/Graphics/SVG/1.1/DTD/svg11.dtd">
<!-- Creator: CorelDRAW 2021 (64-Bit) -->
<svg xmlns="http://www.w3.org/2000/svg" xml:space="preserve" width="0.47752in" height="0.43752in" version="1.1" shape-rendering="geometricPrecision" text-rendering="geometricPrecision" image-rendering="optimizeQuality" fill-rule="evenodd" clip-rule="evenodd"
viewBox="0 0 77.1 70.64"
 xmlns:xlink="http://www.w3.org/1999/xlink"
 xmlns:xodm="http://www.corel.com/coreldraw/odm/2003">
 <g id="Layer_x0020_1">
  <metadata id="CorelCorpID_0Corel-Layer"/>
  <path fill="none" fill-rule="nonzero" stroke="#336666" stroke-width="0.48" stroke-miterlimit="2.61313" d="M54.83 8.11c-0.01,-1.71 -0.06,-3.53 -0.07,-5.35 -0.28,-0.3 -0.56,-0.71 -0.85,-1.01 -0.37,0.2 -0.79,0.2 -1.17,0.3 -1.08,0 -2.25,0 -3.32,0 -0.98,0 -2.01,-0.3 -3,-0.61 -0.42,0.2 -0.84,0.3 -1.17,0.41 -1.12,0 -1.73,-0.52 -2.85,-0.42 -0.14,-0.1 -0.28,-0.2 -0.42,-0.4 -0.42,0 -0.84,0 -1.17,0 -0.42,-0.81 -1.37,-0.79 -2.35,-0.79 -0.75,0.51 -1.16,1.72 -1.11,2.93 0.42,0.71 0.8,1.21 1.18,1.82 0.33,0.4 0.66,0.71 1.03,0.91 0,0.1 0,0.2 0,0.2 -0.33,0.3 -0.65,0.61 -0.98,0.91 -0.19,0.61 -0.46,1.11 -0.7,1.72 -0.28,0.91 -0.51,1.92 -0.74,2.83 -0.14,0.2 -0.28,0.3 -0.42,0.4 -0.09,0.4 -0.23,0.71 -0.32,1.01 0,0.61 0,1.31 0.01,1.92 0.14,0.4 0.24,0.81 0.43,1.11l0 0.11c-0.15,-0.08 -0.27,-0.17 -0.38,-0.32 -0.14,0 -0.28,0 -0.42,0 -0.14,0.2 -0.28,0.3 -0.42,0.4 -0.28,0 -0.56,0 -0.75,0 -1.31,-0.71 -2.58,-1.31 -3.84,-1.92 -0.84,-0.7 -1.64,-1.41 -2.44,-2.22 -0.75,-0.2 -1.5,-0.5 -2.2,-0.7 -1.22,-0.81 -2.44,-1.61 -3.85,-2.62 -0.42,-0.4 -0.8,-0.81 -1.22,-1.11 -0.28,-0.1 -0.56,-0.2 -0.84,-0.4 -0.14,-0.1 -0.24,-0.3 -0.33,-0.5 -0.37,0.3 -0.7,0.61 -1.03,0.91 -1.36,0.1 -2.62,0.1 -3.93,0.1 -0.23,-0.1 -0.42,-0.2 -0.61,-0.4 -0.42,-0.3 -0.84,-0.6 -1.17,-0.91 -0.28,0.3 -0.56,0.61 -0.84,0.91 0,0.2 0,0.3 0.05,0.4 -0.42,1.11 -1.59,1.11 -2.99,0.61 -0.28,-0.2 -0.56,-0.3 -0.84,-0.5 -0.37,-0.1 -0.8,-0.2 -1.17,-0.4 0,0.4 0,0.61 0,0.91 0.14,1.01 0.29,1.92 0.48,2.83 -0.23,1.72 -0.46,3.43 -0.64,5.05 0.05,1.11 0.06,2.32 0.11,3.33 0.05,2.02 -0.31,4.24 -0.86,7.06 -0.28,1.41 -0.46,2.83 -0.69,4.24 -0.14,0.4 -0.28,0.91 -0.37,1.31 0.01,2.02 0.06,3.94 0.11,5.85 0.14,0.4 0.28,0.91 0.47,1.41 0,0.4 0,0.71 0,1.11 -0.14,0.2 -0.28,0.3 -0.42,0.4 0.05,2.32 0.11,4.44 0.16,6.66 -0.37,1.71 -0.69,3.33 -1.06,4.94 -0.37,1.41 0.06,2.52 0.48,4.14 0.84,0.2 1.73,0.4 2.58,0.61 0.65,0 1.31,-0 2.01,-0.1 0.23,-0.2 0.47,-0.4 0.75,-0.6 0.28,-0.2 0.56,-0.51 0.84,-0.71 0.14,0 0.33,0 0.56,0 0,0.4 0,0.91 0.01,1.31 -0.47,0 -0.89,0 -1.36,0 -0.42,0 -1.17,0.4 -1.59,1.31 -0.14,0.2 -0.28,0.3 -0.37,0.4 -0.84,0 -1.68,0 -2.57,0 -1.17,0.4 -1.58,1.61 -0.31,3.73 0.05,0.81 -0.37,1.21 -1.16,1.21 -0.14,0 -0.23,0 -0.38,0 -0.51,-0.1 -0.98,-0.2 -1.4,-0.4 -0.56,0 -1.12,0 -1.59,0.1 -1.22,0 -1.54,1.21 -0.73,3.84 0.43,1.11 3.05,1.82 6.65,2.83 1.78,0.2 3.74,0.2 5.94,0.2 0.75,0 1.59,0 2.34,0 1.36,-0.1 2.52,-0.4 3.32,-1.01 0.33,-0.2 0.75,-0.51 1.17,-0.71 1.96,-0.4 3.88,-0.81 5.89,-1.41 0.47,-0.2 1.03,-0.4 1.59,-0.71 0.33,-0.3 0.75,-0.71 1.17,-1.11 0.61,-0.4 1.16,-1.01 1.77,-1.62 0.32,-0.71 0.7,-1.51 1.11,-2.32 0.23,-0.4 0.51,-0.71 0.74,-1.01 0.47,-0.1 0.94,-0.2 1.45,-0.4 1.68,-1.21 3.45,-2.52 5.23,-3.84 0.28,-0.2 0.56,-0.3 0.84,-0.5 0.33,-0.2 0.75,-0.51 1.17,-0.81 0.93,-0.4 1.68,-1.51 2.42,-3.13 0.14,-0.3 0.28,-0.71 0.42,-1.01 0.09,-0.4 0.23,-0.81 0.37,-1.21 0.09,-0.3 0.23,-0.51 0.32,-0.81 0.14,-0.4 0.28,-0.91 0.42,-1.31 0.84,-1.51 1.58,-3.13 2.46,-4.74 -0.05,-0.38 -0.05,-0.94 -0.05,-1.51l0.19 0c-0,-1.21 0.93,-2.32 2.93,-3.54 0.79,-0.3 2.15,-0.71 3.27,-1.62 1.17,-0.71 1.59,-1.11 2.01,-1.11 0.23,0 0.47,0 0.75,-0.1 0.19,-0.1 0.37,-0.2 0.61,-0.4 0.14,0 0.28,0 0.42,0 0.19,-0.1 0.47,-0.2 0.75,-0.4 1.17,-0.4 2.01,-1.01 2.94,-1.82 0.37,0 0.8,-0 1.22,-0 0.09,0 0.23,-0.2 0.37,-0.4 0.28,0 0.56,0 0.84,0 0.47,-0.3 0.98,-0.61 1.54,-0.91 0.84,-0.2 1.73,-0.51 2.57,-0.71 1.49,-0.91 2.99,-1.72 4.53,-2.73 0.8,0 1.64,0 2.53,-0 0.14,-0.1 0.28,-0.3 0.42,-0.51 -0.05,-1.31 -0.1,-2.73 -0.11,-4.14 -0.14,-0.81 -0.29,-1.51 -0.43,-2.42 0.09,0 0.23,0 0.37,0 0.51,-0.61 1.07,-1.11 1.58,-1.82 0.37,-0.71 -0.01,-1.51 -1.27,-2.93 -0.7,0 -1.45,0 -2.15,0 -0.14,0.2 -0.23,0.4 -0.37,0.61 -0.14,0 -0.28,0 -0.38,0 -0.14,-0.2 -0.28,-0.51 -0.42,-0.81 -0.24,-0.5 -0.52,-1.01 -0.8,-1.41 -0.14,-0.1 -0.28,-0.2 -0.42,-0.4 -0.98,0.81 -1.96,1.31 -2.94,1.92 -1.17,0.2 -2.01,0.2 -3.42,-1.01 -0.38,-0.81 -1.97,-1.11 -4.17,-0.7 -0.56,0 -1.08,0 -1.59,0 -2.01,0 -3.42,-0.71 -3.47,-2.12 -0,-0.61 -0,-1.31 -0.01,-2.02 -0.19,-0.4 -0.33,-1.01 -0.47,-1.62zm-17.98 8.58l0 0.02c-0.14,0.2 -0.28,0.3 -0.37,0.4 -0.14,0.5 -0.28,0.91 -0.37,1.31 0.09,-0.5 0.23,-1.01 0.37,-1.51 0.1,-0.07 0.23,-0.14 0.37,-0.22zm4.69 22.19c0.34,0.02 0.68,0.03 1.03,0.03l-0.91 0 -0.12 -0.03zm1.29 0.03c0.5,0 0.83,0.02 1.2,0.19 -0.42,-0.03 -0.81,-0.11 -1.2,-0.19z"/>
 </g>
</svg>
