<?xml version="1.0" encoding="UTF-8"?>
<!DOCTYPE svg PUBLIC "-//W3C//DTD SVG 1.1//EN" "http://www.w3.org/Graphics/SVG/1.1/DTD/svg11.dtd">
<!-- Creator: CorelDRAW 2021 (64-Bit) -->
<svg xmlns="http://www.w3.org/2000/svg" xml:space="preserve" width="0.301173in" height="0.322453in" version="1.1" shape-rendering="geometricPrecision" text-rendering="geometricPrecision" image-rendering="optimizeQuality" fill-rule="evenodd" clip-rule="evenodd"
viewBox="0 0 44.77 47.93"
 xmlns:xlink="http://www.w3.org/1999/xlink"
 xmlns:xodm="http://www.corel.com/coreldraw/odm/2003">
 <g id="Layer_x0020_1">
  <metadata id="CorelCorpID_0Corel-Layer"/>
  <path fill="none" fill-rule="nonzero" stroke="#336666" stroke-width="0.45" stroke-miterlimit="2.61313" d="M21.02 20.01l-0 -0.18 -0.01 0 0 0.19 0 0 0 0.01 0 0.01 0 0.01 0 0.01 0 0.01 0 0.01 0 0 0 0.01 0 0.01 0 0.01 0 0 0 0 0 0.01 0 0.01 0 0.01 0 0.01 0 0.01 0 0.01 0 0 0 0 0 0.01 0 0.01 0 0.01 0 0 0 0.01 0 0.01 0 0.01 0 0.01 0 0 0 0.01 0 0.01 0 0.01 0 0.01 0 0.01 0 0.01 0 0.01 0 0.01 0 0.01 0 0 0 0.01 0 0 0 0.01 0 0 0 0 0 0 0 0c-0.22,-0.09 -0.39,-0.28 -0.56,-0.46l-0 -0.87 -0.01 0c-0.06,-0.08 -0.11,-0.16 -0.17,-0.24l-0.21 0c-0.13,-0.09 -0.26,-0.18 -0.39,-0.37 -0,-0.09 -0,-0.28 -0,-0.46 -0.26,-0.74 -0.52,-1.3 -0.83,-1.95 -0,-0.37 -0,-0.84 -0.01,-1.21 -0.13,-0.09 -0.26,-0.18 -0.43,-0.37 0,-0.09 -0,-0.18 0.04,-0.37 -0.17,0 -0.3,0 -0.43,0 -0.26,-0.28 -0.52,-0.55 -0.78,-0.74 -0,-0.47 -0,-0.93 -0,-1.4 -0.48,-0.37 -0.91,-0.74 -1.34,-1.29 -0.13,0 -0.26,0 -0.39,0 -0,-0.18 -0,-0.46 -0,-0.74 0.21,-0.47 0.47,-1.03 0.73,-1.68 0.17,-0.19 0.34,-0.37 0.51,-0.56 0.04,-0.65 0.04,-1.3 0.04,-2.05 0.08,-0 0.16,-0.01 0.25,-0.03l-0 -0.26c0.22,-0 0.49,-0.1 0.75,-0.1 0.04,-0.06 0.08,-0.11 0.12,-0.17 -0.04,-0.47 -0.05,-0.93 -0.05,-1.58l0.29 -0 -0 -0.45c-0.2,0.08 -0.42,0.16 -0.65,0.23l-0.11 0.05 -0.07 0c-0.48,0.14 -1.01,0.24 -1.57,0.28 -0.91,0.01 -1.77,0.01 -2.67,0.11 -1.34,-0.46 -2.5,-0.45 -2.89,-0.82 -0.39,-0.37 -1.17,-0.64 -2.16,-0.63 -0.13,-0.09 -0.26,-0.18 -0.39,-0.46 -0.26,-0.09 -0.52,-0.18 -0.73,-0.37 -0.16,-0.35 -0.27,-0.61 -0.33,-0.85 -0.12,0.16 -0.33,0.29 -0.66,0.39 -0.56,0.56 -1.12,1.12 -1.63,1.59 -0.56,0.28 -1.08,0.57 -1.55,0.76 -0.52,0.19 -1.08,0.47 -1.55,0.57 -0.34,0.19 -0.64,0.28 -0.95,0.38 0,0.28 0,0.37 0.05,0.46 0.35,0.46 0.74,0.83 1.12,1.2 0.13,0.56 0.26,1.21 0.44,1.76 0.13,0.19 0.26,0.46 0.39,0.74 0,1.21 0.01,2.32 0.06,3.44 0.39,0.55 0.78,1.11 1.17,1.57 0.17,0.28 0.35,0.37 0.56,0.46 0.13,0.28 0.3,0.56 0.48,0.83 0,0.37 0,0.65 -0.04,0.93 0.13,0.56 0.3,0.93 0.39,1.3 0.04,0.37 0,0.84 0,1.21 0.09,-0 0.26,-0 0.39,-0 0.13,0.28 0.26,0.37 0.39,0.46 0.13,-0 0.26,-0 0.39,-0.1 0.39,0.46 0.78,1.02 0.78,1.76 0,0.74 0,1.39 0.05,2.04 -0.05,0.06 -0.11,0.13 -0.16,0.21l0.01 0.18c0.13,0.19 0.27,0.29 0.4,0.38 0,0.48 0,0.87 0,1.16 0.14,0.19 0.27,0.29 0.4,0.38 0.63,0.77 1.04,1.35 1.4,1.34 0.18,-0 0.31,-0 0.45,-0 0,-0.1 -0,-0.39 -0,-0.58 0.13,-0.1 0.27,-0.2 0.4,-0.39 0.35,-1.45 1.16,-2.04 1.97,-1.46 0.31,-0 0.63,-0 0.99,-0.01 0,0.19 0,0.39 0,0.58 0.14,0.19 0.27,0.29 0.4,0.38 0.21,-0 0.42,-0.01 0.63,-0.02 0.03,0.04 0.06,0.08 0.1,0.12 0,0.19 -0.04,0.37 -0.04,0.47 0.17,-0.1 0.3,-0.1 0.43,-0.1 0.35,0.56 0.74,1.02 1.13,1.39 0,0.47 0,0.84 0.05,1.21 0.44,1.11 0.91,2.04 1.39,3.06 0,0.19 0,0.28 0,0.37 0.39,0.46 0.78,1.2 0.4,1.95 0,0.56 0,1.02 0.05,1.49 -0.13,0.47 -0.26,0.84 -0.34,1.21 0.09,-0 0.22,-0 0.34,-0 0.13,0.18 0.26,0.37 0.39,0.46 0,0.28 0,0.56 0.05,0.74 0,1.21 0.4,2.23 0.78,2.51 1.12,-0.01 1.94,0.45 2.33,1.19 0,0.19 0,0.28 0,0.37 -0.3,0.37 -0.56,0.65 -0.77,0.84 -0.26,0.47 -0.51,0.93 -0.73,1.4 0.05,0.93 0.05,1.3 0.44,1.67 0.39,0.74 1.12,1.11 2.55,0.73 0.73,-0.1 1.51,-0.48 2.28,-1.23 0.34,-0.37 0.9,-0.94 1.29,-0.94 1.16,-0.47 1.98,-0.11 3.15,1.19 1.38,1.01 2.89,1.93 4.01,1.92 0.6,-0 1.16,-0.1 1.77,-0.1 0.34,-0.1 0.73,-0.19 1.16,-0.47 0.22,-0 0.47,-0 0.73,-0 0.13,0.28 0.26,0.37 0.39,0.46 1,1.3 1.73,1.66 2.16,1.19 0.34,-0 0.73,-0.01 1.12,-0.01 -0,-0.56 -0,-1.12 -0.01,-1.77 0.09,-0.09 0.21,-0.28 0.34,-0.47 0.17,-0.19 0.3,-0.47 0.43,-0.75 -0.05,-0.93 -0.09,-1.95 -0.1,-2.98 0.13,-0.09 0.26,-0.28 0.39,-0.47 0.17,-0.19 0.39,-0.56 0.6,-0.93 0.08,-0.37 0.21,-0.74 0.38,-1.12 -0.05,-1.21 -0.05,-2.51 -0.01,-3.81 0.21,-0.37 0.47,-0.65 0.73,-0.94 -0.04,-0.19 -0.05,-0.46 -0.05,-0.74 0.13,-0.28 0.26,-0.56 0.38,-0.93 -0.05,-0.46 -0.05,-0.84 -0.05,-1.3 -0.39,-0.37 -0.78,-0.74 -1.12,-1.2 -0.13,-0.19 -0.26,-0.46 -0.39,-0.84 -0.22,-0.18 -0.43,-0.37 -0.61,-0.55 0.43,-0 0.86,-0.01 1.38,-0.01 0.47,-0.47 0.95,-1.03 1.46,-1.59 0.08,-0.47 0.26,-0.84 0.38,-1.31 -0.26,0 -0.52,0 -0.78,0.01 -0.65,-0.09 -1.29,-0.18 -1.9,-0.36 -2.93,0.11 -5.86,0.23 -8.7,0.34 -0.73,0.01 -1.12,-0.36 -1.17,-1.85 0,-0.09 -0,-0.19 -0,-0.37 -0.52,-0.46 -1.04,-1.02 -1.56,-1.66 -0.05,-0.65 -0.05,-1.39 -0.05,-2.23 -0.26,0 -0.52,0 -0.78,0.01 -0.34,0.56 -0.64,0.93 -0.94,1.22 -0.26,0.19 -0.52,0.28 -0.73,0.38 -0.3,0 -0.56,0 -0.78,0 -0.39,-0.46 -0.82,-0.92 -1.21,-1.48 -0.82,0.38 -1.68,0.57 -2.5,0.67 -0.26,-0.09 -0.52,-0.28 -0.78,-0.55 -0.13,-0.09 -0.35,-0.18 -0.48,-0.37 -0.26,0 -0.52,0 -0.73,0.1 -0.12,0.18 -0.25,0.27 -0.37,0.36z"/>
 </g>
</svg>
