<svg xmlns="http://www.w3.org/2000/svg" viewBox="0 0 800 1400">
  <path d="M 270.61,398.43 L 270.59,398.39 L 270.58,398.36 L 270.56,398.35 L 270.52,398.34 L 270.50,398.34 L 270.48,398.34 L 270.46,398.33 L 270.43,398.33 L 270.38,398.31 L 270.34,398.31 L 270.32,398.30 L 270.29,398.29 L 270.27,398.29 L 270.23,398.29 L 270.20,398.28 L 270.18,398.28 L 270.15,398.28 L 270.12,398.28 L 270.10,398.28 L 270.05,398.28 L 270.01,398.28 L 269.98,398.28 L 269.97,398.28 L 269.94,398.28 L 269.92,398.27 L 269.91,398.27 L 269.89,398.25 L 269.88,398.24 L 269.87,398.23 L 269.84,398.21 L 269.83,398.19 L 269.81,398.18 L 269.78,398.15 L 269.75,398.13 L 269.72,398.12 L 269.70,398.10 L 269.68,398.09 L 269.67,398.09 L 269.66,398.07 L 269.64,398.06 L 269.63,398.04 L 269.62,398.03 L 269.60,398.00 L 269.58,397.97 L 269.57,397.95 L 269.55,397.94 L 269.54,397.92 L 269.52,397.88 L 269.51,397.87 L 269.51,397.85 L 269.50,397.83 L 269.50,397.81 L 269.49,397.79 L 269.49,397.78 L 269.49,397.75 L 269.48,397.73 L 269.48,397.71 L 269.47,397.69 L 269.45,397.67 L 269.43,397.65 L 269.42,397.63 L 269.39,397.61 L 269.38,397.59 L 269.37,397.59 L 269.36,397.56 L 269.35,397.54 L 269.34,397.53 L 269.34,397.50 L 269.34,397.48 L 269.33,397.46 L 269.32,397.44 L 269.31,397.42 L 269.27,397.42 L 269.21,397.43 L 269.18,397.42 L 269.15,397.41 L 269.12,397.39 L 269.10,397.38 L 269.08,397.37 L 269.05,397.36 L 269.03,397.37 L 269.00,397.38 L 268.99,397.39 L 268.96,397.41 L 268.93,397.44 L 268.90,397.49 L 268.88,397.52 L 268.86,397.56 L 268.84,397.59 L 268.82,397.60 L 268.79,397.61 L 268.77,397.61 L 268.73,397.60 L 268.69,397.59 L 268.66,397.59 L 268.66,397.59 L 268.64,397.57 L 268.60,397.54 L 268.57,397.51 L 268.54,397.48 L 268.52,397.45 L 268.50,397.42 L 268.49,397.39 L 268.47,397.34 L 268.46,397.30 L 268.44,397.27 L 268.42,397.24 L 268.38,397.19 L 268.35,397.15 L 268.32,397.11 L 268.29,397.07 L 268.26,397.03 L 268.25,397.00 L 268.26,396.98 L 268.26,396.96 L 268.28,396.94 L 268.29,396.93 L 268.31,396.92 L 268.34,396.90 L 268.37,396.88 L 268.39,396.86 L 268.39,396.84 L 268.39,396.82 L 268.38,396.80 L 268.37,396.77 L 268.34,396.74 L 268.31,396.71 L 268.29,396.69 L 268.27,396.69 L 268.25,396.69 L 268.24,396.69 L 268.21,396.70 L 268.20,396.72 L 268.18,396.74 L 268.16,396.75 L 268.14,396.76 L 268.12,396.76 L 268.11,396.76 L 268.10,396.74 L 268.07,396.69 L 268.06,396.66 L 268.05,396.62 L 268.04,396.60 L 268.02,396.58 L 268.00,396.54 L 267.97,396.50 L 267.95,396.48 L 267.94,396.45 L 267.92,396.42 L 267.89,396.38 L 267.85,396.34 L 267.81,396.30 L 267.79,396.28 L 267.76,396.26 L 267.74,396.26 L 267.69,396.26 L 267.66,396.27 L 267.60,396.28 L 267.57,396.29 L 267.53,396.31 L 267.51,396.32 L 267.49,396.35 L 267.48,396.38 L 267.48,396.38 L 267.47,396.42 L 267.46,396.46 L 267.44,396.49 L 267.43,396.51 L 267.40,396.53 L 267.36,396.55 L 267.32,396.56 L 267.28,396.57 L 267.25,396.56 L 267.21,396.56 L 267.17,396.54 L 267.13,396.52 L 267.09,396.50 L 267.05,396.48 L 267.01,396.45 L 266.98,396.43 L 266.94,396.40 L 266.89,396.36 L 266.87,396.34 L 266.86,396.34 L 266.86,396.33 L 266.84,396.31 L 266.80,396.28 L 266.77,396.25 L 266.74,396.22 L 266.73,396.19 L 266.70,396.16 L 266.69,396.12 L 266.67,396.09 L 266.66,396.03 L 266.64,395.98 L 266.61,395.95 L 266.58,395.91 L 266.51,395.83 L 266.48,395.80 L 266.46,395.77 L 266.44,395.74 L 266.43,395.72 L 266.43,395.70 L 266.43,395.65 L 266.43,395.62 L 266.43,395.51 L 266.43,395.48 L 266.35,395.52 L 266.30,395.42 L 266.27,395.39 L 266.24,395.33 L 266.23,395.29 L 266.19,395.28 L 266.17,395.27 L 266.14,395.24 L 266.11,395.21 L 266.08,395.17 L 266.05,395.14 L 266.01,395.10 L 265.98,395.08 L 265.96,395.06 L 265.93,395.04 L 265.90,395.02 L 265.87,395.00 L 265.85,394.98 L 265.82,394.96 L 265.81,394.95 L 265.81,394.93 L 265.81,394.92 L 265.82,394.90 L 265.84,394.88 L 265.86,394.86 L 265.89,394.83 L 265.93,394.81 L 265.97,394.79 L 265.99,394.78 L 266.01,394.78 L 266.04,394.79 L 266.08,394.79 L 266.11,394.79 L 266.13,394.79 L 266.16,394.78 L 266.18,394.77 L 266.20,394.75 L 266.21,394.74 L 266.23,394.72 L 266.24,394.69 L 266.25,394.66 L 266.26,394.63 L 266.27,394.61 L 266.28,394.59 L 266.29,394.57 L 266.30,394.55 L 266.31,394.53 L 266.32,394.50 L 266.33,394.48 L 266.34,394.42 L 266.35,394.39 L 266.35,394.36 L 266.35,394.33 L 266.35,394.31 L 266.34,394.28 L 266.34,394.25 L 266.33,394.22 L 266.32,394.18 L 266.30,394.14 L 266.29,394.11 L 266.26,394.08 L 266.24,394.05 L 266.22,394.02 L 266.17,393.97 L 266.14,393.95 L 266.11,393.93 L 266.08,393.91 L 266.06,393.89 L 266.03,393.88 L 266.00,393.86 L 265.97,393.85 L 265.95,393.83 L 265.93,393.80 L 265.92,393.78 L 265.90,393.76 L 265.89,393.73 L 265.87,393.71 L 265.86,393.68 L 265.84,393.65 L 265.81,393.62 L 265.79,393.60 L 265.76,393.58 L 265.73,393.56 L 265.70,393.55 L 265.67,393.54 L 265.65,393.54 L 265.62,393.55 L 265.60,393.55 L 265.56,393.56 L 265.53,393.57 L 265.48,393.59 L 265.46,393.55 L 265.47,393.54 L 265.45,393.51 L 265.46,393.51 L 265.45,393.45 L 265.45,393.44 L 265.45,393.41 L 265.44,393.39 L 265.42,393.35 L 265.44,393.33 L 265.47,393.36 L 265.68,393.12 L 265.68,393.08 L 265.70,393.08 L 265.70,393.04 L 265.71,393.04 L 265.71,392.81 L 265.71,392.80 L 265.72,392.79 L 265.70,392.59 L 265.60,392.51 L 265.53,392.45 L 265.60,392.42 L 265.61,392.42 L 265.63,392.39 L 265.65,392.38 L 265.66,392.37 L 265.67,392.36 L 265.68,392.36 L 265.75,392.34 L 265.87,392.30 L 265.90,392.29 L 265.91,392.29 L 266.14,392.30 L 266.17,392.21 L 266.17,392.20 L 266.19,392.16 L 266.21,392.12 L 266.24,392.08 L 266.26,392.05 L 266.31,391.99 L 266.39,391.88 L 266.42,391.83 L 266.43,391.78 L 266.43,391.74 L 266.44,391.66 L 266.43,391.59 L 266.43,391.52 L 266.44,391.39 L 266.44,391.32 L 266.43,391.23 L 266.43,391.18 L 266.44,391.14 L 266.44,391.12 L 266.46,391.10 L 266.48,391.08 L 266.50,391.06 L 266.51,391.04 L 266.51,391.01 L 266.50,390.98 L 266.50,390.96 L 266.49,390.92 L 266.50,390.90 L 266.52,390.87 L 266.53,390.83 L 266.52,390.80 L 266.52,390.71 L 266.51,390.64 L 266.53,390.60 L 266.60,390.53 L 266.65,390.50 L 266.69,390.45 L 266.71,390.40 L 266.73,390.34 L 266.72,390.27 L 266.73,390.19 L 266.73,390.18 L 266.72,390.11 L 266.73,390.05 L 266.73,390.01 L 266.72,389.98 L 266.70,389.95 L 266.64,389.89 L 266.60,389.81 L 266.58,389.78 L 266.55,389.77 L 266.52,389.77 L 266.47,389.76 L 266.43,389.75 L 266.36,389.73 L 266.29,389.72 L 266.27,389.71 L 266.25,389.69 L 266.23,389.67 L 266.23,389.63 L 266.23,389.59 L 266.22,389.54 L 266.22,389.49 L 266.22,389.44 L 266.22,389.40 L 266.21,389.37 L 266.21,389.34 L 266.19,389.32 L 266.17,389.28 L 266.15,389.24 L 266.14,389.23 L 266.12,389.20 L 266.11,389.17 L 266.11,389.14 L 266.10,389.10 L 266.10,389.07 L 266.10,389.05 L 266.12,389.02 L 266.14,389.00 L 266.17,388.98 L 266.22,388.96 L 266.28,388.95 L 266.32,388.93 L 266.36,388.92 L 266.39,388.90 L 266.42,388.87 L 266.44,388.85 L 266.47,388.81 L 266.49,388.78 L 266.51,388.74 L 266.51,388.74 L 266.55,388.67 L 266.53,388.64 L 266.54,388.63 L 266.52,388.61 L 266.53,388.60 L 266.52,388.58 L 266.50,388.56 L 266.51,388.55 L 266.53,388.54 L 266.57,388.50 L 266.60,388.48 L 266.59,388.47 L 266.62,388.45 L 266.62,388.46 L 266.64,388.44 L 266.65,388.46 L 266.63,388.47 L 266.64,388.50 L 266.67,388.48 L 266.69,388.50 L 266.74,388.45 L 266.80,388.41 L 266.84,388.39 L 266.86,388.38 L 266.92,388.35 L 266.94,388.34 L 266.97,388.31 L 267.01,388.29 L 267.06,388.27 L 267.10,388.26 L 267.15,388.25 L 267.17,388.25 L 267.16,388.21 L 267.15,388.19 L 267.15,388.17 L 267.15,388.17 L 267.15,388.16 L 267.15,388.16 L 267.14,388.15 L 267.14,388.15 L 267.13,388.15 L 267.15,388.14 L 267.14,388.12 L 267.13,388.11 L 267.12,388.05 L 267.11,388.04 L 267.12,388.03 L 267.14,388.04 L 267.13,387.99 L 267.17,387.98 L 267.16,387.93 L 267.15,387.90 L 267.13,387.89 L 267.15,387.85 L 267.12,387.86 L 267.12,387.84 L 267.06,387.86 L 267.06,387.87 L 266.99,387.89 L 266.98,387.82 L 266.97,387.81 L 266.95,387.81 L 266.86,387.80 L 266.84,387.71 L 266.78,387.52 L 266.85,387.41 L 266.87,387.41 L 266.87,387.29 L 266.88,387.29 L 266.88,387.28 L 266.90,387.27 L 266.90,387.28 L 266.90,387.29 L 266.99,387.27 L 266.98,387.25 L 266.99,387.25 L 266.99,387.25 L 267.03,387.22 L 267.01,387.21 L 267.00,387.19 L 266.98,387.17 L 266.97,387.14 L 266.97,387.11 L 266.97,387.07 L 266.98,387.01 L 267.00,386.93 L 267.02,386.84 L 267.03,386.80 L 267.03,386.77 L 266.99,386.77 L 266.95,386.77 L 266.89,386.76 L 266.89,386.71 L 266.89,386.63 L 266.90,386.60 L 266.95,386.60 L 266.98,386.61 L 266.99,386.59 L 266.99,386.56 L 266.99,386.52 L 267.03,386.52 L 267.08,386.52 L 267.13,386.52 L 267.14,386.52 L 267.14,386.48 L 267.14,386.42 L 267.19,386.41 L 267.23,386.41 L 267.24,386.39 L 267.30,386.37 L 267.32,386.32 L 267.33,386.26 L 267.34,386.22 L 267.34,386.20 L 267.28,386.15 L 267.25,386.12 L 267.20,386.07 L 267.17,386.04 L 267.13,386.00 L 267.10,385.97 L 267.07,385.94 L 267.05,385.90 L 267.04,385.88 L 266.92,385.90 L 266.91,385.90 L 266.91,385.86 L 266.89,385.77 L 266.88,385.70 L 266.88,385.65 L 266.87,385.64 L 266.85,385.64 L 266.80,385.64 L 266.80,385.67 L 266.80,385.71 L 266.80,385.73 L 266.80,385.75 L 266.79,385.76 L 266.75,385.75 L 266.71,385.75 L 266.68,385.75 L 266.64,385.76 L 266.64,385.73 L 266.64,385.71 L 266.61,385.71 L 266.55,385.70 L 266.51,385.70 L 266.47,385.69 L 266.44,385.68 L 266.40,385.66 L 266.38,385.65 L 266.34,385.65 L 266.31,385.65 L 266.25,385.65 L 266.19,385.66 L 266.14,385.66 L 266.11,385.66 L 266.08,385.66 L 266.03,385.63 L 265.92,385.32 L 265.92,385.29 L 265.97,385.29 L 265.97,385.26 L 265.96,385.25 L 265.96,385.23 L 265.97,385.12 L 265.97,385.11 L 265.97,385.10 L 265.95,385.08 L 265.98,385.05 L 266.06,384.97 L 266.07,384.95 L 266.12,384.89 L 266.15,384.86 L 266.17,384.84 L 266.18,384.80 L 266.21,384.74 L 266.11,384.65 L 266.06,384.61 L 266.01,384.55 L 265.97,384.51 L 265.94,384.48 L 265.93,384.48 L 265.92,384.49 L 265.92,384.49 L 265.90,384.50 L 265.87,384.52 L 265.87,384.51 L 265.88,384.50 L 265.88,384.50 L 265.87,384.50 L 265.86,384.49 L 265.85,384.50 L 265.85,384.50 L 265.84,384.50 L 265.83,384.48 L 265.83,384.48 L 265.83,384.47 L 265.85,384.46 L 265.88,384.45 L 265.88,384.44 L 265.88,384.44 L 265.86,384.45 L 265.84,384.42 L 265.82,384.43 L 265.81,384.44 L 265.78,384.38 L 265.77,384.36 L 265.77,384.36 L 265.77,384.35 L 265.77,384.35 L 265.77,384.34 L 265.77,384.34 L 265.73,384.35 L 265.72,384.36 L 265.71,384.36 L 265.71,384.36 L 265.65,384.38 L 265.63,384.30 L 265.61,384.30 L 265.62,384.23 L 265.59,384.23 L 265.59,384.23 L 265.46,384.21 L 265.35,384.19 L 265.19,384.16 L 265.13,384.15 L 265.11,384.20 L 265.09,384.20 L 265.07,384.19 L 265.06,384.19 L 265.06,384.21 L 265.02,384.20 L 265.02,384.21 L 265.02,384.22 L 265.01,384.22 L 265.01,384.21 L 265.00,384.21 L 265.00,384.22 L 264.99,384.22 L 264.99,384.22 L 264.98,384.22 L 264.98,384.21 L 264.97,384.21 L 264.96,384.22 L 264.95,384.21 L 264.95,384.22 L 264.95,384.21 L 264.94,384.22 L 264.93,384.22 L 264.91,384.24 L 264.89,384.24 L 264.89,384.14 L 264.89,384.10 L 264.87,383.98 L 264.93,383.87 L 264.94,383.84 L 264.94,383.53 L 264.94,383.47 L 264.82,383.44 L 264.79,383.44 L 264.78,383.43 L 264.72,383.39 L 264.71,383.38 L 264.66,383.33 L 264.62,383.28 L 264.57,383.24 L 264.52,383.28 L 264.51,383.28 L 264.51,383.28 L 264.49,383.27 L 264.48,383.27 L 264.47,383.27 L 264.41,383.30 L 264.34,383.38 L 264.29,383.34 L 264.18,383.39 L 264.17,383.39 L 264.17,383.39 L 264.01,383.19 L 264.00,383.18 L 263.90,383.11 L 263.88,383.16 L 263.81,383.12 L 263.82,383.11 L 263.82,383.09 L 263.83,383.08 L 263.83,383.07 L 263.82,383.06 L 263.83,383.06 L 263.70,382.95 L 263.67,382.90 L 263.61,382.93 L 263.53,382.85 L 263.52,382.86 L 263.50,382.84 L 263.48,382.86 L 263.47,382.85 L 263.46,382.86 L 263.44,382.85 L 263.36,382.96 L 263.24,382.89 L 263.21,382.92 L 263.19,382.92 L 263.19,382.93 L 263.17,382.94 L 263.16,382.93 L 263.14,382.95 L 263.12,382.95 L 263.04,383.23 L 263.08,383.24 L 263.10,383.25 L 263.09,383.25 L 263.09,383.26 L 263.09,383.26 L 263.10,383.27 L 263.09,383.27 L 263.07,383.26 L 263.07,383.28 L 263.03,383.25 L 263.02,383.27 L 263.03,383.28 L 263.01,383.30 L 263.05,383.32 L 263.05,383.32 L 262.99,383.34 L 262.98,383.36 L 262.95,383.41 L 262.93,383.46 L 262.91,383.49 L 262.90,383.49 L 262.90,383.48 L 262.88,383.47 L 262.87,383.46 L 262.86,383.47 L 262.84,383.46 L 262.82,383.45 L 262.81,383.45 L 262.80,383.45 L 262.78,383.45 L 262.77,383.45 L 262.77,383.46 L 262.76,383.48 L 262.76,383.48 L 262.75,383.49 L 262.76,383.50 L 262.76,383.50 L 262.75,383.50 L 262.73,383.53 L 262.72,383.53 L 262.69,383.52 L 262.66,383.51 L 262.65,383.50 L 262.63,383.50 L 262.65,383.44 L 262.64,383.44 L 262.64,383.42 L 262.61,383.42 L 262.60,383.41 L 262.59,383.42 L 262.58,383.42 L 262.58,383.41 L 262.56,383.46 L 262.56,383.47 L 262.52,383.46 L 262.47,383.44 L 262.45,383.43 L 262.44,383.43 L 262.44,383.43 L 262.43,383.43 L 262.42,383.42 L 262.41,383.42 L 262.37,383.40 L 262.37,383.39 L 262.37,383.39 L 262.34,383.38 L 262.37,383.30 L 262.29,383.26 L 262.23,383.24 L 262.23,383.20 L 262.22,383.20 L 262.21,383.18 L 262.23,383.18 L 262.22,383.17 L 262.21,383.17 L 262.20,383.18 L 262.19,383.18 L 262.18,383.18 L 262.16,383.17 L 262.13,383.16 L 262.11,383.16 L 262.08,383.17 L 262.04,383.18 L 262.00,383.18 L 261.97,383.18 L 261.95,383.19 L 261.93,383.18 L 261.93,383.19 L 261.92,383.19 L 261.90,383.20 L 261.89,383.20 L 261.88,383.20 L 261.87,383.20 L 261.86,383.20 L 261.84,383.20 L 261.80,383.20 L 261.78,383.20 L 261.77,383.21 L 261.75,383.21 L 261.73,383.20 L 261.71,383.20 L 261.69,383.20 L 261.68,383.20 L 261.67,383.20 L 261.66,383.19 L 261.65,383.18 L 261.62,383.16 L 261.61,383.15 L 261.60,383.14 L 261.60,383.13 L 261.60,383.11 L 261.59,383.07 L 261.59,383.06 L 261.58,383.05 L 261.57,383.04 L 261.56,383.04 L 261.56,383.03 L 261.55,383.02 L 261.55,383.01 L 261.54,383.00 L 261.52,383.00 L 261.51,383.00 L 261.49,382.98 L 261.47,382.97 L 261.47,382.96 L 261.47,382.95 L 261.47,382.94 L 261.47,382.94 L 261.48,382.93 L 261.50,382.92 L 261.51,382.90 L 261.52,382.89 L 261.52,382.89 L 261.51,382.88 L 261.51,382.87 L 261.51,382.81 L 261.38,382.83 L 261.38,382.84 L 261.38,382.86 L 261.37,382.87 L 261.34,382.85 L 261.33,382.85 L 261.28,382.80 L 261.16,382.91 L 261.22,383.00 L 261.10,383.01 L 261.09,383.02 L 261.08,383.03 L 261.07,383.03 L 261.07,383.03 L 261.01,383.01 L 260.88,383.05 L 260.88,383.06 L 260.84,383.09 L 260.81,383.11 L 260.80,383.12 L 260.79,383.10 L 260.79,383.10 L 260.78,383.10 L 260.78,383.08 L 260.78,383.08 L 260.77,383.08 L 260.75,383.09 L 260.75,383.07 L 260.72,383.09 L 260.69,383.11 L 260.65,383.13 L 260.64,383.13 L 260.65,383.15 L 260.64,383.16 L 260.63,383.15 L 260.57,383.20 L 260.57,383.20 L 260.53,383.24 L 260.51,383.26 L 260.53,383.31 L 260.42,383.35 L 260.38,383.36 L 260.38,383.37 L 260.34,383.39 L 260.30,383.40 L 260.28,383.41 L 260.28,383.40 L 260.27,383.41 L 260.27,383.40 L 260.26,383.40 L 260.25,383.39 L 260.22,383.40 L 260.21,383.40 L 260.19,383.40 L 260.19,383.41 L 260.21,383.43 L 260.21,383.44 L 260.20,383.44 L 260.20,383.45 L 260.19,383.45 L 260.19,383.46 L 260.18,383.46 L 260.17,383.48 L 260.17,383.48 L 260.16,383.51 L 260.15,383.50 L 260.14,383.49 L 260.10,383.57 L 260.10,383.59 L 260.09,383.58 L 260.09,383.58 L 260.09,383.59 L 260.08,383.58 L 260.06,383.58 L 260.05,383.63 L 260.05,383.63 L 260.02,383.64 L 260.02,383.65 L 260.01,383.65 L 259.97,383.62 L 259.97,383.61 L 259.97,383.61 L 259.96,383.60 L 259.95,383.60 L 259.93,383.63 L 259.89,383.60 L 259.85,383.56 L 259.85,383.56 L 259.78,383.48 L 259.68,383.56 L 259.54,383.50 L 259.54,383.49 L 259.54,383.49 L 259.54,383.47 L 259.54,383.46 L 259.54,383.45 L 259.53,383.45 L 259.52,383.47 L 259.51,383.47 L 259.51,383.45 L 259.49,383.45 L 259.49,383.41 L 259.48,383.41 L 259.48,383.39 L 259.48,383.37 L 259.47,383.37 L 259.46,383.36 L 259.43,383.37 L 259.41,383.38 L 259.41,383.36 L 259.40,383.34 L 259.38,383.26 L 259.36,383.22 L 259.35,383.16 L 259.35,383.14 L 259.35,383.12 L 259.32,383.11 L 259.28,383.10 L 259.26,383.09 L 259.23,383.10 L 259.19,383.12 L 259.18,383.12 L 259.18,383.12 L 259.11,383.09 L 259.10,383.10 L 259.09,383.11 L 259.09,383.12 L 259.08,383.14 L 259.10,383.16 L 259.08,383.17 L 259.07,383.19 L 259.07,383.20 L 259.06,383.21 L 259.05,383.21 L 259.02,383.23 L 259.01,383.24 L 259.02,383.28 L 259.03,383.31 L 259.01,383.32 L 259.01,383.33 L 258.81,383.33 L 258.68,383.33 L 258.69,383.20 L 258.65,383.19 L 258.65,383.15 L 258.63,383.15 L 258.63,383.16 L 258.59,383.16 L 258.59,383.15 L 258.50,383.15 L 258.48,383.19 L 258.47,383.20 L 258.46,383.20 L 258.47,383.18 L 258.46,383.18 L 258.47,383.15 L 258.43,383.15 L 258.42,383.15 L 258.42,383.15 L 258.41,383.15 L 258.40,383.17 L 258.39,383.16 L 258.39,383.18 L 258.38,383.22 L 258.38,383.23 L 258.37,383.23 L 258.37,383.23 L 258.35,383.23 L 258.35,383.23 L 258.34,383.23 L 258.33,383.23 L 258.29,383.22 L 258.18,383.21 L 258.14,383.20 L 258.06,383.18 L 257.92,383.15 L 257.89,383.20 L 257.87,383.24 L 257.82,383.28 L 257.74,383.34 L 257.70,383.37 L 257.70,383.37 L 257.68,383.39 L 257.61,383.41 L 257.59,383.42 L 257.55,383.42 L 257.52,383.42 L 257.49,383.42 L 257.44,383.42 L 257.41,383.42 L 257.36,383.40 L 257.34,383.38 L 257.31,383.37 L 257.19,383.32 L 257.12,383.27 L 257.04,383.35 L 257.01,383.34 L 256.92,383.42 L 256.89,383.45 L 256.85,383.45 L 256.80,383.40 L 256.79,383.41 L 256.79,383.43 L 256.77,383.45 L 256.78,383.46 L 256.75,383.51 L 256.77,383.56 L 256.80,383.60 L 256.81,383.61 L 256.82,383.63 L 256.82,383.69 L 256.82,383.72 L 256.81,383.85 L 256.72,383.88 L 256.62,383.91 L 256.49,383.76 L 256.48,383.77 L 256.44,383.80 L 256.41,383.77 L 256.35,383.80 L 256.21,383.89 L 256.20,383.94 L 256.26,384.02 L 256.31,384.07 L 256.30,384.09 L 256.35,384.17 L 256.41,384.12 L 256.41,384.19 L 256.31,384.25 L 256.32,384.29 L 256.33,384.31 L 256.26,384.30 L 256.24,384.35 L 256.24,384.35 L 256.25,384.36 L 256.29,384.42 L 256.20,384.69 L 256.30,384.76 L 256.26,384.84 L 256.39,384.90 L 256.41,385.11 L 256.42,385.17 L 256.37,385.17 L 256.37,385.21 L 256.37,385.30 L 256.38,385.30 L 256.35,385.45 L 256.28,385.44 L 256.21,385.41 L 256.21,385.42 L 256.13,385.39 L 256.08,385.36 L 256.08,385.29 L 255.94,385.28 L 255.94,385.17 L 255.91,385.16 L 255.90,385.16 L 255.90,385.17 L 255.90,385.18 L 255.89,385.19 L 255.89,385.22 L 255.87,385.22 L 255.86,385.21 L 255.86,385.20 L 255.86,385.19 L 255.86,385.19 L 255.84,385.18 L 255.84,385.19 L 255.83,385.19 L 255.83,385.19 L 255.80,385.18 L 255.78,385.17 L 255.78,385.17 L 255.78,385.16 L 255.77,385.16 L 255.76,385.18 L 255.75,385.19 L 255.74,385.20 L 255.74,385.20 L 255.72,385.20 L 255.72,385.17 L 255.69,385.18 L 255.69,385.23 L 255.67,385.23 L 255.67,385.25 L 255.66,385.25 L 255.63,385.25 L 255.61,385.24 L 255.58,385.24 L 255.58,385.22 L 255.56,385.22 L 255.56,385.24 L 255.55,385.25 L 255.53,385.25 L 255.53,385.23 L 255.48,385.23 L 255.47,385.23 L 255.47,385.22 L 255.48,385.22 L 255.49,385.20 L 255.48,385.19 L 255.48,385.18 L 255.48,385.17 L 255.47,385.17 L 255.47,385.14 L 255.44,385.15 L 255.43,385.12 L 255.43,385.10 L 255.43,385.09 L 255.34,385.11 L 255.23,385.13 L 255.13,385.14 L 254.97,385.17 L 254.97,385.10 L 254.93,385.09 L 254.90,385.03 L 254.85,385.04 L 254.80,385.05 L 254.77,385.06 L 254.71,385.00 L 254.65,384.94 L 254.53,384.82 L 254.44,384.89 L 254.37,384.87 L 254.11,384.77 L 254.12,384.70 L 254.10,384.70 L 254.00,384.70 L 254.00,384.76 L 254.00,384.76 L 253.84,384.77 L 253.84,384.70 L 253.77,384.70 L 253.76,384.74 L 253.69,384.74 L 253.63,384.74 L 253.60,384.75 L 253.56,384.75 L 253.56,384.77 L 253.55,384.77 L 253.55,384.78 L 253.53,384.78 L 253.53,384.80 L 253.52,384.80 L 253.52,384.83 L 253.48,384.83 L 253.46,384.82 L 253.47,384.86 L 253.48,384.90 L 253.47,385.00 L 253.42,384.99 L 253.41,385.09 L 253.35,385.22 L 253.25,385.39 L 253.23,385.45 L 253.19,385.51 L 253.17,385.60 L 253.14,385.74 L 253.14,385.76 L 253.11,385.81 L 253.07,385.93 L 253.04,386.01 L 253.03,386.04 L 253.04,386.05 L 253.02,386.17 L 252.99,386.26 L 252.95,386.32 L 252.89,386.43 L 253.01,386.52 L 253.11,386.59 L 253.21,386.68 L 253.29,386.74 L 253.31,386.80 L 253.34,386.86 L 253.38,386.94 L 253.41,386.96 L 253.49,386.98 L 253.52,387.00 L 253.56,387.03 L 253.54,387.07 L 253.62,387.12 L 253.50,387.30 L 253.43,387.40 L 253.38,387.48 L 253.20,387.69 L 253.28,387.76 L 253.35,387.82 L 253.36,387.84 L 253.41,387.90 L 253.44,387.95 L 253.45,388.00 L 253.46,388.08 L 253.46,388.12 L 253.46,388.14 L 253.46,388.19 L 253.44,388.25 L 253.39,388.33 L 253.31,388.43 L 253.17,388.59 L 252.97,388.77 L 252.88,388.82 L 252.79,388.88 L 252.67,388.98 L 252.63,389.04 L 252.58,389.11 L 252.53,389.17 L 252.51,389.22 L 252.48,389.30 L 252.46,389.35 L 252.46,389.42 L 252.46,389.50 L 252.48,389.58 L 252.50,389.62 L 252.51,389.66 L 252.55,389.71 L 252.56,389.73 L 252.63,389.78 L 252.64,389.79 L 252.68,389.81 L 252.76,389.85 L 252.90,389.92 L 253.06,390.00 L 253.17,390.05 L 253.26,390.09 L 253.27,390.10 L 253.39,390.17 L 253.56,390.26 L 253.57,390.27 L 253.76,390.40 L 253.88,390.48 L 253.95,390.55 L 254.01,390.62 L 254.10,390.71 L 254.14,390.73 L 254.14,390.73 L 254.21,390.74 L 254.27,390.76 L 254.34,390.78 L 254.44,390.84 L 254.50,390.88 L 254.56,390.95 L 254.59,391.03 L 254.64,391.12 L 254.68,391.19 L 254.69,391.20 L 254.73,391.31 L 254.76,391.41 L 254.77,391.48 L 254.77,391.50 L 254.77,391.57 L 254.77,391.66 L 254.76,391.74 L 254.75,391.81 L 254.74,391.91 L 254.71,392.02 L 254.65,392.15 L 254.61,392.23 L 254.55,392.30 L 254.51,392.33 L 254.34,392.41 L 254.24,392.46 L 254.11,392.52 L 254.02,392.56 L 253.91,392.63 L 253.81,392.70 L 253.78,392.72 L 253.76,392.74 L 253.68,392.80 L 253.63,392.85 L 253.58,392.93 L 253.54,393.00 L 253.53,393.02 L 253.49,393.12 L 253.46,393.19 L 253.45,393.22 L 253.44,393.25 L 253.40,393.37 L 253.35,393.53 L 253.34,393.59 L 253.33,393.66 L 253.33,393.72 L 253.33,393.76 L 253.33,393.77 L 253.33,393.84 L 253.33,393.93 L 253.34,393.98 L 253.34,394.04 L 253.34,394.05 L 253.34,394.09 L 253.34,394.12 L 253.36,394.18 L 253.37,394.23 L 253.39,394.30 L 253.41,394.36 L 253.42,394.41 L 253.44,394.47 L 253.52,394.73 L 253.54,394.79 L 253.58,394.91 L 253.60,394.95 L 253.62,395.01 L 253.64,395.06 L 253.65,395.10 L 253.70,395.25 L 253.80,395.47 L 253.85,395.57 L 253.96,395.74 L 253.96,395.75 L 253.99,395.79 L 254.06,395.88 L 254.17,395.99 L 254.24,396.07 L 254.32,396.13 L 254.33,396.14 L 254.38,396.16 L 254.38,396.17 L 254.41,396.18 L 254.56,396.24 L 254.69,396.29 L 254.85,396.34 L 254.98,396.37 L 255.14,396.39 L 255.39,396.42 L 255.51,396.44 L 255.70,396.48 L 255.75,396.49 L 255.78,396.50 L 255.83,396.51 L 255.98,396.56 L 256.14,396.61 L 256.24,396.67 L 256.30,396.72 L 256.35,396.76 L 256.44,396.87 L 256.51,396.97 L 256.54,397.04 L 256.57,397.09 L 256.60,397.18 L 256.60,397.20 L 256.60,397.30 L 256.59,397.49 L 256.57,397.65 L 256.55,397.73 L 256.55,397.79 L 256.55,397.81 L 256.55,397.89 L 256.55,398.01 L 256.54,398.12 L 256.54,398.25 L 256.51,398.84 L 256.58,399.34 L 256.48,399.54 L 256.35,399.89 L 256.39,399.99 L 256.43,400.12 L 256.45,400.18 L 256.57,400.50 L 256.60,400.61 L 256.64,400.74 L 256.66,400.81 L 256.70,400.89 L 256.74,401.00 L 256.76,401.07 L 256.79,401.15 L 256.82,401.23 L 256.84,401.30 L 256.87,401.38 L 256.87,401.38 L 256.90,401.41 L 256.96,401.43 L 257.06,401.44 L 257.12,401.45 L 257.19,401.45 L 257.24,401.44 L 257.32,401.41 L 257.32,401.41 L 257.40,401.39 L 257.50,401.35 L 257.63,401.29 L 257.64,401.23 L 257.72,401.19 L 257.76,401.17 L 257.82,401.16 L 257.92,401.16 L 258.06,401.15 L 258.12,401.15 L 258.22,401.15 L 258.31,401.15 L 258.38,401.15 L 258.42,401.14 L 258.61,401.14 L 258.63,401.14 L 258.74,401.16 L 258.77,401.16 L 258.80,401.16 L 258.82,401.17 L 258.89,401.19 L 259.07,401.25 L 259.20,401.30 L 259.36,401.36 L 259.46,401.41 L 259.53,401.46 L 259.62,401.52 L 259.73,401.62 L 259.80,401.69 L 259.85,401.75 L 259.91,401.82 L 259.97,401.89 L 259.97,401.90 L 259.99,401.91 L 260.04,401.98 L 260.10,402.06 L 260.15,402.14 L 260.21,402.25 L 260.29,402.37 L 260.40,402.64 L 260.48,402.89 L 260.52,403.10 L 260.52,403.31 L 260.49,403.54 L 260.47,403.71 L 260.44,403.84 L 260.39,403.97 L 260.29,404.21 L 260.26,404.30 L 260.23,404.40 L 260.16,404.66 L 260.17,404.72 L 260.22,404.83 L 260.26,404.96 L 260.27,404.98 L 260.30,405.07 L 260.34,405.22 L 260.37,405.31 L 260.41,405.42 L 260.46,405.54 L 260.47,405.54 L 260.48,405.57 L 260.54,405.69 L 260.59,405.77 L 260.63,405.83 L 260.73,405.94 L 260.85,406.07 L 260.94,406.18 L 261.04,406.28 L 261.14,406.37 L 261.20,406.45 L 261.27,406.53 L 261.28,406.55 L 261.30,406.58 L 261.31,406.61 L 261.35,406.67 L 261.39,406.72 L 261.48,406.80 L 261.56,406.88 L 261.64,406.96 L 261.77,407.04 L 261.86,407.09 L 262.00,407.14 L 262.11,407.18 L 262.20,407.20 L 262.37,407.24 L 262.37,407.24 L 262.55,407.26 L 262.72,407.27 L 262.84,407.24 L 262.89,407.21 L 262.96,407.17 L 263.06,407.09 L 263.20,406.97 L 263.30,406.88 L 263.54,406.71 L 263.71,406.60 L 263.86,406.53 L 264.04,406.46 L 264.28,406.38 L 264.39,406.36 L 264.42,406.35 L 264.48,406.34 L 264.56,406.33 L 264.68,406.34 L 264.82,406.35 L 265.23,406.42 L 265.26,406.43 L 265.29,406.44 L 265.31,406.45 L 265.33,406.47 L 265.35,406.48 L 265.37,406.50 L 265.37,406.50 L 265.39,406.52 L 265.40,406.54 L 265.49,406.62 L 265.61,406.73 L 265.66,406.79 L 265.69,406.84 L 265.74,406.93 L 265.78,407.02 L 265.79,407.04 L 265.79,407.05 L 265.79,407.07 L 265.80,407.09 L 265.80,407.11 L 265.79,407.18 L 265.78,407.31 L 265.78,407.36 L 265.78,407.40 L 265.79,407.51 L 265.79,407.60 L 265.79,407.65 L 265.79,407.68 L 265.79,407.71 L 265.78,407.75 L 265.76,407.81 L 265.73,407.94 L 265.72,408.00 L 265.72,408.02 L 265.72,408.08 L 265.71,408.15 L 265.71,408.26 L 265.71,408.37 L 265.71,408.45 L 265.72,408.56 L 265.74,408.64 L 265.77,408.73 L 265.81,408.83 L 265.84,408.93 L 265.87,408.99 L 265.93,409.06 L 265.97,409.12 L 266.04,409.16 L 266.09,409.19 L 266.17,409.23 L 266.30,409.28 L 266.36,409.30 L 266.44,409.31 L 266.67,409.34 L 266.69,409.34 L 266.81,409.36 L 266.93,409.37 L 267.02,409.39 L 267.14,409.43 L 267.25,409.49 L 267.30,409.52 L 267.35,409.56 L 267.39,409.59 L 267.43,409.64 L 267.44,409.65 L 267.46,409.69 L 267.50,409.75 L 267.52,409.79 L 267.54,409.84 L 267.55,409.89 L 267.57,409.91 L 267.58,409.94 L 267.60,409.97 L 267.66,410.04 L 267.72,410.12 L 267.79,410.21 L 267.94,410.39 L 268.01,410.49 L 268.02,410.51 L 268.05,410.55 L 268.12,410.70 L 268.16,410.80 L 268.22,410.95 L 268.28,411.13 L 268.35,411.37 L 268.37,411.42 L 268.38,411.48 L 268.40,411.53 L 268.43,411.67 L 268.46,411.84 L 268.48,411.96 L 268.49,412.01 L 268.53,412.18 L 268.56,412.35 L 268.56,412.41 L 268.56,412.54 L 268.56,412.65 L 268.55,412.76 L 268.54,412.85 L 268.52,412.94 L 268.51,413.04 L 268.49,413.14 L 268.50,413.79 L 268.51,413.87 L 268.54,413.96 L 268.57,414.04 L 268.60,414.12 L 268.64,414.20 L 268.67,414.27 L 268.70,414.33 L 268.76,414.43 L 268.82,414.49 L 268.88,414.56 L 269.02,414.66 L 269.07,414.69 L 269.13,414.71 L 269.26,414.74 L 269.31,414.75 L 269.57,414.74 L 269.91,414.73 L 270.16,414.76 L 270.52,414.92 L 270.67,415.00 L 270.80,415.08 L 270.87,415.12 L 270.91,415.15 L 270.99,415.25 L 271.04,415.31 L 271.06,415.34 L 271.12,415.46 L 271.15,415.54 L 271.17,415.63 L 271.18,415.68 L 271.18,415.74 L 271.18,415.82 L 271.17,415.93 L 271.15,416.00 L 271.13,416.07 L 271.07,416.25 L 271.05,416.32 L 271.02,416.38 L 270.96,416.56 L 270.87,416.77 L 270.73,417.00 L 270.66,417.13 L 270.55,417.30 L 270.43,417.49 L 270.35,417.62 L 270.28,417.72 L 270.27,417.76 L 270.26,417.79 L 270.26,417.84 L 270.26,417.90 L 270.26,417.93 L 270.26,417.97 L 270.29,418.03 L 270.32,418.11 L 270.35,418.19 L 270.40,418.29 L 270.46,418.39 L 270.49,418.43 L 270.53,418.50 L 270.56,418.55 L 270.60,418.61 L 270.63,418.66 L 270.67,418.72 L 270.71,418.77 L 270.74,418.80 L 270.78,418.84 L 270.82,418.88 L 270.86,418.90 L 270.91,418.94 L 270.97,418.99 L 271.04,419.01 L 271.10,419.04 L 271.15,419.06 L 271.22,419.08 L 271.28,419.10 L 271.36,419.11 L 271.51,419.14 L 271.66,419.16 L 271.77,419.18 L 271.86,419.19 L 272.08,419.21 L 272.21,419.21 L 272.32,419.20 L 272.65,419.19 L 272.77,419.18 L 272.80,419.17 L 272.86,419.17 L 273.04,419.17 L 273.05,419.17 L 273.06,419.17 L 273.17,419.18 L 273.28,419.19 L 273.36,419.21 L 273.42,419.22 L 273.49,419.25 L 273.56,419.27 L 273.66,419.30 L 273.75,419.32 L 273.84,419.33 L 273.91,419.35 L 273.97,419.37 L 274.04,419.40 L 274.10,419.43 L 274.15,419.47 L 274.20,419.51 L 274.27,419.56 L 274.34,419.62 L 274.45,419.76 L 274.50,419.82 L 274.54,419.90 L 274.57,420.00 L 274.59,420.07 L 274.60,420.13 L 274.61,420.20 L 274.61,420.21 L 274.61,420.29 L 274.60,420.36 L 274.58,420.44 L 274.55,420.54 L 274.50,420.65 L 274.44,420.75 L 274.37,420.83 L 274.30,420.91 L 274.21,420.99 L 274.17,421.02 L 274.13,421.06 L 274.07,421.10 L 274.00,421.15 L 273.91,421.22 L 273.89,421.23 L 273.83,421.28 L 273.77,421.32 L 273.68,421.38 L 273.44,421.57 L 273.37,421.63 L 273.16,421.78 L 273.10,421.83 L 273.02,421.91 L 272.96,421.96 L 272.92,422.01 L 272.91,422.02 L 272.88,422.06 L 272.84,422.11 L 272.79,422.19 L 272.78,422.22 L 272.77,422.27 L 272.75,422.32 L 272.73,422.38 L 272.71,422.46 L 272.69,422.56 L 272.68,422.65 L 272.66,422.73 L 272.66,422.83 L 272.67,422.93 L 272.68,423.00 L 272.71,423.12 L 272.73,423.20 L 272.77,423.32 L 272.81,423.40 L 272.83,423.45 L 272.90,423.59 L 272.96,423.69 L 273.00,423.74 L 273.07,423.81 L 273.14,423.86 L 273.24,423.91 L 273.38,423.97 L 273.43,423.98 L 273.50,423.98 L 273.57,423.98 L 273.70,423.96 L 273.77,423.95 L 273.99,423.88 L 274.51,423.58 L 274.60,423.52 L 274.73,423.42 L 274.81,423.36 L 274.88,423.30 L 274.96,423.26 L 275.01,423.23 L 275.06,423.19 L 275.11,423.15 L 275.15,423.12 L 275.23,423.04 L 275.31,422.97 L 275.38,422.89 L 275.44,422.83 L 275.52,422.75 L 275.59,422.68 L 275.70,422.56 L 275.78,422.48 L 275.80,422.46 L 275.87,422.39 L 275.91,422.36 L 275.97,422.31 L 276.04,422.25 L 276.08,422.22 L 276.15,422.17 L 276.25,422.12 L 276.33,422.07 L 276.38,422.03 L 276.45,421.98 L 276.49,421.95 L 276.54,421.91 L 276.57,421.88 L 276.57,421.88 L 276.62,421.84 L 276.66,421.81 L 276.72,421.75 L 276.74,421.72 L 276.75,421.70 L 276.76,421.69 L 276.79,421.66 L 276.82,421.61 L 276.87,421.55 L 277.11,421.29 L 277.40,420.99 L 277.48,420.94 L 277.53,420.92 L 277.60,420.92 L 277.70,420.94 L 277.76,420.99 L 277.81,421.05 L 277.85,421.11 L 277.97,421.36 L 278.09,421.67 L 278.13,421.79 L 278.15,421.83 L 278.17,421.85 L 278.19,421.88 L 278.23,421.92 L 278.27,421.98 L 278.31,422.02 L 278.35,422.10 L 278.38,422.15 L 278.40,422.18 L 278.42,422.21 L 278.44,422.25 L 278.47,422.28 L 278.49,422.30 L 278.53,422.35 L 278.56,422.38 L 278.60,422.41 L 278.65,422.45 L 278.70,422.49 L 278.75,422.52 L 278.81,422.56 L 278.86,422.59 L 278.97,422.65 L 279.01,422.67 L 279.06,422.70 L 279.14,422.75 L 279.22,422.78 L 279.30,422.81 L 279.36,422.83 L 279.41,422.85 L 279.47,422.86 L 279.52,422.88 L 279.56,422.89 L 279.60,422.89 L 279.66,422.90 L 279.70,422.91 L 279.75,422.91 L 279.82,422.91 L 279.90,422.90 L 279.97,422.90 L 280.08,422.89 L 280.19,422.90 L 280.24,422.90 L 280.29,422.91 L 280.33,422.91 L 280.37,422.93 L 280.41,422.94 L 280.49,422.97 L 280.54,423.00 L 280.60,423.04 L 280.63,423.06 L 280.72,423.12 L 280.77,423.16 L 280.81,423.20 L 280.88,423.24 L 280.95,423.29 L 281.00,423.33 L 281.04,423.36 L 281.09,423.40 L 281.13,423.43 L 281.19,423.47 L 281.34,423.59 L 281.39,423.62 L 281.47,423.68 L 281.52,423.74 L 281.61,423.89 L 281.73,424.10 L 281.84,424.33 L 281.97,424.52 L 282.12,424.70 L 282.26,424.88 L 282.33,424.96 L 282.44,425.10 L 282.56,425.27 L 282.71,425.46 L 282.85,425.57 L 282.92,425.63 L 282.93,425.64 L 283.09,425.76 L 283.20,425.83 L 283.22,425.85 L 283.30,425.90 L 283.45,425.98 L 283.55,426.02 L 283.68,426.06 L 283.80,426.10 L 283.86,426.13 L 283.91,426.15 L 283.95,426.17 L 283.98,426.18 L 284.11,426.20 L 284.13,426.20 L 284.38,426.24 L 284.53,426.25 L 284.77,426.25 L 284.96,426.22 L 285.06,426.19 L 285.24,426.14 L 285.38,426.10 L 285.61,426.01 L 285.71,425.97 L 285.77,425.93 L 285.82,425.90 L 285.90,425.83 L 285.94,425.79 L 285.97,425.74 L 286.04,425.67 L 286.14,425.55 L 286.25,425.40 L 286.35,425.27 L 286.42,425.20 L 286.46,425.16 L 286.52,425.13 L 286.59,425.09 L 286.65,425.06 L 286.71,425.05 L 286.75,425.04 L 286.81,425.04 L 287.00,425.07 L 287.12,425.08 L 287.19,425.09 L 287.30,425.08 L 287.42,425.03 L 287.56,424.96 L 287.73,424.83 L 287.88,424.74 L 287.98,424.67 L 288.12,424.60 L 288.16,424.60 L 288.32,424.64 L 288.46,424.77 L 288.52,424.85 L 288.60,425.00 L 288.71,425.18 L 288.77,425.24 L 288.82,425.29 L 288.98,425.45 L 289.05,425.51 L 289.06,425.52 L 289.11,425.55 L 289.34,425.74 L 289.45,425.84 L 289.48,425.87 L 289.51,425.90 L 289.54,425.94 L 289.57,425.97 L 289.60,426.00 L 289.63,426.03 L 289.66,426.07 L 289.69,426.10 L 289.72,426.14 L 289.75,426.17 L 289.78,426.21 L 289.81,426.24 L 289.86,426.31 L 289.92,426.38 L 289.98,426.45 L 290.03,426.51 L 290.09,426.58 L 290.15,426.64 L 290.21,426.72 L 290.27,426.79 L 290.34,426.86 L 290.40,426.93 L 290.47,427.00 L 290.68,427.20 L 290.92,427.42 L 291.33,427.92 L 291.35,427.95 L 291.37,427.99 L 291.39,428.02 L 291.41,428.06 L 291.43,428.09 L 291.45,428.13 L 291.47,428.16 L 291.49,428.20 L 291.50,428.24 L 291.52,428.27 L 291.53,428.31 L 291.55,428.35 L 291.56,428.39 L 291.58,428.42 L 291.59,428.46 L 291.60,428.50 L 291.62,428.54 L 291.63,428.57 L 291.64,428.61 L 291.65,428.65 L 291.66,428.69 L 291.67,428.73 L 291.68,428.77 L 291.69,428.80 L 291.90,429.01 L 292.17,429.18 L 292.53,429.38 L 312.32,439.04 L 321.77,429.25 L 296.40,407.70 L 295.89,407.26 L 295.59,406.80 L 295.33,406.51 L 294.82,406.04 L 294.58,405.90 L 294.40,405.82 L 294.32,405.80 L 294.12,405.79 L 294.03,405.80 L 293.94,405.82 L 293.85,405.86 L 293.78,405.88 L 293.70,405.91 L 293.62,405.94 L 293.53,405.95 L 293.44,405.95 L 293.31,405.93 L 293.21,405.90 L 293.11,405.87 L 293.04,405.84 L 292.99,405.81 L 292.93,405.77 L 292.87,405.72 L 292.81,405.65 L 292.75,405.56 L 292.71,405.50 L 292.67,405.44 L 292.62,405.34 L 292.58,405.26 L 292.52,405.16 L 292.49,405.11 L 292.44,405.05 L 292.38,405.07 L 292.27,405.11 L 292.19,405.13 L 292.10,405.17 L 292.02,405.22 L 291.96,405.26 L 291.89,405.32 L 291.87,405.34 L 291.86,405.37 L 291.83,405.39 L 291.81,405.43 L 291.79,405.45 L 291.78,405.48 L 291.76,405.51 L 291.74,405.55 L 291.71,405.59 L 291.64,405.71 L 291.58,405.77 L 291.53,405.81 L 291.46,405.85 L 291.40,405.88 L 291.36,405.90 L 291.16,405.97 L 291.12,405.99 L 291.07,406.01 L 291.03,406.03 L 290.96,406.08 L 290.90,406.10 L 290.88,406.12 L 290.82,406.16 L 290.78,406.18 L 290.74,406.20 L 290.73,406.21 L 290.68,406.23 L 290.62,406.25 L 290.61,406.25 L 290.59,406.26 L 290.56,406.26 L 290.53,406.26 L 290.51,406.25 L 290.48,406.25 L 290.46,406.24 L 290.44,406.24 L 290.42,406.22 L 290.37,406.17 L 290.35,406.14 L 290.31,406.09 L 290.28,406.05 L 290.26,406.02 L 290.25,406.01 L 290.21,405.95 L 290.16,405.91 L 290.11,405.87 L 290.06,405.85 L 290.00,405.84 L 289.97,405.83 L 289.93,405.82 L 289.89,405.82 L 289.85,405.82 L 289.75,405.81 L 289.70,405.81 L 289.66,405.80 L 289.64,405.79 L 289.62,405.79 L 289.59,405.79 L 289.52,405.79 L 289.48,405.79 L 289.43,405.80 L 289.40,405.80 L 289.37,405.82 L 289.33,405.84 L 289.29,405.86 L 289.26,405.89 L 289.23,405.92 L 289.21,405.96 L 289.18,406.00 L 289.16,406.02 L 289.14,406.04 L 289.10,406.06 L 289.06,406.09 L 289.05,406.14 L 289.05,406.24 L 289.05,406.27 L 289.06,406.30 L 289.07,406.34 L 289.07,406.39 L 289.07,406.44 L 289.07,406.50 L 289.08,406.56 L 289.07,406.63 L 289.06,406.69 L 289.05,406.75 L 289.03,406.82 L 289.01,406.88 L 288.99,406.92 L 288.97,406.95 L 288.95,406.98 L 288.92,407.00 L 288.85,407.04 L 288.80,407.08 L 288.77,407.09 L 288.73,407.11 L 288.67,407.14 L 288.62,407.17 L 288.57,407.20 L 288.53,407.22 L 288.50,407.23 L 288.39,407.28 L 288.38,407.28 L 288.33,407.29 L 288.27,407.30 L 288.21,407.31 L 288.15,407.31 L 288.10,407.31 L 288.01,407.30 L 287.94,407.30 L 287.92,407.30 L 287.90,407.30 L 287.87,407.30 L 287.85,407.31 L 287.83,407.31 L 287.82,407.31 L 287.80,407.31 L 287.79,407.29 L 287.79,407.27 L 287.77,407.19 L 287.77,407.13 L 287.76,407.07 L 287.76,407.05 L 287.76,407.01 L 287.75,406.99 L 287.74,406.95 L 287.71,406.92 L 287.70,406.89 L 287.67,406.84 L 287.64,406.82 L 287.62,406.79 L 287.59,406.77 L 287.56,406.74 L 287.51,406.72 L 287.48,406.70 L 287.42,406.66 L 287.37,406.64 L 287.32,406.62 L 287.27,406.60 L 287.19,406.58 L 287.14,406.57 L 287.04,406.55 L 286.93,406.53 L 286.82,406.52 L 286.79,406.52 L 286.73,406.52 L 286.71,406.51 L 286.64,406.51 L 286.57,406.50 L 286.52,406.49 L 286.49,406.49 L 286.47,406.49 L 286.40,406.47 L 286.38,406.47 L 286.35,406.46 L 286.34,406.45 L 286.31,406.45 L 286.29,406.46 L 286.28,406.47 L 286.26,406.49 L 286.25,406.51 L 286.23,406.55 L 286.22,406.58 L 286.21,406.60 L 286.20,406.62 L 286.19,406.65 L 286.17,406.70 L 286.16,406.74 L 286.15,406.78 L 286.13,406.83 L 286.12,406.88 L 286.10,406.93 L 286.08,406.97 L 286.06,406.99 L 286.03,407.04 L 285.92,407.20 L 285.89,407.24 L 285.87,407.26 L 285.83,407.31 L 285.76,407.39 L 285.74,407.42 L 285.72,407.44 L 285.70,407.46 L 285.67,407.49 L 285.64,407.52 L 285.61,407.53 L 285.57,407.55 L 285.51,407.56 L 285.46,407.56 L 285.42,407.56 L 285.30,407.58 L 285.17,407.58 L 285.12,407.58 L 285.10,407.57 L 285.05,407.54 L 285.04,407.52 L 285.02,407.49 L 285.02,407.45 L 285.00,407.38 L 285.00,407.35 L 285.00,407.29 L 285.00,407.22 L 284.99,407.17 L 284.99,407.12 L 284.98,407.08 L 284.98,407.05 L 284.97,407.01 L 284.96,406.97 L 284.94,406.93 L 284.93,406.89 L 284.89,406.82 L 284.87,406.77 L 284.85,406.73 L 284.83,406.70 L 284.80,406.67 L 284.78,406.64 L 284.75,406.61 L 284.72,406.58 L 284.68,406.55 L 284.67,406.54 L 284.65,406.52 L 284.62,406.50 L 284.59,406.48 L 284.56,406.46 L 284.53,406.45 L 284.51,406.43 L 284.47,406.42 L 284.38,406.38 L 284.34,406.37 L 284.28,406.35 L 284.25,406.35 L 284.22,406.35 L 284.15,406.33 L 284.10,406.32 L 284.06,406.31 L 284.03,406.31 L 283.99,406.30 L 283.95,406.29 L 283.91,406.27 L 283.89,406.26 L 283.87,406.24 L 283.87,406.21 L 283.87,406.19 L 283.87,406.16 L 283.88,406.14 L 283.89,406.10 L 283.91,406.05 L 283.93,406.00 L 283.94,405.97 L 283.96,405.93 L 283.97,405.90 L 283.99,405.86 L 284.01,405.83 L 284.02,405.80 L 284.05,405.75 L 284.07,405.72 L 284.09,405.68 L 284.10,405.65 L 284.11,405.60 L 284.13,405.55 L 284.14,405.51 L 284.15,405.48 L 284.15,405.44 L 284.16,405.38 L 284.16,405.34 L 284.16,405.31 L 284.16,405.28 L 284.16,405.24 L 284.16,405.19 L 284.16,405.15 L 284.15,405.13 L 284.15,405.10 L 284.14,405.08 L 284.13,405.06 L 284.11,405.02 L 284.08,404.99 L 284.04,404.94 L 284.00,404.90 L 283.97,404.86 L 283.93,404.83 L 283.87,404.76 L 283.82,404.71 L 283.78,404.66 L 283.72,404.59 L 283.68,404.53 L 283.65,404.49 L 283.61,404.43 L 283.60,404.42 L 283.56,404.36 L 283.52,404.29 L 283.52,404.29 L 283.51,404.29 L 283.46,404.20 L 283.36,404.04 L 283.32,404.00 L 283.23,403.92 L 283.15,403.83 L 283.06,403.78 L 282.85,403.64 L 282.76,403.58 L 282.70,403.52 L 282.63,403.45 L 282.57,403.36 L 282.50,403.27 L 282.43,403.15 L 282.41,403.11 L 282.38,403.06 L 282.36,403.03 L 282.33,402.98 L 282.29,402.93 L 282.25,402.88 L 282.22,402.84 L 282.18,402.81 L 282.12,402.76 L 282.07,402.72 L 282.03,402.69 L 281.97,402.65 L 281.89,402.58 L 281.89,402.58 L 281.85,402.55 L 281.80,402.52 L 281.76,402.49 L 281.70,402.44 L 281.66,402.40 L 281.64,402.39 L 281.59,402.34 L 281.56,402.32 L 281.50,402.26 L 281.46,402.23 L 281.43,402.21 L 281.40,402.19 L 281.37,402.18 L 281.35,402.17 L 281.31,402.16 L 281.25,402.15 L 281.20,402.15 L 281.16,402.15 L 281.13,402.15 L 281.11,402.14 L 281.09,402.13 L 281.07,402.11 L 281.07,402.08 L 281.07,402.04 L 281.07,402.02 L 281.07,402.02 L 281.09,401.96 L 281.11,401.92 L 281.13,401.86 L 281.17,401.80 L 281.21,401.75 L 281.27,401.67 L 281.31,401.62 L 281.34,401.59 L 281.41,401.52 L 281.45,401.46 L 281.48,401.42 L 281.51,401.38 L 281.53,401.35 L 281.55,401.30 L 281.58,401.25 L 281.62,401.19 L 281.64,401.17 L 281.64,401.16 L 281.65,401.16 L 281.67,401.13 L 281.72,401.10 L 281.77,401.06 L 281.83,401.01 L 281.79,400.88 L 281.77,400.78 L 281.73,400.66 L 281.95,400.62 L 281.90,400.44 L 281.99,400.37 L 281.91,400.31 L 281.90,400.30 L 281.78,400.21 L 281.68,400.16 L 281.63,400.13 L 281.58,400.09 L 281.55,400.06 L 281.53,400.03 L 281.52,399.99 L 281.51,399.90 L 281.49,399.78 L 281.49,399.76 L 281.48,399.74 L 281.47,399.72 L 281.45,399.69 L 281.30,399.67 L 281.22,399.65 L 281.18,399.65 L 281.16,399.65 L 281.15,399.65 L 281.13,399.66 L 281.12,399.67 L 281.11,399.68 L 281.11,399.69 L 281.09,399.70 L 281.05,399.79 L 281.04,399.81 L 281.04,399.81 L 281.03,399.84 L 281.03,399.86 L 280.97,399.87 L 280.95,399.87 L 280.91,399.89 L 280.89,399.89 L 280.88,399.90 L 280.88,399.92 L 280.87,399.93 L 280.86,399.95 L 280.86,399.96 L 280.84,399.97 L 280.81,399.98 L 280.80,399.98 L 280.80,399.98 L 280.79,399.96 L 280.79,399.96 L 280.79,399.96 L 280.78,399.96 L 280.76,399.98 L 280.74,399.99 L 280.75,400.00 L 280.73,400.02 L 280.73,400.02 L 280.67,400.06 L 280.69,400.09 L 280.67,400.11 L 280.56,400.22 L 280.44,400.35 L 280.43,400.36 L 280.32,400.44 L 280.33,400.46 L 280.31,400.47 L 280.28,400.49 L 280.26,400.50 L 280.22,400.52 L 280.17,400.55 L 280.16,400.54 L 280.15,400.54 L 280.16,400.56 L 280.11,400.59 L 280.12,400.61 L 280.07,400.61 L 280.06,400.62 L 280.05,400.63 L 280.07,400.70 L 279.85,400.71 L 279.81,400.71 L 279.74,400.72 L 279.71,400.73 L 279.66,400.74 L 279.62,400.75 L 279.55,400.76 L 279.52,400.78 L 279.47,400.80 L 279.46,400.80 L 279.39,400.84 L 279.32,400.89 L 279.27,400.92 L 279.19,400.98 L 279.09,401.06 L 279.03,401.12 L 278.97,401.17 L 278.92,401.21 L 278.86,401.25 L 278.82,401.28 L 278.78,401.30 L 278.72,401.32 L 278.66,401.34 L 278.60,401.35 L 278.56,401.36 L 278.53,401.36 L 278.46,401.37 L 278.40,401.37 L 278.33,401.37 L 278.27,401.36 L 278.26,401.36 L 278.24,401.36 L 278.22,401.35 L 278.19,401.34 L 278.15,401.32 L 278.11,401.30 L 278.06,401.27 L 278.04,401.25 L 278.00,401.22 L 277.97,401.18 L 277.93,401.14 L 277.91,401.11 L 277.89,401.08 L 277.87,401.04 L 277.83,400.97 L 277.80,400.91 L 277.77,400.85 L 277.74,400.80 L 277.72,400.77 L 277.70,400.75 L 277.66,400.73 L 277.62,400.72 L 277.59,400.71 L 277.54,400.70 L 277.50,400.70 L 277.46,400.71 L 277.39,400.72 L 277.33,400.73 L 277.27,400.75 L 277.25,400.76 L 277.23,400.76 L 277.21,400.78 L 277.19,400.79 L 277.15,400.82 L 277.10,400.87 L 277.04,400.95 L 276.97,401.04 L 276.89,401.14 L 276.86,401.19 L 276.82,401.22 L 276.73,401.31 L 276.62,401.39 L 276.49,401.48 L 276.35,401.56 L 276.26,401.60 L 276.20,401.62 L 276.13,401.65 L 276.05,401.69 L 275.96,401.73 L 275.90,401.76 L 275.85,401.79 L 275.77,401.85 L 275.68,401.93 L 275.60,402.00 L 275.59,402.01 L 275.58,402.02 L 275.56,402.03 L 275.55,402.03 L 275.54,402.03 L 275.53,402.04 L 275.52,402.04 L 275.50,402.04 L 275.49,402.03 L 275.47,402.03 L 275.45,402.02 L 275.43,402.01 L 275.41,401.99 L 275.38,401.97 L 275.35,401.94 L 275.30,401.89 L 275.22,401.80 L 275.18,401.75 L 275.12,401.68 L 275.08,401.64 L 275.04,401.62 L 274.99,401.61 L 274.98,401.54 L 274.99,401.46 L 275.03,401.47 L 275.03,401.45 L 275.01,401.45 L 275.07,401.21 L 275.08,401.14 L 275.07,401.11 L 275.07,401.07 L 275.07,401.05 L 275.06,401.03 L 275.06,401.01 L 275.04,400.99 L 274.82,400.84 L 274.79,400.81 L 274.74,400.77 L 274.72,400.76 L 274.68,400.74 L 274.65,400.72 L 274.62,400.71 L 274.57,400.71 L 274.55,400.70 L 274.50,400.71 L 274.49,400.72 L 274.47,400.73 L 274.44,400.77 L 274.43,400.77 L 274.41,400.81 L 274.40,400.85 L 274.40,400.89 L 274.40,400.93 L 274.40,401.03 L 274.40,401.10 L 274.41,401.13 L 274.42,401.13 L 274.43,401.16 L 274.43,401.17 L 274.44,401.18 L 274.44,401.20 L 274.45,401.22 L 274.46,401.23 L 274.48,401.25 L 274.52,401.28 L 274.54,401.29 L 274.53,401.31 L 274.55,401.32 L 274.59,401.34 L 274.62,401.36 L 274.64,401.38 L 274.66,401.42 L 274.68,401.45 L 274.70,401.47 L 274.71,401.52 L 274.71,401.55 L 274.72,401.58 L 274.71,401.63 L 274.71,401.68 L 274.73,401.74 L 274.65,401.79 L 274.59,401.81 L 274.53,401.83 L 274.47,401.84 L 274.42,401.85 L 274.37,401.85 L 274.28,401.86 L 274.20,401.87 L 274.15,401.87 L 274.10,401.87 L 274.04,401.86 L 274.00,401.85 L 273.98,401.84 L 273.91,401.80 L 273.86,401.75 L 273.81,401.70 L 273.79,401.68 L 273.77,401.66 L 273.76,401.64 L 273.72,401.60 L 273.69,401.53 L 273.65,401.45 L 273.59,401.31 L 273.53,401.22 L 273.50,401.19 L 273.46,401.17 L 273.41,401.15 L 273.37,401.15 L 273.30,401.15 L 273.27,401.16 L 273.19,401.18 L 273.14,401.20 L 273.07,401.24 L 272.98,401.29 L 272.86,401.35 L 272.65,401.47 L 272.56,401.52 L 272.53,401.55 L 272.50,401.60 L 272.49,401.62 L 272.48,401.64 L 272.47,401.66 L 272.48,401.68 L 272.48,401.69 L 272.49,401.71 L 272.50,401.73 L 272.52,401.75 L 272.56,401.78 L 272.60,401.83 L 272.65,401.89 L 272.73,401.95 L 272.79,401.99 L 272.82,402.01 L 272.89,402.04 L 272.94,402.06 L 273.02,402.08 L 273.04,402.08 L 273.05,402.09 L 273.11,402.10 L 273.21,402.11 L 273.29,402.12 L 273.37,402.12 L 273.47,402.12 L 273.51,402.12 L 273.52,402.13 L 273.54,402.13 L 273.55,402.14 L 273.56,402.14 L 273.58,402.15 L 273.59,402.17 L 273.61,402.18 L 273.63,402.23 L 273.64,402.25 L 273.64,402.26 L 273.65,402.29 L 273.65,402.33 L 273.53,402.36 L 273.46,402.37 L 273.38,402.38 L 273.37,402.40 L 273.36,402.40 L 273.35,402.39 L 273.32,402.38 L 273.30,402.38 L 273.29,402.38 L 273.27,402.38 L 273.26,402.38 L 273.24,402.36 L 273.20,402.35 L 273.17,402.33 L 273.18,402.32 L 273.16,402.31 L 273.17,402.30 L 273.15,402.28 L 273.13,402.26 L 273.08,402.22 L 273.04,402.19 L 273.02,402.17 L 272.99,402.14 L 272.99,402.14 L 272.99,402.14 L 272.95,402.20 L 272.94,402.21 L 272.89,402.18 L 272.83,402.15 L 272.82,402.15 L 272.80,402.14 L 272.79,402.14 L 272.74,402.22 L 272.72,402.19 L 272.72,402.19 L 272.66,402.22 L 272.66,402.22 L 272.62,402.24 L 272.52,402.20 L 272.48,402.23 L 272.46,402.22 L 272.46,402.21 L 272.45,402.19 L 272.47,402.18 L 272.46,402.17 L 272.46,402.17 L 272.45,402.16 L 272.44,402.14 L 272.44,402.14 L 272.43,402.12 L 272.44,402.07 L 272.34,402.01 L 272.38,401.89 L 272.36,401.88 L 272.36,401.88 L 272.35,401.88 L 272.35,401.87 L 272.36,401.84 L 272.34,401.83 L 272.30,401.83 L 272.29,401.81 L 272.29,401.79 L 272.26,401.80 L 272.24,401.73 L 272.24,401.71 L 272.22,401.69 L 272.22,401.69 L 272.21,401.67 L 272.19,401.65 L 272.17,401.63 L 272.13,401.62 L 272.11,401.60 L 272.10,401.59 L 272.10,401.58 L 272.09,401.57 L 272.07,401.56 L 272.03,401.53 L 271.99,401.50 L 271.95,401.47 L 271.91,401.44 L 271.88,401.42 L 271.80,401.37 L 271.73,401.31 L 271.71,401.29 L 271.69,401.28 L 271.67,401.26 L 271.65,401.25 L 271.63,401.23 L 271.60,401.22 L 271.55,401.19 L 271.52,401.18 L 271.48,401.17 L 271.45,401.15 L 271.43,401.15 L 271.40,401.14 L 271.38,401.14 L 271.36,401.13 L 271.32,401.13 L 271.31,401.12 L 271.30,401.11 L 271.29,401.10 L 271.28,401.09 L 271.27,401.08 L 271.27,401.07 L 271.26,401.03 L 271.25,401.02 L 271.23,400.98 L 271.19,400.89 L 271.18,400.85 L 271.16,400.80 L 271.14,400.77 L 271.12,400.73 L 271.12,400.72 L 271.12,400.70 L 271.10,400.64 L 271.10,400.55 L 271.09,400.45 L 271.10,400.41 L 271.09,400.39 L 271.09,400.37 L 271.07,400.33 L 271.05,400.31 L 271.03,400.28 L 271.01,400.26 L 270.98,400.24 L 270.95,400.22 L 270.94,400.19 L 270.91,400.17 L 270.89,400.14 L 270.89,400.13 L 270.88,400.12 L 270.86,400.08 L 270.84,400.05 L 270.83,400.02 L 270.82,399.99 L 270.81,399.97 L 270.79,399.94 L 270.78,399.91 L 270.76,399.90 L 270.75,399.88 L 270.72,399.87 L 270.70,399.85 L 270.68,399.83 L 270.67,399.82 L 270.64,399.81 L 270.61,399.79 L 270.57,399.77 L 270.53,399.75 L 270.48,399.71 L 270.47,399.70 L 270.45,399.68 L 270.43,399.65 L 270.42,399.63 L 270.40,399.58 L 270.38,399.54 L 270.37,399.52 L 270.37,399.51 L 270.37,399.50 L 270.38,399.49 L 270.41,399.48 L 270.43,399.46 L 270.44,399.46 L 270.46,399.44 L 270.46,399.43 L 270.47,399.43 L 270.49,399.42 L 270.50,399.42 L 270.52,399.42 L 270.55,399.43 L 270.58,399.43 L 270.62,399.44 L 270.66,399.44 L 270.69,399.45 L 270.73,399.46 L 270.74,399.46 L 270.75,399.46 L 270.75,399.45 L 270.76,399.45 L 270.76,399.44 L 270.77,399.36 L 270.77,399.32 L 270.78,399.27 L 270.78,399.22 L 270.78,399.17 L 270.78,399.17 L 270.78,399.12 L 270.78,399.07 L 270.77,399.02 L 270.76,398.95 L 270.76,398.93 L 270.75,398.89 L 270.74,398.86 L 270.73,398.83 L 270.71,398.77 L 270.70,398.72 L 270.68,398.67 L 270.67,398.64 L 270.67,398.62 L 270.67,398.61 L 270.67,398.60 L 270.67,398.58 L 270.67,398.56 L 270.67,398.53 L 270.67,398.53 L 270.66,398.51 L 270.66,398.51 L 270.64,398.48 L 270.63,398.47 L 270.63,398.45 L 270.62,398.44 L 270.61,398.43 Z" fill="#E5E7EB" stroke="#374151" stroke-width="1" fill-rule="evenodd"/>
</svg>