<?xml version="1.0" encoding="UTF-8"?>
<!DOCTYPE svg PUBLIC "-//W3C//DTD SVG 1.1//EN" "http://www.w3.org/Graphics/SVG/1.1/DTD/svg11.dtd">
<!-- Creator: CorelDRAW 2021 (64-Bit) -->
<svg xmlns="http://www.w3.org/2000/svg" xml:space="preserve" width="0.417035in" height="0.617811in" version="1.1" shape-rendering="geometricPrecision" text-rendering="geometricPrecision" image-rendering="optimizeQuality" fill-rule="evenodd" clip-rule="evenodd"
viewBox="0 0 60.83 90.12"
 xmlns:xlink="http://www.w3.org/1999/xlink"
 xmlns:xodm="http://www.corel.com/coreldraw/odm/2003">
 <g id="Layer_x0020_1">
  <metadata id="CorelCorpID_0Corel-Layer"/>
  <path fill="none" fill-rule="nonzero" stroke="#336666" stroke-width="0.44" stroke-miterlimit="2.61313" d="M41.5 10.77l-0.09 0 -0 -0.93 -0 -0.01 -0.01 -0.01 -0.01 -0.01 -0 -0 -0.01 -0.01 -0 -0 -0.01 -0.01 -0 -0 -0.01 -0.01 -0 -0 -0.01 -0.01 -0 -0 -0.01 -0.01 -0 -0 -0.01 -0.01 -0 -0.01 -0.01 -0.01 -0.01 -0.01 -0 -0.01 -0.01 -0.01 -0 -0 -0.01 -0.01 -0 -0 -0.01 -0.01 -0 0 -0.01 -0.02 -0 -0 -0.01 -0.01 -0 -0 -0.01 -0.01 -0 -0.01 -0.01 -0.01 -0 -0.01 -0.01 -0.01 -0.01 -0.01 -0 -0.01 -0.01 -0.01 -0 -0 -0.01 -0.01 -0 -0 -0.01 -0.02 -0 -0 -0.01 -0.01 -0 -0 -0.01 -0.01 -0 -0 -0.01 -0.01 -0.01 -0.01 -0.01 -0.01 -0.01 -0.01 -0 -0.01 -0.01 -0.01 -0 -0 -0.01 -0.01 -0 -0 -0.01 -0.02 -0 0 -0.01 -0.02 -0 -0 -0.01 -0.01 -0 -0.01 -0.01 -0.01 -0 -0.01 -0.01 -0.01 -0.01 -0.01 -0 -0.01 -0.01 -0.01 -0 -0.01 -0.01 -0.01 -0 -0 -0.01 -0.01 -0 -0 -0.01 -0.02 -0 -0 -0.01 -0.02 -0 -0 -0.01 -0.01 -0 -0.01 -0.01 -0.01 -0 -0.01 -0.01 -0.01 -0.01 -0.01 -0 -0.01 -0.01 -0.01 -0 -0 -0.01 -0.01 -0 -0 -0.01 -0.02 0 -0 -0.01 -0.02 -0 -0 -0.01 -0.01 -0 -0 -0.01 -0.01 -0 -0.01 -0.01 -0.01 -0.01 -0.01 -0.01 -0.01 -0.01 -0.01 -0 -0.01 -0.02 -0.03 -0 -0 -0.01 -0.02 -0 0 -0.01 -0.01 -0 -0 -0.01 -0.01 -0 -0 -0.01 -0.01 -0 -0.01 -0.01 -0.01 -0.01 -0.01 -0 -0.01 -0.01 -0.01 -0 -0 -0.01 -0.01 -0 -0 -0.01 -0.01 0 -0.01 0 -0.01 0 -0.01 -0 -0.01 0 -0.01 0 -0.01 0 -0.01 0 -0.01 0 -0.01 0 -0.01 0 -0.01 0 -0.01 0 -0.01 0 -0.01 0 -0.01 0 -0.01 -0 -0.01 0 -0.01 0 -0.01 0 -0.01 0 -0.01 0 -0.01 0 -0.01 0 -0.01 0 -0.01 0 -0.01 0 -0.01 0 -0.01 0 -0.01 0 -0.01 0 -0.01 0 -0.01 0 -0.01 -0 -0.01 0 -0.01 -0 -0 -0.01 0 -0.01 0 -0.01 0 -0.01 0 -0.01 0 -0.01 0 -0.01 0 -0.01 0 -0.01 0 -0.01 0 -0.01 0 -0.01 0 -0.01 0 -0.01 0 -0.01 0 -0.01 0 -0.01 0 -0.01 0 -0.01 0 -0.01 0 -0.01 0 -0.01 0 -0.01 0 -0.01 0 -0.01 0 -0.01 0 -0.01 0 -0.01 0 -0.01 0 -0.01 0 -0.01 0 -0.01 0 -0.01 0 -0.01 0 -0.01 0 -0.01 0 -0.01 0 -0.01 0 -0.01 0 -0.01 0 -0.01 0 -0.01 0 -0.01 0 -0.01 0 -0.01 0 -0.01 0 -0.01 0 -0.01 0 -0.01 0 -0.01 0 -0.01 0 -0.01 0 -0.01 0 -0.01 0 -0.01 0 -0.01 0 -0.01 0 -0.01 0 -0.01 0 -0.01 0 -0.01 0 -0.01 0 -0.01 0 -0.01 0c-0.67,0.73 -1.35,1.47 -2.02,2.11 -0.13,0 -0.25,0 -0.38,0 0,0.27 0,0.55 0,0.73 -0.25,0.18 -0.51,0.28 -0.72,0.46 -0.21,0 -0.51,0 -0.76,0.01 -0.55,0.37 -1.1,0.56 -1.69,0.74 -0.76,0.01 -1.48,0.01 -2.24,0.02l-0.01 -0 -0 -0 -0.01 -0 -0 -0 -0.01 -0 -0 -0 -0.01 -0 -0 -0 -0.01 -0 -0 0 -0.01 -0 -0 -0 -0.01 -0 -0 -0 -0.01 -0 -0.01 -0.01 -0 -0 -0.01 -0 -0 -0 -0.01 -0 -0 0 -0.01 -0 -0 -0 -0.01 -0 -0 -0 -0.01 -0.01 -0 -0 -0.01 -0 -0.01 -0.01 -0.01 -0 -0 -0 -0.01 -0 -0 -0 -0.01 -0 -0.01 -0 -0 -0 -0.01 -0 -0.01 -0.01 -0 -0 -0.01 -0.01 -0 -0 -0.01 -0.01 -0.01 -0.01 -0.01 -0.01 -0.01 -0.01 -0 0 -0.01 -0.01 -0.01 -0.01 -0 -0 -0.01 -0.01 -0.01 -0.01 -0 -0 -0.01 -0.01 -0.01 -0.01 -0 0 -0.01 -0.01 -0 -0 -0.01 -0.01 -0.01 -0 -0.01 -0 -0.01 -0.01 -0.01 -0.01 -0 -0 -0.01 -0.01 -0 -0 -0.01 -0.01 -0.01 -0.01 -0.01 -0.01 -0.01 -0.01 -0.01 -0.01 -0.01 -0.01 -0.01 -0.01 -0.01 -0.01 -0.01 -0.01 -0.01 -0.01 -0 -0 -0.01 -0.01 -0 -0 -0.01 -0.01 -0 -0 -0.01 -0.01 -0.01 -0.01 -0.01 -0.01 -0 -0 -0.01 -0.01c-0.21,-0 -0.41,-0.04 -0.6,-0.12l-0.01 0 -0.01 0 -0.01 0 -0.01 0 -0.01 0 -0.01 0 -0.01 0 -0.01 0 -0.01 0 -0.03 -0.02 -0.03 -0.02 -0.03 -0.02 -0 -0c-0.06,-0.03 -0.11,-0.06 -0.17,-0.09 -0.08,0 -0.17,-0.14 -0.26,-0.24l-0.16 -0.12 -0 0 -0.01 -0.01c-0.3,-0.23 -0.6,-0.43 -0.89,-0.64 -0.08,-0.06 -0.16,-0.11 -0.24,-0.19 -0.16,-0.1 -0.29,-0.16 -0.37,-0.17l-0.01 0 -0 0 -0 0 -0.01 0 -0.01 0 -0.01 0 -0.01 0 -0.01 0 -0.01 0 -0.01 0 -0.01 0 -0.01 0 -0.01 0 -0.01 0 -0.01 0 -0.01 0 -0.01 0 -0.01 0 -0.01 0 -0.01 0 -0.01 0 -0.01 0 -0.01 0 -0.01 0 -0.01 0 -0.01 0c0,0.18 0,0.27 0,0.36 -0.5,0.73 -0.97,1.38 -1.43,1.93 -0.21,-0.18 -0.47,-0.36 -0.64,-0.63l-0.01 0 -0.01 0 -0.01 0 -0.01 0 -0.01 0 -0.01 0 -0.01 0 -0.01 0 -0.01 0 -0.01 0 -0.01 0 -0.01 0 -0.01 0 -0.01 0 -0.01 0 -0.01 0 -0.01 0 -0.01 0 -0.01 0 -0.01 0 -0.01 0 -0.01 0 -0.01 0 -0.01 0 -0.01 0 -0.01 0 -0.01 0 -0.01 0 -0.01 0 -0.01 0 -0.01 0 -0.01 0 -0.01 0 -0.01 0 -0.01 0 -0.01 0 -0.01 0 -0 0c-0.07,0.07 -0.15,0.15 -0.22,0.22l0 0.06c-1.07,-0.01 -1.81,-0.46 -2.57,-1.35 -0.34,-0.36 -0.68,-0.72 -1.02,-1.27 -0.13,-0.18 -0.26,-0.45 -0.38,-0.73 -0.25,-0.18 -0.51,-0.45 -0.76,-0.72 -0.13,-0.36 -0.26,-0.64 -0.38,-1 -0.13,-0.36 -0.26,-0.73 -0.43,-1.09 -0.13,-0.36 -0.26,-0.64 -0.38,-0.91 -0.25,-0.18 -0.51,-0.45 -0.76,-0.72 -0,-0.27 -0,-0.64 -0,-0.91 -0.21,-0.09 -0.42,-0.18 -0.59,-0.36 -0,-0.18 -0,-0.37 -0,-0.55 -0.13,-0.09 -0.25,-0.18 -0.42,-0.36 -0.38,-0.45 -0.72,-0.91 -1.49,-1.17 -0.25,-0.09 -0.55,-0.18 -0.8,-0.36 -0.55,0 -1.1,0.01 -1.69,0.01 -0.13,-0.09 -0.25,-0.18 -0.38,-0.36 -0.25,0.09 -0.51,0.1 -0.76,0.1 -0.13,-0.09 -0.25,-0.27 -0.38,-0.45 -0.42,0 -0.8,0.01 -1.14,0.01 -0.13,0.18 -0.25,0.37 -0.34,0.46 -0.59,0.19 -1.18,0.28 -1.73,0.47 -0.21,0.28 -0.46,0.55 -0.67,0.73 -0.29,0.46 -0.55,0.92 -0.76,1.28 -0.25,0.18 -0.51,0.37 -0.72,0.55 -0.46,0.19 -0.93,0.28 -1.35,0.47 -0.25,0.18 -0.51,0.37 -0.72,0.46 -0.38,0 -0.38,0.46 -0.33,1.55 0,0.27 0,0.64 0,0.91 0,0.37 -0.38,1.28 -1.47,2.57 -0.34,0.37 -0.76,1.28 -0.71,2.01 0,0.36 0,0.64 0,0.91 0.17,0.36 0.3,0.64 0.43,0.91 0.38,1.09 0.81,2.36 0.81,2.73 0,0.46 0,1 0,1.46 -0.25,0.82 -0.46,1.64 -0.67,2.38 0.01,1.46 -0.92,2.65 -2.82,3.03 -0.25,0 -0.51,0 -0.72,0.01 0,0.73 0.01,1.37 0.05,2 0.09,0.27 0.21,0.45 0.34,0.73 0.13,0.27 0.26,0.55 0.47,0.73 0.01,1.28 0.01,2.55 0.06,3.83 0.13,0.27 0.26,0.55 0.38,0.73 0.26,0.91 0.51,1.91 0.81,2.73 0.13,-0 0.25,-0 0.38,-0 0.98,1.36 1.36,2.09 1.36,3 0,0.36 0,0.73 0.05,1.09 -0.13,0.37 -0.25,0.82 -0.33,1.1 -0.21,0.37 -0.38,0.73 -0.55,1.1 0,0.27 0,0.64 0,0.91 0.17,0.18 0.34,0.27 0.55,0.36 0.06,0.14 0.13,0.27 0.2,0.4 -0.06,-0.06 -0.11,-0.12 -0.15,-0.22 -0.13,0 -0.25,0 -0.38,0 0.13,0.18 0.25,0.27 0.38,0.36 1.07,2.18 1.75,3.89 2.9,5.98 0.51,0.91 1.02,1.82 1.53,2.63 0.26,0.55 0.51,1.09 0.81,1.54 0.26,0.45 0.51,0.82 0.77,1.27 0.13,0.36 0.73,1.11 0.85,1.29 0.13,0.18 -0.21,0.36 -0.09,0.45 0,0.27 0,0.55 0,0.73 0.55,0.36 0.05,2.19 -0.62,4.56 0,0.27 0.47,0.73 0.47,0.91 -0.33,1.37 -1.47,1.83 -3.54,2.4 -0.13,0 -0.25,0 -0.38,0 -1.1,0.46 -2.28,0.11 -3,-0.43 -0.47,-0.09 -0.89,-0.18 -1.35,-0.26 0.13,0.27 0.3,0.55 0.43,0.82 0,0.27 0,1.02 0,1.2 -0.13,0.37 -0.29,0.82 -0.38,1.28 0.85,-0.1 1.65,-0.1 2.45,-0.11 1.14,0.45 1.57,1.27 1.95,2.17 0.13,0.64 0.26,0.81 0.39,1.35 0,0.46 0,0.82 0.09,1.09 0.17,-0 0.34,-0 0.55,-0 0.13,0.27 0.26,0.55 0.38,0.73 0.34,0.27 0.72,0.54 1.1,0.81 0.25,0.18 0.55,0.27 0.8,0.36 0.38,0.36 1.14,0.72 1.48,0.35 0.17,-0.09 0.34,-0.18 0.59,-0.37 1.1,-1.29 1.81,-1.75 2.62,-1.39 0.42,0.18 0.85,0.27 1.31,0.35 0.72,0.45 1.15,1.37 1.53,2.1 0.38,0.27 0.76,0.72 1.14,0.72 0.42,0.18 0.85,0.27 1.31,0.35 0.25,0.18 0.51,0.36 0.76,0.54 0.47,0.54 0.98,0.81 1.53,1.17 0.38,0.55 0.76,0.53 1.15,0.98 0,0.27 0,0.46 0,0.55 -0.33,1.28 0.05,2.1 0.43,2.55 0.97,-0.01 1.9,-0.1 2.83,-0.11 0.34,0.36 0.76,0.72 1.15,1.09 0.68,-0.01 1.35,0.37 2.07,0.36 0.13,0.18 0.26,0.36 0.38,0.45 0.38,0.18 0.76,0.27 1.14,0.36 0.13,0.18 0.25,0.36 0.38,0.64 0.38,0.73 1.36,1.08 2.08,1.08 0.38,-0 0.76,-0.48 1.18,-0.48 0.55,0.18 1.1,0.27 1.65,0.26 0.34,-0 0.72,-0.01 1.14,-0.01 0,-0.09 -0,-0.18 -0,-0.37 0.13,-0 0.25,-0 0.38,-0 1.06,-0.46 2.41,-0.57 2.79,0.62 1.15,1.63 1.91,2.91 2.72,3.45 1.31,1 1.81,1.9 2.91,1.9 2.07,-0.11 3.86,-0.66 3.86,-1.03 0.08,-0.18 0.21,-0.46 0.34,-0.73 -0.05,-1 -0.01,-2.01 -0.01,-3.01 0.13,-0 0.25,-0 0.38,-0 0.34,0.18 0.72,0.27 1.1,0.36 0.55,-0.28 1.14,-0.55 1.69,-0.92 0.08,-0.37 0.21,-0.73 0.33,-1.1 -0,-0.55 -0,-1.1 -0.01,-1.82 0.13,0.18 0.25,0.36 0.38,0.64 0.21,0.18 0.55,0.27 0.81,0.36 1.18,0.27 2.12,0.72 2.5,0.26 1.86,-0.1 2.66,-0.47 2.62,-1.48 -0,-0.27 -0,-0.55 -0,-0.82 -0.17,-0.45 -0.3,-0.91 -0.43,-1.55 -0.25,-0.27 -0.51,-0.54 -0.72,-0.82 -0.21,-0.18 -0.34,-0.45 -0.47,-0.82 -0.13,-0.09 -0.25,-0.18 -0.34,-0.36 -0.04,-0.09 -0.04,-0.27 -0.04,-0.55 -0.26,-0.64 -0.51,-1.27 -0.77,-1.91 -0.68,-0.18 -1.35,-0.45 -2.12,-0.81 -0.25,-0.18 -0.55,-0.45 -0.81,-0.82 -0.13,-0.27 -0.26,-1.01 -0.38,-1.29 -0.51,-0.45 -1.02,-1.09 -1.57,-1.63 -0.34,0 -0.63,0 -0.93,0.01 -0.13,-0.09 -0.25,-0.18 -0.38,-0.36 -0.38,-0.27 -0.76,-0.63 -1.52,-0.63 -0.68,0 -0.88,0.01 -1.56,0.01 -0.04,-0.18 -0.04,-0.36 -0.04,-0.55 0.3,-0.37 0.59,-0.64 0.93,-0.92 0.08,-0.18 0.21,0.01 0.34,-0.26 -0.05,-1.28 -0.52,-2.46 -0.53,-3.83 -0.13,-0.18 -0.25,-0.45 -0.38,-0.73 -0.04,-0.46 -0.05,-1.09 -0.05,-1.64 -0.13,-0.18 -0.25,-0.45 -0.38,-0.64 -0,-0.27 -0,-0.55 -0,-0.82 -0.21,-0.18 -0.38,-0.27 -0.55,-0.45 -0.3,-0.36 -0.55,-0.91 -0.81,-1.45 -0,-0.82 -0.39,-1.73 -1.53,-2.18 -1.23,-1.36 -1.99,-2.72 -3.18,-4.08 0.08,-0.64 0.21,-1.37 0.33,-2.01 -0.13,-0.09 -0.25,-0.18 -0.38,-0.36 -0,-0.09 -0,-0.18 -0,-0.37 -0.38,-0.73 -0.77,-1.45 -1.15,-2.18 -0.25,-0.18 -1.02,-0.54 -1.27,-0.72 -0.21,-0.27 -0.43,-0.54 -0.6,-0.82 -0.38,-0.36 -0.76,-0.72 -1.15,-1.18 -0.13,0 -0.21,0 -0.34,0 -0.13,-0.27 -0.26,-0.64 -0.38,-1 -0.51,-0.18 -1.02,-0.92 -1.52,-1.1 -0.85,-0.08 -1.65,-0.17 -2.45,-0.35 -0.3,-0.18 -0.55,-0.36 -0.76,-0.54 -0.47,0 -1.36,-0.08 -1.78,-0.26 -1.45,0.01 -2.9,0.09 -4.31,0.12l0 -0.07c0.13,-0.37 0.25,-0.73 0.38,-1.28 -0.18,-2.37 -0.35,-4.74 -0.49,-7.11 0.21,-0.18 0.46,-0.46 0.72,-0.74 0.33,-1.28 0.88,-1.65 1.64,-2.11 0.25,-0.09 0.51,-0.28 0.76,-0.55 0.34,-0 0.76,-0 1.14,-0.01 0.14,-0.19 0.31,-0.38 0.48,-0.6l0 0.2c0.28,-0.19 0.45,-0.27 0.44,-0.52 -0.04,-0.09 -0.04,-0.18 -0.04,-0.36 0.13,0.27 0.26,0.55 0.42,0.73 0,0.46 0,1 0.01,1.46 0.13,0.36 0.26,0.73 0.43,1.09 0.38,0.82 1.15,1.54 2.72,2.99 0.93,0.36 2.07,0.62 3.51,0.61 1.18,-0.1 2.37,-0.11 3.6,-0.12 0.93,0.27 1.9,0.44 2.84,0.8 0.98,0.81 1.91,1.63 2.89,2.44 0.81,0.36 1.53,0.72 2.71,0.71 0.42,-0.19 0.84,-0.28 1.27,-0.47 0.21,-0.46 0.5,-0.92 0.76,-1.47 0.63,-0.73 1.3,-1.47 2.02,-2.48 0.08,-0.55 0.21,-1.1 0.33,-1.83 0.13,-0.18 0.25,-0.46 0.38,-0.73 -0.04,-0.18 -0.04,-0.46 -0.05,-0.73 -0.51,-0.91 -1.02,-1.63 -1.53,-2.63 -0.38,-0.36 -0.38,-1.09 -0.01,-2.01 -0.05,-0.91 -0.09,-1.82 -0.09,-2.92 0.13,-0.18 0.25,-0.46 0.38,-0.73 0.08,-0.09 0.25,-0.28 0.38,-0.64l-0 -0.32 -0.01 0 -0.02 0 -0.02 0 -0.01 0 -0.03 0 -0 0 -0.02 0 -0.01 0 -0.01 0 -0.02 0 -0 0 -0.03 0 -0.01 0 -0.02 0 -0.02 0 -0.01 0 -0.03 0 -0 0 -0.02 0 -0.01 0 -0.01 0 -0.03 0 -0 0 -0.03 0 -0.01 0 -0.02 0 -0.02 0 -0.01 0 -0.03 0 -0 0 -0.02 0 -0.01 0 -0.01 0 -0.03 0 -0 0 -0.03 0 -0.01 0 -0.02 0 -0.02 0 -0.01 0 -0.03 0 -0 0 -0.02 0 -0.01 0 -0.01 0 -0.03 0 -0 0 -0.03 0 -0.01 0 -0.02 0 -0.02 0 -0.01 0 -0.03 0 -0 0 -0.02 0 -0.01 0 -0.01 0 -0.03 0 -0 0 -0.03 0 -0.01 0 -0.02 0 -0.02 0 -0.01 0 -0.03 0 -0 0 -0.02 0 -0.02 0 -0.01 0 -0.03 0 -0 0 -0.03 0 -0.01 0 -0.02 0 -0.02 0 -0.01 0 -0.03 0 -0.01 0 -0.02 0 -0.02 0 -0.01 0 -0.03 0c-0.38,-0.18 -0.76,-0.45 -1.19,-0.72 -0.13,-0.18 -0.26,-0.45 -0.38,-0.73 -0.38,-0.36 -0.76,-0.63 -1.15,-0.81 -0.13,-0.09 -0.25,-0.18 -0.38,-0.36 -0.21,0 -0.42,0 -0.59,0.01 -0.13,-0.09 -0.25,-0.18 -0.38,-0.36 -0.25,-0.09 -0.51,-0.18 -0.72,-0.36 -0.13,-0.27 -0.26,-0.73 -0.38,-1.09 -0.25,-0.18 -0.51,-0.45 -0.81,-0.72 -0.13,-0.27 -0.26,-0.45 -0.38,-0.82 -0.85,-0.36 -1.69,-0.72 -2.5,-1.08 -0.38,-0.45 -0.76,-1 -1.1,-1.36 -0.17,-0.18 -0.34,-0.45 -0.47,-0.73 -0.25,-0.27 -0.51,-0.54 -0.72,-0.91 -0.21,0 -0.42,0 -0.59,0l0 -0.02 -0 -0.02 0 -0.02 0 -0.02 0 -0.02 0 -0.02 0 -0.02 -0 -0.02 0 -0.02 0 -0.02 0 -0.02 0 -0.02 0 -0.02 0 -0.02 0 -0.02 0 -0.02 -0 -0.02 0 -0.02 0 -0.02 0 -0.02 0 -0.02 0 -0.02 -0 -0.02 0 -0.02 0 -0.02 0 -0.02 0 -0.02 0 -0.02 0 -0.02 0 -0.01zm-37.31 31.33l0.04 0.05c0.22,0.17 0.46,0.35 0.7,0.54 -0.24,-0.08 -0.47,-0.18 -0.7,-0.35 -0.03,-0.07 -0.04,-0.13 -0.04,-0.23zm27.24 -14.07l-0 0.01 -0 0 -0 0 0.01 -0.01z"/>
 </g>
</svg>
