<?xml version="1.0" encoding="UTF-8"?>
<!DOCTYPE svg PUBLIC "-//W3C//DTD SVG 1.1//EN" "http://www.w3.org/Graphics/SVG/1.1/DTD/svg11.dtd">
<!-- Creator: CorelDRAW 2021 (64-Bit) -->
<svg xmlns="http://www.w3.org/2000/svg" xml:space="preserve" width="0.327091in" height="0.616126in" version="1.1" shape-rendering="geometricPrecision" text-rendering="geometricPrecision" image-rendering="optimizeQuality" fill-rule="evenodd" clip-rule="evenodd"
viewBox="0 0 44.84 84.47"
 xmlns:xlink="http://www.w3.org/1999/xlink"
 xmlns:xodm="http://www.corel.com/coreldraw/odm/2003">
 <g id="Layer_x0020_1">
  <metadata id="CorelCorpID_0Corel-Layer"/>
  <path fill="none" fill-rule="nonzero" stroke="#336666" stroke-width="0.41" stroke-miterlimit="2.61313" d="M7.66 46.45c0,0.17 0,0.26 0,0.34l-0.16 0 0 0c0.06,-0.25 0.14,-0.47 0.24,-0.68 -0.03,0.11 -0.06,0.22 -0.08,0.33zm-0.36 0.35c-0.12,0.34 -0.24,0.6 -0.31,0.86 0,0.43 0,0.86 -0.04,1.29 -0.12,0.52 -0.23,1.03 -0.31,1.46 0,0.34 0,0.6 0.04,0.86 -0.28,0.95 -0.55,1.89 -0.82,2.75 -0.16,0.26 -0.28,0.6 -0.39,0.78 -0.12,0.17 -0.24,0.26 -0.32,0.35 0,1.37 0.05,2.66 0.09,3.94 -0.12,0.52 -0.23,1.12 -0.35,1.55 -0.12,0.34 -0.28,0.77 -0.35,1.03 0,0.69 0,1.29 0.05,1.89 -0.12,0.43 -0.24,0.77 -0.31,1.12 -0.35,1.03 -0.31,1.72 0.01,2.06 0,0.17 0,0.26 0.04,0.34 0.36,0.51 0.68,0.77 1.08,0.76 0.12,0.26 0.24,0.51 0.36,0.68 0.12,0.43 0.24,0.94 0.4,1.37 0,0.51 0,1.03 0.01,1.54 -0.12,0.17 -0.24,0.26 -0.32,0.35 0,0.26 0,0.51 0,0.69 0.24,0.34 0.48,0.77 0.72,1.02 0,0.51 0,0.94 0,1.37 0.16,-0 0.36,-0 0.56,-0 0.2,0.34 0.44,0.6 0.68,0.85 0.12,0.26 0.28,0.51 0.44,0.68 0.32,0.34 0.68,0.85 1.04,1.28 0.76,0.34 1.55,0.67 2.35,1.01 0.12,0.34 0.24,0.51 0.36,0.77 0.28,0.26 0.52,0.51 0.76,0.68 0.12,0.34 0.24,0.77 0.36,1.03 0.2,0.17 0.44,0.25 0.68,0.34 0.12,0.17 0.24,0.25 0.36,0.34 0.16,-0 0.36,-0 0.56,-0 0.12,0.17 0.24,0.26 0.36,0.34 0.36,0.17 0.72,0.42 1.08,0.76 0.12,0.26 0.24,0.51 0.36,0.68 0.4,0.25 0.76,0.51 1.12,0.68 0.76,-0.01 1.55,-0.1 2.3,-0.1 0.32,-0.09 0.76,-0.18 1.11,-0.35 0.16,0.17 0.28,0.26 0.4,0.34 0.4,-0 0.79,-0.01 1.23,-0.09 0.12,-0.09 0.24,-0.17 0.36,-0.35 0,-0.09 -0,-0.17 -0,-0.34 -0.04,-0.69 0.31,-1.55 1.03,-1.89 0.55,-0.61 1.11,-1.38 1.74,-2.16 -0,-0.09 -0,-0.17 -0,-0.34 0.16,-0.09 0.32,-0.17 0.52,-0.35 0.2,-0.09 0.44,-0.26 0.67,-0.52 0.48,-0.09 0.95,-0.18 1.39,-0.35 0.24,0.17 0.48,0.25 0.76,0.34 0.2,0.26 0.44,0.51 0.68,0.77 0.16,-0.09 0.32,-0.17 0.52,-0.35 0.12,-0.26 0.24,-0.6 0.35,-0.86 0.08,-0.09 0.24,-0.17 0.36,-0.35 0.12,-0.17 0.24,-0.43 0.36,-0.69 0.32,-0.69 0.67,-1.72 0.66,-3.26 0.08,-0.43 0.2,-0.86 0.31,-1.37 -0.04,-1.03 -0.05,-2.14 -0.05,-3.26 -0,-0.51 0.31,-1.46 0.71,-1.81 0.32,-0.35 1.19,-0.87 1.95,-0.36 0.87,0.16 1.79,0.41 2.66,0.58 0.2,-0 0.44,-0 0.72,-0.01 0.24,0.17 0.48,0.25 0.72,0.34 0.44,-0.09 0.91,-0.09 1.43,-0.1 0.08,-0.09 0.2,-0.17 0.32,-0.35 -0,-0.09 -0,-0.17 -0,-0.34 0.12,-0.09 0.24,-0.17 0.36,-0.35 -0,-0.51 0.55,-0.86 0.87,-1.21 0.32,-0.17 0.67,-0.52 1.03,-0.78 0.04,-0.51 -0.36,-1.37 -0.72,-2.05 -0.24,-0.43 -0.48,-0.94 -0.72,-1.45 -0.56,-0.42 -0.92,-0.76 -1.99,-1.36 -0.6,-0.34 -1.2,-0.59 -1.79,-1.01 -1.24,-1.1 -2.04,-3.16 -2.05,-5.47 -0,-0.34 -0,-0.69 -0,-1.12 0.08,-0.26 0.2,-0.6 0.31,-0.95 0.08,-0.34 0.2,-0.69 0.31,-1.12 -0,-0.69 0.03,-1.29 0.03,-1.89 -0.28,-0.25 -0.52,-0.6 -0.76,-0.94l-0.04 0c0.23,-0.54 0.48,-1.17 0.71,-1.73 0.04,-0.07 0.08,-0.14 0.12,-0.21 0.28,-1.37 0.58,-2.8 0.86,-4.23 -0.01,-0.16 -0.01,-0.3 -0.01,-0.44l0.02 0c-0.02,-0.22 -0.02,-0.41 -0.02,-0.6 0.12,-0 0.24,-0 0.36,-0 0.2,-0.17 0.48,-0.43 0.71,-0.69 0.52,-0.26 1.03,-0.61 1.59,-0.87 0.44,-0.52 0.91,-1.04 1.42,-1.73 0.08,-0.34 0.2,-0.69 0.31,-1.2 0.2,-0.17 0.44,-0.52 0.71,-0.78 0.23,-0.16 0.42,-0.49 0.6,-0.93 0.14,-0.48 0.28,-1.01 0.42,-1.52 0.06,-0.12 0.11,-0.24 0.17,-0.36l0.03 -0.11c0.08,-0.34 0.2,-0.69 0.31,-1.03 -0.04,-0.34 -0.04,-0.77 -0.04,-1.2 0.2,-0.77 0.47,-1.63 0.71,-2.41 -0,-0.54 -0.2,-1.08 -0.56,-1.47 -0.1,-0.07 -0.2,-0.14 -0.31,-0.2l-0.05 -0.1c-0.06,-0.04 -0.13,-0.08 -0.2,-0.11 -0.36,-0.6 -0.72,-1.37 -0.72,-1.71 -0.2,-0.51 -0.4,-1.03 -0.56,-1.54 -0.04,-0.17 -0.04,-0.51 -0.04,-0.77 -0.12,-0.43 -0.24,-0.86 -0.36,-1.28 -0.12,-0.17 -0.24,-0.26 -0.36,-0.43 -0.03,-0.04 -0.06,-0.09 -0.08,-0.13 -0.08,0.07 -0.15,0.12 -0.19,0.17 -0.24,0 -0.48,0 -0.72,0.01 -0.44,-0.08 -1.32,-0.17 -1.71,-0.34 -0.24,0 -0.48,0.01 -0.68,0.01 -0.24,0 -0.52,-0.08 -0.76,-0.25 -0.72,-0.52 -1.43,-0.86 -1.99,-1.2 -0.12,-0.43 -0.24,-0.96 -0.36,-1.39 -0,-0.44 -0,-0.87 -0.01,-1.48 -0.4,-1.13 -0.41,-2.52 -0.77,-3.21 -1.08,-1.91 -1.84,-2.42 -2.71,-0.67 -0.24,0.18 -0.48,0.27 -0.71,0.44 -0.24,0.26 -0.47,0.53 -0.71,0.7 -0.24,0.26 -0.48,0.35 -0.67,0.44 -0.12,0.17 -0.24,0.35 -0.36,0.44 -0.56,0.35 -1.07,0.62 -1.59,1.06 -1.07,0.36 -1.75,0.36 -2.46,0.37 -2.38,0.11 -4.53,-0.74 -6.89,-2.29 -0.76,-0.25 -1.48,-1.47 -2.44,-3.55 -0.36,-0.87 -0.72,-1.74 -1.08,-2.69 -0.24,-0.17 -0.48,-0.26 -0.76,-0.43 -0,-0.26 -0,-0.61 -0,-0.87 0.87,-0.88 1.74,-1.84 2.61,-2.72 -0.12,-0.35 -0.24,-0.61 -0.36,-0.95 -0.2,-0.09 -0.36,-0.26 -0.52,-0.43 -0.36,-0.34 -0.76,0.01 -1.79,0.54 -0.68,0.18 -1.31,0.27 -1.99,0.37 -0.48,0.44 -0.91,0.79 -1.39,1.06 -0.36,0.26 -0.71,0.53 -1.03,0.79 -0.48,0.26 -0.87,0.36 -1.27,0.45 -0.52,0.27 -0.95,0.62 -1.39,0.79 -0.12,0.17 -0.23,0.26 -0.35,0.34l0 0.01 0 0 0 0 0 0 0 0 0 0 0 0 0 0 0 0 0 0 0 0 0 0 0 0 0 0 0 0.01 0 0 0 0 0 0 0 0 0 0 0 0 0 0 0 0 0 0 0 0 0 0 0 0 0 0 0 0 0 0 0 0.01 0 0 0 0 0 0 0 0.01 0 0 0 0 0 0 0 0.01 0 0 0 0 0 0.01 0 0 0 0 0 0 0 0 0 0 0 0 0 0 0 0 0 0 0 0 0 0 0 0 0 0 0 0 0 0 0 0 0 0 0 0 0 0 0 0 0 0 0 0 0 0 0 0 0 0 0 0 0 0 0 0c0.09,0.4 0.19,0.81 0.29,1.2l0 0.02 0.05 0.17c0.28,0.68 0.56,1.28 0.88,1.88 0.36,0.68 0.76,1.11 0.76,1.54 0,0.6 0,1.11 0.05,1.71 0.12,0.34 0.24,0.68 0.36,1.03 0,0.51 0,0.86 0.04,1.2l0 0 0 0 0 0 0 0 0 0 0 0 0 0 0 0 0 0 0 0 0 0 0 0 0 0 0 0 0 0 0 0 0 0 0 0 0 0 0 0 0 0 0 0 0 0 0 0 0 0 0 0 0 0 0 0 0 0 0 0 -0 0 0 0 0 0 0 0 0 0 0 0 0 0 0 0 0 0 0 0 0 0 0 0 0 0 0 0 0 0 0 0 0 0 0 0 -0 0 0 0 0 0 0 0 0 0 0 0 0 0 0 0 -0 0 0 0 0 0 0 0 0 0 0 0 0 0 0 0 0 0 0 0 0 0 0 0 0 0.02c0,0.34 -0.03,0.7 -0.09,1.06l-0 0.01 -0.01 0.04 -0 0.01 -0 0.03 -0.01 0.04 -0 0.01 -0.01 0.04 -0 0.01 -0.01 0.03 -0 0.03 -0 0.01 -0.01 0.05 -0 0.01 -0.01 0.08 -0.01 0.05 -0 0 -0.01 0.04 -0 0.02 -0 0.02 -0.01 0.04 -0 0 -0.01 0.04 -0 0.02 -0 0.03 -0.01 0.04 -0 0.01 -0.01 0.04 -0 0.02 -0.01 0.03 -0.01 0.04 -0 0.01 -0.01 0.05 -0 0.01 -0.01 0.03 -0.01 0.03 -0 0.01 -0.01 0.04 -0 0.01 -0.01 0.04 -0.01 0.03 -0 0.02 -0.01 0.05 -0 0 -0.01 0.04 -0.01 0.02 -0 0.02 -0.01 0.04 0 0 -0.01 0.04 -0 0.02 -0.01 0.02 -0.01 0.04 -0 0 -0.01 0.04 -0 0.02 -0.01 0.03 -0.01 0.04 -0 0.01 -0.01 0.04 -0 0.01 -0.01 0.03 -0.01 0.03 -0 0.01 -0.01 0.04 -0 0.01 -0.01 0.03 -0.01 0.03 -0 0.01 -0.01 0.04 -0.01 0.04 -0.01 0.03 -0 0.02 -0.01 0.04 -0 0 -0.01 0.04 -0.01 0.02 -0 0.02 -0.01 0.04 -0 0 -0.01 0.04 -0 0.02 -0.01 0.02 -0.01 0.04 -0 0 -0.01 0.04 -0 0.01 -0.01 0.03 -0.01 0.03 -0 0.01 -0.01 0.04 -0 0.01 -0.01 0.03 -0.01 0.03 -0 0.01 -0.01 0.04 -0 0.01 -0.01 0.03 -0.01 0.02 -0 0.02 -0.01 0.04 -0 0 -0.01 0.04 -0.01 0.02 -0 0.02 -0.01 0.04c-0.12,0.43 -0.23,0.86 -0.31,1.2 -0.55,0.95 -0.91,1.29 -1.23,1.64 -0.24,0.17 -0.48,0.26 -0.75,0.35 -0.67,0.52 -0.99,1.21 -1.39,1.73 -0.12,0.6 -0.23,0.94 -0.31,1.29 0,1.11 -0.31,1.89 -0.86,2.84 -0.24,0.26 -0.47,0.52 -0.67,0.78 -0.24,0.6 -0.47,1.03 -0.67,1.46 -0.28,0.26 -0.51,0.52 -0.71,0.86 -0.5,0.62 -0.86,1.23 -1.01,1.72 -0.01,0.15 -0.03,0.3 -0.07,0.41l0 0.01 0 0.02 0 0.01 0 0.01 0 0.03 0 0 0 0.03 0 0 0 0 0 0.01 0 0.01 0 0.01 0 0.01 0 0.01 0 0.01 0 0 0 0 0.01 0.02 0 0.01 0 0 0 0.01 0 0.01 0 0.01 0 0.01 0 0 0.01 0.02 0 0 0.01 0.02 0 0.01 0 0 0.01 0.02 0 0.01 0.02 0.03 0 0 0 0.01 0.01 0.01 0.01 0.01 0 0 0.01 0.01 0.01 0.01 0 0.01 0 0 0.01 0.01 0.01 0.01 0 0 0.01 0.01 0.01 0.01 0.01 0.01 0 0 0.01 0.01 0.02 0.02 0 0 0.01 0.01 0.01 0.01 0 0 0.01 0.01 0.02 0.02 0 0 0 0 0 0 0.02 0.02 0.01 0.01 0 0 0.01 0.01 0.01 0.01 0 0 0.01 0.01 0.01 0.01 0.01 0.01 0 0 0.01 0.01 0.01 0.01 0.01 0 0.01 0 0.03 0.01 0 0 0 0 0.01 0 0.02 0.01 0.02 0.01c0.2,0.17 0.44,0.25 0.64,0.25 1.11,0.51 1.47,0.84 1.48,1.53 0.01,1.37 0.05,2.74 0.09,4.03l-0.02 0.06 0.02 0.52c-0.07,0.22 -0.11,0.44 -0.13,0.68l0 0.05 0 0.05 0 0.01 0 0.04 0.01 0.05 0.01 0.05 0 0 0.01 0.05 0 0.02 0 0.03 0 0 0.02 0.1 0 0.02 0.01 0.03 0 0.01 0.01 0.04 0.01 0.05 0 0.01 0.01 0.04 0.01 0.04 0 0.02 0.02 0.1 0.01 0.03 0.01 0.02c0.01,0.05 0.03,0.1 0.04,0.16l0 0 0.01 0.05 0 0.01 0.02 0.05 0 0.02 0.01 0.04 0.01 0.04 0 0.01 0.02 0.06 0 0.01 0.02 0.05 0.01 0.03 0.01 0.02 0.02 0.06 0 0 0.02 0.05 0.04 0.11 0.02 0.06 0.01 0.02 0.01 0.04 0.02 0.05 0 0.01 0.02 0.06 0.01 0.01 0.02 0.04 0.02 0.04 0.01 0.02 0.03 0.06 0 0.01 0.02 0.05 0.01 0.03 0.01 0.03 0.03 0.06 0.03 0.06 0.01 0.03 0.02 0.04 0.02 0.05 0 0.01 0.03 0.06 0.01 0.02 0.02 0.04 0.02 0.05 0.01 0.02 0.03 0.06 0.01 0.01 0.03 0.05 0.02 0.04 0.01 0.03 0.03 0.06 0 0 0.03 0.06 0.02 0.03 0.02 0.03 0.03 0.06 0 0 0.03 0.07 0.01 0.02 0.02 0.04 0.03 0.05 0.01 0.01 0.04 0.07 0.01 0.02 0.03 0.05 0.03 0.05 0.01 0.02 0.04 0.07 0 0.01 0.03 0.06 0.02 0.04 0.02 0.03 0.04 0.07c0.36,0.6 0.76,1.11 1.12,1.71 0.24,0.17 0.48,0.34 0.72,0.42 0,0.17 0.16,0.43 0.16,0.51 0.24,0.26 0.48,0.51 0.72,0.68 0.16,-0 0.28,-0 0.4,-0z"/>
 </g>
</svg>
