<?xml version="1.0" encoding="UTF-8"?>
<!DOCTYPE svg PUBLIC "-//W3C//DTD SVG 1.1//EN" "http://www.w3.org/Graphics/SVG/1.1/DTD/svg11.dtd">
<!-- Creator: CorelDRAW 2021 (64-Bit) -->
<svg xmlns="http://www.w3.org/2000/svg" xml:space="preserve" width="0.487756in" height="0.844028in" version="1.1" shape-rendering="geometricPrecision" text-rendering="geometricPrecision" image-rendering="optimizeQuality" fill-rule="evenodd" clip-rule="evenodd"
viewBox="0 0 73.67 127.49"
 xmlns:xlink="http://www.w3.org/1999/xlink"
 xmlns:xodm="http://www.corel.com/coreldraw/odm/2003">
 <g id="Layer_x0020_1">
  <metadata id="CorelCorpID_0Corel-Layer"/>
  <path fill="none" fill-rule="nonzero" stroke="#336666" stroke-width="0.45" stroke-miterlimit="2.61313" d="M66.84 11.01c-0.22,-0.38 -0.44,-0.66 -0.62,-0.94 -0.17,-0.09 -0.31,-0.09 -0.44,-0.28 -0.26,0 -0.53,0 -0.74,0.01 -0.04,-0.09 -0.05,-0.19 -0.05,-0.38 -0.13,-0.19 -0.26,-0.28 -0.35,-0.47 -0.48,-0.66 -0.88,-1.5 -1.28,-2.26 -0.13,-0.09 -0.26,-0.28 -0.35,-0.47 -0.48,0 -0.92,0.1 -1.36,0.11 -0.13,-0.19 -0.26,-0.28 -0.4,-0.47 -0.17,0 -0.31,0 -0.44,0 -0.75,0.01 -1.18,-0.37 -1.58,-1.12 -0.13,-0.19 -0.26,-0.38 -0.4,-0.47 -0.13,0 -0.26,0 -0.39,0 -0.22,-0.09 -0.44,-0.19 -0.61,-0.37 -0.05,-0.38 -0.05,-0.94 -0.05,-1.42 -0.26,-0.37 -0.53,-0.75 -0.79,-1.31 -0.13,-0.09 -0.26,-0.19 -0.4,-0.38 -0.44,-0.37 -1.19,-0.93 -1.58,-0.27 -0.18,0 -0.31,0 -0.44,0 -0.57,0.57 -1.18,1.05 -1.7,1.62 -0.26,0.19 -0.52,0.38 -0.79,0.48 -0.17,0.19 -0.31,0.38 -0.39,0.48 0,0.19 0,0.38 0,0.47 -0.26,0.66 -0.52,1.23 -0.74,1.9 -0.35,0.76 -0.78,1.23 -2.14,1.72 -1.05,0.1 -2.15,0.11 -3.2,0.12 -0.83,0.38 -1.7,0.86 -2.49,1.34 -0.57,0.19 -1.09,0.39 -1.58,0.58 -0.88,0.1 -1.75,0.11 -2.58,0.12 -0.26,0.19 -0.57,0.38 -0.79,0.48 -0.57,0.48 -1.14,0.95 -1.75,1.34 -0.13,0.19 -0.26,0.29 -0.35,0.38 -0.13,0 -0.26,0 -0.39,0 0,0.19 0,0.47 0,0.57 -0.26,0 -0.57,0 -0.83,0.01 -0.22,0.19 -0.48,0.29 -0.7,0.38 -0.13,0.19 -0.26,0.28 -0.39,0.38 -0.13,0.09 -0.26,0.1 -0.39,0.1 -0.7,0.38 -1.44,0.77 -2.14,1.06 -0.57,0 -1.09,0.1 -1.58,0.11 -0.79,0.67 -1.48,1.43 -2.18,2.1 -0.13,0.28 -0.26,0.57 -0.39,0.95 0,0.19 0,0.28 0,0.38 -0.53,0 -1.05,0.1 -1.58,0.11 -0.35,0.38 -0.74,0.95 -0.69,1.89 0,0.94 0.01,1.7 0.05,2.55 -0.13,0.28 -0.26,0.57 -0.39,0.76 0.13,0.75 0.27,1.32 0.44,1.88 0,0.28 0,0.66 0,0.85 0.13,0.19 0.26,0.38 0.4,0.47 0,1.13 0.01,2.08 0.06,3.11 -0.43,0.95 -0.87,1.71 -1.35,2.56 -0.52,0.66 -1,1.24 -1.48,1.9 -0.3,0.57 -0.57,0.95 -0.78,1.33 -0.35,0.85 -1.18,1.24 -2.14,1.62 -0.79,0.76 -1.92,1.24 -3.5,0.88 -0.39,0 -0.7,0.01 -1.01,0.01 -0.66,0.29 -1.36,0.39 -1.97,0.49 -0.13,0 -0.26,0 -0.35,0 -0.31,-0.09 -0.57,-0.18 -0.83,-0.37 -0.22,-0.19 -0.4,-0.37 -0.57,-0.66 -0.04,-0.1 -0.04,-0.19 -0.05,-0.38 -0.26,-0.09 -0.57,-0.18 -0.79,-0.37 -0.26,0 -0.53,0.01 -0.79,0.01 -0.13,0.28 -0.26,0.57 -0.3,0.76 -0.17,0.38 -0.3,0.57 -0.43,0.76 -0.13,0.28 -0.26,0.57 -0.35,0.76 -0.44,0.29 -0.87,0.67 -1.31,0.95 -0.13,0.19 -0.26,0.38 -0.39,0.48 -0.13,0 -0.26,0 -0.39,0 0,0.19 0,0.28 0,0.38 -1.22,1.43 -2.4,2.76 -3.62,4.09 -0.26,0.28 -0.52,0.38 -0.83,0.48 -0.13,0.28 -0.26,0.57 -0.35,0.76 -0.39,0.48 -0.78,1.04 -1.13,1.52 0,0.19 0,0.28 0,0.38 -0.13,0.19 -0.31,0.29 -0.39,0.38 0.13,0.28 0.31,0.38 0.44,0.47 0,0.19 0,0.38 0,0.47 0.13,0.19 0.26,0.28 0.4,0.37 0.27,0.66 0.53,1.13 0.84,1.6 1.1,0.46 2.24,0.92 3.38,1.39 0.13,0.47 -0.22,0.85 -0.09,1.32 0.13,0.28 0.27,0.08 0.4,0.27 0,0.38 -0.35,0.85 -1.53,1.52 -0.13,0.19 -0.26,0.28 -0.39,0.38 -0.13,0 -0.26,0 -0.39,0 0.13,0.19 0.26,0.28 0.4,0.37 -0.13,0.28 -0.26,0.38 -0.35,0.48 0.13,0.56 0.27,1.62 0.4,2.18 0.97,2.07 2.43,4.14 3.4,6.11 0.22,0.19 0.53,0.28 0.79,0.37 0,0.28 0,0.38 0.05,0.47 1.54,1.59 2.68,3 4.3,4.59 0,0.76 0.49,1.42 0.49,2.08 0.48,-0 1.01,-0.01 1.58,-0.11 0.35,0.19 0.75,0.28 1.14,0.46 1.4,0.65 2.99,2.24 6.06,5.14 0.13,0.28 0.26,0.38 0.4,0.47 1.63,2.06 2.81,2.43 4.17,1.95 0.15,-0.04 0.29,-0.07 0.44,-0.11l0 0.08 0 0.11 0 0.11 0 0.11 0 0.08 0 0.04 0 0.11 0 0.11 0 0.11 0 0.06c0.02,1.84 0.06,3.68 0.1,5.52 0,0.09 -0,0.22 0.01,0.35l0 0c0.04,0.24 0.16,0.54 0.38,0.86l0 0 0 0 0.01 0.01 0.01 0.02 0 0 0.01 0.01 0.02 0.03 0.01 0.02 0.01 0.01 0 0 0.01 0.02 0.02 0.03 0.01 0.02 0 0 0.01 0.01 0.01 0.02 0.03 0.03 0.01 0.01 0.01 0.01 0.01 0.02 0.01 0.01 0 0 0.01 0.02 0.01 0.01 0 0 0.01 0.02 0.01 0.02 0 0 0.01 0.01 0.01 0.02 0.01 0.01 0.01 0.01 0.02 0.02 0.01 0.01 0.01 0.01 0.02 0.02 0.01 0.01 0 0 0.02 0.02 0.02 0.01 0 0 0.02 0.02 0.02 0.02 0 0 0.01 0.01 0.02 0.02 0.01 0.01 0.01 0.01 0.02 0.02 0.01 0.01 0.01 0.01 0.02 0.02 0.01 0.01 0 0 0.03 0.03 0 0 0.02 0.02 0.02 0.02 0 0 0.02 0.01 0.02 0.02 0.01 0.01 0.01 0.01 0.02 0.02 0.01 0.01 0.01 0.01 0.02 0.02 0.02 0.01 0.02 0.02 0 0 0.02 0.02 0 0 0.02 0.02 0.02 0.02 0 0 0.02 0.01 0.02 0.02 0.01 0.01 0.01 0.01 0.02 0.02 0.01 0.01 0.01 0.01 0.02 0.02 0.02 0.01 0.01 0 0.02 0.02 0.02 0.02 0.02 0.02 0.01 0.01 0.01 0.01 0.01 0.02 0.01 0.01 0.02 0.02 0 0 0.02 0.02 0.01 0.01 0.01 0.01 0.01 0.02 0 0.01 0.02 0.02 0 0 0.02 0.02 0.01 0.01 0.01 0.01 0.01 0.02 0 0 0.02 0.02 0 0 0.01 0.02 0.01 0.01 0.01 0.01 0.01 0.02 0 0 0.02 0.02 0 0 0.01 0.02 0.01 0.01 0.01 0.01 0.02 0.02 0 0 0.02 0.02 0 0 0.01 0.02 0.01 0.01 0.01 0.01 0.02 0.02 0 0 0.02 0.02 0.01 0.01 0.01 0.01 0.01 0.01 0.01 0.01 0.02 0.02 0.02 0.02 0.01 0.01 0.01 0.01 0.02 0.02 0.02 0.02 0 0 0.02 0.02 0.01 0.01 0.02 0.03 0 0 0.02 0.02 0 0 0.01 0.02 0.01 0.01 0.01 0.01 0.01 0.02 0 0 0.04 0.04 0.01 0.01 0.01 0.01 0.02 0.02 0 0 0.02 0.02 0 0 0.01 0.02 0.01 0.01 0.01 0.01 0.02 0.02 0 0 0.02 0.02 0 0.01 0.01 0.02 0.01 0.01 0.01 0.01 0.04 0.04 0.01 0.01 0.01 0.01 0.01 0.01 0.01 0.01 0.02 0.02 0 0 0.02 0.02 0.01 0.01 0.02 0.03 0.01 0.01 0.04 0.04 0.01 0.01 0.06 0.08 0.01 0.01 0.01 0.01 0 0c0.08,0.07 0.15,0.14 0.23,0.21 0.01,0.05 0.04,0.11 0.08,0.16l0.02 0.03 0.02 0.03 0.02 0.03 0.02 0.03c0.44,0.37 1.23,0.75 1.62,1.12 0.31,0.09 0.66,0.28 1.01,0.37l0 0 0 0c0.35,0.28 0.74,0.37 1.13,0.46 0.83,0.37 1.23,1.12 0.89,2.64 0,0.28 0,0.57 0,0.76 0,0.57 0.4,1.32 1.8,1.59 1.23,1.31 1.98,2.72 1.98,3.19 0.13,0.19 0.26,0.28 0.39,0.37 0.13,0.28 0.27,0.56 0.4,0.66 0.62,0.94 1.23,1.78 1.85,2.72 0.26,0.56 0.57,1.13 0.84,1.69l0 0.03 0 0.03 0 0.03 0 0.03 0 0.03 0 0.03 0 0.03 0 0.03 0 0.03 0 0.03 0 0.03 0 0.03 0 0.01c0.13,0.32 0.14,0.72 0,1.02l0 0 0 0.02 0 0.02 0 0.02 0 0.02 0 0.02 0 0.02 0 0.02 0 0.02 0 0.02 0 0.02 0 0.02c-0.26,0.47 -0.57,0.76 -0.78,1.04 0,0.28 0,0.57 0.05,0.85 -0.22,0.66 -0.39,1.14 -0.56,1.61l0 0.02 0 0 0 0.02 0 0.01 0 0.01 0 0.01 0 0.01 0 0.01 0 0.01 0 0.01 0 0.01 0 0.01 0 0.01 0 0.02 0 0 0 0.02 0 0 0 0.02 0 0.02 0 0 0 0.02 0 0 0 0.02 0 0.01 0 0.01 0 0.01 0 0.01 0 0.01 0 0.01 0 0.01 0 0.01 0 0.02 0 0 0 0.02 0 0 0 0.02 0 0.02 0 0 0 0.02 0 0 0 0.02 0 0.01 0 0.01 0 0.01 0 0.01 0 0.01 0 0.01 0 0.01 0 0.01 0 0.02 0 0.01 0 0.02 0 0 0 0.02 0 0 0 0.02 0 0 0 0.02 0 0 0 0.02 0 0.01 0 0.01 0 0.01 0 0.01 0 0.01 0 0.01 0 0.01 0 0.01 0 0.02 0 0.01 0 0.02 0 0 0 0.02 0 0 0 0.02 0 0 0 0.02 0 0 0 0.02 0 0.01 0 0.04 0 0.01 0 0.01 0 0.01 0 0.01 0 0.02 0 0.05 0 0 0 0.02 0 0 0 0.02 0 0 0 0.04 0 0.01 0 0.01 0 0.01 0 0.01 0 0.01 0 0.01 0 0.01 0 0.01 0 0.02 0 0.02 0 0 0 0.02 0 0 0 0.02 0 0 0 0.02 0 0.01 0 0.01 0.07 0.24 0 0 0.03 0.04 0 0.01 0.01 0.01 0 0 0.01 0.01 0 0 0.01 0.01 0 0 0.01 0.01 0 0 0.01 0.01 0 0 0.01 0.01 0 0 0.01 0.01 0 0.01 0 0.01 0 0.01 0 0.01 0 0.01 0 0 0.01 0.01 0 0 0.02 0.03 0 0 0.01 0.01 0 0 0.01 0.01 0 0 0 0.01 0 0 0 0.01 0 0.01 0 0 0.01 0.01 0 0 0.03 0.04 0 0 0.01 0.01 0 0 0 0.01 0 0 0 0.01 0 0.01 0 0 0.01 0.01 0 0 0.01 0.01 0 0 0.01 0.01 0.01 0.01 0 0 0.01 0.01 0 0 0.01 0.01 0 0 0 0.01 0 0 0 0.01 0 0 0 0 0.01 0.01 0 0 0.01 0.01 0 0 0.01 0.01 0 0 0.01 0.01 0 0 0.01 0.01 0 0 0.01 0.01 0 0 0.01 0.01 0 0 0 0.01 0 0.01 0 0 0.01 0.01 0 0 0.01 0.01 0 0 0.01 0.01 0 0 0.01 0.01 0 0 0.01 0.01 0 0 0.01 0.01 0 0 0.01 0.01 0 0 0.01 0.01 0 0 0 0 0.01 0.01 0 0 0.01 0.01 0 0 0.01 0.01 0 0 0.01 0.01c0,0.19 0,0.38 0,0.47l0.61 -0c0.13,0.19 0.26,0.37 0.4,0.47 0.26,-0 0.53,-0 0.79,-0.1 0.18,0.19 0.35,0.28 0.57,0.37 0.53,-0 1.05,-0.01 1.58,-0.01 0.26,0.19 0.57,0.28 0.83,0.37 0.48,0.47 1.37,1.07 1.9,1.54 0.22,0.28 -0.14,0.43 0.08,0.62 0.13,0.19 0.48,0.28 0.61,0.37 0,0.38 0,0.66 0,0.94 0.26,0.28 0.53,0.56 0.79,0.75 0.13,0.28 0.26,0.56 0.4,0.94 0.18,0.38 0.31,0.75 0.44,1.13 0.13,0.28 0.27,0.66 0.4,1.04 0.26,0.38 0.53,0.47 0.79,0.75 0.13,0.28 0.27,0.56 0.4,0.75 0.35,0.56 0.7,0.94 1.06,1.31 0.75,0.75 1.52,1.41 2.66,1.4 0.13,-0 0.33,-0.29 0.46,-0.29 0.18,0.28 0.44,0.47 0.66,0.66 0.48,-0.57 0.96,-1.23 1.48,-1.99 0,-0.09 -0,-0.19 -0,-0.38 0.13,-0 0.26,-0 0.39,-0 0.13,0.19 0.26,0.28 0.4,0.37 0.53,0.37 1.05,0.75 1.62,1.22 0.18,-0 0.35,-0 0.57,-0.01 0.26,0.28 0.53,0.47 0.79,0.56 0.79,-0.01 1.53,-0.01 2.32,-0.02 0.61,-0.19 1.18,-0.39 1.75,-0.77 0.26,-0 0.57,-0.01 0.79,-0.01 0.22,-0.19 0.48,-0.29 0.74,-0.48 -0,-0.19 -0,-0.47 -0,-0.76 0.13,-0 0.26,-0 0.39,-0 0.7,-0.67 1.4,-1.43 2.09,-2.19 0.13,-0 0.26,-0 0.44,-0 0,-0.1 -0,-0.19 -0,-0.38 0.09,-0.19 0.22,-0.38 0.35,-0.57 -0.05,-0.57 -0.05,-1.13 -0.05,-1.7 -0.13,-0.38 -0.27,-0.85 -0.4,-1.32 -0.13,-0.19 -0.26,-0.47 -0.4,-0.75 -0.53,-0.28 -0.75,-0.47 -1.19,-0.84 -0,-0.09 -0,-0.19 -0,-0.38 -0.18,-0.32 -0.51,-1.07 -0.16,-1.92 0.17,-0.38 0.24,-1.11 0.46,-1.58 -0.05,-0.66 -0.05,-1.42 -0.05,-2.27 0.09,-0.28 0.26,-0.66 0.39,-0.95 0.09,-0.57 0.21,-1.23 0.34,-1.89 -0.05,-1.42 -0.05,-2.83 -0.06,-4.34 0.09,-0.1 0.39,-0 0.53,-0.19 0.13,-0.19 0.26,-0.57 0.43,-0.85 0.22,-0.85 0.43,-1.89 0.69,-2.84 -0,-0.28 -0,-0.66 -0,-1.13 0.09,-0.47 0.22,-1.04 0.34,-1.61 -0.05,-0.47 0.15,-1 0.15,-1.38 0.17,-0.28 0.11,-0.51 0.24,-0.98 -0.13,0 -0.26,0 -0.44,0 -0.26,-0.19 -0.53,-0.47 -0.79,-0.75 -0,-0.09 -0.18,-0.38 -0.18,-0.56 -0.26,-0.09 -0.53,-0.28 -0.79,-0.47 -0.4,-0.66 -0.84,-1.22 -1.23,-1.88 -1.37,-2.35 -1.85,-4.05 -1.42,-5.47 -0.05,-1.42 -0.1,-2.93 -0.1,-4.44 -0,-0.76 -0.4,-1.13 -1.63,-1.69 -0.22,0 -0.48,-0.09 -0.7,-0.28 -1.01,-0.37 -0.49,-1.7 0.65,-3.12 0.22,-0.38 0.48,-0.66 0.78,-0.95 0.22,-0.47 0.48,-0.95 0.74,-1.61 0.22,-0.28 0.48,-0.57 0.74,-0.86 0.61,-1.04 0.96,-1.9 0.95,-3.12 0.09,-0.38 0.22,-0.76 0.34,-1.42 0.44,-0.57 0.78,-1.33 1.53,-1.9 0.31,-0.1 0.57,-0.19 0.83,-0.38 0.35,-0.38 0.74,-0.76 1.35,-1.81 0.09,-0.38 0.22,-0.85 0.34,-1.32 0.35,-1.32 0.73,-3.03 0.73,-4.45 -0.04,-0.38 -0.05,-0.76 -0.05,-1.32 -0.13,-0.38 -0.27,-0.75 -0.4,-1.13 -0.05,-0.66 -0.05,-1.23 -0.05,-1.89 -0,-0.47 -0.44,-0.94 -0.84,-1.69 -0.35,-0.66 -0.66,-1.32 -0.97,-2.07 -0.18,-0.56 -0.31,-1.13 -0.44,-1.89 -0.7,-0.37 -1.36,-0.74 -2.02,-1.12 -0.26,0 -0.53,0.1 -0.79,0.1 -0.35,-0.09 -0.66,-0.18 -1.01,-0.46 -0.66,0 -1.31,0.01 -1.97,0.02l-0.05 0.12c0.03,-0.25 0.05,-0.51 0.05,-0.78 -0.45,-3.11 -1.2,-5.29 -2.6,-5.28 -0.39,0.1 -0.83,0.1 -1.18,0.1 -0.74,0.01 -1.58,0.01 -1.97,-0.36 -0.35,0 -0.66,0.1 -1.01,0.1 -1.14,-0.37 -1.97,-0.83 -2.37,-1.87 -0.26,-0.19 -0.53,-0.56 -0.83,-0.84 -0.13,0.1 -0.26,0.1 -0.39,0.1 -0.22,-0.09 -0.39,-0.19 -0.57,-0.37 -0.13,0 -0.26,0 -0.39,0 -0.13,-0.09 -0.31,-0.28 -0.44,-0.47 -0.26,0 -0.53,0 -0.74,0.01 -0.13,-0.09 -0.26,-0.19 -0.4,-0.47 -0.84,-2.17 -0.89,-3.38 -0.11,-4.71 0.22,-0.66 0.48,-1.42 0.74,-2.27 0.22,-0.1 0.53,-0.19 0.79,-0.38 0,-0.09 -0,-0.28 -0,-0.47 0.65,-0.67 1.4,-1.33 2.09,-2.19 1.18,-1.52 2.75,-2.38 4.11,-2.87 0.88,-0.01 1.8,-0.02 2.76,-0.12 1.31,-0.01 2.1,-0.02 2.5,-0.49 0.35,-0.85 0.74,-1.8 1.13,-2.75 0,-0.09 -0,-0.28 -0,-0.47 0.09,-0.47 0.22,-1.04 0.34,-1.7 0.61,-1.33 1.35,-1.9 2.53,-2.29 0.48,-0.19 1.05,-0.58 1.57,-0.96 -0.13,0 -0.26,0 -0.39,0 -0.26,-0.28 -0.57,-0.47 -0.83,-0.75 -0.13,-0.19 -0.26,-0.56 -0.4,-0.85 -0.39,-0.47 -0.79,-0.94 -1.23,-1.5 -0.26,-0.38 -0.53,-0.75 -0.75,-1.13z"/>
 </g>
</svg>
