<?xml version="1.0" encoding="UTF-8"?>
<!DOCTYPE svg PUBLIC "-//W3C//DTD SVG 1.1//EN" "http://www.w3.org/Graphics/SVG/1.1/DTD/svg11.dtd">
<!-- Creator: CorelDRAW 2021 (64-Bit) -->
<svg xmlns="http://www.w3.org/2000/svg" xml:space="preserve" width="0.562307in" height="0.765039in" version="1.1" shape-rendering="geometricPrecision" text-rendering="geometricPrecision" image-rendering="optimizeQuality" fill-rule="evenodd" clip-rule="evenodd"
viewBox="0 0 63.39 86.24"
 xmlns:xlink="http://www.w3.org/1999/xlink"
 xmlns:xodm="http://www.corel.com/coreldraw/odm/2003">
 <g id="Layer_x0020_1">
  <metadata id="CorelCorpID_0Corel-Layer"/>
  <path fill="none" fill-rule="nonzero" stroke="#336666" stroke-width="0.34" stroke-miterlimit="2.61313" d="M42.74 24.51c-0.13,0 -0.23,0 -0.33,0 -0.1,0.21 -0.19,0.28 -0.29,0.35 0,0.21 0,0.42 0.04,0.63 -0.1,0.21 -0.19,0.28 -0.29,0.36 -0.23,0.14 -0.46,0.21 -0.69,0.29 -0.36,0.36 -0.72,0.64 -1.04,0.99 -0.56,0.14 -1.08,0.36 -1.6,0.51 -0.2,-0.14 -0.39,-0.28 -0.59,-0.42 -0.2,0 -0.36,0 -0.49,0 -1.05,-0.91 -2.07,-1.88 -3.05,-2.86 -0.26,0.07 -0.49,0.07 -0.72,0.08 -0.49,0.64 -1.01,1.13 -1.46,1.7 -0.26,0.14 -0.46,0.22 -0.69,0.29 -0.75,0.36 -1.54,-0.2 -2.16,-1.46 -0.23,-0.21 -0.43,-0.56 -0.62,-0.84 -0.69,-0.42 -1.31,-0.98 -1.97,-1.46 -1.21,-0.91 -1.84,-1.53 -1.87,-2.66 -0,-0.14 -0,-0.35 -0,-0.56 0.06,-0.35 0.16,-0.63 0.26,-0.99 -0.29,-0.21 -0.62,-0.42 -0.92,-0.7 -0.43,-0.21 -0.92,-0.34 -1.34,-0.62 0.1,0.28 0.2,0.49 0.33,0.7 0,0.42 0,0.7 0.04,0.98 -0.33,0.35 -0.62,0.71 -0.88,0.99 -1.43,1.77 -2.48,1.5 -2.55,-1.18 -0.1,-0.07 -0.2,-0.14 -0.3,-0.28 -0.13,0 -0.23,0 -0.33,0 -0.1,-0.07 -0.2,-0.21 -0.3,-0.42 -0.1,-0.21 -0.2,-0.42 -0.3,-0.7 -0.07,-0.42 -0.07,-0.91 -0.07,-1.34 -0.26,0.28 -0.46,0.5 -0.68,0.71 -0.06,0.28 -0.1,0.49 -0.13,0.71 -0.46,0 -0.95,0.01 -1.37,0.01 -0,-0.07 -0,-0.21 -0,-0.35 -0.1,-0.07 -0.2,-0.14 -0.33,-0.35 -0.1,-0.21 -0.2,-0.42 -0.3,-0.63 -0.33,-0.28 -0.66,-0.77 -0.95,-1.19 -0.59,-0.49 -1.08,-1.12 -1.64,-1.6 -0.3,-0.21 -0.59,-0.42 -0.92,-0.7 -0.46,-0.28 -0.59,-0.56 -0.92,-1.26 -0.03,-0.21 -0.03,-0.49 -0.04,-0.77 -0.1,0 -0.2,0 -0.29,0 -0.1,-0.07 -0.2,-0.14 -0.33,-0.21 -0.26,-0.35 -0.53,-0.63 -0.79,-0.98 -0.1,-0.14 -0.2,-0.35 -0.3,-0.56 -0.04,-0.77 -0.04,-1.62 -0.07,-2.39 -0.07,0 -0.16,0 -0.26,0 -0.1,-0.07 -0.2,-0.21 -0.3,-0.42 -0.13,-0.14 -0.26,-0.35 -0.36,-0.56 -0.29,-0.21 -0.56,-0.49 -0.89,-0.91 -0.26,-0.91 -0.56,-1.97 -0.83,-3.02 -0.1,-0.21 -0.23,-0.49 -0.33,-0.84 -0.03,-0.14 -0.03,-0.35 -0.03,-0.56 -0.1,0.56 -0.19,1.2 -0.22,1.69 -0.78,1.06 -1.53,1.98 -2.28,2.83 -0.16,0 -0.29,0 -0.43,0 -0.1,0.14 -0.19,0.21 -0.29,0.28 -0.06,0.63 -0.16,1.13 -0.22,1.69 0,0.21 0,0.42 0,0.56 -0.1,0 -0.2,0.07 -0.29,0.07 -0.1,0.14 -0.2,0.21 -0.29,0.28 -0.2,0 -0.39,0 -0.56,0 -0.1,0.35 -0.19,0.64 -0.29,0.85 0,0.35 0,0.63 0,0.99 -0.1,0.14 -0.2,0.21 -0.26,0.28 -0.1,0.21 -0.19,0.42 -0.29,0.64 -0.26,0.28 -0.49,0.5 -0.75,0.64 -0.1,0.28 -0.16,0.56 -0.16,0.78 0.03,0.42 0.13,0.7 0.23,0.98 0.1,0.14 0.2,0.21 0.3,0.28 0.13,-0 0.29,-0 0.46,-0 0.1,0.14 0.2,0.28 0.33,0.35 0,0.35 0,0.63 0,0.92 0.1,0.14 0.23,0.28 0.33,0.42 0.1,0 0.2,-0 0.29,-0 0.03,0.14 0.1,0.21 0.17,0.35 0.23,0.14 0.49,0.21 0.75,0.28 0.1,-0 0.2,-0 0.29,-0 0.39,0.42 0.79,0.91 1.18,1.26 0.16,0.21 0.33,0.35 0.49,0.56 0.2,0.21 0.39,0.28 0.62,0.35 0.1,0.14 0.2,0.28 0.3,0.35 0,0.28 0,0.49 0,0.7 0.1,0.21 0.2,0.35 0.3,0.42 0.03,0.21 0.03,0.42 0.07,0.56 0.2,0.14 0.36,0.21 0.56,0.28 0.2,-0 0.42,-0.07 0.62,-0.08 0,0.63 0,1.13 0.01,1.62 0.43,-0 0.92,-0.01 1.34,-0.01 0.43,0.77 0.82,1.4 1.22,2.03 0.43,0.42 0.92,0.91 1.38,1.26 0.1,0.28 0.2,0.49 0.36,0.7 0.82,0.84 1.71,1.75 2.53,2.51 0,0.63 0.04,1.2 0.07,1.69 0.2,0.21 0.39,0.42 0.59,0.63 0.1,-0.07 0.2,-0.14 0.29,-0.28 0.13,0.14 0.23,0.21 0.33,0.28 0,0.21 0,0.42 0,0.56 0.2,0.28 0.39,0.49 0.66,0.7 0.2,0.14 0.39,0.28 0.59,0.42 0.1,-0 0.2,-0 0.29,-0.07 0.43,0.42 0.82,0.91 1.25,1.33 0.13,0.21 0.3,0.42 0.46,0.63 0.59,0.28 0.92,1.12 0.92,2.24 0.03,0.21 0.03,0.42 0.04,0.7 0.1,0.21 0.2,0.42 0.33,0.56 0,0.56 0,1.2 0.07,1.76 0.1,0.14 0.2,0.21 0.3,0.28 0,0.63 0,1.13 0.04,1.62 0.13,0.42 0.23,0.77 0.33,1.12 0,0.21 0,0.42 0,0.63 0.13,0.21 0.3,0.42 0.46,0.63 0,0.21 0,0.42 0,0.56 0.2,0.49 0.4,0.84 0.63,1.19 0.13,0.21 0.23,0.35 0.33,0.56 0.2,0.14 0.39,0.21 0.59,0.28 0.1,0.14 0.2,0.21 0.33,0.28 0.1,-0 0.2,-0 0.29,-0 0.1,-0.07 0.2,-0.14 0.29,-0.28 0.29,-0 0.59,-0.08 0.92,-0.08 0.23,-0.07 0.46,-0.14 0.72,-0.29 0.1,-0.21 0.19,-0.35 0.29,-0.56 0,-0.07 -0,-0.14 -0,-0.28 0.06,-0.07 0.13,-0.14 0.23,-0.28 0.1,-0 0.2,-0 0.29,-0 0.2,-0.07 0.39,-0.14 0.62,-0.29 0.42,-0.57 0.85,-0.99 1.27,-1.42 0.26,-0.71 0.55,-1.34 0.84,-2.05 -0.03,-0.49 -0.04,-0.98 -0.04,-1.62 0.06,-0.14 0.16,-0.35 0.26,-0.57 -0.03,-0.56 -0.07,-1.2 -0.07,-1.76 0.23,0.21 0.43,0.42 0.66,0.63 0,0.14 0,0.21 0,0.28 0.1,0.21 0.2,0.28 0.3,0.35 0.26,0.35 0.53,0.63 0.79,0.98 0,0.42 0,0.7 0,0.99 -0.26,0.14 -0.49,0.21 -0.72,0.36 0,0.21 0,0.42 0.04,0.7 0.1,0.07 0.2,0.14 0.3,0.21 0.16,0.28 0.3,0.56 0.46,0.77 0.1,0.14 0.2,0.28 0.33,0.35 -0.1,0.14 -0.2,0.21 -0.29,0.28 0,0.35 0.62,0.63 1.8,0.62 0.13,-0.07 0.23,-0.07 0.33,-0.07 0.59,-0.29 1.21,-0.57 1.86,-0.93 0.36,-0 0.75,-0.08 1.18,-0.08 0.2,0.42 0.4,0.84 0.63,1.19 0.13,0.49 0.23,0.91 0.33,1.26 0.04,1.41 0.11,2.82 0.15,4.15 -0.1,0.21 -0.19,0.42 -0.29,0.64 0,0.21 0,0.28 0,0.35 -0.29,0.35 -0.59,0.64 -0.85,0.92 0,0.21 0,0.49 0,0.63 -0.1,0.28 -0.19,0.57 -0.29,0.78 -0.46,0.21 -0.85,0.5 -1.27,0.78 -0.2,0.21 -0.39,0.43 -0.59,0.57 -0.16,0.42 -0.36,0.92 -0.52,1.27 -1.04,0.36 -1.17,1.49 -1.46,2.76 0.07,0.56 0.49,0.56 1.8,-0.44 0.23,-0 0.42,-0 0.59,-0 0,-0.07 -0,-0.14 -0,-0.28 0.1,0.21 0.2,0.42 0.3,0.63 0,0.21 0,0.42 0,0.56 -0.1,0.28 -0.19,0.63 -0.26,0.85 0.04,0.7 -0.26,0.99 -0.85,1.27 -0.1,0.14 -0.2,0.21 -0.26,0.28 0,0.42 0,0.7 0,0.99 -0.23,0.71 -0.45,1.41 -0.68,2.05 -0.06,0.21 -0.1,0.42 -0.13,0.7 -0.1,0.14 -0.2,0.21 -0.29,0.28 -0.1,0 -0.2,0 -0.29,0 -0.1,0.14 -0.2,0.21 -0.29,0.28 -0.16,0 -0.29,0 -0.42,0.07 -0.23,0.14 -0.42,0.21 -0.62,0.29 -0.29,0.14 -0.59,0.29 -0.88,0.36 -0.26,0.42 -0.75,0.43 -0.72,0.78 0.23,0.35 0.49,0.63 0.75,0.91 0.85,-0.01 1.67,-0.08 2.55,-0.09 0.1,0.14 0.2,0.28 0.3,0.35 0,0.21 0,0.28 0.03,0.35 0.2,0.21 0.43,0.42 0.62,0.56 0.1,0.28 0.2,0.56 0.3,0.77 0.1,0.21 0.2,0.21 0.3,0.28 0.04,0.7 0.04,1.48 0.07,2.18 0.3,0.35 0.59,0.7 0.95,1.12 0,0.21 0,0.42 0,0.63 -0.19,0.21 -0.39,0.43 -0.55,0.57 0.52,0.21 1.05,0.49 1.57,0.69 0,0.14 0,0.21 0,0.28 0.2,0.49 0.4,0.98 0.66,1.4 0.2,0.21 0.39,0.42 0.59,0.56 0.3,0.21 0.62,0.42 0.92,0.7 0.3,0.35 0.59,0.63 0.95,0.84 0.23,0.14 0.46,0.21 0.72,0.28 0,0.14 0,0.28 0,0.49 0.2,0.42 0.43,0.84 0.66,1.19 0.2,0.21 0.39,0.49 0.59,0.7 0,0.35 0.04,0.63 0.07,0.91 0.1,0.35 0.2,0.77 0.3,1.05 0.13,0.14 0.3,0.21 0.46,0.28 0,0.21 0.03,0.42 0.04,0.63 0.1,0.14 0.2,0.28 0.3,0.35 0.1,0.21 0.2,0.42 0.3,0.63 0.46,0.14 0.98,0.2 1.47,0.27 0.2,-0.07 0.39,-0.07 0.59,-0.08 0.36,0.14 0.72,0.21 1.08,0.27 0.39,0.28 0.82,0.63 1.21,0.84 0.1,0.07 0.2,0.14 0.29,0.21 0.43,-0 0.88,-0.01 1.34,-0.01 0.46,-0.28 0.42,-1.69 -0.08,-3.31 -0.03,-0.14 -0.03,-0.35 -0.03,-0.56 0.13,-0.21 0.26,-0.56 0.42,-0.85 0.39,-0.07 0.85,-0.15 1.31,-0.36 0.16,-0 0.36,-0 0.56,-0 0.23,-0.07 0.49,-0.21 0.78,-0.36 0.07,-0.07 0.16,-0.14 0.26,-0.28 0.1,-0.21 0.19,-0.49 0.29,-0.71 0.29,-0.28 0.29,-0.85 0.25,-1.97 -0.07,-0.7 -0.07,-1.48 -0.07,-2.18 0.03,0 0.07,-0 0.13,-0 0.13,0.14 0.3,0.21 0.49,0.28 0.2,0.14 0.39,0.21 0.59,0.21 0.1,0.14 0.2,0.21 0.3,0.28 0.29,0.21 0.62,0.49 0.92,0.7 0.23,-0 0.49,-0 0.75,-0.01 0.29,0.14 0.62,0.21 0.88,0.21 0.85,0.35 1.14,-0.29 1.07,-1.84 -0.23,-0.7 -0.43,-1.33 -0.66,-2.04 -0,-0.99 0.29,-1.62 1.04,-2.4 0.07,-0.07 0.16,-0.21 0.26,-0.35 -0.1,-0.14 -0.2,-0.35 -0.33,-0.56 -0.03,-0.42 -0.04,-0.84 -0.04,-1.27 0.1,-0.07 0.2,-0.21 0.29,-0.35 -0,-0.21 -0,-0.49 -0,-0.77 0.03,-0.21 0.06,-0.42 0.13,-0.63 0.13,-0.28 0.26,-0.56 0.42,-0.99 -0.03,-0.49 -0.04,-1.06 -0.04,-1.69 -0.2,-0.07 -0.39,-0.21 -0.62,-0.35 -0.1,-0.14 -0.2,-0.35 -0.3,-0.56 -0.26,-0.07 -0.52,-0.14 -0.75,-0.21 -0.33,-0.14 -0.62,-0.28 -0.88,-0.42 -0.07,0 -0.16,0 -0.26,0 -0.04,-0.49 -0.04,-0.99 -0.04,-1.55 -0.13,-0.14 -0.23,-0.28 -0.33,-0.49 -0,-0.28 -0,-0.56 -0,-0.84 -0.1,-0.07 -0.2,-0.28 -0.3,-0.42 -0.03,-0.07 -0.03,-0.14 -0.03,-0.28 0.2,-0.07 0.39,-0.14 0.59,-0.29 0.16,-0 0.36,-0 0.52,-0 0.46,-0.21 0.88,-0.43 1.34,-0.71 0.45,-0.99 0.91,-1.98 1.43,-2.97 0,-0.07 -0,-0.21 -0,-0.35 0.1,-0 0.2,-0 0.29,-0 0.1,-0.07 0.2,-0.14 0.29,-0.35 0.59,0.35 1.64,0.27 2.51,-0.51 0.29,-0.35 0.58,-1.62 0.48,-3.17 -0.03,-0.42 -0.04,-0.99 -0.04,-1.48 0.1,-0.07 0.2,-0.14 0.29,-0.28 -0,-0.14 -0,-0.35 -0,-0.63 0.06,-0.07 0.16,-0.21 0.23,-0.35 0.1,-0.14 0.19,-0.35 0.29,-0.57 -0,-0.21 -0,-0.49 -0,-0.85 0.07,-0.07 0.16,-0.14 0.26,-0.28 -0.04,-1.41 -0.08,-2.82 -0.11,-4.29 -0.1,-0.07 -0.2,-0.14 -0.3,-0.28 -0.13,-0.56 -0.2,-1.2 -0.3,-1.76 -0.76,-2.32 -1.52,-4.49 -2.28,-6.88 -0.03,-0.28 -0.03,-0.56 -0.04,-0.92 0.1,-0.35 0.19,-0.63 0.29,-0.99 0.03,-0.14 0.06,-0.35 0.13,-0.56 -0,-0.28 -0,-0.56 -0,-0.85 -0.26,0 -0.56,0 -0.78,0.01 -0.69,0.01 -1.02,-0.63 -1.05,-1.47 -0.33,-0.63 -0.66,-1.19 -0.95,-1.75 -0.1,-0.07 -0.2,-0.14 -0.3,-0.35 -0.26,-0.07 -0.52,-0.21 -0.75,-0.35 -0.07,-0.14 -0.13,-0.35 -0.17,-0.56 -0,-0.07 -0,-0.14 -0,-0.35 -0.13,-0.63 -0.23,-1.26 -0.37,-1.97 -0.36,-0.28 -0.72,-0.56 -1.05,-0.98 -0.85,0.01 -1.7,0.08 -2.55,0.09 -0.56,0 -0.85,0.36 -0.81,1.27 0,0.56 0,0.99 0.01,1.41 -0.1,0.35 -0.19,0.71 -0.26,0.99 0.04,0.99 -0.71,1.41 -1.43,1.49 -0.39,0 -0.72,0.01 -1.05,0.01 -0.23,-0.14 -0.46,-0.28 -0.62,-0.42 -0.1,-0.07 -0.2,-0.21 -0.3,-0.35 -0.2,-0.07 -0.39,-0.14 -0.62,-0.28 -0.16,0 -0.29,0 -0.42,0 -0.92,-0.49 -1.8,-1.04 -2.72,-1.46 -0.59,-0.07 -1.14,-0.13 -1.67,-0.27z"/>
 </g>
</svg>
