<svg xmlns="http://www.w3.org/2000/svg" viewBox="0 0 1200 1800">
  <path d="M 307.1,1118.7 307.0,1118.6 306.9,1118.5 306.8,1118.4 306.8,1118.3 306.8,1118.3 306.7,1118.3 306.7,1118.2 306.6,1118.2 306.2,1117.9 306.1,1117.9 306.1,1117.8 306.0,1117.8 306.0,1117.8 306.0,1117.8 306.0,1117.7 305.9,1117.7 305.8,1117.6 305.8,1117.6 305.7,1117.6 305.7,1117.6 305.6,1117.5 305.6,1117.5 305.5,1117.4 305.4,1117.3 305.3,1117.2 305.3,1117.2 305.0,1116.9 304.9,1116.8 304.8,1116.6 304.8,1116.6 304.5,1116.3 304.5,1116.2 304.3,1116.0 304.3,1116.0 304.2,1115.9 303.9,1115.6 303.9,1115.5 303.6,1115.1 303.6,1115.1 303.5,1115.0 303.5,1114.9 303.4,1114.9 303.4,1114.8 303.4,1114.7 303.3,1114.6 303.3,1114.4 303.3,1114.4 303.2,1114.3 303.2,1114.2 303.2,1114.1 303.1,1114.0 303.0,1113.9 303.0,1113.8 302.9,1113.7 302.9,1113.7 302.6,1113.4 302.6,1113.3 302.6,1113.3 302.5,1113.3 302.3,1113.1 302.3,1113.0 301.8,1112.5 301.8,1112.5 301.8,1112.5 301.6,1112.4 301.5,1112.3 301.4,1112.3 301.4,1112.2 301.3,1112.2 301.1,1112.0 301.1,1112.0 301.0,1111.9 300.9,1111.8 300.8,1111.7 300.7,1111.5 300.6,1111.4 300.5,1111.3 300.5,1111.2 300.4,1111.1 300.3,1111.0 300.3,1111.0 300.1,1110.9 299.9,1110.8 299.8,1110.7 299.7,1110.7 299.7,1110.7 299.6,1110.7 299.6,1110.6 299.3,1110.4 299.3,1110.4 299.1,1110.3 299.0,1110.2 298.7,1110.0 298.3,1109.7 298.1,1109.5 297.6,1109.1 297.4,1108.9 297.3,1108.9 297.3,1108.8 297.1,1108.8 297.0,1108.7 296.7,1108.6 296.6,1108.6 296.5,1108.6 296.5,1108.6 296.5,1108.6 296.2,1108.6 296.1,1108.6 296.1,1108.6 296.1,1108.6 296.0,1108.6 296.0,1108.6 296.0,1108.6 295.6,1108.4 295.6,1108.4 295.5,1108.3 295.3,1108.2 295.3,1108.2 295.3,1108.2 294.6,1107.7 294.5,1107.6 294.4,1107.6 293.9,1107.2 293.8,1107.1 293.7,1107.1 293.7,1107.1 293.7,1107.1 293.5,1106.9 293.5,1106.9 293.2,1106.6 292.8,1106.2 292.8,1106.2 292.4,1105.9 292.4,1105.9 292.4,1105.9 292.4,1105.9 292.4,1105.9 292.1,1105.6 291.9,1105.5 291.8,1105.3 291.4,1104.9 291.2,1104.7 291.2,1104.7 291.2,1104.6 291.0,1104.5 291.0,1104.4 290.9,1104.3 290.6,1103.9 290.6,1103.8 290.5,1103.8 290.4,1103.7 290.3,1103.6 290.3,1103.5 290.3,1103.5 290.2,1103.5 290.2,1103.4 290.2,1103.4 290.2,1103.4 290.1,1103.3 290.1,1103.3 290.1,1103.3 290.1,1103.3 290.0,1103.1 289.9,1103.1 289.9,1103.0 289.9,1103.0 289.8,1102.8 289.7,1102.7 289.4,1102.4 289.3,1102.3 289.3,1102.3 289.3,1102.3 289.3,1102.2 289.2,1101.9 289.1,1101.7 289.1,1101.6 289.0,1101.3 289.0,1101.3 288.9,1101.2 288.9,1101.1 288.8,1100.9 288.8,1100.8 288.7,1100.7 288.5,1100.5 288.5,1100.4 288.4,1100.4 288.3,1100.3 288.1,1100.0 288.0,1099.9 287.7,1099.5 287.7,1099.5 287.6,1099.3 287.6,1099.3 287.6,1099.3 287.4,1099.1 287.4,1099.0 287.3,1099.0 287.3,1099.0 287.3,1098.9 287.2,1098.8 287.2,1098.8 287.2,1098.7 287.0,1098.5 287.0,1098.5 286.7,1098.2 286.7,1098.1 286.5,1097.9 286.5,1097.9 286.5,1097.9 286.4,1097.8 286.3,1097.7 286.3,1097.7 286.3,1097.7 286.2,1097.7 286.2,1097.7 286.1,1097.6 286.1,1097.6 286.1,1097.6 286.0,1097.5 285.6,1097.3 285.5,1097.3 285.4,1097.2 285.4,1097.2 285.4,1097.2 285.3,1097.2 285.2,1097.2 285.1,1097.1 285.1,1097.1 285.1,1097.1 285.0,1097.0 284.9,1097.0 284.9,1096.9 284.9,1096.9 284.7,1096.8 284.7,1096.7 284.7,1096.7 284.6,1096.6 284.6,1096.6 284.6,1096.6 284.5,1096.5 284.5,1096.5 284.5,1096.5 284.3,1096.4 284.2,1096.3 284.0,1096.1 283.9,1096.1 283.9,1096.0 283.7,1095.9 283.4,1095.8 283.4,1095.8 283.4,1095.7 283.4,1095.7 283.1,1095.6 283.1,1095.6 283.0,1095.6 283.0,1095.6 282.9,1095.6 282.8,1095.6 282.7,1095.6 282.7,1095.6 282.6,1095.5 282.6,1095.5 282.6,1095.5 282.6,1095.5 282.6,1095.5 282.5,1095.5 282.5,1095.5 282.4,1095.4 282.3,1095.3 282.3,1095.3 281.9,1094.9 281.9,1094.9 281.7,1094.8 281.4,1094.5 281.1,1094.3 281.1,1094.2 280.9,1094.1 280.7,1093.9 280.6,1093.9 280.6,1093.9 280.5,1093.8 280.1,1093.5 279.9,1093.4 279.9,1093.3 279.9,1093.3 279.7,1093.3 279.5,1093.2 279.4,1093.1 279.4,1093.1 279.2,1093.0 279.0,1092.9 278.9,1092.8 278.9,1092.8 278.9,1092.8 278.8,1092.8 278.8,1092.7 278.7,1092.7 278.6,1092.6 278.6,1092.6 278.5,1092.6 278.5,1092.5 278.5,1092.5 278.4,1092.5 278.4,1092.5 278.4,1092.5 278.4,1092.5 278.4,1092.5 278.4,1092.5 278.4,1092.5 278.5,1092.4 278.5,1092.4 278.6,1092.3 278.6,1092.3 278.6,1092.3 278.6,1092.3 278.6,1092.3 278.7,1092.2 278.8,1092.1 278.8,1092.1 278.8,1092.1 278.8,1092.1 278.8,1092.1 278.8,1092.1 278.8,1092.1 278.8,1092.1 278.7,1092.0 278.7,1092.0 278.7,1091.9 278.7,1091.9 278.7,1091.9 278.7,1091.9 278.7,1091.8 278.7,1091.8 278.7,1091.8 278.7,1091.8 278.7,1091.8 278.7,1091.8 278.7,1091.8 278.7,1091.8 278.7,1091.8 278.7,1091.7 278.7,1091.7 278.7,1091.7 278.7,1091.7 278.7,1091.7 278.7,1091.7 278.7,1091.7 278.8,1091.6 278.8,1091.6 278.8,1091.6 278.8,1091.5 278.9,1091.5 278.9,1091.4 278.9,1091.4 279.0,1091.4 279.0,1091.3 279.0,1091.3 279.0,1091.3 279.0,1091.3 279.1,1091.3 279.1,1091.2 279.1,1091.2 279.1,1091.2 279.1,1091.2 279.2,1091.1 279.2,1091.1 279.2,1091.0 279.3,1090.9 279.3,1090.9 279.3,1090.9 279.3,1090.9 279.3,1090.8 279.4,1090.8 279.4,1090.8 279.4,1090.8 279.4,1090.8 279.4,1090.7 279.4,1090.7 279.4,1090.7 279.4,1090.7 279.4,1090.7 279.5,1090.7 279.5,1090.5 279.5,1090.5 279.6,1090.5 279.6,1090.5 279.6,1090.5 279.6,1090.5 279.7,1090.3 279.8,1090.2 279.8,1090.1 279.9,1090.0 279.9,1090.0 280.0,1089.9 280.0,1089.8 280.1,1089.7 280.2,1089.5 280.3,1089.4 280.3,1089.4 280.4,1089.2 280.5,1089.1 280.6,1088.9 280.8,1088.7 280.9,1088.5 281.0,1088.3 281.1,1088.3 281.1,1088.2 281.3,1087.9 281.5,1087.7 281.6,1087.5 281.6,1087.4 281.7,1087.3 281.8,1087.2 281.8,1087.2 281.9,1087.0 282.0,1086.9 282.0,1086.9 282.0,1086.9 282.0,1086.9 282.0,1086.9 282.0,1086.9 282.0,1086.9 282.0,1086.9 282.0,1086.9 282.1,1086.9 282.2,1086.9 282.3,1087.0 282.3,1087.0 282.3,1087.0 282.4,1087.0 282.6,1087.1 282.6,1087.1 282.7,1087.1 282.8,1087.1 282.9,1087.2 282.9,1087.2 283.0,1087.2 283.0,1087.2 283.1,1087.3 283.1,1087.3 283.3,1087.3 283.4,1087.4 283.4,1087.4 283.5,1087.4 283.6,1087.5 283.6,1087.5 283.6,1087.5 283.6,1087.5 283.6,1087.5 283.6,1087.5 283.6,1087.5 283.6,1087.5 283.7,1087.6 283.7,1087.7 283.8,1087.7 283.8,1087.8 283.9,1087.8 283.9,1087.9 283.9,1087.9 283.9,1087.9 284.0,1088.0 284.0,1088.0 284.1,1088.2 284.2,1088.3 284.2,1088.3 284.2,1088.3 284.2,1088.3 284.2,1088.3 284.3,1088.4 284.3,1088.4 284.3,1088.5 284.3,1088.5 284.3,1088.5 284.4,1088.5 284.4,1088.5 284.4,1088.5 284.4,1088.5 284.4,1088.6 284.4,1088.6 284.4,1088.6 284.4,1088.6 284.4,1088.6 284.4,1088.6 284.4,1088.6 284.4,1088.6 284.4,1088.6 284.4,1088.6 284.4,1088.6 284.4,1088.6 284.5,1088.6 284.5,1088.6 284.5,1088.6 284.5,1088.6 284.5,1088.6 284.5,1088.6 284.5,1088.6 284.5,1088.7 284.5,1088.7 284.5,1088.7 284.5,1088.7 284.5,1088.6 284.5,1088.6 284.5,1088.6 284.6,1088.7 284.6,1088.7 285.0,1088.9 285.0,1088.9 285.1,1088.8 285.2,1088.7 285.2,1088.7 285.3,1088.7 285.3,1088.7 285.3,1088.7 285.3,1088.7 285.3,1088.6 285.4,1088.6 285.5,1088.4 285.6,1088.3 285.7,1088.2 285.7,1088.2 285.7,1088.2 285.7,1088.2 285.7,1088.2 285.7,1088.2 285.7,1088.2 285.8,1088.2 285.8,1088.2 285.8,1088.2 285.8,1088.2 285.8,1088.2 285.8,1088.2 285.8,1088.2 285.8,1088.3 285.8,1088.3 285.9,1088.3 285.9,1088.3 285.9,1088.3 285.9,1088.3 285.9,1088.4 285.9,1088.4 285.9,1088.4 285.9,1088.4 285.9,1088.4 286.0,1088.5 286.0,1088.5 286.0,1088.5 286.0,1088.5 286.0,1088.5 286.0,1088.5 286.0,1088.5 286.0,1088.5 286.0,1088.5 286.0,1088.5 286.0,1088.5 286.0,1088.5 286.0,1088.5 286.0,1088.6 286.0,1088.6 286.1,1088.6 286.1,1088.6 286.1,1088.6 286.1,1088.6 286.1,1088.6 286.1,1088.7 286.1,1088.7 286.2,1088.7 286.2,1088.7 286.2,1088.7 286.2,1088.7 286.2,1088.7 286.2,1088.7 286.2,1088.7 286.2,1088.8 286.2,1088.8 286.2,1088.8 286.2,1088.8 286.2,1088.8 286.2,1088.8 286.2,1088.8 286.2,1088.8 286.2,1088.8 286.3,1088.8 286.3,1088.8 286.3,1088.8 286.3,1088.8 286.3,1088.8 286.3,1088.8 286.3,1088.8 286.3,1088.8 286.3,1088.8 286.3,1088.8 286.3,1088.8 286.3,1088.8 286.3,1088.8 286.3,1088.8 286.3,1088.9 286.3,1088.9 286.3,1088.9 286.3,1088.9 286.3,1088.9 286.3,1088.9 286.3,1088.9 286.3,1088.9 286.3,1088.9 286.4,1089.0 286.4,1089.0 286.4,1089.0 286.4,1089.0 286.4,1089.0 286.4,1089.0 286.4,1089.0 286.4,1089.0 286.4,1089.1 286.4,1089.1 286.5,1089.1 286.5,1089.1 286.5,1089.1 286.5,1089.1 286.5,1089.1 286.5,1089.2 286.5,1089.2 286.5,1089.2 286.5,1089.2 286.5,1089.2 286.5,1089.2 286.5,1089.2 286.5,1089.2 286.6,1089.2 286.6,1089.2 286.6,1089.2 286.6,1089.2 286.6,1089.2 286.6,1089.2 286.6,1089.3 286.6,1089.3 286.6,1089.3 286.6,1089.3 286.6,1089.3 286.6,1089.3 286.6,1089.3 286.6,1089.3 286.6,1089.3 286.7,1089.3 286.7,1089.3 286.7,1089.4 286.7,1089.4 286.7,1089.4 286.7,1089.4 286.7,1089.4 286.7,1089.4 286.7,1089.4 286.7,1089.4 286.7,1089.4 286.7,1089.4 286.7,1089.4 286.7,1089.5 286.8,1089.5 286.8,1089.5 286.8,1089.5 286.8,1089.5 286.8,1089.5 286.8,1089.5 286.8,1089.6 286.8,1089.6 286.9,1089.6 286.9,1089.6 286.9,1089.6 286.9,1089.7 286.9,1089.7 286.9,1089.7 286.9,1089.7 286.9,1089.7 286.9,1089.7 286.9,1089.7 287.0,1089.7 287.0,1089.7 287.0,1089.8 287.0,1089.8 287.0,1089.8 287.0,1089.8 287.0,1089.8 287.0,1089.8 287.0,1089.8 287.0,1089.8 287.1,1089.8 287.1,1089.9 287.1,1089.9 287.1,1089.9 287.1,1089.9 287.1,1089.9 287.1,1089.9 287.1,1089.9 287.1,1089.9 287.1,1089.9 287.1,1089.9 287.1,1089.9 287.1,1090.0 287.2,1090.0 287.2,1090.0 287.2,1090.1 287.2,1090.1 287.3,1090.1 287.3,1090.1 287.3,1090.2 287.3,1090.2 287.3,1090.2 287.3,1090.2 287.3,1090.2 287.3,1090.2 287.3,1090.2 287.4,1090.2 287.4,1090.3 287.4,1090.3 287.4,1090.3 287.4,1090.3 287.4,1090.3 287.4,1090.4 287.5,1090.4 287.5,1090.4 287.5,1090.4 287.5,1090.4 287.5,1090.4 287.5,1090.5 287.5,1090.5 287.5,1090.5 287.5,1090.5 287.5,1090.5 287.5,1090.5 287.6,1090.5 287.6,1090.5 287.6,1090.5 287.6,1090.5 287.6,1090.5 287.6,1090.5 287.6,1090.5 287.6,1090.5 287.6,1090.5 287.6,1090.5 287.6,1090.5 287.6,1090.5 287.6,1090.6 287.6,1090.6 287.6,1090.6 287.7,1090.6 287.7,1090.7 287.7,1090.7 287.7,1090.7 287.8,1090.8 287.8,1090.8 287.8,1090.8 287.8,1090.8 287.8,1090.8 287.8,1090.8 287.8,1090.8 287.8,1090.8 287.8,1090.8 287.8,1090.8 287.8,1090.8 287.8,1090.8 287.8,1090.8 287.8,1090.8 287.9,1090.8 287.9,1090.8 287.9,1090.8 288.0,1090.8 288.0,1090.8 288.1,1090.9 288.1,1090.9 288.2,1090.9 288.2,1090.9 288.3,1090.9 288.4,1091.0 288.4,1091.0 288.5,1091.0 288.7,1091.0 288.7,1091.0 288.8,1091.0 288.9,1091.0 289.0,1091.2 289.1,1091.3 289.1,1091.3 289.1,1091.3 289.2,1091.3 289.2,1091.3 289.2,1091.3 289.2,1091.3 289.2,1091.3 289.3,1091.3 289.3,1091.3 289.4,1091.3 289.5,1091.3 289.6,1091.3 289.6,1091.3 289.7,1091.3 289.7,1091.3 289.7,1091.3 289.7,1091.3 289.7,1091.3 289.7,1091.3 289.7,1091.3 289.7,1091.3 289.7,1091.3 289.7,1091.3 289.7,1091.3 289.7,1091.3 289.7,1091.3 289.7,1091.3 289.7,1091.3 289.7,1091.3 289.8,1091.3 289.8,1091.3 289.8,1091.3 289.8,1091.3 289.8,1091.3 289.8,1091.3 289.8,1091.3 289.8,1091.3 289.8,1091.3 289.8,1091.3 289.8,1091.3 289.8,1091.3 289.8,1091.3 289.8,1091.3 289.8,1091.3 289.8,1091.3 289.8,1091.3 289.8,1091.3 289.8,1091.3 289.8,1091.3 289.8,1091.3 289.8,1091.3 289.8,1091.3 289.8,1091.3 289.8,1091.3 289.8,1091.3 289.8,1091.3 289.8,1091.3 289.8,1091.3 289.8,1091.3 289.8,1091.3 289.8,1091.3 289.8,1091.3 289.8,1091.3 289.8,1091.3 289.8,1091.3 289.8,1091.3 289.8,1091.3 289.9,1091.3 289.9,1091.3 289.9,1091.3 289.9,1091.3 289.9,1091.3 289.9,1091.3 289.9,1091.3 289.9,1091.3 289.9,1091.3 289.9,1091.3 289.9,1091.3 289.9,1091.3 289.9,1091.3 289.9,1091.3 289.9,1091.3 289.9,1091.3 289.9,1091.3 289.9,1091.3 289.9,1091.3 289.9,1091.3 289.9,1091.3 289.9,1091.3 289.9,1091.3 289.9,1091.3 289.9,1091.3 289.9,1091.3 289.9,1091.3 289.9,1091.3 289.9,1091.3 289.9,1091.3 289.9,1091.3 289.9,1091.3 289.9,1091.3 289.9,1091.3 289.9,1091.3 289.9,1091.4 289.9,1091.4 289.9,1091.4 289.9,1091.4 289.9,1091.4 289.9,1091.4 289.9,1091.4 289.9,1091.4 289.9,1091.4 289.9,1091.4 289.9,1091.4 289.9,1091.4 289.9,1091.4 290.0,1091.4 290.0,1091.4 290.0,1091.4 290.0,1091.4 290.0,1091.4 290.0,1091.4 290.0,1091.4 290.0,1091.3 290.0,1091.3 290.0,1091.3 290.0,1091.3 290.0,1091.3 290.0,1091.3 290.0,1091.3 290.0,1091.3 290.0,1091.3 290.0,1091.3 290.0,1091.3 290.0,1091.3 290.0,1091.3 290.0,1091.3 290.0,1091.3 290.0,1091.3 290.0,1091.3 290.0,1091.3 290.0,1091.3 290.0,1091.3 290.0,1091.3 290.0,1091.3 290.0,1091.3 290.1,1091.3 290.1,1091.3 290.1,1091.3 290.1,1091.3 290.1,1091.3 290.1,1091.3 290.1,1091.3 290.1,1091.3 290.1,1091.3 290.1,1091.3 290.1,1091.3 290.1,1091.3 290.1,1091.3 290.1,1091.3 290.1,1091.3 290.1,1091.3 290.1,1091.3 290.1,1091.3 290.1,1091.3 290.1,1091.3 290.1,1091.3 290.1,1091.3 290.1,1091.3 290.1,1091.3 290.1,1091.3 290.1,1091.3 290.1,1091.3 290.1,1091.3 290.1,1091.3 290.1,1091.3 290.1,1091.3 290.1,1091.3 290.1,1091.3 290.1,1091.3 290.1,1091.3 290.1,1091.3 290.1,1091.3 290.1,1091.3 290.1,1091.3 290.1,1091.3 290.1,1091.3 290.1,1091.3 290.1,1091.3 290.1,1091.3 290.1,1091.3 290.2,1091.3 290.2,1091.3 290.2,1091.3 290.2,1091.3 290.2,1091.3 290.2,1091.3 290.2,1091.3 290.2,1091.3 290.2,1091.3 290.2,1091.3 290.2,1091.3 290.2,1091.3 290.2,1091.3 290.3,1091.3 290.3,1091.3 290.3,1091.3 290.3,1091.3 290.3,1091.3 290.3,1091.3 290.3,1091.3 290.4,1091.3 290.4,1091.3 290.4,1091.3 290.4,1091.3 290.5,1091.3 290.5,1091.3 290.5,1091.3 290.5,1091.3 290.6,1091.3 290.6,1091.3 290.6,1091.3 290.6,1091.3 290.6,1091.3 290.6,1091.3 290.7,1091.3 290.7,1091.3 290.7,1091.3 290.8,1091.3 290.8,1091.3 290.9,1091.3 291.0,1091.3 291.2,1091.3 291.3,1091.3 291.4,1091.3 291.4,1091.3 291.5,1091.3 291.5,1091.3 291.5,1091.3 291.5,1091.3 291.5,1091.3 291.5,1091.3 291.5,1091.3 291.5,1091.3 291.5,1091.3 291.5,1091.3 291.5,1091.3 291.5,1091.3 291.5,1091.3 291.5,1091.3 291.5,1091.3 291.5,1091.3 291.6,1091.3 291.6,1091.3 291.6,1091.3 291.6,1091.3 291.6,1091.3 291.6,1091.3 291.6,1091.3 291.6,1091.2 291.6,1091.2 291.6,1091.2 291.6,1091.2 291.6,1091.2 291.6,1091.2 291.6,1091.2 291.6,1091.2 291.6,1091.2 291.6,1091.2 291.6,1091.2 291.6,1091.2 291.6,1091.2 291.6,1091.2 291.6,1091.2 291.6,1091.2 291.6,1091.1 291.6,1091.1 291.6,1091.1 291.6,1091.1 291.6,1091.1 291.6,1091.1 291.6,1091.1 291.6,1091.1 291.6,1091.1 291.6,1091.1 291.6,1091.0 291.6,1091.0 291.6,1091.0 291.6,1091.0 291.6,1091.0 291.6,1091.0 291.6,1091.0 291.6,1091.0 291.6,1091.0 291.6,1091.0 291.6,1091.0 291.6,1091.0 291.6,1091.0 291.6,1091.0 291.6,1091.0 291.6,1091.0 291.6,1091.0 291.6,1090.9 291.6,1090.9 291.7,1090.9 291.7,1090.8 291.7,1090.8 291.7,1090.8 291.7,1090.7 291.7,1090.7 291.7,1090.7 291.7,1090.6 291.7,1090.6 291.7,1090.6 291.7,1090.6 291.7,1090.6 291.7,1090.6 291.7,1090.5 291.7,1090.5 291.8,1090.5 291.8,1090.5 291.8,1090.5 291.8,1090.4 291.8,1090.4 291.8,1090.5 291.8,1090.5 291.9,1090.5 291.9,1090.5 292.2,1090.6 292.4,1090.8 292.5,1090.8 292.6,1090.8 292.6,1090.9 292.6,1090.9 292.6,1090.9 292.7,1090.9 292.7,1090.9 292.7,1090.9 292.7,1090.9 292.7,1090.9 292.7,1090.9 292.7,1090.9 292.7,1090.9 292.7,1090.9 292.8,1090.9 292.8,1090.9 292.8,1090.9 292.8,1090.9 292.8,1090.9 292.9,1090.9 292.9,1090.9 292.9,1091.0 293.0,1091.0 293.0,1091.0 293.0,1090.8 293.0,1090.8 293.1,1090.8 293.1,1090.8 293.1,1090.8 293.1,1090.8 293.2,1090.9 293.2,1090.9 293.2,1090.9 293.3,1090.9 293.3,1090.8 293.4,1090.6 293.5,1090.3 293.5,1090.0 293.5,1090.0 293.5,1090.0 293.5,1090.0 293.3,1089.8 293.2,1089.8 293.2,1089.8 293.2,1089.8 293.2,1089.8 293.2,1089.8 293.2,1089.8 293.4,1089.5 293.4,1089.4 293.5,1089.1 293.5,1089.1 293.5,1089.1 293.5,1089.1 293.6,1089.0 293.6,1088.9 293.7,1088.8 293.7,1088.7 293.7,1088.7 293.7,1088.7 293.7,1088.7 293.7,1088.7 293.7,1088.7 293.7,1088.7 293.8,1088.7 293.8,1088.7 293.8,1088.7 293.8,1088.6 293.8,1088.6 293.8,1088.6 293.7,1088.6 293.7,1088.5 293.7,1088.5 293.7,1088.5 293.7,1088.5 293.7,1088.5 293.7,1088.5 293.7,1088.5 293.7,1088.5 293.7,1088.5 293.7,1088.5 293.7,1088.4 293.7,1088.4 293.7,1088.2 293.7,1088.1 293.7,1088.1 293.7,1088.1 293.7,1088.1 293.7,1088.1 293.7,1088.1 293.7,1088.1 293.7,1088.1 293.7,1088.1 293.8,1088.1 293.8,1088.1 293.8,1088.1 293.8,1088.1 293.8,1088.1 293.8,1088.1 293.9,1088.1 293.9,1088.1 293.9,1088.1 293.9,1088.1 293.9,1088.1 293.9,1088.1 294.0,1088.2 294.0,1088.2 294.0,1088.2 294.0,1088.2 294.0,1088.2 294.0,1088.2 294.1,1088.2 294.1,1088.2 294.1,1088.2 294.1,1088.2 294.1,1088.2 294.1,1088.2 294.1,1088.2 294.2,1088.2 294.2,1088.2 294.2,1088.2 294.2,1088.2 294.2,1088.2 294.2,1088.2 294.2,1088.2 294.2,1088.2 294.2,1088.2 294.2,1088.2 294.3,1088.2 294.3,1088.2 294.3,1088.2 294.3,1088.2 294.3,1088.2 294.3,1088.2 294.3,1088.2 294.3,1088.2 294.3,1088.2 294.3,1088.2 294.3,1088.2 294.3,1088.2 294.3,1088.2 294.3,1088.2 294.3,1088.2 294.3,1088.2 294.3,1088.2 294.3,1088.2 294.4,1088.2 294.4,1088.2 294.4,1088.2 294.4,1088.3 294.4,1088.3 294.4,1088.3 294.4,1088.3 294.4,1088.3 294.4,1088.3 294.4,1088.3 294.4,1088.3 294.4,1088.3 294.5,1088.3 294.5,1088.3 294.5,1088.3 294.5,1088.3 294.5,1088.3 294.5,1088.3 294.5,1088.3 294.5,1088.3 294.5,1088.3 294.6,1088.3 294.6,1088.3 294.6,1088.3 294.6,1088.3 294.6,1088.3 294.6,1088.3 294.6,1088.2 294.7,1088.2 294.7,1088.2 294.7,1088.2 294.7,1088.2 294.7,1088.2 294.7,1088.2 294.7,1088.2 294.7,1088.2 294.7,1088.2 294.7,1088.2 294.7,1088.2 294.7,1088.2 294.7,1088.2 294.7,1088.2 294.7,1088.2 294.7,1088.2 294.7,1088.2 294.7,1088.2 294.7,1088.2 294.7,1088.2 294.7,1088.2 294.7,1088.2 294.7,1088.2 294.7,1088.2 294.8,1088.2 294.8,1088.2 294.8,1088.2 294.8,1088.2 294.8,1088.2 294.8,1088.2 294.8,1088.2 294.8,1088.2 294.8,1088.2 294.8,1088.2 294.8,1088.3 294.8,1088.3 294.8,1088.3 294.9,1088.3 294.9,1088.3 294.9,1088.3 294.9,1088.3 294.9,1088.3 294.9,1088.3 294.9,1088.3 294.9,1088.3 294.9,1088.3 294.9,1088.3 294.9,1088.3 294.9,1088.3 294.9,1088.3 294.9,1088.3 294.9,1088.3 294.9,1088.3 295.0,1088.3 295.0,1088.3 295.0,1088.3 295.0,1088.3 295.0,1088.3 295.0,1088.3 295.0,1088.3 295.0,1088.3 295.0,1088.3 295.0,1088.3 295.0,1088.3 295.0,1088.3 295.0,1088.3 295.1,1088.3 295.1,1088.3 295.1,1088.3 295.1,1088.3 295.1,1088.3 295.1,1088.3 295.1,1088.4 295.1,1088.4 295.1,1088.4 295.1,1088.4 295.2,1088.4 295.2,1088.4 295.2,1088.4 295.2,1088.4 295.2,1088.4 295.2,1088.4 295.2,1088.4 295.2,1088.4 295.3,1088.3 295.4,1088.1 295.4,1088.1 295.5,1088.0 295.5,1087.9 295.5,1087.9 295.5,1087.9 295.6,1087.9 295.6,1087.9 295.6,1087.9 295.6,1087.9 295.6,1087.9 295.7,1087.9 295.7,1087.9 295.7,1087.9 295.7,1087.9 295.7,1087.9 295.8,1087.9 295.8,1087.9 295.8,1087.9 295.8,1087.9 295.8,1087.9 295.8,1087.9 295.8,1087.9 295.9,1087.9 295.9,1087.9 295.9,1087.9 295.9,1087.9 295.9,1087.9 296.0,1087.9 296.0,1087.9 296.0,1087.9 296.0,1087.9 296.0,1087.9 296.0,1087.9 296.0,1087.9 296.1,1087.9 296.1,1087.9 296.1,1087.9 296.1,1087.9 296.1,1087.9 296.1,1087.9 296.1,1087.9 296.1,1087.9 296.1,1087.9 296.1,1087.9 296.1,1087.9 296.1,1087.9 296.1,1087.9 296.2,1087.9 296.2,1087.9 296.2,1087.9 296.2,1087.9 296.2,1087.9 296.2,1087.9 296.2,1087.9 296.2,1087.9 296.3,1087.9 296.3,1087.9 296.3,1087.9 296.3,1087.9 296.3,1087.9 296.4,1087.9 296.4,1087.9 296.4,1087.9 296.4,1087.9 296.4,1087.9 296.5,1087.9 296.5,1087.9 296.5,1087.9 296.5,1087.9 296.5,1087.9 296.5,1087.9 296.6,1087.9 296.6,1087.9 296.6,1087.9 296.6,1087.9 296.6,1087.9 296.6,1087.9 296.6,1087.9 296.6,1087.9 296.6,1087.9 296.6,1087.9 296.6,1087.9 296.6,1087.9 296.6,1087.9 296.6,1087.8 296.6,1087.8 296.6,1087.8 296.6,1087.8 296.6,1087.8 296.6,1087.8 296.7,1087.8 296.7,1087.7 296.7,1087.7 296.7,1087.7 296.7,1087.7 296.7,1087.7 296.7,1087.7 296.7,1087.7 296.7,1087.6 296.7,1087.6 296.7,1087.6 296.7,1087.6 296.7,1087.6 296.7,1087.6 296.7,1087.5 296.7,1087.5 296.7,1087.5 296.7,1087.5 296.7,1087.5 296.7,1087.5 296.8,1087.4 296.8,1087.4 296.8,1087.4 296.8,1087.4 296.8,1087.4 296.8,1087.3 296.8,1087.3 296.8,1087.3 296.8,1087.3 296.8,1087.3 296.8,1087.3 296.8,1087.2 296.8,1087.2 296.8,1087.2 296.8,1087.2 296.8,1087.2 296.8,1087.2 296.9,1087.1 296.9,1087.1 296.9,1087.1 296.9,1087.1 296.9,1087.1 296.9,1087.1 296.9,1087.1 296.9,1087.0 296.9,1087.0 296.9,1087.0 296.9,1087.0 296.9,1087.0 296.9,1087.0 296.9,1087.0 296.9,1087.0 296.9,1086.9 296.9,1086.9 296.9,1086.9 296.9,1086.9 296.9,1086.9 296.9,1086.9 296.9,1086.9 296.9,1086.9 296.9,1086.9 296.9,1086.9 296.9,1086.9 296.9,1086.9 296.9,1086.8 297.0,1086.8 297.0,1086.8 297.0,1086.8 297.0,1086.8 297.0,1086.8 297.0,1086.8 297.0,1086.8 297.0,1086.7 297.0,1086.7 297.1,1086.4 297.1,1086.4 297.1,1086.4 297.1,1086.4 297.1,1086.3 297.1,1086.3 297.1,1086.3 297.1,1086.3 297.1,1086.3 297.1,1086.3 297.1,1086.3 297.1,1086.3 297.1,1086.3 297.1,1086.2 297.0,1086.2 297.0,1086.2 297.0,1086.2 297.0,1086.2 297.0,1086.2 297.0,1086.2 297.0,1086.2 297.0,1086.2 297.0,1086.2 297.0,1086.2 297.0,1086.2 297.0,1086.1 297.0,1086.1 297.0,1086.1 297.0,1086.1 297.0,1086.1 297.0,1086.1 297.0,1086.1 297.0,1086.1 297.0,1086.1 296.9,1086.1 296.9,1086.1 296.9,1086.0 296.9,1086.0 296.9,1086.0 296.9,1086.0 296.9,1086.0 296.9,1086.0 296.9,1086.0 296.9,1086.0 296.9,1085.9 296.9,1085.9 296.9,1085.9 296.8,1085.9 296.8,1085.9 296.8,1085.9 296.8,1085.8 296.8,1085.8 296.8,1085.8 296.8,1085.8 296.8,1085.8 296.8,1085.8 296.8,1085.8 296.8,1085.8 296.8,1085.8 296.8,1085.8 296.8,1085.8 296.8,1085.8 296.8,1085.8 296.8,1085.8 296.8,1085.8 296.8,1085.8 296.8,1085.8 296.8,1085.8 296.8,1085.8 296.8,1085.8 296.8,1085.8 296.8,1085.8 296.8,1085.8 296.8,1085.8 296.8,1085.8 296.8,1085.7 296.8,1085.7 296.7,1085.6 296.7,1085.6 296.7,1085.6 296.7,1085.4 296.6,1085.4 296.6,1085.3 296.6,1085.3 296.6,1085.2 296.6,1085.2 296.6,1085.2 296.6,1085.2 296.5,1085.1 296.5,1085.1 296.5,1085.1 296.5,1085.1 296.5,1085.1 296.4,1085.0 296.4,1085.0 296.2,1084.9 296.1,1084.8 296.1,1084.8 296.1,1084.8 296.1,1084.8 296.1,1084.8 296.0,1084.8 295.8,1084.6 295.7,1084.5 295.7,1084.5 295.7,1084.5 295.7,1084.5 295.7,1084.5 295.7,1084.1 295.7,1083.8 295.7,1083.7 295.7,1083.7 295.7,1083.7 295.7,1083.7 295.6,1083.6 295.6,1083.6 295.5,1083.6 295.5,1083.6 295.4,1083.6 295.3,1083.7 295.2,1083.7 295.1,1083.7 295.0,1083.7 295.0,1083.7 295.0,1083.7 294.9,1083.7 294.9,1083.7 294.9,1083.7 294.9,1083.7 294.9,1083.7 294.9,1083.7 294.9,1083.7 294.9,1083.7 294.9,1083.7 294.9,1083.7 294.9,1083.7 294.9,1083.7 294.8,1083.7 294.8,1083.7 294.8,1083.7 294.8,1083.7 294.8,1083.7 294.8,1083.7 294.8,1083.7 294.8,1083.7 294.8,1083.7 294.8,1083.7 294.8,1083.7 294.8,1083.7 294.8,1083.7 294.8,1083.7 294.8,1083.7 294.8,1083.7 294.8,1083.6 294.8,1083.6 294.8,1083.6 294.8,1083.6 294.8,1083.6 294.8,1083.6 294.8,1083.6 294.8,1083.6 294.7,1083.6 294.7,1083.6 294.7,1083.6 294.7,1083.6 294.7,1083.6 294.7,1083.6 294.7,1083.6 294.7,1083.5 294.7,1083.5 294.7,1083.5 294.7,1083.5 294.7,1083.5 294.7,1083.5 294.6,1083.5 294.6,1083.4 294.6,1083.3 294.6,1083.3 294.6,1083.3 294.6,1083.3 294.6,1083.3 294.5,1083.3 294.5,1083.3 294.5,1083.3 294.5,1083.3 294.5,1083.3 294.5,1083.3 294.5,1083.3 294.5,1083.2 294.5,1083.2 294.5,1083.2 294.5,1083.2 294.5,1083.1 294.5,1083.1 294.5,1083.1 294.5,1083.1 294.5,1083.1 294.5,1083.1 294.5,1083.1 294.5,1083.0 294.5,1083.0 294.4,1083.0 294.4,1083.0 294.4,1083.0 294.4,1083.0 294.4,1083.0 294.4,1083.0 294.4,1083.0 294.4,1083.0 294.4,1083.0 294.4,1083.0 294.4,1083.0 294.4,1083.0 294.3,1083.0 294.3,1083.0 294.3,1083.0 294.3,1082.9 294.3,1082.9 294.3,1082.9 294.3,1082.9 294.3,1082.9 294.3,1082.9 294.3,1082.9 294.3,1082.8 294.3,1082.8 294.3,1082.8 294.3,1082.8 294.3,1082.8 294.3,1082.8 294.3,1082.8 294.3,1082.7 294.3,1082.7 294.3,1082.7 294.3,1082.7 294.3,1082.7 294.3,1082.7 294.4,1082.7 294.4,1082.7 294.4,1082.6 294.4,1082.6 294.4,1082.6 294.4,1082.6 294.3,1082.6 294.3,1082.6 294.3,1082.6 294.3,1082.6 294.3,1082.6 294.3,1082.6 294.3,1082.6 294.3,1082.7 294.2,1082.7 294.2,1082.7 294.2,1082.7 294.2,1082.7 294.2,1082.7 294.2,1082.7 294.2,1082.7 294.2,1082.7 294.2,1082.7 294.2,1082.7 294.2,1082.7 294.1,1082.6 294.1,1082.6 294.1,1082.6 294.1,1082.6 294.1,1082.6 294.1,1082.6 294.1,1082.5 294.1,1082.5 294.1,1082.5 294.1,1082.5 294.1,1082.5 294.1,1082.5 294.1,1082.5 294.1,1082.5 294.1,1082.5 294.1,1082.5 294.1,1082.5 294.1,1082.5 294.0,1082.4 294.0,1082.4 294.0,1082.4 294.0,1082.4 294.0,1082.4 294.0,1082.4 293.9,1082.4 293.9,1082.4 293.9,1082.3 293.9,1082.3 293.9,1082.3 293.9,1082.3 293.9,1082.3 293.9,1082.3 293.9,1082.3 293.9,1082.3 293.9,1082.3 293.9,1082.3 293.9,1082.3 293.9,1082.3 293.9,1082.3 293.9,1082.3 293.9,1082.3 293.9,1082.3 293.9,1082.3 293.9,1082.3 293.9,1082.3 293.9,1082.3 293.9,1082.3 293.9,1082.3 293.9,1082.3 293.9,1082.3 293.9,1082.3 293.9,1082.3 293.9,1082.3 293.9,1082.3 293.9,1082.3 293.9,1082.3 293.9,1082.3 293.9,1082.3 293.9,1082.3 293.9,1082.3 293.9,1082.3 293.9,1082.3 293.9,1082.3 293.9,1082.3 293.9,1082.3 293.9,1082.3 293.9,1082.3 293.9,1082.3 293.9,1082.3 293.9,1082.3 293.9,1082.3 293.9,1082.3 293.9,1082.3 293.9,1082.3 293.9,1082.3 293.9,1082.3 293.9,1082.3 293.9,1082.3 293.9,1082.3 293.9,1082.3 293.9,1082.3 293.9,1082.2 293.9,1082.2 293.8,1082.2 293.8,1082.2 293.8,1082.2 293.8,1082.2 293.8,1082.2 293.8,1082.2 293.8,1082.2 293.8,1082.2 293.8,1082.2 293.8,1082.2 293.8,1082.2 293.8,1082.2 293.8,1082.2 293.8,1082.2 293.8,1082.2 293.8,1082.2 293.8,1082.2 293.8,1082.2 293.8,1082.2 293.8,1082.2 293.8,1082.2 293.8,1082.2 293.8,1082.2 293.8,1082.2 293.8,1082.2 293.8,1082.2 293.8,1082.2 293.8,1082.2 293.8,1082.2 293.8,1082.2 293.8,1082.2 293.8,1082.2 293.8,1082.2 293.8,1082.1 293.8,1082.1 293.8,1082.1 293.8,1082.1 293.8,1082.1 293.8,1082.1 293.8,1082.1 293.8,1082.1 293.9,1082.1 293.9,1082.1 293.9,1082.1 293.9,1082.1 293.9,1082.1 293.9,1082.1 293.9,1082.1 293.9,1082.1 293.9,1082.1 294.0,1082.1 294.0,1082.1 294.1,1082.1 294.1,1082.0 294.1,1082.0 294.1,1082.0 294.1,1082.0 294.1,1082.0 294.1,1082.0 294.1,1082.0 294.1,1082.0 294.1,1082.0 294.2,1082.0 294.2,1082.0 294.2,1082.0 294.2,1082.0 294.2,1082.0 294.2,1082.0 294.2,1082.0 294.2,1082.0 294.2,1082.0 294.2,1082.0 294.2,1082.0 294.3,1082.0 294.3,1082.0 294.3,1082.0 294.3,1081.9 294.3,1081.9 294.3,1081.9 294.3,1081.9 294.4,1081.9 294.4,1081.9 294.4,1081.9 294.4,1081.9 294.4,1081.9 294.4,1081.9 294.4,1081.9 294.5,1081.8 294.5,1081.8 294.5,1081.8 294.5,1081.8 294.6,1081.7 294.8,1081.5 294.8,1081.5 294.9,1081.4 294.9,1081.4 295.0,1081.3 295.1,1081.2 295.2,1081.2 295.3,1081.2 295.3,1081.3 295.4,1081.3 295.5,1081.3 295.5,1081.3 295.5,1081.3 295.6,1081.3 295.7,1081.3 295.7,1081.3 295.7,1081.3 295.7,1081.3 295.7,1081.3 295.7,1081.3 295.7,1081.3 295.7,1081.3 295.7,1081.3 295.7,1081.3 295.7,1081.3 295.7,1081.3 295.7,1081.3 295.8,1081.3 295.8,1081.3 295.9,1081.3 296.0,1081.3 296.0,1081.2 296.0,1081.2 296.0,1081.2 296.0,1081.2 296.0,1081.2 296.0,1081.2 296.0,1081.2 296.0,1081.2 296.0,1081.2 296.0,1081.2 296.0,1081.2 296.0,1081.2 296.0,1081.2 296.1,1081.2 296.1,1081.2 296.1,1081.2 296.1,1081.2 296.1,1081.2 296.1,1081.2 296.1,1081.2 296.1,1081.2 296.1,1081.2 296.1,1081.2 296.1,1081.2 296.2,1081.2 296.2,1081.2 296.2,1081.2 296.2,1081.1 296.2,1081.1 296.2,1081.1 296.2,1081.1 296.2,1081.1 296.2,1081.1 296.2,1081.1 296.2,1081.1 296.3,1081.1 296.6,1081.0 296.6,1081.0 296.7,1080.9 296.8,1080.9 296.9,1080.9 297.2,1080.8 297.4,1080.7 297.5,1080.6 297.5,1080.6 297.5,1080.6 297.5,1080.6 297.5,1080.6 297.6,1080.6 297.6,1080.6 297.6,1080.6 297.6,1080.6 297.6,1080.6 297.6,1080.6 297.7,1080.6 297.7,1080.5 297.8,1080.4 297.9,1080.4 298.0,1080.3 298.1,1080.2 298.1,1080.2 298.1,1080.2 298.1,1080.2 298.1,1080.2 298.1,1080.2 298.1,1080.1 298.2,1080.1 298.2,1080.1 298.3,1080.0 298.3,1079.9 298.3,1079.9 298.5,1079.8 298.5,1079.8 298.5,1079.8 298.5,1079.8 298.5,1079.7 298.5,1079.7 298.5,1079.7 298.5,1079.7 298.5,1079.7 298.5,1079.7 298.5,1079.7 298.5,1079.7 298.5,1079.7 298.5,1079.7 298.5,1079.7 298.6,1079.6 298.6,1079.6 298.8,1079.5 298.9,1079.3 299.0,1079.3 299.0,1079.3 299.0,1079.3 299.0,1079.3 299.0,1079.3 299.0,1079.3 299.0,1079.3 299.0,1079.3 299.0,1079.3 299.0,1079.3 299.0,1079.3 299.0,1079.3 299.1,1079.2 299.1,1079.2 299.1,1079.2 299.1,1079.2 299.1,1079.2 299.2,1079.1 299.3,1079.1 299.6,1078.8 299.6,1078.8 299.6,1078.8 299.6,1078.8 299.6,1078.8 299.6,1078.8 299.6,1078.8 299.6,1078.8 299.6,1078.8 299.6,1078.8 299.6,1078.8 299.7,1078.7 299.7,1078.7 299.7,1078.7 299.7,1078.7 299.7,1078.7 299.7,1078.7 299.7,1078.7 299.7,1078.7 299.7,1078.7 299.7,1078.7 299.7,1078.7 299.7,1078.7 299.7,1078.7 299.7,1078.7 299.8,1078.6 299.8,1078.6 299.8,1078.6 299.8,1078.6 299.8,1078.6 299.8,1078.6 299.8,1078.6 299.8,1078.6 299.8,1078.6 299.8,1078.6 299.8,1078.6 299.8,1078.6 299.8,1078.6 299.9,1078.6 299.9,1078.6 299.9,1078.6 299.9,1078.5 299.9,1078.5 299.9,1078.5 299.9,1078.5 299.9,1078.5 299.9,1078.5 299.9,1078.5 299.9,1078.5 299.9,1078.5 299.9,1078.5 299.9,1078.5 299.9,1078.5 299.9,1078.5 299.9,1078.5 299.9,1078.5 300.0,1078.5 300.0,1078.5 300.0,1078.4 300.0,1078.4 300.0,1078.4 300.0,1078.4 300.0,1078.4 300.0,1078.4 300.0,1078.4 300.0,1078.4 300.0,1078.4 300.0,1078.4 300.0,1078.4 300.0,1078.4 300.0,1078.4 300.0,1078.4 300.1,1078.4 300.1,1078.4 300.1,1078.4 300.1,1078.4 300.1,1078.3 300.1,1078.3 300.1,1078.3 300.1,1078.3 300.2,1078.3 300.2,1078.3 300.6,1078.0 300.6,1077.9 300.6,1077.9 300.6,1077.9 300.6,1077.9 300.6,1077.9 300.6,1077.9 300.7,1077.9 300.7,1077.9 300.7,1077.9 300.7,1077.9 300.7,1077.9 300.7,1077.9 300.7,1077.8 300.7,1077.8 300.7,1077.8 300.7,1077.8 300.7,1077.8 300.8,1077.8 300.8,1077.8 300.8,1077.8 300.8,1077.8 300.8,1077.8 300.8,1077.8 300.8,1077.7 300.8,1077.7 300.8,1077.7 300.8,1077.7 300.8,1077.7 300.9,1077.7 300.9,1077.7 300.9,1077.7 300.9,1077.6 301.1,1077.5 301.3,1077.3 301.4,1077.2 301.4,1077.2 301.4,1077.2 301.5,1077.1 301.5,1077.1 301.6,1077.1 301.8,1076.9 302.1,1076.8 302.3,1076.8 302.4,1076.7 302.5,1076.7 302.6,1076.8 302.7,1076.8 302.8,1076.8 302.9,1076.8 302.9,1076.9 303.0,1076.9 303.1,1077.0 303.1,1077.0 303.1,1077.0 303.1,1077.0 303.1,1077.0 303.1,1077.1 303.2,1077.1 303.2,1077.1 303.2,1077.1 303.2,1077.1 303.2,1077.1 303.2,1077.1 303.2,1077.1 303.2,1077.1 303.2,1077.1 303.2,1077.1 303.2,1077.1 303.2,1077.1 303.3,1077.1 303.3,1077.1 303.3,1077.2 303.3,1077.2 303.3,1077.2 303.3,1077.2 303.3,1077.2 303.3,1077.2 303.6,1077.4 303.7,1077.4 303.8,1077.5 303.8,1077.5 303.9,1077.6 303.9,1077.6 304.0,1077.6 304.1,1077.6 304.4,1077.8 304.5,1077.9 304.7,1078.1 304.9,1078.2 305.0,1078.4 305.1,1078.5 305.2,1078.6 305.2,1078.6 305.2,1078.6 305.3,1078.8 305.4,1078.8 305.4,1078.8 305.4,1078.8 305.5,1078.9 305.6,1079.0 305.7,1079.1 305.9,1079.2 305.9,1079.2 306.0,1079.3 306.2,1079.3 306.2,1079.3 306.2,1079.3 306.5,1079.5 307.8,1080.2 308.0,1080.3 308.1,1080.4 308.2,1080.4 308.6,1080.6 308.9,1080.7 309.0,1080.7 309.4,1081.0 309.4,1081.0 309.6,1081.1 309.8,1081.1 310.0,1081.1 310.4,1081.2 310.4,1081.2 310.5,1081.1 310.7,1081.1 311.0,1081.0 311.0,1081.0 311.1,1081.0 311.5,1080.7 311.6,1080.6 311.6,1080.6 311.6,1080.6 311.7,1080.6 311.8,1080.6 311.9,1080.6 312.1,1080.5 312.3,1080.5 312.4,1080.5 312.7,1080.5 313.0,1080.5 313.1,1080.5 313.4,1080.5 313.4,1080.5 313.4,1080.5 313.8,1080.6 313.8,1080.6 313.8,1080.6 313.8,1080.6 313.8,1080.6 313.9,1080.6 313.9,1080.6 313.9,1080.6 313.9,1080.6 313.9,1080.6 314.2,1080.6 314.4,1080.7 314.4,1080.7 314.4,1080.7 314.5,1080.7 314.5,1080.6 314.6,1080.6 314.6,1080.6 314.6,1080.6 314.7,1080.6 314.7,1080.6 314.7,1080.6 314.8,1080.5 314.8,1080.5 314.9,1080.4 315.0,1080.4 315.1,1080.3 315.2,1080.3 315.2,1080.3 315.2,1080.3 315.3,1080.3 315.3,1080.3 315.3,1080.3 315.3,1080.3 315.3,1080.3 315.3,1080.3 315.3,1080.3 315.3,1080.3 315.3,1080.3 315.3,1080.2 315.3,1080.2 315.4,1080.2 315.4,1080.2 315.4,1080.2 315.4,1080.2 315.4,1080.2 315.4,1080.2 315.4,1080.2 315.4,1080.2 315.4,1080.2 315.4,1080.2 315.4,1080.2 315.4,1080.2 315.5,1080.2 315.5,1080.2 315.5,1080.2 315.5,1080.2 315.5,1080.2 315.5,1080.2 315.5,1080.2 315.5,1080.2 315.5,1080.2 315.5,1080.2 315.5,1080.2 315.5,1080.2 315.6,1080.2 315.6,1080.2 315.6,1080.2 315.6,1080.2 315.6,1080.1 315.6,1080.1 315.6,1080.1 315.6,1080.1 315.6,1080.1 315.6,1080.1 315.6,1080.1 315.6,1080.1 315.6,1080.1 315.6,1080.1 315.6,1080.1 315.6,1080.1 315.6,1080.1 315.6,1080.1 315.7,1080.1 315.7,1080.1 315.7,1080.1 315.7,1080.1 315.7,1080.1 315.7,1080.1 315.7,1080.1 315.7,1080.1 315.7,1080.1 315.7,1080.1 315.7,1080.1 315.7,1080.1 315.7,1080.1 315.7,1080.1 315.7,1080.1 315.7,1080.1 315.7,1080.1 315.7,1080.1 315.7,1080.1 315.7,1080.1 315.8,1080.1 315.8,1080.1 315.8,1080.1 315.8,1080.1 315.8,1080.1 315.8,1080.1 315.8,1080.1 315.8,1080.1 315.8,1080.1 315.8,1080.1 315.8,1080.1 315.8,1080.1 315.8,1080.1 315.8,1080.1 315.8,1080.1 315.8,1080.1 315.8,1080.1 315.8,1080.1 315.8,1080.1 315.8,1080.1 315.8,1080.1 315.9,1080.0 315.9,1080.0 315.9,1080.0 315.9,1080.0 315.9,1080.0 315.9,1080.0 315.9,1080.0 316.1,1080.0 316.4,1079.8 316.6,1079.8 316.6,1079.8 316.6,1079.8 316.6,1079.7 316.6,1079.7 316.6,1079.7 316.6,1079.7 316.6,1079.7 316.6,1079.7 316.6,1079.7 316.7,1079.7 316.7,1079.7 316.7,1079.7 316.7,1079.7 316.7,1079.7 316.8,1079.7 316.8,1079.7 316.9,1079.7 316.9,1079.6 316.9,1079.6 316.9,1079.6 316.9,1079.6 316.9,1079.6 316.9,1079.6 316.9,1079.6 317.0,1079.6 317.0,1079.6 317.0,1079.6 317.0,1079.6 317.0,1079.6 317.0,1079.6 317.0,1079.6 317.0,1079.6 317.0,1079.6 317.0,1079.6 317.0,1079.6 317.0,1079.6 317.0,1079.6 317.0,1079.6 317.0,1079.6 317.0,1079.6 317.0,1079.6 317.0,1079.6 317.0,1079.6 317.0,1079.6 317.1,1079.6 317.1,1079.5 317.1,1079.5 317.1,1079.5 317.1,1079.5 317.1,1079.5 317.1,1079.5 317.1,1079.5 317.1,1079.5 317.1,1079.5 317.1,1079.5 317.1,1079.5 317.2,1079.5 317.2,1079.5 317.2,1079.5 317.2,1079.5 317.2,1079.5 317.2,1079.5 317.2,1079.5 317.2,1079.5 317.2,1079.4 317.3,1079.4 317.3,1079.4 317.3,1079.4 317.3,1079.4 317.3,1079.4 317.3,1079.4 317.3,1079.4 317.4,1079.4 317.4,1079.4 317.4,1079.4 317.4,1079.4 317.4,1079.3 317.5,1079.3 317.5,1079.3 317.5,1079.3 317.5,1079.3 317.5,1079.3 317.5,1079.3 317.6,1079.3 317.6,1079.3 317.6,1079.3 317.6,1079.3 317.6,1079.3 317.6,1079.3 317.6,1079.2 317.6,1079.2 317.6,1079.2 317.6,1079.2 317.6,1079.2 317.7,1079.2 317.7,1079.2 317.7,1079.2 317.7,1079.2 317.7,1079.2 317.7,1079.2 317.7,1079.2 317.7,1079.2 317.7,1079.2 317.7,1079.2 317.7,1079.2 317.7,1079.2 317.7,1079.2 317.8,1079.2 317.8,1079.2 317.8,1079.1 317.8,1079.1 317.8,1079.1 317.8,1079.1 317.8,1079.1 317.8,1079.1 317.8,1079.1 317.8,1079.1 317.8,1079.1 317.8,1079.1 317.8,1079.1 317.8,1079.1 317.8,1079.1 317.8,1079.1 317.9,1079.1 317.9,1079.1 317.9,1079.1 317.9,1079.1 317.9,1079.1 317.9,1079.1 317.9,1079.1 317.9,1079.1 317.9,1079.1 317.9,1079.1 317.9,1079.0 317.9,1079.0 317.9,1079.0 317.9,1079.0 317.9,1079.0 318.0,1079.0 318.0,1079.0 318.0,1079.0 318.0,1079.0 318.0,1079.0 318.0,1079.0 318.0,1079.0 318.0,1079.0 318.0,1079.0 318.0,1079.0 318.0,1079.0 318.0,1079.0 318.0,1079.0 318.0,1079.0 318.1,1079.0 318.1,1079.0 318.1,1079.0 318.1,1079.0 318.1,1079.0 318.1,1079.0 318.1,1079.0 318.1,1079.0 318.1,1079.0 318.1,1079.0 318.1,1079.0 318.1,1079.0 318.1,1079.0 318.1,1079.0 318.1,1079.0 318.1,1078.9 318.1,1078.9 318.1,1078.9 318.1,1078.9 318.1,1078.9 318.1,1078.9 318.1,1078.9 318.1,1078.9 318.2,1078.9 318.2,1078.9 318.2,1078.9 318.2,1078.9 318.2,1078.9 318.2,1078.9 318.2,1078.9 318.2,1078.9 318.2,1078.9 318.2,1078.9 318.3,1078.8 318.5,1078.7 318.7,1078.6 318.8,1078.5 319.2,1078.4 319.3,1078.3 319.4,1078.2 319.5,1078.2 319.6,1078.1 319.6,1078.1 319.6,1078.1 319.7,1078.1 319.7,1078.1 319.7,1078.1 319.7,1078.1 319.7,1078.1 319.8,1078.1 319.8,1078.1 319.8,1078.1 319.8,1078.1 319.8,1078.1 319.8,1078.1 319.8,1078.1 319.8,1078.1 319.8,1078.1 319.8,1078.1 319.8,1078.1 319.8,1078.1 319.8,1078.1 319.8,1078.1 319.8,1078.1 319.8,1078.1 319.8,1078.1 319.8,1078.1 319.8,1078.1 319.8,1078.1 319.8,1078.1 319.8,1078.1 319.8,1078.1 319.9,1078.1 319.9,1078.1 319.9,1078.1 319.9,1078.1 319.9,1078.1 319.9,1078.1 319.9,1078.1 319.9,1078.1 319.9,1078.1 319.9,1078.1 319.9,1078.1 319.9,1078.1 319.9,1078.1 319.9,1078.1 319.9,1078.1 319.9,1078.1 320.0,1078.1 320.0,1078.1 320.0,1078.1 320.0,1078.1 320.0,1078.1 320.0,1078.0 320.0,1078.0 320.0,1078.0 320.0,1078.0 320.0,1078.0 320.1,1078.0 320.2,1078.0 320.3,1077.9 320.3,1077.9 320.3,1077.9 320.3,1077.9 320.3,1077.9 320.3,1077.9 320.3,1077.9 320.3,1077.9 320.3,1077.9 320.3,1077.9 320.3,1077.9 320.3,1077.9 320.3,1077.9 320.3,1077.9 320.3,1077.9 320.3,1077.9 320.3,1077.9 320.3,1077.9 320.4,1077.9 320.4,1077.9 320.4,1077.9 320.4,1077.9 320.4,1077.9 320.4,1077.9 320.4,1077.9 320.5,1077.9 320.5,1077.9 320.5,1077.9 320.5,1077.9 320.5,1077.9 320.5,1077.9 320.5,1077.9 320.5,1077.9 320.5,1077.9 320.5,1077.9 320.5,1077.9 320.5,1077.9 320.6,1077.9 320.6,1077.9 320.6,1077.9 320.6,1077.9 320.6,1077.9 320.6,1077.9 320.6,1077.9 320.6,1077.9 320.6,1077.9 320.6,1077.9 320.7,1077.9 320.7,1077.9 320.7,1077.9 320.7,1077.9 320.7,1077.9 320.7,1077.9 320.7,1077.9 320.7,1077.9 320.7,1077.9 320.7,1077.9 320.7,1077.9 320.8,1077.9 320.8,1077.9 320.8,1077.9 320.8,1077.8 320.8,1077.8 320.8,1077.8 320.8,1077.8 320.8,1077.8 320.8,1077.8 320.8,1077.8 320.8,1077.8 320.8,1077.8 320.8,1077.8 320.8,1077.8 320.8,1077.8 320.9,1077.8 320.9,1077.8 320.9,1077.8 320.9,1077.8 320.9,1077.8 320.9,1077.8 320.9,1077.8 320.9,1077.8 320.9,1077.8 320.9,1077.8 320.9,1077.8 320.9,1077.8 320.9,1077.8 320.9,1077.8 320.9,1077.8 320.9,1077.8 320.9,1077.8 320.9,1077.8 320.9,1077.8 320.9,1077.8 320.9,1077.8 320.9,1077.8 320.9,1077.8 321.0,1077.8 321.0,1077.8 321.0,1077.8 321.0,1077.8 321.0,1077.8 321.0,1077.8 321.0,1077.8 321.0,1077.8 321.0,1077.8 321.1,1077.8 321.1,1077.8 321.1,1077.8 321.1,1077.8 321.1,1077.8 321.1,1077.8 321.1,1077.8 321.1,1077.8 321.1,1077.8 321.1,1077.8 321.1,1077.8 321.1,1077.8 321.2,1077.8 321.2,1077.8 321.2,1077.8 321.2,1077.8 321.2,1077.8 321.3,1077.8 321.3,1077.8 321.3,1077.8 321.3,1077.8 321.3,1077.8 321.3,1077.8 321.3,1077.8 321.4,1077.8 321.4,1077.8 321.4,1077.8 321.4,1077.8 321.4,1077.8 321.4,1077.8 321.5,1077.8 321.5,1077.8 321.5,1077.8 321.5,1077.8 321.6,1077.8 321.6,1077.8 321.6,1077.8 321.6,1077.8 321.6,1077.8 321.6,1077.8 321.6,1077.7 321.6,1077.7 321.6,1077.7 321.6,1077.7 321.7,1077.7 321.7,1077.7 321.7,1077.7 321.7,1077.7 321.7,1077.7 321.7,1077.7 321.7,1077.7 321.7,1077.7 321.7,1077.7 321.8,1077.7 321.8,1077.7 321.8,1077.7 321.8,1077.7 321.8,1077.7 321.8,1077.7 321.8,1077.7 321.8,1077.7 321.8,1077.7 321.9,1077.7 321.9,1077.7 321.9,1077.7 321.9,1077.7 321.9,1077.7 321.9,1077.7 321.9,1077.7 321.9,1077.7 321.9,1077.7 321.9,1077.7 321.9,1077.7 321.9,1077.7 321.9,1077.7 321.9,1077.7 321.9,1077.7 322.0,1077.7 322.0,1077.7 322.0,1077.7 322.0,1077.7 322.0,1077.7 322.0,1077.7 322.0,1077.7 322.0,1077.7 322.0,1077.7 322.0,1077.7 322.0,1077.7 322.0,1077.7 322.0,1077.7 322.0,1077.7 322.1,1077.7 322.1,1077.7 322.1,1077.7 322.1,1077.7 322.1,1077.7 322.1,1077.7 322.1,1077.7 322.1,1077.7 322.1,1077.7 322.1,1077.7 322.1,1077.7 322.1,1077.7 322.1,1077.7 322.1,1077.7 322.1,1077.7 322.1,1077.7 322.1,1077.7 322.1,1077.7 322.1,1077.7 322.1,1077.7 322.1,1077.7 322.1,1077.7 322.1,1077.7 322.1,1077.7 322.1,1077.7 322.1,1077.7 322.1,1077.7 322.1,1077.7 322.1,1077.7 322.1,1077.7 322.1,1077.7 322.1,1077.7 322.1,1077.7 322.1,1077.7 322.1,1077.7 322.2,1077.7 322.2,1077.7 322.2,1077.7 322.2,1077.7 322.2,1077.7 322.2,1077.7 322.2,1077.7 322.2,1077.7 322.2,1077.7 322.2,1077.7 322.2,1077.7 322.2,1077.7 322.3,1077.7 322.3,1077.7 322.4,1077.7 322.4,1077.7 322.4,1077.7 322.4,1077.7 322.4,1077.7 322.4,1077.7 322.4,1077.7 322.4,1077.7 322.4,1077.7 322.4,1077.7 322.4,1077.7 322.4,1077.7 322.4,1077.7 322.4,1077.7 322.5,1077.7 322.5,1077.7 322.5,1077.7 322.5,1077.7 322.5,1077.7 322.5,1077.7 322.5,1077.7 322.6,1077.7 322.6,1077.7 322.6,1077.7 322.6,1077.7 322.6,1077.7 322.6,1077.7 322.6,1077.7 322.6,1077.7 322.6,1077.7 322.6,1077.7 322.6,1077.7 322.6,1077.7 322.6,1077.7 322.6,1077.7 322.6,1077.7 322.6,1077.7 322.7,1077.7 322.7,1077.7 322.7,1077.7 322.7,1077.7 322.7,1077.7 322.7,1077.7 322.7,1077.7 322.7,1077.7 322.7,1077.7 322.7,1077.7 322.8,1077.7 322.8,1077.7 322.8,1077.7 322.8,1077.7 322.8,1077.7 322.8,1077.7 322.8,1077.7 322.8,1077.7 322.8,1077.7 322.8,1077.7 322.8,1077.7 322.8,1077.7 322.8,1077.7 322.9,1077.7 322.9,1077.7 322.9,1077.6 322.9,1077.6 322.9,1077.6 322.9,1077.6 322.9,1077.6 322.9,1077.7 323.0,1077.7 323.0,1077.6 323.0,1077.6 323.0,1077.6 323.0,1077.6 323.0,1077.6 323.0,1077.6 323.0,1077.6 323.0,1077.6 323.0,1077.6 323.0,1077.6 323.0,1077.6 323.0,1077.6 323.0,1077.6 323.0,1077.6 323.1,1077.6 323.1,1077.6 323.1,1077.6 323.1,1077.6 323.1,1077.6 323.1,1077.6 323.1,1077.6 323.1,1077.6 323.1,1077.6 323.1,1077.6 323.1,1077.6 323.1,1077.6 323.1,1077.6 323.1,1077.6 323.1,1077.6 323.1,1077.6 323.1,1077.6 323.2,1077.6 323.2,1077.6 323.2,1077.6 323.2,1077.6 323.3,1077.6 323.3,1077.6 323.3,1077.6 323.3,1077.6 323.3,1077.6 323.3,1077.6 323.4,1077.6 323.4,1077.6 323.5,1077.5 323.5,1077.5 323.5,1077.5 323.5,1077.5 323.6,1077.5 323.6,1077.5 323.7,1077.5 323.7,1077.5 323.9,1077.4 324.0,1077.4 324.1,1077.4 324.1,1077.4 324.3,1077.4 324.3,1077.4 324.3,1077.4 324.3,1077.4 324.3,1077.4 324.3,1077.4 324.3,1077.4 324.3,1077.4 324.3,1077.4 324.3,1077.4 324.3,1077.4 324.3,1077.4 324.3,1077.4 324.3,1077.4 324.3,1077.4 324.3,1077.4 324.3,1077.4 324.3,1077.4 324.3,1077.4 324.3,1077.4 324.3,1077.4 324.3,1077.4 324.3,1077.4 324.3,1077.4 324.3,1077.4 324.4,1077.4 324.4,1077.4 324.4,1077.4 324.4,1077.4 324.4,1077.4 324.4,1077.4 324.4,1077.4 324.4,1077.4 324.4,1077.4 324.4,1077.4 324.4,1077.4 324.4,1077.3 324.4,1077.3 324.4,1077.3 324.4,1077.3 324.4,1077.3 324.4,1077.3 324.4,1077.3 324.4,1077.3 324.4,1077.3 324.4,1077.3 324.4,1077.3 324.5,1077.3 324.5,1077.3 324.5,1077.3 324.5,1077.3 324.5,1077.3 324.5,1077.3 324.5,1077.3 324.5,1077.3 324.5,1077.3 324.5,1077.3 324.5,1077.3 324.5,1077.3 324.5,1077.3 324.5,1077.3 324.5,1077.3 324.5,1077.3 324.5,1077.3 324.5,1077.3 324.5,1077.3 324.5,1077.3 324.5,1077.3 324.5,1077.3 324.5,1077.3 324.6,1077.3 324.6,1077.3 324.6,1077.3 324.6,1077.3 324.6,1077.3 324.6,1077.3 324.6,1077.3 324.6,1077.3 324.6,1077.3 324.7,1077.3 324.7,1077.3 324.7,1077.3 324.7,1077.3 324.7,1077.3 324.7,1077.3 324.8,1077.3 324.8,1077.3 324.8,1077.3 324.8,1077.3 324.8,1077.3 324.8,1077.3 324.8,1077.3 324.8,1077.3 324.8,1077.3 324.9,1077.3 324.9,1077.3 324.9,1077.3 324.9,1077.3 324.9,1077.3 324.9,1077.3 324.9,1077.3 324.9,1077.3 324.9,1077.3 324.9,1077.2 324.9,1077.2 325.0,1077.2 325.0,1077.2 325.0,1077.2 325.0,1077.2 325.0,1077.2 325.0,1077.2 325.0,1077.2 325.0,1077.2 325.0,1077.2 325.0,1077.2 325.0,1077.2 325.0,1077.2 325.0,1077.2 325.0,1077.2 325.0,1077.1 325.1,1077.1 325.1,1077.1 325.1,1077.1 325.2,1077.1 325.2,1077.1 325.3,1077.1 325.4,1077.1 325.5,1077.1 325.6,1077.1 325.6,1077.1 325.6,1077.1 325.8,1077.1 325.9,1077.1 325.9,1077.1 325.9,1077.1 325.9,1077.1 325.9,1077.1 325.9,1077.1 325.9,1077.1 326.0,1077.1 326.0,1077.1 326.0,1077.1 326.1,1077.1 326.1,1077.1 326.1,1077.1 326.1,1077.1 326.1,1077.1 326.2,1077.2 326.2,1077.2 326.2,1077.2 326.3,1077.2 326.3,1077.2 326.4,1077.2 326.4,1077.3 326.4,1077.3 326.4,1077.3 326.5,1077.3 326.6,1077.4 326.6,1077.4 326.6,1077.4 326.7,1077.5 326.8,1077.6 326.9,1077.7 327.0,1077.7 327.1,1077.7 327.2,1077.7 327.2,1077.7 327.2,1077.7 327.2,1077.7 327.2,1077.7 327.3,1077.7 327.4,1077.7 327.4,1077.7 327.4,1077.7 327.4,1077.7 327.5,1077.7 327.5,1077.7 327.5,1077.7 327.5,1077.7 327.5,1077.7 327.5,1077.7 327.5,1077.7 327.5,1077.7 327.5,1077.7 327.5,1077.7 327.5,1077.7 327.5,1077.7 327.5,1077.7 327.5,1077.7 327.5,1077.7 327.5,1077.7 327.5,1077.7 327.5,1077.7 327.5,1077.7 327.5,1077.7 327.5,1077.7 327.5,1077.7 327.5,1077.7 327.5,1077.7 327.6,1077.7 327.6,1077.7 327.6,1077.7 327.6,1077.7 327.6,1077.7 327.6,1077.7 327.6,1077.7 327.6,1077.7 327.6,1077.7 327.6,1077.7 327.6,1077.7 327.6,1077.7 327.6,1077.7 327.6,1077.7 327.6,1077.7 327.6,1077.7 327.6,1077.7 327.6,1077.7 327.6,1077.7 327.6,1077.7 327.6,1077.7 327.6,1077.7 327.6,1077.7 327.7,1077.7 327.7,1077.7 327.9,1077.6 327.9,1077.6 327.9,1077.6 327.9,1077.6 328.0,1077.6 328.1,1077.5 328.2,1077.4 328.5,1077.4 328.6,1077.3 328.8,1077.2 329.0,1077.2 329.2,1077.2 329.4,1077.1 329.4,1077.1 329.7,1077.0 329.9,1077.0 330.0,1077.0 330.0,1077.0 330.0,1077.0 330.1,1077.0 330.3,1076.9 330.3,1076.9 330.3,1076.8 330.3,1076.8 330.4,1076.8 330.4,1076.7 330.4,1076.7 330.4,1076.7 330.5,1076.7 330.5,1076.7 330.6,1076.7 330.6,1076.7 330.6,1076.6 330.6,1076.6 330.6,1076.6 330.6,1076.6 330.7,1076.6 330.7,1076.6 330.7,1076.6 330.7,1076.6 330.7,1076.6 330.8,1076.6 330.8,1076.6 330.9,1076.5 331.0,1076.5 331.2,1076.4 331.4,1076.4 331.7,1076.3 331.9,1076.2 332.1,1076.2 332.1,1076.1 332.5,1076.1 332.7,1076.1 332.8,1076.1 332.8,1076.1 332.9,1076.1 333.1,1076.1 333.1,1076.1 333.1,1076.1 333.1,1076.1 333.2,1076.1 333.2,1076.1 333.3,1076.1 333.6,1076.1 333.8,1076.1 333.9,1076.1 334.2,1076.2 334.4,1076.3 334.8,1076.4 334.8,1076.4 334.9,1076.4 334.9,1076.5 335.0,1076.5 335.1,1076.5 335.3,1076.6 335.3,1076.7 335.4,1076.7 335.4,1076.7 335.4,1076.7 335.4,1076.7 335.4,1076.7 335.4,1076.7 335.4,1076.7 335.5,1076.7 335.5,1076.7 335.5,1076.8 335.5,1076.8 335.5,1076.8 335.5,1076.8 335.5,1076.8 335.5,1076.8 335.5,1076.8 335.5,1076.8 335.5,1076.8 335.6,1076.8 335.6,1076.8 335.6,1076.8 335.6,1076.8 335.6,1076.8 335.6,1076.8 335.6,1076.8 335.6,1076.8 335.6,1076.9 335.7,1076.9 335.7,1076.9 335.7,1076.9 335.7,1076.9 335.7,1076.9 335.7,1076.9 335.8,1076.9 335.8,1076.9 335.8,1076.9 335.8,1076.9 335.9,1077.0 336.2,1077.2 336.5,1077.4 336.7,1077.5 336.8,1077.6 337.0,1077.8 337.1,1077.8 337.2,1077.9 337.2,1077.9 337.2,1077.9 337.3,1077.9 337.4,1078.0 337.5,1078.1 337.5,1078.1 337.6,1078.2 337.7,1078.2 337.7,1078.2 337.7,1078.2 337.7,1078.2 337.7,1078.2 337.7,1078.2 337.8,1078.3 337.9,1078.3 337.9,1078.3 337.9,1078.3 337.9,1078.3 337.9,1078.3 338.0,1078.3 338.0,1078.4 338.1,1078.4 338.2,1078.4 338.2,1078.4 338.3,1078.4 338.4,1078.5 338.4,1078.5 338.4,1078.5 338.5,1078.6 338.6,1078.7 338.6,1078.7 338.7,1078.7 338.7,1078.7 338.7,1078.7 338.8,1078.7 338.8,1078.7 338.8,1078.7 338.9,1078.7 338.9,1078.7 339.0,1078.7 339.0,1078.7 339.1,1078.7 339.2,1078.7 339.4,1078.7 339.6,1078.7 339.7,1078.7 339.8,1078.7 339.8,1078.7 339.8,1078.7 339.8,1078.7 339.9,1078.7 339.9,1078.7 339.9,1078.7 339.9,1078.7 340.0,1078.7 340.0,1078.7 340.0,1078.7 340.0,1078.7 340.3,1078.7 340.4,1078.7 340.6,1078.7 340.7,1078.7 340.8,1078.7 340.8,1078.7 340.9,1078.7 340.9,1078.7 340.9,1078.7 340.9,1078.7 340.9,1078.8 341.1,1078.9 341.1,1078.9 341.3,1079.0 341.3,1079.0 341.3,1079.1 341.5,1079.2 341.5,1079.2 341.5,1079.2 341.6,1079.2 341.6,1079.2 341.7,1079.3 341.7,1079.3 341.7,1079.3 341.8,1079.4 341.8,1079.4 341.9,1079.4 341.9,1079.4 341.9,1079.4 341.9,1079.5 342.0,1079.5 342.0,1079.5 342.0,1079.5 342.1,1079.6 342.1,1079.6 342.1,1079.6 342.1,1079.6 342.2,1079.6 342.2,1079.6 342.2,1079.7 342.2,1079.7 342.2,1079.7 342.2,1079.7 342.2,1079.7 342.2,1079.7 342.3,1079.7 342.3,1079.7 342.3,1079.8 342.3,1079.8 342.4,1079.8 342.4,1079.8 342.4,1079.8 342.4,1079.8 342.9,1080.1 342.9,1080.1 343.2,1080.2 343.2,1080.3 343.2,1080.3 343.2,1080.3 343.2,1080.3 343.2,1080.3 343.2,1080.3 343.2,1080.3 343.2,1080.3 343.2,1080.3 343.2,1080.3 343.2,1080.3 343.3,1080.3 343.3,1080.3 343.3,1080.3 343.3,1080.3 343.3,1080.3 343.3,1080.3 343.3,1080.3 343.3,1080.3 343.3,1080.3 343.3,1080.3 343.4,1080.3 343.4,1080.3 343.4,1080.3 343.4,1080.3 343.4,1080.3 343.4,1080.3 343.4,1080.3 343.4,1080.3 343.4,1080.3 343.4,1080.3 343.4,1080.3 343.4,1080.3 343.4,1080.3 343.4,1080.3 343.4,1080.3 343.4,1080.3 343.4,1080.3 343.4,1080.3 343.4,1080.3 343.4,1080.3 343.4,1080.3 343.4,1080.3 343.4,1080.3 343.4,1080.3 343.4,1080.3 343.4,1080.3 343.4,1080.3 343.4,1080.3 343.4,1080.3 343.4,1080.3 343.4,1080.3 343.4,1080.3 343.4,1080.3 343.4,1080.3 343.4,1080.3 343.4,1080.3 343.4,1080.3 343.4,1080.3 343.4,1080.4 343.5,1080.4 343.5,1080.4 343.5,1080.4 343.5,1080.4 343.5,1080.4 343.5,1080.4 343.5,1080.4 343.5,1080.4 343.5,1080.4 343.5,1080.4 343.5,1080.4 343.5,1080.4 343.5,1080.4 343.5,1080.4 343.5,1080.4 343.5,1080.4 343.5,1080.4 343.5,1080.4 343.5,1080.4 343.5,1080.4 343.5,1080.4 343.5,1080.4 343.5,1080.4 343.5,1080.4 343.5,1080.4 343.5,1080.4 343.6,1080.4 343.6,1080.4 343.6,1080.4 343.6,1080.4 343.7,1080.4 343.7,1080.5 343.7,1080.5 343.7,1080.5 343.7,1080.5 343.7,1080.5 343.7,1080.5 343.7,1080.5 343.7,1080.5 343.7,1080.5 343.7,1080.5 343.7,1080.5 343.7,1080.5 343.7,1080.5 343.8,1080.5 343.8,1080.5 343.8,1080.5 343.8,1080.5 343.8,1080.5 343.8,1080.5 343.8,1080.5 343.8,1080.5 343.8,1080.5 343.8,1080.5 343.8,1080.5 343.8,1080.5 343.9,1080.5 343.9,1080.5 343.9,1080.6 343.9,1080.6 343.9,1080.6 343.9,1080.6 343.9,1080.6 343.9,1080.6 343.9,1080.6 343.9,1080.6 343.9,1080.6 343.9,1080.6 343.9,1080.6 343.9,1080.6 343.9,1080.6 343.9,1080.6 343.9,1080.6 343.9,1080.6 343.9,1080.6 343.9,1080.6 343.9,1080.6 343.9,1080.6 344.0,1080.6 344.0,1080.6 344.0,1080.6 344.0,1080.6 344.0,1080.6 344.0,1080.6 344.0,1080.6 344.1,1080.6 344.1,1080.6 344.1,1080.6 344.1,1080.6 344.1,1080.6 344.1,1080.6 344.1,1080.7 344.1,1080.7 344.1,1080.7 344.1,1080.7 344.2,1080.7 344.2,1080.7 344.2,1080.7 344.2,1080.7 344.2,1080.7 344.2,1080.7 344.2,1080.7 344.2,1080.7 344.2,1080.7 344.2,1080.7 344.2,1080.7 344.2,1080.7 344.3,1080.7 344.3,1080.8 344.4,1080.9 344.4,1080.9 344.5,1081.0 344.5,1081.0 344.6,1081.1 344.6,1081.1 344.7,1081.1 344.8,1081.3 344.9,1081.4 345.2,1081.7 345.2,1081.7 345.3,1081.8 345.3,1081.8 345.4,1081.8 345.4,1081.8 345.5,1081.9 346.1,1082.0 346.1,1082.0 346.4,1082.1 347.3,1082.4 347.8,1082.5 348.2,1082.6 348.4,1082.6 348.9,1082.8 349.2,1082.9 349.7,1083.1 350.4,1083.3 350.6,1083.3 350.6,1083.3 350.8,1083.4 350.8,1083.4 350.9,1083.4 351.0,1083.4 351.3,1083.5 351.5,1083.5 351.6,1083.5 351.6,1083.5 351.6,1083.5 351.6,1083.5 351.6,1083.5 351.6,1083.5 351.6,1083.5 351.6,1083.5 351.7,1083.5 351.7,1083.6 352.0,1083.6 352.3,1083.7 352.3,1083.7 352.6,1083.7 352.7,1083.7 352.8,1083.8 353.5,1083.9 353.8,1084.0 353.9,1084.0 354.1,1084.1 354.2,1084.1 354.2,1084.1 354.7,1084.3 355.8,1084.8 356.3,1085.0 356.3,1085.0 356.3,1085.0 356.3,1085.0 357.0,1085.2 358.2,1085.7 358.7,1085.9 358.8,1086.0 359.2,1086.2 359.2,1086.3 359.3,1086.3 359.4,1086.4 359.6,1086.5 359.6,1086.5 359.8,1086.6 360.0,1086.7 360.1,1086.8 360.9,1087.2 361.8,1087.7 361.9,1087.7 362.0,1087.7 362.6,1087.9 362.6,1087.9 362.6,1087.9 362.6,1088.6 362.6,1088.7 362.6,1088.7 362.6,1088.9 362.6,1088.9 362.6,1088.9 362.6,1088.9 362.6,1088.9 362.8,1089.0 362.9,1089.1 363.0,1089.1 363.0,1089.1 363.0,1089.2 363.1,1089.2 363.1,1089.2 363.1,1089.2 363.2,1089.2 363.2,1089.2 363.2,1089.2 363.3,1089.2 363.4,1089.2 363.5,1089.2 363.5,1089.2 363.6,1089.3 363.7,1089.3 363.7,1089.3 363.8,1089.3 363.8,1089.3 363.8,1089.3 363.8,1089.3 363.8,1089.3 363.9,1089.4 363.9,1089.4 364.0,1089.4 364.1,1089.5 364.1,1089.5 364.2,1089.5 364.2,1089.6 364.3,1089.6 364.4,1089.7 364.4,1089.7 364.4,1089.7 364.4,1089.7 364.5,1089.8 364.5,1089.8 364.5,1089.8 364.6,1089.9 364.7,1090.1 364.8,1090.2 364.8,1090.3 364.8,1090.3 364.8,1090.3 364.8,1090.3 364.8,1090.4 364.9,1090.4 364.9,1090.4 364.9,1090.4 364.9,1090.4 364.9,1090.4 364.9,1090.4 365.0,1090.5 365.0,1090.5 365.0,1090.5 365.0,1090.6 365.0,1090.6 365.0,1090.6 365.0,1090.6 365.1,1090.6 365.1,1090.6 365.1,1090.7 365.1,1090.7 365.2,1090.7 365.2,1090.7 365.2,1090.7 365.2,1090.7 365.2,1090.8 365.2,1090.8 365.2,1090.8 365.2,1090.8 365.2,1090.8 365.2,1090.8 365.2,1090.8 365.2,1090.8 365.2,1090.8 365.2,1090.9 365.3,1090.9 365.3,1090.9 365.3,1091.0 365.3,1091.0 365.3,1091.0 365.4,1091.0 365.4,1091.0 365.4,1091.0 365.4,1091.0 365.4,1091.1 365.4,1091.1 365.4,1091.1 365.4,1091.1 365.4,1091.1 365.4,1091.1 365.4,1091.1 365.4,1091.1 365.5,1091.1 365.5,1091.1 365.5,1091.1 365.5,1091.2 365.5,1091.2 365.5,1091.3 365.5,1091.3 365.5,1091.3 365.5,1091.3 365.5,1091.4 365.5,1091.4 365.5,1091.4 365.5,1091.6 365.5,1091.6 365.5,1091.6 365.5,1091.6 365.5,1091.6 365.5,1091.6 365.5,1091.6 365.5,1091.6 365.5,1091.6 365.5,1091.6 365.5,1091.6 365.5,1091.7 365.5,1091.7 365.5,1091.7 365.4,1091.7 365.4,1091.7 365.4,1091.8 365.4,1091.8 365.4,1091.8 365.4,1091.8 365.4,1091.8 365.4,1091.8 365.4,1091.8 365.4,1091.8 365.4,1091.8 365.4,1091.8 365.4,1091.8 365.4,1091.8 365.4,1091.9 365.4,1092.0 365.4,1092.0 365.4,1092.0 365.4,1092.0 365.4,1092.1 365.4,1092.1 365.4,1092.1 365.4,1092.2 365.4,1092.2 365.3,1092.2 365.3,1092.2 365.3,1092.2 365.3,1092.2 365.3,1092.3 365.3,1092.3 365.3,1092.3 365.3,1092.3 365.3,1092.3 365.3,1092.3 365.2,1092.3 365.2,1092.3 365.2,1092.4 365.2,1092.4 365.2,1092.4 365.2,1092.4 365.2,1092.4 365.2,1092.4 365.2,1092.4 365.2,1092.5 365.2,1092.5 365.2,1092.5 365.2,1092.6 365.1,1092.7 365.1,1092.8 365.1,1092.8 365.1,1092.8 365.1,1092.8 365.1,1092.9 365.1,1093.0 365.1,1093.0 365.1,1093.0 365.1,1093.0 365.1,1093.1 365.1,1093.1 365.1,1093.1 365.1,1093.1 365.2,1093.2 365.2,1093.3 365.3,1093.3 365.3,1093.3 365.3,1093.4 365.3,1093.4 365.3,1093.4 365.3,1093.5 365.3,1093.5 365.3,1093.5 365.3,1093.5 365.3,1093.5 365.3,1093.5 365.3,1093.5 365.3,1093.5 365.3,1093.5 365.3,1093.6 365.3,1093.6 365.3,1093.6 365.3,1093.6 365.3,1093.6 365.3,1093.6 365.3,1093.6 365.3,1093.6 365.3,1093.6 365.3,1093.6 365.3,1093.7 365.3,1093.7 365.3,1093.7 365.3,1093.7 365.3,1093.7 365.3,1093.7 365.3,1093.7 365.3,1093.7 365.3,1093.7 365.3,1093.7 365.3,1093.7 365.3,1093.7 365.4,1093.7 365.4,1093.7 365.4,1093.7 365.4,1093.7 365.4,1093.7 365.4,1093.7 365.4,1093.7 365.4,1093.7 365.4,1093.7 365.4,1093.7 365.4,1093.7 365.4,1093.7 365.4,1093.7 365.4,1093.7 365.4,1093.7 365.4,1093.7 365.4,1093.7 365.5,1093.7 365.5,1093.7 365.6,1093.7 365.6,1093.7 365.6,1093.7 365.6,1093.8 365.6,1093.8 365.6,1093.8 365.6,1093.9 365.6,1093.9 365.6,1094.0 365.6,1094.1 365.6,1094.1 365.6,1094.1 365.6,1094.1 365.6,1094.2 365.7,1094.2 365.7,1094.2 365.7,1094.2 365.7,1094.2 365.7,1094.2 365.7,1094.2 365.7,1094.2 365.7,1094.2 365.8,1094.2 365.8,1094.2 365.7,1094.2 365.7,1094.3 365.7,1094.3 365.7,1094.5 365.6,1094.5 365.6,1094.5 365.6,1094.5 365.6,1094.5 365.6,1094.6 365.6,1094.6 365.6,1094.6 365.6,1094.6 365.6,1094.6 365.6,1094.6 365.5,1094.7 365.5,1094.8 365.5,1094.8 365.5,1094.8 365.4,1094.9 365.3,1095.1 365.2,1095.3 365.2,1095.3 365.0,1095.6 365.0,1095.6 365.0,1095.6 365.0,1095.6 365.0,1095.6 365.0,1095.7 365.0,1095.7 365.0,1095.7 364.9,1095.7 364.9,1095.7 364.9,1095.7 364.9,1095.7 364.9,1095.7 364.9,1095.7 364.9,1095.7 364.9,1095.8 364.8,1095.9 364.7,1096.0 364.7,1096.0 364.7,1096.0 364.7,1096.0 364.7,1096.0 364.7,1096.0 364.7,1096.0 364.5,1096.2 364.5,1096.3 364.5,1096.3 364.5,1096.3 364.5,1096.3 364.5,1096.3 364.4,1096.4 364.4,1096.4 364.4,1096.4 364.3,1096.5 364.2,1096.6 364.2,1096.6 364.1,1096.8 364.1,1096.8 364.1,1096.8 364.0,1096.8 364.0,1096.9 364.0,1096.9 364.0,1096.9 364.0,1096.9 363.9,1097.0 363.9,1097.0 363.9,1097.0 363.9,1097.0 363.9,1097.0 363.8,1097.1 363.7,1097.2 363.7,1097.2 363.7,1097.2 363.7,1097.2 363.7,1097.3 363.7,1097.3 363.7,1097.3 363.6,1097.3 363.6,1097.3 363.6,1097.3 363.6,1097.3 363.6,1097.3 363.6,1097.3 363.6,1097.4 363.5,1097.4 363.5,1097.5 363.5,1097.5 363.4,1097.6 363.3,1097.6 363.3,1097.7 363.3,1097.7 363.3,1097.7 363.2,1097.7 363.2,1097.8 363.2,1097.8 363.2,1097.8 363.2,1097.8 363.2,1097.8 363.2,1097.8 363.2,1097.8 363.2,1097.8 363.1,1097.8 363.1,1097.9 363.1,1097.9 363.1,1097.9 363.1,1097.9 363.1,1097.9 363.1,1097.9 363.1,1097.9 363.1,1098.0 363.0,1098.0 363.0,1098.0 363.0,1098.0 362.9,1098.2 362.8,1098.3 362.8,1098.3 362.7,1098.3 362.7,1098.4 362.6,1098.5 362.6,1098.5 362.6,1098.5 362.4,1098.7 362.4,1098.7 362.4,1098.7 362.4,1098.7 362.2,1098.9 362.2,1099.0 362.1,1099.0 362.0,1099.1 362.0,1099.1 361.9,1099.2 361.9,1099.2 361.9,1099.2 361.9,1099.3 361.9,1099.3 361.9,1099.3 361.8,1099.3 361.7,1099.4 361.6,1099.5 361.6,1099.6 361.5,1099.6 361.5,1099.7 361.5,1099.7 361.4,1099.7 361.4,1099.7 361.3,1099.8 361.3,1099.8 361.0,1099.9 360.7,1100.1 360.5,1100.1 360.5,1100.1 360.4,1100.1 360.4,1100.1 360.3,1100.1 360.3,1100.1 360.3,1100.1 360.2,1100.1 360.2,1100.1 360.2,1100.1 360.2,1100.1 360.2,1100.1 360.2,1100.1 360.2,1100.1 360.2,1100.1 360.2,1100.1 359.9,1100.1 359.5,1100.2 359.3,1100.3 359.1,1100.3 359.1,1100.3 359.1,1100.3 358.8,1100.4 358.8,1100.4 358.6,1100.5 358.0,1100.6 357.9,1100.6 357.7,1100.7 357.5,1100.7 357.5,1100.7 357.5,1100.7 357.6,1100.8 357.6,1100.9 357.6,1101.0 357.7,1101.0 357.7,1101.0 357.7,1101.0 357.7,1101.1 357.7,1101.2 357.7,1101.2 357.7,1101.2 357.7,1101.3 357.7,1101.3 357.7,1101.4 357.7,1101.4 357.7,1101.5 357.7,1101.5 357.7,1101.6 357.7,1101.6 357.7,1101.6 357.7,1101.6 357.7,1101.6 357.7,1101.7 357.7,1101.7 357.7,1101.7 357.6,1101.8 357.6,1101.8 357.6,1101.8 357.6,1101.8 357.6,1101.8 357.6,1101.8 357.6,1101.8 357.6,1101.9 357.6,1101.9 357.6,1101.9 357.6,1101.9 357.6,1101.9 357.6,1101.9 357.6,1101.9 357.6,1101.9 357.6,1101.9 357.6,1101.9 357.6,1101.9 357.6,1101.9 357.6,1101.9 357.6,1102.0 357.6,1102.0 357.6,1102.0 357.6,1102.0 357.6,1102.0 357.6,1102.0 357.5,1102.0 357.5,1102.1 357.4,1102.3 357.4,1102.3 357.4,1102.4 357.3,1102.4 357.3,1102.5 357.3,1102.5 357.2,1102.5 357.2,1102.5 357.2,1102.6 357.1,1102.7 357.1,1102.8 357.0,1102.8 357.0,1102.8 357.0,1102.9 356.9,1102.9 356.9,1102.9 356.8,1103.0 356.8,1103.0 356.8,1103.1 356.7,1103.1 356.7,1103.1 356.7,1103.2 356.6,1103.3 356.6,1103.3 356.5,1103.4 356.4,1103.5 356.3,1103.6 356.1,1103.7 356.0,1103.7 355.9,1103.7 355.9,1103.7 355.8,1103.7 355.8,1103.7 355.7,1103.8 355.7,1103.8 355.6,1103.9 355.6,1103.9 355.5,1103.9 355.5,1103.9 355.5,1104.0 355.5,1104.0 355.4,1104.0 355.4,1104.0 355.4,1104.0 355.4,1104.0 355.4,1104.0 355.4,1104.0 355.4,1104.1 355.4,1104.1 355.4,1104.1 355.4,1104.1 355.4,1104.1 355.4,1104.2 355.4,1104.2 355.3,1104.2 355.3,1104.3 355.3,1104.3 355.3,1104.3 355.2,1104.4 355.2,1104.5 355.1,1104.5 355.0,1104.6 354.9,1104.7 354.9,1104.7 354.8,1104.8 354.8,1104.8 354.8,1104.8 354.8,1104.8 354.7,1104.8 354.7,1104.9 354.7,1104.9 354.7,1104.9 354.7,1104.9 354.7,1104.9 354.7,1104.9 354.7,1104.9 354.7,1104.9 354.6,1104.9 354.6,1104.9 354.6,1105.0 354.6,1105.0 354.6,1105.0 354.5,1105.0 354.5,1105.0 354.5,1105.1 354.4,1105.1 354.4,1105.1 354.4,1105.1 354.4,1105.1 354.4,1105.1 354.4,1105.1 354.3,1105.2 354.3,1105.2 354.3,1105.2 354.2,1105.2 354.2,1105.2 354.2,1105.2 354.2,1105.2 354.2,1105.2 354.2,1105.2 354.2,1105.2 354.1,1105.3 354.1,1105.3 354.1,1105.3 354.0,1105.3 354.0,1105.3 354.0,1105.3 354.0,1105.4 353.9,1105.4 353.8,1105.4 353.7,1105.5 353.7,1105.5 353.6,1105.5 353.6,1105.5 353.5,1105.5 353.5,1105.5 353.5,1105.5 353.5,1105.5 353.4,1105.5 353.4,1105.5 353.3,1105.5 353.3,1105.5 353.3,1105.4 353.2,1105.4 353.2,1105.4 353.2,1105.4 353.1,1105.4 353.1,1105.4 353.1,1105.4 353.1,1105.4 353.1,1105.4 353.1,1105.4 353.0,1105.4 353.0,1105.4 353.0,1105.4 353.0,1105.4 353.0,1105.4 353.0,1105.4 353.0,1105.4 353.0,1105.4 352.9,1105.4 352.9,1105.4 352.9,1105.4 352.9,1105.4 352.8,1105.4 352.8,1105.3 352.8,1105.3 352.8,1105.3 352.8,1105.7 352.8,1106.3 352.8,1106.3 352.8,1106.4 352.8,1106.8 352.8,1107.0 352.8,1107.0 352.8,1107.0 352.8,1107.3 352.8,1107.4 352.8,1107.4 352.8,1107.4 352.9,1107.4 352.9,1107.4 352.9,1107.4 353.0,1107.4 353.0,1107.4 353.0,1107.4 353.0,1107.4 353.1,1107.4 353.1,1107.5 353.1,1107.5 353.2,1107.6 353.3,1107.6 353.3,1107.7 353.3,1107.7 353.3,1107.7 353.4,1107.7 353.4,1107.8 353.4,1107.8 353.5,1107.8 353.5,1107.8 353.5,1107.9 353.6,1107.9 353.6,1107.9 353.6,1108.0 353.6,1108.0 353.6,1108.0 353.6,1108.0 353.6,1108.1 353.6,1108.1 353.7,1108.1 353.7,1108.1 353.7,1108.1 353.7,1108.1 353.7,1108.1 353.8,1108.1 353.8,1108.1 353.9,1108.1 353.9,1108.1 353.9,1108.1 353.9,1108.1 353.9,1108.1 353.9,1108.1 354.0,1108.1 354.0,1108.1 354.0,1108.1 354.0,1108.1 354.0,1108.2 354.0,1108.2 354.1,1108.2 354.1,1108.2 354.1,1108.2 354.2,1108.2 354.2,1108.2 354.2,1108.2 354.3,1108.2 354.3,1108.3 354.4,1108.3 354.5,1108.4 354.6,1108.4 354.6,1108.4 354.6,1108.4 354.6,1108.5 354.7,1108.5 354.7,1108.5 354.7,1108.5 354.8,1108.6 354.8,1108.6 354.9,1108.6 354.9,1108.6 355.0,1108.7 355.0,1108.7 355.1,1108.8 355.1,1108.8 355.3,1108.9 355.3,1108.9 355.3,1108.9 355.4,1109.0 355.4,1109.0 355.5,1109.1 355.6,1109.1 355.6,1109.2 355.6,1109.3 355.7,1109.4 355.8,1109.5 355.8,1109.6 355.8,1109.6 355.8,1109.7 355.9,1109.9 355.9,1109.9 356.0,1110.1 356.0,1110.1 356.0,1110.1 356.0,1110.4 356.0,1110.4 356.0,1110.4 356.0,1110.4 356.1,1110.5 356.2,1110.7 356.2,1110.9 356.2,1111.0 356.2,1111.0 356.2,1111.0 356.3,1111.0 356.3,1111.0 356.3,1111.1 356.3,1111.1 356.3,1111.1 356.3,1111.1 356.3,1111.1 356.3,1111.1 356.3,1111.1 356.3,1111.1 356.3,1111.1 356.3,1111.1 356.3,1111.1 356.4,1111.1 356.4,1111.1 356.4,1111.1 356.4,1111.1 356.4,1111.1 356.4,1111.1 356.4,1111.1 356.4,1111.1 356.4,1111.1 356.4,1111.1 356.4,1111.1 356.4,1111.1 356.4,1111.1 356.4,1111.1 356.4,1111.2 356.5,1111.2 356.5,1111.2 356.5,1111.2 356.5,1111.2 356.5,1111.2 356.6,1111.2 356.6,1111.2 356.6,1111.2 356.6,1111.2 356.6,1111.2 356.6,1111.2 356.6,1111.3 356.6,1111.3 356.6,1111.3 356.7,1111.3 356.7,1111.3 356.7,1111.3 356.7,1111.4 356.7,1111.4 356.7,1111.4 356.7,1111.4 356.7,1111.4 356.7,1111.4 356.7,1111.4 356.7,1111.4 356.7,1111.4 356.7,1111.4 356.7,1111.5 356.7,1111.5 356.7,1111.5 356.7,1111.5 356.7,1111.5 356.7,1111.5 356.8,1111.5 356.8,1111.6 356.8,1111.6 356.8,1111.6 356.8,1111.6 356.8,1111.6 356.8,1111.6 356.8,1111.6 356.8,1111.6 356.8,1111.6 356.8,1111.6 356.8,1111.7 356.8,1111.7 356.8,1111.7 356.8,1111.7 356.8,1111.7 356.8,1111.7 356.8,1111.7 356.8,1111.7 356.8,1111.7 356.9,1111.7 356.9,1111.7 356.9,1111.8 356.9,1111.8 356.9,1111.8 356.9,1111.8 356.9,1111.8 356.9,1111.8 356.9,1111.8 356.9,1111.9 356.9,1111.9 356.9,1111.9 356.9,1111.9 356.9,1111.9 356.9,1111.9 356.9,1111.9 356.9,1111.9 356.9,1111.9 356.9,1111.9 356.9,1111.9 356.9,1111.9 357.0,1111.9 357.0,1112.0 357.0,1112.0 357.0,1112.0 357.0,1112.0 357.0,1112.0 357.0,1112.0 357.1,1112.1 357.1,1112.1 357.1,1112.1 357.1,1112.1 357.1,1112.1 357.1,1112.2 357.1,1112.2 357.1,1112.2 357.1,1112.2 357.2,1112.2 357.2,1112.2 357.2,1112.2 357.2,1112.2 357.2,1112.2 357.2,1112.3 357.2,1112.3 357.2,1112.4 357.2,1112.4 357.2,1112.4 357.2,1112.4 357.3,1112.4 357.3,1112.4 357.3,1112.5 357.3,1112.5 357.3,1112.5 357.3,1112.5 357.3,1112.6 357.3,1112.6 357.3,1112.6 357.3,1112.6 357.3,1112.7 357.3,1112.7 357.3,1112.7 357.3,1112.7 357.3,1112.7 357.3,1112.7 357.3,1112.7 357.3,1112.7 357.3,1112.7 357.3,1112.7 357.3,1112.7 357.3,1112.7 357.3,1112.8 357.3,1112.8 357.3,1112.8 357.3,1112.8 357.3,1112.8 357.3,1112.8 357.3,1112.8 357.3,1112.8 357.3,1112.8 357.3,1112.8 357.3,1112.9 357.3,1112.9 357.3,1112.9 357.3,1112.9 357.3,1112.9 357.2,1112.9 357.2,1112.9 357.2,1112.9 357.2,1113.0 357.2,1113.0 357.2,1113.0 357.2,1113.1 357.2,1113.1 357.1,1113.1 357.1,1113.1 357.1,1113.1 357.1,1113.1 357.1,1113.2 357.1,1113.2 357.1,1113.2 357.1,1113.2 357.1,1113.2 357.1,1113.2 357.1,1113.2 357.0,1113.2 357.0,1113.2 357.0,1113.2 357.0,1113.2 357.0,1113.2 357.1,1113.2 357.1,1113.2 357.1,1113.2 357.0,1113.2 357.0,1113.2 357.0,1113.2 357.0,1113.3 357.0,1113.3 357.0,1113.3 357.0,1113.3 357.0,1113.3 357.0,1113.3 357.0,1113.3 357.0,1113.3 357.0,1113.3 357.0,1113.3 357.0,1113.3 357.0,1113.3 357.0,1113.3 357.0,1113.3 356.9,1113.4 356.9,1113.4 356.9,1113.4 356.9,1113.4 357.0,1113.4 357.0,1113.4 357.0,1113.4 357.0,1113.4 357.0,1113.4 357.0,1113.4 356.9,1113.4 356.9,1113.4 356.9,1113.4 356.9,1113.4 356.9,1113.4 356.9,1113.4 356.9,1113.4 356.9,1113.5 356.9,1113.5 356.9,1113.5 356.9,1113.5 356.9,1113.5 356.9,1113.5 356.9,1113.5 356.8,1113.6 356.8,1113.6 356.8,1113.6 356.8,1113.6 356.8,1113.6 356.8,1113.7 356.8,1113.7 356.8,1113.7 356.8,1113.7 356.8,1113.7 356.8,1113.7 356.8,1113.8 356.8,1113.8 356.8,1113.8 356.8,1113.8 356.8,1113.8 356.8,1113.8 356.8,1113.8 356.8,1113.8 356.8,1113.8 356.8,1113.9 356.7,1113.9 356.7,1113.9 356.7,1113.9 356.7,1113.9 356.7,1113.9 356.7,1113.9 356.7,1114.0 356.7,1114.0 356.7,1114.0 356.7,1114.0 356.7,1114.0 356.7,1114.0 356.7,1114.0 356.7,1114.1 356.7,1114.1 356.7,1114.1 356.7,1114.1 356.7,1114.1 356.7,1114.1 356.7,1114.1 356.7,1114.1 356.7,1114.1 356.7,1114.1 356.6,1114.1 356.6,1114.1 356.6,1114.1 356.6,1114.1 356.6,1114.1 356.6,1114.1 356.6,1114.1 356.6,1114.1 356.6,1114.1 356.6,1114.1 356.6,1114.1 356.6,1114.1 356.6,1114.1 356.6,1114.1 356.6,1114.1 356.7,1114.2 356.7,1114.2 356.7,1114.2 356.7,1114.2 356.7,1114.2 356.7,1114.2 356.7,1114.2 356.6,1114.2 356.6,1114.2 356.6,1114.2 356.6,1114.2 356.6,1114.2 356.6,1114.2 356.6,1114.2 356.6,1114.3 356.6,1114.3 356.6,1114.3 356.6,1114.3 356.6,1114.3 356.6,1114.3 356.5,1114.3 356.5,1114.3 356.5,1114.4 356.5,1114.4 356.5,1114.4 356.5,1114.4 356.4,1114.5 356.4,1114.5 356.4,1114.5 356.4,1114.5 356.4,1114.5 356.4,1114.5 356.4,1114.5 356.4,1114.5 356.4,1114.5 356.4,1114.6 356.4,1114.6 356.4,1114.6 356.4,1114.6 356.4,1114.6 356.3,1114.6 356.3,1114.7 356.3,1114.8 356.3,1114.8 356.2,1114.8 356.2,1114.9 356.2,1114.9 356.2,1114.9 356.2,1114.9 356.2,1115.0 356.1,1115.0 356.1,1115.0 356.1,1115.1 356.1,1115.1 356.1,1115.1 356.1,1115.1 356.1,1115.1 356.1,1115.2 356.1,1115.2 356.1,1115.2 356.1,1115.2 356.1,1115.2 356.0,1115.2 356.0,1115.3 356.0,1115.3 356.0,1115.4 356.0,1115.4 356.0,1115.4 356.0,1115.4 356.0,1115.4 356.0,1115.4 355.9,1115.5 355.9,1115.5 355.9,1115.5 355.9,1115.5 355.9,1115.5 355.9,1115.5 355.9,1115.5 355.9,1115.5 355.9,1115.5 355.9,1115.5 355.9,1115.6 355.9,1115.7 355.8,1115.7 355.8,1115.7 355.8,1115.7 355.8,1115.8 355.8,1115.8 355.8,1115.8 355.8,1115.8 355.8,1115.8 355.8,1115.8 355.8,1115.9 355.7,1115.9 355.8,1115.9 355.8,1115.9 355.8,1115.9 355.7,1115.9 355.7,1115.9 355.7,1115.9 355.7,1115.9 355.7,1115.9 355.7,1116.0 355.7,1116.0 355.7,1116.0 355.7,1116.1 355.6,1116.1 355.6,1116.1 355.6,1116.2 355.6,1116.2 355.5,1116.3 355.5,1116.3 355.5,1116.4 355.4,1116.4 355.4,1116.4 355.4,1116.4 355.4,1116.4 355.3,1116.5 355.3,1116.6 355.3,1116.6 355.2,1116.6 355.2,1116.7 355.2,1116.7 355.1,1116.7 355.1,1116.8 355.1,1116.8 355.1,1116.8 355.1,1116.8 355.1,1116.8 355.1,1116.9 355.0,1116.9 355.0,1116.9 355.0,1116.9 355.0,1117.0 355.0,1117.0 355.0,1117.0 354.9,1117.0 354.9,1117.0 354.9,1117.0 354.9,1117.0 354.9,1117.0 354.9,1117.0 354.9,1117.0 354.9,1117.1 354.9,1117.1 354.8,1117.1 354.8,1117.2 354.8,1117.2 354.8,1117.2 354.8,1117.2 354.7,1117.3 354.7,1117.3 354.7,1117.3 354.7,1117.3 354.7,1117.3 354.6,1117.4 354.6,1117.4 354.6,1117.4 354.6,1117.4 354.6,1117.4 354.5,1117.5 354.5,1117.5 354.5,1117.5 354.4,1117.6 354.4,1117.6 354.4,1117.6 354.4,1117.6 354.4,1117.7 354.4,1117.7 354.4,1117.7 354.4,1117.7 354.3,1117.7 354.3,1117.7 354.3,1117.8 354.3,1117.8 354.3,1117.8 354.3,1117.8 354.3,1117.8 354.2,1117.8 354.2,1117.9 354.2,1117.9 354.2,1117.9 354.2,1117.9 354.2,1117.9 354.1,1118.0 354.1,1118.0 354.1,1118.0 354.1,1118.0 354.1,1118.1 354.0,1118.1 354.0,1118.1 354.0,1118.1 354.0,1118.1 354.0,1118.1 354.0,1118.2 353.9,1118.2 353.9,1118.2 353.9,1118.2 353.9,1118.2 353.9,1118.2 353.8,1118.3 353.8,1118.3 353.8,1118.3 353.8,1118.3 353.8,1118.3 353.7,1118.3 353.7,1118.4 353.6,1118.4 353.6,1118.4 353.6,1118.4 353.6,1118.4 353.5,1118.4 353.5,1118.4 353.5,1118.4 353.5,1118.4 353.5,1118.4 353.5,1118.4 353.5,1118.4 353.5,1118.4 353.5,1118.3 353.4,1118.4 353.4,1118.4 353.3,1118.4 353.3,1118.4 353.3,1118.5 353.3,1118.5 353.3,1118.5 353.3,1118.5 353.3,1118.5 353.2,1118.6 353.2,1118.6 353.2,1118.6 353.2,1118.6 353.2,1118.7 353.2,1118.7 353.1,1118.7 353.1,1118.7 353.1,1118.8 353.1,1118.8 353.1,1118.8 353.1,1118.8 353.0,1118.9 353.0,1118.9 353.0,1118.9 353.0,1118.9 353.0,1118.9 353.0,1118.9 353.0,1118.9 353.0,1118.9 353.0,1119.0 353.0,1119.0 352.9,1119.0 352.9,1119.0 352.9,1119.0 352.9,1119.0 352.9,1119.0 352.9,1119.0 352.9,1119.0 352.9,1119.0 352.9,1119.0 352.9,1119.0 352.9,1119.0 352.9,1119.0 352.9,1119.0 352.9,1119.0 352.9,1119.0 352.9,1119.0 352.9,1119.1 352.8,1119.1 352.8,1119.1 352.8,1119.1 352.8,1119.1 352.8,1119.1 352.8,1119.1 352.8,1119.1 352.8,1119.1 352.8,1119.1 352.8,1119.1 352.8,1119.2 352.8,1119.2 352.8,1119.2 352.7,1119.2 352.7,1119.2 352.7,1119.3 352.7,1119.3 352.7,1119.3 352.6,1119.4 352.6,1119.4 352.6,1119.4 352.5,1119.5 352.5,1119.5 352.5,1119.5 352.4,1119.6 352.4,1119.6 352.4,1119.6 352.3,1119.7 352.2,1119.7 352.2,1119.7 352.1,1119.7 351.9,1119.8 351.9,1119.8 351.8,1119.8 351.7,1119.8 351.7,1119.8 351.7,1119.8 351.6,1119.8 351.6,1119.7 351.5,1119.7 351.5,1119.7 351.5,1119.7 351.4,1119.7 351.4,1119.6 351.4,1119.6 351.4,1119.6 351.4,1119.5 351.3,1119.5 351.3,1119.5 351.3,1119.5 351.4,1119.5 351.4,1119.5 351.4,1119.5 351.4,1119.5 351.4,1119.5 351.4,1119.5 351.4,1119.5 351.4,1119.4 351.4,1119.4 351.4,1119.4 351.4,1119.3 351.4,1119.3 351.4,1119.3 351.3,1119.2 351.3,1119.1 351.3,1119.1 351.3,1119.1 351.2,1119.1 351.2,1119.1 351.2,1119.1 351.2,1119.0 351.2,1119.0 351.2,1118.9 351.2,1118.8 351.2,1118.8 351.1,1118.8 351.1,1118.8 351.1,1118.8 351.1,1118.7 351.1,1118.7 351.1,1118.7 351.1,1118.7 351.1,1118.7 351.1,1118.7 351.1,1118.7 351.1,1118.7 351.0,1118.7 350.9,1118.7 350.9,1118.7 350.9,1118.7 350.8,1118.7 350.8,1118.7 350.8,1118.7 350.8,1118.7 350.8,1118.6 350.8,1118.6 350.8,1118.6 350.8,1118.6 350.8,1118.6 350.8,1118.6 350.8,1118.5 350.8,1118.5 350.8,1118.5 350.8,1118.5 350.8,1118.4 350.8,1118.4 350.8,1118.4 350.8,1118.4 350.8,1118.4 350.7,1118.4 350.6,1118.4 350.6,1118.4 350.6,1118.4 350.5,1118.3 350.5,1118.3 350.4,1118.2 350.4,1118.1 350.3,1118.0 350.3,1117.9 350.2,1117.9 350.2,1117.8 350.1,1117.8 350.1,1117.7 350.1,1117.7 350.1,1117.7 350.1,1117.6 350.1,1117.6 350.1,1117.6 350.0,1117.6 350.0,1117.6 350.0,1117.5 349.9,1117.4 349.7,1117.2 349.7,1117.2 349.6,1117.1 349.6,1117.0 349.5,1116.9 349.5,1116.9 349.5,1116.9 349.4,1116.9 349.4,1116.8 349.4,1116.8 349.4,1116.8 349.4,1116.7 349.4,1116.7 349.4,1116.7 349.4,1116.7 349.3,1116.6 349.3,1116.6 349.2,1116.5 349.2,1116.5 349.2,1116.5 349.1,1116.4 349.1,1116.3 349.0,1116.3 349.0,1116.3 349.0,1116.3 349.0,1116.2 349.0,1116.2 348.9,1116.2 348.9,1116.2 348.9,1116.2 348.9,1116.2 348.9,1116.2 348.8,1116.1 348.8,1116.1 348.8,1116.1 348.8,1116.1 348.8,1116.1 348.8,1116.1 348.8,1116.1 348.8,1116.1 348.8,1116.1 348.7,1116.0 348.7,1116.0 348.7,1116.0 348.7,1116.0 348.7,1116.0 348.7,1115.9 348.7,1115.9 348.7,1115.9 348.6,1115.8 348.5,1115.7 348.5,1115.7 348.5,1115.7 348.5,1115.7 348.5,1115.7 348.5,1115.7 348.3,1115.6 348.2,1115.5 348.2,1115.5 347.9,1115.3 347.8,1115.1 347.6,1115.0 347.5,1114.9 347.5,1114.8 347.5,1114.8 347.5,1114.8 347.4,1114.8 347.4,1114.8 346.9,1115.0 346.4,1115.3 346.3,1115.3 346.3,1115.3 346.3,1115.3 346.3,1115.3 346.4,1115.4 346.4,1115.4 346.4,1115.4 346.4,1115.4 346.4,1115.4 346.4,1115.4 346.4,1115.5 346.4,1115.5 346.4,1115.5 346.4,1115.7 346.4,1115.7 346.4,1115.7 346.4,1115.8 346.4,1115.8 346.3,1116.0 346.3,1116.1 346.2,1116.2 346.2,1116.3 346.2,1116.3 346.2,1116.4 346.1,1116.4 346.1,1116.5 345.9,1116.6 345.9,1116.6 345.8,1116.7 345.7,1116.8 345.5,1116.9 345.4,1116.9 345.4,1116.9 345.4,1116.9 345.3,1116.9 345.2,1116.9 345.0,1116.9 345.0,1116.9 344.9,1116.9 344.9,1116.9 344.9,1116.9 344.9,1116.9 344.8,1116.9 344.8,1116.8 344.7,1116.8 344.6,1116.8 344.6,1116.7 344.4,1116.6 344.0,1116.7 343.9,1116.8 343.8,1116.8 343.6,1116.9 343.3,1117.0 343.0,1117.1 342.7,1117.3 342.7,1117.3 342.7,1117.3 342.8,1117.3 342.8,1117.3 342.8,1117.3 342.8,1117.4 342.8,1117.4 342.8,1117.4 342.8,1117.4 342.8,1117.4 342.9,1117.5 342.9,1117.5 343.0,1117.5 343.1,1117.6 343.2,1117.7 343.2,1117.7 343.3,1117.8 343.3,1117.8 343.3,1117.8 343.5,1117.9 343.7,1118.0 343.9,1118.1 344.0,1118.2 344.0,1118.2 344.1,1118.2 344.1,1118.2 344.1,1118.3 344.2,1118.3 344.3,1118.3 344.3,1118.4 344.3,1118.4 344.4,1118.5 344.5,1118.6 344.5,1118.7 344.5,1118.7 344.5,1118.7 344.5,1118.7 344.6,1118.9 344.6,1119.1 344.6,1119.1 344.6,1119.2 344.6,1119.3 344.6,1119.4 344.6,1119.4 344.6,1119.5 344.6,1119.6 344.5,1119.8 344.5,1119.8 344.5,1119.9 344.4,1120.0 344.4,1120.1 344.4,1120.1 344.4,1120.2 344.3,1120.3 344.3,1120.3 344.3,1120.4 344.3,1120.5 344.2,1120.6 344.2,1120.7 344.2,1120.8 344.2,1121.1 344.2,1121.1 344.2,1121.2 344.2,1121.3 344.2,1121.4 344.2,1121.4 344.2,1121.4 344.2,1121.4 344.2,1121.4 344.2,1121.5 344.2,1121.5 344.2,1121.5 344.2,1121.5 344.2,1121.5 344.3,1121.5 344.3,1121.5 344.3,1121.5 344.3,1121.6 344.3,1121.6 344.3,1121.7 344.3,1121.7 344.3,1121.7 344.3,1121.7 344.3,1121.7 344.3,1121.7 344.4,1121.7 344.4,1121.8 344.4,1121.9 344.5,1122.0 344.5,1122.0 344.5,1122.0 344.5,1122.0 344.7,1122.1 344.7,1122.1 344.8,1122.2 344.8,1122.3 345.2,1122.5 345.4,1122.7 345.4,1122.7 345.4,1122.7 345.5,1122.8 345.6,1122.9 345.7,1122.9 345.8,1123.0 345.9,1123.0 345.9,1123.0 345.9,1123.0 346.0,1123.0 346.0,1123.0 346.0,1123.1 346.1,1123.1 346.1,1123.1 346.1,1123.1 346.1,1123.1 346.1,1123.1 346.1,1123.1 346.2,1123.1 346.2,1123.1 346.2,1123.1 346.2,1123.1 346.2,1123.1 346.2,1123.1 346.2,1123.1 346.3,1123.1 346.3,1123.1 346.3,1123.1 346.3,1123.1 346.3,1123.1 346.3,1123.1 346.4,1123.1 346.4,1123.1 346.5,1123.1 346.5,1123.1 346.7,1123.1 346.8,1123.1 346.9,1123.1 347.0,1123.1 347.0,1123.1 347.2,1123.2 347.2,1123.3 347.2,1123.3 347.3,1123.3 347.3,1123.4 347.3,1123.4 347.3,1123.4 347.3,1123.4 347.3,1123.4 347.4,1123.5 347.4,1123.5 347.5,1123.5 347.5,1123.6 347.5,1123.6 347.5,1123.6 347.5,1123.6 347.5,1123.6 347.5,1123.6 347.5,1123.6 347.5,1123.6 347.6,1123.6 347.6,1123.6 347.6,1123.6 347.6,1123.6 347.6,1123.7 347.6,1123.7 347.6,1123.7 347.6,1123.7 347.6,1123.6 347.6,1123.6 347.6,1123.6 347.7,1123.7 347.7,1123.7 347.7,1123.7 347.8,1123.8 347.8,1123.8 347.8,1123.8 347.9,1123.8 347.9,1123.9 347.9,1123.9 347.9,1123.9 347.9,1123.9 347.9,1124.0 348.0,1124.0 348.0,1124.0 348.0,1124.0 348.0,1124.1 348.0,1124.1 348.0,1124.1 348.1,1124.1 348.1,1124.2 348.1,1124.2 348.1,1124.2 348.1,1124.2 348.1,1124.3 348.1,1124.3 348.1,1124.3 348.1,1124.3 348.1,1124.4 348.1,1124.4 348.1,1124.4 348.1,1124.4 348.1,1124.5 348.2,1124.6 348.2,1124.6 348.2,1124.6 348.2,1124.7 348.2,1124.8 348.2,1124.9 348.2,1124.9 348.2,1124.9 348.2,1124.9 348.2,1124.9 348.2,1125.0 348.2,1125.1 348.2,1125.1 348.2,1125.1 348.2,1125.2 348.2,1125.2 348.2,1125.2 348.2,1125.3 348.2,1125.3 348.2,1125.3 348.2,1125.4 348.3,1125.4 348.3,1125.4 348.3,1125.4 348.3,1125.4 348.3,1125.4 348.3,1125.5 348.3,1125.5 348.3,1125.5 348.3,1125.5 348.3,1125.6 348.3,1125.6 348.3,1125.6 348.3,1125.6 348.3,1125.6 348.3,1125.6 348.3,1125.7 348.3,1125.8 348.3,1125.8 348.3,1125.8 348.3,1125.8 348.3,1125.8 348.3,1125.8 348.3,1125.9 348.3,1125.9 348.3,1126.0 348.3,1126.0 348.3,1126.1 348.3,1126.2 348.3,1126.2 348.3,1126.3 348.3,1126.3 348.3,1126.4 348.3,1126.4 348.3,1126.4 348.4,1126.5 348.4,1126.6 348.4,1126.7 348.3,1126.8 348.3,1126.9 348.3,1127.0 348.3,1127.0 348.3,1127.0 348.3,1127.1 348.3,1127.2 348.3,1127.2 348.3,1127.2 348.3,1127.3 348.3,1127.3 348.3,1127.4 348.3,1127.4 348.3,1127.5 348.3,1127.5 348.3,1127.5 348.2,1127.5 348.3,1127.6 348.4,1127.6 348.4,1127.6 348.5,1127.7 348.5,1127.7 348.5,1127.6 348.5,1127.6 348.5,1127.6 348.6,1127.6 348.6,1127.6 348.7,1127.5 348.7,1127.5 348.7,1127.5 348.8,1127.6 348.8,1127.6 348.8,1127.6 348.8,1127.6 348.9,1127.7 348.9,1127.8 349.0,1128.0 349.0,1128.1 349.0,1128.1 349.0,1128.3 349.1,1128.4 349.1,1128.5 349.1,1128.5 349.1,1128.6 349.1,1128.7 349.1,1128.8 349.1,1129.0 349.1,1129.0 349.1,1129.0 349.1,1129.1 349.1,1129.2 349.2,1129.2 349.2,1129.3 349.2,1129.3 349.2,1129.3 349.2,1129.4 349.2,1129.5 349.1,1129.7 349.1,1129.8 349.1,1129.8 349.1,1129.8 349.1,1129.9 349.1,1129.9 349.1,1129.9 349.1,1129.9 349.1,1129.9 349.1,1130.0 349.1,1130.0 349.1,1130.1 349.0,1130.3 349.0,1130.3 349.0,1130.4 349.0,1130.4 349.0,1130.4 348.9,1130.4 348.9,1130.5 348.9,1130.6 348.8,1130.7 348.8,1130.8 348.7,1131.0 348.7,1131.1 348.6,1131.1 348.6,1131.2 348.6,1131.3 348.5,1131.5 348.4,1131.7 348.3,1131.9 348.3,1132.0 348.2,1132.0 348.2,1132.1 348.1,1132.3 348.1,1132.3 348.1,1132.4 348.1,1132.4 348.0,1132.5 348.0,1132.6 348.0,1132.6 348.0,1132.6 348.0,1132.6 348.0,1132.6 348.0,1132.7 348.0,1132.7 347.9,1132.8 347.9,1132.8 347.9,1132.8 347.9,1132.8 347.8,1132.9 347.8,1133.0 347.8,1133.0 347.8,1133.0 347.8,1133.1 347.8,1133.1 347.7,1133.1 347.7,1133.2 347.7,1133.3 347.7,1133.3 347.7,1133.3 347.7,1133.3 347.6,1133.3 347.6,1133.4 347.6,1133.4 347.6,1133.4 347.6,1133.4 347.6,1133.4 347.6,1133.5 347.6,1133.5 347.5,1133.5 347.5,1133.5 347.5,1133.5 347.5,1133.5 347.5,1133.6 347.5,1133.6 347.5,1133.6 347.4,1133.6 347.4,1133.7 347.4,1133.7 347.4,1133.7 347.3,1133.8 347.3,1133.9 347.2,1134.0 347.1,1134.2 347.0,1134.3 346.9,1134.5 346.7,1134.8 346.7,1134.8 346.7,1134.8 346.6,1134.8 346.6,1134.8 346.6,1134.8 346.6,1134.9 346.5,1134.9 346.5,1135.0 346.5,1135.0 346.5,1135.1 346.4,1135.1 346.4,1135.2 346.3,1135.2 346.3,1135.2 346.3,1135.2 346.3,1135.3 346.3,1135.3 346.2,1135.3 346.2,1135.3 346.2,1135.4 346.2,1135.4 346.2,1135.4 346.2,1135.4 346.2,1135.4 346.2,1135.4 346.1,1135.5 346.0,1135.6 346.0,1135.7 346.0,1135.7 346.0,1135.7 345.9,1135.7 345.9,1135.8 345.9,1135.8 345.9,1135.8 345.9,1135.8 345.8,1135.9 345.7,1136.0 345.7,1136.0 345.7,1136.1 345.6,1136.1 345.6,1136.1 345.6,1136.2 345.6,1136.2 345.6,1136.2 345.6,1136.2 345.6,1136.2 345.6,1136.2 345.5,1136.2 345.5,1136.3 345.5,1136.3 345.5,1136.3 345.5,1136.3 345.5,1136.3 345.5,1136.3 345.5,1136.3 345.5,1136.3 345.5,1136.3 345.5,1136.3 345.5,1136.3 345.4,1136.4 345.4,1136.4 345.4,1136.4 345.4,1136.4 345.4,1136.4 345.4,1136.4 345.4,1136.4 345.4,1136.4 345.4,1136.5 345.4,1136.5 345.4,1136.5 345.4,1136.5 345.4,1136.5 345.3,1136.5 345.3,1136.5 345.3,1136.5 345.3,1136.5 345.3,1136.5 345.2,1136.6 345.2,1136.6 345.1,1136.7 345.1,1136.8 345.1,1136.8 345.1,1136.8 345.1,1136.8 345.0,1136.8 344.8,1137.0 344.8,1137.0 344.8,1137.0 344.8,1137.0 344.7,1137.1 344.7,1137.1 344.6,1137.1 344.6,1137.1 344.6,1137.1 344.6,1137.1 344.5,1137.2 344.5,1137.2 344.5,1137.2 344.5,1137.2 344.4,1137.3 344.4,1137.3 344.4,1137.3 344.4,1137.3 344.4,1137.3 344.4,1137.3 344.4,1137.3 344.4,1137.3 344.4,1137.3 344.4,1137.3 344.3,1137.3 344.3,1137.3 344.3,1137.4 344.3,1137.4 344.3,1137.4 344.3,1137.4 344.3,1137.4 344.3,1137.4 344.3,1137.4 344.3,1137.5 344.3,1137.5 344.3,1137.5 344.2,1137.6 344.2,1137.6 344.2,1137.6 344.2,1137.6 344.2,1137.6 344.2,1137.6 344.1,1137.6 344.1,1137.6 344.1,1137.6 344.1,1137.6 344.1,1137.7 344.1,1137.7 344.0,1137.7 344.0,1137.7 344.0,1137.7 343.9,1137.8 343.8,1137.8 343.7,1137.9 343.7,1137.9 343.6,1138.0 343.5,1138.1 343.4,1138.1 343.3,1138.1 343.3,1138.2 343.3,1138.2 343.2,1138.2 343.2,1138.2 343.2,1138.2 343.2,1138.2 343.2,1138.2 343.1,1138.3 343.1,1138.3 343.1,1138.3 343.0,1138.4 343.0,1138.4 342.9,1138.4 342.9,1138.4 342.8,1138.5 342.8,1138.5 342.8,1138.5 342.8,1138.5 342.8,1138.5 342.7,1138.5 342.7,1138.5 342.7,1138.5 342.7,1138.6 342.6,1138.6 342.6,1138.6 342.5,1138.7 342.5,1138.8 342.4,1138.8 342.4,1138.8 342.4,1138.8 342.4,1138.8 342.4,1138.8 342.4,1138.8 342.4,1138.8 342.3,1138.8 342.3,1138.9 342.2,1138.9 342.2,1138.9 342.2,1138.9 342.2,1138.9 342.2,1138.9 342.2,1139.0 342.2,1139.0 342.1,1139.0 342.1,1139.0 342.1,1139.0 342.1,1139.0 342.1,1139.0 342.1,1139.0 342.1,1139.0 342.1,1139.0 342.1,1139.0 342.1,1139.0 342.1,1139.0 342.1,1139.0 342.1,1139.0 342.0,1139.0 342.0,1139.0 342.0,1139.0 342.0,1139.0 342.0,1139.0 342.0,1139.0 342.0,1139.0 342.0,1139.1 341.9,1139.1 341.9,1139.1 341.9,1139.1 341.9,1139.1 341.9,1139.1 341.9,1139.1 341.8,1139.1 341.8,1139.1 341.8,1139.2 341.8,1139.2 341.8,1139.2 341.7,1139.2 341.7,1139.2 341.6,1139.2 341.6,1139.2 341.6,1139.2 341.6,1139.2 341.5,1139.3 341.5,1139.3 341.5,1139.3 341.4,1139.3 341.4,1139.3 341.4,1139.3 341.3,1139.4 341.3,1139.4 341.2,1139.4 341.2,1139.4 341.2,1139.4 341.2,1139.5 341.1,1139.5 341.1,1139.5 341.0,1139.5 341.0,1139.5 340.9,1139.6 340.9,1139.6 340.9,1139.6 340.8,1139.6 340.8,1139.6 340.7,1139.6 340.7,1139.6 340.7,1139.7 340.7,1139.7 340.6,1139.7 340.6,1139.7 340.6,1139.7 340.5,1139.7 340.4,1139.8 340.3,1139.8 340.3,1139.8 340.3,1139.8 340.3,1139.8 340.2,1139.8 340.2,1139.9 340.2,1139.9 340.1,1139.9 340.1,1139.9 340.0,1139.9 340.0,1139.9 340.0,1139.9 340.0,1139.9 339.9,1139.9 339.9,1139.9 339.8,1140.0 339.7,1140.0 339.7,1140.0 339.7,1140.0 339.7,1140.0 339.6,1140.0 339.6,1140.0 339.6,1140.0 339.5,1140.0 339.5,1140.0 339.5,1140.1 339.4,1140.1 339.4,1140.1 339.4,1140.1 339.4,1140.1 339.3,1140.1 339.2,1140.1 339.2,1140.1 339.2,1140.1 339.1,1140.2 339.0,1140.2 338.9,1140.2 338.8,1140.2 338.8,1140.3 338.7,1140.3 338.6,1140.3 338.6,1140.3 338.5,1140.4 338.3,1140.4 338.3,1140.5 338.3,1140.5 338.2,1140.5 338.2,1140.5 338.2,1140.5 338.1,1140.5 338.1,1140.5 338.0,1140.5 338.0,1140.5 338.0,1140.5 337.9,1140.6 337.7,1140.7 337.7,1140.7 337.7,1140.7 337.6,1140.7 337.5,1140.8 337.5,1140.8 337.4,1140.8 337.4,1140.8 337.4,1140.8 337.3,1140.8 337.3,1140.8 337.3,1140.8 337.3,1140.8 337.2,1140.8 337.1,1140.8 337.0,1140.9 337.0,1140.9 336.9,1140.9 336.9,1140.9 336.9,1140.9 336.8,1140.9 336.8,1140.9 336.8,1140.9 336.8,1140.9 336.8,1140.9 336.8,1140.9 336.9,1140.9 336.9,1140.9 336.9,1140.9 336.9,1140.9 336.8,1140.9 336.8,1140.9 336.8,1140.9 336.8,1140.9 336.8,1140.9 336.7,1140.9 336.7,1140.9 336.7,1140.9 336.7,1140.9 336.7,1140.9 336.6,1140.9 336.6,1141.0 336.6,1141.0 336.5,1141.0 336.5,1141.0 336.5,1141.0 336.5,1141.0 336.4,1141.0 336.4,1141.0 336.4,1141.0 336.4,1141.0 336.3,1141.0 336.3,1141.0 336.3,1141.0 336.2,1141.0 336.2,1141.0 336.2,1141.0 336.1,1141.0 336.1,1141.0 336.1,1141.0 336.0,1141.0 336.0,1141.0 336.0,1141.0 335.9,1141.0 335.9,1141.0 335.9,1141.0 335.9,1141.0 335.9,1141.0 335.9,1141.0 336.0,1141.0 336.0,1140.9 336.0,1140.9 336.0,1140.9 336.0,1140.9 335.9,1140.9 335.9,1140.9 335.9,1140.9 335.9,1140.9 335.8,1140.9 335.8,1140.9 335.8,1140.9 335.8,1140.9 335.8,1140.9 335.8,1140.9 335.8,1140.9 335.7,1140.9 335.7,1140.9 335.7,1140.9 335.7,1140.9 335.7,1140.9 335.7,1140.9 335.7,1140.9 335.6,1140.9 335.6,1140.9 335.6,1140.9 335.6,1140.9 335.6,1140.8 335.6,1140.8 335.6,1140.8 335.6,1140.8 335.5,1140.8 335.5,1140.8 335.5,1140.8 335.5,1140.8 335.5,1140.8 335.5,1140.8 335.6,1140.8 335.6,1140.8 335.6,1140.8 335.6,1140.8 335.6,1140.8 335.6,1140.8 335.6,1140.8 335.6,1140.8 335.6,1140.7 335.6,1140.7 335.7,1140.7 335.7,1140.7 335.7,1140.7 335.7,1140.7 335.7,1140.6 335.7,1140.6 335.7,1140.6 335.7,1140.6 335.7,1140.6 335.7,1140.6 335.7,1140.6 335.7,1140.6 335.7,1140.6 335.7,1140.6 335.7,1140.5 335.7,1140.5 335.8,1140.5 335.8,1140.5 335.8,1140.5 335.7,1140.5 335.7,1140.4 335.7,1140.5 335.7,1140.5 335.7,1140.5 335.7,1140.5 335.6,1140.5 335.6,1140.4 335.6,1140.4 335.6,1140.4 335.6,1140.4 335.6,1140.4 335.6,1140.4 335.6,1140.4 335.6,1140.4 335.6,1140.4 335.6,1140.4 335.6,1140.3 335.6,1140.3 335.6,1140.4 335.6,1140.4 335.6,1140.4 335.6,1140.4 335.6,1140.4 335.6,1140.4 335.6,1140.4 335.6,1140.4 335.6,1140.4 335.6,1140.4 335.5,1140.4 335.5,1140.4 335.5,1140.4 335.5,1140.4 335.5,1140.4 335.5,1140.4 335.5,1140.3 335.5,1140.3 335.5,1140.3 335.5,1140.3 335.5,1140.3 335.5,1140.3 335.4,1140.3 335.4,1140.3 335.3,1140.3 335.2,1140.3 335.2,1140.3 335.2,1140.3 335.1,1140.3 335.1,1140.3 335.0,1140.4 334.9,1140.4 334.7,1140.5 334.5,1140.6 334.4,1140.6 334.3,1140.6 334.3,1140.6 334.3,1140.6 334.2,1140.7 334.1,1140.7 334.1,1140.7 333.8,1140.8 333.7,1140.8 333.6,1140.8 333.4,1140.9 333.4,1140.9 333.3,1140.9 333.3,1140.9 333.2,1140.9 333.2,1140.9 333.1,1140.9 333.1,1140.9 333.1,1140.9 333.0,1140.9 333.0,1141.0 332.9,1141.0 332.8,1141.0 332.7,1141.0 332.6,1141.0 332.5,1141.0 332.4,1140.9 332.3,1140.9 332.3,1140.8 332.3,1140.8 332.3,1140.7 332.3,1140.7 332.3,1140.7 332.3,1140.6 332.4,1140.6 332.4,1140.6 332.4,1140.6 332.4,1140.6 332.4,1140.6 332.4,1140.6 332.4,1140.6 332.4,1140.6 332.4,1140.6 332.4,1140.6 332.4,1140.6 332.4,1140.6 332.4,1140.6 332.4,1140.6 332.4,1140.6 332.4,1140.6 332.4,1140.6 332.4,1140.6 332.4,1140.6 332.5,1140.6 332.5,1140.6 332.5,1140.6 332.5,1140.6 332.5,1140.6 332.5,1140.6 332.5,1140.6 332.5,1140.6 332.5,1140.6 332.5,1140.6 332.5,1140.6 332.5,1140.6 332.5,1140.6 332.5,1140.6 332.5,1140.6 332.5,1140.6 332.5,1140.6 332.5,1140.5 332.5,1140.5 332.5,1140.5 332.5,1140.5 332.6,1140.5 332.6,1140.5 332.6,1140.5 332.6,1140.5 332.6,1140.5 332.6,1140.5 332.6,1140.5 332.6,1140.5 332.7,1140.5 332.7,1140.5 332.7,1140.5 332.7,1140.5 332.7,1140.5 332.7,1140.5 332.7,1140.5 332.6,1140.5 332.6,1140.5 332.6,1140.5 332.6,1140.5 332.6,1140.5 332.5,1140.5 332.5,1140.5 332.4,1140.5 332.4,1140.5 332.4,1140.4 332.4,1140.4 332.4,1140.4 332.4,1140.4 332.4,1140.4 332.4,1140.4 332.4,1140.4 332.4,1140.4 332.4,1140.4 332.4,1140.4 332.4,1140.4 332.4,1140.4 332.4,1140.3 332.5,1140.3 332.5,1140.3 332.5,1140.3 332.5,1140.3 332.4,1140.3 332.4,1140.3 332.4,1140.3 332.4,1140.3 332.4,1140.3 332.4,1140.3 332.4,1140.2 332.4,1140.2 332.4,1140.2 332.5,1140.2 332.5,1140.2 332.5,1140.2 332.5,1140.2 332.5,1140.1 332.5,1140.1 332.5,1140.1 332.5,1140.1 332.5,1140.1 332.5,1140.1 332.5,1140.0 332.5,1140.0 332.5,1140.0 332.5,1140.0 332.5,1140.0 332.5,1139.9 332.5,1139.9 332.5,1139.9 332.5,1139.8 332.5,1139.8 332.5,1139.8 332.5,1139.7 332.5,1139.7 332.4,1139.6 332.4,1139.6 332.4,1139.6 332.4,1139.5 332.4,1139.5 332.4,1139.5 332.4,1139.5 332.4,1139.5 332.4,1139.4 332.4,1139.4 332.4,1139.4 332.4,1139.4 332.4,1139.3 332.4,1139.2 332.4,1139.2 332.4,1139.2 332.4,1139.1 332.5,1139.1 332.5,1139.0 332.5,1139.0 332.5,1138.9 332.5,1138.9 332.5,1138.8 332.5,1138.8 332.5,1138.8 332.4,1138.9 332.4,1138.9 332.4,1139.0 332.4,1139.0 332.4,1139.0 332.4,1139.1 332.3,1139.1 332.3,1139.1 332.3,1139.1 332.3,1139.1 332.3,1139.1 332.3,1139.1 332.3,1139.1 332.3,1139.1 332.3,1139.1 332.2,1139.0 332.2,1139.0 332.2,1139.0 332.2,1139.0 332.2,1139.0 332.2,1139.0 332.1,1139.0 332.1,1139.0 332.1,1139.0 332.1,1139.0 332.1,1139.0 332.1,1138.9 332.1,1138.9 332.1,1138.9 332.1,1138.9 332.1,1138.9 332.1,1138.9 332.1,1138.9 332.1,1138.9 332.0,1138.9 332.0,1138.8 332.0,1138.8 332.0,1138.8 332.0,1138.8 332.0,1138.8 332.0,1138.9 332.0,1138.9 332.0,1138.9 332.0,1138.9 332.0,1138.9 332.0,1138.8 331.9,1138.8 331.9,1138.8 331.9,1138.8 331.9,1138.8 331.9,1138.8 331.9,1138.8 331.9,1138.8 331.9,1138.8 331.8,1138.9 331.8,1138.8 331.8,1138.8 331.7,1138.8 331.6,1138.7 331.5,1138.6 331.5,1138.6 331.4,1138.4 331.2,1138.2 331.0,1138.0 331.0,1138.0 330.9,1137.9 330.8,1137.8 330.8,1137.7 330.8,1137.7 330.8,1137.7 330.8,1137.7 330.8,1137.7 330.8,1137.7 330.8,1137.7 330.8,1137.7 330.7,1137.6 330.7,1137.6 330.6,1137.6 330.6,1137.5 330.4,1137.4 330.2,1137.2 330.1,1137.1 329.9,1137.0 329.8,1136.8 329.7,1136.8 329.5,1136.6 329.3,1136.5 329.3,1136.5 329.1,1136.4 328.9,1136.3 328.8,1136.2 328.6,1136.1 328.6,1136.0 328.5,1136.0 328.5,1136.0 328.4,1136.0 328.4,1135.9 328.2,1135.8 328.2,1135.8 328.2,1135.8 328.2,1135.8 328.2,1135.8 328.2,1135.8 328.2,1135.8 328.1,1135.8 328.1,1135.8 328.1,1135.8 328.0,1135.7 327.8,1135.6 327.7,1135.5 327.7,1135.5 327.6,1135.5 327.6,1135.5 327.6,1135.5 327.5,1135.4 327.5,1135.5 326.9,1136.1 326.9,1136.1 326.1,1135.6 325.9,1135.5 325.7,1135.4 325.7,1135.4 325.6,1135.3 325.5,1135.3 325.4,1135.2 325.4,1135.2 325.2,1135.1 325.0,1134.9 325.0,1134.9 324.9,1134.9 324.8,1134.8 324.7,1134.8 324.5,1134.7 324.5,1134.7 324.5,1134.7 324.0,1134.4 324.0,1134.4 323.7,1134.3 323.6,1134.2 323.3,1134.1 323.3,1134.1 323.1,1134.0 323.0,1133.9 322.8,1133.8 322.7,1133.7 322.6,1133.6 322.5,1133.4 322.4,1133.4 322.4,1133.3 322.3,1133.3 322.3,1133.3 322.3,1133.2 322.2,1133.2 321.1,1132.1 321.1,1132.1 320.9,1132.0 320.8,1131.9 320.7,1131.8 320.6,1131.7 320.5,1131.7 320.5,1131.6 320.4,1131.6 320.4,1131.6 320.2,1131.3 320.1,1131.3 320.0,1131.2 319.9,1131.1 319.8,1131.0 319.8,1131.0 319.8,1131.0 319.4,1130.6 318.4,1129.6 318.3,1129.6 318.3,1129.5 318.2,1129.4 318.1,1129.3 318.0,1129.3 317.6,1128.9 317.4,1128.7 317.2,1128.5 317.2,1128.5 317.0,1128.3 316.9,1128.2 316.9,1128.2 316.8,1128.1 316.7,1127.9 316.5,1127.7 316.2,1127.4 315.9,1127.1 315.8,1127.0 315.7,1126.9 315.4,1126.6 315.4,1126.6 315.3,1126.5 315.3,1126.5 315.3,1126.4 315.0,1126.2 315.0,1126.2 315.0,1126.2 314.9,1126.0 314.7,1125.9 314.2,1125.4 314.0,1125.2 314.0,1125.2 313.9,1125.1 313.9,1125.1 313.9,1125.1 313.8,1125.0 313.7,1124.9 313.4,1124.6 313.4,1124.6 313.4,1124.6 313.2,1124.3 312.8,1123.9 312.5,1123.5 312.5,1123.5 312.4,1123.4 312.4,1123.3 312.4,1123.3 312.2,1123.1 312.1,1123.1 311.9,1122.9 311.8,1122.8 311.7,1122.7 311.5,1122.6 311.5,1122.6 311.5,1122.6 311.4,1122.5 311.0,1122.2 311.0,1122.2 310.9,1122.1 310.4,1121.9 310.4,1121.8 310.4,1121.8 310.4,1121.8 310.3,1121.8 310.1,1121.7 310.0,1121.6 309.9,1121.6 309.6,1121.5 309.6,1121.5 309.5,1121.5 309.4,1121.4 309.4,1121.4 309.4,1121.4 309.4,1121.4 309.4,1121.4 309.3,1121.3 309.3,1121.3 309.2,1121.3 309.2,1121.3 309.2,1121.3 309.2,1121.2 309.1,1121.1 309.1,1121.1 309.0,1121.1 309.0,1121.0 308.9,1120.9 308.9,1120.9 308.8,1120.9 308.7,1120.7 308.7,1120.6 308.5,1120.4 308.5,1120.4 308.5,1120.3 308.3,1120.2 308.2,1120.0 308.1,1119.9 308.1,1119.9 308.0,1119.8 308.0,1119.7 308.0,1119.7 307.9,1119.7 307.7,1119.3 307.6,1119.3 307.5,1119.0 307.5,1119.0 307.4,1119.0 307.4,1118.9 307.3,1118.9 307.3,1118.8 307.1,1118.7 Z M 345.5,1120.5 345.4,1120.5 345.4,1120.5 345.4,1120.5 345.3,1120.5 345.3,1120.5 345.3,1120.5 345.3,1120.4 345.3,1120.4 345.2,1120.4 345.2,1120.4 345.1,1120.4 345.1,1120.3 345.0,1120.2 345.0,1120.1 345.0,1120.0 344.9,1119.9 344.9,1119.8 344.9,1119.8 345.0,1119.7 345.0,1119.6 345.0,1119.5 345.0,1119.5 345.0,1119.4 345.0,1119.3 344.9,1119.1 344.9,1119.1 344.9,1119.1 344.9,1119.1 344.9,1118.9 344.9,1118.8 344.9,1118.7 344.9,1118.7 344.9,1118.7 344.9,1118.7 344.9,1118.7 345.0,1118.6 345.0,1118.6 345.2,1118.6 345.2,1118.6 345.3,1118.7 345.4,1118.7 345.4,1118.7 345.5,1118.7 345.6,1118.7 345.6,1118.8 345.6,1118.8 345.6,1118.8 345.8,1118.8 345.9,1118.8 345.9,1118.8 345.9,1118.9 345.9,1118.9 346.0,1118.9 346.0,1118.9 346.1,1119.0 346.1,1119.0 346.2,1119.0 346.2,1119.1 346.2,1119.1 346.2,1119.1 346.2,1119.2 346.2,1119.2 346.2,1119.2 346.3,1119.4 346.3,1119.5 346.3,1119.5 346.3,1119.6 346.3,1119.6 346.3,1119.6 346.3,1119.6 346.3,1119.7 346.3,1119.7 346.3,1119.7 346.3,1119.8 346.3,1119.8 346.3,1119.8 346.3,1119.8 346.2,1119.9 346.2,1119.9 346.2,1120.0 346.3,1120.0 346.3,1120.0 346.3,1120.1 346.3,1120.2 346.3,1120.2 346.3,1120.2 346.3,1120.2 346.3,1120.2 346.2,1120.3 346.2,1120.3 346.2,1120.3 346.2,1120.3 346.1,1120.3 346.1,1120.3 346.1,1120.3 346.0,1120.4 346.0,1120.4 346.0,1120.4 345.9,1120.5 345.9,1120.5 345.9,1120.5 345.8,1120.5 345.7,1120.5 345.7,1120.5 345.7,1120.5 345.6,1120.5 345.6,1120.5 345.5,1120.5 345.5,1120.5 345.5,1120.5 345.5,1120.5 Z" fill="#ffffff" stroke="#334155" stroke-width="1"/>
</svg>
