<?xml version="1.0" encoding="UTF-8"?>
<!DOCTYPE svg PUBLIC "-//W3C//DTD SVG 1.1//EN" "http://www.w3.org/Graphics/SVG/1.1/DTD/svg11.dtd">
<!-- Creator: CorelDRAW 2021 (64-Bit) -->
<svg xmlns="http://www.w3.org/2000/svg" xml:space="preserve" width="0.50463in" height="0.488598in" version="1.1" shape-rendering="geometricPrecision" text-rendering="geometricPrecision" image-rendering="optimizeQuality" fill-rule="evenodd" clip-rule="evenodd"
viewBox="0 0 766.88 742.51"
 xmlns:xlink="http://www.w3.org/1999/xlink"
 xmlns:xodm="http://www.corel.com/coreldraw/odm/2003">
 <g id="Layer_x0020_1">
  <metadata id="CorelCorpID_0Corel-Layer"/>
  <path fill="none" fill-rule="nonzero" stroke="#336666" stroke-width="4.56" stroke-miterlimit="2.61313" d="M356.61 129.41c-0.01,-3.81 -0.03,-8.56 -0.05,-14.26 3.49,-8.58 -0.5,-16.16 -12.44,-29.38 -3.98,-2.82 -7.07,-5.65 -10.17,-10.38 -1.32,0.02 -2.64,0.03 -3.97,0.04 -2.65,-0.92 -5.29,-0.91 -7.5,-2.79 -4.41,-0.9 -8.38,-2.78 -12.35,-4.64 -2.64,-0.93 -5.29,-1.87 -8.38,-3.74 -1.32,0.01 -2.64,0.02 -3.52,0.03 -2.21,-0.94 -4.42,-1.87 -6.19,-4.71 -0.01,-0.95 -0.01,-1.9 -0.01,-3.8 -2.67,-6.64 -5.33,-12.31 -8.01,-19.9 -1.32,0.01 -2.64,0.02 -3.97,0.04 -0.01,-1.91 -0.01,-3.81 -0.02,-5.71 -4.4,0.04 -8.38,0.07 -11.9,0.11 -2.64,1.91 -5.27,3.84 -7.91,5.76 -3.08,0.02 -5.73,0.05 -7.93,0.07 -2.19,2.87 -3.95,3.84 -5.71,4.8 -1.31,3.81 -3.06,6.68 -4.37,8.59 -2.64,1.93 -5.28,3.85 -7.47,4.82 -1.31,3.82 -2.62,7.63 -3.48,12.4 -4.39,3.84 -7.9,8.62 -16.29,3.92 -3.96,0.99 -7.05,1.01 -10.13,1.04 -11.02,-1.81 -21.16,-4.58 -31.75,-7.35 -21.59,0.19 -29.53,-3.55 -30.02,-15.91 -0.47,-8.55 -4.45,-13.28 -16.37,-17.93 -10.6,-5.63 -20.75,-10.3 -30.46,-14.97 -1.32,-0.94 -3.09,-2.82 -3.98,-5.67 -1.77,-1.88 -3.11,-4.72 -4.44,-7.57 -2.64,0.03 -5.28,0.04 -7.49,0.07 -2.2,1.92 -3.95,2.88 -6.16,3.85 -1.31,2.87 -2.61,6.68 -3.49,9.54 -2.64,1.92 -5.28,2.9 -7.91,4.82 1.32,1.88 2.66,4.73 3.98,6.62 1.33,1.88 2.66,2.82 3.98,4.71 1.34,4.75 2.68,9.49 4.01,14.23 0.01,2.85 0.02,6.65 0.47,8.55 1.78,5.68 4.01,11.37 6.23,17.06 0.01,3.8 4.01,12.32 8,18.94 7.95,3.73 12.38,12.26 12.41,20.81 -2.61,8.57 -5.66,18.11 -7.84,26.68 0.02,4.75 0.04,9.51 0.49,13.31 -1.31,3.81 -2.62,7.62 -3.48,11.43 -4.36,15.24 -7.83,28.59 -13.55,32.43 -3.08,2.87 -5.7,6.69 -7.9,8.61 -1.3,5.72 -2.6,9.53 -3.48,13.35 -5.7,7.65 -10.97,13.39 -15.79,19.14 -6.16,2.9 -11.88,6.74 -17.59,9.64 -2.64,2.88 -5.71,5.75 -7.9,7.67 -1.33,0.01 -2.64,0.02 -3.97,0.03 0.01,2.86 0.02,5.71 0.47,9.51 -3.46,18.09 -7.36,36.19 -10.82,53.31 -2.62,6.68 -5.68,12.4 -7.87,17.18 2.21,2.83 4.86,5.66 7.96,8.5 0.03,7.6 -0.38,15.21 0.08,22.81 -1.3,4.77 -2.61,8.57 -3.48,12.38 -1.31,2.87 -2.61,6.68 -3.49,8.59 0.01,4.75 0.02,8.55 0.04,12.35 0.1,27.56 8.54,48.41 20.49,62.58 3.98,4.71 7.96,8.49 22.07,11.23 6.19,4.7 13.25,8.46 19.88,13.16 5.34,13.26 10.67,26.53 16.44,37.9 -1.31,2.86 -2.63,3.83 -3.94,5.74 -2.64,1.92 -5.28,2.88 -7.48,3.85 -2.63,4.77 -5.7,9.55 -7.87,15.27 -2.88,2.79 -5.51,7.59 -8.42,11.47l0.97 -0.01c0.88,-0.95 2.2,-1.92 3.51,-3.83 0.01,1.91 0.01,2.85 0.45,3.8 -2.63,1.92 -5.28,2.89 -8.36,3.87 -1.32,1.91 -2.63,3.83 -3.51,5.74 -1.32,0.01 -2.64,0.02 -3.96,0.02 -11.85,14.35 -11.34,31.46 -3.34,52.31 12.4,17.97 24.32,25.48 41.95,24.4 4.84,-0.99 10.57,-1.97 15.85,-3.92 2.2,-0.02 4.85,-0.04 7.49,-0.07 2.64,1.88 5.74,2.81 8.38,3.75 10.48,19.58 18.39,38.24 30.42,42.35l0.57 0.2c1.33,2.84 2.67,5.68 4,9.47l0.75 0.66 0.1 0.08 0.84 0.73 0.54 0.47 0.28 0.25 0.45 0.38c14.47,12.22 27.38,18.15 38.37,8.09l0 0 0.56 -0.52c15.82,-11.54 32.08,-23.07 48.78,-34.6 21.51,-22.99 28.94,-40.15 28.89,-55.37l0.01 -0.96 0 0c0.16,-20.22 7.66,-28.62 24.99,-32.51 23.32,-10.64 44.88,-16.51 57.23,-11.85 11.47,3.72 19.86,9.35 19.89,16.96 0.02,3.81 6.22,13.26 17.7,19.83 12.37,9.41 20.74,9.35 24.25,3.62 3.51,-3.84 6.58,-7.66 9.65,-11.49 2.02,-2.94 4.04,-5.88 6.27,-8.39 0.1,-4.03 0.35,-8.65 0.34,-13.83 0.42,0.68 0.85,1.3 1.28,1.87 -0.04,-2.29 -0.04,-4.71 -0.05,-7.28 1.33,2.84 2.66,4.73 3.98,5.67 1.33,2.85 2.66,5.68 4,7.59 6.19,5.65 12.82,12.27 19.89,16.96 3.04,1.85 6.08,2.77 9.54,2.78l0.14 0 0.02 0 0.11 0 0.01 0 0.25 -0.01 0.04 0 0.21 0 0.08 0 0.04 0 0.1 0 0.02 -0.01 0.12 0 0.01 0 0.12 0 0.02 0 0.1 0 0.05 0 0.07 0 0.07 0 0.05 0 0.1 0 0.03 0 0.11 0 0.01 0 0.25 -0.01 0.04 0 0.08 0 0.07 0 0.05 0 0.1 0 0.03 0 0.11 0 0.01 0 0.12 0 0.02 0 0.11 0 0.04 0 0.08 0 0.07 0 0.05 0 0.1 0 0.03 0 0.12 -0.01 0.01 0 0.13 0 0.02 0 0.1 0 0.05 0 0.07 0 0.08 0 0.05 0 0.11 -0.01 0.01 0 0.13 0 0.01 0 0.11 0 0.04 0 0.08 0 0.07 0 0.05 0 0.1 0 0.03 0 0.13 0 0 0 0.12 0 0.04 -0.01 0.09 0 0.07 0 0.06 0 0.1 0 0.03 0 0.12 0 0.01 0 0.12 0 0.04 0 0.09 0 0.07 0 0.06 0 0.1 -0.01 0.02 0 0.13 0 0.01 0 0.11 0 0.05 0 0.08 0 0.07 0 0.05 0 0.11 -0.01 0.01 0 0.12 0 0.03 0 0.1 0 0.06 0 0.07 0 0.1 0 0.03 0 0.12 0 0.01 0 0.11 0 0.05 0 0.08 0 0.08 0 0.04 0 0.12 0 0 0 0.13 0 0.04 0 0.08 0 0.08 0 0.04 -0.01 0.13 0c0.01,1.9 0.01,2.85 0.01,3.81 -2.63,1.92 -5.27,3.84 -7.47,5.76 -1.32,2.87 -2.63,5.73 -3.94,6.69 0.01,2.85 0.02,5.71 0.47,7.6 -0.41,7.61 4.01,12.34 15.48,16.06 2.66,2.83 5.31,5.66 7.96,7.54 1.34,4.74 2.68,10.45 4.02,15.19 5.74,3.76 11.92,7.52 18.1,10.31 2.64,-0.01 5.29,-0.04 7.93,-0.05 2.21,1.88 4.86,4.71 7.95,5.64 2.66,3.78 5.31,7.57 7.97,11.35l0.06 0.09c1.32,1.84 2.61,2.75 3.92,3.69 2.67,7.59 5.77,13.28 8.88,18.96 4.73,13.2 8.27,20.67 16.17,20.8 1.75,-0.06 3.72,-0.39 5.93,-1 3.52,-0.98 7.48,-1.96 11.45,-3.89 0.87,-0.96 2.2,-1.92 3.51,-3.83 4.39,-5.74 11.86,-10.55 15.84,-5.83 3.09,-0.01 6.61,-0.05 10.14,-0.07 2.65,1.88 5.3,3.76 7.95,4.69 7.49,-1.01 15.42,-1.06 23.35,-1.12 3.08,-0.98 6.6,-2.9 10.56,-4.83 2.2,-0.01 4.85,-0.04 7.48,-0.05 2.64,-0.98 5.28,-3.85 7.92,-5.77 8.81,-0.07 17.18,-0.13 26.43,-0.2 0.01,1.9 0.01,3.8 0.02,4.75 1.32,-0.01 2.64,-0.01 3.97,-0.02 0.87,-0.96 2.19,-2.88 3.51,-4.79 2.2,-1.92 4.84,-2.88 7.92,-4.82 11.88,-3.89 11.42,-11.5 7.39,-26.68 -1.79,-6.65 -2.69,-14.25 -4.04,-20.9 -3.99,-7.57 -8,-18.96 -11.99,-26.53 -5.3,-2.81 -7.96,-7.55 -12.82,-12.27 -3.98,-5.68 -9.73,-11.34 -13.72,-18.92 1.32,-0.97 2.63,-1.92 3.95,-3.84 2.2,-0.97 4.84,-1.94 7.92,-3.87 1.76,-0.02 3.53,-0.04 6.17,-0.05 2.2,-0.97 4.84,-2.89 7.48,-4.82 3.95,-2.88 7.91,-5.77 11.86,-9.6 2.64,-0.97 5.28,-1.94 8.36,-3.87 4.39,-3.84 8.78,-7.67 13.17,-12.46 1.76,-0.02 3.09,-0.03 4.4,-0.04 0.88,-0.96 2.2,-2.88 3.51,-5.74 4.84,-2.9 10.55,-5.79 15.83,-9.63 1.32,-0.01 2.64,-0.02 3.96,-0.04 -0.44,-0.94 -0.44,-1.89 -0.45,-3.8 1.32,-0.96 2.64,-1.92 3.95,-3.84 -1.33,-3.79 -2.67,-6.64 -4,-9.48 -0.03,-8.57 -0.07,-18.08 -0.1,-26.64 -1.32,-0.94 -2.65,-1.88 -3.98,-3.78 -4,-8.52 -7.99,-16.11 -11.99,-25.59 -4.45,-14.23 -12.38,-14.16 -33.96,-9.24 -2.63,1.92 -5.27,3.84 -7.47,5.76 -6.61,0.05 -12.78,0.1 -18.51,1.09 -11.89,0.1 -23.37,-5.52 -31.34,-17.82 -1.33,-0.94 -2.66,-2.84 -4.43,-4.73 -3.52,0.98 -6.6,1.01 -9.69,1.04 -5.3,-3.76 -10.6,-7.54 -16.78,-11.29 -2.64,-0.93 -5.3,-2.81 -7.51,-4.7 -0.44,-0.95 -0.45,-2.85 -0.45,-4.75 -2.66,-2.84 -5.31,-5.67 -7.52,-8.5 -1.32,0.01 -2.64,0.02 -3.97,0.04 -3.53,-0.93 -7.06,-1.85 -10.15,-4.68 -1.32,0.02 -2.64,0.02 -3.96,0.03 -0.01,-0.95 -0.01,-1.9 -0.02,-3.8 -1.32,0.01 -2.64,0.01 -3.97,0.03 -2.64,-0.93 -5.29,-2.82 -7.95,-4.7 -3.08,0.03 -5.73,0.04 -7.93,1.01 -18.09,-7.46 -22.09,-15.99 -8.48,-30.36 2.19,-2.87 5.27,-5.75 7.9,-9.58 3.94,-4.78 3.92,-12.38 -0.08,-20.92 -0.45,-2.85 -0.46,-5.71 -0.47,-8.55 -1.32,0.01 -2.64,0.96 -3.52,0.98 -0.45,-1.9 -0.45,-3.8 -0.47,-6.65 -1.32,-0.94 -2.65,-1.88 -3.98,-3.78 -5.74,-3.75 -17.66,-8.41 -29.1,-3.57 -4.39,2.89 -8.36,3.87 -12.76,4.85 -5.74,-0.9 -11.91,-1.81 -17.64,-3.66 -1.33,-2.85 -2.67,-5.69 -4,-8.53 -5.31,-5.67 -10.61,-9.44 -16.36,-15.09 -18.07,-4.62 -36.6,-9.23 -55.12,-13.83 -3.97,0.04 -8.81,0.07 -12.34,0.1 -1.32,0.01 -2.65,-0.93 -3.97,-2.82 -12.36,-4.65 -19.86,-8.41 -33.95,-4.48 -2.64,0.96 -5.28,0.99 -7.49,1 -1.31,1.91 -2.63,3.83 -3.95,4.8 -7.05,0.05 -13.66,0.11 -20.26,0.16 0.42,-3.81 0.41,-7.61 0.39,-13.32 2.2,-1.92 4.83,-4.79 7.47,-7.66 1.31,-2.87 2.63,-5.73 4.37,-9.54 -0.45,-2.85 -0.46,-5.71 -0.48,-9.51 3.5,-8.59 6.99,-16.23 11.37,-24.82 -0.09,-23.78 -4.54,-36.1 -8.52,-40.82 -4.03,-16.14 -8.04,-30.36 -4.55,-39.9 -0.01,-3.81 -0.02,-7.6 -0.04,-11.4 0.87,-2.86 2.18,-6.68 3.93,-9.55z"/>
 </g>
</svg>
