<?xml version="1.0" encoding="UTF-8"?>
<!DOCTYPE svg PUBLIC "-//W3C//DTD SVG 1.1//EN" "http://www.w3.org/Graphics/SVG/1.1/DTD/svg11.dtd">
<!-- Creator: CorelDRAW 2021 (64-Bit) -->
<svg xmlns="http://www.w3.org/2000/svg" xml:space="preserve" width="0.439031in" height="0.443776in" version="1.1" shape-rendering="geometricPrecision" text-rendering="geometricPrecision" image-rendering="optimizeQuality" fill-rule="evenodd" clip-rule="evenodd"
viewBox="0 0 76.36 77.19"
 xmlns:xlink="http://www.w3.org/1999/xlink"
 xmlns:xodm="http://www.corel.com/coreldraw/odm/2003">
 <g id="Layer_x0020_1">
  <metadata id="CorelCorpID_0Corel-Layer"/>
  <path fill="none" fill-rule="nonzero" stroke="#336666" stroke-width="0.52" stroke-miterlimit="2.61313" d="M69.47 48.41c-2.17,-1.41 -3.43,-2.07 -3.89,-3.15 -0.41,-0.43 -0.76,-1.09 -1.12,-1.74 -0.86,-1.96 -1.72,-3.15 -3.09,-4.13 -2.17,-2.06 -4.4,-4.24 -6.58,-6.41 -3.84,-1.96 -6.27,-4.13 -7.13,-5.87 -0.15,-0.22 -0.3,-0.33 -0.46,-0.54 -0,-0.11 -0,-0.33 -0,-0.54 -0.71,0 -1.31,0 -1.97,0 -0.15,-0.11 -0.3,-0.22 -0.45,-0.43 -0.15,-0.06 -0.52,-0.29 -0.84,-0.51l0.03 -0.04c-0.15,-0.22 -0.3,-0.54 -0.46,-0.87 -0.05,0 -0.05,-0.11 -0.05,-0.22 0.12,-0.26 0.23,-0.51 0.35,-0.82l0.1 -0.05 -0.02 -0.18 0.01 -0.04c0,-0.11 0,-0.22 -0,-0.33l-0.03 0.02c-0.02,-0.42 -0.02,-0.9 -0.02,-1.43 -0.25,-0.11 -0.45,-0.22 -0.61,-0.43 -0.3,-0.65 -0.61,-1.41 -0.91,-2.18 -0.45,-0.33 -0.91,-1.52 -1.32,-1.96 -0.4,-0.22 -0.86,-0.54 -1.26,-0.76 -0.41,-0.43 -0.76,-0.87 -1.11,-1.41 -0.86,-0.76 -1.77,-1.96 -2.63,-2.28 -0.15,-0.22 -0.3,-0.54 -0.46,-0.76 -0.15,-0.44 -0.31,-0.87 -0.46,-1.41 -0.15,0 -0.25,0 -0.4,0 -0.96,0.55 -1.86,0.98 -2.77,1.42 -0.3,0 -0.6,0 -0.91,0 -0.81,0 -1.26,-0.22 -1.26,-0.98 -0.66,-0.76 -1.37,-1.52 -2.02,-2.5 -1.52,-1.52 -3.03,-3.04 -4.55,-4.78 -0.76,-0.43 -1.47,-0.98 -2.22,-1.63 -0.3,-0.22 -0.61,-0.54 -0.91,-0.87 -0.35,0 -0.71,-0.11 -1.06,-0.33 -0.15,0 -0.3,0 -0.4,0 -0.85,0.87 -1.66,1.74 -2.51,2.61 0,0.11 0,0.22 0,0.33 0,0.76 -0.35,1.2 -1,1.96 -0.6,0.43 -1.21,0.76 -1.71,0.98 -0.3,0 -0.61,0 -0.86,0 -0.81,0.22 -1.56,0.44 -2.37,0.55 -1.11,0 -2.27,0 -3.38,0.11 -1.06,0 -1.51,-0.54 -1.97,-0.98 -0.3,-0.22 -0.61,-0.54 -0.91,-0.76 -0.4,0.22 -0.86,0.22 -1.26,0.33 -0.8,0.76 -1.56,1.52 -2.31,2.18 0.15,0.33 0.3,0.65 0.46,0.87 0.51,0.54 0.96,1.09 1.52,1.52 0.45,0.33 0.91,0.65 1.31,0.87 0.46,0.65 0.91,1.2 1.37,1.74 4.55,4.45 9.11,9.02 13.66,13.47 0.37,0.27 0.75,0.54 1.09,0.8 -0.21,-0.11 -0.43,-0.24 -0.64,-0.37 0,0.87 0.01,1.74 0.06,2.61 -0.3,0.98 -0.55,1.96 -0.8,2.83 -0.4,0.44 -0.8,0.87 -1.2,1.31 -0.4,1.31 -1.3,1.96 -2.31,2.29 -0.45,0 -1.26,0.54 -1.71,1.52 -0.45,0.33 -0.9,0.54 -1.31,0.76 -1.01,0.76 -1.46,1.41 -1.81,2.18 -0.55,0.98 -1.1,1.85 -1.65,2.83 -0.15,0.22 -0.3,0.44 -0.45,0.55 0,0.22 0,1.1 0,1.32 0.15,0.22 0.3,0.33 0.46,0.43 0.15,0 0.3,0 0.45,0 0.45,0.43 0.86,1.09 0.86,1.96 0.15,0.65 0.31,1.2 0.51,1.74 0,0.43 0,0.76 0,1.09 0.3,0 0.55,-0 0.86,-0 0.45,-0.22 0.96,-0.44 1.46,-0.65 0.96,0.33 2.02,0.65 3.03,0.76 1.31,-0 2.72,-0.56 4.03,-0.56 0.1,0 0.25,-0.11 0.4,-0.22 -0.15,0 -0.3,0 -0.4,0l0 -0 0.5 0c0.25,0.22 0.56,0.54 0.86,0.87 0.06,1.96 0.07,3.91 0.12,5.76 0.15,0.76 0.31,1.41 0.46,1.96 0,0.76 0.01,1.52 0.06,2.17 0,1.31 2.08,2.28 4.25,2.28 0.5,-0 1.11,-0 1.71,-0 2.35,-0.22 3.89,0.03 4.35,0.9 1.52,1.3 2.63,1.31 3.89,0.88 0.25,-0.11 0.91,-0.42 1.21,-0.64 1.06,-0.87 0.88,-0.8 1.34,-0.8 0.15,0.22 0.3,0.33 0.45,0.43 0.3,0.44 0.61,0.87 0.86,1.31 0.15,0.33 0.3,0.65 0.46,0.87 0.25,-0.11 0.5,-0.22 0.8,-0.43 1.06,-0.44 1.96,-0.44 2.37,-0 1.26,1.3 1.72,2.39 1.32,3.15 -0.55,0.76 -1.1,0.75 -1.66,1.4 -0.15,0 -0.3,0 -0.45,0 0.15,0.98 0.31,1.74 0.51,2.61 0.01,1.52 0.01,3.05 0.07,4.46 -0.15,0.22 0.26,0.44 0.16,0.55 0.25,0 0.5,0 0.81,0 0.3,-0.11 0.6,-0.33 0.91,-0.55 0.25,0 0.5,-0 0.81,-0 1.96,-0.98 3.97,-1.96 5.99,-2.83 1.66,-0.87 3.83,-1.31 7.05,-1.31 0.4,0 0.81,0 1.26,-0 0.35,-0.11 0.7,-0.33 1.11,-0.55 0.1,0 0.2,0 0.35,0 0.4,-0.22 0.86,-0.33 1.31,-0.54 2.77,-0.98 4.48,-2.18 4.82,-4.57 0.45,-0.76 0.45,-1.41 -0.01,-1.96 -0.1,0 -0.25,-0.11 -0.4,-0.33 -0.15,0 -0.3,0 -0.45,0 0,-0.11 -0,-0.22 -0,-0.43 0.7,-0.76 1.36,-1.42 2.11,-2.18 0.1,-0.44 0.25,-0.76 0.4,-1.09 -0.05,-1.09 -0.06,-2.07 -0.06,-3.15 0.51,0.54 1.01,0.98 1.52,1.41 0.55,0 1.16,-0 1.71,-0 0.3,-0.11 0.6,-0.22 0.91,-0.44 0.1,-0.11 0.25,-0.33 0.4,-0.54 0.45,0 0.96,0 1.51,0 0.25,-0.44 0.55,-0.87 0.85,-1.2 -0,-0.54 -0,-1.2 -0.01,-1.85 -0.2,-0.44 -0.36,-0.98 -0.51,-1.52 -0.05,-0.44 -0.05,-0.76 -0.05,-1.2 -0.51,-0.54 -1.01,-1.09 -1.52,-1.52 -0.3,-0.11 -0.56,-0.22 -0.81,-0.43 -0.45,-0.11 -0.91,-0.22 -1.31,-0.43 -0.86,-0.43 -1.62,-0.87 -2.42,-1.3zm-48.9 -21.97c-0.15,0.21 -0.29,0.41 -0.42,0.58 -0.05,-0.01 -0.1,-0.03 -0.15,-0.05l0.57 -0.53z"/>
 </g>
</svg>
