<svg xmlns="http://www.w3.org/2000/svg" viewBox="0 0 800 1400">
  <path d="M 257.08,1105.32 L 284.09,1083.68 L 278.05,1058.73 L 278.03,1058.67 L 278.01,1058.60 L 277.99,1058.54 L 277.97,1058.48 L 277.95,1058.41 L 277.93,1058.35 L 277.91,1058.29 L 277.88,1058.22 L 277.86,1058.16 L 277.84,1058.10 L 277.81,1058.03 L 277.79,1057.97 L 277.76,1057.91 L 277.73,1057.85 L 277.71,1057.79 L 277.68,1057.73 L 277.65,1057.66 L 277.63,1057.60 L 277.60,1057.54 L 277.57,1057.48 L 277.54,1057.42 L 277.51,1057.36 L 277.48,1057.30 L 277.45,1057.24 L 277.42,1057.18 L 277.38,1057.12 L 277.35,1057.06 L 277.32,1057.01 L 277.28,1056.95 L 277.25,1056.89 L 277.22,1056.83 L 277.18,1056.77 L 277.15,1056.72 L 277.11,1056.66 L 277.08,1056.60 L 277.04,1056.55 L 277.00,1056.49 L 276.96,1056.44 L 276.93,1056.38 L 276.89,1056.33 L 276.85,1056.27 L 276.81,1056.22 L 276.77,1056.16 L 276.73,1056.11 L 276.69,1056.06 L 276.65,1056.00 L 276.61,1055.95 L 276.57,1055.90 L 276.53,1055.85 L 276.48,1055.79 L 276.44,1055.74 L 276.40,1055.69 L 276.35,1055.64 L 276.31,1055.59 L 276.26,1055.54 L 276.22,1055.49 L 276.17,1055.44 L 276.13,1055.39 L 276.08,1055.34 L 276.04,1055.30 L 275.99,1055.25 L 275.94,1055.20 L 275.89,1055.15 L 275.85,1055.11 L 275.80,1055.06 L 275.75,1055.02 L 275.70,1054.97 L 275.65,1054.92 L 275.60,1054.88 L 275.55,1054.84 L 275.50,1054.79 L 275.44,1054.74 L 275.37,1054.69 L 275.31,1054.65 L 275.24,1054.60 L 275.17,1054.55 L 275.11,1054.50 L 275.04,1054.46 L 274.98,1054.41 L 274.91,1054.36 L 274.84,1054.32 L 274.77,1054.27 L 274.71,1054.23 L 274.64,1054.19 L 274.57,1054.14 L 274.50,1054.10 L 274.43,1054.06 L 274.36,1054.02 L 274.29,1053.97 L 274.23,1053.93 L 274.16,1053.89 L 274.09,1053.85 L 274.02,1053.81 L 273.95,1053.77 L 273.87,1053.73 L 273.80,1053.70 L 273.64,1053.61 L 273.58,1053.57 L 273.52,1053.54 L 273.47,1053.51 L 273.41,1053.48 L 273.35,1053.45 L 273.30,1053.42 L 273.25,1053.39 L 273.19,1053.36 L 273.14,1053.32 L 273.09,1053.29 L 273.03,1053.26 L 272.98,1053.23 L 272.93,1053.20 L 272.88,1053.16 L 272.83,1053.13 L 272.77,1053.09 L 272.72,1053.06 L 272.68,1053.03 L 272.63,1053.00 L 272.58,1052.96 L 272.54,1052.93 L 272.49,1052.90 L 272.45,1052.86 L 272.42,1052.84 L 272.38,1052.81 L 272.36,1052.79 L 272.33,1052.77 L 272.31,1052.74 L 272.28,1052.72 L 272.24,1052.69 L 272.10,1052.57 L 271.96,1052.45 L 271.82,1052.33 L 271.68,1052.21 L 271.55,1052.09 L 271.41,1051.97 L 271.27,1051.85 L 271.11,1051.71 L 270.95,1051.57 L 270.79,1051.43 L 270.63,1051.29 L 270.47,1051.15 L 270.32,1051.01 L 270.16,1050.86 L 270.10,1050.80 L 270.04,1050.74 L 269.98,1050.67 L 269.92,1050.61 L 269.86,1050.55 L 269.80,1050.49 L 269.74,1050.43 L 269.68,1050.37 L 269.62,1050.31 L 269.56,1050.25 L 269.49,1050.19 L 269.43,1050.12 L 269.36,1050.06 L 269.30,1050.00 L 269.23,1049.94 L 269.16,1049.88 L 269.09,1049.82 L 269.03,1049.76 L 268.96,1049.70 L 268.89,1049.64 L 268.82,1049.58 L 268.75,1049.52 L 268.68,1049.46 L 268.62,1049.39 L 268.55,1049.33 L 268.48,1049.27 L 268.42,1049.21 L 268.35,1049.14 L 268.29,1049.08 L 268.22,1049.01 L 268.16,1048.95 L 268.09,1048.88 L 268.03,1048.82 L 267.96,1048.75 L 267.90,1048.69 L 267.84,1048.62 L 267.78,1048.56 L 267.71,1048.49 L 267.65,1048.42 L 267.59,1048.36 L 267.53,1048.29 L 267.47,1048.22 L 267.41,1048.15 L 267.36,1048.09 L 267.30,1048.02 L 267.24,1047.95 L 267.18,1047.88 L 267.12,1047.81 L 267.07,1047.74 L 267.01,1047.67 L 266.96,1047.60 L 266.90,1047.53 L 266.84,1047.46 L 266.81,1047.42 L 266.78,1047.38 L 266.75,1047.35 L 266.72,1047.31 L 266.69,1047.28 L 266.65,1047.24 L 266.62,1047.21 L 266.59,1047.17 L 266.55,1047.14 L 266.52,1047.10 L 266.48,1047.07 L 266.45,1047.04 L 266.41,1047.00 L 266.37,1046.97 L 266.34,1046.94 L 266.30,1046.90 L 266.26,1046.87 L 266.22,1046.84 L 266.19,1046.81 L 266.15,1046.78 L 266.11,1046.75 L 266.07,1046.72 L 266.03,1046.69 L 265.99,1046.66 L 265.61,1046.26 L 265.38,1046.00 L 265.21,1045.79 L 265.03,1045.54 L 265.01,1045.52 L 264.90,1045.37 L 264.82,1045.27 L 264.68,1045.14 L 264.44,1044.93 L 264.33,1044.85 L 264.00,1044.61 L 263.68,1044.38 L 263.64,1044.36 L 263.55,1044.30 L 263.32,1044.18 L 263.16,1044.10 L 263.02,1044.06 L 262.94,1044.03 L 262.83,1043.98 L 262.72,1043.92 L 262.55,1043.82 L 262.36,1043.65 L 262.29,1043.58 L 262.10,1043.32 L 261.97,1043.13 L 261.80,1042.89 L 261.73,1042.81 L 261.60,1042.65 L 261.44,1042.41 L 261.28,1042.21 L 261.21,1042.14 L 261.15,1042.08 L 261.00,1041.96 L 260.70,1041.69 L 260.41,1041.43 L 260.19,1041.22 L 260.15,1041.19 L 260.12,1041.16 L 259.99,1041.05 L 259.80,1040.87 L 259.61,1040.65 L 259.42,1040.46 L 259.36,1040.40 L 259.29,1040.34 L 259.22,1040.26 L 259.09,1040.12 L 258.90,1039.90 L 258.77,1039.75 L 258.67,1039.63 L 258.62,1039.56 L 258.56,1039.49 L 258.46,1039.37 L 258.41,1039.29 L 258.36,1039.21 L 258.32,1039.14 L 258.32,1039.14 L 258.31,1039.10 L 258.30,1039.09 L 258.26,1038.98 L 258.23,1038.86 L 258.20,1038.75 L 258.17,1038.66 L 258.13,1038.57 L 258.07,1038.47 L 257.99,1038.38 L 257.82,1038.20 L 257.64,1037.99 L 257.54,1037.85 L 257.44,1037.72 L 257.38,1037.58 L 257.19,1037.53 L 257.07,1037.46 L 256.93,1037.35 L 256.86,1037.27 L 256.78,1037.18 L 256.69,1037.07 L 256.61,1036.96 L 256.52,1036.84 L 256.45,1036.75 L 256.41,1036.71 L 256.32,1036.62 L 256.23,1036.55 L 256.16,1036.49 L 256.06,1036.42 L 255.94,1036.34 L 255.85,1036.29 L 255.80,1036.25 L 255.55,1036.12 L 255.31,1035.96 L 255.14,1035.83 L 255.08,1035.79 L 254.87,1035.63 L 254.75,1035.55 L 254.60,1035.43 L 254.52,1035.36 L 254.50,1035.33 L 254.20,1035.07 L 254.09,1034.98 L 254.03,1034.94 L 253.96,1034.89 L 253.86,1034.85 L 253.78,1034.82 L 253.68,1034.80 L 253.58,1034.78 L 253.48,1034.77 L 253.36,1034.75 L 253.24,1034.75 L 253.13,1034.75 L 253.04,1034.74 L 252.91,1034.66 L 252.88,1034.64 L 252.82,1034.60 L 252.70,1034.51 L 252.54,1034.41 L 252.10,1034.09 L 251.72,1033.84 L 251.48,1033.67 L 251.35,1033.55 L 251.20,1033.43 L 250.94,1033.17 L 250.80,1033.02 L 250.75,1032.97 L 250.44,1032.72 L 250.44,1032.72 L 250.31,1032.59 L 250.22,1032.50 L 249.91,1032.19 L 249.81,1032.07 L 249.79,1032.04 L 249.63,1031.85 L 249.54,1031.73 L 249.41,1031.57 L 249.11,1031.17 L 248.76,1030.78 L 248.68,1030.65 L 248.58,1030.50 L 248.49,1030.37 L 248.37,1030.17 L 248.37,1030.16 L 248.36,1030.15 L 248.29,1030.03 L 248.18,1029.85 L 248.13,1029.73 L 248.04,1029.51 L 247.98,1029.40 L 247.91,1029.27 L 247.79,1029.07 L 247.68,1028.93 L 247.60,1028.81 L 247.37,1028.50 L 247.32,1028.44 L 247.27,1028.38 L 247.25,1028.35 L 247.11,1028.16 L 246.98,1027.98 L 246.90,1027.86 L 246.80,1027.72 L 246.72,1027.62 L 246.60,1027.45 L 246.36,1027.15 L 246.21,1026.97 L 246.05,1026.85 L 246.01,1026.81 L 245.99,1026.80 L 245.85,1026.72 L 245.71,1026.63 L 245.58,1026.56 L 245.50,1026.51 L 245.24,1026.38 L 245.16,1026.33 L 245.07,1026.27 L 244.98,1026.20 L 244.95,1026.17 L 244.90,1026.13 L 244.85,1026.08 L 244.82,1026.05 L 244.68,1025.92 L 244.52,1025.79 L 244.25,1025.62 L 244.20,1025.59 L 243.92,1025.45 L 243.74,1025.36 L 243.60,1025.29 L 243.47,1025.23 L 243.40,1025.19 L 243.31,1025.15 L 243.18,1025.06 L 243.03,1024.95 L 242.90,1024.84 L 242.58,1024.57 L 242.39,1024.40 L 242.26,1024.31 L 242.16,1024.25 L 242.03,1024.16 L 241.89,1024.07 L 241.83,1024.03 L 241.71,1023.96 L 241.29,1023.69 L 240.92,1023.44 L 240.56,1023.22 L 240.37,1023.10 L 240.10,1022.91 L 239.91,1022.79 L 239.83,1022.74 L 239.74,1022.70 L 239.52,1022.57 L 239.32,1022.43 L 239.18,1022.31 L 239.06,1022.20 L 238.98,1022.13 L 238.95,1022.10 L 238.77,1021.87 L 238.69,1021.77 L 238.62,1021.67 L 238.54,1021.55 L 238.48,1021.47 L 238.42,1021.36 L 238.33,1021.25 L 238.22,1021.12 L 238.08,1020.99 L 237.83,1020.78 L 237.48,1020.45 L 237.30,1020.29 L 237.13,1020.13 L 237.11,1020.06 L 237.05,1019.78 L 236.96,1019.45 L 236.89,1019.20 L 236.83,1018.99 L 236.77,1018.79 L 236.71,1018.60 L 236.66,1018.51 L 236.58,1018.35 L 236.44,1018.12 L 236.33,1017.94 L 236.25,1017.83 L 236.18,1017.73 L 236.06,1017.56 L 235.97,1017.44 L 235.89,1017.33 L 235.79,1017.19 L 235.73,1017.12 L 235.70,1017.08 L 235.55,1016.91 L 235.37,1016.73 L 235.18,1016.53 L 234.92,1016.28 L 234.79,1016.15 L 234.56,1015.92 L 234.46,1015.82 L 234.27,1015.63 L 234.14,1015.48 L 233.94,1015.29 L 233.89,1015.25 L 233.75,1015.12 L 233.52,1014.92 L 233.38,1014.78 L 232.95,1014.40 L 232.62,1014.18 L 232.38,1014.01 L 232.09,1013.83 L 231.98,1013.77 L 231.82,1013.68 L 231.56,1013.54 L 231.29,1013.40 L 231.09,1013.30 L 230.91,1013.23 L 230.68,1013.00 L 230.65,1012.97 L 230.35,1012.66 L 230.18,1012.49 L 229.85,1012.14 L 229.62,1012.17 L 229.58,1012.18 L 229.54,1012.19 L 229.52,1012.19 L 229.48,1012.20 L 229.43,1012.21 L 229.40,1012.21 L 229.38,1012.21 L 229.36,1012.22 L 229.34,1012.22 L 229.33,1012.23 L 229.32,1012.25 L 229.31,1012.30 L 229.28,1012.39 L 229.25,1012.48 L 229.24,1012.52 L 229.22,1012.58 L 229.20,1012.61 L 229.19,1012.65 L 229.17,1012.66 L 229.15,1012.68 L 229.11,1012.72 L 229.04,1012.77 L 228.91,1012.86 L 228.90,1012.87 L 228.86,1012.90 L 228.77,1012.98 L 228.74,1012.94 L 228.72,1012.96 L 228.72,1012.97 L 228.68,1012.99 L 228.66,1012.97 L 228.50,1012.98 L 228.30,1012.98 L 228.26,1013.01 L 228.07,1013.05 L 227.85,1013.08 L 227.75,1013.10 L 227.65,1013.12 L 227.61,1013.13 L 227.57,1013.15 L 227.52,1013.17 L 227.49,1013.19 L 227.45,1013.22 L 227.42,1013.23 L 227.40,1013.24 L 227.37,1013.26 L 227.34,1013.17 L 227.32,1013.12 L 227.30,1013.14 L 227.28,1013.16 L 227.27,1013.17 L 227.25,1013.18 L 227.24,1013.19 L 227.22,1013.20 L 227.20,1013.20 L 227.19,1013.22 L 227.18,1013.23 L 227.16,1013.25 L 227.13,1013.27 L 227.11,1013.28 L 227.11,1013.29 L 227.10,1013.30 L 227.10,1013.32 L 227.00,1013.28 L 226.92,1013.26 L 226.86,1013.24 L 226.84,1013.25 L 226.68,1013.28 L 226.33,1013.34 L 226.20,1013.36 L 226.08,1013.38 L 225.91,1013.42 L 225.93,1013.46 L 225.98,1013.58 L 226.05,1013.74 L 226.12,1013.90 L 226.18,1014.05 L 226.25,1014.19 L 226.36,1014.45 L 226.48,1014.72 L 226.61,1015.02 L 226.69,1015.20 L 226.75,1015.33 L 226.62,1015.38 L 226.44,1015.45 L 226.45,1015.46 L 226.34,1015.49 L 226.28,1015.51 L 226.10,1015.58 L 226.10,1015.59 L 226.01,1015.62 L 225.92,1015.65 L 225.74,1015.72 L 225.66,1015.75 L 225.34,1015.88 L 224.97,1016.03 L 224.80,1016.09 L 224.68,1016.14 L 224.58,1016.18 L 224.48,1016.22 L 224.39,1016.25 L 224.34,1016.27 L 224.30,1016.29 L 224.22,1016.31 L 224.03,1016.37 L 223.73,1016.45 L 223.49,1016.53 L 223.33,1016.57 L 223.02,1016.67 L 222.97,1016.69 L 222.78,1016.75 L 222.49,1016.84 L 222.43,1016.86 L 222.18,1016.93 L 221.97,1016.99 L 221.93,1017.01 L 221.65,1017.10 L 221.44,1017.17 L 221.43,1017.17 L 221.31,1017.21 L 221.26,1017.23 L 220.79,1017.37 L 220.72,1017.25 L 220.59,1017.03 L 220.51,1016.90 L 220.50,1016.88 L 220.40,1016.72 L 220.24,1016.46 L 220.17,1016.35 L 220.09,1016.22 L 220.00,1016.06 L 219.96,1015.99 L 219.83,1015.77 L 219.76,1015.66 L 219.64,1015.46 L 219.61,1015.41 L 219.53,1015.28 L 219.42,1015.09 L 219.11,1015.37 L 218.83,1014.92 L 218.82,1014.91 L 218.82,1014.91 L 218.81,1014.91 L 218.69,1015.05 L 218.52,1015.22 L 218.50,1015.23 L 218.25,1015.47 L 218.29,1015.51 L 218.03,1015.77 L 218.11,1015.90 L 218.07,1015.93 L 217.71,1016.28 L 217.38,1016.60 L 217.31,1016.66 L 216.88,1017.11 L 216.53,1016.70 L 216.08,1017.13 L 215.80,1017.52 L 215.50,1017.92 L 215.52,1017.94 L 215.50,1017.97 L 215.49,1017.99 L 215.47,1018.01 L 215.46,1018.04 L 215.39,1018.13 L 215.32,1018.23 L 215.25,1018.33 L 215.17,1018.43 L 215.09,1018.52 L 215.02,1018.62 L 214.98,1018.66 L 214.95,1018.70 L 214.95,1018.70 L 214.84,1018.86 L 214.53,1019.29 L 214.57,1019.32 L 214.60,1019.35 L 214.64,1019.38 L 214.68,1019.41 L 214.71,1019.43 L 214.74,1019.46 L 214.77,1019.49 L 214.80,1019.52 L 214.87,1019.57 L 214.94,1019.63 L 215.01,1019.69 L 215.08,1019.74 L 215.15,1019.80 L 215.22,1019.85 L 215.29,1019.91 L 215.36,1019.96 L 215.43,1020.02 L 215.50,1020.07 L 215.57,1020.13 L 215.64,1020.18 L 215.71,1020.24 L 215.78,1020.29 L 215.85,1020.35 L 215.91,1020.40 L 216.05,1020.51 L 216.18,1020.63 L 216.32,1020.74 L 216.38,1020.80 L 216.42,1020.83 L 216.45,1020.85 L 216.52,1020.91 L 216.59,1020.97 L 216.65,1021.02 L 216.72,1021.08 L 216.77,1021.12 L 216.82,1021.16 L 216.86,1021.20 L 216.91,1021.23 L 216.96,1021.27 L 216.98,1021.29 L 217.01,1021.31 L 217.05,1021.35 L 217.10,1021.39 L 217.13,1021.41 L 217.16,1021.43 L 217.19,1021.46 L 217.22,1021.48 L 217.25,1021.50 L 217.28,1021.52 L 217.30,1021.54 L 217.33,1021.56 L 217.35,1021.58 L 217.37,1021.60 L 217.39,1021.62 L 217.41,1021.64 L 217.43,1021.66 L 217.45,1021.68 L 217.56,1021.78 L 217.66,1021.88 L 217.76,1021.98 L 217.86,1022.07 L 217.96,1022.17 L 218.06,1022.27 L 218.20,1022.42 L 218.35,1022.58 L 218.42,1022.65 L 218.49,1022.73 L 218.57,1022.80 L 218.64,1022.88 L 218.93,1022.59 L 219.13,1022.82 L 219.11,1022.84 L 219.28,1023.03 L 219.35,1023.11 L 219.71,1022.72 L 219.71,1022.73 L 219.72,1022.73 L 219.72,1022.74 L 219.73,1022.75 L 219.73,1022.76 L 220.08,1023.16 L 220.11,1023.19 L 220.13,1023.22 L 220.16,1023.25 L 220.19,1023.29 L 220.22,1023.32 L 220.25,1023.35 L 220.28,1023.38 L 220.31,1023.41 L 220.34,1023.44 L 220.37,1023.47 L 220.40,1023.51 L 220.44,1023.55 L 220.47,1023.59 L 220.51,1023.63 L 220.55,1023.67 L 220.58,1023.71 L 220.61,1023.75 L 220.65,1023.79 L 220.69,1023.83 L 220.72,1023.88 L 220.76,1023.92 L 220.81,1023.97 L 220.89,1024.06 L 220.93,1024.11 L 220.96,1024.15 L 221.03,1024.22 L 221.09,1024.30 L 221.15,1024.37 L 221.21,1024.44 L 221.28,1024.52 L 221.34,1024.59 L 221.43,1024.70 L 221.53,1024.81 L 221.62,1024.93 L 221.72,1025.04 L 221.72,1025.04 L 221.73,1025.04 L 221.73,1025.05 L 221.74,1025.05 L 221.74,1025.05 L 221.75,1025.06 L 221.95,1026.07 L 221.95,1026.07 L 221.95,1026.08 L 221.95,1026.09 L 221.95,1026.09 L 221.96,1026.10 L 221.96,1026.11 L 221.96,1026.11 L 221.96,1026.12 L 221.97,1026.12 L 221.97,1026.13 L 221.97,1026.13 L 221.98,1026.14 L 221.98,1026.14 L 221.98,1026.14 L 221.98,1026.15 L 221.99,1026.15 L 221.99,1026.16 L 221.99,1026.16 L 222.00,1026.16 L 222.00,1026.17 L 222.01,1026.17 L 222.02,1026.18 L 222.02,1026.18 L 222.02,1026.19 L 222.08,1026.26 L 222.14,1026.33 L 222.20,1026.40 L 222.26,1026.47 L 222.32,1026.54 L 222.40,1026.62 L 222.39,1026.63 L 222.39,1026.63 L 222.40,1026.64 L 222.40,1026.65 L 222.41,1026.65 L 222.41,1026.66 L 222.42,1026.67 L 222.45,1026.70 L 222.48,1026.72 L 222.51,1026.75 L 222.54,1026.78 L 222.57,1026.80 L 222.60,1026.83 L 222.60,1026.83 L 222.60,1026.84 L 222.61,1026.84 L 222.61,1026.84 L 222.62,1026.84 L 222.63,1026.85 L 222.63,1026.85 L 222.64,1026.85 L 222.64,1026.85 L 222.65,1026.86 L 222.86,1027.06 L 223.07,1027.26 L 223.29,1027.46 L 223.50,1027.66 L 224.36,1028.45 L 224.38,1028.40 L 224.70,1028.71 L 225.42,1029.40 L 225.47,1029.44 L 225.51,1029.49 L 225.56,1029.54 L 225.79,1029.76 L 225.83,1029.80 L 225.88,1029.84 L 225.92,1029.88 L 226.10,1030.05 L 226.13,1030.08 L 226.17,1030.11 L 226.20,1030.14 L 226.23,1030.17 L 226.26,1030.20 L 226.28,1030.23 L 226.34,1030.29 L 226.40,1030.34 L 226.46,1030.40 L 226.52,1030.46 L 226.59,1030.53 L 226.91,1030.82 L 226.93,1030.84 L 226.95,1030.86 L 226.99,1030.90 L 227.72,1031.59 L 227.84,1031.71 L 227.97,1031.82 L 228.03,1031.88 L 228.09,1031.93 L 228.15,1031.99 L 228.21,1032.05 L 228.27,1032.11 L 228.34,1032.16 L 228.40,1032.22 L 228.47,1032.28 L 228.52,1032.33 L 228.58,1032.38 L 228.59,1032.40 L 228.61,1032.42 L 228.63,1032.43 L 228.65,1032.45 L 228.66,1032.46 L 228.68,1032.48 L 228.70,1032.50 L 228.72,1032.51 L 228.74,1032.53 L 228.75,1032.54 L 228.76,1032.56 L 228.78,1032.57 L 228.80,1032.58 L 228.81,1032.59 L 228.82,1032.60 L 228.83,1032.61 L 228.84,1032.62 L 228.85,1032.63 L 228.88,1032.66 L 228.93,1032.70 L 228.98,1032.75 L 229.03,1032.80 L 229.08,1032.84 L 229.13,1032.89 L 229.15,1032.91 L 229.16,1032.92 L 229.16,1032.92 L 229.17,1032.93 L 229.17,1032.94 L 229.18,1032.94 L 229.18,1032.94 L 229.18,1032.95 L 229.19,1032.95 L 229.19,1032.96 L 229.23,1032.99 L 229.28,1033.04 L 229.35,1033.11 L 229.42,1033.17 L 229.49,1033.23 L 229.56,1033.30 L 229.63,1033.36 L 229.69,1033.42 L 229.76,1033.49 L 229.84,1033.55 L 229.91,1033.62 L 229.98,1033.69 L 230.05,1033.75 L 230.12,1033.82 L 230.18,1033.88 L 230.25,1033.95 L 230.26,1033.95 L 230.27,1033.96 L 230.27,1033.96 L 230.28,1033.97 L 230.28,1033.97 L 230.29,1033.96 L 230.31,1033.97 L 230.32,1033.99 L 230.34,1034.00 L 230.35,1034.02 L 230.37,1034.03 L 230.44,1034.10 L 230.51,1034.17 L 230.57,1034.22 L 230.63,1034.28 L 230.69,1034.33 L 230.82,1034.45 L 230.89,1034.52 L 230.95,1034.58 L 230.98,1034.61 L 231.01,1034.64 L 231.05,1034.67 L 231.08,1034.70 L 231.20,1034.82 L 231.38,1034.99 L 231.55,1035.15 L 231.73,1035.31 L 231.90,1035.48 L 231.95,1035.53 L 232.00,1035.57 L 232.05,1035.62 L 232.10,1035.67 L 232.18,1035.74 L 232.24,1035.80 L 232.30,1035.85 L 232.28,1035.89 L 232.26,1035.94 L 232.24,1035.97 L 232.23,1036.01 L 232.22,1036.04 L 232.20,1036.06 L 232.19,1036.08 L 232.18,1036.11 L 232.17,1036.13 L 232.16,1036.15 L 232.15,1036.17 L 232.14,1036.19 L 232.12,1036.25 L 232.09,1036.31 L 232.06,1036.37 L 232.04,1036.42 L 232.00,1036.52 L 231.99,1036.54 L 231.98,1036.56 L 231.97,1036.58 L 231.96,1036.60 L 231.95,1036.61 L 231.94,1036.63 L 231.92,1036.68 L 231.90,1036.74 L 231.87,1036.79 L 231.85,1036.85 L 231.80,1036.95 L 231.76,1037.05 L 231.71,1037.17 L 231.68,1037.22 L 231.66,1037.27 L 231.64,1037.31 L 231.62,1037.36 L 231.55,1037.52 L 231.48,1037.66 L 231.00,1038.72 L 231.14,1038.77 L 231.14,1038.77 L 231.15,1038.77 L 231.15,1038.78 L 231.15,1038.78 L 231.15,1038.78 L 231.16,1038.78 L 231.16,1038.79 L 231.25,1038.95 L 230.63,1039.34 L 230.47,1039.43 L 230.42,1039.47 L 230.37,1039.50 L 230.32,1039.53 L 230.27,1039.56 L 230.21,1039.60 L 230.16,1039.63 L 230.14,1039.64 L 230.12,1039.65 L 230.10,1039.66 L 230.08,1039.68 L 230.06,1039.69 L 230.04,1039.70 L 230.02,1039.71 L 230.00,1039.72 L 229.84,1039.82 L 229.83,1039.83 L 229.81,1039.84 L 229.80,1039.84 L 229.78,1039.85 L 229.77,1039.86 L 229.75,1039.87 L 229.74,1039.88 L 229.72,1039.89 L 229.67,1039.92 L 229.65,1039.93 L 229.64,1039.94 L 229.63,1039.94 L 229.62,1039.95 L 229.62,1039.95 L 229.60,1039.96 L 229.59,1039.97 L 229.58,1039.98 L 229.55,1039.99 L 229.51,1040.01 L 229.48,1040.03 L 229.46,1040.05 L 229.43,1040.06 L 229.40,1040.08 L 229.37,1040.10 L 229.27,1040.16 L 229.16,1040.22 L 229.06,1040.29 L 228.95,1040.35 L 228.85,1040.41 L 228.80,1040.44 L 228.77,1040.46 L 228.75,1040.47 L 228.74,1040.47 L 228.74,1040.47 L 228.74,1040.47 L 228.65,1040.48 L 228.64,1040.49 L 228.61,1040.49 L 228.59,1040.49 L 228.56,1040.50 L 228.54,1040.50 L 228.51,1040.51 L 228.49,1040.51 L 228.46,1040.52 L 228.44,1040.53 L 228.42,1040.53 L 228.39,1040.54 L 228.37,1040.55 L 228.36,1040.55 L 228.36,1040.55 L 228.35,1040.56 L 228.35,1040.56 L 228.34,1040.57 L 228.33,1040.57 L 228.30,1040.60 L 228.30,1040.60 L 228.29,1040.60 L 228.29,1040.60 L 228.28,1040.60 L 228.28,1040.60 L 228.27,1040.60 L 228.26,1040.60 L 228.25,1040.61 L 228.25,1040.61 L 228.24,1040.61 L 228.24,1040.61 L 228.24,1040.61 L 228.23,1040.61 L 228.21,1040.63 L 228.17,1040.65 L 228.15,1040.67 L 228.13,1040.68 L 228.12,1040.68 L 228.12,1040.69 L 228.12,1040.69 L 228.11,1040.69 L 228.11,1040.70 L 228.11,1040.70 L 228.10,1040.70 L 228.10,1040.71 L 227.95,1040.80 L 227.94,1040.80 L 227.94,1040.81 L 227.94,1040.81 L 227.93,1040.82 L 227.93,1040.82 L 227.93,1040.82 L 227.92,1040.83 L 227.92,1040.83 L 227.92,1040.84 L 227.92,1040.84 L 227.92,1040.85 L 227.92,1040.85 L 227.91,1040.86 L 227.91,1040.86 L 227.91,1040.86 L 227.91,1040.87 L 227.91,1040.87 L 227.90,1040.88 L 227.90,1040.88 L 227.90,1040.88 L 227.89,1040.88 L 227.89,1040.89 L 227.89,1040.89 L 227.88,1040.89 L 227.88,1040.89 L 227.87,1040.89 L 227.87,1040.89 L 227.86,1040.89 L 227.86,1040.89 L 227.86,1040.89 L 227.85,1040.89 L 227.85,1040.88 L 227.84,1040.88 L 227.84,1040.88 L 227.84,1040.88 L 227.83,1040.87 L 227.65,1040.99 L 227.56,1041.04 L 227.56,1041.05 L 227.55,1041.05 L 227.54,1041.06 L 227.53,1041.06 L 227.52,1041.06 L 227.51,1041.06 L 227.50,1041.07 L 227.27,1041.13 L 227.20,1041.15 L 227.10,1041.17 L 227.00,1041.20 L 226.99,1041.20 L 226.98,1041.21 L 226.96,1041.21 L 226.95,1041.21 L 226.94,1041.22 L 226.92,1041.22 L 226.90,1041.22 L 226.88,1041.23 L 226.85,1041.24 L 226.83,1041.24 L 226.81,1041.25 L 226.79,1041.25 L 226.77,1041.26 L 226.75,1041.27 L 226.73,1041.27 L 226.71,1041.28 L 226.68,1041.29 L 226.66,1041.29 L 226.65,1041.29 L 226.64,1041.30 L 226.64,1041.30 L 226.63,1041.30 L 226.62,1041.31 L 226.61,1041.31 L 226.61,1041.31 L 226.60,1041.32 L 226.60,1041.32 L 226.60,1041.32 L 226.59,1041.32 L 226.59,1041.32 L 226.58,1041.32 L 226.58,1041.32 L 226.58,1041.32 L 226.57,1041.32 L 226.56,1041.32 L 226.55,1041.31 L 226.55,1041.31 L 226.54,1041.31 L 226.53,1041.31 L 226.52,1041.31 L 226.51,1041.32 L 226.50,1041.32 L 226.49,1041.32 L 226.49,1041.32 L 226.48,1041.33 L 226.47,1041.33 L 226.46,1041.33 L 226.45,1041.34 L 226.44,1041.34 L 226.44,1041.35 L 226.43,1041.35 L 226.42,1041.36 L 226.41,1041.36 L 226.41,1041.37 L 226.40,1041.37 L 226.39,1041.37 L 226.38,1041.38 L 226.38,1041.38 L 226.37,1041.38 L 226.36,1041.38 L 226.35,1041.39 L 226.34,1041.39 L 226.34,1041.38 L 226.33,1041.38 L 226.32,1041.38 L 226.32,1041.38 L 226.31,1041.38 L 226.31,1041.38 L 226.31,1041.37 L 226.30,1041.37 L 226.30,1041.37 L 226.29,1041.37 L 226.29,1041.36 L 226.28,1041.36 L 226.28,1041.36 L 226.27,1041.36 L 226.27,1041.36 L 226.26,1041.36 L 226.26,1041.36 L 226.25,1041.36 L 226.25,1041.36 L 226.24,1041.37 L 226.24,1041.37 L 226.24,1041.37 L 226.23,1041.37 L 226.23,1041.38 L 226.22,1041.38 L 226.21,1041.39 L 226.20,1041.39 L 226.20,1041.40 L 226.19,1041.40 L 226.18,1041.41 L 226.17,1041.41 L 226.17,1041.41 L 226.16,1041.41 L 226.16,1041.41 L 226.15,1041.42 L 226.15,1041.42 L 226.15,1041.42 L 226.15,1041.43 L 226.16,1041.44 L 226.16,1041.45 L 226.17,1041.46 L 226.17,1041.47 L 226.17,1041.48 L 226.17,1041.50 L 226.18,1041.52 L 226.18,1041.54 L 226.19,1041.60 L 226.20,1041.67 L 226.21,1041.73 L 226.22,1041.79 L 226.23,1041.85 L 226.25,1041.93 L 226.31,1042.25 L 226.32,1042.33 L 226.34,1042.43 L 226.34,1042.45 L 226.34,1042.46 L 226.34,1042.46 L 226.34,1042.46 L 226.33,1042.47 L 226.33,1042.47 L 226.33,1042.48 L 226.33,1042.49 L 226.34,1042.50 L 226.34,1042.52 L 226.34,1042.53 L 226.34,1042.54 L 226.34,1042.55 L 226.33,1042.55 L 226.33,1042.57 L 226.33,1042.58 L 226.33,1042.58 L 226.34,1042.59 L 226.35,1042.59 L 226.37,1042.60 L 226.38,1042.61 L 226.39,1042.61 L 226.40,1042.62 L 226.40,1042.62 L 226.41,1042.63 L 226.41,1042.63 L 226.41,1042.63 L 226.43,1042.63 L 226.43,1042.63 L 226.44,1042.63 L 226.44,1042.64 L 226.44,1042.64 L 226.45,1042.67 L 226.46,1042.67 L 226.48,1042.70 L 226.48,1042.71 L 226.49,1042.72 L 226.50,1042.73 L 226.51,1042.73 L 226.51,1042.74 L 226.52,1042.75 L 226.52,1042.76 L 226.52,1042.76 L 226.52,1042.77 L 226.52,1042.77 L 226.50,1042.78 L 226.49,1042.80 L 226.48,1042.80 L 226.47,1042.81 L 226.46,1042.80 L 226.46,1042.79 L 226.44,1042.76 L 226.43,1042.75 L 226.43,1042.74 L 226.42,1042.74 L 226.41,1042.73 L 226.41,1042.73 L 226.40,1042.73 L 226.40,1042.74 L 226.39,1042.74 L 226.39,1042.74 L 226.38,1042.75 L 226.38,1042.76 L 226.38,1042.77 L 226.38,1042.78 L 226.37,1042.79 L 226.37,1042.80 L 226.37,1042.80 L 226.37,1042.81 L 226.37,1042.82 L 226.35,1042.85 L 226.33,1042.88 L 226.33,1042.89 L 226.32,1042.89 L 226.31,1042.90 L 226.30,1042.91 L 226.30,1042.91 L 226.29,1042.91 L 226.28,1042.91 L 226.28,1042.91 L 226.27,1042.91 L 226.27,1042.91 L 226.26,1042.91 L 226.25,1042.91 L 226.24,1042.90 L 226.22,1042.88 L 226.21,1042.87 L 226.20,1042.87 L 226.19,1042.87 L 226.19,1042.87 L 226.18,1042.87 L 226.18,1042.87 L 226.17,1042.87 L 226.17,1042.88 L 226.17,1042.88 L 226.17,1042.89 L 226.17,1042.89 L 226.17,1042.90 L 226.17,1042.91 L 226.17,1042.92 L 226.18,1042.94 L 226.18,1042.94 L 226.18,1042.95 L 226.18,1042.95 L 226.18,1042.96 L 226.18,1042.97 L 226.18,1042.99 L 226.17,1042.99 L 226.17,1043.00 L 226.17,1043.01 L 226.16,1043.01 L 226.16,1043.02 L 226.15,1043.02 L 226.15,1043.02 L 226.14,1043.02 L 226.13,1043.01 L 226.11,1042.99 L 226.09,1042.98 L 226.07,1042.97 L 226.06,1042.96 L 226.05,1042.96 L 226.03,1042.96 L 226.02,1042.96 L 226.01,1042.96 L 226.00,1042.96 L 226.00,1042.97 L 225.99,1042.98 L 225.98,1042.99 L 225.97,1043.01 L 225.96,1043.02 L 225.95,1043.03 L 225.95,1043.04 L 225.93,1043.05 L 225.90,1043.07 L 225.87,1043.08 L 225.85,1043.09 L 225.84,1043.10 L 225.84,1043.11 L 225.84,1043.11 L 225.83,1043.12 L 225.83,1043.12 L 225.84,1043.13 L 225.84,1043.14 L 225.85,1043.14 L 225.86,1043.15 L 225.87,1043.15 L 225.88,1043.15 L 225.91,1043.15 L 225.92,1043.15 L 225.93,1043.16 L 225.94,1043.16 L 225.95,1043.17 L 225.96,1043.18 L 225.97,1043.19 L 225.97,1043.20 L 225.98,1043.21 L 225.98,1043.22 L 225.98,1043.23 L 225.98,1043.24 L 225.98,1043.25 L 225.97,1043.26 L 225.97,1043.27 L 225.96,1043.28 L 225.96,1043.29 L 225.95,1043.30 L 225.93,1043.31 L 225.92,1043.31 L 225.90,1043.32 L 225.88,1043.33 L 225.86,1043.34 L 225.85,1043.34 L 225.84,1043.34 L 225.83,1043.34 L 225.82,1043.34 L 225.81,1043.33 L 225.80,1043.32 L 225.79,1043.31 L 225.78,1043.29 L 225.78,1043.27 L 225.77,1043.25 L 225.76,1043.23 L 225.75,1043.22 L 225.74,1043.20 L 225.73,1043.19 L 225.72,1043.19 L 225.71,1043.18 L 225.70,1043.18 L 225.69,1043.18 L 225.68,1043.19 L 225.67,1043.19 L 225.67,1043.20 L 225.66,1043.21 L 225.66,1043.23 L 225.65,1043.24 L 225.65,1043.26 L 225.64,1043.29 L 225.63,1043.33 L 225.63,1043.34 L 225.63,1043.35 L 225.63,1043.36 L 225.63,1043.38 L 225.63,1043.39 L 225.64,1043.42 L 225.65,1043.47 L 225.65,1043.49 L 225.65,1043.52 L 225.65,1043.54 L 225.65,1043.55 L 225.65,1043.57 L 225.64,1043.58 L 225.64,1043.59 L 225.63,1043.59 L 225.62,1043.60 L 225.61,1043.60 L 225.60,1043.59 L 225.58,1043.59 L 225.57,1043.58 L 225.56,1043.57 L 225.55,1043.56 L 225.53,1043.53 L 225.51,1043.51 L 225.50,1043.49 L 225.49,1043.47 L 225.49,1043.45 L 225.49,1043.44 L 225.49,1043.42 L 225.49,1043.39 L 225.49,1043.38 L 225.48,1043.36 L 225.47,1043.35 L 225.47,1043.34 L 225.46,1043.33 L 225.45,1043.32 L 225.45,1043.32 L 225.44,1043.32 L 225.43,1043.32 L 225.42,1043.32 L 225.41,1043.32 L 225.40,1043.33 L 225.39,1043.34 L 225.38,1043.35 L 225.38,1043.36 L 225.37,1043.37 L 225.37,1043.38 L 225.37,1043.39 L 225.37,1043.40 L 225.37,1043.42 L 225.37,1043.44 L 225.37,1043.46 L 225.38,1043.47 L 225.38,1043.48 L 225.39,1043.50 L 225.40,1043.51 L 225.41,1043.51 L 225.42,1043.52 L 225.45,1043.54 L 225.47,1043.55 L 225.48,1043.56 L 225.49,1043.57 L 225.49,1043.58 L 225.50,1043.59 L 225.50,1043.61 L 225.50,1043.62 L 225.50,1043.63 L 225.50,1043.64 L 225.50,1043.64 L 225.49,1043.65 L 225.48,1043.66 L 225.47,1043.66 L 225.46,1043.66 L 225.44,1043.66 L 225.43,1043.66 L 225.41,1043.65 L 225.39,1043.65 L 225.38,1043.64 L 225.37,1043.63 L 225.35,1043.61 L 225.30,1043.55 L 225.28,1043.54 L 225.27,1043.53 L 225.25,1043.52 L 225.24,1043.52 L 225.23,1043.52 L 225.22,1043.52 L 225.21,1043.52 L 225.20,1043.53 L 225.19,1043.54 L 225.19,1043.55 L 225.18,1043.56 L 225.18,1043.57 L 225.18,1043.59 L 225.19,1043.60 L 225.20,1043.62 L 225.21,1043.63 L 225.22,1043.65 L 225.24,1043.66 L 225.28,1043.69 L 225.30,1043.70 L 225.32,1043.71 L 225.33,1043.73 L 225.34,1043.74 L 225.35,1043.76 L 225.36,1043.78 L 225.37,1043.80 L 225.37,1043.82 L 225.36,1043.83 L 225.36,1043.85 L 225.34,1043.86 L 225.33,1043.87 L 225.31,1043.88 L 225.29,1043.88 L 225.27,1043.88 L 225.25,1043.88 L 225.23,1043.87 L 225.22,1043.85 L 225.20,1043.84 L 225.18,1043.82 L 225.16,1043.80 L 225.15,1043.77 L 225.10,1043.69 L 225.09,1043.67 L 225.08,1043.66 L 225.06,1043.65 L 225.05,1043.64 L 225.04,1043.64 L 225.03,1043.65 L 225.02,1043.65 L 225.02,1043.67 L 225.01,1043.68 L 225.00,1043.70 L 225.00,1043.72 L 224.99,1043.75 L 224.99,1043.79 L 224.99,1043.81 L 224.98,1043.83 L 224.97,1043.84 L 224.96,1043.87 L 224.94,1043.89 L 224.94,1043.91 L 224.93,1043.92 L 224.93,1043.94 L 224.93,1043.96 L 224.94,1043.97 L 224.95,1043.98 L 224.97,1043.98 L 224.99,1043.98 L 225.01,1043.98 L 225.03,1043.97 L 225.10,1043.93 L 225.11,1043.93 L 225.13,1043.92 L 225.16,1043.92 L 225.17,1043.92 L 225.19,1043.92 L 225.20,1043.93 L 225.21,1043.95 L 225.22,1043.96 L 225.23,1043.98 L 225.23,1044.00 L 225.23,1044.02 L 225.22,1044.03 L 225.20,1044.04 L 225.15,1044.06 L 225.13,1044.07 L 225.11,1044.08 L 225.10,1044.08 L 225.08,1044.08 L 225.06,1044.08 L 225.03,1044.08 L 224.98,1044.07 L 224.88,1044.04 L 224.85,1044.04 L 224.82,1044.03 L 224.79,1044.03 L 224.76,1044.04 L 224.74,1044.04 L 224.72,1044.05 L 224.70,1044.06 L 224.69,1044.08 L 224.68,1044.10 L 224.68,1044.11 L 224.68,1044.13 L 224.68,1044.16 L 224.69,1044.18 L 224.70,1044.20 L 224.72,1044.23 L 224.76,1044.30 L 224.78,1044.31 L 224.79,1044.33 L 224.79,1044.36 L 224.79,1044.38 L 224.80,1044.42 L 224.79,1044.45 L 224.78,1044.51 L 224.78,1044.54 L 224.78,1044.57 L 224.77,1044.59 L 224.78,1044.61 L 224.78,1044.63 L 224.79,1044.65 L 224.81,1044.67 L 224.82,1044.68 L 224.84,1044.68 L 224.85,1044.68 L 224.87,1044.68 L 224.89,1044.67 L 224.91,1044.66 L 224.98,1044.62 L 225.00,1044.60 L 225.02,1044.60 L 225.03,1044.59 L 225.05,1044.59 L 225.08,1044.58 L 225.10,1044.58 L 225.13,1044.59 L 225.14,1044.60 L 225.16,1044.61 L 225.17,1044.62 L 225.19,1044.64 L 225.20,1044.65 L 225.21,1044.68 L 225.22,1044.70 L 225.23,1044.73 L 225.24,1044.76 L 225.27,1044.90 L 225.27,1044.91 L 225.27,1044.92 L 225.27,1044.95 L 225.23,1045.03 L 225.18,1045.11 L 225.14,1045.17 L 225.10,1045.24 L 225.06,1045.29 L 225.05,1045.31 L 225.03,1045.32 L 225.00,1045.33 L 224.98,1045.33 L 224.96,1045.34 L 224.93,1045.34 L 224.89,1045.33 L 224.85,1045.31 L 224.79,1045.24 L 224.76,1045.22 L 224.73,1045.19 L 224.69,1045.18 L 224.68,1045.17 L 224.63,1045.18 L 224.60,1045.19 L 224.56,1045.23 L 224.45,1045.33 L 224.42,1045.35 L 224.35,1045.41 L 224.33,1045.41 L 224.32,1045.42 L 224.30,1045.43 L 224.28,1045.44 L 224.27,1045.45 L 224.25,1045.46 L 224.24,1045.46 L 224.22,1045.47 L 224.20,1045.48 L 224.19,1045.48 L 224.17,1045.49 L 224.15,1045.49 L 224.11,1045.50 L 224.10,1045.51 L 224.09,1045.51 L 224.08,1045.51 L 224.08,1045.51 L 224.07,1045.52 L 224.07,1045.52 L 224.06,1045.52 L 224.05,1045.52 L 224.05,1045.53 L 224.04,1045.53 L 224.04,1045.54 L 224.04,1045.54 L 224.03,1045.55 L 224.03,1045.56 L 224.03,1045.56 L 224.02,1045.57 L 224.02,1045.58 L 224.02,1045.58 L 224.02,1045.59 L 224.01,1045.60 L 224.01,1045.61 L 224.01,1045.61 L 224.00,1045.86 L 223.99,1045.89 L 223.96,1045.94 L 223.95,1045.96 L 223.94,1045.98 L 223.93,1045.99 L 223.91,1046.01 L 223.90,1046.02 L 223.89,1046.04 L 223.88,1046.04 L 223.86,1046.05 L 223.84,1046.06 L 223.76,1046.10 L 223.71,1046.11 L 223.69,1046.11 L 223.53,1046.14 L 223.42,1046.16 L 223.33,1046.18 L 223.29,1046.18 L 223.27,1046.19 L 223.24,1046.20 L 223.20,1046.22 L 223.01,1046.27 L 222.95,1046.30 L 222.89,1046.34 L 222.84,1046.38 L 222.74,1046.47 L 222.66,1046.55 L 222.51,1046.75 L 222.42,1046.88 L 222.38,1046.95 L 222.32,1047.02 L 222.28,1047.06 L 222.21,1047.15 L 222.13,1047.23 L 222.04,1047.31 L 221.97,1047.37 L 221.90,1047.41 L 221.82,1047.45 L 221.64,1047.51 L 221.56,1047.54 L 221.44,1047.59 L 221.37,1047.64 L 221.28,1047.70 L 221.17,1047.76 L 221.09,1047.81 L 221.01,1047.85 L 220.91,1047.89 L 220.80,1047.92 L 220.69,1047.93 L 220.64,1047.92 L 220.59,1047.92 L 220.55,1047.93 L 220.51,1047.93 L 220.48,1047.95 L 220.44,1047.96 L 220.42,1047.98 L 220.40,1047.99 L 220.39,1048.00 L 220.38,1048.02 L 220.36,1048.04 L 220.36,1048.06 L 220.36,1048.09 L 220.36,1048.12 L 220.37,1048.15 L 220.38,1048.18 L 220.40,1048.23 L 220.45,1048.27 L 220.55,1048.35 L 220.60,1048.39 L 220.65,1048.44 L 220.67,1048.46 L 220.68,1048.48 L 220.70,1048.52 L 220.71,1048.57 L 220.71,1048.62 L 220.73,1048.67 L 220.74,1048.67 L 220.75,1048.67 L 220.75,1048.68 L 220.76,1048.68 L 220.77,1048.68 L 220.78,1048.68 L 220.79,1048.69 L 220.80,1048.69 L 220.81,1048.69 L 220.82,1048.70 L 220.83,1048.70 L 220.83,1048.71 L 220.84,1048.71 L 220.85,1048.72 L 220.86,1048.73 L 220.86,1048.73 L 220.87,1048.74 L 220.87,1048.75 L 220.88,1048.76 L 220.88,1048.77 L 220.89,1048.77 L 220.89,1048.78 L 220.90,1048.79 L 220.90,1048.80 L 220.90,1048.81 L 220.90,1048.82 L 220.90,1048.83 L 220.90,1048.84 L 220.90,1048.87 L 220.90,1048.91 L 220.90,1048.95 L 220.90,1048.99 L 220.90,1049.03 L 220.91,1049.06 L 220.91,1049.10 L 220.91,1049.13 L 220.91,1049.17 L 220.91,1049.20 L 220.92,1049.22 L 220.91,1049.23 L 220.91,1049.25 L 220.91,1049.26 L 220.91,1049.27 L 220.90,1049.29 L 220.90,1049.30 L 220.90,1049.32 L 220.89,1049.33 L 220.89,1049.34 L 220.89,1049.35 L 220.90,1049.36 L 220.90,1049.37 L 220.90,1049.37 L 220.90,1049.38 L 220.90,1049.39 L 220.90,1049.40 L 220.91,1049.40 L 220.91,1049.41 L 220.92,1049.42 L 220.92,1049.43 L 220.93,1049.43 L 220.93,1049.44 L 220.94,1049.45 L 220.95,1049.45 L 220.95,1049.46 L 220.96,1049.46 L 220.97,1049.47 L 220.98,1049.47 L 220.99,1049.48 L 220.99,1049.48 L 221.00,1049.49 L 221.01,1049.49 L 221.02,1049.49 L 221.03,1049.49 L 221.04,1049.50 L 221.05,1049.50 L 221.07,1049.50 L 221.09,1049.50 L 221.11,1049.50 L 221.13,1049.50 L 221.15,1049.50 L 221.17,1049.50 L 221.19,1049.50 L 221.21,1049.50 L 221.23,1049.50 L 221.25,1049.50 L 221.27,1049.50 L 221.29,1049.49 L 221.31,1049.49 L 221.34,1049.49 L 221.36,1049.48 L 221.38,1049.48 L 221.41,1049.47 L 221.46,1049.46 L 221.48,1049.45 L 221.51,1049.45 L 221.53,1049.44 L 221.55,1049.44 L 221.57,1049.44 L 221.58,1049.43 L 221.59,1049.43 L 221.60,1049.43 L 221.61,1049.43 L 221.62,1049.43 L 221.63,1049.43 L 221.64,1049.43 L 221.65,1049.44 L 221.66,1049.44 L 221.67,1049.44 L 221.68,1049.44 L 221.69,1049.45 L 221.70,1049.45 L 221.71,1049.46 L 221.72,1049.46 L 221.73,1049.47 L 221.74,1049.47 L 221.75,1049.48 L 221.76,1049.49 L 221.76,1049.49 L 221.77,1049.50 L 221.78,1049.51 L 221.78,1049.52 L 221.79,1049.53 L 221.80,1049.54 L 221.80,1049.55 L 221.81,1049.57 L 221.81,1049.58 L 221.81,1049.60 L 221.82,1049.61 L 221.82,1049.63 L 221.82,1049.64 L 221.83,1049.66 L 221.83,1049.67 L 221.83,1049.68 L 221.83,1049.70 L 221.83,1049.71 L 221.83,1049.72 L 221.83,1049.73 L 221.83,1049.75 L 221.83,1049.76 L 221.84,1049.77 L 221.84,1049.78 L 221.84,1049.79 L 221.84,1049.80 L 221.85,1049.81 L 221.85,1049.82 L 221.86,1049.83 L 221.87,1049.84 L 221.87,1049.85 L 221.88,1049.86 L 221.89,1049.87 L 221.89,1049.87 L 221.90,1049.88 L 221.91,1049.88 L 221.92,1049.89 L 221.93,1049.89 L 221.94,1049.90 L 221.95,1049.90 L 221.96,1049.90 L 221.97,1049.90 L 221.98,1049.90 L 221.99,1049.90 L 222.00,1049.90 L 222.01,1049.90 L 222.02,1049.90 L 222.03,1049.90 L 222.05,1049.90 L 222.07,1049.89 L 222.10,1049.89 L 222.12,1049.88 L 222.15,1049.88 L 222.19,1049.86 L 222.23,1049.85 L 222.27,1049.84 L 222.31,1049.83 L 222.34,1049.82 L 222.38,1049.81 L 222.41,1049.80 L 222.44,1049.79 L 222.48,1049.77 L 222.51,1049.76 L 222.55,1049.75 L 222.59,1049.73 L 222.63,1049.71 L 222.66,1049.70 L 222.69,1049.69 L 222.72,1049.68 L 222.73,1049.67 L 222.74,1049.67 L 222.75,1049.67 L 222.76,1049.66 L 222.76,1049.66 L 222.77,1049.66 L 222.78,1049.66 L 222.79,1049.66 L 222.80,1049.66 L 222.81,1049.66 L 222.82,1049.66 L 222.83,1049.67 L 222.84,1049.67 L 222.84,1049.67 L 222.85,1049.67 L 222.86,1049.68 L 222.87,1049.68 L 222.88,1049.68 L 222.88,1049.69 L 222.89,1049.69 L 222.90,1049.70 L 222.90,1049.71 L 222.91,1049.71 L 222.91,1049.72 L 222.92,1049.73 L 222.92,1049.74 L 222.92,1049.74 L 222.93,1049.75 L 222.93,1049.76 L 222.93,1049.77 L 222.93,1049.78 L 222.93,1049.79 L 222.93,1049.80 L 222.93,1049.80 L 222.93,1049.81 L 222.93,1049.82 L 222.93,1049.83 L 222.92,1049.84 L 222.92,1049.85 L 222.92,1049.85 L 222.92,1049.86 L 222.91,1049.87 L 222.90,1049.88 L 222.89,1049.90 L 222.89,1049.91 L 222.88,1049.92 L 222.87,1049.93 L 222.86,1049.94 L 222.85,1049.95 L 222.84,1049.96 L 222.83,1049.97 L 222.81,1049.98 L 222.80,1049.99 L 222.79,1050.00 L 222.78,1050.01 L 222.77,1050.02 L 222.76,1050.03 L 222.75,1050.04 L 222.73,1050.04 L 222.72,1050.05 L 222.72,1050.06 L 222.71,1050.07 L 222.70,1050.08 L 222.69,1050.09 L 222.68,1050.10 L 222.67,1050.11 L 222.67,1050.12 L 222.66,1050.13 L 222.65,1050.14 L 222.65,1050.15 L 222.64,1050.17 L 222.64,1050.18 L 222.63,1050.19 L 222.63,1050.20 L 222.62,1050.21 L 222.62,1050.22 L 222.62,1050.23 L 222.62,1050.25 L 222.62,1050.26 L 222.62,1050.27 L 222.62,1050.28 L 222.62,1050.29 L 222.62,1050.30 L 222.63,1050.31 L 222.63,1050.32 L 222.63,1050.33 L 222.64,1050.34 L 222.64,1050.35 L 222.65,1050.36 L 222.65,1050.37 L 222.66,1050.38 L 222.66,1050.39 L 222.67,1050.40 L 222.67,1050.40 L 222.68,1050.41 L 222.69,1050.42 L 222.69,1050.42 L 222.70,1050.43 L 222.71,1050.43 L 222.72,1050.44 L 222.72,1050.44 L 222.73,1050.44 L 222.74,1050.45 L 222.75,1050.45 L 222.76,1050.45 L 222.77,1050.45 L 222.77,1050.45 L 222.78,1050.45 L 222.79,1050.45 L 222.80,1050.45 L 222.81,1050.45 L 222.82,1050.45 L 222.83,1050.45 L 222.84,1050.45 L 222.85,1050.44 L 222.86,1050.44 L 222.87,1050.43 L 222.88,1050.43 L 222.89,1050.42 L 222.90,1050.42 L 222.91,1050.41 L 222.91,1050.41 L 222.92,1050.40 L 222.93,1050.39 L 222.93,1050.39 L 222.94,1050.38 L 222.94,1050.37 L 222.95,1050.36 L 222.96,1050.36 L 222.96,1050.35 L 222.97,1050.35 L 222.98,1050.34 L 222.98,1050.34 L 222.99,1050.33 L 223.00,1050.33 L 223.01,1050.33 L 223.02,1050.32 L 223.02,1050.32 L 223.03,1050.32 L 223.05,1050.32 L 223.07,1050.32 L 223.08,1050.32 L 223.09,1050.32 L 223.10,1050.32 L 223.11,1050.32 L 223.12,1050.32 L 223.13,1050.32 L 223.14,1050.32 L 223.15,1050.33 L 223.16,1050.33 L 223.17,1050.33 L 223.18,1050.34 L 223.18,1050.34 L 223.21,1050.35 L 223.23,1050.36 L 223.26,1050.37 L 223.28,1050.38 L 223.30,1050.39 L 223.33,1050.40 L 223.35,1050.42 L 223.38,1050.43 L 223.39,1050.44 L 223.40,1050.44 L 223.42,1050.45 L 223.43,1050.46 L 223.44,1050.47 L 223.46,1050.47 L 223.47,1050.48 L 223.49,1050.48 L 223.50,1050.49 L 223.52,1050.49 L 223.54,1050.50 L 223.55,1050.50 L 223.57,1050.50 L 223.58,1050.51 L 223.60,1050.51 L 223.62,1050.51 L 223.63,1050.51 L 223.65,1050.51 L 223.66,1050.51 L 223.67,1050.51 L 223.69,1050.51 L 223.70,1050.50 L 223.71,1050.50 L 223.72,1050.50 L 223.74,1050.49 L 223.75,1050.49 L 223.76,1050.49 L 223.77,1050.48 L 223.78,1050.47 L 223.79,1050.47 L 223.80,1050.46 L 223.81,1050.45 L 223.82,1050.45 L 223.83,1050.44 L 223.84,1050.43 L 223.85,1050.42 L 223.86,1050.42 L 223.87,1050.41 L 223.88,1050.40 L 223.89,1050.40 L 223.90,1050.39 L 223.91,1050.39 L 223.92,1050.38 L 223.94,1050.38 L 223.95,1050.38 L 223.96,1050.37 L 223.97,1050.37 L 223.98,1050.37 L 223.99,1050.37 L 224.00,1050.37 L 224.01,1050.37 L 224.02,1050.37 L 224.03,1050.37 L 224.03,1050.37 L 224.04,1050.37 L 224.05,1050.37 L 224.06,1050.37 L 224.07,1050.37 L 224.08,1050.38 L 224.09,1050.38 L 224.10,1050.38 L 224.11,1050.39 L 224.12,1050.39 L 224.13,1050.40 L 224.14,1050.41 L 224.15,1050.41 L 224.16,1050.42 L 224.17,1050.43 L 224.18,1050.44 L 224.20,1050.45 L 224.22,1050.47 L 224.24,1050.48 L 224.27,1050.50 L 224.29,1050.52 L 224.31,1050.54 L 224.36,1050.58 L 224.42,1050.64 L 224.44,1050.66 L 224.46,1050.67 L 224.49,1050.69 L 224.51,1050.71 L 224.52,1050.73 L 224.54,1050.74 L 224.54,1050.75 L 224.55,1050.76 L 224.56,1050.77 L 224.57,1050.78 L 224.58,1050.79 L 224.59,1050.80 L 224.60,1050.81 L 224.61,1050.81 L 224.62,1050.82 L 224.63,1050.83 L 224.65,1050.83 L 224.66,1050.84 L 224.67,1050.84 L 224.68,1050.85 L 224.69,1050.85 L 224.70,1050.86 L 224.72,1050.86 L 224.73,1050.86 L 224.74,1050.87 L 224.74,1050.87 L 224.75,1050.87 L 224.76,1050.87 L 224.77,1050.87 L 224.77,1050.87 L 224.78,1050.87 L 224.79,1050.86 L 224.79,1050.87 L 224.79,1050.88 L 224.79,1050.88 L 224.79,1050.89 L 224.79,1050.90 L 224.78,1050.90 L 224.78,1050.91 L 224.78,1050.92 L 224.77,1050.92 L 224.77,1050.93 L 224.77,1050.93 L 224.76,1050.94 L 224.76,1050.94 L 224.75,1050.95 L 224.74,1050.95 L 224.71,1050.96 L 224.68,1050.98 L 224.67,1050.98 L 224.66,1050.99 L 224.65,1051.00 L 224.64,1051.01 L 224.61,1051.06 L 224.60,1051.08 L 224.59,1051.08 L 224.58,1051.09 L 224.57,1051.09 L 224.54,1051.11 L 224.51,1051.14 L 224.48,1051.17 L 224.48,1051.17 L 224.47,1051.17 L 224.47,1051.18 L 224.47,1051.18 L 224.47,1051.20 L 224.47,1051.21 L 224.47,1051.22 L 224.48,1051.23 L 224.48,1051.24 L 224.48,1051.25 L 224.49,1051.26 L 224.49,1051.26 L 224.50,1051.27 L 224.50,1051.27 L 224.51,1051.27 L 224.51,1051.27 L 224.51,1051.27 L 224.52,1051.27 L 224.53,1051.27 L 224.56,1051.26 L 224.58,1051.25 L 224.59,1051.25 L 224.59,1051.25 L 224.60,1051.25 L 224.60,1051.25 L 224.61,1051.26 L 224.61,1051.26 L 224.62,1051.27 L 224.62,1051.28 L 224.63,1051.28 L 224.63,1051.28 L 224.64,1051.28 L 224.64,1051.28 L 224.65,1051.28 L 224.67,1051.27 L 224.74,1051.26 L 224.76,1051.25 L 224.77,1051.25 L 224.78,1051.25 L 224.78,1051.25 L 224.79,1051.26 L 224.79,1051.27 L 224.80,1051.28 L 224.80,1051.29 L 224.80,1051.32 L 224.80,1051.33 L 224.80,1051.34 L 224.80,1051.36 L 224.80,1051.36 L 224.78,1051.40 L 224.77,1051.41 L 224.77,1051.41 L 224.76,1051.42 L 224.76,1051.42 L 224.74,1051.43 L 224.73,1051.43 L 224.73,1051.43 L 224.73,1051.44 L 224.72,1051.44 L 224.72,1051.46 L 224.72,1051.47 L 224.72,1051.47 L 224.71,1051.48 L 224.71,1051.48 L 224.70,1051.49 L 224.69,1051.49 L 224.68,1051.50 L 224.67,1051.51 L 224.67,1051.52 L 224.67,1051.53 L 224.66,1051.54 L 224.66,1051.58 L 224.66,1051.59 L 224.66,1051.59 L 224.66,1051.60 L 224.65,1051.60 L 224.64,1051.61 L 224.64,1051.62 L 224.63,1051.62 L 224.62,1051.62 L 224.61,1051.63 L 224.59,1051.64 L 224.59,1051.64 L 224.58,1051.65 L 224.58,1051.66 L 224.57,1051.66 L 224.53,1051.75 L 224.53,1051.77 L 224.52,1051.78 L 224.52,1051.78 L 224.52,1051.79 L 224.51,1051.79 L 224.51,1051.79 L 224.49,1051.80 L 224.47,1051.81 L 224.46,1051.81 L 224.45,1051.82 L 224.45,1051.83 L 224.42,1051.90 L 224.38,1052.02 L 224.36,1052.08 L 224.36,1052.09 L 224.35,1052.10 L 224.35,1052.11 L 224.35,1052.15 L 224.36,1052.27 L 224.36,1052.38 L 224.36,1052.49 L 224.37,1052.53 L 224.37,1052.55 L 224.38,1052.57 L 224.38,1052.57 L 224.37,1052.58 L 224.36,1052.58 L 224.35,1052.57 L 224.35,1052.57 L 224.34,1052.55 L 224.33,1052.54 L 224.32,1052.53 L 224.30,1052.52 L 224.29,1052.51 L 224.28,1052.51 L 224.28,1052.51 L 224.25,1052.51 L 224.23,1052.51 L 224.22,1052.50 L 224.20,1052.50 L 224.19,1052.50 L 224.19,1052.49 L 224.18,1052.48 L 224.17,1052.48 L 224.16,1052.48 L 224.16,1052.48 L 224.15,1052.48 L 224.14,1052.48 L 224.13,1052.48 L 224.12,1052.49 L 224.12,1052.49 L 224.11,1052.49 L 224.10,1052.49 L 224.08,1052.48 L 224.08,1052.48 L 224.07,1052.48 L 224.06,1052.48 L 224.05,1052.48 L 224.04,1052.48 L 224.02,1052.48 L 224.00,1052.48 L 223.99,1052.47 L 223.97,1052.46 L 223.95,1052.44 L 223.94,1052.42 L 223.93,1052.41 L 223.93,1052.40 L 223.93,1052.40 L 223.92,1052.40 L 223.89,1052.39 L 223.88,1052.39 L 223.88,1052.39 L 223.87,1052.38 L 223.87,1052.38 L 223.86,1052.37 L 223.85,1052.36 L 223.84,1052.37 L 223.82,1052.39 L 223.82,1052.40 L 223.82,1052.40 L 223.82,1052.41 L 223.81,1052.42 L 223.82,1052.44 L 223.82,1052.49 L 223.82,1052.50 L 223.82,1052.50 L 223.82,1052.51 L 223.82,1052.51 L 223.81,1052.52 L 223.80,1052.53 L 223.78,1052.54 L 223.76,1052.56 L 223.75,1052.58 L 223.75,1052.58 L 223.75,1052.59 L 223.74,1052.59 L 223.74,1052.59 L 223.72,1052.59 L 223.71,1052.59 L 223.69,1052.60 L 223.67,1052.60 L 223.66,1052.61 L 223.65,1052.61 L 223.64,1052.62 L 223.62,1052.62 L 223.60,1052.63 L 223.56,1052.64 L 223.51,1052.64 L 223.49,1052.65 L 223.48,1052.65 L 223.47,1052.66 L 223.47,1052.66 L 223.46,1052.67 L 223.45,1052.68 L 223.45,1052.69 L 223.44,1052.69 L 223.42,1052.69 L 223.41,1052.70 L 223.39,1052.70 L 223.38,1052.70 L 223.36,1052.71 L 223.35,1052.72 L 223.34,1052.73 L 223.33,1052.74 L 223.32,1052.75 L 223.32,1052.76 L 223.31,1052.81 L 223.30,1052.84 L 223.29,1052.86 L 223.27,1052.85 L 223.25,1052.85 L 223.24,1052.84 L 223.22,1052.85 L 223.21,1052.85 L 223.20,1052.85 L 223.17,1052.87 L 223.11,1052.91 L 223.10,1052.91 L 223.09,1052.91 L 223.08,1052.92 L 223.08,1052.93 L 223.07,1052.95 L 223.06,1052.97 L 223.06,1052.98 L 223.05,1053.00 L 223.05,1053.00 L 223.05,1053.01 L 223.03,1053.02 L 223.02,1053.04 L 223.01,1053.06 L 223.00,1053.08 L 222.98,1053.15 L 222.98,1053.17 L 222.97,1053.18 L 222.96,1053.19 L 222.96,1053.19 L 222.96,1053.20 L 222.95,1053.20 L 222.94,1053.21 L 222.93,1053.22 L 222.93,1053.22 L 222.93,1053.22 L 222.93,1053.23 L 222.93,1053.24 L 222.93,1053.25 L 222.93,1053.26 L 222.93,1053.27 L 222.94,1053.28 L 222.94,1053.29 L 222.95,1053.30 L 222.95,1053.30 L 222.95,1053.31 L 222.95,1053.31 L 222.96,1053.33 L 222.96,1053.34 L 222.96,1053.34 L 222.96,1053.35 L 222.96,1053.36 L 222.96,1053.37 L 222.96,1053.38 L 222.96,1053.38 L 222.96,1053.38 L 222.96,1053.40 L 222.96,1053.41 L 222.96,1053.42 L 222.96,1053.43 L 222.92,1053.72 L 222.89,1053.97 L 222.87,1054.03 L 222.91,1054.05 L 222.94,1054.09 L 223.03,1054.18 L 223.07,1054.23 L 223.09,1054.25 L 223.10,1054.28 L 223.11,1054.30 L 223.11,1054.32 L 223.12,1054.35 L 223.12,1054.40 L 223.11,1054.48 L 223.11,1054.52 L 223.12,1054.55 L 223.13,1054.59 L 223.15,1054.61 L 223.18,1054.63 L 223.21,1054.65 L 223.25,1054.66 L 223.28,1054.67 L 223.33,1054.67 L 223.36,1054.66 L 223.41,1054.66 L 223.49,1054.64 L 223.54,1054.62 L 223.58,1054.60 L 223.62,1054.57 L 223.68,1054.52 L 223.74,1054.45 L 223.77,1054.42 L 223.80,1054.40 L 223.82,1054.39 L 223.85,1054.39 L 223.87,1054.39 L 223.89,1054.39 L 223.91,1054.40 L 223.94,1054.41 L 223.96,1054.43 L 224.03,1054.49 L 224.05,1054.51 L 224.07,1054.52 L 224.09,1054.53 L 224.12,1054.53 L 224.14,1054.52 L 224.16,1054.51 L 224.17,1054.50 L 224.18,1054.48 L 224.19,1054.46 L 224.20,1054.43 L 224.21,1054.38 L 224.21,1054.37 L 224.22,1054.35 L 224.23,1054.33 L 224.25,1054.32 L 224.29,1054.29 L 224.36,1054.23 L 224.38,1054.19 L 224.38,1054.15 L 224.36,1054.08 L 224.33,1054.02 L 224.32,1053.97 L 224.34,1053.94 L 224.37,1053.93 L 224.44,1053.93 L 224.60,1053.96 L 224.76,1053.96 L 224.79,1053.96 L 224.93,1053.98 L 224.95,1053.98 L 225.01,1053.96 L 225.10,1053.92 L 225.17,1053.83 L 225.24,1053.75 L 225.28,1053.74 L 225.28,1053.73 L 225.35,1053.75 L 225.41,1053.82 L 225.43,1053.92 L 225.36,1054.09 L 225.34,1054.15 L 225.36,1054.21 L 225.41,1054.26 L 225.41,1054.26 L 225.47,1054.26 L 225.56,1054.20 L 225.65,1054.12 L 225.71,1054.10 L 225.86,1054.12 L 226.00,1054.14 L 226.05,1054.10 L 226.08,1054.07 L 226.08,1053.97 L 226.06,1053.87 L 226.07,1053.83 L 226.09,1053.80 L 226.12,1053.80 L 226.17,1053.82 L 226.18,1053.83 L 226.20,1053.84 L 226.25,1053.88 L 226.36,1053.94 L 226.49,1053.98 L 226.60,1054.05 L 226.70,1054.14 L 226.77,1054.15 L 226.83,1054.13 L 226.91,1054.07 L 226.96,1054.03 L 227.00,1054.02 L 227.04,1054.02 L 227.09,1054.06 L 227.14,1054.16 L 227.16,1054.28 L 227.15,1054.39 L 227.14,1054.45 L 227.14,1054.51 L 227.16,1054.56 L 227.20,1054.59 L 227.25,1054.59 L 227.33,1054.55 L 227.49,1054.44 L 227.56,1054.40 L 227.62,1054.40 L 227.69,1054.41 L 227.76,1054.45 L 227.82,1054.53 L 227.86,1054.59 L 227.90,1054.61 L 227.94,1054.60 L 228.00,1054.53 L 228.01,1054.52 L 228.09,1054.44 L 228.18,1054.41 L 228.26,1054.37 L 228.31,1054.30 L 228.32,1054.22 L 228.32,1054.17 L 228.31,1054.08 L 228.32,1054.04 L 228.36,1054.01 L 228.41,1054.01 L 228.47,1054.06 L 228.61,1054.21 L 228.71,1054.28 L 228.76,1054.30 L 228.80,1054.35 L 228.82,1054.41 L 228.80,1054.45 L 228.75,1054.53 L 228.68,1054.60 L 228.66,1054.66 L 228.67,1054.70 L 228.68,1054.73 L 228.74,1054.74 L 228.82,1054.72 L 228.85,1054.72 L 228.87,1054.72 L 228.89,1054.71 L 228.91,1054.71 L 228.93,1054.71 L 228.95,1054.71 L 228.97,1054.71 L 228.98,1054.71 L 228.99,1054.71 L 229.01,1054.71 L 229.03,1054.71 L 229.05,1054.71 L 229.07,1054.71 L 229.09,1054.71 L 229.14,1054.71 L 229.16,1054.71 L 229.18,1054.70 L 229.19,1054.70 L 229.20,1054.70 L 229.21,1054.70 L 229.22,1054.71 L 229.23,1054.71 L 229.24,1054.71 L 229.24,1054.71 L 229.25,1054.72 L 229.26,1054.72 L 229.27,1054.72 L 229.28,1054.73 L 229.29,1054.73 L 229.29,1054.74 L 229.30,1054.75 L 229.31,1054.75 L 229.31,1054.76 L 229.32,1054.77 L 229.32,1054.78 L 229.33,1054.79 L 229.34,1054.80 L 229.34,1054.80 L 229.35,1054.81 L 229.36,1054.82 L 229.37,1054.83 L 229.37,1054.84 L 229.38,1054.84 L 229.39,1054.85 L 229.40,1054.86 L 229.41,1054.86 L 229.45,1054.87 L 229.51,1054.84 L 229.60,1054.76 L 229.68,1054.64 L 229.69,1054.60 L 229.69,1054.56 L 229.66,1054.49 L 229.64,1054.43 L 229.64,1054.40 L 229.66,1054.38 L 229.69,1054.36 L 229.75,1054.37 L 229.84,1054.40 L 229.94,1054.42 L 230.09,1054.40 L 230.26,1054.34 L 230.31,1054.34 L 230.34,1054.35 L 230.35,1054.37 L 230.37,1054.40 L 230.37,1054.43 L 230.36,1054.47 L 230.31,1054.56 L 230.31,1054.60 L 230.31,1054.61 L 230.32,1054.63 L 230.34,1054.65 L 230.44,1054.67 L 230.66,1054.75 L 230.69,1054.75 L 230.71,1054.76 L 230.75,1054.76 L 230.78,1054.75 L 230.80,1054.74 L 230.81,1054.73 L 230.83,1054.72 L 230.85,1054.67 L 230.85,1054.64 L 230.85,1054.50 L 230.86,1054.46 L 230.88,1054.44 L 230.90,1054.43 L 230.95,1054.41 L 230.99,1054.42 L 231.04,1054.44 L 231.15,1054.51 L 231.19,1054.51 L 231.24,1054.50 L 231.27,1054.48 L 231.30,1054.43 L 231.31,1054.39 L 231.30,1054.31 L 231.28,1054.26 L 231.27,1054.18 L 231.27,1054.16 L 231.28,1054.15 L 231.30,1054.14 L 231.34,1054.13 L 231.54,1054.12 L 231.72,1054.11 L 231.78,1054.12 L 231.87,1054.11 L 231.91,1054.10 L 231.93,1054.08 L 231.94,1054.08 L 232.01,1054.01 L 232.03,1054.00 L 232.06,1054.00 L 232.09,1054.01 L 232.12,1054.03 L 232.14,1054.07 L 232.16,1054.14 L 232.16,1054.17 L 232.16,1054.21 L 232.16,1054.26 L 232.16,1054.28 L 232.17,1054.30 L 232.21,1054.33 L 232.37,1054.42 L 232.42,1054.46 L 232.48,1054.52 L 232.51,1054.56 L 232.53,1054.61 L 232.54,1054.66 L 232.55,1054.68 L 232.58,1054.70 L 232.61,1054.70 L 232.63,1054.70 L 232.64,1054.68 L 232.66,1054.67 L 232.67,1054.64 L 232.69,1054.65 L 232.75,1054.72 L 232.78,1054.78 L 232.79,1054.79 L 232.79,1054.80 L 232.80,1054.85 L 232.81,1054.86 L 232.81,1054.88 L 232.81,1054.90 L 232.81,1054.91 L 232.81,1054.92 L 232.81,1054.93 L 232.82,1054.94 L 232.83,1054.95 L 232.84,1054.97 L 232.85,1054.99 L 232.86,1055.01 L 232.87,1055.02 L 232.88,1055.03 L 232.91,1055.08 L 232.92,1055.09 L 232.92,1055.10 L 232.93,1055.12 L 232.94,1055.14 L 232.95,1055.20 L 232.95,1055.23 L 232.95,1055.24 L 232.95,1055.29 L 232.94,1055.34 L 232.93,1055.35 L 232.94,1055.36 L 232.94,1055.36 L 232.94,1055.37 L 232.96,1055.39 L 232.98,1055.41 L 232.98,1055.42 L 233.00,1055.43 L 233.00,1055.43 L 233.01,1055.43 L 233.01,1055.43 L 233.03,1055.43 L 233.03,1055.43 L 233.04,1055.43 L 233.05,1055.43 L 233.06,1055.44 L 233.06,1055.45 L 233.07,1055.46 L 233.08,1055.48 L 233.10,1055.50 L 233.11,1055.52 L 233.12,1055.54 L 233.13,1055.55 L 233.14,1055.56 L 233.15,1055.58 L 233.15,1055.60 L 233.16,1055.62 L 233.16,1055.64 L 233.17,1055.67 L 233.18,1055.69 L 233.18,1055.70 L 233.18,1055.71 L 233.18,1055.71 L 233.18,1055.73 L 233.17,1055.74 L 233.17,1055.74 L 233.17,1055.75 L 233.17,1055.81 L 233.17,1055.83 L 233.18,1055.84 L 233.19,1055.86 L 233.19,1055.87 L 233.19,1055.87 L 233.18,1055.88 L 233.18,1055.88 L 233.17,1055.89 L 233.17,1055.89 L 233.16,1055.91 L 233.15,1055.93 L 233.15,1055.95 L 233.15,1055.96 L 233.15,1055.98 L 233.16,1055.99 L 233.17,1056.01 L 233.18,1056.02 L 233.18,1056.04 L 233.20,1056.10 L 233.21,1056.12 L 233.21,1056.15 L 233.20,1056.25 L 233.15,1056.60 L 233.13,1056.78 L 233.11,1056.78 L 233.10,1056.78 L 233.09,1056.78 L 233.07,1056.94 L 233.00,1057.62 L 232.96,1057.92 L 232.95,1058.08 L 232.93,1058.27 L 232.92,1058.37 L 232.92,1058.42 L 232.91,1058.50 L 232.90,1058.57 L 232.86,1058.92 L 232.84,1059.17 L 232.80,1059.49 L 232.80,1059.58 L 232.79,1059.62 L 232.77,1059.75 L 232.76,1059.89 L 232.75,1060.04 L 232.74,1060.07 L 232.74,1060.11 L 232.75,1060.18 L 232.74,1060.20 L 232.74,1060.23 L 232.75,1060.24 L 232.71,1060.63 L 232.71,1060.64 L 232.70,1060.67 L 232.67,1060.75 L 232.65,1060.84 L 232.61,1061.04 L 232.57,1061.22 L 232.56,1061.25 L 232.63,1061.28 L 232.66,1061.29 L 232.68,1061.30 L 232.69,1061.30 L 232.68,1061.33 L 232.66,1061.36 L 232.58,1061.35 L 232.59,1061.52 L 232.62,1062.01 L 232.63,1062.42 L 232.73,1062.54 L 232.88,1062.72 L 233.04,1062.89 L 233.06,1062.90 L 233.15,1063.01 L 233.19,1063.05 L 233.22,1063.09 L 233.26,1063.13 L 233.31,1063.18 L 233.35,1063.23 L 233.38,1063.27 L 233.42,1063.32 L 233.47,1063.36 L 233.51,1063.41 L 233.55,1063.45 L 233.59,1063.50 L 233.63,1063.54 L 233.66,1063.58 L 233.70,1063.62 L 233.74,1063.66 L 233.77,1063.70 L 233.81,1063.74 L 233.84,1063.78 L 233.88,1063.82 L 233.92,1063.87 L 234.00,1063.96 L 234.12,1064.10 L 234.16,1064.14 L 234.20,1064.19 L 234.24,1064.24 L 234.28,1064.28 L 234.31,1064.32 L 234.36,1064.38 L 234.40,1064.42 L 234.48,1064.51 L 234.52,1064.56 L 234.63,1064.67 L 234.65,1064.65 L 234.66,1064.64 L 234.66,1064.64 L 234.68,1064.61 L 234.71,1064.54 L 234.78,1064.42 L 234.97,1064.08 L 235.03,1063.97 L 235.08,1064.00 L 235.18,1064.06 L 235.25,1064.09 L 235.31,1064.13 L 235.38,1064.17 L 235.40,1064.17 L 235.48,1064.21 L 235.56,1064.17 L 235.55,1064.16 L 235.68,1063.94 L 235.72,1063.93 L 235.75,1063.97 L 235.90,1064.11 L 235.89,1064.14 L 235.87,1064.19 L 235.84,1064.25 L 235.84,1064.26 L 235.84,1064.27 L 235.84,1064.29 L 235.83,1064.32 L 235.83,1064.33 L 235.85,1064.35 L 235.85,1064.36 L 235.86,1064.36 L 235.87,1064.37 L 235.94,1064.41 L 235.95,1064.41 L 235.96,1064.42 L 235.97,1064.43 L 235.97,1064.44 L 235.98,1064.45 L 235.99,1064.44 L 236.03,1064.48 L 236.06,1064.50 L 236.08,1064.52 L 236.09,1064.54 L 236.10,1064.55 L 236.11,1064.55 L 236.11,1064.55 L 236.12,1064.56 L 236.16,1064.58 L 236.17,1064.59 L 236.18,1064.59 L 236.20,1064.60 L 236.29,1064.62 L 236.32,1064.62 L 236.36,1064.62 L 236.40,1064.62 L 236.42,1064.66 L 236.47,1064.81 L 236.50,1064.88 L 236.51,1064.90 L 236.58,1064.88 L 236.61,1064.96 L 236.67,1064.93 L 236.67,1064.91 L 236.69,1064.91 L 236.70,1064.89 L 236.71,1064.88 L 236.71,1064.87 L 236.71,1064.86 L 236.70,1064.85 L 236.70,1064.83 L 236.68,1064.78 L 236.70,1064.77 L 236.69,1064.76 L 236.68,1064.74 L 236.70,1064.72 L 236.76,1064.60 L 236.84,1064.45 L 236.85,1064.46 L 236.85,1064.47 L 236.86,1064.49 L 236.87,1064.48 L 236.87,1064.48 L 236.87,1064.48 L 236.88,1064.48 L 236.88,1064.48 L 236.89,1064.48 L 236.90,1064.48 L 236.91,1064.49 L 236.94,1064.50 L 236.95,1064.50 L 236.96,1064.50 L 236.96,1064.50 L 236.97,1064.50 L 236.98,1064.49 L 237.00,1064.47 L 237.00,1064.47 L 237.01,1064.46 L 237.02,1064.45 L 237.02,1064.44 L 237.05,1064.33 L 237.05,1064.32 L 237.06,1064.31 L 237.07,1064.30 L 237.08,1064.30 L 237.09,1064.29 L 237.10,1064.29 L 237.11,1064.29 L 237.16,1064.29 L 237.18,1064.29 L 237.19,1064.29 L 237.20,1064.29 L 237.22,1064.28 L 237.25,1064.27 L 237.29,1064.26 L 237.30,1064.25 L 237.32,1064.25 L 237.34,1064.25 L 237.35,1064.25 L 237.37,1064.26 L 237.38,1064.26 L 237.39,1064.27 L 237.40,1064.28 L 237.42,1064.30 L 237.42,1064.30 L 237.43,1064.30 L 237.44,1064.30 L 237.45,1064.30 L 237.47,1064.30 L 237.48,1064.30 L 237.47,1064.31 L 237.47,1064.32 L 237.46,1064.32 L 237.46,1064.33 L 237.47,1064.34 L 237.47,1064.36 L 237.47,1064.37 L 237.47,1064.37 L 237.48,1064.39 L 237.48,1064.39 L 237.48,1064.40 L 237.48,1064.41 L 237.48,1064.42 L 237.48,1064.43 L 237.48,1064.44 L 237.51,1064.45 L 237.52,1064.43 L 237.56,1064.44 L 237.53,1064.58 L 237.51,1064.68 L 237.69,1064.73 L 237.72,1064.74 L 237.89,1064.79 L 237.92,1064.81 L 237.90,1064.89 L 238.04,1064.94 L 238.01,1065.03 L 238.04,1065.04 L 238.03,1065.06 L 238.06,1065.12 L 238.06,1065.13 L 238.06,1065.13 L 238.04,1065.18 L 238.05,1065.18 L 238.04,1065.20 L 238.04,1065.20 L 238.04,1065.22 L 238.03,1065.22 L 238.04,1065.24 L 238.02,1065.24 L 238.00,1065.25 L 237.97,1065.30 L 237.86,1065.47 L 237.81,1065.54 L 237.82,1065.54 L 237.90,1065.54 L 237.91,1065.60 L 237.92,1065.61 L 237.93,1065.62 L 237.94,1065.63 L 237.95,1065.63 L 237.97,1065.64 L 237.99,1065.64 L 238.03,1065.64 L 238.05,1065.65 L 238.08,1065.67 L 238.11,1065.68 L 238.15,1065.69 L 238.16,1065.69 L 238.19,1065.69 L 238.21,1065.69 L 238.21,1065.69 L 238.22,1065.68 L 238.22,1065.67 L 238.25,1065.65 L 238.26,1065.65 L 238.28,1065.64 L 238.28,1065.63 L 238.30,1065.62 L 238.32,1065.61 L 238.34,1065.61 L 238.38,1065.60 L 238.38,1065.61 L 238.41,1065.62 L 238.42,1065.63 L 238.44,1065.62 L 238.47,1065.67 L 238.50,1065.73 L 238.52,1065.75 L 238.53,1065.75 L 238.54,1065.75 L 238.55,1065.76 L 238.56,1065.76 L 238.56,1065.77 L 238.57,1065.77 L 238.58,1065.78 L 238.57,1065.79 L 238.57,1065.80 L 238.57,1065.80 L 238.56,1065.83 L 238.56,1065.86 L 238.56,1065.90 L 238.56,1066.05 L 238.71,1066.01 L 238.78,1066.14 L 238.84,1066.10 L 238.86,1066.14 L 238.87,1066.14 L 238.88,1066.13 L 238.88,1066.13 L 238.89,1066.13 L 238.91,1066.13 L 238.91,1066.13 L 238.93,1066.13 L 238.96,1066.12 L 239.00,1066.12 L 239.00,1066.11 L 239.01,1066.10 L 239.01,1066.09 L 239.02,1066.09 L 239.02,1066.09 L 239.03,1066.09 L 239.03,1066.09 L 239.03,1066.07 L 239.08,1066.06 L 239.13,1066.05 L 239.18,1066.05 L 239.18,1066.04 L 239.21,1066.02 L 239.26,1066.00 L 239.27,1066.00 L 239.31,1065.99 L 239.36,1065.97 L 239.38,1065.96 L 239.41,1065.96 L 239.45,1065.95 L 239.49,1065.95 L 239.50,1065.97 L 239.52,1065.95 L 239.57,1066.03 L 239.58,1066.02 L 239.59,1066.02 L 239.62,1065.99 L 239.60,1065.96 L 239.70,1065.93 L 239.71,1065.92 L 239.72,1065.94 L 239.76,1065.92 L 239.84,1065.87 L 239.87,1065.85 L 239.88,1065.86 L 239.95,1065.98 L 240.07,1066.15 L 240.09,1066.18 L 240.11,1066.20 L 240.11,1066.21 L 240.11,1066.21 L 240.11,1066.22 L 240.11,1066.22 L 240.11,1066.23 L 240.13,1066.24 L 240.17,1066.26 L 240.20,1066.27 L 240.21,1066.27 L 240.23,1066.28 L 240.25,1066.28 L 240.25,1066.28 L 240.26,1066.28 L 240.29,1066.26 L 240.30,1066.26 L 240.32,1066.25 L 240.36,1066.23 L 240.38,1066.22 L 240.40,1066.22 L 240.45,1066.32 L 240.52,1066.48 L 240.56,1066.56 L 240.61,1066.55 L 240.71,1066.53 L 240.72,1066.53 L 240.85,1066.50 L 240.91,1066.49 L 240.93,1066.49 L 240.97,1066.49 L 241.00,1066.49 L 241.06,1066.49 L 241.07,1066.49 L 241.07,1066.49 L 241.07,1066.50 L 241.08,1066.50 L 241.10,1066.51 L 241.11,1066.52 L 241.12,1066.52 L 241.13,1066.52 L 241.18,1066.52 L 241.19,1066.52 L 241.20,1066.52 L 241.20,1066.52 L 241.21,1066.52 L 241.22,1066.52 L 241.23,1066.53 L 241.24,1066.54 L 241.25,1066.54 L 241.26,1066.54 L 241.27,1066.54 L 241.27,1066.55 L 241.30,1066.56 L 241.32,1066.57 L 241.33,1066.57 L 241.34,1066.57 L 241.37,1066.60 L 241.38,1066.60 L 241.39,1066.60 L 241.41,1066.60 L 241.41,1066.60 L 241.43,1066.61 L 241.45,1066.61 L 241.47,1066.62 L 241.47,1066.62 L 241.48,1066.62 L 241.49,1066.62 L 241.50,1066.62 L 241.51,1066.62 L 241.54,1066.62 L 241.55,1066.62 L 241.59,1066.62 L 241.60,1066.61 L 241.61,1066.61 L 241.62,1066.61 L 241.64,1066.60 L 241.65,1066.60 L 241.66,1066.60 L 241.67,1066.60 L 241.69,1066.60 L 241.69,1066.60 L 241.70,1066.60 L 241.70,1066.60 L 241.70,1066.59 L 241.70,1066.59 L 241.72,1066.50 L 241.75,1066.39 L 241.77,1066.26 L 241.78,1066.27 L 241.79,1066.27 L 241.80,1066.27 L 241.80,1066.23 L 241.79,1066.19 L 241.80,1066.09 L 241.80,1065.98 L 241.80,1065.84 L 241.80,1065.82 L 241.81,1065.77 L 241.82,1065.76 L 241.84,1065.64 L 241.80,1065.61 L 241.72,1065.55 L 241.68,1065.53 L 241.73,1065.52 L 241.77,1065.51 L 241.89,1065.48 L 241.91,1065.48 L 241.93,1065.47 L 241.95,1065.47 L 241.95,1065.49 L 241.95,1065.50 L 241.95,1065.52 L 241.95,1065.54 L 241.96,1065.55 L 241.97,1065.57 L 241.98,1065.58 L 242.00,1065.61 L 242.03,1065.64 L 242.04,1065.66 L 242.06,1065.67 L 242.06,1065.68 L 242.07,1065.68 L 242.07,1065.68 L 242.08,1065.68 L 242.09,1065.68 L 242.10,1065.67 L 242.13,1065.65 L 242.13,1065.65 L 242.14,1065.65 L 242.14,1065.65 L 242.15,1065.65 L 242.16,1065.65 L 242.21,1065.68 L 242.21,1065.68 L 242.22,1065.69 L 242.23,1065.69 L 242.23,1065.70 L 242.23,1065.71 L 242.24,1065.73 L 242.24,1065.75 L 242.25,1065.78 L 242.26,1065.79 L 242.26,1065.80 L 242.27,1065.81 L 242.28,1065.82 L 242.28,1065.82 L 242.29,1065.83 L 242.29,1065.84 L 242.30,1065.84 L 242.31,1065.85 L 242.36,1065.83 L 242.43,1065.83 L 242.54,1065.83 L 242.54,1065.82 L 242.55,1065.81 L 242.55,1065.79 L 242.56,1065.77 L 242.64,1065.83 L 242.73,1065.88 L 242.76,1065.79 L 242.78,1065.72 L 242.84,1065.73 L 242.89,1065.74 L 242.92,1065.74 L 242.92,1065.72 L 242.92,1065.71 L 242.92,1065.70 L 242.92,1065.67 L 242.92,1065.66 L 242.92,1065.66 L 242.92,1065.66 L 242.92,1065.65 L 242.94,1065.64 L 242.95,1065.62 L 242.96,1065.62 L 242.97,1065.60 L 242.97,1065.60 L 242.98,1065.59 L 242.98,1065.58 L 242.99,1065.58 L 242.99,1065.57 L 242.99,1065.57 L 243.02,1065.58 L 243.05,1065.60 L 243.06,1065.60 L 243.10,1065.62 L 243.11,1065.63 L 243.12,1065.64 L 243.13,1065.64 L 243.13,1065.64 L 243.13,1065.64 L 243.12,1065.65 L 243.12,1065.65 L 243.13,1065.66 L 243.13,1065.66 L 243.13,1065.66 L 243.14,1065.66 L 243.15,1065.66 L 243.15,1065.66 L 243.15,1065.66 L 243.16,1065.66 L 243.16,1065.66 L 243.17,1065.67 L 243.17,1065.67 L 243.17,1065.67 L 243.18,1065.67 L 243.19,1065.67 L 243.20,1065.67 L 243.20,1065.67 L 243.21,1065.67 L 243.21,1065.67 L 243.22,1065.67 L 243.22,1065.67 L 243.23,1065.67 L 243.24,1065.66 L 243.25,1065.65 L 243.27,1065.63 L 243.27,1065.62 L 243.27,1065.62 L 243.28,1065.61 L 243.28,1065.60 L 243.28,1065.60 L 243.29,1065.59 L 243.29,1065.59 L 243.30,1065.59 L 243.30,1065.59 L 243.31,1065.59 L 243.32,1065.59 L 243.33,1065.59 L 243.33,1065.59 L 243.34,1065.59 L 243.35,1065.58 L 243.35,1065.58 L 243.36,1065.58 L 243.37,1065.58 L 243.37,1065.58 L 243.38,1065.59 L 243.39,1065.59 L 243.40,1065.60 L 243.41,1065.61 L 243.43,1065.61 L 243.44,1065.62 L 243.45,1065.62 L 243.46,1065.62 L 243.48,1065.61 L 243.50,1065.61 L 243.51,1065.60 L 243.52,1065.59 L 243.52,1065.57 L 243.51,1065.55 L 243.51,1065.54 L 243.51,1065.53 L 243.51,1065.53 L 243.52,1065.48 L 243.52,1065.46 L 243.53,1065.43 L 243.53,1065.42 L 243.53,1065.41 L 243.53,1065.39 L 243.53,1065.35 L 243.52,1065.32 L 243.52,1065.32 L 243.52,1065.31 L 243.52,1065.31 L 243.51,1065.30 L 243.50,1065.28 L 243.49,1065.28 L 243.49,1065.27 L 243.49,1065.26 L 243.49,1065.23 L 243.50,1065.23 L 243.51,1065.23 L 243.55,1065.23 L 243.56,1065.23 L 243.57,1065.23 L 243.57,1065.23 L 243.59,1065.22 L 243.61,1065.21 L 243.62,1065.21 L 243.63,1065.21 L 243.64,1065.22 L 243.64,1065.22 L 243.65,1065.23 L 243.65,1065.24 L 243.66,1065.28 L 243.66,1065.30 L 243.67,1065.31 L 243.68,1065.31 L 243.69,1065.32 L 243.70,1065.32 L 243.72,1065.32 L 243.73,1065.32 L 243.75,1065.32 L 243.75,1065.31 L 243.76,1065.30 L 243.77,1065.29 L 243.78,1065.28 L 243.78,1065.27 L 243.79,1065.26 L 243.80,1065.23 L 243.81,1065.20 L 243.81,1065.19 L 243.82,1065.18 L 243.82,1065.18 L 243.86,1065.15 L 243.87,1065.14 L 243.88,1065.13 L 243.89,1065.13 L 243.90,1065.12 L 243.91,1065.12 L 243.91,1065.12 L 243.93,1065.13 L 243.94,1065.13 L 243.94,1065.14 L 243.95,1065.14 L 243.97,1065.14 L 243.98,1065.14 L 244.00,1065.13 L 244.01,1065.13 L 244.02,1065.12 L 244.03,1065.12 L 244.03,1065.11 L 244.03,1065.10 L 244.03,1065.09 L 244.02,1065.08 L 244.01,1065.08 L 244.01,1065.07 L 243.99,1065.07 L 243.98,1065.06 L 243.98,1065.06 L 243.97,1065.05 L 243.97,1065.05 L 243.97,1065.03 L 243.97,1065.00 L 243.97,1065.00 L 243.97,1064.99 L 243.97,1064.98 L 243.97,1064.98 L 243.98,1064.98 L 243.98,1064.97 L 243.99,1064.97 L 244.01,1064.97 L 244.02,1064.97 L 244.03,1064.97 L 244.04,1064.97 L 244.04,1064.97 L 244.06,1064.95 L 244.07,1064.94 L 244.08,1064.93 L 244.09,1064.92 L 244.10,1064.92 L 244.11,1064.91 L 244.12,1064.91 L 244.13,1064.92 L 244.14,1064.92 L 244.15,1064.93 L 244.16,1064.93 L 244.17,1064.94 L 244.17,1064.94 L 244.19,1064.94 L 244.20,1064.95 L 244.22,1064.95 L 244.23,1064.95 L 244.24,1064.95 L 244.24,1064.95 L 244.25,1064.95 L 244.25,1064.96 L 244.26,1064.96 L 244.28,1064.96 L 244.29,1064.96 L 244.30,1064.96 L 244.31,1064.95 L 244.31,1064.95 L 244.32,1064.95 L 244.32,1064.94 L 244.32,1064.93 L 244.33,1064.90 L 244.34,1064.87 L 244.34,1064.86 L 244.34,1064.86 L 244.34,1064.86 L 244.34,1064.85 L 244.32,1064.83 L 244.30,1064.79 L 244.30,1064.78 L 244.29,1064.78 L 244.29,1064.78 L 244.27,1064.76 L 244.26,1064.75 L 244.26,1064.75 L 244.26,1064.74 L 244.26,1064.74 L 244.26,1064.73 L 244.26,1064.73 L 244.26,1064.72 L 244.26,1064.72 L 244.27,1064.71 L 244.28,1064.70 L 244.29,1064.70 L 244.30,1064.69 L 244.31,1064.69 L 244.31,1064.69 L 244.33,1064.69 L 244.33,1064.71 L 244.33,1064.74 L 244.33,1064.74 L 244.33,1064.75 L 244.34,1064.76 L 244.34,1064.76 L 244.35,1064.77 L 244.36,1064.77 L 244.37,1064.78 L 244.37,1064.78 L 244.38,1064.79 L 244.40,1064.81 L 244.41,1064.82 L 244.41,1064.83 L 244.42,1064.83 L 244.42,1064.83 L 244.43,1064.83 L 244.43,1064.83 L 244.44,1064.83 L 244.47,1064.82 L 244.48,1064.81 L 244.50,1064.80 L 244.50,1064.79 L 244.51,1064.79 L 244.51,1064.78 L 244.51,1064.78 L 244.51,1064.77 L 244.51,1064.76 L 244.51,1064.74 L 244.51,1064.74 L 244.52,1064.74 L 244.52,1064.73 L 244.52,1064.73 L 244.53,1064.72 L 244.55,1064.70 L 244.56,1064.70 L 244.56,1064.70 L 244.57,1064.70 L 244.57,1064.70 L 244.58,1064.70 L 244.58,1064.70 L 244.59,1064.71 L 244.59,1064.72 L 244.59,1064.73 L 244.60,1064.75 L 244.61,1064.76 L 244.61,1064.77 L 244.62,1064.77 L 244.63,1064.78 L 244.64,1064.78 L 244.65,1064.77 L 244.66,1064.77 L 244.66,1064.77 L 244.67,1064.77 L 244.68,1064.76 L 244.68,1064.75 L 244.69,1064.74 L 244.70,1064.74 L 244.70,1064.73 L 244.71,1064.73 L 244.72,1064.72 L 244.73,1064.72 L 244.75,1064.72 L 244.78,1064.69 L 244.79,1064.69 L 244.79,1064.68 L 244.80,1064.68 L 244.84,1064.67 L 244.84,1064.67 L 244.85,1064.66 L 244.85,1064.66 L 244.86,1064.65 L 244.86,1064.64 L 244.86,1064.63 L 244.86,1064.63 L 244.85,1064.62 L 244.84,1064.59 L 244.84,1064.58 L 244.84,1064.57 L 244.83,1064.57 L 244.83,1064.56 L 244.84,1064.55 L 244.84,1064.54 L 244.84,1064.54 L 244.85,1064.54 L 244.85,1064.53 L 244.86,1064.53 L 244.87,1064.53 L 244.89,1064.53 L 244.89,1064.53 L 244.90,1064.53 L 244.90,1064.54 L 244.90,1064.54 L 244.91,1064.55 L 244.91,1064.56 L 244.91,1064.56 L 244.92,1064.57 L 244.92,1064.60 L 244.92,1064.61 L 244.92,1064.61 L 244.93,1064.62 L 244.93,1064.63 L 244.94,1064.64 L 244.94,1064.64 L 244.94,1064.65 L 244.94,1064.66 L 244.96,1064.68 L 244.98,1064.69 L 245.01,1064.71 L 245.06,1064.74 L 245.08,1064.75 L 245.09,1064.76 L 245.10,1064.76 L 245.12,1064.76 L 245.13,1064.76 L 245.14,1064.75 L 245.15,1064.74 L 245.16,1064.73 L 245.17,1064.71 L 245.18,1064.69 L 245.19,1064.70 L 245.19,1064.71 L 245.20,1064.73 L 245.21,1064.74 L 245.21,1064.74 L 245.23,1064.76 L 245.26,1064.78 L 245.30,1064.81 L 245.32,1064.79 L 245.33,1064.78 L 245.37,1064.75 L 245.46,1064.67 L 245.47,1064.68 L 245.49,1064.70 L 245.51,1064.75 L 245.54,1064.79 L 245.56,1064.83 L 245.56,1064.83 L 245.57,1064.83 L 245.57,1064.83 L 245.58,1064.83 L 245.58,1064.83 L 245.58,1064.84 L 245.64,1064.93 L 245.66,1064.96 L 245.68,1064.99 L 245.72,1065.04 L 245.79,1065.01 L 245.87,1064.97 L 245.93,1064.94 L 246.01,1064.90 L 246.02,1064.91 L 246.03,1064.91 L 246.04,1064.92 L 246.04,1064.93 L 246.04,1064.95 L 246.05,1064.95 L 246.07,1064.97 L 246.07,1064.98 L 246.08,1064.99 L 246.11,1065.03 L 246.12,1065.05 L 246.15,1065.07 L 246.16,1065.09 L 246.17,1065.09 L 246.18,1065.10 L 246.19,1065.10 L 246.22,1065.13 L 246.22,1065.14 L 246.23,1065.14 L 246.25,1065.15 L 246.26,1065.15 L 246.26,1065.16 L 246.26,1065.16 L 246.27,1065.21 L 246.27,1065.22 L 246.28,1065.24 L 246.28,1065.25 L 246.29,1065.28 L 246.29,1065.29 L 246.24,1065.30 L 246.23,1065.29 L 246.22,1065.30 L 246.21,1065.31 L 246.20,1065.31 L 246.16,1065.32 L 246.15,1065.32 L 246.14,1065.32 L 246.14,1065.32 L 246.13,1065.34 L 246.11,1065.36 L 246.08,1065.38 L 245.99,1065.47 L 245.92,1065.54 L 245.90,1065.56 L 245.81,1065.65 L 245.77,1065.69 L 245.76,1065.71 L 245.79,1065.72 L 245.81,1065.72 L 245.83,1065.72 L 245.83,1065.72 L 245.84,1065.72 L 245.84,1065.72 L 245.84,1065.73 L 245.85,1065.73 L 245.85,1065.74 L 245.85,1065.75 L 245.85,1065.76 L 245.84,1065.78 L 245.84,1065.79 L 245.84,1065.81 L 245.83,1065.83 L 245.82,1065.85 L 245.81,1065.86 L 245.81,1065.86 L 245.81,1065.87 L 245.82,1065.87 L 245.83,1065.87 L 245.84,1065.88 L 245.86,1065.88 L 245.87,1065.88 L 245.89,1065.88 L 245.90,1065.88 L 245.91,1065.89 L 245.91,1065.89 L 245.91,1065.90 L 245.91,1065.90 L 245.91,1065.91 L 245.91,1065.92 L 245.91,1065.93 L 245.91,1065.93 L 245.92,1065.94 L 245.93,1065.95 L 245.93,1065.95 L 245.95,1065.96 L 245.97,1065.97 L 245.97,1065.98 L 245.98,1065.98 L 245.98,1065.98 L 245.99,1065.98 L 245.99,1065.99 L 246.00,1066.00 L 246.00,1066.01 L 246.02,1066.02 L 246.03,1066.04 L 246.04,1066.04 L 246.05,1066.06 L 246.07,1066.07 L 246.07,1066.08 L 246.07,1066.08 L 246.07,1066.09 L 246.07,1066.10 L 246.07,1066.10 L 246.07,1066.11 L 246.08,1066.11 L 246.09,1066.12 L 246.09,1066.12 L 246.10,1066.13 L 246.11,1066.13 L 246.12,1066.13 L 246.13,1066.13 L 246.16,1066.13 L 246.17,1066.13 L 246.17,1066.14 L 246.18,1066.14 L 246.18,1066.15 L 246.18,1066.15 L 246.18,1066.16 L 246.18,1066.16 L 246.18,1066.19 L 246.18,1066.19 L 246.18,1066.20 L 246.18,1066.20 L 246.18,1066.21 L 246.18,1066.21 L 246.19,1066.23 L 246.20,1066.24 L 246.21,1066.26 L 246.22,1066.27 L 246.22,1066.28 L 246.22,1066.29 L 246.24,1066.31 L 246.27,1066.31 L 246.29,1066.30 L 246.31,1066.30 L 246.32,1066.29 L 246.34,1066.29 L 246.36,1066.28 L 246.37,1066.27 L 246.43,1066.24 L 246.45,1066.23 L 246.46,1066.23 L 246.47,1066.23 L 246.49,1066.23 L 246.50,1066.23 L 246.51,1066.24 L 246.52,1066.24 L 246.53,1066.25 L 246.53,1066.26 L 246.54,1066.27 L 246.54,1066.28 L 246.54,1066.29 L 246.54,1066.30 L 246.54,1066.30 L 246.54,1066.31 L 246.53,1066.32 L 246.51,1066.36 L 246.50,1066.38 L 246.50,1066.39 L 246.49,1066.41 L 246.49,1066.42 L 246.49,1066.43 L 246.49,1066.44 L 246.49,1066.44 L 246.50,1066.45 L 246.50,1066.47 L 246.51,1066.48 L 246.52,1066.49 L 246.54,1066.52 L 246.57,1066.55 L 246.62,1066.60 L 246.64,1066.62 L 246.66,1066.63 L 246.68,1066.64 L 246.70,1066.64 L 246.72,1066.64 L 246.74,1066.64 L 246.75,1066.64 L 246.77,1066.63 L 246.79,1066.63 L 246.81,1066.62 L 246.82,1066.62 L 246.83,1066.62 L 246.84,1066.62 L 246.85,1066.63 L 246.86,1066.63 L 246.86,1066.64 L 246.87,1066.65 L 246.88,1066.67 L 246.90,1066.68 L 246.92,1066.72 L 246.93,1066.75 L 246.94,1066.76 L 246.95,1066.77 L 246.95,1066.77 L 246.96,1066.78 L 246.97,1066.78 L 246.99,1066.79 L 247.00,1066.79 L 247.01,1066.79 L 247.02,1066.79 L 247.04,1066.79 L 247.06,1066.78 L 247.08,1066.78 L 247.13,1066.77 L 247.17,1066.76 L 247.24,1066.74 L 247.25,1066.74 L 247.27,1066.73 L 247.28,1066.73 L 247.29,1066.73 L 247.30,1066.72 L 247.34,1066.71 L 247.35,1066.70 L 247.35,1066.70 L 247.36,1066.70 L 247.37,1066.70 L 247.37,1066.70 L 247.38,1066.70 L 247.38,1066.70 L 247.39,1066.70 L 247.40,1066.71 L 247.40,1066.72 L 247.41,1066.73 L 247.42,1066.74 L 247.42,1066.76 L 247.44,1066.81 L 247.45,1066.83 L 247.47,1066.86 L 247.48,1066.88 L 247.50,1066.90 L 247.51,1066.92 L 247.54,1066.94 L 247.56,1066.96 L 247.59,1066.97 L 247.62,1066.99 L 247.64,1066.99 L 247.66,1067.00 L 247.68,1067.01 L 247.71,1067.02 L 247.73,1067.02 L 247.75,1067.02 L 247.79,1067.03 L 247.84,1067.03 L 247.89,1067.04 L 247.92,1067.04 L 247.95,1067.04 L 247.97,1067.04 L 247.98,1067.04 L 247.99,1067.04 L 247.99,1067.04 L 248.00,1067.04 L 248.01,1067.03 L 248.02,1067.03 L 248.04,1067.02 L 248.05,1067.01 L 248.06,1067.00 L 248.06,1066.98 L 248.07,1066.97 L 248.08,1066.95 L 248.08,1066.94 L 248.08,1066.93 L 248.08,1066.91 L 248.08,1066.90 L 248.07,1066.88 L 248.06,1066.87 L 248.06,1066.86 L 248.05,1066.85 L 248.04,1066.84 L 248.03,1066.84 L 248.02,1066.84 L 248.01,1066.84 L 247.98,1066.83 L 247.97,1066.83 L 247.95,1066.83 L 247.94,1066.82 L 247.92,1066.82 L 247.90,1066.81 L 247.88,1066.80 L 247.87,1066.78 L 247.86,1066.77 L 247.84,1066.75 L 247.83,1066.73 L 247.82,1066.70 L 247.82,1066.68 L 247.82,1066.67 L 247.82,1066.65 L 247.83,1066.64 L 247.84,1066.63 L 247.85,1066.62 L 247.86,1066.61 L 247.87,1066.60 L 247.88,1066.60 L 247.90,1066.59 L 247.97,1066.58 L 248.05,1066.57 L 248.07,1066.57 L 248.08,1066.57 L 248.10,1066.56 L 248.11,1066.56 L 248.12,1066.55 L 248.13,1066.54 L 248.14,1066.52 L 248.15,1066.51 L 248.16,1066.50 L 248.17,1066.48 L 248.17,1066.47 L 248.17,1066.45 L 248.18,1066.38 L 248.18,1066.36 L 248.19,1066.31 L 248.20,1066.30 L 248.20,1066.28 L 248.21,1066.27 L 248.22,1066.25 L 248.26,1066.22 L 248.30,1066.18 L 248.31,1066.17 L 248.32,1066.16 L 248.32,1066.15 L 248.32,1066.14 L 248.33,1066.13 L 248.32,1066.12 L 248.32,1066.10 L 248.32,1066.09 L 248.30,1066.05 L 248.28,1066.00 L 248.26,1065.95 L 248.25,1065.92 L 248.24,1065.88 L 248.24,1065.85 L 248.24,1065.83 L 248.23,1065.80 L 248.23,1065.75 L 248.23,1065.72 L 248.23,1065.70 L 248.23,1065.69 L 248.23,1065.67 L 248.24,1065.66 L 248.25,1065.66 L 248.26,1065.65 L 248.28,1065.65 L 248.29,1065.66 L 248.32,1065.67 L 248.37,1065.70 L 248.40,1065.71 L 248.44,1065.73 L 248.47,1065.74 L 248.48,1065.74 L 248.50,1065.74 L 248.51,1065.74 L 248.55,1065.75 L 248.56,1065.75 L 248.57,1065.75 L 248.58,1065.76 L 248.59,1065.76 L 248.59,1065.77 L 248.60,1065.77 L 248.60,1065.78 L 248.61,1065.79 L 248.61,1065.81 L 248.62,1065.83 L 248.63,1065.85 L 248.63,1065.86 L 248.64,1065.87 L 248.65,1065.87 L 248.65,1065.88 L 248.66,1065.88 L 248.67,1065.88 L 248.68,1065.88 L 248.69,1065.88 L 248.70,1065.88 L 248.71,1065.88 L 248.72,1065.87 L 248.85,1065.82 L 248.89,1065.80 L 248.91,1065.79 L 248.94,1065.78 L 248.95,1065.78 L 248.95,1065.77 L 248.96,1065.77 L 248.97,1065.76 L 248.97,1065.75 L 248.98,1065.74 L 248.99,1065.72 L 248.99,1065.71 L 248.99,1065.69 L 249.00,1065.68 L 249.00,1065.66 L 249.01,1065.56 L 249.02,1065.51 L 249.02,1065.49 L 249.05,1065.42 L 249.06,1065.40 L 249.06,1065.39 L 249.06,1065.37 L 249.05,1065.36 L 249.04,1065.35 L 249.03,1065.34 L 249.02,1065.33 L 249.00,1065.33 L 248.99,1065.33 L 248.97,1065.34 L 248.95,1065.35 L 248.93,1065.37 L 248.91,1065.38 L 248.90,1065.39 L 248.88,1065.39 L 248.87,1065.39 L 248.86,1065.39 L 248.84,1065.39 L 248.83,1065.38 L 248.82,1065.38 L 248.81,1065.37 L 248.81,1065.35 L 248.80,1065.33 L 248.80,1065.32 L 248.80,1065.30 L 248.80,1065.30 L 248.81,1065.28 L 248.83,1065.26 L 248.85,1065.24 L 248.86,1065.24 L 248.88,1065.24 L 248.90,1065.24 L 248.92,1065.24 L 248.98,1065.25 L 249.04,1065.26 L 249.07,1065.27 L 249.09,1065.27 L 249.11,1065.27 L 249.12,1065.27 L 249.14,1065.28 L 249.15,1065.27 L 249.16,1065.27 L 249.17,1065.26 L 249.18,1065.26 L 249.19,1065.25 L 249.20,1065.24 L 249.24,1065.19 L 249.25,1065.18 L 249.26,1065.16 L 249.28,1065.14 L 249.29,1065.13 L 249.31,1065.11 L 249.33,1065.09 L 249.35,1065.08 L 249.37,1065.07 L 249.39,1065.06 L 249.41,1065.06 L 249.43,1065.06 L 249.44,1065.05 L 249.46,1065.05 L 249.47,1065.06 L 249.49,1065.07 L 249.50,1065.08 L 249.51,1065.09 L 249.51,1065.11 L 249.51,1065.12 L 249.51,1065.13 L 249.51,1065.15 L 249.49,1065.18 L 249.47,1065.22 L 249.46,1065.25 L 249.45,1065.26 L 249.45,1065.27 L 249.45,1065.28 L 249.45,1065.29 L 249.45,1065.30 L 249.45,1065.31 L 249.45,1065.32 L 249.46,1065.34 L 249.46,1065.35 L 249.47,1065.36 L 249.48,1065.36 L 249.49,1065.37 L 249.50,1065.37 L 249.52,1065.37 L 249.53,1065.37 L 249.58,1065.36 L 249.62,1065.35 L 249.64,1065.35 L 249.65,1065.35 L 249.66,1065.35 L 249.67,1065.35 L 249.68,1065.35 L 249.68,1065.35 L 249.70,1065.36 L 249.71,1065.38 L 249.72,1065.39 L 249.73,1065.41 L 249.76,1065.47 L 249.79,1065.53 L 249.80,1065.58 L 249.81,1065.60 L 249.81,1065.61 L 249.81,1065.63 L 249.81,1065.64 L 249.81,1065.66 L 249.81,1065.68 L 249.79,1065.74 L 249.79,1065.77 L 249.78,1065.81 L 249.77,1065.82 L 249.77,1065.84 L 249.77,1065.86 L 249.78,1065.88 L 249.78,1065.89 L 249.78,1065.90 L 249.79,1065.92 L 249.81,1065.95 L 249.82,1065.96 L 249.84,1065.98 L 249.85,1065.99 L 249.86,1066.00 L 249.87,1066.00 L 249.88,1066.01 L 249.89,1066.01 L 249.90,1066.01 L 249.91,1066.01 L 249.93,1066.01 L 249.97,1065.99 L 249.99,1065.98 L 250.00,1065.98 L 250.02,1065.98 L 250.03,1065.98 L 250.04,1065.98 L 250.05,1065.98 L 250.06,1065.99 L 250.06,1066.00 L 250.06,1066.01 L 250.07,1066.02 L 250.07,1066.03 L 250.07,1066.04 L 250.07,1066.05 L 250.06,1066.06 L 250.06,1066.08 L 250.05,1066.10 L 250.02,1066.14 L 250.02,1066.16 L 250.02,1066.17 L 250.02,1066.18 L 250.02,1066.19 L 250.02,1066.20 L 250.03,1066.21 L 250.04,1066.21 L 250.04,1066.22 L 250.05,1066.22 L 250.06,1066.22 L 250.08,1066.22 L 250.09,1066.22 L 250.12,1066.21 L 250.14,1066.20 L 250.16,1066.20 L 250.18,1066.19 L 250.19,1066.19 L 250.21,1066.19 L 250.22,1066.19 L 250.23,1066.20 L 250.25,1066.21 L 250.26,1066.22 L 250.28,1066.24 L 250.29,1066.25 L 250.29,1066.26 L 250.30,1066.28 L 250.30,1066.29 L 250.30,1066.31 L 250.30,1066.32 L 250.29,1066.33 L 250.29,1066.34 L 250.28,1066.35 L 250.26,1066.36 L 250.24,1066.37 L 250.21,1066.37 L 250.15,1066.38 L 250.13,1066.38 L 250.11,1066.38 L 250.10,1066.39 L 250.08,1066.40 L 250.07,1066.40 L 250.06,1066.41 L 250.06,1066.42 L 250.05,1066.43 L 250.05,1066.45 L 250.05,1066.46 L 250.05,1066.47 L 250.05,1066.49 L 250.06,1066.51 L 250.06,1066.53 L 250.08,1066.60 L 250.10,1066.68 L 250.10,1066.69 L 250.11,1066.70 L 250.12,1066.72 L 250.12,1066.74 L 250.13,1066.75 L 250.14,1066.76 L 250.16,1066.78 L 250.18,1066.79 L 250.19,1066.80 L 250.20,1066.81 L 250.22,1066.81 L 250.25,1066.83 L 250.26,1066.84 L 250.27,1066.84 L 250.28,1066.86 L 250.29,1066.87 L 250.30,1066.89 L 250.30,1066.90 L 250.30,1066.92 L 250.31,1066.95 L 250.30,1066.98 L 250.30,1067.01 L 250.28,1067.09 L 250.27,1067.12 L 250.27,1067.14 L 250.27,1067.16 L 250.27,1067.17 L 250.27,1067.19 L 250.27,1067.20 L 250.28,1067.22 L 250.28,1067.23 L 250.29,1067.25 L 250.29,1067.26 L 250.30,1067.27 L 250.31,1067.28 L 250.33,1067.29 L 250.35,1067.30 L 250.37,1067.30 L 250.42,1067.31 L 250.43,1067.32 L 250.45,1067.32 L 250.46,1067.33 L 250.47,1067.34 L 250.48,1067.35 L 250.48,1067.36 L 250.48,1067.37 L 250.48,1067.38 L 250.48,1067.39 L 250.48,1067.40 L 250.48,1067.42 L 250.47,1067.43 L 250.47,1067.45 L 250.45,1067.50 L 250.44,1067.51 L 250.44,1067.52 L 250.42,1067.56 L 250.40,1067.61 L 250.39,1067.63 L 250.37,1067.62 L 250.34,1067.60 L 250.31,1067.59 L 250.28,1067.59 L 250.25,1067.59 L 250.21,1067.59 L 250.18,1067.60 L 250.15,1067.62 L 250.12,1067.65 L 250.09,1067.69 L 250.05,1067.74 L 250.02,1067.78 L 249.99,1067.82 L 249.95,1067.85 L 249.91,1067.87 L 249.87,1067.90 L 249.83,1067.92 L 249.78,1067.93 L 249.74,1067.95 L 249.70,1067.96 L 249.63,1067.98 L 249.59,1067.99 L 249.55,1068.00 L 249.48,1068.02 L 249.38,1068.06 L 249.32,1068.08 L 249.29,1068.09 L 249.27,1068.10 L 249.26,1068.10 L 249.24,1068.11 L 249.20,1068.13 L 249.13,1068.16 L 249.07,1068.19 L 248.99,1068.21 L 248.89,1068.24 L 248.81,1068.26 L 248.77,1068.28 L 248.74,1068.29 L 248.66,1068.32 L 248.60,1068.35 L 248.56,1068.37 L 248.50,1068.40 L 248.44,1068.43 L 248.42,1068.44 L 248.39,1068.45 L 248.34,1068.47 L 248.30,1068.49 L 248.26,1068.51 L 248.16,1068.57 L 248.07,1068.62 L 247.98,1068.67 L 247.93,1068.70 L 247.88,1068.73 L 247.78,1068.79 L 247.74,1068.81 L 247.76,1068.86 L 247.77,1068.89 L 247.82,1069.05 L 247.85,1069.14 L 247.88,1069.21 L 247.89,1069.27 L 247.90,1069.32 L 247.93,1069.47 L 247.94,1069.53 L 248.00,1069.79 L 248.04,1070.00 L 248.07,1070.13 L 248.11,1070.32 L 248.13,1070.42 L 248.16,1070.56 L 248.18,1070.68 L 248.19,1070.74 L 248.21,1070.85 L 248.22,1070.88 L 248.23,1070.99 L 248.24,1071.04 L 248.25,1071.08 L 248.29,1071.23 L 248.31,1071.34 L 248.32,1071.39 L 248.35,1071.53 L 248.39,1071.72 L 248.42,1071.90 L 248.46,1072.07 L 248.48,1072.16 L 248.49,1072.18 L 248.51,1072.35 L 248.52,1072.41 L 248.51,1072.42 L 248.45,1072.45 L 248.39,1072.48 L 248.40,1072.52 L 248.36,1072.54 L 248.26,1072.59 L 248.24,1072.60 L 248.22,1072.61 L 248.21,1072.62 L 248.19,1072.62 L 248.15,1072.64 L 248.14,1072.64 L 248.16,1072.71 L 248.18,1072.79 L 248.21,1072.89 L 248.27,1073.08 L 248.29,1073.15 L 248.30,1073.21 L 248.31,1073.24 L 248.32,1073.25 L 248.33,1073.29 L 248.37,1073.45 L 248.41,1073.56 L 248.43,1073.64 L 248.45,1073.73 L 248.47,1073.79 L 248.51,1073.93 L 248.53,1074.00 L 248.56,1074.11 L 248.58,1074.19 L 248.59,1074.22 L 252.71,1085.19 L 257.08,1105.32 Z" fill="#E5E7EB" stroke="#374151" stroke-width="1" fill-rule="evenodd"/>
</svg>