<?xml version="1.0" encoding="UTF-8"?>
<!DOCTYPE svg PUBLIC "-//W3C//DTD SVG 1.1//EN" "http://www.w3.org/Graphics/SVG/1.1/DTD/svg11.dtd">
<!-- Creator: CorelDRAW 2021 (64-Bit) -->
<svg xmlns="http://www.w3.org/2000/svg" xml:space="preserve" width="0.628413in" height="0.557122in" version="1.1" shape-rendering="geometricPrecision" text-rendering="geometricPrecision" image-rendering="optimizeQuality" fill-rule="evenodd" clip-rule="evenodd"
viewBox="0 0 403.18 357.44"
 xmlns:xlink="http://www.w3.org/1999/xlink"
 xmlns:xodm="http://www.corel.com/coreldraw/odm/2003">
 <g id="Layer_x0020_1">
  <metadata id="CorelCorpID_0Corel-Layer"/>
  <path fill="none" stroke="#336666" stroke-width="1.92" stroke-miterlimit="2.61313" d="M255 6.78c-9.28,0 -10.77,-0.08 -13.99,0.68 -5.62,1.33 -9.06,4.02 -37.85,5.28 -8.81,0.39 -15.21,0.75 -19.89,1.43 -3.23,0.46 -7.45,-0.71 -9.3,0.17 -2.17,1.03 -1.79,4.25 -2.77,6.19 -2.4,4.74 -2.45,12.75 -5.67,26.64 -7.99,3.86 -5.52,1.64 -12.17,3.96 -0.56,-0.95 -3.34,-0.41 -4.79,0.14 -2.21,0.84 -4.14,3.24 -5.78,3.96 -19.12,8.42 -3.53,9.12 -28.93,3.82 -4.24,-0.89 -5.13,-2.26 -7.48,-2.63 -2.39,-0.38 -5.05,-2.41 -6.33,-2.42 -2.13,-0.02 -6.78,2.98 -9.07,3.39 -1.91,0.34 -2.39,0.75 -6.97,0.96 -26.71,1.26 -4.02,2.7 -22.83,-11.18 -6.15,74.61 -51.48,39.05 -60.21,59.58l0 12.13c0.99,4.18 2.81,9.29 5.6,15.57 0.61,1.36 2.66,5.22 3.88,8.22 13.36,33.18 0.78,2.52 26.21,42.31 1.85,2.9 8.31,10.62 11.25,12.92 18.72,14.63 15.25,-0.88 33.29,19.02 28.49,31.41 4.79,-11.31 32.28,32.89l7.15 8.96c18.72,20.29 11.74,20.28 27.2,23.1 44.97,8.19 49.98,2.03 45.83,52.15 21.16,11.27 31.36,19.93 36.78,22.44l6.38 0c2.08,-2.73 5.09,-6.57 15.05,-16.65 0.58,-0.59 -0.2,-4.6 0.43,-5.14 19.88,-16.84 4.69,7.7 19.55,-23 15.61,-32.26 15.07,-14.49 11.32,-35.68 -0.12,-0.7 -2.51,-1.84 -2.6,-2.59 -0.56,-4.92 3.64,-6.56 3.89,-17.71 69.46,0 26.22,-0.76 77.82,-14.58 20.3,-5.43 24.46,-5.92 39.68,-16.17l-9.06 -18.71c-0.14,-0.37 -3.29,-8.66 -3.33,-8.76 -14.91,-32.62 -15.71,12.59 -66.62,-82.44 -13.59,-25.37 -6.33,-24.96 -27.52,-45.03 -9.53,-9.03 -12.12,-10.81 -13.45,-26.87l10.57 -1.48c9.33,-3.83 10.66,-7.95 13.51,-18.72l-40.32 -16.41c-12.31,-4.49 -1.55,-10.79 -10.73,0.24z"/>
 </g>
</svg>
