<svg xmlns="http://www.w3.org/2000/svg" viewBox="0 0 800 1400">
  <path d="M 237.91,370.65 L 237.87,370.63 L 237.80,370.61 L 237.76,370.60 L 237.58,370.56 L 237.52,370.55 L 237.49,370.54 L 237.47,370.53 L 237.44,370.50 L 237.39,370.44 L 237.37,370.42 L 237.35,370.42 L 237.33,370.42 L 237.30,370.44 L 237.22,370.48 L 237.12,370.53 L 237.07,370.58 L 237.04,370.60 L 237.02,370.63 L 237.01,370.66 L 236.99,370.69 L 236.98,370.70 L 236.96,370.72 L 236.94,370.73 L 236.90,370.72 L 236.86,370.70 L 236.82,370.68 L 236.78,370.66 L 236.76,370.64 L 236.75,370.62 L 236.72,370.59 L 236.70,370.57 L 236.68,370.56 L 236.67,370.56 L 236.65,370.56 L 236.62,370.59 L 236.60,370.62 L 236.59,370.62 L 236.58,370.62 L 236.60,370.72 L 236.64,370.71 L 236.65,370.71 L 236.65,370.72 L 236.66,370.73 L 236.67,370.73 L 236.67,370.79 L 236.65,370.85 L 236.65,370.93 L 236.76,370.95 L 236.77,370.96 L 236.86,370.97 L 236.85,371.01 L 236.87,371.01 L 236.87,371.01 L 236.91,371.01 L 236.91,371.00 L 236.94,371.02 L 236.99,371.04 L 237.00,371.04 L 237.01,371.04 L 237.01,371.05 L 237.01,371.06 L 237.01,371.09 L 236.97,371.21 L 236.96,371.22 L 236.96,371.24 L 236.96,371.25 L 236.96,371.34 L 236.98,371.34 L 236.98,371.35 L 236.99,371.35 L 236.99,371.37 L 236.99,371.37 L 236.99,371.40 L 236.96,371.38 L 236.95,371.40 L 237.00,371.42 L 237.04,371.42 L 237.07,371.44 L 237.10,371.46 L 237.12,371.47 L 237.12,371.49 L 237.13,371.54 L 237.13,371.57 L 237.13,371.62 L 237.13,371.64 L 237.14,371.69 L 237.14,371.71 L 237.14,371.75 L 237.14,371.81 L 237.14,371.83 L 237.15,371.85 L 237.17,371.87 L 237.19,371.89 L 237.23,371.91 L 237.31,371.95 L 237.39,372.00 L 237.26,372.12 L 237.29,372.16 L 237.31,372.20 L 237.34,372.19 L 237.35,372.20 L 237.36,372.22 L 237.34,372.23 L 237.34,372.23 L 237.33,372.26 L 237.32,372.26 L 237.30,372.25 L 237.28,372.24 L 237.27,372.23 L 237.25,372.22 L 237.20,372.20 L 237.18,372.20 L 237.17,372.20 L 237.16,372.21 L 237.14,372.22 L 237.13,372.24 L 237.11,372.26 L 237.11,372.27 L 237.11,372.29 L 237.12,372.31 L 237.13,372.33 L 237.17,372.35 L 237.23,372.40 L 237.24,372.41 L 237.25,372.43 L 237.25,372.48 L 237.25,372.53 L 237.24,372.59 L 237.22,372.70 L 237.20,372.57 L 236.98,372.41 L 236.71,372.35 L 236.24,372.51 L 236.01,372.63 L 235.86,372.79 L 235.74,372.93 L 235.46,373.00 L 235.19,373.07 L 235.18,373.07 L 235.17,373.07 L 234.83,373.17 L 234.70,373.20 L 234.58,373.22 L 234.46,373.25 L 234.39,373.27 L 234.37,373.32 L 234.37,373.33 L 234.40,373.33 L 234.32,373.42 L 234.24,373.45 L 234.23,373.41 L 234.21,373.42 L 234.07,373.46 L 234.08,373.50 L 233.98,373.53 L 233.87,373.56 L 233.86,373.56 L 233.85,373.56 L 233.74,373.58 L 233.50,373.62 L 233.35,373.64 L 233.11,373.67 L 233.03,373.69 L 232.69,373.71 L 232.50,373.72 L 232.18,373.75 L 232.00,373.76 L 231.65,373.78 L 231.58,373.78 L 231.28,373.77 L 231.12,373.75 L 231.00,373.74 L 230.95,373.73 L 230.93,373.73 L 230.65,373.68 L 230.49,373.66 L 230.47,373.66 L 230.43,373.65 L 230.33,373.64 L 230.30,373.63 L 230.24,373.62 L 230.18,373.61 L 230.07,373.59 L 229.98,373.58 L 229.85,373.54 L 229.75,373.51 L 229.63,373.46 L 229.36,373.30 L 229.33,373.28 L 229.30,373.27 L 229.14,373.18 L 229.06,373.12 L 228.74,372.85 L 228.67,372.79 L 228.48,372.65 L 228.36,372.53 L 228.34,372.50 L 228.34,372.46 L 228.33,372.37 L 228.35,372.32 L 228.37,372.27 L 228.37,372.23 L 228.36,372.19 L 228.32,372.08 L 228.19,371.91 L 228.16,371.03 L 228.12,371.03 L 228.08,371.05 L 228.07,371.05 L 228.05,371.03 L 228.02,371.01 L 228.01,370.98 L 227.99,370.93 L 227.97,370.90 L 228.06,370.88 L 228.02,370.70 L 227.94,370.72 L 227.88,370.59 L 227.87,370.59 L 227.99,370.56 L 227.93,370.27 L 227.94,370.24 L 227.93,370.21 L 227.93,370.20 L 227.86,369.94 L 227.77,369.67 L 227.68,369.49 L 227.60,369.37 L 227.54,369.23 L 227.44,369.01 L 227.40,368.94 L 227.32,368.82 L 227.31,368.80 L 227.28,368.73 L 227.25,368.69 L 227.19,368.61 L 227.13,368.56 L 227.09,368.51 L 227.06,368.45 L 227.01,368.33 L 226.99,368.23 L 226.96,368.11 L 226.94,367.97 L 226.93,367.90 L 226.91,367.73 L 226.91,367.66 L 226.90,367.57 L 226.90,367.42 L 226.86,367.17 L 226.85,367.06 L 226.90,366.83 L 226.69,366.74 L 226.25,366.58 L 225.94,366.33 L 225.89,366.28 L 225.84,366.21 L 225.60,365.93 L 225.55,365.90 L 225.20,365.43 L 225.07,365.30 L 224.89,365.17 L 224.78,365.08 L 224.75,365.03 L 224.47,364.88 L 224.22,364.75 L 224.17,364.73 L 224.13,364.75 L 224.10,364.80 L 224.08,364.83 L 224.03,364.86 L 223.92,364.86 L 223.86,364.87 L 223.81,364.88 L 223.77,364.88 L 223.74,364.91 L 223.67,364.97 L 223.46,365.20 L 223.45,365.22 L 223.43,365.24 L 223.40,365.25 L 223.25,365.25 L 223.17,365.26 L 223.13,365.27 L 223.11,365.30 L 223.11,365.38 L 223.07,365.43 L 222.96,365.48 L 222.92,365.51 L 222.76,365.60 L 222.63,365.67 L 222.52,365.73 L 222.41,365.81 L 222.33,365.87 L 222.25,365.94 L 222.17,366.08 L 222.06,366.20 L 222.00,366.25 L 221.93,366.31 L 221.93,366.38 L 221.92,366.51 L 221.94,366.68 L 221.93,366.94 L 221.93,367.39 L 221.82,367.71 L 221.81,367.76 L 221.81,367.92 L 221.80,368.16 L 221.75,368.34 L 221.73,368.46 L 221.70,368.63 L 221.66,368.81 L 221.56,369.26 L 221.50,369.48 L 221.47,369.54 L 221.37,369.60 L 221.30,369.75 L 221.29,369.78 L 221.26,369.84 L 220.97,370.47 L 221.24,370.59 L 221.19,370.70 L 221.15,370.77 L 221.11,370.86 L 221.07,370.89 L 221.04,370.92 L 220.95,370.98 L 220.89,371.00 L 220.86,371.01 L 220.80,371.01 L 220.76,371.00 L 220.40,370.84 L 220.15,370.89 L 219.69,371.17 L 219.65,371.19 L 219.43,371.33 L 219.15,371.48 L 218.95,371.60 L 218.93,371.71 L 218.63,372.35 L 218.51,372.59 L 218.49,372.61 L 218.36,372.79 L 218.30,372.92 L 218.22,373.16 L 218.21,373.24 L 218.12,373.70 L 218.19,373.81 L 218.25,373.92 L 218.33,374.04 L 218.52,374.30 L 218.52,374.30 L 218.62,374.44 L 218.88,374.76 L 218.97,374.87 L 219.14,375.05 L 219.22,375.14 L 219.28,375.24 L 219.34,375.33 L 219.38,375.39 L 219.41,375.47 L 219.43,375.50 L 219.44,375.53 L 219.47,375.62 L 219.52,375.72 L 219.62,375.90 L 219.68,375.99 L 219.76,376.13 L 219.81,376.23 L 219.87,376.33 L 219.87,376.36 L 219.89,376.45 L 219.89,376.50 L 219.89,376.60 L 219.85,376.83 L 219.82,377.05 L 219.78,377.26 L 219.77,377.31 L 219.75,377.41 L 219.69,377.55 L 219.59,377.77 L 219.57,377.81 L 219.52,377.90 L 219.44,378.02 L 219.34,378.15 L 219.25,378.28 L 219.15,378.43 L 219.08,378.53 L 219.02,378.61 L 218.97,378.68 L 218.92,378.75 L 218.82,378.91 L 218.80,378.97 L 218.77,379.03 L 218.72,379.18 L 218.69,379.24 L 218.66,379.30 L 218.58,379.48 L 218.53,379.60 L 218.48,379.68 L 218.48,379.69 L 218.43,379.83 L 218.42,379.89 L 218.41,379.98 L 218.43,380.22 L 218.45,380.44 L 218.46,380.49 L 218.49,380.60 L 218.51,380.80 L 218.56,380.96 L 218.60,381.06 L 218.66,381.17 L 218.71,381.25 L 218.82,381.40 L 218.88,381.48 L 218.89,381.52 L 218.89,381.52 L 218.94,381.63 L 218.98,381.73 L 219.00,381.83 L 219.02,381.89 L 219.05,381.93 L 219.10,381.97 L 219.16,382.01 L 219.32,382.11 L 219.47,382.19 L 219.55,382.25 L 219.61,382.31 L 219.67,382.39 L 219.86,382.12 L 219.88,382.12 L 219.88,382.12 L 219.89,382.12 L 219.89,382.13 L 219.89,382.13 L 219.90,382.15 L 219.89,382.15 L 219.91,382.16 L 219.92,382.16 L 219.92,382.15 L 219.91,382.14 L 219.91,382.13 L 219.90,382.11 L 219.92,382.11 L 220.00,382.07 L 219.99,382.04 L 219.99,382.03 L 219.98,382.03 L 219.95,382.02 L 219.91,382.01 L 219.90,382.01 L 219.89,382.01 L 219.89,382.00 L 219.90,382.00 L 219.92,381.99 L 219.94,381.99 L 219.97,382.00 L 219.99,381.99 L 220.01,381.98 L 220.03,381.97 L 220.05,381.97 L 220.05,382.00 L 220.05,382.00 L 220.09,382.00 L 220.09,381.99 L 220.10,381.97 L 220.11,381.94 L 220.12,381.92 L 220.13,381.92 L 220.13,381.91 L 220.19,381.94 L 220.24,381.92 L 220.25,381.92 L 220.29,381.79 L 220.33,381.79 L 220.35,381.79 L 220.36,381.78 L 220.37,381.77 L 220.38,381.77 L 220.38,381.77 L 220.39,381.79 L 220.39,381.79 L 220.40,381.80 L 220.41,381.80 L 220.42,381.80 L 220.43,381.80 L 220.43,381.80 L 220.44,381.82 L 220.44,381.82 L 220.46,381.83 L 220.47,381.84 L 220.48,381.84 L 220.50,381.84 L 220.52,381.84 L 220.52,381.86 L 220.52,381.87 L 220.51,381.89 L 220.50,381.90 L 220.50,381.92 L 220.51,381.93 L 220.51,381.94 L 220.50,381.95 L 220.49,381.96 L 220.49,381.97 L 220.48,381.97 L 220.46,381.97 L 220.45,381.98 L 220.45,382.02 L 220.46,382.02 L 220.46,382.03 L 220.47,382.03 L 220.47,382.03 L 220.47,382.03 L 220.46,382.05 L 220.46,382.05 L 220.45,382.06 L 220.46,382.06 L 220.46,382.07 L 220.46,382.07 L 220.46,382.08 L 220.46,382.08 L 220.45,382.08 L 220.45,382.11 L 220.44,382.12 L 220.43,382.13 L 220.41,382.14 L 220.41,382.15 L 220.40,382.16 L 220.40,382.16 L 220.38,382.16 L 220.37,382.17 L 220.37,382.18 L 220.37,382.19 L 220.38,382.20 L 220.38,382.21 L 220.37,382.22 L 220.37,382.22 L 220.36,382.23 L 220.35,382.23 L 220.34,382.21 L 220.33,382.20 L 220.32,382.19 L 220.31,382.19 L 220.28,382.20 L 220.27,382.21 L 220.26,382.22 L 220.25,382.23 L 220.25,382.25 L 220.25,382.27 L 220.26,382.30 L 220.27,382.34 L 220.27,382.35 L 220.28,382.36 L 220.30,382.37 L 220.31,382.37 L 220.31,382.38 L 220.31,382.39 L 220.31,382.39 L 220.29,382.40 L 220.28,382.41 L 220.27,382.42 L 220.26,382.43 L 220.26,382.44 L 220.28,382.46 L 220.28,382.47 L 220.28,382.47 L 220.28,382.49 L 220.26,382.51 L 220.25,382.53 L 220.23,382.56 L 220.22,382.56 L 220.21,382.55 L 220.20,382.54 L 220.19,382.55 L 220.18,382.55 L 220.17,382.56 L 220.17,382.59 L 220.16,382.60 L 220.16,382.62 L 220.17,382.62 L 220.17,382.62 L 220.17,382.62 L 220.17,382.61 L 220.17,382.61 L 220.17,382.61 L 220.17,382.61 L 220.17,382.60 L 220.18,382.60 L 220.20,382.60 L 220.21,382.61 L 220.22,382.62 L 220.22,382.62 L 220.22,382.62 L 220.20,382.63 L 220.19,382.63 L 220.19,382.64 L 220.19,382.64 L 220.20,382.64 L 220.22,382.65 L 220.24,382.65 L 220.24,382.66 L 220.24,382.67 L 220.24,382.68 L 220.24,382.68 L 220.24,382.69 L 220.24,382.69 L 220.24,382.70 L 220.25,382.70 L 220.25,382.70 L 220.25,382.69 L 220.25,382.68 L 220.26,382.68 L 220.26,382.68 L 220.27,382.68 L 220.28,382.68 L 220.28,382.69 L 220.28,382.69 L 220.29,382.69 L 220.30,382.68 L 220.30,382.68 L 220.31,382.67 L 220.31,382.67 L 220.32,382.67 L 220.32,382.68 L 220.33,382.69 L 220.33,382.69 L 220.33,382.69 L 220.34,382.71 L 220.35,382.71 L 220.35,382.71 L 220.36,382.71 L 220.36,382.70 L 220.37,382.70 L 220.38,382.72 L 220.39,382.73 L 220.40,382.73 L 220.41,382.74 L 220.41,382.74 L 220.43,382.74 L 220.44,382.73 L 220.45,382.72 L 220.45,382.72 L 220.46,382.72 L 220.46,382.73 L 220.46,382.73 L 220.47,382.73 L 220.48,382.73 L 220.49,382.72 L 220.49,382.70 L 220.49,382.70 L 220.49,382.70 L 220.50,382.70 L 220.51,382.71 L 220.51,382.72 L 220.51,382.72 L 220.52,382.72 L 220.52,382.71 L 220.53,382.71 L 220.54,382.71 L 220.55,382.71 L 220.56,382.71 L 220.57,382.70 L 220.58,382.71 L 220.58,382.71 L 220.58,382.72 L 220.65,382.71 L 220.66,382.71 L 220.67,382.70 L 220.74,382.66 L 220.71,382.65 L 220.70,382.64 L 220.69,382.63 L 220.67,382.63 L 220.65,382.63 L 220.65,382.63 L 220.65,382.62 L 220.65,382.61 L 220.65,382.60 L 220.66,382.60 L 220.68,382.60 L 220.68,382.59 L 220.71,382.58 L 220.78,382.54 L 220.86,382.52 L 220.92,382.50 L 220.93,382.49 L 220.93,382.48 L 220.94,382.41 L 220.97,382.42 L 220.99,382.43 L 221.03,382.43 L 221.06,382.43 L 221.13,382.45 L 221.16,382.45 L 221.19,382.45 L 221.22,382.44 L 221.24,382.43 L 221.26,382.43 L 221.28,382.43 L 221.28,382.42 L 221.32,382.44 L 221.34,382.44 L 221.35,382.44 L 221.38,382.42 L 221.40,382.41 L 221.43,382.39 L 221.45,382.36 L 221.49,382.40 L 221.54,382.46 L 221.60,382.63 L 221.63,382.67 L 221.66,382.70 L 221.70,382.74 L 221.77,382.78 L 221.80,382.76 L 221.85,382.75 L 221.99,382.71 L 222.20,382.62 L 222.32,382.56 L 222.43,382.48 L 222.51,382.47 L 222.55,382.46 L 222.60,382.45 L 222.64,382.43 L 222.76,382.44 L 222.86,382.43 L 222.91,382.41 L 222.95,382.40 L 223.00,382.36 L 223.08,382.29 L 223.12,382.23 L 223.21,382.10 L 223.27,382.03 L 223.38,381.96 L 223.51,381.86 L 223.64,381.78 L 223.68,381.76 L 223.70,381.75 L 223.70,381.76 L 223.70,381.78 L 223.70,381.82 L 223.71,381.88 L 223.71,381.91 L 223.70,381.94 L 223.68,381.97 L 223.66,381.99 L 223.65,382.02 L 223.65,382.07 L 223.65,382.13 L 223.66,382.15 L 223.67,382.16 L 223.70,382.19 L 223.79,382.25 L 223.90,382.32 L 223.97,382.35 L 224.01,382.36 L 224.05,382.37 L 224.01,382.42 L 223.98,382.45 L 223.97,382.49 L 223.96,382.56 L 223.97,382.66 L 223.96,382.72 L 223.95,382.78 L 223.95,382.83 L 223.98,382.89 L 224.02,382.96 L 224.04,382.99 L 224.04,383.02 L 224.03,383.05 L 224.05,383.05 L 224.07,383.06 L 224.09,383.07 L 224.14,383.11 L 224.20,383.14 L 224.27,383.18 L 224.32,383.20 L 224.36,383.22 L 224.37,383.22 L 224.39,383.23 L 224.45,383.24 L 224.48,383.23 L 224.50,383.23 L 224.51,383.24 L 224.52,383.26 L 224.54,383.30 L 224.56,383.33 L 224.59,383.34 L 224.64,383.34 L 224.73,383.32 L 224.83,383.30 L 224.86,383.29 L 224.89,383.25 L 224.91,383.24 L 224.94,383.24 L 224.99,383.26 L 225.08,383.30 L 225.11,383.31 L 225.12,383.32 L 225.13,383.34 L 225.15,383.37 L 225.15,383.38 L 225.16,383.40 L 225.18,383.41 L 225.19,383.40 L 225.20,383.36 L 225.22,383.36 L 225.23,383.39 L 225.25,383.38 L 225.27,383.39 L 225.29,383.35 L 225.30,383.35 L 225.31,383.33 L 225.33,383.34 L 225.35,383.34 L 225.37,383.38 L 225.40,383.36 L 225.40,383.36 L 225.40,383.36 L 225.40,383.37 L 225.41,383.37 L 225.42,383.37 L 225.43,383.37 L 225.44,383.37 L 225.45,383.37 L 225.46,383.38 L 225.46,383.39 L 225.48,383.41 L 225.49,383.42 L 225.49,383.44 L 225.48,383.45 L 225.48,383.46 L 225.47,383.46 L 225.46,383.46 L 225.46,383.48 L 225.46,383.49 L 225.45,383.49 L 225.45,383.49 L 225.45,383.50 L 225.46,383.51 L 225.46,383.53 L 225.46,383.53 L 225.45,383.53 L 225.44,383.53 L 225.44,383.53 L 225.43,383.53 L 225.43,383.54 L 225.44,383.54 L 225.45,383.54 L 225.46,383.55 L 225.46,383.56 L 225.46,383.57 L 225.45,383.57 L 225.44,383.59 L 225.44,383.60 L 225.44,383.61 L 225.44,383.62 L 225.44,383.63 L 225.43,383.64 L 225.42,383.65 L 225.42,383.66 L 225.42,383.67 L 225.42,383.67 L 225.43,383.68 L 225.43,383.69 L 225.44,383.70 L 225.45,383.70 L 225.46,383.71 L 225.46,383.71 L 225.47,383.72 L 225.48,383.72 L 225.48,383.72 L 225.49,383.73 L 225.50,383.75 L 225.52,383.79 L 225.52,383.79 L 225.53,383.79 L 225.53,383.79 L 225.53,383.80 L 225.54,383.80 L 225.54,383.81 L 225.54,383.82 L 225.53,383.82 L 225.55,383.84 L 225.55,383.84 L 225.55,383.85 L 225.55,383.86 L 225.56,383.86 L 225.55,383.87 L 225.56,383.88 L 225.56,383.88 L 225.55,383.88 L 225.56,383.89 L 225.56,383.88 L 225.56,383.89 L 225.56,383.89 L 225.56,383.90 L 225.57,383.90 L 225.57,383.92 L 225.58,383.93 L 225.58,383.93 L 225.59,383.94 L 225.59,383.95 L 225.60,383.96 L 225.61,383.97 L 225.61,383.98 L 225.61,383.99 L 225.61,384.00 L 225.61,384.00 L 225.60,384.01 L 225.61,384.03 L 225.61,384.03 L 225.61,384.04 L 225.61,384.05 L 225.60,384.06 L 225.60,384.06 L 225.60,384.09 L 225.59,384.10 L 225.59,384.11 L 225.60,384.11 L 225.61,384.10 L 225.61,384.11 L 225.62,384.13 L 225.62,384.13 L 225.63,384.14 L 225.63,384.16 L 225.63,384.17 L 225.63,384.18 L 225.63,384.19 L 225.62,384.20 L 225.63,384.21 L 225.63,384.23 L 225.65,384.25 L 225.70,384.28 L 225.78,384.30 L 225.88,384.31 L 226.02,384.36 L 226.02,384.41 L 226.03,384.45 L 226.09,384.53 L 226.11,384.57 L 226.13,384.66 L 226.15,384.76 L 226.13,384.84 L 226.32,385.01 L 226.38,385.09 L 226.49,385.18 L 226.56,385.21 L 226.64,385.19 L 226.67,385.23 L 226.73,385.31 L 226.80,385.40 L 226.82,385.47 L 226.82,385.59 L 226.85,385.65 L 226.90,385.77 L 226.91,385.87 L 227.04,385.92 L 227.30,386.00 L 227.42,386.06 L 227.54,386.16 L 227.56,386.19 L 227.62,386.23 L 227.69,386.25 L 227.75,386.35 L 227.78,386.40 L 227.86,386.44 L 227.90,386.46 L 227.93,386.46 L 228.05,386.49 L 228.11,386.51 L 228.14,386.52 L 228.17,386.51 L 228.20,386.50 L 228.24,386.44 L 228.29,386.40 L 228.34,386.37 L 228.40,386.34 L 228.44,386.34 L 228.52,386.34 L 228.63,386.35 L 228.74,386.36 L 228.83,386.34 L 228.89,386.39 L 228.97,386.44 L 228.98,386.50 L 229.02,386.53 L 229.09,386.63 L 229.12,386.65 L 229.16,386.66 L 229.18,386.70 L 229.22,386.76 L 229.26,386.79 L 229.28,386.86 L 229.29,386.88 L 229.30,386.89 L 229.33,386.91 L 229.35,386.93 L 229.37,386.95 L 229.38,386.96 L 229.39,386.99 L 229.41,387.01 L 229.43,387.04 L 229.44,387.06 L 229.44,387.08 L 229.44,387.10 L 229.44,387.11 L 229.43,387.13 L 229.42,387.14 L 229.52,387.21 L 229.55,387.23 L 229.67,387.24 L 229.76,387.28 L 229.88,387.34 L 229.97,387.39 L 230.01,387.43 L 230.03,387.44 L 230.12,387.44 L 230.21,387.45 L 230.28,387.51 L 230.31,387.54 L 230.39,387.69 L 230.42,387.72 L 230.51,387.78 L 230.61,387.84 L 230.71,387.89 L 230.78,387.94 L 230.80,387.95 L 230.85,387.96 L 230.89,387.96 L 230.99,387.96 L 231.08,387.94 L 231.19,387.92 L 231.25,387.93 L 231.33,387.97 L 231.40,388.03 L 231.46,388.12 L 231.50,388.13 L 231.53,388.14 L 231.72,388.04 L 231.98,387.85 L 232.26,387.62 L 232.41,387.77 L 232.47,387.79 L 232.51,387.80 L 232.62,387.86 L 232.68,387.89 L 233.00,387.65 L 233.04,387.64 L 233.11,387.66 L 233.20,387.64 L 233.23,387.64 L 233.28,387.66 L 233.35,387.70 L 233.39,387.73 L 233.46,387.78 L 233.50,387.81 L 233.52,387.81 L 233.61,387.72 L 233.66,387.68 L 233.88,387.65 L 233.98,387.65 L 234.09,387.61 L 234.07,387.53 L 234.04,387.49 L 234.08,387.46 L 234.09,387.49 L 234.11,387.50 L 234.13,387.51 L 234.17,387.52 L 234.23,387.57 L 234.26,387.52 L 234.29,387.50 L 234.32,387.47 L 234.35,387.46 L 234.37,387.49 L 234.38,387.49 L 234.37,387.51 L 234.38,387.51 L 234.38,387.52 L 234.39,387.52 L 234.39,387.51 L 234.42,387.51 L 234.46,387.51 L 234.55,387.55 L 234.61,387.58 L 234.68,387.58 L 234.68,387.75 L 234.69,387.83 L 234.65,387.88 L 234.62,387.92 L 234.55,387.94 L 234.54,388.04 L 234.54,388.04 L 234.54,388.06 L 234.54,388.09 L 234.55,388.10 L 234.56,388.12 L 234.57,388.14 L 234.57,388.14 L 234.58,388.14 L 234.59,388.13 L 234.59,388.12 L 234.60,388.12 L 234.60,388.12 L 234.60,388.13 L 234.61,388.15 L 234.62,388.16 L 234.62,388.17 L 234.63,388.19 L 234.64,388.20 L 234.64,388.20 L 234.65,388.20 L 234.65,388.21 L 234.65,388.22 L 234.64,388.23 L 234.62,388.24 L 234.60,388.25 L 234.59,388.26 L 234.60,388.27 L 234.61,388.28 L 234.62,388.29 L 234.62,388.29 L 234.60,388.30 L 234.59,388.29 L 234.57,388.29 L 234.56,388.30 L 234.55,388.31 L 234.54,388.32 L 234.45,388.37 L 234.41,388.40 L 234.40,388.41 L 234.38,388.42 L 234.31,388.47 L 234.27,388.47 L 234.18,388.46 L 234.17,388.46 L 234.15,388.47 L 234.11,388.50 L 233.90,388.60 L 233.88,388.61 L 233.63,388.72 L 233.58,388.72 L 233.57,388.73 L 233.56,388.73 L 233.54,388.73 L 233.53,388.72 L 233.50,388.70 L 233.49,388.69 L 233.48,388.69 L 233.46,388.70 L 233.45,388.71 L 233.38,388.76 L 233.35,388.79 L 233.39,388.83 L 233.40,388.86 L 233.48,388.94 L 233.47,388.95 L 233.38,388.88 L 233.36,388.87 L 233.33,388.86 L 233.30,388.87 L 233.29,388.88 L 233.27,388.91 L 233.23,388.97 L 233.22,388.99 L 233.21,389.00 L 233.25,389.05 L 233.34,389.10 L 233.38,389.13 L 233.42,389.15 L 233.44,389.17 L 233.45,389.19 L 233.44,389.19 L 233.43,389.20 L 233.43,389.21 L 233.45,389.22 L 233.47,389.22 L 233.53,389.24 L 233.56,389.26 L 233.61,389.33 L 233.64,389.32 L 233.66,389.33 L 233.67,389.33 L 233.68,389.35 L 233.68,389.37 L 233.66,389.37 L 233.62,389.38 L 233.59,389.37 L 233.57,389.38 L 233.55,389.39 L 233.54,389.41 L 233.52,389.45 L 233.49,389.52 L 233.47,389.66 L 233.46,389.76 L 233.46,389.81 L 233.46,389.85 L 233.44,389.87 L 233.42,389.88 L 233.38,389.89 L 233.35,389.91 L 233.32,389.93 L 233.30,389.95 L 233.29,389.97 L 233.27,390.00 L 233.26,390.03 L 233.24,390.04 L 233.22,390.05 L 233.22,390.06 L 233.22,390.06 L 233.22,390.08 L 233.22,390.09 L 233.22,390.10 L 233.20,390.11 L 233.18,390.12 L 233.19,390.13 L 233.19,390.14 L 233.22,390.18 L 233.23,390.19 L 233.24,390.19 L 233.24,390.19 L 233.25,390.23 L 233.25,390.28 L 233.06,390.31 L 233.07,390.34 L 233.08,390.33 L 233.09,390.33 L 233.09,390.33 L 233.10,390.34 L 233.10,390.34 L 233.11,390.35 L 233.11,390.35 L 233.11,390.36 L 233.11,390.36 L 233.11,390.37 L 233.11,390.39 L 233.11,390.41 L 233.11,390.41 L 233.11,390.42 L 233.11,390.43 L 233.11,390.44 L 233.11,390.45 L 233.11,390.45 L 233.11,390.46 L 233.11,390.47 L 233.11,390.48 L 233.11,390.48 L 233.11,390.49 L 233.11,390.49 L 233.12,390.51 L 233.12,390.51 L 233.13,390.52 L 233.13,390.52 L 233.13,390.52 L 233.14,390.52 L 233.15,390.52 L 233.19,390.53 L 233.21,390.53 L 233.25,390.53 L 233.26,390.53 L 233.27,390.53 L 233.27,390.53 L 233.28,390.53 L 233.29,390.52 L 233.32,390.50 L 233.36,390.49 L 233.39,390.47 L 233.43,390.45 L 233.43,390.47 L 233.44,390.49 L 233.44,390.49 L 233.45,390.50 L 233.46,390.50 L 233.47,390.51 L 233.47,390.51 L 233.47,390.52 L 233.46,390.53 L 233.44,390.53 L 233.43,390.53 L 233.43,390.54 L 233.43,390.55 L 233.43,390.56 L 233.43,390.57 L 233.44,390.58 L 233.46,390.59 L 233.47,390.60 L 233.47,390.61 L 233.46,390.61 L 233.45,390.62 L 233.44,390.63 L 233.44,390.64 L 233.45,390.65 L 233.47,390.66 L 233.49,390.66 L 233.50,390.67 L 233.52,390.68 L 233.54,390.71 L 233.55,390.71 L 233.55,390.72 L 233.57,390.72 L 233.57,390.73 L 233.57,390.74 L 233.56,390.74 L 233.56,390.75 L 233.56,390.76 L 233.56,390.77 L 233.62,390.75 L 233.65,390.74 L 233.68,390.73 L 233.68,390.74 L 233.69,390.74 L 233.71,390.76 L 233.71,390.77 L 233.72,390.78 L 233.72,390.80 L 233.72,390.80 L 233.73,390.80 L 233.74,390.81 L 233.75,390.81 L 233.77,390.80 L 233.79,390.80 L 233.80,390.80 L 233.80,390.80 L 233.81,390.81 L 233.81,390.83 L 233.82,390.87 L 233.83,390.88 L 233.84,390.89 L 233.85,390.90 L 233.86,390.90 L 233.87,390.91 L 233.88,390.91 L 233.88,390.92 L 233.89,390.93 L 233.90,390.94 L 233.90,390.95 L 233.92,390.96 L 233.92,390.96 L 233.93,390.96 L 233.94,390.96 L 233.95,390.96 L 233.95,390.97 L 233.95,390.97 L 233.97,391.00 L 233.97,391.01 L 233.97,391.03 L 233.98,391.04 L 234.00,391.08 L 234.01,391.09 L 234.02,391.10 L 234.06,391.12 L 234.08,391.13 L 234.10,391.16 L 234.12,391.17 L 234.14,391.18 L 234.18,391.17 L 234.21,391.17 L 234.22,391.19 L 234.22,391.21 L 234.23,391.23 L 234.24,391.25 L 234.32,391.28 L 234.35,391.27 L 234.35,391.29 L 234.35,391.31 L 234.35,391.32 L 234.35,391.36 L 234.35,391.41 L 234.34,391.47 L 234.52,391.60 L 234.53,391.60 L 234.56,391.63 L 234.61,391.56 L 234.64,391.64 L 234.67,391.68 L 234.73,391.75 L 234.77,391.79 L 234.82,391.82 L 234.92,391.88 L 234.91,391.90 L 234.90,391.92 L 234.88,391.94 L 234.86,391.95 L 234.85,391.96 L 234.87,391.98 L 234.88,392.03 L 234.89,392.05 L 234.92,392.08 L 234.94,392.09 L 234.95,392.11 L 234.95,392.14 L 234.87,392.28 L 234.87,392.34 L 234.87,392.42 L 234.88,392.43 L 234.90,392.43 L 234.92,392.44 L 234.95,392.45 L 234.96,392.46 L 234.96,392.47 L 234.96,392.48 L 234.93,392.51 L 234.93,392.51 L 234.93,392.52 L 234.94,392.52 L 234.95,392.53 L 234.96,392.53 L 234.95,392.54 L 234.95,392.54 L 234.94,392.54 L 234.93,392.54 L 234.92,392.54 L 234.91,392.55 L 234.91,392.56 L 234.92,392.57 L 234.92,392.58 L 234.92,392.59 L 234.91,392.60 L 234.91,392.61 L 234.91,392.62 L 234.92,392.63 L 234.93,392.63 L 234.94,392.63 L 234.95,392.63 L 234.95,392.63 L 234.96,392.64 L 234.96,392.66 L 234.96,392.67 L 234.96,392.67 L 234.97,392.67 L 234.99,392.66 L 235.00,392.64 L 235.01,392.63 L 235.02,392.60 L 235.02,392.59 L 235.04,392.58 L 235.05,392.58 L 235.06,392.58 L 235.06,392.59 L 235.06,392.60 L 235.06,392.61 L 235.06,392.62 L 235.06,392.63 L 235.05,392.64 L 235.04,392.65 L 235.03,392.65 L 235.02,392.65 L 235.01,392.65 L 235.01,392.65 L 235.00,392.66 L 235.00,392.67 L 235.02,392.68 L 235.03,392.68 L 235.03,392.69 L 235.03,392.69 L 235.03,392.71 L 235.03,392.72 L 235.02,392.72 L 235.02,392.73 L 235.01,392.74 L 235.00,392.74 L 235.00,392.74 L 234.96,392.74 L 234.95,392.73 L 234.93,392.73 L 234.92,392.74 L 234.91,392.75 L 234.90,392.76 L 234.89,392.78 L 234.89,392.81 L 234.90,392.82 L 234.92,392.83 L 234.94,392.84 L 234.95,392.85 L 234.96,392.86 L 234.96,392.87 L 234.96,392.88 L 234.95,392.89 L 234.94,392.89 L 234.93,392.90 L 234.92,392.91 L 234.91,392.91 L 234.91,392.92 L 234.91,392.93 L 234.90,392.94 L 234.90,392.95 L 234.89,392.95 L 234.87,392.96 L 234.85,392.98 L 234.83,392.98 L 234.81,392.99 L 234.80,393.00 L 234.80,393.01 L 234.80,393.03 L 234.80,393.04 L 234.80,393.05 L 234.80,393.06 L 234.80,393.06 L 234.79,393.07 L 234.77,393.07 L 234.75,393.08 L 234.73,393.08 L 234.72,393.08 L 234.71,393.09 L 234.69,393.10 L 234.68,393.11 L 234.68,393.13 L 234.67,393.14 L 234.66,393.15 L 234.65,393.15 L 234.64,393.15 L 234.63,393.15 L 234.62,393.16 L 234.62,393.17 L 234.62,393.19 L 234.63,393.21 L 234.63,393.23 L 234.63,393.24 L 234.63,393.26 L 234.63,393.28 L 234.62,393.31 L 234.62,393.34 L 234.63,393.47 L 234.63,393.48 L 234.63,393.49 L 234.62,393.50 L 234.62,393.51 L 234.61,393.52 L 234.59,393.55 L 234.58,393.57 L 234.57,393.65 L 234.57,393.66 L 234.58,393.68 L 234.58,393.69 L 234.58,393.70 L 234.58,393.71 L 234.58,393.72 L 234.57,393.73 L 234.57,393.74 L 234.54,393.77 L 234.51,393.80 L 234.49,393.83 L 234.48,393.84 L 234.47,393.85 L 234.47,393.85 L 234.45,393.86 L 234.44,393.87 L 234.43,393.88 L 234.42,393.88 L 234.42,393.88 L 234.41,393.89 L 234.39,393.91 L 234.37,393.94 L 234.36,393.96 L 234.35,393.97 L 234.35,393.98 L 234.32,393.99 L 234.30,394.00 L 234.27,394.00 L 234.24,394.01 L 234.22,394.01 L 234.21,394.01 L 234.20,394.02 L 234.20,394.02 L 234.18,394.02 L 234.14,394.04 L 234.06,394.02 L 233.95,394.01 L 233.88,394.02 L 233.84,394.03 L 233.77,394.02 L 233.69,394.00 L 233.64,394.00 L 233.59,394.02 L 233.56,394.06 L 233.52,394.13 L 233.50,394.19 L 233.47,394.28 L 233.47,394.38 L 233.47,394.43 L 233.45,394.51 L 233.43,394.59 L 233.38,394.66 L 233.21,394.81 L 233.11,394.84 L 232.96,394.87 L 233.02,394.93 L 233.07,394.96 L 233.24,394.96 L 233.43,394.86 L 233.54,394.84 L 233.65,394.83 L 233.83,394.84 L 233.99,394.84 L 234.05,394.84 L 234.08,394.84 L 234.12,394.84 L 234.24,394.85 L 234.31,394.87 L 234.34,394.87 L 234.37,394.86 L 234.43,394.83 L 234.51,394.80 L 234.59,394.73 L 234.65,394.68 L 234.72,394.65 L 234.79,394.63 L 234.79,394.55 L 234.79,394.48 L 234.80,394.39 L 234.82,394.31 L 234.86,394.24 L 234.91,394.18 L 234.98,394.16 L 235.04,394.12 L 235.06,394.08 L 235.04,393.99 L 235.00,393.80 L 235.01,393.68 L 235.05,393.59 L 235.06,393.58 L 235.08,393.54 L 235.18,393.48 L 235.24,393.49 L 235.30,393.47 L 235.35,393.49 L 235.37,393.48 L 235.44,393.49 L 235.48,393.47 L 235.51,393.46 L 235.53,393.43 L 235.60,393.34 L 235.62,393.30 L 235.61,393.28 L 235.58,393.25 L 235.55,393.22 L 235.54,393.20 L 235.55,393.17 L 235.55,393.14 L 235.54,393.11 L 235.54,393.08 L 235.56,393.02 L 235.56,393.01 L 235.79,392.84 L 235.92,393.01 L 235.95,392.99 L 235.97,392.99 L 236.00,393.00 L 236.03,393.01 L 236.08,393.03 L 236.12,393.04 L 236.16,393.03 L 236.23,393.02 L 236.25,393.02 L 236.27,393.04 L 236.31,393.06 L 236.34,393.10 L 236.36,393.13 L 236.38,393.15 L 236.41,393.16 L 236.46,393.18 L 236.50,393.21 L 236.53,393.23 L 236.57,393.27 L 236.61,393.34 L 236.62,393.39 L 236.63,393.41 L 236.64,393.42 L 236.66,393.44 L 236.67,393.44 L 236.69,393.44 L 236.71,393.44 L 236.72,393.44 L 236.78,393.44 L 236.84,393.44 L 236.87,393.44 L 236.88,393.45 L 236.91,393.46 L 236.92,393.45 L 236.93,393.44 L 236.95,393.43 L 236.97,393.42 L 237.01,393.42 L 237.07,393.43 L 237.08,393.43 L 237.10,393.42 L 237.11,393.42 L 237.13,393.40 L 237.14,393.38 L 237.14,393.38 L 237.15,393.37 L 237.18,393.37 L 237.19,393.37 L 237.20,393.36 L 237.20,393.36 L 237.34,393.27 L 237.40,393.25 L 237.47,393.23 L 237.55,393.21 L 237.55,393.21 L 237.60,393.16 L 237.64,393.13 L 237.64,393.12 L 237.65,393.11 L 237.65,393.10 L 237.65,393.10 L 237.65,393.07 L 237.64,393.01 L 237.72,393.01 L 237.73,392.99 L 237.73,392.98 L 237.77,392.97 L 237.81,392.97 L 237.81,392.99 L 237.80,393.03 L 237.79,393.05 L 237.77,393.07 L 237.76,393.08 L 237.75,393.09 L 237.75,393.10 L 237.75,393.11 L 237.75,393.12 L 237.73,393.15 L 237.73,393.16 L 237.73,393.17 L 237.73,393.18 L 237.74,393.19 L 237.74,393.19 L 237.76,393.19 L 237.77,393.19 L 237.77,393.20 L 237.78,393.21 L 237.78,393.22 L 237.78,393.23 L 237.77,393.24 L 237.77,393.27 L 237.77,393.28 L 237.76,393.30 L 237.75,393.31 L 237.74,393.32 L 237.74,393.33 L 237.74,393.34 L 237.74,393.35 L 237.74,393.36 L 237.77,393.38 L 237.77,393.38 L 237.79,393.41 L 237.81,393.40 L 238.09,393.35 L 238.13,393.47 L 238.03,393.50 L 238.04,393.52 L 238.06,393.56 L 238.08,393.59 L 238.09,393.61 L 238.10,393.63 L 238.11,393.65 L 238.11,393.66 L 238.11,393.70 L 238.10,393.75 L 238.10,393.77 L 238.09,393.78 L 238.05,393.82 L 238.06,393.83 L 238.06,393.85 L 238.07,393.87 L 238.06,393.89 L 238.04,393.90 L 238.00,393.90 L 237.98,393.91 L 237.92,393.97 L 237.92,393.98 L 237.84,394.01 L 237.83,394.02 L 237.83,394.03 L 237.82,394.04 L 237.81,394.05 L 237.80,394.05 L 237.78,394.05 L 237.75,394.05 L 237.74,394.05 L 237.74,394.04 L 237.73,394.02 L 237.72,394.02 L 237.70,394.02 L 237.69,394.02 L 237.68,394.02 L 237.68,394.01 L 237.68,394.01 L 237.67,394.01 L 237.66,394.02 L 237.64,394.04 L 237.63,394.04 L 237.63,394.04 L 237.63,394.01 L 237.61,394.02 L 237.61,394.03 L 237.60,394.05 L 237.60,394.06 L 237.60,394.07 L 237.60,394.08 L 237.60,394.09 L 237.59,394.09 L 237.57,394.09 L 237.55,394.09 L 237.52,394.10 L 237.51,394.10 L 237.50,394.09 L 237.50,394.09 L 237.49,394.09 L 237.48,394.09 L 237.48,394.08 L 237.46,394.09 L 237.44,394.09 L 237.44,394.10 L 237.46,394.10 L 237.46,394.12 L 237.45,394.12 L 237.45,394.13 L 237.45,394.14 L 237.45,394.15 L 237.46,394.15 L 237.46,394.14 L 237.47,394.13 L 237.48,394.12 L 237.50,394.11 L 237.52,394.11 L 237.54,394.11 L 237.56,394.12 L 237.56,394.14 L 237.56,394.15 L 237.55,394.16 L 237.54,394.17 L 237.53,394.18 L 237.52,394.19 L 237.52,394.21 L 237.52,394.23 L 237.52,394.24 L 237.50,394.25 L 237.50,394.27 L 237.50,394.29 L 237.51,394.30 L 237.51,394.31 L 237.50,394.32 L 237.49,394.32 L 237.45,394.33 L 237.41,394.34 L 237.40,394.35 L 237.40,394.37 L 237.39,394.37 L 237.38,394.37 L 237.36,394.38 L 237.34,394.37 L 237.30,394.39 L 237.28,394.40 L 237.29,394.42 L 237.28,394.47 L 237.32,394.48 L 237.32,394.44 L 237.33,394.41 L 237.36,394.41 L 237.39,394.41 L 237.39,394.40 L 237.40,394.39 L 237.41,394.40 L 237.43,394.40 L 237.45,394.39 L 237.46,394.38 L 237.47,394.38 L 237.49,394.39 L 237.50,394.42 L 237.51,394.45 L 237.51,394.46 L 237.50,394.47 L 237.49,394.48 L 237.47,394.49 L 237.48,394.50 L 237.48,394.51 L 237.50,394.51 L 237.54,394.50 L 237.55,394.50 L 237.56,394.51 L 237.56,394.52 L 237.56,394.54 L 237.55,394.57 L 237.54,394.63 L 237.54,394.64 L 237.53,394.65 L 237.52,394.65 L 237.51,394.65 L 237.50,394.66 L 237.49,394.67 L 237.49,394.69 L 237.51,394.72 L 237.54,394.74 L 237.56,394.74 L 237.56,394.75 L 237.57,394.79 L 237.56,394.86 L 237.56,394.88 L 237.56,394.89 L 237.58,394.91 L 237.58,394.93 L 237.60,394.97 L 237.60,395.02 L 237.60,395.05 L 237.59,395.07 L 237.58,395.10 L 237.57,395.17 L 237.57,395.18 L 237.58,395.18 L 237.61,395.18 L 237.64,395.19 L 237.68,395.20 L 237.69,395.21 L 237.70,395.23 L 237.70,395.27 L 237.71,395.31 L 237.70,395.33 L 237.66,395.42 L 237.62,395.49 L 237.61,395.58 L 237.54,395.65 L 237.50,395.68 L 237.47,395.72 L 237.47,395.73 L 237.48,395.74 L 237.56,395.76 L 237.62,395.78 L 237.65,395.76 L 237.68,395.74 L 237.71,395.73 L 237.69,395.71 L 237.72,395.70 L 237.72,395.65 L 237.73,395.64 L 237.77,395.63 L 237.79,395.63 L 237.81,395.67 L 237.84,395.74 L 238.04,395.79 L 238.05,395.80 L 238.05,395.82 L 238.06,395.83 L 238.08,395.84 L 238.09,395.84 L 238.11,395.84 L 238.12,395.83 L 238.12,395.82 L 238.12,395.79 L 238.20,395.80 L 238.28,395.57 L 238.30,395.57 L 238.32,395.57 L 238.33,395.57 L 238.35,395.58 L 238.36,395.60 L 238.37,395.61 L 238.37,395.62 L 238.36,395.65 L 238.37,395.69 L 238.36,395.71 L 238.35,395.75 L 238.36,395.77 L 238.36,395.81 L 238.47,395.82 L 238.47,395.87 L 238.47,395.97 L 238.49,396.04 L 238.48,396.10 L 238.48,396.16 L 238.47,396.19 L 238.47,396.21 L 238.48,396.24 L 238.47,396.26 L 238.47,396.29 L 238.47,396.33 L 238.47,396.34 L 238.48,396.41 L 238.48,396.44 L 238.47,396.50 L 238.47,396.55 L 238.47,396.60 L 238.46,396.62 L 238.45,396.64 L 238.43,396.71 L 238.43,396.77 L 238.53,396.78 L 238.52,396.82 L 238.50,396.84 L 238.49,396.88 L 238.49,396.92 L 238.52,397.00 L 238.53,397.04 L 238.52,397.09 L 238.51,397.12 L 238.50,397.16 L 238.49,397.23 L 238.47,397.29 L 238.47,397.36 L 238.48,397.39 L 238.49,397.42 L 238.50,397.46 L 238.53,397.49 L 238.55,397.51 L 238.52,397.57 L 238.54,397.62 L 238.51,397.65 L 238.52,397.68 L 238.56,397.73 L 238.58,397.80 L 238.59,397.84 L 238.60,397.86 L 238.61,397.88 L 238.62,397.90 L 238.63,397.93 L 238.63,397.95 L 238.62,397.99 L 238.62,398.02 L 238.62,398.06 L 238.62,398.10 L 238.63,398.12 L 238.63,398.15 L 238.63,398.17 L 238.68,398.17 L 238.74,398.18 L 238.78,398.20 L 238.78,398.24 L 238.78,398.27 L 238.78,398.30 L 238.77,398.33 L 238.78,398.38 L 238.78,398.43 L 238.79,398.48 L 238.80,398.54 L 238.82,398.56 L 238.84,398.57 L 238.86,398.61 L 238.87,398.63 L 238.88,398.64 L 238.89,398.67 L 238.92,398.71 L 238.94,398.72 L 238.95,398.73 L 238.96,398.75 L 238.99,398.80 L 238.99,398.82 L 238.99,398.83 L 238.99,398.86 L 239.00,398.88 L 239.00,398.89 L 239.01,398.92 L 239.01,398.92 L 239.03,398.93 L 239.06,398.93 L 239.07,398.93 L 239.09,398.95 L 239.15,398.98 L 239.17,398.99 L 239.19,399.03 L 239.20,399.05 L 239.22,399.07 L 239.23,399.09 L 239.26,399.10 L 239.28,399.12 L 239.30,399.14 L 239.32,399.17 L 239.33,399.19 L 239.38,399.23 L 239.39,399.23 L 239.41,399.24 L 239.42,399.25 L 239.43,399.26 L 239.47,399.27 L 239.53,399.28 L 239.50,399.34 L 239.48,399.37 L 239.47,399.40 L 239.45,399.45 L 239.45,399.47 L 239.40,399.58 L 239.38,399.65 L 239.36,399.68 L 239.32,399.72 L 239.25,399.82 L 239.23,399.83 L 239.23,399.86 L 239.22,399.90 L 239.23,399.96 L 239.24,400.02 L 239.24,400.04 L 239.25,400.09 L 239.30,400.18 L 239.36,400.36 L 239.41,400.38 L 239.46,400.44 L 239.51,400.49 L 239.55,400.52 L 239.58,400.54 L 239.61,400.57 L 239.65,400.60 L 239.67,400.63 L 239.71,400.69 L 239.72,400.77 L 239.73,400.86 L 239.75,400.91 L 239.78,400.95 L 239.88,401.05 L 239.92,401.09 L 239.95,401.12 L 240.01,401.16 L 240.05,401.20 L 240.11,401.27 L 240.14,401.31 L 240.18,401.34 L 240.22,401.38 L 240.28,401.43 L 240.31,401.46 L 240.35,401.50 L 240.34,401.52 L 240.33,401.55 L 240.33,401.59 L 240.35,401.62 L 240.41,401.68 L 240.41,401.70 L 240.37,401.75 L 240.35,401.80 L 240.33,401.86 L 240.32,401.89 L 240.31,401.92 L 240.31,401.94 L 240.29,401.95 L 240.26,401.94 L 240.25,401.94 L 240.23,401.95 L 240.23,401.96 L 240.23,401.99 L 240.24,402.04 L 240.25,402.10 L 240.25,402.12 L 240.25,402.15 L 240.25,402.17 L 240.22,402.33 L 240.21,402.37 L 240.20,402.39 L 240.19,402.40 L 240.16,402.40 L 240.12,402.40 L 240.09,402.40 L 240.03,402.46 L 239.98,402.50 L 239.90,402.54 L 239.88,402.56 L 239.86,402.56 L 239.84,402.58 L 239.83,402.58 L 239.81,402.60 L 239.76,402.59 L 239.67,402.58 L 239.64,402.58 L 239.63,402.59 L 239.62,402.60 L 239.65,402.69 L 239.68,402.75 L 239.69,402.78 L 239.69,402.80 L 239.67,402.85 L 239.69,402.89 L 239.71,402.95 L 239.76,402.99 L 239.79,403.06 L 239.81,403.13 L 239.84,403.15 L 239.90,403.20 L 239.82,403.35 L 239.91,403.53 L 239.95,403.53 L 239.99,403.61 L 240.10,403.57 L 240.09,403.50 L 240.12,403.48 L 240.10,403.37 L 240.05,403.36 L 240.06,403.13 L 240.09,403.13 L 240.14,403.42 L 240.22,403.57 L 240.23,403.61 L 240.25,403.65 L 240.26,403.67 L 240.27,403.69 L 240.27,403.71 L 240.25,403.74 L 240.21,403.78 L 240.18,403.79 L 240.17,403.79 L 240.19,403.91 L 240.21,403.94 L 240.23,403.98 L 240.25,404.02 L 240.28,404.07 L 240.25,404.12 L 240.24,404.15 L 240.23,404.18 L 240.28,404.22 L 240.30,404.25 L 240.31,404.27 L 240.31,404.29 L 240.31,404.32 L 240.30,404.36 L 240.27,404.41 L 240.26,404.45 L 240.24,404.50 L 240.23,404.53 L 240.20,404.58 L 240.19,404.60 L 240.18,404.62 L 240.18,404.63 L 240.19,404.66 L 240.21,404.72 L 240.23,404.75 L 240.24,404.78 L 240.25,404.81 L 240.26,404.83 L 240.27,404.87 L 240.28,404.89 L 240.30,404.92 L 240.32,404.95 L 240.34,404.96 L 240.36,404.98 L 240.37,405.00 L 240.38,405.02 L 240.39,405.03 L 240.45,405.05 L 240.51,405.08 L 240.56,405.12 L 240.63,405.16 L 240.58,405.21 L 240.46,405.33 L 240.53,405.46 L 240.33,405.64 L 240.26,405.68 L 240.22,405.71 L 240.17,405.74 L 240.15,405.74 L 240.13,405.71 L 240.11,405.66 L 240.09,405.65 L 240.06,405.66 L 240.03,405.67 L 240.01,405.68 L 239.99,405.69 L 239.95,405.70 L 239.92,405.70 L 239.88,405.69 L 239.86,405.67 L 239.84,405.63 L 239.83,405.58 L 239.82,405.53 L 239.76,405.51 L 239.71,405.51 L 239.67,405.60 L 239.66,405.63 L 239.65,405.65 L 239.62,405.69 L 239.56,405.69 L 239.55,405.68 L 239.50,405.67 L 239.48,405.66 L 239.47,405.65 L 239.45,405.63 L 239.33,405.76 L 239.46,405.98 L 239.51,406.03 L 239.52,406.09 L 239.47,406.12 L 239.44,406.17 L 239.45,406.24 L 239.46,406.32 L 239.46,406.35 L 239.48,406.42 L 239.48,406.43 L 239.49,406.43 L 239.59,406.40 L 239.65,406.41 L 239.70,406.44 L 239.72,406.46 L 239.72,406.47 L 239.74,406.49 L 239.79,406.49 L 239.83,406.50 L 239.89,406.50 L 239.91,406.49 L 239.95,406.47 L 239.97,406.46 L 239.99,406.45 L 240.00,406.46 L 240.04,406.48 L 240.08,406.49 L 240.11,406.47 L 240.13,406.44 L 240.13,406.43 L 240.18,406.43 L 240.23,406.46 L 240.26,406.44 L 240.31,406.41 L 240.35,406.41 L 240.37,406.41 L 240.39,406.42 L 240.41,406.49 L 240.42,406.50 L 240.47,406.47 L 240.50,406.46 L 240.54,406.46 L 240.56,406.47 L 240.58,406.48 L 240.63,406.49 L 240.65,406.48 L 240.68,406.44 L 240.69,406.41 L 240.72,406.34 L 240.80,406.24 L 240.82,406.22 L 240.85,406.18 L 240.87,406.17 L 240.88,406.19 L 240.90,406.17 L 240.95,406.15 L 241.01,406.18 L 241.07,406.21 L 241.14,406.25 L 241.16,406.26 L 241.18,406.26 L 241.19,406.26 L 241.22,406.26 L 241.25,406.26 L 241.27,406.25 L 241.28,406.23 L 241.29,406.21 L 241.30,406.18 L 241.32,406.15 L 241.32,406.14 L 241.33,406.14 L 241.38,406.16 L 241.46,406.17 L 241.51,406.26 L 241.62,406.51 L 241.62,406.54 L 241.63,406.57 L 241.62,406.61 L 241.61,406.63 L 241.61,406.65 L 241.61,406.67 L 241.62,406.68 L 241.63,406.70 L 241.63,406.71 L 241.63,406.73 L 241.62,406.75 L 241.61,406.78 L 241.60,406.80 L 241.60,406.82 L 241.61,406.83 L 241.63,406.84 L 241.67,406.86 L 241.69,406.88 L 241.70,406.90 L 241.69,406.92 L 241.68,406.94 L 241.67,406.96 L 241.64,406.98 L 241.64,406.99 L 241.64,407.01 L 241.65,407.02 L 241.66,407.05 L 241.68,407.08 L 241.70,407.11 L 241.70,407.13 L 241.69,407.15 L 241.68,407.17 L 241.67,407.19 L 241.66,407.21 L 241.64,407.24 L 241.63,407.25 L 241.62,407.27 L 241.62,407.29 L 241.62,407.30 L 241.63,407.31 L 241.65,407.33 L 241.69,407.37 L 241.73,407.40 L 241.76,407.42 L 241.78,407.44 L 241.79,407.46 L 241.80,407.47 L 241.82,407.49 L 241.86,407.54 L 241.91,407.53 L 241.98,407.51 L 242.02,407.51 L 242.10,407.54 L 242.22,407.57 L 242.35,407.60 L 242.44,407.62 L 242.54,407.67 L 242.69,407.59 L 242.78,407.43 L 242.83,407.36 L 242.86,407.31 L 242.89,407.25 L 242.94,407.13 L 242.98,407.20 L 243.08,407.31 L 243.10,407.34 L 243.12,407.38 L 243.15,407.41 L 243.19,407.44 L 243.26,407.48 L 243.41,407.54 L 243.64,407.55 L 243.68,407.53 L 243.72,407.51 L 243.75,407.48 L 243.77,407.49 L 243.84,407.53 L 243.87,407.55 L 243.91,407.58 L 243.95,407.65 L 243.97,407.71 L 244.00,407.79 L 244.03,407.84 L 244.06,407.89 L 244.09,407.93 L 244.12,407.96 L 244.16,407.99 L 244.19,408.02 L 244.22,408.03 L 244.24,408.05 L 244.30,408.06 L 244.33,408.08 L 244.36,408.09 L 244.38,408.11 L 244.39,408.14 L 244.42,408.17 L 244.44,408.21 L 244.46,408.24 L 244.46,408.27 L 244.47,408.30 L 244.49,408.32 L 244.50,408.35 L 244.53,408.36 L 244.54,408.37 L 244.56,408.38 L 244.59,408.41 L 244.78,408.62 L 244.87,408.71 L 244.93,408.77 L 245.07,408.92 L 245.08,408.95 L 245.10,409.01 L 245.13,409.07 L 245.15,409.10 L 245.18,409.14 L 245.20,409.18 L 245.23,409.27 L 245.24,409.31 L 245.26,409.44 L 245.28,409.56 L 245.29,409.57 L 245.30,409.58 L 245.39,409.59 L 245.76,409.61 L 245.79,409.60 L 245.86,409.53 L 245.89,409.51 L 245.90,409.50 L 245.91,409.50 L 245.93,409.51 L 246.02,409.58 L 246.05,409.58 L 246.07,409.57 L 246.10,409.54 L 246.14,409.52 L 246.19,409.49 L 246.25,409.48 L 246.34,409.48 L 246.48,409.49 L 246.51,409.48 L 246.55,409.48 L 246.61,409.45 L 246.73,409.43 L 246.76,409.43 L 246.77,409.43 L 246.80,409.40 L 246.83,409.35 L 246.85,409.32 L 246.87,409.25 L 246.87,409.19 L 246.88,409.14 L 246.88,409.10 L 246.89,409.07 L 246.90,409.04 L 246.92,408.98 L 246.93,408.94 L 246.95,408.87 L 246.97,408.80 L 246.98,408.76 L 247.01,408.65 L 247.03,408.57 L 247.03,408.56 L 247.04,408.56 L 247.05,408.54 L 247.06,408.53 L 247.08,408.51 L 247.10,408.48 L 247.14,408.44 L 247.16,408.39 L 247.16,408.36 L 247.16,408.33 L 247.14,408.28 L 247.12,408.23 L 247.10,408.19 L 247.11,408.14 L 247.11,408.10 L 247.12,408.05 L 247.12,408.03 L 247.11,407.95 L 247.12,407.90 L 247.13,407.87 L 247.14,407.84 L 247.17,407.82 L 247.23,407.72 L 247.31,407.58 L 247.37,407.49 L 247.39,407.49 L 247.42,407.51 L 247.43,407.52 L 247.44,407.55 L 247.44,407.58 L 247.45,407.60 L 247.46,407.61 L 247.50,407.62 L 247.54,407.52 L 247.45,407.44 L 247.45,407.42 L 247.53,407.32 L 247.61,407.28 L 247.64,407.26 L 247.72,407.19 L 247.68,407.17 L 247.62,407.15 L 247.55,407.13 L 247.52,407.10 L 247.47,407.06 L 247.44,407.03 L 247.40,406.95 L 247.38,406.92 L 247.38,406.89 L 247.38,406.86 L 247.39,406.81 L 247.41,406.77 L 247.43,406.75 L 247.49,406.68 L 247.58,406.62 L 247.69,406.55 L 247.70,406.54 L 247.71,406.53 L 247.72,406.52 L 247.73,406.52 L 247.73,406.51 L 247.74,406.50 L 247.75,406.49 L 247.76,406.48 L 247.77,406.46 L 247.77,406.45 L 247.78,406.44 L 247.78,406.43 L 247.79,406.43 L 247.79,406.42 L 247.79,406.41 L 247.79,406.40 L 247.79,406.40 L 247.79,406.39 L 247.79,406.38 L 247.79,406.37 L 247.79,406.37 L 247.79,406.36 L 247.78,406.35 L 247.78,406.34 L 247.78,406.34 L 247.78,406.33 L 247.79,406.33 L 247.80,406.33 L 247.81,406.33 L 247.81,406.33 L 247.82,406.33 L 247.83,406.32 L 247.83,406.32 L 247.83,406.32 L 247.84,406.32 L 247.84,406.31 L 247.85,406.31 L 247.85,406.31 L 247.86,406.31 L 247.86,406.32 L 247.87,406.32 L 247.87,406.32 L 247.87,406.33 L 247.88,406.33 L 247.89,406.33 L 247.89,406.33 L 247.90,406.34 L 247.90,406.33 L 247.90,406.32 L 247.91,406.31 L 247.91,406.31 L 247.91,406.30 L 247.90,406.29 L 247.90,406.28 L 247.89,406.26 L 247.89,406.25 L 247.88,406.24 L 247.88,406.24 L 247.86,406.22 L 247.86,406.21 L 247.85,406.20 L 247.84,406.20 L 247.84,406.19 L 247.83,406.18 L 247.83,406.18 L 247.83,406.18 L 247.83,406.17 L 247.83,406.16 L 247.83,406.16 L 247.84,406.16 L 247.83,406.15 L 247.83,406.14 L 247.82,406.13 L 247.82,406.12 L 247.81,406.12 L 247.81,406.10 L 247.81,406.09 L 247.81,406.08 L 247.81,406.08 L 247.82,406.07 L 247.81,406.05 L 247.81,406.03 L 247.81,406.02 L 247.82,406.02 L 247.82,406.01 L 247.82,406.01 L 247.83,406.01 L 247.83,406.00 L 247.85,406.00 L 247.86,405.99 L 247.87,405.99 L 247.88,405.99 L 247.88,405.98 L 247.89,405.98 L 247.89,405.97 L 247.89,405.96 L 247.90,405.95 L 247.88,405.95 L 247.87,405.94 L 247.80,405.93 L 247.80,405.89 L 247.74,405.90 L 247.72,405.75 L 247.69,405.76 L 247.69,405.74 L 247.69,405.72 L 247.69,405.71 L 247.70,405.69 L 247.70,405.68 L 247.71,405.65 L 247.72,405.62 L 247.79,405.49 L 247.80,405.47 L 247.81,405.44 L 247.83,405.44 L 247.85,405.43 L 247.86,405.42 L 247.90,405.39 L 247.92,405.37 L 247.94,405.35 L 247.98,405.31 L 248.01,405.29 L 248.09,405.22 L 248.11,405.20 L 248.16,405.17 L 248.17,405.16 L 248.19,405.15 L 248.21,405.15 L 248.23,405.14 L 248.23,405.12 L 248.26,405.12 L 248.28,405.11 L 248.46,405.00 L 248.50,404.98 L 248.53,404.97 L 248.56,404.95 L 248.57,404.94 L 248.80,404.80 L 248.85,404.77 L 248.88,404.74 L 248.91,404.71 L 248.95,404.65 L 248.96,404.62 L 248.98,404.58 L 248.99,404.55 L 248.98,404.50 L 248.96,404.47 L 248.95,404.45 L 248.91,404.43 L 248.81,404.39 L 248.72,404.35 L 248.71,404.35 L 248.65,404.33 L 248.59,404.29 L 248.56,404.26 L 248.49,404.20 L 248.45,404.14 L 248.42,404.09 L 248.34,403.97 L 248.28,403.91 L 248.16,403.78 L 248.17,403.77 L 248.18,403.77 L 248.19,403.76 L 248.18,403.76 L 248.30,403.70 L 248.30,403.70 L 248.32,403.70 L 248.33,403.70 L 248.35,403.70 L 248.36,403.70 L 248.36,403.56 L 248.39,403.56 L 248.54,403.60 L 248.54,403.57 L 248.69,403.62 L 248.69,403.65 L 248.83,403.69 L 248.82,403.74 L 248.84,403.74 L 248.85,403.75 L 248.86,403.76 L 248.89,403.76 L 248.95,403.79 L 248.97,403.73 L 249.30,403.85 L 249.29,403.87 L 249.35,403.88 L 249.34,403.92 L 249.36,403.92 L 249.34,404.00 L 249.49,404.07 L 249.50,404.06 L 249.56,404.11 L 249.61,404.15 L 249.62,404.15 L 249.66,404.18 L 249.67,404.18 L 249.80,404.28 L 249.84,404.24 L 249.93,404.38 L 249.95,404.41 L 249.98,404.46 L 250.01,404.50 L 250.05,404.55 L 250.09,404.59 L 250.12,404.62 L 250.15,404.65 L 250.17,404.66 L 250.21,404.69 L 250.27,404.72 L 250.34,404.74 L 250.39,404.75 L 250.43,404.75 L 250.50,404.76 L 250.57,404.76 L 250.62,404.75 L 250.63,404.75 L 250.68,404.73 L 250.74,404.72 L 250.78,404.71 L 250.82,404.72 L 250.89,404.73 L 250.97,404.75 L 251.01,404.76 L 251.11,404.81 L 251.22,404.84 L 251.30,404.85 L 251.42,404.86 L 251.50,404.86 L 251.59,404.84 L 251.68,404.81 L 251.75,404.79 L 251.91,404.72 L 252.03,404.66 L 252.13,404.61 L 252.21,404.56 L 252.22,404.55 L 252.23,404.54 L 252.30,404.50 L 252.40,404.41 L 252.46,404.36 L 252.50,404.32 L 252.50,404.22 L 252.50,404.09 L 252.50,403.99 L 252.50,403.72 L 252.48,403.60 L 252.48,403.48 L 252.48,403.43 L 252.50,403.34 L 252.50,403.29 L 252.56,403.29 L 252.60,403.30 L 252.65,403.33 L 252.71,403.37 L 252.75,403.42 L 252.91,403.55 L 253.04,403.55 L 253.03,403.32 L 253.14,403.29 L 253.15,403.30 L 253.19,403.28 L 253.46,403.12 L 253.55,403.08 L 253.55,403.06 L 253.71,402.96 L 253.75,403.02 L 253.82,402.92 L 253.85,402.86 L 253.89,402.86 L 254.02,402.82 L 254.45,402.65 L 254.55,402.61 L 254.69,402.61 L 254.91,402.59 L 254.97,402.56 L 255.06,402.53 L 255.11,402.50 L 255.17,402.50 L 255.19,402.51 L 255.23,402.54 L 255.30,402.64 L 255.33,402.70 L 255.37,402.84 L 255.37,403.30 L 255.37,403.36 L 255.36,403.41 L 255.31,403.48 L 255.23,403.55 L 255.17,403.60 L 255.16,403.70 L 255.15,403.76 L 255.17,403.89 L 255.19,403.95 L 255.25,404.07 L 255.28,404.12 L 255.36,404.18 L 255.50,404.26 L 255.78,404.32 L 255.93,404.36 L 255.98,404.37 L 256.01,404.39 L 256.02,404.34 L 256.02,404.33 L 255.98,404.23 L 255.95,404.14 L 255.95,404.11 L 255.95,404.06 L 255.95,404.03 L 255.97,403.98 L 256.00,403.91 L 256.03,403.88 L 256.13,403.76 L 256.21,403.70 L 256.31,403.63 L 256.36,403.60 L 256.39,403.59 L 256.42,403.57 L 256.47,403.55 L 256.53,403.53 L 256.65,403.51 L 256.75,403.50 L 256.94,403.50 L 257.01,403.49 L 257.09,403.48 L 257.11,403.48 L 257.14,403.43 L 257.15,403.38 L 257.18,403.24 L 257.19,403.12 L 257.19,403.10 L 257.19,403.08 L 257.17,403.05 L 257.16,403.02 L 257.16,403.01 L 257.17,402.99 L 257.18,402.97 L 257.21,402.94 L 257.23,402.91 L 257.26,402.88 L 257.28,402.85 L 257.31,402.82 L 257.33,402.80 L 257.37,402.75 L 257.40,402.73 L 257.43,402.70 L 257.45,402.67 L 257.46,402.66 L 257.49,402.63 L 257.52,402.58 L 257.58,402.58 L 257.60,402.56 L 257.66,402.52 L 257.74,402.46 L 257.76,402.44 L 257.78,402.42 L 257.80,402.38 L 257.81,402.37 L 257.81,402.35 L 257.82,402.34 L 257.85,402.38 L 257.86,402.40 L 257.86,402.41 L 257.85,402.42 L 257.86,402.43 L 257.85,402.45 L 257.89,402.48 L 257.97,402.54 L 258.02,402.47 L 258.09,402.52 L 257.95,402.70 L 258.08,402.79 L 258.24,402.72 L 258.16,402.53 L 258.14,402.50 L 258.10,402.46 L 258.05,402.43 L 258.07,402.35 L 258.03,402.37 L 257.95,402.14 L 257.92,402.06 L 257.99,402.03 L 257.98,402.01 L 258.27,401.87 L 258.25,401.82 L 258.27,401.81 L 258.14,401.56 L 258.22,401.50 L 258.33,401.43 L 258.44,401.37 L 258.47,401.35 L 258.48,401.34 L 258.52,401.29 L 258.61,401.14 L 258.42,401.14 L 258.38,401.15 L 258.31,401.15 L 258.22,401.15 L 258.12,401.15 L 258.06,401.15 L 257.92,401.16 L 257.82,401.16 L 257.76,401.17 L 257.72,401.19 L 257.64,401.23 L 257.63,401.29 L 257.50,401.35 L 257.40,401.39 L 257.32,401.41 L 257.32,401.41 L 257.24,401.44 L 257.19,401.45 L 257.12,401.45 L 257.06,401.44 L 256.96,401.43 L 256.90,401.41 L 256.87,401.38 L 256.87,401.38 L 256.84,401.30 L 256.82,401.23 L 256.79,401.15 L 256.76,401.07 L 256.74,401.00 L 256.70,400.89 L 256.66,400.81 L 256.64,400.74 L 256.60,400.61 L 256.57,400.50 L 256.45,400.18 L 256.43,400.12 L 256.39,399.99 L 256.35,399.89 L 256.48,399.54 L 256.58,399.34 L 256.51,398.84 L 256.54,398.25 L 256.54,398.12 L 256.55,398.01 L 256.55,397.89 L 256.55,397.81 L 256.55,397.79 L 256.55,397.73 L 256.57,397.65 L 256.59,397.49 L 256.60,397.30 L 256.60,397.20 L 256.60,397.18 L 256.57,397.09 L 256.54,397.04 L 256.51,396.97 L 256.44,396.87 L 256.35,396.76 L 256.30,396.72 L 256.24,396.67 L 256.14,396.61 L 255.98,396.56 L 255.83,396.51 L 255.78,396.50 L 255.75,396.49 L 255.70,396.48 L 255.51,396.44 L 255.39,396.42 L 255.14,396.39 L 254.98,396.37 L 254.85,396.34 L 254.69,396.29 L 254.56,396.24 L 254.41,396.18 L 254.38,396.17 L 254.38,396.16 L 254.33,396.14 L 254.32,396.13 L 254.24,396.07 L 254.17,395.99 L 254.06,395.88 L 253.99,395.79 L 253.96,395.75 L 253.96,395.74 L 253.85,395.57 L 253.80,395.47 L 253.70,395.25 L 253.65,395.10 L 253.64,395.06 L 253.62,395.01 L 253.60,394.95 L 253.58,394.91 L 253.54,394.79 L 253.52,394.73 L 253.44,394.47 L 253.42,394.41 L 253.41,394.36 L 253.39,394.30 L 253.37,394.23 L 253.36,394.18 L 253.34,394.12 L 253.34,394.09 L 253.34,394.05 L 253.34,394.04 L 253.34,393.98 L 253.33,393.93 L 253.33,393.84 L 253.33,393.77 L 253.33,393.76 L 253.33,393.72 L 253.33,393.66 L 253.34,393.59 L 253.35,393.53 L 253.40,393.37 L 253.44,393.25 L 253.45,393.22 L 253.46,393.19 L 253.49,393.12 L 253.53,393.02 L 253.54,393.00 L 253.58,392.93 L 253.63,392.85 L 253.68,392.80 L 253.76,392.74 L 253.78,392.72 L 253.81,392.70 L 253.91,392.63 L 254.02,392.56 L 254.11,392.52 L 254.24,392.46 L 254.34,392.41 L 254.51,392.33 L 254.55,392.30 L 254.61,392.23 L 254.65,392.15 L 254.71,392.02 L 254.74,391.91 L 254.75,391.81 L 254.76,391.74 L 254.77,391.66 L 254.77,391.57 L 254.77,391.50 L 254.77,391.48 L 254.76,391.41 L 254.73,391.31 L 254.69,391.20 L 254.68,391.19 L 254.64,391.12 L 254.59,391.03 L 254.56,390.95 L 254.50,390.88 L 254.44,390.84 L 254.34,390.78 L 254.27,390.76 L 254.21,390.74 L 254.14,390.73 L 254.14,390.73 L 254.10,390.71 L 254.01,390.62 L 253.95,390.55 L 253.88,390.48 L 253.76,390.40 L 253.57,390.27 L 253.56,390.26 L 253.39,390.17 L 253.27,390.10 L 253.26,390.09 L 253.17,390.05 L 253.06,390.00 L 252.90,389.92 L 252.76,389.85 L 252.68,389.81 L 252.64,389.79 L 252.63,389.78 L 252.56,389.73 L 252.55,389.71 L 252.51,389.66 L 252.50,389.62 L 252.48,389.58 L 252.46,389.50 L 252.46,389.42 L 252.46,389.35 L 252.48,389.30 L 252.51,389.22 L 252.53,389.17 L 252.58,389.11 L 252.63,389.04 L 252.67,388.98 L 252.79,388.88 L 252.88,388.82 L 252.97,388.77 L 253.17,388.59 L 253.31,388.43 L 253.39,388.33 L 253.44,388.25 L 253.46,388.19 L 253.46,388.14 L 253.46,388.12 L 253.46,388.08 L 253.45,388.00 L 253.44,387.95 L 253.41,387.90 L 253.36,387.84 L 253.35,387.82 L 253.28,387.76 L 253.20,387.69 L 253.38,387.48 L 253.43,387.40 L 253.50,387.30 L 253.62,387.12 L 253.54,387.07 L 253.56,387.03 L 253.52,387.00 L 253.49,386.98 L 253.41,386.96 L 253.38,386.94 L 253.34,386.86 L 253.31,386.80 L 253.29,386.74 L 253.21,386.68 L 253.11,386.59 L 253.01,386.52 L 252.89,386.43 L 252.95,386.32 L 252.99,386.26 L 253.02,386.17 L 253.04,386.05 L 253.03,386.04 L 253.04,386.01 L 253.07,385.93 L 253.11,385.81 L 253.14,385.76 L 253.14,385.74 L 253.17,385.60 L 253.19,385.51 L 253.23,385.45 L 253.25,385.39 L 253.35,385.22 L 253.41,385.09 L 253.42,384.99 L 253.47,385.00 L 253.48,384.90 L 253.47,384.86 L 253.46,384.82 L 253.48,384.83 L 253.52,384.83 L 253.52,384.80 L 253.53,384.80 L 253.53,384.78 L 253.55,384.78 L 253.55,384.77 L 253.56,384.77 L 253.56,384.75 L 253.60,384.75 L 253.63,384.74 L 253.69,384.74 L 253.76,384.74 L 253.77,384.70 L 253.84,384.70 L 253.84,384.77 L 254.00,384.76 L 254.00,384.76 L 254.00,384.70 L 254.10,384.70 L 254.12,384.70 L 254.11,384.77 L 254.37,384.87 L 254.44,384.89 L 254.53,384.82 L 254.65,384.94 L 254.71,385.00 L 254.77,385.06 L 254.80,385.05 L 254.85,385.04 L 254.90,385.03 L 254.93,385.09 L 254.97,385.10 L 254.97,385.17 L 255.13,385.14 L 255.23,385.13 L 255.34,385.11 L 255.43,385.09 L 255.43,385.10 L 255.43,385.12 L 255.44,385.15 L 255.47,385.14 L 255.47,385.17 L 255.48,385.17 L 255.48,385.18 L 255.48,385.19 L 255.49,385.20 L 255.48,385.22 L 255.47,385.22 L 255.47,385.23 L 255.48,385.23 L 255.53,385.23 L 255.53,385.25 L 255.55,385.25 L 255.56,385.24 L 255.56,385.22 L 255.58,385.22 L 255.58,385.24 L 255.61,385.24 L 255.63,385.25 L 255.66,385.25 L 255.67,385.25 L 255.67,385.23 L 255.69,385.23 L 255.69,385.18 L 255.72,385.17 L 255.72,385.20 L 255.74,385.20 L 255.74,385.20 L 255.75,385.19 L 255.76,385.18 L 255.77,385.16 L 255.78,385.16 L 255.78,385.17 L 255.78,385.17 L 255.80,385.18 L 255.83,385.19 L 255.83,385.19 L 255.84,385.19 L 255.84,385.18 L 255.86,385.19 L 255.86,385.19 L 255.86,385.20 L 255.86,385.21 L 255.87,385.22 L 255.89,385.22 L 255.89,385.19 L 255.90,385.18 L 255.90,385.17 L 255.90,385.16 L 255.91,385.16 L 255.94,385.17 L 255.94,385.28 L 256.08,385.29 L 256.08,385.36 L 256.13,385.39 L 256.21,385.42 L 256.21,385.41 L 256.28,385.44 L 256.35,385.45 L 256.38,385.30 L 256.37,385.30 L 256.37,385.21 L 256.37,385.17 L 256.42,385.17 L 256.41,385.11 L 256.39,384.90 L 256.26,384.84 L 256.30,384.76 L 256.20,384.69 L 256.29,384.42 L 256.25,384.36 L 256.24,384.35 L 256.24,384.35 L 256.26,384.30 L 256.33,384.31 L 256.32,384.29 L 256.31,384.25 L 256.41,384.19 L 256.41,384.12 L 256.35,384.17 L 256.30,384.09 L 256.31,384.07 L 256.26,384.02 L 256.20,383.94 L 256.21,383.89 L 256.35,383.80 L 256.41,383.77 L 256.44,383.80 L 256.48,383.77 L 256.49,383.76 L 256.62,383.91 L 256.72,383.88 L 256.81,383.85 L 256.82,383.72 L 256.82,383.69 L 256.82,383.63 L 256.81,383.61 L 256.80,383.60 L 256.77,383.56 L 256.75,383.51 L 256.78,383.46 L 256.77,383.45 L 256.79,383.43 L 256.79,383.41 L 256.80,383.40 L 256.85,383.45 L 256.89,383.45 L 256.92,383.42 L 257.01,383.34 L 257.04,383.35 L 257.12,383.27 L 257.19,383.32 L 257.31,383.37 L 257.34,383.38 L 257.36,383.40 L 257.41,383.42 L 257.44,383.42 L 257.49,383.42 L 257.52,383.42 L 257.55,383.42 L 257.59,383.42 L 257.61,383.41 L 257.68,383.39 L 257.70,383.37 L 257.70,383.37 L 257.74,383.34 L 257.82,383.28 L 257.87,383.24 L 257.89,383.20 L 257.92,383.15 L 258.06,383.18 L 258.14,383.20 L 258.18,383.21 L 258.29,383.22 L 258.33,383.23 L 258.34,383.23 L 258.35,383.23 L 258.35,383.23 L 258.37,383.23 L 258.37,383.23 L 258.38,383.23 L 258.38,383.22 L 258.39,383.18 L 258.39,383.16 L 258.40,383.17 L 258.41,383.15 L 258.42,383.15 L 258.42,383.15 L 258.43,383.15 L 258.41,383.10 L 258.40,383.06 L 258.36,382.96 L 258.31,382.83 L 258.44,382.82 L 258.49,382.78 L 258.58,382.77 L 258.64,382.76 L 258.66,382.75 L 258.67,382.59 L 258.88,382.60 L 258.89,382.59 L 258.95,382.57 L 258.96,382.56 L 258.95,382.53 L 258.95,382.51 L 258.94,382.48 L 258.93,382.47 L 258.92,382.47 L 258.91,382.47 L 258.90,382.47 L 258.86,382.48 L 258.80,382.51 L 258.76,382.52 L 258.74,382.52 L 258.71,382.53 L 258.70,382.53 L 258.69,382.53 L 258.67,382.52 L 258.66,382.52 L 258.71,382.43 L 258.65,382.38 L 258.77,382.25 L 258.77,382.24 L 258.76,382.24 L 258.66,382.19 L 258.65,382.19 L 258.65,382.19 L 258.64,382.18 L 258.64,382.17 L 258.66,382.10 L 258.66,382.10 L 258.60,382.07 L 258.60,382.06 L 258.59,382.05 L 258.61,382.02 L 258.63,381.92 L 258.64,381.90 L 258.78,381.74 L 258.92,381.73 L 258.75,381.48 L 259.09,381.40 L 259.10,381.38 L 259.23,381.21 L 259.29,381.13 L 259.40,380.98 L 259.44,380.92 L 259.47,380.85 L 259.50,380.79 L 259.52,380.73 L 259.52,380.68 L 259.50,380.55 L 259.50,380.49 L 259.51,380.34 L 259.42,380.29 L 259.30,380.22 L 259.22,380.17 L 259.19,380.15 L 259.24,380.05 L 259.24,380.04 L 259.15,379.99 L 259.15,379.98 L 259.14,379.97 L 259.20,379.83 L 259.14,379.81 L 259.09,379.79 L 259.01,379.77 L 259.03,379.71 L 259.00,379.71 L 258.99,379.72 L 258.98,379.72 L 258.96,379.72 L 258.94,379.83 L 258.85,379.86 L 258.85,379.79 L 258.84,379.73 L 258.84,379.72 L 258.85,379.69 L 258.81,379.64 L 258.84,379.60 L 258.86,379.52 L 258.89,379.46 L 258.92,379.43 L 258.86,379.30 L 258.74,379.40 L 258.71,379.37 L 258.61,379.21 L 258.51,379.07 L 258.51,379.04 L 258.49,378.98 L 258.45,378.99 L 258.44,378.99 L 258.40,378.83 L 258.34,378.71 L 258.21,378.84 L 258.01,379.04 L 257.63,378.98 L 257.52,378.98 L 257.29,378.98 L 257.16,378.97 L 257.15,378.97 L 257.08,378.96 L 256.79,378.90 L 256.58,378.85 L 256.60,378.80 L 256.61,378.77 L 256.61,378.75 L 256.60,378.75 L 256.59,378.75 L 256.58,378.74 L 256.54,378.71 L 256.49,378.66 L 256.47,378.63 L 256.33,378.53 L 256.32,378.52 L 256.32,378.51 L 256.31,378.51 L 256.31,378.51 L 256.30,378.51 L 256.23,378.49 L 256.13,377.88 L 256.12,377.86 L 256.01,377.68 L 255.88,377.74 L 255.31,378.07 L 255.24,378.05 L 255.18,378.08 L 255.00,378.17 L 254.98,378.05 L 254.96,377.96 L 254.95,377.91 L 254.97,377.89 L 254.98,377.87 L 254.96,377.85 L 255.00,377.83 L 254.96,377.79 L 255.00,377.77 L 254.97,377.70 L 254.93,377.63 L 254.88,377.54 L 254.80,377.57 L 254.77,377.51 L 254.76,377.45 L 254.74,377.45 L 254.67,377.37 L 254.69,377.35 L 254.70,377.28 L 254.73,377.20 L 254.78,377.07 L 254.72,377.04 L 254.71,377.05 L 254.65,376.98 L 254.66,376.97 L 254.62,376.93 L 254.70,376.86 L 254.65,376.76 L 254.64,376.75 L 254.48,376.62 L 254.49,376.61 L 254.50,376.60 L 254.50,376.57 L 254.50,376.55 L 254.50,376.54 L 254.49,376.51 L 254.48,376.49 L 254.48,376.48 L 254.46,376.47 L 254.45,376.46 L 254.44,376.45 L 254.43,376.43 L 254.42,376.43 L 254.41,376.43 L 254.40,376.43 L 254.39,376.44 L 254.38,376.42 L 254.37,376.42 L 254.36,376.43 L 254.35,376.42 L 254.32,376.41 L 254.30,376.40 L 254.28,376.40 L 254.27,376.45 L 254.13,376.35 L 254.17,376.28 L 254.14,376.25 L 254.12,376.25 L 254.10,376.23 L 254.06,376.21 L 254.01,376.19 L 253.95,376.17 L 253.92,376.16 L 254.04,375.94 L 254.05,375.94 L 254.07,375.92 L 254.04,375.91 L 254.04,375.90 L 254.00,375.87 L 254.00,375.90 L 253.94,376.04 L 253.89,376.02 L 253.83,376.00 L 253.82,376.00 L 253.81,376.01 L 253.80,376.01 L 253.78,376.01 L 253.76,376.00 L 253.74,376.00 L 253.71,376.00 L 253.60,376.01 L 253.59,375.82 L 253.54,375.83 L 253.53,375.82 L 253.53,375.78 L 253.50,375.78 L 253.50,375.77 L 253.55,375.76 L 253.51,375.69 L 253.51,375.67 L 253.45,375.56 L 253.53,375.50 L 253.55,375.53 L 253.57,375.55 L 253.57,375.55 L 253.58,375.55 L 253.62,375.52 L 253.61,375.51 L 253.81,375.34 L 253.73,375.21 L 253.81,375.15 L 253.88,375.09 L 253.96,375.01 L 254.06,375.15 L 254.11,375.13 L 254.11,375.08 L 254.15,375.06 L 254.16,374.95 L 254.07,374.84 L 254.21,374.70 L 254.15,374.63 L 254.21,374.59 L 254.22,374.51 L 254.21,374.52 L 254.24,374.45 L 254.15,374.42 L 254.17,374.31 L 254.06,374.29 L 254.05,374.29 L 254.02,374.20 L 253.97,374.01 L 253.92,373.94 L 253.89,373.89 L 253.83,373.80 L 253.84,373.78 L 253.86,373.75 L 253.88,373.73 L 253.90,373.65 L 253.92,373.54 L 253.96,373.48 L 254.02,373.41 L 253.99,373.40 L 253.98,373.37 L 253.99,373.35 L 254.00,373.32 L 253.97,373.30 L 253.91,373.31 L 253.81,373.32 L 253.79,373.26 L 253.77,373.20 L 253.75,373.17 L 253.75,373.16 L 253.74,373.15 L 253.72,373.13 L 253.72,373.12 L 253.70,373.03 L 253.69,372.98 L 253.73,372.96 L 253.72,372.94 L 253.70,372.95 L 253.69,372.93 L 253.68,372.81 L 253.75,372.81 L 253.76,372.69 L 253.92,372.68 L 253.91,372.59 L 253.91,372.53 L 253.91,372.52 L 253.93,372.51 L 253.95,372.49 L 253.86,372.41 L 253.90,372.36 L 254.06,372.13 L 253.77,371.99 L 253.74,371.97 L 253.63,371.87 L 253.59,371.86 L 253.64,371.76 L 253.51,371.68 L 253.47,371.69 L 253.42,371.68 L 253.42,371.65 L 253.42,371.57 L 253.42,371.57 L 253.41,371.57 L 253.42,371.56 L 253.42,371.55 L 253.24,371.55 L 253.17,371.54 L 253.12,371.55 L 253.12,371.50 L 253.12,371.47 L 253.10,371.42 L 253.12,371.28 L 253.19,371.17 L 253.26,371.06 L 253.29,371.04 L 253.30,371.03 L 253.34,371.02 L 253.36,371.02 L 253.38,371.00 L 253.40,370.98 L 253.41,370.97 L 253.43,370.96 L 253.46,370.95 L 253.48,370.93 L 253.50,370.92 L 253.50,370.91 L 253.51,370.91 L 253.51,370.90 L 253.50,370.89 L 253.50,370.88 L 253.48,370.87 L 253.43,370.84 L 253.39,370.82 L 253.37,370.79 L 253.35,370.78 L 253.33,370.76 L 253.32,370.73 L 253.31,370.72 L 253.30,370.69 L 253.30,370.67 L 253.31,370.64 L 253.32,370.63 L 253.33,370.62 L 253.35,370.61 L 253.37,370.60 L 253.41,370.60 L 253.45,370.60 L 253.50,370.60 L 253.53,370.60 L 253.55,370.61 L 253.56,370.61 L 253.57,370.61 L 253.59,370.60 L 253.59,370.60 L 253.61,370.59 L 253.62,370.58 L 253.62,370.56 L 253.62,370.50 L 253.62,370.40 L 253.62,370.32 L 253.61,370.21 L 253.61,370.17 L 253.61,370.12 L 253.60,370.08 L 253.59,370.04 L 253.58,370.01 L 253.55,369.97 L 253.53,369.92 L 253.51,369.91 L 253.50,369.90 L 253.48,369.88 L 253.45,369.86 L 253.44,369.85 L 253.42,369.83 L 253.41,369.81 L 253.40,369.79 L 253.39,369.74 L 253.38,369.68 L 253.37,369.65 L 253.35,369.62 L 253.34,369.60 L 253.32,369.59 L 253.30,369.58 L 253.29,369.58 L 253.27,369.58 L 253.26,369.59 L 253.25,369.60 L 253.23,369.61 L 253.18,369.67 L 253.14,369.70 L 253.12,369.72 L 253.09,369.73 L 253.06,369.73 L 253.03,369.73 L 253.02,369.73 L 253.01,369.72 L 252.99,369.71 L 252.98,369.70 L 252.98,369.69 L 252.97,369.66 L 252.96,369.63 L 252.96,369.59 L 252.95,369.56 L 252.96,369.51 L 252.96,369.48 L 252.97,369.44 L 252.97,369.42 L 253.01,369.42 L 253.03,369.43 L 253.02,369.39 L 253.05,369.36 L 253.08,369.34 L 253.10,369.32 L 253.11,369.31 L 253.10,369.30 L 253.09,369.31 L 253.08,369.30 L 253.07,369.28 L 253.05,369.25 L 253.03,369.23 L 253.03,369.22 L 253.04,369.22 L 253.03,369.20 L 253.03,369.19 L 253.06,369.19 L 253.07,369.18 L 253.07,369.17 L 253.08,369.16 L 253.08,369.15 L 253.08,369.15 L 253.08,369.15 L 253.09,369.14 L 253.10,369.14 L 253.11,369.13 L 253.11,369.13 L 253.12,369.13 L 253.17,369.16 L 253.20,369.16 L 253.20,369.16 L 253.21,369.16 L 253.22,369.17 L 253.23,369.17 L 253.23,369.17 L 253.24,369.17 L 253.25,369.16 L 253.25,369.14 L 253.26,369.14 L 253.27,369.15 L 253.28,369.15 L 253.29,369.15 L 253.31,369.14 L 253.31,369.15 L 253.32,369.15 L 253.32,369.15 L 253.33,369.15 L 253.35,369.15 L 253.37,369.14 L 253.37,369.15 L 253.38,369.16 L 253.39,369.16 L 253.44,369.20 L 253.45,369.17 L 253.45,369.17 L 253.47,369.14 L 253.48,369.13 L 253.49,369.12 L 253.62,369.13 L 253.65,369.14 L 253.67,369.16 L 253.69,369.17 L 253.72,369.18 L 253.76,369.19 L 253.80,369.19 L 253.81,369.20 L 253.82,369.19 L 253.83,369.19 L 253.85,369.18 L 253.88,369.16 L 253.90,369.13 L 253.88,369.10 L 253.89,369.01 L 253.91,368.95 L 253.93,368.96 L 253.95,368.96 L 254.05,368.88 L 254.26,368.75 L 254.29,368.72 L 254.30,368.69 L 254.31,368.67 L 254.31,368.64 L 254.37,368.60 L 254.38,368.63 L 254.42,368.59 L 254.42,368.53 L 254.45,368.51 L 254.46,368.48 L 254.48,368.48 L 254.51,368.49 L 254.54,368.49 L 254.55,368.54 L 254.55,368.57 L 254.65,368.53 L 254.65,368.51 L 254.65,368.45 L 254.63,368.34 L 254.65,368.34 L 254.69,368.34 L 254.73,368.34 L 254.76,368.34 L 254.78,368.35 L 254.80,368.37 L 254.81,368.38 L 254.83,368.40 L 254.84,368.42 L 254.87,368.46 L 254.92,368.37 L 254.94,368.33 L 254.94,368.29 L 254.94,368.25 L 254.93,368.22 L 254.91,368.18 L 254.88,368.14 L 254.86,368.11 L 254.85,368.10 L 254.81,368.06 L 254.78,368.02 L 254.76,368.00 L 254.64,367.83 L 254.54,367.66 L 254.47,367.52 L 254.41,367.36 L 254.36,367.28 L 254.34,367.26 L 254.29,367.19 L 254.16,367.04 L 254.12,366.98 L 254.08,366.90 L 254.07,366.90 L 254.07,366.89 L 254.03,366.83 L 254.03,366.79 L 254.02,366.73 L 254.00,366.44 L 254.00,366.35 L 254.00,366.34 L 254.00,366.34 L 254.01,366.04 L 254.02,365.84 L 254.03,365.79 L 254.05,365.75 L 254.10,365.71 L 254.19,365.63 L 254.25,365.59 L 254.31,365.57 L 254.36,365.56 L 254.41,365.56 L 254.43,365.55 L 254.46,365.53 L 254.49,365.51 L 254.51,365.48 L 254.52,365.44 L 254.53,365.41 L 254.52,365.37 L 254.51,365.35 L 254.48,365.33 L 254.45,365.31 L 254.40,365.30 L 254.36,365.30 L 254.30,365.31 L 254.26,365.32 L 254.14,365.36 L 254.09,365.37 L 254.02,365.37 L 254.01,365.38 L 253.84,365.37 L 253.77,365.36 L 253.71,365.35 L 253.68,365.33 L 253.65,365.30 L 253.64,365.27 L 253.63,365.25 L 253.62,365.20 L 253.64,365.12 L 253.69,364.93 L 253.73,364.81 L 253.74,364.76 L 253.74,364.73 L 253.73,364.71 L 253.72,364.70 L 253.71,364.68 L 253.68,364.66 L 253.66,364.66 L 253.63,364.67 L 253.59,364.69 L 253.52,364.74 L 253.39,364.84 L 253.33,364.87 L 253.28,364.90 L 253.24,364.91 L 253.18,364.91 L 253.13,364.91 L 253.08,364.90 L 253.02,364.89 L 252.88,364.83 L 252.78,364.75 L 252.64,364.63 L 252.61,364.59 L 252.59,364.56 L 252.58,364.54 L 252.58,364.52 L 252.57,364.47 L 252.57,364.43 L 252.58,364.37 L 252.60,364.34 L 252.67,364.14 L 252.68,364.08 L 252.68,364.03 L 252.68,363.97 L 252.67,363.93 L 252.67,363.92 L 252.67,363.86 L 252.67,363.79 L 252.67,363.73 L 252.68,363.67 L 252.70,363.62 L 252.70,363.57 L 252.70,363.53 L 252.69,363.50 L 252.68,363.47 L 252.65,363.43 L 252.64,363.40 L 252.62,363.38 L 252.52,363.38 L 252.29,363.42 L 252.07,363.40 L 251.84,363.34 L 251.37,363.32 L 251.24,363.28 L 251.18,363.25 L 251.14,363.22 L 251.10,363.20 L 251.09,363.20 L 251.08,363.20 L 251.07,363.21 L 251.05,363.22 L 251.04,363.25 L 251.01,363.29 L 251.00,363.32 L 250.98,363.34 L 250.96,363.35 L 250.95,363.35 L 250.94,363.35 L 250.93,363.35 L 250.90,363.34 L 250.88,363.33 L 250.86,363.31 L 250.84,363.28 L 250.82,363.23 L 250.81,363.18 L 250.80,363.13 L 250.80,363.06 L 250.79,362.99 L 250.79,362.99 L 250.78,362.97 L 250.77,362.94 L 250.74,362.91 L 250.71,362.88 L 250.66,362.83 L 250.64,362.81 L 250.64,362.80 L 250.63,362.78 L 250.64,362.77 L 250.64,362.75 L 250.64,362.73 L 250.64,362.72 L 250.63,362.71 L 250.62,362.70 L 250.61,362.69 L 250.59,362.68 L 250.56,362.69 L 250.54,362.69 L 250.52,362.69 L 250.49,362.70 L 250.46,362.71 L 250.44,362.71 L 250.43,362.71 L 250.42,362.70 L 250.40,362.69 L 250.37,362.68 L 250.35,362.65 L 250.33,362.63 L 250.33,362.62 L 250.32,362.61 L 250.32,362.60 L 250.32,362.58 L 250.31,362.55 L 250.31,362.54 L 250.30,362.52 L 250.28,362.50 L 250.26,362.47 L 250.24,362.45 L 250.22,362.43 L 250.22,362.41 L 250.22,362.40 L 250.22,362.38 L 250.22,362.35 L 250.22,362.33 L 250.22,362.30 L 250.24,362.26 L 250.25,362.25 L 250.25,362.24 L 250.25,362.24 L 250.26,362.23 L 250.26,362.23 L 250.27,362.23 L 250.28,362.24 L 250.30,362.25 L 250.32,362.27 L 250.35,362.28 L 250.36,362.28 L 250.38,362.28 L 250.39,362.28 L 250.40,362.28 L 250.40,362.28 L 250.41,362.28 L 250.41,362.27 L 250.41,362.26 L 250.41,362.25 L 250.41,362.24 L 250.39,362.22 L 250.35,362.19 L 250.30,362.17 L 250.26,362.14 L 250.24,362.13 L 250.19,362.12 L 250.15,362.11 L 250.11,362.10 L 250.07,362.08 L 250.06,362.07 L 250.05,362.06 L 250.04,362.04 L 250.03,362.03 L 250.03,362.02 L 250.03,362.01 L 250.03,361.98 L 250.03,361.95 L 250.04,361.92 L 250.05,361.91 L 250.06,361.89 L 250.09,361.88 L 250.12,361.86 L 250.14,361.85 L 250.15,361.84 L 250.16,361.82 L 250.15,361.79 L 250.14,361.76 L 250.13,361.75 L 250.11,361.73 L 250.10,361.71 L 250.08,361.70 L 250.06,361.69 L 250.04,361.67 L 250.02,361.66 L 250.00,361.66 L 249.99,361.65 L 249.98,361.63 L 249.98,361.61 L 249.98,361.57 L 249.98,361.53 L 249.98,361.51 L 249.99,361.50 L 250.01,361.47 L 250.04,361.45 L 250.05,361.44 L 250.06,361.43 L 250.07,361.42 L 250.07,361.41 L 250.07,361.40 L 250.06,361.35 L 250.05,361.31 L 250.05,361.29 L 250.05,361.27 L 250.05,361.25 L 250.05,361.23 L 250.06,361.20 L 250.08,361.16 L 250.09,361.14 L 250.11,361.10 L 250.13,361.06 L 250.15,361.01 L 250.21,360.97 L 250.33,360.76 L 250.32,360.73 L 250.32,360.70 L 250.32,360.66 L 250.32,360.65 L 250.32,360.64 L 250.34,360.62 L 250.37,360.58 L 250.38,360.55 L 250.38,360.52 L 250.39,360.49 L 250.39,360.48 L 250.38,360.47 L 250.36,360.43 L 250.29,360.39 L 250.26,360.36 L 250.23,360.35 L 250.21,360.35 L 250.15,360.38 L 250.06,360.42 L 250.01,360.44 L 249.94,360.46 L 249.89,360.47 L 249.87,360.48 L 249.86,360.49 L 249.85,360.49 L 249.84,360.48 L 249.84,360.48 L 249.83,360.47 L 249.81,360.45 L 249.79,360.42 L 249.77,360.37 L 249.74,360.31 L 249.73,360.30 L 249.67,360.31 L 249.65,360.31 L 249.64,360.32 L 249.62,360.31 L 249.60,360.34 L 249.58,360.33 L 249.56,360.33 L 249.55,360.32 L 249.54,360.31 L 249.40,360.30 L 249.39,360.30 L 249.37,360.31 L 249.37,360.31 L 249.36,360.32 L 249.36,360.32 L 249.35,360.33 L 249.33,360.33 L 249.32,360.32 L 249.31,360.32 L 249.31,360.32 L 249.28,360.33 L 249.28,360.33 L 249.26,360.34 L 249.25,360.34 L 249.24,360.34 L 249.23,360.35 L 249.22,360.35 L 249.21,360.36 L 249.19,360.36 L 249.19,360.36 L 249.17,360.36 L 249.16,360.37 L 249.16,360.37 L 249.16,360.38 L 249.16,360.42 L 249.15,360.44 L 249.12,360.43 L 249.12,360.44 L 249.12,360.45 L 249.11,360.45 L 249.11,360.48 L 249.11,360.48 L 249.10,360.49 L 249.08,360.50 L 249.07,360.51 L 249.06,360.53 L 249.05,360.53 L 249.04,360.54 L 248.98,360.53 L 248.98,360.55 L 248.99,360.57 L 248.96,360.57 L 248.96,360.56 L 248.95,360.55 L 248.93,360.54 L 248.92,360.55 L 248.90,360.56 L 248.88,360.56 L 248.86,360.55 L 248.81,360.47 L 248.80,360.48 L 248.79,360.48 L 248.78,360.47 L 248.78,360.46 L 248.80,360.44 L 248.80,360.44 L 248.80,360.43 L 248.78,360.42 L 248.78,360.42 L 248.78,360.41 L 248.77,360.41 L 248.76,360.42 L 248.76,360.43 L 248.75,360.43 L 248.74,360.43 L 248.74,360.43 L 248.73,360.42 L 248.72,360.42 L 248.72,360.41 L 248.71,360.40 L 248.70,360.39 L 248.70,360.38 L 248.68,360.38 L 248.67,360.38 L 248.66,360.39 L 248.63,360.38 L 248.63,360.38 L 248.62,360.37 L 248.61,360.37 L 248.60,360.36 L 248.60,360.36 L 248.59,360.36 L 248.58,360.36 L 248.58,360.36 L 248.57,360.35 L 248.56,360.35 L 248.56,360.35 L 248.54,360.35 L 248.53,360.35 L 248.52,360.34 L 248.51,360.34 L 248.50,360.34 L 248.49,360.34 L 248.49,360.34 L 248.48,360.33 L 248.47,360.32 L 248.46,360.32 L 248.45,360.31 L 248.44,360.31 L 248.43,360.30 L 248.42,360.29 L 248.42,360.29 L 248.41,360.29 L 248.40,360.28 L 248.40,360.26 L 248.39,360.25 L 248.38,360.25 L 248.37,360.25 L 248.36,360.25 L 248.35,360.25 L 248.34,360.25 L 248.33,360.26 L 248.33,360.26 L 248.32,360.26 L 248.32,360.27 L 248.31,360.27 L 248.30,360.27 L 248.29,360.27 L 248.28,360.27 L 248.27,360.27 L 248.27,360.27 L 248.27,360.26 L 248.27,360.23 L 248.26,360.22 L 248.25,360.19 L 248.25,360.18 L 248.25,360.18 L 248.23,360.18 L 248.20,360.18 L 248.19,360.17 L 248.18,360.15 L 248.18,360.15 L 248.17,360.14 L 248.16,360.15 L 248.15,360.15 L 248.14,360.14 L 248.14,360.13 L 248.13,360.12 L 248.11,360.11 L 248.10,360.10 L 248.10,360.08 L 248.10,360.08 L 248.09,360.07 L 248.09,360.07 L 248.08,360.07 L 248.07,360.07 L 248.06,360.06 L 248.05,360.05 L 248.05,360.04 L 248.04,360.04 L 248.02,360.03 L 248.01,360.03 L 248.00,360.03 L 248.00,360.02 L 248.00,360.01 L 248.00,359.99 L 247.99,359.98 L 247.99,359.98 L 247.98,359.97 L 247.97,359.98 L 247.97,359.98 L 247.96,359.97 L 247.96,359.97 L 247.96,359.96 L 247.96,359.96 L 247.95,359.96 L 247.93,359.96 L 247.91,359.95 L 247.90,359.95 L 247.88,359.96 L 247.87,359.97 L 247.85,359.97 L 247.83,359.97 L 247.83,359.97 L 247.82,359.99 L 247.82,360.00 L 247.81,360.01 L 247.81,360.02 L 247.81,360.02 L 247.82,360.03 L 247.82,360.05 L 247.82,360.06 L 247.82,360.07 L 247.82,360.08 L 247.81,360.09 L 247.80,360.10 L 247.79,360.10 L 247.78,360.11 L 247.77,360.10 L 247.76,360.08 L 247.75,360.06 L 247.74,360.05 L 247.73,360.05 L 247.72,360.05 L 247.72,360.03 L 247.71,360.03 L 247.70,360.03 L 247.69,360.03 L 247.68,360.04 L 247.66,360.03 L 247.64,360.04 L 247.64,360.03 L 247.62,360.02 L 247.58,360.00 L 247.55,359.99 L 247.52,359.98 L 247.48,359.97 L 247.47,359.96 L 247.46,359.96 L 247.44,359.97 L 247.43,359.98 L 247.43,359.98 L 247.41,359.97 L 247.40,359.97 L 247.38,359.97 L 247.37,359.97 L 247.36,359.98 L 247.35,359.99 L 247.35,360.00 L 247.34,360.00 L 247.33,360.00 L 247.33,360.00 L 247.31,359.97 L 247.31,359.95 L 247.29,359.94 L 247.29,359.94 L 247.28,359.93 L 247.27,359.92 L 247.27,359.91 L 247.27,359.90 L 247.28,359.88 L 247.28,359.88 L 247.27,359.87 L 247.27,359.87 L 247.25,359.86 L 247.24,359.85 L 247.22,359.86 L 247.21,359.86 L 247.19,359.87 L 247.18,359.87 L 247.16,359.86 L 247.15,359.85 L 247.15,359.85 L 247.15,359.84 L 247.15,359.83 L 247.14,359.82 L 247.13,359.82 L 247.12,359.82 L 247.10,359.82 L 247.09,359.83 L 247.08,359.85 L 247.07,359.86 L 247.07,359.88 L 247.05,359.91 L 247.03,359.94 L 247.02,359.97 L 247.03,359.98 L 247.03,359.99 L 247.03,360.01 L 247.01,360.02 L 247.01,360.03 L 247.01,360.04 L 247.01,360.05 L 247.00,360.05 L 246.99,360.05 L 246.98,360.04 L 246.97,360.03 L 246.95,360.02 L 246.93,360.00 L 246.93,360.00 L 246.92,360.00 L 246.91,360.00 L 246.91,360.00 L 246.90,359.99 L 246.90,359.99 L 246.88,359.99 L 246.87,359.99 L 246.86,360.00 L 246.86,360.01 L 246.87,360.01 L 246.88,360.01 L 246.89,360.01 L 246.89,360.02 L 246.89,360.03 L 246.89,360.03 L 246.89,360.03 L 246.88,360.03 L 246.87,360.03 L 246.86,360.03 L 246.87,360.04 L 246.86,360.05 L 246.87,360.06 L 246.87,360.06 L 246.88,360.07 L 246.88,360.07 L 246.87,360.08 L 246.86,360.08 L 246.86,360.07 L 246.85,360.07 L 246.84,360.07 L 246.83,360.08 L 246.82,360.07 L 246.80,360.07 L 246.79,360.07 L 246.79,360.07 L 246.79,360.08 L 246.79,360.08 L 246.79,360.10 L 246.79,360.11 L 246.78,360.11 L 246.77,360.13 L 246.77,360.13 L 246.76,360.15 L 246.76,360.16 L 246.76,360.16 L 246.76,360.16 L 246.76,360.16 L 246.74,360.16 L 246.72,360.17 L 246.71,360.17 L 246.70,360.17 L 246.68,360.18 L 246.66,360.19 L 246.65,360.19 L 246.65,360.17 L 246.63,360.17 L 246.63,360.17 L 246.62,360.18 L 246.62,360.18 L 246.63,360.20 L 246.63,360.21 L 246.62,360.21 L 246.61,360.21 L 246.60,360.22 L 246.60,360.23 L 246.59,360.24 L 246.58,360.24 L 246.57,360.24 L 246.57,360.23 L 246.56,360.23 L 246.56,360.24 L 246.56,360.25 L 246.56,360.26 L 246.55,360.26 L 246.53,360.27 L 246.52,360.27 L 246.51,360.27 L 246.50,360.28 L 246.51,360.28 L 246.51,360.29 L 246.50,360.30 L 246.50,360.32 L 246.49,360.32 L 246.49,360.32 L 246.48,360.33 L 246.48,360.34 L 246.48,360.35 L 246.47,360.36 L 246.47,360.37 L 246.46,360.38 L 246.44,360.39 L 246.43,360.40 L 246.42,360.40 L 246.41,360.40 L 246.41,360.40 L 246.40,360.40 L 246.39,360.40 L 246.39,360.40 L 246.38,360.40 L 246.38,360.40 L 246.48,360.55 L 246.45,360.57 L 246.42,360.59 L 246.41,360.60 L 246.40,360.63 L 246.39,360.64 L 246.38,360.65 L 246.37,360.66 L 246.36,360.64 L 246.33,360.63 L 246.32,360.65 L 246.32,360.67 L 246.32,360.71 L 246.27,360.70 L 246.26,360.73 L 246.31,360.89 L 246.32,360.94 L 246.31,361.06 L 246.30,361.15 L 246.29,361.19 L 246.27,361.25 L 246.24,361.32 L 246.21,361.36 L 246.20,361.37 L 246.20,361.38 L 246.19,361.39 L 246.20,361.39 L 246.22,361.41 L 246.23,361.42 L 246.24,361.44 L 246.26,361.47 L 246.28,361.49 L 246.29,361.51 L 246.30,361.53 L 246.30,361.58 L 246.30,361.60 L 246.29,361.63 L 246.29,361.66 L 246.29,361.68 L 246.21,361.72 L 246.15,361.73 L 246.09,361.75 L 246.21,362.07 L 246.21,362.41 L 246.18,362.41 L 246.09,362.41 L 246.09,362.42 L 246.09,362.43 L 246.06,362.47 L 246.04,362.48 L 246.02,362.51 L 246.01,362.52 L 245.99,362.53 L 245.98,362.54 L 245.98,362.56 L 245.97,362.58 L 245.97,362.58 L 245.96,362.59 L 245.94,362.61 L 245.91,362.64 L 245.88,362.65 L 245.85,362.67 L 245.81,362.68 L 245.78,362.71 L 245.75,362.73 L 245.72,362.75 L 245.70,362.76 L 245.69,362.77 L 245.70,362.78 L 245.71,362.81 L 245.72,362.83 L 245.71,362.86 L 245.69,362.89 L 245.66,362.91 L 245.65,362.93 L 245.64,362.93 L 245.64,362.94 L 245.64,362.94 L 245.59,363.00 L 245.57,363.04 L 245.54,363.10 L 245.52,363.19 L 245.50,363.26 L 245.49,363.29 L 245.49,363.35 L 245.49,363.41 L 245.47,363.47 L 245.43,363.52 L 245.40,363.55 L 245.38,363.59 L 245.35,363.66 L 245.29,363.81 L 245.24,363.87 L 245.22,363.90 L 245.18,363.92 L 245.15,363.94 L 245.12,363.97 L 245.06,364.03 L 245.05,364.04 L 245.01,364.10 L 244.99,364.11 L 244.98,364.13 L 244.94,364.19 L 244.91,364.24 L 244.86,364.34 L 244.83,364.43 L 244.81,364.50 L 244.81,364.54 L 244.83,364.58 L 244.84,364.60 L 244.71,364.75 L 244.76,364.81 L 244.74,364.82 L 244.60,364.90 L 244.63,364.97 L 244.58,365.01 L 244.57,365.01 L 244.55,365.01 L 244.54,365.01 L 244.52,365.02 L 244.48,365.09 L 244.47,365.13 L 244.46,365.14 L 244.44,365.14 L 244.42,365.16 L 244.39,365.17 L 244.39,365.17 L 244.38,365.18 L 244.39,365.19 L 244.41,365.21 L 244.41,365.27 L 244.42,365.29 L 244.42,365.30 L 244.42,365.31 L 244.41,365.31 L 244.40,365.31 L 244.38,365.29 L 244.37,365.30 L 244.36,365.30 L 244.34,365.30 L 244.31,365.28 L 244.27,365.27 L 244.24,365.27 L 244.22,365.27 L 244.21,365.26 L 244.20,365.25 L 244.18,365.26 L 244.17,365.26 L 244.16,365.28 L 244.13,365.31 L 244.12,365.32 L 244.11,365.34 L 244.09,365.35 L 244.08,365.35 L 244.07,365.35 L 244.01,365.35 L 243.97,365.39 L 243.97,365.40 L 243.96,365.46 L 243.96,365.49 L 243.96,365.50 L 243.96,365.50 L 243.95,365.51 L 243.93,365.51 L 243.92,365.49 L 243.87,365.44 L 243.85,365.44 L 243.83,365.45 L 243.80,365.49 L 243.80,365.50 L 243.80,365.51 L 243.81,365.54 L 243.83,365.57 L 243.82,365.59 L 243.82,365.60 L 243.81,365.60 L 243.80,365.60 L 243.75,365.56 L 243.73,365.55 L 243.72,365.56 L 243.70,365.58 L 243.70,365.59 L 243.70,365.60 L 243.70,365.61 L 243.71,365.62 L 243.72,365.62 L 243.73,365.62 L 243.75,365.63 L 243.77,365.64 L 243.79,365.66 L 243.80,365.68 L 243.80,365.71 L 243.80,365.72 L 243.80,365.74 L 243.79,365.76 L 243.77,365.78 L 243.75,365.79 L 243.72,365.79 L 243.67,365.77 L 243.65,365.76 L 243.65,365.76 L 243.64,365.77 L 243.65,365.80 L 243.65,365.82 L 243.64,365.82 L 243.62,365.83 L 243.60,365.82 L 243.59,365.81 L 243.59,365.80 L 243.60,365.76 L 243.59,365.75 L 243.58,365.75 L 243.57,365.74 L 243.55,365.74 L 243.47,365.79 L 243.45,365.80 L 243.45,365.81 L 243.45,365.82 L 243.46,365.84 L 243.48,365.87 L 243.48,365.88 L 243.47,365.89 L 243.45,365.91 L 243.44,365.93 L 243.42,365.94 L 243.39,365.96 L 243.38,365.98 L 243.38,366.00 L 243.38,366.04 L 243.39,366.06 L 243.40,366.10 L 243.42,366.14 L 243.43,366.20 L 243.43,366.23 L 243.43,366.26 L 243.41,366.27 L 243.38,366.27 L 243.31,366.26 L 243.30,366.26 L 243.29,366.27 L 243.29,366.37 L 243.26,366.43 L 243.25,366.48 L 243.25,366.50 L 243.24,366.51 L 243.23,366.52 L 243.23,366.53 L 243.22,366.53 L 243.18,366.52 L 243.14,366.50 L 243.09,366.49 L 243.06,366.48 L 243.05,366.48 L 243.04,366.48 L 243.04,366.49 L 243.03,366.51 L 243.04,366.53 L 243.04,366.55 L 243.04,366.57 L 243.03,366.58 L 243.01,366.61 L 242.97,366.65 L 242.95,366.66 L 242.93,366.64 L 242.92,366.64 L 242.88,366.63 L 242.86,366.63 L 242.85,366.63 L 242.84,366.64 L 242.83,366.66 L 242.83,366.67 L 242.83,366.69 L 242.84,366.71 L 242.86,366.74 L 242.88,366.76 L 242.93,366.77 L 242.96,366.79 L 242.99,366.81 L 243.01,366.82 L 243.04,366.83 L 243.06,366.84 L 243.06,366.86 L 243.05,366.88 L 243.04,366.92 L 243.02,366.93 L 243.00,366.93 L 242.97,366.94 L 242.95,366.95 L 242.92,366.96 L 242.90,366.99 L 242.87,367.02 L 242.84,367.04 L 242.82,367.06 L 242.79,367.06 L 242.78,367.07 L 242.74,367.28 L 242.76,367.39 L 242.78,367.52 L 242.79,367.59 L 242.77,367.71 L 242.77,367.79 L 242.76,367.82 L 242.76,367.87 L 242.71,367.96 L 242.72,367.97 L 242.73,367.98 L 242.79,367.98 L 242.83,367.99 L 242.89,368.00 L 242.94,368.03 L 242.98,368.06 L 243.01,368.07 L 243.03,368.09 L 243.04,368.10 L 243.04,368.11 L 243.05,368.12 L 243.05,368.17 L 243.04,368.22 L 243.02,368.27 L 242.97,368.36 L 242.93,368.43 L 242.93,368.45 L 242.90,368.47 L 242.89,368.47 L 242.84,368.48 L 242.83,368.48 L 242.82,368.49 L 242.82,368.51 L 242.83,368.53 L 242.86,368.55 L 242.95,368.60 L 242.97,368.60 L 243.01,368.61 L 243.05,368.59 L 243.13,368.56 L 243.18,368.54 L 243.22,368.52 L 243.27,368.52 L 243.32,368.53 L 243.36,368.55 L 243.39,368.57 L 243.41,368.60 L 243.43,368.63 L 243.45,368.66 L 243.46,368.72 L 243.48,368.76 L 243.51,368.81 L 243.52,368.85 L 243.52,368.87 L 243.52,368.88 L 243.52,368.89 L 243.52,368.90 L 243.50,368.91 L 243.48,368.92 L 243.46,368.93 L 243.39,368.94 L 243.34,368.93 L 243.30,368.91 L 243.24,368.85 L 243.19,368.80 L 243.15,368.76 L 243.12,368.75 L 243.11,368.75 L 243.10,368.75 L 243.10,368.76 L 243.10,368.77 L 243.10,368.79 L 243.11,368.81 L 243.17,368.88 L 243.20,368.92 L 243.23,368.97 L 243.25,369.02 L 243.27,369.03 L 243.33,369.06 L 243.36,369.07 L 243.30,369.14 L 243.29,369.15 L 243.22,369.22 L 243.12,369.31 L 243.07,369.36 L 243.03,369.39 L 242.90,369.50 L 242.79,369.58 L 242.63,369.39 L 242.60,369.43 L 242.60,369.44 L 242.60,369.45 L 242.61,369.46 L 242.61,369.47 L 242.61,369.48 L 242.59,369.51 L 242.59,369.51 L 242.59,369.52 L 242.57,369.52 L 242.56,369.53 L 242.56,369.54 L 242.56,369.55 L 242.55,369.55 L 242.55,369.55 L 242.55,369.55 L 242.55,369.56 L 242.54,369.55 L 242.54,369.56 L 242.54,369.56 L 242.54,369.56 L 242.53,369.58 L 242.53,369.58 L 242.53,369.59 L 242.52,369.59 L 242.51,369.59 L 242.51,369.60 L 242.52,369.61 L 242.53,369.62 L 242.51,369.66 L 242.50,369.67 L 242.49,369.68 L 242.48,369.68 L 242.47,369.68 L 242.47,369.67 L 242.46,369.67 L 242.46,369.68 L 242.46,369.68 L 242.46,369.69 L 242.46,369.69 L 242.45,369.69 L 242.44,369.70 L 242.44,369.70 L 242.43,369.69 L 242.42,369.68 L 242.40,369.70 L 242.28,369.60 L 242.22,369.64 L 242.17,369.68 L 242.15,369.69 L 242.13,369.70 L 242.11,369.71 L 242.10,369.70 L 242.09,369.67 L 242.08,369.68 L 242.07,369.69 L 242.05,369.69 L 242.07,369.73 L 242.06,369.73 L 242.05,369.73 L 242.05,369.73 L 242.04,369.73 L 242.00,369.76 L 242.03,369.79 L 242.03,369.80 L 242.03,369.81 L 242.03,369.82 L 242.03,369.83 L 242.02,369.83 L 242.00,369.83 L 241.99,369.85 L 241.98,369.86 L 241.97,369.88 L 241.96,369.89 L 241.95,369.89 L 241.94,369.89 L 241.92,369.90 L 241.91,369.90 L 241.89,369.90 L 241.87,369.90 L 241.86,369.89 L 241.85,369.88 L 241.83,369.86 L 241.83,369.85 L 241.82,369.84 L 241.82,369.84 L 241.81,369.84 L 241.80,369.85 L 241.80,369.86 L 241.79,369.86 L 241.76,369.85 L 241.75,369.84 L 241.74,369.83 L 241.73,369.82 L 241.73,369.79 L 241.70,369.80 L 241.69,369.79 L 241.68,369.78 L 241.68,369.78 L 241.67,369.78 L 241.67,369.79 L 241.65,369.82 L 241.61,369.80 L 241.60,369.81 L 241.59,369.81 L 241.59,369.80 L 241.58,369.79 L 241.54,369.89 L 241.54,369.90 L 241.52,369.93 L 241.53,369.94 L 241.50,369.95 L 241.46,369.89 L 241.45,369.89 L 241.44,369.88 L 241.44,369.88 L 241.40,369.88 L 241.40,369.89 L 241.37,369.88 L 241.37,369.89 L 241.35,369.89 L 241.35,369.88 L 241.31,369.89 L 241.32,369.91 L 241.32,369.92 L 241.32,369.94 L 241.32,369.94 L 241.32,369.96 L 241.31,369.96 L 241.26,369.96 L 241.25,369.96 L 241.24,369.97 L 241.26,370.08 L 241.28,370.18 L 241.29,370.24 L 241.30,370.25 L 241.27,370.26 L 241.25,370.23 L 241.18,370.15 L 241.16,370.12 L 241.15,370.11 L 241.14,370.10 L 241.11,370.01 L 241.02,369.78 L 241.01,369.79 L 241.01,369.78 L 241.00,369.78 L 240.99,369.78 L 240.98,369.78 L 240.97,369.79 L 240.97,369.79 L 240.96,369.79 L 240.96,369.79 L 240.95,369.79 L 240.95,369.80 L 240.95,369.80 L 240.94,369.82 L 240.92,369.84 L 240.90,369.82 L 240.88,369.84 L 240.84,369.88 L 240.82,369.85 L 240.81,369.84 L 240.81,369.83 L 240.81,369.82 L 240.81,369.82 L 240.81,369.80 L 240.81,369.80 L 240.81,369.80 L 240.80,369.80 L 240.78,369.79 L 240.77,369.79 L 240.75,369.78 L 240.75,369.78 L 240.76,369.77 L 240.76,369.73 L 240.76,369.72 L 240.75,369.71 L 240.75,369.71 L 240.71,369.70 L 240.60,369.48 L 240.59,369.48 L 240.59,369.28 L 240.57,369.27 L 240.57,369.25 L 240.54,369.26 L 240.52,369.27 L 240.50,369.27 L 240.45,369.28 L 240.42,369.26 L 240.41,369.24 L 240.40,369.22 L 240.40,369.19 L 240.42,369.17 L 240.46,369.15 L 240.51,369.14 L 240.61,369.15 L 240.67,369.14 L 240.72,369.12 L 240.76,369.09 L 240.77,369.07 L 240.77,369.05 L 240.76,369.03 L 240.74,369.00 L 240.71,368.97 L 240.65,368.95 L 240.59,368.93 L 240.53,368.93 L 240.46,368.93 L 240.40,368.95 L 240.36,368.97 L 240.31,369.00 L 240.29,369.03 L 240.27,369.08 L 240.24,369.24 L 240.21,369.31 L 240.16,369.39 L 240.10,369.44 L 240.07,369.45 L 240.05,369.45 L 240.02,369.44 L 239.96,369.39 L 239.85,369.31 L 239.79,369.26 L 239.77,369.24 L 239.77,369.23 L 239.78,369.21 L 239.82,369.18 L 239.88,369.13 L 239.95,369.07 L 239.98,369.04 L 239.99,369.01 L 239.99,368.99 L 239.99,368.96 L 239.98,368.93 L 239.96,368.89 L 239.94,368.87 L 239.92,368.87 L 239.90,368.88 L 239.90,368.88 L 239.88,368.89 L 239.87,368.90 L 239.86,368.93 L 239.83,369.03 L 239.80,369.06 L 239.79,369.06 L 239.76,369.08 L 239.72,369.09 L 239.65,369.08 L 239.64,369.08 L 239.62,369.06 L 239.60,369.05 L 239.60,369.03 L 239.60,369.01 L 239.61,368.93 L 239.60,368.88 L 239.58,368.80 L 239.55,368.70 L 239.54,368.69 L 239.53,368.68 L 239.51,368.68 L 239.49,368.69 L 239.48,368.70 L 239.46,368.71 L 239.44,368.75 L 239.41,368.79 L 239.38,368.85 L 239.36,368.85 L 239.28,368.92 L 239.27,368.93 L 239.24,368.95 L 239.20,368.97 L 239.19,368.97 L 239.14,368.98 L 239.06,368.98 L 239.00,368.98 L 238.95,368.98 L 238.90,368.96 L 238.86,368.94 L 238.83,368.92 L 238.81,368.90 L 238.79,368.87 L 238.76,368.82 L 238.72,368.78 L 238.70,368.77 L 238.65,368.77 L 238.60,368.78 L 238.52,368.81 L 238.43,368.86 L 238.35,368.91 L 238.26,368.98 L 238.24,369.01 L 238.24,369.03 L 238.23,369.06 L 238.23,369.12 L 238.24,369.14 L 238.25,369.19 L 238.27,369.27 L 238.27,369.36 L 238.30,369.43 L 238.30,369.44 L 238.31,369.45 L 238.33,369.45 L 238.41,369.46 L 238.49,369.45 L 238.52,369.45 L 238.52,369.45 L 238.56,369.47 L 238.60,369.51 L 238.64,369.52 L 238.66,369.52 L 238.70,369.50 L 238.76,369.42 L 238.79,369.41 L 238.81,369.41 L 238.84,369.43 L 238.93,369.53 L 239.02,369.64 L 239.05,369.68 L 239.06,369.70 L 239.07,369.74 L 239.06,369.78 L 239.05,369.81 L 239.02,369.85 L 238.97,369.89 L 238.89,369.94 L 238.74,370.00 L 238.61,370.04 L 238.50,370.08 L 238.41,370.10 L 238.38,370.11 L 238.30,370.15 L 238.23,370.15 L 238.18,370.13 L 238.10,370.10 L 238.04,370.06 L 237.96,370.02 L 237.90,370.00 L 237.84,370.00 L 237.80,370.01 L 237.77,370.03 L 237.75,370.06 L 237.75,370.09 L 237.77,370.13 L 237.79,370.18 L 237.83,370.24 L 237.87,370.27 L 237.91,370.31 L 237.94,370.33 L 237.96,370.36 L 237.96,370.39 L 237.96,370.54 L 237.97,370.60 L 237.97,370.62 L 237.95,370.64 L 237.94,370.64 L 237.91,370.65 Z" fill="#E5E7EB" stroke="#374151" stroke-width="1" fill-rule="evenodd"/>
</svg>