<?xml version="1.0" encoding="UTF-8"?>
<!DOCTYPE svg PUBLIC "-//W3C//DTD SVG 1.1//EN" "http://www.w3.org/Graphics/SVG/1.1/DTD/svg11.dtd">
<!-- Creator: CorelDRAW 2021 (64-Bit) -->
<svg xmlns="http://www.w3.org/2000/svg" xml:space="preserve" width="0.283969in" height="0.362398in" version="1.1" shape-rendering="geometricPrecision" text-rendering="geometricPrecision" image-rendering="optimizeQuality" fill-rule="evenodd" clip-rule="evenodd"
viewBox="0 0 32.27 41.18"
 xmlns:xlink="http://www.w3.org/1999/xlink"
 xmlns:xodm="http://www.corel.com/coreldraw/odm/2003">
 <g id="Layer_x0020_1">
  <metadata id="CorelCorpID_0Corel-Layer"/>
  <path fill="none" fill-rule="nonzero" stroke="#336666" stroke-width="0.34" stroke-miterlimit="2.61313" d="M26.71 3.04l-0.01 -0.05 -0.01 -0.05 -0.02 -0.05 -0.02 -0.05 -0.02 -0.05 -0 0 -0.02 -0.05 0 0 -0.02 -0.05 0 0 -0.02 -0.05 0 0c-0.32,-0.87 -0.82,-1.34 -1.2,-1.58l-0 0 -0 0 -0 0 -0 0 -0 0 -0.01 0 -0 0 -0 0 -0 0 -0 0 -0 0 -0.01 0 -0 0 -0 0 -0 0 -0 0 -0 0 -0 0 -0 0 -0.01 0 -0 0 -0 0 -0 0 -0 0 -0 0 -0 0 -0 0 -0.01 0 -0 0 -0 0 -0 0 -0 0 -0 0 -0 0 -0 0 -0 0 -0 0 -0 0 -0 0 -0 0 -0 0 -0 0 -0 0 0 0 -0 0 -0 0 -0 0 -0 0 -0 0 -0 0 -0 0 -0 0 -0.01 0 -0 0 -0 0 -0.17 0c0,-0.07 -0,-0.21 -0,-0.35 -0.1,-0.07 -0.2,-0.14 -0.3,-0.28l-0.43 0 -0 -0 -0.13 0c-0.09,-0.06 -0.18,-0.12 -0.29,-0.24 -0.32,0.11 -0.64,0.18 -0.96,0.25l-0.01 0 -0.01 0 -0 0 -0.01 0 -0.01 0 -0 0c-0.27,0 -0.55,0.02 -0.83,0.04l0 0.25c-0.1,0.29 -0.23,0.43 -0.29,0.5 -0.1,0.21 -0.2,0.43 -0.29,0.57 0,0.85 0.04,1.56 0.07,2.27 -0.29,0.71 -0.29,1.28 0.01,1.56 0.4,0.78 0.8,1.34 1.19,2.05 0,0.21 0,0.43 0.03,0.57 -0.1,0.21 -0.2,0.43 -0.29,0.57 -0.1,0.57 -0.19,1 -0.26,1.42 -0.56,0.79 -1.08,1.36 -1.57,1.93 -0.2,0.43 -0.43,0.78 -0.59,1.14 -0.33,0.14 -0.66,0.22 -0.99,0.36 -0.92,0.01 -1.48,-0.27 -2.11,-0.55 -0.76,-0.63 -1.49,-1.27 -2.25,-1.9 -0.73,-0.28 -1.48,-0.42 -2.21,-0.62 -0.96,0.01 -1.88,0.01 -2.8,0.09 -1.12,0.01 -2.01,-0.2 -2.74,-0.48 -1.22,-1.13 -1.82,-1.69 -2.12,-2.33 -0.13,-0.28 -0.23,-0.57 -0.33,-0.85 -0,-0.36 -0,-0.78 -0,-1.14 -0.13,-0.14 -0.23,-0.35 -0.33,-0.57 0,0.14 0,0.21 0.03,0.28 0,0.16 -0.09,0.12 -0.25,0.12 -0.17,0.23 -0.33,0.41 -0.47,0.6 -0.3,0 -0.63,0 -0.89,0.01 -0.2,0.22 -0.39,0.36 -0.59,0.43 -0.47,0.28 -0.83,0.52 -1.1,1.11 -0.02,0.05 -0.03,0.11 -0.05,0.17l-0.03 0.03c-0.04,0.1 -0.07,0.22 -0.1,0.34 -0.2,0.21 -0.39,0.43 -0.56,0.57 0.05,0.94 0.12,1.89 0.18,2.84 0.05,0.14 -0.02,0.41 0.04,0.55 0,0.78 0.12,1.44 0.16,2.15 -0.1,0.43 -0.19,0.71 -0.29,1l0 0.01 0 0.01 0 0 0 0 0 0.01 0 0.01 0 0 0 0 0 0.01 0 0.01 0 0 0 0.01 0 0c1.1,-0.02 2.23,-0.09 3.36,-0.09 0.33,0.14 1.02,0.21 1.39,0.2 0.17,0.14 0.36,0.28 0.6,0.42 0.63,0.14 1.25,0.2 1.91,0.27 0.4,0.14 0.79,0.71 1.19,0.85 0.1,0.28 0.2,0.57 0.3,0.78 0.1,-0 0.16,-0 0.26,-0 0.3,0.35 0.6,0.64 0.89,0.92 0.13,0.21 0.29,0.42 0.46,0.63l0 0 0.01 0.01 0.01 0.01 0 0c0.21,0.14 0.79,0.42 0.98,0.56 0.3,0.57 0.6,1.13 0.9,1.7 0,0.14 0,0.21 0,0.28 0.1,0.14 0.2,0.21 0.3,0.28 -0.1,0.5 -0.19,1.07 -0.26,1.57 0.91,1.04 1.5,2.08 2.43,3.13l0 0 0.04 0.05 0.04 0.02 0 0c0.86,0.35 1.15,0.91 1.15,1.54 0.01,0.07 0.03,0.18 0.07,0.3 0.18,0.37 0.35,0.73 0.56,0.98 0.13,0.14 0.26,0.21 0.43,0.35l0 0.28 0 0.01 0 0 0 0.01 0 0 0 0 0 0.01 0 0.01 0 0.01 0 0 0 0.01 0 0 0 0 0 0.01 0 0 0 0.01 0 0.01 0 0 0 0.01 0 0 0 0 0 0.01 0 0 0 0.01 0 0 0 0 0 0.01 0 0 0 0 0 0.01 0 0 0 0 0 0.01 0 0 0 0.01 0 0 0 0.02 0 0 0 0 0 0.01 0 0 0 0 0 0.01 0 0 0 0 0 0 0 0 0 0.01 0 0.01 0 0 0 0 0 0.01 0 0 0 0 0 0.01 0 0 0 0 0 0.01 0 0 0 0.01 0 0 0 0 0 0 0 0 0 0 0 0 0 0 0 0 0 0 0 0 0 0 0 0 0 0 0 0 0 0 0 0 0 0 0 0 0 0 0 0 0 0 0 0 0 0 0 0 0 0 0 0.01 0 0 0 0.01 0 0c0.1,0.14 0.19,0.27 0.29,0.34l0 0.14 0 0 0 0.02 0 0 0 0.02 0 0 0 0.02 0 0 0 0.02 0 0 0 0.02c0,0.36 0.01,0.75 0.04,1.04 0.1,0.28 0.2,0.5 0.3,0.71l0 0.05 0 0c0.01,1.04 0.37,1.95 0.41,2.93 -0.1,0.21 -0.2,0.06 -0.26,0.21 -0.12,0.09 -0.23,0.19 -0.33,0.29l-0.03 0.08c-0.08,0.06 -0.15,0.12 -0.22,0.19 -0.05,0.05 -0.09,0.11 -0.14,0.16 0,0.14 0,0.28 0.03,0.43 0.53,-0 0.69,-0.01 1.22,-0.01 0.59,-0 0.89,0.28 1.19,0.49 0.1,0.14 0.2,0.21 0.3,0.28 0.23,-0 0.46,-0 0.72,-0.01 0.43,0.42 0.83,0.92 1.22,1.27 0.09,0.19 0.18,0.69 0.27,0.94l0.32 0.35c0.2,-0.14 0.39,-0.22 0.62,-0.36 0.1,-0.07 0.23,-0.22 0.33,-0.36 0.13,-0.14 0.26,-0.36 0.39,-0.57 -0,-0.21 -0,-0.5 -0,-0.78 0.16,-0.22 0.36,-0.43 0.56,-0.64 0.03,-0.14 0.03,-0.36 0.03,-0.57 0.07,-0.07 0.16,-0.14 0.26,-0.29 0.72,-0.01 1.48,-0.08 2.21,-0.09 0.16,-0.29 0.36,-0.5 0.56,-0.71 0.1,0.14 0.2,0.21 0.3,0.28 0.49,-0 0.99,-0.08 1.48,-0.08 0.23,-0.07 0.46,-0.15 0.76,-0.29 0.07,0 0.17,-0 0.26,-0 0.2,-0.14 0.36,-0.36 0.56,-0.57 0.07,0 0.16,-0 0.26,-0 0.26,-0.36 0.59,-0.86 0.89,-1.21 -0.03,-0.5 -0.04,-0.99 -0.04,-1.56 -0,-0.57 -0.3,-0.99 -0.6,-1.35 -0.1,0.07 -0.2,0.07 -0.3,0.07 -0.1,-0.07 -0.2,-0.14 -0.3,-0.35 -0.1,0 -0.23,0 -0.3,0 -0,-0.28 0.03,-0.64 -0,-0.92 -0.07,-0.28 -0.2,-0.57 -0.3,-0.99 0.03,-0.21 0.03,-0.43 0.03,-0.71 -0.13,-0.21 -0.27,-0.42 -0.36,-0.64 -0.17,-0.07 -0.3,-0.14 -0.43,-0.35 -0.3,-0.35 -0.6,-0.78 -0.89,-1.2 -0.04,-0.85 -0.04,-1.71 -0.04,-2.63 -0.1,-0.21 -0.2,-0.43 -0.3,-0.57 -0.13,-0.43 -0.23,-0.92 -0.33,-1.35 -0.3,-0.28 -0.6,-0.56 -0.86,-0.92 -0.03,-0.07 -0.03,-0.14 -0.03,-0.36 0.23,-0.07 0.46,-0.15 0.72,-0.29 0.36,-0.07 0.79,-0.29 1.18,-0.44 0.36,-0.14 0.76,-0.36 1.18,-0.58 0.39,-0.36 0.82,-0.79 1.25,-1.22 0.26,-0.08 0.41,-0.17 0.51,-0.3 -0.12,-0.42 -0.08,-0.73 -0.08,-1.41 0.06,-0.14 0.16,-0.36 0.26,-0.57 -0,-0.28 -0,-0.64 -0,-0.99 -0,-0.28 -0.33,-0.63 -0.89,-0.91 -0.3,-0.07 -0.63,-0.21 -0.92,-0.35 -0.3,0 -0.63,0 -0.96,0.01 -0.92,-0.28 -1.22,-1.14 -1.22,-1.42 -0.03,-0.5 -0.04,-0.92 -0.04,-1.42 -0.1,-0.28 -0.2,-0.64 -0.3,-0.99 -0.04,-0.64 -0.04,-1.42 -0.04,-2.13 -0.1,-0.14 -0.2,-0.28 -0.3,-0.42 -0.04,-0.78 -0.04,-1.49 -0.04,-2.27 -0,-0.07 -0,-0.14 -0,-0.28 -0.23,-0.57 -0.43,-1.2 -0.63,-1.84z"/>
 </g>
</svg>
