<?xml version="1.0" encoding="UTF-8"?>
<!DOCTYPE svg PUBLIC "-//W3C//DTD SVG 1.1//EN" "http://www.w3.org/Graphics/SVG/1.1/DTD/svg11.dtd">
<!-- Creator: CorelDRAW 2021 (64-Bit) -->
<svg xmlns="http://www.w3.org/2000/svg" xml:space="preserve" width="0.265248in" height="0.271484in" version="1.1" shape-rendering="geometricPrecision" text-rendering="geometricPrecision" image-rendering="optimizeQuality" fill-rule="evenodd" clip-rule="evenodd"
viewBox="0 0 38.64 39.55"
 xmlns:xlink="http://www.w3.org/1999/xlink"
 xmlns:xodm="http://www.corel.com/coreldraw/odm/2003">
 <g id="Layer_x0020_1">
  <metadata id="CorelCorpID_0Corel-Layer"/>
  <path fill="none" fill-rule="nonzero" stroke="#336666" stroke-width="0.44" stroke-miterlimit="2.61313" d="M25.4 12.37c-0.38,0 -0.76,0.01 -1.1,0.01 -1.86,-0.63 -3.72,-1.34 -5.58,-1.97 -2.07,-0.9 -2.75,-1.53 -2.79,-2.62 -0,-0.36 0.42,-1.46 1.09,-3.2 0.29,-0.55 0.16,-1.19 0.5,-1.83 -0.04,-0.36 -0.04,-0.73 -0.05,-1.18 0.08,-0.46 0.33,-1 0.45,-1.36 -0.42,0 -0.79,-0 -1.22,-0 -0.38,0.46 -0.97,1.01 -1.3,1.47 -0.63,0.46 -1.26,0.83 -1.85,1.2 -0.55,0.37 -1.35,0.1 -2.45,-0.25 -0.38,-0.36 -0.84,-1.03 -1.26,-1.58 -0.17,1.09 -0.21,2.41 -0.29,3.41 0,0.18 -0.13,0.17 -0.09,0.26 -0.21,0.27 -0.25,0.66 -0.42,0.84 0,0.18 0,0.27 0,0.36 -0.1,0.29 -0.22,0.46 -0.33,0.57 0.1,0.11 0.21,0.16 0.34,0.16 -0.01,0.06 -0.01,0.12 -0.02,0.18l0.02 0c-0.02,0.15 -0.03,0.3 -0.03,0.45 0,0.15 0.01,0.31 0.03,0.46l-0.01 0.06 0.01 0.12c-0.05,0.22 -0.11,0.43 -0.18,0.63 -0.19,0.85 -0.37,1.61 -0.53,2.38 -0.13,0.28 -0.25,0.55 -0.38,0.73 0,0.18 0,0.27 0,0.36 -0.12,0.46 -0.25,1 -0.33,1.46 -0.67,0.64 -1.3,1.28 -1.89,2.02l0 0.08 -0 0 0 0.29c-0.21,0 -0.38,0.09 -0.55,0.09 -0.13,0.18 -0.25,0.28 -0.42,0.37 -0.38,0 -0.76,0.01 -1.1,0.01 -0.06,0.03 -0.13,0.07 -0.2,0.1 -0.05,0.09 -0.21,-0.01 -0.24,0.07l-0.34 0.18 -0.07 0.03 0 0.44 -0.29 0c0,0.41 -0.02,0.74 0.01,1.08l0 0.04c0.01,0.15 0.02,0.29 0.03,0.43 -0.04,0.06 -0.08,0.11 -0.12,0.17 -0.26,0 -0.52,0.1 -0.74,0.1l0 0.26c-0.08,0.02 -0.17,0.03 -0.24,0.03l0 0.34 0 0 0 0.03c0,0.55 -0,1.05 -0.03,1.54l0 0 -0 0.03 0 0 -0 0.03 0 0 -0 0.03c-0.17,0.18 -0.34,0.37 -0.5,0.55 -0.25,0.64 -0.5,1.19 -0.71,1.65 0,0.27 0,0.55 0,0.73 0.13,0 0.25,-0 0.38,-0 0.42,0.54 0.85,0.91 1.31,1.27 0,0.46 0,0.91 0,1.37 0.25,0.18 0.51,0.45 0.76,0.72 0.13,-0 0.25,-0 0.42,-0 -0.04,0.18 -0.04,0.27 -0.04,0.36 0.17,0.18 0.3,0.27 0.42,0.36 0,0.36 0,0.82 0.01,1.18 0.3,0.64 0.55,1.18 0.81,1.91 0,0.18 0,0.36 0,0.46 0.13,0.18 0.25,0.27 0.38,0.36l0.01 0 0.01 0 0.01 -0 0.01 0 0.01 0 0.01 0 0.01 0 0.01 0 0.01 0 0.01 0 0.01 0 0.01 0 0.01 0 0.01 -0 0.01 0 0.01 0 0.01 0 0.01 0 0.01 0 0.01 0 0.01 0 0.01 0 0.01 0 0.01 0 0.01 0 0.01 0 0.01 0 0.01 0 0.01 0 0.01 -0 0.01 0 0.01 0 0.01 0 0.01 0 0.01 0 0 0 0.17 -0 0 0.24 0 0 0 0.02 0 0.02 0 0.02 0 0.02 0 0.02 0 0.02 0 0.02 0 0.02 0 0.02 0 0.02 0 0.02 0 0.02 0 0.02 0 0.02 0 0.02 0 0.02 0 0.02 0 0.02 0 0.02 0 0.02 0 0.02 0 0.02 0 0.02 0 0.02 0 0.02 0 0.02 0 0.02 0 0.02 0 0.02 0 0.02 0 0.02 0 0.02 0 0.02 0 0.02 0 0.02 0 0.02 0 0.02 0 0.02 0 0.02 0 0.02 0 0.02 0 0.02 0 0.02 0 0.02 0 0.02 0 0.02 0 0.02 0 0.02 0 0.02 0 0.02c0.17,0.18 0.34,0.36 0.55,0.45 -0,-0.09 -0,-0.27 -0,-0.46l0.01 -0c0.33,-0 0.71,-0.1 1.09,-0.1 0.13,0.18 0.34,0.36 0.47,0.45 0.25,0.18 0.51,0.36 0.76,0.45 0.8,-0.1 1.65,-0.29 2.45,-0.56 0.38,0.45 0.81,0.91 1.19,1.36 0.21,-0 0.46,-0 0.76,-0.01 0.21,-0.09 0.46,-0.19 0.72,-0.37 0.29,-0.28 0.59,-0.64 0.93,-1.1 0.17,-0 0.29,-0 0.42,-0 0.13,0.18 0.25,0.36 0.38,0.45 0,0.64 0,1.19 -0.04,1.82 0.55,0.54 1.06,1 1.57,1.45 0,0.18 0,0.27 0,0.36 0.05,1.46 0.43,1.82 1.15,1.81 2.75,-0.11 5.49,-0.22 8.36,-0.33 0.68,0.18 1.35,0.26 2.03,0.35 0.25,-0 0.55,-0 0.8,-0.01 0.76,-0.92 1.56,-1.74 2.36,-2.66 0.13,-0.36 0.25,-0.73 0.38,-1.1 0.08,-0.09 0.25,-0.18 0.38,-0.37 0,-0.09 -0,-0.36 -0,-0.55 0.13,-0 0.25,-0 0.38,-0 0.34,-0.37 0.72,-0.92 1.14,-1.38 0.08,-0.27 0.21,-0.55 0.33,-0.91 0.3,-0.09 0.63,-0.19 0.97,-0.37 0.34,-0.19 0.76,-0.46 1.14,-0.74 0.21,-0.28 0.46,-0.64 0.71,-1.01 0.38,-0.46 -0.05,-1 -0.43,-1.73 -0.38,-0.18 -0.76,-0.45 -1.1,-0.81 -0.13,-0.09 -0.25,-0.18 -0.38,-0.36 -0,-0.18 -0,-0.46 -0,-0.73 0.46,-0 1.01,-0.01 1.52,-0.01 0.08,0.09 0.21,0.18 0.34,0.27 0.13,-0 0.25,-0 0.38,-0 0.76,-0.01 1.14,-0.37 1.14,-1.19 -0,-0.24 0.19,-0.43 0.33,-0.64l-0.16 0c-0,-0.09 -0,-0.18 -0,-0.36 -0.13,-0.27 -0.26,-0.55 -0.38,-0.82 -0.25,-0.18 -0.51,-0.45 -0.76,-0.82 -0.89,-0.63 -1.69,-1.26 -2.5,-2.08 -0.17,-0.18 -0.3,-0.45 -0.43,-0.73 0.13,-0.36 0.25,-0.73 0.42,-1.19 0.08,-0.09 0.21,-0.18 0.34,-0.46 0.3,-0.27 0.56,-0.77 0.54,-1.36 0.01,-0.15 -0.01,-0.29 -0.05,-0.44 -0.03,-0.1 -0.07,-0.19 -0.12,-0.29 -0,-0.36 -0,-0.64 -0,-0.91l0 -0.02 0 -0.02 0 -0.01 0 -0.02 0 -0.01 0 -0.01 0 -0.01 0 -0.01c0.07,-0.25 0.42,-0.3 1.12,-0.71 -0.25,0 -0.55,0 -0.8,0.1 -0.38,0 -1.14,-0.36 -1.74,-0.81 -0.25,-0.27 -0.51,-0.54 -0.76,-0.82 -0.38,-0.36 -1.52,-0.63 -2.66,-0.25 -0.46,0 -0.89,0.01 -1.31,0.01 -0.51,-0.09 -1.06,-0.17 -1.52,-0.26 -0.38,0 -0.76,0.01 -1.1,0.01 -0.38,-0.09 -0.68,-0.18 -0.97,-0.36z"/>
 </g>
</svg>
