<?xml version="1.0" encoding="UTF-8"?>
<!DOCTYPE svg PUBLIC "-//W3C//DTD SVG 1.1//EN" "http://www.w3.org/Graphics/SVG/1.1/DTD/svg11.dtd">
<!-- Creator: CorelDRAW 2021 (64-Bit) -->
<svg xmlns="http://www.w3.org/2000/svg" xml:space="preserve" width="0.496311in" height="0.468378in" version="1.1" shape-rendering="geometricPrecision" text-rendering="geometricPrecision" image-rendering="optimizeQuality" fill-rule="evenodd" clip-rule="evenodd"
viewBox="0 0 149.29 140.89"
 xmlns:xlink="http://www.w3.org/1999/xlink"
 xmlns:xodm="http://www.corel.com/coreldraw/odm/2003">
 <g id="Layer_x0020_1">
  <metadata id="CorelCorpID_0Corel-Layer"/>
  <path fill="none" fill-rule="nonzero" stroke="#336666" stroke-width="0.9" stroke-miterlimit="2.61313" d="M144.94 99.13c-0.26,-0.56 -0.53,-1.13 -0.79,-1.7 -0.44,-0.56 -0.88,-1.32 -1.14,-2.07 -1.58,-2.26 -3.07,-4.33 -4.55,-6.21 -0.79,-1.32 -1.58,-2.63 -2.28,-3.95 -0.7,0 -1.31,0 -1.92,0 -0.26,0.19 -0.52,0.38 -0.7,0.38 -1.74,0 -3.58,0 -5.23,0.01 0,0.75 0,1.51 0.01,2.07 -0.26,0.38 -0.43,0.57 -0.69,0.75 -0.86,2.26 -1.73,4.52 -2.5,6.59 -1.04,1.13 -2.08,2.07 -3.04,2.83 -1.13,0.57 -2.17,1.13 -3.31,1.7 -0.79,0 -1.57,0 -2.27,0 -0.7,0 -2.18,-0.56 -2.97,-1.5 -0.26,-0.19 -0.44,-0.38 -0.7,-0.75 -0.52,0 -1.05,-0.19 -1.57,-0.56 -1.92,-0.75 -1.93,-2.82 -0.02,-4.9 0.26,-0.19 0.52,-0.38 0.78,-0.75 -0,-0.94 -2.1,-1.69 -5.76,-0.93 -2.88,0 -5.75,0.2 -8.63,0.2 -0.7,0 -1.4,0 -1.39,0.94 0.26,0.57 0.53,1.13 0.7,1.51 0.01,3.2 0.11,6.21 0.12,9.23 -1.04,0.94 -2.17,1.89 -3.3,2.83 -1.31,0 -2.53,0.19 -3.75,0.19 -2.18,0 -4.09,0.57 -4.79,1.33 -0.52,0.56 -1.04,1.13 -1.39,1.69 -0.78,0.57 -1.56,1.13 -2.26,1.51 -0.26,0.19 -0.52,0.56 -0.78,0.94l0 1.28c-1.81,0.18 -4.16,0.23 -5.93,0.23 -2.27,-0.75 -4.54,-2.25 -7.16,-4.88 -0.79,-0.56 -1.49,-1.13 -2.27,-1.69 -1.49,-1.13 -2.97,-1.88 -4.45,-1.12 -0.96,0.38 -1.74,0.75 -2.61,1.13 -2.35,0 -4.54,-0.94 -7.25,-3.19 -0.7,-0.75 -2.28,-3.57 -3.07,-6.39 -0.27,-1.32 -0.53,-2.63 -0.8,-4.14 -0,-0.19 -0,-0.56 -0,-0.94 0.26,-0 0.52,-0.19 0.78,-0.38 0.96,-0.57 1.82,-1.51 2.87,-2.45 1.13,-0.57 2.26,-1.32 3.31,-1.89 0.52,-0.19 1.04,-0.76 1.57,-1.32 0.69,-1.13 1.48,-1.13 3.05,-1.13 0.52,0.38 1.22,0.75 1.92,1.13 0.17,-0.38 0.43,-0.76 0.69,-1.13 -0.09,-0.94 -0.09,-1.69 -0.1,-2.63 -0,-1.13 -0.01,-2.82 -0.71,-3.39 -0.7,-0.38 -1.31,-0.94 -1.92,-1.5 -0.07,-0.48 -0.09,-1.1 -0.09,-1.62l0.19 0c-0.07,-0.05 -0.13,-0.09 -0.19,-0.14l0 -0.12 -0.15 0c-0.15,-0.13 -0.29,-0.28 -0.44,-0.49 0,-0.19 -0,-0.38 -0,-0.75 -0.52,-0.56 -1.05,-1.13 -1.58,-1.69 -0.52,0 -1.05,0 -1.48,0 -2.27,0 -4.1,-0.56 -4.89,-3.01 -1.58,-3.76 -1.59,-6.21 -0.9,-7.9 0.43,-0.56 0.95,-1.32 1.48,-1.89 1.05,-0 2.18,-0 3.4,-0 -0,-0.19 -0,-0.38 -0,-0.75 -0.96,-0.75 -1.84,-1.32 -2.62,-2.25 -0.09,-0.38 -0.09,-0.94 -0.09,-1.51 1.39,-1.32 2.69,-2.64 4.08,-4.15 0.96,-0 2,-0 2.96,-0.01 0.78,0 2.7,0.75 4.19,2.44 0.79,0.56 1.57,1.13 2.27,1.5 0.26,-0 0.52,-0 0.79,-0 0.7,0 1.48,-0.75 2.17,-2.64 0.35,-0.38 0.69,-0.94 1.13,-1.51 0.7,-0.38 1.48,-0.94 2.17,-1.51 0.78,-0.76 1.47,-2.26 2.25,-3.96 -0.09,-1.13 -0.79,-2.45 -2.37,-3.95 -1.58,-1.5 -3.24,-2.82 -4.81,-4.51 -1.57,-1.32 -0.63,-3.93 1.53,-9.58 0.61,-0.76 1.23,-2.1 1.84,-3.24 0.17,-0.94 0.15,-2.06 0.41,-3 -0,-0.38 -0,-0.75 -0,-1.32 -0.26,-0.19 -0.59,-0.87 -0.77,-1.24 -1.13,0.76 -1.95,1.36 -3.08,1.93 -0.78,0.57 -0.46,0.31 -1.07,0.69 -1.48,0.75 -4.12,1.05 -4.83,-1.59 -0.44,-1.32 -0.27,-3.13 -0.62,-4.26 -0,-0.75 -0.58,-1.54 -2.84,-1.35 -2.18,-0.75 -4.48,-2 -5.54,-4.45 -1.57,-1.69 -1.45,-3.71 1.94,-7.1 -0,-0.19 -0.05,-0.5 -0.05,-0.88 -1.91,2.07 -3.67,4.16 -5.4,5.85 0,0.38 0,0.57 0,0.75 -0.26,0.57 -0.71,0.87 -0.89,1.43 -0.52,0.38 -1.04,0.76 -1.48,0.94 -0.46,0.45 -1.1,0.85 -1.48,1.32 -0.41,0.51 -0.57,1.09 -1.02,1.58 -0.26,0.56 -0.52,1.13 -0.69,1.51 -0.96,1.13 -1.75,1.5 -2.71,2.26 -0.78,0.75 -2.26,0.76 -4.88,0.2 -0.78,-0.19 -1.57,-0.37 -2.27,-0.75 -2.7,-0.37 -5.32,-0.93 -7.85,-1.49 -0.7,0 -1.64,0.01 -2.44,-2.25 -0.27,-1.5 -0.53,-3.2 -0.8,-4.89 0.69,-1.51 1.47,-3.2 2.25,-4.9 -2.18,0.19 -4.27,0.2 -6.54,0.2 -0.52,-0.19 -1.05,-0.37 -1.4,-0.75 -0.1,0.11 -0.23,0.21 -0.38,0.32 -0.46,0.5 -0.91,0.98 -1.29,1.31 -0.65,0.71 -1.39,0.75 -2.12,0.75 -0.07,0.02 -0.14,0.03 -0.21,0.04 -0.66,0.36 -1.17,0.72 -1.76,0.9 0,1.32 0.01,2.82 0.01,4.14 -0.26,0.56 -0.52,1.13 -0.6,1.51 -0.52,0.38 -1.04,0.94 -1.48,1.32l-0.64 0c-0.07,0.08 -0.16,-0.09 -0.23,0 -0.26,0 -0.52,0 -0.79,0 -0.47,0 -0.86,0.3 -1.21,0.37 -0.71,0.35 -0.97,0.87 -0.96,1.33 0,0.75 -0.08,1.51 0.01,2.26 -0.26,0.56 -0.52,1.32 -0.78,1.88 -0.26,0.75 -0.61,1.51 -0.95,2.26 -0.52,0.56 -1.04,0.94 -1.56,1.51 0.26,0.38 0.52,0.56 0.79,0.75 0,0.56 0,1.13 0.09,1.5 0.04,0.17 0.08,0.34 0.13,0.5l0.68 1.46c0.61,0.38 1.22,0.94 1.92,1.31 2.02,3.01 4.01,6.03 6.11,8.85 0.22,0.63 0.57,1.27 0.94,1.79l0.01 0.01c0.52,0.57 1.05,1.13 1.57,1.32l0 0.19 0.11 0.08c0,0.38 -0.05,0.96 0.04,1.34 0.18,0.94 0.5,1.67 0.76,2.42 0,0.56 0,1.23 0,1.42 0.17,-0.14 0.53,-0.27 0.73,-0.43 0.01,0.14 0.02,0.28 0.05,0.43 -0.26,0.56 -0.52,1.13 -0.78,1.51 -0.69,1.7 -0.69,3.2 -1.38,5.46 0,0.94 0.01,1.69 0.1,2.63 -2.51,2.64 -4.88,5.11 -7.37,7.42 0.84,0.89 1.59,1.62 2.27,2.34 2.13,1.48 4.22,3.57 6.3,5.25 0.67,0.47 1.33,0.92 2,1.36 0.11,0.11 0.24,0.23 0.38,0.34l0.06 0.04c1.05,0.56 2.18,1.13 3.32,1.69 2.27,0.75 2.97,0.75 3.06,1.5 -0.26,0.38 -0.52,0.56 -0.78,0.75 0,0.19 0,0.38 0,0.56 -1.64,3.39 -3.2,6.59 -4.67,9.6 -0.26,0 -0.52,0 -0.7,0 0,0.38 0,0.56 0,0.75 -0.26,0.38 -0.52,0.75 -0.78,1.32 0,0.38 0,0.94 0.09,1.5 0.02,4.89 0.81,5.81 2.29,5.81 2.61,-0 3.4,2.66 3.42,5.48 0.8,3.39 3.03,4.4 6.34,4.39 2,-0.19 3.92,-0.19 6.01,-0.2 1.05,0.56 2.22,1.81 3.44,2.18 0.15,0.06 0.32,0.11 0.48,0.14l0.36 0.05c1.26,0.1 2.68,-0.53 3.31,-1.6 0.09,-0 -0.05,0.81 0.21,0.43 0.26,0 0.52,-0.19 0.78,-0.19 0.26,-0.19 0.52,-0.38 0.78,-0.76 0.85,1.56 1.19,3.7 2.63,4.73 0.01,1.51 0.01,2.82 0.1,4.14 0.18,1.32 0.45,2.82 0.8,4.14 0.53,1.51 1.06,3.01 1.5,4.51 0,0.75 0.01,1.51 0.09,2.26 -0.26,0.37 -0.52,0.56 -0.78,0.75l-0 0.02c0,0.53 0,1.01 0.02,1.45 0.14,0.08 0.28,0.12 0.42,0.23 0.26,0.75 0.53,1.51 0.79,2.07 0.44,0.75 0.96,1.51 1.49,2.07 0.28,0.3 0.52,0.59 0.74,0.86 0.51,0.57 1,1.08 1.53,1.58 0.87,0.38 1.75,0.56 2.53,0.75 0.26,0.38 0.52,0.38 0.79,0.56 0.52,0 1.13,-0.19 1.66,-0.19l-0 -0.19c0.26,0.19 0.52,0.38 0.7,0.57 1.66,-0 3.23,-0 4.88,-0.01 0,0.56 0,1.13 0.01,1.69 0.7,0.56 1.4,1.13 2.18,1.5 0.26,0.19 0.52,0.37 0.79,0.56 0.52,-0.19 1.04,-0.38 1.48,-0.57 0.17,-0.19 0.43,-0.38 0.69,-0.75 0.61,-0.19 1.22,-0.38 1.91,-0.94 0.26,-0 0.52,-0 0.79,-0 0.17,-0.19 0.43,-0.38 0.69,-0.75 1.39,-0 2.96,-0 4.45,-0 0.35,-0.19 0.7,-0.57 1.13,-0.94 0.17,-0.56 0.43,-0.94 0.69,-1.7 0.26,-0.19 0.52,-0.38 0.78,-0.75 -0.09,-0.94 -0.09,-2.07 -0.1,-3.01 -0.26,0 -0.52,0 -0.79,0 -0.87,-0.75 -1.75,-1.5 -2.62,-2.45 0.61,0 1.22,0 1.92,0 0.43,-0.57 0.96,-0.94 1.47,-1.7 0.26,-0.56 0.43,-1.13 0.69,-1.69 -0,-0.19 -0,-0.38 0.09,-0.76 0.09,-0.19 0.35,-0.37 0.61,-0.56 -0,-0.37 -0,-0.94 0.08,-1.51 0.14,0.3 0.7,0.74 1.05,0.9l0 0.04c0.26,0.38 0.52,0.56 0.79,0.56 0,0.94 0.01,1.7 0.1,2.45 0.7,0.75 0.7,1.69 1.49,2.07 0.26,0.38 0.53,0.75 0.79,0.94 0,0.38 0,0.56 0,0.75 0.35,-0 0.87,-0 1.4,-0 0.61,0.37 1.22,0.56 1.92,0.75 0.18,0.75 0.44,1.13 0.7,1.69 0.52,0.56 1.05,1.13 1.58,1.69 0.87,-0 1.92,-0 2.96,-0 -1.04,1.32 -2,2.26 -2.95,3.39 0,0.38 0,0.75 0,1.13 0.26,0.38 0.53,0.75 0.79,0.94 0.7,1.69 2.27,2.44 4.46,3.2 1.13,-0.19 2.7,-1.7 4.78,-4.33 0.78,-1.13 1.47,-2.45 2.26,-2.45 0.61,0 1.22,-0 1.83,-0 1.49,0.94 2.97,1.69 4.54,2.26 1.66,-0 3.31,-0 4.88,-0.01 1.48,-0 3.05,-0.75 3.74,-1.13 0.43,-0.38 0.96,-0.75 1.48,-1.32 1.3,-1.32 2.69,-2.64 3.99,-3.96 0,-0.19 0.09,-0.38 0.09,-0.75 0.17,0 0.44,0 0.7,0 0.43,-0.19 0.96,-0.57 1.48,-0.94 0.26,-0.19 0.52,-0.38 0.78,-0.75 -0.09,-0.19 -0.09,-0.38 -0.09,-0.75 1.65,-0.38 3.22,-0.76 4.88,-1.32 1.39,-0.75 2.87,-1.7 4.44,-2.64 0.61,0 1.13,-0 1.83,-0 0.96,-0.19 2,-0.57 3.05,-0.95 0.35,-0.19 0.87,-0.38 1.39,-0.56 0.52,-0 1.05,-0 1.57,-0 0.69,-0.94 2.52,-1.7 4,-3.77 0.7,-0.38 1.48,-0.75 2.26,-1.32 0,-0.19 -0,-0.38 -0,-0.75 -0.26,0.38 -0.52,0.57 -0.78,0.75 -0.26,-0.19 -0.52,-0.37 -0.79,-0.75 -0.26,0 -0.52,0 -0.7,0 -0.7,-0.75 -1.48,-0.75 -1.49,-1.69 -0.09,-0.38 -0.09,-0.75 -0.09,-1.32 0.26,-0.38 0.52,-0.75 0.78,-1.13 -0.09,-0.94 -0.09,-2.07 -0.1,-3.01 -0.18,-0.75 -0.44,-1.51 -0.71,-2.45 -0.09,-1.88 -0.1,-4.14 -0.02,-6.21zm-140.1 -37.72l-0.28 0.26 0.11 0.1c0.06,-0.12 0.11,-0.24 0.17,-0.36zm52.53 72.84l0.01 0 -0 -0.36 -0.01 0.36z"/>
 </g>
</svg>
