<svg xmlns="http://www.w3.org/2000/svg" viewBox="0 0 1000 1000" width="1000" height="1000"><g fill="#cccccc" stroke="#222" stroke-width="2"><path d="M260.91,760.48 L253.25,760.48 L246.42,762.53 L242.65,761.20 L237.70,767.36 L235.34,766.12 L227.92,768.38 L220.61,765.61 L217.78,769.61 L206.94,772.18 L210.95,767.77 L202.94,776.49 L197.87,785.83 L198.46,788.71 L193.98,795.48 L197.04,800.00 L192.45,803.59 L192.10,805.85 L197.52,814.68 L193.98,817.35 L185.73,814.37 L189.39,823.51 L183.02,823.40 L176.42,825.56 L166.05,823.71 L161.10,818.27 L148.61,817.04 L144.25,813.86 L138.36,813.04 L129.76,799.08 L119.86,793.43 L117.39,796.20 L114.56,796.00 L113.62,790.66 L106.31,787.68 L107.02,771.87 L102.30,769.92 L95.47,770.13 L92.05,760.99 L91.94,754.22 L88.16,749.39 L89.46,741.28 L86.28,738.72 L87.46,734.41 L85.69,731.22 L80.03,728.66 L79.21,726.30 L71.08,720.34 L69.08,709.87 L64.60,709.77 L62.36,705.35 L56.82,703.71 L57.53,701.56 L64.36,696.94 L62.95,688.42 L70.84,680.10 L67.66,679.79 L65.42,674.35 L59.06,673.33 L57.53,668.81 L58.82,665.01 L56.70,662.75 L60.12,659.26 L59.41,656.39 L65.89,650.95 L71.20,650.23 L72.61,646.84 L70.61,639.25 L79.33,630.11 L88.75,625.39 L92.76,625.29 L95.47,629.80 L91.70,623.34 L92.17,617.69 L72.14,612.15 L64.83,615.23 L56.11,606.19 L55.05,597.26 L58.23,593.87 L53.64,589.26 L53.29,585.46 L48.22,587.82 L41.74,584.23 L34.31,574.17 L21.82,564.11 L19.23,558.05 L23.47,556.92 L24.53,546.24 L28.54,543.27 L31.25,543.47 L29.36,536.39 L25.00,534.23 L27.71,529.00 L26.65,520.89 L28.30,518.63 L24.65,514.42 L34.67,508.57 L43.03,508.16 L45.98,504.77 L56.58,508.47 L63.07,503.13 L68.37,500.05 L68.13,498.72 L55.64,491.63 L53.40,488.76 L66.25,487.43 L86.16,479.21 L90.62,478.56 L83.80,474.80 L75.44,465.87 L78.03,457.04 L85.10,452.42 L91.23,453.45 L97.59,451.50 L96.53,448.31 L98.30,438.05 L96.06,429.84 L105.96,424.81 L114.44,424.60 L117.03,422.14 L115.97,414.13 L118.92,411.05 L120.33,403.76 L117.03,399.14 L116.45,393.60 L119.74,384.88 L122.93,383.13 L123.99,379.95 L121.75,375.12 L123.87,373.07 L121.98,369.07 L126.46,365.68 L138.60,364.86 L142.84,361.57 L165.23,367.01 L170.89,367.01 L175.48,363.63 L179.72,354.70 L184.32,349.67 L177.96,352.23 L170.41,359.01 L162.64,357.06 L159.69,348.33 L165.23,340.02 L157.69,330.98 L166.76,329.34 L165.11,326.78 L166.64,321.03 L170.30,317.74 L168.76,314.15 L171.12,304.81 L175.48,304.40 L180.78,298.03 L205.76,282.33 L216.25,278.12 L217.10,278.24 L213.31,276.07 L211.42,272.99 L210.71,267.85 L213.78,263.44 L208.47,258.41 L211.77,251.33 L215.54,249.07 L216.72,244.04 L212.60,240.45 L212.36,233.36 L208.12,224.43 L201.05,213.04 L197.99,212.01 L192.33,206.06 L184.44,203.08 L175.13,205.03 L175.25,200.00 L169.71,192.10 L161.46,188.81 L155.45,177.42 L158.16,164.89 L147.91,156.99 L138.36,145.90 L134.47,144.47 L137.66,130.09 L144.49,129.79 L147.79,127.53 L149.20,124.45 L148.61,113.98 L151.68,109.77 L159.34,105.25 L171.95,105.25 L174.89,98.48 L177.84,96.12 L186.68,96.63 L190.61,97.83 L196.93,93.14 L204.70,95.60 L221.55,95.09 L217.90,84.11 L218.02,75.59 L228.04,71.99 L235.93,64.60 L242.18,64.50 L244.18,61.11 L254.31,63.58 L267.04,61.73 L275.41,63.06 L275.99,59.37 L284.24,46.02 L289.07,43.87 L295.32,36.68 L299.44,38.12 L304.16,35.66 L319.95,43.25 L326.31,42.64 L327.37,36.27 L331.26,31.75 L336.80,42.02 L342.81,34.83 L347.05,33.29 L348.93,27.85 L361.43,29.91 L368.02,21.69 L383.81,19.23 L395.36,33.70 L401.37,32.58 L405.26,36.07 L406.09,40.58 L397.25,48.90 L403.14,60.60 L408.91,65.01 L426.71,69.63 L422.46,77.64 L408.56,87.80 L406.56,91.39 L395.36,97.96 L392.89,104.12 L383.81,113.26 L383.70,119.52 L380.63,121.37 L372.97,121.88 L367.79,127.02 L369.56,126.60 L370.73,129.48 L368.97,132.15 L374.39,131.74 L380.40,134.51 L383.22,136.15 L384.64,142.93 L391.00,145.80 L395.36,150.42 L396.19,154.42 L399.01,155.35 L398.19,160.99 L392.06,164.59 L389.82,170.23 L392.89,170.44 L395.36,172.80 L397.60,175.67 L396.42,178.34 L403.96,177.31 L408.32,178.65 L410.09,176.29 L413.98,175.57 L427.77,187.78 L426.82,190.45 L428.95,193.12 L423.76,199.08 L420.23,198.77 L419.16,200.31 L422.46,207.08 L415.63,209.14 L423.52,211.39 L423.64,214.17 L420.81,213.76 L420.70,215.71 L425.88,215.19 L429.18,216.84 L437.19,214.17 L439.08,214.99 L438.84,217.55 L442.97,219.09 L447.68,230.90 L452.16,233.05 L456.52,240.75 L458.99,242.40 L479.26,245.89 L492.11,239.73 L493.52,250.40 L502.59,251.43 L513.32,246.19 L520.97,244.76 L531.93,245.99 L543.25,251.74 L571.17,259.64 L569.64,262.41 L576.36,271.65 L587.79,269.09 L587.79,266.72 L599.45,251.22 L599.92,245.06 L610.06,237.98 L617.48,238.91 L627.26,237.37 L635.51,243.32 L640.46,241.68 L643.52,237.98 L649.30,237.47 L655.66,229.05 L663.32,229.05 L670.51,225.66 L673.57,221.56 L679.58,222.38 L682.06,220.22 L693.01,217.14 L695.72,210.88 L712.34,205.03 L716.11,204.62 L720.59,207.19 L733.79,202.98 L739.32,199.69 L746.16,186.66 L759.12,193.94 L767.84,195.48 L773.61,191.99 L784.81,190.97 L787.05,192.81 L786.69,197.74 L778.45,202.87 L775.97,210.47 L774.52,210.50 L783.04,213.55 L792.47,212.63 L796.95,217.35 L801.89,218.79 L798.24,227.10 L800.95,232.75 L808.73,230.28 L802.37,235.21 L801.31,238.08 L810.14,244.24 L808.02,248.66 L829.59,254.30 L830.18,256.25 L828.53,261.08 L829.59,266.93 L826.88,271.96 L824.75,284.07 L830.65,295.47 L825.70,297.42 L818.86,304.71 L810.85,317.13 L800.48,322.67 L800.95,327.19 L805.19,328.83 L809.32,332.93 L807.32,338.99 L809.67,347.00 L806.37,354.70 L814.03,360.03 L814.86,365.06 L812.26,367.01 L813.09,367.94 L821.22,370.61 L826.52,367.53 L833.59,366.91 L833.47,370.09 L844.55,370.09 L848.32,374.30 L854.10,375.23 L870.95,364.35 L874.13,359.32 L887.33,360.14 L887.56,366.09 L892.63,365.47 L895.10,367.94 L898.28,368.04 L897.11,374.82 L900.29,378.82 L906.53,379.74 L907.24,382.93 L905.12,381.69 L911.13,385.70 L910.30,390.11 L914.19,393.60 L926.80,396.48 L935.76,402.12 L937.76,408.49 L946.71,414.75 L948.01,423.68 L938.94,430.04 L935.76,433.64 L936.35,435.48 L931.87,439.28 L931.16,443.28 L926.68,448.73 L927.74,454.47 L925.15,457.66 L926.09,462.28 L936.11,476.54 L938.70,481.68 L943.53,484.45 L948.48,481.98 L953.78,485.68 L953.78,489.89 L966.63,493.79 L978.53,506.62 L978.18,512.57 L980.77,516.37 L975.94,525.00 L974.52,530.74 L975.82,535.47 L969.93,547.68 L969.46,552.61 L962.86,553.84 L959.68,558.36 L954.85,560.62 L955.08,563.70 L950.49,567.29 L952.84,573.65 L950.25,576.94 L958.14,588.85 L965.21,593.26 L965.21,596.85 L962.50,601.06 L952.37,608.04 L945.30,609.17 L940.47,617.38 L926.92,626.52 L925.03,630.73 L921.14,633.50 L915.13,632.57 L911.13,642.33 L902.88,647.77 L907.24,651.36 L908.18,659.26 L899.34,663.37 L897.81,666.86 L893.81,664.40 L888.39,666.66 L887.68,671.68 L881.43,674.46 L879.08,681.44 L879.78,685.44 L874.84,696.22 L856.45,695.71 L853.98,692.01 L847.85,691.60 L832.53,693.34 L829.59,695.50 L828.17,701.35 L824.17,705.56 L816.74,701.76 L817.92,694.78 L815.45,704.84 L807.90,706.48 L806.02,710.28 L808.73,716.85 L806.61,723.42 L810.73,733.17 L807.43,739.85 L802.25,742.51 L803.54,749.08 L810.50,752.27 L817.68,758.63 L820.75,766.23 L818.51,774.44 L819.92,775.88 L819.22,779.37 L816.15,782.65 L823.11,785.53 L824.64,787.58 L822.87,797.02 L825.58,802.16 L822.99,807.39 L823.93,813.34 L821.93,818.48 L814.86,818.37 L812.74,820.43 L807.32,821.04 L804.84,827.10 L806.37,830.38 L811.56,828.23 L818.75,829.26 L821.34,832.13 L814.15,838.80 L804.96,843.52 L800.60,840.03 L795.77,841.78 L779.15,839.01 L760.06,840.24 L752.52,838.08 L750.64,830.59 L744.63,824.33 L744.51,820.74 L741.09,821.35 L736.97,818.48 L728.95,816.63 L724.83,813.14 L718.23,816.83 L717.52,794.97 L717.17,810.88 L717.88,819.09 L715.99,824.12 L712.10,826.79 L712.46,833.98 L704.56,843.93 L694.19,846.71 L690.42,850.91 L683.94,852.15 L673.45,845.37 L667.80,845.78 L661.55,842.09 L657.19,843.42 L654.48,846.91 L653.19,853.69 L655.31,857.48 L644.00,859.85 L641.99,868.78 L626.79,879.86 L614.89,883.04 L603.93,888.90 L589.67,886.64 L584.61,887.15 L582.01,889.72 L569.99,902.34 L562.69,906.96 L556.68,917.54 L550.08,925.13 L540.77,928.11 L528.04,923.18 L530.05,932.73 L525.45,938.27 L519.56,938.27 L516.97,940.32 L483.39,937.76 L471.72,940.32 L469.13,944.33 L465.59,945.25 L459.82,950.90 L458.99,958.70 L456.05,962.29 L457.46,966.91 L454.52,975.02 L454.99,978.20 L452.87,980.15 L437.90,980.77 L428.95,974.10 L415.51,972.04 L406.09,966.09 L409.62,959.32 L406.56,953.67 L404.32,953.05 L405.26,948.84 L408.21,946.28 L407.38,940.22 L411.51,939.40 L413.86,933.75 L412.92,931.80 L417.28,927.39 L418.46,922.57 L416.57,916.00 L419.05,913.22 L418.81,910.35 L421.99,907.78 L422.89,908.60 L419.99,900.50 L420.93,898.65 L418.93,897.83 L421.88,895.77 L431.89,893.93 L421.88,886.64 L420.46,873.40 L411.74,867.65 L415.28,862.62 L419.52,860.36 L419.75,856.15 L427.77,849.07 L423.29,842.50 L426.00,839.01 L423.76,832.44 L424.82,828.33 L420.70,826.89 L407.62,812.52 L407.15,808.62 L409.15,807.60 L407.73,804.21 L411.15,799.69 L410.92,794.76 L402.08,788.09 L401.61,769.00 L402.08,768.86 L399.01,766.95 L391.83,766.02 L389.59,763.15 L382.52,760.58 L373.09,764.38 L368.38,758.43 L360.36,754.94 L354.24,757.60 L344.57,756.48 L332.79,748.16 L331.61,743.13 L327.02,739.74 L306.40,731.63 L299.44,731.22 L298.62,735.33 L292.85,739.33 L291.08,750.01 L286.60,749.60 L281.53,753.91 L276.94,754.32 L271.99,754.52 L265.98,752.37 L262.33,758.12 L259.50,758.32 L260.91,760.48 Z M286.01,79.69 L287.32,80.45 L285.42,76.82 L286.01,79.69 Z M345.35,128.80 L344.46,124.76 L340.92,118.70 L345.35,128.80 Z M346.02,137.73 L346.93,135.95 L346.33,133.23 L346.02,137.73 Z M466.09,336.76 L470.31,327.19 L471.01,322.67 L466.09,336.76 Z M457.70,346.48 L462.76,344.33 L463.34,343.03 L457.70,346.48 Z M442.14,349.67 L450.16,354.08 L447.09,351.51 L442.14,349.67 Z M436.49,340.84 L439.90,346.79 L442.14,349.67 L436.49,340.84 Z M436.60,468.02 L437.62,469.56 L436.72,464.12 L436.60,468.02 Z M437.43,474.49 L439.26,479.55 L438.17,472.89 L437.43,474.49 Z M439.43,484.96 L440.36,486.48 L440.38,486.30 L439.90,483.44 L439.43,484.96 Z M495.52,466.18 L490.34,465.97 L489.76,466.60 L495.52,466.18 Z M483.03,496.66 L479.46,497.20 L492.46,498.41 L483.03,496.66 Z M526.87,520.68 L524.16,518.43 L521.13,517.67 L526.87,520.68 Z M522.04,524.48 L522.80,525.41 L523.22,523.55 L522.04,524.48 Z M518.38,540.70 L518.62,541.87 L519.21,541.42 L521.00,533.45 L518.38,540.70 Z M450.39,554.05 L460.06,558.98 L460.05,558.97 L450.39,554.05 Z M467.12,576.32 L481.74,583.40 L464.06,574.68 L467.12,576.32 Z M500.24,622.10 L497.88,618.61 L493.28,616.15 L500.24,622.10 Z M496.58,621.80 L500.35,622.16 L500.24,622.10 L496.58,621.80 Z M491.99,628.37 L490.22,635.65 L493.87,625.39 L491.99,628.37 Z M515.55,648.38 L519.33,650.03 L512.14,646.12 L515.55,648.38 Z M473.72,766.23 L477.96,768.07 L468.18,762.12 L473.72,766.23 Z M496.70,778.85 L497.41,778.85 L481.62,772.49 L496.70,778.85 Z M563.16,792.61 L558.80,791.27 L555.97,791.17 L563.16,792.61 Z M462.65,908.91 L463.47,905.73 L463.35,902.24 L462.65,908.91 Z M282.83,128.14 L277.43,134.97 L278.35,135.12 L282.83,128.14 Z M343.63,142.41 L344.27,141.16 L334.09,148.88 L343.63,142.41 Z M316.65,259.95 L316.41,255.23 L311.70,248.45 L316.06,257.18 L316.65,259.95 Z M300.15,297.72 L298.93,296.90 L300.11,298.44 L300.15,297.72 Z M282.95,412.69 L280.83,411.67 L283.05,413.70 L282.95,412.69 Z M272.70,531.77 L260.56,528.59 L259.08,528.86 L272.70,531.77 Z M277.58,535.69 L277.53,534.95 L272.70,531.77 L277.58,535.69 Z M295.67,551.48 L284.95,545.75 L286.25,547.37 L295.67,551.48 Z M308.19,553.25 L305.81,547.68 L308.19,553.25 L308.19,553.25 Z M298.03,686.47 L292.75,687.37 L293.20,688.11 L298.03,686.47 Z M326.07,687.70 L318.42,688.42 L326.50,687.99 L326.07,687.70 Z M85.13,556.51 L86.87,557.64 L90.99,557.23 L85.13,556.51 Z M121.87,568.03 L129.05,573.14 L124.46,568.62 L121.87,568.03 Z M158.71,539.24 L183.96,528.49 L158.71,539.24 L158.71,539.24 Z M191.15,538.44 L207.14,538.64 L205.53,537.83 L191.15,538.44 Z M127.37,632.67 L124.81,631.14 L119.39,630.11 L127.37,632.67 Z M133.53,647.25 L130.82,634.73 L129.86,634.15 L133.53,647.25 Z M258.05,615.95 L257.49,615.95 L252.78,619.64 L258.05,615.95 Z M266.10,629.39 L267.16,628.16 L265.97,624.66 L266.10,629.39 Z M194.22,723.11 L193.67,722.31 L191.86,725.78 L194.22,723.11 Z M213.19,728.04 L199.52,727.22 L210.48,728.45 L213.19,728.04 Z M223.44,721.68 L215.57,727.67 L217.19,727.42 L223.44,721.68 Z M168.17,690.26 L165.46,687.29 L168.73,693.59 L168.17,690.26 Z M189.62,712.75 L186.44,711.92 L186.38,711.93 L189.62,712.75 Z M179.61,714.49 L183.07,712.23 L181.84,712.34 L179.61,714.49 Z M241.94,697.04 L248.89,701.97 L240.53,695.29 L244.41,702.48 L241.94,697.04 Z M164.88,614.82 L162.05,609.68 L165.35,619.33 L164.88,614.82 Z M222.26,570.57 L226.03,579.71 L226.46,580.26 L222.26,570.57 Z M232.04,585.77 L229.93,584.66 L233.22,588.85 L232.04,585.77 Z M191.98,378.82 L193.32,379.68 L187.50,369.17 L191.98,378.82 Z M199.52,383.64 L208.00,385.80 L197.10,382.10 L199.52,383.64 Z M163.23,505.29 L159.34,504.88 L145.08,506.72 L163.23,505.29 Z M170.77,502.21 L173.71,500.15 L163.23,505.29 L170.77,502.21 Z M206.58,480.01 L189.62,479.01 L202.58,480.75 L206.58,480.01 Z M214.01,480.44 L207.85,480.08 L209.06,481.06 L214.01,480.44 Z M108.24,483.62 L105.83,482.77 L106.55,483.73 L108.24,483.62 Z M221.08,278.84 L232.16,272.06 L219.39,278.58 L221.08,278.84 Z M500.00,833.77 L507.78,831.51 L508.09,831.07 L500.00,833.77 Z M458.88,639.86 L455.68,646.69 L457.11,645.00 L458.88,639.86 Z M409.15,681.33 L399.82,680.29 L401.73,681.23 L409.15,681.33 Z M444.74,630.32 L447.33,636.06 L448.23,636.90 L444.74,630.32 Z M448.67,637.30 L453.22,641.51 L451.57,638.43 L448.67,637.30 Z M378.04,500.05 L360.84,497.90 L370.73,499.54 L378.04,500.05 Z M377.57,288.08 L372.50,282.74 L374.39,285.41 L377.57,288.08 Z M407.87,308.76 L409.38,309.22 L409.17,310.49 L411.74,308.91 L407.87,308.76 Z M356.78,314.83 L355.42,315.69 L354.12,320.31 L356.78,314.83 Z M377.92,316.30 L381.10,316.61 L387.11,316.10 L377.92,316.30 Z M378.16,323.87 L377.69,325.03 L378.16,325.80 L378.16,323.87 Z M608.17,316.51 L606.75,316.55 L619.01,320.31 L608.17,316.51 Z M627.82,335.78 L629.97,335.91 L630.92,339.91 L629.39,332.46 L628.79,335.50 L627.82,335.78 Z M628.56,342.48 L627.90,345.33 L630.92,339.91 L628.56,342.48 Z M629.27,359.62 L627.17,348.47 L626.56,351.10 L629.27,359.62 Z M631.74,373.28 L636.22,367.32 L629.15,370.71 L633.27,369.89 L631.74,373.28 Z M633.74,381.08 L635.17,384.40 L631.74,373.28 L633.74,381.08 Z M639.52,389.39 L635.74,385.71 L636.22,386.83 L639.52,389.39 Z M632.57,405.00 L627.85,403.97 L628.69,403.24 L626.53,404.06 L632.57,405.00 Z M653.78,478.70 L659.55,470.80 L651.07,482.19 L653.78,478.70 Z M698.39,539.18 L695.37,543.68 L692.90,551.38 L698.39,539.18 Z M629.03,563.80 L629.27,563.77 L625.14,563.28 L629.03,563.80 Z M639.90,642.34 L633.04,639.04 L636.10,641.71 L639.90,642.34 Z M604.60,789.96 L609.70,785.42 L604.64,788.61 L604.60,789.96 Z M589.44,521.30 L589.72,521.76 L589.81,518.29 L589.44,521.30 Z M558.80,704.94 L556.06,704.33 L568.23,712.95 L572.59,713.87 L565.40,710.59 L558.80,704.94 Z M569.52,723.63 L570.25,723.79 L565.40,718.70 L569.52,723.63 Z M601.81,742.51 L608.17,744.05 L599.29,740.80 L601.81,742.51 Z M511.78,740.56 L512.55,740.05 L508.13,736.56 L511.78,740.56 Z M527.69,637.71 L522.62,634.42 L527.92,638.60 L527.69,637.71 Z M592.59,654.74 L590.20,653.99 L590.85,654.85 L592.59,654.74 Z M605.58,651.26 L595.73,654.55 L599.22,654.34 L605.58,651.26 Z M503.77,614.92 L508.12,604.07 L507.78,604.35 L503.77,614.92 Z M509.45,603.03 L510.25,604.00 L510.25,602.40 L509.45,603.03 Z M510.25,606.79 L506.60,616.77 L510.25,609.27 L510.25,606.79 Z M548.08,512.16 L556.56,511.65 L556.74,511.54 L549.61,511.45 L548.08,512.16 Z M584.49,502.82 L577.18,502.72 L568.11,504.77 L584.49,502.82 Z M590.05,509.19 L590.26,501.08 L589.20,505.18 L590.05,509.19 Z M591.83,484.73 L587.76,483.31 L590.50,484.86 L591.83,484.73 Z M559.04,449.85 L555.16,453.95 L556.80,453.76 L559.04,449.85 Z M610.94,434.58 L609.00,436.72 L609.15,437.92 L610.94,434.58 Z M530.15,365.03 L532.64,364.14 L533.92,362.41 L530.15,365.03 Z M550.79,321.13 L543.36,329.14 L540.65,334.37 L550.79,321.13 Z M665.09,297.72 L662.76,302.75 L664.14,302.34 L665.09,297.72 Z M659.33,303.74 L647.41,304.40 L656.37,304.60 L659.33,303.74 Z M699.20,537.97 L705.62,536.70 L699.85,537.01 L699.20,537.97 Z M711.74,539.91 L721.65,545.12 L713.28,540.19 L711.74,539.91 Z M799.95,577.78 L804.13,574.58 L799.95,577.78 L799.95,577.78 Z M851.39,572.52 L858.54,573.89 L858.54,573.89 L851.39,572.52 Z M858.37,565.57 L858.29,561.71 L857.28,564.41 L858.37,565.57 Z M889.56,542.04 L890.27,548.30 L890.51,538.96 L889.56,542.04 Z M926.80,518.22 L928.45,512.57 L929.63,507.54 L926.80,518.22 Z M685.59,675.18 L685.59,672.40 L684.41,676.43 L685.59,675.18 Z M741.92,623.85 L737.56,630.01 L736.26,634.22 L741.92,623.85 Z M745.10,623.44 L748.63,621.39 L741.92,623.85 L745.10,623.44 Z M761.83,669.32 L769.91,660.73 L768.90,660.91 L761.83,669.32 Z M796.59,691.60 L799.62,690.74 L791.34,691.35 L796.59,691.60 Z M702.42,727.87 L704.92,728.55 L706.67,727.93 L702.42,727.87 Z M703.20,599.96 L700.20,609.79 L703.27,603.63 L703.20,599.96 Z M834.65,624.57 L834.89,630.93 L835.24,639.14 L834.65,624.57 Z M907.36,619.02 L913.72,605.78 L907.48,617.59 L907.71,614.20 L907.36,619.02 Z M828.64,661.32 L830.41,659.88 L831.12,657.21 L828.64,661.32 Z M853.04,531.05 L862.70,535.36 L857.36,532.49 L857.63,533.00 L845.02,524.17 L853.04,531.05 Z M750.64,461.45 L745.45,458.48 L743.90,458.84 L750.64,461.45 Z M779.83,449.44 L778.68,449.44 L770.31,457.25 L779.83,449.44 Z M802.25,450.16 L804.96,449.24 L799.28,449.28 L802.25,450.16 Z M800.48,561.85 L816.86,545.42 L818.51,538.75 L816.04,546.24 L800.48,561.85 Z M799.55,575.07 L799.89,570.68 L798.36,566.88 L799.55,575.07 Z M734.73,340.74 L734.56,342.49 L737.56,337.76 L734.73,340.74 Z M752.17,339.30 L740.27,337.55 L737.56,337.76 L752.17,339.30 Z M722.36,291.57 L730.25,288.79 L692.53,301.31 L692.53,301.31 L722.36,291.57 Z M736.02,296.08 L747.10,300.09 L737.44,296.29 L736.02,296.08 Z M771.95,210.54 L769.96,210.57 L768.67,212.32 L771.95,210.54 Z" /></g></svg>