<svg xmlns="http://www.w3.org/2000/svg" viewBox="0 0 1000 1000" width="1000" height="1000"><g fill="#cccccc" stroke="#222" stroke-width="2"><path d="M305.29,951.93 L291.35,938.13 L292.12,928.68 L280.94,917.67 L268.38,912.40 L264.71,903.25 L251.08,909.30 L241.58,918.75 L235.15,912.71 L223.67,914.72 L210.96,910.07 L208.66,906.66 L212.64,901.39 L210.96,897.20 L184.92,895.34 L176.65,904.65 L159.81,897.05 L150.62,896.27 L148.02,888.99 L136.53,884.34 L121.53,869.45 L114.17,866.97 L93.04,871.31 L82.78,876.12 L74.36,870.85 L66.09,860.93 L51.54,865.89 L50.47,862.79 L40.98,856.89 L38.22,851.62 L47.25,844.34 L41.28,832.55 L45.72,821.86 L43.12,817.36 L49.86,797.83 L64.41,788.06 L66.24,772.71 L72.68,762.48 L71.30,760.15 L85.54,755.19 L92.14,755.19 L90.29,737.36 L82.94,724.65 L70.07,727.28 L68.54,731.94 L63.33,730.69 L50.32,699.38 L40.06,696.59 L40.98,692.71 L35.92,690.85 L32.55,697.67 L30.26,696.59 L30.26,683.10 L19.23,676.12 L19.69,659.69 L29.49,657.67 L43.89,639.53 L53.69,631.01 L58.13,617.83 L64.41,614.42 L70.99,606.36 L91.66,594.57 L113.20,573.89 L86.30,544.03 L68.85,532.25 L56.60,518.29 L43.73,497.21 L42.97,487.44 L48.94,478.14 L82.48,444.19 L116.30,406.80 L92.74,391.78 L89.67,395.20 L64.56,388.37 L88.91,336.28 L104.83,332.87 L114.33,335.20 L108.82,300.00 L111.57,269.00 L116.01,259.85 L113.26,256.75 L113.10,247.76 L119.38,241.09 L120.61,224.34 L123.98,221.55 L130.71,226.67 L137.45,220.93 L146.18,228.38 L148.32,224.34 L146.64,216.13 L153.99,211.79 L158.28,205.90 L153.84,199.85 L152.92,193.34 L154.91,191.63 L163.79,193.49 L167.93,190.08 L161.95,178.76 L163.18,171.17 L156.90,161.86 L159.66,143.57 L158.28,140.16 L147.86,139.23 L137.30,145.90 L134.08,144.97 L134.70,133.03 L141.74,123.42 L141.74,120.16 L114.63,101.09 L108.51,85.43 L101.62,77.52 L105.45,55.35 L101.46,37.68 L106.82,31.32 L111.27,19.23 L114.33,19.23 L117.54,30.39 L127.50,32.87 L126.89,45.28 L135.46,65.12 L158.58,70.86 L166.39,78.30 L171.29,70.70 L179.87,69.00 L182.78,58.77 L186.61,57.99 L186.45,69.15 L195.80,78.14 L191.05,87.76 L210.34,87.91 L220.76,89.31 L228.87,96.28 L232.55,92.87 L230.56,86.05 L232.85,81.87 L240.21,88.84 L240.97,97.06 L243.73,99.23 L252.30,97.83 L260.27,91.79 L268.84,95.20 L274.97,86.67 L274.05,79.70 L291.66,80.47 L298.86,74.11 L303.14,76.90 L300.85,85.28 L303.24,88.16 L310.80,84.04 L319.53,84.66 L321.52,75.51 L338.67,85.43 L346.79,81.71 L350.92,97.52 L361.64,92.25 L366.08,93.49 L369.30,97.99 L373.28,95.04 L380.63,90.39 L380.78,82.95 L383.08,81.25 L394.11,90.86 L394.41,94.11 L391.04,97.83 L391.96,101.40 L406.36,100.94 L412.18,104.97 L418.00,98.76 L417.84,91.63 L426.57,92.87 L434.69,90.70 L436.68,92.56 L435.30,98.61 L445.25,102.02 L449.24,100.94 L451.07,93.18 L460.87,94.58 L462.10,85.28 L476.49,84.66 L482.01,81.09 L485.99,90.24 L493.19,94.89 L496.10,100.16 L499.31,98.45 L505.90,111.48 L506.20,118.30 L512.79,127.29 L513.09,144.04 L506.81,188.69 L505.74,196.13 L507.89,197.21 L505.90,199.07 L497.78,258.14 L499.77,261.71 L496.10,277.21 L499.62,278.61 L496.55,280.16 L498.09,308.84 L458.88,264.81 L495.64,306.20 L549.23,366.51 L552.45,369.15 L562.86,350.70 L575.27,357.21 L582.31,351.47 L585.99,355.35 L585.22,361.09 L593.80,367.44 L599.77,368.22 L602.68,375.51 L607.25,376.35 L611.87,363.57 L641.73,373.49 L641.11,375.82 L644.64,377.06 L644.79,384.96 L638.54,393.53 L646.78,396.90 L654.59,394.73 L658.88,399.85 L658.27,406.82 L662.40,405.89 L667.76,410.85 L679.70,404.50 L689.35,404.19 L693.79,401.55 L700.38,411.78 L709.87,411.16 L726.10,432.56 L716.61,419.85 L725.95,418.61 L737.44,422.33 L743.26,421.71 L747.08,395.66 L742.80,392.87 L749.99,391.16 L751.98,395.66 L757.34,397.06 L759.95,401.55 L766.53,399.38 L771.28,402.33 L772.35,397.99 L776.33,398.61 L778.32,393.95 L783.99,396.75 L786.59,394.42 L792.72,394.57 L791.65,384.81 L795.48,384.34 L798.69,386.98 L802.37,382.02 L806.35,381.55 L804.82,377.99 L814.00,377.21 L813.39,370.39 L816.91,373.96 L820.59,370.39 L823.35,372.40 L828.40,369.46 L829.62,365.89 L831.00,369.46 L835.75,371.94 L837.43,370.23 L840.65,373.33 L845.09,369.61 L854.89,383.57 L859.49,383.10 L865.61,386.36 L852.29,397.68 L849.99,398.92 L855.35,398.14 L854.59,402.02 L864.39,409.15 L866.07,413.95 L862.40,417.06 L873.57,411.94 L872.96,417.52 L877.71,422.64 L882.46,422.48 L886.44,426.82 L897.00,424.34 L902.82,431.94 L914.00,433.33 L915.69,429.15 L910.79,427.29 L908.80,423.41 L917.22,420.16 L922.42,409.61 L920.13,396.59 L929.78,399.07 L931.92,402.33 L938.50,399.85 L942.33,388.53 L936.82,389.15 L935.44,386.51 L945.09,385.74 L953.97,380.47 L953.36,387.75 L959.18,388.06 L962.39,393.64 L962.55,403.88 L969.13,405.12 L968.67,410.70 L975.56,412.09 L975.56,414.73 L969.28,417.99 L971.12,424.81 L976.02,429.61 L975.87,439.23 L980.77,442.17 L978.47,449.46 L972.35,448.99 L966.99,454.73 L934.06,466.98 L906.65,481.40 L920.13,540.31 L927.94,578.76 L917.52,584.81 L930.08,627.75 L909.71,639.53 L893.48,644.34 L885.37,650.54 L863.31,657.98 L861.63,661.70 L859.03,661.55 L857.34,664.96 L849.07,669.77 L815.23,689.77 L810.48,689.14 L805.58,692.40 L800.07,692.09 L797.47,697.67 L781.54,701.70 L728.40,724.18 L695.17,632.71 L726.87,723.25 L692.41,739.38 L693.64,745.89 L685.22,744.96 L669.44,751.31 L651.53,759.07 L648.46,763.10 L623.81,770.07 L580.93,790.85 L554.75,797.83 L493.34,821.86 L460.57,839.38 L454.29,847.44 L448.01,849.30 L441.27,850.38 L428.41,859.07 L388.44,890.54 L369.61,905.73 L346.18,932.40 L319.22,963.72 L317.23,967.44 L319.07,967.44 L312.94,974.41 L300.69,980.77 L305.29,951.93 Z M283.54,784.80 L297.14,692.07 L281.55,796.74 L264.71,903.25 L283.54,784.80 Z M113.83,725.03 L106.52,727.90 L90.29,737.36 L113.83,725.03 Z M889.65,490.85 L846.62,516.12 L906.65,481.40 L889.65,490.85 Z M366.85,170.08 L368.23,157.99 L365.47,145.59 L367.61,161.71 L366.85,170.08 Z M238.52,205.90 L305.90,269.77 L326.27,288.99 L307.43,271.17 L238.52,205.90 Z M259.96,312.72 L152.46,414.73 L305.90,269.77 L259.96,312.72 Z M246.79,446.51 L244.65,448.68 L346.18,351.63 L356.89,341.24 L246.79,446.51 Z M276.04,459.85 L278.49,460.78 L308.35,470.23 L244.65,448.68 L276.04,459.85 Z M324.74,557.83 L339.29,588.21 L278.49,460.78 L324.74,557.83 Z M573.89,524.81 L561.02,516.28 L545.86,510.23 L557.04,515.04 L573.89,524.81 Z M528.12,598.75 L600.84,579.69 L591.80,582.01 L528.12,598.75 Z M627.64,626.36 L624.42,624.18 L625.66,625.77 L627.64,626.36 Z M628.33,651.08 L629.02,659.38 L628.33,651.08 L628.33,651.08 Z M285.99,661.55 L288.22,674.12 L289.06,670.39 L285.99,661.55 Z M257.36,804.34 L226.12,798.60 L207.43,795.50 L257.36,804.34 Z M98.25,662.63 L95.19,666.66 L92.30,666.01 L93.96,666.82 L89.06,675.50 L98.25,662.63 Z M138.68,641.08 L135.15,642.07 L143.27,642.94 L138.68,641.08 Z M254.60,492.25 L220.91,525.27 L201.16,545.12 L254.60,492.25 Z M432.39,790.85 L433.92,792.55 L430.09,780.15 L432.39,790.85 Z M395.48,612.84 L397.54,616.38 L397.48,603.87 L396.71,613.18 L395.48,612.84 Z M467.32,460.21 L434.99,418.45 L398.39,371.63 L391.35,386.05 L399.16,372.71 L467.32,460.21 Z M545.40,452.71 L584.76,448.84 L548.47,451.01 L545.40,452.71 Z M542.70,464.54 L542.70,464.53 L520.90,437.06 L504.67,417.37 L542.70,464.54 Z M476.66,472.19 L478.18,462.33 L476.66,472.19 L476.66,472.19 Z M468.84,503.88 L450.77,504.19 L440.51,505.27 L468.84,503.88 Z M606.66,377.99 L607.10,376.78 L593.03,384.34 L606.66,377.99 Z M725.10,582.43 L718.39,571.47 L719.52,574.73 L724.99,582.43 L725.10,582.43 Z M667.59,590.61 L668.22,593.18 L672.35,603.87 L667.59,590.61 Z M663.78,495.81 L662.86,494.57 L632.61,460.48 L663.78,495.81 Z M724.57,479.23 L729.02,478.46 L727.33,477.67 L724.57,479.23 Z M740.76,492.00 L740.65,493.22 L741.50,492.55 L740.76,492.00 Z M743.41,506.82 L747.70,520.00 L748.57,522.10 L743.41,506.82 Z M721.82,527.75 L715.44,530.98 L747.70,520.00 L721.82,527.75 Z M793.79,552.25 L780.31,561.24 L765.15,571.63 L772.96,566.67 L793.79,552.25 Z M752.90,556.74 L759.18,564.50 L765.15,571.63 L752.90,556.74 Z M756.27,555.97 L758.88,554.88 L752.90,556.74 L756.27,555.97 Z M805.89,541.86 L800.38,543.57 L806.04,541.86 L809.87,540.15 L805.89,541.86 Z M812.23,558.56 L818.61,575.76 L816.00,566.82 L812.23,558.56 Z M729.47,582.32 L729.47,581.19 L727.65,582.37 L729.47,582.32 Z M662.41,569.48 L662.86,565.27 L657.96,551.32 L662.41,569.48 Z M664.23,576.89 L664.70,573.64 L662.98,571.79 L664.23,576.89 Z M707.73,534.88 L707.59,536.73 L711.10,533.18 L707.73,534.88 Z M780.73,509.77 L779.70,509.15 L777.73,511.98 L780.73,509.77 Z M790.27,522.95 L787.05,513.64 L786.83,513.51 L790.27,522.95 Z M857.50,449.30 L857.71,448.19 L856.85,448.69 L857.50,449.30 Z M858.26,445.27 L853.97,443.26 L857.95,446.90 L858.26,445.27 Z M874.65,450.39 L852.90,437.52 L855.81,440.62 L874.65,450.39 Z M732.69,441.09 L731.19,436.75 L729.47,438.30 L732.69,441.09 Z M796.55,447.91 L791.03,451.63 L794.10,450.70 L796.55,447.91 Z" /></g></svg>