<svg xmlns="http://www.w3.org/2000/svg" viewBox="0 0 1000 1000" width="1000" height="1000"><g fill="#cccccc" stroke="#222" stroke-width="2"><path d="M311.91,445.98 L299.42,428.18 L271.03,368.48 L260.44,352.43 L241.26,324.15 L220.57,301.98 L206.57,308.79 L193.57,284.18 L175.79,270.22 L165.44,255.73 L161.78,236.71 L141.85,212.97 L124.57,197.78 L113.97,193.42 L42.82,183.12 L31.59,178.06 L27.05,164.97 L31.85,159.56 L27.81,145.77 L27.81,137.04 L19.23,135.30 L21.50,125.87 L19.48,116.80 L22.76,110.69 L20.62,106.50 L27.43,90.62 L71.84,120.64 L87.61,129.02 L95.68,130.06 L105.39,126.75 L114.60,116.97 L146.52,117.32 L164.05,116.27 L219.44,80.32 L243.15,64.09 L263.21,57.80 L298.03,52.74 L347.10,35.11 L362.37,54.31 L377.13,51.70 L404.50,38.60 L447.90,19.41 L472.62,19.23 L486.25,25.34 L525.36,58.33 L535.58,67.05 L549.33,77.18 L560.68,74.56 L585.78,77.00 L611.52,103.71 L637.89,119.77 L655.04,140.36 L667.53,148.56 L702.22,161.66 L737.80,176.84 L755.33,179.81 L794.19,192.20 L812.23,191.50 L838.85,199.01 L855.75,209.13 L871.27,228.15 L878.59,241.59 L880.48,242.64 L925.39,274.41 L935.35,278.77 L934.09,296.75 L962.98,315.08 L979.38,347.19 L979.63,364.12 L974.46,390.65 L980.77,406.88 L979.63,423.29 L965.00,457.15 L909.87,541.80 L877.70,563.62 L870.01,566.41 L863.19,565.54 L859.79,569.38 L854.87,574.96 L852.98,584.04 L842.76,603.41 L835.95,603.76 L824.97,612.14 L820.30,618.95 L811.60,639.54 L804.53,648.97 L803.27,690.16 L802.89,724.20 L815.00,733.97 L819.92,741.48 L830.02,781.10 L841.12,792.44 L845.53,805.36 L850.71,812.51 L850.83,820.72 L848.18,831.36 L843.51,838.00 L822.19,891.23 L785.48,946.38 L775.27,961.05 L756.34,980.77 L729.85,942.72 L708.66,905.54 L700.20,894.20 L684.06,874.13 L659.46,847.25 L648.61,835.38 L627.79,798.55 L617.45,781.27 L591.84,750.55 L566.73,729.26 L538.98,714.07 L500.00,683.53 L488.02,670.79 L465.43,650.37 L444.24,631.34 L420.15,604.29 L409.04,598.53 L380.41,576.71 L356.19,540.06 L349.25,525.05 L332.59,486.65 L323.89,466.23 L311.91,445.98 Z M244.79,304.08 L245.17,301.29 L241.26,324.15 L244.79,304.08 Z M448.65,73.71 L455.61,75.49 L451.18,74.21 L448.65,73.71 Z M439.60,100.86 L441.84,101.79 L471.87,108.25 L439.60,100.86 Z M462.41,185.74 L465.46,191.12 L465.56,189.76 L462.41,185.74 Z M462.78,203.54 L458.75,203.89 L451.05,204.94 L490.29,202.85 L483.98,202.32 L464.55,203.37 L462.78,203.54 Z M462.56,192.76 L461.84,192.79 L462.41,192.90 L462.78,203.54 L462.56,192.76 Z M453.58,193.07 L453.44,192.82 L451.05,204.94 L453.58,193.07 Z M445.88,207.56 L440.86,213.38 L451.05,204.94 L445.88,207.56 Z M458.87,223.97 L476.16,239.15 L463.42,227.46 L458.87,223.97 Z M471.74,263.59 L469.73,267.94 L480.70,253.46 L471.74,263.59 Z M469.72,267.95 L475.15,274.23 L469.72,267.95 L469.72,267.95 Z M484.61,285.40 L481.83,278.77 L478.18,271.96 L484.61,285.40 Z M536.96,371.98 L540.75,374.42 L530.15,367.26 L536.96,371.98 Z M556.26,369.36 L557.94,367.98 L544.41,369.53 L556.26,369.36 Z M572.54,347.71 L560.55,353.65 L558.03,356.79 L572.54,347.71 Z M595.41,358.00 L612.15,354.52 L596.38,357.49 L595.41,358.00 Z M589.82,421.02 L597.26,431.67 L589.81,420.91 L589.82,421.02 Z M571.68,434.87 L571.68,434.87 L578.09,431.32 L571.68,434.87 Z M596.56,491.27 L596.56,491.27 L588.43,481.24 L596.56,491.27 Z M593.98,591.72 L595.50,589.28 L601.81,572.17 L593.98,591.72 Z M611.45,570.27 L606.85,569.90 L601.81,572.17 L611.45,570.27 Z M580.61,641.99 L593.98,647.40 L592.22,646.53 L580.61,641.99 Z M587.42,677.07 L593.48,652.98 L593.98,647.40 L587.42,677.07 Z M603.57,724.37 L600.29,722.45 L604.58,727.34 L597.39,690.34 L598.27,695.40 L603.57,724.37 Z M370.76,82.09 L377.00,68.80 L370.76,82.09 L370.76,82.09 Z M378.60,81.75 L372.38,82.52 L373.97,82.94 L378.60,81.75 Z M389.87,125.87 L386.46,124.65 L374.98,124.65 L389.87,125.87 Z M373.97,124.65 L373.47,128.49 L374.98,124.65 L373.97,124.65 Z M367.20,165.43 L359.34,159.91 L346.85,154.32 L367.20,165.43 Z M384.44,177.54 L383.45,176.84 L402.86,197.44 L384.44,177.54 Z M394.91,168.11 L393.88,167.23 L384.44,177.54 L394.91,168.11 Z M390.50,222.22 L406.65,242.82 L374.73,200.58 L390.50,222.22 Z M386.59,230.60 L386.82,229.76 L386.07,229.65 L386.59,230.60 Z M384.32,230.77 L384.66,229.43 L379.78,228.68 L384.32,230.77 Z M387.09,255.56 L373.97,248.58 L378.39,252.42 L387.09,255.56 Z M416.89,408.73 L416.99,408.98 L437.05,429.22 L416.89,408.73 Z M451.30,411.60 L462.66,396.59 L462.83,394.37 L437.05,429.22 L451.30,411.60 Z M449.45,511.56 L458.62,499.39 L469.98,484.03 L449.45,511.56 L449.45,511.56 Z M467.12,550.63 L455.85,527.32 L459.63,535.87 L467.12,550.63 Z M385.20,411.77 L400.23,434.95 L398.70,430.80 L385.20,411.77 Z M405.53,458.20 L407.53,476.00 L405.76,458.72 L405.53,458.20 Z M402.48,475.48 L396.05,485.78 L398.83,481.41 L402.48,475.48 Z M385.71,471.29 L367.67,461.34 L373.72,465.70 L385.71,471.29 Z M183.73,240.02 L189.16,234.96 L188.97,233.55 L183.73,240.02 Z M238.23,186.61 L251.10,190.80 L252.27,190.78 L238.23,186.61 Z M315.31,163.92 L334.99,154.67 L323.26,158.51 L267.00,190.45 L298.28,174.57 L308.12,168.64 L315.31,163.92 Z M357.57,397.46 L363.50,377.91 L357.70,396.93 L355.81,393.79 L357.57,397.46 Z M371.70,412.64 L372.60,413.69 L372.84,411.42 L358.83,425.04 L344.07,441.09 L371.70,412.64 Z M373.97,413.86 L373.25,414.45 L380.53,422.94 L377.38,417.01 L373.97,413.86 Z M257.79,309.14 L250.97,305.65 L250.63,306.36 L257.79,309.14 Z M267.17,293.85 L268.00,295.18 L274.31,294.48 L267.17,293.85 Z M268.82,289.72 L266.24,292.39 L266.73,293.17 L268.82,289.72 Z M275.25,285.07 L273.68,284.71 L273.25,285.15 L275.25,285.07 Z M283.40,288.55 L287.31,287.85 L281.13,286.42 L283.40,288.55 Z M292.55,296.22 L306.23,294.48 L292.86,295.53 L292.55,296.22 Z M293.29,274.87 L292.73,275.63 L308.88,291.51 L293.29,274.87 Z M294.07,273.81 L296.77,272.49 L301.94,264.63 L299.16,266.90 L294.07,273.81 Z M322.63,297.27 L327.93,292.39 L320.61,297.27 L322.63,297.27 Z M349.37,286.80 L343.07,295.70 L339.66,301.81 L349.37,286.80 Z M267.00,347.02 L266.37,347.53 L270.54,347.22 L267.00,347.02 Z M282.01,347.89 L281.03,347.83 L282.08,348.23 L282.01,347.89 Z M308.25,344.92 L303.96,350.16 L309.98,344.34 L308.25,344.92 Z M341.55,396.76 L329.44,399.20 L322.63,402.17 L341.55,396.76 Z M342.49,306.07 L343.32,309.84 L346.98,312.81 L342.49,306.07 Z M345.97,320.14 L344.96,321.98 L351.14,314.90 L345.97,320.14 Z M351.64,366.39 L346.60,379.83 L347.00,381.88 L351.64,366.39 Z M347.61,344.40 L346.60,344.18 L347.73,356.62 L347.61,344.40 Z M343.90,323.90 L343.19,325.20 L344.25,326.58 L343.90,323.90 Z M192.31,222.05 L191.81,225.01 L195.28,220.21 L192.31,222.05 Z M200.76,216.81 L198.99,217.91 L201.75,217.20 L200.76,216.81 Z M248.06,258.69 L243.91,246.13 L248.32,264.28 L248.06,258.69 Z M284.53,223.09 L284.15,227.63 L284.22,228.22 L284.53,223.09 Z M315.94,233.22 L318.97,253.46 L316.67,231.53 L312.03,237.41 L315.94,233.22 Z M317.96,229.90 L317.14,230.94 L321.24,233.42 L317.96,229.90 Z M327.97,234.83 L324.19,235.20 L325.53,236.01 L327.97,234.83 Z M333.48,232.17 L332.09,232.52 L335.12,221.70 L330.60,233.56 L333.48,232.17 Z M249.73,101.90 L248.96,100.92 L234.70,99.52 L249.73,101.90 Z M353.03,112.78 L344.33,111.56 L332.85,111.39 L353.03,112.78 Z M139.83,182.77 L151.31,194.12 L144.00,186.79 L139.83,182.77 Z M264.90,125.63 L265.36,126.05 L275.57,129.02 L264.90,125.63 Z M230.80,136.64 L236.21,123.08 L231.55,133.21 L230.80,136.64 Z M261.36,122.37 L260.50,118.11 L258.16,123.43 L260.06,121.16 L261.36,122.37 Z M261.70,115.40 L261.17,116.61 L264.47,114.53 L261.70,115.40 Z M344.07,85.21 L359.34,79.10 L347.71,82.23 L347.86,82.24 L344.07,85.21 Z M413.08,458.90 L413.50,459.75 L414.37,457.11 L413.08,458.90 Z M413.59,520.33 L423.17,515.27 L412.86,518.93 L413.59,520.33 Z M409.67,547.56 L410.10,548.45 L413.46,542.85 L409.67,547.56 Z M419.14,442.66 L416.11,447.90 L417.15,448.68 L419.14,442.66 Z M436.71,448.00 L435.28,446.33 L433.01,447.55 L436.71,448.00 Z M441.72,455.58 L447.39,460.47 L440.44,452.35 L441.72,455.58 Z M429.61,178.06 L428.86,177.98 L429.35,185.04 L429.67,178.01 L429.61,178.06 Z M432.48,175.70 L435.07,174.95 L433.64,174.75 L432.48,175.70 Z M438.44,175.44 L437.35,175.29 L439.07,175.88 L439.95,166.54 L438.44,175.44 Z M467.58,336.02 L492.98,379.72 L491.80,376.69 L467.58,336.02 Z M498.38,393.59 L505.42,423.81 L500.63,399.38 L498.38,393.59 Z M501.77,430.10 L479.06,402.52 L503.65,433.64 L501.77,430.10 Z M457.61,355.74 L470.35,384.19 L479.06,402.52 L457.61,355.74 Z M440.20,302.68 L440.71,304.60 L457.61,355.74 L440.20,302.68 Z M445.00,196.04 L446.10,194.17 L443.50,195.39 L445.00,196.04 Z M408.86,352.68 L408.29,378.26 L409.80,358.71 L408.86,352.68 Z M423.43,371.10 L424.69,385.41 L424.88,385.93 L423.43,371.10 Z M429.48,397.98 L430.87,397.11 L433.14,393.97 L429.48,397.98 Z M452.80,191.60 L451.54,189.23 L452.19,191.33 L451.24,191.77 L452.80,191.60 Z M440.42,176.35 L441.44,176.70 L467.70,160.78 L440.42,176.35 Z M435.60,71.11 L431.88,70.37 L424.18,69.15 L435.60,71.11 Z M418.86,92.25 L414.22,90.09 L398.45,79.27 L407.78,87.65 L418.86,92.25 Z M486.73,553.95 L485.49,553.67 L482.41,557.13 L486.73,553.95 Z M513.88,564.32 L514.01,565.00 L515.14,561.53 L515.14,531.68 L513.88,564.32 Z M507.06,577.93 L512.24,570.43 L512.41,569.90 L507.06,577.93 Z M551.22,659.79 L562.19,618.77 L559.04,630.47 L551.22,659.79 Z M589.44,562.40 L568.00,529.73 L581.24,550.18 L589.44,562.40 Z M506.06,489.79 L500.59,501.88 L502.27,499.21 L506.06,489.79 Z M548.32,499.74 L515.90,456.63 L540.75,489.96 L548.32,499.74 Z M563.97,442.02 L563.05,445.30 L564.09,443.89 L563.97,442.02 Z M571.03,426.53 L570.52,430.97 L571.12,432.99 L571.03,426.53 Z M519.40,570.79 L519.32,570.78 L519.55,588.23 L521.07,595.39 L519.40,570.79 Z M535.58,508.12 L533.43,511.61 L534.39,512.69 L535.58,508.12 Z M494.45,369.88 L507.19,370.58 L503.03,368.83 L494.45,369.88 Z M504.06,434.41 L504.06,434.41 L492.43,449.30 L504.06,434.41 Z M563.83,175.79 L567.24,177.71 L551.34,167.07 L563.83,175.79 Z M561.86,231.22 L558.41,229.20 L542.26,220.82 L561.86,231.22 Z M536.71,221.35 L535.83,213.84 L535.59,222.12 L542.26,220.82 L536.71,221.35 Z M602.81,263.41 L599.03,268.12 L594.24,274.23 L602.81,263.41 Z M538.48,149.09 L536.46,153.63 L530.69,179.86 L538.48,149.09 Z M504.29,255.03 L497.60,264.28 L500.25,261.67 L504.29,255.03 Z M514.13,255.73 L512.87,266.38 L512.49,292.21 L514.13,255.73 Z M518.42,305.65 L519.75,307.21 L512.49,292.21 L518.42,305.65 Z M530.78,232.69 L531.03,238.63 L532.17,243.99 L530.78,232.69 Z M529.02,306.87 L536.33,313.68 L536.57,313.74 L529.02,306.87 Z M577.08,288.89 L568.50,282.26 L579.50,293.06 L577.08,288.89 Z M512.87,107.37 L517.54,109.29 L519.68,107.37 L517.91,108.07 L512.57,106.26 L512.87,107.37 Z M536.58,115.75 L531.60,117.63 L531.66,118.19 L536.58,115.75 Z M549.45,98.12 L545.79,114.01 L545.19,116.89 L549.45,98.12 Z M627.16,279.29 L620.49,286.02 L620.85,286.63 L627.16,279.29 Z M628.80,285.58 L627.79,281.56 L628.19,280.93 L627.16,279.29 L628.80,285.58 Z M665.89,338.11 L653.65,301.11 L660.21,322.41 L665.89,338.11 Z M638.64,347.19 L636.50,345.97 L638.27,347.33 L672.58,336.02 L665.89,338.11 L638.64,347.19 Z M679.14,345.97 L684.56,351.90 L672.58,336.02 L679.14,345.97 Z M721.96,322.90 L724.05,326.25 L729.22,330.43 L721.96,322.90 Z M737.55,444.06 L732.12,425.38 L736.41,423.29 L731.73,425.27 L737.55,444.06 Z M713.58,432.02 L714.96,425.56 L718.37,408.45 L713.58,432.02 Z M702.73,480.19 L700.46,476.70 L700.45,476.69 L702.73,480.19 Z M730.78,555.00 L729.60,557.34 L724.05,550.53 L730.36,560.83 L730.78,555.00 Z M717.11,594.69 L719.25,588.06 L712.69,600.45 L717.11,594.69 Z M715.97,642.55 L715.97,642.55 L711.81,660.31 L715.97,642.55 Z M703.54,676.21 L705.38,674.98 L711.81,660.31 L703.54,676.21 Z M722.05,747.74 L720.00,744.69 L721.02,746.89 L722.05,747.74 Z M741.33,759.45 L740.45,752.30 L740.45,759.10 L728.46,753.06 L732.37,756.31 L741.33,759.45 Z M773.50,757.53 L769.97,756.49 L767.07,757.88 L741.33,759.45 L773.50,757.53 Z M777.41,761.90 L787.12,771.50 L773.50,757.53 L777.41,761.90 Z M745.49,787.03 L744.05,781.66 L744.89,788.53 L745.49,787.03 Z M621.04,480.91 L613.79,483.86 L604.96,491.01 L621.04,480.91 Z M661.22,504.10 L663.12,504.10 L660.09,503.05 L661.22,504.10 Z M654.03,673.75 L645.00,662.79 L645.08,662.93 L654.03,673.75 Z M663.75,680.39 L666.17,680.32 L654.03,673.75 L663.75,680.39 Z M674.85,678.99 L671.99,680.18 L684.31,679.86 L674.85,678.99 Z M653.40,709.88 L653.59,710.24 L649.37,687.19 L653.40,709.88 Z M655.35,713.68 L656.26,715.45 L660.97,715.12 L655.35,713.68 Z M648.20,436.30 L640.91,424.86 L647.60,437.95 L648.20,436.30 Z M680.10,398.69 L680.23,397.84 L680.15,397.81 L670.69,391.52 L680.10,398.69 Z M682.66,463.30 L680.90,468.32 L682.80,465.53 L682.66,463.30 Z M682.16,469.72 L698.19,476.70 L699.20,484.20 L699.20,476.16 L680.90,468.32 L682.16,469.72 Z M685.57,491.01 L682.42,491.53 L678.00,497.29 L685.57,491.01 Z M626.91,353.82 L634.73,350.33 L634.66,349.83 L626.91,353.82 Z M673.26,364.58 L669.05,362.55 L677.75,352.25 L668.04,362.20 L673.26,364.58 Z M683.68,260.79 L666.02,256.08 L694.02,265.51 L683.68,260.79 Z M713.07,286.80 L717.15,289.62 L694.02,265.51 L713.07,286.80 Z M643.69,142.98 L646.67,142.29 L641.24,141.80 L643.69,142.98 Z M653.91,248.23 L627.04,221.52 L586.41,184.87 L603.95,202.15 L653.91,248.23 Z M648.36,188.19 L639.78,193.77 L648.86,188.62 L648.36,188.19 Z M609.12,267.08 L617.28,280.76 L614.29,273.36 L609.12,267.08 Z M639.90,282.44 L646.84,268.65 L637.38,287.32 L639.90,282.44 Z M764.80,525.57 L760.92,539.24 L760.92,539.24 L766.33,520.87 L764.80,525.57 Z M763.57,540.33 L759.75,554.19 L763.79,540.41 L763.57,540.33 Z M762.02,573.22 L760.61,581.17 L761.34,580.92 L762.02,573.22 Z M761.88,580.73 L763.41,580.20 L763.80,577.52 L761.88,580.73 Z M792.17,539.01 L794.46,535.57 L793.43,535.34 L792.17,539.01 Z M798.35,529.06 L797.81,530.54 L797.97,530.28 L803.02,536.57 L798.35,529.06 Z M794.16,526.47 L794.57,525.22 L791.29,524.70 L794.16,526.47 Z M737.92,733.62 L738.40,734.65 L738.60,732.75 L737.92,733.62 Z M741.20,729.43 L740.94,729.76 L745.12,727.69 L741.20,729.43 Z M791.79,778.48 L797.47,804.31 L796.46,794.71 L791.79,778.48 Z M728.59,592.24 L739.31,593.99 L740.13,592.74 L728.59,592.24 Z M759.99,584.64 L758.11,595.21 L760.51,587.18 L759.99,584.64 Z M766.31,618.08 L765.80,622.61 L766.41,617.91 L766.31,618.08 Z M778.04,583.52 L787.77,582.25 L786.75,581.42 L778.04,583.52 Z M805.42,606.03 L814.93,614.29 L812.48,610.22 L805.42,606.03 Z M807.81,380.31 L805.29,376.86 L802.73,375.68 L807.81,380.31 Z M822.18,403.66 L817.65,393.79 L811.86,385.87 L822.18,403.66 Z M861.81,336.54 L886.41,324.68 L897.38,317.87 L867.11,333.40 L861.81,336.54 Z M740.70,455.23 L755.08,444.23 L740.57,454.18 L740.07,470.24 L740.70,455.23 Z M773.12,431.84 L784.35,431.49 L789.52,430.80 L773.12,431.84 Z M848.81,461.69 L866.35,493.63 L860.67,481.59 L848.81,461.69 Z M865.06,500.77 L866.47,498.87 L866.35,493.63 L865.06,500.77 Z M757.23,306.52 L771.73,350.16 L761.26,315.77 L757.23,306.52 Z M888.43,308.79 L893.09,315.08 L887.29,303.73 L888.43,308.79 Z M772.49,272.49 L765.43,311.06 L769.84,289.07 L772.49,272.49 Z M838.72,267.25 L836.32,263.06 L838.80,267.78 L838.72,267.25 Z M845.59,270.91 L857.64,265.86 L860.56,262.48 L845.57,270.86 L845.59,270.91 Z M718.50,249.10 L736.92,242.99 L737.42,241.29 L718.50,249.10 Z M776.03,261.64 L777.54,263.06 L776.65,258.00 L776.03,261.64 Z M739.69,224.49 L738.93,221.70 L741.08,231.47 L739.69,224.49 Z" /></g></svg>