<svg xmlns="http://www.w3.org/2000/svg" viewBox="0 0 1000 1000" width="1000" height="1000"><g fill="#cccccc" stroke="#222" stroke-width="2"><path d="M424.90,752.64 L418.70,735.90 L419.30,729.41 L430.95,714.92 L426.26,707.23 L420.21,705.57 L415.07,709.49 L412.35,719.00 L405.54,719.75 L399.94,717.04 L395.10,702.70 L384.67,692.29 L379.07,698.03 L376.95,706.17 L363.64,706.02 L350.18,704.82 L344.74,696.06 L326.58,687.92 L319.63,675.55 L312.82,669.36 L310.70,663.48 L314.18,654.27 L326.28,638.58 L320.38,635.26 L309.79,639.03 L299.21,622.59 L314.03,615.80 L316.75,601.77 L315.54,593.17 L307.07,590.90 L297.85,584.11 L286.20,560.43 L298.15,559.67 L284.08,560.43 L276.97,563.14 L261.85,556.65 L243.70,559.97 L232.81,558.46 L225.09,551.52 L230.84,540.36 L220.10,533.27 L213.75,535.68 L208.30,532.82 L203.31,535.98 L201.34,543.08 L203.16,546.24 L210.72,543.98 L211.63,551.37 L208.60,561.18 L200.44,568.88 L192.72,569.78 L178.81,562.69 L168.67,550.47 L178.20,541.11 L179.56,536.14 L173.66,525.72 L172.76,515.01 L168.37,510.94 L174.57,503.70 L162.17,517.58 L147.80,511.69 L139.48,515.01 L138.12,502.64 L139.63,497.66 L135.70,497.06 L131.31,490.87 L129.65,491.78 L130.40,497.36 L121.48,500.83 L115.73,496.30 L105.45,494.79 L103.48,488.46 L99.09,483.93 L100.15,472.01 L103.33,468.99 L107.26,454.21 L93.35,446.36 L99.09,431.12 L97.13,428.71 L90.93,428.86 L89.26,418.45 L84.12,413.32 L78.83,399.89 L80.04,405.48 L65.82,415.43 L61.28,413.17 L56.44,402.16 L49.78,399.59 L50.84,395.52 L57.80,389.48 L64.46,388.73 L65.06,384.05 L69.75,381.94 L68.99,379.22 L66.88,377.71 L61.28,381.03 L48.73,378.02 L52.20,373.34 L55.99,352.22 L53.11,347.69 L57.50,346.03 L55.99,342.56 L55.83,339.84 L51.90,343.16 L50.99,339.84 L44.04,337.73 L39.35,343.16 L40.86,348.14 L34.36,343.77 L34.21,331.70 L40.41,331.09 L33.00,324.91 L29.82,327.77 L33.00,334.41 L29.82,333.81 L25.89,328.38 L26.34,321.29 L32.69,309.82 L39.65,287.19 L38.44,281.45 L22.86,261.99 L19.23,241.77 L25.58,231.06 L48.88,206.32 L57.80,173.28 L67.94,130.58 L72.47,110.21 L85.18,89.54 L92.89,84.71 L126.93,72.49 L137.51,65.10 L141.60,61.17 L149.77,43.07 L158.24,33.56 L159.29,27.53 L166.86,25.42 L175.18,19.23 L189.09,22.55 L197.41,20.74 L205.58,23.61 L221.76,22.25 L239.31,26.77 L247.48,21.34 L251.56,23.46 L257.91,20.89 L259.73,23.61 L270.47,26.62 L280.00,36.88 L287.71,38.24 L296.48,46.99 L299.21,46.84 L298.95,50.58 L300.11,48.35 L302.99,46.84 L311.61,50.01 L318.57,57.55 L334.75,68.72 L340.35,69.47 L350.18,61.48 L352.75,54.84 L356.84,53.03 L360.01,43.07 L385.42,85.77 L384.36,90.14 L373.63,102.97 L363.79,111.42 L358.65,110.51 L348.82,116.09 L344.28,120.47 L340.35,130.43 L337.63,131.03 L336.87,135.26 L345.95,148.08 L347.16,166.18 L344.13,169.96 L342.01,181.27 L333.09,190.17 L332.98,190.25 L335.81,190.02 L345.64,196.51 L354.42,211.30 L368.63,216.73 L381.79,210.69 L389.51,203.75 L407.96,198.77 L413.86,200.28 L425.20,191.53 L445.93,190.17 L446.23,207.07 L450.61,226.99 L475.72,233.33 L503.86,231.97 L514.75,237.55 L525.94,240.57 L537.74,239.81 L538.80,248.71 L537.74,236.95 L543.34,225.33 L543.18,212.96 L545.45,208.28 L540.46,197.42 L545.91,193.64 L538.34,169.50 L544.55,167.69 L546.51,174.03 L551.35,172.22 L556.80,177.95 L565.42,172.97 L566.17,168.75 L573.59,166.49 L577.37,173.13 L593.10,183.08 L583.57,176.60 L592.80,170.11 L591.43,161.96 L605.50,149.29 L603.84,138.73 L605.35,136.61 L616.85,135.26 L618.21,122.13 L632.43,123.34 L640.14,120.32 L640.14,109.91 L654.96,102.82 L662.53,94.67 L662.83,91.05 L656.63,85.77 L656.78,77.92 L653.00,69.93 L658.74,55.59 L673.87,49.56 L679.01,50.76 L680.83,46.24 L692.02,46.24 L701.10,38.09 L708.05,37.79 L714.71,32.36 L724.09,33.71 L733.01,48.05 L732.71,61.02 L740.42,78.68 L736.49,95.12 L722.88,106.74 L704.57,128.16 L682.64,131.78 L682.04,158.94 L684.15,162.71 L688.54,172.67 L707.30,172.82 L706.09,201.19 L727.41,202.24 L727.72,201.94 L731.35,200.58 L747.53,207.37 L766.44,195.45 L769.01,200.58 L780.35,200.58 L791.24,208.88 L811.06,206.32 L814.39,208.73 L812.57,217.03 L815.45,218.54 L817.11,229.55 L814.84,231.67 L810.76,230.31 L811.97,234.68 L814.39,234.38 L812.87,242.08 L820.13,247.81 L814.39,252.79 L821.34,254.90 L824.37,261.54 L821.65,268.48 L817.26,268.33 L812.27,278.14 L814.84,300.01 L828.45,299.56 L827.09,305.75 L829.51,304.09 L839.65,308.01 L841.61,313.89 L841.01,303.78 L833.60,290.96 L838.29,280.70 L857.80,260.63 L880.18,260.78 L883.81,258.82 L885.18,250.37 L890.92,241.93 L897.58,240.87 L897.73,238.91 L906.50,237.40 L911.04,241.32 L914.97,238.00 L924.80,238.61 L939.93,244.34 L943.56,250.68 L949.61,252.79 L949.61,257.31 L956.27,264.25 L959.90,278.89 L957.17,289.30 L951.88,290.36 L951.43,294.73 L946.74,294.58 L942.35,303.33 L936.75,303.48 L939.02,306.80 L934.64,308.46 L937.36,309.67 L936.00,313.89 L940.23,317.36 L937.96,319.63 L940.08,319.63 L940.23,326.11 L936.30,327.32 L942.80,331.40 L939.02,333.81 L938.87,337.58 L934.79,341.50 L930.10,341.05 L931.91,344.52 L928.43,349.50 L929.95,354.03 L925.26,354.33 L925.56,360.51 L916.94,365.80 L921.33,369.11 L918.30,371.23 L921.93,375.30 L915.73,375.90 L920.87,381.34 L918.75,383.90 L921.02,384.65 L920.57,387.82 L918.00,390.24 L918.60,393.25 L921.78,394.01 L922.38,399.14 L919.96,402.16 L925.56,401.40 L926.92,406.38 L922.54,407.29 L920.12,405.17 L913.16,410.45 L908.62,408.49 L907.86,411.96 L906.50,408.34 L901.81,411.66 L896.52,410.15 L896.37,414.53 L899.85,416.64 L897.43,418.75 L907.56,419.66 L900.30,423.88 L900.45,427.05 L900.39,427.06 L903.02,427.81 L901.36,433.39 L907.26,438.52 L904.84,448.78 L891.98,456.17 L883.21,456.62 L882.15,461.00 L890.47,467.94 L891.07,475.03 L888.20,481.22 L889.71,483.93 L909.38,483.48 L912.10,486.80 L915.28,492.68 L922.38,488.31 L928.59,488.76 L939.78,504.75 L948.85,508.07 L948.85,511.69 L942.20,518.78 L942.35,521.65 L960.80,527.99 L963.98,535.23 L964.28,544.28 L977.44,548.81 L980.77,556.35 L978.50,559.37 L962.16,561.18 L962.01,565.71 L966.10,570.69 L960.50,578.98 L979.26,608.71 L978.35,611.57 L967.00,613.38 L969.73,622.13 L959.74,627.26 L951.12,639.03 L950.97,647.48 L948.25,653.22 L949.31,659.40 L958.08,663.93 L959.14,667.55 L953.54,674.19 L952.79,682.79 L949.91,687.31 L943.11,688.97 L934.94,678.41 L928.89,677.36 L913.76,690.03 L914.22,703.91 L902.12,709.49 L902.32,708.19 L898.49,713.72 L896.37,736.05 L889.86,741.63 L873.53,733.03 L861.58,735.29 L838.44,744.80 L829.21,739.22 L817.87,726.24 L792.76,717.64 L786.86,712.06 L784.59,706.32 L771.88,678.71 L764.02,676.00 L752.22,679.32 L731.35,684.60 L726.36,689.43 L728.17,695.01 L743.30,707.38 L747.99,719.15 L745.87,731.22 L742.54,734.54 L720.31,739.06 L705.94,747.21 L703.36,754.00 L693.99,761.39 L689.90,766.67 L692.47,777.24 L700.79,794.13 L723.18,813.90 L720.91,819.18 L703.67,826.42 L691.42,836.08 L687.63,835.47 L685.21,827.03 L677.95,829.74 L673.42,827.93 L671.00,832.00 L675.68,837.29 L672.05,845.13 L677.35,847.54 L683.55,846.34 L684.76,848.30 L682.04,853.58 L684.31,860.97 L693.08,866.86 L695.35,865.80 L697.16,869.57 L703.06,868.06 L704.12,875.76 L714.26,876.97 L715.92,884.06 L710.78,892.20 L719.55,889.79 L731.80,895.22 L736.34,894.17 L746.78,898.99 L745.87,902.61 L751.31,910.01 L749.50,914.38 L752.63,920.63 L761.45,919.66 L764.62,921.17 L776.72,915.44 L780.66,919.97 L786.40,920.57 L789.28,927.21 L779.75,928.11 L773.40,933.39 L766.44,934.90 L764.47,937.62 L766.14,943.35 L757.67,946.82 L754.64,953.76 L749.35,958.14 L747.26,956.96 L741.48,966.29 L736.34,963.27 L726.36,967.79 L720.76,965.53 L711.68,967.79 L710.02,975.04 L698.07,973.23 L701.40,961.16 L698.98,953.46 L682.64,934.90 L679.01,936.86 L679.16,931.73 L677.50,941.84 L674.93,948.33 L668.73,953.76 L670.84,962.36 L668.58,967.19 L672.96,970.96 L671.30,974.89 L659.80,976.39 L655.57,980.77 L653.60,979.86 L646.79,968.25 L647.40,964.93 L654.96,962.51 L653.45,959.95 L665.40,935.05 L651.94,960.55 L644.83,955.57 L645.28,953.31 L642.26,955.27 L637.27,954.21 L635.00,956.93 L628.95,954.97 L632.50,948.72 L624.56,946.67 L626.22,939.73 L621.38,941.54 L603.84,930.98 L597.03,940.79 L591.59,934.30 L599.15,945.46 L603.69,943.96 L602.33,948.63 L604.44,954.37 L596.27,958.89 L609.28,961.16 L612.76,968.10 L600.51,966.59 L600.81,973.07 L597.18,977.00 L577.07,973.23 L561.03,953.91 L560.58,948.18 L564.36,941.54 L568.90,931.28 L562.09,908.80 L554.38,893.71 L548.18,890.09 L528.66,894.02 L512.48,886.47 L502.19,874.40 L503.55,861.43 L504.76,845.89 L499.77,828.53 L501.89,815.41 L499.17,803.64 L491.45,803.49 L481.77,808.47 L468.16,805.60 L451.82,792.63 L449.86,788.40 L451.22,783.72 L457.72,771.80 L456.36,762.30 L450.01,757.32 L438.51,756.87 L424.90,752.64 Z M499.78,253.71 L506.28,248.26 L514.75,237.55 L499.78,253.71 Z M595.82,191.23 L598.64,193.35 L593.10,183.08 L595.82,191.23 Z M549.99,880.44 L549.91,880.37 L548.18,890.09 L549.99,880.44 Z M562.73,275.55 L562.73,275.55 L569.96,270.74 L562.73,275.55 Z M561.79,278.29 L562.58,279.28 L562.69,275.65 L561.79,278.29 Z M582.86,302.74 L580.54,302.43 L577.67,304.24 L582.86,302.74 Z M589.77,306.35 L587.20,303.33 L585.56,303.11 L589.77,306.35 Z M620.02,313.44 L614.88,311.63 L605.96,310.12 L620.02,313.44 Z M631.22,362.93 L642.11,367.30 L634.85,363.98 L631.22,362.93 Z M551.81,561.78 L552.26,548.81 L550.14,540.51 L551.81,561.78 Z M559.82,580.79 L562.15,584.20 L551.81,561.78 L559.82,580.79 Z M567.40,598.94 L567.54,595.88 L565.61,591.71 L567.40,598.94 Z M566.48,613.84 L566.48,620.48 L566.85,611.80 L566.48,613.84 Z M576.46,632.09 L597.79,653.97 L576.02,630.69 L576.46,632.09 Z M569.05,677.51 L570.19,678.29 L569.75,674.82 L569.05,677.51 Z M573.89,680.83 L589.39,683.81 L586.14,681.88 L573.27,680.40 L573.89,680.83 Z M580.54,815.71 L579.03,807.71 L576.89,803.67 L580.54,815.71 Z M560.88,829.59 L578.43,818.58 L580.54,815.71 L560.88,829.59 Z M574.95,845.73 L571.62,854.49 L575.10,847.85 L579.79,841.51 L574.95,845.73 Z M570.56,865.50 L582.51,871.99 L587.50,871.69 L581.60,870.18 L570.56,865.50 Z M537.48,769.28 L554.83,782.67 L548.93,776.33 L537.48,769.28 Z M499.80,279.85 L496.12,273.64 L496.29,276.48 L499.80,279.85 Z M542.43,392.50 L546.36,301.82 L543.94,350.10 L542.43,392.50 Z M489.19,415.89 L490.09,395.52 L488.13,426.60 L489.19,415.89 Z M480.87,505.66 L481.92,502.64 L478.16,506.97 L480.87,505.66 Z M462.56,519.84 L461.68,522.06 L468.77,514.92 L458.48,521.20 L462.56,519.84 Z M459.69,532.51 L457.42,532.82 L460.03,534.54 L459.69,532.51 Z M463.77,584.42 L478.75,585.92 L458.33,583.51 L463.77,584.42 Z M482.68,594.68 L468.01,596.49 L477.24,596.18 L482.68,594.68 Z M510.97,638.43 L514.60,636.47 L468.16,659.70 L510.97,638.43 Z M462.56,693.20 L449.71,697.72 L447.59,691.84 L449.32,698.74 L462.56,693.20 Z M484.04,755.51 L469.37,728.35 L455.30,709.49 L474.97,739.67 L484.04,755.51 Z M137.51,386.47 L137.21,384.96 L135.40,378.32 L137.51,386.47 Z M225.70,278.44 L234.62,283.72 L233.90,284.41 L235.07,285.68 L234.32,282.06 L225.70,278.44 Z M230.07,293.23 L229.48,294.13 L231.44,301.67 L230.07,293.23 Z M240.67,339.39 L242.33,354.33 L242.18,347.54 L240.67,339.39 Z M479.05,429.31 L472.24,453.76 L472.95,453.50 L479.05,429.31 Z M483.13,449.83 L487.07,444.55 L491.30,432.03 L483.13,449.83 Z M298.30,556.96 L341.42,544.47 L341.42,544.47 L306.92,554.39 L298.30,556.96 Z M341.41,525.27 L340.80,523.31 L343.68,532.97 L341.41,525.27 Z M382.55,546.24 L389.59,544.25 L386.33,543.98 L386.00,542.45 L382.55,546.24 Z M395.56,545.19 L406.30,545.64 L395.15,544.71 L395.56,545.19 Z M411.74,578.23 L414.16,566.61 L413.90,563.96 L411.74,578.23 Z M408.91,580.97 L417.04,585.47 L408.91,580.97 L408.91,580.97 Z M404.78,528.44 L404.99,529.14 L405.69,523.01 L404.78,528.44 Z M409.60,486.60 L409.47,498.26 L410.38,490.57 L409.60,486.60 Z M407.68,528.77 L409.32,522.86 L406.90,527.54 L407.68,528.77 Z M219.27,431.71 L204.97,427.96 L219.27,431.71 L219.27,431.71 Z M97.28,282.96 L86.19,284.46 L86.19,284.46 L97.28,282.96 Z M323.56,195.30 L316.45,195.91 L314.41,197.79 L323.56,195.30 Z M332.79,291.41 L329.63,298.09 L330.21,298.05 L332.79,291.41 Z M345.95,282.21 L347.17,279.86 L332.79,291.41 L345.95,282.21 Z M349.51,275.35 L350.03,274.36 L348.37,268.03 L349.51,275.35 Z M175.25,139.19 L173.82,138.88 L173.68,141.20 L175.25,139.19 Z M104.54,245.70 L87.15,280.40 L86.29,284.04 L104.54,245.70 Z M217.23,109.46 L272.89,158.19 L240.97,129.67 L217.23,109.46 Z M294.06,59.97 L295.12,57.94 L256.10,105.83 L294.06,59.97 Z M515.58,757.43 L527.00,766.37 L515.58,757.43 L515.58,757.43 Z M520.04,841.21 L523.61,834.78 L514.14,846.79 L520.04,841.21 Z M529.12,806.81 L534.11,815.86 L526.09,798.66 L529.12,806.81 Z M500.53,738.31 L494.33,763.81 L494.93,766.98 L500.53,738.31 Z M503.71,681.13 L504.86,683.17 L504.61,672.83 L503.71,681.13 Z M507.03,687.01 L521.98,688.64 L506.33,685.76 L507.03,687.01 Z M552.90,428.77 L548.18,424.64 L552.11,429.01 L547.80,435.12 L552.90,428.77 Z M616.61,491.10 L609.89,467.79 L615.33,490.57 L616.61,491.10 Z M764.93,453.30 L764.32,440.48 L764.02,448.48 L764.93,453.30 Z M634.09,594.37 L633.51,594.04 L630.76,598.15 L634.09,594.37 Z M634.39,610.67 L634.54,603.58 L633.76,611.27 L634.39,610.67 Z M668.73,672.23 L689.75,630.58 L684.91,639.94 L668.73,672.23 Z M657.08,672.38 L672.66,672.23 L668.73,672.23 L657.08,672.38 Z M705.16,706.13 L702.76,708.89 L702.46,714.62 L705.16,706.13 Z M664.49,750.68 L666.34,746.64 L660.59,752.43 L664.49,750.68 Z M653.75,754.91 L657.88,756.37 L658.16,754.88 L657.84,755.21 L653.75,754.91 Z M661.77,821.74 L660.50,823.11 L668.13,821.02 L668.27,820.24 L661.77,821.74 Z M638.93,912.42 L640.90,878.32 L640.44,884.96 L638.93,912.42 Z M681.73,924.49 L686.75,919.73 L686.42,919.36 L681.73,924.49 Z M588.19,765.35 L587.68,763.80 L587.50,764.71 L588.19,765.35 Z M584.63,730.92 L593.22,726.81 L591.43,727.30 L584.63,730.92 Z M632.73,727.90 L637.87,740.42 L631.06,722.02 L632.73,727.90 Z M654.66,752.64 L651.30,751.04 L651.63,753.20 L652.39,751.74 L654.66,752.64 Z M591.27,874.19 L590.22,871.53 L589.46,872.22 L591.27,874.19 Z M613.67,861.58 L617.75,856.14 L610.64,863.54 L613.67,861.58 Z M585.38,937.17 L590.38,938.37 L584.93,936.26 L585.54,942.14 L585.38,937.17 Z M655.11,806.05 L653.00,809.22 L651.63,818.58 L655.11,806.05 Z M595.08,684.91 L595.82,685.05 L611.85,680.07 L595.08,684.91 Z M609.66,675.36 L609.59,676.15 L611.85,680.07 L609.66,675.36 Z M618.89,658.92 L610.19,669.36 L618.21,661.06 L618.89,658.92 Z M618.51,651.25 L619.63,656.60 L620.32,654.42 L618.51,651.25 Z M618.83,492.03 L620.02,492.53 L623.80,489.21 L618.83,492.03 Z M630.13,211.57 L630.25,211.59 L638.93,210.69 L629.58,210.96 L630.13,211.57 Z M625.92,223.37 L627.06,227.54 L626.45,220.64 L625.92,223.37 Z M628.14,212.02 L628.49,211.30 L628.49,211.15 L628.54,210.99 L628.34,211.00 L628.14,212.02 Z M715.31,921.32 L716.00,920.53 L712.44,921.02 L715.31,921.32 Z M716.41,920.06 L717.28,919.06 L715.22,918.60 L714.86,918.72 L716.41,920.06 Z M710.65,882.14 L708.05,881.19 L694.44,883.00 L710.65,882.14 Z M762.20,574.76 L760.84,605.39 L764.62,620.48 L761.14,602.37 L762.20,574.76 Z M783.68,643.56 L815.57,632.37 L810.00,633.15 L783.68,643.56 Z M817.13,632.15 L832.71,633.27 L819.68,631.79 L817.13,632.15 Z M843.58,633.75 L842.40,633.96 L854.88,634.86 L853.41,634.05 L843.58,633.75 Z M891.23,672.08 L888.19,676.74 L888.96,676.75 L891.23,672.08 Z M893.80,697.57 L896.78,701.06 L896.22,698.33 L893.80,697.57 Z M900.85,705.82 L902.41,707.64 L902.57,706.63 L900.85,705.82 Z M710.62,692.44 L710.12,694.02 L715.16,691.39 L710.62,692.44 Z M719.25,693.95 L719.63,693.35 L715.16,691.39 L719.25,693.95 Z M781.56,457.08 L787.61,452.55 L782.93,455.11 L781.56,457.08 Z M785.50,466.13 L783.83,468.24 L785.19,467.49 L785.34,467.97 L785.50,466.13 Z M781.87,480.01 L784.74,475.03 L784.90,473.21 L781.87,480.01 Z M752.80,523.79 L753.43,530.25 L753.43,523.91 L795.93,525.27 L752.80,523.79 Z M873.68,555.60 L874.13,548.96 L873.42,547.85 L873.68,555.60 Z M704.54,313.41 L704.57,308.01 L703.52,311.78 L704.54,313.41 Z M703.52,316.61 L703.21,322.19 L704.45,325.75 L704.52,316.08 L703.52,316.61 Z M709.26,336.31 L706.76,332.45 L707.60,334.87 L709.26,336.31 Z M758.42,389.78 L749.35,399.29 L759.18,390.04 L756.30,385.86 L758.42,389.78 Z M783.93,388.97 L782.71,389.66 L783.23,389.78 L783.93,388.97 Z M772.85,336.22 L772.94,336.98 L775.42,337.41 L772.85,336.22 Z M855.23,333.66 L850.23,336.37 L852.65,335.62 L855.23,333.66 Z M696.31,282.35 L696.26,282.06 L691.72,274.51 L696.31,282.35 Z" /></g></svg>