<svg xmlns="http://www.w3.org/2000/svg" viewBox="0 0 1000 1000" width="1000" height="1000"><g fill="#cccccc" stroke="#222" stroke-width="2"><path d="M289.98,745.53 L281.53,738.83 L276.32,741.34 L266.45,743.44 L261.10,742.18 L257.79,743.26 L255.96,742.84 L255.56,744.76 L253.39,746.61 L254.95,750.38 L249.74,749.96 L245.68,753.68 L241.89,754.10 L238.51,755.59 L237.43,757.15 L233.44,757.51 L231.34,760.14 L229.38,758.53 L230.13,755.95 L225.12,757.93 L222.55,757.21 L222.21,760.02 L220.32,761.04 L214.84,760.50 L212.34,758.71 L207.40,759.42 L204.29,757.45 L201.38,757.45 L199.01,754.57 L196.24,754.93 L194.21,757.27 L190.35,754.16 L184.54,755.41 L181.36,758.17 L179.87,761.88 L176.89,760.80 L170.00,764.69 L167.63,769.30 L162.28,768.82 L158.63,771.04 L157.01,773.25 L153.42,773.49 L152.82,783.61 L150.52,783.55 L147.07,781.64 L146.25,785.77 L140.71,786.31 L139.42,790.32 L136.51,789.84 L130.63,791.81 L129.68,794.45 L121.63,798.10 L138.48,759.18 L133.00,678.00 L131.10,663.39 L125.52,651.04 L125.02,651.36 L124.68,650.76 L102.56,607.29 L100.40,601.24 L99.79,581.84 L97.22,577.95 L87.48,563.04 L76.32,534.67 L52.71,519.16 L45.07,514.85 L37.43,514.01 L31.47,511.85 L19.23,502.87 L24.64,495.57 L26.20,490.00 L22.21,485.21 L22.00,482.70 L27.82,477.55 L31.68,472.16 L34.03,467.70 L32.96,465.21 L21.73,458.57 L20.99,457.25 L22.07,454.32 L31.68,446.18 L29.17,447.97 L32.28,444.38 L32.35,434.32 L33.91,429.11 L31.54,427.02 L24.17,426.90 L23.63,426.18 L23.49,425.28 L24.24,426.36 L26.06,422.11 L32.15,418.51 L31.20,408.04 L36.28,404.44 L44.80,402.35 L51.49,397.56 L53.46,397.38 L60.49,389.42 L69.49,390.43 L70.09,388.58 L66.44,376.60 L66.44,371.81 L68.40,371.28 L78.01,373.55 L81.93,371.93 L83.08,366.91 L86.67,364.87 L87.95,364.87 L90.93,367.14 L96.54,366.91 L99.72,368.52 L105.67,368.40 L114.60,366.55 L120.21,362.41 L120.76,352.48 L128.40,347.81 L129.21,341.94 L130.70,341.76 L137.12,346.43 L142.33,347.75 L148.08,342.36 L153.56,340.08 L154.17,334.34 L158.56,329.01 L156.81,325.65 L152.88,322.18 L152.54,320.56 L153.83,318.89 L158.70,317.99 L159.04,311.05 L160.53,307.87 L161.07,301.65 L163.84,297.51 L160.73,291.53 L160.93,285.48 L159.24,281.95 L162.01,278.00 L167.63,274.64 L172.63,267.10 L172.63,260.15 L176.29,256.32 L179.13,247.52 L181.83,247.88 L187.04,250.87 L192.18,250.10 L197.93,252.07 L203.21,250.75 L214.77,255.24 L219.78,255.84 L228.03,258.84 L230.40,257.58 L230.53,252.25 L234.79,251.29 L236.96,248.72 L240.47,250.46 L243.99,244.89 L246.29,245.55 L248.05,247.58 L251.03,247.16 L255.69,249.26 L259.68,252.61 L264.08,252.31 L266.85,251.95 L269.15,249.44 L268.48,247.10 L269.56,245.31 L270.91,245.61 L273.01,243.81 L274.16,240.46 L278.35,241.12 L280.58,239.44 L278.82,221.60 L279.50,219.92 L280.99,218.54 L288.16,216.51 L288.90,215.01 L292.55,214.83 L295.80,216.27 L297.49,215.73 L300.94,214.23 L304.26,214.53 L306.96,210.82 L320.69,213.33 L324.62,215.49 L331.78,222.61 L335.71,224.29 L344.03,235.19 L350.79,235.61 L354.31,234.83 L364.79,235.73 L371.96,237.88 L376.76,234.29 L383.12,232.67 L390.63,233.15 L395.23,236.33 L398.61,235.85 L400.91,234.71 L402.13,230.58 L406.32,227.88 L411.26,220.58 L413.56,219.08 L413.83,216.09 L417.14,214.23 L419.38,214.11 L421.20,216.45 L430.87,220.94 L429.99,219.56 L436.76,210.16 L435.61,208.96 L438.99,203.58 L438.25,201.18 L439.80,199.92 L439.67,197.05 L445.21,194.12 L445.15,192.14 L447.51,192.50 L450.42,191.48 L449.41,189.63 L449.47,185.85 L444.81,184.12 L443.05,182.38 L443.73,180.47 L457.52,179.15 L460.91,177.77 L461.04,174.18 L462.66,173.16 L464.83,173.70 L466.18,173.04 L463.68,168.25 L468.41,162.38 L470.31,162.56 L475.38,166.04 L481.33,167.17 L484.65,166.22 L484.71,164.24 L491.34,164.18 L490.40,166.93 L489.25,166.63 L486.47,168.25 L488.84,171.60 L493.17,171.24 L494.39,170.23 L492.83,169.75 L492.90,168.31 L495.40,168.19 L498.78,162.50 L500.20,163.22 L500.88,161.61 L502.57,161.67 L505.14,159.45 L509.33,160.41 L513.39,158.73 L517.11,159.57 L520.76,156.04 L524.62,156.58 L524.48,154.42 L527.60,155.56 L528.48,151.97 L531.93,148.37 L534.83,148.43 L539.50,145.80 L542.61,146.22 L545.38,145.26 L547.48,146.82 L551.95,145.02 L554.72,141.97 L561.08,146.40 L566.08,146.34 L570.61,148.55 L572.91,147.60 L576.70,148.79 L580.49,147.12 L583.87,147.54 L590.91,145.20 L592.12,148.37 L590.91,141.85 L587.59,137.00 L592.05,129.63 L597.40,127.36 L601.66,121.19 L604.37,119.93 L609.17,115.32 L609.64,108.38 L611.26,105.87 L613.70,105.21 L614.85,102.69 L636.49,83.65 L639.33,78.80 L647.32,72.28 L650.09,66.35 L649.34,64.91 L645.89,63.54 L641.57,58.45 L642.92,55.93 L643.19,51.44 L638.93,46.77 L633.31,42.94 L633.38,41.26 L631.76,38.75 L632.57,32.58 L638.59,29.29 L643.87,20.13 L649.07,21.63 L652.39,19.23 L655.50,20.67 L656.65,19.23 L662.60,22.34 L667.13,26.89 L671.33,38.15 L679.17,41.68 L686.54,47.37 L700.34,48.87 L714.41,53.00 L726.65,54.38 L732.00,53.72 L737.54,50.30 L747.55,47.43 L748.50,44.32 L749.65,41.02 L748.64,39.23 L750.33,34.08 L760.68,27.25 L763.18,30.01 L765.75,29.41 L769.20,30.13 L773.32,33.24 L776.50,33.84 L779.14,38.09 L782.52,38.57 L785.16,40.37 L792.06,42.46 L791.86,44.44 L793.89,48.45 L793.14,52.70 L797.67,56.77 L798.62,59.23 L801.53,60.90 L804.10,60.48 L805.05,61.62 L808.16,58.87 L808.70,56.05 L814.79,54.38 L816.27,62.40 L819.86,65.57 L816.34,69.82 L818.24,74.25 L820.94,77.31 L817.76,82.57 L822.77,89.22 L821.21,92.45 L825.54,95.87 L823.24,101.37 L823.51,108.68 L822.36,110.42 L817.56,112.87 L810.39,110.83 L807.55,106.94 L805.11,106.82 L803.02,108.14 L799.91,105.87 L796.86,105.33 L799.70,110.77 L801.46,111.73 L805.11,116.88 L803.36,120.53 L803.83,125.62 L807.08,128.08 L808.16,130.23 L805.66,133.05 L808.56,134.96 L814.65,146.76 L813.64,149.15 L816.41,153.40 L818.30,154.36 L819.39,157.00 L812.55,167.29 L819.72,171.90 L821.08,177.17 L823.65,181.60 L823.38,183.82 L827.98,187.83 L828.31,189.09 L825.54,194.65 L827.77,197.35 L828.25,202.26 L829.26,203.34 L833.66,206.63 L834.27,209.68 L837.38,212.08 L833.12,217.71 L834.33,222.14 L833.72,224.47 L836.43,227.70 L840.89,229.20 L840.83,232.61 L842.45,234.95 L840.56,239.98 L843.74,242.25 L843.80,245.79 L848.00,246.20 L848.40,250.75 L846.64,255.78 L851.78,260.75 L851.18,266.02 L848.74,267.40 L843.80,273.33 L846.44,270.33 L848.88,273.21 L842.38,277.94 L841.57,280.33 L844.61,283.92 L849.55,285.66 L848.00,290.57 L852.05,295.00 L852.19,300.69 L854.83,303.08 L859.49,307.93 L858.55,310.99 L863.28,311.94 L863.62,316.01 L869.98,319.31 L870.65,321.46 L872.08,322.12 L873.83,325.23 L876.40,336.43 L878.43,340.44 L886.62,348.41 L898.32,352.84 L898.93,352.06 L900.96,352.60 L900.15,354.39 L902.72,358.52 L902.65,364.39 L901.29,367.44 L899.40,368.76 L902.31,377.68 L906.98,384.09 L899.13,391.63 L902.38,398.16 L899.13,405.82 L900.01,407.74 L901.16,411.51 L896.70,411.33 L896.02,417.08 L893.79,419.59 L895.21,431.93 L892.37,433.42 L895.55,438.57 L906.84,444.26 L906.37,448.39 L912.46,459.89 L919.22,466.11 L922.33,467.55 L924.09,466.53 L925.92,467.61 L929.84,472.58 L929.84,473.24 L927.67,473.00 L926.66,475.57 L929.64,478.99 L927.67,479.46 L929.03,486.77 L927.81,487.37 L928.82,490.78 L931.80,493.00 L932.14,495.33 L936.26,497.67 L940.46,497.37 L944.79,499.04 L946.61,500.66 L947.02,503.59 L949.72,504.01 L950.33,508.26 L947.83,514.31 L948.44,517.18 L950.74,523.17 L954.59,524.97 L953.65,532.63 L955.47,534.55 L954.39,539.81 L953.58,542.87 L949.39,546.82 L952.63,550.47 L953.85,554.18 L951.14,557.66 L946.14,559.93 L942.76,560.29 L940.86,561.79 L944.18,568.43 L943.84,570.95 L945.33,572.03 L946.54,577.29 L946.54,580.77 L945.06,583.22 L945.67,587.11 L953.04,603.88 L954.73,605.01 L956.62,610.04 L959.33,612.56 L957.64,616.93 L957.91,618.91 L959.06,620.64 L962.71,622.62 L966.09,628.78 L967.24,633.51 L965.96,637.94 L961.70,641.06 L950.06,640.70 L948.10,639.14 L945.39,638.90 L941.34,633.57 L921.45,632.80 L919.96,634.17 L920.77,635.01 L918.14,636.21 L918.14,638.00 L914.01,637.17 L909.75,642.43 L903.66,641.90 L896.97,639.26 L896.02,640.58 L896.15,645.67 L891.76,645.19 L890.34,646.98 L890.61,648.84 L888.17,650.40 L885.60,655.91 L887.02,657.76 L885.81,662.07 L882.15,665.43 L881.82,667.64 L873.29,668.66 L872.14,679.44 L869.84,680.33 L869.37,683.81 L865.85,687.64 L870.79,693.92 L873.83,695.48 L872.21,699.37 L872.68,701.11 L879.72,702.07 L881.34,701.23 L887.23,705.06 L893.45,705.30 L895.95,704.46 L899.06,701.71 L902.11,704.10 L904.74,700.39 L906.57,701.23 L910.43,700.51 L912.79,699.31 L916.18,699.07 L916.65,698.12 L917.93,699.55 L924.29,698.18 L926.19,695.36 L927.34,695.36 L928.28,696.08 L928.62,700.39 L927.88,701.71 L926.39,701.71 L926.32,704.70 L924.77,707.16 L928.96,707.87 L928.96,710.99 L931.39,711.59 L932.07,715.06 L935.25,718.23 L934.37,720.21 L935.18,725.24 L934.10,727.81 L935.72,733.02 L934.71,735.36 L936.33,738.17 L924.90,747.57 L935.99,739.19 L936.33,743.26 L933.90,745.17 L934.44,751.28 L935.99,754.81 L935.65,759.72 L938.23,763.67 L936.87,764.87 L938.23,766.67 L940.66,766.91 L940.59,768.88 L945.67,772.72 L947.76,772.89 L949.39,774.75 L949.52,777.56 L958.45,785.17 L960.27,790.86 L961.97,792.41 L966.97,803.19 L970.42,804.33 L972.45,806.96 L977.05,805.88 L980.77,811.51 L979.62,813.67 L979.48,818.10 L977.25,822.17 L979.42,826.96 L979.01,831.45 L974.41,843.84 L970.35,845.04 L968.05,848.21 L965.21,848.69 L965.89,853.78 L963.93,855.40 L963.72,857.25 L968.53,862.58 L964.13,864.80 L964.67,870.84 L962.64,869.05 L961.70,869.65 L961.83,867.01 L961.29,872.82 L957.50,876.47 L959.94,879.95 L957.30,881.68 L951.75,879.59 L949.79,880.07 L947.36,886.71 L945.33,884.62 L940.46,883.48 L936.67,886.53 L934.23,891.38 L933.83,887.79 L929.43,887.43 L928.42,894.08 L926.46,893.42 L925.24,890.30 L922.06,893.96 L919.69,893.18 L918.47,890.90 L915.43,890.66 L915.97,896.17 L910.02,898.33 L907.25,896.83 L905.56,897.79 L904.20,903.36 L909.07,905.27 L910.49,907.01 L904.34,909.82 L904.88,905.87 L902.44,917.37 L897.64,917.01 L901.77,917.72 L897.03,923.65 L902.17,958.44 L900.62,959.75 L873.50,968.20 L858.89,968.56 L854.08,976.34 L851.38,978.02 L851.51,979.03 L847.32,980.77 L840.96,975.74 L836.09,979.39 L834.13,979.09 L830.34,976.82 L826.62,972.33 L815.87,972.99 L814.72,974.12 L808.70,972.39 L805.66,974.24 L800.45,967.84 L796.46,967.90 L790.50,960.95 L780.90,961.79 L774.47,966.82 L753.98,959.34 L737.34,958.02 L735.79,956.40 L737.75,954.67 L735.99,951.07 L738.29,946.76 L739.78,942.57 L742.95,940.72 L740.52,938.20 L741.26,935.69 L740.18,934.73 L738.36,935.39 L735.11,930.96 L728.41,928.08 L728.41,925.27 L726.25,922.15 L720.63,919.52 L723.68,916.05 L722.53,912.70 L722.26,913.71 L718.94,911.44 L712.99,910.06 L709.95,907.79 L704.74,908.62 L699.53,902.94 L701.63,898.33 L706.36,897.37 L708.19,894.25 L704.47,894.13 L704.33,890.60 L702.30,889.46 L701.90,885.93 L704.00,881.38 L697.91,878.69 L688.30,871.80 L685.73,871.26 L676.81,860.25 L675.38,852.11 L672.75,850.25 L671.94,845.52 L675.86,842.77 L672.75,838.93 L672.81,835.88 L675.38,834.50 L668.22,830.31 L667.20,825.28 L664.36,822.71 L659.83,825.52 L653.13,824.74 L649.89,823.19 L645.22,818.82 L642.04,818.52 L643.26,813.49 L642.31,812.11 L643.12,811.21 L642.78,806.06 L639.60,801.81 L640.89,800.44 L639.87,797.98 L642.24,797.50 L638.73,793.01 L636.43,792.71 L635.21,790.08 L630.95,789.78 L628.85,784.81 L629.73,783.19 L628.99,781.22 L624.12,779.78 L624.99,775.53 L618.30,776.31 L607.48,771.76 L605.99,772.30 L603.76,770.80 L600.98,771.22 L590.97,768.05 L585.43,768.82 L584.28,766.01 L580.56,762.36 L568.92,755.71 L565.27,757.45 L556.68,756.43 L554.45,758.23 L551.40,755.11 L550.05,756.01 L540.79,756.43 L534.43,758.17 L531.79,753.20 L527.80,755.11 L523.81,751.82 L513.87,750.14 L512.17,748.77 L510.55,748.89 L510.15,746.43 L508.32,746.31 L508.12,744.22 L505.34,744.22 L501.69,742.48 L502.16,741.70 L499.26,738.41 L496.62,738.29 L495.54,739.43 L493.10,738.53 L492.49,739.37 L490.12,736.37 L488.16,736.43 L487.89,734.58 L485.93,733.92 L485.25,735.18 L483.09,734.94 L482.14,733.62 L479.84,733.80 L478.02,732.36 L475.18,733.68 L466.72,729.25 L465.03,729.67 L462.60,733.32 L461.18,732.30 L454.41,734.52 L451.03,733.80 L444.88,739.19 L444.00,736.43 L439.67,739.37 L437.84,737.21 L437.50,734.28 L436.62,733.32 L434.05,735.30 L433.65,733.56 L429.12,734.64 L427.70,733.92 L428.85,732.48 L426.48,731.76 L422.55,734.88 L421.00,738.59 L417.96,739.55 L416.33,737.75 L414.57,737.45 L412.88,741.70 L408.55,742.06 L405.10,746.91 L400.37,747.45 L398.81,749.49 L396.65,750.50 L390.22,747.09 L388.87,744.82 L385.90,745.77 L382.92,743.86 L379.33,743.50 L377.03,744.70 L377.58,748.89 L374.73,748.77 L372.84,750.32 L369.80,749.49 L366.55,751.28 L362.29,750.86 L358.10,747.75 L356.20,747.87 L356.13,750.74 L352.41,751.04 L352.41,753.98 L351.40,755.05 L348.56,753.56 L345.11,753.68 L336.65,751.22 L333.95,748.53 L330.70,747.87 L327.52,745.77 L313.59,748.17 L310.68,744.40 L306.76,742.96 L289.98,745.53 Z M960.00,863.66 L954.39,857.61 L961.83,867.01 L960.00,863.66 Z M736.46,908.86 L725.71,911.32 L722.53,912.70 L736.46,908.86 Z M424.25,247.94 L423.67,248.15 L428.57,247.82 L421.54,247.10 L424.25,247.94 Z M421.74,248.84 L422.06,249.41 L422.97,248.40 L421.74,248.84 Z M450.69,360.86 L449.75,360.32 L455.02,366.49 L450.22,359.96 L450.69,360.86 Z M443.22,401.93 L447.92,403.01 L442.91,401.39 L443.22,401.93 Z M452.25,400.37 L452.53,399.94 L447.92,403.01 L452.25,400.37 Z M441.59,409.15 L445.48,407.38 L442.58,408.28 L443.18,407.44 L441.59,409.15 Z M438.20,430.49 L438.99,430.25 L442.10,426.42 L438.20,430.49 Z M431.55,442.58 L443.39,431.15 L436.89,436.84 L431.55,442.58 Z M447.38,460.65 L449.81,459.89 L449.93,459.26 L447.38,460.65 Z M473.16,464.51 L472.27,463.54 L469.43,462.34 L473.16,464.51 Z M477.00,470.30 L475.52,467.07 L473.94,465.35 L477.00,470.30 Z M480.39,471.56 L482.05,471.49 L477.00,470.30 L480.39,471.56 Z M500.00,473.00 L498.92,470.78 L498.32,470.41 L500.00,473.00 Z M507.85,479.88 L511.57,477.79 L510.28,478.33 L507.85,479.88 Z M535.10,467.19 L535.57,466.99 L534.75,466.96 L535.10,467.19 Z M537.54,466.11 L538.42,463.24 L536.74,466.47 L537.54,466.11 Z M576.70,580.29 L581.51,582.63 L581.50,582.62 L576.70,580.29 Z M639.74,616.81 L644.38,618.09 L633.18,613.94 L639.74,616.81 Z M651.88,620.15 L650.16,619.08 L648.57,619.24 L651.88,620.15 Z M652.52,637.05 L653.06,620.88 L652.79,620.71 L652.52,637.05 Z M657.46,651.36 L657.93,647.10 L658.27,641.00 L657.46,651.36 Z M644.88,654.23 L642.58,656.21 L646.71,653.45 L644.88,654.23 Z M628.38,671.95 L636.76,664.11 L638.39,661.65 L628.38,671.95 Z M639.67,667.61 L639.87,666.98 L639.27,665.55 L639.67,667.61 Z M360.06,306.55 L349.64,306.49 L350.66,306.67 L360.06,306.55 Z M353.83,322.72 L350.84,323.89 L351.33,324.04 L353.83,322.72 Z M358.70,324.04 L357.44,325.50 L359.49,324.08 L353.83,322.72 L358.70,324.04 Z M343.69,329.73 L348.02,331.82 L341.59,328.05 L343.69,329.73 Z M325.29,352.96 L327.86,342.06 L324.50,353.84 L325.29,352.96 Z M314.44,389.13 L314.47,389.12 L319.10,388.37 L315.28,388.58 L314.44,389.13 Z M321.21,406.36 L321.35,404.30 L320.62,405.82 L321.21,406.36 Z M325.97,409.71 L323.19,408.19 L323.80,408.76 L325.97,409.71 Z M349.89,415.28 L347.82,416.54 L349.44,415.76 L349.89,415.28 Z M378.86,481.44 L377.17,480.36 L378.88,481.49 L378.86,481.44 Z M379.54,483.00 L379.30,482.46 L377.58,486.47 L379.54,483.00 Z M364.69,523.77 L364.25,524.01 L360.67,528.50 L364.69,523.77 Z M378.12,518.86 L375.75,520.72 L379.60,518.56 L378.12,518.86 Z M396.04,530.89 L395.57,529.52 L396.38,538.50 L396.04,530.89 Z M393.54,555.50 L396.04,558.43 L392.93,553.35 L392.84,551.11 L392.39,552.15 L393.54,555.50 Z M430.20,562.69 L425.28,557.55 L425.33,557.66 L430.49,563.95 L430.20,562.69 Z M424.31,555.32 L424.70,556.22 L426.00,549.75 L424.31,555.32 Z M416.94,529.88 L419.24,530.18 L425.73,529.58 L416.94,529.88 Z M439.11,528.90 L433.85,529.52 L438.38,529.28 L439.11,528.90 Z M444.54,540.05 L443.37,540.09 L445.83,541.10 L444.54,540.05 Z M446.84,541.91 L446.44,541.59 L445.75,543.89 L446.84,541.91 Z M447.31,571.73 L448.70,570.97 L445.67,571.74 L447.31,571.73 Z M449.00,599.87 L441.09,597.35 L448.82,600.38 L449.00,599.87 Z M458.70,607.65 L456.31,606.33 L457.52,607.53 L458.70,607.65 Z M461.85,609.39 L461.08,608.96 L462.66,610.46 L461.85,609.39 Z M446.77,666.75 L445.01,667.46 L442.85,669.20 L446.77,666.75 Z M459.88,685.76 L458.63,684.94 L455.63,684.94 L459.88,685.76 Z M454.41,686.02 L451.03,693.27 L455.63,684.94 L454.41,686.02 Z M340.44,300.21 L338.62,301.41 L338.43,302.55 L340.44,300.21 Z M116.09,473.48 L120.48,476.53 L119.06,474.79 L116.09,473.48 Z M181.83,436.66 L185.48,434.44 L187.04,432.46 L181.83,436.66 Z M210.43,437.92 L210.24,438.33 L210.66,438.45 L210.43,437.92 Z M213.76,440.63 L213.74,440.91 L214.16,440.72 L213.76,440.63 Z M227.49,445.76 L228.70,447.13 L229.26,446.76 L227.49,445.76 Z M230.67,447.55 L236.62,446.89 L233.98,446.65 L230.67,447.55 Z M267.53,456.89 L268.61,458.99 L271.38,461.14 L267.53,456.89 Z M286.26,447.07 L286.33,443.84 L285.66,444.74 L286.26,447.07 Z M351.46,564.13 L350.79,565.02 L351.80,564.42 L351.46,564.13 Z M348.83,572.80 L358.91,572.50 L363.64,571.49 L348.83,572.80 Z M366.67,575.77 L367.33,576.52 L367.29,576.04 L366.67,575.77 Z M367.44,577.82 L366.83,579.91 L367.57,579.33 L367.44,577.82 Z M342.47,612.21 L343.15,610.34 L343.44,606.89 L342.27,611.66 L342.47,612.21 Z M342.64,612.70 L342.74,612.98 L344.84,613.70 L342.64,612.70 Z M329.34,641.73 L330.97,645.55 L330.64,643.09 L329.34,641.73 Z M333.48,655.61 L333.48,657.16 L334.15,656.21 L333.48,655.61 Z M335.34,660.80 L335.78,661.65 L337.53,661.77 L335.34,660.80 Z M344.50,720.09 L338.43,708.99 L338.16,709.33 L338.35,709.25 L344.50,720.09 Z M287.21,453.36 L289.68,452.73 L282.41,453.06 L287.21,453.36 Z M158.29,504.43 L159.71,500.72 L159.11,502.04 L158.29,504.43 Z M164.85,565.14 L161.54,572.44 L162.37,573.20 L162.08,571.61 L164.85,565.14 Z M222.41,566.04 L224.17,563.54 L223.29,564.30 L222.41,566.04 Z M279.10,543.41 L280.24,543.77 L273.28,541.43 L279.10,543.41 Z M280.85,542.21 L280.72,541.70 L280.58,542.29 L280.85,542.21 Z M300.40,529.34 L298.91,523.47 L301.14,532.63 L300.40,529.34 Z M300.87,522.33 L301.28,521.13 L300.25,522.15 L300.87,522.33 Z M309.17,521.10 L308.59,520.78 L308.31,521.85 L309.17,521.10 Z M310.14,520.24 L309.80,519.58 L309.73,520.60 L310.14,520.24 Z M162.41,575.89 L160.70,577.23 L162.28,576.70 L162.41,575.89 Z M255.22,622.86 L252.45,622.80 L250.82,623.10 L255.22,622.86 Z M290.46,608.79 L283.76,613.70 L292.42,607.71 L290.46,608.79 Z M293.03,604.36 L292.78,604.79 L294.65,604.06 L293.03,604.36 Z M296.28,603.76 L295.48,603.90 L298.03,604.90 L296.28,603.76 Z M266.65,669.08 L267.93,669.62 L281.46,671.11 L266.65,669.08 Z M253.12,735.12 L252.11,736.19 L252.33,736.51 L253.12,735.12 Z M256.17,698.71 L256.84,687.40 L255.69,704.88 L256.17,698.71 Z M335.91,710.27 L336.32,710.10 L335.95,710.07 L335.91,710.27 Z M251.03,565.20 L251.77,565.86 L252.84,565.52 L251.03,565.20 Z M305.81,550.17 L311.29,554.36 L310.68,553.82 L305.81,550.17 Z M193.66,491.96 L189.14,491.20 L193.66,491.96 L193.66,491.96 Z M220.99,499.58 L218.97,499.94 L225.66,498.92 L220.99,499.58 Z M298.27,505.58 L284.64,502.45 L297.49,505.93 L298.27,505.58 Z M329.36,463.78 L323.80,461.92 L327.05,463.54 L329.36,463.78 Z M341.32,468.51 L341.80,465.93 L339.09,472.04 L341.32,468.51 Z M321.71,514.01 L321.25,514.51 L322.79,514.19 L321.71,514.01 Z M297.09,453.42 L294.25,452.52 L291.85,452.63 L297.09,453.42 Z M170.87,297.21 L166.48,295.84 L166.31,296.14 L170.87,297.21 Z M214.16,301.65 L214.05,300.44 L212.61,304.52 L214.16,301.65 Z M216.19,297.81 L214.64,298.77 L214.51,299.12 L216.19,297.81 Z M316.58,271.83 L315.48,271.23 L314.11,271.40 L316.58,271.83 Z M121.72,391.18 L116.16,384.93 L120.48,390.55 L121.72,391.18 Z M123.39,393.07 L123.25,392.91 L123.36,393.16 L123.39,393.07 Z M169.45,385.25 L166.75,379.00 L169.05,384.75 L169.45,385.25 Z M221.40,337.27 L220.86,334.10 L226.74,333.38 L220.59,334.04 L221.40,337.27 Z M246.16,397.80 L243.23,394.73 L243.52,395.64 L246.16,397.80 Z M311.56,389.54 L310.98,390.08 L312.34,389.70 L311.56,389.54 Z M41.96,442.28 L44.12,443.12 L44.90,442.63 L41.96,442.28 Z M45.69,442.13 L46.96,441.33 L48.38,440.13 L45.69,442.13 Z M138.68,416.90 L154.71,417.80 L143.68,416.66 L138.68,416.90 Z M176.89,419.36 L176.29,413.67 L175.20,411.51 L176.89,419.36 Z M260.65,413.00 L261.16,413.51 L261.31,413.25 L260.65,413.00 Z M261.01,413.77 L260.29,414.02 L260.82,414.10 L261.01,413.77 Z M262.25,414.30 L263.67,414.50 L265.97,413.72 L262.25,414.30 Z M124.07,400.49 L125.12,401.16 L124.10,399.57 L124.07,400.49 Z M126.86,404.57 L126.91,403.97 L126.44,403.23 L126.86,404.57 Z M313.32,316.91 L313.02,317.37 L314.27,316.73 L313.33,316.77 L313.32,316.91 Z M337.60,303.50 L337.96,303.09 L334.96,303.62 L337.60,303.50 Z M290.48,311.95 L290.86,309.07 L290.19,311.70 L290.48,311.95 Z M296.28,310.75 L291.07,312.44 L291.54,312.84 L296.28,310.75 Z M416.13,627.95 L415.89,627.74 L416.19,628.21 L416.13,627.95 Z M418.16,630.22 L416.81,631.12 L418.27,630.37 L418.16,630.22 Z M413.36,667.94 L413.41,668.17 L413.85,667.99 L413.36,667.94 Z M414.78,665.60 L415.03,667.52 L415.32,667.40 L414.78,665.60 Z M399.22,573.82 L401.45,579.09 L406.73,589.33 L399.22,573.82 Z M434.46,616.33 L437.03,608.31 L435.20,613.58 L432.50,618.61 L434.46,616.33 Z M395.43,598.13 L396.73,597.36 L390.29,599.03 L395.43,598.13 Z M352.68,563.29 L352.24,564.15 L352.68,563.88 L352.68,563.29 Z M392.38,344.96 L392.59,345.17 L398.34,346.19 L392.38,344.96 Z M441.22,464.14 L441.24,464.02 L439.05,465.22 L441.84,464.61 L441.22,464.14 Z M441.85,463.69 L441.85,463.69 L441.22,464.14 L441.85,463.69 Z M443.53,465.92 L451.64,475.87 L443.86,466.17 L443.53,465.92 Z M448.36,493.17 L448.26,493.59 L450.22,495.33 L448.36,493.17 Z M445.42,510.96 L445.02,508.70 L444.81,509.94 L444.89,511.34 L445.42,510.96 Z M448.14,519.60 L447.45,520.30 L448.46,520.00 L448.14,519.60 Z M447.51,521.31 L448.46,520.78 L439.80,522.51 L447.96,521.55 L447.51,521.31 Z M439.99,528.45 L440.48,528.20 L439.80,522.51 L439.99,528.45 Z M380.62,400.01 L377.51,399.77 L373.52,399.60 L380.62,400.01 Z M392.70,400.02 L392.70,400.02 L392.25,394.87 L392.70,400.02 Z M395.97,398.46 L397.80,391.57 L396.72,395.28 L395.97,398.46 Z M396.89,402.17 L396.92,399.95 L395.97,398.46 L396.89,402.17 Z M411.06,399.77 L412.27,394.63 L411.60,396.90 L411.06,399.77 Z M426.14,386.48 L426.47,386.15 L422.35,387.80 L426.14,386.48 Z M427.97,384.69 L427.41,384.72 L427.60,385.05 L427.97,384.69 Z M423.93,381.35 L423.23,381.15 L423.08,381.58 L423.93,381.35 Z M432.43,382.47 L433.24,381.27 L430.81,383.25 L432.43,382.47 Z M433.11,375.89 L435.20,377.38 L434.12,375.89 L431.77,375.75 L432.57,376.42 L433.24,381.27 L433.11,375.89 Z M386.77,418.10 L382.92,421.33 L384.75,419.95 L386.77,418.10 Z M422.09,416.73 L421.82,418.19 L422.15,417.56 L422.09,416.73 Z M438.52,410.55 L440.36,409.71 L422.55,414.26 L422.49,414.61 L438.52,410.55 Z M389.28,466.93 L388.94,478.99 L389.62,481.98 L389.28,466.93 Z M424.79,496.66 L425.33,497.19 L429.18,500.00 L424.79,496.66 Z M402.20,506.89 L394.57,501.73 L394.57,501.73 L402.20,506.89 Z M403.00,444.63 L402.67,445.04 L402.79,445.48 L403.00,444.63 Z M404.75,442.88 L404.29,443.00 L403.92,443.47 L404.75,442.88 Z M387.11,409.23 L389.57,409.61 L388.87,409.05 L387.11,409.23 Z M390.34,410.07 L390.49,410.55 L391.24,409.59 L390.34,410.07 Z M406.39,408.46 L417.22,402.26 L417.22,402.26 L406.39,408.46 Z M395.91,411.39 L395.36,408.46 L395.43,412.83 L395.91,411.39 Z M391.37,413.90 L391.11,413.37 L390.54,414.26 L391.37,413.90 Z M355.26,367.38 L353.43,365.59 L355.01,368.28 L355.26,367.38 Z M356.35,369.28 L355.47,369.05 L355.86,369.72 L356.35,369.28 Z M366.48,362.36 L363.61,366.04 L363.91,365.95 L366.48,362.36 Z M394.28,393.61 L394.96,390.79 L395.30,388.82 L394.28,393.61 Z M378.79,392.41 L378.71,393.80 L381.70,387.80 L378.79,392.41 Z M400.00,375.66 L400.30,376.01 L401.00,375.82 L400.00,375.66 Z M402.70,375.36 L403.52,375.14 L402.94,375.05 L402.70,375.36 Z M410.18,370.38 L411.80,376.42 L407.61,374.03 L412.00,376.96 L410.18,370.38 Z M409.97,377.50 L409.70,377.98 L412.00,376.96 L409.97,377.50 Z M388.06,363.79 L392.42,364.49 L391.51,363.73 L388.06,363.79 Z M392.86,297.39 L402.86,303.01 L402.60,302.42 L392.86,297.39 Z M403.30,304.04 L401.86,306.79 L403.48,304.46 L403.30,304.04 Z M402.27,313.70 L402.60,313.50 L401.86,306.79 L402.27,313.70 Z M414.91,334.10 L415.68,334.26 L412.61,331.94 L414.91,334.10 Z M418.02,334.75 L419.00,334.35 L417.32,334.61 L418.02,334.75 Z M490.06,653.69 L489.18,651.65 L488.23,651.32 L490.06,653.69 Z M560.94,616.45 L567.50,608.25 L548.50,631.78 L560.94,616.45 Z M573.66,646.92 L574.65,646.82 L571.43,645.73 L573.66,646.92 Z M576.57,648.60 L576.70,647.52 L576.21,647.36 L576.57,648.60 Z M527.06,708.11 L525.83,707.90 L533.41,710.69 L527.06,708.11 Z M480.18,689.67 L463.41,685.90 L461.73,686.12 L480.18,689.67 Z M589.48,673.39 L592.72,670.70 L591.85,670.99 L589.48,673.39 Z M464.35,567.71 L466.05,567.00 L464.63,567.24 L459.62,572.15 L464.35,567.71 Z M459.21,543.71 L490.53,539.87 L458.61,543.23 L458.47,545.38 L459.21,543.71 Z M497.97,587.11 L490.87,581.37 L493.84,583.88 L497.97,587.11 Z M459.55,592.98 L461.25,592.31 L461.25,592.31 L459.55,592.98 Z M487.32,601.49 L488.98,604.06 L503.04,620.22 L487.32,601.49 Z M511.21,634.21 L511.30,635.07 L512.99,636.15 L511.21,634.21 Z M448.69,521.94 L449.47,523.44 L449.54,522.39 L448.69,521.94 Z M499.96,503.80 L502.37,499.04 L500.14,502.93 L499.96,503.80 Z M499.32,506.89 L502.30,508.08 L499.44,506.34 L499.32,506.89 Z M602.94,238.48 L603.44,238.56 L599.83,236.62 L602.94,238.48 Z M607.48,336.61 L604.70,335.17 L603.49,335.65 L605.58,335.77 L607.48,336.61 Z M603.55,374.15 L603.49,366.91 L603.10,374.79 L603.55,374.15 Z M641.36,386.48 L641.02,385.65 L638.32,392.23 L641.36,386.48 Z M648.74,420.49 L649.76,419.80 L642.17,420.79 L648.74,420.49 Z M639.43,479.03 L638.66,479.04 L636.83,479.94 L639.43,479.03 Z M734.23,480.06 L687.36,480.54 L702.51,480.48 L734.23,480.06 Z M735.38,496.29 L736.33,493.53 L739.03,488.80 L735.45,494.19 L735.38,496.29 Z M742.31,443.97 L741.30,444.90 L742.14,444.38 L742.31,443.97 Z M739.91,437.55 L739.64,439.05 L741.33,436.12 L739.91,437.55 Z M758.04,436.84 L749.79,437.43 L750.19,437.55 L758.04,436.84 Z M761.35,442.94 L761.22,442.20 L758.58,447.31 L761.35,442.94 Z M803.49,449.95 L798.55,452.04 L797.83,452.47 L803.49,449.95 Z M771.70,505.75 L765.48,496.95 L765.12,496.87 L771.70,505.75 Z M768.25,551.37 L769.40,548.02 L767.10,552.93 L768.25,551.37 Z M765.61,596.57 L765.06,594.16 L764.80,594.36 L765.61,596.57 Z M764.80,601.18 L774.54,602.80 L765.07,601.00 L757.90,604.66 L764.80,601.18 Z M701.49,735.59 L700.95,738.05 L703.05,733.86 L703.14,733.42 L701.49,735.59 Z M697.50,730.51 L698.99,733.02 L701.49,735.59 L697.50,730.51 Z M764.67,749.66 L761.28,750.32 L761.19,750.46 L764.67,749.66 Z M796.19,788.40 L793.68,784.27 L796.23,789.14 L796.19,788.40 Z M812.62,809.96 L812.96,807.56 L812.26,810.47 L812.62,809.96 Z M806.32,833.55 L804.91,831.27 L805.72,833.01 L806.32,833.55 Z M809.52,835.65 L808.23,835.28 L808.70,835.70 L809.52,835.65 Z M838.39,852.11 L835.48,849.23 L838.32,852.82 L839.30,853.88 L838.39,852.11 Z M640.42,457.19 L638.25,458.21 L637.33,459.49 L640.42,457.19 Z M745.32,761.52 L744.98,759.06 L744.35,758.50 L745.32,761.52 Z M467.68,357.65 L462.73,352.78 L465.17,356.01 L467.68,357.65 Z M528.78,332.72 L528.41,330.26 L528.09,331.03 L528.78,332.72 Z M569.13,373.25 L568.65,372.17 L568.41,372.27 L569.13,373.25 Z M574.06,391.57 L574.06,389.42 L573.66,388.70 L574.06,391.57 Z M577.09,390.35 L576.50,388.94 L575.93,389.05 L577.09,390.35 Z M452.73,397.75 L453.20,398.88 L453.40,398.58 L452.73,397.75 Z M458.20,401.27 L458.00,393.55 L456.51,387.81 L457.39,391.75 L458.20,401.27 Z M483.09,455.22 L493.30,440.13 L493.84,435.28 L493.44,438.63 L483.09,455.22 Z M534.90,405.10 L509.60,406.48 L539.53,405.50 L534.90,405.10 Z M543.15,404.44 L542.16,405.42 L542.54,405.40 L543.15,404.44 Z M544.91,413.01 L543.90,412.77 L541.19,412.41 L544.91,413.01 Z M541.73,413.55 L542.28,413.66 L541.19,412.41 L541.73,413.55 Z M556.00,443.48 L555.33,440.85 L555.82,443.97 L562.63,441.51 L556.00,443.48 Z M522.66,445.88 L528.75,441.72 L526.38,442.58 L522.66,445.88 Z M532.56,440.33 L539.64,439.95 L533.75,439.89 L532.56,440.33 Z M545.66,414.38 L548.90,413.43 L544.05,414.04 L545.66,414.38 Z M455.69,384.11 L455.69,384.11 L469.43,380.20 L455.69,384.11 Z M475.70,387.64 L473.55,387.02 L475.31,388.10 L475.70,387.64 Z M484.86,398.89 L498.17,405.28 L500.74,406.00 L484.86,398.89 Z M508.31,404.22 L508.31,404.22 L500.74,406.00 L508.31,404.22 Z M548.83,402.89 L548.29,402.18 L548.41,403.00 L548.83,402.89 Z M451.60,290.48 L451.47,291.47 L451.84,291.29 L451.60,290.48 Z M451.77,289.25 L451.72,289.65 L452.72,288.71 L451.77,289.25 Z M510.29,285.31 L507.41,285.01 L504.60,285.12 L510.29,285.31 Z M516.50,284.16 L511.63,285.35 L513.60,285.42 L516.50,284.16 Z M563.71,289.91 L558.57,290.21 L559.55,288.89 L557.15,290.75 L563.71,289.91 Z M567.03,244.29 L569.46,245.79 L569.13,245.01 L567.03,244.29 Z M464.49,254.23 L463.27,252.79 L465.44,256.92 L464.49,254.23 Z M500.17,241.13 L499.46,240.88 L497.86,241.58 L500.17,241.13 Z M502.91,244.71 L501.96,241.77 L501.14,241.48 L502.91,244.71 Z M435.20,251.44 L430.60,250.51 L434.19,251.59 L435.20,251.44 Z M438.86,250.46 L437.52,251.08 L442.30,250.34 L438.86,250.46 Z M462.12,236.56 L458.06,235.67 L463.00,237.10 L462.12,236.56 Z M686.34,773.49 L687.79,751.88 L687.36,752.78 L686.34,773.49 Z M688.84,749.66 L691.63,750.00 L690.81,749.49 L688.84,749.66 Z M693.50,750.22 L694.39,750.32 L694.59,749.37 L693.50,750.22 Z M693.32,747.72 L695.07,747.15 L693.11,747.45 L693.32,747.72 Z M698.99,749.25 L703.39,754.39 L703.94,754.83 L698.99,749.25 Z M654.49,687.79 L653.88,687.88 L652.93,690.09 L654.49,687.79 Z M655.71,688.20 L655.91,687.58 L655.11,687.70 L655.71,688.20 Z M675.11,695.12 L674.59,695.06 L674.64,696.32 L675.11,695.12 Z M711.24,660.87 L711.24,660.87 L706.90,663.45 L711.24,660.87 Z M699.94,697.88 L700.30,697.87 L699.55,697.66 L699.94,697.88 Z M709.92,703.72 L710.08,702.67 L707.38,699.01 L709.92,703.72 Z M703.55,731.54 L703.79,730.45 L701.56,725.42 L703.55,731.54 Z M630.54,723.98 L620.46,725.06 L627.23,724.88 L630.54,723.98 Z M637.37,719.79 L634.80,720.21 L641.22,720.04 L637.37,719.79 Z M679.24,710.33 L678.34,708.99 L679.10,713.08 L679.24,710.33 Z M682.06,714.16 L685.67,713.56 L682.15,713.62 L682.06,714.16 Z M681.88,715.24 L681.73,717.94 L682.49,716.38 L681.93,714.91 L681.88,715.24 Z M671.12,727.15 L671.28,726.63 L670.75,727.11 L671.12,727.15 Z M667.81,730.98 L667.00,728.95 L668.08,733.08 L667.81,730.98 Z M682.49,744.70 L680.32,742.72 L675.25,738.35 L668.08,733.08 L682.49,744.70 Z M742.69,758.61 L743.74,757.97 L743.43,757.69 L742.69,758.61 Z M608.76,761.10 L608.47,760.21 L608.43,762.08 L608.76,761.10 Z M685.69,721.91 L686.41,723.08 L686.48,722.00 L685.69,721.91 Z M684.16,724.65 L684.16,724.65 L684.72,726.25 L684.16,724.65 Z M691.62,723.98 L693.31,726.79 L694.59,728.11 L691.62,723.98 Z M679.92,704.58 L680.73,701.53 L679.27,704.96 L679.92,704.58 Z M684.21,696.87 L683.50,696.80 L682.58,697.70 L684.21,696.87 Z M728.82,612.32 L727.80,613.10 L726.30,615.04 L728.82,612.32 Z M742.28,610.82 L738.04,611.68 L742.94,611.34 L742.28,610.82 Z M713.13,611.66 L714.24,611.47 L710.83,609.98 L713.13,611.66 Z M715.76,636.99 L716.14,637.07 L715.75,636.58 L715.76,636.99 Z M715.63,633.57 L715.66,634.33 L715.83,633.30 L715.63,633.57 Z M690.67,611.30 L690.90,611.87 L691.75,610.88 L690.67,611.30 Z M690.74,608.37 L691.01,608.97 L692.43,604.78 L690.74,608.37 Z M703.00,509.41 L703.40,509.31 L701.70,506.95 L703.00,509.41 Z M708.66,487.55 L708.32,486.05 L708.26,490.12 L708.66,487.55 Z M734.23,519.52 L735.24,521.43 L733.79,515.80 L734.23,519.52 Z M790.57,430.07 L797.74,428.45 L808.23,425.64 L790.57,430.07 Z M806.24,438.85 L806.13,440.37 L806.24,438.85 L806.24,438.85 Z M743.43,92.51 L747.56,97.63 L747.82,96.94 L743.43,92.51 Z M755.59,190.49 L753.44,196.03 L755.60,190.52 L755.59,190.49 Z M735.97,238.70 L735.99,238.90 L738.42,242.07 L735.97,238.70 Z M772.99,272.49 L775.79,273.28 L775.15,272.85 L772.99,272.49 Z M782.25,282.85 L773.05,292.84 L776.91,288.83 L782.25,282.85 Z M780.02,409.77 L776.89,407.67 L777.04,408.34 L771.63,406.18 L780.02,409.77 Z M740.72,369.00 L735.92,364.33 L738.49,366.91 L740.72,369.00 Z M714.55,424.06 L714.55,424.06 L714.61,420.79 L714.55,424.06 Z M726.32,412.53 L727.47,413.31 L724.42,411.09 L726.32,412.53 Z M760.77,423.46 L761.22,423.42 L762.43,421.33 L760.77,423.46 Z M696.67,404.12 L696.42,403.55 L681.61,403.91 L692.97,403.97 L696.67,404.12 Z M716.10,425.16 L723.95,426.66 L714.74,424.19 L716.10,425.16 Z M690.54,474.67 L687.09,478.93 L687.12,479.13 L690.54,474.67 Z M696.01,468.93 L696.86,467.05 L693.58,470.84 L696.01,468.93 Z M643.08,350.07 L643.32,349.90 L638.93,337.57 L641.70,345.77 L643.08,350.07 Z M637.51,359.30 L638.03,358.02 L636.25,360.57 L637.51,359.30 Z M634.13,362.71 L634.89,361.94 L632.10,363.49 L634.13,362.71 Z M635.88,385.11 L636.02,376.90 L635.34,381.51 L635.88,385.11 Z M631.72,292.93 L631.28,294.70 L631.63,296.80 L631.72,292.93 Z M693.44,334.99 L692.81,336.10 L698.79,332.30 L693.44,334.99 Z M803.56,514.01 L816.07,521.79 L807.01,515.69 L803.56,514.01 Z M852.66,616.57 L853.95,615.85 L854.77,614.14 L852.66,616.57 Z M918.34,605.01 L916.24,608.13 L916.27,608.62 L918.34,605.01 Z M859.82,840.87 L847.66,840.13 L859.36,841.09 L859.82,840.87 Z M871.53,891.08 L870.50,891.41 L877.89,891.62 L871.53,891.08 Z M809.71,954.55 L798.08,960.89 L796.79,962.33 L809.71,954.55 Z M845.00,911.56 L841.37,908.98 L844.07,911.38 L845.00,911.56 Z M850.23,908.56 L846.17,911.78 L846.58,911.86 L850.23,908.56 Z M868.49,892.04 L866.60,896.05 L869.32,891.78 L868.49,892.04 Z M872.72,849.59 L871.67,850.07 L870.38,852.16 L872.72,849.59 Z M874.78,845.34 L874.03,848.15 L875.15,846.91 L874.85,846.96 L874.78,845.34 Z M931.73,865.28 L926.12,863.24 L925.37,863.52 L931.73,865.28 Z M795.07,369.08 L794.90,368.46 L793.07,367.62 L795.07,369.08 Z M796.69,370.27 L796.66,370.08 L796.40,370.06 L796.69,370.27 Z M813.57,369.84 L811.49,368.99 L809.38,368.82 L813.57,369.84 Z M838.12,393.19 L838.04,393.91 L841.77,391.15 L840.62,391.57 L838.12,393.19 Z M863.92,382.88 L863.87,382.29 L860.44,384.99 L863.92,382.88 Z M865.23,381.45 L865.32,381.15 L864.79,381.56 L865.23,381.45 Z M820.40,398.94 L820.26,402.77 L820.20,408.34 L820.40,398.94 Z M829.67,411.57 L827.44,413.28 L827.70,413.25 L829.67,411.57 Z M839.34,413.67 L836.57,415.34 L842.86,412.35 L839.34,413.67 Z M859.29,400.79 L856.92,398.40 L854.15,396.66 L858.41,400.01 L859.29,400.79 Z M910.83,503.57 L910.16,503.77 L909.81,504.26 L910.83,503.57 Z M809.71,441.63 L808.02,439.41 L806.93,439.07 L809.71,441.63 Z M799.09,461.26 L796.00,457.18 L796.25,458.09 L799.09,461.26 Z M832.71,402.11 L838.32,397.50 L837.58,397.86 L832.71,402.11 Z M863.95,409.48 L864.50,409.29 L866.66,399.54 L863.95,409.48 Z M820.87,317.81 L817.29,313.62 L820.13,317.45 L819.16,317.64 L820.87,317.81 Z M832.03,340.08 L827.77,332.48 L828.05,332.42 L823.65,325.41 L832.03,340.08 Z M837.99,360.32 L840.02,363.31 L837.72,359.42 L831.22,344.03 L837.99,360.32 Z M824.86,362.36 L829.14,363.30 L828.11,362.59 L824.86,362.36 Z M834.40,361.04 L832.24,363.07 L830.61,363.63 L831.63,363.85 L834.40,361.04 Z M850.97,368.40 L849.60,371.87 L850.97,369.96 L850.97,368.40 Z M859.90,361.70 L863.96,361.46 L864.44,361.11 L859.90,361.70 Z M865.65,360.22 L866.26,359.78 L866.38,359.35 L865.65,360.22 Z M835.69,277.58 L838.26,276.62 L838.74,275.98 L835.69,277.58 Z M761.50,190.71 L757.16,191.48 L759.80,191.36 L761.50,190.71 Z" /></g></svg>