<svg xmlns="http://www.w3.org/2000/svg" viewBox="0 0 1000 1000" width="1000" height="1000"><g fill="#cccccc" stroke="#222" stroke-width="2"><path d="M205.64,918.28 L187.65,920.87 L185.01,914.68 L185.86,909.74 L184.62,901.19 L180.74,894.06 L188.11,887.86 L193.39,888.02 L198.58,883.86 L198.51,881.67 L201.22,877.90 L207.89,874.30 L209.83,870.69 L209.37,865.44 L208.67,863.16 L204.25,858.85 L203.78,855.87 L198.04,851.48 L204.71,842.94 L208.05,842.15 L210.61,839.80 L209.75,836.43 L206.34,833.68 L201.45,832.12 L191.29,833.84 L184.78,828.98 L183.92,826.86 L189.66,818.16 L186.48,812.52 L177.87,809.14 L175.93,807.18 L171.43,807.42 L171.04,805.85 L164.45,800.60 L160.18,799.42 L153.98,793.86 L145.44,793.31 L140.32,786.72 L140.63,781.82 L131.33,781.08 L122.09,778.10 L117.75,769.00 L115.27,768.45 L108.13,758.03 L107.98,750.03 L109.30,748.15 L113.56,746.74 L119.46,740.70 L119.77,737.33 L122.41,734.97 L127.45,731.60 L125.82,730.27 L124.81,726.98 L118.06,725.17 L115.58,722.74 L112.32,722.67 L101.38,712.87 L96.96,701.18 L83.85,698.91 L81.68,697.03 L82.14,690.13 L87.03,683.39 L88.35,679.39 L86.41,672.72 L89.28,668.18 L89.13,661.35 L102.62,658.77 L109.22,659.71 L111.31,661.75 L116.51,661.90 L121.63,660.10 L118.91,648.81 L118.60,644.34 L119.69,641.99 L115.97,637.05 L116.82,631.95 L118.37,629.99 L107.20,627.88 L96.34,624.03 L82.14,613.21 L79.43,609.92 L80.05,608.59 L77.95,601.85 L74.70,597.85 L78.34,594.87 L78.19,593.77 L69.00,577.45 L63.14,578.40 L59.34,577.70 L56.85,579.58 L43.51,583.26 L38.70,582.87 L33.12,580.29 L24.27,572.44 L19.77,569.94 L19.23,569.07 L20.94,566.17 L20.24,564.53 L24.58,559.12 L24.35,554.88 L29.32,559.04 L33.19,567.90 L42.74,567.98 L44.75,568.45 L44.05,570.17 L47.93,571.19 L52.98,568.76 L53.83,565.62 L59.26,559.51 L63.84,558.57 L68.26,560.84 L69.50,560.37 L70.97,555.27 L73.69,554.18 L72.76,551.12 L75.01,548.77 L76.25,543.04 L78.27,540.85 L90.29,539.20 L80.36,540.46 L87.81,532.62 L112.17,522.97 L114.57,520.46 L116.43,521.09 L125.12,516.86 L127.37,513.96 L132.49,521.56 L127.60,514.19 L137.30,506.59 L141.10,500.86 L145.21,500.39 L147.23,495.77 L146.38,494.20 L157.70,491.85 L160.65,486.59 L162.67,485.57 L163.21,479.93 L166.39,478.05 L166.16,475.07 L171.43,467.31 L173.91,466.84 L176.32,462.84 L180.66,463.78 L186.33,456.96 L190.05,455.78 L184.54,455.07 L183.15,454.06 L183.84,451.78 L202.07,448.88 L202.46,446.22 L207.81,441.43 L211.07,443.08 L216.97,443.24 L217.51,442.30 L222.32,447.08 L225.81,456.33 L228.68,457.58 L228.76,462.60 L225.89,462.29 L226.67,464.25 L223.56,464.88 L224.26,467.07 L223.33,470.21 L225.73,470.83 L227.67,469.27 L231.40,469.74 L232.72,468.48 L236.13,472.01 L235.20,470.76 L238.69,466.68 L237.84,464.01 L239.39,464.01 L241.48,466.21 L241.02,464.25 L243.42,461.90 L242.18,460.72 L243.89,459.31 L241.64,457.19 L239.31,457.19 L238.61,455.70 L240.32,455.07 L239.31,453.04 L240.55,449.90 L241.56,450.21 L241.02,447.94 L242.88,448.25 L243.58,447.08 L245.28,449.04 L245.83,453.19 L249.01,455.47 L253.43,457.27 L258.01,455.23 L269.02,457.58 L276.39,463.07 L280.42,468.48 L280.80,470.38 L280.89,470.05 L285.00,468.25 L287.56,469.34 L289.50,467.23 L294.85,465.58 L305.09,462.68 L313.32,466.60 L316.26,465.74 L320.53,467.70 L328.68,465.42 L330.69,459.70 L328.21,455.07 L328.52,451.78 L321.77,444.49 L327.98,439.00 L332.17,437.51 L343.88,438.92 L346.75,437.28 L347.37,434.30 L352.26,428.57 L351.17,427.32 L352.57,426.85 L353.58,416.34 L356.91,413.68 L357.77,408.74 L363.12,401.05 L365.76,400.11 L370.57,401.76 L373.90,400.98 L377.78,396.35 L381.04,396.43 L382.90,393.92 L386.62,392.74 L388.64,389.53 L392.29,389.14 L396.63,386.71 L404.08,385.84 L410.75,388.35 L413.78,381.53 L419.52,375.89 L429.45,371.03 L430.38,366.71 L431.39,356.21 L427.35,351.35 L428.90,346.41 L427.43,345.31 L427.66,343.59 L423.24,343.11 L421.69,344.29 L417.42,343.35 L416.80,340.14 L414.86,338.41 L411.99,339.19 L408.35,337.16 L407.80,335.51 L410.67,333.63 L408.73,332.14 L409.74,329.47 L405.94,327.67 L403.23,328.14 L404.62,323.28 L403.61,320.46 L403.85,314.03 L402.60,311.91 L402.14,306.03 L400.04,301.72 L396.79,300.15 L395.93,297.09 L397.02,287.37 L396.24,283.53 L402.37,283.76 L396.48,283.53 L395.62,282.04 L390.89,281.02 L392.29,273.88 L389.81,271.14 L393.92,267.85 L392.37,264.40 L387.32,263.85 L385.54,260.79 L381.35,236.49 L382.98,234.76 L386.78,235.39 L396.55,234.06 L398.65,241.43 L400.59,242.21 L404.93,236.02 L407.96,235.62 L410.98,239.15 L411.29,233.04 L414.78,234.45 L418.20,231.23 L422.62,230.29 L424.56,225.75 L427.20,225.43 L428.36,229.67 L431.54,229.35 L433.79,228.02 L438.13,228.72 L441.47,226.06 L440.15,221.75 L444.19,213.36 L442.25,209.28 L445.04,204.18 L443.25,198.77 L444.57,195.87 L448.30,193.76 L449.54,190.23 L455.20,185.99 L459.16,186.54 L464.59,184.98 L471.34,188.74 L470.72,193.91 L475.29,193.21 L475.37,196.11 L479.17,197.28 L476.69,201.05 L479.79,204.03 L483.05,203.24 L487.01,204.97 L494.69,208.50 L495.62,207.87 L497.94,198.77 L495.00,196.19 L494.53,193.05 L496.47,192.66 L501.44,185.13 L503.06,179.10 L502.06,175.88 L503.22,175.25 L506.56,169.22 L509.35,169.69 L519.98,165.22 L525.41,169.45 L527.50,168.12 L533.55,167.57 L534.71,159.26 L539.21,156.52 L544.49,157.22 L554.57,155.10 L562.87,144.68 L567.37,143.81 L568.85,142.09 L573.19,137.23 L575.05,132.21 L579.94,132.45 L581.18,130.09 L582.81,129.70 L583.20,126.25 L585.14,126.64 L586.69,125.00 L589.79,124.60 L590.80,122.10 L595.45,122.14 L593.67,121.63 L595.30,118.88 L600.03,117.47 L603.76,120.45 L606.55,119.74 L607.95,120.61 L607.71,121.86 L610.12,122.02 L611.82,124.53 L614.77,125.55 L614.62,128.84 L611.51,130.80 L612.68,132.68 L617.49,131.90 L618.96,134.17 L623.46,133.15 L626.02,130.56 L628.19,130.25 L633.86,127.19 L634.09,125.39 L640.29,126.02 L640.76,124.06 L645.18,121.00 L647.51,121.94 L651.39,118.88 L656.43,117.63 L658.06,113.94 L660.31,113.63 L662.71,109.63 L665.66,107.98 L666.36,106.26 L665.35,104.85 L669.62,104.38 L669.54,100.54 L675.67,101.95 L676.99,109.32 L680.48,107.98 L680.52,108.52 L687.30,106.02 L690.25,108.45 L689.17,110.41 L690.33,112.77 L694.91,113.63 L697.00,113.39 L699.25,118.02 L702.90,116.37 L703.75,123.12 L702.97,116.92 L708.09,115.43 L711.04,117.47 L711.51,122.64 L713.60,121.23 L715.85,122.25 L719.73,119.04 L718.88,116.92 L720.74,113.16 L720.35,110.02 L724.10,109.96 L723.53,109.47 L721.05,105.87 L718.26,104.85 L719.34,103.36 L718.41,102.10 L722.14,99.67 L726.87,99.12 L729.97,92.30 L729.89,84.07 L734.70,81.80 L736.33,77.25 L736.25,76.07 L733.62,74.43 L733.62,71.06 L729.89,65.65 L735.79,58.04 L742.07,58.04 L747.58,60.31 L755.80,58.35 L758.75,50.28 L758.83,45.34 L762.71,44.01 L767.59,36.71 L770.31,35.46 L770.23,33.42 L774.65,27.38 L778.53,26.13 L785.13,19.39 L787.76,19.23 L792.19,26.29 L804.60,35.93 L807.08,39.46 L808.24,43.93 L807.31,49.02 L808.17,55.85 L810.88,60.16 L821.74,72.39 L822.59,75.84 L832.83,83.05 L835.08,80.23 L847.42,94.89 L855.18,101.48 L860.22,103.20 L862.31,103.12 L868.75,98.03 L866.27,94.42 L868.83,89.64 L872.40,89.24 L872.94,90.97 L877.98,91.68 L877.36,93.17 L880.31,94.81 L882.02,97.63 L881.86,102.26 L885.04,108.30 L893.81,115.67 L902.50,129.78 L905.68,132.92 L908.39,133.62 L909.63,135.74 L913.05,140.44 L913.36,143.03 L918.01,144.60 L916.85,153.54 L919.41,156.12 L920.26,160.51 L921.89,162.16 L921.11,165.92 L922.28,167.81 L932.91,172.90 L936.71,172.59 L941.98,178.00 L944.31,178.86 L955.56,174.86 L960.91,178.78 L964.79,180.04 L967.04,186.23 L968.59,187.17 L967.74,189.44 L970.53,194.62 L977.67,200.66 L980.77,200.50 L980.23,206.85 L977.98,208.50 L979.37,210.14 L972.78,214.22 L975.03,220.18 L974.18,222.30 L969.68,225.98 L973.79,231.70 L973.63,233.27 L968.59,234.06 L964.17,239.39 L955.01,241.27 L947.72,239.31 L944.62,241.97 L938.57,258.13 L935.78,261.55 L936.71,261.26 L939.11,264.48 L939.27,267.30 L933.91,272.16 L933.37,274.98 L929.88,279.37 L930.11,285.80 L927.86,287.13 L926.62,290.43 L926.47,293.80 L921.66,295.92 L919.10,300.70 L919.41,303.13 L916.77,308.93 L917.24,312.62 L913.74,319.52 L903.19,321.40 L898.93,320.85 L895.67,323.91 L891.25,322.89 L884.03,327.28 L882.09,327.36 L878.29,323.75 L871.78,324.85 L866.27,327.75 L860.30,325.40 L856.11,330.49 L850.83,330.41 L845.32,333.31 L839.35,332.69 L835.08,334.49 L826.32,334.49 L822.36,339.19 L816.00,342.80 L815.15,348.52 L817.55,351.03 L818.41,354.01 L816.16,357.38 L816.00,360.21 L818.17,364.44 L816.54,367.11 L817.47,369.93 L816.47,373.69 L812.66,376.91 L809.41,376.67 L803.67,379.10 L796.06,378.87 L784.51,374.16 L793.81,378.32 L792.88,379.96 L793.74,382.71 L791.10,386.79 L788.31,387.96 L785.98,392.43 L777.99,392.90 L777.21,394.63 L773.96,395.65 L774.58,398.31 L771.94,403.88 L773.57,413.44 L771.08,417.99 L771.71,423.56 L767.21,424.42 L757.97,421.75 L753.94,422.85 L748.20,421.60 L739.20,417.21 L735.63,415.48 L743.00,419.71 L744.01,423.48 L742.15,431.63 L747.50,432.89 L753.09,439.16 L768.84,439.55 L774.89,444.65 L779.23,445.04 L783.88,448.25 L786.75,448.33 L787.84,453.98 L789.78,457.43 L801.96,461.50 L802.66,468.25 L806.15,473.19 L813.91,470.44 L824.69,474.36 L831.98,473.89 L836.01,475.85 L843.93,486.67 L851.06,488.47 L856.65,494.35 L863.86,495.45 L862.55,498.90 L865.18,502.35 L868.52,501.65 L880.23,505.57 L882.17,508.00 L884.65,515.68 L893.26,517.09 L895.51,518.66 L898.23,517.88 L901.33,518.82 L899.39,522.89 L906.92,531.67 L904.20,539.83 L905.13,547.36 L908.31,551.35 L909.25,554.57 L913.20,555.98 L916.61,555.67 L919.41,558.96 L923.67,560.92 L924.99,563.19 L924.84,566.41 L920.18,570.48 L913.82,582.48 L914.52,584.60 L918.71,588.20 L921.04,593.54 L921.73,596.83 L919.33,598.63 L918.55,605.06 L921.50,610.47 L922.12,615.64 L918.79,620.74 L912.81,625.84 L905.75,624.19 L902.96,627.33 L895.28,629.99 L892.72,633.13 L885.12,634.62 L886.91,631.68 L886.36,631.17 L884.65,632.58 L883.49,632.19 L884.27,630.38 L882.02,630.62 L881.09,633.05 L882.09,634.46 L878.91,637.21 L878.60,632.50 L874.72,633.52 L875.42,636.74 L862.55,631.09 L853.62,629.44 L848.50,621.05 L844.24,617.29 L840.67,616.19 L833.22,618.23 L818.87,611.65 L829.11,607.41 L816.31,612.27 L813.60,609.14 L789.39,607.96 L783.50,612.27 L786.68,616.19 L783.73,618.86 L785.36,621.76 L780.86,624.43 L779.46,633.21 L778.14,633.36 L776.83,628.42 L774.34,627.64 L757.04,626.62 L754.48,625.29 L757.04,618.55 L756.66,614.86 L753.71,611.49 L745.56,601.92 L738.81,602.39 L730.28,598.08 L725.39,602.24 L723.61,596.75 L718.57,592.83 L714.38,591.03 L704.60,592.12 L699.72,589.07 L698.40,584.05 L695.22,579.58 L685.75,579.27 L678.93,576.29 L670.55,574.95 L666.82,569.62 L660.08,568.84 L650.77,563.66 L648.98,567.74 L643.09,572.37 L640.14,581.15 L640.60,583.97 L637.27,584.60 L637.04,586.32 L643.86,590.16 L644.17,596.44 L650.22,600.83 L651.39,607.33 L657.21,615.17 L654.88,617.45 L658.14,619.64 L659.45,622.94 L653.79,625.68 L652.09,623.49 L646.50,620.35 L644.48,623.56 L643.63,629.99 L638.90,631.87 L633.93,636.50 L636.26,644.73 L639.44,646.93 L638.90,649.04 L631.53,652.18 L630.05,656.89 L626.49,657.67 L623.93,659.94 L628.81,665.98 L629.74,669.27 L628.97,674.92 L633.00,682.37 L634.48,690.83 L629.05,707.46 L618.88,726.04 L620.28,727.06 L623.07,731.13 L620.82,739.05 L622.06,741.72 L621.83,746.11 L626.64,749.71 L627.03,752.69 L623.62,755.83 L617.87,757.63 L613.76,762.10 L603.14,766.49 L605.54,770.96 L610.19,774.10 L613.14,780.45 L613.92,785.70 L610.35,794.01 L607.09,795.58 L607.17,798.95 L605.39,801.23 L598.95,799.58 L595.84,800.28 L594.14,802.09 L594.14,806.09 L592.66,807.03 L592.12,811.03 L598.87,819.18 L601.20,824.35 L600.19,833.21 L594.84,834.55 L593.05,833.06 L591.34,833.61 L580.25,830.47 L577.30,831.49 L573.11,830.47 L561.32,833.45 L571.02,831.18 L567.61,833.92 L567.30,835.49 L570.79,836.59 L573.66,840.98 L575.83,847.41 L580.79,849.21 L583.74,852.11 L582.27,852.50 L582.89,855.09 L581.49,857.68 L582.11,865.52 L574.82,864.81 L570.17,866.46 L570.86,869.36 L569.78,870.77 L572.42,872.10 L573.58,874.61 L574.05,880.02 L572.88,884.41 L559.69,888.33 L556.36,891.94 L551.63,894.21 L548.76,900.17 L546.51,901.43 L543.17,900.95 L541.62,896.88 L541.39,890.92 L538.36,888.17 L539.83,887.23 L540.22,882.37 L542.32,879.63 L539.83,876.49 L532.70,873.98 L530.84,869.20 L531.53,867.32 L530.53,864.03 L526.34,862.62 L523.23,857.13 L520.29,855.79 L509.50,860.66 L503.22,860.89 L500.66,859.24 L496.78,859.17 L491.04,854.30 L488.33,849.52 L481.42,850.31 L479.79,849.13 L472.97,849.37 L467.15,843.88 L464.74,837.29 L457.92,836.99 L457.76,841.60 L454.89,845.45 L455.59,851.95 L451.01,856.50 L456.36,863.24 L465.91,865.12 L471.49,871.79 L469.63,877.83 L474.05,881.12 L474.52,883.00 L473.04,884.10 L468.93,882.77 L466.29,885.90 L466.29,888.88 L464.59,890.21 L462.26,894.76 L453.96,894.21 L451.48,896.41 L451.63,898.99 L461.95,906.36 L464.12,913.50 L470.64,917.42 L472.11,922.20 L469.09,923.53 L467.30,925.89 L466.68,932.86 L468.39,933.34 L467.15,937.26 L468.85,941.33 L466.29,945.10 L462.18,943.14 L460.48,945.17 L461.10,949.88 L458.69,950.11 L457.45,952.00 L453.88,961.80 L455.59,964.62 L453.03,967.44 L449.54,964.85 L447.52,965.72 L445.97,964.62 L444.50,966.11 L441.86,964.93 L438.21,957.25 L439.69,956.23 L438.83,953.09 L430.30,952.07 L427.43,956.39 L424.64,955.05 L422.77,962.11 L418.43,965.56 L416.18,965.72 L410.98,969.79 L407.41,969.24 L403.77,971.75 L401.91,968.70 L393.84,965.17 L395.08,966.42 L395.08,969.71 L391.82,972.07 L390.50,975.28 L380.19,977.40 L376.07,975.52 L367.54,975.52 L364.75,976.69 L364.90,980.53 L362.11,980.77 L351.87,977.79 L350.55,975.44 L346.83,974.97 L346.44,963.83 L343.11,965.32 L338.99,964.23 L335.11,965.40 L332.32,959.37 L329.53,957.64 L329.37,955.68 L325.88,957.01 L322.16,955.13 L320.53,946.19 L318.90,941.65 L325.96,933.96 L324.88,930.98 L325.50,924.24 L323.25,918.44 L321.00,917.03 L320.45,913.11 L321.46,910.83 L315.64,905.97 L307.96,905.89 L306.88,904.09 L303.00,903.78 L292.29,905.82 L284.85,903.15 L284.38,900.17 L279.65,893.74 L276.62,894.21 L275.30,896.33 L272.20,896.33 L264.44,890.92 L260.49,891.23 L257.93,893.74 L247.69,885.67 L238.84,885.74 L236.21,882.37 L232.48,881.90 L229.15,884.02 L220.61,897.66 L217.28,899.62 L214.25,903.93 L214.41,913.66 L208.90,913.19 L205.64,918.28 Z M129.23,734.43 L126.98,734.50 L122.41,734.97 L129.23,734.43 Z M231.32,473.97 L235.35,472.95 L236.13,472.01 L231.32,473.97 Z M789.94,602.24 L789.26,600.90 L789.39,607.96 L789.94,602.24 Z M481.34,438.53 L489.95,443.47 L482.38,438.31 L481.34,438.53 Z M389.26,523.99 L388.41,521.64 L386.16,518.27 L389.26,523.99 Z M464.82,559.82 L464.59,553.71 L463.73,548.53 L464.82,559.82 Z M490.99,566.92 L487.24,563.04 L483.36,559.66 L490.99,566.92 Z M530.33,494.13 L531.53,490.91 L530.06,493.26 L530.33,494.13 Z M519.51,479.85 L515.17,475.69 L521.76,482.12 L524.71,483.22 L519.51,479.85 Z M540.22,483.69 L540.48,484.32 L540.40,482.88 L540.22,483.69 Z M552.32,495.06 L553.02,495.54 L552.35,494.05 L552.32,495.06 Z M563.03,502.43 L560.24,499.61 L557.93,498.92 L563.03,502.43 Z M579.16,584.36 L576.84,581.93 L564.12,574.88 L579.16,584.36 Z M575.36,603.49 L581.34,603.34 L574.32,602.92 L575.36,603.49 Z M558.61,618.31 L556.89,619.56 L559.52,618.21 L558.61,618.31 Z M553.33,622.15 L549.92,625.76 L554.81,621.08 L553.33,622.15 Z M548.68,632.27 L548.73,632.55 L549.92,625.76 L548.68,632.27 Z M537.74,673.58 L536.27,670.92 L533.47,668.41 L537.74,673.58 Z M536.51,676.07 L537.27,675.31 L537.74,673.58 L536.51,676.07 Z M533.71,677.90 L531.38,681.19 L535.26,677.32 L533.71,677.90 Z M580.33,703.77 L577.23,690.36 L576.01,687.85 L580.33,703.77 Z M576.37,706.98 L573.35,714.20 L575.98,708.16 L577.78,706.35 L576.37,706.98 Z M577.07,749.48 L576.45,750.73 L578.12,748.66 L577.07,749.48 Z M456.97,418.41 L461.33,417.99 L457.68,417.60 L456.97,418.41 Z M269.94,490.45 L276.62,481.42 L270.03,489.73 L269.94,490.45 Z M298.81,523.44 L298.21,523.47 L299.78,524.81 L298.81,523.44 Z M300.12,531.02 L300.58,529.15 L299.97,529.95 L300.12,531.02 Z M320.54,747.84 L321.40,751.47 L322.24,749.42 L321.46,750.34 L320.54,747.84 Z M316.29,733.68 L317.19,734.63 L317.12,733.49 L316.29,733.68 Z M292.68,812.71 L288.93,812.45 L290.20,812.75 L292.68,812.71 Z M295.78,811.97 L294.63,812.68 L298.48,812.62 L295.78,811.97 Z M305.48,814.32 L303.79,813.91 L308.97,815.81 L305.48,814.32 Z M304.16,819.57 L309.13,816.36 L312.62,819.49 L308.97,815.81 L304.16,819.57 Z M344.50,828.25 L344.89,825.37 L344.35,828.04 L344.50,828.25 Z M351.25,831.96 L345.21,829.18 L345.82,830.00 L351.25,831.96 Z M377.47,841.68 L372.97,844.66 L372.04,845.68 L377.47,841.68 Z M430.07,856.97 L429.68,856.56 L428.99,858.87 L430.07,856.97 Z M260.60,798.46 L260.60,798.45 L255.53,794.65 L257.62,797.15 L260.60,798.46 Z M94.76,550.07 L94.79,551.98 L95.22,552.45 L94.76,550.07 Z M96.38,553.72 L96.48,553.82 L96.58,553.68 L96.38,553.72 Z M110.69,559.59 L107.74,556.06 L108.98,558.49 L112.94,562.01 L110.69,559.59 Z M116.92,565.55 L120.46,568.71 L120.16,567.51 L116.92,565.55 Z M121.45,569.59 L122.02,570.09 L124.19,569.47 L121.45,569.59 Z M129.16,571.18 L129.85,571.43 L137.92,567.19 L129.16,571.18 Z M173.91,573.93 L174.96,574.57 L174.85,574.40 L173.91,573.93 Z M206.26,559.12 L211.85,570.01 L213.17,572.44 L207.50,560.84 L206.26,559.12 Z M242.26,589.54 L244.77,587.82 L243.73,587.89 L242.26,589.54 Z M248.54,569.54 L252.19,559.90 L252.34,557.63 L248.54,569.54 Z M263.05,839.56 L262.66,840.04 L263.05,840.58 L263.05,839.56 Z M290.59,850.70 L299.51,855.40 L294.93,852.50 L290.59,850.70 Z M219.84,616.90 L221.13,618.67 L220.00,615.63 L219.84,616.90 Z M241.40,642.54 L242.68,642.76 L236.36,638.30 L241.40,642.54 Z M192.14,762.95 L190.33,762.02 L190.90,762.65 L192.14,762.95 Z M240.71,787.58 L245.13,786.88 L242.49,786.72 L240.71,787.58 Z M222.17,862.54 L218.37,862.30 L213.48,862.07 L222.17,862.54 Z M206.11,770.81 L203.24,769.86 L206.10,771.69 L206.11,770.81 Z M162.20,717.96 L168.48,714.17 L166.55,714.59 L162.20,717.96 Z M173.25,698.28 L173.45,697.89 L171.98,693.34 L173.25,698.28 Z M169.65,690.76 L163.91,686.68 L171.98,693.34 L169.65,690.76 Z M273.00,680.11 L273.83,680.56 L279.03,681.82 L273.00,680.11 Z M231.40,756.54 L230.42,757.92 L233.05,756.19 L231.40,756.54 Z M154.37,600.36 L147.93,600.28 L158.55,601.38 L154.37,600.36 Z M75.67,574.01 L75.67,574.01 L80.28,576.84 L75.67,574.01 Z M173.43,602.72 L174.07,603.57 L185.24,604.83 L173.43,602.72 Z M90.37,555.82 L95.49,555.20 L96.17,554.25 L90.37,555.82 Z M176.09,482.83 L179.81,483.61 L174.39,481.37 L176.09,482.83 Z M182.06,482.12 L186.79,478.44 L179.81,483.61 L182.06,482.12 Z M218.37,508.15 L219.20,508.35 L217.59,506.43 L218.37,508.15 Z M220.23,509.64 L220.28,509.63 L220.24,509.58 L220.23,509.64 Z M222.79,508.47 L221.47,509.42 L223.72,509.02 L221.93,510.74 L225.81,508.47 L222.79,508.47 Z M230.88,478.94 L229.61,477.66 L230.49,479.32 L230.88,478.94 Z M199.90,538.34 L186.71,541.08 L190.98,541.16 L190.13,540.46 L199.90,538.34 Z M231.17,529.58 L231.71,527.91 L232.08,527.90 L231.44,527.25 L231.17,529.58 Z M240.76,527.07 L235.70,527.77 L240.47,527.60 L240.76,527.07 Z M242.03,526.89 L241.75,526.93 L249.39,530.58 L242.03,526.89 Z M211.36,535.07 L211.38,536.77 L212.52,538.45 L211.36,535.07 Z M230.23,537.48 L231.16,535.91 L230.62,534.18 L230.23,537.48 Z M242.10,508.39 L246.92,507.88 L246.29,507.53 L242.10,508.39 Z M327.24,896.64 L324.78,896.51 L325.96,897.03 L327.24,896.64 Z M414.90,920.34 L413.49,916.75 L413.93,919.69 L411.06,918.99 L414.90,920.34 Z M416.94,920.34 L415.52,920.56 L416.41,920.87 L416.94,920.34 Z M357.61,891.55 L359.09,893.74 L358.05,890.52 L357.61,891.55 Z M364.59,896.17 L366.90,896.12 L359.09,893.74 L364.59,896.17 Z M369.43,896.06 L371.42,896.02 L379.25,893.90 L369.43,896.06 Z M390.31,897.74 L391.59,898.45 L394.15,897.74 L390.31,897.74 Z M311.10,870.97 L313.08,872.02 L313.78,871.67 L311.10,870.97 Z M332.01,862.93 L335.66,870.30 L331.67,861.48 L332.01,862.93 Z M442.71,704.08 L440.69,703.22 L445.43,706.75 L442.71,704.08 Z M413.70,734.43 L413.65,734.45 L419.90,733.09 L413.70,734.43 Z M441.78,730.90 L444.65,730.19 L447.68,727.92 L441.78,730.90 Z M452.49,785.07 L457.22,785.07 L456.67,784.37 L452.49,785.07 Z M458.30,786.49 L459.70,790.72 L458.30,786.49 L458.30,786.49 Z M332.94,616.43 L332.56,609.53 L332.56,616.98 L332.94,616.43 Z M349.54,603.81 L351.10,602.71 L334.49,606.71 L349.54,603.81 Z M357.15,600.98 L347.60,598.71 L351.10,600.04 L357.15,600.98 Z M329.30,766.65 L322.78,759.28 L325.96,763.91 L329.30,766.65 Z M352.34,750.97 L344.42,754.65 L357.59,749.53 L352.34,750.97 Z M373.90,740.07 L364.07,747.00 L365.37,746.50 L373.90,740.07 Z M406.83,788.95 L404.47,788.05 L406.83,788.95 L406.83,788.95 Z M317.04,765.87 L313.24,767.28 L313.35,767.77 L317.04,765.87 Z M353.66,781.70 L355.83,786.96 L354.03,780.93 L353.66,781.70 Z M398.80,744.15 L407.33,737.99 L403.46,740.15 L398.80,744.15 Z M366.69,719.53 L364.60,715.65 L364.75,716.94 L366.69,719.53 Z M311.92,630.70 L313.52,629.60 L306.80,631.01 L311.92,630.70 Z M318.28,629.52 L317.03,627.37 L317.03,627.37 L318.28,629.52 Z M322.94,621.76 L318.35,626.12 L326.81,619.25 L322.94,621.76 Z M324.64,543.67 L325.51,549.45 L325.88,548.77 L325.03,544.85 L328.83,546.65 L324.64,543.67 Z M368.01,562.41 L372.97,565.07 L366.14,561.15 L368.01,562.41 Z M302.53,514.11 L305.48,512.00 L305.61,511.35 L302.53,514.11 Z M307.53,504.63 L308.82,502.69 L307.81,503.45 L307.53,504.63 Z M311.23,500.88 L322.08,500.31 L311.76,500.47 L311.23,500.88 Z M364.87,478.53 L367.21,478.01 L365.14,478.13 L364.87,478.53 Z M325.34,512.47 L330.69,510.58 L324.56,512.46 L325.34,512.47 Z M446.59,423.16 L453.18,418.77 L448.76,420.81 L446.59,423.16 Z M469.05,753.38 L467.07,754.58 L467.02,755.28 L469.05,753.38 Z M535.88,832.74 L540.76,833.38 L538.90,832.67 L535.88,832.74 Z M542.87,834.19 L551.39,840.11 L544.02,834.63 L542.87,834.19 Z M471.18,642.91 L465.83,644.89 L470.33,643.95 L471.18,642.91 Z M478.71,630.07 L473.03,640.63 L473.90,639.56 L478.71,630.07 Z M494.76,645.28 L496.78,642.77 L492.82,646.14 L489.26,648.50 L494.76,645.28 Z M476.38,683.31 L475.37,686.29 L473.15,690.32 L474.90,688.48 L476.38,683.31 Z M522.46,709.57 L520.67,711.69 L525.02,708.08 L522.46,709.57 Z M513.45,715.55 L512.61,717.02 L513.19,718.36 L513.45,715.55 Z M444.81,710.83 L447.13,712.24 L449.93,712.24 L444.81,710.83 Z M458.38,709.26 L457.62,710.59 L459.43,708.25 L458.38,709.26 Z M467.53,681.19 L470.79,673.51 L468.70,677.11 L467.53,681.19 Z M499.39,595.96 L498.95,595.97 L498.37,596.93 L499.39,595.96 Z M525.56,552.30 L525.72,568.68 L525.02,575.66 L526.18,564.21 L525.56,552.30 Z M451.24,308.93 L446.53,310.22 L461.48,308.23 L451.24,308.93 Z M548.21,174.55 L546.04,169.69 L546.82,172.27 L548.21,174.55 Z M609.05,189.04 L605.54,187.41 L608.72,189.29 L609.05,189.04 Z M647.59,153.38 L647.97,156.67 L649.40,158.50 L647.59,153.38 Z M684.82,178.70 L683.77,177.90 L685.52,180.66 L684.82,178.70 Z M704.37,192.66 L695.22,191.48 L710.42,194.54 L704.37,192.66 Z M718.02,204.42 L717.17,202.38 L718.16,205.27 L718.02,204.42 Z M725.80,280.42 L727.64,277.88 L725.78,279.37 L725.80,280.42 Z M728.88,291.06 L725.81,280.89 L725.86,283.76 L728.88,291.06 Z M734.24,303.60 L733.61,301.96 L733.38,305.72 L734.24,303.60 Z M742.61,356.60 L742.23,352.60 L742.50,356.84 L742.61,356.60 Z M728.30,376.11 L732.06,366.48 L728.73,373.54 L728.30,376.11 Z M728.42,501.72 L728.57,501.59 L722.91,502.12 L728.42,501.72 Z M764.94,527.64 L763.95,523.76 L764.57,527.52 L764.94,527.64 Z M757.20,556.69 L756.27,558.25 L757.82,556.29 L756.32,556.58 L757.20,556.69 Z M772.02,600.67 L770.08,594.48 L772.64,603.10 L772.02,600.67 Z M616.97,203.87 L616.63,204.73 L617.46,206.21 L616.97,203.87 Z M617.89,208.29 L617.48,208.76 L617.95,208.57 L617.89,208.29 Z M567.61,223.47 L565.59,223.08 L572.11,225.27 L567.61,223.47 Z M576.61,375.65 L575.52,379.18 L575.36,385.61 L576.61,375.65 Z M567.14,431.48 L561.79,427.24 L567.29,431.73 L567.14,431.48 Z M548.14,428.81 L543.95,427.01 L542.83,427.31 L548.14,428.81 Z M542.42,427.42 L541.93,427.56 L543.33,429.75 L542.42,427.42 Z M539.16,430.77 L537.45,430.60 L538.21,431.01 L539.16,430.77 Z M545.42,445.38 L545.03,445.82 L545.21,446.51 L545.42,445.38 Z M544.55,450.08 L543.86,451.54 L544.32,451.37 L544.55,450.08 Z M538.36,460.25 L538.59,463.54 L539.60,467.93 L538.36,460.25 Z M512.14,279.29 L513.99,278.92 L508.56,278.02 L512.14,279.29 Z M562.72,346.25 L565.13,349.87 L560.00,339.51 L562.72,346.25 Z M504.54,453.04 L503.30,454.29 L506.17,452.17 L504.54,453.04 Z M513.92,460.09 L507.95,456.64 L510.43,458.45 L513.92,460.09 Z M447.14,489.74 L448.92,491.14 L450.74,491.36 L447.14,489.74 Z M453.00,491.63 L454.19,491.77 L456.98,489.81 L453.00,491.63 Z M489.72,511.05 L491.47,511.96 L489.72,510.91 L489.72,511.05 Z M521.93,450.04 L522.23,449.74 L522.77,447.86 L521.93,450.04 Z M542.27,452.12 L534.48,449.59 L541.46,452.41 L542.27,452.12 Z M487.61,407.86 L488.40,407.95 L489.64,406.54 L487.61,407.86 Z M530.68,429.91 L528.59,430.61 L532.76,430.12 L530.68,429.91 Z M522.54,455.86 L520.36,454.13 L522.80,457.28 L522.54,455.86 Z M519.12,373.46 L517.96,369.22 L520.29,379.73 L519.12,373.46 Z M511.75,359.27 L515.48,366.95 L510.56,355.44 L511.75,359.27 Z M481.50,254.52 L484.68,260.24 L494.45,272.55 L490.50,267.46 L481.50,254.52 Z M472.97,247.85 L479.25,254.13 L472.86,247.39 L472.97,247.85 Z M664.03,354.80 L654.65,356.52 L651.31,357.46 L664.03,354.80 Z M694.83,353.78 L693.35,353.39 L689.53,353.95 L694.83,353.78 Z M695.45,358.48 L699.79,359.89 L695.40,358.07 L695.45,358.48 Z M704.76,359.34 L706.93,358.56 L699.79,359.89 L704.76,359.34 Z M706.00,317.48 L707.43,317.57 L704.68,316.51 L706.00,317.48 Z M578.47,464.48 L573.04,468.56 L575.21,467.46 L578.47,464.48 Z M654.72,462.92 L647.43,458.76 L649.06,460.41 L654.72,462.92 Z M616.41,549.74 L617.18,550.26 L617.46,550.04 L616.41,549.74 Z M618.43,549.29 L627.49,542.34 L619.27,547.75 L618.43,549.29 Z M620.76,505.31 L635.41,511.84 L621.75,505.33 L620.76,505.31 Z M642.73,513.61 L641.22,512.70 L635.41,511.84 L642.73,513.61 Z M593.79,495.90 L595.77,496.94 L597.71,498.20 L594.29,495.77 L593.79,495.90 Z M591.03,364.52 L590.56,360.73 L589.87,361.38 L591.03,364.52 Z M591.26,360.06 L599.26,358.48 L591.34,359.97 L591.26,360.06 Z M678.15,318.42 L678.69,319.52 L678.69,315.20 L678.15,318.42 Z M602.83,266.28 L602.20,253.97 L602.28,267.28 L602.83,266.28 Z M636.03,267.38 L635.85,268.30 L636.63,266.58 L636.03,267.38 Z M641.61,260.01 L638.75,263.79 L639.75,263.30 L641.61,260.01 Z M691.00,248.05 L683.12,246.76 L690.25,248.48 L691.00,248.05 Z M694.13,248.56 L693.05,248.38 L697.85,251.15 L694.13,248.56 Z M680.93,269.05 L680.87,269.57 L681.76,269.65 L680.93,269.05 Z M682.91,269.76 L685.08,269.95 L684.12,269.42 L682.91,269.76 Z M690.25,259.54 L686.22,270.59 L686.00,270.47 L685.52,273.65 L690.25,259.54 Z M704.91,290.27 L708.67,286.82 L708.25,286.74 L704.91,290.27 Z M709.42,286.97 L709.66,287.62 L709.88,287.06 L709.42,286.97 Z M653.82,302.59 L652.09,301.48 L651.21,302.08 L653.82,302.59 Z M657.83,307.52 L655.65,303.76 L654.41,302.96 L657.83,307.52 Z M670.24,238.05 L659.84,227.94 L661.39,229.98 L670.24,238.05 Z M633.08,216.42 L637.35,217.67 L639.83,217.67 L633.08,216.42 Z M643.55,221.12 L647.97,221.98 L649.69,221.26 L643.55,221.12 Z M651.99,221.31 L653.25,221.82 L657.52,221.43 L651.99,221.31 Z M715.27,219.44 L716.84,216.66 L715.15,218.92 L715.27,219.44 Z M719.00,212.81 L719.26,212.34 L719.14,211.53 L719.00,212.81 Z M670.54,201.66 L669.85,198.77 L666.44,193.91 L670.54,201.66 Z M647.82,176.43 L647.62,174.81 L646.97,177.76 L647.82,176.43 Z M647.04,170.16 L646.76,169.57 L647.09,170.58 L647.04,170.16 Z M745.95,123.61 L750.29,124.13 L747.73,123.35 L745.95,123.61 Z M734.24,139.03 L738.81,140.91 L732.71,138.01 L735.21,141.33 L734.24,139.03 Z M736.58,144.58 L735.63,152.91 L736.95,145.46 L736.58,144.58 Z M736.72,176.66 L737.73,176.98 L739.31,176.25 L736.72,176.66 Z M666.51,135.82 L665.43,138.80 L666.59,137.70 L666.51,135.82 Z M684.12,148.67 L678.71,146.65 L679.62,147.58 L684.12,148.67 Z M710.73,143.66 L708.19,146.94 L713.35,141.75 L710.73,143.66 Z M585.71,159.91 L587.85,156.52 L587.92,155.51 L585.76,158.40 L585.71,159.91 Z M584.88,161.23 L583.90,161.53 L581.18,167.10 L584.88,161.23 Z M635.02,142.56 L635.26,143.02 L634.32,138.56 L635.02,142.56 Z M636.32,145.03 L639.52,151.11 L637.27,145.77 L636.32,145.03 Z M790.67,231.58 L791.10,231.15 L791.41,230.06 L790.67,231.58 Z M892.88,272.32 L896.29,277.73 L896.90,278.03 L892.88,272.32 Z M822.08,297.17 L833.45,313.32 L822.28,297.25 L822.08,297.17 Z M881.53,287.11 L882.48,283.29 L881.40,285.33 L881.53,287.11 Z M829.50,289.57 L831.46,287.20 L824.71,292.42 L829.50,289.57 Z M787.53,154.79 L795.68,149.62 L786.75,155.10 L787.53,154.79 Z M828.10,185.52 L829.61,184.96 L826.40,184.78 L828.10,185.52 Z M832.83,185.45 L837.80,185.45 L832.38,185.13 L832.83,185.45 Z M848.89,184.35 L862.31,189.05 L850.21,184.19 L837.80,185.45 L848.89,184.35 Z M865.88,191.72 L869.37,184.90 L866.81,189.05 L865.88,191.72 Z M871.08,213.59 L877.83,215.79 L888.69,219.00 L871.08,213.59 Z M928.02,194.85 L927.36,194.66 L928.32,195.63 L928.02,194.85 Z M890.08,243.07 L889.31,245.89 L889.90,246.63 L890.08,243.07 Z M895.82,242.21 L893.07,236.98 L892.80,237.74 L895.82,242.21 Z M933.14,262.36 L933.52,262.24 L932.76,262.05 L933.14,262.36 Z M771.16,209.52 L771.86,206.46 L769.84,214.46 L771.16,209.52 Z M776.13,216.49 L775.35,215.63 L769.84,214.46 L776.13,216.49 Z M786.25,188.34 L786.99,187.48 L787.07,186.15 L786.25,188.34 Z M812.66,203.56 L817.09,202.77 L819.14,201.21 L812.66,203.56 Z M820.22,200.40 L820.81,199.95 L822.67,193.76 L820.22,200.40 Z M757.01,137.18 L755.93,139.33 L757.12,138.48 L757.01,137.18 Z M759.99,135.66 L769.15,134.33 L757.97,135.27 L757.75,135.72 L759.99,135.66 Z M788.85,108.53 L785.82,116.92 L788.31,111.59 L788.85,108.53 Z M796.62,114.35 L795.46,114.23 L795.75,114.33 L796.62,114.35 Z M806.98,115.44 L808.63,116.37 L820.73,117.00 L831.36,119.82 L824.77,117.31 L806.98,115.44 Z M835.78,119.67 L838.12,118.68 L831.36,119.82 L835.78,119.67 Z M827.95,142.25 L827.60,141.92 L829.11,146.87 L827.95,142.25 Z M828.02,150.56 L828.31,152.61 L829.11,146.87 L828.02,150.56 Z M860.22,140.76 L861.08,142.68 L861.46,142.40 L860.22,140.76 Z M865.65,144.52 L869.37,145.85 L861.46,142.40 L865.65,144.52 Z M850.83,123.27 L852.00,126.56 L850.90,123.04 L850.83,123.27 Z M845.87,105.94 L843.31,100.06 L841.21,96.66 L845.87,105.94 Z M887.82,630.18 L888.22,629.52 L884.65,628.82 L887.82,630.18 Z M766.14,557.09 L768.45,557.31 L773.96,555.82 L766.14,557.09 Z M818.00,537.54 L820.34,537.79 L821.91,537.24 L818.00,537.54 Z M827.48,535.28 L832.52,532.85 L838.73,527.36 L834.93,530.66 L826.28,535.70 L827.48,535.28 Z M821.66,528.30 L822.29,528.60 L823.91,521.01 L821.66,528.30 Z M823.68,529.24 L827.79,527.75 L822.86,528.86 L823.68,529.24 Z" /></g></svg>