<svg xmlns="http://www.w3.org/2000/svg" viewBox="0 0 1000 1000" width="1000" height="1000"><g fill="#cccccc" stroke="#222" stroke-width="2"><path d="M215.88,923.83 L206.40,911.64 L193.18,903.11 L191.99,899.28 L205.02,898.41 L206.01,890.05 L199.49,867.76 L175.60,863.75 L162.18,852.78 L154.68,839.90 L159.81,839.55 L143.03,838.51 L145.79,834.68 L137.50,844.77 L127.43,841.12 L117.95,828.58 L122.30,823.71 L120.91,820.22 L113.02,820.57 L100.38,806.64 L91.10,809.95 L84.39,815.52 L64.05,804.73 L54.57,792.71 L53.19,783.48 L50.82,784.35 L43.12,776.52 L31.87,767.81 L45.89,762.24 L49.83,755.10 L49.04,747.96 L45.89,741.86 L31.47,730.20 L19.23,727.76 L19.82,722.36 L27.72,715.22 L29.50,705.12 L22.98,696.42 L35.22,691.19 L42.92,691.54 L52.99,676.57 L53.39,659.50 L56.15,656.37 L56.35,644.35 L63.46,635.65 L63.06,625.72 L57.14,619.97 L49.04,618.58 L44.11,604.30 L43.32,598.56 L53.19,594.03 L57.20,588.65 L55.76,585.85 L70.76,579.23 L108.47,566.52 L80.44,575.92 L77.87,564.95 L68.99,563.56 L66.81,556.59 L70.17,548.41 L75.86,549.58 L72.74,546.14 L75.11,533.43 L70.96,533.08 L71.16,528.91 L84.58,522.98 L87.35,516.72 L76.49,507.14 L70.96,508.18 L69.58,501.22 L67.01,504.53 L60.89,504.53 L52.99,501.04 L40.36,501.22 L35.82,486.42 L44.53,475.42 L37.20,468.66 L34.83,470.05 L35.42,467.79 L30.09,464.48 L27.13,465.70 L25.15,460.30 L29.50,453.33 L28.31,444.28 L32.66,442.02 L34.04,433.13 L46.28,429.65 L49.64,434.70 L55.56,436.97 L56.94,442.54 L62.27,441.67 L71.16,451.24 L83.79,452.46 L88.34,448.98 L105.32,453.68 L108.28,458.38 L95.84,474.58 L103.93,481.72 L101.96,484.50 L107.49,498.61 L110.65,508.36 L106.41,489.33 L104.92,488.86 L104.33,485.37 L109.86,481.37 L116.37,477.89 L118.35,474.93 L123.87,475.62 L125.06,472.49 L133.15,468.66 L140.85,468.83 L144.21,465.17 L152.31,468.31 L174.02,461.00 L187.45,458.91 L198.70,451.42 L210.16,449.50 L208.58,439.40 L226.54,441.67 L228.32,444.80 L234.44,439.75 L249.05,446.89 L252.61,444.98 L257.15,446.89 L255.57,453.86 L260.11,435.75 L266.43,438.88 L272.15,437.66 L283.21,444.45 L285.18,448.98 L290.71,448.81 L294.27,452.29 L300.78,453.16 L312.63,446.37 L311.05,429.83 L325.46,415.20 L341.26,405.97 L352.71,399.53 L356.86,393.78 L355.08,384.55 L350.14,371.32 L351.52,363.13 L379.17,340.32 L386.87,329.35 L373.44,310.72 L370.48,303.58 L370.08,279.55 L356.86,245.95 L358.04,233.23 L363.96,220.18 L376.20,211.64 L389.04,207.46 L400.49,195.45 L408.58,182.56 L411.15,165.15 L384.10,115.00 L384.69,105.77 L391.80,96.02 L414.71,97.24 L410.95,110.30 L421.42,116.22 L426.55,116.05 L429.12,127.54 L440.77,132.41 L446.10,131.37 L456.17,144.26 L458.73,139.55 L455.18,133.11 L456.56,129.11 L469.59,134.50 L476.31,131.02 L485.78,133.29 L497.63,129.28 L494.67,128.41 L493.09,120.57 L499.80,116.39 L502.76,118.83 L504.94,117.09 L503.55,111.34 L511.25,102.29 L512.44,93.58 L518.95,89.58 L534.95,89.75 L546.99,83.48 L550.35,78.43 L562.98,79.83 L566.34,75.82 L588.85,69.55 L596.55,45.18 L599.31,42.91 L608.20,42.91 L614.32,28.46 L625.77,29.16 L632.09,33.68 L639.39,33.68 L649.66,33.51 L657.95,29.16 L666.84,30.55 L673.35,26.72 L678.68,32.64 L694.48,38.38 L710.08,30.72 L723.31,34.21 L735.94,33.68 L739.10,19.23 L745.81,34.90 L758.45,35.95 L764.57,41.17 L761.61,59.98 L757.66,64.16 L762.00,81.74 L735.35,86.97 L749.96,85.23 L754.70,110.30 L746.80,112.39 L740.48,118.14 L741.47,121.27 L734.95,130.50 L739.50,142.17 L727.85,152.27 L720.74,177.51 L728.64,179.43 L729.43,194.23 L723.70,199.63 L730.22,204.68 L728.83,207.81 L724.89,207.64 L726.07,211.82 L721.13,211.47 L716.40,217.39 L707.51,218.96 L710.27,220.35 L706.92,225.57 L693.49,226.62 L685.40,231.49 L680.66,230.62 L677.70,224.01 L673.75,227.66 L654.60,226.44 L653.81,229.40 L650.25,227.14 L644.92,229.58 L640.78,219.48 L646.90,236.72 L646.90,240.72 L640.58,244.38 L648.87,256.39 L661.51,263.71 L662.10,269.80 L653.41,275.90 L649.86,286.87 L643.74,294.35 L654.99,300.97 L657.56,310.55 L671.77,310.72 L672.96,318.04 L668.73,317.46 L673.95,318.38 L703.76,313.68 L712.25,310.72 L735.74,313.68 L758.06,326.22 L760.42,331.79 L768.52,333.53 L795.17,327.61 L793.79,335.97 L799.91,338.58 L790.44,350.60 L796.16,350.08 L800.70,348.16 L807.61,351.99 L810.18,344.15 L815.71,347.64 L827.36,348.68 L834.86,341.19 L851.64,336.84 L868.62,340.15 L882.05,333.53 L891.13,338.41 L896.07,339.45 L907.12,332.49 L913.44,333.88 L950.76,361.22 L962.80,364.88 L976.03,380.03 L976.82,391.34 L980.77,396.22 L962.41,403.18 L948.19,400.75 L939.11,406.49 L915.81,403.36 L908.90,412.24 L901.60,412.76 L889.95,398.13 L886.00,412.07 L876.13,418.86 L871.58,426.87 L868.62,435.92 L871.19,445.67 L886.39,459.25 L889.75,465.52 L896.86,469.88 L929.24,478.76 L929.43,485.72 L928.84,498.78 L944.05,516.54 L941.48,524.38 L920.75,549.97 L910.48,553.28 L902.98,550.67 L899.62,544.58 L915.22,532.39 L915.22,524.90 L900.41,516.02 L895.08,517.06 L894.88,522.98 L896.46,533.96 L888.96,546.32 L873.16,550.67 L870.60,547.71 L870.20,522.81 L855.59,524.90 L852.04,522.81 L844.93,530.30 L845.72,541.09 L844.27,539.94 L846.51,545.10 L843.35,552.24 L848.48,558.86 L844.53,565.12 L856.58,568.08 L855.79,572.44 L843.94,568.26 L841.97,573.31 L830.71,576.44 L826.17,585.67 L819.46,579.05 L800.51,575.05 L816.10,579.05 L817.09,590.37 L814.52,592.98 L823.01,594.73 L822.42,598.38 L826.57,596.47 L827.55,601.52 L840.59,605.87 L835.85,608.48 L842.96,610.75 L840.59,616.67 L847.50,618.06 L845.52,621.37 L840.98,622.06 L839.01,628.68 L842.96,632.69 L848.88,630.94 L856.18,633.73 L848.48,643.31 L856.78,642.96 L863.69,646.27 L864.08,652.19 L853.22,660.72 L842.56,660.55 L831.50,664.20 L824.40,685.27 L814.92,691.02 L809.00,691.54 L807.02,689.28 L809.98,672.04 L793.79,672.56 L781.16,668.90 L770.69,671.86 L765.56,686.32 L760.42,688.41 L757.07,675.17 L749.76,663.86 L741.87,663.16 L735.55,665.07 L731.20,664.20 L728.04,658.81 L723.70,661.24 L720.34,659.50 L727.65,667.86 L715.61,678.48 L738.71,699.03 L754.30,709.13 L751.54,723.23 L737.52,739.08 L738.51,743.26 L745.81,745.70 L788.07,742.21 L792.41,746.74 L792.21,754.92 L777.40,779.13 L769.51,773.56 L767.34,766.94 L760.42,765.37 L746.60,768.85 L730.61,780.52 L751.34,802.81 L755.69,811.86 L756.87,829.97 L752.72,833.63 L747.59,840.42 L747.59,846.17 L757.46,849.65 L742.85,863.06 L728.83,867.24 L708.50,860.45 L693.69,879.25 L685.40,880.12 L677.50,876.64 L668.42,878.73 L666.64,883.61 L686.98,894.23 L692.11,901.71 L691.91,908.16 L683.23,914.95 L665.65,915.99 L667.82,901.89 L665.65,894.92 L660.52,891.44 L655.78,891.62 L652.03,907.29 L637.81,919.13 L633.47,917.21 L629.13,907.11 L620.24,899.80 L610.37,895.45 L584.21,893.33 L586.28,895.10 L578.19,904.68 L566.93,903.80 L563.58,908.51 L528.43,933.75 L506.52,937.76 L485.78,950.82 L468.80,953.43 L457.95,950.47 L447.28,936.37 L440.18,934.10 L428.33,936.89 L418.26,946.47 L405.43,955.69 L386.27,963.36 L367.91,971.71 L353.50,960.22 L355.08,943.33 L342.84,935.84 L336.52,934.10 L332.37,937.24 L333.16,949.08 L340.86,954.13 L345.80,962.31 L336.12,965.97 L317.17,966.66 L297.43,946.81 L288.74,947.68 L270.97,955.52 L265.64,963.18 L274.52,971.54 L300.98,975.02 L304.93,980.25 L292.29,980.77 L283.01,975.55 L280.05,978.16 L264.45,976.94 L256.16,962.83 L244.91,955.35 L223.98,945.94 L219.83,938.80 L215.88,923.83 Z M104.33,559.55 L101.32,558.16 L108.47,566.52 L104.33,559.55 Z M183.18,479.04 L182.71,474.58 L174.02,461.00 L183.18,479.04 Z M758.85,354.08 L759.63,356.61 L760.42,331.79 L758.85,354.08 Z M714.62,647.66 L720.15,662.46 L720.34,659.50 L714.62,647.66 Z M724.10,635.47 L708.10,654.63 L714.62,647.66 L724.10,635.47 Z M706.92,750.05 L698.63,742.21 L730.61,780.52 L706.92,750.05 Z M691.32,740.47 L688.56,742.07 L698.63,742.21 L691.32,740.47 Z M701.98,793.06 L697.64,796.37 L730.61,780.52 L701.98,793.06 Z M436.82,287.91 L436.82,300.10 L437.36,288.04 L436.82,287.91 Z M436.03,319.78 L431.69,319.43 L438.20,321.69 L436.23,315.25 L436.03,319.78 Z M473.11,335.37 L474.06,334.09 L472.56,334.06 L453.21,321.87 L473.11,335.37 Z M470.91,336.70 L471.77,337.19 L472.50,336.19 L470.91,336.70 Z M439.19,358.61 L464.26,360.00 L449.06,358.61 L439.19,358.61 Z M442.15,412.41 L445.50,411.43 L448.27,406.14 L442.15,412.41 Z M437.69,420.08 L438.00,420.15 L442.15,417.81 L445.30,411.81 L437.69,420.08 Z M472.75,444.98 L479.86,448.46 L474.53,444.80 L457.55,445.67 L472.75,444.98 Z M442.15,463.26 L440.97,470.75 L442.94,461.17 L442.15,463.26 Z M460.12,494.78 L459.92,497.91 L460.77,494.60 L450.24,494.60 L460.12,494.78 Z M474.03,523.00 L475.91,510.45 L475.12,506.79 L474.03,523.00 Z M454.39,578.18 L455.02,580.47 L457.59,571.27 L454.39,578.18 Z M486.57,617.89 L489.34,618.23 L484.20,616.64 L486.57,617.89 Z M462.40,648.28 L463.28,647.49 L460.51,643.83 L462.40,648.28 Z M467.62,663.86 L460.91,657.93 L458.91,656.84 L467.62,663.86 Z M457.95,677.26 L463.28,672.74 L464.03,671.20 L457.95,677.26 Z M462.99,705.50 L461.10,704.60 L454.59,706.52 L462.99,705.50 Z M465.05,710.70 L465.84,706.86 L464.73,706.34 L465.05,710.70 Z M450.39,716.69 L451.23,720.10 L455.19,714.73 L450.39,716.69 Z M433.86,723.93 L434.82,723.83 L433.46,719.92 L433.86,723.93 Z M440.37,723.23 L438.00,722.01 L435.95,723.71 L440.37,723.23 Z M431.02,741.28 L431.69,740.30 L429.71,735.77 L431.02,741.28 Z M425.56,749.00 L428.97,747.28 L427.98,746.66 L425.56,749.00 Z M417.86,743.61 L431.09,753.18 L425.56,749.00 L417.86,743.61 Z M409.97,744.13 L406.02,746.39 L417.86,743.61 L409.97,744.13 Z M454.79,746.57 L463.47,746.04 L454.64,746.04 L454.79,746.57 Z M464.86,749.53 L466.50,748.59 L463.47,746.04 L464.86,749.53 Z M476.36,758.38 L477.23,756.83 L476.70,757.19 L476.36,758.38 Z M471.48,763.87 L472.95,764.50 L473.68,763.20 L471.48,763.87 Z M457.95,760.32 L452.22,766.77 L459.79,760.94 L457.95,760.32 Z M456.68,829.32 L462.88,827.19 L456.76,828.75 L456.68,829.32 Z M490.13,862.01 L491.90,855.57 L490.33,847.39 L490.13,862.01 Z M428.92,876.64 L426.16,876.99 L435.63,876.81 L428.92,876.64 Z M232.47,480.50 L236.59,482.84 L240.76,475.97 L236.02,482.24 L232.47,480.50 Z M184.09,487.64 L200.88,485.72 L232.47,480.50 L184.09,487.64 Z M183.22,479.34 L182.03,480.12 L183.30,480.85 L184.09,487.64 L183.22,479.34 Z M253.99,491.47 L252.55,490.59 L251.62,495.65 L253.99,491.47 Z M253.20,511.49 L252.41,507.84 L255.17,503.13 L255.37,497.91 L251.22,510.45 L253.20,511.49 Z M239.18,529.60 L242.34,524.73 L247.28,522.29 L242.54,523.16 L239.18,529.60 Z M259.21,567.92 L258.40,566.98 L258.24,567.78 L259.21,567.92 Z M253.12,601.31 L248.07,597.86 L253.12,601.31 L253.12,601.31 Z M246.85,625.04 L245.43,622.02 L244.71,624.50 L246.85,625.04 Z M258.13,707.21 L251.62,699.90 L245.50,700.77 L252.80,701.47 L258.13,707.21 Z M310.26,728.81 L295.45,721.32 L305.96,727.06 L310.26,728.81 Z M336.12,702.86 L318.16,709.83 L327.04,707.74 L336.12,702.86 Z M335.73,699.55 L333.86,699.49 L336.12,702.86 L335.73,699.55 Z M378.85,692.51 L381.73,690.67 L364.56,693.28 L369.69,692.59 L378.57,691.54 L378.85,692.51 Z M382.92,710.35 L376.01,694.33 L377.59,701.64 L382.92,710.35 Z M392.79,711.22 L388.05,706.86 L395.36,716.09 L392.79,711.22 Z M370.87,738.03 L379.76,734.73 L382.52,732.81 L374.82,735.77 L370.87,738.03 Z M352.71,760.67 L363.77,755.45 L356.46,758.06 L352.71,760.67 Z M360.41,772.34 L354.49,767.81 L347.58,765.37 L360.41,772.34 Z M396.61,851.94 L394.96,851.22 L394.25,853.11 L396.61,851.94 Z M358.24,891.96 L379.17,906.76 L360.21,892.31 L355.87,884.13 L358.24,891.96 Z M380.48,913.08 L378.57,913.56 L371.66,919.30 L380.48,913.08 Z M97.42,558.33 L88.34,560.07 L101.00,558.01 L97.84,556.55 L97.42,558.33 Z M154.68,515.32 L156.53,515.70 L150.13,512.71 L154.68,515.32 Z M187.65,563.21 L193.18,563.21 L203.44,560.95 L187.65,563.21 Z M220.23,564.43 L222.40,553.98 L219.83,557.11 L220.23,564.43 Z M232.32,727.85 L242.93,709.30 L233.06,724.28 L231.28,722.71 L232.32,727.85 Z M230.10,747.09 L230.10,751.09 L230.35,751.49 L230.10,747.09 Z M239.58,761.02 L235.63,759.63 L235.63,759.63 L226.54,757.71 L239.58,761.02 Z M202.06,801.59 L198.11,794.97 L212.92,820.57 L202.06,801.59 Z M270.40,821.41 L258.13,813.78 L268.80,820.92 L267.02,822.66 L270.40,821.41 Z M252.41,858.88 L263.27,851.91 L239.38,866.54 L252.92,859.72 L252.41,858.88 Z M262.99,889.46 L257.15,889.70 L261.10,886.74 L254.68,889.20 L260.11,891.09 L262.99,889.46 Z M239.88,919.44 L239.61,920.38 L239.97,919.82 L239.88,919.44 Z M91.69,685.97 L91.88,684.44 L89.77,685.59 L91.69,685.97 Z M116.37,685.27 L96.43,681.96 L94.40,683.07 L116.37,685.27 Z M139.51,690.03 L141.52,690.53 L140.66,689.10 L139.51,690.03 Z M110.04,756.85 L105.54,755.14 L107.88,758.76 L110.04,756.85 Z M141.12,789.02 L154.87,783.48 L144.21,787.66 L143.39,786.82 L141.12,789.02 Z M233.56,929.88 L231.72,931.66 L232.86,930.97 L233.56,929.88 Z M138.49,793.06 L137.82,792.21 L135.33,794.63 L138.49,793.06 Z M121.51,753.36 L128.02,743.95 L133.35,740.99 L125.85,744.13 L121.51,753.36 Z M164.74,745.00 L167.90,743.08 L167.11,742.21 L164.74,745.00 Z M199.69,771.99 L198.70,761.19 L194.36,752.14 L199.69,771.99 Z M183.70,776.34 L178.57,778.78 L184.20,776.97 L183.70,776.34 Z M71.55,612.14 L68.99,606.04 L69.89,613.11 L71.55,612.14 Z M71.15,615.20 L70.09,614.65 L70.17,615.27 L71.15,615.20 Z M94.26,610.92 L85.57,616.49 L90.90,613.53 L94.26,610.92 Z M117.98,622.46 L111.44,614.92 L117.56,622.59 L117.98,622.46 Z M160.01,612.49 L163.28,612.15 L163.71,609.90 L160.01,612.49 Z M172.25,603.95 L171.36,604.57 L184.88,603.61 L172.25,603.95 Z M202.65,615.45 L214.30,623.11 L191.20,640.70 L215.16,623.63 L202.65,615.45 Z M163.17,649.58 L168.30,652.54 L163.46,648.60 L163.17,649.58 Z M203.44,664.03 L203.44,662.98 L195.94,664.03 L203.44,664.03 Z M209.37,667.69 L212.33,666.29 L208.61,666.88 L209.37,667.69 Z M82.61,600.12 L93.07,606.04 L88.14,603.08 L82.61,600.12 Z M154.87,567.21 L156.50,562.60 L156.50,562.60 L154.87,567.21 Z M58.61,591.37 L57.31,588.86 L56.55,590.55 L58.61,591.37 Z M65.23,594.03 L65.49,593.65 L60.53,592.14 L65.23,594.03 Z M50.82,465.35 L48.76,470.08 L54.33,463.04 L50.82,465.35 Z M59.31,459.78 L57.18,461.18 L66.01,462.49 L59.31,459.78 Z M124.86,479.80 L125.85,487.64 L127.03,485.90 L124.86,479.80 Z M143.03,489.90 L136.54,488.28 L120.12,488.86 L143.03,489.90 Z M175.01,493.73 L153.69,501.04 L172.45,495.65 L175.01,493.73 Z M169.88,504.53 L178.76,506.09 L206.40,510.80 L169.88,504.53 Z M207.50,511.65 L207.79,508.18 L206.40,510.80 L207.50,511.65 Z M216.68,518.80 L213.91,514.80 L210.12,513.69 L216.68,518.80 Z M287.36,886.22 L295.65,888.31 L312.39,893.94 L301.18,889.70 L287.36,886.22 Z M304.93,874.20 L317.96,863.23 L305.17,872.26 L301.18,889.70 L304.93,874.20 Z M296.23,940.51 L300.98,940.89 L296.04,939.50 L296.23,940.51 Z M360.88,920.66 L360.61,920.69 L346.39,930.10 L360.88,920.66 Z M275.51,819.53 L281.61,813.51 L279.66,813.26 L273.15,820.40 L275.51,819.53 Z M282.24,813.59 L282.42,823.01 L284.00,814.82 L306.51,813.43 L287.75,814.30 L282.24,813.59 Z M327.10,867.11 L338.49,871.94 L325.07,864.80 L327.10,867.11 Z M346.98,851.57 L349.87,852.09 L343.23,848.26 L346.98,851.57 Z M333.16,825.27 L337.11,823.18 L331.58,823.88 L333.16,825.27 Z M287.16,787.31 L296.44,785.92 L305.01,782.88 L287.16,787.31 Z M314.42,779.55 L317.56,778.43 L315.20,778.08 L314.42,779.55 Z M314.80,787.66 L316.77,781.57 L317.56,778.43 L314.80,787.66 Z M327.10,772.14 L328.03,771.29 L329.21,757.36 L327.10,772.14 Z M263.85,748.57 L264.66,748.14 L263.96,748.04 L263.85,748.57 Z M255.96,792.36 L252.01,788.53 L250.74,789.16 L255.96,792.36 Z M312.63,734.03 L312.83,742.56 L315.98,749.53 L312.63,734.03 Z M280.25,758.54 L278.87,760.15 L280.64,761.85 L280.25,758.54 Z M286.57,755.80 L282.62,755.80 L281.98,756.53 L286.57,755.80 Z M399.50,331.27 L403.65,336.32 L405.29,336.38 L399.50,331.27 Z M401.28,345.72 L409.77,360.85 L409.97,360.70 L401.28,345.72 Z M368.50,401.27 L377.32,402.96 L377.39,402.31 L368.50,401.27 Z M402.66,410.85 L400.00,410.92 L400.09,412.24 L405.82,410.15 L402.66,410.85 Z M406.45,416.52 L406.61,418.16 L407.90,418.97 L406.45,416.52 Z M413.73,422.67 L414.31,423.04 L420.63,424.08 L413.73,422.67 Z M367.12,440.97 L371.07,432.44 L366.33,439.23 L367.71,454.03 L367.12,440.97 Z M364.16,455.60 L374.82,453.51 L367.71,454.03 L364.16,455.60 Z M389.63,482.06 L392.20,468.31 L387.96,483.38 L391.86,482.63 L389.63,482.06 Z M386.36,533.81 L386.87,532.74 L382.33,530.12 L380.75,536.39 L383.31,532.39 L386.36,533.81 Z M388.63,534.88 L389.63,535.35 L394.57,535.00 L388.63,534.88 Z M393.96,537.63 L393.58,536.39 L393.58,538.10 L393.96,537.63 Z M405.03,546.84 L392.34,540.23 L388.64,541.27 L392.39,541.09 L405.03,546.84 Z M369.10,565.99 L363.57,567.74 L370.26,566.87 L369.10,565.99 Z M356.86,608.66 L363.96,613.71 L365.05,613.14 L356.86,608.66 Z M353.10,634.08 L356.02,635.87 L356.86,635.82 L353.10,634.08 Z M380.15,673.43 L401.67,657.93 L382.60,668.76 L383.71,669.25 L380.15,673.43 Z M331.19,508.18 L328.12,507.14 L332.96,512.71 L331.19,508.18 Z M335.93,500.00 L325.86,504.53 L326.51,505.28 L335.93,500.00 Z M274.92,633.03 L270.66,636.35 L272.75,635.99 L274.92,633.03 Z M271.96,627.81 L269.19,623.28 L274.92,633.03 L271.96,627.81 Z M325.86,611.09 L317.76,634.60 L317.95,634.67 L325.86,611.09 Z M261.22,651.66 L264.85,660.20 L262.48,652.19 L261.22,651.66 Z M294.12,668.18 L294.03,668.18 L284.99,684.92 L285.03,687.07 L294.12,668.18 Z M335.93,655.50 L323.49,662.81 L320.13,667.86 L323.69,664.55 L335.93,655.50 Z M343.43,673.26 L338.49,684.58 L342.05,678.83 L343.43,673.26 Z M321.51,680.57 L326.65,685.97 L324.87,683.01 L338.49,684.58 L321.51,680.57 Z M355.87,682.89 L355.87,681.27 L342.05,678.83 L355.87,682.89 Z M379.76,667.51 L381.55,668.30 L378.77,653.93 L379.76,667.51 Z M277.48,560.77 L292.88,563.73 L286.37,560.77 L277.48,560.77 Z M298.41,581.32 L304.00,574.69 L302.76,575.22 L290.91,590.02 L298.41,581.32 Z M306.60,573.60 L323.69,579.75 L307.69,573.13 L306.60,573.60 Z M330.60,534.13 L333.36,538.48 L330.60,531.52 L330.60,534.13 Z M362.19,542.31 L345.04,543.75 L346.39,548.58 L345.80,543.71 L362.19,542.31 Z M279.06,479.28 L287.16,476.84 L288.58,475.15 L279.06,479.28 Z M323.49,463.61 L327.27,464.84 L321.40,460.29 L323.49,463.61 Z M299.20,513.41 L292.29,505.05 L291.55,505.01 L299.20,513.41 Z M296.24,496.00 L294.88,494.61 L294.42,500.16 L296.24,496.00 Z M314.48,516.11 L302.56,512.01 L309.07,515.85 L314.48,516.11 Z M369.64,787.04 L371.86,786.79 L375.81,781.04 L369.64,787.04 Z M396.19,785.03 L397.53,783.66 L395.95,781.74 L396.19,785.03 Z M404.45,756.10 L409.57,749.53 L399.70,757.71 L404.45,756.10 Z M385.71,747.18 L385.68,747.44 L399.70,757.71 L385.71,747.18 Z M404.04,855.22 L413.52,855.40 L416.00,854.14 L404.04,855.22 Z M405.62,921.04 L386.27,911.64 L383.95,912.22 L405.62,921.04 Z M410.49,945.82 L408.78,936.19 L410.16,945.94 L410.49,945.82 Z M415.73,545.31 L423.83,538.68 L419.25,541.79 L415.73,545.31 Z M430.56,537.68 L426.95,536.57 L425.88,537.29 L430.56,537.68 Z M442.15,538.66 L445.51,537.61 L439.33,538.42 L442.15,538.66 Z M445.51,534.30 L446.30,537.44 L444.52,525.95 L445.51,537.61 L445.51,534.30 Z M439.78,584.45 L447.88,595.77 L448.27,595.68 L439.78,584.45 Z M414.51,639.83 L410.76,640.87 L419.05,640.00 L414.51,639.83 Z M425.17,674.65 L422.79,678.05 L433.86,670.99 L425.17,674.65 Z M418.65,679.35 L408.19,687.36 L419.81,679.95 L418.65,679.35 Z M408.66,552.52 L414.90,547.01 L418.13,547.45 L414.84,546.20 L408.60,552.43 L408.66,552.52 Z M430.89,548.29 L428.92,553.11 L422.21,566.17 L431.49,551.89 L430.89,548.29 Z M431.98,545.62 L435.73,544.74 L432.48,544.40 L431.98,545.62 Z M445.90,545.80 L446.37,549.01 L446.49,548.76 L445.90,545.80 Z M447.48,554.15 L448.89,554.27 L446.49,548.76 L447.48,554.15 Z M401.08,574.00 L404.64,570.87 L407.99,560.77 L401.08,574.00 Z M422.60,548.06 L426.55,543.53 L421.27,547.88 L422.60,548.06 Z M417.86,455.07 L415.10,445.67 L416.68,460.47 L417.86,455.07 Z M424.58,523.68 L428.33,523.33 L419.64,522.46 L424.58,523.68 Z M442.18,524.10 L436.23,523.68 L447.48,525.25 L441.95,524.38 L442.18,524.10 Z M443.53,522.46 L434.25,509.58 L443.01,523.09 L443.53,522.46 Z M412.73,483.11 L404.64,480.15 L406.81,482.06 L408.70,483.45 L412.73,483.11 Z M415.10,488.16 L423.99,490.07 L411.31,485.38 L415.10,488.16 Z M419.81,381.82 L418.91,385.71 L422.40,384.53 L419.81,381.82 Z M425.04,387.27 L425.56,389.95 L439.19,401.97 L425.04,387.27 Z M424.96,429.98 L424.38,422.86 L424.58,428.08 L424.96,429.98 Z M592.60,163.76 L590.00,163.32 L592.84,164.75 L592.60,163.76 Z M615.85,221.17 L618.46,222.26 L616.10,218.43 L616.69,220.70 L615.85,221.17 Z M585.29,236.72 L589.44,232.89 L582.06,237.18 L585.29,236.72 Z M598.33,285.13 L582.93,273.81 L594.57,282.86 L598.33,285.13 Z M551.93,324.83 L558.25,318.04 L553.31,321.00 L551.93,324.83 Z M582.53,356.69 L585.49,346.94 L579.35,361.92 L582.53,356.69 Z M588.26,357.74 L588.83,356.81 L582.53,356.69 L588.26,357.74 Z M582.93,393.43 L575.79,369.59 L574.83,371.49 L582.93,393.43 Z M589.22,434.92 L584.70,421.82 L589.22,434.92 L589.22,434.92 Z M586.92,477.48 L585.10,476.14 L583.25,476.09 L586.92,477.48 Z M602.52,507.25 L606.97,506.96 L597.54,496.52 L604.45,505.40 L602.52,507.25 Z M598.92,507.49 L601.81,507.30 L590.63,502.79 L598.92,507.49 Z M571.87,523.86 L577.00,517.94 L573.05,520.20 L571.87,523.86 Z M567.72,532.74 L561.21,535.87 L546.20,546.14 L567.72,532.74 Z M603.66,569.83 L587.52,574.28 L592.60,574.18 L603.66,569.83 Z M611.53,570.87 L611.53,570.87 L603.66,569.83 L611.53,570.87 Z M594.91,600.77 L598.13,598.54 L593.78,599.43 L594.91,600.77 Z M640.96,626.26 L638.80,625.02 L632.29,618.41 L636.83,625.37 L640.96,626.26 Z M656.57,630.60 L647.88,630.25 L644.96,630.92 L656.57,630.60 Z M671.44,616.71 L665.06,617.71 L670.00,618.23 L671.44,616.71 Z M684.63,630.39 L679.47,615.45 L683.03,628.51 L684.63,630.39 Z M686.78,599.25 L686.49,594.71 L679.47,615.45 L686.78,599.25 Z M702.97,646.44 L686.87,633.02 L693.10,640.35 L702.97,646.44 Z M679.47,684.40 L684.61,685.45 L667.04,681.62 L679.47,684.40 Z M684.80,701.64 L685.32,698.20 L683.48,699.47 L684.80,701.64 Z M713.30,708.55 L701.98,707.04 L705.93,708.61 L713.30,708.55 Z M707.51,720.62 L693.89,717.31 L696.06,719.58 L707.51,720.62 Z M691.72,831.14 L692.51,826.32 L690.78,831.25 L691.72,831.14 Z M695.86,840.60 L689.35,835.37 L695.99,843.38 L695.86,840.60 Z M696.26,849.13 L696.15,846.74 L693.24,850.38 L696.26,849.13 Z M669.08,847.85 L670.53,846.94 L669.40,847.04 L669.08,847.85 Z M667.47,857.10 L667.22,852.49 L666.05,855.40 L667.47,857.10 Z M675.72,870.02 L670.79,866.37 L661.31,861.67 L675.72,870.02 Z M439.20,145.89 L438.20,144.26 L434.65,146.05 L439.20,145.89 Z M430.92,147.92 L429.91,148.43 L431.09,159.40 L430.92,147.92 Z M448.86,205.37 L442.74,199.63 L444.91,203.63 L438.50,204.39 L448.86,205.37 Z M466.04,201.89 L469.07,200.15 L448.86,205.37 L466.04,201.89 Z M595.80,611.64 L596.94,614.40 L596.94,612.14 L595.80,611.64 Z M549.76,682.66 L556.27,663.68 L552.12,671.86 L551.53,673.78 L549.76,682.66 Z M549.95,723.23 L568.71,710.52 L555.28,719.58 L554.98,718.95 L549.95,723.23 Z M592.42,771.36 L593.07,776.41 L593.98,772.86 L592.42,771.36 Z M590.69,785.73 L587.86,790.97 L588.87,792.82 L590.69,785.73 Z M628.73,834.33 L584.90,836.94 L583.03,837.63 L614.71,836.24 L628.73,834.33 Z M562.06,859.22 L560.61,860.45 L561.40,863.06 L562.06,859.22 Z M573.05,865.65 L587.47,871.94 L580.95,867.41 L573.05,865.65 Z M500.99,745.17 L491.51,747.09 L484.86,751.62 L500.99,745.17 Z M505.33,738.73 L502.76,741.86 L500.99,745.17 L505.33,738.73 Z M512.40,740.19 L510.46,738.21 L505.33,738.73 L512.40,740.19 Z M516.37,861.77 L516.39,861.84 L516.42,861.84 L516.37,861.77 Z M509.48,870.89 L504.66,875.27 L505.73,875.42 L509.48,870.89 Z M486.38,793.06 L488.94,792.36 L484.80,798.63 L492.50,791.32 L486.38,793.06 Z M481.64,787.83 L479.13,787.30 L486.38,793.06 L481.64,787.83 Z M507.62,776.72 L511.45,779.65 L510.27,777.21 L507.62,776.72 Z M531.99,804.73 L549.62,805.86 L550.35,804.20 L531.99,804.73 Z M510.66,822.66 L511.58,822.76 L511.94,822.39 L510.66,822.66 Z M514.95,854.50 L515.40,848.61 L512.83,843.73 L514.95,854.50 Z M475.91,788.18 L477.72,786.99 L472.75,785.92 L475.91,788.18 Z M542.04,641.79 L528.04,627.29 L540.67,642.44 L542.04,641.79 Z M546.20,646.09 L544.11,643.93 L545.11,647.05 L546.20,646.09 Z M472.75,686.14 L484.20,693.46 L489.14,696.24 L472.75,686.14 Z M523.10,693.81 L526.06,697.29 L526.53,697.56 L523.10,693.81 Z M531.84,700.64 L533.56,701.64 L547.39,703.56 L531.84,700.64 Z M550.94,713.83 L553.61,716.19 L547.39,703.56 L550.94,713.83 Z M474.76,714.08 L472.95,714.18 L471.77,717.66 L474.76,714.08 Z M477.21,711.16 L475.32,711.22 L475.87,712.77 L477.21,711.16 Z M485.39,712.96 L481.44,711.04 L481.39,711.05 L485.39,712.96 Z M483.81,700.07 L483.19,699.94 L481.44,711.04 L483.81,700.07 Z M484.80,655.32 L484.20,651.84 L483.41,658.63 L484.80,655.32 Z M517.77,520.90 L531.39,518.28 L527.64,517.94 L517.77,520.90 Z M541.46,543.18 L534.75,522.98 L531.39,518.28 L541.46,543.18 Z M537.51,599.08 L536.33,598.56 L536.92,604.83 L537.51,599.08 Z M501.78,487.46 L508.69,474.58 L497.04,493.73 L501.78,487.46 Z M546.40,512.71 L549.08,509.10 L535.93,519.15 L546.40,512.71 Z M553.51,503.13 L549.16,489.90 L552.04,505.11 L553.51,503.13 Z M501.77,384.55 L504.94,389.25 L508.02,390.60 L501.77,384.55 Z M515.52,393.87 L520.93,396.22 L531.20,397.96 L515.52,393.87 Z M508.29,423.38 L507.50,419.90 L507.97,425.09 L515.99,419.38 L508.29,423.38 Z M495.26,338.06 L494.87,340.50 L491.12,368.71 L495.26,338.06 Z M508.88,228.01 L509.50,228.47 L509.87,223.83 L508.88,228.01 Z M565.95,229.06 L564.17,243.86 L565.95,237.76 L565.95,229.06 Z M476.19,291.91 L475.52,292.79 L475.97,293.28 L476.19,291.91 Z M543.10,267.54 L542.06,271.76 L543.44,271.54 L543.10,267.54 Z M602.73,700.27 L605.24,701.12 L615.50,703.56 L602.73,700.27 Z M618.46,748.13 L623.40,737.34 L619.65,744.30 L618.46,748.13 Z M625.18,751.79 L629.52,763.46 L628.14,754.23 L622.61,748.13 L625.18,751.79 Z M643.30,749.26 L644.72,754.92 L646.60,755.68 L643.30,749.26 Z M624.79,830.98 L627.93,822.45 L623.40,829.80 L624.79,830.98 Z M615.84,799.92 L614.32,798.98 L611.16,801.59 L615.84,799.92 Z M612.34,807.16 L618.27,801.42 L616.73,800.47 L612.34,807.16 Z M628.98,819.60 L628.98,819.60 L622.61,816.39 L628.98,819.60 Z M649.14,756.69 L651.24,757.54 L661.90,755.80 L665.24,753.90 L649.14,756.69 Z M639.59,697.98 L643.34,693.28 L633.27,701.64 L639.59,697.98 Z M587.48,659.21 L587.66,660.20 L589.85,659.23 L587.48,659.21 Z M593.61,659.28 L594.38,660.02 L613.73,659.50 L593.61,659.28 Z M614.32,653.23 L614.28,653.14 L613.73,659.50 L614.32,653.23 Z M623.38,649.79 L623.38,649.79 L619.45,650.80 L623.38,649.79 Z M625.18,652.88 L630.90,657.41 L625.30,651.74 L625.18,652.88 Z M609.78,640.00 L609.78,633.73 L608.75,640.64 L609.78,640.00 Z M605.63,642.61 L607.25,641.59 L596.35,640.35 L605.63,642.61 Z M631.10,634.08 L636.63,633.56 L636.96,632.74 L631.10,634.08 Z M684.48,375.10 L662.10,366.79 L664.47,369.06 L684.48,375.10 Z M668.22,394.13 L652.62,386.12 L647.69,382.29 L655.78,389.25 L668.22,394.13 Z M702.77,429.48 L706.92,445.50 L706.52,440.45 L702.77,429.48 Z M707.52,468.95 L706.92,469.53 L706.72,475.45 L707.52,468.95 Z M690.14,472.49 L689.96,466.79 L684.61,467.61 L689.94,467.44 L690.14,472.49 Z M677.50,515.32 L708.70,517.94 L679.08,515.32 L676.32,515.20 L677.10,518.71 L677.50,515.32 Z M673.35,538.83 L678.88,546.67 L682.07,547.40 L673.35,538.83 Z M684.81,550.09 L686.38,555.90 L687.17,552.41 L684.81,550.09 Z M682.83,554.85 L678.58,557.85 L679.47,557.98 L682.83,554.85 Z M593.19,358.09 L601.88,357.04 L591.14,356.85 L593.19,358.09 Z M640.73,480.04 L637.81,493.91 L641.76,480.50 L640.73,480.04 Z M643.74,465.70 L641.32,477.19 L643.74,473.36 L643.74,465.70 Z M655.58,459.25 L647.49,462.39 L643.74,465.70 L655.58,459.25 Z M661.88,456.52 L657.36,435.40 L656.41,434.95 L661.87,456.52 L661.88,456.52 Z M666.25,453.33 L662.07,456.51 L664.47,456.47 L666.25,453.33 Z M599.91,547.89 L596.36,536.36 L595.96,537.96 L599.91,547.89 Z M642.66,541.29 L643.14,542.49 L644.32,543.06 L642.66,541.29 Z M667.63,556.24 L676.91,557.61 L676.91,556.42 L667.63,556.24 Z M686.28,591.38 L686.19,589.85 L677.10,585.15 L686.28,591.38 Z M623.40,592.11 L625.87,592.25 L621.61,590.77 L623.40,592.11 Z M654.40,590.37 L666.64,584.63 L645.91,593.33 L654.40,590.37 Z M636.23,612.49 L637.53,613.14 L638.66,609.89 L636.23,612.49 Z M646.50,601.52 L642.10,606.22 L643.54,606.74 L646.50,601.52 Z M652.82,434.01 L654.44,434.01 L647.88,430.87 L652.82,434.01 Z M612.74,469.53 L619.25,469.70 L615.70,469.18 L612.74,469.53 Z M645.16,412.79 L644.72,411.72 L643.99,411.77 L645.16,412.79 Z M667.63,119.70 L648.28,124.40 L658.35,123.01 L667.63,119.70 Z M622.61,236.54 L632.47,234.10 L632.48,233.06 L622.61,236.54 Z M617.81,342.88 L614.09,346.76 L617.28,345.90 L617.81,342.88 Z M618.46,339.11 L612.15,336.84 L618.19,340.69 L618.46,339.11 Z M618.34,327.07 L615.70,328.66 L612.15,336.84 L618.34,327.07 Z M633.08,318.21 L629.69,320.24 L630.31,319.95 L645.91,314.38 L633.08,318.21 Z M635.40,162.26 L636.43,160.45 L634.85,158.01 L635.40,162.26 Z M662.89,175.60 L671.38,176.64 L661.61,175.34 L662.89,175.60 Z M622.02,149.83 L627.35,153.31 L621.86,147.50 L622.02,149.83 Z M621.62,144.08 L621.65,144.52 L622.17,143.89 L621.62,144.08 Z M823.41,610.22 L821.43,605.87 L819.74,605.60 L823.41,610.22 Z M812.94,631.12 L813.14,626.42 L812.55,622.24 L812.94,631.12 Z M786.09,481.54 L793.00,478.76 L795.17,475.62 L786.09,481.54 Z M829.73,467.44 L831.31,466.39 L804.85,479.63 L829.73,467.44 Z M860.92,474.40 L860.33,469.18 L859.74,473.96 L860.92,474.40 Z M866.21,480.40 L866.30,480.33 L860.53,476.84 L866.21,480.40 Z M864.06,483.30 L856.18,491.29 L866.45,483.28 L863.69,485.37 L864.06,483.30 Z M892.46,499.55 L903.77,495.47 L893.90,497.39 L892.46,499.55 Z M760.23,558.51 L746.41,553.98 L760.90,559.66 L760.23,558.51 Z M765.76,565.52 L764.18,565.30 L757.66,567.21 L765.76,565.52 Z M774.05,560.42 L771.50,564.32 L772.67,564.08 L774.05,560.42 Z M792.61,543.71 L786.29,554.33 L793.20,545.97 L792.61,543.71 Z M775.63,539.88 L771.09,540.40 L792.61,543.71 L775.63,539.88 Z M758.45,530.12 L764.77,536.39 L771.09,540.40 L758.45,530.12 Z M792.61,533.96 L786.09,529.60 L794.24,536.56 L792.61,533.96 Z M824.87,542.49 L829.20,539.40 L824.79,540.75 L823.41,534.65 L824.87,542.49 Z M839.60,536.22 L835.89,537.35 L840.65,537.06 L839.60,536.22 Z M757.46,590.02 L765.47,579.51 L764.97,579.75 L757.46,590.02 Z M769.67,577.52 L774.95,576.95 L772.67,576.09 L769.67,577.52 Z M787.28,600.47 L790.83,597.51 L777.01,607.26 L787.28,600.47 Z M812.35,606.04 L817.55,605.26 L799.32,602.39 L812.35,606.04 Z M825.22,544.39 L825.58,546.32 L834.86,548.93 L825.22,544.39 Z M745.02,500.35 L750.16,501.57 L752.76,500.35 L745.02,500.35 Z M765.18,496.86 L787.47,508.18 L771.48,499.13 L765.18,496.86 Z M756.28,511.67 L756.08,507.14 L755.47,506.57 L756.28,511.67 Z M845.18,503.76 L844.14,504.00 L839.60,512.01 L845.18,503.76 Z M887.30,507.30 L883.23,513.41 L884.23,515.78 L887.30,507.30 Z M787.53,487.03 L784.71,485.72 L773.26,488.51 L787.53,487.03 Z M813.58,496.09 L806.82,485.02 L812.55,494.60 L811.40,495.96 L813.58,496.09 Z M817.68,496.34 L825.58,491.47 L814.25,496.13 L817.68,496.34 Z M720.15,392.91 L726.07,393.96 L714.62,387.86 L709.20,385.49 L720.15,392.91 Z M743.44,407.36 L734.76,404.40 L748.58,410.67 L743.44,407.36 Z M799.43,400.78 L799.32,400.75 L795.57,404.75 L799.43,400.78 Z M864.28,418.16 L832.49,397.61 L798.53,376.37 L821.04,391.52 L864.28,418.16 Z M784.12,373.58 L769.90,372.54 L798.53,376.37 L784.12,373.58 Z M762.26,365.16 L763.19,368.18 L769.90,372.54 L762.26,365.16 Z M807.24,437.63 L803.47,425.82 L804.65,435.05 L749.96,415.72 L777.40,426.34 L807.24,437.63 Z M834.47,447.94 L826.96,448.46 L841.18,447.94 L834.47,447.94 Z M861.32,373.93 L861.15,375.97 L863.68,372.63 L861.32,373.93 Z M861.71,380.03 L860.87,379.57 L860.53,383.86 L861.71,380.03 Z M740.68,358.96 L740.68,353.56 L738.90,349.38 L740.68,358.96 Z M756.48,370.27 L751.15,379.15 L751.23,379.20 L756.48,370.27 Z M711.26,353.38 L708.89,355.12 L714.63,355.30 L711.26,353.38 Z M728.19,354.70 L723.82,355.57 L726.27,355.65 L728.19,354.70 Z M728.33,706.55 L721.76,708.48 L727.85,708.43 L728.33,706.55 Z" /></g></svg>