<svg xmlns="http://www.w3.org/2000/svg" viewBox="0 0 1000 1000" width="1000" height="1000"><g fill="#cccccc" stroke="#222" stroke-width="2"><path d="M364.31,612.65 L355.51,614.99 L354.46,613.94 L354.32,609.14 L370.22,603.75 L372.06,600.23 L375.47,599.41 L378.23,590.98 L380.86,593.44 L381.52,589.80 L387.30,585.47 L385.98,583.71 L387.43,574.81 L392.42,571.64 L401.74,569.53 L405.42,573.40 L401.22,568.95 L404.11,566.61 L401.48,563.44 L405.55,564.38 L408.97,561.22 L404.37,560.04 L403.32,554.07 L395.31,552.66 L391.24,555.94 L384.27,555.83 L377.44,558.87 L367.07,555.94 L358.66,562.27 L348.15,555.36 L330.55,565.67 L326.21,562.15 L314.00,561.57 L305.33,557.00 L301.51,552.33 L297.05,552.20 L285.10,547.74 L271.24,532.21 L257.25,532.51 L254.36,534.86 L247.27,533.22 L233.74,524.43 L223.75,522.08 L217.55,499.85 L218.50,507.44 L208.78,495.02 L195.51,489.63 L189.60,473.11 L170.42,472.76 L157.94,466.55 L155.84,463.50 L155.84,453.55 L156.89,453.61 L149.27,447.34 L149.14,441.71 L133.91,453.55 L122.35,455.30 L105.01,461.86 L97.52,454.01 L85.83,454.60 L82.02,458.47 L79.13,458.58 L81.10,459.52 L78.60,461.04 L69.67,460.34 L67.96,458.47 L71.38,454.37 L70.07,451.44 L72.82,450.15 L67.57,445.46 L66.13,450.03 L63.89,447.69 L62.32,448.63 L63.50,453.31 L54.96,457.29 L34.73,436.56 L28.03,417.34 L26.98,406.45 L45.24,373.52 L57.59,361.93 L61.79,341.77 L60.74,337.21 L42.35,309.09 L32.24,301.71 L23.70,291.40 L19.23,278.27 L20.54,271.01 L31.05,254.84 L40.25,247.34 L56.93,238.32 L67.96,230.71 L77.95,220.40 L90.95,210.79 L97.78,204.81 L104.48,183.26 L108.95,156.78 L109.34,144.71 L115.65,138.15 L138.24,128.19 L148.88,117.29 L153.61,115.30 L158.34,115.19 L173.84,120.11 L193.81,137.21 L207.73,149.16 L223.62,154.55 L226.91,170.60 L228.61,176.93 L234.79,191.69 L247.79,209.62 L251.87,223.91 L255.54,256.36 L257.91,261.05 L264.87,268.31 L279.45,279.56 L302.57,285.19 L307.56,285.77 L318.46,287.41 L334.10,289.87 L358.40,286.59 L385.46,283.19 L393.47,280.85 L397.54,280.03 L397.28,277.92 L415.93,274.88 L428.94,271.83 L440.63,263.75 L451.66,260.70 L462.83,264.92 L464.01,262.22 L460.99,258.82 L465.85,258.82 L468.08,254.84 L461.64,250.04 L461.38,245.35 L457.44,242.30 L458.89,236.33 L450.74,233.28 L448.90,227.31 L451.13,226.02 L456.78,229.30 L467.16,223.68 L472.02,226.14 L480.27,228.14 L479.77,227.66 L480.82,222.39 L477.28,219.81 L475.96,215.94 L488.18,217.94 L502.76,213.95 L506.57,210.32 L500.53,203.88 L496.85,205.99 L488.57,204.46 L487.13,196.73 L497.11,191.57 L503.55,195.56 L509.98,195.21 L516.95,189.82 L519.31,197.32 L522.99,197.32 L525.75,193.33 L527.32,193.80 L527.98,196.14 L522.72,200.60 L529.56,204.70 L533.10,202.00 L535.86,195.56 L540.98,194.74 L545.45,196.14 L545.45,198.14 L538.62,198.96 L537.44,200.83 L543.61,200.48 L542.03,205.40 L547.55,213.01 L551.75,211.02 L557.93,220.63 L556.88,214.42 L561.21,212.08 L562.79,214.42 L564.63,211.26 L572.38,213.01 L580.78,207.27 L583.54,209.38 L586.17,207.16 L584.59,202.47 L586.17,201.06 L600.62,217.47 L592.21,206.57 L601.54,199.19 L606.40,197.67 L607.63,197.88 L603.77,196.73 L599.70,191.34 L608.63,194.85 L613.89,189.93 L609.82,193.45 L605.35,187.36 L597.86,188.53 L593.26,186.65 L598.65,178.92 L591.03,176.81 L592.87,168.14 L590.24,158.77 L598.65,155.25 L594.31,152.91 L594.05,150.33 L596.94,150.80 L598.52,147.29 L603.29,147.60 L604.30,143.19 L607.71,143.07 L606.53,137.45 L610.47,132.99 L612.18,134.75 L612.44,133.35 L615.46,134.05 L616.38,131.94 L614.02,130.06 L616.65,130.53 L617.04,127.37 L619.54,128.54 L620.19,125.50 L625.32,123.86 L630.31,125.03 L629.78,122.22 L635.17,118.47 L642.13,103.35 L649.09,97.61 L654.87,89.18 L660.39,75.59 L669.58,68.79 L672.21,68.79 L669.32,56.02 L673.39,54.96 L676.47,58.20 L671.42,49.11 L674.97,35.75 L678.65,33.17 L675.89,30.36 L687.32,24.27 L687.18,22.16 L691.13,23.10 L693.23,19.23 L708.33,24.85 L709.78,22.04 L713.19,21.81 L719.76,27.67 L731.45,30.36 L733.69,33.17 L737.89,33.17 L743.80,28.37 L753.65,28.37 L756.54,32.00 L765.47,29.42 L769.02,32.12 L767.44,35.75 L769.41,41.02 L763.37,39.85 L759.56,54.03 L763.50,57.78 L760.48,61.53 L769.02,65.51 L765.08,66.33 L767.18,72.42 L764.55,72.42 L768.63,74.30 L774.41,74.53 L778.08,79.92 L779.40,85.90 L781.81,87.87 L781.76,87.65 L785.83,84.25 L809.22,89.41 L813.55,88.00 L820.25,87.30 L822.35,90.82 L821.30,98.20 L818.94,108.74 L824.32,114.37 L834.70,117.18 L844.68,112.49 L846.00,114.25 L842.97,122.45 L844.42,124.91 L863.47,125.03 L862.81,129.13 L853.48,133.58 L852.04,144.59 L853.22,154.90 L860.84,163.92 L873.71,181.50 L872.14,185.60 L868.98,183.02 L857.56,183.84 L859.26,190.17 L850.86,195.32 L848.36,199.89 L831.55,198.37 L829.84,200.36 L831.68,202.00 L828.66,204.11 L827.74,208.33 L828.97,209.43 L830.63,209.38 L836.80,207.63 L843.24,218.87 L842.45,226.61 L836.01,227.66 L841.00,232.23 L837.72,234.81 L826.95,233.40 L832.34,245.12 L839.03,245.23 L839.30,247.69 L844.03,249.33 L842.97,251.09 L854.14,256.48 L849.54,261.64 L851.38,263.16 L850.86,267.03 L846.78,267.14 L846.92,269.49 L845.21,269.49 L846.26,275.93 L848.36,279.33 L853.09,279.80 L848.62,288.47 L853.75,297.96 L856.64,298.31 L857.69,301.24 L855.98,304.63 L857.56,306.16 L854.27,308.62 L856.37,310.73 L855.32,313.19 L844.55,311.43 L849.81,313.42 L846.39,315.88 L848.36,318.34 L839.82,322.33 L843.50,327.48 L843.50,331.11 L851.25,331.58 L852.70,328.18 L854.80,329.24 L851.12,333.81 L858.74,339.55 L861.63,338.61 L863.60,343.06 L867.93,346.46 L867.93,349.98 L870.82,351.50 L868.46,357.36 L871.09,361.34 L873.06,360.52 L876.73,366.26 L875.16,367.55 L875.81,372.82 L899.06,363.57 L901.69,367.08 L904.45,379.27 L913.51,384.30 L912.86,386.06 L925.99,388.40 L934.40,388.64 L945.96,389.69 L953.71,383.25 L955.94,389.58 L954.07,392.13 L957.12,389.11 L963.17,396.61 L966.32,395.90 L967.24,397.78 L963.69,402.93 L965.14,405.51 L967.63,403.52 L973.28,405.04 L972.49,407.62 L974.60,408.67 L972.76,410.90 L980.64,414.88 L980.77,422.03 L976.04,430.23 L971.31,434.92 L959.49,437.38 L962.90,436.67 L966.85,442.06 L960.41,444.76 L959.23,450.50 L962.51,452.84 L960.28,456.83 L967.11,456.01 L967.76,457.29 L965.53,460.93 L953.18,462.80 L955.94,470.18 L954.23,471.35 L943.73,469.36 L941.23,472.53 L934.93,474.28 L925.07,471.24 L916.54,476.16 L918.11,482.60 L913.91,483.89 L911.02,481.08 L907.87,481.66 L904.19,484.24 L907.73,488.69 L909.18,488.11 L904.84,492.21 L906.42,493.73 L904.19,498.77 L908.65,502.75 L907.73,513.41 L902.61,513.18 L900.64,510.37 L897.36,510.37 L897.62,508.61 L895.26,510.13 L895.52,507.91 L887.11,508.49 L886.85,506.27 L873.71,508.38 L873.45,506.39 L870.82,506.15 L865.44,501.58 L862.68,502.75 L855.19,499.00 L853.48,500.29 L843.76,499.71 L842.97,502.99 L836.67,501.93 L841.27,502.99 L827.74,532.39 L813.55,523.49 L842.97,544.23 L834.96,556.65 L844.29,562.86 L844.42,565.20 L840.35,570.36 L822.61,581.72 L817.49,586.17 L816.05,590.27 L820.78,598.36 L855.72,613.24 L864.12,618.04 L869.51,624.48 L870.43,639.13 L865.04,646.16 L847.97,653.89 L839.69,663.97 L838.25,679.90 L844.55,699.35 L851.91,713.53 L853.48,715.52 L855.59,717.63 L860.45,721.02 L893.68,727.35 L907.34,731.22 L912.86,737.19 L914.30,740.59 L912.20,752.66 L913.12,771.99 L915.09,781.48 L909.44,784.76 L909.31,786.87 L904.98,790.15 L904.45,794.60 L910.23,810.30 L916.93,819.79 L920.74,822.60 L927.04,823.31 L940.44,817.80 L958.70,817.56 L958.04,820.26 L948.85,824.95 L951.61,831.04 L942.15,834.55 L943.99,838.77 L947.67,838.89 L946.62,841.58 L951.08,847.32 L947.40,848.61 L944.25,846.97 L947.14,844.28 L945.43,842.99 L937.68,843.57 L925.99,852.83 L924.94,862.20 L911.28,863.26 L901.82,868.06 L898.01,872.86 L899.20,879.66 L882.38,874.62 L879.89,865.72 L883.30,861.85 L884.75,850.13 L870.03,821.20 L880.41,843.11 L848.40,849.59 L848.89,850.25 L847.05,852.83 L830.10,859.04 L828.53,856.46 L829.84,862.91 L826.95,863.26 L818.02,858.57 L818.28,878.02 L798.05,888.21 L788.07,888.10 L779.66,885.99 L768.63,886.69 L763.24,884.70 L751.42,872.63 L749.05,874.97 L744.19,872.75 L745.24,869.82 L733.03,866.77 L724.36,861.85 L728.04,864.55 L720.94,863.61 L720.94,866.42 L716.21,868.29 L726.46,877.43 L735.92,881.53 L735.79,883.99 L732.11,887.74 L709.12,899.69 L707.15,903.56 L708.60,917.27 L706.89,921.13 L699.53,926.52 L701.37,931.44 L699.27,938.83 L693.10,947.73 L691.39,960.27 L685.21,977.14 L650.93,980.77 L645.94,967.88 L632.67,956.63 L630.04,952.18 L622.69,948.43 L618.09,941.17 L601.80,939.06 L595.43,934.61 L588.80,943.75 L571.20,940.58 L565.68,936.13 L567.65,928.63 L562.00,913.99 L559.11,913.52 L555.96,916.45 L549.39,913.28 L543.09,920.31 L537.83,920.08 L536.78,917.74 L530.08,920.31 L527.19,918.56 L524.56,919.96 L515.89,918.21 L517.34,911.64 L512.87,906.14 L515.50,904.15 L519.31,905.20 L521.41,901.69 L523.64,901.57 L525.35,904.97 L530.74,904.26 L531.92,905.79 L540.46,900.51 L538.62,897.94 L542.95,894.89 L537.44,892.08 L532.97,885.99 L535.73,877.90 L533.36,875.44 L534.55,873.80 L532.18,868.53 L534.81,866.30 L531.39,861.27 L532.05,859.74 L533.15,859.71 L530.61,855.06 L530.21,862.91 L527.72,864.66 L523.78,859.51 L525.75,856.81 L520.23,850.25 L520.36,845.92 L525.09,843.81 L526.93,845.21 L529.82,842.17 L534.28,841.35 L539.14,831.15 L537.04,823.19 L530.47,818.97 L514.06,801.75 L509.85,794.60 L516.29,782.06 L504.86,773.63 L496.85,757.93 L493.17,744.69 L494.09,732.51 L492.38,723.37 L492.12,712.28 L483.84,713.53 L469.13,712.47 L472.55,709.66 L469.79,708.02 L474.39,702.51 L471.76,701.22 L471.50,693.96 L469.13,692.09 L470.97,688.45 L469.13,688.34 L469.00,686.23 L464.53,686.46 L469.53,684.59 L470.97,681.42 L468.87,680.25 L479.38,675.80 L482.36,677.45 L484.24,672.52 L476.88,668.77 L475.17,665.96 L476.75,658.81 L471.10,660.69 L471.89,669.94 L469.13,670.41 L463.22,666.66 L452.19,669.24 L454.55,667.48 L450.22,667.60 L447.72,663.50 L444.57,662.79 L440.49,660.10 L437.21,660.45 L432.88,660.22 L429.59,656.70 L424.08,656.00 L426.31,665.26 L423.16,668.54 L414.62,668.42 L412.25,672.64 L413.44,680.60 L408.05,684.24 L407.26,690.91 L397.41,695.13 L383.62,697.47 L375.47,696.89 L374.03,700.64 L373.77,698.76 L370.22,697.83 L374.95,692.20 L377.31,681.66 L382.43,679.31 L395.70,678.73 L402.27,673.46 L403.06,662.79 L411.07,657.29 L409.63,654.95 L412.12,654.36 L413.04,651.43 L410.02,652.02 L411.20,649.20 L408.97,648.15 L408.84,637.02 L415.93,639.71 L406.08,635.50 L402.80,636.79 L400.56,634.56 L401.88,633.04 L396.62,629.52 L396.49,626.01 L391.63,624.37 L380.99,615.93 L378.23,616.40 L375.08,612.65 L376.52,611.83 L375.72,610.30 L369.30,611.83 L367.07,608.08 L364.31,612.65 Z M356.56,297.37 L357.10,298.84 L358.40,286.59 L356.56,297.37 Z M420.40,291.75 L418.56,280.03 L451.92,279.21 L417.24,278.98 L415.93,274.88 L420.40,291.75 Z M820.64,553.72 L815.17,553.65 L834.96,556.65 L820.64,553.72 Z M819.28,601.24 L819.72,600.93 L820.78,598.36 L819.28,601.24 Z M667.35,197.32 L683.38,188.88 L662.62,199.66 L667.35,197.32 Z M654.74,224.03 L654.45,224.76 L659.47,224.14 L654.74,224.03 Z M653.95,226.02 L655.75,228.20 L654.13,225.57 L653.95,226.02 Z M679.17,247.23 L684.82,244.88 L678.85,246.59 L679.17,247.23 Z M679.17,259.53 L681.01,259.88 L678.25,257.18 L679.17,259.53 Z M653.69,264.92 L653.72,271.65 L653.95,271.60 L654.74,261.75 L653.69,264.92 Z M657.10,302.53 L657.00,299.07 L655.79,299.83 L653.82,297.60 L657.10,302.53 Z M649.69,309.31 L650.80,308.85 L657.10,302.53 L649.69,309.31 Z M676.72,293.97 L672.21,292.68 L666.56,293.04 L676.72,293.97 Z M676.54,322.09 L674.84,312.13 L673.76,311.88 L676.54,322.09 Z M671.03,334.28 L677.46,348.57 L670.24,332.05 L671.03,334.28 Z M668.79,373.66 L679.96,371.77 L668.79,373.64 L668.79,373.66 Z M664.07,380.79 L664.07,384.54 L666.39,377.27 L664.07,380.79 Z M664.05,384.54 L664.72,385.59 L668.53,385.24 L664.07,384.54 L664.05,384.54 Z M674.71,401.53 L671.16,395.20 L667.35,389.58 L674.71,401.53 Z M684.79,412.54 L689.29,414.65 L684.95,411.60 L691.52,405.74 L684.95,411.13 L684.88,411.07 L684.79,412.54 Z M666.82,418.87 L678.91,419.57 L673.79,418.63 L666.82,418.87 Z M667.35,412.42 L664.99,433.51 L666.82,418.87 L667.35,412.42 Z M676.15,439.72 L679.04,421.80 L678.91,419.57 L676.15,439.72 Z M670.77,439.96 L683.38,439.84 L676.15,439.72 L670.77,439.96 Z M670.50,436.32 L670.59,441.09 L670.77,439.96 L670.50,436.32 Z M690.34,433.98 L687.84,434.57 L689.81,432.11 L683.38,439.84 L690.34,433.98 Z M688.63,421.91 L691.39,421.80 L685.87,420.98 L684.43,421.80 L679.04,421.80 L688.63,421.91 Z M668.27,449.80 L669.71,446.63 L669.84,445.82 L668.27,449.80 Z M682.10,470.01 L682.40,469.37 L681.85,469.68 L682.10,470.01 Z M681.39,471.16 L681.56,471.20 L681.62,471.06 L681.39,471.16 Z M686.27,472.29 L688.63,472.41 L682.22,471.35 L686.27,472.29 Z M693.54,477.99 L691.13,475.22 L688.63,472.41 L693.54,477.99 Z M682.72,488.81 L685.74,486.94 L695.84,480.62 L695.84,480.62 L690.60,483.89 L682.72,488.81 Z M681.25,488.49 L666.05,500.53 L666.06,500.54 L682.72,488.81 L681.25,488.49 Z M687.10,489.57 L687.51,488.97 L687.32,488.93 L685.74,486.94 L687.10,489.57 Z M666.43,501.93 L668.22,503.95 L666.20,501.06 L666.43,501.93 Z M662.49,501.35 L664.33,502.40 L660.39,504.98 L666.43,501.93 L662.49,501.35 Z M655.40,507.91 L660.80,505.17 L660.39,504.98 L655.40,507.91 Z M671.55,513.30 L674.53,514.83 L674.31,513.65 L671.55,513.30 Z M661.69,518.38 L663.28,518.22 L671.55,513.30 L661.69,518.38 Z M655.00,514.59 L655.53,525.95 L655.26,519.04 L655.00,514.59 Z M690.21,542.00 L678.38,541.30 L677.93,540.58 L677.55,541.83 L690.21,542.00 Z M693.75,547.36 L695.59,547.27 L693.75,546.40 L693.75,547.36 Z M702.29,532.16 L703.21,527.71 L695.59,547.27 L702.29,532.16 Z M694.41,520.91 L691.91,519.39 L703.21,527.71 L694.41,520.91 Z M678.91,567.66 L680.35,569.89 L677.73,564.61 L678.91,567.66 Z M695.33,605.03 L694.02,603.39 L689.02,598.12 L695.33,605.03 Z M685.48,632.22 L693.23,627.06 L696.38,624.83 L685.48,632.22 Z M666.43,632.45 L669.06,636.43 L668.46,633.78 L666.43,632.45 Z M652.51,651.43 L656.30,650.50 L655.53,649.67 L659.99,646.98 L652.51,651.43 Z M667.74,662.79 L670.37,665.61 L664.97,659.81 L667.74,662.79 Z M651.58,691.18 L652.47,692.38 L652.11,691.15 L660.26,690.21 L651.58,691.18 Z M654.13,701.79 L654.87,700.64 L654.23,698.44 L654.13,701.79 Z M699.27,698.41 L695.59,696.65 L682.32,693.26 L699.27,698.41 Z M677.60,765.31 L696.25,762.62 L683.38,764.14 L677.60,765.31 Z M666.69,777.61 L671.82,778.90 L675.23,779.72 L666.69,777.61 Z M665.51,788.16 L666.03,789.24 L667.35,784.29 L665.51,788.16 Z M662.42,802.16 L671.03,801.98 L662.75,801.51 L662.99,800.63 L662.42,802.16 Z M659.08,799.75 L660.39,801.86 L660.36,802.20 L662.14,802.16 L659.08,799.75 Z M678.84,829.78 L679.96,829.28 L681.93,831.74 L679.43,827.76 L678.84,829.78 Z M665.77,867.24 L691.39,848.96 L688.67,849.97 L665.77,867.24 Z M661.70,864.43 L666.85,868.35 L665.77,867.24 L661.70,864.43 Z M679.04,882.35 L681.74,883.77 L673.27,875.00 L679.04,882.35 Z M661.83,910.59 L660.49,909.78 L661.96,911.29 L662.44,910.25 L661.83,910.59 Z M654.48,906.72 L671.95,918.09 L682.07,922.33 L661.96,911.29 L654.48,906.72 Z M689.29,925.35 L696.12,924.30 L687.02,924.40 L689.29,925.35 Z M498.95,228.36 L483.66,228.97 L487.92,230.00 L498.95,228.36 Z M521.54,238.44 L516.68,234.69 L531.39,246.17 L521.54,238.44 Z M540.72,299.13 L524.04,297.60 L509.20,297.14 L540.72,299.13 Z M526.80,324.20 L526.39,323.66 L524.30,325.96 L526.80,324.20 Z M518.52,330.29 L515.76,331.58 L520.49,330.76 L513.14,329.00 L518.52,330.29 Z M516.97,354.16 L517.21,354.18 L518.28,352.27 L518.26,352.27 L516.97,354.16 Z M543.61,364.97 L542.56,365.71 L546.88,366.83 L542.95,364.03 L533.36,365.79 L543.61,364.97 Z M533.76,375.75 L530.87,375.05 L531.13,371.65 L530.14,375.87 L533.76,375.75 Z M536.12,388.17 L527.98,380.55 L529.69,382.43 L536.12,388.17 Z M533.23,389.11 L540.46,387.47 L536.12,388.17 L533.23,389.11 Z M523.78,388.52 L523.74,387.93 L516.68,385.48 L523.78,388.52 Z M507.09,386.18 L513.92,397.07 L512.48,393.79 L505.12,380.55 L507.09,386.18 Z M550.05,408.67 L545.81,401.40 L546.89,404.22 L550.05,408.67 Z M541.64,415.59 L547.95,410.43 L549.23,410.49 L550.05,408.67 L541.64,415.59 Z M498.95,424.37 L498.29,421.09 L507.36,424.72 L496.48,420.31 L498.95,424.37 Z M517.36,434.91 L515.78,434.25 L518.39,439.57 L517.36,434.91 Z M519.05,442.53 L518.96,442.12 L509.72,449.91 L519.05,442.53 Z M521.28,443.70 L530.21,448.27 L523.91,444.88 L521.27,443.61 L518.65,452.61 L521.28,443.70 Z M529.29,455.30 L529.56,459.76 L529.84,454.76 L525.22,455.30 L529.29,455.30 Z M527.59,460.34 L523.12,460.46 L516.61,458.83 L516.03,459.76 L525.61,460.93 L534.81,459.76 L529.56,459.76 L527.59,460.34 Z M512.74,461.16 L510.68,460.59 L513.00,462.21 L516.03,459.76 L512.74,461.16 Z M514.19,469.08 L512.82,465.89 L512.74,467.37 L514.19,469.08 Z M517.86,491.51 L514.19,490.45 L514.60,488.62 L511.56,491.04 L517.86,491.51 Z M535.99,495.37 L542.82,500.06 L528.50,486.82 L529.69,488.69 L535.99,495.37 Z M511.55,530.24 L518.00,521.73 L511.03,530.29 L511.55,530.24 Z M527.06,554.42 L525.09,552.43 L528.24,561.45 L527.06,554.42 Z M544.92,583.24 L529.95,586.41 L524.96,587.93 L544.92,583.24 Z M526.27,590.27 L530.87,597.42 L524.96,587.93 L526.27,590.27 Z M538.09,601.40 L534.55,596.13 L542.95,608.78 L538.09,601.40 Z M550.16,621.17 L545.32,612.77 L550.16,621.17 L550.16,621.17 Z M542.23,656.07 L541.64,653.30 L540.20,656.94 L542.23,656.07 Z M534.50,674.32 L541.25,674.63 L537.31,673.46 L534.50,674.32 Z M529.79,674.10 L532.39,674.22 L530.87,673.11 L529.79,674.10 Z M528.24,707.90 L495.53,711.77 L493.59,712.06 L528.24,707.90 Z M520.49,630.81 L532.05,629.52 L525.75,622.14 L531.66,629.17 L520.49,630.81 Z M419.22,574.57 L425.26,580.90 L419.72,573.44 L419.22,574.57 Z M424.19,585.07 L424.86,584.41 L425.26,580.90 L424.19,585.07 Z M153.22,150.92 L151.64,152.68 L153.60,151.01 L153.22,150.92 Z M147.30,149.63 L146.91,150.29 L148.36,150.45 L151.64,152.68 L147.30,149.63 Z M399.12,310.96 L396.88,314.36 L402.01,308.62 L399.12,310.96 Z M387.69,341.77 L396.52,342.64 L394.78,341.66 L387.69,341.77 Z M398.32,343.66 L397.54,348.45 L398.72,343.88 L398.32,343.66 Z M372.71,352.20 L397.28,354.19 L392.55,353.14 L371.65,351.77 L369.17,358.06 L372.71,352.20 Z M397.75,365.68 L398.33,362.39 L397.28,354.19 L397.75,365.68 Z M363.26,357.12 L371.27,359.35 L369.17,358.06 L363.26,357.12 Z M414.09,405.16 L411.60,403.75 L414.88,407.58 L414.09,405.16 Z M381.52,402.23 L386.38,404.10 L380.46,401.53 L378.13,402.81 L381.52,402.23 Z M381.40,408.66 L381.40,408.74 L382.70,407.50 L381.40,408.66 Z M410.41,429.18 L414.88,424.84 L407.92,427.42 L411.86,426.83 L410.41,429.18 Z M377.57,431.52 L385.32,431.87 L392.02,429.76 L380.99,431.40 L373.90,429.88 L377.57,431.52 Z M385.98,438.41 L387.57,440.50 L386.77,438.31 L385.98,438.41 Z M387.68,440.80 L387.16,446.63 L388.61,443.35 L387.68,440.80 Z M387.35,457.70 L386.81,458.24 L388.08,459.17 L387.35,457.70 Z M406.35,466.25 L406.56,466.79 L407.01,466.43 L406.35,466.25 Z M405.57,488.60 L403.45,488.69 L405.95,481.78 L402.93,487.64 L403.69,489.67 L405.57,488.60 Z M424.94,534.07 L423.88,532.45 L423.94,532.86 L417.24,531.81 L424.94,534.07 Z M78.08,332.87 L74.66,326.78 L76.63,330.53 L78.08,332.87 Z M187.50,313.07 L190.65,312.60 L185.02,312.20 L187.50,313.07 Z M205.10,339.78 L205.50,335.45 L204.58,333.10 L205.10,339.78 Z M226.72,338.57 L227.30,337.79 L224.02,334.39 L226.72,338.57 Z M247.01,315.53 L245.69,313.07 L243.59,302.06 L244.51,313.07 L247.01,315.53 Z M273.41,304.17 L275.90,302.64 L266.97,305.22 L273.41,304.17 Z M299.02,323.15 L297.05,319.51 L300.07,313.54 L296.53,318.69 L299.02,323.15 Z M300.60,320.92 L298.97,318.80 L298.89,319.05 L297.05,319.51 L300.60,320.92 Z M306.77,318.58 L310.71,315.76 L300.60,320.92 L306.77,318.58 Z M308.55,319.46 L311.37,319.28 L306.77,318.58 L308.55,319.46 Z M300.34,331.82 L302.96,330.18 L298.35,331.88 L301.64,333.17 L301.68,333.12 L300.34,331.82 Z M318.59,320.69 L314.79,316.94 L315.71,318.34 L318.59,320.69 Z M329.89,313.77 L326.21,314.71 L325.25,316.11 L329.89,313.77 Z M351.83,327.72 L363.91,330.18 L345.65,325.02 L351.83,327.72 Z M141.79,374.11 L137.98,429.64 L141.92,372.47 L141.79,374.11 Z M164.99,361.97 L164.60,362.19 L164.91,362.16 L164.99,361.97 Z M204.10,348.99 L201.23,348.11 L201.29,349.27 L204.10,348.99 Z M222.70,345.76 L219.94,348.02 L219.16,350.80 L222.70,345.76 Z M222.18,354.66 L221.65,353.37 L219.16,350.80 L222.18,354.66 Z M220.21,356.19 L223.92,354.02 L222.18,354.66 L220.21,356.19 Z M242.28,398.01 L240.96,397.54 L241.67,399.20 L242.28,398.01 Z M242.96,400.91 L242.32,400.72 L242.67,401.53 L242.96,400.91 Z M245.82,390.86 L244.58,397.39 L246.61,392.97 L245.82,390.86 Z M252.62,386.55 L260.27,376.22 L245.82,390.86 L252.62,386.55 Z M320.04,363.92 L318.14,364.36 L318.20,364.39 L318.07,365.25 L320.04,363.92 Z M333.31,365.91 L330.38,365.94 L328.18,367.67 L333.31,365.91 Z M346.97,384.30 L338.43,382.19 L339.61,383.60 L346.97,384.30 Z M367.72,403.64 L358.13,406.21 L371.86,403.87 L367.72,403.64 Z M378.89,397.31 L376.31,403.12 L377.18,402.97 L378.89,397.31 Z M160.12,453.80 L169.64,454.37 L163.07,453.08 L160.12,453.80 Z M210.75,450.50 L221.78,453.78 L222.11,453.74 L210.75,450.50 Z M362.23,486.00 L365.36,487.29 L362.73,483.42 L362.23,486.00 Z M367.88,483.30 L371.27,481.31 L368.77,481.90 L367.88,483.30 Z M370.19,485.49 L371.15,484.67 L371.27,481.31 L370.19,485.49 Z M371.65,484.25 L378.23,478.62 L373.63,481.08 L371.65,484.25 Z M368.42,518.28 L365.88,518.45 L363.43,519.08 L368.42,518.28 Z M381.25,518.10 L389.40,516.81 L379.49,517.50 L381.25,518.10 Z M314.82,544.38 L317.41,542.35 L319.38,536.85 L314.82,544.38 Z M342.76,469.71 L334.36,450.85 L339.74,465.73 L342.76,469.71 Z M348.71,465.29 L350.12,464.91 L352.62,462.24 L351.57,462.33 L348.71,465.29 Z M343.20,406.76 L339.09,409.49 L343.82,407.38 L343.20,406.76 Z M317.28,432.22 L315.83,434.32 L320.30,431.87 L317.28,432.22 Z M272.49,348.10 L274.59,346.23 L275.38,344.82 L272.49,348.10 Z M297.73,355.54 L298.10,355.48 L302.31,353.37 L297.73,355.54 Z M332.26,335.45 L334.28,335.30 L333.94,334.90 L332.26,335.45 Z M336.38,337.79 L336.99,339.67 L341.32,343.65 L336.38,337.79 Z M340.53,345.29 L342.12,343.26 L341.32,343.65 L340.53,345.29 Z M356.89,359.93 L358.13,360.87 L359.12,359.70 L356.89,359.93 Z M391.10,379.50 L389.99,379.72 L390.84,381.61 L391.50,376.45 L391.10,379.50 Z M380.99,384.42 L377.05,390.63 L377.24,390.79 L380.99,384.42 Z M280.50,368.84 L280.62,368.15 L279.24,369.24 L280.50,368.84 Z M100.41,377.27 L101.07,376.62 L98.51,376.80 L100.41,377.27 Z M110.26,367.43 L102.38,373.52 L101.89,375.79 L110.26,367.43 Z M247.14,344.35 L243.72,341.66 L244.51,343.30 L241.09,343.18 L247.14,344.35 Z M297.31,332.27 L296.00,332.75 L294.95,338.38 L297.31,332.27 Z M361.81,336.03 L353.01,339.90 L353.61,340.38 L361.81,336.03 Z M277.30,335.77 L277.50,335.61 L276.82,335.56 L277.30,335.77 Z M78.21,296.32 L71.12,297.72 L73.88,297.49 L78.21,296.32 Z M96.34,238.32 L92.53,243.59 L99.08,236.97 L96.34,238.32 Z M103.53,230.32 L104.35,231.29 L102.25,232.35 L102.37,233.64 L105.27,230.71 L114.99,234.81 L108.16,231.17 L103.83,230.00 L103.53,230.32 Z M132.46,269.37 L130.60,259.86 L130.36,262.93 L132.46,269.37 Z M175.62,266.45 L174.89,267.26 L176.33,269.25 L175.62,266.45 Z M219.81,280.50 L214.69,284.48 L214.35,285.47 L219.81,280.50 Z M282.73,300.53 L286.54,297.49 L278.27,303.46 L284.98,301.01 L282.73,300.53 Z M295.19,299.41 L293.77,298.78 L289.30,301.94 L292.45,299.83 L295.19,299.41 Z M301.65,302.29 L301.77,302.24 L301.12,298.66 L301.65,302.29 Z M304.41,310.49 L299.94,308.38 L302.44,304.63 L298.63,308.03 L304.41,310.49 Z M307.17,309.44 L310.58,306.74 L306.64,307.45 L308.74,308.15 L307.17,309.44 Z M309.01,312.37 L311.11,314.36 L311.69,313.89 L307.17,309.44 L309.01,312.37 Z M215.87,298.07 L211.67,293.15 L210.98,293.50 L211.93,293.50 L215.87,298.07 Z M357.53,300.00 L360.63,308.38 L359.58,314.71 L360.89,307.45 L357.53,300.00 Z M145.07,205.28 L150.85,210.67 L140.87,200.48 L145.07,205.28 Z M145.60,220.63 L149.14,215.24 L150.85,210.67 L145.60,220.63 Z M184.61,214.07 L189.73,215.12 L192.10,214.30 L184.61,214.07 Z M177.78,263.51 L181.46,259.53 L175.02,264.10 L177.78,263.51 Z M216.48,251.09 L215.83,251.72 L216.53,251.21 L224.28,257.30 L216.48,251.09 Z M134.56,155.72 L129.18,160.53 L128.65,162.55 L134.56,155.72 Z M182.11,188.65 L169.64,187.83 L176.99,188.65 L188.68,190.87 L182.11,188.65 Z M179.88,169.31 L177.25,171.42 L179.36,169.78 L185.66,164.39 L179.88,169.31 Z M412.76,433.43 L423.81,430.35 L413.30,433.04 L412.76,433.43 Z M451.27,422.26 L451.53,431.40 L451.53,426.13 L454.78,426.58 L452.84,426.25 L451.27,422.26 Z M472.81,429.53 L472.04,428.23 L470.64,428.52 L472.81,429.53 Z M474.78,418.63 L469.39,410.66 L474.78,419.97 L474.78,418.63 Z M435.37,533.80 L425.21,534.15 L426.83,534.62 L435.37,533.80 Z M449.05,545.40 L449.16,540.48 L447.85,545.52 L449.05,545.40 Z M459.67,542.82 L451.99,545.11 L452.58,545.05 L459.67,542.82 Z M497.64,527.36 L488.18,527.94 L485.16,528.29 L497.64,527.36 Z M489.10,561.33 L499.21,554.19 L497.37,554.19 L493.30,557.58 L489.10,561.33 Z M523.44,570.68 L520.75,568.01 L521.81,570.59 L523.44,570.68 Z M441.81,596.01 L440.76,600.82 L439.78,600.97 L441.10,601.50 L441.81,596.01 Z M441.91,601.83 L442.60,602.11 L450.48,599.18 L441.91,601.83 Z M471.21,593.56 L471.17,594.44 L472.55,592.85 L471.21,593.56 Z M484.63,600.93 L472.58,592.76 L472.55,592.85 L484.63,600.93 Z M455.73,610.07 L449.82,614.06 L450.74,614.84 L455.73,610.07 Z M457.05,644.99 L455.60,646.74 L459.54,643.58 L457.05,644.99 Z M467.23,626.42 L469.92,625.54 L469.96,624.55 L467.23,626.42 Z M494.35,611.13 L488.97,607.38 L492.91,610.19 L493.96,616.87 L494.35,611.13 Z M513.14,619.80 L513.66,621.32 L514.17,621.19 L513.14,619.80 Z M514.97,721.96 L503.97,723.85 L509.33,724.07 L514.97,721.96 Z M483.84,561.92 L484.89,576.21 L485.29,572.82 L487.13,575.04 L483.84,561.92 Z M517.47,594.14 L496.06,598.94 L505.91,597.65 L517.47,594.14 Z M447.46,581.25 L446.27,578.67 L445.09,576.45 L447.46,581.25 Z M425.39,572.46 L420.53,571.64 L419.97,572.88 L425.39,572.46 Z M425.91,570.59 L425.78,566.37 L425.39,572.46 L425.91,570.59 Z M480.43,573.05 L479.84,573.83 L480.88,573.67 L480.43,573.05 Z M408.18,486.12 L411.20,487.87 L411.84,487.57 L408.18,486.12 Z M412.93,488.00 L412.78,488.69 L413.51,488.23 L412.93,488.00 Z M420.53,483.77 L443.70,482.15 L443.65,482.13 L420.53,483.77 Z M448.51,460.93 L448.77,462.33 L451.48,465.10 L451.49,465.09 L448.51,460.93 Z M459.94,462.22 L471.76,474.28 L464.66,466.67 L459.94,462.22 Z M483.84,490.69 L483.44,490.88 L485.81,491.15 L483.84,490.69 Z M440.79,510.84 L440.36,510.13 L440.36,511.66 L440.79,510.84 Z M467.82,501.93 L469.79,507.09 L470.05,509.43 L469.92,504.75 L467.82,501.93 Z M482.79,492.33 L482.79,491.18 L477.41,493.73 L482.79,492.33 Z M472.81,510.49 L472.44,510.34 L471.23,515.52 L472.81,510.49 Z M505.46,519.07 L506.04,518.45 L506.70,516.58 L505.46,519.07 Z M414.22,490.45 L412.84,489.94 L414.22,494.55 L414.22,490.45 Z M445.49,491.97 L446.41,483.07 L445.61,482.80 L445.49,491.97 Z M473.73,483.54 L474.33,482.72 L473.30,482.94 L473.73,483.54 Z M475.57,459.52 L476.88,457.53 L473.99,461.40 L475.57,459.52 Z M490.54,462.57 L485.42,460.34 L482.74,459.69 L490.54,462.57 Z M506.44,459.40 L501.84,461.51 L508.25,459.91 L506.44,459.40 Z M425.39,459.40 L420.79,450.27 L423.02,455.07 L425.39,459.40 Z M419.61,345.52 L415.80,344.23 L416.02,343.70 L402.27,341.42 L419.61,345.52 Z M420.83,360.01 L421.32,351.50 L419.61,345.52 L420.83,360.01 Z M420.27,369.89 L420.76,361.28 L419.48,362.63 L420.27,369.89 Z M447.06,366.26 L446.30,367.04 L452.97,365.68 L447.06,366.26 Z M474.90,353.06 L474.25,352.79 L476.75,345.17 L472.81,355.37 L474.90,353.06 Z M490.28,362.98 L485.81,357.59 L490.41,363.80 L488.31,368.14 L486.21,373.41 L490.80,365.32 L490.28,362.98 Z M482.27,360.29 L486.73,367.43 L480.43,366.61 L488.31,368.14 L482.27,360.29 Z M500.39,354.66 L501.58,355.37 L501.31,351.50 L496.58,360.87 L500.39,354.66 Z M498.04,361.24 L498.04,361.24 L500.53,361.57 L509.06,367.78 L501.97,361.69 L498.04,361.24 Z M462.46,395.89 L466.04,399.29 L464.27,396.84 L462.46,395.89 Z M468.74,399.65 L468.34,402.46 L468.26,402.34 L471.76,409.14 L468.74,399.65 Z M494.09,394.38 L495.59,395.24 L490.41,391.10 L493.07,394.30 L494.09,394.38 Z M441.79,418.26 L439.84,417.93 L434.85,419.57 L441.79,418.26 Z M446.67,419.10 L442.28,418.35 L439.05,429.88 L442.20,419.10 L446.67,419.10 Z M460.72,365.91 L458.89,362.16 L456.13,360.52 L460.72,365.91 Z M464.80,369.78 L480.03,368.14 L468.61,369.31 L468.15,368.95 L466.50,369.54 L464.80,369.78 Z M507.62,371.18 L507.75,375.17 L508.28,376.07 L508.69,372.07 L507.62,371.18 Z M509.06,372.82 L509.14,372.45 L509.00,372.33 L509.06,372.82 Z M526.80,375.99 L529.37,375.90 L511.82,370.83 L526.80,375.99 Z M488.07,382.47 L488.07,382.47 L490.28,381.37 L491.59,380.67 L488.07,382.47 Z M512.22,360.40 L515.64,354.72 L514.32,355.25 L512.22,360.40 Z M517.89,352.22 L516.03,351.97 L508.12,354.88 L508.12,354.91 L517.89,352.22 Z M407.32,313.11 L408.71,314.29 L408.71,313.30 L407.32,313.11 Z M414.08,322.32 L414.08,322.32 L418.56,312.95 L414.08,322.32 Z M437.47,306.39 L431.30,306.98 L437.87,306.98 L443.91,311.90 L437.47,306.39 Z M452.71,309.32 L456.65,310.61 L457.18,309.79 L452.71,309.32 Z M460.46,310.14 L459.67,313.07 L465.72,300.18 L460.46,310.14 Z M460.99,331.46 L457.31,330.06 L462.30,333.22 L461.54,330.96 L460.99,331.46 Z M484.76,284.60 L470.18,269.84 L487.65,288.11 L484.76,284.60 Z M491.72,261.28 L493.04,275.11 L493.17,269.02 L491.72,261.28 Z M487.26,250.15 L484.76,250.74 L497.64,250.97 L487.26,250.15 Z M479.77,241.37 L481.28,242.87 L476.88,237.50 L479.77,241.37 Z M554.38,226.08 L547.03,222.97 L549.52,225.20 L554.38,226.08 Z M539.67,227.31 L527.59,228.36 L540.59,227.43 L547.03,222.97 L539.67,227.31 Z M562.92,245.47 L565.15,248.87 L561.87,240.66 L562.92,245.47 Z M589.45,267.73 L593.13,265.03 L593.17,265.00 L583.41,258.47 L587.75,261.87 L592.74,264.80 L589.45,267.73 Z M626.23,307.80 L625.71,309.91 L627.15,315.41 L626.23,307.80 Z M604.17,327.60 L607.45,327.72 L602.74,327.49 L605.27,331.43 L604.17,327.60 Z M612.31,368.25 L610.08,373.64 L610.60,377.74 L612.31,368.25 Z M626.37,385.28 L625.65,385.74 L626.23,385.94 L626.37,385.28 Z M597.20,406.21 L595.23,408.44 L598.99,404.28 L598.97,404.27 L594.31,407.62 L597.20,406.21 Z M597.59,412.44 L597.99,411.37 L595.23,408.44 L597.59,412.44 Z M599.10,415.00 L599.44,415.59 L603.12,417.34 L599.10,415.00 Z M604.43,425.78 L605.90,426.23 L603.12,417.34 L604.43,425.78 Z M611.14,428.51 L611.52,429.53 L619.40,430.35 L611.14,428.51 Z M611.43,443.74 L611.13,443.70 L608.90,443.24 L609.95,444.41 L611.43,443.74 Z M606.66,474.52 L600.23,476.04 L607.68,474.87 L606.66,474.52 Z M601.80,478.50 L596.81,481.08 L599.70,480.26 L601.80,478.50 Z M632.54,512.48 L630.57,523.37 L632.80,517.87 L632.54,512.48 Z M621.24,541.06 L617.43,541.18 L623.48,541.30 L621.24,541.06 Z M627.68,547.16 L624.53,556.88 L626.37,552.31 L627.68,547.16 Z M615.33,569.65 L614.14,572.36 L615.33,572.46 L615.33,569.65 Z M600.23,579.26 L591.03,591.91 L593.26,589.69 L600.23,579.26 Z M605.48,619.33 L597.99,613.70 L597.99,616.56 L605.48,619.33 Z M615.07,635.38 L632.54,642.88 L627.55,639.60 L615.07,635.38 Z M634.38,645.46 L633.16,642.92 L632.54,642.88 L634.38,645.46 Z M633.20,648.62 L604.43,652.02 L608.11,652.02 L633.20,648.62 Z M620.76,717.39 L619.93,717.86 L614.41,716.45 L619.27,718.80 L620.76,717.39 Z M613.33,718.56 L610.60,717.98 L612.97,719.27 L613.33,718.56 Z M618.09,747.27 L618.36,749.14 L619.27,748.32 L618.09,747.27 Z M618.55,750.48 L618.88,752.77 L619.56,750.94 L618.55,750.48 Z M621.77,760.86 L612.97,758.16 L627.68,763.08 L621.77,760.86 Z M599.44,777.96 L591.97,776.50 L602.33,779.84 L599.44,777.96 Z M601.01,793.55 L595.89,793.19 L601.29,794.84 L601.01,793.55 Z M619.80,805.15 L620.32,807.96 L620.80,808.29 L619.80,805.15 Z M587.35,823.42 L587.46,823.10 L581.70,830.57 L587.35,823.42 Z M595.89,841.58 L588.67,844.98 L606.14,838.54 L595.89,841.58 Z M620.72,837.01 L634.51,846.15 L642.02,850.57 L620.72,837.01 Z M590.84,895.74 L590.11,897.47 L594.05,903.91 L590.84,895.74 Z M590.51,912.93 L584.73,925.00 L584.86,927.23 L590.51,912.93 Z M596.88,354.08 L599.18,353.84 L608.90,347.40 L596.88,354.08 Z M543.87,525.95 L542.17,515.99 L542.56,519.04 L543.87,525.95 Z M550.18,515.52 L547.42,514.47 L542.17,515.99 L550.18,515.52 Z M551.75,520.80 L554.78,512.24 L553.57,513.10 L551.75,520.80 Z M531.53,687.63 L523.25,688.69 L533.11,688.50 L531.53,687.63 Z M538.36,692.44 L536.78,689.74 L536.39,688.34 L535.92,689.23 L538.36,692.44 Z M558.72,708.84 L555.56,694.55 L559.51,713.64 L558.72,708.84 Z M573.30,688.69 L567.39,706.61 L572.51,693.49 L573.30,688.69 Z M569.83,710.88 L570.15,709.78 L582.89,724.89 L574.48,714.46 L567.39,706.61 L569.83,710.88 Z M556.88,777.73 L563.31,773.51 L555.57,778.15 L559.90,780.31 L556.88,777.73 Z M560.56,772.34 L559.68,772.64 L563.31,773.51 L560.56,772.34 Z M596.81,795.30 L588.01,820.61 L587.82,820.54 L588.24,820.79 L596.81,795.30 Z M599.31,850.96 L597.34,851.89 L590.64,855.99 L599.31,850.96 Z M584.94,839.62 L583.67,839.00 L585.12,840.88 L584.94,839.62 Z M579.34,755.23 L589.98,744.81 L590.90,743.29 L585.25,749.26 L571.85,759.92 L579.34,755.23 Z M594.84,736.84 L594.58,732.39 L593.44,739.14 L594.84,736.84 Z M561.49,589.84 L561.61,593.08 L565.64,604.35 L565.65,604.35 L561.49,589.84 Z M570.15,604.45 L575.40,628.47 L573.03,616.63 L570.15,604.45 Z M559.71,571.37 L547.81,585.00 L557.14,574.92 L559.71,571.37 Z M561.98,568.23 L562.39,567.66 L560.56,564.73 L561.98,568.23 Z M568.04,549.27 L568.43,550.05 L568.90,548.83 L568.04,549.27 Z M573.82,546.34 L571.40,547.56 L575.54,546.78 L573.82,546.34 Z M594.25,542.53 L598.91,551.84 L595.23,543.29 L594.25,542.53 Z M566.20,386.65 L566.26,386.65 L558.19,382.78 L561.61,384.42 L566.20,386.65 Z M578.72,395.62 L578.68,395.63 L578.65,395.89 L578.72,395.62 Z M583.02,387.12 L584.42,387.67 L583.02,386.53 L581.18,390.16 L583.02,387.12 Z M583.41,449.33 L598.26,445.46 L592.74,445.93 L583.41,449.33 Z M543.22,506.03 L539.01,505.21 L544.69,506.53 L543.55,505.37 L543.22,506.03 Z M552.17,496.87 L551.89,496.90 L545.98,500.53 L552.17,496.87 Z M559.11,496.31 L556.40,496.53 L564.76,499.47 L565.56,499.79 L559.11,496.31 Z M575.14,495.25 L576.32,498.65 L575.79,496.31 L576.84,493.61 L575.14,495.25 Z M589.85,491.04 L590.04,492.05 L592.74,489.87 L589.85,491.04 Z M543.74,484.12 L542.60,483.85 L543.35,486.47 L543.74,484.12 Z M554.98,435.08 L555.43,434.10 L550.70,429.53 L554.98,435.08 Z M560.42,439.60 L561.61,434.80 L560.95,436.09 L560.42,439.60 Z M574.15,429.43 L573.82,429.41 L570.67,435.03 L574.15,429.43 Z M585.12,430.82 L587.35,430.47 L578.68,431.29 L585.12,430.82 Z M581.61,418.48 L582.49,416.87 L580.96,414.82 L581.61,418.48 Z M570.54,407.62 L571.63,407.32 L570.26,407.48 L570.54,407.62 Z M576.06,406.10 L576.37,404.85 L575.43,406.27 L576.06,406.10 Z M537.57,349.74 L543.96,353.76 L543.96,353.76 L537.57,349.74 Z M565.28,347.16 L565.81,344.23 L566.07,341.31 L565.28,347.16 Z M574.48,352.32 L576.71,350.33 L581.70,344.35 L574.48,352.32 Z M555.96,369.19 L557.93,368.37 L555.94,369.19 L555.96,369.19 Z M582.10,359.00 L576.06,366.26 L584.79,357.49 L582.10,359.00 Z M586.58,354.82 L586.64,355.63 L588.54,353.72 L586.58,354.82 Z M591.79,356.91 L595.37,360.40 L593.13,357.12 L593.83,355.77 L591.79,356.91 Z M611.65,294.56 L618.02,296.38 L608.37,291.63 L611.65,294.56 Z M550.97,329.47 L556.88,335.10 L561.61,338.26 L550.97,329.47 Z M556.09,255.66 L540.33,266.21 L551.75,258.59 L556.09,255.66 Z M620.98,235.98 L624.00,233.99 L618.48,237.38 L620.98,235.98 Z M628.21,256.60 L619.27,252.62 L634.12,259.88 L642.92,264.45 L628.21,256.60 Z M575.53,231.06 L569.88,233.63 L566.73,236.45 L575.53,231.06 Z M638.32,713.99 L635.69,719.62 L637.53,717.74 L638.32,713.99 Z M644.67,720.54 L643.97,718.91 L639.06,716.40 L639.02,716.44 L644.67,720.54 Z M644.15,722.11 L644.89,724.30 L646.39,724.52 L644.87,721.01 L644.15,722.11 Z M650.54,718.68 L647.36,724.66 L647.46,724.67 L650.54,718.68 Z M643.21,851.27 L643.21,851.27 L645.54,847.79 L643.21,851.27 Z M662.23,837.83 L658.68,839.59 L645.54,847.79 L662.23,837.83 Z M663.80,839.71 L672.69,836.37 L672.08,835.72 L663.80,839.71 Z M628.21,876.26 L627.02,875.21 L627.96,877.10 L628.21,876.26 Z M664.46,895.12 L658.02,887.98 L661.57,892.66 L664.46,895.12 Z M652.33,792.53 L651.85,791.32 L640.95,784.99 L652.33,792.53 Z M646.17,825.87 L651.98,822.37 L647.38,823.77 L646.17,825.87 Z M643.77,827.32 L641.21,827.17 L643.44,832.09 L642.26,828.23 L643.77,827.32 Z M633.07,767.65 L636.16,760.56 L635.17,761.09 L633.07,767.65 Z M640.12,757.83 L645.02,755.82 L639.63,757.11 L640.12,757.83 Z M646.73,650.49 L639.76,656.00 L647.53,650.44 L646.73,650.49 Z M649.43,650.31 L649.62,650.84 L651.85,650.14 L649.43,650.31 Z M629.60,680.69 L629.52,680.95 L632.93,688.80 L629.60,680.69 Z M650.99,690.39 L651.19,689.51 L643.44,680.25 L650.99,690.39 Z M652.08,704.98 L644.88,711.30 L651.32,706.14 L652.08,704.98 Z M638.06,593.79 L635.56,593.55 L629.65,597.07 L638.06,593.79 Z M641.73,592.50 L640.29,585.70 L641.42,592.83 L641.73,592.50 Z M641.47,581.95 L638.36,580.73 L638.71,581.72 L641.47,581.95 Z M671.55,585.47 L655.92,568.36 L661.70,574.92 L671.55,585.47 Z M637.66,617.10 L628.47,617.92 L637.82,617.18 L637.66,617.10 Z M652.91,627.48 L652.63,626.83 L648.28,627.36 L652.91,627.48 Z M635.97,549.28 L635.97,549.28 L642.00,552.66 L635.97,549.28 Z M627.60,568.64 L627.81,569.53 L632.41,569.42 L627.60,568.64 Z M637.27,434.45 L637.27,425.54 L636.42,425.60 L637.01,426.72 L637.27,434.45 Z M654.21,417.46 L649.09,415.23 L654.21,417.46 L654.21,417.46 Z M650.82,427.96 L649.62,427.18 L648.30,426.95 L650.82,427.96 Z M644.62,493.85 L644.36,495.96 L646.86,488.69 L644.62,493.85 Z M662.75,489.16 L662.10,492.33 L666.17,484.24 L662.75,489.16 Z M649.55,500.20 L657.37,498.54 L650.01,499.71 L649.55,500.20 Z M658.36,500.40 L658.40,500.38 L657.37,498.54 L658.36,500.40 Z M648.78,505.61 L645.28,504.75 L647.25,505.57 L646.07,506.97 L648.78,505.61 Z M648.96,512.36 L637.53,520.33 L650.58,512.39 L647.91,509.90 L646.07,506.97 L648.96,512.36 Z M643.31,460.46 L631.23,449.68 L634.38,452.61 L643.31,460.46 Z M673.39,483.54 L675.23,485.96 L676.41,485.88 L673.39,483.54 Z M620.13,444.87 L613.90,444.06 L615.07,445.11 L620.13,444.87 Z M631.88,446.40 L631.86,446.51 L633.12,444.14 L631.49,440.78 L631.88,446.40 Z M632.80,381.02 L638.43,385.20 L637.79,383.72 L632.80,381.02 Z M646.33,388.29 L654.29,383.40 L654.29,383.40 L646.33,388.29 Z M626.50,422.85 L617.70,420.04 L609.03,417.34 L626.50,422.85 Z M633.46,402.35 L640.16,399.77 L624.00,405.51 L633.46,402.35 Z M655.79,404.46 L656.58,406.21 L655.66,403.64 L640.16,399.77 L655.79,404.46 Z M663.21,384.54 L661.70,384.54 L661.57,386.65 L663.21,384.54 Z M659.20,358.71 L630.96,361.93 L654.48,359.82 L659.20,358.71 Z M640.95,234.22 L636.35,237.97 L650.54,229.89 L640.95,234.22 Z M701.48,902.04 L695.07,899.93 L700.98,902.27 L701.48,902.04 Z M738.56,70.78 L744.14,70.40 L741.17,69.73 L738.56,70.78 Z M720.94,133.23 L723.44,131.35 L717.13,133.81 L720.94,133.23 Z M721.99,151.15 L721.45,141.89 L720.68,146.12 L721.99,151.15 Z M724.36,152.56 L729.74,155.61 L721.99,151.15 L724.36,152.56 Z M728.30,175.41 L725.67,175.87 L713.85,180.44 L728.30,175.41 Z M698.22,213.01 L720.42,218.64 L714.11,217.00 L685.87,209.73 L698.22,213.01 Z M738.55,238.44 L724.36,238.20 L736.31,238.44 L738.55,238.44 Z M743.03,248.59 L742.09,248.63 L737.63,252.26 L743.03,248.59 Z M723.31,280.03 L728.17,281.67 L718.84,278.51 L716.35,277.69 L723.31,280.03 Z M764.53,268.17 L763.65,267.81 L763.77,268.90 L764.53,268.17 Z M750.24,326.19 L751.02,306.51 L749.45,322.56 L750.24,326.19 Z M765.74,420.86 L754.31,402.46 L756.28,406.80 L765.74,420.86 Z M757.33,422.73 L758.67,424.06 L758.12,423.44 L765.74,420.86 L757.33,422.73 Z M753.00,422.90 L754.18,423.67 L757.33,422.73 L753.00,422.90 Z M750.24,424.37 L753.91,423.79 L756.54,427.30 L754.18,423.67 L750.24,424.37 Z M755.33,427.69 L755.62,427.65 L756.94,431.64 L756.54,427.30 L755.33,427.69 Z M754.05,431.40 L759.17,432.69 L756.94,431.64 L754.05,431.40 Z M752.91,428.46 L749.58,429.53 L752.73,429.41 L753.91,434.92 L754.05,431.40 L752.91,428.46 Z M753.91,439.48 L755.03,439.35 L753.91,434.92 L753.91,439.48 Z M761.27,433.86 L761.40,440.07 L761.93,437.85 L762.34,433.57 L759.17,432.69 L761.27,433.86 Z M758.72,430.49 L758.64,430.11 L757.33,427.65 L760.91,426.55 L760.89,426.53 L756.54,427.30 L758.72,430.49 Z M762.45,430.93 L762.54,431.42 L762.71,429.74 L758.64,430.11 L762.45,430.93 Z M772.96,431.29 L776.51,435.03 L765.74,420.86 L772.96,431.29 Z M775.98,417.23 L777.39,416.70 L765.74,420.86 L775.98,417.23 Z M756.98,440.96 L757.16,440.48 L756.70,440.53 L756.98,440.96 Z M759.26,442.59 L757.85,442.31 L757.99,442.53 L759.26,442.59 Z M764.97,443.68 L763.43,443.39 L763.05,444.49 L764.97,443.68 Z M763.50,449.21 L768.89,448.16 L761.53,448.98 L759.04,449.09 L763.50,449.21 Z M757.98,448.90 L758.91,456.71 L759.17,454.60 L759.04,449.09 L757.98,448.90 Z M762.37,454.29 L762.47,454.12 L759.17,454.60 L762.37,454.29 Z M756.02,460.58 L759.96,460.34 L767.97,458.82 L771.52,459.87 L773.22,459.99 L767.32,458.07 L765.47,459.17 L758.64,460.22 L746.03,461.51 L756.02,460.58 Z M758.52,466.76 L758.65,466.16 L757.33,466.67 L758.52,466.76 Z M756.90,466.40 L757.09,467.23 L757.33,466.67 L756.90,466.40 Z M754.27,472.09 L755.62,471.35 L760.09,473.58 L760.33,473.52 L755.75,470.30 L754.27,472.09 Z M759.00,478.35 L759.96,477.33 L760.09,473.58 L759.00,478.35 Z M756.24,469.17 L751.29,470.30 L755.75,470.30 L756.24,469.17 Z M761.52,482.51 L758.63,480.00 L758.12,482.23 L761.52,482.51 Z M763.24,484.01 L763.05,483.84 L763.18,484.19 L763.24,484.01 Z M767.31,491.39 L764.36,492.21 L764.73,492.58 L767.31,491.39 Z M752.60,527.12 L763.00,522.83 L749.71,527.83 L752.60,527.12 Z M754.18,539.07 L753.72,535.64 L752.60,536.50 L754.18,539.07 Z M753.39,549.50 L749.45,540.95 L755.75,555.01 L753.39,549.50 Z M748.17,575.13 L755.62,572.82 L749.45,573.99 L748.17,575.13 Z M767.97,593.55 L762.45,591.21 L761.32,590.80 L764.16,593.08 L767.97,593.55 Z M768.89,596.60 L770.13,597.12 L767.97,593.55 L768.89,596.60 Z M753.13,603.63 L755.36,602.93 L756.94,598.12 L755.88,601.17 L753.13,603.63 Z M753.26,606.32 L754.19,606.17 L753.13,603.63 L753.26,606.32 Z M742.35,601.67 L744.46,602.69 L755.88,601.17 L742.35,601.67 Z M764.19,613.17 L763.77,612.30 L756.94,612.77 L751.42,613.70 L764.19,613.17 Z M747.22,633.04 L750.24,629.64 L751.17,630.22 L752.60,622.49 L751.02,628.23 L747.22,633.04 Z M753.13,671.82 L753.73,671.34 L752.07,672.07 L753.13,671.82 Z M760.75,686.46 L746.16,687.40 L743.14,688.22 L760.75,686.46 Z M746.56,733.56 L742.94,724.21 L743.93,730.40 L746.56,733.56 Z M757.86,749.49 L757.19,748.49 L757.14,753.32 L757.86,749.49 Z M749.84,773.04 L752.08,769.18 L748.96,773.25 L749.84,773.04 Z M764.95,797.53 L770.99,799.87 L764.03,796.36 L764.29,800.11 L764.95,797.53 Z M761.93,829.75 L765.62,821.97 L764.42,821.90 L761.93,829.75 Z M755.10,823.31 L758.64,827.52 L761.93,829.75 L755.10,823.31 Z M760.45,840.97 L759.43,841.23 L752.08,836.78 L766.26,846.15 L760.45,840.97 Z M757.20,853.53 L756.41,864.08 L757.20,854.12 L763.11,854.24 L753.65,853.06 L757.20,853.53 Z M746.43,375.40 L730.89,384.98 L733.55,384.19 L746.43,375.40 Z M680.42,62.35 L682.98,65.04 L688.89,66.68 L680.42,62.35 Z M688.99,75.61 L689.02,78.28 L691.39,85.54 L688.99,75.61 Z M677.07,102.65 L676.81,105.46 L676.94,115.07 L677.07,102.65 Z M685.61,126.55 L686.00,127.60 L692.70,134.99 L685.61,126.55 Z M717.00,322.21 L714.38,323.50 L721.99,322.21 L717.00,322.21 Z M729.48,360.64 L723.18,357.83 L712.93,354.78 L699.01,349.86 L729.48,360.64 Z M728.30,394.61 L731.98,398.01 L733.65,398.33 L728.30,394.61 Z M737.76,398.25 L736.06,398.80 L736.84,398.95 L739.33,402.11 L737.76,398.25 Z M740.12,415.47 L739.76,418.30 L744.19,411.25 L740.12,415.47 Z M749.89,420.80 L739.67,419.04 L739.67,419.04 L749.84,420.86 L749.89,420.80 Z M739.60,424.86 L739.42,420.97 L739.33,421.68 L738.55,424.72 L739.60,424.86 Z M736.58,427.07 L735.79,430.47 L738.55,424.72 L736.58,427.07 Z M718.44,429.10 L718.19,431.52 L721.08,427.54 L718.44,429.10 Z M710.04,430.82 L716.61,431.64 L714.11,432.81 L732.77,431.87 L718.19,431.52 L710.04,430.82 Z M711.35,427.07 L709.38,432.57 L710.04,430.82 L711.35,427.07 Z M709.22,425.83 L709.25,426.01 L711.35,427.07 L709.22,425.83 Z M699.53,432.22 L704.66,433.51 L709.38,432.57 L699.53,432.22 Z M700.06,426.36 L692.18,436.44 L688.50,441.83 L693.49,435.15 L699.27,428.36 L699.53,432.22 L700.06,426.36 Z M699.97,423.71 L699.81,423.73 L700.06,426.36 L699.97,423.71 Z M695.59,450.38 L696.18,450.80 L688.50,441.83 L695.59,450.38 Z M724.23,437.96 L717.70,443.08 L717.71,443.08 L731.45,432.93 L730.66,435.15 L732.77,431.87 L724.23,437.96 Z M715.50,450.77 L714.24,450.27 L726.72,437.49 L717.71,443.08 L719.37,443.35 L712.67,451.67 L715.50,450.77 Z M705.57,448.63 L716.61,454.13 L712.67,451.67 L705.57,448.63 Z M729.61,438.43 L729.61,438.43 L733.42,436.91 L729.61,438.43 Z M729.69,441.91 L730.66,440.31 L731.40,440.44 L729.61,438.43 L729.69,441.91 Z M738.48,439.88 L738.54,438.70 L736.58,437.96 L733.42,436.91 L738.48,439.88 Z M736.74,453.34 L736.75,453.34 L731.45,448.04 L731.16,448.54 L731.19,448.51 L736.74,453.34 Z M728.43,450.97 L729.32,450.17 L727.12,450.50 L723.83,454.13 L728.43,450.97 Z M723.70,459.64 L730.66,462.45 L731.61,462.26 L723.70,459.64 Z M729.75,464.23 L730.11,466.08 L730.66,462.45 L729.75,464.23 Z M727.10,464.43 L722.81,462.75 L725.62,464.56 L727.10,464.43 Z M723.09,468.78 L722.85,468.69 L722.77,468.78 L723.09,468.78 Z M742.75,497.48 L744.72,503.10 L742.64,495.69 L742.75,497.48 Z M732.77,509.43 L726.59,511.31 L729.48,511.07 L732.77,509.43 Z M715.70,514.99 L723.31,507.32 L724.49,504.86 L715.43,513.77 L715.70,514.99 Z M714.31,516.39 L713.19,516.58 L713.75,516.95 L714.31,516.39 Z M717.03,519.14 L719.50,520.80 L721.61,521.09 L717.03,519.14 Z M713.85,529.47 L709.25,524.19 L713.90,529.75 L713.85,529.47 Z M727.64,561.45 L731.27,560.50 L729.61,559.81 L727.64,561.45 Z M740.20,600.63 L740.52,596.01 L738.27,602.27 L739.86,600.47 L740.20,600.63 Z M735.45,605.48 L731.89,606.74 L734.60,606.44 L735.45,605.48 Z M744.06,624.13 L743.04,627.29 L743.54,627.06 L744.06,624.13 Z M741.28,628.11 L733.42,625.30 L739.99,628.70 L741.28,628.11 Z M733.42,630.69 L725.97,631.58 L726.59,632.57 L733.42,630.69 Z M723.37,632.08 L723.71,631.85 L723.57,631.86 L721.21,627.41 L723.37,632.08 Z M722.65,656.12 L710.04,658.46 L720.29,656.70 L722.65,656.12 Z M709.65,724.47 L714.80,727.05 L717.01,724.56 L714.38,726.65 L710.70,723.60 L709.65,724.47 Z M710.04,768.47 L709.38,769.53 L708.60,771.52 L710.04,768.47 Z M710.54,805.88 L706.63,813.11 L710.04,807.37 L710.54,805.88 Z M723.96,817.80 L727.38,820.38 L734.47,825.18 L723.96,817.80 Z M723.96,839.36 L725.15,844.75 L725.25,844.77 L723.96,839.36 Z M718.87,846.08 L721.73,846.50 L725.15,844.75 L718.87,846.08 Z M709.71,419.29 L710.83,420.15 L719.24,421.44 L709.71,419.29 Z M708.73,422.62 L708.95,424.04 L710.83,420.15 L708.73,422.62 Z M709.78,486.70 L712.27,490.10 L715.82,493.15 L709.78,486.70 Z M710.38,479.92 L708.99,483.89 L709.78,486.70 L710.38,479.92 Z M731.32,587.11 L732.37,587.46 L734.87,585.82 L731.32,587.11 Z M707.21,473.02 L710.44,470.77 L706.76,472.06 L707.21,473.02 Z M712.12,474.88 L713.15,472.95 L709.94,475.70 L712.12,474.88 Z M715.43,468.66 L714.11,465.73 L715.25,469.00 L715.43,468.66 Z M710.17,602.34 L703.87,598.59 L712.27,604.10 L710.17,602.34 Z M710.17,611.36 L712.59,603.82 L712.27,604.10 L710.17,611.36 Z M696.11,865.66 L698.35,870.99 L697.30,866.42 L700.45,865.95 L696.11,865.66 Z M699.14,856.34 L701.90,854.59 L711.35,847.67 L699.14,856.34 Z M705.05,890.09 L705.18,891.84 L706.60,892.26 L705.05,890.09 Z M707.09,892.96 L702.55,894.54 L707.55,893.60 L707.09,892.96 Z M689.94,828.58 L695.85,826.70 L689.05,827.98 L689.94,828.58 Z M697.17,688.57 L694.28,688.10 L697.65,688.90 L697.17,688.57 Z M693.10,657.52 L687.58,658.46 L693.48,657.54 L693.10,657.52 Z M678.91,499.00 L680.09,500.41 L681.08,500.09 L678.91,499.00 Z M682.82,500.95 L683.38,504.28 L683.38,501.23 L682.82,500.95 Z M700.85,517.28 L697.42,515.60 L697.33,517.75 L698.09,516.93 L700.85,517.28 Z M694.52,508.88 L695.42,505.63 L694.15,507.56 L694.52,508.88 Z M701.40,501.10 L701.50,501.11 L701.66,500.59 L701.40,501.10 Z M712.27,584.53 L699.66,574.46 L700.06,576.10 L712.27,584.53 Z M731.58,589.92 L728.08,590.41 L728.30,590.86 L731.58,589.92 Z M688.37,521.42 L684.95,523.37 L688.37,522.44 L688.37,521.42 Z M676.15,539.66 L677.31,539.59 L676.54,538.37 L676.15,539.66 Z M694.18,486.59 L704.79,488.93 L695.72,486.35 L694.18,486.59 Z M704.72,490.43 L705.73,488.51 L704.79,488.93 L704.72,490.43 Z M691.91,486.94 L693.10,490.10 L693.10,486.75 L691.91,486.94 Z M708.39,459.51 L709.38,460.22 L710.67,461.37 L710.04,460.58 L708.39,459.51 Z M718.45,461.04 L714.24,456.47 L710.83,453.90 L718.45,461.04 Z M718.76,461.78 L718.95,461.24 L718.45,461.04 L718.76,461.78 Z M680.62,375.28 L684.56,377.63 L683.64,375.87 L680.62,375.28 Z M696.64,385.71 L700.32,385.83 L691.65,384.07 L694.67,385.01 L696.64,385.71 Z M693.98,389.43 L694.67,389.46 L694.67,385.01 L693.98,389.43 Z M707.81,386.30 L706.10,391.57 L708.14,385.81 L707.81,386.30 Z M712.47,379.34 L723.96,366.73 L715.43,374.93 L712.47,379.34 Z M703.87,397.07 L702.42,405.51 L703.34,401.53 L703.60,409.14 L703.87,397.07 Z M712.14,393.09 L710.57,398.48 L710.63,399.46 L712.22,392.96 L712.14,393.09 Z M710.96,404.34 L716.21,412.07 L710.89,403.28 L710.96,404.34 Z M725.28,386.65 L715.43,387.35 L721.34,387.82 L725.28,386.65 Z M678.52,394.26 L690.86,391.57 L691.29,390.76 L678.52,394.26 Z M684.95,331.35 L700.98,326.66 L699.27,326.66 L684.95,331.35 Z M704.89,247.50 L709.12,248.36 L707.55,246.87 L704.89,247.50 Z M710.97,250.11 L711.42,251.36 L711.88,250.97 L710.97,250.11 Z M704.79,145.30 L702.42,137.80 L705.06,147.21 L704.79,145.30 Z M743.37,774.58 L736.71,774.92 L726.59,778.55 L743.37,774.58 Z M746.03,454.48 L737.24,452.98 L737.24,452.98 L746.03,454.48 Z M738.94,518.69 L738.50,519.34 L740.32,519.51 L738.94,518.69 Z M742.49,520.80 L741.86,520.42 L743.14,523.96 L742.49,520.80 Z M743.66,536.52 L743.27,538.72 L743.97,536.56 L743.66,536.52 Z M748.40,533.10 L746.82,532.98 L746.11,534.01 L748.40,533.10 Z M747.87,479.79 L749.84,477.56 L750.02,477.20 L747.87,479.79 Z M751.68,491.51 L751.16,487.87 L747.87,479.79 L751.68,491.51 Z M738.02,486.35 L734.54,482.42 L738.55,487.52 L739.42,487.83 L738.02,486.35 Z M764.11,492.86 L762.06,493.03 L756.91,495.33 L759.17,495.14 L764.11,492.86 Z M756.40,495.37 L754.70,493.97 L754.97,495.49 L756.40,495.37 Z M758.04,482.23 L754.28,481.06 L755.49,482.02 L758.04,482.23 Z M730.53,468.19 L738.94,471.82 L736.94,469.67 L730.28,466.90 L730.53,468.19 Z M741.57,459.87 L739.60,458.12 L735.79,459.17 L738.81,458.70 L741.57,459.87 Z M734.21,466.20 L734.98,467.00 L733.95,462.22 L734.21,466.20 Z M732.64,462.05 L733.55,461.86 L732.22,460.99 L732.64,462.05 Z M745.29,436.53 L746.30,436.79 L748.13,436.09 L752.21,433.75 L749.45,435.27 L745.29,436.53 Z M751.55,439.60 L748.79,440.07 L753.05,439.58 L748.13,436.09 L751.55,439.60 Z M738.15,441.71 L738.28,443.59 L738.40,441.38 L738.15,441.71 Z M735.79,445.70 L738.94,446.52 L743.54,446.40 L735.79,445.70 Z M739.34,448.86 L739.60,448.39 L738.94,446.52 L739.34,448.86 Z M744.12,443.05 L742.88,440.31 L743.54,446.40 L744.12,443.05 Z M746.16,445.96 L745.38,445.81 L744.41,443.68 L746.03,451.44 L746.16,445.96 Z M746.03,451.67 L746.38,451.40 L746.03,451.44 L746.03,451.67 Z M757.53,448.81 L756.67,448.65 L756.28,452.73 L757.53,448.81 Z M760.88,434.33 L760.61,434.80 L760.61,434.92 L760.88,434.45 L760.88,434.33 Z M764.55,467.25 L768.76,467.25 L772.44,467.02 L764.55,467.25 Z M772.96,471.71 L773.88,478.97 L773.49,475.10 L772.44,467.02 L772.96,471.71 Z M769.06,472.49 L769.15,474.05 L772.96,471.71 L769.06,472.49 Z M782.05,89.08 L777.69,92.46 L782.16,89.64 L782.05,89.08 Z M779.53,124.79 L777.16,134.17 L778.87,127.49 L779.53,124.79 Z M769.32,132.49 L770.20,133.46 L777.16,134.17 L769.32,132.49 Z M773.36,156.19 L777.16,159.36 L776.11,157.01 L773.36,156.19 Z M778.22,169.20 L777.43,162.99 L777.43,166.50 L776.38,174.94 L778.22,169.20 Z M755.23,165.56 L754.49,165.40 L754.09,166.43 L755.23,165.56 Z M757.33,170.84 L764.42,170.72 L760.22,170.49 L757.33,170.84 Z M787.28,185.46 L787.28,190.40 L788.27,185.98 L787.28,185.46 Z M773.09,196.14 L772.96,198.72 L772.83,203.06 L773.09,196.14 Z M778.48,206.10 L780.71,206.54 L772.83,203.06 L778.48,206.10 Z M767.44,197.90 L761.27,199.54 L760.76,200.33 L767.44,197.90 Z M763.77,216.53 L754.31,218.64 L756.94,218.17 L763.77,216.53 Z M758.49,220.32 L759.56,221.80 L764.29,221.57 L758.49,220.32 Z M809.22,230.71 L806.19,229.42 L812.20,232.26 L811.93,230.53 L809.22,230.71 Z M812.22,232.45 L804.75,237.74 L812.37,233.40 L812.22,232.45 Z M792.53,251.68 L796.34,251.33 L805.54,247.81 L792.53,251.68 Z M798.71,282.37 L798.94,284.22 L802.39,277.80 L798.71,282.37 Z M799.45,288.18 L800.68,297.84 L800.55,289.99 L799.45,288.18 Z M815.13,311.55 L814.73,314.24 L815.70,314.80 L815.13,311.55 Z M816.44,319.05 L816.13,317.29 L813.68,322.49 L817.91,318.42 L816.44,319.05 Z M799.23,330.76 L799.50,332.17 L800.81,335.92 L799.23,330.76 Z M798.31,344.23 L795.09,351.51 L795.55,351.03 L798.31,344.23 Z M826.98,364.20 L827.74,365.09 L827.86,365.10 L826.98,364.20 Z M830.52,365.32 L830.63,365.32 L841.53,361.81 L830.52,365.32 Z M828.99,374.40 L828.92,374.81 L830.08,375.24 L828.99,374.40 Z M826.56,378.45 L814.73,377.63 L834.09,379.48 L826.56,378.45 Z M794.11,387.23 L802.16,382.42 L800.28,383.13 L790.70,388.29 L794.11,387.23 Z M800.28,407.38 L800.92,406.96 L790.08,411.96 L792.93,410.90 L802.97,407.33 L800.28,407.38 Z M816.05,416.99 L811.58,417.69 L814.08,418.28 L816.05,416.99 Z M798.44,432.11 L810.59,410.67 L810.27,410.31 L804.75,420.04 L798.44,432.11 Z M828.00,431.40 L834.31,433.28 L833.00,432.36 L828.00,431.40 Z M796.08,469.71 L796.09,469.74 L800.15,469.95 L796.08,469.71 Z M796.61,473.93 L794.11,473.81 L791.22,473.93 L796.61,473.93 Z M791.35,477.21 L788.86,477.21 L800.28,477.33 L791.35,477.21 Z M834.44,486.82 L835.25,491.33 L835.88,489.75 L834.44,486.82 Z M832.86,497.25 L833.37,495.98 L821.85,513.96 L826.82,508.26 L832.86,497.25 Z M799.55,544.24 L797.00,548.56 L797.39,551.14 L799.55,544.24 Z M812.37,565.79 L810.42,572.06 L811.71,571.29 L812.37,565.79 Z M806.98,601.40 L806.72,607.61 L807.51,610.78 L806.98,601.40 Z M802.91,628.82 L802.65,623.75 L802.65,623.75 L803.04,631.75 L802.91,628.82 Z M806.06,641.82 L806.06,638.89 L805.14,641.82 L810.40,642.53 L806.06,641.82 Z M808.75,656.82 L808.69,655.61 L802.65,657.41 L808.69,656.70 L808.75,656.82 Z M809.56,658.41 L811.32,661.86 L810.66,658.34 L809.56,658.41 Z M813.81,682.83 L810.53,687.40 L812.24,685.06 L813.81,682.83 Z M824.19,709.66 L824.32,714.11 L824.59,712.92 L824.19,709.66 Z M838.38,715.63 L829.48,715.25 L821.56,722.20 L828.79,716.10 L838.38,715.63 Z M818.28,736.61 L820.91,735.08 L814.96,736.33 L818.19,737.15 L818.28,736.61 Z M817.94,738.73 L816.31,741.41 L817.23,743.17 L817.94,738.73 Z M811.58,767.77 L808.69,772.81 L806.19,779.49 L811.58,767.77 Z M800.55,788.39 L798.56,788.60 L802.39,789.33 L800.55,788.39 Z M809.26,786.18 L813.71,785.35 L812.11,784.88 L809.26,786.18 Z M831.28,806.55 L830.36,809.13 L830.05,807.76 L829.78,808.99 L830.76,810.42 L831.28,806.55 Z M790.83,816.98 L785.70,814.99 L806.72,826.12 L790.83,816.98 Z M837.46,827.05 L811.71,829.75 L812.37,830.80 L847.57,827.29 L837.46,827.05 Z M852.38,837.09 L852.96,835.61 L847.57,827.29 L852.38,837.09 Z M802.39,838.77 L796.47,839.59 L800.15,839.12 L802.39,838.77 Z M789.64,833.97 L791.61,836.08 L796.47,839.59 L789.64,833.97 Z M764.42,249.69 L756.41,247.93 L751.68,248.16 L764.42,249.69 Z M766.26,125.03 L763.50,122.57 L757.59,120.93 L766.26,125.03 Z M796.87,710.95 L787.15,708.96 L786.89,694.66 L786.52,709.12 L796.87,710.95 Z M788.08,694.92 L788.03,694.56 L786.89,694.66 L788.08,694.92 Z M795.82,694.66 L790.38,695.42 L790.69,695.48 L795.82,694.66 Z M780.71,810.42 L788.46,810.30 L793.06,809.48 L780.71,810.42 Z M785.70,869.82 L786.36,871.34 L789.12,877.08 L785.70,869.82 Z M795.29,854.59 L798.97,853.53 L798.66,853.19 L795.29,854.59 Z M765.74,840.76 L773.75,837.60 L761.28,840.76 L765.74,840.76 Z M779.14,749.03 L777.30,749.69 L781.76,749.85 L782.66,748.75 L779.14,749.03 Z M790.96,752.31 L785.05,748.56 L783.14,748.71 L790.96,752.31 Z M796.21,788.85 L795.03,788.98 L796.18,792.43 L796.21,788.85 Z M796.08,804.91 L796.13,798.60 L795.03,802.22 L796.08,804.91 Z M775.98,730.63 L768.76,730.87 L772.96,730.75 L775.98,730.63 Z M792.80,722.55 L789.12,726.53 L794.11,721.26 L792.80,722.55 Z M770.60,618.63 L768.23,619.21 L773.88,617.92 L770.60,618.63 Z M779.53,623.43 L778.87,624.95 L784.26,620.85 L779.53,623.43 Z M799.89,623.24 L791.09,621.67 L784.26,620.85 L799.89,623.24 Z M777.03,668.65 L765.34,667.25 L780.71,669.36 L793.06,668.07 L777.03,668.65 Z M778.35,639.48 L778.22,644.05 L779.17,639.11 L776.51,639.95 L778.35,639.48 Z M788.03,694.55 L787.94,693.96 L785.88,694.67 L788.03,694.55 Z M750.42,634.26 L750.87,631.85 L749.45,633.39 L750.42,634.26 Z M752.34,632.45 L750.55,634.37 L751.16,634.91 L752.34,632.45 Z M775.46,628.94 L776.75,628.86 L776.19,628.75 L775.46,628.94 Z M779.49,628.70 L781.37,628.58 L780.50,627.72 L779.49,628.70 Z M790.99,580.29 L792.01,575.63 L790.99,580.29 L790.99,580.29 Z M797.66,573.87 L794.64,574.10 L792.01,575.63 L797.66,573.87 Z M784.39,598.47 L789.78,599.53 L793.45,601.87 L791.35,599.65 L784.39,598.47 Z M783.34,558.99 L785.81,559.75 L778.48,554.30 L783.34,558.99 Z M777.30,543.41 L777.48,545.11 L778.87,537.43 L777.30,543.41 Z M784.65,466.78 L790.94,469.01 L791.65,468.58 L784.65,466.78 Z M783.73,485.30 L780.07,486.23 L782.51,489.35 L780.58,486.47 L783.73,485.30 Z M785.44,493.73 L783.71,491.14 L783.34,494.43 L784.26,492.21 L785.44,493.73 Z M788.07,479.09 L788.07,479.07 L778.22,478.74 L785.27,479.91 L785.83,479.20 L788.07,479.09 Z M764.84,453.98 L766.26,453.78 L768.36,453.43 L764.84,453.98 Z M769.60,441.40 L768.23,441.60 L767.75,442.51 L769.72,441.67 L769.60,441.40 Z M763.89,429.87 L765.46,432.71 L764.95,431.64 L767.05,433.39 L763.89,429.87 Z M787.20,357.80 L787.02,357.71 L783.21,356.77 L787.20,357.80 Z M792.40,354.31 L793.48,353.19 L788.59,353.49 L792.40,354.31 Z M780.97,321.97 L789.51,321.81 L784.74,320.83 L785.05,321.27 L780.97,321.97 Z M782.05,317.00 L783.30,318.79 L783.21,317.76 L782.05,317.00 Z M779.40,290.22 L782.29,285.07 L788.07,285.54 L782.37,284.60 L779.40,290.22 Z M771.66,277.43 L772.30,278.74 L776.38,280.50 L771.66,277.43 Z M803.44,127.96 L805.41,127.60 L799.07,126.43 L803.44,127.96 Z M821.17,217.00 L818.67,213.72 L820.91,216.76 L826.42,227.66 L821.17,217.00 Z M812.50,227.66 L812.53,227.97 L814.56,225.25 L812.50,227.66 Z M785.62,208.70 L785.57,209.38 L794.77,213.48 L796.77,213.63 L785.62,208.70 Z M802.27,214.03 L804.49,214.19 L802.91,220.40 L805.04,213.12 L802.27,214.03 Z M806.46,212.66 L805.59,212.94 L806.88,213.41 L806.46,212.66 Z M798.05,226.96 L798.68,223.85 L798.18,224.26 L798.05,226.96 Z M857.90,471.55 L872.92,470.89 L859.79,470.89 L861.10,467.61 L857.90,471.55 Z M827.94,392.74 L823.67,390.63 L827.21,393.33 L827.94,392.74 Z M839.17,406.92 L865.22,403.95 L865.21,403.93 L840.98,405.73 L839.17,406.92 Z M855.32,386.30 L862.99,398.96 L859.53,391.22 L855.32,386.30 Z M876.21,381.96 L885.67,390.40 L888.69,392.62 L876.21,381.96 Z M881.73,451.09 L885.03,453.23 L883.56,452.26 L881.73,451.09 Z M931.51,421.91 L933.09,422.73 L919.29,414.18 L931.51,421.91 Z M829.58,454.95 L844.16,456.24 L824.43,453.22 L829.58,454.95 Z M842.06,468.19 L851.78,465.38 L850.07,465.38 L842.06,468.19 Z M823.93,477.21 L815.26,471.71 L831.64,484.26 L823.93,477.21 Z M901.04,455.54 L896.31,459.40 L892.50,463.62 L901.04,455.54 Z M917.72,452.37 L904.19,456.36 L915.75,453.08 L923.37,453.90 L917.72,452.37 Z M933.74,451.79 L930.07,452.37 L923.37,453.90 L933.74,451.79 Z M893.81,454.95 L890.72,456.91 L891.31,457.29 L893.81,454.95 Z M860.71,438.08 L859.00,439.60 L858.74,440.42 L860.71,438.08 Z M836.01,425.90 L837.98,420.27 L835.26,426.65 L836.41,425.97 L836.01,425.90 Z M872.92,423.55 L869.90,414.41 L868.89,412.16 L872.92,423.55 Z M893.00,424.11 L893.00,424.11 L892.76,416.76 L893.00,424.11 Z M831.42,428.00 L830.63,429.41 L832.60,428.24 L831.42,428.00 Z M847.44,381.61 L838.51,380.09 L834.69,379.56 L847.44,381.61 Z M840.87,382.08 L832.88,380.79 L832.65,381.00 L840.87,382.08 Z M852.53,371.18 L853.06,371.31 L854.14,367.55 L852.96,370.83 L852.53,371.18 Z M867.80,369.19 L858.87,355.60 L863.07,362.63 L867.80,369.19 Z M871.48,368.60 L871.67,368.26 L867.80,369.19 L871.48,368.60 Z M839.43,274.88 L822.35,281.44 L827.87,280.26 L839.43,274.88 Z M834.89,313.52 L833.91,310.14 L834.89,313.52 L834.89,313.52 Z M840.09,311.90 L838.01,312.66 L842.84,313.19 L840.09,311.90 Z M831.28,314.36 L834.31,314.94 L834.77,313.80 L831.28,314.36 Z M820.64,256.84 L820.91,256.13 L819.92,255.90 L820.64,256.84 Z M835.73,164.61 L835.73,164.61 L837.98,166.62 L835.73,164.61 Z M844.95,171.31 L843.73,170.81 L842.97,173.18 L844.95,171.31 Z M841.40,188.06 L829.45,186.30 L831.55,187.47 L841.40,188.06 Z M835.84,164.47 L840.48,163.69 L836.54,163.57 L835.84,164.47 Z M827.53,759.63 L823.64,758.85 L826.95,760.74 L827.53,759.63 Z M837.24,753.99 L838.90,753.48 L846.97,760.35 L846.39,758.87 L838.42,752.21 L837.24,753.99 Z M839.30,750.90 L838.81,751.63 L848.49,747.15 L839.30,750.90 Z M851.78,750.20 L846.58,744.77 L848.49,747.15 L851.78,750.20 Z M868.06,737.07 L867.80,739.30 L868.71,739.63 L868.06,737.07 Z M873.84,741.88 L872.37,741.52 L868.46,743.99 L873.84,741.88 Z M893.15,770.93 L881.82,776.16 L881.82,776.16 L893.15,770.93 Z M890.03,821.74 L896.96,841.82 L892.89,826.70 L890.03,821.74 Z M915.81,837.61 L914.04,832.80 L914.70,837.72 L896.96,841.82 L915.81,837.61 Z M849.77,843.80 L847.18,847.91 L847.83,848.80 L849.77,843.80 Z M875.55,788.51 L870.03,786.87 L875.74,788.98 L877.92,784.99 L875.55,788.51 Z M879.13,796.55 L888.03,797.30 L879.36,796.48 L879.13,796.55 Z M857.42,773.98 L855.71,773.79 L859.92,775.50 L857.42,773.98 Z M840.86,639.57 L841.12,639.55 L839.30,635.73 L840.86,639.57 Z M840.87,737.19 L838.51,734.73 L840.77,737.54 L849.54,728.17 L840.87,737.19 Z M857.95,729.93 L860.58,732.97 L861.49,732.43 L857.95,729.93 Z" /></g></svg>