<svg xmlns="http://www.w3.org/2000/svg" viewBox="0 0 1000 1000" width="1000" height="1000"><g fill="#cccccc" stroke="#222" stroke-width="2"><path d="M297.95,971.44 L291.55,980.77 L285.15,974.70 L277.06,974.24 L267.96,974.00 L271.66,959.54 L259.53,945.07 L257.00,947.64 L256.83,958.84 L248.75,965.84 L244.36,970.27 L240.83,963.50 L235.94,961.64 L224.14,969.57 L219.59,945.77 L210.66,951.37 L194.32,938.54 L190.27,937.37 L189.60,950.20 L179.99,949.27 L173.08,955.80 L169.04,951.14 L171.57,938.54 L170.05,935.27 L166.85,934.34 L158.93,943.90 L139.55,942.74 L140.56,953.24 L133.82,966.07 L124.38,960.94 L115.62,970.04 L106.18,972.14 L103.15,968.87 L102.31,956.50 L97.08,948.10 L100.96,941.34 L99.27,914.50 L109.55,893.74 L121.69,887.91 L124.72,878.81 L140.22,887.67 L140.56,865.04 L153.03,837.04 L152.69,834.01 L144.10,834.71 L143.26,830.74 L151.68,821.41 L160.61,790.84 L152.53,817.21 L150.00,817.91 L130.96,798.31 L118.82,803.67 L101.97,795.74 L93.04,801.34 L89.00,797.84 L88.32,790.84 L97.25,776.61 L95.90,769.84 L68.94,779.18 L65.40,776.38 L62.20,761.21 L40.63,762.38 L37.09,758.64 L37.43,751.64 L36.59,733.44 L19.23,705.68 L23.44,699.14 L38.10,697.04 L65.57,678.61 L72.65,671.84 L95.06,633.35 L124.89,622.85 L128.60,617.01 L130.45,601.15 L147.98,587.15 L157.41,594.15 L163.14,587.15 L167.02,576.88 L162.97,563.35 L152.86,566.15 L153.03,554.25 L149.32,544.68 L151.51,540.95 L165.33,540.48 L163.98,536.05 L157.75,538.38 L160.45,524.85 L165.84,534.18 L169.54,533.25 L164.49,521.82 L166.34,519.95 L173.76,525.32 L170.22,517.62 L171.06,512.48 L178.14,522.75 L179.15,506.65 L183.53,512.48 L186.90,511.08 L188.08,506.88 L184.37,502.92 L189.26,497.08 L193.64,499.42 L193.98,493.82 L198.02,494.98 L200.72,488.22 L204.09,489.38 L198.36,481.45 L193.31,434.55 L232.74,420.55 L243.19,412.39 L247.17,429.04 L244.87,413.32 L255.49,401.65 L270.32,396.29 L345.30,334.45 L364.01,377.85 L342.10,326.99 L337.89,325.12 L358.79,262.12 L376.48,208.69 L410.86,252.09 L439.84,211.96 L471.86,167.86 L496.97,145.46 L510.78,132.63 L525.45,123.99 L528.48,107.89 L533.87,99.96 L542.63,102.53 L554.94,88.53 L558.14,62.40 L577.01,73.13 L576.34,84.33 L592.85,84.10 L602.46,89.70 L577.18,121.89 L597.06,146.86 L606.50,135.19 L609.70,137.99 L613.41,134.49 L611.39,127.96 L636.66,116.06 L636.66,110.93 L652.84,113.03 L652.00,153.16 L653.35,102.29 L664.64,104.63 L669.69,100.66 L677.78,79.20 L685.36,71.50 L686.54,62.86 L696.66,75.23 L705.42,78.03 L708.96,74.76 L717.05,82.70 L747.04,103.93 L752.60,102.76 L769.79,109.76 L767.94,122.13 L770.30,109.76 L775.18,112.09 L778.89,104.39 L817.65,94.60 L846.97,87.36 L867.36,62.40 L880.50,56.10 L889.94,45.83 L915.89,83.86 L944.71,119.56 L980.77,151.53 L968.97,170.43 L956.33,174.39 L958.53,182.09 L950.77,189.33 L951.78,195.39 L942.52,201.69 L941.17,216.16 L938.47,218.26 L939.31,225.26 L942.01,227.12 L936.45,234.82 L940.66,238.09 L931.56,260.02 L936.96,262.59 L931.39,274.96 L936.11,279.39 L936.45,284.29 L932.41,284.99 L931.39,292.69 L933.42,298.99 L930.05,301.79 L929.04,308.09 L922.97,349.85 L918.08,348.22 L910.50,377.15 L897.04,455.42 L908.48,459.52 L890.78,555.88 L888.42,591.81 L780.91,682.81 L777.54,681.64 L742.83,710.58 L663.96,778.71 L634.47,808.81 L631.63,810.81 L594.70,861.07 L590.49,846.14 L591.50,841.24 L582.07,846.61 L580.34,843.93 L580.89,851.74 L578.02,856.41 L561.17,858.74 L558.31,875.07 L556.45,879.51 L544.32,883.94 L537.75,895.37 L532.86,892.11 L521.57,901.20 L517.69,899.10 L507.41,903.07 L508.43,892.57 L503.71,887.67 L496.97,894.67 L489.89,892.34 L488.04,898.40 L472.03,916.84 L469.67,932.24 L465.62,930.14 L465.29,922.90 L456.52,917.54 L456.52,909.84 L450.96,911.47 L437.65,903.77 L436.13,917.07 L429.56,922.20 L426.02,931.30 L419.79,923.60 L407.82,930.14 L405.63,947.40 L384.91,943.67 L388.44,945.07 L392.49,957.44 L387.43,970.97 L383.89,973.54 L380.69,965.60 L372.77,958.60 L368.39,944.84 L362.32,950.20 L346.48,951.14 L345.14,965.14 L334.35,963.04 L332.33,974.70 L327.95,976.34 L316.99,971.20 L318.51,962.10 L316.32,959.30 L307.39,962.57 L297.78,960.70 L297.95,971.44 Z M220.44,541.42 L232.43,531.91 L167.02,576.88 L220.44,541.42 Z M539.58,232.46 L539.58,232.46 L496.97,145.46 L539.58,232.46 Z M750.24,619.11 L748.73,616.08 L777.54,681.64 L750.24,619.11 Z M708.36,659.12 L708.36,659.12 L742.83,710.58 L708.36,659.12 Z M485.84,347.29 L522.24,393.49 L576.48,465.39 L561.34,443.18 L464.44,319.99 L485.84,347.29 Z M561.84,408.42 L562.52,298.76 L561.34,443.18 L561.84,408.42 Z M422.48,365.72 L405.80,384.39 L464.44,319.99 L422.48,365.72 Z M403.27,518.08 L391.21,542.59 L444.22,438.29 L403.27,518.08 Z M421.98,561.01 L425.69,551.45 L445.91,554.95 L426.07,550.37 L421.98,561.01 Z M659.08,586.91 L617.96,526.25 L590.51,485.98 L637.51,555.65 L659.08,586.91 Z M656.55,492.65 L681.49,470.25 L617.96,526.25 L656.55,492.65 Z M253.97,509.68 L242.22,524.15 L242.51,523.92 L253.97,509.68 Z M299.97,454.38 L289.36,466.98 L253.97,509.68 L299.97,454.38 Z M332.33,455.55 L314.42,474.61 L314.42,474.61 L332.33,455.55 Z M374.79,434.79 L368.22,449.48 L357.44,476.32 L374.79,434.79 Z M436.81,617.48 L423.49,601.85 L427.03,606.05 L436.81,617.48 Z M405.67,669.65 L409.18,661.45 L404.96,668.58 L405.67,669.65 Z M409.68,676.74 L408.67,674.18 L407.33,679.08 L409.68,676.74 Z M400.75,695.64 L405.30,691.21 L405.38,686.27 L403.78,692.14 L400.75,695.64 Z M380.52,846.84 L382.33,831.04 L380.86,835.64 L380.52,846.84 Z M156.97,707.20 L167.86,706.38 L158.42,705.44 L156.97,707.20 Z M205.94,701.47 L208.64,702.64 L209.99,701.16 L205.94,701.47 Z M242.51,633.35 L237.96,627.51 L234.09,624.95 L242.51,633.35 Z M247.06,616.08 L256.33,607.45 L259.53,601.38 L247.06,616.08 Z M366.32,682.79 L366.03,685.14 L369.49,686.66 L366.32,682.79 Z M290.87,780.11 L299.47,801.81 L300.17,801.39 L290.87,780.11 Z M292.56,768.44 L292.00,760.75 L291.50,769.39 L292.56,768.44 Z M291.38,752.11 L288.35,736.71 L291.44,752.89 L291.38,752.11 Z M326.77,666.01 L267.62,709.88 L276.05,703.81 L326.77,666.01 Z M167.02,609.31 L167.02,601.38 L166.68,588.78 L167.02,609.31 Z M201.70,588.42 L196.68,589.25 L183.03,598.81 L201.70,588.42 Z M321.86,547.85 L292.94,526.13 L292.94,526.13 L321.86,547.85 Z M366.60,613.44 L358.54,607.86 L358.52,607.91 L365.02,614.21 L366.60,613.44 Z M371.09,616.55 L373.78,613.98 L375.26,607.40 L371.09,616.55 Z M253.65,446.35 L251.52,447.21 L252.35,450.67 L253.65,446.35 Z M502.36,800.87 L530.00,778.48 L539.26,770.31 L502.36,800.87 Z M483.65,703.58 L480.93,699.31 L483.29,708.60 L483.65,703.58 Z M497.47,683.51 L471.02,673.71 L473.37,669.98 L468.32,675.11 L497.47,683.51 Z M510.28,642.91 L505.90,647.35 L510.53,643.07 L510.28,642.91 Z M553.78,671.26 L516.77,647.14 L518.20,648.75 L553.78,671.26 Z M466.30,693.08 L478.69,695.80 L477.25,693.54 L466.30,693.08 Z M656.04,183.73 L653.27,175.21 L652.17,177.19 L656.04,183.73 Z M697.83,194.69 L726.65,212.66 L683.01,185.13 L675.76,184.66 L683.34,186.06 L697.83,194.69 Z M661.60,319.76 L674.58,296.42 L665.82,309.72 L661.60,319.76 Z M662.95,322.79 L628.24,349.15 L665.48,322.32 L661.60,319.76 L662.95,322.79 Z M588.30,249.76 L587.12,245.79 L588.64,251.39 L628.24,349.15 L588.30,249.76 Z M642.90,208.93 L612.74,231.32 L588.30,249.76 L642.90,208.93 Z M706.60,367.82 L662.11,384.85 L693.29,374.59 L706.60,367.82 Z M706.15,399.36 L706.15,399.36 L722.27,433.85 L706.15,399.36 Z M810.74,482.15 L813.94,469.78 L769.28,603.95 L810.74,482.15 Z M852.36,452.05 L839.55,498.48 L856.41,442.72 L852.36,452.05 Z M578.38,172.20 L568.08,180.69 L577.35,173.69 L578.38,172.20 Z M559.65,174.86 L552.07,181.39 L539.60,193.53 L559.65,174.86 Z M739.12,230.86 L740.30,234.12 L740.99,233.91 L739.12,230.86 Z M755.80,252.56 L767.44,256.32 L767.43,256.29 L755.80,252.56 Z M851.52,279.16 L847.53,280.41 L864.83,282.42 L851.52,279.16 Z M880.31,300.93 L895.33,302.96 L880.32,300.88 L880.31,300.93 Z M834.36,424.53 L834.36,424.53 L828.26,433.39 L834.36,424.53 Z M790.69,330.72 L799.62,335.15 L831.80,387.19 L798.44,332.82 L808.55,312.06 L797.09,333.52 L790.69,330.72 Z M782.81,414.99 L796.42,432.69 L785.12,416.35 L811.75,416.35 L782.81,414.99 Z M792.03,470.25 L792.37,474.68 L796.42,432.69 L792.03,470.25 Z M717.21,141.03 L692.61,153.86 L684.02,160.39 L717.21,141.03 Z M730.31,171.56 L737.60,170.19 L745.02,169.03 L731.71,170.43 L730.31,171.56 Z M771.14,133.09 L787.21,140.58 L781.42,130.53 L784.28,138.93 L771.14,133.09 Z M879.16,129.83 L884.04,116.99 L870.22,148.03 L879.16,129.83 Z M410.86,252.09 L365.02,193.99 L380.69,143.13 L386.76,145.46 L394.51,117.46 L402.26,105.09 L413.05,111.39 L396.20,97.63 L416.08,36.96 L427.03,43.26 L435.12,19.23 L454.50,31.13 L449.95,43.73 L510.78,132.63 L471.86,167.86 L454.00,192.36 L410.86,252.09 Z" /></g></svg>