<svg xmlns="http://www.w3.org/2000/svg" viewBox="0 0 1000 1000" width="1000" height="1000"><g fill="#cccccc" stroke="#222" stroke-width="2"><path d="M538.83,823.41 L535.92,824.57 L534.07,827.47 L530.69,824.16 L528.91,824.51 L521.56,821.72 L521.83,816.61 L524.94,815.80 L525.60,813.36 L522.09,807.20 L525.07,803.95 L524.81,802.03 L526.99,799.42 L525.73,798.37 L523.55,791.92 L523.75,789.54 L524.48,787.10 L527.45,786.23 L527.39,784.66 L521.30,783.38 L514.95,776.70 L505.75,772.17 L497.22,770.31 L494.11,768.40 L493.45,769.50 L492.06,768.86 L491.86,770.26 L490.47,770.20 L490.34,771.07 L484.39,770.95 L480.55,774.50 L471.49,774.85 L470.23,774.15 L470.03,770.95 L464.28,771.30 L466.46,768.22 L461.77,764.16 L462.82,762.94 L466.86,762.30 L466.13,760.21 L474.07,756.55 L475.13,753.29 L478.17,753.88 L478.44,753.12 L481.15,753.00 L482.40,749.17 L484.85,749.52 L486.84,743.94 L491.14,744.93 L505.16,742.66 L508.14,744.06 L513.30,741.74 L516.54,741.91 L518.26,736.74 L517.53,735.23 L518.65,733.66 L511.71,724.77 L512.83,723.44 L512.70,721.29 L514.35,719.95 L513.69,717.16 L514.95,712.63 L516.47,711.24 L514.62,708.62 L517.93,705.72 L519.99,705.80 L519.25,705.37 L517.40,703.57 L519.45,699.85 L517.20,694.63 L522.62,690.73 L526.89,689.46 L525.80,689.46 L526.59,685.80 L532.94,681.38 L531.82,679.00 L532.41,674.64 L534.46,672.78 L535.26,667.90 L542.47,657.16 L545.38,655.07 L546.37,652.98 L545.77,652.10 L535.85,652.74 L532.94,655.01 L531.22,655.07 L531.82,656.52 L527.65,659.77 L528.58,661.05 L527.39,662.68 L527.78,663.95 L522.16,665.70 L521.04,667.50 L521.70,668.43 L520.77,668.37 L520.37,666.16 L518.26,665.35 L513.69,666.98 L512.37,669.24 L508.40,670.98 L502.58,671.85 L500.73,670.29 L501.39,668.14 L506.15,664.25 L505.56,659.42 L509.39,658.49 L511.11,657.10 L511.11,652.16 L509.79,649.96 L513.03,647.69 L513.96,645.60 L511.51,641.59 L513.89,640.84 L521.90,641.30 L523.81,640.37 L525.27,639.09 L524.94,635.90 L527.52,634.91 L529.44,630.79 L528.97,625.85 L531.49,624.74 L532.41,622.36 L537.18,618.88 L541.14,617.95 L540.88,614.06 L546.90,611.85 L549.41,607.03 L555.04,604.41 L560.06,600.70 L558.74,596.17 L563.24,592.16 L564.56,589.02 L571.18,585.83 L581.30,578.68 L582.42,577.64 L582.36,575.83 L579.78,567.59 L576.27,564.86 L576.67,561.43 L578.45,560.03 L577.86,558.41 L579.18,555.97 L576.67,553.88 L577.06,551.67 L575.14,549.00 L575.87,548.13 L574.09,546.38 L575.74,543.77 L573.89,543.42 L572.83,539.88 L574.81,538.43 L574.02,536.97 L574.03,536.97 L571.77,536.16 L574.42,535.81 L576.00,534.13 L575.28,530.87 L578.32,520.53 L575.08,517.98 L572.83,517.46 L571.90,513.27 L573.03,511.24 L576.34,509.96 L578.39,507.75 L578.72,502.82 L577.26,503.11 L577.33,499.74 L574.88,498.46 L575.14,496.02 L571.97,494.28 L569.85,491.26 L567.01,490.27 L567.74,485.33 L567.87,485.24 L564.56,484.46 L561.45,486.26 L559.67,489.17 L555.76,492.13 L554.97,494.63 L550.47,494.86 L548.62,496.02 L545.38,496.02 L543.33,497.01 L538.04,497.53 L534.73,496.78 L524.41,500.96 L520.31,500.49 L517.66,502.82 L509.79,503.98 L504.83,509.38 L500.66,506.13 L499.07,503.51 L493.65,501.83 L491.53,499.10 L492.59,493.52 L490.34,486.09 L493.72,480.69 L494.51,474.24 L493.65,472.84 L489.28,471.97 L491.60,468.08 L490.74,466.80 L491.86,463.14 L489.81,462.33 L489.09,460.59 L491.86,456.11 L492.33,454.66 L491.47,453.96 L492.55,453.50 L490.47,447.23 L492.13,443.16 L491.47,440.26 L489.48,438.63 L489.09,430.73 L487.70,428.81 L485.05,427.53 L483.13,426.37 L478.44,427.36 L474.27,426.55 L472.75,428.06 L469.70,427.94 L463.15,429.97 L463.75,430.38 L464.48,434.04 L459.65,438.80 L459.72,442.06 L463.09,445.77 L466.07,453.91 L465.67,456.35 L462.76,458.96 L463.95,463.32 L466.46,466.57 L466.33,476.27 L468.84,481.56 L468.84,486.38 L470.23,490.10 L466.33,493.47 L463.42,492.83 L462.10,494.51 L461.90,495.50 L458.99,496.95 L459.98,500.32 L455.15,501.71 L451.91,506.94 L444.50,507.46 L442.72,509.61 L440.73,510.25 L435.84,516.41 L432.93,518.27 L431.40,520.65 L432.07,522.28 L429.55,522.97 L427.70,525.99 L422.54,526.87 L418.84,532.38 L417.45,531.80 L411.03,535.35 L407.92,534.36 L407.39,532.97 L403.42,532.15 L397.73,532.97 L392.57,531.86 L390.52,533.08 L388.14,533.02 L382.12,532.09 L378.55,533.55 L378.95,535.64 L374.52,537.61 L369.95,537.26 L369.16,531.75 L365.65,527.27 L365.06,524.60 L361.95,522.51 L362.34,521.17 L365.06,519.43 L363.20,517.69 L363.01,514.49 L360.62,511.36 L360.10,505.32 L357.58,500.61 L355.40,499.91 L354.21,495.21 L350.57,492.59 L352.49,490.85 L352.82,474.53 L353.94,471.74 L357.78,468.49 L360.23,463.90 L360.03,462.10 L362.08,458.61 L361.42,457.51 L359.63,453.56 L352.09,448.62 L353.75,437.99 L349.31,429.16 L348.32,425.21 L350.97,421.03 L350.37,419.11 L340.71,416.61 L338.93,414.87 L339.06,413.13 L330.39,410.98 L326.49,407.73 L327.88,406.45 L330.26,397.74 L333.90,395.12 L332.31,391.52 L334.91,390.46 L332.58,385.94 L329.40,383.04 L313.33,378.97 L309.36,375.95 L300.83,373.74 L298.97,371.07 L293.09,368.98 L282.04,361.60 L271.39,357.36 L266.43,356.84 L255.25,347.95 L251.81,342.90 L248.44,340.11 L247.97,337.15 L249.16,333.20 L251.28,331.98 L251.81,329.71 L260.67,328.49 L263.85,326.98 L269.60,323.38 L269.93,320.77 L268.02,317.75 L263.25,315.54 L258.42,316.47 L257.17,315.77 L255.38,316.82 L253.53,315.19 L252.60,316.00 L247.44,313.51 L238.91,304.45 L238.51,302.41 L231.24,299.57 L228.53,297.07 L228.56,297.05 L227.47,297.36 L219.00,293.93 L215.56,294.22 L215.36,291.38 L218.14,290.50 L218.54,288.12 L213.31,283.94 L215.10,279.47 L210.86,272.15 L212.72,271.45 L212.91,269.77 L210.73,269.94 L209.87,269.07 L202.73,269.77 L196.11,265.64 L193.33,262.68 L189.96,263.90 L181.16,262.27 L180.17,261.23 L180.44,254.90 L178.72,249.09 L169.85,244.73 L165.75,241.42 L160.86,240.32 L153.84,242.12 L147.82,240.20 L147.82,230.03 L146.50,227.19 L145.31,224.75 L140.28,222.02 L138.56,219.35 L133.01,216.67 L128.11,216.38 L127.38,218.53 L123.81,220.16 L119.98,217.78 L110.65,216.85 L109.06,212.72 L109.52,209.01 L105.62,206.16 L106.02,199.94 L99.07,199.71 L96.36,201.34 L95.30,199.83 L94.11,200.52 L85.64,198.84 L83.92,195.65 L81.68,195.53 L80.95,193.09 L82.40,191.52 L82.40,187.57 L81.74,186.35 L80.29,186.41 L79.96,184.14 L76.85,183.27 L77.90,180.72 L75.39,177.87 L77.51,176.24 L78.37,173.05 L71.62,170.14 L65.53,170.09 L64.34,168.34 L51.78,161.49 L48.07,161.14 L43.57,159.28 L43.44,154.63 L45.23,150.51 L50.45,147.26 L55.35,141.62 L51.84,139.53 L46.81,139.01 L43.51,139.94 L41.19,137.91 L36.50,132.85 L34.78,127.68 L38.81,122.11 L38.61,119.90 L33.98,117.34 L31.20,113.68 L23.73,109.38 L19.23,104.33 L20.09,103.69 L19.69,101.37 L21.61,100.26 L25.45,94.51 L25.05,90.91 L27.83,89.81 L28.43,87.37 L33.06,87.95 L39.34,85.92 L41.59,86.26 L48.40,84.52 L60.11,88.36 L64.28,86.50 L70.36,89.98 L77.24,88.53 L78.17,89.58 L81.21,88.36 L83.06,90.27 L86.37,92.07 L87.17,91.61 L90.80,94.86 L96.89,96.55 L98.08,94.98 L97.02,94.28 L98.87,93.58 L98.81,92.13 L100.33,90.51 L99.54,86.50 L96.89,82.55 L93.58,80.28 L93.58,78.83 L92.39,78.13 L92.79,76.33 L90.61,75.69 L89.94,73.37 L86.04,72.79 L86.04,70.81 L87.36,69.94 L85.78,66.81 L87.36,66.46 L87.76,67.39 L89.75,67.85 L90.87,66.75 L93.52,66.81 L93.19,65.53 L97.55,65.70 L96.82,64.42 L97.75,61.98 L96.29,61.46 L97.88,60.07 L95.83,59.08 L99.73,58.91 L101.72,57.98 L101.72,56.81 L102.58,57.34 L103.57,51.30 L106.02,50.60 L108.86,45.37 L113.89,44.27 L113.56,42.87 L116.67,41.13 L117.66,39.85 L117.26,36.89 L119.58,35.15 L119.51,33.40 L122.22,31.84 L121.56,29.51 L122.56,28.12 L124.41,26.38 L127.19,26.20 L129.04,22.95 L133.27,21.67 L133.07,20.51 L136.12,19.23 L137.64,19.58 L136.38,21.61 L138.30,21.32 L139.89,24.05 L141.21,24.46 L140.81,25.45 L141.94,27.07 L144.19,27.31 L147.76,30.79 L150.14,30.33 L148.68,32.77 L146.70,33.81 L147.82,34.62 L147.43,36.48 L150.80,40.26 L150.21,41.30 L152.39,42.41 L151.46,43.45 L153.78,43.80 L152.79,45.78 L154.17,47.75 L152.65,49.03 L153.05,52.81 L159.60,52.34 L162.05,60.01 L167.14,61.93 L168.66,61.69 L168.93,63.09 L177.66,64.66 L180.77,68.72 L184.54,70.64 L184.27,71.45 L182.75,70.93 L182.75,72.56 L181.76,73.14 L183.35,74.30 L183.61,75.98 L182.29,77.84 L181.89,81.21 L185.53,85.34 L184.80,88.18 L185.73,87.89 L185.79,89.63 L185.00,90.56 L186.59,93.99 L185.20,94.34 L182.09,92.19 L181.63,94.57 L182.68,95.79 L179.71,97.82 L184.80,104.39 L187.51,103.63 L194.79,111.53 L199.75,111.18 L202.20,112.81 L204.05,114.96 L205.24,121.52 L209.41,122.69 L211.72,124.55 L214.57,124.02 L216.16,124.84 L220.39,127.33 L222.70,131.69 L225.68,133.78 L225.02,138.08 L232.49,142.73 L234.21,146.10 L236.73,146.79 L237.32,150.92 L242.15,155.10 L244.00,158.53 L248.11,161.32 L247.71,164.39 L250.22,166.83 L252.60,167.18 L255.51,169.27 L260.21,174.91 L260.34,178.28 L263.72,185.48 L276.75,194.37 L278.47,194.14 L281.91,196.23 L289.58,195.70 L293.02,191.81 L293.29,189.31 L295.60,186.24 L306.18,185.65 L311.87,190.82 L316.04,192.62 L316.70,194.14 L320.47,195.30 L322.99,197.91 L325.23,197.45 L330.53,200.18 L332.45,200.18 L334.17,204.82 L331.06,207.96 L331.98,209.82 L330.73,212.20 L332.78,215.22 L331.59,219.00 L332.25,220.97 L335.49,222.60 L339.52,228.12 L344.48,228.29 L344.68,231.49 L346.67,234.27 L350.90,235.67 L355.93,234.91 L360.56,235.55 L364.79,237.53 L366.25,239.44 L371.21,239.91 L374.65,233.29 L377.36,231.37 L378.68,224.75 L382.59,222.60 L384.57,217.60 L382.92,209.18 L379.28,206.45 L377.62,203.26 L378.02,199.71 L374.32,197.50 L372.60,194.95 L369.82,194.77 L366.25,192.68 L365.65,191.40 L361.48,189.89 L362.68,188.79 L365.39,188.21 L371.08,184.49 L374.05,188.27 L381.33,192.80 L380.80,193.96 L387.41,194.60 L387.81,195.88 L389.66,195.70 L392.91,198.84 L394.76,198.49 L396.21,196.98 L396.94,198.61 L398.00,197.74 L400.78,199.01 L405.80,198.84 L405.34,200.64 L406.86,200.47 L406.80,202.09 L409.24,201.51 L409.31,203.43 L412.09,204.18 L413.21,207.73 L414.73,207.55 L415.06,209.64 L417.31,210.05 L419.36,212.43 L419.56,215.74 L421.88,216.56 L420.16,217.20 L420.49,218.94 L419.10,221.67 L418.97,223.82 L420.16,224.98 L417.78,228.87 L417.78,233.58 L415.26,235.84 L411.96,237.00 L410.77,241.94 L413.35,249.14 L412.29,252.34 L415.06,261.05 L423.33,264.71 L424.06,267.04 L427.70,269.59 L431.14,269.07 L437.36,276.21 L436.70,278.31 L439.94,278.60 L438.28,281.27 L436.43,282.08 L437.03,283.36 L436.17,284.58 L439.87,287.13 L445.56,288.76 L446.15,290.16 L450.12,290.62 L450.92,292.01 L458.13,294.57 L458.26,295.44 L462.16,296.72 L462.69,297.88 L465.80,299.28 L471.16,300.15 L474.67,299.28 L477.18,299.68 L478.30,298.81 L488.82,299.04 L493.39,304.45 L492.46,302.41 L494.25,302.30 L493.32,301.42 L494.58,299.62 L493.78,298.81 L495.44,294.40 L497.62,291.78 L505.03,290.56 L511.91,293.81 L513.49,292.65 L516.40,293.06 L519.25,291.26 L518.98,289.81 L522.49,286.73 L525.80,286.32 L527.12,284.23 L535.19,284.17 L535.72,281.50 L534.53,274.12 L535.52,275.69 L539.82,277.14 L542.40,286.61 L537.37,292.60 L538.43,297.30 L547.69,298.75 L549.81,302.82 L554.97,304.74 L555.90,306.94 L558.67,308.28 L558.94,310.31 L561.19,312.93 L559.20,315.19 L564.23,319.61 L570.45,319.66 L576.45,323.50 L575.01,322.05 L578.32,320.54 L579.18,317.22 L581.56,316.30 L580.77,311.94 L584.54,306.88 L586.99,307.93 L588.97,306.59 L592.28,306.94 L599.29,304.56 L602.73,307.00 L610.27,309.38 L615.30,308.86 L621.85,306.19 L623.90,301.48 L627.20,300.55 L631.90,302.99 L635.67,303.75 L647.61,303.28 L647.97,299.04 L644.07,296.31 L647.64,292.89 L648.17,288.76 L650.69,286.55 L652.61,278.01 L659.55,279.35 L664.98,281.73 L672.91,294.22 L680.32,297.82 L683.36,297.82 L684.42,293.52 L689.65,292.71 L694.94,293.87 L695.34,291.03 L697.26,289.81 L701.36,292.83 L711.87,296.72 L717.03,297.71 L724.38,296.31 L733.77,300.15 L745.94,308.63 L758.58,310.89 L768.17,314.49 L775.08,314.11 L775.18,313.86 L777.69,311.47 L777.76,308.22 L775.38,304.79 L766.84,297.59 L765.59,295.15 L765.85,293.76 L767.37,290.56 L772.67,285.51 L773.00,277.09 L774.45,274.36 L778.82,271.63 L788.14,270.87 L789.14,269.13 L787.55,265.87 L787.81,263.78 L794.36,259.19 L795.62,254.61 L800.78,251.82 L803.23,248.68 L807.53,247.58 L815.60,248.62 L829.09,247.40 L842.19,246.01 L844.24,247.46 L842.45,251.35 L842.85,252.86 L845.56,256.35 L852.04,261.40 L853.70,270.29 L858.20,282.43 L861.44,287.72 L863.22,294.80 L869.84,299.45 L872.22,305.08 L873.54,305.43 L878.64,303.28 L884.66,305.84 L887.17,308.57 L889.81,314.61 L894.91,320.36 L893.72,322.34 L886.04,327.16 L884.26,329.71 L884.19,332.04 L889.42,337.73 L892.79,339.82 L894.45,344.99 L899.01,349.35 L907.08,350.92 L917.20,356.96 L917.99,361.72 L919.12,363.17 L915.74,364.74 L914.42,369.33 L905.23,372.99 L905.49,375.43 L908.14,376.07 L904.50,378.10 L903.84,381.82 L905.10,382.98 L902.25,386.06 L902.98,388.21 L901.99,390.18 L906.68,393.26 L904.10,398.14 L908.53,401.22 L907.48,404.42 L910.39,406.51 L912.04,409.64 L919.98,411.04 L922.96,414.12 L928.25,416.27 L930.23,417.60 L931.09,422.60 L935.39,428.87 L934.99,434.04 L936.78,435.14 L939.16,435.03 L942.07,437.53 L943.33,440.95 L939.56,445.08 L941.68,446.30 L946.90,453.62 L942.67,466.45 L944.26,468.55 L954.11,475.34 L956.10,482.78 L963.50,488.41 L962.31,490.21 L964.56,492.13 L967.08,499.51 L972.37,507.12 L970.91,508.34 L971.84,510.37 L977.33,515.48 L978.39,519.08 L980.77,521.29 L978.59,525.70 L976.20,525.12 L971.18,520.01 L968.60,520.24 L960.40,524.31 L959.80,527.62 L955.50,530.24 L953.25,536.97 L951.00,538.60 L948.95,539.06 L943.99,541.79 L943.13,543.89 L945.51,544.52 L945.25,546.33 L948.16,546.09 L949.22,547.31 L949.08,550.57 L955.10,554.05 L953.78,556.20 L951.20,557.42 L952.19,559.40 L951.20,561.78 L948.29,563.98 L947.17,568.17 L943.73,568.05 L941.61,568.98 L940.48,575.25 L938.43,574.73 L935.72,577.23 L935.52,580.37 L937.24,581.12 L936.65,586.12 L938.04,587.74 L936.45,588.90 L934.27,588.32 L933.54,589.66 L931.22,589.72 L929.70,588.50 L928.18,589.83 L927.65,591.29 L930.43,599.71 L930.36,602.61 L928.38,604.47 L926.79,608.54 L925.67,608.31 L917.53,608.02 L914.89,608.77 L908.27,611.79 L905.49,615.57 L898.41,615.68 L896.03,617.83 L891.40,616.15 L888.69,617.19 L884.66,614.06 L890.01,618.59 L890.28,620.50 L887.23,622.31 L883.53,626.55 L883.13,632.41 L881.02,635.14 L880.95,635.96 L885.18,639.09 L884.79,644.44 L886.90,652.22 L880.02,660.64 L881.81,663.43 L876.39,667.56 L875.20,666.92 L869.11,668.02 L864.94,667.73 L862.76,668.31 L861.11,670.23 L858.99,669.12 L857.86,669.53 L849.99,667.32 L847.81,665.29 L843.97,664.30 L839.87,666.05 L834.85,664.77 L835.84,668.25 L833.65,669.47 L826.97,668.78 L818.90,671.33 L815.73,669.18 L811.63,668.95 L808.12,675.46 L803.76,676.73 L803.82,678.19 L807.00,678.88 L809.77,685.74 L812.95,685.91 L812.88,686.67 L821.95,692.48 L823.80,698.63 L823.53,700.84 L824.59,702.06 L831.47,701.94 L833.32,703.11 L841.66,704.50 L841.39,708.62 L838.68,710.66 L836.23,715.25 L830.55,720.13 L829.41,725.17 L832.40,726.86 L837.03,727.21 L847.61,733.72 L859.25,732.50 L870.96,737.55 L871.03,741.15 L875.72,751.38 L874.80,752.77 L876.58,753.99 L876.06,758.23 L875.06,758.93 L875.33,764.85 L872.02,767.58 L869.71,771.71 L871.29,775.83 L873.54,777.87 L871.62,780.19 L871.95,782.57 L870.23,787.80 L872.42,789.95 L870.90,797.04 L873.15,800.64 L874.53,806.68 L872.48,811.79 L871.69,819.81 L867.92,823.35 L859.25,819.92 L854.16,824.51 L852.11,828.00 L846.95,830.26 L846.22,831.95 L849.73,842.58 L850.72,856.98 L853.30,859.83 L853.04,862.04 L855.09,867.26 L858.99,870.23 L861.64,874.35 L865.41,876.62 L865.93,878.01 L863.95,880.33 L850.79,883.12 L844.11,881.09 L837.76,882.02 L830.48,881.79 L826.71,876.79 L821.95,876.15 L818.70,872.90 L805.61,864.71 L799.65,864.36 L794.69,862.38 L793.57,863.84 L791.72,864.19 L789.40,862.15 L783.65,862.38 L779.68,860.82 L774.25,863.84 L778.42,869.24 L775.11,872.72 L773.86,872.49 L778.82,874.29 L782.85,878.53 L784.44,882.31 L783.18,883.59 L779.54,882.08 L776.17,882.37 L771.28,879.70 L770.28,880.97 L770.68,882.83 L767.11,881.61 L769.03,883.76 L766.65,884.92 L765.92,887.60 L768.30,888.41 L767.24,892.18 L770.55,893.29 L770.55,894.33 L770.88,895.73 L774.05,897.59 L773.19,900.72 L775.84,902.06 L774.39,902.81 L777.89,903.63 L775.84,905.72 L777.82,906.24 L777.96,908.04 L772.20,909.84 L774.39,911.12 L774.52,912.22 L773.33,915.13 L770.35,915.13 L769.75,915.83 L770.61,918.56 L773.19,918.03 L772.20,919.54 L776.44,921.05 L777.10,922.97 L775.91,923.49 L779.28,931.74 L782.79,935.29 L783.32,938.77 L781.93,940.86 L781.73,943.71 L783.38,948.88 L784.77,949.69 L781.33,950.16 L776.17,948.47 L768.17,954.11 L768.17,960.96 L769.49,962.12 L768.89,964.27 L776.37,971.48 L775.31,973.28 L770.68,975.66 L771.14,978.33 L768.23,977.92 L765.52,974.73 L761.42,975.13 L756.33,978.10 L754.01,977.63 L747.26,980.77 L743.76,979.26 L739.26,979.67 L738.27,978.68 L730.86,978.74 L728.41,978.74 L723.85,974.90 L719.61,974.32 L717.96,974.96 L715.38,972.58 L712.54,975.19 L705.19,973.33 L705.59,971.48 L699.77,970.60 L697.59,967.53 L695.47,966.94 L695.67,966.07 L693.75,966.71 L693.82,969.91 L691.77,971.82 L684.82,973.62 L677.61,971.59 L675.62,972.06 L674.30,971.24 L673.24,971.88 L672.65,969.62 L670.86,969.09 L665.77,972.99 L662.86,978.27 L660.68,977.92 L657.24,975.25 L658.49,972.23 L657.83,970.26 L659.09,968.69 L658.29,966.42 L654.99,964.97 L654.66,962.30 L656.18,961.43 L653.99,955.79 L647.78,955.38 L643.87,952.42 L642.75,947.95 L642.42,936.33 L641.23,934.76 L637.66,934.24 L636.33,930.35 L633.95,928.61 L632.43,928.78 L630.78,924.31 L631.50,922.33 L624.36,917.05 L623.30,914.66 L623.70,909.67 L622.11,909.55 L618.27,902.64 L614.90,899.79 L614.31,897.30 L612.25,895.20 L612.32,890.67 L609.67,888.00 L608.62,884.34 L602.99,883.82 L596.58,880.57 L594.06,880.28 L592.94,881.38 L590.36,880.68 L588.57,882.77 L587.18,882.89 L582.49,881.38 L577.06,881.90 L570.65,879.06 L568.20,879.87 L564.36,877.14 L562.78,874.12 L559.27,870.81 L562.78,866.86 L563.64,862.97 L559.27,853.61 L559.53,852.34 L560.02,851.69 L547.23,843.85 L547.16,840.95 L552.72,837.52 L553.12,836.25 L549.68,834.27 L544.72,826.02 L538.83,823.41 Z M702.02,365.09 L704.40,368.11 L697.59,359.22 L702.02,365.09 Z M706.38,386.64 L707.44,389.45 L705.85,380.08 L706.38,386.64 Z M707.57,395.06 L708.17,393.79 L707.94,392.42 L707.57,395.06 Z M693.88,501.37 L705.72,500.61 L691.90,501.37 L687.93,502.41 L693.88,501.37 Z M684.37,546.25 L695.01,541.91 L685.35,545.80 L684.37,546.25 Z M678.60,548.88 L680.39,548.71 L682.65,547.03 L678.60,548.88 Z M673.57,554.23 L677.15,550.62 L678.60,548.88 L673.57,554.23 Z M693.55,614.11 L695.32,613.17 L695.27,613.19 L693.55,614.11 Z M675.18,657.16 L676.02,656.64 L675.86,656.18 L675.18,657.16 Z M669.47,665.47 L672.91,661.05 L673.30,659.89 L669.47,665.47 Z M673.27,685.19 L675.10,684.87 L676.23,684.11 L673.27,685.19 Z M647.45,694.68 L646.51,694.97 L647.45,695.23 L647.45,694.68 Z M644.51,692.45 L644.87,694.51 L645.71,694.75 L644.51,692.45 Z M629.52,703.51 L630.20,705.18 L629.56,702.95 L629.52,703.51 Z M701.14,748.65 L711.48,750.74 L701.56,748.42 L701.14,748.65 Z M648.90,794.36 L649.15,794.88 L647.51,790.76 L648.90,794.36 Z M662.66,816.73 L664.23,818.71 L661.92,815.07 L662.66,816.73 Z M672.85,896.19 L676.88,897.94 L678.86,897.94 L672.85,896.19 Z M660.08,880.10 L659.13,880.00 L670.66,886.61 L660.08,880.10 Z M656.77,879.75 L656.05,880.18 L657.58,879.84 L656.77,879.75 Z M646.92,886.90 L644.67,897.82 L648.02,884.69 L646.92,886.90 Z M626.70,701.56 L629.64,700.92 L629.64,700.90 L627.60,700.90 L626.70,701.56 Z M608.97,629.70 L608.68,629.97 L608.75,632.18 L608.97,629.70 Z M604.18,659.37 L602.53,655.47 L602.33,653.67 L602.60,657.04 L604.18,659.37 Z M602.27,661.22 L602.22,661.64 L604.18,659.37 L602.27,661.22 Z M580.90,681.09 L581.88,677.65 L580.30,678.42 L581.69,678.19 L580.90,681.09 Z M585.39,714.92 L588.18,714.67 L585.25,714.16 L585.66,714.84 L585.39,714.92 Z M582.88,716.12 L582.75,715.75 L581.64,716.09 L582.88,716.12 Z M558.36,730.89 L555.76,730.87 L553.45,731.98 L558.36,730.89 Z M552.92,733.95 L553.30,735.62 L553.45,731.98 L552.92,733.95 Z M577.72,731.63 L570.38,729.89 L580.08,732.95 L577.72,731.63 Z M587.12,732.91 L583.22,733.94 L583.81,734.13 L587.12,732.91 Z M586.21,746.50 L586.46,745.92 L584.14,746.85 L586.21,746.50 Z M549.28,772.75 L546.50,770.66 L550.26,774.31 L549.28,772.75 Z M553.58,776.99 L552.57,776.55 L554.71,778.62 L553.58,776.99 Z M560.79,778.74 L560.27,778.73 L562.38,780.48 L560.79,778.74 Z M572.30,786.75 L571.63,786.55 L573.62,788.73 L572.30,786.75 Z M573.23,835.37 L574.68,836.83 L574.22,834.62 L574.22,836.25 L573.23,835.37 Z M558.41,742.49 L553.74,737.49 L553.91,738.25 L558.41,742.49 Z M545.97,712.98 L546.11,713.34 L546.83,711.76 L545.97,712.98 Z M532.77,690.29 L531.69,689.46 L529.73,689.46 L532.77,690.29 Z M549.41,689.46 L549.85,688.77 L547.76,689.98 L549.41,689.46 Z M583.12,695.61 L580.30,695.03 L572.70,694.97 L583.12,695.61 Z M588.50,697.37 L586.26,696.25 L584.94,695.98 L588.50,697.37 Z M147.16,122.80 L144.70,122.46 L142.73,122.69 L147.16,122.80 Z M163.24,117.34 L158.61,119.38 L165.87,117.18 L163.24,117.34 Z M601.64,383.77 L601.27,383.68 L599.75,384.14 L601.64,383.77 Z M575.28,442.52 L577.59,438.51 L577.26,436.94 L577.33,438.16 L575.28,442.52 Z M362.54,374.73 L364.20,372.64 L366.31,367.99 L362.54,374.73 Z M367.31,361.95 L374.33,360.60 L373.59,360.33 L367.31,361.95 Z M546.79,401.99 L546.77,402.09 L547.37,402.17 L546.79,401.99 Z M565.35,409.64 L566.48,409.99 L572.57,410.40 L565.35,409.64 Z M421.55,482.20 L421.53,482.02 L418.70,483.82 L421.55,482.20 Z M418.53,465.98 L418.17,466.40 L418.97,465.93 L418.53,465.98 Z M424.33,465.93 L423.47,464.77 L422.80,464.19 L424.33,465.93 Z M431.93,473.48 L435.16,473.54 L435.31,473.19 L442.05,473.42 L439.94,472.79 L431.93,473.48 Z M454.09,494.92 L454.64,494.89 L453.88,494.45 L454.09,494.92 Z M367.15,455.38 L364.66,457.45 L367.15,455.38 L367.15,455.38 Z M363.14,450.89 L367.09,455.27 L366.31,453.67 L363.14,450.89 Z M393.57,423.82 L395.35,422.31 L392.11,423.99 L381.92,428.29 L393.57,423.82 Z M411.88,416.69 L410.38,417.36 L413.12,416.91 L411.88,416.69 Z M462.67,429.64 L462.39,428.27 L461.96,429.16 L462.67,429.64 Z M367.18,455.46 L367.97,462.56 L367.90,456.93 L367.18,455.46 Z M492.63,409.05 L492.98,407.26 L492.26,407.49 L492.63,409.05 Z M538.17,388.85 L544.25,385.19 L541.74,386.06 L538.17,388.85 Z M256.37,271.22 L256.37,271.05 L250.95,271.10 L256.37,271.22 Z M281.05,264.71 L266.38,258.30 L266.38,258.30 L281.05,264.71 Z M340.32,260.70 L340.78,260.45 L338.56,260.13 L340.32,260.70 Z M342.58,259.78 L348.72,261.92 L343.36,259.89 L344.55,257.97 L342.58,259.78 Z M353.15,261.63 L354.47,261.05 L348.72,261.92 L353.15,261.63 Z M433.99,346.94 L431.67,348.42 L433.32,347.72 L433.99,346.94 Z M486.24,317.46 L486.51,320.36 L488.42,325.36 L486.24,317.46 Z M501.06,345.92 L501.04,345.52 L499.40,348.65 L501.06,345.92 Z M516.40,341.97 L514.75,344.06 L517.74,341.68 L516.40,341.97 Z M519.84,341.22 L519.19,341.36 L529.11,343.89 L519.84,341.22 Z M555.90,342.61 L551.83,344.36 L553.45,343.95 L555.90,342.61 Z M378.22,344.70 L374.45,350.92 L373.92,352.65 L378.22,344.70 Z M176.20,187.57 L174.81,188.91 L176.85,187.47 L176.20,187.57 Z M271.50,239.30 L271.99,240.43 L274.55,242.83 L271.50,239.30 Z M403.89,269.88 L407.61,268.65 L407.33,268.31 L403.89,269.88 Z M593.26,690.16 L591.90,693.59 L592.32,694.13 L592.34,693.46 L593.34,691.31 L593.26,690.16 Z M593.20,689.29 L593.14,688.29 L592.15,687.95 L593.20,689.29 Z M606.94,687.26 L607.89,687.21 L607.36,687.02 L606.94,687.26 Z M609.40,687.77 L613.34,689.81 L613.51,689.28 L609.40,687.77 Z M606.00,740.93 L607.94,740.35 L606.66,740.37 L606.00,740.93 Z M636.35,741.58 L636.35,741.58 L633.09,740.92 L636.35,741.58 Z M631.28,736.93 L631.24,737.38 L631.74,737.69 L631.28,736.93 Z M594.66,781.06 L583.48,783.09 L590.69,782.34 L594.66,781.06 Z M596.61,779.26 L596.01,779.82 L596.38,779.90 L596.61,779.26 Z M598.63,772.06 L598.89,773.10 L599.69,771.19 L598.63,772.06 Z M609.08,763.52 L610.67,765.84 L609.52,763.08 L609.08,763.52 Z M611.26,761.31 L610.16,762.43 L610.40,762.30 L611.26,761.31 Z M596.71,842.34 L601.41,843.10 L602.11,842.56 L596.71,842.34 Z M626.41,755.85 L636.27,742.32 L636.31,741.93 L626.41,755.85 Z M605.27,741.55 L604.85,741.91 L602.33,749.29 L605.27,741.55 Z M591.12,724.77 L592.81,723.61 L591.07,724.48 L591.12,724.77 Z M597.83,691.95 L602.06,693.55 L602.06,693.55 L597.83,691.95 Z M610.86,629.12 L610.01,628.70 L609.54,629.15 L610.86,629.12 Z M636.07,593.49 L626.87,590.88 L629.12,591.63 L636.07,593.49 Z M619.49,683.56 L619.00,683.41 L618.61,683.68 L619.49,683.56 Z M628.59,686.32 L621.53,684.18 L624.16,685.51 L628.59,686.32 Z M640.24,671.45 L636.46,674.99 L638.65,673.13 L640.24,671.45 Z M641.76,681.67 L641.99,680.94 L640.43,682.02 L641.76,681.67 Z M591.85,693.52 L589.96,686.55 L591.48,693.06 L591.85,693.52 Z M592.48,684.75 L593.80,686.96 L591.55,683.01 L592.48,684.75 Z M601.76,680.53 L602.20,680.45 L602.82,679.74 L601.76,680.53 Z M623.96,657.16 L633.17,649.61 L630.05,651.52 L623.96,657.16 Z M637.69,646.84 L645.26,643.16 L642.29,644.03 L637.69,646.84 Z M659.09,647.34 L663.39,646.53 L661.80,646.41 L659.09,647.34 Z M662.73,647.63 L665.31,648.39 L666.47,648.07 L662.73,647.63 Z M635.82,490.79 L631.44,490.39 L635.01,490.85 L635.82,490.79 Z M664.05,468.84 L663.38,471.07 L668.28,460.41 L664.05,468.84 Z M625.67,577.04 L625.09,580.31 L626.08,577.93 L625.67,577.04 Z M625.89,586.42 L625.29,587.63 L626.01,589.14 L625.89,586.42 Z M625.81,584.66 L625.40,584.50 L625.86,585.76 L625.81,584.66 Z M626.54,582.92 L625.02,583.44 L625.25,584.06 L626.54,582.92 Z M578.57,532.10 L576.67,532.67 L576.88,533.09 L578.57,532.10 Z M622.18,468.14 L622.64,461.98 L622.98,459.11 L622.44,460.12 L622.18,468.14 Z M658.23,381.06 L654.26,381.06 L656.38,381.12 L658.23,381.06 Z M659.35,309.38 L659.34,309.37 L660.21,311.94 L659.35,309.38 Z M807.19,346.33 L805.41,343.31 L808.65,351.96 L807.19,346.33 Z M801.24,370.67 L802.30,366.48 L804.09,361.55 L803.16,362.24 L801.24,370.67 Z M789.27,447.92 L786.03,449.72 L785.92,449.21 L785.83,450.01 L789.27,447.92 Z M777.69,528.49 L780.01,525.76 L777.96,527.45 L777.69,528.49 Z M816.92,570.90 L814.07,569.85 L813.50,570.07 L816.92,570.90 Z M800.71,590.36 L794.63,588.09 L790.59,587.22 L800.71,590.36 Z M815.37,622.37 L820.49,620.74 L815.53,621.84 L815.37,622.37 Z M814.21,627.77 L814.94,623.81 L814.14,626.49 L814.21,627.77 Z M794.56,629.04 L795.09,628.92 L792.38,627.88 L794.56,629.04 Z M796.28,679.12 L794.10,678.88 L782.79,681.09 L796.28,679.12 Z M824.00,724.83 L827.57,724.13 L823.02,724.58 L824.00,724.83 Z M816.07,725.85 L818.99,724.97 L816.79,725.18 L816.07,725.85 Z M810.97,733.66 L814.86,726.97 L814.54,727.27 L810.97,733.66 Z M816.91,746.14 L813.81,738.25 L816.46,745.74 L816.91,746.14 Z M779.54,788.90 L787.28,785.13 L790.92,784.20 L788.21,784.31 L779.54,788.90 Z M789.24,794.98 L789.02,794.53 L789.00,794.71 L789.24,794.98 Z M793.86,799.09 L791.54,797.51 L792.38,798.43 L793.86,799.09 Z M797.80,800.52 L796.85,800.42 L797.21,800.58 L797.80,800.52 Z M837.82,826.20 L833.19,825.45 L833.59,825.73 L837.82,826.20 Z M798.51,835.90 L800.90,836.80 L799.92,835.78 L798.51,835.90 Z M786.94,837.24 L792.18,836.44 L787.75,836.83 L786.94,837.24 Z M782.72,839.85 L783.97,838.74 L774.39,843.62 L782.72,839.85 Z M768.25,841.35 L768.23,841.30 L770.95,841.47 L768.11,841.23 L768.25,841.35 Z M768.50,842.23 L768.39,841.84 L765.19,842.00 L768.50,842.23 Z M764.40,844.03 L764.00,847.80 L764.37,848.45 L765.19,842.00 L764.40,844.03 Z M722.59,627.59 L729.67,624.66 L726.82,625.21 L722.59,627.59 Z M719.87,761.47 L721.93,754.40 L719.35,761.19 L719.87,761.47 Z M747.20,754.81 L754.41,756.95 L754.67,755.73 L753.88,756.61 L747.20,754.81 Z M756.39,736.51 L750.84,743.83 L750.51,744.76 L756.39,736.51 Z M779.65,710.70 L779.02,710.48 L772.73,710.19 L779.65,710.70 Z M712.01,937.96 L704.24,934.60 L704.73,935.34 L712.01,937.96 Z M714.69,913.73 L715.18,913.21 L715.64,911.20 L714.69,913.73 Z M715.86,910.24 L715.98,909.73 L715.73,909.62 L715.86,910.24 Z M701.03,897.53 L692.49,899.27 L703.61,897.35 L711.87,896.60 L701.03,897.53 Z M727.68,795.06 L731.72,789.54 L730.59,790.30 L727.68,795.06 Z M734.37,789.66 L735.30,788.78 L733.44,790.18 L736.42,789.60 L734.37,789.66 Z M767.04,840.25 L767.51,840.68 L766.58,832.76 L767.04,840.25 Z M742.90,778.85 L744.55,777.29 L744.75,776.24 L742.90,778.85 Z M737.08,785.48 L737.84,785.52 L736.81,783.97 L737.08,785.48 Z M737.83,786.41 L738.20,786.06 L738.04,785.81 L737.83,786.41 Z M741.07,671.78 L737.74,672.32 L741.07,671.78 L741.07,671.78 Z M758.63,634.92 L754.94,635.20 L752.16,636.07 L758.63,634.92 Z M766.38,634.79 L769.95,634.04 L764.77,634.44 L766.38,634.79 Z M774.52,631.19 L774.89,630.11 L769.95,634.04 L774.52,631.19 Z M730.13,503.17 L732.96,501.35 L727.35,504.27 L730.13,503.17 Z M747.40,480.22 L754.24,474.81 L743.10,482.49 L747.40,480.22 Z M758.58,471.39 L762.88,465.47 L756.76,472.83 L758.58,471.39 Z M767.44,463.20 L768.25,462.08 L762.88,465.47 L767.44,463.20 Z M772.80,460.30 L770.15,460.88 L769.67,461.18 L772.80,460.30 Z M724.05,598.84 L721.66,599.19 L725.83,599.42 L724.05,598.84 Z M762.28,559.63 L763.47,559.45 L768.32,560.83 L767.77,560.38 L756.72,557.71 L762.28,559.63 Z M773.46,564.97 L772.62,564.29 L773.52,567.29 L773.46,564.97 Z M777.76,576.59 L774.93,571.94 L775.44,573.63 L777.76,576.59 Z M711.01,573.74 L709.56,570.32 L707.31,566.77 L711.01,573.74 Z M704.27,581.88 L703.41,582.57 L709.43,580.83 L704.27,581.88 Z M722.79,356.72 L718.42,358.70 L724.81,356.45 L722.79,356.72 Z M727.88,356.03 L727.32,356.10 L729.73,356.84 L727.88,356.03 Z M726.47,420.53 L734.30,421.49 L728.48,420.33 L726.47,420.53 Z M753.35,424.40 L755.82,424.64 L755.80,424.28 L753.35,424.40 Z M755.86,425.39 L756.79,425.56 L759.24,423.64 L755.86,425.39 Z M725.10,374.50 L725.28,375.04 L727.35,367.35 L725.10,374.50 Z M731.79,400.70 L732.08,400.90 L731.90,400.51 L731.79,400.70 Z M734.10,402.27 L737.87,402.71 L733.08,401.58 L734.10,402.27 Z M707.51,309.38 L708.10,307.74 L705.85,310.78 L707.51,309.38 Z M842.25,532.09 L843.78,542.72 L843.38,538.31 L842.25,532.09 Z M895.44,557.89 L895.67,560.17 L895.83,559.63 L895.44,557.89 Z M921.43,549.46 L919.21,544.48 L919.45,546.33 L921.43,549.46 Z M919.65,536.86 L926.13,536.51 L921.24,536.28 L919.65,536.86 Z M817.25,641.65 L818.34,641.95 L815.66,640.20 L817.25,641.65 Z M856.09,639.60 L855.88,639.21 L851.18,638.16 L856.09,639.60 Z M858.92,647.98 L858.13,643.39 L856.98,641.26 L858.92,647.98 Z M883.86,579.84 L881.08,579.44 L887.57,581.00 L883.86,579.84 Z M844.40,560.78 L844.64,560.50 L844.17,557.77 L844.40,560.78 Z M895.56,570.41 L895.83,570.26 L896.56,568.28 L895.56,570.41 Z M842.10,435.12 L842.38,434.86 L842.25,434.91 L844.24,429.68 L842.10,435.12 Z M862.96,435.09 L853.63,433.98 L851.85,434.27 L862.96,435.09 Z M901.59,426.90 L894.88,429.01 L894.88,429.01 L901.59,426.90 Z M829.22,465.06 L821.62,462.10 L821.61,462.35 L829.22,465.06 Z M901.46,496.02 L911.11,501.66 L902.32,496.43 L900.93,494.05 L901.46,496.02 Z M857.60,516.29 L851.35,520.66 L852.57,520.24 L857.60,516.29 Z M913.43,527.45 L910.12,526.34 L914.28,528.42 L913.43,527.45 Z M914.87,529.10 L914.69,534.59 L915.15,529.42 L914.87,529.10 Z M857.80,483.65 L853.96,483.47 L858.59,484.17 L857.24,481.79 L857.80,483.65 Z M882.34,461.91 L882.47,462.45 L884.17,463.36 L882.34,461.91 Z M800.05,415.45 L801.84,413.59 L802.17,412.32 L798.13,417.89 L800.05,415.45 Z M832.46,406.56 L832.78,407.59 L833.31,404.24 L832.46,406.56 Z M850.77,385.31 L853.63,386.29 L851.32,385.19 L850.77,385.31 Z M845.56,384.90 L849.07,382.86 L843.64,385.65 L846.84,385.40 L845.56,384.90 Z M864.28,381.24 L862.03,381.01 L867.99,382.17 L864.28,381.24 Z M873.08,390.01 L867.06,385.07 L871.69,389.66 L873.08,390.01 Z M876.52,387.92 L880.11,389.61 L879.10,388.62 L876.52,387.92 Z M837.62,425.97 L841.37,425.58 L840.73,425.33 L837.62,425.97 Z M881.08,393.55 L881.41,390.88 L881.19,390.67 L881.08,393.55 Z M817.65,332.79 L815.07,332.27 L813.83,332.87 L817.65,332.79 Z M854.05,327.73 L854.05,327.73 L852.77,325.76 L854.05,327.73 Z M854.69,302.64 L853.66,302.08 L854.57,302.84 L854.69,302.64 Z M864.68,780.65 L852.13,775.80 L854.03,776.88 L864.68,780.65 Z M818.70,747.72 L824.00,748.71 L817.95,747.06 L818.70,747.72 Z" /></g></svg>