<svg xmlns="http://www.w3.org/2000/svg" viewBox="0 0 1000 1000" width="1000" height="1000"><g fill="#cccccc" stroke="#222" stroke-width="2"><path d="M481.66,879.68 L473.61,867.27 L458.82,857.30 L440.30,856.60 L422.75,845.41 L407.48,849.43 L403.15,852.93 L383.43,850.74 L371.89,844.53 L362.99,843.74 L360.46,838.32 L352.05,833.16 L344.83,834.82 L341.83,832.90 L337.26,833.86 L332.69,830.71 L328.00,830.63 L321.75,827.48 L319.94,823.46 L315.26,820.57 L308.16,821.88 L305.64,824.24 L302.51,822.32 L297.84,822.52 L299.50,823.11 L292.53,823.54 L288.56,825.21 L283.87,823.81 L281.23,819.52 L273.65,816.11 L270.41,812.35 L263.31,815.24 L260.79,810.78 L254.66,806.84 L238.06,810.52 L233.85,807.54 L235.30,802.82 L234.34,799.32 L230.61,796.26 L245.28,784.54 L246.36,777.20 L244.92,771.25 L241.31,766.53 L242.63,763.47 L240.35,763.64 L219.43,759.27 L202.95,751.66 L199.47,744.49 L186.12,742.05 L181.91,739.07 L176.02,739.95 L178.79,734.18 L181.55,733.65 L182.39,730.24 L186.00,727.71 L181.43,719.92 L177.34,716.77 L179.15,711.70 L175.18,706.98 L175.78,705.06 L170.01,702.08 L168.57,697.01 L173.01,694.65 L172.41,691.07 L168.57,689.67 L167.60,681.10 L163.52,679.52 L162.67,675.85 L158.35,673.58 L158.59,671.13 L156.54,669.64 L165.20,639.39 L174.58,638.69 L157.98,639.56 L152.09,634.49 L148.01,634.49 L141.87,638.25 L142.47,641.14 L138.63,644.81 L136.22,645.07 L132.37,640.87 L128.41,640.87 L123.72,642.97 L97.39,640.26 L91.13,637.11 L86.56,633.44 L85.36,629.85 L79.71,626.71 L78.27,624.35 L79.83,621.72 L76.10,618.84 L76.58,617.35 L72.86,614.11 L67.69,613.24 L70.57,604.50 L78.15,596.19 L78.15,591.82 L82.36,588.23 L78.99,582.20 L75.38,581.24 L72.38,578.18 L64.80,575.90 L59.15,571.53 L55.42,564.53 L63.12,556.23 L59.15,547.57 L63.60,543.28 L58.55,538.83 L59.27,530.61 L57.23,527.20 L57.83,524.31 L61.07,521.69 L59.87,518.71 L65.04,516.70 L55.30,508.31 L49.53,508.13 L47.61,505.42 L42.20,506.91 L41.96,503.93 L39.31,501.84 L35.34,500.70 L32.70,502.01 L31.98,499.83 L38.59,496.07 L35.82,493.97 L35.82,486.45 L29.33,478.14 L28.49,474.29 L35.70,462.31 L38.95,462.22 L41.11,460.21 L40.75,455.67 L43.28,452.61 L41.47,448.23 L35.22,446.48 L38.83,444.12 L38.59,438.00 L30.53,436.08 L29.09,433.91 L28.01,433.98 L23.44,427.25 L30.05,422.00 L31.74,415.44 L27.05,415.35 L25.84,412.99 L19.23,409.23 L23.20,404.69 L23.32,401.54 L35.22,394.28 L34.86,392.53 L40.15,385.71 L54.70,375.48 L56.02,365.69 L67.69,359.56 L70.45,359.65 L70.81,357.55 L74.66,355.37 L81.15,356.85 L82.48,358.86 L102.19,362.45 L108.21,377.75 L103.40,363.41 L105.56,361.05 L114.34,358.51 L117.58,343.74 L122.39,341.11 L126.36,343.12 L132.98,343.30 L138.51,338.23 L150.65,336.48 L156.54,340.24 L165.92,341.73 L169.41,343.82 L170.61,347.58 L173.13,349.42 L170.85,353.44 L175.66,358.86 L179.27,357.29 L181.55,358.95 L186.00,355.02 L193.57,356.33 L200.67,360.44 L200.91,363.59 L208.72,367.35 L217.74,368.75 L216.90,370.58 L220.63,373.99 L232.41,375.04 L235.90,378.80 L242.15,379.33 L252.37,382.56 L260.91,382.47 L257.90,380.46 L261.03,375.04 L260.07,370.58 L267.40,368.22 L270.65,359.56 L246.48,348.55 L256.82,339.10 L262.11,337.00 L263.91,336.04 L264.15,330.36 L266.20,329.13 L270.53,329.48 L263.79,321.70 L264.52,318.38 L275.94,305.44 L284.71,302.11 L293.37,285.41 L288.32,282.61 L290.13,276.32 L287.12,271.42 L282.79,272.03 L277.02,270.90 L271.13,264.69 L259.10,262.68 L253.33,259.44 L250.45,248.86 L258.02,238.63 L266.44,232.16 L275.94,230.85 L284.23,234.17 L290.61,233.03 L305.76,220.62 L310.21,218.87 L314.17,201.03 L298.66,191.23 L299.99,187.39 L307.08,185.46 L319.34,184.85 L324.39,180.92 L331.97,180.13 L347.96,171.73 L355.41,176.28 L369.60,180.04 L372.97,180.39 L376.70,178.55 L381.99,181.18 L390.52,182.23 L398.10,176.46 L401.59,175.67 L404.11,174.27 L400.74,170.16 L402.19,166.49 L399.54,163.78 L406.15,162.38 L421.67,154.59 L426.23,150.40 L432.61,150.83 L433.81,148.47 L440.06,147.07 L432.37,144.19 L432.85,141.22 L439.70,139.73 L446.19,135.53 L454.73,136.67 L457.02,135.27 L462.79,135.09 L461.70,128.80 L463.87,126.96 L467.96,128.54 L472.89,125.91 L480.94,127.14 L483.71,126.09 L488.52,128.36 L491.76,123.99 L497.41,120.58 L503.67,123.99 L504.63,126.44 L514.73,129.67 L519.66,128.80 L527.71,122.33 L525.79,113.67 L540.34,108.07 L540.10,105.45 L545.63,103.18 L546.23,97.93 L551.28,89.97 L555.97,88.05 L557.05,80.97 L566.55,83.33 L583.99,95.74 L601.42,75.89 L603.82,69.25 L608.87,66.71 L611.40,59.89 L615.49,56.83 L621.02,55.78 L628.47,56.74 L631.24,54.21 L636.17,55.96 L652.52,52.28 L656.85,54.12 L665.87,53.16 L673.32,55.17 L677.53,61.20 L686.55,66.80 L690.88,68.20 L693.52,64.88 L703.14,60.50 L712.40,55.70 L717.33,51.32 L720.58,50.54 L719.13,47.91 L723.22,45.99 L727.79,45.90 L740.66,51.24 L750.15,49.40 L757.37,51.15 L761.70,49.92 L771.92,47.48 L777.69,43.37 L781.18,45.38 L786.35,45.29 L795.36,41.88 L795.96,45.64 L800.77,48.35 L803.18,45.38 L809.43,43.72 L814.00,36.63 L816.04,37.51 L823.62,36.37 L826.50,38.29 L830.59,33.40 L836.60,29.72 L847.31,28.76 L851.75,27.10 L852.36,22.90 L856.08,19.23 L866.54,27.80 L868.47,31.12 L883.86,41.62 L870.51,47.21 L860.05,48.17 L856.56,46.86 L852.36,49.75 L846.22,60.42 L846.58,63.04 L857.17,67.15 L851.03,67.33 L848.39,70.39 L848.99,81.75 L857.53,103.18 L876.28,134.31 L900.09,163.51 L903.46,166.14 L908.63,166.84 L918.85,163.08 L914.88,169.72 L911.63,170.07 L910.67,172.87 L928.71,193.42 L933.88,195.08 L940.73,194.56 L946.38,191.50 L946.62,195.34 L949.63,198.32 L954.68,195.08 L958.16,195.43 L959.97,194.29 L962.61,195.08 L967.06,201.55 L969.95,202.51 L966.58,207.85 L971.15,210.12 L971.75,212.22 L969.11,211.17 L965.98,212.57 L962.85,209.95 L958.16,211.52 L953.96,210.73 L951.91,212.57 L944.46,212.22 L940.01,217.99 L938.93,224.38 L942.17,227.17 L937.24,233.12 L940.61,234.17 L939.65,235.13 L941.69,237.05 L939.77,239.59 L943.50,243.44 L938.21,243.53 L937.84,247.64 L940.61,248.95 L933.16,253.14 L933.28,257.34 L940.61,258.65 L943.13,256.73 L941.21,262.68 L944.10,264.16 L940.37,266.79 L946.26,271.68 L945.06,277.19 L946.50,280.34 L945.54,282.70 L941.33,285.32 L938.45,285.32 L937.12,287.16 L931.35,275.44 L927.99,277.37 L922.33,274.13 L920.53,275.36 L916.92,274.39 L915.72,267.57 L912.84,268.01 L913.56,264.25 L916.08,262.76 L914.16,259.27 L916.20,254.89 L915.36,251.48 L910.79,249.73 L907.18,252.44 L904.54,251.66 L901.65,247.46 L897.32,249.21 L894.68,247.99 L895.04,243.18 L892.15,236.09 L886.26,230.85 L886.98,227.35 L893.84,225.16 L898.65,226.39 L900.21,225.42 L899.49,223.68 L907.42,225.34 L909.59,222.10 L908.87,219.92 L904.06,219.22 L908.87,217.90 L908.75,205.31 L906.34,193.68 L905.02,191.58 L903.58,193.77 L901.53,193.59 L899.01,188.52 L894.20,186.51 L893.60,180.65 L890.95,180.74 L886.98,184.59 L887.71,187.65 L891.31,190.97 L889.75,193.94 L884.10,192.20 L873.76,193.07 L868.47,191.41 L866.78,189.14 L859.57,190.80 L856.92,195.52 L862.58,203.48 L861.61,205.57 L855.36,207.67 L859.45,213.36 L854.64,217.47 L850.43,213.36 L852.12,210.03 L847.79,208.20 L843.34,208.29 L842.98,202.86 L838.41,199.37 L831.43,200.94 L823.14,209.07 L821.82,205.05 L817.61,200.59 L812.08,199.10 L813.76,198.05 L820.13,199.54 L825.90,196.83 L830.47,196.74 L834.68,188.35 L833.72,185.46 L836.48,179.60 L843.58,171.65 L846.46,171.56 L846.95,176.19 L848.63,177.42 L853.92,177.51 L855.24,176.11 L857.04,176.98 L860.65,174.36 L863.30,168.85 L861.37,165.79 L865.10,162.55 L870.63,161.77 L873.64,155.38 L871.83,152.32 L867.63,151.62 L860.05,140.34 L856.08,133.26 L850.43,127.92 L847.67,117.96 L845.98,118.04 L841.41,111.48 L842.86,109.82 L841.29,109.04 L841.90,97.67 L844.06,91.37 L841.29,83.94 L838.53,82.37 L840.57,80.18 L831.07,80.70 L830.83,79.57 L820.61,82.02 L815.68,85.16 L815.92,86.13 L812.80,91.55 L813.28,98.89 L809.67,99.42 L810.15,100.99 L808.59,103.35 L810.87,105.80 L806.79,110.79 L801.62,109.12 L795.72,109.56 L789.71,114.02 L786.10,112.88 L781.18,115.77 L780.33,117.78 L771.56,123.29 L768.91,128.45 L755.20,138.59 L752.80,136.76 L749.91,138.77 L745.95,141.48 L747.99,142.96 L742.46,146.11 L739.57,150.31 L740.90,151.10 L736.69,151.62 L736.21,156.08 L732.96,157.83 L728.39,158.01 L724.90,164.65 L718.53,165.09 L717.09,163.43 L713.60,163.43 L699.05,168.15 L689.07,173.92 L687.03,178.82 L681.50,184.68 L669.96,194.99 L669.59,199.89 L672.12,201.55 L676.45,206.54 L673.80,208.29 L676.09,209.33 L674.89,211.52 L673.32,211.08 L671.04,213.53 L665.99,210.56 L661.54,210.73 L658.65,213.97 L653.96,215.54 L645.67,227.96 L646.75,232.42 L648.91,232.33 L653.12,236.88 L658.77,235.22 L663.46,239.42 L660.10,243.70 L659.37,248.42 L656.61,250.17 L660.58,252.10 L658.89,258.04 L662.26,259.35 L661.54,262.59 L657.57,264.25 L647.83,264.34 L659.49,264.51 L651.56,275.44 L651.44,278.07 L654.57,281.91 L659.25,283.40 L661.06,280.78 L668.63,280.51 L674.16,278.50 L676.09,275.09 L681.14,274.83 L680.06,273.96 L685.11,266.09 L691.00,261.80 L697.73,259.88 L698.45,262.24 L702.54,264.69 L709.63,266.35 L712.04,271.42 L709.51,275.18 L711.44,276.75 L706.15,275.53 L701.22,277.37 L696.41,286.37 L693.76,298.62 L693.76,311.56 L697.13,320.04 L702.66,323.62 L701.94,327.21 L704.10,333.59 L710.24,335.43 L712.40,334.12 L719.49,335.78 L735.24,345.14 L750.15,354.06 L754.60,350.73 L750.88,347.76 L755.44,350.73 L760.25,351.17 L767.71,359.30 L772.88,360.09 L773.72,362.71 L772.28,363.76 L774.56,364.99 L769.03,367.87 L770.83,371.02 L769.39,374.87 L762.90,379.68 L765.66,382.30 L765.42,385.89 L760.49,389.99 L760.13,393.41 L763.62,402.41 L768.79,408.45 L772.04,409.41 L776.00,407.31 L780.45,413.08 L788.27,414.83 L801.98,413.69 L808.35,417.54 L809.19,420.08 L813.40,422.96 L817.37,423.57 L821.94,421.74 L823.74,422.96 L827.47,427.86 L827.95,431.97 L822.42,439.58 L814.84,439.14 L808.35,442.72 L814.24,448.41 L810.63,452.87 L801.74,449.02 L800.65,443.51 L795.60,442.37 L795.12,439.75 L790.19,438.26 L787.07,439.40 L786.47,442.29 L779.97,446.57 L779.13,457.59 L776.73,461.61 L778.29,468.52 L776.25,470.71 L773.36,471.14 L768.91,476.39 L755.56,473.24 L752.20,470.88 L752.44,467.21 L750.15,465.37 L744.62,466.77 L742.22,465.46 L739.45,465.98 L730.68,461.96 L729.95,453.74 L733.56,453.65 L735.36,450.51 L727.67,445.96 L711.80,432.49 L709.87,427.33 L708.31,424.54 L702.66,424.80 L703.02,422.35 L700.38,419.29 L701.70,418.15 L694.48,418.76 L687.87,414.74 L687.27,413.43 L689.91,412.29 L688.11,412.47 L682.82,407.40 L679.57,406.78 L674.40,401.01 L671.28,400.84 L666.23,395.94 L654.44,394.28 L645.79,387.20 L642.78,387.63 L627.75,378.89 L629.92,380.90 L629.56,383.35 L626.91,383.26 L625.35,386.93 L621.14,388.07 L622.22,390.96 L616.81,394.19 L615.01,397.43 L609.36,401.10 L605.27,408.45 L609.72,412.56 L607.91,413.52 L607.79,418.94 L613.44,423.49 L613.44,425.06 L623.30,427.07 L624.51,422.26 L631.36,426.72 L634.12,424.80 L639.17,425.15 L639.05,426.81 L645.31,428.21 L647.95,431.27 L655.29,430.31 L654.93,433.45 L657.09,434.33 L656.97,437.30 L658.89,438.79 L653.12,448.67 L655.77,458.38 L652.40,464.32 L656.37,468.00 L654.69,474.73 L662.26,479.01 L659.62,480.33 L659.62,484.96 L668.75,488.72 L670.32,493.88 L672.72,495.72 L674.04,495.10 L683.06,497.64 L684.14,500.61 L689.07,502.01 L699.05,509.53 L708.43,511.80 L699.65,520.64 L693.16,521.86 L682.10,520.20 L666.47,524.48 L661.18,532.09 L660.82,538.74 L662.50,540.57 L665.63,540.14 L665.51,541.36 L665.63,544.95 L659.86,546.87 L657.21,549.76 L653.72,560.86 L655.41,572.75 L659.86,581.50 L666.11,588.23 L669.72,590.68 L671.04,589.81 L669.96,591.12 L677.65,594.09 L678.49,595.66 L675.97,597.59 L677.65,597.68 L678.97,600.39 L676.09,598.20 L676.21,601.70 L675.01,605.46 L676.21,606.07 L667.55,611.67 L665.39,613.68 L668.99,617.70 L666.83,625.31 L663.58,628.89 L659.25,627.41 L655.41,629.68 L658.41,630.03 L658.65,632.13 L655.05,632.30 L655.05,633.53 L659.74,634.14 L658.65,635.80 L668.03,640.09 L671.64,640.00 L682.22,644.11 L684.50,646.82 L685.71,655.74 L678.37,656.35 L674.28,659.32 L671.64,671.39 L665.27,675.68 L653.24,676.03 L650.96,683.37 L651.68,700.51 L657.09,716.69 L662.02,727.09 L679.69,753.85 L690.04,767.75 L707.83,789.27 L717.45,798.36 L722.98,800.28 L729.35,797.22 L735.97,801.25 L741.62,800.81 L741.02,802.99 L744.26,804.83 L742.46,813.84 L744.74,814.45 L741.74,816.20 L743.42,819.35 L750.76,821.88 L758.45,818.91 L756.17,826.95 L753.04,825.91 L748.71,827.48 L746.79,835.44 L742.46,836.31 L740.29,834.30 L735.97,835.17 L730.92,838.93 L727.43,845.58 L732.48,864.64 L738.25,868.05 L738.01,869.80 L741.02,870.15 L737.89,872.51 L743.18,875.57 L742.58,877.06 L747.75,876.71 L744.14,881.78 L750.88,881.17 L750.03,883.18 L755.08,884.14 L754.48,886.59 L743.30,896.12 L743.30,899.45 L740.17,900.15 L737.29,898.48 L732.96,900.41 L729.35,896.39 L723.22,897.35 L718.29,901.19 L719.73,905.39 L716.13,908.02 L713.72,904.52 L716.61,898.48 L711.08,895.51 L708.91,895.69 L708.67,897.52 L706.87,897.26 L708.79,895.25 L704.94,892.54 L705.43,888.25 L695.57,883.09 L686.43,882.57 L682.82,885.45 L681.14,882.57 L672.72,881.61 L664.79,883.18 L655.77,887.29 L645.55,892.45 L644.83,894.64 L636.89,900.23 L632.92,905.83 L634.00,908.02 L637.49,909.15 L633.40,910.64 L630.40,915.80 L632.56,923.67 L639.17,927.17 L635.69,928.13 L635.57,939.23 L639.54,941.86 L648.31,941.33 L651.56,943.96 L641.46,942.56 L570.04,949.81 L557.77,948.41 L553.21,947.54 L546.95,949.20 L544.55,945.18 L527.59,938.88 L524.11,931.01 L507.88,923.06 L486.83,900.06 L481.66,879.68 Z M612.48,378.10 L615.97,379.06 L627.75,378.89 L612.48,378.10 Z M611.76,369.80 L611.40,376.18 L612.48,378.10 L611.76,369.80 Z M655.41,531.92 L650.00,532.44 L661.18,532.09 L655.41,531.92 Z M652.04,548.44 L654.69,549.58 L657.21,549.76 L652.04,548.44 Z M650.12,560.77 L646.15,560.69 L653.72,560.86 L650.12,560.77 Z M574.25,196.48 L587.95,205.05 L590.02,205.24 L574.25,196.48 Z M608.75,266.61 L614.05,266.61 L608.53,266.03 L608.75,266.61 Z M590.12,318.03 L591.80,324.50 L591.32,320.91 L590.12,318.03 Z M584.64,349.09 L585.55,348.20 L583.75,338.93 L584.64,349.09 Z M578.33,353.88 L570.76,363.15 L568.96,365.42 L571.36,362.54 L582.06,351.61 L582.29,351.38 L578.33,353.88 Z M587.47,355.72 L587.59,352.05 L586.41,352.27 L587.47,355.72 Z M592.82,458.00 L593.60,458.29 L595.29,457.74 L592.82,458.00 Z M557.41,468.26 L560.06,473.85 L557.53,465.90 L557.41,468.26 Z M556.21,485.05 L554.17,481.64 L552.36,480.24 L550.56,478.66 L556.21,485.05 Z M605.68,485.03 L600.82,482.34 L599.27,482.27 L605.68,485.03 Z M635.69,522.65 L637.41,523.39 L633.28,516.53 L635.69,522.65 Z M602.98,525.80 L602.60,526.45 L609.60,525.27 L602.98,525.80 Z M602.62,543.72 L605.51,540.84 L606.62,541.21 L605.09,539.73 L602.62,543.72 Z M610.68,554.13 L603.22,556.66 L611.49,554.59 L611.04,549.76 L610.68,554.13 Z M596.01,554.39 L592.27,554.20 L603.22,556.66 L596.01,554.39 Z M614.05,553.95 L617.89,550.02 L612.16,554.43 L614.05,553.95 Z M622.46,556.66 L623.65,550.97 L623.30,551.68 L622.46,556.66 Z M644.22,562.70 L636.65,560.69 L639.17,559.90 L635.21,560.69 L644.22,562.70 Z M647.23,564.71 L649.03,565.76 L644.22,562.70 L647.23,564.71 Z M639.42,569.69 L645.43,571.09 L640.98,569.87 L647.23,564.71 L639.42,569.69 Z M639.05,568.12 L636.17,566.98 L639.42,569.69 L639.05,568.12 Z M641.58,555.26 L638.93,553.69 L641.34,556.58 L644.22,562.70 L641.58,555.26 Z M617.01,767.92 L618.73,767.75 L622.58,764.43 L617.01,767.92 Z M628.11,793.03 L630.76,793.03 L615.25,792.06 L628.11,793.03 Z M655.65,823.81 L650.60,843.57 L657.81,816.81 L655.65,823.81 Z M531.08,135.79 L520.83,131.68 L521.22,132.65 L531.08,135.79 Z M520.85,291.80 L519.18,291.36 L518.03,292.65 L520.85,291.80 Z M499.94,310.07 L499.22,307.80 L497.29,302.90 L499.94,310.07 Z M473.25,354.67 L473.94,354.64 L463.39,350.03 L473.25,354.67 Z M455.57,355.63 L457.98,356.24 L454.37,354.84 L454.47,357.82 L455.57,355.63 Z M497.66,367.35 L482.14,374.87 L498.25,367.92 L497.66,367.35 Z M502.59,444.05 L494.53,437.04 L500.90,443.51 L502.59,444.05 Z M506.19,495.19 L507.64,492.04 L502.10,500.79 L506.19,495.19 Z M492.24,534.28 L482.51,536.46 L495.60,534.54 L492.24,534.28 Z M503.67,532.79 L500.66,533.80 L503.44,533.39 L503.67,532.79 Z M517.25,556.84 L515.45,554.30 L517.13,559.45 L517.25,556.84 Z M517.01,561.74 L517.05,561.01 L510.52,561.74 L517.01,561.74 Z M511.00,566.02 L511.34,566.36 L510.52,561.74 L511.00,566.02 Z M491.29,603.96 L491.88,602.92 L489.48,599.07 L487.19,597.76 L488.28,598.72 L491.29,603.96 Z M589.46,635.04 L583.26,627.06 L584.11,629.59 L589.46,635.04 Z M573.99,641.94 L583.75,639.21 L576.89,640.52 L573.99,641.94 Z M462.13,689.40 L467.60,685.03 L462.13,689.40 L462.13,689.40 Z M531.32,690.72 L530.65,691.96 L536.97,704.88 L531.32,690.72 Z M512.20,728.40 L512.11,727.96 L510.04,732.95 L512.20,728.40 Z M577.18,747.61 L571.72,744.58 L574.25,746.86 L577.18,747.61 Z M591.68,787.60 L586.87,775.89 L586.27,771.25 L585.79,775.80 L591.68,787.60 Z M594.21,852.23 L620.36,873.69 L620.36,873.69 L593.01,851.20 L593.00,851.20 L594.21,852.23 Z M60.83,532.88 L84.40,541.89 L85.87,542.10 L60.83,532.88 Z M93.69,543.26 L102.07,544.51 L108.81,544.16 L93.69,543.26 Z M181.07,546.08 L188.70,543.89 L187.92,543.37 L181.07,546.08 Z M221.11,538.48 L225.44,539.96 L227.04,539.38 L221.11,538.48 Z M228.34,539.58 L234.94,543.20 L230.85,539.96 L228.34,539.58 Z M233.85,552.90 L236.62,539.87 L234.94,543.20 L233.85,552.90 Z M235.42,537.43 L240.04,533.81 L240.04,533.81 L235.42,537.43 Z M295.54,542.67 L318.65,541.91 L317.78,541.27 L295.54,542.67 Z M319.39,542.45 L319.70,545.91 L319.82,542.76 L319.39,542.45 Z M311.65,555.00 L315.20,560.92 L315.20,560.92 L311.65,555.00 Z M341.83,528.59 L347.24,529.38 L338.82,528.16 L341.83,528.59 Z M348.56,526.58 L348.92,514.69 L347.24,529.38 L348.56,526.58 Z M356.98,522.56 L361.57,523.11 L361.31,522.30 L356.98,522.56 Z M428.28,529.57 L430.61,533.46 L429.48,529.64 L428.28,529.57 Z M460.38,548.27 L461.22,550.02 L463.15,539.70 L460.38,548.27 Z M462.43,552.90 L462.50,556.29 L463.15,555.53 L462.43,552.90 Z M465.95,558.50 L462.53,557.85 L462.55,558.76 L450.52,562.70 L465.95,558.50 Z M438.46,570.51 L440.90,569.87 L450.52,562.70 L438.46,570.51 Z M467.42,558.10 L476.39,555.66 L471.20,556.31 L467.42,558.10 Z M479.27,555.30 L484.19,555.86 L481.66,555.00 L479.27,555.30 Z M490.56,549.23 L491.68,549.36 L490.03,548.79 L490.56,549.23 Z M506.31,752.28 L494.41,757.70 L507.39,752.18 L506.31,752.28 Z M535.53,793.90 L549.84,803.08 L549.96,803.07 L535.53,793.90 Z M193.11,543.01 L191.53,549.23 L192.45,550.64 L193.18,542.99 L193.11,543.01 Z M195.72,649.95 L195.02,647.43 L192.73,644.63 L195.72,649.95 Z M344.53,689.44 L344.42,688.53 L343.86,689.57 L344.53,689.44 Z M405.07,632.04 L398.22,628.98 L386.56,624.43 L405.07,632.04 Z M465.67,617.96 L469.90,616.54 L449.56,619.27 L465.67,617.96 Z M299.18,795.64 L304.91,790.40 L299.02,794.95 L299.18,795.64 Z M303.12,799.09 L299.52,797.11 L299.74,798.10 L303.12,799.09 Z M312.13,790.58 L312.30,791.49 L313.57,786.91 L312.13,790.58 Z M320.06,782.36 L321.15,784.02 L320.79,780.53 L320.06,782.36 Z M321.87,777.81 L321.67,778.31 L322.38,777.62 L321.87,777.81 Z M354.32,763.02 L352.05,764.61 L354.57,763.65 L354.32,763.02 Z M367.08,769.33 L360.42,771.75 L361.07,772.13 L367.08,769.33 Z M296.69,822.12 L299.14,816.20 L296.26,821.97 L296.69,822.12 Z M346.78,693.41 L349.04,697.80 L347.84,694.21 L346.78,693.41 Z M350.73,735.05 L348.68,733.11 L350.54,736.84 L350.73,735.05 Z M352.53,739.60 L351.72,739.21 L352.23,740.21 L352.53,739.60 Z M214.74,589.54 L210.65,576.16 L210.53,578.09 L214.74,589.54 Z M313.33,562.79 L314.54,561.57 L310.57,563.31 L313.33,562.79 Z M341.35,552.55 L339.18,555.09 L342.36,552.36 L341.35,552.55 Z M346.76,551.50 L344.71,551.90 L363.47,554.57 L346.76,551.50 Z M366.12,553.25 L371.05,547.57 L363.47,554.57 L366.12,553.25 Z M429.48,577.21 L430.57,580.34 L430.32,573.45 L430.56,568.64 L429.48,577.21 Z M442.47,573.45 L434.77,573.10 L434.90,572.82 L433.93,573.45 L442.47,573.45 Z M469.52,567.51 L462.79,567.16 L469.52,567.92 L469.52,567.51 Z M488.64,569.61 L481.50,569.28 L485.15,569.69 L488.64,569.61 Z M483.83,585.26 L484.31,588.41 L485.27,579.49 L484.37,578.88 L483.83,585.26 Z M372.01,561.04 L370.94,566.80 L371.29,566.55 L372.01,561.04 Z M352.89,382.74 L349.04,375.22 L349.04,375.22 L352.89,382.74 Z M378.86,373.21 L384.27,372.33 L349.04,375.22 L378.86,373.21 Z M404.95,356.77 L400.98,360.53 L393.41,368.40 L404.95,356.77 Z M252.85,500.00 L240.71,503.76 L227.96,509.71 L252.85,500.00 Z M326.68,500.26 L319.46,499.91 L329.50,501.41 L326.68,500.26 Z M341.11,503.15 L338.10,502.19 L338.63,501.27 L334.78,502.20 L341.11,503.15 Z M339.63,497.40 L339.58,499.62 L340.26,498.43 L339.63,497.40 Z M377.72,466.27 L373.21,469.48 L377.54,467.38 L377.72,466.27 Z M388.84,482.07 L386.68,479.80 L388.54,483.45 L388.84,482.07 Z M390.04,483.30 L388.81,484.00 L389.08,484.52 L390.04,483.30 Z M434.26,479.30 L430.92,477.70 L434.26,479.30 L434.26,479.30 Z M473.73,460.48 L469.45,464.28 L470.48,463.97 L473.73,460.48 Z M478.27,538.97 L484.76,544.39 L480.22,539.70 L478.27,538.97 Z M239.83,533.72 L238.54,533.14 L229.41,532.27 L239.83,533.72 Z M349.64,501.05 L358.90,504.55 L387.04,511.98 L349.64,501.05 Z M303.47,526.15 L300.23,527.11 L307.80,526.06 L303.47,526.15 Z M420.27,494.57 L419.62,495.80 L420.62,496.53 L420.27,494.57 Z M424.43,489.94 L421.18,492.83 L420.62,493.90 L424.43,489.94 Z M301.44,478.66 L301.31,477.53 L294.45,474.58 L294.57,474.99 L301.44,478.66 Z M448.60,323.10 L448.37,323.93 L450.28,323.10 L448.60,323.10 Z M445.47,312.69 L444.70,314.53 L445.99,312.89 L445.47,312.69 Z M451.12,314.88 L447.27,313.39 L448.00,314.62 L451.12,314.88 Z M544.31,854.76 L543.99,855.82 L555.73,851.35 L544.31,854.76 Z M590.76,851.55 L585.19,852.40 L577.37,855.20 L590.76,851.55 Z M513.05,751.66 L509.97,751.94 L515.93,753.15 L513.05,751.66 Z M627.39,699.37 L631.92,711.48 L630.64,706.46 L627.39,699.37 Z M633.18,716.41 L636.89,735.66 L639.17,739.86 L633.18,716.41 Z M569.92,710.30 L569.92,710.31 L573.04,702.96 L569.92,710.30 Z M572.68,720.53 L572.14,719.11 L571.77,721.38 L572.68,720.53 Z M572.61,717.20 L572.44,717.21 L572.44,717.22 L572.61,717.20 Z M572.44,713.98 L570.73,712.53 L572.44,717.21 L572.44,713.98 Z M568.11,676.38 L567.52,675.60 L562.46,680.66 L568.11,676.38 Z M562.58,669.12 L565.23,673.40 L566.22,673.89 L562.58,669.12 Z M570.42,643.69 L569.20,644.28 L563.43,651.98 L570.42,643.69 Z M528.16,333.92 L532.40,334.38 L532.95,333.86 L528.16,333.92 Z M549.48,327.12 L554.77,327.65 L557.02,326.80 L549.48,327.12 Z M557.89,321.26 L558.78,320.71 L557.68,320.83 L557.89,321.26 Z M563.65,320.21 L568.96,320.21 L570.38,319.53 L563.65,320.21 Z M564.39,337.35 L568.96,340.06 L567.87,338.58 L564.39,337.35 Z M524.95,547.22 L547.27,542.36 L539.74,543.20 L542.98,541.19 L524.95,547.22 Z M551.67,543.16 L552.84,542.15 L551.80,542.06 L551.67,543.16 Z M547.07,548.36 L553.41,548.28 L549.12,547.92 L547.07,548.36 Z M581.21,546.67 L584.59,546.35 L592.16,541.89 L587.59,544.33 L581.21,546.67 Z M581.34,559.99 L583.38,552.20 L584.59,546.35 L581.34,559.99 Z M599.86,568.47 L604.43,562.35 L604.62,561.00 L599.86,568.47 Z M604.81,559.70 L605.27,556.58 L602.56,558.31 L604.81,559.70 Z M538.66,558.76 L543.11,556.58 L545.39,554.04 L538.66,558.76 Z M504.87,438.79 L501.74,442.02 L528.32,423.05 L504.87,438.79 Z M572.50,386.91 L572.61,387.73 L579.78,384.14 L572.50,386.91 Z M594.45,410.63 L589.88,411.86 L602.50,410.11 L594.45,410.63 Z M572.68,365.60 L577.01,367.17 L577.47,366.96 L572.68,365.60 Z M578.47,366.50 L581.94,364.90 L578.82,365.60 L578.47,366.50 Z M524.83,292.84 L523.61,292.52 L524.65,293.46 L524.83,292.84 Z M528.08,297.65 L526.99,296.74 L526.99,298.88 L528.08,297.65 Z M643.98,578.26 L637.26,581.43 L639.30,581.06 L643.98,578.26 Z M649.20,575.06 L649.20,575.06 L643.98,578.26 L649.20,575.06 Z M651.20,578.53 L650.61,575.08 L649.76,575.29 L649.52,575.19 L651.20,578.53 Z M642.30,598.00 L642.54,595.75 L642.30,598.00 L642.30,598.00 Z M658.53,597.59 L660.22,597.24 L652.88,595.66 L658.53,597.59 Z M658.89,595.23 L652.88,591.29 L660.22,597.24 L658.89,595.23 Z M642.24,551.19 L642.22,551.20 L644.83,551.59 L647.23,552.29 L652.28,552.29 L642.24,551.19 Z M727.67,367.00 L727.61,372.45 L728.75,370.32 L727.67,367.00 Z M672.12,293.11 L687.89,295.09 L687.75,294.59 L672.12,293.11 Z M688.47,297.08 L687.51,302.02 L688.83,298.35 L688.47,297.08 Z M697.73,118.22 L698.85,120.05 L698.93,119.70 L698.09,117.61 L702.66,101.08 L699.29,110.26 L697.73,118.22 Z M715.08,92.73 L715.77,93.56 L732.48,97.14 L715.08,92.73 Z M791.15,101.78 L785.62,95.57 L791.30,103.89 L791.15,101.78 Z M793.75,106.48 L792.70,105.94 L793.32,106.85 L793.75,106.48 Z M839.96,64.60 L821.82,57.36 L837.09,64.18 L839.96,64.60 Z M666.23,961.71 L667.67,961.44 L667.67,962.58 L666.71,962.84 L666.23,961.71 Z M659.98,938.10 L661.18,940.28 L658.53,939.58 L658.05,938.88 L659.98,938.10 Z M668.87,631.87 L669.72,632.13 L666.47,631.87 L668.87,631.87 Z M668.75,631.69 L668.51,631.34 L669.11,631.60 L668.75,631.69 Z M667.55,631.60 L667.07,631.34 L667.55,631.34 L667.55,631.60 Z M666.95,546.08 L666.71,545.30 L668.03,545.38 L668.39,546.17 L666.95,546.08 Z M664.06,461.44 L663.10,461.17 L663.94,461.17 L664.06,461.44 Z M660.58,428.82 L659.49,427.95 L661.06,427.07 L662.86,428.30 L660.58,428.82 Z M626.07,419.46 L625.35,419.38 L626.31,418.85 L626.07,419.46 Z M684.14,979.46 L687.99,979.28 L688.23,980.24 L686.07,980.77 L684.14,979.46 Z M673.32,965.90 L676.09,965.90 L679.94,969.05 L682.46,967.30 L684.14,968.61 L682.94,972.11 L684.14,978.06 L681.74,978.23 L677.05,976.05 L676.21,972.72 L671.28,967.91 L673.32,965.90 Z M713.00,916.06 L718.77,918.42 L720.34,921.22 L717.09,924.72 L712.28,924.98 L705.55,922.97 L703.74,924.72 L705.06,927.95 L700.26,929.18 L697.01,926.64 L692.44,926.03 L689.79,922.79 L687.27,922.79 L687.03,919.82 L685.47,919.47 L687.87,918.33 L686.55,916.76 L687.51,914.05 L682.34,912.30 L683.06,908.45 L688.23,910.38 L690.28,914.22 L693.04,914.40 L693.64,917.28 L704.94,920.08 L709.39,917.55 L707.71,914.92 L708.31,910.20 L713.24,909.06 L716.61,911.60 L713.00,916.06 Z M740.41,900.76 L740.17,901.37 L739.81,901.02 L740.41,900.76 Z M744.02,900.06 L743.30,901.54 L741.74,900.85 L742.10,900.06 L744.02,900.06 Z M703.26,893.67 L703.26,893.32 L703.98,893.85 L703.26,893.67 Z M746.43,838.85 L746.43,839.11 L745.83,838.85 L746.43,838.85 Z M743.06,837.71 L744.62,839.28 L743.18,839.28 L743.06,837.71 Z M742.94,837.45 L742.82,837.71 L742.58,837.71 L742.94,837.45 Z M741.02,837.27 L741.26,837.62 L740.66,837.36 L741.02,837.27 Z M754.48,834.47 L753.64,835.79 L753.04,835.00 L754.48,834.47 Z M719.49,630.47 L713.48,627.93 L706.15,627.14 L699.05,623.91 L701.10,622.07 L711.68,621.72 L716.85,624.43 L719.49,630.47 Z M744.38,625.83 L742.82,625.83 L744.02,620.15 L748.23,621.55 L748.35,619.89 L750.51,621.02 L751.00,624.87 L748.47,626.88 L744.38,625.83 Z M681.62,610.01 L684.99,609.22 L684.50,606.33 L686.79,607.64 L690.16,606.68 L689.07,608.96 L696.41,607.56 L698.69,608.96 L688.71,615.69 L688.59,619.27 L685.95,618.57 L683.66,613.77 L679.69,613.77 L681.62,610.01 Z M783.46,591.99 L785.74,592.69 L792.36,590.77 L791.15,589.54 L795.72,584.03 L794.76,582.72 L796.57,580.45 L799.57,579.92 L802.46,585.52 L807.03,586.57 L810.03,584.91 L813.76,586.05 L815.44,588.76 L814.84,594.27 L810.63,595.75 L812.32,600.47 L810.51,603.45 L815.20,603.62 L820.37,609.31 L809.07,612.10 L809.07,615.78 L805.94,617.61 L797.53,616.21 L796.33,614.38 L803.30,611.14 L806.55,611.14 L805.46,609.13 L790.19,612.89 L784.78,610.62 L776.13,610.70 L773.96,607.99 L775.28,605.98 L776.97,606.42 L777.93,603.97 L782.62,602.83 L779.97,600.12 L780.09,597.76 L778.77,600.04 L765.18,608.08 L765.18,613.85 L771.80,617.00 L771.92,619.54 L768.79,618.66 L767.47,621.29 L759.05,621.02 L746.31,615.16 L745.34,610.70 L741.02,606.33 L727.43,604.41 L716.97,596.80 L710.11,595.66 L705.55,590.59 L705.06,582.55 L693.88,581.24 L694.12,579.05 L698.45,575.55 L703.86,575.46 L708.19,577.83 L711.44,576.69 L709.99,578.44 L711.44,582.90 L715.89,584.12 L719.97,582.20 L721.42,585.78 L725.75,588.23 L729.59,588.58 L733.20,585.78 L730.68,579.92 L733.08,578.96 L735.48,575.38 L734.40,573.19 L736.45,572.14 L738.97,574.85 L745.22,575.73 L745.83,578.26 L748.95,579.40 L757.37,580.01 L762.18,578.09 L773.60,577.48 L775.76,579.05 L775.04,582.20 L777.33,585.08 L782.14,584.38 L783.46,591.99 Z M678.49,546.26 L678.37,546.35 L678.25,546.17 L678.49,546.26 Z M708.91,527.20 L709.27,524.75 L712.52,526.41 L712.28,527.02 L708.91,527.20 Z M679.69,463.27 L676.45,466.07 L671.64,465.11 L669.72,463.45 L675.49,461.79 L679.69,463.27 Z M680.18,441.59 L680.18,444.12 L679.45,442.72 L678.13,442.20 L677.65,439.31 L680.18,441.59 Z M689.67,433.72 L689.31,430.66 L693.28,429.52 L700.50,433.54 L702.54,433.54 L705.79,439.14 L703.62,443.95 L699.65,445.87 L696.53,443.86 L687.15,442.46 L682.70,439.58 L689.67,433.72 Z M687.15,430.66 L683.42,430.04 L682.10,429.08 L685.83,427.51 L687.15,430.66 Z M676.69,426.81 L679.57,425.76 L680.90,428.91 L679.82,429.17 L676.69,426.81 Z M781.66,362.10 L786.71,362.28 L783.94,363.15 L781.66,362.10 Z M789.59,345.84 L781.66,351.43 L780.81,353.44 L767.47,354.14 L770.71,346.62 L786.10,344.00 L795.60,344.17 L789.59,345.84 Z M783.58,255.42 L782.98,256.55 L782.74,254.28 L783.58,255.42 Z M782.02,222.45 L782.02,223.41 L773.96,224.11 L779.61,221.58 L782.02,222.45 Z M771.20,222.45 L768.91,221.93 L771.92,220.27 L772.28,219.22 L773.48,220.18 L771.20,222.45 Z M677.65,217.90 L676.93,216.33 L679.21,216.77 L679.57,215.54 L681.50,216.51 L681.74,218.60 L680.30,219.04 L677.65,217.90 Z M679.57,210.82 L678.85,212.13 L678.13,212.05 L679.57,210.82 Z M735.48,186.16 L733.44,187.21 L730.56,185.99 L733.68,186.60 L735.48,186.16 Z M754.72,171.91 L752.68,170.95 L755.20,170.25 L762.30,165.70 L754.72,171.91 Z M763.74,164.39 L764.10,163.16 L768.31,160.45 L763.74,164.39 Z M774.44,149.35 L784.42,145.85 L793.80,147.07 L783.34,152.67 L780.93,156.26 L771.20,156.96 L770.47,154.16 L774.44,149.35 Z M782.74,122.42 L785.02,122.42 L784.90,123.99 L783.10,123.73 L782.74,122.42 Z M804.50,775.97 L803.06,774.75 L805.46,772.83 L805.94,775.97 L804.50,775.97 Z M806.55,751.23 L808.23,750.79 L808.59,752.54 L807.51,752.71 L806.55,751.23 Z M808.71,749.57 L807.99,750.18 L807.15,749.83 L808.71,749.57 Z M810.15,740.21 L806.43,741.35 L808.59,745.19 L807.63,746.68 L807.87,748.87 L809.91,748.95 L807.63,749.22 L806.43,748.69 L803.30,744.67 L808.71,738.20 L811.11,738.46 L810.15,740.21 Z M811.11,738.81 L811.96,738.72 L811.84,739.07 L811.11,738.81 Z M809.55,735.58 L810.51,736.19 L809.31,737.76 L808.47,736.10 L809.55,735.58 Z M799.93,635.71 L799.93,636.41 L798.97,635.45 L799.93,635.71 Z M781.42,628.63 L787.31,631.34 L791.15,631.08 L793.08,633.18 L798.49,635.98 L796.20,635.45 L793.68,636.94 L788.51,634.14 L779.13,635.89 L773.84,632.83 L774.80,629.33 L781.42,628.63 Z M794.04,629.94 L793.20,630.29 L792.72,629.77 L793.92,629.33 L794.04,629.94 Z M831.67,612.80 L832.16,613.24 L831.67,613.24 L831.67,612.80 Z M831.31,612.37 L829.75,613.15 L828.31,612.10 L829.51,611.58 L831.31,612.37 Z M828.07,611.84 L828.07,612.54 L826.50,612.28 L826.99,611.84 L828.07,611.84 Z M821.09,608.87 L822.78,609.92 L821.94,609.83 L821.09,608.87 Z M852.48,544.86 L849.35,544.68 L847.07,540.92 L852.60,539.26 L854.64,542.15 L852.48,544.86 Z M863.42,536.46 L863.18,537.08 L862.34,536.99 L862.34,536.29 L863.42,536.46 Z M863.78,534.89 L863.42,535.59 L862.70,535.41 L862.94,534.72 L863.78,534.89 Z M859.81,532.44 L860.65,529.03 L862.46,529.56 L862.34,534.02 L859.81,532.44 Z M867.02,460.48 L869.31,460.39 L874.00,464.67 L874.12,467.21 L866.66,465.37 L866.30,462.84 L859.69,457.59 L863.90,455.58 L867.02,460.48 Z M868.59,362.45 L867.39,360.44 L870.99,361.49 L870.75,362.71 L868.59,362.45 Z M833.48,350.91 L836.60,351.08 L838.17,354.23 L843.70,352.83 L844.66,356.33 L850.31,356.85 L850.31,359.56 L847.31,358.86 L840.81,361.49 L839.13,357.20 L833.48,355.19 L833.48,350.91 Z M809.55,347.58 L811.72,346.80 L811.84,347.67 L809.55,347.58 Z M890.59,299.66 L888.55,300.89 L887.22,300.01 L889.03,298.79 L890.59,299.66 Z M971.27,284.27 L970.79,285.06 L970.31,284.71 L971.27,284.27 Z M868.95,229.27 L879.77,233.47 L879.29,238.19 L881.09,238.89 L877.73,242.13 L880.97,244.92 L879.77,249.73 L883.62,252.10 L885.90,256.29 L890.59,257.25 L894.68,260.66 L891.67,266.70 L897.44,274.83 L895.04,279.29 L900.81,281.04 L913.92,291.71 L907.91,297.57 L902.86,297.30 L899.73,299.05 L895.76,298.18 L886.26,292.76 L885.30,289.87 L878.93,288.21 L879.41,284.01 L866.78,283.31 L859.33,279.73 L858.01,275.18 L850.43,272.64 L849.71,270.02 L846.22,269.50 L844.42,270.63 L838.89,266.00 L835.04,266.44 L831.19,263.46 L824.34,263.38 L825.18,252.44 L821.82,249.82 L819.05,249.56 L817.13,247.02 L808.59,246.24 L802.22,248.16 L801.01,250.70 L798.61,251.05 L797.41,247.64 L787.79,244.92 L781.05,237.49 L783.10,227.87 L796.93,222.89 L799.45,219.48 L804.98,221.58 L815.68,222.80 L823.86,226.74 L828.79,225.25 L830.95,227.35 L830.71,230.06 L834.92,231.28 L834.68,232.60 L838.29,229.80 L845.02,231.63 L849.35,227.35 L854.04,225.86 L868.95,229.27 Z M955.88,257.17 L956.84,257.60 L956.72,258.48 L954.44,256.47 L955.88,257.17 Z M943.98,244.66 L944.94,245.19 L943.98,245.10 L943.98,244.66 Z M942.17,236.53 L942.17,236.79 L941.69,236.53 L942.17,236.53 Z M943.62,236.70 L943.13,236.79 L943.01,236.53 L943.62,236.70 Z M942.41,235.57 L941.81,235.48 L941.93,235.13 L942.41,235.57 Z M785.98,220.27 L788.39,221.14 L788.15,222.71 L784.78,222.45 L785.98,220.27 Z M806.91,219.30 L807.99,219.22 L806.91,219.83 L806.91,219.30 Z M798.85,214.49 L799.45,216.24 L798.13,218.69 L795.48,214.76 L798.85,214.49 Z M869.19,216.16 L866.30,213.79 L868.83,213.27 L870.39,214.84 L869.19,216.16 Z M824.34,212.66 L825.54,209.77 L836.24,208.55 L837.57,210.56 L834.08,213.36 L835.64,216.24 L829.87,217.73 L824.34,212.66 Z M891.91,208.11 L891.07,204.53 L891.91,206.89 L896.48,206.80 L901.77,210.65 L903.34,210.12 L902.37,212.48 L899.13,211.17 L896.72,212.05 L900.93,216.51 L889.39,210.56 L891.91,208.11 Z M977.04,207.15 L978.36,203.65 L980.77,204.09 L980.65,208.64 L978.73,209.68 L977.04,207.15 Z M903.46,202.60 L903.10,204.26 L902.49,203.74 L903.46,202.60 Z M856.44,164.13 L860.53,159.67 L864.74,159.75 L866.06,161.59 L861.13,165.70 L856.44,164.13 Z M803.30,141.48 L801.50,141.48 L803.06,139.64 L803.30,141.48 Z M814.72,132.82 L814.12,132.65 L815.32,132.30 L814.72,132.82 Z M831.07,120.58 L829.51,119.27 L831.92,118.13 L832.64,119.27 L831.07,120.58 Z" /></g></svg>