<svg xmlns="http://www.w3.org/2000/svg" viewBox="0 0 1000 1000" width="1000" height="1000"><g fill="#cccccc" stroke="#222" stroke-width="2"><path d="M23.67,979.12 L23.90,979.65 L23.20,980.77 L23.20,979.72 L23.67,979.12 Z M31.15,959.89 L31.62,959.21 L32.22,962.81 L31.57,963.93 L31.15,959.89 Z M36.47,946.04 L34.94,949.63 L33.42,950.46 L31.25,956.89 L29.26,955.40 L27.92,956.89 L26.21,956.15 L25.28,952.78 L25.70,949.86 L27.27,947.31 L26.39,944.47 L25.19,943.35 L20.02,944.69 L19.23,943.95 L20.20,938.78 L24.73,933.69 L29.30,931.22 L36.88,932.49 L40.49,931.37 L41.87,932.94 L43.40,939.08 L39.79,941.25 L38.59,944.92 L40.30,947.99 L39.24,948.29 L37.95,946.04 L36.47,946.04 Z M53.84,934.96 L48.67,930.10 L48.94,929.20 L51.12,927.78 L51.25,925.98 L53.20,926.81 L53.66,928.75 L54.40,928.75 L53.15,931.30 L54.21,934.29 L53.84,934.96 Z M54.54,924.34 L57.63,919.99 L57.17,923.96 L58.14,928.23 L56.57,926.28 L56.34,925.08 L54.54,924.34 Z M105.78,886.84 L106.20,886.54 L106.29,887.21 L105.78,886.84 Z M102.36,882.05 L103.70,883.32 L103.47,883.99 L103.10,883.99 L102.36,882.05 Z M284.25,571.51 L283.97,571.59 L284.25,571.07 L284.25,571.51 Z M289.33,559.31 L288.73,557.59 L289.61,556.77 L289.88,554.97 L290.76,556.70 L289.33,559.31 Z M314.37,538.06 L312.90,540.30 L312.43,535.21 L313.68,533.72 L314.84,534.17 L314.37,538.06 Z M266.32,494.50 L266.78,495.47 L266.59,496.30 L265.67,495.17 L266.32,494.50 Z M264.42,491.88 L264.33,492.33 L264.14,491.58 L264.42,491.88 Z M279.02,491.51 L279.99,490.31 L280.32,491.65 L279.39,493.53 L279.02,493.60 L279.02,491.51 Z M262.76,489.33 L262.90,487.91 L264.28,486.94 L266.92,487.54 L266.41,488.66 L265.02,491.13 L262.76,489.33 Z M273.71,489.63 L274.03,486.64 L275.56,487.76 L277.45,486.49 L277.87,487.24 L277.08,490.31 L276.02,489.41 L273.71,489.63 Z M279.58,485.29 L279.21,482.67 L281.29,484.17 L281.15,485.44 L279.58,485.29 Z M267.66,481.48 L270.11,480.43 L270.71,486.49 L267.33,482.75 L267.66,481.48 Z M261.09,483.65 L259.66,484.17 L260.59,483.27 L260.77,481.10 L261.09,480.80 L261.09,483.65 Z M266.82,476.69 L266.22,476.76 L265.35,475.71 L265.99,475.64 L266.82,476.69 Z M279.02,472.19 L280.09,474.89 L277.78,477.13 L276.81,473.62 L279.02,472.19 Z M273.80,449.44 L273.85,445.33 L277.41,446.75 L280.09,453.03 L279.25,459.32 L281.47,463.59 L279.76,468.00 L274.13,461.27 L275.74,456.93 L274.17,454.31 L275.28,451.76 L273.80,449.44 Z M279.53,443.01 L277.59,442.63 L277.45,439.86 L275.47,435.00 L276.20,434.25 L278.33,435.00 L280.32,438.29 L281.70,446.15 L280.73,446.07 L279.53,443.01 Z M286.14,424.97 L288.73,428.19 L288.68,429.91 L287.16,428.11 L286.14,424.97 Z M276.02,428.56 L275.05,429.68 L273.57,429.16 L272.83,427.51 L272.51,422.05 L275.42,425.27 L276.02,428.56 Z M282.77,418.16 L285.45,421.08 L285.86,423.62 L283.23,420.55 L282.77,418.16 Z M287.11,392.41 L286.23,393.68 L285.12,392.19 L284.29,393.23 L283.37,399.37 L287.76,408.43 L288.87,412.84 L290.30,413.89 L291.08,412.32 L292.47,413.89 L293.39,418.91 L290.39,417.03 L287.02,410.82 L285.26,411.65 L283.69,414.86 L281.15,410.22 L278.24,409.32 L276.16,410.67 L275.47,415.16 L273.62,414.79 L273.25,406.33 L272.37,401.02 L270.15,397.05 L270.89,395.70 L269.69,390.16 L268.81,388.37 L267.24,388.37 L265.02,386.27 L264.19,381.63 L264.93,378.56 L264.05,368.61 L262.11,348.48 L251.71,271.09 L245.98,242.94 L244.27,238.90 L243.77,236.43 L241.92,233.59 L242.06,232.39 L237.02,225.73 L232.81,211.88 L229.99,206.87 L226.58,203.87 L222.00,205.90 L217.84,204.47 L215.76,198.34 L211.14,193.17 L206.43,192.80 L205.18,194.22 L205.13,196.84 L204.30,193.70 L202.59,191.38 L203.10,189.50 L200.24,178.73 L198.85,167.35 L196.17,155.30 L191.96,151.41 L192.61,147.44 L194.46,144.97 L193.63,140.03 L197.09,140.26 L198.80,142.50 L200.88,140.03 L202.96,142.20 L208.51,143.10 L211.19,145.20 L214.56,144.60 L219.55,147.37 L220.34,146.92 L223.43,149.54 L230.64,151.41 L231.61,153.13 L233.14,153.50 L236.28,151.48 L240.25,144.75 L242.66,136.96 L244.87,121.99 L249.77,118.48 L254.21,116.83 L256.15,105.90 L256.47,95.95 L258.55,90.48 L262.39,85.99 L267.06,84.20 L269.23,85.39 L272.55,87.79 L278.33,103.73 L281.84,110.92 L284.98,113.99 L287.66,111.37 L292.84,119.97 L295.84,121.39 L295.84,123.64 L297.65,126.26 L298.52,130.38 L302.13,135.91 L305.09,142.73 L305.87,145.49 L304.90,149.91 L306.56,157.55 L304.81,158.97 L303.28,163.46 L303.01,170.94 L306.29,192.65 L305.83,200.51 L303.93,210.83 L303.93,219.22 L306.52,231.72 L306.75,239.35 L303.70,256.19 L301.99,261.80 L300.00,265.02 L297.37,266.97 L295.29,272.21 L292.98,282.61 L289.37,308.51 L285.08,314.12 L283.46,320.93 L283.37,323.70 L285.54,329.61 L286.05,333.81 L284.43,339.05 L281.84,342.19 L281.24,344.96 L281.15,354.16 L277.68,359.93 L278.33,363.82 L280.55,366.36 L280.59,367.71 L281.61,365.32 L282.30,363.82 L285.31,367.71 L285.12,369.06 L288.96,371.30 L288.96,377.52 L287.16,377.67 L285.40,382.46 L285.45,389.49 L287.11,392.41 Z M299.77,255.22 L300.10,253.42 L300.60,245.64 L299.77,255.22 Z M295.69,155.59 L295.24,148.19 L295.34,154.55 L295.69,155.59 Z M251.90,125.96 L250.32,122.99 L250.42,123.79 L251.90,125.96 Z M247.55,183.22 L246.72,181.20 L247.97,185.61 L247.55,183.22 Z M248.27,192.75 L248.48,192.42 L248.38,191.96 L248.27,192.75 Z M378.56,267.87 L378.88,268.02 L378.70,269.29 L378.56,267.87 Z M379.02,264.95 L380.04,264.27 L378.79,266.74 L379.02,264.95 Z M408.09,231.79 L408.83,231.72 L408.83,232.17 L408.00,232.32 L408.09,231.79 Z M410.31,228.20 L410.31,227.75 L410.81,227.38 L410.95,228.27 L410.31,228.20 Z M414.56,213.30 L415.99,212.56 L415.39,213.75 L414.14,214.13 L414.56,213.30 Z M413.36,208.81 L412.62,209.34 L412.89,208.59 L413.36,208.81 Z M415.53,205.00 L414.14,205.90 L413.54,205.67 L415.53,203.35 L415.53,205.00 Z M205.55,197.59 L205.69,198.41 L205.41,197.96 L205.55,197.59 Z M415.85,194.74 L416.87,193.32 L417.75,195.34 L416.22,197.81 L415.48,198.34 L415.85,194.74 Z M195.71,181.50 L195.71,181.12 L195.89,181.42 L195.71,181.50 Z M180.97,154.78 L180.64,154.70 L180.64,154.10 L180.97,154.78 Z M412.34,151.18 L411.92,151.63 L411.00,151.03 L412.34,151.18 Z M410.81,150.81 L410.81,150.88 L410.72,150.81 L410.81,150.81 Z M182.54,144.22 L182.12,143.47 L183.00,144.15 L182.54,144.22 Z M297.32,121.25 L296.17,121.02 L296.44,119.52 L297.51,120.05 L297.32,121.25 Z M457.58,691.34 L456.84,693.44 L455.55,693.81 L455.18,695.76 L455.78,696.96 L454.99,697.40 L454.85,699.05 L454.71,696.51 L452.27,696.73 L451.43,695.01 L451.90,694.04 L456.01,693.21 L457.58,691.34 Z M437.94,687.82 L438.36,688.20 L438.54,692.09 L437.52,688.50 L437.94,687.82 Z M436.78,687.00 L435.86,688.50 L435.26,686.48 L436.32,684.98 L436.78,687.00 Z M453.88,685.73 L453.33,685.95 L454.25,684.53 L453.88,685.73 Z M449.35,680.41 L450.79,680.12 L451.16,682.96 L449.35,688.20 L449.35,680.41 Z M436.88,683.41 L436.46,681.24 L438.31,681.61 L438.22,683.33 L436.88,683.41 Z M450.42,675.47 L450.00,676.22 L450.14,675.40 L450.42,675.47 Z M449.22,675.18 L448.75,675.33 L448.52,674.88 L449.22,674.73 L449.22,675.18 Z M450.42,673.98 L450.37,674.43 L450.05,674.28 L450.42,673.98 Z M455.87,667.02 L457.16,666.34 L457.39,667.47 L455.59,669.04 L454.81,671.51 L455.59,674.35 L452.96,675.70 L451.85,677.80 L454.25,669.56 L453.88,665.67 L454.90,665.15 L455.87,667.02 Z M448.29,662.68 L447.97,664.32 L447.55,664.62 L447.41,663.35 L448.29,662.68 Z M431.89,656.39 L431.47,653.17 L433.73,653.02 L432.72,644.04 L432.86,639.17 L433.55,638.50 L436.14,643.14 L435.91,646.51 L437.11,650.40 L436.74,652.27 L435.40,652.50 L434.75,655.04 L436.05,670.09 L436.78,676.00 L436.14,677.65 L435.17,677.80 L433.04,677.27 L431.89,672.26 L430.45,671.73 L429.67,668.66 L429.48,658.26 L431.89,656.39 Z M448.94,656.24 L451.16,653.47 L452.40,654.29 L451.39,655.87 L451.11,658.71 L448.38,661.70 L448.29,658.93 L449.08,657.51 L448.94,656.24 Z M448.57,645.46 L449.08,646.51 L447.23,649.80 L446.35,645.01 L446.44,640.22 L447.37,640.07 L447.37,641.79 L448.94,641.05 L448.57,645.46 Z M427.40,638.35 L428.10,636.18 L428.61,646.29 L428.00,639.40 L427.40,638.35 Z M438.82,639.85 L437.99,640.45 L437.80,638.88 L438.82,638.58 L438.82,639.85 Z M444.59,637.15 L444.22,637.15 L444.41,636.85 L444.59,637.15 Z M433.64,629.97 L433.00,633.41 L432.63,630.27 L432.12,629.00 L432.95,625.85 L433.64,629.97 Z M427.54,623.23 L428.05,623.23 L427.91,624.95 L427.27,624.65 L427.54,623.23 Z M435.95,620.09 L437.02,615.15 L438.86,616.80 L438.36,618.82 L435.95,620.09 Z M423.20,206.79 L424.35,209.04 L419.18,210.61 L419.64,207.54 L423.20,206.79 Z M426.48,200.43 L427.77,200.21 L427.64,203.87 L426.48,205.90 L425.42,205.37 L426.48,200.43 Z M423.25,199.23 L423.52,199.01 L423.29,199.53 L423.25,199.23 Z M429.25,201.03 L430.41,197.51 L432.07,198.64 L431.93,200.73 L429.25,201.03 Z M424.86,199.16 L425.05,198.93 L425.00,199.16 L424.86,199.16 Z M427.36,196.69 L427.36,197.14 L427.17,197.21 L427.36,196.69 Z M418.76,192.72 L419.27,192.35 L419.50,192.50 L419.41,193.10 L418.76,192.72 Z M418.53,189.35 L417.33,189.43 L418.21,187.41 L418.58,187.41 L418.53,189.35 Z M425.19,181.79 L424.12,185.61 L421.67,188.83 L420.75,188.53 L418.76,184.34 L418.02,184.26 L418.72,182.32 L419.18,181.72 L421.63,184.04 L422.78,182.54 L422.69,180.67 L425.19,181.79 Z M417.47,158.07 L417.15,158.07 L416.96,157.84 L417.47,158.07 Z M417.03,155.98 L417.28,156.12 L417.19,156.65 L417.03,155.98 Z M417.75,157.32 L417.28,156.12 L417.52,155.15 L417.84,157.17 L417.75,157.32 Z M417.01,155.90 L417.03,155.98 L417.01,155.97 L417.01,155.90 Z M417.52,153.88 L417.56,153.73 L417.52,155.08 L417.47,154.48 L417.52,153.88 Z M417.01,152.68 L417.05,152.68 L417.01,152.75 L416.96,153.20 L416.82,153.73 L417.01,152.68 Z M418.99,132.17 L418.81,132.40 L419.09,130.83 L419.46,130.75 L418.99,132.17 Z M421.54,127.91 L421.72,128.13 L422.14,127.61 L421.86,128.43 L421.54,127.91 Z M420.56,127.68 L420.70,127.76 L420.38,127.76 L420.29,125.96 L420.56,127.68 Z M422.23,126.26 L422.37,126.11 L422.46,126.26 L422.23,126.26 Z M420.29,125.96 L420.24,124.91 L420.47,124.91 L420.29,125.96 Z M422.27,122.14 L422.60,121.84 L422.23,124.91 L421.81,124.76 L422.18,124.76 L422.27,122.14 Z M423.61,121.17 L424.22,121.92 L422.64,121.84 L423.80,120.87 L423.61,121.17 Z M422.55,120.42 L422.78,120.72 L422.83,120.80 L422.37,120.27 L422.55,120.42 Z M422.18,119.30 L422.09,119.75 L422.23,120.12 L421.95,119.75 L422.18,119.30 Z M424.72,118.85 L425.19,118.55 L424.49,119.52 L424.72,118.85 Z M427.96,106.58 L427.91,106.13 L428.10,106.43 L427.96,106.58 Z M423.34,85.47 L423.29,85.62 L423.29,85.47 L423.34,85.47 Z M422.83,84.35 L422.92,84.72 L422.78,84.35 L422.88,83.90 L422.83,84.35 Z M455.87,661.70 L455.04,662.38 L455.36,660.73 L455.92,660.51 L455.87,661.70 Z M456.01,658.19 L456.56,657.96 L456.38,659.46 L456.05,659.53 L456.01,658.19 Z M499.91,444.05 L499.35,443.30 L499.77,442.48 L500.23,442.93 L499.91,444.05 Z M485.77,408.58 L485.77,407.98 L486.51,407.08 L485.77,408.58 Z M488.31,379.54 L488.17,379.99 L487.99,379.99 L488.31,379.54 Z M486.74,368.09 L486.74,368.91 L486.14,368.91 L486.74,368.09 Z M504.11,357.31 L503.88,358.95 L502.26,360.60 L501.76,360.08 L502.31,358.58 L504.11,357.31 Z M505.78,356.41 L504.67,356.48 L505.82,355.51 L505.78,356.41 Z M506.47,352.07 L505.82,349.97 L506.75,347.95 L505.87,344.81 L506.79,343.69 L507.07,344.51 L508.13,345.26 L506.47,352.07 Z M499.91,339.27 L500.69,338.75 L502.77,343.24 L500.83,343.46 L499.68,346.08 L498.71,346.83 L499.91,339.27 Z M517.42,335.60 L517.84,335.38 L517.93,336.13 L517.65,336.28 L517.42,335.60 Z M512.43,333.88 L512.38,334.33 L512.15,334.40 L512.43,333.88 Z M500.28,333.96 L500.74,333.43 L501.11,334.03 L500.28,333.96 Z M499.58,333.13 L499.68,333.21 L499.49,333.43 L499.58,333.13 Z M512.52,331.86 L512.80,331.56 L512.71,331.93 L512.52,331.86 Z M499.54,332.23 L499.31,330.21 L499.86,331.71 L499.54,332.23 Z M513.26,330.74 L513.03,331.11 L513.17,330.36 L513.26,330.74 Z M501.52,330.06 L501.94,329.46 L501.89,331.11 L501.52,330.06 Z M512.15,329.09 L512.43,328.34 L512.71,330.21 L512.15,329.09 Z M497.55,328.04 L498.61,326.02 L499.08,327.59 L499.63,328.04 L499.31,330.21 L497.55,328.04 Z M520.24,331.19 L519.04,328.04 L519.92,327.22 L520.06,323.10 L520.89,322.13 L521.58,326.02 L520.24,331.19 Z M498.89,321.16 L498.66,322.35 L497.50,321.61 L497.87,320.11 L498.89,321.16 Z M521.12,321.31 L521.67,320.03 L521.95,321.46 L521.40,322.13 L521.12,321.31 Z M499.17,320.41 L498.98,318.99 L499.86,317.27 L499.49,320.03 L499.17,320.41 Z M520.38,318.54 L521.26,318.39 L521.07,318.84 L520.38,318.54 Z M498.20,315.62 L498.57,316.59 L497.04,319.66 L497.27,316.67 L498.20,315.62 Z M510.03,317.41 L511.09,319.44 L509.38,319.21 L509.70,315.24 L510.03,317.41 Z M514.79,316.74 L515.16,316.22 L515.57,318.46 L514.79,316.74 Z M517.47,315.77 L517.56,315.54 L518.02,316.74 L517.47,315.77 Z M524.49,316.37 L523.75,318.39 L522.60,318.16 L523.01,314.12 L524.03,313.52 L524.86,314.20 L524.49,316.37 Z M515.76,315.54 L515.80,314.94 L516.22,315.62 L515.76,315.54 Z M514.51,314.27 L514.60,313.15 L515.16,314.50 L514.51,314.27 Z M504.16,310.30 L503.79,310.01 L504.07,309.63 L504.16,310.30 Z M502.96,310.08 L502.26,309.11 L502.59,308.43 L503.37,309.41 L502.96,310.08 Z M512.06,305.96 L509.84,312.25 L508.78,309.93 L510.54,305.51 L511.60,304.84 L511.78,302.89 L512.43,303.79 L512.06,305.96 Z M504.39,301.32 L504.44,301.70 L503.97,301.85 L504.39,301.32 Z M514.09,299.68 L514.79,301.77 L514.33,303.34 L514.09,299.68 Z M510.44,298.03 L510.40,298.48 L510.26,298.18 L510.44,298.03 Z M501.80,291.52 L501.39,291.67 L501.29,291.29 L501.66,291.22 L501.80,291.52 Z M515.90,287.55 L514.88,290.84 L515.85,291.29 L516.54,294.51 L515.34,296.01 L514.19,295.19 L514.33,289.12 L511.51,284.26 L512.89,281.34 L515.06,282.99 L515.71,284.86 L515.90,287.55 Z M510.95,241.00 L510.35,238.83 L510.72,238.08 L511.28,238.90 L510.95,241.00 Z M512.85,218.32 L513.08,217.35 L513.63,218.17 L513.40,219.07 L512.85,218.32 Z M513.35,182.09 L510.26,173.64 L498.38,151.18 L495.10,146.54 L492.79,141.45 L492.05,140.26 L490.90,140.85 L489.83,139.88 L487.34,142.05 L484.10,140.93 L481.79,146.54 L478.79,146.24 L478.24,148.34 L474.12,149.91 L473.61,148.04 L475.46,142.95 L475.37,138.61 L474.31,135.39 L475.32,134.94 L475.28,131.42 L478.37,126.33 L478.56,123.49 L476.02,113.09 L472.27,106.13 L490.76,100.44 L492.98,104.48 L495.52,108.52 L495.01,110.24 L497.74,116.98 L499.31,119.82 L500.46,118.55 L507.90,94.90 L509.57,92.06 L513.31,88.31 L520.47,86.82 L523.66,81.88 L525.73,76.41 L527.13,67.73 L527.82,54.18 L532.95,49.17 L536.83,47.22 L538.93,44.61 L540.43,39.66 L540.76,27.61 L546.07,23.95 L549.35,24.10 L554.44,28.14 L564.14,26.34 L568.02,26.79 L568.07,19.23 L574.49,19.46 L590.34,20.95 L608.59,30.38 L617.79,35.40 L629.16,34.80 L629.48,41.16 L631.05,45.95 L629.02,58.00 L637.98,74.02 L641.13,86.89 L647.83,105.60 L652.72,118.92 L651.89,120.80 L668.90,156.65 L670.56,158.22 L710.44,173.11 L729.94,180.45 L740.25,184.26 L739.37,186.29 L750.32,196.54 L773.42,218.39 L789.46,233.06 L794.08,239.65 L796.81,244.29 L799.26,245.49 L799.07,246.76 L807.85,259.19 L826.66,285.38 L836.59,263.38 L838.30,266.52 L835.72,272.36 L853.60,295.63 L858.87,302.45 L869.22,319.06 L871.57,315.32 L873.10,318.61 L874.90,321.91 L877.95,317.12 L888.21,335.60 L894.59,347.50 L896.30,361.05 L899.86,367.86 L915.94,391.66 L917.69,393.31 L952.63,446.00 L942.41,470.32 L952.77,446.22 L980.77,487.91 L974.07,511.56 L970.19,525.26 L971.34,525.86 L972.22,528.25 L951.66,548.09 L947.59,549.81 L944.68,553.55 L942.74,554.75 L930.54,560.36 L931.32,567.17 L931.93,575.41 L933.50,577.95 L932.57,577.58 L931.83,579.75 L930.72,579.37 L930.63,581.17 L929.43,580.42 L928.09,582.29 L929.11,583.56 L928.78,584.91 L927.86,585.36 L926.66,583.49 L926.38,588.65 L921.71,580.72 L924.44,585.36 L924.21,587.01 L925.18,589.48 L923.15,587.76 L922.78,589.18 L924.02,592.02 L923.01,592.32 L921.53,589.33 L920.60,592.85 L920.79,593.67 L922.50,592.92 L922.87,594.34 L919.08,594.49 L918.48,595.69 L919.49,598.76 L919.45,602.58 L922.22,601.68 L923.33,606.02 L920.70,611.56 L918.11,609.31 L913.30,613.80 L912.79,618.89 L911.78,620.76 L903.60,624.13 L897.45,636.48 L891.45,641.20 L887.98,644.56 L882.99,646.21 L883.04,648.68 L885.81,652.12 L886.18,654.67 L887.56,656.24 L887.70,664.32 L888.67,665.52 L894.59,665.15 L895.47,670.01 L896.44,670.91 L903.83,667.92 L904.20,670.09 L901.75,674.70 L901.93,676.90 L903.04,678.02 L905.49,676.22 L910.11,678.77 L913.44,677.05 L918.11,682.96 L919.36,683.11 L916.81,687.45 L917.05,688.72 L919.40,688.50 L919.49,689.47 L916.08,698.45 L915.98,705.71 L911.73,702.87 L910.90,705.79 L907.57,707.66 L906.79,710.73 L905.82,710.58 L904.75,714.32 L905.22,722.93 L904.15,725.10 L902.77,724.95 L903.27,729.74 L902.77,730.94 L901.47,731.09 L899.72,728.02 L896.57,727.34 L890.75,727.27 L892.18,722.63 L889.37,718.29 L889.41,712.90 L888.26,713.27 L887.38,718.21 L884.79,719.03 L883.31,722.70 L880.96,719.11 L873.98,716.34 L872.68,712.00 L871.39,706.76 L871.57,700.77 L868.57,699.58 L867.60,694.19 L866.35,694.71 L865.34,700.02 L863.72,703.09 L864.92,711.63 L864.46,718.29 L863.86,720.31 L863.77,722.33 L865.84,726.15 L867.69,733.70 L875.87,742.91 L875.87,744.48 L873.75,749.12 L873.33,753.31 L873.56,754.89 L874.53,755.33 L877.72,752.12 L880.86,752.57 L881.28,754.21 L880.45,763.04 L882.34,767.53 L882.16,772.92 L883.77,776.67 L882.53,778.31 L879.85,777.41 L879.25,778.24 L879.52,781.38 L880.86,784.30 L879.57,787.14 L877.35,789.24 L877.86,793.21 L877.21,795.15 L874.58,791.56 L872.55,794.33 L870.51,791.86 L869.50,793.21 L869.13,801.29 L867.23,804.51 L867.28,808.85 L868.11,810.35 L866.68,814.31 L858.77,801.14 L866.77,814.76 L865.94,829.73 L867.60,846.72 L864.74,845.60 L859.93,847.25 L852.58,872.39 L819.03,838.26 L815.61,834.82 L794.73,813.71 L795.79,802.79 L794.59,813.56 L757.34,777.19 L746.35,766.56 L732.85,753.24 L730.31,764.77 L728.05,767.83 L719.31,762.37 L714.37,755.19 L706.37,772.47 L692.63,751.47 L676.52,801.44 L665.29,785.50 L660.16,775.02 L656.98,773.60 L655.40,774.12 L657.30,745.16 L661.74,747.40 L657.07,744.18 L659.10,710.95 L661.97,671.66 L662.34,661.40 L665.57,635.96 L672.78,599.73 L674.35,595.84 L678.69,554.30 L682.44,538.88 L686.87,532.74 L688.63,532.37 L693.25,534.24 L695.93,535.07 L703.74,534.17 L707.48,531.70 L709.01,530.87 L710.63,531.55 L711.97,530.20 L718.94,519.87 L721.85,513.88 L736.64,488.36 L751.34,468.98 L757.11,463.96 L763.21,461.04 L766.77,461.49 L768.85,463.29 L772.36,477.66 L774.49,477.66 L776.47,477.81 L777.12,475.56 L779.20,474.74 L779.94,470.47 L780.68,460.59 L778.97,458.35 L772.59,436.04 L770.93,430.13 L769.54,429.23 L769.59,425.34 L767.83,419.50 L766.63,416.58 L768.06,414.94 L766.72,415.61 L766.59,413.82 L765.34,412.77 L760.86,406.48 L755.45,395.03 L753.83,393.68 L735.99,363.52 L727.91,349.60 L726.48,348.85 L725.74,350.20 L719.31,348.92 L714.65,349.30 L700.60,353.42 L686.50,358.21 L682.30,358.28 L679.25,356.71 L675.83,353.34 L670.98,345.48 L668.30,340.09 L663.58,325.12 L649.26,290.99 L639.74,274.15 L626.75,260.38 L613.54,253.12 L607.95,252.30 L602.08,256.19 L595.52,263.38 L592.05,266.22 L583.18,279.69 L579.16,287.78 L577.26,294.96 L573.89,298.70 L568.16,312.70 L567.84,315.69 L569.18,317.34 L567.33,320.03 L565.02,320.71 L563.91,317.12 L562.24,315.54 L560.07,314.72 L559.70,316.67 L559.06,314.80 L552.96,311.95 L550.14,316.14 L548.20,314.72 L547.00,315.54 L546.07,312.70 L547.27,312.70 L547.41,310.30 L548.52,309.86 L551.34,303.34 L551.02,300.65 L548.75,295.11 L546.63,295.63 L547.23,292.49 L545.15,286.13 L544.64,285.31 L543.07,286.65 L541.77,283.43 L542.00,282.01 L543.11,282.84 L544.82,281.64 L545.05,278.05 L544.18,275.65 L542.70,276.32 L541.77,268.69 L539.97,270.26 L539.93,266.82 L540.90,264.57 L539.37,264.87 L544.36,262.70 L542.98,263.08 L541.82,250.05 L539.74,243.09 L540.39,240.17 L538.82,238.15 L539.14,235.98 L537.94,231.64 L531.05,214.73 L526.34,207.77 L523.89,205.67 L520.29,204.62 L519.55,207.24 L518.16,208.07 L516.45,215.10 L514.60,215.25 L514.37,213.75 L516.13,208.14 L515.67,203.95 L513.12,197.36 L513.35,194.82 L514.74,193.62 L515.34,191.45 L513.26,184.19 L513.35,182.09 Z M632.39,147.52 L612.01,203.05 L647.83,105.60 L632.39,147.52 Z M711.36,284.71 L712.61,281.94 L750.32,196.54 L711.36,284.71 Z M854.29,348.92 L851.02,354.29 L852.03,352.67 L873.10,318.61 L854.29,348.92 Z M942.19,470.66 L947.04,486.57 L942.41,470.32 L942.19,470.66 Z M870.79,692.54 L872.17,690.68 L872.04,690.74 L867.60,694.19 L870.79,692.54 Z M810.12,769.71 L824.67,735.73 L795.79,802.79 L810.12,769.71 Z M515.26,185.42 L516.03,186.59 L517.88,187.03 L515.26,185.42 Z M498.11,135.39 L494.87,139.06 L494.13,139.96 L498.11,135.39 Z M506.61,144.15 L507.90,140.11 L506.52,142.80 L506.61,144.15 Z M764.83,232.99 L751.80,260.61 L744.82,275.80 L764.83,232.99 Z M751.75,283.43 L761.46,293.54 L744.82,275.80 L751.75,283.43 Z M735.95,314.87 L737.20,309.93 L734.84,318.24 L735.95,314.87 Z M668.85,291.89 L677.68,276.70 L682.76,267.94 L668.85,291.89 Z M683.27,282.76 L693.76,293.76 L677.68,276.70 L683.27,282.76 Z M557.12,210.69 L549.54,198.56 L554.44,206.79 L557.12,210.69 Z M560.81,238.60 L560.97,238.28 L557.99,243.09 L560.81,238.60 Z M675.74,258.51 L677.12,247.88 L677.63,239.95 L675.74,258.51 Z M570.29,108.37 L592.84,125.96 L589.14,123.04 L570.89,108.82 L554.25,95.87 L570.29,108.37 Z M537.57,159.34 L536.74,159.34 L534.65,162.05 L537.57,159.34 Z M753.69,514.56 L753.36,515.01 L754.89,516.50 L753.69,514.56 Z M776.16,491.58 L776.29,492.70 L778.05,502.43 L776.16,491.58 Z M775.63,487.19 L775.63,487.19 L778.97,485.29 L775.63,487.19 Z M798.10,486.19 L798.84,490.46 L800.75,495.81 L798.10,486.19 Z M826.98,479.60 L813.44,487.84 L821.34,483.05 L826.98,479.60 Z M823.84,543.00 L826.66,536.71 L823.44,543.14 L823.84,543.00 Z M811.32,611.33 L822.36,623.98 L829.71,632.21 L814.14,614.03 L804.25,604.22 L811.32,611.33 Z M819.82,698.90 L821.68,691.33 L821.90,686.18 L819.82,698.90 Z M744.91,543.42 L746.31,545.46 L745.98,544.72 L744.91,543.42 Z M749.82,553.21 L753.83,564.93 L751.29,556.47 L749.82,553.21 Z M765.33,548.82 L765.20,548.31 L751.29,556.47 L765.33,548.82 Z M750.41,682.59 L750.40,682.78 L750.42,682.48 L750.41,682.59 Z M694.74,693.08 L691.08,686.55 L694.27,693.06 L694.74,693.08 Z M698.61,712.52 L700.04,718.29 L694.27,693.06 L698.61,712.52 Z M680.96,752.49 L689.92,752.19 L690.85,751.97 L680.96,752.49 Z M691.59,749.87 L692.37,747.33 L690.85,751.97 L691.59,749.87 Z M684.75,608.94 L693.48,618.89 L691.77,616.12 L684.75,608.94 Z M699.52,666.37 L699.52,666.37 L696.02,682.06 L699.52,666.37 Z M768.16,578.25 L753.09,581.32 L779.89,576.38 L768.16,578.25 Z M762.47,639.40 L764.15,641.24 L731.60,604.82 L762.47,639.40 Z M794.76,678.08 L794.76,678.08 L807.16,652.80 L794.76,678.08 Z M811.13,543.97 L809.24,543.52 L807.99,534.54 L809.79,553.63 L808.96,543.60 L811.13,543.97 Z M820.74,539.56 L822.32,543.52 L822.77,543.37 L820.74,539.56 Z M766.12,551.91 L766.68,551.23 L770.76,545.09 L766.12,551.91 Z M802.49,502.13 L801.16,497.31 L800.96,497.60 L803.53,508.30 L802.49,502.13 Z M804.20,511.09 L804.76,513.39 L804.76,511.56 L804.20,511.09 Z M811.41,510.67 L812.06,514.86 L811.32,509.09 L811.41,510.67 Z M795.33,553.33 L794.06,550.04 L798.89,566.13 L795.33,553.33 Z M819.91,485.89 L818.94,496.52 L820.34,485.04 L819.91,485.89 Z M842.69,801.29 L845.84,796.35 L842.28,801.93 L842.69,801.29 Z M827.03,291.74 L817.85,312.21 L819.87,307.76 L827.03,291.74 Z M814.32,368.98 L801.98,356.26 L827.44,384.03 L814.32,368.98 Z M835.07,390.46 L833.27,413.44 L834.98,396.15 L835.07,390.46 Z M835.81,443.01 L834.19,443.60 L840.71,441.21 L835.81,443.01 Z M817.32,410.52 L831.42,386.50 L809.88,422.72 L792.73,450.95 L792.73,450.95 L817.32,410.52 Z M772.45,399.97 L766.82,388.14 L765.85,386.35 L772.45,399.97 Z M771.11,377.74 L766.77,375.72 L771.00,378.18 L771.11,377.74 Z M807.57,418.68 L799.08,381.90 L799.08,381.90 L807.57,418.68 Z M830.17,434.10 L823.56,423.55 L830.17,434.10 L830.17,434.10 Z M784.10,459.32 L786.71,455.36 L786.13,455.58 L784.10,459.32 Z M794.17,450.27 L794.82,448.77 L792.77,450.94 L794.17,450.27 Z M798.42,461.49 L800.78,461.19 L798.16,461.01 L798.42,461.49 Z M791.31,444.28 L793.29,442.22 L792.60,442.18 L791.31,444.28 Z M774.12,409.55 L771.80,412.27 L772.92,411.65 L780.17,402.66 L774.12,409.55 Z M772.96,418.68 L774.16,421.00 L779.26,429.69 L778.83,428.26 L772.96,418.68 Z M781.74,416.29 L780.49,419.43 L781.95,416.17 L781.74,416.29 Z M781.05,340.17 L794.68,290.62 L798.52,276.77 L788.07,314.20 L781.05,340.17 Z M776.71,337.25 L790.11,347.13 L781.05,340.17 L776.71,337.25 Z M752.35,346.31 L748.84,350.65 L754.94,343.16 L752.35,346.31 Z M843.80,767.53 L849.90,776.59 L845.00,769.26 L843.80,767.53 Z M858.82,776.06 L858.91,786.47 L858.82,776.06 L858.82,776.06 Z M859.47,720.98 L859.96,721.42 L859.44,720.67 L859.47,720.98 Z M923.65,498.77 L928.00,492.03 L923.47,499.03 L923.65,498.77 Z M835.39,576.01 L830.73,577.05 L838.72,575.93 L835.39,576.01 Z M869.13,572.34 L868.17,572.55 L872.87,573.24 L869.13,572.34 Z M894.96,543.22 L893.35,542.52 L899.97,547.35 L894.96,543.22 Z M921.53,565.08 L906.70,552.88 L906.65,553.10 L921.53,565.08 Z M871.16,616.50 L867.51,619.79 L874.95,613.13 L871.16,616.50 Z M880.91,616.20 L881.56,633.26 L880.82,612.53 L880.91,616.20 Z M871.94,653.25 L866.58,642.54 L864.78,640.10 L871.94,653.25 Z M889.25,605.02 L888.58,609.91 L888.81,613.20 L889.25,605.02 Z M890.29,600.33 L890.13,598.51 L889.53,602.90 L890.29,600.33 Z M889.74,597.19 L890.02,597.26 L889.18,587.61 L887.93,568.60 L889.74,597.19 Z M851.98,525.41 L860.12,530.06 L860.11,530.05 L851.98,525.41 Z M876.24,510.74 L876.84,509.77 L878.97,503.48 L876.24,510.74 Z M898.48,527.09 L898.24,527.36 L898.42,528.07 L898.48,527.09 Z M898.70,529.10 L898.89,529.83 L901.66,530.05 L898.70,529.10 Z M936.22,534.09 L937.33,534.92 L938.53,534.84 L936.22,534.09 Z M940.34,531.70 L941.07,530.35 L938.53,534.84 L940.34,531.70 Z M888.53,523.61 L889.64,521.59 L876.84,544.72 L888.53,523.61 Z M860.76,531.92 L864.27,536.71 L860.76,531.09 L860.76,531.92 Z M918.02,507.07 L920.90,502.82 L915.47,510.02 L918.02,507.07 Z M945.88,511.49 L945.42,510.22 L945.68,512.15 L945.88,511.49 Z M879.11,422.57 L881.88,425.57 L885.48,428.71 L879.11,422.57 Z M896.20,448.24 L892.14,444.73 L897.50,449.37 L896.20,448.24 Z M866.40,452.74 L869.77,462.09 L868.80,458.35 L866.40,452.74 Z M898.15,465.83 L916.35,464.41 L901.93,465.23 L898.15,465.83 Z M869.64,365.84 L886.87,386.12 L869.64,365.84 L869.64,365.84 Z M559.93,573.01 L554.39,575.63 L552.12,573.76 L550.51,575.33 L549.54,574.58 L550.74,571.14 L552.91,571.29 L555.50,562.98 L557.72,561.26 L560.07,556.99 L564.00,555.50 L567.65,558.72 L572.87,558.64 L573.61,559.84 L573.80,563.06 L572.36,569.57 L570.19,574.51 L563.77,577.58 L559.93,573.01 Z M654.39,444.20 L656.42,444.13 L657.11,441.73 L660.53,441.81 L662.71,439.49 L664.74,439.49 L665.80,441.96 L661.69,443.75 L660.07,446.97 L658.04,458.50 L655.64,461.49 L653.46,459.02 L651.66,453.63 L652.22,446.97 L654.39,444.20 Z M528.33,409.85 L524.03,412.09 L521.44,403.94 L520.84,400.27 L522.50,395.85 L525.09,394.73 L525.55,392.78 L525.74,395.70 L528.47,401.24 L528.97,405.06 L528.33,409.85 Z M524.72,323.03 L525.14,322.65 L524.81,323.33 L524.72,323.03 Z M525.18,322.43 L525.55,321.91 L525.97,322.80 L525.18,322.43 Z M562.75,321.46 L562.85,322.28 L562.61,322.13 L562.75,321.46 Z M564.69,321.23 L564.51,321.83 L564.37,321.53 L564.69,321.23 Z M564.32,321.16 L563.95,321.53 L563.82,320.78 L564.32,321.16 Z M523.71,307.68 L525.97,311.43 L524.91,311.80 L523.24,309.48 L523.71,307.68 Z M540.39,307.24 L542.42,307.16 L543.16,307.76 L542.33,307.46 L541.64,309.18 L539.93,308.43 L540.39,307.24 Z M536.18,305.29 L538.31,306.04 L537.66,308.43 L534.89,308.28 L533.36,306.41 L536.18,305.29 Z M536.88,295.11 L536.74,295.93 L536.55,295.71 L536.88,295.11 Z M536.23,293.02 L536.78,292.34 L536.78,294.44 L536.23,294.44 L536.23,293.02 Z M536.69,291.97 L536.60,292.34 L536.51,292.04 L536.69,291.97 Z M542.37,288.82 L543.48,287.93 L542.88,291.37 L542.28,290.69 L542.37,288.82 Z M533.69,289.20 L533.64,290.25 L533.18,289.42 L533.46,288.15 L533.69,289.20 Z M533.83,287.10 L534.10,287.10 L534.01,287.55 L533.83,287.10 Z" /></g></svg>