<svg xmlns="http://www.w3.org/2000/svg" viewBox="0 0 1000 1000" width="1000" height="1000"><g fill="#cccccc" stroke="#222" stroke-width="2"><path d="M413.52,669.25 L411.38,667.72 L408.09,675.15 L408.78,681.55 L406.70,682.92 L405.95,687.79 L403.06,690.01 L399.07,686.51 L393.64,686.42 L389.25,679.93 L390.98,676.60 L389.02,672.76 L388.79,669.77 L386.36,667.80 L385.55,664.56 L381.04,661.74 L379.19,655.76 L371.10,653.62 L370.18,646.70 L374.57,637.91 L372.32,623.98 L368.56,621.85 L367.69,619.54 L368.73,630.39 L368.27,634.32 L361.22,634.40 L360.07,637.48 L357.18,638.08 L354.11,642.60 L354.34,644.74 L351.86,647.39 L349.32,646.79 L347.93,648.50 L341.92,643.71 L335.45,645.51 L333.54,649.35 L332.10,655.84 L332.79,657.04 L331.69,659.69 L332.50,660.97 L329.50,660.46 L329.61,658.83 L328.46,658.49 L327.76,656.18 L325.86,655.76 L318.57,655.84 L317.59,657.12 L315.40,656.53 L312.33,657.81 L307.65,656.53 L304.94,654.48 L304.47,652.77 L301.06,650.89 L300.95,649.61 L294.65,645.85 L293.96,643.80 L290.49,643.12 L289.97,641.07 L285.00,638.67 L281.76,634.92 L282.51,633.12 L281.99,631.24 L283.61,630.05 L285.06,626.12 L282.23,625.69 L282.80,622.62 L277.37,612.11 L274.37,612.88 L271.19,609.12 L270.55,605.70 L263.33,600.32 L260.90,587.51 L261.83,582.81 L259.57,572.22 L260.61,564.96 L263.50,563.25 L265.70,559.92 L265.70,553.00 L267.78,547.28 L266.74,545.57 L266.85,542.41 L268.07,538.39 L267.78,535.83 L269.13,534.80 L267.26,533.70 L267.43,529.68 L266.22,526.78 L263.33,524.73 L263.04,521.65 L261.71,521.91 L260.73,516.70 L258.30,515.59 L258.24,512.77 L256.10,513.62 L256.16,511.23 L254.83,511.49 L255.24,508.84 L250.85,509.10 L248.42,507.22 L247.49,508.50 L246.86,506.11 L245.59,508.33 L243.97,508.84 L241.14,504.23 L239.52,504.48 L239.17,502.61 L233.39,501.67 L233.86,499.96 L227.50,493.29 L225.00,487.95 L216.52,495.69 L220.16,497.91 L220.68,499.79 L223.80,502.86 L226.23,503.12 L227.73,506.88 L230.97,510.12 L230.62,515.33 L232.06,520.03 L235.24,524.04 L235.36,528.66 L236.98,533.70 L235.65,542.32 L231.54,546.94 L230.39,556.67 L228.02,559.49 L225.01,569.23 L220.68,568.55 L219.41,565.73 L215.71,562.82 L211.67,561.88 L207.27,562.99 L203.58,560.94 L201.84,556.84 L201.67,552.15 L197.33,551.89 L193.81,543.78 L190.98,541.38 L190.40,538.48 L191.44,532.93 L189.65,528.49 L190.75,524.98 L189.94,522.25 L192.65,517.64 L191.15,510.81 L189.47,510.81 L184.85,506.79 L182.89,507.47 L180.69,503.63 L177.40,501.92 L176.82,499.70 L173.18,497.05 L168.21,489.45 L158.96,490.31 L156.94,494.83 L156.71,498.51 L153.70,504.23 L147.00,505.00 L144.00,501.92 L142.49,502.26 L131.11,489.19 L128.16,478.60 L128.05,473.65 L123.94,465.36 L121.40,462.29 L119.32,461.78 L117.12,458.19 L117.47,453.66 L113.89,449.56 L112.27,444.52 L108.05,438.37 L107.53,432.31 L105.34,431.28 L103.83,426.33 L97.30,419.49 L97.88,413.17 L95.28,410.10 L94.76,406.94 L93.26,403.69 L88.17,398.82 L85.69,399.59 L83.66,396.86 L80.02,395.15 L78.98,385.50 L77.37,382.34 L75.23,379.95 L70.89,380.46 L64.54,368.84 L62.17,369.95 L58.41,362.95 L57.72,360.30 L60.32,357.31 L59.39,355.52 L59.80,352.02 L62.51,355.18 L63.73,354.66 L62.34,349.62 L63.03,348.26 L62.98,345.69 L62.17,346.12 L62.80,341.94 L59.62,335.87 L59.97,330.92 L61.13,328.18 L60.90,325.71 L59.51,324.00 L60.38,323.14 L60.38,320.75 L61.71,321.52 L61.94,320.33 L58.64,317.51 L55.93,311.53 L48.30,309.22 L48.07,307.17 L46.74,307.51 L42.29,304.69 L40.15,293.42 L34.43,294.10 L34.08,288.55 L35.41,286.67 L34.20,283.77 L35.06,280.86 L33.04,280.35 L33.85,278.81 L31.94,277.19 L32.46,275.65 L29.52,270.10 L29.86,267.37 L28.88,266.17 L30.62,264.63 L31.89,261.05 L29.81,261.73 L28.19,260.28 L26.69,256.60 L24.72,256.26 L23.74,253.87 L24.08,252.42 L22.93,251.82 L21.54,247.81 L19.87,248.23 L20.96,245.24 L19.64,244.73 L20.91,243.88 L19.35,243.28 L20.50,241.14 L19.23,239.09 L20.04,238.41 L19.46,236.62 L21.43,235.85 L29.46,233.88 L42.64,225.85 L38.59,228.25 L38.65,223.29 L35.30,219.79 L35.12,217.31 L33.22,214.15 L34.08,208.43 L37.43,208.60 L39.17,205.53 L43.33,207.06 L48.36,205.35 L56.74,191.77 L57.95,185.37 L59.34,182.72 L66.85,171.10 L70.84,169.65 L73.78,170.08 L75.63,168.37 L74.25,163.59 L68.81,162.56 L68.87,163.59 L66.85,162.47 L65.11,160.08 L62.75,150.35 L58.64,145.22 L54.83,129.93 L55.75,127.45 L60.84,122.76 L69.10,127.71 L72.11,126.43 L73.84,122.67 L76.21,120.88 L78.58,121.22 L82.05,115.58 L85.69,112.76 L85.98,106.87 L88.92,100.97 L88.17,98.07 L90.19,92.26 L97.42,86.45 L96.84,82.44 L94.53,77.83 L95.45,73.56 L95.05,68.94 L101.69,56.47 L105.86,53.65 L109.55,54.76 L111.35,52.63 L111.00,48.79 L111.98,46.99 L114.41,47.67 L120.19,45.45 L124.98,48.44 L127.53,47.50 L132.50,56.30 L142.32,64.25 L146.54,72.62 L151.05,74.41 L150.01,79.36 L152.55,85.77 L153.24,87.56 L156.25,88.42 L159.08,94.23 L160.12,94.57 L160.00,100.80 L162.66,105.42 L161.79,106.95 L162.26,111.05 L164.05,109.26 L171.10,108.32 L172.43,106.61 L173.35,95.34 L180.63,85.60 L184.33,86.11 L185.31,88.50 L187.39,88.93 L189.30,93.71 L192.13,95.34 L191.94,95.58 L196.35,103.11 L201.90,108.06 L205.54,113.70 L209.64,116.01 L212.53,122.59 L220.91,116.18 L227.85,114.56 L229.98,112.76 L230.45,110.63 L231.54,110.46 L237.61,116.44 L239.46,115.92 L239.87,117.63 L242.24,118.74 L243.16,120.79 L244.14,127.97 L243.33,128.74 L244.20,130.27 L246.97,130.87 L248.77,132.75 L252.06,132.66 L253.45,133.95 L253.68,137.87 L258.76,143.00 L262.00,141.55 L267.72,141.97 L269.63,145.99 L269.16,149.83 L275.23,159.23 L281.07,159.49 L287.14,161.45 L288.35,162.99 L285.06,168.97 L288.87,177.17 L291.70,177.17 L296.21,180.07 L301.18,178.53 L305.46,181.01 L307.71,177.08 L310.37,176.57 L315.16,180.93 L319.90,183.32 L319.90,187.59 L321.35,189.98 L324.47,191.00 L327.94,190.24 L329.90,192.97 L332.33,192.63 L331.40,195.70 L332.15,199.12 L334.87,200.06 L335.33,203.05 L337.47,202.19 L339.20,203.48 L341.00,210.05 L339.61,213.38 L337.70,214.58 L336.89,220.30 L343.60,226.45 L342.84,231.32 L340.88,233.37 L340.82,234.91 L346.14,241.83 L346.54,240.89 L348.28,242.77 L349.49,242.17 L351.40,245.93 L351.69,247.46 L347.24,253.87 L353.13,259.42 L353.77,261.73 L358.04,263.86 L357.70,266.34 L359.37,269.08 L359.31,275.82 L366.08,278.56 L367.06,282.40 L366.48,285.39 L367.35,293.33 L371.22,298.71 L370.58,301.62 L371.16,299.06 L375.03,297.35 L382.55,300.34 L386.59,297.69 L391.21,303.84 L402.19,301.45 L404.39,302.82 L404.50,306.40 L407.63,309.56 L406.07,314.77 L406.70,316.57 L409.71,319.04 L409.94,318.02 L415.60,319.81 L420.28,326.48 L424.10,328.18 L424.79,329.55 L429.35,334.25 L432.65,331.17 L440.39,331.94 L440.51,330.92 L442.70,330.66 L444.55,325.96 L449.00,329.98 L452.06,330.32 L457.79,326.90 L458.13,318.28 L456.51,315.12 L457.44,312.64 L456.86,311.36 L456.23,308.79 L452.76,304.18 L455.01,297.95 L453.45,295.90 L453.28,292.65 L455.59,290.00 L456.80,283.60 L457.96,282.31 L457.55,280.26 L459.35,278.39 L459.52,276.51 L460.56,275.48 L462.24,276.93 L463.10,275.57 L466.11,276.16 L465.93,273.77 L468.71,271.81 L478.36,272.75 L477.72,271.30 L480.09,270.36 L483.39,262.58 L486.56,261.90 L489.24,258.85 L488.41,259.08 L491.59,250.97 L497.02,247.12 L502.28,251.48 L504.31,246.18 L509.04,243.88 L513.49,238.07 L517.02,235.34 L517.19,233.11 L514.07,230.04 L508.93,218.59 L505.00,213.55 L502.86,204.93 L503.67,201.17 L505.45,201.03 L505.40,197.92 L506.79,195.87 L506.27,193.99 L507.60,192.63 L507.71,187.76 L508.87,183.66 L513.26,176.91 L513.09,173.41 L515.86,174.60 L518.12,172.81 L517.25,165.29 L518.75,162.30 L523.43,157.52 L531.52,161.02 L542.68,159.66 L544.53,155.73 L545.68,149.41 L547.73,151.39 L547.24,150.00 L551.23,144.62 L555.85,140.78 L557.18,137.45 L562.84,140.10 L565.39,136.76 L567.47,137.19 L573.42,131.38 L572.73,130.79 L575.50,127.20 L574.11,123.95 L574.98,122.93 L574.23,119.77 L574.52,113.36 L578.79,106.01 L577.99,107.12 L577.06,102.77 L578.62,96.62 L576.71,92.35 L577.18,84.57 L576.48,82.61 L579.66,78.17 L580.18,75.86 L581.86,74.58 L585.44,69.88 L585.04,68.69 L586.77,65.87 L586.19,64.33 L587.40,62.79 L587.87,63.73 L589.14,62.96 L590.58,60.32 L590.06,56.73 L591.68,54.68 L591.10,53.31 L593.24,49.90 L593.13,48.36 L595.38,45.54 L596.36,45.80 L596.07,41.70 L597.23,37.60 L595.84,31.79 L596.88,25.30 L596.13,22.39 L600.75,19.23 L604.74,23.76 L607.98,23.33 L615.49,26.75 L618.67,26.15 L626.53,29.99 L626.99,31.62 L629.19,32.56 L631.03,36.48 L634.50,38.88 L634.16,41.44 L635.66,41.95 L637.16,44.77 L648.95,48.19 L652.36,55.62 L651.55,58.69 L655.19,62.28 L660.74,63.56 L663.74,68.94 L665.77,68.77 L665.88,73.73 L667.09,74.75 L666.29,79.19 L658.72,85.86 L660.56,93.37 L657.85,101.91 L660.85,105.33 L661.89,110.37 L661.14,111.91 L665.82,120.36 L666.57,119.42 L669.41,121.82 L676.69,131.21 L677.67,132.92 L676.11,135.65 L676.51,138.64 L675.24,138.73 L674.84,140.69 L675.94,145.73 L674.90,147.19 L675.36,149.92 L680.10,153.68 L680.39,159.49 L687.20,165.55 L687.38,172.13 L689.23,174.35 L691.77,175.12 L693.68,183.15 L701.02,186.90 L703.79,190.49 L704.89,190.24 L705.52,191.35 L703.62,195.40 L708.01,199.72 L711.13,201.51 L712.63,200.74 L718.06,204.16 L719.62,213.21 L728.18,209.54 L736.96,214.07 L738.69,217.48 L742.22,217.91 L742.51,219.19 L738.81,226.71 L743.84,238.41 L747.25,242.68 L746.73,246.27 L749.33,258.48 L752.10,259.08 L755.68,263.01 L750.14,275.40 L749.79,277.53 L751.29,279.24 L744.88,293.08 L741.87,294.27 L738.64,298.12 L737.25,302.39 L732.34,310.08 L733.32,313.24 L733.15,316.65 L734.65,316.65 L740.20,321.69 L740.08,325.19 L741.93,330.15 L745.17,330.58 L747.42,337.41 L751.58,339.63 L751.52,346.04 L757.94,347.06 L760.36,349.71 L760.42,361.58 L766.49,367.05 L770.54,379.18 L767.59,369.18 L773.48,373.80 L782.73,369.01 L784.87,366.71 L793.13,367.90 L799.55,366.37 L802.09,367.56 L814.05,363.29 L816.54,365.94 L820.29,362.95 L822.72,363.29 L824.86,358.93 L827.11,358.42 L829.54,360.04 L831.79,357.65 L833.99,357.40 L838.78,359.53 L843.00,363.63 L845.26,368.33 L853.81,378.84 L853.98,382.94 L855.60,388.06 L854.16,393.53 L854.62,408.56 L862.01,413.94 L862.94,415.74 L860.80,419.75 L863.34,423.85 L858.49,425.82 L856.06,428.80 L858.32,433.42 L856.93,438.20 L851.44,446.06 L857.45,448.02 L859.53,451.18 L859.34,453.42 L859.36,453.41 L861.21,453.23 L861.84,454.52 L866.29,453.49 L874.67,462.80 L877.96,468.18 L879.99,468.35 L884.03,473.05 L890.16,483.64 L890.68,490.13 L898.59,505.17 L899.52,510.46 L898.19,515.08 L898.36,519.26 L900.21,521.82 L903.68,524.39 L906.92,536.52 L913.27,538.74 L916.05,542.07 L915.70,550.52 L912.81,553.26 L911.60,556.16 L913.45,559.83 L915.41,561.54 L924.66,563.34 L929.80,571.37 L929.86,574.78 L931.13,577.35 L932.05,578.63 L936.10,579.22 L940.32,588.96 L944.54,591.44 L946.96,590.93 L949.62,592.46 L952.97,591.52 L953.67,592.81 L953.44,601.35 L954.42,604.34 L952.57,607.58 L957.25,621.68 L957.08,628.00 L953.96,637.22 L953.26,643.63 L951.53,644.48 L955.40,642.60 L956.67,643.88 L956.90,648.16 L959.04,649.95 L959.45,653.37 L961.93,656.87 L963.55,667.80 L964.76,670.45 L964.01,684.03 L962.33,689.84 L969.44,701.29 L967.13,708.72 L963.14,712.30 L965.57,715.21 L970.83,722.21 L973.60,728.28 L974.18,732.38 L978.46,736.14 L980.77,740.41 L976.15,746.39 L972.79,746.81 L968.06,756.81 L967.25,760.54 L968.06,761.93 L966.67,767.31 L956.50,782.52 L952.28,780.89 L951.41,777.82 L948.41,777.73 L946.44,772.44 L944.82,770.64 L942.98,770.13 L940.26,772.86 L937.20,777.90 L934.89,779.61 L929.51,780.12 L927.36,778.40 L927.89,779.53 L924.83,786.19 L923.56,792.25 L925.35,797.12 L924.08,804.72 L924.95,808.23 L925.47,827.36 L933.09,837.61 L943.32,851.70 L943.21,855.55 L941.76,855.63 L941.82,858.11 L946.39,860.76 L952.22,866.65 L954.07,873.14 L957.48,874.51 L957.65,878.61 L960.89,881.34 L960.60,883.14 L962.28,885.44 L961.64,893.13 L960.89,893.99 L964.01,893.90 L966.84,904.06 L970.31,907.91 L968.58,920.81 L965.92,919.53 L963.72,922.51 L961.41,919.78 L961.35,923.88 L962.68,928.84 L962.33,933.53 L959.39,930.97 L956.27,931.31 L953.78,935.41 L949.62,931.23 L940.66,938.74 L942.17,944.21 L941.82,947.80 L940.95,951.56 L938.58,954.46 L944.25,961.98 L944.42,967.96 L941.99,971.20 L934.71,972.91 L932.69,970.26 L925.75,967.19 L921.48,960.95 L920.84,978.72 L919.11,980.51 L916.10,980.77 L913.73,978.04 L911.13,978.12 L909.29,974.62 L904.72,977.52 L902.24,967.44 L898.13,967.36 L895.70,962.92 L896.40,961.04 L895.42,958.90 L895.88,954.12 L894.26,951.81 L893.80,944.30 L892.82,943.36 L893.57,938.06 L895.18,936.10 L893.05,931.06 L891.20,936.44 L888.89,938.49 L882.01,934.05 L878.14,936.86 L877.68,934.47 L876.17,934.39 L874.55,926.70 L871.38,923.80 L871.26,921.66 L869.06,919.18 L868.20,914.74 L864.15,914.74 L863.81,908.68 L861.32,904.06 L861.78,901.33 L858.43,900.73 L856.64,902.10 L852.19,899.62 L850.63,900.22 L849.71,902.27 L847.51,900.48 L846.99,893.13 L849.99,882.03 L849.76,879.64 L850.80,876.24 L850.75,876.30 L847.51,874.08 L841.73,876.22 L840.17,874.43 L834.62,875.02 L832.43,878.10 L830.06,877.67 L829.02,874.00 L827.17,874.51 L825.09,872.20 L822.43,864.35 L814.51,862.13 L812.78,856.66 L814.22,853.07 L813.99,850.68 L819.60,846.41 L820.93,837.10 L823.35,831.63 L825.20,830.44 L828.38,822.66 L829.36,815.74 L825.49,814.80 L824.63,812.58 L825.09,809.94 L819.02,811.05 L818.67,803.36 L819.71,801.82 L818.96,798.83 L819.77,796.70 L817.92,794.30 L818.33,792.17 L815.15,787.56 L810.76,785.76 L809.48,782.09 L806.42,779.95 L810.24,770.47 L809.54,762.87 L808.10,760.82 L800.24,757.83 L798.74,756.12 L796.19,754.33 L795.73,749.97 L793.36,744.51 L792.67,741.00 L793.94,735.37 L791.74,727.85 L788.39,724.77 L788.51,711.28 L788.16,718.28 L784.06,717.00 L777.99,720.93 L765.97,710.85 L762.68,701.97 L756.67,701.63 L749.10,698.04 L747.42,695.99 L741.06,695.56 L736.15,691.38 L731.64,691.89 L726.91,686.00 L720.95,688.64 L716.97,691.46 L714.94,691.03 L710.20,700.43 L706.62,703.42 L708.53,707.52 L708.59,710.42 L707.03,714.18 L708.30,719.82 L706.33,722.13 L705.18,726.74 L701.19,728.87 L698.65,738.01 L693.16,732.46 L686.11,730.16 L682.12,723.75 L680.67,716.15 L677.73,713.07 L673.16,704.70 L673.22,701.29 L674.78,697.53 L681.48,690.44 L682.52,687.53 L678.07,679.08 L675.76,670.19 L673.57,666.18 L668.31,662.42 L663.86,665.58 L662.70,665.07 L660.62,656.78 L654.84,649.95 L653.28,639.53 L651.38,634.57 L646.52,613.90 L645.94,604.93 L645.08,600.83 L639.41,593.40 L637.04,588.28 L636.70,586.06 L638.26,580.33 L637.16,578.54 L616.88,581.87 L603.87,580.76 L600.29,586.74 L596.54,589.56 L594.69,597.59 L588.96,604.34 L588.73,607.41 L590.12,612.20 L589.25,614.76 L581.11,615.87 L577.29,619.88 L576.02,623.90 L575.73,636.28 L571.11,643.71 L569.78,648.41 L570.65,654.05 L578.10,664.64 L580.18,669.68 L580.12,674.46 L577.93,677.97 L575.50,679.25 L571.80,678.91 L563.42,673.61 L552.39,670.28 L543.72,660.46 L541.75,657.81 L533.55,652.17 L527.13,654.22 L522.62,652.77 L513.44,647.05 L509.85,642.60 L508.18,644.40 L507.83,648.58 L503.21,646.87 L498.64,648.07 L497.72,654.39 L495.06,654.39 L488.59,649.10 L485.81,643.46 L481.65,630.73 L476.91,627.23 L470.85,625.26 L469.17,637.82 L466.97,641.07 L466.51,647.13 L463.39,652.17 L466.80,656.18 L466.45,662.93 L460.50,662.16 L456.05,663.10 L452.76,661.99 L448.66,658.41 L445.77,659.77 L443.97,666.69 L438.25,670.62 L433.86,671.39 L427.27,667.89 L424.27,664.30 L418.14,667.80 L415.25,667.29 L413.52,669.25 Z M615.32,108.75 L612.14,114.56 L615.78,108.41 L615.78,106.36 L615.32,108.75 Z M606.61,117.03 L607.57,117.03 L606.76,116.44 L606.61,117.03 Z M610.46,173.60 L614.51,176.31 L622.14,179.22 L610.46,173.60 Z M614.91,199.55 L615.95,190.66 L615.48,190.16 L614.91,199.55 Z M627.57,231.06 L630.92,233.29 L622.65,225.81 L627.57,231.06 Z M645.19,233.63 L650.80,234.31 L642.53,232.43 L645.19,233.63 Z M641.03,241.74 L642.71,253.96 L640.92,238.58 L641.03,241.74 Z M654.21,307.09 L658.54,309.82 L652.82,305.04 L650.45,302.39 L654.21,307.09 Z M661.60,315.03 L670.62,329.55 L658.54,309.82 L661.60,315.03 Z M625.95,368.67 L626.50,369.30 L621.79,359.02 L625.95,368.67 Z M659.64,414.11 L659.99,414.45 L659.47,411.81 L659.64,414.11 Z M594.63,468.95 L598.90,467.07 L607.23,463.23 L594.63,468.95 Z M616.78,338.29 L616.13,342.88 L616.99,339.72 L616.78,338.29 Z M490.84,258.40 L490.28,258.56 L491.50,259.77 L490.84,258.40 Z M549.38,312.47 L544.41,308.71 L546.84,311.02 L549.38,312.47 Z M507.60,430.43 L509.44,432.59 L508.52,428.04 L508.87,431.28 L507.60,430.43 Z M509.80,434.36 L509.61,433.43 L506.04,438.63 L509.80,434.36 Z M505.81,505.68 L508.29,492.36 L504.25,510.46 L505.81,505.68 Z M514.24,519.77 L514.80,519.64 L513.32,516.96 L513.88,520.09 L516.38,522.34 L514.24,519.77 Z M257.95,382.85 L258.07,383.59 L258.36,375.08 L257.95,382.85 Z M258.33,385.27 L258.42,385.84 L261.77,385.58 L258.33,385.27 Z M326.14,434.44 L332.62,433.33 L330.02,433.16 L326.14,434.44 Z M354.00,408.39 L366.88,401.81 L359.49,405.32 L354.00,408.39 Z M372.95,400.62 L374.51,404.46 L372.55,396.98 L372.95,400.62 Z M404.27,451.61 L398.89,464.90 L399.65,463.74 L404.27,451.61 Z M397.11,469.29 L395.89,467.84 L398.49,471.09 L397.11,469.29 Z M398.67,473.56 L410.64,487.55 L410.34,486.21 L398.67,473.56 Z M411.01,489.26 L410.69,493.98 L411.09,489.62 L411.01,489.26 Z M475.93,473.14 L473.33,472.03 L476.80,473.56 L473.68,468.69 L475.93,473.14 Z M466.53,460.11 L465.41,453.83 L466.28,459.56 L466.53,460.11 Z M470.58,371.31 L471.25,371.49 L472.27,370.62 L470.58,371.31 Z M372.20,594.51 L378.10,599.64 L371.43,593.18 L372.20,594.51 Z M472.87,622.02 L472.00,617.75 L472.70,623.56 L472.87,622.02 Z M510.60,611.68 L513.03,616.81 L510.58,611.16 L510.60,611.68 Z M489.45,614.67 L487.60,615.95 L489.90,615.07 L489.45,614.67 Z M356.60,460.41 L355.79,462.80 L355.96,463.92 L356.60,460.41 Z M250.50,464.59 L251.13,462.77 L246.40,468.78 L250.50,464.59 Z M267.72,432.99 L268.64,428.63 L266.16,436.42 L267.72,432.99 Z M268.07,409.50 L267.71,408.43 L268.02,409.87 L268.07,409.50 Z M260.27,390.88 L258.59,389.51 L263.96,397.20 L260.27,390.88 Z M306.55,408.82 L306.09,406.87 L306.09,414.80 L306.55,408.82 Z M183.22,341.33 L183.64,340.74 L183.02,339.74 L183.22,341.33 Z M226.40,317.25 L226.63,316.32 L220.16,320.41 L226.40,317.25 Z M227.73,311.95 L227.10,303.84 L227.28,313.73 L227.73,311.95 Z M233.11,273.26 L231.83,274.71 L231.54,276.16 L233.11,273.26 Z M326.55,354.07 L325.16,351.33 L326.23,354.72 L326.55,354.07 Z M329.25,339.09 L329.09,339.03 L329.01,339.19 L329.25,339.09 Z M330.79,339.69 L332.15,340.83 L336.37,340.57 L333.48,340.74 L330.79,339.69 Z M344.00,338.52 L342.61,338.35 L339.55,339.54 L344.00,338.52 Z M359.12,336.54 L357.12,337.75 L353.82,341.68 L359.12,336.54 Z M366.14,334.92 L364.46,327.84 L365.96,335.87 L366.14,334.92 Z M302.10,403.09 L305.87,405.92 L305.87,405.92 L302.10,403.09 Z M133.30,209.97 L134.69,210.18 L134.81,209.63 L133.30,209.97 Z M172.72,165.98 L168.32,168.20 L170.17,167.43 L172.72,165.98 Z M580.01,307.26 L587.30,293.90 L587.30,293.85 L580.01,307.26 Z M587.85,295.97 L587.98,297.01 L591.62,300.51 L587.85,295.97 Z M551.63,435.98 L552.65,435.55 L551.78,435.27 L551.63,435.98 Z M567.52,449.11 L567.52,449.11 L562.04,433.50 L567.52,449.11 Z M573.54,445.89 L576.60,438.63 L572.55,447.04 L573.54,445.89 Z M517.08,518.49 L516.15,519.30 L521.47,517.98 L517.08,518.49 Z M603.30,504.39 L602.37,500.73 L603.07,504.48 L603.30,504.39 Z M606.99,507.95 L606.71,506.42 L606.65,506.79 L606.99,507.95 Z M630.23,555.82 L617.45,555.91 L624.74,556.50 L630.23,555.82 Z M536.64,564.00 L539.32,563.93 L537.30,563.51 L536.64,564.00 Z M606.59,557.78 L604.57,560.77 L604.36,562.55 L606.59,557.78 Z M611.85,554.03 L613.00,551.55 L611.47,554.30 L611.85,554.03 Z M543.04,391.93 L543.04,391.93 L543.66,398.14 L543.04,391.93 Z M548.34,401.13 L548.80,401.28 L543.66,398.14 L548.34,401.13 Z M551.17,401.22 L550.31,401.76 L551.46,402.12 L551.17,401.22 Z M554.23,399.25 L551.79,402.23 L552.10,402.33 L554.23,399.25 Z M558.51,390.20 L557.64,389.00 L560.30,397.63 L558.51,390.20 Z M580.89,173.78 L581.04,173.64 L580.80,173.47 L580.89,173.78 Z M585.32,169.74 L582.43,171.61 L582.68,172.15 L585.32,169.74 Z M595.90,161.45 L597.86,161.19 L598.29,161.69 L598.69,160.44 L595.90,161.45 Z M569.37,255.84 L571.34,257.54 L569.36,255.27 L569.37,255.84 Z M570.25,237.65 L570.25,237.65 L574.40,232.43 L570.25,237.65 Z M602.95,238.58 L601.91,241.49 L600.70,249.00 L602.95,238.58 Z M607.17,235.42 L607.54,234.38 L602.95,238.58 L607.17,235.42 Z M601.39,254.13 L601.39,251.22 L600.70,249.00 L601.39,254.13 Z M562.67,202.88 L560.74,205.44 L561.57,204.59 L562.67,202.88 Z M558.59,208.29 L558.16,208.86 L558.24,210.13 L558.59,208.29 Z M558.40,213.03 L558.45,213.90 L558.82,214.65 L558.40,213.03 Z M580.26,175.28 L579.66,176.48 L579.43,184.00 L580.26,175.28 Z M601.47,85.65 L601.47,85.65 L603.59,86.45 L601.47,85.65 Z M610.29,88.49 L610.00,87.65 L610.03,87.65 L606.76,84.92 L610.29,88.49 Z M612.37,94.57 L611.57,92.24 L612.43,95.85 L612.37,94.57 Z M585.84,134.29 L586.19,132.75 L585.18,134.32 L585.84,134.29 Z M770.59,404.72 L771.86,393.70 L770.41,405.12 L770.59,404.72 Z M767.71,411.16 L768.87,408.57 L768.11,409.76 L767.71,411.16 Z M746.13,428.39 L751.52,429.57 L746.13,428.39 L746.13,428.39 Z M757.19,445.89 L755.68,446.14 L753.95,447.68 L757.19,445.89 Z M770.65,485.69 L767.53,479.54 L758.36,463.29 L758.36,463.29 L770.65,485.69 Z M716.62,492.95 L715.64,490.39 L713.50,487.66 L716.62,492.95 Z M734.04,524.15 L734.13,518.92 L733.84,523.45 L734.04,524.15 Z M740.37,536.69 L735.03,527.58 L735.69,529.85 L740.37,536.69 Z M746.67,566.92 L748.63,562.74 L745.34,568.29 L746.67,566.92 Z M752.51,573.16 L753.14,571.11 L750.48,577.69 L752.51,573.16 Z M774.29,592.72 L769.03,587.85 L764.18,585.37 L763.50,585.67 L766.26,586.74 L774.29,592.72 Z M774.41,599.62 L771.01,594.25 L772.85,598.19 L774.41,599.62 Z M774.70,617.49 L775.67,608.21 L775.04,610.23 L774.70,617.49 Z M784.40,626.89 L782.50,622.36 L785.09,630.16 L784.40,626.89 Z M786.99,662.69 L786.77,638.16 L786.54,659.43 L786.99,662.69 Z M667.27,376.85 L664.73,376.58 L664.80,376.68 L667.09,377.30 L667.27,376.85 Z M665.58,377.71 L669.18,382.51 L668.25,380.12 L665.58,377.71 Z M680.91,387.38 L684.37,395.92 L683.51,393.78 L680.91,387.38 Z M687.90,383.45 L690.48,377.34 L690.48,377.34 L687.90,383.45 Z M724.13,416.33 L733.38,408.13 L734.88,406.51 L724.13,416.33 Z M707.95,487.57 L707.49,483.90 L707.69,488.04 L707.95,487.57 Z M693.91,575.38 L694.76,576.70 L693.79,572.48 L693.91,575.38 Z M707.55,648.07 L713.79,651.74 L709.40,648.75 L707.55,648.07 Z M723.03,668.74 L723.60,672.20 L723.73,671.82 L723.03,668.74 Z M665.42,530.11 L670.72,536.30 L668.13,532.50 L665.42,530.11 Z M676.09,544.18 L676.92,545.98 L676.80,545.23 L676.09,544.18 Z M681.06,556.43 L686.22,562.31 L681.20,556.50 L681.06,556.43 Z M681.48,453.97 L684.84,456.82 L691.89,460.07 L687.73,457.68 L681.48,453.97 Z M723.38,444.01 L719.42,449.02 L721.36,447.34 L723.38,444.01 Z M725.75,426.24 L725.91,432.13 L726.21,431.71 L725.75,426.24 Z M669.23,455.03 L679.80,452.97 L679.23,452.64 L669.23,455.03 Z M654.17,370.16 L654.27,371.06 L657.73,378.41 L654.17,370.16 Z M670.74,363.12 L672.41,364.57 L670.12,361.31 L670.74,363.12 Z M690.04,376.97 L689.92,376.87 L687.26,374.99 L690.04,376.97 Z M688.22,344.97 L687.26,345.35 L683.74,349.97 L688.22,344.97 Z M696.57,355.69 L690.90,346.04 L689.86,344.33 L696.57,355.69 Z M667.41,376.49 L667.79,375.50 L667.09,372.94 L667.41,376.49 Z M683.24,292.63 L679.27,294.06 L680.39,294.44 L683.24,292.63 Z M677.38,343.82 L680.96,346.62 L680.33,345.27 L677.38,343.82 Z M681.11,346.95 L681.89,352.95 L681.72,348.26 L681.11,346.95 Z M898.65,668.21 L899.92,674.63 L899.06,668.57 L898.65,668.21 Z M880.77,748.17 L880.80,747.41 L880.12,746.49 L880.77,748.17 Z M879.81,756.81 L880.56,753.65 L880.61,752.51 L879.81,756.81 Z M877.04,757.75 L876.33,759.01 L879.81,756.81 L877.04,757.75 Z M926.80,777.96 L925.23,776.71 L924.55,777.29 L926.80,777.96 Z M890.39,850.00 L883.40,847.43 L884.73,848.71 L890.39,850.00 Z M906.57,860.08 L904.55,857.17 L909.00,865.46 L906.57,860.08 Z M908.59,846.58 L907.30,855.18 L907.67,854.18 L908.59,846.58 Z M913.50,886.13 L914.54,883.15 L914.54,883.15 L913.50,886.13 Z M924.08,893.99 L925.77,894.46 L916.16,886.73 L919.69,890.06 L924.08,893.99 Z M933.83,905.08 L934.02,905.60 L943.26,908.08 L933.83,905.08 Z M957.53,892.69 L958.36,892.34 L958.00,891.76 L957.53,892.69 Z M839.08,841.09 L840.63,834.45 L839.19,839.40 L839.08,841.09 Z M844.56,822.66 L847.11,817.54 L847.49,814.93 L844.56,822.66 Z M848.76,811.57 L850.11,809.42 L851.15,805.24 L848.76,811.57 Z M908.48,728.28 L905.93,739.12 L907.44,735.20 L908.48,728.28 Z M921.94,722.98 L918.36,729.13 L923.27,721.96 L921.94,722.98 Z M941.88,743.05 L931.30,742.37 L934.31,743.14 L941.88,743.05 Z M914.54,725.20 L917.80,716.59 L917.61,716.75 L914.54,725.20 Z M798.85,527.89 L796.14,528.49 L793.77,529.77 L798.85,527.89 Z M813.65,513.88 L814.13,513.39 L812.20,513.76 L813.65,513.88 Z M830.79,538.25 L830.52,536.26 L829.48,535.23 L830.79,538.25 Z M833.75,531.17 L831.91,533.10 L830.52,536.26 L833.75,531.17 Z M838.62,526.38 L837.80,526.95 L835.89,528.95 L838.62,526.38 Z M846.12,522.76 L843.70,522.85 L840.53,525.05 L846.12,522.76 Z M897.61,608.18 L897.70,608.62 L898.19,607.33 L897.61,608.18 Z M898.65,613.17 L899.23,615.95 L902.18,623.47 L898.65,613.17 Z M827.28,550.44 L830.17,550.35 L832.35,548.91 L827.28,550.44 Z M833.73,548.50 L837.34,551.72 L834.10,548.39 L833.73,548.50 Z M850.69,577.35 L859.42,574.97 L858.89,574.61 L850.69,577.35 Z M797.52,460.92 L801.34,459.90 L796.48,461.01 L794.40,461.26 L797.52,460.92 Z M812.95,493.55 L813.04,493.97 L816.48,489.11 L812.95,493.55 Z M762.80,433.82 L763.60,434.59 L762.85,433.33 L762.80,433.82 Z" /></g></svg>