<svg xmlns="http://www.w3.org/2000/svg" viewBox="0 0 1000 1000" width="1000" height="1000"><g fill="#cccccc" stroke="#222" stroke-width="2"><path d="M235.59,582.59 L227.43,567.67 L233.59,562.39 L227.36,567.52 L144.88,416.51 L141.80,411.08 L100.02,334.97 L93.48,323.67 L133.72,317.34 L106.41,321.56 L87.94,248.91 L83.25,231.28 L56.16,204.15 L32.23,185.31 L19.23,139.35 L24.69,145.23 L47.78,141.01 L59.63,130.46 L72.40,126.09 L106.48,108.15 L120.26,101.07 L117.25,102.57 L128.26,96.39 L144.34,90.07 L162.34,73.49 L172.04,61.58 L172.04,61.58 L181.96,43.19 L196.73,29.78 L208.97,27.52 L212.51,27.67 L213.89,29.93 L219.51,25.11 L232.44,19.23 L234.28,20.59 L236.74,31.89 L243.75,65.35 L247.98,78.31 L245.29,71.68 L248.13,78.76 L255.98,108.30 L273.98,150.50 L284.29,175.52 L299.99,220.13 L287.37,270.17 L288.50,275.40 L288.68,274.69 L326.07,303.02 L343.31,308.90 L355.16,310.71 L355.54,300.31 L351.16,295.64 L352.31,292.02 L349.85,279.06 L351.85,269.86 L353.93,270.77 L355.77,266.55 L358.08,265.64 L357.85,262.63 L359.24,259.92 L360.62,259.63 L360.39,259.46 L364.16,256.75 L370.85,241.38 L366.78,235.65 L367.70,224.80 L361.47,204.15 L361.77,193.15 L386.63,234.45 L407.17,277.55 L416.33,294.13 L431.79,317.04 L432.48,317.94 L460.34,353.06 L476.26,357.73 L494.65,356.97 L531.66,352.15 L550.13,383.95 L549.90,358.03 L549.74,343.11 L549.20,312.36 L543.59,291.42 L530.35,240.93 L510.35,195.71 L520.27,159.54 L519.58,151.56 L516.04,144.32 L515.89,131.66 L514.81,103.33 L522.51,94.59 L515.27,105.14 L522.89,94.13 L525.89,99.56 L530.51,101.07 L530.35,112.52 L533.58,123.82 L546.20,122.77 L549.05,120.81 L553.28,112.07 L557.44,112.07 L562.36,105.44 L574.06,101.82 L586.98,90.97 L588.75,87.50 L598.22,88.11 L601.37,91.57 L611.22,93.53 L614.53,97.00 L613.76,101.07 L616.37,93.83 L622.30,89.16 L624.91,80.42 L624.68,76.35 L622.14,61.73 L614.07,51.18 L612.83,48.47 L612.99,43.65 L615.07,35.66 L619.14,44.55 L623.07,34.90 L625.99,35.36 L625.53,31.29 L628.38,33.10 L628.76,30.08 L632.92,29.48 L635.69,34.15 L644.61,38.37 L663.85,59.92 L668.23,66.25 L669.77,73.79 L670.31,76.35 L674.54,70.02 L678.85,81.02 L682.70,91.42 L691.39,114.03 L720.94,107.85 L732.25,123.98 L743.17,140.55 L753.33,155.93 L780.26,182.15 L813.42,215.16 L814.42,218.47 L809.04,258.86 L795.57,253.59 L808.96,258.86 L804.57,290.96 L793.49,379.28 L792.65,386.36 L767.72,425.40 L761.18,435.34 L767.80,451.92 L769.49,452.07 L775.34,466.99 L782.64,483.87 L785.88,478.90 L788.88,482.82 L790.42,480.56 L796.26,494.57 L797.57,493.37 L804.65,484.78 L812.34,494.42 L810.04,506.48 L815.27,538.73 L816.50,542.05 L825.73,540.39 L827.96,542.50 L830.27,557.57 L829.19,564.81 L830.04,571.59 L826.73,584.70 L832.12,585.30 L831.66,592.24 L834.12,597.96 L834.50,592.99 L839.35,592.39 L840.12,586.21 L842.20,586.06 L845.66,589.52 L845.58,596.15 L848.35,597.51 L850.20,595.40 L849.05,590.88 L850.51,586.66 L853.20,587.71 L853.82,590.28 L858.74,591.18 L859.74,595.70 L862.36,594.35 L863.24,596.38 L862.51,590.13 L867.20,594.19 L870.20,582.59 L878.98,590.88 L880.67,597.36 L885.13,599.77 L884.75,604.14 L882.90,604.74 L882.36,609.42 L884.67,611.83 L886.98,607.31 L888.75,607.91 L890.06,615.75 L888.75,616.50 L889.82,625.69 L888.70,631.08 L889.29,630.97 L890.75,628.71 L893.04,632.71 L895.98,629.76 L897.60,630.97 L901.60,619.66 L906.83,622.23 L906.83,613.94 L907.60,611.53 L909.37,613.33 L909.83,605.50 L912.83,607.91 L912.37,611.22 L916.52,611.53 L916.91,613.18 L917.29,610.47 L919.60,612.13 L922.06,606.85 L923.14,604.14 L926.91,602.48 L931.53,594.35 L931.68,585.75 L933.45,587.26 L936.30,598.11 L940.07,596.15 L943.68,589.97 L948.76,596.00 L952.22,595.40 L957.46,602.48 L960.38,602.03 L960.84,608.81 L962.69,613.64 L965.77,616.35 L968.61,627.80 L965.38,628.86 L964.84,634.59 L967.54,637.00 L965.53,646.34 L964.23,647.55 L965.38,652.97 L967.23,652.82 L968.23,656.29 L965.00,658.10 L961.38,653.27 L960.15,660.21 L957.46,662.32 L960.15,671.96 L958.53,676.78 L961.07,680.85 L961.15,684.62 L960.92,689.14 L962.61,693.51 L963.92,693.06 L965.07,701.35 L968.23,701.05 L969.92,697.28 L970.07,692.46 L971.46,691.86 L973.38,697.13 L970.00,704.97 L971.23,706.02 L974.69,702.71 L977.85,707.83 L975.77,714.91 L975.31,723.35 L977.00,742.04 L980.77,775.65 L980.23,793.89 L976.85,821.92 L970.61,824.78 L960.15,841.66 L946.76,865.48 L940.76,883.71 L934.30,904.81 L929.22,912.65 L924.37,914.76 L918.14,913.10 L912.60,900.29 L912.29,863.21 L909.21,851.31 L907.06,847.69 L902.75,846.33 L896.06,853.12 L891.59,883.11 L887.67,893.81 L875.05,904.51 L866.97,915.81 L862.05,918.37 L856.97,917.02 L854.74,918.68 L853.74,923.65 L857.97,943.39 L843.97,954.55 L840.89,950.33 L835.35,953.34 L833.58,951.38 L833.96,935.71 L826.73,935.25 L824.58,928.17 L817.81,941.58 L812.11,922.44 L812.64,921.04 L808.50,924.86 L803.42,936.16 L800.26,933.75 L799.11,929.23 L796.57,931.03 L795.57,938.42 L792.65,938.12 L788.57,949.87 L787.03,947.46 L786.65,950.78 L783.64,951.83 L778.72,959.52 L778.49,967.51 L775.10,965.40 L773.80,977.60 L768.10,974.59 L764.41,977.91 L760.87,972.03 L757.48,980.02 L755.41,980.77 L753.71,972.18 L749.71,975.04 L749.18,969.62 L749.79,966.00 L754.18,971.58 L758.49,965.25 L752.10,952.44 L754.87,945.95 L750.02,955.75 L743.33,949.87 L742.33,955.00 L736.25,950.02 L733.63,957.86 L731.17,955.60 L732.48,951.08 L727.79,938.87 L728.48,930.88 L723.55,926.51 L724.02,922.29 L725.94,920.18 L733.17,921.54 L733.40,917.32 L740.66,912.54 L739.63,910.54 L741.02,910.84 L742.64,904.21 L744.94,905.71 L748.71,895.47 L753.56,895.62 L754.48,898.33 L752.79,892.30 L744.10,884.31 L744.56,873.16 L742.10,871.96 L739.71,867.89 L738.63,869.24 L735.40,861.26 L732.09,861.41 L730.60,853.99 L730.56,854.17 L727.63,852.06 L725.55,849.05 L725.25,839.85 L723.25,838.95 L719.86,837.89 L718.17,833.98 L715.32,834.43 L714.94,832.02 L712.40,845.28 L709.09,843.47 L706.86,855.68 L704.01,857.19 L713.40,795.85 L710.47,809.86 L703.63,858.69 L700.01,853.12 L696.47,851.91 L695.93,847.54 L689.47,840.46 L696.47,822.52 L692.47,830.66 L688.08,824.93 L689.93,819.66 L690.31,812.12 L686.39,805.19 L688.62,794.79 L682.31,786.35 L680.54,788.61 L678.24,788.01 L674.77,781.98 L674.46,778.67 L671.85,778.51 L673.00,761.03 L671.46,758.62 L673.89,752.30 L670.69,756.66 L666.16,752.14 L666.31,749.88 L663.00,746.11 L661.08,739.33 L651.61,717.78 L649.61,715.37 L643.23,723.05 L624.54,690.81 L615.76,692.46 L587.75,697.73 L561.90,702.56 L556.67,700.75 L474.14,708.37 L474.14,708.38 L482.26,707.68 L483.19,787.56 L398.32,772.18 L366.70,768.12 L359.54,766.91 L340.85,764.35 L335.15,763.74 L306.07,689.90 L293.37,656.29 L277.22,613.49 L257.06,591.78 L235.59,582.59 Z M492.65,396.46 L486.27,430.67 L493.27,393.45 L494.65,356.97 L492.65,396.46 Z M914.52,837.59 L918.83,826.29 L909.21,851.31 L914.52,837.59 Z M717.49,779.95 L715.40,785.15 L713.40,795.85 L717.49,779.95 Z M704.09,796.75 L705.63,797.35 L704.40,795.63 L696.47,822.52 L704.09,796.75 Z M557.13,581.53 L556.51,616.50 L556.67,700.75 L557.13,581.53 Z M646.00,83.58 L648.38,81.93 L648.12,80.81 L646.00,83.58 Z M647.69,99.11 L648.47,99.64 L647.30,93.68 L647.69,99.11 Z M639.46,141.61 L640.30,143.72 L639.46,135.58 L639.46,141.61 Z M662.23,256.90 L662.52,259.50 L664.18,250.13 L662.23,256.90 Z M672.93,306.34 L675.09,306.28 L666.62,303.77 L672.93,306.34 Z M656.54,587.11 L666.08,571.44 L691.22,529.99 L676.16,554.71 L656.54,587.11 Z M669.08,578.82 L668.89,580.15 L674.25,591.37 L666.08,571.44 L669.08,578.82 Z M662.01,671.08 L664.77,670.15 L662.15,670.00 L662.01,671.08 Z M676.70,655.23 L673.70,650.26 L672.86,649.75 L676.70,655.23 Z M689.27,688.85 L688.55,687.64 L687.99,687.53 L689.27,688.85 Z M699.47,709.19 L696.16,700.45 L693.49,695.95 L699.47,709.19 Z M698.55,718.38 L699.76,708.85 L699.47,709.19 L698.55,718.38 Z M708.37,681.11 L707.86,681.31 L706.24,684.77 L708.37,681.11 Z M746.56,711.90 L745.89,711.31 L747.50,713.09 L746.94,711.15 L754.41,700.30 L747.94,708.74 L746.56,711.90 Z M751.18,774.29 L753.79,777.91 L745.33,765.85 L751.18,774.29 Z M731.86,849.35 L731.46,850.85 L732.66,849.50 L731.86,849.35 Z M605.37,587.41 L655.11,506.98 L655.11,506.98 L635.46,538.73 L605.37,587.41 Z M410.56,367.37 L413.33,368.73 L402.92,363.37 L402.92,363.37 L410.56,367.37 Z M373.24,425.10 L369.62,416.81 L364.97,409.00 L373.24,425.10 Z M381.47,435.04 L379.01,429.47 L382.24,440.77 L381.47,435.04 Z M543.43,553.65 L504.89,583.04 L472.76,607.74 L472.76,607.74 L543.43,553.65 Z M474.72,670.45 L473.42,663.52 L470.42,616.65 L473.65,667.89 L474.72,670.45 Z M149.42,265.95 L183.73,291.87 L118.25,241.98 L149.42,265.95 Z M200.66,271.67 L205.12,274.99 L205.98,274.34 L200.66,271.67 Z M238.40,358.02 L238.40,358.02 L245.05,324.27 L238.40,358.02 Z M285.91,278.15 L287.91,277.70 L288.31,276.14 L285.91,278.15 Z M366.70,294.88 L367.47,301.97 L367.52,302.09 L366.70,294.88 Z M368.21,303.68 L369.16,305.88 L369.01,303.77 L368.21,303.68 Z M415.71,591.48 L412.02,581.23 L419.25,602.18 L415.71,591.48 Z M194.89,411.68 L166.45,379.23 L166.73,379.58 L194.89,411.68 Z M208.89,496.38 L214.89,477.24 L222.92,444.54 L208.89,496.38 Z M334.23,449.21 L332.23,443.63 L326.15,433.39 L334.23,449.21 Z M346.88,458.62 L346.88,458.62 L340.92,445.59 L346.88,458.62 Z M352.77,417.71 L353.23,407.76 L347.25,456.09 L352.77,417.71 Z M351.54,396.91 L351.77,398.35 L356.39,399.17 L360.68,401.81 L359.47,399.78 L351.54,396.91 Z M317.99,529.99 L291.45,533.16 L310.99,530.90 L317.99,529.99 Z M304.34,586.08 L305.15,580.93 L310.99,530.90 L304.34,586.08 Z M389.47,561.49 L362.08,538.88 L370.93,546.42 L389.47,561.49 Z M327.38,616.20 L322.69,660.06 L323.15,655.84 L327.38,616.20 Z M340.46,669.70 L343.06,672.06 L342.77,670.31 L340.46,669.70 Z M344.38,680.01 L344.08,682.81 L344.92,683.27 L344.38,680.01 Z M343.50,674.69 L343.31,678.14 L344.12,678.44 L343.50,674.69 Z M344.62,474.38 L354.47,477.85 L352.08,476.94 L344.62,474.38 Z M289.68,303.17 L288.77,332.12 L289.60,326.83 L289.68,303.17 Z M288.68,407.76 L291.14,398.87 L286.13,412.69 L288.68,407.76 Z M181.12,165.42 L219.51,99.56 L226.82,87.05 L203.97,126.09 L181.12,165.42 Z M236.82,219.98 L243.05,227.06 L238.67,221.79 L236.82,219.98 Z M233.13,231.88 L230.44,240.63 L236.82,219.98 L233.13,231.88 Z M112.74,237.74 L178.19,196.47 L111.93,237.12 L112.74,237.74 Z M219.05,239.27 L218.36,243.94 L218.59,248.20 L219.05,239.27 Z M431.71,672.26 L428.02,685.98 L421.33,712.20 L431.71,672.26 Z M449.10,653.57 L451.72,670.91 L450.41,661.56 L449.10,653.57 Z M425.79,667.59 L427.40,653.15 L427.40,653.15 L425.79,667.59 Z M614.79,223.02 L612.68,226.46 L603.60,236.86 L613.91,225.10 L614.79,223.02 Z M635.15,156.23 L637.61,200.84 L637.77,201.76 L636.84,177.33 L635.15,156.23 Z M644.92,175.52 L647.23,173.86 L636.84,177.33 L644.92,175.52 Z M541.13,477.54 L521.99,470.02 L521.81,470.46 L541.13,477.54 Z M521.44,471.39 L523.89,478.90 L521.81,470.46 L521.44,471.39 Z M581.98,545.51 L577.90,557.57 L582.97,544.59 L581.98,545.51 Z M591.14,549.89 L596.91,555.46 L584.90,542.80 L584.28,543.38 L591.14,549.89 Z M602.91,551.84 L602.40,552.15 L603.04,552.72 L602.91,551.84 Z M589.96,559.22 L589.29,564.50 L588.52,617.25 L589.96,559.22 Z M581.44,539.58 L583.98,532.70 L581.29,537.98 L581.44,539.58 Z M604.83,254.64 L613.76,311.76 L611.60,297.90 L604.83,254.64 Z M617.14,119.30 L622.45,115.08 L622.82,113.48 L617.14,119.30 Z M623.91,108.75 L626.30,108.90 L614.53,104.68 L623.91,108.75 Z M728.09,783.04 L718.04,778.59 L718.04,778.59 L728.09,783.04 Z M729.94,819.64 L729.94,819.64 L728.79,790.57 L728.09,783.04 L729.94,819.64 Z M728.25,820.26 L729.56,819.81 L729.74,819.73 L728.25,820.26 Z M696.32,787.71 L703.76,794.72 L701.24,791.17 L698.55,789.37 L696.32,787.71 Z M720.86,771.58 L719.51,774.94 L721.72,770.14 L721.25,770.38 L722.63,757.57 L720.86,771.58 Z M715.68,765.80 L717.40,770.68 L716.09,765.70 L715.68,765.80 Z M723.59,769.21 L727.32,769.32 L726.40,767.81 L723.59,769.21 Z M688.93,728.18 L686.30,733.55 L688.08,731.04 L688.93,728.18 Z M700.92,707.53 L705.01,707.53 L701.32,707.08 L700.92,707.53 Z M732.63,725.31 L733.71,722.60 L734.09,720.34 L732.63,725.31 Z M720.71,219.83 L726.40,215.61 L716.63,222.09 L720.71,219.83 Z M715.22,240.54 L719.09,239.72 L720.55,239.87 L716.17,239.12 L715.22,240.54 Z M743.64,310.86 L743.71,304.68 L743.23,313.16 L743.64,310.86 Z M740.40,329.24 L741.98,320.30 L741.17,322.01 L740.40,329.24 Z M738.25,347.93 L740.63,339.49 L739.02,344.32 L738.25,347.93 Z M748.17,348.69 L739.10,355.32 L748.71,349.32 L748.17,348.69 Z M750.10,350.95 L749.79,350.58 L752.71,367.37 L750.10,350.95 Z M735.86,494.57 L736.48,484.02 L736.29,475.99 L735.86,494.57 Z M744.02,567.97 L735.97,563.28 L738.71,566.16 L744.02,567.97 Z M762.95,595.40 L739.79,604.90 L743.87,603.39 L762.95,595.40 Z M770.26,623.73 L769.26,609.87 L767.49,602.03 L769.33,613.94 L770.26,623.73 Z M811.81,599.92 L809.57,599.62 L807.57,600.83 L811.81,599.92 Z M814.34,621.77 L813.19,605.05 L811.81,599.92 L814.34,621.77 Z M814.34,659.75 L820.19,660.96 L813.81,658.55 L813.22,657.87 L814.34,659.75 Z M836.27,673.77 L832.12,675.13 L834.04,674.98 L836.27,673.77 Z M839.43,706.17 L835.43,703.46 L830.58,701.35 L839.43,706.17 Z M809.27,702.10 L813.50,698.79 L813.40,697.44 L809.27,702.10 Z M804.65,729.23 L811.27,742.19 L801.73,723.50 L788.42,706.63 L804.65,729.23 Z M817.65,797.20 L815.47,790.74 L815.88,793.13 L817.65,797.20 Z M819.50,853.57 L811.57,855.53 L810.79,856.66 L819.50,853.57 Z M833.81,880.24 L827.89,881.30 L827.44,881.99 L833.81,880.24 Z M819.16,893.31 L820.95,891.56 L820.12,891.10 L819.16,893.31 Z M818.81,907.07 L817.27,902.40 L817.65,905.56 L818.81,907.07 Z M707.40,357.73 L710.63,345.97 L706.70,357.53 L707.40,357.73 Z M667.51,589.81 L668.16,589.97 L668.46,583.18 L667.51,589.81 Z M698.93,631.12 L703.47,654.93 L700.39,638.50 L698.93,631.12 Z M677.16,473.32 L697.47,519.44 L685.93,493.07 L677.16,473.32 Z M699.39,481.16 L733.54,447.12 L733.54,447.12 L699.39,481.16 Z M735.84,456.89 L735.79,454.79 L734.70,451.09 L735.84,456.89 Z M707.23,374.19 L704.86,366.92 L706.55,372.95 L707.23,374.19 Z M682.32,166.86 L681.16,165.72 L680.86,162.94 L680.50,165.57 L682.32,166.86 Z M700.03,178.22 L695.39,174.76 L699.16,178.83 L700.03,178.22 Z M706.09,178.83 L703.39,175.82 L704.86,177.48 L706.09,178.83 Z M671.10,269.69 L678.31,263.84 L672.39,267.60 L671.10,269.69 Z M706.47,236.82 L706.70,238.21 L708.78,237.46 L706.47,236.82 Z M724.94,292.47 L713.94,261.27 L720.40,280.71 L724.94,292.47 Z M697.39,317.94 L695.85,322.01 L695.91,324.79 L697.39,317.94 Z M661.92,132.87 L658.00,137.24 L657.83,138.16 L661.92,132.87 Z M676.23,132.87 L672.46,122.32 L668.93,112.67 L676.23,132.87 Z M757.41,886.57 L758.80,887.48 L758.41,886.27 L757.41,886.57 Z M768.26,896.52 L765.33,890.49 L768.41,901.34 L767.26,896.07 L768.26,896.52 Z M771.57,898.93 L774.33,910.67 L774.33,910.67 L771.57,898.93 Z M772.05,916.01 L771.49,917.32 L771.80,922.14 L772.05,916.01 Z M792.49,754.10 L792.44,754.28 L793.57,752.74 L793.88,749.43 L792.49,754.10 Z M762.49,813.48 L757.95,813.33 L764.49,814.99 L762.49,813.48 Z M790.34,802.93 L787.80,799.46 L790.97,805.17 L790.34,802.93 Z M805.50,781.68 L807.42,785.60 L805.95,780.70 L805.50,781.68 Z M756.64,835.03 L761.95,829.61 L760.64,829.91 L756.64,835.03 Z M770.05,859.29 L770.26,860.35 L771.64,862.31 L770.05,859.29 Z M775.44,860.69 L775.44,860.69 L771.64,862.31 L775.44,860.69 Z M775.51,787.00 L779.81,779.62 L778.11,780.62 L775.51,787.00 Z M791.19,758.32 L791.57,762.39 L791.57,757.08 L791.19,758.32 Z M791.14,781.46 L790.57,782.28 L791.31,782.61 L791.14,781.46 Z M794.47,783.99 L796.42,784.84 L800.57,785.30 L794.47,783.99 Z M766.87,687.18 L765.26,683.57 L767.29,688.74 L766.87,687.18 Z M805.34,672.72 L803.42,672.41 L811.73,673.77 L805.34,672.72 Z M812.11,687.79 L813.10,693.14 L811.73,673.77 L812.11,687.79 Z M803.59,647.88 L803.80,648.45 L803.59,647.88 L803.59,647.88 Z M807.88,646.34 L805.84,647.07 L810.27,647.55 L807.88,646.34 Z M812.22,656.16 L811.88,652.37 L811.57,655.08 L812.22,656.16 Z M788.49,642.27 L790.63,643.97 L790.60,643.27 L788.49,642.27 Z M790.90,644.18 L792.11,645.14 L792.48,643.86 L790.90,644.18 Z M795.11,643.33 L796.80,645.89 L802.42,648.30 L795.11,643.33 Z M776.34,638.20 L776.44,654.57 L776.80,650.56 L776.34,638.20 Z M788.14,605.88 L787.80,605.65 L787.90,606.50 L788.14,605.88 Z M825.89,617.40 L821.19,612.73 L818.96,609.72 L821.88,614.99 L825.89,617.40 Z M840.74,781.38 L841.12,775.34 L837.43,795.85 L834.20,808.96 L834.43,811.71 L840.74,781.38 Z M841.66,766.79 L841.89,763.14 L841.66,751.24 L841.66,766.79 Z M854.97,759.07 L851.43,765.70 L857.66,765.55 L852.97,764.95 L854.97,759.07 Z M890.95,753.67 L890.17,757.84 L892.36,754.10 L891.29,754.40 L890.95,753.67 Z M904.52,762.24 L906.14,779.12 L904.14,752.44 L904.52,762.24 Z M907.44,731.19 L908.52,737.67 L907.67,726.82 L904.14,752.44 L907.44,731.19 Z M905.75,804.14 L911.21,803.32 L910.83,802.93 L905.75,804.14 Z M921.52,750.48 L919.37,752.14 L921.45,751.99 L921.60,750.35 L921.52,750.48 Z M922.27,749.18 L922.83,749.73 L923.76,746.56 L922.27,749.18 Z M933.53,746.26 L937.61,738.27 L935.07,742.49 L933.53,746.26 Z M937.84,744.91 L938.75,741.22 L938.22,742.04 L937.61,738.27 L937.84,744.91 Z M940.84,752.89 L942.30,754.25 L937.84,744.91 L940.84,752.89 Z M928.37,821.02 L928.05,821.31 L937.76,818.75 L928.37,821.02 Z M834.69,814.86 L834.89,817.25 L838.96,827.45 L834.69,814.86 Z M850.43,855.83 L847.35,848.50 L850.78,857.09 L850.43,855.83 Z M853.97,868.64 L852.61,863.71 L854.04,874.43 L853.97,868.64 Z M871.95,844.75 L871.36,836.09 L870.36,826.74 L871.67,843.62 L871.95,844.75 Z M878.18,831.38 L877.70,832.85 L878.44,832.47 L878.18,831.38 Z M876.36,826.44 L877.49,828.50 L875.74,821.17 L876.36,826.44 Z M877.13,815.89 L876.87,812.25 L875.74,821.17 L877.13,815.89 Z M877.59,806.55 L877.59,806.59 L880.21,807.90 L877.59,806.55 Z M817.73,912.95 L818.50,914.31 L822.42,916.26 L817.73,912.95 Z M860.43,812.42 L861.51,811.07 L861.40,808.26 L860.43,812.42 Z M861.71,806.93 L866.97,803.68 L861.97,805.79 L861.71,806.93 Z M891.52,705.57 L892.27,703.54 L891.98,702.41 L892.21,694.27 L891.52,705.57 Z M898.52,680.10 L896.98,680.40 L896.22,682.03 L898.52,680.10 Z M916.06,661.11 L921.60,652.67 L915.28,661.55 L916.06,661.11 Z M922.99,659.00 L921.22,645.29 L921.60,652.67 L922.99,659.00 Z M924.14,630.21 L924.08,628.58 L921.22,645.29 L924.14,630.21 Z M928.05,669.61 L928.14,668.04 L927.28,666.54 L928.05,669.61 Z M925.02,690.46 L928.77,690.40 L926.91,689.14 L925.02,690.46 Z M942.22,695.32 L944.58,699.80 L938.37,683.27 L942.22,695.32 Z M954.64,690.93 L953.84,691.70 L953.22,710.54 L954.64,690.93 Z M828.35,742.80 L826.02,744.27 L835.20,742.04 L828.35,742.80 Z M840.01,725.58 L838.88,725.86 L839.43,726.37 L840.01,725.58 Z M841.66,718.83 L840.63,724.76 L840.89,724.41 L841.66,718.83 Z M863.34,708.27 L861.05,703.91 L861.59,706.93 L863.34,708.27 Z M865.82,707.98 L863.54,708.41 L864.36,709.04 L865.82,707.98 Z M890.52,736.77 L889.10,738.23 L889.10,738.23 L890.52,736.77 Z M920.14,710.13 L916.37,707.38 L920.14,710.13 L920.14,710.13 Z M919.83,714.76 L920.09,710.94 L917.83,718.68 L919.83,714.76 Z M867.59,706.17 L868.05,710.54 L868.63,710.95 L867.59,706.17 Z M876.59,665.18 L869.28,663.67 L881.82,666.99 L876.59,665.18 Z M883.75,622.38 L883.06,622.56 L885.75,629.16 L883.75,622.38 Z M895.90,632.48 L893.14,632.88 L893.59,633.68 L895.90,632.48 Z M839.74,622.83 L839.50,629.76 L841.08,619.12 L839.74,622.83 Z M846.04,611.83 L845.89,614.69 L846.97,621.93 L846.04,611.83 Z M862.36,622.08 L861.82,621.41 L860.74,627.05 L862.36,622.08 Z M861.80,662.74 L857.05,654.33 L861.80,662.74 L861.80,662.74 Z M861.50,665.58 L861.97,665.18 L861.81,662.86 L861.50,665.58 Z M863.51,598.72 L863.40,597.76 L859.05,604.29 L863.51,598.72 Z M762.75,316.40 L771.64,297.82 L763.49,314.32 L762.75,316.40 Z M775.04,290.72 L775.72,289.31 L772.72,291.72 L775.04,290.72 Z M757.32,282.98 L755.18,278.15 L756.25,282.22 L757.32,282.98 Z" /></g></svg>