<svg xmlns="http://www.w3.org/2000/svg" viewBox="0 0 1000 1000" width="1000" height="1000"><g fill="#cccccc" stroke="#222" stroke-width="2"><path d="M174.96,478.30 L192.64,478.47 L197.96,475.99 L200.12,468.20 L196.67,458.81 L187.32,452.07 L173.66,459.52 L156.98,462.17 L128.23,456.50 L114.28,448.71 L101.77,436.84 L101.62,431.34 L108.53,407.25 L108.81,396.44 L104.93,383.68 L93.00,365.61 L81.21,350.73 L62.37,338.86 L37.35,325.22 L38.21,319.72 L53.74,306.79 L60.79,290.84 L62.94,279.50 L60.64,275.07 L44.11,275.43 L38.36,271.71 L38.07,257.53 L34.04,252.93 L37.64,238.75 L29.30,238.75 L24.26,233.61 L21.96,227.06 L19.23,203.32 L24.26,197.29 L30.45,200.31 L44.25,195.52 L49.28,216.96 L45.40,199.07 L57.05,189.67 L54.46,172.31 L64.24,169.65 L68.41,168.41 L72.72,180.11 L67.54,165.40 L78.04,150.52 L90.98,154.77 L95.73,137.05 L94.87,127.13 L97.17,126.42 L96.88,122.70 L102.20,124.65 L104.21,140.42 L108.24,139.89 L108.81,143.96 L119.60,143.79 L120.89,148.22 L115.14,164.16 L116.15,177.45 L113.56,177.63 L113.85,189.50 L117.87,190.03 L120.17,197.65 L122.47,195.88 L124.49,198.53 L122.19,204.20 L129.09,202.96 L127.65,191.45 L131.39,190.21 L131.39,202.43 L135.41,191.62 L149.08,196.94 L158.13,191.62 L169.35,192.69 L164.03,186.31 L163.45,177.98 L157.99,174.26 L159.28,161.68 L163.02,153.89 L164.89,136.88 L171.65,126.42 L170.07,116.50 L171.51,114.02 L183.30,113.49 L189.77,106.93 L188.33,93.65 L190.20,85.14 L192.21,70.43 L209.61,66.36 L214.36,69.02 L222.55,80.71 L236.36,75.22 L242.11,87.09 L246.71,86.38 L249.87,80.36 L251.89,80.71 L260.51,95.77 L270.15,98.25 L273.17,98.43 L280.21,78.76 L278.20,69.37 L270.15,57.32 L271.87,52.72 L275.90,51.30 L272.16,42.80 L276.04,37.83 L289.42,33.94 L293.01,25.25 L300.20,25.25 L310.70,23.84 L314.72,19.23 L322.63,27.56 L330.54,28.44 L328.67,55.73 L333.42,68.84 L338.31,73.98 L344.77,76.51 L343.05,74.86 L355.13,67.42 L375.55,66.01 L384.18,54.84 L388.92,55.20 L387.34,54.49 L392.23,45.63 L400.57,53.96 L412.79,55.37 L432.49,57.50 L447.30,66.01 L452.91,75.93 L452.33,93.82 L444.28,117.92 L430.62,144.14 L431.77,157.43 L438.24,168.06 L433.64,165.40 L453.34,181.17 L469.88,185.78 L500.50,184.71 L524.37,188.08 L530.70,191.27 L534.44,194.81 L540.77,215.01 L539.18,225.64 L529.41,239.46 L497.77,268.16 L494.18,274.19 L490.73,292.26 L494.61,309.27 L500.79,320.08 L509.85,325.92 L519.77,325.57 L528.83,320.96 L553.28,301.47 L571.54,280.57 L590.66,264.80 L612.23,237.34 L616.40,236.10 L621.00,238.75 L630.78,262.85 L638.83,275.78 L649.18,285.53 L663.71,293.50 L687.72,295.45 L698.65,302.36 L701.96,305.02 L714.18,317.06 L735.60,353.92 L749.41,372.70 L764.79,384.75 L782.19,390.95 L797.00,392.54 L814.40,388.47 L825.33,382.62 L843.16,359.06 L847.91,357.28 L863.72,357.82 L884.43,344.35 L888.02,344.70 L907.58,371.99 L962.51,436.66 L980.77,479.00 L969.70,493.00 L967.54,518.51 L937.20,544.38 L922.82,545.27 L923.40,533.75 L917.50,527.02 L912.18,526.84 L911.61,512.31 L906.14,509.12 L900.53,505.58 L888.45,513.02 L886.15,503.90 L886.15,506.47 L881.41,507.53 L875.80,500.80 L870.62,505.23 L867.03,502.21 L856.82,508.95 L839.71,516.57 L825.04,513.55 L819.15,518.69 L792.98,522.41 L759.19,527.55 L745.53,536.76 L722.66,538.54 L710.73,546.33 L688.15,556.25 L684.41,558.03 L685.13,561.75 L681.97,564.94 L655.37,583.18 L640.42,590.65 L642.86,590.80 L641.56,597.71 L620.71,628.01 L594.97,654.41 L592.96,660.61 L566.22,697.46 L544.22,721.91 L533.43,739.10 L528.54,746.72 L502.37,779.85 L496.62,790.13 L485.55,799.87 L467.00,828.93 L427.46,883.50 L412.79,894.31 L406.32,904.05 L389.64,929.74 L382.74,917.34 L385.18,911.67 L379.00,923.19 L350.10,942.32 L329.25,941.97 L328.82,961.63 L276.76,980.77 L266.70,980.77 L265.69,957.03 L271.59,929.39 L287.98,875.35 L290.71,854.62 L293.59,822.02 L297.18,814.22 L310.27,805.19 L325.08,798.10 L332.41,786.58 L335.29,774.18 L337.59,741.93 L349.52,707.56 L354.99,694.81 L368.50,678.86 L370.95,663.80 L367.50,645.02 L363.04,612.77 L362.03,575.92 L355.27,543.14 L349.52,523.65 L348.23,507.71 L346.65,503.10 L339.17,501.33 L316.16,512.14 L284.10,521.70 L281.08,519.93 L275.90,504.16 L268.71,461.11 L264.68,453.31 L255.19,455.79 L248.58,471.21 L241.96,491.58 L237.22,498.49 L213.06,518.51 L204.72,520.82 L197.68,519.58 L182.58,508.42 L174.53,498.14 L170.50,486.62 L174.96,478.30 Z M197.39,451.19 L198.68,436.84 L196.67,458.81 L197.39,451.19 Z M74.73,259.48 L79.37,254.51 L78.04,254.70 L60.64,275.07 L74.73,259.48 Z M301.21,83.55 L295.46,89.75 L298.33,86.74 L328.67,55.73 L301.21,83.55 Z M378.71,76.99 L378.86,80.00 L388.92,55.20 L378.71,76.99 Z M430.32,168.50 L430.76,168.41 L433.64,165.40 L430.32,168.50 Z M432.63,179.93 L434.19,182.75 L430.76,168.41 L432.63,179.93 Z M888.89,398.92 L878.68,412.74 L896.08,391.12 L907.58,371.99 L888.89,398.92 Z M737.76,494.24 L732.44,487.33 L759.19,527.55 L737.76,494.24 Z M532.43,726.87 L532.43,736.97 L533.43,739.10 L532.43,726.87 Z M374.11,666.31 L374.11,664.33 L370.95,663.80 L374.11,666.31 Z M355.44,505.98 L355.27,505.94 L348.23,507.71 L355.44,505.98 Z M381.73,98.07 L381.35,104.99 L384.20,105.50 L381.73,103.74 L381.73,98.07 Z M372.82,96.48 L380.15,98.07 L381.73,98.07 L372.82,96.48 Z M387.77,130.50 L399.52,143.91 L399.52,143.91 L387.20,129.61 L387.46,126.55 L387.05,128.73 L385.76,128.73 L387.77,130.50 Z M395.53,124.47 L397.64,123.77 L392.37,124.65 L387.20,129.61 L395.53,124.47 Z M372.67,136.88 L381.73,146.62 L379.72,143.96 L372.67,136.88 Z M371.12,142.08 L371.52,142.22 L372.67,136.88 L371.12,142.08 Z M377.36,149.74 L377.36,149.74 L381.73,146.62 L377.36,149.74 Z M381.59,166.82 L387.48,159.20 L387.62,159.02 L385.18,161.86 L381.59,166.82 Z M377.85,178.51 L374.73,188.92 L375.84,186.66 L377.27,181.17 L381.59,166.82 L377.85,178.51 Z M385.76,211.47 L387.91,218.38 L385.86,207.69 L385.76,211.47 Z M393.10,225.11 L393.23,225.11 L393.03,224.64 L393.10,225.11 Z M387.79,241.33 L391.94,242.30 L388.20,240.88 L387.79,241.33 Z M392.72,242.38 L392.48,241.47 L391.94,242.30 L392.72,242.38 Z M378.57,250.98 L377.99,258.77 L382.02,239.99 L378.57,250.98 Z M386.76,284.29 L387.76,278.47 L386.48,278.62 L385.90,267.46 L386.76,284.29 Z M369.36,322.91 L372.82,314.94 L372.44,312.70 L369.36,322.91 Z M381.30,353.56 L378.86,341.69 L380.44,350.02 L381.30,353.56 Z M456.65,385.10 L458.06,385.10 L453.91,363.66 L456.65,385.10 Z M438.53,409.73 L437.96,407.37 L434.22,410.61 L447.44,408.13 L440.11,408.13 L442.70,402.64 L438.53,409.73 Z M456.07,420.89 L459.95,421.95 L455.81,419.33 L456.07,420.89 Z M442.41,466.96 L442.12,479.89 L442.84,453.14 L442.41,466.96 Z M443.71,510.36 L448.90,506.43 L447.16,507.71 L443.71,510.36 Z M421.19,530.65 L425.30,527.55 L443.71,510.36 L421.19,530.65 Z M453.63,528.26 L455.21,531.45 L449.03,516.03 L453.63,528.26 Z M452.33,618.09 L451.18,623.05 L464.41,570.07 L464.51,568.29 L452.33,618.09 Z M440.69,702.07 L441.40,696.40 L445.29,664.69 L440.69,702.07 Z M455.06,729.36 L463.03,678.75 L461.25,687.36 L455.06,729.36 Z M344.10,349.97 L355.85,335.49 L347.51,344.35 L344.10,349.97 Z M400.28,402.46 L396.54,366.32 L401.14,412.56 L400.28,402.46 Z M274.17,146.62 L273.02,142.72 L272.98,142.69 L274.17,146.62 Z M269.00,264.27 L267.70,260.90 L263.39,252.75 L269.00,264.27 Z M260.08,252.40 L256.63,252.04 L263.39,252.75 L260.08,252.40 Z M284.67,278.97 L278.92,282.34 L271.59,286.94 L284.67,278.97 Z M305.20,284.63 L305.09,285.00 L305.55,286.04 L305.20,284.63 Z M307.08,328.26 L306.13,325.85 L306.48,328.32 L307.08,328.26 Z M270.29,372.34 L269.94,373.05 L291.29,368.45 L309.26,364.37 L273.31,371.81 L245.13,368.45 L270.29,372.34 Z M315.59,430.10 L325.65,429.04 L312.57,429.22 L300.20,427.27 L315.59,430.10 Z M293.44,432.41 L276.91,450.66 L300.20,427.27 L293.44,432.41 Z M61.51,227.59 L65.39,226.70 L68.55,225.29 L61.51,227.59 Z M91.27,247.26 L90.26,252.93 L93.57,237.69 L91.27,247.26 Z M131.53,245.49 L134.98,248.85 L138.87,256.47 L132.97,244.78 L131.53,245.49 Z M153.10,257.53 L160.94,254.17 L160.72,253.99 L153.10,257.53 Z M167.32,259.45 L171.94,267.81 L169.49,261.25 L167.32,259.45 Z M231.18,246.02 L232.47,244.90 L227.01,241.59 L219.10,242.83 L230.46,243.71 L233.05,253.64 L231.18,246.02 Z M236.66,246.49 L236.93,246.73 L237.98,245.87 L236.66,246.49 Z M243.45,241.43 L243.69,241.23 L246.85,226.53 L243.45,241.43 Z M116.58,345.06 L129.95,340.63 L129.35,339.58 L116.58,345.06 Z M213.61,317.77 L220.83,308.74 L213.78,317.06 L213.61,317.77 Z M208.72,337.50 L200.27,371.64 L202.57,364.90 L208.32,340.10 L208.72,337.50 Z M151.15,396.38 L150.94,398.57 L155.82,407.66 L151.15,396.38 Z M161.73,421.95 L159.72,417.09 L158.13,417.52 L161.73,421.95 Z M192.67,407.01 L182.43,412.56 L192.69,407.20 L192.67,407.01 Z M235.96,418.53 L234.79,418.69 L236.07,420.89 L235.96,418.53 Z M236.64,405.12 L236.26,406.61 L237.29,405.79 L236.64,405.12 Z M113.70,365.43 L113.74,365.24 L111.55,365.97 L118.88,368.45 L113.70,365.43 Z M151.40,393.73 L152.53,392.90 L152.24,384.75 L151.40,393.73 Z M222.12,375.18 L236.64,380.14 L241.67,379.56 L222.12,375.18 Z M98.43,299.85 L95.87,296.16 L97.17,300.41 L98.43,299.85 Z M112.26,298.28 L105.51,302.54 L103.17,305.30 L112.26,298.28 Z M113.09,293.55 L113.09,293.55 L112.26,298.28 L113.09,293.55 Z M120.46,259.31 L126.93,298.99 L126.79,293.15 L120.46,259.31 Z M178.12,285.53 L154.25,307.85 L160.72,303.78 L178.12,285.53 Z M145.91,313.52 L148.38,316.71 L145.34,308.21 L145.91,313.52 Z M241.25,292.97 L225.00,294.39 L236.21,294.03 L241.25,292.97 Z M261.09,299.52 L245.42,299.52 L258.64,299.88 L261.09,299.52 Z M257.64,325.92 L266.99,324.86 L266.98,324.86 L257.64,325.92 Z M196.52,284.02 L195.91,283.31 L195.09,284.46 L196.52,284.02 Z M204.44,293.32 L198.24,286.04 L199.69,289.96 L204.44,293.32 Z M101.62,283.02 L101.62,283.93 L102.77,284.87 L101.62,283.02 Z M167.68,165.83 L167.48,164.52 L164.03,164.52 L167.68,165.83 Z M206.88,141.84 L204.61,141.66 L204.38,142.81 L206.88,141.84 Z M212.63,114.02 L212.96,110.22 L212.63,110.33 L212.63,114.02 Z M76.60,214.13 L74.73,207.92 L85.95,210.05 L74.30,207.39 L76.60,214.13 Z M86.74,194.50 L95.01,187.19 L87.10,193.93 L85.73,190.77 L84.37,191.27 L86.74,194.50 Z M94.43,204.03 L91.41,203.85 L95.21,205.68 L94.43,204.03 Z M106.08,198.53 L96.99,206.54 L98.03,207.04 L106.08,198.53 Z M245.27,193.40 L242.54,193.57 L262.96,192.86 L245.27,193.40 Z M232.62,187.19 L232.76,189.50 L233.48,170.36 L232.62,187.19 Z M211.48,188.97 L215.22,191.45 L215.86,191.12 L211.48,188.97 Z M372.53,857.81 L371.16,850.21 L371.23,852.67 L372.53,857.81 Z M378.57,855.68 L382.59,854.26 L372.53,857.81 L378.57,855.68 Z M383.46,902.81 L374.69,866.84 L383.85,904.82 L383.46,902.81 Z M369.33,824.74 L369.33,824.72 L323.21,810.86 L336.72,815.82 L369.33,824.74 Z M330.97,832.47 L333.42,864.72 L336.58,905.47 L330.97,832.47 Z M319.47,910.78 L338.50,906.25 L336.58,905.47 L319.47,910.78 Z M358.72,792.78 L341.89,790.02 L347.08,791.90 L358.72,792.78 Z M410.47,539.15 L404.16,545.27 L396.69,557.32 L410.47,539.15 Z M363.90,135.10 L351.39,129.79 L363.04,135.10 L365.34,140.07 L363.90,135.10 Z M370.15,141.74 L369.94,140.95 L365.34,140.07 L370.15,141.74 Z M371.52,435.42 L377.99,452.43 L381.16,457.74 L371.52,435.42 Z M357.20,405.36 L357.19,405.36 L363.61,418.94 L371.52,435.42 L357.20,405.36 Z M391.55,498.84 L389.93,500.09 L389.55,502.46 L391.80,499.91 L391.55,498.84 Z M327.09,215.01 L323.93,212.71 L328.53,216.25 L321.05,234.15 L328.87,215.89 L327.09,215.01 Z M348.23,254.52 L358.01,216.61 L351.97,234.50 L348.23,254.52 Z M367.06,204.56 L373.36,191.70 L358.01,216.61 L367.06,204.56 Z M331.98,383.33 L335.72,410.79 L335.00,400.16 L331.98,383.33 Z M324.21,452.25 L331.55,465.72 L315.87,436.84 L324.21,452.25 Z M338.45,463.06 L359.87,454.20 L331.55,465.72 L338.45,463.06 Z M354.99,428.69 L366.49,454.73 L370.00,452.25 L365.63,452.25 L354.99,428.69 Z M323.21,357.82 L327.81,362.42 L321.63,356.22 L323.21,357.82 Z M335.57,364.02 L341.21,354.81 L341.19,354.77 L335.57,364.02 Z M307.82,275.78 L306.43,280.48 L320.19,258.77 L307.82,275.78 Z M317.83,161.52 L315.01,163.63 L317.73,162.75 L317.83,161.52 Z M321.66,173.40 L321.34,175.50 L322.06,181.88 L321.66,173.40 Z M355.56,146.98 L353.96,146.52 L353.81,146.98 L355.56,146.98 Z M352.68,162.74 L352.25,155.66 L352.25,160.44 L352.68,162.74 Z M365.48,162.57 L359.73,164.34 L359.37,164.61 L366.35,162.39 L375.78,155.32 L375.77,155.30 L365.48,162.57 Z M365.48,176.39 L365.96,182.13 L366.78,166.11 L366.35,162.39 L365.48,176.39 Z M350.15,206.31 L351.10,205.09 L349.38,196.94 L350.15,206.31 Z M366.03,183.04 L371.69,187.77 L366.03,183.04 L366.03,183.04 Z M355.56,171.25 L347.80,173.37 L340.89,177.45 L355.56,171.25 Z M359.44,103.21 L364.06,94.43 L362.18,95.95 L359.44,103.21 Z M378.91,132.26 L378.59,131.39 L378.57,131.92 L378.91,132.26 Z M348.37,88.68 L348.70,86.48 L345.50,90.28 L348.37,88.68 Z M349.52,81.07 L348.16,79.76 L349.00,84.52 L349.52,81.07 Z M428.18,750.62 L414.23,705.61 L420.12,726.87 L428.18,750.62 Z M393.23,808.02 L396.97,834.95 L398.41,843.99 L393.23,808.02 Z M412.93,536.76 L412.40,537.29 L417.71,533.28 L412.93,536.76 Z M397.40,622.87 L416.25,624.89 L416.53,623.58 L397.40,622.87 Z M443.59,619.21 L431.63,620.75 L419.98,622.87 L416.53,623.58 L443.59,619.21 Z M424.95,590.42 L428.75,565.64 L428.89,551.82 L424.95,590.42 Z M389.50,452.43 L399.42,448.19 L398.84,447.29 L389.50,452.43 Z M404.45,440.03 L405.89,445.52 L403.59,432.41 L404.45,440.03 Z M420.55,438.61 L424.87,471.39 L424.58,464.83 L420.55,438.61 Z M420.55,500.62 L420.27,494.24 L419.98,506.64 L420.55,500.62 Z M421.13,471.39 L421.56,477.76 L422.49,477.69 L421.13,471.39 Z M433.98,408.82 L434.00,408.90 L437.95,407.31 L437.95,407.31 L433.98,408.82 Z M440.83,187.02 L434.68,183.65 L435.37,184.89 L440.83,187.02 Z M444.57,197.65 L444.71,194.10 L440.83,187.02 L444.57,197.65 Z M463.40,246.19 L455.75,244.73 L456.22,245.13 L463.40,246.19 Z M463.98,272.77 L468.19,274.39 L464.56,268.70 L463.03,269.14 L467.72,273.83 L463.98,272.77 Z M452.73,282.42 L452.63,283.55 L460.67,279.33 L452.91,283.22 L452.73,282.42 Z M449.03,305.55 L450.89,302.89 L445.43,306.43 L449.03,305.55 Z M449.17,351.79 L450.64,352.10 L450.03,351.44 L446.15,323.97 L449.14,352.00 L449.17,351.79 Z M426.31,169.30 L427.01,169.16 L426.09,168.83 L426.31,169.30 Z M398.55,225.11 L397.12,225.11 L398.11,226.95 L398.55,225.11 Z M401.14,238.58 L394.24,238.75 L393.90,239.27 L401.14,238.58 Z M428.72,223.66 L427.74,222.98 L427.03,210.40 L427.74,224.76 L428.72,223.66 Z M430.19,220.50 L430.13,222.08 L434.07,217.67 L430.19,220.50 Z M428.03,211.64 L431.34,212.53 L432.81,208.70 L431.20,208.99 L430.62,212.18 L428.03,211.64 Z M418.48,321.75 L416.86,320.49 L419.40,324.86 L418.48,321.75 Z M427.31,329.64 L418.54,333.54 L436.66,326.28 L427.31,329.64 Z M407.04,257.89 L419.84,257.71 L406.59,256.23 L407.04,257.89 Z M441.33,269.85 L445.29,267.10 L438.53,270.29 L441.33,269.85 Z M423.14,206.15 L428.45,208.16 L427.46,206.33 L423.14,206.15 Z M408.80,195.79 L406.67,185.55 L405.74,185.95 L407.61,195.17 L408.80,195.79 Z M421.19,118.35 L421.27,118.63 L425.59,124.47 L421.19,118.35 Z M418.54,109.59 L412.79,106.22 L411.00,106.34 L418.54,109.59 Z M483.71,408.55 L485.41,404.77 L482.24,408.49 L483.71,408.55 Z M505.68,399.27 L501.09,399.38 L502.80,399.98 L494.46,407.78 L499.78,403.35 L505.68,399.27 Z M514.31,387.23 L505.54,392.72 L508.99,390.77 L514.31,387.23 Z M512.44,382.80 L503.68,373.46 L514.31,387.23 L512.44,382.80 Z M538.90,389.53 L545.08,403.70 L549.39,413.45 L538.90,389.53 Z M547.81,430.81 L548.10,437.01 L548.82,423.19 L549.39,413.45 L547.81,430.81 Z M605.90,407.96 L600.15,440.91 L595.55,468.55 L605.90,407.96 Z M611.08,407.60 L626.47,405.48 L605.90,407.96 L611.08,407.60 Z M628.62,438.08 L628.48,417.88 L626.47,405.48 L628.62,438.08 Z M609.35,482.02 L600.44,474.93 L594.97,473.51 L609.35,482.02 Z M592.48,523.77 L591.52,524.36 L591.36,525.37 L592.48,523.77 Z M586.35,532.51 L587.51,530.85 L555.58,571.31 L586.35,532.51 Z M605.62,535.52 L621.58,524.72 L596.99,539.78 L592.33,543.42 L605.62,535.52 Z M584.41,548.12 L588.37,545.77 L584.05,546.33 L584.41,548.12 Z M595.84,562.81 L594.83,584.96 L594.11,615.43 L595.84,562.81 Z M603.89,615.25 L601.16,618.97 L599.29,624.11 L603.89,615.25 Z M535.01,631.20 L564.10,630.33 L564.06,621.45 L563.92,630.31 L535.01,631.20 Z M537.71,610.01 L536.74,617.56 L529.98,666.81 L535.01,631.20 L537.71,610.01 Z M527.97,667.52 L531.85,666.99 L529.98,666.81 L527.97,667.52 Z M530.41,683.47 L531.20,685.18 L531.85,677.80 L531.85,666.99 L530.41,683.47 Z M564.14,639.70 L564.12,634.80 L563.63,638.11 L564.14,639.70 Z M564.20,655.12 L564.20,653.57 L561.47,673.72 L564.20,655.12 Z M525.95,701.54 L531.71,721.38 L526.98,701.46 L525.95,701.54 Z M499.21,757.17 L497.77,764.97 L499.45,757.03 L499.21,757.17 Z M530.99,687.54 L529.84,687.54 L529.98,698.88 L530.99,687.54 Z M475.20,740.34 L485.69,677.97 L497.70,616.54 L487.99,663.98 L475.20,740.34 Z M489.00,552.18 L491.81,536.11 L488.58,554.14 L489.00,552.18 Z M513.88,544.91 L518.33,526.31 L509.85,557.14 L513.88,544.91 Z M535.01,552.53 L529.69,550.58 L513.88,544.91 L535.01,552.53 Z M530.99,547.57 L533.27,547.97 L529.50,545.60 L529.69,550.58 L530.99,547.57 Z M546.27,572.73 L545.57,574.36 L548.53,575.92 L546.27,572.73 Z M540.91,585.13 L540.38,589.25 L545.24,575.11 L540.91,585.13 Z M497.34,460.58 L493.03,463.77 L498.72,460.68 L497.34,460.58 Z M525.95,483.08 L520.73,477.17 L525.67,485.56 L525.95,483.08 Z M529.45,544.33 L533.14,536.94 L529.41,543.32 L529.45,544.33 Z M562.19,499.03 L566.36,500.62 L556.01,494.60 L562.19,499.03 Z M567.37,524.18 L565.93,508.06 L566.17,527.39 L567.37,524.18 Z M498.92,520.67 L497.48,518.34 L494.75,519.22 L498.92,520.67 Z M512.44,518.87 L517.76,501.51 L509.56,524.36 L512.44,518.87 Z M534.01,500.27 L531.58,499.19 L530.56,499.91 L534.01,500.27 Z M532.86,509.48 L532.58,507.12 L528.11,528.61 L532.86,509.48 Z M456.91,438.29 L457.37,438.96 L460.10,436.84 L456.91,438.29 Z M460.39,446.76 L464.56,433.65 L461.68,441.27 L460.10,436.84 L460.39,446.76 Z M463.69,458.63 L462.44,458.05 L459.38,493.53 L463.69,458.63 Z M519.34,427.98 L513.59,433.47 L513.51,433.63 L517.04,432.23 L519.34,427.98 Z M481.09,415.22 L483.68,417.35 L487.71,417.88 L483.39,415.93 L481.09,415.22 Z M596.13,410.08 L603.17,386.52 L597.71,403.88 L596.13,410.08 Z M584.91,380.14 L595.97,376.70 L595.26,376.60 L584.91,380.14 Z M460.68,316.93 L460.10,317.60 L459.52,321.85 L460.68,316.93 Z M540.61,363.59 L541.92,363.66 L547.52,359.23 L540.61,363.59 Z M513.73,342.58 L518.91,354.98 L521.02,356.91 L513.73,342.58 Z M524.73,364.22 L525.67,367.74 L527.20,369.07 L524.73,364.22 Z M537.39,365.61 L534.29,367.56 L532.00,373.23 L532.00,373.23 L537.39,365.61 Z M470.31,348.25 L472.75,348.50 L473.33,347.19 L470.31,348.25 Z M472.44,349.22 L470.74,350.02 L471.31,351.79 L472.44,349.22 Z M492.31,396.26 L496.87,397.88 L496.05,396.44 L492.31,396.26 Z M542.63,334.61 L539.04,340.81 L538.61,345.41 L542.63,334.61 Z M487.70,216.43 L498.35,220.33 L490.29,215.72 L487.70,216.43 Z M464.41,312.64 L462.71,314.59 L468.73,312.64 L464.41,312.64 Z M473.61,274.72 L471.15,275.53 L475.48,277.20 L473.61,274.72 Z M646.02,468.55 L640.70,471.56 L647.03,468.02 L646.16,460.40 L646.02,468.55 Z M645.73,474.04 L653.51,481.06 L653.51,481.06 L645.73,474.04 Z M684.84,479.18 L688.01,468.37 L683.98,479.89 L690.45,478.47 L684.84,479.18 Z M699.90,439.19 L700.66,454.38 L700.52,440.20 L703.83,441.44 L699.90,439.19 Z M710.15,432.76 L724.24,430.81 L716.62,431.70 L710.15,432.76 Z M773.13,475.64 L781.01,469.28 L781.01,469.28 L773.13,475.64 Z M821.02,449.24 L820.31,450.30 L837.55,433.82 L838.85,432.23 L821.02,449.24 Z M872.49,476.70 L848.62,446.94 L837.55,433.82 L872.49,476.70 Z M612.95,560.86 L605.04,561.04 L605.09,561.76 L612.95,560.86 Z M619.56,566.18 L623.88,562.63 L615.68,565.82 L619.56,566.18 Z M634.72,580.42 L635.50,577.42 L634.37,579.11 L634.72,580.42 Z M637.39,590.45 L638.24,590.50 L636.15,585.78 L637.39,590.45 Z M610.36,502.04 L611.09,504.57 L612.37,496.90 L610.36,502.04 Z M634.95,516.03 L634.81,517.96 L638.26,510.66 L634.95,516.03 Z M633.22,540.48 L641.56,557.32 L638.69,551.29 L633.22,540.48 Z M640.27,381.70 L640.84,382.62 L634.92,382.30 L635.01,382.46 L639.12,383.51 L644.44,381.02 L640.27,381.70 Z M651.49,380.49 L655.22,379.25 L651.23,379.91 L651.49,380.49 Z M669.51,412.39 L671.24,410.32 L670.18,410.97 L669.51,412.39 Z M682.92,405.98 L677.08,406.72 L676.24,407.23 L682.92,405.98 Z M741.36,385.81 L746.82,377.48 L757.75,397.15 L747.39,375.71 L741.36,385.81 Z M758.75,420.54 L766.30,411.39 L763.79,413.63 L758.75,420.54 Z M613.81,453.85 L611.80,436.30 L614.39,459.34 L613.81,453.85 Z M660.98,410.08 L644.30,398.92 L653.64,405.65 L660.98,410.08 Z M661.84,442.86 L665.80,420.38 L664.00,424.26 L661.84,442.86 Z M617.06,338.52 L604.47,340.28 L617.06,338.52 L617.06,338.52 Z M638.31,344.83 L634.09,346.83 L638.11,346.65 L638.31,344.83 Z M664.24,352.66 L667.16,349.67 L663.85,351.61 L662.59,350.97 L664.24,352.66 Z M668.88,351.97 L677.22,358.52 L674.20,355.16 L667.16,349.67 L668.88,351.97 Z M627.46,306.86 L603.03,321.49 L610.36,317.24 L624.88,308.91 L627.46,306.86 Z M646.84,307.44 L647.60,308.21 L647.60,303.98 L646.84,307.44 Z M648.18,301.35 L664.00,312.46 L648.47,300.06 L648.18,301.35 Z M654.86,318.05 L677.80,349.13 L655.80,318.66 L654.86,318.05 Z M596.21,282.67 L599.00,278.79 L596.21,282.67 L596.21,282.67 Z" /></g></svg>