<svg xmlns="http://www.w3.org/2000/svg" viewBox="0 0 1000 1000" width="1000" height="1000"><g fill="#cccccc" stroke="#222" stroke-width="2"><path d="M146.10,925.90 L136.21,922.83 L126.08,924.56 L123.29,926.86 L120.03,935.11 L107.23,934.34 L104.08,933.19 L92.68,922.16 L84.53,905.85 L73.01,901.34 L67.19,896.45 L56.24,890.89 L43.91,886.67 L26.56,870.74 L20.28,860.29 L19.23,851.94 L22.49,841.30 L38.67,824.89 L48.56,818.37 L75.33,808.49 L80.11,805.13 L82.78,797.84 L95.35,788.44 L101.87,787.58 L105.13,789.69 L106.64,794.20 L103.15,806.00 L104.55,807.91 L108.97,807.44 L123.17,794.77 L129.46,793.05 L136.67,793.53 L149.59,802.35 L155.53,803.31 L160.77,801.49 L163.09,798.42 L160.30,790.65 L153.20,785.66 L152.27,779.62 L167.29,768.68 L171.59,761.01 L169.50,752.95 L160.88,745.18 L159.60,744.03 L142.26,728.20 L130.62,706.91 L135.56,695.82 L127.01,688.59 L126.31,681.58 L123.06,674.29 L122.01,671.80 L120.84,670.07 L116.42,669.69 L113.39,666.81 L104.08,670.46 L101.64,669.50 L95.12,670.55 L92.44,666.14 L93.84,663.36 L92.21,660.67 L89.65,658.66 L90.35,656.36 L86.74,654.25 L78.82,653.96 L69.40,650.50 L62.65,652.04 L66.60,646.86 L65.32,642.35 L57.52,641.58 L56.13,637.75 L64.39,630.94 L56.71,636.69 L52.17,637.65 L50.77,635.25 L49.03,635.92 L42.28,632.18 L40.53,627.48 L42.63,624.13 L41.69,622.88 L36.92,623.65 L32.85,622.11 L35.64,617.12 L32.03,613.77 L33.90,611.18 L37.39,612.33 L42.98,610.60 L44.84,615.97 L47.75,616.36 L57.18,610.22 L70.44,605.61 L72.19,602.25 L54.96,589.69 L46.58,572.23 L49.73,568.87 L52.75,567.63 L56.94,564.17 L58.92,559.86 L69.98,554.68 L81.50,553.05 L89.65,549.69 L91.28,542.01 L87.67,534.53 L76.03,526.67 L74.63,523.12 L78.48,520.05 L94.54,516.69 L103.62,514.58 L109.67,516.31 L121.19,537.51 L125.73,541.06 L128.99,542.59 L145.05,546.52 L153.78,554.77 L160.88,558.32 L178.69,552.28 L191.15,551.51 L200.65,556.51 L200.46,556.31 L205.46,552.76 L207.09,538.56 L209.89,535.88 L219.20,532.33 L218.85,523.50 L230.49,515.44 L235.14,516.12 L241.43,522.83 L246.67,521.77 L248.88,518.90 L249.46,513.43 L253.77,509.21 L252.95,506.91 L246.20,504.03 L245.39,500.10 L247.48,496.45 L247.60,491.08 L254.23,483.60 L261.91,480.34 L259.82,474.77 L273.79,473.72 L268.55,473.62 L268.55,469.69 L260.87,462.21 L254.81,452.90 L259.12,447.63 L255.98,444.46 L256.09,441.58 L268.67,440.43 L270.41,438.51 L269.13,434.68 L257.72,430.84 L257.49,425.08 L255.05,420.48 L240.85,416.45 L240.73,414.63 L245.85,410.12 L245.85,407.82 L238.87,405.71 L232.12,396.40 L225.48,395.25 L220.01,398.03 L215.47,392.18 L200.34,392.47 L199.18,390.74 L201.39,386.81 L200.92,382.30 L196.03,379.62 L194.52,375.78 L210.00,371.85 L213.84,365.99 L212.91,362.35 L209.30,360.34 L210.58,356.79 L208.61,356.31 L208.49,354.29 L214.08,351.61 L206.28,351.03 L208.14,349.69 L205.46,348.34 L205.58,345.56 L209.65,346.52 L213.26,344.41 L214.31,346.71 L214.89,344.51 L218.38,345.75 L223.74,342.40 L225.60,343.74 L229.44,342.49 L227.93,340.00 L223.62,340.48 L225.48,338.56 L225.02,335.30 L222.57,334.82 L222.11,332.90 L224.09,331.37 L224.44,329.35 L222.69,328.87 L224.32,327.24 L220.36,323.79 L225.13,323.40 L222.34,320.81 L224.67,319.47 L221.29,317.36 L227.93,314.00 L227.69,310.07 L231.30,309.88 L230.14,307.00 L232.82,303.84 L231.42,301.63 L235.03,301.92 L238.17,299.42 L238.29,297.03 L241.20,295.49 L236.19,292.90 L239.22,292.13 L239.10,288.01 L237.47,288.01 L239.22,286.57 L235.96,284.36 L237.01,281.68 L239.10,283.40 L242.24,280.14 L242.36,281.77 L246.32,283.79 L246.20,281.58 L249.23,281.87 L249.46,284.75 L252.60,287.15 L255.75,287.91 L258.31,286.38 L260.05,287.82 L259.24,283.12 L262.61,282.45 L259.59,279.95 L263.19,278.70 L262.50,276.88 L265.41,274.87 L266.45,276.40 L268.55,274.48 L271.81,275.06 L270.18,273.52 L270.99,271.99 L272.62,273.33 L277.39,271.99 L277.98,274.29 L279.72,273.33 L282.52,275.16 L287.06,274.77 L286.01,276.59 L288.57,276.31 L292.06,279.09 L289.62,277.07 L287.52,274.29 L291.71,273.04 L292.53,270.07 L288.80,270.84 L288.80,269.78 L292.53,266.52 L288.92,264.89 L287.64,265.85 L287.40,261.53 L283.56,260.96 L283.68,258.56 L293.34,258.66 L292.41,261.73 L297.41,258.75 L301.37,258.27 L299.51,262.30 L304.40,264.41 L302.54,262.11 L306.38,259.90 L309.75,261.82 L309.99,259.81 L307.42,257.70 L313.13,258.18 L311.85,255.97 L313.71,254.53 L313.01,252.61 L315.34,254.34 L320.34,250.31 L325.47,250.31 L324.30,247.62 L321.04,248.49 L321.62,246.19 L319.53,245.13 L321.28,244.75 L320.93,242.73 L326.63,241.77 L325.35,243.02 L327.21,243.79 L330.70,240.05 L332.80,242.35 L333.15,239.76 L338.50,236.79 L345.02,238.90 L343.62,235.83 L345.49,235.06 L347.23,236.50 L349.56,234.58 L348.51,232.95 L351.42,233.04 L351.89,231.32 L353.63,231.32 L353.17,229.97 L351.42,230.26 L352.12,227.48 L350.61,226.04 L357.59,225.08 L350.84,222.88 L350.49,221.34 L358.52,219.81 L356.66,218.75 L358.87,217.41 L356.54,216.45 L360.04,215.20 L360.15,216.93 L364.69,218.46 L368.07,217.60 L370.51,220.09 L370.05,217.89 L371.79,216.16 L378.31,215.78 L379.24,214.91 L377.15,215.39 L374.47,212.52 L380.75,207.24 L379.47,207.15 L378.89,202.06 L375.98,202.16 L373.89,200.24 L374.58,196.69 L378.08,195.35 L375.86,194.58 L383.43,190.26 L388.44,190.07 L389.95,188.34 L388.09,187.58 L389.60,186.23 L387.39,185.95 L388.20,182.11 L391.23,178.85 L393.09,179.33 L393.67,177.50 L395.54,178.66 L397.75,175.97 L397.63,174.05 L394.02,172.61 L394.84,171.27 L391.23,168.49 L392.04,166.95 L387.39,167.91 L387.97,166.86 L385.87,166.47 L388.78,163.79 L387.27,162.16 L388.20,157.46 L385.76,154.96 L387.50,154.10 L387.39,149.40 L389.95,147.77 L388.55,145.18 L391.81,143.16 L393.79,144.22 L396.00,139.90 L396.23,141.73 L399.49,140.57 L398.68,137.89 L400.77,138.85 L403.68,136.35 L406.36,136.16 L406.83,134.53 L405.08,133.67 L408.11,130.50 L412.76,130.89 L418.81,127.82 L421.38,121.39 L419.51,116.50 L423.12,116.21 L424.52,114.29 L429.17,115.92 L440.00,116.50 L447.21,113.81 L447.21,112.28 L449.89,112.37 L449.66,108.34 L452.34,106.90 L451.99,104.89 L459.09,100.96 L461.30,97.22 L513.79,86.28 L700.14,52.52 L703.05,55.39 L711.90,55.78 L713.64,46.76 L715.97,44.94 L722.02,44.17 L724.12,41.10 L723.07,34.19 L725.75,25.27 L725.17,20.86 L729.36,19.23 L732.03,24.79 L735.53,27.48 L730.99,29.21 L729.36,32.18 L735.76,39.66 L729.82,42.16 L728.43,44.84 L734.59,46.86 L739.72,50.98 L742.86,49.16 L737.62,43.69 L737.74,41.58 L742.97,42.73 L750.19,56.83 L745.77,66.90 L746.93,74.39 L736.22,80.53 L744.14,83.31 L750.19,79.28 L757.64,77.94 L758.92,72.76 L772.66,71.99 L776.61,69.11 L786.27,70.65 L788.72,79.76 L798.15,86.95 L808.27,79.47 L810.02,79.47 L812.93,82.83 L812.46,85.71 L817.70,85.90 L823.05,81.87 L823.05,88.20 L836.56,96.07 L838.88,105.66 L846.68,107.96 L858.67,118.70 L858.21,120.62 L856.23,120.91 L854.13,119.09 L850.99,119.47 L845.63,124.55 L847.38,132.90 L834.23,137.02 L831.32,139.71 L831.20,143.45 L827.94,148.06 L822.12,149.11 L816.65,153.14 L814.32,152.76 L810.02,155.06 L808.27,158.51 L811.07,161.49 L809.20,164.94 L810.02,169.73 L817.93,164.08 L823.87,163.12 L829.46,166.76 L825.38,171.17 L825.50,174.82 L836.91,174.44 L839.58,171.94 L835.28,170.02 L837.14,162.92 L842.49,164.08 L850.87,160.72 L861.81,158.80 L866.70,163.98 L871.82,164.36 L875.32,165.42 L877.99,171.17 L875.43,174.05 L876.83,174.44 L876.01,182.40 L873.80,181.92 L875.43,183.64 L873.92,188.73 L876.25,192.18 L873.80,192.95 L876.94,194.48 L877.41,197.36 L878.23,196.31 L886.61,196.98 L887.65,206.19 L889.98,207.91 L897.78,209.54 L906.16,208.39 L913.03,221.73 L919.89,221.82 L922.80,227.19 L932.12,236.50 L940.73,230.84 L942.01,225.75 L943.41,230.07 L941.54,232.09 L941.78,240.24 L939.80,242.16 L939.10,250.02 L932.47,257.70 L932.47,264.99 L926.41,270.65 L920.13,271.51 L918.73,274.20 L913.14,276.50 L911.63,280.43 L912.91,284.27 L916.52,286.09 L919.08,289.83 L918.15,293.67 L917.45,299.04 L914.07,300.00 L915.12,302.01 L912.45,304.80 L916.29,308.34 L914.89,309.02 L915.94,314.87 L918.61,316.11 L917.33,320.43 L920.24,327.05 L918.27,331.37 L919.20,335.78 L916.05,336.45 L913.73,339.52 L912.21,336.16 L910.58,335.87 L908.02,342.30 L901.74,343.74 L900.22,349.78 L893.82,351.51 L891.84,344.70 L887.30,345.08 L886.37,351.32 L890.56,357.94 L883.23,361.58 L889.40,365.99 L884.86,365.42 L880.20,361.49 L874.15,364.94 L870.43,365.13 L874.62,366.57 L877.41,369.74 L870.89,375.30 L865.65,376.16 L872.64,381.05 L867.63,387.19 L865.54,382.88 L860.42,383.84 L859.83,385.95 L863.91,392.57 L867.63,394.68 L864.37,394.68 L861.00,391.61 L857.16,392.85 L858.09,398.99 L852.85,401.20 L856.58,403.21 L856.81,406.19 L851.34,404.17 L850.17,406.19 L845.29,407.82 L844.35,412.23 L847.03,416.45 L841.44,422.78 L838.30,424.12 L842.14,431.89 L831.90,436.59 L827.24,434.29 L824.57,443.50 L818.63,443.79 L815.02,446.38 L816.30,452.61 L820.26,456.93 L826.43,457.41 L833.53,463.45 L833.30,466.33 L837.49,470.46 L834.46,472.66 L831.32,478.70 L832.02,481.97 L828.76,489.16 L825.50,490.89 L823.75,497.51 L818.75,492.23 L811.65,493.09 L809.90,495.11 L811.88,498.18 L806.88,502.69 L802.68,502.59 L801.29,504.03 L805.01,514.48 L802.22,519.18 L796.05,523.12 L792.91,528.97 L785.11,528.68 L774.75,525.61 L767.35,529.52 L768.23,529.45 L771.26,530.31 L774.05,528.97 L778.13,530.89 L778.01,534.63 L778.36,532.81 L780.45,533.09 L781.73,536.16 L788.95,533.48 L789.30,537.22 L800.36,537.51 L798.73,541.73 L806.06,542.21 L807.46,545.37 L810.37,545.28 L810.37,546.52 L812.23,544.41 L813.86,545.85 L817.58,545.18 L817.58,547.29 L820.14,545.76 L820.61,547.39 L825.27,547.67 L824.92,549.59 L827.94,550.84 L829.69,550.07 L831.55,552.47 L831.55,555.06 L833.18,555.25 L832.02,557.27 L834.81,557.36 L840.40,561.30 L842.96,560.53 L847.61,563.12 L848.78,561.49 L850.41,562.06 L857.39,569.45 L861.00,570.79 L869.03,570.89 L869.84,569.35 L876.36,568.59 L883.23,565.52 L883.70,564.17 L891.73,562.35 L896.27,563.41 L898.36,564.27 L902.78,572.04 L906.86,573.48 L906.39,574.82 L908.49,574.05 L912.33,577.70 L913.49,575.40 L917.92,578.47 L918.96,581.82 L921.87,580.86 L927.11,583.84 L926.18,585.18 L931.30,589.21 L932.00,592.37 L930.60,593.14 L933.40,595.35 L934.09,598.80 L940.73,598.13 L961.10,638.13 L961.45,666.14 L960.52,704.51 L976.58,723.79 L980.07,732.33 L980.77,737.79 L975.65,752.85 L976.93,755.73 L974.37,755.64 L966.34,765.90 L954.46,775.68 L944.69,779.33 L921.41,792.57 L910.00,795.35 L896.85,796.60 L886.95,800.43 L872.99,798.61 L863.91,787.20 L860.65,777.12 L857.97,775.30 L842.03,777.41 L842.38,772.90 L839.12,769.35 L835.62,765.52 L826.55,764.85 L819.10,768.97 L815.37,774.73 L816.19,775.88 L814.67,775.68 L810.37,780.48 L805.25,780.96 L805.13,783.93 L798.73,790.74 L799.89,791.51 L797.10,794.01 L798.26,794.87 L796.98,796.98 L784.76,793.72 L781.27,797.56 L775.56,798.90 L774.52,801.78 L772.69,800.92 L773.35,802.16 L771.61,804.65 L767.88,804.75 L766.14,807.34 L764.86,811.85 L762.18,810.70 L754.96,815.88 L754.96,819.33 L751.82,819.52 L751.24,825.56 L749.38,824.70 L747.05,829.11 L741.00,832.09 L741.34,834.97 L737.74,833.24 L729.12,838.13 L727.84,846.19 L725.52,847.44 L726.45,849.55 L723.77,852.62 L720.63,852.81 L714.11,859.52 L719.35,863.84 L719.23,867.39 L720.86,868.35 L716.09,872.38 L717.60,873.62 L715.85,876.21 L721.56,878.99 L717.37,880.05 L719.00,885.71 L709.69,889.35 L702.47,885.80 L695.25,886.67 L690.71,887.92 L683.96,893.77 L679.19,895.21 L675.47,894.05 L671.04,891.18 L670.11,888.39 L657.89,880.62 L657.54,878.23 L663.71,876.12 L662.43,873.62 L667.32,870.84 L664.76,865.85 L658.01,861.54 L664.41,852.52 L659.29,846.76 L662.66,840.62 L659.98,836.40 L662.08,838.13 L664.52,837.65 L661.61,830.55 L660.22,821.44 L663.13,817.79 L657.66,816.64 L658.52,812.32 L592.94,810.98 L593.17,807.53 L590.38,808.11 L587.35,805.80 L584.68,806.86 L577.93,803.41 L573.39,804.37 L573.62,808.11 L566.52,810.31 L560.93,810.03 L559.65,814.15 L557.56,814.53 L554.53,814.63 L554.65,808.97 L550.46,808.68 L549.41,809.35 L549.76,793.53 L539.28,796.31 L534.16,796.12 L529.39,796.02 L524.38,799.38 L521.24,799.67 L517.63,805.42 L511.58,807.05 L506.34,813.48 L503.08,814.44 L502.85,813.19 L499.48,817.51 L493.89,818.75 L488.88,822.59 L478.29,822.97 L474.80,821.54 L468.24,823.03 L470.84,825.28 L470.73,833.91 L476.90,833.81 L479.22,835.25 L479.34,836.40 L476.08,837.08 L478.41,841.01 L474.80,842.35 L471.08,838.42 L471.43,845.52 L472.82,847.15 L471.54,847.53 L471.43,855.88 L468.75,857.89 L468.17,864.70 L465.14,870.07 L464.79,879.38 L454.78,881.87 L451.87,884.85 L450.24,890.70 L444.89,893.48 L438.60,894.15 L433.48,898.56 L426.85,900.29 L426.38,904.22 L421.38,911.13 L386.57,909.69 L383.55,906.33 L372.26,905.09 L353.63,907.48 L353.75,908.54 L324.42,919.38 L328.49,929.83 L323.72,929.83 L318.95,925.42 L316.04,924.94 L305.91,929.74 L304.63,935.49 L308.47,941.73 L318.25,948.25 L316.74,951.61 L312.43,950.55 L309.87,954.20 L306.84,953.62 L304.75,955.73 L298.23,956.31 L298.11,960.34 L292.76,964.85 L294.04,972.71 L290.31,980.77 L279.49,977.89 L272.51,971.18 L263.31,967.24 L247.25,963.60 L240.85,964.17 L230.84,959.19 L223.50,957.65 L216.64,951.42 L208.84,953.81 L205.93,953.05 L196.62,937.22 L184.16,930.12 L180.55,925.04 L175.32,922.35 L172.87,915.54 L163.44,914.58 L159.95,915.92 L162.51,907.68 L157.74,919.57 L150.41,921.20 L146.10,925.90 Z M340.13,465.95 L340.83,466.33 L333.40,458.84 L340.13,465.95 Z M345.02,468.63 L358.75,469.88 L345.02,468.63 L345.02,468.63 Z M381.22,483.79 L387.85,480.24 L384.36,481.39 L381.22,483.79 Z M366.32,549.11 L364.46,543.36 L361.90,540.77 L366.32,549.11 Z M365.27,566.67 L365.61,567.02 L362.13,561.39 L365.27,566.67 Z M370.16,571.75 L371.50,571.10 L369.58,571.14 L370.16,571.75 Z M385.06,572.13 L376.68,570.98 L376.40,570.99 L385.06,572.13 Z M380.99,588.83 L376.96,589.87 L385.29,589.50 L380.99,588.83 Z M369.93,591.70 L372.49,591.13 L372.84,590.95 L369.93,591.70 Z M368.01,595.21 L369.70,593.81 L369.93,591.70 L368.01,595.21 Z M361.43,598.71 L364.46,598.13 L366.90,596.12 L361.43,598.71 Z M354.10,658.85 L352.47,661.15 L355.50,657.51 L354.08,658.13 L354.10,658.85 Z M360.27,691.46 L358.87,693.09 L363.76,690.89 L360.27,691.46 Z M388.20,693.86 L372.84,693.57 L363.64,694.53 L388.20,693.86 Z M392.86,628.25 L393.75,628.41 L392.87,626.32 L392.67,628.29 L392.86,628.25 Z M493.31,675.35 L494.86,674.87 L494.84,673.05 L493.89,674.77 L491.68,671.99 L493.31,675.35 Z M498.57,668.80 L496.80,669.50 L496.26,670.47 L498.57,668.80 Z M514.84,632.57 L514.90,632.23 L512.86,636.21 L514.84,632.57 Z M574.55,654.72 L585.49,654.82 L583.86,654.72 L574.55,654.72 Z M543.24,674.49 L552.90,677.04 L549.18,675.54 L543.24,674.49 Z M613.29,710.51 L615.96,707.46 L613.43,709.40 L613.29,710.51 Z M612.96,713.14 L613.44,713.40 L613.04,712.55 L612.96,713.14 Z M616.22,714.87 L618.32,715.35 L615.84,714.67 L616.22,714.87 Z M170.31,786.33 L166.35,784.80 L175.90,789.40 L170.31,786.33 Z M243.34,807.51 L244.78,807.07 L244.22,805.04 L244.57,806.57 L243.34,807.51 Z M258.45,823.94 L261.56,816.07 L258.07,821.82 L258.45,823.94 Z M262.15,832.85 L258.91,826.54 L259.24,828.35 L262.15,832.85 Z M268.43,835.69 L268.32,835.73 L268.43,841.39 L268.43,835.69 Z M350.78,816.24 L349.44,816.64 L349.79,817.79 L350.14,818.95 L350.78,816.24 Z M357.24,814.63 L354.22,815.21 L352.24,815.80 L357.68,815.13 L357.24,814.63 Z M364.45,815.38 L360.38,813.86 L359.05,814.96 L360.97,814.73 L364.45,815.38 Z M343.51,852.04 L343.62,847.82 L343.39,849.64 L343.51,852.04 Z M182.88,793.14 L185.32,797.08 L185.09,795.25 L182.88,793.14 Z M186.26,804.75 L191.50,810.31 L189.87,807.82 L186.26,804.75 Z M82.37,818.65 L82.30,818.59 L81.62,819.04 L82.37,818.65 Z M118.09,840.86 L110.60,837.65 L117.24,841.01 L118.09,840.86 Z M126.73,829.49 L126.28,832.87 L127.25,830.94 L126.73,829.49 Z M121.87,821.83 L125.78,826.82 L124.92,824.41 L121.87,821.83 Z M168.22,857.99 L168.33,852.71 L167.54,859.40 L168.22,857.99 Z M79.06,869.11 L82.90,864.13 L81.39,865.18 L79.06,869.11 Z M104.32,881.49 L95.00,865.66 L92.68,860.67 L95.47,867.96 L104.32,881.49 Z M163.33,861.06 L166.70,861.15 L166.95,860.63 L163.33,861.06 Z M232.35,855.78 L235.03,866.43 L237.01,873.14 L232.35,855.78 Z M293.57,882.93 L279.84,875.25 L274.72,874.29 L281.82,876.69 L293.57,882.93 Z M276.00,851.21 L276.00,848.30 L275.30,849.93 L276.00,851.21 Z M240.15,813.86 L239.80,810.22 L239.37,814.17 L240.15,813.86 Z M195.22,608.49 L194.75,583.45 L194.75,585.37 L195.22,608.49 Z M155.88,604.36 L160.53,600.05 L152.74,606.76 L155.88,604.36 Z M159.60,624.32 L170.89,614.05 L163.91,612.81 L170.78,614.15 L159.60,624.32 Z M188.35,682.54 L182.30,674.29 L180.44,669.69 L182.42,674.96 L188.35,682.54 Z M91.05,630.94 L83.25,627.77 L61.71,621.44 L71.49,624.89 L94.88,632.53 L94.31,632.18 L91.05,630.94 Z M55.66,613.19 L58.46,618.47 L61.71,621.44 L55.66,613.19 Z M89.88,623.45 L93.96,626.91 L95.47,627.67 L89.88,623.45 Z M97.22,624.51 L101.99,624.51 L107.11,624.41 L97.22,624.51 Z M118.52,613.09 L107.23,619.33 L113.51,617.89 L117.58,616.83 L109.79,618.56 L118.52,613.09 Z M144.47,635.44 L148.89,633.62 L148.85,632.64 L144.47,635.44 Z M148.80,631.43 L148.66,628.44 L147.85,630.74 L148.80,631.43 Z M149.13,619.23 L154.95,620.96 L142.26,617.12 L149.13,619.23 Z M139.12,609.16 L140.17,613.48 L142.26,617.12 L139.12,609.16 Z M101.99,639.57 L99.08,635.06 L108.51,652.23 L101.99,639.57 Z M120.06,658.26 L119.80,657.89 L108.51,652.23 L120.06,658.26 Z M78.13,603.89 L80.22,594.58 L78.48,599.19 L78.13,603.89 Z M87.82,587.37 L90.70,585.76 L88.37,586.62 L86.16,583.65 L87.82,587.37 Z M130.68,585.36 L130.89,582.06 L130.39,582.69 L130.68,585.36 Z M99.66,616.45 L96.32,617.09 L96.52,617.12 L99.66,616.45 Z M134.60,600.30 L131.68,594.57 L132.02,597.65 L134.60,600.30 Z M82.78,566.00 L91.51,569.34 L91.05,568.87 L82.78,566.00 Z M92.55,570.38 L91.05,573.77 L93.14,570.98 L92.55,570.38 Z M248.99,583.74 L250.04,587.19 L249.34,583.26 L248.99,583.74 Z M255.86,586.43 L254.32,589.91 L258.54,584.03 L255.86,586.43 Z M258.34,579.50 L257.96,579.90 L258.54,584.03 L258.34,579.50 Z M263.65,578.41 L264.82,579.62 L272.16,581.63 L263.65,578.41 Z M280.19,567.34 L281.36,566.01 L280.39,565.75 L280.19,567.34 Z M297.18,570.41 L297.17,570.32 L296.25,571.08 L299.67,570.95 L297.18,570.41 Z M301.86,571.43 L303.70,573.48 L302.89,571.65 L301.86,571.43 Z M321.21,571.82 L317.09,573.86 L319.30,573.00 L319.41,575.11 L321.21,571.82 Z M304.05,601.68 L299.61,598.02 L299.74,598.71 L303.74,602.49 L304.05,601.68 Z M303.79,603.42 L303.05,603.79 L305.50,604.53 L303.79,603.42 Z M310.27,607.62 L310.57,608.11 L312.73,609.22 L310.27,607.62 Z M320.84,614.47 L321.39,615.59 L322.97,615.85 L320.84,614.47 Z M363.18,704.70 L306.38,704.41 L348.51,705.47 L363.18,704.70 Z M331.63,745.37 L320.34,751.80 L327.79,747.58 L331.63,745.37 Z M413.34,761.49 L417.32,764.25 L416.25,762.45 L413.34,761.49 Z M405.23,768.24 L404.50,768.11 L400.07,771.75 L405.23,768.24 Z M353.17,802.35 L348.40,803.89 L350.03,803.69 L353.17,802.35 Z M242.71,645.23 L242.73,644.48 L240.96,646.96 L242.71,645.23 Z M242.83,640.34 L240.85,637.75 L242.75,643.58 L242.83,640.34 Z M270.64,644.27 L263.89,642.83 L248.18,641.78 L270.64,644.27 Z M292.41,681.68 L296.02,676.69 L293.57,680.05 L292.41,681.68 Z M335.82,808.11 L340.83,808.39 L341.24,808.30 L335.82,808.11 Z M263.89,793.62 L269.23,791.81 L269.01,791.32 L263.89,793.62 Z M279.26,791.99 L284.61,789.31 L285.02,788.24 L279.26,791.99 Z M285.49,786.99 L285.89,785.95 L284.26,784.89 L285.49,786.99 Z M287.52,784.89 L287.99,772.42 L287.99,769.83 L287.52,784.89 Z M234.79,763.69 L234.64,762.85 L233.68,763.61 L234.79,763.69 Z M189.63,784.41 L189.59,783.88 L188.75,784.57 L189.63,784.41 Z M290.31,619.90 L289.85,627.67 L291.89,618.05 L290.31,619.90 Z M290.26,614.28 L292.27,616.49 L292.53,615.49 L290.26,614.28 Z M302.30,602.83 L301.54,603.33 L302.19,603.53 L302.30,602.83 Z M305.10,648.20 L306.67,655.11 L307.08,654.63 L305.10,648.20 Z M305.56,659.43 L303.82,658.47 L305.37,656.63 L302.45,658.14 L305.56,659.43 Z M315.23,631.52 L315.23,631.36 L304.86,629.98 L315.23,631.52 Z M301.26,658.75 L301.96,659.91 L302.05,658.34 L301.26,658.75 Z M195.45,615.20 L196.62,617.13 L198.13,617.31 L195.45,615.20 Z M251.44,596.40 L252.25,604.27 L252.16,594.79 L251.44,596.40 Z M297.65,507.67 L293.34,501.15 L294.50,503.93 L297.65,507.67 Z M305.45,517.07 L302.42,516.79 L306.48,517.28 L306.38,513.91 L305.45,517.07 Z M201.67,557.57 L199.41,559.18 L202.20,558.13 L201.67,557.57 Z M288.34,519.86 L298.23,517.27 L287.89,519.87 L288.34,519.86 Z M302.42,542.11 L300.32,536.64 L297.88,531.56 L302.42,542.11 Z M280.65,563.60 L280.54,564.49 L281.22,563.42 L280.65,563.60 Z M412.17,802.23 L411.08,801.12 L410.32,801.37 L412.17,802.23 Z M412.65,803.98 L413.40,803.48 L412.65,802.71 L412.65,803.98 Z M415.21,807.82 L415.67,805.80 L414.11,804.21 L415.21,807.82 Z M420.09,868.92 L424.40,866.14 L425.83,863.51 L420.09,868.92 Z M426.70,861.90 L429.23,857.24 L427.43,858.37 L426.70,861.90 Z M430.84,856.22 L432.40,856.17 L431.39,855.88 L430.84,856.22 Z M435.46,855.11 L435.56,854.60 L434.76,856.08 L437.04,856.00 L435.46,855.11 Z M436.13,851.71 L436.39,850.41 L434.06,847.92 L436.13,851.71 Z M370.28,815.68 L369.60,816.34 L377.38,817.79 L370.28,815.68 Z M402.29,800.53 L401.01,803.12 L404.27,799.76 L402.29,800.53 Z M402.05,720.14 L398.85,720.14 L402.63,721.04 L402.05,720.14 Z M434.18,769.64 L442.47,766.56 L439.07,766.96 L434.18,769.64 Z M411.71,801.20 L411.83,800.88 L411.41,801.01 L411.71,801.20 Z M494.88,676.48 L492.73,689.07 L494.94,681.49 L494.88,676.48 Z M508.44,690.60 L510.42,692.04 L500.41,693.38 L513.09,692.39 L508.44,690.60 Z M526.71,721.10 L530.77,720.14 L524.90,720.40 L526.71,721.10 Z M539.28,719.95 L538.35,718.51 L537.55,718.84 L539.28,719.95 Z M592.04,641.85 L592.24,640.91 L584.44,633.43 L584.21,609.83 L584.21,641.49 L584.44,633.62 L592.04,641.85 Z M546.74,222.32 L548.13,220.39 L546.62,221.53 L546.74,222.32 Z M545.70,223.77 L545.83,223.58 L545.57,223.55 L545.70,223.77 Z M544.29,228.73 L546.38,228.92 L543.24,227.19 L543.80,229.66 L544.29,228.73 Z M542.58,232.00 L543.23,230.74 L541.96,231.61 L542.58,232.00 Z M495.45,288.42 L493.66,285.61 L494.59,288.01 L495.45,288.42 Z M625.92,454.10 L622.39,447.63 L625.18,453.09 L625.92,454.10 Z M613.89,455.20 L610.70,456.83 L625.18,453.09 L613.89,455.20 Z M557.32,490.98 L533.58,492.33 L539.40,492.04 L557.32,490.98 Z M531.60,504.80 L523.80,500.86 L523.76,500.86 L531.60,504.80 Z M531.14,506.24 L533.95,510.60 L531.60,504.80 L531.14,506.24 Z M537.54,514.10 L535.30,512.70 L537.90,516.73 L537.54,514.10 Z M538.24,519.18 L538.14,518.48 L531.14,518.23 L538.24,519.18 Z M546.85,527.24 L542.11,525.99 L542.08,526.47 L546.85,527.24 Z M562.03,523.48 L560.00,523.21 L561.05,524.08 L562.03,523.48 Z M524.38,585.37 L522.04,579.29 L521.94,580.29 L524.38,585.37 Z M538.00,591.42 L539.87,588.73 L536.49,593.43 L538.00,591.42 Z M409.15,539.14 L412.65,537.41 L405.25,539.00 L409.15,539.14 Z M430.69,538.56 L434.18,553.43 L430.80,537.79 L428.24,534.34 L430.69,538.56 Z M452.57,573.48 L452.45,565.80 L451.64,569.07 L452.57,573.48 Z M513.89,553.90 L513.56,553.81 L510.42,554.48 L513.89,553.90 Z M516.24,555.25 L519.96,555.44 L515.44,554.29 L516.24,555.25 Z M535.91,563.69 L539.98,562.25 L530.90,564.27 L535.91,563.69 Z M556.86,547.39 L559.43,545.88 L551.27,547.67 L556.86,547.39 Z M390.18,612.52 L391.23,615.20 L391.66,615.36 L390.18,612.52 Z M396.82,621.34 L397.05,618.85 L397.97,619.14 L397.05,617.31 L396.82,621.34 Z M417.88,624.22 L440.78,620.98 L440.78,620.98 L401.36,625.85 L417.88,624.22 Z M506.34,612.90 L503.55,613.57 L499.59,616.26 L506.34,612.90 Z M442.33,623.07 L447.21,622.40 L442.10,622.74 L442.33,623.07 Z M372.61,593.14 L377.61,597.75 L385.41,602.45 L372.61,593.14 Z M425.57,602.45 L426.66,602.69 L422.66,594.39 L425.57,602.45 Z M434.76,531.37 L430.85,527.13 L428.71,529.54 L430.92,528.30 L434.76,531.37 Z M498.31,543.74 L505.18,543.84 L507.02,543.56 L498.31,543.74 Z M509.95,535.97 L510.77,535.42 L500.17,534.24 L509.95,535.97 Z M435.11,513.24 L436.00,515.08 L436.86,506.14 L435.11,513.24 Z M479.92,482.82 L473.75,481.39 L469.68,481.58 L479.92,482.82 Z M390.76,223.36 L394.94,223.45 L382.50,220.96 L390.76,223.36 Z M402.76,225.25 L402.64,224.99 L402.02,224.86 L402.76,225.25 Z M403.57,228.92 L405.43,230.93 L403.75,227.35 L403.57,228.92 Z M412.65,231.70 L418.23,230.74 L405.43,230.93 L412.65,231.70 Z M598.18,600.53 L597.79,602.25 L599.81,600.24 L598.18,600.53 Z M693.04,580.48 L692.91,581.66 L698.98,577.31 L693.04,580.48 Z M708.06,576.26 L701.65,573.09 L708.64,576.99 L708.06,576.26 Z M710.03,578.75 L708.91,577.33 L709.50,580.82 L710.03,578.75 Z M710.73,582.69 L712.83,582.49 L709.62,581.52 L710.38,586.04 L710.73,582.69 Z M735.41,606.57 L729.47,606.00 L736.06,607.03 L735.41,606.57 Z M739.13,697.03 L740.14,696.70 L736.22,695.78 L739.13,697.03 Z M689.08,804.75 L762.65,805.23 L715.62,804.85 L660.33,803.21 L689.08,804.75 Z M660.45,797.56 L659.20,808.92 L660.33,803.21 L660.45,797.56 Z M601.00,659.65 L610.40,655.27 L608.77,655.01 L602.14,658.75 L601.00,659.65 Z M611.88,655.50 L612.03,655.88 L610.92,656.79 L616.69,656.26 L611.88,655.50 Z M658.82,666.52 L661.38,647.72 L658.70,664.32 L658.82,666.52 Z M696.30,638.80 L692.23,638.71 L675.70,640.72 L696.30,638.80 Z M696.77,641.87 L699.91,643.98 L714.57,650.22 L702.47,644.27 L696.77,641.87 Z M617.48,738.99 L610.98,743.65 L616.22,740.67 L617.48,738.99 Z M619.60,736.16 L618.14,727.95 L617.27,728.30 L618.87,737.13 L619.60,736.16 Z M622.74,726.09 L620.32,727.07 L624.57,726.00 L622.74,726.09 Z M627.98,725.54 L630.65,726.38 L637.64,730.02 L628.09,724.75 L619.71,722.45 L627.98,725.54 Z M682.45,721.49 L683.64,722.03 L682.80,718.51 L682.45,721.49 Z M698.28,717.55 L689.90,716.69 L698.65,718.05 L698.28,717.55 Z M576.41,794.01 L582.54,789.55 L577.69,791.90 L576.41,794.01 Z M583.99,788.84 L591.31,787.87 L585.61,788.06 L583.99,788.84 Z M595.27,771.08 L599.34,762.54 L596.78,765.32 L595.27,771.08 Z M616.69,771.37 L619.25,776.07 L625.76,784.99 L616.69,771.37 Z M610.98,751.90 L619.94,751.61 L620.19,751.25 L610.98,751.90 Z M608.65,664.51 L609.24,658.18 L608.54,658.75 L608.65,664.51 Z M695.81,702.05 L695.40,702.80 L697.00,702.02 L695.81,702.05 Z M591.25,645.55 L586.90,652.55 L591.20,645.80 L591.25,645.55 Z M611.70,639.68 L648.46,642.35 L650.62,641.87 L642.64,641.78 L611.70,639.68 L611.70,639.68 Z M609.59,648.97 L614.36,655.49 L609.24,648.39 L607.84,650.02 L609.59,648.97 Z M646.84,626.50 L645.90,626.24 L636.82,626.04 L646.84,626.50 Z M657.70,633.12 L659.52,632.95 L660.40,631.92 L657.70,633.12 Z M791.05,188.63 L774.05,192.09 L786.97,189.59 L791.05,188.63 Z M746.00,189.59 L748.10,199.38 L748.44,195.73 L746.00,189.59 Z M699.51,211.50 L697.00,213.19 L707.12,211.94 L699.51,211.50 Z M726.45,261.05 L718.65,263.74 L729.36,260.29 L726.45,261.05 Z M713.18,267.58 L705.50,276.31 L718.65,263.74 L713.18,267.58 Z M705.03,282.83 L694.90,288.68 L702.82,285.13 L705.03,282.83 Z M690.72,307.80 L681.87,317.94 L690.01,309.59 L690.72,307.80 Z M728.65,380.76 L726.97,380.16 L728.42,380.99 L728.65,380.76 Z M734.13,386.62 L731.45,387.77 L744.14,384.99 L734.13,386.62 Z M691.30,478.80 L696.84,483.04 L694.79,480.53 L691.30,478.80 Z M699.23,485.98 L697.81,492.42 L699.79,486.67 L699.23,485.98 Z M713.06,522.83 L711.31,524.08 L716.55,522.93 L713.06,522.83 Z M658.47,340.06 L656.73,340.10 L655.45,342.40 L658.47,340.06 Z M664.06,342.97 L661.15,340.00 L659.89,340.03 L664.06,342.97 Z M608.51,489.93 L603.88,486.19 L606.56,488.97 L608.51,489.93 Z M615.87,493.57 L614.47,490.98 L620.88,490.22 L611.37,491.35 L615.87,493.57 Z M614.08,555.67 L614.01,558.90 L614.59,560.50 L614.08,555.67 Z M590.61,518.32 L590.63,518.38 L591.20,515.06 L590.61,518.32 Z M591.05,519.52 L591.31,520.24 L591.90,520.04 L591.05,519.52 Z M608.54,539.42 L610.75,545.56 L610.78,545.59 L608.54,539.42 Z M682.80,411.17 L701.07,405.71 L701.28,404.75 L682.80,411.17 Z M693.87,384.39 L693.74,388.06 L695.00,389.25 L693.87,384.39 Z M694.09,377.89 L693.99,380.65 L694.79,380.48 L695.33,377.44 L694.09,377.89 Z M717.09,374.52 L709.92,369.45 L714.92,373.28 L717.09,374.52 Z M791.49,587.11 L792.33,580.58 L790.93,583.45 L791.49,587.11 Z M779.41,675.83 L778.59,678.80 L781.42,673.84 L779.41,675.83 Z M787.18,668.16 L784.60,670.70 L787.67,668.44 L787.18,668.16 Z M839.93,642.06 L834.00,643.02 L838.65,643.21 L839.93,642.06 Z M861.91,613.98 L867.87,612.81 L881.48,606.95 L861.91,613.98 Z M898.01,610.79 L916.52,600.43 L926.76,593.72 L902.09,607.91 L898.01,610.79 Z M794.77,723.69 L763.81,724.17 L796.75,723.98 L794.75,723.27 L794.77,723.69 Z M795.74,731.31 L796.87,731.08 L797.45,726.19 L796.75,723.98 L795.74,731.31 Z M795.10,735.90 L796.40,734.53 L795.55,732.66 L795.10,735.90 Z M794.64,739.22 L795.70,738.66 L794.88,737.53 L794.64,739.22 Z M784.86,755.71 L787.44,754.29 L788.56,751.91 L784.86,755.71 Z M781.85,758.80 L777.78,768.59 L782.59,758.05 L781.85,758.80 Z M772.32,800.24 L773.12,799.76 L770.09,796.12 L772.32,800.24 Z M794.89,721.49 L794.62,721.03 L794.66,721.71 L794.89,721.49 Z M852.62,617.31 L847.85,610.31 L851.22,616.55 L852.62,617.31 Z M734.41,284.22 L733.26,282.22 L733.20,283.21 L734.41,284.22 Z M751.94,298.85 L746.47,293.00 L744.46,292.61 L751.94,298.85 Z M825.27,298.08 L824.80,291.75 L824.45,301.73 L825.27,298.08 Z M827.83,304.51 L832.13,315.35 L832.43,315.74 L831.78,313.52 L827.83,304.51 Z M870.66,303.45 L870.12,303.33 L871.47,305.56 L870.66,303.45 Z M876.94,291.37 L874.85,284.27 L876.25,293.38 L876.94,291.37 Z M763.46,348.34 L761.31,350.16 L785.81,334.44 L763.46,348.34 Z M788.30,336.96 L787.67,336.16 L786.56,334.00 L785.81,334.44 L788.30,336.96 Z M814.32,363.31 L809.20,363.69 L814.41,363.61 L814.32,363.31 Z M842.36,367.22 L840.48,366.55 L841.33,367.05 L842.36,367.22 Z M774.75,407.35 L775.68,407.43 L780.57,402.64 L774.75,407.35 Z M789.09,404.89 L790.11,405.42 L793.72,403.21 L789.09,404.89 Z M819.10,399.28 L808.16,399.28 L796.28,396.31 L807.22,399.57 L819.10,399.28 Z M756.36,530.41 L761.65,529.98 L750.31,528.78 L756.36,530.41 Z M869.96,322.54 L870.89,329.93 L871.71,331.08 L869.96,322.54 Z M841.79,333.09 L840.51,329.45 L841.21,338.66 L841.79,333.09 Z M834.58,324.75 L835.09,324.81 L833.76,320.27 L833.30,321.49 L834.58,324.75 Z M802.68,239.18 L801.38,237.70 L802.62,240.97 L802.68,239.18 Z M826.94,245.56 L825.73,252.04 L825.85,260.29 L826.94,245.56 Z M756.94,195.06 L757.99,205.03 L758.63,205.24 L756.94,195.06 Z" /></g></svg>