<svg xmlns="http://www.w3.org/2000/svg" viewBox="0 0 1000 1000" width="1000" height="1000"><g fill="#cccccc" stroke="#222" stroke-width="2"><path d="M208.26,835.20 L204.25,816.13 L205.54,807.00 L209.44,798.28 L212.09,793.41 L214.04,785.70 L215.28,777.18 L214.63,759.13 L213.92,751.31 L213.98,743.91 L213.74,722.61 L213.33,720.07 L209.91,709.22 L207.90,704.45 L203.89,698.06 L201.12,695.93 L196.93,694.41 L188.55,696.54 L178.29,694.31 L164.90,687.92 L148.61,675.84 L147.25,675.03 L145.49,674.12 L141.95,673.82 L138.05,679.60 L135.22,681.52 L130.03,681.93 L128.02,681.12 L123.42,673.31 L120.88,672.60 L118.58,660.22 L115.51,654.34 L111.92,652.21 L100.77,636.28 L98.88,635.47 L95.57,639.53 L91.38,636.08 L87.37,639.93 L82.30,638.01 L77.28,640.54 L75.04,644.91 L71.56,644.30 L69.91,642.27 L69.14,646.83 L67.08,644.60 L65.01,646.63 L64.01,646.02 L66.84,639.02 L65.01,637.50 L65.43,632.63 L62.53,634.46 L60.59,633.85 L57.46,636.08 L55.04,635.07 L54.33,631.82 L47.67,624.52 L40.65,622.79 L38.11,624.52 L34.69,626.14 L28.91,627.05 L28.55,622.79 L24.30,622.69 L23.54,617.11 L20.17,613.26 L22.00,608.89 L23.07,602.50 L26.07,597.33 L21.71,591.14 L19.23,584.14 L21.12,582.01 L21.12,579.68 L20.53,575.52 L22.12,574.10 L23.18,575.42 L23.42,573.70 L27.08,574.81 L27.08,573.29 L29.14,574.41 L30.32,572.28 L31.21,576.13 L32.62,576.64 L35.04,573.80 L39.05,573.19 L40.06,570.14 L39.23,569.33 L41.89,568.42 L43.30,564.97 L43.84,565.85 L44.78,565.17 L44.42,562.74 L45.60,562.84 L46.02,561.02 L44.07,558.07 L45.78,554.93 L45.54,546.31 L43.18,545.19 L45.31,530.48 L48.79,524.60 L47.43,517.80 L49.38,512.43 L49.08,510.60 L50.97,507.25 L53.33,506.04 L51.92,491.43 L55.51,489.40 L54.22,479.15 L55.40,476.72 L56.28,465.76 L62.06,468.71 L66.61,465.05 L72.03,467.18 L80.23,498.22 L83.01,499.64 L89.26,496.30 L92.80,499.04 L93.39,501.98 L102.30,498.22 L107.31,503.09 L108.79,506.95 L107.43,510.19 L107.55,512.73 L117.11,511.11 L119.29,515.17 L119.88,520.74 L125.84,518.72 L131.03,519.93 L134.45,519.32 L136.81,522.77 L137.99,516.79 L136.75,512.43 L138.29,510.19 L141.53,512.02 L145.07,517.30 L147.43,516.59 L156.34,520.95 L161.30,521.05 L162.54,524.40 L171.03,520.54 L174.16,523.89 L176.99,522.57 L178.23,524.50 L182.06,530.38 L185.96,529.16 L187.85,532.11 L192.68,529.87 L199.59,535.25 L203.95,534.84 L212.98,535.45 L216.52,556.25 L213.98,538.70 L229.14,542.15 L234.98,536.57 L239.05,537.58 L243.60,534.84 L251.98,538.29 L254.81,542.45 L249.79,533.63 L247.85,527.54 L248.20,512.43 L247.20,509.48 L247.79,506.95 L247.14,502.49 L256.22,504.72 L262.24,502.08 L265.72,502.49 L267.37,513.64 L269.32,515.47 L275.69,516.99 L280.59,507.46 L283.07,507.66 L286.78,511.92 L293.69,507.86 L300.83,506.34 L304.42,511.31 L307.20,517.90 L312.27,522.06 L313.33,518.92 L316.34,517.60 L318.17,511.01 L319.11,502.18 L323.83,500.46 L324.31,484.02 L328.08,480.17 L331.86,465.16 L334.04,465.87 L337.28,463.55 L336.11,460.19 L337.11,456.43 L336.70,450.45 L339.06,446.09 L339.47,438.17 L341.83,432.80 L340.71,424.17 L339.65,421.74 L337.99,421.84 L335.81,418.70 L334.98,414.64 L335.34,409.26 L333.92,405.31 L340.53,397.09 L349.85,393.74 L352.03,395.87 L354.10,393.34 L356.28,394.15 L359.41,390.19 L361.95,389.89 L365.66,381.87 L368.26,379.34 L369.97,373.96 L369.03,363.62 L374.75,360.57 L379.65,359.96 L380.77,353.07 L382.89,350.73 L385.13,342.82 L387.32,340.08 L396.58,342.11 L399.23,337.55 L399.00,335.01 L400.00,333.49 L404.25,331.36 L406.25,328.42 L407.37,314.21 L410.32,311.07 L412.45,312.79 L415.52,311.88 L425.01,318.78 L429.50,316.95 L434.69,318.68 L433.86,321.82 L436.87,323.75 L443.19,319.79 L450.38,324.66 L454.75,318.98 L458.17,316.75 L459.94,312.29 L463.42,312.49 L464.66,308.84 L467.73,310.36 L470.21,309.04 L473.69,301.23 L477.93,298.90 L484.60,307.52 L484.37,310.46 L489.09,314.32 L489.20,317.56 L490.80,318.88 L492.15,323.85 L497.88,320.61 L500.76,326.03 L499.12,321.72 L502.71,309.85 L502.65,303.46 L504.25,299.81 L503.95,295.75 L506.14,289.06 L506.37,287.03 L502.18,282.97 L502.77,280.13 L501.47,275.67 L502.01,270.19 L501.24,267.86 L499.71,264.21 L496.64,263.60 L496.40,257.61 L495.34,257.71 L492.86,252.95 L494.81,247.98 L495.04,243.51 L492.04,239.86 L492.74,236.72 L492.33,231.75 L490.80,227.48 L492.98,221.09 L491.56,213.69 L494.57,209.02 L495.52,204.05 L489.68,189.95 L489.62,183.46 L490.91,179.81 L488.14,171.79 L488.14,166.62 L486.67,164.09 L481.77,166.22 L481.06,160.03 L478.05,154.45 L474.69,154.65 L470.86,144.41 L472.45,140.86 L476.17,138.12 L478.11,133.05 L480.88,132.03 L483.48,134.06 L487.26,130.91 L494.87,137.31 L495.99,135.89 L496.76,127.67 L499.47,126.65 L503.42,120.87 L507.67,120.37 L511.15,122.70 L515.04,120.97 L517.82,116.21 L517.76,106.16 L521.36,103.22 L521.53,99.67 L524.54,91.56 L532.57,88.82 L535.22,94.90 L537.35,91.25 L540.30,90.75 L543.42,92.57 L544.84,97.44 L550.91,96.12 L554.69,90.24 L561.59,89.73 L563.89,84.66 L565.66,85.67 L563.19,91.56 L565.61,85.98 L575.93,89.22 L576.93,86.18 L580.89,81.31 L582.77,75.83 L585.02,74.41 L583.42,69.75 L583.60,67.11 L590.86,61.73 L591.39,57.17 L596.46,51.49 L595.93,45.10 L602.18,38.20 L604.25,34.24 L606.61,33.43 L608.08,33.64 L610.03,29.78 L612.57,29.37 L625.31,19.23 L631.62,21.16 L634.63,26.13 L633.86,29.78 L635.63,35.26 L635.34,38.91 L636.70,40.33 L635.81,44.79 L636.34,52.81 L635.63,53.42 L636.40,56.97 L637.88,57.98 L638.29,60.31 L640.94,59.30 L640.83,61.84 L644.01,69.85 L641.59,75.43 L641.53,79.59 L635.40,86.08 L639.00,86.08 L644.84,90.04 L648.85,87.50 L654.40,91.66 L656.46,91.46 L660.41,95.72 L663.30,94.80 L664.60,91.66 L667.02,90.44 L668.02,93.48 L670.68,95.41 L670.61,95.52 L671.86,94.40 L679.71,71.67 L685.55,72.69 L688.73,67.72 L693.39,67.72 L695.46,73.80 L698.23,78.07 L705.90,81.11 L711.15,76.44 L734.57,77.15 L740.00,74.21 L742.60,70.46 L745.02,70.76 L748.79,74.92 L755.69,73.70 L757.52,69.85 L760.18,68.02 L764.66,68.12 L772.45,63.05 L775.69,55.55 L781.83,53.42 L787.43,45.20 L791.98,43.07 L793.98,41.14 L796.34,42.76 L800.00,41.85 L805.25,38.91 L805.31,36.68 L806.55,35.77 L809.79,35.97 L810.80,34.45 L810.62,30.79 L811.98,28.56 L822.66,29.88 L824.31,28.97 L825.13,25.32 L827.97,26.74 L831.27,25.52 L834.63,30.29 L838.00,30.69 L840.30,34.24 L841.83,40.23 L845.49,41.24 L846.13,42.74 L848.50,41.75 L849.26,34.65 L853.34,33.23 L855.93,29.98 L857.76,34.45 L861.77,34.45 L864.25,36.68 L864.13,41.95 L868.14,44.18 L868.38,53.42 L874.10,58.59 L872.45,64.17 L875.75,68.63 L874.75,71.17 L871.15,72.49 L870.92,75.33 L872.39,78.27 L876.46,78.47 L877.05,82.43 L875.34,85.98 L880.18,90.54 L880.65,96.93 L882.48,98.25 L883.01,94.19 L884.19,93.69 L890.21,98.86 L894.16,95.61 L895.81,95.82 L895.05,99.57 L897.94,104.44 L898.47,107.89 L906.08,115.09 L906.26,121.48 L912.04,146.74 L914.52,149.17 L917.52,147.86 L919.65,149.48 L921.06,149.48 L923.13,145.12 L925.72,145.72 L927.32,142.38 L927.67,140.86 L931.68,141.77 L935.05,139.23 L943.13,136.90 L946.55,139.03 L954.57,137.00 L959.88,138.12 L961.30,139.13 L961.77,145.22 L967.49,151.30 L969.15,158.20 L967.79,161.45 L966.37,161.25 L963.95,159.01 L962.78,154.75 L960.24,153.54 L958.94,157.09 L962.36,164.19 L958.94,168.04 L956.93,168.35 L958.82,169.06 L962.66,166.42 L963.78,169.06 L955.93,172.10 L956.11,176.97 L960.36,176.66 L961.60,183.26 L960.00,183.36 L957.76,179.91 L955.34,178.39 L957.58,180.72 L958.94,184.58 L961.01,185.89 L959.18,187.72 L956.17,186.40 L957.17,189.04 L955.81,191.98 L956.23,198.78 L957.23,199.89 L964.37,193.81 L978.23,192.18 L980.77,194.01 L979.53,197.66 L975.40,201.52 L961.95,204.97 L947.32,215.01 L936.52,228.80 L929.80,242.09 L927.02,251.02 L925.55,251.73 L923.31,253.35 L924.72,250.71 L923.95,250.61 L922.13,253.96 L920.41,252.84 L919.77,254.87 L919.94,248.58 L921.12,246.66 L921.06,241.79 L920.83,240.67 L919.29,241.48 L913.34,245.44 L911.98,250.61 L911.74,261.67 L915.22,269.48 L914.28,269.78 L914.75,273.74 L917.35,276.89 L916.11,279.02 L913.75,276.38 L911.74,283.07 L912.10,285.61 L913.63,285.81 L908.97,287.03 L908.14,284.59 L907.85,286.42 L906.08,283.78 L906.79,287.13 L904.13,287.33 L904.07,286.12 L903.95,287.33 L901.00,287.64 L900.06,283.88 L901.12,280.54 L899.41,283.99 L900.36,287.84 L895.64,286.22 L897.11,284.39 L895.40,286.22 L893.81,284.59 L891.27,278.51 L891.98,277.80 L891.15,278.20 L890.33,275.87 L888.91,275.67 L888.73,276.89 L888.50,275.67 L889.74,274.25 L888.97,271.41 L889.85,267.86 L888.79,269.89 L887.32,266.23 L889.74,262.58 L886.49,265.32 L883.19,260.86 L883.66,253.05 L882.72,260.96 L877.70,255.89 L879.35,245.44 L877.11,252.54 L871.74,249.90 L872.39,244.32 L875.34,245.13 L872.16,242.90 L873.75,237.83 L874.93,237.73 L873.87,237.32 L874.69,231.44 L875.93,229.82 L875.75,229.21 L876.11,228.90 L875.87,229.21 L876.17,230.12 L877.35,232.15 L876.05,229.61 L876.46,228.09 L880.47,227.59 L876.46,227.38 L877.41,224.24 L873.75,224.64 L855.93,226.77 L851.15,227.28 L848.91,237.22 L846.79,239.96 L841.65,253.45 L841.59,248.08 L843.60,241.08 L843.90,235.70 L841.54,236.21 L837.76,229.21 L837.58,217.24 L836.17,217.14 L826.31,215.21 L817.46,214.40 L813.75,216.12 L814.75,217.75 L812.21,224.75 L813.04,226.98 L810.09,228.60 L811.03,231.34 L809.03,231.95 L809.26,229.61 L808.85,232.05 L807.38,232.56 L807.44,234.38 L807.14,232.76 L801.71,240.06 L800.41,238.85 L801.95,245.24 L801.00,245.44 L799.53,247.67 L800.65,248.79 L799.59,249.19 L800.00,251.93 L799.35,251.02 L799.06,253.86 L795.16,257.71 L797.17,256.50 L797.82,264.41 L798.70,262.89 L798.23,261.26 L799.47,262.48 L798.00,267.96 L797.17,266.44 L796.34,268.47 L797.70,270.39 L795.58,273.84 L795.93,276.68 L793.81,276.28 L793.92,278.20 L794.81,277.80 L794.34,279.52 L795.58,283.58 L792.57,284.29 L793.28,286.42 L791.03,287.54 L788.61,286.22 L787.43,287.23 L787.49,288.86 L786.02,287.64 L784.90,290.48 L782.30,289.97 L774.28,293.42 L771.98,298.39 L768.73,300.93 L760.71,298.49 L758.23,301.74 L755.93,300.22 L754.69,301.43 L755.69,305.19 L754.40,307.01 L752.80,306.61 L752.15,303.87 L750.56,305.39 L748.73,307.22 L747.67,311.07 L746.08,308.53 L747.02,311.58 L745.72,313.20 L742.95,312.49 L742.30,309.04 L742.60,312.29 L745.37,314.82 L745.02,317.46 L741.30,320.91 L739.18,319.90 L740.36,316.95 L739.71,315.43 L739.94,317.97 L738.41,319.29 L736.46,317.26 L734.28,319.79 L732.33,322.13 L733.87,334.20 L726.67,332.07 L725.43,333.69 L726.84,332.27 L731.68,333.89 L732.69,338.86 L730.97,338.56 L728.32,340.59 L731.27,339.07 L732.33,340.69 L730.92,341.81 L729.97,346.47 L728.50,346.57 L729.15,348.70 L725.37,351.75 L726.43,351.95 L725.37,354.89 L723.89,354.89 L723.72,357.02 L722.18,358.24 L721.53,365.14 L719.35,368.69 L717.88,371.12 L716.70,377.21 L714.40,378.73 L712.51,377.41 L712.92,379.95 L715.93,383.09 L713.98,385.53 L712.92,384.21 L713.10,387.56 L709.56,393.34 L708.20,393.03 L708.32,396.48 L707.38,398.10 L703.72,399.52 L700.53,397.60 L698.05,396.38 L695.64,401.86 L692.80,400.23 L693.57,396.38 L692.63,399.83 L692.92,401.05 L691.51,399.52 L692.10,399.32 L692.27,397.19 L691.45,399.42 L690.09,397.19 L687.43,397.50 L686.49,397.70 L686.37,401.15 L685.31,397.90 L683.66,397.70 L683.78,395.47 L682.83,393.74 L683.13,394.96 L682.01,394.86 L683.42,395.67 L683.48,397.39 L682.83,397.19 L683.54,398.41 L685.43,398.71 L685.90,403.08 L683.48,402.16 L680.00,396.28 L677.35,395.97 L674.69,395.77 L673.04,399.02 L670.50,399.22 L666.55,399.22 L664.19,396.79 L656.70,396.89 L652.92,394.15 L646.31,396.28 L645.43,396.89 L645.43,415.15 L645.43,444.16 L648.61,449.94 L648.08,450.75 L650.27,452.27 L649.74,453.90 L650.38,455.11 L652.63,454.61 L653.81,456.74 L652.39,458.66 L651.39,457.55 L651.80,459.78 L650.56,461.71 L653.81,458.36 L655.87,458.66 L655.99,463.33 L652.33,464.75 L655.22,465.97 L653.81,469.21 L655.58,467.18 L656.11,469.11 L655.63,464.55 L658.76,463.33 L661.06,466.88 L661.06,468.50 L659.35,467.79 L660.47,468.81 L660.53,470.84 L663.07,473.47 L663.48,477.02 L664.60,477.53 L661.42,479.15 L662.95,479.76 L662.60,482.30 L664.43,479.66 L664.54,484.43 L666.20,485.04 L664.72,486.26 L665.31,489.10 L663.84,489.81 L660.18,486.05 L660.83,484.53 L658.94,485.24 L656.05,483.11 L653.92,482.60 L658.35,486.26 L657.44,488.05 L659.76,487.07 L663.19,490.01 L663.36,491.63 L662.54,492.24 L663.42,493.15 L663.89,491.12 L664.72,493.25 L665.02,491.94 L667.26,493.86 L666.96,497.21 L665.37,496.30 L666.73,497.82 L666.43,499.04 L665.31,499.04 L666.55,500.05 L668.97,495.99 L670.33,498.53 L669.62,501.07 L669.68,502.69 L671.15,501.47 L670.80,497.21 L673.04,498.33 L670.33,493.46 L673.51,492.85 L673.98,496.40 L676.40,497.82 L674.81,502.49 L675.52,500.76 L677.94,500.96 L679.06,498.22 L678.11,499.04 L674.40,495.18 L676.34,493.25 L675.58,492.14 L676.64,491.53 L676.58,489.81 L677.99,492.34 L678.17,490.31 L679.12,491.73 L680.65,489.81 L682.54,491.73 L681.42,488.28 L684.07,486.86 L686.08,487.78 L685.96,490.41 L683.07,493.46 L685.31,492.54 L687.97,489.60 L687.79,485.75 L690.62,484.23 L694.87,484.53 L695.75,480.78 L696.58,481.59 L698.59,477.33 L700.53,476.01 L702.07,471.14 L705.07,471.85 L705.19,475.60 L706.20,471.85 L708.14,470.94 L710.97,472.05 L710.21,476.21 L709.15,476.21 L709.62,479.56 L707.61,486.56 L705.61,487.17 L702.07,491.02 L703.30,491.53 L700.24,499.75 L700.18,502.38 L696.46,505.02 L694.87,512.12 L692.63,508.88 L693.39,514.15 L689.03,515.06 L688.08,518.41 L687.20,517.70 L688.56,520.14 L686.90,523.38 L685.72,522.06 L684.13,527.34 L682.77,527.24 L681.89,525.00 L680.89,526.83 L681.95,526.02 L683.19,528.56 L683.07,530.99 L681.30,533.12 L680.83,531.90 L680.89,533.63 L680.12,532.82 L679.17,533.73 L679.76,535.25 L677.29,537.18 L676.40,537.48 L675.34,535.05 L675.75,537.58 L674.99,538.39 L675.87,539.61 L674.87,539.71 L674.16,542.15 L673.28,540.42 L673.16,542.96 L671.86,542.76 L671.74,545.29 L670.92,544.68 L669.38,548.13 L670.68,549.15 L669.03,548.34 L666.20,552.19 L664.66,551.58 L665.31,553.41 L664.43,555.13 L658.76,560.61 L655.63,561.73 L655.75,563.04 L654.51,562.74 L652.15,567.51 L642.83,570.45 L649.44,569.33 L639.23,580.29 L636.28,584.24 L636.34,586.27 L632.63,588.81 L630.03,593.17 L629.97,592.56 L629.50,592.16 L629.15,594.59 L630.44,593.68 L629.74,597.84 L627.67,597.23 L627.91,593.58 L626.84,594.29 L628.32,602.91 L627.02,603.21 L626.73,605.34 L625.25,602.71 L625.90,604.53 L622.83,609.30 L622.71,606.97 L622.01,604.84 L621.48,604.94 L622.60,607.78 L621.36,607.07 L623.07,610.52 L622.95,611.13 L621.48,608.39 L619.23,611.63 L619.17,613.05 L616.99,614.17 L619.94,607.98 L617.88,604.63 L615.10,607.27 L613.98,609.50 L614.51,610.72 L612.57,612.34 L611.39,616.30 L609.62,614.27 L610.38,617.52 L609.03,615.18 L609.26,617.01 L608.14,617.72 L607.61,616.20 L608.02,617.72 L606.73,619.34 L605.90,618.53 L607.79,621.37 L608.08,620.46 L609.68,620.97 L609.50,621.88 L608.44,622.59 L609.03,621.07 L607.85,622.59 L606.90,620.56 L606.37,622.59 L605.31,621.98 L605.49,624.52 L604.43,622.89 L603.30,624.01 L605.49,621.27 L605.19,619.65 L602.48,623.40 L601.06,625.73 L602.89,628.98 L604.78,627.56 L604.19,632.73 L602.30,634.25 L602.42,632.73 L600.83,630.60 L601.95,632.43 L601.83,634.46 L600.41,634.46 L600.24,630.91 L599.12,632.94 L598.23,634.46 L597.05,633.44 L593.45,641.15 L586.90,644.20 L587.20,647.64 L586.14,643.79 L580.71,646.63 L578.17,651.09 L576.34,651.90 L571.09,664.08 L569.85,666.71 L569.91,669.35 L569.26,668.84 L565.96,676.05 L567.61,678.38 L564.78,684.67 L563.36,684.97 L560.53,692.07 L555.22,697.96 L552.92,698.77 L553.75,697.35 L553.22,694.31 L552.63,698.16 L551.03,699.28 L550.97,697.86 L549.79,694.41 L549.38,694.31 L550.38,697.96 L549.44,699.78 L548.36,697.84 L548.50,701.20 L545.31,702.12 L543.66,707.09 L542.18,706.88 L536.40,701.51 L536.64,704.65 L534.40,699.78 L531.86,699.18 L529.97,701.61 L531.21,698.57 L530.91,696.54 L528.85,702.83 L529.68,697.25 L528.50,702.62 L522.95,701.31 L523.13,699.18 L524.31,698.67 L522.42,687.31 L521.36,684.87 L523.13,693.19 L521.83,693.70 L521.53,697.55 L517.64,697.04 L517.76,694.91 L515.46,695.83 L514.81,696.44 L513.63,695.12 L512.57,695.32 L511.15,691.87 L511.45,693.80 L510.38,692.38 L507.22,692.76 L507.20,696.94 L503.48,697.35 L502.95,695.73 L497.35,695.83 L497.76,701.00 L496.46,701.51 L495.58,696.23 L495.87,700.09 L491.39,700.70 L492.57,703.44 L492.04,708.10 L488.02,702.02 L488.85,706.17 L489.03,705.16 L490.21,707.19 L489.03,710.54 L487.96,709.22 L487.73,711.25 L487.32,710.03 L487.37,712.97 L487.20,707.39 L486.61,705.77 L487.02,712.77 L484.84,717.94 L482.71,718.96 L481.47,712.77 L480.88,712.36 L481.53,718.75 L478.52,720.07 L478.23,722.51 L476.22,721.59 L475.69,726.56 L470.32,730.82 L469.44,730.01 L469.91,731.84 L468.67,730.72 L467.55,732.04 L466.78,736.10 L468.85,732.45 L469.62,735.19 L466.25,744.21 L469.38,747.66 L470.09,753.75 L468.02,756.18 L468.50,757.81 L467.73,759.63 L456.70,759.63 L447.96,762.37 L447.36,757.88 L446.67,765.62 L442.77,766.73 L442.71,769.17 L441.30,770.49 L442.01,765.21 L441.24,763.59 L440.53,762.37 L437.82,764.40 L439.35,756.18 L438.76,754.87 L436.05,754.87 L436.22,752.43 L432.86,751.62 L432.21,755.17 L430.32,756.18 L429.38,756.59 L428.91,754.36 L430.44,749.18 L425.78,757.81 L415.75,755.58 L408.20,745.53 L400.24,743.91 L398.58,745.33 L397.58,748.88 L396.05,748.88 L394.69,748.37 L390.09,738.84 L387.49,737.52 L385.01,736.30 L381.59,738.03 L374.93,745.03 L368.73,747.97 L361.53,746.14 L361.30,743.00 L363.89,743.71 L361.95,741.48 L360.35,741.27 L360.24,743.10 L358.64,741.68 L355.75,741.98 L354.75,740.05 L352.09,739.65 L348.79,741.48 L347.49,739.04 L345.31,741.68 L342.83,737.32 L340.83,738.23 L339.65,739.65 L342.54,750.91 L339.35,739.85 L332.74,742.90 L327.67,743.30 L327.02,745.84 L325.96,750.40 L323.01,751.92 L321.30,755.68 L315.46,760.34 L315.16,769.17 L314.57,778.60 L315.22,779.82 L318.64,780.93 L318.58,779.62 L319.17,780.33 L319.88,777.89 L320.47,778.30 L318.35,782.25 L318.82,784.59 L318.05,784.79 L320.65,788.04 L314.04,785.60 L308.79,786.92 L303.07,784.18 L301.53,786.51 L299.00,785.80 L296.70,787.73 L295.75,784.49 L294.34,785.09 L294.93,786.01 L293.63,788.85 L290.03,792.19 L286.49,791.28 L280.82,794.12 L281.53,795.85 L280.06,801.93 L277.34,803.86 L276.87,808.02 L275.63,808.83 L273.92,815.93 L273.98,822.22 L270.97,826.08 L270.91,832.36 L270.85,840.89 L273.04,854.17 L275.57,861.98 L251.68,884.10 L246.67,872.64 L242.00,866.85 L237.05,864.72 L225.49,863.81 L220.82,859.85 L213.80,849.41 L210.50,842.41 L208.26,835.20 Z M219.17,717.74 L220.60,716.80 L213.33,720.07 L219.17,717.74 Z M516.99,680.31 L516.05,680.00 L521.36,684.87 L516.99,680.31 Z M517.17,675.13 L516.51,673.19 L516.99,680.31 L517.17,675.13 Z M397.64,738.33 L395.46,738.94 L394.34,739.04 L397.46,739.34 L396.05,748.88 L397.64,738.33 Z M611.15,177.88 L612.41,180.05 L609.30,172.43 L611.15,177.88 Z M599.58,218.02 L599.59,218.15 L604.01,224.34 L599.58,218.02 Z M577.41,249.27 L581.65,252.03 L578.70,249.60 L577.41,249.27 Z M598.11,261.67 L598.82,252.64 L598.35,257.31 L598.11,261.67 Z M599.45,284.56 L599.71,283.38 L598.58,280.84 L599.45,284.56 Z M600.24,287.94 L603.07,289.97 L599.93,286.62 L600.24,287.94 Z M605.57,295.49 L613.92,296.67 L605.51,295.36 L605.57,295.49 Z M602.24,342.62 L606.08,337.95 L604.48,339.47 L602.24,342.62 Z M584.96,373.66 L582.54,377.21 L586.25,372.03 L588.02,366.96 L584.96,373.66 Z M550.97,219.98 L549.73,217.44 L551.05,221.75 L550.97,219.98 Z M551.15,223.83 L551.13,223.32 L546.73,227.38 L551.15,223.83 Z M545.43,241.99 L545.31,233.37 L545.19,239.25 L545.43,241.99 Z M553.10,267.65 L552.51,262.79 L553.10,270.29 L553.10,267.65 Z M549.50,287.13 L548.38,286.42 L549.58,287.82 L549.50,287.13 Z M537.32,327.11 L539.51,324.59 L538.76,324.97 L537.32,327.11 Z M526.42,368.08 L526.47,369.13 L528.14,365.95 L526.84,368.28 L526.42,368.08 Z M524.54,367.98 L525.43,367.63 L521.12,365.64 L524.54,367.98 Z M523.60,441.42 L522.73,439.02 L523.42,443.45 L523.60,441.42 Z M538.88,506.14 L538.71,505.71 L538.76,509.28 L538.88,506.14 Z M534.99,514.05 L535.87,513.03 L538.76,509.28 L534.99,514.05 Z M490.97,549.15 L487.79,549.15 L492.33,550.41 L490.97,549.15 Z M495.63,572.07 L493.14,563.77 L493.04,565.38 L495.63,572.07 Z M508.02,592.16 L509.44,586.38 L507.26,593.15 L508.02,592.16 Z M508.14,596.01 L506.85,594.45 L506.85,594.45 L508.14,596.01 Z M525.60,649.06 L517.23,651.70 L524.54,649.77 L525.60,649.06 Z M398.29,405.10 L397.99,412.61 L398.21,412.65 L398.29,405.10 Z M392.77,416.47 L388.73,414.84 L392.15,417.18 L392.77,416.47 Z M419.29,558.28 L422.36,554.73 L427.08,546.61 L419.29,558.28 Z M429.53,545.39 L429.32,545.29 L427.08,546.61 L429.53,545.39 Z M410.15,593.88 L409.41,593.46 L412.45,597.43 L410.15,593.88 Z M386.79,617.18 L386.49,617.01 L384.13,620.26 L386.79,617.18 Z M383.70,623.67 L382.98,625.13 L383.54,624.92 L383.70,623.67 Z M380.35,645.01 L376.11,645.82 L384.78,645.41 L380.35,645.01 Z M386.73,717.13 L385.01,719.26 L402.36,699.07 L386.73,717.13 Z M382.68,717.92 L391.86,727.88 L385.01,719.26 L382.68,717.92 Z M404.37,735.90 L402.04,735.29 L403.42,735.69 L405.55,738.54 L404.37,735.90 Z M232.09,676.86 L240.41,681.93 L233.10,676.66 L229.38,673.21 L232.09,676.86 Z M274.22,668.74 L274.59,668.99 L269.56,659.31 L274.22,668.74 Z M276.16,670.06 L278.47,668.13 L275.42,669.56 L276.16,670.06 Z M291.16,658.83 L291.44,658.19 L290.93,657.47 L291.16,658.83 Z M329.73,669.96 L329.84,669.39 L329.47,670.52 L329.73,669.96 Z M330.35,666.60 L330.91,663.47 L334.39,657.99 L330.26,664.18 L330.35,666.60 Z M354.81,692.07 L347.67,676.45 L349.91,682.03 L354.81,692.07 Z M360.83,641.96 L355.69,637.91 L356.46,639.63 L360.83,641.96 Z M229.14,751.92 L229.03,753.65 L230.44,750.60 L229.14,751.92 Z M235.04,750.20 L230.85,746.04 L233.75,749.59 L233.22,750.36 L235.04,750.20 Z M247.01,753.38 L246.78,753.44 L246.02,756.18 L247.01,753.38 Z M268.97,768.66 L263.30,770.59 L274.63,768.15 L268.97,768.66 Z M286.15,778.53 L282.54,781.95 L286.15,778.53 L286.15,778.53 Z M287.26,780.73 L286.83,779.88 L287.14,782.35 L287.26,780.73 Z M236.64,786.72 L238.17,787.02 L236.39,786.24 L236.28,797.27 L236.64,786.72 Z M237.52,821.10 L230.26,815.42 L238.17,821.92 L234.39,800.51 L237.52,821.10 Z M245.42,798.37 L245.37,799.60 L249.26,808.63 L255.45,820.93 L245.42,798.37 Z M246.99,792.74 L246.96,792.70 L245.60,793.61 L246.99,792.74 Z M256.28,804.16 L257.93,798.89 L256.18,803.25 L256.28,804.16 Z M256.16,822.53 L257.71,828.17 L257.75,827.72 L256.52,823.34 L256.16,822.53 Z M247.90,863.40 L250.91,854.07 L250.84,852.56 L247.90,863.40 Z M250.76,850.95 L250.68,849.41 L249.67,847.48 L250.76,850.95 Z M234.45,769.17 L234.83,777.63 L234.98,777.69 L234.45,769.17 Z M233.63,760.34 L237.64,764.30 L241.12,768.66 L235.99,761.76 L233.63,760.34 Z M245.54,728.49 L246.08,729.20 L245.01,725.85 L245.54,728.49 Z M257.99,720.78 L257.92,720.30 L257.87,725.24 L257.87,727.48 L257.99,720.78 Z M263.07,734.37 L262.77,731.33 L259.41,726.46 L261.65,729.71 L263.07,734.37 Z M285.49,727.17 L286.61,729.10 L284.93,723.20 L285.49,727.17 Z M323.83,722.81 L323.71,729.80 L324.19,728.90 L323.83,722.81 Z M323.69,731.52 L323.67,732.36 L323.89,731.74 L323.69,731.52 Z M249.14,752.13 L250.15,747.76 L248.48,752.27 L249.14,752.13 Z M300.25,729.03 L299.41,728.39 L292.57,727.78 L300.25,729.03 Z M304.01,733.72 L303.13,731.23 L301.99,730.37 L304.01,733.72 Z M319.59,787.53 L319.53,787.33 L319.47,787.53 L319.59,787.53 Z M354.39,721.70 L357.29,722.30 L354.45,721.69 L354.39,721.70 Z M359.53,720.88 L364.31,717.54 L357.29,722.30 L359.53,720.88 Z M354.51,718.25 L353.80,716.63 L354.45,721.69 L354.51,718.25 Z M371.21,703.94 L374.75,709.32 L380.03,715.05 L371.21,703.94 Z M398.23,727.58 L401.00,734.98 L401.65,735.17 L398.23,727.58 Z M224.90,713.99 L230.15,704.35 L232.98,693.80 L228.97,706.28 L224.06,714.53 L224.90,713.99 Z M250.91,705.06 L251.49,704.92 L245.96,700.49 L250.91,705.06 Z M257.37,716.88 L257.17,715.61 L254.81,711.14 L257.37,716.88 Z M157.93,668.74 L156.05,668.13 L153.57,669.05 L157.93,668.74 Z M177.30,657.33 L176.40,657.69 L174.22,661.85 L177.30,657.33 Z M181.47,660.22 L179.23,656.57 L178.73,656.77 L181.47,660.22 Z M193.04,661.24 L190.68,661.34 L188.55,662.96 L193.04,661.24 Z M213.80,671.79 L214.04,663.37 L213.49,661.69 L213.80,671.79 Z M211.62,674.83 L211.80,675.13 L211.76,674.63 L211.62,674.83 Z M212.49,696.56 L214.39,694.51 L214.56,693.00 L212.49,696.56 Z M133.80,653.63 L132.56,653.73 L132.14,654.28 L133.80,653.63 Z M133.98,655.45 L134.52,655.30 L133.80,653.63 L133.98,655.45 Z M126.90,656.88 L126.84,651.09 L126.72,654.34 L126.90,656.88 Z M52.51,590.43 L49.91,588.10 L48.61,588.71 L50.32,588.91 L52.51,590.43 Z M60.47,599.66 L58.88,600.58 L58.86,600.39 L58.17,602.81 L60.47,599.66 Z M60.62,601.56 L60.94,601.29 L60.47,599.66 L60.62,601.56 Z M77.93,576.54 L76.40,574.91 L77.77,576.79 L77.93,576.54 Z M79.00,601.39 L77.52,601.59 L75.75,602.91 L79.00,601.39 Z M90.38,595.10 L90.25,595.98 L91.56,594.69 L90.38,595.10 Z M99.59,611.13 L98.94,608.59 L98.52,608.33 L99.59,611.13 Z M104.95,615.59 L104.01,614.58 L99.59,611.13 L104.95,615.59 Z M102.91,621.94 L104.13,620.26 L104.95,615.59 L102.91,621.94 Z M110.85,601.08 L108.61,603.01 L116.22,599.36 L110.85,601.08 Z M136.93,603.21 L130.86,602.69 L134.04,603.42 L136.93,603.21 Z M171.21,601.19 L163.07,601.39 L168.14,602.10 L171.21,601.19 Z M182.42,611.53 L184.19,607.98 L184.84,600.58 L184.13,607.17 L182.42,611.53 Z M207.42,615.14 L203.30,615.08 L205.19,615.89 L207.42,615.14 Z M228.68,618.15 L227.94,618.21 L228.44,618.33 L228.68,618.15 Z M258.28,566.66 L256.11,574.51 L258.24,567.65 L258.28,566.66 Z M297.82,562.94 L295.75,561.22 L300.71,568.12 L297.82,562.94 Z M257.52,645.41 L258.52,651.80 L257.58,642.88 L256.87,648.66 L257.52,645.41 Z M213.15,655.66 L212.43,655.49 L213.01,656.45 L213.15,655.66 Z M224.68,655.37 L222.77,656.27 L224.68,655.37 L224.68,655.37 Z M227.02,652.41 L226.63,653.18 L232.98,653.73 L227.02,652.41 Z M198.64,615.49 L198.26,611.49 L198.05,612.24 L198.64,615.49 Z M293.75,645.01 L296.87,632.63 L294.22,641.66 L293.75,645.01 Z M312.27,611.53 L320.13,601.79 L319.11,602.61 L312.27,611.53 Z M335.28,649.47 L336.87,647.24 L337.82,644.20 L335.28,649.47 Z M339.52,640.02 L345.25,637.30 L340.18,639.43 L339.52,640.02 Z M59.05,602.50 L58.97,602.99 L59.49,602.53 L59.05,602.50 Z M58.35,606.36 L58.83,606.28 L58.68,604.53 L58.35,606.36 Z M64.48,612.14 L65.84,608.18 L63.60,613.26 L64.48,612.14 Z M80.35,620.18 L79.88,619.85 L79.52,620.26 L80.35,620.18 Z M83.83,624.92 L83.07,622.08 L82.27,621.52 L83.83,624.92 Z M82.75,626.78 L83.07,627.25 L83.83,624.92 L82.75,626.78 Z M102.30,625.53 L102.34,623.70 L101.40,626.60 L102.30,625.53 Z M64.00,604.84 L61.18,604.03 L62.77,605.45 L64.00,604.84 Z M88.43,582.11 L86.84,579.58 L85.72,579.38 L88.43,582.11 Z M66.25,567.71 L65.60,563.35 L65.20,562.95 L66.25,567.71 Z M58.30,597.51 L58.27,596.99 L57.87,597.74 L58.30,597.51 Z M316.99,536.57 L319.06,545.80 L318.81,538.91 L318.29,539.92 L316.99,536.57 Z M410.21,721.59 L413.98,726.16 L405.96,715.51 L410.21,721.59 Z M427.20,708.20 L425.66,704.65 L425.39,704.49 L427.20,708.20 Z M431.33,703.54 L430.91,705.06 L431.33,706.88 L432.04,698.57 L431.33,703.54 Z M454.52,701.21 L455.04,699.28 L455.16,695.52 L454.52,701.21 Z M464.88,747.49 L464.01,746.45 L462.89,746.65 L464.88,747.49 Z M411.67,731.75 L410.68,736.00 L411.39,734.37 L411.67,731.75 Z M415.87,737.92 L416.52,742.49 L415.87,736.20 L415.63,737.96 L415.87,737.92 Z M429.30,739.70 L429.32,738.33 L428.38,737.01 L429.30,739.70 Z M447.46,756.81 L450.09,753.14 L447.55,755.78 L447.46,756.81 Z M411.80,728.02 L411.91,729.48 L412.03,728.29 L411.80,728.02 Z M423.48,716.22 L424.15,717.25 L424.54,716.83 L423.48,716.22 Z M464.60,474.29 L463.46,473.63 L470.80,484.63 L464.60,474.29 Z M492.91,419.36 L491.46,419.71 L492.33,420.22 L492.91,419.36 Z M461.54,662.50 L462.01,662.00 L461.59,662.25 L461.54,662.50 Z M467.16,658.88 L471.15,657.59 L467.79,658.50 L467.16,658.88 Z M500.94,669.05 L503.19,668.95 L506.14,667.83 L500.94,669.05 Z M452.98,671.18 L452.84,672.45 L455.22,666.31 L452.98,671.18 Z M493.39,680.92 L493.57,688.93 L493.81,674.73 L493.39,680.92 Z M452.39,676.53 L452.33,677.06 L452.39,681.42 L452.39,676.53 Z M504.42,597.03 L506.31,596.11 L503.25,596.94 L504.42,597.03 Z M511.50,658.30 L514.75,669.55 L515.98,671.59 L511.50,658.30 Z M507.40,685.28 L507.26,685.38 L507.24,688.46 L507.40,685.28 Z M421.50,598.94 L421.06,598.24 L416.40,596.21 L421.50,598.94 Z M423.48,603.25 L423.48,602.10 L422.95,601.26 L423.48,603.25 Z M452.84,546.12 L456.46,534.54 L452.80,545.70 L452.84,546.12 Z M455.10,549.35 L452.93,547.13 L452.98,547.63 L455.10,549.35 Z M433.55,547.33 L437.40,549.86 L440.29,550.57 L433.55,547.33 Z M547.37,294.94 L542.71,293.72 L545.49,295.14 L547.37,294.94 Z M535.21,374.52 L536.28,376.50 L537.29,376.19 L535.21,374.52 Z M562.83,470.02 L560.77,470.94 L568.97,467.79 L562.83,470.02 Z M549.09,509.79 L547.36,515.62 L548.14,514.76 L549.09,509.79 Z M546.79,516.25 L546.23,516.04 L546.49,516.59 L546.79,516.25 Z M541.70,533.50 L538.58,548.84 L541.89,534.64 L541.70,533.50 Z M538.79,554.34 L534.40,564.97 L538.82,555.13 L538.79,554.34 Z M528.85,642.88 L526.37,645.11 L530.15,644.91 L528.14,644.30 L528.85,642.88 Z M536.40,648.15 L539.87,646.76 L539.12,646.02 L536.40,648.15 Z M544.66,651.90 L546.19,652.31 L548.02,652.11 L544.66,651.90 Z M553.54,649.10 L549.32,657.48 L553.63,650.08 L553.54,649.10 Z M556.76,667.53 L560.77,674.42 L559.29,670.87 L556.76,667.53 Z M558.30,606.42 L561.59,605.24 L559.41,605.04 L558.30,606.42 Z M557.05,606.87 L557.57,606.68 L556.40,602.30 L557.05,606.87 Z M585.55,167.84 L587.08,165.00 L587.91,162.77 L585.55,167.84 Z M575.96,248.91 L572.63,248.08 L569.26,249.09 L575.96,248.91 Z M573.33,459.07 L577.01,441.38 L575.87,444.06 L573.33,459.07 Z M653.16,178.59 L651.11,177.49 L652.74,178.90 L653.16,178.59 Z M630.92,261.57 L630.74,259.03 L630.74,264.10 L630.92,261.57 Z M630.44,280.33 L630.12,279.78 L629.95,280.68 L630.44,280.33 Z M637.76,312.59 L637.05,308.42 L637.82,317.97 L637.76,312.59 Z M640.35,401.15 L641.71,398.51 L639.76,401.21 L640.35,401.15 Z M637.23,401.45 L638.19,401.36 L632.10,398.61 L637.23,401.45 Z M655.52,488.69 L654.81,491.94 L655.93,488.69 L656.80,488.32 L656.46,488.08 L655.52,488.69 Z M638.76,549.15 L638.17,535.05 L638.29,549.52 L638.76,549.15 Z M626.63,558.65 L632.00,554.45 L627.91,557.36 L626.63,558.65 Z M599.41,609.00 L600.86,615.82 L600.89,614.68 L599.41,609.00 Z M596.99,610.72 L594.57,614.68 L599.41,609.00 L596.99,610.72 Z M608.32,243.51 L609.08,248.69 L609.50,247.27 L608.32,243.51 Z M608.81,249.63 L602.71,251.63 L608.50,250.71 L608.81,249.63 Z M637.58,170.07 L635.63,169.97 L635.46,170.53 L637.58,170.07 Z M649.56,231.44 L652.69,234.48 L653.44,234.61 L649.56,231.44 Z M678.85,295.29 L679.12,296.26 L680.34,296.99 L678.85,295.29 Z M684.17,305.67 L683.60,305.80 L684.07,308.53 L684.17,305.67 Z M705.96,298.33 L706.20,298.09 L705.80,298.07 L705.96,298.33 Z M703.48,298.49 L704.12,298.01 L703.30,297.98 L702.18,295.45 L703.48,298.49 Z M716.37,269.19 L722.42,272.02 L717.64,269.58 L716.37,269.19 Z M686.31,328.11 L686.84,326.29 L686.45,325.19 L686.31,328.11 Z M687.38,334.10 L688.79,336.84 L689.97,339.07 L688.50,336.23 L687.38,334.10 Z M649.56,310.26 L648.67,315.94 L649.74,312.29 L649.56,310.26 Z M695.21,335.52 L693.54,334.12 L693.53,334.13 L694.57,335.92 L695.21,335.52 Z M698.53,338.97 L699.53,341.70 L699.95,341.60 L699.06,338.76 L697.18,337.19 L698.53,338.97 Z M711.18,347.77 L709.97,342.52 L710.12,339.74 L709.56,341.81 L711.15,347.72 L711.18,347.77 Z M707.67,322.03 L708.26,325.78 L710.50,332.47 L707.67,322.03 Z M694.75,332.27 L694.79,333.06 L695.34,332.61 L694.75,332.27 Z M670.64,159.58 L667.55,159.42 L664.78,160.03 L670.27,160.23 L670.64,159.58 Z M782.72,108.09 L782.77,99.05 L782.42,99.87 L782.42,111.74 L783.78,126.05 L782.72,108.09 Z M801.95,204.62 L802.95,203.85 L802.24,204.05 L801.95,204.62 Z M799.77,223.12 L800.00,230.12 L799.74,234.56 L800.36,232.05 L799.77,223.12 Z M790.56,234.48 L790.37,235.34 L794.87,231.75 L790.56,234.48 Z M790.21,236.05 L790.15,236.31 L792.74,240.06 L796.34,243.41 L790.21,236.05 Z M761.24,171.10 L766.14,177.58 L761.48,170.78 L761.24,171.10 Z M753.07,240.98 L752.21,240.37 L748.67,240.98 L753.07,240.98 Z M755.64,243.41 L758.23,244.63 L755.18,242.47 L755.64,243.41 Z M768.45,250.07 L770.62,248.48 L768.45,250.07 L768.45,250.07 Z M788.08,244.42 L778.64,253.15 L787.43,245.85 L787.26,248.89 L788.08,244.42 Z M788.31,244.21 L785.96,245.03 L788.08,244.42 L788.31,244.21 Z M718.70,234.48 L712.51,236.41 L714.69,235.80 L718.70,234.48 Z M721.95,232.25 L721.65,231.14 L720.06,235.50 L721.95,232.25 Z M723.42,223.22 L722.95,219.67 L722.87,225.43 L723.42,223.22 Z M736.76,244.12 L737.40,245.59 L737.02,243.48 L736.76,244.12 Z M738.23,247.47 L740.59,248.08 L737.76,246.39 L738.23,247.47 Z M744.16,244.94 L743.89,244.32 L743.75,244.96 L744.16,244.94 Z M746.25,244.83 L744.96,244.12 L744.66,244.92 L746.25,244.83 Z M770.97,252.74 L770.30,252.12 L775.46,261.97 L770.97,252.74 Z M783.42,262.68 L780.30,262.99 L783.71,263.59 L783.42,262.68 Z M791.51,278.00 L791.14,276.85 L791.23,278.51 L791.51,278.00 Z M740.89,289.16 L748.79,296.46 L746.20,293.83 L740.89,289.16 Z M692.74,207.50 L692.35,207.13 L693.63,211.25 L692.74,207.50 Z M761.65,221.30 L762.83,220.08 L763.08,220.33 L763.84,217.34 L761.65,221.30 Z M773.45,228.19 L766.08,225.86 L770.03,227.38 L773.45,228.19 Z M785.49,213.28 L784.98,214.02 L789.50,211.66 L785.49,213.28 Z M884.46,207.41 L888.77,204.38 L885.31,205.78 L884.46,207.41 Z M893.87,202.63 L894.49,202.07 L893.42,202.51 L895.64,203.65 L893.87,202.63 Z M910.01,185.35 L910.28,185.16 L910.03,185.08 L910.01,185.35 Z M911.86,185.64 L914.28,187.21 L915.14,186.65 L911.86,185.64 Z M916.84,185.54 L918.94,184.17 L917.82,183.97 L916.84,185.54 Z M918.99,184.50 L919.24,179.61 L918.94,184.17 L918.99,184.50 Z M921.45,165.95 L921.83,162.16 L921.18,165.20 L921.45,165.95 Z M923.94,160.18 L927.79,166.01 L924.01,160.23 L923.94,160.18 Z M931.31,219.77 L924.07,231.64 L920.00,238.64 L931.21,220.99 L931.31,219.77 Z M931.86,212.98 L930.86,206.49 L931.60,216.25 L931.86,212.98 Z M848.03,101.60 L851.45,103.32 L852.62,103.30 L848.03,101.60 Z M860.12,201.92 L861.91,211.80 L862.13,210.75 L860.12,201.92 Z M825.92,139.26 L826.96,133.35 L825.72,137.31 L825.92,139.26 Z M835.22,130.61 L838.17,128.89 L835.16,129.85 L835.22,130.61 Z M914.04,156.98 L915.11,158.40 L912.75,153.74 L914.04,156.98 Z M857.41,103.22 L858.38,101.74 L855.23,103.26 L857.41,103.22 Z M873.33,109.13 L872.98,108.70 L866.67,108.19 L873.33,109.13 Z M873.63,112.55 L874.04,110.02 L873.83,109.75 L873.63,112.55 Z M898.59,191.78 L896.12,200.61 L896.82,199.99 L898.59,191.78 Z M812.04,108.40 L811.18,109.48 L813.10,109.09 L812.04,108.40 Z M814.51,110.02 L813.85,109.58 L819.35,119.05 L814.51,110.02 Z M317.70,787.73 L317.58,787.53 L317.76,787.33 L317.70,787.73 Z M321.00,785.70 L321.24,785.50 L321.36,785.91 L321.00,785.70 Z M319.06,782.15 L318.94,781.95 L319.00,781.95 L319.06,782.15 Z M320.00,782.15 L319.53,781.75 L319.76,780.63 L320.00,782.15 Z M319.23,778.30 L319.11,777.89 L319.23,777.69 L319.23,778.30 Z M321.36,777.28 L321.36,776.98 L321.53,777.28 L321.36,777.28 Z M320.06,777.49 L320.41,775.86 L321.42,775.86 L321.06,776.98 L320.06,777.49 Z M322.36,775.66 L322.24,775.86 L322.30,775.56 L322.36,775.66 Z M321.95,774.95 L321.83,775.66 L321.71,775.36 L321.95,774.95 Z M322.83,774.95 L322.24,774.75 L322.42,773.94 L322.83,774.95 Z M346.55,769.57 L347.20,769.07 L346.96,769.78 L346.55,769.57 Z M335.57,774.44 L335.81,763.89 L334.04,760.14 L334.04,756.79 L336.16,754.66 L339.94,754.26 L340.83,752.23 L342.65,752.73 L342.77,751.21 L347.26,756.49 L348.49,762.57 L345.72,768.15 L346.72,771.30 L346.25,778.80 L345.25,778.30 L345.01,772.21 L344.25,772.31 L343.54,781.24 L336.70,780.63 L335.57,774.44 Z M524.84,840.78 L523.66,842.10 L523.89,840.58 L524.84,840.78 Z M523.19,837.44 L524.54,835.71 L524.78,836.32 L523.95,838.45 L523.19,837.44 Z M527.43,825.26 L526.37,821.10 L527.08,820.60 L527.26,823.03 L528.20,823.64 L527.49,826.89 L526.55,825.97 L527.43,825.26 Z M520.83,821.21 L521.24,819.48 L521.59,820.19 L520.83,821.21 Z M525.19,819.89 L524.84,818.57 L526.31,819.28 L524.13,821.81 L523.95,820.60 L525.19,819.89 Z M520.12,819.99 L520.41,818.97 L520.77,819.58 L520.12,819.99 Z M522.60,816.34 L523.01,815.83 L523.07,816.24 L522.60,816.34 Z M523.95,815.63 L523.30,816.24 L523.78,815.53 L523.95,815.63 Z M520.47,813.90 L520.89,813.50 L520.94,813.90 L520.47,813.90 Z M519.53,813.60 L519.35,813.50 L519.53,813.40 L519.53,813.60 Z M520.53,790.67 L519.17,790.17 L520.83,789.56 L521.95,792.40 L520.30,791.79 L520.53,790.67 Z M518.23,788.64 L518.82,789.86 L517.94,789.05 L518.23,788.64 Z M524.19,784.89 L524.42,785.60 L524.19,785.40 L524.19,784.89 Z M524.01,784.69 L523.72,782.86 L524.48,783.47 L524.01,784.69 Z M527.20,782.46 L526.90,784.59 L526.43,783.17 L527.20,782.46 Z M525.25,781.95 L525.66,782.35 L525.19,782.05 L525.25,781.95 Z M525.55,781.64 L525.55,781.34 L525.72,781.44 L525.55,781.64 Z M525.96,781.04 L525.49,780.83 L525.60,780.43 L525.96,781.04 Z M440.06,770.08 L440.35,768.96 L440.88,769.57 L440.47,770.49 L440.06,770.08 Z M447.20,766.53 L446.90,766.12 L447.49,765.41 L447.20,766.53 Z M447.73,765.41 L447.49,765.01 L448.02,763.79 L448.32,764.60 L447.73,765.41 Z M472.68,761.15 L472.04,760.95 L472.45,760.34 L472.68,761.15 Z M471.03,760.24 L471.39,760.14 L471.62,760.85 L471.03,760.24 Z M470.50,760.95 L469.26,760.75 L469.20,759.23 L470.50,760.95 Z M438.76,756.79 L437.29,763.39 L435.63,761.56 L435.10,758.42 L435.34,756.29 L436.75,755.47 L437.88,756.79 L438.23,755.58 L438.76,756.79 Z M470.74,758.42 L471.21,758.01 L471.21,758.82 L470.74,758.42 Z M470.21,757.00 L469.97,757.00 L470.21,756.69 L470.21,757.00 Z M471.21,756.69 L470.38,755.88 L471.15,755.78 L471.21,756.69 Z M478.23,741.58 L477.99,744.01 L476.05,745.74 L475.46,743.20 L476.93,741.07 L478.23,741.58 Z M479.06,742.79 L479.17,743.71 L478.47,744.01 L478.52,742.49 L479.06,742.79 Z M479.29,740.87 L479.94,739.95 L479.59,741.68 L479.23,741.68 L479.29,740.87 Z M478.88,737.11 L478.64,737.82 L478.35,737.32 L478.88,737.11 Z M476.99,735.90 L476.64,737.72 L473.63,737.52 L475.69,738.84 L475.46,741.98 L471.50,745.13 L471.15,738.03 L471.68,737.01 L472.51,739.24 L471.92,734.58 L473.04,734.58 L474.40,728.59 L475.34,729.81 L476.05,729.61 L476.11,727.48 L477.40,729.20 L479.70,728.29 L478.47,732.14 L477.64,731.74 L477.52,733.56 L478.47,732.55 L479.88,733.66 L477.76,734.68 L475.99,732.95 L476.05,735.19 L475.22,735.79 L476.99,735.90 Z M482.89,728.09 L483.30,728.49 L483.13,729.51 L482.71,729.00 L482.89,728.09 Z M487.14,728.90 L484.90,729.20 L485.13,727.48 L486.55,727.48 L487.20,725.24 L487.14,728.90 Z M480.18,726.26 L480.65,726.36 L480.59,727.27 L480.06,726.87 L480.18,726.26 Z M482.89,726.26 L483.24,726.67 L482.95,726.56 L482.89,726.26 Z M487.55,725.95 L488.44,724.64 L488.85,727.78 L488.44,727.98 L487.55,725.95 Z M482.77,724.84 L484.19,723.82 L484.31,724.53 L484.37,725.75 L482.77,724.84 Z M486.96,724.64 L487.14,724.33 L487.43,724.94 L486.96,724.64 Z M491.39,723.93 L491.80,722.71 L492.92,724.03 L492.68,724.74 L491.39,723.93 Z M487.43,721.49 L486.84,722.10 L486.37,721.29 L484.66,722.00 L485.96,722.00 L486.14,723.93 L484.19,723.62 L483.48,721.90 L482.48,722.61 L484.25,720.78 L483.54,720.58 L483.89,719.06 L486.78,719.77 L487.43,721.49 Z M492.68,720.98 L491.92,721.80 L491.80,721.09 L492.68,720.98 Z M489.73,720.78 L489.85,721.09 L489.79,721.19 L489.73,720.78 Z M487.73,719.56 L488.02,719.97 L487.67,720.88 L487.37,720.17 L487.73,719.56 Z M490.91,719.16 L491.62,720.68 L490.80,719.56 L490.91,719.16 Z M488.55,719.36 L488.79,719.56 L488.67,719.67 L488.55,719.36 Z M488.67,718.04 L488.26,718.85 L487.26,717.54 L488.67,718.04 Z M495.63,713.07 L496.28,714.29 L495.22,713.58 L495.63,713.07 Z M489.44,712.57 L489.79,713.07 L488.73,713.07 L489.44,712.57 Z M493.27,710.13 L494.22,709.42 L494.34,710.74 L494.93,711.35 L493.27,710.13 Z M492.80,708.51 L493.22,709.32 L492.63,711.14 L492.45,708.81 L492.80,708.51 Z M495.69,706.78 L496.40,706.17 L499.71,710.23 L500.53,708.71 L501.47,712.06 L499.53,710.94 L497.40,711.75 L495.69,706.78 Z M501.95,706.28 L502.06,706.78 L501.71,706.38 L501.95,706.28 Z M499.47,705.87 L499.35,704.04 L500.47,706.99 L499.47,705.87 Z M522.95,703.03 L522.95,702.52 L523.48,703.13 L522.95,703.03 Z M501.65,702.02 L500.65,702.93 L500.35,702.52 L501.00,701.61 L501.65,702.02 Z M545.72,884.10 L547.02,884.00 L548.08,885.92 L546.90,887.24 L545.72,884.10 Z M560.71,864.72 L561.48,866.35 L561.89,864.52 L562.12,866.35 L563.42,865.94 L566.49,870.61 L567.61,869.39 L566.90,870.91 L567.85,872.23 L570.80,870.40 L573.45,872.64 L574.51,868.58 L573.33,871.72 L573.51,868.07 L574.40,866.55 L576.05,867.46 L574.34,871.82 L575.22,876.29 L574.16,882.27 L574.75,893.94 L577.17,897.79 L576.87,901.34 L574.16,902.56 L572.04,896.98 L569.26,893.94 L569.38,887.95 L566.37,884.81 L565.55,885.01 L568.08,887.55 L568.55,891.91 L560.00,889.47 L556.52,889.47 L555.04,893.02 L553.04,892.01 L552.04,882.58 L552.63,879.74 L551.03,868.48 L552.21,864.11 L549.97,858.84 L549.32,853.06 L546.78,845.25 L547.08,841.90 L548.02,841.19 L550.56,843.73 L553.51,854.88 L554.34,855.09 L554.99,865.23 L556.05,868.68 L556.93,869.69 L556.52,875.48 L557.46,869.29 L558.29,869.80 L557.17,864.52 L558.17,858.43 L559.35,858.74 L559.35,861.78 L560.89,860.77 L560.71,864.72 Z M546.49,867.36 L545.66,866.95 L546.55,866.24 L546.49,867.36 Z M534.28,866.55 L533.57,867.26 L532.86,863.10 L534.45,862.09 L533.39,863.10 L534.28,866.55 Z M543.54,861.68 L543.72,859.85 L544.37,859.85 L544.31,861.58 L543.54,861.68 Z M528.73,852.55 L529.97,853.77 L528.67,854.58 L527.67,853.26 L528.73,852.55 Z M544.42,854.07 L544.25,853.06 L545.84,852.25 L545.78,854.58 L544.42,854.07 Z M539.41,850.32 L540.65,849.00 L541.83,850.12 L541.65,851.13 L539.41,850.32 Z M553.39,848.49 L552.15,845.65 L552.63,843.93 L551.33,842.31 L552.68,840.07 L554.51,844.03 L553.39,848.49 Z M528.79,830.64 L527.26,831.86 L529.73,834.90 L526.90,832.36 L527.67,828.10 L528.79,830.64 Z M540.30,830.84 L539.71,831.45 L539.35,830.03 L538.11,830.34 L539.71,828.00 L540.30,830.84 Z M532.74,828.00 L530.74,828.71 L531.15,827.39 L532.51,826.99 L532.74,828.00 Z M533.92,825.16 L533.45,827.39 L532.33,826.38 L532.63,825.57 L533.92,825.16 Z M529.91,824.76 L529.91,827.80 L528.73,824.86 L529.32,823.64 L529.91,824.76 Z M533.27,821.92 L533.57,820.19 L534.87,822.42 L534.10,823.34 L533.27,821.92 Z M528.85,822.12 L530.21,819.38 L530.80,819.99 L531.09,822.93 L528.85,822.12 Z M560.18,831.76 L559.29,830.74 L557.23,834.29 L555.40,830.74 L551.45,810.55 L554.45,808.42 L554.99,811.37 L557.11,810.05 L556.34,807.31 L558.94,803.86 L563.42,807.82 L564.43,806.90 L565.61,807.31 L565.13,804.77 L567.32,804.67 L569.79,807.61 L568.85,804.57 L571.86,803.66 L573.98,806.50 L573.33,809.54 L578.41,816.44 L575.52,809.54 L576.17,804.98 L578.76,805.18 L577.64,806.40 L578.29,807.51 L577.64,809.03 L579.71,811.26 L579.29,812.69 L581.89,810.45 L582.83,811.26 L581.95,815.53 L583.07,816.64 L583.07,819.38 L579.82,816.54 L578.47,818.47 L574.51,817.05 L570.27,818.87 L573.57,822.02 L573.86,823.84 L574.45,822.32 L575.58,822.83 L575.46,825.26 L576.40,823.54 L580.12,826.89 L581.30,831.45 L575.93,828.92 L574.40,832.57 L572.51,832.97 L569.91,836.83 L568.85,836.12 L567.91,833.58 L568.91,832.47 L567.79,833.18 L569.14,831.25 L566.14,834.39 L567.85,835.10 L566.49,837.54 L561.65,833.28 L561.36,835.61 L559.88,836.73 L558.05,834.49 L560.18,831.76 Z M564.60,813.40 L564.98,814.75 L564.43,806.90 L564.60,813.40 Z M568.26,819.18 L565.46,816.51 L565.78,817.66 L568.26,819.18 Z M543.89,805.99 L545.07,799.60 L548.97,801.02 L549.79,804.37 L554.45,808.42 L551.50,809.34 L550.62,806.80 L549.14,812.79 L548.97,822.83 L547.55,822.63 L544.78,819.18 L544.78,816.34 L543.84,815.32 L545.49,812.08 L544.13,807.41 L545.13,807.21 L543.89,805.99 Z M537.35,819.89 L536.05,818.97 L535.99,816.54 L532.63,813.50 L531.56,808.32 L530.62,809.13 L529.38,807.31 L528.91,803.35 L528.32,804.57 L527.67,803.45 L529.50,800.11 L528.02,800.01 L527.49,803.05 L526.78,802.64 L525.01,796.45 L526.49,795.85 L525.13,793.72 L525.60,792.60 L522.71,789.86 L522.18,787.22 L530.62,797.77 L534.04,805.38 L533.45,806.50 L535.40,809.13 L535.58,812.48 L537.46,813.40 L541.18,819.18 L540.77,822.83 L539.59,823.13 L540.24,820.90 L538.82,818.97 L537.94,820.39 L537.64,818.37 L537.35,819.89 Z M550.15,795.64 L551.09,794.73 L552.21,799.70 L554.57,795.95 L555.52,796.66 L553.81,799.30 L554.87,801.22 L558.17,798.89 L558.88,801.12 L558.11,803.05 L557.46,801.63 L556.46,802.44 L556.76,805.89 L555.46,807.61 L552.04,802.34 L550.15,795.64 Z M561.18,800.72 L560.77,799.60 L561.06,798.99 L561.18,800.72 Z M549.44,798.99 L548.32,799.80 L547.32,797.37 L548.32,798.38 L549.44,798.99 Z M543.89,798.38 L543.72,797.06 L544.13,797.67 L543.89,798.38 Z M557.94,797.77 L557.99,797.37 L558.58,797.37 L557.94,797.77 Z M544.48,797.57 L544.66,797.47 L544.66,797.67 L544.48,797.57 Z M555.58,798.48 L557.64,795.44 L557.52,797.16 L556.64,798.79 L555.58,798.48 Z M560.53,796.05 L562.01,796.05 L562.18,797.88 L561.00,797.37 L560.53,796.05 Z M544.31,796.05 L544.72,795.95 L545.49,796.96 L544.31,796.05 Z M533.04,797.47 L532.04,797.98 L533.22,793.82 L532.21,790.17 L533.04,787.02 L531.27,788.44 L530.62,787.02 L533.10,783.37 L532.15,781.85 L534.04,780.02 L535.16,780.43 L535.46,784.38 L538.35,793.82 L538.82,802.95 L538.17,803.56 L539.35,805.99 L540.77,809.03 L541.18,811.77 L540.30,812.58 L537.52,807.11 L538.11,811.57 L536.46,809.95 L535.52,804.98 L533.16,801.12 L533.04,797.47 Z M558.76,796.15 L559.65,794.93 L560.41,795.74 L558.76,796.15 Z M544.01,795.74 L542.60,794.32 L543.07,793.51 L543.72,793.61 L544.01,795.74 Z M546.14,794.22 L546.90,793.01 L547.20,793.51 L546.14,794.22 Z M555.28,793.31 L555.93,791.89 L556.11,792.50 L555.28,793.31 Z M530.03,791.89 L530.74,791.18 L531.09,792.30 L530.03,791.89 Z M545.66,790.57 L546.14,792.09 L545.07,792.50 L545.01,790.98 L545.66,790.57 Z M554.04,792.09 L551.39,792.30 L550.15,789.56 L553.51,790.98 L554.04,792.09 Z M540.47,788.34 L538.35,786.21 L538.82,785.30 L539.88,786.41 L543.07,792.70 L541.77,792.80 L540.47,788.34 Z M529.68,783.98 L530.44,784.49 L529.14,784.18 L529.68,783.98 Z M527.55,781.44 L527.67,781.34 L527.73,781.64 L527.55,781.44 Z M529.20,777.59 L528.97,779.51 L529.79,779.21 L530.86,782.15 L529.03,780.33 L528.97,783.27 L528.08,780.53 L529.20,777.59 Z M531.21,780.02 L530.97,779.92 L531.09,779.62 L531.21,780.02 Z M541.42,780.22 L540.65,779.51 L540.89,779.11 L541.42,780.22 Z M530.03,779.31 L530.15,779.41 L530.09,779.62 L530.03,779.31 Z M530.91,779.41 L530.62,779.31 L530.86,779.11 L530.91,779.41 Z M533.75,779.11 L533.57,778.20 L534.04,777.69 L533.75,779.11 Z M533.69,776.78 L532.98,780.12 L532.21,778.80 L530.44,776.88 L530.97,774.65 L531.92,776.57 L533.69,776.78 Z M529.91,776.07 L529.26,777.38 L528.97,775.05 L529.56,774.34 L529.91,776.07 Z M535.40,767.65 L538.64,766.12 L552.39,772.62 L556.28,779.51 L550.68,780.93 L549.79,778.30 L548.85,779.51 L547.49,778.40 L547.73,776.88 L546.96,777.79 L546.55,775.76 L543.25,776.47 L539.17,773.83 L541.59,772.92 L533.33,771.10 L535.40,767.65 Z M554.34,750.91 L554.57,750.40 L554.99,750.30 L554.34,750.91 Z M557.58,768.86 L552.68,769.27 L548.85,768.15 L548.08,765.72 L545.84,766.63 L543.30,764.10 L541.06,765.01 L537.58,763.39 L533.04,757.30 L533.63,753.75 L535.10,751.52 L536.64,753.14 L535.16,755.17 L536.11,757.71 L537.76,756.79 L537.35,754.26 L538.17,754.05 L538.64,755.98 L541.36,756.29 L541.48,755.17 L539.76,754.05 L545.96,750.60 L546.49,753.55 L546.67,750.50 L548.67,750.20 L550.50,751.01 L551.33,754.87 L552.98,754.87 L553.92,757.40 L555.40,752.53 L558.11,752.94 L566.43,745.13 L569.56,736.40 L571.80,733.06 L572.92,733.16 L572.15,736.40 L574.51,735.79 L574.99,737.62 L574.22,734.37 L578.41,728.09 L576.17,737.92 L578.23,737.11 L578.35,733.56 L580.89,732.45 L580.06,734.98 L577.82,738.94 L575.99,745.94 L572.57,751.72 L569.38,753.24 L566.78,760.75 L563.78,762.57 L561.53,766.23 L559.82,765.72 L557.58,768.86 Z M548.14,745.53 L543.89,746.24 L542.42,745.23 L547.67,744.42 L548.14,745.53 Z M551.50,742.90 L552.04,742.39 L552.15,742.79 L551.50,742.90 Z M544.54,740.46 L545.84,740.97 L545.60,741.68 L544.60,741.48 L544.54,740.46 Z M556.81,740.87 L557.11,739.14 L558.41,737.21 L557.40,740.87 L556.81,740.87 Z M547.73,736.61 L546.84,738.53 L546.31,738.03 L546.84,736.00 L547.73,736.61 Z M548.32,736.91 L548.14,736.61 L548.67,735.90 L548.32,736.91 Z M558.58,735.29 L559.06,735.08 L558.58,735.90 L558.58,735.29 Z M555.52,728.80 L555.40,728.09 L555.93,727.68 L555.99,728.59 L555.52,728.80 Z M561.36,724.03 L561.30,724.33 L561.24,724.23 L561.36,724.03 Z M562.71,724.33 L561.42,723.82 L562.18,723.32 L562.71,724.33 Z M554.40,711.04 L554.69,710.84 L554.81,711.25 L554.40,711.04 Z M552.98,710.33 L552.21,709.22 L552.98,708.41 L553.86,710.13 L552.98,710.33 Z M534.69,708.91 L534.28,709.72 L533.39,709.01 L533.81,707.90 L534.69,708.91 Z M557.40,709.01 L556.17,708.20 L556.64,706.99 L557.64,708.51 L557.40,709.01 Z M534.57,707.19 L535.22,707.29 L535.04,708.30 L534.57,707.19 Z M559.47,706.99 L559.94,707.09 L559.94,707.39 L559.47,706.99 Z M551.33,706.68 L551.62,706.38 L552.09,706.88 L551.80,708.00 L551.33,706.68 Z M550.91,706.68 L550.68,706.58 L550.68,706.28 L550.91,706.68 Z M553.10,707.19 L553.16,706.17 L554.10,704.96 L555.34,706.07 L553.10,707.19 Z M561.12,703.54 L561.95,703.74 L562.07,704.55 L561.53,704.75 L561.12,703.54 Z M558.58,703.64 L559.47,703.44 L559.29,704.04 L558.58,703.64 Z M552.98,705.16 L551.27,705.06 L551.15,703.44 L551.62,701.81 L553.10,701.51 L552.27,703.84 L552.98,705.16 Z M553.45,702.32 L554.10,701.91 L554.87,703.33 L553.45,703.33 L553.45,702.32 Z M529.68,702.83 L531.86,700.49 L532.21,702.52 L534.16,701.61 L534.51,702.42 L532.57,703.74 L529.68,702.83 Z M558.58,699.99 L555.28,702.62 L557.17,699.58 L556.99,696.54 L558.58,699.99 Z M559.17,698.57 L559.29,699.38 L558.76,699.18 L559.17,698.57 Z M571.74,948.71 L572.04,945.27 L573.69,944.35 L572.98,947.80 L571.74,948.71 Z M579.06,944.05 L583.25,938.37 L585.49,940.50 L585.49,945.37 L578.70,952.06 L579.06,944.05 Z M576.05,907.83 L577.40,906.41 L578.05,908.24 L577.23,910.68 L576.99,907.73 L576.05,907.83 Z M561.77,851.33 L561.36,846.97 L564.07,859.14 L563.78,863.20 L562.60,863.61 L560.41,858.94 L560.65,852.35 L561.77,851.33 Z M567.85,852.75 L568.67,853.36 L568.50,854.38 L567.85,852.75 Z M580.53,851.74 L578.11,848.90 L579.88,847.99 L581.18,849.41 L580.53,851.74 Z M583.66,820.60 L583.07,822.42 L582.42,820.29 L582.89,819.89 L583.66,820.60 Z M584.96,815.73 L585.19,815.83 L584.84,816.34 L584.96,815.73 Z M580.30,805.89 L579.41,805.18 L579.65,804.16 L580.30,805.89 Z M570.38,801.53 L570.80,800.72 L571.39,802.95 L570.38,801.53 Z M581.48,803.15 L579.82,802.24 L580.41,799.90 L582.18,801.83 L581.48,803.15 Z M562.30,798.28 L562.54,798.99 L562.01,798.69 L562.30,798.28 Z M570.44,797.57 L568.55,795.44 L565.61,796.35 L564.13,795.34 L568.44,792.90 L572.68,796.86 L570.44,797.57 Z M573.98,793.92 L573.16,793.21 L573.39,793.11 L573.98,793.92 Z M559.76,794.83 L553.92,789.25 L557.40,789.46 L566.90,786.11 L572.74,781.85 L578.17,777.79 L589.56,774.34 L593.81,769.07 L599.06,750.81 L597.70,749.89 L598.53,745.63 L600.00,745.94 L599.76,750.30 L602.30,747.26 L602.71,743.81 L606.96,735.69 L611.03,731.94 L615.58,725.04 L617.88,725.35 L618.53,726.67 L617.40,733.26 L615.40,739.75 L615.99,741.48 L613.75,749.49 L610.44,755.37 L606.79,758.62 L602.71,766.73 L599.35,769.37 L599.29,772.52 L597.82,774.95 L594.45,775.56 L588.67,781.95 L586.67,779.51 L586.08,782.46 L584.78,781.85 L584.25,783.67 L579.47,787.73 L574.63,789.66 L566.78,792.80 L560.89,793.01 L559.76,794.83 Z M569.38,780.22 L564.19,780.53 L564.13,779.01 L568.67,777.89 L569.38,780.22 Z M571.74,777.99 L573.16,775.96 L574.04,775.76 L571.74,777.99 Z M577.64,774.54 L576.17,775.56 L576.52,774.75 L577.64,774.54 Z M585.19,768.96 L584.07,769.47 L583.48,767.24 L585.49,766.53 L585.19,768.96 Z M582.71,760.34 L583.19,760.24 L583.66,761.36 L582.71,760.34 Z M578.17,758.72 L577.99,760.34 L577.70,760.24 L577.70,758.01 L578.17,758.72 Z M584.19,756.89 L584.13,756.18 L584.66,755.17 L584.60,756.89 L584.19,756.89 Z M583.30,757.60 L580.71,754.66 L582.60,751.21 L583.95,757.00 L583.30,757.60 Z M584.96,754.46 L584.66,753.95 L585.13,753.65 L584.96,754.46 Z M574.51,755.58 L577.64,748.07 L580.94,748.88 L579.76,744.32 L581.95,746.34 L581.48,751.72 L579.35,753.24 L577.17,752.53 L576.05,755.68 L574.51,755.58 Z M581.71,744.11 L583.19,744.72 L582.30,745.03 L581.71,744.11 Z M581.30,741.88 L581.77,739.55 L583.07,740.97 L582.83,742.59 L581.30,741.88 Z M580.18,738.94 L580.30,739.95 L579.17,740.97 L579.41,739.14 L580.18,738.94 Z M566.78,731.94 L566.49,731.33 L566.84,730.62 L566.78,731.94 Z M569.50,730.11 L568.73,730.82 L569.26,729.20 L569.50,730.11 Z M567.02,730.11 L567.43,729.61 L567.55,730.11 L567.02,730.11 Z M589.68,727.98 L590.21,728.09 L590.56,728.80 L589.68,727.98 Z M568.97,726.97 L566.90,729.30 L569.20,725.14 L568.97,726.97 Z M590.03,724.74 L590.50,724.23 L590.38,724.94 L590.03,724.74 Z M562.83,722.91 L562.95,722.51 L562.95,722.81 L562.83,722.91 Z M568.08,722.40 L567.49,722.40 L567.73,722.10 L568.08,722.40 Z M585.37,720.98 L585.13,721.69 L584.37,721.29 L584.31,719.97 L585.37,720.98 Z M569.97,719.77 L569.73,719.67 L570.03,719.46 L569.97,719.77 Z M571.98,718.04 L570.80,715.30 L572.21,716.52 L573.69,715.61 L574.04,716.62 L571.98,718.04 Z M590.97,715.20 L589.32,717.54 L587.43,716.62 L588.26,713.88 L590.97,715.20 Z M589.03,713.48 L589.44,713.48 L589.44,713.88 L589.03,713.48 Z M575.04,711.96 L575.99,710.54 L578.11,711.25 L576.40,713.38 L575.04,711.96 Z M589.97,711.75 L589.32,711.65 L589.20,710.84 L589.73,710.74 L589.97,711.75 Z M579.82,708.00 L578.76,707.09 L579.35,705.77 L580.00,706.07 L579.82,708.00 Z M562.66,706.07 L562.18,705.67 L562.24,704.96 L562.71,705.36 L562.66,706.07 Z M586.37,704.45 L586.49,703.94 L586.61,704.45 L586.37,704.45 Z M563.60,703.13 L563.54,704.04 L562.60,703.74 L563.60,703.13 Z M586.96,703.84 L586.67,703.84 L586.79,703.23 L586.96,703.84 Z M585.31,703.33 L585.25,702.32 L585.96,703.54 L585.31,703.33 Z M562.66,702.02 L563.07,702.32 L562.83,703.13 L562.42,702.83 L562.66,702.02 Z M572.80,702.32 L572.33,701.51 L572.74,701.61 L572.80,702.32 Z M589.09,701.51 L586.79,700.39 L587.08,699.68 L587.49,699.99 L589.09,701.51 Z M582.07,699.28 L582.60,699.07 L582.71,699.78 L582.07,699.28 Z M581.06,698.47 L580.83,698.36 L580.89,697.96 L581.06,698.47 Z M589.09,697.45 L589.44,697.45 L589.26,698.26 L589.09,697.45 Z M563.89,696.54 L564.78,698.77 L564.31,698.47 L563.89,696.54 Z M573.51,697.55 L574.99,695.93 L575.22,697.35 L573.51,698.47 L573.51,697.55 Z M574.04,696.03 L573.57,696.84 L573.22,695.62 L574.04,696.03 Z M563.66,694.91 L564.48,695.22 L564.01,696.33 L563.66,694.91 Z M587.67,695.62 L587.61,695.52 L587.79,695.32 L587.67,695.62 Z M580.00,695.22 L580.00,694.81 L580.35,695.22 L580.00,695.22 Z M565.96,694.71 L566.31,695.22 L565.66,695.02 L565.96,694.71 Z M581.12,695.02 L580.94,693.29 L582.95,695.73 L581.83,696.03 L581.12,695.02 Z M566.49,694.00 L566.96,693.70 L567.14,694.51 L566.78,694.91 L566.49,694.00 Z M588.26,694.00 L588.26,692.78 L588.55,692.78 L588.61,693.80 L588.26,694.00 Z M565.07,693.09 L566.08,691.26 L566.78,691.87 L565.07,693.09 Z M575.40,687.41 L576.93,688.12 L576.34,691.47 L573.57,689.74 L574.75,687.10 L574.10,686.29 L577.05,686.70 L575.40,687.41 Z M586.55,685.79 L586.90,686.19 L586.84,686.50 L586.55,685.79 Z M577.29,684.67 L579.00,685.28 L577.99,686.60 L577.29,684.67 Z M590.80,682.94 L588.67,684.37 L588.73,680.71 L590.97,681.83 L590.80,682.94 Z M591.27,678.89 L589.97,679.80 L589.26,678.99 L591.03,677.57 L591.27,678.89 Z M585.66,669.55 L585.72,669.96 L585.43,669.35 L585.66,669.55 Z M589.03,667.73 L589.73,667.73 L589.03,668.64 L589.03,667.73 Z M574.40,674.53 L576.22,654.74 L579.29,654.34 L581.12,657.08 L581.95,661.24 L578.53,663.16 L576.76,671.18 L574.40,674.53 Z M589.56,659.41 L588.73,660.93 L588.20,658.09 L589.56,659.41 Z M586.08,916.56 L585.96,895.05 L588.38,888.05 L590.32,886.53 L591.15,889.47 L592.15,889.07 L597.88,894.44 L598.23,897.29 L599.41,898.50 L596.70,909.25 L595.63,922.34 L594.69,924.17 L592.86,923.46 L592.15,928.22 L590.44,918.69 L586.84,919.20 L586.08,916.56 Z M604.60,909.56 L603.95,907.02 L604.31,905.20 L605.43,908.04 L604.60,909.56 Z M592.45,844.74 L594.69,840.38 L596.05,840.68 L595.16,846.36 L593.86,847.38 L592.45,844.74 Z M596.99,800.82 L599.06,802.14 L597.35,799.90 L597.52,798.59 L599.35,798.89 L599.29,800.51 L600.41,797.77 L612.45,789.15 L613.92,791.89 L612.68,794.12 L616.99,794.43 L617.64,796.56 L616.05,798.48 L614.51,803.05 L612.04,803.25 L609.44,808.02 L606.84,808.73 L605.25,811.06 L602.83,811.37 L600.30,804.67 L599.06,805.48 L595.40,803.15 L596.99,800.82 Z M602.95,770.99 L603.48,770.18 L603.30,770.89 L602.95,770.99 Z M607.08,765.01 L604.25,768.96 L605.31,766.53 L607.08,765.01 Z M607.08,727.38 L605.55,731.53 L603.78,732.14 L603.66,730.62 L605.07,729.20 L605.43,727.88 L605.84,728.80 L607.08,727.38 Z M606.43,725.55 L606.55,726.26 L606.20,726.06 L606.43,725.55 Z M599.71,720.68 L599.94,720.58 L600.00,720.98 L599.71,720.68 Z M604.96,722.20 L604.25,720.78 L605.02,721.29 L605.25,719.36 L606.43,719.16 L606.02,721.39 L604.96,722.20 Z M594.75,720.48 L594.16,720.58 L594.10,719.97 L594.81,719.97 L594.75,720.48 Z M593.69,719.56 L593.69,718.96 L594.04,719.56 L593.69,719.56 Z M596.34,718.96 L596.81,717.33 L597.70,717.23 L598.05,718.14 L596.34,718.96 Z M608.08,716.83 L607.38,717.03 L607.32,716.01 L608.08,716.83 Z M594.99,714.90 L596.76,717.13 L595.04,716.62 L594.99,714.90 Z M596.46,714.70 L596.93,714.49 L596.64,715.81 L596.46,714.70 Z M598.88,715.20 L598.53,715.10 L598.82,714.80 L598.88,715.20 Z M597.05,714.29 L597.23,714.19 L597.29,714.39 L597.05,714.29 Z M590.15,712.87 L590.74,712.97 L590.86,713.88 L590.15,712.87 Z M601.71,712.46 L601.77,713.28 L601.65,713.17 L601.71,712.46 Z M599.12,711.85 L599.47,711.35 L599.41,712.06 L599.12,711.85 Z M594.40,711.25 L595.10,711.14 L595.69,712.16 L594.40,711.25 Z M594.45,708.00 L593.98,707.80 L594.28,707.39 L594.45,708.00 Z M593.22,708.00 L592.39,707.39 L592.39,705.67 L593.51,706.78 L593.22,708.00 Z M595.87,705.57 L595.58,706.68 L594.45,705.57 L594.10,703.23 L595.87,705.57 Z M600.77,697.35 L602.12,698.77 L601.00,700.09 L599.65,698.77 L600.94,695.22 L600.77,697.35 Z M601.89,698.06 L602.18,696.84 L602.24,697.86 L601.89,698.06 Z M600.12,697.35 L599.12,696.74 L599.71,696.64 L600.12,697.35 Z M591.45,697.15 L590.27,695.93 L591.68,695.83 L592.74,693.90 L591.45,697.15 Z M603.95,695.52 L603.48,695.42 L603.89,694.71 L603.95,695.52 Z M600.47,692.68 L601.59,693.90 L600.53,693.80 L600.47,692.68 Z M604.84,692.68 L605.07,692.48 L605.02,692.78 L604.84,692.68 Z M590.38,687.21 L590.91,687.21 L590.38,688.83 L590.38,687.21 Z M596.11,687.31 L596.40,687.21 L596.40,687.51 L596.11,687.31 Z M592.09,687.10 L591.68,686.80 L592.39,686.70 L592.09,687.10 Z M608.73,683.96 L608.20,684.57 L607.43,683.15 L608.20,683.05 L608.73,683.96 Z M596.87,682.34 L596.93,681.63 L597.23,682.54 L596.87,682.34 Z M599.53,682.84 L599.12,681.83 L600.71,680.41 L599.53,682.84 Z M598.11,680.00 L598.70,680.10 L598.88,681.42 L598.11,680.00 Z M597.70,679.19 L597.82,678.89 L598.05,679.50 L597.70,679.19 Z M596.87,678.99 L596.64,678.68 L596.87,678.48 L596.87,678.99 Z M595.99,676.55 L595.87,676.45 L595.93,676.05 L595.99,676.55 Z M593.33,672.70 L592.98,672.40 L594.57,672.80 L593.33,672.70 Z M603.25,671.38 L603.72,671.99 L603.13,674.22 L602.07,671.48 L602.60,669.96 L603.25,671.38 Z M594.22,671.99 L594.45,671.89 L594.45,672.19 L594.22,671.99 Z M592.92,671.99 L592.80,671.38 L593.04,671.89 L592.92,671.99 Z M599.59,671.18 L600.71,669.45 L600.47,671.28 L599.59,671.18 Z M594.75,669.76 L595.69,669.35 L594.40,670.57 L594.75,669.76 Z M604.90,666.21 L604.60,668.13 L602.77,669.55 L603.30,668.03 L604.90,666.21 Z M597.23,666.41 L597.64,665.90 L597.35,666.61 L597.23,666.41 Z M605.31,664.18 L605.66,664.18 L605.02,664.79 L605.31,664.18 Z M599.53,663.57 L599.35,664.18 L598.94,664.08 L598.94,663.37 L599.53,663.57 Z M592.51,662.66 L592.63,661.54 L593.27,662.56 L591.92,665.09 L589.91,665.09 L592.51,662.66 Z M597.29,662.86 L595.63,664.99 L596.52,661.44 L597.35,660.63 L597.29,662.86 Z M598.94,662.25 L599.82,657.79 L601.30,657.79 L601.18,659.82 L602.01,657.99 L602.95,658.90 L602.42,660.63 L600.71,661.14 L598.94,662.25 Z M606.49,658.70 L606.90,658.90 L606.37,659.11 L606.49,658.70 Z M607.02,658.30 L607.73,656.88 L607.43,659.41 L607.02,658.30 Z M606.61,657.38 L605.49,659.51 L605.31,657.38 L605.90,655.05 L606.61,657.38 Z M603.07,657.69 L603.13,656.57 L603.78,657.59 L603.07,657.69 Z M602.07,657.38 L601.71,656.98 L601.77,656.37 L602.07,657.38 Z M596.70,652.82 L596.40,653.73 L595.99,653.32 L595.99,652.31 L596.70,652.82 Z M591.68,652.21 L592.21,651.40 L592.86,652.11 L591.98,653.43 L591.68,652.21 Z M598.17,649.88 L597.64,649.17 L598.11,648.56 L598.41,649.17 L598.17,649.88 Z M593.04,648.66 L593.33,649.06 L592.98,649.17 L593.04,648.66 Z M593.33,648.25 L593.04,648.46 L592.92,648.25 L593.33,648.25 Z M599.00,646.93 L599.00,646.12 L599.23,646.93 L599.00,646.93 Z M597.70,644.70 L598.05,645.51 L596.81,646.22 L596.87,645.41 L597.70,644.70 Z M607.49,647.14 L607.08,644.91 L607.55,643.79 L608.50,644.70 L607.49,647.14 Z M599.29,644.80 L600.24,643.89 L600.24,645.92 L600.71,646.83 L599.29,644.80 Z M604.78,645.01 L604.96,644.60 L605.02,645.01 L604.78,645.01 Z M596.64,645.41 L595.75,645.51 L595.58,643.59 L596.99,643.89 L596.64,645.41 Z M602.12,643.59 L601.42,643.59 L601.12,642.27 L602.07,641.96 L602.12,643.59 Z M595.34,642.47 L595.28,642.17 L595.52,642.47 L595.34,642.47 Z M600.00,638.51 L599.53,639.93 L599.12,639.02 L599.53,638.21 L600.00,638.51 Z M608.91,635.78 L607.91,638.41 L605.02,640.04 L605.84,636.59 L607.79,637.50 L608.02,635.17 L608.91,635.78 Z M604.01,635.57 L603.95,636.89 L602.54,636.69 L602.48,635.67 L604.01,635.57 Z M605.19,632.63 L606.20,632.02 L605.90,633.65 L605.19,634.05 L605.19,632.63 Z M607.55,623.40 L607.67,623.20 L607.85,623.81 L607.55,623.40 Z M628.61,956.53 L627.38,966.67 L620.94,978.33 L617.88,980.77 L613.57,979.15 L614.75,974.28 L617.88,973.67 L618.58,970.83 L620.35,970.12 L621.36,965.15 L623.30,965.15 L625.43,961.60 L625.25,959.77 L628.61,956.53 Z M634.51,895.56 L633.92,895.26 L633.86,893.73 L634.51,895.56 Z M621.12,829.73 L621.89,829.22 L622.30,832.06 L621.77,832.57 L621.12,829.73 Z M623.48,822.42 L626.02,828.10 L626.20,831.05 L624.07,828.81 L623.19,824.65 L620.94,821.31 L623.48,822.42 Z M624.01,799.80 L623.60,797.98 L625.66,798.18 L628.02,805.28 L626.43,804.67 L624.01,799.80 Z M652.10,775.05 L650.21,772.31 L650.74,775.86 L649.26,773.73 L648.26,776.57 L644.66,778.20 L643.36,777.28 L640.89,780.43 L637.35,781.04 L635.52,778.70 L634.16,784.99 L633.04,784.69 L632.92,782.76 L631.92,784.08 L631.68,781.85 L622.18,789.76 L620.83,788.95 L620.94,787.63 L617.29,789.35 L615.63,788.04 L616.99,785.70 L621.83,783.98 L623.19,781.95 L620.89,777.99 L618.05,777.89 L601.06,790.47 L595.93,792.40 L592.09,795.85 L589.97,801.53 L587.79,801.32 L582.83,804.27 L585.78,801.63 L583.30,801.53 L582.54,794.93 L584.19,791.59 L588.14,791.69 L594.81,786.01 L597.99,778.60 L606.14,776.88 L605.61,773.12 L608.02,772.62 L613.22,764.30 L614.87,764.91 L620.12,757.71 L624.01,755.58 L624.72,752.84 L628.50,748.47 L629.74,749.69 L634.40,739.75 L634.45,736.91 L636.76,730.22 L637.88,729.81 L638.88,723.22 L638.29,721.19 L640.47,715.00 L640.18,713.68 L639.94,715.10 L637.82,714.90 L637.17,718.35 L635.04,720.17 L633.22,712.16 L631.92,710.84 L631.98,708.20 L633.57,708.10 L634.51,711.14 L637.35,712.46 L636.52,705.46 L637.82,703.84 L639.12,705.16 L639.82,698.67 L643.78,692.99 L647.02,681.02 L651.39,674.53 L652.10,676.76 L651.51,681.22 L650.21,682.54 L649.38,689.94 L651.27,690.76 L651.15,685.79 L653.51,682.03 L654.40,677.47 L653.63,676.76 L655.93,670.16 L657.05,667.93 L658.82,668.34 L660.12,661.64 L661.59,661.74 L664.72,653.53 L667.26,650.08 L666.61,658.70 L667.43,663.16 L664.96,670.37 L665.19,675.64 L664.31,676.15 L665.49,676.76 L666.31,683.65 L667.20,683.76 L670.15,672.09 L675.16,661.34 L674.40,653.73 L674.93,647.64 L678.35,647.44 L676.17,654.24 L679.06,647.04 L681.00,655.56 L679.12,658.70 L678.05,663.57 L676.40,661.24 L676.05,669.05 L672.86,669.96 L673.45,671.48 L672.10,673.21 L671.62,680.81 L672.33,683.96 L671.15,684.77 L672.80,686.39 L670.56,688.12 L673.45,698.16 L675.93,698.16 L675.16,701.61 L672.86,704.75 L675.05,707.29 L674.93,708.41 L674.04,707.70 L674.87,710.23 L672.33,708.91 L671.51,712.26 L669.74,711.35 L667.49,707.39 L666.31,707.80 L669.38,711.14 L669.74,713.99 L668.38,715.71 L667.97,720.88 L665.07,722.51 L665.02,717.74 L664.19,718.65 L663.30,724.53 L664.25,725.45 L665.07,723.22 L666.37,722.91 L667.14,725.45 L661.06,751.11 L660.12,752.13 L661.00,753.95 L658.17,755.37 L658.76,764.30 L656.81,767.95 L653.28,773.73 L652.15,772.11 L652.10,775.05 Z M656.22,733.97 L649.03,749.59 L654.69,738.23 L656.22,733.97 Z M609.38,762.17 L610.15,761.36 L609.38,762.98 L609.38,762.17 Z M626.14,727.88 L627.79,719.06 L631.03,716.12 L633.51,718.65 L634.28,725.85 L632.57,728.19 L629.32,739.04 L624.66,746.85 L621.89,749.39 L620.00,753.85 L616.87,756.49 L615.40,760.75 L611.68,761.56 L619.76,747.97 L620.30,739.04 L621.77,737.72 L622.83,732.55 L624.43,732.65 L623.72,728.69 L626.14,727.88 Z M607.85,724.33 L608.56,725.04 L608.20,724.94 L607.85,724.33 Z M624.96,722.81 L625.37,723.32 L625.31,724.43 L624.48,724.23 L624.96,722.81 Z M614.40,720.88 L613.98,724.03 L612.74,725.35 L612.80,722.20 L614.40,720.88 Z M609.09,724.23 L608.79,722.00 L609.97,721.90 L609.09,724.23 Z M615.16,720.78 L615.28,719.46 L615.40,720.27 L615.16,720.78 Z M611.03,719.87 L610.86,720.38 L610.50,720.27 L610.62,719.56 L611.03,719.87 Z M610.50,713.99 L611.15,711.85 L611.27,714.80 L612.57,716.93 L611.68,718.45 L610.15,716.01 L607.79,714.09 L610.50,713.99 Z M626.08,713.28 L626.90,714.19 L626.08,716.01 L625.13,715.81 L626.08,713.28 Z M628.85,715.51 L627.38,712.97 L628.02,709.72 L630.15,711.96 L630.15,714.49 L627.26,717.54 L628.85,715.51 Z M609.03,709.93 L609.50,710.84 L610.56,710.94 L610.33,712.36 L607.73,711.35 L609.03,709.93 Z M614.87,699.89 L613.92,699.89 L614.51,698.67 L614.87,699.89 Z M611.45,683.96 L613.63,683.15 L613.39,685.28 L614.28,687.21 L614.45,689.13 L613.27,685.28 L611.45,683.96 Z M610.80,685.08 L610.21,685.89 L609.74,683.45 L610.80,681.73 L611.15,683.35 L610.15,683.86 L610.80,685.08 Z M619.00,682.84 L618.41,683.96 L617.88,682.44 L618.29,682.13 L619.00,682.84 Z M629.26,683.35 L629.38,682.54 L629.74,682.54 L629.26,683.35 Z M617.29,682.44 L616.05,683.05 L616.46,684.06 L615.34,681.93 L616.52,681.02 L617.29,682.44 Z M630.74,682.13 L630.50,682.03 L630.80,681.83 L630.74,682.13 Z M630.21,681.22 L629.32,681.02 L629.62,680.61 L630.21,681.22 Z M612.98,681.52 L612.09,680.92 L611.98,679.50 L613.33,679.39 L612.98,681.52 Z M620.41,675.64 L620.06,676.96 L621.36,678.68 L619.65,682.94 L617.99,678.38 L619.71,679.90 L619.47,676.45 L620.41,675.64 Z M631.98,677.97 L632.51,680.51 L631.51,680.21 L631.98,677.97 Z M614.10,676.05 L614.51,677.57 L614.04,678.38 L613.51,676.86 L614.10,676.05 Z M615.63,677.67 L615.40,677.06 L615.69,676.45 L615.63,677.67 Z M633.57,674.02 L632.51,676.76 L632.51,675.13 L633.57,674.02 Z M609.03,676.15 L608.56,674.93 L608.73,674.22 L609.56,675.03 L609.03,676.15 Z M631.39,673.92 L630.86,675.54 L630.44,675.24 L630.97,673.51 L631.39,673.92 Z M608.20,678.58 L610.27,676.15 L610.74,670.87 L612.15,671.58 L612.98,667.32 L611.86,668.54 L611.09,666.61 L612.51,665.29 L613.63,668.64 L612.09,674.63 L611.86,678.28 L610.21,679.80 L610.38,681.83 L609.26,681.63 L609.50,679.29 L608.56,682.23 L606.08,681.22 L607.49,680.81 L607.02,678.18 L608.20,678.58 Z M621.65,675.54 L620.77,672.19 L621.18,671.58 L622.24,673.41 L621.65,675.54 Z M617.29,674.12 L616.81,674.02 L617.46,672.80 L617.29,674.12 Z M617.40,672.19 L617.76,670.67 L618.29,671.58 L618.53,673.21 L617.40,672.19 Z M632.45,671.28 L632.33,672.29 L632.21,671.48 L632.45,671.28 Z M616.64,668.34 L616.87,669.35 L615.81,675.84 L614.81,670.67 L617.11,667.12 L616.64,668.34 Z M614.04,671.99 L614.51,670.57 L614.34,671.89 L614.04,671.99 Z M631.15,667.93 L630.74,668.74 L630.44,666.82 L631.15,667.93 Z M621.77,664.89 L623.25,666.00 L622.83,670.27 L621.06,668.84 L622.42,666.51 L621.77,664.89 Z M618.11,669.66 L618.64,662.76 L619.59,664.18 L619.53,668.44 L618.11,669.66 Z M631.27,665.90 L630.97,666.51 L630.68,666.11 L630.92,665.70 L631.27,665.90 Z M614.34,663.27 L614.69,664.48 L614.16,665.40 L613.75,663.98 L614.34,663.27 Z M612.21,642.98 L613.22,646.12 L610.86,647.14 L609.62,649.57 L612.21,642.98 Z M609.44,644.30 L609.74,643.28 L609.97,643.89 L609.44,644.30 Z M610.44,643.59 L610.44,643.89 L610.09,643.89 L610.44,643.59 Z M608.67,641.96 L608.85,642.07 L608.50,642.57 L608.67,641.96 Z M610.68,641.25 L610.21,640.24 L610.50,640.44 L610.68,641.25 Z M612.45,641.15 L613.39,642.07 L612.15,642.67 L611.98,639.02 L613.16,638.31 L612.45,641.15 Z M627.20,638.62 L628.44,640.44 L627.32,641.46 L626.20,640.24 L627.20,638.62 Z M611.09,638.82 L611.33,639.43 L610.62,639.43 L611.09,638.82 Z M621.53,638.41 L621.65,639.02 L620.65,639.12 L621.53,638.41 Z M610.97,638.01 L610.74,636.79 L611.21,637.20 L610.97,638.01 Z M627.02,634.96 L627.79,637.60 L626.61,635.78 L627.02,634.96 Z M620.94,635.17 L621.48,636.18 L621.18,636.69 L620.94,635.17 Z M623.07,634.15 L623.13,635.98 L621.77,636.18 L622.01,634.66 L623.07,634.15 Z M623.89,633.44 L625.43,632.02 L624.84,633.95 L623.89,633.44 Z M627.49,632.02 L627.97,632.73 L627.79,633.65 L627.49,632.02 Z M616.70,631.31 L616.70,630.81 L616.76,631.11 L616.70,631.31 Z M614.45,627.97 L615.58,629.18 L613.39,630.10 L614.16,629.28 L613.27,627.56 L614.45,627.97 Z M630.03,626.44 L630.62,626.24 L630.50,626.85 L630.03,626.44 Z M610.62,625.43 L612.09,625.33 L613.75,623.20 L613.22,627.66 L610.09,627.86 L610.62,625.43 Z M631.68,625.43 L630.74,626.04 L630.62,624.31 L631.80,624.62 L631.68,625.43 Z M632.51,621.98 L632.80,622.28 L632.63,623.20 L632.51,621.98 Z M619.82,621.37 L619.53,620.86 L619.88,620.86 L619.82,621.37 Z M617.70,618.84 L615.93,621.37 L615.75,619.85 L616.64,618.33 L617.70,618.84 Z M620.77,618.73 L621.06,618.63 L621.06,619.04 L620.77,618.73 Z M620.59,618.63 L620.35,618.23 L620.65,618.33 L620.59,618.63 Z M618.23,617.62 L618.35,617.11 L618.35,617.72 L618.23,617.62 Z M618.70,616.10 L618.41,614.78 L618.88,614.47 L619.12,615.39 L618.70,616.10 Z M619.76,612.55 L619.41,612.14 L620.18,611.53 L619.76,612.55 Z M634.22,612.04 L633.27,612.34 L633.16,611.13 L634.04,610.42 L634.22,612.04 Z M626.14,608.18 L625.90,607.98 L626.08,607.98 L626.14,608.18 Z M625.49,607.78 L625.25,607.47 L625.66,607.37 L625.49,607.78 Z M618.23,608.08 L616.93,608.08 L617.99,605.04 L618.23,608.08 Z M641.42,921.12 L638.64,925.18 L639.17,928.33 L637.76,933.80 L633.63,939.79 L630.44,937.66 L628.91,934.82 L629.68,931.57 L631.98,929.75 L633.22,926.09 L638.17,925.18 L639.47,921.73 L639.23,919.20 L641.06,919.80 L641.42,921.12 Z M640.65,838.15 L640.06,850.01 L635.81,864.82 L633.75,876.39 L632.04,880.04 L627.67,881.66 L626.43,877.30 L629.32,874.56 L628.32,874.66 L629.09,872.64 L627.85,872.53 L628.67,871.52 L628.14,869.59 L629.85,864.32 L631.33,863.20 L634.34,849.30 L635.52,842.71 L634.93,837.94 L638.94,832.77 L640.71,822.93 L639.29,819.28 L630.62,813.80 L630.03,810.05 L631.33,802.74 L635.52,800.61 L631.21,799.30 L634.28,793.61 L637.35,791.89 L640.53,793.51 L642.48,787.63 L645.61,785.40 L646.73,786.31 L648.50,783.17 L655.81,779.51 L653.57,789.35 L655.87,784.28 L656.52,778.40 L660.35,771.60 L665.19,754.87 L663.42,752.94 L671.27,731.13 L673.45,731.23 L675.10,727.27 L676.64,727.48 L678.41,725.04 L680.24,725.35 L680.59,729.51 L678.41,732.95 L676.76,738.43 L675.64,746.65 L677.64,752.23 L680.00,752.43 L680.24,754.36 L678.88,757.50 L680.94,761.26 L674.87,769.78 L670.03,774.34 L659.12,797.77 L656.87,804.98 L656.05,811.67 L653.22,815.12 L651.98,815.02 L647.43,822.12 L642.30,834.39 L641.30,841.39 L640.65,838.15 Z M667.73,677.26 L667.61,678.28 L667.26,676.76 L667.73,677.26 Z M668.50,671.69 L668.38,673.31 L667.43,672.80 L667.73,670.77 L668.50,671.69 Z M636.93,671.38 L635.87,671.58 L635.40,670.87 L636.17,670.16 L636.93,671.38 Z M644.60,670.06 L644.84,671.18 L644.37,670.67 L644.60,670.06 Z M635.75,669.35 L635.10,668.95 L635.46,668.64 L635.75,669.35 Z M641.18,667.83 L640.83,667.22 L641.12,666.82 L641.18,667.83 Z M671.15,667.42 L670.68,667.63 L671.15,666.82 L671.15,667.42 Z M637.82,666.00 L637.76,668.54 L636.99,667.73 L637.35,665.70 L637.82,666.00 Z M642.30,666.61 L642.01,666.51 L642.48,666.51 L642.30,666.61 Z M671.62,664.08 L671.15,665.70 L670.33,664.48 L668.02,669.05 L667.55,670.47 L667.73,662.25 L668.61,662.66 L668.79,664.99 L669.74,662.45 L668.50,659.72 L669.15,658.40 L671.15,660.53 L671.62,664.08 Z M638.58,661.03 L640.53,664.58 L639.41,666.00 L639.47,664.58 L637.11,661.24 L638.58,661.03 Z M635.69,664.38 L634.99,664.18 L635.28,662.05 L635.81,662.45 L635.69,664.38 Z M653.69,661.24 L653.33,663.67 L651.92,660.83 L653.57,660.22 L653.69,661.24 Z M640.53,662.45 L640.06,661.14 L641.12,660.93 L641.30,662.35 L640.53,662.45 Z M634.10,660.83 L635.04,659.41 L634.75,661.24 L634.10,660.83 Z M642.42,659.41 L642.30,660.02 L641.89,659.51 L642.42,659.41 Z M641.12,658.40 L641.00,659.21 L639.47,658.09 L640.30,656.17 L641.12,658.40 Z M646.61,656.77 L645.90,658.30 L644.96,656.88 L646.61,656.77 Z M647.32,656.77 L647.08,657.59 L646.73,657.08 L647.32,656.77 Z M645.37,654.24 L644.19,656.57 L644.84,657.69 L643.42,659.31 L643.89,656.27 L643.19,653.83 L645.84,653.02 L647.20,655.66 L646.43,654.44 L645.37,654.24 Z M655.46,656.37 L655.46,655.56 L656.34,655.25 L655.46,656.37 Z M647.32,656.27 L648.38,654.64 L648.50,655.76 L647.32,656.27 Z M672.21,653.53 L672.92,659.01 L672.10,661.14 L669.56,656.88 L669.56,651.40 L670.15,650.28 L670.74,653.32 L670.56,651.90 L671.27,652.92 L672.63,649.06 L672.33,651.40 L673.22,651.80 L672.21,653.53 Z M649.15,654.74 L648.56,654.54 L648.97,654.34 L649.15,654.74 Z M638.76,652.21 L639.23,653.32 L638.70,656.57 L637.05,653.53 L638.64,653.43 L638.76,652.21 Z M650.09,652.11 L649.85,651.90 L650.86,651.19 L650.09,652.11 Z M651.33,650.08 L652.39,650.59 L651.68,651.60 L651.39,653.12 L651.33,650.08 Z M652.15,648.76 L652.15,649.47 L651.74,649.06 L652.15,648.76 Z M659.88,643.99 L659.71,641.76 L660.77,639.73 L662.01,643.49 L661.12,645.01 L660.77,643.69 L659.76,646.63 L658.41,644.30 L659.88,643.99 Z M662.30,640.54 L662.24,641.46 L661.48,641.05 L661.83,640.24 L662.30,640.54 Z M642.12,637.60 L640.83,636.79 L641.77,636.89 L641.53,635.27 L643.84,636.79 L642.12,637.60 Z M669.26,635.88 L669.50,638.21 L668.14,639.22 L667.02,637.80 L668.38,633.54 L669.26,635.88 Z M663.54,631.01 L662.42,634.25 L664.37,635.78 L664.96,638.92 L663.36,637.70 L662.12,638.62 L661.95,636.99 L660.06,636.18 L660.24,639.02 L659.12,638.51 L659.29,640.85 L657.52,641.96 L655.40,646.93 L653.63,646.43 L652.92,643.69 L649.85,641.46 L649.38,642.47 L652.57,647.14 L649.32,649.27 L650.50,647.24 L648.26,646.93 L648.08,650.18 L649.50,652.82 L647.79,651.40 L645.96,652.72 L644.54,651.09 L642.30,653.12 L641.30,651.80 L643.54,649.17 L646.31,651.40 L645.72,649.06 L644.31,648.96 L644.43,647.64 L645.25,647.95 L643.66,646.93 L643.72,645.21 L645.84,643.89 L647.32,640.64 L649.85,641.15 L650.50,639.33 L649.32,639.02 L650.50,639.02 L651.03,636.89 L654.63,634.96 L656.28,636.08 L655.34,634.15 L661.00,624.92 L660.71,623.10 L661.71,621.17 L660.65,621.17 L660.47,619.24 L665.02,621.57 L662.83,623.30 L662.42,627.36 L665.78,623.40 L666.55,625.12 L665.84,627.25 L664.66,626.34 L665.66,628.37 L666.96,628.27 L666.79,631.01 L664.72,634.66 L663.54,631.01 Z M641.18,635.17 L640.59,637.09 L639.82,636.28 L640.53,634.46 L641.18,635.17 Z M669.50,633.34 L670.33,630.30 L671.27,633.44 L670.92,635.67 L669.50,633.34 Z M669.03,632.43 L669.20,632.94 L668.85,632.53 L669.03,632.43 Z M647.73,630.91 L648.61,632.02 L648.14,634.25 L645.55,633.85 L647.02,633.65 L647.73,630.91 Z M680.30,635.27 L679.41,641.56 L678.23,642.67 L673.98,638.51 L674.16,635.07 L673.39,633.75 L676.70,624.62 L678.58,622.39 L679.59,622.69 L679.29,633.65 L680.30,635.27 Z M649.79,631.31 L649.91,630.81 L650.38,631.72 L649.79,631.31 Z M673.33,631.11 L673.04,632.12 L673.33,629.39 L673.69,630.30 L673.33,631.11 Z M638.23,627.66 L641.36,626.54 L639.35,630.20 L637.70,630.10 L638.23,627.66 Z M653.81,630.70 L652.63,626.95 L649.74,627.36 L648.61,626.14 L651.03,626.95 L654.28,625.53 L655.22,628.47 L653.81,630.70 Z M672.98,624.01 L673.81,624.11 L674.51,624.82 L674.46,625.73 L673.39,625.94 L672.98,624.01 Z M650.09,624.21 L649.79,624.21 L649.85,623.70 L650.09,624.21 Z M654.87,623.60 L655.28,622.08 L655.99,622.69 L655.16,623.20 L654.87,623.60 Z M659.29,622.79 L659.06,622.39 L659.35,622.39 L659.29,622.79 Z M675.05,622.39 L675.40,622.28 L675.46,622.69 L675.05,622.39 Z M653.57,617.31 L654.10,622.69 L653.10,622.99 L651.98,620.86 L650.86,621.88 L649.38,621.68 L647.08,625.02 L644.54,624.01 L643.36,620.56 L645.37,618.84 L647.08,619.34 L646.55,622.08 L647.61,623.20 L647.91,617.62 L653.57,617.31 Z M658.53,619.95 L658.94,618.53 L659.76,621.27 L658.53,619.95 Z M636.46,614.88 L636.46,615.49 L636.17,615.59 L636.46,614.88 Z M644.31,614.58 L644.31,613.76 L645.07,613.66 L645.13,614.47 L644.31,614.58 Z M636.76,614.07 L636.87,613.46 L637.11,614.07 L636.76,614.07 Z M635.87,610.52 L636.05,610.01 L636.05,610.82 L635.87,610.52 Z M635.63,609.10 L635.28,609.91 L634.75,608.89 L635.63,609.10 Z M640.24,607.98 L638.35,609.50 L637.64,607.98 L636.34,609.40 L636.93,606.66 L640.24,607.98 Z M654.28,603.42 L654.99,605.95 L653.81,605.85 L653.22,604.94 L654.28,603.42 Z M640.12,602.00 L642.36,602.30 L642.66,603.82 L640.89,606.87 L639.23,606.76 L639.76,604.63 L639.00,603.62 L640.12,602.00 Z M641.24,599.97 L640.94,599.77 L641.12,599.66 L641.24,599.97 Z M640.53,598.75 L640.41,598.95 L640.30,598.55 L640.53,598.75 Z M644.60,598.85 L646.43,598.04 L646.43,596.82 L646.79,599.16 L644.66,600.27 L644.60,598.85 Z M635.52,597.33 L635.58,596.52 L635.75,596.92 L635.52,597.33 Z M684.72,610.11 L679.71,604.43 L674.93,605.75 L670.74,604.53 L672.15,607.37 L673.28,605.34 L674.22,607.37 L676.64,606.16 L677.64,608.08 L679.00,606.76 L680.83,607.68 L681.95,612.14 L680.18,614.78 L680.77,616.10 L680.06,619.24 L679.47,618.43 L680.18,615.89 L679.29,617.82 L675.40,619.34 L674.40,621.47 L672.57,621.57 L672.10,624.31 L668.97,625.83 L668.79,627.66 L667.85,627.36 L666.55,622.49 L667.02,619.44 L666.02,618.84 L667.08,615.79 L665.55,615.18 L664.48,616.91 L663.72,615.18 L663.01,616.20 L659.94,613.46 L662.95,612.95 L661.59,608.79 L662.60,605.95 L661.30,606.87 L660.47,601.90 L662.77,600.68 L661.36,603.62 L662.36,605.04 L663.72,604.33 L664.13,607.78 L664.72,602.61 L666.20,604.23 L668.50,602.91 L668.61,601.69 L667.26,602.20 L668.61,600.07 L669.56,600.88 L669.56,598.85 L667.08,600.07 L666.25,602.20 L665.55,601.19 L666.55,598.14 L666.02,596.82 L668.61,596.01 L668.26,593.37 L671.09,594.19 L672.39,587.59 L672.10,584.24 L674.34,577.55 L677.17,573.39 L679.29,572.99 L677.99,578.06 L682.24,580.29 L686.84,574.10 L691.15,572.58 L694.16,565.99 L692.45,571.16 L691.92,578.06 L693.28,582.72 L689.15,586.17 L689.44,587.39 L688.38,589.72 L689.15,589.32 L689.38,591.14 L689.56,588.00 L692.04,585.77 L687.67,602.30 L686.79,603.82 L685.96,602.81 L686.96,607.58 L684.72,610.11 Z M644.96,595.10 L645.02,595.71 L644.48,595.91 L644.48,595.20 L644.96,595.10 Z M647.85,589.93 L647.20,590.74 L646.55,588.91 L647.43,588.91 L647.85,589.93 Z M667.67,583.23 L668.26,583.53 L668.50,586.78 L667.38,585.16 L667.14,581.91 L667.67,583.23 Z M656.64,581.30 L656.11,580.49 L657.05,579.48 L657.29,580.39 L656.64,581.30 Z M669.91,577.96 L669.50,576.54 L670.62,574.91 L670.44,578.16 L669.91,577.96 Z M673.87,577.25 L673.75,576.23 L674.16,575.52 L674.57,576.13 L673.87,577.25 Z M667.02,489.20 L669.03,493.66 L665.49,491.23 L667.02,491.33 L667.02,489.20 Z M671.33,435.33 L670.44,436.35 L666.84,433.71 L671.51,434.42 L672.51,436.35 L671.33,435.33 Z M678.35,429.45 L678.53,428.84 L678.70,429.04 L678.35,429.45 Z M664.90,427.22 L663.89,426.30 L664.13,425.29 L665.07,425.19 L664.90,427.22 Z M667.97,430.26 L668.56,429.25 L667.79,430.16 L667.14,428.74 L667.61,427.01 L667.97,428.03 L668.61,425.59 L670.03,426.10 L668.50,425.29 L666.08,427.72 L666.08,425.29 L667.61,424.48 L666.43,424.28 L667.67,422.35 L670.74,421.64 L670.56,420.52 L673.04,418.60 L671.92,423.16 L672.04,423.87 L671.39,423.77 L672.92,427.22 L672.27,428.84 L672.92,427.62 L674.10,429.96 L672.21,433.41 L671.27,433.20 L670.80,431.07 L669.15,432.09 L667.97,430.26 Z M679.82,409.77 L677.82,410.78 L676.28,409.26 L676.99,411.60 L674.69,410.18 L674.99,411.90 L673.69,414.13 L670.68,416.67 L668.02,412.31 L670.03,417.58 L668.73,418.39 L665.07,415.45 L665.25,416.47 L663.78,416.47 L666.90,417.38 L668.44,419.10 L668.61,419.81 L666.31,420.83 L665.61,422.75 L664.48,421.33 L665.13,423.77 L662.42,424.78 L659.35,416.47 L660.83,414.44 L659.23,415.86 L658.35,411.60 L661.12,407.03 L661.71,408.96 L662.24,406.93 L663.42,407.44 L662.42,406.32 L662.71,404.19 L666.08,406.02 L664.90,408.55 L665.78,408.15 L666.73,406.42 L674.34,408.96 L674.87,406.32 L676.17,407.34 L676.64,405.51 L677.23,408.25 L679.71,408.05 L679.82,409.77 Z M674.28,406.73 L674.40,407.13 L673.98,406.83 L674.28,406.73 Z M681.18,656.17 L681.83,654.85 L682.01,656.67 L681.18,656.17 Z M683.13,654.95 L683.25,651.30 L683.72,652.31 L683.13,654.95 Z M684.48,702.32 L683.25,693.60 L687.20,682.34 L686.49,678.99 L688.20,670.47 L691.03,662.76 L695.40,656.67 L694.16,650.79 L696.46,636.69 L695.40,631.11 L696.70,620.86 L702.66,607.27 L702.83,604.84 L705.49,603.01 L716.40,576.33 L722.24,565.99 L721.71,571.36 L717.23,585.36 L715.81,596.01 L713.57,602.10 L713.16,608.69 L709.85,621.27 L709.56,627.76 L705.96,638.92 L703.66,642.98 L703.95,652.01 L702.36,661.64 L699.06,664.69 L697.17,668.64 L695.16,689.44 L690.56,714.59 L686.96,720.88 L683.36,724.33 L682.30,723.11 L681.89,719.77 L683.48,708.20 L684.84,705.57 L685.90,707.19 L687.61,706.68 L688.26,703.64 L684.48,702.32 Z M685.37,629.28 L685.43,625.43 L685.84,627.66 L685.37,629.28 Z M688.08,624.11 L689.20,625.63 L689.44,630.10 L686.79,628.17 L686.67,624.82 L688.08,624.11 Z M690.50,612.14 L688.79,616.10 L687.49,612.24 L690.21,607.98 L690.50,612.14 Z M691.45,602.61 L692.21,605.85 L690.62,607.37 L690.80,603.82 L691.45,602.61 Z M693.51,601.59 L694.81,600.37 L695.28,603.52 L693.87,608.18 L693.10,606.87 L693.51,601.59 Z M694.16,599.56 L695.16,595.00 L695.34,590.74 L697.41,591.04 L695.05,599.66 L694.16,599.56 Z M703.07,583.03 L702.77,579.98 L704.60,579.07 L704.07,582.22 L703.07,583.03 Z M712.80,578.26 L713.51,579.48 L712.39,580.39 L711.98,578.87 L712.80,578.26 Z M707.91,571.46 L706.43,572.38 L705.96,569.94 L706.79,567.91 L709.26,570.65 L709.20,572.07 L708.50,573.49 L707.91,571.46 Z M710.03,567.00 L710.56,568.12 L709.32,570.25 L708.61,568.52 L709.74,565.99 L710.03,567.00 Z M708.56,564.97 L709.32,566.19 L708.02,568.42 L707.43,566.19 L708.32,566.80 L708.50,563.96 L709.91,563.25 L708.56,564.97 Z M711.51,564.77 L711.03,566.39 L710.74,564.46 L711.51,564.77 Z M710.09,564.06 L710.27,564.36 L710.03,564.67 L710.09,564.06 Z M685.43,555.33 L684.37,556.04 L687.49,557.36 L692.15,551.68 L693.92,554.73 L693.81,557.06 L691.62,560.61 L691.03,564.06 L687.32,566.80 L682.95,573.39 L679.65,572.07 L678.17,569.13 L677.94,563.96 L681.71,559.49 L681.48,557.87 L680.59,558.18 L683.54,553.91 L685.43,553.10 L685.43,555.33 Z M700.06,558.48 L699.71,559.49 L698.35,561.62 L697.05,561.93 L697.46,559.80 L700.06,558.48 Z M729.32,559.39 L730.27,553.00 L733.81,550.47 L730.09,559.49 L729.32,559.39 Z M694.51,539.21 L696.70,539.10 L698.23,535.15 L698.23,539.31 L695.75,542.05 L695.81,545.90 L693.28,549.86 L692.98,542.15 L694.51,539.21 Z M738.47,529.37 L738.23,525.92 L739.23,524.80 L738.94,517.80 L738.23,517.09 L739.12,512.12 L737.23,509.18 L737.29,503.80 L740.47,500.36 L740.30,496.50 L742.60,495.38 L745.49,482.20 L749.74,475.50 L752.10,475.20 L752.57,477.73 L748.26,486.46 L746.84,505.83 L744.25,514.56 L742.01,528.96 L742.95,546.00 L737.46,553.61 L736.05,550.87 L736.40,545.50 L738.47,544.08 L737.05,543.77 L736.82,541.84 L736.34,544.08 L736.28,539.41 L738.47,529.37 Z M717.35,511.41 L718.35,509.28 L719.12,510.70 L718.41,512.63 L717.35,511.41 Z M720.24,497.92 L720.00,502.38 L717.17,508.17 L716.99,511.82 L714.57,519.12 L714.16,517.80 L716.11,511.21 L717.29,504.31 L720.24,497.92 Z M691.98,480.98 L687.43,483.62 L684.37,484.73 L694.93,474.08 L697.35,474.08 L691.98,480.98 Z M754.93,464.85 L756.87,462.72 L758.17,457.14 L760.12,455.82 L760.30,458.66 L755.69,466.88 L755.34,469.62 L752.69,470.43 L752.63,468.71 L754.10,468.10 L754.93,464.85 Z M699.88,460.90 L701.06,457.24 L702.42,458.06 L703.42,456.43 L704.54,458.46 L704.01,459.78 L699.65,464.04 L696.23,464.95 L694.99,466.78 L691.86,466.78 L692.39,463.94 L694.57,463.84 L696.23,460.79 L696.70,462.01 L698.05,460.49 L699.88,460.90 Z M712.10,463.43 L711.74,461.71 L714.81,458.97 L715.10,459.78 L713.57,462.82 L712.10,463.43 Z M698.47,458.26 L697.76,457.55 L698.23,456.63 L698.94,457.34 L698.47,458.26 Z M702.95,455.11 L704.01,454.00 L703.89,455.62 L703.13,455.82 L702.95,455.11 Z M698.59,451.26 L699.00,454.50 L698.17,454.30 L697.17,452.68 L698.59,451.26 Z M720.30,453.39 L727.79,447.91 L727.73,449.43 L724.54,453.08 L724.54,456.53 L722.66,457.55 L720.83,456.33 L720.30,453.39 Z M710.09,454.71 L706.73,451.97 L711.80,446.69 L705.02,449.94 L701.65,453.69 L700.53,452.88 L700.53,454.40 L699.00,453.29 L700.06,449.74 L701.48,450.04 L701.89,447.81 L708.08,444.56 L707.97,442.33 L708.61,443.35 L709.26,441.42 L711.68,440.61 L713.04,442.03 L712.98,437.87 L713.98,439.09 L716.40,438.38 L715.22,436.35 L715.99,434.42 L717.05,433.91 L718.00,435.54 L721.65,434.42 L723.19,432.90 L722.36,430.26 L726.84,427.83 L729.50,429.25 L718.59,440.71 L723.60,439.39 L728.56,434.93 L728.61,436.25 L722.07,442.84 L719.06,443.85 L714.81,449.53 L712.27,453.49 L713.33,456.43 L709.56,457.14 L710.09,454.71 Z M688.73,433.00 L686.84,432.19 L686.43,430.87 L688.73,433.00 Z M748.02,433.10 L747.97,429.65 L749.03,429.14 L751.09,429.96 L748.02,433.10 Z M752.10,423.77 L753.28,423.67 L752.98,424.88 L751.92,425.39 L752.10,423.77 Z M685.19,413.32 L685.55,411.90 L693.10,422.65 L695.34,423.16 L695.46,425.59 L697.64,427.62 L696.17,428.64 L691.68,427.52 L691.56,425.29 L690.86,427.42 L689.62,427.12 L691.15,430.67 L684.25,430.57 L683.89,428.33 L684.84,428.84 L684.13,427.62 L682.36,428.64 L683.60,430.26 L682.54,433.30 L680.47,432.39 L680.12,436.04 L675.99,434.93 L675.64,432.29 L676.58,431.17 L677.82,432.80 L677.29,430.46 L678.76,431.58 L678.47,429.86 L679.65,429.65 L678.88,429.04 L680.30,428.23 L680.30,426.20 L681.65,426.10 L680.30,426.00 L680.77,424.28 L680.06,424.38 L679.12,428.33 L677.40,424.38 L676.99,426.20 L677.99,428.23 L674.99,430.26 L675.16,427.52 L673.45,427.22 L673.81,426.20 L672.80,425.19 L673.63,424.88 L672.74,424.99 L672.15,422.45 L673.16,419.31 L674.75,421.33 L673.69,419.51 L674.46,419.20 L673.45,419.10 L675.46,416.26 L675.81,417.58 L675.75,415.96 L677.05,416.87 L676.76,415.65 L678.17,416.26 L682.54,413.12 L685.19,413.32 Z M753.39,423.06 L758.05,422.25 L760.00,419.81 L760.00,421.44 L758.00,423.57 L753.39,423.06 Z M732.45,422.55 L730.33,422.86 L729.26,420.93 L727.91,421.33 L732.15,415.65 L733.16,418.09 L732.45,422.55 Z M740.24,407.64 L741.48,405.61 L745.07,408.25 L744.31,410.58 L741.06,412.61 L736.82,418.70 L734.10,420.32 L733.98,414.13 L734.87,411.80 L736.46,413.32 L736.46,411.29 L739.00,408.55 L740.00,411.39 L741.36,409.06 L740.24,407.64 Z M764.31,413.93 L764.96,410.28 L767.67,410.07 L765.25,413.93 L764.31,413.93 Z M713.81,406.52 L715.58,407.64 L716.23,408.65 L712.80,409.97 L712.69,406.73 L713.81,406.52 Z M734.99,423.97 L747.91,408.86 L745.84,408.05 L744.19,404.09 L745.49,403.48 L747.43,398.81 L748.97,399.93 L749.85,398.31 L749.97,400.95 L750.68,400.95 L751.45,399.42 L750.62,397.19 L753.04,398.61 L753.04,395.06 L763.42,388.57 L763.95,389.48 L761.48,393.74 L762.07,394.25 L763.95,393.24 L757.76,399.63 L756.99,399.22 L758.70,397.19 L756.99,398.10 L754.46,401.86 L755.69,402.37 L754.10,404.80 L734.99,423.97 Z M721.00,400.54 L721.12,403.28 L721.71,404.39 L720.18,402.77 L720.00,400.54 L721.00,400.54 Z M693.16,400.95 L694.81,402.26 L694.81,402.87 L692.98,401.55 L693.16,400.95 Z M689.91,398.21 L693.45,403.58 L692.27,403.99 L691.39,405.31 L690.56,403.79 L689.79,405.51 L688.61,403.48 L688.26,399.12 L689.32,398.41 L689.62,399.83 L690.09,401.15 L689.91,398.21 Z M692.98,401.35 L692.69,401.15 L692.86,401.05 L692.98,401.35 Z M719.29,399.52 L719.94,398.92 L719.65,400.13 L719.29,399.52 Z M709.09,398.71 L708.91,399.83 L707.97,398.71 L709.09,398.71 Z M710.50,398.00 L711.92,397.09 L712.33,397.60 L711.74,399.02 L710.50,398.00 Z M733.75,389.08 L732.51,388.27 L733.16,386.85 L734.28,388.27 L733.75,389.08 Z M716.64,386.24 L716.93,387.96 L715.34,387.05 L716.64,386.24 Z M741.95,384.51 L738.53,383.40 L739.18,382.18 L741.83,383.40 L741.95,384.51 Z M736.34,380.76 L736.76,378.73 L737.76,378.93 L738.00,383.70 L736.46,382.58 L736.34,380.76 Z M724.48,375.69 L724.60,377.31 L724.07,377.11 L723.66,375.69 L724.48,375.69 Z M755.05,356.72 L755.99,356.51 L756.52,358.44 L755.05,356.72 Z M755.93,346.17 L757.46,346.27 L756.46,348.60 L755.93,346.17 Z M747.91,346.27 L748.20,346.98 L747.85,346.68 L747.91,346.27 Z M748.44,344.44 L749.20,344.85 L748.79,345.86 L747.97,344.04 L748.44,344.44 Z M757.17,345.05 L756.70,344.75 L757.23,344.34 L757.17,345.05 Z M750.15,345.36 L749.32,344.75 L749.20,342.62 L750.21,342.82 L750.15,345.36 Z M748.26,342.82 L748.08,343.63 L747.73,342.62 L748.26,342.82 Z M776.93,340.99 L777.05,338.15 L779.41,336.73 L778.64,341.91 L778.00,342.72 L776.93,340.99 Z M758.59,340.28 L757.94,339.78 L759.12,338.56 L758.59,340.28 Z M758.76,337.65 L757.29,336.84 L758.47,335.62 L758.76,337.65 Z M779.00,334.20 L778.00,333.18 L778.00,332.27 L779.18,333.08 L779.00,334.20 Z M795.81,327.10 L790.09,326.59 L789.09,325.27 L789.50,322.63 L788.50,318.98 L796.82,315.74 L799.18,319.69 L799.65,322.94 L799.23,324.87 L797.94,322.94 L795.81,327.10 Z M792.63,739.34 L791.15,744.42 L791.21,748.07 L788.73,751.42 L786.96,750.50 L785.84,752.33 L791.68,736.50 L793.28,735.59 L799.12,726.06 L799.23,719.77 L795.87,712.26 L789.32,704.96 L783.78,702.73 L785.08,696.33 L783.36,693.60 L781.36,693.60 L781.36,688.12 L788.79,671.28 L792.21,669.25 L792.92,673.71 L795.81,678.28 L799.65,677.67 L800.24,681.32 L807.73,696.23 L810.86,701.20 L813.81,702.83 L814.28,705.57 L812.80,710.94 L810.56,713.17 L809.56,714.70 L809.32,720.48 L810.86,722.40 L809.74,725.45 L804.96,729.00 L804.37,732.45 L802.42,733.46 L801.06,737.52 L799.12,739.45 L796.52,737.62 L792.63,739.34 Z M804.47,704.99 L806.92,707.66 L806.14,706.48 L805.37,704.96 L804.47,704.99 Z M813.69,716.52 L816.11,719.36 L817.29,719.67 L815.87,721.69 L812.74,719.87 L813.69,716.52 Z M822.07,710.54 L821.89,707.19 L823.60,706.07 L824.31,710.03 L822.07,710.54 Z M842.42,689.23 L843.01,694.31 L840.12,693.60 L839.06,695.83 L839.47,697.75 L837.76,696.74 L837.17,699.28 L835.64,699.48 L834.16,706.48 L835.93,708.00 L835.99,710.13 L833.45,712.16 L829.68,710.23 L828.91,715.10 L825.78,717.33 L824.54,713.38 L826.49,711.14 L826.96,706.88 L824.90,698.97 L827.67,692.78 L826.31,690.45 L827.73,687.61 L830.21,676.35 L833.75,672.90 L836.76,661.95 L840.71,661.64 L840.77,657.59 L844.54,648.86 L845.90,648.15 L850.27,653.32 L852.39,648.96 L854.57,647.34 L856.64,648.56 L858.70,653.53 L858.23,662.45 L860.12,663.67 L859.29,666.51 L853.87,670.98 L853.28,675.95 L850.98,674.42 L847.08,682.23 L844.84,682.34 L845.31,685.28 L843.78,684.87 L842.42,689.23 Z M820.00,658.60 L819.35,659.92 L818.29,660.12 L818.59,657.28 L819.59,656.77 L820.00,658.60 Z M833.57,655.66 L835.40,654.34 L836.93,655.56 L836.58,659.92 L835.05,661.95 L833.57,655.66 Z M810.27,646.83 L812.21,655.15 L808.62,656.57 L809.62,657.59 L808.91,659.11 L804.49,661.85 L799.59,661.24 L800.41,657.79 L800.36,649.57 L803.90,644.20 L807.14,644.09 L809.44,641.35 L810.50,643.28 L810.27,646.83 Z M793.98,645.31 L795.16,644.09 L796.05,641.35 L797.11,644.91 L793.98,645.31 Z M853.45,641.05 L851.80,642.17 L851.62,641.05 L852.92,639.93 L853.45,641.05 Z M858.64,639.33 L859.65,632.02 L860.65,631.52 L861.30,634.76 L860.95,638.41 L858.64,639.33 Z M807.55,623.60 L805.67,626.04 L804.37,622.89 L806.08,620.76 L806.49,617.72 L807.38,617.11 L807.55,623.60 Z M834.40,617.92 L834.87,617.72 L834.93,618.73 L834.40,618.84 L834.40,617.92 Z M835.75,590.84 L838.11,588.20 L837.88,589.52 L835.75,590.84 Z M823.72,586.98 L827.67,584.85 L828.91,583.43 L829.03,578.26 L830.62,578.06 L832.10,575.52 L834.51,577.96 L834.46,582.22 L831.68,582.32 L824.54,589.52 L823.36,588.40 L823.72,586.98 Z M823.78,563.04 L820.83,561.62 L822.72,560.51 L823.78,563.04 Z M857.58,560.10 L857.64,562.74 L856.99,562.33 L856.34,560.31 L857.58,560.10 Z M823.84,560.31 L822.77,560.51 L823.42,559.70 L823.84,560.31 Z M819.77,560.61 L817.70,562.64 L817.88,561.12 L819.12,560.41 L820.59,556.76 L820.77,561.32 L819.77,560.61 Z M821.89,560.00 L822.54,558.58 L822.54,559.60 L821.89,560.00 Z M821.83,554.22 L822.18,555.23 L821.30,556.96 L821.83,554.22 Z M852.69,556.65 L850.15,556.35 L849.56,549.55 L851.15,550.47 L852.69,556.65 Z M822.30,553.20 L822.36,552.19 L822.54,552.70 L822.30,553.20 Z M861.59,543.67 L863.78,545.39 L864.07,547.02 L862.83,552.09 L859.88,544.18 L861.59,543.67 Z M846.55,543.97 L848.44,543.37 L848.79,544.18 L848.20,544.79 L846.55,543.97 Z M855.16,538.29 L852.10,538.80 L853.75,534.24 L858.76,529.87 L860.12,532.00 L858.82,534.74 L855.16,538.29 Z M860.12,527.13 L859.06,527.34 L857.82,529.27 L858.59,527.13 L862.42,524.50 L861.48,526.93 L861.77,530.58 L858.88,529.57 L860.18,528.35 L860.12,527.13 Z M950.62,501.17 L946.31,499.85 L950.15,494.47 L952.86,498.73 L951.62,502.08 L950.62,501.17 Z M945.96,485.34 L945.08,486.36 L945.02,485.44 L945.96,485.34 Z M948.73,487.37 L947.97,487.88 L946.96,483.41 L949.32,484.23 L948.73,487.37 Z M914.04,456.23 L911.03,456.84 L909.21,452.58 L909.68,450.65 L915.28,444.46 L924.31,439.90 L924.37,441.72 L926.02,441.42 L925.49,443.75 L927.38,448.32 L929.38,448.52 L927.73,450.65 L928.20,456.23 L926.61,458.46 L927.44,459.68 L923.01,459.88 L921.12,457.55 L918.65,460.19 L914.22,459.88 L914.04,456.23 Z M813.51,393.84 L815.75,391.61 L819.35,393.84 L816.05,396.28 L810.09,396.18 L807.91,395.16 L795.81,406.63 L793.45,405.51 L793.04,402.26 L795.16,397.60 L802.07,393.34 L809.56,394.25 L812.45,392.53 L813.51,393.84 Z M820.12,356.51 L811.62,361.79 L809.32,366.05 L807.32,365.85 L807.38,364.73 L807.97,365.44 L807.73,363.51 L806.90,364.73 L806.96,366.15 L805.08,365.64 L805.02,367.77 L804.13,366.35 L801.65,370.21 L797.76,371.73 L795.93,375.69 L794.51,374.88 L792.63,376.80 L790.74,382.58 L786.37,382.79 L781.77,386.64 L782.83,382.38 L783.90,382.28 L783.07,381.27 L783.84,379.44 L781.18,378.63 L782.30,376.60 L779.35,377.72 L773.04,385.73 L765.43,388.47 L765.72,386.34 L778.35,375.18 L779.23,376.70 L781.59,371.73 L790.03,362.91 L794.63,360.78 L796.87,357.63 L800.65,356.01 L802.83,357.12 L800.30,359.96 L806.73,355.30 L803.36,356.92 L804.90,352.25 L815.64,342.92 L818.94,337.65 L823.60,335.82 L826.43,332.17 L831.56,330.24 L831.98,331.66 L833.75,331.16 L833.28,333.79 L834.40,335.21 L835.75,335.11 L835.75,336.73 L833.81,336.73 L829.03,343.43 L826.02,343.63 L823.42,348.70 L823.01,352.25 L821.95,352.46 L821.12,350.53 L820.12,356.51 Z M888.20,330.04 L887.85,328.92 L885.61,328.92 L888.03,330.14 L887.02,331.26 L883.42,328.11 L869.09,331.56 L858.05,340.18 L849.32,349.52 L846.96,344.04 L848.85,336.84 L851.03,334.91 L851.39,330.65 L853.10,331.05 L853.63,334.00 L852.75,335.92 L851.57,334.40 L851.39,337.55 L849.56,338.97 L849.38,341.20 L852.45,339.57 L852.33,337.34 L855.34,338.56 L860.53,332.07 L861.65,335.11 L867.67,330.24 L865.55,328.72 L865.13,329.94 L864.43,328.21 L864.07,329.94 L862.83,329.43 L862.77,332.37 L862.54,330.04 L860.65,327.60 L860.71,330.75 L858.35,328.92 L855.81,330.85 L854.40,328.11 L856.46,324.46 L855.64,321.21 L859.06,320.40 L860.00,322.03 L860.00,320.30 L859.12,320.30 L859.94,319.90 L855.81,320.10 L855.64,316.55 L853.04,315.23 L848.85,318.48 L845.96,323.04 L838.64,323.85 L845.13,318.27 L845.78,315.53 L848.91,313.91 L848.79,315.84 L849.50,315.63 L855.22,311.37 L854.87,309.75 L859.41,307.01 L862.89,308.64 L864.66,306.10 L872.92,304.27 L877.23,306.71 L883.01,306.40 L883.01,307.42 L883.60,307.72 L884.84,305.29 L896.23,300.93 L905.02,295.75 L911.21,294.74 L917.64,290.99 L933.28,290.48 L936.23,288.96 L939.88,290.68 L942.13,289.26 L943.36,290.88 L939.88,293.42 L939.77,298.09 L936.40,299.00 L935.05,297.17 L934.99,299.40 L931.98,299.10 L932.33,302.25 L930.80,303.16 L930.86,301.23 L929.80,303.46 L929.32,302.25 L926.02,307.62 L920.83,310.16 L914.75,319.39 L912.04,325.47 L911.51,329.33 L906.67,332.78 L903.19,332.07 L898.11,328.11 L897.88,328.92 L898.23,326.39 L894.75,325.78 L888.20,330.04 Z M895.40,304.38 L895.40,306.21 L896.23,300.93 L895.40,304.38 Z M849.15,313.20 L849.50,311.48 L851.45,311.98 L849.97,313.40 L849.15,313.20 Z M802.83,302.35 L802.13,302.14 L802.42,305.19 L800.47,304.98 L799.12,300.22 L799.59,299.30 L801.18,301.84 L803.48,297.58 L803.90,299.51 L802.89,299.71 L802.83,302.35 Z M882.83,282.36 L884.96,282.36 L886.14,289.06 L884.07,290.58 L883.42,288.65 L883.84,291.29 L884.49,291.19 L880.18,292.81 L880.06,289.06 L879.88,292.71 L877.52,292.10 L874.04,288.96 L875.05,287.74 L873.34,288.15 L872.16,281.75 L871.09,283.99 L872.04,289.16 L871.09,284.19 L869.97,284.29 L867.67,285.81 L867.49,287.94 L865.72,289.77 L858.94,292.51 L862.66,282.36 L870.33,271.91 L870.09,273.23 L872.86,272.52 L876.23,272.93 L872.10,280.33 L874.93,278.20 L876.34,274.65 L876.46,275.87 L886.37,277.70 L885.19,278.81 L885.49,281.45 L882.83,282.36 Z M881.95,270.19 L881.00,272.62 L880.30,271.31 L881.06,269.38 L881.95,270.19 Z M885.90,269.38 L886.49,271.71 L884.54,269.89 L885.90,269.38 Z M917.76,264.00 L919.88,264.21 L918.47,266.03 L917.58,264.81 L917.76,264.00 Z M915.52,262.28 L916.70,266.84 L914.93,262.99 L914.34,255.68 L914.75,255.38 L916.29,258.63 L915.58,257.41 L915.34,258.83 L916.88,264.41 L915.52,262.28 Z M924.13,260.45 L923.54,259.44 L924.49,260.55 L924.13,260.45 Z M923.84,259.13 L923.66,259.03 L923.78,258.63 L923.84,259.13 Z M923.07,258.22 L923.19,258.02 L923.60,258.42 L923.07,258.22 Z M918.76,263.80 L917.70,261.97 L917.17,257.10 L919.65,259.13 L917.70,256.09 L917.29,253.05 L917.58,251.73 L917.88,251.93 L918.76,253.86 L918.00,252.34 L917.88,254.87 L920.77,258.93 L921.24,261.87 L920.18,260.25 L920.53,261.87 L919.82,260.55 L918.70,261.26 L918.82,259.34 L918.41,260.76 L917.76,259.84 L918.76,263.80 Z M921.65,257.51 L922.01,256.50 L922.30,258.12 L922.83,258.73 L921.65,257.51 Z M921.00,256.60 L921.59,257.21 L921.30,257.21 L921.00,256.60 Z M921.06,255.28 L921.59,256.50 L920.89,255.99 L921.06,255.28 Z M914.10,253.55 L913.75,250.31 L914.04,250.71 L914.10,253.55 Z M915.16,254.37 L914.52,247.57 L915.16,246.25 L915.75,249.70 L915.16,254.37 Z M919.71,249.90 L919.88,246.15 L920.24,245.34 L921.06,246.35 L920.77,246.15 L919.94,248.58 L919.71,249.90 Z M918.29,248.69 L918.94,246.35 L919.12,246.96 L919.24,248.89 L918.29,248.69 Z M915.34,245.13 L915.46,245.24 L915.22,245.44 L915.34,245.13 Z M917.64,244.12 L917.88,243.21 L918.06,243.71 L917.64,244.12 Z M920.53,241.08 L920.77,242.90 L919.53,246.05 L919.88,243.31 L919.24,243.51 L920.53,241.08 Z M929.44,243.92 L929.50,243.11 L929.56,243.41 L929.44,243.92 Z M805.84,242.19 L806.79,240.37 L807.08,241.38 L806.31,242.40 L805.84,242.19 Z M810.03,236.61 L811.03,239.15 L810.27,238.34 L810.03,236.61 Z M962.95,174.43 L967.85,176.56 L967.20,173.82 L969.15,175.04 L972.04,174.23 L972.51,175.55 L966.08,178.59 L963.42,183.16 L961.54,175.55 L962.72,172.71 L962.95,174.43 Z M961.36,176.46 L961.48,178.19 L960.65,176.36 L961.36,176.46 Z M964.60,174.74 L963.78,174.74 L963.37,173.72 L964.60,174.74 Z M962.13,140.75 L967.08,144.81 L968.50,148.06 L962.78,145.83 L962.13,140.75 Z" /></g></svg>