<svg xmlns="http://www.w3.org/2000/svg" viewBox="0 0 1000 1000" width="1000" height="1000"><g fill="#cccccc" stroke="#222" stroke-width="2"><path d="M439.70,881.48 L438.38,870.90 L432.77,862.44 L437.72,858.55 L438.82,851.09 L442.13,847.30 L442.46,843.41 L432.33,842.40 L427.59,848.08 L413.71,843.30 L411.07,839.62 L410.96,832.28 L414.82,830.05 L421.97,820.14 L427.81,817.80 L429.79,814.13 L426.60,810.35 L427.81,802.78 L424.73,796.65 L416.58,794.65 L416.47,788.19 L419.33,785.19 L418.67,778.40 L427.48,770.94 L428.80,760.92 L430.78,758.81 L428.58,756.02 L428.14,750.46 L432.00,748.34 L430.12,743.33 L427.48,736.54 L423.63,735.65 L423.96,733.76 L418.89,732.87 L413.82,724.30 L409.42,722.96 L407.22,724.08 L401.82,718.73 L401.49,714.73 L388.05,712.50 L376.60,706.49 L365.59,706.38 L363.72,719.18 L357.00,727.97 L363.60,736.43 L360.63,744.34 L357.88,746.45 L357.22,751.13 L352.92,755.80 L351.71,763.04 L338.28,785.97 L334.09,801.00 L327.92,788.19 L313.61,792.09 L306.89,794.76 L302.48,794.54 L299.29,796.88 L304.47,806.34 L301.49,814.91 L304.36,823.26 L300.94,830.72 L300.28,836.95 L291.03,844.19 L272.42,845.19 L272.86,852.65 L265.48,859.55 L263.94,857.77 L263.83,851.64 L259.64,844.41 L261.07,828.94 L257.77,827.71 L248.41,833.28 L248.30,834.95 L254.47,839.73 L251.27,844.07 L240.15,835.61 L228.81,833.05 L223.30,831.94 L217.02,827.71 L207.99,828.27 L207.00,825.60 L208.21,821.48 L214.27,817.36 L204.80,807.90 L202.49,807.90 L198.74,813.35 L195.55,814.35 L192.79,803.89 L193.90,790.09 L192.68,787.30 L189.49,786.52 L180.90,791.20 L178.59,790.64 L179.03,781.74 L182.33,775.84 L177.16,769.16 L181.23,765.37 L181.89,759.48 L183.76,757.14 L170.88,749.12 L169.23,746.56 L169.78,739.55 L163.61,735.99 L164.05,715.95 L179.14,699.37 L191.36,694.36 L191.47,691.68 L180.13,678.77 L180.79,674.43 L186.08,667.53 L185.31,663.74 L185.42,666.86 L174.29,670.09 L170.44,666.86 L165.04,656.62 L158.87,657.18 L158.79,656.82 L146.10,659.63 L145.77,668.20 L142.47,669.31 L138.50,660.96 L138.39,653.73 L141.03,648.27 L125.18,642.15 L109.21,642.59 L101.17,647.49 L96.21,648.16 L92.25,642.82 L91.81,639.14 L94.23,634.36 L101.61,630.91 L100.95,624.67 L97.09,619.77 L87.18,614.65 L79.80,606.42 L72.64,602.30 L72.53,597.40 L75.73,590.94 L74.74,582.04 L72.20,579.37 L73.85,574.80 L69.34,573.47 L65.60,567.23 L58.77,544.41 L58.33,427.98 L57.67,351.73 L53.92,351.51 L50.18,347.94 L45.33,346.83 L35.20,330.69 L22.75,327.02 L19.23,318.56 L22.20,313.44 L24.08,313.21 L19.67,307.87 L19.78,299.52 L23.64,293.40 L22.98,290.95 L29.58,291.73 L27.38,288.17 L28.48,286.83 L29.69,288.61 L30.24,287.17 L32.56,288.28 L36.08,287.05 L41.92,288.84 L54.36,286.72 L56.56,206.69 L59.65,211.03 L67.80,212.47 L70.55,218.26 L94.89,215.48 L103.81,218.48 L105.13,224.83 L97.53,229.50 L97.20,236.07 L100.73,238.30 L103.15,242.86 L104.58,250.10 L111.74,252.88 L111.63,263.68 L119.78,271.92 L139.27,272.81 L144.89,269.58 L160.64,271.80 L167.02,275.26 L178.48,274.81 L186.19,262.68 L200.72,257.67 L206.45,252.99 L215.26,254.55 L217.57,261.79 L223.19,266.80 L224.18,270.02 L233.65,267.80 L239.60,269.24 L246.10,276.15 L245.55,278.93 L247.75,281.93 L257.66,283.94 L270.22,291.73 L277.04,287.28 L280.02,290.17 L287.29,283.72 L300.06,282.71 L301.38,278.93 L299.18,271.47 L300.72,267.13 L305.90,264.35 L304.14,255.66 L307.11,251.66 L302.92,250.43 L301.82,247.54 L303.36,244.87 L310.41,241.86 L311.84,237.63 L309.42,229.73 L311.40,228.28 L312.84,222.05 L315.15,219.15 L323.52,219.71 L328.69,215.70 L337.39,212.36 L342.13,201.68 L335.96,181.75 L343.12,174.96 L343.34,166.72 L347.97,165.39 L349.95,160.16 L353.91,158.82 L356.45,161.38 L369.55,166.17 L380.23,165.28 L384.86,168.84 L388.60,168.73 L393.01,164.61 L395.98,165.39 L400.72,158.93 L414.82,143.46 L404.79,132.44 L395.87,126.87 L395.21,122.64 L404.46,116.52 L411.62,115.52 L430.12,112.29 L436.40,104.50 L447.08,98.71 L456.99,90.69 L494.44,75.56 L496.64,71.66 L501.27,70.21 L503.69,64.54 L510.19,59.53 L517.24,50.73 L522.08,42.94 L534.64,30.14 L542.68,20.23 L594.44,57.30 L640.80,85.69 L657.87,92.92 L672.85,104.61 L676.70,108.84 L681.77,109.17 L678.57,113.63 L681.44,119.75 L675.93,124.53 L676.15,130.32 L678.35,133.66 L677.80,144.57 L680.01,155.15 L675.05,157.37 L673.07,162.60 L674.50,171.62 L677.25,175.41 L674.94,176.07 L674.06,178.52 L676.48,186.98 L681.00,200.01 L690.14,216.37 L716.79,253.55 L749.94,291.73 L767.34,307.31 L774.28,312.43 L792.34,335.14 L807.21,349.95 L840.35,378.33 L844.98,382.45 L893.11,424.31 L939.14,459.82 L980.77,490.09 L977.47,493.10 L960.18,500.22 L944.76,527.38 L943.22,526.38 L939.36,528.83 L946.63,534.17 L946.41,539.18 L942.00,539.85 L936.83,544.08 L935.95,546.64 L931.21,548.42 L929.12,552.43 L923.61,556.33 L920.31,565.45 L909.63,571.69 L903.57,567.68 L910.51,573.25 L917.56,573.69 L914.91,576.81 L908.08,577.03 L903.35,580.37 L904.12,583.37 L907.64,586.60 L909.96,586.05 L915.02,594.06 L916.45,599.40 L914.47,604.86 L911.61,603.86 L911.17,596.18 L908.41,590.28 L902.80,591.50 L901.04,593.95 L890.79,604.52 L892.34,608.53 L896.19,610.09 L898.17,608.20 L897.40,603.86 L900.04,604.19 L900.60,607.31 L894.65,621.33 L905.55,626.68 L914.25,640.03 L909.63,644.93 L910.95,645.93 L901.92,653.61 L901.37,656.40 L885.95,665.19 L878.79,666.97 L870.09,675.54 L864.69,676.99 L850.93,687.12 L845.86,682.11 L834.52,678.88 L829.67,675.32 L825.82,670.31 L824.50,664.41 L822.07,663.74 L815.58,668.64 L808.86,668.75 L806.32,670.76 L803.90,672.43 L798.17,671.76 L791.90,674.65 L786.50,672.54 L779.56,672.87 L775.60,668.75 L763.26,670.20 L760.62,672.43 L754.89,670.98 L749.28,676.21 L744.98,673.65 L739.92,673.65 L725.27,679.11 L721.86,677.55 L707.32,680.89 L702.91,684.67 L690.36,690.57 L688.16,693.47 L689.48,696.14 L686.50,703.71 L679.57,702.26 L673.51,704.26 L664.26,702.26 L659.41,704.71 L654.13,704.49 L648.40,709.83 L636.95,709.38 L634.30,713.61 L619.77,709.17 L619.99,709.38 L618.66,711.83 L620.76,719.29 L614.04,734.32 L616.90,740.00 L626.70,749.01 L631.11,750.79 L634.52,749.01 L637.72,753.69 L641.35,753.13 L642.78,756.91 L645.43,757.92 L657.21,755.80 L656.77,760.48 L660.84,770.61 L662.72,770.72 L665.80,765.71 L669.10,766.60 L689.59,780.51 L694.21,787.08 L702.03,810.57 L689.48,824.82 L667.89,827.71 L650.93,817.47 L617.78,818.25 L615.25,820.48 L614.59,828.05 L607.43,835.28 L607.98,842.96 L594.00,823.70 L607.76,843.63 L617.12,856.54 L623.84,860.55 L620.21,863.44 L622.08,866.23 L614.70,874.02 L616.90,876.13 L612.83,883.81 L613.05,887.82 L611.07,887.38 L607.87,891.72 L602.59,893.50 L595.54,906.08 L592.45,903.52 L585.52,904.96 L584.41,906.63 L570.10,915.32 L572.85,918.99 L575.27,919.21 L575.16,921.55 L578.91,921.88 L575.60,927.56 L578.47,929.45 L576.82,932.90 L578.91,942.37 L576.26,953.83 L577.92,957.62 L576.82,960.18 L581.22,969.08 L575.38,977.32 L572.52,977.65 L567.45,976.76 L565.36,970.53 L556.88,965.41 L546.53,972.20 L519.22,980.77 L515.25,979.10 L512.06,974.76 L511.84,965.07 L517.24,949.82 L514.92,938.58 L515.58,929.12 L511.84,920.44 L509.31,917.54 L499.17,916.99 L484.20,911.98 L472.74,903.63 L468.56,903.85 L456.77,890.72 L439.70,881.48 Z M435.83,795.60 L432.22,795.32 L424.73,796.65 L435.83,795.60 Z M188.72,662.63 L191.03,661.63 L185.31,663.74 L188.72,662.63 Z M615.91,120.97 L627.11,127.06 L626.70,126.76 L615.91,120.97 Z M636.06,182.31 L636.24,182.44 L641.90,166.83 L636.06,182.31 Z M608.31,200.56 L607.94,202.39 L613.71,194.55 L608.31,200.56 Z M612.17,225.61 L612.94,221.04 L611.95,216.70 L612.17,225.61 Z M618.66,239.19 L623.29,240.52 L616.35,237.19 L618.66,239.19 Z M652.36,266.68 L652.91,268.91 L653.47,265.46 L656.00,261.23 L652.36,266.68 Z M626.04,330.02 L627.31,335.71 L627.58,335.14 L626.04,330.02 Z M606.22,360.52 L607.68,362.08 L603.03,352.51 L606.22,360.52 Z M612.06,417.63 L622.30,408.39 L619.66,410.61 L612.06,417.63 Z M623.86,467.32 L624.40,466.82 L622.86,466.77 L623.86,467.32 Z M568.65,493.98 L569.77,493.54 L570.98,488.65 L568.65,493.98 Z M560.74,496.44 L556.77,498.66 L563.65,495.95 L560.74,496.44 Z M554.56,541.44 L554.56,541.44 L558.53,533.51 L554.56,541.44 Z M557.10,542.74 L568.89,544.30 L555.20,541.77 L557.10,542.74 Z M613.49,558.22 L617.23,553.32 L616.31,552.26 L616.02,554.21 L613.49,558.22 Z M601.04,444.57 L619.44,443.23 L625.60,440.34 L614.37,443.56 L601.04,444.57 Z M630.34,440.56 L630.52,440.34 L625.60,440.34 L630.34,440.56 Z M446.42,796.43 L442.52,796.13 L455.12,798.88 L446.42,796.43 Z M500.50,808.68 L496.42,812.91 L503.91,806.34 L500.50,808.68 Z M514.26,816.58 L513.15,813.96 L514.92,824.04 L514.26,816.58 Z M517.70,853.05 L518.01,852.31 L512.50,827.71 L513.38,834.72 L517.70,853.05 Z M536.40,65.76 L533.97,62.20 L539.59,74.44 L536.40,65.76 Z M451.85,170.01 L447.96,168.84 L450.06,170.29 L451.85,170.01 Z M457.44,168.95 L454.92,169.80 L451.82,174.18 L457.44,168.95 Z M476.16,217.82 L474.51,211.92 L476.12,217.93 L476.16,217.82 Z M474.84,222.05 L475.18,220.93 L468.89,226.39 L474.84,222.05 Z M495.98,253.49 L492.35,247.98 L494.77,253.33 L495.98,253.49 Z M498.73,255.11 L498.46,254.26 L496.20,256.44 L498.73,255.11 Z M496.86,273.03 L495.96,273.07 L496.31,273.86 L496.86,273.03 Z M493.78,277.70 L495.21,275.53 L491.91,277.70 L493.78,277.70 Z M513.27,280.49 L504.55,284.55 L509.42,283.38 L513.27,280.49 Z M516.35,285.76 L515.91,283.49 L510.85,276.48 L513.27,280.49 L516.35,285.76 Z M509.06,312.38 L499.17,312.66 L497.30,314.22 L500.06,313.66 L509.06,312.38 Z M484.97,336.37 L487.72,333.81 L487.50,331.91 L486.40,334.14 L484.97,336.37 Z M568.45,405.40 L564.81,404.71 L559.75,406.16 L568.45,405.40 Z M110.20,577.70 L110.53,569.91 L109.70,568.85 L110.20,577.70 Z M119.56,558.44 L128.15,561.56 L130.10,561.10 L119.56,558.44 Z M134.46,560.09 L136.30,559.66 L140.59,555.55 L134.46,560.09 Z M176.50,579.03 L185.49,582.65 L182.88,580.81 L176.50,579.03 Z M187.08,583.77 L192.46,588.83 L200.06,592.91 L187.08,583.77 Z M202.66,594.30 L208.43,597.40 L209.97,596.96 L202.66,594.30 Z M221.77,603.55 L223.30,604.41 L228.26,604.30 L221.77,603.55 Z M229.94,601.00 L230.13,600.63 L228.15,595.17 L229.94,601.00 Z M237.95,582.37 L238.44,586.98 L239.49,586.49 L239.51,586.51 L237.95,582.37 Z M281.70,625.54 L266.03,608.87 L281.23,625.12 L271.32,621.78 L281.70,625.54 Z M309.30,568.75 L315.04,568.90 L318.38,568.16 L309.30,568.75 Z M412.61,557.10 L418.12,563.00 L425.72,567.90 L412.61,557.10 Z M200.06,670.76 L202.49,667.53 L214.60,654.73 L201.49,667.53 L200.06,670.76 Z M268.01,694.58 L274.51,711.83 L263.83,682.89 L268.01,694.58 Z M292.68,712.95 L292.32,711.58 L289.05,718.40 L292.68,712.95 Z M288.35,696.58 L288.17,699.37 L290.98,706.50 L288.35,696.58 Z M348.30,697.47 L360.96,693.91 L342.24,698.03 L348.30,697.47 Z M296.21,763.48 L295.32,772.17 L296.49,775.61 L296.21,763.48 Z M297.72,779.23 L299.18,783.52 L302.15,786.08 L297.72,779.23 Z M99.18,413.17 L94.89,413.17 L89.27,415.18 L99.18,413.17 Z M102.93,415.62 L104.96,416.52 L99.18,413.17 L102.93,415.62 Z M153.80,502.64 L155.75,501.89 L154.14,501.67 L153.80,502.64 Z M312.84,402.71 L317.57,397.26 L311.62,402.93 L312.84,402.71 Z M393.90,456.81 L394.77,453.58 L393.90,456.81 L393.90,456.81 Z M178.41,548.32 L177.12,547.27 L177.82,548.20 L178.41,548.32 Z M302.37,493.10 L324.31,500.67 L322.53,499.22 L302.37,493.10 Z M326.01,502.04 L328.36,507.46 L327.48,503.23 L326.01,502.04 Z M153.55,503.38 L153.37,503.90 L157.77,508.46 L153.55,503.38 Z M362.61,319.13 L361.40,316.44 L362.17,319.45 L362.61,319.13 Z M366.77,318.84 L364.49,317.78 L365.92,319.45 L366.77,318.84 Z M367.79,318.11 L365.20,315.60 L364.25,315.47 L366.99,318.69 L367.79,318.11 Z M110.09,418.78 L110.75,419.07 L123.52,417.96 L110.09,418.78 Z M172.75,350.95 L169.01,348.64 L162.40,360.52 L169.34,349.95 L172.75,350.95 Z M369.44,415.96 L374.29,414.84 L374.17,413.90 L369.44,415.96 Z M84.82,336.86 L81.78,334.92 L80.87,335.72 L84.82,336.86 Z M529.06,312.64 L529.06,312.64 L543.78,304.20 L529.06,312.64 Z M574.61,302.75 L574.06,299.74 L573.62,297.85 L574.61,302.75 Z M567.54,469.71 L567.89,469.28 L567.12,465.16 L567.54,469.71 Z M564.70,471.84 L564.59,473.28 L566.03,471.54 L564.70,471.84 Z M539.37,939.14 L540.18,939.78 L542.01,937.13 L539.37,939.14 Z M452.70,625.45 L458.93,637.22 L459.09,635.14 L452.70,625.45 Z M459.72,638.70 L460.19,639.59 L462.00,640.21 L459.72,638.70 Z M478.03,643.15 L480.23,644.49 L484.97,644.38 L478.03,643.15 Z M550.60,539.41 L545.21,539.74 L544.47,540.47 L550.60,539.41 Z M516.02,543.52 L511.84,545.86 L520.76,543.19 L516.02,543.52 Z M569.77,428.09 L565.09,427.10 L565.14,427.76 L569.77,428.09 Z M565.07,426.73 L565.31,424.30 L564.92,424.75 L565.07,426.73 Z M590.47,461.82 L590.22,459.72 L583.86,475.62 L590.47,461.82 Z M594.23,453.61 L592.23,454.69 L590.90,458.03 L594.23,453.61 Z M588.43,343.36 L588.49,341.49 L586.95,342.80 L588.05,342.82 L588.43,343.36 Z M543.67,323.45 L540.14,318.11 L538.56,317.33 L543.67,323.45 Z M547.08,331.36 L561.40,330.24 L544.33,331.36 L547.08,331.36 Z M563.93,325.01 L562.94,332.14 L565.12,324.23 L563.93,325.01 Z M565.58,319.56 L565.86,321.57 L566.61,318.84 L565.58,319.56 Z M558.53,155.48 L563.77,154.67 L562.83,154.14 L554.68,155.59 L558.53,155.48 Z M604.57,185.31 L593.66,178.75 L587.72,175.18 L604.57,185.31 Z M602.03,189.21 L599.39,192.88 L604.79,187.21 L602.03,189.21 Z M592.23,270.80 L587.63,272.04 L587.94,272.14 L592.23,270.80 Z M604.57,260.56 L598.29,267.24 L607.50,259.01 L604.57,260.56 Z M613.48,255.86 L611.72,256.79 L613.27,256.55 L613.48,255.86 Z M515.03,264.35 L523.40,245.31 L521.64,248.98 L515.03,264.35 Z M590.58,234.96 L595.76,233.45 L584.30,234.51 L590.58,234.96 Z M587.06,186.54 L584.96,188.32 L592.25,185.05 L587.06,186.54 Z M597.52,183.53 L596.72,183.76 L601.48,185.65 L597.52,183.53 Z M549.65,120.42 L549.65,120.42 L551.27,119.30 L549.65,120.42 Z M570.98,113.18 L569.88,116.63 L568.89,120.08 L570.98,113.18 Z M591.79,141.79 L591.72,140.56 L590.26,142.23 L591.79,141.79 Z M586.40,100.82 L586.62,101.20 L585.07,90.47 L586.40,100.82 Z M587.72,103.06 L588.38,104.16 L596.97,106.61 L587.72,103.06 Z M580.56,62.98 L550.60,36.60 L583.22,66.30 L580.56,62.98 Z M658.20,292.51 L661.17,304.31 L660.40,298.41 L658.20,292.51 Z M752.99,371.37 L754.19,369.11 L753.24,369.43 L752.99,371.37 Z M760.07,376.66 L752.77,373.03 L752.69,373.66 L760.07,376.66 Z M757.87,383.68 L757.94,382.56 L757.01,382.87 L757.87,383.68 Z M752.80,412.40 L759.19,409.06 L751.95,412.56 L752.80,412.40 Z M759.52,444.68 L753.46,446.68 L756.33,446.79 L759.52,444.68 Z M759.08,440.00 L758.09,441.11 L760.12,439.96 L759.08,440.00 Z M756.88,552.21 L755.78,543.41 L756.44,559.55 L756.88,552.21 Z M776.15,559.89 L772.51,564.23 L784.85,553.10 L776.15,559.89 Z M831.98,530.83 L826.48,535.40 L826.10,535.78 L831.98,530.83 Z M780.99,605.19 L781.91,602.13 L779.18,606.36 L780.99,605.19 Z M785.62,609.42 L776.48,608.09 L776.83,607.86 L767.67,607.08 L785.62,609.42 Z M749.43,614.69 L751.04,612.99 L749.61,613.43 L749.43,614.69 Z M751.15,621.11 L749.08,617.09 L748.84,618.77 L751.15,621.11 Z M652.03,379.56 L651.77,380.40 L654.24,378.89 L664.04,374.21 L652.03,379.56 Z M652.69,394.47 L652.47,394.44 L653.39,395.02 L652.69,394.47 Z M718.81,390.21 L727.91,393.92 L718.88,390.13 L718.81,390.21 Z M725.29,376.85 L727.69,383.12 L731.22,387.35 L725.29,376.85 Z M669.10,405.83 L670.98,407.50 L662.50,398.37 L669.10,405.83 Z M669.65,409.06 L673.18,405.05 L670.98,407.50 L669.65,409.06 Z M668.77,452.13 L663.60,452.25 L663.16,452.95 L668.77,452.13 Z M699.83,428.65 L692.56,437.00 L700.93,428.31 L705.56,427.53 L708.57,425.15 L699.83,428.65 Z M715.91,422.97 L715.69,422.30 L713.34,423.24 L715.91,422.97 Z M714.70,419.30 L711.50,416.74 L715.24,420.96 L714.70,419.30 Z M633.45,535.04 L631.77,533.73 L632.43,535.73 L633.45,535.04 Z M749.94,453.14 L748.20,453.80 L751.58,454.08 L749.94,453.14 Z M738.82,504.68 L736.83,505.12 L739.03,505.77 L738.82,504.68 Z M739.59,508.57 L739.24,506.84 L733.97,528.05 L739.59,508.57 Z M727.25,442.67 L733.53,447.24 L726.95,442.04 L727.25,442.67 Z M728.13,446.79 L726.70,447.68 L726.87,448.43 L728.13,446.79 Z M725.94,439.95 L727.92,435.83 L725.49,439.00 L725.94,439.95 Z M665.25,428.09 L660.73,426.64 L659.63,427.42 L665.25,428.09 Z M647.69,428.15 L647.52,428.09 L647.43,428.14 L647.69,428.15 Z M691.44,372.50 L690.80,374.21 L691.79,380.45 L691.44,372.50 Z M623.84,341.93 L620.40,340.86 L626.04,344.83 L623.84,341.93 Z M661.87,360.97 L661.90,359.14 L661.28,360.63 L661.87,360.97 Z M730.00,332.69 L722.08,339.48 L736.28,327.46 L730.00,332.69 Z M655.11,213.60 L653.62,214.58 L654.57,214.48 L655.11,213.60 Z M666.03,203.53 L659.52,206.46 L665.14,204.46 L666.03,203.53 Z M668.95,198.75 L668.13,201.33 L668.44,201.01 L668.95,198.75 Z M671.86,189.54 L671.68,190.09 L672.25,189.33 L671.86,189.54 Z M652.58,218.04 L649.83,218.48 L648.92,219.62 L652.58,218.04 Z M668.38,217.77 L671.75,207.02 L667.67,217.37 L668.38,217.77 Z M661.33,184.27 L661.17,183.64 L661.67,182.49 L659.41,186.54 L661.33,184.27 Z M645.76,189.43 L640.03,184.31 L638.37,184.00 L645.76,189.43 Z M668.00,157.15 L664.81,150.58 L668.66,160.93 L668.00,157.15 Z M823.84,512.02 L820.09,516.14 L827.25,509.57 L830.44,507.12 L823.84,512.02 Z M770.31,479.96 L775.27,477.51 L774.93,476.72 L770.31,479.96 Z M767.12,474.29 L771.74,471.39 L766.68,473.51 L765.80,472.17 L767.12,474.29 Z M784.67,465.75 L785.29,465.60 L787.71,461.37 L784.67,465.75 Z M800.05,463.93 L803.90,471.39 L804.01,469.17 L800.05,463.93 Z M830.44,468.61 L827.99,464.74 L827.80,465.60 L830.44,468.61 Z M828.24,463.60 L828.12,464.16 L833.20,462.93 L842.56,459.04 L828.24,463.60 Z M850.05,461.04 L842.44,458.84 L842.56,459.04 L850.05,461.04 Z M873.28,501.22 L872.88,500.50 L873.06,502.34 L876.04,506.68 L873.28,501.22 Z M874.60,512.69 L875.55,513.01 L876.04,506.68 L874.60,512.69 Z M881.54,515.14 L877.56,514.26 L874.71,514.92 L881.54,515.14 Z M874.82,547.98 L873.89,547.88 L878.13,556.66 L874.82,547.98 Z M755.89,629.68 L771.87,624.91 L766.79,625.56 L755.89,629.68 Z M785.73,641.70 L791.02,641.70 L793.83,640.07 L785.73,641.70 Z M796.46,638.54 L810.73,630.24 L796.85,637.03 L796.46,638.54 Z M836.01,535.88 L836.61,535.29 L831.32,532.73 L836.01,535.88 Z M880.65,538.57 L884.63,541.30 L894.43,544.19 L880.65,538.57 Z M774.84,486.37 L774.06,484.86 L771.63,484.75 L774.84,486.37 Z M776.26,487.09 L783.53,486.42 L775.94,486.92 L776.26,487.09 Z M785.70,477.32 L784.96,476.74 L783.53,486.42 L785.70,477.32 Z M789.58,484.30 L793.28,486.27 L794.11,485.32 L793.33,485.53 L789.58,484.30 Z M785.84,489.87 L791.02,488.87 L792.64,487.01 L785.84,489.87 Z M779.34,514.69 L788.37,524.49 L777.45,511.51 L779.34,514.69 Z M777.80,462.15 L776.12,462.22 L772.74,469.39 L777.80,462.15 Z M788.04,429.76 L785.40,427.98 L780.77,426.09 L788.04,429.76 Z M783.64,415.62 L781.99,413.17 L783.74,416.36 L783.64,415.62 Z M794.10,428.42 L798.65,427.14 L795.19,426.53 L794.10,428.42 Z M873.39,432.43 L878.35,429.32 L873.14,432.42 L873.39,432.43 Z M779.45,458.92 L767.67,459.82 L771.74,459.59 L779.45,458.92 Z M837.49,454.81 L836.94,457.26 L839.25,451.47 L837.49,454.81 Z M930.22,37.49 L930.22,37.71 L930.11,37.60 L930.22,37.49 Z M917.44,28.92 L917.44,29.03 L917.33,28.92 L917.44,28.92 Z M923.72,36.15 L919.65,33.70 L921.19,33.37 L917.44,27.91 L917.56,25.58 L917.56,23.35 L920.31,19.90 L928.13,19.23 L933.30,24.24 L936.06,29.69 L930.99,33.81 L930.11,36.71 L925.70,35.04 L923.72,36.15 Z M917.33,25.58 L917.56,25.58 L917.33,25.69 L917.33,25.58 Z M917.11,23.13 L917.22,23.02 L917.44,23.35 L917.11,23.13 Z" /></g></svg>