<svg xmlns="http://www.w3.org/2000/svg" viewBox="0 0 1000 1000" width="1000" height="1000"><g fill="#cccccc" stroke="#222" stroke-width="2"><path d="M315.81,886.16 L312.42,885.10 L307.97,887.76 L303.41,882.22 L297.06,886.06 L288.58,885.84 L288.27,883.60 L284.24,883.50 L279.69,878.80 L282.86,862.59 L284.24,861.10 L289.96,861.31 L291.02,859.92 L289.86,856.72 L297.69,846.59 L300.34,839.02 L306.59,836.35 L306.06,831.34 L310.19,826.22 L312.84,815.45 L304.47,813.10 L302.14,808.30 L297.38,805.42 L296.42,802.01 L301.72,798.81 L304.05,792.62 L312.84,788.99 L313.69,784.52 L319.41,779.29 L318.03,776.84 L320.68,766.81 L323.33,763.08 L328.94,754.97 L325.97,741.42 L323.11,740.25 L321.42,734.17 L317.39,723.29 L302.35,717.96 L300.45,713.37 L301.61,708.36 L300.55,705.27 L293.77,700.15 L293.88,694.39 L261.15,705.16 L255.33,705.16 L252.15,701.32 L250.03,693.96 L245.26,691.93 L238.17,691.83 L231.39,688.52 L231.60,685.85 L226.52,683.61 L225.24,676.47 L208.72,676.36 L198.45,672.63 L196.22,670.07 L188.17,666.02 L182.45,658.23 L178.11,657.06 L174.19,648.10 L169.32,646.39 L167.31,636.90 L162.33,628.79 L163.18,625.70 L160.10,623.25 L163.07,611.41 L160.85,616.42 L154.81,606.71 L146.97,611.09 L142.10,609.06 L140.51,602.77 L141.89,593.06 L140.51,591.03 L128.01,588.26 L124.30,578.87 L120.49,577.06 L112.33,576.74 L107.89,567.68 L110.75,563.62 L107.89,560.74 L110.96,557.76 L109.58,556.58 L107.46,558.29 L106.40,555.52 L105.45,551.04 L102.48,550.50 L105.03,546.66 L100.38,538.08 L100.26,538.24 L92.21,534.18 L88.71,528.85 L75.37,521.81 L75.37,520.00 L73.67,519.57 L71.03,518.51 L71.34,509.55 L68.59,504.96 L65.62,506.45 L61.28,503.79 L61.70,501.65 L59.69,499.52 L55.35,500.27 L50.48,493.01 L49.31,483.63 L44.76,477.01 L39.78,474.99 L36.18,465.07 L39.57,460.48 L36.92,457.71 L33.74,458.35 L35.33,453.34 L30.35,449.50 L23.04,447.04 L25.37,444.80 L27.70,437.23 L22.83,431.15 L22.30,427.84 L26.75,411.95 L19.23,397.77 L25.69,395.74 L29.61,392.43 L35.86,391.47 L42.74,384.54 L41.69,381.55 L44.97,377.39 L43.91,375.26 L45.92,370.46 L42.53,358.20 L45.92,355.00 L47.93,353.72 L49.10,349.13 L55.67,346.04 L56.62,344.01 L59.90,344.01 L61.70,341.45 L62.34,337.29 L60.96,335.48 L64.99,335.05 L65.94,331.85 L63.19,329.50 L64.46,326.84 L68.17,327.80 L67.74,325.77 L70.92,321.93 L70.07,317.98 L73.46,317.24 L73.36,314.89 L76.53,313.29 L76.43,310.20 L81.41,303.27 L85.43,299.75 L92.84,298.79 L94.86,295.48 L87.76,287.27 L87.97,283.32 L91.57,280.44 L90.51,275.32 L81.19,273.08 L78.86,269.77 L80.45,265.19 L84.69,264.12 L92.74,257.51 L96.98,245.78 L93.59,240.12 L87.87,239.16 L84.80,237.78 L73.04,238.95 L76.85,231.91 L70.81,228.28 L68.06,221.46 L78.12,218.26 L81.09,211.33 L90.94,205.99 L94.43,195.11 L92.74,185.94 L87.34,183.59 L94.43,172.93 L99.20,170.90 L102.91,163.22 L111.49,159.49 L127.27,164.93 L132.99,162.90 L155.38,167.04 L158.20,163.54 L167.73,159.17 L175.04,157.57 L186.16,162.58 L196.96,160.88 L197.07,151.81 L204.38,147.54 L206.18,143.92 L214.02,144.02 L217.83,147.22 L222.17,144.45 L223.76,134.21 L231.49,133.57 L231.71,143.38 L234.99,148.40 L243.99,147.97 L247.28,150.21 L259.14,150.96 L272.80,150.21 L276.19,147.86 L277.15,151.38 L281.17,152.66 L286.57,150.85 L294.62,144.98 L299.71,135.06 L307.23,133.68 L316.12,137.84 L319.51,136.56 L327.88,139.65 L336.25,129.94 L345.78,125.68 L348.01,122.37 L363.89,124.40 L377.77,115.33 L386.77,113.41 L392.39,115.12 L396.94,111.06 L401.39,114.05 L408.38,112.34 L408.49,105.20 L421.62,104.24 L430.41,99.76 L438.14,99.87 L440.16,98.05 L441.96,94.21 L447.78,92.72 L450.22,88.77 L457.42,89.73 L463.78,87.92 L465.05,90.59 L468.12,91.12 L471.30,86.85 L475.00,90.80 L482.42,92.72 L488.77,87.39 L492.06,90.16 L498.62,87.39 L501.48,88.56 L506.04,86.96 L510.17,86.64 L512.92,83.12 L522.45,85.68 L526.16,85.79 L534.95,80.24 L542.58,70.85 L552.96,55.50 L569.27,65.52 L580.92,68.72 L586.85,67.87 L591.94,71.39 L590.35,77.36 L593.74,69.25 L592.47,66.16 L593.74,66.05 L593.84,63.17 L596.18,66.27 L596.39,62.85 L603.70,62.85 L604.01,62.32 L605.07,65.52 L611.53,63.39 L622.65,56.14 L625.94,46.75 L624.24,44.83 L623.71,46.43 L620.11,45.36 L619.48,41.63 L618.52,42.70 L616.09,41.31 L616.30,38.22 L613.02,38.22 L612.06,36.08 L614.39,32.56 L613.65,30.32 L615.98,28.83 L617.57,30.00 L616.51,32.03 L620.54,36.51 L629.86,41.63 L632.72,41.31 L638.23,34.70 L645.32,34.70 L647.02,36.19 L644.90,40.56 L641.30,41.52 L641.08,47.50 L642.57,47.50 L642.89,51.44 L645.85,53.90 L645.53,55.71 L648.71,57.10 L650.51,55.39 L651.78,62.53 L646.49,71.92 L645.96,76.72 L656.23,92.40 L669.58,108.08 L677.73,111.81 L681.65,110.21 L687.05,104.35 L689.91,106.48 L692.56,105.95 L691.82,109.78 L689.17,112.02 L687.37,111.49 L685.47,114.37 L686.95,123.54 L691.82,128.77 L700.82,131.22 L704.64,130.69 L706.65,134.64 L702.31,135.28 L703.68,137.62 L703.05,141.36 L698.39,145.30 L691.18,159.06 L695.10,169.19 L721.27,205.35 L733.34,215.59 L742.03,219.96 L747.32,220.39 L751.14,215.70 L758.87,219.00 L762.15,216.66 L763.32,217.40 L762.47,219.96 L766.28,222.42 L765.65,225.72 L767.34,230.31 L769.88,230.10 L766.28,234.90 L766.92,238.95 L762.15,241.62 L763.21,244.39 L760.88,250.15 L752.94,256.87 L746.05,252.18 L739.27,254.84 L735.99,249.08 L738.64,255.16 L742.34,258.58 L742.56,261.46 L745.84,261.46 L747.32,264.02 L741.50,267.21 L739.91,262.31 L731.43,261.99 L724.66,266.25 L720.84,271.59 L718.09,280.44 L717.77,289.83 L722.33,321.61 L720.42,328.12 L724.87,330.78 L721.69,333.24 L720.21,344.12 L727.20,381.45 L727.41,397.66 L731.96,414.30 L742.34,455.47 L746.37,469.44 L764.80,522.67 L783.12,568.32 L806.21,618.45 L828.56,661.22 L832.27,672.10 L853.24,708.25 L871.04,738.12 L902.49,785.16 L911.92,798.91 L911.71,804.57 L908.64,804.46 L908.00,807.98 L914.57,823.23 L917.11,823.66 L917.54,834.97 L909.91,838.70 L903.02,834.65 L903.77,837.95 L900.38,840.40 L899.00,845.52 L900.38,865.04 L901.54,869.52 L904.30,872.08 L902.71,876.46 L904.82,884.46 L907.90,887.87 L907.68,889.26 L904.93,888.62 L903.98,891.81 L907.16,900.77 L905.99,905.25 L914.04,926.37 L916.26,927.44 L916.37,931.39 L907.68,927.97 L899.85,919.55 L893.07,918.37 L886.39,904.40 L880.68,903.97 L880.04,900.45 L876.54,899.07 L878.77,890.54 L874.32,882.54 L877.39,881.36 L878.13,877.95 L874.96,870.91 L867.44,865.04 L870.30,864.51 L868.49,861.20 L865.95,857.47 L863.20,857.15 L861.50,859.39 L858.01,858.54 L858.96,855.23 L855.78,850.43 L851.97,845.74 L848.16,844.88 L847.42,838.70 L844.56,838.70 L837.78,834.11 L832.59,836.46 L828.24,835.29 L823.58,830.17 L807.38,834.01 L801.55,831.23 L803.46,815.23 L801.55,828.78 L796.05,822.81 L786.41,816.62 L785.56,819.61 L781.75,822.17 L781.53,819.71 L776.77,818.11 L776.66,815.13 L768.51,813.10 L765.86,807.77 L757.28,804.25 L754.52,805.31 L752.51,802.22 L753.68,798.06 L750.61,802.75 L744.25,805.63 L742.24,808.41 L731.12,812.03 L729.42,816.19 L715.76,817.69 L712.47,821.31 L700.29,818.11 L696.80,816.30 L695.63,812.78 L682.71,808.94 L679.43,811.39 L674.77,811.18 L671.48,817.58 L672.33,819.82 L667.25,820.99 L666.29,819.29 L668.09,817.58 L662.16,809.90 L659.09,808.51 L655.07,811.93 L647.86,826.22 L645.22,828.35 L641.72,827.29 L631.76,834.33 L628.48,833.37 L625.30,835.39 L619.90,833.69 L616.51,836.03 L603.80,833.58 L598.19,834.43 L587.81,826.65 L584.74,826.75 L583.25,830.59 L580.18,831.23 L577.43,836.14 L574.99,837.42 L579.86,854.27 L579.55,860.14 L581.03,862.80 L579.97,868.78 L582.41,879.76 L581.66,885.42 L577.43,887.23 L576.58,892.24 L577.00,902.91 L579.23,909.20 L575.84,909.73 L571.50,914.96 L558.47,918.05 L555.82,914.21 L554.12,918.48 L551.05,920.93 L546.82,920.29 L538.87,912.83 L535.80,913.57 L531.25,910.91 L529.13,907.28 L520.97,904.08 L517.69,898.64 L519.60,895.44 L516.95,893.31 L513.77,895.87 L514.19,903.23 L509.32,910.05 L509.64,912.61 L501.27,916.88 L497.35,916.03 L491.00,912.08 L485.70,919.76 L487.50,924.77 L483.79,928.93 L469.81,934.16 L460.17,943.01 L455.62,941.84 L448.31,946.42 L452.02,953.57 L449.90,964.77 L441.43,959.86 L439.10,960.08 L435.28,962.00 L434.97,967.86 L425.43,970.85 L424.59,975.86 L419.71,980.77 L418.23,978.74 L414.21,979.49 L409.65,976.50 L408.17,972.13 L401.07,964.88 L402.24,957.30 L398.63,945.89 L379.15,938.85 L375.01,931.28 L370.04,930.21 L363.58,924.67 L358.17,923.39 L354.15,924.45 L350.23,919.55 L341.65,912.19 L336.25,904.72 L333.49,895.76 L329.36,890.43 L328.41,884.14 L320.04,884.03 L315.81,886.16 Z M689.70,180.29 L689.28,183.59 L695.10,169.19 L689.70,180.29 Z M701.35,325.66 L718.19,328.65 L720.42,328.12 L701.35,325.66 Z M529.34,170.90 L535.06,175.49 L526.85,167.99 L529.34,170.90 Z M539.52,177.48 L539.52,177.48 L536.97,174.31 L539.52,177.48 Z M549.57,172.29 L545.33,173.14 L544.68,173.78 L549.57,172.29 Z M560.75,196.23 L565.03,192.45 L561.75,194.47 L561.54,186.26 L560.75,196.23 Z M569.48,203.97 L566.84,196.93 L565.03,192.45 L569.48,203.97 Z M558.13,200.77 L559.74,200.66 L559.76,200.03 L558.13,200.77 Z M536.85,231.93 L537.81,236.18 L537.18,227.75 L536.85,231.93 Z M554.78,295.77 L555.40,295.59 L555.46,294.75 L554.78,295.77 Z M552.66,298.97 L553.17,299.00 L553.20,298.15 L552.66,298.97 Z M551.79,298.04 L549.99,298.79 L552.24,298.94 L551.79,298.04 Z M529.02,318.20 L524.86,317.83 L547.66,324.28 L529.02,318.20 Z M511.86,367.90 L511.80,368.45 L520.23,358.41 L511.86,367.90 Z M521.81,389.57 L530.61,375.90 L521.82,389.45 L521.81,389.57 Z M581.81,344.62 L587.28,343.58 L583.46,343.69 L581.81,344.62 Z M602.42,354.68 L611.64,351.80 L598.40,355.64 L602.42,354.68 Z M618.63,353.50 L623.40,354.04 L615.88,352.44 L611.64,351.80 L618.63,353.50 Z M615.03,380.81 L614.84,381.29 L615.81,380.52 L615.03,380.81 Z M617.57,424.63 L617.99,424.22 L617.44,424.31 L617.57,424.63 Z M613.76,434.78 L613.88,434.88 L615.03,427.10 L613.76,434.78 Z M630.67,446.33 L626.47,445.12 L623.18,445.98 L630.67,446.33 Z M634.84,449.28 L634.23,446.91 L633.88,447.26 L632.64,446.90 L634.84,449.28 Z M619.60,478.42 L620.96,477.12 L620.59,476.56 L619.60,478.42 Z M606.66,487.68 L614.18,483.63 L614.84,483.00 L606.66,487.68 Z M624.03,591.99 L625.83,593.49 L618.95,581.33 L624.03,591.99 Z M634.33,594.09 L630.18,592.85 L625.83,593.49 L634.33,594.09 Z M641.94,596.99 L641.61,596.26 L640.17,595.83 L641.94,596.99 Z M641.19,605.75 L643.42,600.31 L642.81,598.95 L641.19,605.75 Z M635.17,640.37 L635.58,639.88 L636.11,647.56 L635.26,634.02 L635.17,640.37 Z M626.57,644.90 L623.29,647.03 L632.72,643.30 L633.78,642.03 L626.57,644.90 Z M609.94,670.82 L613.86,668.36 L614.01,667.67 L609.94,670.82 Z M597.74,763.53 L603.48,764.78 L598.08,763.50 L597.74,763.53 Z M604.22,787.29 L606.87,781.74 L608.14,776.94 L604.22,787.29 Z M581.12,814.05 L582.43,814.75 L582.48,814.37 L581.12,814.05 Z M350.02,160.77 L339.12,145.86 L339.11,146.48 L350.02,160.77 Z M354.80,212.42 L355.42,208.13 L354.61,212.30 L354.80,212.42 Z M392.04,252.13 L380.75,253.74 L389.21,253.35 L392.04,252.13 Z M399.16,246.52 L394.90,250.90 L396.41,250.26 L399.16,246.52 Z M414.31,257.40 L414.85,257.00 L412.62,256.66 L414.31,257.40 Z M408.79,299.35 L406.16,285.35 L408.79,299.35 L408.79,299.35 Z M407.53,300.49 L408.61,299.51 L397.26,304.33 L407.53,300.49 Z M380.63,313.83 L383.49,313.93 L373.43,311.80 L380.63,313.83 Z M387.73,389.34 L378.62,390.51 L378.41,390.63 L387.73,389.34 Z M373.85,449.60 L366.96,421.45 L373.83,452.12 L373.85,449.60 Z M355.63,479.25 L373.74,464.75 L361.25,474.24 L355.63,479.25 Z M347.41,457.64 L349.30,460.56 L348.32,458.14 L347.41,457.64 Z M342.92,456.40 L344.82,456.24 L343.98,455.79 L342.92,456.40 Z M381.16,580.58 L387.62,576.64 L383.59,578.55 L381.16,580.58 Z M519.98,602.83 L516.10,607.25 L519.98,602.83 L519.98,602.83 Z M547.77,670.28 L544.91,664.10 L549.04,677.43 L547.77,670.28 Z M548.62,690.87 L543.64,691.19 L540.46,692.47 L548.62,690.87 Z M504.77,784.62 L507.93,779.89 L503.39,785.15 L504.77,784.62 Z M490.68,790.06 L501.27,785.97 L498.52,785.90 L490.68,790.06 Z M481.57,822.38 L468.01,820.35 L472.04,821.31 L481.57,822.38 Z M574.89,812.57 L568.21,815.55 L576.29,812.90 L574.89,812.57 Z M329.26,764.57 L332.83,767.32 L330.10,764.78 L329.26,764.57 Z M373.64,787.82 L376.99,788.74 L377.57,788.06 L373.64,787.82 Z M410.01,819.60 L411.47,825.60 L411.03,821.31 L410.01,819.60 Z M153.50,330.40 L160.10,336.97 L157.35,333.13 L153.50,330.40 Z M156.61,374.16 L156.61,374.16 L162.96,375.37 L156.61,374.16 Z M210.35,390.62 L211.26,390.62 L214.12,386.14 L210.35,390.62 Z M408.27,642.23 L389.53,655.03 L388.25,656.31 L408.27,642.23 Z M398.42,677.93 L398.42,680.74 L400.81,684.07 L398.42,677.93 Z M402.19,687.60 L401.81,688.73 L404.25,692.89 L402.19,687.60 Z M402.34,715.19 L401.75,714.97 L404.78,718.92 L402.34,715.19 Z M405.44,735.35 L405.73,735.02 L404.78,718.92 L405.44,735.35 Z M331.83,722.72 L333.81,727.13 L333.28,723.51 L331.83,722.72 Z M152.16,470.94 L155.44,465.28 L150.49,471.64 L152.16,470.94 Z M161.53,510.68 L161.16,509.87 L160.69,509.71 L161.53,510.68 Z M284.24,532.69 L278.95,533.97 L277.36,535.29 L284.24,532.69 Z M277.67,571.30 L270.90,572.26 L279.37,571.52 L277.67,571.30 Z M101.52,536.56 L103.23,535.78 L104.50,532.58 L101.52,536.56 Z M110.02,534.49 L106.93,532.26 L104.50,532.58 L110.02,534.49 Z M112.27,536.12 L113.61,538.24 L125.26,545.49 L112.27,536.12 Z M164.21,538.38 L164.02,542.82 L164.73,544.86 L164.21,538.38 Z M165.55,555.13 L165.19,560.10 L166.21,563.36 L165.55,555.13 Z M199.72,600.21 L198.55,599.46 L189.23,599.57 L199.72,600.21 Z M262.53,566.82 L257.02,573.76 L255.75,577.70 L262.53,566.82 Z M144.26,431.93 L146.97,452.38 L145.49,433.28 L144.26,431.93 Z M139.46,428.20 L140.93,428.27 L148.98,423.90 L139.46,428.20 Z M303.84,447.47 L300.02,444.48 L306.17,451.84 L303.84,447.47 Z M308.71,451.95 L317.82,448.96 L306.17,451.84 L308.71,451.95 Z M365.27,402.14 L361.25,407.90 L365.25,402.99 L365.27,402.14 Z M144.96,391.69 L148.56,390.94 L148.82,390.22 L144.96,391.69 Z M196.54,225.51 L197.21,224.50 L189.44,229.24 L196.54,225.51 Z M203.64,214.74 L198.45,221.35 L198.39,222.71 L203.64,214.74 Z M253.10,201.30 L254.54,201.42 L248.86,198.63 L253.10,201.30 Z M300.01,205.89 L315.81,197.99 L300.01,205.89 L300.01,205.89 Z M196.75,253.56 L189.66,250.58 L198.55,255.27 L196.75,253.56 Z M264.44,266.46 L261.44,267.02 L262.85,267.85 L264.44,266.46 Z M269.84,258.15 L265.41,265.61 L267.72,263.59 L269.84,258.15 Z M176.42,325.66 L178.85,319.37 L180.07,315.19 L176.42,325.66 Z M232.55,308.39 L234.99,306.68 L237.32,304.97 L232.55,308.39 Z M183.09,282.25 L195.69,274.89 L196.38,273.78 L183.09,282.25 Z M181.08,287.05 L179.80,295.27 L183.09,282.25 L181.08,287.05 Z M124.69,239.97 L123.54,236.80 L122.82,237.35 L124.69,239.97 Z M341.12,211.22 L335.93,212.07 L351.71,210.47 L341.12,211.22 Z M382.11,781.42 L380.61,784.49 L388.04,775.77 L382.11,781.42 Z M506.36,745.69 L507.71,745.36 L502.65,744.94 L506.36,745.69 Z M464.73,699.29 L466.19,699.84 L464.50,698.56 L464.73,699.29 Z M469.60,701.11 L473.84,698.87 L468.36,700.64 L469.60,701.11 Z M422.15,186.47 L427.76,190.95 L421.69,185.70 L422.15,186.47 Z M454.24,203.65 L444.39,201.30 L452.34,203.75 L446.51,204.71 L454.24,203.65 Z M448.10,229.46 L449.70,225.83 L449.16,225.83 L448.10,229.46 Z M462.91,224.87 L462.93,224.87 L464.62,222.52 L462.91,224.87 Z M472.31,219.78 L471.30,219.22 L464.62,222.52 L472.31,219.78 Z M521.40,398.51 L518.64,399.37 L525.95,397.87 L521.40,398.51 Z M566.56,484.88 L564.93,490.67 L566.73,487.68 L566.56,484.88 Z M585.58,503.89 L581.53,504.09 L583.25,504.53 L585.58,503.89 Z M574.04,535.46 L570.12,534.82 L565.03,533.44 L568.64,535.46 L574.04,535.46 Z M470.76,335.91 L471.83,333.77 L470.66,335.37 L470.76,335.91 Z M389.84,545.06 L382.75,536.42 L386.35,541.86 L389.84,545.06 Z M455.41,514.35 L455.09,519.89 L455.09,525.87 L455.41,514.35 Z M456.20,564.19 L457.84,566.50 L462.29,568.00 L456.20,564.19 Z M446.61,358.32 L448.11,361.36 L447.68,359.37 L446.61,358.32 Z M454.24,451.52 L450.01,456.11 L452.97,453.23 L454.24,451.52 Z M462.19,470.08 L461.71,469.43 L465.47,483.84 L462.19,470.08 Z M484.64,410.89 L485.52,411.22 L483.37,402.46 L484.64,410.89 Z M494.67,414.73 L493.75,413.45 L489.03,412.57 L494.67,414.73 Z M486.65,302.63 L484.11,301.67 L489.30,304.76 L486.65,302.63 Z M531.03,297.21 L528.75,297.89 L529.45,298.04 L531.03,297.21 Z M534.53,293.67 L532.85,296.25 L534.11,295.59 L534.53,293.67 Z M489.94,236.39 L492.29,237.54 L492.06,236.92 L489.94,236.39 Z M493.40,240.47 L493.66,244.24 L494.60,243.64 L493.40,240.47 Z M504.57,256.17 L509.89,263.42 L509.32,261.03 L504.57,256.17 Z M420.64,183.93 L419.61,180.39 L411.87,169.09 L420.64,183.93 Z M472.88,166.31 L472.67,160.77 L471.19,154.26 L472.88,166.31 Z M500.42,190.95 L493.75,194.05 L504.45,190.85 L500.42,190.95 Z M381.48,135.60 L381.85,136.50 L382.89,130.06 L381.48,135.60 Z M384.59,143.03 L384.23,139.76 L382.23,137.39 L384.59,143.03 Z M474.69,126.10 L474.02,125.56 L475.14,127.92 L474.69,126.10 Z M478.29,140.40 L477.01,135.35 L476.91,138.58 L478.29,140.40 Z M577.21,613.99 L593.53,595.30 L577.21,613.99 L577.21,613.99 Z M552.43,719.45 L544.10,726.18 L547.45,724.47 L552.43,719.45 Z M587.81,743.34 L583.46,742.17 L593.42,746.97 L587.81,743.34 Z M573.30,692.15 L583.15,691.19 L586.54,689.37 L573.30,692.15 Z M595.86,657.16 L600.18,652.65 L593.53,657.70 L595.86,657.16 Z M607.30,645.22 L609.84,640.52 L603.11,649.59 L607.30,645.22 Z M607.93,639.03 L601.79,637.43 L609.84,640.52 L607.93,639.03 Z M579.23,616.53 L578.75,616.20 L579.97,622.93 L579.23,616.53 Z M597.76,625.70 L595.04,624.39 L602.95,631.03 L597.76,625.70 Z M576.76,435.94 L571.07,433.18 L576.76,435.94 L576.76,435.94 Z M581.56,480.96 L584.84,479.79 L578.76,481.45 L582.94,482.33 L581.56,480.96 Z M602.53,452.16 L601.58,452.91 L602.53,460.91 L602.53,452.16 Z M602.53,444.48 L601.17,443.23 L602.53,448.04 L602.53,444.48 Z M572.87,393.93 L576.90,393.18 L572.67,393.53 L572.87,393.93 Z M570.81,389.90 L569.67,385.15 L569.17,386.67 L570.81,389.90 Z M574.89,369.29 L575.10,369.82 L572.98,372.59 L575.97,369.29 L574.89,369.29 Z M576.75,369.29 L583.57,373.77 L578.06,369.29 L576.75,369.29 Z M586.43,372.91 L596.60,375.37 L597.76,375.05 L586.43,372.91 Z M604.01,369.29 L605.84,371.20 L606.13,370.67 L604.01,369.29 Z M604.33,360.76 L604.08,359.95 L604.00,361.16 L604.33,360.76 Z M574.67,368.74 L578.70,364.49 L574.46,368.22 L574.67,368.74 Z M568.74,162.90 L560.16,171.11 L567.36,164.29 L568.74,162.90 Z M598.08,335.90 L595.65,339.00 L599.63,335.14 L598.08,335.90 Z M620.85,96.67 L619.90,94.85 L620.48,97.49 L620.85,96.67 Z M608.04,185.73 L604.75,183.27 L608.04,187.10 L608.04,185.73 Z M619.01,178.49 L618.21,175.59 L618.52,179.11 L619.01,178.49 Z M622.87,166.53 L619.50,177.87 L621.28,175.59 L622.87,166.53 Z M625.51,166.63 L625.85,165.68 L622.87,166.53 L625.51,166.63 Z M628.48,164.93 L628.35,164.97 L628.74,164.99 L628.48,164.93 Z M631.98,165.78 L631.20,165.59 L632.93,169.94 L631.98,165.78 Z M636.95,176.98 L635.37,171.22 L636.59,179.43 L636.95,176.98 Z M639.39,181.78 L636.97,181.94 L637.11,182.88 L639.39,181.78 Z M634.73,226.36 L628.06,224.98 L626.60,225.27 L634.73,226.36 Z M620.01,230.42 L622.86,226.02 L622.23,226.15 L620.01,230.42 Z M594.80,245.56 L597.87,237.35 L594.62,245.54 L594.80,245.56 Z M595.43,282.47 L598.29,281.29 L590.56,282.36 L595.43,282.47 Z M599.62,291.49 L594.90,286.73 L598.08,291.43 L599.62,291.49 Z M604.86,287.48 L602.74,291.21 L601.28,291.55 L603.22,291.63 L604.86,287.48 Z M624.24,300.92 L615.24,296.87 L615.66,295.05 L615.02,297.59 L624.24,300.92 Z M672.12,311.69 L671.80,312.09 L676.36,310.73 L672.12,311.69 Z M682.00,303.87 L679.96,309.45 L682.18,304.87 L682.00,303.87 Z M680.49,375.69 L676.46,375.15 L678.26,374.41 L675.60,375.40 L680.49,375.69 Z M705.38,395.74 L701.14,393.07 L703.47,394.99 L705.38,395.74 Z M701.25,398.83 L701.64,399.89 L703.47,394.99 L701.25,398.83 Z M712.69,385.50 L708.34,388.81 L707.28,390.94 L710.57,388.27 L712.69,385.50 Z M710.82,403.99 L711.10,397.02 L709.93,401.82 L710.82,403.99 Z M700.51,422.51 L702.84,416.97 L700.11,423.10 L700.51,422.51 Z M679.75,471.36 L689.17,462.40 L684.09,466.99 L679.75,471.36 Z M704.00,492.05 L693.41,491.20 L697.01,491.63 L704.00,492.05 Z M696.16,502.29 L699.20,501.58 L694.26,501.65 L698.60,506.45 L696.16,502.29 Z M679.75,582.07 L671.38,583.67 L649.66,589.97 L679.75,582.07 Z M593.74,163.54 L587.88,165.04 L589.08,165.14 L593.74,163.54 Z M608.46,330.78 L606.99,331.51 L610.20,331.22 L608.46,330.78 Z M615.88,345.40 L623.29,345.93 L609.20,343.48 L607.09,343.78 L615.88,345.40 Z M569.74,135.38 L567.82,135.38 L568.11,136.02 L569.74,135.38 Z M572.13,135.38 L570.03,135.38 L570.65,138.37 L570.75,135.81 L581.03,140.08 L572.13,135.38 Z M575.40,141.24 L574.14,139.65 L570.65,138.37 L575.40,141.24 Z M577.82,146.50 L578.27,144.88 L577.27,143.61 L577.82,146.50 Z M560.27,282.04 L559.30,282.55 L563.91,283.78 L560.27,282.04 Z M571.07,284.60 L568.06,284.88 L574.00,286.46 L571.07,284.60 Z M585.16,288.87 L582.30,289.19 L586.02,289.61 L585.16,288.87 Z M593.00,309.77 L587.36,288.87 L587.49,290.89 L587.25,290.69 L593.00,309.77 Z M581.45,195.22 L581.98,198.53 L583.09,199.02 L581.45,195.22 Z M597.34,195.43 L604.01,197.37 L604.01,197.37 L597.34,195.43 Z M604.48,196.22 L606.44,191.49 L604.75,194.05 L604.48,196.22 Z M595.22,101.89 L595.75,112.45 L595.44,100.99 L595.22,101.89 Z M564.51,127.92 L565.76,130.75 L565.05,127.34 L564.51,127.92 Z M566.41,125.89 L565.65,126.70 L572.45,126.32 L566.41,125.89 Z M629.33,347.32 L630.07,349.34 L628.37,344.33 L629.33,347.32 Z M645.06,396.82 L644.47,395.95 L644.02,396.50 L645.06,396.82 Z M646.17,409.61 L646.70,399.26 L646.35,398.75 L646.17,409.61 Z M655.52,415.32 L656.00,414.71 L648.50,412.70 L655.52,415.32 Z M660.68,418.67 L658.46,415.37 L656.76,414.91 L660.68,418.67 Z M665.87,413.66 L663.12,414.19 L662.36,415.59 L665.87,413.66 Z M664.81,409.86 L663.12,410.14 L663.73,410.51 L664.81,409.86 Z M682.50,404.69 L680.70,404.49 L672.86,408.65 L682.50,404.69 Z M700.66,402.49 L699.13,404.38 L699.92,404.48 L700.66,402.49 Z M670.21,420.70 L666.08,411.95 L669.97,421.28 L670.21,420.70 Z M637.06,444.06 L635.39,445.74 L637.64,444.58 L637.06,444.06 Z M669.79,440.43 L670.11,444.38 L671.78,447.89 L669.79,440.43 Z M672.86,451.95 L672.38,450.13 L670.00,459.10 L672.86,451.95 Z M668.45,460.24 L672.33,459.74 L670.00,459.10 L668.45,460.24 Z M677.10,496.43 L677.20,494.08 L675.19,498.03 L668.20,509.23 L677.10,496.43 Z M678.26,562.66 L678.86,562.49 L675.93,556.58 L678.26,562.66 Z M662.30,457.85 L664.81,450.46 L661.85,457.92 L662.30,457.85 Z M678.58,427.52 L687.67,432.00 L687.67,432.00 L678.58,427.52 Z M642.89,345.72 L632.15,344.74 L632.51,345.50 L642.89,345.72 Z M655.87,345.82 L653.90,343.26 L654.21,343.01 L649.56,341.45 L655.87,345.82 Z M665.66,372.91 L672.01,362.89 L671.97,360.72 L669.37,366.20 L665.66,372.91 Z M665.62,372.92 L667.88,373.34 L665.66,372.91 L665.62,372.92 Z M662.90,375.69 L663.24,373.17 L662.59,373.23 L662.90,375.69 Z M654.22,374.30 L657.29,385.93 L655.53,375.73 L654.22,374.30 Z M671.70,348.17 L670.85,353.50 L671.87,356.21 L671.70,348.17 Z M744.99,608.74 L741.60,609.17 L740.64,609.69 L744.99,608.74 Z M735.78,613.33 L736.74,611.82 L732.60,614.07 L735.78,613.33 Z M730.48,632.10 L732.27,616.88 L731.54,617.70 L730.48,632.10 Z M731.72,649.65 L732.28,646.82 L730.48,632.10 L731.72,649.65 Z M733.55,658.12 L731.22,652.15 L731.41,651.23 L729.74,649.80 L733.55,658.12 Z M738.32,658.02 L743.62,659.51 L740.01,657.91 L733.55,658.12 L738.32,658.02 Z M665.76,697.16 L664.24,695.31 L667.67,703.67 L665.76,697.16 Z M690.25,762.96 L685.15,761.37 L689.28,763.29 L690.25,762.96 Z M780.26,756.89 L779.38,757.02 L781.85,759.13 L780.26,756.89 Z M708.13,219.75 L701.99,223.16 L709.33,220.03 L708.13,219.75 Z M677.10,250.79 L665.34,269.24 L672.23,259.11 L677.10,250.79 Z M679.32,277.35 L680.91,280.65 L682.43,281.44 L679.32,277.35 Z M683.47,282.81 L682.65,283.71 L683.77,283.21 L683.47,282.81 Z M624.46,288.01 L617.15,283.75 L618.21,285.56 L624.46,288.01 Z M618.72,279.33 L619.80,276.28 L618.74,278.52 L618.72,279.33 Z M644.05,278.09 L644.49,278.12 L641.61,275.96 L644.05,278.09 Z M651.62,276.79 L647.74,278.28 L650.30,278.41 L651.62,276.79 Z M653.48,276.07 L653.14,276.20 L655.07,278.73 L653.48,276.07 Z M620.30,116.52 L622.34,117.04 L628.27,114.58 L620.30,116.52 Z M713.59,260.34 L715.65,260.28 L724.23,258.26 L713.59,260.34 Z M758.44,743.13 L760.35,738.86 L762.26,730.76 L758.44,743.13 Z M750.18,651.72 L758.84,648.88 L755.58,648.95 L750.18,651.72 Z M774.97,628.79 L781.37,626.67 L780.90,626.45 L774.97,628.79 Z M786.61,627.84 L789.58,628.90 L788.10,627.41 L786.61,627.84 Z M777.83,655.35 L779.73,656.10 L768.29,648.63 L763.85,647.24 L777.83,655.35 Z M769.67,706.97 L765.86,700.79 L769.61,708.68 L769.67,706.97 Z M789.08,689.79 L779.42,691.83 L787.57,690.65 L789.08,689.79 Z M797.10,688.09 L795.40,688.46 L799.01,688.84 L797.10,688.09 Z M798.38,695.03 L799.54,692.15 L799.01,688.84 L798.38,695.03 Z M802.72,711.56 L800.81,704.41 L802.59,712.18 L802.72,711.56 Z M828.35,710.07 L829.30,714.23 L829.40,709.06 L828.35,710.07 Z M830.89,707.61 L830.15,708.33 L835.13,708.15 L830.89,707.61 Z M838.52,716.25 L846.78,724.47 L837.67,714.01 L835.13,708.15 L838.52,716.25 Z M846.36,726.60 L848.93,732.04 L846.78,724.47 L846.36,726.60 Z M851.73,830.62 L850.81,830.59 L850.42,831.51 L851.73,830.62 Z M850.15,736.34 L848.60,739.04 L850.38,737.16 L850.15,736.34 Z M768.19,728.31 L768.51,738.44 L769.15,720.98 L768.19,728.31 Z M799.43,658.12 L797.32,650.55 L797.63,654.39 L799.43,658.12 Z M708.87,499.31 L704.42,499.31 L701.04,500.48 L701.22,501.10 L708.87,499.31 Z M718.09,526.29 L713.96,519.04 L715.86,522.77 L718.09,526.29 Z M736.72,519.39 L737.26,521.81 L738.36,522.20 L736.72,519.39 Z M698.71,568.64 L690.79,574.22 L689.31,576.60 L689.81,576.32 L698.71,568.64 Z M726.69,493.54 L726.03,491.52 L723.91,489.81 L726.69,493.54 Z M712.58,488.21 L712.12,489.26 L716.50,487.80 L712.58,488.21 Z M586.96,63.71 L589.71,62.75 L588.65,63.92 L586.96,63.71 Z M596.92,62.64 L596.60,61.79 L596.81,61.68 L596.92,62.64 Z M600.20,62.64 L599.88,62.64 L599.78,61.57 L600.20,62.64 Z M779.73,276.17 L779.73,274.79 L780.48,274.47 L781.32,275.43 L779.73,276.17 Z M758.66,210.90 L757.60,211.86 L756.54,210.69 L757.49,211.11 L758.66,210.90 Z M946.87,63.49 L954.50,63.71 L959.06,65.63 L960.75,63.92 L964.99,63.81 L970.92,66.48 L978.86,66.48 L980.45,67.23 L980.77,70.64 L977.38,73.73 L978.33,78.32 L972.19,78.11 L962.34,85.79 L955.88,87.49 L950.79,83.87 L935.54,80.56 L932.26,81.31 L928.87,71.28 L931.52,70.21 L934.59,65.31 L946.87,63.49 Z M911.39,25.63 L911.39,21.68 L919.87,19.23 L921.77,20.40 L920.40,24.88 L917.32,26.27 L911.39,25.63 Z" /></g></svg>