<svg xmlns="http://www.w3.org/2000/svg" viewBox="0 0 1000 1000" width="1000" height="1000"><g fill="#cccccc" stroke="#222" stroke-width="2"><path d="M416.92,820.28 L426.47,824.45 L419.98,821.11 L421.89,814.59 L417.82,811.95 L417.94,803.34 L413.87,799.04 L412.34,792.93 L417.56,790.02 L415.40,786.41 L411.84,786.41 L412.22,781.41 L406.75,780.30 L406.62,771.14 L403.95,766.14 L399.11,765.86 L399.62,759.33 L395.04,761.00 L392.24,764.06 L384.23,764.75 L385.37,767.11 L389.95,766.55 L386.77,776.69 L381.30,778.91 L379.52,775.99 L371.51,773.77 L373.41,785.44 L369.09,794.88 L362.09,797.79 L363.75,801.26 L367.82,802.93 L366.42,806.68 L357.13,805.43 L352.30,798.62 L343.52,800.85 L340.21,796.96 L336.27,797.10 L332.32,792.52 L332.83,787.52 L326.60,789.32 L325.20,785.02 L317.06,778.63 L317.69,775.16 L315.15,774.75 L324.43,765.44 L327.74,764.61 L326.22,764.61 L321.13,761.70 L317.31,762.11 L309.17,749.62 L305.48,752.95 L302.81,750.17 L300.39,751.56 L296.32,746.28 L295.30,749.48 L291.10,752.12 L288.81,750.31 L285.76,753.50 L282.83,750.31 L283.34,756.42 L275.71,757.11 L276.98,760.31 L273.67,760.72 L270.62,765.17 L267.95,762.81 L264.77,763.22 L265.66,771.97 L260.57,771.83 L258.41,773.91 L253.70,771.41 L252.05,775.58 L248.74,775.02 L247.85,778.91 L243.90,776.27 L238.43,778.22 L236.27,774.19 L231.82,772.94 L230.16,768.91 L224.18,770.44 L227.75,772.94 L226.35,788.21 L224.57,796.26 L219.73,796.82 L210.19,793.49 L202.43,794.60 L196.83,786.82 L188.94,787.38 L183.47,778.22 L179.78,780.58 L171.77,780.85 L161.85,786.55 L157.39,782.10 L153.96,782.94 L154.47,776.69 L150.90,772.11 L144.42,774.05 L137.16,770.86 L142.76,763.36 L142.64,756.28 L139.71,755.17 L140.22,753.09 L118.08,745.59 L115.41,744.20 L111.85,751.42 L111.98,755.73 L107.78,754.89 L105.36,748.37 L100.40,747.67 L93.27,741.98 L93.91,736.84 L90.86,733.37 L85.00,738.51 L74.70,732.68 L83.68,714.30 L66.05,749.20 L20.88,695.20 L19.61,669.51 L22.16,668.12 L19.23,666.87 L22.92,642.02 L27.37,596.90 L29.00,595.22 L27.25,594.27 L33.35,547.62 L33.10,532.63 L27.63,524.57 L27.37,518.46 L21.90,506.80 L25.72,498.75 L23.05,492.36 L35.64,492.78 L37.30,482.51 L42.64,478.90 L46.33,478.62 L51.04,483.20 L53.71,477.79 L58.67,474.73 L59.81,466.82 L69.86,471.40 L74.06,470.43 L74.06,475.01 L80.68,478.20 L80.93,482.51 L83.99,483.76 L84.88,488.89 L84.24,476.68 L85.77,474.59 L97.85,463.63 L99.25,460.02 L104.60,461.41 L109.69,457.24 L113.25,460.16 L112.48,466.40 L120.24,464.04 L123.17,465.29 L131.69,459.88 L135.38,461.82 L140.35,455.02 L149.51,452.38 L153.07,440.03 L165.79,438.64 L168.84,432.81 L175.97,429.61 L175.20,432.53 L178.89,443.50 L182.71,445.72 L178.38,441.41 L214.90,403.93 L290.21,351.87 L344.92,318.83 L390.97,288.56 L400.13,281.20 L400.39,276.48 L401.91,259.82 L415.27,202.49 L417.69,203.04 L406.62,200.13 L418.45,147.65 L422.52,136.26 L426.21,137.24 L431.55,108.64 L434.10,106.97 L432.57,103.22 L433.34,98.64 L436.39,98.23 L436.13,95.31 L432.57,92.67 L436.77,85.31 L432.70,83.79 L439.57,70.74 L436.39,68.79 L440.59,64.21 L438.55,63.10 L437.92,58.94 L439.95,57.69 L440.97,49.08 L447.97,45.33 L447.20,41.72 L453.06,37.42 L451.40,32.84 L460.94,30.48 L469.85,19.23 L479.77,26.87 L496.57,27.56 L531.81,57.13 L549.11,68.52 L563.48,87.26 L574.42,93.78 L594.14,119.05 L599.11,134.32 L628.24,174.30 L639.43,184.30 L664.37,206.65 L690.58,243.44 L726.84,265.38 L740.83,277.87 L768.31,312.30 L785.23,328.96 L817.80,369.08 L917.92,466.54 L926.70,472.23 L980.77,507.36 L971.61,520.41 L971.35,537.48 L968.05,549.01 L959.14,577.61 L953.03,584.96 L955.07,587.05 L949.47,591.07 L949.09,596.90 L938.40,617.87 L920.34,632.86 L914.36,636.47 L902.40,638.27 L888.92,647.58 L866.65,657.57 L860.04,688.81 L830.27,714.91 L818.31,731.15 L819.45,734.76 L820.47,738.09 L835.74,742.12 L839.04,762.81 L835.99,780.30 L837.14,794.46 L823.91,813.76 L773.91,853.88 L767.80,854.02 L763.60,858.04 L737.01,866.10 L732.56,864.85 L736.50,863.18 L736.89,859.02 L730.65,853.32 L699.48,862.62 L679.89,870.26 L675.69,875.40 L664.12,876.92 L656.61,877.48 L625.95,889.28 L624.30,887.20 L617.30,893.03 L613.99,892.61 L589.56,902.05 L582.31,903.02 L575.19,906.63 L573.41,909.83 L568.83,907.05 L548.47,915.52 L491.99,932.46 L447.71,949.39 L441.48,954.11 L439.06,953.28 L433.34,956.20 L429.52,960.08 L426.97,958.83 L425.19,961.75 L416.03,964.80 L412.98,968.14 L403.06,969.94 L379.78,980.77 L369.34,942.31 L377.99,936.90 L360.31,849.71 L383.08,836.80 L403.69,829.17 L416.92,820.28 Z M190.22,465.57 L185.76,453.49 L182.71,445.72 L190.22,465.57 Z M510.18,115.44 L504.71,117.38 L494.28,122.94 L510.18,115.44 Z M554.71,144.18 L556.31,143.01 L546.05,143.21 L554.71,144.18 Z M551.52,214.01 L549.87,211.23 L543.13,205.26 L551.52,214.01 Z M535.75,293.42 L561.19,293.84 L544.91,293.56 L535.75,293.42 Z M596.43,337.71 L595.16,334.10 L594.88,334.12 L596.43,337.71 Z M576.43,410.15 L581.93,409.21 L577.60,409.07 L581.04,399.63 L576.43,410.15 Z M574.17,415.31 L574.04,419.34 L574.94,413.56 L574.17,415.31 Z M571.12,429.34 L563.10,446.55 L576.33,422.26 L571.12,429.34 Z M556.10,431.28 L558.14,446.55 L557.76,443.22 L556.10,431.28 Z M518.96,510.00 L529.52,495.00 L529.48,494.94 L518.96,510.00 Z M507.25,511.52 L508.52,510.13 L513.36,504.44 L507.25,511.52 Z M564.72,627.19 L565.26,625.78 L564.20,624.99 L564.72,627.19 Z M561.45,637.58 L566.28,647.30 L561.84,636.58 L561.45,637.58 Z M566.51,693.32 L566.16,689.09 L561.07,676.31 L566.51,693.32 Z M566.66,726.29 L571.75,725.46 L566.02,725.69 L566.66,726.29 Z M562.72,846.52 L560.94,867.21 L564.23,833.36 L562.72,846.52 Z M369.60,414.90 L363.62,419.89 L366.29,418.92 L369.60,414.90 Z M377.23,384.63 L368.71,396.43 L365.40,402.82 L374.56,388.66 L377.23,384.63 Z M431.30,414.49 L431.05,415.04 L428.88,423.64 L431.30,414.49 Z M363.24,440.30 L385.76,447.11 L372.14,442.94 L363.24,440.30 Z M361.31,484.83 L362.04,467.97 L360.69,483.34 L361.31,484.83 Z M362.73,491.11 L366.29,495.84 L362.74,489.93 L360.82,491.81 L362.73,491.11 Z M413.74,588.85 L399.37,586.63 L397.85,586.99 L413.74,588.85 Z M387.54,600.65 L386.77,593.02 L384.48,586.63 L387.54,600.65 Z M364.38,643.13 L368.45,667.01 L365.65,648.83 L365.35,642.89 L364.38,643.13 Z M395.68,693.95 L399.50,685.62 L394.52,695.58 L398.00,694.99 L395.68,693.95 Z M400.00,695.89 L399.09,695.48 L398.53,698.01 L400.00,695.89 Z M391.48,725.74 L393.49,724.63 L388.05,724.07 L391.48,725.74 Z M86.53,627.17 L90.86,620.78 L95.05,613.70 L86.53,627.17 Z M119.61,640.77 L123.43,634.80 L130.29,616.48 L119.61,640.77 Z M317.44,649.66 L317.44,652.44 L316.33,658.60 L317.69,657.99 L317.44,649.66 Z M319.98,750.59 L321.38,754.75 L323.93,757.72 L319.98,750.59 Z M155.10,714.49 L165.03,706.86 L154.21,713.81 L155.10,714.49 Z M196.07,715.88 L185.51,711.16 L178.00,708.25 L196.07,715.88 Z M285.89,719.35 L287.92,725.46 L286.01,716.44 L285.89,719.35 Z M119.99,730.60 L120.50,731.54 L119.86,723.79 L119.99,730.60 Z M173.68,676.59 L175.59,685.06 L174.06,666.04 L173.68,676.59 Z M175.97,657.02 L174.95,658.54 L169.61,640.50 L176.09,663.68 L175.97,657.02 Z M178.89,658.96 L179.50,658.34 L175.97,657.02 L178.89,658.96 Z M240.34,657.16 L236.19,656.49 L236.91,657.99 L240.34,657.16 Z M306.37,548.17 L335.38,541.23 L258.28,559.56 L306.37,548.17 Z M351.51,486.78 L350.51,486.67 L349.24,490.84 L351.51,486.78 Z M350.42,570.61 L342.75,573.30 L346.83,573.30 L350.42,570.61 Z M107.52,566.08 L118.46,571.64 L84.37,551.23 L107.52,566.08 Z M127.62,535.26 L130.62,534.56 L120.50,533.18 L127.62,535.26 Z M162.10,532.49 L168.08,532.63 L141.87,531.93 L162.10,532.49 Z M75.11,547.83 L76.99,552.62 L75.11,547.83 L75.11,547.83 Z M394.92,342.71 L397.71,346.18 L402.42,351.73 L394.92,342.71 Z M470.87,503.19 L472.73,499.31 L471.38,499.86 L470.87,503.19 Z M469.85,488.20 L475.32,493.89 L476.21,495.84 L476.21,493.61 L469.85,488.20 Z M469.21,809.73 L460.43,811.40 L469.49,810.63 L469.21,809.73 Z M501.53,800.15 L487.41,800.57 L504.45,801.26 L501.53,800.15 Z M508.59,778.80 L513.36,773.36 L508.27,778.08 L508.59,778.80 Z M428.63,658.96 L425.65,660.71 L434.99,657.43 L428.63,658.96 Z M471.90,650.93 L471.63,650.63 L459.29,646.88 L456.78,647.28 L471.90,650.93 Z M496.44,653.41 L493.97,652.65 L500.38,658.13 L496.44,653.41 Z M461.07,595.65 L463.61,625.78 L462.09,605.23 L461.07,595.65 Z M486.56,592.70 L493.26,589.27 L519.21,569.69 L486.56,592.70 Z M431.17,375.75 L445.61,362.45 L433.84,373.25 L431.17,375.75 Z M501.91,336.04 L495.67,326.74 L492.34,323.68 L501.91,336.04 Z M432.45,411.98 L431.85,413.28 L435.86,410.14 L432.45,411.98 Z M485.12,357.42 L488.04,361.59 L485.13,357.04 L485.12,357.42 Z M468.32,298.14 L473.32,279.90 L472.65,279.95 L470.99,286.90 L468.32,298.14 Z M474.81,270.10 L474.55,275.07 L484.86,228.59 L474.81,270.10 Z M465.14,204.71 L484.99,196.79 L491.60,193.74 L465.14,204.71 Z M504.83,192.21 L502.67,191.80 L504.79,193.10 L504.83,192.21 Z M512.34,192.77 L506.50,194.15 L506.74,194.30 L512.34,192.77 Z M475.45,301.06 L473.79,311.33 L474.42,311.63 L475.45,301.06 Z M572.66,577.89 L572.52,578.30 L580.79,580.11 L572.66,577.89 Z M529.31,82.14 L494.91,47.55 L520.36,74.49 L529.31,82.14 Z M546.94,92.67 L539.04,90.46 L540.33,91.56 L546.94,92.67 Z M596.43,234.28 L597.32,237.89 L600.50,250.66 L596.43,234.28 Z M598.60,254.55 L601.40,274.12 L599.61,255.52 L600.50,250.66 L598.60,254.55 Z M654.96,232.75 L659.34,232.85 L658.14,232.06 L654.96,232.75 Z M635.49,253.16 L644.14,241.08 L638.16,248.86 L635.49,253.16 Z M636.51,262.46 L638.16,259.68 L635.11,262.69 L636.51,262.46 Z M624.93,267.32 L627.59,264.80 L625.44,265.24 L624.93,267.32 Z M642.49,290.92 L635.62,281.48 L642.24,292.01 L642.49,290.92 Z M649.74,302.03 L634.35,306.61 L641.22,296.61 L641.65,294.66 L632.06,307.72 L649.74,302.03 Z M678.24,341.32 L684.70,322.45 L682.05,326.46 L679.38,336.60 L678.24,341.32 Z M686.25,401.71 L683.07,399.90 L689.69,404.48 L686.25,401.71 Z M681.15,516.63 L680.65,513.61 L680.15,515.83 L681.15,516.63 Z M697.83,634.67 L715.77,570.39 L728.74,589.82 L716.15,569.00 L720.73,551.78 L715.89,569.69 L697.83,634.67 Z M641.98,602.32 L644.27,575.80 L642.23,589.41 L641.98,602.32 Z M663.61,639.11 L658.01,638.97 L657.75,633.69 L657.59,640.52 L663.61,639.11 Z M641.37,700.56 L650.50,693.95 L642.49,699.36 L641.37,700.56 Z M630.15,713.80 L633.85,708.60 L626.30,716.67 L630.15,713.80 Z M655.21,782.24 L658.34,781.00 L653.50,781.97 L654.80,782.74 L655.21,782.24 Z M653.94,799.04 L652.16,790.85 L652.47,790.26 L651.67,790.50 L653.94,799.04 Z M553.18,467.93 L563.36,484.17 L559.54,477.23 L553.18,467.93 Z M570.35,479.45 L568.45,479.04 L559.54,477.23 L570.35,479.45 Z M567.94,484.45 L567.78,484.46 L569.34,485.01 L570.61,482.79 L567.94,484.45 Z M631.80,482.09 L620.99,504.30 L617.95,514.51 L618.01,514.52 L631.80,482.09 Z M646.81,791.27 L650.53,788.88 L650.25,787.80 L646.81,791.27 Z M577.86,498.89 L584.73,517.77 L587.40,523.05 L577.86,498.89 Z M596.94,526.66 L601.52,519.99 L596.52,526.89 L596.94,526.66 Z M616.41,580.38 L616.48,579.08 L604.49,580.37 L605.59,581.35 L616.41,580.38 Z M618.11,578.90 L620.10,579.83 L630.15,577.61 L618.11,578.90 Z M593.76,530.68 L594.37,530.87 L594.22,530.05 L593.76,530.68 Z M544.15,523.18 L546.69,519.30 L560.72,493.78 L544.15,523.18 Z M623.53,438.91 L624.51,439.44 L627.60,432.94 L623.53,438.91 Z M626.33,440.41 L629.51,442.11 L651.90,444.61 L665.77,444.88 L626.33,440.41 Z M647.32,374.50 L638.04,376.72 L641.22,376.44 L647.32,374.50 Z M639.35,416.32 L640.96,415.31 L641.63,411.86 L639.35,416.32 Z M644.91,405.46 L657.75,410.87 L644.65,403.93 L644.91,405.46 Z M585.11,174.03 L593.25,185.97 L591.09,182.08 L585.11,174.03 Z M740.96,560.15 L741.47,569.00 L741.63,559.91 L740.96,560.15 Z M835.86,555.67 L849.39,548.36 L849.39,548.36 L835.86,555.67 Z M768.82,721.99 L766.78,668.82 L767.55,641.61 L766.27,684.92 L768.82,721.99 Z M664.92,779.68 L666.66,780.71 L667.97,779.07 L664.92,779.68 Z M669.93,778.68 L670.60,779.74 L678.49,776.97 L669.93,778.68 Z M708.77,759.61 L720.25,756.68 L718.57,756.14 L708.77,759.61 Z M781.80,763.22 L807.56,739.60 L806.35,740.18 L781.80,763.22 Z M761.44,637.03 L762.20,616.48 L761.82,625.50 L761.44,637.03 Z M745.66,413.02 L741.59,413.37 L736.63,417.12 L745.66,413.02 Z M778.49,406.98 L776.83,408.23 L774.16,413.65 L778.49,406.98 Z M796.04,411.84 L784.09,404.21 L789.94,408.23 L796.04,411.84 Z M725.31,469.60 L727.60,470.15 L756.73,476.12 L725.31,469.60 Z M802.52,475.13 L795.28,482.23 L802.52,475.13 L802.52,475.13 Z M846.30,540.40 L834.72,518.46 L848.98,547.31 L846.30,540.40 Z M877.88,517.04 L877.88,517.04 L885.48,508.61 L877.88,517.04 Z M746.43,396.29 L754.06,409.21 L739.81,380.26 L746.43,396.29 Z M766.40,322.99 L761.36,332.73 L762.58,331.46 L766.40,322.99 Z M775.06,362.85 L773.40,364.50 L769.96,377.14 L775.06,362.85 Z M702.20,294.16 L704.19,298.83 L716.28,323.27 L702.20,294.16 Z" /></g></svg>