<svg xmlns="http://www.w3.org/2000/svg" viewBox="0 0 1000 1000" width="1000" height="1000"><g fill="#cccccc" stroke="#222" stroke-width="2"><path d="M199.05,868.30 L195.49,865.32 L191.73,863.94 L191.25,862.02 L186.90,864.40 L182.18,864.93 L174.75,860.57 L172.20,854.49 L172.20,849.47 L169.23,846.57 L169.28,844.98 L166.74,841.68 L164.88,840.82 L161.64,833.56 L163.29,825.04 L160.69,823.45 L156.65,817.71 L154.58,816.78 L154.11,814.01 L152.30,813.68 L149.76,815.53 L147.53,817.97 L145.46,817.77 L143.50,823.19 L141.74,824.18 L140.52,830.58 L139.62,830.72 L139.99,833.75 L138.56,835.80 L135.70,833.42 L134.10,834.81 L129.91,835.01 L125.19,833.69 L122.54,836.99 L122.06,839.90 L118.35,842.60 L115.11,840.36 L112.03,841.42 L109.38,840.23 L107.95,837.52 L103.86,833.82 L102.96,831.58 L100.57,829.59 L99.62,826.82 L96.38,827.28 L91.97,829.73 L87.78,825.63 L82.16,823.65 L77.17,819.36 L73.46,817.97 L67.99,818.76 L65.07,816.98 L64.28,816.19 L64.44,812.09 L62.79,808.79 L60.35,806.68 L58.55,806.68 L58.12,808.46 L55.47,810.44 L54.62,812.16 L49.85,814.14 L47.83,816.65 L43.16,815.59 L39.02,812.36 L38.44,810.71 L35.41,810.38 L35.20,808.72 L31.86,809.52 L29.31,807.07 L29.31,805.36 L30.27,804.83 L26.92,803.44 L26.87,799.28 L25.81,797.89 L27.67,794.52 L27.67,791.02 L30.85,785.54 L30.96,783.36 L26.82,779.53 L24.86,775.11 L19.23,771.94 L21.09,769.43 L23.37,768.97 L29.31,768.90 L30.11,770.02 L33.72,769.56 L36.53,771.28 L41.94,767.71 L43.80,768.24 L47.88,764.87 L51.17,764.41 L53.35,768.04 L55.68,768.50 L55.31,765.46 L59.03,762.76 L59.87,760.71 L53.88,752.52 L54.36,750.08 L53.29,748.76 L53.29,740.96 L59.71,734.56 L63.85,736.47 L66.61,735.94 L65.50,735.02 L64.17,729.14 L64.33,725.90 L65.45,723.53 L65.02,719.56 L62.21,715.54 L59.50,706.16 L60.46,705.56 L59.93,703.38 L58.02,702.46 L56.53,701.67 L57.33,699.95 L55.26,700.54 L54.57,697.44 L55.05,696.65 L57.43,696.65 L58.28,692.09 L56.53,690.64 L61.15,688.59 L61.04,686.54 L59.45,685.95 L61.09,683.57 L58.28,682.65 L59.45,681.79 L57.33,680.27 L58.02,676.70 L55.47,674.59 L55.20,673.00 L55.20,671.81 L52.55,670.56 L53.40,666.27 L51.49,665.34 L52.07,662.30 L53.98,660.98 L52.45,658.54 L55.31,659.93 L54.99,657.81 L55.79,656.36 L59.71,659.40 L62.42,659.07 L65.34,660.78 L66.35,659.33 L65.07,655.04 L61.84,650.22 L58.87,648.43 L61.52,644.47 L58.18,638.33 L62.53,634.90 L65.71,636.68 L70.33,636.41 L72.18,638.73 L73.67,638.33 L74.57,636.68 L78.55,638.92 L83.33,639.32 L93.83,648.63 L96.43,652.33 L100.25,653.06 L103.28,658.74 L109.11,659.00 L114.21,657.94 L119.57,660.26 L130.12,657.09 L131.13,655.44 L131.29,652.86 L128.27,650.28 L126.15,645.59 L123.01,642.23 L121.37,636.28 L121.58,633.77 L119.51,630.54 L118.72,614.16 L115.90,602.07 L116.49,600.16 L120.63,597.58 L122.27,593.62 L126.36,588.40 L133.31,592.30 L136.33,588.27 L136.97,579.15 L138.61,573.34 L137.50,566.47 L135.70,562.38 L136.84,554.82 L135.17,551.88 L136.54,545.93 L136.28,543.23 L137.82,540.58 L136.01,538.27 L134.74,533.58 L136.60,528.89 L139.25,525.79 L139.04,519.05 L140.31,516.02 L140.26,513.44 L138.83,512.05 L139.36,509.54 L135.80,498.84 L135.75,494.75 L126.36,489.00 L117.02,490.39 L108.53,482.99 L104.82,482.60 L102.37,480.95 L103.33,474.94 L107.89,469.39 L109.86,464.17 L112.03,461.86 L112.24,457.17 L105.56,455.59 L104.07,454.26 L98.55,454.40 L97.71,453.01 L97.92,450.50 L96.43,443.50 L89.16,436.89 L89.22,436.04 L86.67,435.84 L84.92,428.71 L81.89,427.25 L81.84,425.60 L85.34,424.15 L88.15,416.75 L91.44,417.02 L93.99,419.46 L100.46,416.55 L105.82,417.35 L107.57,415.96 L106.78,412.00 L110.81,413.45 L114.10,411.47 L117.18,412.59 L118.93,414.90 L125.24,417.41 L126.15,416.95 L127.84,418.20 L129.17,416.02 L130.92,415.36 L134.26,415.69 L139.14,414.44 L140.10,415.17 L144.40,410.53 L143.02,407.31 L148.54,397.73 L146.84,388.88 L147.16,382.80 L143.76,379.24 L143.81,378.31 L145.51,375.21 L145.83,368.54 L148.80,363.72 L151.24,361.67 L149.97,357.91 L152.14,356.72 L155.86,358.63 L157.77,356.19 L163.45,356.06 L165.67,351.76 L173.10,347.47 L180.53,348.07 L181.80,343.44 L183.40,341.33 L183.45,338.03 L181.22,328.45 L182.87,325.28 L184.09,326.67 L185.94,326.60 L186.53,325.08 L188.30,325.71 L189.55,323.83 L188.44,322.57 L188.91,316.89 L187.53,316.03 L187.69,312.47 L189.87,309.63 L191.51,310.22 L192.42,303.09 L194.11,302.03 L196.87,302.16 L197.77,297.41 L200.11,294.90 L200.91,292.19 L200.11,289.95 L202.18,288.56 L203.24,286.12 L198.41,282.15 L198.52,278.45 L197.67,277.07 L195.33,277.33 L195.55,275.28 L194.11,275.22 L193.53,273.57 L198.31,269.08 L201.75,266.70 L203.56,259.04 L207.01,256.07 L207.48,252.30 L212.05,248.67 L216.13,247.41 L221.60,254.41 L223.77,249.73 L221.92,246.36 L221.07,242.26 L216.66,236.45 L215.92,234.14 L217.09,232.75 L212.84,224.10 L212.63,221.85 L210.83,215.71 L209.02,213.53 L209.98,211.49 L204.04,205.08 L203.03,197.68 L198.57,192.07 L194.54,188.90 L193.26,186.52 L196.66,171.93 L193.53,166.58 L192.47,163.60 L190.77,162.22 L193.80,157.53 L192.79,153.63 L190.45,150.79 L188.54,150.92 L187.11,149.67 L187.43,143.79 L183.98,136.66 L183.29,130.98 L181.70,129.46 L177.45,127.02 L175.07,123.51 L168.70,121.93 L167.37,118.36 L165.04,115.99 L165.89,112.35 L162.33,108.85 L164.40,103.31 L160.63,99.80 L161.43,97.56 L160.85,95.12 L163.13,91.62 L162.12,90.29 L162.65,86.07 L165.57,83.76 L163.45,83.03 L163.23,80.26 L170.61,76.09 L171.67,70.88 L174.38,69.09 L173.47,67.44 L172.84,62.03 L169.76,59.45 L172.09,52.38 L175.76,50.73 L176.82,47.17 L178.62,45.38 L177.45,41.03 L178.89,38.12 L178.83,35.87 L177.08,32.70 L180.37,30.39 L184.72,23.13 L186.58,23.46 L195.71,19.23 L200.06,23.79 L204.20,23.39 L208.71,26.63 L214.54,26.96 L216.08,28.54 L223.03,31.32 L228.55,31.58 L231.57,38.45 L242.61,46.24 L248.18,43.20 L251.95,44.20 L252.16,49.21 L255.24,51.59 L257.25,57.40 L256.09,61.76 L258.90,68.70 L259.32,72.07 L263.04,74.77 L270.25,77.09 L271.58,78.67 L272.22,84.55 L268.72,91.88 L271.53,93.53 L272.69,96.37 L276.73,97.76 L279.65,101.32 L279.27,102.97 L280.97,104.82 L280.23,106.48 L280.92,108.79 L279.96,109.98 L280.28,115.92 L285.85,115.06 L285.43,117.11 L286.22,118.83 L289.78,119.55 L288.88,124.90 L285.96,130.91 L284.26,131.84 L282.03,136.06 L280.81,143.26 L275.67,146.56 L275.88,148.41 L274.55,151.19 L276.14,155.41 L283.41,157.13 L285.85,163.21 L287.76,164.99 L289.46,164.59 L290.42,167.43 L292.59,167.76 L294.61,165.39 L299.70,164.92 L301.13,166.31 L306.44,164.66 L309.41,166.38 L305.96,179.39 L306.44,185.07 L308.46,186.45 L309.31,184.87 L310.74,184.41 L314.82,186.32 L316.47,185.27 L319.55,185.73 L319.12,187.84 L321.40,191.41 L321.72,196.10 L325.44,196.10 L326.23,199.53 L328.25,201.45 L328.35,203.10 L331.27,205.34 L332.76,211.29 L334.14,211.35 L334.99,212.94 L338.12,211.02 L344.43,214.46 L346.55,212.87 L348.25,208.71 L350.21,212.61 L348.73,214.13 L348.04,218.22 L348.94,218.95 L349.36,224.76 L350.85,226.54 L350.43,230.24 L351.33,231.89 L350.91,233.68 L352.92,236.78 L356.69,236.85 L358.97,244.64 L363.16,242.39 L364.86,245.10 L367.25,245.04 L369.42,247.15 L372.18,246.95 L373.77,245.56 L374.36,231.83 L378.28,236.65 L384.65,239.03 L386.51,241.07 L393.19,239.75 L395.42,237.24 L400.30,240.48 L403.91,243.85 L402.90,252.63 L404.04,257.61 L418.45,258.18 L419.88,261.55 L420.89,261.28 L426.94,252.57 L428.58,251.97 L430.12,254.81 L434.58,253.69 L439.57,255.60 L440.52,260.29 L444.55,258.18 L444.71,256.92 L447.84,258.38 L449.12,256.99 L450.65,257.78 L450.44,256.40 L451.45,256.00 L460.52,262.60 L462.65,265.64 L479.31,270.99 L483.29,275.35 L486.58,275.15 L490.50,272.38 L493.85,273.70 L496.39,272.38 L498.04,272.84 L502.28,269.74 L510.88,267.76 L521.65,266.90 L529.18,271.52 L541.01,271.98 L548.66,261.42 L549.19,256.53 L552.32,255.87 L557.57,256.46 L559.85,255.41 L563.19,257.06 L566.70,256.20 L571.63,256.79 L572.58,257.78 L572.53,260.09 L575.08,261.68 L581.18,260.69 L584.74,262.54 L589.51,263.07 L594.23,268.68 L597.74,268.94 L604.42,266.24 L607.92,267.76 L613.23,267.36 L616.57,268.61 L617.00,276.14 L615.46,278.19 L612.11,278.65 L610.84,283.21 L608.08,285.26 L606.28,290.34 L601.18,294.11 L599.22,297.94 L597.63,298.00 L595.61,300.84 L590.94,301.83 L589.51,303.75 L591.42,306.59 L594.76,322.64 L592.38,322.84 L589.56,324.62 L588.93,327.86 L583.73,335.91 L584.79,337.43 L586.70,345.16 L589.78,348.13 L592.11,352.36 L592.80,360.88 L593.33,362.86 L592.22,364.38 L592.00,368.08 L587.49,375.28 L588.29,377.98 L586.91,379.70 L587.39,384.98 L586.38,388.15 L589.03,393.70 L592.85,397.20 L596.14,397.73 L597.05,401.10 L595.93,403.48 L595.19,410.01 L597.31,411.14 L597.84,413.45 L606.07,416.75 L607.98,423.42 L612.91,430.42 L617.42,429.63 L618.64,428.11 L618.16,426.33 L619.06,424.08 L621.29,423.62 L624.48,425.87 L625.48,429.10 L629.15,434.25 L633.10,436.78 L633.02,436.70 L639.65,434.12 L642.20,434.65 L645.12,436.43 L648.09,441.39 L655.52,444.62 L659.97,452.35 L660.03,462.19 L664.85,465.82 L666.87,466.02 L672.34,463.77 L684.27,467.74 L687.19,467.87 L689.90,466.61 L692.71,463.71 L693.29,460.21 L695.26,457.17 L699.56,453.27 L704.44,451.09 L707.51,445.28 L709.42,443.50 L710.06,438.74 L712.71,435.90 L713.14,433.00 L717.38,427.19 L719.29,426.26 L723.80,426.59 L728.74,429.43 L734.84,429.50 L739.30,427.25 L743.91,429.96 L745.13,428.57 L745.45,424.54 L746.57,422.36 L750.12,420.85 L758.66,425.27 L761.10,431.81 L763.39,434.45 L765.93,434.78 L768.48,438.74 L770.92,439.14 L774.21,443.10 L776.76,443.83 L778.88,446.74 L780.90,446.80 L782.86,445.81 L792.83,451.62 L796.65,452.02 L800.53,450.90 L800.63,448.78 L802.33,445.68 L801.69,439.54 L802.91,435.24 L806.74,435.64 L809.81,431.88 L811.88,433.06 L813.69,435.97 L821.11,435.38 L825.89,431.74 L826.95,433.72 L825.47,441.85 L826.47,447.99 L830.61,454.86 L831.46,456.64 L833.64,457.04 L834.22,460.01 L833.05,462.45 L834.06,467.14 L838.52,466.88 L838.52,470.18 L840.53,471.30 L844.35,470.91 L845.10,473.22 L844.35,474.61 L844.19,480.88 L845.10,482.40 L850.14,484.64 L854.75,482.27 L856.35,479.76 L858.36,478.57 L862.39,481.54 L865.37,479.56 L868.44,479.69 L869.98,485.70 L873.80,489.93 L884.04,494.82 L883.30,513.77 L884.10,519.38 L882.61,525.00 L885.79,529.09 L887.54,529.42 L887.23,535.04 L889.14,542.90 L890.62,545.47 L887.07,545.41 L887.17,547.72 L884.68,550.49 L889.35,552.34 L892.69,556.43 L893.70,560.40 L895.34,561.06 L892.00,575.32 L888.29,581.20 L892.43,583.71 L892.74,585.36 L889.77,594.41 L889.08,598.11 L890.52,601.08 L893.81,603.92 L894.92,603.00 L898.90,604.32 L899.27,607.29 L904.36,611.32 L912.85,614.16 L912.69,616.47 L913.70,617.92 L917.36,621.09 L920.81,621.95 L921.29,625.65 L920.76,625.98 L917.68,625.58 L916.20,627.30 L911.21,628.95 L901.92,634.76 L899.11,638.86 L899.91,643.81 L897.25,649.82 L891.63,647.77 L889.35,649.43 L889.98,654.77 L891.58,657.75 L891.47,659.99 L891.63,659.60 L892.85,662.24 L892.43,665.01 L893.96,666.93 L896.35,674.46 L896.35,678.02 L897.63,680.40 L904.42,685.42 L905.96,689.65 L909.14,693.61 L912.22,707.28 L917.20,715.73 L924.90,721.81 L933.44,738.65 L935.24,744.73 L938.48,746.71 L941.61,748.89 L946.97,756.22 L949.52,758.27 L954.45,759.98 L957.05,772.93 L962.52,780.99 L962.25,785.28 L967.82,794.33 L967.93,796.04 L966.07,801.19 L971.01,802.71 L969.26,807.80 L969.63,810.18 L968.25,812.03 L968.51,816.12 L966.23,820.28 L966.18,822.53 L968.46,822.86 L972.01,826.56 L980.77,830.52 L976.42,835.74 L973.92,841.75 L970.26,839.24 L970.37,843.73 L966.71,854.56 L963.37,858.19 L962.62,862.22 L963.68,864.60 L966.76,864.66 L973.02,869.68 L973.50,871.40 L974.51,871.27 L974.46,875.49 L974.61,877.01 L976.58,878.20 L976.84,880.32 L966.55,882.56 L961.77,882.17 L959.70,883.22 L952.86,879.39 L949.73,875.63 L946.55,874.97 L941.88,871.14 L940.71,870.67 L940.02,873.84 L938.59,873.98 L934.61,868.43 L926.91,869.48 L923.52,864.07 L920.07,861.76 L917.73,862.88 L912.80,859.97 L911.58,856.34 L909.40,857.46 L906.86,856.08 L904.84,853.44 L901.07,853.44 L895.77,858.59 L892.53,862.29 L886.64,862.35 L881.55,866.38 L880.54,875.43 L885.00,877.48 L881.76,885.53 L883.19,889.36 L882.98,890.95 L885.05,892.14 L887.44,896.17 L883.72,898.81 L881.76,898.61 L880.81,899.60 L883.30,907.46 L883.03,912.28 L872.32,921.79 L882.40,913.27 L880.96,924.10 L885.95,929.72 L881.65,932.09 L879.05,935.07 L871.89,938.10 L867.97,944.38 L866.32,942.07 L864.73,944.31 L865.58,945.04 L865.10,947.35 L862.98,948.47 L863.30,950.19 L861.23,951.78 L859.74,951.51 L859.48,956.33 L861.39,960.82 L860.43,964.52 L861.76,968.95 L861.60,974.10 L858.95,975.55 L851.09,974.89 L849.98,977.27 L850.67,979.78 L846.37,980.51 L844.41,979.32 L843.35,975.35 L840.48,974.03 L836.29,978.99 L830.19,980.77 L822.81,971.39 L820.11,965.71 L820.42,961.48 L816.34,959.97 L812.57,961.62 L807.69,961.75 L806.10,960.76 L804.72,965.38 L799.73,966.11 L800.85,963.53 L800.26,956.53 L792.99,948.67 L788.22,947.88 L788.11,945.30 L784.82,939.36 L781.05,936.52 L779.30,932.56 L776.17,928.79 L776.76,922.85 L775.70,918.29 L774.21,915.98 L771.61,915.12 L761.05,914.99 L756.44,915.91 L753.73,913.93 L750.92,914.20 L749.70,911.16 L747.04,909.77 L748.05,901.32 L745.24,895.90 L737.55,889.10 L736.48,886.52 L734.63,886.52 L730.17,883.49 L723.86,886.85 L723.96,888.31 L721.42,886.85 L720.09,887.58 L718.71,889.69 L717.33,889.89 L717.17,893.00 L715.69,896.10 L712.87,897.42 L708.10,891.61 L706.61,891.08 L706.67,889.89 L705.98,889.69 L708.10,887.58 L702.16,889.36 L700.09,888.11 L698.18,885.14 L695.79,877.87 L695.42,870.48 L696.27,868.16 L693.67,862.48 L692.87,857.33 L692.92,854.95 L693.93,853.90 L686.66,849.41 L685.34,845.38 L681.83,845.05 L680.03,846.44 L676.63,844.06 L675.63,842.01 L675.36,835.60 L674.19,832.37 L671.49,833.75 L669.68,832.96 L668.78,834.02 L665.33,833.62 L663.69,835.27 L663.85,837.26 L659.39,834.81 L658.22,832.90 L655.46,831.11 L651.96,824.57 L646.97,820.15 L646.07,817.24 L638.27,812.69 L637.21,814.40 L638.43,815.92 L637.58,816.52 L637.74,818.37 L633.13,816.05 L629.36,808.66 L626.23,805.88 L624.37,806.48 L623.84,803.37 L621.66,802.85 L620.82,801.06 L621.51,798.69 L617.69,798.35 L615.51,794.85 L615.62,792.15 L612.70,794.99 L610.63,794.00 L611.05,791.29 L613.49,788.25 L614.55,784.95 L613.44,777.95 L612.27,775.83 L610.89,772.99 L606.22,768.90 L606.12,767.38 L602.83,764.94 L603.09,763.09 L598.00,760.78 L597.52,759.12 L594.50,759.72 L592.38,756.95 L594.02,753.91 L593.38,754.70 L593.65,753.51 L591.69,749.61 L590.25,750.27 L589.62,748.56 L585.74,747.50 L582.98,751.53 L581.13,750.94 L575.77,754.50 L575.03,757.94 L576.78,759.98 L574.44,763.29 L573.75,766.32 L568.18,763.75 L567.17,760.97 L565.48,759.39 L563.94,759.45 L563.30,755.36 L564.31,753.11 L561.97,752.59 L564.63,750.60 L565.79,744.00 L559.37,742.35 L558.31,736.93 L558.42,739.64 L550.46,739.97 L549.66,736.67 L547.01,736.67 L545.21,734.62 L542.29,735.41 L539.79,734.49 L537.83,730.46 L538.84,728.88 L537.09,727.49 L532.15,729.27 L520.53,728.61 L509.82,733.63 L506.42,733.43 L504.24,728.02 L503.45,722.47 L500.27,718.11 L497.13,717.85 L494.85,715.21 L491.62,713.88 L485.41,722.67 L480.58,724.58 L479.15,726.10 L476.39,724.78 L474.21,725.97 L471.61,729.34 L464.29,731.85 L467.21,737.79 L466.25,741.42 L463.12,744.33 L462.22,746.91 L463.28,749.61 L463.23,755.49 L459.68,759.06 L457.29,759.45 L453.36,763.48 L447.90,761.57 L438.82,761.90 L434.95,762.23 L432.61,758.73 L426.04,758.79 L423.59,756.28 L422.16,757.67 L420.89,761.50 L417.92,763.29 L415.00,767.12 L412.82,766.59 L407.62,768.90 L404.07,763.48 L399.40,762.69 L393.35,764.74 L383.32,762.03 L381.84,764.74 L380.14,765.20 L379.08,767.05 L375.84,767.58 L373.51,772.27 L371.17,773.26 L364.59,782.24 L361.94,784.16 L361.83,786.14 L358.92,788.98 L358.39,791.42 L356.42,791.02 L354.67,788.25 L352.34,788.45 L348.62,784.02 L345.07,784.55 L339.18,788.91 L332.81,786.86 L337.21,788.65 L338.01,790.17 L337.32,791.95 L338.17,795.45 L333.45,796.24 L330.74,799.41 L333.02,801.72 L335.78,814.01 L333.13,818.30 L328.41,819.36 L327.29,821.67 L322.20,825.90 L319.81,829.79 L321.03,834.42 L320.08,837.06 L320.50,838.11 L323.37,840.09 L323.63,842.80 L325.44,844.72 L323.63,851.26 L321.30,853.57 L322.52,855.42 L322.46,858.72 L325.91,864.93 L321.88,869.48 L317.05,872.32 L315.30,875.03 L311.64,872.19 L307.82,874.70 L307.66,876.68 L303.20,875.36 L301.19,876.16 L298.96,874.97 L297.37,876.22 L295.46,875.23 L293.71,878.60 L294.50,881.97 L292.86,883.62 L293.02,885.20 L296.46,890.82 L295.30,897.16 L295.99,902.84 L299.54,906.14 L301.40,912.15 L299.01,914.92 L297.15,915.19 L296.57,918.69 L292.91,918.75 L290.47,920.73 L285.48,918.49 L275.03,922.98 L267.92,922.98 L263.99,918.75 L264.31,916.31 L262.72,913.07 L263.83,908.91 L261.66,905.88 L260.07,897.62 L254.71,900.46 L249.93,897.42 L250.04,895.57 L248.13,893.92 L247.65,891.41 L245.26,889.03 L244.63,884.67 L241.92,884.74 L232.63,877.74 L229.56,877.48 L229.13,874.37 L226.75,870.08 L224.68,868.36 L223.03,867.64 L220.70,868.36 L215.60,865.13 L211.15,867.37 L204.41,864.86 L202.39,867.17 L199.05,868.30 Z M883.62,680.20 L889.98,680.80 L897.63,680.40 L883.62,680.20 Z M392.56,302.63 L392.37,303.50 L393.24,302.10 L392.56,302.63 Z M369.32,338.29 L380.51,340.21 L375.31,339.08 L369.32,338.29 Z M399.13,355.26 L399.35,353.61 L399.13,353.17 L399.13,355.26 Z M418.71,371.38 L418.63,371.79 L419.71,371.25 L418.71,371.38 Z M420.41,375.61 L426.67,375.87 L419.89,375.20 L420.41,375.61 Z M419.14,384.39 L425.03,386.97 L426.83,387.30 L419.14,384.39 Z M422.94,391.17 L424.07,390.53 L425.56,388.15 L422.94,391.17 Z M421.42,392.91 L422.27,396.08 L421.61,392.69 L421.42,392.91 Z M410.65,399.18 L408.10,403.48 L412.82,395.75 L410.65,399.18 Z M428.64,457.37 L429.80,458.82 L426.67,453.74 L428.64,457.37 Z M402.48,479.63 L404.39,481.14 L406.14,481.41 L402.48,479.63 Z M402.69,496.86 L403.54,495.81 L404.97,493.96 L402.69,496.86 Z M395.00,486.76 L395.04,487.05 L397.70,486.76 L395.00,486.76 Z M399.24,500.30 L400.35,501.95 L397.54,494.42 L399.24,500.30 Z M413.30,519.32 L413.09,518.53 L409.69,515.95 L408.51,515.72 L413.30,519.32 Z M416.86,527.97 L421.58,529.29 L418.71,528.30 L416.86,527.97 Z M438.88,527.84 L437.12,528.56 L435.16,530.74 L438.88,527.84 Z M453.50,540.24 L453.50,540.24 L451.66,538.60 L453.50,540.24 Z M482.33,518.72 L482.06,518.23 L479.94,522.22 L482.33,518.72 Z M486.66,516.19 L485.46,516.54 L482.33,518.72 L486.66,516.19 Z M497.73,535.87 L497.13,533.91 L494.96,531.07 L497.73,535.87 Z M493.42,540.98 L492.41,542.37 L498.99,537.31 L498.62,537.41 L493.42,540.98 Z M513.00,544.35 L515.71,540.52 L511.89,544.74 L513.00,544.35 Z M556.14,576.45 L556.92,576.66 L554.23,573.34 L556.14,576.45 Z M564.31,587.01 L562.98,584.11 L559.94,580.36 L564.31,587.01 Z M602.03,614.36 L603.52,612.64 L600.55,615.41 L602.03,614.36 Z M557.78,670.43 L557.56,671.43 L562.66,666.13 L557.78,670.43 Z M557.04,673.73 L557.40,674.09 L557.18,673.12 L557.04,673.73 Z M557.55,702.34 L560.17,701.60 L562.66,699.75 L557.55,702.34 Z M554.70,703.78 L554.65,704.97 L554.90,703.68 L554.70,703.78 Z M402.26,485.50 L398.60,487.88 L400.94,486.89 L402.26,485.50 Z M237.79,255.65 L233.06,255.07 L237.30,255.93 L237.79,255.65 Z M282.83,260.03 L276.99,262.67 L281.08,260.95 L282.83,260.03 Z M283.15,264.85 L281.45,262.59 L281.61,263.26 L283.15,264.85 Z M283.17,350.86 L285.53,349.06 L283.41,350.31 L283.17,350.86 Z M285.38,352.49 L286.31,352.21 L283.07,351.08 L283.05,351.11 L285.38,352.49 Z M290.57,356.57 L287.50,352.62 L287.22,352.52 L289.04,355.53 L290.57,356.57 Z M292.27,358.76 L291.66,357.98 L293.02,361.14 L292.27,358.76 Z M277.89,418.27 L277.31,415.03 L276.93,414.84 L277.89,418.27 Z M290.03,435.49 L286.12,431.88 L288.93,435.18 L290.03,435.49 Z M291.85,446.07 L289.89,444.49 L287.92,443.80 L291.85,446.07 Z M292.35,449.10 L292.38,447.73 L291.85,446.07 L292.35,449.10 Z M255.77,469.72 L255.63,469.33 L254.28,473.35 L255.77,469.72 Z M236.72,483.19 L239.78,479.32 L239.80,478.63 L236.72,483.19 Z M239.57,504.57 L239.05,504.13 L236.99,504.46 L239.57,504.57 Z M302.34,530.72 L299.60,527.44 L302.34,530.85 L302.34,530.72 Z M304.75,541.77 L302.25,537.48 L304.05,541.44 L304.75,541.77 Z M315.67,552.14 L315.16,551.15 L316.39,555.74 L315.67,552.14 Z M318.59,560.73 L317.44,559.65 L317.48,559.80 L318.59,560.73 Z M338.42,566.63 L334.22,563.68 L337.27,566.41 L338.42,566.63 Z M371.70,534.97 L373.19,537.41 L373.83,538.07 L371.70,534.97 Z M392.87,584.90 L393.62,582.92 L391.46,585.99 L392.87,584.90 Z M388.42,588.33 L389.64,587.39 L385.23,588.47 L388.42,588.33 Z M388.59,593.07 L383.48,591.11 L386.29,592.76 L388.59,593.07 Z M392.45,594.54 L391.52,594.18 L394.94,597.91 L392.45,594.54 Z M411.44,607.95 L410.60,608.70 L414.20,608.02 L411.44,607.95 Z M430.28,625.72 L430.16,624.67 L429.22,630.27 L430.28,625.72 Z M418.71,669.24 L416.33,667.59 L419.35,669.90 L418.71,669.24 Z M391.92,736.93 L393.09,737.00 L388.26,736.27 L391.92,736.93 Z M196.90,394.40 L200.27,398.59 L197.99,395.15 L196.90,394.40 Z M208.44,407.17 L213.80,414.04 L210.24,408.89 L208.44,407.17 Z M223.99,411.67 L221.44,410.21 L223.72,411.53 L217.35,422.30 L223.99,411.67 Z M264.79,428.31 L264.67,429.03 L266.43,426.79 L264.79,428.31 Z M267.65,627.30 L264.89,630.14 L264.81,630.49 L267.65,627.30 Z M297.32,674.94 L298.38,674.98 L298.71,674.34 L297.32,674.94 Z M301.77,673.00 L305.70,676.90 L306.35,677.02 L301.77,673.00 Z M307.41,677.21 L307.87,677.30 L309.94,675.18 L307.41,677.21 Z M299.91,718.90 L298.75,719.70 L301.93,718.71 L299.91,718.90 Z M192.82,582.55 L192.68,582.46 L192.55,582.47 L192.82,582.55 Z M196.71,593.02 L196.76,593.87 L198.25,589.13 L196.71,593.02 Z M195.97,600.75 L200.80,597.25 L198.20,598.64 L195.97,600.75 Z M207.48,590.18 L207.79,588.47 L204.73,594.01 L207.48,590.18 Z M232.90,584.64 L240.59,588.40 L230.72,583.38 L232.90,584.64 Z M123.12,703.25 L119.46,708.40 L121.63,705.83 L123.12,703.25 Z M140.18,681.54 L139.81,681.57 L139.89,681.59 L140.18,681.54 Z M145.55,679.94 L145.34,680.66 L145.67,680.60 L145.55,679.94 Z M145.83,667.85 L148.80,668.71 L149.70,668.84 L145.83,667.85 Z M213.69,695.33 L208.33,688.39 L210.19,691.43 L213.69,695.33 Z M124.87,707.35 L125.91,709.61 L125.93,708.93 L124.87,707.35 Z M126.82,714.42 L125.30,717.98 L127.10,715.07 L126.82,714.42 Z M136.49,746.64 L140.90,746.97 L141.03,746.88 L136.49,746.64 Z M142.00,746.17 L142.17,746.05 L145.09,739.84 L142.00,746.17 Z M147.14,751.88 L147.32,752.32 L149.76,753.51 L147.14,751.88 Z M211.57,738.85 L211.20,740.90 L212.63,735.22 L211.57,738.85 Z M212.47,761.96 L209.82,766.98 L209.77,768.30 L212.47,761.96 Z M171.51,649.16 L174.16,650.28 L170.80,648.19 L171.51,649.16 Z M220.59,630.01 L224.09,628.56 L226.59,626.71 L220.59,630.01 Z M169.81,646.85 L170.08,647.21 L172.94,643.35 L169.81,646.85 Z M146.84,550.69 L149.28,547.32 L146.72,550.72 L146.84,550.69 Z M195.18,548.31 L184.99,554.45 L193.53,549.43 L195.18,548.31 Z M172.89,528.17 L173.79,529.49 L171.83,525.33 L172.89,528.17 Z M218.41,551.22 L215.69,546.00 L215.76,546.99 L218.41,551.22 Z M215.67,545.73 L221.17,550.36 L215.67,545.73 L215.67,545.73 Z M143.28,551.75 L145.28,551.15 L144.40,550.82 L143.28,551.75 Z M135.11,486.03 L136.92,483.13 L137.94,480.04 L135.11,486.03 Z M132.51,478.17 L130.97,476.39 L131.50,477.12 L132.51,478.17 Z M198.57,446.87 L203.36,448.22 L202.18,447.26 L198.57,446.87 Z M208.51,450.38 L209.18,450.43 L213.80,446.14 L208.51,450.38 Z M224.04,471.96 L227.75,474.34 L228.22,474.40 L224.04,471.96 Z M158.03,487.68 L159.38,485.46 L158.72,485.97 L158.03,487.68 Z M194.43,383.33 L192.63,385.45 L195.41,383.19 L194.43,383.33 Z M227.99,356.92 L228.97,359.49 L228.97,358.10 L227.99,356.92 Z M227.38,355.33 L227.53,355.73 L229.72,352.95 L227.38,355.33 Z M262.51,372.90 L261.75,372.07 L262.70,374.10 L262.51,372.90 Z M250.04,380.10 L252.85,380.69 L249.91,380.01 L250.04,380.10 Z M275.61,414.18 L275.42,414.53 L275.97,414.35 L275.61,414.18 Z M247.97,378.58 L248.42,378.91 L247.17,373.49 L247.97,378.58 Z M175.65,382.34 L174.00,381.48 L176.06,383.08 L175.65,382.34 Z M256.19,312.63 L257.36,314.38 L258.63,314.65 L256.19,312.63 Z M283.27,339.07 L283.84,339.74 L286.23,340.60 L283.27,339.07 Z M243.06,288.48 L241.87,289.95 L241.97,290.81 L243.06,288.48 Z M255.77,305.27 L254.44,303.09 L256.09,306.52 L255.77,305.27 Z M218.36,36.53 L216.19,37.92 L222.66,35.74 L218.36,36.53 Z M338.32,732.79 L335.68,736.74 L337.43,735.08 L338.32,732.79 Z M345.81,713.95 L341.67,711.77 L348.04,716.13 L345.81,713.95 Z M314.51,660.19 L317.64,655.10 L316.68,656.29 L314.51,660.19 Z M330.95,647.77 L331.11,645.33 L331.11,641.96 L330.95,647.77 Z M376.80,669.90 L381.41,670.89 L382.26,670.89 L376.80,669.90 Z M360.14,684.03 L360.37,683.54 L359.85,683.91 L360.14,684.03 Z M362.05,680.07 L362.05,678.45 L361.35,681.52 L362.05,680.07 Z M363.58,673.99 L364.70,666.79 L362.83,675.00 L363.58,673.99 Z M299.62,343.74 L300.44,343.51 L301.88,341.00 L299.62,343.74 Z M341.46,332.28 L347.35,336.18 L338.01,329.77 L341.46,332.28 Z M415.81,544.30 L415.64,544.81 L417.76,548.25 L415.81,544.30 Z M292.80,451.82 L296.46,456.91 L292.63,450.79 L292.80,451.82 Z M303.36,462.87 L302.51,461.66 L296.46,456.91 L303.36,462.87 Z M317.79,477.25 L319.33,474.28 L318.64,475.46 L317.79,477.25 Z M323.15,474.74 L321.24,473.88 L319.33,474.28 L323.15,474.74 Z M340.56,464.10 L337.74,462.96 L337.74,462.96 L340.56,464.10 Z M351.86,468.99 L358.92,468.73 L351.17,468.66 L351.86,468.99 Z M362.52,470.38 L363.34,470.18 L362.09,470.18 L362.52,470.38 Z M377.43,485.83 L375.52,484.71 L373.29,483.46 L377.43,485.83 Z M375.47,488.81 L373.24,497.79 L375.05,490.79 L377.43,485.83 L375.47,488.81 Z M376.37,483.79 L377.54,479.63 L375.52,484.71 L376.37,483.79 Z M389.96,463.27 L389.69,462.98 L388.76,463.92 L389.96,463.27 Z M390.64,464.51 L390.91,464.30 L390.53,463.89 L390.64,464.51 Z M394.84,479.76 L392.56,473.75 L394.64,480.59 L394.84,479.76 Z M311.75,505.32 L309.94,507.96 L313.05,504.95 L311.75,505.32 Z M315.04,504.39 L314.59,504.52 L318.70,505.78 L315.04,504.39 Z M324.80,492.70 L324.21,492.31 L321.46,492.90 L323.31,492.50 L324.80,492.70 Z M334.08,498.98 L333.66,499.40 L337.27,498.51 L334.08,498.98 Z M389.96,485.04 L389.89,484.31 L389.48,484.31 L388.68,484.05 L389.96,485.04 Z M347.04,515.92 L349.42,517.73 L351.75,518.59 L347.04,515.92 Z M393.83,502.87 L391.33,496.99 L390.64,496.50 L393.83,502.87 Z M390.38,478.24 L390.45,477.73 L387.41,478.57 L390.38,478.24 Z M379.66,424.08 L385.82,422.23 L385.99,421.80 L379.66,424.08 Z M374.20,456.64 L374.62,454.59 L373.82,456.35 L374.20,456.64 Z M337.53,446.14 L341.88,450.83 L336.47,444.75 L337.53,446.14 Z M331.76,366.40 L337.00,373.82 L333.71,368.34 L331.76,366.40 Z M402.91,401.10 L403.49,401.96 L404.28,402.19 L402.91,401.10 Z M397.28,376.60 L398.29,376.31 L392.87,375.94 L397.28,376.60 Z M405.50,374.28 L402.48,374.61 L400.85,375.59 L405.50,374.28 Z M335.46,309.96 L337.43,305.73 L337.43,304.49 L335.46,309.96 Z M337.43,304.19 L337.43,303.42 L335.04,297.28 L337.43,304.19 Z M355.25,282.29 L354.35,288.10 L354.78,290.14 L355.25,282.29 Z M371.33,303.75 L373.32,306.40 L372.66,304.94 L371.33,303.75 Z M263.83,224.69 L263.15,225.08 L268.40,226.41 L263.83,224.69 Z M299.49,248.54 L294.57,243.41 L294.82,244.11 L299.49,248.54 Z M456.60,629.22 L459.41,631.00 L455.27,627.76 L456.60,629.22 Z M463.65,634.96 L462.96,631.59 L462.40,631.50 L463.65,634.96 Z M502.94,686.10 L503.18,685.62 L501.52,685.01 L502.94,686.10 Z M502.56,692.35 L502.87,692.02 L501.70,688.59 L502.56,692.35 Z M546.96,638.46 L546.43,638.86 L545.90,641.10 L546.96,638.46 Z M551.73,639.58 L548.44,637.34 L547.97,637.70 L551.73,639.58 Z M557.36,638.79 L563.41,635.56 L555.78,639.01 L557.36,638.79 Z M547.91,694.47 L549.82,692.88 L548.60,693.28 L547.91,694.47 Z M444.88,671.70 L444.87,672.34 L447.23,673.86 L444.88,671.70 Z M496.29,599.96 L495.54,600.75 L494.69,601.74 L496.29,599.96 Z M497.51,587.28 L498.73,588.47 L500.58,589.85 L497.51,587.28 Z M505.20,585.23 L509.07,580.41 L507.64,582.06 L500.58,589.85 L505.20,585.23 Z M552.47,581.43 L550.41,579.55 L552.32,581.47 L552.47,581.43 Z M417.23,571.36 L415.12,569.46 L416.33,571.16 L417.23,571.36 Z M429.70,569.78 L427.89,571.56 L426.57,573.28 L429.70,569.78 Z M446.73,585.30 L444.82,583.45 L447.34,586.40 L446.73,585.30 Z M453.13,590.60 L448.99,588.33 L450.07,589.59 L453.13,590.60 Z M460.68,594.74 L458.38,593.48 L462.75,596.66 L460.68,594.74 Z M472.30,602.73 L463.71,601.54 L468.54,602.27 L472.30,602.73 Z M414.41,600.92 L414.27,601.82 L414.52,601.54 L414.41,600.92 Z M413.41,595.86 L413.63,596.53 L413.35,595.00 L413.41,595.86 Z M413.09,590.71 L413.13,591.34 L413.61,590.24 L413.09,590.71 Z M417.97,586.29 L415.02,588.96 L415.90,588.80 L417.97,586.29 Z M452.09,575.26 L450.93,577.42 L456.49,570.50 L452.09,575.26 Z M476.07,565.75 L474.32,567.66 L479.94,562.64 L476.07,565.75 Z M485.21,557.30 L486.84,556.63 L489.07,554.52 L485.21,557.30 Z M530.56,487.95 L536.50,492.83 L530.04,487.22 L530.56,487.95 Z M447.42,379.70 L446.09,378.91 L433.30,375.94 L447.42,379.70 Z M455.01,389.34 L457.55,385.58 L454.05,390.60 L455.01,389.34 Z M495.76,399.84 L496.44,399.52 L487.64,400.31 L495.76,399.84 Z M500.90,397.40 L501.22,396.67 L499.63,398.00 L500.90,397.40 Z M502.02,389.41 L498.49,393.13 L498.89,393.17 L502.02,389.41 Z M437.39,464.77 L437.22,464.11 L437.39,466.48 L437.39,464.77 Z M528.78,485.49 L526.32,474.87 L528.17,484.64 L528.78,485.49 Z M409.80,503.60 L407.30,502.16 L408.05,503.07 L409.80,503.60 Z M406.27,500.91 L405.29,499.37 L405.77,500.30 L406.27,500.91 Z M406.03,498.58 L405.98,497.52 L405.29,499.37 L406.03,498.58 Z M432.51,510.53 L431.08,513.18 L431.43,513.88 L432.51,510.53 Z M431.75,514.51 L432.24,515.49 L433.46,515.95 L431.75,514.51 Z M489.02,507.63 L491.83,505.71 L494.43,502.87 L489.02,507.63 Z M542.39,447.99 L544.46,449.64 L538.20,443.17 L542.39,447.99 Z M450.71,405.06 L454.85,407.11 L453.10,405.79 L450.71,405.06 Z M456.76,417.87 L455.59,409.29 L454.85,407.11 L456.76,417.87 Z M490.02,454.41 L491.33,456.66 L491.35,455.98 L490.02,454.41 Z M496.18,459.28 L500.37,455.98 L500.79,455.29 L496.18,459.28 Z M518.41,443.70 L520.27,447.26 L522.44,449.29 L518.41,443.70 Z M524.58,452.27 L526.19,455.17 L525.73,453.87 L524.58,452.27 Z M427.57,313.26 L429.22,318.02 L429.84,319.01 L427.57,313.26 Z M431.52,321.15 L431.04,320.92 L431.29,321.32 L431.52,321.15 Z M461.74,356.45 L459.62,358.24 L459.11,359.42 L461.74,356.45 Z M469.65,373.00 L469.66,373.00 L459.62,366.43 L461.37,368.21 L469.65,373.00 Z M473.15,371.38 L476.92,363.12 L476.94,363.02 L473.15,371.38 Z M495.01,389.61 L497.13,392.98 L497.88,393.06 L495.01,389.61 Z M449.54,336.77 L449.55,335.88 L446.57,340.93 L449.54,336.77 Z M477.56,359.69 L477.04,358.64 L477.41,360.50 L477.56,359.69 Z M450.28,329.04 L450.07,326.90 L450.07,329.45 L450.28,329.04 Z M599.99,550.64 L594.50,547.52 L596.67,549.30 L599.99,550.64 Z M765.56,578.49 L762.91,575.85 L762.44,576.09 L765.56,578.49 Z M759.45,598.28 L756.91,593.75 L758.88,597.84 L759.45,598.28 Z M771.56,610.46 L764.42,606.40 L765.35,607.29 L771.56,610.46 Z M793.79,646.90 L792.09,640.58 L793.47,646.32 L793.79,646.90 Z M758.08,670.89 L754.42,665.87 L752.30,663.29 L758.08,670.89 Z M722.91,677.95 L724.23,670.10 L723.06,674.39 L722.91,677.95 Z M723.28,682.10 L722.79,680.54 L722.74,681.72 L723.28,682.10 Z M726.56,681.72 L723.81,682.47 L723.96,682.58 L726.56,681.72 Z M732.93,691.50 L728.36,692.46 L729.59,692.88 L732.93,691.50 Z M781.73,723.08 L776.81,723.46 L781.48,723.26 L781.73,723.08 Z M787.42,736.47 L787.13,736.38 L787.27,737.44 L787.42,736.47 Z M786.98,741.48 L786.68,741.36 L780.36,744.66 L786.98,741.48 Z M770.65,806.02 L771.03,807.67 L770.23,803.97 L770.65,806.02 Z M786.10,873.71 L785.43,866.35 L785.25,866.91 L786.10,873.71 Z M779.20,911.16 L779.08,910.17 L777.87,915.06 L779.20,911.16 Z M686.93,775.97 L687.78,776.43 L694.41,776.36 L686.93,775.97 Z M751.08,748.95 L752.83,751.07 L746.73,742.28 L751.08,748.95 Z M761.28,762.33 L762.75,764.67 L766.73,768.17 L761.28,762.33 Z M748.13,784.80 L747.79,784.75 L746.25,786.47 L748.13,784.80 Z M746.04,788.12 L746.62,789.77 L746.25,786.47 L746.04,788.12 Z M712.24,805.95 L709.85,804.43 L708.15,804.43 L712.24,805.95 Z M721.26,813.21 L721.52,813.04 L717.33,810.38 L721.26,813.21 Z M723.01,814.47 L724.86,814.29 L721.49,813.37 L723.01,814.47 Z M738.29,825.57 L746.57,829.07 L736.43,824.31 L738.29,825.57 Z M722.37,812.49 L722.00,809.12 L721.91,812.79 L722.37,812.49 Z M604.79,641.76 L605.22,637.41 L605.00,636.48 L604.79,641.76 Z M595.82,670.23 L597.79,675.96 L597.42,674.06 L595.82,670.23 Z M598.57,678.23 L600.33,674.98 L598.42,677.79 L598.57,678.23 Z M645.38,652.46 L638.64,649.76 L636.42,649.23 L645.38,652.46 Z M686.64,673.72 L686.29,673.20 L685.00,673.02 L686.64,673.72 Z M675.60,743.55 L675.47,742.88 L673.01,741.72 L675.60,743.55 Z M675.62,746.21 L676.10,746.05 L675.87,744.86 L675.62,746.21 Z M573.43,694.20 L572.90,698.03 L573.62,693.74 L573.43,694.20 Z M575.93,701.93 L590.20,704.11 L581.02,702.19 L575.93,701.93 Z M619.30,692.73 L618.53,693.48 L618.75,694.80 L619.30,692.73 Z M608.98,716.53 L604.21,715.27 L609.01,716.56 L608.98,716.53 Z M590.66,666.91 L590.89,667.52 L593.01,668.31 L590.66,666.91 Z M591.10,663.95 L590.20,665.67 L590.40,666.20 L591.10,663.95 Z M714.20,628.75 L709.80,635.23 L716.64,626.05 L714.20,628.75 Z M734.47,592.89 L739.19,606.63 L738.45,604.25 L734.47,592.89 Z M686.40,630.47 L690.08,630.86 L689.85,630.47 L686.40,630.47 Z M735.35,645.16 L736.57,645.57 L736.06,644.93 L735.35,645.16 Z M611.69,615.87 L616.89,619.57 L618.90,620.38 L611.69,615.87 Z M621.22,621.84 L625.33,627.23 L622.25,622.48 L621.22,621.84 Z M692.18,635.95 L691.86,633.77 L691.81,637.34 L692.18,635.95 Z M760.15,642.23 L758.56,640.51 L756.32,639.15 L760.15,642.23 Z M705.04,571.43 L707.67,573.74 L706.24,572.02 L705.04,571.43 Z M714.84,600.93 L715.15,601.74 L716.59,601.94 L714.84,600.93 Z M627.70,584.83 L627.93,584.77 L627.79,584.26 L627.70,584.83 Z M754.17,539.82 L752.40,540.98 L750.44,543.89 L751.54,543.10 L751.45,543.09 L754.17,539.82 Z M777.87,453.21 L778.08,456.31 L778.92,457.48 L777.87,453.21 Z M784.82,467.41 L785.69,469.36 L785.67,468.53 L784.82,467.41 Z M785.70,469.65 L785.19,469.30 L785.73,471.08 L785.70,469.65 Z M784.34,468.69 L783.92,468.40 L783.42,468.83 L784.34,468.69 Z M771.34,498.25 L771.71,495.43 L771.40,495.74 L771.00,498.72 L771.34,498.25 Z M776.01,520.18 L776.39,526.25 L776.73,527.22 L776.01,520.18 Z M776.85,527.55 L777.29,528.76 L778.99,529.95 L776.85,527.55 Z M779.18,533.55 L779.52,533.39 L778.99,529.95 L779.18,533.55 Z M778.90,533.69 L775.91,532.13 L778.45,533.91 L778.90,533.69 Z M756.39,538.60 L756.01,538.60 L755.66,538.84 L756.39,538.60 Z M584.05,499.17 L587.28,496.53 L585.05,497.66 L581.13,503.34 L584.05,499.17 Z M612.33,489.80 L611.42,490.79 L614.29,489.20 L612.33,489.80 Z M664.32,480.62 L660.19,490.52 L659.71,492.77 L664.32,480.62 Z M656.10,516.08 L655.78,515.29 L654.53,519.39 L656.10,516.08 Z M709.33,541.24 L708.95,541.44 L707.78,542.63 L709.33,541.24 Z M635.28,540.42 L635.73,538.54 L635.78,534.31 L635.28,540.42 Z M652.08,523.38 L652.70,523.21 L653.09,522.40 L652.08,523.38 Z M661.83,534.38 L659.50,537.94 L662.32,534.36 L661.83,534.38 Z M670.03,534.18 L664.93,534.30 L668.30,534.77 L670.03,534.18 Z M678.33,533.98 L672.31,534.12 L673.19,534.51 L678.33,533.98 Z M611.95,484.21 L612.96,484.58 L614.03,483.69 L611.95,484.21 Z M614.87,483.00 L615.35,482.60 L615.35,481.34 L614.87,483.00 Z M632.95,446.18 L632.93,445.23 L632.65,445.81 L632.95,446.18 Z M634.98,441.12 L635.25,439.14 L634.78,438.63 L634.98,441.12 Z M667.53,479.98 L667.88,478.83 L667.46,477.73 L667.45,478.11 L667.53,479.98 Z M711.76,538.47 L711.57,539.23 L712.71,538.21 L711.76,538.47 Z M791.42,739.62 L791.96,739.66 L791.72,739.44 L791.42,739.62 Z M813.47,756.75 L817.98,761.03 L816.13,758.46 L813.47,756.75 Z M820.37,762.63 L819.49,762.46 L822.65,765.47 L822.39,765.13 L820.37,762.63 Z M852.24,736.68 L852.37,737.33 L855.44,739.25 L852.24,736.68 Z M869.38,753.63 L870.19,751.93 L871.31,742.88 L869.38,753.63 Z M879.05,745.78 L877.25,744.46 L876.19,744.43 L878.63,745.85 L881.28,745.92 L879.05,745.78 Z M915.40,757.94 L920.97,757.54 L921.43,757.15 L915.40,757.94 Z M811.99,908.05 L813.47,909.05 L824.03,910.17 L816.50,909.31 L811.99,908.05 Z M836.89,860.02 L836.89,860.02 L835.39,866.38 L836.89,860.02 Z M851.87,914.41 L852.21,914.72 L866.06,917.83 L863.56,916.84 L851.87,914.41 Z M857.41,817.44 L856.80,817.49 L858.52,818.83 L857.41,817.44 Z M868.07,829.20 L867.85,828.96 L863.19,840.76 L868.07,829.20 Z M903.39,834.35 L903.21,834.46 L903.36,834.48 L903.39,834.35 Z M904.84,833.42 L904.12,833.88 L904.42,834.15 L904.84,833.42 Z M900.81,791.09 L898.58,792.48 L905.80,788.91 L900.81,791.09 Z M921.56,788.25 L914.76,790.30 L917.89,789.57 L921.56,788.25 Z M803.66,853.90 L809.39,854.23 L808.33,853.63 L803.66,853.90 Z M832.10,859.12 L836.51,859.78 L836.08,859.51 L832.10,859.12 Z M866.43,856.05 L866.64,855.81 L866.63,855.44 L866.43,856.05 Z M866.57,853.91 L866.53,852.84 L865.31,851.45 L866.57,853.91 Z M907.97,829.20 L908.29,829.75 L907.44,826.03 L907.74,830.38 L907.97,829.20 Z M859.21,790.10 L859.55,789.97 L857.34,789.97 L859.21,790.10 Z M864.66,788.95 L866.28,788.93 L865.31,788.78 L864.66,788.95 Z M788.64,794.59 L790.95,795.72 L789.86,794.79 L788.64,794.59 Z M926.49,782.04 L934.98,780.26 L926.81,781.65 L926.49,782.04 Z M868.39,755.70 L867.12,757.94 L867.21,758.15 L868.39,755.70 Z M827.91,777.88 L826.21,770.02 L825.50,769.11 L827.91,777.88 Z M816.71,565.42 L822.71,566.54 L812.03,563.45 L813.53,564.16 L816.71,565.42 Z M824.88,579.22 L826.47,577.57 L826.31,577.17 L824.88,579.22 Z M854.17,604.52 L854.64,604.38 L853.22,604.01 L854.17,604.52 Z M785.25,711.51 L785.09,711.87 L787.85,712.17 L785.25,711.51 Z M807.08,693.15 L806.36,695.92 L807.16,694.27 L807.08,693.15 Z M812.04,665.14 L810.22,667.47 L810.93,667.26 L812.04,665.14 Z M814.13,654.70 L813.90,654.97 L812.04,665.14 L814.13,654.70 Z M815.33,653.26 L814.86,653.82 L817.03,654.25 L815.33,653.26 Z M845.65,670.15 L835.55,668.12 L842.66,669.70 L845.65,670.15 Z M855.92,671.42 L854.84,671.53 L856.20,671.73 L855.92,671.42 Z M872.42,675.31 L862.29,678.42 L874.49,675.51 L872.42,675.31 Z M884.97,733.85 L885.26,733.76 L885.77,732.49 L884.97,733.85 Z M770.71,678.35 L771.78,679.12 L765.99,672.14 L770.71,678.35 Z M775.38,681.72 L775.92,681.55 L774.08,680.79 L775.38,681.72 Z M805.92,669.02 L804.19,669.50 L801.27,671.42 L805.92,669.02 Z M836.02,629.74 L837.88,623.54 L837.35,624.06 L836.02,629.74 Z M840.53,624.86 L842.02,627.89 L839.84,621.75 L840.53,624.86 Z M835.49,614.29 L832.42,614.16 L836.43,614.72 L835.49,614.29 Z M788.01,594.87 L786.97,591.02 L786.84,592.69 L788.01,594.87 Z M783.44,533.58 L783.44,534.90 L783.60,535.43 L783.44,533.58 Z M808.17,554.98 L809.12,552.41 L809.47,549.91 L808.17,554.26 L808.17,554.98 Z M829.08,546.39 L829.29,546.79 L834.80,549.43 L829.08,546.39 Z M788.27,518.06 L786.63,525.53 L786.71,526.04 L787.53,523.28 L788.27,518.06 Z M860.86,489.91 L861.12,489.33 L861.23,484.25 L860.86,489.91 Z M798.15,505.79 L800.21,503.53 L801.11,501.22 L798.15,505.79 Z M818.09,520.37 L815.60,511.66 L815.02,511.01 L818.09,520.37 Z" /></g></svg>