<svg xmlns="http://www.w3.org/2000/svg" viewBox="0 0 1000 1000" width="1000" height="1000"><g fill="#cccccc" stroke="#222" stroke-width="2"><path d="M188.70,732.16 L182.88,725.37 L183.51,718.05 L179.59,710.72 L171.12,704.73 L153.79,701.80 L152.78,695.14 L128.25,672.37 L120.78,656.79 L114.71,652.13 L105.36,652.27 L93.09,640.02 L81.45,638.42 L72.98,623.77 L71.84,620.44 L65.52,611.52 L60.84,608.99 L54.77,598.74 L48.07,596.21 L43.39,590.75 L48.07,575.30 L45.41,568.51 L44.65,563.72 L35.42,557.06 L32.89,546.67 L26.95,535.75 L24.92,519.64 L21.51,516.58 L24.54,510.45 L31.37,507.66 L32.38,497.14 L19.23,485.95 L27.58,479.29 L35.42,477.03 L40.35,460.78 L48.19,458.79 L46.93,451.46 L53.00,442.41 L58.69,440.81 L67.67,433.62 L68.30,428.83 L61.98,422.97 L59.07,414.98 L64.76,409.39 L71.21,407.39 L79.18,395.80 L79.05,390.48 L67.92,383.29 L48.07,388.21 L41.24,383.29 L39.34,376.10 L45.03,358.12 L38.96,342.94 L41.49,325.76 L39.85,311.38 L43.64,306.45 L61.34,305.39 L67.92,313.38 L72.98,307.92 L83.10,302.46 L84.11,284.88 L76.27,255.72 L70.96,247.86 L74.12,236.15 L79.18,231.89 L88.54,231.89 L92.96,228.69 L100.17,228.56 L103.96,226.16 L107.00,220.03 L104.60,210.45 L114.59,204.45 L115.85,198.60 L115.22,191.27 L111.81,186.34 L113.20,157.72 L109.78,152.39 L118.13,139.21 L129.26,141.60 L136.34,138.81 L143.17,138.94 L139.25,127.09 L148.10,130.95 L151.90,127.49 L148.10,122.30 L146.46,113.11 L151.39,108.45 L148.10,102.59 L152.91,93.80 L152.28,90.07 L157.71,77.95 L162.01,72.36 L173.65,69.03 L176.68,63.84 L184.52,67.43 L192.49,64.50 L195.02,66.10 L200.33,58.11 L204.38,59.84 L211.72,57.18 L219.94,57.18 L218.42,54.38 L221.45,54.12 L225.37,46.66 L231.82,49.46 L237.14,49.19 L242.07,48.66 L247.51,43.07 L252.31,43.60 L254.21,29.75 L260.41,24.56 L261.29,19.23 L268.75,19.76 L290.88,30.28 L295.82,34.68 L297.08,41.20 L309.73,51.99 L320.10,53.45 L326.68,49.99 L335.28,54.52 L340.33,62.24 L350.45,57.31 L358.04,60.64 L360.44,64.37 L366.26,65.17 L370.94,68.23 L371.44,93.00 L380.93,101.66 L381.18,108.05 L377.52,113.91 L379.03,118.30 L376.88,119.63 L377.39,124.69 L386.24,134.95 L388.01,139.87 L395.85,145.20 L394.72,150.53 L397.12,159.05 L394.21,163.57 L398.89,169.30 L398.13,174.36 L390.42,181.28 L390.16,186.74 L385.61,189.67 L381.82,196.20 L391.17,203.66 L392.69,220.83 L403.44,230.29 L392.69,232.68 L389.53,235.35 L391.68,236.41 L392.82,248.26 L389.40,251.59 L389.66,255.32 L387.00,258.92 L389.02,267.44 L387.76,273.70 L383.08,279.42 L384.09,281.95 L381.56,289.28 L377.14,290.34 L378.02,298.20 L374.86,301.53 L373.85,306.99 L376.25,307.79 L379.54,315.11 L375.74,323.90 L385.86,331.62 L400.28,334.28 L409.89,342.94 L425.95,342.14 L428.23,339.61 L427.72,335.48 L430.89,324.96 L429.37,318.97 L432.53,314.31 L433.41,304.19 L439.61,296.87 L443.41,295.67 L446.19,290.47 L458.71,287.15 L494.75,290.47 L497.53,287.81 L503.86,287.81 L507.15,282.62 L507.90,283.70 L508.92,278.89 L506.64,268.24 L518.65,274.63 L530.29,270.77 L539.52,257.85 L543.82,247.20 L551.66,241.21 L564.56,224.83 L567.34,221.50 L572.78,220.83 L588.09,223.76 L599.85,216.17 L612.62,212.04 L628.93,197.66 L631.08,186.08 L643.23,183.02 L640.95,178.09 L642.34,169.30 L645.25,164.77 L649.93,163.04 L656.63,167.84 L662.70,167.30 L673.96,176.09 L680.91,174.49 L684.96,169.03 L696.09,165.44 L704.56,152.52 L704.18,143.20 L708.36,139.74 L710.76,130.29 L717.84,125.49 L722.27,130.02 L730.87,132.42 L735.29,136.14 L738.96,135.35 L739.09,140.01 L745.54,148.13 L747.56,157.85 L760.21,160.25 L776.14,159.05 L793.98,162.64 L799.16,160.38 L805.99,166.64 L811.18,167.04 L815.22,171.96 L820.41,170.77 L823.44,177.02 L829.01,177.96 L834.19,183.55 L841.40,182.62 L846.08,187.14 L846.71,194.20 L840.77,201.79 L844.06,209.25 L841.15,216.57 L826.60,222.30 L823.44,228.16 L824.58,236.81 L828.50,244.54 L825.85,248.26 L823.95,259.45 L821.04,261.98 L819.90,267.97 L822.94,276.89 L820.91,281.82 L828.63,291.01 L822.05,295.67 L814.97,294.47 L816.36,306.32 L806.88,310.98 L806.12,316.57 L800.17,322.03 L805.10,331.89 L816.23,344.40 L814.59,361.85 L820.66,366.11 L821.55,373.43 L828.00,372.23 L830.02,374.63 L834.57,371.04 L853.42,368.91 L856.20,378.49 L867.83,392.87 L868.21,397.93 L869.35,400.86 L876.43,401.13 L881.87,407.52 L893.00,409.92 L893.25,415.78 L899.58,416.58 L905.39,423.90 L898.69,424.70 L909.82,424.43 L910.71,426.70 L916.02,427.89 L925.88,426.70 L926.13,431.49 L928.79,434.95 L942.58,438.28 L947.26,444.27 L956.23,446.00 L964.58,438.01 L970.27,441.34 L972.04,445.21 L977.35,445.87 L978.87,449.87 L980.77,460.92 L975.58,471.84 L974.45,483.55 L963.82,492.61 L966.48,503.40 L965.21,510.05 L957.12,517.38 L956.61,520.17 L950.54,522.44 L940.30,530.69 L941.56,535.22 L938.40,541.35 L925.38,549.87 L921.58,555.19 L923.35,565.58 L931.07,571.84 L926.26,579.56 L929.55,590.08 L914.25,609.52 L899.96,602.60 L885.41,582.23 L881.74,580.23 L868.21,584.22 L859.74,584.49 L851.52,591.41 L840.64,593.81 L827.87,592.61 L815.60,585.55 L808.52,585.95 L805.61,581.69 L798.91,582.36 L797.26,584.36 L780.95,590.08 L773.87,599.80 L768.56,602.87 L765.14,609.12 L751.99,611.25 L745.29,625.50 L747.06,629.10 L741.49,640.42 L722.02,653.33 L722.52,657.86 L720.62,660.12 L722.39,662.92 L718.47,665.85 L722.52,668.38 L731.88,667.18 L738.58,671.04 L740.73,670.11 L744.02,679.03 L746.30,678.23 L750.98,683.03 L748.19,685.42 L747.18,683.56 L745.41,687.69 L743.89,687.55 L746.42,691.55 L745.92,695.41 L747.94,696.88 L739.97,707.79 L735.55,720.71 L736.43,723.77 L731.75,726.70 L733.02,729.50 L736.94,730.43 L737.57,736.96 L735.04,744.15 L734.41,750.01 L727.83,761.46 L740.61,772.78 L737.57,781.56 L731.50,784.76 L735.29,796.61 L738.08,795.28 L741.11,798.21 L745.79,798.48 L739.85,822.18 L738.58,825.51 L732.26,827.64 L731.50,829.63 L720.50,830.97 L712.15,839.89 L719.36,847.88 L721.76,856.53 L720.62,863.46 L723.53,867.98 L723.53,870.51 L719.49,872.38 L717.97,879.17 L714.81,882.37 L717.08,889.42 L712.66,888.62 L711.14,891.02 L705.45,887.56 L702.29,877.84 L696.59,877.84 L695.71,866.25 L695.71,876.77 L688.75,873.58 L674.46,875.17 L675.35,870.78 L671.17,869.98 L668.27,867.98 L668.52,864.39 L663.21,862.79 L660.93,866.92 L651.45,860.13 L649.30,855.87 L644.74,854.93 L636.14,834.03 L629.31,831.76 L630.96,833.23 L626.41,838.69 L627.67,849.87 L622.36,863.99 L628.05,878.64 L623.12,880.37 L624.26,875.04 L621.09,872.51 L610.47,881.57 L606.93,879.83 L604.15,882.76 L602.73,882.18 L604.78,886.89 L610.60,893.28 L608.45,912.19 L603.89,918.58 L599.72,919.52 L582.77,914.99 L575.06,918.05 L570.43,911.23 L570.00,912.19 L571.90,914.86 L568.10,913.26 L565.32,915.39 L559.00,931.10 L547.99,946.68 L551.79,948.68 L560.26,944.95 L564.44,946.68 L559.12,954.27 L548.50,957.47 L536.49,953.47 L529.28,965.99 L535.09,971.05 L538.26,977.17 L544.45,979.44 L543.19,980.77 L522.57,977.71 L517.77,975.18 L513.85,979.04 L506.77,964.12 L501.20,963.86 L499.81,961.73 L497.79,954.80 L501.58,953.87 L493.36,949.34 L496.27,945.08 L492.48,940.82 L492.35,938.03 L494.37,936.03 L496.14,924.71 L501.96,926.04 L500.06,920.05 L501.58,915.92 L498.17,912.86 L489.57,915.79 L486.84,910.71 L486.78,911.66 L477.30,911.66 L471.61,917.12 L467.56,917.12 L465.41,913.92 L454.16,910.86 L447.83,904.20 L444.54,904.47 L443.15,907.67 L438.09,904.87 L428.61,901.27 L426.59,905.67 L422.79,904.60 L422.92,907.00 L411.91,913.92 L414.57,917.12 L411.03,920.05 L407.61,935.23 L395.73,933.90 L395.35,925.51 L392.94,920.85 L389.15,920.85 L387.13,915.26 L376.25,910.73 L379.54,900.61 L383.59,895.28 L380.42,882.10 L370.94,867.72 L357.66,860.39 L351.59,861.59 L343.87,867.98 L338.06,869.71 L327.05,860.39 L328.95,858.13 L332.49,844.95 L331.73,838.82 L329.71,837.76 L317.70,841.35 L310.36,834.83 L306.31,827.37 L297.46,829.63 L284.69,824.57 L273.05,807.13 L268.88,804.20 L262.05,804.60 L258.51,801.80 L240.68,805.27 L229.80,788.36 L213.74,776.24 L215.76,763.85 L218.80,757.99 L203.24,750.01 L198.06,750.40 L196.03,745.34 L188.95,740.82 L188.70,732.16 Z M364.87,314.18 L357.66,321.63 L373.85,306.99 L364.87,314.18 Z M702.79,839.22 L697.99,839.89 L712.15,839.89 L702.79,839.22 Z M634.47,822.18 L633.74,822.98 L629.31,831.76 L634.47,822.18 Z M424.69,475.57 L428.99,475.57 L430.55,474.40 L424.69,475.57 Z M409.76,490.61 L419.38,501.66 L410.27,489.26 L409.76,490.61 Z M413.69,524.97 L415.08,527.50 L417.70,527.63 L416.85,527.23 L413.69,524.97 Z M409.39,525.23 L408.44,526.95 L413.69,524.97 L409.39,525.23 Z M399.52,533.09 L395.09,538.15 L403.44,528.83 L399.52,533.09 Z M376.63,584.62 L385.09,585.79 L380.93,584.22 L376.63,584.62 Z M369.87,574.59 L369.80,574.77 L376.63,584.62 L369.87,574.59 Z M392.47,590.29 L390.79,587.95 L387.11,586.56 L392.47,590.29 Z M391.17,595.81 L396.63,595.71 L396.23,595.54 L391.17,595.81 Z M389.28,602.20 L389.78,604.73 L391.17,595.81 L389.28,602.20 Z M386.77,644.83 L387.25,643.61 L384.72,639.62 L386.77,644.83 Z M388.01,648.01 L388.28,648.07 L387.90,647.71 L388.01,648.01 Z M398.00,650.54 L393.32,648.67 L392.15,649.05 L398.00,650.54 Z M398.13,666.65 L399.42,667.75 L398.08,660.76 L398.13,666.65 Z M402.68,670.51 L408.37,669.84 L400.96,669.05 L402.68,670.51 Z M406.48,684.22 L408.59,669.63 L408.37,669.84 L406.48,684.22 Z M401.92,687.02 L401.98,687.92 L406.48,684.22 L401.92,687.02 Z M418.62,663.11 L413.31,664.92 L410.86,667.36 L418.62,663.11 Z M461.24,661.19 L458.71,657.99 L458.34,657.70 L461.24,661.19 Z M468.45,645.74 L488.81,640.42 L475.78,643.21 L462.00,647.74 L464.40,647.74 L468.45,645.74 Z M479.95,660.39 L484.63,661.45 L475.02,656.53 L479.95,660.39 Z M504.49,696.08 L499.94,694.35 L495.13,692.75 L504.49,696.08 Z M506.89,750.67 L509.55,757.20 L505.00,743.61 L506.89,750.67 Z M482.48,777.44 L485.14,781.30 L476.79,766.12 L482.48,777.44 Z M455.78,788.93 L455.78,788.93 L483.24,786.09 L483.25,786.06 L455.78,788.93 Z M492.48,803.93 L499.68,814.85 L492.14,803.29 L492.48,803.93 Z M508.28,813.52 L515.62,813.26 L507.99,813.43 L508.28,813.52 Z M521.06,809.93 L521.14,808.49 L515.62,813.26 L521.06,809.93 Z M503.60,825.64 L509.04,836.96 L506.26,829.10 L503.60,825.64 Z M490.83,870.91 L498.29,870.51 L494.25,870.25 L490.83,870.91 Z M494.37,886.63 L490.45,898.48 L494.63,888.89 L494.37,884.76 L493.45,884.07 L494.37,886.63 Z M491.59,910.33 L509.55,909.40 L507.52,909.26 L492.98,909.26 L491.59,910.33 Z M248.52,98.99 L241.81,91.94 L246.11,97.39 L248.52,98.99 Z M262.05,116.04 L265.84,103.92 L258.76,121.63 L262.05,116.04 Z M246.08,130.30 L255.22,122.43 L247.13,128.55 L246.08,130.30 Z M239.18,136.24 L240.73,134.90 L239.92,135.21 L239.18,136.24 Z M237.89,165.31 L236.89,162.25 L236.79,166.68 L237.89,165.31 Z M234.35,169.70 L235.06,168.82 L228.54,172.10 L234.35,169.70 Z M223.98,231.35 L232.33,221.50 L247.51,198.73 L231.57,221.10 L223.98,231.35 Z M225.37,273.83 L219.94,260.78 L222.84,270.23 L225.37,273.83 Z M244.85,294.34 L245.99,273.43 L244.72,281.55 L245.23,285.68 L244.85,294.34 Z M198.31,302.06 L216.27,297.93 L229.93,293.54 L209.19,298.73 L198.31,302.06 Z M210.19,360.89 L212.59,357.37 L210.45,359.18 L210.19,360.89 Z M218.80,406.72 L214.11,399.32 L214.24,400.86 L218.80,406.72 Z M230.18,431.76 L227.78,412.32 L229.93,437.75 L230.18,431.76 Z M228.66,454.26 L224.62,454.79 L223.24,455.49 L228.66,454.26 Z M211.59,516.05 L219.05,495.94 L212.60,511.52 L211.59,516.05 Z M220.95,527.50 L213.87,528.43 L209.94,529.49 L220.95,527.50 Z M230.18,530.43 L233.22,530.96 L220.95,527.50 L230.18,530.43 Z M252.07,550.79 L250.54,547.04 L250.67,548.80 L252.07,550.79 Z M261.42,589.28 L263.31,577.70 L265.46,571.17 L261.80,580.36 L261.42,589.28 Z M249.78,598.20 L248.26,590.48 L245.23,585.95 L249.78,598.20 Z M249.28,679.16 L243.84,666.12 L246.87,675.84 L249.28,679.16 Z M405.72,693.95 L402.08,689.46 L402.15,690.57 L405.72,693.95 Z M420.01,720.31 L413.81,714.59 L413.39,714.78 L420.01,720.31 Z M381.44,721.91 L396.49,713.25 L387.51,717.25 L381.44,721.91 Z M374.61,746.68 L366.64,739.75 L363.61,738.39 L374.61,746.68 Z M373.76,759.18 L373.76,759.18 L374.61,746.68 L373.76,759.18 Z M392.60,773.54 L386.99,769.44 L389.91,772.51 L392.60,773.54 Z M423.68,790.75 L416.59,786.62 L405.72,778.90 L413.31,785.56 L423.68,790.75 Z M424.98,777.71 L423.55,777.57 L416.59,786.62 L424.98,777.71 Z M400.28,821.91 L412.80,810.46 L412.80,808.20 L409.89,812.72 L400.28,821.91 Z M414.57,848.94 L410.14,847.48 L405.97,846.28 L414.57,848.94 Z M429.42,865.64 L422.16,855.73 L427.85,864.65 L429.42,865.64 Z M158.60,350.40 L162.79,353.57 L161.89,352.39 L158.60,350.40 Z M95.24,501.40 L99.79,490.88 L92.08,504.99 L95.24,501.40 Z M152.15,538.68 L163.66,529.10 L157.33,533.22 L152.15,538.68 Z M144.31,558.26 L147.22,557.99 L142.66,557.06 L144.31,558.26 Z M190.34,642.68 L194.39,638.42 L194.37,638.12 L190.34,642.68 Z M204.16,641.20 L206.53,641.88 L208.65,640.21 L204.16,641.20 Z M194.08,633.92 L194.01,632.96 L190.34,625.37 L194.08,633.92 Z M255.98,612.05 L237.89,604.60 L260.04,615.02 L255.98,612.05 Z M203.35,571.84 L203.75,571.97 L211.97,571.84 L203.35,571.84 Z M85.63,452.13 L98.00,442.74 L96.25,443.21 L85.63,452.13 Z M163.91,424.17 L168.72,429.63 L180.60,438.28 L163.91,424.17 Z M148.23,457.86 L149.24,465.45 L149.75,443.87 L148.23,457.86 Z M156.70,444.67 L134.32,440.01 L149.75,443.87 L156.70,444.67 Z M104.72,443.49 L101.18,441.88 L99.55,442.32 L104.72,443.49 Z M102.19,377.69 L91.94,388.02 L92.33,387.95 L102.19,377.69 Z M153.37,214.35 L152.98,210.94 L152.02,212.31 L153.37,214.35 Z M155.82,208.05 L156.44,205.96 L154.67,208.50 L155.82,208.05 Z M159.61,207.92 L157.49,204.45 L157.49,204.45 L159.61,207.92 Z M151.77,262.51 L145.19,265.97 L153.38,262.73 L151.77,262.51 Z M160.91,278.82 L160.51,278.83 L162.12,279.80 L160.91,278.82 Z M193.88,248.13 L191.05,252.42 L192.11,251.86 L193.88,248.13 Z M155.93,308.14 L158.85,307.79 L163.28,304.59 L155.93,308.14 Z M167.58,284.22 L167.26,283.96 L165.05,295.00 L167.58,284.22 Z M122.93,253.32 L124.83,256.12 L130.52,259.85 L122.93,253.32 Z M200.59,241.07 L215.76,229.62 L211.21,231.35 L200.59,241.07 Z M179.21,162.51 L183.89,159.58 L189.84,155.45 L179.21,162.51 Z M211.03,141.63 L220.82,139.47 L212.85,140.67 L211.03,141.63 Z M333.25,773.04 L332.87,775.04 L322.63,774.91 L334.34,775.90 L333.25,773.04 Z M362.59,693.55 L353.99,683.56 L367.02,699.27 L362.59,693.55 Z M399.52,688.09 L401.41,689.87 L392.19,676.10 L399.52,688.09 Z M310.72,677.82 L308.34,669.04 L308.59,674.77 L310.72,677.82 Z M265.21,254.12 L284.18,253.06 L279.38,253.06 L265.21,254.12 Z M285.45,247.73 L292.10,243.87 L288.99,245.07 L285.45,247.73 Z M331.23,246.53 L336.79,270.23 L335.91,261.71 L331.23,246.53 Z M271.38,477.07 L271.41,476.63 L268.63,475.43 L271.38,477.07 Z M268.91,496.73 L270.27,493.67 L270.72,486.91 L268.91,496.73 Z M282.41,508.99 L278.87,499.27 L277.40,498.31 L282.41,508.99 Z M349.21,500.74 L349.31,499.93 L347.92,496.60 L349.21,500.74 Z M368.16,477.43 L351.21,474.63 L353.87,476.23 L368.16,477.43 Z M383.08,489.41 L387.76,490.35 L380.93,487.42 L383.08,489.41 Z M315.04,591.01 L313.34,583.05 L313.40,584.62 L312.25,584.90 L315.04,591.01 Z M312.76,568.11 L312.86,570.76 L316.05,553.06 L312.76,568.11 Z M335.91,526.30 L319.72,547.74 L316.05,553.06 L335.91,526.30 Z M338.44,531.63 L336.16,530.83 L341.35,535.75 L338.44,531.63 Z M367.65,571.31 L364.74,570.24 L368.02,571.85 L367.65,571.31 Z M346.66,577.43 L344.32,580.38 L348.17,577.83 L346.66,577.43 Z M347.54,504.86 L348.17,508.46 L348.77,503.97 L347.54,504.86 Z M352.98,450.66 L353.99,454.66 L353.77,450.22 L352.98,450.66 Z M302.27,458.25 L303.28,454.39 L302.61,453.17 L302.27,458.25 Z M314.82,459.16 L320.73,465.71 L316.18,459.72 L314.82,459.16 Z M347.54,475.83 L348.31,475.58 L342.99,470.11 L347.54,475.83 Z M307.83,420.57 L303.91,418.84 L299.11,418.84 L307.83,420.57 Z M314.70,451.67 L315.29,450.80 L309.60,442.81 L314.70,451.67 Z M263.69,387.55 L265.46,375.56 L262.72,388.13 L263.69,387.55 Z M271.12,369.24 L270.14,369.30 L270.14,373.97 L271.12,369.24 Z M277.10,315.51 L271.66,308.32 L280.77,321.10 L277.10,315.51 Z M266.78,151.20 L264.22,147.84 L265.34,150.39 L266.78,151.20 Z M306.19,234.95 L301.76,230.72 L301.63,231.75 L306.19,234.95 Z M302.07,228.19 L307.70,221.50 L302.27,226.56 L302.07,228.19 Z M313.27,213.64 L321.36,208.45 L319.21,208.98 L313.27,213.64 Z M328.45,213.11 L334.77,214.04 L335.61,212.74 L328.45,213.11 Z M455.29,803.93 L452.26,803.54 L450.79,804.42 L455.29,803.93 Z M462.21,811.80 L479.32,805.67 L462.21,811.80 L462.21,811.80 Z M468.07,874.24 L470.34,879.30 L471.98,881.08 L468.07,874.24 Z M433.41,720.58 L427.22,717.38 L434.40,721.88 L433.41,720.58 Z M436.45,724.57 L435.94,723.91 L435.94,731.50 L436.45,724.57 Z M431.77,774.64 L437.63,769.89 L437.08,769.71 L431.77,774.64 Z M439.02,770.34 L439.48,771.04 L441.35,771.09 L439.02,770.34 Z M428.86,679.03 L431.26,681.16 L442.65,683.96 L428.86,679.03 Z M465.41,687.95 L464.53,693.81 L465.91,687.59 L465.41,687.95 Z M459.09,714.98 L456.68,715.78 L456.56,716.06 L459.09,714.98 Z M456.68,711.29 L455.67,712.59 L456.68,715.78 L456.68,711.29 Z M491.08,639.35 L497.93,636.39 L495.51,632.29 L496.90,636.29 L491.08,639.35 Z M489.40,330.13 L490.28,328.87 L489.44,329.36 L489.40,330.13 Z M457.82,479.56 L454.16,476.10 L453.82,476.06 L457.82,479.56 Z M498.17,538.64 L495.00,539.08 L493.11,535.35 L494.50,540.73 L498.17,538.64 Z M499.18,546.27 L494.72,541.58 L495.38,544.14 L499.18,546.27 Z M500.70,575.57 L500.19,568.81 L499.05,567.98 L498.49,565.93 L498.04,567.18 L500.70,575.57 Z M497.15,579.96 L497.58,579.44 L491.21,581.43 L497.15,579.96 Z M482.91,610.54 L494.63,607.39 L484.13,609.26 L482.91,610.54 Z M471.99,615.91 L470.11,612.56 L469.84,614.58 L476.03,621.11 L486.91,630.70 L485.39,624.30 L486.28,628.96 L471.99,615.91 Z M400.53,597.94 L401.38,597.66 L399.45,596.86 L400.53,597.94 Z M423.32,602.17 L423.42,602.07 L423.04,599.00 L423.32,602.17 Z M435.18,592.13 L433.77,590.91 L434.55,592.35 L435.18,592.13 Z M449.22,597.01 L452.49,597.66 L437.33,591.41 L449.22,597.01 Z M461.24,599.40 L463.13,598.13 L459.88,599.13 L461.24,599.40 Z M474.39,593.01 L467.18,591.41 L470.34,593.28 L474.39,593.01 Z M488.18,588.48 L484.76,585.55 L486.15,582.23 L484.25,586.35 L488.18,588.48 Z M437.84,613.78 L445.18,616.58 L442.95,617.60 L445.05,617.78 L449.22,623.64 L444.67,617.11 L446.90,615.61 L437.84,613.78 Z M431.77,541.48 L426.33,531.63 L432.78,544.94 L431.77,541.48 Z M489.19,554.40 L476.54,550.53 L495.38,557.72 L489.19,554.40 Z M426.39,587.62 L431.79,589.19 L429.75,587.42 L426.39,587.62 Z M472.87,585.02 L474.90,579.03 L474.20,578.86 L472.87,585.02 Z M453.27,558.39 L460.10,561.72 L452.05,556.18 L453.27,558.39 Z M439.86,427.10 L440.27,426.84 L426.46,414.18 L439.86,427.10 Z M447.44,411.82 L450.66,411.96 L447.58,411.12 L447.44,411.82 Z M455.61,412.19 L458.33,412.32 L470.85,408.59 L455.61,412.19 Z M427.86,398.48 L429.62,395.27 L428.86,391.68 L427.86,398.48 Z M529.61,703.81 L529.62,703.80 L514.73,684.76 L507.02,676.90 L511.45,681.69 L529.61,703.81 Z M542.93,673.75 L543.69,676.37 L545.59,678.50 L542.93,673.75 Z M557.99,679.03 L557.10,678.99 L557.48,682.09 L557.99,679.03 Z M549.51,692.70 L549.51,688.49 L548.63,691.55 L549.51,692.70 Z M566.71,695.41 L565.07,696.08 L560.64,705.40 L566.71,695.41 Z M566.71,691.15 L566.33,668.11 L566.71,695.41 L566.71,691.15 Z M573.67,726.04 L563.17,723.51 L575.15,727.71 L560.64,705.40 L573.67,726.04 Z M600.10,730.03 L598.08,728.17 L600.03,731.63 L600.10,730.03 Z M599.75,737.56 L599.92,733.99 L598.71,737.36 L599.75,737.56 Z M616.54,808.86 L617.81,783.03 L617.05,787.82 L616.54,808.86 Z M596.95,812.63 L597.32,806.46 L595.80,809.53 L596.95,812.63 Z M596.69,817.12 L596.77,815.70 L593.27,818.05 L596.69,817.12 Z M586.95,832.16 L585.18,824.97 L581.26,814.72 L586.95,832.16 Z M592.40,863.58 L602.25,863.46 L592.51,863.19 L592.40,863.58 Z M593.37,870.33 L592.05,864.84 L591.63,866.39 L593.37,870.33 Z M504.36,961.73 L507.02,960.40 L507.86,959.24 L504.36,961.73 Z M509.56,956.91 L510.81,955.20 L510.05,952.67 L509.56,956.91 Z M519.92,941.22 L531.93,943.09 L529.40,942.15 L519.92,941.22 Z M531.05,936.69 L530.58,935.73 L529.40,942.15 L531.05,936.69 Z M516.12,857.19 L516.38,857.20 L510.56,841.35 L516.12,857.19 Z M525.23,854.93 L522.32,854.53 L518.65,854.14 L525.23,854.93 Z M530.16,853.74 L525.36,850.14 L524.88,850.83 L530.16,853.74 Z M542.43,846.23 L542.43,846.23 L542.18,822.84 L542.43,846.23 Z M544.96,844.68 L546.86,840.29 L542.97,845.90 L544.96,844.68 Z M569.49,839.49 L564.44,828.17 L567.98,836.82 L569.49,839.49 Z M505.04,873.79 L503.69,873.93 L504.62,874.51 L505.04,873.79 Z M529.91,872.64 L544.71,871.98 L524.09,871.18 L510.94,868.38 L529.91,872.64 Z M565.95,865.45 L560.77,878.37 L564.18,870.25 L565.95,865.45 Z M564.18,898.88 L563.04,899.88 L565.07,899.69 L564.82,891.95 L564.18,898.88 Z M569.11,909.30 L565.19,903.54 L567.72,908.60 L569.11,909.30 Z M533.07,925.24 L528.90,926.17 L533.59,925.54 L533.07,925.24 Z M551.92,891.95 L547.36,892.22 L544.96,894.08 L551.92,891.95 Z M561.20,850.44 L560.01,852.00 L559.38,855.33 L561.20,850.44 Z M525.74,763.59 L535.13,761.77 L534.46,761.46 L521.82,764.52 L525.74,763.59 Z M586.06,726.44 L579.49,729.23 L586.49,726.69 L586.06,726.44 Z M588.09,727.63 L587.11,727.06 L586.62,730.37 L588.09,727.63 Z M583.66,735.89 L584.66,734.03 L581.68,736.91 L583.66,735.89 Z M543.32,780.50 L540.91,773.44 L539.90,763.99 L540.28,771.71 L543.32,780.50 Z M521.56,801.14 L519.98,798.43 L521.34,804.95 L521.56,801.14 Z M562.79,807.53 L559.38,803.40 L557.06,802.98 L562.79,807.53 Z M578.98,770.64 L585.68,763.32 L577.08,772.11 L578.98,770.64 Z M646.26,440.94 L646.77,454.66 L647.81,456.65 L646.26,440.94 Z M568.36,577.03 L564.38,573.30 L564.56,574.50 L562.63,574.77 L568.36,577.03 Z M591.88,588.68 L592.51,589.95 L593.95,589.68 L591.88,588.68 Z M595.72,589.36 L597.57,589.02 L601.11,582.53 L595.72,589.36 Z M601.82,581.62 L607.18,578.36 L603.13,579.96 L601.82,581.62 Z M619.84,611.41 L619.45,611.92 L621.73,612.45 L619.84,611.41 Z M599.34,623.37 L599.22,625.22 L599.97,624.04 L599.34,623.37 Z M598.99,628.88 L598.85,631.15 L599.97,630.43 L598.99,628.88 Z M596.81,635.09 L598.58,635.36 L596.25,634.59 L598.58,643.48 L596.81,635.09 Z M594.32,633.95 L586.44,631.36 L593.40,634.29 L594.32,633.95 Z M571.14,634.02 L568.99,632.96 L568.62,633.49 L571.14,634.02 Z M585.05,380.89 L574.93,380.62 L578.35,381.69 L585.05,380.89 Z M494.52,658.09 L498.31,657.20 L495.38,656.66 L494.52,658.09 Z M509.04,653.47 L510.54,654.46 L507.41,650.06 L509.04,653.47 Z M512.58,655.80 L513.47,656.39 L522.95,649.47 L512.58,655.80 Z M503.48,641.88 L504.71,640.80 L501.33,642.15 L503.48,641.88 Z M502.17,536.36 L504.17,535.22 L503.35,534.82 L502.17,536.36 Z M541.54,494.61 L540.28,491.68 L536.87,484.75 L541.54,494.61 Z M552.63,492.79 L546.22,479.43 L552.17,492.61 L540.28,491.68 L552.63,492.79 Z M558.49,593.81 L560.01,588.35 L556.59,598.47 L558.49,593.81 Z M558.32,579.90 L557.99,582.76 L560.01,588.35 L558.32,579.90 Z M559.36,575.23 L558.87,575.30 L558.77,576.15 L559.36,575.23 Z M497.79,485.95 L497.30,486.87 L505.37,487.95 L508.44,486.98 L497.79,485.95 Z M513.22,488.75 L521.18,488.22 L511.51,487.28 L513.22,488.75 Z M636.52,775.17 L643.60,775.04 L644.08,774.41 L636.52,775.17 Z M690.65,860.93 L689.86,853.53 L689.26,854.53 L690.65,860.93 Z M673.70,814.05 L676.36,806.33 L678.13,800.61 L673.70,814.05 Z M676.36,798.08 L675.07,798.11 L678.13,800.61 L676.36,798.08 Z M699.12,820.85 L701.91,816.85 L695.28,816.30 L700.14,817.78 L699.12,820.85 Z M700.92,828.16 L701.27,827.24 L699.12,820.85 L700.92,828.16 Z M641.45,818.58 L643.35,814.72 L643.43,811.48 L641.45,818.58 Z M637.28,819.11 L636.07,820.43 L641.45,818.58 L637.28,819.11 Z M643.83,664.81 L642.34,657.99 L642.59,664.52 L643.83,664.81 Z M669.66,663.19 L655.37,667.58 L665.23,664.92 L669.66,663.19 Z M706.59,679.43 L704.35,678.26 L707.23,680.62 L706.59,679.43 Z M727.33,714.72 L723.15,707.66 L726.97,715.52 L727.33,714.72 Z M730.27,719.30 L728.10,717.83 L728.59,718.85 L730.27,719.30 Z M631.59,724.71 L634.12,721.51 L634.22,721.63 L633.74,720.04 L644.74,709.66 L634.75,717.65 L631.59,724.71 Z M680.41,704.07 L678.89,707.26 L678.60,709.03 L680.41,704.07 Z M596.18,692.75 L595.62,695.67 L598.58,691.15 L596.18,692.75 Z M597.19,681.03 L596.43,685.29 L600.86,674.24 L597.19,681.03 Z M620.33,618.31 L622.36,620.31 L625.90,622.97 L620.33,618.31 Z M638.42,629.36 L642.47,630.16 L647.15,629.10 L638.42,629.36 Z M712.40,573.17 L706.59,582.89 L714.55,570.51 L712.40,573.17 Z M685.97,597.94 L682.43,598.74 L688.37,599.14 L685.97,597.94 Z M799.92,537.48 L791.70,529.63 L794.61,533.09 L799.92,537.48 Z M794.86,518.18 L792.46,523.50 L791.70,529.63 L794.86,518.18 Z M870.87,479.03 L870.99,472.24 L870.62,475.57 L870.87,479.03 Z M881.11,522.70 L884.24,522.01 L869.35,522.97 L881.11,522.70 Z M891.36,520.44 L904.26,512.18 L886.77,521.45 L891.36,520.44 Z M958.26,507.79 L961.27,506.18 L954.59,507.52 L958.26,507.79 Z M718.03,398.06 L698.24,396.20 L708.74,398.20 L718.03,398.06 Z M735.38,397.06 L727.54,397.91 L734.66,397.80 L735.38,397.06 Z M870.74,437.75 L870.16,440.05 L873.64,435.86 L870.74,437.75 Z M677.75,457.86 L680.28,456.39 L682.43,451.73 L677.75,457.86 Z M748.08,435.04 L750.22,434.42 L755.40,428.69 L748.08,435.04 Z M759.45,426.03 L769.49,422.55 L767.92,421.64 L759.45,426.03 Z M747.97,403.64 L744.87,398.96 L744.15,399.93 L747.97,403.64 Z M764.89,415.51 L760.71,412.18 L766.47,418.71 L764.89,415.51 Z M647.81,349.94 L651.85,347.46 L648.54,348.80 L647.81,349.94 Z M690.90,285.95 L705.83,275.29 L697.23,280.62 L690.90,285.95 Z" /></g></svg>