<svg xmlns="http://www.w3.org/2000/svg" viewBox="0 0 1000 1000" width="1000" height="1000"><g fill="#cccccc" stroke="#222" stroke-width="2"><path d="M323.64,620.18 L319.77,620.30 L318.33,625.19 L309.30,625.66 L307.72,629.60 L304.42,626.86 L304.85,619.58 L294.82,619.10 L300.98,608.73 L299.40,603.36 L302.36,597.58 L301.41,597.63 L297.11,585.70 L292.67,583.80 L318.76,580.69 L275.75,585.35 L263.70,557.20 L265.42,550.40 L268.00,547.65 L253.66,540.02 L238.04,547.77 L227.14,536.68 L224.27,538.47 L218.68,535.37 L212.66,539.30 L172.65,500.89 L231.30,462.13 L232.87,456.52 L253.52,386.62 L261.69,361.21 L274.89,363.24 L261.84,361.21 L270.87,332.71 L271.87,329.25 L270.01,326.62 L218.97,304.91 L206.63,299.78 L158.03,279.74 L143.98,270.80 L118.74,254.46 L97.66,241.69 L42.60,246.58 L19.23,220.46 L28.69,213.18 L48.77,209.96 L53.64,212.35 L69.85,210.68 L88.92,205.91 L90.35,203.05 L99.67,199.82 L104.40,209.61 L97.52,194.70 L94.36,192.91 L94.08,183.72 L100.39,172.39 L110.14,167.26 L114.78,156.49 L113.72,154.86 L116.16,153.42 L110.42,148.53 L110.71,141.02 L113.29,139.94 L111.00,137.56 L111.00,132.79 L118.31,131.00 L120.60,122.17 L118.60,117.52 L118.60,101.18 L125.48,100.58 L126.63,93.19 L129.78,90.92 L134.94,79.35 L135.52,76.61 L142.11,72.31 L145.55,59.19 L150.71,54.30 L146.99,48.46 L154.30,47.74 L162.04,41.66 L164.91,33.90 L164.05,28.06 L156.88,29.85 L155.16,27.34 L157.02,21.74 L161.76,19.23 L166.92,21.50 L172.94,19.59 L183.12,25.19 L177.67,34.02 L184.98,39.51 L195.31,40.70 L208.07,38.20 L217.39,39.15 L226.85,43.21 L235.60,41.06 L246.64,59.79 L255.39,65.15 L263.42,66.94 L264.56,73.74 L261.98,84.84 L248.36,89.25 L249.65,94.14 L257.97,103.21 L268.00,100.22 L273.60,102.85 L262.12,115.25 L258.83,122.53 L273.88,141.85 L291.09,148.29 L296.25,155.21 L321.63,156.29 L323.64,149.85 L328.94,145.31 L338.84,153.54 L343.42,164.88 L348.73,167.02 L355.18,166.43 L357.76,158.91 L362.64,155.81 L368.37,157.12 L372.82,163.21 L361.78,174.66 L361.20,179.79 L364.50,190.40 L367.08,193.03 L379.99,196.37 L393.18,197.32 L398.63,206.03 L392.03,217.60 L390.74,221.30 L392.60,224.64 L408.09,234.89 L420.99,237.16 L430.17,233.22 L437.48,233.34 L440.07,242.65 L438.06,253.03 L442.79,266.74 L440.35,289.29 L450.10,298.83 L465.44,304.79 L483.94,301.69 L489.82,304.56 L501.00,324.71 L503.58,334.26 L495.70,347.62 L496.13,352.15 L507.03,363.96 L515.49,369.09 L530.40,370.40 L533.84,367.30 L533.55,362.17 L546.74,363.72 L541.87,357.87 L529.54,356.09 L537.28,352.51 L535.27,347.97 L536.56,344.28 L532.26,345.47 L530.25,341.77 L536.71,334.02 L553.34,342.37 L557.93,340.94 L556.35,346.42 L564.09,348.09 L560.51,352.98 L566.24,354.53 L568.39,352.39 L573.13,353.22 L575.99,351.67 L575.56,353.46 L579.15,356.68 L583.74,356.92 L585.17,358.95 L559.93,365.15 L578.00,360.86 L580.15,367.42 L581.30,370.76 L585.74,373.38 L589.76,369.92 L600.66,368.73 L602.23,365.63 L598.08,362.65 L600.08,360.26 L598.22,352.03 L604.10,347.74 L607.97,338.67 L611.41,337.12 L626.90,351.79 L629.19,357.87 L626.40,366.32 L637.36,368.85 L638.94,363.12 L647.54,361.33 L652.85,363.12 L662.31,359.54 L667.16,361.92 L673.21,355.01 L679.66,352.03 L682.53,346.54 L690.56,343.80 L688.98,339.27 L690.85,337.12 L697.44,335.93 L703.46,331.75 L712.50,331.04 L716.51,340.10 L717.37,348.81 L728.13,357.99 L721.82,371.59 L736.15,398.07 L771.43,432.07 L771.00,443.40 L766.98,448.41 L748.49,462.01 L749.63,469.52 L761.25,479.78 L761.82,485.39 L758.95,489.20 L752.50,491.47 L745.19,490.28 L729.27,479.30 L720.38,478.71 L712.64,480.86 L695.15,496.60 L689.70,497.20 L687.98,494.81 L692.28,480.14 L690.42,474.53 L686.40,471.91 L678.37,472.98 L669.34,479.30 L662.89,484.67 L659.59,493.74 L642.38,501.97 L620.73,510.20 L608.54,518.31 L588.61,538.71 L584.60,551.95 L585.89,562.33 L593.63,575.33 L597.65,578.91 L613.27,592.03 L615.85,597.59 L615.85,596.56 L630.19,600.38 L643.67,607.29 L650.84,613.38 L665.04,618.98 L675.07,639.26 L689.12,652.98 L708.77,655.37 L712.78,645.11 L716.22,642.24 L728.70,640.10 L740.89,643.91 L746.19,638.07 L755.22,636.04 L757.95,631.51 L762.25,629.84 L773.86,631.03 L776.88,639.50 L783.33,642.84 L787.77,649.16 L803.12,657.99 L814.59,677.67 L818.17,678.63 L827.78,675.64 L836.24,683.40 L845.27,685.31 L848.30,687.65 L847.85,686.62 L857.60,691.51 L865.49,690.79 L885.27,695.33 L896.60,700.22 L905.21,708.57 L918.54,712.14 L923.13,702.12 L921.55,692.34 L928.15,686.74 L928.29,681.73 L936.32,681.01 L938.90,678.39 L942.63,679.10 L945.78,674.57 L951.09,675.88 L952.95,671.71 L969.01,682.32 L973.60,693.42 L979.77,701.29 L979.91,707.25 L958.69,734.45 L956.97,741.73 L962.70,749.72 L977.47,752.10 L980.77,756.64 L980.48,761.77 L968.29,772.14 L951.66,794.33 L941.91,798.39 L937.90,803.04 L939.04,832.38 L936.75,853.97 L929.44,865.42 L914.24,869.72 L893.02,870.67 L888.14,880.21 L902.34,886.54 L916.25,896.67 L920.55,904.43 L920.98,910.39 L914.38,919.94 L899.47,932.34 L859.32,943.55 L824.77,957.15 L790.50,967.77 L751.78,973.97 L704.47,980.77 L676.51,936.52 L622.88,886.66 L602.09,863.51 L586.46,839.78 L576.57,820.69 L573.99,809.72 L580.87,784.67 L581.87,770.24 L572.98,735.76 L572.55,722.16 L577.35,715.90 L576.42,716.56 L570.55,712.50 L564.09,715.13 L561.80,714.29 L568.11,708.09 L564.52,703.91 L561.94,704.39 L561.66,708.21 L558.50,711.19 L552.62,711.43 L550.47,704.87 L548.03,705.23 L544.88,701.77 L545.17,695.21 L540.43,691.99 L543.45,688.17 L538.43,680.53 L543.45,678.86 L545.74,673.38 L552.48,677.19 L558.50,675.76 L556.64,673.02 L553.20,673.14 L551.04,668.84 L553.48,667.89 L557.21,660.49 L552.19,658.59 L553.20,654.05 L559.22,653.22 L556.49,647.14 L557.15,646.44 L548.18,642.01 L544.74,638.19 L543.88,632.82 L538.43,633.18 L528.68,627.57 L518.35,626.86 L513.14,622.52 L506.02,628.17 L497.85,629.36 L493.69,621.13 L490.39,619.94 L488.96,614.45 L490.97,623.99 L490.11,626.74 L481.50,633.18 L474.48,634.49 L465.73,640.93 L452.25,628.53 L463.58,639.50 L462.86,641.65 L462.15,640.34 L454.40,640.10 L455.26,637.47 L449.67,635.56 L448.81,641.77 L445.51,640.34 L444.08,642.24 L444.08,648.81 L434.33,646.78 L426.87,655.72 L423.86,654.77 L417.98,657.27 L414.11,653.93 L411.39,655.72 L410.24,645.47 L412.82,643.68 L410.96,639.38 L410.38,637.47 L407.09,637.00 L405.08,640.22 L398.48,638.67 L399.49,634.97 L402.93,634.49 L403.65,631.03 L395.33,629.12 L392.17,623.99 L375.83,617.43 L389.45,595.13 L368.95,627.10 L367.51,624.83 L361.49,623.40 L361.78,626.62 L356.33,627.81 L354.46,624.23 L345.29,623.52 L342.85,613.14 L344.14,621.49 L339.12,620.65 L336.40,623.99 L338.55,627.57 L335.11,629.24 L329.95,628.17 L330.09,622.92 L323.64,620.18 Z M345.43,573.66 L361.66,567.27 L339.27,574.97 L318.76,580.69 L345.43,573.66 Z M484.94,331.63 L494.26,328.17 L501.00,324.71 L484.94,331.63 Z M585.46,378.63 L582.88,387.58 L585.17,383.88 L585.74,373.38 L585.46,378.63 Z M874.26,870.97 L875.52,872.58 L888.14,880.21 L874.26,870.97 Z M438.92,335.33 L435.95,335.93 L443.08,335.93 L438.92,335.33 Z M441.07,377.56 L442.09,377.18 L440.80,376.69 L441.07,377.56 Z M435.33,379.94 L439.63,378.51 L441.07,377.56 L435.33,379.94 Z M462.86,381.97 L459.57,379.94 L462.00,381.85 L456.27,382.57 L462.86,381.97 Z M477.32,386.94 L481.22,388.17 L476.95,385.54 L477.32,386.94 Z M473.33,396.05 L473.14,396.36 L478.35,390.92 L473.33,396.05 Z M461.29,389.60 L454.98,386.38 L473.33,396.05 L461.29,389.60 Z M462.86,415.01 L466.92,415.66 L459.28,412.39 L462.86,415.01 Z M479.78,417.71 L479.54,417.20 L474.74,416.91 L479.78,417.71 Z M473.19,422.29 L480.36,418.95 L480.05,418.30 L473.19,422.29 Z M465.01,429.80 L474.48,427.54 L477.06,431.23 L475.32,427.22 L465.01,429.80 Z M462.00,448.53 L468.31,450.32 L465.42,448.83 L464.44,448.77 L462.00,448.53 Z M458.85,455.45 L459.85,454.26 L462.00,448.53 L458.85,455.45 Z M470.75,458.79 L471.13,459.02 L466.30,455.93 L470.75,458.79 Z M474.05,460.82 L485.23,459.38 L477.49,460.34 L471.34,459.15 L474.05,460.82 Z M477.78,462.60 L484.66,465.83 L474.05,460.82 L477.78,462.60 Z M476.48,465.94 L469.60,463.44 L465.73,462.25 L477.06,466.30 L477.78,462.60 L476.48,465.94 Z M462.58,459.74 L453.13,457.00 L453.13,457.00 L462.72,460.10 L464.01,461.41 L461.00,460.82 L465.73,462.25 L462.58,459.74 Z M499.71,469.88 L495.84,466.90 L485.66,459.03 L485.23,459.38 L499.71,469.88 Z M482.94,457.48 L479.78,455.93 L479.59,455.83 L485.66,459.03 L482.94,457.48 Z M471.90,467.73 L475.83,469.57 L475.19,469.17 L471.90,467.73 Z M460.28,464.39 L458.09,463.42 L460.71,464.63 L471.47,469.40 L478.64,472.62 L485.09,475.49 L471.32,469.28 L460.28,464.39 Z M492.54,478.83 L496.24,480.48 L496.24,480.48 L490.25,477.75 L485.09,475.49 L492.54,478.83 Z M456.27,475.49 L459.57,476.92 L460.86,476.08 L456.27,475.49 Z M465.59,492.19 L466.88,496.83 L466.88,496.83 L465.01,489.92 L465.16,487.18 L473.76,483.24 L464.30,487.53 L465.59,492.19 Z M468.46,490.46 L468.17,489.32 L465.01,489.92 L468.46,490.46 Z M470.05,490.71 L471.90,490.99 L471.75,491.23 L474.76,487.53 L470.05,490.71 Z M485.23,490.28 L480.93,489.09 L474.76,487.53 L485.23,490.28 Z M477.63,494.10 L472.90,495.77 L475.62,495.17 L485.23,490.28 L477.63,494.10 Z M489.25,486.70 L490.35,485.71 L488.96,486.94 L485.23,490.28 L489.25,486.70 Z M485.80,484.79 L482.94,487.30 L480.93,489.09 L485.80,484.79 Z M477.31,484.87 L476.77,485.27 L474.76,487.53 L477.31,484.87 Z M463.17,501.49 L463.17,501.49 L476.77,498.99 L463.17,501.49 Z M463.87,505.67 L463.58,503.88 L463.42,502.98 L463.87,505.67 Z M471.47,505.19 L478.35,503.64 L463.87,505.67 L471.47,505.19 Z M476.48,509.96 L478.92,506.50 L478.35,503.64 L476.48,509.96 Z M477.70,512.08 L477.70,512.08 L476.48,509.96 L477.70,512.08 Z M464.30,508.53 L463.95,508.59 L467.45,509.13 L473.47,510.08 L464.30,508.53 Z M458.13,512.47 L467.31,509.84 L467.02,513.06 L467.45,509.13 L458.13,512.47 Z M455.84,517.12 L453.86,517.66 L466.88,515.57 L470.91,514.27 L461.14,516.40 L456.55,517.00 L458.13,512.47 L455.84,517.12 Z M454.83,510.20 L454.12,513.06 L455.84,517.12 L454.83,510.20 Z M452.68,506.26 L452.97,507.81 L454.83,510.20 L452.68,506.26 Z M444.60,507.17 L444.64,507.34 L452.97,507.81 L444.60,507.17 Z M463.01,530.00 L473.62,523.68 L470.89,525.11 L463.01,530.00 Z M493.71,554.05 L498.14,555.53 L495.56,553.86 L493.71,554.05 Z M478.06,556.72 L473.19,563.40 L479.35,556.65 L478.06,556.72 Z M476.92,582.96 L476.63,581.05 L473.19,577.35 L476.92,582.96 Z M484.94,595.01 L482.22,589.16 L480.01,587.59 L484.94,595.01 Z M481.07,606.10 L481.22,610.63 L481.30,605.46 L481.07,606.10 Z M392.89,314.57 L399.20,312.43 L368.80,321.61 L392.89,314.57 Z M403.65,356.92 L408.09,352.15 L395.90,364.08 L403.65,356.92 Z M383.57,357.28 L390.31,368.61 L393.75,378.75 L389.59,365.15 L379.13,350.00 L383.57,357.28 Z M405.75,386.21 L403.50,383.64 L393.75,378.75 L405.75,386.21 Z M395.04,467.50 L393.03,463.20 L387.73,452.94 L399.06,480.26 L395.04,467.50 Z M410.38,488.61 L413.83,488.01 L401.14,487.89 L401.14,487.90 L410.38,488.61 Z M427.73,497.91 L428.16,503.50 L428.16,503.50 L427.88,498.51 L438.77,499.11 L433.90,498.75 L435.90,490.90 L434.76,490.40 L432.47,489.68 L422.00,485.98 L419.64,485.40 L428.88,488.61 L427.73,497.91 Z M441.36,501.13 L441.64,498.99 L441.93,497.67 L449.96,494.10 L441.07,498.03 L440.93,504.59 L441.36,501.13 Z M443.36,486.22 L437.05,479.07 L427.73,465.83 L427.07,467.38 L428.45,467.02 L436.48,478.59 L438.49,480.97 L442.65,485.98 L445.66,488.97 L449.96,494.10 L443.36,486.22 Z M439.63,473.94 L441.21,467.26 L437.05,479.07 L439.63,473.94 Z M434.76,463.32 L430.31,464.87 L427.73,465.83 L434.76,463.32 Z M431.18,458.79 L433.89,452.72 L433.89,452.72 L429.45,462.01 L430.31,464.87 L431.18,458.79 Z M420.71,446.86 L419.42,444.47 L422.53,454.26 L423.15,454.26 L427.16,464.39 L409.78,463.06 L420.60,465.09 L420.85,464.39 L427.73,465.83 L420.71,446.86 Z M415.12,444.83 L412.11,445.72 L419.42,444.47 L415.12,444.83 Z M429.02,503.52 L428.42,503.52 L430.03,503.64 L439.49,504.47 L440.50,506.86 L440.93,504.59 L429.02,503.52 Z M437.05,511.15 L436.48,507.10 L436.19,509.13 L437.05,511.15 Z M425.44,512.58 L429.45,512.11 L437.05,511.15 L425.44,512.58 Z M425.15,509.60 L424.85,513.08 L425.44,512.58 L425.15,509.60 Z M422.00,503.04 L421.17,503.20 L425.15,509.60 L422.00,503.04 Z M418.70,499.34 L417.12,497.91 L422.00,503.04 L418.70,499.34 Z M419.27,493.74 L416.79,497.86 L417.12,497.91 L419.27,493.74 Z M437.77,513.54 L439.06,517.12 L437.05,511.15 L437.77,513.54 Z M442.50,517.83 L441.13,516.12 L441.12,516.12 L444.22,520.34 L442.50,517.83 Z M431.18,527.02 L429.64,527.98 L445.57,519.97 L444.22,520.34 L431.18,527.02 Z M462.43,527.49 L448.52,529.88 L439.06,532.15 L462.43,527.49 Z M430.72,535.02 L439.31,534.12 L439.29,534.01 L433.33,533.58 L430.72,535.02 Z M428.59,535.25 L429.82,535.12 L425.73,534.06 L428.59,535.25 Z M402.82,577.08 L405.51,575.80 L402.07,576.64 L402.82,577.08 Z M416.26,592.03 L409.52,587.85 L417.20,593.71 L416.26,592.03 Z M369.81,302.29 L344.43,295.49 L341.56,294.77 L369.81,302.29 Z M341.70,298.59 L345.72,306.34 L341.56,294.77 L341.70,298.59 Z M328.66,306.23 L316.75,307.06 L315.23,308.01 L345.72,306.34 L328.66,306.23 Z M170.93,230.72 L175.95,223.68 L173.51,225.95 L170.93,230.72 Z M183.41,219.75 L186.24,220.57 L182.83,218.19 L183.41,219.75 Z M192.52,222.39 L193.54,222.69 L193.30,222.37 L192.52,222.39 Z M202.48,201.85 L209.93,201.26 L218.24,200.45 L216.38,199.71 L202.48,201.85 Z M194.06,191.25 L195.02,194.46 L202.48,201.85 L194.06,191.25 Z M267.35,261.82 L267.35,261.82 L280.48,256.25 L267.35,261.82 Z M290.23,238.00 L314.03,245.75 L290.17,237.96 L290.23,238.00 Z M335.82,232.75 L340.41,236.68 L334.39,229.88 L330.58,222.85 L335.82,232.75 Z M359.77,231.32 L358.19,239.31 L360.63,231.20 L334.39,229.88 L359.77,231.32 Z M420.22,503.38 L417.55,503.88 L402.21,513.78 L403.47,501.09 L403.22,501.49 L401.21,514.49 L420.22,503.38 Z M417.55,528.45 L423.62,525.06 L417.41,528.33 L402.84,554.46 L402.84,554.46 L417.55,528.45 Z M417.55,519.41 L417.41,519.50 L417.41,528.33 L417.55,519.41 Z M379.69,561.59 L374.39,563.16 L364.93,566.14 L379.69,561.59 Z M373.53,555.41 L372.10,550.40 L374.39,563.16 L373.53,555.41 Z M364.16,566.41 L356.76,587.02 L364.93,566.14 L364.16,566.41 Z M359.05,415.85 L361.20,413.46 L342.28,430.28 L359.05,415.85 Z M361.78,461.05 L372.82,417.64 L358.71,472.69 L361.78,461.05 Z M309.01,527.14 L280.19,514.97 L307.15,526.78 L309.01,527.14 Z M364.79,516.52 L358.34,507.93 L371.81,526.06 L364.79,516.52 Z M369.54,540.63 L370.81,534.53 L371.81,526.06 L369.54,540.63 Z M376.55,500.18 L376.48,500.56 L376.96,500.09 L376.55,500.18 Z M386.93,523.03 L390.88,516.64 L386.58,521.29 L386.93,523.03 Z M386.27,524.10 L374.13,534.93 L374.83,535.01 L386.82,525.68 L385.72,524.99 L386.27,524.10 Z M324.50,486.46 L330.52,486.82 L331.73,485.88 L324.50,486.46 Z M351.17,475.25 L351.22,474.70 L346.87,478.83 L351.17,475.25 Z M346.00,344.75 L355.75,356.20 L345.82,344.52 L345.13,345.10 L346.00,344.75 Z M365.94,349.41 L359.34,351.19 L366.63,349.44 L365.94,349.41 Z M335.74,376.80 L335.25,371.00 L333.69,370.04 L334.68,376.01 L335.74,376.80 Z M337.83,378.35 L340.13,380.06 L342.75,379.71 L337.83,378.35 Z M365.85,379.93 L360.20,387.58 L366.30,380.09 L365.85,379.93 Z M276.32,439.58 L289.22,395.57 L288.65,397.48 L276.32,439.58 Z M365.23,338.73 L365.22,338.55 L360.49,338.07 L365.23,338.73 Z M293.67,182.29 L259.69,196.48 L246.93,201.85 L293.67,182.29 Z M174.22,153.97 L167.88,150.51 L169.93,152.59 L174.22,153.97 Z M270.15,214.02 L280.05,215.81 L282.31,215.54 L270.15,214.02 Z M308.01,208.89 L320.15,203.60 L319.78,202.91 L308.01,208.89 Z M173.19,196.15 L171.36,200.90 L173.66,197.20 L173.19,196.15 Z M147.70,187.54 L145.64,186.59 L149.71,192.07 L147.70,187.54 Z M291.14,157.59 L292.89,158.56 L294.53,158.20 L291.14,157.59 Z M158.87,132.93 L155.88,120.16 L156.02,123.84 L158.87,132.93 Z M419.23,636.78 L421.57,636.04 L423.00,634.61 L419.23,636.78 Z M407.52,553.02 L412.82,548.61 L403.60,554.23 L407.52,553.02 Z M424.51,531.20 L422.43,532.50 L412.82,548.61 L424.51,531.20 Z M427.16,472.27 L426.43,468.87 L425.58,470.84 L427.16,472.27 Z M418.30,471.52 L418.30,471.52 L417.27,472.03 L418.30,471.52 Z M411.24,457.83 L410.17,457.62 L410.13,459.13 L411.24,457.83 Z M443.51,447.22 L445.30,448.71 L445.37,447.38 L443.51,447.22 Z M442.79,456.64 L435.91,458.67 L444.65,457.48 L442.79,456.64 Z M429.02,415.37 L416.84,410.36 L414.54,409.64 L429.02,415.37 Z M431.71,393.91 L431.71,393.91 L437.48,396.88 L431.71,393.91 Z M450.10,398.19 L451.68,405.59 L449.67,392.11 L450.10,398.19 Z M420.85,364.91 L412.54,377.32 L423.00,363.36 L420.85,364.91 Z M427.30,389.96 L432.61,384.00 L429.74,386.74 L427.30,389.96 Z M430.03,337.12 L428.88,338.91 L434.85,336.15 L430.03,337.12 Z M445.23,510.08 L446.95,513.30 L444.78,508.00 L445.23,510.08 Z M448.24,474.77 L444.37,478.35 L448.52,475.49 L445.89,467.75 L447.38,472.27 L448.24,474.77 Z M463.12,501.38 L463.12,501.38 L450.77,503.39 L451.68,503.28 L463.12,501.38 Z M455.69,453.42 L455.69,453.43 L456.33,453.19 L453.26,450.44 L455.69,453.42 Z M494.41,393.78 L493.30,393.61 L494.57,395.04 L494.41,393.78 Z M479.55,412.06 L479.55,412.06 L489.10,407.85 L495.56,402.72 L485.80,409.05 L479.55,412.06 Z M500.29,412.39 L501.66,412.45 L495.56,402.72 L500.29,412.39 Z M495.70,424.08 L492.11,420.14 L491.76,420.22 L495.70,424.08 Z M494.56,425.13 L501.92,422.84 L495.70,424.08 L494.56,425.13 Z M496.42,431.23 L497.26,430.70 L496.03,430.99 L496.42,431.23 Z M489.25,445.07 L498.42,445.07 L500.72,445.31 L494.12,444.59 L489.25,445.07 Z M499.82,452.18 L491.83,449.96 L499.82,452.18 L499.82,452.18 Z M500.00,463.44 L491.13,456.27 L491.54,457.95 L500.00,463.44 Z M477.70,449.61 L479.35,449.72 L483.22,449.96 L477.70,449.61 Z M485.52,453.90 L486.67,454.61 L487.43,453.07 L485.52,453.90 Z M479.06,411.25 L476.34,402.96 L476.48,407.02 L479.06,411.25 Z M482.94,440.54 L485.95,436.12 L491.23,428.23 L490.82,428.61 L485.52,436.60 L482.94,440.54 Z M487.81,424.79 L485.66,421.57 L482.79,417.40 L487.81,424.79 Z M503.30,488.61 L506.45,485.75 L508.89,483.48 L498.28,491.71 L500.91,490.90 L503.30,488.61 Z M513.05,483.60 L508.46,482.76 L496.99,486.70 L508.89,483.48 L513.05,483.60 Z M513.19,490.28 L514.56,489.05 L509.89,491.11 L511.89,491.11 L513.19,490.28 Z M518.64,493.62 L522.22,495.53 L527.53,498.15 L520.07,494.33 L513.19,490.28 L518.64,493.62 Z M516.35,495.77 L516.96,496.07 L518.64,493.62 L516.35,495.77 Z M530.83,493.02 L523.23,484.08 L523.37,485.15 L525.81,488.97 L530.83,493.02 Z M532.12,493.74 L543.02,497.55 L545.68,497.39 L530.83,493.02 L532.12,493.74 Z M538.71,504.47 L541.29,501.37 L543.02,497.55 L538.71,504.47 Z M531.54,505.67 L529.88,505.70 L534.27,505.67 L538.71,504.47 L531.54,505.67 Z M532.84,522.48 L555.06,523.44 L534.27,522.48 L516.63,520.70 L532.84,522.48 Z M564.15,547.07 L563.81,543.24 L555.06,523.44 L564.15,547.07 Z M517.78,514.61 L518.78,505.79 L518.64,505.79 L515.92,524.27 L516.63,520.70 L517.78,514.61 Z M520.93,499.11 L524.31,501.69 L521.22,498.15 L520.36,500.78 L518.78,505.79 L520.93,499.11 Z M514.63,505.79 L512.04,500.06 L507.46,494.34 L507.31,494.45 L501.00,498.75 L504.73,505.90 L503.61,505.96 L518.64,505.79 L514.63,505.79 Z M547.17,543.48 L539.68,540.01 L540.86,541.33 L547.17,543.48 Z M547.46,553.86 L544.45,549.56 L548.61,557.08 L547.46,553.86 Z M550.47,607.89 L567.68,609.92 L553.05,607.06 L549.33,606.69 L550.47,607.89 Z M568.13,611.38 L568.47,608.92 L567.68,609.92 L568.13,611.38 Z M533.98,611.23 L546.35,606.39 L544.59,606.22 L533.98,611.23 Z M492.11,506.50 L493.98,506.50 L495.14,506.36 L492.11,506.50 Z M482.81,510.51 L483.01,511.79 L488.39,507.93 L482.81,510.51 Z M513.31,494.56 L514.19,495.93 L514.48,492.90 L513.31,494.56 Z M551.82,376.05 L554.20,379.35 L553.77,376.48 L551.82,376.05 Z M523.23,408.81 L522.08,406.30 L524.52,418.47 L523.23,408.81 Z M544.59,423.96 L530.40,423.72 L526.67,428.61 L531.83,424.20 L544.59,423.96 Z M554.34,420.14 L556.00,418.29 L544.59,423.96 L554.34,420.14 Z M548.18,469.17 L568.97,461.17 L547.50,469.42 L550.89,473.39 L550.92,473.38 L548.18,469.17 Z M506.45,445.91 L509.61,445.79 L504.16,445.67 L506.45,445.91 Z M515.49,444.83 L527.82,445.67 L512.65,443.96 L509.61,445.79 L515.49,444.83 Z M527.82,447.22 L529.11,437.56 L527.96,442.33 L527.82,445.67 L527.82,447.22 Z M505.02,435.65 L504.73,430.40 L504.44,439.11 L504.16,445.67 L505.02,435.65 Z M507.89,456.52 L505.74,456.64 L520.65,458.91 L512.19,457.00 L508.32,456.64 L510.61,451.75 L507.89,456.52 Z M508.75,469.40 L506.92,471.03 L520.65,458.91 L508.75,469.40 Z M510.90,443.76 L509.75,441.01 L522.51,439.23 L508.86,440.95 L510.90,443.76 Z M509.61,427.18 L512.62,428.49 L513.72,428.07 L509.61,427.18 Z M517.19,428.83 L518.22,429.96 L518.35,429.09 L517.19,428.83 Z M505.95,410.83 L503.27,412.52 L511.18,412.86 L504.73,411.91 L505.95,410.83 Z M512.58,415.64 L512.76,415.37 L511.18,412.86 L512.58,415.64 Z M534.99,385.43 L537.42,382.21 L531.54,387.58 L534.99,385.43 Z M585.03,710.47 L596.59,709.77 L594.63,709.28 L585.03,710.47 Z M603.82,711.60 L606.67,712.70 L605.53,712.03 L603.82,711.60 Z M613.74,715.45 L616.29,716.44 L625.03,714.65 L613.74,715.45 Z M664.79,680.62 L665.47,681.61 L671.49,682.09 L664.79,680.62 Z M699.55,678.04 L701.17,677.19 L702.17,674.57 L699.55,678.04 Z M746.48,811.03 L755.51,809.00 L756.47,807.71 L730.56,814.37 L746.48,811.03 Z M750.35,795.40 L750.92,797.43 L754.33,798.82 L750.35,795.40 Z M760.52,779.95 L744.90,766.18 L759.10,779.54 L760.52,779.95 Z M870.06,808.24 L868.36,792.30 L867.38,790.37 L870.06,808.24 Z M870.22,827.97 L871.80,824.51 L871.66,823.19 L870.22,827.97 Z M869.22,864.59 L871.69,867.72 L865.63,849.92 L869.22,864.59 Z M717.78,801.15 L715.65,801.01 L709.66,805.33 L717.78,801.15 Z M723.68,803.75 L720.96,801.37 L719.37,801.26 L723.68,803.75 Z M849.31,689.96 L848.88,694.97 L850.29,692.22 L849.31,689.96 Z M701.65,685.47 L701.31,686.62 L704.04,687.81 L701.65,685.47 Z M610.12,609.08 L615.85,605.62 L605.39,609.68 L610.12,609.08 Z M613.25,423.40 L613.25,423.40 L611.41,425.27 L613.25,423.40 Z M620.76,436.55 L618.01,429.09 L615.90,426.56 L620.76,436.55 Z M653.57,423.84 L637.08,431.47 L640.37,430.99 L653.57,423.84 Z M658.73,428.61 L659.08,424.12 L659.01,424.32 L658.73,428.61 Z M663.89,416.68 L661.02,418.59 L660.48,420.14 L663.89,416.68 Z M704.90,424.08 L706.49,415.48 L706.04,416.56 L704.90,424.08 Z M708.17,411.37 L710.76,410.56 L706.76,409.52 L708.48,410.60 L708.17,411.37 Z M720.38,411.79 L730.99,406.06 L718.98,411.54 L720.38,411.79 Z M616.00,473.22 L613.56,470.36 L616.14,477.52 L616.00,473.22 Z M573.41,476.68 L585.89,487.06 L579.87,480.38 L573.41,476.68 Z M598.51,470.36 L605.96,470.36 L590.48,469.64 L598.51,470.36 Z M718.88,470.97 L717.19,471.76 L718.38,472.27 L718.88,470.97 Z M718.95,427.65 L718.27,427.12 L717.33,429.25 L718.95,427.65 Z M570.26,393.30 L567.82,395.09 L567.98,397.24 L570.26,393.30 Z M590.62,387.93 L587.61,390.92 L587.61,393.54 L590.62,387.93 Z M595.64,388.53 L597.67,388.45 L590.62,387.93 L595.64,388.53 Z M617.58,390.32 L617.25,388.91 L616.72,389.84 L609.94,389.35 L617.58,390.32 Z M607.97,403.68 L606.60,405.75 L610.55,400.10 L617.58,390.32 L607.97,403.68 Z M621.30,401.89 L613.67,402.95 L613.67,402.95 L621.30,401.89 Z M638.08,385.91 L635.21,395.33 L639.59,385.77 L638.08,385.91 Z M646.25,385.19 L643.34,385.45 L647.25,385.60 L646.25,385.19 Z M662.45,391.51 L660.59,388.77 L662.45,392.31 L662.45,391.51 Z M568.68,406.66 L580.11,409.83 L579.44,409.05 L568.68,406.66 Z M710.73,403.96 L710.26,404.88 L711.06,404.16 L710.73,403.96 Z M708.63,406.34 L707.76,405.95 L708.13,406.79 L708.63,406.34 Z M591.05,383.16 L590.95,384.23 L598.79,376.36 L591.05,383.16 Z M667.02,362.08 L659.30,368.97 L665.90,363.36 L667.02,362.08 Z M431.03,498.63 L427.88,498.51 L428.88,488.61 L434.76,490.40 L433.90,498.75 L431.03,498.63 Z M501.00,498.75 L504.01,497.32 L507.31,494.45 L510.18,498.03 L514.63,505.79 L504.73,505.90 L508.17,502.92 L504.73,504.71 L501.00,498.75 Z M507.19,501.60 L508.39,501.18 L504.01,497.32 L507.19,501.60 Z M508.75,501.06 L509.89,500.66 L510.18,498.03 L508.75,501.06 Z" /></g></svg>