<svg xmlns="http://www.w3.org/2000/svg" viewBox="0 0 1000 1000" width="1000" height="1000"><g fill="#cccccc" stroke="#222" stroke-width="2"><path d="M457.34,674.36 L456.10,671.31 L453.10,668.39 L451.35,668.04 L448.01,663.59 L449.54,659.56 L449.14,654.28 L447.67,651.64 L448.35,649.76 L450.27,648.16 L448.69,644.48 L448.69,641.91 L446.43,639.20 L447.45,633.85 L444.79,623.35 L447.22,618.77 L445.98,611.89 L446.49,610.01 L447.84,609.66 L447.28,605.77 L452.42,603.06 L454.63,600.00 L455.76,590.27 L457.46,585.48 L463.45,586.52 L466.28,585.20 L473.51,585.83 L474.53,586.80 L475.49,584.85 L478.04,583.39 L479.05,580.20 L478.94,576.79 L476.06,572.62 L476.45,569.50 L473.57,567.48 L472.61,557.40 L469.33,554.00 L467.86,544.55 L462.60,540.10 L460.17,539.26 L458.98,540.38 L456.95,539.33 L454.80,540.17 L450.33,538.22 L448.52,540.38 L442.36,536.97 L439.99,532.80 L438.12,532.18 L436.31,533.01 L432.41,529.61 L429.64,530.58 L425.06,527.94 L421.89,530.09 L420.08,529.19 L417.31,530.99 L409.00,532.87 L404.82,533.57 L401.26,532.25 L398.88,533.77 L399.33,530.58 L396.51,526.55 L394.70,525.92 L392.89,527.45 L392.66,525.44 L387.57,523.77 L382.37,518.49 L374.34,519.32 L371.74,515.98 L372.54,513.62 L371.91,511.74 L361.85,504.93 L359.42,501.88 L353.09,502.71 L350.94,492.63 L348.96,490.20 L341.04,493.05 L338.78,492.36 L336.13,493.54 L331.77,493.05 L329.17,492.01 L327.31,487.84 L326.23,486.87 L324.25,488.19 L323.06,487.28 L322.27,484.02 L325.16,482.70 L324.93,480.96 L326.97,479.36 L327.02,476.72 L325.89,474.77 L329.91,471.02 L331.09,466.99 L335.56,460.18 L342.63,454.69 L343.31,452.67 L347.83,451.77 L350.09,450.10 L352.46,445.38 L356.99,442.25 L357.55,441.07 L356.93,438.15 L358.85,430.50 L361.85,429.11 L361.17,426.82 L361.74,425.50 L371.18,418.13 L368.63,420.01 L366.32,419.73 L368.52,419.11 L366.43,417.65 L357.50,416.54 L352.18,415.70 L350.15,412.30 L350.26,407.22 L345.96,405.28 L343.53,400.97 L335.45,397.36 L330.87,391.24 L330.81,389.15 L328.61,386.93 L328.94,383.73 L332.51,382.14 L332.22,377.20 L331.43,375.12 L327.42,376.58 L326.79,375.75 L326.06,376.92 L322.05,377.27 L319.50,380.40 L314.25,382.69 L308.20,382.55 L305.88,385.19 L303.96,385.47 L301.86,383.80 L298.98,385.68 L293.21,385.75 L289.99,382.07 L283.60,381.58 L279.30,376.44 L276.14,376.51 L272.41,373.45 L272.18,370.25 L270.15,366.01 L267.54,365.25 L260.42,359.90 L258.84,357.74 L257.54,357.53 L256.24,354.75 L254.03,353.92 L251.60,351.07 L246.97,349.82 L244.99,347.18 L240.86,345.79 L239.05,346.83 L235.21,345.44 L231.36,346.90 L221.58,344.19 L215.08,345.44 L213.27,344.68 L211.46,341.97 L208.52,342.25 L206.14,340.86 L203.83,337.45 L194.61,333.56 L189.97,334.81 L185.28,333.49 L184.21,326.68 L179.91,322.72 L175.73,323.13 L171.09,321.81 L164.36,325.50 L163.23,325.29 L161.65,322.65 L154.47,316.46 L153.51,314.79 L153.00,308.54 L151.76,307.15 L152.94,301.17 L152.32,294.02 L154.64,293.32 L153.56,290.26 L155.20,289.08 L156.22,281.51 L158.99,279.84 L158.48,278.17 L157.18,278.38 L157.97,276.02 L156.28,276.36 L155.09,271.15 L155.88,267.33 L157.24,266.43 L156.73,264.06 L158.14,262.19 L156.73,257.39 L157.30,255.24 L156.73,252.74 L158.48,248.57 L157.47,244.26 L155.15,243.56 L155.03,238.56 L156.73,232.72 L158.26,230.50 L161.99,229.94 L163.68,227.99 L167.08,227.23 L169.06,225.56 L171.54,225.35 L174.54,223.13 L172.90,221.11 L177.42,220.70 L179.18,218.47 L182.23,217.64 L183.64,215.69 L185.40,215.69 L190.26,209.79 L193.31,209.23 L194.05,204.92 L203.20,207.98 L208.46,207.42 L210.33,208.40 L211.06,207.77 L213.95,201.38 L208.75,199.15 L204.39,192.41 L201.06,185.05 L196.87,183.38 L194.95,176.85 L187.60,171.84 L183.93,170.52 L182.51,166.28 L183.08,163.99 L186.24,162.04 L187.25,160.71 L184.15,157.67 L179.69,158.29 L180.36,154.96 L175.95,155.30 L170.24,159.61 L168.66,159.68 L167.64,161.28 L165.89,161.28 L160.69,164.27 L157.30,168.72 L158.14,171.08 L153.17,174.55 L153.68,176.57 L156.45,178.03 L156.22,182.61 L153.85,188.59 L151.13,191.58 L144.86,195.26 L137.73,195.26 L133.72,196.65 L131.85,195.47 L126.60,195.26 L121.06,197.35 L118.74,199.71 L113.99,200.89 L107.83,197.69 L110.14,194.85 L107.88,197.28 L104.94,198.04 L105.34,204.30 L104.60,208.88 L102.91,212.01 L98.55,214.23 L96.86,216.88 L87.36,218.54 L84.81,222.71 L75.15,228.62 L71.98,228.69 L70.40,225.91 L68.59,227.09 L65.65,226.47 L63.33,224.80 L62.76,222.23 L59.60,220.98 L59.09,222.71 L56.72,222.57 L54.96,224.03 L48.07,221.74 L44.90,223.34 L38.96,218.06 L36.76,212.08 L37.32,210.00 L35.80,204.64 L36.14,198.74 L41.73,188.66 L46.82,192.41 L41.62,188.38 L39.02,189.08 L35.57,185.39 L32.29,183.66 L28.50,179.14 L25.00,177.12 L20.30,177.89 L20.59,175.80 L22.17,174.07 L22.00,168.09 L19.23,160.45 L22.17,155.51 L25.79,154.12 L27.88,153.29 L28.50,151.27 L28.05,149.53 L25.90,147.87 L26.02,145.92 L41.96,144.95 L52.87,135.91 L54.51,131.47 L58.24,132.93 L65.08,129.38 L75.99,125.77 L76.56,124.03 L79.61,121.94 L82.16,115.27 L84.93,112.70 L85.78,109.23 L87.81,107.21 L90.75,106.45 L93.52,107.49 L98.61,103.39 L103.25,104.29 L105.51,98.94 L103.30,94.70 L104.72,91.16 L104.55,89.35 L107.26,85.74 L109.13,84.97 L109.47,82.33 L110.43,81.71 L109.86,77.68 L111.90,75.38 L113.54,69.41 L114.44,68.71 L116.48,69.27 L117.95,67.18 L121.28,66.49 L122.58,63.78 L125.07,62.73 L133.61,63.57 L138.24,60.86 L147.12,63.71 L147.68,66.49 L147.57,64.12 L154.36,53.21 L161.76,49.81 L161.88,47.38 L164.48,44.39 L164.93,37.58 L168.15,29.93 L172.11,34.87 L173.97,39.04 L177.99,42.03 L181.49,48.28 L181.61,50.99 L186.70,51.82 L194.44,60.09 L195.06,67.46 L193.88,70.17 L199.19,69.41 L200.66,64.54 L202.36,65.58 L207.56,65.45 L211.57,63.71 L215.93,65.31 L215.59,69.75 L218.47,75.73 L226.33,85.60 L232.83,83.72 L237.30,78.51 L240.35,79.90 L241.48,84.07 L243.57,85.32 L248.15,84.56 L247.42,81.92 L248.60,79.41 L256.97,80.11 L259.80,78.58 L259.97,73.16 L258.56,68.50 L259.57,64.61 L257.54,59.89 L257.82,54.81 L259.40,55.09 L261.61,53.42 L261.27,51.62 L263.53,50.43 L264.04,48.00 L263.13,47.24 L264.83,44.87 L266.58,47.31 L270.77,40.70 L278.40,37.51 L281.17,34.38 L285.75,31.88 L289.37,23.89 L292.93,25.42 L297.00,25.14 L304.01,23.19 L307.18,20.69 L311.53,20.06 L313.17,19.23 L316.90,19.72 L326.00,26.11 L333.98,34.10 L342.51,36.95 L344.49,39.04 L349.81,47.93 L351.50,52.87 L350.32,57.87 L351.73,62.39 L355.40,65.17 L358.57,71.35 L363.43,73.58 L363.83,78.65 L361.17,84.70 L362.13,86.36 L363.72,86.85 L365.02,84.07 L368.41,85.11 L368.86,83.79 L370.56,83.44 L371.86,85.04 L377.96,87.48 L385.99,96.58 L389.84,95.75 L392.32,96.86 L395.83,95.75 L398.35,98.17 L399.96,96.23 L402.44,95.12 L403.24,88.66 L408.32,85.95 L412.62,85.67 L416.92,83.24 L420.14,84.00 L424.27,88.10 L425.40,91.09 L432.35,86.57 L433.37,90.60 L435.52,93.31 L440.04,94.22 L442.30,95.54 L442.70,97.20 L446.15,98.18 L452.37,107.07 L459.04,107.63 L460.68,110.83 L463.90,113.19 L464.81,117.71 L464.07,121.32 L468.71,127.09 L473.29,126.18 L476.57,122.71 L480.24,125.77 L486.29,124.79 L488.78,125.84 L492.73,128.48 L494.49,131.40 L503.19,135.36 L502.86,139.46 L505.85,141.82 L508.28,142.24 L508.28,143.56 L510.77,145.85 L509.98,148.49 L507.94,151.83 L508.74,154.47 L510.09,154.47 L510.60,155.86 L520.72,161.63 L521.51,166.14 L520.89,168.09 L523.55,168.85 L520.04,181.50 L518.59,183.32 L525.02,186.99 L526.71,187.06 L528.92,185.26 L531.12,189.29 L540.28,195.75 L542.66,195.75 L543.68,192.34 L555.44,204.44 L556.85,203.74 L558.71,205.62 L560.13,205.34 L566.06,209.51 L567.87,213.54 L572.17,214.44 L574.49,212.78 L580.09,214.93 L581.22,217.36 L586.70,218.61 L590.71,222.02 L598.74,224.17 L602.14,226.12 L604.11,225.49 L610.79,222.30 L613.95,218.68 L615.87,219.24 L619.38,217.92 L630.07,222.23 L632.89,224.31 L641.94,224.31 L646.46,227.93 L657.37,234.60 L667.95,234.67 L669.42,228.90 L672.02,226.74 L678.18,229.32 L680.84,240.57 L683.38,244.33 L682.65,252.39 L685.64,257.18 L687.90,256.07 L690.39,257.67 L691.92,259.48 L691.30,261.56 L690.73,264.48 L692.48,265.52 L695.20,263.79 L699.89,268.30 L704.02,268.37 L708.20,266.84 L711.65,268.30 L718.04,278.73 L717.70,281.65 L718.94,284.15 L723.47,289.15 L731.72,292.14 L734.77,292.00 L740.54,295.34 L751.45,308.68 L751.79,309.58 L750.77,310.90 L751.40,312.50 L756.43,313.68 L756.26,316.95 L757.78,319.24 L759.82,322.58 L764.79,324.59 L765.87,328.55 L764.29,331.27 L768.81,333.56 L777.35,340.30 L780.80,343.84 L785.60,346.48 L786.73,349.54 L789.56,350.24 L792.16,354.82 L790.75,356.54 L791.31,356.35 L801.21,360.73 L808.22,362.61 L809.86,362.12 L811.83,365.53 L821.05,366.92 L822.52,369.07 L828.97,373.52 L829.42,375.05 L833.71,376.78 L835.13,378.38 L842.65,380.05 L845.42,386.10 L849.77,386.31 L854.58,388.88 L859.10,392.70 L864.81,399.02 L867.02,399.93 L869.05,399.23 L872.67,402.01 L876.63,401.94 L883.52,408.27 L886.46,411.12 L887.71,412.23 L890.99,411.60 L893.14,412.92 L893.70,414.59 L895.40,415.01 L898.34,422.10 L904.84,427.86 L907.89,433.21 L910.78,433.56 L915.07,438.84 L921.91,439.19 L928.08,437.59 L933.67,437.32 L934.24,438.71 L936.39,437.80 L945.55,439.96 L947.75,443.29 L951.03,444.06 L956.23,442.81 L957.93,443.50 L960.25,442.11 L978.45,438.71 L980.77,441.42 L979.41,449.41 L975.23,459.14 L973.70,451.42 L975.12,462.75 L972.51,472.41 L972.01,473.52 L967.82,481.65 L964.37,484.16 L959.17,475.61 L958.04,474.43 L963.92,484.29 L957.19,484.99 L954.42,487.84 L952.27,492.43 L951.43,497.57 L952.44,512.93 L951.20,512.51 L948.88,514.94 L945.32,515.84 L941.98,519.39 L940.06,519.74 L939.27,519.88 L937.97,521.13 L932.83,521.40 L919.60,530.44 L920.50,526.96 L919.09,531.34 L913.89,536.69 L911.34,541.21 L910.21,545.80 L909.42,556.22 L908.46,556.85 L909.36,558.24 L909.59,562.27 L903.54,562.41 L907.78,562.89 L918.29,561.02 L911.79,569.84 L904.33,586.17 L903.09,590.27 L901.45,596.67 L899.35,607.86 L898.79,614.39 L899.69,622.52 L901.05,625.30 L903.26,627.11 L902.69,628.57 L899.19,630.79 L900.03,633.99 L900.77,636.63 L887.65,657.69 L884.49,663.87 L882.28,669.01 L880.36,677.49 L878.78,679.02 L874.65,677.91 L873.18,676.59 L873.01,674.22 L869.50,673.11 L864.64,676.45 L860.00,683.40 L856.73,689.17 L854.35,694.45 L850.90,703.48 L849.71,706.82 L842.82,731.98 L840.27,744.42 L839.65,747.40 L835.52,776.59 L832.36,782.57 L833.66,785.83 L831.34,795.77 L830.21,805.64 L829.08,819.12 L828.74,840.74 L829.30,860.75 L830.49,873.19 L831.11,877.57 L832.87,881.11 L832.41,883.41 L831.96,884.59 L830.94,884.45 L827.66,881.11 L824.22,883.48 L821.45,889.52 L820.54,896.54 L821.16,897.72 L818.68,900.92 L817.04,900.57 L817.43,898.56 L816.13,902.52 L816.24,907.10 L818.11,922.25 L823.93,940.81 L826.65,945.33 L830.15,948.87 L832.53,949.77 L832.92,950.82 L831.74,951.93 L832.64,952.00 L833.26,954.29 L835.07,960.13 L833.49,960.89 L836.20,961.38 L835.52,964.85 L832.92,965.62 L829.76,971.32 L827.83,980.77 L825.40,970.14 L819.30,973.33 L806.80,977.02 L805.22,976.46 L804.26,973.26 L802.51,972.78 L799.74,966.80 L798.38,967.91 L797.70,970.41 L796.17,969.93 L791.88,960.69 L791.93,955.19 L788.94,958.95 L787.35,958.53 L785.26,961.45 L782.21,962.07 L782.55,963.33 L777.06,967.43 L776.72,969.37 L774.58,970.07 L773.33,969.09 L764.79,968.61 L763.04,971.46 L759.03,968.40 L757.28,964.16 L754.39,960.69 L755.30,957.14 L754.84,955.89 L748.12,961.87 L747.61,958.25 L750.09,943.59 L747.32,942.06 L744.78,942.76 L743.14,941.92 L741.95,939.21 L741.61,934.55 L735.62,934.42 L735.96,931.91 L734.26,929.90 L733.64,925.52 L729.68,925.66 L728.44,919.61 L727.42,915.30 L723.18,914.19 L719.28,918.50 L718.94,922.12 L717.02,923.92 L711.71,921.84 L710.12,923.16 L706.17,922.32 L701.30,914.54 L702.09,911.90 L701.64,908.22 L699.21,904.81 L692.82,899.81 L689.43,892.16 L683.55,883.27 L678.57,875.48 L677.27,863.81 L675.13,863.11 L669.08,857.35 L667.27,857.14 L665.40,859.29 L662.74,857.76 L653.47,860.06 L652.79,862.00 L650.93,862.91 L650.53,866.45 L646.74,867.56 L643.01,867.42 L637.81,863.32 L634.08,864.64 L628.99,871.87 L624.19,873.47 L623.11,872.01 L618.87,866.10 L618.64,864.43 L616.72,864.92 L615.03,863.60 L608.81,863.25 L607.22,860.54 L605.08,861.52 L600.50,868.05 L592.92,863.60 L592.58,860.40 L593.82,856.23 L591.51,852.13 L585.46,840.74 L580.88,833.79 L575.68,828.09 L577.71,824.82 L578.56,821.00 L576.86,813.29 L573.81,810.16 L574.77,806.20 L574.09,803.63 L571.27,802.31 L567.48,803.00 L566.23,804.67 L564.42,810.99 L562.16,810.16 L561.71,808.91 L560.58,810.64 L561.20,811.90 L559.79,813.77 L561.20,813.77 L560.24,815.16 L560.81,816.69 L558.38,816.34 L558.38,818.15 L556.68,819.33 L557.07,820.17 L555.89,822.11 L556.45,824.27 L555.10,824.47 L556.11,825.86 L553.63,826.77 L553.74,828.37 L551.14,828.57 L549.78,829.96 L549.50,832.26 L547.01,833.51 L548.09,836.29 L547.12,837.40 L546.95,839.97 L543.11,840.81 L542.38,843.72 L540.62,842.47 L541.41,845.95 L540.00,846.92 L539.44,846.23 L539.55,849.42 L538.70,849.28 L538.81,846.43 L537.23,845.04 L536.33,838.58 L532.25,836.84 L529.31,837.68 L531.01,829.83 L526.04,827.11 L526.32,825.10 L529.88,818.15 L527.96,820.72 L527.56,819.33 L525.13,818.08 L525.19,814.88 L523.72,811.96 L526.32,806.41 L526.21,802.10 L527.28,799.94 L525.81,793.97 L527.62,790.35 L531.46,788.41 L531.92,781.46 L529.99,778.26 L530.39,775.34 L528.98,772.35 L526.77,771.03 L529.26,769.78 L531.80,766.72 L531.97,760.68 L529.26,758.45 L524.74,758.04 L526.43,755.47 L525.75,754.70 L523.04,751.50 L523.21,746.29 L520.27,742.89 L520.10,736.35 L518.29,735.45 L517.55,732.67 L511.62,723.71 L509.36,723.64 L507.10,725.58 L507.15,728.99 L505.46,731.98 L500.88,729.33 L499.01,729.47 L498.67,728.85 L494.71,725.23 L490.98,719.19 L478.60,711.06 L475.26,707.10 L468.25,707.44 L464.92,703.62 L465.82,694.31 L463.39,693.96 L461.87,690.70 L459.21,688.33 L459.94,686.04 L463.62,682.08 L464.41,677.91 L459.77,676.87 L457.34,674.36 Z M612.20,239.39 L613.23,240.32 L604.11,225.49 L612.20,239.39 Z M942.61,486.17 L937.97,479.85 L941.81,485.20 L951.43,497.57 L942.61,486.17 Z M933.70,478.27 L935.71,479.50 L937.97,479.85 L933.70,478.27 Z M896.98,634.96 L885.79,639.34 L900.03,633.99 L896.98,634.96 Z M815.83,894.75 L816.13,896.26 L817.43,898.56 L815.83,894.75 Z M719.17,339.67 L723.75,335.50 L722.67,336.34 L719.17,339.67 Z M719.45,343.22 L719.04,343.34 L720.04,344.23 L719.17,339.67 L719.45,343.22 Z M737.43,350.45 L738.97,350.49 L733.98,348.36 L737.43,350.45 Z M753.88,371.09 L754.22,369.07 L753.83,367.40 L753.88,371.09 Z M736.00,368.89 L736.41,370.49 L736.75,369.77 L741.22,371.23 L736.00,368.89 Z M734.38,389.15 L734.89,391.66 L734.04,387.21 L734.38,389.15 Z M730.82,402.08 L733.76,393.32 L733.76,391.41 L730.82,402.08 Z M726.79,406.39 L726.63,407.99 L726.97,406.81 L726.79,406.39 Z M735.07,424.30 L735.73,424.11 L736.13,423.29 L735.07,424.30 Z M740.60,451.42 L747.49,446.98 L742.41,449.96 L740.60,451.42 Z M729.91,457.88 L730.48,457.47 L730.71,456.30 L729.91,457.88 Z M734.09,477.34 L735.23,479.99 L735.74,480.06 L732.51,472.90 L734.09,477.34 Z M736.30,504.03 L736.98,502.92 L735.56,504.80 L736.30,504.03 Z M741.11,506.88 L740.31,506.39 L738.62,506.67 L741.11,506.88 Z M741.28,508.69 L741.36,508.57 L741.26,508.53 L741.28,508.69 Z M739.72,524.79 L740.71,524.18 L739.80,524.70 L739.72,524.79 Z M737.32,541.98 L736.64,543.23 L738.22,542.11 L737.32,541.98 Z M737.27,546.84 L737.32,546.84 L737.60,544.82 L737.27,546.84 Z M743.71,554.97 L743.20,553.65 L742.01,551.15 L743.71,554.97 Z M743.64,552.85 L743.48,549.69 L743.20,553.65 L743.64,552.85 Z M736.98,555.74 L736.19,561.43 L736.24,562.89 L736.70,559.00 L736.98,555.74 Z M742.97,567.69 L747.21,569.22 L741.74,566.81 L742.97,567.69 Z M743.65,576.65 L743.89,576.91 L742.41,573.04 L743.65,576.65 Z M742.27,578.15 L742.75,577.97 L742.52,576.65 L742.27,578.15 Z M740.31,589.86 L740.60,584.51 L740.00,583.88 L740.31,589.86 Z M740.27,591.00 L740.61,589.75 L740.31,589.86 L740.27,591.00 Z M737.83,595.28 L738.45,596.25 L738.28,593.89 L737.83,595.28 Z M729.58,600.74 L729.58,600.74 L738.45,596.25 L729.58,600.74 Z M731.38,605.56 L730.87,602.51 L729.66,600.95 L731.38,605.56 Z M730.02,614.06 L730.19,614.73 L733.36,613.28 L730.02,614.06 Z M729.63,625.23 L730.48,621.34 L731.10,618.35 L729.63,625.23 Z M742.07,629.19 L742.59,628.80 L741.61,629.16 L742.07,629.19 Z M748.06,627.66 L746.25,627.45 L746.00,627.55 L748.06,627.66 Z M750.48,628.96 L752.07,628.29 L750.60,628.71 L750.48,628.96 Z M772.72,641.93 L773.33,641.91 L773.90,640.66 L772.72,641.93 Z M774.33,643.34 L774.33,643.34 L773.33,641.91 L774.33,643.34 Z M767.62,657.82 L768.31,657.50 L767.84,657.43 L767.62,657.82 Z M775.82,698.83 L775.88,704.87 L775.99,702.23 L775.82,698.83 Z M769.37,708.28 L766.89,711.20 L768.30,709.67 L769.37,708.28 Z M756.94,710.78 L763.55,711.13 L766.89,711.20 L756.94,710.78 Z M775.76,727.67 L776.65,724.75 L775.99,726.00 L775.76,727.67 Z M776.55,728.92 L776.91,728.48 L775.76,727.67 L776.55,728.92 Z M776.67,734.20 L779.51,732.54 L778.53,732.46 L778.52,732.34 L776.67,734.20 Z M777.14,744.13 L777.52,743.58 L776.93,743.30 L777.14,744.13 Z M773.90,747.20 L775.65,746.29 L776.13,745.59 L773.90,747.20 Z M777.97,750.25 L778.70,751.09 L775.65,746.29 L777.97,750.25 Z M774.12,765.89 L774.12,763.80 L774.07,763.41 L774.12,765.89 Z M788.09,783.47 L788.48,784.44 L788.28,781.86 L788.09,783.47 Z M781.08,788.13 L781.64,786.74 L781.19,784.44 L781.08,788.13 Z M788.60,810.44 L789.29,810.05 L782.94,811.55 L788.60,810.44 Z M770.67,838.86 L772.31,837.26 L775.25,831.77 L770.67,838.86 Z M764.12,852.62 L764.63,850.12 L764.34,847.27 L764.12,852.62 Z M760.84,887.92 L777.23,882.36 L772.43,883.89 L760.84,887.92 Z M777.52,883.11 L777.65,882.83 L777.23,882.36 L777.52,883.11 Z M772.60,904.19 L775.19,906.44 L774.69,905.58 L772.60,904.19 Z M759.85,908.70 L761.01,911.90 L760.55,909.54 L759.85,908.70 Z M782.32,931.98 L781.13,934.97 L782.32,932.68 L785.77,930.32 L782.32,931.98 Z M789.22,952.07 L789.16,948.94 L788.37,946.72 L789.22,952.07 Z M656.61,261.45 L654.68,261.33 L655.85,261.98 L656.61,261.45 Z M640.86,307.29 L643.92,304.30 L638.66,308.68 L640.86,307.29 Z M632.67,307.22 L634.59,307.71 L638.66,308.68 L632.67,307.22 Z M626.45,353.92 L632.50,346.55 L626.01,353.93 L626.45,353.92 Z M640.16,373.40 L639.30,373.70 L639.62,373.80 L640.16,373.40 Z M642.73,368.03 L641.53,372.37 L642.05,371.99 L642.73,368.03 Z M652.85,369.63 L651.55,371.50 L648.33,378.11 L652.85,369.63 Z M637.13,402.43 L637.83,403.12 L633.17,395.90 L632.58,395.34 L637.13,402.43 Z M626.54,420.09 L625.37,419.45 L626.50,420.84 L626.54,420.09 Z M626.90,420.29 L626.57,420.11 L626.62,424.04 L626.90,420.29 Z M630.63,462.97 L632.33,459.55 L632.40,458.52 L630.69,462.33 L630.63,462.97 Z M636.74,465.39 L633.29,460.80 L632.33,459.55 L636.74,465.39 Z M633.63,464.63 L630.57,463.73 L630.52,464.28 L633.63,464.63 Z M643.41,492.43 L644.20,491.66 L640.19,493.88 L643.41,492.43 Z M639.68,492.77 L639.80,494.59 L640.19,493.88 L639.68,492.77 Z M634.61,493.80 L636.85,494.02 L635.66,493.26 L634.61,493.80 Z M633.34,510.29 L633.30,509.92 L632.72,510.63 L633.34,510.29 Z M634.34,521.34 L638.66,516.61 L634.42,521.13 L634.34,521.34 Z M633.17,526.13 L633.73,523.07 L631.31,529.88 L633.17,526.13 Z M627.46,531.48 L625.99,532.38 L631.31,529.88 L627.46,531.48 Z M625.66,574.15 L626.56,569.50 L626.16,570.75 L625.66,574.15 Z M625.12,596.70 L625.60,588.33 L624.86,596.18 L625.12,596.70 Z M649.72,595.32 L647.42,599.80 L649.68,595.63 L649.72,595.32 Z M676.02,603.00 L674.37,604.22 L675.80,603.69 L676.02,603.00 Z M687.28,601.46 L684.28,599.31 L687.39,601.87 L687.28,601.46 Z M701.02,631.28 L695.65,629.89 L687.62,628.29 L701.02,631.28 Z M685.02,633.85 L684.17,635.79 L687.62,628.29 L685.02,633.85 Z M693.71,665.11 L691.57,660.18 L691.47,661.37 L693.71,665.11 Z M696.89,668.32 L694.15,665.86 L695.25,667.69 L696.89,668.32 Z M690.22,690.00 L690.41,689.30 L683.78,692.43 L690.22,690.00 Z M697.91,716.62 L696.99,715.97 L702.09,722.11 L697.91,716.62 Z M710.97,731.49 L704.98,725.17 L707.75,728.50 L710.97,731.49 Z M703.17,742.05 L702.38,743.86 L704.71,741.31 L703.17,742.05 Z M705.77,740.80 L705.08,741.13 L707.47,741.91 L705.77,740.80 Z M707.58,744.42 L707.86,741.85 L707.47,741.91 L707.58,744.42 Z M705.52,758.07 L705.65,756.34 L705.49,756.99 L705.52,758.07 Z M692.31,801.33 L691.24,798.20 L692.48,804.95 L692.31,801.33 Z M692.65,808.77 L692.59,807.44 L691.01,811.69 L692.65,808.77 Z M518.53,183.40 L516.88,185.46 L514.90,190.40 L518.53,183.40 Z M512.78,196.72 L506.81,202.00 L512.75,197.21 L512.78,196.72 Z M517.67,238.77 L513.99,243.49 L518.20,238.37 L517.67,238.77 Z M528.41,235.29 L532.16,230.03 L531.41,230.15 L528.41,235.29 Z M536.66,229.32 L535.48,231.47 L539.60,226.33 L536.66,229.32 Z M508.68,272.61 L508.06,272.21 L509.19,274.70 L508.68,272.61 Z M529.37,301.45 L532.59,304.72 L535.48,306.87 L529.37,301.45 Z M537.00,306.25 L539.32,303.26 L535.48,306.87 L537.00,306.25 Z M526.04,311.64 L525.70,311.88 L525.57,312.88 L526.04,311.64 Z M525.20,315.68 L525.02,317.09 L525.58,320.28 L525.20,315.68 Z M516.31,343.01 L531.71,365.04 L530.62,362.54 L516.31,343.01 Z M533.39,368.86 L533.39,379.98 L533.50,372.48 L533.39,368.86 Z M526.49,403.30 L528.81,397.36 L527.68,399.86 L526.37,402.57 L526.49,403.30 Z M526.87,405.67 L526.88,405.76 L526.93,405.85 L526.87,405.67 Z M532.76,428.63 L531.35,433.49 L531.86,432.38 L532.76,428.63 Z M530.16,432.80 L529.77,432.05 L529.51,434.41 L530.16,432.80 Z M534.23,466.50 L530.43,475.31 L531.52,473.94 L534.23,466.50 Z M526.26,480.54 L526.71,479.98 L525.44,481.35 L527.73,480.54 L526.26,480.54 Z M525.44,625.40 L523.55,623.08 L525.92,626.97 L525.44,625.40 Z M534.18,681.04 L534.89,686.49 L535.08,685.76 L534.18,681.04 Z M533.90,690.36 L532.93,692.36 L532.37,696.32 L533.90,690.36 Z M526.15,702.09 L523.83,704.87 L532.37,696.32 L526.15,702.09 Z M587.89,714.81 L588.93,711.31 L588.28,712.24 L587.89,714.81 Z M599.25,715.99 L597.16,717.52 L601.80,714.18 L599.25,715.99 Z M626.90,724.05 L631.03,723.29 L628.48,723.15 L626.90,724.05 Z M635.61,800.29 L634.76,803.28 L635.61,802.03 L635.61,800.29 Z M617.97,832.67 L609.54,840.46 L612.26,838.30 L617.97,832.67 Z M259.97,199.99 L252.56,200.47 L252.37,200.92 L259.97,199.99 Z M261.33,201.41 L261.10,200.47 L259.97,199.99 L261.33,201.41 Z M261.59,204.39 L261.83,203.46 L261.73,203.02 L261.59,204.39 Z M265.91,242.52 L274.56,234.67 L269.18,239.18 L265.91,242.52 Z M343.31,217.78 L342.46,212.98 L342.08,212.64 L343.31,217.78 Z M378.42,244.74 L378.74,244.12 L373.89,245.72 L378.42,244.74 Z M393.08,243.21 L391.65,242.73 L380.06,241.55 L393.08,243.21 Z M420.31,225.56 L422.12,225.20 L417.54,224.80 L420.31,225.56 Z M432.30,229.38 L435.24,226.67 L431.32,229.70 L432.30,229.38 Z M442.59,253.15 L443.32,246.20 L443.49,243.42 L442.59,253.15 Z M486.93,255.05 L486.56,252.79 L486.63,254.47 L486.93,255.05 Z M495.53,234.94 L499.01,238.35 L496.18,235.57 L496.31,234.94 L495.53,234.94 Z M240.35,334.25 L240.27,334.64 L240.60,334.38 L240.35,334.25 Z M347.43,305.13 L354.90,308.89 L358.34,309.58 L347.43,305.13 Z M342.53,300.58 L342.46,300.62 L347.43,305.13 L342.53,300.58 Z M364.68,313.20 L363.08,312.85 L366.20,315.00 L364.68,313.20 Z M380.45,348.43 L377.51,338.21 L381.47,352.11 L380.45,348.43 Z M378.70,368.38 L381.19,356.56 L381.47,352.11 L378.70,368.38 Z M431.00,331.33 L428.15,333.21 L430.37,332.17 L431.00,331.33 Z M469.95,374.77 L473.23,373.17 L468.20,375.05 L469.95,374.77 Z M499.03,374.84 L496.94,375.79 L497.99,375.74 L499.03,374.84 Z M501.84,331.06 L504.16,336.89 L506.25,339.65 L501.84,331.06 Z M510.88,342.66 L507.73,341.61 L508.11,342.11 L510.88,342.66 Z M519.60,405.32 L520.21,405.35 L520.16,404.69 L519.60,405.32 Z M519.93,401.53 L522.71,398.28 L522.25,398.33 L519.93,401.53 Z M525.05,398.04 L526.61,398.33 L526.32,397.91 L525.05,398.04 Z M485.49,518.25 L485.05,517.93 L484.93,521.20 L485.49,518.25 Z M486.95,519.34 L485.94,518.59 L486.52,520.36 L486.52,519.53 L486.95,519.34 Z M471.65,678.67 L469.44,678.44 L475.40,679.97 L471.65,678.67 Z M478.49,681.04 L477.29,680.62 L481.65,683.40 L478.49,681.04 Z M471.70,476.86 L475.89,478.87 L476.73,478.88 L471.70,476.86 Z M529.60,431.74 L529.43,431.41 L527.56,433.49 L529.60,431.74 Z M458.53,378.66 L459.23,379.08 L458.68,377.94 L458.53,378.66 Z M519.02,383.18 L519.99,385.89 L519.27,383.12 L519.02,383.18 Z M461.35,383.07 L457.46,391.87 L461.24,384.71 L461.35,383.07 Z M322.22,363.65 L324.48,371.43 L325.36,373.08 L322.22,363.65 Z M460.11,286.23 L459.89,285.33 L459.37,284.87 L460.11,286.23 Z M473.00,312.92 L476.40,317.02 L468.59,307.01 L473.00,312.92 Z M180.68,320.00 L182.59,318.70 L180.93,319.10 L180.68,320.00 Z M209.03,289.92 L210.77,287.68 L210.55,287.83 L209.03,289.92 Z M267.95,249.25 L270.25,249.21 L268.45,248.64 L267.95,249.25 Z M306.33,270.32 L312.21,276.64 L311.02,275.11 L306.33,270.32 Z M341.21,257.04 L345.57,256.35 L347.21,255.17 L341.21,257.04 Z M330.87,295.13 L328.72,291.72 L330.85,295.62 L330.87,295.13 Z M343.19,300.20 L344.38,300.20 L345.51,298.88 L343.19,300.20 Z M290.50,303.95 L291.12,303.21 L279.98,306.32 L290.50,303.95 Z M242.95,331.54 L237.13,331.06 L236.40,331.48 L242.95,331.54 Z M235.12,332.22 L234.24,332.72 L233.00,334.88 L235.12,332.22 Z M232.94,337.87 L233.04,338.19 L233.00,334.88 L232.94,337.87 Z M422.46,280.05 L420.91,277.20 L420.59,277.61 L422.46,280.05 Z M428.56,273.38 L421.78,276.09 L421.33,276.66 L428.56,273.38 Z M454.46,280.59 L447.17,274.21 L450.78,278.03 L454.46,280.59 Z M289.26,146.06 L285.17,150.29 L286.20,150.09 L289.26,146.06 Z M344.49,157.18 L343.93,157.34 L345.58,158.18 L344.49,157.18 Z M348.90,161.21 L347.90,160.29 L351.39,165.87 L348.90,161.21 Z M382.76,149.56 L377.79,146.48 L381.53,149.19 L382.76,149.56 Z M392.21,151.06 L385.82,150.47 L388.03,151.13 L392.21,151.06 Z M410.70,135.84 L416.47,145.99 L418.45,148.43 L410.70,135.84 Z M426.08,117.08 L426.42,122.01 L426.30,115.62 L424.67,119.10 L426.08,117.08 Z M460.08,154.54 L458.98,151.27 L459.89,154.19 L460.08,154.54 Z M470.99,160.65 L468.31,156.83 L470.18,160.45 L470.99,160.65 Z M412.63,170.27 L413.02,170.04 L413.12,169.86 L412.63,170.27 Z M482.33,191.86 L485.27,189.98 L483.52,190.95 L482.33,191.86 Z M441.79,212.29 L439.86,214.15 L440.55,214.34 L440.21,214.17 L441.79,212.29 Z M442.86,217.32 L442.98,215.56 L442.36,215.24 L442.86,217.32 Z M442.08,224.94 L442.30,225.27 L442.57,221.38 L442.08,224.94 Z M443.58,227.56 L443.99,227.10 L443.66,227.30 L443.58,227.56 Z M464.56,225.57 L464.50,225.13 L456.27,230.08 L464.56,225.57 Z M442.47,231.05 L441.47,231.21 L441.74,231.40 L442.47,231.05 Z M496.08,233.59 L496.42,234.41 L496.58,233.62 L496.08,233.59 Z M372.71,225.70 L372.30,225.43 L371.40,230.29 L372.71,225.70 Z M372.80,224.65 L372.42,224.80 L372.38,225.02 L372.80,224.65 Z M383.28,207.91 L387.24,207.49 L382.69,207.37 L383.28,207.91 Z M453.16,165.10 L451.74,166.56 L450.22,169.13 L453.16,165.10 Z M108.03,162.89 L107.37,164.20 L106.81,169.06 L108.03,162.89 Z M127.84,132.39 L126.14,136.82 L127.78,132.65 L127.84,132.39 Z M147.35,131.40 L148.08,134.04 L148.37,134.29 L147.35,131.40 Z M164.02,133.27 L149.83,135.57 L152.43,135.50 L164.02,133.27 Z M191.11,137.93 L190.83,137.68 L186.75,138.90 L191.11,137.93 Z M152.43,157.53 L151.19,154.82 L152.38,159.26 L152.43,157.53 Z M149.29,162.36 L151.13,160.86 L152.38,159.26 L149.29,162.36 Z M142.90,167.54 L145.36,165.54 L143.05,166.91 L142.90,167.54 Z M143.35,170.58 L142.68,168.49 L142.43,169.55 L143.35,170.58 Z M190.99,116.04 L193.30,112.96 L192.24,113.68 L190.99,116.04 Z M300.62,85.74 L300.69,81.52 L300.39,82.61 L300.62,85.74 Z M207.78,121.94 L210.65,121.31 L203.83,121.46 L207.78,121.94 Z M231.36,116.73 L220.11,118.89 L217.61,119.77 L231.36,116.73 Z M333.75,136.05 L341.16,128.89 L333.07,136.09 L333.75,136.05 Z M384.92,121.11 L385.28,121.90 L385.36,120.29 L384.92,121.11 Z M388.54,128.96 L386.56,123.82 L385.75,122.91 L388.54,128.96 Z M394.81,120.69 L390.68,121.39 L388.50,122.68 L394.81,120.69 Z M397.94,98.68 L391.25,104.57 L395.66,101.44 L397.94,98.68 Z M129.08,115.83 L130.27,121.60 L129.65,117.98 L129.08,115.83 Z M537.46,815.58 L535.48,815.72 L534.91,815.96 L537.46,815.58 Z M582.18,765.75 L585.17,766.65 L586.76,767.77 L585.91,766.72 L582.18,765.75 Z M606.77,757.48 L604.17,760.12 L600.50,764.29 L606.77,757.48 Z M593.43,740.38 L588.34,734.55 L594.22,741.88 L593.43,740.38 Z M530.39,719.67 L529.18,719.64 L535.19,722.59 L530.39,719.67 Z M526.55,717.68 L526.43,718.29 L527.41,718.77 L526.55,717.68 Z M545.15,423.28 L542.04,422.30 L540.45,422.72 L545.15,423.28 Z M547.35,426.40 L558.66,433.49 L547.28,426.31 L547.35,426.40 Z M594.22,442.74 L593.09,442.94 L588.96,444.89 L594.22,442.74 Z M624.58,426.27 L624.26,422.18 L624.24,422.30 L624.58,426.27 Z M625.88,422.17 L624.47,420.91 L624.40,421.32 L625.88,422.17 Z M629.67,654.55 L629.27,653.58 L626.62,650.67 L629.67,654.55 Z M629.79,654.83 L625.71,659.84 L629.78,655.74 L630.59,656.79 L629.79,654.83 Z M621.22,655.80 L620.91,655.80 L625.71,659.84 L621.22,655.80 Z M646.46,671.17 L646.09,666.79 L646.01,668.04 L646.46,671.17 Z M652.21,683.66 L652.23,683.61 L652.00,671.38 L652.21,683.66 Z M547.27,545.62 L546.77,544.87 L546.67,545.24 L547.27,545.62 Z M554.93,548.65 L549.05,546.77 L550.35,547.60 L554.93,548.65 Z M563.94,550.12 L567.08,556.01 L564.31,550.52 L570.70,545.80 L569.80,545.94 L563.94,550.12 Z M586.81,546.98 L586.14,557.89 L586.60,558.40 L586.81,546.98 Z M582.01,537.74 L583.53,537.94 L583.82,537.68 L582.01,537.74 Z M586.76,534.89 L585.80,535.96 L587.62,534.81 L586.76,534.89 Z M598.95,536.69 L598.29,535.23 L598.82,534.49 L597.24,535.05 L598.95,536.69 Z M606.46,556.27 L604.74,558.10 L606.55,556.99 L606.46,556.27 Z M602.87,549.06 L602.91,549.57 L604.74,547.36 L602.87,549.06 Z M606.21,546.02 L606.21,546.02 L606.60,548.51 L606.21,546.02 Z M581.16,602.51 L578.05,598.96 L575.90,598.41 L577.65,599.17 L581.16,602.51 Z M588.40,624.81 L588.96,624.05 L587.89,625.23 L589.41,626.00 L588.40,624.81 Z M561.84,684.63 L570.47,686.94 L561.92,684.52 L561.84,684.63 Z M587.51,674.21 L586.81,673.60 L583.76,674.16 L587.51,674.21 Z M559.05,718.08 L561.65,714.81 L559.85,716.27 L559.05,718.08 Z M574.77,664.22 L565.22,661.23 L576.69,665.54 L574.77,664.22 Z M600.27,574.50 L602.25,568.17 L600.67,571.44 L600.27,574.50 Z M608.58,610.15 L615.99,613.07 L613.95,613.21 L616.84,613.21 L608.58,610.15 Z M594.90,581.59 L596.37,580.89 L597.53,578.99 L594.90,581.59 Z M569.97,576.65 L573.24,577.42 L568.44,575.54 L569.97,576.65 Z M626.48,561.16 L626.27,561.49 L626.62,561.57 L626.48,561.16 Z M555.79,502.00 L556.28,501.74 L559.34,492.22 L555.79,502.00 Z M560.86,511.68 L560.13,512.16 L562.95,512.51 L560.86,511.68 Z M585.57,512.79 L585.97,509.94 L585.71,509.75 L585.57,512.79 Z M605.87,490.90 L607.56,491.73 L604.91,490.13 L605.87,490.90 Z M614.40,498.33 L616.41,500.75 L615.82,499.65 L614.40,498.33 Z M617.62,503.01 L618.00,505.28 L618.14,503.96 L617.62,503.01 Z M608.20,526.21 L607.45,526.69 L606.21,529.26 L608.20,526.21 Z M611.52,524.11 L608.45,526.06 L611.13,525.99 L609.26,525.99 L611.52,524.11 Z M604.85,542.39 L605.58,541.77 L608.30,538.15 L604.85,542.39 Z M616.50,517.03 L614.50,519.87 L615.48,519.39 L616.50,517.03 Z M618.98,507.99 L618.35,507.33 L619.04,511.47 L618.98,507.99 Z M570.20,473.76 L573.98,472.90 L570.25,473.73 L570.20,473.76 Z M603.83,467.68 L603.93,466.49 L603.83,466.59 L603.83,467.68 Z M618.87,456.84 L617.74,454.69 L618.84,457.08 L618.87,456.84 Z M623.62,456.91 L621.81,455.59 L619.89,455.31 L623.62,456.91 Z M616.67,487.23 L614.91,483.88 L616.50,487.42 L616.67,487.23 Z M625.90,486.89 L625.70,487.11 L627.13,490.20 L625.90,486.89 Z M568.67,474.77 L568.10,481.24 L569.05,474.52 L568.67,474.77 Z M613.83,451.02 L613.78,450.93 L613.78,451.01 L613.83,451.02 Z M572.34,461.64 L572.00,458.30 L570.81,456.15 L572.34,461.64 Z M545.15,434.40 L546.45,436.90 L545.34,433.69 L545.15,434.40 Z M538.36,279.91 L536.21,280.12 L539.11,280.78 L538.36,279.91 Z M540.12,280.60 L539.58,280.88 L540.17,281.02 L540.12,280.60 Z M562.45,266.64 L561.65,265.31 L557.07,261.07 L559.96,263.99 L562.45,266.64 Z M568.95,240.09 L570.53,240.57 L573.13,241.06 L568.95,240.09 Z M570.42,355.94 L572.50,360.13 L572.40,359.13 L570.42,355.94 Z M585.40,325.22 L586.70,322.72 L584.77,325.49 L585.40,325.22 Z M586.59,319.66 L588.56,319.33 L586.29,319.52 L586.59,319.66 Z M600.55,318.34 L598.57,322.23 L602.14,316.95 L600.55,318.34 Z M587.94,394.85 L588.40,390.06 L588.00,392.21 L587.94,394.85 Z M593.20,410.91 L591.45,409.10 L589.64,407.71 L593.20,410.91 Z M595.92,409.33 L592.61,413.44 L592.56,413.67 L595.80,410.14 L595.92,409.33 Z M602.05,407.05 L601.80,406.46 L598.06,406.67 L602.05,407.05 Z M608.35,403.19 L608.37,403.12 L607.39,403.75 L608.35,403.19 Z M592.12,415.53 L592.02,415.98 L592.23,416.08 L592.12,415.53 Z M536.74,392.80 L540.64,395.22 L538.02,393.05 L536.74,392.80 Z M573.64,362.44 L574.04,363.23 L575.04,363.92 L573.64,362.44 Z M576.93,365.23 L578.28,366.15 L579.17,365.97 L576.93,365.23 Z M542.38,296.45 L545.26,301.94 L542.38,294.85 L539.49,293.11 L542.66,295.82 L539.89,298.53 L542.38,296.45 Z M561.89,324.40 L560.81,322.51 L559.55,322.04 L561.89,324.40 Z M583.65,317.44 L583.99,318.41 L584.73,318.77 L583.65,317.44 Z M593.37,303.05 L586.42,296.83 L587.04,297.91 L593.37,303.05 Z M598.06,298.67 L595.86,302.15 L597.44,299.71 L601.57,296.10 L598.06,298.67 Z M611.63,303.88 L616.04,305.07 L604.68,300.83 L611.63,303.88 Z M606.60,315.91 L604.00,322.16 L608.41,313.47 L606.60,315.91 Z M618.14,314.86 L610.28,313.27 L608.41,313.47 L618.14,314.86 Z M566.74,273.31 L566.40,273.24 L565.93,273.60 L566.74,273.31 Z M562.11,279.35 L563.81,275.27 L563.12,275.81 L562.11,279.35 Z M641.60,826.98 L639.17,826.91 L642.03,827.29 L641.60,826.98 Z M645.93,830.15 L643.29,828.22 L643.97,829.34 L645.93,830.15 Z M656.47,837.89 L649.91,833.07 L653.42,836.36 L656.47,837.89 Z M672.19,758.73 L672.36,759.36 L680.04,758.73 L672.19,758.73 Z M674.45,666.65 L663.82,660.19 L656.58,656.85 L674.45,666.65 Z M654.97,627.81 L645.10,626.48 L648.89,627.25 L654.97,627.81 Z M665.01,624.67 L657.14,628.01 L657.88,628.08 L665.01,624.67 Z M669.08,616.68 L668.85,620.23 L669.25,623.15 L669.08,616.68 Z M660.15,636.42 L660.22,635.08 L659.86,635.66 L660.15,636.42 Z M660.89,634.01 L661.67,633.61 L661.16,633.57 L660.89,634.01 Z M676.28,631.53 L678.69,632.25 L682.70,631.90 L676.28,631.53 Z M687.56,592.92 L684.23,595.83 L688.99,592.75 L686.55,592.01 L687.56,592.92 Z M700.23,605.01 L699.89,603.06 L699.21,602.16 L700.23,605.01 Z M705.20,599.93 L707.21,599.77 L707.07,599.59 L705.20,599.93 Z M708.20,601.05 L709.78,601.25 L712.38,600.63 L708.20,601.05 Z M713.57,603.13 L713.63,603.16 L712.38,600.63 L713.57,603.13 Z M714.53,605.01 L714.50,604.94 L714.48,605.91 L716.23,609.46 L714.53,605.01 Z M725.39,600.91 L728.90,599.75 L728.72,599.45 L725.39,600.91 Z M738.34,651.01 L739.52,653.38 L740.28,653.70 L738.34,651.01 Z M741.11,654.06 L743.74,655.19 L742.29,653.86 L741.11,654.06 Z M744.72,656.09 L743.60,658.31 L745.42,656.24 L744.72,656.09 Z M745.01,666.72 L743.71,667.90 L746.70,666.44 L745.01,666.72 Z M743.58,669.76 L744.22,668.94 L743.71,667.90 L743.58,669.76 Z M740.82,731.84 L741.29,733.99 L741.67,733.44 L740.82,731.84 Z M737.71,747.75 L737.15,752.89 L737.71,749.77 L737.71,747.75 Z M735.51,753.17 L735.17,754.42 L734.89,755.47 L735.51,753.17 Z M735.56,755.67 L736.70,754.21 L734.89,755.47 L735.56,755.67 Z M748.11,762.58 L748.63,763.06 L748.85,762.54 L748.11,762.58 Z M726.88,790.66 L732.46,800.43 L728.38,792.44 L726.88,790.66 Z M736.13,798.76 L740.97,798.76 L740.82,798.48 L736.13,798.76 Z M741.83,800.33 L742.07,801.75 L741.84,800.36 L741.83,800.33 Z M749.81,825.38 L750.89,825.17 L752.24,824.47 L749.81,825.38 Z M762.59,820.93 L761.69,821.62 L761.40,823.29 L762.59,820.93 Z M762.19,823.57 L761.40,824.34 L761.74,825.17 L762.19,823.57 Z M757.58,827.06 L757.67,826.84 L755.47,826.70 L757.58,827.06 Z M744.22,898.21 L746.39,903.36 L746.39,903.36 L744.22,898.21 Z M696.67,591.04 L700.85,594.31 L702.77,595.21 L696.67,591.04 Z M704.13,593.47 L704.65,592.24 L702.77,595.21 L704.13,593.47 Z M694.41,610.71 L695.71,614.81 L695.31,612.30 L694.41,610.71 Z M690.22,608.34 L689.15,608.62 L694.41,610.71 L690.22,608.34 Z M721.71,825.59 L717.13,827.05 L714.89,828.59 L721.71,825.59 Z M710.51,739.90 L709.95,739.83 L709.61,741.57 L710.51,739.90 Z M711.82,738.37 L711.67,738.67 L711.89,738.94 L712.72,734.41 L711.82,738.37 Z M715.15,735.66 L718.09,735.94 L712.72,734.41 L715.15,735.66 Z M713.01,740.32 L716.23,740.80 L712.63,739.85 L713.01,740.32 Z M722.56,737.95 L721.28,733.12 L721.28,733.12 L722.56,737.95 Z M705.93,762.89 L705.63,762.53 L705.66,763.39 L705.93,762.89 Z M710.80,780.00 L710.00,777.29 L709.95,777.77 L710.80,780.00 Z M713.80,781.80 L718.66,788.20 L715.21,782.64 L710.80,780.00 L713.80,781.80 Z M727.74,771.34 L727.93,771.24 L727.76,771.12 L727.74,771.34 Z M726.45,770.20 L722.67,767.56 L724.60,769.64 L726.45,770.20 Z M723.13,756.86 L723.64,756.44 L722.96,756.39 L723.07,758.38 L723.13,756.86 Z M722.78,756.38 L721.77,756.30 L717.13,758.94 L722.78,756.38 Z M709.27,630.16 L710.18,629.75 L701.87,633.08 L709.27,630.16 Z M727.08,614.74 L726.46,612.86 L727.59,616.34 L727.08,614.74 Z M725.10,679.21 L734.21,670.54 L725.27,678.53 L725.10,679.21 Z M739.69,662.76 L742.33,659.76 L741.61,659.98 L739.69,662.76 Z M703.72,617.12 L701.76,617.52 L703.39,617.45 L703.72,617.12 Z M713.80,615.03 L713.88,615.64 L715.63,614.62 L713.80,615.03 Z M677.84,273.31 L676.54,271.22 L676.60,272.82 L676.82,271.85 L677.84,273.31 Z M677.44,294.92 L677.56,297.42 L678.46,300.06 L677.44,294.92 Z M698.48,314.93 L699.27,319.94 L698.36,313.61 L698.48,314.93 Z M709.61,334.81 L708.37,332.17 L709.42,335.01 L710.63,334.88 L709.61,334.81 Z M709.28,336.27 L708.05,336.96 L709.22,336.96 L709.28,336.27 Z M700.54,351.39 L700.88,352.29 L700.96,352.11 L700.54,351.39 Z M712.41,387.16 L711.71,392.42 L712.67,388.67 L712.41,387.16 Z M681.29,448.02 L681.74,448.85 L683.78,452.74 L685.42,454.27 L681.29,448.02 Z M697.91,469.70 L697.85,468.66 L697.45,468.16 L697.23,468.45 L697.91,469.70 Z M699.58,469.99 L697.51,470.95 L700.68,470.19 L699.58,469.99 Z M690.73,480.33 L690.28,480.96 L691.18,483.47 L690.73,480.33 Z M691.60,486.40 L690.56,488.39 L691.63,486.66 L691.60,486.40 Z M688.86,490.34 L688.36,489.30 L689.11,490.93 L690.22,489.37 L688.86,490.34 Z M688.89,491.24 L688.40,491.24 L688.64,491.59 L688.89,491.24 Z M684.40,495.97 L683.04,495.00 L683.15,493.95 L681.35,495.97 L682.53,494.93 L684.40,495.97 Z M698.87,513.13 L701.92,512.16 L702.11,511.95 L698.87,513.13 Z M689.26,523.77 L694.29,521.20 L689.77,523.42 L686.21,525.16 L689.26,523.77 Z M690.45,527.52 L691.67,528.97 L689.26,523.77 L690.45,527.52 Z M692.25,530.22 L692.77,533.64 L692.99,531.83 L692.25,530.22 Z M693.73,543.64 L694.46,546.14 L694.55,544.88 L693.73,543.64 Z M686.04,553.51 L688.86,551.50 L694.46,546.14 L686.04,553.51 Z M693.67,559.70 L691.63,559.21 L693.67,560.18 L695.48,561.57 L693.67,559.70 Z M693.61,565.46 L696.38,560.46 L695.48,561.57 L693.61,565.46 Z M696.95,569.08 L696.38,571.23 L696.04,572.55 L696.95,569.08 Z M699.04,575.12 L699.86,575.31 L698.70,573.60 L699.21,574.57 L698.74,575.71 L699.04,575.12 Z M660.36,447.41 L660.31,447.39 L658.33,448.50 L660.36,447.41 Z M676.03,454.82 L676.14,454.62 L668.96,448.92 L676.03,454.82 Z M669.70,461.78 L674.90,456.70 L675.09,456.39 L669.70,461.78 Z M679.31,460.39 L681.35,459.41 L678.29,460.25 L679.31,460.39 Z M650.81,532.52 L650.15,534.73 L650.25,534.80 L650.81,532.52 Z M668.57,538.01 L667.55,539.40 L667.55,541.07 L668.57,538.01 Z M665.23,528.08 L670.26,527.73 L668.12,527.87 L665.88,524.66 L667.15,527.38 L665.23,528.08 Z M672.24,534.68 L671.73,533.05 L671.73,533.15 L672.24,534.68 Z M681.35,535.30 L675.01,536.28 L676.20,536.14 L681.35,535.30 Z M644.71,561.29 L644.14,562.20 L645.43,561.01 L644.71,561.29 Z M642.73,561.71 L642.67,562.55 L644.48,565.67 L642.73,561.71 Z M655.11,574.43 L655.45,575.82 L656.36,575.89 L655.11,574.43 Z M661.27,575.47 L656.13,572.97 L656.41,573.55 L656.41,573.46 L661.27,575.47 Z M656.98,586.73 L657.17,586.93 L656.19,584.23 L656.98,586.73 Z M659.07,588.88 L660.85,589.04 L658.14,587.92 L659.07,588.88 Z M667.31,593.32 L667.27,592.50 L671.00,589.93 L666.25,593.12 L667.21,592.92 L667.31,593.32 Z M671.22,587.91 L670.94,585.90 L671.00,589.93 L671.22,587.91 Z M678.35,571.44 L681.12,569.56 L678.39,571.12 L678.29,571.93 L683.89,577.28 L678.35,571.44 Z M667.55,597.64 L667.46,595.94 L667.27,595.90 L667.55,597.64 Z M651.44,554.55 L650.76,552.52 L651.10,554.00 L646.80,555.87 L651.44,554.55 Z M652.40,554.28 L653.42,552.61 L651.44,554.55 L652.40,554.28 Z M659.35,553.79 L658.05,547.47 L658.45,549.62 L659.35,553.79 Z M666.65,557.75 L672.81,557.19 L670.09,557.19 L666.65,557.75 Z M674.73,558.93 L676.43,560.04 L672.81,557.19 L674.73,558.93 Z M679.99,555.25 L681.01,556.36 L680.18,554.97 L679.99,555.25 Z M647.30,559.23 L647.16,559.42 L647.31,559.28 L647.30,559.23 Z M639.91,496.10 L639.96,496.80 L640.44,496.86 L639.91,496.10 Z M658.06,505.35 L658.75,503.30 L657.66,505.07 L658.06,505.35 Z M667.32,511.88 L668.86,510.89 L668.23,510.56 L667.32,511.88 Z M671.79,506.95 L669.70,511.33 L669.38,511.16 L669.42,512.09 L671.79,506.95 Z M672.02,515.15 L671.85,508.48 L671.79,506.95 L672.02,515.15 Z M679.47,511.12 L679.93,510.29 L679.65,507.02 L678.86,506.81 L679.59,507.85 L679.47,511.12 Z M684.17,515.29 L685.25,511.88 L682.87,514.18 L684.74,512.72 L684.17,515.29 Z M646.45,515.16 L647.59,514.94 L651.89,511.26 L646.45,515.16 Z M663.71,521.54 L657.54,513.20 L661.10,518.90 L664.02,522.00 L663.71,521.54 Z M667.10,516.89 L667.06,517.17 L667.23,516.91 L667.10,516.89 Z M662.80,489.30 L663.03,490.55 L663.14,489.09 L665.51,486.59 L662.80,489.30 Z M672.35,486.92 L671.90,486.66 L670.26,489.85 L672.35,486.92 Z M680.10,473.12 L678.52,476.51 L680.33,473.80 L681.29,474.84 L680.10,473.12 Z M676.82,492.77 L666.14,492.70 L676.09,492.77 L676.82,492.77 Z M678.63,487.91 L678.80,489.37 L679.08,487.70 L678.63,487.91 Z M680.00,472.98 L678.74,471.16 L679.76,473.24 L680.00,472.98 Z M663.42,485.96 L662.57,480.89 L663.42,487.28 L663.42,485.96 Z M683.07,468.60 L683.24,467.94 L682.87,468.38 L683.07,468.60 Z M683.44,467.70 L683.83,467.96 L686.94,463.51 L683.44,467.70 Z M688.19,454.62 L687.34,458.37 L686.94,463.51 L688.19,454.62 Z M657.15,357.74 L663.59,364.21 L653.02,352.95 L657.15,357.74 Z M665.57,388.39 L671.79,385.26 L674.62,382.97 L665.57,388.39 Z M674.22,379.77 L673.43,376.78 L674.62,382.97 L674.22,379.77 Z M666.74,401.10 L666.08,401.46 L665.08,403.49 L666.74,401.10 Z M668.00,400.41 L667.46,400.71 L670.15,403.82 L665.12,392.56 L668.00,400.41 Z M690.82,406.87 L690.69,406.74 L690.73,406.88 L690.82,406.87 Z M654.21,435.58 L654.77,433.84 L654.71,432.99 L654.21,435.58 Z M683.83,397.49 L682.59,395.27 L684.51,401.46 L683.83,397.49 Z M677.22,402.64 L680.73,403.87 L680.50,403.19 L676.40,401.69 L677.22,402.64 Z M688.53,371.64 L697.35,376.85 L691.97,373.52 L688.53,371.64 Z M657.59,261.50 L658.89,262.77 L658.56,261.56 L657.59,261.50 Z M662.28,267.49 L662.46,268.02 L664.89,269.28 L662.28,267.49 Z M705.66,511.44 L703.73,507.44 L704.53,509.87 L704.17,510.29 L705.66,511.44 Z M716.17,514.25 L712.38,515.35 L713.63,515.57 L716.17,514.25 Z M718.76,514.47 L718.60,514.66 L718.79,515.05 L718.76,514.47 Z M722.17,516.12 L719.16,515.81 L719.45,516.40 L722.17,516.12 Z M723.58,526.41 L724.22,523.02 L723.47,523.91 L723.58,526.41 Z M731.55,528.15 L730.25,530.72 L732.46,527.88 L731.55,528.15 Z M714.87,551.64 L720.64,554.07 L718.21,552.96 L714.87,551.64 Z M723.18,580.41 L722.84,579.22 L723.08,580.60 L723.18,580.41 Z M727.76,577.83 L730.48,576.31 L723.18,580.41 L727.76,577.83 Z M701.81,575.75 L700.68,574.85 L700.30,575.41 L701.81,575.75 Z M707.13,567.20 L706.20,566.85 L706.83,567.75 L707.13,567.20 Z M705.63,589.93 L706.33,588.26 L705.95,586.62 L705.94,586.62 L705.63,589.93 Z M706.50,585.83 L706.84,587.01 L707.12,585.50 L706.50,585.83 Z M716.66,582.65 L715.32,582.98 L717.59,583.12 L716.66,582.65 Z M697.73,580.00 L698.82,580.55 L699.95,579.78 L697.73,580.00 Z M717.47,563.31 L717.41,563.95 L719.17,561.71 L717.47,563.31 Z M723.86,560.95 L724.95,564.14 L725.16,563.87 L723.86,560.95 Z M697.24,544.57 L697.63,539.54 L697.12,543.71 L697.24,544.57 Z M700.89,536.54 L700.89,536.54 L697.63,539.54 L700.89,536.54 Z M716.45,533.98 L715.71,533.61 L716.74,535.72 L716.45,533.98 Z M716.96,530.37 L715.21,532.59 L715.41,533.01 L716.96,530.37 Z M719.06,529.74 L720.30,526.69 L718.04,530.93 L719.06,529.74 Z M726.69,533.50 L727.34,534.13 L726.71,532.70 L726.69,533.50 Z M729.24,535.96 L729.40,535.51 L728.35,535.09 L729.24,535.96 Z M732.96,539.54 L732.40,538.57 L731.30,537.94 L732.96,539.54 Z M732.34,540.65 L730.25,538.57 L732.23,541.42 L732.96,539.54 L732.34,540.65 Z M736.36,546.91 L736.92,546.87 L735.85,545.38 L736.36,546.91 Z M697.51,546.51 L697.63,547.33 L704.02,553.23 L704.61,553.08 L697.51,546.51 Z M705.47,552.87 L707.30,552.40 L705.83,552.05 L705.47,552.87 Z M698.46,532.65 L695.82,522.10 L697.85,531.76 L698.46,532.65 Z M710.59,528.00 L708.37,529.95 L710.07,529.19 L710.59,528.00 Z M707.91,481.33 L708.37,482.90 L707.97,481.31 L707.91,481.33 Z M717.98,469.35 L721.77,472.97 L724.14,474.50 L717.98,469.35 Z M702.15,501.11 L700.97,499.19 L702.13,502.30 L702.54,500.09 L702.15,501.11 Z M704.86,494.02 L703.47,497.67 L706.05,499.58 L703.90,497.50 L704.86,494.02 Z M718.09,487.70 L712.21,486.10 L711.08,486.31 L718.09,487.70 Z M718.26,488.31 L722.96,477.48 L718.09,487.70 L718.26,488.31 Z M719.45,492.63 L719.34,490.76 L718.74,490.05 L719.45,492.63 Z M721.83,491.66 L723.24,490.76 L719.45,492.63 L721.83,491.66 Z M720.36,503.61 L720.92,499.44 L719.62,505.49 L719.61,505.59 L720.36,503.61 Z M727.20,502.78 L730.99,501.67 L720.36,503.61 L727.20,502.78 Z M718.15,453.92 L719.23,451.14 L717.19,454.48 L718.15,453.92 Z M715.04,441.14 L714.45,442.64 L714.45,442.64 L715.04,441.14 Z M719.95,442.74 L719.95,442.74 L718.60,443.64 L719.95,442.74 Z M719.23,441.28 L718.43,441.14 L719.94,442.71 L719.23,441.28 Z M720.47,440.79 L721.01,441.86 L720.86,439.54 L720.47,440.79 Z M725.84,446.35 L724.94,446.45 L725.33,446.91 L724.71,447.81 L725.84,446.35 Z M723.52,452.74 L723.71,451.21 L723.13,452.70 L723.52,452.74 Z M724.70,449.61 L724.37,449.48 L724.13,450.10 L724.70,449.61 Z M706.79,421.75 L707.92,422.93 L707.61,421.87 L706.79,421.75 Z M734.21,424.56 L731.55,422.58 L733.59,424.74 L734.21,424.56 Z M706.17,415.70 L706.21,415.77 L706.23,415.49 L706.17,415.70 Z M705.60,407.22 L705.11,406.90 L706.55,411.56 L706.62,410.70 L705.60,407.22 Z M718.58,379.16 L718.83,379.36 L719.78,378.64 L719.06,378.38 L718.58,379.16 Z M721.18,378.59 L722.22,379.15 L722.35,378.79 L721.60,378.11 L721.18,378.59 Z M725.73,405.69 L726.52,405.74 L726.24,405.07 L725.73,405.69 Z M736.38,366.72 L735.73,367.82 L735.89,368.44 L736.38,366.72 Z M711.14,332.86 L713.52,335.09 L712.50,333.56 L711.14,332.86 Z M755.30,753.10 L756.20,755.53 L755.80,753.15 L755.30,753.10 Z M757.33,753.31 L756.20,753.19 L758.63,755.19 L757.33,753.31 Z M758.78,752.78 L758.66,752.56 L758.24,753.24 L758.70,754.09 L758.78,752.78 Z M762.59,753.45 L761.39,755.25 L761.97,755.19 L762.59,753.45 Z M763.95,816.48 L761.80,815.30 L761.40,815.40 L763.95,816.48 Z M748.12,901.68 L758.25,906.82 L757.67,906.13 L748.12,901.68 Z M754.96,834.76 L756.09,833.16 L756.22,831.47 L754.96,834.76 Z M751.79,834.83 L750.95,835.26 L754.96,834.76 L751.79,834.83 Z M745.57,683.54 L740.88,686.94 L739.81,690.70 L740.65,687.78 L745.57,683.54 Z M755.07,687.36 L758.90,689.71 L757.73,688.40 L755.07,687.36 Z M759.90,690.82 L759.28,692.49 L760.22,691.18 L759.90,690.82 Z M763.31,689.43 L763.55,689.05 L763.04,689.24 L763.31,689.43 Z M764.28,688.78 L764.40,688.96 L764.46,688.71 L764.28,688.78 Z M769.32,693.89 L770.51,694.93 L764.40,688.96 L769.32,693.89 Z M768.36,695.42 L768.32,697.80 L769.32,693.89 L768.36,695.42 Z M750.89,732.18 L750.77,730.10 L750.09,728.99 L750.89,732.18 Z M744.44,741.71 L743.25,741.91 L749.02,742.54 L744.44,741.71 Z M752.18,738.64 L751.97,739.46 L752.36,739.06 L752.18,738.64 Z M757.77,699.64 L757.78,700.22 L758.80,701.38 L757.77,699.64 Z M761.11,702.04 L759.73,702.44 L760.10,702.86 L761.11,702.04 Z M765.25,698.69 L766.77,700.98 L766.00,701.75 L767.45,701.19 L765.25,698.69 Z M763.95,704.66 L764.68,703.09 L761.85,705.91 L763.95,704.66 Z M758.88,693.56 L758.35,695.00 L758.57,695.82 L758.88,693.56 Z M755.01,658.03 L754.67,653.38 L754.67,655.81 L755.01,658.03 Z M764.26,686.33 L763.21,687.22 L764.29,686.73 L764.26,686.33 Z M765.19,685.55 L764.72,685.95 L765.06,686.12 L765.19,685.55 Z M764.65,687.88 L764.86,686.98 L764.57,687.22 L764.65,687.88 Z M753.03,677.07 L748.40,682.98 L750.60,680.20 L753.03,677.07 Z M760.78,675.55 L758.07,680.41 L758.69,679.44 L760.78,675.55 Z M758.19,665.99 L758.12,666.16 L759.25,672.63 L758.19,665.99 Z M750.28,629.38 L750.04,629.89 L751.29,630.65 L751.23,629.89 L750.28,629.38 Z M752.70,631.00 L752.10,631.15 L753.40,631.95 L752.70,631.00 Z M758.80,643.58 L754.39,644.97 L752.36,646.29 L758.80,643.58 Z M768.19,636.70 L771.24,641.98 L771.67,641.96 L768.19,636.70 Z M798.55,674.50 L780.34,682.84 L789.90,678.74 L798.55,674.50 Z M799.74,675.82 L796.91,672.56 L798.55,674.50 L799.74,675.82 Z M813.17,417.81 L813.64,417.09 L813.22,416.16 L813.13,416.33 L813.17,417.81 Z M808.56,424.88 L811.88,419.79 L810.25,421.33 L808.56,424.88 Z M811.10,431.34 L811.16,428.28 L810.93,432.80 L811.10,431.34 Z M815.74,464.07 L811.83,463.65 L818.28,464.63 L815.74,464.07 Z M802.51,498.05 L806.80,498.12 L801.85,497.64 L802.51,498.05 Z M803.35,515.08 L802.45,514.52 L804.77,517.44 L803.35,515.08 Z M807.80,511.98 L807.20,511.95 L803.35,515.08 L807.80,511.98 Z M816.67,531.26 L816.19,530.30 L816.81,525.50 L816.02,531.06 L816.67,531.26 Z M802.41,546.87 L801.75,544.95 L801.77,545.45 L802.41,546.87 Z M804.54,546.42 L802.60,547.31 L802.60,547.31 L804.54,546.42 Z M818.96,557.96 L817.37,557.47 L818.45,555.94 L817.09,557.40 L818.96,557.96 Z M817.12,586.22 L816.70,580.27 L816.47,579.47 L816.64,584.78 L817.12,586.22 Z M821.62,595.90 L818.11,589.23 L819.01,591.94 L821.62,595.90 Z M828.85,593.19 L827.96,593.63 L827.94,593.77 L830.90,594.09 L828.85,593.19 Z M836.02,596.33 L832.33,594.71 L834.22,596.18 L836.02,596.33 Z M839.54,598.41 L837.42,596.05 L837.35,596.43 L837.67,596.46 L839.54,598.41 Z M841.12,600.63 L839.71,598.47 L840.78,596.95 L839.54,598.41 L841.12,600.63 Z M840.56,602.30 L841.06,601.95 L841.57,604.31 L841.12,600.63 L840.56,602.30 Z M846.66,616.68 L843.83,616.27 L847.00,617.18 L846.66,616.68 Z M850.17,615.99 L848.10,617.50 L848.64,617.66 L850.17,615.99 Z M851.30,620.71 L848.36,619.74 L849.66,620.64 L851.30,620.71 Z M850.41,627.44 L850.85,626.13 L850.11,627.25 L850.41,627.44 Z M850.39,630.51 L850.04,629.85 L848.98,632.67 L850.39,630.51 Z M847.28,630.51 L849.88,634.61 L848.98,632.67 L847.28,630.51 Z M833.15,640.31 L839.15,647.82 L839.26,647.19 L834.68,641.91 L828.68,635.31 L833.15,640.31 Z M837.16,651.08 L838.49,651.83 L838.83,649.77 L838.12,651.43 L837.16,651.08 Z M825.40,656.64 L834.88,659.81 L835.75,653.10 L834.85,659.21 L825.40,656.64 Z M835.81,673.81 L836.60,669.99 L835.24,675.75 L835.81,673.81 Z M839.36,675.76 L839.37,676.31 L839.57,676.46 L839.36,675.76 Z M847.92,680.08 L845.98,678.19 L847.68,680.34 L847.92,680.08 Z M849.32,681.45 L849.25,681.39 L848.75,682.29 L849.32,681.45 Z M841.91,690.35 L842.02,690.28 L838.41,688.05 L841.91,690.35 Z M840.80,695.12 L841.35,694.31 L841.91,690.35 L840.80,695.12 Z M839.09,697.16 L839.25,697.40 L840.32,695.81 L839.76,695.63 L839.09,697.16 Z M846.32,702.65 L839.83,698.26 L840.78,699.66 L846.32,702.65 Z M819.69,387.63 L815.40,386.72 L812.43,387.03 L819.69,387.63 Z M810.25,570.61 L802.45,569.22 L807.14,570.12 L810.25,570.61 Z M833.21,610.57 L828.00,606.95 L821.84,600.00 L823.31,602.64 L828.29,607.23 L833.21,610.57 Z M788.83,358.88 L785.77,362.61 L788.48,359.69 L788.83,358.88 Z M766.46,380.76 L766.71,381.72 L766.89,381.30 L766.46,380.76 Z M766.45,382.32 L763.61,383.18 L766.32,382.62 L766.45,382.32 Z M781.47,396.03 L785.94,394.71 L786.38,394.48 L781.47,396.03 Z M772.99,417.16 L771.75,413.20 L772.37,415.98 L768.98,413.27 L772.99,417.16 Z M768.92,411.46 L766.72,409.45 L768.24,411.05 L768.98,413.27 L768.92,411.46 Z M773.78,425.64 L775.82,427.13 L775.59,426.40 L773.78,425.64 Z M789.22,448.50 L783.57,448.16 L782.89,448.70 L789.22,448.50 Z M782.20,449.24 L781.81,449.55 L781.76,451.21 L782.20,449.24 Z M775.08,487.63 L771.15,486.93 L772.65,487.28 L776.27,488.18 L775.08,487.63 Z M770.28,506.81 L768.87,506.81 L771.57,507.93 L770.28,506.81 Z M764.12,545.45 L760.84,546.14 L763.21,545.80 L764.12,545.45 Z M762.36,549.34 L765.47,554.28 L766.24,554.42 L762.36,549.34 Z M772.03,555.74 L771.92,553.44 L771.75,556.78 L772.44,555.82 L772.03,555.74 Z M766.73,555.79 L767.06,556.50 L771.75,556.78 L766.73,555.79 Z M781.11,577.07 L781.81,577.77 L783.57,578.11 L781.11,577.07 Z M780.85,581.17 L781.34,581.85 L781.56,581.37 L780.85,581.17 Z M781.17,582.22 L779.16,581.73 L781.02,582.56 L781.17,582.22 Z M774.69,584.02 L774.15,583.40 L773.95,584.16 L771.92,585.13 L774.69,584.02 Z M781.98,590.27 L783.23,592.85 L783.28,592.88 L781.98,590.27 Z M777.46,610.78 L776.54,611.76 L776.54,611.76 L777.46,610.78 Z M785.53,617.19 L786.56,613.97 L785.71,615.64 L785.53,617.19 Z M791.76,611.40 L793.97,612.44 L786.62,607.51 L791.76,611.40 Z M797.13,614.67 L797.36,613.95 L796.80,613.14 L797.13,614.67 Z M798.42,611.60 L797.98,611.68 L796.80,613.14 L798.42,611.60 Z M798.39,614.31 L800.64,615.57 L798.94,614.04 L798.39,614.31 Z M803.32,623.86 L802.84,624.47 L804.82,622.73 L803.32,623.86 Z M803.86,629.54 L804.54,629.90 L807.93,630.23 L803.86,629.54 Z M811.55,633.08 L808.27,639.69 L807.88,641.28 L811.55,633.08 Z M808.78,641.77 L806.80,645.45 L809.01,641.35 L807.88,641.28 L808.78,641.77 Z M810.02,661.27 L809.86,661.37 L807.31,665.47 L810.02,661.27 Z M801.60,678.05 L802.96,688.19 L803.18,689.31 L801.60,678.05 Z M810.36,690.35 L810.00,690.38 L809.80,692.71 L811.61,687.08 L810.36,690.35 Z M814.60,703.14 L811.03,705.23 L813.13,704.73 L814.60,703.14 Z M815.45,713.91 L816.24,715.85 L817.15,716.69 L815.45,713.91 Z M813.31,725.72 L812.91,725.51 L812.34,726.90 L813.31,725.72 Z M813.02,729.82 L813.50,728.26 L813.13,728.43 L812.34,726.90 L813.02,729.82 Z M807.76,738.65 L809.40,745.67 L809.12,743.79 L807.76,738.65 Z M817.01,776.93 L816.24,778.33 L816.75,777.70 L817.01,776.93 Z M814.94,778.82 L813.87,780.00 L814.06,780.33 L814.94,778.82 Z M809.86,787.22 L810.19,789.80 L810.42,788.06 L809.86,787.22 Z M814.44,796.95 L814.32,787.99 L814.17,797.79 L815.17,797.02 L814.44,796.95 Z M817.45,852.16 L817.05,850.31 L816.87,860.06 L817.15,852.13 L817.45,852.16 Z M814.72,861.17 L814.94,864.85 L815.34,867.01 L814.72,861.17 Z M810.53,874.37 L809.06,866.38 L808.67,870.41 L809.06,868.81 L810.53,874.37 Z M813.25,873.47 L814.72,871.80 L810.53,874.37 L813.25,873.47 Z M814.06,882.77 L812.57,886.74 L814.49,883.06 L814.06,882.77 Z M805.29,905.91 L804.88,906.48 L805.13,906.85 L805.29,905.91 Z M805.39,941.43 L805.11,941.61 L809.52,941.37 L805.39,941.43 Z M771.84,618.12 L771.84,618.12 L775.65,615.36 L771.84,618.12 Z M809.40,708.00 L809.52,708.20 L810.42,707.30 L809.40,708.00 Z M748.74,527.03 L745.91,526.27 L749.00,527.35 L748.74,527.03 Z M741.53,589.41 L745.74,589.58 L742.75,588.95 L741.53,589.41 Z M745.63,591.87 L746.76,592.29 L747.17,592.21 L745.63,591.87 Z M750.34,591.57 L750.89,591.46 L750.55,591.04 L750.34,591.57 Z M753.09,583.70 L753.49,583.67 L753.58,583.08 L753.09,583.70 Z M753.58,583.04 L753.69,582.35 L752.97,582.91 L753.58,583.04 Z M759.42,583.46 L761.97,581.48 L761.91,580.96 L759.42,583.46 Z M763.55,581.31 L762.14,582.84 L762.10,582.56 L762.06,583.14 L763.55,581.31 Z M747.44,612.72 L746.84,610.27 L746.76,610.57 L747.44,612.72 Z M748.57,607.37 L747.44,607.93 L747.10,609.22 L748.57,607.37 Z M750.78,603.21 L749.08,602.09 L750.18,603.01 L750.78,603.21 Z M755.64,608.00 L753.83,605.22 L751.88,603.94 L755.64,608.00 Z M756.60,607.93 L757.71,606.98 L755.64,608.00 L756.60,607.93 Z M763.61,605.22 L761.57,605.08 L759.76,605.97 L763.61,605.22 Z M767.51,603.27 L766.69,602.97 L767.69,604.65 L767.59,602.71 L767.51,603.27 Z M751.79,592.57 L751.31,591.98 L751.45,594.86 L751.79,592.57 Z M768.00,599.92 L768.36,599.86 L768.41,597.15 L768.00,599.92 Z M769.88,596.60 L770.68,595.50 L768.41,597.15 L769.88,596.60 Z M771.51,594.36 L773.22,592.01 L771.58,593.40 L771.51,594.36 Z M762.48,586.04 L761.94,584.80 L761.69,588.40 L762.48,586.04 Z M748.67,559.23 L748.53,559.13 L747.44,562.06 L748.67,559.23 Z M751.56,542.81 L751.68,541.49 L751.79,539.26 L751.56,542.81 Z M757.67,545.80 L757.83,545.63 L751.68,541.49 L757.67,545.80 Z M738.90,500.27 L738.00,500.21 L736.30,501.53 L738.90,500.27 Z M743.93,484.85 L740.99,485.48 L739.47,486.17 L743.93,484.85 Z M756.26,505.63 L757.84,503.13 L757.22,503.96 L756.26,505.63 Z M751.90,505.21 L749.70,508.41 L755.47,500.35 L752.24,504.73 L751.76,504.82 L751.90,505.21 Z M747.10,511.54 L747.89,510.42 L748.06,507.24 L748.06,507.24 L747.10,511.54 Z M752.75,514.94 L754.90,515.88 L754.56,515.01 L752.75,514.94 Z M755.02,515.93 L755.47,516.12 L754.56,513.97 L755.02,515.93 Z M741.44,501.60 L742.63,504.52 L743.24,504.82 L741.44,501.60 Z M743.80,505.10 L747.99,507.19 L744.33,504.59 L743.80,505.10 Z M743.99,474.98 L750.43,476.30 L750.59,475.77 L743.99,474.98 Z M751.40,473.11 L752.92,472.97 L751.10,472.71 L751.02,474.36 L751.40,473.11 Z M752.75,441.97 L752.40,441.70 L749.19,448.43 L752.75,441.97 Z M748.85,410.42 L750.38,411.18 L744.72,407.15 L748.85,410.42 Z M757.83,400.94 L757.67,400.97 L757.62,401.07 L757.83,400.94 Z M761.46,384.43 L759.88,386.49 L759.88,386.49 L761.46,384.43 Z M755.30,427.38 L753.37,424.46 L757.44,432.87 L755.30,427.38 Z M757.16,423.42 L757.04,424.07 L759.31,425.22 L757.16,423.42 Z M758.97,385.76 L751.85,376.51 L757.73,384.78 L758.97,385.76 Z M792.77,808.13 L793.74,807.59 L796.00,805.08 L792.77,808.13 Z M806.64,913.62 L806.29,913.85 L806.29,914.30 L806.64,913.62 Z M792.16,847.06 L782.40,852.66 L783.11,852.41 L792.16,847.06 Z M810.20,845.96 L811.04,846.23 L813.47,845.39 L810.20,845.96 Z M798.31,799.98 L797.70,800.22 L798.10,801.54 L798.31,799.98 Z M790.12,764.81 L789.56,763.46 L785.60,760.68 L790.12,764.81 Z M792.22,766.72 L792.53,766.32 L791.70,766.25 L792.22,766.72 Z M801.74,759.11 L801.21,759.36 L800.85,760.71 L801.74,759.11 Z M790.58,779.23 L790.92,782.50 L790.75,780.83 L790.58,779.23 Z M792.61,739.76 L799.51,744.35 L796.00,741.50 L792.61,739.76 Z M780.52,732.61 L781.20,733.35 L781.30,732.67 L780.52,732.61 Z M781.13,733.82 L779.21,735.52 L781.08,734.20 L781.13,733.82 Z M791.10,734.27 L790.31,734.05 L790.58,734.20 L788.77,737.81 L791.10,734.27 Z M772.15,655.92 L774.58,656.16 L772.60,655.67 L772.15,655.92 Z M789.33,668.60 L791.54,669.36 L788.82,667.62 L788.14,666.44 L789.33,668.60 Z M801.66,659.84 L803.52,660.95 L804.58,660.59 L801.66,659.84 Z M793.74,695.28 L794.53,692.71 L793.43,695.32 L793.74,695.28 Z M784.82,714.91 L782.26,713.00 L783.68,714.81 L784.82,714.91 Z M787.92,646.01 L789.16,643.65 L787.50,646.50 L788.17,646.24 L787.92,646.01 Z M801.92,642.08 L801.37,641.70 L797.87,641.91 L801.92,642.08 Z M805.84,649.62 L805.50,649.37 L805.65,650.00 L805.84,649.62 Z M790.65,662.61 L791.03,663.04 L793.01,661.72 L790.65,662.61 Z M788.37,629.26 L788.67,631.32 L788.70,630.58 L788.65,630.65 L788.37,629.26 Z M788.58,633.21 L787.35,634.89 L788.54,634.13 L788.58,633.21 Z M809.05,618.79 L813.13,621.34 L809.08,618.40 L809.05,618.79 Z M820.66,655.47 L820.60,655.39 L815.79,653.38 L820.66,655.47 Z M814.55,626.06 L814.28,624.13 L813.81,623.84 L814.55,626.06 Z M811.21,585.55 L810.76,591.04 L811.66,584.23 L811.21,585.55 Z M810.14,584.92 L809.44,585.18 L811.21,585.55 L810.14,584.92 Z M814.83,607.02 L814.03,608.77 L817.33,604.48 L814.83,607.02 Z M813.75,609.38 L816.52,611.18 L814.00,608.84 L813.75,609.38 Z M809.91,613.42 L810.29,613.42 L810.14,610.64 L809.91,613.42 Z M813.13,618.91 L813.87,616.82 L814.49,614.32 L813.13,618.91 Z M796.06,576.31 L802.00,582.28 L800.53,580.34 L796.06,576.31 Z M802.17,585.20 L802.91,585.90 L802.00,582.28 L802.17,585.20 Z M804.77,605.49 L800.53,609.46 L803.58,606.81 L806.12,604.03 L804.77,605.49 Z M805.84,619.81 L806.35,613.21 L805.98,614.17 L806.12,614.25 L805.84,619.81 Z M806.69,615.92 L809.23,616.40 L806.80,615.22 L806.35,613.21 L806.69,615.92 Z M795.78,587.29 L796.01,589.68 L796.06,588.61 L795.78,587.29 Z M809.09,585.30 L805.50,586.59 L808.16,586.38 L809.09,585.30 Z M784.19,581.70 L785.77,581.94 L788.71,580.82 L784.19,581.70 Z M781.19,558.58 L779.54,560.36 L781.61,560.69 L780.57,560.11 L781.19,558.58 Z M787.41,543.23 L787.58,542.04 L786.62,546.28 L787.41,543.23 Z M791.76,549.90 L790.80,546.56 L790.72,546.47 L791.76,549.90 Z M794.31,548.44 L794.68,548.07 L792.89,548.58 L794.31,548.44 Z M793.29,567.13 L788.58,564.54 L791.03,566.09 L793.29,567.13 Z M797.81,566.16 L797.03,566.33 L801.83,566.65 L797.81,566.16 Z M801.95,567.17 L804.48,561.71 L801.83,566.65 L801.95,567.17 Z M790.07,413.27 L791.93,415.08 L792.47,415.16 L790.07,413.27 Z M793.79,415.38 L794.93,415.56 L798.27,413.83 L793.79,415.38 Z M780.96,471.23 L780.97,471.21 L779.38,473.04 L780.96,471.23 Z M803.86,475.89 L801.26,479.99 L802.73,478.39 L803.86,475.89 Z M804.10,468.35 L804.71,470.88 L804.71,469.84 L804.10,468.35 Z M801.94,386.44 L799.14,386.76 L799.68,387.14 L801.94,386.44 Z M805.05,386.10 L803.31,386.29 L806.72,386.57 L805.05,386.10 Z M821.84,685.14 L821.16,685.30 L823.76,685.55 L821.84,685.14 Z M827.61,685.76 L824.33,688.19 L824.23,688.40 L827.61,685.76 Z M834.85,677.49 L833.72,682.83 L833.83,682.56 L834.85,677.49 Z M837.28,683.33 L837.07,683.46 L837.79,683.76 L837.28,683.33 Z M839.26,685.00 L838.49,684.35 L838.29,684.93 L839.26,685.00 Z M822.52,739.27 L823.03,737.60 L822.80,736.54 L822.52,739.27 Z M824.97,737.63 L825.04,738.16 L825.22,737.63 L824.97,737.63 Z M827.89,751.16 L831.43,751.72 L830.44,751.02 L827.89,751.16 Z M832.45,752.44 L833.57,755.62 L833.09,752.89 L832.45,752.44 Z M819.52,785.21 L822.35,787.64 L819.12,784.11 L819.52,785.21 Z M828.80,773.39 L834.62,761.65 L830.04,769.57 L828.80,773.39 Z M829.87,710.92 L828.57,711.61 L826.14,714.74 L829.87,710.92 Z M828.17,737.67 L825.90,737.64 L826.65,738.16 L828.17,737.67 Z M830.60,725.65 L830.27,729.06 L831.00,725.49 L830.60,725.65 Z M832.47,724.89 L832.24,724.98 L835.64,725.95 L832.47,724.89 Z M814.62,727.73 L816.41,727.60 L818.73,725.79 L814.62,727.73 Z M823.88,725.86 L823.53,729.27 L824.05,729.20 L823.88,725.86 Z M823.29,731.61 L822.99,734.67 L823.48,733.64 L823.29,731.61 Z M824.27,719.47 L825.12,719.67 L824.14,718.93 L824.27,719.47 Z M841.86,710.78 L841.52,714.53 L841.92,710.77 L841.86,710.78 Z M817.78,700.95 L815.02,701.25 L815.17,701.81 L817.78,700.95 Z M808.97,626.90 L808.78,627.32 L809.11,627.25 L808.97,626.90 Z M818.90,631.62 L821.84,630.79 L818.56,631.66 L819.35,633.78 L818.90,631.62 Z M822.61,631.50 L824.02,632.80 L822.58,630.72 L822.61,631.50 Z M825.40,628.15 L828.91,628.98 L819.47,625.79 L825.40,628.15 Z M835.81,627.04 L836.00,627.18 L835.71,626.67 L835.81,627.04 Z M812.91,673.67 L812.98,673.44 L811.17,674.13 L812.91,673.67 Z M813.70,670.96 L812.57,667.55 L813.41,671.95 L813.70,670.96 Z M814.23,667.09 L813.87,666.93 L812.57,667.55 L814.23,667.09 Z M818.62,670.12 L819.81,670.40 L815.90,669.29 L818.62,670.12 Z M822.97,670.14 L822.97,669.85 L820.78,669.26 L820.26,672.28 L821.11,669.64 L822.97,670.14 Z M822.73,657.74 L822.52,657.82 L822.63,662.34 L822.73,657.74 Z M815.97,617.72 L815.57,614.04 L815.74,616.54 L815.97,617.72 Z M818.56,612.41 L818.11,612.65 L817.63,612.20 L815.57,614.04 L818.56,612.41 Z M820.48,625.58 L819.24,624.19 L819.02,624.39 L820.48,625.58 Z M818.17,549.55 L818.22,549.35 L817.95,549.25 L818.17,549.55 Z M847.06,430.78 L845.14,430.09 L845.86,422.04 L845.86,422.04 L845.08,427.24 L844.90,430.41 L847.06,430.78 Z M851.30,442.94 L849.15,446.63 L850.34,444.75 L851.30,442.94 Z M850.96,452.60 L850.79,461.15 L850.85,461.92 L850.96,452.60 Z M842.82,459.38 L837.56,469.56 L842.14,461.43 L842.82,459.38 Z M843.04,478.60 L842.48,482.00 L842.58,482.39 L843.04,478.60 Z M842.54,489.16 L842.56,489.41 L844.29,489.23 L842.54,489.16 Z M837.67,490.76 L839.26,493.61 L838.12,491.52 L837.67,490.76 Z M839.19,493.67 L847.40,495.20 L839.26,493.61 L839.19,493.67 Z M849.32,496.32 L847.68,496.94 L848.41,496.94 L848.42,497.42 L849.32,496.32 Z M848.47,499.72 L857.40,499.86 L852.20,499.31 L848.47,499.72 Z M861.12,500.64 L860.97,500.28 L857.40,499.86 L861.12,500.64 Z M864.13,496.87 L871.56,500.76 L871.54,500.69 L864.13,496.87 Z M882.79,502.50 L879.79,504.73 L883.36,502.73 L882.79,502.50 Z M884.46,509.58 L884.60,511.05 L884.96,511.32 L884.46,509.58 Z M882.23,514.85 L876.97,515.29 L882.00,515.22 L882.23,514.85 Z M884.32,531.20 L881.83,533.71 L883.13,533.29 L884.32,531.20 Z M883.03,536.71 L883.41,536.42 L883.13,533.29 L883.03,536.71 Z M883.18,538.43 L883.35,537.11 L883.01,537.11 L882.85,542.81 L883.52,538.75 L883.18,538.43 Z M879.62,545.73 L878.66,543.37 L877.76,541.49 L880.41,549.20 L879.62,545.73 Z M880.00,567.54 L878.33,567.50 L879.68,568.11 L880.00,567.54 Z M878.11,576.36 L877.70,576.38 L877.59,577.70 L878.11,576.36 Z M880.02,584.30 L879.43,583.40 L879.74,588.33 L880.25,587.56 L880.02,584.30 Z M877.93,653.93 L877.53,655.25 L877.36,658.10 L877.93,653.93 Z M875.16,659.63 L875.21,662.62 L875.67,661.30 L875.16,659.63 Z M869.39,593.05 L869.34,593.71 L872.27,593.40 L869.39,593.05 Z M833.71,507.85 L837.45,507.16 L842.03,505.56 L833.71,507.85 Z M837.39,516.32 L838.17,516.59 L837.67,516.26 L837.39,516.32 Z M840.54,518.40 L840.50,518.14 L840.13,517.89 L840.54,518.40 Z M839.37,532.80 L839.58,533.31 L840.33,532.59 L839.37,532.80 Z M839.93,534.19 L844.29,538.29 L839.91,534.14 L839.93,534.19 Z M846.83,535.93 L848.70,535.86 L848.98,540.10 L849.03,535.68 L846.83,535.93 Z M846.27,547.95 L846.94,546.28 L847.45,541.28 L846.27,547.95 Z M837.45,554.07 L840.39,554.21 L836.94,553.30 L831.51,551.77 L837.88,554.34 L837.45,554.07 Z M841.03,555.08 L842.53,555.39 L842.70,556.34 L843.08,554.67 L841.03,555.08 Z M850.17,566.85 L848.21,567.06 L849.71,569.15 L848.92,567.69 L850.17,566.85 Z M849.15,573.67 L850.23,571.82 L849.88,571.72 L849.15,573.67 Z M843.78,575.40 L844.74,574.92 L847.74,571.93 L843.78,575.40 Z M842.73,587.64 L842.59,586.66 L841.91,585.13 L842.73,587.64 Z M841.29,596.18 L843.10,590.27 L843.06,590.02 L841.29,596.18 Z M837.79,563.31 L837.67,566.58 L838.40,554.67 L838.40,554.67 L837.79,563.31 Z M837.79,452.60 L834.79,451.49 L835.31,451.21 L832.92,451.14 L837.79,452.60 Z M822.96,579.11 L822.46,579.02 L821.94,579.31 L822.96,579.11 Z M825.29,580.13 L823.99,586.87 L824.89,584.85 L825.29,580.13 Z M831.85,582.36 L832.02,582.84 L833.28,581.79 L831.85,582.36 Z M837.17,579.52 L838.24,578.95 L841.80,573.94 L837.17,579.52 Z M821.95,565.60 L821.76,565.41 L819.30,568.31 L821.95,565.60 Z M830.04,566.09 L826.93,565.95 L828.68,566.30 L830.04,566.09 Z M829.93,564.07 L829.19,563.73 L830.04,566.09 L829.93,564.07 Z M817.26,548.30 L817.58,548.74 L817.43,546.08 L817.26,548.30 Z M818.11,545.03 L818.15,544.59 L817.43,546.08 L818.11,545.03 Z M835.58,540.24 L837.80,542.73 L838.12,542.46 L835.58,540.24 Z M831.84,536.06 L832.51,536.81 L832.53,536.42 L831.84,536.06 Z M829.98,533.98 L830.50,534.56 L830.53,534.34 L829.98,533.98 Z M835.09,547.55 L835.13,548.16 L836.48,551.08 L835.09,547.55 Z M808.70,512.03 L810.61,512.65 L810.08,512.09 L808.70,512.03 Z M818.96,517.03 L831.62,514.11 L831.95,513.55 L818.96,517.03 Z M832.40,512.79 L832.70,512.30 L831.96,508.62 L832.40,512.79 Z M835.88,497.07 L836.25,496.56 L835.86,496.94 L835.88,497.07 Z M834.79,434.95 L837.50,432.59 L834.85,433.91 L836.03,433.49 L834.79,434.95 Z M839.37,433.01 L839.16,432.62 L839.09,432.94 L839.37,433.01 Z M840.39,652.89 L841.49,652.39 L839.43,652.35 L840.39,652.89 Z M843.43,651.85 L843.63,652.01 L843.61,651.78 L843.61,651.77 L843.43,651.85 Z M852.71,661.78 L854.18,658.87 L852.71,661.72 L852.71,661.78 Z M859.10,647.54 L852.15,646.77 L856.84,647.54 L859.10,647.54 Z M862.38,644.62 L858.24,643.90 L859.61,644.48 L862.38,644.62 Z M869.05,668.46 L870.22,665.58 L870.07,665.89 L869.05,668.46 Z M857.40,678.05 L855.14,680.13 L858.03,678.53 L856.84,678.95 L857.40,678.05 Z M853.69,670.77 L856.89,674.64 L854.12,671.24 L854.26,670.35 L853.69,670.77 Z M856.22,667.48 L855.82,669.22 L856.59,667.19 L856.22,667.48 Z M859.21,665.12 L857.54,666.44 L858.14,666.51 L859.21,665.12 Z M852.71,663.11 L853.57,662.74 L852.71,662.44 L852.71,663.11 Z M859.38,574.29 L856.22,575.61 L857.46,575.47 L859.38,574.29 Z M862.62,572.68 L862.75,572.15 L862.66,572.28 L860.57,571.02 L862.62,572.68 Z M869.22,577.14 L868.26,578.04 L869.94,576.88 L866.80,574.53 L869.22,577.14 Z M853.79,609.94 L853.95,609.99 L853.70,609.83 L853.79,609.94 Z M858.20,613.76 L858.62,610.66 L857.10,610.91 L858.08,611.19 L858.20,613.76 Z M860.46,610.36 L862.90,611.93 L862.94,611.54 L860.46,610.36 Z M865.55,613.62 L865.43,618.63 L865.64,618.50 L865.55,613.62 Z M857.40,632.04 L856.72,630.51 L856.73,630.65 L857.40,632.04 Z M875.19,655.57 L874.76,655.15 L874.93,655.60 L875.19,655.57 Z M856.33,619.74 L852.02,621.96 L852.15,622.17 L856.33,619.74 Z M860.74,620.64 L862.83,620.51 L862.44,621.69 L863.23,620.30 L860.74,620.64 Z M865.17,621.83 L864.98,622.66 L864.92,626.69 L865.17,621.83 Z M856.70,629.33 L857.12,628.77 L856.67,627.80 L856.70,629.33 Z M857.06,594.44 L854.97,593.61 L854.07,593.86 L857.06,594.44 Z M859.44,600.14 L857.92,593.70 L857.74,593.68 L857.74,593.68 L858.25,595.49 L859.44,600.14 Z M871.26,595.76 L871.88,600.35 L871.68,595.64 L871.26,595.76 Z M852.37,607.72 L851.41,607.02 L852.31,608.13 L852.37,607.72 Z M874.08,543.23 L874.82,542.95 L875.02,542.43 L874.08,543.23 Z M875.43,541.39 L875.72,540.65 L874.44,536.66 L875.43,541.39 Z M866.51,555.60 L862.04,558.31 L861.68,559.05 L866.51,555.60 Z M870.95,550.23 L870.75,555.94 L871.14,551.36 L873.86,553.09 L870.95,550.23 Z M876.47,566.24 L876.57,566.72 L876.89,566.86 L876.47,566.24 Z M863.40,568.43 L863.45,569.16 L863.57,568.66 L863.40,568.43 Z M877.53,577.90 L877.42,576.86 L875.27,574.78 L877.53,577.90 Z M872.32,573.85 L868.77,569.63 L871.93,573.87 L872.32,573.85 Z M871.26,563.52 L874.65,564.42 L874.36,563.99 L871.26,563.52 Z M856.06,551.33 L855.76,552.05 L855.93,553.44 L856.06,551.33 Z M856.51,550.25 L858.31,548.44 L857.06,549.27 L856.99,549.11 L856.51,550.25 Z M870.44,548.94 L868.65,550.52 L870.18,549.48 L870.44,548.94 Z M855.09,545.10 L854.52,544.96 L855.39,545.74 L855.09,545.10 Z M850.45,543.92 L853.05,544.82 L853.15,544.61 L850.45,543.92 Z M858.14,534.96 L860.91,527.63 L860.68,527.67 L858.14,534.96 Z M864.81,523.42 L862.38,524.25 L862.18,525.00 L864.81,523.42 Z M865.03,521.55 L864.47,521.75 L864.81,523.42 L865.03,521.55 Z M865.15,520.50 L864.75,519.25 L865.15,520.51 L865.15,520.50 Z M871.59,524.25 L870.92,521.75 L869.67,517.58 L871.59,524.25 Z M876.13,511.19 L876.23,510.01 L875.95,510.91 L876.13,511.19 Z M873.89,534.05 L875.61,531.62 L873.74,533.36 L873.89,534.05 Z M858.53,510.77 L858.20,513.34 L859.67,507.09 L858.53,510.77 Z M872.16,502.71 L871.88,501.79 L870.12,507.51 L872.16,502.71 Z M851.20,508.07 L850.58,509.22 L852.65,509.73 L851.35,508.90 L851.20,508.07 Z M848.58,512.93 L849.21,512.93 L850.09,510.12 L848.58,512.93 Z M853.67,495.48 L851.07,494.65 L853.67,496.25 L853.67,495.48 Z M850.79,488.12 L851.75,493.19 L850.96,488.81 L852.54,481.93 L850.79,488.12 Z M858.48,487.63 L858.90,487.13 L857.40,486.80 L858.08,487.77 L857.74,489.11 L858.48,487.63 Z M878.55,423.83 L877.81,423.66 L879.74,425.57 L878.55,423.83 Z M877.51,423.58 L878.32,424.46 L877.75,423.64 L877.51,423.58 Z M873.87,447.94 L873.80,447.53 L872.39,447.88 L873.87,447.94 Z M872.44,459.41 L874.14,449.55 L873.96,448.46 L872.44,459.41 Z M877.14,465.39 L878.89,466.43 L872.44,459.41 L877.14,465.39 Z M881.21,465.88 L879.74,463.31 L880.92,465.67 L878.89,466.43 L881.21,465.88 Z M883.75,479.50 L882.90,478.39 L881.47,477.88 L883.75,479.50 Z M879.11,488.32 L882.79,481.58 L883.75,479.50 L879.11,488.32 Z M879.94,490.44 L880.30,489.92 L879.11,488.32 L879.94,490.44 Z M876.80,493.26 L877.98,492.36 L878.44,490.76 L876.80,493.26 Z M873.90,492.09 L874.48,492.84 L876.80,493.26 L873.90,492.09 Z M855.31,460.74 L862.10,466.85 L859.38,464.07 L855.31,460.74 Z M855.65,444.47 L862.61,448.43 L861.93,450.31 L862.74,448.40 L855.65,444.47 Z M845.87,478.39 L850.45,475.19 L852.37,474.84 L849.60,475.26 L845.87,478.39 Z M859.21,478.25 L859.89,478.94 L858.99,475.82 L859.21,478.25 Z M869.80,487.58 L867.45,484.76 L869.45,487.70 L869.80,487.58 Z M858.36,423.97 L858.31,422.79 L857.52,425.22 L858.36,423.97 Z M876.51,423.97 L876.78,423.40 L875.10,423.00 L876.51,423.97 Z M856.98,430.01 L857.52,429.95 L857.67,429.32 L856.98,430.01 Z M888.60,455.32 L889.01,454.41 L888.39,453.31 L888.60,455.32 Z M891.04,549.62 L891.30,549.18 L888.50,549.02 L891.04,549.62 Z M900.54,549.41 L899.92,548.65 L898.45,549.23 L900.54,549.41 Z M902.38,547.05 L900.32,539.54 L902.07,546.70 L902.38,547.05 Z M885.05,586.04 L887.01,581.95 L886.86,582.07 L885.05,586.04 Z M891.89,585.20 L888.16,580.96 L887.80,581.27 L891.89,585.20 Z M889.40,597.43 L889.29,598.75 L889.54,598.75 L889.40,597.43 Z M890.42,601.39 L890.17,601.37 L890.31,601.98 L890.42,601.39 Z M893.65,603.45 L893.03,603.93 L893.59,603.90 L893.65,603.45 Z M894.15,603.06 L893.77,603.35 L894.22,605.21 L894.15,603.06 Z M896.47,608.76 L894.65,606.98 L894.83,607.72 L896.47,608.76 Z M890.70,577.56 L896.81,570.68 L893.14,574.29 L890.70,577.56 Z M894.89,492.70 L894.61,491.10 L895.11,494.58 L894.89,492.70 Z M905.80,497.29 L905.48,499.32 L906.38,497.29 L899.69,494.72 L905.80,497.29 Z M907.84,495.90 L908.23,493.95 L906.63,492.06 L907.84,494.02 L907.84,495.90 Z M913.55,480.19 L911.40,493.33 L911.51,494.00 L913.55,480.19 Z M915.98,478.94 L916.09,478.11 L913.55,480.19 L915.98,478.94 Z M917.18,479.72 L917.28,479.36 L915.98,478.94 L917.18,479.72 Z M924.40,481.10 L924.12,481.86 L924.64,482.10 L924.40,481.10 Z M927.62,483.46 L927.06,484.50 L926.72,485.61 L927.62,483.46 Z M885.55,511.75 L886.01,512.09 L888.50,511.33 L885.55,511.75 Z M894.89,505.07 L896.13,505.42 L892.40,504.31 L894.89,505.07 Z M902.58,510.80 L903.09,511.54 L904.61,511.19 L902.58,510.80 Z M906.99,507.44 L905.40,509.24 L903.82,509.80 L904.78,510.08 L906.99,507.44 Z M913.70,507.11 L915.02,507.16 L913.70,507.09 L913.70,507.11 Z M915.86,499.31 L917.05,501.11 L916.32,499.44 L915.86,499.31 Z M926.65,501.81 L925.59,506.53 L923.38,505.98 L926.04,506.67 L926.65,501.81 Z M930.22,507.99 L935.60,505.35 L933.22,506.05 L930.22,507.99 Z M889.57,530.79 L889.64,530.68 L888.90,530.84 L889.57,530.79 Z M901.67,532.94 L902.71,529.96 L902.63,530.09 L901.67,532.94 Z M904.73,526.55 L904.00,527.77 L905.69,526.11 L903.49,526.35 L904.73,526.55 Z M906.59,525.23 L906.50,524.82 L906.30,525.52 L906.59,525.23 Z M916.71,515.43 L915.13,519.04 L919.31,510.77 L916.71,515.43 Z M900.51,525.88 L898.34,522.93 L899.92,525.78 L900.51,525.88 Z M914.97,512.05 L914.96,512.65 L915.23,513.07 L914.97,512.05 Z M891.44,499.58 L890.25,501.74 L892.17,499.65 L894.38,497.78 L891.44,499.58 Z M912.25,498.19 L912.74,495.93 L911.70,495.04 L912.25,498.19 Z M884.15,502.29 L884.60,500.69 L883.55,502.63 L884.15,502.29 Z M887.82,500.00 L888.14,499.49 L884.60,500.69 L887.82,500.00 Z M888.44,499.03 L887.65,495.90 L888.42,499.06 L888.44,499.03 Z M904.35,506.53 L904.10,508.13 L904.90,506.53 L904.35,506.53 Z M929.21,489.23 L927.62,494.09 L928.98,490.34 L930.85,487.35 L929.21,489.23 Z M934.71,494.45 L934.16,494.06 L932.88,499.10 L934.63,494.51 L934.71,494.45 Z M937.01,492.63 L937.32,491.56 L935.99,493.44 L937.01,492.63 Z M920.13,493.05 L920.73,494.86 L920.50,492.77 L923.16,484.78 L920.13,493.05 Z M922.14,466.02 L919.20,477.62 L919.20,477.62 L922.42,466.78 L928.08,467.68 L922.08,466.71 L922.70,461.57 L922.14,466.02 Z M924.74,457.89 L924.80,457.04 L922.70,461.57 L924.74,457.89 Z M939.27,468.73 L933.79,465.04 L930.28,462.75 L941.01,470.60 L939.27,468.73 Z M887.93,461.71 L886.97,463.31 L888.55,461.54 L887.93,461.71 Z M889.86,461.18 L891.67,461.36 L890.70,460.94 L889.86,461.18 Z M904.10,470.05 L905.18,467.27 L904.16,469.07 L903.26,472.62 L904.10,470.05 Z M889.91,477.07 L891.10,473.73 L888.05,481.51 L889.91,477.07 Z M905.71,487.44 L905.07,489.51 L905.29,489.88 L905.86,487.63 L905.71,487.44 Z M934.49,478.33 L926.38,473.80 L933.58,478.20 L934.49,478.33 Z M943.98,449.44 L944.70,450.03 L949.50,452.95 L944.59,449.41 L943.98,449.44 Z M957.42,450.03 L958.56,449.34 L955.21,450.38 L957.42,450.03 Z M963.08,443.25 L962.73,443.22 L962.62,443.77 L963.08,443.25 Z M904.90,457.05 L905.61,457.12 L904.16,455.83 L904.90,457.05 Z M907.21,457.26 L907.55,456.92 L906.83,457.23 L907.21,457.26 Z M925.58,455.36 L925.87,455.31 L927.17,451.91 L925.58,455.36 Z M928.75,451.42 L929.07,450.75 L927.17,451.91 L928.75,451.42 Z M835.69,965.27 L836.32,960.75 L835.30,959.78 L832.98,950.61 L833.77,945.60 L835.24,946.99 L837.22,946.58 L838.29,944.77 L836.99,943.52 L838.12,942.13 L838.97,943.17 L839.54,949.84 L838.29,954.85 L840.61,961.24 L840.61,967.84 L839.99,968.61 L839.42,967.01 L837.45,968.05 L837.11,966.04 L836.48,967.57 L835.69,965.27 Z M880.13,954.71 L879.91,954.22 L880.36,954.15 L880.13,954.71 Z M875.50,947.20 L876.51,947.34 L875.78,947.62 L875.50,947.20 Z M876.17,946.44 L876.17,945.60 L876.63,946.79 L876.17,946.44 Z M868.94,933.86 L869.45,934.97 L869.50,936.57 L868.94,935.88 L868.94,933.86 Z M868.26,932.19 L868.82,932.54 L867.98,932.19 L868.26,932.19 Z M866.73,932.54 L865.43,931.71 L866.85,931.15 L866.73,932.54 Z M868.15,931.08 L868.60,931.43 L868.54,931.98 L868.15,931.08 Z M886.97,958.74 L886.24,958.04 L886.63,957.70 L886.97,958.74 Z M886.92,957.77 L887.82,957.21 L888.61,957.91 L886.92,957.77 Z M880.70,953.74 L880.53,953.39 L880.98,953.81 L880.70,953.74 Z M885.67,944.56 L885.39,944.08 L885.84,944.49 L885.67,944.56 Z M880.70,937.68 L883.07,939.28 L884.43,942.96 L880.41,939.98 L880.70,937.68 Z M898.34,936.92 L898.79,932.54 L901.62,933.30 L902.01,934.97 L900.99,936.36 L901.45,939.84 L898.34,936.92 Z M897.77,931.08 L898.22,930.52 L898.73,930.66 L898.11,931.50 L897.77,931.08 Z M887.09,925.38 L887.20,925.80 L887.03,925.73 L887.09,925.38 Z M888.22,925.80 L887.82,925.31 L888.39,924.89 L888.22,925.80 Z M887.14,924.06 L887.03,925.17 L886.35,924.69 L885.73,922.05 L887.14,924.06 Z M889.46,923.92 L890.03,913.98 L892.57,917.25 L894.21,915.51 L895.85,916.14 L897.49,913.57 L900.71,916.21 L901.73,915.58 L902.07,918.01 L903.37,919.06 L900.71,922.74 L900.26,927.67 L898.05,930.52 L895.85,930.59 L891.84,924.83 L889.46,923.92 Z M941.14,546.56 L940.40,545.59 L941.53,544.34 L943.74,544.48 L945.09,545.80 L941.14,546.56 Z" /></g></svg>