<svg xmlns="http://www.w3.org/2000/svg" viewBox="0 0 1000 1000" width="1000" height="1000"><g fill="#cccccc" stroke="#222" stroke-width="2"><path d="M224.10,570.47 L192.92,550.79 L162.90,504.62 L134.34,476.57 L121.52,464.02 L88.15,413.85 L86.55,409.84 L82.47,394.68 L59.88,362.97 L53.62,346.94 L19.23,295.55 L35.26,295.90 L57.84,317.33 L68.92,333.01 L77.22,323.42 L83.78,324.99 L90.63,319.42 L110.30,305.65 L111.17,299.90 L107.68,292.24 L113.65,287.19 L117.88,277.43 L127.64,283.00 L128.66,286.49 L142.21,286.66 L145.12,285.44 L146.29,279.35 L150.22,277.26 L150.52,273.42 L155.18,268.20 L169.46,261.05 L170.19,253.21 L179.80,255.30 L180.53,251.99 L183.59,251.82 L200.20,256.52 L214.34,230.74 L237.65,249.55 L252.66,267.85 L280.34,227.25 L282.97,193.45 L278.74,176.03 L284.42,151.81 L284.86,118.71 L308.03,129.86 L365.00,114.71 L372.58,117.49 L377.68,134.39 L382.34,139.79 L386.27,143.97 L389.19,140.14 L391.96,140.32 L391.81,144.32 L395.16,145.72 L401.14,135.09 L411.92,133.52 L426.93,119.41 L425.03,87.70 L412.50,84.74 L418.33,77.07 L416.44,60.87 L422.12,57.73 L419.79,55.82 L422.26,44.67 L420.08,42.58 L420.52,38.05 L427.51,32.82 L428.53,25.85 L438.00,19.23 L467.00,31.43 L510.56,73.59 L514.35,81.43 L541.16,118.89 L554.71,131.43 L579.63,146.94 L592.45,152.69 L620.28,179.69 L639.37,194.33 L670.84,219.06 L684.69,231.78 L729.71,262.27 L761.77,277.43 L790.76,298.68 L806.21,313.32 L820.34,329.35 L856.33,383.36 L897.28,422.04 L925.69,453.40 L950.17,490.50 L980.77,528.49 L932.69,578.84 L910.10,609.33 L915.20,616.64 L919.57,648.18 L919.28,688.60 L920.74,690.16 L922.49,691.56 L926.42,688.95 L931.96,695.74 L935.45,722.40 L934.58,742.78 L910.83,807.07 L900.92,828.32 L878.48,865.26 L854.88,897.84 L845.55,904.98 L842.34,902.54 L839.87,904.63 L841.03,911.08 L825.30,924.50 L788.72,949.06 L715.72,976.07 L687.02,980.07 L684.10,978.16 L686.00,972.23 L680.46,966.13 L660.06,976.94 L647.09,980.77 L633.54,979.20 L627.42,973.28 L634.13,977.11 L625.24,971.88 L627.13,964.74 L623.93,952.20 L624.80,945.92 L610.08,934.60 L585.90,901.32 L570.16,887.04 L538.39,865.78 L525.28,881.98 L485.36,852.72 L463.35,837.91 L436.54,813.86 L394.43,770.31 L359.03,730.06 L338.63,708.46 L309.78,668.91 L281.95,637.20 L255.86,601.14 L250.47,593.99 L224.10,570.47 Z M292.87,300.25 L300.40,305.43 L252.66,267.85 L292.87,300.25 Z M493.52,114.18 L486.52,125.51 L514.35,81.43 L493.52,114.18 Z M490.97,111.18 L490.31,112.27 L493.52,114.18 L490.97,111.18 Z M873.96,494.86 L893.63,525.00 L932.69,578.84 L873.96,494.86 Z M825.73,435.97 L809.56,417.51 L804.70,413.98 L838.70,452.52 L858.52,476.22 L873.96,494.86 L825.73,435.97 Z M539.71,191.36 L535.92,201.64 L541.02,188.05 L540.73,179.52 L539.71,191.36 Z M534.46,223.42 L538.10,232.65 L532.71,215.75 L534.46,223.42 Z M555.44,259.66 L560.69,253.39 L558.07,256.52 L555.44,259.66 Z M535.92,295.37 L548.45,293.11 L553.69,291.72 L535.92,295.37 Z M547.43,325.17 L556.17,331.79 L575.84,339.28 L553.84,329.70 L546.50,324.05 L547.43,325.17 Z M565.64,355.13 L585.60,353.04 L595.37,351.13 L576.72,353.91 L565.64,355.13 Z M598.43,379.52 L596.24,357.92 L595.37,351.13 L598.43,379.52 Z M628.44,349.73 L637.19,345.20 L621.16,351.30 L596.24,357.92 L628.44,349.73 Z M556.90,413.67 L559.38,424.30 L556.94,413.60 L534.90,422.21 L556.90,413.67 Z M496.28,443.64 L494.10,436.50 L495.37,444.38 L534.90,422.21 L496.28,443.64 Z M547.57,513.85 L539.85,510.89 L557.05,521.17 L547.72,515.24 L547.28,508.62 L547.57,513.85 Z M587.94,518.55 L596.68,522.74 L583.42,515.94 L587.94,518.55 Z M564.48,579.71 L566.73,581.32 L561.42,570.82 L564.48,579.71 Z M567.54,593.65 L568.56,584.93 L568.04,583.91 L567.54,593.65 Z M556.46,772.05 L568.41,762.99 L551.22,775.01 L556.46,772.05 Z M550.05,784.07 L560.98,826.41 L550.30,783.88 L550.05,784.07 Z M548.89,829.02 L496.28,841.56 L670.55,801.32 L638.79,808.64 L560.98,826.41 L548.89,829.02 Z M680.32,803.06 L694.74,805.15 L681.34,803.06 L670.55,801.32 L680.32,803.06 Z M381.32,199.38 L376.37,199.38 L377.24,199.90 L381.32,199.38 Z M437.85,272.90 L432.03,271.16 L455.34,280.39 L437.85,272.90 Z M456.65,302.17 L450.24,295.37 L456.58,302.80 L456.65,302.17 Z M445.96,304.76 L456.36,304.61 L456.46,303.74 L446.31,303.74 L445.96,304.76 Z M417.02,378.48 L408.71,352.35 L416.00,349.38 L407.98,351.30 L417.02,378.48 Z M427.80,420.82 L432.90,430.75 L427.07,395.90 L432.46,429.35 L427.80,420.82 Z M401.43,463.33 L403.47,468.20 L399.53,457.23 L401.43,463.33 Z M386.56,480.23 L390.03,488.07 L393.85,482.66 L389.92,487.54 L386.56,480.23 Z M382.78,515.24 L387.73,515.07 L381.17,513.33 L382.78,515.24 Z M362.96,559.85 L359.46,561.41 L355.38,564.38 L362.96,559.85 Z M387.15,540.33 L384.09,541.20 L390.79,543.29 L387.15,540.33 Z M446.23,568.30 L445.58,568.38 L434.94,571.17 L446.23,568.30 Z M400.86,591.41 L413.81,589.81 L403.03,589.46 L400.86,591.41 Z M477.05,643.65 L445.72,650.62 L417.02,657.41 L433.77,653.58 L477.05,643.65 Z M441.35,696.79 L441.35,691.91 L440.77,697.33 L441.35,696.79 Z M425.47,711.59 L437.23,700.63 L432.03,703.58 L425.47,711.59 Z M144.98,372.03 L157.56,378.33 L153.43,375.87 L144.98,372.03 Z M191.03,394.38 L201.22,400.08 L192.48,399.73 L202.97,401.30 L198.45,396.77 L191.03,394.38 Z M173.39,469.95 L163.92,474.30 L177.23,468.38 L173.39,469.95 Z M303.56,452.39 L303.56,452.39 L312.84,466.46 L303.56,452.39 Z M355.53,452.35 L368.93,450.78 L368.63,449.57 L355.53,452.35 Z M362.67,366.11 L374.38,357.46 L374.38,357.46 L362.67,366.11 Z M239.25,523.78 L239.40,519.77 L236.19,512.98 L239.25,523.78 Z M297.30,569.18 L310.50,577.79 L298.85,569.60 L297.30,569.18 Z M336.38,528.31 L336.15,527.44 L337.61,525.70 L335.39,528.24 L336.38,528.31 Z M352.59,610.16 L351.59,606.36 L349.90,606.69 L352.59,610.16 Z M261.40,497.13 L258.49,497.82 L268.13,500.06 L261.40,497.13 Z M273.49,500.36 L272.79,501.14 L273.49,501.31 L273.49,500.36 Z M279.03,479.78 L273.35,484.58 L279.03,481.79 L279.03,479.78 Z M326.39,517.51 L331.49,527.96 L332.85,528.06 L326.39,517.51 Z M381.76,505.66 L377.09,501.83 L383.51,507.93 L381.76,505.66 Z M360.49,495.91 L360.92,497.65 L361.67,497.33 L360.49,495.91 Z M362.23,479.18 L358.88,489.46 L359.59,492.29 L362.23,479.18 Z M260.97,485.59 L259.65,487.37 L261.10,489.10 L260.97,485.59 Z M160.42,356.53 L162.17,345.38 L159.89,357.25 L160.42,356.53 Z M163.18,322.68 L162.46,324.30 L162.91,324.49 L163.18,322.68 Z M163.99,317.31 L164.07,316.80 L161.94,313.84 L162.03,315.41 L163.99,317.31 Z M226.58,315.76 L224.54,305.13 L223.33,304.93 L226.58,315.76 Z M215.94,345.38 L217.55,344.39 L218.85,331.79 L215.94,345.38 Z M315.17,315.58 L318.76,315.25 L313.20,314.23 L315.17,315.58 Z M343.43,312.97 L344.47,312.52 L338.82,313.40 L343.43,312.97 Z M455.19,552.18 L456.65,555.49 L460.44,558.80 L455.19,552.18 Z M493.52,548.54 L516.98,541.38 L511.29,541.55 L493.52,548.54 Z M527.61,535.63 L530.23,533.54 L516.98,541.38 L527.61,535.63 Z M532.27,515.24 L536.79,521.17 L535.63,517.16 L540.87,517.16 L532.27,515.24 Z M465.54,724.84 L461.31,680.93 L462.48,695.91 L465.54,724.84 Z M477.47,737.65 L476.61,738.08 L479.06,748.57 L479.07,748.57 L477.47,737.65 Z M484.63,747.31 L484.87,745.94 L479.66,748.43 L484.63,747.31 Z M525.57,817.87 L501.97,819.44 L495.26,821.35 L525.57,817.87 Z M511.88,771.00 L521.93,771.35 L523.94,770.23 L511.88,771.00 Z M501.84,626.53 L486.81,633.89 L500.36,628.14 L501.84,626.53 Z M492.20,685.29 L523.53,679.19 L533.00,675.36 L492.20,685.29 Z M491.72,573.20 L493.77,583.66 L493.08,572.74 L491.72,573.20 Z M495.41,270.11 L500.22,264.89 L483.02,279.17 L495.41,270.11 Z M528.78,237.18 L520.15,239.68 L520.33,241.54 L528.78,237.18 Z M495.12,407.23 L475.16,421.86 L477.63,420.12 L495.12,407.23 Z M500.66,482.66 L499.64,487.89 L504.01,474.13 L500.66,482.66 Z M496.07,448.67 L496.72,452.70 L504.01,474.13 L496.07,448.67 Z M489.87,399.39 L488.27,388.41 L489.14,381.44 L487.40,385.27 L489.87,399.39 Z M530.82,182.30 L528.46,182.64 L531.90,184.01 L530.82,182.30 Z M518.30,219.91 L518.51,222.09 L519.02,220.81 L518.30,219.91 Z M519.36,231.17 L519.77,235.60 L520.04,233.70 L519.36,231.17 Z M433.19,138.23 L418.33,175.51 L434.79,135.26 L433.19,138.23 Z M669.33,912.85 L661.08,901.85 L667.35,911.95 L669.33,912.85 Z M589.10,228.30 L588.96,234.05 L589.98,259.14 L589.10,228.30 Z M595.22,250.60 L602.36,213.32 L601.34,218.54 L591.29,270.81 L595.22,250.60 Z M586.62,269.76 L586.77,260.70 L586.33,271.51 L591.29,270.81 L586.62,269.76 Z M591.00,277.60 L590.12,302.17 L587.96,302.63 L590.16,302.61 L591.29,270.81 L591.00,277.60 Z M637.33,279.69 L630.77,282.13 L619.85,286.66 L637.33,279.69 Z M686.87,354.44 L669.53,339.98 L673.03,342.94 L686.87,354.44 Z M720.82,462.45 L719.80,472.39 L721.26,474.48 L720.82,462.45 Z M711.79,511.76 L718.75,484.38 L711.79,509.50 L711.79,511.76 Z M711.21,572.22 L691.24,571.00 L691.07,566.43 L690.25,571.07 L711.21,572.22 Z M680.02,629.36 L681.77,633.72 L676.38,613.33 L676.96,620.13 L680.02,629.36 Z M715.43,660.55 L697.36,666.64 L687.89,670.65 L715.43,660.55 Z M666.33,676.75 L665.16,673.79 L664.93,677.89 L666.33,676.75 Z M665.02,681.80 L664.74,681.27 L664.67,682.38 L665.02,681.80 Z M663.27,684.76 L663.29,684.73 L662.39,685.20 L663.27,684.76 Z M673.77,710.97 L673.90,708.11 L663.27,684.76 L673.77,710.97 Z M673.56,715.28 L673.60,714.43 L673.32,714.56 L673.56,715.28 Z M672.16,719.96 L673.18,723.44 L673.41,718.61 L666.18,722.40 L672.16,719.96 Z M642.72,423.43 L638.79,478.48 L639.66,478.48 L642.72,423.43 Z M564.66,410.58 L575.99,407.40 L586.62,402.00 L564.66,410.58 Z M588.37,398.34 L596.53,396.42 L614.75,391.20 L588.37,398.34 Z M586.73,371.46 L586.04,371.34 L588.37,398.34 L586.73,371.46 Z M596.25,717.71 L596.25,717.71 L605.42,764.56 L596.25,717.71 Z M627.19,603.03 L623.20,607.93 L626.84,604.97 L627.19,603.03 Z M619.99,634.59 L626.55,632.85 L621.01,635.98 L631.65,630.41 L619.99,634.59 Z M642.43,522.56 L643.77,522.42 L641.85,513.33 L642.43,522.56 Z M561.04,317.17 L561.04,317.17 L551.95,307.57 L561.04,317.17 Z M602.65,302.52 L603.96,316.11 L601.93,286.46 L601.93,286.46 L602.65,302.52 Z M574.68,272.03 L576.86,268.54 L576.95,268.57 L577.74,266.45 L574.68,272.03 Z M600.61,270.11 L600.61,265.58 L599.78,270.20 L600.61,270.11 Z M599.79,277.64 L599.23,273.22 L599.01,274.47 L599.79,277.64 Z M869.28,616.67 L869.30,616.64 L869.31,616.62 L869.28,616.67 Z M871.76,674.95 L871.63,678.67 L873.96,697.83 L871.76,674.95 Z M777.50,864.74 L796.74,853.76 L779.98,863.17 L770.80,863.87 L777.50,864.74 Z M826.75,757.07 L827.55,755.13 L821.36,768.39 L826.75,757.07 Z M767.45,845.22 L772.26,842.44 L776.34,840.00 L767.45,845.22 Z M771.09,893.48 L775.32,900.28 L780.42,911.78 L777.07,901.50 L771.09,893.48 Z M755.36,760.20 L753.90,747.31 L754.60,762.21 L755.36,760.20 Z M801.69,734.59 L802.23,736.07 L802.97,733.53 L801.69,734.59 Z M837.04,731.21 L835.57,733.31 L836.37,733.72 L837.04,731.21 Z M750.89,766.59 L752.88,766.82 L753.14,766.12 L750.89,766.59 Z M766.58,474.22 L765.26,473.43 L764.84,475.48 L766.58,474.22 Z M770.77,471.17 L770.36,470.82 L769.69,471.95 L770.77,471.17 Z M785.23,509.84 L788.14,518.21 L784.36,500.13 L785.23,509.84 Z M799.80,523.96 L803.73,537.89 L814.95,564.20 L801.11,528.14 L799.80,523.96 Z M765.11,562.81 L761.33,557.23 L764.83,562.81 L765.11,562.81 Z M788.22,547.73 L785.08,552.70 L787.27,549.57 L782.75,562.98 L788.22,547.73 Z M791.78,542.07 L791.02,543.29 L797.61,537.89 L791.78,542.07 Z M734.81,513.50 L740.20,515.94 L744.28,515.07 L734.81,513.50 Z M744.14,512.28 L735.54,483.71 L744.28,515.07 L744.14,512.28 Z M735.54,341.89 L725.05,350.95 L725.07,352.14 L735.54,341.89 Z M715.43,361.41 L721.70,365.59 L721.70,364.62 L715.43,361.41 Z M725.19,359.66 L726.10,362.16 L725.15,357.22 L725.19,359.66 Z" /></g></svg>