<svg xmlns="http://www.w3.org/2000/svg" viewBox="0 0 1000 1000" width="1000" height="1000"><g fill="#cccccc" stroke="#222" stroke-width="2"><path d="M501.70,933.36 L495.29,939.24 L492.36,943.82 L491.49,949.10 L487.29,953.48 L483.25,955.37 L470.50,953.18 L461.08,949.20 L454.90,952.28 L449.92,952.28 L442.71,946.81 L442.63,931.97 L440.57,926.69 L434.47,919.61 L424.89,915.43 L420.46,907.96 L416.10,905.27 L412.30,904.48 L402.40,908.36 L396.62,904.67 L391.16,896.91 L389.66,892.03 L384.91,888.64 L381.58,889.34 L380.23,892.72 L380.95,895.41 L379.12,897.70 L372.39,898.90 L365.03,888.34 L362.18,878.28 L349.91,873.30 L349.11,869.81 L345.95,868.12 L347.05,858.26 L348.72,854.68 L347.37,849.60 L342.46,848.80 L336.76,843.52 L332.80,835.15 L334.31,830.37 L333.59,822.41 L335.65,819.82 L334.46,815.73 L341.20,804.88 L341.51,799.30 L343.17,797.01 L342.38,794.02 L341.35,781.17 L337.87,774.80 L333.28,770.31 L330.43,758.66 L328.84,756.37 L336.60,744.22 L337.55,739.34 L341.75,736.65 L352.04,736.25 L345.31,736.35 L340.32,712.15 L337.47,707.87 L339.61,704.98 L346.58,703.48 L349.59,699.20 L351.96,699.10 L354.89,693.32 L362.50,687.65 L365.19,679.98 L369.31,676.89 L371.21,670.02 L376.19,669.32 L378.49,666.23 L378.73,646.91 L377.86,654.88 L372.87,652.99 L364.95,653.58 L359.72,651.29 L349.75,655.38 L344.52,654.98 L337.47,646.51 L330.35,645.71 L325.04,642.93 L315.94,644.42 L312.13,642.03 L312.21,638.54 L310.79,637.05 L303.42,636.15 L298.20,637.45 L293.21,634.96 L289.80,636.55 L281.97,635.66 L277.29,636.65 L276.50,644.02 L265.10,659.96 L253.62,660.16 L247.44,659.26 L236.20,652.29 L224.95,653.18 L207.29,656.57 L200.96,661.25 L198.50,660.56 L194.70,662.55 L189.72,660.56 L182.51,665.34 L178.95,665.04 L173.01,658.46 L148.14,650.40 L144.98,645.81 L131.44,635.85 L129.93,636.45 L130.25,638.54 L127.95,637.35 L126.05,639.44 L121.38,637.25 L121.14,639.14 L115.12,642.33 L113.70,635.26 L106.25,632.37 L99.60,634.06 L97.31,629.78 L94.85,630.68 L85.83,643.82 L84.32,644.22 L82.18,639.14 L59.85,638.24 L58.98,630.77 L60.49,617.53 L47.82,607.57 L47.58,600.60 L39.82,591.83 L43.07,588.44 L44.25,584.06 L44.73,579.88 L42.67,573.50 L54.94,564.74 L60.64,569.62 L64.05,564.84 L68.33,564.44 L72.36,567.43 L72.84,561.95 L71.02,556.17 L71.10,551.39 L74.26,554.58 L77.27,551.09 L80.92,552.59 L83.29,537.55 L78.54,533.07 L74.66,521.21 L71.41,520.32 L72.28,511.35 L69.99,508.67 L70.38,506.57 L65.95,503.39 L65.71,498.61 L61.04,497.01 L58.51,489.44 L50.51,482.57 L44.25,479.48 L44.17,476.59 L46.15,476.49 L46.31,472.01 L35.94,459.06 L21.84,443.63 L21.13,421.32 L19.94,417.23 L21.69,408.37 L19.23,402.69 L20.97,395.62 L25.17,387.85 L34.75,387.95 L37.92,385.96 L42.12,380.08 L45.84,376.89 L48.37,377.49 L50.59,379.58 L53.28,385.76 L57.40,385.86 L58.59,389.44 L64.37,391.34 L78.30,373.61 L80.20,368.23 L79.02,366.04 L80.20,361.36 L86.70,349.70 L91.29,349.21 L97.62,342.23 L102.22,345.52 L105.62,351.99 L107.20,359.07 L106.41,364.54 L101.74,369.03 L101.98,371.42 L105.07,374.70 L107.36,382.07 L117.66,390.74 L122.88,389.64 L133.57,391.93 L138.17,395.02 L142.44,392.33 L144.10,394.42 L148.30,394.52 L158.75,400.10 L160.42,399.60 L164.77,403.49 L170.55,404.58 L176.41,401.79 L180.93,393.43 L187.42,393.43 L200.33,400.00 L203.81,399.01 L210.14,402.29 L213.15,406.87 L221.23,412.85 L226.54,413.85 L229.78,412.75 L238.33,416.93 L252.19,418.23 L264.07,421.32 L271.91,417.03 L276.11,417.33 L278.56,417.53 L292.42,405.98 L289.80,397.51 L292.50,385.76 L288.93,383.37 L284.50,374.50 L275.00,367.73 L274.68,363.25 L277.93,359.36 L286.40,361.26 L294.16,367.23 L299.78,367.93 L311.50,377.29 L326.55,375.20 L334.39,368.93 L341.99,381.97 L349.51,383.27 L350.06,385.16 L354.58,385.86 L357.74,388.55 L367.33,390.64 L367.48,399.70 L370.97,410.16 L376.51,415.24 L378.81,424.20 L387.04,429.08 L389.50,432.57 L390.45,440.34 L389.66,433.77 L395.60,428.99 L396.78,424.80 L404.78,421.12 L414.76,409.66 L416.10,397.01 L424.02,389.15 L430.04,388.55 L439.15,379.19 L448.09,373.21 L451.74,363.45 L450.95,358.37 L447.78,353.29 L449.76,348.71 L448.57,344.03 L450.23,337.95 L449.44,328.09 L449.28,333.37 L447.70,329.58 L446.83,320.52 L443.90,318.33 L443.34,305.28 L439.54,298.91 L441.44,295.42 L437.48,280.28 L435.19,277.19 L432.97,277.29 L427.11,264.74 L424.34,261.56 L420.54,261.06 L420.06,255.48 L417.13,248.11 L412.62,243.73 L408.82,242.53 L410.40,238.25 L409.45,227.59 L410.17,218.43 L418.32,214.45 L418.32,206.68 L423.47,199.31 L423.07,196.22 L426.71,194.03 L426.79,192.14 L429.09,193.83 L431.54,192.93 L433.68,199.11 L429.64,186.96 L428.77,180.18 L423.39,171.82 L426.32,170.52 L428.14,160.36 L425.84,157.38 L425.45,152.00 L421.33,149.41 L419.90,149.91 L417.77,140.34 L413.89,134.47 L424.18,132.48 L426.16,126.00 L431.86,122.91 L430.83,122.62 L430.04,118.83 L433.92,117.83 L436.85,112.26 L439.86,109.87 L445.32,110.66 L454.35,116.74 L457.76,124.21 L459.26,125.01 L468.60,124.41 L470.90,128.19 L471.53,139.45 L473.04,142.34 L483.33,147.81 L485.63,154.59 L490.22,157.97 L494.97,166.34 L489.90,165.54 L495.68,166.84 L500.36,169.13 L514.45,182.67 L522.37,186.76 L527.83,199.41 L532.35,200.90 L538.05,207.97 L541.29,209.57 L544.54,217.63 L550.16,219.53 L554.91,223.31 L560.06,213.45 L562.52,211.46 L561.41,206.98 L565.92,198.61 L571.15,197.02 L567.90,190.84 L569.88,181.78 L569.25,171.32 L572.97,165.94 L569.56,154.79 L574.24,152.40 L575.98,149.81 L571.78,143.23 L571.62,132.68 L577.48,127.89 L579.07,129.79 L584.85,127.50 L586.75,133.57 L588.73,135.07 L593.48,133.87 L597.36,134.87 L600.21,132.38 L606.07,138.65 L603.93,135.17 L604.17,131.38 L601.00,125.40 L599.97,117.24 L597.83,114.15 L596.64,106.28 L597.04,102.60 L598.62,101.40 L597.60,98.21 L602.58,96.62 L607.26,91.04 L610.90,90.94 L603.14,89.65 L601.08,86.46 L595.69,84.77 L589.20,88.55 L585.48,88.65 L582.63,92.34 L577.96,90.84 L573.60,85.76 L574.55,82.08 L571.94,78.89 L574.31,72.82 L573.21,67.24 L574.47,60.86 L573.52,58.97 L573.36,46.62 L576.45,41.14 L579.86,38.65 L590.39,19.23 L595.77,19.23 L598.47,23.51 L607.49,23.41 L617.95,33.67 L620.56,30.49 L624.60,30.09 L629.35,34.97 L632.52,36.96 L635.68,36.96 L637.03,34.27 L640.12,33.67 L644.95,41.84 L646.37,58.97 L645.42,45.62 L653.02,49.01 L663.95,46.42 L667.91,46.82 L669.02,49.11 L676.86,49.21 L681.45,52.90 L682.80,55.39 L681.77,58.27 L682.32,63.25 L684.62,65.05 L687.31,75.80 L686.28,80.98 L687.39,84.77 L680.18,94.53 L681.85,100.31 L683.51,111.66 L687.31,114.05 L690.87,112.36 L691.03,114.85 L693.88,117.04 L696.73,124.71 L700.69,123.21 L704.89,124.61 L708.30,122.72 L708.69,136.86 L712.49,137.46 L713.84,140.44 L724.29,144.23 L727.14,143.93 L726.98,139.05 L729.83,137.56 L738.54,137.56 L742.74,139.95 L753.27,137.26 L754.62,133.17 L757.94,130.19 L757.94,126.00 L756.68,124.41 L764.91,128.89 L766.81,132.77 L770.53,129.59 L774.18,130.28 L779.48,125.11 L781.78,124.91 L783.28,135.36 L784.79,138.65 L786.93,139.85 L785.74,152.60 L789.46,156.88 L790.33,161.86 L792.23,162.26 L793.34,167.44 L790.41,174.21 L791.99,177.69 L790.25,183.87 L792.23,190.34 L794.92,202.89 L794.37,213.15 L799.59,217.93 L799.28,223.11 L801.02,225.00 L801.42,229.39 L807.12,234.67 L807.83,237.35 L801.18,248.31 L807.91,237.26 L811.47,238.65 L815.75,237.06 L818.36,237.85 L824.54,245.72 L828.50,246.52 L832.14,244.23 L836.49,250.90 L844.41,247.91 L849.64,251.00 L854.71,256.48 L854.31,265.34 L858.98,273.81 L868.64,275.90 L871.57,280.48 L875.69,278.19 L878.70,269.82 L893.51,264.35 L899.53,266.64 L896.44,277.00 L897.15,282.47 L895.25,289.05 L895.49,291.24 L898.50,294.62 L893.19,306.78 L895.57,312.75 L893.98,315.64 L897.86,315.84 L901.19,321.32 L895.41,337.25 L897.63,347.41 L896.28,356.97 L893.51,360.06 L890.66,372.71 L893.19,377.89 L899.45,380.38 L909.11,371.91 L916.55,373.41 L916.31,382.17 L919.48,384.76 L918.45,392.93 L912.67,401.79 L913.54,406.38 L912.35,409.66 L916.00,414.84 L919.01,414.44 L921.86,417.13 L927.24,416.44 L930.65,417.63 L931.12,420.92 L934.29,423.51 L935.08,431.08 L933.97,435.16 L937.61,444.92 L942.76,449.90 L947.91,450.80 L950.05,458.87 L954.48,467.03 L962.48,478.49 L971.74,480.48 L974.43,487.05 L978.95,490.94 L980.77,496.61 L976.49,497.81 L971.19,502.09 L964.54,522.11 L960.62,521.11 L962.64,522.21 L957.88,528.29 L965.41,537.75 L961.69,544.32 L960.74,549.80 L958.44,551.39 L955.98,556.77 L952.03,557.17 L949.89,559.56 L947.51,558.86 L946.01,560.46 L948.86,563.84 L953.37,564.94 L955.03,568.23 L961.61,572.61 L961.92,576.09 L959.71,579.28 L962.24,586.25 L967.15,584.06 L969.53,590.04 L973.96,595.42 L973.56,597.81 L970.08,605.48 L972.53,607.27 L976.18,606.97 L977.44,607.67 L977.84,615.04 L980.69,618.72 L980.77,622.81 L978.71,628.28 L977.60,626.69 L976.10,629.88 L973.88,629.38 L974.91,628.09 L974.20,626.39 L966.83,624.10 L967.07,625.30 L962.72,626.89 L959.15,626.59 L949.81,618.03 L947.99,622.31 L940.62,620.12 L936.27,617.63 L932.23,610.66 L925.74,607.07 L923.60,611.35 L920.91,612.35 L921.22,615.74 L917.58,611.85 L918.13,615.44 L919.40,615.74 L917.82,616.43 L916.95,619.92 L904.59,619.12 L900.95,620.52 L900.32,621.81 L903.01,624.00 L901.90,628.68 L894.77,629.18 L890.97,633.46 L885.51,635.06 L890.58,640.04 L890.10,645.81 L884.48,648.30 L882.50,650.79 L879.97,650.89 L877.67,656.97 L879.81,658.86 L878.78,662.15 L872.60,654.98 L870.54,654.98 L867.77,647.51 L864.84,646.95 L865.71,647.71 L861.91,652.69 L860.33,651.49 L856.69,655.18 L852.09,656.67 L851.54,661.65 L849.09,665.34 L839.98,667.43 L830.48,673.30 L827.78,676.69 L825.01,685.65 L826.28,698.50 L823.90,697.31 L819.31,699.50 L815.04,698.50 L812.74,695.02 L813.21,698.40 L817.09,703.48 L815.35,706.17 L816.46,716.53 L819.23,720.61 L820.26,726.39 L821.21,742.43 L812.50,749.90 L808.38,748.80 L804.03,751.79 L799.99,752.19 L796.67,758.86 L797.22,765.43 L804.90,771.91 L810.68,785.45 L808.54,788.44 L808.31,798.80 L810.21,802.09 L810.21,806.87 L812.26,813.94 L817.41,823.40 L816.54,828.28 L819.63,833.46 L819.63,837.84 L831.43,859.56 L831.90,868.82 L831.19,874.00 L826.68,878.98 L828.50,887.34 L828.26,892.82 L823.90,898.20 L818.12,914.04 L811.47,913.64 L805.93,917.92 L808.62,916.43 L809.89,919.91 L807.83,922.80 L810.05,927.18 L809.18,933.56 L817.17,942.02 L822.40,954.08 L820.02,961.65 L808.54,964.73 L802.05,959.65 L797.14,953.18 L796.27,947.10 L792.71,941.33 L785.42,942.12 L786.45,943.92 L785.26,947.40 L785.90,954.87 L778.29,954.87 L780.19,962.44 L782.49,966.23 L781.62,968.02 L770.69,969.71 L763.33,967.82 L758.10,968.62 L756.76,970.41 L754.93,972.70 L749.15,973.00 L744.72,975.99 L738.70,971.51 L735.69,973.30 L733.32,977.08 L725.48,980.77 L718.91,977.28 L717.56,974.99 L717.80,965.53 L718.91,963.44 L717.80,959.95 L712.10,960.55 L709.09,958.86 L709.09,953.88 L702.44,954.28 L700.93,947.20 L702.67,943.52 L701.80,939.04 L698.56,938.44 L691.11,925.39 L689.61,916.13 L691.82,903.88 L690.37,899.25 L690.24,900.89 L683.11,906.37 L672.03,907.26 L669.34,902.88 L666.25,901.09 L661.66,906.77 L655.95,906.17 L654.13,912.64 L655.08,921.91 L652.55,926.59 L652.39,929.77 L646.61,931.47 L640.91,930.87 L626.02,922.10 L620.08,923.50 L616.92,919.12 L613.12,918.02 L608.21,912.05 L604.56,911.45 L600.76,905.47 L596.96,904.97 L593.56,900.99 L589.91,891.13 L577.17,884.46 L573.92,885.35 L570.20,890.03 L569.72,896.11 L567.90,898.20 L561.01,894.12 L554.36,897.50 L545.25,897.40 L537.89,893.12 L531.16,892.62 L528.31,894.02 L521.97,902.78 L521.34,907.16 L517.38,911.45 L516.43,918.62 L513.58,921.31 L508.99,930.07 L501.70,933.36 Z M939.59,560.46 L935.71,560.26 L948.86,563.84 L939.59,560.46 Z M845.92,635.26 L849.96,649.60 L852.09,656.67 L845.92,635.26 Z M626.26,185.16 L631.25,190.24 L628.40,186.56 L626.26,185.16 Z M587.80,269.13 L597.67,279.19 L589.20,270.12 L587.80,269.13 Z M624.28,374.90 L625.55,373.81 L630.77,364.64 L624.28,374.90 Z M618.82,368.43 L620.24,371.22 L619.76,371.70 L624.28,374.90 L618.82,368.43 Z M610.17,379.58 L611.80,380.46 L611.06,379.48 L610.17,379.58 Z M613.59,402.59 L618.48,401.59 L611.06,401.69 L613.59,402.59 Z M651.68,438.05 L645.90,426.69 L645.04,425.83 L651.68,438.05 Z M678.28,450.34 L677.33,448.61 L674.25,445.02 L678.28,450.34 Z M723.89,449.90 L723.26,439.44 L723.50,446.22 L723.89,449.90 Z M721.64,455.07 L722.55,454.08 L723.89,449.90 L721.64,455.07 Z M714.87,463.25 L713.13,465.04 L718.59,462.05 L714.87,463.25 Z M713.92,467.43 L718.03,472.41 L713.13,465.04 L713.92,467.43 Z M734.35,492.33 L743.37,481.87 L739.57,485.66 L734.35,492.33 Z M725.21,505.21 L741.00,516.33 L725.64,505.28 L725.21,505.21 Z M721.36,504.58 L710.67,509.76 L716.37,507.97 L722.80,504.82 L721.36,504.58 Z M717.64,540.64 L719.01,541.41 L717.64,539.04 L717.64,540.64 Z M720.41,547.51 L720.17,543.43 L719.30,541.91 L720.41,547.51 Z M724.45,553.61 L724.45,551.89 L723.18,548.90 L724.45,553.61 Z M718.83,560.96 L724.45,556.47 L724.45,555.81 L718.83,560.96 Z M708.14,603.98 L707.50,609.66 L710.43,597.91 L708.14,603.98 Z M714.87,631.27 L716.93,633.07 L711.30,626.19 L714.87,631.27 Z M722.07,631.67 L727.14,629.58 L727.81,628.23 L716.93,633.07 L722.07,631.67 Z M753.27,586.65 L754.58,589.21 L752.24,584.46 L752.88,588.54 L753.27,586.65 Z M762.93,674.30 L762.28,676.86 L764.83,672.91 L762.93,674.30 Z M759.08,680.93 L759.77,680.77 L760.32,679.92 L759.08,680.93 Z M743.93,825.39 L745.35,825.29 L748.20,823.90 L743.93,825.39 Z M535.28,295.92 L535.07,295.73 L539.63,304.39 L535.28,295.92 Z M527.68,362.15 L522.77,357.07 L521.35,356.76 L527.68,362.15 Z M491.26,466.21 L489.03,460.06 L490.30,465.54 L491.26,466.21 Z M513.72,483.87 L513.50,484.16 L514.85,498.21 L513.72,483.87 Z M510.33,509.36 L512.22,500.51 L512.00,500.70 L510.33,509.36 Z M516.62,615.18 L516.51,613.25 L511.20,602.69 L514.85,611.15 L516.62,615.18 Z M485.63,607.97 L486.84,607.03 L483.14,606.92 L485.63,607.97 Z M483.86,642.63 L478.74,634.36 L482.86,642.33 L483.86,642.63 Z M482.43,672.50 L482.69,671.12 L482.30,671.81 L482.43,672.50 Z M487.77,674.80 L482.58,673.29 L482.70,673.90 L487.77,674.80 Z M496.63,689.94 L491.88,690.44 L497.58,690.53 L496.63,689.94 Z M501.23,697.61 L501.90,696.89 L498.77,696.71 L501.23,697.61 Z M503.52,720.71 L499.64,721.11 L504.87,721.11 L503.52,720.71 Z M509.23,722.41 L508.38,722.16 L509.31,722.83 L509.23,722.41 Z M512.79,726.79 L512.75,727.60 L516.19,726.89 L512.79,726.79 Z M520.15,729.08 L519.60,734.54 L520.15,734.16 L520.39,728.18 L516.19,726.89 L520.15,729.08 Z M517.63,721.01 L516.43,722.81 L516.19,726.89 L517.63,721.01 Z M534.17,732.37 L532.66,734.36 L530.76,741.23 L534.17,732.37 Z M554.54,721.01 L552.22,719.52 L554.20,721.01 L554.54,721.01 Z M564.42,715.20 L564.42,715.20 L576.93,720.41 L564.42,715.20 Z M604.01,732.37 L601.63,729.38 L606.15,735.26 L604.01,732.37 Z M604.01,751.59 L607.33,743.92 L603.09,752.71 L604.01,751.59 Z M626.89,816.23 L620.40,814.84 L627.30,817.07 L626.89,816.23 Z M629.32,821.23 L628.87,820.29 L629.18,821.48 L629.32,821.23 Z M628.24,829.78 L625.94,827.19 L628.61,832.08 L628.24,829.78 Z M633.31,840.03 L631.98,838.24 L634.10,842.13 L633.31,840.03 Z M627.69,848.80 L632.91,844.32 L634.10,842.13 L627.69,848.80 Z M624.12,800.59 L621.43,792.62 L620.48,792.16 L624.12,800.59 Z M178.55,542.73 L181.08,537.55 L181.40,534.06 L178.55,542.73 Z M210.70,490.04 L214.26,492.43 L210.53,489.74 L210.70,490.04 Z M215.85,498.21 L216.91,498.79 L214.26,492.43 L215.85,498.21 Z M218.62,502.89 L220.85,502.79 L220.28,500.90 L218.62,502.89 Z M239.28,539.74 L243.47,543.58 L243.16,542.93 L239.28,539.74 Z M244.35,538.84 L248.38,537.68 L247.12,537.25 L244.35,538.84 Z M250.27,538.34 L257.26,544.02 L252.03,538.94 L250.27,538.34 Z M272.30,455.08 L272.49,455.21 L269.53,449.70 L272.30,455.08 Z M322.03,495.12 L321.94,494.49 L321.64,496.51 L322.82,506.57 L322.03,495.12 Z M437.47,549.92 L440.57,549.70 L445.24,547.31 L437.47,549.92 Z M482.78,743.12 L478.42,737.84 L483.17,744.72 L482.78,743.12 Z M514.29,750.49 L514.16,752.77 L515.80,747.31 L514.29,750.49 Z M509.46,769.02 L506.90,776.33 L508.04,775.10 L509.46,769.02 Z M506.46,776.80 L503.24,778.00 L505.19,778.18 L506.46,776.80 Z M500.39,779.05 L499.25,779.48 L499.20,779.91 L500.39,779.05 Z M507.44,791.21 L505.74,798.10 L507.48,791.63 L507.44,791.21 Z M477.52,868.34 L478.18,869.22 L481.91,869.22 L477.52,868.34 Z M511.44,846.81 L516.83,848.20 L513.90,846.71 L511.44,846.81 Z M415.28,764.30 L415.63,763.14 L416.63,765.59 L414.84,756.27 L415.28,764.30 Z M391.95,792.92 L391.12,793.56 L392.67,793.92 L391.95,792.92 Z M401.06,799.80 L393.06,796.91 L394.72,798.40 L401.06,799.80 Z M418.64,839.14 L416.74,839.74 L418.91,839.67 L418.64,839.14 Z M423.39,840.43 L422.84,840.45 L421.09,851.09 L423.39,840.43 Z M448.33,823.80 L444.66,818.71 L446.83,823.00 L442.63,824.10 L448.33,823.80 Z M481.07,789.57 L477.47,792.43 L481.07,789.57 L481.07,789.57 Z M418.16,875.89 L418.16,881.17 L418.48,877.58 L418.16,875.89 Z M418.17,769.37 L418.95,771.31 L420.34,772.41 L418.17,769.37 Z M221.07,584.06 L219.37,580.01 L221.25,585.22 L221.07,584.06 Z M472.75,592.12 L464.41,597.41 L472.32,592.93 L472.75,592.12 Z M474.97,586.32 L474.57,588.69 L475.02,587.85 L474.97,586.32 Z M476.62,572.74 L474.78,580.88 L476.76,573.21 L476.62,572.74 Z M346.18,563.35 L354.58,557.17 L348.40,560.86 L346.18,563.35 Z M359.33,557.97 L359.93,557.45 L354.58,557.17 L359.33,557.97 Z M360.82,556.67 L361.86,555.78 L373.66,534.76 L360.82,556.67 Z M293.45,548.80 L296.30,554.48 L297.51,555.14 L293.45,548.80 Z M139.20,451.59 L139.27,448.01 L138.09,455.43 L139.20,451.59 Z M141.73,450.10 L141.12,450.46 L144.34,453.19 L141.73,450.10 Z M152.50,438.55 L149.89,447.01 L150.15,448.68 L152.50,438.55 Z M157.88,452.79 L150.47,450.71 L150.60,451.49 L157.88,452.79 Z M170.79,456.77 L165.56,453.59 L167.31,455.68 L165.17,456.08 L170.79,456.77 Z M196.47,479.96 L196.37,479.28 L177.76,469.82 L196.47,479.96 Z M206.02,486.50 L198.35,480.98 L203.89,485.66 L206.02,486.50 Z M264.23,439.64 L264.39,444.02 L265.42,435.56 L264.23,439.64 Z M233.50,446.12 L234.67,443.63 L232.35,446.89 L233.50,446.12 Z M556.42,752.19 L558.64,753.88 L560.69,755.18 L556.42,752.19 Z M594.69,778.28 L593.87,778.58 L592.61,784.96 L594.69,778.28 Z M597.67,768.72 L595.69,772.61 L595.40,776.01 L597.67,768.72 Z M563.78,326.90 L578.53,341.70 L578.43,341.04 L563.78,326.90 Z M626.02,444.02 L625.57,444.02 L626.26,445.55 L626.02,444.02 Z M623.73,476.69 L625.47,485.16 L626.13,485.29 L623.73,476.69 Z M628.48,485.76 L628.61,485.90 L628.50,485.64 L628.48,485.76 Z M630.58,487.95 L631.25,488.65 L634.42,487.95 L630.58,487.95 Z M620.40,514.34 L611.14,513.65 L614.62,514.64 L620.40,514.34 Z M589.52,507.57 L583.34,502.59 L582.25,502.80 L589.52,507.57 Z M606.38,614.44 L610.19,614.94 L612.32,614.24 L606.38,614.44 Z M631.72,633.36 L635.84,639.14 L639.01,641.93 L631.72,633.36 Z M626.12,708.36 L625.47,714.84 L626.18,710.65 L626.12,708.36 Z M577.32,627.59 L577.74,626.99 L576.29,625.10 L577.32,627.59 Z M565.05,659.56 L581.36,655.08 L569.41,657.67 L565.05,659.56 Z M525.68,716.64 L525.46,717.03 L523.00,725.89 L525.68,716.64 Z M529.68,706.15 L528.81,709.61 L529.89,707.57 L529.68,706.15 Z M519.36,713.94 L518.89,715.14 L518.90,715.83 L519.36,713.94 Z M511.84,660.06 L510.73,653.18 L511.39,659.93 L511.84,660.06 Z M594.43,453.09 L596.30,454.87 L596.64,454.58 L592.69,450.00 L594.43,453.09 Z M559.59,387.80 L560.30,387.85 L570.99,379.88 L559.59,387.80 Z M582.55,377.89 L583.21,378.50 L575.11,365.14 L582.55,377.89 Z M585.62,380.71 L586.67,381.68 L587.58,381.35 L585.62,380.71 Z M590.12,380.46 L593.16,379.38 L591.50,378.99 L590.12,380.46 Z M609.47,359.46 L606.46,350.80 L605.23,349.66 L609.47,359.46 Z M577.96,264.74 L584.03,266.48 L582.00,265.04 L577.96,264.74 Z M625.71,724.30 L626.45,725.42 L625.45,723.45 L625.71,724.30 Z M632.44,734.36 L635.21,734.86 L631.36,732.75 L632.44,734.36 Z M640.83,792.42 L641.07,791.63 L640.34,789.00 L640.83,792.42 Z M712.10,832.27 L715.18,834.36 L714.55,831.72 L714.08,832.96 L712.10,832.27 Z M697.92,842.13 L694.28,843.82 L688.97,847.01 L697.92,842.13 Z M694.38,838.07 L696.01,838.81 L696.26,838.44 L694.38,838.07 Z M686.86,833.41 L687.63,836.75 L687.39,833.56 L686.86,833.41 Z M686.44,831.57 L686.65,832.48 L687.03,831.44 L686.44,831.57 Z M655.00,643.22 L663.71,649.70 L658.96,645.42 L655.00,643.22 Z M645.77,562.70 L646.14,561.25 L645.51,559.68 L645.77,562.70 Z M653.42,580.08 L654.86,581.43 L650.65,573.41 L653.42,580.08 Z M661.42,496.81 L661.42,489.14 L661.05,497.25 L661.42,496.81 Z M739.49,430.38 L737.04,431.08 L732.45,432.57 L739.49,430.38 Z M764.83,455.18 L764.23,454.50 L769.74,480.38 L764.83,455.18 Z M803.32,441.53 L804.34,434.48 L803.71,435.56 L803.32,441.53 Z M820.74,515.34 L815.22,515.74 L815.27,515.84 L820.74,515.34 Z M811.04,571.87 L811.08,571.11 L809.81,570.32 L811.04,571.87 Z M815.67,573.21 L811.92,572.97 L812.11,573.21 L815.67,573.21 Z M816.78,574.60 L816.57,575.26 L819.79,578.19 L815.67,573.21 L816.78,574.60 Z M808.41,586.09 L812.58,581.17 L810.36,582.67 L808.41,586.09 Z M806.88,603.78 L804.74,606.07 L807.45,603.83 L806.88,603.78 Z M806.17,611.55 L810.44,604.08 L805.25,612.09 L806.17,611.55 Z M813.40,601.88 L812.19,602.29 L810.44,604.08 L813.40,601.88 Z M807.91,615.04 L807.62,614.46 L805.85,622.61 L807.91,615.04 Z M816.38,625.60 L809.02,626.79 L807.67,627.39 L816.38,625.60 Z M800.63,627.22 L804.43,624.70 L800.39,626.89 L800.63,627.22 Z M808.38,647.41 L810.76,644.82 L807.35,647.31 L805.45,648.01 L808.38,647.41 Z M801.89,654.98 L798.96,647.51 L797.92,646.30 L801.89,654.98 Z M703.64,155.79 L699.90,149.81 L702.12,153.79 L703.64,155.79 Z M711.43,165.65 L710.69,165.04 L711.22,165.74 L711.43,165.65 Z M732.92,197.51 L737.83,198.01 L735.82,196.71 L735.93,196.92 L732.92,197.51 Z M737.20,225.40 L729.64,216.08 L729.91,217.53 L737.20,225.40 Z M738.62,250.50 L733.32,245.12 L726.43,239.05 L738.62,250.50 Z M707.98,297.61 L707.74,295.12 L707.14,299.05 L707.98,297.61 Z M663.79,211.56 L661.97,209.57 L657.06,206.78 L663.79,211.56 Z M668.05,208.63 L667.67,208.57 L663.79,211.56 L668.05,208.63 Z M677.73,152.50 L673.14,147.32 L671.50,146.21 L677.73,152.50 Z M677.95,152.96 L677.80,150.97 L677.73,152.50 L677.95,152.96 Z M707.36,207.13 L708.37,204.49 L707.36,207.13 L707.36,207.13 Z M681.30,334.31 L680.91,338.23 L681.61,335.96 L681.30,334.31 Z M643.76,376.87 L643.36,377.19 L643.76,380.38 L643.76,376.87 Z M715.82,231.28 L710.20,227.89 L694.20,217.73 L703.46,224.71 L715.82,231.28 Z M672.98,220.82 L673.42,221.65 L673.14,214.55 L672.98,220.82 Z M675.59,225.70 L677.18,226.38 L674.33,223.35 L675.59,225.70 Z M678.05,145.92 L677.98,147.32 L681.06,142.83 L678.05,145.92 Z M627.84,101.00 L624.52,99.41 L630.81,104.60 L627.84,101.00 Z M641.86,112.66 L635.11,108.13 L636.00,108.87 L641.86,112.66 Z M658.65,93.56 L658.65,91.74 L655.16,81.68 L658.65,93.56 Z M779.47,804.20 L780.19,803.88 L781.30,801.29 L779.47,804.20 Z M786.97,774.55 L790.57,775.59 L788.59,774.30 L786.97,774.55 Z M756.60,864.14 L757.79,862.15 L760.00,856.17 L756.60,864.14 Z M745.48,856.53 L744.96,857.76 L747.41,863.44 L745.48,856.53 Z M802.52,822.90 L796.35,828.58 L803.44,822.99 L802.52,822.90 Z M805.53,823.20 L804.62,823.11 L808.78,829.88 L805.53,823.20 Z M776.16,573.70 L773.05,569.46 L776.18,574.21 L776.16,573.70 Z M795.48,585.86 L796.11,593.03 L796.51,588.84 L796.73,589.24 L795.48,585.86 Z M792.79,640.34 L789.06,637.55 L790.57,639.74 L786.05,641.43 L792.79,640.34 Z M737.91,741.13 L745.99,751.49 L740.36,744.12 L737.91,741.13 Z M806.09,709.96 L806.59,708.99 L805.16,710.13 L806.09,709.96 Z M769.08,564.05 L767.68,562.15 L758.89,552.09 L769.08,564.05 Z M757.33,528.95 L755.17,532.67 L757.33,528.95 L757.33,528.95 Z M766.50,544.72 L763.57,542.23 L768.78,549.05 L766.50,544.72 Z M771.33,553.88 L770.95,553.17 L769.58,554.68 L771.33,553.88 Z M785.46,556.48 L782.65,554.58 L784.95,556.57 L785.46,556.48 Z M789.46,555.78 L787.16,555.38 L791.68,550.50 L786.01,556.38 L789.46,555.78 Z M794.21,543.33 L794.37,550.00 L795.23,540.86 L794.21,543.33 Z M797.14,536.25 L795.75,539.62 L796.90,538.74 L797.14,536.25 Z M757.24,526.00 L758.14,525.07 L757.15,525.30 L757.24,526.00 Z M791.36,380.98 L799.44,386.66 L808.15,379.38 L799.36,386.16 L791.36,380.98 Z M794.84,283.20 L795.48,285.16 L797.85,289.64 L794.84,283.20 Z M791.04,229.88 L787.24,232.87 L792.08,230.32 L791.04,229.88 Z M747.01,351.66 L749.42,352.13 L747.10,345.52 L748.52,351.10 L747.01,351.66 Z M749.98,352.24 L751.29,352.49 L754.00,349.89 L749.98,352.24 Z M739.74,401.24 L738.23,400.50 L737.68,400.64 L739.74,401.24 Z M744.40,402.59 L747.49,399.40 L744.15,402.52 L744.40,402.59 Z M756.20,377.89 L752.40,372.51 L756.31,379.39 L756.20,377.89 Z M754.38,194.23 L757.39,197.91 L754.30,194.08 L754.38,194.23 Z M764.44,196.72 L763.25,196.72 L760.40,199.01 L764.44,196.72 Z M815.79,577.71 L815.19,579.58 L815.55,580.25 L815.79,577.71 Z M844.33,590.44 L842.65,591.56 L843.54,591.53 L847.98,588.15 L844.33,590.44 Z M864.68,583.66 L864.30,584.05 L864.94,583.82 L864.68,583.66 Z M886.54,591.53 L890.50,583.96 L885.75,590.34 L886.94,589.64 L884.80,592.33 L886.54,591.53 Z M863.02,644.62 L862.22,644.67 L863.28,645.59 L863.02,644.62 Z M868.25,619.12 L865.40,620.42 L862.86,622.61 L868.25,619.12 Z M880.60,625.70 L879.18,622.71 L878.52,622.67 L880.60,625.70 Z M816.30,600.89 L815.51,601.16 L819.39,602.49 L816.30,600.89 Z M825.09,614.84 L824.25,613.02 L826.28,618.92 L825.09,614.84 Z M852.89,619.72 L849.24,620.22 L845.36,621.71 L852.89,619.72 Z M855.66,616.93 L855.64,616.65 L852.89,619.72 L855.66,616.93 Z M889.79,604.38 L889.07,604.47 L890.07,605.48 L889.79,604.38 Z M890.66,607.77 L890.38,606.70 L885.04,618.82 L890.66,607.77 Z M882.82,473.31 L883.29,468.03 L880.92,483.67 L882.82,473.31 Z M940.78,476.69 L938.01,474.00 L937.46,474.24 L940.78,476.69 Z M942.76,475.90 L947.99,470.02 L940.78,476.69 L942.76,475.90 Z M833.90,575.37 L832.36,574.11 L832.85,575.50 L833.90,575.37 Z M834.99,579.78 L835.90,580.35 L834.67,575.99 L834.51,575.86 L834.99,579.78 Z M844.73,563.05 L841.17,565.34 L847.26,561.85 L844.73,563.05 Z M848.21,563.74 L848.11,563.55 L847.58,566.83 L848.21,563.74 Z M851.46,572.71 L848.53,570.52 L851.43,573.09 L851.46,572.71 Z M821.15,521.61 L823.68,524.10 L822.08,521.71 L821.15,521.61 Z M825.06,526.16 L826.76,531.17 L826.68,528.59 L825.06,526.16 Z M902.64,510.50 L901.74,509.86 L895.57,509.46 L902.64,510.50 Z M905.41,517.04 L904.83,512.05 L903.92,511.41 L905.41,517.04 Z M906.57,521.41 L909.58,524.40 L906.04,519.42 L906.57,521.41 Z M912.83,524.90 L917.50,524.50 L909.58,524.40 L912.83,524.90 Z M837.76,404.98 L836.18,402.19 L841.56,412.65 L837.76,404.98 Z M850.35,466.73 L855.37,463.74 L854.47,463.55 L850.35,466.73 Z M805.14,333.95 L805.61,334.76 L815.99,329.68 L805.14,333.95 Z M852.89,322.31 L856.05,320.42 L857.15,318.49 L852.89,322.31 Z M859.57,314.25 L858.27,315.24 L858.17,316.70 L859.57,314.25 Z M866.90,301.40 L861.44,310.36 L861.26,311.29 L866.90,301.40 Z" /></g></svg>