<svg xmlns="http://www.w3.org/2000/svg" viewBox="0 0 1000 1000" width="1000" height="1000"><g fill="#cccccc" stroke="#222" stroke-width="2"><path d="M399.34,782.92 L395.63,783.98 L388.33,780.36 L381.98,778.92 L376.63,779.60 L372.98,777.26 L371.79,775.91 L373.04,765.64 L371.91,770.77 L362.16,765.64 L356.62,770.62 L353.98,770.17 L351.40,771.30 L348.38,769.19 L348.38,767.00 L349.26,766.40 L350.08,767.98 L351.65,764.96 L350.52,764.66 L349.26,761.87 L349.08,755.23 L348.57,753.12 L347.38,752.67 L347.31,746.70 L345.87,745.80 L345.43,742.40 L344.17,742.10 L346.12,739.84 L345.11,728.07 L344.17,726.18 L345.99,720.75 L344.61,715.31 L346.68,713.88 L346.56,712.22 L336.93,711.92 L331.96,715.16 L328.25,709.35 L322.78,704.52 L321.21,698.26 L318.44,697.13 L313.97,691.77 L314.22,688.00 L312.65,685.06 L307.62,683.47 L307.49,681.51 L304.03,676.98 L303.46,674.27 L304.85,670.95 L304.47,668.15 L301.77,662.65 L302.58,652.99 L302.72,652.63 L299.63,648.16 L298.75,644.39 L290.82,637.52 L288.11,630.58 L284.15,629.07 L283.02,630.50 L279.24,631.48 L277.73,628.92 L271.32,629.07 L270.00,627.26 L266.35,626.05 L263.52,631.18 L261.63,632.54 L256.60,632.99 L249.68,640.24 L247.85,644.01 L239.48,646.35 L230.61,639.56 L230.42,637.90 L226.40,637.14 L224.45,638.73 L222.50,637.67 L220.48,638.58 L218.53,634.50 L215.58,632.92 L212.75,628.69 L213.38,623.56 L215.20,621.82 L216.08,617.30 L218.28,614.13 L217.46,612.47 L218.35,610.43 L215.39,607.49 L215.26,599.11 L212.81,596.55 L211.11,596.70 L212.49,593.91 L210.73,592.55 L210.04,586.59 L203.50,585.76 L199.98,585.08 L198.47,582.96 L196.39,582.51 L189.78,584.17 L187.39,583.34 L187.33,580.47 L189.47,579.87 L190.35,576.93 L189.53,573.61 L187.33,573.23 L182.93,569.31 L182.74,567.34 L176.01,567.65 L172.36,564.25 L167.39,563.72 L166.76,565.53 L159.46,564.18 L156.82,567.42 L157.95,573.31 L154.93,574.29 L152.16,571.72 L149.90,573.68 L148.26,573.91 L148.45,571.65 L147.44,570.29 L144.74,573.23 L143.48,570.97 L137.25,572.25 L135.49,570.74 L133.60,571.27 L133.67,569.99 L129.89,570.82 L129.39,572.25 L126.81,571.87 L127.00,568.48 L125.11,565.91 L126.12,560.78 L124.29,557.31 L124.80,553.31 L122.85,550.44 L122.85,544.56 L120.96,538.37 L118.51,537.46 L118.69,535.05 L116.24,530.97 L117.12,529.62 L115.55,523.28 L117.12,520.86 L116.18,514.07 L114.16,513.09 L112.91,512.04 L111.46,513.85 L108.31,514.68 L107.24,511.66 L105.92,510.90 L103.78,511.81 L102.40,509.62 L104.85,506.68 L103.47,505.77 L104.66,502.98 L109.07,499.96 L109.01,496.94 L106.17,489.78 L102.15,488.64 L102.78,480.95 L99.88,478.99 L98.81,476.80 L97.12,474.46 L92.21,473.02 L90.51,473.78 L85.85,471.44 L82.77,472.72 L77.55,472.04 L75.98,473.25 L70.00,473.63 L66.29,471.59 L64.72,468.80 L60.25,465.25 L60.50,459.90 L59.18,458.08 L61.70,454.39 L60.88,450.76 L59.24,451.97 L57.36,450.69 L54.78,450.92 L53.27,450.24 L52.70,447.37 L55.40,439.30 L54.71,438.31 L56.85,436.96 L60.12,430.17 L60.19,427.75 L58.55,424.88 L61.13,418.39 L60.63,416.13 L57.92,414.62 L60.25,412.66 L61.07,410.40 L59.43,409.64 L57.73,411.23 L56.22,408.58 L54.52,407.83 L54.27,400.21 L52.01,400.96 L49.05,399.00 L45.21,399.38 L43.70,396.74 L44.40,391.38 L46.28,389.42 L46.66,386.78 L42.38,381.80 L27.03,383.61 L24.01,386.25 L22.57,385.12 L20.93,386.40 L19.80,372.82 L23.32,370.40 L24.45,357.73 L27.91,353.88 L31.06,352.75 L28.60,340.00 L30.55,336.83 L28.60,335.77 L26.03,331.54 L22.88,323.77 L19.23,320.68 L22.57,317.96 L23.76,318.72 L25.33,317.58 L26.09,313.43 L29.11,313.06 L30.81,311.47 L32.51,311.77 L33.70,307.47 L41.94,312.15 L48.74,303.85 L57.23,301.81 L57.23,296.00 L59.93,294.04 L61.26,296.61 L65.03,296.99 L69.25,291.02 L72.14,290.65 L74.40,288.68 L76.73,291.55 L80.38,289.44 L83.59,289.14 L86.36,279.55 L90.89,279.48 L93.84,274.42 L96.74,274.20 L99.57,272.01 L102.21,272.31 L105.80,269.82 L114.35,271.18 L118.82,269.90 L120.08,272.31 L123.73,274.80 L127.12,276.46 L129.26,274.50 L133.79,274.65 L136.75,272.01 L139.08,266.95 L142.35,264.09 L144.11,257.90 L148.26,255.64 L150.34,245.45 L152.73,245.07 L155.31,242.58 L156.19,239.64 L155.12,237.37 L158.14,227.72 L158.71,221.68 L159.77,221.83 L160.34,219.11 L162.61,216.62 L163.36,212.10 L167.89,203.12 L165.37,197.38 L170.47,197.38 L173.43,190.14 L173.68,185.54 L178.71,177.99 L179.65,172.33 L186.39,162.97 L188.15,162.07 L189.66,163.28 L191.48,162.37 L193.37,158.75 L195.26,158.52 L199.41,160.71 L200.35,163.65 L202.74,164.63 L205.01,172.71 L207.97,176.71 L213.25,178.67 L215.26,177.01 L218.85,177.54 L230.17,181.61 L232.50,180.86 L233.38,178.29 L235.83,178.14 L239.48,173.16 L238.16,170.60 L239.29,166.52 L237.47,164.94 L234.83,159.28 L234.58,156.41 L246.22,148.03 L261.38,147.20 L276.35,141.55 L279.31,146.75 L280.12,151.51 L279.87,154.83 L276.92,160.71 L277.04,165.01 L284.97,166.52 L294.09,171.88 L296.10,175.05 L299.69,174.82 L304.35,175.58 L309.69,180.56 L310.20,184.63 L312.34,186.29 L312.52,189.76 L314.29,190.89 L324.23,193.38 L331.84,193.01 L334.10,189.91 L342.60,183.42 L344.80,175.43 L344.55,171.35 L343.35,169.61 L343.98,166.37 L355.18,158.15 L360.71,156.11 L362.98,156.71 L366.38,151.81 L370.78,150.90 L371.79,147.36 L374.49,143.51 L373.67,139.06 L378.20,142.30 L381.98,138.45 L386.57,142.22 L391.04,144.11 L394.43,149.32 L398.71,149.69 L400.16,148.49 L402.49,159.88 L400.54,147.81 L401.86,146.07 L402.93,139.28 L405.51,136.57 L403.62,129.47 L407.14,121.25 L410.35,119.21 L410.85,116.12 L412.99,113.78 L425.20,103.59 L424.95,94.99 L427.90,87.22 L426.33,83.59 L427.78,79.82 L427.02,73.79 L431.68,70.62 L435.89,70.47 L436.96,69.33 L437.84,63.83 L437.09,59.60 L432.43,51.15 L432.81,50.24 L437.91,47.38 L438.16,44.51 L437.03,41.64 L441.87,38.77 L444.70,38.77 L446.59,33.94 L449.92,34.70 L455.33,30.85 L456.34,28.06 L460.11,26.78 L471.31,40.13 L474.58,42.02 L480.12,42.77 L487.86,46.70 L496.16,43.38 L502.20,36.74 L503.84,32.44 L508.37,28.06 L511.89,31.45 L519.31,34.62 L521.96,39.38 L525.29,42.92 L527.93,42.62 L539.82,45.72 L551.65,54.17 L553.60,53.87 L556.62,50.55 L559.83,51.68 L569.83,51.75 L573.80,53.41 L574.68,51.45 L578.77,48.58 L581.85,48.81 L585.62,51.75 L590.59,52.88 L601.16,45.64 L606.26,39.38 L610.66,37.64 L613.87,38.32 L614.69,33.94 L623.50,37.64 L627.52,34.25 L638.22,31.30 L637.90,39.30 L635.83,38.32 L633.06,38.09 L632.18,39.38 L628.65,38.62 L624.69,43.30 L619.41,43.15 L617.71,45.19 L613.74,46.17 L611.92,52.88 L612.67,59.60 L610.72,62.92 L611.29,64.73 L612.49,65.18 L612.55,67.22 L610.22,68.50 L608.71,67.67 L608.08,65.49 L606.32,65.03 L603.11,67.07 L601.98,69.64 L601.85,74.16 L603.43,80.35 L599.84,83.52 L595.88,81.71 L593.93,84.95 L593.36,88.88 L594.93,96.42 L598.14,100.20 L600.22,100.50 L598.90,101.10 L598.46,103.82 L608.71,117.85 L612.99,122.00 L623.31,129.62 L628.02,131.96 L632.81,133.62 L639.54,134.38 L642.43,134.00 L643.50,132.42 L644.95,130.00 L646.08,126.60 L646.08,122.45 L649.79,121.62 L651.05,117.10 L652.50,118.53 L654.07,117.40 L656.71,115.44 L656.15,108.42 L658.60,106.99 L659.73,112.95 L657.97,113.40 L658.16,114.15 L663.00,111.21 L663.32,112.12 L666.02,111.06 L665.08,109.55 L664.51,110.31 L665.27,108.80 L666.78,111.29 L663.63,112.65 L664.32,115.74 L663.51,117.93 L664.89,119.44 L666.15,116.80 L668.41,111.21 L667.34,106.46 L666.59,106.61 L668.04,104.50 L664.45,104.87 L662.31,102.08 L661.75,102.76 L659.54,101.10 L657.84,101.63 L655.01,99.74 L655.96,99.44 L655.27,98.31 L653.32,100.12 L654.32,100.35 L653.38,100.95 L653.76,102.69 L651.36,99.59 L650.55,100.35 L650.92,98.91 L650.04,99.67 L650.80,98.76 L649.67,97.93 L651.24,95.29 L654.64,95.82 L655.33,90.61 L657.28,87.82 L658.66,88.35 L659.54,87.29 L660.30,82.99 L661.68,81.86 L660.86,76.73 L663.38,78.31 L665.39,76.35 L666.72,77.03 L670.74,72.50 L672.57,72.20 L678.86,74.39 L681.25,80.12 L685.46,83.90 L685.02,84.88 L686.60,87.90 L689.17,89.03 L693.14,85.86 L696.79,86.16 L700.81,89.18 L704.65,95.22 L707.86,96.57 L711.19,94.84 L710.88,90.24 L712.64,87.14 L712.58,82.76 L715.79,80.65 L719.50,83.37 L724.91,94.08 L728.49,98.31 L728.75,100.65 L725.29,100.20 L721.95,102.53 L717.74,101.48 L714.91,104.42 L711.76,104.87 L710.31,109.48 L711.00,114.91 L708.87,117.17 L705.66,115.59 L704.15,110.76 L699.56,109.85 L696.03,111.21 L692.19,116.12 L687.85,114.98 L684.20,117.85 L682.32,113.25 L678.42,113.17 L675.46,116.42 L673.57,121.93 L671.75,129.70 L670.99,137.85 L671.81,146.75 L674.64,157.39 L681.18,175.35 L696.28,211.19 L701.76,221.76 L710.75,235.64 L723.27,249.07 L743.03,263.71 L758.63,274.73 L763.16,282.80 L764.67,283.78 L771.40,286.04 L770.14,296.23 L775.43,326.11 L782.09,346.03 L803.86,389.87 L825.88,432.28 L839.47,457.48 L866.65,502.30 L880.74,523.66 L895.96,544.18 L904.84,555.57 L909.81,560.03 L918.49,565.31 L925.28,568.25 L935.85,567.12 L938.68,565.23 L940.25,562.44 L940.88,559.80 L939.31,556.78 L940.19,555.35 L943.09,558.14 L944.78,562.36 L943.02,562.29 L941.76,564.02 L939.94,572.70 L940.07,577.08 L942.46,581.83 L944.91,582.96 L945.41,581.23 L946.61,578.59 L949.69,577.83 L949.69,579.04 L951.39,580.25 L950.13,584.55 L953.78,588.25 L956.99,598.89 L955.16,600.24 L954.41,603.11 L954.72,606.13 L953.53,608.62 L954.28,611.86 L966.80,628.24 L980.77,642.95 L969.70,661.29 L964.85,664.38 L960.20,664.08 L956.99,662.49 L955.35,664.98 L950.19,666.34 L948.50,665.51 L944.60,667.48 L942.64,665.51 L938.87,669.29 L934.47,667.93 L932.26,665.14 L930.38,668.15 L928.55,667.78 L927.92,661.89 L927.80,665.89 L924.02,667.17 L919.75,666.49 L918.30,669.29 L914.84,670.34 L912.57,674.34 L907.98,674.27 L902.76,677.44 L894.96,678.11 L898.42,667.93 L894.45,679.47 L894.90,683.17 L890.74,684.38 L888.10,682.26 L885.40,685.13 L882.06,683.92 L878.03,684.45 L877.28,685.89 L876.77,684.31 L876.71,685.28 L868.47,691.70 L866.21,691.77 L863.75,690.34 L861.55,691.24 L858.34,690.64 L857.71,692.60 L852.05,695.62 L847.08,702.49 L842.11,700.30 L840.10,701.20 L834.81,698.26 L830.35,699.24 L827.33,706.26 L822.55,710.41 L819.34,711.69 L816.95,710.79 L816.38,708.30 L814.37,709.96 L806.25,710.49 L799.21,709.96 L797.26,708.37 L791.91,708.67 L789.96,705.13 L789.83,698.19 L785.42,698.62 L784.30,705.88 L781.72,707.84 L779.45,705.58 L774.80,705.50 L773.73,708.07 L769.39,711.09 L769.32,717.50 L762.91,718.71 L756.30,715.16 L751.96,716.30 L746.30,719.39 L745.04,721.95 L731.33,718.94 L727.93,720.37 L723.34,717.80 L716.60,716.82 L713.46,719.16 L711.26,724.60 L708.43,726.03 L704.21,733.57 L707.42,735.23 L708.43,741.72 L706.35,749.42 L700.50,753.19 L698.74,758.10 L692.76,760.36 L694.40,765.19 L697.98,767.76 L695.70,772.75 L695.72,772.74 L702.70,771.91 L707.92,773.57 L709.94,777.57 L707.42,785.87 L702.64,790.54 L700.12,791.30 L699.18,794.54 L700.56,796.88 L706.10,798.47 L706.73,802.09 L704.59,804.13 L704.46,806.92 L708.68,812.73 L707.48,815.07 L703.08,815.75 L700.69,818.24 L697.73,823.14 L697.79,825.33 L695.91,826.46 L695.97,828.12 L693.96,828.65 L694.46,831.44 L692.57,834.16 L692.82,835.59 L690.62,834.91 L689.87,836.80 L691.50,838.46 L690.94,840.72 L688.55,841.02 L689.36,842.31 L688.99,845.25 L687.92,847.06 L685.97,847.06 L685.40,848.49 L681.50,850.68 L680.81,853.93 L679.61,854.83 L677.60,857.10 L679.61,865.77 L678.67,867.81 L679.05,870.68 L677.10,873.62 L677.72,875.73 L675.15,879.21 L663.76,885.09 L668.23,895.13 L665.58,906.37 L665.90,908.71 L668.79,913.01 L667.41,918.37 L666.02,919.95 L660.74,919.73 L657.15,921.84 L656.08,920.93 L654.45,921.69 L651.62,919.57 L648.97,919.73 L646.96,915.88 L641.30,910.82 L638.15,913.61 L636.52,907.35 L627.08,898.75 L623.37,897.47 L619.97,899.13 L617.90,897.99 L616.01,899.43 L614.56,902.90 L609.65,906.14 L609.40,908.86 L607.89,909.61 L611.29,915.73 L610.10,919.35 L611.98,923.12 L609.72,927.35 L611.60,937.08 L610.22,942.74 L613.62,946.51 L616.07,959.79 L617.90,963.87 L609.72,972.47 L602.61,973.00 L599.71,975.41 L593.05,974.05 L590.15,974.88 L583.29,980.77 L575.56,979.71 L571.53,980.77 L570.27,977.52 L570.65,972.32 L568.07,969.53 L562.85,967.72 L559.26,969.00 L555.68,967.79 L545.74,950.06 L531.02,945.68 L526.74,942.66 L521.26,946.13 L517.93,942.59 L509.63,945.23 L505.03,938.36 L498.30,935.12 L498.43,933.76 L493.96,928.48 L490.37,918.82 L490.37,911.73 L486.66,907.58 L486.35,902.90 L487.61,900.03 L493.39,894.82 L500.75,891.96 L500.31,888.11 L502.45,884.03 L500.50,879.58 L505.28,878.75 L506.48,874.75 L508.74,872.11 L508.74,869.17 L511.70,860.72 L513.59,857.17 L517.11,854.08 L517.36,852.19 L515.16,851.44 L514.78,847.74 L516.42,846.00 L516.36,842.61 L518.56,836.42 L516.04,831.37 L515.66,826.23 L508.18,824.50 L504.34,818.39 L497.80,817.56 L494.40,816.43 L491.76,813.86 L484.65,811.97 L483.52,803.37 L476.28,800.13 L474.02,796.81 L474.27,792.73 L472.70,791.07 L472.26,787.83 L470.31,785.94 L462.13,784.13 L461.18,786.24 L458.86,788.13 L453.01,789.04 L447.66,798.47 L441.81,795.45 L434.89,785.26 L422.24,785.79 L420.04,788.13 L408.40,786.39 L403.87,782.62 L403.24,779.90 L403.12,781.64 L401.67,780.81 L399.34,782.92 Z M657.38,125.78 L656.71,122.53 L654.07,117.40 L657.38,125.78 Z M669.48,147.51 L664.83,149.32 L671.81,146.75 L669.48,147.51 Z M689.68,215.87 L689.34,216.83 L696.28,211.19 L689.68,215.87 Z M742.24,267.49 L742.24,267.49 L743.03,263.71 L742.24,267.49 Z M487.42,141.32 L482.99,143.85 L489.18,141.14 L487.42,141.32 Z M491.00,141.02 L499.06,140.11 L490.43,141.01 L490.90,142.48 L491.00,141.02 Z M489.49,161.47 L490.48,148.07 L489.56,152.79 L489.49,161.47 Z M521.14,248.24 L512.96,249.07 L516.42,249.07 L521.14,248.24 Z M569.51,244.81 L568.16,245.43 L572.29,245.45 L569.51,244.81 Z M571.66,238.88 L570.42,243.32 L571.03,242.73 L571.66,238.88 Z M605.25,240.09 L605.09,240.52 L606.04,240.05 L605.25,240.09 Z M612.71,224.39 L610.66,227.57 L612.61,224.92 L612.71,224.39 Z M630.16,215.72 L631.99,215.64 L633.18,215.49 L630.16,215.72 Z M638.66,216.55 L638.64,216.88 L639.33,216.65 L638.66,216.55 Z M643.38,216.78 L641.80,217.00 L640.12,216.76 L640.29,217.53 L643.38,216.78 Z M655.89,229.15 L653.82,230.21 L660.36,227.49 L655.89,229.15 Z M657.22,219.49 L655.52,226.89 L657.03,222.74 L657.22,219.49 Z M688.01,217.90 L684.58,217.61 L687.54,218.28 L688.01,217.90 Z M641.24,264.54 L645.51,263.03 L645.45,264.84 L645.55,262.67 L641.24,264.54 Z M652.75,262.95 L651.43,261.22 L650.55,257.82 L651.74,262.50 L652.75,262.95 Z M644.03,245.81 L643.82,248.24 L644.31,248.24 L644.03,245.81 Z M665.08,241.83 L665.08,236.62 L665.02,239.41 L665.08,241.83 Z M656.84,245.37 L668.29,245.60 L670.93,245.45 L656.84,245.37 Z M665.21,256.92 L665.90,259.56 L665.65,254.88 L665.21,256.92 Z M672.19,267.26 L672.25,265.37 L671.56,259.79 L672.19,267.26 Z M671.56,267.12 L673.01,268.24 L677.28,268.84 L672.19,267.26 L671.56,267.12 Z M669.80,266.73 L669.35,267.31 L670.32,266.84 L669.80,266.73 Z M668.98,272.39 L663.83,279.45 L664.20,279.10 L667.22,274.95 L668.98,272.39 Z M672.19,320.90 L658.35,321.28 L666.97,321.21 L674.71,321.66 L672.19,320.90 Z M681.54,330.30 L680.37,330.26 L679.55,331.69 L681.54,330.30 Z M687.22,326.34 L689.11,324.07 L687.06,326.45 L687.22,326.34 Z M678.26,368.01 L680.05,366.25 L680.43,364.97 L678.26,368.01 Z M679.93,377.95 L678.17,387.76 L681.12,374.86 L679.93,377.95 Z M665.53,415.69 L665.58,415.60 L665.77,411.45 L665.53,415.69 Z M659.73,439.52 L667.95,440.47 L667.09,439.97 L659.73,439.52 Z M671.94,446.24 L670.11,441.71 L669.26,441.22 L671.94,446.24 Z M685.40,482.00 L690.31,476.80 L690.34,475.94 L685.40,482.00 Z M688.99,492.42 L687.66,492.64 L682.51,496.42 L674.96,498.53 L673.14,499.59 L680.68,497.55 L688.99,492.42 Z M665.08,504.34 L665.02,504.61 L666.32,503.61 L665.08,504.34 Z M691.63,520.56 L694.59,520.64 L688.23,520.03 L691.63,520.56 Z M689.99,541.39 L691.00,538.68 L690.68,538.90 L689.99,541.39 Z M681.63,539.73 L688.86,541.92 L689.99,541.39 L681.63,539.73 Z M650.74,551.86 L650.74,551.86 L656.65,553.84 L650.74,551.86 Z M677.41,602.05 L682.25,602.28 L683.64,601.75 L677.41,602.05 Z M690.51,615.31 L690.62,614.88 L687.41,614.28 L690.51,615.31 Z M692.82,625.75 L691.94,622.20 L690.18,616.54 L692.82,625.75 Z M663.44,711.32 L663.89,712.29 L662.81,707.92 L663.44,711.32 Z M670.66,724.77 L666.53,723.46 L669.11,724.60 L664.70,726.18 L666.90,726.03 L670.66,724.77 Z M658.16,720.82 L661.37,724.29 L664.70,726.18 L658.16,720.82 Z M686.15,708.83 L682.55,709.89 L682.55,709.89 L686.15,708.83 Z M651.61,833.19 L652.25,831.52 L652.56,827.89 L651.61,833.19 Z M426.39,201.16 L426.97,198.13 L424.57,204.10 L426.39,201.16 Z M433.38,241.00 L432.81,233.53 L432.56,238.36 L433.38,241.00 Z M455.61,253.90 L450.99,251.48 L454.14,253.82 L455.61,253.90 Z M472.00,255.11 L467.39,255.77 L468.67,256.01 L472.00,255.11 Z M477.98,278.35 L477.83,278.24 L472.51,287.70 L477.98,278.35 Z M456.65,312.15 L463.39,310.94 L458.16,311.25 L456.65,312.15 Z M450.24,316.45 L452.50,316.68 L455.62,315.37 L455.21,315.40 L450.24,316.45 Z M467.98,317.41 L464.52,318.57 L459.55,321.81 L467.98,317.41 Z M475.21,376.44 L475.27,375.51 L474.08,378.40 L475.21,376.44 Z M451.70,381.36 L460.30,385.12 L451.75,381.27 L451.70,381.36 Z M423.25,424.05 L428.66,418.70 L422.28,424.17 L423.25,424.05 Z M414.57,429.88 L413.69,429.03 L409.72,427.00 L414.57,429.88 Z M419.22,434.32 L418.52,433.65 L422.49,438.92 L419.22,434.32 Z M432.63,454.17 L429.16,447.82 L432.24,454.16 L432.63,454.17 Z M448.85,452.58 L435.98,454.22 L437.21,454.24 L448.85,452.58 Z M511.20,450.31 L508.81,448.35 L513.59,452.73 L511.20,450.31 Z M587.06,497.91 L586.50,497.40 L585.66,497.43 L587.06,497.91 Z M600.55,507.16 L595.19,501.09 L600.55,507.16 L600.55,507.16 Z M599.34,564.85 L597.64,560.18 L599.33,565.14 L599.34,564.85 Z M610.72,585.68 L610.27,585.38 L610.62,586.14 L610.72,585.68 Z M587.64,614.88 L592.54,620.92 L585.56,611.79 L587.64,614.88 Z M575.75,634.12 L576.86,628.86 L576.50,628.99 L575.75,634.12 Z M586.06,647.48 L578.01,639.77 L578.26,640.39 L586.06,647.48 Z M602.67,694.94 L602.20,692.83 L602.36,697.43 L602.67,694.94 Z M596.99,728.27 L596.88,725.43 L596.99,728.27 L596.99,728.27 Z M595.31,729.80 L596.21,728.98 L594.45,729.50 L595.31,729.80 Z M574.86,772.66 L574.86,779.07 L575.30,773.42 L574.87,772.56 L574.86,772.66 Z M571.91,898.45 L574.17,895.13 L570.84,899.50 L571.91,898.45 Z M592.23,514.98 L587.25,511.48 L588.58,513.17 L592.23,514.98 Z M227.34,283.78 L229.04,284.31 L230.88,283.53 L227.34,283.78 Z M238.04,283.03 L239.61,281.97 L239.56,281.50 L238.04,283.03 Z M240.74,277.44 L238.66,275.43 L238.98,276.16 L243.20,281.97 L240.74,277.44 Z M288.07,262.83 L284.97,267.63 L288.05,263.11 L288.07,262.83 Z M324.54,276.46 L328.94,270.74 L326.55,272.91 L324.54,276.46 Z M341.46,261.19 L339.01,261.97 L336.04,263.63 L336.49,263.86 L334.63,265.56 L341.46,261.19 Z M358.51,275.48 L358.13,276.84 L360.40,287.78 L358.51,275.48 Z M367.26,328.53 L366.33,328.94 L370.30,328.19 L367.26,328.53 Z M375.91,327.14 L376.57,327.02 L377.45,325.36 L375.91,327.14 Z M457.27,538.15 L456.15,539.27 L456.28,536.18 L455.46,541.39 L457.27,538.15 Z M472.82,651.40 L476.89,650.74 L474.96,648.76 L475.65,650.42 L472.82,651.40 Z M477.59,651.46 L477.97,654.22 L478.04,651.93 L477.59,651.46 Z M489.80,704.63 L488.08,706.77 L489.31,705.88 L489.80,704.63 Z M456.69,775.31 L459.86,776.13 L458.73,775.08 L456.69,775.31 Z M158.77,466.69 L155.94,467.59 L155.81,468.16 L158.77,466.69 Z M167.51,458.24 L165.69,459.59 L165.31,461.18 L167.51,458.24 Z M171.54,452.88 L173.62,447.82 L169.77,455.23 L171.54,452.88 Z M251.50,428.73 L250.55,428.40 L252.93,430.46 L248.54,423.45 L251.50,428.73 Z M255.02,432.28 L256.45,431.69 L253.97,431.37 L255.02,432.28 Z M276.22,451.29 L276.91,451.69 L276.35,446.39 L276.22,451.29 Z M274.15,453.10 L277.04,452.88 L276.97,452.23 L274.15,453.10 Z M266.10,450.31 L265.65,452.95 L266.54,450.27 L266.10,450.31 Z M285.98,489.02 L286.25,488.89 L280.82,488.57 L285.98,489.02 Z M294.53,486.23 L297.24,483.59 L291.32,488.27 L294.53,486.23 Z M297.43,480.34 L295.41,475.06 L297.41,480.63 L297.43,480.34 Z M361.09,509.70 L359.08,510.30 L358.16,511.88 L361.09,509.70 Z M408.72,514.22 L412.43,513.47 L408.39,513.67 L408.72,514.22 Z M303.28,649.52 L303.13,651.55 L305.60,645.06 L303.28,649.52 Z M374.11,633.60 L373.16,633.98 L375.19,633.76 L374.11,633.60 Z M382.61,634.88 L381.96,634.78 L384.24,636.76 L382.61,634.88 Z M371.91,600.32 L372.73,602.51 L368.52,588.47 L371.91,600.32 Z M392.45,577.75 L381.22,575.19 L390.47,577.98 L392.45,577.75 Z M394.12,578.13 L393.44,577.98 L396.01,579.93 L394.12,578.13 Z M400.54,584.25 L399.83,583.57 L400.66,586.81 L400.54,584.25 Z M409.16,612.69 L405.82,613.75 L403.49,615.26 L409.16,612.69 Z M411.36,609.52 L411.48,608.17 L409.16,612.69 L411.36,609.52 Z M465.29,652.58 L463.45,653.06 L464.33,653.21 L465.29,652.58 Z M316.99,660.38 L320.20,648.82 L319.63,649.14 L316.65,660.79 L316.99,660.38 Z M347.88,657.06 L353.48,658.04 L354.79,657.52 L347.88,657.06 Z M410.41,699.32 L409.41,702.03 L411.80,697.43 L410.41,699.32 Z M394.62,731.54 L395.00,731.26 L393.78,730.81 L394.62,731.54 Z M366.84,740.95 L365.31,751.53 L366.88,743.38 L366.84,740.95 Z M366.25,735.54 L366.78,737.59 L366.69,731.99 L366.25,735.54 Z M402.80,624.54 L402.58,617.76 L402.36,618.35 L402.80,624.54 Z M184.00,514.75 L177.83,516.34 L168.96,518.98 L184.00,514.75 Z M225.68,493.30 L221.49,495.96 L224.89,494.53 L225.68,493.30 Z M174.75,472.87 L173.63,472.83 L180.98,475.97 L174.75,472.87 Z M99.57,379.38 L98.69,378.55 L99.57,379.97 L99.57,379.38 Z M139.71,382.78 L139.71,384.21 L139.89,384.33 L139.71,382.78 Z M402.56,419.15 L402.49,419.90 L403.24,420.50 L402.56,419.15 Z M300.70,396.06 L304.09,398.32 L297.80,393.04 L300.70,396.06 Z M296.48,376.89 L296.98,388.89 L297.80,393.04 L296.48,376.89 Z M138.83,417.72 L139.64,419.45 L139.35,416.68 L138.83,417.72 Z M131.24,298.10 L131.72,296.00 L131.15,293.29 L131.24,298.10 Z M127.88,307.17 L129.95,303.78 L130.38,301.89 L127.88,307.17 Z M124.17,317.43 L124.54,318.23 L124.67,315.47 L124.17,317.43 Z M139.56,381.58 L139.33,379.61 L137.00,373.57 L139.56,381.58 Z M268.42,305.06 L270.52,307.45 L265.59,298.95 L268.42,305.06 Z M271.84,310.33 L271.76,309.59 L271.27,308.74 L271.84,310.33 Z M269.05,316.98 L272.13,313.21 L272.03,312.18 L269.05,316.98 Z M270.44,227.04 L270.85,228.17 L270.82,226.40 L270.44,227.04 Z M394.50,218.06 L389.90,210.89 L390.35,212.78 L394.50,218.06 Z M401.29,250.20 L404.77,240.85 L404.31,241.15 L401.29,250.20 Z M296.32,258.55 L297.65,258.51 L297.24,258.05 L296.32,258.55 Z M330.20,254.50 L333.98,262.58 L334.81,263.00 L330.20,254.50 Z M235.46,268.25 L234.56,265.60 L234.51,266.12 L235.46,268.25 Z M386.16,192.74 L385.77,191.75 L385.69,192.18 L386.16,192.74 Z M390.91,197.01 L387.91,194.89 L389.21,196.48 L390.91,197.01 Z M566.70,850.58 L558.44,846.38 L562.79,849.32 L566.70,850.58 Z M574.49,851.66 L571.06,851.99 L572.16,852.34 L574.49,851.66 Z M480.56,518.75 L479.05,519.52 L483.52,519.35 L480.56,518.75 Z M516.99,562.89 L512.20,559.04 L517.15,563.63 L516.99,562.89 Z M561.78,542.37 L555.02,541.26 L555.68,542.52 L556.28,543.55 L555.68,541.99 L561.78,542.37 Z M530.45,627.03 L532.15,629.90 L530.13,624.77 L530.45,627.03 Z M533.03,713.50 L534.60,715.03 L531.90,710.56 L533.03,713.50 Z M537.24,717.58 L541.14,717.13 L536.84,717.19 L537.24,717.58 Z M556.24,710.41 L556.90,710.72 L555.87,709.13 L556.24,710.41 Z M510.25,762.85 L509.88,764.44 L514.85,756.29 L510.25,762.85 Z M518.75,747.61 L518.06,750.55 L519.44,747.30 L518.75,747.61 Z M523.83,741.03 L522.96,742.86 L523.97,741.80 L523.83,741.03 Z M524.98,738.63 L524.63,739.35 L526.55,737.95 L524.98,738.63 Z M576.63,505.70 L578.83,505.55 L581.91,504.41 L576.63,505.70 Z M584.99,499.43 L584.73,497.46 L584.36,497.47 L584.99,499.43 Z M490.50,518.83 L497.42,513.62 L498.03,512.74 L490.50,518.83 Z M500.42,509.29 L501.70,507.43 L504.28,501.40 L500.42,509.29 Z M557.69,493.02 L559.70,504.41 L558.44,495.13 L557.69,493.02 Z M559.58,515.28 L557.12,512.79 L563.98,520.34 L559.58,515.28 Z M554.87,540.97 L554.95,539.10 L554.42,540.10 L554.87,540.97 Z M527.62,454.24 L525.54,454.54 L523.59,455.07 L527.62,454.24 Z M610.64,241.04 L611.79,244.32 L611.23,240.92 L610.64,241.04 Z M608.84,249.30 L610.91,246.43 L611.79,244.32 L608.84,249.30 Z M599.71,254.13 L600.16,257.14 L601.42,258.85 L599.71,254.13 Z M603.05,270.27 L599.78,269.07 L599.23,269.59 L603.05,270.27 Z M574.74,321.89 L579.83,317.06 L587.95,308.45 L580.90,315.85 L574.74,321.89 Z M581.68,390.65 L581.38,390.73 L581.60,390.70 L581.68,390.65 Z M570.71,401.34 L569.89,408.13 L570.90,402.47 L570.71,401.34 Z M497.74,296.23 L495.22,295.70 L497.23,296.31 L495.47,296.83 L497.74,296.23 Z M523.97,304.53 L524.67,304.09 L522.99,304.61 L523.97,304.53 Z M538.06,298.42 L537.69,297.30 L537.94,300.31 L538.06,298.42 Z M554.34,287.69 L554.10,286.80 L554.03,287.94 L554.34,287.69 Z M566.62,292.16 L564.92,287.85 L562.91,285.29 L566.62,292.16 Z M551.53,335.19 L552.97,336.07 L552.85,332.60 L552.53,335.24 L551.53,335.19 Z M560.77,328.45 L558.95,331.68 L559.95,330.94 L560.77,328.45 Z M557.19,340.00 L558.89,335.62 L559.95,330.94 L557.19,340.00 Z M570.83,390.31 L573.61,391.68 L574.99,391.51 L570.83,390.31 Z M525.04,398.70 L519.75,392.66 L517.62,391.00 L525.04,398.70 Z M566.62,340.22 L566.88,340.37 L566.35,339.64 L566.62,340.22 Z M568.70,341.43 L578.14,337.20 L568.45,341.29 L568.70,341.43 Z M566.56,310.04 L567.63,314.57 L566.37,307.78 L566.56,310.04 Z M471.51,315.57 L472.57,315.02 L477.79,310.34 L471.51,315.57 Z M551.34,308.08 L551.34,308.09 L553.29,300.15 L551.34,308.08 Z M556.62,296.46 L555.84,293.45 L555.80,295.78 L556.62,296.46 Z M577.82,252.01 L577.57,257.67 L578.01,250.73 L577.82,252.01 Z M584.74,251.71 L579.52,250.35 L578.01,250.73 L584.74,251.71 Z M532.84,287.85 L533.83,289.66 L531.52,282.87 L532.84,287.85 Z M628.78,878.75 L627.58,875.89 L630.73,879.43 L626.53,873.92 L628.78,878.75 Z M645.44,884.04 L644.91,883.41 L645.20,883.96 L645.44,884.04 Z M648.34,884.36 L647.15,884.59 L647.78,884.79 L648.34,884.36 Z M650.48,876.79 L649.39,883.58 L649.98,883.13 L650.48,876.79 Z M629.03,728.14 L640.86,723.69 L631.36,727.09 L629.03,728.14 Z M629.43,806.11 L627.52,803.75 L628.53,805.86 L629.43,806.11 Z M635.21,813.26 L634.72,812.66 L634.76,813.71 L635.21,813.26 Z M638.77,808.39 L636.73,811.78 L638.47,810.09 L638.77,808.39 Z M647.30,800.39 L645.85,801.72 L647.09,801.03 L647.30,800.39 Z M628.15,687.24 L629.09,685.06 L626.01,690.11 L628.15,687.24 Z M641.30,693.43 L641.96,693.69 L640.73,690.41 L641.30,693.43 Z M643.44,694.26 L647.65,691.09 L642.68,693.97 L643.44,694.26 Z M657.87,691.24 L655.77,690.49 L653.75,691.18 L657.87,691.24 Z M639.85,379.99 L641.11,377.57 L636.83,382.55 L639.85,379.99 Z M652.69,474.31 L644.64,474.87 L647.09,475.29 L652.69,474.31 Z M644.76,524.86 L644.44,525.99 L645.26,524.43 L644.76,524.86 Z M645.43,570.33 L645.43,570.33 L643.06,575.04 L645.43,570.33 Z M655.96,620.69 L655.52,620.95 L657.27,621.78 L655.96,620.69 Z M603.62,505.32 L603.87,504.58 L600.97,506.91 L603.62,505.32 Z M635.01,500.04 L641.49,493.40 L633.06,501.55 L635.01,500.04 Z M646.65,523.20 L646.06,523.72 L649.04,523.20 L646.65,523.20 Z M638.73,447.46 L637.96,449.78 L638.97,448.50 L638.73,447.46 Z M644.44,442.77 L646.42,441.25 L645.01,441.56 L644.44,442.77 Z M648.82,440.73 L650.74,441.03 L653.32,439.75 L648.82,440.73 Z M654.26,441.91 L654.32,441.03 L653.32,439.75 L654.26,441.91 Z M639.29,416.43 L640.17,417.38 L638.80,413.93 L639.29,416.43 Z M640.91,418.17 L645.14,416.43 L640.91,418.17 L640.91,418.17 Z M649.86,286.95 L648.91,287.31 L657.66,291.10 L649.86,286.95 Z M657.59,293.82 L659.23,285.29 L657.66,291.10 L657.59,293.82 Z M659.26,285.14 L653.50,284.16 L659.23,285.29 L659.26,285.14 Z M608.40,301.81 L611.57,301.19 L610.79,300.76 L608.40,301.81 Z M616.57,333.20 L620.16,338.34 L619.34,336.60 L616.57,333.20 Z M621.14,334.39 L622.11,333.81 L626.64,327.62 L621.14,334.39 Z M648.53,314.87 L644.13,315.09 L634.99,316.05 L635.83,316.15 L648.53,314.87 Z M613.81,302.42 L613.04,301.99 L618.84,308.76 L613.81,302.42 Z M657.59,277.08 L657.87,277.22 L657.84,276.99 L657.59,277.08 Z M661.12,252.16 L661.19,252.64 L663.19,250.50 L661.12,252.16 Z M716.16,259.79 L718.30,260.24 L723.40,258.43 L719.81,259.41 L716.16,259.79 Z M739.21,265.74 L732.27,261.37 L733.97,262.73 L739.21,265.74 Z M727.05,281.97 L730.26,280.61 L725.35,282.65 L727.05,281.97 Z M734.05,293.29 L732.84,293.59 L730.44,295.40 L734.05,293.29 Z M720.00,301.59 L717.04,299.32 L715.59,298.44 L720.00,301.59 Z M711.26,312.91 L708.68,311.77 L711.65,313.23 L711.79,312.59 L711.26,312.91 Z M738.69,314.57 L738.62,312.68 L738.09,314.88 L738.69,314.57 Z M733.81,318.93 L734.22,316.91 L733.40,318.41 L733.81,318.93 Z M734.63,365.05 L737.99,360.52 L734.63,365.05 L734.63,365.05 Z M724.84,387.77 L723.12,385.45 L722.98,385.89 L724.84,387.77 Z M720.26,390.93 L722.13,387.29 L721.26,388.06 L720.26,390.93 Z M711.75,417.22 L715.85,415.98 L712.39,416.43 L711.75,417.22 Z M712.39,418.39 L711.42,417.64 L711.42,417.64 L712.39,418.39 Z M716.67,432.96 L714.78,434.62 L713.46,435.90 L716.67,432.96 Z M723.84,436.73 L722.45,435.67 L716.67,432.96 L723.84,436.73 Z M730.28,444.07 L730.59,442.07 L730.07,443.22 L728.58,443.15 L730.28,444.07 Z M749.23,426.57 L748.70,426.79 L749.19,427.07 L749.23,426.57 Z M749.47,423.29 L749.45,423.11 L748.94,425.94 L749.26,426.15 L749.47,423.29 Z M759.13,437.11 L759.61,436.53 L756.80,437.48 L759.13,437.11 Z M781.48,445.03 L777.88,446.99 L780.90,445.86 L781.48,445.03 Z M797.13,449.33 L794.74,447.75 L797.12,449.82 L797.13,449.33 Z M796.82,464.05 L797.12,450.02 L796.50,450.39 L796.82,464.05 Z M794.24,467.67 L795.12,466.76 L796.82,464.05 L794.24,467.67 Z M800.59,480.72 L796.47,473.51 L797.07,475.51 L800.59,480.72 Z M811.16,491.89 L809.21,492.27 L807.70,493.17 L811.16,491.89 Z M808.39,529.54 L805.62,529.31 L803.74,530.14 L808.39,529.54 Z M811.66,535.73 L811.16,532.18 L812.23,543.73 L811.66,535.73 Z M806.02,542.49 L809.04,542.77 L807.70,542.37 L806.02,542.49 Z M798.82,544.04 L803.76,542.65 L801.28,542.82 L798.82,544.04 Z M809.19,642.69 L805.44,639.78 L809.19,642.69 L809.19,642.69 Z M809.21,643.86 L809.20,643.13 L807.95,646.12 L809.21,643.86 Z M719.94,286.72 L714.84,283.63 L712.96,282.50 L719.94,286.72 Z M685.49,281.23 L685.71,280.99 L685.26,280.72 L685.49,281.23 Z M684.10,278.09 L683.83,275.71 L683.58,276.91 L684.10,278.09 Z M685.59,274.28 L685.59,274.17 L684.58,274.35 L685.59,274.28 Z M695.03,273.07 L698.30,275.51 L698.11,275.33 L695.03,273.07 Z M743.28,468.20 L742.59,466.99 L743.28,465.25 L742.71,466.54 L741.88,465.91 L743.28,468.20 Z M746.05,465.55 L746.62,464.93 L743.28,465.25 L746.05,465.55 Z M732.39,566.89 L734.33,565.70 L733.90,565.84 L730.73,566.69 L732.39,566.89 Z M727.86,567.45 L727.42,567.57 L723.02,573.00 L727.86,567.45 Z M723.96,575.34 L725.29,576.40 L723.02,573.00 L723.96,575.34 Z M732.58,585.08 L732.54,585.43 L735.29,584.78 L732.58,585.08 Z M729.52,608.62 L730.30,609.80 L730.13,608.47 L729.52,608.62 Z M733.97,670.95 L729.94,669.74 L732.52,670.95 L733.97,670.95 Z M692.61,490.18 L691.38,490.53 L690.97,491.20 L692.61,490.18 Z M699.62,488.87 L700.30,488.03 L695.72,489.31 L699.62,488.87 Z M713.27,641.29 L711.82,642.12 L711.65,642.93 L713.27,641.29 Z M710.19,649.67 L710.69,651.86 L711.12,645.35 L710.19,649.67 Z M692.17,537.86 L695.97,537.31 L692.95,537.31 L692.17,537.86 Z M696.03,570.44 L697.04,568.93 L695.70,570.36 L696.03,570.44 Z M699.63,570.51 L699.12,568.74 L699.05,569.76 L699.63,570.51 Z M711.70,582.96 L713.45,584.16 L710.25,579.72 L711.70,582.96 Z M706.10,503.66 L703.47,502.52 L704.34,503.58 L706.10,503.66 Z M694.71,366.10 L699.37,372.82 L707.73,381.80 L697.73,370.25 L694.71,366.10 Z M695.65,432.88 L697.98,429.18 L694.59,434.01 L695.65,432.88 Z M699.18,319.02 L698.42,316.53 L694.96,311.40 L699.18,319.02 Z M717.69,330.54 L717.86,329.96 L716.98,325.43 L717.69,330.54 Z M716.92,359.99 L717.99,358.63 L714.56,360.78 L716.92,359.99 Z M711.95,361.65 L713.19,361.24 L716.90,357.41 L711.95,361.65 Z M710.72,295.47 L709.62,294.80 L706.22,295.40 L710.72,295.47 Z M711.43,287.44 L709.68,289.74 L711.07,288.61 L711.43,287.44 Z M674.26,262.20 L676.66,262.95 L679.05,261.75 L676.34,262.73 L674.26,262.20 Z M700.86,264.78 L706.79,259.94 L700.94,264.16 L700.86,264.78 Z M713.33,271.78 L702.39,264.84 L715.32,273.77 L713.33,271.78 Z M716.08,282.62 L716.42,282.35 L715.22,277.74 L716.08,282.62 Z M717.67,275.40 L723.34,277.97 L716.23,274.41 L717.67,275.40 Z M692.13,235.83 L692.19,235.26 L693.64,235.87 L691.77,234.71 L692.13,235.83 Z M693.62,237.07 L696.72,230.66 L693.64,235.87 L693.62,237.07 Z M680.74,248.16 L680.45,247.52 L677.41,249.29 L680.74,248.16 Z M693.58,239.71 L694.65,242.35 L693.58,239.54 L693.58,239.71 Z M756.93,606.13 L751.33,603.79 L746.63,603.23 L756.93,606.13 Z M754.95,609.91 L758.82,604.32 L756.93,606.13 L754.95,609.91 Z M762.53,595.11 L763.10,590.21 L761.59,597.60 L762.53,595.11 Z M747.18,529.54 L743.72,531.91 L744.22,532.11 L747.18,529.54 Z M759.45,515.86 L756.55,516.34 L759.97,516.43 L759.45,515.86 Z M767.67,520.36 L765.11,516.56 L767.12,520.26 L767.67,520.36 Z M776.68,519.28 L773.11,520.46 L775.87,520.26 L776.68,519.28 Z M780.65,523.05 L783.88,524.92 L785.18,522.07 L783.60,524.41 L780.65,523.05 Z M795.62,525.62 L790.21,522.00 L799.08,528.79 L795.62,525.62 Z M798.50,518.74 L798.12,520.51 L798.58,519.58 L798.50,518.74 Z M749.94,550.27 L751.39,551.65 L755.42,553.08 L749.94,550.27 Z M752.85,560.48 L753.03,560.55 L755.42,553.08 L752.85,560.48 Z M788.64,546.59 L786.88,546.52 L786.22,547.49 L788.64,546.59 Z M736.48,565.61 L737.46,564.74 L735.51,565.34 L736.48,565.61 Z M751.65,560.00 L749.63,558.37 L746.86,558.06 L751.65,560.00 Z M755.42,566.44 L756.09,567.24 L755.61,564.10 L755.42,566.44 Z M756.49,573.08 L757.06,573.67 L756.61,570.68 L756.49,573.08 Z M735.89,487.66 L738.70,486.89 L738.06,486.76 L735.89,487.66 Z M759.32,493.93 L759.57,495.59 L759.76,493.47 L758.88,493.71 L759.32,493.93 Z M769.82,489.75 L774.29,488.12 L769.89,489.10 L769.82,489.75 Z M780.40,492.11 L778.82,493.47 L781.47,491.96 L780.27,491.89 L780.40,492.11 Z M786.25,502.45 L780.27,503.89 L779.20,504.57 L786.25,502.45 Z M768.69,467.67 L761.59,472.19 L761.54,472.09 L761.50,472.56 L768.69,467.67 Z M790.90,395.83 L788.45,394.91 L793.17,397.64 L790.90,395.83 Z M816.38,429.41 L819.02,432.43 L821.73,435.22 L816.38,429.41 Z M811.41,436.05 L809.64,440.02 L810.28,439.52 L811.41,436.05 Z M739.00,284.84 L734.35,281.89 L735.79,283.48 L739.00,284.84 Z M740.27,293.65 L740.27,293.65 L742.96,289.14 L740.27,293.65 Z M750.58,294.57 L744.35,295.70 L748.00,295.48 L740.20,299.78 L750.58,294.57 Z M763.03,286.35 L760.14,286.42 L756.74,288.08 L763.03,286.35 Z M747.12,408.43 L749.01,419.79 L748.31,414.47 L747.12,408.43 Z M753.16,411.90 L752.65,410.77 L751.39,408.58 L753.16,411.90 Z M770.14,402.93 L779.70,415.30 L772.66,406.02 L770.14,402.93 Z M789.58,423.37 L798.20,430.09 L779.70,415.30 L789.58,423.37 Z M748.81,379.23 L747.30,378.78 L745.86,378.63 L748.81,379.23 Z M735.03,366.25 L735.29,367.01 L735.97,367.37 L735.03,366.25 Z M740.95,322.94 L739.88,320.98 L740.51,320.15 L738.57,320.53 L740.95,322.94 Z M763.75,321.13 L763.98,320.75 L762.87,319.10 L763.16,319.77 L763.75,321.13 Z M836.14,573.68 L838.53,573.91 L834.37,573.38 L836.14,573.68 Z M850.88,579.43 L850.98,579.34 L852.68,571.80 L850.88,579.43 Z M878.54,613.60 L881.35,616.38 L881.35,616.38 L878.54,613.60 Z M896.59,588.47 L894.27,586.74 L888.29,584.70 L896.59,588.47 Z M922.20,585.83 L918.30,604.54 L918.37,605.10 L922.20,585.83 Z M930.44,612.17 L933.65,620.01 L932.89,616.62 L930.44,612.17 Z M940.69,608.54 L942.83,603.04 L939.37,605.37 L942.08,604.32 L940.69,608.54 Z M914.71,625.75 L913.83,625.52 L914.90,624.09 L912.01,626.35 L914.71,625.75 Z M925.22,625.97 L927.61,626.28 L929.12,625.67 L925.22,625.97 Z M917.51,649.46 L917.54,648.38 L915.72,644.76 L917.51,649.46 Z M917.12,656.03 L917.29,656.01 L917.33,654.85 L917.12,656.03 Z M857.90,647.78 L857.76,647.00 L857.81,647.89 L857.90,647.78 Z M876.07,682.14 L871.49,667.93 L875.27,680.98 L876.07,682.14 Z M881.43,616.70 L879.29,616.24 L881.56,617.22 L881.43,616.70 Z M859.24,582.53 L858.15,581.83 L854.38,581.98 L859.24,582.53 Z M833.87,523.73 L828.52,518.98 L827.62,518.26 L833.87,523.73 Z M833.78,525.66 L838.90,526.98 L834.19,525.54 L833.78,525.66 Z M866.84,574.81 L861.10,582.74 L861.74,582.81 L866.84,574.81 Z M887.60,553.54 L883.63,554.89 L889.86,553.61 L887.60,553.54 Z M941.70,587.64 L934.91,590.59 L945.66,585.98 L941.70,587.64 Z M940.38,598.28 L935.65,597.04 L935.85,597.38 L940.38,598.28 Z M815.82,549.24 L815.44,547.12 L815.44,550.21 L815.82,549.24 Z M813.05,556.40 L814.25,553.28 L813.49,554.14 L813.05,556.40 Z M829.78,563.95 L829.32,564.33 L831.29,566.51 L829.78,563.95 Z M834.25,474.68 L823.68,488.79 L827.52,484.12 L834.25,474.68 Z M814.05,512.11 L819.28,511.28 L821.23,510.38 L814.05,512.11 Z M831.73,516.41 L829.09,516.79 L836.58,516.64 L831.73,516.41 Z M693.19,774.57 L675.65,780.13 L691.44,775.83 L693.19,774.57 Z M638.27,140.02 L636.64,139.81 L631.17,140.34 L638.27,140.02 Z M639.41,162.67 L633.94,147.81 L631.17,140.34 L639.41,162.67 Z M639.66,140.79 L637.27,140.94 L643.06,140.64 L639.62,140.19 L639.66,140.79 Z M645.77,146.75 L645.45,145.24 L643.19,139.81 L645.20,145.39 L643.06,140.64 L645.77,146.75 Z M647.97,138.30 L648.07,138.29 L646.45,138.00 L646.84,138.38 L646.54,138.75 L647.97,138.30 Z M650.48,142.38 L650.33,139.62 L650.04,145.09 L650.48,142.38 Z M654.01,143.05 L652.75,142.60 L650.48,142.38 L654.01,143.05 Z M648.28,150.00 L649.10,148.41 L649.67,147.36 L650.04,145.09 L648.28,150.00 Z M653.69,145.47 L653.87,145.11 L653.76,145.09 L650.04,145.09 L653.69,145.47 Z M648.91,157.69 L648.79,156.26 L648.00,159.18 L648.91,157.69 Z M650.92,185.91 L651.62,178.97 L650.27,186.67 L650.92,185.91 Z M648.23,195.36 L648.76,192.15 L648.35,193.01 L648.23,195.36 Z M648.28,207.12 L647.59,202.97 L647.78,205.53 L648.28,207.12 Z M546.94,134.96 L547.52,134.76 L547.56,133.70 L546.93,134.87 L546.94,134.96 Z M549.71,136.57 L549.89,136.79 L549.74,136.56 L549.71,136.57 Z M584.55,130.38 L587.31,125.95 L587.20,125.85 L584.55,130.38 Z M587.79,126.34 L589.90,131.81 L588.01,126.53 L587.79,126.34 Z M613.05,131.96 L610.41,126.23 L613.87,135.74 L614.94,140.41 L613.05,131.96 Z M637.00,171.59 L638.59,173.46 L636.89,171.25 L637.00,171.59 Z M625.57,137.32 L628.27,142.81 L628.34,142.75 L625.57,137.32 Z M559.33,172.41 L557.38,173.31 L548.19,180.18 L559.33,172.41 Z M562.97,175.74 L562.87,175.18 L561.53,176.26 L562.97,175.74 Z M616.07,164.63 L615.00,164.18 L611.10,162.60 L616.07,164.63 Z M619.54,161.02 L621.24,158.66 L619.50,160.94 L619.54,161.02 Z M615.82,199.95 L612.05,205.83 L612.08,206.05 L615.82,199.95 Z M616.45,193.31 L619.22,194.36 L621.86,194.52 L616.45,193.31 Z M580.84,188.63 L575.76,191.38 L577.07,191.35 L580.84,188.63 Z M578.64,193.76 L582.41,193.99 L580.53,193.23 L578.64,193.76 Z M570.65,202.89 L576.20,194.94 L576.12,194.89 L570.65,202.89 Z M612.17,206.61 L612.30,207.34 L616.51,207.72 L612.17,206.61 Z M592.76,188.71 L593.80,188.86 L595.94,186.59 L592.76,188.71 Z M600.85,187.27 L599.65,186.59 L595.94,186.59 L600.85,187.27 Z M633.90,175.20 L635.51,175.43 L634.32,174.90 L633.90,175.20 Z M623.56,147.20 L623.31,155.77 L623.94,154.90 L623.56,147.20 Z M594.05,101.25 L586.82,104.42 L591.03,102.76 L594.05,101.25 Z M595.17,122.60 L598.33,125.70 L595.19,122.61 L595.17,122.60 Z M570.71,84.73 L570.84,83.90 L571.09,82.24 L570.71,84.73 Z M659.98,150.98 L658.73,147.05 L658.79,148.19 L659.98,150.98 Z M641.70,137.27 L643.25,137.70 L644.51,136.62 L642.93,137.09 L641.70,137.27 Z M644.87,136.51 L644.56,136.60 L644.32,137.62 L644.87,136.51 Z M670.93,179.42 L674.01,177.61 L672.38,178.07 L670.93,179.42 Z M669.55,196.70 L673.07,207.19 L669.68,196.00 L669.55,196.70 Z M658.71,144.59 L658.71,144.59 L656.27,143.05 L658.71,144.59 Z M658.66,137.85 L658.55,135.57 L658.67,138.43 L658.66,137.85 Z M666.20,140.87 L666.84,138.75 L666.15,139.89 L666.20,140.87 Z M658.29,130.15 L658.27,130.07 L658.31,130.66 L658.29,130.15 Z M668.18,127.57 L668.48,125.85 L668.16,127.06 L666.59,126.45 L668.18,127.57 Z M667.32,119.68 L668.60,120.87 L667.41,119.58 L667.32,119.68 Z M770.20,280.99 L765.80,275.93 L758.94,274.80 L763.03,273.97 L767.12,275.93 L769.76,278.65 L770.20,280.99 Z M814.18,239.71 L815.82,240.77 L813.74,241.45 L812.67,240.24 L814.18,239.71 Z M778.76,210.44 L778.01,210.59 L779.01,209.76 L778.76,210.44 Z M781.47,209.30 L782.54,209.91 L782.47,210.59 L780.52,209.61 L781.47,209.30 Z M795.75,212.55 L794.61,210.96 L799.40,204.93 L800.59,208.02 L799.27,211.19 L797.57,213.98 L795.75,212.55 Z M646.27,31.23 L643.69,29.34 L642.43,29.95 L640.61,27.91 L641.61,23.00 L644.51,19.23 L647.78,21.65 L648.60,23.83 L646.96,30.32 L646.27,31.23 Z M958.12,598.36 L958.18,596.92 L958.81,598.36 L958.12,598.36 Z M950.13,566.97 L948.06,568.48 L948.31,566.82 L949.94,566.14 L951.08,567.57 L950.13,566.97 Z M947.17,562.59 L947.80,562.14 L948.37,563.35 L947.74,563.50 L947.17,562.59 Z M950.51,329.66 L951.89,327.09 L955.16,330.03 L955.16,331.24 L952.33,332.07 L950.51,331.17 L950.51,329.66 Z M851.11,259.79 L857.46,254.50 L857.84,255.79 L856.14,258.35 L856.77,261.90 L857.65,262.28 L853.31,263.03 L851.42,262.28 L851.11,259.79 Z M820.79,228.24 L821.35,229.30 L817.70,236.24 L815.94,231.79 L818.27,228.55 L820.79,228.24 Z M839.60,235.79 L838.65,232.62 L835.57,231.49 L836.51,230.36 L836.39,227.11 L835.13,221.76 L832.55,221.08 L833.37,219.19 L832.17,220.25 L828.84,219.49 L827.89,222.43 L826.07,222.74 L824.12,217.30 L822.36,217.98 L820.47,216.10 L820.53,214.74 L824.75,213.76 L826.57,209.23 L833.43,205.46 L837.08,209.30 L836.32,212.10 L837.71,215.72 L840.79,217.76 L853.12,221.15 L854.63,222.51 L853.44,226.96 L853.56,231.41 L856.02,236.92 L853.88,241.75 L856.08,247.49 L852.43,247.94 L848.21,240.32 L845.95,240.39 L843.24,235.56 L839.60,235.79 Z" /></g></svg>