<svg xmlns="http://www.w3.org/2000/svg" viewBox="0 0 1000 1000" width="1000" height="1000"><g fill="#cccccc" stroke="#222" stroke-width="2"><path d="M586.16,878.42 L587.51,874.24 L584.64,872.55 L584.73,867.03 L581.87,864.27 L580.79,860.35 L584.46,858.49 L582.94,856.17 L580.43,856.17 L580.70,852.97 L576.85,852.26 L576.76,846.38 L574.88,843.18 L571.48,843.00 L571.84,838.82 L568.62,839.88 L566.65,841.84 L561.01,842.29 L561.81,843.80 L565.04,843.44 L562.80,849.94 L558.95,851.37 L557.70,849.50 L552.06,848.07 L553.40,855.55 L550.36,861.60 L545.43,863.47 L546.60,865.69 L549.46,866.76 L548.48,869.17 L541.94,868.36 L538.54,864.00 L532.36,865.43 L530.03,862.94 L527.26,863.02 L524.48,860.09 L524.84,856.88 L520.46,858.04 L519.47,855.28 L513.74,851.19 L514.19,848.96 L512.40,848.70 L518.93,842.73 L521.26,842.20 L520.19,842.20 L516.61,840.33 L513.92,840.60 L508.19,832.59 L505.60,834.72 L503.72,832.94 L502.01,833.83 L499.15,830.45 L498.43,832.50 L495.48,834.19 L493.87,833.03 L491.72,835.08 L489.66,833.03 L490.02,836.95 L484.65,837.39 L485.54,839.44 L483.21,839.71 L481.07,842.55 L479.19,841.04 L476.95,841.31 L477.58,846.92 L473.99,846.83 L472.47,848.16 L469.16,846.56 L468.00,849.23 L465.67,848.87 L465.04,851.37 L462.27,849.67 L458.42,850.92 L456.90,848.34 L453.76,847.54 L452.60,844.96 L448.39,845.94 L450.90,847.54 L449.91,857.33 L448.66,862.49 L445.26,862.85 L438.54,860.71 L433.08,861.42 L429.14,856.44 L423.59,856.79 L419.74,850.92 L417.15,852.43 L411.51,852.61 L404.53,856.26 L401.39,853.41 L398.98,853.95 L399.33,849.94 L396.83,847.00 L392.26,848.25 L387.16,846.20 L391.10,841.40 L391.01,836.86 L388.95,836.15 L389.31,834.81 L373.73,830.01 L371.85,829.12 L369.34,833.74 L369.43,836.50 L366.48,835.97 L364.78,831.79 L361.29,831.34 L356.28,827.69 L356.72,824.40 L354.57,822.17 L350.46,825.47 L343.21,821.73 L349.52,809.94 L337.12,832.32 L305.34,797.70 L304.44,781.23 L306.23,780.34 L304.17,779.54 L306.77,763.61 L309.90,734.69 L311.05,733.61 L309.81,733.00 L314.11,703.09 L313.93,693.48 L310.08,688.32 L309.90,684.40 L306.05,676.93 L304.17,677.91 L302.47,674.88 L298.27,672.21 L295.94,666.96 L292.72,669.01 L284.30,669.36 L283.58,674.70 L277.86,673.90 L276.78,678.35 L274.45,678.98 L268.63,677.02 L269.44,673.55 L268.28,672.48 L263.53,673.72 L258.43,673.01 L258.52,677.11 L255.12,680.67 L251.72,678.35 L247.42,678.17 L242.58,678.09 L244.55,672.57 L238.11,667.05 L236.77,668.03 L236.68,672.30 L232.38,674.97 L230.05,676.66 L228.17,674.08 L225.58,673.37 L219.31,676.39 L216.89,667.32 L212.15,669.45 L203.46,664.56 L201.32,664.11 L200.96,669.01 L195.85,668.65 L192.18,671.14 L190.04,669.36 L191.38,664.56 L190.57,663.31 L188.87,662.96 L184.66,666.60 L174.37,666.16 L174.91,670.16 L171.33,675.06 L166.31,673.10 L161.66,676.57 L156.64,677.37 L155.03,676.13 L154.59,671.41 L151.81,668.21 L153.87,665.63 L152.97,655.39 L158.43,647.47 L164.88,645.25 L166.49,641.77 L174.73,645.16 L174.91,636.52 L181.53,625.84 L181.35,624.69 L176.79,624.95 L176.34,623.44 L180.82,619.88 L185.56,608.22 L181.26,618.28 L179.92,618.55 L169.80,611.07 L163.36,613.12 L154.41,610.09 L149.66,612.23 L147.51,610.89 L147.16,608.22 L151.90,602.79 L151.18,600.21 L136.86,603.77 L134.98,602.70 L133.28,596.92 L121.82,597.36 L119.94,595.94 L120.12,593.27 L119.67,586.33 L110.45,575.74 L112.69,573.25 L120.48,572.44 L135.07,565.41 L138.83,562.83 L150.74,548.15 L166.58,544.14 L168.55,541.92 L169.54,535.87 L178.85,530.53 L183.86,533.20 L186.90,530.53 L188.96,526.61 L186.81,521.45 L181.44,522.52 L181.53,517.98 L179.56,514.33 L180.73,512.90 L188.07,512.73 L187.35,511.04 L184.04,511.93 L185.47,506.76 L188.33,510.32 L190.30,509.97 L187.62,505.61 L188.60,504.89 L192.54,506.94 L190.66,504.00 L191.11,502.05 L194.87,505.96 L195.41,499.82 L197.73,502.05 L199.52,501.51 L200.15,499.91 L198.18,498.40 L200.78,496.17 L203.11,497.06 L203.28,494.93 L205.43,495.37 L206.87,492.79 L208.66,493.24 L205.61,490.21 L202.93,472.32 L223.87,466.98 L229.42,463.87 L231.54,470.22 L230.32,464.22 L235.96,459.77 L243.84,457.73 L283.67,434.14 L293.61,450.69 L281.97,431.29 L279.74,430.58 L290.84,406.55 L300.24,386.17 L318.50,402.72 L294.15,380.56 L246.08,336.69 L191.47,286.31 L143.49,243.42 L136.59,235.32 L126.74,187.35 L133.28,219.21 L101.05,183.08 L95.14,188.77 L88.70,180.94 L114.03,154.42 L108.93,159.76 L84.13,185.39 L64.08,165.63 L53.88,157.53 L19.23,129.86 L24.24,122.91 L43.85,96.48 L50.83,89.90 L56.29,96.13 L69.45,83.31 L75.81,77.44 L74.55,75.48 L86.91,62.22 L91.56,69.43 L96.49,64.98 L118.30,100.09 L152.44,89.81 L160.94,87.14 L172.76,83.75 L201.94,72.27 L212.42,68.71 L199.17,39.08 L214.03,36.23 L218.06,37.56 L221.28,34.63 L244.29,32.31 L246.34,30.80 L251.00,27.15 L253.42,20.48 L260.67,19.23 L276.15,34.63 L302.47,48.24 L322.53,64.89 L353.68,95.95 L364.24,109.74 L369.08,118.55 L376.60,142.85 L387.43,153.08 L395.75,160.29 L405.24,174.09 L419.03,183.25 L451.88,204.35 L467.10,216.18 L475.34,221.44 L490.29,228.64 L502.37,239.15 L514.10,245.20 L523.41,252.85 L536.03,270.47 L545.07,281.33 L552.77,297.80 L556.71,303.94 L573.00,324.05 L586.79,338.56 L602.10,352.17 L621.26,364.37 L628.24,369.26 L640.05,369.71 L664.85,388.66 L677.03,395.96 L687.14,407.98 L694.84,412.16 L708.72,428.36 L712.21,438.15 L732.71,463.78 L740.59,470.19 L758.13,484.51 L776.57,508.10 L802.09,522.16 L811.93,530.17 L831.27,552.24 L843.18,562.92 L866.09,588.64 L936.55,651.12 L942.72,654.77 L980.77,677.28 L974.32,685.65 L974.14,696.60 L971.82,703.98 L965.55,722.32 L961.25,727.03 L962.69,728.37 L958.75,730.95 L958.48,734.69 L950.96,748.13 L938.25,757.74 L934.04,760.05 L925.62,761.21 L916.14,767.17 L900.47,773.58 L895.81,793.61 L874.87,810.34 L866.45,820.75 L867.26,823.06 L867.97,825.20 L878.72,827.78 L881.04,841.04 L878.90,852.26 L879.70,861.33 L870.39,873.70 L835.21,899.42 L830.91,899.51 L827.96,902.09 L809.25,907.26 L806.11,906.46 L808.89,905.39 L809.16,902.72 L804.77,899.07 L782.84,905.03 L769.05,909.93 L766.10,913.22 L757.95,914.20 L752.67,914.55 L731.10,922.12 L729.93,920.78 L725.01,924.52 L722.68,924.26 L705.49,930.31 L700.39,930.93 L695.38,933.24 L694.12,935.29 L690.90,933.51 L676.58,938.94 L636.83,949.80 L605.68,960.66 L601.29,963.68 L599.59,963.15 L595.56,965.02 L592.88,967.51 L591.09,966.71 L589.83,968.58 L583.39,970.53 L581.24,972.67 L574.26,973.83 L557.87,980.77 L550.53,956.12 L556.62,952.65 L544.18,896.75 L560.20,888.48 L574.70,883.58 L584.01,877.89 L590.73,880.56 L586.16,878.42 Z M217.34,513.08 L223.71,509.46 L188.96,526.61 L217.34,513.08 Z M333.89,387.42 L350.90,370.60 L341.41,379.94 L318.50,402.72 L333.89,387.42 Z M364.24,362.05 L371.58,357.16 L350.90,370.60 L364.24,362.05 Z M386.88,395.24 L386.88,395.24 L364.24,362.05 L386.88,395.24 Z M379.37,353.86 L379.41,353.72 L371.58,357.16 L379.37,353.86 Z M82.61,128.16 L93.44,116.77 L53.88,157.53 L82.61,128.16 Z M390.42,344.11 L389.13,344.25 L388.50,345.68 L390.42,344.11 Z M396.74,330.37 L395.75,327.17 L396.41,332.30 L396.74,330.37 Z M420.07,340.70 L420.07,340.70 L415.18,338.65 L420.07,340.70 Z M406.85,353.06 L417.69,343.81 L419.36,341.62 L406.85,353.06 Z M446.60,364.99 L447.32,345.59 L447.05,349.68 L446.60,364.99 Z M509.18,348.44 L508.19,353.15 L509.44,348.44 L500.04,345.77 L509.18,348.44 Z M304.71,666.52 L306.59,667.05 L306.88,667.67 L315.72,667.94 L304.71,666.52 Z M350.09,660.53 L349.74,662.16 L350.37,665.45 L350.09,660.53 Z M408.53,628.47 L408.75,630.71 L409.45,629.49 L408.53,628.47 Z M419.21,637.77 L416.16,635.01 L413.93,629.31 L416.52,636.35 L419.21,637.77 Z M424.49,650.50 L421.36,642.75 L419.21,637.77 L424.49,650.50 Z M438.16,614.44 L437.29,615.07 L435.78,615.84 L416.16,635.01 L438.16,614.44 Z M452.96,603.59 L449.11,606.41 L494.85,577.61 L452.96,603.59 Z M514.41,566.85 L513.29,566.57 L494.85,577.61 L514.41,566.85 Z M498.79,542.72 L497.99,541.56 L513.29,566.57 L498.79,542.72 Z M476.54,557.98 L476.54,557.98 L494.85,577.61 L476.54,557.98 Z M565.75,537.02 L572.20,532.31 L524.51,561.28 L533.35,556.42 L565.75,537.02 Z M579.81,481.06 L582.85,481.84 L584.55,482.20 L579.81,481.06 Z M583.93,450.43 L576.78,480.28 L576.78,480.28 L584.67,448.40 L583.93,450.43 Z M593.77,424.08 L590.55,440.02 L594.31,421.68 L593.77,424.08 Z M638.44,430.85 L649.63,426.04 L645.78,427.29 L638.44,430.85 Z M674.88,443.84 L680.97,444.47 L682.09,443.72 L674.88,443.84 Z M672.82,483.62 L678.73,489.23 L677.56,487.45 L672.82,483.62 Z M674.07,540.23 L667.63,540.14 L685.53,540.41 L674.07,540.23 Z M709.23,566.23 L710.33,568.53 L709.43,566.21 L709.23,566.23 Z M697.08,614.27 L699.50,608.22 L696.25,614.97 L700.12,614.36 L697.08,614.27 Z M695.20,617.15 L694.66,618.28 L694.57,620.86 L695.20,617.15 Z M696.18,622.73 L692.51,627.27 L686.87,638.30 L696.18,622.73 Z M683.11,636.17 L681.95,628.51 L683.38,638.30 L683.11,636.17 Z M663.22,669.32 L655.81,678.98 L663.24,669.36 L663.22,669.32 Z M651.87,675.42 L647.57,679.95 L648.47,679.06 L651.87,675.42 Z M687.65,752.69 L688.01,754.10 L688.40,753.20 L687.65,752.69 Z M685.98,760.12 L685.71,760.77 L689.11,767.00 L685.98,760.12 Z M685.44,785.60 L689.27,796.49 L689.02,793.78 L685.44,785.60 Z M688.93,817.25 L689.38,817.64 L692.96,817.10 L688.93,817.25 Z M687.67,886.27 L686.61,894.71 L685.35,907.97 L687.67,886.27 Z M548.39,620.59 L550.71,618.01 L546.51,621.22 L548.39,620.59 Z M547.76,610.27 L554.20,601.19 L556.08,598.61 L550.09,606.18 L547.76,610.27 Z M592.43,623.62 L594.13,617.75 L593.95,618.10 L592.43,623.62 Z M552.50,635.99 L546.24,634.30 L562.08,638.66 L552.50,635.99 Z M544.45,661.89 L544.88,662.84 L545.40,652.04 L544.45,661.89 Z M545.89,666.11 L544.54,667.32 L545.88,666.87 L548.39,669.90 L545.89,666.11 Z M570.60,728.34 L581.78,729.53 L571.66,728.10 L570.60,728.34 Z M561.19,728.10 L563.34,737.09 L562.80,732.20 L561.19,728.10 Z M547.94,767.97 L547.72,764.17 L547.04,764.33 L549.91,779.63 L547.94,767.97 Z M568.25,797.95 L570.70,797.57 L569.06,796.90 L571.75,791.56 L568.25,797.95 Z M571.07,799.50 L572.11,798.14 L571.46,797.88 L571.07,799.50 Z M563.69,816.21 L566.11,817.28 L567.52,816.57 L563.69,816.21 Z M357.53,745.46 L351.53,754.09 L354.57,750.00 L357.53,745.46 Z M382.33,747.24 L374.81,762.81 L377.49,758.99 L382.33,747.24 Z M513.23,774.24 L514.19,773.85 L514.01,768.51 L514.01,770.29 L513.23,774.24 Z M518.58,837.78 L515.80,833.21 L516.79,835.88 L518.58,837.78 Z M399.15,809.63 L399.78,810.07 L406.76,805.18 L399.15,809.63 Z M415.90,806.07 L428.61,810.96 L421.18,807.93 L415.90,806.07 Z M491.90,811.32 L491.81,813.19 L493.24,817.10 L491.90,811.32 Z M374.98,816.03 L375.07,820.39 L375.43,821.00 L374.98,816.03 Z M413.12,779.01 L412.85,785.77 L414.19,791.20 L413.12,779.01 Z M409.99,762.63 L414.55,777.50 L414.46,773.23 L413.75,774.20 L409.99,762.63 Z M416.52,774.47 L416.95,774.07 L414.46,773.23 L416.52,774.47 Z M457.34,773.85 L459.76,773.31 L456.84,772.89 L457.34,773.85 Z M472.38,710.75 L506.22,703.45 L526.63,699.00 L472.38,710.75 Z M536.39,666.69 L537.99,664.10 L537.29,664.02 L536.39,666.69 Z M534.69,719.56 L537.22,717.83 L531.82,719.56 L534.69,719.56 Z M350.01,705.41 L366.30,714.93 L374.00,718.49 L350.01,705.41 Z M375.43,693.84 L380.45,695.17 L382.56,694.72 L375.43,693.84 Z M390.47,693.04 L404.71,693.39 L408.91,693.48 L390.47,693.04 Z M343.49,703.23 L343.49,703.23 L344.82,706.30 L343.49,703.23 Z M573.81,577.52 L568.53,571.73 L570.50,573.96 L573.81,577.52 Z M622.33,672.48 L621.97,674.61 L623.28,672.12 L622.33,672.48 Z M625.73,669.90 L625.73,668.47 L621.26,665.00 L625.10,668.65 L625.73,669.90 Z M621.00,871.70 L620.81,871.12 L614.63,872.19 L621.00,871.70 Z M645.60,865.69 L643.55,864.98 L633.61,865.25 L645.60,865.69 Z M648.29,850.83 L648.52,851.30 L651.87,847.81 L648.29,850.83 Z M596.73,773.49 L592.25,774.47 L590.15,775.60 L596.73,773.49 Z M613.83,766.73 L612.06,766.98 L622.70,769.32 L622.51,769.13 L613.83,766.73 Z M642.74,773.94 L639.97,770.91 L638.23,770.43 L642.74,773.94 Z M615.79,740.03 L615.08,733.89 L616.87,753.20 L615.79,740.03 Z M655.99,717.25 L633.02,731.99 L637.73,729.79 L655.99,717.25 Z M595.92,591.31 L594.04,592.91 L604.20,584.39 L595.92,591.31 Z M637.08,559.53 L643.81,567.46 L639.43,561.50 L637.08,559.53 Z M597.34,614.97 L594.94,616.14 L594.52,616.97 L597.34,614.97 Z M632.01,580.92 L632.00,581.17 L634.06,583.84 L632.01,580.92 Z M623.22,531.51 L622.06,535.96 L620.18,543.16 L623.69,531.47 L623.22,531.51 Z M631.82,498.58 L624.75,525.19 L624.56,528.37 L631.82,498.58 Z M636.56,476.24 L617.94,483.27 L631.91,478.20 L636.56,476.24 Z M645.84,475.82 L645.87,475.26 L644.35,474.99 L645.84,475.82 Z M647.22,476.59 L651.16,475.61 L647.05,476.50 L647.22,476.59 Z M624.47,551.81 L625.19,545.03 L624.03,551.62 L624.47,551.81 Z M699.32,723.92 L693.60,722.50 L693.50,722.76 L699.32,723.92 Z M656.79,399.79 L663.09,404.69 L638.89,382.52 L656.79,399.79 Z M670.85,410.73 L675.50,411.45 L669.94,410.03 L670.85,410.73 Z M713.19,512.73 L710.33,502.22 L710.95,504.54 L713.19,512.73 Z M711.85,515.22 L713.82,527.77 L712.57,515.84 L713.19,512.73 L711.85,515.22 Z M753.75,500.80 L751.51,501.25 L754.59,501.31 L753.75,500.80 Z M739.69,511.57 L737.81,514.33 L743.90,506.59 L739.69,511.57 Z M737.54,520.44 L738.53,520.29 L739.69,518.51 L737.54,520.44 Z M730.74,522.07 L730.38,523.41 L732.26,521.79 L730.74,522.07 Z M742.56,539.23 L742.73,538.54 L737.90,532.48 L742.56,539.23 Z M741.84,542.19 L742.15,540.93 L735.39,549.31 L747.84,545.66 L737.01,548.59 L741.84,542.19 Z M770.58,561.32 L768.70,567.82 L767.89,570.84 L772.43,558.75 L770.58,561.32 Z M775.95,611.34 L773.53,609.56 L771.29,608.40 L775.95,611.34 Z M769.23,682.71 L769.94,683.23 L769.59,681.29 L769.23,682.71 Z M803.43,730.15 L794.57,716.80 L797.79,705.76 L794.39,717.25 L781.68,758.90 L794.30,717.69 L803.43,730.15 Z M742.56,729.88 L742.38,738.16 L743.99,721.16 L742.56,729.88 Z M753.48,758.27 L753.36,762.65 L757.59,761.74 L753.66,761.66 L753.48,758.27 Z M742.73,800.37 L741.94,801.14 L748.37,796.90 L742.73,800.37 Z M731.34,811.47 L734.05,809.63 L736.65,806.29 L731.34,811.47 Z M750.49,853.33 L751.40,853.82 L751.69,853.50 L753.89,852.70 L750.49,853.33 Z M749.76,858.64 L749.20,858.80 L750.79,864.27 L749.54,859.02 L749.76,858.64 Z M684.37,657.97 L679.89,652.01 L687.05,662.42 L684.37,657.97 Z M691.98,659.40 L690.63,659.13 L684.37,657.97 L691.98,659.40 Z M691.26,662.96 L692.16,661.53 L690.28,662.60 L690.16,662.61 L691.26,662.96 Z M725.47,681.87 L725.51,681.87 L735.21,661.09 L727.61,675.33 L725.47,681.87 Z M748.20,857.06 L745.78,859.29 L748.39,857.76 L748.20,857.06 Z M703.97,687.34 L697.26,671.86 L702.09,683.96 L703.97,687.34 Z M710.39,689.80 L710.69,689.66 L713.91,685.38 L710.39,689.80 Z M715.99,724.09 L716.77,724.72 L724.38,724.10 L724.44,723.26 L715.99,724.09 Z M734.05,722.32 L725.58,723.15 L726.98,723.74 L734.05,722.32 Z M708.77,691.83 L708.45,692.24 L708.88,692.36 L708.77,691.83 Z M685.20,668.58 L673.54,687.43 L675.33,684.94 L685.20,668.58 Z M732.26,629.58 L729.40,633.41 L730.09,633.74 L732.26,629.58 Z M749.36,637.06 L759.12,637.24 L731.37,634.37 L733.60,635.46 L749.36,637.06 Z M741.84,593.36 L746.14,592.11 L739.60,593.54 L741.84,593.36 Z M742.13,616.07 L740.53,618.92 L741.66,618.28 L742.13,616.07 Z M744.26,610.98 L744.44,611.96 L753.48,615.43 L744.26,610.98 Z M706.57,468.76 L702.36,463.60 L708.09,471.25 L706.57,468.76 Z M812.50,710.97 L812.02,711.13 L812.38,716.80 L812.50,710.97 Z M888.32,703.57 L878.81,708.26 L888.32,703.57 L888.32,703.57 Z M830.73,763.35 L829.84,791.11 L831.63,814.88 L830.20,780.79 L830.73,763.35 Z M760.66,851.47 L758.52,851.86 L759.74,852.52 L760.66,851.47 Z M768.07,850.12 L762.05,851.22 L762.52,851.90 L768.07,850.12 Z M796.27,836.77 L789.37,838.99 L797.45,837.12 L796.27,836.77 Z M858.04,826.54 L840.76,841.31 L858.89,826.17 L858.04,826.54 Z M826.70,753.02 L826.44,760.41 L826.97,747.24 L826.70,753.02 Z M808.98,619.44 L815.34,616.81 L812.47,617.03 L808.98,619.44 Z M835.39,617.21 L838.43,612.94 L837.27,613.74 L835.39,617.21 Z M846.49,613.74 L850.79,616.05 L842.37,611.16 L846.49,613.74 Z M823.12,657.26 L801.01,653.08 L802.62,653.43 L823.12,657.26 Z M855.34,656.63 L855.34,656.63 L850.25,661.18 L855.34,656.63 Z M888.04,702.90 L886.15,698.47 L878.00,684.40 L888.04,702.90 Z M913.72,678.09 L908.37,683.49 L908.37,683.49 L913.72,678.09 Z M811.21,595.81 L815.87,606.09 L821.24,614.36 L811.21,595.81 Z M827.24,564.52 L829.93,559.09 L826.38,565.34 L827.24,564.52 Z M832.43,593.80 L836.02,584.65 L834.85,585.71 L832.43,593.80 Z M794.66,559.27 L784.75,540.61 L786.15,543.61 L794.66,559.27 Z M406.48,484.08 L398.44,475.61 L346.96,428.62 L358.33,439.04 L377.67,456.66 L406.48,484.08 Z M398.71,462.35 L399.07,420.52 L398.44,475.61 L398.71,462.35 Z M324.67,446.07 L315.81,453.19 L346.96,428.62 L324.67,446.07 Z M336.22,473.75 L314.47,504.18 L308.06,513.53 L336.22,473.75 Z M337.12,518.24 L326.58,516.50 L324.41,520.56 L326.38,516.91 L337.12,518.24 Z M413.93,491.94 L438.90,518.51 L450.36,530.44 L428.52,507.30 L413.93,491.94 Z M449.02,494.48 L462.27,485.94 L428.52,507.30 L449.02,494.48 Z M229.07,506.41 L235.15,500.98 L228.91,506.50 L229.07,506.41 Z M259.59,479.89 L253.95,484.69 L235.15,500.98 L259.59,479.89 Z M267.27,487.60 L276.78,480.33 L267.27,487.60 L267.27,487.60 Z M290.12,488.25 L299.34,472.41 L295.85,478.02 L290.12,488.25 Z M327.09,537.74 L332.28,542.10 L325.21,536.13 L327.09,537.74 Z M315.36,561.59 L315.74,562.00 L317.61,558.87 L315.36,561.59 Z M316.62,565.59 L317.87,564.70 L317.33,563.72 L316.62,565.59 Z M315.59,568.34 L314.74,570.58 L313.13,571.91 L315.54,570.22 L315.59,568.34 Z M302.56,625.31 L302.38,629.58 L303.34,623.55 L302.56,625.31 Z M184.40,575.65 L183.62,576.32 L189.41,576.00 L184.40,575.65 Z M211.79,574.02 L209.64,574.13 L211.07,574.58 L211.79,574.02 Z M224.59,544.94 L229.07,548.15 L226.65,545.92 L224.59,544.94 Z M238.11,535.96 L231.48,541.56 L236.41,538.27 L238.11,535.96 Z M296.52,568.49 L294.84,567.01 L294.68,567.91 L296.52,568.49 Z M259.69,612.25 L254.76,604.13 L259.32,612.40 L259.69,612.25 Z M255.09,600.04 L255.65,599.68 L255.36,596.74 L255.09,600.04 Z M255.06,593.75 L255.03,593.45 L253.42,587.57 L255.06,593.75 Z M246.88,575.03 L273.83,560.61 L242.41,577.34 L246.88,575.03 Z M188.78,531.15 L188.96,538.98 L188.96,535.96 L188.78,531.15 Z M197.47,534.98 L207.39,531.01 L204.72,531.33 L197.47,534.98 Z M255.86,507.25 L271.22,515.54 L255.86,507.25 L255.86,507.25 Z M290.69,538.45 L294.15,540.85 L294.99,540.56 L290.71,538.43 L290.69,538.45 Z M299.59,538.25 L297.37,541.74 L298.80,540.76 L299.59,538.25 Z M234.29,478.47 L234.98,476.82 L233.85,477.15 L234.29,478.47 Z M386.71,600.39 L367.11,612.05 L381.79,603.51 L386.71,600.39 Z M356.98,576.85 L357.17,574.94 L355.72,573.31 L356.98,576.85 Z M351.71,562.12 L349.02,564.08 L364.51,567.28 L350.46,563.54 L351.71,562.12 Z M371.45,551.86 L371.31,551.80 L368.99,553.49 L371.45,551.86 Z M375.52,554.02 L394.42,562.61 L374.76,553.41 L375.52,554.02 Z M353.77,571.11 L347.95,570.93 L354.53,571.97 L353.77,571.11 Z M446.69,374.16 L448.75,376.65 L447.28,373.40 L446.69,374.16 Z M463.07,377.18 L459.22,377.00 L463.25,377.54 L470.95,380.83 L486.26,387.68 L463.07,377.18 Z M453.94,424.71 L451.70,428.53 L458.60,419.63 L453.94,424.71 Z M452.42,429.69 L433.98,439.75 L453.76,429.51 L451.70,428.53 L452.42,429.69 Z M412.76,401.83 L412.14,400.32 L412.94,402.46 L433.98,439.75 L412.76,401.83 Z M441.77,386.26 L425.74,394.80 L412.76,401.83 L441.77,386.26 Z M468.53,449.45 L475.61,446.87 L451.97,453.36 L468.53,449.45 Z M483.93,472.05 L475.37,458.90 L475.37,458.90 L483.93,472.05 Z M508.91,536.93 L530.93,490.48 L532.63,485.76 L508.91,536.93 Z M555.19,475.44 L553.04,479.00 L546.24,496.71 L555.19,475.44 Z M406.94,372.82 L407.49,372.25 L402.02,375.49 L406.94,372.82 Z M386.89,380.39 L397.54,373.27 L393.52,375.76 L386.89,380.39 Z M493.87,395.79 L492.88,394.63 L493.51,395.87 L493.87,395.79 Z M507.92,404.33 L501.75,402.90 L507.93,404.34 L507.92,404.33 Z M559.67,414.29 L552.59,413.05 L550.47,413.53 L559.67,414.29 Z M567.89,421.33 L567.89,421.36 L575.87,422.13 L567.89,421.33 Z M540.24,471.88 L543.48,468.50 L543.48,468.50 L540.24,471.88 Z M542.12,454.25 L524.39,433.52 L529.77,425.60 L523.68,433.79 L520.28,432.72 L525.02,434.41 L542.12,454.25 Z M517.32,465.38 L531.47,465.38 L516.09,464.86 L523.32,471.61 L517.32,465.38 Z M520.99,485.94 L521.17,487.63 L523.32,471.61 L520.99,485.94 Z M463.61,367.75 L481.25,360.36 L468.18,365.26 L463.61,367.75 Z M496.02,371.04 L488.94,371.58 L488.20,372.01 L492.08,371.49 L496.02,371.04 Z M515.35,356.36 L516.87,359.56 L509.89,357.34 L518.43,360.19 L515.35,356.36 Z M562.53,363.03 L567.27,356.09 L569.87,351.19 L562.53,363.03 Z M314.52,346.04 L313.96,346.67 L319.66,349.06 L314.52,346.04 Z M287.88,321.29 L274.37,316.22 L315.39,333.55 L315.39,333.55 L287.88,321.29 Z M329.33,318.18 L327.09,323.07 L331.39,313.90 L329.33,318.18 Z M304.46,71.42 L304.80,71.74 L314.92,79.93 L304.46,71.42 Z M298.15,94.43 L292.98,92.83 L287.52,91.50 L295.49,94.43 L298.15,94.43 Z M299.31,94.79 L299.83,96.07 L299.88,94.97 L299.31,94.79 Z M299.57,102.81 L298.98,108.80 L299.34,108.50 L299.57,102.81 Z M337.92,194.29 L287.43,230.78 L314.11,211.56 L337.92,194.29 Z M319.86,228.59 L317.87,220.10 L314.11,211.56 L319.86,228.59 Z M294.14,252.99 L286.45,251.25 L304.17,257.48 L293.52,253.65 L294.14,252.99 Z M327.45,243.86 L334.43,248.13 L335.95,249.20 L326.55,242.47 L327.45,243.86 Z M344.55,231.14 L345.62,230.60 L350.10,225.17 L344.55,231.14 Z M348.93,220.37 L342.22,206.22 L350.10,225.17 L348.93,220.37 Z M380.80,242.17 L380.87,242.31 L382.15,236.21 L380.80,242.17 Z M380.39,269.32 L377.94,272.79 L380.36,269.41 L380.39,269.32 Z M395.93,260.59 L407.30,265.31 L408.45,265.25 L395.93,260.59 Z M414.76,265.67 L416.16,266.02 L416.35,265.53 L414.76,265.67 Z M453.53,272.05 L449.47,268.16 L448.75,263.98 L449.64,269.41 L452.78,272.43 L453.53,272.05 Z M462.01,305.44 L463.88,305.81 L467.55,304.47 L462.01,305.44 Z M482.77,310.17 L479.28,313.99 L476.77,318.53 L480.26,313.28 L482.77,310.17 Z M163.72,110.81 L162.46,108.67 L160.94,106.09 L163.72,110.81 Z M179.92,126.30 L193.71,110.72 L188.33,116.06 L179.92,126.30 Z M219.49,101.55 L222.89,104.58 L217.25,99.42 L210.89,93.54 L219.49,101.55 Z M224.32,102.62 L252.43,103.78 L254.31,104.22 L249.03,102.80 L224.32,102.62 Z M279.11,122.82 L288.33,110.01 L285.46,113.93 L279.11,122.82 Z M251.54,261.13 L256.28,258.01 L259.86,255.61 L251.54,261.13 Z M276.42,273.59 L253.27,321.42 L258.70,310.34 L271.95,283.11 L276.42,273.59 Z M136.45,177.96 L117.01,159.32 L116.99,159.40 L136.45,177.96 L136.45,177.96 Z M188.03,160.65 L188.03,160.65 L166.89,161.60 L167.48,162.25 L188.03,160.65 Z M192.90,225.80 L195.50,234.70 L191.29,217.70 L192.90,225.80 Z M212.41,238.17 L216.01,244.23 L212.42,238.17 L212.41,238.17 Z M252.16,224.73 L253.38,224.99 L221.28,216.36 L252.16,224.73 Z M146.98,127.99 L139.99,135.02 L117.52,157.80 L117.49,157.91 L146.98,127.99 Z M153.24,133.95 L165.15,159.67 L165.47,160.03 L153.24,133.95 Z M229.96,141.87 L236.41,138.04 L237.13,136.79 L229.96,141.87 Z M239.15,133.31 L240.53,130.92 L241.06,126.83 L239.15,133.31 Z M261.09,72.05 L261.65,70.49 L263.25,69.25 L262.19,69.07 L260.92,71.66 L261.09,72.05 Z M266.04,96.57 L262.51,98.32 L262.51,98.32 L266.04,96.57 Z M252.97,57.41 L251.27,50.74 L252.60,57.96 L257.00,55.54 L252.97,57.41 Z M415.81,289.43 L416.34,287.74 L416.34,287.69 L415.81,289.43 Z M428.01,297.60 L427.70,298.43 L431.02,297.35 L428.01,297.60 Z M372.66,303.14 L381.70,303.58 L378.48,303.40 L372.66,303.14 Z M383.22,308.39 L382.39,302.85 L381.70,303.58 L383.22,308.39 Z M412.23,312.04 L415.09,313.64 L401.48,301.71 L412.23,312.04 Z M298.62,290.68 L313.48,297.08 L302.83,292.37 L298.62,290.68 Z M309.28,122.82 L310.71,121.40 L306.14,125.05 L309.28,122.82 Z M439.80,227.66 L438.69,229.43 L448.39,221.79 L439.80,227.66 Z M442.57,236.21 L437.95,230.61 L437.56,231.22 L442.55,236.79 L443.05,235.82 L442.57,236.21 Z M335.60,205.50 L351.21,194.59 L351.21,194.59 L343.38,199.81 L335.60,205.50 Z M368.36,188.51 L360.12,176.22 L351.44,163.14 L361.38,178.18 L368.36,188.51 Z M316.98,243.86 L317.03,243.18 L314.65,241.99 L316.98,243.86 Z M379.10,227.93 L383.85,227.40 L376.86,228.11 L379.10,227.93 Z M394.32,219.66 L397.99,219.48 L401.30,218.05 L394.32,219.66 Z M405.60,229.62 L414.64,234.43 L423.50,237.81 L405.60,229.62 Z M382.15,197.94 L377.49,200.88 L371.89,207.05 L382.15,197.94 Z M510.60,320.89 L513.29,320.76 L510.79,320.76 L510.60,320.89 Z M508.64,322.27 L507.47,327.08 L509.33,321.79 L508.64,322.27 Z M496.02,269.85 L491.99,267.89 L491.08,265.93 L490.91,267.54 L496.02,269.85 Z M506.23,274.36 L505.77,274.48 L499.78,282.13 L506.23,274.36 Z M512.76,284.71 L510.61,279.64 L506.77,274.22 L506.74,274.23 L512.76,284.71 Z M515.35,282.49 L517.41,280.71 L517.75,280.35 L517.14,280.89 L512.76,284.71 L515.35,282.49 Z M513.20,272.61 L516.52,271.99 L509.27,272.61 L509.18,270.21 L508.26,273.61 L513.20,272.61 Z M526.27,276.61 L524.04,279.20 L521.80,285.60 L526.27,276.61 Z M483.92,280.20 L483.92,280.20 L487.51,281.78 L483.92,280.20 Z M490.82,289.25 L489.84,285.69 L487.51,281.78 L490.82,289.25 Z M490.82,293.88 L490.64,294.36 L494.85,292.46 L490.82,293.88 Z M504.79,286.40 L502.46,287.47 L499.69,285.87 L503.27,288.09 L504.79,286.40 Z M508.10,298.15 L509.98,293.61 L510.16,291.21 L508.10,298.15 Z M490.11,295.75 L490.85,296.17 L490.29,295.27 L490.11,295.75 Z M492.49,301.74 L502.91,302.87 L493.96,301.18 L492.49,301.74 Z M507.74,260.59 L491.81,244.93 L508.10,260.95 L510.43,258.55 L507.74,260.59 Z M513.47,266.38 L518.39,271.27 L518.39,271.27 L508.10,260.95 L513.47,266.38 Z M467.19,239.50 L467.67,239.82 L467.73,236.21 L467.19,239.50 Z M467.19,241.19 L467.64,241.77 L467.66,240.92 L467.19,241.19 Z M491.72,259.97 L491.42,262.80 L493.78,257.39 L491.72,259.97 Z" /></g></svg>