<svg xmlns="http://www.w3.org/2000/svg" viewBox="0 0 1000 1000" width="1000" height="1000"><g fill="#cccccc" stroke="#222" stroke-width="2"><path d="M712.42,584.06 L710.78,582.66 L711.33,582.12 L712.62,583.41 L712.42,584.06 Z M267.08,667.20 L264.21,667.10 L262.02,664.30 L257.79,667.31 L257.21,664.41 L254.23,666.45 L250.89,665.05 L250.20,667.63 L253.35,670.53 L253.00,675.69 L250.75,678.37 L247.26,690.73 L243.10,692.02 L239.20,687.08 L235.17,688.79 L231.75,697.39 L231.14,702.76 L232.03,706.30 L230.04,715.87 L228.13,719.63 L224.44,715.97 L223.62,712.75 L216.31,713.18 L210.36,701.90 L204.96,706.63 L205.03,712.32 L199.63,711.68 L196.70,708.45 L195.53,701.36 L188.70,686.65 L178.11,688.26 L179.41,682.24 L179.00,679.13 L172.85,678.27 L173.33,676.66 L171.34,676.23 L167.18,668.38 L171.00,659.58 L169.16,639.70 L170.59,634.33 L170.32,629.07 L172.51,625.63 L174.56,613.17 L172.78,606.08 L173.74,602.64 L172.98,600.60 L168.34,600.17 L166.70,598.13 L163.28,600.49 L159.86,598.56 L156.31,608.55 L157.47,613.92 L153.30,631.54 L150.37,622.09 L152.76,610.70 L151.12,609.30 L147.91,610.59 L146.33,608.87 L145.17,610.48 L144.63,606.40 L141.00,604.36 L140.11,605.33 L140.32,607.91 L137.04,611.77 L134.72,606.19 L132.32,605.33 L130.68,607.15 L128.77,605.86 L123.24,606.29 L123.10,600.39 L124.60,596.95 L118.11,577.18 L116.20,575.03 L114.15,566.23 L109.57,564.40 L105.95,559.24 L99.66,557.31 L96.86,559.03 L95.56,554.30 L90.16,546.78 L79.91,542.38 L78.41,538.62 L74.24,535.50 L74.31,528.84 L78.20,512.62 L77.38,505.42 L75.06,500.59 L75.27,496.83 L73.69,495.65 L72.60,490.39 L70.21,485.77 L72.33,480.83 L74.38,469.55 L71.03,465.36 L70.07,466.22 L65.08,463.10 L62.01,463.32 L60.71,468.58 L51.83,467.83 L47.52,454.18 L48.89,450.96 L46.84,448.06 L42.74,446.24 L42.40,443.01 L44.04,439.68 L44.10,433.77 L37.34,438.29 L30.78,434.31 L29.34,420.02 L23.33,417.55 L21.08,411.54 L19.23,403.91 L22.17,395.42 L19.91,389.09 L22.37,385.43 L21.55,372.76 L23.06,370.93 L23.67,361.80 L25.93,356.43 L23.67,353.96 L25.52,350.95 L23.67,346.33 L23.47,340.85 L24.83,336.99 L24.08,334.19 L27.16,329.68 L26.68,328.39 L30.03,323.24 L27.02,317.54 L27.50,305.51 L32.69,301.97 L36.52,295.31 L35.70,291.22 L36.66,286.28 L43.90,280.91 L39.80,271.78 L40.82,259.43 L42.94,256.96 L41.10,255.13 L40.28,249.54 L44.86,242.45 L45.88,243.21 L46.77,239.55 L50.94,234.40 L55.04,232.89 L57.36,225.70 L61.67,227.74 L66.11,233.43 L69.05,233.75 L71.51,237.19 L76.91,237.84 L78.89,239.88 L82.58,238.16 L85.99,241.06 L93.17,240.74 L99.32,243.42 L104.10,248.15 L107.18,246.43 L112.92,235.26 L127.81,220.86 L132.80,220.33 L135.13,216.35 L140.59,214.52 L145.17,218.82 L149.89,216.24 L154.67,225.48 L156.86,232.46 L167.79,235.90 L169.64,237.94 L173.87,238.05 L179.68,250.30 L182.69,250.08 L190.75,254.92 L194.99,260.39 L202.64,260.50 L206.06,263.08 L211.80,260.50 L219.93,261.58 L220.75,257.92 L226.08,254.49 L228.27,256.63 L232.91,251.05 L234.83,250.30 L236.26,255.56 L238.45,252.34 L245.35,253.41 L249.52,241.60 L253.96,239.88 L254.99,237.84 L262.16,238.80 L262.30,236.76 L265.99,234.40 L273.91,231.82 L273.85,224.94 L284.44,228.60 L291.13,228.27 L293.39,229.35 L295.78,236.55 L300.50,241.49 L300.70,249.76 L302.41,256.96 L305.76,263.40 L305.35,264.68 L307.13,263.51 L307.40,265.77 L300.84,270.81 L308.08,265.77 L310.61,275.11 L311.16,281.99 L316.28,284.46 L321.54,291.12 L324.41,289.29 L325.44,286.18 L331.66,283.49 L339.52,282.42 L339.65,284.99 L343.14,283.06 L347.10,284.24 L348.06,282.09 L348.65,282.78 L348.40,281.23 L348.67,276.29 L350.24,274.57 L351.20,269.31 L353.93,269.85 L357.83,264.58 L357.83,266.09 L369.38,264.37 L371.15,271.03 L372.25,271.89 L376.28,272.75 L379.63,270.06 L379.49,275.97 L375.80,277.04 L376.14,280.05 L382.36,279.09 L392.27,263.19 L401.43,256.20 L406.28,258.35 L407.92,260.82 L409.08,269.20 L408.74,262.22 L411.95,263.08 L414.14,260.82 L418.99,246.43 L419.81,226.23 L418.85,217.64 L420.56,208.29 L422.00,204.64 L426.98,203.57 L429.85,201.42 L433.89,185.31 L435.66,171.77 L437.71,167.37 L441.61,163.18 L445.91,162.00 L453.98,165.97 L461.56,166.72 L470.10,163.93 L472.56,161.03 L473.52,153.08 L472.15,145.56 L465.39,127.41 L463.41,116.45 L460.20,103.77 L455.14,86.58 L455.34,82.18 L459.03,74.66 L469.42,64.78 L473.38,69.29 L476.12,68.75 L477.62,66.28 L475.78,62.74 L475.78,60.48 L479.19,68.75 L484.39,96.15 L486.91,112.80 L489.10,128.91 L491.22,145.88 L493.95,163.28 L498.12,183.69 L504.13,209.58 L509.26,228.70 L518.14,256.53 L531.19,292.84 L541.04,315.50 L568.71,374.48 L573.83,383.89 L573.84,383.82 L581.15,383.39 L590.10,383.18 L589.96,379.42 L591.26,377.81 L592.97,379.85 L592.63,382.21 L589.83,385.11 L590.92,390.48 L604.04,424.21 L619.62,457.51 L627.41,472.88 L637.18,491.46 L643.26,502.31 L649.07,512.51 L664.86,538.62 L684.95,568.37 L700.26,588.03 L708.25,592.87 L710.64,597.49 L713.24,598.45 L722.94,596.73 L727.93,598.35 L730.80,595.66 L733.67,597.59 L735.11,595.87 L741.19,596.41 L747.20,602.32 L750.82,603.61 L770.16,628.42 L774.60,633.26 L777.68,632.72 L782.39,641.85 L788.07,644.97 L792.44,652.06 L798.45,650.55 L798.52,652.27 L804.12,653.35 L822.92,687.29 L841.57,715.97 L849.36,728.97 L872.94,759.80 L874.85,763.13 L875.26,766.68 L878.81,769.25 L880.52,767.86 L885.99,770.76 L888.93,771.83 L891.11,769.68 L891.25,773.23 L901.91,778.60 L909.91,776.02 L910.93,769.36 L909.70,768.40 L910.45,765.49 L907.79,762.92 L910.86,762.59 L912.50,754.97 L915.99,750.78 L919.68,749.49 L920.43,754.54 L928.90,753.14 L928.15,758.62 L919.20,774.30 L921.25,781.18 L919.47,786.12 L925.28,800.62 L929.31,820.82 L944.24,869.21 L944.28,867.44 L952.27,886.13 L954.80,886.77 L959.11,896.76 L961.64,895.91 L960.88,898.91 L961.77,903.10 L969.77,922.33 L975.23,922.55 L980.77,927.60 L976.12,925.77 L967.58,928.02 L959.11,934.58 L951.59,931.46 L944.62,934.04 L939.29,938.66 L935.33,935.97 L935.12,917.93 L931.50,916.75 L928.97,913.74 L920.57,917.07 L916.74,912.02 L911.75,913.74 L905.12,904.28 L895.28,903.00 L891.59,899.45 L887.97,899.77 L885.17,898.16 L878.75,894.62 L869.79,895.91 L864.19,893.54 L863.10,894.29 L861.73,899.13 L856.74,907.29 L852.91,924.05 L840.48,924.91 L837.88,931.78 L835.08,933.93 L834.05,942.96 L829.20,945.75 L827.63,953.81 L826.54,953.16 L826.20,955.42 L830.50,970.13 L825.44,980.77 L819.50,970.89 L816.01,971.53 L811.30,976.69 L808.84,974.75 L808.29,971.75 L804.53,970.13 L801.19,964.55 L799.55,964.12 L799.07,962.19 L796.88,961.97 L795.79,959.18 L792.99,962.61 L784.03,959.71 L782.26,962.29 L774.06,964.33 L767.77,974.43 L764.83,972.39 L764.15,968.95 L761.82,966.91 L759.23,970.03 L755.95,969.17 L749.52,976.36 L743.58,973.68 L727.04,971.42 L725.54,968.85 L721.03,969.70 L712.76,962.51 L707.29,962.83 L696.09,957.57 L685.02,956.71 L679.69,952.84 L672.92,950.69 L667.32,943.71 L662.81,941.77 L665.20,930.07 L664.45,921.58 L667.86,918.25 L668.48,915.24 L672.31,909.44 L676.13,906.22 L679.28,899.45 L682.21,897.09 L684.74,897.62 L679.96,889.14 L670.80,866.90 L665.95,860.78 L647.57,858.84 L644.15,855.30 L642.44,847.67 L628.91,829.52 L626.59,823.07 L622.90,818.24 L622.15,815.98 L614.97,817.27 L609.30,825.54 L605.68,821.14 L599.73,822.97 L597.00,821.25 L597.48,814.16 L595.43,811.04 L594.68,805.99 L590.51,801.05 L586.82,790.63 L580.53,783.00 L585.04,788.91 L576.09,798.37 L571.65,791.38 L567.62,789.34 L559.28,788.70 L557.16,792.89 L554.77,793.75 L543.22,813.19 L530.37,812.22 L528.26,815.77 L525.66,813.62 L521.83,813.51 L518.01,817.27 L515.48,816.09 L511.31,819.96 L508.58,819.53 L503.79,827.69 L518.14,836.18 L519.10,841.01 L518.14,844.88 L514.25,851.11 L509.05,848.75 L506.18,844.56 L499.90,850.90 L502.02,855.84 L500.85,857.34 L496.96,856.80 L492.79,859.27 L487.12,858.31 L479.53,866.69 L473.38,859.81 L465.94,857.23 L459.72,848.00 L453.70,845.09 L447.07,849.50 L446.46,852.72 L443.93,855.62 L441.06,862.50 L442.15,877.21 L435.53,881.51 L435.18,886.02 L430.81,892.15 L394.80,891.72 L387.56,892.90 L386.74,891.18 L381.61,893.22 L378.94,891.39 L373.20,884.73 L367.87,872.17 L361.59,873.99 L357.97,879.15 L357.15,882.37 L354.55,879.15 L354.21,875.60 L349.29,872.06 L347.44,873.24 L345.32,869.26 L347.24,863.36 L344.16,855.73 L345.87,852.94 L346.42,846.38 L348.40,843.27 L348.40,838.43 L346.69,834.14 L344.78,818.13 L341.57,818.67 L339.52,814.59 L339.58,812.76 L341.98,811.15 L342.04,809.32 L340.13,806.21 L338.49,794.28 L336.92,792.14 L329.13,797.83 L324.48,796.11 L321.00,797.72 L317.31,796.43 L316.83,770.87 L314.85,768.50 L313.41,760.34 L309.31,756.69 L304.60,748.84 L298.58,751.10 L297.83,756.58 L293.87,750.89 L292.30,746.16 L292.23,740.68 L294.28,739.18 L292.43,735.31 L294.48,728.43 L297.63,726.72 L298.58,723.39 L295.44,704.37 L292.91,699.11 L294.07,696.21 L293.73,692.34 L289.84,681.17 L286.01,690.73 L285.67,694.81 L282.52,695.56 L280.88,687.61 L282.59,677.19 L285.46,670.96 L283.82,666.56 L280.13,669.14 L276.78,673.97 L273.44,671.07 L269.40,670.32 L267.08,667.20 Z M178.39,258.26 L179.00,256.96 L179.68,250.30 L178.39,258.26 Z M648.59,565.04 L649.14,564.29 L664.86,538.62 L648.59,565.04 Z M734.22,602.00 L735.31,607.48 L734.63,603.93 L735.11,595.87 L734.22,602.00 Z M484.39,188.10 L490.13,187.45 L483.52,186.94 L484.39,188.10 Z M487.80,232.82 L487.42,233.23 L487.73,233.65 L487.80,232.82 Z M491.61,255.86 L491.53,255.36 L491.29,255.78 L491.61,255.86 Z M493.75,409.50 L490.47,404.13 L488.62,402.41 L493.75,409.50 Z M504.00,410.36 L503.82,409.66 L503.46,410.52 L504.00,410.36 Z M499.49,414.44 L500.17,411.54 L498.33,418.52 L499.49,414.44 Z M498.05,434.74 L497.64,431.63 L497.97,434.89 L498.05,434.74 Z M484.59,431.20 L484.45,430.20 L483.99,431.61 L484.59,431.20 Z M479.74,433.56 L483.22,434.74 L481.31,433.45 L482.38,432.71 L479.74,433.56 Z M488.34,463.99 L486.85,461.92 L487.19,463.64 L488.34,463.99 Z M490.26,466.65 L489.23,465.21 L490.54,470.41 L490.26,466.65 Z M486.55,475.12 L487.60,473.41 L486.57,474.06 L486.55,475.12 Z M486.71,479.86 L486.50,478.66 L486.44,482.44 L486.71,479.86 Z M500.58,522.83 L494.98,523.69 L490.95,524.98 L500.58,522.83 Z M490.26,532.07 L490.27,531.95 L486.16,539.59 L490.26,532.07 Z M496.96,585.02 L494.98,583.84 L498.67,587.52 L496.96,585.02 Z M512.10,603.65 L509.60,599.63 L510.01,601.68 L512.10,603.65 Z M519.92,608.66 L519.03,607.58 L522.24,613.28 L519.92,608.66 Z M527.09,648.30 L522.24,645.07 L530.14,652.00 L527.09,648.30 Z M470.99,801.37 L470.45,791.81 L470.17,798.15 L470.99,801.37 Z M497.92,822.54 L490.79,816.50 L491.15,817.16 L497.92,822.54 Z M349.83,300.46 L346.69,298.21 L351.58,303.09 L349.83,300.46 Z M341.77,297.99 L340.51,298.61 L346.69,298.21 L341.77,297.99 Z M336.11,300.76 L333.64,301.97 L330.29,305.83 L336.11,300.76 Z M340.06,348.05 L337.26,343.65 L336.71,336.45 L336.71,342.89 L340.06,348.05 Z M349.36,381.89 L359.40,390.70 L357.35,387.80 L349.36,381.89 Z M359.54,394.89 L360.35,396.22 L359.40,390.70 L359.54,394.89 Z M380.11,356.86 L388.96,348.98 L388.17,348.70 L380.11,356.86 Z M396.85,338.81 L392.82,345.26 L390.22,349.45 L388.92,352.03 L396.85,338.81 Z M389.33,357.07 L390.15,359.87 L388.92,352.03 L389.33,357.07 Z M391.06,363.50 L390.63,363.20 L390.82,363.83 L391.06,363.50 Z M400.47,368.46 L401.31,369.75 L399.99,364.38 L400.47,368.46 Z M426.82,360.52 L424.93,360.62 L417.35,363.20 L426.80,360.56 L426.82,360.52 Z M427.74,369.43 L424.18,376.73 L427.05,371.58 L427.74,369.43 Z M424.05,397.04 L415.64,400.69 L416.80,400.90 L425.41,397.04 L422.88,395.75 L424.05,397.04 Z M426.57,394.99 L428.82,395.68 L428.56,394.99 L426.57,394.99 Z M429.94,398.63 L429.99,399.29 L430.23,399.42 L429.94,398.63 Z M430.85,401.04 L430.33,404.77 L430.88,401.12 L430.85,401.04 Z M412.45,602.61 L409.42,610.70 L412.57,603.18 L412.45,602.61 Z M398.28,639.60 L401.70,644.54 L406.62,651.52 L398.28,639.60 Z M415.57,674.31 L415.16,676.23 L415.99,678.00 L415.57,674.31 Z M416.15,679.48 L415.85,682.03 L416.53,682.88 L416.15,679.48 Z M434.91,699.54 L435.85,701.43 L435.80,700.40 L434.91,699.54 Z M419.74,763.13 L417.14,763.02 L426.30,764.85 L419.74,763.13 Z M409.92,692.00 L409.15,692.02 L409.18,693.68 L409.92,692.00 Z M404.16,692.77 L411.54,697.60 L409.21,694.78 L409.22,695.24 L404.16,692.77 Z M414.00,702.22 L415.17,700.75 L412.36,702.22 L410.58,702.76 L414.00,702.22 Z M415.86,700.39 L418.03,704.80 L416.46,700.07 L415.86,700.39 Z M420.23,704.08 L423.64,702.97 L421.04,702.87 L420.23,704.08 Z M162.48,332.42 L161.09,332.69 L152.89,337.52 L162.48,332.42 Z M170.32,336.02 L166.56,331.62 L165.97,331.73 L170.32,336.02 Z M190.59,336.84 L191.23,334.52 L190.59,336.84 L190.59,336.84 Z M187.13,316.04 L185.42,316.04 L185.14,316.93 L187.13,316.04 Z M218.70,325.92 L222.39,325.60 L218.44,324.82 L218.70,325.92 Z M223.62,334.19 L228.14,334.31 L227.79,334.30 L223.62,334.19 Z M242.21,304.47 L241.46,304.65 L241.05,306.16 L242.21,304.47 Z M239.54,300.57 L238.75,300.64 L241.46,304.65 L239.54,300.57 Z M281.99,305.98 L281.23,305.30 L273.23,303.90 L281.99,305.98 Z M285.46,306.80 L286.53,306.12 L284.14,306.49 L285.46,306.80 Z M289.36,304.33 L291.20,299.07 L288.14,305.10 L289.36,304.33 Z M291.84,299.92 L293.12,299.50 L291.20,299.07 L291.84,299.92 Z M307.97,311.76 L307.26,310.99 L306.83,311.18 L307.97,311.76 Z M317.47,326.80 L318.26,328.29 L317.49,326.64 L317.47,326.80 Z M348.40,444.73 L349.60,445.89 L337.88,428.08 L348.40,444.73 Z M339.79,495.97 L347.58,494.90 L341.43,495.11 L339.79,495.97 Z M331.62,488.94 L326.87,496.40 L331.62,488.94 L331.62,488.94 Z M312.11,526.69 L311.89,528.70 L313.75,523.26 L312.11,526.69 Z M306.78,536.58 L310.00,534.21 L310.55,532.60 L306.78,536.58 Z M304.80,541.09 L301.18,554.09 L306.78,536.58 L304.80,541.09 Z M297.08,556.24 L302.99,554.29 L301.18,554.09 L297.08,556.24 Z M372.93,595.34 L377.30,602.00 L367.81,585.88 L372.93,595.34 Z M387.15,622.19 L388.31,625.42 L387.19,621.13 L387.15,622.19 Z M302.93,665.12 L306.03,667.42 L303.37,664.84 L302.93,665.12 Z M301.52,666.02 L295.71,676.33 L302.04,665.69 L301.52,666.02 Z M307.73,326.28 L316.01,320.01 L309.79,323.99 L307.73,326.28 Z M192.43,339.13 L190.97,337.47 L191.98,339.13 L192.43,339.13 Z M192.46,379.74 L202.37,375.77 L205.75,374.22 L199.84,375.66 L192.46,379.74 Z M242.69,361.59 L240.98,358.15 L240.94,358.10 L242.62,363.20 L244.33,358.26 L242.69,361.59 Z M251.36,374.80 L253.41,377.38 L249.52,369.32 L244.33,358.26 L251.36,374.80 Z M269.82,354.77 L267.76,355.79 L269.75,355.46 L269.82,354.77 Z M278.97,413.79 L279.04,416.82 L279.45,416.16 L278.97,413.79 Z M153.17,404.56 L172.98,403.59 L156.04,403.80 L153.17,404.56 Z M179.41,435.28 L175.31,444.84 L174.49,448.28 L179.41,435.28 Z M211.52,483.40 L212.62,480.07 L213.01,476.47 L211.52,483.40 Z M250.09,516.82 L249.66,515.84 L247.61,513.70 L250.09,516.82 Z M327.15,483.30 L317.24,480.18 L315.26,479.86 L327.15,483.30 Z M272.82,546.35 L264.42,551.29 L273.69,546.60 L272.82,546.35 Z M275.49,547.10 L274.86,546.93 L281.58,556.76 L281.29,555.59 L275.49,547.10 Z M256.83,662.48 L259.36,656.89 L259.45,654.97 L256.83,662.48 Z M324.28,433.88 L327.08,431.52 L326.84,430.61 L324.28,433.88 Z M217.23,403.26 L215.21,395.64 L216.99,402.73 L217.23,403.26 Z M277.74,446.88 L272.34,438.07 L275.83,444.95 L279.20,448.70 L277.74,446.88 Z M86.88,329.04 L91.32,335.48 L84.63,324.20 L86.88,329.04 Z M297.01,356.22 L297.08,359.01 L297.58,359.71 L297.01,356.22 Z M299.06,361.80 L302.67,361.32 L302.41,360.83 L298.63,361.19 L299.06,361.80 Z M302.14,338.71 L304.39,330.00 L304.60,326.67 L302.14,338.71 Z M310.83,362.23 L317.24,356.75 L312.25,360.19 L310.83,362.23 Z M325.07,362.43 L324.07,360.40 L316.21,350.74 L318.20,353.64 L325.07,362.43 Z M242.55,357.40 L244.39,347.41 L244.20,346.15 L242.55,357.40 Z M243.91,344.21 L242.82,336.99 L243.23,343.97 L243.91,344.21 Z M270.36,342.04 L268.93,349.13 L270.22,345.04 L270.36,342.04 Z M326.19,365.56 L328.79,369.97 L326.12,364.56 L323.66,375.44 L326.19,365.56 Z M260.93,346.44 L260.56,346.17 L260.46,346.68 L260.93,346.44 Z M194.76,339.28 L202.28,340.58 L197.31,338.92 L194.76,339.28 Z M261.56,316.04 L260.66,316.04 L260.29,317.07 L261.56,316.04 Z M279.31,328.61 L278.75,329.65 L282.73,329.25 L279.31,328.61 Z M295.29,305.16 L289.15,308.41 L294.69,306.26 L295.29,305.16 Z M174.86,283.35 L176.90,283.21 L177.43,280.91 L174.86,283.35 Z M170.39,272.96 L171.07,263.83 L170.73,267.48 L170.39,272.96 Z M305.62,299.07 L299.27,299.60 L298.69,300.27 L305.62,299.07 Z M277.33,298.53 L281.23,297.99 L281.60,297.28 L277.33,298.53 Z M274.19,282.74 L276.78,282.95 L274.18,282.70 L274.19,282.74 Z M284.88,274.65 L285.03,274.62 L284.98,274.57 L284.88,274.65 Z M294.07,276.19 L293.64,277.77 L295.30,274.47 L294.07,276.19 Z M298.38,268.24 L294.28,272.00 L302.03,266.87 L298.38,268.24 Z M407.60,683.88 L406.24,685.70 L407.10,686.00 L407.60,683.88 Z M390.31,743.71 L394.73,737.24 L390.15,743.26 L390.31,743.71 Z M400.32,762.37 L397.33,763.88 L398.83,764.31 L400.32,762.37 Z M371.15,778.06 L372.72,775.92 L371.91,776.67 L371.15,778.06 Z M355.64,439.79 L357.06,436.88 L357.06,436.88 L355.64,439.79 Z M383.15,573.98 L383.34,573.32 L382.84,573.21 L383.15,573.98 Z M346.76,408.21 L347.27,408.28 L345.53,405.09 L346.76,408.21 Z M360.97,399.83 L360.80,398.84 L359.20,404.23 L360.97,399.83 Z M373.11,423.15 L371.97,420.13 L369.03,413.42 L369.45,415.62 L373.11,423.15 Z M379.90,437.10 L379.22,434.85 L377.25,431.67 L379.90,437.10 Z M414.96,390.05 L410.11,382.86 L411.34,386.08 L414.96,390.05 Z M413.59,382.10 L411.06,382.00 L410.11,382.86 L413.59,382.10 Z M392.02,426.34 L384.28,434.20 L390.90,428.19 L392.02,426.34 Z M395.35,417.34 L393.54,423.81 L394.53,422.17 L395.35,417.34 Z M439.97,279.19 L441.95,261.36 L440.51,274.04 L439.97,279.19 Z M438.72,294.37 L439.22,294.02 L438.05,289.83 L438.72,294.37 Z M424.11,297.99 L436.00,296.27 L437.44,295.26 L424.11,297.99 Z M418.51,315.93 L419.47,308.09 L418.17,318.29 L418.03,321.63 L418.51,315.93 Z M419.74,320.34 L420.83,318.29 L421.24,317.11 L419.74,320.34 Z M428.48,338.89 L432.66,332.15 L428.56,338.60 L428.48,338.89 Z M427.26,343.54 L427.94,345.26 L427.63,342.14 L427.26,343.54 Z M429.72,350.84 L430.02,350.89 L430.26,345.04 L429.72,350.84 Z M370.74,284.35 L368.01,293.37 L368.09,295.71 L370.74,284.35 Z M376.82,308.86 L376.35,308.63 L376.24,309.44 L376.82,308.86 Z M379.70,296.27 L384.89,289.94 L385.71,287.25 L383.52,290.79 L376.28,299.50 L381.41,295.95 L379.70,296.27 Z M386.33,301.00 L385.43,300.90 L386.29,301.96 L386.33,301.00 Z M349.22,333.87 L346.62,327.53 L344.44,324.85 L347.85,330.54 L349.22,333.87 Z M355.40,329.90 L356.39,333.01 L355.40,329.90 L355.40,329.90 Z M360.08,336.45 L364.39,335.80 L364.66,334.71 L360.08,336.45 Z M365.80,334.27 L366.85,334.73 L367.06,333.79 L365.80,334.27 Z M368.30,333.32 L370.88,335.27 L368.83,333.12 L368.30,333.32 Z M396.77,320.67 L396.70,319.41 L391.14,312.53 L391.14,312.53 L396.77,320.67 Z M394.87,336.88 L396.85,334.73 L396.92,332.80 L396.30,335.16 L394.87,336.88 Z M407.78,341.39 L407.03,344.61 L409.15,335.91 L407.78,341.39 Z M410.58,334.95 L413.04,323.24 L412.43,325.81 L410.58,334.95 Z M360.22,354.39 L351.67,367.83 L352.50,367.06 L360.22,354.39 Z M384.62,336.99 L383.73,336.56 L387.62,338.71 L384.62,336.99 Z M376.06,310.81 L375.80,312.71 L377.99,321.30 L376.06,310.81 Z M400.47,286.93 L399.58,285.96 L394.46,284.89 L400.47,286.93 Z M462.25,538.73 L458.83,539.16 L461.01,539.93 L460.88,539.80 L462.25,538.73 Z M480.22,565.47 L481.25,564.51 L475.23,565.26 L480.22,565.47 Z M453.98,563.85 L461.43,564.94 L454.59,563.54 L453.98,563.85 Z M426.10,638.74 L426.64,633.58 L426.05,631.12 L426.10,638.74 Z M452.69,564.52 L451.45,565.15 L450.96,566.69 L452.69,564.52 Z M431.84,351.27 L431.28,351.34 L435.25,357.18 L431.84,351.27 Z M448.92,355.25 L448.65,351.81 L448.24,356.64 L446.89,359.48 L447.69,358.69 L448.92,355.25 Z M459.35,332.54 L455.75,348.70 L459.24,334.95 L459.35,332.54 Z M471.45,294.89 L471.06,297.67 L471.47,294.98 L471.45,294.89 Z M438.46,449.99 L440.07,451.75 L440.07,451.75 L438.46,449.99 Z M443.18,442.58 L446.58,439.16 L445.50,439.25 L443.18,442.58 Z M458.14,438.18 L459.17,440.33 L458.45,436.47 L458.14,438.18 Z M458.63,435.49 L459.54,434.05 L458.90,433.99 L458.63,435.49 Z M477.42,416.59 L476.32,411.22 L477.62,410.14 L476.03,410.75 L477.42,416.59 Z M452.88,478.57 L451.93,470.83 L452.47,483.08 L452.88,478.57 Z M469.69,462.46 L471.88,462.46 L467.33,460.32 L469.69,462.46 Z M474.00,505.10 L469.01,500.59 L474.15,505.55 L474.00,505.10 Z M482.06,483.30 L483.43,485.12 L482.51,482.51 L482.06,483.30 Z M475.32,509.05 L475.57,511.33 L476.80,513.48 L475.32,509.05 Z M435.53,459.99 L439.01,455.15 L439.76,452.75 L435.53,459.99 Z M462.72,392.42 L462.25,398.32 L462.79,411.65 L462.72,392.42 Z M467.64,386.29 L467.79,385.14 L462.72,392.42 L467.64,386.29 Z M442.43,394.89 L445.91,387.37 L443.52,388.44 L440.45,388.66 L445.30,388.33 L442.43,394.89 Z M444.00,416.26 L444.18,417.06 L445.20,415.46 L444.00,416.26 Z M466.35,380.81 L467.95,383.88 L468.12,382.53 L466.35,380.81 Z M466.76,378.34 L465.13,374.44 L465.18,375.98 L466.76,378.34 Z M455.61,199.61 L463.27,195.30 L456.71,198.20 L455.61,199.61 Z M464.91,199.38 L466.14,198.52 L468.40,193.68 L464.91,199.38 Z M472.97,190.46 L473.08,190.26 L471.88,190.89 L472.97,190.46 Z M473.80,188.90 L474.34,187.88 L474.00,186.27 L473.80,188.90 Z M481.73,187.03 L482.86,186.88 L481.93,186.81 L481.73,187.03 Z M463.36,287.82 L463.13,289.40 L462.52,287.25 L463.68,291.44 L463.36,287.82 Z M470.67,291.74 L469.88,288.58 L469.97,290.69 L470.67,291.74 Z M441.40,298.42 L440.38,313.25 L438.81,321.52 L440.38,316.58 L441.40,298.42 Z M469.15,270.15 L469.69,283.76 L470.10,279.30 L469.15,270.15 Z M481.04,181.87 L477.96,166.18 L477.48,164.36 L481.04,181.87 Z M473.27,129.04 L475.64,130.41 L478.39,130.11 L473.27,129.04 Z M488.01,299.28 L496.37,295.48 L495.66,295.31 L488.01,299.28 Z M573.78,385.19 L569.39,387.37 L573.77,385.65 L573.78,385.19 Z M573.16,406.66 L572.74,407.67 L571.72,413.79 L573.16,406.66 Z M572.33,419.70 L572.84,422.54 L571.72,413.79 L572.33,419.70 Z M566.11,420.78 L565.18,421.71 L572.33,419.70 L566.11,420.78 Z M574.36,434.44 L573.22,440.65 L574.59,436.24 L574.36,434.44 Z M564.67,484.05 L564.88,485.44 L567.07,487.27 L564.67,484.05 Z M562.15,497.37 L562.41,498.81 L561.33,492.75 L560.82,492.22 L562.15,497.37 Z M563.96,507.43 L565.57,519.39 L564.27,509.18 L563.96,507.43 Z M560.44,521.11 L566.66,519.07 L565.57,519.39 L560.44,521.11 Z M558.05,517.13 L559.96,520.36 L567.48,533.57 L560.44,521.11 L558.05,517.13 Z M567.41,523.58 L569.07,525.57 L569.12,524.44 L567.41,523.58 Z M570.62,534.54 L568.83,533.98 L569.59,536.16 L570.62,534.54 Z M569.23,536.73 L568.24,537.56 L568.71,537.54 L569.23,536.73 Z M565.84,553.98 L566.57,554.27 L566.70,553.14 L565.84,553.98 Z M610.74,545.71 L614.02,551.72 L615.23,551.88 L610.74,545.71 Z M641.49,574.60 L648.21,565.54 L642.85,559.78 L647.77,565.15 L639.64,577.08 L641.49,574.60 Z M701.55,604.90 L700.26,610.38 L700.71,612.38 L701.55,604.90 Z M700.19,616.95 L699.64,618.76 L699.75,620.82 L700.19,616.95 Z M700.04,626.29 L700.26,630.36 L700.32,627.56 L700.04,626.29 Z M697.04,656.35 L692.60,658.39 L692.13,656.96 L692.19,659.15 L697.04,656.35 Z M685.22,751.56 L685.15,752.39 L685.50,753.31 L685.22,751.56 Z M730.05,865.40 L725.88,865.18 L732.37,865.83 L730.05,865.40 Z M512.68,387.80 L510.01,388.98 L514.79,388.01 L512.00,386.33 L512.68,387.80 Z M534.54,380.17 L530.92,378.45 L531.54,379.53 L534.54,380.17 Z M553.40,380.92 L545.14,383.61 L551.29,382.64 L548.93,385.46 L553.40,380.92 Z M555.25,385.76 L557.50,379.31 L557.44,376.95 L555.25,385.76 Z M562.15,567.94 L562.01,570.52 L564.41,563.00 L562.15,567.94 Z M572.79,587.26 L572.13,585.02 L572.67,590.93 L572.47,588.03 L572.79,587.26 Z M523.54,500.81 L517.46,504.46 L519.10,504.24 L523.54,500.81 Z M528.29,499.08 L530.31,499.55 L528.53,496.29 L529.42,498.66 L528.29,499.08 Z M530.51,512.09 L531.47,501.67 L529.99,513.05 L530.51,512.09 Z M529.69,513.62 L529.83,513.36 L529.61,513.51 L529.69,513.62 Z M533.65,514.45 L532.70,526.48 L534.06,515.20 L535.57,514.99 L533.65,514.45 Z M536.59,513.27 L536.05,517.03 L536.80,520.89 L536.59,513.27 Z M550.67,505.64 L554.16,511.12 L557.03,515.52 L551.97,507.57 L550.67,505.64 Z M518.30,555.11 L518.76,554.62 L524.50,543.24 L518.30,555.11 Z M528.05,557.42 L532.15,554.84 L534.30,551.91 L528.05,557.42 Z M537.69,548.92 L538.32,549.21 L538.16,548.50 L537.69,548.92 Z M552.93,541.09 L551.49,537.85 L551.49,539.80 L552.93,541.09 Z M551.49,536.28 L551.90,532.50 L551.49,532.48 L551.49,536.28 Z M547.53,569.46 L544.66,576.54 L547.53,570.52 L547.53,569.46 Z M528.60,514.22 L528.12,514.56 L525.86,521.22 L528.60,514.22 Z M558.66,513.42 L558.66,513.42 L559.69,515.84 L558.66,513.42 Z M547.55,467.66 L548.07,467.93 L553.20,458.48 L547.55,467.66 Z M500.85,458.48 L504.41,459.88 L505.77,459.34 L500.85,458.48 Z M522.11,449.35 L517.90,452.02 L518.35,452.79 L522.04,450.53 L520.12,451.28 L522.11,449.35 Z M523.83,450.02 L524.03,450.08 L524.02,449.46 L523.83,450.02 Z M546.64,464.17 L545.61,466.65 L550.06,456.12 L547.12,462.78 L546.64,464.17 Z M520.56,473.67 L520.12,473.23 L520.74,479.00 L520.56,473.67 Z M530.44,478.89 L531.74,478.68 L527.64,477.07 L530.44,478.89 Z M543.86,470.46 L543.15,472.02 L543.56,475.99 L543.86,470.46 Z M525.66,438.61 L527.37,437.21 L525.17,437.69 L525.66,438.61 Z M527.98,416.69 L529.76,418.95 L525.39,420.99 L531.73,419.06 L527.98,416.69 Z M541.79,435.39 L541.65,432.27 L540.83,430.12 L541.79,435.39 Z M538.85,440.97 L538.77,441.71 L541.79,435.39 L538.85,440.97 Z M538.51,444.19 L539.18,444.56 L538.60,443.33 L538.51,444.19 Z M550.12,419.27 L554.98,424.97 L556.52,425.94 L550.12,419.27 Z M512.47,298.31 L515.55,306.16 L513.70,299.93 L512.47,298.31 Z M528.46,316.68 L530.37,320.01 L529.55,317.44 L524.16,311.74 L528.46,316.68 Z M534.27,321.84 L534.89,321.26 L530.37,320.01 L534.27,321.84 Z M502.70,366.10 L503.59,360.62 L501.95,366.31 L507.89,366.85 L502.70,366.10 Z M532.90,365.88 L532.36,363.84 L533.79,369.97 L532.90,365.88 Z M499.56,265.73 L500.84,264.26 L499.56,265.01 L499.56,265.73 Z M557.78,672.25 L552.04,680.95 L555.25,677.52 L557.78,672.25 Z M572.97,627.48 L564.82,636.05 L571.58,629.93 L572.97,627.48 Z M599.32,659.25 L595.02,653.99 L611.08,673.97 L599.32,659.25 Z M612.58,717.05 L609.94,714.42 L619.83,729.72 L612.58,717.05 Z M624.75,733.05 L626.59,733.38 L619.83,729.72 L624.75,733.05 Z M630.04,737.27 L628.16,738.21 L629.46,738.21 L630.04,737.27 Z M636.57,728.97 L635.00,734.45 L635.82,731.87 L636.57,728.97 Z M660.48,622.84 L656.38,627.46 L658.71,626.06 L660.48,622.84 Z M660.20,612.58 L661.85,614.35 L662.94,613.81 L660.20,612.58 Z M671.42,622.62 L668.55,623.70 L672.07,623.40 L671.42,622.62 Z M669.71,635.08 L669.64,627.35 L669.50,630.03 L669.71,635.08 Z M682.69,643.89 L678.11,643.46 L679.28,644.00 L682.69,643.89 Z M687.18,652.85 L686.86,653.02 L687.17,654.57 L687.61,653.99 L687.18,652.85 Z M641.56,836.93 L641.08,838.86 L642.99,834.78 L641.56,836.93 Z M681.12,778.33 L671.69,782.90 L681.12,778.82 L681.12,778.33 Z M618.83,608.50 L618.53,608.23 L617.92,603.74 L617.77,610.16 L618.83,608.50 Z M636.63,591.97 L641.90,597.49 L637.05,591.79 L636.63,591.97 Z M687.48,617.04 L683.51,619.40 L689.32,616.93 L687.01,616.93 L687.48,617.04 Z M691.51,618.22 L693.90,619.29 L689.32,616.93 L691.51,618.22 Z M576.84,577.18 L577.64,581.40 L576.64,572.24 L576.84,577.18 Z M578.22,584.41 L578.41,585.45 L581.76,588.89 L578.22,584.41 Z M630.41,615.91 L630.08,615.32 L624.75,613.92 L630.41,615.91 Z M630.01,619.23 L631.17,617.25 L630.92,616.82 L630.01,619.23 Z M627.00,622.84 L626.39,625.42 L627.73,623.11 L627.00,622.84 Z M630.55,622.09 L636.98,624.13 L635.75,624.99 L641.08,625.63 L634.59,622.30 L630.55,622.09 Z M640.90,620.30 L640.33,620.90 L641.08,625.63 L640.90,620.30 Z M642.67,621.09 L641.76,619.40 L641.38,619.80 L642.67,621.09 Z M643.88,622.30 L644.55,620.94 L643.52,621.94 L643.88,622.30 Z M576.98,615.86 L575.21,623.52 L576.02,622.09 L576.98,615.86 Z M594.13,567.52 L594.10,567.45 L589.48,574.60 L594.13,567.52 Z M572.04,542.50 L572.06,543.24 L576.16,549.47 L572.04,542.50 Z M576.30,458.48 L573.70,458.37 L576.63,458.77 L576.30,458.48 Z M604.59,451.61 L585.79,457.41 L602.47,452.47 L604.59,451.61 Z M604.31,448.38 L600.76,432.16 L604.59,451.61 L604.31,448.38 Z M571.44,517.56 L572.74,518.49 L576.30,516.49 L571.44,517.56 Z M580.94,512.94 L577.25,514.66 L576.30,516.49 L580.94,512.94 Z M584.29,529.38 L580.53,527.55 L584.76,529.77 L584.29,529.38 Z M587.50,532.04 L587.50,535.61 L588.05,532.50 L587.50,532.04 Z M592.56,533.68 L592.90,537.44 L592.67,531.61 L591.60,535.29 L592.56,533.68 Z M593.34,529.31 L596.86,523.69 L593.45,528.95 L593.34,529.31 Z M607.25,510.37 L607.39,512.41 L607.90,512.20 L607.25,510.37 Z M612.59,527.72 L612.31,526.91 L612.51,526.23 L611.62,526.69 L612.59,527.72 Z M641.76,560.21 L636.36,546.35 L639.51,555.59 L641.76,560.21 Z M571.99,540.98 L572.02,541.79 L578.41,540.98 L571.99,540.98 Z M584.43,498.55 L586.00,495.11 L587.23,489.85 L584.43,498.55 Z M591.25,498.07 L590.78,497.05 L588.12,494.36 L591.25,498.07 Z M593.93,505.53 L594.89,506.13 L592.66,501.20 L593.93,505.53 Z M596.18,506.93 L597.55,504.89 L595.46,506.48 L596.18,506.93 Z M568.85,496.40 L571.90,495.63 L571.79,495.00 L568.85,496.40 Z M571.17,509.51 L574.26,512.12 L573.90,511.23 L571.17,509.51 Z M580.01,474.98 L582.02,473.45 L580.94,473.52 L580.01,474.98 Z M592.41,442.08 L588.12,443.98 L592.42,442.80 L592.41,442.08 Z M590.65,416.80 L592.31,434.76 L592.29,432.81 L590.65,416.80 Z M755.09,837.16 L753.56,835.32 L752.84,835.69 L755.09,837.16 Z M778.57,870.02 L779.82,870.43 L776.79,866.15 L778.57,870.02 Z M843.28,877.86 L843.51,880.44 L844.10,870.23 L843.28,877.86 Z M806.31,899.24 L806.04,878.72 L805.63,894.19 L806.31,899.24 Z M831.18,890.75 L837.61,886.34 L832.41,889.89 L831.18,890.75 Z M835.42,868.30 L835.41,868.28 L832.41,889.89 L835.42,868.30 Z M765.10,898.16 L765.58,900.86 L765.91,899.42 L765.10,898.16 Z M765.67,901.37 L765.92,902.78 L768.04,904.39 L765.67,901.37 Z M764.52,889.82 L764.90,888.92 L762.44,887.53 L764.52,889.82 Z M762.85,892.25 L761.89,896.01 L763.89,891.30 L762.85,892.25 Z M914.55,823.61 L914.14,818.45 L914.42,824.25 L917.29,831.67 L914.55,823.61 Z M910.18,824.47 L909.81,825.45 L911.52,824.40 L910.18,824.47 Z M729.37,724.14 L722.87,746.16 L724.10,742.61 L729.37,724.14 Z M773.65,767.11 L764.56,759.26 L775.01,768.72 L773.65,767.11 Z M804.19,760.77 L810.00,764.42 L803.24,759.80 L801.61,759.69 L804.19,760.77 Z M792.58,755.93 L796.85,757.71 L795.58,756.26 L792.58,755.93 Z M770.57,778.39 L772.55,785.58 L773.77,786.93 L770.57,778.39 Z M827.77,799.12 L827.77,795.79 L827.41,795.02 L827.77,799.12 Z M835.15,804.70 L835.15,802.34 L832.21,793.53 L835.15,804.70 Z M843.35,818.88 L843.42,817.06 L842.53,815.67 L843.35,818.88 Z M819.84,769.15 L818.27,770.44 L817.86,767.11 L818.10,770.77 L819.84,769.15 Z M833.17,766.14 L836.72,766.46 L830.02,765.60 L833.17,766.14 Z M841.82,761.15 L841.91,762.49 L840.14,761.41 L843.81,765.55 L841.82,761.15 Z M847.11,769.25 L848.96,769.52 L844.60,766.43 L847.11,769.25 Z M851.68,769.90 L860.64,762.27 L850.83,769.78 L851.68,769.90 Z M876.01,770.33 L873.69,767.97 L873.33,767.97 L876.01,770.33 Z M843.48,743.26 L840.68,740.25 L837.47,738.42 L843.48,743.26 Z M710.57,659.04 L711.67,673.65 L711.19,657.96 L710.57,659.04 Z M745.63,665.81 L751.84,673.22 L751.71,672.90 L745.63,665.81 Z M757.97,648.25 L758.98,649.78 L758.61,648.30 L757.97,648.25 Z M782.34,651.91 L783.69,651.41 L783.90,651.11 L782.34,651.91 Z M747.41,718.01 L741.94,728.22 L740.57,732.30 L747.41,718.01 Z M753.06,714.65 L750.41,710.28 L752.39,713.82 L753.06,714.65 Z M747.74,698.99 L752.26,686.22 L747.54,698.14 L747.74,698.99 Z M519.78,94.00 L518.76,89.81 L519.51,83.04 L523.61,76.06 L529.69,74.77 L532.90,79.07 L534.68,87.77 L534.00,91.96 L530.72,96.57 L527.44,98.40 L523.81,97.43 L519.78,94.00 Z M518.01,48.88 L522.17,49.95 L525.86,58.33 L527.09,69.72 L522.17,74.66 L515.27,69.18 L512.81,59.94 L513.97,52.64 L518.01,48.88 Z M618.39,38.14 L618.32,37.17 L619.41,37.60 L619.14,38.78 L618.39,38.14 Z M617.50,36.85 L617.50,37.28 L617.16,36.74 L617.50,36.85 Z M603.70,32.34 L600.62,24.49 L599.12,19.23 L607.66,28.79 L608.48,34.91 L607.66,36.20 L603.70,32.34 Z M948.31,769.90 L948.52,774.95 L940.86,777.31 L942.30,774.30 L946.60,770.11 L948.31,769.90 Z M964.98,758.83 L965.26,758.62 L965.12,759.48 L964.98,758.83 Z M965.67,758.40 L966.28,758.30 L965.74,759.37 L965.67,758.40 Z M713.85,582.77 L713.65,582.12 L714.74,582.23 L714.61,582.77 L713.85,582.77 Z M747.61,552.37 L747.88,553.01 L746.86,552.69 L747.61,552.37 Z M744.06,549.79 L744.81,551.40 L744.40,552.58 L743.72,551.72 L744.06,549.79 Z" /></g></svg>