<svg xmlns="http://www.w3.org/2000/svg" viewBox="0 0 1000 1000" width="1000" height="1000"><g fill="#cccccc" stroke="#222" stroke-width="2"><path d="M374.82,947.99 L372.83,949.33 L370.52,954.14 L361.45,953.69 L359.22,953.02 L351.13,946.59 L345.36,937.08 L337.19,934.45 L333.06,931.60 L325.30,928.35 L316.56,925.89 L304.26,916.61 L299.80,910.51 L299.06,905.64 L301.37,899.43 L312.84,889.87 L319.86,886.06 L338.84,880.30 L342.22,878.34 L344.12,874.09 L353.03,868.61 L357.65,868.11 L359.96,869.34 L361.03,871.97 L358.56,878.85 L359.55,879.97 L362.68,879.69 L372.75,872.30 L377.21,871.30 L382.32,871.58 L391.48,876.72 L395.69,877.28 L399.41,876.22 L401.06,874.43 L399.08,869.90 L394.04,866.99 L393.38,863.46 L404.03,857.09 L407.08,852.61 L405.60,847.91 L399.49,843.38 L398.58,842.71 L386.29,833.48 L378.03,821.06 L381.54,814.60 L375.48,810.38 L374.98,806.29 L372.67,802.04 L371.93,800.59 L371.10,799.58 L367.97,799.36 L365.82,797.68 L359.22,799.81 L357.49,799.25 L352.86,799.86 L350.97,797.29 L351.96,795.67 L350.80,794.10 L348.99,792.93 L349.48,791.58 L346.92,790.35 L341.31,790.18 L334.63,788.17 L329.84,789.07 L332.65,786.04 L331.74,783.42 L326.21,782.97 L325.22,780.73 L331.08,776.76 L325.63,780.12 L322.41,780.67 L321.42,779.28 L320.19,779.67 L315.40,777.49 L314.16,774.75 L315.65,772.79 L314.99,772.06 L311.60,772.51 L308.72,771.61 L310.70,768.70 L308.14,766.75 L309.46,765.24 L311.93,765.91 L315.89,764.90 L317.22,768.03 L319.28,768.26 L325.96,764.68 L335.37,761.99 L336.61,760.03 L324.39,752.71 L318.45,742.52 L320.68,740.57 L322.83,739.84 L325.80,737.83 L327.20,735.31 L335.04,732.29 L343.21,731.34 L348.99,729.38 L350.14,724.90 L347.58,720.54 L339.33,715.95 L338.34,713.88 L341.06,712.09 L352.45,710.14 L358.89,708.90 L363.18,709.91 L371.35,722.27 L374.57,724.34 L376.88,725.24 L388.27,727.53 L394.46,732.34 L399.49,734.41 L412.11,730.89 L420.94,730.44 L427.69,733.36 L427.55,733.24 L431.09,731.17 L432.25,722.89 L434.23,721.32 L440.83,719.25 L440.58,714.11 L448.84,709.41 L452.14,709.80 L456.59,713.72 L460.31,713.10 L461.88,711.42 L462.29,708.23 L465.34,705.77 L464.76,704.43 L459.98,702.75 L459.40,700.46 L460.88,698.33 L460.97,695.20 L465.67,690.84 L471.12,688.93 L469.63,685.69 L479.53,685.07 L475.82,685.02 L475.82,682.73 L470.37,678.36 L466.08,672.94 L469.14,669.86 L466.91,668.01 L466.99,666.34 L475.90,665.66 L477.14,664.55 L476.23,662.31 L468.15,660.07 L467.98,656.71 L466.25,654.03 L456.18,651.68 L456.10,650.62 L459.73,647.99 L459.73,646.64 L454.78,645.41 L449.99,639.99 L445.29,639.32 L441.41,640.94 L438.19,637.53 L427.46,637.69 L426.64,636.69 L428.21,634.39 L427.88,631.76 L424.41,630.20 L423.34,627.96 L434.31,625.67 L437.04,622.26 L436.38,620.13 L433.82,618.95 L434.73,616.88 L433.32,616.61 L433.24,615.43 L437.20,613.86 L431.67,613.53 L432.99,612.75 L431.09,611.96 L431.18,610.34 L434.07,610.90 L436.62,609.67 L437.37,611.01 L437.78,609.72 L440.25,610.45 L444.05,608.49 L445.37,609.28 L448.09,608.55 L447.02,607.10 L443.97,607.38 L445.29,606.26 L444.96,604.35 L443.23,604.07 L442.90,602.96 L444.30,602.06 L444.55,600.89 L443.31,600.61 L444.46,599.66 L441.66,597.64 L445.04,597.42 L443.06,595.91 L444.71,595.12 L442.32,593.89 L447.02,591.94 L446.86,589.64 L449.41,589.53 L448.59,587.85 L450.49,586.01 L449.50,584.72 L452.06,584.89 L454.28,583.43 L454.37,582.03 L456.43,581.14 L452.88,579.63 L455.03,579.18 L454.94,576.78 L453.79,576.78 L455.03,575.94 L452.72,574.65 L453.46,573.08 L451.97,572.64 L454.37,572.02 L453.13,570.79 L456.18,570.74 L458.57,567.49 L461.13,567.55 L461.38,565.92 L464.27,565.53 L465.26,564.47 L465.75,561.67 L463.77,556.25 L460.14,553.67 L460.14,552.00 L456.84,551.21 L454.86,548.86 L449.50,547.18 L441.24,546.51 L439.10,547.74 L436.62,546.29 L434.23,546.35 L428.12,547.97 L424.99,551.10 L425.32,553.00 L422.26,554.96 L410.05,554.90 L399.41,562.34 L396.85,566.15 L399.16,567.94 L401.47,573.53 L396.68,571.46 L393.30,571.63 L394.04,569.34 L386.62,569.50 L385.21,561.39 L387.94,557.76 L390.33,557.81 L391.81,555.24 L390.16,552.78 L386.37,552.00 L389.50,550.15 L385.54,548.02 L386.37,545.17 L385.05,545.28 L384.39,543.66 L386.62,544.16 L387.85,543.38 L386.95,539.30 L385.38,538.74 L386.37,535.66 L384.55,534.77 L373.74,535.72 L367.80,532.64 L361.61,532.64 L360.21,530.74 L349.89,535.16 L341.06,532.64 L327.28,532.86 L327.94,522.35 L317.71,522.29 L314.16,517.20 L314.49,507.13 L326.46,505.79 L329.51,503.50 L336.44,497.85 L343.87,493.54 L346.02,487.44 L341.81,480.90 L341.97,476.09 L337.10,470.77 L331.99,470.27 L328.36,472.28 L324.56,472.39 L319.61,475.41 L313.50,475.41 L312.59,476.20 L312.51,477.09 L309.71,476.65 L301.45,478.88 L300.96,480.73 L298.32,484.20 L300.38,487.16 L300.30,490.07 L301.95,491.08 L303.68,492.03 L303.52,493.37 L299.39,496.39 L291.30,499.02 L291.30,502.88 L287.09,504.00 L279.34,503.55 L278.60,508.42 L276.61,509.03 L274.14,508.98 L271.50,509.71 L272.41,513.62 L264.73,518.32 L265.47,521.34 L260.44,523.75 L257.06,522.46 L254.99,520.00 L250.95,520.84 L250.54,522.40 L245.83,524.25 L242.86,522.12 L240.22,522.80 L239.15,520.45 L235.77,521.12 L239.89,530.07 L236.92,531.47 L230.24,528.72 L238.74,532.81 L239.65,535.49 L236.92,545.23 L235.44,547.18 L231.56,547.58 L219.76,545.73 L216.95,544.28 L201.60,544.78 L187.90,542.43 L185.51,535.05 L185.35,528.78 L174.04,529.28 L167.85,532.53 L164.63,531.97 L154.57,533.82 L151.84,535.05 L146.48,538.01 L143.18,538.63 L139.46,538.07 L135.42,536.61 L130.63,531.13 L123.79,528.78 L128.65,525.48 L129.81,521.28 L131.46,519.89 L130.80,513.17 L125.85,508.42 L126.26,506.85 L127.75,506.63 L129.89,502.94 L132.37,501.31 L137.73,499.24 L140.54,499.58 L145.90,496.45 L151.76,491.69 L152.34,490.07 L138.47,474.24 L136.74,477.93 L134.51,478.60 L133.11,481.06 L127.75,484.03 L124.69,483.75 L115.86,479.61 L112.07,476.81 L107.45,475.66 L105.80,476.20 L99.03,472.45 L94.82,471.95 L89.62,468.14 L83.76,467.02 L82.77,466.02 L79.31,466.97 L77.08,466.18 L72.62,468.20 L63.05,466.52 L54.22,467.02 L49.76,465.96 L45.22,466.63 L37.63,465.40 L33.09,467.70 L28.97,468.48 L27.98,462.21 L32.52,458.86 L33.09,456.95 L33.51,452.76 L31.61,447.50 L32.52,446.27 L37.63,445.49 L39.20,442.30 L43.08,439.89 L46.22,439.28 L47.95,439.39 L49.27,441.24 L52.16,440.90 L52.32,442.47 L54.71,442.63 L59.91,440.01 L63.71,441.91 L67.34,439.39 L69.73,440.28 L69.07,439.05 L71.30,438.33 L75.51,439.67 L79.39,437.60 L75.92,439.28 L75.84,434.58 L77.41,435.25 L77.16,433.85 L79.14,433.35 L77.49,432.23 L80.38,431.22 L82.28,427.53 L84.01,426.08 L82.61,423.34 L80.38,422.22 L81.29,421.27 L83.10,421.88 L84.26,421.15 L83.35,419.25 L81.45,418.69 L80.63,415.34 L77.74,411.64 L80.96,408.01 L77.16,406.33 L76.75,404.37 L72.29,403.98 L72.87,402.30 L66.68,402.08 L66.19,399.28 L62.14,396.99 L64.37,395.03 L63.30,393.41 L63.96,391.67 L60.49,390.83 L62.80,387.81 L57.77,384.57 L59.01,382.44 L58.26,381.33 L53.31,379.76 L55.05,377.63 L51.58,375.95 L52.40,374.61 L50.09,373.61 L52.24,372.49 L51.08,370.64 L51.91,370.03 L53.06,369.07 L53.56,359.29 L49.60,355.48 L46.63,354.75 L46.05,353.19 L44.73,353.36 L43.57,351.73 L41.18,351.12 L41.76,348.32 L40.44,346.70 L38.13,346.53 L37.81,345.33 L37.80,345.34 L37.80,345.30 L37.82,345.29 L38.38,343.17 L35.65,342.45 L35.40,340.55 L32.19,338.76 L32.27,336.01 L27.98,332.38 L28.23,329.02 L24.68,323.54 L25.91,323.04 L25.50,321.30 L22.53,320.63 L23.69,317.72 L21.21,316.88 L24.35,314.65 L22.78,312.74 L24.26,312.24 L25.42,309.33 L28.80,307.49 L35.49,298.59 L37.55,298.20 L37.47,293.56 L39.53,293.22 L40.19,291.26 L43.90,289.36 L43.00,287.96 L44.65,286.68 L45.89,287.29 L48.77,284.44 L45.89,279.24 L43.49,279.24 L40.69,275.49 L43.82,274.03 L42.50,273.47 L43.33,270.96 L41.26,268.72 L42.34,266.15 L43.49,265.14 L47.04,264.64 L47.29,263.07 L48.20,263.41 L47.29,262.68 L47.95,260.94 L55.05,261.22 L56.37,262.17 L60.00,261.62 L61.23,260.61 L64.70,260.66 L63.38,260.61 L63.46,260.33 L64.45,260.22 L63.21,257.53 L19.48,201.26 L24.26,206.01 L19.23,200.87 L23.60,200.81 L27.15,201.93 L31.03,201.09 L35.90,201.70 L37.72,201.09 L36.23,198.57 L39.28,197.34 L43.41,193.76 L45.56,193.43 L47.78,194.38 L54.38,192.36 L62.88,195.77 L66.60,201.09 L79.31,201.76 L87.23,203.66 L92.43,200.59 L98.04,199.35 L100.18,197.23 L108.19,196.84 L115.04,198.74 L119.41,198.29 L122.05,199.97 L118.17,200.47 L116.19,203.27 L122.66,203.44 L196.07,200.31 L198.22,201.93 L199.87,201.59 L199.99,202.44 L200.45,203.49 L198.88,205.34 L200.20,207.47 L204.00,207.86 L203.91,203.27 L205.15,203.55 L207.30,200.36 L210.27,200.25 L208.78,202.94 L211.18,203.61 L210.60,204.45 L213.32,205.17 L214.06,206.29 L215.80,204.84 L216.87,206.24 L218.85,205.34 L219.68,206.46 L220.67,204.95 L222.07,206.07 L223.72,205.51 L222.81,203.27 L219.43,202.32 L219.51,200.64 L217.45,200.53 L215.30,197.23 L218.35,194.94 L218.11,192.70 L219.51,193.03 L220.01,191.86 L221.99,193.54 L224.96,193.59 L226.28,195.22 L229.00,195.16 L229.99,197.45 L232.96,198.85 L236.34,198.07 L236.84,198.24 L237.83,199.02 L237.99,199.58 L238.08,201.31 L243.28,205.68 L249.71,206.35 L253.76,205.84 L255.49,203.72 L259.53,203.66 L260.03,204.84 L268.20,203.10 L269.11,201.70 L273.15,201.54 L285.44,228.72 L274.39,203.72 L275.13,200.87 L274.14,199.47 L276.86,199.69 L278.43,196.73 L282.23,194.82 L280.82,195.16 L284.54,193.54 L286.10,190.68 L289.32,188.84 L289.49,186.27 L291.96,184.75 L292.95,184.98 L292.62,186.04 L294.44,185.54 L293.45,183.47 L294.90,182.55 L296.50,179.50 L295.26,174.01 L300.22,173.79 L302.86,172.22 L302.28,170.55 L303.35,169.82 L305.99,170.04 L305.66,167.92 L304.01,167.64 L307.73,167.02 L306.74,165.34 L306.74,165.23 L308.06,164.62 L307.56,163.22 L312.51,162.55 L312.35,161.15 L314.41,161.26 L313.09,160.25 L313.25,158.63 L315.48,157.12 L315.56,155.72 L317.13,155.55 L324.81,149.18 L323.57,147.16 L324.31,145.32 L327.04,145.54 L328.19,143.30 L331.41,143.92 L333.64,139.67 L337.27,140.00 L338.84,139.11 L343.54,141.51 L348.99,141.63 L351.05,141.46 L352.20,139.44 L359.05,139.61 L362.77,140.73 L367.72,145.77 L377.21,144.65 L383.37,148.55 L385.30,148.95 L387.03,147.28 L387.69,147.83 L390.08,146.60 L393.22,146.72 L396.85,145.09 L402.71,145.82 L405.35,144.81 L408.65,145.93 L410.88,145.32 L419.62,149.12 L422.10,149.35 L427.13,148.06 L431.59,148.73 L435.47,151.42 L440.67,150.13 L444.22,150.69 L454.45,147.61 L459.40,148.28 L464.43,144.42 L496.12,138.60 L507.34,136.09 L517.49,126.52 L528.63,122.16 L532.27,115.22 L535.15,112.93 L539.03,112.03 L541.43,112.59 L542.50,110.92 L545.47,110.80 L544.15,108.68 L545.80,106.33 L549.76,106.38 L547.61,102.86 L549.93,103.42 L550.26,101.13 L553.39,99.56 L551.00,98.11 L553.31,97.94 L553.80,95.76 L555.78,96.26 L556.36,97.83 L559.66,95.87 L561.73,96.99 L565.60,94.36 L569.24,95.20 L569.48,93.13 L570.56,91.39 L567.42,90.39 L565.52,88.04 L562.14,87.20 L562.80,86.13 L565.27,85.57 L563.87,84.74 L566.02,83.17 L565.19,81.27 L567.01,80.71 L570.97,82.95 L573.36,81.88 L576.33,81.94 L575.42,84.62 L581.04,84.74 L583.68,81.32 L582.93,79.20 L585.41,78.97 L584.50,75.28 L588.71,73.16 L587.47,70.53 L591.76,69.18 L593.74,66.61 L595.81,66.11 L596.30,63.31 L598.61,63.31 L597.21,64.26 L599.36,65.10 L601.42,63.31 L604.22,63.37 L603.89,60.91 L606.20,62.02 L608.76,59.12 L611.49,60.68 L613.96,58.33 L618.91,57.38 L619.66,53.35 L618.25,53.80 L616.27,52.68 L618.17,52.29 L619.24,50.56 L617.26,50.05 L621.47,48.65 L619.33,47.09 L620.32,46.08 L624.52,46.08 L623.78,45.52 L625.18,43.73 L623.45,41.38 L627.25,41.21 L624.44,38.70 L628.24,36.85 L630.47,37.08 L629.89,35.29 L631.29,33.44 L629.39,32.82 L630.14,31.59 L632.20,31.98 L632.94,30.64 L635.91,30.03 L642.84,30.47 L648.87,29.19 L653.24,26.17 L655.55,27.68 L657.62,25.50 L657.20,23.82 L659.68,24.15 L660.92,22.87 L662.24,23.31 L661.91,21.02 L667.93,20.74 L671.40,19.23 L674.95,20.41 L689.55,84.85 L693.93,110.52 L687.49,115.67 L691.61,117.29 L692.93,121.43 L702.67,122.10 L699.62,127.75 L695.82,130.83 L696.90,135.75 L693.84,137.88 L696.81,151.86 L695.49,156.23 L697.80,161.20 L695.16,165.12 L696.90,166.18 L695.58,168.20 L696.24,169.54 L692.95,169.46 L696.07,170.77 L697.31,170.55 L699.95,165.40 L702.01,165.68 L701.85,167.08 L702.92,167.25 L701.76,172.78 L703.50,164.90 L704.74,164.17 L707.21,166.80 L704.82,171.61 L707.54,170.94 L710.51,171.50 L712.74,174.35 L718.85,175.75 L720.08,174.69 L720.83,176.25 L725.28,176.76 L726.03,178.49 L727.92,176.42 L732.22,178.66 L732.96,176.31 L734.36,176.14 L735.60,178.94 L738.73,175.92 L743.85,177.31 L744.59,176.87 L742.94,175.58 L745.25,174.01 L744.59,175.52 L748.80,177.26 L747.15,180.73 L749.63,180.34 L753.26,181.40 L755.32,180.22 L757.22,181.17 L756.81,182.29 L758.79,182.91 L764.98,181.79 L767.78,186.66 L765.80,182.63 L770.17,183.36 L772.32,184.36 L772.16,186.21 L778.51,189.12 L788.33,198.12 L788.66,200.08 L791.96,202.26 L791.55,202.88 L794.35,203.89 L792.04,205.12 L794.85,206.01 L794.35,207.30 L795.92,207.47 L794.93,208.47 L796.33,209.14 L795.34,211.89 L799.06,212.84 L798.23,214.40 L796.58,214.63 L797.65,215.63 L795.01,215.91 L797.32,216.86 L795.84,217.59 L797.24,217.70 L796.75,218.49 L798.97,219.77 L795.67,220.11 L798.15,220.33 L801.20,222.85 L807.89,223.58 L809.45,226.37 L813.66,227.38 L813.99,228.78 L818.78,229.17 L822.74,231.58 L822.99,235.10 L830.42,244.05 L835.78,247.97 L835.04,251.10 L839.49,255.57 L839.41,260.33 L845.02,262.12 L849.97,261.39 L854.18,263.13 L855.91,264.75 L856.82,273.19 L855.50,272.47 L852.53,272.91 L848.16,277.22 L849.40,280.58 L846.26,278.96 L845.85,283.15 L841.64,284.77 L841.72,286.34 L839.00,287.57 L838.50,290.48 L842.55,294.12 L835.70,299.21 L832.97,297.30 L831.16,297.92 L829.92,299.77 L831.41,300.10 L828.93,300.83 L828.76,304.18 L830.83,304.58 L832.31,306.37 L832.23,308.04 L830.66,308.66 L834.05,310.79 L832.48,310.95 L832.81,312.86 L831.41,312.97 L831.16,314.37 L827.36,316.66 L825.13,315.54 L825.22,313.86 L823.81,313.08 L813.17,314.25 L805.99,316.88 L804.34,319.68 L798.89,319.12 L798.81,321.97 L795.84,324.43 L791.30,325.61 L788.08,325.33 L781.56,327.12 L774.05,326.22 L764.73,331.32 L754.50,331.43 L752.43,332.27 L749.21,337.41 L743.60,337.24 L740.38,339.59 L738.90,352.40 L738.82,354.87 L734.36,358.28 L739.81,361.52 L733.95,364.26 L724.54,375.00 L723.80,377.24 L729.90,381.72 L726.27,385.69 L727.43,388.54 L729.49,389.83 L740.22,391.84 L743.85,393.69 L755.73,400.06 L752.68,406.11 L757.63,410.47 L749.87,417.80 L750.04,418.97 L752.68,422.50 L762.09,425.74 L760.27,427.64 L756.39,425.63 L753.59,426.13 L762.25,435.92 L779.09,435.47 L781.81,439.45 L783.87,441.12 L790.14,441.35 L791.38,436.09 L793.03,435.03 L797.32,434.58 L798.81,432.79 L798.07,428.76 L799.97,423.56 L799.55,420.99 L802.52,420.03 L804.42,423.28 L806.90,424.85 L803.68,425.85 L802.52,427.59 L807.06,431.95 L802.85,433.40 L801.86,434.97 L806.24,436.15 L809.87,438.55 L812.10,437.49 L808.38,434.30 L808.46,433.07 L812.18,433.74 L817.29,441.96 L814.16,447.84 L814.98,452.20 L807.39,455.78 L813.00,457.40 L817.29,455.05 L822.58,454.27 L823.48,451.25 L833.22,450.80 L836.03,449.12 L842.88,450.02 L844.61,455.33 L851.29,459.53 L858.47,455.16 L859.71,455.16 L861.77,457.12 L861.44,458.80 L865.16,458.91 L868.95,456.56 L868.95,460.26 L878.53,464.84 L880.18,470.44 L885.70,471.78 L894.20,478.04 L893.87,479.16 L892.47,479.33 L890.99,478.27 L888.76,478.49 L884.96,481.46 L886.20,486.32 L876.87,488.73 L874.81,490.29 L874.73,492.48 L872.42,495.16 L868.29,495.78 L864.41,498.13 L862.76,497.90 L859.71,499.24 L858.47,501.26 L860.45,502.99 L859.13,505.01 L859.71,507.80 L865.32,504.50 L869.53,503.94 L873.49,506.07 L870.60,508.64 L870.69,510.77 L878.77,510.54 L880.67,509.09 L877.62,507.97 L878.94,503.83 L882.73,504.50 L888.68,502.55 L896.43,501.43 L899.90,504.45 L903.53,504.67 L906.00,505.29 L907.90,508.64 L906.09,510.32 L907.08,510.54 L906.50,515.19 L904.93,514.91 L906.09,515.91 L905.01,518.88 L906.67,520.89 L904.93,521.34 L907.16,522.24 L907.49,523.91 L908.07,523.30 L914.01,523.69 L914.75,529.06 L916.40,530.07 L921.93,531.02 L927.87,530.35 L932.74,538.12 L937.61,538.18 L939.67,541.31 L946.28,546.74 L952.38,543.44 L953.29,540.47 L954.28,542.99 L952.96,544.16 L953.12,548.92 L951.72,550.04 L951.23,554.62 L946.52,559.10 L946.52,563.35 L942.23,566.65 L937.78,567.15 L936.79,568.72 L932.82,570.06 L931.75,572.36 L932.66,574.59 L935.22,575.66 L937.03,577.84 L936.37,580.08 L935.88,583.21 L933.48,583.77 L934.23,584.94 L932.33,586.57 L935.05,588.64 L934.06,589.03 L934.80,592.44 L936.70,593.17 L935.80,595.68 L937.86,599.54 L936.46,602.06 L937.12,604.63 L934.89,605.03 L933.24,606.82 L932.16,604.86 L931.01,604.69 L929.19,608.44 L924.74,609.28 L923.66,612.80 L919.13,613.81 L917.72,609.84 L914.50,610.06 L913.84,613.70 L916.82,617.56 L911.62,619.68 L915.99,622.26 L912.77,621.92 L909.47,619.63 L905.18,621.64 L902.54,621.75 L905.51,622.59 L907.49,624.44 L902.87,627.68 L899.16,628.18 L904.11,631.04 L900.56,634.62 L899.07,632.10 L895.44,632.66 L895.03,633.89 L897.92,637.75 L900.56,638.98 L898.25,638.98 L895.85,637.19 L893.13,637.92 L893.79,641.50 L890.08,642.78 L892.72,643.96 L892.88,645.69 L889.01,644.52 L888.18,645.69 L884.71,646.64 L884.05,649.22 L885.95,651.68 L881.99,655.37 L879.76,656.15 L882.49,660.69 L875.22,663.43 L871.92,662.08 L870.03,667.45 L865.82,667.62 L863.26,669.13 L864.17,672.77 L866.97,675.29 L871.35,675.57 L876.38,679.09 L876.21,680.77 L879.19,683.17 L877.04,684.46 L874.81,687.98 L875.31,689.89 L873.00,694.08 L870.69,695.09 L869.45,698.95 L865.90,695.87 L860.87,696.37 L859.63,697.55 L861.03,699.34 L857.48,701.97 L854.51,701.91 L853.52,702.75 L856.16,708.85 L854.18,711.59 L849.81,713.88 L847.58,717.30 L842.05,717.13 L834.71,715.34 L829.46,717.62 L830.09,717.58 L832.23,718.08 L834.21,717.30 L837.10,718.41 L837.02,720.60 L837.26,719.53 L838.75,719.70 L839.66,721.49 L844.77,719.92 L845.02,722.11 L852.86,722.27 L851.71,724.74 L856.90,725.02 L857.89,726.86 L859.96,726.81 L859.96,727.53 L861.28,726.30 L862.43,727.14 L865.07,726.75 L865.07,727.98 L866.89,727.09 L867.22,728.04 L870.52,728.20 L870.27,729.32 L872.42,730.05 L873.66,729.60 L874.98,731.00 L874.98,732.51 L876.13,732.62 L875.31,733.80 L877.29,733.85 L881.25,736.15 L883.06,735.70 L886.36,737.21 L887.19,736.26 L888.35,736.59 L893.30,740.90 L895.85,741.69 L901.55,741.74 L902.13,740.85 L906.75,740.40 L911.62,738.61 L911.95,737.83 L917.64,736.76 L920.86,737.38 L922.34,737.88 L925.48,742.41 L928.37,743.25 L928.04,744.03 L929.52,743.59 L932.25,745.71 L933.07,744.37 L936.21,746.16 L936.95,748.12 L939.01,747.56 L942.73,749.29 L942.07,750.08 L945.70,752.43 L946.19,754.27 L945.20,754.72 L947.18,756.01 L947.68,758.02 L952.38,757.63 L966.82,780.95 L967.07,797.29 L966.41,819.66 L977.80,830.91 L980.27,835.89 L980.77,839.08 L977.14,847.86 L978.05,849.54 L976.23,849.48 L970.54,855.47 L962.12,861.17 L955.19,863.30 L938.68,871.02 L930.60,872.64 L921.27,873.37 L914.26,875.60 L904.35,874.54 L897.92,867.88 L895.61,862.01 L893.71,860.95 L882.40,862.18 L882.65,859.55 L880.34,857.48 L877.87,855.24 L871.43,854.85 L866.15,857.26 L863.51,860.61 L864.08,861.28 L863.01,861.17 L859.96,863.97 L856.33,864.25 L856.24,865.98 L851.71,869.95 L852.53,870.40 L850.55,871.86 L851.38,872.36 L850.47,873.59 L841.80,871.69 L839.33,873.93 L835.28,874.71 L834.54,876.39 L833.24,875.89 L833.72,876.61 L832.48,878.06 L829.84,878.12 L828.60,879.63 L827.69,882.26 L825.79,881.59 L820.68,884.61 L820.68,886.62 L818.45,886.74 L818.04,890.26 L816.72,889.76 L815.07,892.33 L810.78,894.06 L811.02,895.74 L808.46,894.73 L802.36,897.59 L801.45,902.29 L799.80,903.01 L800.46,904.24 L798.56,906.03 L796.33,906.15 L791.71,910.06 L795.43,912.58 L795.34,914.65 L796.50,915.21 L793.12,917.56 L794.19,918.29 L792.95,919.80 L796.99,921.42 L794.02,922.03 L795.18,925.33 L788.58,927.46 L783.46,925.39 L778.34,925.89 L775.13,926.62 L770.34,930.03 L766.96,930.87 L764.32,930.20 L761.18,928.52 L760.52,926.90 L751.86,922.37 L751.61,920.97 L755.98,919.74 L755.07,918.29 L758.54,916.66 L756.72,913.75 L751.94,911.24 L756.48,905.98 L752.85,902.62 L755.24,899.04 L753.34,896.58 L754.83,897.59 L756.56,897.31 L754.50,893.17 L753.51,887.85 L755.57,885.73 L751.69,885.06 L752.30,882.54 L705.81,881.76 L705.97,879.74 L703.99,880.08 L701.85,878.74 L699.95,879.35 L695.16,877.34 L691.94,877.90 L692.11,880.08 L687.08,881.37 L683.11,881.20 L682.21,883.60 L680.72,883.83 L678.58,883.88 L678.66,880.58 L675.69,880.41 L674.95,880.81 L675.19,871.58 L667.77,873.20 L664.13,873.09 L660.75,873.03 L657.20,874.99 L654.98,875.16 L652.42,878.51 L648.13,879.46 L644.41,883.21 L642.10,883.77 L641.94,883.04 L639.54,885.56 L635.58,886.29 L632.03,888.53 L624.52,888.75 L622.05,887.91 L617.39,888.78 L619.24,890.09 L619.16,895.13 L623.53,895.07 L625.18,895.91 L625.27,896.58 L622.96,896.97 L624.61,899.27 L622.05,900.05 L619.41,897.76 L619.66,901.89 L620.65,902.85 L619.74,903.07 L619.66,907.94 L617.76,909.11 L617.35,913.08 L615.20,916.22 L614.95,921.64 L607.86,923.10 L605.79,924.83 L604.64,928.24 L600.84,929.86 L596.38,930.26 L592.75,932.83 L588.05,933.84 L587.72,936.13 L584.17,940.16 L559.50,939.32 L557.35,937.36 L549.35,936.63 L536.14,938.03 L536.23,938.65 L515.43,944.97 L518.32,951.07 L514.94,951.07 L511.55,948.49 L509.49,948.21 L502.31,951.01 L501.40,954.37 L504.13,958.00 L511.06,961.81 L509.99,963.76 L506.93,963.15 L505.12,965.27 L502.97,964.94 L501.49,966.17 L496.86,966.50 L496.78,968.85 L492.99,971.48 L493.89,976.07 L491.25,980.77 L483.58,979.09 L478.63,975.18 L472.11,972.88 L460.72,970.76 L456.18,971.09 L449.08,968.18 L443.89,967.29 L439.02,963.65 L433.49,965.05 L431.42,964.60 L424.82,955.37 L415.99,951.23 L413.44,948.27 L409.72,946.70 L407.99,942.73 L401.30,942.17 L398.83,942.95 L400.64,938.14 L397.26,945.08 L392.06,946.03 L389.01,948.77 L381.99,946.98 L374.82,947.99 Z M62.47,376.46 L60.16,376.79 L55.05,377.63 L62.47,376.46 Z M824.89,278.40 L824.77,278.36 L841.64,284.77 L824.89,278.40 Z M488.94,569.06 L488.12,568.72 L485.72,569.28 L488.94,569.06 Z M492.49,571.57 L490.76,570.40 L490.69,570.39 L492.49,571.57 Z M539.61,537.00 L536.72,537.06 L536.54,537.49 L539.61,537.00 Z M553.64,534.65 L553.73,534.58 L549.02,534.88 L553.64,534.65 Z M554.30,534.15 L553.80,534.24 L554.03,534.36 L554.30,534.15 Z M556.08,520.33 L553.14,521.23 L551.91,522.29 L556.08,520.33 Z M560.82,519.66 L559.75,519.22 L557.99,519.75 L560.82,519.66 Z M563.21,492.31 L560.96,493.45 L560.96,493.45 L563.21,492.31 Z M646.52,459.68 L625.85,462.77 L612.75,465.46 L612.74,465.47 L646.52,459.68 Z M521.80,676.40 L526.57,680.54 L527.07,680.77 L521.80,676.40 Z M530.04,682.11 L530.04,682.11 L539.78,682.84 L530.04,682.11 Z M557.93,689.55 L555.70,690.95 L560.41,688.88 L557.93,689.55 Z M542.00,724.18 L545.14,729.04 L543.82,725.69 L542.00,724.18 Z M542.17,736.20 L544.40,739.28 L544.64,739.49 L542.17,736.20 Z M547.45,741.89 L547.86,742.24 L548.81,741.87 L547.45,741.89 Z M552.28,741.80 L558.43,742.47 L552.48,741.80 L552.28,741.80 Z M558.59,752.59 L555.54,752.20 L552.68,752.81 L558.59,752.59 Z M549.76,753.44 L547.70,753.88 L549.51,753.54 L549.76,753.44 Z M546.33,755.92 L547.53,755.11 L547.70,753.88 L546.33,755.92 Z M545.55,756.46 L541.67,757.96 L543.82,757.63 L545.55,756.46 Z M537.46,792.25 L536.46,792.62 L536.47,793.04 L535.32,794.38 L537.46,792.25 Z M543.32,811.72 L540.85,812.06 L539.86,813.01 L543.32,811.72 Z M543.24,813.85 L560.65,813.46 L549.76,813.29 L543.24,813.85 Z M563.97,774.07 L563.82,775.22 L563.95,775.19 L564.58,775.29 L563.97,774.07 Z M636.26,801.32 L635.58,802.32 L634.01,800.70 L635.17,802.66 L636.27,802.38 L636.26,801.32 Z M637.27,799.81 L638.90,798.84 L637.65,799.25 L637.27,799.81 Z M649.03,779.84 L650.44,777.71 L650.48,777.51 L649.03,779.84 Z M699.37,790.63 L692.77,790.63 L700.53,790.69 L699.37,790.63 Z M674.78,802.77 L670.57,802.16 L677.42,803.65 L674.78,802.77 Z M720.33,822.52 L720.23,823.16 L722.12,821.39 L720.33,822.52 Z M720.05,824.35 L720.00,824.70 L720.34,824.85 L720.05,824.35 Z M722.05,825.59 L722.31,825.71 L723.80,825.99 L722.05,825.59 Z M410.13,869.17 L406.17,867.38 L403.37,866.49 L410.13,869.17 Z M458.57,878.29 L458.82,879.18 L457.95,879.73 L458.97,879.48 L458.57,878.29 Z M468.39,888.08 L468.66,889.31 L470.87,884.72 L468.39,888.08 Z M469.22,891.88 L471.28,894.51 L468.99,890.83 L469.22,891.88 Z M475.74,899.49 L475.74,896.16 L475.66,896.19 L475.74,899.49 Z M533.42,885.73 L533.67,886.40 L534.12,884.82 L533.17,885.06 L533.42,885.73 Z M535.16,884.56 L539.02,884.17 L538.70,883.88 L536.56,884.22 L535.16,884.56 Z M539.98,884.08 L541.34,883.94 L543.81,884.32 L540.93,883.44 L539.98,884.08 Z M528.88,904.30 L528.96,905.70 L529.05,903.24 L528.88,904.30 Z M416.65,872.58 L415.09,871.35 L416.81,873.65 L416.65,872.58 Z M420.04,879.91 L417.48,878.12 L421.19,881.37 L420.04,879.91 Z M343.29,886.46 L343.82,886.23 L343.78,886.19 L343.29,886.46 Z M368.54,899.27 L369.15,899.18 L363.84,897.31 L368.54,899.27 Z M375.64,893.39 L375.28,892.55 L374.96,894.52 L375.64,893.39 Z M373.99,889.59 L371.83,888.08 L374.60,890.99 L373.99,889.59 Z M404.21,909.99 L404.69,909.17 L404.77,906.09 L404.21,909.99 Z M343.13,913.36 L341.48,915.66 L344.20,912.75 L343.13,913.36 Z M351.13,910.73 L353.11,914.98 L359.38,922.87 L352.78,913.64 L351.13,910.73 Z M403.79,910.71 L401.22,910.96 L403.62,911.01 L403.79,910.71 Z M453.46,918.01 L450.16,907.88 L452.06,914.09 L453.46,918.01 Z M480.19,918.68 L485.23,920.08 L493.56,923.71 L483.83,919.24 L480.19,918.68 Z M480.61,904.47 L481.10,905.21 L481.10,903.52 L480.61,904.47 Z M455.14,883.61 L455.69,883.44 L455.44,881.31 L455.14,883.61 Z M423.50,750.19 L423.83,763.67 L423.50,749.07 L423.50,750.19 Z M393.71,762.66 L395.94,761.26 L399.24,758.75 L393.71,762.66 Z M401.63,766.19 L406.50,766.97 L398.58,772.90 L406.59,766.91 L401.63,766.19 Z M413.35,799.36 L414.76,802.44 L418.96,806.85 L414.67,802.04 L413.35,799.36 Z M329.18,771.22 L336.11,773.23 L352.69,777.69 L352.29,777.49 L349.98,776.76 L344.45,774.91 L329.18,771.22 Z M324.89,766.41 L326.87,769.49 L329.18,771.22 L324.89,766.41 Z M353.11,774.86 L349.15,772.40 L352.04,774.41 L353.11,774.86 Z M361.36,772.96 L354.35,773.01 L357.73,773.01 L361.36,772.96 Z M365.90,769.15 L368.79,768.54 L363.26,769.54 L369.45,766.35 L361.45,769.99 L365.90,769.15 Z M390.96,777.75 L387.85,779.39 L390.99,778.33 L390.96,777.75 Z M390.25,776.65 L390.92,777.05 L390.82,775.30 L390.25,776.65 Z M386.29,768.70 L391.15,769.93 L395.28,770.94 L386.29,768.70 Z M384.06,764.06 L384.80,766.58 L386.29,768.70 L384.06,764.06 Z M362.35,789.18 L357.73,781.79 L355.67,779.16 L362.35,789.18 Z M370.55,792.69 L370.36,792.48 L362.35,789.18 L370.55,792.69 Z M341.06,758.24 L340.82,760.98 L342.30,755.56 L341.06,758.24 Z M348.08,750.92 L346.51,749.18 L347.69,751.35 L349.73,750.41 L348.08,750.92 Z M377.87,748.62 L378.07,750.18 L378.22,748.26 L377.87,748.62 Z M353.85,768.70 L356.08,768.31 L353.72,768.69 L353.85,768.70 Z M379.02,757.35 L380.86,758.90 L378.79,755.55 L379.02,757.35 Z M349.98,740.57 L344.12,738.89 L350.31,740.84 L349.98,740.57 Z M351.46,741.80 L351.04,741.45 L349.98,743.42 L351.46,741.80 Z M462.20,748.96 L461.96,749.24 L462.70,751.25 L462.20,748.96 Z M468.72,749.40 L466.83,750.80 L465.73,752.84 L468.72,749.40 Z M468.59,746.76 L468.31,747.00 L468.72,749.40 L468.59,746.76 Z M478.38,748.01 L472.35,746.13 L473.18,746.83 L478.38,748.01 Z M484.21,738.75 L484.07,739.67 L484.90,738.89 L484.21,738.75 Z M495.46,741.85 L497.88,741.78 L496.12,741.46 L496.11,741.41 L495.46,741.85 Z M500.17,742.19 L499.44,742.06 L500.74,743.25 L500.17,742.19 Z M511.80,742.97 L511.88,744.20 L513.16,742.28 L510.23,743.48 L511.80,742.97 Z M497.94,757.96 L500.77,760.17 L500.99,759.70 L497.85,757.57 L497.94,757.96 Z M502.02,761.36 L500.80,760.71 L500.28,760.93 L502.02,761.36 Z M507.15,764.09 L505.40,763.16 L505.61,763.45 L507.15,764.09 Z M514.41,767.96 L512.89,767.15 L513.29,767.81 L514.41,767.96 Z M532.51,820.22 L542.91,819.78 L502.64,819.61 L532.51,820.22 Z M517.82,844.78 L520.55,843.49 L512.54,847.24 L517.82,844.78 Z M580.54,853.45 L578.48,852.89 L581.30,854.50 L580.54,853.45 Z M569.07,858.88 L572.72,856.83 L572.21,856.75 L569.07,858.88 Z M533.59,877.51 L535.81,876.72 L532.43,877.62 L533.59,877.51 Z M456.26,786.10 L457.50,785.09 L457.51,784.65 L456.26,786.10 Z M457.53,784.13 L457.58,782.24 L456.18,780.73 L457.53,784.13 Z M461.38,783.08 L477.31,784.53 L472.52,783.70 L461.38,783.08 Z M493.56,805.40 L492.74,806.35 L495.30,803.44 L493.56,805.40 Z M527.36,880.19 L523.52,880.08 L527.07,880.25 L527.36,880.19 Z M476.15,870.29 L472.52,871.63 L476.30,870.57 L476.15,870.29 Z M487.50,868.50 L483.41,870.68 L487.21,869.11 L487.50,868.50 Z M486.96,866.54 L487.83,867.77 L488.12,867.16 L486.96,866.54 Z M489.60,857.76 L489.27,866.54 L489.60,859.27 L489.60,857.76 Z M451.10,854.13 L451.89,854.18 L451.78,853.68 L451.10,854.13 Z M419.24,866.35 L419.87,866.26 L419.84,865.95 L419.24,866.35 Z M492.37,769.24 L491.25,770.33 L490.92,774.86 L492.37,769.24 Z M492.82,767.75 L491.21,767.05 L492.64,768.34 L492.82,767.75 Z M499.67,760.77 L499.75,760.37 L499.21,760.66 L499.67,760.77 Z M503.14,790.58 L501.73,786.83 L502.85,790.86 L503.14,790.58 Z M501.93,791.74 L499.85,792.62 L502.06,793.37 L500.83,792.81 L501.93,791.74 Z M501.57,776.20 L508.92,777.10 L508.91,777.01 L501.57,776.20 Z M499.57,792.74 L499.01,792.98 L499.51,793.66 L499.57,792.74 Z M425.90,768.82 L424.00,767.59 L424.83,768.71 L425.90,768.82 Z M464.20,755.68 L463.69,756.62 L464.27,761.21 L464.20,755.68 Z M494.22,702.70 L496.45,704.88 L493.40,701.07 L494.22,702.70 Z M502.71,710.48 L502.64,708.51 L501.98,710.36 L499.83,710.19 L502.71,710.48 Z M428.78,734.30 L428.40,733.97 L426.80,734.92 L428.78,734.30 Z M489.53,711.99 L489.85,711.98 L496.86,710.47 L489.53,711.99 Z M496.62,718.81 L499.83,724.96 L498.35,721.77 L496.62,718.81 Z M484.80,737.38 L484.40,737.49 L484.32,738.01 L484.80,737.38 Z M576.33,876.15 L577.64,876.65 L576.88,876.00 L576.33,876.15 Z M577.98,876.93 L577.98,877.67 L578.52,877.38 L577.98,876.93 Z M579.02,877.81 L579.80,879.91 L580.13,878.74 L579.02,877.81 Z M587.33,912.39 L583.26,915.54 L586.32,913.92 L587.33,912.39 Z M588.46,909.39 L587.95,911.45 L589.74,908.73 L588.46,909.39 Z M591.27,907.94 L590.88,908.14 L591.99,908.11 L591.27,907.94 Z M593.66,908.06 L595.28,908.01 L594.16,907.49 L594.23,907.19 L593.66,908.06 Z M593.17,903.29 L594.63,905.51 L594.82,904.75 L593.17,903.29 Z M552.98,885.73 L547.94,884.50 L547.46,884.88 L552.98,885.73 Z M572.04,875.21 L570.64,875.66 L569.73,877.17 L572.04,875.21 Z M570.88,829.31 L570.47,828.78 L568.20,828.78 L570.88,829.31 Z M596.71,856.08 L593.25,857.65 L599.13,855.85 L596.71,856.08 Z M577.11,875.94 L577.32,876.05 L577.40,875.86 L577.11,875.94 Z M636.33,806.24 L636.28,803.32 L634.76,810.66 L636.33,806.24 Z M640.20,813.18 L649.19,812.60 L645.90,811.55 L647.30,812.39 L640.20,813.18 Z M657.57,828.93 L658.85,829.34 L661.73,828.78 L657.57,828.93 Z M666.54,828.02 L667.77,828.67 L667.11,827.83 L666.54,828.02 Z M699.78,778.21 L699.62,764.45 L699.62,782.91 L699.78,778.33 L705.17,783.13 L705.31,782.58 L699.78,778.21 Z M672.96,538.01 L673.05,538.47 L674.04,537.34 L672.96,538.01 Z M672.22,539.19 L672.32,539.31 L672.41,539.21 L672.22,539.19 Z M670.57,541.31 L670.97,542.75 L671.31,542.21 L672.80,542.32 L670.57,541.31 Z M669.66,543.88 L670.10,544.11 L670.57,543.38 L669.66,543.88 Z M636.08,576.78 L636.69,577.02 L635.42,575.38 L636.08,576.78 Z M728.67,673.05 L729.19,673.64 L726.69,669.86 L728.67,673.05 Z M720.66,674.28 L718.40,675.23 L728.67,673.05 L720.66,674.28 Z M667.85,695.76 L680.56,695.14 L663.72,695.93 L667.85,695.76 Z M656.76,700.90 L662.32,703.20 L656.79,700.91 L656.76,700.90 Z M661.99,704.04 L663.98,706.58 L662.32,703.20 L661.99,704.04 Z M666.78,710.16 L666.53,708.63 L664.95,707.81 L666.78,710.16 Z M661.99,711.03 L667.02,711.59 L666.95,711.18 L661.99,711.03 Z M669.75,715.84 L673.13,716.29 L669.77,715.56 L669.75,715.84 Z M683.20,714.44 L683.89,714.10 L682.45,713.94 L683.20,714.44 Z M655.47,747.22 L657.20,750.19 L655.54,746.64 L655.47,747.22 Z M665.79,754.89 L666.86,753.71 L668.18,752.15 L665.79,754.89 Z M572.74,723.15 L575.51,723.23 L577.98,722.22 L572.74,723.15 Z M590.86,722.44 L589.04,720.43 L590.77,722.89 L593.25,731.56 L590.86,722.44 Z M605.63,740.68 L606.29,743.25 L606.20,738.78 L605.63,740.68 Z M647.30,732.18 L649.76,731.83 L649.53,731.78 L647.30,732.18 Z M650.86,732.06 L651.43,732.62 L654.07,732.73 L650.86,732.06 Z M661.82,737.88 L665.37,737.55 L668.26,736.71 L661.82,737.88 Z M676.27,728.20 L680.23,728.04 L682.05,727.16 L676.27,728.20 Z M563.10,767.68 L562.06,766.02 L562.80,767.59 L563.10,767.68 Z M567.58,769.88 L566.92,768.82 L566.76,771.17 L566.92,769.71 L567.58,769.88 Z M597.93,770.95 L569.98,773.79 L581.70,772.84 L597.93,770.95 L597.93,770.95 Z M639.63,768.20 L644.41,766.24 L642.43,766.63 L639.63,768.20 Z M598.87,771.98 L599.03,772.17 L602.49,771.78 L598.87,771.98 Z M558.67,760.15 L549.60,754.72 L553.14,757.40 L558.67,760.15 Z M585.08,755.45 L587.14,760.15 L587.92,760.29 L585.08,755.45 Z M589.37,717.63 L590.94,716.90 L593.66,718.69 L590.89,716.22 L589.37,717.63 Z M644.89,725.81 L638.72,725.91 L643.59,725.97 L644.89,725.81 Z M640.04,720.37 L646.97,721.38 L647.55,721.06 L640.04,720.37 Z M595.15,703.98 L593.91,708.12 L594.54,709.20 L595.15,703.98 Z M618.42,689.66 L625.68,690.39 L621.31,689.55 L618.42,689.66 Z M556.61,537.68 L562.47,539.07 L565.43,539.13 L556.61,537.68 Z M570.45,539.95 L570.97,540.18 L570.89,540.02 L570.45,539.95 Z M571.67,541.40 L571.55,542.32 L572.87,543.49 L571.67,541.40 Z M577.98,543.94 L581.94,543.38 L572.87,543.49 L577.98,543.94 Z M710.68,758.86 L709.52,759.03 L709.25,760.03 L710.68,758.86 Z M780.99,745.49 L776.78,747.34 L776.68,748.03 L780.99,745.49 Z M787.83,745.30 L787.42,744.87 L782.88,743.03 L787.83,745.30 Z M788.44,747.53 L788.82,746.33 L788.02,745.50 L788.44,747.53 Z M788.53,747.94 L789.07,750.58 L789.32,748.62 L790.81,748.51 L788.53,747.94 Z M807.28,762.82 L806.81,762.55 L802.61,762.21 L807.28,762.82 Z M807.39,814.57 L809.45,815.30 L810.17,815.11 L807.39,814.57 Z M792.79,878.18 L753.59,877.23 L773.97,878.12 L826.12,878.40 L792.79,878.18 Z M753.67,873.93 L752.78,880.55 L753.59,877.23 L753.67,873.93 Z M717.03,790.80 L712.33,792.98 L711.52,793.50 L718.18,790.95 L717.03,790.80 Z M718.56,791.83 L722.64,791.53 L719.23,791.09 L719.34,791.30 L718.56,791.83 Z M752.43,796.23 L752.52,797.51 L754.33,786.55 L752.43,796.23 Z M764.48,782.46 L779.09,781.35 L776.20,781.29 L764.48,782.46 Z M792.04,788.00 L783.46,784.53 L779.42,783.14 L781.65,784.37 L792.04,788.00 Z M722.31,840.75 L723.21,839.77 L718.60,842.49 L722.31,840.75 Z M723.06,833.54 L724.19,838.69 L724.71,838.12 L723.67,833.33 L723.06,833.54 Z M728.23,832.20 L726.93,832.25 L725.22,832.82 L728.23,832.20 Z M737.50,834.54 L730.73,831.47 L724.79,830.13 L730.65,831.93 L732.55,832.42 L737.50,834.54 Z M769.51,827.83 L769.27,829.57 L770.11,829.88 L769.51,827.83 Z M780.75,827.56 L780.49,827.27 L774.55,826.77 L780.75,827.56 Z M695.00,870.62 L694.09,871.86 L698.43,869.26 L695.00,870.62 Z M700.61,868.39 L699.46,868.84 L704.65,868.28 L700.61,868.39 Z M708.53,855.13 L707.46,858.49 L710.35,853.51 L708.53,855.13 Z M729.08,866.60 L722.64,858.65 L724.46,861.40 L729.08,866.60 Z M725.13,846.92 L718.60,847.30 L724.95,847.13 L725.13,846.92 Z M716.87,792.98 L716.95,796.34 L717.36,792.65 L716.87,792.98 Z M779.58,818.21 L778.74,818.23 L778.45,818.67 L779.58,818.21 Z M704.57,785.43 L704.61,785.28 L701.52,789.37 L704.57,785.43 Z M746.70,783.13 L741.04,783.08 L719.11,781.86 L719.11,781.86 L745.17,783.42 L746.70,783.13 Z M717.36,786.94 L716.37,787.89 L717.61,787.28 L720.99,791.08 L717.36,786.94 Z M736.92,773.91 L744.02,774.17 L743.36,774.02 L736.92,773.91 Z M753.64,777.33 L751.72,778.03 L753.01,777.93 L753.64,777.33 Z M843.37,519.38 L846.26,518.82 L834.21,520.84 L843.37,519.38 Z M816.06,522.96 L814.32,519.38 L815.81,525.09 L816.06,522.96 Z M786.76,532.42 L781.36,532.16 L779.58,533.14 L786.76,532.42 Z M802.52,560.61 L800.46,561.06 L794.93,562.62 L802.52,560.61 Z M791.05,564.86 L785.61,569.95 L794.93,562.62 L791.05,564.86 Z M783.71,575.10 L785.28,573.76 L778.10,577.17 L783.71,575.10 Z M774.63,589.36 L775.13,588.32 L768.85,594.23 L774.63,589.36 Z M801.86,631.00 L802.02,630.87 L800.83,630.52 L801.86,631.00 Z M813.00,633.33 L805.91,634.28 L804.01,634.95 L813.00,633.33 Z M778.01,689.05 L775.54,688.04 L779.47,690.51 L778.01,689.05 Z M781.56,692.63 L781.17,692.23 L780.16,695.98 L781.56,692.63 Z M793.45,713.77 L790.97,713.72 L789.73,714.44 L793.45,713.77 Z M750.12,608.49 L752.27,607.13 L751.03,607.15 L750.12,608.49 Z M753.27,607.11 L756.23,608.83 L754.17,607.10 L753.27,607.11 Z M715.46,693.97 L716.85,694.53 L713.57,692.35 L715.46,693.97 Z M725.61,694.70 L718.87,695.36 L722.06,696.65 L721.07,695.14 L725.61,694.70 Z M721.15,735.68 L720.79,732.87 L720.74,734.75 L721.15,735.68 Z M704.57,709.18 L704.16,711.09 L704.17,711.12 L704.57,709.18 Z M705.07,712.09 L704.47,711.79 L704.65,712.21 L705.07,712.09 Z M718.46,726.99 L716.87,723.39 L718.43,726.97 L718.46,726.99 Z M782.61,644.86 L769.51,648.60 L782.47,645.41 L782.61,644.86 Z M778.16,635.82 L777.36,632.99 L777.27,635.12 L778.16,635.82 Z M778.01,630.70 L778.40,628.93 L777.52,629.19 L777.45,630.80 L778.01,630.70 Z M792.29,626.51 L793.82,627.23 L788.74,624.27 L792.29,626.51 Z M846.18,749.07 L846.58,751.20 L847.17,747.39 L846.18,749.07 Z M839.43,801.78 L838.01,802.94 L837.43,804.67 L839.43,801.78 Z M843.87,798.63 L843.52,798.47 L841.69,799.95 L843.87,798.63 Z M880.01,783.92 L880.92,783.24 L876.71,783.81 L880.01,783.92 Z M910.38,762.77 L896.50,766.87 L900.72,766.19 L910.38,762.77 Z M942.48,755.05 L924.98,763.33 L922.10,765.01 L935.22,758.97 L942.48,755.05 Z M850.30,831.02 L848.88,830.61 L848.90,830.85 L826.95,831.13 L850.30,831.02 Z M849.58,835.30 L850.39,835.16 L850.80,832.31 L850.30,831.02 L849.58,835.30 Z M849.45,836.08 L849.13,837.97 L850.06,837.17 L849.45,836.08 Z M848.98,838.92 L848.81,839.91 L849.56,839.58 L848.98,838.92 Z M844.49,847.31 L841.87,849.52 L843.70,848.70 L844.49,847.31 Z M840.26,850.89 L839.74,851.33 L836.85,857.03 L840.26,850.89 Z M831.41,873.09 L832.98,875.49 L833.55,875.21 L831.41,873.09 Z M848.82,829.70 L848.98,829.57 L848.79,829.30 L848.82,829.70 Z M888.92,768.37 L889.91,768.82 L886.53,764.73 L888.92,768.37 Z M805.25,573.98 L806.10,574.57 L805.29,573.40 L805.25,573.98 Z M813.23,579.46 L818.53,583.10 L814.65,579.69 L813.23,579.46 Z M869.94,584.78 L870.52,582.65 L870.19,578.96 L869.94,584.78 Z M875.60,592.95 L875.14,591.66 L872.34,586.40 L875.39,592.72 L875.60,592.95 Z M903.28,587.01 L902.70,585.78 L902.32,585.71 L903.28,587.01 Z M906.67,579.91 L907.16,578.73 L905.67,574.59 L906.67,579.91 Z M842.55,603.85 L826.70,611.96 L825.17,613.02 L842.55,603.85 Z M844.31,605.32 L843.87,604.86 L843.08,603.60 L842.55,603.85 L844.31,605.32 Z M862.83,620.86 L862.76,620.69 L859.13,620.91 L862.83,620.86 Z M881.91,622.87 L882.64,622.97 L881.31,622.58 L881.91,622.87 Z M838.83,643.62 L834.71,646.37 L835.37,646.42 L838.83,643.62 Z M848.16,643.96 L844.87,644.94 L845.60,645.25 L848.16,643.96 Z M849.97,639.93 L857.73,641.83 L866.15,641.67 L858.39,641.67 L849.97,639.93 Z M817.38,717.18 L821.67,718.13 L825.42,717.89 L817.38,717.18 Z M903.45,601.89 L902.21,596.91 L902.87,601.22 L903.45,601.89 Z M881.83,606.31 L882.24,603.07 L881.33,600.94 L881.83,606.31 Z M876.54,595.59 L876.21,596.30 L877.12,598.20 L877.49,598.24 L876.54,595.59 Z M854.47,549.35 L854.51,548.30 L853.59,547.44 L854.47,549.35 Z M870.93,560.61 L871.71,552.02 L870.85,555.80 L870.93,560.61 Z M823.28,528.51 L822.08,522.57 L822.82,528.39 L823.28,528.51 Z M393.30,192.87 L398.33,191.19 L392.64,192.98 L392.80,193.24 L393.30,192.87 Z M395.12,196.95 L393.81,198.28 L394.62,197.96 L395.12,196.95 Z M377.87,201.59 L374.98,204.67 L373.16,207.13 L377.87,201.59 Z M373.49,217.14 L368.96,218.09 L368.94,218.33 L373.49,217.14 Z M373.99,225.42 L373.46,227.18 L374.15,226.49 L373.99,225.42 Z M365.99,233.25 L368.54,232.08 L359.71,235.10 L358.36,236.23 L365.99,233.25 Z M373.16,261.62 L373.22,261.52 L372.36,261.65 L372.83,262.34 L373.16,261.62 Z M387.61,330.98 L389.82,334.08 L389.92,333.61 L387.61,330.98 Z M389.47,335.76 L388.76,337.30 L389.42,336.01 L389.47,335.76 Z M385.75,337.85 L385.05,337.97 L384.80,338.51 L385.75,337.85 Z M383.89,340.49 L378.94,343.51 L384.22,340.53 L383.89,340.49 Z M387.78,340.95 L393.22,342.45 L390.49,341.27 L387.78,340.95 Z M406.33,360.55 L407.56,362.79 L407.33,361.08 L406.33,360.55 Z M398.17,380.77 L395.45,380.09 L396.11,380.77 L390.25,380.93 L398.17,380.77 Z M365.42,385.48 L363.34,384.29 L365.42,385.48 L365.42,385.48 Z M319.11,407.39 L323.82,406.67 L320.43,406.89 L317.32,406.84 L319.11,407.39 Z M311.11,410.19 L311.44,410.97 L315.98,414.27 L311.11,410.19 Z M320.93,434.08 L317.05,434.24 L326.54,434.97 L320.93,434.08 Z M334.62,428.89 L339.33,431.45 L334.79,428.76 L334.62,428.89 Z M374.65,460.76 L373.00,461.15 L379.44,460.65 L374.65,460.76 Z M362.11,461.37 L355.39,462.17 L356.50,462.38 L362.11,461.37 Z M170.74,247.02 L173.24,247.94 L167.93,244.50 L170.74,247.02 Z M175.11,248.64 L180.40,248.45 L174.24,248.31 L175.11,248.64 Z M186.09,248.25 L188.07,246.85 L184.41,248.31 L186.09,248.25 Z M192.36,242.15 L192.86,250.37 L193.19,238.01 L192.36,242.15 Z M185.18,296.58 L186.25,299.77 L185.51,295.57 L185.18,296.58 Z M238.99,314.77 L239.15,314.76 L239.06,314.73 L238.99,314.77 Z M186.42,331.87 L187.82,334.90 L187.24,332.94 L186.42,331.87 Z M212.66,353.58 L212.91,351.01 L212.66,349.33 L212.66,353.58 Z M191.37,379.03 L196.57,378.86 L202.35,378.02 L191.37,379.03 Z M193.93,402.64 L193.60,403.31 L195.32,402.32 L193.93,402.64 Z M189.67,421.53 L188.48,422.22 L176.35,419.87 L186.17,422.33 L189.55,422.22 L189.67,421.53 Z M209.70,436.32 L209.36,436.09 L203.09,434.97 L209.70,436.32 Z M212.10,437.76 L212.06,437.67 L212.03,437.71 L212.10,437.76 Z M218.77,453.77 L220.57,455.68 L221.04,455.69 L221.00,455.11 L218.77,453.77 Z M227.27,463.78 L227.91,463.78 L228.67,462.32 L227.27,463.78 Z M227.10,465.35 L223.88,475.75 L227.35,465.51 L229.91,465.40 L227.10,465.35 Z M207.05,490.97 L206.80,497.18 L207.21,486.94 L207.05,490.97 Z M220.40,524.45 L220.40,524.45 L217.12,519.49 L220.40,524.45 Z M103.82,376.23 L99.19,377.07 L106.81,376.60 L103.82,376.23 Z M99.69,438.83 L104.31,439.56 L107.12,439.28 L99.69,438.83 Z M110.83,436.26 L115.86,435.03 L118.83,433.52 L110.83,436.26 Z M158.36,426.28 L160.01,426.92 L160.43,426.49 L158.36,426.28 Z M171.48,421.99 L171.57,420.65 L171.90,412.65 L171.48,421.99 Z M153.33,529.17 L151.68,531.41 L160.92,522.85 L153.33,529.17 Z M157.54,515.80 L161.25,519.49 L159.19,517.37 L157.54,515.80 Z M153.25,469.32 L153.74,461.09 L154.36,459.60 L153.74,460.14 L153.25,469.32 Z M190.35,391.83 L182.05,391.23 L187.66,391.73 L190.35,391.83 Z M154.24,398.39 L156.79,404.20 L148.79,384.68 L154.24,398.39 Z M149.46,401.20 L139.05,405.21 L147.88,402.13 L149.46,401.20 Z M122.05,313.14 L122.38,313.97 L123.36,314.22 L122.05,313.14 Z M124.08,314.39 L125.60,314.77 L125.60,314.48 L124.08,314.39 Z M128.85,317.52 L128.98,317.72 L129.20,317.59 L128.85,317.52 Z M162.87,323.87 L165.05,324.21 L167.52,323.71 L162.87,323.87 Z M175.11,309.61 L186.67,304.24 L188.08,303.21 L175.11,309.61 Z M84.01,356.54 L83.96,356.04 L82.11,356.15 L84.01,356.54 Z M88.71,354.98 L87.72,355.82 L90.13,355.02 L88.71,355.15 L88.71,354.98 Z M91.19,350.84 L90.28,349.83 L90.70,351.31 L91.19,350.84 Z M185.92,332.38 L182.62,331.15 L180.31,331.20 L185.92,332.38 Z M93.43,354.72 L100.51,355.76 L104.99,355.76 L94.90,354.59 L93.43,354.72 Z M124.86,362.98 L140.70,364.10 L126.18,362.70 L135.09,355.76 L124.86,362.98 Z M161.75,282.37 L158.53,281.19 L155.31,280.69 L161.75,282.37 Z M74.93,257.31 L74.47,257.47 L75.22,257.62 L74.93,257.31 Z M79.22,261.34 L80.13,262.29 L82.38,263.46 L82.44,263.18 L79.22,261.34 Z M84.51,264.08 L83.48,264.03 L85.41,265.03 L84.51,264.08 Z M272.24,351.29 L271.71,351.45 L275.62,352.12 L272.24,351.29 Z M285.03,357.70 L284.62,357.44 L284.70,357.77 L285.03,357.70 Z M286.13,357.11 L285.87,357.50 L286.35,357.38 L286.13,357.11 Z M287.01,355.82 L286.58,356.45 L287.26,356.38 L287.01,355.82 Z M291.13,355.05 L291.03,356.11 L296.34,359.90 L291.13,355.05 Z M291.22,354.08 L291.17,354.61 L295.10,353.02 L291.22,354.08 Z M310.17,329.50 L310.70,331.65 L310.28,329.64 L310.17,329.50 Z M248.97,445.54 L281.65,445.21 L254.58,445.43 L238.99,445.66 L248.97,445.54 Z M240.64,458.41 L241.63,460.81 L240.55,449.57 L240.64,458.41 Z M271.66,483.53 L279.26,483.30 L268.61,483.02 L271.66,483.53 Z M211.54,385.93 L209.86,386.25 L209.06,387.32 L211.54,385.93 Z M248.72,401.74 L246.08,400.79 L239.81,398.78 L248.72,401.74 Z M249.11,387.38 L248.56,387.42 L248.72,393.07 L249.11,387.38 Z M322.83,376.18 L320.68,376.23 L323.57,376.38 L322.58,375.28 L322.83,376.18 Z M323.19,377.55 L324.15,377.02 L323.85,376.69 L323.19,377.55 Z M248.23,404.04 L250.87,405.99 L252.35,406.72 L248.23,404.04 Z M296.67,253.90 L296.56,253.83 L297.49,257.03 L297.99,258.31 L296.67,253.90 Z M321.84,238.85 L323.24,239.46 L324.64,239.46 L321.84,238.85 Z M350.72,236.83 L356.08,237.11 L357.33,236.63 L350.72,236.83 Z M279.01,310.62 L257.55,312.18 L253.26,311.57 L258.30,312.58 L279.01,310.62 Z M300.46,310.11 L302.94,308.91 L301.87,309.05 L300.46,310.11 Z M304.59,308.10 L304.42,300.60 L303.95,308.41 L304.59,308.10 Z M356.17,262.12 L353.69,261.39 L352.67,261.83 L356.17,262.12 Z M357.73,261.89 L358.35,261.48 L357.24,261.06 L357.73,261.89 Z M360.70,262.01 L366.73,261.06 L360.58,261.96 L360.70,262.01 Z M246.41,275.66 L246.49,272.97 L245.67,287.46 L246.41,275.66 Z M248.31,278.34 L248.97,278.59 L246.41,275.66 L248.31,278.34 Z M260.85,276.89 L250.47,279.16 L250.95,279.35 L260.85,276.89 Z M308.06,279.68 L307.40,282.26 L307.31,283.71 L308.06,279.68 Z M291.30,244.05 L292.79,248.92 L294.52,251.49 L291.30,244.05 Z M344.36,204.95 L325.22,201.31 L330.01,202.38 L344.36,204.95 Z M406.17,297.36 L401.14,293.05 L390.91,284.94 L406.17,297.36 Z M454.04,228.11 L454.81,227.65 L447.60,227.55 L454.04,228.11 Z M456.68,226.54 L456.49,225.95 L456.09,226.89 L456.68,226.54 Z M457.25,201.65 L456.79,201.57 L457.50,207.35 L457.25,201.65 Z M473.26,187.16 L476.13,185.33 L470.79,187.66 L473.26,187.16 Z M539.53,180.22 L555.32,185.19 L555.54,184.75 L592.01,194.99 L539.53,180.22 Z M516.67,257.36 L518.07,254.79 L517.41,254.12 L516.67,257.36 Z M496.29,298.98 L494.88,298.11 L494.55,299.88 L495.21,298.37 L496.29,298.98 Z M478.39,307.86 L478.79,307.77 L486.88,302.28 L478.39,307.86 Z M476.76,308.93 L476.32,309.22 L473.92,308.38 L476.88,309.63 L476.76,308.93 Z M474.29,307.71 L463.77,310.51 L473.92,308.38 L474.29,307.71 Z M441.41,326.34 L441.99,326.62 L445.54,325.39 L441.41,326.34 Z M438.52,327.01 L438.48,327.15 L439.04,326.89 L438.52,327.01 Z M437.68,334.02 L437.68,334.02 L438.69,332.66 L437.68,334.02 Z M439.68,346.59 L440.29,346.55 L442.07,338.53 L439.68,346.59 Z M443.64,346.36 L442.07,345.92 L440.64,346.53 L443.64,346.36 Z M491.81,346.17 L492.70,347.33 L492.08,346.25 L495.13,346.47 L491.81,346.17 Z M495.37,356.00 L495.96,352.96 L495.04,351.38 L495.37,356.00 Z M495.61,359.51 L496.12,358.22 L495.48,357.57 L495.61,359.51 Z M490.92,365.16 L494.22,363.03 L494.74,361.72 L490.92,365.16 Z M488.86,370.53 L489.02,373.16 L489.69,368.36 L488.86,370.53 Z M495.05,383.95 L490.68,384.29 L495.30,384.29 L496.95,382.84 L495.05,383.95 Z M482.42,387.87 L481.16,388.09 L486.47,388.82 L482.42,387.87 Z M480.69,388.18 L480.19,388.26 L478.77,390.34 L479.20,390.56 L480.69,388.18 Z M477.47,390.17 L475.16,389.10 L476.56,390.44 L476.30,390.99 L477.47,390.17 Z M475.24,393.23 L476.07,392.96 L475.63,392.40 L475.24,393.23 Z M473.92,395.98 L475.49,394.41 L474.89,393.95 L473.92,395.98 Z M537.55,432.79 L538.54,429.08 L538.12,429.10 L537.55,432.79 Z M449.25,451.30 L448.26,452.26 L447.31,452.31 L447.93,452.65 L449.25,451.30 Z M440.21,467.46 L440.09,467.92 L442.73,467.75 L440.21,467.46 Z M438.89,467.31 L439.42,467.88 L439.88,467.42 L438.89,467.31 Z M432.96,478.59 L433.74,478.27 L433.65,476.09 L432.96,478.59 Z M438.03,481.06 L447.10,480.17 L436.80,480.74 L438.03,481.06 Z M564.45,488.00 L564.70,486.49 L564.04,484.81 L564.45,488.00 Z M496.45,278.17 L496.70,272.47 L496.20,277.11 L487.54,276.44 L495.79,277.39 L496.45,278.17 Z M443.89,424.06 L441.90,425.80 L441.57,426.36 L443.89,424.06 Z M477.80,405.21 L477.14,405.94 L478.65,405.56 L477.80,405.21 Z M393.29,462.13 L393.55,462.38 L397.59,461.32 L393.29,462.13 Z M416.17,458.33 L432.91,464.06 L416.41,458.35 L416.17,458.33 Z M373.99,511.61 L378.12,509.48 L372.60,511.66 L373.99,511.61 Z M400.85,528.11 L400.82,528.02 L395.20,526.15 L400.85,528.11 Z M402.11,528.45 L400.85,528.03 L400.90,528.13 L401.82,528.45 L402.11,528.45 Z M403.78,528.45 L404.77,525.54 L403.11,528.45 L403.78,528.45 Z M413.44,518.10 L413.23,518.33 L413.40,518.36 L413.44,518.10 Z M473.18,503.38 L475.82,502.88 L470.37,502.99 L473.18,503.38 Z M433.98,501.76 L404.69,503.94 L407.00,504.06 L405.18,504.39 L433.98,501.76 Z M395.93,503.54 L397.34,503.94 L405.18,504.39 L395.93,503.54 Z M350.97,493.65 L349.94,493.63 L354.60,496.39 L350.97,493.65 Z M414.67,489.34 L415.58,491.36 L415.45,489.38 L414.67,489.34 Z M419.13,489.57 L416.02,489.41 L416.74,490.01 L419.13,489.57 Z M420.28,447.67 L423.75,444.82 L417.15,449.85 L420.28,447.67 Z M448.75,297.25 L454.21,295.52 L454.04,295.47 L448.75,297.25 Z M422.23,378.85 L428.87,378.81 L423.75,378.53 L422.23,378.85 Z M421.75,331.28 L417.40,330.98 L421.60,331.32 L421.75,331.28 Z M424.30,330.32 L423.61,330.88 L423.92,330.81 L424.30,330.32 Z M427.30,325.27 L426.43,327.59 L426.89,327.01 L427.30,325.27 Z M455.85,295.96 L455.57,295.88 L459.65,301.67 L455.85,295.96 Z M426.14,336.24 L428.12,336.52 L429.39,335.98 L426.14,336.24 Z M443.80,259.04 L441.33,257.48 L439.72,257.38 L443.80,259.04 Z M456.76,273.59 L454.86,270.01 L453.66,269.60 L456.76,273.59 Z M452.55,280.24 L455.77,276.38 L456.76,273.59 L452.55,280.24 Z M460.55,255.07 L455.05,256.66 L462.22,255.14 L460.55,255.07 Z M471.86,254.68 L467.11,255.34 L468.72,255.57 L471.86,254.68 Z M488.17,145.65 L489.33,144.67 L488.28,144.81 L488.17,145.65 Z M490.18,147.11 L488.10,146.21 L488.03,146.72 L490.18,147.11 Z M495.71,145.99 L493.23,145.21 L495.35,146.51 L495.71,145.99 Z M494.64,147.56 L494.91,147.16 L490.18,148.79 L494.64,147.56 Z M516.01,302.90 L514.65,304.08 L518.22,302.21 L516.01,302.90 Z M521.95,301.05 L521.43,301.21 L528.63,301.50 L521.95,301.05 Z M568.29,292.07 L569.48,296.58 L572.12,301.72 L568.29,292.07 Z M684.02,305.30 L682.21,304.63 L687.49,307.49 L684.02,305.30 Z M657.29,324.66 L663.14,322.53 L656.13,324.77 L657.29,324.66 Z M739.97,309.95 L738.32,309.11 L742.45,311.57 L739.97,309.95 Z M755.73,325.44 L754.99,324.66 L756.23,328.18 L755.73,325.44 Z M505.07,381.25 L508.21,381.35 L507.18,380.88 L505.07,381.25 Z M517.82,385.80 L522.64,386.37 L522.45,386.02 L517.82,385.80 Z M548.11,372.32 L550.75,372.49 L548.52,373.44 L551.82,372.41 L548.11,372.32 Z M549.46,363.48 L552.81,361.35 L549.43,362.81 L549.46,363.48 Z M566.10,372.26 L568.33,377.19 L568.82,377.19 L566.10,372.26 Z M622.87,377.07 L625.13,377.84 L624.77,377.19 L622.87,377.07 Z M627.08,379.87 L630.42,377.92 L627.02,379.86 L628.40,382.61 L627.08,379.87 Z M634.26,385.74 L635.67,389.60 L635.50,388.09 L634.26,385.74 Z M624.69,422.27 L623.12,423.56 L621.06,425.57 L624.69,422.27 Z M717.56,399.32 L717.77,399.45 L718.26,399.53 L717.56,399.32 Z M725.70,400.23 L723.14,399.73 L722.01,400.13 L728.25,401.13 L725.70,400.23 Z M733.64,401.45 L734.69,401.52 L733.21,400.96 L733.64,401.45 Z M732.39,396.05 L732.13,395.56 L731.97,395.70 L732.39,396.05 Z M732.39,395.35 L732.96,395.48 L732.89,394.93 L732.39,395.35 Z M579.88,415.34 L581.37,418.02 L582.12,418.14 L579.88,415.34 Z M565.44,355.82 L563.29,358.17 L562.88,359.79 L565.44,355.82 Z M574.85,344.63 L569.19,342.12 L569.90,343.01 L574.85,344.63 Z M650.50,366.13 L650.50,366.13 L647.55,360.18 L650.50,366.13 Z M651.01,365.83 L649.45,356.04 L650.57,366.09 L651.01,365.83 Z M657.37,340.66 L654.09,338.93 L655.22,340.04 L657.37,340.66 Z M540.80,363.00 L540.85,362.81 L540.36,362.59 L540.80,363.00 Z M543.90,370.03 L544.99,370.62 L540.11,365.55 L543.90,370.03 Z M650.85,329.36 L650.03,327.60 L649.61,328.13 L648.77,327.72 L650.85,329.36 Z M566.59,319.74 L566.50,319.08 L566.03,319.93 L566.59,319.74 Z M567.34,336.18 L567.11,336.02 L568.82,337.92 L567.34,336.18 Z M568.16,340.83 L568.47,341.21 L568.82,337.92 L568.16,340.83 Z M646.48,324.16 L646.15,325.67 L646.72,326.12 L646.48,324.16 Z M567.31,274.68 L568.66,273.98 L568.76,272.68 L567.31,274.68 Z M684.27,235.04 L687.98,236.11 L686.83,237.11 L688.31,236.06 L684.27,235.04 Z M725.04,240.02 L725.43,237.85 L724.95,238.18 L725.04,240.02 Z M725.52,237.78 L729.16,240.64 L725.52,237.78 L725.52,237.78 Z M798.40,275.04 L799.40,274.29 L794.68,275.60 L798.40,275.04 Z M802.84,273.73 L801.95,273.59 L801.26,273.78 L802.84,273.73 Z M818.94,276.68 L816.55,275.99 L810.77,275.04 L818.94,276.68 Z M706.63,257.08 L706.72,257.92 L707.13,255.63 L706.63,257.08 Z M693.11,220.50 L688.07,216.08 L685.43,214.91 L693.11,220.50 Z M597.26,187.22 L596.88,187.61 L597.38,188.67 L597.26,187.22 Z M599.44,187.66 L597.87,186.60 L597.66,186.82 L599.44,187.66 Z M625.10,192.03 L629.64,192.98 L625.68,191.68 L625.10,192.03 Z M564.61,251.38 L564.78,255.74 L565.69,242.20 L564.61,251.38 Z M647.71,183.47 L646.39,185.76 L648.09,183.26 L647.71,183.47 Z M651.92,181.17 L648.81,182.87 L650.44,182.57 L651.92,181.17 Z M37.96,346.42 L37.80,345.36 L37.80,345.34 L37.96,346.42 Z M307.07,166.18 L306.74,165.90 L306.74,165.34 L307.07,166.18 Z" /></g></svg>