<svg xmlns="http://www.w3.org/2000/svg" viewBox="0 0 1000 1000" width="1000" height="1000"><g fill="#cccccc" stroke="#222" stroke-width="2"><path d="M23.14,979.98 L23.59,979.53 L23.82,979.92 L23.14,980.77 L23.14,979.98 Z M31.36,968.10 L30.95,965.06 L31.41,964.55 L32.00,967.25 L31.36,968.10 Z M25.18,959.71 L25.59,957.51 L27.14,955.60 L26.27,953.46 L25.09,952.61 L20.00,953.63 L19.23,953.06 L20.18,949.18 L24.64,945.35 L29.13,943.49 L36.59,944.45 L40.13,943.60 L41.49,944.79 L42.99,949.40 L39.45,951.04 L38.27,953.80 L39.95,956.10 L38.90,956.33 L37.63,954.64 L36.18,954.64 L34.68,957.34 L33.18,957.96 L31.04,962.81 L29.09,961.68 L27.77,962.81 L26.09,962.24 L25.18,959.71 Z M53.80,941.63 L52.58,943.55 L53.62,945.80 L53.26,946.31 L48.17,942.65 L48.44,941.97 L50.58,940.90 L50.71,939.55 L52.62,940.17 L53.08,941.63 L53.80,941.63 Z M56.98,935.04 L56.53,938.03 L57.48,941.24 L55.94,939.77 L55.71,938.87 L53.94,938.31 L56.98,935.04 Z M104.73,909.87 L104.82,910.38 L104.32,910.10 L104.73,909.87 Z M101.69,907.96 L100.96,906.49 L102.28,907.45 L102.05,907.96 L101.69,907.96 Z M279.78,672.51 L279.78,672.85 L279.50,672.91 L279.78,672.51 Z M285.32,660.41 L286.18,661.70 L284.77,663.67 L284.18,662.38 L285.05,661.76 L285.32,660.41 Z M307.49,645.54 L308.71,644.41 L309.85,644.75 L309.40,647.68 L307.94,649.37 L307.49,645.54 Z M261.51,615.41 L262.15,614.91 L262.60,615.64 L262.42,616.26 L261.51,615.41 Z M260.19,613.27 L260.01,612.71 L260.29,612.94 L260.19,613.27 Z M275.91,612.77 L275.00,614.17 L274.64,614.23 L274.64,612.65 L275.60,611.75 L275.91,612.77 Z M258.79,609.95 L260.15,609.22 L262.74,609.67 L262.24,610.51 L260.88,612.37 L258.65,611.02 L258.79,609.95 Z M269.42,611.25 L269.74,608.99 L271.23,609.84 L273.10,608.88 L273.51,609.44 L272.73,611.75 L271.69,611.08 L269.42,611.25 Z M276.73,608.09 L275.19,607.98 L274.82,606.01 L276.87,607.13 L276.73,608.09 Z M263.47,605.11 L265.87,604.32 L266.46,608.88 L263.15,606.06 L263.47,605.11 Z M256.70,604.83 L257.01,604.60 L257.01,606.74 L255.61,607.13 L256.51,606.46 L256.70,604.83 Z M261.83,600.72 L262.65,601.50 L262.06,601.56 L261.19,600.77 L261.83,600.72 Z M272.46,599.19 L274.64,598.12 L275.69,600.15 L273.41,601.84 L272.46,599.19 Z M269.83,589.90 L271.42,586.64 L269.87,584.67 L270.96,582.75 L269.51,581.01 L269.55,577.91 L273.05,578.98 L275.69,583.71 L274.87,588.44 L277.05,591.65 L275.37,594.97 L269.83,589.90 Z M277.28,578.53 L276.32,578.47 L275.14,576.16 L273.23,575.88 L273.10,573.80 L271.14,570.14 L271.87,569.57 L273.96,570.14 L275.91,572.62 L277.28,578.53 Z M282.64,564.96 L281.64,562.59 L284.18,565.01 L284.14,566.31 L282.64,564.96 Z M270.73,566.14 L269.28,565.75 L268.55,564.51 L268.24,560.40 L271.10,562.82 L271.69,565.29 L270.73,566.14 Z M278.78,559.27 L278.32,557.47 L280.96,559.66 L281.37,561.58 L278.78,559.27 Z M372.64,445.46 L372.50,444.39 L372.82,444.50 L372.64,445.46 Z M372.73,443.55 L372.95,442.20 L373.95,441.69 L372.73,443.55 Z M285.73,554.26 L286.50,553.07 L287.86,554.26 L288.77,558.03 L285.82,556.62 L282.50,551.95 L280.77,552.57 L279.23,554.99 L276.73,551.50 L273.87,550.82 L271.82,551.84 L271.14,555.21 L269.33,554.93 L268.96,548.57 L268.10,544.57 L265.92,541.59 L266.65,540.57 L265.46,536.41 L264.60,535.05 L263.06,535.05 L260.88,533.48 L260.06,529.99 L260.79,527.68 L259.92,520.19 L258.01,505.04 L247.79,446.81 L242.16,425.64 L240.48,422.60 L239.98,420.74 L238.16,418.60 L238.30,417.70 L233.35,412.69 L229.21,402.27 L226.44,398.50 L223.08,396.24 L218.58,397.76 L214.49,396.69 L212.45,392.08 L207.90,388.19 L203.27,387.91 L202.04,388.98 L202.00,390.95 L201.18,388.59 L199.50,386.84 L200.00,385.43 L197.18,377.32 L195.82,368.76 L193.18,359.70 L189.05,356.77 L189.69,353.78 L191.50,351.93 L190.69,348.21 L194.09,348.38 L195.77,350.07 L197.82,348.21 L199.86,349.84 L205.31,350.52 L207.95,352.09 L211.27,351.64 L216.17,353.73 L216.94,353.39 L219.99,355.36 L227.08,356.77 L228.03,358.06 L229.53,358.35 L232.62,356.83 L236.53,351.76 L238.89,345.90 L241.07,334.64 L245.88,331.99 L250.25,330.75 L252.15,322.53 L252.47,315.04 L254.52,310.93 L258.29,307.55 L262.88,306.20 L265.01,307.10 L268.28,308.90 L273.96,320.90 L277.41,326.30 L280.50,328.61 L283.14,326.64 L288.23,333.12 L291.18,334.19 L291.18,335.88 L292.95,337.85 L293.81,340.94 L297.36,345.11 L300.26,350.24 L301.04,352.32 L300.08,355.64 L301.72,361.39 L299.99,362.46 L298.49,365.84 L298.22,371.47 L301.45,387.80 L300.99,393.71 L299.13,401.48 L299.13,407.79 L301.67,417.19 L301.90,422.94 L298.90,435.61 L297.22,439.83 L295.27,442.25 L292.68,443.72 L290.63,447.66 L288.36,455.48 L284.82,474.97 L280.59,479.19 L279.00,484.32 L278.91,486.40 L281.05,490.85 L281.55,494.00 L279.96,497.94 L277.41,500.31 L276.82,502.39 L276.73,509.32 L273.32,513.66 L273.96,516.58 L276.14,518.50 L276.19,519.51 L277.19,517.71 L277.87,516.58 L280.82,519.51 L280.64,520.53 L284.41,522.22 L284.41,526.89 L282.64,527.00 L280.91,530.61 L280.96,535.90 L282.59,538.10 L281.73,539.05 L280.64,537.93 L279.82,538.71 L278.91,543.33 L283.23,550.15 L284.32,553.47 L285.73,554.26 Z M295.36,433.52 L295.86,427.67 L295.04,434.87 L295.36,433.52 Z M290.59,354.35 L290.68,359.13 L291.03,359.91 L290.59,354.35 Z M246.42,335.39 L246.52,335.99 L247.97,337.62 L246.42,335.39 Z M242.89,379.18 L244.11,382.50 L243.70,380.70 L242.89,379.18 Z M244.61,387.63 L244.51,387.28 L244.41,387.87 L244.61,387.63 Z M401.44,417.64 L401.53,417.25 L402.26,417.19 L402.26,417.53 L401.44,417.64 Z M404.35,414.60 L403.71,414.55 L403.71,414.21 L404.21,413.93 L404.35,414.60 Z M406.25,399.79 L406.71,399.96 L405.98,400.35 L406.25,399.79 Z M202.27,391.80 L202.41,391.51 L202.54,392.13 L202.27,391.80 Z M192.73,379.12 L192.91,379.35 L192.73,379.41 L192.73,379.12 Z M177.92,359.25 L177.92,358.80 L178.24,359.30 L177.92,359.25 Z M405.30,356.94 L404.39,356.49 L405.71,356.60 L405.30,356.94 Z M404.12,356.32 L404.21,356.32 L404.21,356.37 L404.12,356.32 Z M180.24,351.31 L179.78,351.36 L179.37,350.80 L180.24,351.31 Z M292.81,333.17 L292.63,334.07 L291.50,333.91 L291.77,332.78 L292.81,333.17 Z M429.29,758.22 L429.74,759.74 L428.83,760.87 L428.24,759.35 L429.29,758.22 Z M431.15,756.98 L429.83,757.04 L429.42,755.41 L431.24,755.69 L431.15,756.98 Z M428.88,729.28 L430.06,732.21 L429.70,733.61 L428.38,733.78 L427.74,735.70 L429.01,747.02 L429.74,751.46 L429.11,752.70 L428.15,752.82 L426.06,752.42 L424.93,748.65 L423.52,748.25 L422.75,745.95 L422.56,738.12 L424.93,736.71 L424.52,734.29 L426.74,734.18 L425.74,727.42 L425.88,723.76 L426.56,723.25 L429.11,726.74 L428.88,729.28 Z M421.11,723.93 L420.52,723.14 L421.20,721.51 L421.70,729.11 L421.11,723.93 Z M425.65,717.06 L425.15,716.10 L425.97,713.73 L426.65,716.83 L426.02,719.42 L425.65,717.06 Z M420.38,712.83 L420.66,711.76 L421.16,711.76 L421.02,713.06 L420.38,712.83 Z M428.92,709.40 L429.97,705.68 L431.79,706.92 L431.29,708.44 L428.92,709.40 Z M407.89,403.34 L409.30,402.78 L408.71,403.68 L407.48,403.96 L407.89,403.34 Z M412.89,399.00 L416.38,398.44 L417.52,400.13 L412.43,401.31 L412.89,399.00 Z M408.84,395.85 L408.84,397.09 L407.48,397.76 L406.89,397.60 L408.84,395.85 Z M420.75,396.24 L419.61,397.76 L418.57,397.37 L419.61,393.65 L420.88,393.48 L420.75,396.24 Z M416.48,392.98 L416.43,392.75 L416.70,392.58 L416.48,392.98 Z M422.34,394.10 L423.47,391.46 L425.11,392.30 L424.97,393.88 L422.34,394.10 Z M418.20,392.53 L418.16,392.70 L418.02,392.70 L418.20,392.53 Z M420.47,391.18 L420.29,391.23 L420.47,390.84 L420.47,391.18 Z M411.02,389.82 L409.52,391.68 L408.80,392.08 L409.16,389.37 L410.16,388.30 L411.02,389.82 Z M412.02,387.85 L412.52,387.57 L412.75,387.68 L412.66,388.13 L412.02,387.85 Z M411.80,385.32 L410.62,385.38 L411.48,383.86 L411.84,383.86 L411.80,385.32 Z M412.43,379.58 L414.84,381.32 L415.98,380.19 L415.89,378.79 L418.34,379.63 L417.29,382.50 L414.89,384.93 L413.98,384.70 L412.02,381.55 L411.30,381.49 L411.98,380.03 L412.43,379.58 Z M410.43,361.78 L410.25,361.61 L410.75,361.78 L410.43,361.78 Z M410.57,360.32 L410.48,360.71 L410.32,360.21 L410.57,360.32 Z M411.12,361.10 L411.02,361.22 L410.57,360.32 L410.80,359.58 L411.12,361.10 Z M410.32,360.21 L410.30,360.20 L410.30,360.15 L410.32,360.21 Z M410.75,359.08 L410.80,358.63 L410.84,358.51 L410.80,359.53 L410.75,359.08 Z M410.30,357.78 L410.25,358.12 L410.12,358.51 L410.30,357.73 L410.34,357.73 L410.30,357.78 Z M412.25,342.30 L412.07,342.47 L412.34,341.28 L412.71,341.23 L412.25,342.30 Z M414.75,339.09 L414.93,339.26 L415.34,338.86 L415.07,339.48 L414.75,339.09 Z M413.52,337.62 L413.80,338.92 L413.93,338.97 L413.61,338.97 L413.52,337.62 Z M415.57,337.74 L415.66,337.85 L415.43,337.85 L415.57,337.74 Z M413.48,336.83 L413.70,336.83 L413.52,337.62 L413.48,336.83 Z M415.02,336.72 L415.39,336.72 L415.48,334.75 L415.79,334.53 L415.43,336.83 L415.02,336.72 Z M416.79,334.02 L417.38,334.58 L415.84,334.53 L416.98,333.79 L416.79,334.02 Z M415.57,333.34 L415.75,333.46 L415.98,333.68 L416.02,333.74 L415.57,333.34 Z M415.16,332.95 L415.39,332.61 L415.29,332.95 L415.43,333.23 L415.16,332.95 Z M418.34,332.05 L417.66,332.78 L417.88,332.27 L418.34,332.05 Z M421.20,322.92 L421.06,323.04 L421.02,322.70 L421.20,322.92 Z M416.48,307.16 L416.52,307.16 L416.48,307.27 L416.48,307.16 Z M416.07,305.97 L416.02,306.31 L416.11,306.59 L415.98,306.31 L416.07,305.97 Z M447.37,766.89 L444.96,767.06 L444.14,765.77 L444.60,765.04 L448.64,764.42 L450.19,763.01 L449.46,764.58 L448.19,764.87 L447.82,766.33 L448.41,767.23 L447.64,767.57 L447.50,768.81 L447.37,766.89 Z M430.47,760.87 L430.88,760.36 L431.29,760.64 L431.47,763.57 L430.47,760.87 Z M446.01,758.95 L446.91,757.88 L446.55,758.78 L446.01,758.95 Z M442.10,760.64 L442.10,754.79 L443.51,754.56 L443.87,756.70 L442.10,760.64 Z M442.73,751.63 L442.87,751.01 L443.14,751.07 L442.73,751.63 Z M441.96,750.51 L441.96,750.84 L441.51,750.96 L441.28,750.62 L441.96,750.51 Z M442.78,750.17 L443.14,749.94 L443.10,750.28 L442.78,750.17 Z M446.91,746.62 L446.55,743.69 L447.55,743.30 L448.50,744.71 L449.78,744.20 L450.00,745.04 L448.23,746.23 L447.46,748.09 L448.23,750.23 L445.64,751.24 L444.55,752.82 L446.91,746.62 Z M440.19,741.95 L441.05,741.44 L440.74,742.68 L440.33,742.90 L440.19,741.95 Z M448.55,739.81 L448.50,740.71 L447.69,741.22 L448.00,739.98 L448.55,739.81 Z M448.69,739.08 L448.64,738.06 L449.19,737.89 L449.00,739.02 L448.69,739.08 Z M441.83,737.55 L441.69,736.60 L443.87,734.51 L445.10,735.13 L444.10,736.32 L443.83,738.46 L441.14,740.71 L441.05,738.62 L441.83,737.55 Z M441.69,725.17 L441.33,728.49 L441.83,729.28 L440.01,731.75 L439.15,728.15 L439.24,724.55 L440.15,724.43 L440.15,725.73 L441.69,725.17 Z M431.74,723.31 L431.74,724.27 L430.92,724.72 L430.74,723.53 L431.74,723.31 Z M437.06,722.24 L437.24,722.01 L437.42,722.24 L437.06,722.24 Z M491.80,576.95 L491.25,576.39 L491.66,575.77 L492.12,576.11 L491.80,576.95 Z M478.62,549.13 L477.90,550.26 L477.90,549.81 L478.62,549.13 Z M480.26,528.75 L480.08,528.75 L480.40,528.41 L480.26,528.75 Z M478.85,520.41 L478.26,520.41 L478.85,519.79 L478.85,520.41 Z M494.12,514.16 L493.62,513.77 L494.16,512.64 L495.93,511.68 L495.71,512.92 L494.12,514.16 Z M496.48,511.07 L497.61,510.33 L497.57,511.01 L496.48,511.07 Z M498.25,507.74 L497.61,506.17 L498.52,504.65 L497.66,502.28 L498.57,501.44 L498.84,502.06 L499.89,502.62 L498.25,507.74 Z M492.57,497.72 L494.62,501.10 L492.71,501.27 L491.57,503.24 L490.62,503.80 L491.80,498.11 L492.57,497.72 Z M492.62,493.72 L492.98,494.17 L492.16,494.12 L492.62,493.72 Z M491.39,493.72 L491.48,493.50 L491.57,493.55 L491.39,493.72 Z M491.75,492.43 L491.44,492.82 L491.21,491.30 L491.75,492.43 Z M493.80,490.74 L493.75,491.98 L493.39,491.19 L493.80,490.74 Z M490.98,489.33 L491.53,489.67 L491.21,491.30 L489.48,489.67 L490.53,488.15 L490.98,489.33 Z M489.80,483.70 L490.80,484.49 L490.57,485.39 L489.44,484.82 L489.80,483.70 Z M491.07,483.92 L490.89,482.85 L491.75,481.56 L491.39,483.64 L491.07,483.92 Z M490.12,480.32 L490.48,481.05 L488.98,483.36 L489.21,481.11 L490.12,480.32 Z M501.43,480.04 L501.75,481.67 L502.79,483.19 L501.11,483.02 L501.43,480.04 Z M495.62,476.10 L495.89,475.81 L495.98,476.32 L495.62,476.10 Z M495.21,475.64 L494.80,476.15 L494.12,475.42 L494.43,474.91 L495.21,475.64 Z M501.57,477.78 L500.52,476.04 L502.25,472.72 L503.29,472.21 L503.48,470.75 L504.11,471.42 L503.75,473.05 L501.57,477.78 Z M495.80,469.96 L496.21,469.56 L496.25,469.84 L495.80,469.96 Z M502.11,467.42 L501.98,467.20 L502.16,467.09 L502.11,467.42 Z M493.53,461.96 L493.66,462.19 L493.25,462.30 L493.16,462.02 L493.53,461.96 Z M546.45,666.43 L548.63,665.14 L550.95,661.93 L554.81,660.80 L558.40,663.22 L563.53,663.17 L564.26,664.07 L564.44,666.49 L563.03,671.39 L560.90,675.10 L554.58,677.41 L550.81,673.98 L545.36,675.95 L543.14,674.54 L541.55,675.72 L540.59,675.16 L541.77,672.57 L543.91,672.68 L546.45,666.43 Z M650.85,576.73 L649.26,579.15 L647.26,587.82 L644.90,590.07 L642.77,588.21 L640.99,584.16 L641.54,579.15 L643.67,577.06 L645.67,577.01 L646.35,575.21 L649.72,575.26 L651.85,573.52 L653.85,573.52 L654.90,575.37 L650.85,576.73 Z M481.90,348.10 L479.44,349.73 L476.26,348.89 L473.99,353.11 L471.04,352.88 L470.49,354.46 L466.45,355.64 L465.95,354.23 L467.77,350.41 L467.68,347.14 L466.63,344.72 L467.63,344.38 L467.59,341.73 L470.63,337.90 L470.81,335.76 L468.31,327.94 L464.63,322.70 L482.80,318.42 L484.99,321.46 L487.48,324.50 L486.98,325.80 L489.66,330.86 L491.21,333.00 L492.34,332.05 L499.66,314.25 L501.29,312.11 L504.97,309.30 L512.02,308.17 L515.15,304.45 L517.19,300.34 L518.56,293.81 L519.24,283.62 L524.28,279.85 L528.10,278.38 L530.16,276.42 L531.64,272.69 L531.96,263.63 L537.18,260.87 L540.41,260.98 L545.41,264.02 L554.95,262.67 L558.76,263.01 L558.81,257.32 L565.12,257.49 L580.71,258.62 L598.65,265.71 L607.69,269.48 L618.87,269.03 L640.99,267.96 L651.62,267.46 L659.94,266.89 L673.29,251.35 L677.52,242.51 L683.38,230.07 L690.29,215.59 L694.92,208.72 L699.01,202.92 L709.19,194.36 L716.45,188.79 L730.08,178.99 L755.13,161.33 L755.12,161.31 L764.07,154.94 L761.48,135.91 L759.75,132.59 L753.53,123.41 L748.62,120.99 L747.30,111.36 L749.07,112.09 L745.26,109.56 L746.03,99.70 L741.90,88.72 L734.99,69.18 L732.76,58.42 L738.17,55.95 L735.94,56.45 L736.17,55.89 L739.85,53.24 L738.40,47.78 L739.81,46.04 L743.62,44.85 L743.62,41.81 L742.58,39.17 L744.94,36.01 L749.85,32.30 L751.66,31.96 L755.34,33.65 L755.39,32.13 L755.84,23.40 L757.34,21.99 L762.88,22.22 L770.74,19.23 L772.38,20.02 L772.97,26.16 L771.61,31.11 L766.65,38.38 L765.26,41.22 L765.84,40.80 L766.43,42.60 L767.88,43.33 L779.51,42.04 L778.15,42.09 L788.33,40.85 L791.87,41.81 L801.82,47.44 L805.45,47.50 L803.64,55.89 L804.04,68.39 L805.86,79.43 L807.63,83.93 L808.54,85.00 L809.95,84.95 L814.58,82.58 L819.17,95.48 L822.03,101.11 L824.76,105.67 L827.17,107.75 L831.30,108.32 L835.07,109.11 L838.12,110.51 L838.39,115.02 L836.80,119.35 L836.89,122.28 L837.80,126.06 L841.16,129.27 L845.61,131.01 L852.52,131.12 L856.65,132.53 L857.43,133.66 L857.56,136.59 L855.70,140.30 L845.89,147.79 L844.57,150.72 L845.93,153.82 L853.29,157.42 L857.02,157.53 L861.56,156.24 L868.87,153.87 L872.55,153.65 L876.96,156.01 L878.73,159.62 L876.64,170.94 L872.96,181.75 L873.78,195.26 L874.46,199.99 L879.19,215.93 L886.77,236.09 L888.00,238.17 L889.91,239.19 L894.95,239.19 L898.27,240.60 L905.08,248.87 L907.99,250.96 L909.67,251.41 L921.94,249.66 L936.88,259.40 L938.52,259.29 L941.29,255.57 L947.20,253.55 L951.06,253.89 L952.56,252.93 L961.10,258.11 L962.96,260.02 L966.64,263.57 L969.41,267.40 L972.77,274.83 L978.59,291.45 L980.00,297.13 L980.77,309.02 L979.63,313.41 L980.18,319.55 L976.91,319.26 L971.46,316.39 L969.91,319.15 L968.64,319.10 L969.05,321.52 L967.69,324.16 L970.32,325.12 L970.27,326.42 L967.14,328.44 L964.55,328.27 L963.19,330.19 L961.01,331.09 L960.05,335.48 L957.37,335.65 L959.73,348.60 L959.24,350.12 L955.92,352.88 L956.10,356.32 L953.01,357.16 L950.38,360.43 L947.06,361.10 L945.47,363.81 L943.29,365.38 L942.29,367.92 L942.70,370.40 L940.97,372.54 L938.38,369.72 L944.47,377.77 L940.79,378.56 L939.56,382.79 L936.16,386.05 L924.48,387.52 L922.85,389.37 L920.80,388.53 L913.26,390.33 L912.81,389.04 L911.53,386.00 L919.98,409.08 L899.86,418.60 L889.54,422.43 L872.14,428.96 L862.70,409.82 L861.15,406.72 L858.65,409.53 L856.29,404.97 L850.02,413.36 L842.39,399.40 L850.66,414.60 L840.75,426.43 L837.98,422.49 L834.44,426.65 L824.49,443.38 L821.94,447.77 L839.53,465.28 L844.70,470.41 L854.88,482.91 L857.20,480.09 L858.70,482.57 L860.47,485.05 L863.47,481.44 L873.55,495.35 L879.82,504.31 L881.50,514.50 L885.00,519.62 L900.81,537.53 L902.54,538.77 L936.88,578.42 L926.84,596.72 L937.02,578.58 L964.55,609.95 L957.96,627.75 L954.15,638.05 L955.28,638.50 L956.15,640.30 L935.93,655.23 L931.93,656.52 L929.07,659.34 L927.16,660.24 L915.17,664.46 L915.94,669.59 L916.53,675.78 L918.08,677.69 L917.17,677.41 L916.44,679.05 L915.35,678.76 L915.26,680.12 L914.08,679.55 L912.76,680.96 L913.76,681.92 L913.44,682.93 L912.53,683.27 L911.35,681.86 L911.08,685.75 L906.49,679.78 L909.17,683.27 L908.94,684.51 L909.90,686.37 L907.90,685.07 L907.54,686.14 L908.76,688.28 L907.76,688.51 L906.31,686.25 L905.40,688.90 L905.58,689.52 L907.26,688.96 L907.63,690.03 L903.90,690.14 L903.31,691.04 L904.31,693.35 L904.26,696.22 L906.99,695.55 L908.08,698.81 L905.49,702.98 L902.95,701.29 L898.22,704.67 L897.72,708.50 L896.72,709.91 L888.68,712.44 L882.64,721.73 L876.73,725.28 L873.33,727.81 L868.42,729.05 L868.46,730.91 L871.19,733.50 L871.55,735.42 L872.92,736.60 L873.05,742.68 L874.01,743.58 L879.82,743.30 L880.69,746.96 L881.64,747.63 L888.91,745.38 L889.27,747.02 L886.87,750.49 L887.05,752.14 L888.14,752.98 L890.54,751.63 L895.09,753.55 L898.36,752.25 L902.95,756.70 L904.17,756.81 L901.67,760.08 L901.90,761.04 L904.22,760.87 L904.31,761.60 L900.95,768.36 L900.86,773.82 L896.68,771.68 L895.86,773.88 L892.59,775.28 L891.82,777.59 L890.86,777.48 L889.82,780.30 L890.27,786.77 L889.23,788.41 L887.86,788.29 L888.36,791.90 L887.86,792.80 L886.59,792.91 L884.87,790.60 L881.78,790.09 L876.05,790.04 L877.46,786.55 L874.69,783.28 L874.73,779.23 L873.60,779.51 L872.74,783.22 L870.19,783.84 L868.74,786.60 L866.42,783.90 L859.56,781.82 L858.29,778.55 L857.02,774.61 L857.20,770.10 L854.25,769.20 L853.29,765.15 L852.06,765.54 L851.06,769.54 L849.47,771.85 L850.66,778.27 L850.20,783.28 L849.61,784.80 L849.52,786.32 L851.56,789.19 L853.38,794.88 L861.42,801.81 L861.42,802.99 L859.33,806.48 L858.92,809.64 L859.15,810.82 L860.11,811.16 L863.24,808.73 L866.33,809.07 L866.74,810.31 L865.92,816.96 L867.78,820.33 L867.60,824.39 L869.19,827.20 L867.97,828.44 L865.33,827.77 L864.74,828.39 L865.01,830.75 L866.33,832.95 L865.06,835.09 L862.88,836.67 L863.38,839.65 L862.74,841.11 L860.15,838.41 L858.15,840.49 L856.15,838.64 L855.15,839.65 L854.79,845.73 L852.93,848.15 L852.97,851.42 L853.79,852.55 L852.38,855.53 L844.61,845.62 L852.47,855.87 L851.66,867.13 L853.29,879.91 L850.47,879.07 L845.75,880.31 L838.53,899.23 L805.54,873.55 L802.18,870.96 L781.65,855.08 L782.69,846.86 L781.51,854.97 L744.89,827.60 L734.08,819.60 L720.82,809.58 L718.32,818.25 L716.09,820.56 L707.50,816.45 L702.64,811.04 L694.78,824.05 L681.27,808.25 L665.44,845.84 L654.40,833.85 L649.35,825.97 L646.22,824.90 L644.67,825.29 L646.54,803.50 L650.90,805.19 L646.31,802.76 L648.31,777.76 L651.12,748.20 L651.49,740.48 L654.67,721.34 L661.76,694.08 L663.30,691.15 L667.57,659.90 L671.25,648.30 L675.61,643.68 L677.34,643.40 L681.88,644.81 L684.52,645.43 L692.19,644.75 L695.87,642.89 L697.37,642.27 L698.96,642.78 L700.28,641.77 L707.14,634.00 L710.00,629.49 L724.54,610.29 L738.99,595.70 L744.67,591.93 L750.66,589.73 L754.16,590.07 L756.21,591.42 L759.66,602.24 L761.75,602.24 L763.70,602.35 L764.34,600.66 L766.38,600.04 L767.11,596.83 L767.84,589.40 L766.16,587.71 L759.89,570.93 L758.25,566.48 L756.89,565.80 L756.93,562.87 L755.21,558.48 L754.03,556.28 L755.42,555.05 L754.12,555.55 L753.98,554.20 L752.75,553.41 L748.35,548.68 L743.03,540.07 L741.44,539.05 L723.90,516.36 L715.95,505.88 L714.55,505.32 L713.82,506.34 L707.50,505.38 L702.92,505.66 L689.10,508.76 L675.25,512.36 L671.11,512.42 L668.12,511.23 L664.75,508.70 L659.98,502.79 L657.35,498.73 L652.71,487.47 L638.63,461.79 L629.27,449.12 L616.51,438.76 L603.51,433.30 L598.02,432.68 L592.25,435.61 L585.80,441.01 L582.39,443.15 L573.67,453.29 L569.71,459.37 L567.85,464.78 L564.53,467.59 L558.90,478.12 L558.58,480.38 L559.90,481.61 L558.08,483.64 L555.81,484.15 L554.72,481.44 L553.09,480.26 L550.95,479.64 L550.59,481.11 L549.95,479.70 L543.95,477.56 L541.18,480.71 L539.27,479.64 L538.09,480.26 L537.18,478.12 L538.37,478.12 L538.50,476.32 L539.59,475.98 L542.36,471.08 L542.05,469.06 L539.82,464.89 L537.73,465.28 L538.32,462.92 L536.28,458.13 L535.78,457.51 L534.23,458.53 L532.96,456.10 L533.19,455.03 L534.28,455.65 L535.96,454.75 L536.19,452.05 L535.32,450.25 L533.87,450.75 L532.96,445.01 L531.19,446.19 L531.14,443.60 L532.10,441.91 L530.60,442.14 L535.50,440.51 L534.14,440.79 L533.01,430.99 L530.96,425.75 L531.60,423.56 L530.05,422.04 L530.37,420.40 L529.19,417.14 L522.42,404.41 L517.79,399.17 L515.38,397.60 L511.83,396.81 L511.11,398.78 L509.74,399.40 L508.06,404.69 L506.25,404.80 L506.02,403.68 L507.75,399.45 L507.29,396.30 L504.79,391.34 L505.02,389.43 L506.38,388.53 L506.97,386.90 L504.93,381.43 L505.02,379.86 L501.98,373.49 L490.30,356.60 L487.07,353.11 L484.80,349.28 L484.08,348.38 L482.94,348.83 L481.90,348.10 Z M792.78,69.12 L793.25,70.49 L791.87,41.81 L792.78,69.12 Z M842.39,395.34 L842.30,399.86 L842.39,399.40 L842.39,395.34 Z M840.21,505.38 L836.99,509.42 L837.98,508.19 L858.70,482.57 L840.21,505.38 Z M926.62,596.97 L931.39,608.94 L926.84,596.72 L926.62,596.97 Z M856.43,763.91 L857.79,762.51 L857.65,762.56 L853.29,765.15 L856.43,763.91 Z M796.78,821.97 L811.09,796.40 L782.69,846.86 L796.78,821.97 Z M630.64,308.23 L637.22,322.31 L642.04,332.33 L630.64,308.23 Z M622.05,353.84 L602.01,395.62 L637.22,322.31 L622.05,353.84 Z M641.22,333.74 L644.13,328.95 L642.04,332.33 L641.22,333.74 Z M776.47,418.21 L762.70,408.46 L731.81,386.28 L727.22,383.01 L737.99,390.73 L760.70,407.17 L776.47,418.21 Z M739.99,372.87 L740.82,370.93 L731.81,386.28 L739.99,372.87 Z M699.69,457.06 L700.92,454.98 L737.99,390.73 L699.69,457.06 Z M507.66,383.24 L509.47,383.57 L506.89,382.36 L507.66,383.24 Z M486.85,347.48 L486.12,348.15 L490.03,344.72 L486.85,347.48 Z M499.66,348.27 L498.30,350.29 L498.39,351.31 L499.66,348.27 Z M739.44,438.93 L732.58,450.36 L752.25,418.15 L739.44,438.93 Z M739.40,456.10 L748.94,463.71 L732.58,450.36 L739.40,456.10 Z M725.09,476.04 L722.77,482.29 L723.86,479.76 L725.09,476.04 Z M666.57,451.04 L671.57,444.45 L657.89,462.47 L666.57,451.04 Z M672.07,455.60 L682.38,463.88 L666.57,451.04 L672.07,455.60 Z M540.59,392.25 L545.41,398.44 L548.04,401.37 L540.59,392.25 Z M551.83,422.13 L548.91,425.75 L551.68,422.37 L551.83,422.13 Z M666.03,429.36 L666.53,423.39 L664.66,437.35 L666.03,429.36 Z M579.53,335.43 L561.58,324.73 L545.23,314.98 L560.99,324.39 L583.16,337.62 L579.53,335.43 Z M528.01,362.74 L525.96,364.77 L528.83,362.74 L528.01,362.74 Z M740.98,630.34 L742.49,631.46 L741.30,630.00 L740.98,630.34 Z M763.52,613.55 L765.25,620.88 L763.39,612.71 L763.52,613.55 Z M762.87,609.41 L766.16,607.98 L762.87,609.41 L762.87,609.41 Z M785.69,611.87 L787.57,615.89 L784.96,608.66 L785.69,611.87 Z M800.05,609.89 L807.81,606.29 L813.36,603.70 L800.05,609.89 Z M813.04,646.67 L809.87,651.50 L810.27,651.40 L813.04,646.67 Z M816.04,718.52 L800.73,704.84 L791.01,697.46 L797.96,702.81 L808.81,712.33 L816.04,718.52 Z M808.14,763.00 L808.36,759.12 L806.32,768.70 L808.14,763.00 Z M734.04,653.25 L733.72,652.69 L732.67,651.71 L734.04,653.25 Z M741.44,667.90 L738.94,661.53 L737.49,659.08 L741.44,667.90 Z M752.74,655.78 L752.62,655.39 L738.94,661.53 L752.74,655.78 Z M738.07,756.57 L738.09,756.34 L738.08,756.42 L738.07,756.57 Z M679.75,759.40 L682.88,764.30 L683.35,764.31 L679.75,759.40 Z M687.15,778.94 L688.56,783.28 L682.88,764.30 L687.15,778.94 Z M678.61,808.79 L679.52,808.62 L669.80,809.02 L678.61,808.79 Z M680.25,807.04 L681.02,805.13 L679.52,808.62 L680.25,807.04 Z M682.11,708.50 L680.43,706.41 L673.52,701.01 L682.11,708.50 Z M688.04,744.22 L684.61,756.03 L688.04,744.22 L688.04,744.22 Z M740.71,680.23 L767.06,676.51 L755.52,677.92 L740.71,680.23 Z M751.58,725.31 L719.59,697.91 L749.94,723.93 L751.58,725.31 Z M781.68,753.03 L793.87,734.01 L781.68,753.03 L781.68,753.03 Z M794.69,645.03 L796.46,659.39 L795.64,651.85 L797.77,652.13 L795.91,651.79 L794.69,645.03 Z M808.77,651.79 L809.22,651.67 L807.22,648.81 L808.77,651.79 Z M754.07,657.59 L758.08,652.97 L753.53,658.10 L754.07,657.59 Z M790.30,625.29 L789.28,620.65 L787.97,617.02 L787.78,617.24 L790.30,625.29 Z M791.51,629.12 L791.51,627.75 L790.96,627.39 L791.51,629.12 Z M798.68,630.22 L797.96,625.89 L798.05,627.07 L798.68,630.22 Z M780.99,656.69 L785.74,668.80 L782.24,659.17 L780.99,656.69 Z M805.45,616.43 L806.83,607.79 L806.41,608.43 L805.45,616.43 Z M831.89,842.01 L828.40,846.21 L828.80,845.73 L831.89,842.01 Z M804.38,477.75 L806.36,474.41 L813.40,462.35 L804.38,477.75 Z M788.78,510.90 L813.81,531.79 L800.91,520.47 L788.78,510.90 Z M819.54,553.92 L821.22,540.91 L821.31,536.63 L819.54,553.92 Z M820.44,576.61 L826.85,574.81 L822.03,576.16 L820.44,576.61 Z M796.55,560.90 L779.68,582.14 L779.68,582.14 L803.86,551.72 L817.72,533.65 L796.55,560.90 Z M754.21,534.89 L753.25,533.53 L759.75,543.78 L754.21,534.89 Z M754.16,525.54 L758.32,527.39 L758.43,527.06 L754.16,525.54 Z M785.93,530.19 L785.93,530.19 L794.28,557.86 L785.93,530.19 Z M810.00,561.52 L816.49,569.46 L816.49,569.46 L810.00,561.52 Z M773.76,585.46 L773.20,585.62 L771.20,588.44 L773.76,585.46 Z M781.74,580.50 L779.72,582.13 L781.10,581.63 L781.74,580.50 Z M787.60,589.85 L785.03,589.71 L785.28,590.07 L787.60,589.85 Z M780.24,575.57 L779.56,575.54 L778.29,577.12 L780.24,575.57 Z M767.34,545.81 L761.38,550.99 L759.10,553.04 L760.20,552.57 L767.34,545.81 Z M766.02,565.07 L760.25,557.86 L761.43,559.61 L766.44,566.14 L766.02,565.07 Z M767.65,558.42 L769.08,555.97 L768.88,556.06 L767.65,558.42 Z M775.10,479.25 L768.20,498.79 L781.60,461.51 L785.37,451.09 L775.10,479.25 Z M763.93,496.59 L777.10,504.03 L768.20,498.79 L763.93,496.59 Z M736.53,506.67 L742.53,501.04 L739.99,503.41 L736.53,506.67 Z M835.89,827.15 L831.08,821.63 L829.89,820.33 L835.89,827.15 Z M844.75,834.58 L844.66,826.75 L844.66,826.75 L844.75,834.58 Z M845.78,785.64 L845.27,785.07 L845.30,785.31 L845.78,785.64 Z M912.67,613.05 L908.22,618.32 L908.40,618.12 L912.67,613.05 Z M817.04,677.02 L824.90,676.17 L821.63,676.23 L817.04,677.02 Z M853.85,673.63 L858.47,674.15 L854.79,673.47 L853.85,673.63 Z M878.61,651.03 L885.11,654.67 L880.19,651.57 L878.61,651.03 Z M891.73,658.83 L891.68,659.00 L906.31,668.01 L891.73,658.83 Z M853.20,709.17 L860.51,704.16 L856.79,706.70 L853.20,709.17 Z M867.01,719.31 L866.28,703.71 L866.38,706.47 L867.01,719.31 Z M852.29,726.29 L850.52,724.45 L857.56,734.35 L852.29,726.29 Z M873.92,701.74 L874.14,704.22 L874.57,698.06 L873.92,701.74 Z M875.44,693.16 L874.85,696.46 L875.60,694.53 L875.44,693.16 Z M873.28,670.66 L875.05,692.17 L875.33,692.23 L874.51,684.96 L873.28,670.66 Z M845.94,641.66 L845.93,641.65 L837.94,638.16 L845.94,641.66 Z M862.38,626.39 L864.47,621.66 L861.79,627.13 L862.38,626.39 Z M883.41,639.63 L883.60,640.16 L883.64,639.43 L883.41,639.63 Z M884.05,641.49 L886.77,641.65 L883.86,640.94 L884.05,641.49 Z M921.85,645.31 L923.03,645.26 L920.76,644.70 L921.85,645.31 Z M924.80,642.89 L925.53,641.88 L923.03,645.26 L924.80,642.89 Z M874.96,635.29 L862.38,652.69 L873.87,636.81 L874.96,635.29 Z M850.02,646.67 L846.57,642.43 L846.57,643.06 L850.02,646.67 Z M905.69,621.16 L900.35,626.58 L902.86,624.37 L905.69,621.16 Z M929.80,626.73 L930.05,628.19 L930.25,627.69 L929.80,626.73 Z M867.33,563.04 L870.87,565.41 L864.60,560.79 L867.33,563.04 Z M877.41,577.46 L882.68,580.95 L881.41,580.10 L877.41,577.46 Z M855.43,590.52 L854.47,587.71 L852.11,583.48 L855.43,590.52 Z M901.22,592.27 L887.05,592.89 L883.32,593.34 L901.22,592.27 Z M872.24,533.37 L855.29,518.11 L855.29,518.11 L872.24,533.37 Z M782.46,416.70 L781.65,418.60 L781.01,423.16 L782.46,416.70 Z M813.58,117.95 L813.54,118.74 L813.27,127.63 L813.58,117.95 Z M804.82,169.53 L802.51,168.51 L811.27,173.87 L804.82,169.53 Z M816.36,202.30 L815.67,206.02 L816.63,201.12 L817.54,191.27 L816.36,202.30 Z M825.93,229.68 L826.26,230.18 L828.74,233.19 L825.93,229.68 Z M810.63,254.17 L794.64,277.76 L808.04,258.22 L817.22,243.86 L810.63,254.17 Z M771.61,253.83 L770.93,253.15 L794.64,277.76 L771.61,253.83 Z M830.30,290.66 L839.03,286.94 L841.82,285.65 L804.77,301.75 L830.30,290.66 Z M842.43,329.23 L816.99,333.23 L792.46,337.12 L807.81,334.69 L839.66,329.68 L842.43,329.23 Z M839.93,353.22 L808.86,352.04 L776.60,350.63 L804.18,351.93 L845.43,354.07 L839.93,353.22 Z M794.82,399.62 L812.36,400.81 L821.26,400.52 L842.24,400.19 L842.24,400.19 L831.12,400.24 L804.09,400.24 L794.82,399.62 Z M815.36,418.04 L810.09,433.30 L812.59,426.20 L815.36,418.04 Z M798.32,236.48 L797.42,237.82 L815.95,210.86 L798.32,236.48 Z M771.74,314.87 L772.79,314.98 L802.09,302.20 L771.74,314.87 Z M771.15,315.77 L770.74,317.01 L771.74,314.87 L771.15,315.77 Z M767.29,185.47 L760.93,173.02 L757.57,166.49 L767.29,185.47 Z M753.34,236.43 L754.57,242.00 L749.12,216.94 L753.34,236.43 Z M774.83,365.75 L773.97,349.28 L772.74,336.61 L773.88,353.39 L774.83,365.75 Z M775.51,374.73 L785.42,379.41 L775.51,374.73 L775.51,374.73 Z M736.17,195.83 L744.89,209.74 L730.54,186.76 L736.17,195.83 Z M720.00,274.78 L708.32,272.36 L728.31,277.48 L720.00,274.78 Z M721.45,260.59 L722.09,261.21 L721.34,259.45 L721.45,260.59 Z M749.48,267.85 L737.90,266.67 L734.31,267.02 L749.48,267.85 Z M666.62,309.58 L678.47,327.54 L665.71,308.11 L666.62,309.58 Z M667.54,303.66 L669.98,301.24 L667.54,303.66 L667.54,303.66 Z M678.88,299.44 L685.56,293.53 L685.58,293.42 L678.88,299.44 Z M685.70,292.73 L685.83,291.90 L685.37,291.63 L685.70,292.73 Z M688.29,291.33 L694.69,293.59 L695.72,293.59 L688.29,291.33 Z M727.85,321.10 L728.67,321.63 L729.42,321.40 L727.85,321.10 Z M731.61,320.74 L733.13,320.28 L744.26,314.65 L731.61,320.74 Z M740.08,343.14 L738.90,350.80 L744.53,314.48 L724.00,299.39 L744.26,314.65 L740.08,343.14 Z M741.64,369.03 L742.26,367.58 L741.89,367.32 L741.64,369.03 Z M717.27,330.62 L717.27,331.09 L717.37,331.16 L717.27,330.62 Z M717.59,331.33 L718.18,331.77 L732.13,327.99 L717.59,331.33 Z M711.87,304.40 L706.84,303.44 L706.91,303.61 L711.87,304.40 Z M662.66,291.39 L654.62,291.73 L638.00,292.46 L662.66,291.39 Z M665.71,282.72 L666.30,281.31 L665.53,282.82 L665.71,282.72 Z M668.80,275.28 L673.41,269.40 L666.89,277.20 L665.80,279.00 L668.80,275.28 Z M677.88,271.29 L676.83,265.31 L676.83,265.31 L677.88,271.29 Z M692.10,236.48 L695.74,237.44 L691.62,236.08 L692.10,236.48 Z M711.23,231.81 L711.68,231.50 L709.09,231.87 L708.17,232.60 L711.23,231.81 Z M715.33,228.98 L714.50,229.28 L712.58,230.87 L715.33,228.98 Z M717.23,228.88 L717.61,228.15 L715.73,228.83 L717.23,228.88 Z M701.05,242.90 L702.78,248.20 L702.78,246.85 L701.05,242.90 Z M721.91,251.30 L721.76,249.18 L721.67,254.29 L721.91,251.30 Z M721.29,259.01 L721.50,256.34 L721.09,256.98 L721.29,259.01 Z M725.84,199.80 L725.81,199.49 L723.54,201.12 L725.84,199.80 Z M757.93,39.17 L761.57,37.59 L763.25,36.18 L757.93,39.17 Z M758.84,45.70 L758.52,46.14 L760.65,44.59 L758.84,45.70 Z M756.71,48.63 L756.30,50.71 L757.30,47.81 L756.71,48.63 Z M757.07,58.59 L757.30,59.22 L756.30,50.71 L757.07,58.59 Z M764.84,76.84 L764.88,75.71 L763.68,73.28 L764.84,76.84 Z M789.05,70.53 L789.05,70.53 L764.75,79.65 L762.93,80.95 L789.05,70.53 Z M756.93,79.65 L756.50,79.92 L762.93,80.95 L756.93,79.65 Z M755.57,80.50 L756.07,88.66 L755.90,80.30 L755.57,80.50 Z M759.52,96.66 L763.88,103.98 L759.24,96.01 L759.52,96.66 Z M757.48,122.85 L763.88,130.00 L762.29,127.46 L757.48,122.85 Z M746.10,67.33 L745.12,62.65 L745.17,64.39 L746.10,67.33 Z M756.98,109.78 L757.57,105.33 L757.56,105.24 L756.98,109.78 Z M789.14,415.78 L784.15,412.74 L791.32,417.19 L789.14,415.78 Z M803.09,377.06 L802.14,387.85 L803.45,377.10 L803.09,377.06 Z M798.59,166.77 L790.05,165.70 L799.47,167.16 L798.59,166.77 Z M785.10,164.12 L778.84,162.15 L780.47,162.88 L790.05,165.70 L785.10,164.12 Z M768.56,199.70 L756.43,214.86 L767.11,201.51 L768.56,199.70 Z M780.01,126.62 L781.25,133.06 L780.92,129.32 L780.01,126.62 Z M792.14,120.88 L792.14,120.88 L791.32,105.22 L790.55,94.30 L792.14,120.88 Z M802.86,87.03 L794.46,91.99 L790.55,94.30 L802.86,87.03 Z M796.59,131.01 L796.98,129.92 L796.82,129.72 L796.59,131.01 Z M797.38,130.41 L798.23,132.81 L798.02,130.78 L797.82,130.96 L797.38,130.41 Z M799.97,129.02 L801.73,128.03 L805.41,124.14 L799.97,129.02 Z M774.65,160.24 L775.51,160.63 L771.52,155.68 L774.65,160.24 Z M781.56,136.54 L780.60,141.88 L776.10,160.90 L776.10,160.90 L781.65,137.49 L781.56,136.54 Z M799.51,154.16 L797.46,154.16 L794.81,155.44 L799.49,154.17 L799.51,154.16 Z M789.28,142.44 L788.67,146.42 L789.46,143.91 L789.28,142.44 Z M873.10,218.16 L874.14,224.66 L873.10,218.16 L873.10,218.16 Z M869.19,231.47 L871.83,230.40 L873.55,229.33 L869.19,231.47 Z M860.83,249.44 L867.97,256.08 L863.97,252.20 L860.83,249.44 Z M874.01,290.65 L874.01,290.65 L876.78,284.58 L874.01,290.65 Z M883.43,362.91 L883.96,364.37 L883.43,362.91 L883.43,362.91 Z M829.50,234.12 L833.03,238.40 L840.16,245.61 L829.50,234.12 Z M857.24,327.37 L856.70,324.78 L855.24,317.97 L857.24,327.37 Z M882.55,363.30 L881.55,364.82 L883.29,362.98 L882.55,363.30 Z M855.55,279.29 L855.52,279.17 L858.74,277.31 L851.26,281.28 L855.55,279.29 Z M866.19,278.83 L865.01,276.13 L864.10,275.57 L866.19,278.83 Z M857.11,308.51 L857.11,304.90 L856.97,302.26 L857.11,308.51 Z M857.61,299.56 L857.84,300.10 L858.33,298.88 L857.61,299.56 Z M864.32,270.45 L864.24,269.82 L863.60,269.08 L864.32,270.45 Z M857.70,242.79 L855.29,242.40 L849.25,242.34 L857.70,242.79 Z M823.13,164.80 L824.59,167.72 L824.58,167.67 L823.13,164.80 Z M836.85,163.90 L835.89,165.98 L839.60,160.84 L836.85,163.90 Z M849.29,191.32 L843.48,196.50 L849.88,190.82 L856.20,185.02 L849.29,191.32 Z M829.53,196.62 L834.89,194.70 L824.99,198.08 L818.40,201.40 L829.53,196.62 Z M836.39,197.85 L834.30,193.24 L834.89,194.70 L836.39,197.85 Z M836.98,198.64 L837.36,199.44 L837.12,197.18 L836.98,198.64 Z M846.20,216.10 L847.24,217.50 L842.66,208.27 L846.20,216.10 Z M852.93,224.43 L853.43,225.11 L849.51,220.56 L852.79,225.00 L854.84,226.12 L852.93,224.43 Z M862.38,218.41 L855.38,201.68 L861.51,216.38 L862.38,218.41 Z M830.89,232.26 L829.36,233.94 L829.36,233.94 L830.89,232.26 Z M837.46,221.87 L837.98,222.74 L838.16,222.70 L837.46,221.87 Z M824.78,168.82 L824.40,169.36 L825.08,170.54 L824.78,168.82 Z M825.98,136.47 L825.98,136.47 L823.40,135.63 L825.98,136.47 Z M834.57,139.06 L835.71,137.37 L831.95,142.20 L834.57,139.06 Z M819.16,114.85 L818.03,115.41 L818.81,115.41 L819.16,114.85 Z M823.99,116.14 L823.24,115.09 L829.08,123.69 L823.99,116.14 Z M944.33,336.21 L941.34,336.21 L946.20,336.50 L944.33,336.21 Z M912.86,341.44 L913.90,341.11 L917.80,338.02 L912.86,341.44 Z M926.43,350.52 L929.11,355.81 L931.98,360.71 L926.43,350.52 Z M924.89,342.95 L925.12,345.22 L925.39,346.69 L926.43,350.52 L924.89,342.95 Z M921.65,342.66 L922.66,343.87 L925.12,345.22 L921.65,342.66 Z M927.39,357.28 L927.28,357.97 L929.11,355.81 L927.39,357.28 Z M934.25,364.26 L935.02,365.28 L931.98,360.71 L934.25,364.26 Z M900.81,395.12 L895.63,373.61 L892.77,362.12 L900.81,395.12 Z M903.76,370.62 L900.58,363.41 L901.86,366.40 L903.76,370.62 Z M878.60,392.25 L878.47,391.79 L877.82,394.33 L878.60,392.25 Z M913.89,365.21 L911.99,367.24 L913.89,365.21 L913.89,365.21 Z M918.62,345.11 L919.53,343.99 L916.53,346.86 L918.62,345.11 Z M919.30,351.02 L918.21,350.86 L917.35,350.74 L919.30,351.02 Z M922.92,348.45 L921.75,348.66 L920.98,349.79 L919.86,348.57 L920.30,349.79 L919.30,351.02 L922.92,348.45 Z M914.18,353.47 L914.58,353.45 L917.35,350.74 L914.18,353.47 Z M891.46,338.23 L892.72,337.17 L891.21,338.07 L891.46,338.23 Z M885.12,294.79 L885.12,294.79 L886.50,292.85 L885.12,294.79 Z M899.99,276.24 L912.03,289.74 L912.03,289.70 L899.99,276.24 Z M922.36,278.32 L928.21,288.91 L922.94,278.38 L922.36,278.32 Z M928.48,289.97 L928.98,287.11 L928.21,288.91 L928.48,289.97 Z M930.48,286.77 L935.02,282.72 L935.02,282.71 L930.48,286.77 Z M960.57,303.87 L960.57,303.87 L959.64,299.84 L960.57,303.87 Z M927.84,293.59 L928.36,290.66 L926.75,295.50 L927.84,293.59 Z M942.48,295.50 L942.06,294.94 L939.61,292.01 L942.48,295.50 Z M912.08,257.49 L907.49,256.59 L902.36,255.63 L912.08,257.49 Z M882.64,266.89 L889.64,273.31 L890.37,273.63 L882.54,266.57 L882.64,266.89 Z M895.50,275.85 L890.82,273.26 L893.82,269.32 L890.48,273.68 L895.50,275.85 Z M911.85,268.13 L917.76,270.68 L917.76,270.33 L911.85,268.13 Z M917.76,270.98 L915.35,273.14 L917.76,271.62 L917.76,270.98 Z M517.20,540.57 L519.88,544.74 L520.38,547.61 L519.74,551.22 L515.51,552.91 L512.97,546.77 L512.38,544.01 L514.02,540.69 L516.56,539.84 L517.01,538.38 L517.20,540.57 Z M509.25,495.86 L509.02,495.35 L509.43,495.19 L509.52,495.75 L509.25,495.86 Z M503.84,494.45 L504.11,494.06 L504.07,494.40 L503.84,494.45 Z M504.38,492.59 L504.20,492.54 L504.47,492.31 L504.38,492.59 Z M504.70,491.98 L504.84,491.41 L504.93,491.69 L504.70,491.98 Z M504.11,489.89 L504.38,491.30 L503.84,490.46 L504.11,489.89 Z M510.61,489.67 L511.47,489.05 L511.61,485.95 L512.43,485.22 L513.11,488.15 L511.79,492.03 L510.61,489.67 Z M516.29,486.12 L516.20,485.89 L516.60,485.61 L516.29,486.12 Z M517.42,485.72 L516.65,485.44 L517.01,485.05 L517.42,485.72 Z M553.68,485.33 L553.45,485.22 L553.59,484.71 L553.68,485.33 Z M555.31,484.99 L555.18,484.77 L555.49,484.54 L555.31,484.99 Z M554.77,484.77 L554.63,484.20 L555.13,484.49 L554.77,484.77 Z M512.65,484.60 L513.20,483.64 L513.47,484.71 L512.93,485.22 L512.65,484.60 Z M512.61,482.74 L511.93,482.51 L512.79,482.40 L512.61,482.74 Z M506.79,480.77 L507.20,482.46 L506.43,481.16 L506.79,480.77 Z M509.15,480.26 L509.61,481.16 L509.06,480.43 L509.15,480.26 Z M515.24,482.40 L514.11,482.23 L514.52,479.19 L515.51,478.74 L516.33,479.25 L515.97,480.88 L515.24,482.40 Z M507.43,479.81 L507.84,480.32 L507.38,480.26 L507.43,479.81 Z M506.25,478.46 L506.79,479.47 L506.16,479.31 L506.25,478.46 Z M514.74,475.70 L515.20,474.35 L517.42,477.17 L516.38,477.45 L514.74,475.70 Z M533.60,473.96 L534.32,474.41 L533.51,474.18 L532.82,475.48 L531.14,474.91 L531.60,474.01 L533.60,473.96 Z M526.19,474.80 L524.69,473.39 L527.46,472.55 L529.55,473.11 L528.92,474.91 L526.19,474.80 Z M505.97,471.08 L505.75,468.32 L506.43,469.90 L505.97,471.08 Z M528.01,465.51 L527.83,465.34 L528.14,464.89 L528.01,465.51 Z M527.51,464.38 L527.51,463.31 L528.05,462.81 L528.05,464.38 L527.51,464.38 Z M527.87,462.81 L527.78,462.58 L527.96,462.52 L527.87,462.81 Z M533.55,460.16 L534.64,459.48 L534.05,462.07 L533.46,461.57 L533.55,460.16 Z M525.01,460.44 L524.96,461.23 L524.51,460.61 L524.78,459.65 L525.01,460.44 Z M503.20,456.72 L504.57,454.53 L506.70,455.77 L507.34,457.17 L507.52,459.20 L506.52,461.68 L507.47,462.02 L508.15,464.44 L506.97,465.56 L505.84,464.95 L505.97,460.38 L503.20,456.72 Z M525.42,458.86 L525.33,459.20 L525.15,458.86 L525.42,458.86 Z M502.98,422.60 L502.66,424.18 L502.07,422.54 L502.43,421.98 L502.98,422.60 Z M504.52,407.11 L504.75,406.38 L505.29,407.00 L505.07,407.68 L504.52,407.11 Z" /></g></svg>