<svg xmlns="http://www.w3.org/2000/svg" viewBox="0 0 1000 1000" width="1000" height="1000"><g fill="#cccccc" stroke="#222" stroke-width="2"><path d="M915.19,740.04 L915.19,729.13 L916.71,725.75 L919.99,724.99 L923.78,732.27 L920.88,743.80 L905.21,759.98 L905.84,752.95 L915.19,740.04 Z M910.52,656.16 L912.92,658.29 L916.71,683.24 L914.56,695.66 L910.01,690.14 L912.29,684.75 L908.50,658.17 L910.52,656.16 Z M469.30,848.62 L472.33,835.83 L480.79,826.80 L497.60,815.52 L503.29,811.26 L511.88,801.48 L513.27,793.95 L507.71,779.66 L498.86,774.90 L489.39,773.52 L477.89,772.51 L472.71,772.89 L462.22,773.77 L436.44,770.01 L426.34,764.61 L417.49,753.20 L416.48,743.80 L424.06,731.26 L428.48,725.24 L433.29,715.09 L433.79,713.84 L435.56,708.19 L436.07,695.53 L431.14,688.51 L418.12,682.49 L404.73,680.74 L400.81,680.99 L390.07,679.98 L382.75,674.09 L376.55,660.80 L377.19,631.21 L374.53,617.17 L370.36,598.86 L368.09,591.34 L355.71,575.54 L327.66,567.64 L319.57,563.25 L315.40,555.73 L314.64,548.58 L314.39,536.17 L309.84,526.64 L299.98,516.61 L288.49,507.96 L281.03,506.83 L273.07,509.72 L261.95,516.24 L255.89,522.38 L247.93,525.89 L240.35,525.51 L228.72,521.63 L208.76,504.20 L196.63,489.66 L192.08,479.25 L192.46,466.84 L193.60,463.45 L198.15,449.91 L198.02,434.24 L186.65,414.68 L179.07,406.91 L156.83,399.76 L151.77,399.51 L134.08,400.31 L136.36,401.14 L124.86,405.78 L118.80,405.02 L115.13,402.02 L108.69,391.86 L103.13,375.06 L103.63,370.29 L107.80,366.78 L107.93,364.53 L113.36,361.02 L111.47,350.86 L110.33,341.08 L110.58,330.17 L112.60,317.26 L111.22,313.62 L105.91,307.23 L97.44,303.97 L72.05,299.96 L60.80,296.32 L56.13,292.68 L49.18,282.53 L45.51,273.13 L39.45,252.31 L39.07,245.42 L40.84,235.26 L48.80,224.48 L65.22,216.20 L70.40,208.68 L70.78,198.27 L69.52,193.01 L64.34,186.11 L56.25,180.97 L43.62,173.82 L36.79,170.44 L22.64,165.05 L19.23,161.04 L19.48,152.01 L24.41,147.24 L41.47,135.08 L45.39,129.57 L45.26,127.06 L40.58,122.42 L36.29,120.41 L44.00,107.12 L43.87,104.11 L43.49,106.75 L40.33,105.49 L38.18,100.98 L29.34,94.46 L42.35,62.99 L44.00,62.99 L44.75,59.48 L54.10,60.10 L55.75,58.73 L62.95,62.74 L65.60,61.48 L73.31,66.62 L73.56,68.76 L86.20,66.50 L86.45,68.88 L94.54,68.25 L95.42,70.89 L96.56,69.01 L96.31,70.89 L99.46,70.89 L101.36,73.90 L106.29,74.15 L106.47,74.72 L107.17,62.74 L102.88,58.47 L105.02,53.08 L103.51,51.45 L107.68,47.07 L106.29,47.69 L102.88,42.93 L106.41,40.17 L109.45,39.54 L112.23,42.55 L116.27,41.17 L116.90,43.55 L114.75,34.28 L122.97,29.01 L132.44,32.27 L138.51,30.39 L140.91,27.00 L147.23,30.51 L143.56,28.01 L144.32,26.50 L151.02,29.14 L152.66,27.88 L156.32,26.25 L158.34,30.01 L165.42,29.76 L166.81,25.37 L172.12,25.88 L174.26,31.52 L176.41,31.39 L178.43,35.15 L182.35,33.15 L187.15,36.91 L191.20,33.52 L198.40,30.14 L204.21,23.74 L205.47,26.00 L207.12,25.74 L205.47,24.75 L214.70,23.87 L213.05,21.61 L215.71,19.48 L218.87,21.61 L220.89,20.36 L220.00,22.74 L224.55,27.76 L236.05,27.26 L248.43,33.90 L249.06,32.14 L252.35,33.02 L255.38,30.39 L257.15,22.62 L259.43,21.36 L262.07,22.86 L264.61,19.23 L280.15,31.64 L289.12,28.63 L297.33,33.52 L296.70,49.07 L302.76,47.19 L312.11,48.70 L313.38,52.58 L315.27,51.70 L318.68,54.09 L318.31,55.72 L319.82,54.71 L325.38,60.48 L318.94,67.50 L321.84,78.16 L329.93,78.03 L334.98,80.54 L338.90,80.54 L340.54,78.16 L341.43,83.17 L344.97,82.42 L351.92,89.32 L350.15,93.83 L341.55,98.09 L341.43,101.10 L344.08,101.35 L343.58,111.64 L340.92,112.14 L338.77,118.03 L339.66,121.29 L343.32,124.68 L345.85,124.05 L347.49,131.95 L331.70,139.09 L332.96,140.60 L330.06,144.99 L323.74,148.25 L326.52,161.29 L332.58,163.67 L336.37,167.81 L336.63,174.95 L332.08,181.22 L332.20,184.48 L329.93,204.42 L323.49,215.20 L318.56,214.95 L310.72,218.71 L314.89,224.98 L307.44,219.59 L313.88,225.10 L313.76,232.25 L308.70,237.39 L309.97,242.66 L316.16,243.03 L325.38,251.43 L327.91,260.96 L325.38,266.10 L316.41,270.12 L327.15,279.14 L328.54,282.03 L330.06,281.40 L330.94,288.05 L340.54,299.58 L350.02,304.47 L354.32,300.46 L360.25,298.08 L368.34,308.11 L373.40,307.86 L374.28,310.36 L371.50,313.87 L380.60,325.28 L376.68,326.04 L384.01,325.53 L387.55,321.02 L395.00,322.02 L403.21,335.82 L408.39,339.20 L423.68,342.08 L427.85,358.13 L427.22,364.15 L418.88,364.78 L419.64,367.54 L428.11,373.68 L434.17,382.46 L435.18,389.85 L439.35,398.38 L446.68,400.89 L459.95,410.54 L465.25,420.70 L475.24,421.57 L477.13,419.69 L483.07,423.46 L490.50,423.11 L490.78,420.95 L471.70,416.81 L466.01,410.79 L469.42,405.28 L480.79,399.63 L486.35,399.01 L498.99,413.30 L511.12,412.80 L517.31,410.17 L514.15,404.27 L509.22,400.64 L508.34,396.75 L508.72,392.11 L511.37,389.85 L515.41,391.11 L523.25,396.50 L522.24,408.66 L531.46,416.94 L543.21,410.92 L550.16,408.03 L563.68,398.76 L570.13,391.86 L577.71,389.85 L582.26,391.48 L589.08,401.64 L602.09,403.39 L612.07,398.00 L620.16,392.49 L638.10,389.60 L634.19,389.60 L653.01,373.43 L656.17,372.80 L658.82,368.04 L666.03,368.66 L667.80,376.44 L678.28,383.33 L676.01,384.84 L676.89,387.97 L672.09,388.98 L674.24,396.25 L666.91,403.52 L657.18,417.44 L658.07,419.69 L664.76,420.82 L670.20,424.83 L675.76,428.85 L688.01,441.13 L690.03,439.63 L706.71,453.80 L713.91,466.96 L726.17,480.75 L725.03,491.91 L720.23,500.94 L720.61,505.08 L738.30,510.97 L743.99,519.50 L747.02,532.03 L758.64,531.41 L765.09,524.64 L768.50,519.87 L772.79,510.09 L778.35,509.72 L785.30,510.34 L795.03,511.97 L802.61,515.48 L805.65,519.12 L807.54,526.77 L818.91,527.27 L809.82,528.40 L823.71,527.52 L819.42,526.39 L833.44,519.25 L835.72,511.60 L835.09,504.58 L835.84,501.19 L844.56,495.17 L857.07,496.30 L861.87,499.81 L866.67,504.83 L872.86,503.70 L876.66,501.57 L883.48,498.43 L891.69,494.92 L901.42,483.51 L911.02,480.13 L917.59,490.66 L924.16,495.80 L934.15,498.31 L953.22,495.17 L962.83,499.31 L980.77,514.23 L966.74,523.38 L963.46,532.41 L953.35,535.29 L943.24,546.20 L928.08,552.35 L919.99,557.99 L903.44,576.04 L897.00,586.45 L891.69,590.21 L890.43,592.09 L896.75,604.25 L889.16,609.90 L892.20,614.28 L887.14,622.56 L885.50,632.21 L888.41,641.62 L891.94,646.00 L907.11,656.16 L911.28,681.49 L907.86,691.52 L906.35,694.03 L910.39,722.49 L906.10,740.92 L901.17,756.34 L891.56,783.42 L886.13,811.38 L881.08,821.66 L883.35,837.59 L902.18,876.83 L908.37,880.84 L922.90,890.87 L928.59,898.52 L915.82,960.58 L912.16,968.36 L899.90,980.77 L883.86,950.80 L843.80,912.31 L835.59,905.04 L829.53,899.02 L818.41,885.73 L815.25,885.48 L805.77,890.62 L797.05,895.01 L778.99,895.89 L772.92,902.53 L763.32,912.56 L753.71,916.70 L738.43,919.58 L725.41,918.46 L703.68,910.68 L684.47,892.25 L665.65,866.17 L654.91,857.65 L642.40,850.88 L634.56,850.00 L621.30,849.50 L608.54,843.85 L599.44,836.96 L592.36,827.81 L585.54,813.64 L579.73,808.87 L571.01,814.14 L561.03,825.42 L540.31,840.34 L529.95,850.62 L505.94,867.30 L494.82,872.19 L486.10,872.44 L478.14,868.30 L472.71,860.66 L469.30,848.62 Z M241.61,494.04 L245.15,498.43 L241.61,492.92 L240.35,525.51 L241.61,494.04 Z M249.57,500.19 L256.52,501.44 L245.15,498.43 L249.57,500.19 Z M259.17,498.93 L271.81,501.32 L254.25,497.18 L258.29,499.19 L256.52,501.44 L259.17,498.93 Z M314.12,81.44 L316.66,91.83 L314.77,81.29 L321.84,78.16 L314.12,81.44 Z M409.28,398.00 L433.29,398.63 L436.68,402.16 L435.43,399.38 L439.35,398.38 L409.28,398.00 Z M400.94,391.11 L400.65,390.99 L409.28,398.00 L400.94,391.11 Z M766.22,528.65 L767.07,528.65 L765.09,524.64 L766.22,528.65 Z M686.62,886.86 L685.99,884.92 L684.47,892.25 L686.62,886.86 Z M295.44,482.38 L302.39,484.64 L291.39,481.00 L295.44,482.38 Z M293.54,473.36 L290.51,477.24 L295.35,473.08 L293.54,473.36 Z M315.22,465.08 L308.74,469.84 L310.60,469.47 L315.22,465.08 Z M321.97,457.31 L316.49,463.87 L324.10,456.65 L321.97,457.31 Z M331.57,455.05 L329.30,455.05 L326.93,455.78 L336.25,456.31 L331.57,455.05 Z M344.08,462.82 L356.34,472.86 L336.25,456.31 L344.08,462.82 Z M340.54,466.34 L340.54,467.88 L344.08,462.82 L340.54,466.34 Z M366.32,463.33 L364.68,472.10 L366.62,462.74 L366.32,463.33 Z M408.14,475.11 L390.33,464.71 L399.80,470.35 L408.14,475.11 Z M434.80,475.22 L434.93,477.12 L438.21,480.00 L434.80,475.22 Z M490.05,426.68 L481.93,431.61 L489.89,427.97 L490.05,426.68 Z M562.17,423.96 L561.47,424.42 L565.96,426.97 L569.24,428.60 L562.17,423.96 Z M585.54,423.33 L584.97,423.22 L584.08,425.71 L584.66,425.84 L584.78,431.10 L585.54,423.33 Z M614.10,445.90 L623.88,442.94 L622.94,441.13 L620.79,441.26 L623.32,442.76 L614.10,445.90 Z M632.54,445.52 L629.72,448.13 L629.81,448.36 L633.53,446.17 L632.54,445.52 Z M630.09,449.08 L630.52,450.16 L636.08,449.91 L630.09,449.08 Z M646.69,461.19 L633.55,463.08 L635.11,463.63 L635.20,463.08 L646.69,461.19 Z M635.02,464.25 L631.28,471.10 L634.56,467.34 L635.02,464.25 Z M627.65,473.78 L622.18,471.85 L622.87,471.80 L621.32,471.31 L624.20,473.61 L627.65,473.78 Z M629.19,474.33 L631.15,489.28 L629.64,474.49 L629.19,474.33 Z M619.66,490.41 L632.11,489.69 L631.15,489.28 L619.66,490.41 Z M636.33,496.55 L639.11,499.56 L643.79,502.82 L636.33,496.55 Z M630.52,544.32 L624.71,538.43 L626.60,540.69 L625.41,541.28 L630.52,544.32 Z M643.03,558.11 L639.91,564.82 L640.05,564.83 L643.03,558.11 Z M637.98,571.03 L638.59,567.67 L636.97,571.15 L632.92,572.41 L637.98,571.03 Z M624.33,587.08 L622.06,588.20 L636.59,581.31 L624.33,587.08 Z M612.33,590.59 L622.20,589.27 L622.06,588.20 L612.33,590.59 Z M607.02,588.83 L601.71,589.58 L612.33,590.59 L607.02,588.83 Z M647.91,615.42 L641.01,618.05 L635.69,619.42 L647.83,616.54 L647.91,615.42 Z M623.12,626.65 L624.08,622.18 L623.07,625.82 L622.81,625.71 L623.12,626.65 Z M636.78,703.31 L636.21,703.93 L638.48,705.56 L636.78,703.31 Z M643.91,716.22 L645.43,722.49 L647.28,723.62 L643.91,716.22 Z M647.98,725.17 L647.86,726.50 L648.58,726.48 L647.98,725.17 Z M650.99,741.92 L619.28,748.44 L626.86,746.94 L650.99,741.92 Z M657.06,759.72 L643.16,765.62 L637.98,769.25 L645.56,764.74 L657.06,759.72 Z M649.10,787.81 L647.28,789.92 L647.33,789.94 L649.10,787.81 Z M643.16,789.94 L639.49,790.69 L637.22,793.20 L643.16,789.94 Z M492.42,440.26 L501.64,436.50 L497.09,438.00 L492.42,440.26 Z M510.43,445.91 L510.65,445.74 L510.35,445.67 L510.43,445.91 Z M510.74,465.08 L507.45,467.21 L505.69,471.73 L507.71,468.84 L510.74,465.08 Z M503.54,479.75 L503.41,481.88 L505.69,471.73 L503.54,479.75 Z M476.37,483.64 L474.10,489.03 L478.14,479.63 L476.37,483.64 Z M473.85,493.17 L475.99,492.29 L475.61,491.62 L473.85,493.17 Z M487.87,499.19 L489.51,497.97 L485.96,498.89 L487.87,499.19 Z M494.95,493.92 L492.17,494.67 L492.10,496.04 L494.95,493.92 Z M508.21,501.57 L512.00,500.56 L509.98,500.94 L504.93,502.32 L507.96,502.70 L509.98,504.70 L508.21,501.57 Z M491.41,518.87 L493.43,516.99 L497.09,508.84 L491.41,518.87 Z M494.08,523.44 L494.44,522.76 L493.43,516.99 L494.08,523.44 Z M509.22,549.84 L509.29,549.80 L493.43,545.58 L509.22,549.84 Z M504.79,556.81 L507.08,555.36 L509.22,549.84 L504.79,556.81 Z M483.20,570.53 L482.64,571.14 L486.86,573.28 L483.20,570.53 Z M480.29,566.14 L477.64,562.75 L483.20,570.53 L480.29,566.14 Z M481.05,572.91 L483.83,581.06 L481.94,571.92 L481.05,572.91 Z M488.88,582.94 L490.90,583.31 L483.83,581.06 L488.88,582.94 Z M486.39,586.78 L491.03,589.58 L486.86,586.83 L486.39,586.78 Z M489.89,611.02 L493.05,613.53 L492.89,612.14 L489.89,611.02 Z M497.47,621.24 L497.47,626.19 L498.10,622.18 L500.13,623.69 L497.47,621.24 Z M500.88,625.57 L502.01,625.14 L501.64,622.43 L500.88,625.57 Z M523.38,630.33 L523.50,621.81 L523.12,627.07 L523.38,630.33 Z M552.81,610.33 L553.32,609.02 L551.17,604.88 L552.81,610.33 Z M553.95,614.16 L554.48,614.04 L553.53,612.76 L553.95,614.16 Z M570.63,622.18 L571.80,622.55 L570.93,621.63 L570.63,622.18 Z M576.70,624.06 L577.49,623.56 L575.08,623.56 L576.70,624.06 Z M575.94,643.37 L577.71,647.38 L579.50,650.32 L580.11,649.26 L575.94,643.37 Z M574.80,658.04 L573.25,670.62 L576.53,655.60 L574.80,658.04 Z M572.40,677.48 L573.92,686.38 L572.77,674.51 L572.40,677.48 Z M582.13,702.43 L586.11,708.88 L586.93,707.82 L583.14,703.68 L573.92,686.38 L582.13,702.43 Z M596.28,714.71 L603.23,717.97 L586.93,707.82 L596.28,714.71 Z M559.01,696.03 L558.94,697.30 L564.31,693.77 L559.01,696.03 Z M559.26,701.92 L563.43,703.81 L556.48,698.92 L559.26,701.92 Z M553.45,725.12 L566.71,714.34 L570.38,709.82 L553.45,725.12 Z M571.36,719.18 L571.01,723.11 L572.27,722.11 L571.47,719.14 L571.36,719.18 Z M559.51,732.64 L558.84,731.81 L559.89,737.02 L561.53,740.04 L559.51,732.64 Z M566.97,744.05 L564.31,746.18 L575.56,738.03 L571.01,740.25 L566.97,744.05 Z M566.97,751.83 L570.25,755.84 L564.31,746.18 L566.97,751.83 Z M578.39,739.87 L578.39,739.87 L575.56,738.03 L578.39,739.87 Z M578.22,772.77 L578.34,773.01 L570.88,780.29 L579.59,772.90 L578.22,772.77 Z M551.28,792.29 L543.97,797.84 L551.05,792.70 L550.79,796.84 L551.28,792.29 Z M534.75,794.96 L534.04,795.66 L543.97,797.84 L534.75,794.96 Z M551.80,775.46 L555.85,780.91 L553.07,775.40 L551.80,775.46 Z M367.33,507.71 L368.38,507.63 L372.26,499.81 L363.41,513.35 L367.33,507.71 Z M388.56,512.48 L377.82,510.59 L381.99,512.22 L388.56,512.48 Z M416.10,513.85 L406.37,510.85 L408.67,508.39 L404.10,510.85 L416.10,513.85 Z M423.30,523.63 L422.42,520.37 L416.10,513.85 L423.30,523.63 Z M421.21,527.18 L421.21,527.18 L423.30,523.63 L421.21,527.18 Z M427.84,522.04 L427.98,523.51 L430.71,525.00 L427.84,522.04 Z M441.88,514.86 L436.82,519.37 L441.12,516.86 L441.88,514.86 Z M487.53,636.47 L490.21,632.60 L488.12,634.22 L487.53,636.47 Z M489.01,653.28 L483.75,642.97 L483.20,643.62 L489.01,653.28 Z M485.97,654.41 L494.69,651.65 L489.01,653.28 L485.97,654.41 Z M511.12,664.81 L506.72,662.19 L510.32,665.35 L511.12,664.81 Z M514.66,663.68 L517.82,660.05 L511.12,664.81 L514.66,663.68 Z M519.21,664.81 L518.10,658.97 L517.82,660.05 L519.21,664.81 Z M481.30,686.25 L482.69,687.51 L480.29,688.88 L483.70,687.13 L488.38,688.76 L481.30,686.25 Z M502.02,701.05 L504.04,697.79 L497.73,707.06 L502.02,701.05 Z M495.07,731.39 L496.46,736.28 L496.59,732.39 L499.62,733.27 L495.07,731.39 Z M502.02,745.93 L499.75,744.30 L501.65,746.89 L502.02,745.93 Z M432.78,613.66 L433.79,609.52 L432.53,612.28 L432.27,613.69 L432.78,613.66 Z M437.49,599.56 L437.28,598.56 L436.82,599.11 L437.49,599.56 Z M445.01,590.11 L444.91,590.59 L442.76,591.59 L447.06,590.84 L445.01,590.11 Z M454.06,583.40 L454.01,583.82 L453.46,584.45 L455.45,583.83 L454.06,583.40 Z M465.72,614.69 L465.67,614.74 L465.77,614.76 L465.72,614.69 Z M390.83,651.77 L412.60,668.16 L412.61,668.16 L408.14,664.69 L390.83,651.77 Z M452.49,672.46 L445.04,669.45 L439.86,668.57 L452.49,672.46 Z M463.05,692.87 L468.41,697.54 L463.36,692.52 L463.05,692.87 Z M473.92,696.35 L473.09,697.54 L473.59,697.54 L473.62,697.56 L473.92,696.35 Z M476.88,694.28 L477.51,691.27 L475.44,694.20 L476.88,694.28 Z M457.67,733.39 L453.38,733.14 L460.70,734.40 L457.67,733.39 Z M465.86,740.91 L465.76,741.80 L466.79,742.79 L465.86,740.91 Z M488.18,731.14 L488.50,731.01 L493.30,733.65 L488.25,730.06 L488.18,731.14 Z M478.12,700.50 L478.43,703.81 L479.15,700.80 L478.12,700.50 Z M437.58,715.47 L440.96,713.13 L439.98,713.33 L437.58,715.47 Z M420.72,637.01 L418.00,644.75 L420.72,637.01 L420.72,637.01 Z M435.19,638.46 L427.74,639.29 L429.75,640.11 L435.19,638.46 Z M448.44,629.98 L453.00,616.54 L448.20,629.33 L448.44,629.98 Z M372.01,549.46 L374.41,550.97 L375.04,558.87 L374.91,549.84 L372.01,549.46 Z M378.84,564.51 L384.14,566.76 L379.08,564.13 L378.84,564.51 Z M401.71,542.85 L400.94,544.70 L402.96,551.34 L401.71,542.85 Z M402.71,541.38 L403.59,538.30 L402.22,541.62 L402.71,541.38 Z M409.91,537.80 L406.12,538.55 L404.23,540.62 L409.91,537.80 Z M430.38,561.00 L430.62,561.39 L430.89,557.74 L430.38,561.00 Z M434.93,568.52 L445.67,568.27 L434.23,567.37 L434.93,568.52 Z M452.59,568.01 L452.59,568.01 L449.59,570.40 L452.59,568.01 Z M471.19,560.62 L464.24,545.07 L466.77,552.10 L471.19,560.62 Z M408.64,577.11 L407.64,577.17 L407.13,578.93 L408.64,577.11 Z M408.52,581.06 L412.06,583.94 L407.13,578.93 L408.52,581.06 Z M382.83,577.44 L381.99,576.42 L379.46,577.17 L382.83,577.44 Z M388.68,582.31 L393.11,582.31 L388.43,582.04 L388.68,582.31 Z M385.27,529.15 L383.30,525.72 L382.62,526.14 L378.20,523.01 L385.27,529.15 Z M383.12,519.50 L374.66,525.26 L378.20,523.01 L383.12,519.50 Z M386.03,524.01 L384.83,524.76 L391.34,524.76 L386.03,524.01 Z M403.97,525.26 L399.55,525.14 L411.05,527.02 L403.97,525.26 Z M459.19,532.54 L465.63,535.17 L465.94,535.33 L465.38,533.66 L459.19,532.54 Z M447.56,488.15 L451.99,482.63 L449.33,485.89 L447.56,488.15 Z M471.44,477.62 L471.82,477.25 L466.64,477.75 L471.44,477.62 Z M409.28,506.58 L409.80,507.18 L412.94,503.82 L409.28,506.58 Z M419.77,492.13 L415.47,492.79 L419.77,493.29 L419.77,492.13 Z M329.42,475.74 L325.13,476.99 L340.54,475.36 L329.42,475.74 Z M374.03,495.55 L364.17,495.80 L376.18,495.93 L374.03,495.55 Z M475.74,457.06 L497.35,467.46 L474.35,456.05 L469.55,456.31 L475.74,457.06 Z M473.47,475.61 L472.92,475.26 L473.04,476.04 L473.47,475.61 Z M520.92,769.23 L520.34,769.88 L523.12,771.01 L520.92,769.23 Z M537.02,778.78 L539.04,772.26 L533.99,775.65 L537.78,773.14 L537.02,778.78 Z M527.04,805.86 L534.12,818.65 L535.86,820.59 L527.04,805.86 Z M539.35,824.46 L540.56,825.80 L546.62,827.55 L539.35,824.46 Z M546.62,740.04 L547.89,737.53 L545.49,741.42 L546.62,740.04 Z M515.79,700.17 L516.30,696.78 L515.29,703.55 L515.79,700.17 Z M555.85,734.02 L551.55,734.90 L557.57,735.30 L555.85,734.02 Z M523.12,733.77 L519.96,732.02 L526.03,735.53 L523.12,733.77 Z M530.96,734.15 L526.79,732.14 L529.06,733.90 L526.66,734.27 L526.03,735.53 L530.96,734.15 Z M531.04,734.15 L530.96,732.14 L530.96,734.15 L531.04,734.15 Z M529.06,745.31 L513.52,758.97 L527.29,748.31 L529.06,745.31 Z M539.85,697.61 L528.81,718.98 L539.17,701.30 L539.85,697.61 Z M540.05,669.98 L540.18,668.82 L557.62,659.80 L533.23,671.96 L540.05,669.98 Z M540.03,670.13 L539.04,670.70 L538.66,681.99 L540.03,670.13 Z M548.52,636.48 L547.76,635.07 L547.76,641.49 L548.52,636.48 Z M548.14,627.95 L551.34,626.36 L543.59,627.32 L548.14,627.95 Z M556.48,623.81 L558.40,620.53 L553.70,625.19 L556.48,623.81 Z M550.92,602.00 L547.38,602.50 L564.82,602.37 L550.92,602.00 Z M574.17,598.36 L576.44,602.12 L574.92,597.66 L564.82,602.37 L574.17,598.36 Z M593.33,428.82 L588.57,427.84 L593.00,428.85 L593.33,428.82 Z M588.56,440.52 L588.56,440.52 L588.32,445.77 L588.56,440.52 Z M576.19,477.24 L570.50,478.12 L584.78,475.99 L582.76,476.12 L583.01,475.95 L576.19,477.24 Z M587.95,483.41 L587.44,479.75 L584.78,475.99 L587.95,483.41 Z M561.66,482.13 L561.28,479.50 L560.88,482.13 L561.66,482.13 Z M560.40,488.65 L560.17,486.72 L560.14,486.90 L560.40,488.65 Z M565.19,512.35 L564.19,512.35 L562.42,512.22 L562.09,512.46 L565.58,512.85 L565.19,512.35 Z M573.22,543.49 L578.13,541.28 L573.03,542.32 L573.22,543.49 Z M567.98,550.59 L568.83,545.64 L567.72,543.95 L567.98,550.59 Z M567.21,543.72 L565.20,547.71 L567.72,543.95 L567.21,543.72 Z M584.66,571.15 L588.19,566.39 L587.69,563.81 L586.55,567.64 L584.66,571.15 Z M566.21,579.93 L578.46,574.41 L584.66,571.15 L566.21,579.93 Z M521.35,486.77 L516.43,493.54 L516.63,493.92 L521.35,486.77 Z M518.19,496.80 L511.75,503.32 L518.77,496.67 L518.19,496.80 Z M521.23,496.11 L524.13,498.43 L521.48,496.05 L521.23,496.11 Z M532.47,481.88 L534.75,481.63 L535.04,480.26 L532.47,481.88 Z M541.44,485.77 L545.61,487.65 L540.81,485.44 L539.42,487.27 L541.44,485.77 Z M551.05,552.60 L558.88,551.59 L544.60,552.60 L551.05,552.60 Z M545.99,577.05 L552.18,572.41 L537.78,582.81 L545.99,577.05 Z M504.55,590.09 L501.26,593.72 L505.83,590.24 L504.55,590.09 Z M509.51,590.68 L507.19,590.40 L513.60,593.24 L509.51,590.68 Z M521.48,592.59 L520.09,596.10 L520.09,598.01 L521.48,592.59 Z M526.53,566.26 L524.76,575.42 L521.48,592.59 L526.53,566.26 Z M523.75,605.51 L522.62,609.64 L523.88,614.32 L523.75,605.51 Z M520.09,600.05 L520.09,605.01 L521.10,602.62 L523.75,605.51 L520.09,600.05 Z M529.36,564.60 L533.74,572.28 L529.95,564.26 L529.36,564.60 Z M555.09,584.94 L554.06,583.84 L554.33,587.45 L555.09,584.94 Z M551.80,581.43 L544.73,582.44 L552.74,582.44 L551.80,581.43 Z M538.91,537.81 L532.09,538.81 L537.02,538.93 L538.91,537.81 Z M548.65,531.53 L551.17,530.53 L553.70,528.90 L548.65,531.53 Z M563.30,536.80 L556.98,530.78 L553.70,528.90 L563.30,536.80 Z M547.26,517.87 L552.82,521.38 L548.65,517.87 L547.26,517.87 Z M523.12,504.58 L525.90,509.59 L528.68,512.35 L523.12,504.58 Z M532.22,457.94 L538.54,444.02 L534.37,453.05 L533.77,452.85 L532.22,457.94 Z M543.10,450.70 L539.93,444.90 L542.71,444.14 L538.54,444.02 L543.10,450.70 Z M549.40,462.20 L554.46,461.70 L553.83,467.97 L554.58,460.57 L549.40,462.20 Z M556.98,470.72 L557.72,470.26 L553.83,467.97 L556.98,470.72 Z M534.46,442.89 L535.50,447.15 L534.87,443.14 L534.46,442.89 Z M534.75,431.35 L535.25,438.25 L534.62,427.97 L534.75,431.35 Z M589.33,602.50 L585.04,605.33 L585.07,605.36 L589.33,602.50 Z M584.78,622.06 L583.01,618.30 L584.76,622.07 L584.78,622.06 Z M583.65,623.06 L584.37,622.42 L581.88,620.80 L583.65,623.06 Z M612.83,723.36 L614.73,726.37 L617.25,727.38 L612.83,723.36 Z M594.13,804.74 L598.30,810.13 L595.40,804.74 L595.52,806.49 L594.13,804.74 Z M602.72,800.85 L608.16,789.69 L601.99,801.24 L602.72,800.85 Z M582.13,773.14 L581.02,773.04 L584.91,779.53 L582.13,773.14 Z M590.22,778.16 L588.19,780.29 L593.75,776.90 L584.91,779.53 L590.22,778.16 Z M603.48,772.89 L605.88,776.15 L610.31,780.79 L603.48,772.89 Z M612.83,771.13 L613.31,770.28 L603.48,772.89 L612.83,771.13 Z M614.25,780.27 L614.25,780.27 L621.55,775.52 L627.87,770.88 L614.25,780.27 Z M626.86,818.03 L618.27,817.65 L618.42,818.26 L626.86,818.03 Z M587.06,794.83 L593.63,784.55 L587.44,792.45 L587.06,794.83 Z M615.86,760.73 L614.72,767.75 L615.49,766.37 L615.86,760.73 Z M578.84,726.62 L577.96,724.99 L580.36,729.63 L578.84,726.62 Z M597.80,613.28 L601.47,609.52 L599.82,609.52 L597.80,613.28 Z M622.37,590.52 L621.68,593.35 L624.71,607.89 L622.37,590.52 Z M603.99,653.67 L604.24,657.92 L605.29,653.80 L603.99,653.67 Z M620.88,652.95 L622.32,652.59 L621.80,652.27 L626.48,647.51 L620.88,652.95 Z M602.98,670.33 L607.78,667.95 L603.86,669.07 L598.49,669.35 L602.98,670.33 Z M608.27,669.97 L608.79,669.58 L607.78,667.95 L608.27,669.97 Z M588.67,642.33 L589.33,643.50 L594.01,641.74 L588.67,642.33 Z M594.64,647.26 L597.04,650.39 L594.01,641.74 L594.64,647.26 Z M600.62,651.43 L601.33,653.40 L601.67,651.74 L600.62,651.43 Z M601.83,650.95 L602.22,649.01 L600.58,647.89 L601.83,650.95 Z M605.99,631.32 L607.01,630.00 L603.48,630.96 L605.99,631.32 Z M581.50,506.46 L579.98,506.46 L579.60,508.71 L581.50,506.46 Z M583.01,509.34 L586.55,507.59 L582.78,508.90 L583.01,509.34 Z M605.01,520.27 L602.85,517.99 L595.40,515.74 L605.01,520.27 Z M595.52,574.66 L591.61,571.15 L597.80,576.92 L595.52,574.66 Z M606.64,534.17 L598.05,525.64 L598.81,527.65 L606.64,534.17 Z M596.08,461.50 L589.84,473.61 L593.37,468.97 L596.08,461.50 Z M619.44,469.83 L619.57,467.13 L618.52,469.09 L619.44,469.83 Z M591.10,490.78 L594.01,495.30 L590.78,490.03 L591.10,490.78 Z M602.90,499.82 L604.11,500.44 L605.36,500.07 L602.90,499.82 Z M608.16,499.25 L608.79,499.06 L608.69,497.76 L608.16,499.25 Z M602.35,428.22 L602.59,427.09 L597.63,428.54 L602.35,428.22 Z M617.13,422.70 L618.90,425.84 L612.71,430.35 L619.17,425.69 L617.13,422.70 Z M618.64,434.74 L619.78,426.59 L619.56,426.26 L618.64,434.74 Z M658.70,517.11 L674.74,502.44 L653.64,521.63 L658.70,517.11 Z M714.42,517.74 L712.52,518.87 L715.42,518.62 L714.42,517.74 Z M710.71,528.32 L711.64,527.40 L712.52,518.87 L710.71,528.32 Z M730.21,546.08 L723.58,540.96 L720.23,539.31 L730.21,546.08 Z M716.92,562.09 L717.70,561.37 L717.24,561.70 L716.92,562.09 Z M710.82,567.67 L710.88,567.64 L710.93,567.59 L710.82,567.67 Z M723.12,595.09 L723.39,594.47 L722.55,594.52 L723.12,595.09 Z M719.98,610.02 L725.13,596.87 L725.03,596.98 L719.98,610.02 Z M696.22,623.69 L696.26,623.88 L712.52,617.17 L696.22,623.69 Z M696.67,626.12 L696.73,626.45 L695.73,626.32 L700.77,631.21 L696.67,626.12 Z M704.31,647.13 L703.30,639.61 L700.77,631.21 L704.31,647.13 Z M705.20,639.49 L705.99,637.66 L703.30,639.61 L705.20,639.49 Z M733.94,647.07 L733.88,647.01 L724.91,649.01 L733.94,647.07 Z M718.46,698.13 L718.97,698.04 L718.69,697.08 L718.46,698.13 Z M708.04,705.07 L708.35,699.92 L707.98,701.30 L707.34,699.67 L707.87,705.01 L708.04,705.07 Z M701.91,699.61 L703.55,700.67 L707.34,699.67 L701.91,699.61 Z M715.68,706.94 L720.48,705.94 L711.13,706.31 L715.68,706.94 Z M716.37,733.98 L718.60,734.06 L717.45,733.65 L716.37,733.98 Z M745.12,768.38 L743.86,769.88 L747.78,765.24 L749.29,759.98 L745.12,768.38 Z M746.39,777.65 L747.85,778.86 L743.86,769.88 L746.39,777.65 Z M764.20,747.19 L770.65,740.79 L770.69,742.98 L773.05,736.91 L764.20,747.19 Z M813.73,738.28 L801.60,737.03 L821.69,740.04 L826.24,740.17 L813.73,738.28 Z M819.29,772.26 L813.61,784.42 L810.70,789.31 L810.45,791.45 L819.29,772.26 Z M829.65,823.17 L837.87,821.04 L828.99,823.24 L829.65,823.17 Z M836.73,842.10 L834.58,836.33 L829.65,823.17 L836.73,842.10 Z M816.05,850.26 L824.85,847.87 L836.73,842.10 L816.05,850.26 Z M844.81,815.89 L850.12,810.25 L837.87,821.04 L844.81,815.89 Z M810.41,852.48 L810.41,852.48 L833.70,893.38 L831.93,889.99 L810.41,852.48 Z M649.22,425.34 L650.49,424.96 L647.58,425.21 L649.22,425.34 Z M674.49,575.92 L667.55,569.92 L670.70,574.29 L674.49,575.92 Z M699.64,568.14 L704.75,571.60 L704.69,571.53 L699.64,568.14 Z M706.24,740.89 L707.74,737.74 L706.46,738.54 L706.24,740.89 Z M713.03,745.81 L710.64,744.78 L713.97,747.31 L713.03,745.81 Z M718.88,764.54 L718.80,764.23 L718.57,764.58 L718.88,764.54 Z M715.82,768.31 L716.82,768.75 L718.59,767.00 L716.19,768.12 L715.82,768.31 Z M737.29,776.27 L734.89,777.53 L734.76,778.52 L737.29,776.27 Z M735.62,807.75 L733.25,807.37 L735.39,807.74 L735.62,807.75 Z M724.52,845.26 L725.42,845.39 L725.49,844.08 L724.52,845.26 Z M706.33,855.39 L704.44,853.13 L704.11,853.27 L706.33,855.39 Z M716.44,873.32 L712.90,877.46 L707.60,888.99 L716.44,873.32 Z M729.83,869.68 L723.26,870.43 L716.44,873.32 L729.83,869.68 Z M692.56,724.62 L703.68,726.75 L706.46,726.87 L692.56,724.62 Z M681.44,840.59 L671.71,839.22 L677.15,841.10 L681.44,840.59 Z M681.05,853.39 L679.76,851.49 L680.05,853.01 L681.05,853.39 Z M703.93,828.06 L708.23,829.81 L703.57,827.76 L704.69,833.32 L703.93,828.06 Z M725.92,836.83 L724.53,840.72 L725.67,841.10 L725.92,836.83 Z M667.04,777.78 L664.83,778.15 L671.97,780.66 L667.04,777.78 Z M688.14,750.45 L687.66,751.41 L692.56,753.58 L688.67,749.57 L688.14,750.45 Z M687.46,751.80 L687.06,752.62 L691.68,756.09 L687.46,751.80 Z M658.82,774.52 L659.92,774.05 L657.56,772.39 L658.82,774.52 Z M703.93,753.96 L704.37,753.09 L698.37,749.94 L703.93,753.96 Z M706.08,749.69 L705.76,746.06 L705.27,751.30 L706.08,749.69 Z M674.37,716.09 L663.75,716.34 L666.41,716.34 L674.37,716.09 Z M674.40,716.15 L674.62,708.19 L674.37,716.09 L674.40,716.15 Z M666.66,705.69 L672.47,704.06 L675.88,703.05 L666.66,705.69 Z M669.06,596.61 L663.75,605.38 L661.60,609.02 L669.06,596.61 Z M668.81,611.65 L671.08,609.39 L668.08,611.65 L668.81,611.65 Z M670.20,621.81 L666.80,624.46 L666.80,624.46 L670.20,621.81 Z M692.81,625.94 L679.42,633.09 L693.90,626.08 L692.81,625.94 Z M678.16,653.03 L685.06,648.60 L684.73,648.01 L678.16,653.03 Z M685.76,649.83 L685.74,650.02 L685.88,650.04 L685.76,649.83 Z M689.40,650.64 L686.62,647.01 L688.39,649.64 L687.34,650.29 L689.40,650.64 Z M665.02,629.71 L666.03,631.96 L666.37,627.88 L665.02,629.71 Z M667.29,646.51 L665.27,648.89 L671.33,643.50 L667.29,646.51 Z M667.71,653.97 L668.43,653.53 L665.27,648.89 L667.71,653.97 Z M669.52,660.09 L668.68,660.80 L671.97,665.06 L669.52,660.09 Z M681.19,637.10 L680.83,636.30 L678.79,639.61 L681.19,637.10 Z M693.82,608.39 L707.21,601.87 L707.21,601.87 L693.82,608.39 Z M699.26,592.59 L700.86,594.47 L699.31,591.58 L699.26,592.59 Z M643.55,474.69 L642.40,474.23 L640.76,477.87 L643.55,474.69 Z M656.55,477.12 L664.38,476.24 L649.98,477.24 L656.55,477.12 Z M670.32,469.60 L668.05,470.97 L664.38,476.24 L670.32,469.60 Z M680.94,473.61 L674.24,468.59 L678.79,472.48 L680.94,473.61 Z M674.62,479.38 L675.76,479.42 L675.64,478.84 L674.62,479.38 Z M686.62,493.67 L687.87,493.97 L685.86,490.28 L686.62,493.67 Z M692.31,525.51 L690.63,524.76 L695.97,531.78 L692.31,525.51 Z M691.93,522.51 L696.86,520.88 L701.03,519.12 L691.93,522.51 Z M709.66,529.36 L698.50,528.77 L708.73,530.28 L709.66,529.36 Z M682.33,541.56 L680.43,543.82 L678.91,548.71 L682.33,541.56 Z M694.46,495.55 L696.10,497.68 L694.54,495.00 L694.46,495.55 Z M694.87,493.01 L700.09,490.61 L695.09,491.66 L694.87,493.01 Z M634.06,445.02 L634.22,445.76 L647.20,438.13 L634.06,445.02 Z M654.65,453.30 L655.67,459.19 L654.96,452.41 L654.65,453.30 Z M647.96,466.13 L646.57,467.59 L665.77,461.82 L647.96,466.13 Z M685.02,458.75 L686.37,457.94 L687.38,450.66 L685.02,458.75 Z M658.57,449.79 L656.04,449.28 L655.64,450.47 L658.57,449.79 Z M783.61,869.54 L795.03,886.23 L783.61,869.54 L783.61,869.54 Z M753.34,895.51 L760.29,896.14 L751.69,902.78 L762.18,895.64 L753.34,895.51 Z M750.68,814.26 L745.75,809.37 L743.13,808.95 L750.68,814.26 Z M774.82,794.08 L779.49,787.18 L771.78,796.84 L774.82,794.08 Z M778.23,785.18 L776.33,782.42 L772.41,780.41 L779.49,787.18 L778.23,785.18 Z M770.65,776.27 L769.94,775.87 L772.41,780.41 L770.65,776.27 Z M795.29,783.49 L795.16,783.42 L793.89,782.92 L795.29,783.49 Z M798.57,829.44 L788.84,836.96 L792.50,834.58 L798.57,829.44 Z M770.52,836.71 L780.25,830.06 L778.61,830.94 L770.52,836.71 Z M785.93,823.29 L786.62,820.79 L783.79,826.80 L785.93,823.29 Z M788.08,815.27 L787.16,814.96 L787.86,816.26 L792.25,800.22 L788.08,815.27 Z M752.45,790.32 L753.88,794.13 L753.97,794.08 L752.45,790.32 Z M784.04,763.74 L787.58,765.62 L776.96,775.90 L788.57,765.63 L788.66,765.29 L784.04,763.74 Z M790.74,765.99 L794.78,763.74 L791.62,764.99 L792.86,760.33 L790.74,765.99 Z M796.04,775.65 L789.30,768.74 L789.47,769.50 L796.04,775.65 Z M770.76,746.21 L770.77,746.94 L772.54,748.57 L770.76,746.21 Z M741.84,649.77 L738.17,651.27 L743.43,650.29 L741.84,649.77 Z M806.74,564.85 L816.51,560.06 L813.86,560.25 L806.53,564.38 L806.74,564.85 Z M827.38,570.40 L813.86,580.31 L809.94,584.19 L827.38,570.40 Z M803.18,582.21 L800.97,582.56 L809.94,584.19 L803.18,582.21 Z M800.21,600.87 L793.14,599.74 L782.27,600.49 L800.21,600.87 Z M805.01,629.45 L807.41,626.45 L803.30,630.53 L805.01,629.45 Z M826.82,651.14 L825.74,648.39 L826.82,651.14 L826.82,651.14 Z M823.71,655.53 L823.93,654.56 L821.94,656.79 L823.71,655.53 Z M814.03,675.62 L814.91,674.86 L813.89,675.24 L814.03,675.62 Z M821.57,673.96 L815.12,678.60 L818.28,677.48 L821.57,673.96 Z M827.25,676.22 L829.78,683.62 L831.04,685.12 L827.25,676.22 Z M738.13,604.82 L741.16,605.42 L739.94,604.00 L738.13,604.82 Z M745.47,610.44 L746.01,611.40 L748.66,614.16 L745.47,610.44 Z M756.12,615.16 L757.46,615.10 L748.66,614.16 L756.12,615.16 Z M756.62,680.48 L755.74,668.20 L756.46,681.15 L756.62,680.48 Z M765.59,660.80 L767.74,663.68 L768.60,663.23 L765.59,660.80 Z M765.72,658.63 L765.41,659.03 L766.86,660.17 L765.72,658.63 Z M779.62,652.40 L779.80,651.73 L772.79,652.02 L779.62,652.40 Z M784.42,653.40 L787.07,643.87 L784.80,651.52 L784.42,653.40 Z M791.87,653.28 L792.21,652.83 L787.45,651.65 L791.87,653.28 Z M802.36,667.70 L798.95,666.32 L798.85,666.57 L802.36,667.70 Z M783.79,708.32 L786.19,697.91 L790.48,688.26 L787.32,690.64 L783.79,708.32 Z M787.74,689.89 L786.73,690.73 L787.32,690.64 L787.74,689.89 Z M798.95,702.05 L800.85,702.28 L801.73,697.66 L800.46,701.55 L798.95,702.05 Z M770.39,714.21 L763.10,715.70 L772.03,714.56 L770.39,714.21 Z M780.00,691.77 L785.11,690.98 L783.41,690.14 L780.00,691.77 Z M789.85,684.37 L789.85,686.09 L795.54,675.85 L789.85,684.37 Z M745.03,650.82 L750.68,655.66 L746.77,651.40 L745.03,650.82 Z M708.99,635.47 L714.29,636.60 L714.98,635.68 L708.99,635.47 Z M783.28,537.55 L785.18,538.93 L782.87,535.24 L783.28,537.55 Z M781.39,558.87 L777.34,563.13 L779.36,562.63 L781.39,558.87 Z M783.27,552.54 L781.13,551.09 L783.03,553.10 L783.27,552.54 Z M787.54,550.99 L783.91,551.09 L787.32,551.34 L787.54,550.99 Z M795.41,574.29 L794.01,574.36 L792.60,576.47 L795.41,574.29 Z M796.80,574.91 L792.22,577.03 L791.62,577.92 L796.80,574.91 Z M751.65,547.39 L751.69,547.08 L750.18,545.20 L751.65,547.39 Z M769.64,544.95 L767.49,543.32 L768.88,541.81 L764.52,542.82 L769.64,544.95 Z M733.37,547.21 L741.08,549.59 L723.75,541.04 L733.37,547.21 Z M768.31,531.16 L768.40,531.65 L768.50,531.53 L768.31,531.16 Z M869.73,811.27 L869.62,809.75 L869.33,810.63 L869.73,811.27 Z M876.15,821.91 L871.35,820.16 L873.50,822.04 L876.15,821.91 Z M863.77,861.28 L863.76,861.29 L874.89,872.82 L863.77,861.28 Z M858.08,844.86 L862.25,854.14 L863.04,852.98 L858.08,844.86 Z M870.97,833.32 L876.40,834.70 L872.61,832.57 L870.97,833.32 Z M857.07,800.47 L849.64,804.43 L850.50,804.49 L857.07,800.47 Z M841.78,803.11 L827.88,802.98 L845.13,804.13 L841.78,803.11 Z M838.62,623.44 L839.76,626.07 L838.12,622.06 L838.62,623.44 Z M858.59,672.21 L864.65,654.66 L865.66,646.38 L865.31,646.19 L863.51,654.15 L858.59,672.21 Z M874.89,709.57 L866.93,712.21 L871.10,711.33 L874.89,709.57 Z M879.20,710.14 L878.17,710.20 L875.52,711.08 L879.20,710.14 Z M895.36,695.03 L892.95,705.43 L892.58,709.32 L895.36,695.03 Z M863.38,752.04 L859.60,749.94 L863.57,752.87 L863.38,752.04 Z M881.58,735.40 L865.16,737.28 L894.22,734.02 L881.58,735.40 Z M880.45,729.63 L874.92,718.81 L881.58,735.40 L880.45,729.63 Z M867.81,761.98 L891.94,760.35 L862.50,762.23 L867.81,761.98 Z M864.53,756.97 L863.86,754.13 L862.50,762.23 L864.53,756.97 Z M826.87,746.06 L830.28,744.93 L833.32,741.42 L826.87,746.06 Z M834.58,733.39 L834.58,730.64 L833.32,741.42 L834.58,733.39 Z M870.59,682.99 L869.83,686.38 L870.21,684.75 L870.59,682.99 Z M834.07,670.58 L830.16,675.09 L839.76,665.81 L831.55,670.96 L834.07,670.58 Z M845.44,544.68 L846.08,544.20 L845.23,543.62 L845.44,544.68 Z M839.66,552.77 L840.90,551.22 L841.28,547.83 L839.66,552.77 Z M838.70,559.02 L838.57,556.08 L837.99,557.86 L837.66,557.75 L838.70,559.02 Z M836.98,575.42 L849.11,568.41 L846.96,569.02 L836.98,575.42 Z M895.99,543.95 L902.05,539.68 L893.90,544.50 L895.99,543.95 Z M835.58,611.09 L826.37,611.53 L831.55,612.53 L835.58,611.09 Z M862.47,604.70 L861.87,607.26 L863.26,605.63 L862.47,604.70 Z M856.44,606.13 L857.20,613.41 L857.07,610.15 L856.44,606.13 Z M828.52,564.63 L836.09,557.23 L835.34,556.99 L828.52,564.63 Z M881.96,572.16 L877.79,571.28 L878.93,572.66 L869.71,577.42 L881.96,572.16 Z M868.32,512.22 L852.44,514.82 L853.53,514.86 L868.32,512.22 Z M856.15,537.25 L856.34,536.58 L855.81,536.67 L856.15,537.25 Z M858.14,542.95 L856.94,546.95 L860.24,542.66 L858.46,543.57 L858.14,542.95 Z M884.62,544.32 L883.23,545.20 L881.71,547.21 L884.62,544.32 Z M911.91,518.12 L908.62,520.37 L908.62,520.43 L911.91,518.12 Z M908.75,532.79 L908.32,526.09 L907.49,542.06 L908.75,532.79 Z M916.71,532.79 L916.10,533.26 L917.21,534.17 L916.71,532.79 Z M187.91,42.60 L188.04,43.55 L196.76,47.44 L187.91,42.60 Z M188.29,69.26 L191.07,56.34 L187.66,66.37 L187.77,69.78 L188.29,69.26 Z M197.39,88.06 L189.93,85.31 L191.95,86.06 L197.39,88.06 Z M191.95,102.48 L199.78,106.36 L197.51,104.24 L191.95,102.48 Z M194.21,125.52 L192.33,126.68 L189.68,126.81 L194.10,126.81 L194.21,125.52 Z M196.35,123.27 L198.68,124.32 L196.63,122.17 L196.35,123.27 Z M203.20,129.06 L202.18,128.00 L202.82,130.94 L204.97,125.18 L203.20,129.06 Z M208.51,142.98 L194.73,156.15 L194.97,157.00 L208.51,142.98 Z M195.58,159.28 L195.62,159.41 L195.88,159.51 L195.58,159.28 Z M214.32,188.22 L214.23,188.91 L214.57,188.37 L214.32,188.22 Z M211.03,193.88 L213.34,190.28 L211.79,190.63 L211.54,187.87 L211.03,193.88 Z M215.46,203.92 L223.79,200.66 L232.39,196.02 L215.46,203.92 Z M193.72,251.06 L196.50,256.83 L199.66,263.22 L193.72,251.06 Z M199.79,268.99 L202.31,267.61 L209.64,261.34 L199.79,268.99 Z M217.73,302.46 L218.49,304.85 L217.10,300.08 L217.73,302.46 Z M188.92,320.64 L193.22,314.25 L194.99,311.62 L186.65,323.90 L188.92,320.64 Z M234.60,320.27 L233.56,320.37 L242.75,322.78 L234.53,320.39 L234.60,320.27 Z M235.92,317.78 L238.07,313.75 L235.92,315.75 L235.92,317.78 Z M233.02,299.83 L231.88,299.77 L238.07,313.75 L233.02,299.83 Z M254.37,318.39 L261.07,323.53 L257.91,321.02 L254.37,318.39 Z M271.30,332.68 L272.06,329.80 L271.30,331.18 L268.59,333.87 L268.62,334.01 L271.30,332.68 Z M253.21,342.15 L258.04,340.96 L252.81,341.37 L253.36,341.83 L253.21,342.15 Z M252.13,344.38 L251.84,344.97 L252.26,345.96 L252.13,344.38 Z M252.57,349.67 L252.22,349.73 L253.36,359.14 L252.57,349.67 Z M262.33,371.92 L254.62,369.29 L256.27,377.57 L255.64,370.92 L262.33,371.92 Z M244.14,376.69 L250.20,377.57 L256.27,377.57 L244.14,376.69 Z M248.93,389.81 L249.83,389.63 L250.20,377.57 L248.93,389.81 Z M248.80,391.05 L248.31,395.75 L249.95,403.65 L248.80,391.05 Z M252.22,410.79 L251.37,410.86 L255.13,420.20 L252.22,410.79 Z M238.33,411.92 L238.21,411.93 L238.50,412.30 L238.33,411.92 Z M244.26,424.96 L240.29,416.24 L238.96,416.31 L241.74,420.70 L244.26,424.96 Z M234.66,446.02 L246.93,446.47 L244.39,445.52 L234.12,445.79 L234.66,448.66 L234.66,446.02 Z M263.97,464.96 L263.68,466.09 L265.87,466.96 L263.97,464.96 Z M243.06,483.12 L243.00,484.01 L246.29,484.39 L243.06,483.12 Z M265.44,483.25 L270.90,483.47 L273.70,482.38 L265.44,483.25 Z M274.84,488.65 L277.37,486.02 L269.66,489.78 L275.85,487.52 L274.84,488.65 Z M222.28,347.60 L221.27,346.60 L206.61,338.07 L222.28,347.60 Z M161.88,332.68 L163.25,326.65 L147.86,324.41 L162.89,327.29 L161.88,332.68 Z M170.85,320.68 L170.01,320.28 L170.22,327.67 L170.85,320.68 Z M180.96,321.77 L180.08,320.02 L179.86,320.87 L180.96,321.77 Z M218.99,368.04 L215.58,373.81 L211.41,377.69 L218.11,371.67 L218.99,368.04 Z M214.58,396.03 L215.79,397.49 L215.33,396.62 L214.58,396.03 Z M220.87,419.81 L223.29,419.57 L221.39,418.94 L220.87,419.81 Z M150.24,349.34 L150.13,349.36 L142.65,355.82 L145.73,354.87 L144.70,354.25 L150.24,349.34 Z M136.36,338.95 L136.14,340.03 L143.31,341.21 L136.36,338.95 Z M169.21,395.25 L166.18,394.74 L157.46,394.12 L169.21,395.25 Z M187.15,362.52 L182.73,362.14 L199.41,365.03 L187.15,362.52 Z M155.83,348.68 L160.49,349.48 L155.82,351.74 L163.15,348.48 L155.83,348.68 Z M181.08,344.51 L183.87,345.59 L181.08,344.51 L181.08,344.51 Z M122.71,49.82 L123.05,49.63 L120.82,44.43 L122.71,49.82 Z M131.18,56.59 L131.90,55.74 L127.64,54.71 L131.18,56.59 Z M136.61,57.47 L138.76,57.22 L138.16,56.79 L136.61,57.47 Z M125.11,67.75 L147.23,87.19 L131.05,71.26 L125.11,67.75 Z M150.89,98.35 L149.50,93.33 L147.23,87.19 L150.89,98.35 Z M120.31,108.13 L127.89,120.66 L126.25,115.65 L120.31,108.13 Z M129.54,124.93 L131.18,126.93 L129.69,123.40 L129.54,124.93 Z M118.67,135.96 L134.08,133.83 L128.53,133.70 L118.67,135.96 Z M142.42,157.90 L145.58,154.64 L149.50,150.25 L142.42,157.90 Z M147.48,156.52 L149.74,156.29 L145.58,154.64 L147.48,156.52 Z M151.90,159.91 L151.90,157.15 L151.30,156.91 L151.90,159.91 Z M144.45,166.05 L154.30,161.54 L154.93,160.03 L144.45,166.05 Z M162.89,188.12 L167.06,191.63 L157.59,183.48 L162.89,188.12 Z M160.63,194.66 L160.63,194.66 L162.51,192.13 L160.63,194.66 Z M172.89,210.42 L185.00,202.16 L173.00,210.31 L172.89,210.42 Z M172.15,211.13 L177.51,218.64 L172.54,210.75 L172.15,211.13 Z M159.86,222.97 L169.21,214.82 L170.01,213.19 L159.86,222.97 Z M148.11,229.49 L148.11,231.62 L150.51,223.47 L148.11,229.49 Z M147.98,241.91 L150.51,243.91 L147.86,241.29 L147.98,241.91 Z M105.40,234.76 L121.07,251.69 L121.07,251.69 L105.40,234.76 Z M120.94,253.44 L123.60,263.60 L121.43,253.36 L120.94,253.44 Z M120.11,274.25 L118.63,273.28 L122.59,277.51 L119.93,274.38 L120.11,274.25 Z M120.69,281.40 L121.31,286.00 L122.98,285.85 L121.32,285.66 L120.69,281.40 Z M116.90,308.86 L121.95,309.11 L121.97,309.06 L116.90,308.86 Z M83.16,171.19 L84.47,171.09 L79.88,159.53 L83.04,168.43 L83.16,171.19 Z M94.41,176.08 L87.84,179.59 L86.20,180.47 L94.41,176.08 Z M110.08,171.07 L96.81,179.22 L106.16,174.95 L110.08,171.07 Z M99.09,193.13 L104.39,182.35 L106.16,174.95 L99.09,193.13 Z M105.72,159.19 L104.27,165.05 L106.67,159.78 L105.72,159.19 Z M65.22,242.78 L66.74,245.29 L60.30,242.03 L68.13,246.17 L65.22,242.78 Z M66.57,240.28 L71.04,242.28 L66.23,239.27 L66.57,240.28 Z M78.11,279.39 L78.11,264.85 L77.98,276.51 L78.11,279.39 Z M84.43,283.66 L82.03,282.03 L78.11,279.39 L84.43,283.66 Z M66.61,247.30 L76.09,262.22 L78.11,264.85 L66.61,247.30 Z M106.79,287.79 L105.91,284.91 L102.62,279.02 L106.79,287.79 Z M96.05,199.28 L93.90,208.55 L92.77,215.07 L94.66,205.80 L96.05,199.28 Z M99.09,215.70 L104.39,216.08 L92.77,215.07 L99.09,215.70 Z M141.41,214.32 L135.73,208.68 L140.28,214.82 L141.67,227.24 L141.41,214.32 Z M159.86,188.87 L160.24,193.63 L160.26,193.68 L159.86,188.87 Z M46.40,84.80 L45.09,83.05 L44.50,83.05 L46.40,84.80 Z M86.97,91.11 L87.33,90.70 L85.44,84.93 L86.97,91.11 Z M109.45,80.92 L107.97,79.45 L108.99,82.68 L109.11,82.69 L109.45,80.92 Z M78.87,115.27 L80.26,114.77 L62.82,120.41 L78.87,115.27 Z M77.48,125.55 L77.00,126.19 L78.08,125.43 L77.48,125.55 Z M74.83,129.06 L79.63,135.21 L75.20,128.57 L74.83,129.06 Z M91.13,148.25 L107.93,150.25 L91.07,147.52 L91.13,148.25 Z M105.84,158.71 L106.29,158.78 L107.93,150.25 L105.84,158.71 Z M172.24,106.24 L163.27,99.98 L177.30,110.01 L172.24,106.24 Z M182.78,135.49 L174.77,127.06 L182.78,135.49 L182.78,135.49 Z M158.47,239.52 L162.04,247.72 L160.11,242.66 L158.47,239.52 Z M166.68,282.28 L164.03,296.32 L167.57,284.28 L171.36,286.29 L166.68,282.28 Z M166.08,308.10 L171.11,306.98 L166.94,307.60 L162.77,301.46 L166.08,308.10 Z M170.00,320.19 L173.00,320.64 L169.97,319.01 L170.00,320.19 Z M181.21,290.05 L186.02,289.93 L176.54,288.67 L181.21,290.05 Z M154.55,280.90 L162.71,281.83 L162.26,274.88 L162.51,281.02 L154.55,280.90 Z M163.12,250.57 L151.45,251.52 L153.67,269.61 L152.78,251.69 L163.12,250.57 L163.12,250.57 Z M172.75,189.00 L168.96,185.11 L171.36,187.62 L172.75,189.00 Z M183.24,185.99 L179.95,180.72 L184.54,191.10 L184.25,182.22 L183.24,185.99 Z M188.29,178.96 L187.41,176.21 L187.72,179.42 L188.29,178.96 Z M164.16,62.24 L167.69,61.36 L151.90,61.36 L164.16,62.24 Z M169.60,59.42 L170.55,60.65 L171.74,60.36 L175.28,60.36 L169.60,59.42 Z M153.73,82.17 L155.37,82.86 L153.80,81.04 L153.73,82.17 Z M172.50,67.38 L169.84,68.88 L176.92,66.75 L172.50,67.38 Z M187.20,70.34 L183.51,70.07 L186.14,71.39 L187.20,70.34 Z M236.05,481.76 L228.29,481.86 L228.85,482.13 L236.05,481.76 Z M225.31,442.89 L225.18,446.02 L226.20,434.99 L225.31,442.89 Z M232.64,446.27 L232.99,445.82 L225.18,446.02 L232.64,446.27 Z M216.91,465.28 L213.56,465.08 L216.97,465.71 L216.91,465.28 Z M233.63,464.03 L236.40,465.02 L236.56,448.53 L235.55,464.45 L233.63,464.03 Z M244.26,374.43 L232.26,372.05 L235.29,373.81 L244.26,374.43 Z M250.96,339.83 L251.83,340.55 L252.35,336.19 L250.96,339.83 Z M258.04,32.90 L260.06,37.41 L257.78,29.01 L258.04,32.90 Z M256.52,58.35 L255.76,60.61 L266.38,45.06 L256.52,58.35 Z M257.53,64.62 L260.31,59.60 L258.92,61.61 L257.53,64.62 Z M274.33,70.67 L276.36,64.12 L273.83,68.63 L274.33,70.67 Z M274.71,72.27 L280.15,72.14 L274.71,72.25 L274.71,72.27 Z M246.37,91.03 L244.77,94.46 L246.74,91.11 L246.37,91.03 Z M260.22,105.18 L259.17,102.98 L244.77,94.46 L260.22,105.18 Z M267.51,117.15 L266.66,116.27 L267.26,117.90 L270.92,120.54 L268.17,116.93 L267.51,117.15 Z M258.53,175.60 L258.53,175.60 L256.65,172.32 L258.53,175.60 Z M245.91,182.22 L250.83,180.47 L256.26,177.04 L245.91,182.22 Z M243.88,194.51 L247.30,189.75 L246.86,187.38 L243.88,194.51 Z M255.51,232.50 L254.25,225.36 L253.11,222.47 L255.51,232.50 Z M276.66,228.79 L275.47,228.24 L269.28,228.11 L276.66,228.79 Z M281.05,212.32 L278.67,210.73 L279.64,212.19 L281.05,212.32 Z M285.08,212.69 L291.77,210.44 L283.09,212.51 L285.08,212.69 Z M296.83,271.62 L298.09,273.50 L293.11,271.72 L307.19,278.01 L296.83,271.62 Z M306.30,286.04 L308.58,282.65 L304.66,288.30 L306.68,286.67 L310.72,289.17 L306.30,286.04 Z M310.03,307.78 L310.85,307.10 L309.21,302.09 L310.03,307.78 Z M295.06,311.12 L307.19,310.11 L308.06,309.39 L295.06,311.12 Z M310.47,313.00 L310.80,313.00 L307.19,310.11 L310.47,313.00 Z M311.71,326.05 L297.08,327.79 L311.61,326.16 L311.61,326.20 L311.71,326.05 Z M310.98,337.19 L312.62,339.70 L311.26,332.24 L310.98,337.19 Z M312.56,339.74 L316.92,338.82 L321.46,334.94 L312.62,339.70 L312.56,339.74 Z M309.26,341.79 L303.14,345.59 L296.32,349.36 L307.95,343.71 L309.26,341.79 Z M300.24,364.03 L322.60,355.37 L297.96,364.65 L300.24,364.03 Z M274.97,369.67 L268.40,371.30 L297.96,364.65 L274.97,369.67 Z M296.83,376.06 L316.03,382.58 L300.49,377.07 L296.83,376.06 Z M326.27,384.84 L326.39,391.11 L327.40,397.63 L327.46,397.89 L326.27,384.84 Z M294.17,407.78 L294.93,409.91 L292.66,399.63 L294.17,407.78 Z M285.08,411.67 L287.60,410.67 L294.17,407.78 L285.08,411.67 Z M327.61,398.57 L327.62,398.61 L329.93,398.13 L329.71,397.17 L327.61,398.57 Z M304.91,429.98 L300.36,434.61 L306.63,428.97 L304.91,429.98 Z M299.46,445.21 L300.49,443.39 L299.71,442.29 L299.46,445.21 Z M294.80,450.16 L297.21,449.16 L298.26,447.30 L294.80,450.16 Z M234.66,246.42 L246.29,248.55 L254.50,249.18 L249.70,248.80 L234.66,246.42 Z M223.42,249.18 L246.16,249.43 L245.53,254.94 L246.29,248.55 L223.42,249.18 Z M243.32,274.77 L245.91,276.01 L242.75,273.63 L243.32,274.77 Z M242.68,278.81 L239.46,281.15 L239.72,281.61 L242.24,280.02 L242.93,280.71 L242.68,278.81 Z M246.41,276.51 L243.59,281.36 L244.01,281.78 L246.41,276.51 Z M260.77,281.72 L262.21,281.65 L267.01,285.91 L262.04,280.32 L260.77,281.72 Z M257.53,309.99 L256.75,296.77 L255.64,299.58 L257.53,309.99 Z M233.40,117.78 L235.54,122.41 L236.56,122.17 L232.26,115.77 L232.39,120.54 L233.40,117.78 Z M226.23,113.78 L226.18,113.80 L232.26,115.77 L226.23,113.78 Z M231.77,223.55 L239.34,211.81 L231.75,223.47 L231.77,223.55 Z M234.16,243.16 L232.90,235.04 L232.26,235.13 L233.02,243.16 L234.16,243.16 Z M233.47,284.57 L233.90,285.29 L236.47,283.66 L233.47,284.57 Z M217.35,257.33 L216.21,250.18 L216.48,257.65 L217.35,257.33 Z M230.99,165.63 L234.28,164.80 L242.87,159.78 L230.99,165.63 Z M246.15,157.54 L246.34,157.39 L219.12,147.87 L246.15,157.54 Z M215.71,80.17 L215.20,83.05 L216.12,86.12 L216.47,84.05 L215.71,80.17 Z M234.28,61.99 L230.74,62.11 L237.95,62.36 L234.28,61.99 Z M229.86,45.56 L229.99,56.22 L230.74,62.11 L229.86,45.56 Z M258.54,112.64 L258.40,112.97 L259.52,112.67 L258.54,112.64 Z M229.73,104.99 L228.47,102.73 L225.94,100.35 L229.73,104.99 Z M222.03,94.58 L216.23,86.51 L216.85,88.57 L222.03,94.58 Z M234.66,87.19 L237.19,90.07 L241.61,92.58 L234.66,87.19 Z M213.69,33.90 L214.53,34.12 L212.54,32.62 L213.69,33.90 Z M210.65,30.51 L211.14,31.06 L212.55,29.01 L210.65,30.51 Z M209.71,27.30 L211.03,29.51 L212.55,29.01 L209.71,27.30 Z M272.58,397.24 L271.81,397.50 L269.03,395.25 L273.45,400.01 L272.58,397.24 Z M278.10,476.60 L278.51,477.62 L281.03,477.24 L278.10,476.60 Z M270.92,481.63 L270.17,478.12 L269.85,478.04 L270.92,481.63 Z M269.15,423.96 L268.77,423.94 L268.75,425.03 L269.15,423.96 Z M273.70,344.97 L268.98,335.60 L269.66,338.57 L273.70,344.97 Z M282.15,265.85 L281.91,265.45 L281.66,265.85 L282.15,265.85 Z M285.73,273.41 L285.08,273.25 L281.28,280.77 L285.73,273.41 Z M283.56,246.80 L296.89,233.78 L295.44,234.01 L283.56,246.80 Z M304.41,139.60 L305.85,138.12 L303.26,139.84 L304.41,139.60 Z M297.08,135.46 L301.37,142.98 L300.36,140.47 L301.26,140.28 L297.08,135.46 Z M286.08,166.91 L295.69,158.65 L285.20,166.18 L286.08,166.91 Z M296.07,190.88 L297.84,197.14 L296.08,190.04 L291.65,189.37 L296.07,190.88 Z M272.57,116.65 L275.60,114.39 L269.46,116.49 L272.57,116.65 Z M269.66,197.14 L276.18,206.97 L276.10,206.05 L269.66,197.14 Z M286.97,113.14 L287.35,110.13 L281.28,108.25 L286.72,110.26 L286.97,113.14 Z M288.11,112.64 L296.73,116.76 L295.94,115.77 L288.11,112.64 Z M366.07,408.16 L366.70,409.91 L366.82,409.88 L366.07,408.16 Z M375.80,414.80 L371.12,408.66 L374.15,412.67 L375.80,414.80 Z M393.99,428.47 L395.63,432.73 L393.23,425.34 L391.59,422.70 L393.99,428.47 Z M424.32,414.93 L402.33,422.83 L420.52,416.43 L424.32,414.93 Z M438.68,404.24 L440.99,406.65 L439.22,403.65 L438.68,404.24 Z M440.49,432.36 L436.70,434.49 L438.47,434.49 L435.81,438.13 L440.49,432.36 Z M341.55,436.12 L336.88,434.36 L339.15,435.24 L341.55,436.12 Z M358.36,444.02 L358.49,443.81 L352.67,442.64 L358.36,444.02 Z M365.86,357.95 L373.52,369.79 L366.35,357.56 L365.86,357.95 Z M370.24,354.50 L368.97,338.07 L368.34,332.18 L370.24,354.50 Z M393.14,350.89 L393.61,351.74 L394.85,351.66 L393.14,350.89 Z M342.94,391.11 L335.74,393.11 L332.42,395.34 L342.94,391.11 Z M377.19,376.56 L375.04,377.19 L359.24,385.72 L377.19,376.56 Z M368.85,405.15 L366.19,403.90 L369.73,407.78 L368.85,405.15 Z M344.59,314.12 L338.90,314.12 L346.48,314.25 L344.59,314.12 Z M340.42,323.40 L338.80,330.84 L339.41,330.30 L340.42,323.40 Z" /></g></svg>