<svg xmlns="http://www.w3.org/2000/svg" viewBox="0 0 1000 1000" width="1000" height="1000"><g fill="#cccccc" stroke="#222" stroke-width="2"><path d="M71.08,935.32 L68.95,932.40 L65.92,934.88 L60.07,935.45 L57.73,937.68 L54.54,937.68 L52.41,935.64 L50.39,937.17 L46.67,938.00 L40.40,930.42 L35.66,922.98 L31.57,920.88 L31.30,913.62 L34.97,911.27 L35.72,909.29 L34.71,899.17 L35.88,895.73 L35.18,891.53 L38.80,886.76 L38.06,882.24 L39.86,878.17 L36.51,878.23 L31.36,870.21 L28.43,869.00 L27.79,866.97 L26.14,867.16 L24.44,863.27 L20.72,863.78 L19.23,862.06 L22.47,847.17 L24.97,844.18 L25.77,841.25 L29.44,836.03 L29.39,832.40 L32.10,831.20 L34.28,827.69 L31.99,823.81 L37.20,816.94 L41.94,817.26 L43.27,812.99 L44.38,811.97 L44.28,809.11 L46.78,803.95 L47.57,800.07 L48.80,797.59 L51.08,797.14 L52.57,788.36 L58.21,781.49 L54.06,772.77 L55.39,768.69 L58.37,765.45 L59.11,762.90 L58.95,754.12 L56.99,748.96 L57.52,741.39 L56.67,739.48 L52.52,735.72 L52.41,732.92 L49.28,730.38 L49.06,724.52 L49.75,722.61 L53.58,719.49 L55.28,713.32 L58.42,710.77 L59.70,704.41 L58.53,700.08 L60.50,701.03 L62.04,700.59 L69.16,691.55 L72.19,688.88 L74.80,688.94 L75.28,688.18 L75.92,681.30 L77.35,679.46 L75.54,679.08 L78.58,675.00 L80.44,665.01 L81.29,665.20 L82.19,667.62 L85.01,668.70 L86.13,672.96 L89.90,673.73 L93.62,671.37 L94.90,673.28 L97.93,674.49 L101.28,672.20 L102.03,667.87 L101.39,665.90 L102.19,663.86 L101.87,660.74 L101.76,661.83 L101.60,658.45 L103.46,654.83 L105.11,654.89 L106.01,653.74 L108.83,642.16 L110.50,639.80 L110.16,639.80 L108.09,637.26 L107.88,634.97 L109.47,632.04 L110.48,622.62 L112.56,619.95 L112.50,615.62 L114.63,614.41 L114.47,611.86 L112.72,611.29 L110.96,608.30 L113.30,606.13 L115.21,606.01 L118.51,601.81 L119.52,597.29 L118.99,594.93 L120.85,593.15 L120.69,591.49 L122.07,589.71 L121.44,586.02 L124.25,583.67 L122.93,581.50 L124.15,579.66 L124.09,577.81 L123.03,576.16 L120.48,574.69 L120.96,573.42 L119.15,571.25 L119.95,566.67 L118.83,561.90 L116.17,559.10 L118.99,557.06 L118.88,554.58 L120.48,550.70 L125.21,550.51 L127.98,546.81 L130.58,545.16 L131.06,542.80 L132.02,544.39 L130.37,539.56 L132.66,538.16 L134.52,538.41 L138.82,535.10 L137.60,533.13 L138.45,531.47 L137.87,527.66 L135.95,524.03 L134.41,523.45 L134.68,517.47 L133.61,516.20 L132.92,512.57 L132.98,511.62 L136.17,511.68 L136.27,506.59 L134.41,504.61 L133.51,500.35 L137.12,495.19 L139.09,489.47 L138.72,483.42 L136.38,478.39 L137.02,472.60 L131.75,472.60 L125.96,469.99 L119.84,471.64 L118.46,468.08 L121.33,464.26 L127.66,459.74 L127.29,458.15 L129.52,453.95 L127.92,450.70 L125.85,448.79 L125.21,444.53 L123.24,443.32 L123.72,441.16 L123.08,439.95 L121.60,439.44 L120.69,437.53 L117.71,437.66 L115.43,432.12 L112.34,432.63 L110.22,431.10 L111.81,428.43 L111.28,427.22 L112.13,424.93 L115.43,422.64 L116.17,420.98 L117.45,421.11 L120.05,418.94 L119.04,413.47 L122.34,413.41 L126.59,410.54 L128.40,410.61 L128.99,405.64 L133.56,402.27 L140.05,397.62 L142.02,394.12 L142.55,391.19 L144.51,389.09 L149.67,387.37 L149.73,385.66 L153.50,382.03 L158.61,380.50 L155.15,381.07 L154.72,377.89 L155.79,375.34 L153.66,373.63 L154.30,371.59 L152.60,369.23 L152.28,363.63 L148.88,362.68 L145.90,363.82 L140.05,357.01 L136.06,357.59 L134.36,355.93 L130.64,355.04 L124.63,348.36 L122.87,344.41 L123.24,340.72 L115.11,338.81 L110.27,340.21 L106.71,335.05 L107.56,334.55 L106.97,331.24 L102.13,330.73 L98.30,325.95 L95.75,320.92 L97.77,313.61 L93.25,309.72 L91.76,305.46 L89.74,304.50 L90.01,302.79 L95.33,303.04 L95.43,299.22 L92.83,298.58 L91.44,296.29 L91.66,294.51 L90.17,289.86 L93.09,282.04 L102.19,279.49 L105.43,281.97 L107.40,281.14 L109.58,278.47 L115.16,275.54 L115.37,274.33 L117.45,272.74 L117.45,270.13 L120.00,270.26 L123.46,268.86 L128.72,263.51 L135.53,266.31 L140.79,271.79 L143.24,272.81 L144.36,272.04 L147.49,274.08 L148.29,275.99 L153.71,276.43 L154.67,269.94 L157.60,265.68 L156.64,263.00 L157.97,262.24 L162.65,264.66 L163.23,265.81 L166.48,264.66 L168.02,265.93 L171.37,262.56 L168.34,255.62 L168.28,252.76 L166.05,252.18 L162.49,246.33 L161.74,242.64 L159.30,239.52 L166.58,230.80 L170.36,229.59 L172.49,227.55 L172.49,225.32 L170.52,221.38 L170.31,218.90 L165.79,214.06 L164.51,210.37 L166.90,211.39 L172.49,208.90 L173.76,205.72 L173.07,201.52 L174.72,199.80 L169.40,196.36 L165.84,185.93 L164.08,184.27 L160.68,176.63 L159.40,177.33 L158.98,174.79 L158.02,173.51 L156.69,173.51 L153.66,169.50 L151.43,169.76 L151.80,167.28 L153.87,166.90 L155.52,164.60 L156.80,165.24 L157.28,164.29 L156.43,161.80 L157.33,160.79 L158.55,160.98 L159.83,163.84 L161.42,165.11 L166.42,160.08 L169.56,159.32 L170.73,160.21 L171.79,158.62 L170.31,154.80 L171.26,150.54 L174.19,150.92 L177.54,148.44 L176.95,147.48 L173.71,147.67 L172.70,142.01 L170.68,138.57 L171.37,136.98 L170.52,132.40 L171.42,125.84 L170.15,124.70 L169.88,122.41 L168.60,122.28 L169.24,117.76 L168.23,111.84 L170.15,108.08 L171.90,106.94 L171.05,103.31 L172.91,97.20 L176.74,97.20 L178.34,95.48 L178.92,91.73 L174.51,86.51 L173.82,83.13 L171.95,83.07 L171.10,84.66 L169.19,84.60 L167.81,82.56 L165.52,81.86 L165.15,80.02 L165.79,79.06 L164.19,76.26 L164.77,70.60 L163.07,70.34 L162.86,67.92 L163.66,67.09 L163.39,64.10 L164.99,61.11 L162.38,58.57 L162.06,56.47 L160.15,55.89 L157.86,51.76 L163.29,47.55 L164.93,44.69 L167.11,44.18 L169.19,36.61 L171.37,32.85 L177.17,29.16 L180.52,30.43 L182.80,36.29 L189.50,42.08 L190.25,45.26 L192.37,47.68 L193.12,50.23 L192.05,57.48 L194.66,64.48 L193.49,67.29 L193.97,69.58 L196.89,73.40 L197.00,75.05 L201.25,76.39 L202.58,78.87 L202.37,82.05 L206.15,86.57 L208.49,87.53 L209.82,92.81 L214.44,96.88 L216.94,100.89 L217.58,101.78 L221.78,99.05 L229.65,98.73 L230.02,100.70 L228.27,101.91 L229.44,106.49 L227.90,111.08 L228.69,112.67 L229.54,122.60 L227.90,124.51 L228.96,124.76 L229.33,127.62 L230.55,128.39 L230.61,133.42 L231.62,133.80 L232.04,135.58 L232.20,141.18 L233.27,143.54 L234.22,143.79 L232.89,146.34 L232.20,145.00 L231.46,145.51 L231.46,147.36 L234.01,149.14 L236.19,148.18 L238.42,148.56 L243.10,144.36 L251.35,148.69 L251.24,153.02 L252.25,154.17 L255.33,156.14 L259.85,155.57 L265.23,156.78 L271.39,159.83 L274.53,158.94 L276.50,157.16 L282.19,161.87 L286.34,162.76 L288.41,162.25 L292.03,163.33 L293.89,161.36 L295.32,161.04 L297.08,161.80 L299.52,160.79 L305.21,161.17 L310.43,169.50 L315.37,172.05 L319.89,164.09 L324.84,163.33 L327.60,159.96 L334.51,161.49 L336.16,163.08 L336.54,165.81 L337.86,167.21 L337.65,170.65 L339.57,173.45 L345.68,176.19 L346.64,183.44 L352.65,185.04 L354.88,187.20 L363.28,188.85 L366.53,194.01 L372.85,195.47 L373.17,199.80 L375.30,204.07 L373.44,209.29 L373.49,212.15 L372.11,213.61 L372.43,216.73 L374.29,217.37 L374.08,218.96 L371.10,221.57 L369.50,224.56 L367.01,231.69 L367.01,234.17 L365.09,236.40 L364.67,238.95 L362.64,240.47 L360.10,240.61 L361.69,244.23 L359.88,247.67 L360.25,250.91 L354.03,253.33 L349.14,257.72 L348.07,260.14 L348.34,264.09 L351.48,267.59 L351.11,270.32 L351.48,273.57 L354.51,281.72 L358.28,286.17 L358.18,287.32 L363.87,290.06 L367.75,295.85 L374.77,293.62 L377.59,296.61 L382.21,293.68 L385.83,296.23 L398.27,299.92 L406.68,314.88 L409.71,315.90 L412.74,314.81 L417.15,316.34 L419.33,318.70 L419.01,323.09 L420.08,325.83 L423.48,324.93 L430.02,325.83 L435.82,320.86 L439.59,320.29 L443.90,321.31 L446.34,319.27 L452.35,318.82 L459.27,311.57 L457.72,308.13 L455.65,296.93 L452.78,293.75 L453.95,288.97 L452.35,280.76 L454.27,277.20 L452.67,274.02 L453.68,270.96 L450.86,266.76 L450.81,265.81 L452.09,265.17 L452.30,262.88 L456.45,260.14 L457.67,257.21 L459.27,256.00 L461.02,256.96 L463.89,255.56 L470.59,259.19 L475.01,263.90 L476.39,269.18 L479.05,266.82 L483.83,271.09 L485.54,274.33 L487.77,274.21 L490.16,275.99 L491.54,275.35 L492.45,276.12 L495.48,274.33 L499.95,274.53 L501.12,273.19 L502.29,268.67 L499.84,265.04 L499.57,263.07 L501.81,253.58 L498.03,245.12 L501.28,243.91 L503.24,241.94 L506.38,241.36 L509.84,237.23 L509.31,235.44 L510.95,232.96 L510.42,231.69 L511.43,228.83 L509.73,221.51 L511.43,219.60 L512.44,218.83 L513.03,216.10 L516.33,214.25 L516.80,213.04 L518.45,213.04 L519.36,211.51 L519.68,209.03 L518.98,207.95 L521.00,207.69 L521.48,205.78 L520.10,204.38 L520.74,202.79 L522.60,203.37 L522.39,202.16 L523.98,199.87 L523.56,197.51 L525.26,197.06 L525.21,195.66 L526.80,194.71 L526.75,192.86 L529.25,188.73 L531.27,186.63 L534.99,186.05 L536.00,184.08 L532.44,179.18 L532.54,176.82 L534.35,175.11 L533.82,172.05 L529.14,170.71 L527.97,168.74 L528.77,166.00 L530.90,165.37 L534.94,161.42 L537.06,154.42 L535.36,151.05 L532.49,150.47 L530.95,149.65 L525.05,150.35 L526.96,146.15 L523.93,143.98 L522.55,139.91 L527.60,138.00 L529.09,133.86 L534.03,130.68 L535.79,124.19 L534.94,118.71 L532.22,117.31 L535.79,110.95 L538.18,109.74 L540.04,105.16 L544.35,102.93 L552.27,106.17 L555.14,104.97 L566.38,107.43 L567.80,105.35 L572.59,102.74 L576.26,101.78 L581.84,104.77 L587.26,103.76 L587.32,98.35 L590.99,95.80 L591.89,93.64 L595.82,93.70 L597.74,95.61 L599.92,93.95 L600.72,87.84 L604.60,87.46 L604.70,93.32 L606.35,96.31 L610.87,96.05 L612.52,97.39 L618.48,97.84 L625.34,97.39 L627.04,95.99 L627.52,98.09 L629.54,98.86 L632.25,97.77 L636.29,94.27 L638.84,88.35 L642.62,87.53 L647.09,90.01 L648.79,89.24 L652.99,91.09 L657.19,85.30 L661.98,82.75 L663.09,80.78 L671.07,81.99 L678.04,76.58 L682.56,75.43 L685.37,76.45 L687.66,74.03 L689.89,75.81 L693.40,74.80 L693.46,70.53 L700.05,69.96 L704.46,67.29 L708.35,67.35 L709.36,66.27 L710.26,63.98 L713.18,63.08 L714.41,60.73 L718.02,61.30 L721.21,60.22 L721.85,61.81 L723.39,62.13 L724.99,59.58 L726.85,61.94 L730.57,63.08 L733.76,59.90 L735.41,61.56 L738.71,59.90 L740.15,60.60 L742.43,59.65 L744.51,59.46 L745.89,57.36 L750.67,58.88 L752.54,58.95 L756.95,55.64 L760.78,50.04 L765.99,40.87 L774.18,46.85 L780.03,48.76 L783.01,48.25 L785.56,50.35 L784.76,53.92 L786.46,49.08 L785.82,47.24 L786.46,47.17 L786.52,45.45 L787.69,47.30 L787.79,45.26 L791.46,45.26 L791.62,44.94 L792.15,46.85 L795.40,45.58 L800.98,41.25 L802.63,35.65 L801.78,34.51 L801.51,35.46 L799.70,34.82 L799.38,32.60 L798.91,33.23 L797.68,32.41 L797.79,30.56 L796.14,30.56 L795.66,29.29 L796.83,27.19 L796.46,25.85 L797.63,24.96 L798.43,25.66 L797.90,26.87 L799.92,29.54 L804.60,32.60 L806.03,32.41 L808.80,28.46 L812.36,28.46 L813.21,29.35 L812.15,31.96 L810.34,32.53 L810.23,36.10 L810.98,36.10 L811.14,38.45 L812.62,39.92 L812.47,41.00 L814.06,41.83 L814.96,40.81 L815.60,45.07 L812.94,50.67 L812.68,53.54 L817.84,62.89 L824.54,72.25 L828.63,74.48 L830.60,73.52 L833.31,70.02 L834.75,71.30 L836.08,70.98 L835.70,73.27 L834.37,74.60 L833.47,74.29 L832.51,76.01 L833.26,81.48 L835.70,84.60 L840.22,86.06 L842.14,85.74 L843.15,88.10 L840.97,88.48 L841.66,89.88 L841.34,92.11 L839.00,94.46 L835.38,102.67 L837.35,108.72 L850.49,130.30 L856.55,136.41 L860.91,139.02 L863.57,139.27 L865.48,136.47 L869.36,138.44 L871.01,137.04 L871.60,137.49 L871.17,139.02 L873.09,140.48 L872.77,142.45 L873.62,145.19 L874.89,145.06 L873.09,147.93 L873.41,150.35 L871.01,151.94 L871.54,153.59 L870.37,157.03 L866.39,161.04 L862.93,158.24 L859.53,159.83 L857.88,156.39 L859.21,160.02 L861.07,162.06 L861.18,163.78 L862.82,163.78 L863.57,165.30 L860.64,167.21 L859.85,164.29 L855.59,164.09 L852.19,166.64 L850.27,169.82 L848.89,175.11 L848.73,180.71 L851.02,199.67 L850.06,203.56 L852.29,205.15 L850.70,206.61 L849.95,213.10 L853.46,235.38 L853.57,245.06 L855.86,254.98 L861.07,279.55 L863.09,287.89 L872.34,319.65 L881.54,346.89 L893.13,376.81 L904.35,402.33 L906.22,408.82 L916.74,430.40 L925.68,448.22 L941.47,476.29 L946.20,484.50 L946.10,487.87 L944.56,487.81 L944.24,489.91 L947.53,499.01 L948.81,499.27 L949.02,506.01 L945.19,508.24 L941.74,505.82 L942.11,507.80 L940.41,509.26 L939.72,512.32 L940.41,523.96 L940.99,526.64 L942.38,528.16 L941.58,530.77 L942.64,535.55 L944.18,537.58 L944.08,538.41 L942.69,538.03 L942.22,539.94 L943.81,545.29 L943.23,547.96 L947.27,560.56 L948.38,561.20 L948.44,563.55 L944.08,561.52 L940.14,556.49 L936.74,555.79 L933.39,547.45 L930.52,547.20 L930.20,545.09 L928.44,544.27 L929.56,539.18 L927.33,534.40 L928.87,533.70 L929.24,531.67 L927.65,527.46 L923.87,523.96 L925.31,523.65 L924.40,521.67 L923.13,519.44 L921.74,519.25 L920.89,520.59 L919.14,520.08 L919.62,518.11 L918.02,515.24 L916.11,512.44 L914.19,511.93 L913.82,508.24 L912.38,508.24 L908.98,505.51 L906.38,506.91 L904.19,506.21 L901.86,503.15 L893.72,505.44 L890.79,503.79 L891.75,494.24 L890.79,502.32 L888.03,498.76 L883.19,495.07 L882.76,496.85 L880.85,498.38 L880.74,496.91 L878.35,495.96 L878.30,494.18 L874.20,492.97 L872.87,489.78 L868.57,487.68 L867.18,488.32 L866.17,486.47 L866.76,483.99 L865.22,486.79 L862.03,488.51 L861.02,490.17 L855.43,492.33 L854.58,494.81 L847.72,495.70 L846.07,497.87 L839.96,495.96 L838.20,494.88 L837.62,492.78 L831.13,490.48 L829.48,491.95 L827.14,491.82 L825.49,495.64 L825.92,496.98 L823.37,497.68 L822.89,496.66 L823.79,495.64 L820.81,491.06 L819.27,490.23 L817.25,492.27 L813.64,500.80 L812.31,502.07 L810.55,501.43 L805.55,505.63 L803.90,505.06 L802.31,506.27 L799.60,505.25 L797.90,506.65 L791.51,505.19 L788.70,505.70 L783.48,501.05 L781.94,501.11 L781.20,503.41 L779.66,503.79 L778.27,506.71 L777.05,507.48 L779.50,517.54 L779.34,521.04 L780.08,522.63 L779.55,526.19 L780.77,532.75 L780.40,536.12 L778.27,537.20 L777.85,540.19 L778.06,546.56 L779.18,550.31 L777.48,550.63 L775.30,553.75 L768.75,555.60 L767.42,553.31 L766.57,555.85 L765.03,557.32 L762.90,556.93 L758.92,552.48 L757.37,552.92 L755.09,551.33 L754.02,549.17 L749.93,547.26 L748.28,544.01 L749.24,542.10 L747.91,540.83 L746.31,542.36 L746.53,546.75 L744.08,550.82 L744.24,552.35 L740.04,554.90 L738.07,554.39 L734.88,552.03 L732.22,556.62 L733.13,559.61 L731.26,562.09 L724.25,565.21 L719.41,570.49 L717.12,569.79 L713.45,572.53 L715.31,576.79 L714.25,583.48 L709.99,580.55 L708.82,580.67 L706.91,581.82 L706.75,585.32 L701.96,587.10 L701.54,590.09 L699.09,593.02 L698.35,591.81 L696.33,592.26 L694.04,590.48 L693.30,587.87 L689.73,583.54 L690.32,579.02 L688.51,572.21 L678.73,568.01 L676.65,563.49 L674.15,562.85 L670.91,559.54 L668.20,558.78 L666.18,559.42 L664.21,556.49 L656.07,563.74 L654.74,569.22 L655.54,571.13 L654.64,574.63 L653.89,577.94 L646.02,580.99 L641.66,584.62 L633.05,585.07 L616.78,579.47 L605.93,577.87 L600.13,571.83 L593.96,568.07 L590.67,556.11 L587.10,551.27 L582.42,547.96 L581.52,549.49 L578.22,548.09 L576.47,550.51 L572.37,548.91 L568.23,558.65 L563.49,562.15 L562.85,568.71 L564.13,571.38 L564.08,573.16 L568.49,577.24 L571.84,582.20 L571.63,586.98 L570.57,589.65 L573.97,595.06 L576.68,596.52 L576.84,600.15 L575.09,604.35 L568.81,611.29 L566.58,616.45 L549.56,636.69 L548.66,639.36 L546.74,640.06 L545.47,642.73 L545.09,650.12 L541.32,655.02 L539.19,656.35 L535.84,662.91 L531.27,665.96 L528.13,673.16 L530.31,676.85 L530.74,681.88 L525.21,684.36 L522.55,683.91 L519.57,685.69 L516.59,684.42 L514.78,685.44 L511.22,683.09 L507.29,683.15 L502.29,678.44 L500.11,681.68 L496.60,683.59 L494.95,681.94 L492.77,682.96 L490.32,682.51 L486.65,685.31 L484.37,685.25 L482.88,687.54 L481.65,689.07 L480.96,692.89 L478.52,691.68 L478.62,693.97 L475.22,693.65 L473.89,696.58 L472.72,697.15 L469.80,696.26 L466.61,698.04 L463.31,697.02 L461.29,699.38 L459.96,699.32 L459.43,701.03 L458.31,700.27 L455.65,706.32 L453.68,706.44 L453.63,707.97 L454.85,709.18 L452.09,709.31 L451.18,710.20 L448.63,706.38 L450.81,704.66 L451.72,704.98 L452.46,702.05 L447.25,702.12 L447.20,704.22 L444.59,705.23 L439.91,704.03 L435.92,700.33 L434.43,700.14 L430.71,706.38 L432.68,711.47 L431.61,712.17 L429.91,711.60 L428.64,712.68 L428.53,716.50 L424.17,718.28 L416.62,718.66 L415.02,719.36 L414.49,721.40 L415.87,723.25 L419.54,725.09 L418.96,730.76 L419.49,729.10 L420.29,731.08 L418.00,732.16 L416.14,731.78 L416.19,733.88 L411.83,737.00 L411.94,740.05 L410.72,741.39 L411.30,743.93 L409.12,748.01 L408.64,749.66 L409.55,750.93 L404.23,760.93 L404.92,762.39 L397.32,757.62 L395.88,755.14 L394.13,755.26 L391.52,757.24 L391.31,760.42 L388.75,763.79 L385.62,769.77 L382.32,772.64 L381.36,777.03 L379.56,778.24 L376.90,778.75 L373.28,775.38 L367.38,774.87 L362.38,776.58 L358.60,780.40 L346.11,776.71 L341.96,777.98 L336.64,777.54 L330.10,765.96 L327.02,764.17 L321.38,756.60 L318.30,754.31 L307.50,751.63 L305.37,755.58 L302.77,755.26 L300.06,756.85 L298.73,757.43 L296.17,755.90 L293.30,756.09 L292.72,757.68 L287.08,759.85 L285.38,763.09 L286.76,782.06 L285.01,783.84 L281.71,783.14 L280.81,786.70 L279.16,788.61 L278.09,788.30 L277.24,790.21 L277.78,792.69 L275.97,795.36 L270.33,796.06 L267.19,792.50 L263.52,790.27 L261.18,790.71 L259.80,788.55 L257.99,787.85 L255.23,793.77 L252.46,791.92 L250.76,794.66 L247.41,795.68 L247.31,801.34 L245.44,802.68 L238.96,799.50 L235.02,798.86 L225.93,794.09 L221.78,795.49 L217.26,793.39 L213.22,794.22 L209.12,791.03 L207.00,790.65 L204.76,800.01 L201.89,804.08 L201.89,811.46 L197.96,819.48 L193.54,823.05 L191.36,827.25 L192.69,831.00 L192.53,837.43 L194.98,843.80 L192.80,848.19 L192.37,854.81 L191.20,858.18 L190.94,865.57 L187.11,866.52 L186.10,868.30 L186.36,870.02 L190.78,876.32 L190.46,878.80 L187.38,882.94 L186.90,889.05 L182.59,891.47 L178.07,897.20 L173.97,895.80 L168.92,890.83 L167.75,891.02 L167.11,897.26 L161.11,902.23 L160.68,912.79 L156.27,917.18 L149.25,919.16 L144.57,919.28 L142.07,917.57 L137.65,917.82 L135.32,915.40 L134.30,915.40 L131.49,917.57 L130.58,922.91 L127.50,924.63 L119.95,922.21 L118.41,922.79 L118.41,927.88 L121.28,940.61 L120.80,942.58 L113.73,941.50 L108.20,949.96 L106.65,950.15 L101.39,955.25 L94.69,957.47 L91.34,960.53 L90.54,962.12 L91.44,972.43 L86.66,976.25 L85.22,980.77 L84.64,979.62 L82.24,975.36 L83.63,955.76 L83.57,944.43 L81.82,943.66 L78.20,938.76 L77.22,933.03 L77.19,933.10 L73.52,933.61 L71.08,935.32 Z M105.06,662.47 L104.05,661.25 L101.87,660.74 L105.06,662.47 Z M834.64,115.34 L834.43,117.31 L837.35,108.72 L834.64,115.34 Z M840.49,202.09 L848.94,203.88 L850.06,203.56 L840.49,202.09 Z M525.37,317.81 L524.04,317.17 L526.22,318.69 L526.22,318.06 L525.37,317.81 Z M538.71,328.94 L534.67,326.53 L538.95,329.24 L538.77,328.85 L538.71,328.94 Z M540.10,331.77 L541.01,334.14 L541.11,333.97 L540.10,331.77 Z M542.69,346.87 L542.59,347.08 L542.89,347.36 L542.69,346.87 Z M544.56,351.41 L543.83,349.63 L544.03,354.09 L544.35,351.35 L544.56,351.41 Z M546.65,352.01 L550.78,353.19 L548.87,352.11 L546.65,352.01 Z M569.13,375.60 L568.33,374.07 L569.29,377.15 L570.25,372.61 L569.13,375.60 Z M582.85,405.20 L587.60,408.58 L586.89,407.61 L582.85,405.20 Z M588.96,409.55 L590.35,410.54 L592.63,411.14 L588.96,409.55 Z M593.53,411.37 L594.49,411.62 L601.46,411.43 L593.53,411.37 Z M604.65,417.03 L602.80,421.38 L604.55,418.63 L604.65,417.03 Z M647.72,439.37 L650.60,449.49 L649.75,445.87 L647.72,439.37 Z M653.52,458.28 L649.37,465.34 L650.70,463.12 L653.52,458.28 Z M642.30,506.84 L640.23,507.22 L639.87,508.07 L642.30,506.84 Z M322.87,296.99 L323.29,296.29 L324.84,289.23 L322.87,296.99 Z M316.91,332.25 L318.08,340.97 L317.71,337.79 L316.91,332.25 Z M340.92,379.54 L341.53,377.51 L341.16,373.50 L340.92,379.54 Z M337.92,390.11 L339.99,385.27 L340.09,384.61 L337.92,390.11 Z M320.32,414.74 L323.51,411.62 L326.64,408.06 L320.32,414.74 Z M325.16,432.76 L325.72,431.26 L325.65,430.87 L325.16,432.76 Z M326.80,467.95 L341.32,460.82 L338.50,461.65 L326.80,467.95 Z M324.89,470.63 L323.19,475.27 L326.80,467.95 L324.89,470.63 Z M306.44,565.40 L306.22,567.24 L306.92,563.93 L306.44,565.40 Z M299.99,596.04 L300.32,592.83 L299.95,583.22 L299.99,596.04 Z M358.76,558.14 L357.70,557.70 L355.94,557.51 L358.76,558.14 Z M356.58,569.47 L358.02,563.62 L358.76,558.14 L356.58,569.47 Z M331.75,589.39 L328.88,594.04 L333.77,587.29 L331.75,589.39 Z M348.66,611.48 L349.19,611.23 L341.53,611.23 L348.66,611.48 Z M354.19,615.62 L351.21,611.23 L350.66,611.23 L354.19,615.62 Z M324.30,689.07 L323.72,690.85 L324.77,688.51 L324.30,689.07 Z M323.51,696.32 L324.06,698.43 L323.95,695.83 L323.51,696.32 Z M349.03,736.17 L346.53,733.30 L344.14,731.78 L349.03,736.17 Z M184.77,148.25 L184.26,148.26 L184.85,148.93 L184.77,148.25 Z M185.04,150.60 L184.97,150.06 L184.83,150.76 L185.04,150.60 Z M200.14,176.25 L200.14,174.21 L203.75,174.66 L199.58,173.77 L200.14,176.25 Z M260.60,224.18 L260.09,223.46 L260.71,228.51 L260.60,224.18 Z M270.01,290.25 L270.12,288.59 L269.32,294.07 L270.01,290.25 Z M256.81,312.86 L256.45,312.01 L255.86,312.22 L256.81,312.86 Z M225.18,488.96 L225.13,487.49 L224.85,487.36 L225.18,488.96 Z M243.58,538.86 L240.02,536.18 L244.43,540.58 L243.58,538.86 Z M241.77,542.04 L243.95,541.28 L244.43,540.58 L241.77,542.04 Z M258.79,573.10 L257.46,570.75 L262.30,580.61 L258.79,573.10 Z M280.38,646.68 L277.14,648.21 L274.15,650.96 L280.38,646.68 Z M264.22,663.16 L264.32,660.36 L264.27,659.28 L264.22,663.16 Z M267.94,671.63 L268.68,672.37 L264.22,663.16 L267.94,671.63 Z M260.25,657.45 L263.20,657.24 L260.97,656.93 L260.25,657.45 Z M251.77,668.51 L252.52,662.59 L251.61,666.28 L251.77,668.51 Z M253.93,674.46 L252.99,669.46 L253.53,674.17 L253.93,674.46 Z M262.73,682.00 L262.46,681.57 L263.07,684.24 L262.73,682.00 Z M263.63,687.92 L263.43,686.61 L263.10,691.36 L263.63,687.92 Z M267.13,693.90 L267.57,692.00 L266.77,693.59 L264.75,693.65 L267.13,693.90 Z M269.00,692.63 L269.19,692.39 L267.57,692.00 L269.00,692.63 Z M270.33,688.88 L269.56,691.91 L269.69,691.74 L270.33,688.88 Z M272.83,696.32 L272.55,696.04 L273.04,697.66 L272.83,696.32 Z M277.46,723.25 L276.71,713.45 L276.71,719.17 L277.46,723.25 Z M183.39,493.73 L183.01,503.02 L183.17,500.10 L183.39,493.73 Z M206.31,489.91 L206.68,491.31 L205.61,491.69 L207.20,491.46 L206.31,489.91 Z M207.38,491.43 L208.17,491.31 L208.38,490.23 L207.38,491.43 Z M215.35,643.69 L212.42,637.77 L211.36,635.73 L215.35,643.69 Z M266.98,694.54 L267.12,693.92 L263.31,697.21 L266.98,694.54 Z M73.98,870.49 L74.11,864.17 L73.68,869.64 L73.98,870.49 Z M223.58,723.89 L224.92,724.39 L229.65,724.33 L223.58,723.89 Z M200.24,558.84 L202.64,560.12 L201.25,559.10 L201.27,558.65 L200.24,558.84 Z M212.10,556.30 L208.06,559.29 L212.75,556.30 L212.10,556.30 Z M214.23,556.30 L213.09,556.30 L214.78,556.74 L214.23,556.30 Z M222.52,560.37 L219.51,559.82 L220.08,560.24 L222.52,560.37 Z M227.90,558.27 L231.46,556.81 L222.52,560.37 L227.90,558.27 Z M230.79,638.34 L231.39,637.98 L231.14,637.77 L230.79,638.34 Z M151.06,537.65 L154.44,536.30 L154.35,536.25 L151.06,537.65 Z M201.37,556.14 L200.94,557.19 L201.30,557.99 L201.37,556.14 Z M187.20,380.31 L186.63,379.99 L183.49,380.31 L187.20,380.31 Z M191.26,386.04 L189.13,381.39 L188.25,380.90 L191.26,386.04 Z M223.11,346.07 L222.01,345.14 L223.75,347.66 L223.11,346.07 Z M234.76,328.88 L231.35,327.10 L229.75,327.04 L234.76,328.88 Z M215.88,461.27 L213.48,464.71 L214.07,464.01 L215.88,461.27 Z M213.22,452.80 L218.86,449.94 L213.75,451.91 L214.55,448.41 L213.22,452.80 Z M222.40,486.23 L222.47,486.47 L223.03,486.52 L222.40,486.23 Z M188.33,280.64 L182.80,283.12 L185.35,282.35 L188.33,280.64 Z M208.01,272.49 L206.84,272.87 L211.04,272.36 L208.01,272.49 Z M241.08,300.81 L239.17,299.41 L241.10,301.61 L241.08,300.81 Z M189.71,309.85 L191.90,307.86 L191.90,307.86 L189.71,309.85 Z M215.93,201.39 L217.01,196.53 L216.68,196.81 L215.93,201.39 Z M274.74,525.81 L278.67,526.91 L278.41,526.57 L274.74,525.81 Z M279.17,527.59 L277.99,534.34 L279.32,527.78 L279.17,527.59 Z M289.37,548.53 L288.30,545.54 L287.35,540.45 L288.30,546.94 L289.37,548.53 Z M276.24,683.60 L276.04,683.43 L275.98,683.69 L276.24,683.60 Z M276.29,682.45 L276.26,682.57 L276.49,682.38 L276.34,681.81 L276.29,682.45 Z M297.29,664.54 L296.81,664.44 L296.19,665.10 L297.29,664.54 Z M303.41,661.13 L300.27,665.20 L303.03,662.27 L300.85,669.02 L303.41,661.13 Z M279.05,684.99 L278.40,685.07 L285.59,691.49 L279.05,684.99 Z M310.86,717.81 L309.36,716.68 L309.63,717.65 L310.86,717.81 Z M313.83,717.96 L313.09,718.12 L314.72,718.34 L313.83,717.96 Z M311.10,702.85 L311.28,702.18 L311.15,702.04 L311.10,702.85 Z M308.62,649.10 L308.99,653.87 L308.46,638.98 L308.62,649.10 Z M311.60,635.08 L309.36,637.07 L308.46,638.98 L311.60,635.08 Z M313.87,628.95 L313.57,632.63 L314.15,631.91 L313.87,628.95 Z M314.04,617.46 L314.84,620.33 L314.28,617.05 L314.04,617.46 Z M313.64,614.51 L313.95,615.11 L313.88,614.73 L313.64,614.51 Z M311.26,621.17 L309.68,620.26 L305.69,620.14 L311.26,621.17 Z M289.05,555.53 L290.14,556.36 L287.08,551.17 L286.71,551.59 L289.05,555.53 Z M284.69,466.62 L285.27,467.38 L284.10,464.64 L284.69,466.62 Z M287.99,465.41 L299.26,454.08 L285.27,467.38 L287.99,465.41 Z M269.30,496.07 L268.31,493.16 L268.84,496.28 L269.30,496.07 Z M288.04,494.56 L284.23,497.44 L285.27,497.42 L288.04,494.56 Z M307.66,507.73 L310.11,511.91 L310.21,510.98 L307.66,507.73 Z M301.97,325.44 L312.92,320.60 L312.92,320.60 L301.97,325.44 Z M317.02,306.67 L321.14,299.86 L319.78,301.38 L317.02,306.67 Z M324.96,187.45 L323.13,180.52 L323.93,185.48 L324.96,187.45 Z M325.58,189.81 L325.36,188.97 L324.36,191.59 L325.58,189.81 Z M403.22,516.10 L402.51,516.37 L403.06,516.52 L403.22,516.10 Z M404.49,511.62 L404.16,513.65 L406.30,508.12 L404.49,511.62 Z M406.25,502.71 L406.14,502.36 L406.30,508.12 L406.25,502.71 Z M375.90,642.51 L377.96,636.18 L375.78,641.78 L375.90,642.51 Z M370.85,647.01 L372.48,647.44 L371.05,646.49 L370.85,647.01 Z M370.05,647.83 L369.78,647.12 L369.19,647.00 L370.05,647.83 Z M370.41,648.78 L370.23,648.31 L369.66,650.05 L370.41,648.78 Z M361.90,656.73 L364.40,654.76 L358.07,658.90 L361.90,656.73 Z M367.93,665.88 L366.58,661.70 L367.27,665.20 L367.93,665.88 Z M368.87,668.76 L368.56,667.81 L369.13,672.77 L368.87,668.76 Z M364.29,685.12 L364.55,685.79 L365.04,684.36 L366.05,683.02 L364.29,685.12 Z M383.44,685.89 L383.47,685.91 L382.53,684.49 L383.81,688.30 L383.44,685.89 Z M387.90,699.63 L388.81,692.44 L387.48,701.35 L387.90,699.63 Z M384.54,714.97 L387.21,714.15 L385.67,714.15 L384.54,714.97 Z M382.64,717.90 L383.12,716.00 L382.69,716.31 L382.64,717.90 Z M367.05,703.14 L367.01,704.60 L362.86,706.57 L367.40,704.98 L367.05,703.14 Z M368.13,695.29 L367.22,697.60 L367.17,699.27 L368.15,695.30 L368.13,695.29 Z M363.65,686.44 L363.81,686.97 L363.23,689.64 L364.47,686.02 L363.65,686.44 Z M350.52,733.30 L354.62,729.87 L350.19,733.30 L350.52,733.30 Z M362.91,721.47 L363.07,719.87 L361.96,722.48 L362.91,721.47 Z M366.31,711.22 L366.61,711.78 L366.43,710.96 L366.31,711.22 Z M369.08,716.44 L368.12,713.76 L367.46,713.39 L369.08,716.44 Z M377.43,703.26 L377.51,702.92 L376.79,705.43 L375.86,708.98 L375.99,708.67 L377.43,703.26 Z M360.84,725.83 L360.84,725.85 L365.84,727.51 L362.91,726.24 L360.84,725.83 Z M362.99,734.38 L363.44,734.32 L363.55,733.05 L362.99,734.38 Z M361.86,737.09 L362.38,736.87 L362.43,735.73 L361.86,737.09 Z M361.10,738.90 L360.62,742.21 L361.25,738.55 L361.10,738.90 Z M372.32,740.31 L372.22,736.49 L371.53,746.03 L372.32,740.31 Z M378.28,699.57 L377.93,699.53 L378.07,700.47 L378.28,699.57 Z M370.83,617.27 L371.15,614.85 L370.25,619.18 L370.83,617.27 Z M364.45,586.66 L364.61,579.59 L364.24,589.20 L364.45,586.66 Z M337.30,676.96 L335.63,675.13 L336.69,676.85 L337.30,676.96 Z M338.50,676.72 L337.85,677.07 L339.71,677.42 L338.50,676.72 Z M362.59,682.96 L363.50,685.93 L363.71,685.38 L362.59,682.96 Z M349.17,698.16 L349.30,697.34 L347.49,695.43 L349.17,698.16 Z M353.87,632.55 L358.60,637.01 L357.86,635.54 L353.87,632.55 Z M364.08,355.10 L362.82,353.53 L362.82,353.53 L364.08,355.10 Z M386.84,398.11 L383.92,396.41 L385.56,398.07 L386.84,398.11 Z M388.97,399.34 L388.00,398.78 L388.80,400.01 L388.97,399.34 Z M388.38,405.83 L387.74,404.18 L388.09,406.33 L388.38,405.83 Z M381.52,416.59 L381.15,418.82 L381.36,420.60 L381.52,416.59 Z M377.80,423.53 L378.46,422.98 L372.91,425.12 L377.80,423.53 Z M362.85,353.47 L364.24,352.30 L366.05,348.55 L362.85,353.47 Z M417.90,582.20 L419.49,581.76 L419.89,580.87 L417.90,582.20 Z M421.30,579.93 L422.20,579.78 L424.38,577.87 L421.30,579.93 Z M479.87,548.63 L481.23,548.72 L480.06,548.28 L479.87,548.63 Z M487.82,560.12 L488.83,561.13 L490.16,561.26 L487.82,560.12 Z M485.48,573.14 L483.99,573.29 L485.48,573.35 L485.48,573.14 Z M445.43,625.85 L444.75,624.97 L442.73,624.21 L445.43,625.85 Z M446.77,630.70 L446.08,626.69 L446.06,626.66 L446.77,630.70 Z M392.16,695.11 L394.10,695.31 L393.65,694.86 L392.16,695.11 Z M409.85,666.36 L406.62,664.37 L409.49,666.60 L409.85,666.36 Z M471.18,620.20 L470.94,620.06 L470.49,629.56 L471.18,620.20 Z M494.11,601.19 L493.92,602.10 L494.47,601.61 L494.11,601.19 Z M492.77,596.78 L492.24,599.01 L493.09,596.71 L492.77,596.78 Z M498.78,614.06 L496.86,612.18 L498.56,614.03 L498.78,614.06 Z M484.80,670.55 L491.33,663.99 L485.06,669.53 L484.80,670.55 Z M483.37,671.99 L484.46,670.89 L483.20,671.31 L483.37,671.99 Z M494.95,467.44 L494.26,465.28 L492.98,463.75 L494.95,467.44 Z M517.18,470.24 L516.70,468.46 L516.66,472.98 L517.18,470.24 Z M519.62,461.40 L519.40,460.71 L517.71,467.83 L519.62,461.40 Z M518.56,458.15 L516.86,457.13 L518.95,459.34 L518.56,458.15 Z M517.87,450.32 L522.28,447.78 L517.06,450.35 L517.87,450.32 Z M524.89,444.66 L527.81,440.71 L522.28,447.78 L524.89,444.66 Z M572.96,488.89 L572.69,488.57 L573.17,492.27 L573.46,494.82 L572.96,488.89 Z M573.69,496.79 L574.18,494.69 L573.69,496.79 L573.69,496.79 Z M596.92,462.95 L595.19,463.94 L594.36,465.40 L596.92,462.95 Z M601.04,461.27 L601.41,460.38 L599.96,461.21 L601.04,461.27 Z M495.34,495.27 L495.53,485.20 L495.16,494.62 L495.34,495.27 Z M498.78,506.52 L496.99,501.26 L498.89,508.14 L498.78,506.52 Z M502.02,520.02 L501.88,519.58 L500.53,523.77 L502.02,520.02 Z M573.76,497.42 L574.02,499.65 L576.31,507.22 L573.76,497.42 Z M393.59,372.10 L393.43,373.88 L394.24,371.21 L393.59,372.10 Z M454.11,417.80 L453.80,417.90 L455.01,419.55 L454.11,417.80 Z M467.22,421.47 L464.37,422.19 L466.55,422.19 L467.22,421.47 Z M495.53,402.01 L494.42,395.71 L494.68,398.58 L495.53,402.01 Z M528.93,383.30 L527.86,384.45 L527.37,386.71 L528.93,383.30 Z M528.56,412.45 L531.53,417.99 L529.62,413.53 L528.56,412.45 Z M530.90,419.39 L531.08,423.71 L531.48,423.14 L530.90,419.39 Z M490.59,333.08 L496.22,335.37 L496.53,335.06 L490.59,333.08 Z M504.11,331.08 L504.36,330.85 L503.46,327.54 L504.11,331.08 Z M506.58,327.05 L507.29,327.35 L512.34,326.14 L506.58,327.05 Z M476.44,325.95 L478.36,328.56 L479.50,329.57 L476.44,325.95 Z M495.91,392.85 L494.84,388.07 L495.52,393.58 L495.91,392.85 Z M493.50,358.27 L493.73,359.24 L494.12,359.96 L493.50,358.27 Z M754.13,109.74 L757.00,112.48 L752.88,108.00 L754.13,109.74 Z M759.24,113.67 L759.24,113.67 L757.96,111.78 L759.24,113.67 Z M764.29,110.57 L762.16,111.08 L761.83,111.46 L764.29,110.57 Z M770.30,118.90 L769.90,124.85 L772.05,122.60 L770.40,123.81 L770.30,118.90 Z M774.28,129.47 L772.96,125.27 L772.05,122.60 L774.28,129.47 Z M768.58,127.57 L769.39,127.50 L769.40,127.12 L768.58,127.57 Z M757.90,146.16 L758.38,148.69 L758.07,143.66 L757.90,146.16 Z M766.90,184.26 L767.21,184.14 L767.24,183.64 L766.90,184.26 Z M765.84,186.16 L766.10,186.18 L766.11,185.67 L765.84,186.16 Z M765.40,185.61 L764.50,186.05 L765.63,186.14 L765.40,185.61 Z M753.97,197.64 L751.88,197.42 L763.33,201.27 L753.97,197.64 Z M745.36,227.30 L745.32,227.62 L749.56,221.63 L745.36,227.30 Z M750.35,240.23 L754.77,232.07 L750.36,240.15 L750.35,240.23 Z M780.47,213.40 L783.22,212.79 L781.30,212.85 L780.47,213.40 Z M790.82,219.41 L795.45,217.69 L788.80,219.98 L790.82,219.41 Z M798.96,218.71 L801.35,219.02 L797.58,218.07 L795.45,217.69 L798.96,218.71 Z M797.15,235.00 L797.06,235.29 L797.54,234.83 L797.15,235.00 Z M798.43,261.15 L798.64,260.90 L798.36,260.96 L798.43,261.15 Z M796.51,267.21 L796.58,267.27 L797.15,262.62 L796.51,267.21 Z M805.00,274.10 L802.89,273.38 L801.25,273.89 L805.00,274.10 Z M805.99,274.44 L807.09,275.86 L806.79,274.45 L806.62,274.65 L805.99,274.44 Z M799.45,293.25 L800.13,292.47 L799.94,292.14 L799.45,293.25 Z M792.95,298.78 L796.73,296.36 L797.06,295.98 L792.95,298.78 Z M801.67,361.02 L802.57,361.91 L799.12,354.66 L801.67,361.02 Z M806.84,362.27 L804.75,361.53 L802.57,361.91 L806.84,362.27 Z M810.66,364.01 L810.50,363.57 L809.77,363.31 L810.66,364.01 Z M810.29,369.23 L811.40,365.99 L811.10,365.18 L810.29,369.23 Z M807.31,386.10 L807.26,389.89 L807.47,389.60 L807.73,394.18 L807.31,386.10 Z M806.56,390.88 L802.95,392.59 L801.30,393.87 L806.03,391.64 L806.56,390.88 Z M794.60,408.06 L796.57,406.60 L796.64,406.18 L794.60,408.06 Z M788.47,463.38 L791.35,464.13 L788.64,463.37 L788.47,463.38 Z M791.73,477.56 L793.06,474.25 L793.69,471.39 L791.73,477.56 Z M780.13,493.53 L780.78,493.95 L780.81,493.73 L780.13,493.53 Z M664.10,103.69 L658.63,94.80 L658.63,95.16 L664.10,103.69 Z M666.50,134.51 L666.81,131.95 L666.41,134.44 L666.50,134.51 Z M685.20,158.21 L679.53,159.17 L683.78,158.94 L685.20,158.21 Z M688.78,154.87 L686.64,157.48 L687.39,157.09 L688.78,154.87 Z M696.38,161.36 L696.65,161.12 L695.53,160.91 L696.38,161.36 Z M693.61,186.39 L692.29,178.03 L693.61,186.39 L693.61,186.39 Z M692.98,187.07 L693.52,186.48 L687.82,189.36 L692.98,187.07 Z M679.47,195.03 L680.91,195.09 L675.85,193.82 L679.47,195.03 Z M683.03,240.09 L678.46,240.79 L678.36,240.86 L683.03,240.09 Z M676.07,276.05 L672.61,259.25 L676.06,277.56 L676.07,276.05 Z M666.92,293.75 L676.01,285.09 L669.74,290.76 L666.92,293.75 Z M662.79,280.85 L663.74,282.59 L663.25,281.14 L662.79,280.85 Z M660.54,280.11 L661.49,280.02 L661.07,279.74 L660.54,280.11 Z M679.74,354.21 L682.98,351.86 L680.96,353.00 L679.74,354.21 Z M749.43,367.49 L747.48,370.13 L749.43,367.49 L749.43,367.49 Z M763.38,407.74 L761.95,404.05 L764.02,412.01 L763.38,407.74 Z M763.81,420.03 L761.31,420.22 L759.71,420.98 L763.81,420.03 Z M741.79,475.97 L743.38,473.15 L741.10,476.29 L741.79,475.97 Z M734.72,479.22 L740.04,476.78 L738.66,476.74 L734.72,479.22 Z M730.15,498.50 L723.34,497.29 L725.36,497.87 L730.15,498.50 Z M777.00,492.65 L773.65,494.43 L777.70,492.85 L777.00,492.65 Z M653.68,464.01 L655.47,465.65 L654.11,464.13 L653.68,464.01 Z M675.96,477.88 L677.64,478.43 L677.93,478.03 L675.96,477.88 Z M694.22,496.85 L694.96,500.43 L694.73,497.87 L694.22,496.85 Z M565.44,204.92 L568.76,208.84 L567.37,206.55 L565.44,204.92 Z M567.00,231.03 L567.00,231.03 L570.19,231.75 L567.00,231.03 Z M593.98,240.85 L594.44,240.85 L595.88,238.18 L593.98,240.85 Z M693.35,391.00 L683.94,398.64 L683.30,399.40 L693.35,391.00 Z M688.40,412.30 L688.40,413.98 L689.60,415.97 L688.40,412.30 Z M690.29,418.08 L690.11,418.75 L691.33,421.23 L690.29,418.08 Z M690.37,434.54 L690.08,434.41 L691.60,436.77 L690.37,434.54 Z M691.93,446.57 L692.07,446.38 L691.60,436.77 L691.93,446.57 Z M654.97,439.04 L655.97,441.67 L655.70,439.50 L654.97,439.04 Z M564.77,288.78 L566.42,285.41 L563.93,289.20 L564.77,288.78 Z M569.48,312.50 L569.29,312.01 L569.05,311.92 L569.48,312.50 Z M631.08,325.63 L628.42,326.40 L627.62,327.19 L631.08,325.63 Z M627.78,348.68 L624.38,349.25 L628.63,348.80 L627.78,348.68 Z M539.34,327.94 L540.20,327.48 L540.84,325.57 L539.34,327.94 Z M543.61,326.71 L542.06,325.38 L540.84,325.57 L543.61,326.71 Z M544.74,327.68 L545.41,328.94 L551.26,333.27 L544.74,327.68 Z M570.82,329.03 L570.72,331.68 L571.08,332.89 L570.82,329.03 Z M571.49,339.02 L571.31,341.99 L571.82,343.93 L571.49,339.02 Z M588.65,365.92 L588.06,365.48 L583.38,365.54 L588.65,365.92 Z M620.18,346.00 L617.41,350.14 L616.78,352.49 L620.18,346.00 Z M560.80,265.51 L562.16,277.71 L561.42,266.31 L560.80,265.51 Z M558.39,263.28 L559.13,263.32 L563.17,260.71 L558.39,263.28 Z M640.92,274.78 L639.00,273.00 L642.09,277.39 L640.92,274.78 Z M643.36,277.45 L647.94,275.67 L642.09,277.39 L643.36,277.45 Z M671.76,247.73 L669.74,251.17 L671.75,248.24 L671.76,247.73 Z M561.15,241.49 L562.96,241.05 L563.09,240.62 L561.15,241.49 Z M587.05,142.33 L587.39,141.72 L583.49,144.55 L587.05,142.33 Z M590.61,135.90 L588.01,139.84 L587.98,140.65 L590.61,135.90 Z M615.45,127.88 L616.17,127.95 L613.32,126.29 L615.45,127.88 Z M639.00,130.62 L646.93,125.91 L639.00,130.62 L639.00,130.62 Z M587.16,159.07 L583.59,157.28 L588.06,160.08 L587.16,159.07 Z M621.14,166.76 L619.63,167.09 L620.34,167.60 L621.14,166.76 Z M623.85,161.80 L621.63,166.26 L622.78,165.05 L623.85,161.80 Z M576.95,202.09 L578.17,198.34 L578.78,195.84 L576.95,202.09 Z M605.13,191.78 L606.35,190.76 L607.52,189.75 L605.13,191.78 Z M580.30,176.19 L586.62,171.80 L586.97,171.13 L580.30,176.19 Z M579.29,179.05 L578.65,183.95 L580.30,176.19 L579.29,179.05 Z M550.98,150.96 L550.40,149.06 L550.04,149.39 L550.98,150.96 Z M659.64,133.80 L657.03,134.31 L664.95,133.35 L659.64,133.80 Z M680.22,474.06 L679.46,475.89 L683.19,470.69 L680.22,474.06 Z M742.59,452.74 L743.27,452.54 L740.73,452.30 L742.59,452.74 Z M721.69,425.05 L722.43,425.38 L721.58,424.61 L721.69,425.05 Z M724.14,426.14 L726.27,424.80 L723.51,425.86 L724.14,426.14 Z M700.32,119.03 L703.13,121.70 L700.09,118.57 L700.32,119.03 Z M712.55,129.92 L716.43,129.28 L711.48,127.88 L715.47,129.34 L712.55,129.92 Z M713.34,144.68 L714.15,142.52 L713.88,142.52 L713.34,144.68 Z M720.78,141.95 L720.79,141.95 L721.64,140.54 L720.78,141.95 Z M725.50,138.91 L724.99,138.57 L721.64,140.54 L725.50,138.91 Z M750.14,245.56 L748.76,246.07 L752.43,245.18 L750.14,245.56 Z M772.82,297.10 L772.00,300.56 L772.90,298.78 L772.82,297.10 Z M782.37,308.45 L780.34,308.57 L781.20,308.83 L782.37,308.45 Z M773.86,327.29 L776.57,327.29 L774.60,326.91 L772.05,326.08 L773.86,327.29 Z M724.72,208.21 L725.26,206.93 L724.67,207.89 L724.72,208.21 Z M684.10,333.02 L680.53,327.86 L682.34,331.11 L684.10,333.02 Z M717.01,314.69 L716.85,318.00 L716.85,321.56 L717.01,314.69 Z M717.41,344.43 L718.24,345.81 L720.47,346.70 L717.41,344.43 Z M712.60,221.58 L713.35,223.39 L713.13,222.21 L712.60,221.58 Z M716.43,277.20 L714.30,279.94 L715.79,278.22 L716.43,277.20 Z M720.42,288.27 L720.18,287.89 L722.07,296.48 L720.42,288.27 Z M731.69,252.95 L732.13,253.15 L731.05,247.92 L731.69,252.95 Z M736.72,255.24 L736.26,254.48 L733.90,253.95 L736.72,255.24 Z M732.70,188.34 L731.42,187.77 L734.03,189.62 L732.70,188.34 Z M754.98,185.11 L753.84,185.52 L754.18,185.61 L754.98,185.11 Z M756.74,183.00 L755.89,184.54 L756.52,184.14 L756.74,183.00 Z M734.35,148.82 L735.53,149.50 L735.41,149.14 L734.35,148.82 Z M736.09,151.25 L736.22,153.50 L736.69,153.15 L736.09,151.25 Z M741.70,160.62 L744.37,164.95 L744.08,163.52 L741.70,160.62 Z M699.56,117.51 L699.04,115.40 L695.16,108.66 L699.56,117.51 Z M725.79,107.00 L725.68,103.69 L724.94,99.81 L725.79,107.00 Z M739.61,121.70 L736.26,123.55 L741.63,121.64 L739.61,121.70 Z M679.90,88.67 L680.09,89.21 L680.61,85.37 L679.90,88.67 Z M681.46,93.11 L681.28,91.15 L680.27,89.74 L681.46,93.11 Z M726.69,83.01 L726.36,82.68 L726.92,84.09 L726.69,83.01 Z M728.50,91.54 L727.86,88.52 L727.81,90.45 L728.50,91.54 Z M778.16,374.15 L786.36,363.00 L778.16,374.15 L778.16,374.15 Z M765.72,437.08 L761.54,441.10 L763.22,440.07 L765.72,437.08 Z M783.48,451.34 L781.30,450.64 L786.30,453.50 L783.48,451.34 Z M776.20,420.79 L781.14,420.22 L782.85,419.13 L776.20,420.79 Z M787.53,399.91 L789.69,397.22 L786.36,400.23 L787.53,399.91 Z M793.27,392.78 L794.54,389.98 L791.16,395.40 L793.27,392.78 Z M793.59,389.09 L790.50,388.14 L794.54,389.98 L793.59,389.09 Z M779.18,375.66 L778.93,375.47 L779.55,379.48 L779.18,375.66 Z M788.48,381.14 L787.12,380.36 L791.09,384.32 L788.48,381.14 Z M777.94,267.90 L775.08,266.25 L777.94,267.90 L777.94,267.90 Z M781.04,295.58 L780.35,294.77 L782.00,294.07 L778.94,295.06 L781.04,295.58 Z M790.88,277.58 L790.40,278.03 L790.88,282.80 L790.88,277.58 Z M790.88,273.00 L790.20,272.25 L790.88,275.12 L790.88,273.00 Z M775.99,242.83 L778.01,242.38 L775.88,242.59 L775.99,242.83 Z M774.95,240.42 L774.38,237.59 L774.13,238.50 L774.95,240.42 Z M777.54,228.13 L777.00,228.13 L777.10,228.44 L776.04,230.10 L777.54,228.13 Z M777.93,228.13 L781.36,230.80 L778.59,228.13 L777.93,228.13 Z M782.79,230.29 L787.90,231.75 L788.48,231.56 L782.79,230.29 Z M791.62,228.13 L792.54,229.26 L792.68,228.95 L791.62,228.13 Z M791.78,223.03 L791.65,222.55 L791.62,223.27 L791.78,223.03 Z M776.89,227.80 L778.91,225.26 L776.78,227.49 L776.89,227.80 Z M773.91,104.97 L769.61,109.87 L773.22,105.79 L773.91,104.97 Z M788.64,208.20 L787.42,210.05 L789.42,207.75 L788.64,208.20 Z M800.08,65.44 L799.60,64.36 L799.89,65.93 L800.08,65.44 Z M793.64,118.59 L791.99,117.12 L793.64,119.41 L793.64,118.59 Z M799.15,114.27 L798.75,112.54 L798.91,114.64 L799.15,114.27 Z M801.09,107.13 L799.39,113.90 L800.29,112.54 L801.09,107.13 Z M802.42,107.19 L802.58,106.62 L801.09,107.13 L802.42,107.19 Z M803.90,106.17 L803.84,106.20 L804.03,106.21 L803.90,106.17 Z M805.66,106.68 L805.27,106.57 L806.14,109.17 L805.66,106.68 Z M808.16,113.37 L807.36,109.93 L807.98,114.83 L808.16,113.37 Z M809.38,116.23 L808.16,116.33 L808.23,116.89 L809.38,116.23 Z M807.04,142.84 L803.69,142.01 L802.96,142.18 L807.04,142.84 Z M799.65,145.25 L801.08,142.63 L800.77,142.71 L799.65,145.25 Z M786.99,154.29 L788.54,149.39 L786.90,154.28 L786.99,154.29 Z M787.31,176.32 L788.75,175.62 L784.87,176.25 L787.31,176.32 Z M789.42,181.70 L787.05,178.86 L788.64,181.66 L789.42,181.70 Z M791.22,181.78 L792.05,179.31 L790.98,181.53 L790.25,181.74 L791.22,181.78 Z M797.15,185.34 L801.78,187.33 L797.26,184.91 L797.47,183.83 L797.15,185.34 Z M825.81,193.76 L825.65,193.99 L827.94,193.18 L825.81,193.76 Z M830.77,189.09 L829.75,192.42 L830.86,189.68 L830.77,189.09 Z M827.56,231.77 L830.01,231.94 L827.99,231.63 L828.90,231.18 L827.56,231.77 Z M842.51,243.91 L840.38,242.32 L841.55,243.46 L842.51,243.91 Z M840.44,245.76 L840.63,246.39 L841.55,243.46 L840.44,245.76 Z M845.12,239.45 L846.18,237.80 L844.00,239.77 L843.47,241.05 L845.12,239.45 Z M845.24,248.83 L845.38,244.67 L844.80,247.54 L845.24,248.83 Z M840.06,259.89 L841.23,256.58 L839.86,260.24 L840.06,259.89 Z M829.64,289.04 L834.37,283.69 L831.82,286.43 L829.64,289.04 Z M841.82,301.38 L836.50,300.88 L838.31,301.13 L841.82,301.38 Z M839.11,309.98 L837.88,307.49 L839.41,307.07 L836.93,307.11 L839.11,309.98 Z M829.64,355.10 L825.44,356.06 L814.54,359.81 L829.64,355.10 Z M786.46,105.35 L783.52,106.24 L784.12,106.30 L786.46,105.35 Z M793.85,205.15 L793.11,205.58 L794.72,205.41 L793.85,205.15 Z M793.16,212.90 L797.58,213.87 L801.30,214.19 L794.23,212.72 L793.16,212.90 Z M774.41,88.54 L773.45,88.54 L773.59,88.93 L774.41,88.54 Z M774.92,88.80 L780.08,91.34 L775.61,88.54 L774.56,88.54 L774.87,90.33 L774.92,88.80 Z M777.26,92.04 L776.62,91.09 L774.87,90.33 L777.26,92.04 Z M778.47,95.18 L778.70,94.21 L778.19,93.45 L778.47,95.18 Z M769.66,176.06 L769.17,176.37 L771.48,177.10 L769.66,176.06 Z M775.08,177.59 L773.57,177.76 L776.55,178.70 L775.08,177.59 Z M782.15,180.13 L780.72,180.33 L782.59,180.58 L782.15,180.13 Z M783.20,181.22 L786.09,192.61 L783.26,180.14 L783.32,181.34 L783.20,181.22 Z M780.29,124.25 L780.56,126.22 L781.12,126.52 L780.29,124.25 Z M788.27,124.38 L791.62,125.53 L791.62,125.53 L788.27,124.38 Z M791.86,124.85 L792.84,122.03 L791.99,123.55 L791.86,124.85 Z M787.21,68.56 L787.47,74.86 L787.32,68.02 L787.21,68.56 Z M771.79,84.09 L772.42,85.78 L772.06,83.74 L771.79,84.09 Z M772.74,82.88 L772.36,83.36 L775.77,83.13 L772.74,82.88 Z M804.33,215.01 L804.70,216.22 L803.85,213.23 L804.33,215.01 Z M812.23,244.55 L811.93,244.04 L811.71,244.36 L812.23,244.55 Z M812.78,252.18 L813.05,246.01 L812.88,245.71 L812.78,252.18 Z M817.48,255.60 L817.72,255.23 L813.95,254.03 L817.48,255.60 Z M820.07,257.59 L818.95,255.62 L818.10,255.35 L820.07,257.59 Z M822.68,254.60 L821.29,254.92 L820.91,255.75 L822.68,254.60 Z M822.14,252.33 L821.29,252.50 L821.60,252.73 L822.14,252.33 Z M831.03,249.25 L830.12,249.13 L826.18,251.61 L831.03,249.25 Z M840.14,247.94 L839.37,249.07 L839.77,249.12 L840.14,247.94 Z M824.86,258.80 L822.78,253.58 L824.74,259.15 L824.86,258.80 Z M808.21,272.74 L807.37,273.74 L808.50,273.06 L808.21,272.74 Z M824.64,270.58 L824.80,272.93 L825.64,275.03 L824.64,270.58 Z M826.18,277.45 L825.94,276.37 L824.75,281.72 L826.18,277.45 Z M823.97,282.40 L825.92,282.10 L824.75,281.72 L823.97,282.40 Z M823.85,311.63 L828.31,303.99 L828.37,302.59 L827.35,304.95 L823.85,311.63 Z M828.90,343.52 L829.20,343.42 L827.73,339.89 L828.90,343.52 Z M820.88,280.97 L822.14,276.56 L820.65,281.02 L820.88,280.97 Z M829.06,262.88 L833.62,265.55 L833.62,265.55 L829.06,262.88 Z M811.14,214.06 L805.74,213.48 L805.92,213.93 L811.14,214.06 Z M814.49,211.51 L817.65,214.12 L816.67,212.60 L816.82,212.44 L814.49,211.51 Z M824.43,226.28 L822.57,230.29 L825.76,224.31 L825.74,223.01 L824.43,226.28 Z M822.55,230.29 L823.69,230.54 L822.57,230.29 L822.55,230.29 Z M821.19,231.94 L821.35,230.44 L821.03,230.48 L821.19,231.94 Z M816.83,231.12 L818.37,238.05 L817.49,231.97 L816.83,231.12 Z M825.60,215.52 L825.17,218.71 L825.69,220.32 L825.60,215.52 Z M862.40,371.02 L860.70,371.27 L860.21,371.59 L862.40,371.02 Z M857.77,373.75 L858.26,372.85 L856.18,374.20 L857.77,373.75 Z M855.11,384.96 L856.01,375.87 L855.64,376.36 L855.11,384.96 Z M855.73,395.43 L856.02,393.74 L855.11,384.96 L855.73,395.43 Z M854.74,395.52 L856.66,400.49 L855.49,396.92 L855.58,396.37 L854.74,395.52 Z M859.05,400.42 L861.71,401.31 L859.90,400.36 L856.66,400.49 L859.05,400.42 Z M822.62,423.78 L821.86,422.68 L823.58,427.66 L822.62,423.78 Z M834.92,463.05 L832.35,462.10 L834.43,463.24 L834.92,463.05 Z M880.11,459.42 L879.66,459.50 L880.90,460.76 L880.11,459.42 Z M843.89,138.89 L840.81,140.93 L844.49,139.06 L843.89,138.89 Z M828.31,157.41 L822.41,168.42 L825.87,162.38 L828.31,157.41 Z M829.43,173.26 L830.23,175.23 L830.99,175.71 L829.43,173.26 Z M831.51,176.52 L831.10,177.06 L831.66,176.76 L831.51,176.52 Z M801.88,179.63 L798.21,177.08 L798.75,178.16 L801.88,179.63 Z M799.00,174.44 L799.54,172.62 L799.01,173.96 L799.00,174.44 Z M811.72,173.71 L811.94,173.72 L810.50,172.43 L811.72,173.71 Z M815.52,172.93 L813.57,173.82 L814.86,173.90 L815.52,172.93 Z M816.45,172.50 L816.28,172.58 L817.25,174.09 L816.45,172.50 Z M799.80,77.29 L800.82,77.60 L803.80,76.13 L799.80,77.29 Z M846.63,163.11 L847.67,163.08 L851.98,161.87 L846.63,163.11 Z M869.15,451.21 L870.11,448.67 L871.07,443.83 L869.15,451.21 Z M865.00,396.67 L869.35,394.97 L867.72,395.01 L865.00,396.67 Z M877.45,382.98 L880.66,381.72 L880.43,381.58 L877.45,382.98 Z M883.29,382.41 L884.79,383.05 L884.04,382.15 L883.29,382.41 Z M871.86,393.99 L878.88,398.83 L879.84,399.28 L874.10,394.82 L871.86,393.99 Z M874.79,429.64 L872.87,425.94 L874.76,430.66 L874.79,429.64 Z M884.53,419.38 L879.68,420.60 L883.78,419.90 L884.53,419.38 Z M888.56,418.37 L887.70,418.59 L889.52,418.82 L888.56,418.37 Z M889.20,422.51 L889.78,420.79 L889.52,418.82 L889.20,422.51 Z M891.38,432.37 L890.42,428.11 L891.31,432.75 L891.38,432.37 Z M904.25,431.48 L904.73,433.96 L904.77,430.88 L904.25,431.48 Z M905.52,430.02 L905.15,430.45 L907.65,430.34 L905.52,430.02 Z M909.35,435.17 L913.50,440.07 L908.93,433.84 L907.65,430.34 L909.35,435.17 Z M913.29,441.35 L914.58,444.59 L913.50,440.07 L913.29,441.35 Z M915.99,503.42 L915.52,503.41 L915.33,503.96 L915.99,503.42 Z M915.19,447.16 L914.41,448.77 L915.31,447.65 L915.19,447.16 Z M874.04,442.37 L874.20,448.41 L874.53,437.99 L874.04,442.37 Z M889.73,400.49 L888.67,395.97 L888.83,398.26 L889.73,400.49 Z M840.42,306.79 L844.27,305.71 L842.03,305.71 L840.33,306.41 L840.42,306.79 Z M848.89,321.82 L846.82,317.49 L847.77,319.72 L848.89,321.82 Z M858.24,317.70 L858.52,319.14 L859.07,319.38 L858.24,317.70 Z M834.69,351.67 L839.16,347.08 L835.18,350.42 L834.44,351.84 L834.69,351.67 Z M853.21,302.27 L852.88,301.07 L851.82,300.05 L853.21,302.27 Z M846.13,299.09 L845.90,299.72 L848.09,298.85 L846.13,299.09 Z M880.64,172.11 L879.84,172.56 L879.84,171.73 L880.21,171.54 L880.64,172.11 Z M868.67,133.73 L869.26,133.61 L868.73,134.18 L868.19,133.48 L868.67,133.73 Z M970.72,45.90 L972.85,45.84 L975.82,47.43 L979.81,47.43 L980.61,47.87 L980.77,49.91 L979.07,51.76 L979.55,54.49 L976.46,54.36 L971.52,58.95 L968.27,59.97 L965.72,57.80 L958.06,55.83 L956.41,56.27 L954.71,50.29 L956.04,49.65 L957.58,46.73 L963.75,45.64 L967.58,45.77 L969.87,46.92 L970.72,45.90 Z M783.06,45.77 L784.44,45.20 L783.91,45.90 L783.06,45.77 Z M788.06,45.14 L787.90,44.63 L788.00,44.56 L788.06,45.14 Z M789.55,45.14 L789.49,44.50 L789.71,45.14 L789.55,45.14 Z M950.46,22.60 L948.92,23.43 L945.94,23.05 L945.94,20.69 L950.19,19.23 L951.15,19.93 L950.46,22.60 Z" /></g></svg>