<svg xmlns="http://www.w3.org/2000/svg" viewBox="0 0 1000 1000" width="1000" height="1000"><g fill="#cccccc" stroke="#222" stroke-width="2"><path d="M355.19,837.21 L347.73,838.10 L340.17,832.45 L341.37,828.92 L339.90,824.50 L334.65,822.19 L331.97,819.06 L321.10,818.52 L310.97,809.82 L307.49,808.74 L305.35,808.87 L304.71,807.24 L301.02,805.94 L293.65,805.06 L290.15,802.41 L288.49,798.47 L277.16,802.89 L275.32,799.96 L268.60,795.95 L263.35,795.20 L256.35,797.58 L249.34,797.86 L241.05,800.51 L239.76,806.83 L233.22,809.89 L228.99,807.44 L223.27,808.53 L219.22,807.44 L212.96,808.26 L199.88,799.35 L187.07,795.61 L185.05,795.75 L184.31,797.04 L178.78,796.02 L176.66,798.74 L174.08,798.26 L172.52,796.63 L176.85,790.72 L176.20,785.76 L168.28,783.58 L163.12,777.53 L157.13,774.81 L154.74,768.49 L160.45,761.56 L156.76,765.50 L154.00,760.67 L145.34,751.97 L142.12,749.93 L133.73,748.64 L128.21,747.15 L115.22,739.33 L109.32,737.09 L100.39,733.08 L94.31,732.60 L84.54,734.03 L79.38,736.48 L67.96,738.38 L61.33,738.65 L55.53,737.16 L49.63,744.97 L40.97,739.20 L45.02,722.07 L40.69,713.98 L42.35,712.96 L45.76,713.16 L52.21,710.44 L48.06,706.30 L44.47,705.07 L44.84,703.44 L42.35,699.50 L47.83,691.42 L40.23,689.10 L41.98,679.79 L50.83,675.64 L61.05,675.57 L66.67,671.77 L75.88,666.46 L82.42,666.46 L85.92,669.18 L90.35,670.61 L94.12,669.46 L96.24,673.19 L104.81,676.18 L108.86,675.03 L114.85,677.41 L120.75,682.98 L134.10,681.89 L141.01,687.60 L143.50,687.47 L144.70,684.21 L154.83,688.62 L160.36,689.30 L165.79,693.18 L177.68,697.12 L181.27,696.03 L195.18,695.76 L203.28,695.22 L207.80,693.65 L205.77,691.07 L203.56,690.73 L203.28,689.17 L203.38,684.82 L201.63,684.95 L200.80,683.19 L189.93,678.02 L184.58,677.95 L182.74,675.50 L184.03,671.36 L189.84,667.62 L196.19,656.47 L196.01,651.85 L205.59,655.79 L211.39,656.95 L202.36,654.43 L206.69,648.25 L213.81,643.19 L199.05,638.80 L192.88,634.99 L188.91,634.65 L189.01,632.34 L192.97,628.06 L192.51,623.85 L194.90,621.94 L194.26,619.50 L197.30,614.26 L188.73,612.70 L191.95,607.40 L191.77,605.63 L182.10,596.32 L182.56,591.90 L182.66,591.99 L179.24,588.16 L173.07,583.61 L168.56,570.28 L157.23,567.63 L152.62,564.37 L146.26,558.86 L135.21,554.58 L132.08,548.33 L117.25,531.00 L112.27,528.48 L101.59,523.31 L95.23,516.04 L89.89,501.97 L84.36,497.89 L81.69,493.54 L68.98,487.63 L66.76,480.49 L63.54,474.51 L60.87,472.54 L61.61,469.68 L56.63,462.00 L55.53,456.50 L59.49,454.80 L69.25,456.91 L73.86,450.72 L72.48,445.62 L77.36,441.41 L93.48,435.43 L102.14,433.73 L104.72,431.96 L110.06,432.37 L109.23,433.93 L110.98,432.03 L110.15,428.22 L104.16,427.34 L97.81,424.07 L96.06,422.58 L96.33,420.20 L81.60,417.28 L72.75,413.13 L72.11,410.07 L65.20,408.71 L63.26,409.66 L57.55,406.74 L55.07,403.68 L58.29,395.59 L60.32,393.89 L60.87,388.87 L53.68,386.28 L60.13,380.23 L65.94,365.55 L63.08,364.87 L61.33,360.79 L55.53,356.58 L47.42,354.67 L51.75,351.82 L51.56,349.44 L57.74,349.51 L55.16,346.86 L51.84,338.77 L52.39,332.99 L49.35,332.65 L43.83,328.44 L46.41,322.66 L45.02,316.88 L46.31,297.37 L28.53,292.34 L20.52,286.43 L19.23,281.81 L24.30,278.68 L30.38,278.14 L38.94,279.43 L51.66,278.27 L52.67,277.05 L50.00,274.47 L47.79,269.30 L56.63,269.30 L55.89,264.20 L57.28,261.82 L56.08,260.60 L64.55,260.06 L68.70,264.00 L69.71,268.15 L75.42,272.56 L82.98,276.03 L96.33,273.92 L99.10,268.76 L93.02,260.53 L83.71,254.76 L84.73,250.41 L82.15,247.41 L84.54,245.44 L83.07,243.06 L86.39,241.16 L94.12,241.43 L100.85,230.63 L105.91,226.95 L106.19,223.22 L104.07,217.51 L109.32,214.11 L109.60,204.25 L95.87,189.43 L95.87,186.44 L93.57,185.15 L92.28,182.91 L93.29,179.58 L87.31,173.12 L84.91,168.29 L84.91,165.03 L82.70,162.79 L82.98,155.72 L85.46,153.68 L78.74,144.44 L69.80,140.02 L69.16,135.53 L73.03,130.98 L77.73,130.71 L82.79,128.67 L87.58,129.41 L96.24,125.54 L97.71,124.22 L96.61,113.37 L91.36,103.38 L92.28,102.57 L90.90,99.57 L92.93,97.74 L87.40,92.57 L87.86,91.96 L90.53,94.34 L95.51,95.02 L100.85,93.52 L103.61,94.34 L102.14,85.57 L102.97,82.72 L105.36,79.45 L111.26,76.19 L119.55,73.13 L130.14,71.71 L133.00,69.19 L133.64,65.79 L138.99,64.77 L143.22,62.26 L145.07,63.07 L149.49,59.67 L151.88,59.54 L153.36,62.94 L148.29,67.29 L154.37,62.33 L155.11,64.64 L157.50,64.64 L164.55,69.44 L165.88,67.29 L163.40,66.00 L166.07,61.85 L169.02,61.78 L171.32,60.08 L177.86,58.38 L178.41,54.44 L172.52,51.04 L178.87,49.95 L183.29,47.03 L191.59,46.69 L192.88,43.50 L189.74,42.00 L190.48,41.12 L194.72,40.17 L209.09,40.71 L210.10,38.33 L211.94,37.86 L210.47,37.65 L209.83,35.20 L214.06,37.86 L213.69,35.54 L216.83,34.86 L219.31,31.94 L221.06,31.94 L226.87,34.39 L231.57,39.15 L239.95,40.85 L240.96,42.00 L245.20,42.34 L247.32,39.42 L258.19,45.26 L262.33,45.47 L267.40,44.38 L267.12,43.56 L275.69,45.13 L276.52,46.28 L275.32,47.17 L274.79,47.33 L277.90,47.51 L279.65,45.33 L280.88,47.33 L283.34,42.68 L283.24,39.89 L278.91,35.48 L279.47,32.35 L271.27,31.53 L271.27,29.22 L275.41,23.99 L270.26,20.32 L275.78,19.23 L282.14,21.27 L284.81,20.59 L292.64,28.68 L290.89,30.17 L295.13,28.14 L308.12,30.65 L314.20,34.93 L327.55,32.55 L329.30,32.89 L329.86,38.13 L335.01,40.98 L334.46,45.33 L343.40,40.57 L345.42,40.51 L349.94,41.93 L355.47,41.73 L357.03,45.94 L360.99,46.42 L361.45,48.12 L368.09,48.46 L369.74,49.55 L368.36,50.36 L369.84,50.84 L370.39,53.35 L373.43,54.30 L382.18,58.93 L391.39,58.31 L396.27,59.88 L407.51,60.90 L410.37,68.03 L409.91,71.37 L405.39,76.06 L398.02,80.20 L405.57,88.62 L418.47,89.79 L420.78,92.84 L422.62,98.69 L422.16,98.96 L421.33,97.87 L419.95,98.49 L419.58,100.32 L417.46,99.91 L415.53,102.36 L419.12,104.67 L419.86,110.59 L424.28,115.62 L443.53,127.44 L443.99,129.28 L436.99,135.67 L437.73,137.64 L440.58,139.27 L455.60,141.04 L464.90,146.14 L462.69,152.52 L463.52,157.15 L467.67,161.90 L473.01,162.79 L480.47,160.14 L485.91,159.80 L489.50,161.43 L490.51,163.67 L504.61,166.26 L501.38,163.20 L502.86,160.14 L507.65,158.23 L508.01,156.13 L522.20,155.79 L524.69,155.18 L527.08,152.46 L528.37,153.27 L532.79,151.91 L542.47,153.20 L547.16,155.24 L549.38,160.55 L556.65,161.57 L562.09,159.39 L565.31,160.55 L570.56,159.93 L572.96,162.18 L576.27,162.99 L581.06,172.03 L581.06,170.27 L586.78,164.69 L597.28,161.90 L600.41,162.52 L610.54,161.16 L613.40,155.99 L618.19,157.62 L622.79,156.60 L626.20,155.11 L627.49,152.32 L638.73,156.67 L640.76,156.33 L643.15,154.77 L645.73,149.33 L648.50,150.21 L648.13,153.07 L649.14,151.51 L652.00,150.89 L652.73,149.60 L656.14,149.94 L656.79,147.63 L663.79,143.89 L668.21,145.52 L671.43,144.64 L674.57,138.25 L677.24,136.01 L679.63,129.01 L686.17,124.45 L688.01,120.37 L690.69,118.47 L702.85,120.44 L710.22,129.82 L728.09,141.45 L728.82,144.84 L743.19,146.68 L747.62,149.40 L750.47,153.14 L750.01,156.88 L754.25,160.34 L754.43,164.76 L759.59,167.07 L760.70,169.59 L752.04,171.15 L761.07,169.65 L764.84,169.45 L776.17,173.53 L773.96,176.52 L772.49,182.84 L784.19,189.03 L786.31,192.56 L792.11,197.66 L805.10,195.89 L807.68,197.32 L812.65,197.11 L815.69,198.61 L824.17,207.51 L833.47,210.10 L839.92,208.94 L847.10,215.74 L849.78,216.28 L856.96,214.24 L858.44,214.79 L858.99,217.91 L855.03,225.80 L860.74,229.33 L864.70,230.35 L872.90,226.41 L877.32,225.80 L886.99,229.54 L893.90,236.88 L896.20,243.61 L893.26,246.33 L890.86,251.49 L898.78,253.80 L900.26,256.66 L903.02,256.66 L904.77,259.04 L905.05,263.32 L913.71,264.00 L915.09,267.40 L912.23,268.01 L914.26,275.42 L912.42,275.42 L905.97,279.36 L902.10,287.25 L898.05,292.14 L893.16,295.47 L888.28,304.24 L884.50,306.41 L884.87,308.05 L881.37,307.37 L877.78,308.32 L877.32,310.08 L875.57,309.41 L875.29,311.24 L873.45,310.97 L875.11,312.06 L874.46,313.28 L872.35,312.87 L872.16,313.69 L870.96,312.67 L869.31,313.62 L869.86,314.30 L868.20,315.25 L869.03,318.51 L866.63,318.58 L865.80,321.57 L862.58,320.96 L861.48,323.00 L859.45,322.73 L859.63,324.22 L862.67,325.58 L859.17,327.42 L856.78,327.62 L858.25,335.64 L857.33,338.09 L862.67,339.31 L858.90,343.80 L862.12,344.89 L867.37,344.21 L869.12,345.29 L869.67,348.56 L863.41,346.52 L868.11,350.19 L858.16,355.35 L853.92,352.16 L852.82,352.98 L853.92,355.69 L852.08,356.99 L847.66,353.45 L850.14,355.76 L844.25,359.09 L838.81,358.07 L837.52,359.91 L836.42,358.55 L833.38,359.91 L834.12,363.51 L829.79,357.94 L826.84,359.09 L825.09,357.60 L822.97,354.67 L824.07,351.82 L819.75,352.02 L820.57,350.94 L825.36,350.46 L825.36,349.31 L822.23,348.49 L818.64,348.97 L816.71,352.70 L814.22,354.27 L809.43,351.89 L813.11,349.31 L812.65,347.95 L811.55,347.67 L809.61,349.98 L807.03,349.98 L805.37,345.63 L800.49,348.76 L795.98,348.97 L791.46,346.65 L784.46,349.64 L785.48,354.13 L791.28,355.01 L793.86,353.79 L798.01,356.78 L797.27,358.69 L785.20,361.95 L777.44,360.59 L776.54,361.81 L780.04,364.53 L779.30,367.59 L770.46,365.28 L767.24,366.03 L763.18,368.54 L759.22,366.64 L757.66,367.39 L758.95,370.85 L761.40,371.99 L762.17,371.53 L764.66,372.62 L763.64,376.09 L766.41,377.85 L767.61,381.66 L771.11,383.36 L769.54,385.67 L766.13,385.67 L768.25,387.64 L767.42,389.20 L759.59,386.76 L748.26,389.88 L745.77,391.58 L743.65,393.22 L721.45,396.75 L721.64,397.97 L718.78,398.45 L713.16,399.81 L701.00,401.10 L686.63,403.07 L677.14,403.68 L658.54,401.30 L638.82,397.70 L630.16,392.33 L628.60,391.18 L622.06,384.24 L619.48,365.41 L615.15,354.34 L607.50,346.72 L601.98,334.49 L600.69,328.51 L599.64,325.17 L588.53,322.05 L578.76,315.11 L572.77,310.22 L568.26,307.09 L564.76,305.19 L553.89,302.34 L550.57,302.40 L547.26,303.56 L539.80,309.88 L535.93,311.72 L523.95,315.66 L519.53,319.47 L518.88,331.63 L511.42,354.34 L506.63,357.80 L497.51,363.38 L490.51,369.36 L482.77,373.78 L471.07,379.01 L464.63,383.36 L460.67,388.39 L457.26,392.74 L456.34,396.95 L457.53,400.69 L462.51,408.10 L472.55,414.83 L476.88,420.81 L485.45,431.14 L486.18,433.79 L483.23,445.49 L479.37,448.07 L474.58,452.22 L467.02,463.16 L463.71,468.73 L461.77,471.32 L462.51,477.64 L467.21,488.78 L481.39,500.82 L487.38,498.50 L486.55,495.79 L487.66,495.24 L489.22,496.60 L490.24,493.95 L493.92,496.67 L491.99,497.42 L492.91,499.12 L490.51,501.50 L491.71,502.58 L497.73,502.98 L499.72,502.11 L498.34,501.56 L500.37,501.50 L503.04,499.25 L511.24,498.91 L513.54,501.16 L516.49,503.47 L527.18,500.34 L528.10,499.93 L536.76,498.64 L547.44,491.78 L547.53,495.04 L552.14,498.64 L552.14,504.42 L553.61,506.19 L562.36,509.79 L575.81,509.99 L579.96,519.58 L589.26,522.70 L596.08,529.91 L598.94,533.44 L599.76,538.40 L606.77,539.76 L616.25,544.86 L621.23,545.81 L623.26,544.45 L632.74,543.98 L642.78,553.29 L651.17,555.87 L653.75,555.40 L656.97,558.66 L663.05,561.31 L666.83,561.52 L671.62,561.65 L674.66,563.69 L687.00,557.71 L694.37,561.72 L700.27,558.05 L707.54,559.75 L712.33,557.98 L717.22,558.05 L720.07,556.15 L725.69,556.96 L726.43,560.43 L729.65,561.11 L727.26,562.94 L724.40,562.40 L726.24,564.23 L724.59,565.93 L718.05,567.16 L714.55,568.99 L713.53,574.16 L714.45,575.18 L710.40,577.69 L709.94,579.80 L708.10,578.37 L706.16,583.27 L703.77,583.74 L702.48,585.78 L692.34,588.91 L691.33,588.91 L691.40,593.17 L696.12,590.74 L698.33,590.95 L700.27,588.30 L701.83,590.47 L706.16,589.32 L706.90,590.47 L705.89,590.95 L708.10,593.12 L710.03,592.85 L717.49,597.74 L720.90,598.70 L720.99,600.74 L724.68,602.77 L723.76,603.66 L725.32,604.95 L727.63,604.20 L729.56,605.09 L729.65,611.54 L731.22,612.15 L730.39,613.79 L720.63,614.06 L731.13,614.26 L732.51,613.45 L731.86,615.15 L730.11,615.49 L731.13,616.84 L725.51,620.04 L724.95,626.22 L723.02,627.79 L720.35,629.28 L711.04,629.62 L707.45,630.98 L705.79,637.10 L702.48,640.36 L704.96,640.91 L705.15,641.99 L706.16,639.82 L711.87,640.16 L721.55,638.80 L728.46,636.35 L729.01,632.48 L732.78,630.37 L731.96,625.75 L733.61,623.30 L739.60,623.37 L741.81,621.47 L740.25,616.10 L744.12,616.50 L746.42,618.54 L751.76,618.48 L756.00,619.97 L758.58,622.83 L761.62,622.76 L759.96,623.78 L767.70,622.28 L771.84,624.46 L773.78,624.19 L773.23,618.82 L777.19,617.73 L776.08,621.87 L777.28,623.51 L782.44,625.68 L780.87,629.08 L779.03,627.58 L771.66,630.17 L773.13,630.85 L772.12,632.68 L768.62,633.77 L771.75,633.63 L771.84,634.86 L773.13,634.93 L771.84,637.03 L773.50,638.12 L773.69,642.33 L775.53,643.08 L772.30,646.28 L774.24,647.23 L771.84,648.86 L787.96,648.72 L788.15,655.18 L789.35,670.61 L796.90,684.34 L804.91,689.24 L800.40,696.51 L803.35,700.65 L816.61,712.07 L819.47,713.09 L820.48,714.93 L820.94,717.72 L817.53,723.63 L814.40,724.11 L812.38,725.87 L811.09,725.06 L807.77,726.28 L807.68,728.80 L811.55,732.60 L810.16,734.17 L811.55,736.34 L812.93,737.16 L814.68,736.14 L814.95,731.58 L816.80,734.37 L815.51,735.18 L817.90,738.11 L816.06,739.40 L817.72,742.46 L816.89,743.41 L818.55,744.84 L816.61,749.53 L819.75,753.06 L823.61,754.69 L820.57,756.46 L821.86,757.96 L815.88,761.01 L815.05,760.13 L811.27,760.54 L810.07,758.57 L808.51,758.64 L807.03,760.67 L804.36,760.06 L802.52,761.22 L805.65,764.41 L804.45,765.64 L805.37,768.83 L810.72,769.24 L812.56,768.42 L814.59,769.44 L819.28,767.95 L820.02,769.31 L823.71,769.44 L828.13,765.36 L832.73,767.20 L834.94,765.50 L836.97,765.77 L840.93,774.27 L839.55,778.62 L843.70,781.47 L850.79,783.11 L843.42,781.20 L855.76,783.04 L860.83,777.26 L864.88,780.32 L876.31,781.54 L879.53,785.76 L884.69,787.93 L886.53,790.51 L895.84,797.04 L899.34,804.52 L901.64,811.25 L903.67,815.12 L911.96,821.37 L913.71,823.89 L923.47,840.54 L927.99,839.32 L930.56,842.17 L930.93,845.78 L935.26,849.24 L945.40,844.28 L946.41,852.10 L950.37,855.84 L960.78,859.23 L962.90,861.68 L966.03,861.48 L967.96,863.11 L976.16,863.24 L975.43,873.85 L977.91,894.31 L980.77,898.32 L972.75,898.52 L968.15,902.26 L960.13,901.65 L956.17,902.53 L955.34,904.44 L952.77,903.69 L950.65,904.37 L945.40,900.29 L935.35,896.55 L928.17,890.84 L922.37,884.45 L919.97,874.19 L920.71,879.56 L916.29,880.17 L917.48,883.91 L911.68,891.52 L906.61,891.86 L902.84,887.38 L893.53,889.14 L888.93,887.99 L883.40,889.89 L879.62,878.06 L876.95,873.95 L879.81,880.58 L888.10,904.37 L890.40,905.18 L890.22,906.48 L884.32,907.49 L884.97,909.81 L883.77,911.44 L887.91,917.96 L885.33,918.03 L886.90,920.55 L886.07,924.08 L888.65,925.17 L890.86,931.15 L887.73,936.04 L888.01,938.63 L878.52,938.97 L877.32,935.70 L878.33,928.57 L873.91,927.00 L863.96,926.19 L863.69,922.04 L866.36,917.15 L861.48,916.67 L861.94,914.97 L859.08,915.04 L853.64,911.30 L846.46,910.69 L840.84,908.24 L836.51,909.60 L833.19,908.24 L822.60,908.85 L822.32,911.71 L825.73,914.97 L828.50,913.82 L829.60,915.04 L830.98,914.50 L833.47,918.17 L835.04,918.17 L832.46,921.29 L829.51,920.61 L828.77,921.43 L833.38,923.81 L830.80,924.56 L831.81,926.32 L835.87,927.48 L836.60,929.52 L840.29,931.01 L839.55,933.73 L843.05,937.06 L847.57,939.31 L845.26,943.38 L849.04,945.02 L849.68,947.05 L852.91,948.89 L853.92,951.68 L858.90,956.03 L863.32,957.93 L862.67,960.24 L861.20,960.31 L861.01,962.08 L857.70,964.52 L836.97,970.03 L831.63,976.28 L822.97,980.77 L814.22,980.23 L811.45,978.32 L809.24,978.19 L801.41,971.93 L789.90,965.61 L786.77,962.14 L784.46,961.33 L782.90,958.20 L780.13,957.79 L775.34,954.46 L769.26,952.56 L767.05,950.79 L765.58,952.22 L761.53,951.34 L748.72,943.04 L729.19,937.74 L726.15,936.79 L716.94,943.86 L709.39,945.02 L690.87,942.09 L689.03,938.08 L678.99,935.57 L674.75,937.67 L673.92,941.28 L671.07,943.66 L651.90,942.64 L637.35,936.72 L629.98,933.19 L615.24,933.19 L610.63,931.15 L601.88,929.52 L590.55,925.98 L586.68,925.98 L593.22,926.94 L587.51,928.23 L584.38,927.68 L579.22,931.22 L565.13,934.96 L559.60,933.05 L546.52,930.95 L539.98,927.61 L531.04,926.39 L529.20,924.01 L520.08,921.91 L516.31,923.54 L509.30,922.65 L506.36,918.71 L496.68,914.63 L494.38,914.90 L491.34,913.07 L489.04,913.75 L469.88,901.92 L468.22,905.25 L464.35,905.25 L449.43,898.93 L445.83,894.99 L442.24,896.76 L439.48,896.69 L428.98,893.08 L434.41,885.95 L436.97,879.24 L434.60,878.88 L432.75,878.20 L433.77,876.30 L432.48,871.88 L415.99,866.24 L415.16,864.88 L412.95,864.88 L411.66,862.29 L416.26,856.45 L412.21,854.20 L412.21,852.91 L408.25,852.51 L403.37,850.19 L403.92,846.18 L389.73,842.31 L386.88,839.45 L380.43,836.87 L376.38,835.85 L366.52,836.80 L360.53,833.81 L355.19,837.21 Z M111.34,438.07 L110.70,435.15 L109.23,433.93 L111.34,438.07 Z M605.29,328.10 L607.69,326.19 L604.09,328.03 L600.69,328.51 L605.29,328.10 Z M610.36,327.49 L610.28,326.78 L607.69,326.19 L610.36,327.49 Z M555.46,295.67 L553.06,297.92 L550.57,302.40 L555.46,295.67 Z M529.39,292.48 L529.66,294.45 L535.93,311.72 L529.39,292.48 Z M517.50,304.99 L519.07,316.75 L519.53,319.47 L517.50,304.99 Z M469.51,423.53 L469.84,424.06 L476.88,420.81 L469.51,423.53 Z M699.40,639.04 L700.17,639.96 L702.48,640.36 L699.40,639.04 Z M122.96,451.20 L121.67,449.22 L121.24,448.95 L122.96,451.20 Z M126.71,464.42 L126.18,463.97 L124.69,464.02 L126.71,464.42 Z M128.21,466.22 L133.92,470.36 L128.24,465.68 L128.21,466.22 Z M141.29,470.64 L142.74,470.08 L133.92,470.36 L141.29,470.64 Z M208.35,496.60 L208.52,497.40 L210.65,494.02 L208.35,496.60 Z M231.01,501.97 L237.83,502.99 L226.22,500.07 L231.01,501.97 Z M256.08,510.17 L258.00,509.18 L256.07,509.65 L256.08,510.17 Z M256.16,512.71 L261.20,517.44 L256.13,511.62 L256.16,512.71 Z M276.52,535.55 L286.65,538.27 L276.23,535.20 L276.52,535.55 Z M297.71,544.25 L303.88,548.12 L295.70,541.83 L297.71,544.25 Z M378.22,547.72 L379.42,545.61 L379.60,542.96 L378.22,547.72 Z M382.73,564.44 L382.75,564.41 L377.02,565.12 L382.73,564.44 Z M392.88,554.21 L392.50,554.51 L393.34,555.11 L392.88,554.21 Z M499.45,526.99 L493.64,518.56 L501.29,531.48 L499.45,526.99 Z M512.44,564.30 L508.38,548.80 L513.45,571.30 L512.44,564.30 Z M509.34,581.36 L510.87,578.71 L513.45,571.30 L509.34,581.36 Z M503.51,597.16 L504.53,593.13 L503.87,594.75 L503.51,597.16 Z M502.91,604.46 L502.62,603.25 L502.49,604.13 L502.91,604.46 Z M515.20,612.77 L508.10,608.41 L508.29,608.55 L515.20,612.77 Z M505.99,620.92 L508.75,615.28 L507.74,617.18 L505.99,620.92 Z M500.64,616.23 L506.26,617.05 L507.74,617.18 L500.64,616.23 Z M512.53,633.84 L509.70,632.39 L510.50,633.23 L512.53,633.84 Z M509.40,647.30 L508.77,647.03 L509.08,647.83 L509.40,647.30 Z M492.54,703.03 L490.24,700.93 L490.79,702.22 L492.54,703.03 Z M525.61,721.93 L515.84,721.93 L519.44,722.13 L525.61,721.93 Z M564.70,720.46 L566.14,711.67 L563.93,719.89 L564.70,720.46 Z M575.63,725.53 L566.94,722.11 L569.18,723.77 L575.63,725.53 Z M575.08,731.11 L576.83,724.04 L575.63,725.53 L575.08,731.11 Z M586.22,718.60 L583.00,721.79 L585.21,719.75 L586.22,718.60 Z M596.08,717.92 L592.58,717.58 L612.02,719.48 L596.08,717.92 Z M633.76,744.63 L632.56,743.25 L633.73,745.78 L633.76,744.63 Z M635.88,752.52 L633.57,753.20 L633.63,750.75 L632.88,754.15 L635.88,752.52 Z M631.27,755.03 L632.40,754.42 L629.98,754.76 L631.27,755.03 Z M649.32,792.55 L633.76,794.93 L644.17,793.84 L649.32,792.55 Z M620.58,818.38 L635.32,806.15 L628.14,811.72 L620.58,818.38 Z M613.31,824.77 L619.02,821.31 L605.11,828.24 L613.31,824.77 Z M619.94,841.90 L616.44,841.63 L613.75,842.04 L619.94,841.90 Z M593.18,863.32 L595.62,858.08 L592.76,862.84 L593.18,863.32 Z M593.86,868.37 L591.47,866.98 L592.40,868.07 L593.86,868.37 Z M602.90,875.21 L600.50,868.95 L599.86,868.57 L599.86,869.62 L600.59,869.77 L602.90,875.21 Z M605.20,878.95 L600.44,877.93 L601.61,878.67 L605.20,878.95 Z M400.33,564.37 L386.97,566.21 L404.38,564.17 L400.33,564.37 Z M363.66,622.55 L360.53,624.66 L367.26,620.18 L363.66,622.55 Z M371.14,620.78 L369.19,620.18 L367.26,620.18 L371.14,620.78 Z M382.27,745.38 L378.39,743.45 L385.59,747.42 L382.27,745.38 Z M365.51,756.39 L371.03,761.29 L378.49,766.32 L365.51,756.39 Z M402.81,786.37 L406.10,789.12 L405.85,788.20 L402.81,786.37 Z M431.19,794.52 L429.25,807.44 L430.73,799.96 L431.19,794.52 Z M433.86,810.77 L436.81,811.52 L439.48,811.59 L433.86,810.77 Z M487.01,780.86 L486.37,777.40 L485.39,775.91 L487.01,780.86 Z M496.22,850.94 L498.43,854.14 L499.30,853.79 L496.22,850.94 Z M452.84,879.97 L453.76,878.20 L452.29,880.27 L452.84,879.97 Z M450.46,881.31 L441.71,879.97 L449.70,881.73 L450.46,881.31 Z M358.97,823.28 L361.82,825.11 L357.22,820.63 L358.97,823.28 Z M390.47,828.92 L385.68,832.32 L381.81,834.22 L381.18,835.44 L392.22,828.31 L390.47,828.92 Z M265.74,687.74 L259.11,685.97 L261.04,686.65 L265.74,687.74 Z M265.22,691.09 L269.61,689.10 L264.91,690.66 L265.22,691.09 Z M338.05,779.71 L330.04,781.81 L321.01,783.92 L330.96,781.68 L338.05,779.71 Z M339.97,796.66 L340.63,796.09 L337.13,789.15 L339.97,796.66 Z M337.17,798.32 L337.78,798.54 L338.45,797.96 L337.17,798.32 Z M184.36,735.94 L177.03,735.05 L183.29,736.27 L184.36,735.94 Z M192.23,732.94 L188.52,734.64 L189.84,734.23 L192.23,732.94 Z M294.02,725.94 L295.50,728.80 L294.21,724.11 L293.17,725.89 L294.02,725.94 Z M299.00,720.97 L299.36,721.25 L313.27,730.36 L299.00,720.97 Z M292.92,714.45 L292.39,714.04 L294.02,717.17 L295.07,717.97 L292.92,714.45 Z M367.53,738.04 L366.88,738.05 L371.34,739.94 L367.53,738.04 Z M219.90,778.13 L219.96,778.48 L226.68,776.10 L219.90,778.13 Z M265.65,771.21 L263.99,769.10 L260.03,766.79 L265.65,771.21 Z M276.94,762.24 L278.82,761.90 L279.58,760.81 L276.94,762.24 Z M310.39,763.19 L309.04,761.97 L308.54,761.77 L310.39,763.19 Z M258.83,746.26 L259.56,745.80 L257.73,745.65 L258.83,746.26 Z M263.25,743.48 L260.03,744.90 L260.13,745.44 L263.25,743.48 Z M255.15,763.87 L259.47,764.99 L259.29,764.41 L255.15,763.87 Z M132.81,705.41 L133.73,705.20 L129.13,704.67 L132.81,705.41 Z M137.14,704.39 L140.37,701.95 L147.46,699.43 L139.26,702.29 L135.96,704.67 L137.14,704.39 Z M219.41,712.62 L237.24,711.89 L233.59,711.53 L219.41,712.62 Z M281.13,711.53 L291.05,712.97 L290.52,712.55 L281.13,711.53 Z M319.91,699.30 L321.75,698.21 L319.14,699.11 L319.91,699.30 Z M335.66,697.87 L352.43,699.50 L348.92,698.75 L335.66,697.87 Z M308.24,698.86 L313.64,697.80 L309.41,698.21 L308.24,698.86 Z M307.15,684.41 L302.79,681.88 L304.25,683.32 L307.15,684.41 Z M123.92,698.69 L125.26,701.20 L124.71,699.02 L123.92,698.69 Z M139.06,497.51 L129.68,502.45 L138.89,498.03 L139.06,497.51 Z M142.76,479.13 L140.16,494.15 L141.38,490.42 L142.76,479.13 Z M194.53,512.44 L192.69,518.83 L192.69,521.96 L194.53,512.44 Z M187.94,596.80 L188.45,597.27 L189.87,597.46 L187.94,596.80 Z M250.36,587.75 L251.92,585.92 L247.69,590.68 L250.27,588.77 L250.36,587.75 Z M255.88,600.12 L257.70,601.49 L257.54,600.67 L255.88,600.12 Z M266.75,607.53 L269.08,610.08 L269.06,610.05 L266.75,607.53 Z M281.03,612.80 L282.51,613.85 L285.63,613.85 L281.03,612.80 Z M309.75,601.20 L311.89,601.14 L313.40,600.64 L309.75,601.20 Z M325.32,592.41 L325.07,592.71 L323.78,594.29 L325.07,593.67 L325.32,592.41 Z M267.31,634.99 L247.50,627.31 L281.86,641.79 L267.31,634.99 Z M270.62,612.83 L270.18,612.04 L269.44,614.49 L270.62,612.83 Z M309.17,584.88 L310.05,579.80 L308.85,583.61 L308.47,583.32 L309.17,584.88 Z M265.10,575.93 L264.97,576.57 L266.49,575.87 L265.10,575.93 Z M269.98,575.72 L268.28,575.79 L272.65,577.49 L269.98,575.72 Z M473.01,862.29 L474.76,861.14 L471.41,862.12 L474.87,863.51 L473.01,862.29 Z M476.88,844.42 L472.99,842.10 L473.47,842.85 L476.88,844.42 Z M472.19,840.85 L472.26,840.36 L472.00,840.54 L472.19,840.85 Z M474.03,839.18 L484.06,836.33 L475.86,837.96 L474.03,839.18 Z M478.54,828.78 L477.62,826.81 L477.25,826.46 L478.54,828.78 Z M390.38,603.86 L403.18,598.90 L404.54,597.51 L400.60,599.51 L390.38,603.86 Z M445.77,587.57 L444.54,587.82 L444.39,588.39 L445.77,587.57 Z M462.44,593.39 L464.54,585.78 L462.69,589.72 L462.44,593.39 Z M462.32,595.09 L464.72,596.25 L462.36,594.63 L462.32,595.09 Z M470.80,632.34 L453.57,638.60 L450.53,640.50 L479.27,629.22 L470.80,632.34 Z M449.15,644.71 L444.82,653.75 L450.53,643.35 L450.53,640.50 L449.15,644.71 Z M436.16,642.13 L433.02,641.89 L449.15,644.71 L436.16,642.13 Z M490.70,616.71 L494.20,613.92 L484.71,621.06 L490.70,616.71 Z M528.83,735.18 L530.31,736.34 L527.73,732.87 L528.83,735.18 Z M501.20,751.97 L504.61,770.60 L501.84,752.99 L501.20,751.97 Z M502.67,749.87 L501.95,749.40 L501.20,751.97 L502.67,749.87 Z M500.09,717.44 L490.33,719.55 L495.12,718.87 L500.09,717.44 Z M382.92,749.39 L388.54,751.36 L386.23,750.07 L382.92,749.39 Z M397.01,756.21 L398.30,756.66 L405.12,756.39 L397.01,756.21 Z M414.40,760.85 L414.70,761.08 L417.95,760.78 L414.40,760.85 Z M419.03,769.31 L420.59,772.91 L422.14,773.59 L419.03,769.31 Z M423.51,775.47 L423.45,777.94 L423.73,775.76 L423.51,775.47 Z M436.90,771.55 L437.91,772.77 L435.98,769.17 L436.90,771.55 Z M477.43,761.01 L481.02,766.66 L483.05,768.76 L477.43,761.01 Z M397.49,773.46 L397.75,772.50 L395.63,770.39 L397.49,773.46 Z M427.87,759.86 L429.25,758.09 L427.25,759.92 L427.87,759.86 Z M481.39,737.02 L483.12,728.68 L482.41,729.20 L481.39,737.02 Z M491.53,728.80 L484.62,727.57 L483.81,728.16 L491.53,728.80 Z M442.52,734.71 L439.94,730.22 L443.40,738.69 L442.52,734.71 Z M441.37,725.95 L439.75,723.22 L441.37,725.95 L441.37,725.95 Z M369.43,664.86 L368.09,664.83 L355.62,670.42 L358.69,669.80 L369.43,664.86 Z M402.73,656.23 L405.39,655.40 L404.66,655.11 L402.73,656.23 Z M495.12,642.47 L495.55,642.47 L494.21,641.63 L494.27,644.14 L495.12,642.47 Z M499.75,642.47 L500.64,642.47 L499.91,640.16 L499.75,642.47 Z M406.50,679.52 L412.39,681.28 L406.49,679.32 L406.50,679.52 Z M468.13,676.59 L468.12,675.58 L466.19,678.36 L468.13,676.59 Z M468.04,667.70 L467.21,668.03 L468.05,668.86 L468.04,667.70 Z M478.17,666.94 L470.71,666.67 L469.06,667.31 L478.17,666.94 Z M488.85,648.32 L493.18,646.28 L493.68,645.30 L488.85,648.32 Z M398.39,626.16 L392.96,625.14 L385.50,625.21 L398.39,626.16 Z M415.43,633.91 L420.35,637.86 L408.53,626.02 L415.43,633.91 Z M466.23,582.18 L467.57,581.23 L468.90,578.14 L467.85,578.71 L466.23,582.18 Z M527.00,867.01 L525.33,866.44 L526.71,867.12 L527.00,867.01 Z M552.14,861.89 L554.63,868.21 L553.89,863.86 L552.14,861.89 Z M557.21,858.35 L560.61,854.75 L556.56,859.03 L556.10,862.29 L557.21,858.35 Z M576.27,869.29 L567.80,863.38 L576.83,870.35 L576.27,869.29 Z M585.85,875.68 L585.38,875.65 L585.95,877.11 L585.85,875.68 Z M583.92,896.89 L579.39,895.70 L581.89,896.69 L589.45,898.39 L583.92,896.89 Z M579.04,880.71 L576.72,877.30 L575.91,877.45 L579.04,880.71 Z M530.49,826.54 L537.12,824.30 L537.80,823.67 L530.49,826.54 Z M554.90,807.71 L555.55,810.97 L559.14,817.02 L554.90,807.71 Z M563.29,819.33 L566.69,819.81 L573.88,819.54 L563.29,819.33 Z M526.07,857.88 L525.24,858.07 L530.12,860.05 L526.07,857.88 Z M567.62,856.31 L567.57,855.90 L566.79,857.54 L567.62,856.31 Z M567.13,851.58 L566.69,853.66 L567.38,854.02 L567.13,851.58 Z M568.63,848.83 L568.72,843.94 L567.53,849.64 L568.63,848.83 Z M567.09,841.12 L560.89,843.80 L566.97,841.83 L568.72,843.94 L567.09,841.12 Z M568.26,838.71 L566.69,837.08 L568.26,840.61 L568.26,838.71 Z M591.20,845.50 L595.53,847.20 L590.65,844.88 L591.20,845.50 Z M570.01,775.76 L563.38,774.74 L556.01,774.68 L570.01,775.76 Z M559.97,767.06 L558.13,764.07 L559.29,767.84 L559.97,767.06 Z M561.72,769.17 L559.38,768.12 L559.60,768.83 L561.72,769.17 Z M559.32,757.47 L559.32,757.55 L559.78,760.08 L560.15,759.18 L559.32,757.47 Z M507.65,526.44 L511.14,524.49 L510.41,524.33 L507.65,526.44 Z M496.22,507.82 L500.37,508.09 L509.30,506.66 L496.22,507.82 Z M628.00,626.84 L628.05,627.31 L632.56,629.83 L628.00,626.84 Z M617.73,671.77 L618.56,675.10 L619.66,677.82 L617.73,671.77 Z M625.47,684.43 L625.10,685.02 L625.30,685.69 L625.47,684.43 Z M625.78,687.23 L626.30,688.90 L627.77,689.64 L625.78,687.23 Z M630.25,689.12 L629.15,688.76 L627.77,689.64 L630.25,689.12 Z M655.54,679.95 L656.57,680.10 L656.14,679.92 L655.54,679.95 Z M669.68,682.10 L673.21,683.96 L672.63,683.25 L669.68,682.10 Z M676.30,687.54 L676.30,687.54 L682.76,682.37 L676.30,687.54 Z M692.71,672.92 L726.34,681.49 L714.64,678.36 L692.71,672.92 Z M731.50,686.99 L729.28,683.59 L726.34,681.49 L731.50,686.99 Z M739.51,698.41 L734.44,698.41 L745.22,699.84 L747.34,700.31 L739.51,698.41 Z M713.62,723.22 L712.70,723.90 L711.97,724.58 L713.62,723.22 Z M711.69,753.06 L708.00,751.43 L713.62,755.10 L711.69,753.06 Z M711.69,760.33 L711.97,761.56 L713.62,755.10 L711.69,760.33 Z M715.74,763.94 L716.89,764.02 L711.97,761.56 L715.74,763.94 Z M726.74,780.67 L724.83,778.31 L725.05,779.03 L726.71,780.68 L726.74,780.67 Z M759.59,843.46 L758.30,842.35 L759.43,845.27 L759.51,845.25 L759.59,843.46 Z M738.04,846.66 L724.68,849.92 L724.45,850.23 L738.04,846.66 Z M723.68,851.30 L723.11,852.10 L724.13,854.68 L723.68,851.30 Z M718.14,863.65 L718.05,864.88 L719.04,865.26 L718.14,863.65 Z M719.57,866.20 L719.15,867.39 L719.70,866.44 L719.57,866.20 Z M747.66,888.45 L749.83,891.73 L757.75,900.22 L747.66,888.45 Z M757.21,905.29 L757.75,904.23 L757.75,900.22 L757.21,905.29 Z M756.10,907.48 L751.30,909.19 L755.81,908.04 L756.10,907.48 Z M537.71,617.95 L537.49,619.09 L539.52,623.64 L537.71,617.95 Z M536.48,612.90 L536.75,613.48 L540.53,610.25 L536.48,612.90 Z M596.82,603.32 L594.61,605.49 L593.57,607.12 L596.82,603.32 Z M612.75,637.58 L607.96,637.51 L616.35,638.53 L612.75,637.58 Z M593.13,679.92 L601.70,680.87 L597.00,679.65 L593.13,679.92 Z M499.91,676.73 L503.13,680.13 L498.16,672.38 L499.91,676.73 Z M537.31,643.49 L539.94,639.17 L539.70,639.48 L537.31,643.49 Z M510.79,651.42 L507.56,651.32 L508.75,651.78 L510.79,651.42 Z M548.92,627.72 L545.33,632.29 L548.73,629.28 L548.92,627.72 Z M520.82,563.71 L522.85,564.17 L523.37,563.53 L520.82,563.71 Z M524.87,561.69 L525.79,560.56 L526.97,557.59 L524.87,561.69 Z M580.05,555.06 L579.68,557.10 L581.16,550.10 L580.05,555.06 Z M599.95,591.02 L601.61,586.19 L598.48,592.37 L599.95,591.02 Z M599.62,580.53 L597.74,580.21 L599.58,580.55 L599.62,580.53 Z M518.70,590.81 L519.53,592.44 L520.68,592.56 L518.70,590.81 Z M576.92,568.58 L577.47,573.61 L578.02,570.35 L576.92,568.58 Z M524.72,523.12 L524.14,522.77 L521.00,525.01 L524.72,523.12 Z M536.10,526.41 L535.19,525.76 L528.46,525.35 L536.10,526.41 Z M540.52,535.69 L547.26,535.41 L542.19,535.28 L540.52,535.69 Z M545.18,529.60 L544.49,530.11 L544.13,531.95 L545.18,529.60 Z M534.27,537.25 L531.31,547.78 L532.98,544.11 L534.27,537.25 Z M646.19,919.80 L645.46,919.87 L646.01,920.68 L646.19,919.80 Z M645.09,895.76 L638.64,896.28 L644.35,895.94 L645.09,895.76 Z M651.54,894.24 L653.93,892.20 L650.32,894.53 L651.54,894.24 Z M667.01,890.43 L673.18,894.92 L677.14,894.92 L672.54,894.38 L667.01,890.43 Z M709.57,893.02 L715.56,893.76 L701.19,890.30 L709.57,893.02 Z M670.93,764.53 L659.83,762.85 L670.93,764.53 L670.93,764.53 Z M674.20,865.83 L672.26,867.73 L676.55,865.07 L674.20,865.83 Z M624.91,889.07 L617.36,888.12 L627.47,889.56 L625.32,888.65 L624.91,889.07 Z M634.03,885.06 L633.76,881.05 L633.66,883.02 L634.03,885.06 Z M658.02,879.96 L657.98,879.76 L655.31,878.81 L658.02,879.96 Z M657.62,881.73 L659.64,888.19 L658.14,880.57 L657.62,881.73 Z M630.53,890.84 L629.51,890.41 L630.55,891.49 L630.53,890.84 Z M630.62,893.97 L630.59,892.63 L629.80,893.29 L630.62,893.97 Z M694.37,843.46 L690.69,842.85 L696.86,844.62 L698.23,844.25 L694.37,843.46 Z M692.31,826.50 L691.79,827.36 L692.71,829.46 L692.31,826.50 Z M710.22,815.80 L707.43,813.86 L707.73,814.58 L710.22,815.80 Z M646.38,722.68 L652.83,729.09 L652.83,729.09 L646.38,722.68 Z M704.69,737.56 L708.00,737.29 L700.91,736.83 L704.83,737.86 L704.69,737.56 Z M708.56,736.07 L708.83,726.89 L708.00,737.29 L708.56,736.07 Z M706.99,726.76 L703.21,727.23 L708.83,726.89 L706.99,726.76 Z M707.47,725.02 L709.10,724.05 L707.73,724.11 L707.47,725.02 Z M644.35,745.99 L645.46,744.77 L641.49,746.67 L644.35,745.99 Z M682.03,752.72 L679.45,741.57 L677.61,735.59 L682.03,752.72 Z M694.74,745.04 L686.91,738.58 L686.44,739.18 L694.74,745.04 Z M660.84,697.94 L654.48,699.50 L658.35,699.64 L655.96,699.36 L660.84,697.94 Z M659.37,707.86 L660.93,713.43 L658.81,703.99 L659.37,707.86 Z M676.65,688.06 L678.07,690.12 L682.58,694.33 L676.65,688.06 Z M689.21,698.62 L686.91,694.88 L688.96,699.88 L689.21,698.62 Z M762.17,662.32 L764.20,653.89 L765.12,647.98 L762.17,662.32 Z M630.41,603.72 L630.99,604.27 L636.06,607.46 L630.41,603.72 Z M665.35,616.98 L664.06,624.66 L664.57,625.19 L665.35,616.98 Z M664.34,643.76 L657.89,643.29 L655.04,643.69 L664.34,643.76 Z M691.79,655.66 L695.85,655.72 L696.38,655.16 L691.79,655.66 Z M696.80,654.70 L697.69,653.75 L697.13,650.56 L696.80,654.70 Z M716.85,612.70 L719.15,612.63 L715.56,612.01 L716.85,612.70 Z M646.75,596.79 L646.92,596.81 L645.64,594.55 L646.75,596.79 Z M685.71,601.28 L683.41,599.51 L681.52,599.18 L685.71,601.28 Z M692.25,601.82 L711.32,603.11 L685.71,601.28 L692.25,601.82 Z M712.52,610.39 L713.27,610.79 L713.35,606.58 L712.52,610.39 Z M781.00,857.22 L779.30,856.31 L773.78,854.95 L781.00,857.22 Z M787.10,860.85 L787.14,860.53 L786.24,860.04 L787.10,860.85 Z M874.10,867.32 L875.09,869.63 L874.37,865.01 L874.10,862.89 L874.10,867.32 Z M898.88,865.21 L898.05,864.02 L898.05,864.40 L898.88,865.21 Z M902.28,868.48 L909.01,870.93 L901.99,868.19 L902.28,868.48 Z M916.77,871.57 L908.09,864.47 L915.54,871.31 L916.77,871.57 Z M762.12,901.09 L763.92,901.45 L765.15,901.06 L762.12,901.09 Z M774.88,908.04 L780.17,912.35 L778.38,910.01 L774.88,908.04 Z M807.54,914.26 L812.28,912.19 L808.51,913.34 L807.54,914.26 Z M787.96,942.91 L798.74,936.11 L799.11,935.07 L787.96,942.91 Z M821.86,934.75 L823.25,933.80 L820.96,934.92 L821.86,934.75 Z M816.06,893.49 L822.14,889.69 L820.21,890.37 L816.06,893.49 Z M833.07,892.07 L832.73,891.73 L824.81,892.07 L833.07,892.07 Z M745.87,671.63 L740.98,667.62 L743.10,670.34 L745.87,671.63 Z M766.68,782.63 L763.95,779.66 L764.47,780.86 L766.68,782.63 Z M772.21,783.85 L773.20,783.56 L766.68,782.63 L772.21,783.85 Z M804.34,792.93 L811.36,790.11 L805.19,792.08 L804.27,789.63 L804.34,792.93 Z M843.33,783.04 L833.19,787.18 L837.80,785.89 L843.33,783.04 Z M853.92,844.62 L854.21,845.91 L853.74,837.14 L853.92,844.62 Z M851.62,835.17 L847.84,832.59 L853.74,837.14 L851.62,835.17 Z M855.21,835.99 L856.15,835.79 L851.62,835.17 L855.21,835.99 Z M857.20,835.56 L858.07,835.38 L857.51,833.59 L857.20,835.56 Z M887.64,834.02 L892.15,837.69 L894.92,838.91 L887.64,834.02 Z M898.81,841.53 L904.40,848.43 L900.07,842.38 L898.81,841.53 Z M920.89,854.54 L922.73,854.54 L920.27,854.13 L920.89,854.54 Z M853.28,858.49 L854.57,863.65 L853.56,857.69 L853.28,858.49 Z M875.39,846.25 L875.15,846.46 L890.77,841.77 L875.39,846.25 Z M814.13,827.70 L814.61,827.20 L809.98,826.74 L814.13,827.70 Z M816.89,824.84 L816.32,823.82 L815.82,825.94 L816.89,824.84 Z M742.07,792.20 L740.61,790.65 L738.31,790.11 L742.07,792.20 Z M741.63,797.31 L743.75,793.98 L743.33,793.54 L741.63,797.31 Z M745.04,801.12 L746.51,801.87 L741.63,797.31 L745.04,801.12 Z M753.14,805.54 L751.58,802.00 L749.64,800.71 L753.14,805.54 Z M773.19,809.14 L773.23,808.93 L764.01,805.94 L773.19,809.14 Z M794.80,831.62 L793.27,832.02 L794.69,832.05 L794.80,831.62 Z M790.54,829.39 L794.87,831.34 L795.06,830.62 L790.54,829.39 Z M809.56,799.18 L808.19,797.65 L808.69,798.87 L809.56,799.18 Z M805.14,794.21 L804.35,793.33 L804.36,793.71 L805.14,794.21 Z M756.37,727.98 L753.33,723.49 L751.33,722.48 L756.37,727.98 Z M823.06,779.37 L817.17,787.39 L825.15,777.94 L823.06,779.37 Z M828.04,775.97 L827.30,776.47 L829.42,776.72 L828.04,775.97 Z M787.24,736.06 L784.65,735.80 L787.28,736.13 L787.24,736.06 Z M799.85,733.49 L798.47,737.22 L798.53,737.25 L799.85,733.49 Z M771.94,651.44 L771.22,651.83 L774.05,652.80 L771.94,651.44 Z M502.40,195.01 L500.18,188.62 L495.95,178.63 L497.05,181.89 L502.40,195.01 Z M507.83,208.81 L507.44,207.53 L505.44,220.36 L507.83,208.81 Z M556.19,263.05 L555.98,262.64 L554.83,263.46 L554.93,263.58 L556.19,263.05 Z M583.37,279.36 L579.04,278.82 L592.58,282.28 L583.37,279.36 Z M600.95,286.83 L600.32,286.16 L592.58,282.28 L600.95,286.83 Z M611.56,298.12 L610.44,296.94 L611.48,298.90 L611.56,298.12 Z M611.10,302.61 L611.26,301.00 L610.12,303.14 L611.10,302.61 Z M607.13,306.07 L606.58,305.05 L607.91,304.33 L605.48,304.92 L607.13,306.07 Z M608.61,310.42 L608.70,309.27 L608.23,311.21 L608.61,310.42 Z M552.69,260.94 L548.64,262.84 L549.06,263.51 L552.69,260.94 Z M337.04,56.96 L348.46,62.12 L346.07,60.63 L337.04,56.96 Z M350.58,88.63 L349.94,89.72 L349.20,93.12 L350.58,88.63 Z M350.86,100.46 L359.06,103.04 L361.35,103.01 L350.86,100.46 Z M370.20,103.92 L369.47,106.51 L371.55,104.61 L370.20,103.92 Z M370.85,107.59 L370.30,112.15 L371.31,114.58 L370.85,107.59 Z M373.70,138.45 L364.22,141.79 L369.84,140.43 L373.70,138.45 Z M344.23,138.73 L335.84,140.43 L338.42,140.56 L344.23,138.73 Z M331.24,134.78 L333.08,137.43 L335.84,140.43 L331.24,134.78 Z M350.53,173.20 L356.57,165.78 L358.78,162.58 L356.85,164.62 L350.68,172.64 L345.42,168.23 L350.53,173.20 Z M349.94,193.38 L351.23,194.40 L354.27,194.94 L349.94,193.38 Z M345.98,196.55 L345.42,196.77 L344.13,199.63 L345.98,196.55 Z M349.29,214.86 L346.62,215.88 L349.89,215.12 L349.29,214.86 Z M351.84,216.00 L352.79,216.96 L355.93,217.85 L351.84,216.00 Z M359.30,227.59 L354.45,229.13 L359.15,228.25 L359.30,227.59 Z M358.60,261.28 L355.37,257.68 L359.29,263.36 L358.60,261.28 Z M373.06,296.69 L367.72,292.00 L373.43,298.12 L373.06,296.69 Z M362.92,292.25 L362.47,292.28 L361.08,294.04 L362.92,292.25 Z M360.16,302.68 L360.90,306.57 L361.08,306.01 L360.16,302.68 Z M360.47,307.87 L359.43,308.37 L360.26,308.52 L360.47,307.87 Z M345.98,315.66 L345.24,318.65 L342.20,322.32 L345.98,317.77 L345.98,315.66 Z M339.55,339.91 L340.82,342.37 L344.04,344.89 L339.55,339.91 Z M337.69,373.23 L337.32,384.43 L338.33,386.62 L337.69,373.23 Z M347.36,404.02 L356.10,411.20 L355.47,410.07 L347.36,404.02 Z M356.71,412.29 L354.27,413.74 L357.03,412.86 L356.71,412.29 Z M346.61,420.13 L346.71,421.70 L348.56,425.03 L346.61,420.13 Z M358.23,435.15 L366.15,441.68 L368.91,443.85 L358.23,435.15 Z M343.49,474.24 L341.02,478.77 L341.09,478.72 L343.49,474.24 Z M299.55,69.33 L294.94,57.64 L293.56,54.44 L299.55,69.33 Z M360.21,266.15 L353.44,267.50 L353.99,267.53 L360.22,266.16 L360.21,266.15 Z M238.84,58.86 L241.33,60.69 L236.08,55.26 L238.84,58.86 Z M248.05,107.12 L247.23,106.37 L243.82,103.52 L248.05,107.12 Z M213.49,143.66 L217.93,146.54 L214.43,144.10 L213.49,143.66 Z M215.72,157.62 L219.22,161.02 L228.34,165.92 L222.45,162.65 L215.72,157.62 Z M232.85,170.61 L232.10,169.82 L230.64,169.99 L244.37,174.07 L245.47,174.19 L232.85,170.61 Z M228.80,175.98 L228.06,176.99 L230.46,175.30 L228.80,175.98 Z M231.62,182.29 L231.95,182.19 L230.46,180.33 L231.62,182.29 Z M239.03,187.60 L235.16,181.82 L234.80,181.92 L239.03,187.60 Z M247.95,204.90 L249.11,205.37 L248.61,204.93 L247.95,204.90 Z M256.35,203.98 L257.73,200.24 L253.12,208.81 L256.35,203.98 Z M287.21,209.69 L287.48,211.59 L288.22,209.23 L287.21,209.69 Z M290.52,213.02 L291.12,212.21 L289.05,212.67 L290.52,213.02 Z M301.02,214.04 L303.33,213.70 L300.16,213.70 L301.02,214.04 Z M305.63,215.74 L309.31,215.26 L307.38,216.62 L313.64,213.97 L305.63,215.74 Z M294.39,226.27 L308.89,222.89 L307.01,222.94 L294.39,226.27 Z M297.83,242.06 L297.83,242.06 L298.54,238.92 L297.83,242.06 Z M290.73,241.58 L294.67,242.38 L295.63,242.00 L290.73,241.58 Z M290.38,246.71 L293.01,244.22 L292.25,243.86 L290.38,246.71 Z M310.60,294.59 L312.72,299.55 L310.68,294.21 L310.60,294.59 Z M298.17,296.69 L297.71,297.01 L308.58,296.69 L298.17,296.69 Z M289.10,313.73 L289.78,312.80 L289.32,308.25 L289.10,313.73 Z M286.10,316.95 L283.80,320.89 L287.28,316.19 L286.10,316.95 Z M279.47,321.98 L275.87,323.27 L283.80,320.89 L279.47,321.98 Z M287.39,324.97 L288.02,325.07 L283.80,320.89 L287.39,324.97 Z M292.73,325.79 L294.29,325.40 L290.40,325.43 L292.73,325.79 Z M323.74,354.67 L322.30,352.84 L319.21,350.76 L323.74,354.67 Z M325.43,357.87 L327.55,359.50 L325.32,356.67 L325.43,357.87 Z M290.52,387.37 L300.38,386.76 L295.86,386.76 L290.52,387.37 Z M296.07,413.67 L296.32,413.40 L293.01,408.71 L296.07,413.67 Z M291.44,414.69 L295.13,414.63 L295.57,414.18 L291.44,414.69 Z M298.90,462.48 L298.08,459.62 L294.85,453.10 L298.90,462.48 Z M281.90,474.32 L285.45,479.81 L282.51,474.51 L281.90,474.32 Z M284.63,484.16 L285.97,484.66 L283.15,481.17 L284.63,484.16 Z M285.27,488.92 L286.56,485.39 L286.38,485.16 L285.27,488.92 Z M99.19,121.87 L97.86,124.08 L103.24,119.22 L99.19,121.87 Z M125.17,110.65 L129.68,115.41 L125.81,110.99 L123.79,106.30 L125.17,110.65 Z M128.44,110.40 L127.93,110.04 L131.80,107.05 L125.81,110.99 L128.44,110.40 Z M131.80,112.76 L130.33,111.72 L133.09,115.14 L131.80,112.76 Z M164.50,110.11 L168.46,113.03 L171.23,114.94 L164.50,110.11 Z M163.30,106.58 L161.66,105.25 L164.50,110.11 L163.30,106.58 Z M193.99,116.88 L191.57,116.81 L192.88,117.18 L193.99,116.88 Z M196.27,115.97 L195.84,116.37 L196.38,116.23 L196.27,115.97 Z M245.48,205.00 L243.81,206.90 L245.98,204.81 L235.16,204.32 L245.48,205.00 Z M239.79,211.74 L240.11,211.13 L239.76,211.52 L239.79,211.74 Z M238.29,247.14 L234.42,242.66 L235.53,244.02 L238.29,247.14 Z M230.18,274.81 L225.67,271.48 L225.49,272.29 L230.18,274.81 Z M215.81,274.26 L211.30,276.03 L225.49,272.29 L215.81,274.26 Z M216.67,312.22 L220.70,311.72 L215.81,311.82 L216.67,312.22 Z M196.38,339.18 L195.36,332.24 L196.03,339.55 L196.38,339.18 Z M217.93,357.80 L215.09,357.80 L215.26,357.87 L217.93,357.80 Z M201.45,385.98 L208.72,381.39 L201.45,385.98 L201.45,385.98 Z M227.72,479.99 L224.47,472.40 L226.59,479.06 L227.72,479.99 Z M202.82,220.91 L214.25,230.56 L219.13,235.04 L210.19,226.14 L202.82,220.91 Z M114.57,230.76 L121.76,231.44 L122.61,231.18 L114.57,230.76 Z M123.62,230.87 L124.43,230.63 L122.86,227.16 L123.62,230.87 Z M134.84,227.57 L133.64,233.28 L135.95,223.01 L134.84,227.57 Z M161.09,218.73 L164.32,219.21 L165.04,218.85 L161.09,218.73 Z M186.24,211.93 L196.01,219.21 L186.22,211.73 L186.24,211.93 Z M142.49,331.02 L145.07,332.04 L141.39,329.53 L142.49,331.02 Z M152.07,345.43 L154.62,346.65 L146.72,340.60 L152.07,345.43 Z M161.46,366.71 L164.53,368.31 L159.07,363.92 L161.46,366.71 Z M101.95,374.93 L101.68,383.36 L102.51,378.33 L101.95,374.93 Z M166.26,369.22 L169.75,371.06 L174.45,374.59 L168.83,370.17 L166.26,369.22 Z M144.42,390.63 L144.97,387.91 L144.33,384.85 L144.42,390.63 Z M131.71,342.85 L126.18,339.52 L124.98,339.35 L131.71,342.85 Z M191.03,272.43 L186.76,270.33 L187.26,271.14 L191.03,272.43 Z M133.92,296.08 L135.23,302.12 L135.48,301.52 L133.92,296.08 Z M183.29,310.42 L179.79,310.63 L192.32,312.12 L183.85,311.04 L183.48,298.87 L183.29,310.42 Z M174.91,282.01 L173.07,286.09 L173.71,286.61 L174.91,282.01 Z M133.00,160.34 L127.75,153.61 L127.09,153.40 L133.00,160.34 Z M142.39,170.81 L143.27,169.86 L136.41,172.17 L142.39,170.81 Z M144.95,169.68 L144.70,169.38 L144.11,169.58 L144.95,169.68 Z M185.60,172.10 L183.29,170.54 L180.67,170.14 L185.60,172.10 Z M201.26,168.70 L198.40,169.52 L196.74,171.35 L201.26,168.70 Z M220.70,194.46 L214.78,193.81 L214.89,193.85 L220.70,194.46 Z M212.50,200.17 L209.18,195.35 L208.90,196.03 L212.50,200.17 Z M161.09,134.85 L163.49,137.64 L168.28,141.11 L161.09,134.85 Z M170.40,140.09 L172.61,138.05 L168.28,141.11 L170.40,140.09 Z M199.74,136.93 L197.91,134.60 L198.77,136.28 L199.74,136.93 Z M177.40,151.17 L176.20,161.57 L177.12,157.49 L177.40,151.17 Z M202.82,139.00 L206.78,140.58 L201.68,138.23 L202.82,139.00 Z M128.39,82.38 L128.39,76.74 L128.21,80.47 L128.39,82.38 Z M150.68,81.02 L151.51,84.08 L151.20,88.44 L152.07,86.05 L150.68,81.02 Z M183.89,72.58 L180.99,73.13 L179.98,74.36 L183.89,72.58 Z M118.41,93.59 L116.47,94.69 L117.34,94.82 L118.41,93.59 Z M150.91,89.23 L148.47,89.85 L150.68,89.85 L150.91,89.23 Z M210.10,64.77 L204.11,65.45 L207.34,65.59 L210.10,64.77 Z M272.08,472.12 L277.97,473.11 L273.94,471.86 L272.08,472.12 Z M248.98,449.97 L250.45,449.77 L246.12,449.50 L248.98,449.97 Z M282.41,453.85 L281.22,451.26 L280.83,451.29 L282.41,453.85 Z M280.17,458.99 L280.76,458.60 L282.41,453.85 L280.17,458.99 Z M236.89,387.35 L238.20,387.10 L242.53,385.06 L236.89,387.35 Z M261.04,383.16 L264.15,385.09 L263.35,383.97 L261.04,383.16 Z M265.18,386.53 L265.10,395.53 L265.93,387.57 L265.18,386.53 Z M220.79,291.30 L226.41,294.18 L224.29,292.28 L220.79,291.30 Z M236.45,321.44 L224.84,315.25 L217.96,312.82 L236.45,321.44 Z M246.67,233.75 L241.65,237.40 L243.08,236.61 L246.67,233.75 Z M250.27,223.28 L247.69,229.27 L246.67,233.75 L250.27,223.28 Z M272.28,214.86 L270.78,213.01 L274.95,221.38 L272.28,214.86 Z M280.11,214.92 L275.32,214.04 L286.38,216.76 L280.11,214.92 Z M291.17,220.50 L288.40,219.75 L291.83,221.69 L291.17,220.50 Z M256.35,235.52 L265.76,233.71 L263.44,233.89 L256.35,235.52 Z M286.10,243.34 L286.60,242.60 L283.70,242.86 L286.10,243.34 Z M276.06,194.40 L280.20,198.07 L275.92,193.17 L276.06,194.40 Z M287.76,99.85 L289.78,94.61 L286.87,100.09 L287.76,99.85 Z M283.52,101.00 L285.64,100.42 L277.81,101.14 L283.52,101.00 Z M282.88,134.17 L284.53,131.18 L282.60,134.04 L282.88,134.17 Z M277.72,131.73 L278.79,132.23 L271.36,127.17 L277.72,131.73 Z M273.02,134.31 L272.45,135.13 L277.72,131.73 L273.02,134.31 Z M265.19,139.81 L268.32,137.79 L266.48,138.52 L265.19,139.81 Z M275.51,151.17 L270.99,150.49 L272.56,151.23 L275.51,151.17 Z M292.82,141.11 L288.59,144.30 L288.02,145.78 L292.46,141.85 L295.13,144.71 L292.82,141.11 Z M312.45,148.92 L306.73,149.33 L302.40,149.74 L312.45,148.92 Z M294.21,162.79 L295.77,161.02 L299.18,166.60 L295.77,159.12 L294.21,162.79 Z M294.94,172.91 L295.22,172.64 L295.62,172.75 L294.81,172.10 L294.94,172.91 Z M304.04,184.38 L303.14,183.93 L300.38,185.15 L304.04,184.38 Z M297.98,186.92 L300.29,186.24 L302.59,193.65 L300.56,185.86 L297.98,186.92 Z M304.06,198.37 L305.26,195.89 L303.24,198.35 L304.06,198.37 Z M248.88,173.26 L247.96,174.46 L248.00,174.46 L250.63,171.42 L248.88,173.26 Z M268.04,173.79 L271.45,174.34 L268.04,173.79 L268.04,173.79 Z M288.15,180.66 L283.70,181.89 L287.02,181.35 L284.53,183.52 L288.15,180.66 Z M290.98,178.42 L291.63,175.98 L289.30,179.75 L290.98,178.42 Z M259.85,184.01 L264.54,187.05 L260.95,183.79 L259.85,184.01 Z M258.37,183.04 L259.08,183.50 L258.93,182.73 L258.37,183.04 Z M262.61,180.67 L259.59,182.36 L260.40,182.50 L262.61,180.67 Z M289.97,184.20 L289.76,184.52 L293.93,184.40 L289.97,184.20 Z M227.60,150.01 L228.80,155.72 L229.08,153.88 L227.60,150.01 Z M237.74,160.48 L235.43,161.90 L237.55,161.16 L239.12,158.37 L237.74,160.48 Z M283.24,150.01 L285.86,147.70 L284.44,148.31 L283.24,150.01 Z M281.85,155.97 L283.89,151.98 L281.59,154.84 L281.85,155.97 Z M256.44,92.98 L246.40,89.72 L258.56,94.02 L256.44,92.98 Z M262.79,96.10 L262.79,96.86 L270.16,99.71 L262.79,96.10 Z M348.56,267.67 L342.84,269.91 L349.04,267.54 L348.55,267.51 L348.56,267.67 Z M334.09,298.12 L331.42,294.38 L334.55,299.28 L334.09,298.12 Z M305.54,326.67 L309.96,326.81 L321.84,326.06 L305.54,326.67 Z M327.32,195.79 L329.30,192.83 L327.46,194.40 L327.32,195.79 Z M339.16,193.85 L335.20,193.38 L329.30,192.83 L339.16,193.85 Z M313.46,243.40 L314.03,243.43 L313.27,242.38 L313.46,243.40 Z M312.91,249.86 L316.87,244.08 L316.02,243.92 L312.91,249.86 Z M335.38,242.79 L333.91,240.75 L332.34,238.92 L335.38,242.79 Z M337.96,247.48 L344.78,252.72 L346.89,253.71 L339.62,248.57 L335.38,242.79 L337.96,247.48 Z M333.26,260.94 L332.07,263.39 L332.16,264.20 L333.26,260.94 Z M329.40,260.13 L323.59,260.67 L329.51,260.61 L329.40,260.13 Z M330.22,263.73 L330.00,262.73 L329.95,265.02 L330.22,263.73 Z M346.16,247.17 L346.53,247.35 L346.99,247.13 L346.16,247.17 Z M319.88,231.54 L320.75,231.26 L320.18,231.17 L319.88,231.54 Z M307.10,135.87 L305.26,134.92 L304.65,135.12 L307.10,135.87 Z M313.37,130.23 L315.30,126.90 L308.67,135.33 L313.37,130.23 Z M333.63,122.07 L325.90,116.50 L333.82,122.28 L340.27,129.07 L333.63,122.07 Z M308.84,174.61 L307.75,174.87 L308.39,175.09 L308.84,174.61 Z M309.44,173.96 L309.77,173.60 L311.52,173.94 L307.47,172.51 L309.44,173.96 Z M312.91,150.69 L315.58,152.32 L316.32,152.38 L312.91,150.69 Z M325.94,159.96 L322.21,155.31 L324.24,159.05 L325.94,159.96 Z M326.60,160.31 L328.25,161.19 L327.37,160.48 L328.39,159.09 L326.60,160.31 Z M338.15,166.19 L336.86,166.53 L328.20,170.27 L338.15,166.19 Z M320.53,174.08 L321.10,173.80 L321.66,174.05 L320.92,172.44 L320.53,174.08 Z M329.33,128.27 L328.51,129.37 L329.30,128.87 L331.51,130.98 L329.33,128.27 Z M300.65,93.80 L299.90,93.92 L305.08,95.77 L300.65,93.80 Z M322.58,98.76 L320.60,97.96 L323.06,99.34 L322.58,98.76 Z M327.74,105.01 L325.13,101.85 L326.26,104.40 L327.74,105.01 Z M312.81,90.47 L315.12,85.91 L313.55,87.88 L312.81,90.47 Z M344.32,81.56 L346.45,83.84 L343.67,79.18 L344.32,81.56 Z M315.76,63.55 L323.32,71.84 L329.21,75.51 L323.04,70.62 L315.76,63.55 Z M304.43,456.19 L307.66,455.75 L304.98,455.89 L304.43,456.19 Z M313.59,456.27 L314.20,456.02 L317.88,451.26 L313.59,456.27 Z M391.76,485.18 L393.83,485.88 L381.35,478.45 L391.76,485.18 Z M379.36,450.93 L377.94,450.18 L371.22,449.77 L379.36,450.93 Z M393.79,110.38 L406.41,119.01 L403.46,116.09 L393.79,110.38 Z M425.38,145.86 L427.59,144.30 L427.34,143.59 L425.38,145.86 Z M411.47,198.83 L411.57,198.68 L411.47,198.54 L411.47,198.83 Z M411.47,204.18 L412.21,202.35 L411.47,201.44 L411.47,204.18 Z M422.56,216.72 L422.56,216.72 L420.41,213.22 L422.56,216.72 Z M409.64,233.14 L408.80,233.28 L407.44,238.78 L407.45,238.78 L409.64,233.14 Z M410.55,239.67 L415.07,240.69 L409.13,239.26 L410.55,239.67 Z M401.33,257.79 L401.99,257.20 L400.82,255.59 L401.33,257.79 Z M406.04,268.15 L407.42,270.32 L407.21,270.32 L409.26,272.43 L406.04,268.15 Z M418.38,277.59 L429.44,283.78 L409.26,272.43 L418.38,277.59 Z M405.67,296.97 L406.22,295.61 L404.29,292.21 L405.67,296.97 Z M398.76,307.37 L401.06,307.77 L404.38,306.75 L398.76,307.37 Z M409.02,314.54 L409.45,314.44 L408.52,313.78 L409.02,314.54 Z M394.52,325.52 L395.17,325.24 L398.30,319.81 L394.52,325.52 Z M429.86,334.10 L434.04,332.18 L430.08,333.81 L429.86,334.10 Z M438.68,330.91 L437.36,328.78 L435.70,328.30 L438.68,330.91 Z M444.64,335.51 L445.60,335.63 L440.68,334.15 L444.64,335.51 Z M448.98,340.19 L448.69,338.91 L444.64,335.51 L448.98,340.19 Z M450.44,341.76 L452.47,342.85 L450.29,341.60 L450.44,341.76 Z M457.63,347.20 L458.05,346.98 L454.49,344.41 L457.63,347.20 Z M459.78,346.08 L462.32,344.75 L463.15,346.86 L462.37,344.03 L459.78,346.08 Z M469.51,348.49 L469.70,348.83 L471.54,347.20 L469.51,348.49 Z M461.95,348.63 L470.54,350.51 L469.94,349.92 L461.95,348.63 Z M475.13,358.28 L474.76,356.71 L472.46,354.27 L475.13,358.28 Z M471.81,360.43 L472.44,360.41 L472.36,360.38 L475.13,358.28 L471.81,360.43 Z M480.20,364.10 L479.64,363.31 L477.35,362.39 L480.20,364.10 Z M468.22,436.79 L462.32,438.62 L454.68,442.43 L463.89,438.21 L468.22,436.79 Z M472.83,527.20 L472.83,527.20 L481.94,524.81 L472.83,527.20 Z M482.50,545.88 L479.73,538.27 L477.52,534.60 L482.50,545.88 Z M386.71,175.82 L386.79,176.04 L388.08,177.06 L386.71,175.82 Z M429.25,335.71 L429.20,334.95 L427.23,337.49 L429.25,335.71 Z M424.00,340.33 L424.59,339.82 L421.98,341.62 L424.00,340.33 Z M405.21,361.27 L402.70,358.50 L407.24,366.57 L405.21,361.27 Z M406.60,397.36 L406.22,397.02 L417.74,395.93 L400.33,397.36 L406.60,397.36 Z M433.95,435.29 L430.91,431.01 L431.83,432.84 L433.95,435.29 Z M419.32,458.27 L417.08,456.91 L417.83,458.20 L419.32,458.27 Z M438.46,462.55 L427.78,465.81 L426.95,466.76 L438.46,462.55 Z M387.37,398.30 L389.37,394.51 L387.25,397.91 L387.37,398.30 Z M406.13,493.20 L400.62,489.92 L405.88,493.77 L406.13,493.20 Z M397.93,502.31 L398.12,502.21 L391.48,503.87 L397.93,502.31 Z M396.27,428.56 L399.50,429.78 L397.84,428.70 L396.27,428.56 Z M390.32,334.18 L388.90,335.78 L390.32,334.18 L390.32,334.18 Z M385.31,364.12 L384.94,363.80 L384.67,364.46 L376.47,370.24 L385.31,364.12 Z M378.31,322.86 L380.02,325.29 L380.06,325.04 L378.31,322.86 Z M386.23,324.22 L393.05,326.13 L393.55,325.92 L386.23,324.22 Z M370.11,307.50 L372.07,307.18 L368.09,307.23 L370.11,307.50 Z M382.73,310.76 L376.28,303.97 L378.68,307.09 L382.73,310.76 Z M372.78,235.86 L369.28,236.40 L378.59,235.18 L378.72,235.08 L372.78,235.86 Z M380.53,238.02 L380.80,237.49 L375.73,237.22 L380.53,238.02 Z M385.86,241.30 L384.48,239.87 L385.31,240.28 L384.48,239.33 L384.21,240.41 L385.86,241.30 Z M405.30,238.17 L396.37,239.53 L396.22,239.69 L405.30,238.17 Z M390.65,270.46 L388.44,269.91 L391.19,271.73 L390.65,270.46 Z M387.60,265.06 L387.15,265.70 L388.36,275.25 L388.44,269.91 L387.60,265.06 Z M395.85,272.46 L392.51,272.60 L392.77,272.77 L395.85,272.46 Z M392.77,259.72 L392.24,258.58 L392.30,260.16 L392.77,259.72 Z M388.65,263.56 L391.61,260.80 L390.19,261.35 L388.65,263.56 Z M392.13,235.32 L395.26,234.84 L396.13,233.97 L392.13,235.32 Z M397.38,233.55 L396.90,233.71 L401.71,235.93 L397.38,233.55 Z M372.05,223.28 L364.49,224.98 L374.44,223.62 L372.05,223.28 Z M377.80,226.17 L378.09,226.13 L374.44,223.62 L377.80,226.17 Z M373.70,216.21 L378.72,215.30 L377.57,215.06 L373.70,216.21 Z M380.51,214.97 L382.58,214.59 L381.17,214.38 L380.51,214.97 Z M386.24,213.92 L387.43,213.70 L387.57,213.41 L386.24,213.92 Z M388.81,213.77 L389.46,215.13 L392.07,216.75 L388.81,213.77 Z M393.05,207.65 L392.09,207.28 L391.21,208.19 L393.05,207.65 Z M397.66,137.71 L403.57,141.95 L402.35,140.15 L397.66,137.71 Z M399.68,133.42 L394.80,134.85 L394.60,135.33 L399.68,133.42 Z M386.60,100.59 L393.42,101.82 L398.01,101.93 L386.60,100.59 Z M459.19,503.26 L454.49,497.76 L445.37,485.59 L449.52,492.52 L459.19,503.26 Z M454.40,505.03 L464.81,502.58 L459.19,503.26 L454.40,505.03 Z M453.87,506.53 L455.78,506.93 L454.40,505.03 L453.87,506.53 Z M469.05,518.01 L468.94,517.98 L471.26,521.00 L469.05,518.01 Z M446.29,416.39 L447.86,419.11 L446.85,416.05 L446.76,411.36 L446.29,416.39 Z M428.61,456.50 L422.35,458.29 L431.13,456.61 L428.61,456.50 Z M434.80,455.00 L432.02,456.44 L433.49,456.16 L434.80,455.00 Z M443.90,452.22 L449.98,451.81 L445.74,451.47 L449.61,449.43 L443.90,452.22 Z M431.00,377.04 L428.06,376.15 L435.06,380.44 L431.00,377.04 Z M442.15,381.66 L444.91,381.80 L435.06,380.44 L442.15,381.66 Z M443.72,388.93 L445.10,385.40 L441.78,390.36 L443.72,388.93 Z M453.20,370.10 L457.90,370.51 L458.25,369.93 L453.20,370.10 Z M436.31,348.97 L434.96,348.97 L433.77,350.80 L436.31,348.97 Z M444.64,346.31 L445.58,345.25 L438.28,347.54 L444.64,346.31 Z M473.65,167.55 L475.40,164.96 L472.18,168.53 L473.65,167.55 Z M462.05,170.40 L460.65,171.87 L461.68,171.29 L460.30,173.80 L462.14,172.24 L462.05,170.40 Z M477.26,196.43 L476.51,196.57 L473.10,200.31 L477.26,196.43 Z M470.43,213.43 L473.93,214.99 L471.17,213.63 L470.98,212.14 L470.43,213.43 Z M468.30,221.75 L470.06,221.03 L469.32,220.91 L468.30,221.75 Z M456.34,230.22 L454.95,229.13 L456.38,231.83 L456.34,230.22 Z M463.07,275.99 L463.61,275.35 L458.64,265.36 L463.07,275.99 Z M459.19,279.84 L457.26,278.95 L459.58,280.10 L460.96,278.47 L459.19,279.84 Z M467.57,285.00 L465.19,283.69 L470.06,288.67 L467.57,285.00 Z M467.57,287.99 L471.19,289.40 L470.06,288.67 L467.57,287.99 Z M479.09,291.87 L476.43,291.44 L486.46,295.33 L479.09,291.87 Z M489.04,297.99 L490.97,296.35 L490.52,295.72 L490.51,295.74 L489.04,297.99 Z M481.67,304.78 L482.59,304.15 L482.22,303.49 L481.67,304.78 Z M489.41,311.65 L492.72,315.39 L494.29,316.41 L489.41,311.65 Z M448.75,232.04 L456.40,232.25 L456.40,232.23 L449.61,231.37 L448.75,232.04 Z M421.79,248.37 L424.07,248.15 L423.36,247.55 L421.79,248.37 Z M438.74,246.39 L438.83,248.98 L439.75,244.61 L438.74,246.39 Z M443.62,239.53 L446.57,231.98 L444.64,235.52 L443.62,239.53 Z M440.86,288.06 L441.12,288.87 L442.24,284.93 L440.86,288.06 Z M458.30,300.82 L457.90,300.84 L455.32,301.86 L458.30,300.82 Z M419.57,321.40 L420.96,321.03 L426.30,317.02 L419.57,321.40 Z M423.89,258.00 L423.36,258.36 L423.89,258.00 L423.89,258.00 Z M433.77,270.39 L432.35,269.17 L435.89,274.26 L433.77,270.39 Z M453.93,261.11 L452.65,265.97 L454.31,263.12 L453.93,261.11 Z M460.48,255.03 L455.97,253.87 L458.91,255.37 L454.95,257.20 L460.48,255.03 Z M438.52,142.53 L436.99,143.55 L436.71,145.39 L438.52,142.53 Z M422.38,196.08 L417.37,195.01 L421.51,196.37 L422.38,196.08 Z M427.87,191.88 L424.71,195.30 L425.38,195.08 L427.87,191.88 Z M434.13,199.15 L431.83,199.77 L437.91,199.90 L434.13,199.15 Z M447.53,202.65 L449.13,203.68 L449.98,199.36 L448.87,203.10 L447.53,202.65 Z M451.49,199.07 L451.33,198.86 L449.98,199.36 L451.49,199.07 Z M451.38,205.87 L449.15,208.19 L452.01,206.36 L451.38,205.87 Z M465.47,199.48 L465.18,199.09 L464.51,199.09 L465.47,199.48 Z M427.41,178.42 L434.96,177.47 L436.81,176.79 L427.41,178.42 Z M434.78,159.53 L438.56,161.70 L434.13,161.43 L439.85,162.24 L434.78,159.53 Z M433.12,160.48 L431.73,158.06 L431.46,158.57 L433.12,160.48 Z M498.99,350.19 L495.95,349.24 L503.32,352.70 L498.99,350.19 Z M502.71,339.44 L503.13,339.38 L509.95,336.32 L502.71,339.44 Z M501.66,270.59 L500.55,272.09 L502.55,270.51 L501.66,270.59 Z M503.70,270.40 L503.99,270.52 L503.78,270.39 L503.70,270.40 Z M538.47,278.52 L538.23,279.36 L538.20,279.37 L539.70,279.91 L538.47,278.52 Z M545.69,279.50 L545.99,279.53 L546.42,278.49 L545.69,279.50 Z M548.90,274.08 L549.10,274.74 L548.95,274.95 L549.74,274.74 L548.90,274.08 Z M598.28,302.68 L597.55,302.13 L591.93,303.90 L598.28,302.68 Z M588.43,293.09 L583.37,289.97 L585.49,291.66 L588.43,293.09 Z M590.72,301.92 L590.47,301.52 L590.46,301.59 L590.07,301.55 L590.72,301.92 Z M577.75,301.59 L574.89,302.81 L582.35,300.70 L577.75,301.59 Z M586.41,301.59 L587.36,301.25 L582.35,300.70 L586.41,301.59 Z M568.52,301.21 L568.88,300.62 L568.54,300.70 L568.52,301.21 Z M528.93,289.35 L525.15,291.53 L527.18,291.05 L528.93,289.35 Z M541.18,288.81 L541.28,288.76 L535.37,288.40 L541.18,288.81 Z M542.28,292.41 L545.97,289.83 L542.12,291.87 L542.28,292.41 Z M502.03,226.27 L502.95,227.80 L503.37,227.25 L502.95,227.36 L502.03,226.27 Z M489.41,262.64 L497.97,262.50 L498.46,263.17 L498.25,261.76 L489.41,262.64 Z M507.92,258.22 L509.54,258.86 L504.11,254.43 L504.05,254.45 L507.92,258.22 Z M518.24,265.97 L522.66,264.75 L523.03,266.04 L523.17,264.40 L518.24,265.97 Z M524.23,260.94 L524.12,261.47 L531.50,259.99 L524.23,260.94 Z M544.77,261.35 L542.19,260.67 L545.60,262.58 L544.77,261.35 Z M548.81,263.69 L547.28,263.51 L548.27,264.07 L548.81,263.69 Z M541.82,267.13 L539.89,265.63 L539.50,265.60 L541.82,267.13 Z M542.01,253.80 L545.97,251.63 L540.05,253.87 L542.01,253.80 Z M536.20,254.01 L537.73,253.95 L533.90,253.26 L536.20,254.01 Z M508.01,253.33 L507.86,252.87 L506.02,253.64 L508.01,253.33 Z M535.46,232.30 L539.24,229.67 L535.93,231.37 L535.46,232.30 Z M530.31,223.08 L531.14,225.12 L530.68,221.11 L530.31,223.08 Z M473.84,225.26 L471.78,223.40 L471.54,224.10 L473.84,225.26 Z M497.60,208.94 L498.07,212.07 L497.95,207.75 L497.60,208.94 Z M497.91,206.21 L497.88,205.27 L497.44,205.55 L497.91,206.21 Z M489.79,199.61 L491.23,197.69 L490.14,197.73 L489.79,199.61 Z M480.56,178.08 L480.55,178.31 L481.05,178.19 L480.56,178.08 Z M488.76,179.85 L484.33,178.90 L486.37,179.92 L488.76,179.85 Z M640.21,167.14 L637.72,165.51 L644.90,170.40 L640.21,167.14 Z M609.81,176.04 L615.93,178.11 L612.39,176.18 L609.81,176.04 Z M657.98,175.84 L653.01,176.59 L659.20,176.12 L656.42,174.89 L657.98,175.84 Z M679.54,198.68 L685.62,203.37 L685.07,202.21 L679.54,198.68 Z M682.03,209.35 L672.17,214.92 L672.14,215.06 L682.03,209.35 Z M671.82,216.31 L671.62,217.10 L674.20,221.52 L671.82,216.31 Z M694.46,236.46 L693.27,235.99 L678.21,232.93 L678.34,233.21 L683.22,234.50 L694.46,236.46 Z M688.01,285.21 L684.61,290.03 L685.11,290.69 L688.01,285.21 Z M686.25,292.18 L686.26,292.21 L686.31,292.21 L686.25,292.18 Z M685.36,293.91 L685.36,293.91 L686.26,292.21 L685.36,293.91 Z M685.65,294.02 L688.29,295.00 L685.90,293.84 L685.65,294.02 Z M681.11,312.60 L683.32,315.59 L683.25,314.67 L681.11,312.60 Z M675.15,329.90 L674.84,330.88 L676.61,331.93 L675.15,329.90 Z M681.84,335.03 L683.99,333.97 L683.04,333.94 L681.84,335.03 Z M690.35,334.19 L689.46,335.24 L689.49,335.23 L689.58,338.43 L690.35,334.19 Z M689.49,368.81 L688.89,368.75 L690.86,372.37 L691.15,371.87 L689.49,368.81 Z M693.27,376.77 L684.88,379.35 L697.69,375.47 L693.27,376.77 Z M681.94,381.93 L678.53,383.50 L678.60,383.59 L681.94,381.93 Z M631.82,191.54 L632.10,191.63 L628.05,189.37 L631.82,191.54 Z M631.76,192.70 L631.68,194.38 L632.56,193.51 L634.40,193.65 L631.76,192.70 Z M640.02,221.99 L643.43,220.91 L638.64,221.58 L640.02,221.99 Z M624.45,229.67 L622.43,229.88 L627.58,229.40 L624.45,229.67 Z M616.71,231.98 L616.53,237.22 L615.93,237.12 L616.81,239.05 L616.71,231.98 Z M630.35,247.81 L630.35,246.73 L624.64,241.09 L630.35,247.81 Z M631.36,249.01 L631.45,249.11 L628.14,250.54 L631.69,249.15 L631.36,249.01 Z M627.23,254.76 L628.41,253.33 L628.14,250.54 L627.23,254.76 Z M619.39,255.50 L625.83,256.45 L626.17,256.05 L619.39,255.50 Z M628.68,261.08 L627.58,262.57 L626.66,265.90 L628.97,261.55 L628.68,261.08 Z M636.98,269.78 L636.28,268.12 L636.15,268.15 L636.98,269.78 Z M641.86,276.71 L642.97,276.57 L644.63,275.15 L641.86,276.71 Z M631.08,299.42 L631.64,299.14 L637.44,296.01 L631.08,299.42 Z M627.55,301.30 L628.87,304.04 L627.55,301.30 L627.55,301.30 Z M623.44,317.36 L625.74,320.08 L622.24,315.66 L623.44,317.36 Z M640.11,325.11 L648.04,329.66 L636.24,322.25 L640.11,325.11 Z M653.93,329.46 L654.03,329.37 L648.04,329.66 L653.93,329.46 Z M625.62,335.28 L627.22,335.30 L625.70,335.25 L625.62,335.28 Z M623.37,347.23 L624.54,348.76 L623.61,347.16 L623.37,347.23 Z M622.33,352.70 L623.44,354.00 L621.51,351.48 L622.33,352.70 Z M629.52,358.48 L629.83,358.55 L629.52,356.71 L629.52,358.48 Z M630.42,362.94 L631.91,362.29 L630.53,362.76 L630.42,362.94 Z M639.19,279.63 L641.13,279.63 L639.15,279.03 L639.19,279.63 Z M622.21,365.62 L627.03,367.66 L623.16,365.69 L622.21,365.62 Z M575.26,247.21 L575.57,244.02 L574.71,246.33 L574.32,245.98 L575.26,247.21 Z M576.37,241.91 L576.11,242.58 L581.16,243.40 L576.37,241.91 Z M609.15,238.87 L609.15,238.87 L612.94,236.61 L609.15,238.87 Z M623.17,335.24 L619.39,333.60 L622.61,335.51 L617.82,343.12 L622.98,335.23 L623.17,335.24 Z M610.24,326.38 L610.17,325.79 L613.49,318.99 L609.81,326.06 L610.24,326.38 Z M617.25,315.30 L618.28,314.78 L614.14,314.23 L617.27,314.91 L617.25,315.30 Z M583.56,264.94 L583.28,265.29 L585.95,266.04 L583.56,264.94 Z M600.87,271.48 L603.63,275.15 L601.07,270.91 L600.87,271.48 Z M615.43,280.04 L609.90,277.32 L609.13,277.06 L615.43,280.04 Z M612.66,275.01 L613.31,272.90 L611.02,275.87 L612.66,275.01 Z M571.94,254.96 L570.10,255.03 L572.73,255.76 L571.94,254.96 Z M572.50,253.40 L573.86,256.36 L575.81,258.49 L572.50,253.40 Z M605.94,254.42 L603.21,255.57 L604.65,255.71 L605.94,254.42 Z M608.15,256.05 L610.57,256.43 L605.87,254.19 L605.94,254.42 L608.15,256.05 Z M601.42,250.61 L604.56,249.66 L601.06,250.29 L601.42,250.61 Z M555.73,215.26 L558.59,215.33 L555.45,217.83 L561.17,214.38 L555.73,215.26 Z M583.55,200.11 L584.91,200.42 L583.26,199.16 L583.55,200.11 Z M591.57,215.13 L604.19,218.93 L606.86,219.00 L591.57,215.13 Z M608.06,223.01 L609.07,223.42 L604.19,218.93 L608.06,223.01 Z M600.23,228.38 L602.99,228.31 L601.70,227.77 L608.06,223.01 L600.23,228.38 Z M605.81,217.28 L607.13,217.44 L605.57,216.89 L605.81,217.28 Z M575.17,226.21 L575.88,226.45 L575.72,224.98 L575.17,226.21 Z M596.63,228.31 L596.91,228.21 L594.24,226.95 L596.63,228.31 Z M532.15,203.77 L531.60,204.12 L529.94,201.06 L531.78,205.68 L532.15,203.77 Z M616.44,193.38 L615.70,192.33 L616.35,197.45 L616.44,193.38 Z M528.93,189.84 L530.12,188.21 L526.99,192.36 L528.93,189.84 Z M587.35,183.81 L585.76,176.86 L586.32,181.48 L587.35,183.81 Z M588.99,187.46 L590.74,188.24 L588.79,187.02 L588.99,187.46 Z M601.70,193.10 L602.82,192.94 L598.82,191.83 L601.70,193.10 Z M606.21,191.74 L604.83,192.64 L609.53,191.95 L610.16,191.46 L606.21,191.74 Z M614.58,190.76 L614.41,190.52 L614.03,190.66 L614.58,190.76 Z M557.94,194.80 L557.76,197.05 L555.92,199.22 L558.03,197.73 L557.94,194.80 Z M533.44,202.96 L532.79,203.37 L538.32,204.05 L533.44,202.96 Z M530.22,179.31 L515.11,173.05 L531.04,180.41 L530.22,179.31 Z M552.51,172.64 L556.93,164.35 L556.87,163.75 L552.51,172.64 Z M650.15,318.92 L650.39,319.31 L655.96,317.36 L645.92,319.81 L650.15,318.92 Z M638.36,355.97 L654.39,360.04 L644.81,357.26 L638.36,355.97 Z M650.34,360.89 L650.34,360.72 L653.56,361.00 L648.40,360.25 L650.34,360.89 Z M654.13,362.16 L657.98,363.44 L659.59,363.05 L654.13,362.16 Z M674.29,358.48 L669.11,358.30 L669.13,358.32 L680.92,359.03 L674.29,358.48 Z M649.14,375.26 L649.41,375.24 L648.31,374.79 L649.14,375.26 Z M657.89,375.47 L658.64,374.22 L657.71,374.59 L657.89,375.47 Z M661.08,387.84 L658.72,387.10 L661.08,387.84 L661.08,387.84 Z M664.43,364.46 L664.25,364.02 L661.76,367.25 L664.43,364.46 Z M651.90,348.22 L651.81,349.58 L645.55,346.31 L636.43,341.42 L652.04,350.08 L651.90,348.22 Z M660.01,345.02 L660.81,341.28 L659.92,343.66 L660.01,345.02 Z M679.01,350.37 L678.80,350.05 L670.51,348.49 L679.01,350.37 Z M680.02,351.84 L679.33,350.83 L678.16,354.34 L679.26,351.96 L680.02,351.84 Z M681.57,351.62 L685.34,348.08 L681.17,351.67 L681.57,351.62 Z M650.73,351.72 L648.22,350.80 L650.13,352.60 L650.73,351.72 Z M657.52,354.27 L650.85,353.27 L651.26,353.66 L657.52,354.27 Z M652.16,351.63 L652.07,351.82 L652.18,351.89 L652.16,351.63 Z M663.11,335.16 L664.16,334.76 L664.16,332.54 L664.09,332.54 L663.11,335.16 Z M648.77,319.87 L649.32,323.75 L649.89,324.16 L648.77,319.87 Z M638.09,267.74 L637.68,265.99 L636.89,266.65 L638.09,267.74 Z M642.51,242.45 L640.67,243.47 L640.66,244.14 L640.67,244.08 L642.51,242.45 Z M659.55,257.13 L667.70,254.90 L667.75,254.21 L659.55,257.13 Z M667.40,259.47 L664.89,260.74 L667.38,259.72 L667.40,259.47 Z M648.15,299.01 L647.85,298.67 L644.90,298.19 L648.15,299.01 Z M656.88,303.36 L657.22,303.06 L656.41,303.51 L656.88,303.36 Z M670.05,293.02 L669.50,292.67 L667.84,293.84 L670.05,293.02 Z M684.97,293.77 L684.88,293.16 L676.87,290.78 L684.97,293.77 Z M656.40,278.17 L655.41,278.46 L656.14,278.41 L656.40,278.17 Z M658.81,282.83 L653.75,281.26 L662.59,284.05 L658.81,282.83 Z M658.35,280.18 L658.44,280.70 L661.48,280.58 L658.35,280.18 Z M664.99,292.55 L668.97,292.33 L668.03,291.73 L664.99,292.55 Z M649.37,222.96 L649.32,222.94 L644.26,222.40 L649.37,222.96 Z M653.10,227.84 L654.30,229.33 L652.73,224.17 L653.10,227.84 Z M670.48,244.86 L670.48,244.86 L669.13,243.81 L670.48,244.86 Z M640.76,242.93 L636.36,240.42 L636.98,241.50 L640.76,242.93 Z M636.10,239.96 L636.53,239.60 L635.97,239.73 L636.10,239.96 Z M651.63,205.68 L656.60,219.14 L657.23,219.33 L651.63,205.68 Z M656.59,205.10 L654.12,204.73 L651.63,205.68 L656.59,205.10 Z M662.41,203.91 L660.59,204.63 L670.24,203.50 L662.41,203.91 Z M669.29,212.58 L668.93,211.51 L668.58,212.00 L669.29,212.58 Z M659.57,220.03 L662.22,220.84 L662.86,220.37 L659.57,220.03 Z M649.24,190.77 L653.56,191.68 L649.24,190.77 L649.24,190.77 Z M694.83,348.42 L701.10,347.95 L700.82,349.10 L702.16,347.86 L694.83,348.42 Z M669.87,165.71 L677.97,172.64 L680.00,174.35 L675.95,170.27 L669.87,165.71 Z M706.72,214.04 L714.73,207.31 L705.24,215.20 L706.72,214.04 Z M739.76,241.76 L739.60,240.21 L738.49,239.25 L739.76,241.76 Z M753.33,267.81 L759.78,274.47 L762.32,278.41 L761.71,276.23 L753.33,267.81 Z M756.46,274.06 L756.39,274.44 L758.30,274.54 L759.78,274.47 L756.46,274.06 Z M755.95,277.44 L755.17,278.41 L754.67,281.54 L755.72,280.18 L755.95,277.44 Z M751.40,282.51 L753.51,283.03 L753.97,282.44 L751.40,282.51 Z M753.09,301.48 L753.51,301.11 L753.61,299.46 L753.09,301.48 Z M749.83,306.07 L754.43,304.17 L752.31,304.44 L749.83,306.07 Z M754.06,326.47 L754.62,327.62 L746.33,327.55 L755.91,328.10 L754.06,326.47 Z M746.42,343.26 L747.80,346.11 L746.61,343.07 L746.42,343.26 Z M743.56,353.38 L752.82,356.12 L745.04,353.45 L743.56,353.38 Z M734.44,352.02 L736.65,357.80 L735.64,354.40 L734.44,352.02 Z M746.33,371.46 L746.60,374.79 L746.37,371.41 L746.33,371.46 Z M697.32,303.63 L692.53,304.78 L698.79,303.36 L697.32,303.63 Z M701.56,318.45 L700.02,321.77 L704.04,322.32 L704.43,322.21 L700.82,321.50 L701.56,318.45 Z M697.69,328.78 L696.12,330.75 L704.04,322.32 L697.69,328.78 Z M726.27,315.53 L722.01,317.36 L726.06,315.73 L726.27,315.53 Z M730.94,318.04 L727.45,318.20 L727.63,318.51 L730.94,318.04 Z M701.65,375.75 L705.98,380.64 L704.69,378.19 L701.65,375.75 Z M707.74,369.17 L708.28,370.51 L711.23,372.55 L711.97,372.52 L707.74,369.17 Z M715.02,373.01 L715.10,373.16 L715.45,373.02 L715.02,373.01 Z M716.70,372.51 L721.91,370.38 L720.26,370.38 L716.70,372.51 Z M737.85,379.76 L732.88,383.16 L732.40,383.49 L733.25,383.43 L737.85,379.76 Z M728.83,374.20 L730.85,376.70 L729.38,374.39 L730.22,373.66 L728.83,374.20 Z M715.74,351.21 L716.77,351.08 L710.23,347.37 L709.91,347.38 L711.23,348.76 L715.74,351.21 Z M702.48,365.01 L706.16,368.07 L706.29,368.03 L702.48,365.01 Z M714.91,333.20 L710.12,328.51 L711.97,331.02 L714.91,333.20 Z M688.48,292.42 L689.86,292.55 L690.78,291.66 L688.48,292.42 Z M698.79,295.47 L701.19,294.11 L700.92,293.47 L698.79,295.47 Z M702.85,292.62 L702.91,291.59 L701.55,292.87 L706.53,291.94 L702.85,292.62 Z M703.71,290.84 L706.81,289.69 L703.77,290.78 L703.71,290.84 Z M718.32,285.27 L723.76,294.45 L718.87,286.09 L718.32,285.27 Z M721.55,300.64 L722.93,297.58 L723.76,294.45 L721.55,300.64 Z M736.47,295.20 L730.11,292.89 L737.94,295.95 L742.37,297.31 L736.47,295.20 Z M742.73,300.64 L742.37,295.47 L742.37,297.31 L742.73,300.64 Z M711.51,232.46 L714.91,237.22 L718.41,240.14 L722.38,241.43 L717.22,238.78 L711.51,232.46 Z M705.79,279.09 L704.87,278.00 L705.27,279.52 L705.79,279.09 Z M702.05,283.06 L701.46,283.58 L701.56,286.50 L702.05,283.06 Z M699.36,238.35 L701.56,239.53 L701.00,239.98 L702.43,239.54 L699.36,238.35 Z M693.45,249.28 L692.62,246.73 L692.62,247.96 L693.45,249.28 Z M699.07,242.11 L699.43,241.24 L692.62,246.73 L699.07,242.11 Z M697.23,202.96 L699.07,201.94 L700.45,198.47 L697.23,202.96 Z M766.13,321.57 L761.99,320.89 L767.89,322.39 L766.13,321.57 Z M765.71,313.99 L765.58,314.16 L766.13,321.57 L765.71,313.99 Z M774.00,324.75 L775.99,325.72 L776.67,325.55 L774.33,324.77 L774.09,324.45 L774.00,324.75 Z M804.91,312.12 L803.90,316.00 L805.19,314.30 L805.56,310.97 L804.99,310.97 L804.91,312.12 Z M806.48,321.44 L805.28,321.16 L806.23,322.52 L806.48,321.44 Z M810.26,322.93 L806.33,322.67 L806.76,323.27 L810.26,322.93 Z M809.34,332.79 L808.27,332.67 L809.43,334.96 L809.34,332.79 Z M823.38,334.52 L822.79,335.17 L823.61,339.04 L823.38,334.52 Z M850.56,324.39 L851.16,321.57 L850.24,323.82 L849.09,324.02 L850.56,324.39 Z M855.21,323.34 L851.00,324.50 L851.80,324.70 L855.21,323.34 Z M838.63,349.71 L839.55,348.97 L836.05,351.00 L839.56,349.64 L838.63,349.71 Z M787.87,337.41 L786.12,337.34 L789.16,338.70 L786.58,333.40 L787.87,337.41 Z M837.34,345.91 L838.27,345.56 L834.58,345.29 L837.34,345.91 Z M847.84,345.36 L845.45,342.17 L845.81,343.66 L847.84,345.36 Z M848.95,337.14 L849.06,338.19 L851.99,334.96 L847.29,337.55 L848.95,337.14 Z M778.39,326.12 L778.57,326.47 L781.24,327.08 L778.39,326.12 Z M763.87,280.79 L764.57,281.88 L769.82,287.04 L763.87,280.79 Z M805.93,296.76 L809.70,292.34 L807.68,293.64 L805.93,296.76 Z M817.81,275.55 L825.00,276.98 L811.55,273.65 L817.81,275.55 Z M837.70,282.35 L836.88,283.03 L833.10,278.75 L837.62,283.92 L837.70,282.35 Z M838.03,290.89 L837.89,289.63 L836.88,290.19 L837.43,290.17 L838.03,290.89 Z M854.75,298.60 L863.04,308.45 L854.47,298.12 L850.89,299.70 L854.75,298.60 Z M776.17,307.23 L779.77,304.72 L780.50,303.76 L776.17,307.23 Z M820.48,315.66 L821.22,314.30 L821.68,312.33 L820.48,315.66 Z M768.43,312.26 L766.83,312.08 L766.78,312.67 L766.60,312.89 L768.43,312.26 Z M849.90,300.14 L847.38,301.25 L846.55,302.61 L849.90,300.14 Z M835.22,293.43 L838.17,292.14 L838.11,291.60 L835.22,293.43 Z M787.16,207.68 L788.33,206.43 L789.65,203.37 L787.16,207.68 Z M776.26,205.95 L780.41,205.68 L775.89,205.74 L776.26,205.95 Z" /></g></svg>