<svg xmlns="http://www.w3.org/2000/svg" viewBox="0 0 1000 1000" width="1000" height="1000"><g fill="#cccccc" stroke="#222" stroke-width="2"><path d="M914.85,602.41 L914.80,601.84 L915.25,602.58 L914.85,602.41 Z M919.25,596.27 L919.25,596.55 L919.05,596.04 L919.25,596.27 Z M918.95,595.53 L918.95,595.65 L918.75,595.42 L918.95,595.53 Z M918.20,594.41 L918.10,594.41 L917.95,594.24 L918.20,594.41 Z M917.85,594.07 L917.95,594.18 L917.85,594.18 L917.85,594.07 Z M915.80,594.35 L914.25,594.52 L914.15,593.05 L915.50,592.27 L915.80,594.35 Z M909.79,590.69 L909.79,590.74 L909.69,590.74 L909.79,590.69 Z M909.54,590.52 L909.49,590.58 L909.39,590.52 L909.54,590.52 Z M194.56,756.85 L194.26,758.65 L192.65,760.40 L193.81,763.95 L189.95,763.56 L186.94,767.05 L184.14,767.44 L181.63,768.85 L180.83,770.32 L177.88,770.66 L176.32,773.14 L174.87,771.61 L175.42,769.19 L171.71,771.05 L169.81,770.37 L169.56,773.02 L168.16,773.98 L164.10,773.47 L162.25,771.78 L158.59,772.46 L156.29,770.60 L154.13,770.60 L152.38,767.90 L150.32,768.23 L148.82,770.43 L145.97,767.50 L141.66,768.68 L139.30,771.28 L138.20,774.77 L136.00,773.76 L130.89,777.42 L129.14,781.76 L125.18,781.31 L122.47,783.39 L121.27,785.48 L118.62,785.70 L118.16,795.22 L116.46,795.17 L113.91,793.36 L113.31,797.25 L109.20,797.76 L108.25,801.53 L106.09,801.08 L101.73,802.94 L101.03,805.42 L95.07,808.86 L107.55,772.23 L103.49,695.83 L102.08,682.08 L97.95,670.45 L97.58,670.76 L97.33,670.19 L80.95,629.29 L79.34,623.59 L78.89,605.34 L76.99,601.68 L69.77,587.65 L61.51,560.94 L44.03,546.34 L38.37,542.29 L32.71,541.50 L28.30,539.47 L19.23,531.02 L23.24,524.14 L24.39,518.90 L21.43,514.40 L21.28,512.03 L25.59,507.18 L28.45,502.11 L30.19,497.92 L29.40,495.58 L21.08,489.32 L20.53,488.08 L21.33,485.32 L28.45,477.66 L26.59,479.35 L28.90,475.97 L28.95,466.50 L30.10,461.60 L28.35,459.63 L22.89,459.52 L22.49,458.84 L22.39,457.99 L22.94,459.01 L24.29,455.01 L28.80,451.63 L28.10,441.77 L31.85,438.39 L38.17,436.41 L43.13,431.91 L44.58,431.74 L49.79,424.24 L56.45,425.20 L56.90,423.45 L54.20,412.19 L54.20,407.68 L55.65,407.17 L62.76,409.31 L65.67,407.79 L66.52,403.06 L69.17,401.14 L70.13,401.14 L72.33,403.28 L76.49,403.06 L78.84,404.58 L83.25,404.47 L89.86,402.72 L94.02,398.83 L94.42,389.48 L100.08,385.08 L100.68,379.56 L101.78,379.39 L106.54,383.79 L110.40,385.03 L114.66,379.96 L118.72,377.81 L119.17,372.41 L122.42,367.39 L121.12,364.24 L118.21,360.97 L117.96,359.45 L118.92,357.87 L122.52,357.02 L122.77,350.49 L123.88,347.50 L124.28,341.64 L126.33,337.75 L124.03,332.12 L124.18,326.43 L122.92,323.10 L124.98,319.38 L129.14,316.23 L132.84,309.13 L132.84,302.59 L135.55,298.99 L137.65,290.70 L139.65,291.04 L143.51,293.86 L147.32,293.13 L151.58,294.99 L155.48,293.75 L164.05,297.97 L167.76,298.54 L173.87,301.35 L175.62,300.17 L175.72,295.16 L178.88,294.25 L180.48,291.83 L183.09,293.47 L185.69,288.22 L187.39,288.84 L188.70,290.76 L190.90,290.37 L194.36,292.34 L197.31,295.49 L200.57,295.21 L202.62,294.87 L204.33,292.51 L203.82,290.31 L204.63,288.62 L205.63,288.90 L207.18,287.21 L208.03,284.06 L211.14,284.68 L212.79,283.10 L211.49,266.31 L211.99,264.73 L213.09,263.43 L218.40,261.52 L218.95,260.11 L221.66,259.94 L224.06,261.29 L225.31,260.78 L227.87,259.38 L230.32,259.66 L232.33,256.16 L242.50,258.53 L245.40,260.56 L250.71,267.26 L253.62,268.84 L259.78,279.10 L264.79,279.49 L267.39,278.76 L275.16,279.60 L280.47,281.63 L284.02,278.25 L288.73,276.73 L294.29,277.18 L297.70,280.17 L300.20,279.72 L301.91,278.65 L302.81,274.76 L305.91,272.22 L309.57,265.35 L311.27,263.94 L311.47,261.12 L313.93,259.38 L315.58,259.26 L316.93,261.46 L324.10,265.69 L323.45,264.39 L328.46,255.54 L327.60,254.42 L330.11,249.35 L329.56,247.09 L330.71,245.91 L330.61,243.20 L334.72,240.44 L334.67,238.58 L336.42,238.92 L338.57,237.96 L337.82,236.22 L337.87,232.67 L334.42,231.03 L333.11,229.40 L333.62,227.60 L343.83,226.36 L346.34,225.06 L346.44,221.68 L347.64,220.72 L349.24,221.23 L350.25,220.61 L348.39,216.10 L351.90,210.58 L353.30,210.75 L357.06,214.02 L361.47,215.09 L363.92,214.19 L363.97,212.33 L368.88,212.27 L368.18,214.86 L367.33,214.58 L365.27,216.10 L367.03,219.26 L370.23,218.92 L371.14,217.96 L369.98,217.51 L370.03,216.16 L371.89,216.05 L374.39,210.69 L375.44,211.37 L375.94,209.85 L377.20,209.90 L379.10,207.82 L382.21,208.72 L385.21,207.14 L387.97,207.93 L390.67,204.61 L393.53,205.12 L393.43,203.09 L395.73,204.16 L396.38,200.78 L398.94,197.40 L401.09,197.45 L404.55,194.97 L406.85,195.37 L408.91,194.47 L410.46,195.93 L413.76,194.24 L415.82,191.37 L420.53,195.54 L424.23,195.48 L427.59,197.56 L429.29,196.66 L432.10,197.79 L434.90,196.21 L437.41,196.61 L442.62,194.41 L443.52,197.40 L442.62,191.25 L440.16,186.69 L443.47,179.76 L447.43,177.62 L450.58,171.81 L452.59,170.63 L456.14,166.29 L456.49,159.76 L457.70,157.39 L459.50,156.77 L460.35,154.40 L476.38,136.49 L478.48,131.92 L484.40,125.78 L486.45,120.20 L485.90,118.85 L483.34,117.55 L480.14,112.76 L481.14,110.40 L481.34,106.17 L478.18,101.78 L474.03,98.17 L474.08,96.59 L472.87,94.23 L473.48,88.42 L477.93,85.32 L481.84,76.70 L485.70,78.11 L488.15,75.86 L490.46,77.21 L491.31,75.86 L495.72,78.79 L499.07,83.07 L502.18,93.66 L507.99,96.99 L513.45,102.34 L523.67,103.75 L534.09,107.64 L543.16,108.93 L547.11,108.31 L551.22,105.10 L558.63,102.40 L559.34,99.47 L560.19,96.37 L559.44,94.68 L560.69,89.83 L568.35,83.41 L570.21,86.00 L572.11,85.44 L574.66,86.11 L577.72,89.04 L580.07,89.61 L582.03,93.61 L584.53,94.06 L586.49,95.75 L591.60,97.72 L591.45,99.58 L592.95,103.35 L592.40,107.36 L595.75,111.19 L596.45,113.50 L598.61,115.07 L600.51,114.68 L601.21,115.75 L603.52,113.16 L603.92,110.51 L608.43,108.93 L609.53,116.48 L608.23,107.24 L608.58,105.83 L611.48,104.71 L615.49,107.30 L616.49,101.38 L614.74,97.61 L618.19,95.18 L620.35,95.80 L624.91,91.13 L631.52,88.37 L633.27,86.17 L632.42,83.52 L634.93,79.46 L639.79,82.00 L643.74,79.75 L643.59,78.39 L645.90,74.79 L645.70,70.90 L647.20,69.55 L648.45,70.67 L647.55,72.36 L649.10,75.24 L652.96,76.93 L653.96,78.84 L656.12,80.25 L657.57,79.86 L658.92,81.15 L659.82,82.11 L661.33,83.80 L663.33,84.14 L664.78,82.85 L665.18,80.76 L666.84,82.62 L668.94,82.51 L673.00,80.99 L675.05,78.22 L676.65,77.94 L675.60,74.62 L675.40,68.98 L675.80,66.34 L677.81,65.38 L678.16,62.39 L677.00,56.59 L677.15,50.78 L674.65,40.02 L675.80,39.35 L677.10,36.75 L678.56,36.42 L679.26,34.39 L680.71,34.33 L685.62,38.44 L688.28,37.99 L694.29,39.29 L695.89,38.05 L698.44,38.95 L699.95,37.88 L701.50,38.39 L706.21,34.67 L707.86,35.23 L709.11,34.11 L712.52,26.56 L714.42,24.75 L715.88,25.49 L718.68,29.54 L717.83,30.44 L718.28,31.35 L720.69,30.73 L720.28,29.54 L721.84,26.16 L727.25,25.03 L730.15,26.95 L731.71,27.01 L732.26,28.87 L733.91,29.82 L739.67,31.51 L742.23,29.32 L747.69,28.81 L748.49,26.61 L753.75,24.70 L754.70,23.23 L757.70,21.71 L759.16,19.23 L758.61,21.43 L759.56,23.06 L760.86,22.50 L764.92,24.36 L766.17,27.18 L770.03,28.25 L770.08,29.82 L772.33,30.67 L772.43,31.96 L774.24,30.61 L774.64,29.03 L779.19,32.30 L781.80,35.46 L781.15,38.22 L781.80,36.75 L784.55,38.22 L792.22,36.19 L794.42,38.90 L796.48,39.52 L798.93,38.28 L802.14,40.70 L803.49,40.70 L803.84,43.97 L805.64,44.42 L808.95,49.43 L808.50,51.18 L810.15,51.63 L810.95,50.45 L812.26,50.62 L814.31,54.33 L812.96,54.62 L816.51,57.71 L818.02,61.43 L817.67,63.24 L816.21,63.86 L818.32,68.08 L817.37,70.90 L817.27,72.59 L818.92,73.32 L819.22,75.18 L821.92,75.41 L825.08,82.79 L826.38,82.62 L828.29,83.41 L831.99,87.86 L836.10,89.66 L830.59,89.61 L830.44,90.28 L833.75,91.41 L830.39,90.34 L829.54,91.52 L828.54,94.56 L829.19,100.03 L835.95,120.48 L838.86,127.75 L844.37,140.43 L854.68,160.32 L855.49,160.71 L856.19,163.93 L857.34,164.49 L856.39,168.55 L854.48,168.88 L854.63,173.17 L853.13,173.90 L852.68,176.27 L854.23,182.41 L858.79,192.94 L857.94,195.37 L856.54,196.04 L856.89,198.69 L855.44,201.45 L856.49,205.68 L861.95,217.51 L880.92,248.88 L881.08,248.78 L886.09,256.05 L888.15,256.56 L887.50,258.19 L885.74,258.36 L884.99,259.04 L884.39,261.57 L885.59,265.29 L889.90,272.96 L892.05,274.76 L894.11,284.34 L892.10,287.49 L889.90,285.86 L887.15,287.32 L885.94,290.70 L886.19,296.56 L889.40,306.88 L897.26,323.84 L905.88,337.41 L907.18,337.87 L908.53,336.96 L909.09,337.75 L907.83,339.89 L907.98,341.58 L906.03,343.84 L903.33,344.29 L902.17,343.44 L898.12,343.32 L900.27,343.95 L898.22,346.49 L897.61,351.28 L899.77,360.52 L906.88,378.04 L919.05,401.25 L921.51,402.78 L921.31,404.75 L922.16,406.16 L920.71,407.40 L920.66,408.69 L918.90,409.71 L918.65,411.00 L921.16,418.16 L923.31,419.74 L923.76,421.31 L922.56,423.96 L920.56,423.57 L919.81,425.65 L920.51,429.82 L922.51,434.39 L923.31,435.29 L925.07,435.34 L924.87,436.36 L923.41,436.86 L921.71,438.44 L920.26,437.94 L918.35,438.78 L916.35,441.15 L916.65,446.73 L920.06,456.19 L928.07,470.50 L929.87,473.04 L933.53,477.04 L938.09,479.18 L940.69,478.28 L940.39,476.48 L942.10,473.55 L942.10,475.12 L942.10,475.24 L942.10,475.74 L942.15,475.97 L941.30,477.43 L941.50,479.41 L943.35,480.14 L943.85,481.32 L944.30,484.65 L942.65,484.14 L941.30,486.96 L942.85,496.53 L941.40,498.79 L942.00,500.82 L944.85,504.37 L944.25,506.73 L943.25,507.69 L945.00,511.69 L944.35,514.90 L944.15,514.28 L943.35,515.97 L942.05,516.09 L940.34,517.95 L938.44,522.90 L938.44,528.54 L940.09,531.02 L939.84,533.16 L941.05,534.29 L940.64,535.30 L942.35,538.96 L941.70,540.09 L942.30,544.09 L941.55,543.75 L940.90,544.71 L941.90,546.51 L940.29,548.03 L939.59,550.46 L940.04,553.50 L938.69,553.67 L936.64,549.84 L935.54,549.22 L932.68,549.78 L929.17,552.20 L925.62,552.09 L920.66,549.89 L921.26,548.88 L920.26,544.99 L915.20,544.26 L911.84,545.72 L906.38,550.40 L902.62,557.84 L902.47,558.85 L904.48,562.46 L905.13,565.50 L904.28,569.11 L904.33,576.09 L906.28,577.39 L906.13,579.53 L908.74,589.67 L909.94,591.31 L910.94,590.69 L911.74,591.53 L910.84,592.89 L912.24,595.42 L911.99,601.34 L908.18,596.49 L903.88,594.80 L901.47,596.32 L898.97,595.42 L896.96,588.89 L895.01,587.08 L890.60,587.98 L886.44,593.79 L879.88,594.41 L877.58,597.22 L873.27,596.49 L873.47,600.55 L872.62,605.28 L870.81,609.45 L872.22,614.75 L871.67,621.17 L868.71,622.24 L868.11,623.99 L867.46,623.99 L865.25,621.51 L863.00,620.55 L861.30,617.62 L860.19,618.02 L856.39,615.82 L854.99,617.79 L854.28,621.34 L856.49,622.52 L858.54,626.64 L858.54,629.34 L855.39,630.13 L852.78,632.72 L852.78,636.50 L854.03,639.37 L851.73,642.92 L851.63,645.46 L854.03,648.78 L853.03,649.96 L849.12,647.26 L845.52,650.13 L844.32,653.40 L841.71,656.56 L836.80,656.78 L836.50,659.15 L821.17,658.36 L819.87,662.08 L817.22,664.16 L815.76,666.42 L815.06,669.97 L811.70,673.18 L811.45,676.16 L808.95,679.77 L804.14,682.53 L800.58,681.74 L798.78,683.77 L794.47,684.11 L792.17,687.72 L775.84,687.10 L774.18,688.50 L769.38,681.91 L767.32,682.25 L767.07,680.73 L765.07,680.84 L763.06,678.70 L761.41,678.08 L761.16,679.21 L760.21,677.91 L757.40,676.62 L755.00,673.91 L750.89,674.42 L748.24,673.40 L748.59,674.31 L746.58,675.54 L742.23,673.80 L739.02,676.22 L728.85,677.52 L728.25,675.21 L729.90,671.15 L726.90,667.26 L723.64,667.32 L723.09,664.22 L721.49,662.19 L720.38,658.13 L717.23,661.06 L708.61,660.73 L707.16,659.26 L705.16,659.04 L702.15,654.02 L687.42,653.29 L686.32,654.58 L686.92,655.37 L684.97,656.50 L684.97,658.19 L681.91,657.40 L678.76,662.36 L674.25,661.85 L669.29,659.37 L668.59,660.61 L668.69,665.40 L665.43,664.95 L664.38,666.64 L664.58,668.39 L662.78,669.85 L660.87,675.04 L661.93,676.78 L661.02,680.84 L658.32,684.00 L658.07,686.08 L651.76,687.04 L650.91,697.18 L649.20,698.03 L648.85,701.29 L646.25,704.90 L649.90,710.82 L652.16,712.28 L650.96,715.94 L651.31,717.58 L656.52,718.48 L657.72,717.69 L662.08,721.30 L666.69,721.52 L668.54,720.73 L670.84,718.14 L673.10,720.40 L675.05,716.90 L676.40,717.69 L679.26,717.02 L681.01,715.89 L683.52,715.66 L683.87,714.76 L684.82,716.11 L689.53,714.82 L690.93,712.17 L691.78,712.17 L692.48,712.85 L692.73,716.90 L692.18,718.14 L691.08,718.14 L691.03,720.96 L689.88,723.27 L692.98,723.95 L692.98,726.88 L694.79,727.44 L695.29,730.71 L697.64,733.69 L696.99,735.55 L697.59,740.29 L696.79,742.71 L697.99,747.61 L697.24,749.81 L698.44,752.46 L689.98,761.30 L698.19,753.41 L698.44,757.25 L696.64,759.05 L697.04,764.80 L698.19,768.12 L697.94,772.74 L699.85,776.46 L698.84,777.59 L699.85,779.28 L701.65,779.50 L701.60,781.36 L705.36,784.97 L706.91,785.14 L708.11,786.88 L708.21,789.53 L714.82,796.69 L716.18,802.04 L717.43,803.51 L721.14,813.65 L723.69,814.72 L725.19,817.20 L728.60,816.18 L731.36,821.48 L730.50,823.51 L730.40,827.68 L728.75,831.51 L730.35,836.02 L730.05,840.24 L726.65,851.91 L723.64,853.03 L721.94,856.02 L719.83,856.47 L720.33,861.26 L718.88,862.78 L718.73,864.53 L722.29,869.54 L719.03,871.63 L719.43,877.32 L717.93,875.63 L717.23,876.19 L717.33,873.71 L716.93,879.18 L714.12,882.62 L715.93,885.88 L713.97,887.52 L709.87,885.55 L708.41,886.00 L706.61,892.25 L705.11,890.28 L701.50,889.21 L698.69,892.08 L696.89,896.65 L696.59,893.26 L693.33,892.93 L692.58,899.18 L691.13,898.56 L690.23,895.63 L687.87,899.07 L686.12,898.34 L685.22,896.19 L682.97,895.97 L683.37,901.15 L678.96,903.18 L676.90,901.77 L675.65,902.67 L674.65,907.91 L678.26,909.72 L679.31,911.35 L674.75,914.00 L675.15,910.28 L673.35,921.10 L669.79,920.76 L672.85,921.44 L669.34,927.02 L673.15,959.75 L671.99,960.99 L651.91,968.94 L641.09,969.27 L637.53,976.60 L635.53,978.18 L635.63,979.14 L632.52,980.77 L627.81,976.04 L624.21,979.47 L622.75,979.19 L619.95,977.05 L617.19,972.82 L609.23,973.44 L608.38,974.51 L603.92,972.88 L601.66,974.63 L597.81,968.60 L594.85,968.65 L590.44,962.12 L583.33,962.91 L578.57,967.64 L563.39,960.60 L551.07,959.36 L549.92,957.84 L551.37,956.20 L550.07,952.82 L551.77,948.76 L552.87,944.82 L555.23,943.07 L553.42,940.71 L553.98,938.34 L553.17,937.44 L551.82,938.06 L549.42,933.89 L544.46,931.19 L544.46,928.54 L542.85,925.61 L538.70,923.13 L540.95,919.86 L540.10,916.70 L539.90,917.66 L537.44,915.52 L533.04,914.23 L530.78,912.08 L526.93,912.87 L523.07,907.52 L524.62,903.18 L528.13,902.28 L529.48,899.35 L526.72,899.24 L526.62,895.91 L525.12,894.84 L524.82,891.52 L526.37,887.24 L521.87,884.70 L514.75,878.22 L512.85,877.71 L506.24,867.35 L505.18,859.68 L503.23,857.94 L502.63,853.48 L505.54,850.89 L503.23,847.29 L503.28,844.41 L505.18,843.12 L499.87,839.17 L499.12,834.44 L497.02,832.02 L493.66,834.66 L488.70,833.93 L486.30,832.47 L482.84,828.35 L480.49,828.07 L481.39,823.34 L480.69,822.04 L481.29,821.20 L481.04,816.35 L478.69,812.35 L479.64,811.06 L478.89,808.75 L480.64,808.30 L478.03,804.07 L476.33,803.79 L475.43,801.31 L472.27,801.03 L470.72,796.35 L471.37,794.83 L470.82,792.97 L467.21,791.62 L467.87,787.62 L462.91,788.35 L454.89,784.07 L453.79,784.57 L452.14,783.17 L450.08,783.56 L442.67,780.57 L438.56,781.31 L437.71,778.66 L434.95,775.22 L426.34,768.97 L423.63,770.60 L417.27,769.64 L415.62,771.33 L413.36,768.40 L412.36,769.25 L405.50,769.64 L400.79,771.28 L398.84,766.60 L395.88,768.40 L392.93,765.30 L385.56,763.73 L384.31,762.43 L383.11,762.54 L382.81,760.23 L381.45,760.12 L381.30,758.15 L379.25,758.15 L376.55,756.51 L376.90,755.78 L374.74,752.68 L372.79,752.57 L371.99,753.64 L370.18,752.79 L369.73,753.58 L367.98,750.77 L366.53,750.82 L366.33,749.08 L364.87,748.46 L364.37,749.64 L362.77,749.41 L362.07,748.17 L360.37,748.34 L359.01,746.99 L356.91,748.23 L350.65,744.06 L349.39,744.46 L347.59,747.89 L346.54,746.93 L341.53,749.02 L339.03,748.34 L334.47,753.41 L333.82,750.82 L330.61,753.58 L329.26,751.56 L329.01,748.79 L328.36,747.89 L326.45,749.75 L326.15,748.12 L322.80,749.13 L321.74,748.46 L322.60,747.10 L320.84,746.43 L317.94,749.36 L316.78,752.85 L314.53,753.75 L313.33,752.06 L312.03,751.78 L310.77,755.78 L307.57,756.12 L305.01,760.68 L301.51,761.19 L300.35,763.11 L298.75,764.06 L293.99,760.85 L292.99,758.71 L290.79,759.61 L288.58,757.81 L285.93,757.47 L284.22,758.60 L284.62,762.54 L282.52,762.43 L281.12,763.89 L278.86,763.11 L276.46,764.80 L273.30,764.40 L270.20,761.47 L268.79,761.58 L268.74,764.29 L265.99,764.57 L265.99,767.33 L265.24,768.35 L263.13,766.94 L260.58,767.05 L254.32,764.74 L252.31,762.20 L249.91,761.58 L247.56,759.61 L237.24,761.87 L235.08,758.32 L232.18,756.96 L219.75,759.39 L213.49,753.08 L209.63,755.44 L202.32,757.42 L198.36,756.23 L195.91,757.25 L194.56,756.85 Z M906.68,545.33 L906.03,550.12 L904.64,549.31 L906.38,550.40 L906.68,545.33 Z M891.60,582.97 L891.42,581.55 L890.60,587.98 L891.60,582.97 Z M715.98,870.56 L711.82,864.87 L717.33,873.71 L715.98,870.56 Z M550.42,913.10 L542.45,915.41 L540.10,916.70 L550.42,913.10 Z M619.15,249.12 L622.40,252.22 L618.40,248.11 L619.15,249.12 Z M635.38,308.11 L633.57,309.41 L629.92,314.99 L631.87,312.17 L635.38,308.11 Z M644.59,355.16 L644.64,353.30 L644.34,351.33 L644.59,355.16 Z M649.80,360.29 L650.57,360.74 L649.30,358.26 L649.80,360.29 Z M673.25,413.20 L673.63,413.86 L671.09,404.80 L673.25,413.20 Z M666.94,452.64 L667.95,463.81 L668.34,463.46 L667.99,460.14 L666.94,452.64 Z M668.24,470.50 L668.79,470.86 L665.88,465.66 L668.24,470.50 Z M673.40,473.81 L672.55,472.64 L670.63,472.03 L673.40,473.81 Z M692.13,516.42 L692.88,519.64 L692.60,516.13 L692.13,516.42 Z M711.60,555.65 L712.01,553.75 L711.97,551.81 L711.60,555.65 Z M711.27,559.02 L711.36,559.14 L711.31,558.57 L711.27,559.02 Z M322.39,290.99 L317.18,290.31 L319.19,291.10 L318.76,291.29 L322.39,290.99 Z M317.34,291.94 L317.57,292.48 L318.24,291.53 L317.34,291.94 Z M341.98,402.66 L338.42,396.52 L338.78,397.37 L338.07,396.86 L341.98,402.66 Z M333.24,436.02 L336.72,437.03 L333.01,435.51 L333.24,436.02 Z M339.93,434.55 L340.14,434.14 L336.72,437.03 L339.93,434.55 Z M332.76,441.99 L333.21,441.20 L332.03,442.82 L334.92,441.15 L332.76,441.99 Z M329.52,462.90 L330.11,462.67 L332.41,459.06 L329.52,462.90 Z M324.60,474.28 L333.37,463.52 L328.56,468.87 L324.60,474.28 Z M336.32,491.28 L338.12,490.56 L338.21,489.97 L336.32,491.28 Z M355.41,494.91 L354.75,494.00 L352.65,492.87 L355.41,494.91 Z M358.26,500.37 L357.16,497.32 L355.99,495.71 L358.26,500.37 Z M360.77,501.55 L362.00,501.48 L358.26,500.37 L360.77,501.55 Z M375.29,502.90 L374.49,500.82 L374.05,500.47 L375.29,502.90 Z M381.10,509.38 L383.86,507.41 L382.91,507.92 L381.10,509.38 Z M401.29,497.44 L401.63,497.24 L401.03,497.22 L401.29,497.44 Z M403.09,496.42 L403.75,493.72 L402.50,496.75 L403.09,496.42 Z M432.10,603.87 L435.66,606.08 L435.66,606.07 L432.10,603.87 Z M478.79,638.24 L482.22,639.45 L473.93,635.54 L478.79,638.24 Z M487.78,641.39 L486.50,640.39 L485.33,640.53 L487.78,641.39 Z M488.25,657.29 L488.65,642.08 L488.45,641.92 L488.25,657.29 Z M491.91,670.76 L492.26,666.75 L492.51,661.01 L491.91,670.76 Z M482.59,673.46 L480.89,675.32 L483.95,672.73 L482.59,673.46 Z M470.37,690.14 L476.58,682.76 L477.78,680.45 L470.37,690.14 Z M478.73,686.06 L478.89,685.46 L478.43,684.11 L478.73,686.06 Z M271.65,346.26 L263.94,346.20 L264.69,346.37 L271.65,346.26 Z M267.04,361.47 L264.82,362.58 L265.19,362.71 L267.04,361.47 Z M270.65,362.71 L269.71,364.09 L271.23,362.75 L267.04,361.47 L270.65,362.71 Z M259.53,368.07 L262.73,370.04 L257.97,366.49 L259.53,368.07 Z M245.90,389.93 L247.81,379.67 L245.32,390.76 L245.90,389.93 Z M241.31,423.26 L238.49,423.45 L237.86,423.97 L237.89,423.96 L241.31,423.26 Z M242.88,440.19 L242.98,438.25 L242.45,439.68 L242.88,440.19 Z M246.40,443.34 L244.35,441.91 L244.80,442.44 L246.40,443.34 Z M264.12,448.58 L262.58,449.77 L263.79,449.04 L264.12,448.58 Z M285.58,510.85 L284.32,509.83 L285.59,510.89 L285.58,510.85 Z M286.08,512.31 L285.90,511.81 L284.62,515.58 L286.08,512.31 Z M275.08,550.68 L274.76,550.91 L272.10,555.13 L275.08,550.68 Z M285.03,546.06 L283.27,547.81 L286.13,545.78 L285.03,546.06 Z M298.30,557.39 L297.95,556.09 L298.55,564.54 L298.30,557.39 Z M298.30,583.31 L296.00,578.52 L295.93,576.42 L295.59,577.39 L296.45,580.55 L298.30,583.31 Z M319.99,582.57 L323.81,588.49 L323.60,587.31 L319.95,582.47 L319.99,582.57 Z M319.24,580.38 L319.53,581.22 L320.49,575.14 L319.24,580.38 Z M313.78,556.43 L315.48,556.71 L320.29,556.15 L313.78,556.43 Z M330.20,555.51 L326.30,556.09 L329.66,555.87 L330.20,555.51 Z M334.22,566.01 L333.35,566.04 L335.17,566.99 L334.22,566.01 Z M335.92,567.76 L335.62,567.45 L335.12,569.62 L335.92,567.76 Z M336.27,595.82 L337.30,595.10 L335.06,595.83 L336.27,595.82 Z M337.52,622.30 L331.66,619.93 L337.39,622.78 L337.52,622.30 Z M344.71,629.63 L342.93,628.38 L343.83,629.51 L344.71,629.63 Z M347.04,631.26 L346.47,630.86 L347.64,632.27 L347.04,631.26 Z M335.87,685.25 L334.57,685.91 L332.96,687.55 L335.87,685.25 Z M345.58,703.14 L344.66,702.37 L342.43,702.37 L345.58,703.14 Z M341.53,703.38 L339.03,710.20 L342.43,702.37 L341.53,703.38 Z M257.12,340.29 L255.77,341.42 L255.63,342.49 L257.12,340.29 Z M90.96,503.35 L94.22,506.23 L93.17,504.59 L90.96,503.35 Z M139.65,468.70 L142.36,466.62 L143.51,464.76 L139.65,468.70 Z M160.83,469.89 L160.69,470.28 L161.00,470.39 L160.83,469.89 Z M163.30,472.44 L163.29,472.71 L163.60,472.52 L163.30,472.44 Z M173.47,477.26 L174.37,478.56 L174.78,478.21 L173.47,477.26 Z M175.82,478.95 L180.23,478.34 L178.28,478.11 L175.82,478.95 Z M203.12,487.74 L203.92,489.72 L205.98,491.75 L203.12,487.74 Z M217.00,478.50 L217.05,475.46 L216.55,476.31 L217.00,478.50 Z M265.29,588.67 L264.79,589.51 L265.53,588.94 L265.29,588.67 Z M263.33,596.83 L270.80,596.55 L274.31,595.59 L263.33,596.83 Z M276.55,599.62 L277.04,600.33 L277.01,599.87 L276.55,599.62 Z M277.12,601.55 L276.66,603.51 L277.21,602.97 L277.12,601.55 Z M259.34,628.91 L258.48,633.40 L258.62,633.91 L259.13,632.16 L259.34,628.91 Z M258.75,634.37 L258.83,634.64 L260.38,635.31 L258.75,634.37 Z M248.90,661.70 L250.11,665.29 L249.86,662.98 L248.90,661.70 Z M251.96,674.76 L251.96,676.22 L252.46,675.32 L251.96,674.76 Z M253.34,679.65 L253.67,680.45 L254.97,680.56 L253.34,679.65 Z M255.44,725.31 L255.57,725.24 L260.13,735.44 L255.63,725.00 L255.44,725.31 Z M217.70,484.42 L219.53,483.83 L214.14,484.14 L217.70,484.42 Z M122.22,532.48 L123.27,528.99 L122.82,530.23 L122.22,532.48 Z M125.24,597.20 L125.03,595.70 L127.08,589.62 L124.63,596.49 L125.24,597.20 Z M169.71,590.46 L171.01,588.12 L170.36,588.83 L169.71,590.46 Z M211.69,569.16 L212.54,569.50 L207.38,567.30 L211.69,569.16 Z M212.99,568.04 L212.89,567.56 L212.79,568.12 L212.99,568.04 Z M227.47,555.92 L226.37,550.40 L228.02,559.02 L227.47,555.92 Z M227.82,549.33 L228.12,548.20 L227.36,549.16 L227.82,549.33 Z M233.96,548.17 L233.53,547.87 L233.33,548.88 L233.96,548.17 Z M234.68,547.36 L234.43,546.74 L234.37,547.70 L234.68,547.36 Z M125.27,599.73 L124.00,601.00 L125.18,600.49 L125.27,599.73 Z M194.01,643.93 L191.95,643.88 L190.75,644.16 L194.01,643.93 Z M220.10,630.69 L215.15,635.31 L221.56,629.68 L220.10,630.69 Z M222.01,626.52 L221.82,626.93 L223.21,626.24 L222.01,626.52 Z M224.41,625.96 L223.83,626.10 L225.71,627.03 L224.41,625.96 Z M202.47,687.43 L203.42,687.94 L213.44,689.35 L202.47,687.43 Z M192.45,749.58 L191.70,750.60 L191.87,750.90 L192.45,749.58 Z M194.71,715.32 L195.21,704.68 L194.36,721.13 L194.71,715.32 Z M253.77,726.20 L254.07,726.04 L253.79,726.01 L253.77,726.20 Z M190.90,589.67 L191.45,590.29 L192.25,589.98 L190.90,589.67 Z M231.48,575.53 L235.53,579.48 L235.08,578.97 L231.48,575.53 Z M148.41,520.75 L145.06,520.03 L148.41,520.75 L148.41,520.75 Z M168.66,527.92 L167.16,528.26 L172.12,527.30 L168.66,527.92 Z M225.89,533.57 L215.80,530.62 L225.31,533.89 L225.89,533.57 Z M248.92,494.23 L244.80,492.48 L247.20,494.00 L248.92,494.23 Z M257.77,498.68 L258.13,496.25 L256.12,502.00 L257.77,498.68 Z M243.25,541.50 L242.91,541.97 L244.05,541.67 L243.25,541.50 Z M225.01,484.48 L222.91,483.63 L221.14,483.73 L225.01,484.48 Z M131.54,337.47 L128.28,336.18 L128.16,336.46 L131.54,337.47 Z M163.60,341.64 L163.51,340.51 L162.45,344.35 L163.60,341.64 Z M165.10,338.03 L163.95,338.94 L163.86,339.26 L165.10,338.03 Z M239.45,313.58 L238.64,313.02 L237.62,313.18 L239.45,313.58 Z M95.13,425.90 L91.01,420.02 L94.22,425.31 L95.13,425.90 Z M96.37,427.68 L96.27,427.53 L96.35,427.76 L96.37,427.68 Z M130.48,420.32 L128.48,414.44 L130.19,419.85 L130.48,420.32 Z M172.92,371.50 L168.36,372.12 L168.96,375.17 L168.56,372.18 L172.92,371.50 Z M187.29,432.13 L185.13,429.24 L185.34,430.10 L187.29,432.13 Z M235.73,424.36 L235.30,424.86 L236.31,424.51 L235.73,424.36 Z M36.06,474.00 L37.67,474.79 L38.24,474.32 L36.06,474.00 Z M38.83,473.85 L39.77,473.09 L40.82,471.97 L38.83,473.85 Z M107.70,450.11 L119.57,450.95 L111.40,449.88 L107.70,450.11 Z M135.99,452.42 L135.55,447.06 L134.75,445.03 L135.99,452.42 Z M198.03,446.44 L198.40,446.92 L198.51,446.67 L198.03,446.44 Z M198.30,447.16 L197.76,447.40 L198.16,447.47 L198.30,447.16 Z M199.21,447.66 L200.27,447.85 L201.97,447.12 L199.21,447.66 Z M96.88,434.67 L97.65,435.29 L96.90,433.80 L96.88,434.67 Z M98.94,438.51 L98.98,437.94 L98.63,437.25 L98.94,438.51 Z M237.74,355.84 L237.04,355.87 L237.04,356.01 L236.82,356.44 L237.74,355.84 Z M255.02,343.39 L255.28,343.00 L253.07,343.50 L255.02,343.39 Z M220.12,351.34 L220.40,348.63 L219.90,351.11 L220.12,351.34 Z M224.41,350.21 L220.55,351.80 L220.91,352.18 L224.41,350.21 Z M313.18,648.72 L313.00,648.53 L313.22,648.97 L313.18,648.72 Z M314.68,650.87 L313.68,651.71 L314.76,651.01 L314.68,650.87 Z M311.12,686.36 L311.17,686.58 L311.49,686.41 L311.12,686.36 Z M312.18,684.17 L312.37,685.96 L312.58,685.86 L312.18,684.17 Z M300.65,597.79 L302.31,602.75 L306.21,612.38 L300.65,597.79 Z M327.30,635.20 L325.30,639.93 L326.75,637.79 L328.66,630.24 L327.30,635.20 Z M297.85,620.66 L298.81,619.94 L294.04,621.51 L297.85,620.66 Z M266.19,587.87 L265.86,588.69 L266.19,588.43 L266.19,587.87 Z M295.59,382.41 L295.75,382.60 L300.00,383.56 L295.59,382.41 Z M330.16,495.58 L332.22,495.01 L331.76,494.56 L331.77,494.46 L330.16,495.58 Z M332.23,494.14 L332.23,494.14 L331.76,494.56 L332.23,494.14 Z M333.47,496.24 L339.48,505.61 L333.72,496.48 L333.47,496.24 Z M337.05,521.89 L336.97,522.28 L338.42,523.92 L337.05,521.89 Z M334.42,537.67 L334.48,538.99 L334.87,538.62 L334.58,536.50 L334.42,537.67 Z M336.88,546.76 L336.37,547.41 L337.12,547.13 L336.88,546.76 Z M330.71,549.50 L336.75,548.60 L336.42,548.37 L337.12,547.87 L330.71,549.50 Z M330.85,555.09 L331.21,554.85 L330.71,549.50 L330.85,555.09 Z M286.88,434.22 L284.57,433.99 L281.62,433.82 L286.88,434.22 Z M295.83,434.22 L295.83,434.22 L295.49,429.37 L295.83,434.22 Z M298.25,432.75 L299.60,426.27 L298.80,429.77 L298.25,432.75 Z M298.93,436.25 L298.95,434.16 L298.25,432.75 L298.93,436.25 Z M309.42,433.99 L310.32,429.15 L309.82,431.29 L309.42,433.99 Z M320.59,421.48 L320.84,421.17 L317.79,422.72 L320.59,421.48 Z M321.94,419.79 L321.53,419.82 L321.67,420.13 L321.94,419.79 Z M318.96,416.65 L318.44,416.47 L318.33,416.86 L318.96,416.65 Z M325.25,417.71 L325.85,416.58 L324.05,418.44 L325.25,417.71 Z M325.75,411.51 L327.30,412.92 L326.50,411.51 L324.76,411.38 L325.35,412.02 L325.85,416.58 L325.75,411.51 Z M291.44,451.23 L288.58,454.28 L289.93,452.98 L291.44,451.23 Z M317.59,449.95 L317.39,451.32 L317.64,450.73 L317.59,449.95 Z M317.94,447.63 L317.89,447.95 L329.76,444.13 L331.12,443.34 L317.94,447.63 Z M293.29,497.19 L293.04,508.54 L293.54,511.35 L293.29,497.19 Z M319.59,525.17 L319.99,525.67 L322.85,528.31 L319.59,525.17 Z M302.86,534.79 L297.21,529.94 L297.21,529.94 L302.86,534.79 Z M303.45,476.20 L303.21,476.59 L303.30,477.01 L303.45,476.20 Z M304.75,474.56 L304.41,474.67 L304.14,475.11 L304.75,474.56 Z M291.69,442.89 L293.51,443.25 L292.99,442.72 L291.69,442.89 Z M294.08,443.68 L294.19,444.13 L294.74,443.23 L294.08,443.68 Z M305.96,442.16 L313.99,436.33 L313.99,436.33 L305.96,442.16 Z M298.20,444.92 L297.80,442.16 L297.85,446.27 L298.20,444.92 Z M294.84,447.29 L294.65,446.78 L294.22,447.62 L294.84,447.29 Z M268.09,403.51 L266.74,401.82 L267.91,404.35 L268.09,403.51 Z M268.91,405.30 L268.25,405.07 L268.54,405.71 L268.91,405.30 Z M276.41,398.78 L274.28,402.25 L274.51,402.16 L276.41,398.78 Z M297.00,428.19 L297.50,425.54 L297.75,423.68 L297.00,428.19 Z M285.53,427.06 L285.47,428.36 L287.68,422.72 L285.53,427.06 Z M301.24,411.29 L301.46,411.62 L301.97,411.44 L301.24,411.29 Z M303.23,411.01 L303.84,410.80 L303.41,410.72 L303.23,411.01 Z M306.87,409.76 L310.12,412.52 L308.77,406.33 L309.97,412.02 L306.87,409.76 Z M308.62,413.03 L308.42,413.48 L310.12,412.52 L308.62,413.03 Z M292.39,400.13 L295.61,400.78 L294.94,400.07 L292.39,400.13 Z M295.95,337.64 L303.35,342.93 L303.16,342.37 L295.95,337.64 Z M303.68,343.90 L302.61,346.49 L303.81,344.29 L303.68,343.90 Z M302.91,352.98 L303.16,352.80 L302.61,346.49 L302.91,352.98 Z M312.28,372.18 L312.84,372.33 L310.57,370.15 L312.28,372.18 Z M314.58,372.80 L315.30,372.42 L314.06,372.66 L314.58,372.80 Z M367.93,672.95 L367.28,671.04 L366.58,670.72 L367.93,672.95 Z M420.43,637.91 L425.29,630.19 L411.21,652.33 L420.43,637.91 Z M429.84,666.59 L430.58,666.49 L428.19,665.46 L429.84,666.59 Z M432.00,668.16 L432.10,667.15 L431.74,666.99 L432.00,668.16 Z M395.33,724.17 L394.43,723.97 L400.04,726.59 L395.33,724.17 Z M360.62,706.82 L348.19,703.27 L346.95,703.47 L360.62,706.82 Z M441.57,691.49 L443.96,688.96 L443.32,689.24 L441.57,691.49 Z M349.09,591.59 L345.39,596.21 L348.89,592.04 L350.15,591.36 L349.09,591.59 Z M344.64,569.00 L344.54,571.02 L345.09,569.45 L368.28,565.84 L344.64,569.00 Z M373.79,610.30 L368.53,604.89 L370.73,607.25 L373.79,610.30 Z M345.34,615.82 L346.59,615.18 L346.59,615.18 L345.34,615.82 Z M365.90,623.83 L367.13,626.24 L377.55,641.46 L365.90,623.83 Z M383.59,654.62 L383.66,655.43 L384.91,656.44 L383.59,654.62 Z M337.29,548.96 L337.87,550.38 L337.92,549.39 L337.29,548.96 Z M375.26,531.89 L377.05,527.41 L375.39,531.07 L375.26,531.89 Z M374.79,534.79 L377.00,535.92 L374.87,534.28 L374.79,534.79 Z M451.53,282.20 L451.90,282.27 L449.23,280.45 L451.53,282.20 Z M451.94,373.64 L453.49,373.76 L454.89,374.55 L452.84,373.19 L451.94,373.64 Z M451.99,409.88 L451.94,403.06 L451.65,410.48 L451.99,409.88 Z M479.99,421.48 L479.74,420.69 L477.73,426.89 L479.99,421.48 Z M485.45,453.49 L486.21,452.83 L480.59,453.77 L485.45,453.49 Z M478.56,508.57 L477.98,508.59 L476.63,509.44 L478.56,508.57 Z M548.77,509.55 L514.05,510.00 L525.27,509.95 L548.77,509.55 Z M552.32,517.78 L549.67,522.85 L549.62,524.82 L550.32,522.23 L552.32,517.78 Z M554.75,475.58 L554.01,476.46 L554.63,475.97 L554.75,475.58 Z M552.97,469.55 L552.77,470.95 L554.03,468.19 L552.97,469.55 Z M566.40,468.87 L560.29,469.43 L560.59,469.55 L566.40,468.87 Z M568.85,474.62 L568.76,473.92 L566.80,478.73 L568.85,474.62 Z M600.06,481.21 L596.40,483.18 L595.87,483.59 L600.06,481.21 Z M576.52,533.72 L571.91,525.44 L571.64,525.36 L576.52,533.72 Z M573.96,576.66 L574.81,573.50 L573.11,578.12 L573.96,576.66 Z M572.01,619.20 L571.60,616.92 L571.41,617.11 L572.01,619.20 Z M571.61,623.37 L566.30,626.81 L571.41,623.54 L578.62,625.06 L571.61,623.37 Z M525.67,748.40 L525.74,747.99 L524.52,750.03 L524.12,752.34 L525.67,748.40 Z M521.57,745.24 L522.67,747.61 L524.52,750.03 L521.57,745.24 Z M571.31,763.28 L568.80,763.89 L568.74,764.02 L571.31,763.28 Z M594.65,799.73 L592.80,795.84 L594.68,800.43 L594.65,799.73 Z M606.82,820.02 L607.07,817.76 L606.55,820.50 L606.82,820.02 Z M602.16,842.22 L601.11,840.07 L601.71,841.71 L602.16,842.22 Z M604.53,844.20 L603.57,843.84 L603.92,844.24 L604.53,844.20 Z M625.86,860.36 L626.58,861.35 L625.91,859.68 L623.76,856.98 L625.86,860.36 Z M479.29,488.03 L477.68,488.98 L477.00,490.19 L479.29,488.03 Z M556.98,774.43 L556.73,772.12 L556.26,771.59 L556.98,774.43 Z M351.36,394.35 L347.69,389.76 L349.50,392.80 L351.36,394.35 Z M396.61,370.88 L396.33,368.57 L396.10,369.29 L396.61,370.88 Z M426.49,409.03 L426.14,408.02 L425.96,408.10 L426.49,409.03 Z M430.15,426.27 L430.15,424.24 L429.84,423.57 L430.15,426.27 Z M432.39,425.12 L431.95,423.79 L431.53,423.90 L432.39,425.12 Z M340.29,432.08 L340.63,433.15 L340.78,432.86 L340.29,432.08 Z M343.08,422.73 L343.73,426.44 L344.34,435.40 L344.19,428.13 L343.08,422.73 Z M370.73,467.40 L370.43,470.56 L362.77,486.17 L370.33,471.97 L370.73,467.40 Z M401.14,439.01 L382.41,440.30 L404.57,439.38 L401.14,439.01 Z M407.25,438.39 L406.52,439.30 L406.80,439.29 L407.25,438.39 Z M408.55,446.44 L407.80,446.22 L405.80,445.88 L408.55,446.44 Z M406.20,446.95 L406.60,447.06 L405.80,445.88 L406.20,446.95 Z M416.64,475.58 L421.68,473.26 L416.77,475.12 L416.27,472.64 L416.64,475.58 Z M392.07,477.38 L396.59,473.46 L394.83,474.28 L392.07,477.38 Z M399.40,472.15 L404.65,471.80 L400.29,471.74 L399.40,472.15 Z M409.11,447.74 L411.51,446.84 L407.91,447.42 L409.11,447.74 Z M342.47,419.25 L342.47,419.25 L352.65,415.57 L342.47,419.25 Z M357.30,422.57 L355.71,421.99 L357.01,423.00 L357.30,422.57 Z M364.08,433.16 L373.94,439.17 L375.84,439.85 L364.08,433.16 Z M381.45,438.18 L381.45,438.18 L375.84,439.85 L381.45,438.18 Z M411.46,436.92 L411.05,436.26 L411.15,437.03 L411.46,436.92 Z M339.45,331.13 L339.35,332.06 L339.63,331.89 L339.45,331.13 Z M339.58,329.98 L339.54,330.35 L340.28,329.47 L339.58,329.98 Z M382.92,326.27 L380.78,325.99 L378.70,326.09 L382.92,326.27 Z M387.52,325.19 L383.91,326.31 L385.36,326.37 L387.52,325.19 Z M419.39,329.63 L417.62,331.39 L422.48,330.60 L418.67,330.88 L419.39,329.63 Z M424.94,287.66 L426.74,289.07 L426.49,288.34 L424.94,287.66 Z M348.99,297.01 L348.09,295.66 L349.70,299.55 L348.99,297.01 Z M375.42,284.69 L374.89,284.45 L373.71,285.11 L375.42,284.69 Z M377.45,288.06 L376.75,285.29 L376.14,285.02 L377.45,288.06 Z M327.30,294.39 L323.90,293.52 L326.55,294.54 L327.30,294.39 Z M330.01,293.47 L329.02,294.05 L332.56,293.35 L330.01,293.47 Z M347.24,280.39 L344.24,279.55 L347.89,280.90 L347.24,280.39 Z M513.30,785.70 L514.37,765.36 L514.05,766.21 L513.30,785.70 Z M515.15,763.28 L517.22,763.59 L516.61,763.11 L515.15,763.28 Z M518.60,763.80 L519.26,763.89 L519.41,762.99 L518.60,763.80 Z M518.47,761.45 L519.76,760.91 L518.31,761.19 L518.47,761.45 Z M522.67,762.88 L525.92,767.73 L526.33,768.13 L522.67,762.88 Z M489.71,705.04 L489.26,705.13 L488.55,707.21 L489.71,705.04 Z M490.62,705.43 L490.76,704.84 L490.17,704.96 L490.62,705.43 Z M504.98,711.94 L504.60,711.88 L504.63,713.07 L504.98,711.94 Z M531.74,679.71 L531.74,679.71 L528.53,682.14 L531.74,679.71 Z M523.37,714.54 L523.63,714.53 L523.08,714.33 L523.37,714.54 Z M530.76,720.04 L530.88,719.04 L528.88,715.61 L530.76,720.04 Z M526.05,746.22 L526.22,745.19 L524.57,740.46 L526.05,746.22 Z M471.97,739.10 L464.51,740.12 L469.52,739.95 L471.97,739.10 Z M477.03,735.16 L475.13,735.55 L479.88,735.39 L477.03,735.16 Z M508.04,726.26 L507.37,725.00 L507.94,728.85 L508.04,726.26 Z M510.13,729.86 L512.80,729.30 L510.19,729.35 L510.13,729.86 Z M510.44,731.95 L510.03,730.56 L509.99,730.88 L509.88,733.42 L510.44,731.95 Z M502.03,742.09 L502.14,741.59 L501.76,742.05 L502.03,742.09 Z M499.57,745.70 L498.97,743.78 L499.77,747.67 L499.57,745.70 Z M510.44,758.60 L508.84,756.74 L505.08,752.63 L499.77,747.67 L510.44,758.60 Z M555.03,771.70 L555.81,771.09 L555.58,770.83 L555.03,771.70 Z M455.84,774.04 L455.63,773.20 L455.60,774.96 L455.84,774.04 Z M512.82,737.15 L513.35,738.26 L513.40,737.24 L512.82,737.15 Z M511.68,739.73 L511.68,739.73 L512.10,741.24 L511.68,739.73 Z M517.21,739.10 L518.46,741.75 L519.41,742.99 L517.21,739.10 Z M508.54,720.85 L509.14,717.97 L508.06,721.20 L508.54,720.85 Z M511.72,713.59 L511.20,713.52 L510.51,714.37 L511.72,713.59 Z M544.76,634.02 L544.01,634.75 L542.89,636.57 L544.76,634.02 Z M554.73,632.61 L551.59,633.42 L555.21,633.10 L554.73,632.61 Z M533.14,633.40 L533.96,633.22 L531.43,631.82 L533.14,633.40 Z M535.09,657.23 L535.37,657.31 L535.08,656.85 L535.09,657.23 Z M534.99,654.02 L535.01,654.73 L535.14,653.77 L534.99,654.02 Z M516.51,633.06 L516.68,633.60 L517.31,632.67 L516.51,633.06 Z M516.56,630.30 L516.75,630.87 L517.81,626.92 L516.56,630.30 Z M525.63,537.17 L525.94,537.07 L524.67,534.85 L525.63,537.17 Z M529.83,516.59 L529.58,515.19 L529.53,519.02 L529.83,516.59 Z M548.77,546.68 L549.52,548.49 L548.44,543.18 L548.77,546.68 Z M590.49,462.50 L595.80,460.98 L603.57,458.33 L590.49,462.50 Z M602.09,470.76 L602.01,472.19 L602.09,470.76 L602.09,470.76 Z M555.58,144.83 L558.64,149.64 L558.83,148.99 L555.58,144.83 Z M564.58,237.03 L562.99,242.25 L564.60,237.06 L564.58,237.03 Z M550.06,282.40 L550.07,282.59 L551.87,285.58 L550.06,282.40 Z M577.47,314.20 L579.55,314.95 L579.07,314.54 L577.47,314.20 Z M584.33,323.95 L577.52,333.36 L580.37,329.58 L584.33,323.95 Z M580.47,442.05 L576.47,440.02 L582.68,443.40 L580.36,441.42 L580.47,442.05 Z M553.57,405.03 L550.02,400.63 L551.92,403.06 L553.57,405.03 Z M534.19,456.85 L534.19,456.85 L534.24,453.77 L534.19,456.85 Z M542.90,445.99 L543.76,446.73 L541.50,444.64 L542.90,445.99 Z M568.43,456.28 L568.75,456.25 L569.65,454.28 L568.43,456.28 Z M509.79,437.88 L518.21,437.94 L520.95,438.08 L520.76,437.54 L509.79,437.88 Z M535.34,457.88 L541.15,459.29 L534.33,456.97 L535.34,457.88 Z M516.41,504.48 L513.85,508.48 L513.88,508.67 L516.41,504.48 Z M520.46,499.07 L521.09,497.30 L518.66,500.87 L520.46,499.07 Z M478.18,375.45 L480.24,383.17 L481.26,387.22 L481.44,387.06 L478.18,375.45 Z M477.13,395.90 L477.52,394.70 L476.20,397.10 L477.13,395.90 Z M474.63,399.11 L475.20,398.38 L473.13,399.85 L474.63,399.11 Z M475.93,420.19 L476.03,412.47 L475.53,416.81 L475.93,420.19 Z M472.84,333.43 L472.52,335.10 L472.78,337.08 L472.84,333.43 Z M518.56,373.03 L518.09,374.07 L522.52,370.49 L518.56,373.03 Z M600.11,541.50 L609.38,548.82 L602.67,543.08 L600.11,541.50 Z M636.48,638.02 L637.43,637.34 L638.04,635.73 L636.48,638.02 Z M685.12,627.14 L683.57,630.07 L683.59,630.54 L685.12,627.14 Z M641.78,849.11 L632.77,848.41 L641.44,849.31 L641.78,849.11 Z M650.45,896.36 L649.69,896.67 L655.16,896.87 L650.45,896.36 Z M604.67,956.09 L596.05,962.06 L595.10,963.41 L604.67,956.09 Z M630.80,915.63 L628.11,913.21 L630.12,915.46 L630.80,915.63 Z M634.68,912.82 L631.67,915.84 L631.97,915.92 L634.68,912.82 Z M648.20,897.26 L646.80,901.04 L648.81,897.02 L648.20,897.26 Z M651.33,857.32 L650.56,857.77 L649.60,859.74 L651.33,857.32 Z M653.13,854.79 L652.91,854.84 L652.86,853.32 L652.30,855.96 L653.13,854.79 Z M695.04,872.08 L690.88,870.16 L690.32,870.42 L695.04,872.08 Z M593.82,405.10 L593.70,404.52 L592.35,403.73 L593.82,405.10 Z M595.03,406.22 L595.00,406.04 L594.81,406.02 L595.03,406.22 Z M607.52,405.82 L605.99,405.02 L604.42,404.86 L607.52,405.82 Z M628.41,425.88 L627.56,426.27 L625.71,427.79 L625.65,428.47 L628.41,425.88 Z M644.81,418.09 L644.78,417.54 L642.24,420.07 L644.81,418.09 Z M645.79,416.75 L645.86,416.46 L645.46,416.85 L645.79,416.75 Z M612.58,433.20 L612.48,436.81 L612.43,442.05 L612.58,433.20 Z M619.45,445.09 L617.80,446.70 L617.99,446.67 L619.45,445.09 Z M626.61,447.06 L624.56,448.64 L629.22,445.82 L626.61,447.06 Z M637.58,431.06 L640.74,434.22 L641.39,434.95 L639.63,432.70 L637.58,431.06 Z M679.56,531.68 L679.06,531.86 L678.80,532.33 L679.56,531.68 Z M604.67,473.38 L603.42,471.29 L602.61,470.97 L604.67,473.38 Z M596.81,491.86 L594.51,488.01 L594.70,488.87 L596.81,491.86 Z M621.70,436.19 L625.86,431.85 L625.31,432.19 L621.70,436.19 Z M644.84,443.12 L645.25,442.95 L646.85,433.77 L644.84,443.12 Z M612.38,356.52 L611.66,356.69 L612.94,356.85 L610.28,352.91 L612.38,356.52 Z M618.25,370.60 L614.99,364.01 L621.20,377.81 L618.04,370.66 L618.25,370.60 Z M625.41,396.01 L620.60,381.53 L625.61,396.86 L627.11,399.68 L625.41,396.01 Z M615.89,398.78 L619.05,399.66 L618.30,399.00 L615.89,398.78 Z M620.14,399.97 L620.90,400.18 L622.95,397.54 L621.35,399.45 L620.14,399.97 Z M635.23,404.47 L634.21,407.73 L635.23,405.93 L635.23,404.47 Z M641.84,398.16 L644.84,397.93 L645.20,397.60 L641.84,398.16 Z M646.10,396.77 L646.55,396.35 L646.64,395.95 L646.10,396.77 Z M623.91,318.99 L625.81,318.09 L626.17,317.48 L623.91,318.99 Z M568.96,237.24 L565.75,237.96 L567.70,237.85 L568.96,237.24 Z M829.94,132.71 L827.28,139.30 L830.49,132.03 L829.94,132.71 Z M824.18,144.49 L826.43,143.19 L828.19,141.90 L824.18,144.49 Z M826.88,148.49 L830.79,151.81 L826.82,147.75 L826.88,148.49 Z M832.69,151.98 L832.94,151.58 L830.79,151.81 L832.69,151.98 Z M814.31,173.22 L815.71,172.55 L816.71,171.06 L814.31,173.22 Z M810.80,170.97 L809.94,170.90 L814.31,173.22 L810.80,170.97 Z M827.32,261.32 L828.24,261.01 L829.74,259.32 L827.32,261.32 Z M822.34,362.36 L826.23,365.76 L824.08,363.33 L822.34,362.36 Z M812.31,408.47 L812.80,408.99 L812.47,408.11 L812.31,408.47 Z M825.93,422.05 L828.59,421.76 L825.16,421.72 L826.05,423.00 L825.93,422.05 Z M828.10,425.95 L827.93,425.31 L826.67,423.89 L828.10,425.95 Z M829.69,426.67 L828.87,427.07 L829.14,427.45 L830.12,426.91 L829.69,426.67 Z M835.85,424.69 L834.34,423.07 L834.30,423.68 L835.10,424.36 L835.85,424.69 Z M836.35,432.70 L836.45,433.20 L836.90,430.05 L836.35,432.70 Z M859.14,449.88 L859.78,449.68 L858.89,449.04 L859.14,449.88 Z M873.92,445.26 L873.68,444.78 L873.22,445.94 L873.92,445.26 Z M872.67,442.78 L872.77,444.08 L873.43,444.29 L872.67,442.78 Z M880.53,461.94 L884.50,463.08 L884.29,462.61 L880.53,461.94 Z M889.25,467.57 L887.65,466.45 L886.69,468.59 L887.75,466.62 L889.25,467.57 Z M880.88,480.70 L881.28,480.45 L880.04,479.71 L880.88,480.70 Z M890.10,479.12 L890.15,478.70 L888.85,478.39 L890.10,479.12 Z M882.92,501.26 L883.49,501.49 L884.74,501.04 L882.92,501.26 Z M870.66,496.87 L872.98,496.69 L872.67,496.48 L870.66,496.87 Z M882.94,515.41 L883.34,512.40 L883.34,512.40 L882.94,515.41 Z M881.89,518.90 L881.84,518.94 L884.14,519.52 L881.89,518.90 Z M880.93,519.58 L881.11,520.29 L881.38,519.27 L880.93,519.58 Z M875.97,528.88 L876.73,528.03 L875.48,528.54 L875.97,528.88 Z M884.45,543.99 L884.59,543.75 L883.67,542.80 L884.45,543.99 Z M886.04,550.91 L886.14,547.13 L885.96,546.87 L886.04,550.91 Z M889.50,575.02 L891.85,578.12 L888.70,572.67 L889.50,575.02 Z M768.98,73.47 L768.77,72.76 L768.62,72.94 L768.98,73.47 Z M786.46,153.00 L786.36,152.48 L783.00,155.19 L786.46,153.00 Z M782.05,157.39 L780.45,165.39 L783.00,155.19 L782.05,157.39 Z M782.45,172.49 L780.20,170.97 L782.60,173.09 L782.45,172.49 Z M784.55,174.29 L783.76,174.12 L785.31,175.48 L784.55,174.29 Z M793.47,178.58 L790.11,176.32 L793.52,179.31 L793.47,178.58 Z M777.09,181.34 L774.89,182.80 L770.53,184.55 L776.49,182.18 L777.09,181.34 Z M762.76,200.16 L760.06,200.49 L759.90,200.71 L762.76,200.16 Z M778.21,203.55 L777.94,203.26 L777.68,203.39 L778.21,203.55 Z M778.44,217.57 L776.47,215.09 L776.39,215.43 L778.44,217.57 Z M789.21,322.93 L785.51,316.45 L789.47,323.91 L789.21,322.93 Z M793.72,348.99 L793.87,345.42 L793.27,347.78 L793.72,348.99 Z M795.47,363.95 L795.70,359.92 L795.42,360.85 L795.47,363.95 Z M787.01,386.77 L786.91,383.90 L787.06,388.35 L787.01,386.77 Z M768.77,399.34 L768.41,398.79 L769.78,416.24 L768.77,399.34 Z M782.90,441.65 L780.45,441.82 L785.01,442.50 L782.90,441.65 Z M786.46,443.91 L786.11,443.97 L787.21,445.43 L786.46,443.91 Z M785.76,448.30 L785.98,447.87 L784.85,448.70 L785.76,448.30 Z M789.16,449.09 L787.06,448.19 L785.76,448.30 L789.16,449.09 Z M795.56,467.62 L795.37,467.85 L792.43,467.77 L793.27,468.14 L796.00,468.25 L795.56,467.62 Z M797.93,476.87 L796.93,475.57 L797.96,478.27 L797.93,476.87 Z M799.98,481.49 L798.46,479.56 L798.83,480.53 L799.98,481.49 Z M815.46,474.50 L818.32,476.70 L819.03,477.01 L815.46,474.50 Z M830.09,486.56 L831.54,486.79 L825.18,485.72 L830.09,486.56 Z M831.49,521.89 L831.64,519.52 L831.23,522.27 L831.49,521.89 Z M853.68,552.20 L850.83,557.78 L850.23,559.25 L853.68,552.20 Z M844.11,624.31 L843.51,620.66 L843.31,621.45 L844.11,624.31 Z M655.46,193.28 L661.23,191.67 L660.02,191.76 L655.46,193.28 Z M664.50,191.43 L665.49,191.58 L665.33,191.37 L664.50,191.43 Z M666.28,192.64 L666.63,193.85 L668.14,195.14 L666.28,192.64 Z M674.10,196.71 L673.75,196.27 L668.14,195.14 L674.10,196.71 Z M681.46,209.12 L684.52,219.71 L681.81,209.68 L681.56,205.45 L681.46,209.12 Z M720.69,233.23 L721.84,233.46 L723.99,232.72 L720.69,233.23 Z M736.89,217.71 L737.17,216.89 L735.86,213.74 L736.89,217.71 Z M751.14,211.48 L755.75,216.50 L754.95,215.09 L751.14,211.48 Z M753.58,219.11 L755.25,217.85 L755.75,216.50 L753.58,219.11 Z M748.69,222.58 L748.89,223.65 L751.04,226.30 L748.69,222.58 Z M769.68,510.73 L769.15,510.87 L770.43,511.86 L769.68,510.73 Z M687.92,365.53 L688.53,371.95 L687.27,368.63 L688.83,374.38 L687.92,365.53 Z M689.08,359.00 L690.03,352.74 L687.92,365.53 L689.08,359.00 Z M699.56,379.18 L699.45,378.72 L697.24,378.62 L699.56,379.18 Z M699.20,384.07 L700.00,380.91 L699.83,380.26 L699.20,384.07 Z M701.20,398.89 L701.55,402.44 L701.55,397.76 L699.20,384.07 L701.20,398.89 Z M745.23,348.29 L744.73,345.92 L743.93,343.56 L745.23,348.29 Z M754.53,392.89 L754.50,391.62 L752.54,386.10 L754.53,392.89 Z M690.43,465.94 L689.98,466.78 L690.29,467.71 L690.43,465.94 Z M725.98,448.78 L725.77,449.43 L726.00,449.04 L725.98,448.78 Z M738.62,467.35 L738.74,468.09 L738.87,467.20 L738.62,467.35 Z M738.94,469.27 L739.02,469.77 L741.37,471.91 L738.94,469.27 Z M743.11,471.28 L744.93,471.86 L743.68,471.07 L743.11,471.28 Z M746.68,471.35 L746.77,470.94 L744.93,471.86 L746.68,471.35 Z M756.25,469.04 L757.50,472.42 L756.35,468.31 L756.25,469.04 Z M748.34,505.55 L747.03,506.23 L746.84,506.98 L748.34,505.55 Z M716.03,546.96 L714.52,548.49 L712.37,552.09 L716.03,546.96 Z M726.90,532.09 L725.29,534.79 L720.84,544.94 L726.90,532.09 Z M720.84,507.75 L720.18,503.97 L720.49,506.40 L720.84,507.75 Z M730.50,522.28 L730.31,521.23 L730.20,522.17 L730.50,522.28 Z M728.80,414.33 L729.45,412.70 L729.45,412.70 L728.80,414.33 Z M733.52,415.40 L734.11,415.79 L734.42,415.77 L733.52,415.40 Z M737.76,415.92 L745.23,421.88 L738.22,415.85 L737.76,415.92 Z M734.16,425.93 L734.31,425.26 L732.11,430.10 L734.16,425.93 Z M686.68,390.92 L686.52,390.66 L686.09,390.51 L686.68,390.92 Z M687.27,392.46 L688.44,393.88 L687.27,391.92 L687.27,392.46 Z M689.38,396.46 L690.63,397.54 L689.34,395.38 L689.38,396.46 Z M675.15,350.04 L674.50,350.03 L680.66,352.23 L675.15,350.04 Z M703.20,283.83 L702.05,286.53 L701.90,288.34 L703.20,283.83 Z M680.26,290.42 L676.67,286.95 L676.80,287.38 L680.26,290.42 Z M747.23,251.04 L743.33,257.29 L748.34,249.63 L747.23,251.04 Z M724.99,296.73 L722.39,303.16 L725.56,296.47 L724.99,296.73 Z M625.26,174.86 L627.71,176.12 L624.59,173.79 L625.26,174.86 Z M720.84,101.83 L721.35,101.67 L714.52,99.75 L720.84,101.83 Z M722.64,100.99 L722.72,100.73 L722.26,101.38 L723.85,100.87 L722.64,100.99 Z M728.30,91.58 L729.45,89.16 L727.05,94.00 L728.30,91.58 Z M729.15,88.03 L726.40,85.83 L729.45,89.16 L729.15,88.03 Z M746.73,71.29 L746.73,69.10 L746.58,73.89 L746.73,71.29 Z M690.90,144.52 L688.12,140.99 L690.08,144.21 L690.90,144.52 Z M725.95,138.91 L724.34,137.78 L726.90,140.66 L725.95,138.91 Z M728.90,133.56 L730.15,130.96 L728.85,132.49 L728.71,134.63 L728.72,134.63 L728.90,133.56 Z M749.94,124.88 L746.78,124.21 L746.81,124.23 L749.94,124.88 Z M753.95,165.73 L753.43,162.23 L753.25,162.80 L753.95,165.73 Z M756.00,168.55 L756.86,169.05 L753.95,165.73 L756.00,168.55 Z M762.61,157.11 L762.54,158.33 L764.92,150.74 L762.61,157.11 Z M735.53,200.51 L736.01,201.57 L736.56,201.75 L735.53,200.51 Z M737.83,202.19 L738.26,202.34 L739.17,201.90 L737.83,202.19 Z M743.33,202.97 L745.48,200.89 L745.66,200.25 L743.33,202.97 Z M753.15,196.66 L752.66,194.72 L752.29,195.31 L753.15,196.66 Z M746.95,175.89 L746.05,174.88 L746.13,175.48 L746.95,175.89 Z M764.43,177.93 L764.57,178.41 L765.87,179.14 L764.43,177.93 Z M738.09,206.18 L738.10,206.66 L738.17,206.30 L738.09,206.18 Z M736.82,203.82 L737.02,204.12 L737.08,203.59 L736.82,203.82 Z M666.89,113.50 L670.11,114.01 L670.04,113.72 L666.89,113.50 Z M680.68,127.25 L681.21,128.32 L683.07,129.22 L680.68,127.25 Z M794.97,546.63 L799.43,555.06 L799.43,554.57 L794.97,546.63 Z M818.52,531.98 L820.27,534.74 L816.21,527.30 L818.52,531.98 Z M816.21,630.13 L817.92,629.96 L830.94,625.00 L816.21,630.13 Z M839.31,603.37 L833.64,602.79 L834.05,603.31 L839.31,603.37 Z M791.32,181.51 L796.77,183.26 L797.40,182.94 L791.32,181.51 Z M784.80,144.83 L789.91,140.71 L790.61,139.67 L784.80,144.83 Z M814.51,112.93 L816.41,113.33 L818.42,112.71 L814.51,112.93 Z M822.12,468.97 L821.77,468.87 L815.11,472.31 L822.12,468.97 Z M823.45,297.18 L823.13,297.47 L823.33,300.00 L823.45,297.18 Z M828.74,294.65 L825.03,295.78 L824.52,296.23 L828.74,294.65 Z M806.42,463.24 L807.65,462.90 L810.90,464.47 L805.59,461.66 L806.60,462.73 L806.42,463.24 Z M797.23,468.31 L800.39,465.76 L796.24,468.26 L797.23,468.31 Z M805.75,463.43 L804.39,463.35 L802.98,464.20 L805.75,463.43 Z M805.34,436.92 L805.14,437.15 L805.43,437.37 L805.34,436.92 Z M809.25,436.70 L806.19,435.96 L805.76,436.45 L809.25,436.70 Z M808.40,324.34 L808.05,321.36 L814.71,321.58 L807.54,320.77 L808.40,324.34 Z M820.27,361.19 L819.52,361.70 L821.09,361.66 L820.27,361.19 Z M801.09,231.71 L804.19,239.99 L802.19,234.47 L801.09,231.71 Z M784.05,197.96 L784.11,197.34 L780.90,199.48 L784.05,197.96 Z M785.86,201.06 L786.31,204.04 L786.17,200.79 L785.86,201.06 Z M792.84,137.68 L794.32,136.88 L795.06,135.72 L792.84,137.68 Z M796.08,134.81 L800.88,135.58 L796.73,134.51 L798.63,132.54 L796.08,134.81 Z M812.31,139.70 L813.06,139.70 L814.27,137.80 L812.31,139.70 Z M807.60,161.67 L805.69,163.59 L808.82,161.06 L807.60,161.67 Z M821.94,118.96 L821.07,117.55 L820.38,117.57 L821.94,118.96 Z M822.17,121.22 L820.77,122.34 L823.59,121.10 L822.17,121.22 Z M817.52,91.92 L817.52,90.00 L817.97,88.70 L817.37,90.06 L817.52,91.92 Z M812.28,102.87 L811.79,104.43 L812.84,103.06 L812.28,102.87 Z M821.57,102.40 L824.23,100.76 L820.89,102.44 L821.57,102.40 Z M847.77,511.30 L848.09,510.61 L845.27,511.80 L847.77,511.30 Z M848.97,508.71 L848.66,507.91 L848.69,509.31 L848.97,508.71 Z M863.97,509.69 L863.80,509.27 L862.92,509.26 L863.97,509.69 Z M862.70,553.01 L862.15,542.51 L861.31,532.39 L861.30,532.39 L862.40,552.37 L862.70,553.01 Z M871.24,543.60 L872.22,543.75 L880.33,542.96 L871.24,543.60 Z M858.74,559.47 L859.99,559.64 L858.59,559.10 L858.74,559.47 Z M862.77,554.24 L862.77,554.24 L860.75,556.71 L862.77,554.24 Z M866.68,529.08 L865.66,525.83 L866.68,529.08 L866.68,529.08 Z M865.91,514.62 L865.59,513.83 L866.61,517.33 L865.91,514.62 Z M832.20,475.18 L831.47,474.77 L831.79,475.24 L832.20,475.18 Z M837.00,474.05 L834.44,474.89 L840.01,474.17 L837.00,474.05 Z M853.68,468.98 L855.49,468.70 L855.58,468.62 L853.68,468.98 Z M853.98,484.53 L856.74,485.94 L858.01,485.84 L853.98,484.53 Z M860.40,485.66 L863.05,486.84 L864.45,486.84 L860.40,485.66 Z M856.04,499.30 L855.69,498.90 L853.43,500.54 L856.04,499.30 Z M856.54,499.07 L857.69,494.90 L856.28,499.19 L856.54,499.07 Z M859.79,492.65 L859.94,490.73 L859.03,493.47 L859.79,492.65 Z M864.90,494.00 L862.75,491.80 L861.93,491.49 L864.90,494.00 Z M839.17,462.47 L839.81,462.67 L839.36,465.21 L840.30,462.06 L839.17,462.47 Z M841.69,459.36 L841.76,458.32 L841.51,459.01 L841.69,459.36 Z M842.22,457.04 L844.82,453.88 L842.51,456.25 L842.22,457.04 Z M865.05,460.02 L867.01,462.33 L864.75,458.84 L865.05,460.02 Z M855.99,454.33 L854.33,453.15 L853.95,453.40 L855.99,454.33 Z M862.55,371.73 L869.91,358.60 L864.75,367.67 L862.55,371.73 Z M870.86,378.04 L861.70,380.86 L861.60,380.93 L870.86,378.04 Z M904.13,426.50 L904.52,431.00 L904.83,430.95 L904.95,431.20 L904.13,426.50 Z M907.02,433.46 L905.71,432.80 L905.93,433.26 L907.02,433.46 Z M921.06,505.10 L918.85,508.25 L906.23,498.62 L918.70,508.48 L921.06,505.10 Z M903.30,497.16 L903.28,497.72 L906.23,498.62 L903.30,497.16 Z M864.55,277.07 L862.45,277.18 L860.35,277.80 L864.55,277.07 Z M849.78,347.73 L849.17,349.53 L851.06,346.53 L849.78,347.73 Z M855.39,384.74 L852.68,387.51 L854.99,385.82 L856.54,383.11 L855.39,384.74 Z M861.56,390.22 L864.25,390.10 L868.41,395.51 L864.05,389.65 L861.56,390.22 Z M834.05,323.84 L839.11,324.74 L838.32,324.31 L838.30,324.46 L834.05,323.84 Z M861.10,305.41 L862.45,306.59 L859.34,303.27 L861.10,305.41 Z M851.73,331.55 L851.33,331.64 L853.68,335.27 L851.73,331.55 Z M842.05,237.06 L842.81,237.46 L852.53,236.72 L842.05,237.06 Z M861.65,251.32 L848.32,228.84 L852.53,236.72 L861.65,251.32 Z M863.20,254.19 L864.74,257.78 L869.51,255.83 L864.75,257.40 L863.20,254.19 Z M839.06,226.02 L838.81,223.09 L838.77,226.25 L839.06,226.02 Z M839.11,228.22 L838.76,227.53 L838.76,227.88 L839.11,228.22 Z M833.60,150.52 L832.39,147.92 L833.26,151.06 L833.60,150.52 Z M845.12,143.08 L843.44,140.81 L844.87,143.98 L844.42,142.35 L847.37,149.78 L845.12,143.08 Z M893.39,538.75 L893.26,539.30 L893.76,539.81 L893.39,538.75 Z M906.46,538.65 L909.69,540.03 L905.03,537.61 L906.46,538.65 Z M900.67,546.18 L902.42,547.92 L904.56,549.26 L900.67,546.18 Z M886.04,511.02 L884.69,511.24 L884.71,511.67 L886.04,511.02 Z M888.90,502.62 L888.61,501.97 L888.90,503.92 L890.30,506.79 L888.90,502.62 Z M893.41,456.59 L894.69,457.20 L895.36,452.25 L894.41,457.04 L893.41,456.59 Z M894.16,446.84 L898.87,447.12 L894.81,446.78 L894.16,446.84 Z M897.46,457.37 L895.15,457.42 L896.11,457.88 L897.46,457.37 Z M885.04,434.39 L884.19,434.55 L883.24,435.96 L885.04,434.39 Z M904.23,434.84 L904.78,433.88 L902.17,435.63 L904.23,434.84 Z M892.30,442.22 L892.05,439.30 L891.65,439.40 L892.30,442.22 Z M933.10,533.57 L933.28,533.72 L934.08,532.03 L933.10,533.57 Z M919.96,438.61 L920.36,439.12 L919.61,438.72 L919.96,438.61 Z M895.66,283.83 L896.16,284.56 L895.76,284.96 L894.86,284.11 L895.66,283.83 Z M900.42,276.96 L899.72,276.17 L900.32,276.39 L900.42,276.96 Z M900.37,273.35 L900.17,274.14 L898.92,274.31 L899.92,272.84 L900.37,273.35 Z M886.69,259.15 L886.84,259.09 L886.69,259.32 L886.69,259.15 Z M886.09,259.04 L886.24,258.81 L886.29,259.15 L886.09,259.04 Z M886.24,258.53 L886.49,258.47 L886.24,258.76 L886.24,258.53 Z M888.60,258.19 L888.65,258.36 L888.50,258.42 L888.60,258.19 Z M887.95,255.88 L888.05,255.83 L888.10,256.05 L887.95,255.88 Z M888.90,211.03 L888.80,211.43 L888.50,210.75 L888.90,211.03 Z M920.46,595.31 L921.41,592.94 L923.01,596.55 L921.31,596.44 L920.46,595.31 Z M943.40,546.01 L943.15,544.54 L943.35,544.82 L943.70,545.27 L943.40,546.01 Z M940.79,533.95 L940.79,533.44 L941.00,534.12 L940.79,533.95 Z M938.69,527.69 L938.79,527.75 L938.74,527.81 L938.69,527.69 Z M938.69,526.06 L938.84,525.95 L938.89,526.29 L938.69,526.06 Z M944.00,507.30 L943.95,507.41 L943.85,507.35 L943.80,507.24 L944.00,507.30 Z M942.85,500.87 L942.85,500.99 L942.70,500.93 L942.85,500.87 Z M942.65,494.62 L942.80,494.90 L942.60,494.84 L942.65,494.62 Z M942.40,491.75 L942.30,491.80 L942.20,491.63 L942.40,491.75 Z M943.30,479.86 L943.50,479.86 L943.50,480.03 L943.30,479.86 Z M943.10,479.80 L943.00,479.80 L943.00,479.63 L943.10,479.80 Z M942.60,479.52 L942.45,479.46 L942.60,479.41 L942.60,479.52 Z M942.75,479.41 L942.80,479.35 L942.90,479.57 L942.75,479.41 Z M942.45,479.35 L942.35,479.18 L942.50,479.24 L942.45,479.35 Z M941.75,478.73 L941.50,478.62 L941.50,478.28 L941.75,478.73 Z M942.15,478.50 L942.05,478.39 L942.20,478.45 L942.15,478.50 Z M941.95,477.94 L942.05,477.94 L942.05,478.00 L941.95,477.94 Z M942.20,475.07 L942.25,475.29 L942.10,475.24 L942.20,475.07 Z M942.20,473.88 L942.45,473.43 L942.35,474.17 L942.20,473.88 Z M942.70,337.75 L942.60,338.20 L941.40,338.37 L941.85,337.47 L942.70,337.75 Z M980.77,644.50 L980.52,644.44 L980.77,644.33 L980.77,644.50 Z M980.47,644.16 L980.32,644.72 L979.87,643.88 L980.47,644.16 Z M977.31,639.31 L976.91,639.03 L977.16,638.92 L977.31,639.31 Z M964.29,621.34 L967.29,621.11 L971.20,629.68 L973.21,629.17 L976.36,633.29 L977.01,635.37 L976.11,638.02 L973.21,633.91 L972.05,633.68 L971.10,634.86 L969.10,634.07 L965.64,629.23 L964.09,625.40 L964.74,623.88 L964.29,621.34 Z M945.65,549.73 L943.25,547.30 L943.60,546.29 L944.55,547.41 L945.05,547.02 L945.75,548.32 L945.65,549.73 Z M945.10,504.70 L945.00,504.65 L944.95,504.14 L945.10,504.70 Z M946.91,484.70 L946.86,484.53 L947.06,484.70 L946.91,484.70 Z M946.31,484.59 L946.31,484.48 L946.41,484.59 L946.31,484.59 Z M947.21,484.42 L947.26,484.59 L947.11,484.42 L947.21,484.42 Z M946.51,483.91 L946.41,483.86 L946.46,483.80 L946.51,483.91 Z M947.96,483.29 L947.96,483.41 L947.86,483.29 L947.96,483.29 Z M947.71,484.31 L946.71,484.08 L946.66,481.83 L947.51,481.43 L947.06,483.80 L947.71,484.31 Z M947.86,480.59 L948.16,481.83 L947.31,480.81 L947.86,480.59 Z M944.30,480.76 L944.15,480.76 L944.15,480.53 L944.30,480.76 Z M944.45,480.48 L944.30,480.42 L944.40,480.36 L944.45,480.48 Z M944.75,338.09 L944.65,337.92 L944.75,337.81 L944.75,338.09 Z M944.10,337.92 L944.30,337.70 L944.30,337.98 L944.10,337.92 Z M944.60,337.75 L944.45,337.75 L944.45,337.58 L944.60,337.75 Z" /></g></svg>