<svg xmlns="http://www.w3.org/2000/svg" viewBox="0 0 1000 1000" width="1000" height="1000"><g fill="#cccccc" stroke="#222" stroke-width="2"><path d="M975.64,972.84 L972.86,972.39 L970.46,973.09 L963.91,970.03 L961.35,968.34 L960.26,968.50 L959.93,966.11 L958.57,963.88 L957.59,957.72 L956.06,956.90 L955.57,955.62 L955.35,955.12 L956.22,953.88 L959.77,952.11 L966.20,952.48 L966.97,951.94 L971.11,952.69 L973.35,955.16 L974.82,954.25 L972.81,956.20 L972.86,958.10 L974.66,960.04 L974.11,961.73 L975.53,965.36 L976.95,966.60 L979.95,967.35 L979.24,968.50 L980.06,970.20 L979.68,971.06 L978.42,971.06 L978.21,971.72 L975.64,972.84 Z M964.07,967.32 L966.37,967.18 L963.80,967.06 L964.07,967.32 Z M969.86,964.70 L970.95,961.73 L971.28,960.78 L969.86,964.70 Z M344.73,912.05 L344.45,912.34 L344.13,911.92 L344.51,911.72 L344.73,912.05 Z M448.64,892.84 L448.81,893.75 L446.90,893.59 L447.39,892.76 L448.64,892.84 Z M616.98,804.63 L616.22,805.45 L615.29,804.67 L615.78,804.30 L616.98,804.63 Z M216.54,938.85 L218.39,932.49 L217.57,929.76 L213.64,926.21 L214.03,925.06 L216.32,926.50 L216.70,925.06 L213.43,921.42 L213.59,919.15 L212.88,919.15 L211.95,917.42 L209.77,915.68 L210.15,914.28 L207.37,912.29 L207.37,910.64 L205.57,908.12 L206.12,907.09 L204.43,906.88 L204.75,906.22 L203.55,905.27 L203.99,904.03 L203.23,903.41 L203.93,903.37 L202.95,902.30 L201.04,902.13 L200.28,900.44 L201.53,899.90 L201.59,898.58 L202.73,897.63 L202.19,896.89 L203.39,896.06 L202.84,895.57 L204.81,893.83 L203.01,891.81 L203.93,891.07 L203.28,890.57 L203.61,889.13 L201.26,887.56 L201.59,886.98 L200.88,887.06 L201.15,886.32 L199.84,885.37 L200.17,884.95 L199.30,884.95 L198.53,882.77 L196.95,882.77 L194.82,881.69 L193.57,878.55 L192.48,878.80 L190.02,876.98 L188.06,877.11 L187.84,875.58 L186.21,874.92 L185.55,873.56 L182.77,872.52 L183.48,868.48 L180.81,865.50 L182.17,862.12 L191.44,861.25 L201.10,856.95 L204.59,854.68 L209.17,853.11 L214.74,848.90 L218.50,844.48 L219.70,844.52 L219.54,841.47 L221.50,836.80 L219.54,830.77 L212.01,822.47 L212.44,805.95 L212.28,793.89 L202.73,776.67 L199.62,776.96 L199.30,775.47 L197.99,774.52 L198.70,773.82 L198.32,772.83 L195.92,771.09 L196.35,770.51 L193.90,769.23 L192.53,769.65 L192.04,768.20 L189.97,766.88 L189.42,767.87 L187.62,766.30 L186.64,766.63 L186.86,766.05 L184.95,765.43 L183.75,763.37 L182.88,762.09 L179.77,761.26 L176.01,762.05 L175.79,762.62 L172.57,763.95 L169.51,764.28 L169.13,764.94 L165.37,764.90 L163.68,764.32 L160.40,761.14 L159.64,760.89 L159.09,761.59 L156.91,760.48 L155.71,760.81 L153.09,759.11 L151.79,759.07 L152.33,758.21 L151.57,758.12 L151.57,757.01 L150.69,755.98 L149.88,756.31 L148.46,755.77 L148.62,754.94 L146.44,754.82 L146.22,754.12 L145.02,754.78 L145.02,753.87 L143.28,754.16 L142.51,753.54 L141.64,754.45 L141.64,753.91 L140.28,753.95 L139.62,752.59 L136.18,752.38 L136.95,750.56 L131.77,750.44 L131.60,748.83 L128.22,749.99 L127.62,748.67 L126.31,748.33 L126.53,747.72 L124.62,746.89 L123.31,747.47 L121.89,747.10 L124.95,745.44 L129.80,746.77 L133.46,746.89 L134.93,744.37 L137.82,742.68 L139.13,740.65 L137.38,736.15 L138.04,735.53 L140.00,735.57 L142.35,733.63 L141.53,731.77 L145.57,731.07 L147.91,733.34 L148.73,730.49 L149.77,730.08 L151.79,726.65 L151.46,725.25 L152.93,722.65 L154.35,721.70 L152.39,719.92 L152.49,718.68 L150.20,717.11 L149.17,716.08 L146.28,715.87 L144.42,714.01 L143.82,711.33 L145.51,710.22 L148.29,710.09 L149.55,706.13 L151.73,707.12 L156.53,705.09 L154.73,701.75 L156.20,701.17 L158.82,698.44 L157.57,696.63 L158.00,694.73 L160.29,694.03 L160.84,693.16 L163.40,694.03 L163.30,692.75 L161.55,691.88 L164.00,690.93 L163.57,688.29 L165.37,687.75 L166.95,689.07 L168.48,689.07 L166.73,688.16 L164.82,685.31 L165.80,684.07 L167.50,683.99 L168.48,685.85 L170.82,683.21 L174.37,688.04 L170.44,682.67 L167.55,681.10 L170.00,680.73 L173.06,678.33 L171.75,676.97 L169.79,676.35 L171.53,676.27 L174.37,674.78 L176.55,676.47 L178.68,676.72 L175.79,674.82 L179.22,673.25 L177.26,670.40 L177.70,667.72 L179.82,667.55 L180.75,670.48 L183.75,669.74 L184.03,670.09 L184.46,667.14 L187.41,666.52 L188.61,663.75 L189.37,663.88 L190.08,665.32 L191.17,664.00 L192.64,663.71 L192.21,661.81 L193.13,659.95 L191.77,657.10 L192.37,655.25 L191.12,654.71 L190.62,652.19 L191.28,651.90 L189.48,650.37 L190.73,649.17 L190.24,648.31 L191.82,647.89 L191.93,644.51 L192.59,643.93 L191.39,642.32 L189.70,641.53 L189.10,639.88 L190.79,637.53 L192.42,637.20 L193.08,636.04 L196.02,635.67 L198.86,633.23 L198.86,630.09 L201.97,626.79 L202.30,623.40 L203.23,622.58 L203.12,619.07 L203.99,618.20 L203.33,616.34 L202.73,618.53 L198.70,620.97 L193.35,616.13 L192.97,614.65 L189.75,614.61 L188.12,612.29 L186.53,608.87 L182.61,609.36 L178.95,608.66 L177.86,607.92 L177.37,603.95 L173.44,603.66 L173.06,604.12 L172.84,602.88 L171.37,602.22 L172.51,601.89 L171.42,600.40 L172.13,598.21 L171.37,597.47 L172.40,597.67 L172.79,594.25 L172.13,594.08 L173.22,592.14 L172.95,591.27 L171.97,591.11 L172.08,590.36 L170.44,589.91 L168.04,589.74 L165.75,587.51 L166.01,587.12 L156.69,589.79 L154.19,589.29 L153.31,592.35 L155.33,593.17 L154.08,594.25 L148.73,594.41 L148.68,592.84 L150.59,590.94 L147.97,589.37 L145.18,589.79 L141.48,592.22 L141.09,590.16 L141.97,588.67 L140.66,587.39 L141.48,585.90 L143.49,584.91 L144.58,585.08 L147.15,583.34 L149.88,582.89 L151.40,580.91 L151.46,579.30 L152.82,578.14 L158.99,576.36 L158.17,572.77 L160.68,570.58 L164.06,571.08 L164.28,570.25 L163.35,569.51 L157.68,565.13 L155.00,564.63 L153.91,560.50 L147.58,557.12 L147.58,554.39 L145.08,556.13 L142.62,556.04 L142.84,554.80 L141.48,553.36 L139.18,554.06 L135.91,556.58 L131.49,553.48 L130.35,549.56 L125.82,548.90 L123.97,550.14 L117.53,550.47 L116.93,552.70 L113.44,553.28 L110.60,555.01 L106.89,553.81 L111.91,551.17 L111.36,547.95 L113.44,543.61 L112.62,542.29 L110.55,538.37 L109.46,537.25 L107.60,537.05 L107.55,537.95 L110.00,540.31 L108.53,541.09 L106.13,539.32 L103.24,538.45 L103.89,537.29 L106.67,536.22 L103.67,533.00 L104.44,531.72 L106.56,530.97 L104.93,529.82 L103.67,527.42 L101.71,528.13 L101.33,531.68 L100.73,533.87 L101.44,535.81 L100.24,538.16 L97.40,538.49 L96.31,539.28 L95.49,543.16 L91.34,542.99 L89.98,541.75 L88.78,539.23 L85.29,538.62 L77.05,539.15 L75.85,538.41 L71.33,531.92 L73.18,531.55 L75.74,533.04 L76.94,531.64 L70.73,529.24 L68.87,525.77 L71.49,522.84 L74.00,520.36 L70.73,517.14 L72.74,512.68 L62.49,506.61 L55.40,505.12 L54.03,504.17 L53.27,502.06 L55.67,499.13 L51.63,495.83 L52.12,494.18 L58.34,486.25 L62.22,484.22 L58.62,481.83 L61.56,479.31 L62.60,468.03 L64.72,466.30 L68.43,466.42 L70.56,462.62 L71.93,462.00 L78.69,461.92 L84.85,458.16 L89.82,458.82 L94.13,457.50 L96.25,457.71 L99.25,456.84 L101.22,455.02 L101.27,452.92 L104.87,453.33 L105.96,451.27 L110.71,449.33 L117.75,448.46 L118.67,449.04 L118.62,450.28 L120.09,451.10 L122.60,449.41 L122.77,448.38 L123.69,448.29 L123.47,446.89 L124.51,446.76 L122.27,445.20 L123.31,444.74 L123.37,443.50 L122.38,442.18 L121.02,441.89 L121.13,439.41 L122.77,438.88 L121.78,438.63 L122.60,437.27 L123.80,436.81 L125.60,438.22 L130.13,434.46 L127.46,431.77 L127.78,429.63 L129.58,428.72 L129.53,427.56 L132.31,426.36 L132.58,423.27 L134.66,424.46 L133.84,421.98 L135.37,419.96 L136.73,418.80 L138.69,418.47 L139.57,419.01 L138.97,412.78 L135.04,410.30 L131.77,410.83 L128.06,409.51 L128.11,406.00 L125.17,402.70 L125.66,400.39 L122.11,397.49 L117.20,390.89 L117.04,388.28 L114.42,386.51 L111.26,386.22 L111.04,385.19 L108.26,384.44 L107.82,382.79 L106.74,382.23 L105.31,382.42 L102.80,381.84 L100.78,379.98 L99.15,379.82 L101.33,379.57 L99.85,378.62 L100.18,378.04 L99.25,377.96 L100.24,377.42 L98.71,376.72 L100.45,376.51 L99.75,375.77 L100.84,375.61 L101.38,374.45 L98.93,373.75 L99.58,371.72 L98.65,371.23 L99.31,370.48 L98.27,370.36 L98.60,369.41 L96.75,368.75 L98.27,367.84 L95.11,365.86 L94.29,363.59 L87.80,356.94 L83.60,354.79 L83.71,353.43 L79.40,352.15 L78.58,350.21 L78.85,351.53 L74.76,352.35 L73.45,351.90 L73.73,351.07 L72.47,350.37 L71.11,351.24 L68.71,350.45 L67.07,350.74 L68.16,348.18 L65.38,346.90 L65.82,345.79 L64.29,346.94 L65.38,347.89 L64.89,348.22 L61.51,347.19 L59.43,349.42 L58.62,347.36 L57.69,347.48 L57.20,349.21 L54.36,347.56 L53.11,349.09 L52.61,347.81 L49.67,347.44 L49.18,346.28 L48.36,347.07 L44.32,346.03 L42.85,343.93 L40.89,343.52 L39.09,344.01 L40.67,340.46 L39.03,338.52 L37.83,340.79 L37.12,340.67 L37.23,339.63 L35.87,339.43 L34.12,343.23 L32.49,342.85 L33.41,342.48 L32.98,341.49 L33.85,340.01 L32.70,339.22 L34.45,336.33 L32.92,332.65 L33.80,329.43 L31.83,319.11 L33.85,317.54 L33.14,313.90 L35.65,311.63 L37.67,307.46 L31.23,306.97 L30.36,303.91 L27.63,302.71 L31.89,298.91 L29.00,279.96 L19.23,232.67 L19.45,231.47 L20.59,230.89 L21.09,231.88 L22.07,231.18 L24.41,231.68 L26.81,231.02 L26.43,232.25 L27.47,232.75 L27.79,231.63 L28.89,232.71 L30.30,231.84 L32.10,232.63 L35.38,231.26 L36.03,230.27 L38.05,229.98 L37.67,229.36 L39.14,229.24 L39.36,228.00 L43.07,227.26 L43.45,226.06 L46.07,225.48 L47.00,224.66 L48.03,225.03 L48.47,224.32 L49.67,224.86 L53.21,220.44 L56.38,220.44 L60.14,221.72 L62.60,221.23 L63.96,219.86 L66.74,219.08 L71.82,219.08 L75.36,217.10 L77.05,218.42 L77.27,221.60 L79.78,221.93 L84.96,220.03 L90.96,219.86 L94.67,216.40 L95.65,216.81 L97.35,219.74 L100.56,221.97 L104.60,222.80 L106.51,225.48 L111.36,228.45 L113.16,230.35 L112.84,232.38 L115.78,232.87 L115.02,233.62 L116.06,235.68 L118.84,236.96 L117.47,239.48 L118.29,240.72 L117.86,242.79 L124.24,246.83 L124.18,248.82 L133.35,252.99 L134.06,255.13 L134.55,255.51 L134.98,254.14 L136.78,252.70 L143.11,253.15 L143.71,252.12 L144.86,248.11 L147.86,245.31 L145.78,242.62 L146.38,241.22 L148.95,239.40 L148.84,236.01 L150.42,234.48 L154.08,233.95 L151.02,234.32 L155.99,233.25 L159.42,231.59 L161.28,230.15 L161.60,227.13 L162.97,225.98 L185.55,218.91 L188.12,215.65 L191.17,214.21 L194.17,214.17 L194.66,211.56 L197.72,212.10 L198.70,211.56 L199.57,209.37 L203.39,209.79 L205.15,206.13 L205.24,205.35 L203.88,201.07 L207.92,199.46 L209.06,198.06 L208.68,197.40 L206.33,195.42 L203.06,189.63 L204.43,187.73 L203.12,184.31 L203.66,182.61 L206.66,181.79 L206.83,180.80 L207.64,180.59 L209.06,178.11 L209.33,175.51 L212.39,172.45 L213.59,169.73 L215.01,169.11 L216.32,167.08 L214.90,166.30 L215.12,164.85 L216.97,163.04 L215.06,160.43 L217.52,158.04 L220.79,157.05 L221.23,153.91 L222.48,152.59 L222.97,150.15 L219.37,148.50 L217.30,146.64 L217.74,145.36 L216.21,144.99 L217.14,143.13 L213.48,141.35 L213.59,139.04 L214.95,136.93 L218.77,135.78 L221.44,133.88 L221.77,133.05 L220.74,131.69 L220.95,130.78 L222.15,130.37 L221.99,129.21 L227.50,125.29 L228.26,123.97 L225.86,121.86 L225.92,120.79 L224.44,120.13 L222.70,114.72 L223.24,113.02 L224.55,112.57 L223.90,110.42 L226.35,107.74 L225.54,107.12 L226.08,105.46 L223.52,102.70 L225.59,101.58 L224.28,101.09 L223.68,98.98 L221.83,98.61 L222.37,97.29 L219.54,96.30 L218.72,95.18 L219.75,93.94 L218.34,92.41 L218.72,90.35 L217.19,89.32 L217.24,86.88 L218.72,86.80 L219.75,85.93 L217.19,83.62 L218.39,81.35 L217.95,79.03 L221.01,77.75 L221.28,75.03 L224.23,73.99 L223.14,72.96 L221.94,73.21 L222.32,72.01 L220.30,70.36 L219.59,68.63 L217.95,68.58 L217.46,67.59 L216.48,64.74 L213.59,63.67 L213.32,62.64 L212.12,62.31 L211.73,60.28 L211.84,58.51 L212.88,58.30 L216.32,53.96 L216.21,52.23 L213.81,49.71 L214.63,46.16 L212.17,46.28 L211.84,44.96 L211.52,40.17 L212.06,36.58 L213.37,35.01 L211.68,31.79 L212.06,29.89 L213.64,29.47 L212.44,26.25 L220.79,25.18 L222.43,26.09 L228.54,26.50 L233.23,23.86 L233.28,23.28 L234.26,23.24 L235.19,25.05 L238.35,26.42 L241.08,24.72 L245.61,24.43 L252.81,22.78 L253.52,23.90 L254.67,23.90 L254.88,25.01 L257.45,26.17 L267.32,24.93 L269.72,25.96 L272.07,25.96 L275.61,27.57 L276.81,26.79 L277.68,28.36 L278.28,27.61 L281.23,28.81 L282.49,28.48 L301.20,30.30 L305.89,31.79 L312.05,30.75 L314.45,32.36 L326.56,33.60 L328.14,32.98 L332.29,33.64 L340.63,32.28 L340.03,35.17 L340.80,32.69 L344.73,32.57 L345.93,31.37 L347.73,30.96 L346.69,30.55 L347.02,29.89 L349.36,30.51 L349.14,28.56 L353.02,28.61 L353.89,26.17 L355.25,25.76 L355.04,24.72 L356.18,23.53 L358.36,23.82 L362.18,22.78 L367.42,19.56 L369.22,19.23 L373.47,21.58 L377.56,25.18 L377.29,26.71 L374.51,29.02 L372.16,32.74 L374.24,36.25 L373.64,39.72 L376.09,42.28 L379.86,44.22 L381.22,43.76 L391.58,46.08 L393.77,45.95 L398.95,47.52 L401.62,47.15 L402.60,47.81 L403.31,49.96 L401.78,52.64 L397.04,55.53 L395.51,57.89 L395.13,61.15 L398.18,62.72 L404.29,68.71 L400.09,75.94 L401.73,78.12 L405.06,80.15 L405.60,82.63 L404.51,83.70 L400.75,84.81 L399.87,86.01 L401.35,87.66 L404.29,87.71 L407.35,87.04 L408.88,88.20 L407.95,92.37 L409.31,92.99 L410.02,95.26 L408.66,98.40 L409.20,99.19 L412.42,99.39 L413.40,100.10 L413.18,106.70 L416.29,107.78 L416.68,108.56 L415.31,113.81 L413.46,114.63 L406.20,115.58 L402.00,117.07 L398.89,119.63 L394.04,121.32 L393.33,123.43 L395.13,124.59 L395.35,126.24 L390.77,127.23 L393.49,126.86 L390.33,129.01 L390.77,131.94 L394.80,132.31 L400.80,136.56 L403.42,137.68 L404.84,137.47 L405.49,136.48 L412.58,136.44 L415.59,137.93 L420.93,136.89 L423.00,138.88 L423.93,139.78 L427.04,139.58 L437.84,144.70 L440.62,147.38 L441.01,149.70 L447.55,151.31 L446.79,153.00 L447.55,154.32 L450.77,153.83 L450.82,155.81 L453.01,157.96 L449.46,160.43 L449.41,161.96 L447.28,164.03 L447.82,164.81 L447.82,166.22 L444.88,166.88 L443.90,170.39 L439.59,171.38 L433.48,174.48 L427.15,172.25 L422.13,172.78 L421.53,174.27 L417.22,176.75 L413.80,176.51 L415.09,178.90 L413.29,179.72 L412.53,178.65 L410.02,177.90 L409.26,178.85 L410.84,180.80 L410.51,182.45 L409.42,182.78 L407.51,181.70 L406.58,182.16 L407.13,183.36 L411.33,183.77 L412.37,184.59 L411.88,185.30 L405.60,187.11 L404.46,189.63 L406.80,192.98 L411.88,193.97 L409.09,195.04 L408.49,196.28 L408.77,197.31 L412.69,197.23 L413.18,199.13 L414.49,199.63 L416.51,203.22 L415.48,205.20 L415.69,207.02 L414.49,208.30 L416.40,210.57 L416.02,212.97 L417.33,214.37 L420.55,215.69 L422.29,216.97 L421.64,219.78 L424.64,220.77 L426.44,223.17 L429.22,223.95 L436.42,226.27 L438.17,228.50 L437.40,230.60 L437.90,232.05 L441.39,232.01 L445.75,229.98 L450.82,228.87 L452.08,229.16 L454.53,232.42 L460.53,229.49 L462.06,231.47 L462.77,234.65 L466.42,235.60 L474.33,235.39 L476.19,237.13 L476.19,240.39 L480.06,244.77 L481.32,244.85 L482.52,243.57 L485.08,245.51 L488.84,244.89 L492.88,250.96 L498.17,254.27 L498.99,256.13 L497.68,257.61 L498.99,261.45 L501.23,264.10 L503.74,265.17 L504.72,267.73 L510.01,269.88 L514.16,274.59 L513.77,278.55 L517.32,282.19 L519.34,282.35 L523.97,279.91 L535.81,276.94 L540.50,273.76 L542.30,273.43 L543.28,273.80 L543.83,276.73 L546.45,277.60 L546.23,280.49 L547.49,280.45 L548.09,278.51 L549.39,278.01 L551.58,278.68 L551.52,279.71 L552.94,280.62 L553.05,282.76 L556.05,283.22 L556.38,281.57 L560.69,281.90 L560.03,283.18 L561.23,283.42 L562.27,283.18 L563.69,284.21 L566.36,283.42 L566.58,281.03 L570.45,278.76 L572.63,280.66 L572.47,282.68 L573.34,283.42 L574.21,283.59 L575.74,279.21 L577.49,280.08 L577.92,281.61 L582.12,282.10 L582.07,285.61 L583.21,288.30 L584.91,289.00 L583.76,288.34 L586.60,286.40 L586.71,285.04 L590.85,283.92 L591.18,283.05 L588.72,282.27 L587.63,280.95 L590.03,276.61 L594.23,275.33 L593.80,271.98 L600.89,270.04 L601.38,267.85 L603.18,266.29 L613.16,268.60 L613.93,270.91 L615.89,268.68 L621.78,266.08 L622.16,264.51 L627.95,263.93 L627.35,262.24 L630.18,260.71 L631.76,260.59 L632.42,259.55 L637.65,260.34 L638.25,260.88 L637.49,258.07 L633.84,257.49 L635.31,255.59 L634.49,253.69 L635.36,252.24 L637.55,252.33 L638.75,253.40 L639.45,251.83 L641.31,252.49 L643.66,250.51 L646.38,249.48 L649.49,250.22 L653.75,249.68 L655.44,251.29 L657.46,251.21 L663.57,255.13 L667.38,254.06 L670.38,254.56 L674.64,253.56 L677.48,254.10 L680.91,251.67 L685.17,250.84 L685.28,248.53 L686.42,247.62 L688.60,248.40 L688.77,249.48 L690.51,250.18 L690.73,251.54 L692.15,251.21 L690.19,248.36 L692.04,247.82 L692.26,246.01 L694.17,246.09 L692.75,243.74 L693.73,239.98 L694.55,239.81 L695.59,242.00 L697.99,241.84 L698.31,240.64 L702.35,237.79 L701.48,240.43 L701.64,240.97 L703.11,240.76 L706.71,237.54 L705.73,236.34 L706.77,235.56 L706.11,232.01 L708.30,232.83 L708.84,235.43 L709.66,235.72 L711.73,233.16 L711.19,230.68 L712.71,231.26 L714.02,230.64 L715.99,230.97 L714.30,228.50 L714.90,227.30 L716.64,227.05 L716.97,228.74 L719.75,228.04 L720.95,228.79 L721.93,231.30 L724.82,233.99 L724.17,236.43 L724.99,237.58 L726.19,238.41 L727.61,238.12 L729.62,239.98 L732.84,240.06 L733.88,239.03 L735.41,239.32 L736.33,238.78 L741.95,239.48 L745.72,237.79 L746.70,236.43 L744.63,234.61 L746.86,232.25 L748.23,231.80 L749.64,231.92 L752.26,234.07 L753.41,232.54 L755.37,232.67 L756.52,233.99 L760.34,234.07 L762.90,232.67 L764.05,234.40 L763.61,235.06 L765.57,234.32 L765.74,235.68 L768.46,235.52 L768.19,236.76 L770.15,236.84 L773.59,235.68 L773.26,237.21 L771.63,238.16 L773.32,237.95 L774.46,239.56 L777.68,240.31 L784.39,238.45 L783.25,238.20 L784.06,237.71 L788.27,237.38 L789.14,238.45 L790.01,238.45 L793.28,234.94 L794.87,235.31 L795.79,234.44 L799.72,234.32 L800.76,233.53 L804.25,232.92 L806.43,233.78 L807.85,232.83 L813.74,231.80 L814.61,230.97 L815.70,231.18 L816.85,230.44 L817.18,228.99 L819.03,228.62 L821.21,227.17 L821.49,225.56 L824.59,223.33 L827.60,224.86 L827.70,226.27 L830.16,225.56 L831.03,226.84 L833.65,226.93 L838.07,230.89 L835.72,231.84 L836.27,233.25 L834.80,234.48 L834.52,235.85 L835.45,237.46 L835.12,241.34 L837.41,243.45 L835.40,245.47 L837.20,249.56 L833.70,253.48 L835.40,256.79 L837.96,258.85 L841.40,259.93 L842.76,261.37 L844.40,261.82 L845.92,264.67 L844.01,266.37 L844.01,268.43 L840.58,272.36 L839.27,276.49 L841.61,276.90 L843.31,278.43 L843.09,279.13 L844.78,280.49 L844.07,281.73 L844.72,282.85 L847.29,284.33 L847.83,286.03 L849.91,287.76 L848.92,289.74 L846.31,289.95 L845.76,290.98 L843.36,290.49 L837.69,290.82 L836.27,292.76 L830.76,294.29 L832.29,297.18 L830.32,301.02 L828.85,301.56 L826.18,301.35 L822.30,304.36 L820.07,303.99 L819.63,304.61 L820.12,305.56 L824.38,307.17 L830.43,311.71 L831.80,313.49 L833.70,314.19 L834.41,315.89 L836.54,316.67 L835.67,319.44 L838.83,322.08 L838.12,325.18 L839.92,326.58 L839.60,327.90 L840.74,329.39 L840.14,332.08 L836.76,336.99 L833.53,336.87 L835.72,337.32 L833.38,337.03 L830.98,337.82 L829.45,341.95 L825.36,345.13 L825.03,347.07 L822.96,350.00 L825.14,355.08 L823.83,360.86 L815.27,368.05 L813.41,370.24 L812.43,374.12 L814.99,376.68 L815.05,380.40 L812.98,385.06 L814.29,390.10 L812.21,394.31 L810.25,395.22 L808.78,398.32 L809.81,401.91 L807.25,410.67 L808.94,414.34 L808.34,419.14 L804.41,422.85 L801.19,424.75 L796.07,424.75 L793.61,431.53 L790.07,433.42 L790.12,435.78 L798.52,439.50 L800.76,440.16 L809.48,440.32 L811.18,441.44 L814.34,442.18 L816.79,441.97 L819.19,444.62 L813.96,452.59 L816.14,458.78 L829.01,464.69 L828.63,467.21 L831.36,471.42 L831.25,473.94 L834.52,478.73 L830.00,479.52 L827.16,483.52 L826.50,486.08 L822.36,491.20 L817.12,493.68 L814.39,492.40 L810.19,492.48 L793.67,497.52 L792.08,499.22 L789.47,498.64 L781.23,500.04 L778.01,499.63 L774.41,500.58 L771.30,502.73 L768.08,502.85 L766.34,503.59 L759.01,502.44 L757.72,503.35 L756.41,505.37 L753.95,506.57 L754.28,512.18 L753.19,515.24 L754.72,517.72 L753.35,519.33 L761.37,527.71 L764.48,529.20 L767.26,534.36 L769.77,536.76 L770.04,538.25 L802.56,540.43 L811.67,559.60 L814.45,561.29 L822.79,572.56 L836.21,575.58 L838.50,577.15 L840.03,576.69 L840.74,577.40 L843.96,576.53 L847.61,574.22 L861.58,573.18 L867.63,573.72 L865.12,597.84 L879.47,605.19 L880.18,607.50 L889.13,609.77 L912.42,612.34 L913.46,617.17 L915.80,618.03 L920.11,621.38 L924.26,622.99 L926.27,621.71 L927.86,622.25 L930.58,621.50 L929.98,628.03 L927.97,629.80 L923.82,629.72 L922.46,630.34 L916.40,629.56 L912.86,630.67 L909.64,633.98 L906.36,634.47 L903.69,635.67 L901.18,635.75 L897.42,634.80 L893.60,636.95 L887.54,637.98 L884.60,637.65 L881.16,638.68 L878.54,641.12 L875.82,648.68 L872.98,648.39 L874.07,647.19 L870.85,649.42 L869.33,649.17 L866.43,649.92 L863.82,652.07 L862.62,654.71 L862.12,660.99 L858.80,667.72 L858.91,672.10 L855.91,676.51 L853.40,678.70 L852.14,681.39 L851.11,687.17 L850.29,691.63 L847.34,693.36 L840.52,695.22 L839.11,699.02 L836.38,699.85 L836.92,698.24 L835.29,696.21 L835.40,694.11 L831.30,691.92 L814.56,688.08 L805.12,688.16 L803.76,689.15 L799.50,689.19 L795.36,690.18 L792.14,691.84 L789.30,695.10 L787.88,694.85 L788.05,692.99 L786.41,692.29 L778.23,691.42 L773.76,691.84 L768.68,693.45 L763.66,696.50 L759.79,699.93 L758.95,698.13 L758.81,700.51 L750.19,701.42 L745.12,703.32 L743.70,704.60 L743.21,703.81 L741.52,703.73 L737.26,705.30 L731.42,709.64 L726.68,715.17 L716.48,732.19 L712.66,741.40 L710.91,747.05 L711.41,747.76 L710.53,747.47 L708.19,748.38 L702.90,751.47 L697.99,749.62 L695.48,747.92 L689.26,748.33 L683.75,751.18 L678.13,756.72 L676.88,756.22 L676.38,754.32 L666.46,754.45 L665.04,755.03 L663.57,754.41 L663.46,753.66 L661.38,753.33 L656.37,754.20 L653.04,756.55 L650.09,757.71 L646.60,760.89 L643.22,765.85 L639.56,773.44 L637.60,780.51 L637.76,785.01 L636.62,787.24 L635.80,787.82 L632.80,787.78 L631.33,786.58 L631.16,785.30 L628.82,784.18 L624.67,784.18 L621.62,785.22 L618.84,787.65 L614.96,792.86 L613.05,798.39 L612.62,802.44 L613.22,803.30 L609.78,803.80 L606.23,802.85 L605.09,801.28 L606.62,800.25 L605.47,792.94 L597.29,789.84 L582.94,786.95 L574.43,786.50 L563.85,789.51 L558.34,791.82 L555.61,793.85 L552.83,793.93 L548.14,794.14 L542.68,796.28 L537.39,796.61 L529.81,795.54 L527.19,796.37 L527.08,795.00 L527.96,794.55 L520.05,796.94 L516.12,798.35 L509.68,802.44 L509.86,800.62 L506.25,800.62 L507.28,800.66 L507.45,801.12 L503.57,801.69 L500.19,803.18 L499.81,802.73 L498.61,803.18 L495.39,805.66 L486.50,815.74 L486.50,815.12 L484.21,813.84 L484.54,812.39 L484.04,813.46 L483.23,812.93 L484.21,813.88 L485.30,814.66 L486.44,815.12 L486.39,815.90 L472.92,836.80 L467.46,849.73 L464.62,859.72 L460.59,874.67 L460.26,876.49 L456.82,878.22 L455.52,882.43 L452.19,886.44 L449.79,887.89 L448.91,891.52 L448.15,891.85 L444.39,889.95 L437.73,889.04 L435.22,889.50 L432.22,891.27 L430.80,889.37 L428.35,888.42 L416.57,885.00 L403.53,882.89 L404.57,882.68 L390.44,883.01 L381.38,885.78 L377.51,886.03 L367.47,890.08 L363.55,889.21 L357.49,890.28 L354.65,891.23 L349.69,894.37 L339.38,903.21 L332.40,909.24 L330.16,911.22 L329.18,911.76 L322.03,913.82 L323.83,913.45 L318.60,916.18 L309.60,917.95 L303.54,919.93 L295.58,919.60 L289.41,919.81 L285.05,921.01 L276.38,924.11 L271.47,926.96 L268.25,929.35 L241.25,936.99 L218.01,945.95 L215.50,943.02 L215.55,942.20 L217.41,941.41 L216.54,938.85 Z M190.52,761.88 L187.73,762.21 L183.75,763.37 L190.52,761.88 Z M873.80,645.83 L872.86,644.93 L874.07,647.19 L873.80,645.83 Z M512.36,797.48 L512.23,797.14 L511.91,797.39 L516.12,798.35 L512.36,797.48 Z M330.76,905.93 L330.38,908.54 L330.16,911.22 L330.76,905.93 Z M327.20,905.57 L327.60,905.93 L330.76,905.93 L327.20,905.57 Z M125.60,455.27 L126.12,455.48 L123.47,451.47 L125.60,455.27 Z M127.67,456.10 L130.84,456.51 L127.22,455.92 L127.67,456.10 Z M152.44,454.69 L154.62,454.82 L146.22,453.00 L152.44,454.69 Z M183.71,435.82 L183.31,435.66 L182.93,435.98 L183.71,435.82 Z M235.57,423.02 L236.94,421.61 L229.79,426.61 L235.57,423.02 Z M265.36,406.09 L263.77,405.80 L261.21,406.37 L265.36,406.09 Z M266.61,406.00 L266.59,405.66 L266.20,406.03 L266.61,406.00 Z M392.07,424.09 L392.31,424.42 L392.32,423.69 L392.07,424.09 Z M393.17,425.62 L396.46,426.32 L396.11,425.95 L392.78,425.09 L393.17,425.62 Z M396.61,426.80 L396.93,426.82 L396.74,426.61 L396.61,426.80 Z M503.85,409.18 L504.07,408.93 L503.60,409.21 L503.85,409.18 Z M506.68,406.00 L507.47,404.39 L505.41,407.43 L506.68,406.00 Z M511.10,399.93 L513.01,396.26 L509.82,400.95 L511.10,399.93 Z M469.64,359.58 L469.55,359.49 L469.70,359.99 L471.33,360.99 L469.64,359.58 Z M468.50,358.47 L467.19,358.67 L468.87,358.83 L468.50,358.47 Z M495.72,299.90 L494.25,299.20 L495.01,299.86 L490.59,300.11 L495.72,299.90 Z M227.49,616.22 L229.93,618.53 L229.25,617.37 L227.49,616.22 Z M279.81,634.51 L284.61,633.23 L294.27,629.60 L279.81,634.51 Z M309.16,616.26 L315.38,616.09 L331.69,614.52 L309.16,616.26 Z M440.02,626.38 L435.89,625.08 L438.17,626.09 L445.31,627.37 L440.02,626.38 Z M477.28,678.87 L476.76,679.39 L483.55,677.34 L477.28,678.87 Z M482.90,670.03 L483.77,667.10 L484.15,664.33 L482.90,670.03 Z M509.46,656.99 L509.63,656.90 L511.10,654.09 L509.46,656.99 Z M571.98,630.18 L559.81,634.43 L566.36,632.16 L566.49,632.51 L571.98,630.18 Z M607.82,582.93 L605.96,582.97 L605.71,583.31 L607.82,582.93 Z M601.64,586.10 L600.12,584.42 L601.11,586.11 L601.64,586.10 Z M600.25,566.18 L600.45,566.04 L597.02,562.57 L600.25,566.18 Z M602.65,557.00 L604.82,555.18 L604.00,555.67 L602.65,557.00 Z M621.09,551.01 L622.54,550.84 L624.29,549.85 L621.09,551.01 Z M687.13,555.67 L689.48,555.59 L695.20,553.98 L687.13,555.67 Z M764.54,539.98 L768.09,538.42 L767.10,538.49 L764.54,539.98 Z M426.01,646.12 L412.26,652.60 L425.84,646.49 L426.01,646.12 Z M426.49,642.11 L427.86,645.25 L427.70,644.51 L426.49,642.11 Z M478.26,680.19 L476.54,679.61 L476.24,679.90 L478.26,680.19 Z M522.50,727.73 L521.74,729.13 L521.68,730.16 L522.50,727.73 Z M517.92,733.34 L515.68,732.93 L513.34,732.76 L517.92,733.34 Z M513.50,787.57 L512.89,786.90 L512.81,787.14 L513.50,787.57 Z M506.54,788.12 L508.48,787.12 L508.34,787.05 L506.54,788.12 Z M493.75,782.70 L492.68,782.17 L491.41,782.04 L493.75,782.70 Z M492.12,793.48 L492.34,792.24 L492.16,792.10 L492.12,793.48 Z M485.57,796.94 L483.48,796.21 L483.55,796.61 L485.57,796.94 Z M201.46,668.65 L202.09,668.84 L201.81,668.46 L201.46,668.65 Z M202.99,670.07 L203.44,671.02 L203.90,671.31 L202.99,670.07 Z M345.54,661.98 L331.13,675.74 L333.98,673.42 L345.54,661.98 Z M315.38,709.31 L316.03,709.27 L317.01,708.65 L315.38,709.31 Z M374.73,795.91 L381.94,798.46 L381.94,798.46 L374.73,795.91 Z M378.82,800.17 L349.96,800.41 L379.31,800.37 L378.82,800.17 Z M329.62,853.90 L298.41,858.27 L312.60,856.29 L329.62,853.90 Z M343.47,852.74 L355.69,851.71 L329.62,853.90 L343.47,852.74 Z M316.41,878.18 L313.64,881.68 L315.76,879.79 L316.41,878.18 Z M311.56,883.54 L308.72,885.57 L308.07,886.65 L311.56,883.54 Z M311.29,889.17 L312.11,889.62 L308.07,886.65 L311.29,889.17 Z M311.29,889.91 L314.56,890.08 L312.11,889.62 L311.29,889.91 Z M310.71,891.90 L308.34,894.12 L310.47,892.72 L310.71,891.90 Z M321.71,910.11 L321.55,910.17 L323.23,910.23 L321.71,910.11 Z M249.54,734.25 L249.97,733.14 L249.76,733.00 L249.54,734.25 Z M257.07,746.73 L257.07,746.72 L256.19,746.19 L257.07,746.73 Z M270.29,709.74 L269.72,709.12 L270.05,709.60 L270.29,709.74 Z M244.19,861.33 L203.66,864.14 L257.34,860.59 L244.19,861.33 Z M218.01,871.61 L219.92,871.61 L226.19,871.04 L218.01,871.61 Z M269.75,875.77 L269.02,875.31 L269.18,875.74 L269.75,875.77 Z M272.83,875.00 L270.62,875.80 L271.19,875.83 L272.83,875.00 Z M282.12,876.09 L280.98,876.07 L281.67,876.24 L282.12,876.09 Z M248.01,830.15 L247.08,836.06 L248.45,829.36 L248.01,830.15 Z M258.05,830.36 L256.59,830.19 L258.19,830.69 L258.05,830.36 Z M258.87,832.21 L258.53,831.46 L258.10,835.97 L258.87,832.21 Z M252.75,842.31 L253.79,840.02 L252.75,842.31 L252.75,842.31 Z M250.18,838.47 L251.75,839.70 L251.61,839.15 L250.18,838.47 Z M249.92,803.64 L266.12,802.07 L224.50,805.70 L249.92,803.64 Z M254.39,808.89 L252.63,806.82 L253.25,808.30 L254.39,808.89 Z M258.37,748.33 L258.49,748.40 L258.36,748.25 L258.37,748.33 Z M203.93,711.45 L210.10,730.66 L208.19,723.76 L203.93,711.45 Z M234.86,686.58 L235.46,686.80 L236.11,686.57 L234.86,686.58 Z M261.81,694.93 L262.68,695.88 L266.23,698.61 L261.81,694.93 Z M219.11,677.29 L218.88,675.52 L218.88,677.09 L219.11,677.29 Z M234.59,680.60 L232.03,679.28 L232.35,679.61 L234.59,680.60 Z M234.48,686.45 L235.03,685.77 L233.23,686.01 L234.48,686.45 Z M229.41,690.85 L229.83,690.73 L228.97,690.27 L229.52,691.92 L229.41,690.85 Z M231.26,706.54 L226.41,712.36 L225.61,714.17 L231.26,706.54 Z M324.31,659.67 L324.05,659.75 L317.72,666.15 L317.73,666.29 L324.31,659.67 Z M257.50,692.17 L257.34,689.28 L256.90,690.52 L255.70,689.48 L257.50,692.17 Z M272.50,682.60 L272.83,682.34 L272.39,680.89 L272.50,682.60 Z M322.14,622.54 L321.87,623.24 L322.02,624.07 L322.14,622.54 Z M300.38,649.01 L299.57,650.66 L300.91,648.64 L300.38,649.01 Z M394.89,823.31 L394.31,824.82 L394.64,826.47 L394.89,823.31 Z M453.01,823.29 L449.19,820.98 L458.79,828.00 L453.01,823.29 Z M483.38,804.63 L482.41,805.12 L477.93,810.04 L483.38,804.63 Z M324.27,895.49 L323.18,894.88 L323.40,895.40 L324.27,895.49 Z M326.45,904.90 L326.68,905.11 L326.72,903.08 L326.45,904.90 Z M321.71,898.87 L322.37,897.51 L321.71,898.07 L321.92,898.13 L321.71,898.87 Z M342.82,890.36 L343.53,890.69 L341.51,886.85 L342.82,890.36 Z M358.96,870.79 L358.74,870.52 L356.29,874.51 L356.53,875.11 L358.96,870.79 Z M358.91,876.69 L356.78,875.75 L357.00,876.32 L358.91,876.69 Z M357.27,750.65 L356.45,753.54 L356.62,755.03 L357.27,750.65 Z M358.58,769.32 L356.40,767.46 L358.36,769.27 L358.58,769.32 Z M382.30,760.33 L382.80,760.72 L383.89,760.44 L382.30,760.33 Z M386.24,763.82 L386.67,762.95 L385.04,764.28 L386.24,763.82 Z M394.30,789.14 L394.69,788.85 L394.00,788.63 L394.30,789.14 Z M393.93,788.50 L393.98,785.67 L393.60,787.94 L393.93,788.50 Z M446.92,788.54 L450.71,788.27 L460.04,786.29 L446.92,788.54 Z M402.17,793.81 L402.54,793.71 L401.98,793.64 L402.17,793.81 Z M410.84,791.45 L404.89,792.86 L404.33,793.22 L410.84,791.45 Z M462.39,783.11 L464.68,781.37 L464.49,780.95 L462.39,783.11 Z M462.22,779.27 L462.65,779.03 L461.62,778.73 L462.22,779.27 Z M464.14,780.20 L463.75,779.35 L463.15,779.18 L464.14,780.20 Z M459.01,774.15 L459.61,775.43 L458.41,769.03 L459.01,774.15 Z M415.59,718.31 L433.97,730.95 L404.57,710.09 L415.59,718.31 Z M456.50,689.15 L450.28,689.73 L455.68,689.57 L457.12,689.16 L456.50,689.15 Z M588.94,646.66 L595.71,644.34 L599.42,642.98 L588.94,646.66 Z M608.47,638.77 L639.62,639.10 L617.14,638.77 L608.47,638.77 Z M655.31,632.41 L657.35,634.47 L656.04,632.70 L655.31,632.41 Z M671.91,678.00 L674.91,684.61 L672.18,678.54 L671.91,678.00 Z M514.26,791.04 L515.57,789.01 L516.56,787.40 L514.26,791.04 Z M518.85,790.01 L518.90,790.01 L515.57,789.01 L518.85,790.01 Z M527.36,790.67 L527.97,790.42 L524.17,790.42 L527.36,790.67 Z M552.07,784.35 L538.81,788.44 L536.52,789.47 L552.07,784.35 Z M554.53,787.01 L559.92,771.21 L554.90,785.46 L554.53,787.01 Z M554.33,787.79 L562.87,785.50 L554.33,787.79 L554.33,787.79 Z M501.28,797.61 L502.10,797.69 L502.05,799.67 L502.15,798.06 L503.14,796.86 L501.28,797.61 Z M502.48,793.48 L502.05,794.22 L501.28,797.61 L502.48,793.48 Z M510.17,798.80 L510.46,799.02 L511.41,797.80 L510.17,798.80 Z M506.44,798.31 L506.35,798.18 L505.43,798.40 L506.44,798.31 Z M511.65,795.50 L511.70,796.78 L512.13,796.84 L511.65,795.50 Z M507.94,795.91 L507.88,796.16 L511.65,795.50 L507.94,795.91 Z M521.52,792.77 L522.38,793.27 L522.38,793.27 L521.52,792.77 Z M523.05,791.49 L522.46,791.43 L522.93,791.80 L523.05,791.49 Z M536.06,731.65 L536.06,731.65 L537.07,733.05 L536.06,731.65 Z M536.25,734.09 L535.54,739.95 L535.92,738.22 L537.07,733.05 L536.25,734.09 Z M613.27,765.02 L614.14,767.87 L615.05,768.88 L613.27,765.02 Z M615.40,769.27 L618.45,769.23 L628.33,768.61 L615.40,769.27 L615.40,769.27 Z M543.56,712.49 L545.19,713.19 L546.25,712.97 L543.56,712.49 Z M550.87,709.22 L550.59,708.40 L549.39,705.80 L550.87,709.22 Z M557.79,688.82 L558.60,687.61 L558.18,687.83 L557.79,688.82 Z M558.56,685.06 L558.56,684.90 L557.41,684.77 L558.56,685.06 Z M543.78,714.47 L543.39,713.93 L543.23,715.38 L543.78,714.47 Z M594.83,691.19 L592.38,690.43 L590.96,690.37 L594.83,691.19 Z M640.76,663.92 L641.36,674.66 L642.24,682.96 L640.76,663.92 Z M632.86,651.38 L632.64,651.78 L633.01,652.22 L632.86,651.38 Z M582.29,660.45 L584.03,663.22 L582.38,659.41 L582.29,660.45 Z M566.63,632.90 L568.76,632.74 L566.53,632.63 L566.63,632.90 Z M678.57,654.67 L684.57,662.76 L676.49,651.82 L678.57,654.67 Z M689.86,674.99 L688.66,676.02 L688.62,676.44 L689.86,674.99 Z M711.62,668.67 L722.97,666.11 L709.93,669.00 L711.62,668.67 Z M733.00,663.75 L732.95,663.88 L732.61,665.19 L733.33,664.50 L733.00,663.75 Z M746.45,672.27 L746.22,672.76 L755.54,672.67 L746.64,672.59 L746.45,672.27 Z M757.34,693.53 L759.24,691.42 L758.26,691.80 L757.34,693.53 Z M755.48,693.12 L758.49,697.14 L758.10,696.30 L755.48,693.12 Z M717.57,675.23 L717.80,674.64 L717.79,674.66 L717.20,675.40 L717.57,675.23 Z M715.93,672.80 L713.53,675.44 L713.76,675.71 L715.93,672.80 Z M844.67,681.64 L828.63,678.70 L826.29,678.70 L844.67,681.64 Z M721.93,655.66 L722.16,655.78 L722.20,655.65 L721.93,655.66 Z M850.23,667.84 L846.80,670.40 L848.98,668.83 L850.23,667.84 Z M852.36,655.04 L850.01,657.97 L853.94,653.30 L852.36,655.04 Z M804.47,614.90 L804.41,617.46 L804.66,617.56 L804.47,614.90 Z M805.63,617.94 L806.00,618.09 L841.07,619.15 L805.63,617.94 Z M531.68,413.53 L530.90,413.79 L531.12,413.85 L531.68,413.53 Z M552.94,436.65 L551.24,435.14 L551.25,435.32 L552.94,436.65 Z M508.95,466.49 L511.70,465.23 L509.03,465.97 L508.95,466.49 Z M507.18,467.30 L508.61,466.64 L507.99,466.59 L507.18,467.30 Z M505.26,469.89 L506.29,468.08 L505.59,468.69 L505.26,469.89 Z M505.91,473.17 L505.59,473.03 L504.20,473.30 L505.91,473.17 Z M501.10,474.21 L502.30,473.68 L501.39,473.86 L501.10,474.21 Z M496.97,476.05 L500.61,474.43 L500.08,474.23 L496.97,476.05 Z M499.32,480.96 L494.17,478.16 L494.95,478.94 L499.32,480.96 Z M498.45,485.59 L496.92,484.64 L498.88,486.29 L498.77,485.11 L498.45,485.59 Z M521.03,492.65 L518.19,494.01 L519.34,493.47 L521.03,492.65 Z M506.96,519.53 L508.76,518.71 L505.48,519.53 L506.96,519.53 Z M511.07,597.63 L510.02,596.09 L509.96,596.68 L511.07,597.63 Z M488.68,603.29 L484.59,598.25 L481.26,595.15 L488.68,603.29 Z M265.30,465.89 L266.39,464.92 L265.90,464.98 L265.30,465.89 Z M266.71,464.88 L267.70,465.63 L267.32,464.81 L266.71,464.88 Z M268.85,468.16 L267.10,472.66 L267.21,473.30 L268.85,468.16 Z M267.33,474.01 L267.38,474.27 L267.77,474.31 L267.33,474.01 Z M316.66,446.05 L316.85,446.02 L320.51,438.88 L316.66,446.05 Z M336.71,466.88 L338.89,466.84 L337.69,466.71 L336.71,466.88 Z M333.98,480.96 L333.16,483.44 L333.82,481.87 L333.98,480.96 Z M302.67,508.34 L302.18,510.37 L302.53,510.37 L302.67,508.34 Z M324.16,536.01 L323.23,536.22 L318.05,538.74 L324.16,536.01 Z M317.23,541.05 L312.43,542.21 L315.65,541.63 L317.23,541.05 Z M168.20,535.64 L167.98,535.24 L168.10,536.05 L168.20,535.64 Z M170.66,533.20 L166.84,533.87 L167.62,534.13 L170.66,533.20 Z M186.05,541.01 L186.20,540.69 L185.57,540.83 L186.05,541.01 Z M195.97,543.86 L195.58,543.56 L195.78,544.56 L195.97,543.86 Z M256.14,501.53 L256.60,500.88 L254.77,501.57 L256.14,501.53 Z M273.10,533.08 L278.23,542.83 L271.79,529.24 L273.10,533.08 Z M176.93,558.44 L175.62,559.25 L176.77,558.98 L176.93,558.44 Z M185.82,555.75 L185.72,555.72 L186.81,556.50 L185.82,555.75 Z M189.86,560.63 L188.61,559.97 L190.41,561.88 L189.86,560.63 Z M218.48,591.99 L218.20,594.06 L219.49,593.57 L218.77,593.59 L218.48,591.99 Z M223.54,593.46 L220.69,593.53 L221.12,593.83 L223.54,593.46 Z M231.39,592.55 L230.13,593.08 L230.72,593.05 L231.39,592.55 Z M252.92,597.59 L251.61,588.55 L252.80,598.04 L252.92,597.59 Z M290.56,562.53 L295.96,573.51 L297.10,574.79 L290.56,562.53 Z M181.24,594.45 L198.21,594.95 L187.62,594.37 L181.24,594.45 Z M251.12,604.28 L252.56,598.92 L251.83,599.74 L250.79,604.53 L251.80,604.98 L251.12,604.28 Z M252.54,605.74 L252.93,606.52 L252.97,606.18 L252.54,605.74 Z M245.23,621.59 L245.12,620.55 L256.14,617.41 L245.01,620.22 L245.23,621.59 Z M169.79,582.26 L169.04,584.47 L169.79,583.84 L169.79,582.26 Z M178.08,572.44 L176.71,572.94 L180.59,572.62 L178.08,572.44 Z M183.86,571.99 L182.69,572.46 L184.77,572.29 L183.86,571.99 Z M205.35,548.94 L205.94,550.06 L205.84,549.27 L205.35,548.94 Z M194.50,546.38 L195.53,545.47 L195.61,545.18 L194.23,546.29 L194.50,546.38 Z M127.24,543.57 L129.58,541.80 L129.64,541.38 L127.24,543.57 Z M123.26,546.63 L122.98,547.58 L123.65,546.30 L123.26,546.63 Z M93.07,516.93 L91.13,516.31 L92.05,516.93 L93.07,516.93 Z M145.08,506.20 L144.48,506.65 L144.80,507.14 L145.08,506.20 Z M151.24,501.65 L146.89,504.87 L148.51,504.09 L151.24,501.65 Z M158.69,487.84 L159.48,488.81 L159.26,488.02 L158.69,487.84 Z M157.02,485.79 L158.09,487.10 L158.28,486.74 L157.02,485.79 Z M148.89,475.76 L159.04,482.82 L157.51,484.64 L159.69,482.08 L158.82,482.45 L148.89,475.76 Z M171.33,476.57 L170.55,476.17 L173.22,478.81 L171.33,476.57 Z M114.09,536.51 L114.36,537.05 L115.04,536.97 L114.09,536.51 Z M115.31,536.94 L115.89,536.88 L115.70,536.62 L115.31,536.94 Z M117.15,535.97 L117.26,535.39 L116.71,535.56 L117.15,535.97 Z M155.06,500.48 L153.84,505.41 L154.89,503.26 L155.06,500.48 Z M256.61,500.56 L256.74,500.68 L256.90,500.45 L256.61,500.56 Z M258.25,496.16 L257.88,497.15 L258.64,496.23 L258.25,496.16 Z M217.63,484.76 L218.34,485.55 L218.80,485.37 L217.63,484.76 Z M187.68,537.17 L187.71,538.95 L188.12,538.41 L187.68,537.17 Z M117.38,503.53 L117.38,503.53 L120.26,499.05 L117.38,503.53 Z M348.54,533.58 L350.78,532.34 L346.20,534.07 L348.54,533.58 Z M345.64,543.25 L348.60,543.41 L345.76,543.20 L345.64,543.25 Z M354.60,538.99 L356.40,540.97 L357.54,542.75 L357.16,541.46 L354.60,538.99 Z M390.06,529.65 L390.53,528.21 L390.17,528.50 L390.06,529.65 Z M390.98,529.86 L391.28,529.60 L390.06,529.65 L390.98,529.86 Z M422.13,542.21 L423.93,541.88 L419.96,541.94 L422.13,542.21 Z M417.17,556.29 L416.86,556.53 L422.51,554.52 L417.17,556.29 Z M415.04,557.94 L415.56,558.01 L415.83,557.33 L415.04,557.94 Z M419.35,558.48 L421.31,558.44 L418.11,558.33 L419.35,558.48 Z M443.73,552.41 L442.10,552.41 L439.31,553.15 L443.73,552.41 Z M450.41,555.39 L450.28,555.30 L450.12,555.26 L450.41,555.39 Z M438.11,515.12 L440.68,514.17 L445.21,514.66 L440.73,514.12 L438.11,515.12 Z M470.84,528.95 L474.12,522.80 L472.15,525.94 L470.84,528.95 Z M477.77,534.86 L473.68,534.86 L477.83,538.37 L474.17,535.23 L477.77,534.86 Z M346.68,552.92 L347.25,553.23 L346.91,551.79 L346.91,552.82 L346.68,552.92 Z M366.16,558.60 L368.51,561.00 L368.37,559.84 L367.42,559.84 L366.16,558.60 Z M370.13,561.69 L369.55,561.00 L368.51,561.00 L370.13,561.69 Z M395.85,559.27 L395.74,559.12 L395.73,559.22 L395.85,559.27 Z M396.77,558.32 L396.16,559.38 L396.55,559.51 L396.77,558.32 Z M401.40,567.44 L405.60,572.11 L402.28,568.31 L402.90,568.32 L401.40,567.44 Z M413.73,565.05 L412.80,565.96 L414.93,564.84 L413.73,565.05 Z M417.60,561.99 L417.56,564.34 L417.93,563.85 L417.60,561.99 Z M451.81,556.37 L451.54,556.18 L451.21,557.86 L451.81,556.37 Z M449.46,569.47 L448.95,569.05 L448.91,569.93 L449.46,569.47 Z M449.67,571.28 L448.87,570.67 L448.86,570.99 L449.67,571.28 Z M451.75,570.91 L450.04,571.41 L450.28,571.49 L451.75,570.91 Z M463.32,582.81 L458.35,579.30 L460.81,581.40 L463.32,582.81 Z M464.13,571.45 L464.77,572.01 L463.86,570.42 L464.13,571.45 Z M353.56,599.45 L356.09,595.84 L354.98,596.77 L353.56,599.45 Z M357.54,593.77 L359.29,591.27 L358.09,592.22 L357.54,593.77 Z M364.20,592.18 L360.65,591.31 L359.29,591.27 L364.20,592.18 Z M369.82,591.11 L373.81,586.16 L373.81,586.16 L369.82,591.11 Z M387.98,586.98 L387.01,586.64 L387.17,586.89 L384.55,588.67 L387.98,586.98 Z M369.27,566.12 L370.58,562.24 L370.46,562.09 L369.27,566.12 Z M333.65,551.01 L334.87,552.48 L334.85,551.95 L332.98,549.02 L333.65,551.01 Z M338.73,545.55 L340.55,545.16 L340.25,544.93 L338.73,545.55 Z M341.10,545.04 L341.78,544.89 L342.46,544.50 L341.10,545.04 Z M342.11,508.80 L340.47,505.95 L340.69,507.14 L342.11,508.80 Z M392.07,521.48 L394.11,522.23 L395.62,521.31 L394.15,522.18 L392.07,521.48 Z M422.43,494.06 L422.13,494.26 L423.28,496.37 L422.43,494.06 Z M437.57,509.00 L424.97,508.18 L437.83,509.34 L437.57,509.00 Z M438.28,509.91 L437.98,509.54 L435.39,511.81 L438.28,509.91 Z M348.41,530.45 L347.37,528.90 L347.62,529.82 L348.41,530.45 Z M347.34,520.82 L349.58,520.44 L347.05,520.73 L347.34,520.82 Z M355.53,536.14 L353.78,532.71 L353.02,532.21 L355.53,536.14 Z M418.97,518.49 L419.68,518.30 L419.54,517.57 L418.97,518.49 Z M417.33,507.97 L416.57,505.69 L416.19,505.95 L417.33,507.97 Z M324.39,505.15 L324.16,504.96 L323.26,505.06 L324.39,505.15 Z M329.12,510.45 L326.62,507.06 L324.95,505.64 L329.12,510.45 Z M336.60,515.92 L337.20,515.40 L336.71,514.95 L336.60,515.92 Z M336.54,516.44 L337.05,516.77 L336.56,516.29 L336.54,516.44 Z M339.71,518.54 L344.66,520.02 L338.21,517.54 L339.71,518.54 Z M313.47,498.68 L311.29,497.73 L310.58,497.80 L313.47,498.68 Z M445.42,510.20 L444.39,510.90 L446.13,509.79 L445.42,510.20 Z M464.62,504.67 L464.61,504.78 L467.90,503.72 L464.62,504.67 Z M483.72,501.86 L480.69,505.18 L481.32,505.00 L483.72,501.86 Z M337.03,482.13 L337.24,482.26 L337.20,482.08 L337.03,482.13 Z M340.06,485.63 L340.20,486.04 L340.90,486.35 L340.06,485.63 Z M369.69,463.31 L370.15,462.62 L369.60,461.72 L369.69,463.31 Z M456.61,467.70 L459.66,467.62 L455.35,467.54 L456.61,467.70 Z M400.04,448.61 L400.42,448.42 L399.00,447.01 L400.04,448.61 Z M418.39,466.19 L416.95,465.85 L415.60,465.79 L418.39,466.19 Z M424.69,469.56 L425.10,469.88 L424.42,467.62 L424.69,469.56 Z M341.40,462.79 L339.87,463.28 L337.47,464.77 L341.40,462.79 Z M454.75,465.51 L453.44,464.23 L454.81,465.72 L454.75,465.51 Z M631.71,275.91 L622.60,280.99 L627.29,278.55 L631.71,275.91 Z M604.19,286.92 L603.51,287.14 L599.74,291.60 L604.19,286.92 Z M646.60,310.72 L649.76,312.29 L649.16,311.84 L646.60,310.72 Z M656.80,322.45 L655.66,324.19 L656.37,323.36 L656.80,322.45 Z M626.94,340.56 L626.94,340.56 L626.69,341.37 L626.94,340.56 Z M603.75,367.59 L601.87,367.92 L603.29,367.92 L603.75,367.59 Z M628.11,373.66 L631.16,372.47 L628.87,372.97 L628.11,373.66 Z M632.36,368.75 L633.64,364.75 L633.02,365.28 L632.36,368.75 Z M640.71,363.42 L636.02,363.75 L634.82,362.72 L635.09,363.50 L634.63,363.90 L640.71,363.42 Z M678.20,372.73 L678.18,373.09 L679.33,373.04 L678.20,372.73 Z M687.51,378.62 L687.35,379.36 L688.82,377.22 L687.51,378.62 Z M689.20,379.98 L689.60,379.93 L687.35,379.36 L689.20,379.98 Z M684.24,379.12 L680.95,382.04 L681.73,381.97 L684.24,379.12 Z M641.75,423.06 L640.71,424.67 L641.02,424.96 L641.75,423.06 Z M666.15,453.73 L665.37,454.45 L666.13,453.79 L666.15,453.73 Z M668.41,458.11 L668.04,455.85 L667.49,455.25 L667.82,457.46 L668.41,458.11 Z M671.04,474.60 L668.04,477.62 L667.62,478.35 L671.04,474.60 Z M667.80,513.13 L663.51,513.50 L667.71,513.34 L667.80,513.13 Z M652.82,533.08 L651.29,534.32 L650.53,535.93 L652.82,533.08 Z M531.58,314.14 L530.74,314.40 L528.17,317.29 L531.58,314.14 Z M586.21,465.89 L586.58,466.01 L585.83,464.03 L586.21,465.89 Z M589.22,465.43 L589.11,464.48 L589.11,465.81 L589.22,465.43 Z M599.69,460.39 L598.93,459.24 L598.87,459.28 L599.69,460.39 Z M601.00,460.60 L601.29,460.50 L599.69,460.39 L601.00,460.60 Z M626.14,449.20 L628.11,449.45 L625.99,448.71 L626.14,449.20 Z M629.80,447.96 L632.91,442.59 L628.11,449.45 L629.80,447.96 Z M642.21,444.29 L641.80,444.74 L641.15,447.14 L641.43,448.72 L642.21,444.29 Z M640.11,450.93 L641.09,450.65 L641.17,450.19 L640.11,450.93 Z M638.04,451.10 L637.74,451.62 L638.85,451.30 L638.04,451.10 Z M559.38,491.08 L558.85,491.60 L560.59,491.26 L559.38,491.08 Z M562.21,491.49 L561.34,491.36 L564.07,493.43 L562.21,491.49 Z M566.52,494.14 L570.56,494.99 L569.96,494.59 L564.07,493.43 L566.52,494.14 Z M571.01,495.29 L571.21,498.06 L571.27,495.62 L571.64,495.71 L571.01,495.29 Z M576.23,494.67 L572.76,495.99 L573.29,496.12 L576.23,494.67 Z M578.74,486.29 L578.58,488.48 L579.83,484.35 L578.74,486.29 Z M584.96,481.08 L582.23,483.52 L586.49,480.55 L584.96,481.08 Z M588.78,477.20 L588.43,477.71 L589.09,477.18 L588.78,477.20 Z M576.61,531.39 L576.67,532.38 L577.24,532.44 L576.61,531.39 Z M577.68,533.18 L577.54,533.82 L578.31,534.24 L577.68,533.18 Z M577.71,534.69 L577.82,534.73 L578.31,534.24 L577.71,534.69 Z M578.80,537.87 L578.80,538.57 L580.76,540.14 L578.80,537.87 Z M543.14,598.20 L542.98,597.57 L542.85,598.09 L543.14,598.20 Z M550.21,600.07 L549.98,600.07 L550.49,601.14 L550.21,600.07 Z M618.73,532.96 L618.92,532.56 L616.93,533.99 L618.73,532.96 Z M619.16,530.85 L619.54,529.65 L618.18,531.68 L619.16,530.85 Z M619.76,516.89 L618.34,519.16 L618.55,519.40 L619.76,516.89 Z M539.56,466.28 L542.58,466.51 L540.83,466.05 L539.56,466.28 Z M570.29,475.18 L572.36,476.38 L574.81,476.95 L570.29,475.18 Z M582.56,477.00 L580.38,474.77 L579.49,474.56 L580.60,475.30 L582.56,477.00 Z M578.89,474.14 L583.38,472.33 L578.52,473.90 L578.89,474.14 Z M585.61,470.10 L588.51,467.91 L588.69,467.26 L585.61,470.10 Z M616.22,486.16 L619.05,484.43 L615.20,486.42 L616.22,486.16 Z M549.67,408.15 L547.84,409.77 L548.30,409.68 L549.67,408.15 Z M555.12,410.71 L550.70,408.23 L549.67,408.15 L555.12,410.71 Z M575.84,408.24 L571.16,410.09 L575.63,408.60 L575.84,408.24 Z M574.71,405.92 L576.04,407.90 L576.23,407.57 L574.71,405.92 Z M579.94,394.31 L579.83,391.63 L579.72,393.98 L578.25,392.00 L579.94,394.31 Z M595.00,425.12 L592.00,423.43 L596.96,426.78 L595.00,425.12 Z M636.51,393.12 L635.31,392.41 L638.04,394.60 L636.51,393.12 Z M573.89,434.17 L574.87,436.73 L575.45,436.92 L573.89,434.17 Z M575.69,437.00 L576.87,437.40 L576.76,436.62 L575.69,437.00 Z M576.95,436.56 L579.34,438.22 L577.16,436.48 L576.95,436.56 Z M625.30,431.94 L625.82,430.74 L625.30,431.94 L625.30,431.94 Z M625.60,411.87 L619.00,409.18 L624.18,411.33 L625.60,411.87 Z M627.44,432.74 L625.74,432.49 L626.04,432.85 L627.44,432.74 Z M638.91,426.03 L638.39,426.65 L639.35,426.15 L638.91,426.03 Z M576.61,389.28 L578.42,387.50 L577.60,387.79 L576.61,389.28 Z M579.67,387.06 L587.31,385.35 L582.07,386.22 L579.67,387.06 Z M536.96,316.13 L531.94,314.03 L531.64,314.12 L536.96,316.13 Z M540.39,300.89 L539.81,301.02 L541.07,301.97 L540.39,300.89 Z M539.77,300.66 L539.52,300.81 L539.62,300.88 L539.77,300.66 Z M541.98,299.70 L541.98,299.33 L540.96,299.95 L541.98,299.70 Z M589.43,335.17 L591.77,333.94 L591.67,333.98 L589.43,335.17 Z M595.87,332.94 L598.05,331.91 L594.46,333.07 L595.87,332.94 Z M580.68,347.08 L579.74,347.45 L580.00,347.44 L580.68,347.08 Z M589.49,340.91 L583.49,345.63 L584.63,345.04 L589.49,340.91 Z M653.47,290.61 L653.97,291.68 L653.47,289.45 L653.47,290.61 Z M664.30,294.27 L665.42,288.83 L664.27,294.16 L664.30,294.27 Z M664.93,296.64 L664.98,294.82 L664.50,295.03 L664.93,296.64 Z M718.55,409.68 L719.01,409.69 L717.08,408.23 L718.55,409.68 Z M722.54,407.71 L720.41,410.75 L724.28,406.79 L722.59,407.82 L722.54,407.71 Z M765.57,389.20 L765.57,389.20 L756.08,392.08 L765.57,389.20 Z M767.10,391.71 L767.23,391.84 L765.82,389.61 L767.10,391.71 Z M768.95,393.61 L770.04,393.43 L768.55,393.20 L768.95,393.61 Z M683.97,459.65 L684.89,459.98 L690.24,459.86 L683.97,459.65 Z M712.50,463.08 L710.68,463.10 L710.75,463.12 L712.50,463.08 Z M723.90,460.83 L724.44,460.85 L725.97,462.21 L723.90,460.35 L723.90,460.83 Z M727.77,452.84 L727.01,455.19 L728.89,451.69 L727.77,452.84 Z M729.68,450.89 L729.28,451.31 L730.39,451.06 L729.68,450.89 Z M753.52,447.67 L752.51,447.49 L754.01,448.62 L753.52,447.67 Z M784.56,459.57 L779.86,459.86 L785.50,459.70 L784.56,459.57 Z M788.43,460.10 L787.76,460.01 L795.47,465.23 L788.43,460.10 Z M703.93,495.17 L704.70,495.66 L712.82,498.06 L703.93,495.17 Z M728.81,492.03 L727.39,492.48 L727.39,490.83 L726.84,492.76 L728.81,492.03 Z M743.72,487.71 L748.44,486.04 L744.35,487.11 L743.72,487.71 Z M703.11,516.19 L703.34,515.48 L701.75,516.64 L703.11,516.19 Z M735.17,467.21 L734.48,467.17 L734.08,467.32 L735.17,467.21 Z M718.28,438.63 L719.97,439.99 L718.10,438.08 L718.28,438.63 Z M721.72,428.01 L724.17,430.08 L727.88,431.94 L721.72,428.01 Z M715.81,435.96 L715.11,436.36 L713.21,438.38 L715.81,435.96 Z M685.39,371.23 L683.42,371.52 L686.20,371.15 L685.39,371.23 Z M687.48,373.34 L689.21,372.76 L688.60,372.71 L687.73,373.25 L686.20,371.15 L687.48,373.34 Z M697.00,375.56 L699.08,375.07 L701.53,372.84 L698.97,375.03 L697.00,375.56 Z M723.08,371.31 L719.92,370.73 L726.95,372.34 L723.08,371.31 Z M729.16,375.72 L729.13,375.28 L726.95,372.34 L729.16,375.72 Z M801.89,371.22 L790.17,370.20 L801.25,371.48 L801.89,371.22 Z M690.97,379.75 L691.54,379.67 L691.11,379.57 L690.97,379.75 Z M691.20,407.02 L691.33,406.79 L689.09,402.90 L691.20,407.02 Z M699.90,382.87 L699.40,382.25 L699.97,383.31 L699.90,382.87 Z M729.17,376.07 L727.44,376.56 L729.19,376.39 L729.17,376.07 Z M690.08,376.60 L690.10,376.84 L690.38,376.56 L690.08,376.60 Z M721.69,358.09 L722.64,358.88 L727.55,360.37 L721.69,358.09 Z M718.25,357.73 L720.91,357.79 L720.41,357.60 L718.25,357.73 Z M679.35,345.57 L678.46,343.13 L678.29,343.97 L679.35,345.57 Z M678.07,342.06 L675.62,335.30 L677.42,341.33 L678.07,342.06 Z M702.24,344.13 L702.24,347.19 L702.57,344.47 L702.24,344.13 Z M699.95,349.75 L700.46,350.62 L700.66,350.33 L699.95,349.75 Z M700.08,351.17 L692.97,355.33 L699.95,351.36 L700.08,351.17 Z M710.80,359.59 L715.93,357.86 L714.84,357.93 L711.08,359.33 L710.80,359.59 Z M708.13,366.44 L707.91,366.36 L706.66,366.85 L708.13,366.44 Z M708.84,364.62 L708.19,362.43 L708.66,364.72 L708.84,364.62 Z M715.33,285.37 L704.72,281.47 L704.72,281.47 L715.33,285.37 Z M720.19,310.81 L728.10,309.28 L733.01,307.96 L720.19,310.81 Z M787.99,330.88 L778.28,329.35 L774.63,328.81 L787.99,330.88 Z M778.12,311.88 L777.93,311.26 L777.98,311.99 L778.12,311.88 Z M776.86,312.91 L777.31,312.55 L774.90,313.00 L776.86,312.91 Z M776.98,327.69 L777.12,327.05 L776.76,327.41 L776.98,327.69 Z M731.64,249.27 L730.89,251.69 L731.42,251.29 L731.64,249.27 Z M734.81,246.04 L734.75,246.34 L735.03,246.25 L734.81,246.04 Z M233.06,174.02 L231.32,176.21 L234.70,173.19 L233.06,174.02 Z M237.26,171.87 L236.46,172.29 L237.75,172.06 L237.26,171.87 Z M250.63,192.77 L250.63,196.28 L251.06,192.58 L250.63,192.77 Z M317.29,236.71 L318.38,237.25 L325.42,238.08 L317.29,236.71 Z M309.60,298.50 L306.65,297.24 L306.65,297.24 L309.60,298.50 Z M371.35,359.29 L373.36,359.46 L371.89,358.92 L371.35,359.29 Z M370.85,359.25 L371.32,359.29 L371.89,358.26 L370.85,359.25 Z M336.00,371.72 L334.42,369.20 L329.67,362.51 L336.00,371.72 Z M132.47,261.21 L133.89,265.17 L133.29,263.15 L132.47,261.21 Z M254.34,355.29 L255.88,356.99 L257.12,354.13 L255.97,356.44 L254.34,355.29 Z M262.19,373.21 L262.47,373.93 L262.63,373.46 L262.19,373.21 Z M260.12,384.86 L261.09,385.48 L261.10,385.19 L260.12,384.86 Z M112.02,382.21 L109.73,381.84 L107.17,382.18 L112.02,382.21 Z M120.76,375.25 L120.04,375.56 L119.78,376.11 L120.76,375.25 Z M121.95,375.73 L121.46,374.94 L121.05,375.12 L121.95,375.73 Z M129.22,373.96 L127.40,373.91 L128.38,374.12 L126.04,374.53 L128.00,374.57 L129.22,373.96 Z M133.57,360.75 L133.24,361.03 L133.45,361.23 L133.57,360.75 Z M152.39,358.47 L153.43,358.25 L150.84,358.11 L152.39,358.47 Z M154.55,357.36 L154.31,358.08 L159.15,357.10 L154.89,357.85 L154.55,357.36 Z M163.24,362.51 L160.79,358.63 L159.15,357.10 L163.24,362.51 Z M176.82,376.72 L173.93,378.74 L176.22,377.46 L176.82,376.72 Z M192.04,397.74 L190.35,394.85 L191.80,398.17 L192.04,397.74 Z M234.48,405.09 L225.54,404.52 L236.61,405.34 L234.48,405.09 Z M159.86,410.26 L160.24,407.65 L160.62,404.43 L159.86,410.26 Z M184.90,405.26 L190.30,400.76 L191.21,399.18 L184.90,405.26 Z M166.40,396.96 L167.50,395.64 L163.90,398.69 L166.40,396.96 Z M217.28,390.79 L217.52,391.01 L218.00,391.00 L217.28,390.79 Z M169.59,347.75 L161.55,347.11 L168.97,347.81 L169.59,347.75 Z M196.68,342.07 L191.88,341.86 L199.24,342.65 L196.68,342.07 Z M81.36,348.51 L81.60,347.00 L80.93,347.77 L81.36,348.51 Z M81.78,346.79 L84.42,347.07 L82.02,346.53 L81.78,346.79 Z M86.00,345.95 L86.60,345.04 L86.45,344.38 L86.00,345.95 Z M113.44,301.56 L115.51,299.86 L114.58,300.40 L113.44,301.56 Z M134.77,304.61 L137.22,308.74 L136.40,306.84 L134.77,304.61 Z M134.88,325.43 L136.18,326.50 L139.35,328.19 L134.88,325.43 Z M130.35,349.79 L130.51,351.20 L130.58,349.34 L130.35,349.79 Z M132.64,356.86 L133.15,356.76 L132.58,355.33 L132.64,356.86 Z M230.17,294.95 L237.26,294.62 L232.74,294.41 L230.17,294.95 Z M280.74,250.84 L286.66,250.88 L286.47,250.80 L280.74,250.84 Z M252.32,253.52 L252.96,254.43 L252.35,252.36 L252.32,253.52 Z M254.56,259.27 L254.67,259.31 L254.65,259.19 L254.56,259.27 Z M247.96,241.42 L246.70,239.98 L249.16,244.69 L247.96,241.42 Z M185.39,257.74 L188.47,259.78 L188.44,259.59 L185.39,257.74 Z M189.97,258.21 L189.70,258.19 L188.44,259.59 L189.97,258.21 Z M202.52,258.27 L205.52,254.63 L204.86,254.80 L202.52,258.27 Z M207.20,254.20 L211.57,253.85 L209.01,253.73 L207.20,254.20 Z M316.20,348.93 L310.10,348.24 L310.25,348.35 L316.20,348.93 Z M284.07,341.57 L279.76,338.81 L281.39,340.01 L284.07,341.57 Z M284.01,343.76 L283.85,343.27 L283.64,343.46 L284.01,343.76 Z M283.14,352.27 L282.70,351.24 L282.70,352.22 L283.14,352.27 Z M304.47,299.82 L304.79,297.96 L304.36,298.13 L304.47,299.82 Z M288.65,251.67 L287.87,251.35 L290.39,254.23 L288.65,251.67 Z M339.27,38.52 L338.89,39.84 L339.27,40.61 L339.27,38.52 Z M368.89,98.86 L369.12,99.18 L370.04,97.99 L368.89,98.86 Z M370.80,98.65 L371.31,98.39 L370.04,97.99 L370.80,98.65 Z M330.98,110.13 L332.12,112.82 L334.03,114.84 L330.98,110.13 Z M338.94,140.94 L342.10,141.59 L341.62,141.19 L338.94,140.94 Z M345.56,150.77 L345.65,150.94 L346.57,151.06 L345.56,150.77 Z M348.07,151.26 L351.11,151.68 L349.31,151.06 L348.07,151.26 Z M354.93,151.64 L361.64,151.80 L361.95,151.75 L354.93,151.64 Z M362.29,159.07 L358.58,160.72 L362.78,159.25 L362.29,159.07 Z M357.27,159.90 L351.79,160.64 L352.36,160.76 L357.27,159.90 Z M307.36,210.70 L302.71,211.96 L302.71,211.96 L307.36,210.70 Z M321.52,108.08 L323.40,108.11 L325.63,107.36 L321.52,108.08 Z M260.23,172.29 L254.01,170.55 L249.81,169.97 L260.23,172.29 Z M291.76,125.74 L288.54,122.23 L288.16,122.29 L291.76,125.74 Z M304.41,144.08 L303.70,144.29 L306.60,144.74 L304.41,144.08 Z M268.58,174.64 L266.77,175.54 L266.99,175.72 L268.58,174.64 Z M283.98,170.33 L282.02,170.70 L283.52,170.64 L283.98,170.33 Z M291.10,163.90 L285.48,169.33 L286.69,168.53 L291.10,163.90 Z M315.94,173.02 L315.94,173.02 L318.49,169.69 L315.94,173.02 Z M264.30,178.71 L262.36,179.64 L263.72,179.35 L264.30,178.71 Z M314.08,104.86 L315.62,105.67 L314.94,105.22 L314.08,104.86 Z M319.09,107.49 L320.18,108.07 L321.28,108.08 L319.09,107.49 Z M347.29,262.90 L349.96,263.11 L350.23,262.69 L347.29,262.90 Z M409.26,244.60 L414.39,244.69 L415.37,244.22 L409.26,244.60 Z M438.44,267.86 L438.71,268.02 L440.19,266.99 L438.44,267.86 Z M459.05,269.42 L458.68,269.26 L459.19,270.89 L459.05,269.42 Z M459.36,272.69 L458.91,273.12 L459.39,272.98 L459.36,272.69 Z M456.46,273.89 L456.22,273.68 L453.17,274.92 L456.46,273.89 Z M418.40,426.46 L418.53,425.91 L417.60,425.41 L418.40,426.46 Z M414.73,370.93 L414.93,370.53 L413.46,369.04 L414.73,370.93 Z M397.51,328.83 L395.13,326.91 L397.20,328.90 L397.51,328.83 Z M369.72,160.93 L369.60,160.85 L369.54,161.04 L369.72,160.93 Z M417.17,147.49 L417.22,148.71 L421.59,158.00 L417.17,147.49 Z M418.09,142.84 L417.06,144.62 L417.09,145.31 L418.09,142.84 Z M347.13,117.23 L344.28,117.32 L344.94,117.52 L347.13,117.23 Z M347.29,115.58 L348.11,116.12 L348.26,115.96 L347.94,115.75 L347.29,115.58 Z M379.20,100.26 L373.04,103.98 L380.51,100.05 L379.20,100.26 Z M383.24,101.58 L383.89,102.33 L385.53,103.19 L383.24,101.58 Z M383.42,105.23 L383.73,105.13 L385.53,103.19 L383.42,105.23 Z M382.80,105.42 L383.28,105.28 L381.55,104.68 L382.80,105.42 Z M387.66,126.73 L387.65,126.66 L387.55,126.76 L387.66,126.73 Z M376.20,134.83 L379.31,130.78 L379.21,130.48 L376.20,134.83 Z M380.51,128.59 L379.47,130.10 L380.02,130.08 L381.06,128.06 L380.56,127.64 L380.51,128.59 Z M389.07,146.19 L375.00,145.57 L374.54,145.89 L389.07,146.19 Z M350.73,116.78 L351.31,116.79 L350.84,115.83 L350.73,116.78 Z M391.91,105.42 L388.47,100.10 L388.47,100.22 L387.93,99.68 L391.91,105.42 Z M372.11,96.54 L373.91,96.79 L374.46,96.31 L372.11,96.54 Z M375.60,96.19 L376.26,96.50 L377.07,96.05 L375.60,96.19 Z M378.13,96.88 L378.49,97.16 L379.15,96.79 L378.13,96.88 Z M389.67,97.70 L388.47,98.65 L388.47,99.32 L389.67,97.70 Z M905.33,673.17 L906.64,672.22 L906.91,673.83 L904.56,676.10 L902.55,675.19 L899.76,675.03 L900.64,673.42 L905.33,673.17 Z M979.35,980.77 L979.02,980.48 L979.35,980.15 L979.62,980.52 L979.35,980.77 Z M978.97,975.81 L980.77,977.47 L978.37,980.36 L977.11,980.31 L976.62,979.28 L978.21,978.58 L977.77,976.35 L978.97,975.81 Z M978.15,974.45 L977.33,974.70 L977.82,974.08 L978.15,974.45 Z M976.84,973.79 L977.39,973.67 L977.17,973.95 L976.84,973.79 Z M975.86,951.94 L974.71,952.89 L975.15,951.53 L975.86,951.94 Z M974.44,951.36 L973.51,951.07 L974.22,950.74 L974.66,951.20 L974.44,951.36 Z M971.77,950.87 L971.60,950.54 L972.42,950.29 L972.53,950.79 L971.77,950.87 Z" /></g></svg>