<svg xmlns="http://www.w3.org/2000/svg" viewBox="0 0 1000 1000" width="1000" height="1000"><g fill="#cccccc" stroke="#222" stroke-width="2"><path d="M713.83,921.68 L714.37,918.08 L716.00,916.25 L716.16,914.36 L711.18,913.88 L708.85,916.62 L702.03,914.31 L700.73,912.53 L700.68,908.98 L702.57,907.91 L706.09,903.12 L708.96,901.99 L709.93,900.21 L708.36,898.38 L708.96,894.72 L707.44,891.76 L703.44,890.79 L703.38,887.67 L704.79,886.22 L704.47,882.94 L708.80,879.33 L709.45,874.49 L710.42,873.47 L709.34,872.12 L709.12,869.43 L711.02,868.41 L710.10,865.99 L708.80,862.70 L706.90,862.27 L707.06,861.36 L704.57,860.93 L702.08,856.78 L699.92,856.14 L698.84,856.68 L696.18,854.09 L696.02,852.16 L689.42,851.08 L683.79,848.17 L678.37,848.12 L677.45,854.31 L674.15,858.56 L677.40,862.65 L675.94,866.47 L674.58,867.49 L674.26,869.75 L672.15,872.01 L671.55,875.51 L664.95,886.60 L662.89,893.86 L659.86,887.67 L652.82,889.56 L649.52,890.85 L647.35,890.74 L645.78,891.87 L648.33,896.44 L646.87,900.59 L648.27,904.62 L646.60,908.23 L646.27,911.24 L641.72,914.74 L632.58,915.22 L632.79,918.83 L629.17,922.17 L628.41,921.31 L628.35,918.35 L626.30,914.85 L627.00,907.37 L625.38,906.78 L620.77,909.47 L620.72,910.27 L623.75,912.59 L622.18,914.69 L616.71,910.60 L611.14,909.36 L608.43,908.82 L605.35,906.78 L600.91,907.04 L600.42,905.75 L601.02,903.76 L603.99,901.77 L599.34,897.20 L598.20,897.20 L596.36,899.83 L594.79,900.32 L593.44,895.26 L593.98,888.59 L593.38,887.24 L591.81,886.86 L587.59,889.12 L586.45,888.86 L586.67,884.55 L588.29,881.70 L585.75,878.47 L587.75,876.64 L588.08,873.79 L589.00,872.66 L582.66,868.78 L581.85,867.55 L582.12,864.16 L579.09,862.43 L579.31,852.75 L586.72,844.73 L592.73,842.31 L592.79,841.02 L587.21,834.77 L587.54,832.67 L590.13,829.34 L589.76,827.51 L589.81,829.02 L584.34,830.58 L582.45,829.02 L579.79,824.06 L576.76,824.33 L576.72,824.16 L570.48,825.52 L570.32,829.66 L568.70,830.20 L566.75,826.16 L566.69,822.67 L567.99,820.03 L560.20,817.07 L552.35,817.28 L548.40,819.65 L545.96,819.97 L544.01,817.39 L543.79,815.62 L544.99,813.30 L548.61,811.63 L548.29,808.62 L546.39,806.25 L541.52,803.78 L537.89,799.79 L534.38,797.80 L534.32,795.44 L535.89,792.31 L535.40,788.01 L534.16,786.72 L534.97,784.51 L532.75,783.87 L530.91,780.85 L527.55,769.82 L527.34,713.53 L527.01,676.67 L525.17,676.56 L523.33,674.84 L520.95,674.30 L515.97,666.50 L509.85,664.72 L508.12,660.63 L509.58,658.16 L510.50,658.05 L508.34,655.47 L508.39,651.43 L510.29,648.47 L509.96,647.29 L513.21,647.66 L512.13,645.94 L512.67,645.30 L513.26,646.16 L513.53,645.46 L514.67,646.00 L516.40,645.40 L519.27,646.26 L525.39,645.24 L526.47,606.55 L526.20,602.35 L525.50,600.52 L524.09,601.38 L522.63,607.95 L519.70,609.08 L515.97,617.15 L508.17,620.97 L502.98,619.95 L500.76,617.85 L498.70,617.15 L495.83,617.69 L492.58,615.38 L488.14,615.48 L486.30,614.51 L483.81,614.51 L480.02,611.18 L479.05,608.92 L479.43,606.93 L478.02,604.94 L466.60,608.06 L463.73,604.02 L460.27,602.30 L460.27,595.36 L458.05,590.30 L457.94,588.09 L453.17,585.08 L446.57,577.49 L449.28,571.79 L452.74,567.86 L453.01,565.06 L454.64,563.77 L450.95,561.78 L449.38,557.69 L441.97,552.47 L439.86,549.62 L433.14,547.95 L430.65,545.80 L428.70,537.83 L426.43,535.46 L422.10,533.36 L420.21,527.07 L417.88,526.05 L421.18,521.74 L420.80,519.64 L418.42,518.73 L415.28,515.82 L411.33,514.64 L408.08,509.42 L405.86,508.29 L404.78,503.87 L402.83,502.10 L405.10,498.98 L392.92,493.54 L395.36,488.48 L398.55,487.35 L404.67,489.24 L406.78,484.34 L409.32,483.43 L409.43,479.39 L409.38,478.64 L406.40,479.23 L403.80,477.72 L400.66,478.74 L398.55,477.13 L395.47,477.13 L395.52,475.46 L399.91,474.33 L400.50,470.19 L396.33,469.76 L396.06,467.93 L393.57,466.85 L394.76,465.83 L394.28,461.79 L395.25,460.02 L395.30,456.25 L393.79,448.02 L392.43,446.62 L390.86,447.16 L384.96,445.70 L377.44,446.19 L377.22,451.62 L380.47,456.90 L379.39,461.42 L377.66,464.27 L373.81,465.67 L369.81,468.90 L364.93,470.03 L363.74,474.17 L361.47,471.05 L356.11,470.67 L342.63,460.50 L337.33,458.29 L321.79,444.95 L317.62,444.14 L317.51,442.26 L316.54,441.40 L310.31,437.79 L307.34,437.31 L305.82,435.48 L307.17,433.86 L305.39,432.30 L305.77,430.20 L302.08,428.05 L301.38,425.20 L300.08,424.02 L288.39,416.80 L286.98,414.71 L284.92,414.60 L278.70,411.58 L211.68,334.09 L153.70,267.74 L145.04,267.58 L142.87,263.65 L140.17,260.48 L137.73,260.21 L137.19,256.28 L134.59,254.02 L131.40,253.05 L129.99,250.47 L127.18,250.63 L124.47,252.89 L122.47,248.69 L118.51,248.80 L115.59,244.66 L111.64,244.49 L109.26,234.81 L110.83,242.02 L110.23,242.29 L110.23,241.37 L107.58,242.66 L103.68,242.34 L97.51,245.41 L94.15,245.19 L90.15,217.00 L85.38,215.65 L82.57,213.50 L80.89,203.92 L77.21,199.99 L76.99,198.48 L73.42,198.21 L72.07,196.98 L68.44,196.44 L66.49,193.42 L62.43,192.13 L61.67,184.44 L58.97,179.65 L58.42,176.53 L55.12,171.42 L58.32,161.89 L57.94,156.83 L57.77,158.18 L55.01,159.25 L52.20,153.33 L48.14,150.86 L47.00,148.92 L43.59,146.39 L38.34,145.96 L35.85,142.89 L32.87,142.03 L24.70,136.76 L22.75,135.09 L21.34,130.57 L19.23,128.79 L23.78,124.65 L26.11,119.16 L26.27,110.88 L28.27,105.39 L27.13,101.78 L28.00,98.23 L27.13,94.25 L31.19,88.49 L34.77,87.41 L35.31,83.97 L34.71,82.62 L35.80,80.26 L35.53,71.43 L41.26,70.84 L69.79,71.05 L73.26,67.99 L73.53,65.73 L78.78,63.57 L77.91,56.20 L80.19,52.76 L82.19,51.30 L83.33,49.04 L87.93,47.48 L92.69,48.94 L97.62,53.56 L103.52,54.86 L108.39,58.30 L114.40,54.10 L118.89,54.59 L122.19,53.35 L125.28,53.62 L126.20,52.86 L124.52,50.39 L129.50,47.21 L131.78,49.31 L135.89,50.50 L138.98,47.38 L139.73,45.44 L138.98,43.02 L127.61,38.77 L131.40,34.68 L133.56,34.89 L136.87,32.95 L138.87,33.55 L141.90,31.66 L144.93,31.72 L146.99,32.79 L148.67,31.02 L158.84,31.50 L167.99,21.76 L169.89,21.33 L171.57,19.23 L178.17,19.55 L181.36,20.58 L184.88,24.07 L191.97,19.34 L193.38,20.20 L196.30,25.42 L199.61,27.89 L200.20,30.42 L201.83,31.98 L201.45,35.54 L202.42,36.29 L208.32,35.48 L211.19,37.69 L215.69,33.55 L221.37,32.90 L224.89,36.45 L226.73,39.68 L237.45,48.77 L238.80,52.60 L241.51,54.37 L256.07,55.34 L259.91,58.41 L266.30,68.20 L270.96,73.80 L268.95,73.53 L266.63,74.71 L264.14,78.10 L261.10,79.72 L258.07,82.62 L257.59,84.13 L254.88,85.80 L255.47,90.05 L253.58,95.91 L257.15,96.88 L261.59,100.38 L263.54,100.70 L266.95,101.46 L271.17,103.39 L279.94,103.83 L288.82,106.46 L293.15,106.30 L295.21,107.59 L299.70,109.91 L303.27,109.48 L304.47,110.77 L317.57,111.90 L319.57,112.87 L322.28,113.24 L324.98,111.04 L327.36,109.64 L329.96,110.07 L332.02,108.51 L333.86,109.53 L334.40,111.25 L336.73,112.27 L341.71,107.22 L348.21,106.19 L349.61,104.90 L356.71,106.35 L358.93,104.63 L359.79,106.03 L361.52,106.14 L361.90,107.11 L363.20,107.32 L365.85,110.12 L368.83,110.93 L369.26,112.44 L371.21,113.40 L374.95,110.82 L377.71,110.50 L382.42,115.45 L386.43,110.12 L383.02,102.75 L383.29,101.62 L384.15,101.94 L385.40,97.91 L389.24,96.51 L390.05,91.99 L392.27,90.91 L394.33,87.47 L404.18,87.04 L407.21,78.64 L411.17,74.55 L412.25,72.13 L417.55,72.94 L424.64,72.29 L431.95,74.87 L434.82,74.71 L437.75,76.49 L445.54,77.13 L450.79,81.87 L454.74,81.01 L457.78,83.54 L464.43,81.87 L466.44,83.38 L469.31,83.97 L469.47,93.01 L472.61,94.35 L476.83,92.04 L482.35,90.75 L488.31,92.31 L495.02,89.03 L501.79,87.90 L505.47,88.81 L502.76,89.51 L502.71,93.39 L505.68,98.12 L508.07,98.66 L504.01,101.94 L500.43,108.35 L497.94,109.53 L496.48,108.61 L490.96,109.21 L489.17,112.81 L484.46,117.33 L482.68,121.31 L482.14,124.49 L480.40,125.67 L478.29,130.62 L476.40,132.40 L476.39,132.40 L476.67,132.56 L472.45,138.59 L470.50,144.56 L469.47,152.31 L470.28,162.97 L477.05,188.58 L482.84,203.11 L493.50,222.86 L495.56,225.34 L497.08,227.17 L499.40,235.13 L502.22,241.10 L510.12,253.10 L518.89,266.40 L521.71,270.27 L524.25,270.59 L525.50,271.99 L525.61,272.91 L536.87,294.70 L541.36,301.59 L552.56,318.76 L553.59,320.05 L565.83,335.65 L568.43,338.99 L569.13,342.17 L570.16,342.33 L573.19,348.57 L583.69,362.72 L600.85,381.77 L629.33,410.24 L648.33,427.57 L662.24,438.98 L679.62,452.97 L709.83,475.14 L735.92,495.05 L765.42,516.41 L790.87,534.33 L813.66,548.06 L822.05,551.55 L829.41,557.20 L831.30,559.25 L833.79,559.41 L832.22,561.56 L833.63,564.52 L830.92,566.84 L831.03,569.63 L832.12,571.25 L831.84,576.52 L832.93,581.63 L830.49,582.71 L829.52,585.24 L830.22,589.60 L831.57,591.43 L830.44,591.75 L830.00,592.94 L831.20,597.03 L833.41,603.32 L837.91,611.23 L851.01,629.21 L867.30,647.66 L875.86,655.20 L879.27,657.67 L888.14,668.65 L895.45,675.81 L911.75,689.53 L914.02,691.52 L937.68,711.76 L960.31,728.92 L980.77,743.56 L979.15,745.01 L970.65,748.46 L963.07,761.59 L962.31,761.10 L960.41,762.29 L963.99,764.87 L963.88,767.29 L961.71,767.61 L959.17,769.66 L958.74,770.90 L956.41,771.76 L955.38,773.70 L952.67,775.58 L951.05,779.99 L945.80,783.00 L942.82,781.07 L946.23,783.76 L949.70,783.97 L948.40,785.48 L945.04,785.59 L942.71,787.20 L943.09,788.66 L944.82,790.22 L945.96,789.95 L948.45,793.82 L949.15,796.40 L948.18,799.04 L946.77,798.56 L946.56,794.84 L945.20,791.99 L942.44,792.58 L941.58,793.77 L936.54,798.88 L937.30,800.82 L939.19,801.57 L940.17,800.66 L939.79,798.56 L941.09,798.72 L941.36,800.23 L938.44,807.01 L943.80,809.59 L948.07,816.05 L945.80,818.41 L946.45,818.90 L942.01,822.61 L941.74,823.96 L934.16,828.21 L930.64,829.07 L926.36,833.21 L923.71,833.91 L916.94,838.81 L914.45,836.39 L908.88,834.83 L906.50,833.11 L904.60,830.68 L903.95,827.83 L902.76,827.51 L899.57,829.88 L896.27,829.93 L895.02,830.90 L893.83,831.71 L891.01,831.38 L887.93,832.78 L885.28,831.76 L881.87,831.92 L879.92,829.93 L873.85,830.63 L872.55,831.71 L869.74,831.01 L866.98,833.54 L864.87,832.30 L862.38,832.30 L855.18,834.93 L853.50,834.18 L846.35,835.80 L844.19,837.63 L838.02,840.48 L836.93,841.88 L837.58,843.17 L836.12,846.83 L832.71,846.13 L829.73,847.10 L825.19,846.13 L822.80,847.31 L820.21,847.20 L817.39,849.79 L811.76,849.57 L810.46,851.62 L803.32,849.47 L803.42,849.57 L802.77,850.76 L803.80,854.36 L800.50,861.63 L801.91,864.37 L806.73,868.73 L808.89,869.59 L810.57,868.73 L812.14,870.99 L813.93,870.72 L814.63,872.55 L815.93,873.03 L821.72,872.01 L821.51,874.27 L823.51,879.17 L824.43,879.22 L825.94,876.80 L827.57,877.23 L837.64,883.96 L839.91,887.13 L843.75,898.49 L837.58,905.38 L826.97,906.78 L818.64,901.82 L802.34,902.20 L801.10,903.28 L800.77,906.94 L797.25,910.44 L797.52,914.15 L790.65,904.84 L797.42,914.47 L802.02,920.71 L805.32,922.65 L803.53,924.05 L804.45,925.40 L800.83,929.16 L801.91,930.18 L799.91,933.90 L800.01,935.84 L799.04,935.62 L797.47,937.72 L794.87,938.58 L791.41,944.66 L789.89,943.42 L786.48,944.12 L785.94,944.93 L778.90,949.13 L780.25,950.90 L781.45,951.01 L781.39,952.14 L783.23,952.30 L781.61,955.05 L783.02,955.96 L782.20,957.63 L783.23,962.20 L781.93,967.75 L782.74,969.58 L782.20,970.81 L784.37,975.12 L781.50,979.10 L780.09,979.26 L777.60,978.83 L776.57,975.82 L772.41,973.34 L767.32,976.63 L753.89,980.77 L751.94,979.96 L750.37,977.86 L750.26,973.18 L752.92,965.81 L751.78,960.37 L752.10,955.80 L750.26,951.60 L749.02,950.20 L744.04,949.93 L736.68,947.51 L731.05,943.48 L728.99,943.58 L723.20,937.23 L714.81,932.77 L714.16,927.66 L711.40,923.57 L713.83,921.68 Z M712.90,891.25 L711.12,891.12 L707.44,891.76 L712.90,891.25 Z M591.43,826.97 L592.57,826.49 L589.76,827.51 L591.43,826.97 Z M507.83,253.35 L508.28,253.62 L508.34,253.32 L510.12,253.10 L507.83,253.35 Z M600.15,628.94 L604.09,629.62 L603.94,629.26 L600.15,628.94 Z M613.95,636.20 L616.44,636.79 L614.49,636.09 L613.95,636.20 Z M644.78,643.41 L646.16,643.31 L646.33,642.83 L644.78,643.41 Z M646.71,641.77 L646.81,641.48 L645.73,637.87 L646.71,641.77 Z M667.33,591.21 L667.42,587.74 L667.17,588.25 L667.33,591.21 Z M667.72,587.15 L669.71,586.59 L667.98,586.64 L667.72,587.15 Z M687.40,587.92 L687.85,588.25 L689.69,588.20 L687.40,587.92 Z M692.94,565.92 L696.71,563.47 L695.64,563.72 L692.94,565.92 Z M703.22,561.94 L700.81,562.50 L701.00,562.48 L703.72,562.01 L703.22,561.94 Z M707.75,561.32 L710.10,560.92 L710.54,560.38 L707.75,561.32 Z M711.28,559.47 L713.18,557.15 L711.72,558.23 L711.28,559.47 Z M749.45,535.41 L752.92,531.16 L755.30,527.39 L749.45,535.41 Z M801.42,565.11 L806.93,568.06 L806.73,567.91 L801.42,565.11 Z M811.33,594.77 L811.41,594.83 L814.20,587.29 L811.33,594.77 Z M797.69,603.59 L797.50,604.47 L800.34,600.68 L797.69,603.59 Z M799.58,615.70 L799.96,613.49 L799.47,611.39 L799.58,615.70 Z M802.77,622.26 L805.05,622.91 L801.64,621.30 L802.77,622.26 Z M821.13,632.92 L819.34,635.56 L819.61,636.63 L819.88,634.96 L821.13,632.92 Z M806.40,666.18 L807.03,668.92 L807.16,668.65 L806.40,666.18 Z M796.66,680.92 L797.37,681.67 L795.09,677.05 L796.66,680.92 Z M799.53,708.53 L804.56,704.06 L803.26,705.14 L799.53,708.53 Z M805.33,732.55 L805.60,732.31 L804.84,732.29 L805.33,732.55 Z M778.19,745.44 L778.74,745.23 L779.33,742.86 L778.19,745.44 Z M774.30,746.63 L772.35,747.70 L775.73,746.39 L774.30,746.63 Z M771.26,768.38 L771.26,768.38 L773.22,764.55 L771.26,768.38 Z M772.51,769.01 L778.31,769.77 L771.58,768.54 L772.51,769.01 Z M801.48,774.56 L800.23,776.49 L802.07,774.13 L801.62,773.61 L801.48,774.56 Z M800.66,721.07 L794.11,721.55 L803.15,720.90 L806.19,719.51 L800.66,721.07 Z M808.51,719.61 L808.60,719.51 L806.19,719.51 L808.51,719.61 Z M718.11,891.65 L716.19,891.51 L722.38,892.84 L718.11,891.65 Z M744.69,897.57 L742.69,899.62 L746.37,896.44 L744.69,897.57 Z M751.46,901.39 L750.91,900.13 L751.78,905.00 L751.46,901.39 Z M751.02,910.17 L753.15,919.02 L753.30,918.67 L750.59,906.78 L751.02,910.17 Z M762.34,538.42 L761.15,536.70 L763.91,542.62 L762.34,538.42 Z M720.78,588.82 L718.87,588.25 L719.89,588.95 L720.78,588.82 Z M723.52,588.31 L722.28,588.72 L720.76,590.84 L723.52,588.31 Z M732.72,611.93 L731.91,609.08 L732.71,611.99 L732.72,611.93 Z M732.07,613.98 L732.25,613.44 L729.15,616.08 L732.07,613.98 Z M742.47,629.18 L740.68,626.52 L741.87,629.10 L742.47,629.18 Z M743.82,629.96 L743.69,629.55 L742.58,630.61 L743.82,629.96 Z M742.90,638.62 L742.46,638.65 L742.63,639.02 L742.90,638.62 Z M741.39,640.88 L742.09,639.83 L740.47,640.88 L741.39,640.88 Z M750.97,642.23 L746.68,644.19 L749.07,643.63 L750.97,642.23 Z M752.48,644.78 L752.27,643.68 L749.78,640.29 L750.97,642.23 L752.48,644.78 Z M744.47,658.27 L748.90,657.65 L744.04,657.78 L743.12,658.53 L744.47,658.27 Z M737.76,668.17 L737.06,669.24 L738.41,668.01 L738.30,667.09 L737.76,668.17 Z M778.09,702.62 L776.30,702.28 L773.81,702.98 L778.09,702.62 Z M552.84,785.91 L553.00,782.14 L552.59,781.63 L552.84,785.91 Z M557.44,776.60 L561.66,778.11 L562.62,777.89 L557.44,776.60 Z M564.76,777.40 L565.67,777.19 L567.78,775.20 L564.76,777.40 Z M585.42,786.56 L589.85,788.30 L588.56,787.42 L585.42,786.56 Z M590.63,788.85 L593.27,791.29 L597.01,793.26 L590.63,788.85 Z M598.28,793.94 L601.12,795.44 L601.88,795.22 L598.28,793.94 Z M607.68,798.41 L608.43,798.83 L610.87,798.77 L607.68,798.41 Z M611.70,797.17 L611.79,797.00 L610.81,794.36 L611.70,797.17 Z M616.40,790.17 L615.63,788.17 L615.88,790.40 L616.39,790.16 L616.40,790.17 Z M632.03,807.22 L637.14,809.04 L629.44,800.98 L636.91,808.84 L632.03,807.22 Z M650.70,781.58 L653.53,781.66 L655.17,781.30 L650.70,781.58 Z M701.49,775.96 L704.20,778.81 L707.93,781.18 L701.49,775.96 Z M597.71,829.34 L597.01,830.90 L598.20,829.34 L604.15,823.15 L597.71,829.34 Z M630.41,842.41 L633.60,850.76 L628.35,836.76 L630.41,842.41 Z M642.54,851.29 L642.36,850.63 L640.75,853.93 L642.54,851.29 Z M640.41,843.38 L640.32,844.73 L641.70,848.18 L640.41,843.38 Z M669.87,843.81 L676.10,842.09 L666.90,844.08 L669.87,843.81 Z M644.27,875.73 L643.84,879.92 L644.41,881.59 L644.27,875.73 Z M645.02,883.34 L645.73,885.41 L647.19,886.65 L645.02,883.34 Z M547.42,706.37 L545.31,706.37 L542.55,707.34 L547.42,706.37 Z M549.26,707.56 L550.26,707.99 L547.42,706.37 L549.26,707.56 Z M574.27,749.63 L575.23,749.26 L574.44,749.16 L574.27,749.63 Z M652.44,701.32 L654.77,698.68 L651.85,701.42 L652.44,701.32 Z M692.29,727.47 L692.72,725.91 L692.29,727.47 L692.29,727.47 Z M586.37,771.71 L585.73,771.20 L586.07,771.65 L586.37,771.71 Z M647.30,745.01 L658.09,748.67 L657.21,747.97 L647.30,745.01 Z M658.92,749.33 L660.08,751.95 L659.64,749.91 L658.92,749.33 Z M574.14,749.98 L574.06,750.23 L576.22,752.44 L574.14,749.98 Z M676.91,660.91 L676.32,659.61 L676.70,661.06 L676.91,660.91 Z M678.95,660.77 L677.83,660.26 L678.54,661.06 L678.95,660.77 Z M679.06,660.70 L679.46,660.42 L678.18,659.21 L677.72,659.14 L679.06,660.70 Z M552.78,709.09 L553.11,709.23 L559.39,708.69 L552.78,709.09 Z M581.91,675.81 L583.58,676.29 L581.75,675.18 L578.50,680.92 L581.91,675.81 Z M680.27,707.72 L682.65,707.18 L682.59,706.72 L680.27,707.72 Z M540.36,669.48 L538.87,668.54 L538.42,668.93 L540.36,669.48 Z M758.73,657.77 L758.73,657.77 L765.96,653.69 L758.73,657.77 Z M781.12,652.99 L780.85,651.54 L780.63,650.62 L781.12,652.99 Z M777.64,733.70 L777.82,733.50 L777.44,731.51 L777.64,733.70 Z M776.25,734.73 L776.19,735.43 L776.90,734.59 L776.25,734.73 Z M763.80,960.64 L764.20,960.95 L765.10,959.67 L763.80,960.64 Z M721.19,809.00 L724.26,814.69 L724.33,813.68 L721.19,809.00 Z M724.64,815.40 L724.88,815.83 L725.77,816.13 L724.64,815.40 Z M733.64,817.55 L734.73,818.20 L737.06,818.15 L733.64,817.55 Z M769.32,767.40 L766.67,767.56 L766.30,767.91 L769.32,767.40 Z M752.32,769.39 L750.26,770.52 L754.65,769.23 L752.32,769.39 Z M778.74,713.59 L776.44,713.11 L776.47,713.42 L778.74,713.59 Z M776.43,712.93 L776.55,711.75 L776.36,711.97 L776.43,712.93 Z M788.92,729.89 L788.79,728.88 L785.67,736.56 L788.92,729.89 Z M790.76,725.92 L789.78,726.45 L789.13,728.06 L790.76,725.92 Z M787.73,672.36 L787.91,672.63 L787.94,671.72 L787.18,672.35 L787.73,672.36 Z M765.91,663.00 L764.18,660.42 L763.40,660.04 L765.91,663.00 Z M767.59,666.82 L774.62,666.28 L766.23,666.82 L767.59,666.82 Z M775.87,663.75 L775.38,667.20 L776.46,663.38 L775.87,663.75 Z M776.68,661.12 L776.82,662.09 L777.19,660.77 L776.68,661.12 Z M771.32,581.85 L773.22,581.80 L775.79,581.41 L775.33,581.15 L771.32,581.85 Z M795.85,596.22 L790.49,593.04 L787.56,591.32 L795.85,596.22 Z M794.60,598.10 L793.30,599.88 L795.95,597.13 L794.60,598.10 Z M789.78,637.55 L787.52,638.14 L787.67,638.19 L789.78,637.55 Z M795.85,632.60 L792.76,635.83 L797.29,631.85 L795.85,632.60 Z M800.23,630.32 L799.36,630.77 L800.12,630.66 L800.23,630.32 Z M751.83,634.43 L755.95,625.22 L755.08,627.00 L751.83,634.43 Z M788.97,620.22 L791.51,619.49 L785.88,620.00 L788.97,620.22 Z M787.24,596.81 L786.21,597.67 L789.79,596.09 L787.24,596.81 Z M792.38,595.36 L791.99,595.47 L794.33,596.38 L792.38,595.36 Z M768.85,564.85 L768.85,564.85 L769.64,564.31 L768.85,564.85 Z M779.33,561.35 L778.79,563.02 L778.31,564.68 L779.33,561.35 Z M789.57,575.18 L789.53,574.58 L788.81,575.39 L789.57,575.18 Z M786.91,555.37 L787.02,555.55 L786.26,550.37 L786.91,555.37 Z M787.56,556.45 L787.89,556.99 L792.11,558.17 L787.56,556.45 Z M784.04,537.08 L769.32,524.32 L785.35,538.68 L784.04,537.08 Z M822.21,648.04 L823.67,653.74 L823.29,650.89 L822.21,648.04 Z M868.80,686.17 L869.39,685.07 L868.93,685.23 L868.80,686.17 Z M872.28,688.72 L868.70,686.97 L868.66,687.27 L872.28,688.72 Z M871.20,692.11 L871.24,691.58 L870.78,691.72 L871.20,692.11 Z M868.71,706.00 L871.85,704.38 L868.29,706.08 L868.71,706.00 Z M872.01,721.60 L869.04,722.57 L870.44,722.63 L872.01,721.60 Z M871.80,719.34 L871.31,719.88 L872.31,719.33 L871.80,719.34 Z M870.71,773.59 L870.17,769.34 L870.50,777.14 L870.71,773.59 Z M880.19,777.30 L878.40,779.40 L884.46,774.02 L880.19,777.30 Z M907.63,763.26 L904.93,765.46 L904.74,765.65 L907.63,763.26 Z M882.57,799.20 L883.02,797.72 L881.68,799.77 L882.57,799.20 Z M876.02,800.12 L884.84,801.25 L880.35,800.60 L880.52,800.49 L876.02,800.12 Z M867.05,803.79 L867.85,802.97 L867.14,803.18 L867.05,803.79 Z M867.90,806.90 L866.88,804.96 L866.76,805.77 L867.90,806.90 Z M825.08,687.54 L819.18,690.12 L819.05,690.53 L820.26,689.80 L825.08,687.54 Z M819.50,697.33 L819.39,697.32 L819.84,697.60 L819.50,697.33 Z M852.00,695.27 L856.48,697.06 L852.04,695.24 L852.00,695.27 Z M855.19,688.81 L856.37,691.84 L858.10,693.89 L855.19,688.81 Z M827.57,702.82 L828.49,703.63 L824.32,699.22 L827.57,702.82 Z M827.84,704.38 L829.57,702.45 L828.49,703.63 L827.84,704.38 Z M827.41,725.21 L824.86,725.26 L824.65,725.60 L827.41,725.21 Z M845.49,713.32 L846.97,712.16 L842.67,713.85 L839.10,717.89 L843.21,713.69 L845.49,713.32 Z M850.58,711.11 L850.47,710.79 L849.31,711.24 L850.58,711.11 Z M849.98,709.33 L848.41,708.10 L850.25,710.14 L849.98,709.33 Z M810.04,765.29 L809.22,764.65 L809.54,765.62 L810.04,765.29 Z M867.30,725.69 L866.45,726.02 L868.11,726.15 L867.30,725.69 Z M861.84,750.61 L860.86,750.82 L861.94,751.14 L861.84,750.61 Z M862.21,752.49 L862.05,751.65 L859.45,761.91 L862.21,752.49 Z M856.15,720.64 L859.24,722.84 L856.00,720.33 L856.15,720.64 Z M856.58,722.63 L855.88,723.06 L855.96,723.42 L856.58,722.63 Z M855.51,719.32 L856.48,717.33 L855.29,718.86 L855.51,719.32 Z M825.67,713.59 L823.45,712.89 L822.91,713.26 L825.67,713.59 Z M817.04,713.62 L816.96,713.59 L816.91,713.61 L817.04,713.62 Z M838.55,686.71 L838.23,687.54 L838.72,690.55 L838.55,686.71 Z M805.32,671.93 L803.63,671.42 L806.40,673.33 L805.32,671.93 Z M824.01,681.14 L824.03,680.25 L823.72,680.97 L824.01,681.14 Z M857.50,667.47 L853.61,670.75 L860.59,664.94 L857.50,667.47 Z M820.69,609.89 L819.96,610.37 L820.42,610.32 L820.69,609.89 Z M826.06,605.03 L822.86,606.44 L825.62,605.47 L826.06,605.03 Z M827.49,602.71 L827.09,603.96 L827.24,603.81 L827.49,602.71 Z M828.92,598.26 L828.84,598.53 L829.11,598.16 L828.92,598.26 Z M819.45,612.04 L818.09,612.25 L817.65,612.81 L819.45,612.04 Z M827.21,611.91 L828.87,606.71 L826.86,611.72 L827.21,611.91 Z M822.80,596.81 L823.75,595.71 L823.67,595.41 L823.91,594.85 L822.80,596.81 Z M816.09,598.21 L813.28,595.73 L812.46,595.58 L816.09,598.21 Z M827.03,582.60 L825.46,579.43 L827.35,584.43 L827.03,582.60 Z M906.88,751.79 L903.63,754.16 L901.79,756.15 L905.31,752.98 L906.88,751.79 Z M877.32,738.66 L879.75,737.48 L879.59,737.10 L877.32,738.66 Z M875.10,734.90 L875.75,735.92 L878.02,734.52 L875.53,735.54 L875.10,734.90 Z M884.38,731.79 L884.68,731.72 L885.87,729.68 L884.38,731.79 Z M891.93,730.91 L893.83,734.52 L893.88,733.44 L891.93,730.91 Z M906.88,733.17 L905.67,731.30 L905.58,731.72 L906.88,733.17 Z M912.83,728.55 L905.79,730.75 L905.73,731.02 L908.23,730.43 L912.83,728.55 Z M916.51,729.51 L912.77,728.45 L912.83,728.55 L916.51,729.51 Z M929.29,751.58 L927.93,748.94 L927.73,748.59 L927.83,749.48 L929.29,751.58 Z M928.58,754.48 L929.05,754.64 L929.29,751.58 L928.58,754.48 Z M931.99,755.67 L930.03,755.24 L928.64,755.56 L931.99,755.67 Z M928.69,771.54 L928.23,771.50 L930.32,775.74 L928.69,771.54 Z M870.23,811.04 L878.08,808.73 L875.59,809.05 L870.23,811.04 Z M884.90,816.85 L887.50,816.85 L888.88,816.06 L884.90,816.85 Z M890.17,815.32 L897.19,811.31 L890.36,814.59 L890.17,815.32 Z M909.61,765.70 L909.91,765.41 L907.31,764.17 L909.61,765.70 Z M931.55,766.99 L933.51,768.31 L938.33,769.71 L931.55,766.99 Z M879.55,741.76 L879.16,741.03 L877.97,740.98 L879.55,741.76 Z M880.24,742.11 L883.81,741.78 L880.08,742.03 L880.24,742.11 Z M884.88,737.38 L884.52,737.10 L883.81,741.78 L884.88,737.38 Z M888.63,741.35 L886.79,740.76 L888.61,741.71 L889.01,741.25 L888.63,741.35 Z M884.95,743.45 L887.50,742.97 L888.29,742.07 L884.95,743.45 Z M881.76,755.45 L886.20,760.19 L880.83,753.91 L881.76,755.45 Z M881.00,730.05 L880.17,730.09 L878.51,733.55 L881.00,730.05 Z M886.03,714.39 L884.73,713.53 L882.46,712.62 L886.03,714.39 Z M883.87,707.56 L883.06,706.37 L883.92,707.91 L883.87,707.56 Z M889.01,713.75 L891.25,713.13 L889.55,712.83 L889.01,713.75 Z M927.99,715.68 L930.42,714.18 L927.86,715.68 L927.99,715.68 Z M881.81,728.49 L876.02,728.92 L878.02,728.81 L881.81,728.49 Z M910.34,726.50 L910.07,727.68 L911.21,724.89 L910.34,726.50 Z M446.29,116.47 L446.35,116.04 L445.38,113.90 L446.29,116.47 Z M445.00,118.79 L445.97,118.52 L446.12,117.55 L445.00,118.79 Z M445.76,161.30 L447.11,161.67 L452.96,163.24 L445.76,161.30 Z M443.32,172.22 L449.71,168.29 L447.16,169.32 L443.32,172.22 Z M454.36,177.50 L450.47,169.10 L449.71,168.29 L454.36,177.50 Z M443.92,193.16 L450.79,196.17 L446.30,194.12 L443.92,193.16 Z M444.46,212.10 L446.57,211.29 L446.60,211.07 L444.46,212.10 Z M453.88,213.34 L452.36,213.01 L454.85,214.30 L454.22,214.58 L457.36,215.22 L453.88,213.34 Z M457.50,244.60 L452.20,234.97 L453.66,238.04 L457.50,244.60 Z M471.63,222.75 L474.88,223.40 L466.82,220.92 L471.63,222.75 Z M487.55,225.93 L491.50,226.41 L474.88,223.40 L487.55,225.93 Z M507.31,290.29 L510.12,293.68 L512.94,297.02 L507.31,290.29 Z M507.79,316.41 L507.96,316.12 L506.44,308.26 L507.79,316.41 Z M507.25,317.45 L501.73,323.76 L507.58,317.90 L508.66,318.76 L507.25,317.45 Z M497.21,327.03 L500.49,331.35 L498.54,328.55 L497.21,327.03 Z M513.14,337.04 L512.83,336.62 L508.61,336.51 L513.14,337.04 Z M515.65,338.33 L515.48,337.86 L514.94,337.79 L515.65,338.33 Z M516.73,341.36 L518.19,341.30 L518.27,341.51 L519.64,340.48 L516.73,341.36 Z M523.33,345.66 L521.22,344.32 L519.00,343.46 L523.33,345.66 Z M519.54,408.68 L523.39,408.89 L518.29,407.96 L519.54,408.68 Z M506.06,540.14 L505.45,540.22 L511.15,542.40 L506.06,540.14 Z M576.11,567.64 L576.53,567.58 L572.97,565.49 L576.11,567.64 Z M335.57,133.58 L339.38,135.31 L336.35,133.53 L335.57,133.58 Z M333.93,133.70 L334.94,135.25 L334.46,134.07 L334.98,133.63 L333.93,133.70 Z M324.53,161.77 L324.59,160.85 L324.12,161.30 L324.53,161.77 Z M328.54,166.02 L327.25,164.87 L328.12,165.87 L328.54,166.02 Z M328.83,170.07 L328.62,169.75 L326.34,175.24 L328.83,170.07 Z M319.46,172.28 L331.97,177.77 L326.34,175.24 L319.46,172.28 Z M310.56,169.77 L311.23,170.50 L319.46,172.28 L310.56,169.77 Z M367.13,207.99 L361.52,203.97 L366.77,208.01 L367.13,207.99 Z M373.95,227.45 L373.04,227.46 L373.54,227.54 L373.95,227.45 Z M420.77,232.03 L415.17,230.99 L419.34,232.28 L420.77,232.03 Z M457.90,253.52 L454.53,251.87 L456.64,253.32 L457.90,253.52 Z M462.86,264.40 L464.00,262.25 L461.78,266.18 L462.86,264.40 Z M438.81,286.76 L438.72,286.25 L438.01,286.50 L438.81,286.76 Z M436.18,335.82 L439.15,334.25 L437.10,335.12 L436.18,335.82 Z M448.90,373.92 L446.68,368.10 L447.60,371.55 L448.90,373.92 Z M454.53,379.19 L450.79,374.94 L448.90,373.92 L454.53,379.19 Z M384.23,425.11 L386.59,418.42 L383.99,424.28 L384.23,425.11 Z M75.91,163.83 L76.99,164.37 L78.08,164.24 L75.91,163.83 Z M134.69,155.41 L132.59,150.00 L130.64,147.20 L134.69,155.41 Z M117.53,137.06 L117.35,136.78 L117.21,137.03 L117.53,137.06 Z M144.51,116.35 L148.02,113.57 L145.20,115.40 L144.51,116.35 Z M149.26,117.76 L147.91,112.54 L148.02,113.57 L149.26,117.76 Z M234.42,153.82 L240.38,157.55 L238.75,156.29 L234.42,153.82 Z M276.05,148.76 L276.97,147.41 L278.10,143.70 L276.05,148.76 Z M369.26,238.68 L371.54,239.54 L379.01,241.00 L369.26,238.68 Z M369.43,245.86 L368.99,246.48 L369.43,248.10 L369.43,245.86 Z M362.88,265.48 L365.10,270.49 L362.73,265.05 L357.95,269.73 L362.88,265.48 Z M343.93,329.79 L341.60,332.59 L341.76,333.23 L343.93,329.79 Z M328.56,393.61 L331.42,394.85 L339.87,396.36 L328.56,393.61 Z M364.93,395.44 L372.62,400.18 L368.18,396.79 L364.93,395.44 Z M209.03,182.34 L206.59,178.79 L209.29,182.98 L209.03,182.34 Z M226.62,171.41 L226.35,172.11 L228.14,179.33 L226.62,171.41 Z M240.05,169.91 L242.53,167.98 L241.89,167.92 L240.05,169.91 Z M253.20,167.38 L245.19,161.24 L246.97,162.91 L253.20,167.38 Z M281.24,178.03 L286.66,179.54 L279.97,177.21 L281.24,178.03 Z M306.25,170.23 L306.35,169.73 L303.76,171.36 L306.25,170.23 Z M308.59,169.22 L307.61,168.94 L307.23,169.18 L308.59,169.22 Z M214.60,191.65 L214.13,191.01 L215.09,193.69 L214.60,191.65 Z M291.65,216.59 L291.26,216.67 L290.93,217.05 L291.65,216.59 Z M296.18,215.65 L293.63,216.18 L302.35,216.13 L296.18,215.65 Z M178.33,229.86 L179.42,231.31 L178.14,227.50 L178.33,229.86 Z M271.72,229.67 L271.44,230.13 L272.04,231.79 L271.72,229.67 Z M340.28,270.52 L340.41,270.65 L340.62,270.54 L340.28,270.52 Z M245.95,267.90 L251.14,263.81 L245.31,268.03 L245.95,267.90 Z M248.27,186.86 L245.72,185.19 L248.65,187.88 L248.27,186.86 Z M244.32,184.28 L244.31,184.54 L244.84,184.61 L244.32,184.28 Z M205.29,166.14 L209.08,170.07 L207.51,167.76 L205.29,166.14 Z M208.86,162.75 L212.22,162.81 L209.51,162.54 L208.86,162.75 Z M62.64,109.01 L62.43,108.88 L57.45,107.97 L62.64,109.01 Z M147.48,91.34 L144.61,90.43 L144.33,90.45 L147.48,91.34 Z M168.63,78.04 L168.48,78.05 L168.53,78.20 L168.63,78.04 Z M172.70,76.00 L174.22,73.96 L171.24,77.62 L172.70,76.00 Z M174.87,70.68 L174.47,70.44 L174.22,73.96 L174.87,70.68 Z M173.79,70.03 L172.00,70.78 L174.12,70.23 L173.79,70.03 Z M171.13,68.04 L171.97,66.45 L168.16,71.54 L171.13,68.04 Z M173.51,63.52 L173.84,61.80 L172.70,65.07 L173.51,63.52 Z M241.51,119.92 L244.81,125.30 L245.99,126.27 L241.51,119.92 Z M169.18,101.67 L167.45,103.23 L170.81,100.54 L169.18,101.67 Z M196.03,120.83 L195.64,120.69 L200.20,123.63 L196.03,120.83 Z M223.70,129.55 L221.21,128.15 L224.41,130.76 L223.70,129.55 Z M225.38,132.40 L225.17,132.06 L225.48,135.31 L225.38,132.40 Z M265.00,124.38 L265.11,127.77 L265.87,121.79 L265.00,124.38 Z M265.92,118.62 L266.12,119.86 L266.25,118.84 L265.92,118.62 Z M252.28,81.33 L249.09,80.79 L252.06,81.44 L252.28,81.33 Z M426.65,328.87 L415.37,327.29 L417.12,327.96 L426.65,328.87 Z M433.18,258.08 L435.04,256.23 L433.20,257.84 L433.18,258.08 Z M440.87,255.71 L441.16,255.69 L442.89,253.53 L440.87,255.71 Z M414.62,260.94 L415.17,261.12 L416.20,260.53 L414.62,260.94 Z M433.09,259.08 L435.47,262.09 L433.12,258.73 L433.09,259.08 Z M366.83,146.71 L370.17,147.21 L370.02,147.15 L366.83,146.71 Z M389.40,170.66 L385.23,172.76 L393.84,168.72 L389.40,170.66 Z M406.94,167.27 L407.81,168.19 L409.60,169.48 L406.94,167.27 Z M370.89,185.25 L365.90,184.76 L366.77,185.25 L370.89,185.25 Z M387.13,185.78 L381.07,181.69 L379.89,181.57 L387.13,185.78 Z M389.24,194.45 L388.16,189.66 L387.13,185.78 L389.24,194.45 Z M407.54,191.70 L406.57,191.52 L409.70,192.73 L418.20,196.49 L407.54,191.70 Z M433.36,197.89 L425.73,195.42 L425.51,195.50 L433.36,197.89 Z M389.94,204.30 L388.46,204.21 L396.77,206.23 L389.94,204.30 Z M404.89,209.68 L400.88,209.41 L405.31,210.00 L404.89,209.68 Z M420.86,199.24 L429.73,201.66 L438.56,204.56 L432.87,202.20 L420.86,199.24 Z M412.07,214.72 L413.28,215.65 L413.56,215.54 L412.07,214.72 Z M419.18,213.41 L422.48,212.15 L424.97,210.70 L419.18,213.41 Z M424.70,208.60 L424.70,208.65 L424.97,210.70 L424.70,208.60 Z M425.40,206.07 L426.92,206.45 L424.75,205.69 L424.75,206.07 L425.40,206.07 Z M425.84,216.62 L426.32,216.61 L423.24,214.30 L425.84,216.62 Z M420.12,206.05 L420.04,205.86 L419.89,205.98 L420.12,206.05 Z M410.41,181.05 L410.62,183.95 L410.62,182.18 L410.41,181.05 Z M427.08,189.28 L430.60,190.90 L426.59,188.85 L426.82,190.45 L427.08,189.28 Z M416.37,184.88 L416.25,184.76 L415.97,184.63 L416.37,184.88 Z M354.97,176.96 L353.12,175.89 L358.00,180.40 L354.97,176.96 Z M349.10,169.26 L348.75,169.32 L348.31,171.25 L349.10,169.26 Z M374.57,142.41 L375.65,140.31 L375.51,140.01 L374.57,142.41 Z M376.52,133.21 L384.59,133.15 L374.89,133.10 L376.52,133.21 Z M387.13,130.03 L387.59,128.97 L387.08,129.17 L384.59,133.15 L387.13,130.03 Z M389.51,128.20 L389.30,123.90 L388.97,124.01 L389.51,128.20 Z M400.45,124.60 L401.42,123.79 L402.34,122.88 L400.45,124.60 Z M436.32,121.30 L435.69,121.53 L435.26,124.38 L436.32,121.30 Z M382.20,117.82 L382.25,117.30 L379.01,118.25 L382.20,117.82 Z M473.80,294.70 L477.05,291.42 L474.72,293.30 L473.80,294.70 Z M498.54,544.40 L498.09,543.44 L498.38,550.69 L498.54,544.40 Z M493.88,322.63 L494.84,323.90 L493.72,320.64 L493.88,322.63 Z M480.08,266.50 L482.24,268.49 L485.44,269.68 L484.46,269.30 L480.08,266.50 Z M500.27,269.14 L493.07,269.46 L495.99,269.36 L500.27,269.14 Z M506.81,271.93 L505.52,271.19 L506.81,271.93 L506.81,271.93 Z M506.98,269.62 L506.97,270.13 L510.34,261.98 L506.98,269.62 Z M511.31,286.90 L512.40,285.66 L512.88,284.10 L511.31,286.90 Z M468.17,251.06 L469.74,254.02 L468.01,250.51 L468.17,251.06 Z M474.18,253.37 L487.66,255.15 L482.24,254.02 L474.18,253.37 Z M504.01,252.57 L507.15,250.90 L505.25,251.54 L504.01,252.57 Z M489.99,264.57 L489.50,261.66 L489.39,266.61 L489.99,264.57 Z M467.90,226.84 L467.82,227.02 L468.01,226.79 L467.90,226.84 Z M471.74,224.96 L468.82,226.39 L469.47,226.63 L471.74,224.96 Z M471.69,134.01 L467.57,132.29 L470.01,133.32 L471.69,134.01 Z M473.91,133.53 L474.85,132.93 L471.69,134.01 L473.91,133.53 Z M461.89,196.28 L461.94,198.11 L462.32,200.42 L461.89,196.28 Z M461.02,200.61 L459.78,200.80 L461.02,201.12 L461.02,200.61 Z M466.22,187.29 L467.52,193.69 L467.09,191.16 L466.22,187.29 Z M465.30,162.75 L464.54,163.61 L464.11,164.58 L465.30,162.75 Z M457.23,121.42 L458.80,125.51 L461.35,131.86 L457.23,121.42 Z M529.77,339.80 L522.79,342.43 L530.60,339.78 L529.77,339.80 Z M536.87,333.07 L532.74,339.05 L533.24,338.88 L536.87,333.07 Z M535.40,343.56 L535.13,342.97 L533.24,338.88 L535.40,343.56 Z M558.52,340.85 L556.14,339.26 L558.25,341.04 L558.52,340.85 Z M561.71,340.44 L559.60,341.57 L557.22,343.51 L561.71,340.44 Z M562.24,336.72 L563.27,338.53 L562.74,337.32 L562.24,336.72 Z M594.28,383.55 L594.48,383.54 L593.42,382.57 L594.28,383.55 Z M581.24,378.43 L581.69,378.37 L581.47,378.22 L581.24,378.43 Z M577.83,377.97 L579.96,382.15 L581.20,385.75 L579.31,380.21 L577.83,377.97 Z M579.93,388.45 L580.61,387.96 L581.20,385.75 L579.93,388.45 Z M574.16,392.64 L578.18,389.72 L576.55,390.44 L574.16,392.64 Z M586.56,404.05 L582.93,401.79 L585.53,403.78 L586.56,404.05 Z M598.80,420.30 L596.03,417.34 L595.98,417.31 L598.80,420.30 Z M585.64,418.42 L592.73,415.46 L581.36,419.55 L585.64,418.42 Z M582.34,432.20 L591.49,430.53 L595.22,430.58 L590.24,430.37 L582.34,432.20 Z M606.27,432.63 L606.05,435.80 L605.83,442.15 L606.27,432.63 Z M575.79,459.10 L584.83,453.61 L576.71,458.46 L575.79,459.10 Z M573.95,472.18 L572.92,466.42 L573.14,469.27 L573.95,472.18 Z M583.54,472.11 L583.54,472.11 L581.20,477.24 L583.54,472.11 Z M595.76,524.08 L596.25,522.06 L595.66,522.44 L595.76,524.08 Z M594.90,527.60 L595.17,526.48 L594.79,527.34 L594.90,527.60 Z M525.44,410.45 L530.91,410.99 L538.33,411.10 L525.44,410.45 Z M541.74,410.13 L548.50,406.80 L538.33,411.10 L541.74,410.13 Z M567.18,437.49 L567.18,437.68 L568.27,440.75 L567.18,437.49 Z M531.99,347.28 L532.75,349.59 L531.78,344.91 L531.99,347.28 Z M531.94,358.47 L535.67,357.07 L538.76,355.67 L531.94,358.47 Z M544.50,361.97 L543.63,361.70 L537.08,361.75 L544.50,361.97 Z M547.48,368.00 L548.50,367.67 L549.37,366.33 L547.48,368.00 Z M560.63,377.63 L565.67,376.34 L564.31,376.55 L560.63,377.63 Z M567.13,372.19 L566.64,372.62 L567.13,375.10 L567.13,372.19 Z M567.72,418.15 L568.33,416.75 L567.78,416.80 L567.72,418.15 Z M548.25,359.07 L546.29,357.93 L548.07,359.22 L548.25,359.07 Z M557.20,361.86 L554.68,360.62 L553.06,359.53 L553.38,359.87 L556.90,362.29 L557.20,361.86 Z M558.03,355.03 L560.04,356.96 L559.28,355.94 L558.03,355.03 Z M563.85,358.05 L563.18,356.48 L563.28,357.88 L563.85,358.05 Z M568.43,351.10 L570.21,355.67 L573.51,361.91 L568.43,351.10 Z M568.77,346.72 L568.10,348.30 L568.43,351.10 L568.77,346.72 Z M565.71,351.83 L564.35,346.87 L563.72,346.63 L565.71,351.83 L565.71,351.83 Z M528.85,312.78 L529.23,309.29 L528.50,312.84 L528.85,312.78 Z M542.33,308.48 L538.92,309.55 L543.20,308.32 L542.33,308.48 Z M547.37,327.26 L553.59,324.14 L550.83,325.27 L547.37,327.26 Z M518.84,298.58 L527.83,297.66 L516.10,298.23 L516.24,298.47 L518.84,298.58 Z M622.76,516.04 L625.27,517.22 L625.75,516.97 L622.76,516.04 Z M626.17,516.76 L626.73,516.47 L626.52,515.99 L626.17,516.76 Z M629.06,513.08 L631.98,519.16 L628.03,508.99 L629.06,513.08 Z M634.63,522.28 L638.15,524.38 L635.72,522.76 L631.98,519.16 L634.63,522.28 Z M635.72,520.77 L634.85,516.90 L635.72,522.76 L635.72,520.77 Z M616.23,487.95 L620.77,486.55 L624.94,485.15 L616.23,487.95 Z M645.89,495.96 L642.75,494.30 L642.54,494.72 L643.40,494.67 L645.89,495.96 Z M648.06,489.83 L650.01,484.29 L645.89,495.96 L648.06,489.83 Z M646.76,481.65 L644.54,479.98 L650.01,484.29 L646.76,481.65 Z M652.23,497.15 L655.64,494.67 L654.28,495.48 L652.23,497.15 Z M655.26,496.50 L656.94,488.43 L655.64,494.67 L655.26,496.50 Z M658.29,488.00 L658.98,487.47 L656.94,488.43 L658.29,488.00 Z M661.00,490.96 L668.90,494.40 L666.08,493.06 L661.00,490.96 Z M673.07,483.69 L669.60,482.46 L666.73,481.43 L672.85,483.64 L671.77,485.52 L673.07,483.69 Z M662.62,542.14 L657.86,539.98 L655.20,539.12 L662.62,542.14 Z M680.81,553.49 L676.75,549.62 L674.85,548.22 L680.81,553.49 Z M689.96,508.99 L689.47,507.48 L690.88,507.70 L688.82,506.59 L689.96,508.99 Z M704.29,518.41 L702.95,519.43 L704.20,518.51 L704.29,518.41 Z M664.57,518.89 L660.29,514.10 L664.65,519.40 L664.57,518.89 Z M678.81,528.31 L680.54,532.02 L678.21,526.10 L677.77,525.61 L678.81,528.31 Z M676.87,523.27 L676.97,521.20 L676.48,516.47 L676.59,522.55 L676.87,523.27 Z M664.21,525.46 L664.37,525.09 L658.89,522.33 L664.21,525.46 Z M664.87,523.95 L665.22,523.14 L665.00,521.73 L664.87,523.95 Z M673.61,499.19 L674.12,499.51 L672.96,497.42 L673.61,499.19 Z M628.73,456.57 L620.45,453.29 L626.67,456.20 L628.73,456.57 Z M606.93,490.26 L607.84,487.30 L606.65,489.94 L606.93,490.26 Z M652.63,485.09 L653.69,481.06 L652.58,485.08 L652.63,485.09 Z M658.45,484.34 L657.26,482.13 L657.48,483.37 L656.34,484.07 L657.75,483.26 L658.45,484.34 Z M640.48,463.03 L638.37,462.76 L649.95,467.17 L640.48,463.03 Z M615.90,449.04 L617.53,446.08 L616.01,448.18 L615.90,449.04 Z M484.41,131.06 L483.38,130.19 L485.00,127.99 L485.93,131.92 L482.84,136.44 L480.67,134.45 L483.00,131.32 L484.41,131.06 Z M495.56,114.37 L496.97,113.08 L498.48,116.20 L496.91,116.90 L497.29,116.20 L495.56,114.37 Z M514.62,101.89 L513.37,101.08 L514.35,100.60 L516.51,101.73 L518.51,101.51 L517.86,104.09 L515.54,104.20 L513.70,103.39 L514.62,101.89 Z M511.31,98.98 L509.91,98.61 L512.02,97.42 L512.78,98.44 L512.34,99.57 L511.31,98.98 Z M955.92,524.86 L955.87,524.81 L955.92,524.75 L955.92,524.86 Z M949.64,520.66 L949.59,520.61 L949.64,520.61 L949.64,520.66 Z M949.64,520.13 L949.70,519.00 L949.70,517.92 L951.05,516.25 L954.89,515.93 L957.44,518.35 L958.79,520.99 L956.30,522.98 L955.87,524.38 L953.70,523.57 L952.73,524.11 L950.72,522.92 L951.48,522.76 L949.64,520.13 Z M949.70,519.00 L949.59,519.05 L949.59,519.00 L949.70,519.00 Z M949.53,517.76 L949.64,517.92 L949.48,517.81 L949.53,517.76 Z" /></g></svg>