<svg xmlns="http://www.w3.org/2000/svg" viewBox="0 0 1000 1000" width="1000" height="1000"><g fill="#cccccc" stroke="#222" stroke-width="2"><path d="M283.82,711.03 L271.64,708.03 L262.39,702.02 L261.65,699.27 L247.27,687.00 L241.41,687.00 L238.02,684.62 L233.90,684.87 L230.70,678.74 L225.75,678.24 L216.69,676.24 L200.66,668.35 L202.03,665.60 L197.82,657.34 L193.24,656.08 L191.41,650.58 L183.62,645.82 L164.21,627.30 L156.88,623.17 L159.45,618.28 L157.71,611.15 L149.65,607.52 L143.88,597.38 L144.15,591.50 L136.00,589.37 L134.99,586.49 L136.64,584.11 L136.09,582.49 L118.42,558.45 L109.07,552.45 L104.13,552.70 L90.76,547.31 L83.43,538.30 L81.42,533.80 L81.97,528.54 L71.62,509.76 L66.03,507.13 L59.25,509.89 L52.57,509.76 L44.97,501.63 L40.57,504.76 L37.73,502.88 L39.65,493.87 L33.15,487.73 L29.49,489.74 L24.63,481.10 L25.82,466.58 L21.70,459.82 L19.23,446.93 L37.64,452.31 L45.15,450.18 L54.31,437.17 L70.88,444.55 L76.75,448.68 L89.48,463.95 L93.51,465.58 L94.97,462.95 L107.98,475.84 L110.72,476.59 L112.28,482.35 L114.57,483.85 L117.68,490.24 L127.39,499.37 L136.92,513.39 L139.11,513.64 L141.86,517.15 L150.56,518.15 L156.24,511.64 L159.17,509.89 L164.48,498.37 L174.74,493.87 L185.09,488.23 L188.39,483.73 L188.57,480.47 L192.87,477.34 L190.58,477.72 L181.33,464.58 L176.48,452.31 L172.73,449.31 L175.01,441.80 L170.53,437.67 L167.05,431.53 L167.78,426.53 L164.12,423.77 L163.38,420.02 L159.35,417.89 L158.35,414.64 L160.91,413.26 L156.33,408.88 L157.06,407.38 L160.00,408.63 L162.56,402.87 L161.00,402.87 L158.53,396.11 L157.16,397.11 L156.06,394.86 L153.31,396.99 L150.20,392.86 L150.20,385.72 L160.73,384.60 L164.02,387.10 L168.33,384.60 L173.92,389.10 L181.06,390.23 L186.46,397.11 L189.30,396.99 L188.84,400.12 L193.70,400.99 L191.04,410.00 L191.32,417.64 L201.21,419.14 L205.60,422.02 L204.60,435.16 L205.79,441.17 L215.22,440.55 L214.95,435.79 L218.06,426.78 L217.05,422.90 L215.86,415.76 L213.30,413.76 L214.12,407.25 L212.56,402.62 L215.13,402.49 L211.01,390.48 L212.20,387.47 L211.56,383.22 L217.42,381.34 L217.60,378.96 L215.31,377.46 L210.64,350.80 L216.14,347.30 L220.72,349.42 L229.97,346.17 L233.72,354.43 L238.76,353.80 L244.53,339.79 L243.34,332.90 L247.73,331.77 L249.38,340.79 L255.15,352.55 L262.29,363.07 L272.28,369.95 L274.02,373.33 L276.12,376.96 L282.17,377.59 L282.99,374.08 L286.93,372.45 L294.90,373.58 L299.48,366.70 L307.45,366.32 L312.67,376.46 L305.52,362.57 L303.60,344.17 L302.87,333.90 L302.87,301.73 L294.71,301.48 L292.79,298.48 L289.68,298.86 L287.57,294.35 L277.22,288.09 L273.28,281.21 L272.28,266.81 L262.20,275.95 L257.90,269.57 L257.53,262.93 L254.97,257.68 L250.48,259.93 L239.03,224.63 L230.79,213.12 L226.48,193.59 L250.39,189.71 L254.69,171.69 L255.88,158.29 L260.19,148.78 L261.65,140.89 L260.37,135.64 L266.69,127.13 L265.04,114.36 L267.06,106.97 L283.08,94.21 L285.74,87.57 L279.15,83.19 L272.00,73.43 L275.30,71.43 L275.30,68.42 L292.24,75.06 L291.51,78.18 L294.90,80.56 L296.55,78.06 L298.47,79.94 L304.79,90.95 L311.93,92.83 L329.06,94.71 L338.40,88.82 L343.16,83.82 L342.98,63.04 L349.21,68.05 L351.22,67.67 L351.41,67.77 L351.41,63.54 L363.14,56.95 L364.50,54.15 L386.48,46.52 L389.50,54.03 L389.32,63.79 L386.12,70.67 L387.86,80.19 L407.82,89.45 L417.07,91.58 L399.58,85.57 L398.75,78.31 L401.41,73.18 L408.00,68.05 L417.53,66.92 L418.26,56.91 L427.79,45.77 L433.01,47.77 L430.99,50.65 L433.19,52.40 L435.60,51.11 L432.64,44.89 L433.37,42.01 L430.81,41.89 L429.53,37.38 L436.12,33.63 L434.20,27.12 L440.61,22.11 L441.07,19.23 L447.84,20.73 L460.30,28.49 L469.73,46.64 L472.57,60.16 L470.10,78.69 L467.17,92.58 L467.72,98.71 L473.39,114.11 L479.81,123.62 L494.28,141.02 L502.70,144.90 L508.20,145.27 L513.97,141.77 L518.36,135.64 L526.42,129.13 L532.19,126.25 L541.08,129.88 L553.07,146.03 L555.55,151.66 L556.55,167.93 L557.10,175.06 L560.12,182.57 L565.99,186.96 L586.32,194.84 L595.29,210.61 L601.89,250.42 L601.52,272.19 L602.44,285.09 L605.92,293.22 L611.23,299.11 L619.01,300.11 L631.56,301.61 L640.99,307.62 L644.57,314.63 L644.20,327.27 L639.07,344.29 L630.37,362.82 L631.10,372.20 L635.22,379.71 L632.29,377.84 L644.84,388.98 L655.37,392.23 L674.88,391.48 L690.08,393.86 L694.11,396.11 L696.49,398.61 L700.52,412.88 L699.52,420.39 L693.29,430.16 L673.14,450.43 L670.85,454.69 L668.65,467.46 L671.12,479.47 L675.06,487.11 L680.83,491.24 L687.15,490.99 L692.92,487.73 L708.49,473.97 L720.12,459.20 L732.30,448.06 L746.04,428.65 L748.70,427.78 L751.63,429.66 L757.85,446.68 L762.98,455.82 L769.58,462.70 L778.83,468.33 L794.12,469.71 L801.08,474.59 L803.19,476.47 L810.97,484.98 L824.62,511.01 L833.41,524.28 L843.21,532.79 L854.29,537.17 L863.73,538.30 L874.81,535.42 L881.77,531.29 L893.12,514.64 L896.15,513.39 L906.22,513.77 L919.41,504.26 L921.70,504.51 L934.15,523.78 L969.14,569.47 L980.77,599.38 L973.72,609.27 L972.34,627.30 L953.02,645.57 L943.86,646.20 L944.23,638.06 L940.47,633.30 L937.08,633.18 L936.72,622.91 L933.24,620.66 L929.67,618.16 L921.97,623.42 L920.51,616.97 L920.51,618.78 L917.48,619.54 L913.91,614.78 L910.62,617.91 L908.33,615.78 L901.82,620.54 L890.93,625.92 L881.58,623.79 L877.83,627.42 L861.16,630.05 L839.64,633.68 L830.94,640.19 L816.38,641.44 L808.77,646.95 L794.40,653.96 L792.01,655.21 L792.47,657.84 L790.46,660.09 L773.52,672.98 L764.00,678.25 L765.55,678.36 L764.72,683.25 L751.44,704.65 L735.05,723.30 L733.77,727.68 L716.73,753.71 L702.72,770.99 L695.85,783.13 L692.74,788.51 L676.07,811.92 L672.41,819.18 L665.35,826.06 L653.54,846.59 L628.35,885.14 L619.01,892.78 L614.89,899.66 L604.27,917.81 L599.87,909.05 L601.43,905.04 L597.49,913.18 L579.08,926.70 L565.80,926.45 L565.53,940.34 L532.37,953.86 L525.96,953.86 L525.32,937.09 L525.05,944.60 L521.69,944.06 L521.93,945.35 L511.95,975.39 L505.91,980.77 L502.70,980.64 L498.76,977.39 L478.07,949.85 L472.57,942.47 L465.89,933.96 L465.43,930.45 L460.39,930.83 L460.02,922.69 L461.40,913.43 L464.88,905.17 L469.37,900.04 L473.67,898.66 L481.00,898.53 L486.58,894.03 L494.18,877.38 L500.69,847.97 L505.36,835.95 L507.56,821.56 L503.80,816.67 L474.31,822.81 L470.56,825.31 L467.81,824.06 L456.45,825.81 L454.07,824.94 L450.50,818.93 L447.84,818.05 L435.66,815.05 L432.18,816.67 L431.27,814.17 L422.20,814.67 L415.06,817.43 L401.14,816.92 L394.17,807.41 L389.50,806.79 L384.56,797.15 L374.03,786.76 L369.26,773.99 L366.52,773.24 L365.60,770.24 L362.12,767.86 L356.81,768.99 L354.79,766.98 L338.86,750.46 L332.45,750.59 L326.59,745.58 L323.29,746.83 L319.72,745.20 L303.14,726.93 L295.36,722.30 L288.30,721.92 L283.82,711.03 Z M198.28,482.73 L201.14,483.72 L192.87,477.34 L198.28,482.73 Z M630.18,380.03 L630.46,379.96 L632.29,377.84 L630.18,380.03 Z M631.65,388.10 L632.64,390.09 L630.46,379.96 L631.65,388.10 Z M922.25,542.81 L915.74,552.57 L926.83,537.30 L934.15,523.78 L922.25,542.81 Z M825.99,610.15 L822.60,605.27 L839.64,633.68 L825.99,610.15 Z M695.21,774.49 L695.21,781.63 L695.85,783.13 L695.21,774.49 Z M527.60,925.23 L527.25,926.57 L525.32,937.09 L527.60,925.23 Z M485.12,919.57 L485.03,919.44 L472.57,942.47 L485.12,919.57 Z M378.48,440.56 L377.78,439.67 L376.17,440.91 L378.48,440.56 Z M380.53,452.94 L380.35,442.92 L379.56,441.93 L380.53,452.94 Z M395.91,500.44 L395.82,500.38 L379.89,490.74 L395.91,500.44 Z M371.46,494.24 L366.15,497.37 L379.89,490.74 L371.46,494.24 Z M422.93,532.04 L415.33,519.28 L407.82,508.76 L422.93,532.04 Z M421.65,570.97 L428.89,577.98 L421.54,570.24 L421.65,570.97 Z M418.90,576.23 L415.24,586.74 L421.65,570.97 L418.90,576.23 Z M447.66,586.62 L453.41,586.91 L437.77,583.49 L447.66,586.62 Z M460.02,587.24 L466.71,585.61 L458.06,587.14 L460.02,587.24 Z M483.21,593.14 L483.56,591.75 L481.36,585.11 L483.21,593.14 Z M481.82,579.73 L482.64,569.59 L481.36,585.11 L481.82,579.73 Z M465.24,601.39 L465.27,603.57 L467.53,598.88 L465.24,601.39 Z M465.34,608.40 L466.40,610.17 L465.31,606.73 L465.34,608.40 Z M491.50,628.16 L491.80,627.30 L489.07,628.13 L491.50,628.16 Z M502.79,618.16 L507.19,613.15 L491.80,627.30 L502.79,618.16 Z M539.61,629.55 L547.20,626.19 L538.22,629.16 L539.61,629.55 Z M578.13,622.96 L577.89,619.66 L576.88,616.41 L578.13,622.96 Z M582.49,618.44 L582.38,618.41 L577.89,619.66 L582.49,618.44 Z M586.68,667.85 L582.38,644.69 L582.00,643.28 L586.68,667.85 Z M586.87,745.45 L582.20,751.84 L590.81,740.57 L586.87,745.45 Z M556.69,682.76 L560.40,691.76 L567.09,705.02 L586.87,745.45 L556.69,682.76 Z M557.74,712.66 L560.49,710.66 L567.09,705.02 L557.74,712.66 Z M571.76,782.13 L571.57,783.67 L578.72,760.85 L571.76,782.13 Z M551.97,730.18 L543.46,709.41 L571.76,782.13 L551.97,730.18 Z M570.66,791.39 L569.65,807.91 L570.78,790.37 L570.66,791.39 Z M567.10,817.92 L567.82,816.67 L569.65,807.91 L567.10,817.92 Z M551.61,830.69 L548.22,833.45 L545.38,836.20 L553.71,829.82 L551.61,830.69 Z M541.72,856.60 L541.26,864.74 L543.09,841.71 L541.72,856.60 Z M378.42,463.83 L384.19,455.57 L377.62,463.92 L378.42,463.83 Z M409.68,563.74 L422.24,560.22 L422.25,560.20 L418.63,560.08 L409.68,563.74 Z M516.81,625.04 L510.21,608.27 L518.00,631.05 L516.81,625.04 Z M331.90,428.53 L332.17,428.97 L332.45,426.31 L331.00,428.55 L331.90,428.53 Z M357.21,462.22 L356.57,461.87 L356.81,462.20 L357.21,462.22 Z M358.92,458.19 L359.21,462.30 L359.92,462.32 L358.92,458.19 Z M396.83,525.41 L406.45,522.66 L396.53,524.35 L398.20,532.04 L396.83,525.41 Z M397.06,532.17 L397.20,532.54 L398.20,532.04 L397.06,532.17 Z M405.26,534.55 L404.44,534.44 L407.00,538.68 L405.26,534.55 Z M400.31,542.18 L411.39,536.67 L407.00,538.68 L400.31,542.18 Z M404.89,614.40 L408.65,614.53 L406.54,614.28 L404.89,614.40 Z M404.27,613.98 L406.81,622.29 L404.89,614.40 L404.27,613.98 Z M398.94,639.31 L401.62,637.79 L400.13,637.93 L395.82,639.44 L398.94,639.31 Z M423.54,729.45 L417.35,721.17 L421.19,727.81 L423.54,729.45 Z M408.55,745.70 L406.08,738.82 L406.45,741.07 L408.55,745.70 Z M414.55,588.74 L414.55,588.74 L401.23,588.37 L401.20,588.37 L414.55,588.74 Z M400.13,582.74 L397.20,568.84 L393.13,550.09 L393.13,550.09 L401.23,588.37 L400.13,582.74 Z M302.50,629.30 L323.38,656.21 L318.98,649.70 L302.50,629.30 Z M336.11,716.04 L308.91,722.05 L343.07,714.79 L336.11,716.04 Z M303.05,476.09 L306.99,466.46 L306.35,467.96 L298.38,482.60 L303.05,476.09 Z M299.39,486.11 L299.29,484.23 L304.88,484.98 L298.38,482.60 L299.39,486.11 Z M290.78,532.04 L288.85,537.43 L289.30,540.02 L290.78,532.04 Z M296.18,539.43 L300.30,547.06 L298.74,543.31 L296.18,539.43 Z M326.72,602.18 L325.67,607.02 L327.14,602.39 L326.72,602.18 Z M327.41,608.90 L325.58,612.90 L326.15,613.62 L327.41,608.90 Z M295.94,618.43 L294.84,620.21 L295.54,619.66 L295.94,618.43 Z M288.76,624.92 L291.31,630.33 L291.31,630.33 L288.76,624.92 Z M183.35,505.63 L183.46,505.68 L175.75,497.12 L183.35,505.63 Z M187.73,511.41 L188.39,511.14 L187.29,507.38 L187.73,511.41 Z M194.80,514.89 L195.23,514.58 L193.66,514.23 L194.80,514.89 Z M228.21,495.68 L227.58,495.87 L225.75,501.63 L228.21,495.68 Z M229.87,503.00 L230.25,506.07 L231.71,497.87 L229.87,503.00 Z M268.89,494.07 L271.45,497.25 L272.12,497.53 L269.25,493.62 L268.89,494.07 Z M279.42,522.28 L278.50,517.90 L277.59,515.52 L279.42,522.28 Z M211.56,571.60 L214.21,566.46 L211.56,569.72 L209.08,579.73 L211.56,571.60 Z M241.05,562.58 L229.32,545.44 L242.60,544.43 L228.65,544.64 L241.05,562.58 Z M253.24,567.07 L252.77,568.34 L253.07,568.82 L253.24,567.07 Z M255.06,562.08 L254.54,563.50 L258.17,560.58 L255.06,562.08 Z M269.25,541.56 L272.92,542.31 L267.97,540.30 L267.17,540.66 L269.25,541.56 Z M249.56,617.53 L243.06,620.91 L258.81,613.03 L249.56,617.53 Z M264.90,613.95 L264.58,613.28 L258.81,613.03 L264.90,613.95 Z M273.10,685.62 L273.01,679.12 L272.38,686.58 L273.10,685.62 Z M231.98,654.46 L232.10,655.31 L232.85,651.13 L231.98,654.46 Z M270.45,573.22 L269.90,565.34 L270.31,573.67 L270.45,573.22 Z M263.06,579.40 L254.92,571.80 L256.89,574.98 L262.02,579.36 L263.06,579.40 Z M264.77,535.55 L265.04,537.17 L264.31,528.91 L264.77,535.55 Z M221.45,517.15 L226.12,531.67 L225.66,528.29 L221.45,517.15 Z M222.73,534.67 L219.16,533.04 L223.14,535.16 L222.73,534.67 Z M224.48,536.79 L224.01,541.68 L225.11,537.55 L224.48,536.79 Z M204.96,544.94 L204.69,544.37 L203.89,544.12 L204.96,544.94 Z M253.21,457.26 L253.79,458.80 L263.63,442.70 L259.91,447.55 L254.14,457.07 L253.21,457.26 Z M259.05,463.32 L253.81,458.85 L254.60,460.95 L259.05,463.32 Z M265.04,480.35 L264.87,479.88 L265.68,485.73 L265.04,480.35 Z M280.52,489.86 L287.85,495.62 L282.72,490.99 L280.52,489.86 Z M209.82,487.23 L210.82,491.36 L209.97,486.78 L209.82,487.23 Z M240.22,498.75 L237.38,494.62 L240.89,501.04 L240.22,498.75 Z M245.53,446.05 L247.55,446.80 L248.64,445.58 L245.53,446.05 Z M236.19,426.15 L236.93,425.15 L235.92,423.40 L236.19,426.15 Z M239.83,416.26 L243.24,416.26 L240.04,416.01 L239.83,416.26 Z M281.72,420.16 L282.72,420.64 L284.09,418.64 L281.72,420.16 Z M288.21,461.07 L289.46,450.38 L288.21,459.07 L288.21,461.07 Z M388.95,585.74 L389.89,585.48 L387.21,580.36 L388.95,585.74 Z M380.80,693.01 L373.51,697.32 L373.66,697.26 L380.80,693.01 Z M399.30,689.63 L394.72,690.51 L400.54,689.41 L397.75,688.50 L399.30,689.63 Z M367.83,718.37 L374.21,724.80 L368.71,718.17 L367.83,718.37 Z M345.36,726.68 L345.71,728.03 L346.64,722.55 L345.36,726.68 Z M336.87,628.00 L341.78,635.36 L338.86,629.67 L336.87,628.00 Z M386.48,682.24 L387.21,676.11 L385.84,682.63 L386.48,682.24 Z M359.19,657.09 L363.95,659.34 L368.47,662.12 L363.13,657.71 L359.19,657.09 Z M350.76,648.82 L356.26,652.20 L348.61,645.60 L350.76,648.82 Z M377.78,617.03 L383.00,614.90 L379.89,616.16 L377.78,617.03 Z M398.39,620.54 L400.22,618.91 L396.56,620.79 L398.39,620.54 Z M403.39,613.38 L402.88,613.03 L400.04,615.40 L403.39,613.38 Z M328.33,536.80 L326.46,534.47 L328.52,539.00 L328.33,536.80 Z M330.71,538.05 L332.36,537.49 L328.33,536.80 L330.71,538.05 Z M338.67,533.55 L334.71,536.68 L336.57,536.05 L338.67,533.55 Z M345.27,512.02 L338.49,522.41 L343.90,514.27 L345.27,512.02 Z M354.52,503.38 L348.29,518.02 L345.73,525.16 L354.52,503.38 Z M361.85,499.87 L357.72,500.88 L354.52,503.38 L361.85,499.87 Z M384.56,526.54 L383.78,526.89 L385.20,530.92 L384.56,526.54 Z M376.87,563.21 L379.46,554.00 L378.24,555.82 L376.87,563.21 Z M380.71,549.59 L382.27,544.06 L381.17,546.31 L380.71,549.59 Z M387.31,555.32 L392.27,550.59 L389.05,552.45 L387.31,555.32 Z M335.29,493.37 L334.92,487.48 L332.08,488.73 L334.74,487.61 L335.29,493.37 Z M341.70,502.38 L345.18,505.88 L337.21,494.99 L335.29,493.37 L341.70,502.38 Z M371.03,481.43 L369.26,479.35 L368.35,475.84 L369.45,480.85 L371.03,481.43 Z M372.24,482.85 L372.28,483.91 L372.56,483.23 L372.24,482.85 Z M393.26,510.76 L390.42,512.14 L390.29,512.99 L393.26,510.76 Z M373.67,468.95 L373.66,468.96 L372.74,470.71 L373.67,468.95 Z M428.98,766.36 L433.83,764.73 L433.82,764.56 L428.98,766.36 Z M520.04,920.95 L523.12,917.81 L522.12,917.56 L520.04,920.95 Z M521.38,942.42 L521.66,940.84 L519.19,930.83 L521.38,942.42 Z M509.39,942.47 L502.61,944.85 L503.71,944.97 L509.39,942.47 Z M503.07,624.29 L505.45,628.67 L506.48,629.24 L503.07,624.29 Z M507.85,630.00 L510.67,631.55 L508.20,629.05 L507.85,630.00 Z M510.30,638.56 L510.94,634.18 L510.67,631.55 L510.30,638.56 Z M508.11,672.61 L500.87,668.10 L508.42,672.89 L508.11,672.61 Z M511.30,675.48 L511.59,676.99 L512.52,676.59 L511.30,675.48 Z M504.99,690.25 L506.27,688.75 L511.59,676.99 L504.99,690.25 Z M492.99,702.06 L489.70,707.40 L486.03,716.54 L492.99,702.06 Z M502.05,746.18 L498.67,748.58 L502.05,746.18 L502.05,746.18 Z M509.20,808.79 L524.00,834.04 L523.23,831.93 L487.14,760.66 L487.14,760.66 L519.64,826.06 L509.20,808.79 Z M426.87,686.00 L429.16,685.37 L420.00,687.38 L426.87,686.00 Z M429.71,681.12 L430.17,676.99 L429.16,685.37 L429.71,681.12 Z M446.44,683.80 L447.02,683.75 L446.38,688.50 L447.84,677.74 L446.44,683.80 Z M455.49,672.21 L450.87,674.61 L447.84,677.74 L455.49,672.21 Z M459.47,691.01 L477.70,681.74 L449.67,694.39 L459.47,691.01 Z M484.11,684.25 L479.26,682.24 L466.25,676.86 L477.70,681.74 L484.11,684.25 Z M484.20,696.64 L484.38,710.78 L484.11,684.25 L484.20,696.64 Z M466.53,668.10 L466.08,667.35 L466.25,676.86 L466.53,668.10 Z M475.59,783.38 L474.59,787.76 L474.60,787.77 L475.59,783.38 Z M471.20,778.12 L475.32,782.63 L481.01,785.67 L471.20,778.12 Z M489.49,792.20 L498.40,801.28 L492.35,794.39 L489.49,792.20 Z M427.59,732.29 L428.15,732.69 L428.62,732.35 L427.59,732.29 Z M434.20,728.31 L437.40,731.68 L437.22,731.18 L434.20,728.31 Z M457.55,726.55 L459.23,732.59 L459.75,732.19 L457.55,726.55 Z M439.05,761.35 L439.53,760.33 L437.94,761.15 L439.05,761.35 Z M441.16,756.84 L440.70,756.16 L440.70,757.82 L441.16,756.84 Z M427.24,693.88 L429.16,696.51 L430.96,696.89 L427.24,693.88 Z M434.14,699.45 L435.07,700.91 L434.84,700.02 L434.14,699.45 Z M417.62,632.93 L413.87,636.56 L418.39,632.81 L417.62,632.93 Z M424.49,636.53 L421.65,632.30 L423.39,635.93 L424.49,636.53 Z M436.65,655.63 L452.86,627.30 L450.13,631.43 L436.63,655.63 L436.65,655.63 Z M460.25,616.10 L457.12,620.83 L457.73,621.29 L460.25,616.10 Z M485.31,676.06 L487.77,674.23 L485.21,675.49 L485.31,676.06 Z M454.00,655.56 L459.29,656.21 L454.71,655.33 L454.00,655.56 Z M461.58,645.32 L464.97,639.31 L469.09,629.92 L461.58,645.32 Z M421.19,605.39 L424.76,601.51 L425.86,598.76 L421.19,605.39 Z M437.70,595.10 L438.96,595.50 L442.26,595.38 L437.70,595.10 Z M454.64,600.10 L459.38,592.87 L454.71,599.88 L454.64,600.10 Z M452.24,607.02 L454.16,603.89 L453.55,603.24 L452.24,607.02 Z M514.15,774.12 L516.03,778.97 L503.25,745.33 L514.15,774.12 Z M522.24,736.60 L521.93,736.69 L519.34,737.84 L522.24,736.60 Z M523.49,736.07 L522.03,731.69 L522.75,736.38 L523.49,736.07 Z M519.28,723.80 L521.48,722.55 L526.51,719.67 L532.74,716.04 L519.28,723.80 Z M537.41,713.29 L540.49,711.31 L532.74,716.04 L537.41,713.29 Z M508.38,782.50 L516.52,780.25 L516.52,780.25 L511.04,781.50 L508.38,782.50 Z M519.80,788.80 L519.74,788.89 L531.09,818.93 L519.80,788.80 Z M532.65,861.86 L538.60,856.35 L539.06,854.35 L532.65,861.86 Z M562.14,678.11 L559.39,674.11 L588.24,717.67 L562.14,678.11 Z M530.54,692.88 L533.93,695.89 L529.37,691.77 L530.54,692.88 Z M553.53,686.50 L548.77,688.13 L546.30,689.75 L553.53,686.50 Z M406.65,440.79 L405.81,440.92 L394.72,455.32 L403.70,444.30 L406.65,440.79 Z M594.38,730.31 L592.36,729.93 L594.38,731.70 L594.38,730.31 Z M385.02,401.62 L384.28,399.11 L387.49,414.26 L385.02,401.62 Z M390.88,385.22 L392.43,394.98 L390.79,382.72 L390.88,385.22 Z M399.70,379.65 L399.67,379.96 L402.42,388.23 L399.70,379.65 Z M400.13,374.71 L399.97,376.50 L405.81,367.32 L400.13,374.71 Z M422.84,348.30 L417.80,347.67 L421.19,349.05 L422.84,348.30 Z M456.27,379.71 L456.73,384.09 L457.43,376.55 L456.27,379.71 Z M460.02,362.57 L459.93,369.70 L460.82,360.76 L460.02,362.57 Z M468.54,309.24 L464.42,343.29 L465.34,341.54 L468.54,309.24 Z M478.52,310.75 L476.05,327.14 L477.24,321.14 L478.52,310.75 Z M530.09,330.52 L522.03,328.65 L528.16,330.40 L530.09,330.52 Z M530.45,288.59 L529.44,291.22 L531.46,288.37 L530.45,288.59 Z M568.46,309.62 L565.63,297.28 L565.44,300.36 L568.46,309.62 Z M547.94,320.01 L544.28,324.39 L546.11,322.26 L565.44,300.36 L547.94,320.01 Z M574.60,313.88 L571.57,313.25 L575.69,315.04 L574.60,313.88 Z M602.80,299.48 L600.79,299.73 L603.81,299.98 L602.80,299.48 Z M597.31,315.38 L597.40,317.51 L603.81,299.98 L597.31,315.38 Z M600.80,335.52 L599.23,334.28 L599.23,330.27 L598.99,335.16 L600.80,335.52 Z M593.55,329.15 L598.22,330.27 L599.23,330.27 L593.55,329.15 Z M610.56,362.66 L602.71,352.55 L602.88,350.39 L602.62,351.93 L601.80,351.93 L603.08,353.18 L610.56,362.66 L610.56,362.66 Z M608.02,348.92 L609.37,348.42 L606.01,349.05 L602.71,352.55 L608.02,348.92 Z M597.95,362.69 L593.46,357.68 L599.23,364.57 L597.95,362.69 Z M592.47,361.36 L592.73,361.46 L593.46,357.68 L592.47,361.36 Z M596.45,366.78 L596.45,366.78 L599.23,364.57 L596.45,366.78 Z M602.98,373.33 L601.43,375.33 L599.14,378.84 L602.89,373.46 L602.98,373.33 Z M596.76,387.10 L594.77,394.45 L595.48,392.86 L596.39,388.98 L599.14,378.84 L596.76,387.10 Z M601.86,407.71 L601.80,410.38 L603.17,415.26 L601.86,407.71 Z M606.43,419.68 L606.47,420.02 L606.56,420.02 L606.43,419.68 Z M603.35,431.16 L603.09,431.48 L605.73,432.16 L603.35,431.16 Z M606.23,432.22 L606.08,431.57 L605.73,432.16 L606.23,432.22 Z M599.41,430.53 L597.22,438.29 L596.85,443.80 L599.41,430.53 Z M602.25,457.82 L601.89,449.93 L602.44,461.82 L603.07,457.71 L602.25,457.82 Z M593.32,481.90 L591.35,489.11 L593.55,483.48 L593.32,481.90 Z M598.41,508.26 L598.96,510.76 L597.40,502.38 L598.41,508.26 Z M645.21,517.90 L646.95,533.04 L647.84,533.04 L645.21,517.90 Z M632.66,551.07 L641.08,549.32 L636.41,549.32 L638.06,545.44 L635.41,550.44 L635.04,548.77 L632.66,551.07 Z M646.41,557.23 L646.58,558.33 L649.05,559.08 L646.41,557.23 Z M638.15,581.11 L637.88,590.87 L637.70,600.01 L638.15,581.11 Z M640.90,619.66 L638.70,621.54 L642.01,618.76 L640.90,619.66 Z M624.36,635.87 L626.98,633.68 L638.70,621.54 L624.36,635.87 Z M642.09,625.54 L645.02,634.18 L646.03,636.43 L642.09,625.54 Z M651.89,663.72 L651.95,662.46 L644.20,697.64 L643.47,701.14 L651.89,663.72 Z M639.71,730.56 L636.78,756.97 L637.24,752.96 L639.71,730.56 Z M649.88,746.58 L645.94,776.25 L651.01,740.50 L649.88,746.58 Z M577.43,504.26 L575.26,508.23 L582.75,498.00 L577.43,504.26 Z M611.59,552.45 L611.05,545.31 L608.66,519.78 L611.59,552.45 Z M529.96,361.79 L530.73,364.57 L529.99,361.81 L529.96,361.79 Z M523.86,439.54 L527.43,447.68 L526.61,445.30 L523.86,439.54 Z M521.75,439.29 L519.55,439.04 L523.86,439.54 L521.75,439.29 Z M529.08,463.70 L537.41,458.07 L533.75,460.45 L529.08,463.70 Z M550.71,463.06 L550.49,462.07 L550.42,462.32 L550.71,463.06 Z M551.30,492.93 L551.68,492.89 L551.08,491.19 L551.30,492.93 Z M541.62,521.28 L553.07,518.40 L530.18,523.66 L512.23,521.28 L528.25,524.03 L528.03,524.53 L541.62,521.28 Z M555.18,564.21 L547.30,562.83 L557.10,564.84 L563.51,564.09 L555.18,564.21 Z M543.00,566.46 L532.47,579.36 L547.30,562.83 L543.00,566.46 Z M399.76,420.14 L395.27,421.77 L397.75,421.14 L399.76,420.14 Z M415.70,428.90 L414.23,435.66 L413.59,439.67 L415.70,428.90 Z M444.55,442.17 L440.79,433.91 L439.88,434.41 L442.07,436.79 L444.55,442.17 Z M458.47,440.42 L453.61,442.92 L458.60,440.55 L458.47,440.42 Z M464.05,445.55 L462.67,444.28 L465.61,450.18 L464.05,445.55 Z M500.69,431.66 L495.65,432.53 L502.88,433.16 L504.53,440.17 L503.34,434.79 L504.16,434.00 L500.69,431.66 Z M507.67,434.69 L506.83,435.12 L507.01,435.29 L507.67,434.69 Z M513.33,421.02 L511.16,431.54 L511.31,431.41 L513.33,421.02 Z M438.49,500.88 L430.35,504.76 L438.87,501.63 L438.49,500.88 Z M492.26,484.98 L492.15,485.48 L496.75,479.10 L492.26,484.98 Z M485.12,518.78 L488.78,501.25 L489.04,499.42 L483.65,523.53 L485.12,518.78 Z M455.34,548.98 L452.37,541.01 L452.24,542.56 L455.34,548.98 Z M456.82,555.95 L459.11,559.08 L457.83,555.64 L456.82,555.95 Z M478.83,548.66 L478.81,548.52 L472.30,552.45 L478.83,548.66 Z M506.46,558.33 L506.39,556.66 L505.64,556.77 L506.46,558.33 Z M507.24,547.66 L506.82,547.19 L506.58,548.24 L507.24,547.66 Z M427.15,519.53 L431.82,521.28 L428.52,519.15 L428.54,519.01 L427.15,519.53 Z M453.06,532.79 L452.53,539.14 L453.25,538.55 L453.06,532.79 Z M510.03,529.13 L497.57,526.03 L506.82,529.54 L510.03,529.13 Z M417.99,473.21 L418.79,472.82 L417.16,470.21 L417.99,473.21 Z M421.81,476.67 L427.60,471.71 L423.30,474.72 L421.81,476.67 Z M428.13,468.37 L428.13,468.37 L427.60,471.71 L428.13,468.37 Z M436.85,468.08 L432.82,444.18 L436.94,472.21 L436.85,468.08 Z M458.47,475.59 L469.55,462.70 L454.35,478.47 L458.47,475.59 Z M448.67,478.72 L449.03,482.48 L450.61,484.73 L448.67,478.72 Z M506.55,468.71 L509.75,467.96 L499.40,468.96 L506.55,468.71 Z M520.84,472.84 L522.39,472.59 L512.41,472.59 L520.84,472.84 Z M526.15,490.49 L520.19,491.24 L526.15,490.49 L526.15,490.49 Z M480.36,461.95 L481.27,461.64 L480.88,461.13 L480.36,461.95 Z M483.29,465.83 L486.31,468.21 L482.36,463.06 L483.29,465.83 Z M421.56,462.24 L420.83,460.93 L420.83,461.57 L421.56,462.24 Z M460.57,377.21 L462.90,378.14 L462.77,377.21 L460.57,377.21 Z M486.27,361.88 L487.87,361.19 L486.42,361.07 L486.27,361.88 Z M491.53,338.93 L491.53,341.54 L491.74,338.85 L491.53,338.93 Z M410.84,409.38 L403.42,407.50 L404.89,412.26 L403.70,407.88 L410.84,409.38 Z M411.58,397.99 L410.71,395.76 L409.84,396.11 L411.34,398.39 L416.61,393.23 L411.58,397.99 Z M416.74,406.29 L416.25,405.12 L414.32,405.00 L416.74,406.29 Z M418.54,407.25 L423.66,401.24 L417.87,406.90 L418.54,407.25 Z M523.58,397.24 L512.32,397.61 L510.58,397.74 L523.58,397.24 Z M504.81,381.34 L504.26,393.23 L504.35,394.86 L504.81,381.34 Z M493.58,396.01 L490.80,394.48 L493.18,396.24 L493.58,396.01 Z M592.55,863.36 L593.37,866.99 L592.50,861.62 L592.55,863.36 Z M597.22,865.49 L599.78,864.49 L593.37,866.99 L597.22,865.49 Z M600.58,900.20 L600.33,898.78 L594.74,873.38 L600.58,900.20 Z M561.96,833.82 L570.57,837.33 L591.33,843.63 L591.33,843.61 L561.96,833.82 Z M570.47,900.66 L566.90,849.09 L568.46,871.87 L570.47,900.66 Z M559.58,904.42 L571.70,901.21 L570.47,900.66 L559.58,904.42 Z M577.16,820.43 L584.58,821.06 L573.86,819.10 L577.16,820.43 Z M608.76,654.71 L617.54,641.87 L613.52,646.20 L608.76,654.71 Z M587.33,356.43 L588.79,359.94 L587.87,356.43 L579.91,352.68 L587.33,356.43 Z M591.86,361.12 L591.72,360.56 L588.79,359.94 L591.86,361.12 Z M598.86,584.36 L592.73,568.59 L596.85,580.61 L598.86,584.36 Z M583.60,547.36 L583.60,547.36 L587.69,556.95 L592.73,568.59 L583.60,547.36 Z M604.21,615.95 L605.64,614.15 L605.48,613.39 L604.45,614.28 L604.21,615.95 Z M565.35,413.76 L560.58,426.40 L565.56,413.50 L564.43,412.88 L562.41,411.26 L565.35,413.76 Z M580.27,426.65 L577.89,440.80 L584.12,414.01 L580.27,426.65 Z M589.89,405.50 L593.90,396.42 L584.12,414.01 L589.89,405.50 Z M569.47,543.68 L567.54,531.79 L569.92,551.19 L569.47,543.68 Z M557.29,569.59 L562.60,580.48 L567.27,590.00 L557.29,569.59 Z M571.66,588.12 L585.31,581.86 L567.27,590.00 L571.66,588.12 Z M591.76,580.48 L588.97,580.48 L582.20,563.84 L589.52,582.24 L591.76,580.48 Z M560.95,512.64 L561.96,513.77 L564.89,517.02 L560.95,512.64 Z M573.41,511.61 L569.83,518.15 L573.43,511.64 L573.41,511.61 Z M560.03,443.80 L552.16,455.82 L551.27,459.13 L560.03,443.80 Z M558.47,375.96 L558.53,375.09 L556.74,376.58 L558.47,375.96 Z M561.22,389.48 L560.97,383.49 L560.77,384.97 L561.22,389.48 Z M581.45,364.82 L582.56,364.82 L581.54,364.49 L581.45,364.82 Z M580.46,374.33 L580.73,375.96 L580.46,370.95 L580.46,374.33 Z M584.99,377.28 L589.43,375.71 L595.44,370.71 L595.43,370.70 L588.88,375.83 L585.22,377.09 L584.99,377.28 Z M588.88,385.60 L589.18,389.65 L589.71,378.34 L589.43,375.71 L588.88,385.60 Z M578.62,400.12 L579.12,406.74 L579.72,405.87 L578.62,400.12 Z M589.23,390.30 L589.23,390.30 L592.83,393.64 L589.23,390.30 Z M573.22,386.35 L582.56,381.97 L577.62,383.47 L573.22,386.35 Z M586.78,328.77 L585.04,333.90 L587.98,327.70 L586.78,328.77 Z M597.22,354.18 L597.44,354.42 L597.23,353.81 L597.22,354.18 Z M576.15,324.77 L577.98,323.64 L578.20,322.08 L576.15,324.77 Z M578.38,320.70 L578.72,318.26 L577.85,317.33 L578.38,320.70 Z M623.68,774.49 L628.81,791.27 L619.93,759.47 L623.68,774.49 Z M609.85,857.23 L606.56,831.82 L608.94,850.85 L609.85,857.23 Z M622.15,637.72 L619.10,640.19 L618.76,640.56 L622.15,637.72 Z M621.39,701.52 L609.21,701.02 L621.21,702.44 L621.39,701.52 Z M638.63,698.43 L631.01,699.52 L623.59,701.02 L621.39,701.52 L638.63,698.43 Z M629.27,650.83 L626.76,678.10 L629.18,660.59 L629.27,650.83 Z M610.13,576.98 L604.18,580.61 L610.50,577.61 L610.13,576.98 Z M613.15,566.46 L613.70,571.85 L614.62,575.73 L613.15,566.46 Z M626.52,589.37 L623.96,570.84 L626.71,594.00 L626.52,589.37 Z M623.59,618.91 L623.96,614.65 L623.78,610.15 L623.59,618.91 Z M625.19,598.45 L624.33,594.00 L624.60,598.51 L625.19,598.45 Z M635.04,548.73 L635.04,548.73 L632.51,549.80 L632.52,549.86 L635.04,548.73 Z M633.39,391.60 L636.87,393.11 L632.96,390.73 L633.39,391.60 Z M639.25,400.62 L639.34,398.11 L636.87,393.11 L639.25,400.62 Z M646.67,434.16 L651.25,434.91 L646.38,433.88 L646.67,434.16 Z M651.98,450.81 L651.01,451.13 L654.00,454.44 L651.62,453.69 L654.30,454.83 L651.98,450.81 Z M649.51,458.32 L644.57,461.07 L644.45,460.50 L644.38,461.31 L649.51,458.32 Z M639.80,477.47 L642.09,476.84 L643.28,474.97 L639.80,477.47 Z M642.73,509.26 L640.26,489.86 L642.17,509.66 L642.18,509.51 L643.12,509.73 L642.73,509.26 Z M627.48,380.26 L627.62,380.59 L628.07,380.49 L627.48,380.26 Z M609.66,421.32 L609.95,420.02 L609.03,420.02 L609.66,421.32 Z M606.98,430.02 L611.59,429.53 L607.20,429.66 L606.98,430.02 Z M628.08,409.63 L628.54,419.77 L629.16,418.99 L628.54,418.52 L628.08,409.63 Z M632.57,414.76 L630.09,416.76 L630.06,417.88 L632.57,414.76 Z M631.76,408.43 L630.74,408.63 L630.37,410.88 L628.72,410.51 L630.83,411.13 L631.76,408.43 Z M623.23,490.49 L622.63,488.29 L621.61,487.40 L623.23,490.49 Z M634.22,491.49 L628.26,493.87 L622.68,496.62 L634.22,491.49 Z M615.06,442.00 L615.35,443.17 L623.50,443.05 L615.06,442.00 Z M635.41,451.94 L637.19,451.62 L639.71,449.68 L635.41,451.94 Z M628.35,406.75 L625.61,406.62 L628.99,408.05 L628.35,406.75 Z M614.53,392.36 L615.72,398.86 L616.47,399.31 L615.12,392.07 L614.53,392.36 Z M627.16,348.92 L624.36,344.59 L624.42,344.79 L627.16,348.92 Z M617.87,336.11 L622.68,338.41 L619.01,336.03 L617.87,336.11 Z M663.25,549.57 L664.19,549.61 L665.26,546.94 L663.25,549.57 Z M676.34,543.56 L671.03,549.07 L674.42,545.94 L678.18,543.06 L675.26,543.13 L676.34,543.56 Z M680.28,537.05 L683.67,534.55 L678.08,538.43 L680.28,537.05 Z M682.48,531.42 L676.90,524.82 L683.67,534.55 L682.48,531.42 Z M706.02,553.07 L699.33,536.17 L703.27,546.19 L706.02,553.07 Z M705.01,565.34 L705.19,569.72 L705.65,559.96 L706.02,553.07 L705.01,565.34 Z M735.42,592.00 L742.01,549.19 L738.35,572.47 L735.42,592.00 Z M745.31,548.94 L755.11,547.44 L742.01,549.19 L745.31,548.94 Z M756.48,570.47 L756.39,556.20 L755.11,547.44 L756.48,570.47 Z M735.05,595.50 L744.21,601.51 L738.53,596.50 L735.05,595.50 Z M732.75,632.13 L733.46,631.01 L732.85,631.43 L732.75,632.13 Z M709.96,664.60 L729.55,637.18 L730.30,636.01 L709.96,664.60 Z M736.33,642.32 L733.37,644.89 L741.83,639.31 L751.99,631.68 L736.33,642.32 Z M728.09,646.95 L728.32,648.21 L730.84,646.55 L728.09,646.95 Z M734.50,695.76 L735.60,658.59 L734.96,674.23 L734.50,695.76 Z M737.80,701.90 L740.73,695.64 L738.99,698.27 L737.80,701.90 Z M715.36,700.02 L715.27,706.28 L696.86,706.90 L715.38,706.29 L715.36,700.02 Z M698.58,691.93 L697.96,697.26 L693.65,732.06 L696.86,706.90 L698.58,691.93 Z M692.37,732.56 L694.84,732.19 L693.65,732.06 L692.37,732.56 Z M693.93,743.83 L694.43,745.03 L694.84,739.82 L694.84,732.19 L693.93,743.83 Z M715.08,711.78 L715.41,712.91 L715.40,709.45 L715.08,711.78 Z M713.71,736.94 L715.45,723.80 L715.45,722.71 L713.71,736.94 Z M691.75,756.54 L691.09,756.59 L694.75,770.61 L691.75,756.54 Z M674.21,795.80 L674.06,795.90 L673.14,801.40 L674.21,795.80 Z M693.65,754.72 L694.29,746.71 L693.56,746.71 L693.65,754.72 Z M673.09,696.54 L666.91,730.06 L658.76,784.01 L665.45,739.95 L673.09,696.54 Z M667.28,652.47 L667.55,651.08 L669.34,639.72 L667.28,652.47 Z M680.83,654.58 L683.40,645.95 L686.24,632.80 L680.83,654.58 Z M696.86,651.33 L693.47,649.95 L683.40,645.95 L696.86,651.33 Z M694.30,647.82 L695.75,648.11 L693.35,646.43 L693.47,649.95 L694.30,647.82 Z M705.47,667.85 L704.03,665.60 L703.58,666.74 L705.47,667.85 Z M703.37,667.28 L700.61,674.36 L700.28,677.27 L703.37,667.28 Z M673.74,586.44 L672.86,586.37 L670.12,588.62 L673.74,586.44 Z M690.91,604.01 L691.09,602.26 L687.76,598.09 L690.91,604.01 Z M693.29,644.82 L693.31,645.53 L695.67,640.31 L693.29,644.82 Z M710.23,610.40 L714.17,613.53 L716.82,614.65 L710.23,610.40 Z M716.71,633.57 L717.47,631.30 L716.55,619.91 L716.71,633.57 Z M671.22,627.80 L673.87,628.82 L672.96,627.17 L671.22,627.80 Z M680.65,631.43 L682.48,627.55 L685.87,615.28 L680.65,631.43 Z M694.02,614.15 L696.22,614.40 L694.67,613.64 L694.02,614.15 Z M692.46,634.43 L695.49,620.91 L695.31,619.24 L692.46,634.43 Z M649.14,569.59 L647.11,570.62 L647.40,571.10 L649.14,569.59 Z M649.33,576.60 L651.98,567.34 L650.15,572.72 L649.14,569.59 L649.33,576.60 Z M648.69,609.65 L651.43,584.99 L650.64,584.58 L648.69,609.65 Z M683.16,567.33 L685.41,566.34 L686.88,563.33 L683.21,567.22 L683.16,567.33 Z M666.73,556.20 L663.98,554.82 L662.52,554.32 L664.16,555.82 L666.73,556.20 Z M736.79,546.31 L735.78,550.69 L740.27,534.05 L736.79,546.31 Z M735.23,527.04 L728.64,529.54 L735.68,527.11 L735.23,527.04 Z M648.78,488.36 L649.51,484.88 L649.14,485.36 L648.78,488.36 Z M704.83,514.77 L700.42,517.84 L701.26,517.90 L704.83,514.77 Z M687.95,513.13 L683.31,503.00 L686.60,511.77 L687.95,513.13 Z M691.88,521.72 L690.31,518.29 L690.91,520.78 L691.88,521.72 Z M694.94,524.65 L694.94,524.66 L698.37,519.28 L696.40,520.65 L694.94,524.65 Z M657.57,506.26 L655.65,507.01 L657.20,507.19 L657.57,506.26 Z M656.29,509.51 L657.00,507.70 L655.92,508.26 L656.29,509.51 Z M672.04,541.06 L669.66,540.93 L672.57,542.07 L672.04,541.06 Z M699.15,505.01 L701.71,497.37 L699.42,501.75 L699.15,505.01 Z M668.38,413.38 L666.72,413.89 L673.51,416.64 L668.38,413.38 Z M654.64,481.85 L651.89,481.85 L650.81,483.23 L654.64,481.85 Z M658.94,456.82 L657.75,455.06 L656.18,455.64 L658.94,456.82 Z M768.20,591.62 L767.65,586.24 L767.56,592.00 L764.17,594.13 L768.20,591.62 Z M772.33,600.84 L767.38,595.88 L772.33,600.84 L772.33,600.84 Z M791.74,600.01 L795.86,599.01 L792.29,599.51 L794.30,591.87 L791.74,600.01 Z M802.27,571.97 L804.38,572.85 L801.88,571.26 L802.36,581.98 L802.27,571.97 Z M812.53,565.96 L808.41,566.71 L817.38,565.34 L812.53,565.96 Z M853.54,592.52 L848.52,597.00 L853.54,592.52 L853.54,592.52 Z M889.55,567.47 L890.38,566.34 L879.02,578.35 L878.57,579.10 L889.55,567.47 Z M911.81,597.76 L896.60,576.73 L889.55,567.47 L911.81,597.76 Z M741.49,657.84 L746.50,657.21 L741.46,657.34 L741.49,657.84 Z M748.24,660.72 L750.71,660.97 L753.46,658.46 L748.24,660.72 Z M760.14,670.10 L760.37,671.03 L760.86,668.91 L760.14,670.10 Z M761.28,674.82 L762.07,678.11 L762.61,678.15 L761.28,674.82 Z M746.13,612.03 L744.85,615.65 L745.31,617.44 L746.13,612.03 Z M762.62,621.74 L760.51,625.54 L760.42,626.90 L762.62,621.74 Z M762.89,650.45 L759.41,642.82 L764.72,654.71 L762.89,650.45 Z M760.49,531.07 L760.55,531.18 L763.17,531.92 L766.55,530.16 L763.90,530.64 L764.27,531.29 L760.49,531.07 Z M770.88,529.38 L771.04,529.79 L773.42,528.91 L770.88,529.38 Z M782.95,551.32 L782.53,552.33 L783.62,550.86 L782.95,551.32 Z M786.81,548.68 L791.07,547.79 L787.34,548.31 L786.81,548.68 Z M838.72,541.56 L832.13,526.41 L828.28,533.54 L831.76,527.66 L838.72,541.56 Z M842.57,553.20 L839.36,558.08 L844.17,551.62 L842.57,553.20 Z M747.41,585.49 L747.05,581.61 L745.77,569.22 L747.41,585.49 Z M772.42,547.56 L777.09,550.69 L766.46,542.81 L772.42,547.56 Z M779.01,560.71 L777.64,573.85 L780.16,557.97 L779.01,560.71 Z M749.11,500.13 L749.11,500.13 L741.09,501.38 L749.11,500.13 Z M762.53,505.88 L762.65,504.59 L759.96,506.01 L762.53,505.88 Z M778.92,509.39 L778.12,508.93 L779.16,510.13 L781.02,508.01 L778.92,509.39 Z M782.12,509.64 L787.44,514.27 L785.51,511.89 L781.02,508.01 L782.12,509.64 Z M744.85,485.11 L754.10,479.22 L755.74,477.77 L740.18,488.11 L744.85,485.11 Z M768.57,475.74 L768.09,478.18 L768.57,478.72 L768.57,475.74 Z M769.12,472.96 L768.94,473.88 L779.01,481.73 L769.12,472.96 Z M773.79,486.11 L773.19,485.67 L787.80,507.64 L773.79,486.11 Z M735.83,460.68 L735.83,460.68 L737.61,457.94 L735.83,460.68 Z M566.63,281.08 L567.82,264.06 L567.73,253.29 L566.63,281.08 Z M433.20,115.96 L431.27,108.98 L431.63,113.23 L427.97,108.35 L433.20,115.96 Z M406.36,116.74 L402.51,113.36 L404.25,115.74 L406.36,116.74 Z M398.75,160.55 L397.11,163.30 L397.39,164.78 L398.75,160.55 Z M401.17,179.73 L400.31,179.95 L399.94,183.08 L401.17,179.73 Z M408.46,207.11 L397.47,217.75 L399.94,216.24 L408.46,207.11 Z M399.21,232.14 L406.36,226.38 L401.41,228.89 L395.09,236.15 L399.21,232.14 Z M413.17,229.49 L413.87,228.89 L415.06,226.63 L413.17,229.49 Z M411.18,257.56 L409.65,270.19 L409.92,270.56 L411.18,257.56 Z M412.31,276.33 L413.13,274.95 L410.78,276.46 L414.05,276.83 L412.31,276.33 Z M399.65,300.28 L399.03,302.99 L399.94,301.98 L399.65,300.28 Z M399.94,316.00 L398.10,316.89 L402.23,317.63 L399.94,316.00 Z M367.55,150.15 L366.70,146.53 L362.85,137.76 L367.55,150.15 Z M362.85,190.46 L366.97,190.21 L364.68,189.58 L362.85,190.46 Z M360.29,196.97 L359.83,189.08 L358.93,187.60 L360.66,200.97 L360.29,196.97 Z M355.71,221.63 L357.08,230.85 L357.08,223.44 L356.53,223.88 L355.71,221.63 Z M364.04,282.08 L362.40,254.92 L362.03,260.30 L364.04,282.08 Z M353.88,287.97 L354.61,315.38 L354.15,294.72 L353.88,287.97 Z M349.48,288.34 L338.86,289.72 L353.88,287.97 L349.48,288.34 Z M347.74,319.13 L353.69,317.13 L352.69,320.88 L354.61,315.38 L347.74,319.13 Z M354.62,336.47 L354.89,331.15 L352.69,320.88 L354.62,336.47 Z M355.89,346.79 L355.71,340.54 L355.10,340.36 L355.89,346.79 Z M359.28,362.19 L360.61,363.77 L355.89,346.79 L359.28,362.19 Z M368.55,394.19 L368.62,393.48 L365.51,392.48 L368.55,394.19 Z M281.44,196.84 L280.89,202.85 L277.22,248.91 L281.44,196.84 Z M292.79,185.70 L293.18,184.53 L281.44,196.84 L292.79,185.70 Z M303.60,181.45 L300.67,180.07 L289.13,181.45 L294.35,180.95 L303.60,181.45 Z M308.82,191.96 L301.40,186.71 L305.80,190.84 L308.82,191.96 Z M318.53,181.70 L314.59,185.58 L308.82,191.96 L318.53,181.70 Z M335.67,173.71 L333.64,175.44 L335.29,175.18 L335.67,173.71 Z M304.88,289.22 L316.88,282.83 L311.75,284.59 L304.88,289.22 Z M331.23,256.85 L334.37,264.81 L331.90,257.30 L331.23,256.85 Z M338.95,270.19 L339.14,269.93 L334.37,264.81 L338.95,270.19 Z M325.12,276.07 L321.00,276.70 L325.50,276.38 L325.12,276.07 Z M327.14,277.70 L326.44,277.14 L328.42,284.59 L327.14,277.70 Z M335.82,286.60 L334.83,285.59 L335.10,286.96 L335.82,286.60 Z M311.75,218.25 L315.41,214.49 L319.81,208.36 L311.75,218.25 Z M357.54,185.33 L355.25,187.46 L358.14,186.31 L357.54,185.33 Z M288.23,128.87 L288.67,129.13 L288.78,128.06 L288.23,128.87 Z M313.76,121.24 L314.59,125.12 L313.12,116.61 L313.76,121.24 Z M352.41,143.52 L352.46,143.56 L353.05,140.39 L352.41,143.52 Z M297.10,171.43 L297.78,171.43 L296.09,168.68 L297.10,171.43 Z M317.06,158.79 L313.95,152.66 L315.96,156.66 L311.84,157.67 L315.50,157.17 L317.06,158.79 Z M336.16,171.84 L336.29,171.31 L335.84,168.68 L336.16,171.84 Z M311.11,144.52 L308.64,146.03 L307.54,146.90 L311.11,144.52 Z M347.10,127.13 L352.23,129.63 L341.88,123.25 L347.10,127.13 Z M293.89,107.97 L296.64,104.47 L294.07,106.10 L293.89,107.97 Z M344.17,100.21 L341.60,95.13 L341.97,96.71 L344.17,100.21 Z M358.09,222.63 L357.75,222.90 L363.86,224.26 L358.09,222.63 Z M364.86,219.55 L359.52,218.11 L359.51,218.15 L365.23,220.36 L364.86,219.55 Z M392.16,232.52 L392.34,236.06 L392.34,236.06 L392.16,229.64 L392.16,232.52 Z M387.98,256.79 L394.54,254.42 L387.98,256.79 L387.98,256.79 Z M375.58,300.48 L375.90,300.62 L375.40,297.10 L375.58,300.48 Z M370.73,325.39 L372.56,324.77 L363.68,323.76 L370.73,325.39 Z M381.17,336.91 L385.93,337.41 L381.27,336.06 L381.17,336.91 Z M365.28,365.04 L362.05,365.45 L365.25,366.37 L365.28,365.04 Z M361.57,233.89 L362.67,233.02 L361.96,232.75 L361.57,233.89 Z M364.32,232.39 L367.43,230.39 L361.57,233.89 L364.32,232.39 Z M364.77,226.37 L364.87,228.26 L367.43,230.39 L364.77,226.37 Z M370.36,234.39 L372.19,232.02 L370.31,234.40 L370.36,234.39 Z M383.28,255.67 L387.58,252.79 L390.15,250.92 L383.28,255.67 Z M363.89,225.05 L364.14,232.02 L364.59,226.11 L363.89,225.05 Z M369.08,185.95 L373.57,185.45 L378.84,184.65 L369.08,185.95 Z M383.64,175.44 L390.97,163.42 L391.61,162.30 L383.64,175.44 Z M388.31,211.11 L387.45,210.72 L387.97,213.71 L390.79,203.35 L388.31,211.11 Z M361.14,212.99 L361.11,213.08 L361.94,215.12 L364.44,216.72 L361.14,212.99 Z M363.42,103.82 L363.42,103.82 L362.40,106.85 L363.42,103.82 Z M363.32,103.34 L362.94,101.47 L360.99,98.70 L361.02,99.96 L363.32,103.34 Z M451.41,80.69 L446.47,94.96 L452.42,78.56 L451.41,80.69 Z M442.34,93.82 L439.78,99.59 L442.07,95.46 L442.34,93.82 Z M468.27,126.12 L473.49,124.00 L468.15,126.13 L468.27,126.12 Z M467.99,133.38 L468.91,131.76 L468.10,130.59 L467.99,133.38 Z M469.33,139.02 L470.37,140.02 L469.37,139.02 L469.33,139.02 Z M465.79,139.52 L459.29,146.40 L466.81,139.37 L465.79,139.52 Z M462.94,177.66 L462.31,175.94 L460.55,175.22 L462.94,177.66 Z M462.50,199.85 L464.51,181.95 L464.16,180.99 L462.50,199.85 Z M465.52,182.20 L472.75,174.19 L464.51,181.95 L465.52,182.20 Z M466.07,189.83 L472.94,204.73 L466.07,187.33 L465.52,182.20 L466.07,189.83 Z M463.79,218.82 L468.45,214.49 L463.41,217.12 L463.79,218.82 Z M469.09,258.30 L469.00,270.57 L469.16,255.97 L469.09,258.30 Z M469.09,275.07 L469.06,276.26 L472.02,272.57 L469.09,275.07 Z M466.71,291.47 L468.54,296.23 L465.98,288.97 L466.71,291.47 Z M441.62,171.94 L450.41,171.06 L445.55,171.43 L441.62,171.94 Z M437.22,233.64 L437.04,224.76 L436.40,245.66 L437.22,233.64 Z M433.83,246.54 L450.96,244.53 L436.40,245.66 L433.83,246.54 Z M458.19,228.01 L454.71,226.01 L460.57,229.39 L458.19,228.01 Z M416.25,281.33 L417.53,286.71 L418.77,287.27 L416.25,281.33 Z M428.24,307.49 L428.05,307.54 L434.11,307.62 L428.24,307.49 Z M446.56,307.74 L447.02,316.63 L447.11,302.86 L446.56,307.74 Z M406.63,318.01 L406.59,315.60 L406.54,315.75 L406.63,318.01 Z M428.62,339.50 L427.60,339.91 L426.96,343.16 L428.62,339.50 Z M433.46,336.78 L429.85,336.90 L429.85,336.90 L433.46,336.78 Z M435.20,339.41 L435.27,338.82 L433.56,339.28 L435.20,339.41 Z M442.71,338.03 L442.67,336.79 L438.86,337.84 L442.71,338.03 Z M448.26,340.77 L449.86,335.40 L448.03,340.41 L448.26,340.77 Z M408.19,310.50 L407.53,312.59 L408.28,312.37 L408.19,310.50 Z M423.62,308.71 L420.18,309.62 L423.56,309.27 L423.62,308.71 Z M423.66,283.46 L423.66,280.46 L422.38,286.46 L423.66,283.46 Z M428.24,279.70 L428.43,277.83 L426.23,284.34 L428.24,279.70 Z M433.37,280.71 L433.01,278.83 L432.81,278.79 L433.37,280.71 Z M420.55,152.03 L421.22,155.17 L420.74,151.16 L420.55,152.03 Z M432.37,150.66 L421.09,149.58 L421.08,149.63 L432.29,151.81 L432.37,150.66 Z M437.89,154.07 L437.86,154.66 L439.88,154.79 L437.89,154.07 Z M424.86,193.71 L412.31,201.98 L426.87,192.84 L428.06,189.83 L424.86,193.71 Z M433.28,194.22 L437.49,195.59 L428.06,189.83 L433.28,194.22 Z M443.55,193.73 L440.06,183.83 L443.54,193.71 L443.55,193.73 Z M431.08,178.70 L432.37,180.32 L440.06,183.83 L431.08,178.70 Z M426.51,182.38 L423.48,183.45 L426.60,183.45 L426.51,182.38 Z M423.89,167.65 L424.49,170.43 L427.59,174.33 L423.89,167.65 Z M437.86,90.58 L429.80,91.70 L433.65,91.20 L437.86,90.58 Z M433.38,116.22 L433.74,116.74 L437.40,115.61 L433.38,116.22 Z M453.55,129.75 L445.65,129.75 L450.77,130.88 L453.55,129.75 Z M438.78,57.78 L436.17,52.31 L442.16,70.80 L438.78,57.78 Z M489.97,235.77 L486.55,235.14 L503.07,243.66 L489.97,235.77 Z M522.94,233.27 L521.36,232.90 L524.08,234.78 L522.94,233.27 Z M524.77,204.23 L531.93,218.90 L532.10,218.25 L524.77,204.23 Z M555.91,193.09 L555.18,205.61 L554.90,214.49 L555.91,193.09 Z M569.19,229.89 L566.08,219.25 L568.46,228.14 L569.19,229.89 Z M489.70,255.05 L492.17,261.68 L492.98,261.68 L489.70,255.05 Z M493.53,262.79 L493.36,285.71 L493.54,262.81 L493.53,262.79 Z M526.51,253.04 L526.79,258.55 L526.68,250.80 L526.51,253.04 Z M539.24,262.53 L543.91,262.93 L545.13,261.71 L539.24,262.53 Z M485.11,290.50 L488.05,291.10 L484.98,289.86 L485.11,290.50 Z M507.77,285.11 L507.56,285.71 L508.38,285.88 L507.77,285.11 Z M508.66,284.59 L508.73,282.42 L507.85,284.89 L508.66,284.59 Z M572.06,263.12 L575.51,263.68 L576.88,262.06 L572.06,263.12 Z M577.07,258.30 L577.25,253.04 L577.02,258.62 L581.65,257.42 L577.07,258.30 Z M591.45,262.93 L592.00,268.94 L592.46,269.38 L591.45,262.93 Z M592.81,271.65 L591.26,278.20 L592.82,271.69 L592.81,271.65 Z M526.55,240.59 L526.51,238.02 L525.62,236.83 L526.55,240.59 Z M546.89,230.03 L543.64,233.77 L546.11,231.89 L546.89,230.03 Z M550.97,223.00 L550.15,224.53 L553.35,223.50 L550.97,223.00 Z M554.91,249.04 L553.81,242.78 L554.35,248.41 L554.91,249.04 Z M491.35,198.35 L496.10,202.42 L495.10,200.60 L491.35,198.35 Z M505.82,210.74 L505.33,213.85 L507.01,207.36 L505.82,210.74 Z M511.40,209.36 L512.96,211.36 L513.75,210.86 L511.40,209.36 Z M514.50,210.37 L516.07,209.36 L517.36,204.35 L514.50,210.37 Z M520.19,203.98 L520.10,202.60 L519.10,202.23 L520.19,203.98 Z M520.01,189.96 L532.69,190.19 L532.10,189.08 L520.01,189.96 Z M498.07,208.76 L491.44,208.11 L497.94,209.11 L498.07,208.76 Z M480.54,172.69 L480.43,171.87 L477.24,174.56 L480.54,172.69 Z M484.24,168.71 L484.02,163.42 L484.20,168.68 L484.24,168.71 Z M504.72,188.33 L504.71,188.36 L507.74,185.45 L504.72,188.33 Z M528.99,185.58 L529.92,172.75 L528.99,173.44 L528.99,185.58 Z M503.63,191.59 L502.94,193.65 L503.80,193.34 L503.63,191.59 Z M502.22,195.81 L501.42,198.22 L502.43,198.10 L502.22,195.81 Z" /></g></svg>