<svg xmlns="http://www.w3.org/2000/svg" viewBox="0 0 1000 1000" width="1000" height="1000"><g fill="#cccccc" stroke="#222" stroke-width="2"><path d="M641.63,813.57 L639.22,810.93 L642.16,811.36 L643.41,813.76 L641.63,813.57 Z M672.66,771.45 L673.71,769.79 L675.18,769.85 L674.76,771.02 L672.66,771.45 Z M719.94,729.39 L721.10,728.84 L721.62,729.82 L720.99,729.88 L719.94,729.39 Z M263.28,931.13 L260.14,916.17 L261.92,927.69 L234.35,916.72 L239.17,880.76 L227.54,879.96 L200.70,881.50 L189.38,886.12 L186.13,885.19 L183.19,885.87 L178.79,883.53 L153.00,879.04 L136.96,862.22 L131.61,859.70 L114.11,831.13 L51.62,827.92 L51.10,825.64 L46.28,822.07 L40.93,814.38 L34.96,812.16 L19.55,799.66 L22.17,797.26 L19.23,793.56 L21.33,789.00 L20.17,781.80 L30.34,774.47 L44.50,776.19 L47.85,775.09 L54.04,774.90 L60.01,771.70 L66.93,770.28 L73.12,770.90 L88.95,768.80 L93.98,769.67 L97.02,767.14 L128.78,759.63 L136.85,759.51 L142.10,761.41 L152.16,757.72 L157.30,753.29 L166.84,740.29 L175.54,739.12 L170.30,733.89 L169.46,728.22 L166.00,723.73 L164.22,721.94 L165.58,720.28 L164.22,717.57 L146.60,712.33 L140.21,709.38 L136.02,700.14 L146.08,688.26 L141.47,684.31 L136.75,684.62 L130.67,683.51 L127.42,681.85 L110.65,681.60 L106.35,680.62 L90.20,675.08 L90.10,671.57 L96.91,668.73 L101.63,658.63 L111.48,658.63 L117.67,655.80 L125.22,650.26 L126.37,643.12 L123.12,637.64 L128.05,624.58 L126.06,619.22 L128.89,614.60 L132.66,613.25 L136.64,606.97 L134.13,599.45 L138.11,592.50 L138.01,586.95 L133.08,583.14 L134.97,577.35 L144.40,569.65 L153.84,564.05 L157.51,554.75 L153.31,547.17 L157.30,542.80 L157.93,539.91 L165.79,535.16 L168.72,529.01 L173.34,527.83 L179.84,527.77 L186.34,520.45 L187.49,516.44 L185.29,514.23 L185.92,512.25 L182.46,510.16 L183.82,505.54 L177.74,501.60 L179.42,497.48 L175.33,496.31 L173.97,493.78 L170.30,492.73 L167.68,490.09 L156.04,483.31 L147.86,480.91 L147.76,478.57 L152.06,479.12 L159.50,474.63 L164.64,474.94 L167.47,474.14 L171.24,468.41 L168.30,464.10 L178.89,461.82 L181.62,458.92 L192.52,458.43 L197.13,459.17 L198.18,457.63 L203.21,457.32 L205.10,454.37 L201.12,451.78 L200.07,449.26 L195.14,447.04 L193.88,445.38 L195.25,443.53 L192.00,441.50 L192.42,440.45 L189.17,438.17 L184.66,437.56 L187.18,431.40 L193.78,425.55 L193.78,422.47 L197.45,419.94 L194.51,415.69 L191.37,415.02 L188.75,412.86 L182.14,411.26 L177.22,408.18 L173.97,403.25 L180.68,397.40 L177.22,391.31 L181.09,388.29 L176.69,385.15 L177.32,379.36 L175.54,376.96 L176.06,374.93 L178.89,373.08 L177.84,370.99 L182.35,369.57 L173.86,363.66 L168.83,363.53 L167.15,361.63 L162.43,362.67 L162.22,360.58 L159.92,359.10 L156.46,358.30 L154.15,359.22 L153.52,357.68 L159.29,355.04 L156.88,353.56 L156.88,348.26 L151.22,342.41 L150.48,339.70 L156.77,331.27 L159.60,331.20 L161.49,329.79 L161.18,326.59 L163.38,324.43 L161.81,321.35 L156.35,320.12 L159.50,318.46 L159.29,314.15 L152.27,312.79 L151.01,311.27 L150.06,311.31 L146.08,306.57 L151.85,302.88 L153.31,298.26 L149.23,298.20 L148.18,296.53 L142.41,293.89 L145.87,290.68 L145.98,288.47 L156.35,283.36 L156.04,282.12 L160.65,277.32 L173.34,270.12 L174.49,263.22 L184.66,258.91 L187.07,258.97 L187.38,257.49 L190.74,255.95 L196.40,257.00 L197.55,258.41 L214.75,260.94 L219.99,271.72 L215.79,261.62 L217.68,259.95 L225.33,258.17 L228.17,247.76 L232.36,245.91 L235.82,247.33 L241.58,247.45 L246.41,243.88 L256.99,242.65 L262.13,245.30 L270.31,246.34 L273.35,247.82 L274.40,250.47 L276.60,251.76 L274.61,254.60 L278.80,258.41 L281.95,257.31 L283.94,258.48 L287.82,255.70 L294.42,256.63 L300.61,259.52 L300.82,261.74 L307.63,264.39 L315.49,265.37 L314.76,266.67 L318.01,269.07 L328.28,269.81 L331.32,272.46 L336.77,272.82 L345.68,275.10 L353.13,275.04 L350.51,273.63 L353.23,269.81 L352.39,266.67 L358.79,265.00 L361.62,258.91 L340.55,251.15 L349.56,244.50 L354.18,243.02 L355.75,242.34 L355.96,238.34 L357.74,237.48 L361.51,237.72 L355.64,232.24 L356.27,229.90 L366.23,220.79 L373.88,218.45 L381.43,206.69 L377.03,204.72 L378.60,200.28 L375.98,196.83 L372.21,197.26 L367.18,196.46 L362.04,192.09 L351.55,190.67 L346.52,188.40 L344.01,180.94 L350.61,173.74 L357.95,169.18 L366.23,168.26 L373.47,170.60 L379.02,169.80 L392.23,161.05 L396.11,159.82 L399.57,147.26 L386.05,140.36 L387.20,137.65 L393.38,136.30 L404.08,135.87 L408.48,133.10 L415.08,132.54 L429.03,126.63 L435.53,129.83 L447.90,132.48 L450.83,132.73 L454.08,131.43 L458.70,133.28 L466.14,134.02 L472.74,129.95 L475.78,129.40 L477.98,128.42 L475.05,125.52 L476.31,122.93 L474.00,121.03 L479.77,120.04 L493.29,114.56 L497.27,111.60 L502.83,111.91 L503.88,110.25 L509.33,109.26 L502.62,107.23 L503.04,105.14 L509.02,104.09 L514.68,101.13 L522.12,101.94 L524.11,100.95 L529.14,100.83 L528.20,96.39 L530.09,95.10 L533.65,96.21 L537.95,94.36 L544.97,95.22 L547.39,94.48 L551.58,96.08 L554.41,93.01 L559.34,90.60 L564.79,93.01 L565.63,94.73 L574.43,97.01 L578.73,96.39 L585.75,91.84 L584.08,85.74 L596.76,81.80 L596.55,79.95 L601.37,78.35 L601.90,74.65 L606.30,69.05 L610.39,67.70 L611.33,62.71 L619.62,64.37 L634.82,73.11 L650.02,59.14 L652.11,54.46 L656.52,52.67 L658.72,47.87 L662.28,45.71 L667.11,44.97 L673.61,45.65 L676.02,43.86 L680.31,45.10 L694.57,42.51 L698.35,43.80 L706.21,43.12 L712.71,44.54 L716.38,48.79 L724.24,52.73 L728.01,53.72 L730.32,51.38 L738.71,48.30 L746.78,44.91 L751.08,41.83 L753.91,41.28 L752.65,39.43 L756.21,38.07 L760.20,38.01 L771.42,41.77 L779.70,40.48 L785.99,41.71 L789.76,40.85 L798.67,39.12 L803.70,36.23 L806.74,37.64 L811.25,37.58 L819.12,35.18 L819.64,37.83 L823.83,39.74 L825.93,37.64 L831.38,36.47 L835.36,31.49 L837.15,32.10 L843.75,31.30 L846.27,32.66 L849.83,29.21 L855.07,26.62 L864.40,25.94 L868.28,24.77 L868.81,21.82 L872.06,19.23 L881.18,25.27 L882.85,27.61 L896.27,35.00 L884.64,38.94 L875.52,39.61 L872.48,38.69 L868.81,40.72 L863.46,48.24 L863.77,50.08 L873.00,52.98 L867.65,53.10 L865.35,55.26 L865.87,63.26 L873.31,78.35 L889.67,100.27 L910.43,120.84 L913.36,122.69 L917.87,123.18 L926.78,120.53 L923.32,125.21 L920.49,125.46 L919.65,127.43 L935.38,141.90 L939.88,143.07 L945.86,142.70 L950.79,140.55 L951.00,143.26 L953.62,145.35 L958.02,143.07 L961.06,143.32 L962.63,142.52 L964.94,143.07 L968.82,147.63 L971.33,148.31 L968.40,152.06 L972.38,153.66 L972.91,155.14 L970.60,154.40 L967.87,155.39 L965.15,153.54 L961.06,154.65 L957.39,154.09 L955.61,155.39 L949.11,155.14 L945.23,159.21 L944.29,163.70 L947.12,165.67 L942.82,169.86 L945.75,170.60 L944.92,171.28 L946.70,172.63 L945.02,174.42 L948.27,177.13 L943.66,177.19 L943.34,180.08 L945.75,181.01 L939.25,183.96 L939.36,186.92 L945.75,187.84 L947.96,186.49 L946.28,190.67 L948.79,191.72 L945.54,193.57 L950.68,197.02 L949.63,200.90 L950.89,203.11 L950.05,204.78 L946.38,206.62 L943.87,206.62 L942.71,207.92 L937.68,199.67 L934.75,201.02 L929.82,198.74 L928.25,199.60 L925.10,198.93 L924.05,194.12 L921.54,194.43 L922.17,191.78 L924.37,190.74 L922.69,188.27 L924.47,185.19 L923.74,182.79 L919.76,181.56 L916.61,183.47 L914.30,182.92 L911.79,179.96 L908.01,181.19 L905.71,180.33 L906.02,176.94 L903.51,171.95 L898.37,168.26 L899.00,165.80 L904.97,164.26 L909.17,165.12 L910.53,164.44 L909.90,163.21 L916.82,164.38 L918.71,162.10 L918.08,160.56 L913.89,160.07 L918.08,159.14 L917.97,150.28 L915.88,142.09 L914.72,140.61 L913.47,142.15 L911.68,142.02 L909.48,138.45 L905.29,137.04 L904.76,132.91 L902.46,132.97 L899.00,135.68 L899.63,137.84 L902.77,140.18 L901.41,142.27 L896.48,141.04 L887.47,141.66 L882.85,140.49 L881.39,138.88 L875.10,140.05 L872.79,143.38 L877.72,148.98 L876.88,150.46 L871.43,151.94 L874.99,155.94 L870.80,158.84 L867.13,155.94 L868.60,153.60 L864.82,152.31 L860.94,152.37 L860.63,148.55 L856.65,146.09 L850.57,147.20 L843.33,152.92 L842.18,150.09 L838.51,146.95 L833.69,145.90 L835.15,145.17 L840.71,146.21 L845.74,144.30 L849.73,144.24 L853.40,138.33 L852.56,136.30 L854.97,132.17 L861.15,126.57 L863.67,126.51 L864.09,129.77 L865.56,130.63 L870.17,130.69 L871.32,129.71 L872.89,130.32 L876.04,128.48 L878.35,124.60 L876.67,122.44 L879.92,120.16 L884.74,119.61 L887.36,115.11 L885.79,112.96 L882.12,112.47 L875.52,104.52 L872.06,99.53 L867.13,95.78 L864.72,88.76 L863.25,88.82 L859.27,84.20 L860.52,83.03 L859.16,82.48 L859.69,74.47 L861.57,70.04 L859.16,64.80 L856.75,63.69 L858.53,62.15 L850.25,62.52 L850.04,61.72 L841.13,63.45 L836.83,65.66 L837.04,66.34 L834.32,70.16 L834.74,75.33 L831.59,75.70 L832.01,76.81 L830.65,78.47 L832.64,80.20 L829.07,83.71 L824.57,82.54 L819.43,82.84 L814.19,85.99 L811.04,85.18 L806.74,87.22 L806.01,88.63 L798.36,92.51 L796.05,96.15 L784.10,103.29 L782.00,102.00 L779.49,103.41 L776.03,105.32 L777.81,106.37 L772.99,108.59 L770.47,111.54 L771.63,112.10 L767.96,112.47 L767.54,115.61 L764.71,116.84 L760.72,116.96 L757.68,121.64 L752.13,121.95 L750.87,120.78 L747.83,120.78 L735.14,124.10 L726.44,128.17 L724.66,131.62 L719.84,135.74 L709.77,143.01 L709.46,146.46 L711.66,147.63 L715.43,151.14 L713.13,152.37 L715.12,153.11 L714.07,154.65 L712.71,154.34 L710.72,156.07 L706.31,153.97 L702.43,154.09 L699.92,156.37 L695.83,157.48 L688.60,166.23 L689.54,169.37 L691.43,169.31 L695.10,172.51 L700.02,171.34 L704.11,174.29 L701.18,177.31 L700.55,180.64 L698.14,181.87 L701.60,183.22 L700.13,187.41 L703.06,188.33 L702.43,190.61 L698.98,191.78 L690.48,191.84 L700.65,191.97 L693.73,199.67 L693.63,201.51 L696.35,204.22 L700.44,205.27 L702.02,203.42 L708.62,203.24 L713.44,201.82 L715.12,199.42 L719.52,199.23 L718.58,198.62 L722.98,193.08 L728.12,190.06 L733.99,188.70 L734.62,190.37 L738.18,192.09 L744.37,193.26 L746.46,196.83 L744.26,199.48 L745.94,200.59 L741.33,199.73 L737.03,201.02 L732.84,207.36 L730.53,215.98 L730.53,225.10 L733.47,231.07 L738.29,233.60 L737.66,236.12 L739.55,240.62 L744.89,241.91 L746.78,240.99 L752.96,242.16 L766.70,248.75 L779.70,255.03 L783.58,252.69 L780.33,250.59 L784.31,252.69 L788.50,253.00 L795.00,258.72 L799.51,259.28 L800.24,261.12 L798.99,261.86 L800.98,262.73 L796.16,264.76 L797.73,266.97 L796.47,269.68 L790.81,273.07 L793.22,274.92 L793.01,277.44 L788.71,280.34 L788.40,282.74 L791.44,289.08 L795.95,293.33 L798.78,294.01 L802.24,292.53 L806.12,296.60 L812.93,297.83 L824.88,297.03 L830.44,299.74 L831.17,301.52 L834.84,303.55 L838.30,303.99 L842.28,302.69 L843.86,303.55 L847.11,307.00 L847.53,309.90 L842.70,315.25 L836.10,314.95 L830.44,317.47 L835.57,321.47 L832.43,324.61 L824.67,321.91 L823.73,318.03 L819.32,317.23 L818.91,315.38 L814.61,314.33 L811.88,315.13 L811.36,317.16 L805.70,320.18 L804.96,327.94 L802.87,330.77 L804.23,335.64 L802.45,337.18 L799.93,337.49 L796.05,341.18 L784.41,338.96 L781.48,337.30 L781.69,334.71 L779.70,333.42 L774.88,334.41 L772.78,333.48 L770.37,333.85 L762.71,331.02 L762.09,325.23 L765.23,325.17 L766.80,322.95 L760.09,319.75 L746.26,310.27 L744.58,306.63 L743.22,304.66 L738.29,304.85 L738.60,303.12 L736.30,300.97 L737.45,300.17 L731.16,300.60 L725.39,297.77 L724.87,296.84 L727.18,296.04 L725.60,296.16 L720.99,292.59 L718.16,292.16 L713.65,288.10 L710.93,287.97 L706.52,284.53 L696.25,283.36 L688.70,278.37 L686.08,278.67 L672.98,272.52 L674.86,273.93 L674.55,275.66 L672.24,275.60 L670.88,278.18 L667.21,278.98 L668.15,281.02 L663.44,283.29 L661.86,285.57 L656.94,288.16 L653.37,293.33 L657.25,296.23 L655.68,296.90 L655.57,300.72 L660.50,303.92 L660.50,305.03 L669.10,306.45 L670.15,303.06 L676.12,306.20 L678.53,304.85 L682.94,305.09 L682.83,306.26 L688.28,307.25 L690.59,309.40 L696.98,308.73 L696.67,310.94 L698.56,311.56 L698.45,313.65 L700.13,314.70 L695.10,321.66 L697.40,328.49 L694.47,332.68 L697.93,335.27 L696.46,340.01 L703.06,343.03 L700.76,343.95 L700.76,347.22 L708.72,349.86 L710.09,353.50 L712.18,354.79 L713.34,354.36 L721.20,356.14 L722.14,358.24 L726.44,359.22 L735.14,364.52 L743.32,366.12 L735.67,372.34 L730.01,373.20 L720.36,372.03 L706.73,375.05 L702.12,380.41 L701.81,385.09 L703.27,386.38 L706.00,386.07 L705.89,386.94 L706.00,389.46 L700.97,390.82 L698.66,392.85 L695.62,400.67 L697.09,409.04 L700.97,415.20 L706.42,419.94 L709.56,421.67 L710.72,421.05 L709.77,421.98 L716.48,424.07 L717.22,425.18 L715.01,426.53 L716.48,426.59 L717.64,428.50 L715.12,426.96 L715.22,429.43 L714.18,432.08 L715.22,432.51 L707.68,436.45 L705.79,437.86 L708.93,440.70 L707.05,446.05 L704.22,448.58 L700.44,447.53 L697.09,449.13 L699.71,449.38 L699.92,450.86 L696.77,450.98 L696.77,451.84 L700.86,452.27 L699.92,453.44 L708.10,456.46 L711.24,456.40 L720.47,459.29 L722.46,461.20 L723.51,467.48 L717.11,467.92 L713.55,470.01 L711.24,478.51 L705.68,481.53 L695.20,481.77 L693.21,486.94 L693.84,499.01 L698.56,510.41 L702.85,517.74 L718.26,536.58 L727.28,546.37 L742.80,561.52 L751.18,567.92 L756.00,569.28 L761.56,567.12 L767.33,569.96 L772.25,569.65 L771.73,571.19 L774.56,572.48 L772.99,578.82 L774.98,579.26 L772.36,580.49 L773.83,582.70 L780.22,584.49 L786.93,582.40 L784.94,588.06 L782.21,587.32 L778.44,588.43 L776.76,594.04 L772.99,594.65 L771.10,593.23 L767.33,593.85 L762.92,596.50 L759.88,601.18 L764.29,614.60 L769.32,617.01 L769.11,618.24 L771.73,618.48 L769.00,620.15 L773.62,622.30 L773.09,623.35 L777.60,623.10 L774.46,626.67 L780.33,626.24 L779.59,627.66 L784.00,628.34 L783.47,630.06 L773.72,636.77 L773.72,639.11 L771.00,639.61 L768.48,638.44 L764.71,639.79 L761.56,636.96 L756.21,637.64 L751.92,640.34 L753.17,643.30 L750.03,645.15 L747.93,642.69 L750.45,638.44 L745.63,636.34 L743.74,636.47 L743.53,637.76 L741.96,637.57 L743.63,636.16 L740.28,634.25 L740.70,631.23 L732.10,627.60 L724.14,627.23 L720.99,629.26 L719.52,627.23 L712.18,626.55 L705.27,627.66 L697.40,630.55 L688.49,634.19 L687.86,635.73 L680.94,639.67 L677.48,643.61 L678.43,645.15 L681.47,645.95 L677.90,647.00 L675.28,650.63 L677.17,656.17 L682.94,658.63 L679.90,659.31 L679.79,667.13 L683.25,668.98 L690.90,668.61 L693.73,670.46 L692.37,671.32 L687.34,670.21 L683.77,672.98 L683.98,680.37 L686.40,683.21 L685.66,684.31 L687.97,684.93 L687.34,685.92 L674.23,690.23 L669.85,692.45 L690.38,685.42 L700.86,689.80 L700.02,690.97 L702.64,692.50 L706.63,692.81 L711.66,694.97 L711.66,697.18 L714.07,699.53 L710.61,701.43 L711.35,702.79 L714.60,703.84 L716.06,703.16 L718.89,705.31 L721.30,704.21 L720.99,705.38 L722.35,705.68 L725.71,703.90 L728.01,704.57 L727.49,706.91 L723.40,707.53 L720.68,709.69 L725.71,710.98 L728.43,709.50 L731.47,709.62 L731.26,715.54 L733.88,721.88 L728.64,725.94 L723.09,726.25 L720.89,728.59 L717.95,728.35 L716.59,726.74 L713.44,726.56 L710.61,727.18 L709.88,728.78 L706.94,728.53 L705.16,730.07 L703.27,729.02 L703.48,726.87 L698.56,724.59 L698.35,722.74 L695.62,722.93 L696.14,726.37 L699.29,727.24 L697.72,729.64 L700.34,730.99 L698.66,732.10 L702.33,734.50 L701.49,735.43 L697.30,735.49 L694.78,739.55 L693.73,738.88 L691.22,739.80 L692.16,742.45 L690.48,743.62 L686.08,744.23 L687.65,749.22 L679.69,753.22 L679.27,752.55 L674.76,753.53 L674.86,756.61 L670.57,761.41 L670.04,767.94 L671.61,770.59 L669.52,771.88 L665.01,779.77 L663.44,787.22 L656.94,785.37 L648.76,788.20 L643.52,793.81 L642.68,797.75 L636.18,807.05 L635.24,810.50 L630.41,811.85 L625.80,808.03 L629.37,811.42 L625.49,813.70 L623.81,815.67 L624.75,817.58 L622.76,818.62 L625.80,818.93 L625.07,822.57 L622.97,823.30 L622.66,820.78 L618.46,817.15 L607.66,814.01 L600.54,813.08 L591.10,809.39 L583.76,808.22 L570.87,808.96 L559.55,811.67 L547.80,809.88 L545.50,810.50 L545.92,811.73 L544.55,808.71 L541.93,807.66 L540.57,808.52 L544.14,812.71 L539.52,807.48 L528.10,807.66 L522.64,809.88 L516.46,815.73 L515.10,823.06 L518.45,828.05 L521.70,830.39 L525.68,831.49 L519.92,838.64 L516.56,840.05 L517.09,840.73 L508.60,843.63 L502.31,852.43 L501.15,862.29 L504.40,880.58 L502.31,890.74 L497.48,897.08 L501.57,900.34 L503.04,908.60 L501.05,913.58 L495.70,916.42 L494.97,921.03 L496.75,923.68 L495.39,927.93 L501.05,939.69 L505.14,940.74 L505.24,942.40 L509.02,941.97 L510.80,942.96 L509.12,945.42 L510.90,946.34 L504.30,950.84 L498.64,952.13 L497.17,950.96 L494.44,951.03 L492.87,952.69 L490.67,952.56 L490.77,955.21 L488.99,955.83 L485.95,954.41 L482.49,954.97 L481.44,958.17 L478.93,958.72 L477.57,962.48 L475.05,964.63 L470.33,966.91 L463.10,967.78 L459.11,971.22 L451.04,975.17 L446.74,975.72 L436.79,977.20 L434.69,976.15 L427.04,978.12 L423.79,978.06 L420.75,980.40 L418.23,980.77 L409.74,978.74 L404.29,980.58 L402.92,979.29 L403.97,977.57 L400.30,974.18 L395.06,972.52 L393.91,973.50 L394.96,972.02 L384.05,968.76 L382.06,966.17 L369.38,963.03 L362.67,962.11 L357.74,963.40 L356.80,965.19 L346.42,965.07 L347.15,964.27 L355.12,964.39 L359.00,961.74 L360.15,952.01 L354.91,953.12 L351.87,952.32 L347.99,954.23 L340.02,951.83 L331.74,946.84 L327.23,945.54 L325.24,938.34 L280.48,934.52 L263.28,931.13 Z M659.66,271.96 L662.70,272.64 L672.98,272.52 L659.66,271.96 Z M659.03,266.11 L658.72,270.61 L659.66,271.96 L659.03,266.11 Z M697.09,380.28 L692.37,380.65 L702.12,380.41 L697.09,380.28 Z M694.15,391.92 L696.46,392.72 L698.66,392.85 L694.15,391.92 Z M692.48,400.61 L689.02,400.55 L695.62,400.67 L692.48,400.61 Z M535.80,802.41 L537.32,804.65 L541.93,807.66 L535.80,802.41 Z M210.55,456.58 L220.30,457.82 L233.51,458.49 L210.55,456.58 Z M263.39,456.09 L269.68,455.97 L277.86,455.48 L263.39,456.09 Z M339.50,558.19 L328.28,564.72 L326.71,566.45 L339.50,558.19 Z M386.78,585.35 L389.40,584.80 L385.33,584.94 L386.78,585.35 Z M449.89,600.44 L455.86,603.70 L459.95,604.81 L449.89,600.44 Z M468.35,605.56 L469.18,606.17 L477.15,606.35 L468.35,605.56 Z M416.66,795.53 L420.12,791.71 L415.01,795.99 L416.66,795.53 Z M413.05,797.53 L412.46,796.70 L408.69,793.87 L413.05,797.53 Z M417.98,799.79 L414.95,799.12 L416.03,800.03 L417.98,799.79 Z M427.45,805.01 L427.37,804.83 L423.68,804.40 L427.45,805.01 Z M386.57,802.31 L397.05,804.21 L384.71,801.58 L386.57,802.31 Z M378.50,802.74 L379.80,800.05 L379.80,800.05 L378.50,802.74 Z M395.59,826.69 L394.33,830.26 L398.00,826.38 L395.59,828.91 L395.59,826.69 Z M412.46,827.12 L400.72,826.94 L402.82,827.31 L412.46,827.12 Z M481.34,820.04 L490.15,823.12 L487.00,821.76 L479.77,819.36 L479.77,819.37 L481.93,822.39 L481.34,820.04 Z M494.86,826.88 L490.77,826.20 L495.48,827.46 L494.86,826.88 Z M473.48,821.70 L472.11,829.09 L472.95,824.84 L473.48,821.70 Z M495.39,836.42 L487.73,835.07 L490.67,835.99 L495.39,836.42 Z M218.94,694.11 L221.98,693.67 L225.75,693.12 L218.94,694.11 Z M275.03,681.73 L274.92,683.51 L277.12,673.60 L275.03,681.73 Z M295.55,699.27 L294.11,701.06 L296.10,699.77 L295.55,699.27 Z M331.01,640.84 L338.21,634.52 L336.04,635.54 L331.01,640.84 Z M393.61,855.09 L391.39,858.53 L393.70,856.25 L393.61,855.09 Z M408.06,895.85 L417.01,895.34 L415.08,894.86 L408.06,895.85 Z M372.13,936.31 L365.39,937.54 L370.22,937.05 L372.13,936.31 Z M369.17,802.31 L369.90,800.15 L368.33,803.97 L369.17,802.31 Z M368.54,798.98 L371.37,799.16 L367.49,798.79 L369.90,800.15 L368.54,798.98 Z M368.33,795.96 L367.49,795.59 L367.49,798.79 L368.33,795.96 Z M378.82,799.41 L377.97,798.86 L373.36,797.93 L378.82,799.41 Z M301.34,860.01 L299.79,860.06 L303.22,860.99 L301.34,860.01 Z M315.44,863.93 L311.03,863.13 L314.23,864.01 L315.44,863.93 Z M318.59,896.16 L331.53,893.20 L318.59,896.16 L318.59,896.16 Z M335.41,874.54 L335.08,874.81 L340.55,873.86 L335.41,874.54 Z M332.68,876.70 L332.23,877.64 L333.59,875.98 L332.68,876.70 Z M383.27,831.67 L390.34,831.56 L383.32,831.49 L383.27,831.67 Z M353.63,781.32 L358.16,771.76 L354.80,776.75 L352.91,781.82 L353.63,781.32 Z M289.60,734.01 L283.18,731.66 L285.51,733.09 L289.60,734.01 Z M242.84,643.24 L238.33,642.87 L244.81,644.07 L242.84,643.24 Z M249.87,646.20 L247.19,645.07 L249.88,646.82 L249.87,646.20 Z M291.12,586.99 L289.60,589.05 L291.28,588.12 L291.12,586.99 Z M287.42,586.64 L291.03,586.28 L290.97,585.84 L287.42,586.64 Z M270.58,663.88 L271.57,666.27 L272.66,666.96 L270.58,663.88 Z M268.95,588.49 L279.41,587.44 L243.68,589.60 L268.95,588.49 Z M434.27,894.43 L435.33,893.28 L429.34,897.39 L434.27,894.43 Z M437.52,890.92 L438.25,887.29 L436.49,892.03 L437.52,890.92 Z M446.22,881.56 L451.15,875.83 L446.85,880.45 L438.25,887.29 L446.22,881.56 Z M477.46,858.28 L472.74,866.41 L473.10,867.76 L475.68,862.35 L477.46,858.28 Z M436.20,954.14 L431.86,947.52 L427.45,942.40 L436.20,954.14 Z M421.37,858.96 L421.50,859.69 L434.27,849.42 L421.37,858.96 Z M422.22,863.95 L422.32,862.66 L421.91,862.10 L422.22,863.95 Z M478.51,824.29 L476.20,828.54 L477.36,826.81 L478.51,824.29 Z M477.88,687.21 L478.19,688.01 L481.19,685.03 L477.88,687.21 Z M485.72,736.40 L504.82,736.10 L498.32,735.92 L485.71,736.39 L485.72,736.40 Z M499.16,767.70 L483.96,773.42 L491.93,770.59 L499.16,767.70 Z M487.32,794.55 L482.60,791.41 L492.77,798.24 L487.32,794.55 Z M489.41,814.31 L487.21,815.42 L496.85,812.59 L489.41,814.31 Z M432.59,805.38 L434.16,805.51 L431.92,805.07 L432.59,805.38 Z M440.53,804.18 L440.24,803.04 L439.64,804.11 L440.53,804.18 Z M454.92,785.43 L454.82,782.97 L454.22,785.72 L454.92,785.43 Z M526.42,764.43 L529.95,762.86 L528.93,762.95 L526.42,764.43 Z M532.50,761.72 L532.19,760.18 L531.14,762.33 L532.50,761.72 Z M542.67,750.08 L543.30,747.62 L542.03,750.49 L542.67,750.08 Z M546.13,740.35 L539.84,746.02 L541.84,746.15 L541.41,745.71 L546.13,740.35 Z M549.63,747.37 L549.80,746.82 L549.06,744.30 L549.63,747.37 Z M545.29,751.99 L549.06,749.22 L549.19,748.79 L545.29,751.99 Z M578.07,774.12 L578.10,774.10 L578.09,774.09 L578.07,774.12 Z M605.46,783.58 L617.52,779.27 L604.19,783.43 L605.46,783.58 Z M624.33,782.41 L631.99,785.25 L617.52,779.27 L624.33,782.41 Z M618.46,778.84 L621.50,777.30 L617.52,779.27 L618.46,778.84 Z M501.89,799.41 L513.21,798.36 L499.24,799.07 L501.89,799.41 Z M574.01,774.78 L568.25,777.24 L575.54,774.92 L574.01,774.78 Z M537.64,787.83 L541.93,786.85 L542.03,786.52 L537.64,787.83 Z M598.44,699.16 L607.98,709.56 L620.87,721.63 L598.44,699.16 Z M646.45,699.83 L640.16,702.60 L655.85,697.24 L646.45,699.83 Z M638.28,150.09 L640.07,150.23 L626.33,144.06 L638.28,150.09 Z M661.03,193.45 L656.21,193.03 L656.41,193.45 L661.03,193.45 Z M641.63,234.21 L641.21,231.69 L640.16,229.66 L641.63,234.21 Z M636.18,250.90 L634.61,244.37 L635.39,251.53 L636.18,250.90 Z M623.28,261.43 L621.71,263.03 L623.81,261.00 L633.14,253.30 L633.34,253.15 L629.89,254.90 L623.28,261.43 Z M637.96,253.61 L636.93,253.77 L637.86,256.20 L637.96,253.61 Z M643.20,328.43 L644.67,328.05 L642.52,328.23 L643.20,328.43 Z M613.95,339.39 L611.75,333.79 L611.65,335.45 L613.95,339.39 Z M605.67,342.78 L610.60,347.28 L608.82,344.88 L607.25,343.89 L605.67,342.78 Z M649.49,345.37 L648.15,345.32 L653.73,347.27 L649.49,345.37 Z M681.40,374.28 L677.80,369.45 L679.90,373.76 L681.40,374.28 Z M651.04,376.43 L657.15,375.60 L651.38,375.97 L651.04,376.43 Z M653.21,385.79 L651.07,388.60 L653.58,386.57 L654.55,386.83 L653.21,385.79 Z M658.40,392.85 L658.09,395.93 L651.59,397.71 L658.80,396.25 L658.40,392.85 Z M645.30,396.11 L642.04,395.98 L651.59,397.71 L645.30,396.11 Z M664.38,393.03 L659.38,396.14 L661.03,395.80 L664.38,393.03 Z M669.40,393.71 L669.10,394.20 L668.36,397.71 L669.40,393.71 Z M679.48,400.55 L687.34,401.96 L680.73,400.55 L682.94,399.99 L679.48,400.55 Z M689.96,403.38 L691.53,404.12 L687.34,401.96 L689.96,403.38 Z M683.15,406.89 L688.39,407.87 L684.51,407.01 L689.96,403.38 L683.15,406.89 Z M682.83,405.78 L680.31,404.98 L683.15,406.89 L682.83,405.78 Z M685.03,396.73 L682.73,395.62 L684.82,397.65 L687.34,401.96 L685.03,396.73 Z M665.11,546.37 L668.47,544.03 L663.61,546.49 L665.11,546.37 Z M675.60,564.17 L662.07,563.49 L673.29,564.17 L675.60,564.17 Z M692.89,599.76 L699.18,580.92 L697.30,585.85 L692.89,599.76 Z M579.75,98.42 L580.09,99.10 L588.69,101.32 L579.75,98.42 Z M578.31,210.87 L577.31,211.79 L579.77,211.18 L578.31,210.87 Z M560.91,222.45 L559.23,219.00 L561.54,224.05 L560.91,222.45 Z M538.87,255.44 L529.67,252.19 L538.26,255.46 L538.87,255.44 Z M521.89,257.68 L522.85,256.14 L524.95,256.57 L521.81,255.58 L521.89,257.68 Z M546.02,269.68 L560.06,264.79 L559.55,264.39 L546.02,269.68 Z M556.82,313.47 L562.38,318.03 L563.85,318.40 L556.82,313.47 Z M568.25,352.20 L563.42,358.36 L566.99,354.42 L568.25,352.20 Z M546.34,383.49 L557.76,382.13 L554.83,381.95 L546.34,383.49 Z M562.16,381.61 L564.59,381.32 L564.79,380.90 L562.16,381.61 Z M575.06,396.05 L576.52,399.67 L576.63,397.84 L575.06,396.05 Z M576.46,400.77 L570.76,401.28 L576.42,401.28 L576.46,400.77 Z M571.18,404.30 L571.48,404.54 L570.76,401.28 L571.18,404.30 Z M552.42,427.58 L550.43,426.66 L551.37,427.33 L554.00,431.02 L554.51,430.29 L552.42,427.58 Z M634.19,447.29 L634.92,449.07 L639.59,452.91 L634.19,447.29 Z M634.61,455.85 L628.63,456.77 L626.10,457.77 L634.61,455.85 Z M533.34,488.11 L528.57,491.19 L528.57,491.19 L533.34,488.11 Z M588.32,492.99 L593.83,502.09 L588.90,492.12 L588.32,492.99 Z M572.15,518.35 L570.34,521.86 L572.23,518.66 L572.15,518.35 Z M624.12,530.05 L626.33,531.65 L628.88,532.18 L624.12,530.05 Z M636.39,552.04 L641.53,560.35 L637.33,552.10 L636.81,548.83 L636.39,552.04 Z M666.53,620.98 L642.68,605.14 L642.68,605.14 L643.73,605.86 L666.53,620.98 L666.53,620.98 Z M199.23,387.31 L200.51,387.46 L178.68,380.96 L199.23,387.31 Z M214.64,389.15 L220.51,388.91 L207.33,388.28 L214.64,389.15 Z M290.17,388.71 L289.49,388.35 L283.52,390.26 L290.17,388.71 Z M322.20,385.95 L323.60,385.54 L318.43,384.90 L322.20,385.95 Z M330.48,388.23 L326.92,385.95 L324.73,385.68 L330.48,388.23 Z M329.54,395.06 L331.95,385.89 L330.48,388.23 L329.54,395.06 Z M334.93,381.62 L334.93,381.62 L330.90,384.16 L334.93,381.62 Z M403.48,387.32 L402.71,386.87 L383.32,387.86 L403.48,387.32 Z M404.39,390.14 L404.50,387.92 L404.12,387.70 L404.39,390.14 Z M400.46,400.71 L400.46,400.71 L397.37,396.54 L400.46,400.71 Z M428.40,378.50 L421.06,377.64 L423.68,377.94 L428.40,378.50 Z M429.55,376.53 L429.87,368.15 L428.40,378.50 L429.55,376.53 Z M440.89,374.08 L440.66,373.51 L436.89,373.70 L440.89,374.08 Z M501.09,381.37 L500.10,378.68 L499.06,378.64 L501.09,381.37 Z M527.78,393.03 L529.46,385.77 L527.05,391.80 L527.78,393.03 Z M528.89,397.45 L529.46,396.91 L528.83,395.06 L528.89,397.45 Z M518.45,401.96 L531.90,399.01 L528.92,398.55 L528.93,399.19 L518.45,401.96 Z M507.94,407.47 L510.06,407.01 L518.45,401.96 L507.94,407.47 Z M541.00,397.01 L536.48,397.47 L533.18,398.73 L541.00,397.01 Z M547.80,397.15 L545.60,396.54 L543.52,396.75 L547.80,397.15 Z M554.34,392.57 L552.90,392.17 L553.36,392.48 L554.34,392.57 Z M556.72,539.29 L568.03,535.40 L567.09,535.47 L556.72,539.29 Z M605.04,571.25 L605.15,571.24 L592.57,564.78 L605.04,571.25 Z M294.07,388.08 L294.01,388.10 L292.64,392.48 L293.44,393.47 L294.07,388.08 Z M295.68,461.63 L293.69,459.66 L296.29,463.41 L295.68,461.63 Z M425.94,490.58 L425.45,491.31 L426.03,491.22 L425.94,490.58 Z M472.85,448.64 L462.68,445.44 L478.82,450.80 L472.85,448.64 Z M535.35,439.88 L517.61,441.81 L531.66,440.88 L535.35,439.88 Z M391.50,562.32 L386.36,565.52 L386.50,566.01 L391.50,562.32 Z M386.79,567.04 L386.99,567.74 L389.93,568.44 L386.79,567.04 Z M397.93,563.08 L399.04,559.86 L397.79,562.44 L397.93,563.08 Z M405.65,557.83 L405.34,555.37 L404.71,556.66 L405.65,557.83 Z M406.10,553.81 L406.72,553.32 L406.28,553.45 L406.10,553.81 Z M432.59,544.15 L434.79,543.48 L434.57,543.04 L432.59,544.15 Z M439.89,549.18 L440.45,549.45 L445.70,547.48 L439.89,549.18 Z M386.46,580.49 L383.95,584.55 L384.32,584.66 L386.46,580.49 Z M429.97,497.11 L428.92,494.58 L428.00,494.02 L429.97,497.11 Z M429.66,521.97 L431.28,524.60 L431.44,523.34 L429.66,521.97 Z M432.31,526.27 L432.75,526.98 L433.01,526.54 L432.31,526.27 Z M309.31,411.45 L309.20,412.80 L312.87,420.87 L309.31,411.45 Z M399.89,401.17 L396.42,402.39 L398.84,402.02 L399.89,401.17 Z M421.37,396.60 L424.15,394.68 L423.26,394.82 L421.37,396.60 Z M426.20,394.36 L442.55,396.23 L427.98,394.08 L426.20,394.36 Z M444.86,395.31 L449.16,391.31 L442.55,396.23 L444.86,395.31 Z M501.05,406.15 L500.10,412.18 L501.05,414.38 L500.84,409.54 L501.05,406.15 Z M503.98,409.54 L511.43,409.54 L504.72,409.29 L504.83,409.09 L503.98,409.54 Z M529.14,405.10 L535.01,405.64 L535.01,405.35 L529.14,405.10 Z M545.46,406.60 L548.64,406.89 L551.68,406.83 L545.46,406.60 Z M547.96,413.35 L547.49,417.85 L547.91,420.07 L548.75,413.79 L547.96,413.35 Z M449.07,404.85 L449.37,404.67 L449.99,400.79 L449.07,404.85 Z M429.97,269.93 L429.97,269.93 L433.33,275.23 L429.97,269.93 Z M455.97,268.51 L460.69,267.90 L429.97,269.93 L455.97,268.51 Z M475.26,259.58 L468.65,265.13 L478.72,256.94 L475.26,259.58 Z M335.52,360.46 L324.40,364.64 L346.10,357.81 L335.52,360.46 Z M404.18,357.75 L412.94,358.80 L410.47,357.99 L404.18,357.75 Z M417.54,359.36 L423.05,360.02 L420.43,359.35 L420.89,358.70 L417.54,359.36 Z M421.72,357.54 L422.32,356.70 L421.77,355.98 L421.72,357.54 Z M451.04,336.32 L454.82,334.84 L454.98,334.05 L451.04,336.32 Z M462.78,343.58 L464.41,346.16 L464.67,345.18 L462.78,343.58 Z M464.65,346.54 L464.88,346.91 L465.72,346.05 L464.65,346.54 Z M501.36,342.10 L504.27,343.23 L504.27,343.23 L501.36,342.10 Z M534.96,332.65 L535.85,332.44 L538.68,329.97 L534.96,332.65 Z M548.30,389.07 L544.34,385.77 L542.64,385.25 L548.30,389.07 Z M333.63,381.15 L325.66,380.53 L334.75,381.55 L333.63,381.15 Z M438.57,361.01 L463.10,366.24 L430.49,358.55 L438.57,361.01 Z M387.41,376.90 L394.01,376.16 L390.24,376.22 L387.41,376.90 Z M491.51,354.85 L492.38,355.36 L492.07,353.98 L491.51,354.85 Z M492.87,352.76 L492.38,353.51 L495.70,350.73 L492.87,352.76 Z M382.48,340.20 L388.47,342.78 L388.35,341.98 L382.37,339.91 L382.48,340.20 Z M516.57,233.81 L518.24,233.23 L516.77,233.23 L516.57,233.81 Z M513.37,227.20 L514.50,226.04 L514.05,225.90 L513.37,227.20 Z M515.62,226.39 L516.25,227.25 L518.97,227.44 L515.62,226.39 Z M599.95,608.39 L610.18,605.24 L600.22,607.65 L599.95,608.39 Z M635.87,605.98 L629.05,607.95 L640.73,605.38 L635.87,605.98 Z M570.29,535.24 L575.48,536.09 L572.96,535.04 L570.29,535.24 Z M676.61,506.74 L675.49,503.20 L672.66,498.21 L676.61,506.74 Z M680.94,523.77 L682.94,526.73 L677.71,510.22 L680.94,523.77 Z M622.55,505.91 L625.28,500.74 L622.55,505.91 L622.55,505.91 Z M624.49,512.11 L624.17,513.71 L624.96,513.12 L624.49,512.11 Z M624.75,510.78 L624.75,510.79 L624.90,510.77 L624.75,510.78 Z M624.75,508.50 L623.26,507.48 L624.75,510.78 L624.75,508.50 Z M620.46,481.47 L616.05,485.04 L620.98,482.02 L620.46,481.47 Z M618.46,479.92 L619.33,480.27 L616.16,476.91 L618.46,479.92 Z M621.92,459.42 L616.89,464.84 L622.99,459.00 L621.92,459.42 Z M589.84,241.17 L590.32,240.81 L586.14,240.85 L589.84,241.17 Z M609.34,236.43 L611.30,235.83 L604.73,236.06 L609.34,236.43 Z M612.84,231.55 L611.88,231.63 L612.07,231.93 L612.84,231.55 Z M621.71,231.20 L622.95,230.71 L617.08,231.20 L621.71,231.20 Z M621.71,245.17 L620.77,244.13 L617.73,243.27 L621.71,245.17 Z M599.07,386.81 L583.34,391.06 L602.81,387.64 L596.24,388.23 L599.07,386.81 Z M607.66,387.49 L606.75,387.43 L606.64,388.20 L607.66,387.49 Z M608.16,391.81 L604.41,391.55 L602.63,391.86 L608.16,391.81 Z M637.96,389.03 L632.40,390.68 L635.34,390.45 L641.95,387.31 L637.96,389.03 Z M632.51,400.05 L634.29,394.57 L635.34,390.45 L632.51,400.05 Z M652.64,401.72 L652.81,400.76 L648.65,406.03 L652.64,401.72 Z M653.37,397.65 L651.01,398.87 L652.97,399.85 L653.37,397.65 Z M599.17,397.65 L601.16,395.87 L595.29,399.19 L599.17,397.65 Z M563.11,316.98 L586.28,303.62 L565.84,314.70 L563.11,316.98 Z M624.90,278.74 L631.15,276.21 L624.80,278.16 L624.90,278.74 Z M639.95,295.73 L650.96,294.50 L643.94,294.87 L639.95,295.73 Z M628.74,264.26 L629.14,264.12 L624.96,263.16 L628.74,264.26 Z M633.03,262.66 L630.31,263.16 L630.01,263.79 L633.03,262.66 Z M582.17,211.69 L583.08,212.35 L583.24,211.92 L582.17,211.69 Z M585.13,214.66 L585.13,216.17 L586.07,215.31 L585.13,214.66 Z M681.27,415.15 L683.04,414.89 L687.13,412.92 L681.27,415.15 Z M691.68,410.67 L691.68,410.67 L687.13,412.92 L691.68,410.67 Z M691.96,410.76 L693.42,413.11 L692.91,410.68 L692.16,410.83 L691.96,410.76 Z M685.87,425.24 L685.66,426.82 L685.66,426.82 L685.87,425.24 Z M701.28,426.29 L694.89,425.18 L699.81,426.53 L701.28,426.29 Z M700.13,424.87 L694.89,422.10 L701.28,426.29 L700.13,424.87 Z M687.86,394.14 L689.96,394.63 L694.36,394.63 L685.61,393.86 L685.59,393.86 L687.86,394.14 Z M760.04,267.98 L761.04,266.48 L760.09,264.14 L760.04,267.98 Z M725.41,213.50 L725.29,213.15 L711.66,212.11 L725.41,213.50 Z M725.08,218.38 L726.23,215.80 L725.91,214.91 L725.08,218.38 Z M734.97,90.23 L735.04,89.99 L734.30,88.51 L738.29,76.87 L735.35,83.34 L733.99,88.94 L734.97,90.23 Z M749.71,71.58 L764.29,74.10 L749.11,70.99 L749.71,71.58 Z M810.62,72.99 L815.57,78.85 L815.45,77.36 L810.62,72.99 Z M816.79,80.30 L817.33,80.94 L817.71,80.68 L816.79,80.30 Z M842.18,46.08 L855.49,50.88 L858.00,51.18 L842.18,46.08 Z M723.82,696.38 L722.14,695.46 L725.50,695.34 L725.71,696.01 L723.82,696.38 Z M722.14,694.48 L720.05,694.60 L715.96,693.06 L715.22,690.72 L710.93,687.33 L712.71,685.92 L715.12,685.92 L718.47,688.13 L720.68,686.90 L722.14,687.82 L721.10,690.29 L722.14,694.48 Z M706.94,683.76 L706.52,682.96 L707.78,682.77 L707.78,683.58 L706.94,683.76 Z M699.39,666.89 L701.07,666.33 L702.12,667.87 L699.81,667.38 L699.39,666.89 Z M739.23,656.91 L740.38,659.19 L736.19,660.05 L733.36,658.27 L729.38,657.83 L727.07,655.56 L724.87,655.56 L724.66,653.46 L723.30,653.22 L725.39,652.41 L724.24,651.31 L725.08,649.40 L720.57,648.17 L721.20,645.46 L725.71,646.81 L727.49,649.52 L729.90,649.64 L730.43,651.68 L740.28,653.65 L744.16,651.86 L742.69,650.01 L743.22,646.69 L747.51,645.89 L750.45,647.67 L747.30,650.81 L752.34,652.48 L753.70,654.45 L750.87,656.91 L746.67,657.10 L740.80,655.68 L739.23,656.91 Z M738.81,634.80 L739.44,635.17 L738.81,635.05 L738.81,634.80 Z M709.56,450.86 L706.73,450.67 L708.83,450.67 L709.56,450.86 Z M708.72,450.55 L708.52,450.30 L709.04,450.49 L708.72,450.55 Z M707.68,450.49 L707.26,450.30 L707.68,450.30 L707.68,450.49 Z M750.66,445.44 L752.96,449.69 L747.72,447.90 L741.33,447.35 L735.14,445.07 L736.93,443.78 L746.15,443.53 L750.66,445.44 Z M734.83,434.54 L726.13,439.28 L726.02,441.81 L723.72,441.31 L721.72,437.93 L718.26,437.93 L719.94,435.28 L722.88,434.72 L722.46,432.69 L724.45,433.61 L727.39,432.94 L726.44,434.54 L732.84,433.55 L734.83,434.54 Z M717.11,390.45 L717.01,390.32 L717.22,390.38 L717.11,390.45 Z M708.10,389.77 L708.41,390.32 L707.15,390.26 L706.94,389.71 L708.10,389.77 Z M746.67,376.84 L743.74,376.96 L744.05,375.24 L746.88,376.41 L746.67,376.84 Z M715.43,333.91 L711.24,333.24 L709.56,332.07 L714.60,330.90 L718.26,331.94 L715.43,333.91 Z M703.80,330.47 L704.53,330.47 L704.64,330.65 L703.80,330.47 Z M718.05,317.47 L716.90,317.10 L716.48,315.07 L718.68,316.67 L718.68,318.46 L718.05,317.47 Z M739.13,318.33 L735.67,319.69 L732.94,318.27 L724.76,317.29 L720.89,315.25 L726.97,311.13 L726.65,308.97 L730.11,308.17 L736.40,311.01 L738.18,311.01 L741.01,314.95 L739.13,318.33 Z M720.36,307.86 L723.61,306.76 L724.76,308.97 L721.51,308.54 L720.36,307.86 Z M702.02,306.45 L703.59,307.31 L701.60,307.68 L700.65,307.06 L702.02,306.45 Z M718.37,307.93 L715.64,306.26 L718.16,305.52 L719.31,307.74 L718.37,307.93 Z M670.88,301.03 L671.72,300.66 L671.51,301.09 L670.88,301.03 Z M718.79,159.95 L716.48,159.14 L715.85,158.04 L717.85,158.34 L718.16,157.48 L719.84,158.16 L720.05,159.64 L718.79,159.95 Z M717.53,155.08 L716.90,155.02 L718.16,154.16 L717.53,155.08 Z M765.34,137.10 L766.91,136.79 L765.13,137.53 L762.61,136.67 L765.34,137.10 Z M771.21,640.04 L771.00,640.47 L770.68,640.22 L771.21,640.04 Z M772.67,639.54 L774.35,639.54 L773.72,640.59 L772.36,640.10 L772.67,639.54 Z M776.45,596.62 L775.92,596.44 L776.45,596.44 L776.45,596.62 Z M773.51,595.64 L774.88,596.75 L773.62,596.75 L773.51,595.64 Z M773.41,595.45 L773.30,595.64 L773.09,595.64 L773.41,595.45 Z M771.73,595.33 L771.94,595.57 L771.42,595.39 L771.73,595.33 Z M782.74,594.28 L782.21,593.73 L783.47,593.36 L782.74,594.28 Z M828.34,552.16 L827.08,552.16 L825.82,551.30 L827.92,549.94 L828.34,552.16 Z M830.65,535.66 L829.70,535.78 L828.86,534.73 L830.33,534.42 L830.65,535.66 Z M830.12,533.99 L829.39,533.75 L830.75,533.56 L830.12,533.99 Z M828.76,532.95 L826.03,530.11 L830.75,525.56 L832.85,525.74 L832.01,526.97 L828.76,527.77 L830.65,530.48 L829.81,531.53 L830.02,533.07 L831.80,533.13 L829.81,533.32 L828.76,532.95 Z M831.28,525.25 L830.54,524.08 L831.49,523.71 L832.32,524.14 L831.28,525.25 Z M823.10,453.88 L822.26,453.20 L823.10,453.38 L823.10,453.88 Z M813.14,452.27 L804.96,453.51 L800.35,451.35 L801.19,448.89 L806.95,448.39 L812.09,450.30 L815.45,450.12 L817.12,451.60 L821.84,453.57 L819.85,453.20 L817.65,454.24 L813.14,452.27 Z M816.81,449.20 L817.86,448.89 L817.96,449.32 L817.23,449.56 L816.81,449.20 Z M780.43,445.75 L778.23,447.16 L774.67,446.42 L773.30,446.42 L774.35,442.42 L778.02,443.41 L778.12,442.24 L780.01,443.04 L780.43,445.75 Z M820.16,414.46 L822.78,414.09 L825.30,418.03 L829.28,418.77 L831.90,417.60 L835.15,418.40 L836.62,420.31 L836.10,424.19 L832.43,425.24 L833.90,428.57 L832.32,430.66 L836.41,430.78 L840.92,434.78 L831.07,436.76 L831.07,439.34 L828.34,440.64 L821.00,439.65 L819.95,438.36 L826.03,436.08 L828.86,436.08 L827.92,434.66 L814.61,437.31 L809.89,435.71 L802.34,435.77 L800.45,433.86 L801.61,432.44 L803.08,432.75 L803.91,431.03 L808.00,430.23 L805.70,428.32 L805.80,426.66 L804.65,428.26 L792.80,433.92 L792.80,437.99 L798.57,440.20 L798.67,441.99 L795.95,441.37 L794.79,443.22 L787.46,443.04 L776.34,438.91 L775.50,435.77 L771.73,432.69 L759.88,431.34 L750.76,425.98 L744.79,425.18 L740.80,421.61 L740.38,415.94 L730.64,415.02 L730.84,413.48 L734.62,411.01 L739.34,410.95 L743.11,412.62 L745.94,411.81 L744.68,413.05 L745.94,416.19 L749.82,417.05 L753.38,415.69 L754.64,418.22 L758.42,419.94 L761.77,420.19 L764.92,418.22 L762.71,414.09 L764.81,413.42 L766.91,410.89 L765.96,409.35 L767.75,408.61 L769.95,410.52 L775.40,411.14 L775.92,412.92 L778.65,413.72 L785.99,414.15 L790.18,412.80 L800.14,412.37 L802.03,413.48 L801.40,415.69 L803.39,417.73 L807.58,417.23 L808.74,422.59 L810.73,423.08 L816.49,421.73 L815.45,420.87 L819.43,416.99 L818.59,416.06 L820.16,414.46 Z M811.57,260.82 L809.16,261.43 L807.16,260.69 L811.57,260.82 Z M814.08,249.24 L807.16,253.18 L806.43,254.60 L794.79,255.09 L797.62,249.79 L811.04,247.95 L819.32,248.07 L814.08,249.24 Z M808.84,185.56 L808.32,186.36 L808.11,184.76 L808.84,185.56 Z M805.38,161.73 L807.48,162.35 L807.48,163.02 L800.45,163.52 L805.38,161.73 Z M809.89,162.35 L810.94,160.81 L813.03,161.42 L812.82,162.53 L809.89,162.35 Z M796.05,161.98 L798.67,160.81 L798.99,160.07 L800.04,160.75 L798.04,162.35 L796.05,161.98 Z M830.12,160.07 L829.18,160.50 L829.18,160.13 L830.12,160.07 Z M819.22,156.93 L822.16,156.74 L822.68,157.97 L821.53,159.70 L819.22,156.93 Z M784.10,125.58 L790.29,122.38 L783.68,126.75 L781.90,126.08 L784.10,125.58 Z M791.54,121.46 L791.86,120.59 L795.53,118.69 L791.54,121.46 Z M797.41,114.25 L800.87,110.86 L809.58,108.40 L817.75,109.26 L808.63,113.20 L806.53,115.73 L798.04,116.22 L797.41,114.25 Z M824.46,105.32 L825.82,104.03 L826.03,105.32 L824.46,105.32 Z M808.42,92.82 L808.11,91.90 L810.10,91.90 L809.99,93.01 L808.42,92.82 Z M832.85,525.99 L833.58,525.93 L833.48,526.17 L832.85,525.99 Z M851.19,437.56 L850.77,437.56 L850.77,437.25 L851.19,437.56 Z M848.89,436.39 L850.46,436.94 L849.10,437.49 L847.84,436.76 L848.89,436.39 Z M846.27,436.88 L846.69,436.57 L847.63,436.57 L847.63,437.06 L846.27,436.88 Z M843.02,435.22 L842.28,435.15 L841.55,434.48 L843.02,435.22 Z M864.19,386.63 L869.02,385.46 L870.80,387.49 L868.91,389.40 L866.19,389.28 L864.19,386.63 Z M877.51,383.86 L877.51,383.36 L878.45,383.49 L878.24,383.92 L877.51,383.86 Z M877.82,382.75 L878.03,382.26 L878.77,382.38 L878.45,382.87 L877.82,382.75 Z M877.61,378.62 L877.51,381.76 L875.31,380.65 L876.04,378.25 L877.61,378.62 Z M878.87,326.52 L881.60,329.97 L883.59,329.91 L887.68,332.93 L887.78,334.71 L881.28,333.42 L880.97,331.64 L875.20,327.94 L878.87,326.52 Z M884.85,261.12 L882.96,260.94 L881.91,259.52 L885.06,260.26 L884.85,261.12 Z M867.02,258.91 L864.40,258.41 L858.74,260.26 L857.27,257.24 L852.35,255.83 L852.35,252.81 L855.07,252.93 L856.44,255.15 L861.26,254.17 L862.10,256.63 L867.02,257.00 L867.02,258.91 Z M833.37,249.92 L833.48,250.53 L831.49,250.47 L833.37,249.92 Z M900.78,216.11 L902.14,216.72 L900.36,217.59 L899.21,216.97 L900.78,216.11 Z M972.49,205.89 L972.07,206.44 L971.65,206.19 L972.49,205.89 Z M896.06,183.22 L898.06,186.18 L902.14,186.86 L905.71,189.26 L903.09,193.51 L908.12,199.23 L906.02,202.38 L911.05,203.61 L922.48,211.12 L917.24,215.25 L912.84,215.06 L910.11,216.29 L906.65,215.68 L898.37,211.86 L897.53,209.83 L891.97,208.66 L892.39,205.70 L881.39,205.21 L874.89,202.68 L873.73,199.48 L867.13,197.69 L866.50,195.85 L863.46,195.48 L861.89,196.28 L857.06,193.01 L853.71,193.32 L850.36,191.23 L844.38,191.17 L845.11,183.47 L842.18,181.62 L839.77,181.44 L838.09,179.65 L830.65,179.10 L825.09,180.45 L824.04,182.24 L821.95,182.48 L820.90,180.08 L812.51,178.17 L806.64,172.94 L808.42,166.16 L820.48,162.65 L822.68,160.25 L827.50,161.73 L836.83,162.59 L843.96,165.36 L848.26,164.32 L850.15,165.80 L849.94,167.70 L853.61,168.57 L853.40,169.49 L856.54,167.52 L862.41,168.81 L866.19,165.80 L870.27,164.75 L883.27,167.15 L892.71,170.11 L892.29,173.43 L893.86,173.92 L890.93,176.20 L893.76,178.17 L892.71,181.56 L896.06,183.22 Z M957.81,186.30 L959.07,186.79 L959.91,187.10 L959.80,187.72 L957.81,186.30 Z M948.69,177.99 L949.53,178.36 L948.69,178.30 L948.69,177.99 Z M947.12,172.45 L946.70,172.26 L947.12,172.26 L947.12,172.45 Z M947.96,172.45 L947.85,172.26 L948.38,172.38 L947.96,172.45 Z M947.33,171.58 L946.80,171.52 L946.91,171.28 L947.33,171.58 Z M884.53,156.99 L883.48,157.91 L880.97,156.25 L883.17,155.88 L884.53,156.99 Z M844.38,155.45 L845.43,153.42 L854.76,152.56 L855.91,153.97 L852.87,155.94 L854.23,157.97 L849.20,159.02 L844.38,155.45 Z M912.42,155.33 L909.59,154.40 L907.49,155.02 L911.16,158.16 L901.10,153.97 L903.30,152.25 L902.56,149.72 L903.30,151.39 L907.28,151.32 L911.89,154.03 L913.26,153.66 L912.42,155.33 Z M980.77,149.41 L980.66,152.62 L978.99,153.36 L977.52,151.57 L978.67,149.11 L980.77,149.41 Z M913.05,149.54 L912.52,149.17 L913.36,148.37 L913.05,149.54 Z M875.94,118.13 L879.60,118.19 L880.76,119.49 L876.46,122.38 L872.37,121.27 L875.94,118.13 Z M835.47,99.10 L836.52,98.86 L835.99,99.23 L835.47,99.10 Z M851.61,89.68 L850.25,90.60 L848.89,89.68 L850.98,88.88 L851.61,89.68 Z" /></g></svg>