<svg xmlns="http://www.w3.org/2000/svg" viewBox="0 0 1000 1000" width="1000" height="1000"><g fill="#cccccc" stroke="#222" stroke-width="2"><path d="M226.39,850.50 L226.97,846.76 L223.32,843.03 L215.43,839.97 L199.28,838.48 L198.34,835.08 L175.48,823.47 L168.53,815.52 L162.87,813.14 L154.15,813.21 L142.72,806.96 L131.88,806.15 L123.99,798.68 L122.93,796.98 L117.03,792.43 L112.67,791.14 L107.02,785.91 L100.77,784.62 L96.41,781.83 L100.77,773.95 L98.30,770.49 L97.59,768.04 L88.99,764.65 L86.63,759.35 L81.09,753.78 L79.21,745.56 L76.03,744.00 L78.86,740.88 L85.22,739.45 L86.16,734.09 L73.91,728.38 L81.68,724.98 L88.99,723.83 L93.59,715.54 L100.89,714.52 L99.71,710.79 L105.37,706.17 L110.67,705.36 L119.04,701.69 L119.63,699.24 L113.73,696.25 L111.02,692.18 L116.33,689.33 L122.34,688.31 L129.76,682.40 L129.64,679.68 L119.27,676.01 L100.77,678.53 L94.41,676.01 L92.64,672.35 L97.94,663.18 L92.29,655.43 L94.65,646.67 L93.11,639.34 L96.65,636.82 L113.15,636.28 L119.27,640.36 L123.99,637.57 L133.41,634.79 L134.36,625.82 L127.05,610.95 L122.10,606.94 L125.05,600.96 L129.76,598.79 L138.48,598.79 L142.60,597.16 L149.32,597.09 L152.86,595.87 L155.68,592.74 L153.45,587.85 L162.75,584.80 L163.93,581.81 L163.34,578.07 L160.16,575.56 L161.46,560.96 L158.28,558.24 L166.05,551.52 L161.10,547.92 L148.61,547.10 L144.25,545.00 L138.36,544.45 L129.76,535.22 L119.86,531.48 L117.39,533.31 L114.56,533.18 L113.62,529.65 L106.31,527.68 L107.02,517.22 L102.30,515.93 L95.47,516.06 L92.05,510.02 L91.94,505.54 L88.16,502.34 L89.46,496.98 L86.28,495.28 L87.46,492.43 L85.69,490.32 L80.03,488.62 L79.21,487.06 L71.08,483.12 L69.08,476.19 L64.60,476.13 L62.36,473.21 L56.82,472.12 L57.53,470.69 L64.36,467.64 L62.95,462.00 L70.84,456.50 L67.66,456.29 L65.42,452.69 L59.06,452.01 L57.53,449.03 L58.82,446.51 L56.70,445.02 L60.12,442.71 L59.41,440.81 L65.89,437.21 L71.20,436.73 L72.61,434.49 L70.61,429.47 L79.33,423.42 L88.75,420.30 L92.76,420.23 L95.47,423.22 L91.70,418.94 L92.17,415.20 L72.14,411.53 L64.83,413.57 L56.11,407.60 L55.05,401.69 L58.23,399.44 L53.64,396.39 L53.29,393.88 L48.22,395.44 L41.74,393.06 L34.31,386.40 L21.82,379.75 L19.23,375.74 L23.47,374.99 L24.53,367.93 L28.54,365.96 L31.25,366.10 L29.36,361.41 L25.00,359.98 L27.71,356.52 L26.65,351.15 L28.30,349.66 L24.65,346.88 L34.67,343.00 L43.03,342.73 L45.98,340.49 L56.58,342.94 L63.07,339.40 L68.37,337.37 L68.13,336.48 L55.64,331.80 L53.40,329.90 L66.25,329.01 L86.16,323.58 L90.62,323.14 L83.80,320.66 L75.44,314.75 L78.03,308.91 L85.10,305.85 L91.23,306.53 L97.59,305.24 L96.53,303.13 L98.30,296.34 L96.06,290.91 L105.96,287.58 L114.44,287.45 L117.03,285.82 L115.97,280.52 L118.92,278.48 L120.33,273.66 L117.03,270.60 L116.45,266.93 L119.74,261.16 L122.93,260.01 L123.99,257.90 L121.75,254.71 L123.87,253.35 L121.98,250.70 L126.46,248.46 L138.60,247.92 L142.84,245.74 L165.23,249.34 L170.89,249.34 L175.48,247.10 L179.72,241.19 L184.32,237.86 L177.96,239.56 L170.41,244.04 L162.64,242.75 L159.69,236.98 L165.23,231.48 L157.69,225.50 L166.76,224.42 L165.11,222.72 L166.64,218.91 L170.30,216.74 L168.76,214.36 L171.12,208.18 L175.48,207.91 L180.78,203.70 L205.76,193.31 L216.25,190.52 L217.10,190.61 L213.31,189.17 L211.42,187.13 L210.71,183.73 L213.78,180.81 L208.47,177.48 L211.77,172.80 L215.54,171.30 L216.72,167.97 L212.60,165.60 L212.36,160.91 L208.12,155.00 L201.05,147.46 L197.99,146.78 L192.33,142.84 L184.44,140.87 L175.13,142.17 L175.25,138.84 L169.71,133.61 L161.46,131.43 L155.45,123.89 L158.16,115.61 L147.91,110.38 L138.36,103.04 L134.47,102.09 L137.66,92.58 L144.49,92.38 L147.79,90.89 L149.20,88.85 L148.61,81.92 L151.68,79.14 L159.34,76.15 L171.95,76.15 L174.89,71.66 L177.84,70.10 L186.68,70.44 L190.61,71.24 L196.93,68.13 L204.70,69.76 L221.55,69.42 L217.90,62.16 L218.02,56.52 L228.04,54.14 L235.93,49.25 L242.18,49.18 L244.18,46.94 L254.31,48.57 L267.04,47.35 L275.41,48.23 L275.99,45.79 L284.24,36.96 L289.07,35.53 L295.32,30.78 L299.44,31.73 L304.16,30.10 L319.95,35.12 L326.31,34.72 L327.37,30.51 L331.26,27.52 L336.80,34.31 L342.81,29.55 L347.05,28.54 L348.93,24.94 L361.43,26.29 L368.02,20.86 L383.81,19.23 L395.36,28.81 L401.37,28.06 L405.26,30.37 L406.09,33.36 L397.25,38.86 L403.14,46.60 L408.91,49.52 L426.71,52.58 L422.46,57.88 L408.56,64.60 L406.56,66.98 L395.36,71.33 L392.89,75.40 L383.81,81.45 L383.70,85.59 L380.63,86.81 L372.97,87.15 L367.79,90.55 L369.56,90.27 L370.73,92.18 L368.97,93.94 L374.39,93.67 L380.40,95.50 L383.22,96.59 L384.64,101.07 L391.00,102.98 L395.36,106.03 L396.19,108.68 L399.01,109.29 L398.19,113.03 L392.06,115.40 L389.82,119.14 L392.89,119.28 L395.36,120.84 L397.60,122.74 L396.42,124.51 L403.96,123.83 L408.32,124.71 L410.09,123.15 L413.98,122.67 L427.77,130.75 L426.82,132.52 L428.95,134.29 L423.76,138.23 L420.23,138.02 L419.16,139.04 L422.46,143.52 L415.63,144.88 L423.52,146.38 L423.64,148.21 L420.81,147.94 L420.70,149.23 L425.88,148.89 L429.18,149.98 L437.19,148.21 L439.08,148.75 L438.84,150.45 L442.97,151.47 L447.68,159.28 L452.16,160.71 L456.52,165.80 L458.99,166.89 L479.26,169.20 L492.11,165.12 L493.52,172.19 L502.59,172.87 L513.32,169.40 L520.97,168.45 L531.93,169.27 L543.25,173.07 L571.17,178.30 L569.64,180.13 L576.36,186.25 L587.79,184.55 L587.79,182.99 L599.45,172.73 L599.92,168.65 L610.06,163.97 L617.48,164.58 L627.26,163.56 L635.51,167.50 L640.46,166.41 L643.52,163.97 L649.30,163.63 L655.66,158.06 L663.32,158.06 L670.51,155.82 L673.57,153.10 L679.58,153.64 L682.06,152.22 L693.01,150.18 L695.72,146.04 L712.34,142.17 L716.11,141.89 L720.59,143.59 L733.79,140.81 L739.32,138.63 L746.16,130.01 L759.12,134.83 L767.84,135.85 L773.61,133.54 L784.81,132.86 L787.05,134.08 L786.69,137.34 L778.45,140.74 L775.97,145.77 L774.52,145.78 L783.04,147.80 L792.47,147.19 L796.95,150.32 L801.89,151.27 L798.24,156.77 L800.95,160.50 L808.73,158.87 L802.37,162.13 L801.31,164.04 L810.14,168.11 L808.02,171.03 L829.59,174.77 L830.18,176.06 L828.53,179.25 L829.59,183.12 L826.88,186.45 L824.75,194.46 L830.65,202.00 L825.70,203.29 L818.86,208.12 L810.85,216.33 L800.48,220.00 L800.95,222.99 L805.19,224.08 L809.32,226.79 L807.32,230.80 L809.67,236.10 L806.37,241.19 L814.03,244.72 L814.86,248.05 L812.26,249.34 L813.09,249.95 L821.22,251.72 L826.52,249.68 L833.59,249.27 L833.47,251.38 L844.55,251.38 L848.32,254.16 L854.10,254.78 L870.95,247.58 L874.13,244.25 L887.33,244.79 L887.56,248.73 L892.63,248.32 L895.10,249.95 L898.28,250.02 L897.11,254.50 L900.29,257.15 L906.53,257.76 L907.24,259.87 L905.12,259.06 L911.13,261.70 L910.30,264.62 L914.19,266.93 L926.80,268.84 L935.76,272.57 L937.76,276.78 L946.71,280.93 L948.01,286.83 L938.94,291.05 L935.76,293.42 L936.35,294.64 L931.87,297.16 L931.16,299.81 L926.68,303.41 L927.74,307.21 L925.15,309.32 L926.09,312.37 L936.11,321.81 L938.70,325.21 L943.53,327.04 L948.48,325.41 L953.78,327.86 L953.78,330.64 L966.63,333.22 L978.53,341.71 L978.18,345.65 L980.77,348.17 L975.94,353.87 L974.52,357.67 L975.82,360.80 L969.93,368.88 L969.46,372.14 L962.86,372.96 L959.68,375.94 L954.85,377.44 L955.08,379.48 L950.49,381.85 L952.84,386.06 L950.25,388.24 L958.14,396.12 L965.21,399.04 L965.21,401.41 L962.50,404.20 L952.37,408.82 L945.30,409.56 L940.47,415.00 L926.92,421.04 L925.03,423.83 L921.14,425.66 L915.13,425.05 L911.13,431.50 L902.88,435.10 L907.24,437.48 L908.18,442.71 L899.34,445.43 L897.81,447.74 L893.81,446.11 L888.39,447.60 L887.68,450.93 L881.43,452.76 L879.08,457.38 L879.78,460.03 L874.84,467.16 L856.45,466.82 L853.98,464.38 L847.85,464.10 L832.53,465.26 L829.59,466.69 L828.17,470.56 L824.17,473.34 L816.74,470.83 L817.92,466.21 L815.45,472.87 L807.90,473.95 L806.02,476.47 L808.73,480.81 L806.61,485.16 L810.73,491.61 L807.43,496.03 L802.25,497.79 L803.54,502.14 L810.50,504.24 L817.68,508.46 L820.75,513.48 L818.51,518.92 L819.92,519.87 L819.22,522.18 L816.15,524.35 L823.11,526.25 L824.64,527.61 L822.87,533.86 L825.58,537.25 L822.99,540.72 L823.93,544.66 L821.93,548.05 L814.86,547.99 L812.74,549.34 L807.32,549.75 L804.84,553.76 L806.37,555.93 L811.56,554.51 L818.75,555.18 L821.34,557.09 L814.15,561.50 L805.10,564.58 L806.96,565.51 L811.79,565.71 L815.56,568.23 L820.39,567.61 L823.22,570.81 L828.41,571.28 L833.24,574.13 L839.96,573.66 L844.32,575.97 L844.90,579.57 L839.37,583.44 L842.43,587.24 L839.72,590.98 L826.17,593.90 L823.22,596.89 L824.28,601.30 L827.94,605.24 L825.46,607.14 L823.69,612.85 L820.98,614.14 L819.92,617.20 L822.75,621.75 L820.87,624.26 L828.05,628.95 L821.93,631.32 L815.33,630.71 L816.62,636.76 L807.79,639.13 L807.08,641.99 L801.54,644.77 L806.14,649.80 L816.51,656.18 L814.97,665.08 L820.63,667.25 L821.46,670.99 L827.47,670.38 L829.35,671.60 L833.59,669.77 L851.15,668.68 L853.74,673.57 L864.58,680.90 L864.94,683.48 L866.00,684.98 L872.60,685.12 L877.66,688.38 L888.03,689.60 L888.27,692.59 L894.16,692.99 L899.58,696.73 L893.34,697.14 L903.70,697.00 L904.53,698.16 L909.48,698.77 L918.67,698.16 L918.91,700.60 L921.38,702.37 L934.22,704.06 L938.58,707.12 L946.95,708.00 L954.73,703.93 L960.03,705.63 L961.68,707.60 L966.63,707.94 L968.04,709.97 L969.81,715.61 L964.98,721.18 L963.92,727.16 L954.02,731.78 L956.50,737.28 L955.32,740.67 L947.78,744.41 L947.30,745.84 L941.65,746.99 L932.10,751.20 L933.28,753.51 L930.34,756.63 L918.20,760.98 L914.66,763.70 L916.31,769.00 L923.50,772.19 L919.02,776.13 L922.09,781.49 L907.83,791.41 L894.51,787.88 L880.96,777.49 L877.55,776.47 L864.94,778.50 L857.04,778.64 L849.38,782.17 L839.25,783.39 L827.35,782.78 L815.92,779.18 L809.32,779.39 L806.61,777.21 L800.36,777.55 L798.83,778.57 L783.63,781.49 L777.03,786.45 L772.08,788.01 L768.90,791.21 L756.65,792.29 L750.40,799.56 L752.05,801.39 L746.87,807.17 L728.72,813.75 L729.19,816.06 L727.42,817.22 L729.07,818.65 L725.42,820.14 L729.19,821.43 L737.91,820.82 L744.16,822.79 L746.16,822.31 L749.22,826.86 L751.34,826.46 L755.70,828.90 L753.11,830.12 L752.17,829.17 L750.52,831.28 L749.10,831.21 L751.46,833.25 L750.99,835.22 L752.88,835.96 L745.45,841.53 L741.33,848.12 L742.15,849.68 L737.79,851.18 L738.97,852.60 L742.62,853.08 L743.21,856.41 L740.86,860.08 L740.27,863.06 L734.14,868.91 L746.04,874.68 L743.21,879.16 L737.56,880.79 L741.09,886.84 L743.68,886.16 L746.51,887.65 L750.87,887.79 L745.33,899.88 L744.16,901.57 L738.26,902.66 L737.56,903.68 L727.30,904.36 L719.53,908.91 L726.24,912.99 L728.48,917.40 L727.42,920.93 L730.13,923.24 L730.13,924.53 L726.36,925.48 L724.95,928.95 L722.00,930.58 L724.12,934.18 L720.00,933.77 L718.59,934.99 L713.28,933.23 L710.34,928.27 L705.03,928.27 L704.21,922.36 L704.21,927.72 L697.73,926.09 L684.41,926.91 L685.24,924.67 L681.35,924.26 L678.64,923.24 L678.87,921.41 L673.93,920.59 L671.80,922.70 L662.97,919.23 L660.96,917.06 L656.72,916.59 L648.71,905.92 L642.35,904.77 L643.88,905.51 L639.64,908.30 L640.81,914.00 L635.86,921.20 L641.17,928.67 L636.57,929.56 L637.63,926.84 L634.69,925.55 L624.79,930.17 L621.49,929.29 L618.90,930.78 L617.57,930.48 L619.49,932.89 L624.91,936.15 L622.90,945.79 L618.66,949.05 L614.77,949.53 L598.98,947.22 L591.79,948.78 L587.48,945.30 L587.08,945.79 L588.85,947.15 L585.31,946.33 L582.72,947.42 L576.83,955.44 L566.58,963.38 L570.11,964.40 L578.01,962.50 L581.90,963.38 L576.95,967.25 L567.05,968.88 L555.85,966.85 L549.14,973.23 L554.56,975.81 L557.50,978.94 L563.28,980.09 L562.10,980.77 L542.89,979.21 L538.41,977.92 L534.76,979.89 L528.16,972.28 L522.98,972.14 L521.68,971.06 L519.80,967.52 L523.33,967.05 L515.67,964.74 L518.38,962.57 L514.85,960.39 L514.73,958.97 L516.61,957.95 L518.26,952.18 L523.68,952.85 L521.92,949.80 L523.33,947.69 L520.15,946.13 L512.14,947.62 L509.59,945.03 L509.54,945.52 L500.71,945.52 L495.40,948.30 L491.63,948.30 L489.63,946.67 L479.14,945.11 L473.25,941.72 L470.19,941.85 L468.89,943.48 L464.18,942.06 L455.34,940.22 L453.45,942.46 L449.92,941.92 L450.04,943.14 L439.79,946.67 L442.26,948.30 L438.96,949.80 L435.78,957.54 L424.70,956.86 L424.35,952.58 L422.11,950.21 L418.58,950.21 L416.69,947.35 L406.56,945.04 L409.62,939.88 L413.39,937.16 L410.44,930.44 L401.61,923.11 L389.23,919.37 L383.58,919.98 L376.39,923.24 L370.97,924.12 L360.72,919.37 L362.49,918.22 L365.79,911.49 L365.08,908.37 L363.19,907.82 L352.00,909.66 L345.16,906.33 L341.39,902.53 L333.14,903.68 L321.24,901.10 L310.40,892.20 L306.51,890.71 L300.15,890.91 L296.85,889.49 L280.24,891.25 L270.10,882.63 L255.14,876.44 L257.02,870.13 L259.85,867.14 L245.36,863.06 L240.53,863.27 L238.64,860.69 L232.04,858.38 L231.81,853.96 L226.39,850.50 Z M710.81,908.57 L706.33,908.91 L719.53,908.91 L710.81,908.57 Z M647.15,899.88 L646.47,900.28 L642.35,904.77 L647.15,899.88 Z M192.45,538.20 L192.10,539.70 L193.40,541.10 L192.45,538.20 Z M206.94,517.42 L210.95,514.50 L202.94,520.27 L206.94,517.42 Z M401.61,515.32 L402.08,515.23 L399.01,513.96 L397.44,513.82 L401.61,515.32 Z M417.52,551.86 L419.06,552.43 L416.83,550.81 L417.52,551.86 Z M427.16,568.65 L427.77,568.29 L427.37,567.90 L427.16,568.65 Z M421.99,607.14 L422.89,607.69 L421.70,605.49 L421.99,607.14 Z M529.22,625.22 L529.72,623.91 L528.64,624.77 L529.22,625.22 Z M530.17,622.76 L528.04,617.33 L529.95,623.33 L530.17,622.76 Z M539.24,620.59 L540.14,620.43 L528.04,617.33 L539.24,620.59 Z M558.68,612.03 L562.69,606.60 L556.75,613.51 L558.68,612.03 Z M718.23,546.97 L717.52,532.50 L717.17,543.03 L717.80,547.89 L718.23,546.97 Z M389.23,644.57 L404.32,637.10 L395.95,640.76 L389.23,644.57 Z M455.69,723.08 L457.15,722.49 L451.69,723.08 L455.69,723.08 Z M446.74,736.39 L438.25,730.07 L437.78,730.76 L446.74,736.39 Z M442.73,749.57 L445.18,749.64 L444.38,749.43 L441.44,748.28 L442.73,749.57 Z M437.43,748.42 L436.55,749.29 L441.44,748.28 L437.43,748.42 Z M424.11,755.00 L431.89,750.25 L428.24,752.42 L424.11,755.00 Z M414.79,779.31 L410.92,778.50 L406.91,778.71 L414.79,779.31 Z M400.61,773.59 L400.55,773.68 L406.91,778.71 L400.61,773.59 Z M420.11,780.41 L416.67,779.70 L421.67,781.60 L420.11,780.41 Z M425.55,784.36 L425.17,784.28 L420.46,784.41 L425.55,784.36 Z M418.69,787.67 L419.16,788.96 L420.46,784.41 L418.69,787.67 Z M416.81,808.80 L414.45,806.76 L416.35,809.42 L416.81,808.80 Z M417.77,811.07 L417.41,810.89 L417.52,811.04 L417.77,811.07 Z M422.46,811.38 L421.37,811.57 L426.82,812.33 L422.46,811.38 Z M428.15,821.11 L426.90,817.54 L426.94,820.55 L428.15,821.11 Z M436.49,822.18 L429.58,821.77 L431.18,822.52 L436.49,822.18 Z M434.72,829.51 L436.69,822.07 L436.49,822.18 L434.72,829.51 Z M430.48,830.94 L430.53,831.40 L434.72,829.51 L430.48,830.94 Z M441.08,819.66 L438.81,820.91 L446.03,818.74 L441.08,819.66 Z M483.39,816.13 L483.04,815.98 L485.74,817.76 L483.39,816.13 Z M511.43,807.17 L499.29,808.59 L486.45,810.90 L488.69,810.90 L492.46,809.88 L511.43,807.17 Z M507.54,817.90 L498.59,815.38 L503.18,817.35 L507.54,817.90 Z M521.80,834.67 L517.32,833.86 L526.04,835.56 L521.80,834.67 Z M530.76,866.73 L526.51,859.80 L528.28,863.40 L530.76,866.73 Z M508.01,879.03 L500.24,871.28 L505.54,877.06 L508.01,879.03 Z M480.66,882.92 L506.25,881.47 L506.26,881.46 L480.66,882.92 L480.66,882.92 Z M521.56,896.14 L514.54,890.24 L514.85,890.57 L521.56,896.14 Z M536.41,895.33 L529.31,895.42 L529.58,895.46 L536.41,895.33 Z M541.48,893.63 L541.56,892.90 L536.41,895.33 L541.48,893.63 Z M530.28,907.42 L527.69,903.41 L525.22,901.64 L530.28,907.42 Z M520.27,924.53 L516.50,924.40 L513.32,924.74 L520.27,924.53 Z M512.96,938.79 L516.85,933.90 L516.61,931.80 L515.76,931.45 L516.61,932.75 L512.96,938.79 Z M530.76,944.36 L528.87,944.30 L515.32,944.30 L514.02,944.84 L530.76,944.36 Z M281.30,527.41 L285.30,530.19 L287.54,531.01 L281.30,527.41 Z M303.69,533.52 L297.09,542.55 L300.15,539.70 L303.69,533.52 Z M293.79,542.96 L286.25,546.08 L285.27,546.97 L293.79,542.96 Z M280.29,549.32 L279.53,549.48 L278.84,550.00 L280.29,549.32 Z M276.70,563.27 L276.61,565.53 L277.64,564.83 L276.70,563.27 Z M275.01,566.62 L268.92,568.29 L274.34,567.07 L275.01,566.62 Z M272.46,593.49 L286.60,581.88 L271.75,593.29 L264.68,598.52 L272.46,593.49 Z M260.91,613.53 L263.62,618.35 L265.98,620.18 L260.91,613.53 Z M285.19,619.98 L284.01,624.12 L284.48,626.23 L284.13,630.64 L285.19,619.98 Z M257.49,632.48 L270.22,630.24 L250.90,632.88 L240.76,634.58 L257.49,632.48 Z M254.07,662.79 L252.07,663.72 L251.83,664.59 L254.07,662.79 Z M255.48,684.19 L255.61,684.98 L259.85,687.97 L255.48,684.19 Z M268.22,690.82 L270.22,703.79 L270.46,700.74 L268.22,690.82 Z M265.27,712.49 L263.99,712.84 L269.04,712.21 L265.27,712.49 Z M260.09,733.47 L254.08,741.42 L253.13,743.73 L260.09,733.47 Z M255.26,750.05 L251.60,750.59 L261.85,749.57 L255.26,750.05 Z M270.46,751.06 L273.28,751.34 L261.85,749.57 L270.46,751.06 Z M289.42,759.54 L289.55,760.44 L290.85,761.45 L289.42,759.54 Z M301.33,775.18 L303.33,771.85 L299.92,776.53 L299.56,781.09 L301.33,775.18 Z M287.31,781.70 L284.48,779.39 L288.72,785.64 L287.31,781.70 Z M283.18,820.28 L286.01,825.23 L288.25,826.93 L283.18,820.28 Z M430.62,832.18 L430.69,832.75 L434.01,834.47 L430.62,832.18 Z M441.55,845.00 L441.16,845.10 L447.33,847.92 L441.55,845.00 Z M425.41,844.32 L417.04,846.36 L411.39,848.73 L425.41,844.32 Z M397.60,857.83 L394.78,857.14 L405.02,861.37 L397.60,857.83 Z M404.23,867.75 L404.23,867.75 L405.02,861.37 L404.23,867.75 Z M416.56,872.98 L419.28,874.54 L421.79,875.07 L416.56,872.98 Z M444.15,881.74 L434.01,877.80 L441.08,881.20 L450.74,883.85 L444.15,881.74 Z M451.95,877.19 L450.63,877.12 L444.15,881.74 L451.95,877.19 Z M440.61,893.90 L440.61,892.75 L437.90,895.05 L428.95,899.74 L440.61,893.90 Z M438.14,912.78 L434.25,912.17 L442.26,913.53 L438.14,912.78 Z M449.33,916.99 L454.63,921.54 L456.10,922.05 L449.33,916.99 Z M207.66,660.85 L206.83,660.26 L203.76,659.24 L207.66,660.85 Z M148.97,730.89 L141.78,738.09 L144.73,736.26 L148.97,730.89 Z M208.47,750.39 L202.58,752.49 L197.75,755.28 L208.47,750.39 Z M193.16,765.12 L188.91,764.65 L190.45,765.26 L193.16,765.12 Z M237.11,806.15 L237.09,806.00 L233.34,808.32 L237.11,806.15 Z M248.42,807.91 L250.40,807.06 L246.21,807.57 L248.42,807.91 Z M236.76,803.36 L233.34,799.49 L236.82,803.85 L236.76,803.36 Z M277.64,788.90 L298.27,794.21 L294.49,792.70 L277.64,788.90 Z M245.83,772.26 L253.49,772.19 L245.46,772.19 L245.83,772.26 Z M147.30,706.34 L145.67,706.58 L135.77,711.13 L147.30,706.34 Z M213.19,699.65 L224.26,704.06 L208.71,696.87 L213.19,699.65 Z M195.04,717.92 L195.51,706.92 L194.10,714.05 L195.04,717.92 Z M201.99,707.32 L181.14,704.95 L195.51,706.92 L201.99,707.32 Z M150.26,705.90 L148.74,706.12 L153.56,706.72 L150.26,705.90 Z M141.65,678.43 L142.02,678.39 L151.21,673.16 L141.65,678.43 Z M198.52,588.10 L197.63,588.80 L198.89,589.84 L198.52,588.10 Z M201.75,585.56 L200.10,586.86 L201.17,586.63 L201.75,585.56 Z M191.27,616.18 L198.90,614.52 L197.40,614.41 L191.27,616.18 Z M205.54,622.74 L207.04,623.23 L205.91,622.73 L205.54,622.74 Z M234.00,609.26 L234.99,608.98 L236.64,607.08 L234.00,609.26 Z M204.00,637.50 L208.12,635.87 L201.27,637.68 L204.00,637.50 Z M211.83,625.35 L209.77,630.98 L212.13,625.48 L211.83,625.35 Z M172.30,611.15 L177.60,613.05 L170.53,609.72 L172.30,611.15 Z M257.02,597.63 L252.78,598.52 L242.88,603.48 L257.02,597.63 Z M227.33,561.91 L232.87,559.80 L222.97,563.40 L227.33,561.91 Z M261.74,551.65 L254.31,552.26 L252.61,552.75 L261.74,551.65 Z M366.14,875.83 L356.59,875.77 L367.50,876.27 L366.49,874.81 L366.14,875.83 Z M385.82,829.17 L397.95,837.19 L393.83,834.27 L385.82,829.17 Z M430.00,832.39 L421.40,825.37 L428.24,831.48 L430.00,832.39 Z M343.28,821.77 L343.51,824.69 L345.50,826.24 L343.28,821.77 Z M320.77,609.59 L316.29,609.59 L303.10,610.13 L320.77,609.59 Z M328.15,604.90 L325.25,605.51 L321.95,606.87 L328.15,604.90 Z M369.79,618.35 L368.97,614.00 L364.61,606.26 L369.79,618.35 Z M308.87,723.63 L306.28,723.01 L308.84,723.85 L308.87,723.63 Z M307.81,732.32 L308.23,728.87 L306.55,733.88 L307.81,732.32 Z M315.82,735.17 L314.45,734.68 L319.12,740.13 L315.82,735.17 Z M381.46,735.51 L380.16,733.81 L381.36,735.92 L381.46,735.51 Z M383.22,722.61 L385.70,723.42 L399.01,724.03 L383.22,722.61 Z M417.28,730.62 L410.92,729.13 L412.92,730.15 L417.28,730.62 Z M347.94,777.90 L347.99,778.71 L346.92,778.85 L349.52,781.97 L347.94,777.90 Z M347.50,771.64 L350.47,762.61 L347.40,770.29 L347.50,771.64 Z M368.97,748.96 L353.88,759.89 L350.47,762.61 L368.97,748.96 Z M369.20,751.27 L374.03,753.78 L371.32,751.68 L369.20,751.27 Z M395.83,771.37 L398.89,772.19 L398.54,771.92 L395.83,771.37 Z M376.81,776.54 L380.40,775.24 L378.98,775.04 L376.81,776.54 Z M380.40,739.86 L380.95,737.57 L379.81,738.02 L380.40,739.86 Z M385.82,712.42 L385.61,710.15 L384.87,710.38 L385.82,712.42 Z M338.57,712.28 L337.94,711.66 L337.62,714.25 L338.57,712.28 Z M354.83,718.06 L350.58,715.00 L349.32,714.71 L354.83,718.06 Z M380.52,723.09 L375.57,720.30 L379.81,723.22 L380.52,723.09 Z M339.15,694.15 L334.68,694.15 L342.81,695.03 L339.15,694.15 Z M349.76,710.45 L344.46,706.37 L349.21,710.89 L349.76,710.45 Z M303.33,672.07 L300.78,678.48 L301.68,678.19 L303.33,672.07 Z M307.69,668.88 L307.69,671.26 L308.60,668.85 L307.69,668.88 Z M309.11,637.78 L317.59,644.30 L314.17,641.44 L309.11,637.78 Z M302.17,555.92 L303.21,557.22 L304.56,557.63 L302.17,555.92 Z M337.15,598.19 L337.03,598.72 L341.28,600.35 L337.15,598.19 Z M342.69,593.49 L337.62,596.07 L337.44,596.90 L342.69,593.49 Z M355.42,586.84 L353.41,587.11 L347.87,589.48 L355.42,586.84 Z M367.91,589.69 L368.69,589.02 L362.01,589.21 L367.91,589.69 Z M477.38,890.37 L476.01,890.82 L480.20,890.57 L477.38,890.37 Z M502.59,891.45 L486.65,894.58 L486.65,894.58 L502.59,891.45 Z M494.23,929.01 L495.75,929.92 L492.11,926.43 L494.23,929.01 Z M454.04,846.42 L460.74,848.72 L459.82,848.05 L454.04,846.42 Z M462.17,849.75 L462.17,853.62 L462.65,850.09 L462.17,849.75 Z M463.75,873.21 L463.24,873.12 L458.29,875.63 L463.75,873.21 Z M465.47,873.80 L467.21,873.82 L465.04,873.43 L465.47,873.80 Z M457.81,827.95 L468.42,829.38 L455.58,826.86 L457.81,827.95 Z M488.81,834.40 L490.09,831.23 L489.63,831.41 L488.81,834.40 Z M481.50,845.61 L481.39,845.75 L483.74,845.20 L481.50,845.61 Z M481.50,843.32 L480.56,843.98 L481.50,845.61 L481.50,843.32 Z M519.93,805.11 L517.68,803.02 L518.97,805.06 L513.55,806.62 L519.93,805.11 Z M512.80,648.26 L512.02,648.51 L511.98,648.90 L512.80,648.26 Z M479.14,723.35 L478.83,723.34 L482.56,725.12 L479.14,723.35 Z M517.20,755.48 L515.44,753.58 L516.73,756.32 L520.16,755.25 L517.20,755.48 Z M516.94,756.75 L517.56,758.06 L521.09,759.15 L516.94,756.75 Z M522.03,770.64 L520.97,770.22 L520.45,769.17 L520.03,769.81 L522.51,774.09 L522.03,770.64 Z M519.60,776.06 L513.67,777.08 L519.21,776.33 L519.60,776.06 Z M516.85,790.32 L507.07,791.27 L505.94,791.93 L516.85,790.32 Z M494.01,792.96 L493.75,793.99 L499.53,797.32 L509.66,802.21 L508.25,798.95 L509.07,801.33 L495.76,794.67 L494.01,792.96 Z M429.97,785.36 L428.17,784.95 L429.18,785.50 L429.97,785.36 Z M450.51,787.61 L450.16,786.04 L450.41,787.66 L450.51,787.61 Z M460.15,781.92 L460.88,782.65 L461.47,782.54 L460.15,781.92 Z M477.59,785.36 L463.47,782.17 L474.55,785.02 L477.59,785.36 Z M487.50,785.60 L484.47,786.11 L485.74,786.25 L487.50,785.60 Z M491.28,782.17 L494.23,783.12 L498.00,782.99 L491.28,782.17 Z M507.66,779.18 L508.96,777.49 L507.19,779.59 L510.84,780.68 L507.66,779.18 Z M470.78,795.01 L468.70,795.53 L470.66,795.62 L474.55,798.61 L470.31,795.28 L472.38,794.52 L463.94,793.58 L470.78,795.01 Z M453.22,751.68 L459.23,758.47 L458.29,756.70 L453.22,751.68 Z M500.00,761.32 L517.56,764.99 L511.78,763.29 L500.00,761.32 Z M458.30,781.04 L456.40,780.13 L453.27,780.24 L458.30,781.04 Z M498.47,775.86 L497.82,775.77 L496.58,778.91 L498.47,775.86 Z M484.68,767.03 L477.18,764.20 L478.32,765.33 L484.68,767.03 Z M466.21,698.23 L453.34,691.77 L465.83,698.36 L466.21,698.23 Z M475.89,690.64 L473.02,690.21 L472.89,690.57 L475.89,690.64 Z M483.03,690.82 L494.70,688.92 L480.50,690.76 L483.03,690.82 Z M456.28,682.13 L455.58,680.29 L454.64,683.76 L456.28,682.13 Z M549.46,839.50 L535.59,829.78 L528.40,825.78 L532.52,828.22 L549.45,839.50 L549.46,839.50 Z M562.57,825.50 L564.34,826.59 L561.86,824.17 L562.57,825.50 Z M575.06,826.84 L575.41,828.43 L575.89,826.86 L575.06,826.84 Z M567.99,831.69 L567.17,833.25 L567.99,833.84 L567.99,831.69 Z M582.48,835.56 L578.36,840.31 L584.02,835.22 L582.48,835.56 Z M590.50,850.84 L580.72,849.55 L591.88,851.69 L578.36,840.31 L590.50,850.84 Z M584.02,833.04 L583.66,821.29 L584.02,835.22 L584.02,833.04 Z M613.24,851.93 L615.06,853.69 L615.13,852.88 L613.24,851.93 Z M614.96,854.90 L613.83,856.61 L614.80,856.71 L614.96,854.90 Z M631.62,879.91 L630.92,882.35 L630.44,893.08 L631.62,879.91 Z M612.53,891.86 L611.12,893.42 L612.19,895.01 L612.53,891.86 Z M612.02,896.57 L608.76,897.77 L611.94,897.30 L612.02,896.57 Z M601.22,901.30 L597.57,896.07 L602.87,904.97 L601.22,901.30 Z M617.13,920.93 L608.06,920.80 L607.95,921.00 L617.13,920.93 Z M607.63,921.64 L607.23,922.43 L608.86,924.44 L607.63,921.64 Z M528.40,970.38 L529.19,969.79 L525.92,971.06 L528.40,970.38 Z M531.93,967.73 L531.23,966.44 L530.77,968.60 L531.93,967.73 Z M551.61,961.55 L549.26,961.07 L540.42,960.60 L551.61,961.55 Z M550.79,958.29 L550.35,957.80 L549.26,961.07 L550.79,958.29 Z M537.12,917.74 L531.70,909.66 L536.88,917.73 L537.12,917.74 Z M542.66,916.38 L539.24,916.18 L545.37,916.59 L542.66,916.38 Z M545.48,914.14 L545.04,914.49 L549.96,915.97 L545.48,914.14 Z M561.39,912.15 L561.16,900.22 L561.39,912.15 L561.39,912.15 Z M565.52,909.11 L561.90,911.98 L563.75,911.36 L565.52,909.11 Z M581.90,902.93 L585.20,907.35 L586.61,908.71 L581.90,902.93 Z M525.30,926.27 L526.16,926.57 L526.55,926.20 L525.30,926.27 Z M563.51,925.28 L544.31,924.87 L532.05,923.45 L549.73,925.62 L563.51,925.28 Z M578.48,928.54 L581.66,924.40 L583.31,921.95 L578.48,928.54 Z M580.60,939.51 L582.49,939.41 L582.25,935.47 L581.66,939.00 L580.60,939.51 Z M582.60,941.38 L584.96,943.96 L586.25,944.31 L582.60,941.38 Z M548.78,952.92 L553.15,952.60 L552.67,952.45 L548.78,952.92 Z M565.99,935.60 L563.75,936.55 L570.23,935.47 L565.99,935.60 Z M577.77,915.09 L577.18,916.79 L578.88,914.29 L577.77,915.09 Z M554.59,869.06 L553.97,868.91 L542.19,870.47 L545.84,869.99 L554.59,869.06 Z M595.92,852.47 L602.45,851.17 L602.05,851.04 L595.92,852.47 Z M603.02,851.36 L602.56,853.05 L603.93,851.65 L603.02,851.36 Z M600.74,854.92 L597.96,856.38 L599.81,855.86 L600.74,854.92 Z M559.98,875.02 L559.04,870.20 L559.39,874.14 L562.22,878.62 L559.98,875.02 Z M540.47,887.76 L541.75,891.09 L541.95,889.15 L540.47,887.76 Z M577.18,890.30 L575.03,890.08 L580.36,892.41 L577.18,890.30 Z M601.69,869.86 L593.68,874.34 L595.45,873.59 L601.69,869.86 Z M658.61,712.42 L659.58,713.44 L658.14,705.42 L658.61,712.42 Z M581.85,772.93 L582.01,773.55 L580.22,773.68 L585.55,774.84 L581.85,772.93 Z M608.06,781.43 L609.39,781.29 L607.46,780.78 L608.06,781.43 Z M612.77,780.95 L616.06,777.64 L611.04,781.12 L612.77,780.95 Z M621.72,775.52 L617.95,776.33 L616.73,777.18 L621.72,775.52 Z M633.15,792.63 L635.28,792.90 L633.51,792.37 L633.15,792.63 Z M614.31,799.42 L615.01,798.81 L614.42,798.47 L614.31,799.42 Z M613.96,802.44 L615.01,802.07 L614.09,801.28 L613.96,802.44 Z M613.71,804.59 L611.54,804.19 L613.71,808.73 L612.06,804.45 L613.71,804.59 Z M602.40,802.55 L608.88,804.04 L609.74,803.87 L602.40,802.55 Z M586.14,803.36 L585.80,803.64 L588.14,803.91 L586.14,803.36 Z M591.68,674.66 L594.86,675.20 L601.10,674.79 L591.68,674.66 Z M520.28,815.73 L517.56,815.45 L516.75,816.18 L520.28,815.73 Z M531.68,814.33 L528.76,812.08 L530.28,813.82 L531.68,814.33 Z M534.41,815.32 L543.25,811.79 L533.58,815.02 L534.41,815.32 Z M526.25,807.36 L523.10,808.05 L525.10,807.91 L526.25,807.36 Z M525.74,753.51 L524.98,753.31 L523.88,754.09 L525.74,753.51 Z M559.39,731.30 L556.21,727.77 L560.57,732.79 L559.39,731.30 Z M570.89,731.87 L564.93,725.05 L570.47,731.78 L559.39,731.30 L570.89,731.87 Z M577.77,780.61 L574.59,785.77 L576.36,783.39 L577.77,780.61 Z M576.20,776.30 L575.89,777.76 L577.77,780.61 L576.20,776.30 Z M576.71,773.95 L576.62,774.39 L577.17,773.92 L576.71,773.95 Z M519.34,728.85 L526.87,729.40 L529.72,728.91 L519.80,728.38 L519.34,728.85 Z M541.60,729.53 L532.58,729.06 L534.17,729.81 L541.60,729.53 Z M655.66,875.83 L656.11,875.51 L649.06,875.90 L655.66,875.83 Z M698.76,915.87 L698.20,916.38 L699.50,919.64 L698.76,915.87 Z M686.18,891.79 L687.83,888.87 L683.71,895.73 L686.18,891.79 Z M686.18,887.58 L684.98,887.60 L687.83,888.87 L686.18,887.58 Z M709.98,897.16 L703.81,896.88 L708.33,897.64 L707.39,899.20 L709.98,897.16 Z M709.06,902.93 L709.39,902.46 L707.39,899.20 L709.06,902.93 Z M655.43,896.07 L655.49,894.42 L653.66,898.04 L655.43,896.07 Z M649.77,898.31 L648.64,898.99 L653.66,898.04 L649.77,898.31 Z M654.48,816.13 L654.72,819.46 L655.87,819.61 L654.48,816.13 Z M666.62,821.02 L675.81,819.66 L679.93,818.78 L666.62,821.02 Z M712.26,826.47 L714.94,827.67 L714.34,827.07 L712.26,826.47 Z M729.78,841.47 L733.34,845.47 L733.67,845.07 L729.78,841.47 Z M734.39,846.65 L734.85,847.17 L736.41,847.40 L734.39,846.65 Z M646.82,848.53 L646.92,848.59 L646.47,847.78 L656.72,842.48 L647.41,846.56 L644.47,850.16 L646.82,848.53 Z M688.54,841.26 L688.26,842.17 L689.95,839.63 L688.54,841.26 Z M610.96,835.35 L613.71,833.04 L611.47,833.86 L610.96,835.35 Z M611.71,830.06 L615.83,824.42 L612.42,827.88 L611.71,830.06 Z M635.86,796.91 L639.16,798.27 L633.98,795.89 L635.86,796.91 Z M654.60,801.94 L658.96,801.39 L650.83,801.53 L654.60,801.94 Z M714.34,777.83 L721.77,771.51 L719.76,772.87 L714.34,777.83 Z M691.84,785.91 L697.37,786.11 L695.14,785.50 L691.84,785.91 Z M793.65,750.66 L796.36,752.42 L801.31,754.66 L793.65,750.66 Z M796.59,744.82 L794.35,747.53 L793.65,750.66 L796.59,744.82 Z M867.53,721.38 L867.18,723.08 L867.41,724.85 L867.53,721.38 Z M879.87,746.77 L866.00,747.26 L876.96,747.13 L879.87,746.77 Z M898.52,741.76 L882.23,746.49 L886.50,745.97 L898.52,741.76 Z M951.64,738.70 L945.42,739.38 L948.84,739.52 L951.64,738.70 Z M706.57,682.60 L716.35,683.62 L725.00,683.55 L706.57,682.60 Z M733.87,683.47 L740.50,683.42 L741.17,683.04 L733.87,683.47 Z M866.75,704.97 L870.00,702.83 L867.29,703.79 L866.75,704.97 Z M689.83,713.30 L691.84,710.92 L687.48,714.05 L689.83,713.30 Z M755.00,702.09 L759.83,699.17 L753.01,702.41 L755.00,702.09 Z M772.95,696.04 L771.49,695.57 L763.60,697.82 L772.95,696.04 Z M750.01,684.01 L749.34,684.50 L752.90,686.40 L750.01,684.01 Z M764.78,690.75 L770.14,694.08 L768.67,692.45 L764.78,690.75 Z M663.34,657.74 L660.26,658.42 L659.58,659.01 L663.34,657.74 Z M713.64,620.93 L705.62,623.65 L699.73,626.36 L713.64,620.93 Z M287.32,59.74 L285.42,57.33 L286.01,59.24 L287.32,59.74 Z M344.46,89.05 L340.92,85.04 L345.35,91.72 L344.46,89.05 Z M346.93,96.46 L346.33,94.66 L346.02,97.63 L346.93,96.46 Z M470.31,222.99 L471.01,220.00 L466.09,229.33 L470.31,222.99 Z M462.76,234.33 L463.34,233.47 L457.70,235.76 L462.76,234.33 Z M450.16,240.78 L447.09,239.09 L442.14,237.86 L450.16,240.78 Z M436.49,232.02 L439.90,235.96 L442.14,237.86 L436.49,232.02 Z M437.62,317.19 L436.72,313.59 L436.60,316.18 L437.62,317.19 Z M439.26,323.80 L438.17,319.39 L437.43,320.45 L439.26,323.80 Z M440.36,328.39 L440.38,328.27 L439.90,326.37 L439.43,327.38 L440.36,328.39 Z M490.34,314.82 L489.76,315.23 L495.52,314.95 L490.34,314.82 Z M479.46,335.48 L492.46,336.28 L483.03,335.13 L479.46,335.48 Z M524.16,349.52 L521.13,349.03 L526.87,351.02 L524.16,349.52 Z M522.80,354.15 L523.22,352.91 L522.04,353.53 L522.80,354.15 Z M518.62,365.03 L519.21,364.74 L521.00,359.47 L518.38,364.26 L518.62,365.03 Z M460.06,376.36 L460.05,376.35 L450.39,373.09 L460.06,376.36 Z M481.74,392.52 L464.06,386.74 L467.12,387.83 L481.74,392.52 Z M497.88,415.81 L493.28,414.18 L500.24,418.12 L497.88,415.81 Z M496.58,417.92 L500.35,418.16 L500.24,418.12 L496.58,417.92 Z M490.22,427.09 L493.87,420.30 L491.99,422.27 L490.22,427.09 Z M519.33,436.60 L512.14,434.02 L515.55,435.51 L519.33,436.60 Z M477.96,514.70 L468.18,510.77 L473.72,513.48 L477.96,514.70 Z M497.41,521.84 L481.62,517.63 L496.70,521.84 L497.41,521.84 Z M558.80,530.05 L555.97,529.99 L563.16,530.94 L558.80,530.05 Z M463.47,605.78 L463.35,603.48 L462.65,607.89 L463.47,605.78 Z M277.43,95.81 L278.35,95.91 L282.83,91.29 L277.43,95.81 Z M344.27,99.91 L334.09,105.01 L343.63,100.73 L344.27,99.91 Z M316.41,175.38 L311.70,170.90 L316.06,176.67 L316.65,178.50 L316.41,175.38 Z M298.93,202.95 L300.11,203.97 L300.15,203.50 L298.93,202.95 Z M280.83,278.89 L283.05,280.23 L282.95,279.57 L280.83,278.89 Z M260.56,356.25 L259.08,356.43 L272.70,358.35 L260.56,356.25 Z M277.58,360.95 L277.53,360.46 L272.70,358.35 L277.58,360.95 Z M284.95,367.60 L286.25,368.68 L295.67,371.39 L284.95,367.60 Z M305.81,368.88 L308.19,372.57 L308.19,372.57 L305.81,368.88 Z M292.75,461.31 L293.20,461.80 L298.03,460.71 L292.75,461.31 Z M318.42,462.00 L326.50,461.71 L326.07,461.52 L318.42,462.00 Z M86.87,375.47 L90.99,375.20 L85.13,374.72 L86.87,375.47 Z M129.05,385.73 L124.46,382.74 L121.87,382.34 L129.05,385.73 Z M183.96,356.18 L158.71,363.29 L158.71,363.29 L183.96,356.18 Z M207.14,362.90 L205.53,362.36 L191.15,362.77 L207.14,362.90 Z M124.81,424.10 L119.39,423.42 L127.37,425.11 L124.81,424.10 Z M130.82,426.48 L129.86,426.09 L133.53,434.76 L130.82,426.48 Z M257.49,414.05 L252.78,416.49 L258.05,414.05 L257.49,414.05 Z M267.16,422.13 L265.97,419.81 L266.10,422.95 L267.16,422.13 Z M193.67,484.42 L191.86,486.72 L194.22,484.96 L193.67,484.42 Z M199.52,487.67 L210.48,488.49 L213.19,488.21 L199.52,487.67 Z M215.57,487.97 L217.19,487.81 L223.44,484.00 L215.57,487.97 Z M165.46,461.25 L168.73,465.42 L168.17,463.22 L165.46,461.25 Z M186.44,477.55 L186.38,477.56 L189.62,478.10 L186.44,477.55 Z M183.07,477.75 L181.84,477.82 L179.61,479.25 L183.07,477.75 Z M248.89,470.96 L240.53,466.55 L244.41,471.30 L241.94,467.70 L248.89,470.96 Z M162.05,409.90 L165.35,416.29 L164.88,413.30 L162.05,409.90 Z M226.03,390.07 L226.46,390.43 L222.26,384.03 L226.03,390.07 Z M229.93,393.35 L233.22,396.12 L232.04,394.08 L229.93,393.35 Z M193.32,257.72 L187.50,250.77 L191.98,257.15 L193.32,257.72 Z M208.00,261.77 L197.10,259.32 L199.52,260.35 L208.00,261.77 Z M159.34,340.56 L145.08,341.78 L163.23,340.83 L159.34,340.56 Z M170.77,338.79 L173.71,337.43 L163.23,340.83 L170.77,338.79 Z M189.62,323.44 L202.58,324.60 L206.58,324.10 L189.62,323.44 Z M207.85,324.15 L209.06,324.80 L214.01,324.39 L207.85,324.15 Z M105.83,325.93 L106.55,326.57 L108.24,326.50 L105.83,325.93 Z M232.16,186.52 L219.39,190.83 L221.08,191.00 L232.16,186.52 Z M507.78,556.68 L508.09,556.39 L500.00,558.17 L507.78,556.68 Z M455.68,434.39 L457.11,433.27 L458.88,429.87 L455.68,434.39 Z M399.82,456.62 L401.73,457.24 L409.15,457.31 L399.82,456.62 Z M447.33,427.36 L448.23,427.91 L444.74,423.56 L447.33,427.36 Z M453.22,430.96 L451.57,428.92 L448.67,428.18 L453.22,430.96 Z M360.84,335.94 L370.73,337.03 L378.04,337.37 L360.84,335.94 Z M372.50,193.58 L374.39,195.35 L377.57,197.11 L372.50,193.58 Z M409.38,211.10 L409.17,211.94 L411.74,210.90 L407.87,210.80 L409.38,211.10 Z M355.42,215.38 L354.12,218.44 L356.78,214.82 L355.42,215.38 Z M381.10,215.99 L387.11,215.65 L377.92,215.79 L381.10,215.99 Z M377.69,221.56 L378.16,222.07 L378.16,220.80 L377.69,221.56 Z M606.75,215.95 L619.01,218.44 L608.17,215.93 L606.75,215.95 Z M629.97,228.76 L630.92,231.41 L629.39,226.48 L628.79,228.49 L627.82,228.67 L629.97,228.76 Z M628.56,233.11 L627.90,234.99 L630.92,231.41 L628.56,233.11 Z M627.17,237.07 L626.56,238.81 L629.27,244.45 L627.17,237.07 Z M636.22,249.55 L629.15,251.79 L633.27,251.24 L631.74,253.49 L636.22,249.55 Z M633.74,258.65 L635.17,260.85 L631.74,253.49 L633.74,258.65 Z M635.74,261.72 L636.22,262.45 L639.52,264.15 L635.74,261.72 Z M627.85,273.79 L628.69,273.31 L626.53,273.85 L632.57,274.47 L627.85,273.79 Z M659.55,318.01 L651.07,325.55 L653.78,323.24 L659.55,318.01 Z M695.37,366.23 L692.90,371.33 L698.39,363.26 L695.37,366.23 Z M629.27,379.53 L625.14,379.20 L629.03,379.54 L629.27,379.53 Z M633.04,429.33 L636.10,431.10 L639.90,431.51 L633.04,429.33 Z M609.70,526.18 L604.64,528.29 L604.60,529.19 L609.70,526.18 Z M589.72,351.73 L589.81,349.43 L589.44,351.43 L589.72,351.73 Z M556.06,472.53 L568.23,478.23 L572.59,478.84 L565.40,476.67 L558.80,472.93 L556.06,472.53 Z M570.25,485.40 L565.40,482.04 L569.52,485.30 L570.25,485.40 Z M608.17,498.81 L599.29,496.66 L601.81,497.79 L608.17,498.81 Z M512.55,496.16 L508.13,493.85 L511.78,496.50 L512.55,496.16 Z M522.62,426.27 L527.92,429.04 L527.69,428.45 L522.62,426.27 Z M590.20,439.22 L590.85,439.79 L592.59,439.72 L590.20,439.22 Z M595.73,439.59 L599.22,439.45 L605.58,437.41 L595.73,439.59 Z M508.12,406.19 L507.78,406.37 L503.77,413.37 L508.12,406.19 Z M510.25,406.15 L510.25,405.08 L509.45,405.50 L510.25,406.15 Z M506.60,414.59 L510.25,409.63 L510.25,407.99 L506.60,414.59 Z M556.56,345.04 L556.74,344.97 L549.61,344.91 L548.08,345.38 L556.56,345.04 Z M577.18,339.13 L568.11,340.49 L584.49,339.20 L577.18,339.13 Z M590.26,338.05 L589.20,340.76 L590.05,343.41 L590.26,338.05 Z M587.76,326.29 L590.50,327.31 L591.83,327.23 L587.76,326.29 Z M555.16,306.86 L556.80,306.73 L559.04,304.15 L555.16,306.86 Z M609.00,295.46 L609.15,296.26 L610.94,294.05 L609.00,295.46 Z M532.64,247.44 L533.92,246.29 L530.15,248.03 L532.64,247.44 Z M543.36,224.28 L540.65,227.74 L550.79,218.98 L543.36,224.28 Z M662.76,206.82 L664.14,206.55 L665.09,203.50 L662.76,206.82 Z M647.41,207.91 L656.37,208.05 L659.33,207.48 L647.41,207.91 Z M705.62,361.61 L699.85,361.82 L699.20,362.46 L705.62,361.61 Z M721.65,367.18 L713.28,363.92 L711.74,363.74 L721.65,367.18 Z M804.13,386.68 L799.95,388.80 L799.95,388.80 L804.13,386.68 Z M858.54,386.22 L858.54,386.22 L851.39,385.32 L858.54,386.22 Z M858.29,378.17 L857.28,379.95 L858.37,380.71 L858.29,378.17 Z M890.27,369.29 L890.51,363.11 L889.56,365.15 L890.27,369.29 Z M928.45,345.65 L929.63,342.32 L926.80,349.39 L928.45,345.65 Z M685.59,451.40 L684.41,454.07 L685.59,453.24 L685.59,451.40 Z M737.56,423.35 L736.26,426.14 L741.92,419.28 L737.56,423.35 Z M745.10,419.01 L748.63,417.65 L741.92,419.28 L745.10,419.01 Z M769.91,443.68 L768.90,443.80 L761.83,449.37 L769.91,443.68 Z M799.62,463.53 L791.34,463.94 L796.59,464.10 L799.62,463.53 Z M704.92,488.56 L706.67,488.14 L702.42,488.10 L704.92,488.56 Z M700.20,409.97 L703.27,405.90 L703.20,403.47 L700.20,409.97 Z M834.89,423.96 L835.24,429.40 L834.65,419.75 L834.89,423.96 Z M913.72,407.32 L907.48,415.13 L907.71,412.89 L907.36,416.09 L913.72,407.32 Z M830.41,443.12 L831.12,441.35 L828.64,444.07 L830.41,443.12 Z M862.70,360.73 L857.36,358.83 L857.63,359.17 L845.02,353.33 L853.04,357.88 L862.70,360.73 Z M745.45,309.86 L743.90,310.10 L750.64,311.83 L745.45,309.86 Z M778.68,303.88 L770.31,309.04 L779.83,303.88 L778.68,303.88 Z M804.96,303.75 L799.28,303.78 L802.25,304.36 L804.96,303.75 Z M816.86,367.39 L818.51,362.97 L816.04,367.93 L800.48,378.25 L816.86,367.39 Z M799.89,384.10 L798.36,381.58 L799.55,387.00 L799.89,384.10 Z M734.56,233.11 L737.56,229.99 L734.73,231.96 L734.56,233.11 Z M752.17,231.00 L740.27,229.85 L737.56,229.99 L752.17,231.00 Z M730.25,197.59 L692.53,205.87 L692.53,205.87 L722.36,199.42 L730.25,197.59 Z M747.10,205.06 L737.44,202.55 L736.02,202.41 L747.10,205.06 Z M769.96,145.83 L768.67,146.99 L771.95,145.81 L769.96,145.83 Z" /></g></svg>