<svg xmlns="http://www.w3.org/2000/svg" viewBox="0 0 1000 1000" width="1000" height="1000"><g fill="#cccccc" stroke="#222" stroke-width="2"><path d="M238.27,862.77 L236.56,859.32 L237.64,857.38 L237.44,854.62 L238.37,851.62 L237.20,849.55 L237.39,847.42 L235.40,845.41 L234.96,842.53 L231.45,842.65 L231.74,839.21 L234.23,837.58 L229.70,836.07 L227.60,831.00 L228.63,827.18 L234.23,824.42 L234.66,823.35 L233.74,822.10 L229.99,821.47 L229.50,819.66 L230.33,818.97 L232.03,820.60 L233.01,820.10 L233.30,817.59 L231.89,814.64 L232.57,813.20 L234.81,814.33 L235.49,815.96 L236.32,815.77 L237.20,813.77 L235.88,810.88 L239.00,811.45 L242.85,807.69 L243.38,805.43 L247.86,804.62 L251.76,807.50 L254.10,807.81 L258.97,803.30 L262.82,801.80 L263.69,796.47 L266.32,795.47 L266.32,793.34 L265.84,792.15 L267.74,789.01 L267.79,786.69 L270.95,782.93 L269.00,779.68 L268.96,776.67 L266.08,777.42 L265.40,775.41 L266.08,772.85 L263.40,771.15 L265.69,770.90 L261.55,771.22 L260.24,770.40 L259.90,766.89 L257.41,762.82 L247.77,755.05 L244.99,755.36 L242.31,750.98 L237.54,752.54 L234.86,750.29 L230.48,749.97 L228.53,750.35 L227.94,751.85 L226.68,752.17 L223.56,750.04 L218.98,744.02 L215.38,743.46 L214.79,740.20 L216.45,736.94 L219.47,734.81 L219.27,732.30 L217.67,730.55 L218.30,727.35 L222.63,724.78 L225.41,720.90 L232.03,717.57 L235.64,717.20 L237.30,715.95 L238.03,713.69 L238.17,706.80 L235.40,705.17 L235.59,695.14 L234.71,694.07 L231.84,693.76 L231.35,692.57 L232.57,687.81 L231.94,684.36 L230.72,683.42 L231.55,677.09 L230.18,675.34 L226.04,676.72 L224.83,676.28 L223.51,673.77 L224.29,671.95 L227.65,670.26 L228.63,668.63 L228.14,664.87 L225.17,661.80 L223.71,658.48 L227.02,648.77 L227.16,646.20 L222.00,638.43 L219.27,636.05 L219.61,631.10 L220.98,627.52 L225.22,623.14 L226.58,619.06 L225.95,615.81 L225.07,614.80 L222.68,615.37 L218.06,612.99 L216.11,613.17 L206.85,609.66 L205.64,610.35 L202.27,607.41 L200.08,603.52 L200.62,598.26 L198.77,592.93 L200.86,587.29 L203.35,583.78 L203.25,580.40 L205.83,581.65 L201.54,579.40 L199.94,576.01 L196.14,572.44 L194.53,572.94 L189.85,577.83 L186.44,579.40 L184.50,578.96 L183.47,580.78 L183.67,582.34 L182.45,582.97 L181.67,586.67 L178.21,586.60 L178.41,589.55 L176.31,588.61 L176.02,589.61 L176.95,590.24 L175.34,590.86 L174.27,592.68 L170.76,592.87 L169.64,592.06 L163.16,594.31 L159.46,593.31 L158.05,594.25 L147.23,592.37 L145.09,589.92 L139.59,591.49 L135.40,589.24 L118.69,586.48 L117.57,586.98 L114.94,585.16 L114.41,586.29 L113.63,583.91 L112.55,585.10 L109.39,582.66 L107.29,582.66 L105.15,581.09 L96.34,582.97 L94.05,581.21 L93.85,579.52 L92.83,579.52 L92.19,577.83 L85.77,580.34 L81.72,580.78 L79.29,583.35 L76.46,581.28 L75.63,578.52 L74.76,578.58 L74.71,579.46 L70.52,583.47 L65.06,582.84 L63.60,581.47 L56.15,583.09 L54.59,577.20 L53.23,577.71 L52.21,576.33 L52.11,572.32 L53.08,569.18 L51.43,567.93 L51.62,565.61 L48.85,566.36 L46.51,558.34 L42.66,555.52 L39.64,554.83 L39.01,549.94 L37.50,546.69 L32.19,544.05 L33.11,539.92 L32.24,536.53 L29.17,535.47 L26.10,531.14 L25.03,521.93 L22.88,520.68 L22.84,518.36 L25.17,514.60 L24.20,512.35 L24.69,510.34 L26.34,510.21 L27.80,507.08 L25.42,505.77 L24.44,504.32 L24.54,502.76 L23.32,502.51 L23.18,500.50 L24.69,498.62 L23.18,498.18 L23.66,494.23 L19.23,489.53 L19.28,487.22 L20.84,486.34 L19.67,483.83 L20.59,482.77 L20.40,479.01 L22.01,476.44 L20.50,474.31 L20.94,472.93 L23.32,471.49 L27.02,471.55 L28.78,469.98 L25.71,466.10 L25.08,463.78 L25.86,455.82 L22.30,453.56 L23.18,447.61 L22.49,444.92 L22.49,441.97 L24.05,440.72 L23.96,438.34 L34.87,401.74 L41.98,376.55 L47.97,355.49 L76.75,265.88 L78.65,264.06 L82.55,262.06 L83.23,259.30 L87.47,257.23 L89.56,257.74 L90.49,253.54 L94.48,252.97 L95.07,248.65 L97.55,250.65 L99.21,250.72 L99.65,240.13 L102.23,239.88 L103.40,237.56 L106.03,235.24 L109.88,235.74 L111.58,230.91 L116.55,226.84 L118.69,227.97 L119.76,224.08 L122.05,221.20 L126.24,219.89 L129.02,223.14 L130.48,220.70 L132.48,220.32 L134.18,223.33 L136.28,223.33 L138.52,225.40 L142.07,224.65 L143.87,226.53 L147.82,227.09 L149.18,226.03 L149.43,223.08 L151.28,223.83 L154.88,221.77 L154.35,224.46 L155.76,226.15 L157.27,223.39 L160.14,223.02 L160.92,221.39 L166.08,219.38 L166.91,217.69 L169.01,215.50 L172.76,215.94 L171.64,211.99 L173.20,210.05 L173.49,208.04 L174.80,208.48 L177.19,207.35 L181.04,208.67 L188.15,206.48 L191.90,203.84 L197.99,210.86 L210.07,208.17 L212.89,209.67 L214.99,213.62 L225.02,211.11 L227.31,213.31 L229.65,213.99 L231.60,216.81 L237.68,219.38 L240.17,219.26 L242.21,220.83 L242.95,219.70 L242.95,216.63 L245.62,216.31 L245.67,213.31 L247.04,213.18 L249.57,215.12 L250.06,216.44 L253.13,216.88 L255.46,215.00 L257.65,215.87 L259.02,214.25 L261.06,214.37 L260.67,209.98 L262.33,208.73 L264.91,209.11 L267.06,211.11 L269.20,210.11 L270.17,212.49 L274.80,216.06 L276.36,215.00 L277.48,212.87 L280.89,212.30 L283.37,207.23 L286.49,206.85 L287.71,202.40 L288.97,202.72 L290.14,204.60 L292.33,203.59 L293.46,199.71 L296.28,196.45 L297.98,197.20 L297.16,198.70 L298.18,199.46 L301.44,198.33 L301.74,200.15 L302.66,198.64 L304.02,198.33 L304.46,202.15 L305.78,204.41 L308.90,201.34 L309.53,204.22 L313.96,198.58 L316.40,199.33 L321.27,197.01 L322.29,198.08 L324.04,194.26 L325.26,193.82 L331.35,198.45 L333.40,197.08 L334.71,198.58 L336.37,198.39 L337.05,199.77 L338.61,200.02 L339.09,198.70 L340.51,199.39 L340.70,201.34 L342.11,201.27 L343.82,204.41 L344.26,203.53 L346.01,204.47 L346.79,203.28 L348.69,203.40 L350.78,206.85 L350.44,207.67 L353.07,209.48 L355.07,209.48 L355.22,211.68 L356.53,211.80 L356.82,214.37 L366.37,217.44 L369.24,220.89 L372.12,218.88 L374.02,224.08 L378.60,222.27 L385.27,221.83 L386.24,220.89 L388.44,224.15 L390.04,222.27 L396.23,223.33 L398.86,221.51 L407.24,228.47 L409.92,232.29 L410.74,235.24 L414.74,234.42 L422.97,238.06 L423.94,237.31 L425.55,238.87 L426.62,238.31 L428.28,239.81 L430.18,239.94 L431.40,241.76 L434.42,243.07 L439.24,242.26 L438.60,246.71 L442.11,248.21 L442.65,250.28 L442.01,251.97 L443.52,257.17 L446.59,257.48 L447.47,260.24 L449.12,260.56 L451.66,265.26 L449.95,265.76 L450.68,268.33 L449.76,269.77 L452.05,274.22 L452.29,279.61 L451.71,280.55 L452.39,281.99 L451.51,287.25 L453.80,287.56 L457.16,292.14 L459.50,293.77 L464.32,294.58 L467.59,291.64 L469.63,294.33 L470.36,299.60 L475.52,303.98 L473.67,305.42 L473.53,307.81 L474.84,311.75 L475.87,312.63 L473.67,314.20 L473.19,316.83 L473.62,320.46 L475.52,322.41 L476.55,330.93 L482.98,342.46 L484.83,343.02 L491.74,350.23 L496.13,353.05 L494.62,357.81 L494.91,361.51 L496.37,362.70 L496.47,366.40 L499.15,366.52 L497.83,369.78 L494.42,370.78 L492.91,375.61 L496.66,381.56 L500.41,380.69 L502.61,383.07 L506.89,384.51 L509.28,386.89 L510.30,389.33 L508.11,392.97 L512.15,395.72 L513.71,398.98 L513.71,401.93 L518.53,404.94 L520.14,407.38 L520.87,409.57 L522.19,408.88 L523.11,410.51 L522.43,412.52 L524.18,415.15 L521.89,417.09 L519.17,425.99 L520.43,429.75 L519.02,431.57 L520.14,433.26 L524.28,434.26 L528.27,433.57 L532.12,434.64 L546.88,442.47 L551.51,437.21 L558.42,436.33 L562.71,443.60 L565.58,443.54 L569.34,450.24 L571.53,448.30 L575.86,450.12 L576.69,448.93 L584.43,448.24 L587.11,452.94 L591.25,455.63 L594.27,453.13 L594.52,451.87 L595.39,452.00 L599.34,457.07 L599.09,457.43 L602.36,455.26 L602.26,454.19 L604.21,452.44 L607.67,444.29 L618.19,443.91 L633.29,437.21 L646.15,432.45 L637.72,435.08 L638.84,433.70 L635.14,397.29 L638.55,391.09 L639.04,390.71 L640.40,382.82 L644.83,379.87 L643.81,378.05 L640.30,376.05 L641.28,370.22 L642.49,369.22 L644.49,370.78 L648.78,368.53 L648.39,362.76 L650.58,363.01 L651.46,365.39 L653.16,366.21 L655.45,362.39 L656.33,365.65 L657.74,366.33 L658.47,359.38 L661.64,359.75 L661.93,363.51 L663.68,358.44 L666.41,355.24 L669.92,356.43 L670.79,358.44 L675.96,362.07 L671.38,358.63 L673.13,351.67 L674.54,351.17 L678.54,353.36 L680.44,351.55 L679.75,349.51 L679.51,349.73 L678.68,347.91 L680.88,345.53 L681.22,341.58 L682.39,340.14 L683.85,342.02 L683.46,335.69 L686.62,333.37 L683.17,327.80 L683.31,325.85 L684.72,324.16 L684.24,318.83 L686.28,318.33 L687.94,315.01 L695.34,312.57 L690.86,313.76 L694.17,300.79 L694.47,296.09 L692.91,291.07 L694.51,286.81 L694.61,282.17 L695.44,279.92 L692.76,274.03 L689.45,275.16 L687.99,272.40 L685.50,271.21 L681.90,259.93 L680.68,258.30 L679.37,252.35 L672.94,244.39 L672.84,241.44 L671.67,239.50 L670.16,239.31 L666.51,235.30 L666.56,233.23 L664.80,232.98 L663.83,231.10 L664.80,229.85 L662.95,225.71 L663.20,220.57 L662.07,216.88 L661.69,210.49 L663.44,208.48 L663.20,204.22 L663.20,201.65 L662.27,200.21 L663.05,198.52 L661.83,192.31 L662.61,189.62 L662.03,184.35 L662.66,182.29 L660.37,178.96 L659.88,175.33 L658.13,174.70 L658.13,171.45 L655.11,170.69 L656.23,168.12 L656.28,164.99 L657.35,164.99 L657.89,163.61 L657.64,159.10 L656.96,158.35 L656.13,158.35 L654.77,161.29 L650.19,162.73 L649.26,161.23 L648.92,162.23 L642.01,164.49 L640.69,163.61 L638.79,167.50 L636.60,164.99 L634.36,167.87 L632.56,168.75 L628.08,168.50 L623.84,164.49 L622.67,165.37 L617.60,164.36 L617.26,162.55 L618.43,158.47 L616.24,156.84 L612.69,150.26 L615.22,146.25 L615.56,142.62 L617.22,141.68 L618.04,130.40 L624.18,129.33 L624.42,127.02 L627.05,123.51 L627.93,118.99 L626.91,117.05 L628.76,111.29 L630.51,109.66 L630.32,107.71 L631.34,105.83 L634.51,106.34 L634.41,101.01 L635.09,99.63 L639.91,102.39 L644.30,102.95 L647.37,97.44 L650.34,98.31 L650.34,96.43 L652.24,95.18 L651.65,94.30 L652.72,92.86 L667.04,93.68 L669.97,99.25 L671.91,99.51 L673.33,101.13 L681.70,101.51 L684.77,98.25 L687.94,108.47 L691.10,108.40 L694.03,112.73 L692.42,117.24 L693.00,119.81 L702.89,118.37 L706.01,115.67 L710.25,117.62 L712.20,116.24 L711.85,115.23 L714.44,116.36 L718.43,115.80 L720.77,118.81 L723.50,120.25 L724.42,121.69 L724.66,120.44 L726.27,121.12 L728.22,123.51 L730.17,123.38 L730.41,125.07 L732.41,124.70 L732.90,125.45 L737.08,132.03 L738.69,130.46 L754.57,131.15 L756.81,127.14 L761.00,126.76 L762.75,124.51 L766.21,125.39 L770.89,122.32 L773.32,118.30 L773.57,114.98 L776.83,111.41 L777.51,107.46 L781.51,102.64 L782.77,98.50 L797.68,99.38 L797.97,96.75 L802.74,96.50 L805.28,92.99 L806.44,89.35 L809.95,86.16 L813.75,89.17 L814.72,87.85 L812.39,84.15 L812.48,81.33 L814.72,77.38 L813.51,74.19 L813.51,69.99 L816.04,67.11 L818.75,66.33 L819.11,63.22 L817.11,58.65 L814.97,57.33 L815.65,53.38 L817.01,51.19 L820.72,53.63 L821.79,53.20 L823.44,56.45 L825.64,57.52 L827.78,60.28 L828.41,60.28 L829.00,58.33 L831.87,57.14 L832.41,50.00 L831.04,44.11 L832.80,39.47 L833.62,34.21 L833.43,29.70 L837.62,30.51 L839.86,27.38 L846.24,26.69 L847.85,23.49 L850.28,20.23 L854.57,19.23 L856.47,21.24 L858.42,28.51 L860.85,29.51 L863.19,27.82 L867.38,29.70 L871.08,35.09 L870.35,34.90 L870.20,37.22 L869.42,37.53 L870.84,45.68 L869.72,45.17 L868.55,46.24 L869.42,49.94 L867.38,50.81 L867.33,53.13 L873.08,68.24 L881.31,83.09 L891.54,94.43 L896.70,96.31 L897.87,95.56 L897.87,93.43 L899.57,96.00 L901.57,96.43 L902.74,99.25 L899.87,98.31 L898.70,98.94 L897.67,100.95 L898.65,102.20 L898.55,103.52 L897.87,104.58 L896.60,104.52 L895.97,106.02 L893.63,105.90 L892.80,109.03 L893.53,109.91 L892.02,112.04 L893.39,121.00 L896.21,121.31 L898.11,124.07 L901.42,125.01 L901.42,125.89 L903.71,127.45 L903.28,128.64 L903.57,129.58 L904.49,129.52 L903.71,131.65 L903.91,136.60 L904.64,137.29 L903.47,137.29 L902.69,134.22 L900.94,134.10 L898.65,136.79 L897.43,141.24 L897.53,144.12 L899.87,152.21 L902.59,158.16 L905.03,161.48 L908.88,163.93 L912.87,162.30 L912.48,160.29 L914.14,158.29 L914.09,156.97 L915.79,158.54 L916.62,158.29 L916.72,159.79 L918.08,160.98 L917.60,162.30 L918.08,165.24 L916.38,165.55 L915.74,163.49 L914.23,163.42 L912.58,164.87 L911.31,167.69 L911.12,171.82 L913.11,176.52 L909.80,178.15 L908.54,180.34 L909.32,184.29 L908.73,186.05 L909.36,187.49 L908.29,190.81 L908.78,192.06 L908.10,193.19 L908.49,194.26 L909.17,194.38 L908.78,195.95 L904.83,194.13 L904.54,195.20 L905.61,196.51 L904.20,195.82 L903.32,196.51 L902.98,199.64 L903.62,200.08 L902.59,201.27 L900.11,199.71 L899.87,197.20 L900.74,196.01 L899.14,193.50 L897.97,193.32 L898.21,194.57 L897.43,195.38 L896.75,194.51 L895.04,195.20 L890.12,194.38 L888.91,195.63 L888.71,196.51 L886.76,194.69 L886.71,191.94 L887.35,191.25 L887.45,192.38 L887.54,191.31 L884.47,189.05 L883.40,186.61 L884.96,183.73 L886.76,182.35 L889.88,183.48 L892.32,182.47 L892.46,179.72 L893.68,177.34 L895.34,177.52 L895.58,174.01 L897.24,176.02 L899.18,174.52 L900.26,172.32 L899.91,169.44 L897.04,164.87 L895.63,164.18 L894.41,165.68 L892.95,164.49 L891.10,159.98 L887.35,154.46 L880.24,152.02 L878.48,148.57 L877.85,145.38 L875.80,144.69 L874.44,145.44 L874.25,147.69 L875.32,149.51 L873.54,149.07 L870.69,150.39 L868.45,154.02 L869.03,155.59 L870.59,156.03 L871.08,158.97 L866.48,167.51 L867.04,167.25 L867.48,169.13 L865.72,175.14 L865.72,178.21 L867.96,181.03 L868.21,184.23 L870.40,185.36 L872.25,184.35 L873.61,185.48 L873.42,186.67 L871.23,187.99 L870.84,189.49 L868.89,187.80 L867.67,188.11 L867.28,191.50 L864.36,192.69 L864.31,194.62 L865.77,195.38 L868.25,194.94 L869.91,195.57 L870.15,196.89 L869.37,197.89 L869.28,201.15 L867.72,203.78 L868.45,205.91 L865.38,206.73 L864.70,206.16 L863.92,208.10 L867.28,210.42 L871.96,208.36 L872.69,210.61 L873.51,210.86 L873.76,209.61 L876.53,211.43 L877.27,219.70 L878.78,224.71 L881.26,228.41 L886.03,231.67 L889.10,229.10 L888.66,226.34 L891.68,225.53 L895.34,227.15 L897.67,225.59 L900.69,226.34 L900.45,228.53 L901.67,231.79 L899.09,233.55 L898.89,235.18 L900.89,240.19 L902.40,240.82 L902.84,245.14 L900.21,245.70 L897.97,243.89 L896.07,246.08 L894.99,251.72 L895.68,257.17 L902.35,274.59 L906.44,280.55 L907.76,281.05 L911.80,295.33 L908.05,297.78 L904.98,298.34 L904.49,304.05 L905.86,309.87 L907.42,311.31 L906.30,312.94 L904.98,312.57 L903.18,313.82 L901.18,317.71 L900.21,319.46 L900.26,322.28 L902.40,330.87 L904.64,335.50 L906.59,337.45 L904.15,337.51 L900.84,347.47 L899.77,358.13 L902.30,369.97 L905.61,378.74 L910.05,386.70 L914.82,394.28 L917.40,397.92 L923.98,414.46 L926.95,421.29 L937.47,443.85 L949.30,463.78 L965.38,487.40 L967.62,488.28 L967.42,489.03 L967.76,490.10 L967.37,491.60 L966.35,491.92 L966.40,493.61 L973.12,505.89 L973.95,505.83 L974.34,507.39 L976.00,506.89 L977.36,508.71 L979.41,509.21 L977.16,517.92 L978.33,519.24 L980.57,518.99 L980.72,520.68 L978.53,524.56 L980.77,529.20 L974.16,527.31 L980.53,529.58 L978.87,529.45 L977.31,530.96 L977.07,535.59 L978.09,537.98 L977.94,542.30 L977.21,543.30 L970.88,544.30 L968.11,546.69 L966.16,550.45 L961.97,550.01 L961.82,548.94 L964.31,544.43 L968.35,540.48 L970.64,536.66 L970.54,529.89 L969.71,529.14 L966.69,529.20 L963.19,532.27 L962.02,531.71 L961.38,532.96 L962.46,534.28 L959.34,535.41 L958.75,536.78 L955.59,537.16 L955.73,538.41 L955.34,537.29 L952.52,538.60 L953.64,543.18 L952.18,546.37 L948.77,548.00 L947.60,550.63 L947.75,552.45 L946.48,553.14 L940.24,545.62 L939.47,543.24 L935.23,537.10 L933.72,539.73 L933.47,542.74 L931.67,543.93 L927.34,544.62 L924.90,547.25 L923.25,550.76 L922.08,549.38 L917.69,549.94 L916.33,554.64 L913.80,555.83 L912.82,557.97 L910.87,556.02 L910.63,553.33 L906.98,555.77 L904.88,555.83 L903.47,554.39 L901.13,557.34 L895.24,559.97 L892.32,558.72 L888.47,560.03 L883.26,556.21 L881.41,556.27 L879.75,557.65 L880.33,559.53 L869.37,569.81 L868.30,572.19 L864.46,569.50 L861.19,562.85 L858.17,561.41 L854.52,562.10 L852.77,560.79 L846.14,563.42 L844.14,562.16 L843.02,563.98 L840.00,563.29 L837.76,564.04 L836.11,566.24 L835.08,571.13 L833.53,571.81 L832.06,577.71 L825.00,591.93 L817.94,583.03 L814.09,581.34 L813.65,586.42 L811.75,587.79 L809.71,593.50 L809.46,597.26 L807.22,598.89 L807.32,600.77 L801.43,604.78 L802.21,610.98 L800.50,614.24 L796.95,616.24 L792.85,613.93 L792.47,612.17 L789.93,609.73 L787.64,612.17 L786.33,615.30 L784.38,613.68 L783.26,614.43 L780.00,613.55 L778.00,615.43 L776.34,614.30 L775.47,615.62 L775.90,620.13 L773.57,620.25 L772.64,621.26 L769.18,620.44 L766.55,623.45 L763.78,624.52 L763.58,626.65 L766.70,628.71 L764.17,629.72 L763.68,631.41 L761.10,631.10 L759.25,634.10 L752.96,639.68 L750.28,640.68 L751.36,642.63 L750.77,645.26 L751.99,648.71 L749.70,649.77 L746.63,653.91 L743.17,653.15 L741.03,651.27 L739.52,652.59 L738.16,652.34 L732.41,649.65 L729.39,646.39 L722.91,652.40 L719.84,652.97 L717.80,655.79 L712.83,656.22 L709.95,657.60 L709.42,660.36 L715.70,667.38 L714.09,680.16 L712.29,681.42 L706.16,690.31 L703.57,691.13 L700.21,688.75 L696.37,689.69 L692.96,694.33 L689.89,701.66 L691.06,709.24 L693.39,711.56 L698.26,713.00 L700.65,717.45 L702.99,718.26 L704.74,717.83 L705.96,721.33 L705.23,725.85 L707.28,727.85 L703.77,739.82 L700.21,742.20 L695.59,751.48 L695.29,753.86 L698.02,759.43 L696.27,759.18 L695.44,760.06 L695.34,764.13 L692.47,766.33 L688.28,773.10 L698.07,780.99 L696.75,787.20 L693.78,788.89 L694.17,792.08 L692.91,795.97 L694.12,797.41 L690.67,797.47 L686.53,795.15 L683.99,794.78 L682.58,792.08 L677.81,791.33 L676.30,788.89 L676.64,787.57 L672.99,786.57 L669.82,783.87 L669.72,781.62 L666.85,778.67 L663.78,777.73 L661.98,780.55 L661.05,779.36 L659.59,780.49 L657.64,776.61 L658.57,773.72 L657.55,772.41 L657.06,769.71 L655.65,768.21 L651.85,767.14 L649.46,764.45 L644.54,765.70 L642.30,769.34 L639.62,769.21 L638.01,767.77 L636.06,769.65 L634.75,780.24 L631.19,782.06 L630.32,783.75 L621.84,780.49 L621.31,779.05 L618.68,777.98 L617.12,779.55 L616.97,781.05 L615.85,780.99 L612.15,784.31 L612.33,783.34 L610.79,786.51 L610.59,792.40 L604.70,799.73 L602.55,804.62 L602.70,805.87 L597.88,811.07 L597.83,813.33 L596.22,816.59 L598.90,819.28 L599.39,820.97 L601.29,821.04 L600.61,825.73 L597.93,829.49 L600.80,835.82 L604.06,837.20 L604.16,841.59 L602.70,843.28 L605.23,844.53 L605.96,847.67 L604.94,849.86 L605.09,853.12 L604.21,854.56 L602.89,854.62 L599.97,863.21 L600.31,865.97 L602.94,871.92 L602.94,877.31 L604.06,878.81 L601.39,881.51 L601.68,883.07 L599.97,885.52 L599.73,887.96 L597.78,890.16 L596.12,890.72 L595.83,892.91 L593.06,894.98 L587.80,896.55 L586.53,897.99 L584.58,896.67 L581.46,897.61 L580.54,898.80 L577.03,898.99 L576.20,900.31 L574.79,899.74 L571.87,905.07 L571.09,905.07 L570.31,903.44 L566.56,903.94 L565.83,904.69 L566.85,905.07 L560.86,907.89 L557.99,906.76 L556.96,904.32 L555.45,904.63 L556.91,903.19 L557.21,900.87 L554.14,902.63 L552.39,902.50 L552.63,900.62 L550.19,900.87 L550.05,898.80 L548.29,899.93 L548.68,898.93 L547.66,896.30 L545.37,898.43 L541.96,898.30 L540.94,896.30 L539.19,896.11 L538.16,898.43 L535.82,895.17 L534.56,894.98 L533.34,895.67 L531.34,899.24 L533.19,902.00 L533.00,903.31 L528.96,906.64 L523.94,905.57 L523.11,906.39 L521.75,905.95 L520.82,907.51 L519.26,907.83 L516.44,905.88 L516.15,904.57 L514.88,905.01 L513.08,902.00 L513.66,898.30 L511.08,894.23 L510.20,890.41 L509.13,889.28 L506.65,890.34 L506.36,887.77 L507.48,887.77 L505.97,887.27 L504.80,888.15 L504.55,891.66 L505.77,893.73 L504.02,893.23 L502.85,894.17 L501.49,893.29 L501.97,897.05 L500.12,900.93 L499.39,900.49 L498.90,896.55 L496.96,895.29 L497.54,900.68 L496.61,901.87 L497.49,903.69 L494.28,908.58 L492.96,908.89 L492.82,908.08 L493.59,904.07 L489.99,908.39 L489.70,910.21 L487.56,910.46 L486.63,907.14 L485.31,908.70 L485.02,913.09 L486.29,916.66 L484.58,916.54 L484.39,919.29 L482.73,920.11 L484.49,924.43 L483.22,924.93 L483.03,922.87 L481.47,921.80 L481.32,920.17 L479.37,918.98 L478.35,920.36 L478.25,923.87 L474.45,925.12 L471.38,928.82 L468.85,928.00 L465.05,929.51 L462.37,928.76 L458.96,930.39 L453.51,924.43 L451.71,924.56 L450.20,922.11 L446.40,922.93 L443.62,921.80 L441.19,923.37 L439.09,926.38 L437.43,925.37 L436.80,927.75 L435.73,926.12 L433.78,926.00 L433.00,928.19 L433.73,931.08 L432.42,933.96 L435.68,934.84 L435.83,938.28 L431.15,937.09 L430.57,938.66 L429.15,938.85 L426.62,941.16 L427.16,943.73 L421.99,944.61 L421.65,946.99 L416.39,950.94 L414.64,954.32 L413.96,950.82 L405.04,947.31 L403.44,949.69 L403.00,953.01 L396.67,955.95 L397.06,961.03 L393.31,962.97 L391.16,969.55 L392.14,971.56 L394.33,972.75 L394.04,974.06 L390.33,975.76 L390.24,977.82 L387.70,980.77 L386.93,980.14 L386.19,976.63 L386.24,971.31 L382.49,970.55 L381.28,966.79 L380.06,967.73 L379.18,973.56 L377.62,972.18 L377.77,969.11 L375.82,966.23 L372.36,969.68 L372.17,973.31 L369.78,974.50 L368.51,972.94 L366.52,972.94 L367.10,970.99 L366.22,970.30 L363.25,970.49 L362.96,973.00 L360.28,972.31 L360.18,969.05 L358.92,967.67 L358.97,966.11 L357.02,965.10 L355.85,965.85 L355.31,968.80 L354.19,968.86 L354.39,964.48 L352.05,963.16 L351.56,958.71 L350.69,958.15 L349.08,958.65 L344.89,963.47 L334.32,967.99 L330.18,971.68 L328.38,971.43 L325.21,965.92 L325.55,959.90 L324.43,957.21 L321.85,952.76 L317.13,949.50 L316.25,945.61 L314.01,943.98 L312.01,939.97 L310.84,934.15 L312.01,931.89 L311.28,929.07 L306.56,924.06 L302.95,914.85 L299.59,915.79 L298.86,914.03 L297.30,912.84 L295.60,915.03 L291.65,908.01 L291.65,903.06 L290.00,900.43 L282.93,900.75 L279.67,899.30 L279.04,894.48 L277.67,891.47 L272.32,895.92 L270.12,890.97 L269.00,890.53 L264.47,892.22 L260.58,895.29 L257.46,895.36 L257.02,893.16 L257.46,888.84 L255.07,885.39 L247.23,881.88 L245.62,878.25 L242.95,876.74 L243.53,872.48 L239.10,868.54 L237.93,866.40 L238.27,862.77 Z M509.19,882.21 L508.50,883.14 L507.48,887.77 L509.19,882.21 Z M598.03,458.92 L597.83,459.20 L598.19,460.00 L598.03,458.92 Z M673.03,537.47 L674.80,538.81 L674.45,538.10 L673.03,537.47 Z M728.17,577.20 L728.41,578.27 L728.51,575.70 L728.17,577.20 Z M730.46,576.77 L730.65,576.32 L728.51,575.70 L730.46,576.77 Z M364.32,268.95 L367.73,274.84 L366.37,272.27 L364.32,268.95 Z M358.72,263.00 L357.78,262.80 L360.87,265.82 L358.72,263.00 Z M354.92,262.18 L352.98,262.87 L356.51,262.52 L354.92,262.18 Z M344.49,324.02 L344.35,323.66 L343.77,323.10 L344.49,324.02 Z M361.30,315.07 L365.83,313.32 L360.44,315.00 L361.30,315.07 Z M322.92,371.97 L322.74,372.21 L324.04,372.73 L322.92,371.97 Z M322.58,371.16 L322.17,371.98 L322.49,372.11 L322.58,371.16 Z M321.95,372.41 L322.25,372.97 L322.15,372.02 L321.95,372.41 Z M335.08,394.64 L337.88,388.77 L335.68,392.72 L335.08,394.64 Z M339.73,382.94 L338.46,384.44 L337.73,385.38 L339.73,382.94 Z M361.05,377.85 L360.54,377.82 L361.35,379.75 L360.92,377.87 L361.05,377.85 Z M359.97,426.14 L364.08,428.19 L360.96,426.49 L359.97,426.14 Z M337.24,472.49 L335.89,475.22 L338.21,471.85 L337.24,472.49 Z M333.11,478.00 L334.22,477.63 L334.90,476.65 L333.11,478.00 Z M330.67,479.45 L330.45,480.02 L331.05,479.22 L330.67,479.45 Z M326.35,514.23 L326.97,514.41 L328.96,513.91 L326.35,514.23 Z M343.33,559.28 L344.89,558.59 L342.90,558.95 L343.33,559.28 Z M357.60,563.17 L358.65,562.85 L356.93,562.68 L357.60,563.17 Z M362.96,561.54 L361.45,561.79 L361.04,562.12 L362.96,561.54 Z M396.37,612.05 L396.91,611.72 L396.39,611.60 L396.37,612.05 Z M406.90,690.31 L407.14,696.52 L407.18,690.20 L406.90,690.31 Z M407.58,707.86 L406.90,701.85 L406.31,698.52 L407.58,707.86 Z M405.97,713.63 L406.55,712.62 L407.58,707.86 L405.97,713.63 Z M392.43,751.16 L392.09,746.96 L391.26,743.83 L392.43,751.16 Z M409.28,754.05 L408.63,752.52 L408.45,752.86 L409.28,754.05 Z M436.26,809.51 L435.78,808.94 L430.13,811.13 L435.73,809.25 L436.26,809.51 Z M416.67,817.99 L417.66,818.65 L418.63,818.59 L416.67,817.99 Z M442.46,884.97 L442.06,883.95 L439.24,881.19 L442.46,884.97 Z M250.49,223.27 L248.25,216.31 L248.40,218.38 L250.49,223.27 Z M262.38,262.25 L262.14,257.92 L261.89,260.74 L262.38,262.25 Z M288.25,363.76 L288.13,363.73 L292.24,366.21 L288.24,363.77 L288.25,363.76 Z M282.79,364.20 L285.77,363.14 L284.79,362.89 L282.79,364.20 Z M263.26,381.75 L262.28,379.56 L262.82,381.69 L263.26,381.75 Z M270.37,386.70 L266.91,385.89 L270.99,387.47 L270.37,386.70 Z M272.61,387.64 L272.03,387.87 L274.51,388.83 L272.61,387.64 Z M271.52,396.52 L272.61,394.91 L274.51,388.83 L271.52,396.52 Z M296.28,500.38 L297.60,495.49 L295.98,500.52 L296.28,500.38 Z M290.53,506.33 L291.85,502.51 L290.73,505.20 L290.53,506.33 Z M281.52,506.08 L282.75,505.76 L281.18,505.39 L281.52,506.08 Z M275.92,530.02 L276.46,534.47 L276.16,537.41 L276.55,533.90 L275.92,530.02 Z M276.94,563.04 L276.60,563.50 L277.63,563.98 L276.94,563.04 Z M281.15,564.75 L280.74,563.61 L280.60,564.55 L281.15,564.75 Z M281.86,564.36 L281.47,564.87 L282.23,565.15 L281.86,564.36 Z M282.45,565.61 L282.26,565.22 L280.84,567.11 L282.45,565.61 Z M279.34,566.94 L280.11,567.49 L279.77,566.61 L279.34,566.94 Z M277.97,568.99 L277.92,565.92 L277.48,566.43 L277.97,568.99 Z M282.76,583.24 L280.21,582.53 L282.45,583.22 L282.76,583.24 Z M300.76,632.79 L298.81,629.34 L300.55,633.03 L300.76,632.79 Z M290.46,640.40 L291.21,638.30 L290.29,639.68 L290.46,640.40 Z M290.87,646.76 L290.10,646.66 L290.10,646.66 L290.87,646.76 Z M291.07,653.03 L291.07,653.84 L291.17,649.21 L290.87,646.76 L291.07,653.03 Z M285.48,652.99 L285.47,653.78 L283.28,654.22 L286.03,653.85 L285.48,652.99 Z M289.91,664.40 L289.90,664.18 L289.22,663.56 L289.91,664.40 Z M296.48,679.43 L294.75,681.53 L295.31,681.42 L296.48,679.43 Z M298.81,676.59 L297.79,677.84 L301.25,675.40 L298.81,676.59 Z M323.55,678.12 L323.55,678.12 L323.99,678.97 L323.55,678.12 Z M338.36,708.24 L338.08,707.60 L339.97,716.01 L338.36,708.24 Z M341.53,717.39 L346.60,720.77 L339.97,716.01 L341.53,717.39 Z M353.12,767.89 L350.88,757.93 L351.76,764.13 L353.12,767.89 Z M355.95,773.91 L354.92,772.09 L355.95,774.48 L355.95,773.91 Z M352.44,798.29 L353.22,795.91 L349.96,801.92 L352.44,798.29 Z M348.59,810.26 L347.42,807.31 L348.23,810.65 L348.59,810.26 Z M346.69,812.32 L347.34,811.62 L344.45,813.01 L346.69,812.32 Z M336.85,843.97 L337.97,838.46 L336.11,845.56 L336.85,843.97 Z M334.32,849.36 L334.82,848.31 L330.81,853.56 L334.32,849.36 Z M325.07,862.33 L325.75,860.89 L321.85,864.96 L325.07,862.33 Z M313.43,865.28 L315.86,866.28 L314.64,865.46 L321.85,864.96 L313.43,865.28 Z M328.82,914.47 L328.72,912.65 L328.23,914.95 L328.82,914.47 Z M325.16,917.48 L327.33,915.70 L326.87,915.60 L325.16,917.48 Z M324.97,917.37 L325.75,919.42 L325.16,917.48 L324.97,917.37 Z M180.47,542.95 L180.01,542.05 L175.92,539.60 L179.38,542.17 L180.47,542.95 Z M190.58,523.81 L195.07,521.81 L195.28,521.27 L190.58,523.81 Z M203.82,512.83 L205.95,513.04 L204.90,512.72 L203.82,512.83 Z M234.07,531.42 L234.76,532.34 L237.73,532.84 L234.18,531.46 L234.07,531.42 Z M246.26,530.83 L250.49,525.88 L250.40,525.33 L246.26,530.83 Z M250.55,525.12 L251.63,525.43 L250.79,524.82 L250.55,525.12 Z M252.98,526.41 L255.27,529.20 L254.59,527.57 L252.98,526.41 Z M278.31,690.13 L279.87,694.20 L283.18,702.35 L278.31,690.13 Z M287.27,722.34 L287.76,726.79 L288.44,728.98 L287.27,722.34 Z M277.82,736.62 L277.92,733.68 L277.14,742.01 L277.82,736.62 Z M298.13,813.64 L296.18,814.08 L296.09,814.44 L298.13,813.64 Z M295.03,818.56 L294.58,820.35 L295.40,819.16 L295.03,818.56 Z M294.19,790.20 L293.46,791.02 L298.03,789.89 L294.19,790.20 Z M254.39,659.42 L252.83,658.54 L246.84,656.73 L254.39,659.42 Z M254.84,661.53 L255.95,662.68 L254.84,661.53 L254.84,661.53 Z M271.29,665.56 L272.36,664.56 L271.00,665.12 L272.02,667.25 L271.29,665.56 Z M280.84,661.05 L281.99,660.87 L273.19,658.73 L280.84,661.05 Z M274.75,816.59 L277.24,814.52 L282.15,809.25 L274.75,816.59 Z M253.22,682.67 L253.81,682.61 L255.56,679.79 L253.22,682.67 Z M267.98,696.08 L269.13,697.65 L268.86,696.46 L267.98,696.08 Z M269.36,697.96 L269.54,698.21 L272.71,697.96 L269.36,697.96 Z M259.12,712.81 L255.71,710.43 L253.76,709.49 L259.12,712.81 Z M231.38,608.64 L230.73,608.07 L230.87,608.47 L231.38,608.64 Z M237.28,611.02 L234.71,611.36 L236.08,611.48 L237.28,611.02 Z M243.19,606.09 L239.06,610.34 L239.68,610.10 L243.19,606.09 Z M274.00,589.70 L271.93,588.80 L272.95,589.80 L274.00,589.70 Z M264.47,643.75 L267.83,643.50 L262.33,643.13 L264.47,643.75 Z M253.17,613.89 L252.69,607.60 L252.74,611.80 L253.17,613.89 Z M225.56,575.14 L229.75,566.36 L231.55,561.66 L225.56,575.14 Z M246.73,579.71 L246.72,580.13 L246.89,579.73 L246.73,579.71 Z M259.55,554.64 L273.68,555.71 L274.98,555.15 L259.55,554.64 Z M246.01,581.84 L248.35,580.71 L246.71,580.54 L246.70,580.96 L246.01,581.84 Z M148.79,294.58 L150.37,294.26 L147.52,293.83 L148.79,294.58 Z M152.45,294.32 L152.50,294.58 L152.37,294.56 L152.68,294.77 L152.45,294.32 Z M148.31,303.67 L148.54,304.33 L148.65,301.98 L148.31,303.67 Z M149.09,305.93 L151.81,307.93 L148.90,305.40 L149.09,305.93 Z M153.62,311.25 L157.66,310.56 L152.50,310.94 L153.68,311.55 L153.62,311.25 Z M152.30,312.38 L153.81,312.13 L153.73,311.78 L152.30,312.38 Z M151.37,314.76 L151.82,315.03 L151.50,314.45 L151.37,314.76 Z M153.13,315.83 L154.83,313.63 L152.62,315.52 L153.13,315.83 Z M179.63,359.69 L181.13,357.82 L179.72,359.32 L178.65,359.69 L179.63,359.69 Z M264.38,322.09 L263.84,320.34 L263.99,324.75 L264.38,322.09 Z M95.33,409.45 L92.49,407.76 L93.46,409.01 L95.33,409.45 Z M104.14,410.92 L97.77,410.03 L101.94,411.02 L104.14,410.92 Z M113.53,410.01 L110.04,410.65 L117.18,410.33 L124.83,410.08 L113.53,410.01 Z M205.85,399.91 L195.55,401.43 L204.71,400.24 L205.85,399.91 Z M211.67,398.04 L210.46,398.59 L212.80,397.92 L211.67,398.04 Z M222.45,415.53 L221.99,414.90 L221.71,415.15 L222.10,415.78 L222.45,415.53 Z M266.85,398.08 L261.65,398.67 L265.01,398.92 L266.85,398.08 Z M270.76,397.64 L269.23,397.82 L270.32,398.29 L270.76,397.64 Z M246.65,487.03 L243.62,494.61 L243.97,494.05 L246.65,487.03 Z M275.68,503.63 L275.77,504.45 L277.38,505.08 L275.68,503.63 Z M257.39,438.36 L257.12,438.34 L249.33,445.36 L257.39,438.36 Z M230.62,418.49 L230.23,420.54 L230.87,418.91 L230.62,418.49 Z M58.29,334.10 L58.61,334.83 L58.83,334.31 L58.29,334.10 Z M126.47,331.95 L126.34,331.30 L126.19,331.62 L126.47,331.95 Z M140.37,328.48 L143.32,329.72 L142.61,328.80 L140.37,328.48 Z M143.71,329.88 L144.12,330.05 L147.58,324.98 L143.71,329.88 Z M189.95,349.10 L193.07,347.53 L191.41,347.79 L189.95,349.10 Z M211.67,395.72 L209.95,394.95 L211.67,396.22 L211.67,395.72 Z M201.93,388.39 L202.00,389.04 L203.00,388.02 L201.93,388.39 Z M200.23,389.14 L201.40,389.65 L201.69,389.35 L200.23,389.14 Z M193.12,382.94 L191.66,381.88 L193.29,383.62 L193.12,382.94 Z M168.51,317.21 L167.89,316.83 L165.94,317.96 L168.51,317.21 Z M174.07,322.16 L171.05,318.77 L169.44,317.78 L174.07,322.16 Z M150.06,290.13 L150.86,291.10 L150.26,289.88 L150.06,290.13 Z M328.09,819.66 L324.68,821.91 L329.05,819.74 L328.09,819.66 Z M313.81,812.89 L317.96,835.31 L318.00,835.07 L313.81,812.89 Z M301.30,734.87 L309.12,734.16 L308.60,733.93 L301.30,734.87 Z M311.38,737.13 L312.50,739.13 L313.52,739.70 L311.38,737.13 Z M342.45,752.86 L343.62,753.73 L345.32,753.50 L342.45,752.86 Z M309.87,724.28 L310.41,722.02 L307.73,727.85 L309.87,724.28 Z M313.28,412.58 L315.06,416.19 L314.74,414.59 L313.28,412.58 Z M317.08,417.97 L316.35,418.79 L317.61,417.97 L319.03,419.41 L316.45,416.47 L317.08,417.97 Z M338.75,563.82 L338.46,564.11 L337.58,569.43 L338.75,563.82 Z M327.35,582.65 L332.32,579.40 L329.84,580.34 L327.35,582.65 Z M326.77,601.46 L327.01,604.09 L327.45,605.34 L326.77,601.46 Z M339.09,615.43 L341.19,620.19 L338.51,613.55 L339.09,615.43 Z M340.16,609.87 L339.53,610.23 L338.51,613.55 L340.16,609.87 Z M350.74,633.23 L350.00,634.10 L350.97,633.09 L350.74,633.23 Z M344.99,635.55 L342.75,636.36 L350.00,634.10 L344.99,635.55 Z M342.36,666.00 L341.43,669.01 L341.46,669.78 L342.36,666.00 Z M310.70,617.87 L309.48,616.56 L303.83,616.43 L308.80,616.56 L310.70,617.87 Z M316.06,655.91 L312.35,655.47 L310.79,655.35 L316.06,655.91 Z M310.79,656.54 L313.33,661.93 L310.79,655.35 L310.79,656.54 Z M322.97,656.98 L318.59,658.36 L320.24,658.23 L322.97,656.98 Z M333.69,672.77 L340.07,672.71 L336.37,672.46 L333.69,672.77 Z M323.62,677.53 L325.60,674.59 L323.75,676.47 L323.62,677.53 Z M305.45,669.72 L305.34,669.82 L304.80,671.26 L305.45,669.72 Z M304.41,539.10 L300.27,539.29 L305.44,539.23 L306.17,538.88 L304.41,539.10 Z M322.87,553.95 L320.93,558.40 L319.61,562.54 L322.87,553.95 Z M283.62,564.92 L284.88,563.73 L283.44,564.86 L283.62,564.92 Z M301.54,566.17 L303.39,566.11 L300.74,565.82 L301.54,566.17 Z M314.40,485.34 L315.62,484.15 L317.71,479.69 L314.40,485.34 Z M321.36,473.45 L322.74,471.56 L322.44,471.61 L321.36,473.45 Z M310.68,516.33 L310.16,516.54 L309.09,522.75 L310.68,516.33 Z M313.87,515.59 L313.14,515.29 L312.05,515.75 L313.87,515.59 Z M317.37,515.29 L318.21,514.47 L314.94,515.50 L317.37,515.29 Z M297.98,504.51 L296.77,504.64 L300.62,505.58 L297.98,504.51 Z M307.63,503.20 L306.61,501.38 L308.90,507.83 L307.63,503.20 Z M327.36,468.48 L326.28,467.16 L324.77,466.59 L327.36,468.48 Z M321.85,370.22 L320.29,369.09 L320.25,369.38 L321.85,370.22 Z M311.53,316.64 L310.31,304.67 L311.22,319.95 L311.53,316.64 Z M316.01,272.59 L311.77,274.59 L316.01,273.15 L316.01,272.59 Z M360.92,783.44 L364.03,782.75 L359.41,783.00 L360.92,783.44 Z M382.93,785.50 L387.80,789.76 L382.65,784.68 L382.93,785.50 Z M332.57,931.08 L334.42,930.95 L331.35,930.76 L332.57,931.08 Z M354.73,807.50 L356.43,799.92 L354.88,806.06 L354.73,807.50 Z M363.94,709.87 L363.55,712.44 L364.95,708.16 L363.94,709.87 Z M365.69,706.92 L365.33,707.52 L366.81,707.30 L365.69,706.92 Z M370.61,713.44 L368.51,712.62 L372.41,714.75 L370.61,713.44 Z M389.86,703.21 L391.36,705.98 L390.72,704.04 L389.86,703.21 Z M388.25,701.90 L389.50,702.87 L388.44,701.85 L388.25,701.90 Z M386.00,703.04 L386.81,702.29 L384.29,702.97 L386.00,703.04 Z M377.57,699.46 L377.93,699.65 L376.84,697.27 L377.57,699.46 Z M389.02,681.10 L385.90,682.67 L390.90,681.01 L389.02,681.10 Z M397.11,675.78 L391.99,680.65 L392.33,680.54 L397.11,675.78 Z M367.47,623.25 L367.96,623.48 L367.88,622.95 L369.10,621.82 L367.47,623.25 Z M378.99,615.43 L381.18,622.13 L377.66,611.36 L377.77,613.05 L378.99,615.43 Z M382.88,679.35 L382.30,680.60 L380.89,685.55 L382.88,679.35 Z M378.76,607.79 L377.48,608.66 L377.53,609.45 L378.76,607.79 Z M344.21,601.39 L343.92,602.08 L355.56,599.58 L344.21,601.39 Z M370.22,276.28 L369.00,274.72 L370.33,276.92 L370.22,276.28 Z M374.26,278.60 L370.87,277.82 L371.00,278.04 L374.26,278.60 Z M386.54,296.84 L386.78,300.03 L386.55,300.35 L387.02,300.35 L386.54,296.84 Z M406.78,330.27 L406.74,328.05 L406.41,329.68 L406.78,330.27 Z M405.97,377.11 L403.00,376.42 L405.73,377.43 L406.31,380.81 L405.97,377.11 Z M405.84,414.92 L403.97,412.52 L404.65,414.09 L405.84,414.92 Z M410.06,418.28 L408.83,417.62 L411.63,420.55 L410.06,418.28 Z M415.91,426.74 L414.25,424.35 L414.44,425.37 L415.91,426.74 Z M405.34,458.58 L406.11,458.06 L406.11,458.06 L405.34,458.58 Z M408.89,487.09 L408.45,487.23 L409.14,488.97 L408.89,487.09 Z M417.95,506.45 L416.74,500.53 L416.93,503.45 L417.95,506.45 Z M433.98,491.04 L434.90,495.55 L435.14,495.85 L433.98,491.04 Z M439.72,496.18 L435.62,496.47 L435.68,496.55 L439.72,496.18 Z M466.90,501.57 L466.12,503.70 L465.91,507.57 L466.90,501.57 Z M495.01,630.47 L492.82,630.59 L495.43,631.17 L495.01,630.47 Z M497.26,630.21 L495.61,631.21 L496.23,631.35 L497.26,630.21 Z M494.18,647.83 L494.67,643.50 L494.10,646.37 L494.18,647.83 Z M475.09,654.27 L476.35,653.34 L475.43,653.78 L475.09,654.27 Z M474.99,659.23 L474.75,659.10 L474.86,659.73 L474.99,659.23 Z M469.34,699.09 L468.75,700.84 L468.52,700.74 L468.80,701.41 L469.34,699.09 Z M476.62,743.25 L476.60,743.64 L477.78,744.18 L477.76,743.64 L476.62,743.25 Z M506.75,868.85 L503.92,861.02 L505.09,865.34 L506.75,868.85 Z M513.42,873.49 L513.04,873.30 L513.06,873.98 L513.42,873.49 Z M513.87,879.31 L515.17,878.69 L513.81,878.75 L513.87,879.31 Z M513.04,879.71 L513.54,879.47 L513.18,879.25 L513.04,879.71 Z M509.95,881.19 L512.26,880.09 L510.74,880.13 L509.95,881.19 Z M407.14,497.05 L407.58,499.00 L408.21,500.75 L407.72,499.37 L407.14,497.05 Z M406.26,516.67 L404.90,521.18 L406.16,518.55 L406.55,520.24 L406.26,516.67 Z M405.60,534.38 L404.56,533.65 L405.92,535.28 L405.60,534.38 Z M408.02,550.51 L406.99,551.82 L409.43,550.07 L408.02,550.51 Z M402.07,550.13 L392.23,550.32 L400.51,550.45 L402.07,550.13 Z M377.62,497.74 L378.81,498.17 L378.21,497.43 L377.62,497.74 Z M380.93,498.93 L381.21,498.43 L380.20,498.67 L380.93,498.93 Z M402.32,490.98 L403.83,486.71 L398.08,488.47 L403.39,487.15 L402.32,490.98 Z M380.35,515.42 L371.63,516.48 L375.28,516.48 L380.35,515.42 Z M380.77,514.71 L380.77,514.71 L381.81,516.23 L380.77,514.71 Z M397.42,514.82 L393.55,515.67 L397.64,514.85 L397.42,514.82 Z M394.87,524.08 L396.76,518.99 L397.64,514.85 L394.87,524.08 Z M393.31,530.96 L393.03,530.18 L392.51,531.91 L393.31,530.96 Z M391.80,532.77 L391.87,532.68 L388.24,531.14 L391.99,534.03 L391.80,532.77 Z M396.96,533.46 L395.55,534.59 L397.11,533.79 L396.96,533.46 Z M364.71,549.44 L366.71,546.50 L372.17,540.54 L367.73,544.81 L364.71,549.44 Z M378.41,549.44 L378.45,549.57 L379.30,549.85 L378.41,549.44 Z M380.25,550.17 L387.51,552.58 L383.03,550.45 L380.25,550.17 Z M379.28,538.73 L378.40,538.23 L378.19,538.31 L379.28,538.73 Z M381.18,514.01 L384.39,510.15 L382.83,511.22 L381.18,514.01 Z M380.25,502.88 L384.88,498.56 L380.98,502.13 L380.65,501.99 L380.25,502.88 Z M384.05,300.35 L381.18,299.47 L381.91,300.35 L384.05,300.35 Z M401.63,458.58 L402.66,458.39 L402.78,457.87 L401.66,458.40 L401.63,458.58 Z M403.10,456.57 L401.78,453.94 L402.89,457.42 L403.10,456.57 Z M407.33,749.53 L407.66,746.73 L407.28,747.22 L407.33,749.53 Z M417.32,753.23 L417.27,751.41 L417.51,751.38 L417.02,750.48 L417.32,753.23 Z M417.61,751.36 L418.05,751.29 L417.27,749.03 L417.61,751.36 Z M440.60,743.71 L442.11,746.78 L442.57,746.53 L440.60,743.71 Z M442.87,746.38 L443.43,746.09 L443.96,742.95 L442.87,746.38 Z M461.79,734.62 L461.20,734.68 L461.11,733.30 L460.91,735.42 L461.79,734.62 Z M470.70,829.24 L475.57,827.93 L477.56,826.84 L470.70,829.24 Z M440.00,815.50 L440.45,816.21 L442.45,816.34 L440.00,815.50 Z M436.27,778.05 L435.83,779.36 L438.21,772.53 L436.27,778.05 Z M447.13,665.31 L445.57,665.37 L442.74,666.31 L447.13,665.31 Z M445.67,656.29 L445.18,655.03 L446.49,662.18 L445.67,656.29 Z M450.83,642.56 L444.89,632.35 L445.72,634.61 L450.83,642.56 Z M456.82,625.83 L456.91,625.63 L456.44,625.35 L456.82,625.83 Z M457.55,627.15 L457.65,626.08 L457.21,625.82 L457.55,627.15 Z M459.49,629.23 L458.92,629.15 L458.62,630.47 L459.40,629.28 L459.49,629.23 Z M468.07,699.28 L467.54,698.37 L468.04,699.57 L468.07,699.28 Z M410.22,678.68 L411.52,680.66 L409.92,677.78 L410.22,678.68 Z M433.64,654.85 L433.98,652.28 L433.49,652.47 L433.64,654.85 Z M457.65,672.89 L452.39,675.02 L463.49,671.01 L457.65,672.89 Z M440.21,692.32 L439.09,687.24 L439.24,689.06 L440.21,692.32 Z M440.60,696.89 L442.83,698.61 L439.09,694.58 L440.60,696.89 Z M419.45,610.27 L418.94,609.86 L420.10,612.55 L419.27,610.48 L419.45,610.27 Z M421.65,589.61 L419.93,609.72 L420.19,609.41 L420.73,602.40 L421.65,589.61 Z M433.34,578.23 L433.00,578.39 L433.25,579.10 L433.34,578.23 Z M437.82,571.63 L437.16,576.03 L437.63,575.83 L437.82,571.63 Z M450.78,556.27 L457.70,544.18 L451.32,555.27 L450.25,556.46 L442.65,559.47 L450.78,556.27 Z M435.85,631.19 L435.54,631.72 L436.75,634.17 L435.85,631.19 Z M420.10,624.20 L423.60,626.93 L422.38,625.64 L420.10,624.20 Z M455.41,619.31 L455.45,619.67 L455.59,619.53 L455.41,619.31 Z M421.29,566.87 L421.26,566.49 L419.41,565.05 L421.29,566.87 Z M444.81,513.80 L444.55,513.41 L433.73,506.14 L444.81,513.80 Z M450.68,541.11 L451.61,543.74 L450.15,535.59 L450.68,541.11 Z M464.42,413.37 L464.27,416.45 L465.09,414.14 L464.42,413.37 Z M465.22,414.29 L466.27,419.04 L465.54,414.65 L465.22,414.29 Z M515.08,415.46 L516.24,415.90 L518.97,414.84 L515.08,415.46 Z M501.83,442.03 L503.58,445.85 L503.39,444.60 L501.83,442.03 Z M504.85,454.00 L504.70,459.71 L504.80,468.23 L504.85,454.00 Z M482.68,489.22 L478.13,490.96 L483.32,489.60 L482.71,489.07 L482.68,489.22 Z M474.54,492.33 L473.97,492.54 L466.42,499.81 L474.54,492.33 Z M427.64,460.02 L427.40,463.28 L427.60,472.62 L427.64,460.02 Z M452.68,440.78 L448.83,443.85 L454.16,440.48 L452.68,440.78 Z M453.41,474.34 L454.00,473.68 L454.87,469.36 L453.41,474.34 Z M457.50,493.29 L459.65,496.37 L457.65,492.73 L457.50,493.29 Z M423.83,361.27 L424.50,361.73 L424.28,361.07 L423.83,361.27 Z M423.31,411.83 L426.00,414.07 L422.48,410.26 L423.31,411.83 Z M548.89,649.52 L548.00,650.40 L548.93,650.21 L548.89,649.52 Z M582.85,633.85 L583.27,633.48 L582.88,633.41 L582.85,633.85 Z M584.78,634.17 L589.39,634.58 L589.11,634.48 L584.06,633.62 L584.78,634.17 Z M629.95,636.08 L630.07,635.80 L627.30,631.16 L629.95,636.08 Z M640.59,598.07 L642.15,595.88 L640.39,598.20 L640.59,598.07 Z M652.31,609.80 L652.32,609.80 L639.72,592.12 L642.15,595.88 L652.31,609.80 Z M636.30,591.58 L636.65,591.93 L639.72,592.12 L636.30,591.58 Z M488.29,826.99 L485.66,825.05 L482.34,823.98 L488.29,826.99 Z M525.01,711.18 L521.11,708.99 L522.92,710.49 L525.01,711.18 Z M531.93,712.87 L529.12,712.52 L533.83,714.07 L531.93,712.87 Z M536.46,712.31 L536.84,711.90 L533.83,714.07 L536.46,712.31 Z M537.56,710.45 L537.20,711.52 L537.63,711.06 L537.56,710.45 Z M537.97,709.24 L537.87,709.52 L538.13,709.61 L537.97,709.24 Z M558.99,720.43 L552.68,717.26 L558.52,720.58 L558.99,720.43 Z M599.32,694.65 L599.30,695.16 L599.82,694.96 L599.34,694.76 L599.32,694.65 Z M598.14,692.99 L599.11,693.66 L598.41,690.38 L598.80,693.07 L598.14,692.99 Z M608.30,684.42 L605.43,683.74 L608.75,685.01 L608.30,684.42 Z M620.67,682.86 L618.19,681.23 L619.55,682.73 L620.67,682.86 Z M636.32,689.25 L633.14,689.81 L636.11,689.31 L636.33,689.50 L636.32,689.25 Z M601.11,695.48 L602.11,696.68 L601.97,695.83 L601.11,695.48 Z M612.44,741.07 L612.66,740.04 L609.18,744.08 L612.44,741.07 Z M528.76,747.47 L529.12,746.60 L527.30,748.03 L528.76,747.47 Z M545.76,660.74 L545.98,660.04 L543.36,661.96 L544.01,661.80 L545.76,660.74 Z M593.77,636.22 L597.73,638.37 L600.17,638.62 L593.77,636.22 Z M608.16,681.00 L608.57,682.73 L608.69,681.92 L608.16,681.00 Z M537.72,662.64 L539.04,662.99 L540.15,662.73 L537.72,662.64 Z M569.09,664.06 L567.05,663.81 L566.41,664.38 L569.09,664.06 Z M594.76,575.83 L593.35,576.01 L587.94,579.52 L594.76,575.83 Z M636.18,591.46 L638.35,588.17 L636.18,591.46 L636.18,591.46 Z M647.89,582.77 L647.41,582.72 L645.51,584.03 L647.89,582.77 Z M657.25,585.29 L653.79,584.66 L652.33,584.85 L657.25,585.29 Z M676.27,592.49 L674.06,591.99 L668.85,592.49 L676.27,592.49 Z M541.52,546.94 L541.74,546.45 L539.43,547.63 L541.52,546.94 Z M546.15,595.59 L546.30,595.25 L542.59,589.49 L546.15,595.59 Z M605.23,619.50 L603.77,612.11 L605.12,619.65 L605.23,619.50 Z M536.19,603.98 L534.66,602.90 L536.19,603.98 L536.19,603.98 Z M685.99,610.54 L683.51,610.48 L687.60,611.11 L685.99,610.54 Z M716.29,598.13 L715.12,600.26 L716.57,598.56 L716.29,598.13 Z M716.34,605.34 L717.65,600.20 L716.14,604.59 L716.34,605.34 Z M567.34,538.98 L563.98,538.17 L574.84,541.92 L567.34,538.98 Z M601.53,554.64 L599.97,552.20 L605.57,561.54 L601.53,554.64 Z M647.12,540.54 L645.36,543.63 L645.56,543.55 L647.12,540.54 Z M556.57,587.23 L556.96,589.86 L558.33,592.43 L556.57,587.23 Z M507.35,535.14 L508.30,529.77 L507.04,534.78 L507.35,535.14 Z M504.85,541.42 L505.77,540.23 L501.97,543.05 L503.63,542.36 L503.58,545.18 L503.92,541.61 L504.85,541.42 Z M513.22,488.22 L514.39,490.98 L513.12,487.36 L513.22,488.22 Z M875.51,90.79 L875.41,89.29 L874.15,85.09 L875.55,91.51 L875.51,90.79 Z M870.50,80.99 L871.08,82.33 L874.15,85.09 L870.50,80.99 Z M876.44,95.56 L878.48,100.26 L876.32,95.03 L876.44,95.56 Z M867.48,117.62 L867.13,115.30 L866.32,114.49 L867.48,117.62 Z M855.01,140.18 L855.69,141.30 L855.05,138.84 L855.01,140.18 Z M860.12,149.57 L861.40,149.63 L857.64,148.07 L860.12,149.57 Z M889.68,285.00 L891.62,271.97 L891.60,271.94 L889.54,282.80 L889.68,285.00 Z M906.10,390.02 L906.50,390.97 L906.45,389.73 L906.10,390.02 Z M901.28,392.09 L903.37,393.22 L908.29,395.22 L901.28,392.09 Z M903.71,395.54 L904.40,398.36 L903.37,393.22 L903.71,395.54 Z M903.23,398.92 L904.40,398.37 L904.40,398.36 L903.23,398.92 Z M903.86,400.30 L906.00,403.24 L903.23,398.92 L903.86,400.30 Z M903.28,405.69 L906.73,402.62 L906.00,403.24 L903.28,405.69 Z M897.33,402.87 L897.43,401.62 L896.95,402.67 L897.33,402.87 Z M887.88,454.44 L891.54,453.31 L893.83,452.50 L887.88,454.44 Z M899.71,491.05 L897.53,492.04 L894.90,494.30 L899.71,491.05 Z M912.33,520.12 L916.04,521.37 L909.66,518.74 L912.33,520.12 Z M815.80,144.50 L816.58,137.92 L814.77,150.45 L815.80,144.50 Z M803.71,164.59 L801.33,162.80 L800.60,162.89 L803.71,164.59 Z M805.81,166.18 L804.79,165.41 L806.42,166.92 L805.81,166.18 Z M809.56,169.31 L809.06,169.37 L811.02,171.19 L809.56,169.31 Z M810.44,284.87 L810.43,284.85 L810.88,290.63 L810.44,284.87 Z M793.80,347.31 L792.31,349.08 L794.00,347.52 L793.63,347.72 L793.80,347.31 Z M800.65,343.90 L796.84,345.97 L797.82,345.84 L800.65,343.90 Z M820.96,373.42 L821.40,372.48 L820.93,372.44 L820.96,373.42 Z M808.34,399.42 L812.87,386.83 L811.70,388.96 L808.34,399.42 Z M812.39,433.64 L812.09,435.77 L812.78,440.59 L812.39,433.64 Z M867.43,421.48 L865.86,421.66 L866.60,422.17 L867.43,421.48 Z M869.81,423.67 L869.13,423.67 L869.96,424.75 L869.81,423.67 Z M866.14,437.68 L866.16,436.21 L865.33,433.39 L866.14,437.68 Z M878.87,438.80 L878.87,438.80 L880.97,441.28 L878.87,438.80 Z M884.08,455.19 L883.31,452.81 L884.38,456.95 L884.08,455.19 Z M878.58,466.54 L878.85,466.08 L872.93,461.65 L878.58,466.54 Z M869.42,462.53 L870.28,461.98 L866.84,462.40 L869.42,462.53 Z M754.13,362.64 L756.87,361.69 L756.37,361.63 L754.13,362.64 Z M789.66,360.32 L788.67,356.75 L789.10,359.94 L789.66,360.32 Z M789.30,350.79 L791.20,350.10 L791.85,349.50 L789.30,350.79 Z M812.24,444.73 L813.65,451.68 L814.72,453.75 L812.24,444.73 Z M817.01,455.32 L822.91,458.45 L814.72,453.75 L817.01,455.32 Z M813.82,491.12 L813.41,493.80 L813.82,491.12 L813.82,491.12 Z M803.33,509.96 L802.79,515.92 L803.08,518.24 L803.33,509.96 Z M814.04,537.98 L812.14,541.98 L812.48,541.86 L814.04,537.98 Z M680.39,472.49 L679.37,469.98 L675.71,461.96 L680.39,472.49 Z M682.63,459.52 L681.12,460.14 L680.03,461.64 L682.63,459.52 Z M721.17,451.94 L719.36,450.31 L718.17,450.08 L721.17,451.94 Z M747.12,438.15 L747.77,438.43 L744.56,434.59 L747.12,438.15 Z M791.44,434.26 L793.10,431.95 L788.37,436.51 L791.44,434.26 Z M796.36,439.97 L793.15,431.65 L793.10,431.95 L796.36,439.97 Z M795.51,425.23 L794.32,425.55 L794.18,426.25 L795.51,425.23 Z M654.15,509.66 L653.79,512.28 L654.38,509.96 L654.15,509.66 Z M641.56,450.52 L643.13,452.33 L642.74,451.68 L641.56,450.52 Z M634.80,442.72 L635.68,443.74 L632.95,438.84 L634.80,442.72 Z M738.79,496.99 L736.79,496.18 L739.02,497.56 L738.79,496.99 Z M739.81,499.50 L739.74,499.31 L741.08,508.27 L739.81,499.50 Z M757.88,525.25 L757.59,515.23 L757.83,526.76 L758.42,528.07 L757.88,525.25 Z M757.05,535.97 L757.74,534.47 L758.42,528.07 L757.05,535.97 Z M791.39,544.93 L795.34,549.00 L796.10,548.95 L791.39,544.93 Z M707.86,545.15 L706.79,545.24 L703.72,548.44 L707.86,545.15 Z M724.03,552.20 L724.54,551.95 L723.50,551.07 L724.03,552.20 Z M725.30,551.57 L725.78,549.51 L724.91,551.77 L725.30,551.57 Z M761.00,504.64 L759.99,499.52 L759.83,500.81 L761.00,504.64 Z M760.85,492.23 L760.58,486.40 L760.27,487.72 L760.85,492.23 Z M761.30,483.37 L762.02,481.89 L762.61,477.82 L761.30,483.37 Z M720.91,400.68 L719.84,406.19 L721.99,397.92 L720.91,400.68 Z M665.21,422.25 L665.92,422.11 L667.29,420.10 L665.21,422.25 Z M737.43,428.31 L742.31,431.89 L740.84,430.13 L737.43,428.31 Z M753.28,396.29 L753.21,397.54 L753.59,397.77 L753.28,396.29 Z M754.21,399.50 L754.23,399.67 L755.74,399.92 L754.21,399.50 Z M762.55,405.68 L762.70,406.38 L763.33,406.63 L762.55,405.68 Z M774.54,409.14 L776.05,410.45 L777.00,410.35 L774.54,409.14 Z M760.51,405.56 L758.27,409.01 L757.91,410.31 L760.51,405.56 Z M789.40,361.07 L790.32,362.70 L789.76,360.69 L789.40,361.07 Z M684.68,222.77 L687.11,223.90 L669.43,214.37 L684.68,222.77 Z M756.00,195.88 L755.74,194.39 L755.40,194.88 L756.00,195.88 Z M697.58,308.75 L696.75,309.00 L703.09,308.43 L697.58,308.75 Z M710.88,310.75 L711.15,310.53 L703.09,308.43 L710.88,310.75 Z M716.72,302.04 L711.98,309.85 L712.34,309.56 L716.72,302.04 Z M767.60,337.23 L767.53,337.76 L768.36,340.64 L767.60,337.23 Z M771.08,241.38 L773.03,238.56 L772.40,239.06 L771.08,241.38 Z M757.77,202.94 L758.13,204.72 L761.24,212.37 L757.77,202.94 Z M789.82,206.87 L789.82,206.87 L794.32,210.55 L789.82,206.87 Z M785.94,210.61 L778.72,204.37 L779.27,205.22 L785.94,210.61 Z M825.64,492.23 L823.64,492.54 L826.39,492.79 L825.64,492.23 Z M861.64,469.81 L861.39,468.98 L861.39,469.80 L861.64,469.81 Z M855.17,485.51 L856.19,484.13 L856.03,484.02 L855.17,485.51 Z M879.46,465.03 L881.36,469.42 L880.14,465.72 L879.46,465.03 Z M875.61,226.59 L870.79,228.60 L874.29,227.28 L878.00,226.65 L875.61,226.59 Z M868.94,235.61 L866.36,240.88 L866.65,240.38 L868.94,235.61 Z M883.25,251.00 L885.69,251.41 L884.08,250.90 L883.25,251.00 Z M890.30,301.32 L889.64,303.61 L890.37,302.35 L890.30,301.32 Z M887.53,304.59 L887.35,304.67 L887.14,305.76 L887.53,304.59 Z M886.05,309.06 L884.77,309.69 L885.89,309.56 L886.05,309.06 Z M874.66,329.10 L874.54,329.68 L877.29,332.65 L874.66,329.10 Z M878.56,334.38 L879.11,335.58 L879.07,335.06 L878.56,334.38 Z M879.30,337.61 L878.81,339.22 L879.41,338.76 L879.30,337.61 Z M871.29,394.55 L871.57,398.54 L871.71,395.79 L871.29,394.55 Z M872.07,406.22 L872.00,406.57 L872.69,410.26 L872.07,406.22 Z M848.33,336.63 L845.37,340.44 L846.09,340.02 L848.33,336.63 Z M855.15,316.70 L855.20,326.92 L855.25,321.53 L855.15,316.70 Z M824.58,381.69 L825.25,384.38 L825.05,382.50 L824.58,381.69 Z M832.99,397.98 L832.80,396.41 L831.38,392.28 L832.99,397.98 Z M819.01,327.04 L826.13,343.47 L819.94,328.17 L819.01,327.04 Z M858.66,287.88 L859.63,288.38 L863.29,287.94 L858.66,287.88 Z M832.31,292.01 L832.25,292.86 L832.69,291.51 L832.31,292.01 Z M842.29,202.53 L841.74,202.08 L843.22,206.22 L842.29,202.53 Z M844.14,252.35 L845.36,253.16 L843.50,251.41 L844.14,252.35 Z M843.27,248.90 L843.12,246.89 L841.51,241.51 L843.27,248.90 Z M861.05,200.54 L861.44,194.99 L861.00,198.02 L861.05,200.54 Z M861.90,191.88 L863.48,194.19 L861.90,191.88 L861.90,191.88 Z M867.33,73.65 L865.67,69.36 L863.82,66.48 L867.18,73.31 L867.33,73.65 Z M887.88,485.34 L887.69,479.20 L887.79,483.89 L887.88,485.34 Z M885.74,491.16 L885.55,494.99 L886.05,491.12 L885.74,491.16 Z M890.95,331.30 L890.12,331.62 L895.77,331.05 L890.95,331.30 Z M878.82,117.62 L870.98,117.87 L876.92,118.24 L878.82,117.62 Z M885.01,121.63 L882.82,119.87 L878.82,117.62 L885.01,121.63 Z M896.12,132.28 L892.72,131.86 L893.24,132.22 L896.12,132.28 Z M902.93,127.20 L903.03,127.39 L903.03,127.27 L902.93,127.20 Z M895.43,121.38 L895.53,121.44 L895.53,121.31 L895.43,121.38 Z M910.87,460.14 L911.75,460.01 L910.22,459.75 L910.87,460.14 Z M903.81,475.61 L903.37,472.99 L903.13,474.31 L903.81,475.61 Z M907.22,479.70 L904.36,476.67 L905.03,477.94 L907.22,479.70 Z M913.21,446.86 L911.75,448.18 L917.40,443.66 L914.48,445.92 L913.21,446.86 Z M902.01,402.43 L902.16,404.81 L902.06,401.36 L902.01,402.43 Z M913.86,460.19 L915.70,464.41 L914.33,460.21 L913.86,460.19 Z M926.56,466.47 L929.68,467.47 L929.48,467.29 L926.56,466.47 Z M927.68,465.53 L925.24,453.94 L925.00,452.81 L927.68,465.53 Z M937.93,479.20 L936.55,477.49 L936.59,478.32 L937.93,479.20 Z M944.53,480.70 L939.71,480.38 L940.00,480.57 L944.53,480.70 Z M922.86,511.09 L924.41,511.78 L924.94,511.18 L922.86,511.09 Z M951.52,518.19 L952.03,518.99 L952.96,519.55 L951.52,518.19 Z M970.50,525.59 L971.37,526.32 L972.01,526.55 L970.50,525.59 Z M927.63,471.99 L930.55,468.23 L930.16,467.89 L927.53,471.98 L927.63,471.99 Z M910.73,408.63 L908.09,411.72 L908.15,411.70 L910.73,408.63 Z M912.57,403.53 L912.24,403.81 L910.73,408.63 L912.57,403.53 Z M910.80,415.46 L910.80,415.46 L909.85,417.09 L910.80,415.46 Z M910.05,398.67 L910.47,399.84 L910.24,397.92 L910.05,398.67 Z M893.68,217.07 L893.68,216.13 L894.46,216.06 L894.46,216.69 L893.68,217.07 Z M894.65,216.25 L894.70,216.25 L894.70,216.50 L894.65,216.25 Z M894.75,215.87 L894.80,215.69 L894.85,215.94 L894.75,215.87 Z M875.07,206.54 L877.66,205.72 L875.46,207.85 L874.64,207.85 L875.07,206.54 Z M889.05,195.88 L889.05,196.01 L888.96,195.95 L889.05,195.88 Z M889.30,195.95 L889.15,195.95 L889.15,195.82 L889.30,195.95 Z M889.49,195.70 L889.69,195.63 L889.78,195.76 L889.49,195.70 Z M894.95,195.63 L895.09,195.57 L895.09,195.70 L894.95,195.63 Z M895.38,195.57 L895.48,195.63 L895.38,195.63 L895.38,195.57 Z M895.82,195.20 L895.77,195.13 L895.87,195.01 L895.82,195.20 Z M886.52,195.07 L886.62,195.01 L886.71,195.13 L886.52,195.07 Z M886.52,194.76 L886.42,194.82 L886.37,194.63 L886.52,194.76 Z M886.33,194.51 L886.28,194.51 L886.23,194.32 L886.33,194.51 Z M868.45,191.37 L869.08,191.69 L868.89,193.44 L868.21,192.19 L868.45,191.37 Z M878.68,173.64 L879.07,172.07 L880.82,169.25 L880.53,171.26 L881.21,172.13 L879.31,173.76 L878.68,173.64 Z M889.39,169.13 L889.10,167.00 L889.88,165.81 L890.95,168.25 L890.37,169.75 L889.39,169.13 Z M885.16,161.11 L884.77,162.05 L884.57,161.36 L884.86,160.67 L885.16,161.11 Z M877.85,153.21 L878.53,153.08 L878.24,153.71 L877.85,153.21 Z M896.31,106.15 L896.36,106.15 L896.26,106.21 L896.31,106.15 Z M896.02,106.02 L896.26,106.09 L896.12,106.21 L896.02,106.02 Z M902.54,246.02 L902.35,246.14 L901.91,246.08 L902.54,246.02 Z M903.42,244.51 L903.37,244.70 L903.28,244.39 L903.42,244.51 Z M902.84,241.44 L902.89,241.32 L902.89,241.57 L902.84,241.44 Z M902.84,241.07 L902.89,241.19 L902.79,241.13 L902.84,241.07 Z M901.42,232.73 L901.42,232.79 L901.28,232.73 L901.42,232.73 Z M901.47,232.42 L901.62,232.48 L901.62,232.54 L901.47,232.42 Z M901.72,231.17 L901.91,231.48 L901.86,231.79 L901.72,231.17 Z M901.33,230.48 L901.38,230.85 L901.33,230.79 L901.33,230.48 Z M901.81,230.60 L901.72,230.41 L901.81,230.23 L901.81,230.60 Z M898.36,194.63 L898.89,194.82 L898.99,195.38 L898.60,195.57 L898.36,194.63 Z M903.91,137.98 L903.86,137.98 L903.81,137.92 L903.91,137.98 Z M903.96,137.92 L904.05,137.92 L904.05,137.98 L903.96,137.92 Z M904.01,133.97 L904.05,133.97 L904.05,134.03 L904.01,133.97 Z M903.57,129.21 L903.62,129.15 L903.66,129.33 L903.57,129.21 Z M903.76,127.64 L903.86,127.70 L903.76,127.77 L903.76,127.64 Z M896.41,121.38 L896.46,121.56 L896.36,121.38 L896.41,121.38 Z M896.46,106.27 L896.36,106.21 L896.41,106.21 L896.46,106.27 Z M896.80,105.46 L896.80,105.65 L896.70,105.65 L896.80,105.46 Z M902.79,98.82 L902.84,98.69 L902.89,98.82 L902.79,98.82 Z M902.59,98.57 L902.79,98.63 L902.74,98.69 L902.59,98.57 Z M897.28,92.30 L897.09,92.11 L897.19,91.86 L897.28,92.30 Z M897.24,91.67 L897.24,91.42 L897.33,91.73 L897.24,91.67 Z M948.14,564.48 L948.04,564.73 L948.04,564.36 L948.14,564.48 Z M948.77,558.91 L950.86,560.16 L948.14,564.17 L947.79,561.91 L948.77,558.91 Z M972.39,472.99 L972.29,473.56 L971.86,473.56 L971.81,472.99 L972.39,472.99 Z M972.64,473.37 L972.49,473.24 L972.68,473.18 L972.64,473.37 Z M970.93,472.24 L970.69,472.11 L970.93,471.99 L970.93,472.24 Z M970.78,471.49 L970.88,471.80 L970.74,471.80 L970.78,471.49 Z M914.87,349.35 L914.87,350.04 L913.50,350.17 L913.94,349.04 L914.87,349.35 Z M913.16,346.91 L913.31,347.35 L912.97,347.28 L913.16,346.91 Z M912.92,346.66 L912.87,347.10 L912.63,346.91 L912.92,346.66 Z M908.19,343.78 L908.54,341.96 L910.00,342.08 L909.51,344.21 L910.09,345.84 L909.12,346.16 L907.76,344.28 L908.19,343.78 Z M907.81,312.76 L907.85,313.88 L906.88,313.19 L907.81,312.76 Z M906.98,312.69 L906.98,312.88 L906.68,312.63 L906.98,312.69 Z M923.64,277.91 L924.12,277.22 L923.68,281.11 L921.74,281.23 L921.88,282.30 L918.28,281.74 L917.21,275.41 L919.01,273.40 L919.64,275.28 L921.54,276.16 L922.08,278.23 L922.81,277.04 L923.64,277.91 Z M909.12,196.01 L909.07,196.01 L909.02,195.88 L909.12,196.01 Z M908.29,193.32 L908.39,193.38 L908.34,193.57 L908.29,193.32 Z M909.12,191.31 L908.97,191.31 L909.02,191.25 L909.12,191.31 Z M908.93,191.06 L908.97,191.25 L908.88,191.25 L908.93,191.06 Z M904.05,134.22 L904.01,134.22 L904.01,134.16 L904.05,134.22 Z M904.30,130.71 L904.40,130.40 L904.44,130.71 L904.30,130.71 Z M904.35,130.40 L904.20,130.59 L904.25,130.34 L904.35,130.40 Z" /></g></svg>