<svg xmlns="http://www.w3.org/2000/svg" viewBox="0 0 1000 1000" width="1000" height="1000"><g fill="#cccccc" stroke="#222" stroke-width="2"><path d="M274.83,980.77 L275.33,980.46 L275.55,980.62 L274.83,980.77 Z M257.44,955.89 L254.50,956.88 L253.63,956.04 L253.27,953.06 L255.79,950.22 L260.10,951.75 L257.44,955.89 Z M263.84,950.15 L263.41,950.99 L262.40,950.68 L262.97,950.07 L263.84,950.15 Z M251.41,933.61 L249.18,936.60 L245.37,937.90 L246.88,946.40 L240.48,949.69 L235.38,949.76 L232.29,945.78 L239.55,937.59 L241.27,937.06 L242.06,933.00 L245.73,930.63 L248.67,926.11 L248.82,928.33 L251.26,930.55 L251.41,933.61 Z M249.61,925.73 L249.54,925.11 L250.47,924.73 L249.61,925.73 Z M45.75,597.00 L50.27,597.23 L46.82,597.84 L45.75,597.00 Z M20.16,541.34 L21.39,540.42 L24.48,549.38 L23.69,551.06 L22.32,550.53 L19.23,546.85 L20.88,542.11 L20.16,541.34 Z M162.73,812.04 L162.37,809.21 L160.65,809.44 L159.35,807.52 L158.71,797.34 L156.05,788.46 L157.92,782.72 L161.37,778.36 L168.62,775.22 L177.25,778.59 L182.13,782.11 L183.21,786.62 L184.51,787.47 L188.17,782.41 L204.84,778.66 L216.19,773.38 L215.84,770.24 L215.55,767.18 L205.13,750.18 L203.76,745.36 L204.91,733.65 L209.15,723.24 L214.69,715.81 L232.08,710.60 L236.60,709.15 L239.69,710.30 L243.07,709.61 L261.39,703.71 L262.11,705.32 L262.26,703.33 L267.14,699.81 L267.29,695.37 L271.67,694.91 L274.04,692.15 L276.05,683.81 L277.49,683.50 L276.99,681.59 L280.58,679.91 L278.93,678.45 L281.08,674.55 L282.95,673.48 L288.56,671.18 L291.14,667.58 L292.44,661.00 L293.44,660.61 L292.15,660.31 L292.94,658.62 L291.57,655.79 L292.51,654.26 L291.22,653.88 L289.92,653.65 L288.41,659.47 L282.74,662.60 L261.61,669.72 L241.70,678.60 L230.85,681.36 L227.12,681.59 L223.17,679.91 L211.88,667.04 L205.13,652.73 L205.56,637.88 L210.95,615.52 L218.35,584.82 L220.87,554.58 L223.67,555.40 L223.81,554.66 L220.43,554.05 L222.16,522.28 L220.29,493.26 L222.09,485.76 L221.66,471.83 L222.66,470.53 L221.66,470.22 L222.59,469.22 L221.66,466.24 L222.81,462.79 L222.02,462.79 L226.83,460.96 L256.72,447.33 L222.88,461.88 L226.18,401.86 L225.18,370.24 L224.24,368.71 L229.34,348.34 L233.15,317.72 L234.88,316.34 L233.51,313.89 L234.02,297.13 L236.10,252.34 L237.68,244.53 L236.60,235.58 L239.69,219.65 L237.97,217.13 L238.97,215.06 L238.26,213.22 L239.84,211.54 L240.34,192.32 L241.20,191.25 L241.49,152.51 L244.22,100.99 L246.66,100.46 L251.62,101.91 L259.60,112.63 L274.83,126.41 L297.61,152.74 L277.06,128.93 L302.43,77.18 L323.48,99.31 L333.61,84.92 L335.91,81.62 L343.60,88.97 L357.18,94.56 L360.70,91.42 L364.65,79.63 L411.65,110.26 L441.90,129.55 L460.66,141.34 L493.35,163.08 L512.04,175.40 L550.84,201.51 L562.27,175.79 L569.74,174.10 L574.19,175.25 L571.61,157.87 L572.90,142.56 L574.98,138.05 L573.69,136.51 L573.62,132.07 L576.57,128.78 L577.14,120.51 L578.72,119.14 L581.88,121.66 L585.04,118.83 L589.14,122.50 L590.15,120.51 L589.36,116.46 L592.81,114.31 L594.82,111.40 L592.73,108.42 L592.30,105.20 L593.24,104.36 L597.40,105.28 L599.34,103.60 L596.54,98.01 L597.12,94.26 L594.17,89.66 L595.46,80.63 L594.82,78.94 L589.93,78.48 L584.97,81.78 L583.46,81.32 L583.75,75.42 L587.06,70.68 L587.06,69.07 L574.34,59.65 L571.46,51.92 L568.23,48.02 L570.03,37.07 L568.16,28.34 L570.67,25.20 L572.76,19.23 L574.19,19.23 L575.70,24.74 L580.37,25.97 L580.09,32.09 L584.11,41.89 L594.96,44.72 L598.63,48.40 L600.93,44.65 L604.95,43.81 L606.31,38.75 L608.11,38.37 L608.04,43.88 L612.42,48.32 L610.19,53.07 L619.25,53.14 L624.14,53.83 L627.94,57.28 L629.67,55.59 L628.73,52.23 L629.81,50.16 L633.26,53.60 L633.62,57.66 L634.91,58.73 L638.94,58.04 L642.68,55.06 L646.70,56.74 L649.57,52.53 L649.14,49.09 L657.41,49.47 L660.78,46.33 L662.80,47.71 L661.72,51.84 L662.84,53.27 L666.39,51.23 L670.48,51.54 L671.42,47.02 L679.47,51.92 L683.28,50.08 L685.22,57.89 L690.25,55.29 L692.33,55.90 L693.84,58.12 L695.71,56.67 L699.16,54.37 L699.23,50.70 L700.31,49.85 L705.48,54.60 L705.62,56.21 L704.04,58.04 L704.47,59.81 L711.23,59.58 L713.96,61.57 L716.69,58.50 L716.62,54.98 L720.71,55.59 L724.52,54.52 L725.46,55.44 L724.81,58.43 L729.48,60.11 L731.35,59.58 L732.21,55.75 L736.81,56.44 L737.38,51.84 L744.14,51.54 L746.73,49.78 L748.59,54.29 L751.97,56.59 L753.34,59.19 L754.85,58.35 L757.94,64.78 L758.08,68.15 L761.17,72.59 L761.31,80.86 L758.37,102.91 L757.86,106.58 L758.87,107.12 L757.94,108.04 L754.13,137.20 L755.06,138.96 L753.34,146.62 L754.99,147.31 L753.55,148.07 L754.27,162.24 L735.88,140.49 L753.12,160.94 L778.27,190.72 L779.78,192.02 L784.67,182.91 L790.49,186.12 L793.79,183.29 L795.52,185.20 L795.16,188.04 L799.18,191.17 L801.99,191.56 L803.35,195.16 L805.50,195.57 L807.66,189.26 L821.67,194.16 L821.39,195.31 L823.04,195.92 L823.11,199.83 L820.18,204.06 L824.05,205.72 L827.71,204.65 L829.72,207.17 L829.44,210.62 L831.38,210.16 L833.89,212.61 L839.50,209.47 L844.02,209.32 L846.11,208.02 L849.20,213.07 L853.65,212.76 L861.27,223.33 L856.81,217.05 L861.20,216.44 L866.59,218.28 L869.32,217.97 L871.11,205.11 L869.10,203.73 L872.48,202.89 L873.41,205.11 L875.93,205.80 L877.15,208.02 L880.24,206.95 L882.47,208.40 L882.97,206.26 L884.84,206.56 L885.77,204.27 L888.43,205.64 L889.65,204.50 L892.53,204.57 L892.02,199.75 L893.82,199.52 L895.33,200.82 L897.05,198.37 L898.92,198.14 L898.20,196.38 L902.52,196.00 L902.23,192.63 L903.88,194.39 L905.61,192.63 L906.90,193.62 L909.27,192.17 L909.84,190.41 L910.49,192.17 L912.72,193.39 L913.51,192.55 L915.02,194.08 L917.10,192.25 L921.70,199.14 L923.86,198.91 L926.73,200.51 L920.48,206.10 L919.40,206.72 L921.92,206.33 L921.56,208.25 L926.16,211.77 L926.95,214.14 L925.22,215.67 L930.47,213.15 L930.18,215.90 L932.41,218.43 L934.64,218.35 L936.50,220.50 L941.46,219.27 L944.19,223.02 L949.44,223.71 L950.23,221.64 L947.93,220.73 L947.00,218.81 L950.95,217.20 L953.39,212.00 L952.31,205.57 L956.84,206.79 L957.85,208.40 L960.94,207.17 L962.73,201.59 L960.15,201.89 L959.50,200.59 L964.03,200.21 L968.19,197.61 L967.91,201.20 L970.64,201.36 L972.15,204.11 L972.22,209.17 L975.31,209.78 L975.09,212.53 L978.33,213.22 L978.33,214.52 L975.38,216.13 L976.24,219.50 L978.54,221.87 L978.47,226.62 L980.77,228.07 L979.69,231.67 L976.82,231.44 L974.30,234.28 L958.85,240.32 L945.99,247.44 L952.31,276.53 L955.98,295.52 L951.09,298.51 L956.98,319.71 L947.43,325.53 L939.81,327.90 L936.00,330.97 L925.65,334.64 L924.86,336.48 L923.64,336.40 L922.85,338.08 L918.97,340.46 L903.09,350.33 L900.86,350.03 L898.56,351.64 L895.98,351.48 L894.75,354.24 L887.28,356.23 L862.35,367.33 L846.75,322.16 L861.63,366.87 L845.46,374.83 L846.03,378.05 L842.08,377.59 L834.68,380.73 L826.27,384.55 L824.84,386.54 L813.27,389.99 L793.15,400.25 L780.86,403.69 L752.04,415.56 L736.67,424.21 L733.72,428.19 L730.77,429.11 L727.61,429.65 L721.58,433.93 L702.82,449.47 L693.98,456.98 L682.99,470.14 L670.34,485.61 L669.41,487.44 L670.27,487.44 L667.39,490.89 L661.70,494.00 L661.65,494.79 L660.21,494.79 L651.66,503.37 L649.07,508.50 L646.34,510.34 L641.45,532.31 L641.45,540.27 L634.84,558.18 L629.24,567.68 L629.17,571.04 L626.44,575.18 L626.72,578.47 L626.00,581.38 L624.28,582.30 L624.57,585.82 L622.84,587.04 L618.03,600.67 L605.81,624.94 L602.07,631.37 L597.40,636.12 L597.76,637.65 L593.09,640.02 L590.51,641.32 L585.55,649.67 L575.27,660.46 L569.59,668.35 L555.58,683.12 L552.06,685.11 L530.36,693.07 L518.86,694.30 L501.69,701.49 L501.33,703.79 L499.68,702.95 L496.01,703.87 L494.29,707.01 L491.05,707.85 L486.89,717.42 L483.58,719.71 L476.97,730.43 L475.17,730.51 L469.78,735.18 L463.96,744.21 L462.24,749.34 L455.41,758.83 L455.91,766.34 L454.48,770.09 L447.72,777.90 L447.36,779.73 L443.20,781.11 L439.96,785.86 L425.95,789.69 L414.38,795.50 L408.42,796.19 L408.34,794.13 L400.51,796.65 L367.31,812.81 L362.79,814.34 L357.47,812.81 L350.57,812.81 L344.82,815.10 L340.65,818.39 L338.43,820.92 L333.90,822.45 L308.39,826.74 L278.86,835.16 L263.48,837.53 L254.93,838.84 L252.27,842.05 L246.02,843.12 L236.75,839.45 L230.85,833.63 L220.51,828.96 L189.97,822.15 L184.58,819.77 L181.63,820.08 L168.48,815.41 L162.73,812.04 Z M255.14,219.65 L263.05,219.58 L239.69,219.65 L255.14,219.65 Z M938.01,252.11 L917.82,264.59 L945.99,247.44 L938.01,252.11 Z M543.51,245.84 L559.25,229.07 L562.48,225.31 L543.51,245.84 Z M542.74,258.14 L542.36,258.55 L542.58,258.54 L544.48,261.14 L542.74,258.14 Z M573.66,293.12 L573.66,293.12 L561.04,278.37 L573.66,293.12 Z M541.14,325.53 L545.74,321.32 L545.74,321.30 L541.14,325.53 Z M527.34,334.10 L529.79,335.48 L530.85,335.25 L527.34,334.10 Z M557.38,368.48 L557.41,368.00 L553.43,368.86 L557.38,368.48 Z M561.12,371.39 L562.91,373.84 L561.17,370.67 L561.12,371.39 Z M573.96,367.75 L570.53,369.17 L562.91,373.84 L573.96,367.75 Z M547.68,386.70 L554.00,385.09 L560.68,382.64 L547.68,386.70 Z M586.48,447.33 L590.00,448.71 L584.61,446.41 L586.48,447.33 Z M657.69,474.05 L663.80,479.79 L657.69,473.42 L657.69,474.05 Z M662.29,484.77 L661.73,493.46 L663.80,479.79 L662.29,484.77 Z M378.41,143.39 L384.20,138.12 L378.41,143.39 L378.41,143.39 Z M402.82,279.83 L394.12,253.34 L400.15,273.24 L402.82,279.83 Z M408.92,294.52 L404.96,285.09 L405.40,286.18 L408.92,294.52 Z M424.73,353.17 L420.56,336.17 L425.59,360.52 L424.73,353.17 Z M448.08,347.81 L446.73,348.06 L448.62,348.18 L448.08,347.81 Z M444.27,373.22 L444.49,374.27 L444.92,373.91 L441.61,370.24 L444.27,373.22 Z M423.72,446.95 L421.06,447.71 L424.83,447.43 L423.72,446.95 Z M425.33,449.35 L425.73,448.48 L427.15,448.43 L425.10,447.54 L425.33,449.35 Z M397.21,552.13 L399.00,563.01 L397.42,552.98 L398.14,548.77 L397.21,552.13 Z M396.20,605.11 L391.24,609.17 L397.35,604.65 L401.88,602.43 L396.20,605.11 Z M405.64,621.95 L403.61,620.23 L403.82,620.80 L405.64,621.95 Z M420.10,624.03 L408.82,623.95 L409.78,624.56 L420.10,624.03 Z M415.47,671.01 L418.40,673.70 L416.46,671.33 L417.38,670.69 L415.47,671.01 Z M406.40,769.17 L405.11,771.54 L408.56,768.10 L409.14,766.98 L406.40,769.17 Z M258.45,803.24 L251.84,802.32 L258.36,803.81 L258.45,803.24 Z M256.44,816.10 L258.12,805.33 L257.23,806.99 L256.44,816.10 Z M305.23,163.92 L316.51,177.24 L317.94,178.17 L305.23,163.92 Z M312.73,288.36 L312.56,294.91 L312.27,323.46 L312.73,288.36 Z M253.92,296.97 L242.64,297.82 L312.56,294.91 L253.92,296.97 Z M297.39,323.31 L356.68,323.92 L312.27,323.46 L297.39,323.31 Z M303.07,409.66 L306.45,416.02 L304.87,413.03 L303.07,409.66 Z M309.25,557.49 L289.35,561.09 L301.13,559.18 L309.25,557.49 Z M329.73,578.55 L329.44,584.13 L330.09,574.64 L329.73,578.55 Z M312.70,605.72 L320.68,608.25 L323.34,608.48 L312.70,605.72 Z M271.17,600.59 L277.85,596.31 L256.79,609.70 L271.17,600.59 Z M258.38,520.36 L260.46,520.75 L262.10,520.27 L258.38,520.36 Z M287.19,544.56 L281.73,563.85 L281.98,564.72 L287.19,544.56 Z M245.37,561.70 L227.12,555.81 L225.54,555.94 L245.37,561.70 Z M266.80,518.10 L265.39,519.31 L266.50,518.99 L266.80,518.10 Z M282.66,506.97 L282.49,507.44 L288.56,503.52 L282.66,506.97 Z M294.66,503.83 L295.19,503.45 L288.56,503.52 L294.66,503.83 Z M322.55,511.18 L329.23,511.02 L319.53,510.56 L322.55,511.18 Z M345.18,512.48 L339.29,508.80 L339.86,509.80 L345.18,512.48 Z M343.96,480.33 L338.79,476.11 L337.85,475.50 L343.96,480.33 Z M350.55,631.39 L341.37,633.28 L349.78,631.91 L350.55,631.39 Z M359.19,623.56 L353.98,629.12 L355.89,627.85 L359.19,623.56 Z M373.06,659.70 L369.54,663.37 L371.62,662.30 L373.06,659.70 Z M361.04,563.93 L361.04,563.93 L341.23,566.02 L341.40,566.58 L361.04,563.93 Z M337.71,460.80 L338.40,460.89 L338.64,458.89 L337.89,459.73 L337.71,460.80 Z M338.60,460.91 L339.00,460.96 L339.36,459.81 L338.60,460.91 Z M351.50,461.44 L353.01,461.19 L351.58,461.19 L351.50,461.44 Z M360.70,461.95 L366.88,460.11 L371.98,457.82 L360.70,461.95 Z M376.44,455.67 L377.95,454.30 L379.53,452.00 L376.44,455.67 Z M376.22,428.19 L355.19,445.64 L362.71,440.13 L376.22,428.19 Z M358.27,196.72 L353.66,199.37 L355.82,198.75 L358.27,196.72 Z M496.94,663.23 L497.95,663.75 L502.80,662.75 L496.94,663.23 Z M489.52,239.72 L489.44,240.09 L494.65,240.02 L489.52,239.72 Z M489.76,282.81 L489.98,289.47 L490.34,285.80 L489.33,279.67 L487.32,272.55 L489.76,282.81 Z M493.57,344.90 L496.71,347.37 L496.30,346.51 L493.57,344.90 Z M469.71,368.71 L482.36,360.36 L492.13,354.01 L483.72,359.37 L469.71,368.71 Z M477.18,342.68 L480.63,352.02 L483.72,359.37 L477.18,342.68 Z M484.95,364.42 L484.94,364.59 L487.89,364.04 L484.95,364.42 Z M470.79,372.31 L469.14,371.00 L473.81,375.21 L470.79,372.31 Z M476.03,418.85 L475.32,420.00 L475.37,422.60 L476.03,418.85 Z M453.94,402.78 L454.19,403.00 L475.32,420.00 L453.94,402.78 Z M477.62,494.56 L470.00,494.72 L482.65,494.95 L477.62,494.56 Z M476.25,548.15 L477.15,551.62 L477.40,550.99 L476.25,548.15 Z M473.79,554.47 L462.89,553.90 L473.16,554.97 L473.79,554.47 Z M470.00,577.40 L476.11,592.33 L474.96,589.49 L470.00,577.40 Z M460.84,623.72 L474.96,623.79 L539.34,621.95 L460.84,623.72 Z M543.01,626.85 L542.43,625.17 L538.12,619.66 L539.34,621.95 L543.01,626.85 Z M474.89,387.39 L473.38,378.51 L474.24,383.94 L474.89,387.39 Z M435.94,545.78 L435.95,545.56 L433.57,549.61 L435.94,545.78 Z M428.97,449.21 L430.41,450.47 L433.64,451.23 L428.97,449.21 Z M438.74,448.71 L444.54,442.53 L440.68,445.72 L438.74,448.71 Z M447.70,439.92 L456.99,435.85 L448.73,439.06 L447.70,439.92 Z M444.92,514.32 L446.36,506.74 L445.06,512.10 L444.92,514.32 Z M451.24,349.96 L450.17,356.84 L451.39,350.33 L454.84,352.40 L451.24,349.96 Z M465.63,370.30 L467.70,367.10 L469.64,364.34 L465.40,370.16 L465.63,370.30 Z M429.90,214.60 L433.57,212.46 L416.25,222.49 L429.90,214.60 Z M522.53,464.40 L527.63,466.01 L529.50,466.03 L522.53,464.40 Z M516.06,567.22 L514.48,564.38 L516.02,569.51 L516.06,567.22 Z M511.53,526.34 L511.19,527.77 L514.48,523.89 L511.53,526.34 Z M520.37,654.95 L519.01,655.79 L518.29,658.05 L520.37,654.95 Z M597.04,531.69 L596.97,538.35 L597.31,538.67 L597.04,531.69 Z M613.38,527.06 L614.23,526.79 L613.72,526.72 L613.38,527.06 Z M616.71,527.13 L617.60,527.79 L619.32,527.48 L616.71,527.13 Z M622.41,523.43 L632.04,521.59 L627.94,521.67 L622.41,523.43 Z M583.33,506.85 L583.18,507.89 L584.11,508.96 L583.33,506.85 Z M586.27,500.61 L583.68,504.44 L583.58,505.13 L586.27,500.61 Z M541.86,497.09 L542.22,499.62 L542.13,495.96 L541.86,497.09 Z M506.51,347.03 L506.51,347.03 L506.72,358.75 L506.51,347.03 Z M537.04,377.20 L542.29,380.11 L542.24,380.75 L542.61,380.06 L537.04,377.20 Z M545.02,376.36 L544.84,376.71 L550.05,375.60 L545.02,376.36 Z M516.49,387.54 L521.67,404.08 L524.90,412.50 L516.49,387.54 Z M542.86,437.61 L544.00,437.25 L539.49,436.92 L542.86,437.61 Z M501.47,407.52 L499.68,409.36 L503.92,406.60 L501.47,407.52 Z M511.46,375.83 L507.63,374.41 L507.58,374.98 L511.46,375.83 Z M528.78,276.61 L516.35,298.58 L530.29,275.00 L528.78,276.61 Z M529.93,255.18 L530.62,255.32 L527.92,249.89 L529.93,255.18 Z M653.60,397.26 L659.98,351.47 L652.66,403.16 L644.76,455.75 L653.60,397.26 Z M692.69,93.72 L693.34,87.75 L692.04,81.62 L693.05,89.59 L692.69,93.72 Z M632.47,111.40 L664.09,142.94 L673.65,152.44 L664.81,143.63 L632.47,111.40 Z M642.53,164.15 L592.09,214.52 L664.09,142.94 L642.53,164.15 Z M636.35,230.22 L635.35,231.29 L682.99,183.37 L688.02,178.24 L636.35,230.22 Z M650.08,236.80 L651.23,237.26 L665.24,241.93 L635.35,231.29 L650.08,236.80 Z M672.93,285.18 L679.76,300.19 L651.23,237.26 L672.93,285.18 Z M789.84,268.88 L783.81,264.67 L776.69,261.68 L781.94,264.06 L789.84,268.88 Z M802.49,295.98 L798.25,297.13 L768.36,305.39 L802.49,295.98 Z M813.55,317.95 L814.13,318.73 L815.06,319.02 L813.55,317.95 Z M815.71,335.33 L815.39,331.23 L815.39,331.23 L815.71,335.33 Z M655.79,342.61 L656.18,340.76 L654.75,336.40 L655.79,342.61 Z M626.65,404.08 L617.88,402.54 L641.31,406.91 L626.65,404.08 Z M562.34,343.29 L566.65,336.94 L565.21,338.93 L563.86,338.60 L564.64,339.00 L562.34,343.29 Z M583.97,326.78 L587.78,327.21 L585.62,326.30 L583.97,326.78 Z M624.21,269.11 L614.94,278.91 L640.02,252.80 L624.21,269.11 Z M724.16,401.09 L722.37,394.97 L723.44,400.25 L724.16,401.09 Z M706.12,312.35 L707.09,314.10 L707.06,307.92 L706.70,312.52 L706.12,312.35 Z M707.85,193.78 L739.84,236.98 L724.67,216.36 L707.49,193.24 L704.19,200.36 L707.85,193.78 Z M794.94,231.37 L777.91,232.44 L776.48,233.28 L794.94,231.37 Z M775.21,239.12 L775.21,239.12 L764.98,225.55 L757.36,215.83 L775.21,239.12 Z M744.93,238.03 L744.22,242.90 L744.22,242.90 L744.93,238.03 Z M732.07,258.70 L727.25,259.23 L740.55,258.54 L732.07,258.70 Z M805.42,195.78 L798.82,199.52 L805.22,196.38 L805.42,195.78 Z M860.80,297.33 L857.65,291.92 L858.18,293.53 L860.75,297.33 L860.80,297.33 Z M834.11,302.64 L836.05,307.92 L833.81,301.37 L834.11,302.64 Z M831.59,253.95 L817.40,237.11 L832.02,254.56 L831.59,253.95 Z M862.64,245.99 L861.84,245.61 L860.55,246.37 L862.64,245.99 Z M868.10,253.28 L868.49,252.95 L868.15,252.68 L868.10,253.28 Z M871.40,266.51 L871.81,267.54 L869.39,260.00 L871.40,266.51 Z M859.26,270.33 L856.26,271.93 L871.40,266.51 L859.26,270.33 Z M893.03,282.43 L886.71,286.87 L879.59,292.00 L883.26,289.55 L893.03,282.43 Z M873.84,284.65 L876.79,288.48 L879.59,292.00 L873.84,284.65 Z M875.42,284.27 L876.65,283.73 L873.84,284.65 L875.42,284.27 Z M898.71,277.30 L896.12,278.14 L898.78,277.30 L900.58,276.46 L898.71,277.30 Z M904.68,294.04 L903.45,289.63 L901.68,285.55 L904.68,294.04 Z M862.85,296.72 L862.00,297.30 L862.85,297.28 L862.85,296.72 Z M831.59,288.86 L829.29,281.97 L831.38,290.94 L831.59,288.86 Z M832.45,292.99 L831.65,292.08 L832.23,294.60 L832.45,292.99 Z M852.58,274.77 L854.23,273.01 L852.65,273.85 L852.58,274.77 Z M886.42,261.15 L885.49,262.54 L886.90,261.46 L886.42,261.15 Z M889.87,263.37 L889.77,263.30 L891.38,267.96 L889.87,263.37 Z M923.02,231.05 L922.62,231.30 L922.92,231.60 L923.02,231.05 Z M921.27,228.61 L923.14,230.41 L923.28,229.61 L921.27,228.61 Z M920.77,225.78 L922.13,227.31 L930.97,232.13 L920.77,225.78 Z M863.66,225.40 L862.85,226.16 L864.36,227.54 L863.66,225.40 Z M891.74,232.74 L893.17,232.29 L894.32,230.91 L891.74,232.74 Z" /></g></svg>