<svg xmlns="http://www.w3.org/2000/svg" viewBox="0 0 1000 1000" width="1000" height="1000"><g fill="#cccccc" stroke="#222" stroke-width="2"><path d="M606.71,978.24 L606.48,977.59 L607.64,977.76 L607.18,978.08 L606.71,978.24 Z M614.93,914.62 L614.62,918.05 L613.07,920.65 L607.72,920.41 L607.88,918.62 L612.22,912.83 L612.53,910.39 L614.62,907.21 L619.12,904.52 L614.93,914.62 Z M593.77,958.61 L586.09,953.48 L584.85,952.42 L584.39,947.53 L585.94,942.24 L580.74,937.27 L580.82,931.24 L583.46,926.19 L586.79,926.68 L588.73,928.55 L592.60,928.96 L594.85,927.33 L597.33,924.40 L593.77,922.85 L598.88,921.96 L609.43,925.70 L610.51,923.67 L615.78,921.63 L617.95,918.94 L618.81,914.46 L621.05,909.74 L626.56,906.80 L628.46,904.08 L628.26,904.04 L629.35,902.24 L625.71,886.60 L609.97,887.66 L602.14,890.68 L598.96,889.37 L596.94,890.02 L585.78,880.74 L581.05,878.21 L577.56,874.47 L572.83,865.75 L570.35,862.98 L569.81,864.36 L569.97,862.41 L563.38,862.65 L557.56,862.25 L535.16,866.56 L531.20,874.38 L522.99,877.32 L511.51,877.97 L508.88,884.49 L516.55,888.80 L524.07,895.73 L526.40,901.02 L526.63,905.09 L523.06,911.61 L515.00,920.08 L493.29,927.74 L474.61,937.03 L456.08,944.28 L435.15,948.51 L409.57,953.15 L394.45,922.93 L365.46,888.88 L354.21,873.08 L345.76,856.87 L340.42,843.84 L339.02,836.34 L342.74,819.24 L343.28,809.38 L338.48,785.84 L338.24,776.55 L340.84,772.27 L340.34,772.72 L337.16,769.95 L333.67,771.75 L332.43,771.18 L335.84,766.94 L333.90,764.09 L332.51,764.41 L332.35,767.02 L330.65,769.06 L327.47,769.22 L326.31,764.74 L324.99,764.99 L323.28,762.62 L323.44,758.14 L320.88,755.94 L322.51,753.34 L319.79,748.12 L322.51,746.98 L323.75,743.24 L327.39,745.84 L330.65,744.86 L329.64,742.99 L327.78,743.07 L326.62,740.14 L327.93,739.49 L329.95,734.44 L327.24,733.13 L327.78,730.04 L331.03,729.47 L329.56,725.31 L329.91,724.84 L325.07,721.81 L323.20,719.21 L322.74,715.54 L319.79,715.78 L314.52,711.96 L308.94,711.47 L306.12,708.51 L302.27,712.36 L297.85,713.18 L295.61,707.56 L293.82,706.74 L293.05,703.00 L294.13,709.51 L293.67,711.39 L289.02,715.78 L285.22,716.68 L280.49,721.08 L273.20,712.61 L279.33,720.10 L278.94,721.57 L278.55,720.67 L274.36,720.51 L274.83,718.72 L271.81,717.41 L271.34,721.65 L269.56,720.67 L268.78,721.97 L268.78,726.46 L263.51,725.07 L259.48,731.18 L257.85,730.53 L254.67,732.24 L252.58,729.96 L251.11,731.18 L250.49,724.17 L251.88,722.95 L250.87,720.02 L250.56,718.72 L248.78,718.39 L247.70,720.59 L244.13,719.53 L244.67,717.01 L246.53,716.68 L246.92,714.32 L242.42,713.01 L240.72,709.51 L231.88,705.03 L239.25,689.80 L228.16,711.63 L227.38,710.08 L224.13,709.10 L224.28,711.30 L221.34,712.12 L220.33,709.67 L215.37,709.19 L214.05,702.10 L214.75,707.80 L212.03,707.23 L210.56,709.51 L211.72,711.96 L209.86,713.10 L207.07,712.36 L207.15,708.78 L203.66,706.91 L201.57,706.99 L200.79,710.33 L195.91,710.65 L195.06,713.34 L193.27,711.47 L193.51,706.50 L188.08,706.17 L191.41,699.09 L190.56,695.42 L192.16,691.48 L191.65,691.51 L189.32,683.36 L186.92,682.06 L201.03,679.94 L177.77,683.12 L171.26,663.89 L172.19,659.25 L173.58,657.38 L165.83,652.16 L157.38,657.46 L151.49,649.88 L149.94,651.11 L146.91,648.99 L143.66,651.68 L122.03,625.45 L153.74,598.97 L154.59,595.14 L165.75,547.41 L170.17,530.06 L177.30,531.44 L170.25,530.06 L175.13,510.59 L175.68,508.23 L174.67,506.44 L147.07,491.61 L140.40,488.11 L114.12,474.42 L106.52,468.31 L92.88,457.15 L81.48,448.44 L51.71,451.78 L39.08,433.94 L44.19,428.97 L55.05,426.77 L57.68,428.40 L66.44,427.26 L76.75,424.00 L77.53,422.04 L82.57,419.84 L85.13,426.52 L81.41,416.34 L79.70,415.12 L79.54,408.85 L82.96,401.11 L88.23,397.61 L90.74,390.25 L90.17,389.13 L91.48,388.16 L88.38,384.82 L88.54,379.69 L89.93,378.95 L88.69,377.32 L88.69,374.06 L92.65,372.84 L93.89,366.82 L92.80,363.64 L92.80,352.48 L96.52,352.07 L97.14,347.02 L98.85,345.47 L101.64,337.57 L101.95,335.70 L105.52,332.77 L107.38,323.80 L110.17,320.47 L108.15,316.47 L101.02,312.64 L95.83,306.05 L100.71,301.00 L101.41,298.31 L98.38,292.69 L97.92,286.90 L95.67,284.70 L98.85,280.79 L92.49,288.29 L85.13,285.11 L80.86,286.90 L80.17,280.22 L80.94,277.54 L78.92,277.21 L76.68,273.87 L75.82,274.36 L76.21,277.37 L71.64,279.25 L68.69,276.80 L63.42,275.99 L62.41,272.57 L60.16,270.12 L60.71,263.69 L62.33,262.06 L64.35,254.08 L57.22,249.84 L60.16,241.61 L59.16,240.31 L55.98,240.39 L55.12,234.77 L52.49,232.00 L49.78,224.75 L50.40,227.77 L43.11,233.14 L40.78,231.92 L38.30,225.97 L34.89,224.59 L35.43,222.39 L39.00,219.13 L42.41,218.72 L42.72,216.20 L45.12,215.06 L44.74,213.59 L43.65,212.78 L40.78,214.57 L34.35,212.94 L36.13,210.41 L38.07,199.01 L36.60,196.57 L38.84,195.67 L38.07,193.80 L37.99,192.33 L35.98,194.12 L35.51,192.33 L31.94,191.19 L29.54,194.12 L30.32,196.81 L26.98,194.45 L26.91,187.93 L30.08,187.61 L26.29,184.27 L24.66,185.81 L26.29,189.40 L24.66,189.07 L22.64,186.14 L22.87,182.31 L26.13,176.12 L29.70,163.90 L29.08,160.81 L21.09,150.30 L19.23,139.38 L22.49,133.60 L34.43,120.24 L39.00,102.40 L44.19,79.35 L46.52,68.35 L53.03,57.19 L56.99,54.58 L74.43,47.99 L79.86,43.99 L81.95,41.88 L86.13,32.10 L90.48,26.97 L91.02,23.71 L94.89,22.57 L99.16,19.23 L106.29,21.02 L110.55,20.05 L114.74,21.59 L123.04,20.86 L132.03,23.30 L136.22,20.37 L138.31,21.51 L141.56,20.13 L142.49,21.59 L148.00,23.22 L152.88,28.76 L156.84,29.49 L161.33,34.22 L162.73,34.14 L162.60,36.16 L163.19,34.95 L164.67,34.14 L169.09,35.85 L172.65,39.92 L180.95,45.95 L183.82,46.36 L188.85,42.04 L190.17,38.46 L192.27,37.48 L193.89,32.10 L206.92,55.15 L206.38,57.52 L200.87,64.44 L195.83,69.00 L193.20,68.51 L188.16,71.53 L185.83,73.89 L183.82,79.27 L182.42,79.59 L182.03,81.87 L186.68,88.80 L187.30,98.57 L185.75,100.61 L184.67,106.72 L180.09,111.52 L180.04,111.56 L181.49,111.44 L186.53,114.94 L191.03,122.93 L198.31,125.86 L205.06,122.60 L209.01,118.85 L218.47,116.17 L221.49,116.98 L227.31,112.26 L237.93,111.52 L238.08,120.65 L240.33,131.40 L253.20,134.82 L267.62,134.09 L273.20,137.10 L278.94,138.73 L284.99,138.32 L285.53,143.13 L284.99,136.78 L287.85,130.50 L287.78,123.82 L288.94,121.30 L286.38,115.43 L289.17,113.40 L285.30,100.36 L288.47,99.39 L289.48,102.81 L291.96,101.83 L294.75,104.93 L299.17,102.24 L299.56,99.96 L303.36,98.73 L305.30,102.32 L313.36,107.69 L308.48,104.19 L313.20,100.69 L312.51,96.29 L319.72,89.45 L318.86,83.75 L319.64,82.61 L325.53,81.87 L326.23,74.79 L333.52,75.44 L337.47,73.81 L337.47,68.19 L345.07,64.36 L348.94,59.96 L349.10,58.01 L345.92,55.15 L346.00,50.92 L344.06,46.60 L347.01,38.86 L354.76,35.60 L357.39,36.26 L358.32,33.81 L364.06,33.81 L368.71,29.41 L372.28,29.25 L375.69,26.32 L380.50,27.05 L385.07,34.79 L384.91,41.79 L388.87,51.33 L386.85,60.20 L379.88,66.48 L370.50,78.04 L359.25,80.00 L358.94,94.66 L360.03,96.70 L362.28,102.07 L371.89,102.16 L371.27,117.47 L382.20,118.04 L382.36,117.88 L384.22,117.14 L392.51,120.81 L402.20,114.37 L403.52,117.14 L409.33,117.14 L414.92,121.62 L425.07,120.24 L426.78,121.54 L425.85,126.02 L427.32,126.84 L428.17,132.78 L427.01,133.92 L424.92,133.19 L425.54,135.55 L426.78,135.39 L426.00,139.55 L429.72,142.64 L426.78,145.33 L430.34,146.47 L431.89,150.05 L430.50,153.80 L428.25,153.72 L425.69,159.01 L427.01,170.83 L433.99,170.58 L433.29,173.92 L434.53,173.02 L439.72,175.14 L440.73,178.32 L440.42,172.86 L436.62,165.94 L439.03,160.40 L449.03,149.56 L460.50,149.65 L462.36,148.59 L463.06,144.03 L466.01,139.46 L469.42,138.89 L469.49,137.83 L473.99,137.02 L476.32,139.14 L478.33,137.35 L483.37,137.67 L491.12,140.77 L492.98,144.19 L496.09,145.33 L496.09,147.77 L499.50,151.52 L501.36,159.42 L499.96,165.04 L497.25,165.61 L497.02,167.97 L494.61,167.89 L492.36,172.62 L489.50,172.70 L490.66,174.49 L488.41,175.39 L489.81,176.04 L489.11,178.32 L491.28,180.19 L490.12,181.42 L491.20,181.42 L491.28,184.92 L489.26,185.57 L492.60,187.77 L490.66,189.07 L490.58,191.11 L488.49,193.23 L486.08,192.98 L487.01,194.86 L485.23,197.54 L486.01,199.99 L483.60,200.15 L483.76,203.49 L479.34,206.34 L481.59,208.13 L480.04,209.27 L481.90,211.47 L478.72,211.80 L481.36,214.73 L480.27,216.12 L481.43,216.52 L481.20,218.23 L479.88,219.54 L480.19,221.17 L481.82,221.57 L482.13,224.34 L480.89,225.97 L483.76,225.57 L484.46,228.25 L482.21,228.74 L480.97,227.60 L477.40,230.45 L475.08,229.39 L474.69,231.27 L473.99,229.31 L471.59,231.10 L468.87,230.29 L468.80,232.65 L470.58,233.79 L469.34,234.93 L474.53,235.42 L470.81,237.70 L470.89,239.41 L470.86,239.42 L472.21,239.82 L471.35,242.83 L474.38,245.60 L473.14,251.14 L466.55,255.14 L462.05,255.38 L461.51,257.74 L465.77,261.49 L466.08,265.32 L464.61,268.66 L465.39,270.12 L475.46,269.88 L476.86,271.67 L478.49,274.85 L482.13,272.49 L485.31,272.73 L491.05,281.36 L495.70,283.16 L495.70,285.11 L492.29,288.94 L492.36,290.49 L501.82,293.91 L503.45,297.82 L503.60,302.71 L510.35,305.15 L512.06,309.22 L510.89,310.85 L502.52,311.83 L502.44,314.27 L504.54,316.96 L501.67,321.44 L511.28,337.49 L510.81,339.04 L505.00,340.02 L506.40,344.74 L501.28,347.51 L496.86,353.86 L496.78,358.42 L495.39,361.52 L495.93,364.86 L500.43,367.30 L500.97,369.26 L498.10,372.84 L497.71,377.49 L496.24,379.93 L492.75,380.83 L488.57,375.12 L485.46,374.55 L477.71,381.40 L477.94,388.89 L471.74,391.90 L471.85,391.20 L469.88,394.19 L468.80,406.24 L465.46,409.26 L457.09,404.61 L450.97,405.83 L439.10,410.97 L434.38,407.95 L428.56,400.95 L415.69,396.30 L412.67,393.29 L411.51,390.19 L404.99,375.29 L400.96,373.82 L394.92,375.61 L384.22,378.46 L381.66,381.07 L382.59,384.08 L390.34,390.76 L392.74,397.12 L391.66,403.63 L389.95,405.43 L378.56,407.87 L371.19,412.27 L369.87,415.93 L365.07,419.93 L362.98,422.78 L364.29,428.48 L368.56,437.60 L380.03,448.27 L378.87,451.12 L370.03,455.03 L363.75,460.25 L361.81,459.92 L360.57,455.36 L356.85,456.83 L354.52,455.85 L353.28,458.05 L355.69,460.90 L353.83,465.14 L356.54,466.44 L359.72,465.79 L360.34,466.85 L358.94,469.70 L360.11,473.69 L364.60,476.87 L365.77,476.30 L366.70,478.33 L369.72,477.52 L370.26,481.67 L375.46,482.32 L376.31,486.15 L373.67,490.55 L378.17,489.25 L384.45,492.18 L386.78,491.61 L392.12,494.22 L391.66,496.17 L394.45,500.16 L393.52,502.53 L395.12,505.90 L399.64,505.38 L401.27,506.19 L407.47,503.10 L409.49,505.54 L412.44,505.87 L413.91,509.45 L416.08,515.64 L416.54,521.59 L422.36,527.86 L418.95,537.15 L426.70,555.23 L445.77,578.44 L445.54,586.18 L443.37,589.60 L433.37,598.89 L433.99,604.02 L440.27,611.03 L440.58,614.86 L439.03,617.46 L435.54,619.01 L431.58,618.20 L422.98,610.70 L418.17,610.30 L413.99,611.76 L404.53,622.51 L401.58,622.92 L400.65,621.29 L402.98,611.27 L401.97,607.44 L399.80,605.65 L395.46,606.39 L390.57,610.70 L387.09,614.37 L385.30,620.56 L376.00,626.18 L364.29,631.80 L357.70,637.34 L346.93,651.27 L344.76,660.31 L345.45,667.40 L349.64,676.28 L351.81,678.72 L360.26,687.68 L361.66,691.48 L361.66,690.78 L369.41,693.38 L376.70,698.11 L380.57,702.26 L388.25,706.09 L393.67,719.94 L401.27,729.31 L411.89,730.94 L414.06,723.93 L415.92,721.97 L422.67,720.51 L429.26,723.12 L432.13,719.12 L437.01,717.74 L438.48,714.64 L440.81,713.50 L447.09,714.32 L448.72,720.10 L452.21,722.38 L454.61,726.70 L462.90,732.73 L469.11,746.17 L471.04,746.82 L476.24,744.78 L480.81,750.08 L485.70,751.38 L487.34,752.98 L487.09,752.28 L492.36,755.62 L496.63,755.13 L507.33,758.22 L513.45,761.56 L518.10,767.27 L525.31,769.71 L527.79,762.87 L526.94,756.19 L530.51,752.36 L530.58,748.94 L534.92,748.45 L536.32,746.66 L538.34,747.15 L540.04,744.05 L542.91,744.95 L543.92,742.10 L552.60,749.35 L547.48,744.70 L538.96,738.35 L534.85,731.26 L535.70,726.37 L540.43,722.79 L544.38,722.71 L547.56,726.46 L550.74,726.46 L548.03,717.58 L567.56,708.37 L567.49,707.48 L579.89,705.44 L587.41,706.50 L589.42,709.35 L607.88,709.67 L612.60,710.57 L615.94,704.71 L616.25,701.37 L620.67,699.90 L624.08,696.15 L628.26,695.58 L631.83,693.22 L632.92,688.25 L634.85,685.73 L640.75,684.42 L641.52,682.47 L641.75,675.71 L643.77,671.14 L644.16,665.36 L645.94,663.65 L646.02,656.56 L646.87,656.24 L645.71,648.83 L649.12,652.16 L650.59,649.97 L649.04,647.68 L651.21,647.11 L651.13,646.14 L649.58,644.92 L645.48,645.00 L645.55,637.67 L643.77,635.71 L648.19,634.49 L650.51,635.71 L657.57,635.38 L660.90,632.13 L664.62,631.07 L666.87,627.40 L667.03,628.46 L669.20,627.65 L672.69,622.19 L676.72,620.80 L679.12,615.92 L681.21,615.67 L684.55,612.82 L691.14,613.06 L698.11,610.70 L697.88,624.14 L701.37,623.82 L701.29,628.62 L703.31,628.54 L701.37,630.66 L704.70,628.22 L705.56,624.71 L709.28,624.96 L714.01,623.08 L713.85,619.91 L716.88,619.09 L721.37,622.03 L723.15,621.13 L725.17,623.08 L727.03,622.60 L726.88,625.53 L770.75,626.67 L769.05,633.51 L769.98,630.33 L773.62,631.31 L771.69,634.41 L773.31,646.79 L774.55,648.17 L772.93,648.58 L771.53,647.11 L773.31,650.70 L771.07,655.91 L774.48,660.80 L770.21,668.46 L774.71,672.12 L776.41,676.36 L773.16,678.72 L774.01,680.84 L769.90,682.63 L770.13,684.67 L778.27,691.27 L778.89,693.63 L781.84,696.07 L784.32,697.05 L787.50,695.83 L787.32,696.12 L792.00,690.86 L795.02,689.80 L799.83,689.07 L804.63,692.08 L810.68,689.06 L810.06,687.60 L809.75,684.18 L812.54,683.28 L808.74,680.92 L809.90,678.72 L808.90,677.66 L812.08,674.24 L810.99,673.43 L811.07,670.41 L807.58,666.75 L811.92,661.04 L815.10,659.90 L815.18,656.48 L816.69,655.25 L816.34,653.63 L817.97,650.86 L817.58,648.58 L823.32,644.43 L825.72,645.89 L825.49,643.45 L829.52,640.92 L831.07,637.18 L832.31,637.91 L832.70,632.78 L834.79,632.61 L834.79,629.68 L839.60,625.28 L841.38,626.26 L843.40,620.23 L845.88,620.15 L848.51,615.26 L852.31,614.12 L854.64,610.87 L862.78,613.63 L863.63,611.84 L862.85,611.11 L864.71,608.99 L863.94,608.34 L868.20,602.56 L868.28,600.03 L871.69,599.62 L874.56,595.55 L875.57,595.71 L875.03,594.74 L877.51,589.85 L882.47,586.35 L889.60,587.65 L893.01,593.19 L892.78,597.02 L903.40,595.23 L905.18,596.77 L907.35,605.33 L913.40,615.02 L922.70,616.57 L929.29,613.31 L927.35,619.99 L931.15,625.85 L930.15,633.84 L934.10,635.87 L935.03,638.56 L937.36,639.86 L937.67,642.88 L940.46,642.63 L943.95,646.22 L945.50,645.73 L947.28,651.92 L950.30,654.04 L952.55,654.04 L953.64,658.36 L954.88,658.36 L954.41,659.17 L956.27,661.04 L955.88,662.51 L956.89,662.35 L956.43,663.49 L959.76,666.58 L959.29,669.43 L960.23,670.41 L958.91,671.88 L961.47,675.87 L958.67,679.29 L959.45,680.27 L957.74,681.90 L958.52,683.36 L956.89,685.24 L956.81,687.84 L955.03,688.90 L956.12,692.24 L958.83,692.57 L960.23,694.69 L959.22,694.77 L960.30,695.99 L959.68,698.43 L961.39,700.31 L960.92,701.61 L963.33,702.02 L962.55,704.05 L965.11,709.02 L965.11,712.28 L969.06,716.19 L968.52,718.96 L971.62,722.38 L972.94,725.80 L973.95,725.80 L973.71,730.28 L978.37,737.45 L977.82,740.30 L974.57,737.45 L974.02,739.73 L979.61,746.74 L980.77,752.11 L978.13,764.66 L979.37,769.71 L976.74,771.26 L976.66,772.89 L980.23,778.67 L970.69,786.98 L954.49,808.81 L947.59,815.41 L937.59,831.78 L934.56,833.33 L916.58,836.51 L906.58,834.88 L902.24,835.94 L897.43,840.42 L892.16,846.53 L883.09,859.15 L880.84,860.70 L875.18,858.91 L860.45,861.51 L839.60,859.80 L827.50,860.29 L817.27,862.98 L810.84,867.79 L805.80,870.72 L802.77,871.61 L798.43,870.64 L796.11,873.33 L796.34,874.63 L789.83,876.09 L777.96,886.11 L773.93,879.52 L777.42,885.79 L760.13,902.73 L749.44,917.15 L744.94,920.08 L738.97,930.26 L736.02,932.22 L729.51,931.57 L725.79,934.17 L723.39,933.20 L709.98,917.31 L700.67,911.53 L709.43,911.53 L695.25,911.28 L678.81,915.77 L670.83,915.52 L666.56,916.01 L662.38,920.33 L659.58,925.62 L640.82,935.23 L630.36,942.65 L619.81,952.91 L616.56,957.23 L608.65,969.53 L605.55,977.59 L602.68,980.77 L600.12,975.23 L595.01,972.54 L593.61,970.51 L592.76,965.21 L595.32,963.58 L593.77,958.61 Z M501.37,878.17 L502.05,879.27 L508.88,884.49 L501.37,878.17 Z M215.45,675.14 L224.22,670.77 L212.11,676.03 L201.03,679.94 L215.45,675.14 Z M265.53,145.83 L268.86,142.89 L273.20,137.10 L265.53,145.83 Z M314.75,112.09 L316.20,113.24 L313.36,107.69 L314.75,112.09 Z M555.08,756.92 L557.10,760.17 L552.60,749.35 L555.08,756.92 Z M597.25,962.77 L599.74,960.73 L595.32,963.58 L597.25,962.77 Z M598.26,956.17 L597.72,954.54 L599.74,960.73 L598.26,956.17 Z M558.80,803.60 L552.21,810.68 L549.67,814.97 L558.80,803.60 Z M546.34,788.55 L546.09,789.91 L546.93,791.39 L546.34,788.55 Z M556.55,770.44 L557.27,768.35 L547.02,784.94 L546.79,786.18 L556.55,770.44 Z M558.72,764.09 L558.44,763.39 L558.46,764.85 L558.72,764.09 Z M646.59,722.98 L646.25,722.22 L642.53,721.49 L646.59,722.98 Z M648.55,728.42 L648.58,727.43 L647.88,725.87 L648.55,728.42 Z M665.86,738.76 L666.04,737.12 L664.37,736.93 L665.86,738.76 Z M667.96,769.47 L670.98,767.51 L669.12,768.49 L667.96,769.47 Z M671.95,784.87 L672.45,783.88 L671.52,781.52 L671.95,784.87 Z M671.24,786.23 L671.90,784.96 L671.68,784.37 L670.98,785.84 L670.84,785.84 L671.24,786.23 Z M655.40,805.14 L661.52,809.95 L659.74,808.08 L655.40,805.14 Z M670.92,825.54 L670.80,824.56 L669.64,824.48 L670.92,825.54 Z M665.79,838.14 L668.65,832.11 L668.97,829.58 L665.79,838.14 Z M696.72,836.83 L703.93,838.71 L687.11,832.68 L696.72,836.83 Z M721.45,826.73 L724.24,827.22 L724.72,826.67 L723.85,826.32 L721.45,826.73 Z M728.22,823.83 L729.36,822.41 L727.92,823.90 L728.22,823.83 Z M736.28,869.43 L737.34,865.26 L737.65,862.57 L736.28,869.43 Z M741.61,871.53 L739.20,866.97 L737.34,865.26 L741.61,871.53 Z M731.60,878.95 L735.25,873.49 L735.45,872.69 L731.60,878.95 Z M647.49,794.96 L649.97,800.26 L652.53,805.23 L647.49,794.96 Z M649.12,901.43 L652.14,897.19 L648.07,901.69 L649.12,901.43 Z M644.62,902.57 L645.96,902.23 L637.57,902.57 L644.62,902.57 Z M596.68,928.14 L597.25,928.39 L599.97,927.74 L596.68,928.14 Z M589.97,948.59 L594.10,951.77 L594.27,951.40 L589.97,948.59 Z M602.53,941.42 L602.36,940.90 L601.10,940.71 L607.57,944.03 L602.53,941.42 Z M626.64,929.61 L623.38,931.49 L615.01,937.43 L623.46,931.49 L626.64,929.61 Z M641.91,865.67 L644.62,871.13 L645.41,871.30 L641.91,865.67 Z M646.23,871.48 L646.87,871.61 L647.13,870.96 L646.23,871.48 Z M605.70,753.42 L602.84,750.57 L601.07,750.09 L605.70,753.42 Z M619.97,775.74 L622.14,780.63 L617.41,769.63 L619.97,775.74 Z M625.70,788.98 L626.33,788.04 L626.06,787.78 L625.70,788.98 Z M630.98,790.89 L640.75,787.88 L629.97,790.81 L630.98,790.89 Z M619.58,794.23 L623.38,792.44 L624.25,791.14 L619.58,794.23 Z M578.61,771.43 L585.08,770.52 L579.27,771.01 L578.61,771.43 Z M692.38,898.66 L695.63,900.21 L696.42,900.18 L692.38,898.66 Z M669.12,853.45 L660.82,856.46 L665.27,856.33 L664.47,855.81 L669.12,853.45 Z M670.52,851.01 L670.98,847.99 L669.12,853.45 L670.52,851.01 Z M667.72,842.05 L666.33,841.31 L670.98,847.99 L667.72,842.05 Z M685.01,843.35 L673.46,838.95 L670.21,837.73 L685.01,843.35 Z M685.56,851.58 L689.35,850.68 L684.24,851.41 L685.56,851.58 Z M667.26,863.22 L677.18,866.65 L673.38,864.61 L667.26,863.22 Z M666.87,857.36 L666.28,856.98 L667.26,863.22 L666.87,857.36 Z M682.92,874.06 L682.45,872.10 L681.14,869.17 L682.92,874.06 Z M684.94,870.72 L684.52,868.35 L684.35,871.05 L684.94,870.72 Z M722.07,840.82 L722.07,840.82 L715.63,842.53 L722.07,840.82 Z M740.15,672.06 L739.98,671.69 L739.98,671.96 L740.15,672.06 Z M741.45,672.81 L745.48,675.14 L735.79,675.14 L746.57,676.03 L743.23,673.02 L741.45,672.81 Z M743.93,677.09 L748.51,676.20 L746.57,676.03 L743.93,677.09 Z M755.47,691.20 L754.96,690.10 L755.09,690.69 L755.47,691.20 Z M757.29,695.12 L757.26,695.04 L752.38,706.50 L757.29,695.12 Z M733.71,729.90 L733.93,729.95 L733.76,729.74 L733.71,729.90 Z M713.78,767.11 L714.39,765.80 L718.04,755.54 L713.78,767.11 Z M729.36,798.14 L728.81,801.56 L728.89,803.60 L729.36,798.14 Z M724.78,822.99 L726.88,815.49 L724.55,822.01 L724.78,822.99 Z M667.49,737.29 L667.57,733.79 L667.34,733.10 L667.49,737.29 Z M677.42,730.04 L679.90,732.32 L677.23,729.34 L677.42,730.04 Z M675.94,724.58 L682.76,712.53 L677.88,719.78 L675.94,724.58 Z M702.53,712.28 L703.77,719.37 L697.88,712.04 L704.01,719.78 L702.53,712.28 Z M672.92,790.89 L673.34,791.22 L673.15,788.12 L672.92,790.89 Z M674.83,792.42 L674.47,791.38 L673.93,791.70 L674.83,792.42 Z M678.03,797.88 L678.19,797.24 L676.17,796.35 L678.03,797.88 Z M691.64,790.70 L691.60,790.48 L691.16,790.78 L691.64,790.70 Z M701.84,793.17 L700.28,790.89 L698.85,790.57 L701.84,793.17 Z M670.13,823.72 L670.74,824.14 L670.52,822.33 L670.13,823.72 Z M675.17,818.75 L675.42,818.12 L670.52,822.33 L675.17,818.75 Z M686.41,822.49 L684.50,820.85 L684.78,821.60 L686.41,822.49 Z M680.20,803.56 L680.05,804.25 L680.90,809.05 L680.20,803.56 Z M726.41,727.68 L733.18,729.00 L732.54,728.17 L726.41,727.68 Z M666.67,680.17 L666.95,678.88 L665.48,671.31 L666.67,680.17 Z M704.63,647.77 L705.01,644.51 L704.08,648.50 L704.63,647.77 Z M683.19,679.72 L683.07,680.11 L679.51,678.56 L680.59,679.78 L687.18,680.92 L683.19,679.72 Z M662.10,690.69 L661.76,687.36 L661.45,689.64 L662.10,690.69 Z M688.89,675.62 L683.62,678.31 L683.32,679.30 L688.89,675.62 Z M751.53,813.21 L751.22,813.59 L752.11,813.30 L751.53,813.21 Z M765.02,808.57 L759.97,810.77 L760.99,810.44 L765.02,808.57 Z M758.82,857.28 L757.33,857.20 L757.28,857.28 L758.82,857.28 Z M778.58,844.08 L780.06,844.57 L785.25,845.71 L778.58,844.08 Z M807.55,842.13 L793.93,850.03 L807.19,843.10 L807.55,842.13 Z M810.37,840.50 L809.57,840.96 L811.23,840.35 L810.37,840.50 Z M829.05,837.08 L829.98,835.85 L828.05,837.24 L828.11,837.45 L829.05,837.08 Z M829.75,840.74 L829.61,840.00 L828.30,841.03 L829.75,840.74 Z M759.20,888.40 L755.48,889.86 L755.20,890.30 L759.20,888.40 Z M750.27,862.02 L751.84,861.60 L753.78,858.99 L750.27,862.02 Z M748.62,744.29 L749.28,744.70 L751.92,744.29 L748.62,744.29 Z M774.24,742.18 L776.30,742.76 L776.26,742.67 L774.24,742.18 Z M777.00,744.53 L776.96,745.19 L778.04,747.15 L777.00,744.53 Z M778.58,749.43 L776.88,748.77 L777.58,749.83 L778.58,749.43 Z M766.89,761.81 L766.80,761.81 L766.93,761.98 L766.89,761.81 Z M769.74,765.67 L770.51,766.68 L770.44,766.21 L769.74,765.67 Z M771.78,768.35 L775.17,772.81 L773.16,768.90 L771.78,768.35 Z M820.60,759.20 L819.21,761.32 L819.08,762.89 L819.60,762.22 L820.60,759.20 Z M857.82,759.36 L858.33,761.69 L858.35,761.68 L857.58,744.62 L857.81,759.36 L857.82,759.36 Z M878.67,770.28 L876.65,765.96 L873.94,767.35 L876.11,766.29 L878.67,770.28 Z M916.05,717.98 L927.90,713.10 L916.05,717.98 L916.05,717.98 Z M929.29,754.07 L928.67,751.63 L925.65,747.55 L929.29,754.07 Z M806.65,782.91 L807.97,781.60 L807.84,781.15 L806.65,782.91 Z M802.15,783.97 L802.76,784.97 L803.08,782.01 L802.15,783.97 Z M803.63,786.41 L806.18,786.98 L803.22,785.73 L803.63,786.41 Z M824.94,808.00 L825.79,809.43 L825.33,804.90 L824.94,808.00 Z M854.79,826.65 L850.76,824.53 L852.62,826.00 L854.79,826.65 Z M855.64,825.18 L857.19,819.81 L854.79,826.65 L855.64,825.18 Z M794.40,787.39 L791.61,791.79 L792.69,790.16 L794.40,787.39 Z M905.26,769.63 L903.48,775.33 L903.32,779.48 L905.26,769.63 Z M759.75,697.78 L762.46,697.94 L758.82,696.71 L759.75,697.78 Z M773.31,700.39 L770.99,700.39 L770.16,701.22 L773.31,700.39 Z M776.82,699.47 L776.26,699.33 L776.06,699.67 L776.82,699.47 Z M783.51,698.84 L783.16,698.84 L782.88,699.16 L783.51,698.84 Z M787.89,698.19 L786.66,697.19 L786.66,697.19 L787.89,698.19 Z M792.85,714.40 L793.48,714.65 L793.56,712.95 L792.85,714.40 Z M793.00,715.87 L793.08,723.60 L793.45,715.47 L793.00,715.87 Z M794.79,737.13 L795.56,739.33 L793.08,723.60 L794.79,737.13 Z M820.22,721.49 L820.58,720.84 L819.59,721.54 L820.22,721.49 Z M821.60,719.00 L820.22,715.46 L821.23,719.66 L821.60,719.00 Z M829.83,719.53 L831.73,718.75 L828.07,718.86 L829.83,719.53 Z M884.42,689.17 L852.39,688.82 L874.95,689.31 L884.42,689.17 Z M915.42,716.03 L916.04,717.94 L916.11,714.97 L915.42,716.03 Z M885.18,646.95 L885.34,668.46 L885.65,681.41 L885.18,646.95 Z M812.77,695.99 L814.07,694.00 L813.78,694.12 L814.17,691.27 L812.77,695.99 Z M143.58,309.39 L142.36,309.62 L144.80,309.94 L143.58,309.39 Z M162.19,311.02 L154.98,311.42 L151.33,312.89 L156.06,311.42 L162.19,311.02 Z M163.06,344.82 L170.33,341.32 L162.96,344.33 L163.06,344.82 Z M168.16,353.86 L163.29,345.90 L163.66,347.67 L168.16,353.86 Z M173.19,373.58 L171.84,372.28 L176.76,380.26 L173.19,373.58 Z M227.15,415.20 L223.97,406.16 L225.76,413.41 L227.15,415.20 Z M240.02,417.73 L234.13,417.48 L240.42,418.06 L240.02,417.73 Z M243.28,420.41 L241.78,419.18 L243.61,422.88 L243.28,420.41 Z M243.97,425.55 L243.88,424.82 L240.64,431.98 L243.97,425.55 Z M267.46,473.93 L268.08,465.54 L266.77,480.94 L267.46,473.93 Z M297.47,499.51 L293.51,491.37 L298.18,501.99 L297.47,499.51 Z M298.63,517.19 L300.96,511.65 L296.69,520.77 L298.63,517.19 Z M303.99,532.83 L296.92,523.87 L302.82,531.93 L303.99,532.83 Z M315.45,536.33 L306.16,534.50 L307.39,535.43 L315.45,536.33 Z M321.65,527.78 L323.44,531.52 L317.16,530.71 L324.29,531.77 L321.65,527.78 Z M312.58,513.28 L316.46,519.31 L315.38,516.78 L312.58,513.28 Z M342.96,527.04 L339.87,524.76 L341.81,526.96 L342.96,527.04 Z M350.42,513.69 L343.70,527.09 L344.29,527.13 L350.42,513.69 Z M341.19,529.81 L345.07,528.51 L331.42,532.75 L341.19,529.81 Z M342.97,536.57 L344.12,537.43 L342.33,534.22 L342.35,534.29 L342.97,536.57 Z M353.03,528.83 L352.04,531.04 L353.13,529.41 L353.03,528.83 Z M357.47,511.89 L356.73,516.62 L357.39,514.66 L357.47,511.89 Z M392.78,525.76 L392.37,525.51 L389.52,530.36 L392.67,525.82 L392.78,525.76 Z M299.16,505.39 L299.15,505.36 L290.88,509.86 L295.92,507.49 L299.16,505.39 Z M345.07,545.54 L345.38,538.37 L345.22,541.95 L343.83,548.06 L345.07,545.54 Z M265.99,512.38 L264.39,512.79 L268.24,512.79 L265.99,512.38 Z M267.15,541.22 L267.71,540.96 L267.01,540.63 L267.15,541.22 Z M264.05,542.85 L266.38,541.87 L267.15,541.22 L264.05,542.85 Z M275.37,544.64 L278.94,544.23 L277.16,542.85 L278.47,544.15 L275.37,544.64 Z M286.75,547.63 L288.86,548.47 L286.56,546.67 L286.75,547.63 Z M284.60,553.84 L284.50,554.06 L287.31,550.34 L284.60,553.84 Z M278.09,549.45 L274.67,547.25 L284.60,553.84 L278.09,549.45 Z M278.94,566.80 L281.13,567.24 L277.00,565.00 L278.94,566.80 Z M288.08,568.64 L287.95,568.29 L285.36,568.09 L288.08,568.64 Z M284.52,571.77 L288.40,569.48 L288.23,569.04 L284.52,571.77 Z M285.67,575.13 L280.10,576.90 L285.22,575.35 L286.61,577.87 L285.67,575.13 Z M279.79,589.85 L278.47,589.69 L281.88,590.91 L280.32,589.89 L279.79,589.85 Z M276.77,594.41 L277.31,593.60 L278.47,589.69 L276.77,594.41 Z M283.20,596.69 L283.41,596.85 L280.80,594.74 L283.20,596.69 Z M283.52,596.94 L284.99,598.08 L291.03,597.10 L286.85,597.75 L283.52,596.94 Z M287.00,599.30 L290.72,601.50 L284.99,598.08 L287.00,599.30 Z M286.30,601.58 L282.58,599.87 L280.49,599.05 L286.61,601.82 L287.00,599.30 L286.30,601.58 Z M278.78,597.34 L273.67,595.47 L273.67,595.47 L278.86,597.59 L279.56,598.48 L277.93,598.08 L280.49,599.05 L278.78,597.34 Z M298.86,604.27 L296.77,602.23 L291.26,596.85 L291.03,597.10 L298.86,604.27 Z M289.79,595.80 L288.09,594.74 L287.98,594.67 L291.26,596.85 L289.79,595.80 Z M283.82,602.80 L285.95,604.06 L285.61,603.78 L283.82,602.80 Z M283.59,603.94 L287.47,606.14 L290.95,608.10 L283.51,603.86 L277.54,600.52 L276.36,599.86 L277.78,600.68 L283.59,603.94 Z M294.99,610.38 L296.98,611.51 L296.98,611.51 L293.75,609.64 L290.95,608.10 L294.99,610.38 Z M275.37,608.10 L277.16,609.07 L277.85,608.50 L275.37,608.10 Z M280.10,617.95 L280.18,616.08 L284.83,613.39 L279.71,616.32 L280.41,619.50 L281.11,622.67 L281.11,622.67 L280.10,617.95 Z M281.96,618.32 L281.81,617.54 L280.10,617.95 L281.96,618.32 Z M285.37,616.32 L282.83,618.49 L283.82,618.69 L283.74,618.85 L285.37,616.32 Z M291.03,618.20 L288.71,617.38 L285.37,616.32 L291.03,618.20 Z M286.92,620.80 L284.37,621.94 L285.84,621.54 L291.03,618.20 L286.92,620.80 Z M293.20,615.75 L293.80,615.08 L293.05,615.92 L291.03,618.20 L293.20,615.75 Z M291.34,614.45 L289.79,616.16 L288.71,617.38 L291.34,614.45 Z M286.75,614.50 L286.46,614.78 L285.37,616.32 L286.75,614.50 Z M279.10,625.85 L279.10,625.85 L286.46,624.14 L279.10,625.85 Z M279.48,628.70 L279.33,627.48 L279.24,626.87 L279.48,628.70 Z M283.59,628.38 L287.31,627.32 L279.48,628.70 L283.59,628.38 Z M286.30,631.64 L287.62,629.27 L287.31,627.32 L286.30,631.64 Z M286.96,633.08 L286.96,633.08 L286.30,631.64 L286.96,633.08 Z M284.68,631.72 L279.71,630.66 L279.53,630.70 L281.42,631.07 L284.68,631.72 Z M276.38,633.35 L281.34,631.56 L281.19,633.76 L281.42,631.07 L276.38,633.35 Z M275.14,636.52 L274.07,636.90 L281.11,635.47 L283.29,634.58 L278.01,636.04 L275.53,636.44 L276.38,633.35 L275.14,636.52 Z M274.60,631.80 L274.21,633.76 L275.14,636.52 L274.60,631.80 Z M273.43,629.11 L273.59,630.17 L274.60,631.80 L273.43,629.11 Z M269.07,629.73 L269.09,629.85 L273.59,630.17 L269.07,629.73 Z M279.02,645.32 L284.75,641.01 L283.28,641.98 L279.02,645.32 Z M295.62,661.75 L298.01,662.75 L296.61,661.61 L295.62,661.75 Z M287.16,663.57 L284.52,668.13 L287.85,663.52 L287.16,663.57 Z M286.54,681.49 L286.38,680.19 L284.52,677.66 L286.54,681.49 Z M290.88,689.72 L289.40,685.73 L288.21,684.65 L290.88,689.72 Z M288.78,697.29 L288.86,700.39 L288.91,696.85 L288.78,697.29 Z M241.11,498.21 L244.52,496.74 L228.08,503.01 L241.11,498.21 Z M246.92,527.13 L249.32,523.87 L242.73,532.01 L246.92,527.13 Z M239.32,532.75 L233.66,522.40 L236.07,527.37 L239.71,535.11 L241.57,542.03 L239.32,532.75 Z M248.06,547.13 L246.84,545.37 L241.57,542.03 L248.06,547.13 Z M244.44,611.35 L242.27,602.64 L241.18,599.71 L238.32,592.70 L244.44,611.35 Z M245.57,616.57 L250.56,617.06 L252.42,616.65 L245.57,616.57 L245.57,616.57 Z M260.02,623.82 L265.91,624.22 L263.28,623.98 L264.36,618.62 L263.74,618.28 L262.50,617.79 L256.84,615.26 L255.57,614.86 L260.57,617.06 L259.94,623.41 L260.18,627.23 L260.18,627.23 L260.02,623.82 Z M271.96,620.80 L267.15,623.49 L267.08,627.97 L267.31,625.61 L267.46,624.14 L267.62,623.25 L271.96,620.80 Z M268.40,615.43 L264.98,610.54 L259.94,601.50 L259.58,602.56 L260.33,602.31 L264.67,610.21 L265.76,611.84 L268.01,615.26 L269.64,617.30 L271.96,620.80 L268.40,615.43 Z M266.38,607.04 L267.23,602.48 L264.98,610.54 L266.38,607.04 Z M263.74,599.79 L261.34,600.85 L259.94,601.50 L263.74,599.79 Z M261.81,596.69 L263.28,592.55 L263.28,592.55 L260.88,598.89 L261.34,600.85 L261.81,596.69 Z M256.15,588.55 L255.45,586.92 L257.13,593.60 L257.46,593.60 L259.63,600.52 L250.24,599.61 L256.09,601.00 L256.22,600.52 L259.94,601.50 L256.15,588.55 Z M253.12,587.16 L251.50,587.77 L255.45,586.92 L253.12,587.16 Z M260.64,627.24 L260.32,627.24 L261.19,627.32 L266.30,627.89 L266.84,629.52 L267.08,627.97 L260.64,627.24 Z M264.98,632.45 L264.67,629.68 L264.52,631.07 L264.98,632.45 Z M258.70,633.43 L260.88,633.10 L264.98,632.45 L258.70,633.43 Z M258.55,631.39 L258.38,633.77 L258.70,633.43 L258.55,631.39 Z M256.84,626.91 L256.39,627.02 L258.55,631.39 L256.84,626.91 Z M255.06,624.39 L254.21,623.41 L256.84,626.91 L255.06,624.39 Z M255.37,620.56 L254.03,623.38 L254.21,623.41 L255.37,620.56 Z M265.37,634.08 L266.07,636.52 L264.98,632.45 L265.37,634.08 Z M268.86,638.72 L267.93,637.01 L267.19,635.84 L267.18,635.84 L268.86,638.72 Z M261.81,643.29 L260.98,643.94 L269.59,638.47 L268.86,638.72 L261.81,643.29 Z M278.71,643.61 L271.19,645.24 L266.07,646.79 L278.71,643.61 Z M262.97,647.77 L261.56,648.75 L266.20,648.14 L266.20,648.06 L262.97,647.77 Z M260.41,648.91 L261.07,648.82 L258.86,648.09 L260.41,648.91 Z M246.47,677.48 L247.93,676.60 L246.07,677.17 L246.47,677.48 Z M253.74,687.68 L250.10,684.83 L254.25,688.83 L253.74,687.68 Z M228.62,489.82 L214.90,485.17 L213.35,484.69 L228.62,489.82 Z M213.43,487.29 L215.60,492.59 L213.35,484.69 L213.43,487.29 Z M206.38,492.51 L199.94,493.08 L199.12,493.73 L215.60,492.59 L206.38,492.51 Z M121.10,440.94 L123.81,436.14 L122.49,437.68 L121.10,440.94 Z M127.84,433.45 L129.37,434.01 L127.53,432.39 L127.84,433.45 Z M132.77,435.26 L133.32,435.46 L133.19,435.24 L132.77,435.26 Z M145.67,419.76 L138.15,421.23 L142.18,420.82 L146.68,420.27 L145.67,419.76 Z M133.60,413.99 L134.12,416.18 L138.15,421.23 L133.60,413.99 Z M173.23,462.18 L173.23,462.18 L180.33,458.37 L173.23,462.18 Z M185.60,445.91 L198.47,451.21 L185.57,445.88 L185.60,445.91 Z M207.42,435.57 L210.25,442.33 L212.73,445.02 L209.48,440.37 L207.42,435.57 Z M223.20,441.35 L222.35,446.81 L223.66,441.27 L209.48,440.37 L223.20,441.35 Z M246.83,625.58 L246.69,625.85 L245.60,634.73 L255.88,627.14 L254.44,627.48 L246.15,634.24 L246.83,625.58 Z M246.48,662.03 L246.48,662.03 L254.44,644.26 L257.72,641.95 L254.36,644.18 L246.48,662.03 Z M254.44,638.09 L254.36,638.15 L254.36,644.18 L254.44,638.09 Z M233.97,666.90 L231.11,667.97 L225.99,670.00 L233.97,666.90 Z M230.64,662.67 L229.87,659.25 L231.11,667.97 L230.64,662.67 Z M225.57,670.18 L221.57,684.26 L225.99,670.00 L225.57,670.18 Z M222.81,567.37 L223.97,565.74 L213.74,577.22 L222.81,567.37 Z M224.28,598.24 L230.25,568.59 L222.63,606.18 L224.28,598.24 Z M195.75,643.37 L180.17,635.06 L194.75,643.12 L195.75,643.37 Z M225.91,636.12 L222.42,630.25 L229.71,642.63 L225.91,636.12 Z M228.48,652.58 L229.17,648.42 L229.71,642.63 L228.48,652.58 Z M232.27,624.96 L232.23,625.22 L232.49,624.90 L232.27,624.96 Z M237.88,640.57 L240.02,636.20 L237.70,639.38 L237.88,640.57 Z M237.83,642.37 L237.23,641.90 L237.53,641.29 L230.96,648.69 L231.34,648.74 L237.83,642.37 Z M204.13,615.59 L207.38,615.83 L208.04,615.19 L204.13,615.59 Z M218.55,607.93 L218.58,607.56 L216.22,610.38 L218.55,607.93 Z M215.28,519.05 L215.76,518.82 L221.03,526.64 L215.65,518.66 L215.28,519.05 Z M226.53,521.99 L222.97,523.22 L226.91,522.02 L226.53,521.99 Z M209.63,540.16 L210.21,540.70 L209.94,536.74 L209.10,536.08 L209.63,540.16 Z M211.33,541.76 L212.58,542.93 L213.99,542.69 L211.33,541.76 Z M226.48,542.84 L223.43,548.06 L226.73,542.95 L226.48,542.84 Z M178.08,583.58 L185.06,553.52 L184.75,554.82 L178.08,583.58 Z M226.15,514.70 L226.14,514.58 L223.59,514.26 L226.15,514.70 Z M187.46,407.87 L169.09,417.56 L162.19,421.23 L187.46,407.87 Z M122.87,388.53 L119.45,386.17 L120.56,387.59 L122.87,388.53 Z M174.75,429.54 L180.09,430.76 L181.32,430.58 L174.75,429.54 Z M195.21,426.04 L201.78,422.42 L201.58,421.95 L195.21,426.04 Z M122.32,417.34 L121.33,420.58 L122.57,418.05 L122.32,417.34 Z M108.54,411.45 L107.42,410.81 L109.62,414.55 L108.54,411.45 Z M186.09,391.00 L187.04,391.67 L187.92,391.42 L186.09,391.00 Z M114.58,374.16 L112.96,365.44 L113.04,367.96 L114.58,374.16 Z M255.35,718.24 L256.61,717.74 L257.39,716.76 L255.35,718.24 Z M249.01,661.04 L251.88,658.03 L246.89,661.87 L249.01,661.04 Z M258.20,646.14 L257.08,647.03 L251.88,658.03 L258.20,646.14 Z M259.63,605.90 L259.24,603.58 L258.78,604.92 L259.63,605.90 Z M254.84,605.39 L254.84,605.39 L254.29,605.73 L254.84,605.39 Z M251.03,596.04 L250.45,595.90 L250.43,596.92 L251.03,596.04 Z M268.47,588.79 L269.44,589.81 L269.48,588.90 L268.47,588.79 Z M268.08,595.23 L264.36,596.61 L269.09,595.80 L268.08,595.23 Z M260.64,567.04 L254.05,563.62 L252.81,563.13 L260.64,567.04 Z M262.10,552.39 L262.10,552.39 L265.22,554.41 L262.10,552.39 Z M272.04,555.31 L272.89,560.36 L271.81,551.16 L272.04,555.31 Z M256.22,532.58 L251.73,541.06 L257.39,531.52 L256.22,532.58 Z M259.71,549.69 L262.58,545.62 L261.03,547.49 L259.71,549.69 Z M261.19,513.60 L260.57,514.83 L263.79,512.94 L261.19,513.60 Z M269.40,631.72 L270.33,633.92 L269.16,630.30 L269.40,631.72 Z M269.76,602.81 L270.57,605.90 L271.03,607.61 L268.94,610.05 L271.19,608.10 L269.76,602.81 Z M272.89,627.08 L279.08,625.78 L279.08,625.78 L272.40,627.15 L272.89,627.08 Z M273.74,590.99 L275.06,593.03 L275.06,593.03 L275.41,592.87 L273.74,590.99 Z M295.99,552.30 L295.40,552.18 L296.08,553.16 L295.99,552.30 Z M296.61,558.41 L291.34,562.72 L287.96,564.78 L287.96,564.78 L293.13,561.91 L296.61,558.41 Z M299.17,565.00 L299.92,565.05 L296.61,558.41 L299.17,565.00 Z M296.69,572.99 L294.75,570.30 L294.56,570.35 L296.69,572.99 Z M296.08,573.71 L300.05,572.14 L296.69,572.99 L296.08,573.71 Z M297.08,577.87 L297.53,577.51 L296.87,577.71 L297.08,577.87 Z M295.84,587.00 L293.20,587.32 L298.16,587.32 L299.40,587.49 L295.84,587.00 Z M298.92,592.18 L294.60,590.66 L298.92,592.18 L298.92,592.18 Z M299.02,599.87 L294.22,594.97 L294.44,596.12 L299.02,599.87 Z M286.96,590.42 L287.85,590.50 L289.95,590.66 L286.96,590.42 Z M291.19,593.35 L291.81,593.84 L292.22,592.78 L291.19,593.35 Z M287.70,564.23 L286.23,558.57 L286.30,561.34 L287.70,564.23 Z M294.06,576.08 L291.19,581.54 L289.79,584.23 L291.42,581.21 L294.28,575.82 L294.06,576.08 Z M292.43,573.48 L291.26,571.28 L289.71,568.43 L292.43,573.48 Z M298.09,619.17 L299.51,618.62 L300.80,617.06 L302.51,615.10 L303.82,613.55 L298.09,619.17 Z M306.07,613.63 L303.59,613.06 L297.39,615.75 L303.82,613.55 L306.07,613.63 Z M305.44,618.77 L306.15,618.20 L306.89,617.36 L304.37,618.77 L305.44,618.77 Z M309.10,620.48 L311.03,621.78 L313.90,623.57 L309.87,620.97 L306.15,618.20 L309.10,620.48 Z M307.86,621.94 L308.19,622.15 L309.10,620.48 L307.86,621.94 Z M312.97,617.30 L315.69,620.07 L311.58,613.96 L311.65,614.69 L312.97,617.30 Z M316.38,620.56 L322.27,623.17 L323.72,623.05 L315.69,620.07 L316.38,620.56 Z M319.95,627.89 L321.34,625.77 L322.27,623.17 L319.95,627.89 Z M316.07,628.70 L315.17,628.73 L317.55,628.70 L319.95,627.89 L316.07,628.70 Z M308.01,638.97 L316.77,640.19 L328.79,640.84 L317.55,640.19 L308.01,638.97 Z M308.63,634.81 L309.17,628.79 L309.10,628.79 L307.62,641.41 L308.01,638.97 L308.63,634.81 Z M310.34,624.22 L312.16,625.99 L310.49,623.57 L310.03,625.36 L309.17,628.79 L310.34,624.22 Z M306.92,628.79 L305.53,624.88 L303.05,620.97 L302.97,621.05 L299.56,623.98 L301.58,628.87 L300.97,628.90 L309.10,628.79 L306.92,628.79 Z M333.70,656.98 L333.52,654.36 L328.79,640.84 L333.70,656.98 Z M324.52,654.53 L320.47,652.16 L321.11,653.06 L324.52,654.53 Z M324.68,661.61 L323.05,658.68 L325.30,663.81 L324.68,661.61 Z M325.69,697.69 L326.31,698.51 L335.61,699.90 L327.70,697.94 L325.69,697.69 Z M335.85,700.90 L336.04,699.22 L335.61,699.90 L335.85,700.90 Z M317.39,700.80 L324.08,697.49 L323.13,697.37 L317.39,700.80 Z M294.75,629.27 L295.76,629.27 L296.39,629.18 L294.75,629.27 Z M289.72,632.01 L289.83,632.89 L292.74,630.25 L289.72,632.01 Z M306.21,621.12 L306.69,622.06 L306.85,619.99 L306.21,621.12 Z M327.03,540.19 L328.32,542.44 L328.09,540.48 L327.03,540.19 Z M311.58,562.56 L310.96,560.85 L312.27,569.16 L311.58,562.56 Z M316.23,573.07 L323.13,572.91 L315.45,572.74 L313.44,576.08 L316.23,573.07 Z M328.40,570.30 L329.29,569.03 L323.13,572.91 L328.40,570.30 Z M326.53,606.66 L326.55,606.66 L325.07,603.78 L336.31,598.32 L324.70,603.95 L326.53,606.66 Z M302.51,587.89 L304.21,587.81 L301.27,587.73 L302.51,587.89 Z M307.39,587.16 L314.06,587.73 L305.85,586.56 L304.21,587.81 L307.39,587.16 Z M314.06,588.79 L314.75,582.19 L314.13,585.45 L314.06,587.73 L314.06,588.79 Z M301.73,580.89 L301.58,577.30 L301.42,583.25 L301.27,587.73 L301.73,580.89 Z M305.61,595.47 L303.51,595.23 L304.75,591.89 L303.28,595.14 L302.12,595.23 L310.18,596.77 L305.61,595.47 Z M303.75,603.94 L302.76,605.05 L310.18,596.77 L303.75,603.94 Z M303.81,584.51 L304.91,586.43 L304.29,584.55 L311.19,583.33 L303.81,584.51 Z M304.21,575.10 L305.84,576.00 L306.43,575.72 L304.21,575.10 Z M308.31,576.23 L308.87,577.00 L308.94,576.41 L308.31,576.23 Z M301.58,564.68 L302.23,563.94 L300.78,565.09 L305.06,565.33 L301.58,564.68 Z M305.82,567.23 L305.92,567.04 L305.06,565.33 L305.82,567.23 Z M317.93,546.59 L319.25,544.39 L316.07,548.06 L317.93,546.59 Z M344.99,768.57 L351.24,768.09 L350.18,767.75 L344.99,768.57 Z M355.15,769.33 L356.69,770.09 L356.08,769.63 L355.15,769.33 Z M360.51,771.97 L361.89,772.64 L366.62,771.42 L360.51,771.97 Z M388.11,748.18 L388.48,748.86 L391.74,749.18 L388.11,748.18 Z M406.91,746.42 L407.78,745.84 L408.33,744.05 L406.91,746.42 Z M423.68,839.52 L432.28,837.24 L437.17,835.85 L437.68,834.97 L423.68,839.52 Z M434.38,826.57 L434.69,827.95 L436.53,828.90 L434.38,826.57 Z M439.87,816.02 L431.43,806.61 L439.10,815.73 L439.87,816.02 Z M499.10,835.34 L498.18,824.45 L497.65,823.13 L499.10,835.34 Z M499.19,848.81 L500.04,846.44 L499.96,845.54 L499.19,848.81 Z M498.64,873.81 L499.98,875.96 L496.71,863.79 L498.64,873.81 Z M416.76,830.49 L415.61,830.40 L412.37,833.35 L416.76,830.49 Z M419.96,832.27 L418.48,830.64 L417.62,830.57 L419.96,832.27 Z M487.88,754.56 L487.65,757.98 L488.41,756.11 L487.88,754.56 Z M408.05,751.49 L407.86,752.28 L409.33,753.09 L408.05,751.49 Z M358.56,699.33 L361.66,696.97 L356.00,699.74 L358.56,699.33 Z M360.25,572.52 L360.25,572.52 L359.25,573.80 L360.25,572.52 Z M364.31,581.51 L362.82,576.41 L361.68,574.69 L364.31,581.51 Z M382.05,572.82 L373.13,578.04 L374.91,577.71 L382.05,572.82 Z M384.84,576.08 L385.03,573.02 L384.99,573.15 L384.84,576.08 Z M387.63,567.94 L386.08,569.24 L385.78,570.30 L387.63,567.94 Z M409.80,572.99 L410.66,567.11 L410.42,567.86 L409.80,572.99 Z M411.74,563.78 L411.57,564.31 L412.97,563.76 L410.81,563.05 L411.74,563.78 Z M418.17,564.60 L423.91,560.69 L417.41,564.42 L418.17,564.60 Z M361.73,606.55 L360.42,604.59 L361.81,609.48 L361.73,606.55 Z M338.71,608.91 L345.45,616.00 L342.20,611.44 L338.71,608.91 Z M352.28,604.59 L356.31,604.59 L347.94,604.10 L352.28,604.59 Z M417.36,605.01 L416.45,605.55 L417.09,605.90 L417.36,605.01 Z M417.40,575.43 L417.03,575.06 L416.52,576.52 L417.40,575.43 Z M337.00,551.97 L335.69,553.19 L335.77,554.66 L337.00,551.97 Z M348.01,548.31 L346.38,550.34 L346.38,552.13 L348.01,548.31 Z M350.73,548.71 L351.83,548.66 L348.01,548.31 L350.73,548.71 Z M358.46,549.27 L362.59,549.93 L362.41,548.97 L362.12,549.61 L358.46,549.27 Z M357.39,559.06 L356.65,560.47 L358.79,556.61 L362.59,549.93 L357.39,559.06 Z M364.60,557.84 L360.48,558.56 L360.48,558.56 L364.60,557.84 Z M373.67,546.92 L372.12,553.36 L374.49,546.83 L373.67,546.92 Z M378.09,546.43 L376.52,546.61 L378.63,546.71 L378.09,546.43 Z M386.85,550.75 L385.84,548.88 L386.85,551.30 L386.85,550.75 Z M336.15,561.09 L342.33,563.26 L341.97,562.72 L336.15,561.09 Z M412.96,559.25 L412.70,559.87 L413.13,559.38 L412.96,559.25 Z M411.82,560.87 L411.35,560.61 L411.55,561.18 L411.82,560.87 Z M348.25,545.05 L348.19,545.78 L352.43,540.40 L348.25,545.05 Z M389.32,530.65 L385.15,535.35 L388.71,531.52 L389.32,530.65 Z M290.33,489.41 L291.26,484.20 L291.22,484.16 L290.33,489.41 Z M297.79,157.62 L297.79,157.62 L301.50,155.02 L297.79,157.62 Z M297.31,159.10 L297.72,159.63 L297.78,157.67 L297.31,159.10 Z M308.11,172.30 L306.92,172.13 L305.45,173.11 L308.11,172.30 Z M311.65,174.25 L310.34,172.62 L309.50,172.50 L311.65,174.25 Z M327.16,178.08 L324.52,177.10 L319.95,176.28 L327.16,178.08 Z M332.90,204.79 L338.48,207.16 L334.76,205.36 L332.90,204.79 Z M292.20,312.16 L292.43,305.15 L291.34,300.67 L292.20,312.16 Z M296.30,322.42 L297.50,324.26 L292.20,312.16 L296.30,322.42 Z M300.19,332.22 L300.26,330.57 L299.27,328.31 L300.19,332.22 Z M299.72,340.26 L299.72,343.84 L299.91,339.16 L299.72,340.26 Z M304.83,350.12 L315.76,361.93 L304.61,349.36 L304.83,350.12 Z M301.03,374.64 L301.62,375.06 L301.39,373.18 L301.03,374.64 Z M303.20,376.20 L303.51,376.43 L311.46,378.04 L309.79,377.00 L303.20,376.20 Z M306.92,449.25 L306.15,444.93 L305.05,442.75 L306.92,449.25 Z M296.85,456.75 L305.84,450.80 L306.92,449.25 L296.85,456.75 Z M306.54,463.18 L304.06,465.46 L302.35,470.19 L304.13,466.60 L306.54,463.18 Z M307.47,478.66 L301.81,476.13 L307.93,479.64 L310.49,479.47 L307.47,478.66 Z M284.85,424.19 L293.75,431.41 L290.72,427.99 L284.85,424.19 Z M265.54,159.94 L263.65,156.59 L263.74,158.12 L265.54,159.94 Z M287.39,220.76 L289.40,171.80 L288.16,197.87 L287.39,220.76 Z M260.10,233.39 L260.57,222.39 L259.56,239.17 L260.10,233.39 Z M255.84,281.85 L256.38,280.22 L254.45,282.56 L255.84,281.85 Z M244.36,290.24 L246.46,289.51 L246.00,290.71 L249.64,286.85 L244.36,290.24 Z M244.98,296.35 L243.82,296.52 L245.16,297.45 L244.98,296.35 Z M247.08,324.38 L254.75,325.19 L244.28,323.89 L247.08,324.38 Z M256.77,329.91 L249.25,330.89 L253.98,330.73 L256.77,329.91 Z M271.26,353.54 L273.12,352.48 L249.32,365.02 L271.26,353.54 Z M239.67,386.10 L246.46,383.11 L239.87,385.55 L238.78,382.37 L239.67,386.10 Z M252.81,408.20 L257.46,416.75 L249.94,402.09 L242.73,391.90 L252.81,408.20 Z M79.86,217.50 L79.70,216.69 L78.77,213.10 L79.86,217.50 Z M129.86,163.09 L129.47,161.13 L125.05,159.18 L129.63,162.03 L129.26,162.40 L129.86,163.09 Z M127.30,167.16 L126.99,167.65 L128.00,171.72 L127.30,167.16 Z M132.73,192.09 L133.58,200.15 L133.50,196.48 L132.73,192.09 Z M254.91,240.64 L251.42,253.83 L251.78,253.69 L254.91,240.64 Z M257.00,251.71 L259.01,248.86 L261.19,242.10 L257.00,251.71 Z M166.68,308.16 L162.26,309.55 L184.36,302.81 L184.36,302.81 L166.68,308.16 Z M184.36,292.44 L184.05,291.38 L185.52,296.60 L184.36,292.44 Z M207.22,301.72 L205.45,303.77 L209.05,302.69 L207.38,302.54 L207.22,301.72 Z M212.11,303.20 L217.62,303.44 L211.90,302.94 L212.11,303.20 Z M220.41,321.04 L221.65,314.76 L221.51,313.33 L220.41,321.04 Z M218.96,322.51 L223.12,324.95 L218.96,322.51 L218.96,322.51 Z M216.84,294.15 L216.94,294.53 L217.31,291.22 L216.84,294.15 Z M219.31,271.57 L219.24,277.86 L219.71,273.71 L219.31,271.57 Z M218.32,294.33 L219.17,291.14 L217.93,293.67 L218.32,294.33 Z M121.76,241.93 L114.43,239.90 L121.76,241.93 L121.76,241.93 Z M59.23,161.62 L53.55,162.43 L53.55,162.43 L59.23,161.62 Z M175.21,114.29 L171.57,114.62 L170.52,115.64 L175.21,114.29 Z M179.94,166.18 L178.32,169.79 L178.62,169.77 L179.94,166.18 Z M186.68,161.21 L187.31,159.94 L179.94,166.18 L186.68,161.21 Z M188.51,157.51 L188.78,156.98 L187.92,153.56 L188.51,157.51 Z M99.20,84.00 L98.46,83.83 L98.39,85.08 L99.20,84.00 Z M62.95,141.50 L54.04,160.24 L53.60,162.20 L62.95,141.50 Z M120.71,67.94 L149.24,94.25 L132.88,78.86 L120.71,67.94 Z M160.09,41.22 L160.63,40.13 L140.63,65.99 L160.09,41.22 Z M273.63,417.79 L279.48,422.61 L273.63,417.79 L273.63,417.79 Z M275.91,463.02 L277.74,459.55 L272.89,466.03 L275.91,463.02 Z M280.57,444.45 L283.12,449.33 L279.02,440.05 L280.57,444.45 Z M265.91,407.46 L262.74,421.23 L263.05,422.94 L265.91,407.46 Z M267.54,376.59 L268.13,377.69 L268.01,372.11 L267.54,376.59 Z M269.25,379.77 L276.91,380.64 L268.89,379.09 L269.25,379.77 Z M290.14,243.77 L292.76,240.34 L290.33,238.11 L292.35,240.47 L290.14,243.77 Z M325.41,274.00 L321.96,261.41 L324.76,273.71 L325.41,274.00 Z M401.43,253.59 L401.12,246.66 L400.96,250.98 L401.43,253.59 Z M334.37,329.75 L334.07,329.57 L332.66,331.79 L334.37,329.75 Z M334.52,338.55 L334.60,334.72 L334.20,338.87 L334.52,338.55 Z M352.12,371.78 L362.90,349.30 L360.42,354.35 L352.12,371.78 Z M346.15,371.87 L354.14,371.78 L352.12,371.78 L346.15,371.87 Z M370.80,390.09 L369.56,391.58 L369.41,394.67 L370.80,390.09 Z M349.95,414.14 L350.90,411.96 L347.95,415.09 L349.95,414.14 Z M346.54,416.59 L344.45,416.42 L346.56,417.21 L346.71,416.41 L346.54,416.59 Z M351.89,451.69 L348.56,452.51 L347.91,453.25 L351.82,452.12 L351.89,451.69 Z M336.85,501.47 L337.86,483.06 L337.62,486.64 L336.85,501.47 Z M358.79,507.98 L361.36,505.41 L361.19,505.21 L358.79,507.98 Z M310.84,422.06 L310.58,421.22 L310.49,421.72 L310.84,422.06 Z M309.02,403.47 L313.42,401.25 L312.51,401.52 L309.02,403.47 Z M333.67,401.84 L336.31,408.60 L332.82,398.67 L333.67,401.84 Z M343.75,414.71 L344.91,415.20 L343.19,414.34 L343.36,415.50 L343.75,414.71 Z M312.42,480.82 L311.89,479.39 L311.50,479.76 L312.42,480.82 Z M323.90,474.01 L326.00,471.08 L322.35,475.07 L323.90,474.01 Z M309.48,517.51 L309.41,514.83 L311.96,515.48 L309.17,514.34 L309.48,517.51 Z M345.14,444.04 L344.06,445.75 L343.36,450.80 L345.14,444.04 Z M314.38,378.63 L314.75,378.71 L322.97,376.02 L314.38,378.63 Z M321.85,373.47 L321.81,373.90 L322.97,376.02 L321.85,373.47 Z M326.58,364.60 L322.12,370.24 L326.23,365.76 L326.58,364.60 Z M326.38,360.46 L326.96,363.35 L327.31,362.17 L326.38,360.46 Z M326.55,274.50 L327.16,274.77 L329.10,272.97 L326.55,274.50 Z M332.06,122.75 L332.34,123.07 L332.40,123.09 L336.85,122.60 L332.06,122.75 Z M330.18,129.44 L330.76,131.70 L330.46,127.97 L330.18,129.44 Z M331.52,122.76 L331.42,122.76 L331.32,123.32 L331.50,122.93 L331.50,122.85 L331.52,122.76 Z M376.00,506.27 L376.35,505.84 L374.53,506.11 L376.00,506.27 Z M375.77,504.87 L376.56,505.59 L377.01,505.05 L375.95,504.80 L375.77,504.87 Z M373.61,485.12 L372.28,484.60 L365.30,485.58 L373.61,485.12 Z M399.49,334.07 L400.03,319.16 L399.33,335.70 L401.27,343.84 L399.49,334.07 Z M411.04,356.31 L427.38,350.26 L424.53,350.69 L411.04,356.31 Z M428.18,350.15 L436.17,350.75 L429.49,349.95 L428.18,350.15 Z M446.78,351.17 L441.74,351.01 L441.13,351.12 L447.53,351.61 L446.78,351.17 Z M466.16,371.70 L464.61,374.22 L465.00,374.23 L466.16,371.70 Z M467.48,385.47 L469.01,387.35 L468.72,385.88 L467.48,385.47 Z M471.09,389.92 L471.89,390.91 L471.97,390.36 L471.09,389.92 Z M373.60,382.70 L373.34,383.55 L375.92,382.13 L373.60,382.70 Z M378.01,383.51 L378.21,383.19 L375.92,382.13 L378.01,383.51 Z M409.96,255.62 L413.06,253.18 L410.65,254.56 L409.96,255.62 Z M411.89,261.51 L411.97,260.51 L411.12,261.65 L411.82,261.24 L411.89,261.51 Z M410.11,268.01 L411.58,265.32 L411.66,264.34 L410.11,268.01 Z M417.32,292.44 L395.21,291.64 L395.54,295.13 L395.54,291.71 L417.32,292.44 Z M457.17,308.82 L457.40,305.23 L457.04,304.63 L457.17,308.82 Z M370.47,178.06 L370.50,175.14 L369.95,177.18 L370.47,178.06 Z M370.47,179.50 L369.95,179.79 L369.80,182.80 L370.43,184.72 L370.47,179.50 Z M372.90,190.42 L371.62,188.34 L372.05,189.64 L372.90,190.42 Z M397.01,217.18 L398.09,219.29 L393.44,224.43 L398.48,219.43 L397.01,217.18 Z M411.17,218.85 L410.54,219.22 L410.81,219.29 L411.17,218.85 Z M405.49,190.37 L405.54,190.78 L406.81,191.02 L405.49,190.37 Z M447.71,188.99 L445.15,190.46 L446.39,190.05 L447.71,188.99 Z M366.26,161.29 L366.23,161.13 L363.91,157.06 L366.26,161.29 Z M304.52,623.49 L306.92,628.79 L301.58,628.87 L303.44,626.83 L301.58,628.05 L299.56,623.98 L301.19,623.00 L302.97,621.05 L304.52,623.49 Z M303.75,625.56 L304.37,625.28 L304.52,623.49 L303.75,625.56 Z M302.91,625.93 L303.55,625.64 L301.19,623.00 L302.91,625.93 Z M263.74,618.28 L263.28,623.98 L261.73,623.90 L260.02,623.82 L260.57,617.06 L263.74,618.28 Z" /></g></svg>