<svg xmlns="http://www.w3.org/2000/svg" viewBox="0 0 1000 1000" width="1000" height="1000"><g fill="#cccccc" stroke="#222" stroke-width="2"><path d="M430.34,509.24 L428.21,509.67 L427.50,508.12 L430.05,507.95 L430.34,509.24 Z M544.52,461.46 L546.42,462.06 L547.54,465.07 L545.11,464.64 L544.52,461.46 Z M544.34,459.14 L544.82,460.60 L542.80,459.48 L543.51,458.88 L544.34,459.14 Z M540.90,451.83 L540.79,452.78 L540.55,452.43 L540.90,451.83 Z M545.53,444.87 L544.88,444.01 L545.23,442.81 L545.59,443.67 L545.53,444.87 Z M440.96,420.98 L442.50,418.06 L442.26,415.57 L443.80,417.72 L443.68,422.36 L440.96,420.98 Z M197.37,505.89 L191.62,497.46 L186.46,491.96 L183.32,491.19 L182.91,489.64 L188.95,477.10 L190.91,475.12 L189.90,470.14 L192.15,469.45 L191.74,467.30 L192.81,466.27 L191.68,465.07 L187.89,461.54 L187.06,456.22 L183.68,455.79 L182.67,458.11 L172.12,470.57 L165.54,472.54 L159.31,478.99 L154.21,480.28 L150.95,478.82 L147.75,471.86 L145.62,470.74 L142.06,472.11 L139.04,476.84 L135.18,481.39 L129.43,485.18 L123.92,489.30 L119.59,483.63 L120.07,475.29 L116.39,471.60 L114.50,470.74 L113.25,472.29 L113.49,478.13 L115.80,480.62 L117.28,484.66 L114.38,486.47 L108.69,486.81 L102.76,477.01 L100.15,477.44 L94.81,481.31 L93.21,485.09 L95.88,489.22 L103.82,490.93 L105.01,493.51 L101.22,493.77 L98.43,491.19 L97.54,492.48 L92.86,491.88 L90.37,484.92 L86.99,481.22 L80.71,476.58 L79.46,473.06 L78.27,465.67 L75.43,459.65 L71.46,455.44 L71.10,453.55 L75.01,453.12 L75.31,449.00 L73.35,438.00 L66.18,436.02 L62.15,430.61 L59.90,424.25 L61.44,424.08 L56.40,423.56 L57.23,421.67 L54.74,426.65 L51.72,424.85 L48.87,418.66 L50.18,416.26 L49.76,414.54 L47.39,414.71 L43.60,407.83 L40.81,409.47 L38.79,412.22 L32.69,406.89 L29.84,400.96 L29.43,396.40 L28.72,396.83 L26.40,392.97 L23.02,388.67 L27.23,385.92 L28.42,382.40 L28.18,378.87 L27.23,375.87 L22.91,370.11 L19.23,368.90 L19.41,366.24 L21.78,362.72 L22.31,357.73 L20.36,353.44 L24.03,350.86 L26.34,351.03 L29.37,343.64 L29.49,335.22 L30.32,333.67 L30.38,327.74 L32.51,323.44 L32.39,318.55 L30.61,315.71 L28.18,315.02 L26.70,307.98 L26.46,305.14 L29.43,302.91 L30.63,300.25 L30.20,298.87 L34.70,295.60 L46.03,289.33 L37.61,293.97 L36.84,288.55 L34.17,287.87 L33.52,284.43 L34.53,280.39 L36.23,280.97 L35.30,279.27 L36.01,273.00 L34.76,272.83 L34.82,270.77 L38.85,267.84 L39.68,264.75 L36.42,260.02 L34.76,260.54 L34.35,257.10 L33.58,258.73 L31.74,258.73 L29.37,257.02 L25.57,257.10 L24.21,249.80 L26.83,244.37 L24.63,241.03 L23.91,241.72 L24.09,240.60 L22.49,238.97 L21.60,239.57 L21.01,236.91 L22.31,233.47 L21.96,229.00 L23.26,227.88 L23.68,223.50 L27.35,221.78 L28.36,224.27 L30.14,225.39 L30.55,228.14 L32.15,227.71 L34.82,232.44 L38.62,233.04 L39.98,231.32 L45.08,233.64 L45.97,235.96 L42.23,243.95 L44.66,247.48 L44.07,248.85 L45.73,255.81 L46.68,260.63 L45.41,251.24 L44.96,251.00 L44.78,249.28 L46.44,247.31 L48.40,245.59 L48.99,244.13 L50.65,244.47 L51.01,242.92 L53.44,241.03 L55.75,241.12 L56.76,239.31 L59.19,240.86 L65.71,237.25 L69.74,236.22 L73.12,232.52 L76.56,231.58 L76.08,226.59 L81.48,227.71 L82.01,229.26 L83.85,226.77 L88.23,230.29 L89.30,229.34 L90.66,230.29 L90.19,233.73 L91.55,224.79 L93.45,226.34 L95.17,225.74 L98.49,229.09 L99.08,231.32 L100.74,231.24 L101.81,232.95 L103.77,233.38 L107.32,230.03 L106.85,221.87 L111.18,214.65 L115.92,210.09 L119.36,206.92 L120.60,204.08 L120.07,199.52 L118.59,192.99 L119.00,188.95 L127.30,177.70 L129.61,172.28 L125.58,163.09 L124.69,159.56 L124.57,147.71 L120.60,131.12 L120.96,124.85 L122.74,118.40 L126.41,114.19 L130.26,112.13 L133.70,106.20 L136.13,99.84 L136.90,91.25 L128.78,66.50 L128.96,61.94 L131.09,57.13 L137.97,57.73 L136.84,64.18 L139.99,67.10 L141.53,67.01 L142.30,72.68 L145.80,75.09 L147.40,74.57 L150.42,80.93 L151.19,78.61 L150.12,75.43 L150.54,73.46 L154.45,76.12 L156.47,74.40 L159.31,75.52 L162.87,73.54 L161.98,73.11 L161.51,69.25 L163.52,67.18 L164.41,68.39 L165.06,67.53 L164.65,64.69 L166.96,60.22 L167.31,55.93 L169.27,53.95 L174.07,54.03 L177.69,50.94 L178.70,48.45 L182.49,49.14 L183.50,47.16 L190.26,44.07 L192.57,32.04 L193.40,30.92 L196.07,30.92 L197.90,23.79 L201.34,24.13 L203.24,26.36 L205.43,26.36 L208.52,26.28 L211.00,24.13 L213.67,24.82 L215.63,22.93 L217.23,25.85 L221.97,28.68 L226.66,24.90 L230.63,26.62 L234.42,26.36 L235.37,19.23 L237.38,26.97 L241.18,27.48 L243.02,30.06 L242.13,39.34 L240.94,41.40 L242.25,50.08 L234.24,52.66 L238.63,51.80 L240.05,64.18 L237.68,65.21 L235.78,68.04 L236.08,69.59 L234.12,74.14 L235.49,79.90 L231.99,84.89 L229.86,97.35 L232.23,98.29 L232.46,105.60 L230.75,108.26 L232.70,110.75 L232.29,112.30 L231.10,112.21 L231.46,114.28 L229.97,114.10 L228.55,117.03 L225.88,117.80 L226.71,118.49 L225.71,121.06 L221.68,121.58 L219.24,123.99 L217.82,123.56 L216.93,120.29 L215.75,122.10 L210.00,121.49 L209.76,122.96 L208.69,121.84 L207.09,123.04 L205.85,118.06 L207.69,126.56 L207.69,128.54 L205.79,130.35 L208.28,136.28 L212.07,139.88 L212.25,142.89 L209.64,145.90 L208.57,151.31 L206.74,155.01 L210.12,158.28 L210.89,163.00 L215.15,163.09 L215.51,166.70 L214.24,166.42 L215.81,166.87 L224.76,164.55 L227.31,163.09 L234.36,164.55 L241.06,170.74 L241.77,173.49 L244.20,174.35 L252.21,171.42 L251.79,175.55 L253.63,176.84 L250.78,182.77 L252.50,182.51 L253.87,181.56 L255.94,183.45 L256.71,179.59 L258.37,181.31 L261.87,181.82 L264.12,178.13 L269.16,175.98 L274.26,177.61 L278.29,174.35 L281.02,176.75 L282.50,177.27 L285.82,173.83 L287.71,174.52 L298.92,188.01 L302.53,189.81 L306.51,197.29 L306.74,202.88 L307.93,205.28 L310.48,205.88 L315.10,212.50 L322.33,212.84 L325.18,211.21 L329.09,206.31 L332.65,206.57 L345.34,213.45 L352.15,218.26 L365.61,223.67 L374.50,225.74 L384.34,223.76 L388.55,225.05 L394.12,229.95 L399.40,240.52 L401.24,247.65 L401.42,271.97 L402.78,293.88 L402.60,297.15 L400.64,304.28 L396.91,311.76 L393.00,319.15 L391.69,326.88 L394.48,339.69 L401.30,355.07 L408.35,363.92 L413.03,367.27 L424.65,368.05 L429.63,369.85 L434.32,374.75 L439.36,384.46 L461.53,366.93 L463.36,365.72 L464.49,369.51 L463.07,371.74 L463.96,371.14 L463.90,372.60 L464.13,370.71 L468.34,374.49 L470.00,378.53 L473.98,381.79 L476.23,386.69 L481.56,390.30 L481.09,394.17 L470.77,400.44 L468.40,400.44 L466.80,398.38 L465.74,399.15 L455.12,403.19 L452.28,402.59 L433.19,402.33 L406.22,399.07 L401.95,398.64 L399.76,402.16 L397.92,407.92 L398.04,412.82 L396.61,415.31 L396.55,416.68 L403.25,421.33 L405.45,433.70 L408.17,441.09 L411.49,452.35 L413.45,459.22 L415.17,461.54 L417.96,462.57 L420.50,461.37 L420.80,463.43 L419.20,466.10 L418.67,469.88 L414.64,478.99 L416.06,483.63 L418.67,484.57 L417.18,490.50 L417.42,494.11 L420.86,494.71 L422.22,497.89 L423.82,498.93 L424.95,501.59 L424.42,502.45 L422.70,503.57 L421.16,502.79 L420.33,500.56 L422.05,500.30 L421.93,498.84 L419.61,496.52 L417.36,496.35 L415.17,491.62 L416.00,488.18 L415.52,486.04 L410.78,483.97 L411.85,481.39 L410.90,479.42 L407.34,477.70 L405.09,478.30 L403.79,476.41 L404.26,473.83 L401.89,472.54 L399.98,468.09 L385.94,476.93 L380.02,482.60 L379.96,481.39 L379.60,483.54 L371.30,491.96 L365.08,493.08 L364.90,498.41 L365.43,512.42 L359.44,529.43 L354.64,538.63 L342.73,549.03 L334.72,555.99 L326.31,545.76 L321.80,542.93 L312.85,545.07 L308.17,543.35 L305.08,539.83 L301.97,532.25 L302.00,532.61 L296.19,536.31 L292.93,542.75 L285.88,547.31 L281.19,549.54 L278.41,545.16 L276.69,543.70 L270.82,542.93 L266.73,547.05 L266.67,545.25 L266.67,554.18 L265.60,559.42 L259.56,564.07 L253.45,564.58 L252.56,559.34 L251.14,556.85 L247.58,554.44 L243.02,553.32 L238.04,552.29 L235.13,559.85 L230.51,567.76 L225.05,568.19 L223.63,559.60 L221.17,552.83 L220.79,553.58 L212.66,549.71 L212.49,546.88 L215.15,538.71 L215.27,533.04 L208.46,521.61 L212.31,519.38 L208.99,521.18 L206.14,514.57 L198.32,504.86 L197.37,505.89 Z M190.40,450.82 L188.86,450.62 L189.49,451.49 L187.06,456.22 L190.40,450.82 Z M44.78,285.89 L43.88,285.20 L46.03,289.33 L44.78,285.89 Z M68.46,246.16 L68.32,243.95 L65.71,237.25 L68.46,246.16 Z M241.30,184.49 L241.53,185.74 L241.77,173.49 L241.30,184.49 Z M396.16,381.86 L398.10,386.18 L406.22,399.07 L396.16,381.86 Z M385.94,416.94 L390.69,416.60 L396.61,415.31 L385.94,416.94 Z M227.96,544.56 L229.38,548.77 L235.13,559.85 L227.96,544.56 Z M196.72,451.66 L202.35,457.42 L199.68,453.81 L196.72,451.66 Z M213.97,454.84 L213.08,459.14 L213.32,461.80 L213.97,454.84 Z M216.04,462.23 L217.26,461.42 L213.32,461.80 L216.04,462.23 Z M219.83,459.70 L223.17,457.46 L221.20,457.93 L219.83,459.70 Z M225.71,435.38 L226.69,434.67 L226.18,434.39 L225.71,435.38 Z M236.50,435.68 L242.81,427.80 L240.88,429.06 L236.50,435.68 Z M238.34,427.59 L237.92,424.51 L237.92,427.34 L238.34,427.59 Z M240.66,418.24 L241.00,417.46 L240.52,414.60 L240.66,418.24 Z M232.82,394.94 L239.04,405.94 L233.24,394.77 L237.62,389.19 L232.82,394.94 Z M225.71,379.90 L223.22,376.04 L232.82,394.94 L225.71,379.90 Z M221.02,375.18 L220.19,375.97 L223.22,376.04 L221.02,375.18 Z M224.22,401.13 L222.92,402.76 L232.82,394.94 L224.22,401.13 Z M239.93,359.71 L234.81,354.09 L235.25,354.73 L239.93,359.71 Z M231.93,339.34 L230.75,336.08 L229.74,335.22 L231.93,339.34 Z M228.02,329.37 L229.68,336.68 L229.74,335.22 L228.02,329.37 Z M230.86,323.36 L226.06,332.81 L228.02,329.37 L230.86,323.36 Z M247.18,340.24 L249.35,340.50 L248.00,339.86 L247.18,340.24 Z M258.13,350.77 L256.35,351.03 L258.25,350.77 L260.98,347.94 L258.13,350.77 Z M266.43,335.73 L269.83,336.75 L269.63,335.82 L266.43,335.73 Z M258.49,295.52 L258.52,296.09 L259.50,295.52 L253.81,293.54 L258.49,295.52 Z M266.25,292.68 L268.69,297.32 L266.40,292.08 L266.25,292.68 Z M266.69,290.87 L267.39,290.50 L266.85,290.19 L266.69,290.87 Z M269.01,291.44 L269.69,292.51 L270.02,292.03 L269.01,291.44 Z M270.51,291.33 L270.76,290.96 L270.58,290.66 L270.51,291.33 Z M270.13,289.89 L269.69,289.16 L267.03,288.64 L270.13,289.89 Z M267.29,277.51 L267.38,276.78 L266.95,276.21 L267.29,277.51 Z M275.62,281.51 L278.47,280.91 L279.55,279.73 L275.62,281.51 Z M280.68,278.50 L281.79,277.30 L282.62,273.26 L280.68,278.50 Z M282.20,264.92 L282.14,267.84 L282.62,273.26 L282.20,264.92 Z M287.35,267.91 L288.25,270.01 L288.25,268.79 L287.35,267.91 Z M288.25,271.39 L283.56,278.50 L288.25,272.48 L288.25,271.39 Z M296.71,264.29 L296.84,263.29 L294.44,259.94 L296.71,264.29 Z M292.46,246.02 L290.44,244.38 L282.73,241.63 L292.46,246.02 Z M274.26,224.88 L276.51,216.45 L275.15,220.41 L274.26,224.88 Z M278.47,214.82 L278.67,214.01 L276.51,216.45 L278.47,214.82 Z M349.25,229.69 L351.03,232.27 L353.87,235.88 L349.25,229.69 Z M359.44,235.53 L367.37,238.78 L366.91,238.11 L359.44,235.53 Z M364.46,265.00 L366.14,265.18 L372.19,263.63 L369.11,264.15 L364.46,265.00 Z M357.49,273.60 L356.48,283.74 L356.18,287.18 L357.49,273.60 Z M363.54,319.92 L361.52,321.47 L361.97,321.64 L363.54,319.92 Z M363.65,340.46 L358.50,338.48 L359.21,340.20 L358.91,338.83 L361.34,339.86 L363.65,340.46 Z M361.82,344.76 L358.50,343.98 L364.25,346.39 L361.82,344.76 Z M357.61,342.35 L358.44,344.07 L356.60,344.93 L357.01,345.19 L358.54,344.45 L358.50,343.98 L357.61,342.35 Z M354.35,346.13 L355.71,347.51 L357.94,350.16 L356.72,348.19 L354.35,346.13 Z M355.47,344.24 L356.12,344.64 L355.59,342.61 L354.09,346.42 L354.35,346.13 L355.47,344.24 Z M355.71,350.43 L356.60,354.04 L355.71,347.51 L355.71,350.43 Z M355.00,362.03 L356.07,361.00 L359.62,359.59 L358.44,356.01 L358.97,359.62 L356.48,360.48 L355.00,362.03 Z M356.18,362.20 L356.95,362.01 L356.07,361.00 L356.18,362.20 Z M358.02,363.23 L357.97,363.17 L358.01,363.30 L358.02,363.23 Z M356.95,368.22 L357.31,369.76 L358.14,371.22 L356.95,368.22 Z M361.09,371.93 L359.92,368.82 L360.16,370.71 L359.68,370.83 L361.09,371.93 Z M366.85,369.85 L375.33,368.99 L373.49,369.08 L366.85,369.85 Z M381.91,376.04 L377.64,381.97 L382.98,374.58 L381.91,376.04 Z M392.58,373.89 L393.19,375.25 L392.62,372.58 L392.58,373.89 Z M372.90,353.52 L370.83,354.12 L368.34,355.67 L366.80,352.83 L367.27,354.21 L365.24,354.80 L367.39,354.55 L367.74,355.93 L366.02,356.79 L372.90,353.52 Z M353.46,261.31 L349.43,259.34 L357.43,264.23 L353.46,261.31 Z M286.23,298.78 L289.20,298.52 L282.14,297.15 L286.23,298.78 Z M295.70,289.48 L296.59,288.34 L293.41,289.93 L295.60,289.16 L295.70,289.48 Z M303.01,312.44 L304.02,309.44 L304.43,306.51 L303.01,312.44 Z M325.60,304.37 L328.86,303.16 L325.04,304.37 L325.60,304.37 Z M329.76,325.23 L332.12,325.33 L331.23,325.16 L329.76,325.23 Z M337.10,340.20 L341.18,330.14 L341.17,330.14 L336.15,341.41 L337.10,340.20 Z M334.13,371.31 L334.49,368.30 L333.83,367.41 L334.13,371.31 Z M332.35,372.60 L334.63,372.08 L334.75,371.82 L334.13,371.31 L332.35,372.60 Z M332.35,383.94 L332.23,383.00 L331.52,378.62 L332.35,383.94 Z M329.27,384.20 L330.04,384.63 L332.35,383.94 L329.27,384.20 Z M329.74,421.19 L330.34,421.33 L330.60,420.84 L329.74,421.19 Z M326.78,415.48 L326.96,422.10 L326.96,420.55 L326.78,415.48 Z M340.71,451.40 L341.61,447.97 L339.47,450.54 L340.47,450.29 L340.71,451.40 Z M333.24,460.68 L334.90,456.73 L334.90,454.07 L334.72,455.96 L333.24,460.68 Z M330.51,477.94 L330.34,476.67 L327.61,473.66 L330.51,477.94 Z M331.40,485.43 L332.06,489.04 L331.29,483.50 L331.40,485.43 Z M320.85,496.26 L320.20,497.46 L320.88,496.25 L320.85,496.26 Z M328.86,515.00 L329.21,515.86 L327.67,510.18 L328.86,515.00 Z M327.91,517.23 L332.00,513.62 L336.86,509.58 L329.21,515.86 L327.91,517.23 Z M243.25,360.31 L242.22,360.12 L246.16,364.78 L243.25,360.31 Z M267.50,371.48 L265.38,371.79 L266.43,371.83 L267.50,371.48 Z M270.89,369.59 L270.17,369.51 L267.50,371.48 L270.89,369.59 Z M272.54,369.76 L271.97,369.70 L273.84,372.86 L272.54,369.76 Z M291.45,385.32 L291.85,385.51 L290.88,384.04 L291.09,389.10 L291.45,385.32 Z M294.29,404.74 L291.51,403.97 L290.30,404.40 L294.29,404.74 Z M287.57,409.60 L287.54,409.47 L287.54,409.55 L287.57,409.60 Z M288.37,412.82 L288.11,411.79 L286.60,415.28 L288.37,412.82 Z M297.57,433.47 L297.14,433.96 L298.04,435.66 L297.57,433.47 Z M281.61,461.97 L284.82,455.62 L282.68,459.05 L281.61,461.97 Z M282.44,465.50 L282.16,463.38 L281.61,461.97 L282.44,465.50 Z M291.71,481.78 L290.38,476.67 L290.32,478.64 L291.71,481.78 Z M299.93,521.27 L290.03,505.97 L285.64,500.90 L291.69,508.64 L299.93,521.27 Z M212.07,475.04 L215.45,475.81 L210.71,474.52 L210.25,474.42 L212.07,475.04 Z M220.31,485.78 L219.87,487.87 L222.27,481.91 L220.31,485.78 Z M227.07,475.72 L229.74,477.36 L232.94,477.96 L227.07,475.72 Z M241.83,473.40 L243.49,473.93 L243.25,472.97 L241.83,473.40 Z M244.97,474.40 L246.05,474.74 L245.80,474.09 L244.97,474.40 Z M250.01,485.60 L249.66,488.87 L249.48,503.14 L249.95,486.72 L250.01,485.60 Z M248.47,500.99 L247.64,500.90 L249.48,503.14 L248.47,500.99 Z M247.40,502.36 L248.17,512.59 L249.60,523.76 L247.64,500.90 L247.40,502.36 Z M247.52,528.66 L245.28,534.34 L249.60,523.76 L247.52,528.66 Z M275.06,489.75 L275.01,490.10 L277.22,491.45 L275.06,489.75 Z M271.71,469.62 L272.66,469.36 L270.23,469.79 L271.71,469.62 Z M222.92,513.45 L223.75,510.78 L221.14,516.63 L222.92,513.45 Z M215.93,508.12 L207.63,512.42 L221.08,506.14 L224.11,504.60 L225.23,503.58 L215.93,508.12 Z M238.78,507.18 L237.98,506.40 L238.44,507.18 L238.78,507.18 Z M269.81,503.74 L270.82,502.28 L271.83,500.82 L272.33,501.59 L272.24,500.13 L269.19,504.33 L269.81,503.74 Z M269.76,518.70 L270.46,513.88 L271.29,505.80 L269.76,518.70 Z M271.65,526.68 L278.09,525.96 L277.99,525.74 L268.63,526.43 L271.65,526.68 Z M271.65,527.54 L272.84,527.54 L271.65,526.68 L271.65,527.54 Z M233.41,533.90 L232.23,535.45 L230.69,537.68 L230.70,537.69 L233.41,533.90 Z M258.13,528.32 L254.58,528.14 L259.85,528.49 L258.13,528.32 Z M261.22,537.34 L260.39,533.21 L260.56,531.58 L260.21,534.68 L261.22,537.34 Z M270.70,529.52 L270.82,528.50 L269.30,530.26 L270.70,529.52 Z M222.51,548.68 L226.48,550.14 L227.42,549.70 L222.51,548.68 Z M256.25,556.44 L256.12,557.10 L256.41,557.13 L256.25,556.44 Z M234.62,517.54 L234.58,517.64 L234.90,517.75 L234.62,517.54 Z M205.97,492.65 L200.81,494.37 L199.25,493.40 L200.69,495.14 L205.97,492.65 Z M209.96,494.09 L209.58,494.71 L211.60,504.43 L209.96,494.09 Z M228.56,499.80 L227.35,501.64 L228.26,500.82 L228.56,499.80 Z M237.21,487.84 L231.93,492.31 L238.59,487.45 L237.21,487.84 Z M216.85,492.93 L217.70,493.25 L218.28,491.81 L216.85,492.93 Z M272.52,504.78 L271.77,514.74 L272.72,508.04 L272.52,504.78 Z M240.94,452.86 L240.59,459.48 L241.12,449.86 L240.82,442.90 L240.94,452.86 Z M243.43,451.58 L248.94,450.72 L242.60,451.23 L243.43,451.58 Z M249.87,468.12 L251.91,458.62 L253.57,450.63 L249.72,467.13 L249.87,468.12 Z M272.89,453.98 L268.02,457.60 L268.92,457.07 L272.89,453.98 Z M252.09,405.51 L253.98,405.26 L255.05,404.22 L252.09,405.51 Z M267.30,411.79 L262.99,397.26 L266.31,410.41 L267.30,411.79 Z M255.41,427.26 L246.81,425.19 L253.57,427.51 L263.47,427.17 L255.41,427.26 Z M253.98,424.59 L254.32,425.22 L256.35,422.18 L253.98,424.59 Z M272.72,388.84 L273.61,392.54 L274.73,393.74 L272.72,388.84 Z M271.18,381.19 L274.61,379.99 L275.65,379.08 L271.18,381.19 Z M294.29,451.23 L303.20,460.47 L302.00,458.62 L294.29,451.23 Z M281.85,306.09 L281.81,306.03 L281.88,306.34 L281.85,306.09 Z M282.49,308.98 L282.68,309.78 L283.51,309.61 L282.49,308.98 Z M285.11,317.00 L285.82,318.20 L283.51,309.61 L285.11,317.00 Z M288.37,333.07 L286.29,341.58 L291.03,337.02 L286.94,340.20 L288.37,333.07 Z M280.07,353.69 L289.37,351.58 L288.49,351.20 L285.64,352.15 L280.07,353.69 Z M290.35,351.99 L290.71,354.52 L290.92,352.23 L290.35,351.99 Z M291.38,359.37 L292.12,364.64 L292.10,362.20 L291.38,359.37 Z M292.93,370.34 L293.11,371.65 L293.71,372.25 L292.93,370.34 Z M272.49,348.07 L276.51,345.79 L274.32,346.22 L272.49,348.07 Z M269.63,363.06 L269.56,362.16 L269.26,363.54 L269.63,363.06 Z M294.69,406.92 L294.00,411.44 L294.89,408.01 L294.69,406.92 Z M291.62,415.98 L291.80,416.77 L292.58,416.37 L291.62,415.98 Z M293.53,415.87 L294.12,415.57 L294.41,412.04 L293.53,415.87 Z M301.76,417.72 L306.86,418.15 L307.10,417.64 L301.76,417.72 Z M307.33,417.17 L307.51,416.77 L306.09,412.73 L307.33,417.17 Z M309.83,411.53 L309.41,415.91 L311.43,406.89 L309.83,411.53 Z M308.52,510.87 L308.88,508.12 L307.28,518.52 L308.52,510.87 Z M306.45,465.50 L304.91,463.12 L310.95,478.22 L306.45,465.50 Z M316.47,442.81 L321.03,449.60 L321.14,449.59 L316.47,442.81 Z M322.93,449.34 L322.54,449.49 L323.07,449.45 L322.93,449.34 Z M329.03,447.33 L328.89,447.65 L334.25,452.09 L329.03,447.33 Z M304.14,461.93 L304.11,461.89 L301.94,464.72 L300.52,468.42 L304.14,461.93 Z M295.60,483.80 L296.37,482.08 L298.98,476.24 L295.60,483.80 Z M303.54,492.74 L304.61,490.07 L305.50,486.29 L303.54,492.74 Z M313.56,440.06 L316.35,439.29 L321.21,437.22 L313.56,440.06 Z M328.68,446.55 L329.80,444.70 L328.44,446.16 L328.68,446.55 Z M295.66,351.00 L294.65,348.28 L295.01,350.34 L295.66,351.00 Z M297.20,352.58 L301.29,353.35 L296.81,352.18 L297.20,352.58 Z M300.87,363.49 L302.95,364.61 L299.39,361.94 L300.87,363.49 Z M311.13,349.14 L310.82,349.40 L311.66,351.29 L311.13,349.14 Z M313.26,342.44 L312.79,337.11 L313.20,342.46 L313.26,342.44 Z M319.61,388.15 L319.70,390.22 L320.26,390.22 L319.61,388.15 Z M321.03,383.34 L321.05,383.93 L322.33,381.62 L321.03,383.34 Z M328.97,378.36 L328.56,380.08 L326.13,380.42 L328.92,380.49 L328.97,378.36 Z M327.31,375.78 L326.25,375.69 L328.97,378.36 L327.31,375.78 Z M310.77,382.65 L304.14,390.47 L297.97,398.47 L310.77,382.65 Z M315.29,382.82 L317.89,380.68 L314.39,383.00 L315.28,382.48 L315.29,382.82 Z M324.01,390.70 L326.19,398.55 L324.23,390.73 L324.01,390.70 Z M308.11,403.54 L305.74,401.13 L306.03,402.42 L308.11,403.54 Z M307.04,400.53 L306.86,399.41 L306.58,399.10 L307.04,400.53 Z M310.72,396.40 L313.26,395.46 L314.33,394.51 L310.72,396.40 Z M330.06,411.24 L328.86,409.04 L319.90,400.87 L330.06,411.24 Z M295.33,373.88 L296.37,374.92 L305.02,376.81 L295.33,373.88 Z M314.57,326.11 L315.04,332.73 L315.10,324.56 L314.57,326.11 Z M326.48,339.17 L330.22,343.55 L328.68,341.06 L326.48,339.17 Z M302.42,336.16 L299.83,319.60 L299.39,320.35 L302.42,336.16 Z M299.63,318.29 L300.82,317.43 L300.84,316.94 L299.63,318.29 Z M289.49,231.15 L292.34,229.43 L289.31,231.02 L289.49,231.15 Z M340.91,364.93 L340.59,364.01 L339.29,362.12 L336.21,358.08 L335.32,357.39 L340.91,364.93 Z M340.51,348.74 L339.11,349.31 L340.36,348.88 L340.51,348.74 Z M339.88,229.77 L338.40,233.98 L337.81,238.20 L339.88,229.77 Z M344.27,271.28 L344.47,270.69 L342.31,272.83 L344.27,271.28 Z M341.96,301.19 L336.92,296.63 L338.87,298.52 L341.96,301.19 Z M299.45,233.56 L296.78,233.30 L295.42,233.64 L299.45,233.56 Z M322.67,246.36 L322.83,246.42 L327.08,239.48 L322.67,246.36 Z M301.53,274.63 L300.10,273.02 L302.42,277.55 L301.53,274.63 Z M302.18,285.55 L302.83,289.24 L302.30,283.66 L302.42,277.55 L302.18,285.55 Z M309.83,272.83 L305.34,280.25 L306.98,278.41 L309.83,272.83 Z M310.39,269.49 L310.39,269.49 L309.83,272.83 L310.39,269.49 Z M314.04,261.40 L315.16,265.70 L315.64,265.66 L314.04,261.40 Z M325.36,263.63 L331.29,264.84 L323.76,262.26 L325.13,264.65 L325.36,263.63 Z M324.77,272.74 L324.51,268.40 L324.35,268.87 L324.77,272.74 Z M326.13,274.03 L330.34,274.98 L324.77,272.74 L326.13,274.03 Z M310.00,289.93 L313.38,293.06 L313.09,292.16 L310.00,289.93 Z M315.22,287.78 L315.99,288.64 L316.40,287.86 L315.22,287.78 Z M313.86,285.80 L316.42,287.83 L317.53,285.72 L316.05,287.52 L313.86,285.80 Z M321.09,252.80 L322.32,246.89 L321.56,248.08 L321.09,252.80 Z M296.49,253.66 L298.09,252.29 L300.82,247.99 L296.49,253.66 Z M300.34,256.86 L300.76,257.70 L301.90,256.91 L300.34,256.86 Z M305.80,254.18 L308.08,257.03 L307.40,255.21 L305.80,254.18 Z M308.63,258.49 L308.33,259.96 L308.82,258.99 L308.63,258.49 Z M296.01,223.41 L295.52,223.06 L295.12,225.39 L296.01,223.41 Z M342.67,346.39 L340.78,348.50 L342.08,347.33 L342.67,346.39 Z M344.86,345.19 L347.35,344.58 L347.54,343.60 L342.67,346.39 L344.86,345.19 Z M345.40,347.85 L342.85,348.45 L345.44,348.03 L345.40,347.85 Z M352.33,350.00 L349.19,347.59 L350.97,349.48 L351.92,351.63 L352.33,350.00 Z M352.09,348.71 L351.03,345.87 L352.33,350.00 L352.09,348.71 Z M353.87,342.18 L349.54,346.56 L351.03,345.87 L353.87,342.18 Z M347.88,341.75 L349.43,342.26 L350.37,342.61 L353.87,342.18 L347.88,341.75 Z M346.05,335.91 L347.79,342.28 L347.88,341.75 L346.05,335.91 Z M348.42,337.02 L350.01,336.43 L346.05,335.91 L348.42,337.02 Z M342.25,331.01 L341.75,330.60 L344.98,334.62 L346.05,335.91 L342.25,331.01 Z M345.99,350.43 L347.23,350.26 L350.97,349.48 L345.99,350.43 Z M341.19,350.51 L344.15,350.69 L345.99,350.43 L341.19,350.51 Z M345.97,357.11 L346.34,356.36 L347.05,351.89 L347.23,350.26 L345.97,357.11 Z M351.82,351.83 L353.99,352.40 L351.92,351.63 L351.82,351.83 Z M365.19,405.53 L365.16,405.47 L365.12,405.88 L365.19,405.53 Z M361.99,445.30 L361.57,437.99 L361.34,438.43 L361.99,445.30 Z M360.33,445.30 L360.03,446.20 L361.99,445.30 L360.33,445.30 Z M358.97,446.68 L359.24,446.56 L358.27,445.67 L359.38,450.17 L358.97,446.68 Z M360.04,455.79 L359.89,454.49 L359.56,461.11 L360.04,455.79 Z M361.40,467.22 L359.74,466.53 L362.17,468.22 L361.40,467.17 L361.40,467.22 Z M368.22,483.46 L368.63,480.45 L367.75,484.61 L368.22,483.46 Z M346.82,426.57 L344.92,432.76 L346.22,428.89 L346.82,426.57 Z M337.98,513.88 L348.00,525.65 L342.56,518.16 L342.37,518.69 L337.98,513.88 Z M342.17,447.31 L345.69,449.43 L342.55,446.85 L342.17,447.31 Z M350.49,471.68 L350.14,472.97 L352.75,465.58 L350.49,471.68 Z M338.93,433.70 L340.77,436.79 L339.45,433.41 L338.93,433.70 Z M350.98,441.01 L350.73,440.32 L346.46,441.09 L350.98,441.01 Z M357.72,445.16 L357.13,444.61 L351.92,445.56 L357.72,445.16 Z M352.45,441.78 L350.85,439.11 L352.30,441.89 L352.45,441.78 Z M342.43,355.76 L342.96,354.90 L340.77,355.82 L342.85,356.27 L345.87,357.29 L345.89,357.26 L344.63,356.00 L344.68,356.62 L342.43,355.76 Z M349.48,357.01 L349.43,353.87 L349.30,353.76 L349.47,357.00 L349.48,357.01 Z M350.26,357.65 L351.68,358.85 L350.70,357.28 L349.75,357.23 L350.26,357.65 Z M341.12,365.53 L337.81,369.25 L341.12,365.53 L341.12,365.53 Z M342.13,417.46 L342.43,417.92 L340.77,409.90 L342.13,417.46 Z M345.34,383.43 L347.05,382.91 L345.08,383.34 L345.34,383.43 Z M347.71,366.24 L345.28,362.63 L347.63,366.62 L347.93,366.22 L347.71,366.24 Z M348.12,367.44 L353.04,370.97 L348.00,367.23 L348.12,367.44 Z M355.87,370.17 L355.71,369.94 L353.04,370.97 L355.87,370.17 Z M353.04,355.32 L354.76,354.21 L353.99,354.38 L353.04,355.32 Z M346.76,289.84 L341.96,287.35 L343.74,289.07 L346.76,289.84 Z M347.35,297.23 L348.83,296.20 L344.27,296.98 L347.35,297.23 Z M349.31,304.11 L350.20,330.41 L349.72,304.80 L347.35,297.23 L349.31,304.11 Z M375.75,411.61 L364.13,390.65 L375.13,411.35 L375.75,411.61 Z M387.43,431.29 L392.11,439.20 L383.87,425.28 L375.75,411.61 L387.43,431.29 Z M361.28,465.24 L361.29,465.39 L361.44,465.15 L361.28,465.24 Z M370.53,452.52 L370.09,452.68 L370.91,454.29 L370.53,452.52 Z M373.43,457.16 L372.02,456.48 L372.37,457.16 L373.43,457.16 Z M376.70,452.86 L374.12,457.16 L374.86,457.16 L376.70,452.86 Z M387.66,462.32 L384.34,462.83 L384.01,463.35 L387.66,462.32 Z M394.77,445.46 L396.44,453.98 L394.78,445.47 L394.77,445.46 Z M409.06,476.84 L410.90,478.39 L408.62,476.25 L409.06,476.84 Z M407.00,474.07 L409.54,471.08 L406.63,473.57 L407.00,474.07 Z M409.00,469.88 L409.83,466.36 L409.83,466.30 L409.00,469.88 Z M380.73,468.42 L382.33,466.96 L382.93,465.01 L380.73,468.42 Z M365.08,437.10 L365.14,437.14 L374.98,436.11 L365.08,437.10 Z M380.47,451.48 L380.55,450.46 L378.30,448.48 L380.47,451.48 Z M464.25,393.83 L450.20,393.48 L461.76,394.43 L464.25,393.83 Z M464.19,391.51 L464.31,388.24 L463.66,390.04 L464.25,393.83 L464.19,391.51 Z M466.86,392.97 L468.70,392.71 L464.19,391.51 L466.86,392.97 Z M366.50,377.58 L364.95,378.32 L365.02,378.70 L366.50,377.58 Z M365.67,269.65 L363.77,269.39 L367.92,270.77 L365.67,269.65 Z M368.50,273.34 L371.12,285.12 L368.87,273.34 L368.50,273.34 Z M374.38,290.62 L373.55,288.98 L371.12,285.12 L374.38,290.62 Z M375.05,288.26 L375.51,288.04 L377.29,280.82 L375.05,288.26 Z M375.75,288.56 L376.10,286.49 L375.51,288.04 L375.75,288.56 Z M387.45,270.77 L387.86,272.38 L387.78,271.02 L387.45,270.77 Z M365.67,348.28 L366.77,347.33 L366.74,347.33 L365.67,348.28 Z M363.16,355.03 L361.49,354.41 L362.11,355.15 L363.16,355.03 Z M380.13,369.85 L380.90,368.05 L381.02,361.34 L380.13,369.85 Z M384.64,330.49 L382.45,332.55 L388.61,326.97 L384.64,330.49 Z M374.44,315.45 L369.94,309.35 L371.18,311.59 L374.44,315.45 Z M373.02,312.27 L374.16,313.10 L373.21,311.76 L373.02,312.27 Z M390.51,267.41 L378.36,266.64 L386.71,267.33 L390.51,267.41 Z M144.77,151.90 L144.61,151.83 L144.61,157.85 L144.77,151.90 Z M144.37,167.56 L143.07,167.38 L145.03,168.50 L144.43,165.32 L144.37,167.56 Z M155.51,175.25 L155.79,174.62 L155.34,174.60 L149.53,168.59 L155.51,175.25 Z M155.32,175.66 L154.84,175.91 L155.10,176.15 L155.32,175.66 Z M148.29,186.72 L145.32,186.72 L152.85,187.41 L148.29,186.72 Z M148.05,210.18 L146.21,213.27 L147.22,212.79 L148.05,210.18 Z M144.87,217.06 L144.96,217.09 L146.21,215.94 L147.16,212.98 L144.87,217.06 Z M155.40,229.34 L157.53,231.06 L155.93,229.26 L150.83,229.69 L155.40,229.34 Z M146.45,237.34 L146.21,238.37 L145.86,242.06 L146.45,237.34 Z M151.61,253.92 L151.55,255.47 L151.80,253.84 L148.64,253.84 L151.61,253.92 Z M156.11,259.85 L155.78,267.85 L156.35,261.66 L156.11,259.85 Z M150.85,291.68 L149.89,295.09 L150.07,296.21 L150.85,291.68 Z M158.83,314.07 L159.55,314.68 L160.38,314.85 L158.83,314.07 Z M151.72,327.48 L152.29,329.68 L152.55,329.29 L151.72,327.48 Z M151.24,333.90 L153.86,337.37 L151.84,334.44 L151.24,333.90 Z M152.78,340.99 L150.95,343.98 L152.55,341.75 L152.78,340.99 Z M149.95,358.42 L152.47,357.92 L151.90,357.48 L149.95,358.42 Z M152.99,358.33 L153.09,360.48 L153.32,358.59 L152.99,358.33 Z M150.13,362.47 L148.69,363.44 L148.94,365.12 L150.13,362.47 Z M143.60,365.04 L143.72,367.01 L144.01,366.96 L143.60,365.04 Z M144.35,366.90 L145.68,366.67 L144.97,366.07 L144.35,366.90 Z M142.48,372.86 L142.87,375.58 L143.07,375.09 L142.48,372.86 Z M141.96,378.23 L141.23,379.39 L142.25,378.54 L141.96,378.23 Z M138.92,376.72 L142.89,381.45 L141.23,379.39 L138.92,376.72 Z M136.55,376.98 L135.36,378.10 L138.92,376.72 L136.55,376.98 Z M149.96,377.93 L150.00,378.19 L152.61,377.93 L149.96,377.93 Z M153.03,379.65 L153.52,379.19 L152.61,377.93 L153.03,379.65 Z M156.58,383.43 L156.48,384.02 L156.74,383.25 L156.58,383.43 Z M155.68,386.40 L155.02,386.73 L155.46,387.04 L155.68,386.40 Z M151.51,385.28 L150.95,384.97 L149.23,388.15 L151.51,385.28 Z M150.60,418.75 L150.57,419.03 L152.44,417.97 L150.60,418.75 Z M160.68,427.94 L160.62,435.16 L161.15,431.98 L160.68,427.94 Z M144.25,442.47 L142.24,442.38 L141.41,442.55 L144.25,442.47 Z M83.25,246.88 L84.49,248.03 L85.74,244.64 L84.32,247.73 L83.25,246.88 Z M68.73,250.40 L73.77,249.45 L83.25,246.88 L68.73,250.40 Z M68.47,246.30 L68.11,246.69 L68.49,247.05 L68.73,250.40 L68.47,246.30 Z M89.00,254.35 L89.72,252.29 L89.28,251.85 L89.00,254.35 Z M90.13,255.47 L88.89,261.66 L89.48,262.17 L89.24,260.37 L90.07,258.05 L90.13,255.47 Z M85.27,271.11 L86.22,268.70 L87.70,267.50 L86.28,267.93 L85.27,271.11 Z M90.99,289.95 L91.28,290.02 L91.04,289.56 L90.99,289.95 Z M89.45,306.50 L89.45,306.50 L87.94,304.80 L89.45,306.50 Z M86.93,317.94 L87.57,318.21 L87.15,316.72 L86.93,317.94 Z M90.96,358.76 L89.00,355.15 L87.17,355.58 L89.36,355.93 L90.96,358.76 Z M105.32,368.56 L106.61,369.42 L102.16,365.72 L105.32,368.56 Z M111.65,359.02 L114.38,356.62 L108.98,360.05 L111.65,359.02 Z M114.26,354.98 L113.70,354.95 L114.38,356.62 L114.26,354.98 Z M124.45,351.55 L127.12,351.03 L127.20,351.51 L128.07,350.60 L122.91,351.89 L124.45,351.55 Z M126.83,356.01 L128.43,360.31 L126.35,352.40 L126.83,356.01 Z M132.16,363.15 L131.39,360.74 L129.97,358.59 L132.16,363.15 Z M124.81,373.97 L127.48,372.34 L128.31,371.40 L126.00,372.86 L124.81,373.97 Z M120.48,383.86 L119.36,385.15 L122.68,382.57 L120.48,383.86 Z M117.82,387.47 L121.67,390.90 L119.89,388.67 L117.82,387.47 Z M131.83,430.77 L132.54,430.19 L132.04,429.83 L131.83,430.77 Z M121.02,449.94 L127.30,457.25 L121.61,450.11 L120.30,446.08 L121.02,449.94 Z M125.05,463.43 L127.69,460.36 L127.12,460.60 L125.05,463.43 Z M42.71,285.29 L39.98,286.15 L43.78,285.13 L42.83,284.41 L42.71,285.29 Z M58.53,262.77 L59.90,264.06 L60.45,264.25 L58.53,262.77 Z M74.54,286.58 L69.80,287.69 L71.46,287.69 L74.54,286.58 Z M79.46,284.69 L79.58,288.30 L80.23,283.14 L79.46,284.69 Z M83.21,368.95 L86.40,359.80 L83.43,367.19 L82.90,366.41 L83.21,368.95 Z M82.62,380.61 L82.54,378.44 L82.54,380.42 L82.62,380.61 Z M81.48,383.69 L85.39,385.32 L84.20,384.63 L81.48,383.69 Z M77.39,414.71 L74.13,405.34 L72.94,402.08 L77.39,414.71 Z M94.64,415.12 L90.96,411.36 L94.16,414.88 L93.63,415.74 L94.64,415.12 Z M89.24,433.61 L92.50,430.18 L85.33,437.40 L89.39,434.03 L89.24,433.61 Z M89.92,448.58 L91.55,449.51 L92.42,448.71 L90.66,448.83 L91.85,447.36 L89.92,448.58 Z M85.51,463.69 L85.48,463.50 L85.40,463.97 L85.51,463.69 Z M40.41,348.09 L40.99,348.28 L41.04,347.53 L40.41,348.09 Z M41.80,346.85 L48.40,347.94 L42.41,346.30 L41.80,346.85 Z M55.69,349.83 L55.35,350.29 L55.95,350.53 L55.69,349.83 Z M45.85,384.20 L46.50,383.26 L45.14,382.42 L45.85,384.20 Z M55.83,399.14 L59.96,396.40 L56.76,398.47 L56.51,398.05 L55.83,399.14 Z M83.37,469.19 L83.58,468.65 L83.03,469.53 L83.37,469.19 Z M54.09,401.90 L55.04,401.13 L54.84,400.71 L54.09,401.90 Z M49.94,381.54 L51.89,376.90 L53.50,375.44 L51.24,376.98 L49.94,381.54 Z M63.63,376.04 L62.92,377.41 L63.87,376.47 L63.63,376.04 Z M71.81,380.94 L73.41,390.73 L73.12,385.40 L71.81,380.94 Z M68.76,393.19 L68.61,392.88 L67.07,394.08 L68.76,393.19 Z M34.44,312.32 L34.94,311.84 L34.17,308.84 L34.44,312.32 Z M34.53,313.39 L34.82,313.35 L34.50,313.08 L34.53,313.39 Z M40.75,312.53 L41.76,311.24 L39.15,313.99 L40.75,312.53 Z M48.75,317.00 L48.88,316.93 L46.92,313.22 L48.75,317.00 Z M62.61,310.74 L61.50,312.01 L62.48,311.85 L62.61,310.74 Z M68.97,307.63 L65.17,307.80 L64.91,308.11 L68.97,307.63 Z M74.30,313.48 L77.80,317.26 L70.86,325.94 L78.06,317.52 L74.30,313.48 Z M62.54,329.84 L62.45,330.32 L63.99,331.78 L62.54,329.84 Z M72.29,337.45 L74.54,337.45 L74.54,336.94 L72.29,337.45 Z M76.09,338.86 L76.32,339.26 L77.21,338.57 L76.09,338.86 Z M39.92,307.37 L38.26,305.91 L41.40,308.84 L39.92,307.37 Z M60.44,287.40 L59.96,289.67 L60.44,287.40 L60.44,287.40 Z M30.43,301.19 L31.05,301.59 L30.66,300.36 L30.43,301.19 Z M31.63,301.97 L33.04,302.91 L33.12,302.72 L31.63,301.97 Z M29.77,238.26 L28.72,239.40 L28.10,241.73 L29.77,238.26 Z M33.28,237.99 L31.26,236.65 L30.62,237.34 L33.28,237.99 Z M51.60,249.54 L50.95,246.53 L51.24,250.40 L51.60,249.54 Z M49.52,251.00 L56.40,251.52 L54.45,250.71 L49.52,251.00 Z M65.23,254.35 L66.00,253.41 L59.60,257.02 L65.23,254.35 Z M75.43,261.83 L64.46,258.73 L67.13,259.51 L75.43,261.83 Z M75.76,262.25 L75.84,260.54 L75.43,261.83 L75.76,262.25 Z M76.54,263.25 L78.52,265.78 L77.68,263.80 L76.54,263.25 Z M99.73,447.11 L102.22,448.14 L107.25,450.92 L103.88,448.83 L99.73,447.11 Z M105.01,441.18 L108.92,435.76 L105.08,440.22 L103.88,448.83 L105.01,441.18 Z M102.34,473.40 L102.40,473.90 L103.82,474.09 L102.34,473.40 Z M117.46,468.76 L121.81,464.10 L121.73,464.12 L117.46,468.76 Z M96.18,414.19 L98.01,411.22 L97.42,411.10 L95.47,414.62 L96.18,414.19 Z M105.48,411.19 L99.85,411.61 L98.20,411.26 L98.25,415.91 L98.73,411.87 L105.48,411.19 Z M111.06,436.54 L111.67,437.68 L115.09,440.06 L111.06,436.54 Z M116.51,428.37 L117.64,430.01 L118.50,430.26 L116.51,428.37 Z M113.01,416.34 L113.49,417.03 L114.67,416.00 L113.01,416.34 Z M105.04,396.11 L99.68,398.29 L102.46,397.61 L105.04,396.11 Z M108.09,393.74 L107.86,394.46 L108.80,393.91 L108.09,393.74 Z M107.97,398.47 L108.57,395.46 L108.80,393.91 L107.97,398.47 Z M112.30,383.51 L111.67,390.81 L111.95,390.39 L112.30,383.51 Z M92.71,378.91 L92.68,379.17 L92.92,378.96 L92.71,378.91 Z M88.74,399.21 L90.31,400.79 L89.12,398.90 L88.74,399.21 Z M108.33,379.65 L107.32,372.00 L107.38,376.21 L108.33,379.65 Z M97.72,385.73 L97.60,384.10 L97.19,384.89 L97.72,385.73 Z M98.12,383.10 L99.50,382.74 L98.31,382.74 L98.12,383.10 Z M135.15,175.75 L133.41,173.23 L134.65,175.72 L135.15,175.75 Z M136.55,187.75 L133.94,180.36 L136.49,187.83 L136.55,187.75 Z M126.77,208.29 L124.10,207.77 L126.75,208.61 L126.77,208.29 Z M134.35,212.50 L133.55,212.54 L133.58,213.19 L135.30,212.16 L134.35,212.50 Z M135.93,216.51 L135.49,215.30 L135.54,216.11 L135.93,216.51 Z M139.75,219.03 L137.68,218.34 L137.85,218.52 L139.75,219.03 Z M123.68,227.37 L124.87,223.16 L123.45,226.51 L123.86,233.81 L123.68,227.37 Z M122.79,234.59 L126.00,233.56 L123.86,233.81 L122.79,234.59 Z M130.44,247.65 L131.21,240.86 L129.94,248.30 L131.11,247.93 L130.44,247.65 Z M127.77,274.46 L128.55,272.48 L129.46,273.19 L129.61,272.66 L128.25,271.37 L127.77,274.46 Z M131.92,273.77 L130.14,273.71 L130.44,273.95 L131.92,273.77 Z M131.63,275.30 L131.74,275.07 L131.63,274.46 L131.63,275.30 Z M135.07,279.62 L131.25,276.35 L130.15,276.87 L131.27,276.78 L135.07,279.62 Z M124.63,289.50 L124.28,289.07 L122.62,289.93 L124.63,289.50 Z M123.06,312.34 L120.60,310.12 L122.74,312.62 L123.06,312.34 Z M120.60,323.53 L119.48,322.67 L120.35,323.55 L120.60,323.53 Z M127.60,342.09 L134.06,334.44 L128.33,339.79 L128.66,340.03 L127.60,342.09 Z M113.43,262.77 L112.89,260.54 L111.98,260.02 L113.43,262.77 Z M111.49,259.11 L114.32,256.50 L111.29,258.73 L111.49,259.11 Z M95.35,323.62 L96.00,322.16 L94.72,323.79 L95.35,323.62 Z M95.11,319.58 L94.28,317.34 L96.00,322.16 L95.11,319.58 Z M108.92,322.96 L111.29,311.33 L108.86,322.93 L108.92,322.96 Z M92.27,331.61 L91.89,331.35 L92.98,335.56 L92.27,331.61 Z M101.77,339.50 L101.74,339.50 L99.02,347.76 L99.04,348.82 L101.77,339.50 Z M114.32,333.24 L110.58,336.85 L109.58,339.34 L110.64,337.71 L114.32,333.24 Z M116.16,344.76 L116.57,342.01 L115.09,347.59 L116.16,344.76 Z M120.30,346.76 L120.30,345.96 L116.16,344.76 L120.30,346.76 Z M109.99,345.62 L111.53,348.28 L111.00,346.82 L115.09,347.59 L109.99,345.62 Z M127.18,332.47 L127.48,339.17 L128.02,339.56 L127.18,332.47 Z M99.44,286.49 L96.77,286.49 L101.39,287.95 L99.44,286.49 Z M103.05,296.63 L104.73,293.36 L104.36,293.62 L100.80,300.93 L103.05,296.63 Z M105.84,292.59 L105.51,292.82 L110.64,295.86 L105.84,292.59 Z M112.72,272.05 L112.72,273.34 L113.55,275.49 L112.72,272.05 Z M122.20,277.38 L117.05,278.09 L117.46,280.48 L117.28,278.07 L122.20,277.38 Z M100.10,244.24 L97.24,246.27 L99.68,245.07 L100.10,244.24 Z M109.95,236.90 L110.58,238.54 L111.72,239.15 L109.95,236.90 Z M100.99,258.97 L103.29,263.12 L101.22,258.99 L100.99,258.97 Z M101.86,256.58 L102.40,254.52 L101.99,253.84 L101.86,256.58 Z M106.26,264.32 L107.88,264.45 L104.30,262.43 L106.26,264.32 Z M126.29,395.20 L124.44,398.16 L125.11,398.04 L126.29,395.20 Z M132.34,395.54 L132.41,397.17 L132.81,396.49 L132.34,395.54 Z M133.47,383.69 L134.89,382.89 L136.43,379.65 L133.47,383.69 Z M129.26,378.49 L129.26,378.62 L133.47,383.69 L129.26,378.49 Z M138.36,431.28 L134.77,431.81 L137.62,431.90 L138.36,431.28 Z M128.74,459.94 L135.24,464.29 L129.43,459.65 L128.74,459.94 Z M136.61,476.58 L136.70,476.52 L136.19,471.77 L136.61,476.58 Z M139.33,277.12 L138.28,278.86 L140.71,275.59 L139.33,277.12 Z M141.33,274.90 L142.73,275.10 L141.65,274.55 L141.33,274.90 Z M145.36,275.46 L146.21,275.58 L147.22,275.06 L145.36,275.46 Z M147.22,273.43 L147.46,274.98 L146.92,269.30 L147.22,275.06 L147.22,273.43 Z M148.05,303.72 L145.50,298.18 L147.93,303.77 L148.05,303.72 Z M139.27,325.59 L137.91,325.51 L136.79,326.02 L139.27,325.59 Z M143.72,340.89 L141.11,342.69 L140.40,344.37 L143.72,340.89 Z M139.50,345.31 L139.16,345.01 L136.01,348.97 L139.50,345.31 Z M138.01,279.30 L136.14,282.38 L136.16,282.42 L138.03,279.70 L139.00,279.92 L138.01,279.30 Z M142.83,280.33 L142.24,282.71 L140.22,289.16 L143.01,282.11 L142.83,280.33 Z M143.31,278.41 L143.16,279.02 L144.28,278.58 L143.31,278.41 Z M147.51,280.56 L147.34,279.10 L147.48,280.69 L147.51,280.56 Z M147.81,283.23 L148.23,283.29 L147.51,280.56 L147.81,283.23 Z M135.96,286.49 L133.88,293.02 L134.95,291.48 L135.96,286.49 Z M139.94,280.13 L140.34,280.22 L141.53,277.98 L139.94,280.13 Z M138.56,236.99 L138.92,234.33 L138.09,229.69 L138.56,236.99 Z M139.45,267.59 L140.93,268.19 L142.06,268.02 L139.45,267.59 Z M146.22,268.39 L144.43,268.19 L147.81,268.96 L146.15,268.53 L146.22,268.39 Z M146.47,267.90 L146.63,267.59 L143.84,261.23 L146.47,267.90 Z M137.38,248.16 L134.95,246.70 L135.60,247.65 L136.17,248.33 L137.38,248.16 Z M136.95,249.28 L138.09,250.66 L140.76,251.60 L136.95,249.28 Z M140.28,199.51 L139.50,198.18 L139.23,200.10 L140.28,199.51 Z M145.32,208.12 L141.07,200.86 L141.23,202.19 L145.32,208.12 Z M140.93,221.01 L141.05,221.94 L140.88,218.43 L140.93,221.01 Z M191.45,91.05 L191.38,90.56 L190.60,90.34 L191.45,91.05 Z M198.36,118.89 L199.15,119.43 L198.44,117.54 L198.62,118.66 L198.36,118.89 Z M188.22,126.79 L189.19,126.56 L190.43,124.67 L188.22,126.79 Z M191.98,149.34 L193.10,150.46 L188.48,144.87 L191.98,149.34 Z M179.59,168.16 L179.17,170.05 L181.07,166.70 L179.59,168.16 Z M187.40,188.36 L188.36,185.77 L189.25,180.96 L187.40,188.36 Z M190.08,186.29 L190.25,185.83 L188.36,185.77 L190.08,186.29 Z M186.05,193.08 L188.48,203.91 L186.34,192.14 L186.05,193.08 Z M190.37,224.38 L190.37,224.38 L189.01,217.91 L190.37,224.38 Z M188.57,244.70 L189.68,245.39 L189.13,244.73 L188.57,244.70 Z M194.36,260.08 L195.70,259.94 L192.86,254.78 L194.94,259.16 L194.36,260.08 Z M190.79,257.88 L193.28,260.20 L194.15,260.10 L190.79,257.88 Z M185.51,266.47 L185.16,268.27 L186.70,265.35 L185.51,266.47 Z M177.45,279.27 L183.91,272.66 L181.96,274.20 L177.45,279.27 Z M191.38,293.11 L194.70,290.96 L189.86,293.16 L191.38,293.11 Z M197.07,291.47 L197.07,291.47 L194.70,290.96 L197.07,291.47 Z M191.74,305.57 L192.08,306.23 L193.04,305.13 L191.74,305.57 Z M205.90,318.81 L205.25,318.20 L203.30,314.94 L204.66,318.37 L205.90,318.81 Z M207.10,321.11 L210.59,320.95 L207.98,320.78 L207.10,321.11 Z M214.62,314.85 L215.05,314.10 L213.14,314.59 L214.62,314.85 Z M218.53,319.92 L219.02,320.85 L217.47,313.48 L218.53,319.92 Z M219.66,305.48 L219.57,303.24 L217.47,313.48 L219.66,305.48 Z M221.56,325.76 L224.52,328.77 L219.69,322.15 L221.56,325.76 Z M213.73,346.13 L217.47,347.51 L219.01,348.02 L213.73,346.13 Z M218.67,354.94 L219.07,356.01 L219.22,354.31 L218.67,354.94 Z M225.41,359.45 L227.62,359.42 L224.22,358.68 L225.41,359.45 Z M222.45,364.87 L225.88,365.38 L221.79,363.75 L222.45,364.87 Z M220.86,419.98 L221.14,419.93 L221.38,417.54 L220.86,419.98 Z M222.43,425.96 L222.39,424.59 L220.43,422.01 L222.43,425.96 Z M221.60,429.42 L222.51,428.80 L222.47,427.63 L221.60,429.42 Z M214.44,427.77 L214.35,428.17 L214.78,427.72 L214.44,427.77 Z M213.44,431.90 L213.86,432.73 L213.79,430.46 L213.44,431.90 Z M212.01,434.99 L216.34,439.11 L214.86,437.31 L212.01,434.99 Z M143.96,81.82 L145.32,81.74 L145.03,80.93 L143.96,81.82 Z M142.89,88.41 L142.84,82.74 L142.54,83.00 L142.89,88.41 Z M148.23,111.10 L146.39,108.26 L147.04,110.24 L145.11,110.61 L148.23,111.10 Z M153.38,109.38 L154.29,108.52 L148.23,111.10 L153.38,109.38 Z M192.69,311.84 L192.34,311.59 L192.69,312.96 L192.69,311.84 Z M178.52,346.65 L180.48,337.28 L179.23,341.32 L179.05,342.26 L178.52,346.65 Z M178.58,366.67 L184.21,360.40 L180.18,364.87 L180.09,364.56 L178.58,366.67 Z M191.80,391.16 L191.33,390.42 L191.53,392.91 L191.80,391.16 Z M190.26,401.01 L190.81,397.51 L189.96,400.10 L190.26,401.01 Z M202.23,421.50 L189.07,422.79 L188.51,423.13 L198.02,422.44 L202.23,421.50 Z M182.02,435.68 L182.21,433.78 L181.78,434.39 L182.02,435.68 Z M187.89,437.83 L185.51,436.96 L189.84,440.06 L187.89,437.83 Z M159.04,380.68 L163.88,377.50 L161.03,378.44 L159.04,380.68 Z M165.18,374.32 L164.41,375.87 L163.88,377.50 L165.18,374.32 Z M167.30,375.04 L166.72,374.06 L165.18,374.32 L167.30,375.04 Z M168.51,435.08 L168.50,435.04 L168.50,435.08 L168.51,435.08 Z M165.30,441.78 L166.43,439.54 L164.98,441.70 L165.30,441.78 Z M159.49,401.13 L160.26,400.79 L159.02,403.88 L161.33,400.27 L159.49,401.13 Z M158.07,398.55 L157.32,398.29 L159.49,401.13 L158.07,398.55 Z M166.66,393.31 L165.87,393.07 L167.02,394.51 L166.66,393.31 Z M178.70,406.63 L173.18,406.89 L178.48,407.45 L178.70,406.63 Z M167.16,415.61 L166.78,415.74 L167.06,415.79 L167.16,415.61 Z M167.43,426.14 L168.07,431.45 L168.20,428.54 L167.43,426.14 Z M155.40,397.61 L156.35,398.72 L156.89,398.14 L155.40,397.61 Z M175.79,326.80 L176.20,326.48 L172.00,319.32 L175.79,326.80 Z M177.13,329.07 L177.45,328.60 L176.82,327.53 L177.13,329.07 Z M160.32,353.35 L155.40,348.37 L158.84,351.98 L160.32,353.35 Z M171.55,354.00 L170.52,352.15 L171.41,353.87 L171.55,354.00 Z M177.81,356.96 L173.14,355.52 L173.66,356.01 L177.81,356.96 Z M178.87,362.03 L179.68,363.19 L177.81,356.96 L178.87,362.03 Z M155.10,363.92 L156.00,362.16 L155.46,362.20 L155.10,363.92 Z M156.33,361.50 L156.74,360.71 L156.17,360.74 L156.33,361.50 Z M157.99,360.66 L159.19,361.60 L158.01,360.65 L157.99,360.66 Z M158.72,355.24 L158.53,355.17 L158.01,360.65 L158.72,355.24 Z M158.60,334.79 L159.02,333.16 L158.84,331.44 L158.60,334.79 Z M171.88,265.35 L168.92,266.81 L173.01,265.52 L171.88,265.35 Z M176.03,277.81 L174.01,267.84 L173.01,265.52 L176.03,277.81 Z M174.67,308.23 L174.84,305.40 L174.49,305.14 L174.67,308.23 Z M162.69,253.41 L164.11,250.31 L166.19,243.95 L162.69,253.41 Z M174.37,265.95 L177.51,262.77 L178.32,260.99 L174.37,265.95 Z M179.20,259.02 L179.65,258.05 L178.34,251.52 L179.20,259.02 Z M165.99,202.51 L164.11,199.52 L165.06,201.84 L165.99,202.51 Z M172.95,206.14 L168.24,204.12 L169.86,205.28 L172.95,206.14 Z M166.07,218.69 L165.83,216.97 L165.97,219.53 L168.38,216.71 L166.07,218.69 Z M160.91,191.70 L162.16,176.58 L162.04,177.78 L160.91,191.70 Z M166.54,120.21 L166.25,122.27 L166.43,122.50 L166.54,120.21 Z M183.38,127.08 L183.38,122.78 L182.85,130.09 L183.38,127.08 Z M156.37,154.48 L156.43,153.81 L156.23,154.24 L156.37,154.48 Z M176.62,143.75 L176.52,141.78 L176.21,143.86 L176.62,143.75 Z M198.26,356.96 L194.43,355.34 L195.18,355.76 L198.26,356.96 Z M199.50,377.07 L199.15,378.96 L200.63,373.63 L199.50,377.07 Z M201.16,380.76 L202.47,386.52 L202.05,381.97 L200.39,378.96 L201.16,380.76 Z M207.60,382.68 L206.61,379.51 L207.03,382.31 L207.60,382.68 Z M200.63,419.26 L201.05,419.84 L201.99,415.63 L200.63,419.26 Z M196.96,405.34 L198.36,404.51 L197.90,404.05 L196.96,405.34 Z M198.63,404.79 L197.31,408.09 L199.09,405.26 L198.63,404.79 Z M200.39,412.65 L202.31,414.23 L202.31,414.23 L200.39,412.65 Z M208.36,383.18 L208.99,383.60 L212.19,382.74 L213.19,381.81 L208.36,383.18 Z M203.59,356.01 L205.49,354.21 L206.62,351.89 L203.59,356.01 Z M190.56,335.09 L189.84,335.07 L189.90,335.56 L190.56,335.09 Z M197.73,335.22 L191.68,335.11 L191.92,335.48 L197.73,335.22 Z M197.90,332.12 L197.89,332.08 L197.73,335.22 L197.90,332.12 Z M199.45,330.92 L200.62,330.42 L200.62,330.42 L199.45,330.92 Z M201.20,331.39 L201.16,331.95 L202.88,334.19 L201.20,331.39 Z M196.23,325.91 L196.54,325.59 L196.54,322.50 L196.23,325.91 Z M192.51,325.76 L195.30,326.88 L195.78,326.38 L192.51,325.76 Z M204.70,322.01 L202.94,322.67 L204.60,322.41 L204.70,322.01 Z M212.96,191.88 L218.97,194.86 L212.25,190.76 L212.96,191.88 Z M214.09,204.25 L209.40,200.30 L207.92,198.41 L210.35,201.84 L214.09,204.25 Z M225.59,227.11 L224.46,221.70 L225.71,229.60 L225.59,227.11 Z M225.65,244.38 L225.89,241.18 L225.71,241.46 L225.65,244.38 Z M220.67,242.92 L220.62,240.11 L219.01,240.52 L220.61,240.43 L220.67,242.92 Z M216.52,264.00 L216.75,265.73 L216.87,264.06 L226.24,265.35 L217.35,264.06 L216.52,264.00 Z M218.25,279.89 L215.63,275.66 L217.29,279.53 L218.25,279.89 Z M219.78,282.37 L219.07,281.22 L219.54,284.09 L219.78,282.37 Z M217.47,285.12 L218.47,283.57 L217.20,285.05 L217.47,285.12 Z M190.94,185.85 L191.56,186.46 L194.17,185.95 L190.94,185.85 Z M206.14,246.88 L205.83,246.65 L204.96,253.49 L206.14,246.88 Z M206.74,243.35 L206.74,239.57 L206.01,245.24 L206.74,243.35 Z M210.29,236.39 L207.86,237.94 L206.74,239.57 L210.29,236.39 Z M212.18,235.04 L210.83,224.62 L210.54,224.39 L212.18,235.04 L212.18,235.04 Z M212.96,235.02 L213.49,233.47 L212.24,235.04 L212.96,235.02 Z M192.39,275.23 L193.58,280.13 L192.51,274.44 L192.39,275.23 Z M206.91,277.75 L206.41,276.88 L206.56,277.47 L206.91,277.75 Z M216.70,284.34 L213.91,284.26 L216.70,284.93 L216.70,284.34 Z M216.76,298.52 L219.51,301.60 L219.48,300.84 L216.76,298.52 Z M200.09,301.29 L200.63,301.96 L201.37,302.03 L200.09,301.29 Z M207.39,302.56 L209.94,301.10 L213.61,298.27 L207.39,302.56 Z M205.21,310.73 L204.48,312.01 L204.87,312.34 L205.21,310.73 Z M206.68,309.18 L207.57,306.60 L206.25,308.92 L206.68,309.18 Z M207.98,222.38 L209.46,223.93 L209.95,223.93 L207.98,222.38 Z M198.32,241.29 L197.43,241.46 L199.39,241.55 L198.32,241.29 Z M206.81,212.96 L207.16,213.46 L207.03,212.93 L206.81,212.96 Z M211.12,70.45 L213.91,68.82 L208.10,71.14 L211.12,70.45 Z M203.36,124.76 L200.39,126.48 L203.35,125.27 L203.36,124.76 Z M198.79,180.45 L198.95,178.96 L197.84,180.87 L198.79,180.45 Z M199.07,177.88 L199.15,177.10 L197.25,175.98 L199.07,177.88 Z M199.11,171.16 L198.32,171.94 L197.25,175.98 L199.11,171.16 Z M203.54,166.78 L202.52,167.79 L202.71,167.64 L207.39,164.89 L203.54,166.78 Z M204.07,87.72 L204.23,89.82 L204.54,88.92 L204.07,87.72 Z M212.10,96.27 L212.49,96.40 L215.04,96.92 L212.10,96.27 Z M200.17,82.53 L200.22,83.68 L201.82,85.40 L200.17,82.53 Z M200.26,80.75 L200.10,80.85 L200.11,81.07 L200.26,80.75 Z M259.58,308.62 L260.68,310.90 L260.09,308.75 L259.58,308.62 Z M257.42,316.83 L257.54,321.21 L257.60,318.89 L257.42,316.83 Z M252.21,244.47 L249.48,247.39 L251.55,246.02 L252.21,244.47 Z M255.11,246.45 L262.58,240.43 L263.05,239.91 L255.11,246.45 Z M271.59,243.65 L271.95,243.87 L271.77,241.29 L271.59,243.65 Z M271.83,245.07 L273.53,246.83 L273.56,246.79 L271.83,245.07 Z M272.89,248.26 L270.52,252.20 L273.61,248.25 L272.78,249.28 L272.89,248.26 Z M281.85,255.21 L281.41,256.28 L284.81,254.27 L281.85,255.21 Z M241.91,285.94 L241.71,285.37 L237.56,283.14 L241.91,285.94 Z M240.94,289.67 L243.37,288.84 L242.90,288.73 L240.94,289.67 Z M245.45,288.12 L245.86,286.32 L245.10,288.24 L245.45,288.12 Z M251.61,279.19 L251.43,278.07 L249.54,283.31 L251.61,279.19 Z M246.34,276.18 L244.97,276.44 L251.43,278.07 L246.34,276.18 Z M241.18,271.37 L243.08,274.46 L244.97,276.44 L241.18,271.37 Z M251.93,274.54 L251.43,273.26 L249.48,271.11 L251.93,274.54 Z M261.12,277.47 L262.42,275.94 L261.10,276.61 L260.68,273.60 L261.12,277.47 Z M265.86,274.79 L265.54,274.37 L264.43,274.93 L265.86,274.79 Z M243.14,295.86 L240.88,300.93 L243.29,295.74 L243.14,295.86 Z M245.45,294.05 L244.55,294.76 L246.13,294.47 L245.45,294.05 Z M246.75,309.44 L249.83,306.09 L250.90,304.62 L246.75,309.44 Z M253.45,307.03 L257.36,308.84 L258.92,308.45 L253.45,307.03 Z M264.12,280.65 L261.23,278.41 L261.33,279.36 L264.12,280.65 Z M239.47,256.67 L237.15,256.67 L238.69,257.27 L239.47,256.67 Z M245.09,256.07 L243.20,254.95 L249.89,260.54 L245.09,256.07 Z M240.28,259.74 L240.53,262.26 L240.47,260.02 L240.28,259.74 Z M265.54,262.43 L267.22,258.36 L266.91,258.48 L265.54,262.43 Z M278.94,264.29 L279.86,260.10 L278.64,263.12 L278.94,264.29 Z M245.63,250.83 L249.91,250.10 L249.06,249.45 L245.63,250.83 Z M257.73,254.57 L255.70,249.11 L257.42,253.84 L257.08,254.50 L257.73,254.57 Z M257.93,254.59 L258.96,254.70 L261.33,252.29 L257.93,254.59 Z M229.68,203.65 L231.46,204.17 L228.02,201.16 L226.39,199.99 L229.68,203.65 Z M238.21,212.42 L236.67,210.78 L234.07,209.32 L238.21,212.42 Z M252.32,209.49 L253.48,207.53 L253.45,207.52 L252.32,209.49 Z M272.95,216.11 L263.41,205.97 L253.21,195.49 L259.97,202.96 L272.95,216.11 Z M248.89,194.11 L244.62,193.60 L253.21,195.49 L248.89,194.11 Z M242.32,189.95 L242.60,191.45 L244.62,193.60 L242.32,189.95 Z M238.63,214.91 L246.87,220.15 L255.83,225.72 L254.70,219.89 L255.05,224.45 L238.63,214.91 Z M266.02,230.81 L264.00,230.81 L261.75,231.06 L266.02,230.81 Z M272.77,193.64 L272.06,194.28 L272.02,195.29 L272.77,193.64 Z M271.83,199.18 L272.18,197.29 L271.93,197.06 L271.83,199.18 Z M235.31,182.17 L235.84,186.89 L235.84,184.23 L235.31,182.17 Z M239.01,196.88 L240.59,192.48 L238.99,196.86 L239.01,196.88 Z M228.02,185.09 L227.01,184.14 L226.30,185.00 L228.02,185.09 Z M231.52,185.26 L232.09,184.79 L230.78,185.22 L231.52,185.26 Z M231.99,359.37 L232.14,358.44 L230.16,359.39 L231.99,359.37 Z M499.70,375.44 L499.64,376.90 L501.13,379.39 L498.87,381.28 L499.47,385.32 L496.92,388.67 L496.68,394.08 L493.18,394.69 L492.06,393.91 L486.96,379.05 L488.74,379.22 L487.91,378.44 L492.12,372.77 L497.45,371.14 L497.81,374.49 L498.52,375.09 L499.70,375.44 Z M499.82,376.90 L500.18,375.09 L501.60,375.44 L503.26,373.72 L504.03,374.23 L504.33,377.93 L503.38,378.96 L501.36,379.30 L499.82,376.90 Z M503.79,369.94 L501.36,371.57 L500.89,370.11 L501.13,372.43 L502.43,374.15 L501.54,375.18 L498.64,374.92 L497.93,370.19 L499.70,368.65 L503.02,368.65 L503.79,369.94 Z M488.14,376.64 L486.19,377.67 L482.63,371.91 L485.59,368.82 L490.81,355.24 L493.83,352.40 L496.86,352.23 L498.58,356.62 L499.53,356.96 L499.05,355.41 L500.41,355.67 L501.19,354.90 L501.48,357.22 L502.55,357.65 L501.96,354.81 L505.99,356.10 L505.51,358.76 L507.17,362.55 L506.46,365.04 L503.32,368.05 L500.41,367.79 L500.12,366.58 L497.63,369.42 L495.26,360.57 L497.39,369.68 L496.38,370.88 L491.23,372.08 L488.14,376.64 Z M500.06,354.04 L500.47,353.95 L500.47,354.30 L500.06,354.04 Z M528.57,353.78 L528.10,353.52 L528.51,352.83 L528.99,353.52 L528.57,353.78 Z M504.39,349.74 L505.28,350.08 L506.46,353.78 L506.58,355.33 L505.22,355.07 L504.21,351.80 L505.10,351.03 L504.39,349.74 Z M507.11,350.51 L508.48,351.29 L507.41,351.63 L507.11,350.51 Z M504.21,350.43 L503.85,349.65 L504.21,350.00 L504.21,350.43 Z M507.88,349.14 L507.77,348.88 L508.06,349.14 L507.88,349.14 Z M507.17,347.76 L507.35,348.97 L506.64,349.05 L507.17,347.76 Z M508.71,346.13 L508.77,346.39 L508.30,346.13 L508.71,346.13 Z M506.76,345.01 L507.41,347.08 L506.52,346.56 L506.76,345.01 Z M509.01,343.64 L508.36,344.67 L507.94,344.41 L509.01,343.64 Z M506.46,343.98 L505.87,343.55 L506.64,343.12 L506.46,343.98 Z M538.59,342.44 L538.41,341.23 L539.24,341.49 L540.84,343.30 L541.14,344.50 L540.01,344.58 L538.59,342.44 Z M512.75,339.00 L513.99,340.98 L515.06,340.55 L515.53,342.78 L514.17,343.38 L514.58,344.50 L513.46,345.44 L512.09,344.33 L512.63,342.78 L511.86,339.77 L512.75,339.00 Z M543.04,342.09 L543.10,341.75 L543.22,342.26 L543.04,342.09 Z M530.83,339.43 L527.98,339.94 L528.10,337.28 L531.00,338.05 L530.83,339.43 Z M520.39,340.46 L519.38,342.09 L518.67,341.41 L518.67,344.41 L516.66,343.81 L516.42,342.69 L517.25,342.35 L514.70,340.03 L517.25,338.31 L516.42,334.79 L517.78,335.22 L515.89,329.29 L515.59,331.78 L514.82,331.61 L513.81,327.91 L518.26,330.23 L517.49,332.21 L519.80,333.76 L519.98,331.95 L521.40,333.58 L521.99,332.90 L521.99,335.99 L524.48,333.84 L524.60,335.73 L523.00,336.16 L523.71,336.85 L523.00,338.40 L524.78,339.17 L523.30,340.20 L524.36,340.98 L523.06,340.98 L521.64,343.30 L520.33,342.26 L520.39,340.46 Z M516.12,336.68 L515.35,337.45 L513.34,338.91 L512.69,335.99 L513.75,332.90 L514.17,336.51 L516.12,336.68 Z M525.43,335.65 L525.49,333.93 L526.02,334.19 L526.50,336.25 L525.43,335.65 Z M504.27,332.47 L505.10,335.99 L505.45,337.19 L504.15,334.62 L502.79,334.53 L503.91,333.93 L504.27,332.47 Z M502.49,334.01 L502.19,334.01 L502.19,333.50 L502.49,334.01 Z M503.50,333.93 L503.20,333.76 L503.50,333.24 L503.50,333.93 Z M506.17,334.36 L506.22,331.69 L506.70,330.92 L507.53,333.16 L507.17,334.36 L505.28,334.87 L506.17,334.36 Z M505.63,328.51 L505.63,328.77 L505.39,328.60 L505.63,328.51 Z M507.77,327.05 L508.60,328.60 L508.36,329.37 L507.29,328.34 L507.77,327.05 Z M507.53,326.28 L507.47,326.97 L507.11,325.94 L507.53,326.28 Z M565.92,481.65 L565.39,480.71 L565.80,480.19 L565.92,481.65 Z M564.62,476.67 L565.51,478.04 L564.44,477.44 L564.62,476.67 Z M561.89,474.26 L563.79,478.22 L560.11,474.69 L559.64,472.46 L561.47,473.14 L561.89,474.26 Z M565.92,474.52 L566.39,475.81 L565.03,475.12 L565.92,474.52 Z M552.05,474.86 L551.99,475.72 L550.86,474.95 L551.99,473.75 L552.05,474.86 Z M554.48,474.18 L554.89,474.00 L555.01,474.95 L554.48,474.18 Z M563.13,474.78 L562.36,474.52 L562.90,473.92 L563.13,474.78 Z M561.77,473.57 L562.01,473.49 L561.77,473.83 L561.77,473.57 Z M555.01,473.92 L554.42,472.11 L555.61,472.54 L555.01,473.92 Z M548.67,471.68 L549.32,471.68 L549.14,472.20 L548.67,471.68 Z M566.10,470.65 L566.39,472.63 L565.62,471.34 L566.10,470.65 Z M564.44,470.74 L564.14,470.57 L564.38,470.40 L564.44,470.74 Z M568.53,470.22 L568.88,469.02 L570.19,471.86 L569.18,471.43 L568.53,470.22 Z M550.03,472.72 L548.43,467.99 L551.28,467.22 L552.29,470.65 L553.59,471.60 L551.93,473.23 L550.80,471.17 L550.03,472.72 Z M549.32,466.44 L549.26,466.87 L547.90,466.53 L548.55,465.50 L549.32,466.44 Z M572.50,465.93 L572.68,465.58 L572.86,466.27 L572.50,465.93 Z M556.02,462.75 L557.15,464.55 L556.02,465.24 L554.36,463.86 L556.02,462.75 Z M554.60,461.46 L554.60,460.51 L555.43,460.25 L554.60,461.46 Z M560.82,457.93 L560.23,456.90 L560.59,456.65 L560.82,457.93 Z M551.63,452.18 L551.10,451.66 L551.57,451.58 L551.63,452.18 Z M547.25,443.58 L548.67,444.10 L546.54,448.31 L545.76,447.88 L546.36,445.90 L547.25,443.58 Z M573.45,445.82 L573.45,444.53 L574.34,445.30 L573.98,446.25 L573.45,445.82 Z M573.27,444.27 L573.45,442.81 L574.75,442.64 L576.18,442.81 L576.12,444.27 L574.22,443.24 L573.27,444.27 Z M574.22,434.39 L574.46,434.22 L574.46,434.39 L574.22,434.39 Z M573.57,433.87 L573.15,433.79 L573.57,433.44 L573.57,433.87 Z M575.46,432.24 L574.58,433.10 L572.74,432.15 L571.61,433.70 L570.54,429.92 L571.08,428.54 L572.56,429.15 L571.49,430.18 L571.97,430.78 L574.63,431.12 L573.80,431.38 L573.86,431.98 L575.17,430.86 L575.46,432.24 Z M569.36,429.75 L567.94,430.09 L568.83,428.80 L569.36,429.75 Z M570.49,428.54 L568.88,428.46 L569.42,427.34 L570.49,428.54 Z M572.68,428.63 L571.55,426.74 L571.79,425.88 L574.16,425.88 L572.68,428.63 Z M569.66,426.14 L569.36,426.83 L568.41,426.31 L568.83,425.02 L570.49,425.88 L569.66,426.14 Z M572.44,419.26 L572.50,419.78 L572.03,420.04 L572.44,419.26 Z M497.27,388.76 L499.82,385.06 L499.41,380.85 L501.30,379.73 L504.92,379.47 L505.87,382.14 L505.10,383.08 L505.57,386.35 L507.83,388.84 L506.52,382.83 L507.29,383.77 L507.94,382.83 L506.17,380.59 L507.35,381.02 L507.83,379.73 L506.58,379.73 L506.11,378.27 L507.83,377.41 L506.11,371.48 L507.88,369.08 L506.76,367.87 L505.99,368.56 L505.93,371.57 L504.45,374.23 L501.48,372.60 L504.56,370.62 L504.09,367.87 L507.71,366.41 L507.17,364.35 L509.60,357.05 L509.01,353.01 L508.00,356.79 L506.76,355.76 L507.65,355.07 L507.35,352.58 L508.77,352.32 L509.96,346.82 L509.07,346.13 L509.43,342.78 L508.12,342.87 L508.24,341.32 L505.28,342.18 L504.51,340.37 L505.04,337.88 L506.46,338.74 L507.17,336.33 L509.84,337.45 L509.84,335.91 L508.83,335.82 L509.54,333.58 L508.66,330.66 L509.48,330.32 L508.77,328.51 L509.72,327.40 L511.38,328.51 L511.03,331.35 L512.45,332.47 L511.56,333.93 L511.44,339.26 L509.43,341.66 L510.31,342.87 L511.74,342.44 L511.56,347.76 L513.22,346.90 L514.58,347.76 L514.23,354.55 L515.06,351.98 L516.07,351.55 L514.88,347.51 L516.95,348.71 L517.37,346.82 L519.86,347.42 L521.52,346.39 L524.07,351.89 L524.48,347.68 L525.73,348.02 L526.32,345.10 L527.03,347.51 L527.86,345.44 L528.10,347.51 L526.08,355.24 L528.81,354.55 L529.88,352.83 L529.46,351.12 L531.12,350.26 L529.52,348.62 L529.70,345.01 L530.89,345.70 L531.36,344.07 L536.64,346.99 L532.72,343.30 L532.84,342.09 L534.21,342.78 L535.15,341.75 L537.70,343.30 L538.95,345.79 L539.96,344.93 L541.14,347.59 L538.83,352.40 L538.59,356.79 L540.79,354.30 L540.49,352.32 L541.67,349.74 L544.58,360.23 L547.84,361.08 L547.48,359.71 L545.88,359.28 L544.70,356.10 L546.18,354.38 L543.10,350.60 L542.86,347.85 L545.05,346.82 L546.42,347.85 L543.63,345.70 L543.28,342.61 L545.05,342.01 L544.99,343.64 L546.95,343.04 L547.48,341.58 L548.08,343.98 L550.33,345.19 L550.80,344.58 L548.97,342.26 L549.56,341.58 L550.86,343.04 L551.75,341.41 L551.46,344.76 L553.71,346.39 L552.52,342.44 L553.12,340.80 L554.72,343.55 L554.83,341.32 L556.91,343.47 L558.98,341.41 L558.87,343.12 L559.99,344.24 L560.05,342.35 L560.59,343.64 L560.05,349.40 L561.53,347.51 L562.36,352.15 L564.02,351.29 L564.32,354.30 L565.98,353.44 L565.27,355.93 L565.80,360.05 L564.32,364.18 L564.08,371.31 L562.72,371.14 L563.08,372.51 L562.28,373.09 L564.08,372.77 L565.56,376.64 L565.15,380.85 L566.22,381.88 L569.30,383.77 L566.22,378.87 L571.08,375.01 L570.84,372.94 L569.66,373.72 L569.18,376.04 L567.70,373.72 L566.39,373.89 L565.68,368.47 L566.93,365.04 L568.23,364.78 L568.23,366.84 L567.17,367.10 L566.99,372.00 L567.82,372.94 L570.60,370.37 L570.54,367.70 L571.55,368.56 L572.20,366.07 L574.16,366.33 L574.40,368.90 L572.86,368.05 L571.79,369.85 L573.63,370.28 L574.58,372.34 L572.86,372.77 L572.20,376.21 L575.46,375.26 L573.03,377.24 L574.16,378.44 L573.98,380.33 L575.11,379.13 L577.24,379.90 L575.70,378.70 L575.70,377.58 L576.71,377.84 L575.88,376.04 L577.95,376.98 L579.56,380.33 L576.89,384.12 L579.14,384.12 L580.33,385.92 L580.92,384.63 L579.56,382.74 L581.87,378.10 L581.04,376.72 L583.65,375.87 L583.17,373.97 L584.24,374.49 L584.12,376.72 L585.01,375.44 L587.02,376.55 L585.48,377.33 L585.36,379.05 L586.37,377.67 L586.97,379.05 L588.45,378.19 L589.40,380.16 L592.00,380.51 L592.36,381.37 L591.29,381.54 L592.66,384.20 L592.89,388.76 L594.73,387.38 L593.60,386.26 L595.15,386.09 L598.47,389.10 L597.22,388.58 L596.69,389.36 L597.22,389.01 L597.40,391.51 L596.33,394.51 L598.35,391.94 L599.24,392.79 L598.29,394.17 L599.59,394.17 L599.95,389.96 L601.01,391.25 L601.25,394.43 L602.97,396.49 L603.09,400.19 L601.96,401.30 L603.33,401.90 L602.97,405.60 L601.96,405.86 L602.56,403.54 L601.73,402.33 L600.96,403.11 L601.01,400.70 L601.96,399.76 L601.19,398.81 L600.66,400.36 L598.58,400.79 L597.64,397.78 L596.57,398.90 L597.22,401.04 L595.98,401.39 L595.68,398.38 L592.24,396.40 L592.36,394.69 L590.64,395.03 L592.18,394.51 L590.58,393.14 L592.54,392.45 L591.94,390.22 L589.63,392.37 L588.03,391.76 L587.85,393.65 L586.08,391.76 L585.48,388.76 L584.48,390.13 L585.13,392.02 L586.49,392.28 L586.02,394.08 L588.39,395.03 L587.38,396.75 L589.22,396.23 L589.57,397.95 L592.95,400.10 L594.26,398.55 L593.78,400.70 L595.03,401.90 L594.79,403.45 L594.02,403.19 L594.26,404.65 L596.04,405.00 L594.55,407.32 L595.62,407.66 L597.22,411.96 L598.58,412.13 L598.64,414.11 L595.74,410.93 L594.79,411.61 L596.09,413.51 L595.15,414.28 L594.14,411.44 L593.01,412.13 L593.72,415.48 L591.65,412.30 L591.11,414.11 L590.70,413.16 L590.17,414.45 L588.63,414.19 L587.50,411.01 L589.16,410.07 L587.20,408.44 L588.86,407.83 L588.74,403.54 L587.85,406.63 L583.70,403.97 L584.83,406.29 L586.43,406.54 L586.25,408.01 L585.48,407.58 L586.85,408.78 L586.73,410.33 L585.31,408.52 L584.83,409.81 L586.61,412.04 L585.90,412.47 L584.18,409.72 L584.30,407.32 L582.46,405.43 L583.23,404.48 L582.70,401.65 L582.28,404.57 L581.39,404.14 L580.15,398.55 L579.02,398.04 L576.53,392.28 L577.84,391.51 L575.76,388.76 L575.76,381.88 L574.34,382.22 L573.33,380.33 L572.62,381.79 L573.33,383.17 L571.91,382.91 L572.38,381.79 L571.08,379.05 L572.09,377.93 L570.31,377.15 L569.71,379.47 L568.77,379.56 L571.55,383.00 L570.37,384.54 L572.38,387.04 L572.32,388.58 L573.69,388.50 L573.80,389.87 L575.11,390.30 L574.22,390.82 L575.76,392.97 L575.23,394.51 L577.18,395.80 L575.70,397.35 L577.42,400.10 L574.87,400.96 L578.84,400.36 L580.92,406.63 L582.58,407.32 L581.51,407.15 L582.16,408.78 L581.57,409.47 L580.50,408.09 L579.67,409.47 L577.66,408.18 L572.74,409.38 L571.91,407.49 L572.86,412.30 L571.67,413.16 L573.03,412.73 L573.98,409.72 L576.77,409.21 L576.71,411.79 L579.14,410.33 L579.73,411.61 L581.51,409.98 L582.82,412.47 L581.51,411.27 L579.85,411.87 L579.61,413.08 L581.33,412.39 L582.10,413.59 L579.38,415.74 L577.95,414.97 L578.31,416.34 L577.36,415.83 L577.01,417.29 L576.00,415.83 L578.67,413.76 L578.61,412.30 L575.52,413.59 L575.29,410.50 L574.40,411.27 L574.28,414.28 L572.92,414.28 L572.68,416.00 L569.60,416.68 L567.82,414.88 L568.41,414.19 L567.64,413.16 L567.70,416.26 L569.18,417.20 L567.58,416.77 L566.93,417.89 L565.86,416.86 L564.97,419.18 L563.61,417.97 L564.97,420.29 L564.56,421.41 L566.69,418.58 L568.94,419.78 L570.66,422.70 L571.49,421.76 L570.25,419.18 L571.79,420.47 L571.73,423.13 L572.50,423.47 L570.90,424.59 L569.12,423.73 L567.82,424.85 L567.52,427.26 L566.10,423.99 L565.51,427.26 L564.08,424.85 L565.33,422.61 L563.19,423.99 L563.19,419.26 L561.42,419.26 L559.76,414.45 L560.82,414.36 L562.48,416.94 L563.85,416.00 L559.28,412.39 L560.11,408.44 L559.16,408.44 L558.15,405.69 L552.88,401.39 L557.56,405.94 L558.57,415.65 L558.04,418.15 L559.34,418.66 L561.12,423.04 L560.88,424.76 L561.53,423.82 L562.84,424.68 L564.44,428.29 L564.14,430.01 L565.80,431.64 L567.22,432.67 L567.64,434.82 L568.65,433.87 L573.27,436.79 L574.46,435.59 L577.42,438.43 L577.42,440.06 L578.19,438.94 L580.33,440.40 L580.92,441.26 L579.85,443.67 L581.39,444.96 L581.04,447.71 L580.33,449.08 L577.18,449.77 L577.48,447.88 L575.88,447.71 L578.90,446.85 L576.47,443.93 L577.54,443.67 L576.83,441.69 L575.94,442.38 L574.10,439.97 L570.96,439.29 L571.20,443.41 L574.28,448.65 L573.45,452.09 L573.98,452.86 L572.92,453.29 L571.79,456.56 L573.80,458.19 L572.92,462.49 L573.57,464.21 L571.08,463.26 L571.32,466.61 L569.77,465.07 L569.83,468.50 L567.88,467.04 L566.87,468.68 L567.22,470.48 L565.74,470.31 L564.50,467.82 L566.99,467.04 L566.04,465.41 L568.47,464.21 L568.71,462.32 L566.04,458.28 L566.45,456.90 L563.37,456.30 L563.61,457.68 L565.21,458.36 L563.67,459.14 L564.44,461.37 L562.84,461.54 L561.95,459.14 L562.07,453.72 L560.82,456.22 L560.41,454.07 L556.67,453.47 L557.27,456.65 L558.39,454.32 L559.10,463.35 L557.27,462.32 L553.83,456.04 L552.76,461.37 L548.73,457.85 L546.77,453.29 L548.02,451.15 L550.09,451.75 L550.63,450.72 L550.57,453.21 L552.70,456.99 L551.87,452.09 L552.88,450.29 L557.32,451.15 L558.21,452.86 L559.16,450.20 L561.42,452.18 L563.31,449.43 L562.25,447.11 L558.87,449.00 L556.73,446.93 L555.72,447.45 L554.78,444.29 L555.13,446.25 L552.52,445.73 L552.05,447.02 L551.34,445.90 L551.04,447.54 L549.50,448.22 L547.72,447.36 L548.37,444.79 L550.27,444.70 L548.37,440.40 L548.73,438.68 L549.86,439.03 L549.44,437.91 L545.17,437.91 L546.12,439.37 L545.23,442.72 L544.58,441.52 L543.63,442.55 L542.45,441.78 L542.21,437.91 L540.84,438.51 L537.70,437.48 L535.92,440.75 L538.35,445.30 L536.28,447.02 L538.95,452.52 L538.59,456.22 L538.41,455.36 L537.70,456.22 L537.35,452.43 L536.40,452.00 L536.93,450.37 L536.04,450.20 L536.58,449.43 L534.62,445.82 L535.87,443.93 L534.68,441.78 L532.66,442.98 L534.09,444.79 L534.03,448.05 L532.07,445.65 L532.07,448.48 L531.18,448.57 L530.41,441.26 L528.75,443.33 L528.63,441.52 L526.80,439.89 L528.93,439.20 L527.98,437.48 L525.61,437.14 L525.08,438.43 L523.71,436.28 L522.47,436.28 L522.59,433.44 L521.22,434.04 L518.08,430.01 L520.04,428.72 L521.34,431.38 L522.41,431.64 L523.06,429.66 L524.25,430.95 L523.30,429.15 L523.53,423.82 L520.16,420.38 L522.94,421.41 L520.33,419.69 L521.52,418.06 L519.50,417.54 L519.33,413.68 L517.73,412.56 L516.42,414.79 L515.35,409.04 L510.79,403.19 L510.43,400.61 L489.92,396.75 L489.27,393.05 L489.86,391.68 L493.00,395.20 L499.35,396.92 L502.31,395.97 L499.70,396.58 L495.97,395.20 L497.39,393.05 L497.27,388.76 Z M519.50,378.19 L518.81,377.21 L519.44,381.45 L519.50,378.19 Z M554.42,439.63 L553.53,437.31 L554.17,440.88 L554.42,439.63 Z M554.18,436.71 L556.32,433.44 L553.53,437.31 L554.18,436.71 Z M575.05,384.63 L574.93,385.83 L574.22,383.60 L574.69,383.60 L575.05,384.63 Z M572.44,384.46 L572.32,383.69 L572.80,383.34 L572.44,384.46 Z M570.01,368.73 L569.66,370.11 L568.41,369.68 L568.05,368.30 L570.01,368.73 Z M567.70,357.05 L569.36,360.57 L567.64,361.17 L567.70,357.05 Z M561.59,346.90 L561.59,347.33 L561.00,346.65 L561.59,346.90 Z M579.91,484.66 L579.32,484.06 L579.56,483.46 L579.91,484.66 Z M578.61,482.86 L578.96,482.60 L578.49,484.40 L578.61,482.86 Z M575.58,474.26 L576.41,473.83 L576.00,474.52 L575.58,474.26 Z M578.43,473.49 L578.84,472.80 L579.26,473.49 L579.02,474.00 L578.43,473.49 Z M577.36,466.79 L577.95,467.65 L577.01,469.19 L578.37,469.36 L578.73,471.25 L576.35,470.40 L577.36,466.79 Z M576.41,465.41 L575.82,460.34 L576.47,461.89 L577.90,462.66 L576.41,465.41 Z M575.82,460.08 L575.23,459.57 L576.06,459.31 L575.82,460.08 Z M579.08,457.68 L579.79,457.42 L580.62,459.82 L579.20,459.48 L579.08,457.68 Z M578.25,455.36 L578.67,453.29 L579.50,455.10 L578.55,455.87 L578.25,455.36 Z M575.17,457.42 L574.87,456.22 L576.24,455.61 L575.29,454.93 L576.83,454.07 L574.46,451.40 L575.46,452.18 L576.24,450.97 L577.36,452.78 L578.37,450.37 L579.79,449.77 L577.78,453.12 L577.60,456.04 L578.67,457.93 L577.72,458.19 L575.17,457.42 Z M578.73,451.83 L579.56,451.23 L579.85,451.92 L578.84,452.61 L578.73,451.83 Z M575.52,449.68 L575.35,451.06 L574.46,448.83 L575.05,448.48 L575.52,449.68 Z M574.93,446.93 L575.11,446.33 L575.58,447.28 L574.93,446.93 Z M574.87,444.96 L575.11,445.47 L574.58,445.47 L574.87,444.96 Z M575.88,433.18 L576.47,433.87 L575.35,434.65 L575.11,434.13 L575.88,433.18 Z M576.18,433.01 L576.47,432.33 L576.59,432.76 L576.18,433.01 Z M575.70,432.15 L575.70,431.21 L576.41,432.07 L575.70,432.15 Z M577.72,431.81 L576.59,428.72 L574.10,428.11 L578.19,427.34 L580.27,429.32 L576.95,429.06 L579.73,431.55 L577.72,431.81 Z M580.50,426.74 L580.74,426.83 L580.74,427.17 L580.50,426.74 Z M576.29,425.97 L576.29,425.54 L577.24,425.79 L576.29,425.97 Z M575.35,425.79 L574.99,425.62 L575.11,425.45 L575.35,425.79 Z M579.38,423.56 L579.67,424.33 L579.32,423.99 L579.38,423.56 Z M576.41,423.13 L576.53,422.18 L577.01,423.39 L576.41,423.13 Z M580.74,418.75 L580.33,420.21 L577.95,419.69 L578.90,419.01 L579.08,416.34 L580.74,418.75 Z M575.05,414.88 L577.78,420.72 L577.36,421.50 L574.16,416.00 L575.05,414.88 Z M580.09,376.47 L579.97,376.81 L579.97,376.55 L580.09,376.47 Z M579.67,376.12 L579.85,376.21 L579.73,376.47 L579.67,376.12 Z M580.39,373.89 L580.62,376.21 L579.61,375.78 L580.03,374.06 L580.39,373.89 Z M582.76,372.86 L582.16,372.08 L577.78,375.52 L577.24,372.60 L578.61,373.97 L581.10,370.88 L582.52,371.91 L582.76,372.86 Z M575.52,371.22 L574.93,372.17 L574.40,370.28 L575.52,371.22 Z M576.89,371.05 L576.24,368.22 L577.01,368.05 L577.78,370.02 L576.89,371.05 Z M578.25,369.51 L578.43,369.08 L578.67,369.68 L578.25,369.51 Z M579.20,368.99 L579.44,368.73 L579.61,368.82 L579.20,368.99 Z M577.42,368.39 L577.48,367.62 L578.07,368.22 L577.90,368.65 L577.42,368.39 Z M575.35,366.67 L575.58,366.58 L575.41,367.44 L575.35,366.67 Z M577.30,363.58 L576.83,363.23 L577.18,363.06 L577.30,363.58 Z M575.70,362.80 L576.65,361.34 L576.77,362.63 L575.70,362.80 Z M582.10,480.71 L582.70,476.75 L584.00,476.93 L584.18,478.22 L582.82,478.82 L582.10,480.71 Z M581.57,477.27 L581.45,476.50 L581.81,476.41 L582.34,477.36 L581.57,477.27 Z M581.39,464.64 L580.80,463.52 L581.75,463.18 L581.39,464.64 Z M587.32,464.29 L584.77,459.57 L585.13,459.22 L586.85,461.97 L587.32,464.29 Z M585.48,455.61 L586.73,460.34 L584.83,458.36 L584.89,455.70 L583.82,456.04 L585.96,453.29 L586.49,454.67 L585.48,455.61 Z M589.04,455.27 L589.28,454.50 L589.87,455.27 L589.04,455.27 Z M588.45,451.40 L587.97,453.98 L585.48,450.11 L586.43,448.83 L588.45,451.40 Z M584.83,450.11 L585.07,450.03 L584.89,450.80 L584.83,450.11 Z M585.01,447.02 L582.46,443.75 L582.93,443.24 L585.66,445.39 L585.01,447.02 Z M580.27,442.81 L581.27,442.90 L581.69,442.29 L581.39,443.93 L580.27,442.81 Z M585.78,439.89 L585.19,437.91 L586.19,439.11 L587.38,438.43 L589.75,441.52 L586.85,440.92 L587.14,439.72 L585.78,439.89 Z M581.99,430.78 L582.40,433.53 L584.18,434.22 L583.70,432.24 L584.65,432.15 L587.08,436.62 L585.66,437.57 L584.42,436.54 L585.72,436.02 L584.77,434.04 L583.82,436.62 L582.58,435.08 L581.22,435.76 L580.86,434.82 L581.63,434.39 L579.91,432.84 L580.86,431.72 L580.39,430.43 L581.99,430.78 Z M582.87,431.47 L582.93,431.64 L582.28,431.90 L582.87,431.47 Z M585.48,430.69 L585.13,431.47 L585.19,430.95 L585.48,430.69 Z M590.76,430.78 L591.00,430.52 L590.94,431.04 L590.76,430.78 Z M584.36,429.23 L585.25,429.32 L586.19,428.63 L586.85,430.35 L584.36,429.23 Z M582.22,428.63 L582.64,429.06 L582.04,429.23 L582.22,428.63 Z M590.23,428.11 L589.40,428.97 L590.46,430.86 L589.93,431.81 L587.74,430.09 L587.62,426.40 L585.60,423.39 L590.23,428.11 Z M583.53,427.86 L584.00,427.26 L584.12,427.68 L583.53,427.86 Z M580.98,426.74 L580.62,425.71 L582.10,425.97 L582.22,427.17 L580.98,426.74 Z M584.95,425.36 L585.72,426.74 L585.13,427.43 L583.23,425.62 L584.95,425.36 Z M595.74,423.39 L596.09,423.22 L596.51,423.73 L596.04,424.33 L595.74,423.39 Z M583.29,421.07 L583.70,422.36 L586.61,422.10 L582.99,423.99 L582.40,425.71 L583.29,421.07 Z M581.75,422.61 L581.81,423.04 L581.57,422.79 L581.75,422.61 Z M587.85,424.08 L588.21,420.72 L585.36,416.94 L585.60,415.14 L586.73,416.68 L588.03,415.91 L589.34,416.94 L589.34,420.38 L590.34,421.67 L591.06,420.98 L589.81,420.21 L590.23,417.72 L592.18,419.09 L591.41,416.77 L593.01,416.68 L594.26,418.58 L592.42,419.52 L593.49,421.24 L591.77,421.58 L592.42,424.08 L595.21,421.41 L592.54,424.42 L593.84,424.93 L590.64,426.48 L587.85,424.08 Z M598.23,419.09 L596.39,422.61 L596.51,419.35 L595.68,418.06 L598.05,417.20 L598.23,419.09 Z M583.23,416.94 L582.22,418.75 L583.23,420.47 L581.04,418.58 L580.80,417.11 L582.10,415.31 L583.23,416.94 Z M594.55,417.89 L595.09,417.46 L595.32,417.80 L594.55,417.89 Z M584.71,418.06 L583.65,417.63 L583.35,416.26 L584.71,418.06 Z M596.57,415.48 L597.04,415.40 L597.22,415.91 L596.63,416.26 L596.57,415.48 Z M583.47,415.65 L583.05,414.88 L583.41,414.62 L583.47,415.65 Z M596.39,415.14 L595.92,415.57 L595.98,414.36 L596.39,415.14 Z M584.89,414.88 L584.24,414.45 L584.42,414.28 L584.89,414.88 Z M594.67,400.01 L595.26,399.93 L595.50,400.61 L594.67,400.01 Z M592.30,379.90 L592.30,379.05 L592.48,379.56 L592.30,379.90 Z M581.33,378.27 L581.10,377.76 L581.33,377.58 L581.33,378.27 Z M581.69,372.86 L581.81,373.12 L581.51,373.12 L581.69,372.86 Z M960.32,954.99 L965.36,951.81 L972.65,941.41 L978.22,940.64 L980.35,935.82 L980.77,938.92 L979.41,946.57 L976.56,953.79 L975.08,954.99 L973.77,958.94 L971.28,960.57 L972.11,970.11 L968.50,979.22 L965.18,980.77 L961.74,976.56 L957.89,975.61 L952.20,978.45 L949.05,976.21 L943.48,977.76 L940.93,976.39 L950.36,962.29 L955.10,960.40 L960.32,954.99 Z M634.69,556.16 L634.63,556.07 L634.69,555.99 L634.69,556.16 Z M635.16,555.21 L635.28,554.96 L635.46,555.30 L635.16,555.21 Z M637.12,554.27 L637.18,554.53 L636.94,554.78 L637.12,554.27 Z M640.79,554.35 L640.61,554.01 L640.85,553.92 L640.79,554.35 Z M625.68,555.21 L625.85,553.92 L627.16,552.55 L628.28,555.64 L625.68,555.21 Z M638.18,555.21 L637.47,553.41 L637.89,552.81 L638.18,555.21 Z M658.34,552.89 L659.64,551.52 L662.55,555.39 L659.94,555.04 L659.76,553.41 L658.34,552.89 Z M662.79,553.41 L663.14,552.72 L663.44,553.50 L662.79,553.41 Z M625.26,553.15 L625.20,553.15 L625.26,552.98 L625.26,553.15 Z M664.21,553.24 L663.67,553.24 L664.09,552.72 L664.21,553.24 Z M620.10,551.95 L620.04,552.81 L619.57,552.98 L620.10,551.95 Z M638.54,552.55 L639.61,553.32 L637.83,552.46 L637.71,551.52 L638.54,552.55 Z M615.12,553.32 L615.42,551.43 L616.19,551.52 L615.89,553.15 L615.12,553.32 Z M661.90,552.46 L661.72,552.03 L661.96,551.78 L661.90,552.46 Z M660.95,551.43 L660.95,551.69 L660.59,551.69 L660.95,551.43 Z M623.19,551.69 L622.47,553.41 L621.59,549.97 L620.40,551.35 L619.39,549.80 L621.53,549.46 L623.19,550.49 L623.19,551.69 Z M662.96,551.09 L662.96,551.35 L662.25,551.52 L662.96,551.09 Z M620.58,548.94 L618.98,548.85 L619.81,547.91 L620.58,548.94 Z M617.44,547.65 L617.44,548.00 L617.38,547.82 L617.44,547.65 Z M618.44,547.82 L618.21,545.68 L619.87,547.14 L618.80,546.53 L618.44,547.82 Z M658.58,545.76 L658.70,546.36 L658.52,546.53 L658.58,545.76 Z M630.48,544.47 L631.25,546.19 L632.32,544.13 L634.45,544.56 L631.90,546.45 L634.63,546.45 L633.50,549.71 L629.83,545.25 L631.43,541.64 L631.96,543.61 L630.48,544.47 Z M624.91,544.56 L624.91,544.39 L625.08,544.56 L624.91,544.56 Z M617.97,542.84 L617.67,544.73 L617.38,543.53 L617.97,542.84 Z M633.68,543.53 L633.15,542.75 L634.27,542.67 L633.80,542.75 L633.68,543.53 Z M617.14,522.13 L617.14,522.90 L616.13,522.99 L617.14,522.13 Z M616.43,522.04 L616.25,521.36 L616.61,521.44 L616.43,522.04 Z M619.10,519.98 L619.21,519.64 L619.27,520.24 L619.10,519.98 Z M600.48,420.38 L600.78,418.23 L601.19,419.69 L600.84,421.15 L600.48,420.38 Z M598.58,410.50 L597.58,409.55 L598.05,408.61 L598.58,410.50 Z M600.07,406.11 L600.24,407.23 L599.59,406.63 L600.07,406.11 Z M599.83,405.43 L600.42,403.62 L600.66,404.74 L601.37,405.43 L599.83,405.43 Z M598.41,403.88 L597.46,402.68 L598.41,401.56 L600.60,403.11 L598.41,403.88 Z M599.36,388.41 L600.01,389.70 L597.93,391.33 L599.36,388.41 Z M600.48,387.21 L597.58,385.40 L597.75,382.91 L597.93,384.63 L599.12,384.72 L600.48,387.21 Z" /></g></svg>