<svg xmlns="http://www.w3.org/2000/svg" viewBox="0 0 1000 1000" width="1000" height="1000"><g fill="#cccccc" stroke="#222" stroke-width="2"><path d="M339.28,656.54 L322.27,637.44 L314.63,628.90 L294.76,594.73 L293.81,592.00 L291.38,581.68 L277.93,560.09 L270.46,554.51 L260.66,538.50 L248.85,528.77 L226.73,505.04 L221.87,502.79 L213.36,502.91 L208.94,498.64 L188.02,480.13 L159.82,442.64 L151.75,429.23 L140.20,407.64 L132.74,385.69 L119.98,364.10 L117.12,359.00 L118.07,325.07 L118.60,296.60 L119.29,266.11 L119.98,233.60 L122.33,237.76 L134.82,240.96 L137.43,244.87 L145.93,245.71 L163.98,244.04 L166.15,232.30 L179.00,239.54 L179.78,237.52 L191.75,244.64 L182.55,238.94 L185.85,224.94 L182.21,221.86 L188.45,205.96 L187.50,197.78 L193.66,198.13 L196.18,200.51 L198.87,198.25 L203.99,202.17 L207.81,194.69 L219.61,193.98 L223.51,178.56 L225.25,171.20 L221.00,160.53 L218.74,153.05 L209.20,144.39 L209.80,131.58 L207.11,131.10 L199.74,132.41 L196.18,122.92 L194.27,121.26 L194.79,116.27 L192.88,117.70 L188.45,108.68 L194.88,105.48 L202.51,94.80 L207.37,97.17 L219.44,91.84 L231.50,85.67 L245.12,67.40 L257.45,53.28 L268.29,37.03 L273.15,32.04 L280.18,29.31 L287.99,30.15 L316.63,60.04 L324.96,67.75 L355.51,88.16 L366.36,93.85 L371.91,94.56 L378.59,92.31 L384.93,85.67 L406.88,85.90 L418.95,85.19 L457.04,60.75 L473.36,49.72 L487.16,45.45 L511.11,42.01 L544.87,30.03 L555.37,43.08 L565.52,41.30 L584.35,32.40 L614.20,19.35 L631.21,19.23 L640.59,23.38 L667.49,45.81 L674.52,51.74 L683.98,58.62 L691.79,56.84 L709.06,58.50 L726.76,76.65 L744.90,87.56 L756.70,101.56 L765.29,107.14 L789.16,116.04 L813.63,126.36 L825.69,128.38 L852.42,136.80 L864.83,136.32 L883.14,141.43 L894.77,148.31 L905.44,161.24 L910.48,170.37 L911.78,171.08 L942.67,192.68 L949.53,195.64 L948.66,207.86 L968.53,220.32 L979.81,242.15 L979.99,253.65 L976.43,271.69 L980.77,282.72 L979.99,293.87 L969.92,316.89 L932.00,374.42 L909.87,389.25 L904.58,391.15 L899.89,390.56 L897.55,393.17 L894.16,396.97 L892.86,403.13 L885.83,416.30 L881.14,416.54 L873.59,422.23 L870.38,426.86 L864.40,440.86 L859.54,447.27 L858.67,475.26 L858.41,498.40 L866.74,505.04 L870.12,510.14 L877.07,537.07 L884.70,544.78 L887.74,553.56 L891.30,558.43 L891.38,564.00 L889.56,571.24 L886.35,575.75 L871.68,611.93 L846.43,649.42 L839.40,659.39 L826.39,672.79 L797.75,707.08 L784.30,727.84 L787.33,732.82 L789.94,754.29 L789.76,781.82 L790.63,782.89 L791.67,783.83 L794.02,782.06 L797.31,786.68 L799.40,804.83 L798.88,818.71 L784.73,862.49 L778.83,876.96 L765.46,902.11 L751.41,924.30 L745.85,929.16 L743.94,927.50 L742.47,928.93 L743.16,933.32 L733.79,942.45 L712.01,959.18 L668.53,977.57 L651.43,980.29 L649.70,978.99 L650.83,974.96 L647.53,970.80 L635.38,978.16 L627.66,980.77 L619.58,979.70 L615.94,975.67 L619.93,978.28 L614.64,974.72 L615.77,969.85 L613.86,961.31 L614.38,957.04 L605.61,949.33 L591.21,926.67 L581.83,916.94 L562.92,902.47 L555.11,913.50 L531.33,893.57 L518.22,883.49 L502.26,867.12 L477.18,837.46 L456.09,810.05 L443.94,795.34 L426.76,768.41 L410.18,746.82 L394.65,722.26 L391.44,717.40 L375.73,701.38 L357.16,687.98 L339.28,656.54 Z M219.36,194.94 L229.90,199.91 L219.61,193.98 L219.36,194.94 Z M762.77,649.90 L774.49,670.42 L797.75,707.08 L762.77,649.90 Z M734.05,609.80 L724.42,597.22 L721.52,594.82 L741.77,621.07 L753.58,637.20 L762.77,649.90 L734.05,609.80 Z M253.71,514.18 L249.72,507.53 L274.19,549.17 L253.71,514.18 Z M383.80,482.86 L351.95,452.72 L337.98,440.03 L369.91,470.04 L383.80,482.86 Z M425.72,401.35 L402.54,388.07 L378.25,373.48 L376.08,372.29 L411.92,393.76 L425.72,401.35 Z M410.96,356.39 L411.22,355.21 L402.54,388.07 L410.96,356.39 Z M469.97,408.12 L472.32,410.96 L467.20,404.44 L469.97,408.12 Z M493.66,352.24 L483.69,357.46 L490.28,354.38 L493.66,352.24 Z M493.75,343.34 L492.54,346.78 L492.28,350.93 L493.75,343.34 Z M492.54,256.62 L505.38,284.74 L508.42,289.62 L492.54,256.62 Z M485.25,245.71 L472.06,226.49 L492.54,256.62 L485.25,245.71 Z M474.49,212.84 L474.75,210.95 L472.06,226.49 L474.49,212.84 Z M391.78,140.59 L384.49,137.63 L387.27,138.82 L394.52,142.97 L391.78,140.59 Z M335.55,130.63 L349.00,132.88 L384.49,137.63 L335.55,130.63 Z M421.17,520.90 L392.74,495.31 L416.69,517.38 L421.17,520.90 Z M549.55,369.90 L546.34,363.04 L548.60,368.37 L549.55,369.90 Z M536.19,390.68 L532.02,398.39 L548.60,368.37 L536.19,390.68 Z M534.67,388.64 L534.28,389.37 L536.19,390.68 L534.67,388.64 Z M565.78,395.17 L559.38,385.59 L564.57,393.88 L565.78,395.17 Z M587.48,412.98 L570.63,400.30 L572.64,402.42 L587.48,412.98 Z M737.95,548.94 L730.84,537.19 L752.27,573.97 L737.95,548.94 Z M787.77,613.95 L776.66,600.31 L793.58,621.66 L787.77,613.95 Z M564.48,440.98 L564.31,435.17 L563.70,443.23 L561.44,450.23 L564.48,440.98 Z M559.53,459.84 L560.57,465.06 L562.74,471.35 L559.53,459.84 Z M574.63,487.60 L573.07,489.74 L576.19,485.47 L574.63,487.60 Z M572.03,511.57 L561.44,514.06 L568.90,512.52 L572.03,511.57 Z M585.22,543.95 L572.12,537.43 L567.74,533.59 L568.30,534.34 L573.50,538.85 L585.22,543.95 Z M596.85,552.02 L585.74,553.92 L579.14,554.75 L591.03,553.33 L596.85,552.02 Z M598.67,571.36 L597.37,556.65 L596.85,552.02 L598.67,571.36 Z M616.55,551.07 L621.75,547.99 L612.21,552.14 L597.37,556.65 L616.55,551.07 Z M573.96,594.56 L560.83,600.42 L573.94,594.61 L575.41,601.85 L573.96,594.56 Z M537.84,615.02 L536.53,610.15 L537.29,615.52 L560.83,600.42 L537.84,615.02 Z M574.02,667.81 L568.47,663.78 L568.21,659.27 L568.38,662.83 L563.78,660.81 L574.02,667.81 Z M589.73,664.25 L592.42,666.03 L597.63,668.88 L589.73,664.25 Z M576.63,701.62 L578.45,707.67 L579.79,708.77 L576.63,701.62 Z M580.57,710.53 L580.27,717.16 L580.88,711.23 L580.57,710.53 Z M570.55,840.66 L573.68,838.64 L580.79,832.48 L570.55,840.66 Z M570.00,846.70 L569.86,846.83 L576.37,875.66 L570.00,846.70 Z M569.16,877.44 L537.84,885.98 L641.63,858.57 L622.71,863.56 L576.37,875.66 L569.16,877.44 Z M647.44,859.76 L656.03,861.18 L648.05,859.76 L641.63,858.57 L647.44,859.76 Z M466.94,449.05 L469.37,448.69 L466.42,448.69 L466.94,449.05 Z M513.45,503.86 L503.04,498.75 L499.57,497.57 L513.45,503.86 Z M514.19,519.11 L514.23,518.69 L510.41,514.06 L514.19,519.11 Z M514.12,519.75 L508.07,519.75 L507.87,520.45 L514.06,520.35 L514.12,519.75 Z M490.02,550.84 L485.25,552.14 L490.63,570.65 L485.68,552.85 L490.02,550.84 Z M496.62,582.51 L499.83,605.29 L497.05,599.48 L500.09,606.24 L496.62,582.51 Z M480.21,624.27 L481.34,628.42 L482.56,631.74 L480.21,624.27 Z M476.83,641.59 L474.49,644.91 L472.49,639.93 L474.55,645.27 L476.83,641.59 Z M469.28,662.47 L470.23,663.78 L473.18,663.66 L469.28,662.47 Z M453.92,697.23 L458.43,694.15 L456.35,695.21 L453.92,697.23 Z M475.01,682.88 L472.84,680.86 L471.01,681.45 L475.01,682.88 Z M501.30,701.86 L508.03,699.90 L507.64,699.96 L501.30,701.86 Z M482.30,714.31 L481.01,715.64 L488.72,714.55 L482.30,714.31 Z M490.63,760.58 L500.61,757.97 L526.38,751.21 L507.72,755.96 L490.63,760.58 Z M504.77,787.76 L505.12,787.39 L505.12,784.07 L504.77,787.76 Z M499.57,792.02 L495.66,797.48 L502.67,790.01 L499.57,792.02 Z M333.64,568.87 L328.61,566.26 L336.10,570.55 L333.64,568.87 Z M356.90,585.12 L363.15,586.19 L360.46,583.10 L356.03,581.48 L362.10,585.36 L356.90,585.12 Z M347.81,631.87 L345.53,632.93 L339.89,635.90 L347.81,631.87 Z M428.58,630.56 L423.05,620.97 L423.05,620.97 L428.58,630.56 Z M461.81,619.05 L454.01,620.95 L461.99,619.88 L461.81,619.05 Z M465.23,556.34 L458.26,562.22 L465.23,556.34 L465.23,556.34 Z M382.93,662.23 L384.75,669.59 L384.84,666.86 L382.93,662.23 Z M420.25,700.79 L419.32,700.50 L427.19,706.37 L420.25,700.79 Z M443.33,670.89 L442.01,672.62 L442.60,672.67 L442.46,672.08 L443.33,670.89 Z M450.66,726.05 L452.26,728.41 L451.66,725.82 L450.66,726.05 Z M401.95,653.44 L397.95,651.44 L396.21,651.91 L401.95,653.44 Z M405.15,654.29 L405.14,653.64 L404.73,654.17 L405.15,654.29 Z M408.45,641.00 L408.45,639.63 L405.06,642.90 L408.45,641.00 Z M440.50,672.50 L436.65,665.32 L439.69,672.44 L440.50,672.50 Z M470.67,658.79 L469.63,657.25 L466.85,654.64 L470.67,658.79 Z M457.66,651.58 L456.96,650.61 L457.22,651.79 L457.66,651.58 Z M456.42,648.14 L458.00,639.22 L456.00,646.22 L456.42,648.14 Z M397.76,645.97 L397.69,643.58 L396.90,644.79 L397.76,645.97 Z M337.49,556.19 L337.81,555.70 L338.85,548.11 L337.49,556.19 Z M339.28,533.88 L339.45,532.65 L339.02,533.75 L339.28,533.88 Z M338.71,526.63 L338.76,527.70 L339.93,529.00 L339.98,528.65 L338.71,526.63 Z M375.27,520.56 L377.20,527.94 L375.99,520.70 L375.27,520.56 Z M372.60,538.85 L370.87,548.11 L371.83,547.43 L372.60,538.85 Z M428.79,526.90 L429.97,527.82 L432.10,527.59 L428.79,526.90 Z M444.06,526.33 L446.80,526.04 L447.42,525.74 L444.06,526.33 Z M516.49,693.43 L513.36,688.93 L514.23,691.18 L516.49,693.43 Z M546.78,681.69 L536.19,686.45 L550.16,681.57 L546.78,681.69 Z M556.49,677.66 L558.06,676.23 L550.16,681.57 L556.49,677.66 Z M561.27,665.08 L564.39,665.08 L559.27,663.78 L561.96,667.81 L561.27,665.08 Z M517.70,786.80 L519.53,806.49 L517.01,776.60 L517.70,786.80 Z M527.58,822.65 L527.58,822.65 L526.63,815.22 L526.12,815.51 L527.58,822.65 Z M527.93,822.56 L530.89,821.80 L531.04,820.87 L527.93,822.56 Z M537.23,872.22 L555.28,869.85 L541.22,870.91 L537.23,872.22 Z M554.31,837.40 L547.12,837.93 L553.11,838.17 L554.31,837.40 Z M540.27,740.65 L541.14,739.56 L532.20,744.57 L540.27,740.65 Z M559.71,772.80 L535.41,779.56 L554.06,775.41 L559.71,772.80 Z M535.93,702.93 L535.12,703.24 L536.34,710.36 L535.93,702.93 Z M529.94,503.03 L537.32,496.86 L540.18,493.30 L529.94,503.03 Z M552.16,477.40 L557.19,474.43 L552.05,476.14 L552.16,477.40 Z M526.73,599.00 L537.14,590.22 L525.25,600.19 L526.73,599.00 Z M542.44,635.78 L540.44,641.59 L539.83,645.15 L542.44,635.78 Z M537.71,618.44 L538.10,621.19 L542.44,635.78 L537.71,618.44 Z M533.58,572.66 L532.54,575.27 L534.02,584.88 L533.06,577.41 L533.58,572.66 Z M559.05,438.23 L558.40,437.06 L557.00,437.29 L559.05,438.23 Z M551.37,463.28 L550.95,462.67 L551.07,464.15 L551.37,463.28 Z M551.98,472.06 L551.58,470.34 L551.82,473.35 L551.98,472.06 Z M501.21,405.03 L500.26,407.05 L491.41,432.44 L501.21,405.03 Z M639.72,933.91 L640.90,934.52 L635.99,927.03 L639.72,933.91 Z M593.64,489.38 L593.12,468.38 L593.03,472.30 L593.64,489.38 Z M600.41,461.74 L594.42,497.33 L596.76,483.57 L601.01,458.18 L600.41,461.74 Z M591.64,496.62 L591.73,490.45 L591.47,497.81 L594.42,497.33 L591.64,496.62 Z M594.24,501.96 L593.72,518.69 L592.43,519.00 L593.74,518.99 L594.42,497.33 L594.24,501.96 Z M611.43,508.13 L621.84,503.38 L617.94,505.04 L611.43,508.13 Z M643.10,546.45 L651.35,554.28 L641.02,544.43 L643.10,546.45 Z M671.83,636.02 L671.57,627.83 L670.96,634.59 L671.83,636.02 Z M666.19,659.86 L666.19,661.40 L670.33,642.76 L666.19,659.86 Z M653.85,698.63 L653.36,701.79 L665.84,702.57 L653.95,701.74 L653.85,698.63 Z M645.10,730.57 L645.45,735.19 L647.27,741.48 L648.31,744.45 L645.10,730.57 Z M651.95,769.60 L668.36,762.72 L657.60,766.87 L651.95,769.60 Z M638.28,774.53 L639.11,773.75 L638.42,771.73 L638.28,774.53 Z M638.13,777.59 L638.33,777.19 L638.16,776.83 L638.13,777.59 Z M636.76,779.50 L637.29,779.21 L637.30,779.19 L636.76,779.50 Z M643.54,797.06 L643.62,795.11 L637.29,779.21 L643.54,797.06 Z M643.28,799.49 L643.42,799.99 L643.44,799.41 L643.28,799.49 Z M643.33,802.25 L639.02,804.83 L642.58,803.17 L643.19,805.55 L643.33,802.25 Z M623.23,638.74 L625.05,601.26 L622.71,638.74 L623.23,638.74 Z M591.64,586.66 L578.56,592.51 L585.31,590.34 L591.64,586.66 Z M608.39,579.31 L592.68,584.17 L597.54,582.87 L608.39,579.31 Z M591.70,565.87 L591.29,565.78 L592.68,584.17 L591.70,565.87 Z M602.84,833.54 L597.37,801.65 L597.37,801.65 L602.84,833.54 Z M615.59,724.87 L615.80,723.55 L613.42,726.89 L615.59,724.87 Z M612.12,745.99 L618.46,742.19 L611.51,745.04 L615.42,743.85 L612.12,745.99 Z M624.53,662.47 L624.88,668.76 L625.68,668.66 L624.53,662.47 Z M570.99,522.36 L576.40,528.90 L576.40,528.90 L570.99,522.36 Z M600.76,507.99 L600.76,507.99 L601.19,518.92 L601.97,528.18 L600.76,507.99 Z M585.88,495.81 L586.35,494.36 L584.53,498.16 L585.83,495.79 L585.88,495.81 Z M599.48,496.91 L599.97,496.86 L599.97,493.77 L599.48,496.91 Z M599.02,499.82 L599.48,501.98 L599.15,498.98 L599.02,499.82 Z M760.00,732.81 L759.98,732.84 L760.00,732.82 L760.00,732.81 Z M762.77,788.11 L761.46,772.53 L761.39,775.06 L762.77,788.11 Z M706.80,900.69 L701.33,901.16 L705.32,901.76 L716.78,894.28 L706.80,900.69 Z M731.45,836.15 L734.66,828.44 L735.13,827.12 L731.45,836.15 Z M704.63,884.91 L699.34,888.47 L702.20,886.57 L704.63,884.91 Z M707.06,933.79 L705.06,926.79 L701.51,921.33 L704.02,925.96 L707.06,933.79 Z M691.69,831.95 L692.13,830.58 L691.27,821.80 L691.69,831.95 Z M720.49,812.42 L719.73,813.14 L720.05,814.15 L720.49,812.42 Z M740.38,812.54 L740.78,810.84 L739.90,812.27 L740.38,812.54 Z M690.82,834.61 L689.47,834.93 L690.66,835.09 L690.82,834.61 Z M697.78,636.70 L698.82,635.84 L698.04,635.30 L697.78,636.70 Z M700.67,634.30 L701.31,633.76 L701.07,633.52 L700.67,634.30 Z M709.41,653.49 L709.92,660.10 L711.66,665.79 L709.41,653.49 Z M727.63,697.11 L719.38,672.55 L718.60,669.71 L720.95,679.20 L727.63,697.11 Z M697.77,696.16 L697.94,696.17 L695.69,692.37 L697.77,696.16 Z M711.14,687.15 L708.45,696.28 L711.70,685.90 L709.84,689.28 L711.14,687.15 Z M717.30,679.20 L713.83,682.05 L713.37,682.87 L717.30,679.20 Z M685.54,663.66 L679.90,662.59 L683.11,664.25 L685.54,663.66 Z M685.45,661.76 L680.33,642.30 L685.54,663.66 L685.45,661.76 Z M674.10,552.71 L680.33,545.73 L674.08,551.90 L674.10,552.71 Z M672.09,561.21 L668.36,559.02 L672.09,561.87 L672.09,561.21 Z M674.15,556.17 L674.17,557.83 L674.71,559.53 L674.15,556.17 Z M616.46,56.60 L614.72,56.26 L619.51,57.47 L616.46,56.60 Z M630.69,79.73 L608.49,74.71 L610.04,75.35 L630.69,79.73 Z M626.35,135.14 L624.18,132.41 L626.28,136.06 L626.35,135.14 Z M616.37,145.46 L643.36,144.04 L639.02,143.68 L625.66,144.39 L624.44,144.51 L621.67,144.75 L616.37,145.46 Z M618.11,137.39 L618.02,137.22 L616.37,145.46 L618.11,137.39 Z M612.82,147.24 L609.36,151.19 L616.37,145.46 L612.82,147.24 Z M624.29,137.18 L623.80,137.20 L624.18,137.27 L624.44,144.51 L624.29,137.18 Z M624.88,160.76 L621.75,158.39 L633.64,168.71 L624.88,160.76 Z M636.77,178.44 L630.61,185.32 L629.22,188.28 L636.77,178.44 Z M629.22,188.29 L629.22,188.29 L632.95,192.56 L629.22,188.29 Z M635.03,191.01 L639.46,200.15 L637.55,195.64 L635.03,191.01 Z M670.79,255.79 L675.47,258.99 L678.08,260.65 L670.79,255.79 Z M680.59,257.33 L688.75,257.21 L689.91,256.28 L680.59,257.33 Z M689.96,248.67 L699.94,242.50 L691.70,246.54 L689.96,248.67 Z M716.35,249.15 L715.68,249.50 L727.19,247.13 L716.35,249.15 Z M711.83,292.25 L711.83,292.33 L716.95,299.57 L711.83,292.25 Z M703.76,299.33 L699.35,301.74 L699.35,301.74 L703.76,299.33 Z M710.88,333.26 L716.47,340.07 L716.47,340.07 L710.88,333.26 Z M720.08,395.07 L714.70,408.35 L715.74,406.69 L720.08,395.07 Z M726.71,393.77 L723.55,393.52 L720.08,395.07 L726.71,393.77 Z M713.48,445.61 L705.50,442.52 L714.70,446.20 L713.48,445.61 Z M710.18,466.37 L714.35,450.00 L714.70,446.20 L710.18,466.37 Z M721.99,500.53 L717.04,475.38 L717.65,478.82 L721.29,498.52 L719.04,497.21 L721.99,500.53 Z M561.14,61.96 L561.14,61.96 L565.43,52.92 L561.14,61.96 Z M563.35,62.53 L566.54,61.72 L562.26,62.25 L563.35,62.53 Z M564.04,90.89 L574.28,91.72 L571.94,90.89 L564.04,90.89 Z M563.35,90.89 L563.00,93.50 L564.04,90.89 L563.35,90.89 Z M544.69,111.05 L558.69,118.60 L553.28,114.85 L544.69,111.05 Z M583.22,140.36 L570.55,126.83 L569.87,126.36 L583.22,140.36 Z M577.76,120.43 L577.05,119.83 L570.55,126.83 L577.76,120.43 Z M563.87,142.49 L574.72,157.20 L585.83,171.20 L563.87,142.49 Z M571.67,162.25 L572.03,162.90 L572.19,162.33 L571.67,162.25 Z M567.34,161.59 L570.47,163.02 L570.70,162.10 L567.34,161.59 Z M566.39,177.73 L572.38,179.86 L563.35,175.12 L566.39,177.73 Z M606.74,297.90 L592.87,283.98 L592.94,284.14 L606.74,297.90 Z M616.55,285.92 L624.36,275.72 L624.48,274.21 L606.74,297.90 L616.55,285.92 Z M629.39,335.16 L615.27,353.87 L615.27,353.87 L621.58,345.60 L629.39,335.16 Z M622.28,370.39 L627.43,380.42 L619.67,364.58 L622.28,370.39 Z M580.36,298.97 L571.07,286.04 L581.41,301.79 L580.36,298.97 Z M585.22,317.95 L585.06,317.60 L586.43,329.70 L585.22,317.95 Z M580.45,333.38 L582.96,329.34 L578.54,336.34 L580.45,333.38 Z M563.18,322.70 L571.42,326.50 L559.01,319.73 L563.18,322.70 Z M436.09,164.90 L432.48,169.30 L436.22,165.86 L436.09,164.90 Z M479.63,135.83 L469.97,133.00 L478.83,135.85 L479.63,135.83 Z M528.46,113.90 L489.76,135.61 L511.28,124.82 L518.05,120.78 L523.00,117.58 L536.53,111.29 L528.46,113.90 Z M552.16,275.96 L550.85,273.82 L552.07,276.31 L556.15,263.03 L552.16,275.96 Z M562.57,285.80 L552.94,295.06 L542.78,305.97 L561.79,286.63 L562.41,287.35 L562.57,285.80 Z M567.86,293.63 L565.69,289.60 L563.35,287.47 L562.85,287.86 L567.86,293.63 Z M478.50,214.39 L483.42,216.28 L478.74,213.91 L478.50,214.39 Z M494.79,206.32 L489.88,205.89 L490.45,206.79 L494.79,206.32 Z M489.58,205.43 L491.01,203.08 L489.24,204.89 L489.58,205.43 Z M494.06,199.98 L495.44,199.92 L494.36,199.67 L494.06,199.98 Z M499.48,200.84 L501.04,202.28 L503.73,201.81 L499.48,200.84 Z M507.55,207.03 L507.34,207.50 L516.75,206.32 L507.55,207.03 Z M518.57,204.30 L507.85,192.99 L507.46,193.51 L518.57,204.30 Z M513.80,186.03 L511.89,187.57 L508.39,192.27 L510.24,191.37 L513.80,186.03 Z M526.64,208.22 L528.03,208.22 L531.68,204.89 L526.64,208.22 Z M539.75,211.30 L546.43,201.10 L542.09,207.15 L539.75,211.30 Z M492.20,242.17 L489.76,242.03 L489.33,242.38 L492.20,242.17 Z M500.14,242.85 L500.09,242.62 L499.42,242.58 L500.14,242.85 Z M519.33,240.21 L518.14,240.60 L515.19,244.16 L519.33,240.21 Z M528.03,279.52 L541.05,275.84 L532.72,277.50 L528.03,279.52 Z M544.78,218.78 L541.69,214.19 L542.26,216.76 L544.78,218.78 Z M547.64,220.20 L544.08,223.76 L543.39,225.01 L547.64,220.20 Z M544.80,265.73 L547.99,255.20 L544.52,264.33 L544.80,265.73 Z M545.30,248.55 L545.21,240.25 L544.52,240.10 L545.30,248.55 Z M542.90,228.14 L542.66,226.32 L542.18,227.20 L542.90,228.14 Z M440.43,155.83 L438.39,157.08 L438.04,159.10 L440.43,155.83 Z M444.88,153.79 L444.20,153.53 L442.98,154.28 L444.88,153.79 Z M476.92,185.79 L476.73,181.99 L473.88,173.46 L476.92,185.79 Z M501.61,161.28 L501.82,157.80 L501.56,160.88 L501.61,161.28 Z M523.93,163.53 L520.74,167.52 L523.43,164.68 L525.51,178.44 L523.93,163.53 Z M527.08,164.82 L524.82,162.42 L524.25,163.13 L527.08,164.82 Z M530.03,166.58 L531.71,165.77 L529.10,166.02 L530.03,166.58 Z M536.62,156.85 L533.51,164.91 L535.49,163.97 L534.54,164.20 L536.62,156.85 Z M467.54,73.80 L477.88,75.42 L477.35,74.75 L467.54,73.80 Z M535.06,81.87 L548.94,82.82 L542.96,81.99 L535.06,81.87 Z M405.15,133.12 L402.28,130.39 L410.18,138.10 L405.15,133.12 Z M495.66,93.85 L488.32,91.55 L488.63,91.84 L495.66,93.85 Z M465.37,96.70 L464.86,99.03 L468.59,89.82 L465.37,96.70 Z M483.69,90.06 L484.99,88.51 L485.88,89.33 L485.29,86.44 L483.69,90.06 Z M488.02,84.01 L486.11,84.60 L485.75,85.42 L488.02,84.01 Z M545.29,62.05 L545.39,62.06 L542.78,64.07 L553.28,59.92 L545.29,62.05 Z M591.14,316.86 L590.25,318.07 L590.54,318.65 L591.14,316.86 Z M590.10,358.88 L590.60,359.83 L597.20,356.39 L590.10,358.88 Z M590.51,375.14 L587.91,378.34 L588.20,378.94 L590.51,375.14 Z M593.05,311.13 L594.42,307.04 L592.34,310.60 L593.05,311.13 Z M603.96,310.36 L606.51,310.66 L605.53,309.53 L603.96,310.36 Z M609.07,313.62 L609.95,315.82 L613.86,319.14 L609.07,313.62 Z M601.45,131.93 L601.66,127.16 L601.62,127.19 L601.11,127.13 L601.45,131.93 Z M604.40,124.93 L603.60,125.58 L605.38,125.08 L604.40,124.93 Z M608.13,125.71 L608.74,119.36 L607.70,125.41 L606.95,125.30 L608.13,125.71 Z M644.40,262.20 L627.74,234.55 L645.22,264.26 L644.40,262.20 Z M650.48,277.62 L648.93,273.68 L653.78,294.23 L650.48,277.62 Z M652.56,300.91 L651.26,298.50 L635.64,279.75 L652.56,300.91 Z M620.89,247.96 L629.65,267.30 L635.64,279.75 L620.89,247.96 Z M608.91,211.89 L609.26,213.20 L620.89,247.96 L608.91,211.89 Z M611.18,138.97 L612.21,139.41 L612.97,138.14 L611.18,138.97 Z M588.00,249.98 L587.35,245.88 L586.96,263.26 L588.00,249.98 Z M598.37,268.47 L597.37,258.40 L598.24,268.13 L598.37,268.47 Z M604.05,273.94 L601.53,276.67 L602.49,276.08 L604.05,273.94 Z M617.15,136.21 L616.51,136.51 L617.57,136.39 L616.71,134.78 L617.15,136.21 Z M627.83,115.44 L609.06,126.02 L609.76,126.26 L627.83,115.44 Z M597.89,53.16 L605.74,54.49 L603.18,53.99 L597.89,53.16 Z M580.19,60.04 L586.61,65.74 L594.23,68.86 L591.03,67.40 L580.19,60.04 Z M637.94,384.85 L640.92,382.68 L640.07,382.49 L637.94,384.85 Z M660.46,387.83 L660.46,367.54 L659.59,389.73 L659.68,390.19 L660.46,387.83 Z M658.58,393.52 L654.90,398.98 L658.46,393.88 L658.58,393.52 Z M690.66,434.69 L685.28,454.62 L692.83,426.74 L690.66,434.69 Z M705.93,380.12 L711.57,388.42 L696.82,366.22 L705.93,380.12 Z M651.61,345.48 L654.21,339.07 L650.45,347.29 L651.61,345.48 Z M678.08,339.19 L683.28,345.83 L660.98,316.53 L678.08,339.19 Z M694.13,307.87 L694.05,306.60 L693.42,308.83 L694.13,307.87 Z M698.97,300.46 L698.91,296.08 L698.56,299.09 L698.97,300.46 Z M663.50,405.98 L664.54,410.85 L663.39,394.13 L663.34,394.12 L663.50,405.98 Z M673.70,354.64 L674.52,351.53 L673.04,353.90 L673.70,354.64 Z M652.13,256.86 L646.23,257.57 L654.99,258.04 L652.13,256.86 Z M644.84,311.55 L652.84,301.43 L652.84,301.43 L644.84,311.55 Z M685.37,119.71 L693.96,125.65 L696.30,126.95 L685.37,119.71 Z M679.12,156.25 L692.60,163.32 L690.22,161.95 L679.12,156.25 Z M675.30,156.61 L674.69,151.51 L674.53,157.14 L679.12,156.25 L675.30,156.61 Z M714.87,192.56 L720.77,185.20 L718.17,188.40 L714.87,192.56 Z M671.16,128.41 L676.51,107.50 L675.12,110.58 L671.16,128.41 Z M650.22,184.02 L653.00,179.51 L648.40,185.79 L650.22,184.02 Z M658.64,204.78 L659.76,179.98 L658.90,187.22 L658.64,204.78 Z M662.72,213.91 L663.63,214.97 L658.64,204.78 L662.72,213.91 Z M672.17,172.00 L671.22,164.32 L671.39,168.36 L672.17,172.00 Z M675.20,219.41 L670.00,214.74 L675.04,219.37 L675.20,219.41 Z M704.73,205.35 L703.07,202.52 L697.17,198.01 L704.73,205.35 Z M663.58,79.14 L662.37,79.62 L658.69,78.39 L658.90,79.14 L662.11,80.45 L663.58,79.14 Z M671.83,86.50 L675.21,84.84 L671.78,86.12 L671.83,86.50 Z M681.13,85.61 L684.06,72.85 L681.55,83.65 L681.13,85.61 Z M733.18,200.98 L737.52,196.00 L732.93,200.57 L733.18,200.98 Z M738.65,200.27 L737.95,197.54 L738.23,197.11 L737.52,196.00 L738.65,200.27 Z M760.26,225.30 L764.16,235.98 L755.74,210.83 L760.26,225.30 Z M745.42,242.15 L743.94,241.32 L745.17,242.24 L768.76,234.55 L764.16,235.98 L745.42,242.15 Z M773.27,241.32 L777.01,245.35 L768.76,234.55 L773.27,241.32 Z M807.73,230.76 L802.73,225.63 L804.17,227.91 L807.73,230.76 Z M812.67,293.87 L809.45,295.22 L813.45,307.99 L809.72,295.29 L812.67,293.87 Z M800.26,283.79 L796.97,299.80 L797.92,295.41 L800.26,283.79 Z M787.93,330.17 L789.50,332.55 L787.94,330.17 L787.93,330.17 Z M804.17,380.36 L808.51,387.36 L808.80,383.40 L807.99,384.98 L804.17,380.36 Z M796.36,414.29 L799.40,410.37 L800.87,405.86 L796.36,414.29 Z M795.75,454.98 L798.61,442.91 L798.61,442.91 L795.75,454.98 Z M790.06,465.79 L791.33,464.94 L795.75,454.98 L790.06,465.79 Z M802.09,513.82 L802.80,514.40 L801.39,512.33 L802.09,513.82 Z M815.45,522.13 L807.20,518.02 L809.90,520.23 L816.06,522.36 L815.45,517.50 L815.45,522.13 Z M838.19,521.06 L835.76,520.35 L833.76,521.30 L816.06,522.36 L838.19,521.06 Z M840.88,524.02 L847.56,530.55 L838.19,521.06 L840.88,524.02 Z M818.51,542.13 L818.92,541.11 L817.93,537.46 L818.51,542.13 Z M722.25,339.90 L733.31,333.04 L728.32,335.04 L722.25,339.90 Z M760.17,348.09 L760.95,348.80 L762.25,348.80 L760.17,348.09 Z M749.84,456.76 L756.01,464.11 L749.79,456.66 L749.84,456.76 Z M762.69,468.62 L764.35,468.58 L756.01,464.11 L762.69,468.62 Z M776.83,468.27 L770.32,467.67 L768.36,468.48 L776.83,468.27 Z M752.79,473.25 L755.57,488.67 L755.70,488.91 L752.79,473.25 Z M760.78,492.23 L756.91,491.25 L757.54,492.46 L760.78,492.23 Z M751.58,303.84 L751.99,302.72 L746.98,294.94 L751.58,303.84 Z M773.97,276.55 L767.46,272.28 L773.94,277.15 L774.03,276.57 L773.97,276.55 Z M775.79,322.58 L775.70,321.07 L774.49,324.48 L775.79,322.58 Z M775.36,325.43 L786.38,330.17 L787.07,335.27 L787.07,329.81 L774.49,324.48 L775.36,325.43 Z M772.49,344.17 L777.70,339.90 L775.53,340.26 L772.49,344.17 Z M742.68,243.94 L737.35,246.65 L742.73,244.28 L742.68,243.94 Z M772.32,245.59 L765.64,252.35 L769.23,253.96 L766.33,252.59 L772.32,245.59 Z M783.51,186.63 L776.40,183.42 L764.25,180.22 L783.51,186.63 Z M796.62,201.10 L799.42,203.01 L783.51,186.63 L796.62,201.10 Z M747.21,102.54 L748.89,103.34 L750.94,102.88 L747.21,102.54 Z M709.49,131.82 L721.55,143.56 L755.92,174.88 L737.43,156.73 L709.49,131.82 Z M752.45,134.37 L752.10,134.07 L746.20,137.87 L752.45,134.37 Z M728.67,191.96 L725.11,187.69 L730.72,196.99 L728.67,191.96 Z M744.55,201.45 L746.29,198.13 L751.06,188.76 L744.55,201.45 Z M829.53,372.68 L833.25,360.20 L832.20,363.39 L829.53,372.68 L829.53,372.68 Z M831.51,373.48 L831.35,373.42 L828.73,382.85 L831.51,373.48 Z M829.82,401.01 L830.29,395.78 L829.32,401.18 L829.82,401.01 Z M831.51,398.70 L830.20,400.88 L831.24,400.52 L831.51,398.70 Z M851.90,370.04 L851.03,372.53 L852.60,370.19 L851.90,370.04 Z M855.02,366.59 L858.49,370.87 L855.28,365.76 L854.91,366.77 L855.02,366.59 Z M850.42,362.80 L852.40,364.00 L852.68,363.15 L850.42,362.80 Z M814.18,504.21 L813.71,504.80 L814.04,505.50 L814.18,504.21 Z M818.66,500.77 L815.97,501.96 L815.79,502.18 L818.66,500.77 Z M853.98,546.33 L850.77,535.29 L854.68,552.85 L853.98,546.33 Z M815.23,409.05 L807.29,408.71 L814.67,409.90 L815.23,409.05 Z M829.25,405.27 L828.89,403.54 L827.60,410.73 L829.25,405.27 Z M833.31,426.15 L833.24,426.27 L832.89,429.35 L833.31,426.15 Z M847.30,401.35 L841.31,402.78 L848.00,401.92 L847.30,401.35 Z M865.00,420.93 L860.14,418.08 L866.69,423.69 L865.00,420.93 Z M858.29,261.51 L861.79,264.66 L860.06,262.31 L858.29,261.51 Z M864.58,268.43 L871.68,280.53 L868.56,273.82 L864.58,268.43 Z M923.41,222.22 L902.58,232.77 L898.93,234.91 L915.86,226.84 L923.41,222.22 Z M815.54,314.87 L815.19,325.78 L815.62,315.58 L825.52,308.11 L815.54,314.87 Z M849.21,298.97 L837.93,299.68 L845.65,299.45 L849.21,298.97 Z M898.15,333.50 L890.00,319.97 L902.06,341.68 L898.15,333.50 Z M901.17,346.53 L902.15,345.24 L902.06,341.68 L901.17,346.53 Z M829.77,220.79 L826.99,214.50 L836.97,244.16 L829.77,220.79 Z M916.46,212.61 L917.25,216.05 L920.46,220.32 L916.46,212.61 Z M835.67,202.64 L837.49,191.37 L832.63,217.59 L835.67,202.64 Z M883.11,188.17 L883.05,187.81 L881.40,184.96 L883.11,188.17 Z M898.07,184.57 L887.76,190.26 L887.78,190.30 L896.07,186.86 L898.07,184.57 Z M813.37,170.17 L800.35,175.47 L813.02,171.32 L813.37,170.17 Z M840.36,181.52 L839.93,184.00 L840.96,184.96 L840.36,181.52 Z M815.88,163.49 L814.93,158.75 L814.41,156.85 L815.88,163.49 Z M261.70,113.66 L265.86,114.49 L270.29,113.66 L261.70,113.66 Z M268.03,123.16 L270.72,128.26 L265.86,114.49 L268.03,123.16 Z M270.60,129.08 L276.15,122.59 L276.14,122.58 L270.72,128.26 L270.60,129.08 Z M288.60,147.00 L297.80,166.34 L293.81,156.97 L285.91,140.48 L280.88,129.80 L277.02,123.91 L288.60,147.00 Z M286.46,151.05 L288.08,149.97 L288.60,147.00 L286.46,151.05 Z M295.80,171.08 L296.50,173.22 L299.71,176.19 L295.80,171.08 Z M293.63,173.69 L284.96,185.44 L291.20,177.02 L293.63,173.69 Z M272.63,209.88 L266.73,221.74 L263.95,227.55 L272.63,209.88 Z M260.48,225.42 L278.62,242.38 L263.95,227.55 L260.48,225.42 Z M291.29,266.70 L286.88,266.32 L287.21,267.30 L291.29,266.70 Z M282.35,288.77 L292.33,297.07 L294.50,298.38 L282.35,288.77 Z M285.48,326.26 L292.09,330.65 L291.64,329.58 L285.48,326.26 Z M294.32,333.80 L293.72,335.63 L294.25,337.54 L294.32,333.80 Z M271.07,381.54 L270.46,376.68 L271.24,385.58 L271.07,381.54 Z M289.82,448.93 L289.47,459.13 L289.82,451.89 L289.82,448.93 Z M272.29,485.59 L274.19,490.57 L273.33,488.20 L272.29,485.59 Z M223.51,453.32 L220.65,462.33 L224.52,452.27 L223.51,453.32 Z M215.10,457.35 L206.96,452.90 L207.46,453.32 L220.65,462.33 L215.10,457.35 Z M200.86,240.25 L210.28,243.12 L208.94,242.38 L200.86,240.25 Z M229.59,300.16 L234.36,302.31 L233.06,301.35 L229.59,300.16 Z M228.11,308.11 L225.34,308.11 L227.51,308.82 L224.12,319.02 L229.42,305.26 L229.59,300.16 L228.11,308.11 Z M210.29,316.20 L206.77,312.26 L210.29,316.20 L210.29,316.20 Z M217.70,310.24 L210.76,308.34 L216.14,310.24 L217.70,310.24 Z M124.78,348.80 L123.28,348.92 L124.06,359.00 L123.98,349.39 L124.78,348.80 Z M125.71,348.73 L129.17,349.66 L127.79,348.56 L125.71,348.73 Z M161.47,332.07 L173.01,326.02 L152.20,336.73 L161.47,332.07 Z M187.33,363.51 L196.00,358.53 L191.75,360.19 L187.33,363.51 Z M179.00,432.56 L164.16,424.73 L162.50,424.64 L179.00,432.56 Z M196.55,444.22 L193.14,440.50 L195.66,443.47 L196.55,444.22 Z M192.88,433.62 L186.20,431.73 L198.26,436.47 L192.88,433.62 Z M154.26,390.68 L151.57,387.95 L155.84,394.15 L154.26,390.68 Z M201.62,397.15 L202.69,383.92 L201.62,397.15 L201.62,397.15 Z M151.57,337.05 L151.57,337.05 L148.80,325.78 L151.57,337.05 Z M175.52,279.28 L178.39,268.36 L176.13,276.91 L175.52,279.28 Z M204.91,287.20 L202.77,288.18 L197.12,295.80 L204.91,287.20 Z M223.43,144.27 L227.51,142.97 L223.25,144.26 L223.43,144.27 Z M230.42,134.88 L230.42,134.88 L227.51,142.97 L230.42,134.88 Z M269.77,498.28 L269.83,498.09 L265.78,501.25 L269.77,498.28 Z M271.50,492.82 L270.03,496.26 L270.29,496.63 L271.50,492.82 Z M239.74,134.67 L249.81,134.54 L240.61,134.54 L239.74,134.67 Z M249.98,136.56 L251.98,130.27 L249.81,134.54 L249.98,136.56 Z M255.13,131.56 L256.06,131.93 L256.28,131.32 L255.13,131.56 Z M258.05,136.21 L261.61,135.85 L263.87,135.26 L258.05,136.21 Z M270.37,130.54 L270.29,131.10 L276.88,134.19 L270.37,130.54 Z M279.85,146.95 L273.93,145.70 L279.89,147.05 L279.85,146.95 Z M285.80,397.47 L285.12,397.59 L284.61,398.86 L285.80,397.47 Z M304.65,262.55 L314.72,258.52 L299.45,263.62 L304.65,262.55 Z M263.95,66.45 L264.14,65.59 L263.27,66.08 L263.95,66.45 Z M266.73,63.13 L267.67,62.06 L264.82,62.41 L266.73,63.13 Z M277.55,62.58 L274.37,61.23 L272.30,61.48 L277.55,62.58 Z M288.25,83.41 L290.60,72.14 L289.82,75.58 L288.25,83.41 Z M259.51,70.82 L259.36,70.72 L252.24,70.72 L259.51,70.82 Z M297.93,150.37 L297.63,149.61 L297.52,150.39 L297.93,150.37 Z M381.02,167.41 L380.79,168.16 L383.80,162.78 L381.02,167.41 Z M378.62,175.18 L379.11,174.64 L379.17,173.39 L378.62,175.18 Z M356.73,202.38 L357.08,202.60 L359.33,195.17 L356.73,202.38 Z M365.48,224.00 L365.48,224.00 L365.23,221.74 L365.48,224.00 Z M352.59,239.92 L353.34,239.54 L353.77,238.23 L352.59,239.92 Z M363.06,279.99 L368.96,285.09 L362.96,278.77 L363.06,279.99 Z M358.63,320.21 L360.60,322.68 L355.68,313.92 L358.63,320.21 Z M349.26,312.97 L341.71,312.62 L355.68,313.92 L349.26,312.97 Z M364.64,327.77 L366.27,329.82 L377.90,333.38 L367.75,330.17 L364.64,327.77 Z M374.34,348.92 L374.95,356.15 L375.33,344.58 L374.34,348.92 Z M375.64,382.73 L369.91,399.34 L360.20,433.86 L367.92,406.57 L375.64,382.73 Z M381.65,418.00 L381.89,416.90 L367.92,406.57 L381.65,418.00 Z M311.42,287.23 L311.16,304.67 L312.66,276.45 L311.42,287.23 Z M312.79,275.30 L312.79,275.30 L335.98,294.46 L312.79,275.30 Z M320.62,394.47 L327.04,398.63 L330.34,399.93 L320.62,394.47 Z M319.93,418.68 L324.61,422.47 L321.75,419.86 L319.84,416.66 L319.93,418.68 Z M317.10,445.55 L317.10,445.55 L314.98,452.49 L317.10,445.55 Z M307.09,436.84 L307.61,435.28 L308.65,437.54 L307.37,431.97 L307.09,436.84 Z M312.81,439.08 L312.84,438.97 L308.65,437.54 L312.81,439.08 Z M308.39,340.26 L313.07,330.65 L302.57,352.00 L308.39,340.26 Z M309.33,340.61 L309.60,340.02 L308.39,340.26 L309.33,340.61 Z M316.11,343.10 L332.95,343.46 L312.01,341.59 L316.11,343.10 Z M370.09,353.66 L370.96,352.60 L369.80,352.82 L370.09,353.66 Z M320.87,320.32 L321.85,320.87 L321.49,319.50 L320.87,320.32 Z M312.92,201.86 L313.04,201.95 L312.99,201.81 L312.92,201.86 Z M315.07,196.00 L314.92,194.10 L312.99,201.81 L315.07,196.00 Z M314.91,234.31 L314.91,234.31 L320.10,221.39 L314.91,234.31 Z M344.92,243.81 L349.40,241.53 L346.05,242.03 L344.92,243.81 Z M348.22,178.80 L345.36,188.33 L349.95,189.00 L345.53,187.81 L348.22,178.80 Z M355.86,201.81 L356.13,201.99 L349.95,189.00 L355.86,201.81 Z M378.33,160.88 L372.52,157.56 L367.55,156.15 L378.33,160.88 Z M307.40,183.97 L307.52,184.02 L307.53,183.17 L307.40,183.97 Z M307.69,171.20 L313.77,166.10 L310.30,168.00 L307.69,171.20 Z M396.38,425.44 L381.94,418.24 L382.32,418.56 L396.38,425.44 Z M405.93,302.06 L395.52,304.19 L393.00,297.79 L395.39,304.44 L405.93,302.06 Z M447.84,325.67 L446.89,321.75 L447.66,328.32 L447.84,325.67 Z M464.18,320.75 L458.34,322.51 L459.91,322.94 L464.18,320.75 Z M476.66,344.17 L465.72,347.97 L473.44,346.43 L477.31,344.13 L476.66,344.17 Z M447.06,336.70 L447.32,333.14 L446.89,333.26 L447.06,336.70 Z M384.36,257.23 L384.23,256.74 L381.37,253.42 L384.36,257.23 Z M393.17,265.04 L397.81,258.56 L396.73,255.31 L397.42,258.87 L393.17,265.04 Z M417.12,256.03 L419.99,250.45 L420.11,249.57 L417.12,256.03 Z M439.69,225.66 L443.87,234.22 L443.07,231.71 L439.69,225.66 Z M447.98,242.66 L458.78,264.81 L450.19,245.94 L447.98,242.66 Z M476.51,290.50 L476.51,290.50 L475.87,277.97 L476.51,290.50 Z M425.80,280.47 L422.16,284.26 L425.22,282.80 L424.93,282.25 L425.80,280.47 Z M431.18,289.72 L431.87,289.82 L426.93,286.16 L431.18,289.72 Z M437.08,289.96 L435.04,290.31 L436.56,290.55 L440.64,291.97 L437.08,289.96 Z M447.76,302.06 L452.62,301.46 L443.51,301.46 L447.76,302.06 Z M398.90,213.67 L400.20,212.01 L396.66,214.88 L398.90,213.67 Z M406.19,205.01 L401.33,203.71 L400.03,204.54 L406.19,205.01 Z M91.35,329.46 L79.63,315.46 L62.97,304.31 L41.19,282.01 L19.23,262.67 L23.31,257.21 L21.66,254.72 L21.92,251.99 L43.44,209.52 L58.72,179.39 L75.99,188.64 L85.53,205.13 L91.69,209.52 L99.50,198.01 L104.88,207.39 L105.49,208.34 L119.98,233.60 L118.68,288.89 L117.12,359.00 L111.74,347.73 L104.88,339.07 L102.71,337.53 L91.35,329.46 Z M82.67,301.70 L89.21,307.62 L85.18,303.01 L82.67,301.70 Z M47.96,266.82 L50.88,264.42 L50.21,264.21 L47.96,266.82 Z M61.25,263.75 L62.36,264.45 L63.41,262.84 L61.25,263.75 Z M65.22,260.06 L77.11,276.43 L64.10,258.40 L65.22,260.06 Z M68.26,293.16 L76.59,278.33 L78.33,273.11 L77.11,276.43 L68.26,293.16 Z M74.25,236.69 L78.16,221.86 L76.16,228.27 L74.25,236.69 Z M56.03,233.01 L57.33,228.50 L53.12,237.75 L56.03,233.01 Z" /></g></svg>