<svg xmlns="http://www.w3.org/2000/svg" viewBox="0 0 1000 1000" width="1000" height="1000"><g fill="#cccccc" stroke="#222" stroke-width="2"><path d="M337.97,739.44 L338.09,736.29 L335.58,735.28 L334.91,738.30 L332.95,738.56 L331.24,736.54 L328.55,737.17 L328.61,734.77 L330.08,735.28 L330.01,731.87 L325.91,729.10 L329.46,726.58 L327.75,718.26 L328.30,716.37 L330.14,716.74 L332.83,709.43 L331.73,706.15 L332.22,702.87 L325.06,687.87 L323.04,688.75 L322.12,691.65 L319.86,690.01 L315.94,691.27 L316.55,688.00 L315.39,684.47 L314.11,681.57 L312.51,681.31 L313.13,676.40 L313.68,674.38 L316.86,669.97 L317.29,663.03 L315.82,661.90 L315.39,656.98 L313.13,651.30 L309.82,647.77 L309.09,639.45 L304.50,634.03 L301.68,634.53 L302.60,631.26 L301.99,627.73 L301.07,628.23 L303.76,621.93 L307.74,621.30 L309.33,619.03 L309.39,611.33 L314.11,600.11 L315.39,592.55 L321.20,584.48 L322.24,580.07 L329.46,567.58 L331.67,557.75 L322.43,552.07 L319.43,546.65 L316.37,532.28 L320.96,522.07 L320.53,516.52 L318.51,512.23 L316.37,514.00 L314.59,510.59 L313.37,509.58 L312.02,502.02 L309.39,495.84 L305.05,496.47 L301.19,498.87 L297.77,508.95 L291.28,506.43 L290.30,513.11 L288.10,515.00 L284.98,523.83 L282.10,511.22 L280.08,516.77 L279.53,524.59 L276.23,525.34 L268.03,516.01 L265.58,519.04 L263.44,517.27 L260.93,524.21 L257.69,528.75 L255.91,534.04 L253.10,549.68 L248.75,548.04 L242.15,550.31 L236.88,547.28 L235.84,551.44 L232.60,551.57 L228.50,560.65 L223.30,565.06 L223.24,575.53 L225.13,589.02 L216.38,589.65 L212.35,586.62 L208.61,593.18 L207.02,590.91 L202.43,590.28 L200.90,593.18 L199.37,601.50 L192.83,601.50 L191.05,603.27 L187.26,612.22 L187.56,625.08 L185.12,631.63 L179.73,631.51 L178.69,629.87 L177.10,631.00 L170.86,627.73 L166.27,630.88 L163.46,629.87 L161.50,631.38 L158.38,617.13 L158.99,606.80 L160.89,603.90 L160.33,598.60 L158.50,590.03 L155.19,584.23 L154.64,580.82 L159.66,561.53 L163.33,554.97 L163.46,549.80 L162.42,546.15 L159.05,543.00 L156.85,537.70 L154.15,538.20 L151.03,535.93 L150.30,530.77 L147.79,524.33 L147.06,512.23 L149.20,499.12 L143.26,485.00 L144.79,478.44 L151.89,482.73 L146.14,478.57 L134.94,475.54 L131.64,473.40 L130.78,469.99 L129.68,461.04 L126.68,455.37 L118.91,450.83 L116.28,451.96 L114.20,446.41 L115.24,440.87 L109.55,439.10 L105.14,429.64 L99.51,426.74 L93.27,409.34 L90.09,406.19 L84.34,406.95 L75.83,400.64 L69.71,405.06 L66.96,397.11 L66.41,386.27 L56.80,379.71 L55.27,374.17 L54.41,365.09 L52.15,364.96 L48.48,359.79 L45.05,359.16 L40.28,350.97 L27.86,350.33 L23.45,340.25 L19.23,338.23 L20.70,325.12 L19.90,319.07 L28.53,324.11 L31.71,322.34 L39.00,326.63 L42.54,325.24 L42.05,316.29 L44.01,308.98 L42.73,293.60 L44.81,284.64 L44.32,280.36 L46.89,278.72 L47.50,275.94 L53.80,275.19 L55.64,268.00 L57.84,266.11 L59.92,259.55 L59.25,255.14 L59.98,252.49 L67.75,253.75 L72.28,249.84 L74.85,250.22 L77.85,245.05 L78.03,241.27 L78.65,239.00 L77.91,234.46 L79.20,230.17 L77.48,223.37 L77.61,218.83 L79.38,213.40 L78.71,208.61 L76.81,204.58 L77.48,195.37 L82.50,189.57 L85.62,182.01 L92.54,182.01 L95.90,179.11 L100.61,180.12 L104.96,175.45 L109.12,175.58 L112.42,167.38 L117.13,171.17 L121.48,166.50 L126.62,164.74 L129.62,170.54 L136.84,163.35 L140.33,164.99 L142.90,160.07 L146.26,160.95 L154.58,157.93 L157.34,146.83 L156.97,140.90 L159.05,131.57 L158.80,127.67 L160.82,119.97 L164.62,116.57 L164.74,109.26 L167.49,103.71 L167.31,93.37 L170.06,86.31 L170.49,81.77 L174.71,73.95 L174.59,69.41 L172.70,64.24 L178.94,33.23 L181.38,28.94 L187.14,32.09 L193.01,30.20 L197.84,20.49 L201.82,19.23 L199.74,23.27 L202.56,27.30 L201.03,32.47 L201.82,33.98 L201.33,39.53 L202.74,39.28 L202.92,41.80 L200.96,45.08 L201.15,50.88 L198.95,58.57 L202.68,62.98 L202.01,66.77 L203.11,68.66 L204.58,74.58 L209.53,82.65 L212.53,83.91 L214.98,80.89 L217.42,81.90 L220.18,74.20 L225.13,72.69 L227.09,73.32 L229.23,79.12 L234.13,84.54 L234.50,87.07 L236.82,81.64 L240.43,79.75 L240.62,75.59 L241.90,75.34 L243.49,68.66 L251.75,67.40 L253.16,69.04 L252.85,71.81 L255.73,76.10 L260.32,75.84 L261.24,77.74 L260.75,80.00 L262.58,80.00 L262.83,83.16 L265.64,83.66 L267.11,86.81 L269.19,87.57 L269.19,90.97 L271.27,91.23 L272.50,88.83 L275.25,90.97 L284.12,91.86 L287.85,89.46 L292.08,91.10 L290.00,80.76 L291.28,79.37 L294.34,87.57 L297.64,88.58 L298.13,92.11 L299.73,92.87 L298.26,96.90 L299.91,101.06 L300.95,102.32 L303.46,100.43 L302.85,104.34 L302.91,113.80 L301.62,115.31 L303.95,120.73 L304.01,124.01 L306.95,123.00 L307.92,127.79 L309.64,129.18 L313.68,125.77 L315.94,126.03 L320.41,129.81 L320.35,133.34 L322.79,132.71 L327.44,137.75 L332.89,140.40 L335.83,147.84 L338.28,158.68 L348.37,178.10 L347.88,180.62 L355.22,183.65 L355.10,181.13 L356.26,181.63 L357.06,179.49 L356.82,175.96 L360.30,173.56 L363.06,175.45 L368.44,185.04 L369.11,189.95 L369.48,194.49 L372.85,199.79 L369.30,203.32 L369.36,205.97 L370.83,208.23 L373.21,207.98 L377.56,203.82 L379.39,207.10 L379.76,210.13 L378.78,213.03 L376.82,214.16 L377.07,219.71 L374.50,218.20 L373.95,223.49 L378.97,231.06 L379.33,233.07 L378.17,235.47 L379.21,240.77 L386.68,246.82 L390.35,254.38 L388.82,259.93 L388.94,263.46 L389.37,267.24 L393.65,274.68 L394.63,272.29 L397.94,272.29 L399.34,270.02 L396.41,261.07 L398.85,257.53 L400.20,248.58 L402.40,245.93 L405.22,245.93 L408.52,243.67 L412.56,245.56 L421.06,236.48 L424.25,239.13 L426.82,245.18 L428.22,243.41 L431.04,247.20 L441.93,246.94 L441.20,241.65 L442.48,237.74 L442.05,235.22 L442.60,232.95 L444.81,231.69 L456.13,236.98 L457.23,238.50 L456.92,241.77 L458.02,240.13 L458.51,242.28 L463.35,246.19 L464.63,242.53 L467.26,243.16 L469.34,236.48 L469.41,232.19 L471.12,228.16 L472.10,213.78 L473.32,208.61 L474.28,208.52 L472.16,206.72 L473.02,199.16 L470.51,192.98 L469.22,180.24 L475.16,179.61 L475.83,177.97 L477.36,179.61 L478.40,179.49 L479.20,182.26 L485.25,178.10 L487.58,180.62 L491.68,177.72 L492.72,180.62 L494.37,181.38 L495.17,180.12 L494.62,178.73 L498.04,178.98 L496.39,177.60 L498.29,176.21 L501.65,178.10 L503.00,180.75 L503.73,179.87 L504.83,185.67 L503.85,180.50 L507.16,180.62 L514.26,171.54 L519.70,169.65 L522.82,174.82 L523.19,178.73 L524.97,174.07 L527.05,174.82 L529.43,186.17 L532.12,186.93 L534.57,182.01 L539.28,187.68 L540.32,188.06 L540.75,185.41 L544.30,184.66 L548.65,182.51 L548.83,177.60 L551.03,175.20 L553.85,176.71 L556.91,173.69 L558.56,177.85 L562.96,180.12 L564.13,184.91 L566.09,183.77 L568.17,185.29 L569.39,189.07 L572.14,188.82 L574.77,191.59 L576.79,189.83 L579.00,190.71 L583.10,184.66 L586.89,188.82 L589.40,188.57 L590.74,186.04 L594.42,193.73 L594.42,197.52 L597.60,206.85 L600.96,206.60 L601.82,214.67 L603.04,216.05 L603.78,214.03 L605.31,214.92 L605.06,222.36 L609.84,225.76 L612.47,226.77 L613.51,230.30 L612.28,232.07 L612.90,234.84 L611.49,241.27 L616.20,243.54 L615.77,250.35 L619.26,251.48 L618.83,254.63 L620.30,262.20 L622.50,267.24 L625.07,267.50 L627.28,271.28 L630.95,287.04 L628.19,288.80 L628.62,292.46 L626.85,295.99 L626.72,299.40 L622.75,300.53 L620.78,304.14 L621.83,308.73 L624.28,309.99 L626.05,314.53 L629.91,315.53 L629.29,318.43 L625.07,320.33 L627.09,323.98 L631.93,327.26 L634.62,325.62 L638.29,334.45 L640.49,333.57 L643.92,335.96 L644.35,335.75 L646.00,333.44 L646.12,327.13 L647.65,323.73 L649.30,327.13 L652.61,329.15 L653.89,328.02 L656.28,332.68 L657.07,339.24 L658.48,339.74 L660.32,333.82 L661.30,335.71 L663.25,334.45 L665.03,335.83 L666.13,328.02 L668.03,327.39 L671.70,333.69 L674.02,340.25 L676.04,341.26 L675.98,343.78 L677.14,343.53 L678.98,348.57 L676.66,351.85 L679.10,349.45 L683.81,354.50 L681.80,351.34 L686.87,346.80 L690.48,337.47 L689.44,332.43 L690.97,327.26 L691.03,321.46 L697.52,315.66 L700.83,317.93 L703.03,314.90 L705.35,317.68 L707.37,316.29 L709.70,320.70 L712.45,318.81 L715.27,319.70 L716.49,326.38 L718.45,324.87 L722.67,325.37 L722.30,319.82 L720.10,316.29 L719.67,311.12 L724.20,305.70 L727.93,306.33 L732.58,317.55 L733.10,317.72 L736.01,308.47 L739.19,306.33 L741.58,291.58 L746.23,290.70 L749.35,300.03 L750.76,301.29 L752.59,298.39 L752.35,293.85 L755.90,294.86 L756.94,293.47 L756.63,287.42 L758.16,283.51 L759.69,282.88 L762.44,290.57 L765.44,292.71 L770.15,285.78 L772.36,289.56 L774.50,285.90 L775.42,282.63 L774.38,278.97 L776.46,277.33 L773.76,272.16 L775.66,266.49 L774.31,258.80 L778.23,256.15 L779.70,247.32 L781.84,236.73 L785.82,237.11 L786.80,234.71 L789.86,235.34 L791.88,240.26 L792.24,244.67 L794.08,245.05 L794.75,241.40 L797.08,243.16 L799.89,242.15 L799.04,251.73 L800.63,257.91 L803.56,258.80 L803.87,263.08 L805.40,265.35 L811.21,266.49 L814.46,272.03 L818.31,264.47 L821.74,262.58 L822.96,264.34 L824.43,262.20 L827.98,254.63 L831.22,253.88 L833.18,259.17 L836.24,258.92 L837.16,262.45 L838.50,262.58 L838.14,268.63 L840.58,270.02 L842.24,276.70 L840.95,278.97 L841.01,285.98 L841.62,284.39 L842.97,285.02 L843.46,290.19 L846.58,297.50 L854.53,306.83 L853.19,310.11 L853.49,312.63 L855.64,313.52 L856.55,311.12 L858.57,313.01 L859.55,320.45 L857.72,324.49 L861.02,326.88 L860.41,331.55 L861.02,327.26 L862.80,327.39 L863.47,333.44 L865.00,336.97 L868.73,337.98 L870.81,331.55 L872.28,331.55 L873.93,327.01 L876.13,325.62 L875.34,319.82 L876.26,316.54 L875.22,311.37 L877.97,304.82 L880.23,306.96 L881.70,305.45 L883.17,307.72 L882.50,310.74 L884.33,312.13 L891.62,305.83 L895.23,309.73 L900.49,310.11 L903.79,321.97 L906.85,322.47 L907.46,324.87 L906.61,331.80 L901.96,334.83 L900.92,340.63 L903.30,342.77 L906.12,351.47 L907.22,349.07 L910.52,351.22 L916.46,359.29 L922.15,365.72 L923.07,371.90 L928.33,376.94 L929.25,380.97 L938.55,387.66 L936.35,407.33 L942.10,399.63 L943.44,401.02 L945.22,399.63 L948.71,403.92 L953.17,402.66 L955.80,399.13 L961.37,396.48 L968.84,396.23 L971.35,399.63 L970.73,400.90 L971.96,405.69 L974.41,405.06 L976.12,411.36 L977.53,411.23 L980.77,417.67 L976.91,420.94 L977.28,426.74 L972.51,436.45 L971.04,443.51 L972.14,448.68 L968.84,457.13 L959.90,462.93 L955.25,459.53 L954.15,465.33 L953.11,466.33 L949.07,463.31 L948.28,465.58 L949.87,466.84 L951.95,472.77 L950.42,474.53 L950.42,479.83 L947.67,479.83 L947.30,482.47 L943.75,484.87 L943.38,489.16 L941.97,492.31 L938.24,491.55 L936.10,495.59 L939.22,500.76 L935.73,506.81 L933.79,506.94 L933.90,510.09 L936.59,516.39 L936.10,520.68 L936.96,523.33 L936.28,524.97 L938.79,526.10 L938.67,529.13 L945.46,537.45 L936.77,540.85 L936.35,542.11 L937.81,545.01 L933.65,551.07 L933.16,554.34 L929.43,552.70 L928.88,557.50 L933.71,566.20 L931.88,579.56 L929.68,582.71 L927.96,580.95 L926.49,584.35 L921.72,585.36 L920.93,591.54 L919.27,594.44 L918.42,603.52 L915.36,604.65 L916.95,611.08 L912.30,617.01 L912.42,620.92 L910.09,626.09 L913.34,629.74 L914.44,632.52 L914.32,636.17 L911.07,652.06 L909.91,651.30 L905.51,655.47 L907.04,662.78 L908.44,664.67 L910.28,662.40 L910.46,664.54 L915.72,673.24 L914.50,674.13 L914.13,681.57 L910.52,684.21 L910.03,686.23 L910.83,689.13 L906.61,695.56 L903.30,698.08 L901.96,701.61 L892.47,692.91 L891.74,695.94 L889.47,695.56 L888.62,698.08 L887.70,697.07 L887.33,699.47 L883.11,696.07 L881.34,700.86 L879.26,699.72 L873.56,704.89 L870.32,704.01 L867.81,704.89 L865.12,702.62 L863.16,694.68 L859.43,692.03 L858.21,686.36 L856.25,685.10 L854.41,675.01 L855.21,671.73 L853.62,666.94 L851.66,668.58 L848.97,666.18 L847.93,668.70 L841.50,668.07 L840.52,671.35 L839.36,679.67 L837.71,688.25 L840.22,692.16 L840.34,698.59 L835.75,703.88 L837.34,720.27 L835.20,728.97 L835.14,734.77 L831.22,735.40 L829.26,737.80 L830.06,741.58 L829.69,754.95 L827.30,764.28 L827.30,768.19 L824.18,774.74 L824.31,779.16 L823.76,796.81 L824.86,807.53 L824.25,821.40 L825.90,829.34 L824.67,833.00 L822.59,833.37 L821.61,838.92 L820.70,838.92 L818.80,835.39 L819.16,830.87 L815.86,833.63 L813.29,843.59 L811.64,841.82 L810.23,843.59 L810.97,848.88 L809.07,852.29 L811.15,855.69 L809.99,866.16 L813.90,868.80 L815.43,875.11 L813.72,878.51 L814.58,880.53 L814.27,885.07 L815.80,886.96 L813.54,896.16 L811.58,896.42 L807.91,901.08 L803.26,900.58 L795.73,902.22 L794.94,907.01 L791.57,909.91 L793.96,915.96 L788.88,920.63 L786.25,929.20 L776.52,919.36 L775.29,921.13 L772.23,920.00 L769.66,922.77 L767.83,925.29 L768.50,927.94 L770.34,928.82 L770.34,930.84 L767.40,935.00 L765.07,935.38 L764.03,938.15 L767.89,941.43 L767.34,947.48 L761.40,952.02 L762.50,954.67 L767.46,956.18 L766.36,966.02 L763.61,966.65 L759.45,972.07 L754.92,973.46 L753.69,977.62 L750.94,975.73 L745.13,980.77 L739.99,978.12 L737.91,972.70 L735.15,972.07 L733.81,972.32 L731.11,977.74 L728.18,978.25 L724.32,971.69 L721.51,963.50 L714.90,963.75 L713.06,963.24 L710.49,959.08 L705.29,970.81 L700.76,972.32 L699.97,977.11 L688.89,979.63 L684.06,974.21 L681.86,965.76 L677.45,959.08 L676.90,955.93 L678.61,954.16 L679.23,947.10 L678.49,944.58 L678.92,936.39 L671.64,923.40 L672.74,914.95 L669.50,910.41 L667.23,914.45 L663.50,916.59 L659.22,912.68 L653.53,900.83 L651.81,900.07 L649.36,893.39 L644.16,892.26 L642.63,878.64 L640.55,875.49 L640.19,871.20 L637.68,865.65 L635.72,865.40 L634.43,861.62 L629.72,858.59 L628.56,862.12 L626.79,862.25 L625.32,857.58 L623.73,857.33 L620.73,852.29 L614.61,848.50 L611.06,851.91 L610.39,855.31 L609.22,856.83 L603.78,856.32 L601.09,859.98 L598.52,866.16 L597.17,874.35 L594.05,877.50 L594.54,880.66 L590.93,885.83 L590.50,897.93 L586.28,905.75 L586.03,911.93 L587.07,917.35 L585.12,919.24 L582.79,925.42 L582.42,938.40 L581.20,942.56 L580.83,938.66 L577.59,937.52 L575.94,932.60 L576.55,924.28 L574.90,924.16 L573.61,921.13 L570.98,921.89 L570.86,914.57 L564.00,913.56 L562.35,919.74 L553.60,933.11 L550.60,931.97 L548.65,926.80 L542.89,926.80 L542.96,922.90 L539.28,923.65 L536.53,927.43 L532.31,924.16 L531.88,923.02 L533.23,920.63 L532.80,914.45 L528.82,907.89 L530.53,898.43 L529.31,888.60 L530.35,881.16 L528.21,876.12 L526.01,874.10 L525.76,868.55 L531.15,861.74 L537.02,843.08 L538.86,837.53 L541.43,835.14 L538.37,821.14 L539.47,806.27 L540.87,800.09 L540.87,784.58 L530.59,779.28 L529.55,776.26 L530.78,772.22 L526.19,764.66 L526.74,761.13 L528.76,758.98 L532.06,749.90 L532.55,745.49 L530.04,755.07 L526.01,758.10 L524.60,751.17 L526.50,740.95 L523.93,739.19 L521.60,733.39 L516.70,734.52 L513.03,730.74 L514.32,721.41 L518.60,715.10 L518.79,709.05 L517.62,706.78 L511.81,708.04 L508.81,712.33 L504.28,710.44 L497.55,701.49 L494.00,717.50 L486.91,724.31 L484.27,726.70 L481.95,723.55 L479.99,724.06 L471.36,731.24 L469.96,738.93 L464.27,742.72 L462.98,745.37 L459.86,744.36 L458.27,749.40 L454.54,753.56 L450.56,753.56 L447.25,763.90 L444.26,764.53 L442.67,769.07 L440.10,771.09 L435.81,763.77 L430.73,765.67 L426.88,764.53 L424.55,768.06 L421.62,773.23 L421.37,780.80 L419.41,788.99 L415.31,799.83 L415.31,802.73 L413.91,804.50 L409.38,805.89 L405.89,794.54 L406.69,791.13 L392.18,781.43 L386.31,774.37 L380.62,772.85 L376.64,774.62 L371.07,781.05 L366.36,779.79 L365.63,766.67 L358.96,774.24 L348.43,769.95 L347.15,767.93 L344.88,758.48 L342.56,755.83 L341.58,747.13 L340.11,741.33 L337.97,739.44 Z M316.78,499.43 L315.82,501.13 L314.59,510.59 L316.78,499.43 Z M215.96,569.98 L216.23,566.66 L212.35,586.62 L215.96,569.98 Z M133.78,461.67 L130.78,460.03 L131.05,458.95 L129.68,461.04 L133.78,461.67 Z M753.85,967.29 L753.63,968.79 L754.92,973.46 L753.85,967.29 Z M574.53,225.38 L575.45,226.14 L572.08,216.18 L574.53,225.38 Z M547.54,226.14 L546.18,227.06 L551.58,227.27 L547.54,226.14 Z M538.37,279.35 L539.58,281.50 L537.97,275.96 L538.37,279.35 Z M561.07,400.77 L565.23,391.94 L566.21,387.91 L561.07,400.77 Z M539.67,408.38 L540.63,410.60 L542.53,410.86 L539.67,408.38 Z M534.39,435.07 L535.53,439.52 L534.27,429.52 L534.39,435.07 Z M537.33,446.54 L539.81,446.37 L537.01,445.32 L537.33,446.54 Z M559.23,495.71 L561.99,492.06 L562.78,490.12 L559.23,495.71 Z M564.48,507.04 L564.58,505.39 L564.19,506.05 L564.48,507.04 Z M571.91,521.12 L571.71,519.92 L571.25,520.41 L571.91,521.12 Z M572.02,525.47 L573.55,532.15 L573.78,532.44 L572.22,522.97 L572.02,525.47 Z M579.42,542.74 L580.66,540.62 L580.22,540.73 L579.42,542.74 Z M581.38,541.10 L584.44,539.72 L581.33,540.46 L581.38,541.10 Z M591.17,519.17 L590.85,518.64 L590.93,523.45 L591.17,519.17 Z M591.97,509.83 L592.64,505.93 L590.74,512.36 L591.97,509.83 Z M629.17,574.39 L635.84,567.20 L631.50,570.86 L629.17,574.39 Z M640.86,573.63 L638.35,570.23 L635.84,567.20 L640.86,573.63 Z M641.29,540.10 L640.31,539.72 L641.47,537.45 L639.64,540.60 L641.29,540.10 Z M644.71,552.70 L645.34,552.80 L642.94,549.68 L644.71,552.70 Z M648.88,551.70 L647.96,548.29 L650.34,547.79 L647.16,548.04 L648.88,551.70 Z M674.81,664.63 L674.15,663.91 L673.45,665.41 L674.81,664.63 Z M677.94,669.84 L676.72,666.69 L675.88,665.79 L677.94,669.84 Z M680.61,694.26 L680.94,693.80 L683.02,681.19 L680.61,694.26 Z M673.84,701.87 L676.96,699.47 L678.01,697.98 L673.84,701.87 Z M641.76,708.13 L642.98,708.60 L642.76,707.29 L645.69,701.49 L641.76,708.13 Z M643.37,729.73 L644.19,732.74 L643.12,721.53 L643.37,729.73 Z M642.21,783.57 L649.43,786.34 L647.22,785.21 L642.21,783.57 Z M669.50,844.34 L672.00,847.75 L666.74,839.43 L669.50,844.34 Z M669.30,852.84 L669.50,852.16 L669.35,850.64 L669.30,852.84 Z M665.15,894.65 L665.09,890.36 L664.44,889.14 L665.15,894.65 Z M657.47,622.87 L660.68,629.49 L658.54,623.94 L657.47,622.87 Z M405.20,327.68 L410.17,321.46 L405.20,327.68 L405.20,327.68 Z M387.41,329.78 L386.55,322.97 L384.88,318.45 L387.41,329.78 Z M388.51,382.11 L386.62,381.23 L388.52,382.94 L388.51,382.11 Z M397.45,401.27 L395.55,402.91 L393.22,406.70 L397.45,401.27 Z M393.47,526.23 L394.16,521.26 L393.47,522.32 L393.47,526.23 Z M390.59,532.66 L391.16,530.23 L388.39,535.05 L390.59,532.66 Z M419.78,561.91 L418.31,566.45 L417.09,570.86 L419.78,561.91 Z M437.65,542.62 L437.40,544.51 L437.46,545.27 L437.65,542.62 Z M441.38,552.07 L437.71,548.34 L437.83,549.93 L441.38,552.07 Z M473.14,586.24 L471.79,587.50 L479.58,587.40 L473.14,586.24 Z M484.89,586.87 L484.73,587.33 L490.33,587.25 L484.89,586.87 Z M501.65,605.03 L498.29,608.18 L502.56,605.03 L501.65,605.03 Z M504.22,605.03 L503.68,605.03 L504.62,606.10 L504.22,605.03 Z M518.52,623.92 L516.34,608.69 L515.69,609.69 L515.97,609.57 L518.52,623.92 Z M544.97,578.68 L543.01,578.99 L547.82,579.88 L544.97,578.68 Z M558.25,603.27 L562.29,597.59 L557.15,603.27 L555.62,604.40 L558.25,603.27 Z M566.98,598.94 L566.21,598.22 L562.29,597.59 L566.98,598.94 Z M568.78,600.62 L568.23,600.10 L569.10,603.21 L568.78,600.62 Z M560.03,682.45 L560.39,679.67 L561.99,697.83 L559.60,667.90 L559.35,670.97 L560.03,682.45 Z M564.43,774.74 L566.33,767.05 L563.38,777.10 L564.43,774.74 Z M92.66,309.23 L100.61,313.90 L100.87,313.66 L92.66,309.23 Z M153.54,294.10 L158.99,289.81 L152.66,293.60 L153.54,294.10 Z M180.96,306.71 L177.47,304.57 L180.96,307.84 L185.06,312.63 L180.96,306.71 Z M237.64,352.11 L245.08,343.02 L237.92,350.84 L237.64,352.11 Z M297.03,346.68 L298.24,347.76 L296.67,344.30 L296.24,357.27 L296.59,358.05 L297.03,346.68 Z M334.24,358.53 L338.89,356.13 L340.48,353.61 L334.24,358.53 Z M351.37,335.08 L354.43,334.20 L346.41,333.44 L351.37,335.08 Z M414.33,581.20 L411.34,590.15 L411.38,591.79 L414.33,581.20 Z M411.44,593.81 L411.46,594.57 L414.03,598.60 L411.44,593.81 Z M418.41,634.11 L414.38,638.15 L414.38,638.15 L418.31,634.53 L418.41,634.11 Z M383.80,643.87 L380.19,639.07 L383.90,644.76 L383.80,643.87 Z M385.57,659.00 L385.22,655.95 L385.70,661.14 L387.04,655.97 L385.57,659.00 Z M389.80,657.23 L388.70,655.84 L387.04,655.97 L389.80,657.23 Z M328.18,496.09 L318.39,496.60 L317.94,497.38 L328.18,496.09 Z M374.87,603.39 L374.96,604.57 L376.03,600.37 L374.87,603.39 Z M207.21,471.59 L207.02,466.46 L206.78,469.87 L207.21,471.59 Z M228.87,457.26 L229.22,456.17 L222.56,462.80 L228.87,457.26 Z M245.57,435.07 L247.53,430.78 L244.93,435.00 L245.57,435.07 Z M281.78,455.83 L280.57,455.49 L273.90,458.52 L281.78,455.83 Z M184.87,547.91 L179.12,543.75 L180.41,545.77 L184.87,547.91 Z M246.55,489.53 L247.35,498.49 L246.93,488.59 L246.55,489.53 Z M344.88,362.44 L344.57,362.48 L349.17,371.39 L344.88,362.44 Z M133.29,440.99 L131.80,455.89 L132.74,452.09 L133.29,440.99 Z M137.02,422.71 L135.98,431.83 L136.59,430.02 L137.02,422.71 Z M65.61,306.71 L68.82,312.07 L68.79,311.12 L65.61,306.71 Z M132.37,384.63 L134.51,385.77 L131.99,383.91 L132.37,384.63 Z M126.13,336.72 L130.96,327.64 L124.29,338.10 L126.13,336.72 Z M110.81,319.92 L108.02,314.90 L109.42,318.06 L110.81,319.92 Z M142.59,279.98 L136.93,275.83 L137.57,276.70 L142.59,279.98 Z M259.25,231.44 L258.64,231.72 L259.03,231.69 L259.25,231.44 Z M252.96,232.26 L253.68,232.19 L253.16,231.81 L252.96,232.26 Z M273.42,257.94 L271.09,257.21 L272.01,258.29 L273.42,257.94 Z M287.12,248.71 L286.20,251.23 L285.47,257.41 L287.12,248.71 Z M325.55,264.97 L325.78,265.65 L330.08,260.31 L325.55,264.97 Z M204.02,250.73 L209.23,241.14 L202.62,252.74 L200.66,259.05 L204.02,250.73 Z M134.88,273.04 L135.17,273.43 L135.01,272.43 L134.88,273.04 Z M280.39,236.35 L287.59,238.15 L287.85,237.23 L280.39,236.35 Z M522.40,632.27 L520.06,632.60 L520.13,633.02 L522.40,632.27 Z M528.87,634.32 L525.27,634.79 L528.39,634.66 L528.87,634.32 Z M440.58,682.95 L438.50,683.46 L442.92,684.16 L440.58,682.95 Z M467.02,720.02 L463.59,715.73 L468.13,722.90 L467.02,720.02 Z M422.29,626.21 L424.97,620.21 L423.76,621.04 L422.29,626.21 Z M425.41,619.91 L429.51,621.98 L425.78,619.66 L425.41,619.91 Z M450.50,633.58 L451.30,633.47 L450.31,632.64 L450.50,633.58 Z M453.98,633.08 L455.21,632.90 L455.76,631.81 L453.98,633.08 Z M456.43,630.50 L456.87,629.65 L456.62,629.74 L456.43,630.50 Z M458.63,628.97 L463.35,633.15 L459.55,628.61 L458.63,628.97 Z M544.91,553.08 L545.71,553.84 L547.33,553.08 L544.91,553.08 Z M471.71,250.92 L471.85,253.00 L473.38,258.29 L471.71,250.92 Z M482.94,299.53 L481.83,306.96 L482.99,299.90 L482.94,299.53 Z M497.00,262.58 L499.94,265.48 L495.41,260.56 L497.00,262.58 Z M502.14,257.91 L502.38,254.08 L499.94,265.48 L502.14,257.91 Z M505.26,278.59 L506.98,277.33 L508.93,275.69 L505.26,278.59 Z M525.55,265.16 L525.82,265.73 L526.02,265.38 L525.55,265.16 Z M430.73,458.14 L426.33,441.37 L431.10,460.16 L430.73,458.14 Z M439.42,466.46 L433.36,455.74 L432.39,455.24 L439.42,466.46 Z M463.05,461.74 L460.41,466.71 L458.70,472.13 L463.05,461.74 Z M466.04,452.47 L464.40,458.51 L465.98,454.73 L465.92,457.89 L466.04,452.47 Z M509.91,466.71 L512.79,465.14 L505.94,466.59 L509.91,466.71 Z M514.75,464.07 L515.44,462.52 L513.29,464.87 L514.75,464.07 Z M521.42,462.55 L517.38,460.41 L516.84,461.00 L521.42,462.55 Z M526.64,494.27 L527.05,496.09 L528.94,497.23 L526.64,494.27 Z M437.65,515.89 L437.24,517.64 L438.25,515.68 L437.65,515.89 Z M445.24,513.24 L441.43,514.57 L443.83,514.88 L445.24,513.24 Z M478.71,503.15 L478.57,504.16 L479.50,502.40 L478.71,503.15 Z M502.39,554.34 L494.49,552.58 L498.41,553.97 L502.39,554.34 Z M477.18,528.50 L481.64,541.23 L476.38,524.59 L477.18,528.50 Z M481.34,567.58 L488.13,571.49 L494.68,574.01 L481.34,567.58 Z M417.27,519.54 L416.98,521.53 L421.62,513.24 L417.27,519.54 Z M471.67,361.43 L470.87,368.74 L470.63,373.28 L471.67,361.43 Z M515.42,347.52 L514.13,350.59 L513.71,354.24 L515.42,347.52 Z M532.43,340.12 L532.83,341.60 L534.69,323.10 L533.41,335.58 L532.43,340.12 Z M533.59,344.40 L534.20,346.67 L534.14,345.17 L533.59,344.40 Z M430.98,321.33 L431.91,321.38 L430.69,320.75 L430.98,321.33 Z M493.76,344.79 L493.93,345.10 L493.80,344.37 L493.76,344.79 Z M493.74,247.61 L493.45,246.19 L491.10,245.44 L493.74,247.61 Z M547.97,221.47 L547.18,220.84 L543.20,222.10 L547.97,221.47 Z M600.64,624.99 L603.41,618.90 L600.84,623.06 L600.64,624.99 Z M611.12,606.52 L610.90,606.11 L610.63,606.45 L611.12,606.52 Z M628.62,624.95 L629.91,631.38 L628.13,621.80 L624.89,615.62 L628.62,624.95 Z M632.58,637.92 L632.66,637.06 L632.39,636.50 L632.58,637.92 Z M633.33,643.61 L637.37,655.09 L633.09,641.81 L633.33,643.61 Z M637.86,661.39 L638.72,663.53 L637.37,655.09 L637.86,661.39 Z M639.88,662.40 L643.00,655.47 L638.72,663.53 L639.88,662.40 Z M568.59,812.19 L565.41,811.81 L570.24,813.56 L568.59,812.19 Z M578.08,741.71 L581.05,743.14 L579.12,741.08 L578.08,741.71 Z M624.22,697.20 L628.74,700.98 L630.82,701.40 L624.22,697.20 Z M634.94,704.02 L636.03,705.90 L640.81,707.76 L634.94,704.02 Z M612.75,806.66 L612.65,807.90 L614.12,814.59 L612.75,806.66 Z M615.53,790.38 L615.45,790.26 L616.02,793.66 L615.53,790.38 Z M611.43,562.03 L610.20,571.11 L611.12,568.72 L611.43,562.03 Z M625.38,581.70 L617.79,579.31 L622.87,581.96 L625.38,581.70 Z M628.68,589.90 L626.97,584.48 L625.38,581.70 L628.68,589.90 Z M649.06,612.09 L646.92,610.83 L650.94,615.32 L649.06,612.09 Z M591.85,555.35 L592.89,554.97 L592.96,555.41 L593.11,553.75 L591.85,555.35 Z M593.36,553.42 L600.41,552.20 L593.93,552.70 L593.36,553.42 Z M587.20,548.17 L590.81,553.46 L585.94,544.32 L587.20,548.17 Z M666.99,399.00 L667.37,398.69 L666.80,398.71 L666.99,399.00 Z M652.18,415.90 L649.67,408.71 L647.22,403.17 L652.18,415.90 Z M650.34,451.42 L649.55,448.30 L649.73,450.20 L650.34,451.42 Z M669.85,462.62 L667.91,459.02 L668.70,462.17 L669.85,462.62 Z M689.63,440.74 L688.66,443.11 L692.44,439.10 L689.63,440.74 Z M715.39,432.29 L712.51,434.43 L720.16,430.27 L715.39,432.29 Z M727.53,489.86 L727.42,488.90 L727.26,489.41 L727.53,489.86 Z M737.91,506.81 L731.73,501.01 L734.91,504.41 L737.91,506.81 Z M747.82,529.88 L748.25,527.36 L746.65,532.73 L747.82,529.88 Z M753.69,515.51 L754.49,518.91 L756.25,522.26 L753.69,515.51 Z M757.61,505.80 L754.61,511.35 L753.69,515.51 L757.61,505.80 Z M759.67,527.45 L758.86,527.22 L759.20,527.87 L759.67,527.45 Z M772.88,586.20 L772.97,584.86 L770.77,581.96 L772.88,586.20 Z M782.51,601.37 L775.52,591.49 L777.74,595.95 L782.51,601.37 Z M783.78,607.97 L783.98,606.42 L782.51,601.37 L783.78,607.97 Z M782.70,696.95 L783.12,695.55 L781.05,696.44 L782.70,696.95 Z M777.62,714.98 L775.11,714.85 L777.77,716.08 L777.62,714.98 Z M772.60,743.73 L770.03,741.83 L769.79,741.93 L772.60,743.73 Z M767.34,744.23 L768.42,742.48 L762.81,744.73 L767.34,744.23 Z M762.08,742.97 L761.45,742.76 L762.81,744.73 L762.08,742.97 Z M759.56,756.05 L759.45,742.09 L759.14,755.45 L759.56,756.05 Z M746.53,858.21 L749.47,857.46 L752.50,857.46 L751.60,855.84 L751.55,856.57 L746.53,858.21 Z M744.33,849.51 L745.86,856.57 L746.53,858.21 L744.33,849.51 Z M769.66,917.22 L767.89,915.83 L769.66,917.99 L769.66,917.22 Z M672.19,522.95 L674.27,529.76 L677.02,535.56 L672.19,522.95 Z M664.29,546.53 L661.63,547.61 L662.70,547.91 L664.29,546.53 Z M604.51,337.10 L604.54,336.11 L603.29,338.99 L604.51,337.10 Z M639.65,369.22 L639.15,364.07 L638.90,366.35 L639.65,369.22 Z M639.91,360.54 L639.57,360.30 L639.51,360.89 L639.91,360.54 Z M596.86,412.24 L598.76,418.93 L596.92,410.48 L597.05,402.16 L596.86,412.24 Z M577.96,425.86 L580.28,426.37 L583.34,425.23 L577.96,425.86 Z M609.53,409.47 L609.22,411.74 L610.75,407.96 L609.53,409.47 Z M606.97,479.62 L607.76,478.19 L608.13,475.23 L606.97,479.62 Z M632.72,395.22 L637.37,391.57 L635.35,392.57 L632.72,395.22 Z M638.04,380.47 L640.06,373.53 L639.98,372.62 L638.04,380.47 Z M661.60,354.50 L661.10,353.39 L662.40,362.57 L661.60,354.50 Z M586.83,287.54 L578.63,287.29 L580.10,287.80 L586.83,287.54 Z M586.16,296.50 L589.09,301.79 L585.67,294.73 L586.16,296.50 Z M601.39,307.09 L607.11,317.22 L606.65,315.41 L601.39,307.09 Z M560.23,295.95 L559.35,297.00 L556.85,303.30 L560.23,295.95 Z M564.98,296.12 L562.29,293.47 L561.79,294.07 L564.98,296.12 Z M704.13,849.89 L704.01,849.94 L705.84,852.16 L702.97,845.35 L704.13,849.89 Z M734.92,832.14 L735.52,833.25 L736.44,833.09 L734.92,832.14 Z M737.75,832.87 L738.52,832.74 L738.52,830.35 L737.75,832.87 Z M751.18,958.33 L753.36,964.48 L752.71,960.72 L751.18,958.33 Z M718.68,954.39 L718.88,953.91 L713.43,935.76 L718.68,954.39 Z M711.53,928.95 L711.78,916.09 L711.23,908.52 L711.53,928.95 Z M689.86,628.70 L689.57,628.99 L690.20,633.61 L689.86,628.70 Z M691.87,626.14 L694.46,623.82 L692.08,625.46 L692.38,622.43 L691.87,626.14 Z M688.59,610.20 L685.34,596.83 L688.53,612.34 L692.38,622.43 L688.59,610.20 Z M730.80,632.98 L731.54,632.01 L731.67,628.23 L730.80,632.98 Z M736.13,651.81 L736.25,649.16 L735.83,643.87 L736.13,651.81 Z M741.21,655.21 L740.84,658.11 L741.94,653.45 L741.21,655.21 Z M742.92,663.91 L743.96,664.42 L740.84,658.11 L742.92,663.91 Z M745.98,665.43 L746.70,662.90 L745.19,665.03 L745.98,665.43 Z M757.61,666.18 L757.87,665.47 L752.35,666.06 L757.61,666.18 Z M689.14,759.23 L687.06,749.53 L689.02,761.50 L689.14,759.23 Z M691.46,769.95 L687.30,767.43 L689.69,768.94 L691.46,769.95 Z M713.80,781.05 L705.90,782.06 L710.37,781.80 L713.80,781.05 Z M715.52,760.23 L715.68,762.74 L715.82,762.26 L715.52,760.23 Z M745.86,714.22 L744.09,715.61 L742.74,719.14 L745.86,714.22 Z M741.18,829.41 L741.39,829.34 L741.72,828.08 L741.18,829.41 Z M742.31,793.66 L747.33,796.68 L741.43,792.15 L742.31,793.66 Z M723.84,666.53 L723.04,665.80 L722.98,666.87 L723.84,666.53 Z M678.91,547.45 L680.88,559.89 L679.47,547.91 L684.30,552.58 L684.72,552.19 L678.91,547.45 Z M703.09,566.95 L697.26,558.91 L705.59,572.66 L703.09,566.95 Z M732.27,580.63 L729.40,583.47 L727.01,587.76 L732.27,580.63 Z M733.26,560.52 L731.11,562.79 L735.28,559.51 L733.26,560.52 Z M743.11,553.33 L738.52,561.91 L743.94,553.40 L743.11,553.33 Z M747.59,544.43 L747.97,547.05 L748.31,546.53 L747.59,544.43 Z M769.02,582.25 L767.58,579.18 L768.50,582.33 L769.02,582.25 Z M722.18,549.93 L723.34,552.45 L722.20,549.31 L722.18,549.93 Z M687.30,522.44 L687.12,520.58 L686.91,524.35 L687.30,522.44 Z M684.55,497.98 L684.67,495.21 L683.08,501.64 L684.55,497.98 Z M785.21,539.21 L788.80,535.07 L788.80,535.07 L785.21,539.21 Z M762.08,351.85 L757.24,347.81 L769.60,361.68 L762.08,351.85 Z M778.29,369.88 L782.15,372.27 L782.71,372.04 L778.29,369.88 Z M782.27,385.89 L782.04,385.95 L782.29,386.05 L782.27,385.89 Z M757.43,383.37 L751.55,392.83 L753.27,390.93 L757.43,383.37 Z M755.29,392.96 L755.41,410.10 L755.41,393.08 L755.29,392.96 Z M767.71,437.33 L773.89,441.87 L770.83,438.47 L767.71,437.33 Z M776.95,463.06 L778.66,460.03 L776.24,463.88 L777.99,463.56 L776.95,463.06 Z M700.83,365.97 L696.54,369.50 L698.56,368.24 L700.83,365.97 Z M711.35,423.97 L712.15,415.65 L711.66,412.62 L711.35,423.97 Z M716.25,413.88 L720.04,418.93 L720.60,419.07 L716.25,413.88 Z M722.33,419.53 L723.40,419.81 L723.64,419.00 L722.33,419.53 Z M748.13,474.28 L746.90,471.04 L746.90,473.14 L753.69,482.85 L748.13,474.28 Z M702.17,378.83 L699.97,372.37 L700.27,375.43 L702.17,378.83 Z M749.69,338.48 L750.36,337.92 L745.00,334.32 L749.84,337.85 L749.69,338.48 Z M751.16,337.27 L753.20,335.58 L751.80,335.46 L751.16,337.27 Z M749.20,340.58 L749.04,341.26 L749.53,342.31 L749.20,340.58 Z M789.71,537.42 L791.02,540.85 L792.05,540.72 L789.71,537.42 Z M800.09,538.93 L800.93,537.83 L803.07,531.52 L800.09,538.93 Z M859.61,566.95 L862.69,568.83 L862.67,568.72 L859.61,566.95 Z M864.14,575.90 L868.73,587.25 L867.14,582.21 L864.14,575.90 Z M753.27,858.84 L752.88,858.16 L753.63,863.00 L753.27,858.84 Z M806.38,662.90 L799.83,655.47 L798.18,655.21 L802.52,658.62 L806.38,662.90 Z M798.67,638.82 L797.69,651.93 L798.18,655.21 L798.67,638.82 Z M825.84,621.55 L832.26,616.76 L833.91,614.23 L825.84,621.55 Z M840.40,610.58 L840.40,602.89 L840.09,602.16 L840.09,604.40 L839.42,603.14 L840.40,610.58 Z M886.41,633.02 L891.37,630.12 L894.25,626.09 L888.37,631.63 L885.31,632.31 L886.41,633.02 Z M893.33,602.26 L890.33,601.12 L889.53,602.37 L893.33,602.26 Z M800.50,467.72 L800.76,463.14 L800.50,464.19 L800.50,467.72 Z M820.21,404.68 L821.98,403.29 L817.39,404.38 L820.21,404.68 Z M826.94,413.00 L828.83,413.88 L823.88,407.96 L826.94,413.00 Z M829.20,420.44 L833.00,425.48 L827.67,416.53 L829.20,420.44 Z M837.77,437.97 L840.15,439.86 L844.59,443.95 L843.28,441.50 L837.77,437.97 Z M887.70,411.36 L894.74,413.13 L895.22,412.36 L889.11,411.36 L887.70,411.36 Z M898.84,406.70 L899.53,403.20 L897.30,409.11 L898.84,406.70 Z M928.33,438.47 L929.06,442.88 L928.65,442.48 L930.96,449.57 L928.33,438.47 Z M944.73,432.17 L945.80,431.24 L942.76,430.21 L944.73,432.17 Z M948.52,428.89 L950.48,425.61 L947.49,429.78 L948.52,428.89 Z M954.70,415.65 L953.05,408.84 L954.25,416.03 L954.70,415.65 Z M887.27,539.21 L886.97,541.99 L888.05,538.10 L885.80,539.59 L887.27,539.21 Z M919.08,514.34 L912.73,513.87 L918.78,515.00 L919.08,514.34 Z M920.61,514.45 L920.16,514.42 L920.44,514.88 L920.61,514.45 Z M838.93,465.20 L838.21,464.13 L839.73,469.74 L838.93,465.20 Z M808.83,509.20 L810.36,512.48 L813.72,518.03 L808.83,509.20 Z M927.78,441.62 L926.49,444.27 L928.06,441.90 L927.78,441.62 Z M938.55,487.01 L938.91,487.17 L938.53,486.68 L938.55,487.01 Z M785.88,397.87 L784.28,395.64 L784.41,396.48 L785.88,397.87 Z M798.70,372.16 L798.97,372.53 L801.85,374.17 L798.70,372.16 Z M819.11,356.77 L814.39,349.83 L819.66,358.53 L819.11,356.77 Z M810.78,350.33 L810.37,350.94 L814.39,349.83 L810.78,350.33 Z M840.46,374.04 L837.10,378.20 L835.75,381.98 L840.46,374.04 Z M831.47,385.13 L831.33,386.59 L831.95,384.78 L831.47,385.13 Z M806.07,347.43 L808.46,351.47 L808.88,351.35 L806.07,347.43 Z M823.33,285.02 L824.55,282.63 L818.19,292.08 L823.33,285.02 Z M839.73,287.67 L838.63,292.08 L840.62,286.97 L839.73,287.67 Z" /></g></svg>