<svg xmlns="http://www.w3.org/2000/svg" viewBox="0 0 1000 1000" width="1000" height="1000"><g fill="#cccccc" stroke="#222" stroke-width="2"><path d="M136.67,943.89 L135.34,939.50 L133.92,939.64 L132.50,933.06 L129.00,932.47 L128.08,937.60 L123.41,937.89 L122.07,933.50 L119.66,935.40 L117.90,926.18 L125.74,923.84 L127.16,919.30 L127.48,919.45 L126.74,917.69 L122.41,918.72 L123.83,913.74 L121.74,910.81 L122.49,903.64 L126.58,900.28 L124.08,893.54 L129.41,891.35 L134.75,878.61 L135.34,866.32 L130.33,861.35 L131.50,858.56 L130.16,857.25 L130.67,854.03 L138.92,854.47 L127.08,852.13 L125.49,854.61 L124.58,851.39 L126.83,844.95 L126.24,842.61 L124.24,843.49 L120.50,834.35 L119.66,834.71 L117.73,827.64 L113.32,834.86 L105.98,833.54 L92.30,830.32 L92.71,828.12 L86.96,821.83 L85.21,806.61 L83.54,802.22 L85.37,799.58 L68.78,813.78 L68.36,807.19 L69.36,805.58 L64.10,794.46 L65.61,787.14 L63.77,785.24 L63.77,780.85 L61.02,776.61 L59.77,771.05 L57.93,772.22 L53.09,765.05 L55.43,759.34 L54.10,758.02 L53.18,762.26 L48.26,761.68 L48.26,757.14 L45.92,750.70 L51.34,745.73 L50.09,742.65 L53.51,737.68 L55.76,739.29 L55.85,741.92 L56.43,736.21 L55.10,733.58 L57.18,730.51 L56.18,728.60 L57.27,727.29 L56.60,720.70 L54.76,720.26 L51.51,708.41 L56.18,694.65 L54.35,697.58 L51.34,696.99 L49.34,684.70 L50.43,684.70 L50.34,681.77 L52.93,681.62 L53.26,676.79 L52.09,674.89 L55.01,668.45 L55.38,668.39 L45.59,657.48 L45.42,654.40 L50.43,651.62 L41.17,654.26 L37.75,639.62 L44.59,641.38 L46.67,638.16 L43.50,632.45 L48.26,629.38 L47.34,616.50 L44.00,607.42 L39.42,610.35 L38.25,608.30 L38.83,603.03 L40.75,600.40 L39.58,598.35 L40.67,595.86 L51.34,597.76 L52.26,593.08 L58.27,585.62 L57.18,577.71 L64.44,576.69 L66.33,579.73 L67.44,574.79 L63.35,564.69 L59.27,552.83 L54.43,541.56 L53.68,528.69 L54.60,514.93 L61.27,506.88 L60.94,504.24 L57.40,501.85 L58.18,503.95 L54.85,505.56 L48.84,504.10 L47.92,501.02 L49.76,489.32 L47.76,483.90 L49.01,488.58 L44.42,493.56 L39.08,493.85 L33.24,486.39 L34.83,461.51 L33.49,457.12 L26.90,457.56 L19.23,443.22 L23.99,429.46 L31.91,433.85 L38.92,430.34 L42.42,421.99 L43.92,423.60 L41.58,420.24 L34.08,424.19 L31.58,421.99 L32.16,418.63 L35.58,414.82 L39.92,399.31 L43.00,387.60 L44.84,385.26 L49.42,390.53 L54.51,387.16 L65.69,392.14 L68.44,391.11 L71.61,380.58 L72.86,363.31 L69.03,356.28 L68.61,351.74 L70.44,348.52 L72.78,350.43 L79.79,340.48 L81.87,343.26 L81.12,349.11 L86.79,346.48 L84.37,347.21 L82.70,340.48 L80.62,331.11 L84.12,315.60 L83.29,303.30 L86.29,297.30 L89.71,298.18 L95.38,321.16 L98.39,322.18 L99.80,326.86 L106.06,334.33 L102.39,345.74 L107.56,329.79 L111.06,331.55 L110.90,335.50 L112.82,337.69 L115.57,338.57 L114.98,343.40 L119.32,343.55 L120.82,340.91 L124.05,342.33 L125.83,341.65 L129.58,346.33 L133.33,346.33 L135.42,357.01 L140.09,361.11 L140.17,358.18 L143.26,359.79 L141.93,355.11 L141.59,351.31 L143.68,347.79 L144.68,340.33 L147.35,338.28 L147.35,336.05 L145.43,330.52 L146.18,322.91 L144.59,313.40 L139.84,304.62 L145.35,294.81 L148.51,292.76 L150.77,294.52 L155.10,289.98 L157.27,288.81 L158.11,285.15 L159.69,285.45 L157.61,285.01 L159.61,276.67 L159.36,271.98 L160.78,270.23 L161.66,259.07 L158.94,258.81 L156.94,255.59 L155.10,257.05 L152.52,247.39 L152.60,244.03 L156.61,240.52 L158.61,230.86 L150.18,218.42 L154.52,205.83 L154.94,199.39 L156.61,191.49 L156.19,184.32 L153.60,183.29 L152.77,180.22 L155.85,177.00 L155.27,173.63 L158.19,159.44 L163.44,147.44 L162.11,145.83 L162.44,141.58 L160.78,137.19 L168.78,143.19 L161.78,137.34 L162.94,132.80 L163.61,134.85 L165.45,132.22 L162.36,126.95 L160.86,127.82 L158.69,118.02 L157.27,119.04 L152.85,114.80 L146.68,116.12 L144.01,113.34 L146.60,110.12 L145.43,107.04 L146.68,104.55 L146.35,99.58 L159.19,85.38 L162.86,72.94 L161.69,68.99 L166.11,53.33 L174.79,50.99 L177.04,44.11 L182.05,39.28 L185.21,30.06 L195.56,25.08 L197.06,21.57 L201.48,20.84 L203.40,25.52 L206.15,25.67 L208.07,25.08 L216.16,32.84 L224.58,34.16 L231.76,31.52 L237.18,23.91 L242.77,23.62 L251.69,19.23 L254.11,21.43 L263.70,43.82 L273.13,51.43 L267.29,56.11 L266.45,60.50 L259.62,64.89 L261.28,73.97 L258.11,90.50 L260.28,97.24 L258.70,115.24 L259.53,126.80 L261.20,131.63 L258.45,140.12 L258.20,144.36 L260.62,151.97 L258.53,172.90 L259.37,185.93 L264.12,190.61 L271.04,191.34 L279.22,195.73 L282.22,201.59 L290.31,203.78 L295.48,208.90 L302.90,208.61 L305.41,213.29 L307.33,210.66 L316.83,211.68 L320.34,223.98 L323.34,225.59 L322.09,228.95 L323.01,231.00 L326.84,222.66 L332.60,223.39 L338.10,216.37 L342.94,218.71 L347.36,213.29 L351.62,217.10 L358.71,216.81 L356.37,222.37 L356.95,225.73 L355.54,231.44 L356.45,234.95 L354.20,244.03 L357.54,246.22 L357.70,252.66 L355.62,260.57 L354.70,274.03 L354.54,274.12 L356.29,273.59 L360.54,268.62 L360.96,272.71 L359.04,277.54 L364.29,287.06 L365.38,287.50 L366.96,282.81 L367.88,282.08 L369.63,287.20 L373.80,288.67 L372.30,279.74 L377.22,274.62 L378.81,275.06 L382.23,285.89 L384.48,282.08 L391.74,280.62 L393.57,282.96 L393.07,290.72 L396.66,294.67 L396.66,298.91 L393.82,301.40 L394.24,305.20 L391.99,312.52 L389.48,314.28 L391.65,322.62 L388.98,330.08 L389.32,336.23 L393.32,338.87 L395.07,343.55 L398.16,344.72 L402.83,354.53 L403.83,351.60 L405.75,352.33 L407.83,348.96 L410.50,355.26 L409.21,356.38 L414.42,354.53 L420.18,356.57 L424.93,351.89 L427.52,355.84 L429.27,358.77 L434.27,359.21 L441.95,354.09 L448.37,342.67 L452.54,342.96 L453.21,341.21 L457.04,344.43 L462.13,342.23 L465.64,338.13 L465.22,327.89 L464.22,324.96 L458.88,321.45 L456.29,312.23 L457.29,307.69 L464.05,303.30 L466.89,295.84 L474.48,291.89 L479.90,294.81 L481.48,288.37 L484.32,286.47 L487.57,292.33 L488.41,297.01 L494.50,297.59 L496.66,292.76 L503.25,296.42 L507.17,295.84 L510.59,292.03 L513.01,280.76 L521.27,279.15 L523.27,265.54 L526.02,259.54 L525.52,252.52 L527.19,245.20 L529.61,242.13 L531.03,229.39 L541.45,225.15 L543.21,221.93 L543.71,223.54 L544.87,221.49 L553.47,204.66 L541.62,171.58 L542.96,165.73 L547.96,157.97 L551.30,157.53 L554.13,152.12 L557.80,138.65 L558.64,119.63 L561.47,112.31 L565.31,111.73 L570.90,101.33 L570.48,98.41 L572.40,92.11 L575.74,89.63 L579.41,82.89 L579.32,73.23 L583.66,66.21 L586.66,67.23 L590.25,64.01 L593.42,59.92 L594.75,54.06 L605.51,59.33 L615.86,58.89 L621.61,53.33 L627.28,51.72 L631.87,46.31 L639.13,49.38 L640.46,53.92 L648.63,56.55 L655.31,52.16 L657.14,48.21 L662.98,53.18 L666.15,53.04 L669.32,48.65 L671.82,50.84 L674.41,49.53 L677.74,44.99 L682.58,52.45 L688.92,54.36 L704.60,68.55 L704.35,84.07 L701.85,96.51 L703.02,100.46 L707.19,104.99 L711.02,115.09 L716.86,116.56 L718.45,119.78 L724.87,123.29 L730.46,132.51 L731.04,138.80 L738.72,143.34 L748.81,144.07 L751.73,139.09 L750.23,135.14 L752.65,135.14 L751.23,132.22 L752.90,130.46 L751.56,126.21 L754.23,124.90 L751.06,120.95 L751.98,117.73 L750.64,113.04 L748.98,114.07 L749.73,105.73 L756.32,97.68 L761.07,99.58 L774.67,90.94 L775.92,99.29 L781.09,107.63 L791.93,118.02 L802.69,112.60 L810.11,116.12 L809.78,114.07 L811.87,113.19 L822.04,116.70 L825.88,125.34 L828.13,143.48 L834.47,147.14 L840.23,155.19 L840.14,163.10 L836.22,170.85 L833.05,170.41 L830.72,166.32 L828.38,169.10 L827.63,180.66 L819.62,185.05 L818.87,195.59 L821.96,200.56 L821.46,210.37 L822.71,213.29 L828.71,205.68 L829.80,209.20 L831.72,209.78 L837.14,210.37 L842.31,207.73 L851.40,210.37 L860.33,217.39 L861.33,219.44 L859.83,226.17 L860.33,229.54 L862.58,231.74 L862.91,237.30 L870.92,244.76 L871.42,247.39 L868.33,257.49 L863.16,262.32 L861.99,269.79 L862.16,275.20 L866.17,285.74 L872.00,291.59 L878.34,305.35 L881.60,306.96 L883.68,305.35 L891.35,290.42 L893.44,291.89 L894.77,301.69 L893.19,308.72 L894.11,329.79 L893.44,312.81 L903.03,299.50 L908.62,301.55 L907.79,304.47 L913.12,316.03 L919.63,313.40 L926.72,297.59 L941.73,292.62 L945.24,297.15 L946.15,306.08 L948.24,306.52 L955.91,318.96 L954.83,322.18 L950.74,323.64 L946.24,329.35 L945.90,338.43 L940.82,347.35 L941.65,364.77 L946.82,378.53 L947.07,383.94 L945.24,390.24 L945.65,396.82 L942.23,406.33 L942.98,411.02 L950.83,414.97 L954.33,422.14 L959.25,424.19 L963.75,430.63 L967.76,431.21 L967.76,437.36 L971.84,444.24 L970.93,450.68 L979.43,460.05 L980.60,464.73 L980.77,474.97 L978.35,482.73 L974.68,486.39 L969.43,497.95 L965.84,498.39 L961.42,504.10 L958.33,502.93 L955.41,506.59 L952.33,503.51 L939.15,508.34 L930.18,519.73 L931.81,525.90 L931.31,533.66 L932.48,539.52 L935.56,544.05 L937.90,543.91 L939.40,547.42 L940.98,559.86 L937.65,567.62 L937.06,579.03 L933.73,585.32 L934.31,593.96 L932.89,599.37 L934.64,604.50 L929.97,607.57 L926.89,606.54 L921.55,628.21 L916.21,633.77 L915.54,657.48 L908.87,659.96 L907.54,672.70 L904.95,682.21 L900.70,684.11 L899.20,688.65 L892.02,682.65 L888.10,673.14 L883.01,665.96 L872.92,668.16 L863.16,674.01 L857.91,667.87 L854.40,667.57 L847.48,681.33 L838.47,679.14 L835.72,676.50 L833.39,660.40 L828.46,659.82 L825.46,662.01 L819.96,663.62 L807.11,660.40 L808.03,666.84 L807.20,670.50 L808.61,674.75 L808.11,696.55 L813.95,712.07 L802.11,707.09 L795.68,711.04 L789.93,709.58 L781.67,717.63 L760.24,712.65 L758.82,707.97 L746.06,707.09 L739.88,707.67 L730.13,699.92 L723.29,703.14 L720.62,698.89 L715.11,700.65 L707.94,689.38 L703.93,691.28 L699.51,686.45 L687.50,692.01 L685.75,687.19 L683.67,686.60 L678.75,687.04 L666.15,680.75 L662.81,681.77 L657.81,674.16 L653.22,671.53 L651.05,674.75 L652.81,681.04 L651.14,689.67 L647.80,684.70 L644.96,684.26 L635.62,683.82 L627.20,686.75 L626.36,678.70 L623.28,672.84 L609.77,675.18 L609.60,671.53 L611.52,666.84 L609.43,661.28 L604.68,655.72 L600.67,654.70 L589.75,659.67 L588.91,655.43 L585.08,653.52 L583.91,651.48 L575.07,656.30 L571.15,654.26 L559.55,609.47 L551.88,606.40 L545.46,611.67 L536.12,607.13 L534.70,603.03 L529.36,602.15 L528.69,600.25 L526.52,588.98 L525.19,601.13 L519.85,601.57 L514.26,598.64 L507.67,605.08 L501.00,600.25 L498.75,595.28 L496.00,598.50 L492.24,597.32 L488.74,600.98 L481.32,601.13 L478.65,597.32 L473.81,596.74 L472.73,598.50 L471.22,608.89 L467.47,608.89 L466.30,610.79 L463.05,631.28 L453.54,636.55 L452.12,639.91 L446.79,638.74 L445.37,642.99 L440.28,648.26 L433.52,648.11 L430.77,651.48 L430.27,658.79 L427.02,666.40 L427.60,671.23 L426.68,672.70 L425.43,670.65 L422.60,674.16 L423.26,680.75 L424.51,681.48 L419.51,684.84 L415.51,682.94 L412.67,685.87 L407.17,681.33 L406.58,684.70 L408.08,690.11 L407.00,694.06 L402.75,683.23 L400.49,684.11 L395.57,680.01 L394.49,670.35 L392.32,670.50 L387.90,665.53 L389.48,654.55 L379.81,653.52 L376.80,661.72 L377.39,674.45 L387.98,711.63 L386.90,726.26 L379.72,745.58 L373.22,750.70 L368.05,757.87 L364.96,777.34 L370.63,807.78 L370.80,827.98 L372.05,833.98 L377.72,849.64 L374.47,858.86 L362.79,878.03 L362.21,884.91 L365.04,903.79 L363.29,908.62 L351.78,921.79 L345.69,934.08 L346.36,947.99 L341.36,953.69 L334.77,950.18 L333.93,946.38 L329.26,940.67 L326.84,941.69 L324.17,939.06 L322.92,948.43 L321.00,946.82 L319.50,948.43 L313.33,942.42 L310.75,946.67 L309.99,944.03 L302.40,942.13 L301.90,937.60 L303.07,950.62 L298.23,952.23 L293.48,958.52 L287.72,960.43 L278.63,966.43 L275.21,963.79 L273.79,966.87 L270.54,966.72 L266.62,972.57 L264.29,971.99 L258.36,980.77 L254.78,971.70 L260.03,958.08 L258.79,954.17 L251.61,950.18 L249.69,953.11 L244.35,952.08 L240.60,944.03 L238.35,944.77 L237.76,940.08 L235.26,938.18 L234.18,934.95 L228.67,936.86 L228.09,944.33 L226.25,946.23 L226.75,953.84 L224.92,959.69 L218.74,957.94 L214.74,960.13 L215.16,941.99 L208.90,934.67 L209.74,936.28 L203.81,939.79 L193.56,925.30 L191.89,929.55 L188.17,928.65 L188.63,929.25 L187.47,938.33 L185.46,941.40 L183.30,940.38 L182.88,942.42 L174.71,934.67 L167.11,935.25 L164.11,929.40 L164.70,926.62 L163.36,928.08 L161.28,925.59 L159.52,928.08 L160.61,930.72 L159.44,931.16 L153.93,930.60 L149.85,938.03 L145.09,941.99 L143.43,945.94 L139.26,941.55 L136.67,943.89 Z M69.53,696.84 L65.94,694.94 L56.18,694.65 L69.53,696.84 Z M103.79,355.18 L104.31,355.26 L102.39,345.74 L103.79,355.18 Z M696.51,92.55 L695.50,92.83 L701.85,96.51 L696.51,92.55 Z M396.16,651.04 L398.19,648.73 L389.48,654.55 L396.16,651.04 Z M334.52,903.79 L338.52,908.47 L351.78,921.79 L334.52,903.79 Z M104.14,594.40 L104.30,592.24 L102.06,597.91 L104.14,594.40 Z M113.82,549.03 L112.23,550.93 L110.54,556.67 L113.82,549.03 Z M129.25,558.25 L122.07,558.10 L118.90,558.10 L129.25,558.25 Z M139.59,566.16 L138.17,564.40 L129.25,558.25 L139.59,566.16 Z M149.60,632.83 L150.02,632.30 L153.10,640.21 L149.02,629.34 L149.60,632.83 Z M156.12,641.31 L158.02,637.43 L155.94,640.50 L156.12,641.31 Z M160.57,606.32 L159.44,607.72 L154.10,621.62 L160.57,606.32 Z M194.06,635.67 L207.40,640.65 L216.45,644.07 L214.16,642.26 L192.87,633.96 L194.06,635.67 Z M205.32,643.56 L206.32,643.86 L207.40,640.65 L205.32,643.56 Z M220.91,645.77 L221.39,644.20 L219.52,645.24 L220.91,645.77 Z M222.75,639.77 L222.75,628.50 L222.33,641.12 L222.75,639.77 Z M252.61,649.28 L255.76,656.57 L244.43,627.47 L252.61,649.28 Z M266.45,675.92 L268.00,676.30 L261.53,671.38 L266.45,675.92 Z M303.16,682.10 L303.66,681.04 L303.06,679.99 L303.16,682.10 Z M296.40,709.28 L298.20,708.99 L295.60,708.85 L296.40,709.28 Z M327.13,684.78 L325.68,684.55 L318.75,689.97 L327.13,684.78 Z M84.12,622.64 L88.96,599.23 L83.21,626.89 L84.12,622.64 Z M150.68,639.33 L147.76,642.40 L146.10,645.47 L150.68,639.33 Z M191.80,645.47 L192.76,641.31 L189.97,647.52 L191.80,645.47 Z M199.23,683.53 L199.20,683.69 L199.98,683.23 L190.80,673.28 L199.23,683.53 Z M181.79,700.65 L183.46,701.38 L177.29,696.84 L181.79,700.65 Z M180.63,705.19 L181.19,707.62 L181.79,700.65 L180.63,705.19 Z M182.55,712.65 L182.05,711.54 L182.13,715.87 L182.55,712.65 Z M178.04,757.14 L179.79,754.80 L176.77,756.84 L178.04,757.14 Z M169.37,759.19 L170.03,755.24 L170.45,752.31 L169.37,759.19 Z M175.94,790.93 L174.87,781.44 L173.87,772.95 L175.94,790.92 L175.94,790.93 Z M181.29,792.41 L176.10,791.13 L177.12,792.41 L181.29,792.41 Z M191.39,866.76 L190.30,867.49 L182.30,873.79 L191.39,866.76 Z M197.08,902.89 L200.14,896.03 L197.56,900.42 L197.08,902.89 Z M197.14,904.96 L198.48,907.15 L196.92,903.73 L196.57,905.50 L197.14,904.96 Z M178.80,902.84 L181.13,900.57 L179.13,901.74 L178.80,902.84 Z M167.70,896.32 L177.37,904.23 L177.42,904.18 L163.36,892.81 L167.70,896.32 Z M187.63,926.47 L185.72,925.45 L187.63,927.95 L187.63,926.47 Z M139.04,907.59 L138.30,910.19 L139.76,908.32 L139.04,907.59 Z M133.58,796.66 L131.87,796.66 L133.50,796.80 L133.58,796.66 Z M135.93,811.79 L135.50,813.49 L137.75,813.34 L135.92,812.32 L135.93,811.79 Z M121.57,601.72 L125.73,604.39 L125.24,603.03 L121.57,601.72 Z M122.07,648.69 L123.83,640.50 L125.04,640.62 L122.85,637.41 L123.83,639.04 L122.07,648.69 Z M123.58,667.72 L121.42,667.85 L124.07,668.37 L123.58,667.72 Z M141.43,691.78 L140.92,694.21 L141.76,696.84 L141.43,691.78 Z M139.76,698.31 L140.76,700.80 L142.50,703.20 L139.76,698.31 Z M133.17,706.36 L127.58,712.95 L128.41,712.21 L133.17,706.36 Z M137.59,741.77 L131.42,746.60 L126.41,748.80 L129.83,748.36 L137.59,741.77 Z M129.19,781.09 L128.33,785.24 L129.66,781.73 L129.19,781.09 Z M129.91,791.39 L129.79,791.34 L130.58,792.12 L128.33,785.24 L129.91,791.39 Z M66.35,747.89 L66.68,747.97 L66.44,747.78 L66.35,747.89 Z M81.95,743.97 L83.62,741.92 L78.87,747.48 L81.95,743.97 Z M85.28,729.07 L84.50,729.27 L84.67,730.12 L85.28,729.07 Z M122.57,722.46 L123.16,716.89 L123.86,716.27 L122.94,714.74 L122.57,722.46 Z M126.97,790.15 L122.99,788.46 L126.83,790.66 L126.97,790.15 Z M78.37,766.07 L76.84,766.94 L78.08,767.12 L78.37,766.07 Z M77.03,770.90 L80.49,767.45 L80.37,766.22 L82.37,764.31 L82.04,763.41 L77.03,770.90 Z M87.41,780.38 L87.21,776.75 L87.41,780.38 L87.41,780.38 Z M90.71,794.46 L90.31,793.22 L90.80,799.00 L90.71,794.46 Z M120.35,794.68 L120.37,794.64 L113.57,786.27 L108.06,781.14 L120.35,794.68 Z M121.57,803.39 L119.97,797.88 L119.57,799.15 L121.57,803.39 Z M102.89,766.80 L109.90,770.75 L106.23,768.12 L102.89,766.80 Z M68.11,662.74 L76.53,671.09 L64.44,656.60 L67.19,660.70 L68.11,662.74 Z M90.04,631.57 L88.12,632.36 L93.13,633.62 L90.04,631.57 Z M96.47,651.33 L96.80,644.74 L95.47,655.72 L96.47,651.33 Z M108.14,677.38 L104.14,670.35 L105.64,673.57 L108.14,677.38 Z M116.90,668.11 L115.99,668.16 L108.14,677.38 L116.90,668.11 Z M91.30,698.02 L92.46,697.87 L95.88,692.89 L91.30,698.02 Z M111.06,698.75 L113.23,699.04 L110.68,698.67 L110.98,699.28 L111.06,698.75 Z M63.35,622.79 L77.95,616.20 L65.27,621.33 L63.35,622.79 Z M127.83,613.79 L128.08,610.94 L127.00,607.93 L127.83,613.79 Z M152.92,719.95 L153.02,720.41 L156.44,719.53 L158.44,717.19 L152.92,719.95 Z M154.27,744.99 L160.52,746.30 L158.27,744.56 L154.27,744.99 Z M176.04,857.10 L175.99,857.01 L174.29,869.25 L176.04,857.10 Z M155.60,891.93 L164.86,900.13 L167.11,901.59 L155.60,891.93 Z M163.61,907.15 L163.28,915.20 L164.86,900.13 L163.61,907.15 Z M158.61,863.69 L157.69,860.47 L158.27,867.93 L158.61,863.69 Z M154.02,831.20 L170.28,815.24 L157.52,827.54 L154.02,831.20 Z M136.78,808.44 L139.42,809.68 L137.09,807.19 L136.78,808.44 Z M142.20,756.86 L141.68,755.68 L140.59,757.29 L142.20,756.86 Z M143.88,756.92 L145.85,754.80 L143.66,756.77 L143.88,756.92 Z M145.68,782.17 L132.50,776.02 L134.59,777.92 L145.68,782.17 Z M148.88,661.52 L148.54,661.57 L148.85,661.57 L148.88,661.52 Z M164.53,664.06 L160.32,675.84 L160.53,675.77 L164.53,664.06 Z M165.11,683.23 L163.78,680.89 L160.53,675.77 L165.11,683.23 Z M170.62,670.50 L170.84,671.41 L174.48,664.80 L172.95,667.13 L172.66,666.66 L170.62,670.50 Z M176.96,671.23 L177.87,675.18 L175.24,663.63 L175.24,663.63 L176.96,671.23 Z M175.87,674.01 L174.79,683.23 L176.96,671.23 L175.87,674.01 Z M171.01,672.15 L171.29,673.28 L175.87,674.01 L171.01,672.15 Z M156.10,692.01 L153.14,680.73 L153.19,683.97 L156.10,692.01 Z M163.61,707.82 L160.28,714.41 L159.87,716.82 L163.61,707.82 Z M163.44,658.79 L163.19,662.16 L163.94,658.34 L163.44,658.79 Z M169.48,653.28 L172.62,651.04 L172.64,650.39 L169.48,653.28 Z M180.63,655.28 L173.05,647.86 L173.05,647.92 L180.17,655.97 L180.63,655.28 Z M169.37,661.28 L168.41,661.67 L171.18,664.24 L169.37,661.28 Z M175.21,636.55 L172.87,645.62 L172.94,646.49 L175.21,636.55 Z M203.65,877.59 L204.07,870.86 L203.73,869.11 L203.65,877.59 Z M239.93,647.52 L234.93,656.45 L238.18,650.74 L239.93,647.52 Z M261.45,694.21 L259.41,699.22 L260.38,698.61 L261.45,694.21 Z M259.10,699.42 L256.09,700.43 L256.95,700.80 L259.10,699.42 Z M255.80,734.13 L258.81,736.11 L257.86,734.60 L255.80,734.13 Z M262.00,738.21 L263.61,739.26 L263.20,737.82 L262.00,738.21 Z M264.79,781.00 L270.71,788.90 L276.71,795.19 L264.79,781.00 Z M282.22,794.61 L283.46,793.81 L276.71,795.19 L282.22,794.61 Z M270.38,825.34 L268.29,826.66 L268.20,827.74 L270.38,825.34 Z M251.61,859.30 L250.86,871.15 L251.44,864.27 L251.61,859.30 Z M264.54,905.54 L265.54,912.57 L265.54,906.28 L264.54,905.54 Z M274.46,921.94 L274.21,925.30 L275.05,928.96 L274.46,921.94 Z M277.30,931.01 L278.23,931.07 L275.05,928.96 L277.30,931.01 Z M248.44,774.70 L244.94,776.46 L257.11,775.29 L248.44,774.70 Z M223.67,814.95 L224.75,816.05 L215.08,799.58 L223.67,814.95 Z M200.42,855.55 L203.34,867.11 L201.06,855.34 L200.42,855.55 Z M199.23,850.81 L200.04,854.02 L199.76,849.75 L199.23,850.81 Z M203.66,845.24 L201.64,846.73 L203.71,845.38 L203.66,845.24 Z M234.09,860.76 L236.68,860.47 L239.01,860.03 L234.09,860.76 Z M235.76,913.15 L235.59,920.76 L236.34,898.08 L235.76,913.15 Z M237.35,921.79 L254.86,930.28 L235.59,920.76 L237.35,921.79 Z M246.77,903.64 L248.44,897.35 L245.69,905.54 L246.77,903.64 Z M193.81,833.98 L197.56,831.49 L198.03,830.94 L193.81,833.98 Z M252.32,825.98 L252.89,826.88 L254.86,823.59 L252.32,825.98 Z M243.35,834.12 L239.18,843.34 L245.44,832.37 L243.35,834.12 Z M201.67,826.68 L201.67,826.68 L200.48,823.44 L201.67,826.68 Z M206.32,821.24 L206.71,818.82 L204.37,823.53 L206.32,821.24 Z M221.41,714.26 L215.16,709.72 L215.99,710.89 L221.41,714.26 Z M227.92,722.31 L224.33,715.29 L224.51,714.83 L224.03,714.74 L227.92,722.31 Z M236.59,702.29 L230.84,703.28 L235.26,703.58 L236.59,702.29 Z M237.93,740.17 L244.53,741.07 L242.35,738.26 L243.10,739.58 L240.60,739.87 L237.93,740.17 Z M246.94,734.31 L243.43,736.65 L242.35,738.26 L246.94,734.31 Z M231.70,773.12 L231.51,773.09 L225.92,779.39 L231.70,773.12 Z M242.81,714.34 L242.52,715.43 L244.87,717.62 L244.69,716.02 L242.81,714.34 Z M243.35,696.11 L241.77,687.33 L241.70,687.20 L243.35,696.11 Z M233.41,682.09 L231.92,682.65 L228.17,682.06 L232.76,683.23 L233.41,682.09 Z M234.18,682.94 L238.18,680.31 L233.88,681.91 L234.18,682.94 Z M212.91,696.84 L208.99,692.31 L212.77,697.81 L212.91,696.84 Z M212.66,669.18 L212.70,671.14 L214.16,668.16 L212.66,669.18 Z M200.96,648.09 L200.23,644.89 L200.31,648.55 L200.96,648.09 Z M297.17,852.47 L296.82,849.64 L295.94,848.18 L297.17,852.47 Z M298.20,856.09 L298.49,855.05 L297.90,855.05 L298.20,856.09 Z M328.09,847.00 L324.42,829.00 L326.84,844.22 L328.09,847.00 Z M332.93,847.73 L338.02,846.42 L328.09,847.00 L332.93,847.73 Z M346.28,817.88 L345.78,819.20 L345.49,821.48 L346.28,817.88 Z M276.80,904.81 L275.35,913.40 L276.05,910.81 L276.80,904.81 Z M291.06,888.57 L291.69,888.11 L290.74,887.31 L291.02,888.81 L291.06,888.57 Z M297.07,877.59 L292.78,887.31 L294.06,886.37 L297.07,877.59 Z M313.33,891.97 L312.45,891.90 L312.50,893.69 L313.33,891.97 Z M314.79,894.06 L314.69,892.03 L314.67,892.08 L314.26,892.05 L314.79,894.06 Z M316.92,886.66 L315.73,889.53 L316.92,889.01 L316.92,886.66 Z M280.84,931.23 L281.89,931.30 L281.94,930.71 L280.84,931.23 Z M289.64,932.62 L291.15,928.46 L290.81,928.21 L289.64,932.62 Z M285.22,952.96 L283.14,946.23 L278.88,939.21 L285.22,952.96 Z M354.79,891.49 L344.36,893.69 L356.12,891.49 L354.79,891.49 Z M253.76,863.91 L254.30,864.42 L254.28,863.83 L253.76,863.91 Z M277.56,867.97 L279.72,872.91 L277.78,867.96 L277.56,867.97 Z M296.00,862.58 L296.48,862.22 L296.79,861.12 L296.00,862.58 Z M342.38,866.46 L342.61,865.15 L337.45,863.09 L342.38,866.46 Z M278.30,863.39 L280.05,865.30 L278.76,862.86 L278.30,863.39 Z M288.39,740.75 L285.22,731.24 L286.56,735.48 L286.17,736.35 L288.39,740.75 Z M291.98,738.41 L289.14,738.26 L293.15,740.02 L291.98,738.41 Z M309.08,768.85 L307.99,764.75 L309.83,777.92 L309.08,768.85 Z M313.71,768.59 L312.58,768.41 L309.08,768.85 L313.71,768.59 Z M330.60,765.63 L324.34,767.98 L324.51,767.97 L330.60,765.63 Z M349.11,775.88 L346.61,774.35 L352.78,781.09 L349.11,775.88 Z M325.09,796.66 L325.18,797.07 L327.59,787.73 L325.09,796.66 Z M325.87,800.28 L326.09,801.34 L337.44,816.71 L325.87,800.28 Z M322.01,807.05 L323.51,807.34 L320.67,803.10 L322.01,807.05 Z M301.15,719.38 L308.33,723.63 L300.53,718.05 L301.15,719.38 Z M280.13,732.12 L281.77,731.83 L283.05,730.51 L280.13,732.12 Z M274.13,712.80 L276.38,707.97 L272.46,715.87 L274.13,712.80 Z M283.05,724.80 L282.72,724.34 L282.79,725.79 L283.05,724.80 Z M253.87,199.74 L254.86,192.81 L253.44,198.22 L253.87,199.74 Z M258.78,213.73 L257.61,212.98 L258.20,215.05 L258.78,213.73 Z M262.20,225.00 L262.02,224.38 L261.78,225.10 L262.20,225.00 Z M281.47,262.76 L278.55,266.27 L277.21,268.32 L281.47,262.76 Z M270.55,281.26 L277.13,276.08 L271.29,279.74 L270.55,281.26 Z M263.95,291.74 L269.12,282.37 L269.78,281.86 L269.87,280.47 L263.95,291.74 Z M279.13,437.21 L280.05,431.65 L276.88,446.14 L279.13,437.21 Z M276.26,472.82 L269.62,463.41 L271.13,466.78 L276.26,472.82 Z M281.30,479.95 L280.76,479.19 L281.55,482.99 L281.30,479.95 Z M283.80,510.83 L281.64,512.00 L285.72,511.27 L283.80,510.83 Z M288.16,517.01 L289.31,515.81 L285.97,516.25 L288.81,516.25 L288.16,517.01 Z M302.74,508.78 L293.81,519.32 L290.64,521.22 L293.65,520.64 L302.74,508.78 Z M287.97,488.88 L293.56,495.76 L294.90,497.22 L287.97,488.88 Z M303.82,492.24 L304.91,494.65 L305.15,494.70 L303.82,492.24 Z M331.15,511.70 L330.38,510.61 L330.60,511.85 L331.15,511.70 Z M332.01,531.47 L333.43,529.71 L332.01,531.47 L332.01,531.47 Z M354.87,571.86 L352.92,567.25 L354.21,572.57 L354.87,571.86 Z M379.89,588.10 L372.30,588.25 L376.39,588.84 L379.89,588.10 Z M367.30,616.79 L369.40,606.48 L368.88,607.28 L367.30,616.79 Z M368.49,618.75 L368.49,618.75 L367.30,616.79 L368.49,618.75 Z M368.21,634.94 L369.38,639.18 L367.71,630.25 L367.51,636.03 L368.21,634.94 Z M365.88,662.01 L369.55,648.26 L364.72,662.59 L365.88,662.01 Z M346.28,669.48 L347.47,664.54 L346.86,665.38 L346.28,669.48 Z M348.70,673.14 L347.11,669.62 L346.28,669.48 L348.70,673.14 Z M265.45,373.84 L265.27,373.44 L264.96,374.35 L265.45,373.84 Z M193.22,45.57 L186.88,53.00 L187.55,53.18 L193.22,45.57 Z M205.62,147.71 L205.22,148.19 L205.82,150.51 L205.48,148.31 L205.62,147.71 Z M200.42,201.22 L200.14,202.61 L200.06,206.42 L200.42,201.22 Z M201.14,219.98 L199.48,222.08 L200.90,221.05 L201.14,219.98 Z M197.56,231.15 L195.22,234.08 L195.66,234.24 L197.56,231.15 Z M199.81,246.81 L198.48,251.79 L198.91,251.82 L199.81,246.81 Z M202.48,259.25 L200.65,258.86 L200.90,259.25 L200.69,260.55 L202.48,259.25 Z M193.54,278.47 L191.64,276.08 L190.87,276.82 L193.54,278.47 Z M182.05,286.18 L180.54,285.01 L184.13,293.50 L182.05,286.18 Z M178.96,337.55 L175.71,336.82 L177.62,337.99 L178.96,337.55 Z M181.54,351.45 L178.63,344.57 L179.04,347.21 L181.86,354.73 L181.54,351.45 Z M173.12,369.45 L177.96,361.99 L172.12,365.21 L174.96,365.06 L173.12,369.45 Z M177.46,393.31 L177.37,407.07 L178.12,399.75 L177.46,393.31 Z M174.27,409.98 L174.45,410.14 L177.37,407.07 L174.27,409.98 Z M203.45,406.19 L203.87,408.95 L204.32,408.24 L203.45,406.19 Z M204.25,411.41 L204.82,415.12 L205.15,412.92 L204.25,411.41 Z M198.39,442.78 L202.65,453.61 L206.90,460.78 L198.39,442.78 Z M191.89,457.12 L190.05,449.80 L193.81,465.02 L191.89,457.12 Z M188.89,490.25 L188.37,487.59 L187.90,490.18 L188.22,489.76 L188.89,490.25 Z M189.83,490.93 L190.22,491.22 L190.40,490.45 L189.83,490.93 Z M202.48,504.83 L195.81,507.61 L204.65,504.54 L202.48,504.83 Z M184.83,523.96 L184.80,520.34 L184.63,523.86 L180.04,523.12 L184.83,523.96 Z M188.88,554.74 L190.64,555.32 L197.98,554.30 L188.88,554.74 Z M217.58,525.76 L218.55,522.33 L218.55,522.33 L217.58,525.76 Z M235.43,526.78 L236.76,529.12 L239.01,531.32 L235.43,526.78 Z M273.88,544.78 L270.21,550.64 L261.87,561.47 L271.13,549.76 L270.12,552.83 L273.88,544.78 Z M271.46,554.44 L277.38,557.08 L270.12,552.83 L271.46,554.44 Z M289.69,624.73 L289.69,624.73 L290.23,627.33 L289.69,624.73 Z M60.94,415.85 L68.78,408.82 L64.86,411.60 L60.94,415.85 Z M78.87,420.09 L77.74,416.65 L77.45,417.46 L78.87,420.09 Z M83.96,403.55 L83.37,403.14 L81.45,413.07 L83.96,403.55 Z M88.04,390.82 L82.47,391.05 L82.70,391.26 L88.04,390.82 Z M103.42,388.00 L103.15,386.98 L102.76,387.81 L103.42,388.00 Z M116.90,373.11 L119.91,365.79 L115.57,376.19 L116.90,373.11 Z M124.58,396.09 L124.49,383.21 L123.74,379.41 L124.58,396.09 Z M140.09,407.07 L140.05,405.53 L138.59,408.24 L140.09,407.07 Z M146.68,403.99 L141.68,402.53 L140.95,403.87 L146.68,403.99 Z M152.05,378.97 L152.76,379.16 L151.85,375.89 L152.10,378.97 L152.05,378.97 Z M178.78,564.92 L181.13,566.59 L179.24,564.57 L178.78,564.92 Z M198.75,609.74 L199.14,598.93 L198.39,607.42 L198.75,609.74 Z M195.56,614.89 L194.72,618.40 L197.51,612.80 L195.56,614.89 Z M55.35,458.87 L57.85,448.04 L57.58,447.32 L54.27,461.65 L55.35,458.87 Z M74.45,462.53 L71.95,462.39 L74.55,463.63 L74.45,462.53 Z M86.63,469.41 L91.45,469.94 L91.47,469.86 L82.06,467.23 L86.63,469.41 Z M124.16,452.44 L120.66,457.56 L118.07,455.51 L120.10,458.37 L124.16,452.44 Z M139.11,463.29 L138.77,464.52 L139.30,465.15 L139.11,463.29 Z M145.68,476.00 L143.26,479.36 L141.51,482.14 L145.68,476.00 Z M186.82,491.64 L185.52,491.60 L186.05,492.68 L186.82,491.64 Z M136.67,547.71 L142.01,543.61 L142.34,543.07 L136.67,547.71 Z M170.12,534.98 L171.12,521.81 L171.54,514.93 L170.12,534.98 Z M170.03,510.54 L169.59,510.66 L171.54,514.93 L170.03,510.54 Z M177.95,565.53 L176.12,566.88 L175.29,569.96 L177.95,565.53 Z M84.12,528.98 L85.29,533.81 L85.79,533.43 L84.12,528.98 Z M104.19,530.97 L104.47,535.42 L106.39,539.52 L104.19,530.97 Z M142.34,500.15 L141.42,495.17 L139.92,492.83 L142.34,500.15 Z M54.21,487.25 L53.51,489.46 L55.10,500.29 L54.21,487.25 Z M82.62,483.61 L79.45,485.07 L81.45,485.36 L81.34,485.80 L82.62,483.61 Z M87.04,435.31 L93.46,443.80 L91.55,440.87 L87.04,435.31 Z M107.31,430.19 L106.73,428.79 L107.89,433.85 L110.48,448.34 L107.31,430.19 Z M116.90,418.92 L119.57,424.92 L123.74,429.31 L116.90,418.92 Z M145.85,437.65 L146.76,439.73 L146.76,439.70 L145.85,437.65 Z M165.61,422.14 L164.53,435.46 L166.29,441.50 L164.86,433.70 L165.61,422.14 Z M140.42,460.34 L140.46,458.45 L139.82,460.75 L140.42,460.34 Z M54.93,442.48 L54.51,439.70 L54.16,443.72 L57.35,440.00 L54.93,442.48 Z M57.37,416.47 L55.10,415.99 L53.76,417.60 L57.37,416.47 Z M60.35,414.09 L59.14,415.91 L59.35,415.85 L58.98,419.20 L60.35,414.09 Z M98.36,409.81 L97.97,409.85 L99.64,419.94 L98.36,409.81 Z M103.89,409.26 L99.18,409.73 L100.22,410.87 L104.23,409.60 L103.89,409.26 Z M104.89,393.60 L103.77,389.32 L103.31,391.11 L104.89,393.60 Z M165.20,411.60 L164.78,411.75 L165.20,415.12 L165.20,411.60 Z M93.80,352.77 L98.47,356.00 L98.80,354.82 L93.80,352.77 Z M98.55,356.05 L99.30,356.57 L99.64,354.53 L98.55,356.05 Z M149.48,354.44 L148.93,357.45 L150.03,354.98 L149.48,354.44 Z M76.03,388.92 L78.37,387.45 L75.80,387.81 L76.03,388.92 Z M85.15,354.91 L85.74,351.82 L84.96,353.35 L85.15,354.91 Z M167.03,330.08 L167.30,329.85 L166.44,329.57 L167.03,330.08 Z M172.12,333.45 L170.62,330.96 L169.85,330.71 L172.12,333.45 Z M163.18,326.76 L161.86,321.01 L162.44,326.13 L163.18,326.76 Z M179.96,134.41 L180.63,130.02 L179.58,134.40 L179.96,134.41 Z M194.27,185.64 L194.52,187.92 L194.81,186.22 L194.27,185.64 Z M217.47,586.91 L217.58,586.64 L214.07,580.06 L217.47,586.91 Z M238.43,577.86 L237.01,594.84 L238.57,577.35 L238.43,577.86 Z M242.68,599.67 L245.94,606.84 L246.45,606.90 L242.68,599.67 Z M241.08,572.22 L240.10,571.86 L239.82,572.87 L241.08,572.22 Z M253.69,561.47 L257.45,566.88 L263.73,580.92 L257.95,566.30 L253.69,561.47 Z M197.73,569.66 L195.56,578.74 L195.39,583.42 L198.31,569.66 L198.89,571.27 L199.24,568.11 L197.73,569.66 Z M237.09,554.00 L235.63,543.98 L235.34,544.78 L237.09,554.00 Z M215.58,230.13 L215.33,238.03 L216.43,240.45 L215.49,233.78 L215.58,230.13 Z M216.58,243.59 L216.97,244.28 L216.82,243.21 L216.58,243.59 Z M218.66,247.25 L220.00,246.37 L217.84,245.82 L218.66,247.25 Z M229.50,242.57 L229.55,241.51 L228.21,244.54 L229.50,242.57 Z M229.67,238.47 L228.37,236.50 L229.62,239.84 L229.67,238.47 Z M228.17,231.88 L226.92,232.61 L227.16,233.26 L228.17,231.88 Z M225.10,212.41 L224.67,213.29 L224.67,218.12 L225.10,212.41 Z M230.42,205.68 L228.17,206.12 L226.77,208.99 L230.42,205.68 Z M231.76,241.54 L231.09,243.12 L233.76,240.96 L231.76,241.98 L231.76,241.54 Z M251.61,271.98 L257.11,271.98 L253.61,271.84 L251.61,271.98 Z M272.31,531.70 L277.30,543.32 L273.54,532.20 L272.31,531.70 Z M188.05,364.48 L191.05,364.77 L189.05,363.45 L184.05,365.65 L188.05,364.48 Z M205.73,339.60 L205.19,338.08 L203.56,345.01 L205.73,339.60 Z M224.75,384.53 L226.67,384.82 L222.47,381.66 L222.37,381.75 L224.75,384.53 Z M249.11,381.16 L248.46,383.74 L249.34,381.06 L249.11,381.16 Z M243.68,372.23 L242.41,372.14 L249.11,381.16 L243.68,372.23 Z M251.44,380.14 L250.71,380.46 L254.44,382.19 L251.44,380.14 Z M216.91,515.81 L216.24,519.76 L218.74,513.76 L216.91,515.81 Z M246.85,476.88 L246.19,478.26 L248.86,475.41 L246.85,476.88 Z M263.45,528.69 L267.37,531.17 L269.78,530.69 L259.70,526.64 L263.45,528.69 Z M256.61,506.73 L255.81,506.69 L256.92,507.66 L256.61,506.73 Z M258.20,511.56 L257.60,509.73 L257.36,510.10 L258.20,511.56 Z M243.31,486.32 L243.60,483.71 L242.60,485.80 L243.31,486.32 Z M208.65,419.21 L209.23,418.52 L207.82,418.33 L208.65,419.21 Z M225.50,422.73 L225.71,424.36 L226.50,422.43 L229.84,419.36 L225.50,422.73 Z M229.16,439.54 L229.00,436.78 L226.84,433.12 L229.16,439.54 Z M195.97,299.94 L200.65,301.89 L200.31,300.23 L195.97,299.94 Z M201.81,308.41 L201.90,307.99 L200.93,303.26 L200.65,304.33 L201.81,308.41 Z M230.42,303.59 L237.01,302.57 L238.16,300.88 L230.42,303.59 Z M242.39,295.94 L246.10,296.42 L242.77,295.40 L242.39,295.94 Z M248.05,293.31 L249.17,292.46 L248.94,291.89 L248.05,293.31 Z M258.86,311.20 L257.53,315.16 L259.11,312.96 L260.60,313.72 L257.20,307.40 L258.86,311.20 Z M223.67,354.23 L223.60,353.36 L222.00,358.04 L223.67,354.23 Z M241.06,368.92 L240.85,370.04 L241.51,370.92 L241.06,368.92 Z M204.32,272.13 L206.34,273.71 L202.31,266.27 L204.32,272.13 Z M208.43,279.77 L208.74,278.13 L208.23,277.20 L208.43,279.77 Z M215.49,279.01 L219.75,278.71 L214.72,277.59 L215.49,279.01 Z M232.76,282.23 L230.26,279.45 L232.77,283.21 L235.01,277.84 L232.76,282.23 Z M239.98,286.57 L239.35,281.06 L239.51,286.03 L239.98,286.57 Z M204.40,291.89 L201.40,284.13 L202.23,288.37 L204.40,291.89 Z M207.32,283.40 L206.23,291.59 L207.81,283.13 L207.32,283.40 Z M250.94,247.69 L253.28,257.49 L254.07,258.03 L250.94,247.69 Z M203.81,136.02 L206.82,133.24 L204.32,134.85 L203.90,129.43 L203.81,136.02 Z M215.91,142.31 L210.82,136.90 L206.82,133.24 L215.91,142.31 Z M205.73,145.39 L206.04,145.93 L207.40,140.12 L205.73,145.39 Z M315.23,620.44 L314.67,620.74 L315.92,632.16 L315.23,620.44 Z M323.03,606.92 L323.01,608.59 L326.34,611.37 L323.03,606.92 Z M328.34,609.91 L338.44,602.01 L326.34,611.37 L328.34,609.91 Z M313.75,665.53 L313.66,661.13 L313.00,669.04 L313.75,665.53 Z M324.92,653.46 L328.51,651.77 L324.26,652.96 L324.92,653.46 Z M343.61,616.50 L347.86,623.81 L350.80,626.74 L343.61,616.50 Z M360.96,636.84 L366.13,638.16 L366.73,637.23 L360.96,636.84 Z M304.25,548.86 L304.57,548.59 L303.52,546.14 L304.25,548.86 Z M303.49,530.44 L302.24,541.27 L302.53,542.37 L302.99,540.25 L303.49,530.44 Z M307.12,544.38 L307.41,544.34 L309.08,540.25 L307.12,544.38 Z M328.01,533.66 L328.19,543.76 L329.01,541.42 L328.76,533.95 L328.63,532.24 L328.01,533.66 Z M307.08,589.13 L307.91,588.14 L297.82,590.15 L307.08,589.13 Z M292.40,583.71 L294.65,587.52 L297.82,590.15 L292.40,583.71 Z M309.91,585.76 L310.41,576.10 L308.97,586.88 L309.91,585.76 Z M323.26,590.45 L321.92,585.18 L319.92,577.42 L323.26,590.45 Z M330.52,566.75 L330.35,567.47 L330.64,568.33 L330.52,566.75 Z M331.37,565.12 L332.60,558.39 L330.89,565.28 L331.37,565.12 Z M339.85,569.22 L340.77,560.00 L340.02,566.44 L339.85,569.22 Z M346.69,571.27 L350.61,570.98 L339.85,569.22 L346.69,571.27 Z M280.03,526.58 L276.88,530.30 L279.97,526.93 L282.14,534.10 L280.03,526.58 Z M292.73,537.47 L292.07,540.96 L292.81,540.10 L292.73,537.47 Z M348.70,352.77 L354.70,346.18 L349.45,351.60 L349.43,348.43 L348.70,352.77 Z M354.65,351.45 L353.70,350.72 L348.70,352.77 L354.65,351.45 Z M362.54,388.04 L363.14,386.39 L361.71,387.45 L359.12,387.31 L358.56,388.83 L362.54,388.04 Z M364.48,385.39 L365.45,386.10 L365.04,384.97 L364.48,385.39 Z M379.39,415.99 L381.05,421.81 L381.48,421.12 L379.39,415.99 Z M429.27,472.90 L428.44,474.24 L428.86,475.32 L429.27,472.90 Z M428.59,477.54 L428.24,477.97 L429.10,479.22 L428.59,477.54 Z M462.98,460.05 L462.98,460.05 L464.72,454.92 L462.98,460.05 Z M468.72,441.90 L474.06,440.29 L471.72,440.14 L468.72,441.90 Z M476.65,436.34 L482.15,437.36 L480.40,436.78 L476.65,436.34 Z M482.40,443.65 L480.15,447.61 L480.72,447.96 L482.40,443.65 Z M488.07,456.82 L488.99,456.53 L490.91,451.21 L488.07,456.82 Z M493.06,445.27 L496.33,436.19 L493.66,441.46 L493.06,445.27 Z M524.52,428.73 L527.44,428.87 L528.10,427.59 L524.52,428.73 Z M547.63,408.53 L548.79,407.80 L548.31,406.95 L547.63,408.53 Z M560.05,420.24 L558.27,420.39 L561.06,421.55 L560.05,420.24 Z M563.93,425.34 L567.06,433.85 L565.39,427.26 L563.93,425.34 Z M582.83,408.09 L586.08,402.24 L586.75,398.14 L582.83,408.09 Z M589.50,399.75 L594.25,402.38 L596.53,402.55 L589.50,399.75 Z M619.36,411.60 L616.86,418.34 L622.36,407.21 L619.36,411.60 Z M626.80,449.76 L626.11,449.65 L627.14,450.26 L626.80,449.76 Z M628.16,451.69 L631.95,464.88 L629.62,453.75 L628.16,451.69 Z M379.14,437.33 L380.47,435.17 L381.64,429.90 L379.14,437.33 Z M356.02,395.73 L356.62,396.67 L357.67,391.27 L356.02,395.73 Z M345.44,419.65 L345.21,421.58 L346.86,419.07 L345.44,419.65 Z M358.78,427.85 L358.29,426.24 L354.20,421.70 L358.78,427.85 Z M361.71,450.53 L365.46,460.78 L362.63,451.56 L361.71,450.53 Z M357.12,455.29 L358.45,455.22 L361.71,450.53 L357.12,455.29 Z M353.78,454.78 L353.96,455.47 L354.85,455.42 L353.78,454.78 Z M349.78,471.31 L349.78,480.83 L350.78,465.61 L349.78,471.31 Z M315.56,347.43 L312.66,344.43 L313.58,346.77 L315.56,347.43 Z M320.75,344.57 L316.17,347.63 L316.67,347.79 L320.75,344.57 Z M323.76,347.65 L321.25,346.91 L336.18,355.99 L323.76,347.65 Z M285.14,436.92 L284.41,431.73 L283.80,433.56 L285.14,436.92 Z M311.58,428.73 L305.24,423.16 L301.82,423.31 L305.91,424.19 L311.58,428.73 Z M339.35,426.82 L339.42,428.12 L340.69,424.77 L339.35,426.82 Z M339.55,430.80 L339.58,431.52 L339.91,431.12 L339.55,430.80 Z M340.93,429.88 L344.78,425.21 L341.19,427.85 L340.93,429.88 Z M309.99,451.41 L315.61,464.31 L317.92,460.34 L315.58,463.85 L309.99,451.41 Z M332.68,474.68 L333.93,469.41 L333.18,468.54 L332.68,474.68 Z M336.02,476.88 L334.10,475.41 L334.42,475.17 L332.68,474.68 L336.02,476.88 Z M337.29,480.74 L337.87,482.50 L337.69,480.39 L337.29,480.74 Z M322.95,411.31 L320.34,413.07 L322.73,412.49 L322.95,411.31 Z M326.76,368.43 L326.89,377.78 L326.93,377.65 L327.51,383.50 L326.76,368.43 Z M286.56,368.43 L282.72,364.77 L281.58,364.84 L286.56,368.43 Z M290.27,366.89 L291.48,366.38 L290.26,366.89 L290.27,366.89 Z M317.08,360.96 L317.29,367.57 L318.00,366.09 L317.08,360.96 Z M290.23,272.86 L285.81,270.08 L284.99,268.71 L284.89,269.64 L290.23,272.86 Z M291.90,277.34 L291.90,277.34 L290.23,272.86 L291.90,277.34 Z M310.81,278.40 L313.66,282.52 L312.25,280.03 L310.81,278.40 Z M312.66,270.08 L316.76,257.24 L316.25,257.35 L312.66,270.08 Z M317.65,257.05 L319.92,259.10 L319.00,256.76 L317.65,257.05 Z M316.50,268.76 L322.86,280.52 L322.59,279.59 L316.50,268.76 Z M279.30,308.86 L282.64,306.81 L277.80,308.86 L279.30,308.86 Z M286.39,284.71 L286.14,279.74 L285.72,283.84 L287.72,286.62 L288.49,285.91 L286.39,284.71 Z M279.47,288.23 L282.05,289.98 L287.97,292.62 L279.47,288.23 Z M332.60,333.01 L334.43,318.23 L333.68,323.94 L332.60,333.01 Z M329.68,333.89 L330.18,339.60 L330.04,334.16 L329.68,333.89 Z M297.46,238.61 L300.32,244.32 L302.65,248.42 L298.48,239.49 L297.46,238.61 Z M308.33,243.59 L311.08,242.13 L311.47,241.18 L308.33,243.59 Z M374.86,618.40 L373.30,616.64 L370.38,616.50 L374.86,618.40 Z M378.22,628.50 L377.06,620.89 L376.49,620.24 L378.22,628.50 Z M403.83,649.13 L405.41,646.94 L406.16,643.86 L403.83,649.13 Z M400.41,646.21 L399.99,645.67 L399.99,646.68 L400.41,646.21 Z M373.64,518.44 L358.87,516.39 L370.13,518.44 L373.64,518.44 Z M404.66,516.25 L412.50,517.42 L402.66,514.34 L400.66,513.76 L404.66,516.25 Z M431.52,516.10 L421.26,521.81 L423.93,520.93 L431.52,516.10 Z M458.30,502.34 L453.54,530.44 L456.29,514.49 L458.30,502.34 Z M457.54,498.54 L454.63,484.49 L458.30,502.34 L457.54,498.54 Z M473.14,523.71 L470.39,520.93 L474.37,526.49 L473.14,523.71 Z M477.40,533.37 L476.12,530.46 L479.56,548.88 L477.40,533.37 Z M488.91,486.97 L495.66,492.83 L493.91,490.05 L488.91,486.97 Z M495.25,489.02 L496.06,485.73 L493.91,490.05 L495.25,489.02 Z M500.50,472.49 L498.67,475.27 L505.00,471.31 L500.50,472.49 Z M514.93,463.41 L510.98,475.71 L512.18,473.66 L514.93,463.41 Z M514.47,454.15 L513.68,455.22 L514.93,463.41 L514.47,454.15 Z M545.10,496.03 L543.12,497.66 L545.12,497.51 L545.10,496.03 Z M545.04,492.83 L544.62,488.44 L544.46,495.02 L545.08,495.23 L545.04,492.83 Z M567.89,477.46 L567.23,485.80 L568.48,480.10 L567.89,477.46 Z M359.76,550.99 L360.79,554.74 L360.12,551.22 L359.76,550.99 Z M369.21,548.88 L368.85,553.35 L369.30,552.98 L369.30,548.74 L367.63,549.17 L369.21,548.88 Z M368.67,555.59 L368.55,557.08 L368.96,556.35 L368.67,555.59 Z M375.99,575.71 L377.06,576.20 L376.47,574.64 L375.99,575.71 Z M377.82,576.54 L378.14,576.69 L381.89,574.20 L377.82,576.54 Z M391.74,595.13 L391.15,619.42 L391.99,586.64 L391.74,595.13 Z M425.60,535.27 L424.01,537.76 L421.76,537.91 L424.50,537.91 L425.60,535.27 Z M428.27,590.30 L432.36,590.30 L423.01,587.08 L428.27,590.30 Z M370.55,494.88 L373.05,495.90 L380.22,491.66 L373.39,494.73 L370.55,494.88 Z M391.32,479.36 L396.02,473.12 L395.24,473.22 L391.32,479.36 Z M418.26,472.34 L428.27,482.88 L426.18,480.54 L418.26,472.34 Z M464.47,461.95 L463.45,467.00 L463.97,467.07 L464.47,461.95 Z M462.37,482.86 L462.80,484.49 L464.89,487.59 L462.37,482.86 Z M467.51,491.50 L468.30,492.68 L470.22,492.10 L467.51,491.50 Z M447.22,475.84 L447.62,476.73 L450.20,473.80 L447.22,475.84 Z M575.49,458.00 L579.16,464.29 L570.23,448.04 L575.49,458.00 Z M589.09,473.38 L589.50,474.53 L591.83,473.51 L589.09,473.38 Z M600.59,491.36 L601.01,491.66 L603.51,490.49 L600.59,491.36 Z M515.00,453.43 L521.02,454.63 L515.85,452.29 L515.00,453.43 Z M534.12,470.69 L535.12,470.29 L535.49,468.66 L534.12,470.69 Z M363.25,474.91 L362.93,472.91 L362.63,474.24 L363.25,474.91 Z M367.46,493.12 L363.04,489.32 L363.71,491.37 L367.46,493.12 Z M562.97,439.85 L561.72,434.58 L562.36,440.20 L562.97,439.85 Z M555.48,420.63 L554.88,420.68 L554.88,423.02 L555.48,420.63 Z M604.18,139.83 L604.95,138.62 L602.68,139.09 L593.58,137.34 L599.26,140.85 L598.17,138.95 L604.18,139.83 Z M610.87,220.47 L610.87,220.47 L624.86,225.00 L625.75,224.66 L610.87,220.47 Z M621.69,291.59 L622.70,294.22 L621.75,290.55 L621.69,291.59 Z M625.78,302.28 L627.03,300.81 L625.51,301.58 L625.78,302.28 Z M611.28,362.19 L611.40,362.27 L611.30,362.17 L611.28,362.19 Z M626.20,383.94 L618.61,369.60 L616.03,366.97 L626.20,383.94 Z M630.62,387.31 L630.03,384.53 L629.60,384.46 L630.62,387.31 Z M626.28,393.16 L631.29,390.24 L629.45,389.94 L630.62,387.31 L626.28,393.16 Z M676.91,437.65 L671.91,429.75 L668.24,425.65 L676.91,437.65 Z M762.91,455.80 L763.82,446.29 L761.76,457.40 L762.91,455.80 Z M759.40,439.12 L755.57,438.82 L761.40,439.56 L759.40,439.12 Z M808.11,415.26 L806.03,407.07 L803.36,398.58 L808.11,415.26 Z M821.29,430.19 L826.48,428.31 L825.88,428.29 L821.29,430.19 Z M837.72,475.41 L839.94,475.77 L835.47,473.04 L837.72,475.41 Z M894.04,410.70 L891.19,412.33 L887.52,418.04 L894.04,410.70 Z M918.45,383.17 L918.55,385.41 L920.80,389.65 L918.45,383.17 Z M918.34,380.75 L919.89,377.93 L916.00,379.50 L918.30,379.70 L918.34,380.75 Z M563.97,343.55 L566.98,341.35 L567.08,341.12 L563.97,343.55 Z M569.72,339.06 L577.74,340.77 L570.90,338.13 L569.72,339.06 Z M586.58,351.01 L588.16,347.65 L590.25,341.35 L586.58,351.01 Z M594.42,357.60 L590.50,365.36 L593.58,360.96 L594.42,357.60 Z M599.84,376.04 L599.51,384.53 L600.14,383.99 L599.84,376.04 Z M606.18,367.84 L607.01,369.31 L607.69,367.84 L606.18,367.84 Z M607.85,246.37 L603.84,243.74 L609.77,248.13 L607.85,246.37 Z M561.10,240.40 L554.97,231.74 L557.47,236.13 L561.10,240.40 Z M569.56,245.79 L561.51,240.88 L563.81,243.59 L569.56,245.79 Z M693.34,606.11 L689.76,623.96 L689.94,626.07 L693.34,606.11 Z M773.16,576.40 L774.50,580.20 L773.53,574.04 L773.16,576.40 Z M783.59,518.29 L786.93,526.64 L780.25,508.20 L783.59,518.29 Z M841.98,523.56 L830.63,533.51 L828.61,535.90 L834.55,531.17 L841.98,523.56 Z M841.89,537.17 L850.32,536.73 L850.86,536.01 L841.89,537.17 Z M818.46,609.18 L820.46,610.50 L813.12,601.28 L818.46,609.18 Z M824.67,604.64 L822.40,607.79 L822.63,608.05 L822.63,608.01 L824.67,604.64 Z M822.79,611.96 L825.29,622.20 L822.99,609.95 L822.79,611.96 Z M778.90,583.86 L778.35,597.58 L779.17,593.67 L778.93,583.89 L778.90,583.86 Z M769.24,484.34 L769.08,485.51 L771.41,487.56 L769.24,484.34 Z M770.21,482.10 L769.58,481.85 L769.43,482.90 L770.21,482.10 Z M783.51,475.75 L782.67,474.97 L778.67,475.12 L783.51,475.75 Z M785.46,478.79 L785.18,477.32 L784.66,476.83 L785.46,478.79 Z M828.63,487.41 L828.05,484.19 L827.16,483.82 L828.63,487.41 Z M687.08,532.67 L686.17,525.03 L685.67,527.22 L687.08,532.67 Z M676.58,516.98 L680.66,521.51 L682.56,522.00 L676.58,516.98 Z M683.42,458.73 L681.08,462.09 L681.06,463.31 L683.42,458.73 Z M782.22,488.09 L783.59,483.02 L781.92,487.56 L782.22,488.09 Z M785.26,491.95 L783.61,490.58 L786.76,496.19 L785.26,491.95 Z M639.88,375.45 L639.71,380.87 L640.57,375.68 L639.88,375.45 Z M665.32,369.75 L660.56,374.58 L665.90,370.20 L665.32,369.75 Z M668.65,367.84 L668.54,368.04 L668.73,367.88 L668.65,367.84 Z M765.41,323.94 L765.82,328.47 L766.37,329.56 L765.41,323.94 Z M773.33,342.67 L771.86,343.30 L775.75,345.16 L773.33,342.67 Z M804.78,338.28 L803.61,347.79 L803.94,352.33 L804.78,338.28 Z M820.87,385.55 L824.92,381.36 L823.79,381.16 L820.87,385.55 Z M826.08,381.57 L829.05,386.28 L827.05,381.75 L826.08,381.57 Z M833.22,414.24 L837.07,418.46 L835.39,414.97 L833.22,414.24 Z M862.58,400.92 L869.59,402.53 L867.75,401.94 L862.58,400.92 Z M833.05,431.95 L830.72,428.43 L829.41,428.39 L833.05,431.95 Z M745.64,397.26 L746.89,398.43 L753.73,395.21 L745.64,397.26 Z M769.58,376.04 L783.34,384.53 L778.34,381.31 L769.58,376.04 Z M672.27,367.96 L672.41,369.31 L672.91,367.26 L672.27,367.96 Z M681.47,375.75 L681.83,376.19 L682.17,375.75 L681.47,375.75 Z M702.60,370.33 L706.43,372.57 L705.69,370.92 L702.60,370.33 Z M717.70,406.63 L722.62,406.33 L724.87,405.16 L717.70,406.63 Z M726.29,401.21 L728.04,385.55 L724.87,405.16 L726.29,401.21 Z M832.97,369.16 L828.88,375.31 L836.14,367.26 L832.97,369.16 Z M766.32,363.75 L766.49,367.26 L766.42,362.90 L766.32,363.75 Z M689.42,322.91 L630.79,320.72 L638.29,321.30 L689.42,322.91 Z M737.88,312.52 L765.23,306.13 L765.07,305.79 L737.88,312.52 Z M775.00,307.11 L783.01,307.11 L811.78,304.62 L775.00,307.11 Z M663.40,245.05 L664.17,247.39 L663.90,241.98 L663.40,245.05 Z M665.20,250.48 L664.65,244.76 L664.31,247.82 L665.20,250.48 Z M694.01,190.02 L689.59,188.41 L684.57,187.60 L694.01,190.02 Z M797.02,196.76 L794.18,197.05 L801.07,199.63 L797.02,196.76 Z M815.87,201.15 L808.02,202.23 L809.03,202.61 L815.87,201.15 Z M704.35,139.68 L705.77,131.48 L703.58,140.53 L704.35,139.68 Z M700.52,143.92 L702.72,141.48 L693.73,145.77 L700.52,143.92 Z M688.42,152.12 L689.52,147.78 L689.00,148.02 L688.42,152.12 Z M771.16,148.61 L773.00,150.51 L770.46,145.36 L771.16,148.61 Z M769.24,139.68 L769.43,140.56 L769.58,137.19 L769.24,139.68 Z" /></g></svg>