<svg xmlns="http://www.w3.org/2000/svg" viewBox="0 0 1000 1000" width="1000" height="1000"><g fill="#cccccc" stroke="#222" stroke-width="2"><path d="M965.09,884.44 L968.38,896.03 L967.91,897.97 L961.68,904.28 L959.80,903.71 L959.21,901.19 L960.80,897.86 L961.97,890.41 L961.09,884.79 L958.39,879.17 L960.04,877.45 L962.68,879.17 L965.09,884.44 Z M525.17,529.76 L550.31,534.80 L559.17,535.64 L557.82,535.49 L557.12,474.71 L577.73,472.77 L606.75,470.01 L617.91,470.82 L633.94,467.83 L659.02,463.13 L665.72,461.87 L679.99,486.41 L684.87,480.56 L686.39,482.40 L695.09,503.96 L700.96,511.98 L698.55,516.00 L702.25,510.26 L701.55,513.47 L702.72,515.31 L701.84,528.61 L703.84,528.73 L704.07,531.25 L706.72,535.84 L708.48,536.29 L709.83,534.57 L714.64,541.00 L712.94,548.91 L715.94,554.18 L715.64,559.92 L714.23,563.93 L712.06,561.87 L717.58,568.29 L715.29,575.74 L720.22,581.13 L720.64,584.46 L723.34,585.37 L726.10,589.62 L726.39,588.47 L726.25,591.50 L726.51,588.47 L728.56,587.32 L730.27,578.04 L732.79,579.41 L734.73,569.32 L735.03,571.15 L737.20,570.81 L738.49,573.79 L741.07,574.60 L742.60,575.28 L742.84,582.28 L746.65,586.18 L747.83,591.68 L750.35,591.57 L752.82,597.64 L753.64,596.61 L755.82,600.40 L756.70,599.59 L757.34,600.63 L756.99,609.11 L763.63,615.19 L764.22,617.71 L760.52,617.60 L757.64,625.40 L755.88,624.25 L753.47,631.47 L748.83,634.23 L748.65,637.44 L743.13,636.40 L741.66,638.01 L741.31,641.22 L745.07,644.55 L744.54,650.62 L746.95,657.73 L748.12,659.91 L747.12,663.35 L749.00,665.07 L751.00,659.11 L755.64,662.89 L756.40,659.00 L761.51,663.47 L763.10,660.94 L767.98,670.69 L764.69,675.51 L761.34,671.27 L761.28,678.15 L764.33,675.97 L765.63,682.50 L767.44,683.23 L767.21,681.93 L769.80,675.85 L772.50,680.32 L775.32,677.80 L779.66,680.09 L780.66,670.81 L783.25,672.41 L783.42,666.33 L787.18,660.49 L789.47,659.68 L789.77,657.16 L790.94,659.00 L794.05,650.05 L796.28,650.28 L797.87,643.51 L799.69,644.20 L799.87,646.72 L803.69,648.22 L803.10,647.30 L806.15,639.96 L808.91,638.12 L813.26,652.69 L818.43,642.48 L820.07,647.87 L825.59,648.22 L825.24,657.73 L826.00,661.29 L830.88,659.34 L833.23,662.55 L836.05,659.91 L843.74,655.21 L842.63,646.72 L840.69,639.04 L841.45,635.26 L843.15,634.00 L847.03,635.03 L850.79,633.08 L856.96,624.48 L866.59,616.34 L869.59,608.19 L872.99,585.37 L878.10,580.21 L881.39,581.25 L883.04,584.00 L885.38,593.06 L885.62,621.27 L888.15,628.61 L892.08,632.16 L898.31,630.67 L902.18,624.71 L909.64,599.94 L929.91,563.82 L934.66,561.64 L935.49,574.94 L939.54,593.29 L945.94,616.11 L951.28,629.98 L954.46,638.35 L970.14,672.18 L976.42,686.29 L980.77,702.23 L957.39,704.59 L956.75,772.75 L956.16,778.03 L957.28,781.47 L957.33,792.70 L956.28,802.11 L948.47,819.42 L941.59,829.51 L955.92,849.70 L954.98,855.66 L953.75,863.23 L955.75,871.49 L956.39,879.86 L954.05,885.13 L942.06,899.35 L940.71,915.98 L936.07,913.11 L916.75,894.08 L915.16,892.24 L903.65,870.22 L895.78,863.57 L883.39,858.64 L874.99,859.10 L844.45,847.40 L812.32,827.79 L803.16,813.23 L789.94,800.96 L777.96,783.42 L766.27,781.81 L760.99,783.53 L758.75,781.12 L741.31,760.02 L731.62,749.47 L725.28,745.46 L717.40,744.66 L708.65,748.33 L693.56,758.19 L676.64,768.97 L673.94,768.51 L666.83,755.89 L647.33,766.21 L643.99,767.48 L627.78,770.80 L618.44,774.93 L593.71,799.24 L581.61,809.22 L558.59,809.68 L554.30,816.10 L549.78,818.28 L542.73,815.87 L538.68,812.08 L518.00,792.36 L504.55,772.29 L492.98,756.01 L487.70,755.21 L482.94,757.84 L472.31,778.37 L460.85,796.72 L454.75,809.68 L441.35,819.54 L438.42,820.80 L435.13,818.51 L428.67,830.55 L424.07,831.38 L425.61,831.92 L428.61,840.64 L429.90,839.26 L429.55,844.08 L430.84,845.68 L432.66,852.91 L434.01,855.20 L440.06,854.05 L439.65,866.44 L446.11,874.81 L450.52,892.36 L449.34,899.47 L446.70,914.37 L438.71,915.06 L436.13,922.29 L432.66,918.50 L430.84,920.68 L429.14,918.39 L424.97,918.04 L425.61,925.96 L421.38,941.32 L423.85,944.30 L421.62,957.83 L419.74,956.46 L419.21,958.41 L417.04,957.38 L410.52,951.41 L411.46,943.84 L409.05,962.77 L391.08,963.57 L389.32,959.78 L380.86,956.69 L369.05,927.33 L365.41,918.27 L369.87,908.64 L360.12,929.40 L355.95,925.15 L349.49,909.21 L337.81,900.27 L346.85,872.86 L337.86,900.04 L312.90,970.45 L312.73,973.09 L313.84,975.49 L311.08,980.77 L296.16,961.50 L289.94,943.73 L286.65,938.00 L277.37,921.25 L272.43,889.95 L269.26,878.60 L262.33,860.82 L238.54,815.52 L228.74,799.36 L223.74,793.74 L211.47,781.81 L201.31,761.97 L199.54,757.84 L196.78,751.31 L199.02,746.95 L198.78,738.81 L202.60,733.53 L203.54,730.09 L204.65,728.03 L208.94,726.65 L212.35,720.00 L216.34,718.28 L216.11,711.29 L218.52,708.30 L221.04,702.57 L217.99,676.20 L221.45,675.85 L222.69,666.91 L225.51,665.07 L227.27,661.17 L230.62,661.52 L234.67,657.39 L234.73,654.75 L231.32,652.80 L233.08,647.41 L232.55,642.48 L234.20,642.60 L236.20,636.98 L243.24,642.83 L247.47,643.40 L246.77,630.90 L248.24,621.96 L247.24,597.76 L245.42,586.18 L237.90,552.35 L235.26,542.49 L229.97,529.41 L222.80,518.29 L211.76,507.74 L209.82,509.69 L204.83,509.00 L197.38,513.03 L196.49,516.34 L193.61,520.70 L191.50,520.93 L172.17,501.09 L168.24,501.32 L156.32,504.64 L154.14,503.73 L150.38,499.48 L141.57,482.63 L137.29,479.76 L130.77,479.76 L128.30,477.70 L126.71,473.45 L114.09,419.67 L111.68,404.88 L109.92,390.31 L108.86,362.79 L113.62,341.00 L116.14,338.60 L113.62,340.78 L116.08,315.32 L111.50,307.18 L103.57,306.03 L88.24,313.48 L83.43,313.25 L73.91,305.91 L72.15,299.61 L73.85,293.64 L77.32,288.37 L86.54,278.39 L88.95,270.82 L88.77,264.86 L86.42,260.96 L70.33,258.10 L63.40,249.38 L62.11,235.73 L64.16,226.90 L63.81,217.73 L55.00,213.26 L51.42,212.57 L49.66,212.11 L46.54,207.87 L39.32,187.11 L33.58,161.71 L25.57,165.78 L22.11,154.43 L19.23,122.21 L19.23,106.50 L21.58,89.41 L26.46,89.87 L36.09,100.76 L51.42,112.12 L47.66,109.02 L50.54,111.20 L65.92,106.61 L66.57,109.36 L71.68,116.13 L77.79,117.28 L80.90,121.98 L101.34,141.13 L106.24,146.70 L108.17,148.51 L108.74,148.58 L108.62,143.42 L110.27,140.21 L113.85,139.64 L118.32,126.68 L121.55,125.76 L121.55,117.96 L126.83,116.36 L127.18,106.73 L128.59,105.12 L129.94,98.47 L132.65,100.42 L133.88,99.50 L133.06,96.52 L134.00,95.14 L134.06,91.02 L135.64,90.33 L136.41,83.56 L138.52,79.32 L140.40,78.75 L141.28,75.31 L143.39,75.65 L143.45,71.87 L144.98,72.67 L148.51,68.66 L148.50,68.66 L148.62,68.54 L150.03,67.16 L149.09,65.10 L149.33,62.12 L152.03,57.88 L151.79,52.83 L161.25,19.46 L164.72,19.23 L170.65,34.14 L175.58,39.87 L178.11,38.73 L183.22,29.44 L186.39,30.58 L188.44,28.75 L194.14,36.78 L193.85,41.36 L194.73,43.43 L201.72,47.78 L202.25,42.85 L203.66,42.28 L213.58,77.26 L231.85,91.59 L252.52,112.23 L256.11,125.65 L270.20,180.92 L260.33,182.53 L265.33,191.13 L299.57,253.16 L310.61,273.35 L362.59,368.18 L368.82,379.54 L384.85,385.50 L400.59,403.04 L438.53,501.20 L444.82,517.37 L463.44,519.78 L498.56,524.60 L525.17,529.76 Z M635.29,516.80 L609.84,533.33 L632.53,518.75 L666.72,495.70 L679.99,486.41 L635.29,516.80 Z M617.97,765.18 L618.14,770.46 L618.44,774.93 L617.97,765.18 Z M410.56,793.83 L411.75,794.22 L411.28,793.97 L410.56,793.83 Z M389.26,794.20 L405.25,792.86 L401.94,792.25 L389.26,794.20 Z M427.32,642.37 L453.51,588.24 L427.08,642.71 L431.25,648.33 L427.32,642.37 Z M649.04,555.79 L630.13,576.32 L638.88,568.06 L649.04,555.79 Z M657.91,628.49 L651.56,635.95 L657.14,629.41 L657.91,628.49 Z M638.13,640.83 L638.13,640.83 L651.56,635.95 L638.13,640.83 Z M619.49,624.02 L616.91,613.24 L625.19,650.62 L619.49,624.02 Z M622.26,675.74 L623.66,690.87 L623.43,685.48 L622.26,675.74 Z M639.65,685.10 L639.82,685.03 L639.65,685.01 L639.65,685.10 Z M636.47,674.82 L646.51,677.11 L643.34,675.97 L636.47,674.82 Z M649.21,679.41 L653.03,695.12 L649.19,679.23 L649.21,679.41 Z M648.79,676.49 L652.95,677.45 L648.74,676.20 L648.79,676.49 Z M670.65,682.73 L670.29,682.63 L676.94,685.60 L679.76,686.86 L670.65,682.73 Z M689.15,678.65 L690.09,679.98 L693.56,680.55 L689.15,678.65 Z M695.91,684.57 L698.37,689.38 L696.26,684.57 L693.56,680.55 L695.91,684.57 Z M708.55,709.57 L709.71,711.29 L709.18,709.45 L708.55,709.57 Z M708.42,714.27 L707.48,725.51 L707.24,736.29 L708.54,716.45 L709.71,711.29 L708.42,714.27 Z M533.21,664.73 L540.26,657.50 L541.19,655.87 L533.21,664.73 Z M546.84,684.22 L547.19,688.81 L547.08,685.03 L549.37,684.68 L546.84,684.22 Z M556.24,728.95 L556.71,729.03 L557.30,721.49 L556.24,728.95 Z M560.29,738.01 L558.88,732.16 L558.12,729.29 L560.29,738.01 Z M590.95,707.62 L590.83,714.15 L591.54,715.19 L591.30,712.78 L590.95,707.62 Z M607.63,701.65 L607.63,700.87 L606.81,701.65 L607.63,701.65 Z M611.57,714.27 L614.28,713.85 L612.51,713.35 L611.57,714.27 Z M616.74,713.46 L618.20,713.24 L620.48,710.27 L620.48,710.27 L616.74,713.46 Z M628.54,721.84 L628.66,718.05 L628.64,718.05 L628.54,721.84 Z M626.78,742.94 L625.37,745.11 L628.19,742.13 L626.78,742.94 Z M413.46,708.53 L412.10,715.41 L412.10,715.46 L413.46,708.53 Z M436.31,661.55 L434.48,688.70 L434.36,690.76 L436.31,661.55 Z M438.36,691.91 L449.40,695.35 L445.23,692.94 L434.36,690.76 L438.36,691.91 Z M451.57,690.19 L448.81,693.28 L455.57,686.17 L451.57,690.19 Z M461.79,695.92 L460.38,676.54 L462.50,706.24 L461.79,695.92 Z M460.93,656.30 L460.85,659.00 L460.38,676.54 L460.93,656.30 Z M479.93,680.75 L482.34,667.50 L481.41,669.66 L479.77,679.87 L479.93,680.75 Z M502.85,650.39 L507.78,669.43 L508.78,672.64 L502.85,650.39 Z M521.76,709.80 L526.52,672.18 L525.23,681.59 L524.99,683.19 L521.76,709.80 Z M558.82,740.41 L556.65,743.17 L554.18,747.64 L558.82,740.41 Z M539.91,779.40 L533.74,770.92 L532.63,769.66 L539.91,779.40 Z M439.30,745.80 L439.47,757.61 L439.36,745.63 L439.30,745.80 Z M450.49,736.22 L449.58,734.56 L446.35,729.86 L438.71,724.47 L445.41,729.63 L450.49,736.22 Z M451.64,738.30 L454.57,745.69 L452.75,740.30 L451.64,738.30 Z M452.46,750.88 L454.28,747.41 L454.57,745.69 L452.46,750.88 Z M474.77,756.93 L475.54,758.19 L466.73,737.78 L474.77,756.93 Z M482.06,756.08 L482.06,756.08 L475.54,758.19 L482.06,756.08 Z M444.00,772.52 L443.29,771.38 L441.94,770.11 L444.00,772.52 Z M451.49,769.11 L451.98,760.83 L451.49,769.11 L451.49,769.11 Z M451.70,752.73 L451.40,753.49 L452.12,754.31 L451.70,752.73 Z M443.47,789.15 L445.82,795.00 L444.06,789.61 L444.78,788.30 L443.47,789.15 Z M509.07,755.21 L509.09,755.19 L509.06,755.20 L509.07,755.21 Z M511.22,752.85 L511.89,752.11 L511.78,751.38 L511.22,752.85 Z M518.12,733.42 L518.24,729.98 L517.77,723.33 L518.12,733.42 Z M522.05,733.42 L521.99,735.71 L522.05,735.02 L522.05,733.42 Z M518.41,749.13 L517.71,761.51 L518.47,753.37 L518.41,749.13 Z M498.53,719.76 L498.22,718.34 L497.21,718.63 L498.53,719.76 Z M508.96,715.41 L504.55,716.56 L502.60,717.11 L508.96,715.41 Z M503.38,757.73 L504.96,753.94 L503.12,757.24 L503.38,757.73 Z M499.26,723.05 L499.56,728.03 L500.03,726.54 L499.26,723.05 Z M461.38,730.32 L462.11,731.00 L461.62,727.80 L461.38,730.32 Z M468.43,720.35 L473.62,722.46 L471.54,720.46 L468.43,720.35 Z M475.49,724.26 L476.07,726.42 L475.71,724.47 L475.49,724.26 Z M530.22,617.02 L537.03,609.34 L533.63,612.55 L530.22,617.02 Z M497.10,631.90 L497.03,631.82 L493.80,641.56 L497.10,631.90 Z M501.91,651.31 L497.74,632.62 L497.61,632.47 L501.91,651.31 Z M502.73,608.31 L518.71,653.03 L506.31,618.29 L502.58,607.85 L498.80,619.55 L498.61,621.89 L502.73,608.31 Z M491.57,652.34 L484.23,663.12 L482.70,666.66 L491.57,652.34 Z M462.31,606.71 L462.31,606.71 L467.78,607.05 L467.78,606.94 L462.31,606.71 Z M571.98,755.78 L573.56,744.43 L566.46,785.02 L571.98,755.78 Z M580.26,759.45 L585.96,758.53 L574.45,759.11 L580.26,759.45 Z M593.95,754.63 L594.13,753.94 L592.59,755.09 L593.95,754.63 Z M596.53,742.94 L596.86,751.21 L599.23,749.93 L596.94,751.08 L596.53,742.94 Z M602.46,748.44 L602.88,747.87 L598.59,747.18 L602.46,748.44 Z M605.05,744.89 L605.29,742.77 L604.22,746.02 L605.05,744.89 Z M594.94,783.42 L590.30,782.15 L581.73,782.84 L594.94,783.42 Z M606.63,738.69 L606.32,739.65 L606.89,738.53 L606.63,738.69 Z M619.95,707.68 L621.02,697.64 L619.67,706.36 L619.95,707.68 Z M602.58,591.68 L600.00,576.32 L602.29,591.45 L582.26,581.59 L602.58,591.68 Z M616.16,585.43 L623.37,577.00 L616.26,585.26 L615.85,583.31 L616.16,585.43 Z M553.75,661.62 L554.73,660.37 L554.01,660.37 L553.75,661.62 Z M555.65,647.64 L564.58,641.22 L559.12,644.89 L555.65,647.64 Z M566.40,653.49 L567.22,653.61 L565.50,650.16 L566.22,657.16 L566.40,653.49 Z M584.96,636.34 L574.15,644.78 L582.26,638.70 L584.96,636.34 L584.96,636.34 Z M603.11,656.02 L602.81,656.93 L607.16,671.64 L607.17,671.64 L603.11,656.02 Z M611.68,680.44 L611.86,680.43 L611.68,675.97 L611.68,680.44 Z M559.70,672.30 L559.00,668.28 L557.65,663.12 L559.70,672.30 Z M593.24,682.85 L586.19,684.45 L584.37,686.17 L593.24,682.85 Z M562.23,684.57 L562.41,686.17 L562.57,685.09 L562.23,684.57 Z M566.16,668.22 L565.99,669.66 L567.40,670.58 L566.11,668.74 L566.16,668.22 Z M578.44,662.89 L570.51,666.56 L577.73,663.24 L578.44,662.89 Z M607.00,611.40 L606.10,610.26 L603.87,610.14 L607.00,611.40 Z M609.34,614.98 L609.33,614.39 L608.70,613.58 L609.34,614.98 Z M586.31,626.31 L584.61,635.35 L584.61,635.35 L586.31,626.31 Z M603.99,653.38 L603.71,654.21 L604.66,653.21 L603.99,653.38 Z M608.92,653.26 L611.80,651.43 L605.89,652.90 L608.92,653.26 Z M617.79,588.81 L616.30,586.36 L616.56,588.13 L617.79,588.81 Z M639.35,733.07 L639.99,735.37 L640.25,735.30 L639.35,733.07 Z M640.85,736.76 L640.87,738.35 L641.77,739.04 L640.85,736.76 Z M642.32,739.46 L642.81,739.84 L643.00,738.79 L642.32,739.46 Z M650.41,720.61 L650.91,720.12 L650.86,718.74 L650.41,720.61 Z M664.19,717.13 L672.30,719.54 L667.25,717.94 L664.19,717.13 Z M677.82,729.63 L681.88,747.74 L681.88,747.74 L677.82,729.63 Z M697.70,723.00 L698.14,712.20 L697.73,717.94 L697.67,722.64 L695.14,722.52 L697.70,723.00 Z M701.84,706.81 L699.90,708.88 L698.14,712.20 L701.84,706.81 Z M650.15,752.80 L649.35,754.40 L651.97,752.00 L650.15,752.80 Z M647.69,757.73 L646.87,761.74 L648.86,755.38 L647.69,757.73 Z M694.57,694.00 L689.45,691.45 L694.20,693.86 L692.91,699.02 L694.57,694.00 Z M709.77,732.96 L710.30,721.95 L710.36,717.48 L709.77,732.96 Z M714.82,718.17 L712.29,715.41 L714.64,720.12 L713.23,717.13 L714.82,718.17 Z M712.94,707.62 L712.43,707.12 L712.29,715.41 L712.94,707.62 Z M714.47,722.41 L714.17,726.88 L714.64,720.12 L714.47,722.41 Z M721.74,731.39 L721.74,731.38 L716.29,727.68 L714.17,726.88 L721.74,731.39 Z M714.12,603.03 L713.82,608.08 L714.49,600.90 L714.12,603.03 Z M709.89,611.86 L709.14,613.12 L712.00,611.75 L709.89,611.86 Z M702.01,627.54 L700.78,626.66 L700.86,626.24 L699.90,626.75 L701.61,627.92 L701.28,630.82 L702.01,627.54 Z M700.72,635.83 L701.78,636.06 L700.86,634.61 L700.72,635.83 Z M730.62,682.04 L730.76,681.65 L725.39,678.37 L730.62,682.04 Z M735.67,700.97 L739.31,689.15 L738.55,691.10 L735.67,700.97 Z M742.60,684.45 L743.54,681.82 L742.09,684.93 L742.60,684.45 Z M748.71,667.94 L745.66,666.22 L748.19,668.35 L748.71,667.94 Z M771.62,727.91 L788.06,698.56 L805.99,666.21 L805.98,666.22 L787.12,700.16 L771.58,727.91 L772.44,728.49 L776.08,727.91 L771.62,727.91 Z M819.72,667.82 L818.31,662.66 L817.60,662.73 L819.72,667.82 Z M816.67,685.37 L817.27,682.49 L816.61,683.54 L816.02,686.98 L818.19,684.57 L816.67,685.37 Z M814.08,698.33 L813.96,704.29 L816.02,686.98 L814.08,698.33 Z M820.37,688.58 L823.89,688.24 L828.76,690.53 L824.95,688.01 L820.37,688.58 Z M840.40,667.37 L842.63,664.27 L840.51,666.56 L837.11,664.16 L840.40,667.37 Z M844.66,669.75 L844.56,668.28 L842.63,664.27 L844.66,669.75 Z M854.67,708.76 L855.31,704.98 L855.90,699.47 L854.67,708.76 Z M833.47,804.03 L837.28,805.09 L845.67,805.35 L833.47,804.03 Z M875.76,840.11 L871.82,837.77 L850.85,831.23 L875.76,840.11 Z M699.67,614.96 L701.14,615.65 L696.85,609.34 L699.67,614.96 Z M702.43,661.29 L700.78,665.76 L704.07,657.73 L704.66,653.38 L702.43,661.29 Z M700.17,674.96 L700.83,673.61 L700.31,673.44 L700.78,665.76 L700.17,674.96 Z M692.15,555.22 L696.44,557.85 L688.86,553.15 L692.15,555.22 Z M705.19,574.25 L705.76,561.67 L702.13,560.61 L705.72,562.10 L705.19,574.25 Z M697.85,589.96 L699.26,594.43 L698.56,590.13 L698.55,590.19 L697.85,589.96 Z M696.61,595.81 L695.26,608.88 L695.51,608.95 L697.85,589.96 L696.61,595.81 Z M678.29,626.54 L673.88,628.03 L666.42,630.67 L678.29,626.54 Z M688.17,660.26 L688.17,660.26 L685.86,648.22 L688.17,660.26 Z M702.72,674.25 L701.14,673.72 L701.25,674.71 L702.72,674.25 Z M684.34,665.19 L682.99,671.72 L684.70,664.75 L684.34,665.19 Z M686.51,519.32 L683.93,514.05 L682.84,513.45 L686.51,519.32 Z M823.36,764.49 L821.95,768.28 L822.95,767.25 L823.24,770.23 L823.36,764.49 Z M830.53,754.17 L830.29,749.36 L830.00,755.21 L827.94,759.91 L830.53,754.17 Z M841.07,754.21 L833.29,751.77 L841.06,754.69 L841.07,754.21 Z M825.68,801.08 L827.00,802.22 L828.68,802.69 L825.68,801.08 Z M718.17,726.08 L716.93,720.80 L715.47,716.22 L718.17,726.08 Z M727.39,711.97 L725.16,713.69 L719.64,723.21 L722.40,718.51 L727.39,711.97 Z M726.51,739.84 L721.52,735.83 L732.56,746.95 L726.51,739.84 Z M763.71,735.96 L765.37,735.66 L764.57,735.48 L763.71,735.96 Z M767.21,723.85 L770.68,723.44 L767.33,723.33 L767.21,723.85 Z M780.19,726.88 L779.55,730.21 L779.84,731.64 L780.19,726.88 Z M775.49,741.56 L779.55,735.58 L779.67,733.93 L779.02,735.14 L775.49,741.56 Z M772.32,738.35 L778.31,745.23 L775.49,741.56 L772.32,738.35 Z M802.22,717.36 L807.74,713.58 L807.74,713.45 L802.22,717.36 Z M834.71,725.69 L843.22,725.47 L839.98,725.51 L834.71,725.69 Z M786.75,766.04 L787.24,766.44 L792.17,760.37 L786.75,766.04 Z M784.92,764.53 L779.84,757.73 L783.36,763.23 L784.92,764.53 Z M830.82,733.65 L831.41,742.25 L831.29,736.86 L830.82,733.65 Z M748.71,687.89 L746.01,684.57 L744.95,683.88 L748.71,687.89 Z M745.89,692.94 L749.55,691.75 L749.30,691.56 L745.89,692.94 Z M753.16,695.63 L752.29,693.74 L751.10,692.87 L753.16,695.63 Z M755.35,698.56 L758.46,698.44 L754.35,697.22 L755.35,698.56 Z M740.49,726.54 L739.31,716.33 L740.66,733.88 L740.49,726.54 Z M745.77,737.43 L746.30,720.80 L745.48,733.53 L745.77,737.43 Z M751.24,719.66 L752.12,710.71 L751.88,710.39 L751.24,719.66 Z M767.61,684.19 L765.68,689.04 L767.80,685.26 L767.61,684.19 Z M793.20,699.44 L792.82,697.64 L791.59,695.92 L793.20,699.44 Z M793.23,702.11 L794.92,707.48 L793.52,700.91 L793.23,702.11 Z M865.94,679.29 L864.89,674.59 L865.50,680.11 L865.94,679.29 Z M866.30,742.02 L866.18,758.88 L866.24,760.48 L866.30,742.02 Z M871.76,757.27 L879.92,751.43 L866.24,760.48 L871.76,757.27 Z M880.28,751.17 L880.80,743.74 L880.24,734.87 L880.27,751.17 L880.28,751.17 Z M904.12,738.58 L898.19,720.35 L899.89,726.19 L901.24,730.78 L904.12,738.58 Z M904.40,739.49 L916.15,724.36 L904.12,738.58 L904.40,739.49 Z M900.29,716.28 L896.78,721.95 L898.19,720.35 L900.29,716.28 Z M945.41,760.02 L940.76,758.31 L950.81,764.15 L945.41,760.02 Z M928.67,825.16 L923.00,821.56 L924.09,822.40 L929.15,825.56 L928.67,825.16 Z M865.06,808.07 L872.23,814.61 L877.22,817.93 L865.06,808.07 Z M902.48,760.37 L901.89,761.17 L904.00,758.30 L902.48,760.37 Z M907.35,757.27 L907.08,757.60 L909.58,758.07 L907.35,757.27 Z M915.15,775.57 L911.93,767.48 L914.99,775.62 L915.15,775.57 Z M916.40,778.71 L915.74,777.07 L915.87,781.01 L916.40,778.71 Z M920.16,756.01 L923.09,761.05 L924.27,762.66 L920.16,756.01 Z M886.15,725.85 L889.55,724.01 L892.84,720.00 L886.15,725.85 Z M893.73,715.87 L895.55,713.58 L893.26,715.76 L892.84,720.00 L893.73,715.87 Z M860.83,710.94 L862.30,711.40 L863.95,711.06 L860.83,710.94 Z M870.70,701.65 L869.59,699.13 L877.44,723.97 L877.44,723.97 L870.70,701.65 Z M877.71,694.75 L875.58,696.15 L870.70,701.65 L877.71,694.75 Z M882.53,690.00 L883.39,689.15 L883.56,686.86 L882.53,690.00 Z M885.25,691.46 L885.27,690.76 L883.39,689.15 L885.25,691.46 Z M885.15,696.95 L888.85,702.57 L887.73,700.85 L885.15,696.95 Z M890.09,706.80 L890.02,707.39 L891.43,707.96 L890.09,706.80 Z M891.88,709.86 L891.88,709.86 L892.67,707.50 L891.88,709.86 Z M908.53,700.39 L910.58,709.80 L907.00,692.59 L908.53,700.39 Z M917.22,720.85 L917.22,720.85 L910.58,709.80 L917.22,720.85 Z M871.04,690.76 L871.05,688.12 L870.35,686.06 L871.04,690.76 Z M870.53,693.97 L870.99,697.07 L871.02,693.00 L870.53,693.97 Z M877.28,664.04 L873.81,661.06 L879.04,666.33 L877.28,664.04 Z M907.59,650.88 L908.71,650.69 L907.76,650.28 L907.59,650.88 Z M906.82,653.51 L907.47,653.15 L907.26,652.02 L906.82,653.51 Z M905.78,657.09 L906.18,657.39 L906.21,655.61 L905.78,657.09 Z M905.20,679.75 L906.94,674.82 L905.82,676.54 L905.82,675.16 L904.83,678.83 L905.20,679.75 Z M930.49,659.57 L930.24,653.17 L929.46,682.24 L930.49,659.57 Z M940.65,647.87 L935.78,642.94 L940.07,648.10 L935.95,651.08 L940.65,647.87 Z M934.72,654.98 L934.89,655.62 L936.25,653.95 L934.72,654.98 Z M935.71,658.84 L935.60,656.36 L935.00,656.06 L935.71,658.84 Z M900.07,683.42 L899.93,684.19 L900.92,683.22 L900.07,683.42 Z M903.93,682.03 L904.47,681.82 L904.92,680.54 L903.93,682.03 Z M929.30,685.61 L926.38,699.93 L929.14,689.15 L929.30,685.61 Z M917.98,636.75 L919.04,639.96 L923.62,651.08 L917.98,636.75 Z M710.12,629.07 L712.29,627.12 L706.19,630.56 L710.12,629.07 Z M726.16,647.76 L726.77,646.27 L725.40,647.45 L726.16,647.76 Z M726.39,656.47 L726.86,654.29 L726.16,647.76 L726.39,656.47 Z M726.17,592.51 L722.40,604.27 L724.51,599.59 L725.92,595.47 L726.17,592.51 Z M737.19,612.89 L737.61,606.25 L736.27,612.67 L737.19,612.89 Z M216.58,123.13 L215.52,117.62 L225.09,167.73 L227.91,182.18 L216.58,123.13 Z M252.93,350.06 L249.76,357.75 L249.75,357.80 L252.93,350.06 Z M282.24,491.46 L282.42,496.73 L283.25,498.31 L282.24,491.46 Z M289.29,525.74 L289.64,523.57 L289.03,526.11 L305.56,527.01 L289.29,525.74 Z M288.91,526.62 L288.70,527.46 L290.11,529.76 L288.91,526.62 Z M287.35,542.26 L285.47,553.38 L285.26,555.63 L287.35,542.26 Z M279.83,592.48 L282.65,594.78 L284.30,595.12 L279.83,592.48 Z M285.77,623.10 L276.49,626.89 L275.49,614.96 L276.19,633.19 L276.02,627.12 L285.77,623.10 Z M286.45,623.59 L285.36,621.92 L285.77,623.10 L286.45,623.59 Z M276.43,645.35 L274.98,642.88 L281.01,661.75 L276.43,645.35 Z M292.11,713.58 L284.71,694.31 L289.23,706.58 L292.33,714.34 L292.11,713.58 Z M292.00,788.69 L289.29,791.90 L291.46,790.30 L292.00,788.69 Z M291.46,810.82 L287.65,813.00 L290.29,811.85 L289.76,814.10 L291.46,810.82 Z M280.13,850.16 L280.01,845.91 L280.89,842.13 L279.60,847.63 L280.13,850.16 Z M279.13,839.26 L270.08,830.20 L280.89,842.13 L279.13,839.26 Z M209.53,171.40 L211.82,176.68 L205.89,159.94 L209.53,171.40 Z M174.70,235.05 L151.38,247.89 L187.03,228.97 L197.14,222.89 L174.70,235.05 Z M176.79,312.36 L181.40,311.19 L202.54,302.59 L176.79,312.36 Z M176.81,388.14 L178.28,391.23 L175.22,383.99 L176.81,388.14 Z M203.36,439.39 L201.19,443.52 L203.54,439.66 L203.36,439.39 Z M190.62,460.72 L189.03,465.31 L194.67,450.17 L190.62,460.72 Z M184.69,480.56 L185.51,479.19 L189.44,472.42 L184.69,480.56 Z M166.70,201.66 L167.18,201.56 L146.52,150.54 L166.70,201.66 Z M94.06,240.32 L81.20,237.34 L100.34,243.19 L94.06,240.32 Z M108.27,242.96 L107.92,243.99 L113.97,242.27 L100.34,243.19 L108.27,242.96 Z M117.21,256.64 L116.61,251.79 L111.09,230.12 L113.97,242.27 L117.21,256.64 Z M108.27,214.41 L107.16,208.56 L111.09,230.12 L108.27,214.41 Z M151.10,347.87 L151.27,346.39 L150.98,343.34 L151.10,347.87 Z M150.81,336.78 L151.78,334.68 L150.80,336.30 L150.81,336.78 Z M158.38,323.76 L162.42,318.30 L160.43,320.36 L158.38,323.76 Z M168.71,314.40 L169.01,314.32 L167.70,313.35 L168.71,314.40 Z M131.30,405.22 L127.01,390.66 L128.65,396.85 L131.30,405.22 Z M147.10,415.38 L147.10,415.38 L140.40,420.24 L147.10,415.38 Z M177.70,436.76 L175.52,424.95 L175.82,428.85 L177.70,436.76 Z M138.05,442.03 L134.82,448.57 L137.05,445.13 L138.05,442.03 Z M150.44,464.97 L142.22,454.41 L144.33,458.20 L150.44,464.97 Z M143.92,402.36 L145.61,408.35 L140.27,383.18 L143.92,402.36 Z M164.30,309.81 L165.81,311.38 L163.36,305.91 L164.30,309.81 Z M106.51,289.63 L99.23,270.25 L100.75,274.61 L106.51,289.63 Z M101.63,255.11 L102.61,253.65 L100.23,254.89 L101.63,255.11 Z M161.37,280.92 L157.90,277.13 L157.47,277.79 L161.37,280.92 Z M160.96,295.48 L161.19,297.20 L161.56,294.80 L160.96,295.48 Z M162.72,303.62 L162.72,300.53 L162.60,297.43 L162.72,303.62 Z M61.23,137.12 L60.76,127.25 L60.48,135.13 L60.87,134.25 L61.23,137.12 Z M111.31,174.13 L109.62,179.09 L111.21,176.45 L111.31,174.13 Z M120.31,197.78 L120.33,198.20 L121.24,197.08 L120.31,197.78 Z M124.35,210.23 L124.35,210.23 L120.40,199.60 L120.43,200.30 L124.35,210.23 Z M84.89,195.05 L84.31,195.25 L72.21,213.95 L84.89,195.05 Z M110.89,167.07 L111.35,173.41 L111.50,170.03 L110.89,167.07 Z M116.91,153.85 L116.38,154.32 L116.67,155.12 L116.91,153.85 Z M122.34,165.20 L122.62,167.66 L122.72,167.39 L122.34,165.20 Z M122.28,168.61 L118.79,169.22 L122.02,169.34 L122.28,168.61 Z M123.07,192.64 L122.71,195.27 L123.19,194.68 L123.07,192.64 Z M260.73,588.77 L252.52,579.07 L260.45,588.70 L260.73,588.77 Z M263.74,575.05 L261.22,584.23 L263.79,574.88 L263.74,575.05 Z M218.57,717.94 L226.56,722.41 L263.15,742.71 L218.57,717.94 Z M250.64,763.46 L247.47,769.08 L263.15,742.71 L250.64,763.46 Z M266.36,713.46 L266.62,710.48 L266.27,713.12 L266.36,713.46 Z M270.61,708.42 L269.50,707.96 L266.62,710.48 L270.61,708.42 Z M242.50,793.66 L241.95,794.31 L241.89,799.01 L242.50,793.66 Z M260.45,773.55 L264.09,768.16 L260.37,773.57 L260.45,773.55 Z M263.92,629.87 L273.36,640.11 L272.20,638.12 L263.92,629.87 Z M261.39,542.95 L256.36,546.49 L256.63,546.39 L261.39,542.95 Z M213.22,498.88 L212.88,499.60 L211.35,505.45 L213.22,498.88 Z M242.13,203.63 L252.11,197.89 L224.96,210.98 L242.13,203.63 Z M235.02,224.27 L235.99,226.18 L233.61,220.37 L235.02,224.27 Z M341.86,467.26 L337.34,447.19 L336.04,442.03 L341.86,467.26 Z M339.63,685.49 L339.63,685.49 L340.98,683.08 L339.63,685.49 Z M357.25,764.38 L359.42,774.47 L353.55,746.84 L357.25,764.38 Z M362.06,784.45 L366.06,795.69 L359.42,774.47 L362.06,784.45 Z M339.63,762.43 L342.74,766.44 L343.63,767.45 L339.63,762.43 Z M330.83,766.67 L331.58,769.43 L331.40,766.56 L339.63,762.43 L330.83,766.67 Z M331.40,817.02 L330.30,822.40 L331.76,821.14 L330.58,821.37 L331.40,817.02 Z M318.36,423.23 L320.07,421.96 L319.36,422.42 L318.36,423.23 Z M314.78,652.69 L316.37,660.60 L314.51,648.39 L314.78,652.69 Z M323.30,652.11 L322.57,651.77 L325.24,653.49 L323.30,652.11 Z M293.11,785.37 L295.69,787.77 L294.46,786.40 L293.11,785.37 Z M298.98,789.72 L308.14,795.69 L313.43,798.55 L298.98,789.72 Z M317.21,776.82 L319.89,777.34 L317.37,775.85 L317.21,776.82 Z M329.93,772.64 L332.40,773.32 L330.67,772.43 L329.93,772.64 Z M314.66,822.29 L319.07,811.74 L295.58,865.29 L286.59,886.85 L296.46,863.34 L314.66,822.29 Z M293.70,908.87 L308.85,885.02 L303.74,892.93 L293.70,908.87 Z M297.51,949.81 L296.99,952.33 L297.96,949.51 L297.51,949.81 Z M315.96,754.40 L307.32,751.08 L315.02,754.06 L312.49,757.27 L315.96,754.40 Z M332.17,744.43 L330.82,739.73 L329.34,737.28 L332.17,744.43 Z M335.57,750.05 L335.92,749.86 L334.46,747.98 L335.57,750.05 Z M301.21,696.49 L300.57,695.81 L308.91,705.67 L301.21,696.49 Z M292.68,590.06 L294.11,585.72 L292.46,589.04 L292.68,590.06 Z M297.04,582.85 L293.75,577.00 L297.12,584.25 L297.58,583.02 L297.04,582.85 Z M298.09,583.18 L299.39,586.87 L298.51,583.31 L298.09,583.18 Z M310.20,610.14 L308.73,618.17 L309.55,614.16 L310.20,610.14 Z M320.89,610.37 L330.58,586.87 L320.61,610.86 L321.73,613.14 L320.89,610.37 Z M309.44,626.31 L306.68,626.20 L301.04,626.31 L309.44,626.31 Z M312.67,631.59 L311.79,630.15 L313.01,634.76 L312.67,631.59 Z M285.30,616.68 L284.29,618.82 L284.29,618.82 L285.30,616.68 Z M308.09,552.69 L307.31,553.53 L320.89,552.37 L317.42,551.89 L308.09,552.69 Z M292.64,426.32 L298.03,380.07 L298.03,380.07 L292.64,426.32 Z M316.78,400.29 L317.52,406.63 L317.72,404.88 L316.78,400.29 Z M352.07,802.45 L351.90,802.45 L356.01,796.60 L349.20,805.89 L352.07,802.45 Z M377.10,805.20 L370.69,802.08 L371.05,802.57 L377.10,805.20 Z M363.24,821.60 L365.63,824.79 L365.63,824.79 L363.24,821.60 Z M365.59,824.94 L359.83,838.00 L364.88,827.45 L365.59,824.94 Z M360.77,874.01 L356.84,880.20 L363.00,871.49 L360.77,874.01 Z M384.38,890.87 L385.31,891.89 L385.60,891.06 L384.38,890.87 Z M389.58,891.68 L389.84,892.81 L393.90,892.36 L389.58,891.68 Z M401.30,860.59 L401.51,860.47 L397.48,850.96 L401.30,860.59 Z M427.96,856.38 L428.14,858.30 L428.56,858.12 L427.96,856.38 Z M384.15,895.22 L385.29,891.95 L380.29,901.00 L384.15,895.22 Z M408.87,878.48 L409.73,880.14 L408.94,877.42 L408.87,878.48 Z M412.10,884.79 L411.75,882.49 L410.54,881.73 L412.10,884.79 Z M428.50,893.43 L428.31,886.39 L426.49,871.83 L428.50,893.43 Z M406.23,812.43 L401.65,812.77 L409.17,813.92 L406.23,812.43 Z M387.16,819.43 L388.61,819.19 L401.65,812.77 L387.16,819.43 Z M369.05,812.66 L367.82,815.98 L365.78,824.25 L369.05,812.66 Z M360.24,595.81 L362.35,552.72 L361.95,552.69 L362.24,531.59 L361.30,573.33 L360.24,595.81 Z M393.54,595.92 L393.51,597.18 L393.78,589.62 L393.54,595.92 Z M370.94,747.03 L373.52,743.97 L370.94,747.03 L370.94,747.03 Z M390.14,621.50 L376.34,622.18 L383.56,621.84 L390.14,621.50 Z M372.90,750.47 L374.63,753.49 L383.79,763.92 L372.90,750.47 Z M366.75,659.55 L366.75,659.55 L354.07,631.70 L352.67,630.56 L366.75,659.55 Z M396.77,512.56 L396.74,512.55 L395.89,534.23 L396.77,512.56 Z M402.41,567.83 L394.90,555.10 L416.39,592.25 L402.41,567.83 Z M368.64,449.72 L368.64,451.32 L368.82,470.24 L368.64,449.72 Z M394.78,441.23 L391.19,431.48 L399.24,428.04 L390.84,430.57 L394.78,441.23 Z" /></g></svg>