<svg xmlns="http://www.w3.org/2000/svg" viewBox="0 0 1000 1000" width="1000" height="1000"><g fill="#cccccc" stroke="#222" stroke-width="2"><path d="M165.61,875.26 L167.35,872.47 L166.97,870.10 L161.67,873.23 L162.50,865.44 L164.40,860.87 L164.25,857.15 L161.22,855.88 L163.26,850.63 L162.43,848.60 L163.72,845.30 L163.18,843.36 L165.14,840.39 L162.96,840.99 L155.00,838.11 L150.99,841.24 L146.59,839.89 L141.59,843.95 L136.36,843.53 L132.88,848.35 L132.05,847.17 L133.18,845.22 L130.45,844.29 L127.27,837.18 L118.63,836.59 L116.89,838.11 L114.62,835.40 L107.88,835.57 L103.18,832.61 L95.83,831.34 L93.10,827.96 L85.68,825.42 L79.39,825.00 L75.07,822.29 L74.31,814.76 L76.21,802.66 L74.01,798.26 L76.74,790.90 L75.22,788.11 L74.46,781.42 L75.90,771.01 L73.93,767.12 L76.81,757.56 L75.30,752.32 L81.51,749.78 L82.27,747.24 L87.57,744.53 L90.53,739.45 L96.74,732.18 L94.77,725.49 L97.65,720.59 L93.03,716.61 L91.97,710.01 L94.24,706.62 L102.04,701.21 L103.94,697.32 L103.18,694.44 L109.32,689.19 L112.95,687.76 L118.94,679.13 L117.27,670.24 L123.64,664.49 L124.32,657.04 L127.42,650.10 L126.29,643.08 L125.38,640.54 L122.20,640.12 L121.14,637.66 L117.73,635.55 L112.73,640.63 L109.39,640.37 L104.54,635.72 L96.28,633.60 L94.69,631.40 L94.54,628.36 L85.45,628.36 L84.92,626.92 L82.27,626.58 L78.78,621.93 L74.99,621.42 L74.84,617.70 L68.18,616.17 L63.86,611.52 L59.99,611.18 L64.84,604.92 L59.99,610.08 L59.77,606.87 L52.79,597.73 L51.13,591.64 L39.84,592.99 L37.11,595.27 L35.90,593.75 L32.04,594.51 L31.50,589.86 L27.87,587.15 L28.85,576.07 L27.64,574.97 L22.19,568.11 L19.23,561.85 L22.79,558.38 L23.25,554.83 L28.93,551.87 L28.10,544.34 L32.34,545.10 L36.28,542.14 L31.66,536.30 L32.87,533.17 L31.05,527.50 L36.20,512.61 L33.85,507.70 L33.17,502.20 L34.23,499.58 L43.78,494.84 L45.52,490.18 L43.55,485.45 L47.11,480.62 L46.73,476.14 L45.37,474.28 L43.93,473.26 L39.61,473.85 L36.51,470.30 L33.17,469.71 L31.35,465.73 L28.25,466.49 L25.82,463.36 L21.43,462.01 L27.34,458.12 L31.96,452.62 L30.29,450.25 L25.67,449.40 L22.34,451.18 L21.35,448.47 L22.94,443.48 L26.43,442.97 L27.79,441.28 L32.34,441.36 L33.63,437.13 L33.02,432.23 L33.85,429.35 L34.69,427.91 L32.94,423.68 L34.08,415.89 L28.63,411.83 L30.60,409.13 L31.05,406.25 L30.14,405.06 L31.58,398.30 L29.61,392.03 L24.99,386.79 L20.52,384.17 L19.69,378.75 L23.02,376.55 L25.14,371.05 L22.49,363.01 L23.85,357.60 L22.11,352.18 L23.32,349.05 L28.17,347.70 L29.00,345.16 L33.78,348.29 L36.35,344.82 L37.26,340.00 L39.16,338.22 L49.01,336.78 L52.95,337.12 L54.54,340.17 L66.36,340.59 L69.54,331.71 L69.08,328.41 L70.60,322.65 L74.62,320.37 L75.83,315.29 L78.56,314.36 L81.13,316.39 L82.12,313.51 L87.80,310.13 L88.33,308.10 L87.19,303.61 L84.39,300.65 L89.69,296.17 L92.27,288.13 L96.13,288.89 L98.63,286.61 L99.85,283.14 L108.56,275.61 L111.66,268.84 L116.21,267.91 L122.73,262.15 L124.47,258.68 L124.47,255.72 L119.92,252.08 L114.92,242.95 L116.51,239.56 L115.00,234.32 L117.95,231.35 L117.80,228.82 L120.91,226.95 L122.95,223.23 L127.20,222.22 L127.50,218.16 L131.29,208.09 L130.45,204.19 L131.36,199.46 L134.47,192.35 L132.80,189.22 L132.50,182.53 L125.38,173.73 L117.12,170.52 L116.29,165.61 L113.71,164.00 L110.53,166.03 L107.42,163.75 L98.56,145.30 L100.38,141.33 L99.69,136.59 L102.57,132.10 L103.03,128.80 L105.91,125.67 L105.53,124.15 L107.57,121.19 L109.69,120.34 L113.94,114.17 L112.57,108.58 L106.82,103.42 L105.53,98.17 L99.77,93.52 L91.66,91.15 L89.16,88.27 L89.69,84.64 L87.19,82.35 L88.71,79.56 L89.16,70.84 L92.04,66.70 L94.47,65.43 L93.18,61.79 L93.48,57.64 L98.71,52.40 L99.24,44.28 L103.71,40.81 L110.30,42.41 L103.03,39.79 L103.10,38.69 L106.97,36.58 L108.63,31.08 L111.82,26.93 L115.15,24.48 L121.89,24.82 L124.17,21.52 L128.56,19.23 L136.14,21.77 L139.85,25.15 L141.82,25.32 L143.64,28.45 L145.83,28.37 L147.27,26.00 L153.11,28.03 L154.70,30.57 L157.12,30.74 L160.23,34.46 L160.68,37.34 L163.26,39.45 L165.15,48.59 L171.59,49.35 L174.63,53.84 L176.75,54.35 L183.79,62.30 L189.10,64.92 L193.72,63.48 L196.52,60.78 L200.54,63.82 L199.17,69.49 L208.19,78.21 L207.66,83.71 L208.57,85.40 L207.81,90.14 L205.69,91.32 L206.37,93.44 L211.83,97.92 L214.55,103.59 L220.54,107.23 L234.25,105.54 L235.24,102.32 L240.84,101.31 L247.28,93.44 L250.47,96.23 L252.74,96.57 L260.92,96.40 L264.41,101.90 L269.18,106.30 L272.82,105.96 L276.15,102.32 L277.82,102.15 L281.23,102.57 L283.80,106.21 L290.17,107.99 L297.37,104.60 L300.77,105.87 L302.29,103.08 L307.90,102.15 L313.05,98.51 L316.46,98.09 L317.82,91.49 L311.69,90.47 L310.32,88.70 L313.58,87.94 L318.66,84.21 L318.35,81.59 L313.58,79.39 L314.87,77.53 L317.75,77.28 L321.38,74.48 L321.38,73.13 L319.11,72.54 L318.28,70.76 L323.73,67.21 L327.52,67.97 L329.04,66.78 L341.08,73.38 L344.34,67.63 L350.63,64.50 L347.67,60.44 L351.84,58.49 L352.83,55.28 L364.72,53.58 L367.90,54.51 L372.07,52.31 L375.03,55.44 L380.03,67.97 L385.56,73.47 L391.16,75.84 L391.31,80.15 L390.48,83.37 L387.83,85.57 L388.66,87.09 L390.25,86.75 L390.86,89.97 L388.74,92.84 L384.87,95.97 L380.48,96.99 L379.04,101.90 L374.72,99.78 L372.90,101.47 L373.21,106.21 L374.42,106.72 L371.24,114.50 L380.10,120.00 L380.18,116.20 L381.09,117.72 L381.54,116.54 L384.57,116.45 L385.86,117.38 L385.48,120.51 L387.83,122.80 L392.91,118.31 L397.75,122.46 L401.69,123.73 L410.48,123.30 L412.15,122.12 L414.80,125.08 L412.98,126.01 L413.59,126.94 L417.68,128.04 L427.08,124.40 L428.52,122.04 L431.85,123.64 L434.80,122.12 L438.67,122.29 L442.84,125.84 L447.46,127.03 L445.11,131.93 L446.62,140.82 L450.79,143.78 L451.93,148.01 L453.37,149.03 L451.55,155.88 L453.59,158.67 L451.93,163.92 L452.53,167.47 L455.72,169.67 L460.11,168.06 L463.67,170.86 L460.94,172.89 L463.52,171.79 L464.58,173.40 L467.38,172.89 L467.69,174.16 L469.66,174.33 L469.13,178.73 L466.55,180.08 L463.75,186.43 L466.25,186.43 L471.25,192.01 L470.11,192.26 L470.72,195.06 L469.66,195.99 L471.93,200.47 L471.17,203.77 L473.75,206.48 L474.20,209.52 L472.91,210.54 L475.26,211.64 L474.28,211.89 L474.43,214.35 L475.79,217.14 L476.85,216.55 L476.02,218.07 L476.93,219.34 L479.13,219.68 L479.96,218.41 L479.51,223.49 L476.10,225.26 L476.10,231.95 L471.32,236.69 L467.31,237.70 L461.47,235.84 L462.99,238.72 L462.53,243.71 L458.75,250.82 L454.73,252.42 L456.93,254.79 L456.16,255.81 L456.85,255.47 L459.50,257.16 L459.43,259.87 L461.78,260.80 L460.72,265.12 L464.50,266.13 L466.09,267.99 L466.40,270.87 L470.34,270.87 L472.69,273.58 L478.82,271.12 L481.10,272.98 L482.01,275.86 L481.10,278.15 L478.29,276.45 L474.20,279.25 L474.88,280.60 L473.90,283.05 L473.67,288.64 L468.60,292.95 L473.37,297.10 L471.55,306.66 L474.35,312.41 L473.97,316.14 L476.78,319.61 L480.57,321.55 L480.19,323.41 L480.49,321.97 L485.04,323.58 L487.46,328.74 L485.64,334.07 L481.32,337.54 L482.54,354.55 L480.26,354.97 L478.29,360.14 L475.57,363.35 L475.11,366.14 L476.85,367.67 L475.26,371.73 L477.08,374.69 L481.70,376.97 L481.93,381.80 L484.20,388.06 L479.28,391.10 L480.19,392.54 L478.22,393.64 L477.01,397.20 L474.58,397.45 L468.52,401.76 L469.50,403.20 L466.17,405.32 L464.28,408.87 L465.64,410.31 L464.88,413.10 L465.03,422.24 L466.70,426.22 L471.25,430.53 L471.40,432.48 L473.52,432.48 L473.29,435.69 L470.79,438.66 L473.37,439.67 L473.29,441.28 L474.28,441.62 L476.78,443.39 L479.28,441.45 L478.82,439.76 L480.64,439.42 L481.55,436.63 L483.90,435.10 L483.75,431.13 L489.43,433.49 L490.64,431.55 L492.39,431.72 L496.40,425.54 L497.99,425.37 L499.73,415.98 L503.45,410.40 L505.87,409.72 L505.49,403.80 L517.46,402.02 L522.09,398.89 L525.42,399.90 L526.86,398.55 L530.12,399.14 L534.74,402.19 L537.09,405.91 L541.56,406.33 L544.06,412.17 L544.36,417.76 L546.48,418.60 L547.54,416.23 L549.06,415.98 L551.71,418.26 L551.10,422.49 L553.30,426.47 L556.48,424.19 L556.63,429.09 L562.39,432.14 L568.53,432.31 L571.03,430.70 L572.55,431.97 L573.23,430.96 L577.92,431.63 L578.23,425.12 L579.67,423.51 L583.30,423.17 L588.99,428.59 L591.64,424.95 L598.08,426.56 L598.91,424.53 L600.65,425.96 L604.29,424.02 L605.65,426.39 L614.06,425.03 L619.90,427.57 L621.79,429.94 L627.10,430.62 L632.48,434.17 L639.29,430.03 L640.58,430.45 L643.16,432.14 L643.76,435.36 L646.42,438.49 L646.34,445.42 L644.75,447.96 L646.64,452.02 L645.66,453.29 L649.30,456.00 L649.22,458.46 L650.74,458.88 L652.17,464.80 L651.64,468.10 L654.83,469.37 L663.69,467.00 L669.75,468.44 L669.30,473.35 L670.89,474.79 L672.48,474.87 L675.36,478.09 L677.40,477.49 L678.39,475.04 L680.59,474.36 L683.24,475.55 L688.85,472.33 L693.39,463.79 L692.63,461.76 L696.27,458.79 L695.82,454.31 L698.62,450.59 L700.13,453.21 L705.21,456.93 L709.91,454.82 L714.08,456.34 L718.55,455.41 L720.21,457.10 L723.24,456.51 L722.49,460.23 L724.61,462.26 L727.56,463.36 L730.06,462.09 L734.53,468.27 L741.20,468.86 L743.09,473.26 L746.73,476.73 L749.15,482.32 L747.64,483.16 L747.87,484.85 L750.44,486.89 L750.29,491.79 L749.23,492.55 L752.19,500.00 L748.32,503.05 L746.88,507.78 L741.50,511.51 L738.93,510.83 L737.11,512.52 L735.90,512.02 L727.94,520.73 L724.53,523.78 L722.33,523.35 L720.21,525.21 L718.55,524.96 L715.06,532.24 L707.58,540.30 L708.24,540.02 L709.07,541.71 L708.32,551.36 L712.03,556.01 L717.26,556.10 L719.38,556.44 L724.23,562.61 L727.56,564.39 L734.00,565.49 L737.79,568.54 L739.46,567.77 L756.43,572.01 L767.94,570.99 L773.25,578.94 L777.95,580.38 L781.13,584.61 L784.01,583.51 L785.37,585.20 L788.48,584.44 L790.60,585.46 L790.98,587.57 L790.94,587.61 L793.70,589.94 L799.99,599.50 L801.66,600.60 L807.04,600.18 L808.33,603.48 L806.05,604.24 L809.46,607.54 L810.15,610.08 L815.30,610.76 L817.42,612.87 L820.07,612.87 L826.13,615.75 L828.71,621.33 L835.38,619.64 L837.42,622.69 L844.47,624.21 L848.94,628.44 L850.45,632.84 L855.15,636.82 L854.54,638.60 L855.83,639.70 L855.91,642.15 L853.86,644.43 L854.77,646.30 L873.26,658.23 L875.00,657.29 L877.96,658.82 L879.85,657.46 L882.65,658.73 L885.15,657.63 L887.65,660.34 L887.77,661.51 L887.81,661.36 L890.38,658.99 L892.73,660.43 L894.62,659.16 L893.71,657.21 L895.61,652.81 L895.23,649.43 L897.58,648.41 L900.61,642.91 L904.25,642.23 L905.23,639.19 L912.43,637.75 L913.34,636.06 L916.82,635.13 L922.66,636.65 L923.04,632.76 L930.99,627.77 L935.54,630.64 L938.72,638.26 L942.20,638.34 L942.96,642.15 L949.25,642.40 L947.36,651.54 L950.31,655.18 L950.61,659.07 L958.72,664.83 L959.63,671.09 L961.37,674.05 L965.99,673.79 L965.77,676.08 L969.48,679.63 L966.45,683.61 L973.50,689.02 L975.77,689.28 L975.09,691.99 L978.19,694.10 L978.42,695.54 L976.68,696.64 L976.91,701.63 L978.42,705.02 L978.04,709.08 L980.77,714.15 L978.95,718.64 L973.19,722.28 L974.25,728.20 L976.98,730.74 L977.97,734.04 L976.83,735.90 L978.12,739.45 L975.31,742.58 L979.18,746.82 L977.97,750.79 L976.45,752.32 L967.59,752.74 L962.74,757.65 L954.93,758.75 L953.11,754.68 L949.10,753.16 L945.31,753.58 L942.58,756.63 L939.17,751.55 L927.88,754.68 L925.01,760.61 L924.78,763.57 L920.16,766.02 L920.23,774.40 L916.67,778.38 L911.67,779.81 L907.20,777.87 L901.75,778.29 L896.67,783.11 L893.18,783.96 L892.20,790.81 L890.76,792.00 L880.99,786.67 L876.14,789.29 L872.80,787.60 L869.24,788.44 L866.74,792.68 L861.97,794.96 L859.92,797.92 L864.85,806.47 L869.17,806.30 L873.03,810.95 L873.94,816.11 L880.23,814.34 L882.12,816.45 L882.12,820.77 L885.68,827.45 L884.02,830.50 L884.09,835.91 L891.59,847.67 L890.38,851.82 L886.52,855.71 L888.34,861.89 L885.53,867.22 L887.50,870.77 L887.81,878.64 L890.23,879.74 L890.68,884.31 L888.18,888.46 L891.37,892.43 L892.73,892.35 L893.03,897.34 L896.97,897.85 L899.93,902.84 L899.09,905.04 L900.91,911.13 L900.15,913.50 L905.53,916.89 L902.43,924.16 L902.81,927.55 L900.76,930.59 L900.84,935.92 L897.05,945.74 L891.21,945.23 L887.27,947.60 L885.53,943.46 L883.49,942.36 L883.33,939.65 L877.27,936.43 L877.58,933.98 L869.02,926.79 L863.56,928.73 L859.09,935.25 L855.91,936.35 L851.97,935.08 L850.38,938.12 L845.91,937.96 L843.63,941.68 L839.24,943.54 L835.53,947.52 L833.63,948.28 L825.98,945.57 L824.39,944.22 L816.28,947.52 L812.42,945.91 L813.48,943.29 L806.81,941.85 L801.05,943.37 L788.86,937.62 L784.92,938.38 L782.08,936.38 L782.19,936.94 L778.40,939.56 L776.96,951.41 L774.38,953.86 L768.93,955.64 L767.64,956.91 L767.94,959.02 L764.53,962.83 L752.64,961.14 L749.84,963.42 L746.96,970.02 L744.23,971.97 L742.79,977.72 L736.50,978.23 L729.15,980.77 L721.42,975.35 L722.26,971.63 L718.55,967.65 L718.55,964.10 L714.91,963.76 L710.82,960.04 L706.35,958.85 L703.16,954.71 L696.04,952.42 L695.36,949.72 L698.47,944.22 L698.01,939.48 L699.76,936.77 L699.53,933.64 L694.83,925.69 L694.07,915.62 L698.69,910.46 L699.00,905.21 L703.09,901.91 L706.80,901.06 L707.79,899.20 L700.82,892.01 L698.92,891.76 L698.09,886.60 L694.91,883.97 L681.27,886.85 L674.83,895.99 L668.92,897.51 L664.07,890.83 L664.83,889.13 L663.69,888.12 L659.75,887.95 L651.04,895.65 L652.25,889.22 L651.04,883.55 L649.14,882.70 L640.28,892.26 L637.32,891.33 L631.57,883.38 L626.26,880.00 L622.63,873.90 L622.47,870.77 L623.54,866.46 L628.23,863.67 L631.04,857.83 L629.45,855.03 L623.31,851.99 L623.01,848.77 L620.96,847.50 L620.50,845.56 L623.02,840.91 L621.87,841.67 L612.85,836.42 L604.59,834.90 L599.90,836.42 L594.97,836.08 L593.23,835.74 L592.24,833.71 L586.79,838.11 L585.65,836.42 L586.11,830.75 L583.30,827.87 L583.99,821.78 L591.79,818.40 L591.94,812.56 L594.06,810.95 L596.18,813.32 L599.06,813.57 L602.62,809.09 L602.70,804.52 L597.47,799.87 L591.71,797.75 L589.67,787.26 L586.18,782.27 L576.94,780.24 L575.05,780.74 L575.35,781.93 L568.61,779.90 L558.83,783.03 L548.98,777.02 L544.28,772.20 L543.15,767.38 L530.80,772.37 L526.48,771.27 L520.49,775.92 L519.81,780.74 L521.33,780.15 L522.54,782.86 L521.71,784.72 L524.59,787.01 L521.93,788.61 L523.37,790.22 L521.86,791.24 L523.15,792.93 L520.95,792.93 L522.31,795.21 L519.66,798.09 L516.93,798.51 L503.52,795.04 L502.99,791.41 L497.92,786.08 L492.08,784.04 L490.64,782.18 L485.34,781.34 L481.85,775.50 L478.07,772.88 L477.01,770.59 L479.28,763.40 L479.51,754.43 L465.26,746.22 L459.50,745.12 L455.11,740.81 L452.08,743.43 L449.73,744.19 L447.46,742.92 L444.58,745.46 L441.70,745.55 L436.39,742.67 L434.73,744.95 L428.67,747.49 L421.24,745.97 L420.03,743.35 L413.44,741.57 L409.27,744.70 L404.12,745.63 L398.89,748.85 L389.50,749.10 L379.72,746.05 L378.51,749.44 L375.63,751.81 L372.37,753.67 L369.65,753.08 L365.71,757.14 L365.78,762.72 L362.45,766.61 L359.42,768.05 L357.67,771.69 L358.05,773.38 L352.98,779.39 L350.78,778.88 L346.92,783.96 L346.16,794.96 L342.82,802.74 L340.25,805.87 L337.22,806.13 L332.67,810.61 L331.46,814.00 L334.19,819.50 L330.25,817.64 L336.38,821.70 L342.22,833.12 L334.41,842.85 L331.31,844.97 L321.84,847.42 L320.55,854.78 L318.35,856.56 L316.84,860.79 L317.29,864.85 L314.79,868.32 L312.97,876.19 L305.47,877.12 L303.28,883.63 L300.17,885.83 L296.61,886.17 L290.62,884.06 L288.65,886.85 L283.12,886.51 L282.36,883.80 L279.41,880.42 L276.83,881.52 L275.39,885.24 L270.47,883.55 L263.57,885.83 L261.00,890.15 L254.86,892.69 L253.95,895.31 L256.30,900.64 L261.15,902.67 L262.44,910.29 L254.63,913.93 L251.15,912.06 L250.54,913.08 L246.75,912.91 L240.92,919.51 L233.95,922.47 L229.40,922.22 L225.46,918.24 L221.15,920.95 L212.36,920.19 L209.93,916.55 L208.04,918.49 L206.30,918.07 L205.39,919.76 L201.14,914.09 L198.34,913.42 L196.75,910.71 L193.11,909.19 L192.81,905.63 L195.23,901.32 L193.26,896.50 L195.54,895.48 L197.58,891.25 L197.20,889.05 L199.78,887.61 L199.78,885.16 L198.49,884.06 L196.52,882.87 L196.98,878.39 L195.31,877.03 L188.72,877.88 L187.43,879.91 L185.61,878.73 L183.57,873.82 L177.66,876.53 L179.02,881.69 L175.23,880.84 L173.64,877.88 L171.37,881.01 L170.38,880.76 L165.61,875.26 Z M103.18,741.82 L103.62,741.64 L90.53,739.45 L103.18,741.82 Z M215.77,116.28 L215.39,117.72 L220.54,107.23 L215.77,116.28 Z M413.82,136.34 L415.18,135.07 L417.68,128.04 L413.82,136.34 Z M341.32,109.43 L340.70,109.00 L332.60,112.73 L341.32,109.43 Z M345.60,113.46 L345.10,112.05 L343.83,111.17 L345.60,113.46 Z M347.45,122.80 L346.99,117.38 L346.77,116.76 L347.45,122.80 Z M310.25,201.40 L309.72,203.43 L311.76,197.68 L310.25,201.40 Z M308.81,206.82 L311.76,207.16 L311.00,206.65 L308.81,206.82 Z M331.16,230.00 L334.49,229.24 L328.51,230.34 L331.16,230.00 Z M333.04,236.04 L333.13,234.91 L332.47,234.20 L333.04,236.04 Z M314.79,277.81 L326.16,283.48 L321.08,280.35 L314.79,277.81 Z M335.17,355.57 L335.82,355.94 L334.63,353.90 L335.17,355.57 Z M312.58,393.29 L313.88,390.34 L313.55,389.81 L312.58,393.29 Z M307.97,431.13 L312.29,433.75 L305.69,428.53 L307.97,431.13 Z M352.22,468.10 L355.55,458.79 L355.48,456.90 L353.66,462.43 L352.22,468.10 Z M353.13,479.27 L355.78,477.07 L356.69,474.62 L353.13,479.27 Z M367.22,489.00 L367.74,488.81 L366.87,487.83 L367.22,489.00 Z M371.01,487.57 L370.33,487.39 L369.70,488.06 L371.01,487.57 Z M377.75,485.02 L374.49,485.45 L373.40,486.67 L377.75,485.02 Z M383.36,478.25 L378.81,480.20 L378.67,480.83 L383.36,478.25 Z M384.87,473.26 L384.95,470.89 L383.36,478.25 L384.87,473.26 Z M386.69,469.96 L380.48,470.72 L384.95,470.89 L386.69,469.96 Z M401.77,491.12 L398.59,485.79 L399.80,488.07 L401.77,491.12 Z M402.68,480.37 L402.54,479.82 L402.46,480.67 L402.68,480.37 Z M426.70,533.85 L430.03,534.52 L431.51,534.21 L426.70,533.85 Z M414.88,552.71 L418.14,548.14 L418.97,546.62 L414.88,552.71 Z M426.47,572.94 L426.71,573.22 L425.94,562.11 L426.47,572.94 Z M428.89,575.81 L420.56,580.30 L429.05,575.90 L431.32,577.59 L428.72,575.61 L428.89,575.81 Z M433.06,629.63 L434.15,629.93 L430.33,625.06 L433.06,629.63 Z M419.04,666.43 L419.31,667.22 L420.94,663.22 L419.04,666.43 Z M420.03,669.39 L423.74,671.34 L419.76,668.59 L420.03,669.39 Z M422.38,692.16 L422.15,697.91 L422.45,693.34 L423.39,691.26 L422.38,692.16 Z M467.46,723.89 L472.91,720.84 L468.37,722.79 L467.46,723.89 Z M470.93,725.70 L469.96,724.31 L467.46,723.89 L470.93,725.70 Z M227.96,133.29 L226.30,131.85 L228.62,136.10 L227.96,133.29 Z M222.59,156.22 L226.68,140.40 L225.77,142.17 L222.59,156.22 Z M204.48,195.48 L204.86,183.97 L204.10,188.71 L204.48,195.48 Z M205.03,227.07 L209.09,221.98 L205.54,225.18 L205.03,227.07 Z M204.10,232.29 L204.17,230.32 L203.02,234.62 L204.10,232.29 Z M196.60,491.28 L197.88,492.32 L199.86,489.42 L197.36,491.88 L196.60,491.28 Z M197.20,493.32 L197.81,492.42 L194.84,493.15 L197.20,493.32 Z M199.33,497.80 L196.60,496.95 L199.76,498.68 L199.33,497.80 Z M191.82,617.44 L192.58,620.23 L191.29,614.06 L191.14,619.39 L191.82,617.44 Z M195.08,646.72 L193.58,643.20 L194.25,645.62 L195.08,646.72 Z M203.16,653.53 L198.87,651.80 L202.13,653.74 L203.16,653.53 Z M192.66,686.82 L192.58,679.46 L192.10,687.15 L192.66,686.82 Z M187.72,689.68 L190.48,688.08 L188.79,688.35 L187.72,689.68 Z M201.51,695.44 L196.07,694.13 L200.16,695.79 L201.51,695.44 Z M184.70,753.84 L166.22,757.65 L165.08,758.50 L184.70,753.84 Z M239.03,757.73 L238.52,757.27 L236.98,761.54 L239.03,757.73 Z M287.97,775.67 L280.20,777.29 L295.93,775.58 L287.97,775.67 Z M302.59,777.70 L306.31,777.87 L295.93,775.58 L302.59,777.70 Z M306.41,785.31 L302.37,780.58 L306.38,785.31 L306.41,785.31 Z M221.45,214.94 L211.52,214.77 L202.73,215.70 L221.45,214.94 Z M79.46,486.89 L79.31,492.13 L80.20,485.21 L79.46,486.89 Z M114.85,452.79 L123.26,456.26 L125.56,456.14 L114.85,452.79 Z M128.13,456.94 L130.53,458.20 L135.15,459.13 L128.13,456.94 Z M141.01,456.85 L140.38,456.59 L135.15,459.13 L141.01,456.85 Z M159.02,475.12 L164.47,476.82 L162.81,475.80 L159.02,475.12 Z M208.04,845.39 L209.42,847.50 L209.48,847.17 L208.04,845.39 Z M205.54,852.94 L204.33,853.17 L201.29,858.50 L205.54,852.94 Z M152.96,622.01 L160.61,617.10 L152.05,621.73 L152.96,622.01 Z M129.92,777.36 L126.06,776.85 L130.69,778.00 L129.92,777.36 Z M132.35,779.39 L131.95,779.06 L133.86,782.78 L132.35,779.39 Z M154.47,762.64 L147.88,762.47 L157.12,763.23 L154.47,762.64 Z M157.53,763.50 L157.19,762.74 L157.12,763.23 L157.53,763.50 Z M159.78,764.50 L158.99,764.50 L161.97,766.53 L159.78,764.50 Z M188.04,770.68 L175.99,770.08 L182.58,770.51 L188.04,770.68 Z M203.46,784.40 L197.58,778.88 L199.86,782.01 L203.46,784.40 Z M115.60,820.60 L115.66,821.61 L117.57,819.67 L115.60,820.60 Z M175.38,812.14 L170.99,811.71 L166.67,808.67 L171.90,812.39 L175.38,812.14 Z M108.18,739.79 L111.51,740.05 L112.46,739.67 L108.18,739.79 Z M118.71,743.35 L126.73,744.76 L124.54,743.77 L118.71,743.35 Z M133.64,686.49 L130.96,689.72 L131.89,689.02 L133.64,686.49 Z M186.60,691.09 L181.75,697.15 L186.52,691.90 L186.60,691.09 Z M128.21,691.79 L125.45,691.48 L127.95,691.99 L128.21,691.79 Z M141.29,533.00 L139.14,532.63 L143.49,535.11 L141.29,533.00 Z M162.22,539.05 L153.79,538.75 L160.00,539.77 L162.22,539.05 Z M160.84,541.46 L166.52,545.61 L167.12,545.54 L160.00,539.77 L160.84,541.46 Z M163.11,535.45 L163.44,538.65 L164.17,538.41 L163.11,535.45 Z M178.72,517.35 L176.82,520.56 L180.69,515.57 L178.72,517.35 Z M75.37,575.47 L84.42,575.84 L83.25,575.39 L75.37,575.47 Z M107.88,575.31 L112.42,574.37 L113.02,573.62 L107.88,575.31 Z M114.50,573.14 L120.07,574.97 L115.38,572.85 L114.50,573.14 Z M161.93,597.41 L163.49,598.15 L166.67,598.66 L161.93,597.41 Z M110.68,594.60 L110.91,594.10 L105.38,592.99 L110.68,594.60 Z M113.18,586.05 L111.71,592.37 L113.26,589.01 L113.18,586.05 Z M96.59,521.07 L105.75,516.25 L98.03,520.22 L96.59,521.07 Z M127.35,511.85 L132.17,508.25 L131.82,507.95 L127.35,511.85 Z M133.33,509.24 L135.99,513.79 L134.39,510.15 L133.33,509.24 Z M171.62,512.70 L171.52,513.03 L172.26,513.47 L171.62,512.70 Z M170.53,493.99 L173.56,491.45 L173.59,491.27 L170.53,493.99 Z M127.97,353.17 L127.65,353.54 L126.74,356.84 L127.97,353.17 Z M149.72,443.86 L150.16,443.08 L149.55,443.56 L149.72,443.86 Z M151.19,441.30 L151.59,440.60 L150.76,437.22 L151.19,441.30 Z M158.79,435.02 L151.74,436.20 L150.76,437.22 L158.79,435.02 Z M84.84,414.71 L83.33,418.35 L83.00,420.25 L84.24,418.09 L84.84,414.71 Z M86.80,393.40 L92.72,388.90 L88.40,391.19 L86.80,393.40 Z M96.06,392.96 L97.40,393.64 L92.72,388.90 L96.06,392.96 Z M101.59,395.76 L103.20,395.44 L98.21,394.05 L101.59,395.76 Z M110.07,396.60 L111.82,395.76 L109.57,396.45 L110.07,396.60 Z M83.86,397.45 L83.10,406.25 L84.68,396.31 L83.86,397.45 Z M118.26,387.55 L117.72,388.30 L119.07,387.40 L118.26,387.55 Z M147.91,206.86 L149.54,207.89 L148.41,206.82 L147.91,206.86 Z M150.94,209.22 L153.03,212.82 L152.43,210.62 L150.94,209.22 Z M202.39,314.47 L202.66,312.75 L200.39,306.24 L202.39,314.47 Z M171.44,191.63 L171.22,192.09 L171.36,192.44 L171.44,191.63 Z M226.98,857.23 L227.21,853.68 L227.93,853.98 L226.77,851.66 L226.98,857.23 Z M231.53,853.68 L228.35,854.14 L229.71,854.70 L231.53,853.68 Z M256.15,816.11 L258.80,814.93 L260.32,813.74 L256.15,816.11 Z M274.71,807.99 L269.94,804.52 L277.74,810.53 L274.71,807.99 Z M277.56,816.35 L278.65,814.34 L277.21,816.03 L277.56,816.35 Z M258.27,856.73 L255.39,849.87 L254.60,849.56 L258.27,856.73 Z M216.98,838.03 L217.46,838.10 L217.32,837.57 L216.98,838.03 Z M205.77,834.73 L208.19,833.54 L208.24,833.33 L205.77,834.73 Z M219.55,834.56 L217.82,836.89 L219.18,836.25 L219.55,834.56 Z M266.99,264.03 L267.51,265.45 L270.85,267.82 L266.99,264.03 Z M319.03,485.70 L313.43,480.88 L319.57,487.26 L319.03,485.70 Z M332.57,529.78 L332.82,530.46 L335.78,532.66 L332.57,529.78 Z M314.34,585.80 L312.82,589.27 L312.83,591.21 L314.34,585.80 Z M316.46,607.88 L317.06,612.87 L318.43,617.44 L316.46,607.88 Z M341.01,626.83 L338.73,631.66 L345.02,618.80 L341.01,626.83 Z M336.16,660.26 L333.43,660.26 L347.94,663.13 L336.16,660.26 Z M343.13,693.17 L345.11,697.66 L344.72,695.88 L343.13,693.17 Z M345.47,699.30 L342.52,700.45 L345.55,699.69 L345.47,699.30 Z M336.54,706.03 L339.19,704.34 L342.52,700.45 L336.54,706.03 Z M327.66,741.57 L327.44,742.42 L330.55,750.45 L327.66,741.57 Z M288.54,286.87 L290.85,285.68 L293.65,282.29 L288.54,286.87 Z M289.26,514.30 L289.71,512.61 L287.59,515.91 L289.26,514.30 Z M235.01,617.36 L233.97,618.66 L236.10,617.33 L235.01,617.36 Z M274.11,667.96 L262.74,665.42 L266.38,667.03 L274.11,667.96 Z M291.28,672.10 L286.08,672.10 L291.23,672.36 L291.28,672.10 Z M291.76,669.14 L291.76,670.21 L293.44,667.95 L291.76,669.14 Z M298.52,660.37 L299.79,663.47 L299.49,661.02 L298.52,660.37 Z M295.70,658.48 L297.75,657.77 L291.83,658.73 L297.13,659.44 L295.70,658.48 Z M280.47,732.01 L278.50,734.80 L278.67,736.17 L280.47,732.01 Z M278.85,737.53 L279.11,739.54 L280.67,740.88 L278.85,737.53 Z M287.36,748.93 L288.96,758.58 L289.03,754.68 L287.36,748.93 Z M244.33,699.69 L243.88,696.72 L243.46,696.62 L244.33,699.69 Z M297.52,679.21 L297.99,678.72 L296.53,678.96 L297.52,679.21 Z M303.58,678.45 L309.64,676.84 L301.03,678.23 L303.58,678.45 Z M296.30,624.38 L294.11,624.97 L306.53,622.77 L296.30,624.38 Z M254.86,580.79 L253.19,581.57 L254.86,580.79 L254.86,580.79 Z M262.44,525.89 L264.41,523.18 L261.66,526.07 L262.44,525.89 Z M288.29,562.62 L289.11,562.44 L293.05,556.52 L288.29,562.62 Z M257.68,583.26 L257.25,583.53 L257.44,583.77 L257.68,583.26 Z M259.26,425.71 L258.12,422.24 L259.04,426.96 L259.26,425.71 Z M293.12,428.49 L289.41,427.91 L291.15,428.84 L293.12,428.49 Z M240.24,474.45 L243.42,479.61 L246.60,483.50 L240.24,474.45 Z M254.33,483.08 L258.73,474.62 L258.97,472.51 L254.33,483.08 Z M244.18,490.61 L244.03,499.32 L245.00,488.19 L244.18,490.61 Z M221.67,398.45 L221.98,398.55 L222.03,398.31 L221.67,398.45 Z M222.30,396.96 L222.59,395.59 L220.99,389.58 L222.30,396.96 Z M286.57,288.63 L282.59,292.19 L286.08,289.99 L286.57,288.63 Z M294.04,146.65 L293.88,149.20 L295.47,153.09 L294.04,146.65 Z M272.97,177.46 L280.77,182.96 L271.68,176.05 L272.97,177.46 Z M297.74,190.32 L307.97,197.26 L299.41,190.74 L297.74,190.32 Z M252.44,157.91 L256.00,160.53 L252.08,157.09 L252.44,157.91 Z M269.41,173.56 L269.87,174.07 L271.76,170.60 L269.41,173.56 Z M394.35,649.00 L396.39,644.69 L392.45,650.61 L394.35,649.00 Z M392.75,680.65 L395.10,680.31 L396.85,680.06 L392.75,680.65 Z M394.95,724.56 L398.13,726.68 L399.19,726.26 L394.95,724.56 Z M413.62,707.95 L414.50,707.64 L414.70,706.61 L413.62,707.95 Z M368.74,710.35 L370.25,708.49 L366.22,712.18 L368.74,710.35 Z M388.28,684.62 L391.31,683.19 L384.57,686.15 L388.28,684.62 Z M370.10,674.39 L369.65,674.37 L374.87,679.97 L370.10,674.39 Z M366.06,582.29 L365.33,582.33 L364.98,582.62 L366.06,582.29 Z M370.63,580.89 L371.02,581.35 L372.22,579.79 L370.52,580.93 L370.63,580.89 Z M360.64,537.05 L362.60,548.06 L362.07,541.88 L360.64,537.05 Z M401.85,554.41 L399.19,552.88 L400.48,554.15 L401.85,554.41 Z M371.84,607.92 L367.22,607.71 L367.90,613.89 L367.68,608.47 L371.84,607.92 Z M372.91,591.43 L373.61,589.83 L373.28,589.86 L372.91,591.43 Z M382.50,590.44 L383.43,590.87 L384.76,589.75 L382.50,590.44 Z M376.46,608.14 L375.67,608.10 L378.51,609.77 L376.46,608.14 Z M395.18,623.11 L384.76,614.78 L396.16,624.89 L395.18,623.11 Z M395.03,626.92 L395.32,627.35 L396.16,624.89 L395.03,626.92 Z M371.92,582.41 L372.96,581.72 L371.29,581.67 L371.92,582.41 Z M382.07,589.10 L382.60,587.83 L381.54,583.34 L382.07,589.10 Z M353.36,589.27 L354.42,592.74 L353.88,588.38 L353.36,589.27 Z M354.80,586.81 L354.24,587.75 L357.22,587.24 L354.80,586.81 Z M383.06,573.70 L382.80,574.27 L385.40,572.43 L383.06,573.70 Z M351.61,512.61 L352.52,512.18 L350.40,512.18 L355.17,515.82 L351.61,512.61 Z M346.16,525.98 L341.39,530.12 L341.07,530.70 L346.16,525.98 Z M347.60,535.20 L348.73,531.98 L348.46,529.77 L347.60,535.20 Z M354.34,511.34 L354.27,509.48 L353.66,511.66 L354.34,511.34 Z M404.35,282.21 L404.31,281.82 L403.49,282.21 L404.35,282.21 Z M443.06,369.02 L451.02,368.09 L443.74,366.82 L447.68,367.75 L443.06,369.02 Z M456.32,485.87 L453.67,492.05 L453.72,492.32 L456.32,485.87 Z M458.29,504.06 L454.42,495.80 L454.73,497.38 L458.29,504.06 Z M491.97,508.65 L489.81,504.23 L489.21,504.08 L491.94,508.65 L491.97,508.65 Z M499.14,503.64 L497.31,507.36 L499.28,505.08 L499.14,503.64 Z M504.28,493.15 L499.76,502.37 L501.02,501.61 L504.28,493.15 Z M505.11,465.56 L508.37,470.13 L508.91,470.63 L505.11,465.56 Z M518.90,476.31 L512.27,473.79 L513.60,475.04 L518.90,476.31 Z M534.13,494.92 L529.06,494.33 L534.52,495.49 L534.13,494.92 Z M535.42,496.78 L535.00,496.17 L534.59,501.27 L535.42,496.78 Z M573.91,509.82 L571.41,510.07 L574.59,510.40 L573.91,509.82 Z M599.97,525.38 L599.14,529.53 L599.71,529.98 L599.97,525.38 Z M611.61,538.43 L604.55,533.82 L610.35,538.41 L611.61,538.43 Z M603.53,551.82 L601.79,550.94 L601.22,551.23 L603.53,551.82 Z M598.91,553.31 L600.17,551.78 L597.09,553.39 L598.91,553.31 Z M589.06,570.82 L587.85,569.38 L586.49,569.47 L589.06,570.82 Z M588.24,576.57 L588.99,575.47 L589.06,570.82 L588.24,576.57 Z M585.80,580.13 L587.11,578.22 L579.44,585.97 L585.80,580.13 Z M571.18,624.04 L574.59,619.64 L565.50,629.29 L571.18,624.04 Z M596.26,639.78 L595.27,641.47 L595.14,641.33 L595.50,642.13 L596.26,639.78 Z M593.76,647.48 L594.01,646.70 L593.53,647.75 L593.76,647.48 Z M608.86,664.67 L608.23,665.50 L608.89,666.39 L608.86,664.67 Z M613.38,679.38 L613.34,678.36 L609.06,685.56 L613.38,679.38 Z M597.78,700.36 L597.64,699.63 L596.37,700.52 L597.78,700.36 Z M590.88,706.62 L594.77,701.65 L593.84,702.31 L590.88,706.62 Z M588.81,719.23 L587.17,708.82 L588.76,719.15 L588.81,719.23 Z M582.71,721.43 L585.33,719.88 L583.99,720.16 L582.71,721.43 Z M573.30,727.02 L579.09,723.58 L578.23,723.55 L573.30,727.02 Z M382.07,335.43 L379.19,332.72 L371.69,327.98 L382.07,335.43 Z M393.44,336.97 L392.98,336.61 L391.31,338.81 L393.44,336.97 Z M395.52,335.77 L395.97,334.03 L395.03,335.60 L395.52,335.77 Z M399.27,329.84 L399.80,327.64 L397.38,331.69 L399.27,329.84 Z M352.30,425.20 L351.13,425.40 L352.80,426.24 L352.30,425.20 Z M401.77,411.58 L401.43,410.88 L399.72,421.14 L401.77,411.58 Z M411.47,420.13 L402.93,422.23 L403.97,422.58 L411.47,420.13 Z M373.81,464.63 L377.15,455.83 L361.92,462.43 L376.46,456.59 L373.81,464.63 Z M401.62,457.52 L403.89,469.62 L403.59,464.89 L401.62,457.52 Z M403.21,433.83 L403.52,433.96 L401.32,432.23 L403.21,433.83 Z M407.15,435.40 L409.80,436.46 L409.20,435.36 L407.15,435.40 Z M414.27,453.46 L415.00,438.90 L414.57,439.08 L414.27,453.46 Z M381.96,363.88 L381.16,364.28 L377.90,363.60 L384.57,365.21 L381.96,363.88 Z M390.57,369.00 L386.69,373.59 L389.95,370.80 L390.57,369.00 Z M402.55,376.15 L404.65,374.94 L399.35,375.45 L402.68,375.87 L402.55,376.15 Z M411.62,358.70 L409.64,354.82 L409.88,359.37 L410.33,357.34 L411.62,358.70 Z M355.57,185.58 L361.39,183.04 L355.86,184.82 L356.01,179.99 L355.57,185.58 Z M373.93,227.94 L367.37,227.80 L373.06,228.31 L373.93,227.94 Z M350.37,288.57 L353.27,293.54 L351.46,288.98 L350.37,288.57 Z M353.17,272.69 L353.51,272.39 L353.66,265.96 L353.17,272.69 Z M362.75,261.90 L355.10,264.44 L353.66,265.96 L362.75,261.90 Z M357.22,301.50 L357.06,301.52 L357.58,301.57 L357.19,301.47 L357.22,301.50 Z M366.62,306.24 L363.81,303.19 L362.25,302.79 L366.62,306.24 Z M395.56,294.98 L395.52,293.90 L392.83,298.28 L395.56,294.98 Z M356.01,300.49 L355.13,298.25 L355.40,299.98 L356.01,300.49 Z M340.63,228.48 L336.54,227.38 L336.15,227.73 L340.63,228.48 Z M352.98,239.39 L355.17,239.31 L351.46,239.22 L352.98,239.39 Z M394.90,147.85 L394.50,147.33 L393.44,146.97 L394.90,147.85 Z M396.01,165.53 L396.66,166.39 L396.92,162.56 L396.01,165.53 Z M399.65,173.31 L402.07,176.27 L399.10,171.25 L399.65,173.31 Z M407.30,134.13 L407.05,134.33 L407.91,134.56 L407.30,134.13 Z M517.31,704.51 L506.63,697.57 L514.05,703.24 L522.92,707.13 L517.31,704.51 Z M529.66,669.56 L533.30,666.86 L533.26,666.48 L529.66,669.56 Z M456.17,549.33 L452.31,546.96 L448.59,546.20 L456.17,549.33 Z M487.99,555.93 L486.63,544.76 L487.01,549.84 L487.99,555.93 Z M480.91,519.13 L484.66,518.22 L481.55,517.26 L482.91,518.45 L480.91,519.13 Z M515.03,564.89 L515.34,564.56 L514.43,558.64 L515.03,564.89 Z M552.67,563.93 L553.23,563.88 L558.23,571.58 L552.54,561.94 L552.67,563.93 Z M553.53,546.45 L554.21,544.25 L553.53,546.46 L553.53,546.45 Z M448.58,632.23 L447.90,631.44 L448.21,632.33 L448.58,632.23 Z M458.90,626.50 L450.34,631.71 L452.53,631.07 L458.90,626.50 Z M494.36,594.17 L494.36,593.63 L492.54,594.68 L487.54,598.32 L494.36,594.17 Z M518.22,604.50 L513.60,600.44 L518.25,605.55 L518.22,604.50 Z M518.30,607.29 L518.27,606.37 L512.46,611.43 L518.30,607.29 Z M533.14,665.46 L532.47,659.49 L532.47,664.40 L533.14,665.46 Z M492.61,656.36 L488.37,657.04 L487.85,657.61 L492.61,656.36 Z M556.86,573.02 L557.39,578.94 L557.90,579.62 L556.86,573.02 Z M536.10,605.68 L534.36,605.60 L533.25,606.92 L536.10,605.68 Z M522.24,518.95 L517.92,518.11 L519.21,519.21 L522.24,518.95 Z M524.51,520.90 L521.63,517.94 L522.24,518.95 L524.51,520.90 Z M521.86,531.90 L521.17,533.81 L521.63,536.21 L521.86,531.90 Z M515.42,539.94 L522.46,536.13 L528.22,537.31 L524.51,535.71 L521.63,536.21 L515.42,539.94 Z M531.94,528.18 L531.65,529.24 L536.33,525.81 L534.66,526.40 L536.39,525.00 L535.95,524.88 L531.94,528.18 Z M535.57,527.41 L536.06,527.36 L536.33,525.81 L535.57,527.41 Z M537.01,533.51 L539.80,537.79 L539.80,537.79 L535.27,530.55 L537.01,533.51 Z M525.50,550.34 L525.83,549.09 L524.51,550.77 L522.92,552.54 L525.50,550.34 Z M475.11,524.74 L472.46,526.74 L474.50,525.89 L475.11,524.74 Z M456.70,520.22 L460.11,521.24 L452.91,518.28 L443.82,513.20 L447.15,515.99 L456.70,520.22 Z M523.53,514.13 L519.81,516.41 L522.09,515.06 L525.04,514.39 L523.53,514.13 Z M537.76,523.88 L538.00,523.69 L538.91,521.32 L537.76,523.88 Z M454.49,513.46 L453.75,514.38 L453.70,514.59 L454.49,513.46 Z M608.76,461.50 L608.61,472.50 L609.44,476.99 L608.76,461.50 Z M610.73,477.83 L614.82,480.45 L609.44,476.99 L610.73,477.83 Z M608.62,479.82 L603.91,482.06 L606.87,481.47 L608.62,479.82 Z M536.10,435.53 L532.84,432.14 L537.54,437.73 L536.10,435.53 Z M471.85,452.79 L463.90,449.23 L470.64,452.53 L471.85,452.79 Z M481.70,451.81 L484.88,445.09 L481.25,451.43 L481.70,451.81 Z M468.82,469.54 L473.60,464.89 L473.44,464.38 L468.82,469.54 Z M473.44,462.77 L471.32,458.96 L473.33,462.97 L476.63,460.23 L473.44,462.77 Z M558.83,450.59 L560.10,450.46 L554.89,447.20 L558.83,450.59 Z M562.92,454.82 L561.79,451.52 L560.85,450.93 L562.92,454.82 Z M429.58,300.06 L430.64,299.13 L422.83,301.33 L429.58,300.06 Z M447.31,322.06 L442.61,325.09 L445.11,323.75 L447.31,322.06 Z M448.44,319.52 L448.36,319.71 L456.62,320.03 L448.44,319.52 Z M425.77,273.15 L423.55,273.15 L425.03,273.83 L425.77,273.15 Z M712.26,704.85 L708.70,703.41 L710.74,704.68 L710.61,705.11 L712.26,704.85 Z M713.77,709.25 L714.98,711.87 L716.73,713.22 L713.77,709.25 Z M754.14,680.89 L754.99,680.39 L755.82,677.86 L754.14,680.89 Z M763.40,688.69 L766.88,691.06 L772.49,692.41 L763.40,688.69 Z M774.46,694.52 L776.96,691.82 L781.51,685.22 L774.46,694.52 Z M784.46,756.71 L784.16,758.75 L785.36,760.95 L784.46,756.71 Z M786.11,762.32 L787.11,764.16 L788.12,764.43 L786.11,762.32 Z M808.25,776.01 L808.78,783.96 L809.17,784.30 L808.25,776.01 Z M809.62,788.36 L809.42,786.57 L808.33,790.90 L811.66,786.33 L809.62,788.36 Z M881.63,673.61 L881.82,674.39 L882.77,675.32 L881.63,673.61 Z M660.89,810.53 L656.95,810.70 L660.97,810.70 L660.89,810.53 Z M687.41,790.81 L694.15,792.93 L694.69,792.74 L687.41,790.81 Z M750.79,831.94 L750.37,832.10 L749.00,834.56 L750.79,831.94 Z M783.63,870.52 L784.99,876.86 L784.16,871.53 L783.63,870.52 Z M795.60,879.40 L802.04,881.52 L802.74,881.31 L795.60,879.40 Z M740.90,846.57 L741.05,843.78 L740.83,843.48 L740.90,846.57 Z M677.18,767.97 L672.33,773.44 L673.92,772.20 L677.18,767.97 Z M668.65,776.31 L667.71,776.60 L667.14,777.49 L668.65,776.31 Z M887.27,663.39 L887.35,663.11 L880.38,668.38 L887.27,663.39 Z M598.99,627.93 L597.78,628.02 L600.43,628.27 L601.82,627.37 L598.99,627.93 Z M597.93,629.12 L600.50,630.30 L597.78,628.02 L597.93,629.12 Z M632.25,605.26 L635.05,608.56 L633.38,605.60 L637.70,603.14 L632.25,605.26 Z M687.78,597.30 L683.64,594.91 L683.64,594.91 L687.78,597.30 Z M698.32,597.64 L699.53,596.46 L694.38,600.35 L698.32,597.64 Z M712.25,597.69 L711.50,596.97 L710.94,597.43 L712.25,597.69 Z M732.56,619.22 L734.02,619.13 L725.21,614.48 L732.56,619.22 Z M745.83,615.42 L744.00,615.16 L743.30,615.69 L745.83,615.42 Z M624.07,630.73 L618.61,630.66 L619.44,631.07 L624.07,630.73 Z M681.42,643.59 L670.81,646.21 L683.84,643.67 L681.42,643.59 Z M717.79,639.19 L719.53,641.05 L722.64,643.16 L717.79,639.19 Z M743.32,650.78 L748.85,652.05 L744.00,650.78 L740.67,647.40 L743.32,650.78 Z M778.30,645.41 L778.22,643.27 L777.79,644.86 L778.30,645.41 Z M783.63,649.17 L779.66,646.89 L781.28,648.66 L783.63,649.17 Z M674.98,658.90 L672.47,657.31 L672.71,658.31 L674.98,658.90 Z M671.96,656.99 L671.65,656.79 L671.52,657.33 L671.96,656.99 Z M649.30,631.23 L650.51,630.56 L647.55,630.13 L652.78,634.20 L649.30,631.23 Z M650.20,628.95 L654.60,627.93 L649.79,628.50 L650.51,630.56 L650.20,628.95 Z M649.73,628.32 L652.33,624.13 L649.45,627.51 L649.73,628.32 Z M595.69,581.48 L595.43,583.09 L595.56,583.81 L595.69,581.48 Z M617.02,576.24 L613.38,584.36 L618.58,574.44 L617.02,576.24 Z M620.50,569.47 L620.21,571.34 L622.17,567.61 L620.50,569.47 Z M629.14,581.74 L630.28,581.75 L629.67,581.40 L631.42,579.87 L629.14,581.74 Z M656.42,587.32 L656.01,589.12 L656.49,589.35 L656.42,587.32 Z M613.97,592.17 L612.53,593.49 L614.14,592.90 L613.97,592.17 Z M610.66,599.67 L604.67,600.77 L611.26,599.85 L610.66,599.67 Z M717.38,595.63 L716.65,595.95 L715.06,598.40 L717.38,595.63 Z M634.14,536.98 L646.87,537.99 L637.25,536.98 L634.14,536.98 Z M661.34,540.28 L675.59,548.48 L665.81,542.48 L661.34,540.28 Z M609.97,558.13 L606.11,553.14 L605.96,553.06 L609.97,558.13 Z M704.15,541.04 L700.97,543.07 L705.16,541.31 L704.15,541.04 Z M611.41,484.09 L612.17,486.04 L611.64,482.65 L611.41,484.09 Z" /></g></svg>