<svg xmlns="http://www.w3.org/2000/svg" viewBox="0 0 1000 1000" width="1000" height="1000"><g fill="#cccccc" stroke="#222" stroke-width="2"><path d="M605.14,954.36 L602.87,957.27 L602.19,960.63 L598.95,963.42 L595.82,964.62 L585.96,963.23 L578.67,960.69 L573.89,962.66 L570.03,962.66 L564.45,959.17 L564.39,949.74 L562.80,946.38 L558.08,941.88 L550.67,939.22 L547.24,934.47 L543.87,932.76 L540.93,932.26 L533.27,934.73 L528.80,932.38 L524.57,927.44 L523.40,924.34 L519.73,922.19 L517.16,922.63 L516.11,924.78 L516.66,926.49 L515.26,927.95 L510.05,928.71 L504.35,922.00 L502.14,915.60 L492.65,912.43 L492.04,910.22 L489.58,909.14 L490.44,902.87 L491.73,900.59 L490.69,897.36 L486.89,896.85 L482.48,893.49 L479.41,888.17 L480.58,885.13 L480.03,880.07 L481.62,878.42 L480.70,875.82 L485.91,868.92 L486.15,865.37 L487.44,863.92 L486.83,862.02 L486.03,853.85 L483.34,849.79 L479.78,846.94 L477.58,839.53 L476.35,838.08 L482.35,830.35 L483.09,827.25 L486.34,825.54 L494.30,825.28 L489.09,825.35 L485.23,809.96 L483.03,807.23 L484.68,805.40 L490.07,804.45 L492.40,801.72 L494.24,801.66 L496.51,797.99 L502.39,794.38 L504.47,789.50 L507.66,787.54 L509.13,783.17 L512.99,782.72 L514.77,780.76 L514.95,768.47 L514.28,773.54 L510.42,772.34 L504.29,772.72 L500.25,771.26 L492.53,773.86 L488.48,773.60 L483.03,768.22 L477.51,767.71 L473.41,765.94 L466.36,766.89 L463.42,765.37 L463.48,763.15 L462.38,762.20 L456.68,761.63 L452.64,762.46 L448.78,760.87 L446.15,761.89 L440.08,761.32 L436.47,761.95 L435.85,766.64 L427.03,776.77 L418.15,776.90 L413.37,776.33 L404.67,771.89 L395.97,772.46 L382.30,774.62 L377.40,777.59 L375.50,777.15 L372.56,778.42 L368.70,777.15 L363.13,780.19 L360.37,780.00 L355.78,775.82 L336.54,770.69 L334.09,767.78 L323.61,761.44 L322.45,761.82 L322.69,763.15 L320.91,762.39 L319.44,763.72 L315.83,762.33 L315.64,763.53 L310.99,765.56 L309.89,761.06 L304.13,759.23 L298.98,760.30 L297.20,757.58 L295.30,758.15 L288.32,766.51 L287.16,766.76 L285.50,763.53 L268.22,762.96 L267.55,758.21 L268.71,749.79 L258.91,743.46 L258.73,739.02 L252.72,733.45 L255.23,731.30 L256.15,728.51 L256.52,725.85 L254.93,721.80 L264.42,716.22 L268.84,719.33 L271.47,716.29 L274.78,716.03 L277.90,717.93 L278.27,714.45 L276.86,710.78 L276.92,707.74 L279.37,709.76 L281.70,707.55 L284.52,708.50 L286.36,698.93 L282.68,696.08 L279.68,688.55 L277.17,687.98 L277.84,682.28 L276.07,680.57 L276.37,679.24 L272.94,677.21 L272.76,674.17 L269.14,673.16 L267.18,668.34 L260.99,663.97 L256.15,662.01 L256.09,660.17 L257.62,660.11 L257.75,657.26 L249.72,649.03 L238.81,639.21 L238.26,625.02 L237.34,622.42 L238.69,616.79 L236.79,613.18 L238.14,608.68 L241.39,603.74 L248.80,603.80 L251.25,602.54 L254.50,598.80 L257.38,596.77 L259.34,597.15 L261.06,598.48 L263.14,602.41 L266.32,602.47 L267.24,604.75 L271.72,605.96 L282.50,594.68 L283.97,591.26 L283.05,589.87 L283.97,586.89 L288.99,579.48 L292.55,579.17 L297.45,574.73 L301.00,576.82 L290.46,568.78 L289.85,565.74 L286.91,561.24 L278.76,553.90 L282.99,551.24 L285.44,545.73 L277.90,537.24 L279.68,532.93 L280.48,522.86 L279.19,520.90 L278.27,514.63 L274.84,510.20 L274.41,507.66 L272.14,506.33 L271.90,503.17 L268.90,502.22 L269.02,498.23 L272.33,491.39 L272.51,486.70 L267.55,476.25 L269.51,473.84 L268.47,471.63 L268.84,467.00 L267.98,464.34 L264.42,465.04 L254.56,462.44 L250.09,455.22 L245.80,454.78 L244.82,453.83 L243.47,451.93 L243.41,449.40 L237.96,443.44 L228.15,442.11 L226.07,440.85 L224.11,438.12 L225.40,435.97 L228.46,433.94 L228.83,427.67 L225.89,425.20 L219.15,423.56 L215.72,414.56 L212.04,412.66 L210.08,410.76 L209.90,407.66 L211.31,404.24 L208.30,396.64 L205.98,395.31 L201.93,389.17 L201.38,384.35 L199.17,381.19 L197.89,380.49 L194.89,376.50 L190.60,373.02 L188.45,372.89 L184.96,368.90 L176.08,361.99 L171.36,362.75 L170.69,361.80 L168.72,361.93 L168.54,359.59 L166.70,357.94 L160.33,356.48 L166.15,350.66 L167.62,347.11 L165.23,343.69 L167.81,341.47 L172.95,340.02 L170.26,336.98 L172.52,334.00 L171.54,332.67 L163.70,328.68 L163.21,317.53 L164.74,313.48 L163.03,309.68 L162.84,306.64 L153.78,298.85 L151.39,295.37 L146.91,292.33 L142.99,291.76 L141.67,290.32 L141.83,290.74 L139.50,290.93 L137.11,292.71 L134.54,291.50 L132.15,291.88 L129.88,295.11 L127.31,294.86 L123.32,297.08 L120.69,295.11 L108.01,298.28 L105.31,297.39 L98.51,298.53 L89.75,297.65 L86.14,300.12 L77.68,302.90 L63.83,293.85 L63.77,285.04 L61.20,283.08 L54.40,282.32 L54.46,277.57 L50.05,275.92 L47.66,270.86 L44.23,270.54 L42.27,266.87 L42.39,264.27 L36.51,260.53 L34.92,260.53 L35.10,258.00 L34.06,255.66 L39.27,249.96 L40.74,246.79 L44.17,243.94 L47.35,243.05 L50.91,238.18 L54.15,232.79 L52.56,231.53 L52.93,229.94 L58.81,220.76 L55.01,217.85 L52.07,217.40 L49.31,208.35 L49.86,205.69 L46.25,202.52 L40.92,193.84 L44.84,188.27 L44.53,187.32 L40.80,187.00 L38.96,184.47 L29.65,181.11 L20.58,183.84 L19.23,178.39 L29.16,165.34 L28.11,162.11 L31.79,156.67 L32.65,150.21 L39.14,148.75 L41.35,146.79 L44.04,147.10 L44.35,143.68 L46.49,140.33 L46.43,137.92 L47.84,137.67 L47.60,135.39 L49.19,133.04 L48.33,128.80 L46.13,127.79 L45.58,125.70 L41.78,123.35 L42.33,121.83 L40.12,117.78 L40.80,114.93 L39.88,111.07 L40.98,107.39 L45.21,102.96 L47.35,97.32 L49.19,95.93 L51.58,95.80 L51.03,93.27 L53.72,90.16 L56.67,88.71 L58.20,85.48 L59.97,84.46 L60.89,83.26 L60.89,80.54 L62.12,79.21 L64.20,79.40 L65.49,74.39 L67.20,75.34 L67.63,74.77 L66.84,70.09 L69.59,68.19 L70.45,65.59 L73.70,64.45 L72.23,58.31 L72.84,56.34 L76.03,56.22 L80.56,52.48 L80.56,55.39 L84.79,55.71 L82.77,52.99 L85.71,52.73 L84.91,49.82 L86.75,48.43 L87.73,49.88 L86.07,51.02 L86.50,51.91 L90.55,50.64 L92.63,52.99 L94.71,52.67 L97.53,53.75 L100.72,58.24 L101.82,64.70 L103.47,67.93 L111.07,71.10 L112.85,76.42 L116.34,79.78 L124.43,82.06 L146.48,102.83 L147.34,104.48 L145.26,106.63 L145.50,109.93 L151.94,113.60 L153.10,117.46 L154.94,118.41 L158.37,118.60 L162.72,116.83 L164.01,117.46 L167.25,122.15 L170.19,123.67 L173.01,129.24 L175.65,131.90 L180.06,134.37 L185.08,140.58 L186.61,144.82 L191.58,149.13 L197.03,160.28 L199.97,163.89 L209.16,170.28 L212.47,176.36 L218.60,180.23 L224.11,184.98 L229.81,194.60 L234.65,196.57 L236.79,192.70 L238.81,192.83 L251.62,206.32 L254.56,209.30 L253.64,213.98 L254.25,214.93 L257.07,215.88 L259.71,212.40 L261.42,212.15 L263.26,214.17 L265.10,219.43 L269.14,220.57 L269.08,220.64 L272.63,221.14 L275.51,224.56 L276.13,226.52 L278.70,230.07 L284.77,233.54 L285.32,231.40 L287.40,229.88 L288.99,230.13 L289.79,232.86 L293.59,233.05 L294.94,232.22 L296.35,229.06 L299.65,227.66 L300.57,224.88 L301.80,224.31 L304.25,225.32 L306.39,224.69 L310.38,226.33 L310.56,224.37 L312.28,224.12 L314.36,222.09 L312.58,218.61 L312.52,215.95 L309.95,212.91 L312.34,209.49 L315.83,209.68 L315.95,208.79 L313.75,206.89 L315.64,205.37 L315.15,202.84 L312.89,200.68 L314.30,199.04 L312.70,197.45 L316.56,196.76 L316.63,195.74 L315.22,195.17 L315.89,194.29 L314.36,192.20 L311.91,191.63 L309.95,189.16 L312.46,187.38 L314.11,187.95 L315.40,187.19 L315.03,184.60 L316.32,182.38 L315.28,182.06 L315.46,179.59 L318.95,176.11 L319.57,170.03 L320.91,169.02 L323.18,163.76 L322.02,161.23 L322.02,159.64 L324.71,157.49 L325.08,153.18 L323.67,151.03 L325.82,147.04 L325.08,141.53 L326.67,139.38 L326.49,133.55 L330.90,125.06 L331.08,122.40 L326.37,120.50 L324.28,117.15 L328.63,108.09 L328.39,105.62 L330.90,99.86 L330.72,95.49 L334.45,91.30 L335.43,88.14 L338.13,86.49 L338.87,84.34 L343.77,79.71 L346.95,74.20 L349.59,74.14 L353.57,70.78 L363.68,74.96 L354.92,71.23 L354.73,68.82 L357.92,68.06 L361.66,64.70 L364.84,53.94 L368.27,50.90 L370.85,46.27 L373.97,45.20 L377.10,39.75 L382.49,38.93 L386.47,40.45 L386.78,39.81 L388.74,44.25 L392.78,43.30 L396.58,40.57 L400.44,40.64 L401.79,38.23 L405.95,37.15 L407.79,33.16 L414.10,34.37 L415.21,33.80 L414.96,32.91 L418.94,30.63 L423.29,34.05 L424.58,32.09 L427.70,30.50 L434.75,29.30 L438.73,27.02 L447.25,32.34 L446.21,31.20 L441.73,28.86 L447.19,25.82 L449.39,23.09 L454.17,21.19 L454.11,19.48 L455.95,19.36 L460.54,22.08 L464.16,19.23 L468.88,21.95 L470.04,21.64 L470.84,22.27 L471.02,26.26 L472.49,28.10 L469.43,34.68 L469.61,39.75 L469.79,41.97 L464.77,54.57 L463.85,60.14 L461.16,62.04 L462.81,61.41 L465.51,65.40 L465.02,68.63 L466.73,71.04 L469.73,72.81 L472.43,76.67 L472.98,79.02 L471.88,84.15 L465.38,88.64 L471.33,84.72 L476.84,85.10 L488.18,91.37 L488.79,89.91 L491.61,91.37 L495.53,91.62 L498.53,90.35 L503.06,90.16 L506.92,92.64 L512.07,95.80 L514.70,96.31 L515.99,99.98 L515.75,108.22 L512.31,112.59 L512.87,113.92 L511.52,116.26 L511.95,116.96 L515.50,118.98 L522.49,125.32 L528.55,127.47 L530.70,127.72 L539.52,125.38 L543.19,123.23 L546.20,123.80 L550.73,122.85 L558.08,136.21 L558.20,137.10 L555.32,139.50 L557.90,142.73 L559.06,147.29 L559.06,149.26 L561.21,151.92 L572.42,160.66 L581.00,163.76 L589.82,165.47 L588.59,167.05 L587.92,171.17 L590.86,175.16 L590.00,177.06 L590.25,180.67 L592.39,189.79 L588.35,191.25 L584.24,191.12 L582.59,189.47 L577.38,188.71 L564.58,190.80 L566.72,190.80 L566.84,196.31 L564.58,199.99 L566.11,205.37 L565.07,208.60 L561.21,214.05 L560.84,219.62 L562.55,221.14 L572.91,222.98 L576.40,232.41 L582.04,236.91 L585.04,240.33 L587.61,240.39 L589.57,242.36 L594.90,243.81 L595.70,246.47 L596.99,247.55 L593.00,250.27 L590.92,252.17 L590.68,254.90 L586.02,259.77 L582.65,260.91 L581.61,262.43 L581.73,268.89 L582.77,270.60 L587.37,277.32 L589.33,277.76 L592.76,285.11 L600.05,287.51 L607.40,288.02 L607.16,292.07 L611.20,297.39 L616.65,297.46 L622.84,302.33 L626.21,303.28 L631.42,307.53 L631.73,308.79 L635.28,308.60 L636.81,310.19 L643.61,312.91 L646.12,317.47 L641.59,324.50 L645.70,329.19 L647.41,330.14 L655.44,328.74 L659.30,330.01 L661.99,332.23 L662.67,334.95 L660.64,336.85 L658.01,337.48 L652.74,344.39 L657.27,347.93 L657.64,350.34 L661.13,353.82 L662.05,359.90 L660.52,362.82 L655.25,365.73 L653.11,368.77 L653.17,370.55 L649.06,373.90 L644.90,373.78 L639.51,378.02 L639.20,379.73 L640.85,382.01 L642.14,384.54 L643.12,391.45 L642.45,395.44 L644.53,400.44 L658.75,398.35 L661.32,394.23 L665.67,394.61 L665.55,386.76 L667.94,383.28 L670.57,381.69 L678.72,369.34 L682.88,369.34 L684.97,372.07 L691.95,372.00 L700.04,378.53 L702.06,376.50 L705.19,376.25 L708.86,379.35 L711.31,380.62 L713.76,380.62 L714.81,378.91 L717.19,378.53 L720.93,383.72 L722.03,394.61 L721.30,386.13 L727.18,388.28 L735.64,386.63 L738.70,386.89 L739.56,388.34 L745.62,388.41 L749.18,390.75 L750.22,392.33 L749.42,394.17 L749.85,397.34 L751.63,398.48 L753.71,405.32 L752.91,408.61 L753.77,411.02 L748.20,417.22 L749.48,420.90 L750.77,428.12 L753.71,429.64 L756.47,428.56 L756.59,430.14 L758.80,431.54 L761.00,436.41 L764.06,435.46 L767.31,436.35 L769.95,435.15 L770.25,444.14 L773.19,444.52 L774.24,446.42 L782.32,448.83 L784.53,448.64 L784.41,445.53 L786.61,444.58 L793.35,444.58 L796.60,446.10 L804.75,444.39 L805.79,441.80 L808.36,439.90 L808.36,437.24 L807.38,436.22 L813.75,439.07 L815.22,441.54 L818.10,439.52 L820.92,439.96 L825.03,436.67 L826.80,436.54 L827.97,443.19 L829.13,445.28 L830.79,446.04 L829.87,454.15 L832.75,456.87 L833.42,460.04 L834.89,460.29 L835.75,463.58 L833.48,467.89 L834.71,470.11 L833.36,474.03 L834.89,478.15 L836.97,486.13 L836.54,492.65 L840.59,495.69 L840.34,498.99 L841.69,500.19 L842.00,502.98 L846.41,506.33 L846.96,508.04 L841.81,515.01 L847.02,507.98 L849.78,508.87 L853.09,507.85 L855.11,508.36 L859.89,513.36 L862.95,513.87 L865.77,512.41 L869.14,516.66 L875.27,514.76 L879.31,516.72 L883.23,520.20 L882.92,525.84 L886.54,531.22 L894.01,532.55 L896.28,535.47 L899.47,534.01 L901.79,528.69 L913.25,525.21 L917.91,526.66 L915.52,533.25 L916.07,536.73 L914.60,540.91 L914.78,542.31 L917.11,544.46 L913.01,552.19 L914.84,555.99 L913.62,557.82 L916.62,557.95 L919.19,561.43 L914.72,571.57 L916.44,578.03 L915.40,584.11 L913.25,586.07 L911.05,594.11 L913.01,597.41 L917.85,598.99 L925.32,593.61 L931.08,594.56 L930.90,600.13 L933.35,601.78 L932.55,606.97 L928.08,612.61 L928.75,615.52 L927.83,617.61 L930.65,620.90 L932.98,620.65 L935.19,622.36 L939.35,621.92 L941.99,622.68 L942.35,624.77 L944.80,626.41 L945.42,631.23 L944.56,633.82 L947.38,640.03 L951.36,643.20 L955.34,643.77 L957.00,648.90 L960.43,654.09 L966.62,661.38 L973.78,662.64 L975.87,666.82 L979.36,669.29 L980.77,672.90 L977.46,673.66 L973.36,676.39 L968.21,689.12 L965.18,688.48 L966.74,689.18 L963.06,693.04 L968.88,699.06 L966.00,703.24 L965.27,706.72 L963.49,707.74 L961.59,711.16 L958.53,711.41 L956.87,712.93 L955.04,712.49 L953.87,713.50 L956.08,715.65 L959.57,716.35 L960.86,718.44 L965.94,721.23 L966.19,723.44 L964.47,725.47 L966.43,729.90 L970.23,728.51 L972.07,732.31 L975.50,735.73 L975.19,737.25 L972.50,742.13 L974.40,743.27 L977.22,743.08 L978.20,743.52 L978.50,748.21 L980.71,750.55 L980.77,753.15 L979.18,756.63 L978.32,755.62 L977.15,757.64 L975.44,757.33 L976.24,756.50 L975.68,755.43 L969.99,753.97 L970.17,754.73 L966.80,755.74 L964.04,755.55 L956.81,750.11 L955.40,752.83 L949.71,751.44 L946.34,749.85 L943.21,745.42 L938.19,743.14 L936.53,745.86 L934.45,746.50 L934.70,748.65 L931.88,746.18 L932.31,748.46 L933.29,748.65 L932.06,749.09 L931.39,751.31 L921.83,750.80 L919.01,751.69 L918.52,752.51 L920.60,753.91 L919.75,756.88 L914.23,757.20 L911.29,759.92 L907.06,760.94 L910.99,764.10 L910.62,767.78 L906.27,769.36 L904.74,770.94 L902.78,771.01 L901.00,774.87 L902.65,776.07 L901.86,778.16 L897.08,773.60 L895.48,773.60 L893.34,768.85 L891.07,768.50 L891.75,768.98 L888.81,772.15 L887.58,771.39 L884.76,773.73 L881.21,774.68 L880.78,777.85 L878.88,780.19 L871.83,781.52 L864.48,785.26 L862.40,787.41 L860.26,793.11 L861.24,801.28 L859.40,800.52 L855.84,801.91 L852.54,801.28 L850.76,799.06 L851.13,801.22 L854.13,804.45 L852.78,806.16 L853.64,812.74 L855.78,815.34 L856.58,819.01 L857.31,829.21 L850.57,833.96 L847.39,833.26 L844.02,835.16 L840.89,835.42 L838.32,839.66 L838.75,843.84 L844.69,847.96 L849.17,856.57 L847.51,858.47 L847.33,865.06 L848.80,867.15 L848.80,870.19 L850.39,874.68 L854.37,880.70 L853.70,883.80 L856.09,887.10 L856.09,889.88 L865.22,903.69 L865.59,909.58 L865.03,912.88 L861.54,916.04 L862.95,921.36 L862.77,924.85 L859.40,928.27 L854.92,938.34 L849.78,938.08 L845.49,940.81 L847.57,939.86 L848.55,942.07 L846.96,943.91 L848.68,946.70 L848.00,950.75 L854.19,956.13 L858.23,963.80 L856.40,968.61 L847.51,970.57 L842.49,967.34 L838.69,963.23 L838.02,959.36 L835.26,955.69 L829.62,956.20 L830.42,957.34 L829.50,959.55 L829.99,964.30 L824.11,964.30 L825.58,969.12 L827.35,971.52 L826.68,972.66 L818.23,973.74 L812.53,972.54 L808.48,973.04 L807.44,974.18 L806.03,975.64 L801.56,975.83 L798.13,977.73 L793.47,974.88 L791.15,976.02 L789.31,978.43 L783.24,980.77 L778.16,978.55 L777.11,977.10 L777.30,971.08 L778.16,969.75 L777.30,967.53 L772.89,967.91 L770.56,966.84 L770.56,963.67 L765.41,963.92 L764.25,959.43 L765.60,957.08 L764.92,954.23 L762.41,953.85 L756.65,945.56 L755.49,939.67 L757.20,931.88 L756.08,928.93 L755.98,929.98 L750.46,933.46 L741.89,934.03 L739.80,931.24 L737.41,930.10 L733.86,933.71 L729.45,933.33 L728.04,937.45 L728.77,943.34 L726.81,946.32 L726.69,948.34 L722.22,949.42 L717.81,949.04 L706.29,943.47 L701.69,944.35 L699.24,941.57 L696.30,940.87 L692.50,937.07 L689.69,936.69 L686.74,932.89 L683.80,932.57 L681.17,930.04 L678.35,923.77 L668.49,919.53 L665.97,920.10 L663.10,923.07 L662.73,926.94 L661.32,928.27 L655.99,925.67 L650.84,927.82 L643.80,927.76 L638.10,925.04 L632.89,924.72 L630.68,925.61 L625.78,931.18 L625.29,933.97 L622.23,936.69 L621.49,941.25 L619.29,942.96 L615.74,948.53 L610.10,950.62 L605.14,954.36 Z M167.62,314.43 L176.20,314.94 L164.74,313.48 L167.62,314.43 Z M446.15,35.44 L447.00,34.37 L447.25,32.34 L446.15,35.44 Z M570.94,166.31 L571.44,165.60 L572.42,160.66 L570.94,166.31 Z M558.76,183.08 L563.29,189.66 L564.58,190.80 L558.76,183.08 Z M948.91,713.50 L945.91,713.37 L956.08,715.65 L948.91,713.50 Z M876.43,761.06 L879.55,770.18 L881.21,774.68 L876.43,761.06 Z M358.41,612.61 L361.53,607.85 L360.62,608.24 L357.54,612.95 L358.41,612.61 Z M365.44,607.29 L364.05,606.78 L362.85,607.29 L365.44,607.29 Z M448.17,615.27 L446.15,609.88 L447.83,615.50 L448.17,615.27 Z M506.25,611.28 L508.95,617.93 L506.22,609.81 L506.25,611.28 Z M513.78,622.90 L513.66,621.98 L513.43,621.78 L513.78,622.90 Z M515.01,626.86 L521.38,629.96 L514.83,626.29 L515.01,626.86 Z M524.02,637.12 L523.40,632.94 L523.39,632.92 L524.02,637.12 Z M570.27,572.01 L569.66,565.74 L569.54,569.09 L570.09,570.17 L568.99,575.87 L570.27,572.01 Z M561.69,539.35 L562.06,542.56 L563.47,544.97 L561.69,539.35 Z M560.41,535.34 L558.63,533.38 L560.92,536.95 L560.41,535.34 Z M557.47,483.72 L555.69,479.32 L555.82,479.80 L557.47,483.72 Z M557.65,432.04 L557.98,431.53 L554.65,432.68 L557.65,432.04 Z M562.25,426.98 L563.84,424.44 L561.52,427.45 L562.25,426.98 Z M577.26,436.60 L580.19,436.45 L576.09,436.10 L577.26,436.60 Z M604.89,462.89 L600.97,462.38 L605.44,463.20 L604.76,462.70 L604.89,462.89 Z M659.35,484.07 L658.75,484.29 L656.29,488.73 L659.35,484.07 Z M669.08,438.78 L669.22,437.30 L668.73,438.44 L669.08,438.78 Z M669.96,439.64 L674.43,438.19 L669.43,439.13 L669.96,439.64 Z M694.59,414.94 L688.58,414.12 L691.77,415.01 L694.59,414.94 Z M710.33,478.09 L708.13,475.74 L706.47,474.86 L710.33,478.09 Z M684.36,534.64 L677.80,528.88 L676.71,528.25 L684.36,534.64 Z M705.92,594.81 L709.97,588.98 L704.94,595.51 L705.92,594.81 Z M700.71,591.39 L701.82,593.16 L701.44,593.47 L704.94,595.51 L700.71,591.39 Z M695.28,599.04 L694.71,598.42 L694.02,598.48 L695.28,599.04 Z M700.45,612.48 L694.71,612.54 L696.67,613.11 L700.45,612.48 Z M721.67,628.44 L721.01,627.89 L726.14,635.66 L721.67,628.44 Z M745.99,642.38 L743.60,640.10 L746.72,643.48 L745.99,642.38 Z M781.53,636.55 L781.71,640.86 L782.02,643.20 L781.53,636.55 Z M780.27,646.49 L780.97,645.86 L782.02,643.20 L780.27,646.49 Z M773.68,652.83 L777.91,650.93 L775.03,651.69 L773.68,652.83 Z M774.30,654.35 L777.48,657.51 L773.68,652.83 L774.30,654.35 Z M797.09,663.53 L794.15,665.94 L790.10,670.18 L797.09,663.53 Z M795.25,685.44 L783.36,678.41 L783.03,678.37 L795.25,685.44 Z M771.78,681.26 L776.20,680.12 L781.17,678.12 L780.06,677.97 L771.78,681.26 Z M778.24,701.39 L777.18,699.88 L777.18,700.90 L778.24,701.39 Z M779.14,702.67 L778.46,701.71 L779.32,705.27 L779.14,702.67 Z M782.45,708.05 L781.46,706.15 L782.45,709.15 L782.45,708.05 Z M782.45,710.97 L782.45,710.55 L778.10,713.82 L782.45,710.97 Z M769.33,744.79 L771.60,737.31 L769.82,741.18 L769.33,744.79 Z M776.62,759.67 L772.27,755.30 L775.03,758.53 L776.62,759.67 Z M780.61,758.78 L784.53,757.45 L785.05,756.60 L776.62,759.67 L780.61,758.78 Z M805.76,731.78 L803.95,728.76 L804.44,731.36 L804.75,730.16 L805.76,731.78 Z M811.72,787.52 L813.69,785.00 L812.22,785.89 L811.72,787.52 Z M809.77,790.01 L810.20,789.46 L809.24,790.11 L809.77,790.01 Z M798.62,881.90 L800.83,881.02 L797.52,881.97 L798.62,881.90 Z M635.92,545.17 L639.45,550.67 L636.08,545.28 L635.92,545.17 Z M626.40,584.17 L625.30,583.97 L630.19,587.40 L626.40,584.17 Z M600.30,649.66 L601.28,653.14 L602.02,653.57 L600.30,649.66 Z M619.23,664.99 L620.27,673.92 L619.40,664.80 L619.23,664.99 Z M618.23,675.38 L618.06,675.50 L616.78,681.01 L618.23,675.38 Z M621.56,747.07 L617.45,740.35 L620.27,745.74 L621.64,748.29 L621.56,747.07 Z M598.60,743.11 L595.74,743.04 L597.66,743.71 L598.60,743.11 Z M592.33,760.49 L595.52,765.56 L596.29,765.75 L592.33,760.49 Z M595.39,783.87 L595.09,784.31 L595.19,784.75 L595.39,783.87 Z M595.30,785.25 L595.39,785.64 L599.32,786.21 L595.30,785.25 Z M602.50,796.15 L606.91,796.21 L606.18,795.83 L602.50,796.15 Z M610.25,800.25 L607.83,800.14 L609.73,800.71 L610.25,800.25 Z M608.51,815.66 L612.55,815.66 L611.51,815.40 L608.51,815.66 Z M615.27,816.32 L615.99,816.75 L615.92,816.48 L615.27,816.32 Z M618.64,819.78 L621.31,819.33 L618.68,819.27 L618.64,819.78 Z M624.37,820.72 L623.95,824.20 L624.37,823.95 L624.56,820.15 L621.31,819.33 L624.37,820.72 Z M622.42,815.59 L621.49,816.73 L621.31,819.33 L622.42,815.59 Z M634.05,824.08 L632.58,828.45 L635.22,822.81 L634.05,824.08 Z M649.19,814.64 L650.72,815.59 L650.98,815.59 L649.19,814.64 Z M658.62,811.90 L668.30,815.21 L658.62,811.90 L658.62,811.90 Z M687.42,820.91 L690.91,824.65 L689.26,822.81 L687.42,820.91 Z M691.83,830.16 L688.55,835.75 L689.26,835.04 L691.83,830.16 Z M701.94,875.25 L707.28,876.68 L706.96,876.14 L701.94,875.25 Z M708.49,878.73 L708.73,879.48 L708.84,879.32 L708.49,878.73 Z M706.23,883.11 L708.29,886.22 L708.00,884.75 L706.23,883.11 Z M710.90,890.14 L712.54,892.61 L711.93,891.28 L710.90,890.14 Z M707.58,896.85 L711.62,894.00 L712.54,892.61 L707.58,896.85 Z M702.74,861.13 L702.00,860.83 L704.82,866.20 L702.74,861.13 Z M362.02,698.93 L362.27,696.72 L360.06,702.23 L362.02,698.93 Z M387.70,670.24 L384.81,668.53 L384.94,668.72 L387.70,670.24 Z M388.92,673.92 L389.74,674.29 L387.70,670.24 L388.92,673.92 Z M392.79,676.83 L392.35,675.63 L391.07,676.89 L392.79,676.83 Z M410.29,702.77 L410.06,702.35 L407.06,700.33 L410.29,702.77 Z M414.09,699.02 L413.12,698.74 L410.98,699.76 L414.09,699.02 Z M420.96,703.05 L416.92,699.82 L415.56,699.43 L420.96,703.05 Z M432.75,646.58 L430.46,643.07 L432.61,646.49 L432.75,646.58 Z M471.01,671.55 L470.78,672.84 L471.69,679.24 L471.08,671.95 L471.01,671.55 Z M562.80,706.66 L566.41,705.14 L560.40,706.80 L562.80,706.66 Z M592.09,826.30 L595.76,830.67 L595.46,829.65 L592.09,826.30 Z M619.73,835.79 L621.00,832.31 L619.84,834.34 L619.73,835.79 Z M614.12,850.77 L615.00,849.98 L616.10,846.12 L614.12,850.77 Z M611.29,851.83 L612.79,851.95 L613.78,851.07 L611.29,851.83 Z M608.20,852.77 L608.16,853.04 L609.08,852.50 L608.20,852.77 Z M613.22,864.61 L614.57,860.50 L614.54,860.23 L613.22,864.61 Z M591.90,909.84 L594.78,909.84 L591.39,909.28 L591.90,909.84 Z M621.80,896.47 L619.53,895.52 L617.63,895.58 L621.80,896.47 Z M543.50,842.38 L544.27,843.94 L542.89,838.01 L543.23,843.12 L543.50,842.38 Z M524.54,861.73 L525.73,861.95 L525.18,861.32 L524.54,861.73 Z M526.04,863.85 L527.33,864.80 L532.23,865.69 L526.04,863.85 Z M544.36,891.09 L546.04,891.04 L545.83,890.71 L544.36,891.09 Z M549.08,891.54 L547.73,898.31 L549.50,891.53 L549.08,891.54 Z M565.96,877.72 L567.64,880.45 L564.39,881.14 L568.80,880.95 L565.96,877.72 Z M591.35,861.00 L594.14,859.19 L594.14,859.19 L591.35,861.00 Z M545.46,917.44 L545.71,915.16 L545.46,914.08 L545.46,917.44 Z M546.07,847.58 L547.15,848.28 L545.46,846.35 L546.07,847.58 Z M391.65,725.93 L393.10,729.25 L392.96,728.51 L391.65,725.93 Z M581.24,737.00 L587.37,734.15 L587.70,733.63 L581.24,737.00 Z M589.11,731.45 L589.45,730.92 L589.41,729.95 L589.11,731.45 Z M589.27,726.48 L590.80,721.61 L590.69,721.31 L589.27,726.48 Z M496.26,711.41 L491.48,713.75 L489.77,715.34 L496.26,711.41 Z M499.94,711.92 L500.40,711.59 L496.26,711.41 L499.94,711.92 Z M501.90,710.52 L511.03,697.16 L501.10,711.09 L501.90,710.52 Z M451.17,709.70 L452.10,710.12 L448.96,706.09 L451.17,709.70 Z M329.68,642.00 L328.76,646.72 L329.61,644.28 L329.68,642.00 Z M331.10,643.55 L333.60,645.29 L331.57,643.33 L331.10,643.55 Z M337.89,641.36 L338.09,642.42 L339.91,635.98 L337.89,641.36 Z M338.34,643.71 L338.44,644.21 L344.07,645.04 L338.34,643.71 Z M350.02,645.54 L351.36,646.87 L349.71,647.13 L354.06,647.57 L350.02,645.54 Z M373.85,661.88 L359.45,655.87 L373.93,662.31 L373.85,661.88 Z M375.38,662.96 L379.67,665.94 L381.32,666.47 L375.38,662.96 Z M426.48,639.46 L427.27,634.08 L426.36,636.68 L426.48,639.46 Z M403.49,639.21 L401.69,641.28 L402.58,640.79 L403.49,639.21 Z M654.15,836.49 L655.74,837.32 L652.43,835.42 L654.15,836.49 Z M681.41,852.20 L680.43,856.25 L682.05,852.01 L681.41,852.20 Z M682.82,848.40 L682.60,850.56 L684.36,845.93 L682.82,848.40 Z M669.54,574.39 L669.47,573.97 L658.13,564.98 L669.54,574.39 Z M705.94,639.46 L706.47,640.43 L706.29,639.46 L705.94,639.46 Z M705.86,665.62 L706.37,665.70 L704.51,660.24 L705.86,665.62 Z M708.29,666.09 L708.21,665.92 L708.19,666.00 L708.29,666.09 Z M710.33,667.84 L712.78,667.39 L709.82,667.39 L710.33,667.84 Z M694.77,683.73 L697.47,684.37 L701.94,684.18 L694.77,683.73 Z M673.27,676.70 L672.42,676.84 L678.04,679.87 L673.27,676.70 Z M694.04,748.14 L695.69,747.70 L691.09,747.83 L694.04,748.14 Z M713.89,763.53 L716.34,765.31 L710.70,759.86 L713.89,763.53 Z M705.86,811.67 L706.41,809.01 L706.36,807.55 L705.86,811.67 Z M668.93,755.81 L667.81,754.60 L668.61,756.19 L668.93,755.81 Z M671.73,773.67 L662.48,775.31 L659.11,776.52 L671.73,773.67 Z M628.48,813.06 L626.58,818.70 L628.65,812.81 L628.48,813.06 Z M631.07,808.35 L631.91,807.04 L631.74,806.14 L631.07,808.35 Z M623.39,811.86 L623.40,812.30 L623.76,811.10 L623.39,811.86 Z M617.08,772.46 L617.59,776.75 L617.94,776.83 L617.08,772.46 Z M683.29,646.36 L683.56,646.18 L680.50,643.26 L681.84,645.23 L683.29,646.36 Z M655.44,603.74 L663.71,598.67 L654.89,603.71 L655.44,603.74 Z M673.16,597.79 L666.89,589.30 L672.65,597.41 L673.16,597.79 Z M675.84,599.81 L676.55,599.61 L675.03,599.20 L675.84,599.81 Z M680.86,598.36 L679.58,598.10 L678.51,599.04 L680.86,598.36 Z M691.16,580.18 L690.20,579.46 L693.48,585.69 L691.16,580.18 Z M673.80,526.56 L672.22,525.65 L669.10,525.46 L673.80,526.56 Z M706.62,818.39 L705.85,817.14 L706.04,817.68 L706.62,818.39 Z M713.40,824.40 L710.42,823.06 L711.25,824.08 L713.40,824.40 Z M717.93,860.50 L717.37,858.83 L717.74,861.00 L717.93,860.50 Z M775.28,887.67 L774.78,885.99 L774.42,886.78 L772.89,886.34 L775.28,887.67 Z M759.10,893.68 L755.00,895.71 L761.92,892.61 L759.10,893.68 Z M760.44,890.50 L760.63,890.26 L759.18,890.03 L760.44,890.50 Z M753.96,889.19 L753.77,887.16 L753.36,887.06 L753.96,889.19 Z M753.20,886.47 L753.50,885.81 L753.04,885.89 L753.20,886.47 Z M735.45,770.25 L731.78,767.52 L728.71,766.13 L735.45,770.25 Z M721.85,714.01 L721.37,713.01 L721.57,714.92 L721.85,714.01 Z M728.60,726.84 L725.34,721.73 L727.49,725.98 L728.60,726.84 Z M733.68,668.15 L733.39,673.31 L733.68,673.03 L733.68,668.15 Z M792.19,631.23 L788.63,632.18 L794.09,630.78 L792.19,631.23 Z M813.22,646.12 L817.49,662.58 L813.69,646.56 L813.22,646.12 Z M844.26,633.39 L843.77,634.08 L843.47,637.88 L844.26,633.39 Z M852.68,685.06 L852.72,685.13 L856.95,684.81 L852.68,685.06 Z M849.47,720.28 L848.49,719.77 L849.45,720.76 L849.47,720.28 Z M850.12,721.45 L850.27,721.61 L853.03,721.61 L850.12,721.45 Z M853.88,722.49 L853.72,722.91 L856.21,724.77 L853.03,721.61 L853.88,722.49 Z M850.64,726.67 L848.92,727.62 L847.41,729.80 L850.64,726.67 Z M844.57,742.51 L846.67,741.08 L846.22,741.05 L844.57,742.51 Z M848.98,741.24 L844.96,746.33 L845.67,745.99 L848.98,741.24 Z M851.27,739.84 L850.33,740.10 L848.98,741.24 L851.27,739.84 Z M846.80,747.84 L845.43,753.02 L847.02,748.21 L846.80,747.84 Z M847.88,755.68 L846.84,756.06 L853.58,754.92 L847.88,755.68 Z M844.33,754.35 L841.20,755.74 L841.39,755.95 L844.33,754.35 Z M849.23,767.14 L846.59,768.73 L845.12,769.17 L847.39,768.79 L849.23,767.14 Z M840.10,768.85 L839.30,768.09 L842.37,773.60 L840.10,768.85 Z M763.45,452.37 L765.17,454.91 L766.34,456.18 L763.45,452.37 Z M771.80,462.06 L772.21,462.51 L772.37,462.45 L771.80,462.06 Z M792.80,483.03 L791.24,482.20 L791.33,482.33 L789.00,482.71 L792.80,483.03 Z M786.46,494.52 L786.67,495.44 L792.31,500.44 L786.46,494.52 Z M789.31,512.98 L783.98,509.12 L793.41,516.40 L789.31,512.98 Z M769.52,544.78 L769.05,547.28 L769.70,546.36 L769.52,544.78 Z M734.10,490.37 L730.31,488.60 L735.51,491.64 L734.10,490.37 Z M738.80,489.77 L738.52,489.74 L735.51,491.64 L738.80,489.77 Z M742.74,450.79 L741.48,450.09 L746.30,454.08 L742.74,450.79 Z M746.47,454.38 L746.35,453.12 L746.30,454.08 L746.47,454.38 Z M770.01,487.14 L769.22,488.82 L769.22,488.82 L770.01,487.14 Z M748.76,572.19 L749.30,570.74 L749.06,569.69 L748.76,572.19 Z M719.71,596.96 L720.01,598.99 L720.01,596.76 L719.71,596.96 Z M771.42,502.03 L759.04,495.57 L766.21,500.00 L775.77,504.18 L771.42,502.03 Z M742.96,498.06 L742.74,493.54 L742.62,497.53 L742.96,498.06 Z M745.87,501.07 L743.67,499.14 L744.64,500.63 L745.87,501.07 Z M746.49,450.79 L748.87,447.94 L746.54,449.90 L746.49,450.79 Z M705.12,420.33 L710.00,423.62 L707.70,421.34 L705.12,420.33 Z M713.32,425.87 L714.01,426.34 L718.54,428.75 L713.32,425.87 Z M731.53,415.45 L728.84,409.05 L731.53,416.61 L731.53,415.45 Z M825.58,868.29 L826.44,866.64 L825.01,868.49 L825.58,868.29 Z M833.60,850.30 L832.07,849.48 L830.82,849.64 L833.60,850.30 Z M808.24,905.34 L809.95,901.54 L807.32,906.60 L808.24,905.34 Z M798.31,902.55 L800.21,906.16 L798.71,901.76 L798.31,902.55 Z M838.08,883.99 L843.56,880.44 L842.86,880.38 L838.08,883.99 Z M844.48,880.52 L847.70,884.82 L845.18,880.57 L844.48,880.52 Z M820.05,719.23 L822.47,722.25 L822.45,721.92 L820.05,719.23 Z M837.89,734.21 L838.20,731.55 L838.37,731.80 L837.40,729.65 L837.89,734.21 Z M832.44,762.52 L833.60,763.91 L830.11,764.99 L835.32,764.29 L832.44,762.52 Z M799.11,834.97 L794.76,830.29 L792.86,828.39 L799.11,834.97 Z M846.00,807.95 L844.90,808.67 L845.61,808.56 L846.00,807.95 Z M815.90,714.58 L809.10,708.18 L816.98,715.79 L815.90,714.58 Z M806.22,695.83 L807.89,693.47 L807.89,693.47 L806.22,695.83 Z M812.71,701.91 L816.74,706.24 L814.98,703.49 L812.71,701.91 Z M818.43,708.87 L817.37,709.83 L818.72,709.32 L818.43,708.87 Z M827.48,709.76 L829.25,711.03 L829.65,710.97 L827.48,709.76 Z M830.97,710.27 L834.46,707.17 L830.08,710.91 L832.75,710.52 L830.97,710.27 Z M836.54,706.85 L837.21,701.04 L836.42,702.61 L836.54,706.85 Z M837.61,700.25 L838.51,699.69 L838.69,698.11 L837.61,700.25 Z M808.52,691.00 L807.75,691.14 L807.81,691.59 L808.52,691.00 Z M840.47,602.98 L847.21,598.36 L840.40,602.66 L834.22,599.37 L840.47,602.98 Z M837.40,538.44 L839.24,541.29 L836.91,537.20 L837.40,538.44 Z M831.03,505.19 L834.77,503.57 L833.97,503.29 L831.03,505.19 Z M801.77,581.03 L799.97,576.82 L801.07,580.37 L799.90,580.73 L801.77,581.03 Z M803.21,581.26 L805.31,579.60 L802.20,581.10 L803.21,581.26 Z M793.11,611.78 L792.68,611.87 L794.27,612.25 L793.11,611.78 Z M800.27,611.09 L797.69,613.07 L797.88,613.11 L800.27,611.09 Z M804.07,593.99 L807.09,598.36 L807.01,597.41 L804.07,593.99 Z M807.93,482.96 L805.54,480.52 L805.60,480.62 L807.93,482.96 Z M812.47,482.20 L810.26,483.66 L813.39,482.20 L812.47,482.20 Z M852.66,725.66 L852.93,726.09 L853.12,724.47 L852.66,725.66 Z M873.90,733.28 L874.59,733.26 L878.02,731.11 L875.20,732.56 L873.90,733.28 Z M890.65,728.50 L891.15,728.35 L890.95,728.26 L890.65,728.50 Z M910.92,728.45 L907.25,732.50 L908.17,732.06 L906.51,733.77 L907.86,733.26 L910.92,728.45 Z M889.04,767.05 L889.86,767.63 L889.66,767.02 L889.04,767.05 Z M891.50,751.63 L889.54,753.02 L893.71,750.80 L891.50,751.63 Z M902.16,753.08 L901.66,753.06 L903.27,754.98 L902.16,753.08 Z M852.90,739.38 L855.91,740.23 L853.52,739.21 L852.90,739.38 Z M859.67,746.92 L861.24,750.68 L860.32,748.08 L859.67,746.92 Z M879.00,751.50 L876.00,752.45 L881.82,751.18 L879.00,751.50 Z M883.97,749.41 L883.95,749.23 L881.82,751.18 L883.97,749.41 Z M909.82,741.49 L910.59,742.13 L910.37,741.43 L909.82,741.49 Z M910.83,742.90 L906.70,750.61 L911.05,743.58 L910.83,742.90 Z M905.35,654.73 L903.51,664.67 L904.98,658.08 L905.35,654.73 Z M947.68,658.53 L947.26,658.67 L949.83,660.24 L947.68,658.53 Z M951.36,659.73 L955.40,655.99 L949.83,660.24 L951.36,659.73 Z M865.94,722.18 L866.32,723.06 L867.13,722.98 L865.94,722.18 Z M868.68,726.15 L867.73,723.38 L867.60,723.29 L867.98,725.79 L868.68,726.15 Z M872.75,716.60 L877.47,714.39 L875.51,715.15 L872.75,716.60 Z M878.13,715.46 L877.72,717.55 L878.21,715.59 L878.13,715.46 Z M878.45,719.90 L880.69,721.54 L880.72,721.29 L878.45,719.90 Z M859.22,690.38 L857.99,688.86 L857.26,688.80 L859.22,690.38 Z M861.60,694.88 L861.54,693.23 L860.29,691.69 L861.60,694.88 Z M919.62,681.33 L914.84,681.07 L920.32,681.73 L919.62,681.33 Z M922.01,682.72 L921.31,682.31 L922.46,685.89 L922.01,682.72 Z M925.69,690.57 L922.95,687.40 L923.36,688.67 L925.69,690.57 Z M928.20,690.89 L931.82,690.64 L925.69,690.57 L928.20,690.89 Z M868.89,612.86 L873.06,619.51 L870.12,614.63 L868.89,612.86 Z M883.75,652.00 L883.05,651.88 L879.86,653.90 L883.75,652.00 Z M845.24,569.98 L853.27,566.75 L844.88,569.47 L845.24,569.98 Z M884.27,560.86 L885.12,559.64 L881.82,562.07 L884.27,560.86 Z M885.99,557.57 L885.91,558.50 L887.00,556.94 L885.99,557.57 Z M888.44,554.47 L888.30,555.06 L892.67,548.77 L888.44,554.47 Z M360.62,131.02 L356.27,132.35 L360.74,131.12 L360.62,131.02 Z M367.17,132.22 L365.64,131.84 L370.23,134.63 L367.17,132.22 Z M390.76,135.01 L392.90,131.97 L391.07,134.44 L387.94,136.08 L390.76,135.01 Z M387.39,157.36 L387.44,157.19 L382.79,165.53 L387.39,157.36 Z M361.04,183.20 L361.12,183.02 L359.57,183.90 L361.04,183.20 Z M357.92,188.65 L357.43,185.67 L357.61,190.23 L357.92,188.65 Z M343.09,220.32 L347.63,217.09 L342.50,220.24 L343.09,220.32 Z M338.44,219.68 L340.10,219.91 L337.28,218.56 L338.44,219.68 Z M354.00,252.68 L349.77,247.99 L354.21,253.11 L354.00,252.68 Z M341.30,255.36 L345.48,259.65 L343.03,256.54 L341.30,255.36 Z M337.89,251.86 L338.49,252.47 L337.72,250.96 L337.89,251.86 Z M326.61,271.24 L322.69,265.28 L323.49,267.12 L326.61,271.24 Z M338.74,285.55 L330.78,280.80 L334.27,283.27 L338.74,285.55 Z M331.08,284.47 L330.77,285.27 L334.27,283.27 L331.08,284.47 Z M375.86,318.91 L372.56,317.91 L374.58,318.99 L375.86,318.91 Z M439.01,349.93 L437.14,347.30 L439.01,349.93 L439.01,349.93 Z M440.71,357.03 L439.42,355.85 L439.47,356.61 L440.71,357.03 Z M459.22,378.85 L459.07,378.72 L450.80,375.11 L447.31,374.41 L459.22,378.85 Z M439.81,399.66 L438.68,398.61 L438.92,399.36 L439.81,399.66 Z M456.19,403.73 L449.21,393.85 L452.39,399.11 L456.19,403.73 Z M462.75,407.79 L460.30,405.06 L463.75,410.39 L462.75,407.79 Z M464.53,412.41 L464.40,412.08 L464.15,413.07 L464.53,412.41 Z M453.87,457.50 L454.91,454.46 L452.88,458.14 L453.87,457.50 Z M446.02,463.46 L452.88,460.48 L447.06,462.63 L446.02,463.46 Z M435.79,585.12 L435.67,583.28 L434.75,581.07 L435.79,585.12 Z M356.20,183.27 L351.82,183.91 L352.16,184.28 L356.20,183.27 Z M270.74,290.24 L265.50,296.22 L266.57,295.68 L270.74,290.24 Z M264.09,297.97 L263.08,299.23 L259.77,306.58 L264.09,297.97 Z M243.78,333.05 L244.14,342.66 L244.51,341.60 L243.78,333.05 Z M243.29,345.08 L245.68,347.55 L248.56,350.15 L243.29,345.08 Z M276.23,373.28 L277.05,374.16 L285.75,378.78 L276.23,373.28 Z M294.57,385.62 L294.26,390.31 L295.03,389.33 L294.57,385.62 Z M298.05,392.62 L297.39,391.83 L294.26,390.31 L298.05,392.62 Z M299.16,383.28 L298.92,380.56 L298.61,382.26 L299.16,383.28 Z M299.72,376.18 L299.26,378.67 L300.57,374.85 L299.36,376.01 L299.72,376.18 Z M322.20,360.73 L328.52,356.81 L328.52,356.81 L322.20,360.73 Z M329.10,357.69 L331.22,361.97 L331.33,361.04 L329.10,357.69 Z M340.15,374.41 L343.61,377.81 L342.17,375.74 L340.15,374.41 Z M343.90,378.23 L345.60,382.83 L344.69,379.35 L343.90,378.23 Z M348.79,384.66 L350.57,385.68 L349.59,384.86 L348.79,384.66 Z M352.96,420.39 L354.92,427.13 L354.92,426.85 L352.96,420.39 Z M388.96,474.97 L386.35,478.91 L388.86,475.49 L388.96,474.97 Z M80.56,224.43 L85.19,226.22 L77.37,222.15 L80.56,224.43 Z M119.83,217.15 L123.32,219.49 L121.97,218.00 L122.04,218.35 L119.83,217.15 Z M129.70,217.02 L129.39,215.94 L129.19,217.56 L129.70,217.02 Z M157.41,194.21 L152.92,197.58 L150.53,200.11 L157.41,194.21 Z M170.10,211.54 L170.19,211.32 L169.46,208.47 L170.10,211.54 Z M190.16,228.82 L189.74,228.19 L189.86,228.49 L190.16,228.82 Z M215.72,234.88 L208.30,234.25 L208.17,234.28 L215.72,234.88 Z M269.82,381.63 L263.63,375.11 L258.85,373.33 L264.18,375.74 L269.82,381.63 Z M249.66,380.49 L243.72,383.40 L250.10,380.61 L249.66,380.49 Z M177.00,239.44 L176.51,241.85 L176.08,244.57 L177.00,239.44 Z M193.17,334.25 L195.62,337.86 L196.87,338.71 L193.17,334.25 Z M213.27,349.96 L215.63,354.26 L215.53,352.94 L213.27,349.96 Z M231.40,365.29 L237.47,357.94 L237.61,358.10 L237.82,357.62 L234.65,360.41 L231.40,365.29 Z M241.08,362.06 L239.00,359.14 L238.31,358.90 L241.08,362.06 Z M248.80,367.13 L246.11,366.18 L248.19,367.25 L252.17,367.00 L248.80,367.13 Z M203.40,321.46 L207.69,321.40 L201.75,320.83 L193.23,317.28 L199.24,320.19 L203.40,321.46 Z M122.41,230.36 L121.85,230.20 L118.43,232.69 L118.97,232.67 L122.41,230.36 Z M122.93,230.51 L123.20,230.83 L127.86,231.97 L122.93,230.51 Z M138.89,232.16 L139.17,232.67 L139.81,228.11 L138.89,232.16 Z M145.01,243.62 L145.07,240.74 L144.11,244.88 L144.13,244.91 L145.01,243.62 Z M145.57,249.96 L152.67,257.81 L153.05,257.93 L145.57,249.96 Z M156.41,260.09 L152.73,259.84 L160.27,260.60 L156.41,260.09 Z M150.77,261.23 L150.69,261.52 L152.73,259.84 L150.77,261.23 Z M115.91,255.28 L116.10,256.04 L115.91,250.46 L115.91,255.28 Z M179.33,238.32 L186.19,236.53 L180.79,237.61 L179.33,238.32 Z M241.76,242.74 L244.29,241.51 L244.29,241.51 L241.76,242.74 Z M244.16,242.51 L243.41,244.07 L243.72,246.03 L244.16,242.51 Z M75.96,124.24 L77.19,125.00 L75.66,122.85 L74.92,120.76 L75.96,124.24 Z M92.87,119.30 L86.81,124.62 L89.93,122.47 L92.87,119.30 Z M99.00,127.09 L93.43,123.10 L98.91,127.81 L99.00,127.09 Z M98.27,130.76 L101.27,143.56 L98.63,130.00 L98.68,129.64 L98.27,130.76 Z M93.86,132.61 L96.18,132.16 L98.27,130.76 L93.86,132.61 Z M198.87,201.89 L207.02,197.01 L201.63,199.92 L198.87,201.89 Z M188.70,225.70 L188.90,226.18 L190.60,219.68 L188.70,225.70 Z M78.60,176.43 L93.61,186.62 L81.72,178.20 L78.60,176.43 Z M103.90,201.19 L111.62,196.63 L112.73,195.74 L103.90,201.19 Z M136.80,193.78 L143.85,198.59 L145.81,198.97 L136.80,193.78 Z M114.62,167.18 L114.94,167.10 L108.38,166.55 L114.62,167.18 Z M91.29,133.12 L90.31,133.02 L91.04,133.17 L91.29,133.12 Z M74.13,106.44 L74.13,103.34 L73.82,102.67 L74.13,106.44 Z M79.46,122.97 L79.46,121.45 L74.13,106.44 L79.46,122.97 Z M285.68,458.77 L288.69,458.64 L291.32,458.14 L285.68,458.77 Z M292.98,455.35 L295.18,448.76 L291.32,458.14 L292.98,455.35 Z M304.07,465.04 L306.94,466.12 L307.95,465.94 L304.07,465.04 Z M298.80,401.26 L299.65,394.55 L299.56,394.44 L298.80,401.26 Z M300.76,433.56 L305.41,429.13 L302.84,431.47 L300.76,433.56 Z M305.36,426.71 L304.86,427.55 L305.41,429.13 L305.36,426.71 Z M323.79,415.45 L306.45,424.89 L305.94,425.75 L323.79,415.45 Z M332.06,445.53 L329.31,446.99 L334.33,445.03 L332.06,445.53 Z M330.96,395.88 L330.53,398.10 L331.11,398.40 L330.96,395.88 Z M322.08,383.34 L320.70,381.58 L321.22,382.58 L322.08,383.34 Z M320.39,381.00 L319.33,377.41 L319.26,378.84 L320.39,381.00 Z M289.54,243.88 L287.89,235.83 L287.59,235.61 L289.54,243.88 Z M285.13,245.33 L282.87,246.85 L289.54,243.88 L285.13,245.33 Z M282.25,246.37 L286.85,251.60 L282.87,246.85 L282.25,246.37 Z M287.16,253.19 L286.86,253.48 L288.26,255.91 L286.85,251.60 L287.16,253.19 Z M297.51,234.12 L293.34,234.25 L291.92,235.12 L297.51,234.12 Z M302.64,230.10 L302.35,229.88 L300.94,230.89 L302.64,230.10 Z M302.96,231.02 L303.68,230.92 L302.87,230.29 L302.96,231.02 Z M360.31,342.36 L360.19,343.88 L360.98,339.57 L360.31,342.36 Z M353.45,370.61 L353.22,371.56 L354.21,370.57 L353.45,370.61 Z M352.71,373.65 L353.69,377.32 L352.95,372.66 L352.71,373.65 Z M314.24,285.30 L314.97,287.58 L314.88,285.69 L314.24,285.30 Z M316.93,283.71 L317.85,284.92 L319.08,285.80 L316.93,283.71 Z M311.58,265.39 L311.97,265.54 L312.57,265.43 L311.58,265.39 Z M318.59,308.98 L315.09,308.98 L322.51,309.24 L318.59,308.98 Z M325.26,312.47 L324.90,311.77 L322.51,309.24 L325.26,312.47 Z M325.14,317.41 L325.14,322.22 L325.63,313.42 L325.14,317.41 Z M310.68,339.26 L315.46,341.09 L310.55,339.16 L310.68,339.26 Z M298.31,375.49 L293.65,370.29 L297.39,375.04 L298.31,375.49 Z M332.13,328.87 L331.88,338.12 L332.25,332.99 L332.13,328.87 Z M312.34,293.28 L316.44,294.61 L310.62,291.76 L312.34,293.28 Z M331.88,295.18 L329.80,293.72 L324.10,292.33 L331.88,295.18 Z M336.60,294.23 L329.80,287.70 L333.84,291.82 L336.60,294.23 Z M330.59,287.01 L330.37,286.27 L329.80,287.70 L330.59,287.01 Z M283.60,260.09 L284.21,262.69 L283.69,259.97 L283.60,260.09 Z M309.64,264.65 L310.30,264.90 L307.68,261.29 L309.64,264.65 Z M335.26,216.61 L334.33,215.00 L330.72,212.21 L335.26,216.61 Z M411.22,465.23 L411.05,466.74 L411.64,464.79 L411.22,465.23 Z M374.46,561.88 L371.15,558.71 L369.90,558.35 L374.46,561.88 Z M393.15,540.60 L392.23,546.87 L392.82,547.76 L393.15,540.60 Z M384.39,519.63 L383.91,518.97 L384.14,521.79 L384.39,519.63 Z M419.07,570.43 L415.21,568.27 L419.41,570.76 L419.07,570.43 Z M347.30,511.33 L344.53,511.98 L346.40,511.91 L347.30,511.33 Z M350.19,508.49 L348.91,510.30 L350.26,509.44 L350.19,508.49 Z M374.40,379.54 L382.24,373.46 L379.12,375.68 L374.40,379.54 Z M406.56,370.87 L406.87,371.05 L409.20,368.14 L406.56,370.87 Z M406.75,365.54 L405.59,362.18 L404.50,360.93 L406.75,365.54 Z M447.62,454.27 L442.04,445.09 L441.35,444.53 L447.62,454.27 Z M427.19,358.00 L426.66,357.50 L420.05,355.34 L427.19,358.00 Z M432.54,365.86 L429.54,360.22 L428.47,359.21 L432.54,365.86 Z M449.58,483.79 L458.39,481.65 L458.09,481.13 L449.58,483.79 Z M427.17,50.91 L426.78,50.77 L426.56,51.18 L427.17,50.91 Z M425.86,52.47 L425.44,53.24 L425.62,55.77 L425.86,52.47 Z M421.76,61.85 L417.23,61.85 L416.17,62.51 L421.76,61.85 Z M413.55,65.15 L414.73,63.40 L413.86,63.94 L413.31,60.27 L413.55,65.15 Z M417.23,76.04 L419.80,80.47 L421.45,81.87 L417.23,76.04 Z M422.56,85.10 L425.54,86.95 L425.54,86.95 L422.56,85.10 Z M426.82,85.97 L427.77,85.56 L427.09,85.60 L426.82,85.97 Z M440.94,90.35 L431.43,84.85 L431.13,85.35 L430.35,85.40 L439.83,89.85 L443.27,92.89 L440.94,90.35 Z M447.18,132.57 L447.80,132.35 L452.95,128.10 L447.18,132.57 Z M460.46,142.50 L462.81,145.27 L460.97,142.54 L460.46,142.50 Z M465.02,146.03 L463.12,148.56 L459.32,152.49 L461.46,151.09 L465.02,146.03 Z M503.31,129.07 L503.80,131.21 L503.31,129.07 L503.31,129.07 Z M495.62,159.76 L494.24,161.99 L494.02,163.98 L495.62,159.76 Z M493.63,167.63 L493.51,168.76 L493.63,169.38 L493.63,167.63 Z M502.39,180.16 L501.72,180.49 L501.84,180.54 L497.37,184.53 L502.39,180.16 Z M489.71,201.82 L487.48,202.06 L491.24,202.39 L489.71,201.82 Z M491.36,205.88 L491.55,204.04 L491.24,202.39 L491.36,205.88 Z M492.40,222.72 L496.26,221.96 L493.14,222.03 L488.05,224.81 L492.40,222.72 Z M497.61,224.94 L499.16,225.83 L498.65,225.38 L497.61,224.94 Z M501.53,234.76 L495.47,240.20 L497.67,238.94 L501.53,234.76 Z M515.26,241.98 L515.26,243.37 L515.81,239.63 L515.26,241.98 Z M516.59,270.24 L515.48,270.96 L516.42,270.79 L516.59,270.24 Z M496.94,305.63 L494.94,305.49 L495.91,306.07 L496.94,305.63 Z M469.73,294.04 L469.18,294.99 L469.49,306.89 L469.73,294.04 Z M486.50,352.33 L486.50,352.33 L487.62,355.15 L486.50,352.33 Z M501.78,375.04 L514.28,382.52 L509.80,379.79 L501.78,375.04 Z M519.30,381.57 L527.94,386.25 L526.90,385.18 L519.30,381.57 Z M505.08,407.73 L504.72,407.66 L504.56,408.14 L505.08,407.73 Z M504.29,409.00 L504.17,409.37 L507.41,414.88 L504.29,409.00 Z M501.96,419.38 L500.61,417.41 L502.39,421.91 L501.96,419.38 Z M520.52,449.97 L517.19,450.77 L518.71,451.66 L518.07,451.04 L520.52,449.97 Z M521.81,454.65 L522.79,456.30 L524.75,457.50 L521.81,454.65 Z M522.94,482.98 L522.55,484.36 L522.88,484.64 L522.94,482.98 Z M485.23,487.27 L485.05,485.81 L479.41,484.99 L485.11,486.32 L483.09,492.40 L485.23,487.27 Z M502.27,511.15 L504.68,512.31 L504.60,511.91 L502.27,511.15 Z M505.11,514.26 L505.18,515.63 L505.39,515.52 L505.11,514.26 Z M424.82,163.63 L425.01,165.22 L425.31,160.53 L424.82,163.63 Z M432.83,186.36 L433.83,184.60 L433.83,182.95 L432.83,186.36 Z M423.54,198.09 L430.77,189.98 L431.72,188.30 L423.54,198.09 Z M423.11,199.99 L423.30,200.56 L423.54,198.09 L423.11,199.99 Z M425.13,206.13 L427.16,208.65 L424.45,204.05 L425.13,206.13 Z M465.51,216.58 L463.91,221.71 L465.75,216.20 L464.65,213.98 L465.51,216.58 Z M469.00,229.44 L471.52,232.76 L470.16,230.20 L469.00,229.44 Z M463.48,228.42 L462.05,228.24 L464.34,229.69 L463.48,228.42 Z M459.44,227.92 L457.86,229.02 L460.13,228.00 L459.44,227.92 Z M450.80,233.93 L450.26,234.63 L452.69,232.62 L450.80,233.93 Z M454.36,307.53 L452.03,306.07 L449.15,305.44 L454.36,307.53 Z M420.72,323.68 L419.74,325.26 L420.90,323.67 L420.72,323.68 Z M413.43,118.98 L415.33,123.35 L418.82,128.17 L413.43,118.98 Z M425.87,265.79 L418.33,267.31 L419.62,267.18 L425.87,265.79 Z M421.39,311.07 L419.86,309.05 L421.43,311.81 L421.39,311.07 Z M421.52,313.29 L421.49,312.77 L419.68,313.54 L421.52,313.29 Z M369.25,243.15 L368.58,244.67 L369.19,244.19 L369.25,243.15 Z M378.08,181.75 L378.37,183.75 L378.98,179.91 L378.08,181.75 Z M378.93,187.51 L380.96,191.50 L378.73,186.13 L378.93,187.51 Z M423.05,150.02 L425.16,155.40 L425.13,154.32 L423.05,150.02 Z M392.41,103.09 L389.00,107.32 L391.37,105.24 L392.41,103.09 Z M472.06,568.34 L473.53,566.50 L473.81,565.77 L472.06,568.34 Z M474.73,563.35 L475.37,561.69 L474.88,559.03 L474.73,563.35 Z M464.22,547.75 L462.91,546.61 L463.12,547.37 L464.22,547.75 Z M462.77,546.13 L463.08,545.07 L462.63,545.60 L462.77,546.13 Z M486.77,263.58 L475.68,267.69 L483.76,265.22 L486.77,263.58 Z M490.20,262.31 L489.55,262.55 L491.55,263.57 L490.20,262.31 Z M470.65,424.89 L473.78,430.59 L476.22,433.34 L470.65,424.89 Z M474.08,356.67 L472.61,357.12 L472.63,357.52 L474.08,356.67 Z M481.68,352.05 L477.88,352.30 L475.86,353.25 L481.68,352.05 Z M460.91,380.36 L460.29,379.80 L462.69,386.38 L460.91,380.36 Z M478.68,207.90 L478.86,207.30 L476.84,210.25 L479.27,207.89 L478.68,207.90 Z M479.19,206.18 L479.35,205.62 L477.88,203.09 L479.19,206.18 Z M472.91,235.64 L472.98,235.52 L472.88,235.33 L472.91,235.64 Z M471.14,242.80 L471.45,243.37 L472.18,241.09 L471.14,242.80 Z M459.69,161.73 L459.96,161.16 L457.54,165.15 L459.69,161.73 Z M472.12,162.37 L466.61,161.29 L466.18,161.32 L472.12,162.37 Z M478.92,167.24 L476.78,164.96 L476.36,164.73 L478.92,167.24 Z M462.63,155.65 L462.32,154.70 L462.36,156.21 L462.63,155.65 Z M451.42,106.95 L452.09,107.39 L452.41,106.95 L451.42,106.95 Z M460.00,117.99 L460.59,119.30 L460.30,118.29 L460.00,117.99 Z M470.83,115.04 L472.67,115.69 L471.63,114.74 L470.83,115.04 Z M473.69,130.62 L474.64,129.19 L474.51,128.61 L473.69,130.62 Z M473.90,131.78 L474.88,130.26 L474.66,129.25 L473.90,131.78 Z M465.75,142.35 L465.57,143.27 L471.94,134.88 L465.75,142.35 Z M434.20,81.17 L435.55,77.81 L432.20,83.53 L434.20,81.17 Z M428.26,63.37 L424.85,63.81 L425.56,64.26 L428.26,63.37 Z M436.40,60.21 L435.48,60.65 L439.28,60.14 L436.40,60.21 Z M560.82,416.89 L560.72,416.08 L558.27,414.50 L560.82,416.89 Z M573.34,407.34 L574.69,406.01 L570.15,408.86 L573.34,407.34 Z M589.14,397.15 L588.47,391.26 L588.69,398.75 L589.14,397.15 Z M607.77,401.96 L607.20,400.02 L607.36,402.26 L607.77,401.96 Z M607.22,394.23 L606.42,388.65 L606.93,396.00 L607.22,394.23 Z M609.24,390.18 L606.37,387.83 L606.37,387.83 L609.24,390.18 Z M638.16,383.66 L638.39,383.51 L638.02,383.55 L638.16,383.66 Z M526.77,529.39 L520.27,535.93 L521.44,535.47 L526.77,529.39 Z M603.84,417.52 L600.17,417.60 L596.13,417.48 L603.18,417.92 L603.84,417.52 Z M605.65,417.48 L609.42,419.69 L606.05,417.48 L605.65,417.48 Z M621.88,418.64 L627.99,419.69 L625.72,418.81 L621.88,418.64 Z M641.65,415.66 L641.28,416.15 L641.54,416.74 L641.65,415.66 Z M589.06,403.70 L588.62,402.19 L588.59,402.85 L589.06,403.70 Z M606.86,402.62 L604.58,401.39 L606.54,402.85 L606.86,402.62 Z M614.94,411.52 L618.80,417.98 L619.56,418.15 L614.94,411.52 Z M566.78,341.92 L575.42,350.47 L573.09,347.93 L566.78,341.92 Z M581.55,339.13 L581.64,337.91 L581.24,337.93 L581.55,339.13 Z M586.10,337.69 L587.74,337.74 L588.04,337.59 L586.10,337.69 Z M589.98,340.16 L590.13,353.57 L590.25,341.09 L589.98,340.16 Z M548.83,387.08 L549.52,387.21 L546.81,383.47 L548.83,387.08 Z M545.09,259.20 L545.58,258.41 L545.61,257.56 L545.09,259.20 Z M539.89,176.74 L540.44,178.45 L540.19,175.10 L539.89,176.74 Z M542.95,178.90 L543.55,178.30 L540.44,178.45 L542.95,178.90 Z M545.54,176.35 L546.75,175.16 L548.16,171.87 L545.54,176.35 Z M545.66,255.97 L545.71,254.26 L544.81,253.43 L545.66,255.97 Z M552.75,253.57 L550.67,254.33 L546.93,256.23 L552.75,253.57 Z M569.74,168.04 L567.25,169.07 L569.23,168.76 L569.74,168.04 Z" /></g></svg>