<svg xmlns="http://www.w3.org/2000/svg" viewBox="0 0 1000 1000" width="1000" height="1000"><g fill="#cccccc" stroke="#222" stroke-width="2"><path d="M227.43,790.31 L233.59,787.88 L227.36,790.24 L144.88,720.62 L141.80,718.11 L100.02,683.02 L93.48,677.81 L133.72,674.89 L106.41,676.84 L87.94,643.35 L83.25,635.22 L56.16,622.71 L32.23,614.03 L19.23,592.83 L24.69,595.54 L47.78,593.60 L59.63,588.73 L72.40,586.72 L106.48,578.45 L120.26,575.18 L117.25,575.88 L128.26,573.03 L144.34,570.11 L162.34,562.47 L172.04,556.98 L172.04,556.98 L181.96,548.50 L196.73,542.32 L208.97,541.27 L212.51,541.34 L213.89,542.39 L219.51,540.16 L232.44,537.45 L234.28,538.08 L236.74,543.29 L243.75,558.72 L247.98,564.69 L245.29,561.63 L248.13,564.90 L255.98,578.52 L273.98,597.97 L284.29,609.51 L299.99,630.08 L287.37,653.15 L288.50,655.56 L288.68,655.23 L326.07,668.29 L343.31,671.00 L355.16,671.84 L355.54,667.04 L351.16,664.89 L352.31,663.22 L349.85,657.25 L351.85,653.01 L353.93,653.42 L355.77,651.48 L358.08,651.06 L357.85,649.67 L359.24,648.42 L360.62,648.29 L360.39,648.21 L364.16,646.96 L370.85,639.87 L366.78,637.23 L367.70,632.23 L361.47,622.71 L361.77,617.64 L386.63,636.68 L407.17,656.55 L416.33,664.19 L431.79,674.76 L432.48,675.17 L460.34,691.36 L476.26,693.52 L494.65,693.17 L531.66,690.95 L550.13,705.61 L549.90,693.66 L549.74,686.78 L549.20,672.60 L543.59,662.94 L530.35,639.67 L510.35,618.82 L520.27,602.14 L519.58,598.46 L516.04,595.13 L515.89,589.29 L514.81,576.23 L522.51,572.20 L515.27,577.06 L522.89,571.99 L525.89,574.49 L528.30,574.85 L535.66,575.18 L543.28,578.38 L551.05,579.77 L560.44,578.10 L562.98,575.53 L555.51,564.20 L553.36,558.72 L553.28,554.68 L550.90,546.62 L550.05,537.45 L548.82,524.53 L545.74,520.64 L527.66,494.65 L522.04,489.37 L515.20,489.99 L508.19,494.58 L497.73,498.47 L490.65,505.14 L488.04,510.49 L486.57,510.84 L481.34,508.13 L480.19,505.84 L481.34,499.86 L471.11,489.30 L464.34,491.94 L461.11,491.11 L455.64,482.28 L449.87,477.76 L437.87,469.84 L422.17,462.55 L418.10,455.39 L415.17,431.77 L413.56,428.50 L412.63,427.60 L401.40,427.04 L390.32,424.40 L385.32,422.04 L377.55,424.05 L368.39,420.58 L358.62,416.62 L353.00,411.13 L349.54,409.32 L344.08,404.18 L335.77,392.92 L333.31,383.06 L336.85,373.33 L333.69,368.95 L334.31,362.77 L333.23,360.33 L330.84,362.70 L326.23,358.94 L322.84,358.53 L319.46,360.06 L309.69,359.92 L303.22,363.88 L300.91,362.56 L300.22,359.85 L300.86,358.64 L300.38,358.74 L305.61,350.75 L305.61,346.23 L302.91,342.41 L302.84,339.42 L303.99,336.36 L310.22,329.90 L311.22,326.36 L310.84,316.63 L315.84,309.26 L314.76,304.54 L304.76,300.09 L306.15,294.81 L311.15,288.90 L307.53,278.34 L313.76,276.19 L316.46,273.83 L316.85,272.37 L316.84,272.37 L317.30,270.70 L320.00,268.34 L320.61,264.93 L328.77,261.67 L328.30,258.47 L330.38,253.40 L330.07,249.51 L327.46,249.02 L327.92,246.38 L324.46,247.14 L322.53,245.89 L317.92,246.93 L316.46,244.29 L314.15,244.64 L312.30,243.53 L311.53,238.94 L309.61,240.96 L307.99,239.08 L309.99,234.08 L311.84,233.38 L311.76,231.51 L310.15,230.40 L312.22,224.49 L314.38,225.05 L315.69,224.07 L315.38,217.26 L313.22,215.74 L311.07,211.43 L312.76,210.66 L311.53,205.94 L313.15,204.62 L314.07,205.80 L315.30,205.31 L313.76,202.88 L316.15,198.85 L315.61,195.58 L325.15,193.64 L316.23,194.75 L315.46,193.43 L316.53,190.79 L313.99,188.64 L315.30,186.62 L313.38,183.42 L311.92,182.87 L312.61,180.92 L308.15,177.03 L305.99,176.75 L307.30,174.53 L303.68,174.18 L304.15,173.49 L300.84,171.47 L302.22,170.64 L301.76,169.18 L298.91,169.74 L298.14,166.61 L295.76,167.86 L295.22,166.82 L294.22,166.96 L294.60,167.93 L291.22,167.72 L291.14,169.46 L289.68,170.50 L288.06,168.42 L285.91,170.22 L285.45,167.86 L282.29,169.53 L282.22,167.37 L280.60,168.49 L276.52,167.86 L277.83,167.30 L276.91,164.32 L275.68,165.36 L275.83,167.17 L272.37,167.72 L271.14,167.65 L268.44,163.76 L265.91,164.04 L266.29,165.84 L263.90,164.73 L263.21,163.48 L264.37,163.62 L264.91,162.16 L261.90,160.49 L264.14,155.98 L258.98,151.53 L259.67,149.17 L258.52,144.23 L258.44,141.11 L259.67,140.14 L258.83,139.09 L261.06,137.08 L259.90,136.73 L259.37,131.80 L257.98,130.20 L272.37,129.02 L275.45,125.89 L278.14,120.33 L279.14,110.26 L282.91,109.35 L287.14,103.38 L293.45,98.31 L303.30,94.27 L308.07,93.86 L311.38,91.36 L317.30,89.55 L321.46,90.94 L328.92,97.82 L345.00,108.03 L361.01,113.73 L368.70,114.91 L368.24,116.16 L384.86,99.21 L390.17,96.22 L389.86,87.74 L387.09,83.92 L391.24,78.85 L400.01,72.53 L406.71,70.93 L410.79,60.09 L416.02,54.95 L416.48,48.55 L412.40,38.34 L415.79,28.47 L422.48,22.29 L429.64,21.52 L436.79,19.23 L443.33,22.01 L455.95,20.48 L467.72,25.35 L475.65,29.79 L476.96,34.38 L482.19,35.63 L483.65,39.87 L492.04,43.55 L491.11,43.55 L495.27,44.04 L497.81,42.65 L504.58,42.02 L512.04,44.38 L520.58,47.93 L523.12,47.93 L527.51,45.64 L532.43,41.12 L543.43,40.63 L546.59,37.02 L551.28,36.32 L553.67,39.17 L554.51,45.22 L565.14,52.31 L571.59,54.04 L578.98,51.75 L590.44,55.22 L596.52,54.04 L609.37,59.46 L611.83,63.63 L614.30,64.54 L612.30,69.75 L619.91,74.47 L634.38,86.77 L632.76,90.24 L634.15,96.50 L633.46,91.98 L646.84,91.22 L652.23,87.26 L656.31,85.80 L658.15,82.67 L661.15,83.71 L662.23,86.56 L665.54,86.63 L673.39,83.23 L679.85,78.78 L688.39,76.21 L684.70,77.04 L688.85,75.86 L700.70,76.00 L705.55,78.71 L711.94,79.68 L724.25,89.20 L732.40,89.20 L733.71,90.45 L733.63,92.54 L738.56,94.55 L743.17,95.11 L751.95,93.72 L751.02,94.48 L752.10,96.78 L750.10,98.17 L752.25,99.42 L751.48,101.08 L754.71,103.17 L753.10,105.81 L757.72,107.76 L758.41,109.14 L757.25,111.79 L761.95,115.82 L759.79,119.57 L763.02,120.61 L762.41,122.76 L763.41,124.78 L761.33,127.21 L765.10,130.06 L765.56,133.53 L771.33,133.81 L770.80,135.90 L774.95,136.38 L775.34,138.82 L778.87,140.90 L775.87,145.42 L776.10,146.81 L778.57,150.00 L779.34,154.17 L781.11,154.87 L781.95,157.23 L780.88,158.13 L779.18,157.37 L778.34,158.55 L780.41,159.94 L781.72,163.34 L779.80,167.23 L778.41,167.65 L778.34,169.74 L775.64,170.99 L777.18,172.38 L775.34,173.00 L775.57,174.74 L774.10,173.91 L773.80,180.23 L769.87,178.56 L767.80,179.46 L768.41,180.99 L766.18,179.88 L762.79,183.01 L759.25,180.65 L754.41,183.91 L752.18,183.70 L752.02,181.76 L749.33,182.17 L748.10,179.88 L746.48,179.74 L743.56,180.51 L739.94,183.49 L738.48,187.45 L733.71,188.43 L732.86,189.96 L734.63,196.49 L734.25,201.70 L733.71,204.06 L729.48,208.23 L729.86,218.79 L725.55,223.17 L721.40,231.51 L713.94,236.72 L696.62,242.35 L692.70,244.57 L686.24,254.09 L683.93,263.47 L683.24,265.97 L674.23,298.35 L662.39,309.75 L659.15,314.68 L659.69,321.42 L668.93,332.96 L669.23,338.24 L666.00,346.02 L662.77,351.30 L662.54,354.57 L664.54,357.07 L666.16,357.35 L664.54,354.29 L666.16,352.97 L669.93,355.82 L666.77,356.10 L666.85,361.65 L670.16,363.67 L669.39,361.38 L671.77,358.88 L675.31,359.85 L675.77,361.38 L677.77,359.85 L677.85,361.10 L678.62,362.70 L676.39,363.46 L677.85,365.55 L677.00,370.48 L675.93,375.27 L674.16,377.43 L680.54,378.82 L683.39,377.29 L684.85,379.23 L682.47,380.21 L682.16,382.36 L678.77,382.71 L675.23,385.49 L674.70,387.36 L678.08,388.55 L680.54,393.62 L682.85,394.66 L690.08,390.07 L694.78,396.05 L695.62,400.84 L698.78,400.77 L699.78,401.89 L696.85,408.90 L703.93,412.52 L701.93,419.33 L700.32,420.72 L699.78,426.21 L702.01,428.29 L703.01,431.21 L708.24,431.90 L711.17,433.99 L715.71,432.39 L715.32,429.82 L716.17,429.40 L718.40,432.25 L720.40,432.53 L719.90,440.91 L720.32,440.52 L724.55,438.99 L731.86,441.70 L735.02,438.64 L737.25,440.52 L737.71,445.45 L740.71,450.25 L740.02,452.54 L735.17,456.85 L740.33,462.48 L747.41,465.74 L749.41,469.15 L746.64,472.00 L744.79,479.64 L741.25,482.14 L738.17,490.48 L736.48,491.80 L735.86,496.11 L732.17,496.46 L732.56,501.67 L732.17,505.98 L733.25,508.69 L732.02,513.83 L728.09,514.87 L728.09,517.65 L729.32,519.04 L727.94,519.66 L728.02,523.28 L730.86,526.89 L729.56,527.72 L730.17,528.56 L727.63,534.95 L722.40,537.94 L719.01,544.54 L719.17,549.89 L722.01,553.92 L717.01,555.80 L716.24,557.46 L706.01,560.24 L697.32,561.22 L694.70,559.83 L686.78,561.01 L683.93,561.70 L678.85,565.94 L682.70,570.74 L691.39,581.16 L720.94,578.31 L732.25,585.74 L743.17,593.39 L753.33,600.48 L780.26,612.57 L813.42,627.78 L814.42,629.31 L809.04,647.93 L795.57,645.50 L808.96,647.93 L804.57,662.73 L793.49,703.45 L792.65,706.72 L767.72,724.72 L761.18,729.30 L767.80,736.95 L769.49,737.01 L775.34,743.89 L782.64,751.68 L785.88,749.38 L788.88,751.19 L790.42,750.15 L796.26,756.61 L797.57,756.05 L804.65,752.09 L812.34,756.54 L810.04,762.10 L815.27,776.97 L816.50,778.50 L825.73,777.73 L827.96,778.71 L830.27,785.65 L829.19,788.99 L830.04,792.12 L826.73,798.16 L832.12,798.44 L831.66,801.64 L834.12,804.28 L834.50,801.98 L839.35,801.71 L840.12,798.86 L842.20,798.79 L845.66,800.39 L845.58,803.44 L848.35,804.07 L850.20,803.10 L849.05,801.01 L850.51,799.07 L853.20,799.55 L853.82,800.73 L858.74,801.15 L859.74,803.23 L862.36,802.61 L863.24,803.55 L862.51,800.66 L867.20,802.54 L870.20,797.19 L878.98,801.01 L880.67,804.00 L885.13,805.11 L884.75,807.13 L882.90,807.40 L882.36,809.56 L884.67,810.67 L886.98,808.58 L888.75,808.86 L890.06,812.48 L888.75,812.82 L889.82,817.06 L888.70,819.55 L889.29,819.49 L890.75,818.45 L893.04,820.30 L895.98,818.94 L897.60,819.49 L901.60,814.28 L906.83,815.46 L906.83,811.64 L907.60,810.53 L909.37,811.36 L909.83,807.75 L912.83,808.86 L912.37,810.39 L916.52,810.53 L916.91,811.29 L917.29,810.04 L919.60,810.81 L922.06,808.38 L923.14,807.13 L926.91,806.36 L931.53,802.61 L931.68,798.65 L933.45,799.34 L936.30,804.35 L940.07,803.44 L943.68,800.59 L948.76,803.37 L952.22,803.10 L957.46,806.36 L960.38,806.15 L960.84,809.28 L962.69,811.50 L965.77,812.75 L968.61,818.03 L965.38,818.52 L964.84,821.16 L967.54,822.27 L965.53,826.58 L964.23,827.14 L965.38,829.64 L967.23,829.57 L968.23,831.17 L965.00,832.00 L961.38,829.78 L960.15,832.97 L957.46,833.95 L960.15,838.39 L958.53,840.62 L961.07,842.49 L961.15,844.23 L960.92,846.32 L962.61,848.33 L963.92,848.12 L965.07,851.94 L968.23,851.80 L969.92,850.07 L970.07,847.84 L971.46,847.57 L973.38,850.00 L970.00,853.61 L971.23,854.10 L974.69,852.57 L977.85,854.93 L975.77,858.20 L975.31,862.09 L977.00,870.70 L980.77,886.20 L980.23,894.61 L976.85,907.53 L970.61,908.85 L960.15,916.63 L946.76,927.61 L940.76,936.02 L934.30,945.75 L929.22,949.36 L924.37,950.33 L918.14,949.57 L912.60,943.66 L912.29,926.57 L909.21,921.08 L907.06,919.41 L902.75,918.79 L896.06,921.92 L891.59,935.74 L887.67,940.68 L875.05,945.61 L866.97,950.82 L862.05,952.00 L856.97,951.38 L854.74,952.14 L853.74,954.43 L857.97,963.54 L843.97,968.68 L840.89,966.73 L835.35,968.12 L833.58,967.22 L833.96,959.99 L826.73,959.78 L824.58,956.52 L817.81,962.70 L812.11,953.88 L812.64,953.23 L808.50,954.99 L803.42,960.20 L800.26,959.09 L799.11,957.01 L796.57,957.84 L795.57,961.24 L792.65,961.10 L788.57,966.52 L787.03,965.41 L786.65,966.94 L783.64,967.43 L778.72,970.97 L778.49,974.65 L775.10,973.68 L773.80,979.31 L768.10,977.92 L764.41,979.45 L760.87,976.74 L757.48,980.42 L755.41,980.77 L753.71,976.81 L749.71,978.13 L749.18,975.63 L749.79,973.96 L754.18,976.53 L758.49,973.61 L752.10,967.71 L754.87,964.72 L750.02,969.23 L743.33,966.52 L742.33,968.89 L736.25,966.59 L733.63,970.21 L731.17,969.17 L732.48,967.08 L727.79,961.45 L728.48,957.77 L723.55,955.75 L724.02,953.81 L725.94,952.84 L733.17,953.46 L733.40,951.52 L740.66,949.31 L739.63,948.39 L741.02,948.53 L742.64,945.47 L744.94,946.17 L748.71,941.44 L753.56,941.51 L754.48,942.76 L752.79,939.98 L744.10,936.30 L744.56,931.16 L742.10,930.60 L739.71,928.72 L738.63,929.35 L735.40,925.67 L732.09,925.74 L730.60,922.32 L730.56,922.40 L727.63,921.43 L725.55,920.04 L725.25,915.80 L723.25,915.38 L719.86,914.90 L718.17,913.09 L715.32,913.30 L714.94,912.19 L712.40,918.30 L709.09,917.47 L706.86,923.10 L704.01,923.79 L713.40,895.51 L710.47,901.97 L703.63,924.49 L700.01,921.92 L696.47,921.36 L695.93,919.34 L689.47,916.08 L696.47,907.81 L692.47,911.56 L688.08,908.92 L689.93,906.49 L690.31,903.02 L686.39,899.82 L688.62,895.02 L682.31,891.13 L680.54,892.18 L678.24,891.90 L674.77,889.12 L674.46,887.59 L671.85,887.52 L673.00,879.46 L671.46,878.35 L673.89,875.43 L670.69,877.44 L666.16,875.36 L666.31,874.32 L663.00,872.58 L661.08,869.45 L651.61,859.52 L649.61,858.41 L643.23,861.95 L624.54,847.09 L615.76,847.84 L587.75,850.28 L561.90,852.50 L556.67,851.67 L474.14,855.18 L474.14,855.18 L482.26,854.86 L483.19,891.69 L398.32,884.60 L366.70,882.73 L359.54,882.17 L340.85,880.99 L335.15,880.71 L306.07,846.66 L293.37,831.17 L277.22,811.43 L257.06,801.43 L235.59,797.19 L227.43,790.31 Z M492.65,711.37 L486.27,727.15 L493.27,709.98 L494.65,693.17 L492.65,711.37 Z M490.34,47.72 L490.50,53.21 L492.58,131.87 L491.11,75.65 L491.11,43.55 L490.34,47.72 Z M670.31,555.80 L674.54,560.87 L678.85,565.94 L670.31,555.80 Z M914.52,914.76 L918.83,909.55 L909.21,921.08 L914.52,914.76 Z M717.49,888.18 L715.40,890.58 L713.40,895.51 L717.49,888.18 Z M704.09,895.93 L705.63,896.21 L704.40,895.41 L696.47,907.81 L704.09,895.93 Z M557.13,796.70 L556.51,812.82 L556.67,851.67 L557.13,796.70 Z M546.20,585.19 L549.05,584.29 L544.81,585.24 L546.20,585.19 Z M608.65,571.47 L606.06,570.67 L601.37,570.81 L608.65,571.47 Z M613.76,575.18 L615.56,572.88 L614.53,573.31 L613.76,575.18 Z M622.30,569.69 L624.91,565.66 L621.20,570.09 L622.30,569.69 Z M624.68,563.79 L622.14,557.05 L624.91,565.66 L624.68,563.79 Z M619.14,549.13 L615.34,545.31 L615.34,545.31 L619.14,549.13 Z M669.77,562.61 L670.31,563.79 L668.23,559.13 L669.77,562.61 Z M648.38,566.36 L648.12,565.84 L646.00,567.12 L648.38,566.36 Z M648.47,574.53 L647.30,571.78 L647.69,574.28 L648.47,574.53 Z M640.30,594.85 L639.46,591.10 L639.46,593.87 L640.30,594.85 Z M662.52,648.23 L664.18,643.91 L662.23,647.03 L662.52,648.23 Z M675.09,669.80 L666.62,668.64 L672.93,669.82 L675.09,669.80 Z M666.08,792.05 L691.22,772.94 L676.16,784.33 L656.54,799.27 L666.08,792.05 Z M669.08,795.45 L668.89,796.06 L674.25,801.24 L666.08,792.05 L669.08,795.45 Z M664.77,837.56 L662.15,837.49 L662.01,837.99 L664.77,837.56 Z M673.70,828.39 L672.86,828.15 L676.70,830.68 L673.70,828.39 Z M688.55,845.62 L687.99,845.57 L689.27,846.18 L688.55,845.62 Z M696.16,851.53 L693.49,849.45 L699.47,855.56 L696.16,851.53 Z M698.55,859.80 L699.76,855.40 L699.47,855.56 L698.55,859.80 Z M707.86,842.70 L706.24,844.30 L708.37,842.61 L707.86,842.70 Z M745.89,856.53 L747.50,857.36 L746.94,856.46 L754.41,851.46 L747.94,855.35 L746.56,856.81 L745.89,856.53 Z M753.79,887.24 L745.33,881.68 L751.18,885.57 L753.79,887.24 Z M731.46,920.87 L732.66,920.25 L731.86,920.18 L731.46,920.87 Z M655.11,762.33 L655.11,762.33 L635.46,776.97 L605.37,799.41 L655.11,762.33 Z M413.33,698.59 L402.92,696.12 L402.92,696.12 L410.56,697.96 L413.33,698.59 Z M369.62,720.76 L364.97,717.16 L373.24,724.58 L369.62,720.76 Z M379.01,726.59 L382.24,731.80 L381.47,729.16 L379.01,726.59 Z M504.89,797.40 L472.76,808.78 L472.76,808.78 L543.43,783.85 L504.89,797.40 Z M473.42,834.50 L470.42,812.89 L473.65,836.52 L474.72,837.70 L473.42,834.50 Z M183.73,663.15 L118.25,640.15 L149.42,651.20 L183.73,663.15 Z M205.12,655.37 L205.98,655.07 L200.66,653.84 L205.12,655.37 Z M238.40,693.65 L245.05,678.09 L238.40,693.65 L238.40,693.65 Z M287.91,656.62 L288.31,655.90 L285.91,656.83 L287.91,656.62 Z M367.47,667.81 L367.52,667.87 L366.70,664.54 L367.47,667.81 Z M369.16,669.61 L369.01,668.64 L368.21,668.60 L369.16,669.61 Z M412.02,796.56 L419.25,806.22 L415.71,801.29 L412.02,796.56 Z M166.45,703.43 L166.73,703.59 L194.89,718.39 L166.45,703.43 Z M214.89,748.62 L222.92,733.54 L208.89,757.44 L214.89,748.62 Z M332.23,733.12 L326.15,728.40 L334.23,735.69 L332.23,733.12 Z M346.88,740.03 L340.92,734.03 L346.88,740.03 L346.88,740.03 Z M353.23,716.59 L347.25,738.87 L352.77,721.17 L353.23,716.59 Z M351.77,712.25 L356.39,712.63 L360.68,713.84 L359.47,712.90 L351.54,711.58 L351.77,712.25 Z M291.45,774.40 L310.99,773.36 L317.99,772.94 L291.45,774.40 Z M304.34,798.80 L305.15,796.42 L310.99,773.36 L304.34,798.80 Z M362.08,777.04 L370.93,780.51 L389.47,787.46 L362.08,777.04 Z M322.69,832.90 L323.15,830.96 L327.38,812.68 L322.69,832.90 Z M343.06,838.44 L342.77,837.63 L340.46,837.35 L343.06,838.44 Z M344.08,843.40 L344.92,843.61 L344.38,842.11 L344.08,843.40 Z M343.31,841.24 L344.12,841.38 L343.50,839.65 L343.31,841.24 Z M354.47,748.90 L352.08,748.48 L344.62,747.30 L354.47,748.90 Z M288.77,681.71 L289.60,679.27 L289.68,668.36 L288.77,681.71 Z M291.14,712.49 L286.13,718.86 L288.68,716.59 L291.14,712.49 Z M219.51,574.49 L226.82,568.72 L203.97,586.72 L181.12,604.85 L219.51,574.49 Z M243.05,633.27 L238.67,630.84 L236.82,630.01 L243.05,633.27 Z M233.13,635.50 L230.44,639.53 L236.82,630.01 L233.13,635.50 Z M178.19,619.17 L111.93,637.91 L112.74,638.20 L178.19,619.17 Z M218.36,641.06 L218.59,643.02 L219.05,638.90 L218.36,641.06 Z M428.02,844.86 L421.33,856.95 L431.71,838.53 L428.02,844.86 Z M451.72,837.91 L450.41,833.60 L449.10,829.92 L451.72,837.91 Z M427.40,829.72 L427.40,829.72 L425.79,836.38 L427.40,829.72 Z M612.68,632.99 L603.60,637.79 L613.91,632.37 L614.79,631.41 L612.68,632.99 Z M637.61,621.18 L637.77,621.61 L636.84,610.34 L635.15,600.61 L637.61,621.18 Z M644.92,609.51 L647.23,608.74 L636.84,610.34 L644.92,609.51 Z M521.99,745.29 L521.81,745.49 L541.13,748.76 L521.99,745.29 Z M521.44,745.92 L523.89,749.38 L521.81,745.49 L521.44,745.92 Z M577.90,785.65 L582.97,779.67 L581.98,780.10 L577.90,785.65 Z M596.91,784.68 L584.90,778.84 L584.28,779.11 L591.14,782.11 L596.91,784.68 Z M602.40,783.16 L603.04,783.42 L602.91,783.01 L602.40,783.16 Z M589.29,788.85 L588.52,813.17 L589.96,786.41 L589.29,788.85 Z M583.98,774.19 L581.29,776.62 L581.44,777.36 L583.98,774.19 Z M613.76,672.32 L611.60,665.93 L604.83,645.99 L613.76,672.32 Z M622.45,581.65 L622.82,580.91 L617.14,583.59 L622.45,581.65 Z M626.30,578.80 L614.53,576.85 L623.91,578.73 L626.30,578.80 Z M718.04,887.56 L718.04,887.56 L728.09,889.60 L718.04,887.56 Z M729.94,906.48 L729.94,906.48 L728.79,893.08 L728.09,889.60 L729.94,906.48 Z M729.56,906.56 L729.74,906.52 L728.25,906.77 L729.56,906.56 Z M703.76,894.99 L701.24,893.36 L698.55,892.52 L696.32,891.76 L703.76,894.99 Z M719.51,885.87 L721.72,883.66 L721.25,883.77 L722.63,877.86 L720.86,884.32 L719.51,885.87 Z M717.40,883.91 L716.09,881.61 L715.68,881.66 L717.40,883.91 Z M727.32,883.28 L726.40,882.59 L723.59,883.23 L727.32,883.28 Z M686.30,866.79 L688.08,865.63 L688.93,864.31 L686.30,866.79 Z M705.01,854.79 L701.32,854.58 L700.92,854.79 L705.01,854.79 Z M733.71,861.74 L734.09,860.70 L732.63,862.99 L733.71,861.74 Z M726.40,627.99 L716.63,630.98 L720.71,629.94 L726.40,627.99 Z M719.09,639.11 L720.55,639.18 L716.17,638.83 L715.22,639.49 L719.09,639.11 Z M743.71,669.06 L743.23,672.97 L743.64,671.91 L743.71,669.06 Z M741.98,676.26 L741.17,677.05 L740.40,680.38 L741.98,676.26 Z M740.63,685.11 L739.02,687.33 L738.25,689.00 L740.63,685.11 Z M739.10,692.40 L748.71,689.64 L748.17,689.35 L739.10,692.40 Z M749.79,690.22 L752.71,697.96 L750.10,690.39 L749.79,690.22 Z M736.48,751.75 L736.29,748.04 L735.86,756.61 L736.48,751.75 Z M735.97,788.29 L738.71,789.61 L744.02,790.45 L735.97,788.29 Z M739.79,807.47 L743.87,806.78 L762.95,803.10 L739.79,807.47 Z M769.26,809.77 L767.49,806.15 L769.33,811.64 L770.26,816.16 L769.26,809.77 Z M809.57,805.04 L807.57,805.60 L811.81,805.18 L809.57,805.04 Z M814.34,815.26 L813.19,807.54 L811.81,805.18 L814.34,815.26 Z M820.19,833.32 L813.81,832.21 L813.22,831.89 L814.34,832.77 L820.19,833.32 Z M832.12,839.85 L834.04,839.78 L836.27,839.23 L832.12,839.85 Z M835.43,852.92 L830.58,851.94 L839.43,854.17 L835.43,852.92 Z M813.50,850.76 L813.40,850.14 L809.27,852.29 L813.50,850.76 Z M811.27,870.77 L801.73,862.16 L788.42,854.38 L804.65,864.80 L811.27,870.77 Z M815.47,893.16 L815.88,894.26 L817.65,896.14 L815.47,893.16 Z M811.57,923.03 L810.79,923.55 L819.50,922.12 L811.57,923.03 Z M827.89,934.91 L827.44,935.23 L833.81,934.42 L827.89,934.91 Z M820.95,939.64 L820.12,939.43 L819.16,940.45 L820.95,939.64 Z M817.27,944.64 L817.65,946.10 L818.81,946.79 L817.27,944.64 Z M710.63,688.10 L706.70,693.42 L707.40,693.52 L710.63,688.10 Z M668.16,800.59 L668.46,797.46 L667.51,800.52 L668.16,800.59 Z M703.47,830.54 L700.39,822.97 L698.93,819.56 L703.47,830.54 Z M697.47,768.07 L685.93,755.91 L677.16,746.81 L697.47,768.07 Z M733.54,734.73 L733.54,734.73 L699.39,750.43 L733.54,734.73 Z M735.79,738.27 L734.70,736.56 L735.84,739.24 L735.79,738.27 Z M704.86,697.76 L706.55,700.53 L707.23,701.11 L704.86,697.76 Z M681.16,604.99 L680.86,603.71 L680.50,604.92 L682.32,605.52 L681.16,604.99 Z M695.39,609.16 L699.16,611.04 L700.03,610.75 L695.39,609.16 Z M703.39,609.65 L704.86,610.41 L706.09,611.04 L703.39,609.65 Z M678.31,650.23 L672.39,651.96 L671.10,652.93 L678.31,650.23 Z M706.70,638.41 L708.78,638.07 L706.47,637.77 L706.70,638.41 Z M713.94,649.05 L720.40,658.01 L724.94,663.43 L713.94,649.05 Z M695.85,677.05 L695.91,678.33 L697.39,675.17 L695.85,677.05 Z M658.00,591.86 L657.83,592.29 L661.92,589.84 L658.00,591.86 Z M672.46,584.98 L668.93,580.53 L676.23,589.84 L672.46,584.98 Z M758.80,937.76 L758.41,937.20 L757.41,937.34 L758.80,937.76 Z M765.33,939.15 L768.41,944.15 L767.26,941.72 L768.26,941.93 L765.33,939.15 Z M774.33,948.45 L774.33,948.45 L771.57,943.04 L774.33,948.45 Z M771.49,951.52 L771.80,953.74 L772.05,950.91 L771.49,951.52 Z M792.44,876.35 L793.57,875.64 L793.88,874.11 L792.49,876.26 L792.44,876.35 Z M757.95,903.57 L764.49,904.34 L762.49,903.64 L757.95,903.57 Z M787.80,897.18 L790.97,899.81 L790.34,898.78 L787.80,897.18 Z M807.42,890.79 L805.95,888.53 L805.50,888.98 L807.42,890.79 Z M761.95,911.08 L760.64,911.21 L756.64,913.58 L761.95,911.08 Z M770.26,925.25 L771.64,926.15 L770.05,924.76 L770.26,925.25 Z M775.44,925.41 L775.44,925.41 L771.64,926.15 L775.44,925.41 Z M779.81,888.03 L778.11,888.49 L775.51,891.43 L779.81,888.03 Z M791.57,880.08 L791.57,877.64 L791.19,878.21 L791.57,880.08 Z M790.57,889.26 L791.31,889.41 L791.14,888.88 L790.57,889.26 Z M796.42,890.44 L800.57,890.65 L794.47,890.04 L796.42,890.44 Z M765.26,843.74 L767.29,846.13 L766.87,845.41 L765.26,843.74 Z M803.42,838.60 L811.73,839.23 L805.34,838.74 L803.42,838.60 Z M812.11,845.69 L813.10,848.16 L811.73,839.23 L812.11,845.69 Z M803.80,827.55 L803.59,827.29 L803.59,827.29 L803.80,827.55 Z M805.84,826.92 L810.27,827.14 L807.88,826.58 L805.84,826.92 Z M811.88,829.36 L811.57,830.61 L812.22,831.11 L811.88,829.36 Z M790.63,825.49 L790.60,825.17 L788.49,824.71 L790.63,825.49 Z M792.11,826.03 L792.48,825.44 L790.90,825.58 L792.11,826.03 Z M796.80,826.37 L802.42,827.48 L795.11,825.19 L796.80,826.37 Z M776.44,830.37 L776.80,828.53 L776.34,822.83 L776.44,830.37 Z M787.80,807.82 L787.90,808.21 L788.14,807.93 L787.80,807.82 Z M821.19,811.09 L818.96,809.70 L821.88,812.13 L825.89,813.24 L821.19,811.09 Z M841.12,886.06 L837.43,895.51 L834.20,901.56 L834.43,902.82 L840.74,888.84 L841.12,886.06 Z M841.89,880.43 L841.66,874.94 L841.66,882.11 L841.89,880.43 Z M851.43,881.61 L857.66,881.54 L852.97,881.27 L854.97,878.56 L851.43,881.61 Z M890.17,877.99 L892.36,876.26 L891.29,876.40 L890.95,876.07 L890.17,877.99 Z M906.14,887.80 L904.14,875.50 L904.52,880.02 L906.14,887.80 Z M907.44,865.70 L908.52,868.69 L907.67,863.69 L904.14,875.50 L907.44,865.70 Z M911.21,898.96 L910.83,898.78 L905.75,899.33 L911.21,898.96 Z M919.37,875.36 L921.45,875.29 L921.60,874.53 L921.52,874.60 L919.37,875.36 Z M922.83,874.25 L923.76,872.79 L922.27,873.99 L922.83,874.25 Z M937.61,868.97 L935.07,870.91 L933.53,872.65 L937.61,868.97 Z M937.84,872.02 L938.75,870.32 L938.22,870.70 L937.61,868.97 L937.84,872.02 Z M940.84,875.71 L942.30,876.33 L937.84,872.02 L940.84,875.71 Z M928.05,907.25 L937.76,906.07 L928.37,907.11 L928.05,907.25 Z M834.89,905.38 L838.96,910.08 L834.69,904.28 L834.89,905.38 Z M847.35,919.79 L850.78,923.74 L850.43,923.17 L847.35,919.79 Z M852.61,926.80 L854.04,931.74 L853.97,929.07 L852.61,926.80 Z M871.36,914.06 L870.36,909.76 L871.67,917.54 L871.95,918.06 L871.36,914.06 Z M877.70,912.57 L878.44,912.40 L878.18,911.89 L877.70,912.57 Z M877.49,910.57 L875.74,907.18 L876.36,909.62 L877.49,910.57 Z M877.13,904.75 L876.87,903.08 L875.74,907.18 L877.13,904.75 Z M877.59,900.46 L880.21,901.07 L877.59,900.44 L877.59,900.46 Z M818.50,950.13 L822.42,951.03 L817.73,949.50 L818.50,950.13 Z M861.51,902.53 L861.40,901.23 L860.43,903.15 L861.51,902.53 Z M866.97,899.12 L861.97,900.10 L861.71,900.62 L866.97,899.12 Z M892.27,852.95 L891.98,852.43 L892.21,848.68 L891.52,853.89 L892.27,852.95 Z M896.98,842.28 L896.22,843.03 L898.52,842.15 L896.98,842.28 Z M921.60,829.50 L915.28,833.59 L916.06,833.39 L921.60,829.50 Z M922.99,832.42 L921.22,826.09 L921.60,829.50 L922.99,832.42 Z M924.14,819.15 L924.08,818.39 L921.22,826.09 L924.14,819.15 Z M928.14,836.59 L927.28,835.89 L928.05,837.31 L928.14,836.59 Z M928.77,846.90 L926.91,846.32 L925.02,846.92 L928.77,846.90 Z M944.58,851.23 L938.37,843.61 L942.22,849.16 L944.58,851.23 Z M953.84,847.50 L953.22,856.18 L954.64,847.14 L953.84,847.50 Z M826.02,871.73 L835.20,870.70 L828.35,871.05 L826.02,871.73 Z M838.88,863.24 L839.43,863.48 L840.01,863.12 L838.88,863.24 Z M840.63,862.74 L840.89,862.57 L841.66,860.00 L840.63,862.74 Z M861.05,853.12 L861.59,854.51 L863.34,855.13 L861.05,853.12 Z M863.54,855.20 L864.36,855.49 L865.82,855.00 L863.54,855.20 Z M889.10,868.95 L889.10,868.95 L890.52,868.27 L889.10,868.95 Z M916.37,854.72 L920.14,855.99 L920.14,855.99 L916.37,854.72 Z M920.09,856.37 L917.83,859.93 L919.83,858.13 L920.09,856.37 Z M868.05,856.18 L868.63,856.37 L867.59,854.17 L868.05,856.18 Z M869.28,834.57 L881.82,836.10 L876.59,835.27 L869.28,834.57 Z M883.06,815.62 L885.75,818.66 L883.75,815.53 L883.06,815.62 Z M893.14,820.38 L893.59,820.74 L895.90,820.19 L893.14,820.38 Z M839.50,818.94 L841.08,814.03 L839.74,815.74 L839.50,818.94 Z M845.89,811.99 L846.97,815.32 L846.04,810.67 L845.89,811.99 Z M861.82,815.09 L860.74,817.69 L862.36,815.39 L861.82,815.09 Z M857.05,830.26 L861.80,834.14 L861.80,834.14 L857.05,830.26 Z M861.97,835.27 L861.81,834.20 L861.50,835.45 L861.97,835.27 Z M863.40,804.18 L859.05,807.19 L863.51,804.62 L863.40,804.18 Z M771.64,665.90 L763.49,673.50 L762.75,674.46 L771.64,665.90 Z M775.72,661.97 L772.72,663.08 L775.04,662.62 L775.72,661.97 Z M755.18,656.83 L756.25,658.70 L757.32,659.05 L755.18,656.83 Z M553.13,167.65 L554.67,169.74 L555.74,170.36 L553.13,167.65 Z M553.36,173.14 L552.74,178.49 L554.67,169.74 L553.36,173.14 Z M525.12,169.60 L524.20,172.79 L524.41,173.83 L525.12,169.60 Z M551.51,196.00 L548.20,199.20 L546.82,202.19 L551.51,196.00 Z M497.87,243.23 L496.56,251.51 L497.35,250.41 L497.87,243.23 Z M494.83,253.93 L493.69,255.05 L494.11,254.93 L494.83,253.93 Z M529.89,256.52 L530.58,260.00 L531.61,260.46 L529.89,256.52 Z M533.77,261.44 L539.20,263.89 L536.28,261.87 L533.77,261.44 Z M543.65,277.20 L543.05,279.87 L543.66,277.30 L543.65,277.20 Z M540.51,314.61 L540.17,314.62 L543.13,316.00 L540.51,314.61 Z M536.66,313.71 L534.12,315.17 L533.80,315.85 L536.66,313.71 Z M530.40,321.61 L526.66,323.72 L529.89,322.74 L530.40,321.61 Z M523.20,357.97 L526.04,357.83 L528.28,357.49 L523.20,357.97 Z M522.66,360.82 L520.21,363.72 L520.67,364.06 L522.66,360.82 Z M523.66,387.02 L518.82,390.67 L520.27,390.35 L523.66,387.02 Z M517.82,391.42 L516.66,392.30 L515.04,398.62 L517.82,391.42 Z M512.27,399.87 L508.12,393.62 L512.46,400.23 L512.27,399.87 Z M500.95,463.72 L508.27,449.83 L505.96,453.31 L500.96,463.31 L500.95,463.72 Z M347.16,128.11 L346.60,128.97 L352.00,127.49 L347.16,128.11 Z M397.48,151.04 L394.71,151.46 L435.10,150.70 L419.94,150.56 L397.48,151.04 Z M424.02,131.94 L424.64,129.57 L422.79,133.81 L424.02,131.94 Z M489.57,256.31 L488.10,258.41 L491.18,256.00 L489.57,256.31 Z M480.50,284.46 L480.67,285.90 L482.26,281.33 L480.50,284.46 Z M471.03,278.97 L463.41,274.24 L472.33,280.45 L471.03,278.97 Z M460.95,349.63 L466.80,349.91 L462.88,349.63 L460.95,349.63 Z M448.54,388.75 L449.79,391.59 L449.56,389.24 L448.54,388.75 Z M452.10,396.88 L453.48,397.58 L451.18,394.77 L452.10,396.88 Z M459.80,400.77 L461.15,400.51 L456.99,399.35 L459.80,400.77 Z M463.41,435.73 L463.87,436.19 L462.88,433.57 L463.41,435.73 Z M467.57,439.90 L471.49,441.98 L466.68,439.00 L467.57,439.90 Z M345.62,305.30 L342.08,311.07 L342.71,311.29 L346.32,305.18 L345.62,305.30 Z M347.16,312.88 L353.85,317.05 L345.92,311.97 L344.45,311.91 L347.16,312.88 Z M366.01,319.27 L362.84,319.01 L363.93,319.48 L366.01,319.27 Z M376.18,290.94 L376.70,291.20 L382.55,290.22 L376.18,290.94 Z M420.87,296.76 L422.87,304.47 L422.17,301.62 L420.87,296.76 Z M421.94,326.91 L427.41,328.86 L435.56,331.71 L421.94,326.91 Z M430.48,350.88 L430.86,345.43 L430.86,345.43 L430.48,349.56 L430.48,350.88 Z M401.11,356.76 L399.94,356.37 L387.17,357.76 L401.11,356.76 Z M403.34,358.58 L403.55,357.56 L402.83,357.32 L403.34,358.58 Z M413.40,369.51 L413.88,369.38 L410.17,369.09 L413.40,369.51 Z M421.48,368.39 L424.10,367.56 L420.89,368.29 L421.48,368.39 Z M447.81,388.40 L447.26,388.13 L441.79,389.87 L447.81,388.40 Z M302.14,358.94 L303.50,358.11 L301.60,358.49 L302.14,358.94 Z M305.30,357.00 L307.53,353.73 L304.09,357.74 L305.30,357.00 Z M378.98,235.26 L379.31,234.41 L378.63,234.98 L378.98,235.26 Z M375.16,232.22 L375.12,231.70 L374.62,231.79 L375.16,232.22 Z M386.01,216.08 L387.78,213.37 L387.68,212.85 L386.01,216.08 Z M444.10,195.10 L446.39,195.38 L446.18,195.10 L444.10,195.10 Z M469.11,209.16 L470.77,209.36 L470.65,208.79 L469.11,209.16 Z M393.52,249.99 L391.63,248.60 L383.93,245.13 L393.52,249.99 Z M386.76,259.81 L385.32,259.44 L386.63,260.14 L386.76,259.81 Z M387.24,259.93 L386.93,259.85 L386.93,260.18 L387.24,259.93 Z M380.46,233.44 L389.63,234.08 L380.93,233.04 L380.46,233.44 Z M463.88,227.69 L466.02,226.64 L465.34,226.85 L463.88,227.69 Z M366.62,180.37 L356.23,182.59 L329.07,190.30 L366.62,180.37 Z M478.77,357.06 L479.96,352.83 L478.49,355.82 L478.77,357.06 Z M484.72,352.91 L484.72,352.91 L486.19,355.12 L484.72,352.91 Z M506.58,367.49 L500.81,367.98 L509.27,367.28 L506.58,367.49 Z M510.35,379.23 L511.66,392.30 L509.50,369.78 L509.27,367.28 L510.35,379.23 Z M462.63,400.21 L463.65,400.01 L467.95,396.74 L462.63,400.21 Z M469.44,426.66 L474.03,421.83 L477.73,416.34 L469.44,426.66 Z M477.60,381.73 L479.47,380.81 L478.19,380.90 L477.60,381.73 Z M484.65,378.26 L481.19,379.51 L481.16,379.98 L484.65,378.26 Z M476.85,382.78 L475.57,384.58 L476.80,384.17 L476.85,382.78 Z M481.14,326.24 L480.88,326.50 L477.30,325.70 L480.80,327.12 L481.14,326.24 Z M485.48,325.98 L485.74,326.08 L485.65,325.94 L485.48,325.98 Z M487.20,328.30 L487.34,328.86 L487.71,329.08 L487.20,328.30 Z M484.19,332.40 L478.98,341.82 L478.99,341.83 L486.80,329.48 L487.86,330.29 L487.34,328.86 L484.19,332.40 Z M496.58,332.68 L500.58,337.06 L499.27,334.90 L496.58,332.68 Z M492.88,345.74 L492.88,345.75 L504.04,348.04 L506.48,347.95 L492.88,345.74 Z M473.26,339.98 L470.80,343.17 L470.88,344.35 L473.26,339.98 Z M512.20,285.29 L512.89,284.60 L500.88,295.23 L512.20,285.29 Z M541.13,305.51 L538.28,305.65 L537.32,306.08 L541.13,305.51 Z M482.68,324.73 L483.27,324.76 L485.27,322.19 L482.68,324.73 Z M502.73,276.74 L504.73,280.63 L505.79,281.15 L502.73,276.74 Z M567.90,229.70 L562.21,221.64 L556.90,215.39 L567.90,229.70 Z M572.59,232.55 L581.98,236.44 L567.90,229.70 L572.59,232.55 Z M571.44,109.21 L571.82,109.35 L571.49,108.90 L571.44,109.21 Z M574.60,110.35 L574.90,109.91 L573.48,109.95 L574.60,110.35 Z M577.06,111.23 L575.36,110.19 L574.90,110.46 L577.06,111.23 Z M573.52,125.68 L576.76,122.52 L576.13,122.42 L573.52,125.68 Z M602.44,120.67 L601.91,120.47 L601.44,121.04 L602.44,120.67 Z M605.91,119.36 L611.83,113.73 L604.48,119.90 L605.91,119.36 Z M625.68,176.06 L635.76,181.62 L625.45,175.88 L625.68,176.06 Z M594.52,218.86 L594.66,220.79 L595.98,216.08 L594.52,218.86 Z M549.98,140.56 L546.43,139.16 L548.97,140.48 L549.98,140.56 Z M557.74,158.48 L557.42,156.61 L556.98,157.16 L557.74,158.48 Z M557.36,166.54 L555.53,162.94 L555.74,164.73 L557.36,166.54 Z M554.51,184.81 L555.51,181.06 L554.02,184.87 L554.51,184.81 Z M596.14,301.83 L586.52,306.55 L599.68,300.30 L596.14,301.83 Z M584.29,315.86 L581.75,326.56 L586.52,306.55 L584.29,315.86 Z M570.59,339.00 L577.36,331.57 L581.75,326.56 L570.59,339.00 Z M597.37,351.65 L597.83,352.40 L597.99,350.47 L597.37,351.65 Z M619.45,354.85 L625.53,359.22 L643.99,372.44 L643.99,372.44 L619.45,354.85 Z M616.91,365.89 L615.52,367.78 L617.47,366.35 L616.91,365.89 Z M613.84,367.91 L614.68,368.39 L615.26,367.97 L613.84,367.91 Z M580.21,399.11 L585.91,400.15 L584.83,399.39 L580.21,399.11 Z M622.61,432.32 L641.00,415.64 L625.99,429.12 L622.61,432.32 Z M605.68,487.01 L607.82,487.82 L607.29,487.49 L605.68,487.01 Z M610.95,511.50 L610.91,511.33 L603.29,496.94 L610.95,511.50 Z M618.18,532.63 L618.53,531.82 L618.21,531.58 L618.18,532.63 Z M548.96,401.78 L547.59,400.91 L548.96,401.78 L548.96,401.78 Z M557.13,384.10 L549.97,400.00 L552.97,394.73 L557.13,384.10 Z M556.67,378.33 L560.68,378.69 L560.67,378.68 L556.67,378.33 Z M565.67,370.62 L565.16,371.44 L565.67,372.80 L565.67,370.62 Z M581.60,457.20 L586.95,468.01 L586.98,467.69 L581.60,457.20 Z M586.69,470.45 L584.83,474.01 L586.52,472.07 L586.69,470.45 Z M587.68,494.11 L586.98,493.54 L580.99,490.75 L581.21,490.97 L587.68,494.11 Z M562.21,518.69 L558.90,518.14 L580.21,522.72 L587.14,523.63 L562.21,518.69 Z M579.74,547.73 L581.37,547.74 L581.52,547.44 L579.74,547.73 Z M551.71,298.95 L557.82,299.67 L552.97,298.77 L551.71,298.95 Z M554.05,70.79 L556.20,74.73 L556.28,73.64 L554.05,70.79 Z M620.68,492.15 L613.84,490.13 L617.30,491.45 L620.68,492.15 Z M657.85,450.04 L664.39,446.43 L657.08,450.04 L643.53,462.20 L657.85,450.04 Z M701.09,466.86 L693.84,472.45 L693.84,472.45 L701.09,466.86 Z M717.78,441.91 L715.47,444.97 L719.09,441.65 L717.78,441.91 Z M678.00,469.15 L677.07,469.66 L676.00,470.68 L678.00,469.15 Z M628.60,518.03 L626.15,518.34 L617.14,522.58 L624.45,519.66 L628.60,518.03 Z M629.85,517.55 L631.53,516.88 L632.53,514.94 L629.85,517.55 Z M659.23,518.62 L656.31,523.21 L657.85,521.68 L659.23,518.62 Z M672.62,533.56 L671.93,534.12 L673.85,532.73 L672.62,533.56 Z M675.25,538.67 L674.31,536.41 L671.93,534.12 L675.25,538.67 Z M685.16,537.31 L688.75,538.73 L688.75,538.73 L685.16,537.31 Z M699.52,520.91 L700.32,520.22 L700.47,518.76 L699.52,520.91 Z M678.17,544.26 L677.54,544.19 L674.08,545.17 L678.17,544.26 Z M679.85,544.82 L685.85,545.03 L679.78,544.42 L679.85,544.82 Z M660.01,345.19 L660.92,343.94 L660.00,344.63 L660.01,345.19 Z M654.84,399.66 L657.63,402.44 L655.54,399.80 L652.54,398.48 L654.84,399.66 Z M615.22,380.55 L612.05,375.49 L612.14,376.18 L615.22,380.55 Z M648.61,195.72 L651.15,183.70 L649.31,190.58 L648.61,195.72 Z M680.70,226.78 L678.47,225.05 L676.02,223.65 L680.70,226.78 Z M633.38,89.48 L633.53,88.99 L633.53,89.13 L633.38,89.48 Z" /></g></svg>