<svg xmlns="http://www.w3.org/2000/svg" viewBox="0 0 1000 1000" width="1000" height="1000"><g fill="#cccccc" stroke="#222" stroke-width="2"><path d="M965.43,816.58 L964.48,818.45 L963.69,818.51 L962.39,815.58 L964.29,813.92 L965.93,814.85 L966.88,811.52 L968.82,813.39 L968.67,814.98 L965.43,816.58 Z M960.85,788.14 L956.72,788.21 L955.97,787.01 L956.92,786.01 L961.25,785.01 L962.34,787.01 L960.85,788.14 Z M507.87,832.97 L505.08,831.04 L502.74,826.97 L500.25,825.57 L494.02,825.64 L487.85,827.71 L479.23,827.44 L477.04,826.37 L476.30,823.98 L474.00,822.11 L473.56,818.11 L471.81,814.38 L468.53,814.45 L465.39,816.58 L460.66,817.32 L458.87,819.31 L455.73,816.12 L449.15,815.38 L447.81,810.32 L448.26,805.99 L443.28,803.59 L440.24,804.13 L439.54,797.73 L436.95,795.47 L437.35,788.74 L433.07,791.81 L431.67,789.67 L429.48,789.14 L426.20,791.67 L422.46,792.47 L420.77,790.87 L418.23,790.94 L416.44,787.28 L414.34,785.61 L415.09,783.41 L414.39,780.68 L411.36,777.55 L409.61,777.09 L407.87,772.29 L398.06,769.43 L396.96,766.83 L393.68,763.30 L394.62,759.57 L393.88,757.24 L388.15,753.24 L385.01,753.71 L382.42,751.37 L378.39,750.51 L374.30,746.58 L369.82,748.44 L368.98,741.52 L366.78,739.19 L366.24,735.66 L364.15,732.92 L360.81,722.60 L358.57,721.27 L357.32,718.34 L355.53,717.34 L353.04,713.34 L351.80,709.81 L352.64,705.95 L351.89,700.09 L344.87,692.23 L340.49,695.89 L338.75,694.63 L336.61,695.03 L332.87,687.63 L333.07,684.43 L331.08,683.57 L328.89,680.04 L323.61,680.24 L322.61,679.11 L321.27,679.71 L320.22,683.10 L318.58,683.50 L317.03,690.63 L311.21,688.43 L307.07,692.63 L304.58,692.23 L303.39,687.50 L298.81,684.63 L295.92,679.37 L294.18,678.77 L293.33,679.57 L291.69,678.44 L293.53,672.31 L290.24,669.05 L286.96,662.45 L280.88,657.13 L281.68,655.26 L280.93,650.40 L282.27,648.60 L282.12,646.47 L277.54,643.07 L272.31,642.14 L263.85,633.28 L259.47,633.08 L255.23,634.21 L252.44,632.02 L249.85,632.35 L239.25,624.16 L235.41,622.82 L233.17,619.29 L233.62,616.50 L231.48,609.57 L231.28,607.77 L230.28,607.10 L228.39,608.24 L224.36,603.77 L221.57,602.91 L216.39,602.84 L210.56,605.57 L209.12,604.51 L204.59,607.70 L201.30,606.37 L193.48,605.77 L189.40,603.31 L187.26,600.78 L189.65,598.18 L190.54,595.25 L189.70,592.92 L190.54,591.65 L190.44,588.39 L194.08,583.39 L193.28,579.06 L188.70,575.73 L180.98,575.00 L178.44,566.81 L178.14,561.88 L171.52,550.69 L167.39,551.35 L162.85,549.89 L155.93,549.69 L149.41,546.09 L147.52,546.16 L146.37,547.29 L143.73,543.63 L141.49,538.37 L137.41,533.90 L132.72,540.90 L128.79,533.24 L127.89,529.71 L123.11,526.84 L122.32,524.91 L120.03,523.85 L119.03,521.51 L117.54,520.38 L116.79,518.25 L114.30,519.38 L110.86,522.78 L107.38,520.98 L106.38,522.18 L104.70,520.39 L80.58,527.71 L78.44,523.91 L72.07,520.12 L67.24,519.12 L63.60,515.45 L62.41,515.39 L54.69,505.00 L43.13,492.47 L42.39,488.54 L39.80,485.21 L40.84,483.41 L40.25,481.88 L36.56,479.02 L35.17,479.88 L32.38,477.02 L29.44,476.35 L27.60,476.69 L25.46,480.68 L23.61,481.15 L22.97,479.95 L19.23,478.49 L19.23,470.76 L22.77,468.23 L23.46,465.56 L25.11,465.36 L28.84,462.23 L35.32,462.90 L38.01,461.17 L39.40,459.50 L41.24,454.64 L46.52,453.77 L55.44,445.25 L57.77,443.88 L57.48,440.12 L59.22,440.05 L61.26,436.39 L60.91,434.86 L61.96,432.66 L61.41,429.06 L59.82,428.33 L60.17,427.00 L62.26,426.00 L64.30,422.47 L67.49,421.47 L68.83,417.54 L75.50,416.67 L77.55,412.74 L82.28,413.41 L84.12,414.68 L88.20,414.74 L89.05,411.55 L90.64,411.61 L91.44,410.55 L92.34,406.62 L92.93,405.48 L96.62,406.48 L98.06,404.15 L105.53,399.62 L106.73,403.29 L113.15,405.62 L114.30,404.49 L117.29,406.48 L116.19,405.68 L117.14,401.69 L117.64,387.57 L118.88,384.57 L118.58,382.37 L114.75,382.37 L113.30,380.84 L115.94,379.84 L118.38,377.44 L119.38,375.25 L121.22,374.11 L121.82,371.85 L124.01,371.78 L123.66,369.98 L124.61,369.92 L123.51,369.05 L124.36,365.85 L123.76,363.19 L127.35,357.13 L129.99,354.60 L134.57,357.26 L137.26,356.40 L139.50,352.40 L139.70,350.13 L142.59,348.34 L137.85,342.47 L136.46,339.08 L134.72,337.95 L132.97,334.08 L134.57,332.48 L134.52,330.55 L135.51,328.95 L135.91,322.09 L134.82,318.96 L133.67,314.37 L133.67,306.04 L134.97,305.84 L135.56,301.68 L134.87,303.91 L129.59,298.25 L124.01,295.32 L117.83,283.86 L117.24,279.93 L112.21,275.33 L112.31,272.34 L111.16,269.01 L113.15,261.95 L115.34,258.88 L114.10,254.69 L111.11,252.49 L109.82,248.69 L113.45,244.30 L116.74,236.84 L117.74,232.44 L116.64,231.77 L116.49,228.24 L120.62,232.11 L122.42,235.37 L127.40,239.43 L130.78,239.77 L134.87,242.63 L140.29,242.76 L146.37,241.23 L147.76,242.96 L154.09,239.43 L157.38,238.77 L159.92,234.70 L159.07,225.51 L161.81,219.25 L167.83,221.52 L167.78,223.71 L168.93,224.45 L171.02,220.92 L172.56,220.38 L176.90,220.52 L177.89,219.65 L180.68,221.25 L185.86,214.32 L197.27,211.92 L199.51,213.32 L203.84,212.79 L207.52,214.46 L210.96,214.19 L214.75,218.19 L222.41,220.38 L231.03,218.32 L238.05,223.85 L240.24,226.98 L240.59,229.78 L238.60,236.24 L240.19,238.90 L240.44,237.83 L244.38,234.77 L249.80,231.77 L251.50,228.44 L251.85,225.38 L254.78,222.52 L258.22,221.05 L261.26,222.18 L264.55,218.92 L270.72,219.52 L273.71,217.45 L280.53,218.79 L282.47,216.92 L281.63,215.39 L282.22,213.46 L286.36,212.99 L290.24,214.59 L291.49,216.19 L289.79,220.65 L292.18,222.85 L291.89,226.18 L290.94,227.51 L291.29,229.78 L293.68,231.97 L293.18,233.84 L294.72,235.50 L302.69,234.64 L304.09,242.50 L303.14,242.56 L302.89,244.36 L303.44,245.56 L304.83,244.83 L306.53,247.83 L312.25,250.42 L315.09,250.09 L318.98,246.16 L321.57,247.63 L325.70,247.36 L327.64,249.69 L327.84,254.15 L329.39,255.89 L329.73,259.02 L332.82,262.08 L333.42,265.34 L329.68,270.61 L333.02,266.74 L334.37,268.81 L336.41,268.14 L339.64,271.07 L341.88,271.47 L343.93,274.40 L345.87,273.54 L349.31,274.87 L353.34,270.21 L354.29,272.34 L356.33,272.54 L358.57,276.13 L359.02,275.00 L360.06,276.47 L361.36,274.27 L365.69,273.40 L367.08,268.54 L372.11,263.94 L375.35,262.55 L380.53,263.55 L381.92,261.21 L384.71,261.81 L386.11,260.15 L390.14,264.81 L391.88,264.14 L394.52,267.14 L397.56,268.27 L400.75,268.41 L404.63,265.68 L404.04,263.35 L405.18,262.68 L406.58,258.48 L405.53,255.22 L406.13,253.82 L404.13,251.02 L402.94,246.56 L406.58,245.69 L407.02,243.90 L410.11,243.23 L410.71,240.57 L409.96,238.77 L410.76,237.50 L409.86,234.50 L412.75,232.51 L412.45,228.91 L413.55,229.24 L415.44,227.31 L415.19,224.71 L411.46,215.26 L415.29,215.79 L416.29,211.99 L418.68,209.73 L422.91,201.47 L425.25,200.47 L426.94,201.13 L434.51,187.48 L437.30,185.75 L441.34,179.62 L443.68,179.62 L449.40,183.75 L456.03,182.48 L457.14,182.96 L458.17,183.22 L458.57,178.55 L463.89,173.23 L461.70,166.77 L467.23,166.10 L471.41,160.24 L475.80,159.44 L478.29,156.71 L480.98,159.11 L488.45,160.30 L491.48,158.77 L492.98,159.17 L493.08,158.11 L495.67,155.64 L497.61,152.84 L497.56,149.91 L498.51,148.65 L499.00,145.25 L496.76,140.86 L497.11,137.06 L498.01,136.33 L497.86,131.93 L499.50,130.46 L500.05,127.67 L503.09,125.54 L503.49,122.01 L504.28,120.94 L500.60,116.61 L496.81,115.94 L496.31,114.41 L496.86,112.01 L498.66,110.02 L502.14,108.55 L502.64,105.75 L504.88,101.82 L500.20,92.37 L501.05,89.77 L500.10,88.97 L502.04,85.17 L501.69,83.17 L502.54,82.57 L502.49,78.38 L505.03,75.25 L500.10,71.92 L500.75,66.72 L504.73,60.93 L507.77,58.33 L507.82,56.73 L510.41,55.27 L511.21,53.27 L518.38,49.47 L522.51,48.74 L526.34,45.14 L531.57,37.55 L533.02,33.15 L534.26,31.89 L533.91,28.02 L535.26,26.62 L535.11,23.89 L536.65,23.23 L538.30,19.76 L539.39,19.23 L541.04,23.23 L547.16,24.69 L549.50,23.56 L553.98,23.76 L558.47,21.50 L560.21,23.83 L562.10,33.48 L567.68,32.69 L569.82,35.62 L578.68,42.14 L579.23,43.94 L578.53,46.21 L580.83,49.40 L587.90,48.60 L592.48,53.67 L596.96,55.27 L597.16,57.20 L598.75,55.73 L600.35,56.33 L602.84,60.19 L602.61,63.14 L604.53,61.79 L607.67,63.06 L611.35,62.39 L618.67,60.59 L621.11,58.86 L622.71,59.73 L625.50,57.66 L629.53,60.19 L631.97,59.26 L635.41,62.53 L637.00,61.73 L638.64,62.33 L640.73,66.32 L646.16,69.59 L647.76,67.52 L651.69,69.39 L653.58,68.59 L655.38,69.59 L656.42,68.52 L658.56,69.32 L663.19,73.58 L664.49,82.64 L667.38,85.90 L668.22,95.56 L670.76,97.49 L670.42,100.49 L672.96,104.49 L673.06,107.75 L672.16,110.82 L669.92,112.21 L669.07,114.08 L668.17,113.15 L661.80,112.55 L659.31,113.81 L654.03,112.81 L652.54,117.41 L651.54,126.73 L649.60,129.67 L645.07,132.26 L645.57,135.99 L644.37,136.33 L643.92,138.12 L645.02,144.72 L642.88,149.11 L645.22,159.17 L644.32,164.30 L646.31,166.90 L646.31,169.36 L647.71,172.89 L646.01,174.43 L645.42,176.22 L646.71,178.75 L647.06,183.82 L645.71,187.68 L648.65,191.94 L650.20,192.28 L652.84,195.07 L653.93,198.00 L656.07,200.40 L660.16,201.40 L659.46,205.40 L656.22,209.19 L655.58,211.39 L657.92,213.66 L659.26,216.79 L661.40,217.12 L661.00,225.18 L660.61,226.05 L664.24,229.91 L669.72,229.38 L672.66,233.17 L683.56,240.97 L686.85,246.76 L690.63,250.82 L687.75,252.69 L692.28,250.69 L696.31,253.22 L697.81,250.36 L697.76,247.09 L699.75,245.23 L701.74,245.29 L706.97,253.89 L707.62,256.55 L709.21,257.42 L709.36,263.68 L711.95,266.94 L711.80,271.94 L714.79,275.73 L713.29,278.20 L717.28,278.60 L719.67,280.73 L719.52,286.52 L717.28,289.46 L715.09,290.65 L717.58,292.72 L718.27,294.78 L717.92,297.58 L719.62,300.65 L719.22,307.31 L715.83,309.17 L714.24,312.63 L715.53,318.36 L714.59,320.43 L714.69,324.56 L712.40,329.89 L713.69,332.68 L713.64,335.75 L715.78,336.95 L715.93,339.81 L714.44,344.41 L718.82,347.00 L717.33,354.53 L719.92,353.73 L723.50,355.40 L724.30,361.59 L725.69,362.92 L725.59,365.65 L726.74,364.72 L726.09,363.19 L727.98,362.46 L727.29,359.13 L728.83,360.33 L729.48,357.53 L732.86,356.73 L733.01,354.26 L733.86,353.20 L732.91,350.53 L735.11,349.33 L735.35,347.14 L736.55,345.80 L738.84,345.61 L738.74,344.07 L740.93,343.21 L740.04,341.88 L741.23,341.68 L740.73,339.61 L741.78,337.75 L741.43,336.95 L742.92,335.81 L742.92,334.08 L745.07,334.42 L744.57,332.95 L745.41,331.62 L744.17,331.62 L745.41,329.82 L744.87,328.62 L745.86,326.96 L746.26,328.15 L748.25,328.95 L748.65,325.69 L750.94,321.29 L754.28,320.63 L756.77,321.89 L757.37,324.36 L756.52,328.15 L759.21,331.15 L760.70,338.54 L759.96,342.21 L758.16,345.34 L762.74,350.80 L770.21,363.46 L772.11,368.38 L773.40,370.05 L774.15,372.31 L773.05,378.71 L776.24,381.51 L780.03,383.64 L784.06,377.38 L785.95,376.44 L787.35,379.04 L792.82,379.37 L794.32,380.64 L796.01,380.17 L796.21,381.77 L800.89,388.83 L795.26,392.16 L805.12,387.30 L809.61,380.37 L812.89,379.11 L817.48,383.04 L820.76,383.17 L824.10,382.11 L824.45,378.71 L828.38,375.05 L834.86,373.78 L837.20,375.25 L838.84,373.18 L840.43,373.38 L845.76,378.91 L847.65,379.57 L848.80,390.76 L853.18,398.22 L858.36,406.75 L861.35,414.08 L866.98,418.87 L869.12,422.14 L869.52,425.67 L868.82,428.20 L873.10,435.66 L876.59,436.46 L877.98,435.19 L882.66,437.19 L884.36,435.46 L884.66,431.99 L888.09,427.86 L890.68,428.46 L891.83,428.93 L893.82,438.85 L897.30,438.72 L897.85,442.92 L899.35,444.85 L899.05,447.25 L904.33,447.38 L904.63,451.84 L906.27,455.04 L909.36,454.57 L911.80,456.04 L909.61,470.09 L910.05,473.56 L915.98,467.83 L916.38,469.03 L915.58,472.42 L918.12,475.76 L919.66,479.82 L923.20,482.75 L924.74,480.02 L928.53,480.22 L933.36,481.42 L935.25,480.75 L935.55,478.89 L937.49,476.75 L940.40,475.17 L940.08,473.76 L942.77,473.16 L944.61,470.36 L946.01,470.76 L948.65,467.16 L948.60,472.42 L950.04,477.02 L954.38,483.35 L953.73,481.75 L954.33,479.35 L955.52,478.29 L957.96,484.01 L959.50,484.48 L960.35,487.54 L961.75,488.08 L972.75,484.55 L978.13,481.48 L980.27,491.67 L979.28,492.14 L978.83,496.40 L979.37,497.87 L980.42,497.80 L980.77,500.33 L979.92,500.60 L978.43,498.80 L976.59,500.93 L973.70,501.60 L973.00,499.07 L971.61,498.87 L969.81,499.60 L967.82,502.53 L965.03,512.59 L963.24,526.98 L961.10,530.84 L958.56,530.84 L956.62,533.04 L956.87,527.71 L955.82,526.98 L956.22,527.71 L951.69,530.04 L947.05,536.30 L944.56,547.42 L943.42,558.95 L943.27,567.34 L943.77,570.54 L944.47,570.67 L944.27,572.54 L943.32,573.00 L943.62,576.93 L942.52,587.26 L942.57,591.32 L943.27,605.31 L945.21,610.83 L946.61,611.50 L946.91,612.83 L946.16,614.16 L944.17,614.10 L942.62,615.03 L940.53,614.03 L936.75,618.03 L935.25,617.69 L934.16,617.36 L933.31,619.23 L930.17,620.96 L930.12,622.42 L929.03,622.29 L928.03,625.49 L927.33,624.02 L925.84,624.16 L924.00,627.82 L922.90,626.42 L921.71,626.75 L921.56,623.89 L919.37,621.49 L917.03,618.76 L915.33,617.96 L910.95,619.83 L905.97,624.69 L901.64,630.88 L895.16,645.74 L890.88,658.19 L888.59,668.32 L887.29,689.10 L885.80,694.16 L885.70,695.42 L887.05,697.62 L887.69,705.28 L890.23,724.87 L891.93,735.79 L893.07,738.12 L895.36,748.38 L897.85,752.37 L902.88,754.71 L903.08,757.17 L905.92,759.10 L907.86,756.17 L908.66,756.37 L910.05,758.50 L911.25,758.37 L910.50,759.30 L911.50,762.30 L914.34,761.57 L915.58,762.17 L917.42,765.96 L918.42,766.16 L920.01,764.56 L923.10,766.36 L925.29,773.02 L927.98,773.49 L929.38,779.35 L931.57,779.75 L931.22,781.88 L931.82,783.15 L934.21,784.61 L936.65,782.48 L937.64,784.15 L935.65,785.01 L935.30,786.14 L936.25,790.81 L937.89,793.00 L937.04,794.27 L936.25,797.27 L936.85,801.06 L937.44,802.40 L939.53,801.86 L937.89,803.73 L939.83,809.79 L941.33,812.85 L951.54,829.30 L955.07,834.43 L959.01,840.43 L951.44,846.56 L949.25,850.02 L948.60,853.95 L949.35,857.41 L954.62,872.47 L953.03,872.53 L954.72,872.80 L954.87,873.47 L956.07,879.26 L960.50,888.59 L961.99,895.18 L961.30,900.11 L959.50,901.91 L957.01,903.11 L949.74,903.70 L941.88,900.71 L938.74,901.44 L935.90,904.04 L934.41,906.77 L933.11,915.16 L932.06,918.23 L930.97,922.69 L929.53,926.02 L924.45,927.15 L923.40,929.42 L922.15,935.21 L922.75,942.40 L922.65,951.06 L920.21,958.92 L917.12,963.38 L914.19,961.99 L910.70,959.12 L905.32,961.52 L902.78,963.45 L899.40,968.38 L895.56,973.31 L891.03,973.91 L890.78,972.04 L893.47,971.38 L893.57,967.71 L891.13,969.38 L887.39,968.31 L886.10,964.18 L877.68,965.25 L877.68,964.32 L874.84,967.58 L873.15,967.31 L872.16,970.51 L871.01,971.58 L869.86,976.51 L866.98,975.77 L864.44,976.97 L864.34,975.37 L858.61,976.04 L854.08,977.71 L853.33,979.64 L851.24,980.77 L847.40,976.64 L843.67,975.11 L843.27,970.84 L841.43,965.05 L839.74,963.58 L837.30,959.59 L836.05,955.13 L835.90,950.00 L832.46,946.93 L830.72,942.47 L829.08,941.80 L824.20,942.00 L817.33,939.54 L816.48,939.74 L816.53,944.00 L812.99,945.07 L808.06,947.07 L807.96,948.33 L802.73,947.73 L801.99,949.00 L798.75,950.06 L795.71,957.39 L790.68,956.72 L789.09,958.72 L788.04,955.46 L786.65,955.92 L783.26,959.39 L781.67,958.06 L777.78,960.19 L777.19,962.45 L771.26,961.79 L767.08,963.38 L764.59,961.79 L759.01,961.72 L755.92,958.32 L750.05,955.33 L747.85,955.46 L743.62,947.87 L740.53,947.80 L739.19,946.53 L731.22,944.40 L729.63,940.07 L726.14,934.34 L728.53,932.61 L723.25,935.94 L719.37,933.28 L715.39,934.41 L713.69,936.88 L710.06,937.21 L699.20,946.13 L695.02,953.06 L692.78,954.13 L689.29,951.20 L684.81,949.53 L679.58,949.73 L677.09,947.93 L674.40,949.00 L672.96,947.73 L675.05,945.20 L674.55,940.27 L676.54,936.74 L674.55,934.14 L674.15,931.35 L675.99,925.42 L678.23,923.22 L676.14,917.03 L673.45,918.23 L671.36,913.70 L670.86,910.23 L669.22,908.77 L662.65,910.57 L659.61,902.91 L655.82,897.58 L654.43,896.44 L652.29,897.91 L649.55,896.58 L646.11,890.38 L648.65,889.45 L647.66,886.59 L648.16,884.52 L651.64,881.39 L651.09,879.33 L647.06,875.93 L645.76,872.60 L641.18,873.47 L640.29,875.00 L636.40,873.40 L633.22,876.53 L631.77,880.26 L625.25,879.46 L621.21,876.66 L615.59,880.26 L613.05,877.13 L608.86,878.26 L604.13,877.79 L605.58,875.00 L606.22,870.87 L609.11,866.74 L606.97,863.27 L604.63,862.14 L598.90,865.14 L597.11,863.34 L597.11,860.21 L594.27,862.28 L590.44,861.21 L588.30,858.55 L587.95,856.15 L589.24,854.62 L589.94,849.62 L587.20,854.28 L585.46,854.42 L584.66,856.28 L584.31,854.28 L578.04,858.15 L574.85,852.88 L572.26,853.82 L570.17,856.41 L563.50,853.88 L557.97,856.01 L554.38,855.48 L550.65,856.68 L549.75,854.95 L549.65,849.69 L547.06,844.16 L556.72,834.23 L547.96,842.83 L549.00,840.10 L548.36,833.37 L542.73,829.44 L541.18,824.98 L539.54,825.18 L539.09,826.64 L537.10,822.91 L535.86,822.11 L534.86,822.31 L534.06,824.64 L528.09,824.24 L525.05,826.37 L522.46,825.18 L520.12,826.04 L515.84,824.78 L514.14,828.57 L511.01,828.31 L507.87,832.97 Z M94.09,408.32 L93.68,407.35 L92.34,406.62 L94.09,408.32 Z M951.84,875.34 L952.18,875.06 L953.03,872.53 L951.84,875.34 Z M919.02,943.67 L918.71,943.86 L922.75,942.40 L919.02,943.67 Z M776.09,424.53 L773.20,424.33 L773.90,424.93 L772.31,425.60 L776.09,424.53 Z M763.39,434.33 L762.79,429.33 L762.27,428.90 L763.39,434.33 Z M764.19,443.92 L765.06,443.48 L764.84,443.05 L764.19,443.92 Z M765.14,443.64 L764.79,444.12 L765.93,445.18 L765.14,443.64 Z M759.07,451.55 L760.05,449.56 L758.56,450.57 L759.11,450.71 L759.07,451.55 Z M759.02,452.54 L758.81,456.84 L759.41,453.91 L759.02,452.54 Z M756.92,550.02 L757.86,560.81 L757.42,552.82 L756.92,550.02 Z M765.99,630.43 L765.99,630.43 L766.28,632.48 L765.99,630.43 Z M778.48,692.56 L780.47,692.23 L781.92,691.16 L778.48,692.56 Z M821.81,693.73 L816.08,692.63 L818.02,693.29 L821.81,693.74 L821.81,693.73 Z M823.80,700.62 L825.59,703.35 L825.73,703.32 L823.80,700.62 Z M825.24,724.73 L823.39,715.61 L821.91,716.67 L823.20,715.81 L825.24,724.73 Z M817.94,717.82 L817.43,717.67 L816.63,718.80 L817.94,717.82 Z M816.23,723.33 L813.89,723.40 L818.12,723.60 L816.23,723.33 Z M814.03,761.68 L814.04,761.77 L814.13,761.80 L814.03,761.68 Z M819.05,763.75 L814.74,773.22 L817.13,769.16 L819.05,763.75 Z M815.22,778.21 L814.99,780.22 L815.43,780.40 L815.22,778.21 Z M824.60,833.43 L821.21,833.03 L820.16,832.84 L813.65,832.95 L813.84,833.03 L824.60,833.43 Z M817.48,843.56 L817.48,848.16 L817.57,847.89 L817.48,843.56 Z M814.54,857.05 L813.09,859.33 L814.29,858.15 L814.54,857.05 Z M812.17,860.24 L809.16,859.08 L812.00,860.41 L812.17,860.24 Z M814.44,874.40 L812.40,879.46 L812.40,879.46 L814.44,874.40 Z M813.02,882.48 L812.94,883.46 L813.31,883.90 L813.02,882.48 Z M814.14,884.90 L814.99,885.92 L817.38,886.65 L814.14,884.90 Z M828.03,886.92 L832.93,890.22 L832.76,889.98 L828.03,886.92 Z M819.47,912.83 L819.43,912.83 L820.86,913.70 L819.47,912.83 Z M822.11,917.29 L824.66,921.00 L824.50,920.22 L822.11,917.29 Z M825.42,924.66 L826.59,933.48 L826.14,928.15 L825.42,924.66 Z M599.30,99.43 L598.95,93.23 L598.45,91.83 L599.30,99.43 Z M576.44,282.73 L573.41,284.33 L576.74,282.70 L576.44,282.73 Z M565.49,293.52 L565.64,296.45 L566.06,292.06 L565.49,293.52 Z M581.31,322.01 L581.73,321.86 L582.12,319.96 L581.31,322.01 Z M579.83,322.03 L575.10,324.22 L580.55,322.28 L579.83,322.03 Z M567.13,448.31 L575.15,448.98 L569.72,448.05 L567.13,448.31 Z M564.94,449.98 L562.60,453.38 L567.13,448.31 L564.94,449.98 Z M579.01,456.20 L579.13,455.77 L578.29,453.11 L579.01,456.20 Z M576.79,458.50 L578.63,457.57 L578.80,456.96 L576.79,458.50 Z M643.08,475.36 L640.29,474.82 L633.07,473.82 L643.08,475.36 Z M648.65,442.19 L648.06,437.46 L649.30,447.98 L648.65,442.19 Z M673.01,451.18 L672.36,450.31 L670.61,449.18 L673.01,451.18 Z M697.96,453.38 L699.10,452.71 L694.52,452.78 L697.96,453.38 Z M700.99,448.11 L701.54,447.51 L699.20,449.78 L700.99,448.11 Z M704.16,453.93 L704.38,453.38 L704.06,453.08 L704.16,453.93 Z M703.28,454.91 L702.84,457.30 L704.04,454.23 L703.28,454.91 Z M701.32,473.19 L700.59,473.16 L697.91,476.02 L701.32,473.19 Z M704.88,470.24 L702.64,471.36 L702.38,472.31 L704.88,470.24 Z M705.35,470.15 L705.18,470.09 L705.05,470.16 L705.35,470.15 Z M707.32,471.16 L707.58,470.88 L707.28,470.79 L707.32,471.16 Z M726.74,502.46 L728.68,503.60 L728.60,504.08 L729.28,503.39 L726.74,502.46 Z M697.96,539.90 L698.80,540.39 L695.12,536.57 L697.96,539.90 Z M708.11,567.67 L709.56,568.34 L711.25,569.60 L710.85,568.54 L708.11,567.67 Z M701.24,632.15 L701.36,632.89 L702.59,618.03 L701.24,632.15 Z M706.67,644.54 L706.22,642.14 L704.98,637.54 L706.67,644.54 Z M696.99,677.95 L697.91,677.77 L702.09,674.98 L696.99,677.95 Z M695.64,677.86 L695.24,678.28 L695.98,678.14 L695.64,677.86 Z M691.28,690.50 L692.43,687.90 L692.38,687.29 L691.28,690.50 Z M713.94,708.17 L714.04,707.61 L712.80,707.08 L713.94,708.17 Z M713.49,712.74 L714.39,709.75 L714.13,709.56 L713.49,712.74 Z M705.72,738.79 L709.11,737.25 L709.52,736.43 L705.72,738.79 Z M710.36,752.37 L712.84,748.51 L712.70,748.51 L710.36,752.37 Z M708.91,754.31 L711.12,755.65 L710.50,754.90 L708.91,754.31 Z M703.58,772.02 L710.50,770.49 L698.70,772.49 L703.58,772.02 Z M702.64,792.14 L702.87,791.91 L702.12,791.72 L702.64,792.14 Z M717.97,800.52 L718.57,801.20 L716.33,803.20 L719.47,800.93 L717.97,800.52 Z M710.65,810.46 L709.96,812.25 L711.02,810.16 L710.65,810.46 Z M711.10,816.12 L710.87,816.09 L711.62,816.40 L709.96,812.25 L711.10,816.12 Z M727.54,827.71 L727.75,827.75 L724.75,824.84 L727.54,827.71 Z M682.37,906.05 L683.06,904.84 L684.66,898.98 L682.37,906.05 Z M136.41,298.98 L136.01,300.27 L138.05,297.65 L136.41,298.98 Z M140.89,289.06 L139.35,291.99 L142.08,287.89 L140.89,289.06 Z M144.78,283.19 L144.41,284.40 L145.92,282.14 L144.78,283.19 Z M148.81,279.46 L147.66,280.52 L151.70,279.00 L148.81,279.46 Z M164.44,247.73 L164.80,247.96 L167.78,248.43 L164.44,247.73 Z M196.29,296.32 L198.96,293.92 L196.47,295.72 L196.29,296.32 Z M230.66,291.82 L230.83,292.05 L231.62,292.40 L230.66,291.82 Z M241.29,302.04 L240.59,297.78 L241.34,310.64 L241.29,302.04 Z M272.12,276.67 L275.70,281.06 L271.88,275.66 L272.12,276.67 Z M271.47,273.87 L271.61,274.48 L273.01,270.67 L271.47,273.87 Z M464.64,305.51 L464.97,306.20 L465.29,299.98 L464.64,305.51 Z M484.06,270.94 L482.12,268.21 L484.23,271.37 L484.06,270.94 Z M486.85,277.93 L485.54,274.63 L485.56,275.73 L486.85,277.93 Z M546.96,312.97 L546.02,311.24 L546.23,310.83 L543.72,307.31 L546.96,312.97 Z M548.80,305.51 L548.21,307.05 L549.60,304.39 L548.80,305.51 Z M563.05,585.86 L563.65,585.59 L558.52,584.06 L563.05,585.86 Z M547.01,644.67 L558.07,651.00 L558.91,651.20 L550.60,646.07 L547.01,644.67 Z M94.66,409.67 L95.57,416.28 L95.28,411.15 L94.66,409.67 Z M258.20,451.86 L258.72,449.05 L256.88,451.91 L257.82,451.31 L258.20,451.86 Z M259.39,453.59 L260.76,455.57 L262.95,457.17 L259.39,453.59 Z M306.98,465.30 L309.47,467.83 L310.58,467.97 L306.98,465.30 Z M311.98,469.01 L313.10,471.16 L312.45,469.36 L311.98,469.01 Z M390.29,493.41 L387.05,497.14 L384.96,496.27 L387.10,497.20 L390.29,493.41 Z M404.04,454.17 L409.21,451.91 L403.02,454.22 L404.04,454.17 Z M451.79,435.52 L452.48,436.29 L450.60,431.33 L451.79,435.52 Z M452.69,427.46 L452.24,427.73 L450.60,431.33 L452.69,427.46 Z M451.84,504.73 L451.49,509.32 L451.98,509.28 L451.84,504.73 Z M455.13,509.92 L457.00,509.27 L454.70,509.48 L455.24,510.51 L455.13,509.92 Z M460.77,508.92 L463.05,509.32 L466.53,508.39 L460.77,508.92 Z M525.20,450.84 L526.24,451.78 L521.91,443.92 L525.20,450.84 Z M527.41,452.84 L527.94,453.31 L535.26,456.17 L527.41,452.84 Z M546.71,464.37 L550.76,462.87 L549.10,462.97 L546.71,464.37 Z M261.01,576.00 L260.73,576.52 L264.45,576.46 L259.81,575.80 L261.01,576.00 Z M304.68,545.56 L303.64,544.23 L300.55,542.03 L304.68,545.56 Z M345.72,590.00 L346.27,586.46 L345.62,589.39 L345.72,590.00 Z M346.37,593.78 L346.73,594.37 L346.27,593.22 L346.37,593.78 Z M425.15,544.76 L426.75,544.85 L421.96,543.43 L425.15,544.76 Z M434.51,545.29 L430.58,544.69 L429.73,545.02 L434.51,545.29 Z M478.64,620.49 L478.98,617.29 L477.95,621.15 L480.98,620.29 L478.64,620.49 Z M492.23,610.63 L488.89,611.10 L482.77,612.10 L492.23,610.63 Z M486.90,606.84 L487.80,604.62 L485.21,608.24 L486.90,606.84 Z M488.79,602.18 L488.58,602.03 L488.65,602.54 L488.79,602.18 Z M400.20,657.33 L395.47,656.39 L406.53,659.12 L400.20,657.33 Z M503.22,665.92 L498.80,665.98 L503.09,666.25 L503.22,665.92 Z M543.43,669.31 L545.42,671.85 L542.92,667.73 L543.43,669.31 Z M543.97,654.26 L546.07,654.46 L544.77,653.80 L540.94,654.26 L543.97,654.26 Z M547.36,685.03 L547.66,688.43 L547.01,675.51 L547.36,685.03 Z M552.79,693.89 L554.63,694.29 L550.95,692.03 L552.86,694.84 L552.79,693.89 Z M552.99,696.69 L552.95,696.13 L548.41,701.35 L552.99,696.69 Z M517.53,653.33 L515.25,651.02 L516.14,652.73 L517.53,653.33 Z M500.40,567.54 L500.85,563.01 L500.10,565.87 L500.40,567.54 Z M503.54,542.76 L497.90,542.67 L498.85,543.23 L503.54,542.76 Z M278.04,499.80 L275.05,491.01 L274.50,490.88 L278.04,499.80 Z M252.20,535.63 L251.91,535.94 L257.22,538.17 L252.20,535.63 Z M249.44,549.05 L249.66,548.36 L248.96,542.76 L249.44,549.05 Z M249.80,553.75 L251.50,558.01 L249.67,552.01 L249.80,553.75 Z M458.82,516.32 L457.12,514.08 L459.51,518.65 L458.82,516.32 Z M394.13,519.85 L394.92,526.44 L395.42,527.71 L394.13,519.85 Z M506.37,523.25 L508.87,519.91 L508.42,519.92 L506.37,523.25 Z M529.98,499.20 L529.03,495.34 L528.83,496.27 L529.98,499.20 Z M548.52,365.16 L547.56,365.65 L546.81,367.05 L548.52,365.16 Z M143.72,404.21 L143.53,403.29 L139.10,400.49 L143.72,404.21 Z M145.47,405.09 L144.77,405.06 L146.87,406.75 L149.11,407.55 L145.47,405.09 Z M168.61,370.52 L167.93,371.98 L168.01,373.25 L168.61,370.52 Z M177.40,356.86 L173.36,356.20 L175.15,356.60 L177.40,356.86 Z M201.95,366.39 L205.88,366.32 L192.88,365.65 L201.95,366.39 Z M236.12,354.13 L236.12,354.13 L230.88,353.40 L236.12,354.13 Z M299.87,359.88 L295.37,357.19 L297.91,359.39 L299.87,359.88 Z M317.93,358.13 L318.48,355.13 L316.93,360.07 L317.93,358.13 Z M356.63,412.55 L357.57,410.68 L359.56,405.55 L356.63,412.55 Z M375.35,442.25 L375.80,439.52 L375.75,433.79 L375.35,442.25 Z M444.42,380.51 L439.49,376.04 L438.35,375.67 L444.42,380.51 Z M487.20,404.55 L482.37,400.22 L477.69,397.23 L487.20,404.55 Z M495.91,417.85 L493.79,414.19 L494.87,416.87 L495.91,417.85 Z M499.18,419.62 L496.45,418.36 L497.56,419.41 L499.18,419.62 Z M505.51,427.92 L502.89,421.34 L504.73,427.20 L505.51,427.92 Z M454.43,426.40 L455.08,426.33 L459.36,423.40 L454.43,426.40 Z M171.47,412.28 L164.25,409.81 L169.63,411.75 L171.47,412.28 Z M168.88,449.78 L172.32,456.04 L171.22,453.44 L168.88,449.78 Z M168.08,460.70 L166.29,466.63 L166.17,468.98 L168.08,460.70 Z M502.34,314.97 L504.03,316.10 L505.68,316.90 L502.34,314.97 Z M194.78,301.51 L191.55,305.12 L192.34,305.04 L194.78,301.51 Z M293.58,321.36 L287.65,323.36 L289.35,325.36 L288.10,323.62 L293.58,321.36 Z M504.08,307.11 L502.44,311.24 L502.41,312.20 L504.08,307.11 Z M472.01,307.17 L469.17,306.97 L468.40,307.34 L472.01,307.17 Z M541.23,265.68 L543.48,269.87 L544.72,270.94 L541.23,265.68 Z M503.49,236.17 L505.38,237.37 L503.30,235.98 L503.49,236.17 Z M555.28,251.49 L552.80,250.89 L553.44,251.62 L555.28,251.49 Z M555.73,249.89 L555.35,249.33 L555.28,251.49 L555.73,249.89 Z M533.12,184.02 L527.09,191.28 L528.83,189.94 L533.12,184.02 Z M176.00,237.44 L183.12,241.17 L176.90,237.24 L176.00,237.44 Z M161.41,245.83 L162.46,246.49 L161.27,245.37 L161.41,245.83 Z M611.38,713.33 L611.85,714.81 L612.06,715.12 L611.38,713.33 Z M615.24,719.88 L617.63,723.47 L619.37,725.33 L615.24,719.88 Z M621.71,724.93 L621.66,726.60 L622.46,722.07 L621.71,724.93 Z M624.50,707.15 L631.44,711.33 L631.37,711.28 L624.50,707.15 Z M639.43,720.15 L641.23,725.93 L640.54,722.47 L639.43,720.15 Z M647.51,725.07 L649.25,722.53 L653.88,715.67 L647.51,725.07 Z M693.32,728.53 L701.49,738.65 L695.42,730.66 L693.32,728.53 Z M700.10,725.00 L701.14,721.40 L702.34,716.34 L700.10,725.00 Z M650.50,767.36 L652.54,763.43 L649.75,767.68 L650.50,767.36 Z M665.83,764.96 L669.52,764.76 L661.40,764.90 L665.83,764.96 Z M679.23,784.48 L682.67,784.21 L678.83,784.25 L679.23,784.48 Z M693.33,800.28 L694.27,801.34 L693.71,799.88 L693.33,800.28 Z M692.78,800.86 L693.67,804.39 L693.14,800.48 L692.78,800.86 Z M706.72,816.05 L707.68,815.74 L703.88,815.32 L706.72,816.05 Z M674.90,825.64 L682.17,827.51 L673.30,824.78 L672.81,824.58 L674.90,825.64 Z M681.32,837.50 L684.03,843.75 L683.41,841.43 L681.32,837.50 Z M625.35,726.86 L626.52,727.70 L626.82,727.31 L625.35,726.86 Z M630.38,717.14 L630.34,718.52 L630.86,716.25 L630.38,717.14 Z M687.90,756.10 L683.86,754.37 L682.75,754.65 L687.90,756.10 Z M692.18,766.43 L693.48,767.64 L692.12,766.31 L692.18,766.43 Z M694.92,802.06 L696.06,801.93 L694.53,801.63 L694.92,802.06 Z M681.54,754.94 L680.87,755.10 L675.69,761.03 L681.54,754.94 Z M605.43,632.75 L605.48,637.08 L605.92,640.68 L606.37,640.07 L605.43,632.75 Z M612.05,595.78 L611.61,594.17 L611.65,600.78 L612.05,595.78 Z M638.84,621.89 L638.39,621.22 L634.26,617.29 L638.84,621.89 Z M666.58,597.71 L663.69,594.58 L659.66,590.32 L666.58,597.71 Z M690.24,627.95 L692.53,626.35 L689.79,628.02 L690.81,628.72 L690.24,627.95 Z M601.79,667.78 L601.89,666.18 L600.89,669.65 L601.79,667.78 Z M609.06,666.72 L606.42,666.72 L609.62,666.97 L609.06,666.72 Z M622.81,685.90 L622.31,683.90 L622.38,687.51 L622.81,685.90 Z M632.37,679.64 L633.01,681.08 L632.48,677.80 L632.37,679.64 Z M633.76,670.45 L631.72,673.11 L642.48,662.25 L633.76,670.45 Z M660.71,671.63 L651.09,675.44 L660.46,671.91 L660.71,671.63 Z M661.67,669.96 L661.17,671.13 L663.29,668.78 L661.67,669.96 Z M641.67,690.78 L642.85,690.90 L642.48,690.50 L641.67,690.78 Z M675.40,693.63 L678.38,692.16 L681.07,690.43 L675.40,693.63 Z M661.90,654.86 L665.29,652.53 L662.95,653.60 L661.90,654.86 Z M669.92,657.93 L671.16,658.59 L665.29,652.53 L669.92,657.93 Z M605.95,640.90 L606.02,641.54 L611.75,641.67 L605.95,640.90 Z M625.10,638.28 L624.54,639.56 L626.40,637.73 L625.10,638.28 Z M620.07,649.67 L620.18,648.96 L619.17,651.06 L620.07,649.67 Z M675.59,639.54 L676.64,638.34 L674.91,639.41 L675.59,639.54 Z M608.27,517.58 L607.17,517.72 L612.40,517.72 L608.27,517.58 Z M635.71,530.11 L635.23,529.97 L637.30,533.10 L635.71,530.11 Z M632.17,554.02 L629.98,555.22 L626.49,558.55 L632.17,554.02 Z M637.55,554.75 L637.68,554.72 L632.17,554.02 L637.55,554.75 Z M639.79,551.02 L638.55,554.51 L638.94,554.42 L639.79,551.02 Z M599.80,573.87 L596.46,574.00 L603.14,574.40 L599.80,573.87 Z M665.44,476.02 L666.41,472.89 L666.37,472.86 L663.99,478.15 L665.44,476.02 Z M677.29,468.16 L680.31,467.33 L679.78,467.23 L677.29,468.16 Z M663.69,464.23 L663.59,466.56 L663.86,466.68 L663.69,464.23 Z M677.63,451.70 L677.63,451.70 L675.69,452.78 L677.63,451.70 Z M725.89,369.98 L726.69,368.72 L723.60,373.31 L725.89,369.98 Z M694.47,406.35 L695.70,405.87 L692.18,406.62 L694.47,406.35 Z M709.51,430.46 L705.72,427.93 L706.02,428.33 L709.51,430.46 Z M607.84,275.16 L606.54,275.34 L607.37,275.90 L607.47,275.33 L607.84,275.16 Z M652.69,249.96 L649.35,254.22 L650.11,254.35 L650.05,253.75 L652.69,249.96 Z M613.54,391.13 L610.00,389.79 L611.95,391.10 L613.54,391.13 Z M624.60,388.30 L614.10,391.15 L614.79,391.16 L624.60,388.30 Z M638.10,370.18 L639.29,377.11 L638.27,369.99 L638.10,370.18 Z M639.32,368.16 L640.93,366.32 L639.49,367.45 L639.24,365.25 L639.32,368.16 Z M701.14,372.11 L696.01,374.78 L703.28,371.89 L701.14,372.11 Z M580.30,433.90 L585.86,439.85 L580.33,433.86 L580.30,433.90 Z M674.75,399.22 L676.18,403.49 L676.29,402.95 L674.75,399.22 Z M676.45,404.27 L676.45,404.27 L686.70,400.82 L676.45,404.27 Z M673.70,412.61 L673.40,415.61 L673.86,412.38 L673.70,412.61 Z M590.69,316.23 L594.94,316.06 L593.72,315.77 L590.69,316.23 Z M606.27,315.63 L608.41,315.63 L608.82,315.07 L606.27,315.63 Z M609.09,314.68 L609.31,314.37 L605.63,308.90 L609.09,314.68 Z M606.62,280.46 L607.32,276.25 L606.72,277.00 L606.62,280.46 Z M604.73,323.62 L606.07,327.82 L604.54,320.44 L604.73,323.62 Z M722.61,718.20 L722.90,715.74 L727.54,718.74 L722.86,715.58 L722.61,718.20 Z M745.88,704.77 L745.61,704.22 L736.15,700.82 L742.43,703.15 L745.88,704.77 Z M775.29,704.32 L774.59,703.37 L774.80,703.82 L775.29,704.32 Z M782.62,722.73 L780.52,722.87 L783.26,722.80 L779.18,715.94 L782.62,722.73 Z M767.33,738.19 L770.41,741.72 L767.08,737.19 L766.23,735.26 L767.33,738.19 Z M766.21,757.30 L766.08,757.04 L756.42,759.17 L766.21,757.30 Z M766.63,758.17 L766.44,757.77 L764.29,770.22 L766.63,758.17 Z M763.34,770.65 L763.57,770.83 L764.29,770.22 L763.34,770.65 Z M765.83,771.89 L763.86,771.05 L765.98,772.67 L765.83,771.89 Z M765.93,780.22 L764.94,778.35 L765.82,780.59 L765.93,780.22 Z M767.92,782.21 L766.15,781.44 L766.43,782.15 L767.92,782.21 Z M759.14,788.35 L758.76,787.14 L758.55,788.08 L759.14,788.35 Z M769.37,809.99 L767.28,806.53 L768.94,810.17 L769.37,809.99 Z M775.84,830.70 L775.11,829.54 L775.19,830.10 L775.84,830.70 Z M751.54,844.69 L749.10,845.69 L752.54,844.89 L753.18,844.56 L751.54,844.69 Z M762.75,862.91 L757.81,857.48 L762.50,862.81 L762.75,862.91 Z M766.83,864.41 L765.90,864.21 L767.04,864.67 L766.83,864.41 Z M775.12,882.63 L774.05,875.80 L774.55,881.32 L775.12,882.63 Z M779.63,891.98 L779.33,893.71 L780.53,890.81 L780.49,890.78 L779.63,891.98 Z M736.45,836.17 L735.70,839.23 L738.04,831.90 L736.45,836.17 Z M747.85,831.97 L747.75,832.23 L751.09,829.50 L747.85,831.97 Z M757.36,813.46 L757.76,811.89 L757.27,812.85 L757.36,813.46 Z M757.78,811.84 L758.79,810.97 L758.31,810.79 L757.78,811.84 Z M762.35,811.19 L766.33,811.25 L767.45,810.79 L762.35,811.19 Z M723.50,867.74 L721.61,868.94 L725.10,867.93 L723.50,867.74 Z M754.03,889.52 L754.33,888.39 L755.06,888.27 L753.74,887.53 L754.03,889.52 Z M747.56,932.35 L753.93,927.28 L749.20,930.55 L747.56,932.35 Z M699.35,857.81 L700.20,856.48 L699.93,856.17 L699.35,857.81 Z M699.99,856.00 L703.46,856.76 L700.20,855.41 L699.99,856.00 Z M705.81,857.28 L707.32,857.61 L709.81,856.61 L705.81,857.28 Z M741.98,849.35 L740.98,852.62 L741.24,853.54 L741.98,849.35 Z M749.10,863.74 L752.34,865.27 L752.83,865.09 L749.10,863.74 Z M746.56,873.67 L747.05,873.63 L744.82,871.47 L746.56,873.67 Z M755.27,884.19 L755.32,883.40 L753.53,886.05 L755.27,884.19 Z M749.15,837.50 L747.42,833.07 L747.31,833.37 L749.15,837.50 Z M726.29,757.37 L727.39,757.30 L724.55,756.50 L726.29,757.37 Z M724.05,767.76 L724.21,768.16 L724.43,767.03 L724.05,767.76 Z M737.80,776.55 L738.14,772.36 L737.84,768.29 L737.80,776.55 Z M750.05,765.59 L750.00,766.29 L751.04,767.83 L750.05,765.59 Z M738.37,787.30 L736.59,792.16 L736.95,791.67 L738.37,787.30 Z M742.18,793.94 L738.48,792.33 L739.24,793.27 L742.18,793.94 Z M744.07,798.93 L743.67,797.88 L744.01,799.86 L744.07,798.93 Z M744.02,802.09 L742.18,807.19 L744.07,802.40 L746.66,805.06 L744.02,802.09 Z M730.67,821.51 L739.84,819.05 L734.76,820.31 L730.67,821.51 Z M743.42,819.91 L746.41,819.85 L746.01,819.38 L739.84,819.05 L743.42,819.91 Z M747.31,820.91 L746.86,820.39 L747.31,824.71 L747.31,820.91 Z M729.88,801.53 L730.52,800.33 L726.59,806.59 L729.88,801.53 Z M757.86,786.08 L757.96,787.81 L758.44,788.03 L757.86,786.08 Z M739.10,785.06 L739.29,784.48 L739.29,778.88 L739.10,785.06 Z M752.04,774.22 L752.02,774.32 L755.67,769.63 L752.04,774.22 Z M751.95,774.89 L751.69,776.95 L752.34,775.09 L751.95,774.89 Z M716.93,786.14 L717.71,787.81 L716.68,782.95 L716.93,786.14 Z M727.84,779.08 L727.74,776.62 L727.38,779.44 L727.84,779.08 Z M728.58,748.71 L723.14,748.64 L725.39,748.78 L728.58,748.71 Z M730.92,739.59 L729.13,739.12 L739.09,742.45 L730.92,739.59 Z M738.04,745.05 L740.88,739.32 L740.94,738.83 L739.09,742.45 L738.04,745.05 Z M745.46,724.73 L744.61,729.62 L744.82,728.93 L745.46,724.73 Z M747.68,731.58 L747.85,730.99 L749.30,731.66 L744.82,728.93 L747.68,731.58 Z M753.98,729.79 L755.87,728.79 L749.30,731.66 L753.98,729.79 Z M745.94,761.73 L744.92,757.97 L745.71,761.50 L740.29,760.63 L745.94,761.73 Z M746.33,763.20 L746.66,765.30 L746.36,763.30 L746.33,763.20 Z M727.59,753.71 L727.59,756.24 L728.53,758.44 L727.59,753.71 Z M729.53,757.16 L729.73,756.90 L729.63,756.64 L729.53,757.16 Z M740.73,731.66 L735.60,738.05 L736.85,737.25 L740.73,731.66 Z M748.15,705.62 L747.66,705.60 L756.67,709.81 L748.15,705.62 Z M772.36,695.96 L774.75,698.36 L780.27,702.95 L772.36,695.96 Z M783.56,703.52 L782.37,702.82 L780.27,702.95 L783.56,703.52 Z M743.38,541.07 L741.83,546.82 L743.07,542.76 L743.54,542.72 L743.38,541.07 Z M756.47,546.36 L756.75,546.30 L756.82,544.29 L756.47,546.36 Z M726.29,692.69 L729.13,694.89 L727.54,693.09 L726.29,692.69 Z M734.90,669.90 L735.01,669.58 L734.16,666.65 L734.90,669.90 Z M747.19,665.77 L748.05,666.72 L747.46,665.58 L747.19,665.77 Z M737.16,691.84 L737.20,691.50 L732.82,690.03 L737.16,691.84 Z M733.06,654.06 L729.58,651.06 L734.71,656.36 L733.06,654.06 Z M736.60,658.99 L736.26,658.51 L736.53,659.77 L736.60,658.99 Z M736.25,662.92 L736.46,660.58 L735.95,661.26 L736.25,662.92 Z M724.15,593.89 L724.25,591.98 L723.85,593.45 L724.15,593.89 Z M726.39,591.92 L727.54,593.92 L726.19,590.32 L726.39,591.92 Z M729.18,593.72 L729.65,592.80 L727.54,593.92 L729.18,593.72 Z M730.66,590.87 L732.57,587.19 L731.02,589.12 L730.66,590.87 Z M739.59,580.48 L740.33,582.26 L739.64,580.46 L739.59,580.48 Z M718.22,619.43 L718.06,620.11 L719.42,619.23 L718.22,619.43 Z M717.73,621.56 L718.57,623.36 L717.86,620.98 L717.73,621.56 Z M711.60,630.75 L706.02,633.68 L710.31,631.88 L711.60,630.75 Z M728.30,577.45 L729.23,576.00 L728.33,577.26 L728.30,577.45 Z M747.85,567.54 L746.81,564.54 L747.56,566.87 L747.85,567.54 Z M708.06,457.24 L707.37,459.30 L710.14,454.66 L708.06,457.24 Z M713.59,445.78 L712.99,451.11 L713.04,452.24 L713.59,445.78 Z M714.79,454.11 L719.12,457.24 L713.04,452.24 L714.79,454.11 Z M754.02,451.78 L753.68,452.58 L753.53,455.44 L754.02,451.78 Z M729.84,503.60 L732.27,506.26 L730.57,503.86 L729.84,503.60 Z M746.41,497.14 L750.90,495.10 L750.39,495.07 L746.41,497.14 Z M720.07,551.22 L723.95,550.95 L717.53,550.89 L720.07,551.22 Z M732.96,539.03 L732.62,538.63 L733.71,541.36 L732.96,539.03 Z M731.81,536.59 L730.57,530.77 L730.87,534.24 L731.81,536.59 Z M727.29,389.57 L729.83,390.10 L733.21,389.37 L727.29,389.57 Z M741.73,427.86 L739.09,429.73 L744.47,426.87 L741.73,427.86 Z M749.70,426.80 L753.65,427.84 L752.93,427.07 L749.70,426.80 Z M748.87,431.39 L749.25,430.46 L748.80,428.06 L748.87,431.39 Z M799.75,894.85 L806.02,901.77 L807.51,902.88 L799.75,894.85 Z M795.96,927.08 L796.17,927.44 L796.30,926.70 L795.96,927.08 Z M799.85,933.74 L802.29,936.81 L797.76,930.18 L799.85,933.74 Z M778.77,787.15 L778.83,786.41 L778.18,787.54 L778.77,787.15 Z M779.08,788.47 L779.33,788.29 L779.01,788.19 L779.08,788.47 Z M783.54,789.88 L782.96,789.21 L782.27,789.08 L783.54,789.88 Z M784.76,792.54 L784.96,791.54 L784.38,790.86 L784.76,792.54 Z M790.28,793.27 L791.18,793.07 L789.09,793.40 L790.28,793.27 Z M800.34,780.55 L799.50,784.01 L801.59,778.68 L803.28,775.35 L800.34,780.55 Z M804.08,764.03 L802.93,765.70 L800.91,769.89 L804.08,764.03 Z M782.45,851.89 L781.64,852.83 L782.12,852.68 L782.45,851.89 Z M790.04,855.48 L789.20,856.20 L792.58,855.55 L790.04,855.48 Z M797.51,869.54 L797.45,869.14 L795.91,870.60 L797.51,869.54 Z M811.15,878.33 L808.16,879.93 L811.36,878.52 L811.15,878.33 Z M794.27,877.86 L794.60,877.62 L793.67,877.73 L794.27,877.86 Z M800.54,883.66 L799.80,885.72 L800.14,886.25 L800.54,883.66 Z M782.62,878.93 L780.62,882.59 L782.22,880.53 L782.62,878.93 Z M801.99,826.97 L805.74,829.15 L805.74,829.15 L801.99,826.97 Z M801.94,850.35 L802.21,850.99 L802.83,846.02 L801.94,850.35 Z M790.28,721.87 L784.15,724.27 L786.20,723.60 L790.28,721.87 Z M786.25,726.20 L785.20,728.86 L786.55,726.00 L786.59,726.04 L786.20,723.60 L786.25,726.20 Z M789.94,726.80 L787.30,726.74 L787.89,727.33 L789.94,726.80 Z M799.10,751.11 L801.94,752.17 L797.84,749.89 L799.10,751.11 Z M780.92,779.60 L783.21,778.15 L780.92,779.48 L780.92,779.60 Z M792.38,773.95 L794.06,771.94 L790.37,774.78 L792.38,773.95 Z M778.63,784.48 L778.96,784.99 L779.08,783.75 L778.63,784.48 Z M780.82,782.01 L781.72,783.95 L780.86,781.13 L780.82,782.01 Z M792.08,735.32 L791.81,735.44 L792.48,736.59 L792.08,735.32 Z M789.69,733.39 L787.20,734.06 L790.88,733.86 L789.69,733.39 Z M777.20,736.13 L775.89,736.19 L777.14,736.39 L777.20,736.13 Z M808.71,709.48 L808.86,713.48 L808.86,707.04 L808.71,709.48 Z M799.10,717.21 L799.98,716.49 L798.63,716.87 L799.10,717.21 Z M807.27,722.33 L806.87,718.51 L806.72,718.67 L807.27,722.33 Z M809.21,701.35 L809.04,704.02 L809.51,704.02 L809.26,702.22 L810.85,703.55 L809.21,701.35 Z M801.64,691.30 L801.08,691.14 L808.06,695.96 L801.64,691.30 Z M872.69,447.34 L873.40,446.38 L873.41,445.95 L872.69,447.34 Z M859.06,463.17 L858.86,463.65 L859.95,461.70 L859.06,463.17 Z M860.05,476.49 L860.30,476.77 L859.51,472.16 L860.05,476.49 Z M860.92,477.47 L863.04,476.75 L860.75,477.28 L860.92,477.47 Z M859.64,582.70 L860.05,582.19 L859.82,581.92 L859.64,582.70 Z M858.61,622.09 L858.53,622.85 L860.40,618.89 L858.61,622.09 Z M858.26,625.29 L858.86,626.89 L858.35,624.49 L858.26,625.29 Z M873.40,641.21 L872.81,640.61 L871.66,640.14 L873.40,641.21 Z M875.24,665.19 L875.99,670.58 L876.02,671.48 L876.49,672.58 L875.24,665.19 Z M872.65,679.04 L873.15,680.04 L871.86,680.77 L874.25,679.97 L872.65,679.04 Z M872.30,694.23 L871.59,695.43 L876.49,691.63 L872.30,694.23 Z M871.53,695.53 L873.65,700.62 L871.53,695.53 L871.53,695.53 Z M876.57,700.44 L876.84,700.42 L876.94,701.62 L877.36,699.96 L876.57,700.44 Z M877.60,704.19 L878.43,704.08 L877.68,704.08 L877.60,704.19 Z M875.46,707.00 L876.84,705.82 L876.86,705.17 L875.46,707.00 Z M874.84,707.81 L878.13,705.35 L875.41,707.08 L874.84,707.81 Z M873.10,705.82 L876.94,710.28 L874.84,707.81 L873.10,705.82 Z M876.39,712.68 L876.70,712.69 L876.94,710.28 L876.39,712.68 Z M878.58,717.94 L878.38,714.81 L877.58,712.74 L878.58,717.94 Z M876.19,718.67 L876.39,719.60 L872.95,721.47 L876.42,719.66 L876.19,718.67 Z M868.87,721.14 L870.01,721.00 L871.36,720.00 L868.87,721.14 Z M879.34,771.95 L879.92,774.42 L879.82,772.02 L879.34,771.95 Z M863.49,774.49 L871.16,773.22 L876.04,771.42 L863.49,774.49 Z M855.72,789.01 L857.22,787.21 L858.56,784.88 L855.72,789.01 Z M869.86,812.32 L871.41,817.52 L871.17,818.03 L871.58,818.00 L869.86,812.32 Z M870.91,818.58 L872.16,819.45 L871.07,818.23 L870.91,818.58 Z M867.42,824.98 L868.37,823.91 L868.72,822.51 L867.42,824.98 Z M867.95,833.07 L868.12,832.70 L868.32,829.90 L867.95,833.07 Z M882.71,833.77 L881.07,833.17 L879.91,833.36 L882.71,833.77 Z M884.11,840.16 L883.21,835.03 L882.71,833.77 L884.11,840.16 Z M885.81,846.08 L887.56,843.29 L886.45,844.42 L885.81,846.08 Z M884.21,850.22 L884.51,851.07 L885.41,847.10 L884.21,850.22 Z M886.25,855.88 L885.85,853.22 L884.89,852.11 L886.25,855.88 Z M878.48,871.87 L878.28,875.06 L879.33,869.54 L878.48,871.87 Z M874.05,900.37 L871.86,904.77 L873.35,902.97 L874.09,900.36 L874.05,900.37 Z M889.13,895.82 L888.64,891.25 L888.64,894.51 L889.13,895.82 Z M914.44,902.37 L913.69,898.04 L913.59,900.31 L914.44,902.37 Z M913.34,904.30 L913.32,905.09 L914.44,902.37 L913.34,904.30 Z M904.87,906.04 L908.31,906.37 L913.29,906.50 L904.87,906.04 Z M907.59,916.19 L907.68,919.08 L908.06,916.36 L907.59,916.19 Z M906.62,923.42 L906.87,924.85 L907.19,922.59 L906.62,923.42 Z M907.16,926.48 L908.51,926.75 L907.10,926.12 L907.16,926.48 Z M903.28,931.15 L901.89,933.01 L907.16,926.48 L903.28,931.15 Z M904.82,941.94 L904.92,941.98 L904.43,940.34 L904.82,941.94 Z M909.70,955.99 L907.26,952.46 L909.16,955.92 L909.89,956.08 L909.01,952.79 L909.70,955.99 Z M825.34,414.34 L825.00,414.89 L825.71,414.53 L825.34,414.34 Z M829.60,416.53 L827.58,415.50 L828.68,416.34 L829.60,416.53 Z M832.22,417.07 L836.06,415.96 L835.25,415.68 L831.10,416.84 L832.22,417.07 Z M835.85,427.20 L837.09,421.99 L836.45,423.34 L835.85,427.20 Z M830.62,434.66 L828.08,439.05 L830.91,434.71 L830.62,434.66 Z M831.27,441.95 L832.76,437.66 L831.32,440.65 L831.27,441.95 Z M832.51,445.05 L831.25,442.63 L831.22,443.38 L832.51,445.05 Z M826.96,452.07 L826.99,451.51 L824.25,449.98 L826.96,452.07 Z M825.74,473.36 L828.08,475.36 L832.37,478.62 L828.98,475.49 L825.74,473.36 Z M839.69,529.57 L832.42,528.77 L831.62,528.77 L839.69,529.57 Z M841.63,527.24 L842.82,525.04 L839.69,529.57 L841.63,527.24 Z M829.53,534.77 L831.92,534.50 L830.22,534.37 L830.48,533.35 L829.53,534.77 Z M838.49,541.03 L838.41,540.72 L838.40,541.36 L838.49,541.03 Z M837.59,544.36 L838.10,542.46 L837.64,543.06 L837.59,544.36 Z M808.76,592.31 L819.07,581.79 L808.76,592.31 L808.76,592.31 Z M809.57,593.01 L808.77,592.32 L809.01,592.98 L809.57,593.01 Z M829.73,610.70 L832.18,612.71 L832.02,612.10 L825.29,607.90 L829.73,610.70 Z M824.07,636.94 L825.84,634.15 L824.07,636.94 L824.07,636.94 Z M835.95,648.27 L835.15,649.00 L834.01,650.47 L835.95,648.27 Z M848.00,656.39 L841.18,651.66 L835.95,648.27 L848.00,656.39 Z M824.39,664.37 L824.93,662.87 L824.65,663.59 L824.39,664.37 Z M827.39,670.18 L824.07,665.35 L824.07,665.36 L827.14,670.74 L831.01,671.18 L830.22,670.45 L827.39,670.18 Z M829.93,682.77 L829.13,677.84 L829.33,679.17 L829.93,682.77 Z M781.52,427.80 L783.20,427.00 L783.20,427.00 L781.52,427.80 Z M803.08,431.45 L803.38,431.33 L803.36,430.66 L803.08,431.45 Z M807.17,426.93 L805.03,426.87 L803.28,428.60 L805.92,426.93 L807.17,426.93 Z M804.78,431.06 L804.78,432.19 L806.67,434.53 L804.78,431.06 Z M808.20,451.41 L808.61,451.71 L808.96,448.91 L808.20,451.41 Z M817.05,442.62 L817.44,442.60 L817.23,442.38 L817.05,442.62 Z M818.05,443.21 L818.42,444.25 L819.42,444.58 L818.05,443.21 Z M792.33,520.12 L794.82,518.85 L792.72,519.38 L792.33,520.12 Z M798.25,508.06 L794.72,511.72 L799.02,507.42 L796.68,507.54 L798.25,508.06 Z M803.53,509.59 L800.89,507.33 L800.04,507.37 L803.53,509.59 Z M818.62,513.94 L818.77,511.92 L818.42,513.72 L818.62,513.94 Z M788.69,634.01 L785.27,632.51 L786.15,633.41 L788.69,634.01 Z M789.04,635.15 L789.48,635.75 L788.69,634.01 L789.04,635.15 Z M803.45,666.51 L809.16,665.05 L805.17,665.45 L803.45,666.51 Z M807.86,683.64 L809.41,686.03 L809.75,686.04 L807.86,683.64 Z M813.69,678.84 L808.46,676.58 L809.76,677.24 L813.69,678.84 Z M794.97,649.07 L789.14,649.47 L785.55,649.73 L794.97,649.07 Z M820.11,662.59 L818.42,661.59 L817.43,661.84 L820.11,662.59 Z M776.89,554.06 L777.44,554.68 L778.07,554.86 L776.89,554.06 Z M795.02,570.34 L795.76,572.47 L795.92,572.80 L795.02,570.34 Z M798.10,577.47 L800.59,582.79 L798.55,577.80 L798.10,577.47 Z M791.48,600.04 L792.08,603.17 L791.48,596.78 L791.48,600.04 Z M794.77,608.10 L795.46,608.97 L794.32,605.84 L794.77,608.10 Z M811.30,627.62 L811.86,628.10 L811.45,624.89 L811.30,627.62 Z M771.61,469.76 L770.21,477.82 L770.81,476.89 L771.61,469.76 Z M789.94,473.82 L789.31,473.49 L790.38,476.82 L789.94,473.82 Z M791.13,469.69 L791.95,464.73 L789.94,473.82 L791.13,469.69 Z M795.07,468.89 L794.80,469.05 L796.56,470.56 L795.07,468.89 Z M807.03,472.30 L806.92,472.42 L807.07,474.02 L807.03,472.30 Z M815.83,471.29 L812.74,472.89 L813.94,472.69 L815.83,471.29 Z M816.53,469.29 L818.32,455.71 L815.83,471.29 L816.53,469.29 Z M787.30,504.60 L789.34,507.73 L787.10,504.19 L787.30,504.60 Z M786.13,502.12 L786.60,495.60 L785.95,501.73 L786.13,502.12 Z M790.33,492.01 L788.29,488.28 L787.69,487.74 L790.33,492.01 Z M792.67,484.55 L793.97,481.75 L793.90,480.25 L792.67,484.55 Z M797.08,483.97 L797.56,484.61 L799.25,484.51 L797.08,483.97 Z M802.93,485.41 L801.39,487.14 L804.53,484.08 L802.93,485.41 Z M801.78,492.77 L802.29,493.21 L805.62,491.34 L801.78,492.77 Z M794.22,504.40 L793.13,503.37 L795.21,507.06 L795.51,507.16 L794.22,504.40 Z M776.09,459.37 L777.78,456.84 L780.08,453.24 L776.09,459.37 Z M806.52,465.70 L807.86,471.36 L807.86,470.23 L806.52,465.70 Z M792.13,447.31 L792.47,447.50 L791.88,445.92 L792.13,447.31 Z M794.07,414.81 L792.82,411.55 L792.19,411.25 L794.07,414.81 Z M791.52,410.93 L791.13,410.75 L787.94,412.55 L791.52,410.93 Z M779.33,407.22 L780.82,408.08 L779.23,406.84 L779.33,407.22 Z M821.21,758.57 L821.03,759.01 L821.54,758.70 L821.21,758.57 Z M870.80,910.96 L871.21,910.63 L870.58,910.53 L870.80,910.96 Z M866.33,911.76 L868.47,911.10 L867.28,913.30 L869.17,910.30 L866.33,911.76 Z M872.16,925.89 L869.62,925.55 L871.12,926.01 L872.16,925.89 Z M868.77,931.75 L867.77,933.08 L866.48,935.14 L868.77,931.75 Z M876.04,943.75 L876.04,943.75 L873.90,946.13 L876.04,943.75 Z M834.71,895.71 L834.61,892.71 L834.46,892.49 L834.71,895.71 Z M847.95,886.92 L845.11,885.99 L844.70,886.08 L847.95,886.92 Z M849.94,889.05 L851.99,889.05 L848.50,888.72 L849.94,889.05 Z M854.68,889.38 L854.23,888.19 L853.73,887.39 L854.68,889.38 Z M855.69,954.55 L856.37,955.46 L855.97,954.39 L858.71,952.66 L855.69,954.55 Z M858.51,957.06 L858.11,955.73 L858.51,958.72 L858.51,957.06 Z M859.81,957.12 L859.78,956.58 L858.51,957.06 L859.81,957.12 Z M862.00,955.76 L861.25,956.04 L861.85,956.06 L862.00,955.76 Z M860.70,960.29 L858.01,961.25 L859.56,961.32 L860.70,960.29 Z M862.84,959.52 L862.57,959.62 L862.78,959.67 L862.84,959.52 Z M841.53,924.82 L845.11,929.48 L843.07,926.82 L841.53,924.82 Z M853.23,910.50 L850.34,909.43 L848.50,909.03 L853.23,910.50 Z M858.91,910.57 L862.39,911.91 L862.39,911.36 L858.91,910.57 Z M865.63,913.16 L863.29,913.83 L866.18,913.16 L865.57,913.14 L865.63,913.16 Z M864.64,933.68 L863.99,933.35 L862.24,933.46 L863.84,933.88 L864.64,933.68 Z M841.93,904.24 L842.15,903.78 L840.78,902.91 L841.93,904.24 Z M845.56,906.97 L844.96,905.57 L843.12,904.40 L845.56,906.97 Z M838.83,904.29 L837.40,905.30 L835.75,907.70 L838.83,904.29 Z M836.60,912.90 L838.37,917.78 L835.75,907.70 L836.60,912.90 Z M833.91,868.90 L834.09,869.39 L834.33,868.91 L834.06,869.00 L833.91,868.90 Z M826.29,838.63 L833.91,839.03 L835.75,838.43 L826.29,838.63 Z M838.24,876.86 L842.49,877.02 L841.78,876.53 L838.24,876.86 Z M849.59,876.42 L849.60,876.40 L851.59,875.06 L849.52,876.34 L849.59,876.42 Z M856.92,852.22 L861.70,860.34 L856.95,851.88 L856.92,852.22 Z M837.25,819.05 L838.58,818.98 L833.76,817.45 L837.25,819.05 Z M841.24,818.86 L847.11,818.58 L842.08,818.45 L841.24,818.86 Z M850.84,812.92 L851.26,812.98 L850.89,812.39 L849.50,816.38 L850.84,812.92 Z M852.25,813.13 L853.03,813.25 L854.18,811.72 L852.25,813.13 Z M867.49,834.08 L866.98,834.50 L866.93,835.30 L867.49,834.08 Z M823.00,783.81 L824.47,783.27 L821.74,783.64 L823.00,783.81 Z M852.29,805.19 L852.63,803.39 L851.73,805.73 L852.29,805.19 Z M846.06,782.41 L844.67,786.14 L846.28,782.19 L846.06,782.41 Z M842.47,634.08 L843.82,633.95 L841.18,633.41 L842.47,634.08 Z M837.00,688.56 L834.76,683.37 L835.10,685.10 L837.00,688.56 Z M844.27,691.03 L843.07,690.76 L842.18,690.63 L844.27,691.03 Z M845.85,683.80 L845.36,683.84 L843.07,690.76 L845.85,683.80 Z M846.31,682.17 L846.31,682.64 L848.25,682.37 L844.91,681.97 L846.31,682.17 Z M853.08,686.17 L851.44,681.50 L851.79,683.97 L853.08,686.17 Z M854.48,681.17 L852.68,681.24 L851.44,681.50 L854.48,681.17 Z M837.25,718.20 L839.49,718.54 L838.24,718.07 L841.43,717.61 L837.25,718.20 Z M842.52,707.75 L844.37,709.95 L846.36,712.28 L842.52,707.75 Z M852.83,715.87 L850.79,712.54 L852.24,715.54 L852.83,715.87 Z M855.67,720.54 L854.38,718.42 L855.82,722.07 L855.67,720.54 Z M861.75,716.07 L863.34,718.87 L862.13,715.81 L861.75,716.07 Z M863.59,714.81 L862.97,715.23 L864.61,715.06 L863.59,714.81 Z M859.66,720.87 L860.15,724.20 L860.47,724.49 L859.66,720.87 Z M833.96,739.72 L835.45,741.85 L835.90,741.84 L833.96,739.72 Z M838.80,739.77 L838.94,739.39 L837.20,735.79 L838.80,739.77 Z M859.31,728.79 L858.36,729.33 L858.24,730.25 L859.31,728.79 Z M856.27,732.92 L856.83,737.31 L857.12,736.52 L856.27,732.92 Z M835.20,698.36 L838.14,696.89 L837.40,696.56 L835.20,698.36 Z M837.10,698.76 L838.09,698.09 L838.14,696.89 L837.10,698.76 Z M840.53,699.82 L840.83,700.39 L840.43,698.36 L840.53,699.82 Z M851.49,697.42 L855.37,700.89 L853.58,698.96 L851.49,697.42 Z M866.38,667.13 L865.96,667.24 L866.29,667.55 L866.38,667.13 Z M857.27,679.84 L859.46,679.70 L858.66,679.31 L857.27,679.84 Z M860.40,680.15 L860.45,680.77 L863.74,681.77 L860.40,680.15 Z M867.18,689.76 L866.93,683.57 L866.88,691.23 L867.18,689.76 Z M847.50,662.52 L849.37,657.30 L849.20,657.19 L847.50,662.52 Z M849.75,656.26 L850.89,653.06 L849.75,655.66 L849.75,656.26 Z M854.37,652.83 L855.17,652.80 L855.17,652.10 L854.37,652.83 Z M857.71,651.26 L858.56,651.20 L856.02,651.33 L855.68,651.64 L857.71,651.26 Z M858.96,649.13 L862.69,650.00 L864.44,649.93 L858.96,649.13 Z M866.18,657.06 L866.23,658.99 L866.68,659.41 L866.18,657.06 Z M867.73,660.37 L867.82,660.46 L870.36,660.52 L867.73,660.37 Z M858.56,663.05 L859.31,653.60 L858.36,660.66 L858.56,663.05 Z M838.48,625.06 L839.14,622.29 L838.19,624.82 L838.48,625.06 Z M855.72,609.37 L850.84,607.10 L853.83,605.17 L850.18,606.81 L855.72,609.37 Z M832.38,613.46 L832.22,616.43 L832.66,614.50 L832.38,613.46 Z M849.30,561.21 L846.01,565.01 L844.37,567.74 L849.30,561.21 Z M838.09,443.92 L839.64,442.05 L839.90,441.09 L838.09,443.92 Z M846.49,430.87 L846.76,430.73 L847.06,427.73 L846.49,430.87 Z M851.34,421.60 L852.98,423.67 L852.68,422.94 L851.34,421.60 Z M853.61,425.23 L851.09,429.13 L853.73,425.53 L853.61,425.23 Z M844.07,490.74 L843.52,488.81 L843.25,488.71 L844.07,490.74 Z M896.16,961.45 L897.95,953.16 L897.40,954.19 L896.16,961.45 Z M881.07,927.55 L881.22,928.82 L881.52,930.95 L881.07,927.55 Z M890.28,936.88 L885.65,938.14 L888.49,937.94 L890.28,936.88 Z M898.65,921.42 L897.88,923.42 L898.15,922.89 L898.65,921.42 Z M901.49,928.75 L900.84,928.95 L901.82,929.83 L901.49,928.75 Z M885.05,942.34 L884.46,939.54 L884.41,941.00 L885.05,942.34 Z M884.42,914.93 L884.57,915.15 L885.60,914.56 L884.42,914.93 Z M884.58,915.16 L885.10,915.89 L886.13,915.36 L884.58,915.16 Z M887.85,915.58 L890.78,917.49 L889.24,915.76 L887.85,915.58 Z M895.76,916.23 L900.24,912.90 L900.29,912.62 L894.32,917.29 L895.76,916.23 Z M902.83,912.16 L900.44,910.83 L900.54,911.23 L902.83,912.16 Z M904.72,912.90 L907.51,913.70 L906.72,913.16 L904.72,912.90 Z M871.71,912.70 L873.60,913.56 L874.40,913.76 L871.10,911.53 L871.71,912.70 Z M889.83,897.51 L889.78,897.53 L890.78,900.17 L889.83,897.51 Z M876.29,674.78 L874.55,675.71 L876.89,675.09 L876.29,674.78 Z M893.32,478.35 L891.78,471.35 L891.58,471.63 L893.32,478.35 Z M899.88,489.10 L899.74,489.14 L898.60,490.48 L899.88,489.10 Z M928.73,511.39 L927.53,510.59 L927.22,510.69 L928.73,511.39 Z M918.57,520.25 L916.73,518.38 L918.81,521.32 L918.57,520.25 Z M919.22,523.11 L919.13,522.75 L918.56,523.42 L919.22,523.11 Z M913.34,530.17 L915.44,527.00 L910.35,532.84 L913.34,530.17 Z M922.55,555.55 L919.96,552.75 L922.57,556.23 L922.55,555.55 Z M923.90,566.21 L922.82,559.58 L922.70,561.01 L923.90,566.21 Z M916.88,560.48 L914.73,561.54 L918.12,560.81 L918.13,560.80 L916.88,560.48 Z M902.68,556.95 L902.28,554.64 L902.14,554.75 L902.68,556.95 Z M901.10,559.94 L901.54,560.08 L902.68,556.95 L901.10,559.94 Z M900.65,561.42 L900.79,560.52 L900.39,561.28 L900.65,561.42 Z M900.39,563.14 L900.39,563.13 L897.85,569.60 L900.39,563.14 Z M909.21,574.40 L908.05,573.32 L910.45,577.00 L909.21,574.40 Z M907.63,599.65 L909.06,597.38 L908.11,598.11 L907.63,599.65 Z M906.62,606.90 L907.13,601.24 L906.82,602.24 L906.62,606.90 Z M903.88,611.37 L902.09,608.24 L903.38,611.37 L905.62,612.83 L906.48,612.58 L903.88,611.37 Z M908.86,608.97 L907.24,612.36 L907.91,612.17 L908.86,608.97 Z M911.20,612.17 L911.43,611.27 L910.77,612.46 L911.20,612.17 Z M903.43,786.61 L903.10,785.67 L903.05,789.52 L903.43,786.61 Z M910.08,814.97 L917.22,810.79 L918.57,809.79 L910.08,814.96 L910.08,814.97 Z M918.57,814.65 L918.76,814.43 L917.22,810.79 L918.57,814.65 Z M911.35,826.04 L910.15,821.25 L911.55,827.11 L911.35,826.04 Z M913.34,850.02 L912.24,846.56 L912.21,846.50 L913.34,850.02 Z M915.63,866.80 L914.34,865.67 L913.14,864.81 L915.63,866.80 Z M911.45,873.13 L911.65,873.07 L907.02,874.40 L911.45,873.13 Z M913.30,877.61 L916.08,882.52 L911.65,873.07 L913.30,877.61 Z M881.53,654.33 L882.26,654.73 L881.72,653.20 L881.53,654.33 Z M882.56,654.33 L881.77,651.86 L881.72,653.20 L882.56,654.33 Z M888.54,802.46 L887.79,804.53 L887.59,805.66 L888.54,802.46 Z M901.28,791.02 L900.84,790.54 L897.50,789.07 L901.28,791.02 Z M902.95,791.24 L902.26,791.52 L902.68,791.74 L902.88,793.72 L902.95,791.24 Z M889.44,841.36 L889.21,841.59 L892.72,841.76 L889.44,841.36 Z M896.54,842.51 L896.57,842.50 L894.86,836.01 L895.61,840.83 L896.54,842.51 Z M910.25,843.16 L909.91,843.02 L910.79,844.08 L910.25,843.16 Z M899.62,888.51 L899.55,887.19 L898.15,884.86 L899.62,888.51 Z M897.30,877.33 L897.30,874.46 L897.24,874.23 L897.30,877.33 Z M892.18,868.27 L890.23,861.28 L889.57,860.37 L892.18,868.27 Z M895.78,869.33 L894.86,866.27 L895.56,868.80 L895.78,869.33 Z M899.93,856.27 L899.98,855.49 L896.66,856.95 L899.60,855.75 L899.93,856.27 Z M904.18,862.87 L900.59,856.75 L900.26,856.78 L904.18,862.87 Z M900.44,819.98 L902.48,819.45 L901.79,819.58 L900.44,819.98 Z M901.93,818.55 L901.29,818.85 L901.84,818.65 L901.79,819.58 L901.93,818.55 Z M891.63,812.25 L893.07,808.19 L891.44,812.32 L891.63,812.25 Z M895.06,782.15 L892.87,780.68 L895.96,783.14 L895.06,782.15 Z M877.19,745.25 L873.90,737.45 L877.38,746.91 L877.19,745.25 Z M880.57,725.86 L880.52,730.19 L879.92,726.80 L881.07,734.26 L880.57,725.86 Z M883.46,736.45 L882.96,733.79 L883.66,738.85 L883.46,736.45 Z M877.32,675.32 L877.19,679.44 L877.68,675.51 L877.32,675.32 Z M884.51,659.72 L880.02,669.98 L883.86,662.32 L884.51,659.72 Z M887.74,656.93 L885.25,657.19 L884.70,657.78 L887.74,656.93 Z M889.98,658.46 L890.14,657.89 L887.74,656.93 L889.98,658.46 Z M886.14,676.35 L886.20,679.04 L886.45,677.11 L886.14,676.35 Z M878.48,563.61 L875.64,564.16 L875.64,564.16 L878.48,563.61 Z M887.00,579.86 L887.71,578.78 L885.70,580.13 L887.00,579.86 Z M889.04,579.33 L888.49,578.26 L888.38,578.34 L889.04,579.33 Z M897.67,614.36 L895.01,613.70 L897.25,614.63 L897.67,614.36 Z M899.50,609.64 L897.45,610.83 L899.84,612.97 L901.89,614.96 L898.05,610.90 L899.50,609.64 Z M900.84,608.70 L900.62,611.14 L900.94,611.57 L900.84,608.70 Z M878.93,640.14 L878.58,641.41 L879.63,637.88 L878.93,640.14 Z M890.90,633.07 L892.13,635.21 L891.43,633.15 L890.90,633.07 Z M892.06,635.33 L893.37,633.95 L892.13,635.21 L892.06,635.33 Z M889.79,590.90 L890.98,592.38 L889.98,590.85 L889.79,590.90 Z M892.52,599.98 L894.66,602.12 L894.62,601.98 L892.52,599.98 Z M904.33,584.86 L904.42,583.27 L904.42,583.27 L904.33,584.86 Z M895.51,604.97 L895.22,603.99 L894.91,607.97 L895.51,604.97 Z M904.48,539.23 L903.23,539.83 L893.12,548.29 L904.48,539.23 Z M916.13,906.64 L921.81,905.44 L921.61,900.31 L921.21,901.97 L921.66,905.44 L916.13,906.64 Z M917.27,927.89 L917.35,928.13 L917.57,928.03 L917.27,927.89 Z M918.80,927.48 L919.52,927.15 L921.91,922.75 L918.80,927.48 Z M918.72,913.03 L924.79,920.09 L920.46,914.50 L918.72,913.03 Z M913.16,935.97 L912.54,932.88 L912.39,934.74 L913.16,935.97 Z M919.95,803.26 L923.05,799.53 L920.76,801.40 L919.95,803.26 Z M933.94,804.18 L932.06,803.73 L929.77,803.86 L933.76,804.26 L933.94,804.18 Z M933.46,806.99 L933.83,805.90 L933.76,804.26 L933.46,806.99 Z M919.17,866.74 L917.96,865.43 L921.41,874.53 L918.12,865.81 L919.17,866.74 Z M927.78,880.26 L928.28,877.66 L927.31,880.81 L927.78,880.26 Z M931.95,876.30 L931.77,876.00 L931.07,877.86 L931.95,876.30 Z M934.36,871.20 L933.05,874.34 L933.96,872.73 L934.40,872.52 L934.36,871.20 Z M932.96,869.14 L931.62,867.27 L931.42,867.45 L934.36,871.20 L932.96,869.14 Z M936.10,877.60 L935.05,868.47 L935.20,872.13 L936.10,877.60 Z M936.80,862.74 L936.15,863.41 L935.05,868.47 L936.80,862.74 Z M942.42,870.07 L938.54,864.54 L936.80,862.74 L942.42,870.07 Z M950.04,877.99 L950.33,878.48 L950.24,875.00 L950.04,877.99 Z M950.64,878.99 L950.83,877.72 L950.43,878.65 L950.64,878.99 Z M915.18,891.38 L915.03,898.11 L915.08,897.11 L915.18,891.38 Z M921.31,898.38 L920.76,898.31 L927.18,899.18 L925.04,898.44 L921.31,898.38 Z M926.39,891.25 L918.52,891.45 L923.95,891.38 L933.91,892.45 L934.97,892.11 L926.39,891.25 Z M923.95,886.59 L922.75,884.66 L926.39,891.25 L923.95,886.59 Z M935.81,891.84 L936.40,891.65 L936.50,889.72 L935.81,891.84 Z M939.44,882.19 L941.73,882.86 L938.89,881.19 L939.44,882.19 Z M927.13,836.96 L929.08,842.03 L924.34,826.61 L924.40,827.04 L927.13,836.96 Z M939.53,836.03 L940.78,839.03 L940.87,839.25 L939.53,836.03 Z M943.72,834.17 L942.23,834.75 L942.52,835.37 L943.72,834.17 Z M923.95,823.71 L923.96,823.79 L926.89,821.98 L922.80,823.58 L923.95,823.71 Z M927.68,822.84 L928.35,822.51 L926.89,821.98 L927.68,822.84 Z M928.89,822.23 L929.13,822.11 L929.14,821.59 L928.89,822.23 Z M917.03,829.11 L922.20,828.44 L916.99,828.99 L917.03,829.11 Z M923.00,785.48 L917.17,784.28 L923.75,786.41 L923.00,785.48 Z M926.40,796.01 L927.98,796.47 L926.54,796.00 L926.40,796.01 Z M931.87,795.67 L934.31,794.14 L927.98,796.47 L931.87,795.67 Z M924.69,787.61 L924.53,787.40 L926.54,796.00 L924.69,787.61 Z M911.35,595.98 L912.71,596.71 L911.35,595.23 L911.35,595.98 Z M913.62,597.77 L916.48,597.91 L914.20,597.53 L913.62,597.77 Z M929.48,598.58 L927.52,593.64 L927.53,594.18 L929.48,598.58 Z M929.03,589.79 L927.48,591.78 L927.50,592.46 L929.03,589.79 Z M912.69,606.37 L913.18,607.12 L912.39,600.31 L912.69,606.37 Z M914.59,607.50 L916.03,608.90 L917.08,608.69 L914.59,607.50 Z M919.78,608.30 L921.01,609.32 L920.31,608.10 L919.78,608.30 Z M929.87,602.97 L929.54,602.69 L930.47,605.97 L929.87,602.97 Z M913.19,599.18 L912.65,598.19 L912.19,598.38 L913.19,599.18 Z M925.14,580.19 L925.41,580.65 L925.69,579.89 L925.14,580.19 Z M927.23,579.03 L929.97,578.66 L928.23,578.46 L927.23,579.03 Z M932.11,580.93 L932.56,579.86 L932.07,578.48 L932.11,580.93 Z M928.83,585.72 L928.39,585.75 L928.88,586.86 L928.83,585.72 Z M938.04,558.68 L938.57,558.71 L933.81,555.55 L938.04,558.68 Z M929.12,574.50 L929.72,571.74 L928.93,574.13 L929.12,574.50 Z M939.53,530.71 L935.75,525.44 L938.59,530.31 L944.07,534.30 L939.53,530.71 Z M931.82,510.92 L931.32,513.39 L933.31,507.19 L931.82,510.92 Z M941.53,506.33 L941.38,507.93 L943.37,500.67 L941.53,506.33 Z M949.35,524.24 L953.60,525.45 L952.43,524.64 L949.35,524.24 Z" /></g></svg>